<?xml version="1.0" standalone="no"?>
<!DOCTYPE svg PUBLIC "-//W3C//DTD SVG 20010904//EN"
 "http://www.w3.org/TR/2001/REC-SVG-20010904/DTD/svg10.dtd">
<svg version="1.0" xmlns="http://www.w3.org/2000/svg"
 width="4831.000000pt" height="3525.000000pt" viewBox="0 0 4831.000000 3525.000000"
 preserveAspectRatio="xMidYMid meet">
<metadata>
Created by potrace 1.16, written by Peter Selinger 2001-2019
</metadata>
<g transform="translate(0.000000,3525.000000) scale(0.100000,-0.100000)"
fill="#000000" stroke="none">
<path d="M12205 35239 c-506 -37 -1060 -143 -1553 -295 -476 -147 -897 -318
-1167 -474 -860 -499 -1362 -1256 -1496 -2254 -15 -114 -22 -249 -29 -553 -10
-432 -19 -564 -52 -713 -78 -361 -292 -667 -903 -1289 -684 -696 -2034 -1823
-3610 -3012 -1353 -1021 -2315 -1825 -2911 -2430 -449 -456 -563 -675 -432
-825 35 -40 83 -52 140 -35 66 20 286 176 945 669 938 701 1144 845 1563 1092
124 73 324 192 445 263 1395 824 2710 1576 3635 2078 383 207 1069 548 1245
618 124 50 174 65 225 68 36 2 72 -1 80 -6 28 -19 16 -239 -38 -711 -99 -853
-121 -1133 -129 -1655 -6 -400 4 -708 33 -1025 184 -2036 990 -3775 2491
-5376 211 -225 1391 -1385 2063 -2030 2121 -2032 3071 -2695 4471 -3118 660
-199 1398 -348 3249 -655 459 -77 854 -146 878 -154 69 -24 118 -63 268 -212
167 -167 276 -302 429 -530 145 -218 233 -371 355 -620 371 -755 533 -1508
405 -1879 -32 -92 -63 -137 -139 -196 -35 -27 -80 -73 -100 -102 -74 -109
-149 -334 -181 -543 -19 -126 -19 -352 -1 -470 32 -203 29 -542 -9 -1075 -125
-1724 -535 -4454 -797 -5305 -45 -149 -69 -195 -145 -283 -202 -233 -344 -524
-358 -732 -9 -125 -19 -163 -57 -206 -75 -85 -244 -141 -828 -274 -124 -28
-351 -80 -505 -115 -354 -81 -470 -96 -1605 -210 -1783 -178 -2345 -256 -2475
-341 -62 -41 -74 -131 -25 -188 40 -45 96 -63 250 -81 435 -50 1877 -68 3730
-45 871 11 1153 22 2340 95 135 8 286 15 335 15 168 0 266 26 339 90 41 37 87
120 104 191 16 65 30 242 37 469 15 491 47 844 126 1410 123 884 280 1488 445
1713 34 47 77 77 91 63 11 -11 -13 -156 -66 -406 -65 -306 -74 -370 -73 -520
0 -289 94 -511 249 -590 41 -21 62 -25 144 -25 90 0 99 2 170 37 485 241 913
1332 1084 2763 38 323 58 576 111 1430 28 457 52 776 58 784 18 23 1954 1830
2176 2031 884 797 1514 1415 1855 1820 301 357 464 640 543 940 25 98 27 118
27 310 -1 233 -16 339 -70 506 -60 182 -139 317 -259 443 -117 122 -204 179
-479 315 -248 123 -412 219 -402 236 9 14 154 58 280 84 177 37 608 97 1230
171 929 111 1512 200 2195 336 1167 232 2231 537 2793 802 182 86 312 107 671
107 1447 0 4647 -646 7206 -1455 1026 -324 2159 -599 3035 -736 177 -27 380
-30 475 -5 229 60 292 226 162 426 -80 122 -333 350 -556 499 -478 321 -1496
909 -2976 1721 -348 190 -656 363 -855 478 -421 242 -703 438 -689 477 9 23
103 63 194 82 132 28 651 25 930 -5 525 -57 1096 -153 1885 -318 588 -124 808
-148 1340 -148 399 0 522 6 1055 59 190 19 440 39 555 45 514 27 762 65 862
133 38 25 73 89 73 133 0 49 -51 117 -117 157 -157 96 -417 177 -1493 467
-1871 504 -2955 869 -3284 1104 l-49 34 53 16 c128 38 429 66 720 66 604 1
1094 38 1585 120 324 54 522 107 617 164 105 63 132 192 68 324 -177 362
-1162 793 -2379 1043 -565 115 -1064 180 -1801 234 -423 31 -724 59 -1030 96
-2542 308 -4196 1090 -6899 3257 -376 302 -690 562 -1456 1207 -1194 1005
-1565 1307 -1916 1557 -282 201 -355 244 -829 485 -779 397 -1235 641 -1820
973 -477 271 -676 378 -1075 575 -1517 750 -2951 1185 -4545 1379 -69 9 -309
34 -535 56 -1215 120 -1860 220 -2220 342 -94 32 -136 56 -387 222 -538 354
-758 467 -910 467 -37 0 -77 -2 -87 -6 -17 -5 -29 12 -82 117 -264 526 -763
1195 -1299 1742 -1211 1236 -2601 1922 -4108 2025 -175 12 -663 12 -827 0z
m15455 -22191 c110 -56 159 -270 163 -712 l2 -201 -31 -87 c-55 -154 -169
-327 -359 -544 -152 -172 -703 -714 -1175 -1154 -458 -428 -724 -683 -1410
-1355 -206 -202 -387 -375 -401 -385 l-25 -19 27 192 c75 517 63 770 -55 1179
-101 348 -238 688 -486 1208 -198 416 -226 490 -218 585 4 45 13 68 51 124 93
135 203 215 353 257 43 12 129 18 318 24 394 13 621 42 931 122 312 79 524
157 985 363 511 228 799 342 984 390 117 31 126 32 221 34 66 1 89 -3 125 -21z"/>
</g>
</svg>
