<?xml version="1.0" standalone="no"?>
<!DOCTYPE svg PUBLIC "-//W3C//DTD SVG 20010904//EN"
 "http://www.w3.org/TR/2001/REC-SVG-20010904/DTD/svg10.dtd">
<svg version="1.0" xmlns="http://www.w3.org/2000/svg"
 width="247.000000pt" height="1536.000000pt" viewBox="0 0 247.000000 1536.000000"
 preserveAspectRatio="xMidYMid meet">
<metadata>
Created by potrace 1.16, written by Peter Selinger 2001-2019
</metadata>
<g transform="translate(0.000000,1536.000000) scale(0.100000,-0.100000)"
fill="#000000" stroke="none">
<path d="M1068 15330 c-91 -61 -349 -347 -457 -506 -44 -65 -71 -131 -71 -171
0 -13 -18 -70 -39 -126 -22 -56 -51 -143 -65 -193 -14 -50 -49 -142 -77 -205
-73 -161 -79 -182 -90 -291 -5 -54 -18 -136 -29 -182 -14 -57 -25 -164 -35
-337 -8 -140 -21 -333 -29 -429 -8 -96 -20 -238 -25 -315 -7 -94 -19 -170 -36
-230 -14 -49 -44 -196 -66 -325 -65 -377 -64 -574 6 -892 19 -86 35 -167 35
-180 0 -13 9 -43 20 -67 22 -47 35 -152 45 -346 10 -207 24 -308 70 -489 24
-96 49 -222 55 -278 30 -258 67 -302 410 -482 187 -99 203 -110 319 -221 173
-166 268 -313 310 -480 11 -44 34 -163 51 -265 89 -527 166 -726 367 -943 95
-102 145 -185 180 -295 21 -69 25 -96 21 -170 -3 -76 -9 -99 -41 -167 -58
-121 -121 -197 -340 -410 -325 -317 -373 -382 -421 -566 -36 -136 -68 -350
-69 -454 -3 -223 131 -564 376 -958 47 -76 88 -151 92 -166 10 -45 -71 -233
-171 -399 -25 -39 -82 -147 -128 -240 -161 -322 -177 -373 -183 -614 -7 -245
4 -316 68 -448 91 -189 147 -270 293 -428 105 -114 119 -152 120 -317 1 -107
-1 -113 -43 -220 -77 -196 -91 -246 -113 -400 l-21 -152 61 -179 c85 -245 90
-272 102 -478 13 -215 28 -279 70 -301 35 -18 126 -19 160 -2 30 15 66 67 80
116 20 68 60 346 60 413 0 37 -7 93 -15 125 -8 31 -15 74 -15 95 0 21 -12 72
-26 114 -29 84 -29 129 1 219 20 58 100 226 179 374 52 96 56 108 56 170 0
156 -81 592 -123 664 -14 23 -73 89 -132 146 -88 87 -112 117 -145 185 -72
144 -87 311 -45 471 30 114 217 477 312 606 58 78 126 220 149 309 13 48 18
110 18 240 l1 175 -31 65 c-18 36 -63 102 -100 148 -276 335 -385 583 -353
806 11 80 25 109 95 200 30 37 54 74 54 80 0 26 77 100 158 153 96 61 264 220
357 336 49 61 74 106 113 200 71 173 86 303 62 522 -43 381 -170 679 -393 922
-79 86 -120 162 -162 304 -50 165 -66 287 -75 564 -11 335 -19 366 -128 511
-126 167 -232 247 -556 420 -133 71 -207 127 -230 173 -7 14 -16 55 -20 90 -9
82 -30 142 -72 211 -52 85 -74 187 -85 405 -6 105 -19 235 -30 290 -45 228
-58 306 -68 412 -6 61 -18 133 -26 160 -8 26 -15 76 -15 111 0 65 24 242 40
302 49 171 78 1032 40 1162 -8 27 -7 56 4 116 9 53 11 96 5 124 -13 70 -10
149 12 295 11 76 24 212 29 303 6 144 11 174 34 235 15 38 33 108 40 155 7 47
29 132 49 190 19 58 46 139 58 180 17 54 44 106 97 185 140 208 272 453 272
506 0 13 -11 37 -24 53 -20 25 -31 30 -82 34 -53 3 -64 0 -106 -28z"/>
</g>
</svg>
