<?xml version="1.0" standalone="no"?>
<!DOCTYPE svg PUBLIC "-//W3C//DTD SVG 20010904//EN"
 "http://www.w3.org/TR/2001/REC-SVG-20010904/DTD/svg10.dtd">
<svg version="1.0" xmlns="http://www.w3.org/2000/svg"
 width="578.000000pt" height="1536.000000pt" viewBox="0 0 578.000000 1536.000000"
 preserveAspectRatio="xMidYMid meet">
<metadata>
Created by potrace 1.16, written by Peter Selinger 2001-2019
</metadata>
<g transform="translate(0.000000,1536.000000) scale(0.100000,-0.100000)"
fill="#000000" stroke="none">
<path d="M934 15341 c-112 -51 -198 -239 -238 -521 -19 -133 -61 -500 -78
-690 -8 -88 -13 -288 -13 -510 0 -459 17 -605 119 -1055 73 -317 70 -271 71
-1195 1 -935 5 -1032 66 -1650 12 -125 4 -236 -23 -308 -21 -57 -60 -101 -154
-174 -67 -52 -118 -117 -112 -144 6 -32 35 -40 72 -20 37 20 67 17 101 -8 18
-13 20 -25 19 -103 -3 -122 -26 -212 -84 -320 -54 -99 -61 -136 -31 -153 34
-18 54 -11 96 30 l42 41 12 -128 c47 -512 43 -829 -19 -1723 -27 -380 -32
-408 -73 -443 -41 -36 -302 -204 -384 -247 -174 -91 -237 -222 -236 -490 0
-192 35 -340 124 -524 52 -106 51 -132 -8 -231 -58 -99 -73 -149 -73 -239 0
-67 4 -79 65 -206 92 -191 90 -174 50 -545 -13 -124 -14 -178 -5 -315 21 -330
57 -576 107 -733 22 -70 25 -95 21 -177 -3 -73 -9 -105 -27 -138 -37 -72 -45
-142 -26 -235 31 -153 105 -293 241 -453 72 -85 81 -100 67 -109 -43 -27 -83
-69 -94 -102 -19 -60 -5 -158 41 -279 l41 -109 -23 -14 c-13 -8 -109 -101
-213 -208 -139 -142 -209 -206 -260 -237 -48 -29 -72 -50 -76 -67 -3 -13 -13
-41 -22 -61 -12 -26 -17 -64 -17 -123 l0 -86 72 -34 c40 -19 87 -35 104 -35
36 0 83 30 187 117 98 82 210 162 299 212 40 22 85 50 99 62 25 20 28 20 58 5
17 -9 72 -63 122 -121 129 -148 247 -241 399 -315 104 -50 178 -65 420 -89
l195 -20 108 -56 c137 -71 175 -77 277 -41 164 59 195 66 337 81 172 18 241
35 271 67 48 52 53 218 8 263 -46 46 -228 45 -411 -2 -94 -24 -104 -25 -200
-14 -55 6 -194 16 -308 22 -114 5 -240 16 -280 23 -156 31 -347 120 -431 203
-58 57 -84 102 -97 166 -15 74 1 102 63 112 24 4 76 20 116 36 90 36 130 36
207 2 50 -22 77 -26 160 -28 117 -2 180 -12 194 -29 8 -9 -7 -51 -54 -152 -35
-76 -67 -158 -71 -180 -6 -38 -3 -45 27 -78 37 -41 87 -57 132 -45 51 14 116
79 229 230 l112 149 31 -92 c80 -240 172 -325 276 -255 79 53 85 127 30 346
-46 185 -49 220 -22 245 26 24 211 82 320 101 47 8 176 22 286 30 312 23 413
43 535 105 86 44 849 567 1016 696 147 114 292 274 400 439 99 153 167 310
229 530 57 203 91 252 213 314 81 41 114 79 119 138 12 116 -36 180 -189 256
-130 64 -138 76 -147 246 l-7 129 -59 117 -59 116 -1 114 0 114 35 36 c19 20
71 63 116 95 177 129 264 256 272 402 7 116 -9 160 -74 210 -64 48 -83 77
-134 205 -33 83 -46 104 -86 138 -89 75 -134 122 -134 142 0 35 39 73 106 103
56 25 67 35 83 72 28 62 34 155 22 309 -12 148 -32 240 -59 279 -30 42 -102
71 -189 77 l-78 5 -63 -48 c-35 -27 -95 -73 -135 -102 -39 -29 -77 -62 -84
-72 -7 -10 -27 -58 -44 -107 -29 -84 -94 -233 -101 -233 -2 0 -25 11 -52 25
-63 32 -90 32 -123 -1 -24 -24 -25 -29 -21 -117 5 -126 29 -175 106 -219 78
-46 142 -109 142 -141 0 -14 -15 -44 -35 -69 -81 -99 -125 -234 -125 -385 0
-106 23 -179 89 -276 28 -43 60 -97 71 -122 42 -99 63 -275 40 -342 -11 -31
-45 -53 -81 -53 -41 0 -59 -19 -59 -60 0 -42 28 -86 122 -188 81 -90 143 -246
183 -461 47 -256 -23 -626 -170 -896 -150 -275 -348 -461 -848 -792 -322 -213
-423 -267 -454 -242 -19 16 -63 164 -70 235 -11 121 28 169 186 230 161 62
203 99 241 210 41 119 37 194 -21 341 -38 95 -80 108 -193 55 l-64 -30 -4 142
c-4 171 -15 199 -120 311 l-71 76 36 37 c51 52 129 97 237 138 126 46 194 87
266 159 106 105 155 234 158 418 l1 99 -32 26 c-17 15 -43 35 -57 45 -43 30
-129 227 -112 256 3 5 50 16 103 26 273 49 403 161 403 348 0 67 -17 119 -52
162 -30 36 -94 75 -123 75 -23 0 -35 -42 -35 -119 0 -85 -28 -144 -88 -185
-60 -42 -91 -39 -196 22 -50 29 -105 55 -123 58 -18 3 -37 12 -43 19 -6 7 -14
78 -20 158 -9 152 -15 173 -70 248 -15 21 -33 52 -40 69 -15 37 -7 52 97 165
85 93 190 236 230 315 26 51 28 63 27 175 0 89 -7 154 -27 253 -24 118 -27
154 -27 340 0 206 0 209 -24 231 -14 13 -44 25 -77 30 -66 11 -86 32 -130 143
-33 82 -34 86 -37 266 -5 245 10 407 45 484 l26 58 127 0 c118 0 128 1 148 23
36 38 46 105 28 177 -27 103 -96 179 -167 182 -41 1 -68 -12 -130 -63 -26 -22
-49 -39 -52 -39 -3 0 -26 29 -51 64 -60 84 -119 135 -217 186 -111 58 -166 63
-242 22 -32 -17 -83 -36 -115 -42 -109 -22 -157 -39 -184 -67 -32 -34 -127
-254 -163 -378 -15 -49 -29 -124 -32 -167 -5 -68 -3 -79 17 -107 12 -18 54
-53 93 -79 51 -33 83 -64 112 -107 46 -68 65 -80 154 -94 106 -17 222 -84 194
-112 -11 -11 -26 -9 -211 18 -28 5 -38 -1 -76 -38 -84 -85 -110 -232 -87 -493
17 -192 33 -220 176 -299 76 -41 82 -47 115 -112 34 -67 35 -70 33 -179 -2
-99 -36 -449 -49 -502 -5 -19 -11 -20 -55 -16 -56 5 -65 0 -120 -74 -24 -33
-68 -71 -123 -108 -61 -40 -100 -75 -133 -119 -97 -127 -175 -185 -315 -233
-96 -32 -114 -46 -122 -89 -14 -73 36 -103 216 -130 100 -15 137 -35 149 -78
10 -38 -8 -52 -88 -67 -107 -20 -187 -48 -211 -73 l-22 -23 57 -124 56 -124
-24 -65 c-22 -60 -24 -81 -24 -231 1 -183 13 -270 57 -405 41 -124 46 -209 19
-307 -12 -42 -28 -113 -36 -157 -13 -72 -23 -97 -78 -194 -28 -49 -19 -160 22
-265 64 -163 126 -212 269 -212 l83 0 -45 -55 c-50 -62 -61 -102 -61 -225 1
-137 51 -191 235 -255 121 -42 151 -61 174 -110 24 -51 25 -195 1 -231 -32
-49 -139 -85 -420 -143 -233 -48 -308 -56 -525 -56 -180 0 -218 3 -315 24 -66
15 -142 25 -190 25 -72 0 -89 -5 -173 -42 l-93 -41 6 87 c14 180 19 198 83
281 108 140 238 344 314 495 l42 80 -20 106 c-12 68 -19 149 -19 230 0 110 5
149 45 327 l44 203 -22 92 c-12 51 -26 129 -32 173 -5 44 -21 113 -35 152 -32
93 -33 174 -1 264 24 70 65 145 193 357 115 189 153 302 153 459 l0 61 -60 7
c-33 4 -60 10 -60 14 0 4 50 117 111 252 181 397 239 549 239 624 0 38 -39
102 -75 125 -17 11 -63 24 -102 31 -101 16 -146 44 -156 94 -5 22 -18 60 -30
85 l-22 45 -82 3 c-82 3 -83 3 -99 35 -9 18 -33 53 -54 78 -88 106 -94 134
-64 335 14 90 17 207 18 679 1 314 5 647 10 740 8 165 7 177 -28 415 -56 381
-63 503 -40 701 16 141 19 223 16 594 -3 592 -16 785 -52 785 -19 0 -66 -58
-176 -221 -59 -87 -109 -157 -110 -156 -7 7 -26 402 -44 927 -46 1354 -47
1497 -15 1681 23 128 34 405 41 1059 9 812 -4 1014 -85 1300 -53 189 -138 360
-181 367 -8 2 -33 -6 -56 -16z"/>
</g>
</svg>
