<?xml version="1.0" standalone="no"?>
<!DOCTYPE svg PUBLIC "-//W3C//DTD SVG 20010904//EN"
 "http://www.w3.org/TR/2001/REC-SVG-20010904/DTD/svg10.dtd">
<svg version="1.0" xmlns="http://www.w3.org/2000/svg"
 width="282.000000pt" height="953.000000pt" viewBox="0 0 282.000000 953.000000"
 preserveAspectRatio="xMidYMid meet">
<metadata>
Created by potrace 1.16, written by Peter Selinger 2001-2019
</metadata>
<g transform="translate(0.000000,953.000000) scale(0.100000,-0.100000)"
fill="#000000" stroke="none">
<path d="M328 9514 c-144 -26 -307 -104 -323 -155 -10 -32 21 -55 87 -63 94
-12 357 -66 426 -87 99 -31 212 -93 280 -155 70 -63 136 -149 129 -167 -2 -7
-43 -59 -91 -115 -98 -117 -159 -229 -249 -457 -102 -259 -198 -597 -232 -819
-24 -151 -18 -323 11 -363 34 -46 53 -51 153 -38 l89 11 -25 -55 c-113 -251
-156 -552 -95 -668 25 -47 51 -59 109 -50 30 5 34 4 30 -11 -2 -9 -20 -71 -40
-137 -57 -195 -89 -353 -95 -463 -4 -91 -2 -105 14 -123 17 -19 26 -20 78 -15
l58 6 -5 -33 c-19 -106 -31 -262 -32 -397 0 -218 15 -246 126 -233 49 6 52 5
45 -13 -65 -161 -95 -358 -77 -508 10 -89 23 -106 79 -106 38 0 38 7 2 -93
-42 -117 -76 -405 -54 -461 5 -12 20 -16 58 -16 l52 0 -33 -67 c-54 -111 -79
-264 -52 -314 9 -17 4 -28 -35 -69 -51 -55 -61 -81 -53 -148 4 -41 2 -50 -27
-84 -73 -85 -74 -215 -3 -371 l25 -54 -37 -74 c-60 -121 -48 -228 37 -314 26
-27 29 -38 35 -120 10 -147 55 -239 125 -253 30 -6 35 -13 52 -62 25 -74 75
-120 130 -120 23 0 55 7 71 16 17 8 32 14 34 12 1 -2 -80 -372 -181 -823 -101
-451 -184 -826 -184 -832 0 -7 6 -13 13 -13 7 0 119 311 282 785 217 632 273
784 285 779 40 -15 128 -34 160 -34 20 0 62 7 94 15 33 9 61 13 64 10 3 -2
101 -332 218 -732 118 -401 223 -758 234 -795 20 -66 40 -89 40 -47 0 12 -65
391 -145 842 -80 452 -145 827 -145 832 0 6 20 18 45 29 86 35 145 136 145
247 0 44 3 49 38 71 107 66 134 115 148 269 6 70 12 89 38 127 28 40 31 51 31
120 0 66 -5 90 -36 162 -34 82 -35 86 -21 130 8 26 14 91 14 155 1 130 -21
212 -77 290 -22 32 -31 53 -25 59 27 27 -2 205 -59 370 -12 33 -21 63 -21 68
0 4 22 8 50 8 59 0 70 14 70 89 0 58 -45 239 -89 360 -17 47 -31 86 -31 88 0
2 27 3 59 3 78 0 91 13 91 92 0 73 -58 359 -106 520 -4 12 4 18 36 23 59 10
78 31 91 100 15 79 5 277 -21 429 -12 65 -18 121 -15 125 4 3 36 11 73 16 90
13 94 23 89 180 -6 166 -54 373 -121 527 -6 14 2 17 58 23 55 6 70 12 87 34
44 55 10 291 -83 567 l-34 102 35 6 c20 3 59 6 86 6 69 0 91 18 105 84 19 95
-8 279 -110 741 -27 121 -61 283 -75 360 -25 131 -30 147 -87 247 -78 138
-168 257 -259 342 l-72 69 59 54 c182 165 387 263 709 338 133 31 165 43 165
61 0 65 -265 131 -490 121 -191 -9 -293 -52 -431 -184 -43 -41 -108 -118 -143
-170 l-64 -94 -23 33 c-127 183 -207 193 -363 47 -46 -43 -69 -58 -80 -52 -8
4 -64 51 -126 103 -216 183 -351 270 -497 321 -66 22 -162 24 -275 3z m1670
-6244 c0 -22 -1 -22 -8 5 -4 17 -8 39 -8 50 0 16 2 15 8 -5 4 -14 8 -36 8 -50z
m92 60 c18 -12 2 -12 -25 0 -13 6 -15 9 -5 9 8 0 22 -4 30 -9z m-1273 -16 c-3
-3 -12 -4 -19 -1 -8 3 -5 6 6 6 11 1 17 -2 13 -5z m65 -31 c-5 -23 -7 -25 -10
-8 -2 11 -9 23 -16 27 -6 5 -3 8 10 8 18 0 20 -4 16 -27z m1125 -75 c-3 -7 -5
-2 -5 12 0 14 2 19 5 13 2 -7 2 -19 0 -25z m-1150 -20 c-3 -8 -6 -5 -6 6 -1
11 2 17 5 13 3 -3 4 -12 1 -19z m1160 -30 c-3 -8 -6 -5 -6 6 -1 11 2 17 5 13
3 -3 4 -12 1 -19z m10 -50 c-3 -8 -6 -5 -6 6 -1 11 2 17 5 13 3 -3 4 -12 1
-19z m-1047 -395 c0 -12 -3 -14 -8 -7 -4 7 -18 14 -32 17 -21 4 -20 4 8 6 24
1 32 -3 32 -16z m947 -15 c-3 -8 -6 -5 -6 6 -1 11 2 17 5 13 3 -3 4 -12 1 -19z
m-963 -57 c-4 -23 -9 -40 -11 -37 -3 3 -2 23 2 46 4 23 9 39 11 37 3 -2 2 -23
-2 -46z m973 17 c-3 -8 -6 -5 -6 6 -1 11 2 17 5 13 3 -3 4 -12 1 -19z m10 -40
c-3 -8 -6 -5 -6 6 -1 11 2 17 5 13 3 -3 4 -12 1 -19z m-100 -730 c-2 -24 -4
-5 -4 42 0 47 2 66 4 43 2 -24 2 -62 0 -85z"/>
</g>
</svg>
