<?xml version="1.0" standalone="no"?>
<!DOCTYPE svg PUBLIC "-//W3C//DTD SVG 20010904//EN"
 "http://www.w3.org/TR/2001/REC-SVG-20010904/DTD/svg10.dtd">
<svg version="1.0" xmlns="http://www.w3.org/2000/svg"
 width="1536.000000pt" height="1489.000000pt" viewBox="0 0 1536.000000 1489.000000"
 preserveAspectRatio="xMidYMid meet">
<metadata>
Created by potrace 1.16, written by Peter Selinger 2001-2019
</metadata>
<g transform="translate(0.000000,1489.000000) scale(0.100000,-0.100000)"
fill="#000000" stroke="none">
<path d="M7920 14865 c0 -14 -7 -28 -15 -31 -10 -4 -15 -20 -15 -45 0 -26 -5
-42 -15 -45 -12 -5 -15 -24 -15 -84 0 -57 -4 -81 -15 -90 -10 -8 -15 -31 -15
-65 0 -38 4 -55 15 -59 17 -6 20 -42 4 -51 -6 -4 -16 1 -24 11 -16 22 -22 12
-27 -41 -3 -30 -4 -30 -73 -35 l-70 -5 -3 -37 c-2 -20 -10 -42 -18 -49 -13
-10 -12 -14 2 -30 15 -17 15 -19 0 -25 -29 -11 -46 4 -46 39 0 19 -7 40 -15
47 -8 7 -15 28 -15 47 0 21 6 36 15 39 10 4 15 20 15 45 0 26 5 42 15 45 8 4
15 17 15 30 0 12 7 27 16 32 18 10 11 32 -10 32 -21 0 -66 -47 -66 -68 0 -11
-7 -22 -15 -26 -12 -4 -15 -24 -15 -90 0 -71 -3 -85 -17 -91 -17 -6 -17 -7 0
-20 11 -8 17 -23 15 -37 -2 -18 -10 -24 -38 -26 -19 -2 -41 -11 -48 -20 -11
-15 -15 -14 -37 12 -28 32 -33 66 -10 66 11 0 15 11 15 39 0 42 -14 62 -24 35
-3 -9 -6 -29 -6 -45 0 -16 -4 -29 -10 -29 -5 0 -10 -13 -10 -29 0 -62 2 -61
-165 -61 -85 0 -156 4 -159 9 -3 5 1 14 9 21 9 8 15 30 15 60 0 30 6 52 15 60
9 8 15 30 15 60 0 30 6 52 15 60 10 8 15 30 15 62 0 34 4 50 15 54 8 4 15 16
15 28 0 12 14 34 31 49 37 32 35 61 -4 65 -23 3 -27 0 -27 -22 0 -14 -6 -29
-12 -33 -17 -11 -48 -70 -48 -93 0 -10 -7 -20 -15 -24 -8 -3 -15 -16 -15 -28
0 -13 -4 -30 -9 -37 -8 -12 -11 -9 -17 14 -4 16 -2 36 5 47 16 26 -6 58 -41
58 l-28 0 -2 -202 -3 -203 -35 -3 c-19 -2 -42 -10 -51 -18 -22 -20 -29 -8 -29
48 0 34 5 50 15 54 10 4 15 21 15 54 0 30 6 52 15 60 15 13 20 51 9 63 -11 11
-54 -37 -54 -59 0 -12 -7 -24 -15 -28 -11 -4 -15 -21 -15 -61 0 -34 -6 -65
-16 -80 -14 -21 -14 -24 2 -33 9 -5 14 -14 10 -21 -12 -19 -40 -11 -66 19 -28
34 -40 38 -40 11 0 -10 -11 -30 -25 -45 -21 -23 -32 -26 -88 -26 -49 0 -66 -4
-71 -15 -5 -13 -26 -15 -133 -13 l-128 3 -3 79 c-2 61 1 84 14 104 12 18 17
44 16 79 -1 35 3 55 13 60 21 12 28 55 12 77 -14 19 -14 19 -35 -2 -15 -15
-22 -34 -22 -62 0 -22 -4 -40 -9 -40 -5 0 -18 -17 -29 -39 -19 -36 -19 -40 -4
-55 16 -16 16 -18 0 -27 -14 -8 -18 -23 -18 -73 0 -43 -5 -67 -14 -76 -8 -6
-16 -21 -18 -33 -2 -14 -11 -23 -25 -25 -12 -2 -27 -10 -33 -18 -8 -8 -31 -14
-59 -14 -26 0 -52 -5 -59 -12 -9 -9 -15 -9 -24 0 -7 7 -27 12 -46 12 -25 0
-40 -8 -59 -30 -18 -22 -33 -30 -58 -30 -38 0 -56 18 -31 32 24 14 19 26 -11
30 -26 3 -28 7 -31 54 -2 36 1 54 13 64 8 7 15 29 15 49 0 20 7 45 15 55 8 11
15 29 15 41 0 12 12 32 26 46 24 22 26 23 35 6 6 -9 15 -14 21 -11 7 5 5 12
-7 21 -18 12 -17 15 13 46 31 32 40 56 25 71 -4 3 -44 -31 -90 -76 -69 -69
-83 -88 -83 -114 0 -17 -7 -37 -15 -44 -10 -9 -15 -32 -15 -75 0 -43 -5 -66
-15 -75 -10 -9 -15 -32 -15 -76 0 -49 -3 -64 -14 -64 -8 0 -16 6 -19 13 -3 9
-9 8 -23 -3 -10 -9 -32 -22 -49 -30 -16 -8 -34 -21 -38 -28 -6 -8 -18 -11 -32
-8 -17 4 -24 1 -28 -14 -3 -11 -14 -20 -25 -20 -11 0 -25 -7 -32 -15 -17 -20
-86 -20 -94 1 -9 24 -49 13 -56 -16 -7 -30 -48 -40 -62 -16 -14 25 -41 19 -71
-15 -26 -30 -28 -31 -47 -14 -25 22 -54 16 -58 -13 -5 -33 -39 -64 -65 -60
-20 3 -22 9 -25 79 -2 59 1 79 13 89 15 13 22 80 7 80 -25 0 -52 -34 -52 -64
0 -19 -7 -39 -15 -46 -10 -9 -15 -32 -15 -76 0 -61 -1 -64 -24 -64 -17 0 -27
-7 -32 -22 -9 -29 -22 -38 -56 -38 -27 0 -28 2 -28 55 0 36 -5 57 -14 62 -8 4
-16 18 -18 31 -5 36 -23 31 -26 -8 -2 -19 -7 -39 -12 -44 -14 -15 -49 35 -50
70 0 17 -7 37 -15 44 -8 7 -15 28 -15 46 0 24 -5 34 -15 34 -12 0 -15 -16 -15
-84 0 -65 3 -85 15 -90 20 -7 19 -40 0 -56 -14 -12 -12 -17 15 -45 16 -17 30
-38 30 -46 0 -21 -42 -59 -65 -59 -10 0 -49 33 -88 75 -38 41 -73 73 -78 69
-14 -8 -11 -40 6 -54 8 -7 15 -20 15 -29 0 -10 14 -30 30 -46 19 -18 30 -38
28 -50 -3 -17 -10 -20 -58 -20 -46 0 -55 3 -60 20 -9 35 -34 63 -60 67 -24 3
-25 5 -28 101 -2 80 0 98 13 103 9 4 15 19 15 39 0 18 7 38 15 45 8 7 15 20
15 30 0 10 7 23 15 30 19 16 21 94 3 88 -7 -3 -14 -14 -16 -25 -2 -11 -16 -33
-33 -48 -17 -17 -29 -39 -29 -54 0 -14 -7 -35 -15 -45 -8 -11 -15 -33 -15 -49
0 -15 -7 -35 -15 -43 -23 -23 -22 -290 1 -315 18 -20 11 -39 -15 -39 -9 0 -22
-5 -29 -12 -9 -9 -15 -9 -24 0 -17 17 -28 15 -28 -7 0 -21 -48 -61 -73 -61 -9
0 -17 10 -19 22 -5 36 -28 34 -28 -4 -1 -49 -30 -78 -79 -78 -23 0 -41 5 -41
10 0 6 -20 10 -44 10 -24 0 -51 3 -60 6 -20 8 -21 38 -1 54 9 8 15 30 15 59 0
39 5 52 30 76 16 16 30 35 30 43 0 20 191 212 211 212 8 0 28 14 44 30 16 17
37 30 47 30 12 0 18 8 18 24 0 33 -11 38 -44 20 -16 -7 -34 -14 -40 -14 -6 0
-38 -27 -71 -60 -33 -33 -67 -60 -75 -60 -18 0 -150 -131 -150 -149 0 -6 -13
-30 -30 -53 -26 -35 -30 -50 -30 -105 0 -50 -5 -71 -20 -90 -14 -17 -18 -33
-13 -51 4 -18 2 -23 -8 -20 -11 4 -15 45 -17 209 -2 112 -5 210 -8 217 -3 10
-11 8 -29 -10 -23 -21 -25 -30 -25 -114 0 -69 -4 -95 -15 -104 -21 -17 -21
-123 0 -140 8 -7 15 -27 15 -46 0 -18 7 -39 15 -48 8 -8 15 -23 15 -33 0 -10
7 -29 16 -41 17 -25 13 -52 -9 -52 -10 0 -13 -8 -9 -25 4 -22 1 -25 -22 -25
-15 0 -29 -7 -32 -15 -4 -8 -17 -15 -29 -15 -18 0 -24 -6 -27 -27 -2 -20 -9
-29 -24 -31 -12 -2 -42 -23 -67 -48 -25 -24 -52 -44 -60 -44 -23 0 -32 21 -13
32 9 5 16 20 16 32 0 13 7 27 16 30 9 3 14 15 12 28 -4 32 -52 33 -56 1 -2
-12 -10 -27 -18 -33 -8 -8 -14 -31 -14 -59 0 -50 -14 -69 -76 -102 -29 -16
-31 -16 -52 6 -12 13 -22 32 -22 43 0 11 -7 23 -16 26 -10 4 -14 14 -11 25 2
11 -4 32 -14 48 -15 23 -19 47 -19 134 0 97 -2 107 -23 127 -13 12 -27 19 -30
15 -4 -3 -7 -75 -7 -159 0 -125 3 -155 15 -161 10 -6 15 -28 16 -77 1 -47 6
-69 15 -73 32 -12 12 -50 -64 -126 -42 -42 -84 -77 -92 -77 -9 0 -62 -47 -120
-105 -58 -58 -112 -105 -121 -105 -9 0 -57 -41 -105 -90 -75 -76 -91 -88 -100
-75 -6 8 -21 15 -32 15 -12 0 -25 7 -30 16 -5 9 -14 14 -21 10 -16 -10 -14
-46 4 -52 8 -4 15 -16 15 -29 0 -12 -7 -28 -15 -35 -8 -7 -15 -20 -15 -29 0
-21 -40 -61 -61 -61 -8 0 -31 -16 -50 -36 -18 -20 -46 -42 -62 -50 -20 -11
-27 -22 -27 -43 0 -15 -9 -36 -20 -46 -11 -10 -20 -23 -20 -28 0 -6 -9 -20
-20 -32 -10 -11 -30 -41 -43 -65 -15 -28 -31 -46 -45 -48 -11 -2 -26 -10 -32
-18 -7 -8 -20 -14 -30 -14 -10 0 -23 -7 -30 -15 -7 -8 -20 -15 -30 -15 -10 0
-23 7 -30 15 -14 17 -105 21 -114 6 -7 -11 67 -51 94 -51 34 0 26 -46 -9 -58
-24 -8 -28 -15 -24 -32 4 -13 -2 -32 -16 -50 -11 -16 -21 -36 -21 -44 0 -7
-37 -49 -83 -91 -45 -43 -90 -91 -99 -106 -14 -22 -25 -28 -59 -31 -46 -3 -68
-28 -25 -28 29 0 44 -18 22 -26 -11 -4 -16 -19 -16 -45 0 -26 -5 -42 -15 -45
-8 -4 -15 -16 -15 -28 0 -12 -13 -33 -30 -46 -16 -14 -29 -35 -30 -47 0 -12
-6 -26 -13 -30 -24 -15 -60 -71 -54 -86 3 -9 -7 -27 -23 -44 -16 -15 -30 -36
-30 -46 0 -18 -45 -67 -62 -67 -5 0 -6 -9 -3 -20 5 -15 -2 -28 -24 -47 -18
-16 -31 -37 -31 -51 0 -41 -25 -18 -28 26 -2 23 -7 42 -12 42 -4 0 -13 14 -19
31 -16 47 -31 25 -31 -45 0 -44 5 -67 15 -76 20 -17 20 -103 0 -120 -8 -7 -15
-20 -15 -30 0 -10 -6 -23 -14 -30 -8 -6 -16 -21 -18 -32 -4 -25 -28 -37 -28
-14 0 9 -4 16 -10 16 -13 0 -13 -17 0 -25 15 -9 12 -51 -5 -65 -8 -7 -15 -21
-15 -32 0 -10 -7 -21 -15 -24 -8 -4 -15 -17 -15 -29 0 -13 -4 -27 -10 -30 -5
-3 -10 -14 -10 -23 0 -15 -159 -182 -173 -182 -3 0 -8 11 -11 25 -6 24 -7 25
-31 9 -34 -22 -34 -64 -2 -64 36 0 38 -10 12 -44 -18 -24 -22 -35 -13 -44 8
-8 -3 -25 -42 -67 -50 -51 -57 -55 -100 -55 -26 0 -50 -3 -53 -6 -10 -10 36
-54 56 -54 25 0 88 -70 85 -95 -3 -16 -12 -21 -51 -23 -44 -3 -47 -5 -41 -25
4 -12 13 -26 20 -30 21 -12 19 -113 -2 -121 -16 -6 -16 -8 0 -24 9 -10 16 -25
16 -34 0 -21 -46 -62 -55 -49 -10 16 -25 13 -32 -6 -3 -10 -18 -31 -33 -48
-16 -16 -30 -39 -32 -50 -2 -11 -10 -20 -18 -20 -38 -1 -57 -49 -25 -61 12 -5
15 -28 15 -116 0 -87 4 -116 18 -140 16 -28 16 -30 0 -39 -15 -8 -18 -24 -18
-78 0 -52 -4 -70 -15 -75 -11 -4 -15 -21 -15 -60 0 -39 -4 -55 -15 -60 -12 -4
-15 -28 -15 -129 0 -80 -4 -127 -12 -135 -8 -8 -8 -15 2 -27 11 -14 10 -19 -8
-37 -12 -12 -24 -20 -26 -17 -3 3 -8 43 -11 89 -4 47 -11 94 -16 105 -5 11
-10 56 -11 100 -3 79 -3 80 -30 83 -26 3 -28 1 -28 -36 0 -23 6 -45 15 -52 12
-10 15 -37 15 -120 0 -87 3 -110 16 -121 13 -11 15 -26 11 -70 -4 -43 -1 -61
10 -72 14 -14 14 -17 -1 -32 -9 -9 -16 -25 -16 -35 0 -14 -9 -20 -37 -22 -38
-3 -38 -3 -41 -53 -2 -32 -9 -55 -19 -62 -9 -7 -17 -28 -17 -50 -1 -20 -7 -38
-14 -41 -7 -2 -12 -15 -12 -28 0 -14 -7 -27 -15 -30 -8 -4 -15 -17 -15 -30 0
-14 -7 -27 -15 -30 -8 -4 -15 -16 -15 -29 0 -13 -7 -25 -15 -29 -20 -7 -19
-25 1 -33 16 -6 64 32 64 52 0 7 9 24 20 38 11 14 20 34 20 44 0 11 7 28 15
39 8 10 15 29 15 42 0 12 4 22 9 22 12 0 51 80 51 104 0 37 25 8 28 -32 2 -23
7 -42 13 -42 12 0 12 -47 -1 -55 -6 -4 -10 -78 -10 -189 0 -145 -3 -186 -15
-202 -19 -25 -19 -64 0 -100 13 -25 13 -31 1 -39 -8 -6 -16 -22 -18 -35 -2
-18 -10 -26 -28 -28 -14 -2 -29 -10 -33 -18 -4 -8 -19 -14 -32 -14 -32 0 -31
-10 0 -40 21 -20 25 -21 31 -6 9 23 47 20 70 -7 17 -19 20 -39 23 -142 1 -65
6 -125 12 -131 6 -7 10 -88 11 -188 0 -136 3 -178 14 -187 8 -7 14 -31 14 -59
0 -30 6 -52 15 -60 8 -7 15 -26 15 -43 0 -17 7 -39 17 -49 15 -17 15 -19 0
-36 -10 -11 -17 -36 -17 -61 0 -24 -6 -49 -15 -57 -28 -28 -18 -65 30 -111 37
-35 45 -49 45 -78 0 -22 6 -38 15 -41 11 -5 15 -23 15 -74 0 -51 4 -69 15 -74
9 -3 15 -18 15 -39 0 -19 7 -40 15 -47 8 -7 15 -27 15 -45 0 -18 7 -38 15 -45
8 -7 15 -27 15 -45 0 -18 7 -38 15 -45 9 -8 15 -30 15 -60 0 -30 6 -52 15 -60
8 -7 15 -27 15 -45 0 -18 7 -38 15 -45 10 -8 15 -31 15 -71 0 -32 5 -61 10
-64 23 -14 50 -86 50 -134 0 -34 4 -51 15 -55 10 -3 15 -19 15 -45 0 -25 5
-41 15 -45 8 -3 15 -16 15 -30 0 -13 7 -26 15 -30 8 -3 15 -16 15 -30 0 -13 7
-26 15 -30 12 -4 15 -27 15 -114 0 -85 3 -112 15 -122 8 -7 15 -20 15 -29 0
-9 32 -48 70 -86 39 -38 70 -77 70 -86 0 -9 7 -22 15 -29 8 -7 15 -20 15 -30
0 -10 7 -23 16 -31 8 -7 13 -21 11 -31 -3 -11 2 -22 15 -29 18 -10 18 -12 4
-28 -17 -19 -12 -31 14 -31 21 0 60 -41 60 -63 0 -10 7 -20 15 -23 8 -4 15
-17 15 -30 0 -14 7 -27 15 -30 8 -4 15 -16 15 -28 0 -11 14 -34 30 -50 17 -16
30 -38 30 -48 0 -10 7 -21 15 -24 8 -4 15 -16 15 -28 0 -11 14 -34 30 -50 17
-16 30 -37 30 -47 0 -9 7 -19 15 -23 8 -3 15 -16 15 -28 1 -13 14 -34 30 -48
17 -13 30 -32 30 -42 0 -10 20 -38 45 -61 25 -24 45 -53 45 -64 0 -12 6 -23
14 -26 8 -3 22 -24 32 -46 10 -23 23 -41 28 -41 13 0 96 -94 96 -109 0 -5 -6
-11 -12 -14 -8 -2 -9 -8 -4 -13 5 -5 11 -4 13 4 7 19 33 14 33 -7 0 -11 5 -23
11 -27 6 -3 16 -19 23 -35 7 -16 49 -67 94 -113 45 -47 82 -90 82 -98 0 -19
102 -118 121 -118 19 0 59 -41 59 -61 0 -20 132 -149 153 -149 22 0 22 -19 0
-35 -11 -8 -13 -14 -4 -19 6 -4 14 0 17 8 3 9 12 16 19 16 16 0 45 -33 45 -51
0 -18 191 -209 209 -209 7 0 60 -47 118 -105 57 -58 110 -105 118 -105 8 0 56
-40 106 -90 51 -49 97 -90 103 -90 6 0 38 -25 71 -55 33 -30 68 -55 78 -55 10
0 20 -7 23 -15 4 -8 17 -15 30 -15 14 0 27 -7 30 -15 4 -8 17 -15 30 -15 12 0
27 -6 31 -14 4 -8 27 -24 51 -36 23 -12 42 -26 42 -30 0 -5 8 -11 19 -15 13
-4 17 -12 13 -30 -5 -28 12 -34 26 -8 9 15 13 13 37 -15 16 -19 36 -32 50 -32
12 0 25 -7 29 -15 3 -8 16 -15 30 -15 13 0 26 -7 30 -15 3 -8 14 -15 24 -15
11 0 25 -6 32 -14 6 -8 21 -16 33 -18 13 -2 23 -13 27 -28 5 -20 13 -26 40
-28 18 -2 48 -14 65 -28 18 -13 36 -24 42 -24 5 0 18 -9 28 -20 10 -11 26 -20
35 -20 10 0 23 -7 30 -15 7 -8 20 -15 30 -15 10 0 23 -7 30 -15 7 -8 20 -15
30 -15 10 0 23 -7 30 -15 7 -8 20 -15 30 -15 10 0 23 -7 30 -15 7 -8 27 -15
44 -15 18 0 36 -4 42 -9 5 -5 18 -11 29 -13 11 -2 22 -14 25 -28 7 -31 35 -37
61 -15 17 16 19 16 25 1 3 -9 17 -16 30 -16 14 0 27 -7 30 -15 4 -8 17 -15 30
-15 14 0 27 -7 30 -15 4 -8 17 -15 30 -15 14 0 27 -7 30 -15 4 -8 17 -15 30
-15 14 0 27 -7 30 -15 4 -8 17 -15 30 -15 14 0 27 -7 30 -15 4 -10 20 -15 44
-15 24 0 40 -5 44 -15 4 -11 20 -15 54 -15 32 0 54 -5 62 -15 7 -9 29 -15 50
-15 51 0 70 -8 70 -30 0 -26 15 -33 30 -15 16 19 44 19 60 0 7 -8 27 -15 45
-15 18 0 38 -7 45 -15 7 -8 20 -15 30 -15 10 0 23 -7 30 -15 7 -8 26 -15 42
-15 16 0 41 -9 55 -20 16 -12 34 -18 47 -14 14 3 28 -1 35 -10 11 -13 37 -16
136 -16 100 0 124 -3 129 -15 4 -12 28 -15 129 -15 99 0 127 -3 137 -15 10
-12 38 -15 130 -15 85 0 126 -4 146 -15 44 -22 1145 -23 1164 0 15 18 57 20
63 3 3 -10 9 -10 26 0 11 7 54 12 96 12 58 0 77 4 81 15 5 12 25 15 90 15 68
0 85 3 93 17 9 17 12 16 48 -4 21 -12 39 -31 41 -42 2 -11 10 -25 18 -31 8 -7
14 -17 14 -23 0 -5 11 -25 25 -43 14 -18 25 -46 25 -62 0 -16 7 -35 15 -42 8
-7 15 -20 15 -30 0 -10 7 -23 15 -30 8 -7 15 -20 15 -30 0 -10 7 -23 15 -30 8
-7 15 -27 15 -44 1 -31 29 -76 49 -76 17 0 13 76 -4 90 -8 7 -15 27 -15 45 0
18 -7 38 -15 45 -8 7 -15 20 -15 30 0 10 -7 23 -15 30 -8 7 -15 20 -15 30 0
10 -7 23 -15 30 -8 7 -15 20 -15 30 0 10 -7 23 -15 30 -8 7 -15 20 -15 30 0
10 -7 23 -15 30 -8 7 -15 18 -15 26 0 19 20 28 33 15 17 -17 27 -13 27 8 0 28
19 36 34 16 11 -15 13 -15 25 -1 17 20 57 21 65 1 3 -9 18 -15 39 -15 19 0 40
7 47 15 7 8 27 15 44 15 21 0 40 10 60 30 24 25 37 30 77 30 33 0 51 5 57 16
6 11 20 14 48 12 l39 -3 0 -244 c0 -187 -3 -245 -12 -249 -23 -7 -14 -32 12
-32 18 0 25 5 25 19 0 11 7 26 15 35 12 12 15 46 15 180 l0 165 30 21 c27 19
30 27 30 72 0 45 4 54 39 89 21 22 45 39 54 39 8 0 20 6 26 14 7 9 36 14 82
15 69 1 73 3 124 46 57 49 106 60 124 28 9 -17 10 -17 28 0 14 12 37 17 82 17
45 0 63 4 67 15 8 19 24 9 24 -15 0 -10 6 -25 13 -32 8 -7 17 -25 20 -39 4
-15 16 -37 27 -50 17 -21 21 -22 30 -9 12 18 2 79 -16 101 -9 10 -13 37 -12
77 1 58 3 63 27 69 14 3 36 17 49 30 26 28 65 28 70 0 2 -10 -4 -24 -14 -32
-17 -12 -16 -15 14 -41 18 -16 32 -38 32 -50 0 -12 7 -24 15 -28 8 -3 15 -14
15 -24 0 -10 14 -31 30 -47 17 -16 30 -37 30 -47 0 -24 39 -45 51 -27 6 9 3
18 -6 25 -8 6 -15 21 -15 33 0 12 -7 24 -15 27 -8 4 -15 16 -15 29 0 12 -7 28
-15 35 -8 7 -15 28 -15 47 0 21 -6 36 -15 39 -8 4 -15 15 -15 26 0 10 -14 32
-31 47 l-31 29 21 21 c18 18 33 21 115 21 71 0 97 -4 106 -15 7 -8 20 -15 30
-15 17 0 30 -35 30 -85 0 -12 7 -28 15 -35 10 -8 15 -31 15 -71 0 -55 19 -99
42 -99 5 0 8 38 8 84 0 62 -4 87 -15 96 -10 9 -15 32 -15 75 0 45 -5 66 -16
76 -10 8 -13 21 -9 37 4 16 0 31 -10 42 -22 24 -16 54 11 58 23 3 61 -42 44
-53 -17 -11 -11 -24 15 -31 14 -4 25 -13 25 -23 0 -10 14 -30 30 -46 16 -16
30 -36 30 -45 0 -22 219 -239 265 -263 19 -11 35 -23 35 -28 0 -5 11 -9 25 -9
14 0 28 -7 31 -15 4 -8 16 -15 28 -15 13 0 31 -12 44 -30 15 -19 31 -30 48
-30 13 0 27 -7 30 -15 4 -8 16 -15 29 -15 13 0 25 -7 29 -15 4 -11 20 -15 54
-15 32 0 54 -5 62 -15 7 -8 29 -15 50 -15 24 0 40 -5 44 -15 4 -11 20 -15 54
-15 32 0 54 -5 62 -15 7 -8 27 -15 45 -15 18 0 38 -7 45 -15 8 -9 30 -15 60
-15 30 0 52 -6 60 -15 11 -13 65 -15 380 -15 315 0 369 2 380 15 10 12 37 15
122 15 87 0 110 3 114 15 5 11 23 15 75 15 53 0 71 4 75 15 4 8 17 15 30 15
14 0 27 7 30 15 4 9 19 15 39 15 18 0 38 7 45 15 7 8 20 15 30 15 10 0 23 7
30 15 8 9 30 15 60 15 30 0 52 6 60 15 8 9 30 15 60 15 30 0 52 6 60 15 8 9
30 15 60 15 30 0 52 6 60 15 7 8 27 15 45 15 18 0 38 7 45 15 7 8 21 15 31 15
10 0 22 7 27 16 14 25 32 7 32 -32 0 -22 -6 -37 -15 -40 -8 -4 -15 -17 -15
-30 0 -14 -7 -27 -15 -30 -16 -7 -21 -49 -6 -58 13 -9 41 4 41 19 0 6 9 22 20
35 11 13 20 31 20 42 0 10 5 18 10 18 6 0 10 22 10 49 0 37 5 54 25 75 13 14
33 26 43 26 11 0 22 7 26 15 3 8 16 15 30 15 13 0 26 7 30 15 3 8 14 15 25 15
11 0 32 11 47 25 15 14 33 25 40 25 7 0 28 16 47 35 19 19 41 35 50 35 8 0 54
38 102 85 47 47 92 85 99 85 7 0 25 13 42 29 16 15 39 31 52 35 12 4 22 14 22
23 0 8 31 46 70 85 l70 70 28 -31 c16 -17 31 -28 35 -24 4 4 -7 20 -25 36 -29
27 -30 31 -15 42 9 7 17 20 17 29 0 9 27 43 60 76 33 33 60 68 60 77 0 9 34
49 75 88 41 40 75 79 75 87 0 9 38 55 85 103 47 48 85 95 85 104 0 10 16 31
35 47 21 17 33 35 30 43 -3 8 7 26 25 42 16 15 30 36 30 47 0 10 14 29 30 42
17 13 30 31 30 40 0 10 27 46 60 80 33 34 60 70 60 79 1 9 14 27 30 41 17 13
30 33 30 45 1 11 14 31 30 45 17 13 30 31 30 40 0 8 25 40 55 70 55 56 65 75
43 83 -10 3 -8 9 5 24 9 11 17 27 17 35 0 9 7 21 15 28 8 7 15 20 15 30 0 10
7 23 15 30 8 7 15 19 15 26 0 14 3 22 33 82 9 19 17 44 17 57 0 12 7 28 15 35
8 7 15 20 15 29 0 10 7 26 15 37 8 10 15 31 15 46 0 15 7 31 15 36 23 12 23
507 0 532 -8 9 -15 33 -15 52 0 23 -6 38 -15 42 -8 3 -15 14 -15 25 0 10 -7
32 -15 47 -8 16 -15 39 -15 50 0 12 -7 24 -14 27 -10 4 -16 24 -18 59 -2 44
-6 53 -23 56 -28 5 -85 62 -85 85 0 10 -13 30 -30 44 -39 32 -38 43 4 43 18 0
39 7 46 15 7 8 19 15 27 15 8 0 32 14 53 30 21 17 41 30 44 30 4 0 21 10 39
22 18 13 34 24 36 25 2 1 -1 9 -7 16 -15 17 -6 27 25 27 20 0 23 -5 23 -39 0
-45 11 -57 40 -41 18 10 20 21 20 114 0 80 -3 106 -15 116 -20 16 -19 47 1 58
25 14 7 32 -30 32 -19 0 -39 7 -46 15 -7 8 -20 15 -30 15 -10 0 -23 7 -30 15
-8 10 -31 15 -70 15 -75 0 -95 19 -77 72 16 45 35 68 56 68 10 0 30 13 46 29
15 17 37 31 49 33 12 2 22 12 24 23 2 11 27 43 54 72 49 50 59 83 25 83 -13 0
-77 -71 -77 -85 0 -17 -43 -65 -58 -65 -9 0 -31 -14 -48 -31 -20 -20 -39 -29
-48 -26 -20 8 -21 51 -1 67 12 10 15 37 15 122 0 81 4 115 15 132 9 13 16 44
17 69 0 41 6 50 54 98 41 41 54 60 54 83 0 16 7 37 16 47 18 20 13 46 -12 56
-19 7 -34 -13 -34 -48 0 -15 -6 -32 -14 -39 -8 -6 -16 -21 -18 -33 -4 -26 -48
-38 -48 -13 0 8 5 18 10 21 6 3 10 20 10 37 0 17 7 40 17 50 15 17 15 19 0 36
-15 16 -17 52 -17 300 0 176 -4 283 -10 287 -6 4 -10 91 -10 229 0 187 -2 226
-15 236 -12 10 -15 38 -15 129 0 88 -4 122 -15 137 -11 14 -14 51 -15 154 0
100 -4 142 -15 164 -10 20 -15 59 -15 131 0 79 -3 105 -15 115 -12 10 -15 38
-15 132 0 87 -4 127 -15 148 -8 16 -14 50 -13 76 1 34 -3 50 -15 59 -13 9 -17
28 -17 78 0 48 -4 66 -15 71 -11 4 -15 21 -15 61 0 52 1 55 26 55 14 0 32 -7
40 -15 9 -8 27 -15 40 -15 14 0 37 -11 52 -25 15 -14 34 -25 42 -25 9 0 36
-20 60 -45 37 -38 50 -45 82 -45 26 0 38 4 38 14 0 18 -110 100 -175 130 -17
8 -39 24 -49 35 -11 12 -31 21 -48 21 -44 0 -138 93 -138 136 0 17 -7 37 -15
44 -20 17 -19 74 2 91 31 26 73 92 73 116 0 14 12 34 28 48 29 25 29 31 -3 37
-15 2 -21 -3 -23 -21 -5 -35 -41 -60 -84 -61 l-38 0 0 55 c0 40 -4 57 -15 61
-20 8 -19 44 2 59 16 12 15 15 -15 41 -18 16 -32 38 -32 49 0 11 -7 29 -15 39
-20 26 -19 90 0 106 12 10 15 31 13 94 -2 46 -7 81 -13 80 -5 0 -12 -9 -14
-20 -1 -10 -9 -26 -16 -34 -7 -8 -15 -24 -17 -35 -6 -36 -23 -21 -26 24 -2 25
-10 54 -18 65 -8 11 -14 35 -14 52 0 17 -7 37 -15 44 -8 7 -15 27 -15 45 0 18
-7 38 -15 45 -25 21 -18 63 15 95 17 16 30 38 30 49 0 12 7 30 15 40 8 11 15
29 15 41 0 12 7 30 15 41 8 10 15 38 15 60 0 24 6 47 15 54 8 7 15 20 15 30 0
10 7 23 15 30 17 14 21 75 5 85 -15 9 -50 -32 -50 -59 0 -13 -7 -26 -15 -30
-10 -3 -15 -19 -15 -45 0 -25 -5 -41 -15 -45 -9 -3 -15 -18 -15 -39 0 -19 -7
-40 -15 -47 -8 -7 -15 -27 -15 -45 0 -18 -7 -38 -15 -45 -8 -7 -15 -21 -15
-31 0 -11 -4 -19 -8 -19 -14 0 -52 45 -52 63 0 9 -4 19 -10 22 -5 3 -10 22
-10 41 0 22 -6 37 -15 40 -8 4 -15 17 -15 30 0 14 -7 27 -15 30 -28 11 -17 52
25 93 22 21 40 45 40 54 0 8 7 20 15 27 8 7 15 20 15 30 0 10 7 23 15 30 9 8
15 30 15 60 0 30 6 52 15 60 11 9 15 35 15 105 0 70 4 96 15 105 8 7 15 27 15
45 0 18 7 38 15 45 8 7 15 21 15 32 0 10 7 21 15 24 8 4 15 17 15 30 0 14 7
27 15 30 8 4 15 16 15 29 0 12 7 28 15 35 13 11 13 15 2 29 -8 9 -17 24 -20
34 -6 17 -8 17 -32 1 -18 -12 -25 -25 -25 -49 0 -18 -7 -38 -15 -45 -8 -7 -15
-23 -15 -35 0 -13 -6 -25 -13 -28 -8 -3 -22 -22 -32 -44 -10 -21 -24 -42 -31
-46 -8 -4 -14 -19 -14 -32 0 -14 -4 -25 -10 -25 -5 0 -10 -8 -10 -17 0 -10 -7
-31 -15 -47 -8 -15 -15 -36 -15 -46 0 -10 -7 -23 -15 -30 -8 -7 -15 -20 -15
-29 0 -22 -19 -41 -42 -41 -20 0 -25 -16 -6 -22 19 -7 1 -38 -22 -38 -22 0
-28 -16 -8 -22 8 -3 6 -16 -9 -46 -11 -23 -23 -39 -27 -35 -13 14 -6 130 9
143 8 7 15 19 15 26 0 16 59 105 78 117 6 4 12 19 12 32 0 14 5 25 10 25 6 0
10 9 10 20 0 11 -4 20 -9 20 -24 0 -41 -14 -41 -34 0 -12 -13 -33 -30 -46 -16
-14 -29 -35 -30 -48 0 -12 -7 -25 -15 -28 -8 -4 -15 -14 -15 -25 0 -26 -45
-71 -67 -67 -23 4 -30 48 -9 60 20 11 21 28 1 28 -8 0 -15 -7 -15 -16 0 -24
-25 -11 -28 16 -2 14 3 27 12 32 18 10 21 44 5 54 -7 4 -16 -1 -21 -10 -9 -16
-12 -16 -34 5 -13 12 -24 32 -24 45 0 12 -7 24 -15 28 -20 7 -19 52 1 60 8 3
12 11 8 17 -5 9 -11 7 -20 -5 -16 -22 -34 -12 -34 19 0 12 -7 25 -15 29 -8 3
-15 14 -15 24 0 11 -7 25 -15 32 -8 7 -15 23 -15 35 0 13 -7 26 -16 29 -25 10
-13 50 16 54 14 2 29 10 33 18 4 8 19 14 31 14 13 0 26 7 30 15 3 8 16 15 30
15 13 0 26 7 30 15 3 8 13 15 23 15 10 0 30 11 43 23 14 13 38 27 53 31 15 3
27 11 27 16 0 6 8 10 19 10 10 0 24 7 31 15 7 8 20 15 30 15 10 0 23 7 30 15
7 8 20 15 30 15 10 0 23 7 30 15 7 8 20 15 30 15 10 0 23 7 30 15 7 8 20 15
29 15 10 0 30 13 46 30 16 16 37 30 46 30 20 0 120 100 113 112 -11 17 -42 7
-69 -22 -16 -16 -36 -30 -45 -30 -9 0 -29 -13 -45 -30 -16 -16 -36 -30 -46
-30 -9 0 -22 -7 -29 -15 -7 -8 -21 -15 -32 -15 -10 0 -21 -7 -24 -15 -4 -8
-17 -15 -30 -15 -14 0 -27 -7 -30 -15 -4 -8 -16 -15 -29 -15 -13 0 -25 -7 -29
-15 -3 -8 -16 -15 -30 -15 -13 0 -26 -7 -30 -15 -3 -8 -16 -15 -30 -15 -13 0
-26 -7 -30 -15 -3 -8 -16 -15 -28 -15 -13 -1 -34 -14 -48 -30 -13 -17 -31 -30
-39 -30 -21 0 -91 -32 -91 -42 0 -4 -10 -8 -22 -8 -13 0 -36 -7 -52 -15 -36
-19 -33 -20 -52 16 -9 19 -13 41 -9 56 8 33 113 143 135 143 10 0 23 7 30 15
7 8 19 15 28 15 17 0 63 46 54 54 -10 11 -40 6 -52 -9 -7 -8 -20 -15 -30 -15
-10 0 -23 -7 -30 -15 -7 -8 -20 -15 -29 -15 -9 0 -43 -27 -76 -60 -33 -33 -65
-60 -72 -60 -19 0 -26 19 -13 35 10 12 10 18 0 30 -7 9 -11 17 -9 19 223 228
274 276 288 276 20 0 65 43 55 53 -9 9 -71 -27 -99 -57 -13 -14 -32 -26 -42
-26 -9 0 -71 -54 -136 -121 -119 -120 -149 -138 -155 -92 -2 12 -10 27 -18 33
-8 7 -14 20 -14 30 0 10 -7 23 -15 30 -8 7 -15 21 -15 31 0 10 -7 22 -16 27
-22 12 -9 32 21 32 30 0 35 9 24 38 -10 26 -35 29 -60 6 -16 -14 -19 -14 -38
5 -25 25 -26 30 -4 46 11 8 13 14 4 19 -6 4 -14 0 -17 -8 -3 -9 -10 -16 -15
-16 -15 0 -79 70 -79 86 0 9 20 37 45 62 41 41 45 50 45 93 0 32 5 49 15 53
12 4 15 27 15 114 0 87 3 112 15 122 25 20 15 55 -15 55 -25 0 -25 -1 -30
-107 -3 -66 -10 -112 -17 -120 -7 -6 -13 -29 -13 -50 0 -25 -5 -41 -15 -44
-10 -4 -15 -19 -15 -43 0 -34 -4 -39 -39 -54 l-39 -18 -66 66 -66 66 0 183 c0
145 3 186 15 202 8 10 15 35 15 55 0 23 6 39 15 43 8 3 15 16 15 30 0 13 7 26
15 30 8 3 15 16 15 30 0 13 7 26 15 30 15 5 22 56 7 56 -14 0 -82 -76 -82 -92
0 -8 -7 -21 -15 -28 -8 -7 -15 -27 -15 -45 0 -18 -7 -38 -15 -45 -10 -9 -15
-32 -15 -75 0 -47 -4 -64 -15 -69 -12 -4 -15 -25 -15 -99 0 -52 -3 -96 -6 -99
-9 -10 -134 122 -134 141 0 9 -13 28 -30 41 -32 27 -38 61 -15 80 12 10 15 45
15 195 0 153 2 184 15 189 11 4 15 21 15 60 0 39 4 55 15 60 16 6 20 53 6 75
-15 23 -51 -22 -51 -64 0 -22 -6 -38 -15 -41 -11 -5 -15 -23 -15 -72 0 -48 -5
-71 -17 -84 -15 -16 -17 -39 -14 -163 1 -79 -2 -146 -7 -149 -17 -10 -81 28
-82 49 0 13 -13 28 -35 40 -46 24 -235 208 -235 227 0 9 7 21 15 28 8 7 15 20
15 30 0 10 7 23 15 30 11 9 15 33 15 92 0 61 3 80 15 84 11 5 15 23 15 73 0
37 -3 71 -6 74 -4 4 -17 -4 -30 -16 -22 -21 -24 -29 -24 -142 l0 -121 -37 -37
-38 -36 -22 23 c-27 28 -31 83 -8 92 10 4 15 20 15 45 0 26 5 42 15 45 10 4
15 20 15 45 0 26 5 42 15 45 9 4 15 19 15 39 0 18 7 38 15 45 8 7 15 27 15 45
0 18 7 38 15 45 8 7 15 20 15 30 0 10 7 23 15 30 25 20 15 55 -15 55 -18 0
-26 -6 -28 -22 -2 -12 -10 -27 -18 -33 -8 -7 -14 -27 -14 -45 0 -18 -7 -38
-15 -45 -8 -7 -15 -20 -15 -30 0 -10 -7 -23 -15 -30 -8 -7 -15 -27 -15 -45 0
-18 -7 -38 -15 -45 -8 -7 -15 -26 -15 -42 0 -16 -7 -36 -15 -44 -9 -10 -15
-34 -15 -65 0 -42 -3 -49 -20 -49 -21 0 -60 33 -60 50 0 6 11 10 25 10 16 0
25 6 25 15 0 8 -4 15 -10 15 -6 0 -10 43 -10 109 0 112 -10 142 -35 108 -19
-27 -25 -20 -25 27 0 26 6 48 15 56 9 8 15 30 15 60 0 30 6 52 15 60 8 7 15
26 15 42 0 16 7 36 15 44 15 16 21 97 9 128 -9 25 -24 19 -24 -9 0 -14 -7 -28
-15 -31 -10 -4 -15 -20 -15 -45 0 -26 -5 -42 -15 -45 -10 -4 -15 -20 -15 -45
0 -26 -5 -42 -15 -45 -11 -4 -15 -21 -15 -59 0 -34 -5 -57 -15 -65 -11 -9 -15
-35 -15 -102 0 -97 -10 -128 -40 -128 -24 0 -28 41 -5 60 11 9 15 34 15 100 0
58 5 97 15 116 20 39 20 147 0 164 -12 10 -15 44 -15 190 0 146 -3 180 -15
190 -8 7 -15 23 -15 36 0 15 -6 24 -15 24 -12 0 -15 -18 -15 -99 0 -79 3 -100
15 -105 13 -5 15 -42 15 -251 0 -209 -2 -246 -15 -251 -10 -4 -15 -21 -15 -54
0 -27 -5 -52 -10 -55 -6 -4 -23 7 -37 24 -16 18 -37 31 -50 31 -14 0 -23 6
-23 15 0 8 7 15 15 15 8 0 15 5 15 10 0 6 -7 10 -15 10 -8 0 -15 -4 -15 -10 0
-24 -49 -7 -85 30 -21 22 -46 40 -55 40 -9 0 -29 14 -45 30 -16 17 -36 30 -45
30 -28 0 -40 22 -40 72 0 45 -2 48 -25 48 -14 0 -28 -7 -31 -15 -10 -26 -39
-16 -84 30 -24 24 -53 45 -64 47 -24 3 -35 46 -16 58 9 6 8 14 -5 34 -19 28
-35 26 -35 -4 0 -26 -15 -33 -30 -15 -7 8 -19 15 -26 15 -8 0 -25 10 -39 22
-29 25 -35 85 -10 94 11 5 15 21 15 60 0 39 4 56 15 60 12 5 15 27 15 114 0
83 3 110 15 120 8 7 15 20 15 29 0 21 40 61 61 61 19 0 62 44 52 53 -3 4 -20
7 -38 7 -24 0 -42 -12 -83 -53 -29 -29 -52 -60 -52 -69 0 -9 -4 -19 -10 -23
-5 -3 -10 -18 -10 -33 -7 -203 -12 -258 -26 -265 -8 -5 -14 -24 -14 -47 0 -40
0 -40 -38 -40 -29 0 -45 7 -67 30 -16 17 -37 30 -47 30 -20 0 -23 11 -8 26 5
5 10 56 11 114 2 66 7 113 16 127 7 12 13 33 13 45 0 16 21 44 60 83 57 57 75
95 50 110 -14 9 -50 -13 -50 -30 0 -8 -27 -43 -60 -78 -33 -36 -60 -71 -60
-79 0 -8 -18 -32 -40 -53 -22 -21 -40 -46 -40 -55 0 -9 -17 -33 -38 -53 -29
-29 -46 -37 -73 -37 -38 0 -99 25 -99 41 0 5 -9 9 -21 9 -11 0 -34 12 -50 28
-16 15 -39 29 -51 32 -29 7 -35 36 -13 60 17 19 16 21 -14 47 l-31 27 0 303
c0 295 -5 340 -30 281 -26 -63 -60 -76 -60 -23 0 39 -35 84 -52 67 -11 -11 -1
-52 13 -52 5 0 9 -22 9 -49 0 -31 6 -55 15 -64 12 -13 13 -19 1 -41 -8 -16
-13 -70 -15 -153 -1 -101 -5 -129 -16 -136 -9 -5 -15 -23 -15 -46 0 -25 -5
-41 -15 -45 -8 -3 -15 -17 -15 -31 0 -30 -4 -31 -30 -5 -21 21 -26 55 -10 65
6 3 10 17 10 31 0 14 7 27 15 30 8 4 15 17 15 30 0 12 7 27 16 32 21 12 10 32
-17 32 -14 0 -21 -9 -25 -30 -4 -16 -10 -30 -13 -30 -4 0 -15 -18 -24 -39 -21
-46 -63 -79 -80 -62 -6 6 -25 11 -43 11 -17 0 -37 7 -44 15 -7 8 -20 15 -30
15 -10 0 -23 6 -30 14 -6 8 -21 16 -33 18 -27 4 -34 39 -12 58 8 7 15 20 15
30 0 10 7 23 15 30 8 7 15 29 15 49 0 21 7 46 15 57 16 21 20 120 6 142 -10
17 -21 -6 -21 -47 0 -15 -7 -36 -15 -47 -8 -10 -15 -40 -15 -65 0 -29 -6 -51
-15 -59 -8 -7 -15 -20 -15 -30 0 -10 -7 -23 -15 -30 -8 -7 -15 -20 -15 -30 0
-28 -12 -31 -37 -8 -19 18 -23 32 -23 82 -1 45 -6 67 -20 84 -29 35 -40 19
-40 -59 l0 -69 -54 0 c-35 0 -58 5 -66 15 -7 8 -20 15 -30 15 -10 0 -23 7 -30
15 -7 8 -27 15 -45 15 -18 0 -38 7 -45 15 -7 8 -19 15 -27 15 -8 0 -36 22 -64
49 -40 40 -49 55 -49 84 0 22 -6 37 -15 41 -8 3 -15 14 -15 24 0 11 -7 25 -15
32 -8 7 -15 29 -15 49 0 20 -7 45 -15 55 -8 11 -15 30 -15 42 0 12 -7 27 -15
34 -8 7 -15 23 -15 35 0 12 -7 28 -15 35 -8 7 -15 29 -15 50 0 21 -7 43 -15
50 -11 9 -15 32 -15 82 0 52 -4 70 -15 74 -10 4 -15 20 -15 46 0 60 -24 43
-28 -19 -2 -40 -9 -56 -32 -78 -24 -23 -30 -37 -30 -71 0 -25 -6 -47 -15 -54
-10 -8 -15 -31 -15 -67 0 -73 -24 -68 -28 5 -2 29 -7 52 -12 52 -22 0 -25
-250 -2 -258 17 -5 15 -77 -3 -92 -8 -7 -15 -20 -15 -30 0 -26 -38 -56 -52
-42 -7 7 -33 12 -58 12 -40 0 -51 5 -83 38 l-37 38 0 137 c0 128 2 140 24 176
14 21 39 49 55 61 34 23 40 47 15 57 -10 4 -34 -12 -70 -48 -43 -42 -54 -60
-54 -85 0 -17 -7 -37 -15 -44 -10 -9 -15 -32 -15 -75 0 -43 5 -66 15 -75 10
-8 15 -31 15 -71 0 -55 -11 -81 -25 -59 -3 5 -23 10 -43 10 -20 0 -44 4 -51 9
-9 6 -22 6 -33 0 -14 -7 -20 -6 -24 6 -4 10 -19 15 -45 15 -26 0 -42 5 -45 15
-4 8 -17 15 -30 15 -13 0 -24 6 -25 13 -1 6 -2 19 -3 27 -2 8 -3 43 -4 78 -2
63 -2 63 -29 60 -26 -3 -28 -7 -31 -49 -2 -33 2 -51 14 -63 12 -12 14 -20 6
-28 -16 -16 -42 -2 -42 22 0 11 -7 23 -15 26 -8 4 -15 17 -15 30 0 14 -7 27
-15 30 -8 4 -15 17 -15 30 0 14 -7 27 -15 30 -10 4 -15 20 -15 45 0 26 -5 42
-15 45 -10 4 -15 20 -15 45 0 22 -6 41 -14 46 -8 4 -16 23 -18 42 -2 19 -9 36
-15 39 -20 6 -18 -134 2 -142 9 -3 15 -18 15 -40 0 -18 7 -47 15 -62 8 -16 15
-39 15 -50 0 -12 7 -24 15 -28 8 -3 15 -16 15 -30 0 -13 4 -26 10 -28 5 -1 11
-14 12 -28 l3 -25 -99 -2 c-124 -3 -137 3 -102 44 17 20 26 43 26 66 0 19 6
37 13 40 6 2 9 7 6 11 -3 3 -22 -1 -42 -9 -32 -13 -37 -20 -37 -48 0 -22 -8
-41 -23 -55 -21 -20 -33 -22 -128 -21 -98 1 -105 3 -126 27 -13 14 -23 33 -23
44 0 10 -4 18 -10 18 -5 0 -10 7 -10 15 0 8 5 15 10 15 6 0 10 10 10 23 0 13
7 32 15 43 8 10 15 35 15 54 0 27 9 44 42 77 23 24 48 43 56 43 7 0 20 7 28
15 9 8 30 15 49 15 20 0 35 6 39 15 3 10 19 15 46 15 46 0 47 3 20 30 -24 24
-36 25 -44 5 -4 -10 -20 -15 -53 -15 -38 0 -54 -6 -75 -25 -15 -14 -33 -25
-40 -25 -19 0 -98 -82 -98 -102 0 -9 -4 -20 -10 -23 -5 -3 -10 -21 -10 -40 0
-44 -16 -53 -42 -25 -17 18 -19 26 -10 41 10 16 8 20 -13 25 -15 4 -25 13 -25
24 0 10 -7 23 -15 30 -11 10 -15 35 -15 110 0 75 4 100 15 110 10 8 15 30 15
64 0 30 6 60 15 72 20 26 20 94 0 94 -9 0 -15 -9 -15 -25z m4485 -2355 c7 -21
0 -40 -16 -40 -5 0 -9 14 -9 30 0 34 15 40 25 10z"/>
<path d="M5766 14411 c-4 -5 -2 -12 3 -15 5 -4 12 -2 15 3 4 5 2 12 -3 15 -5
4 -12 2 -15 -3z"/>
<path d="M5706 14351 c-4 -5 -2 -12 3 -15 5 -4 12 -2 15 3 4 5 2 12 -3 15 -5
4 -12 2 -15 -3z"/>
<path d="M8186 14352 c-3 -6 -1 -14 5 -17 15 -10 25 3 12 16 -7 7 -13 7 -17 1z"/>
<path d="M8096 14322 c-3 -6 -1 -14 5 -17 15 -10 25 3 12 16 -7 7 -13 7 -17 1z"/>
<path d="M6916 14201 c-4 -5 -2 -12 3 -15 5 -4 12 -2 15 3 4 5 2 12 -3 15 -5
4 -12 2 -15 -3z"/>
<path d="M8276 14201 c-4 -5 -2 -12 3 -15 5 -4 12 -2 15 3 4 5 2 12 -3 15 -5
4 -12 2 -15 -3z"/>
<path d="M8216 14171 c-4 -5 -2 -12 3 -15 5 -4 12 -2 15 3 4 5 2 12 -3 15 -5
4 -12 2 -15 -3z"/>
<path d="M5590 13990 c0 -5 5 -10 10 -10 6 0 10 5 10 10 0 6 -4 10 -10 10 -5
0 -10 -4 -10 -10z"/>
<path d="M5500 13930 c0 -5 5 -10 10 -10 6 0 10 5 10 10 0 6 -4 10 -10 10 -5
0 -10 -4 -10 -10z"/>
<path d="M5230 13884 c0 -31 23 -28 28 4 2 15 -2 22 -12 22 -11 0 -16 -9 -16
-26z"/>
<path d="M4380 13809 c0 -5 5 -7 10 -4 6 3 10 8 10 11 0 2 -4 4 -10 4 -5 0
-10 -5 -10 -11z"/>
<path d="M10490 13780 c0 -5 5 -10 10 -10 6 0 10 5 10 10 0 6 -4 10 -10 10 -5
0 -10 -4 -10 -10z"/>
<path d="M4350 13749 c0 -5 5 -7 10 -4 6 3 10 8 10 11 0 2 -4 4 -10 4 -5 0
-10 -5 -10 -11z"/>
<path d="M4406 13732 c-3 -6 -1 -14 5 -17 15 -10 25 3 12 16 -7 7 -13 7 -17 1z"/>
<path d="M4465 13660 c3 -5 12 -7 20 -3 21 7 19 13 -6 13 -11 0 -18 -4 -14
-10z"/>
<path d="M4376 13521 c-4 -5 -2 -12 3 -15 5 -4 12 -2 15 3 4 5 2 12 -3 15 -5
4 -12 2 -15 -3z"/>
<path d="M4025 13490 c-3 -5 -1 -10 4 -10 6 0 11 5 11 10 0 6 -2 10 -4 10 -3
0 -8 -4 -11 -10z"/>
<path d="M4113 13428 c2 -7 12 -13 22 -13 10 0 20 6 23 13 2 7 -6 12 -23 12
-17 0 -25 -5 -22 -12z"/>
<path d="M11555 13049 c-10 -15 3 -25 16 -12 7 7 7 13 1 17 -6 3 -14 1 -17 -5z"/>
<path d="M3430 13040 c0 -5 5 -10 10 -10 6 0 10 5 10 10 0 6 -4 10 -10 10 -5
0 -10 -4 -10 -10z"/>
<path d="M3460 13015 c0 -9 5 -15 11 -13 6 2 11 8 11 13 0 5 -5 11 -11 13 -6
2 -11 -4 -11 -13z"/>
<path d="M12706 12252 c-3 -6 -1 -14 5 -17 15 -10 25 3 12 16 -7 7 -13 7 -17
1z"/>
<path d="M13065 11830 c3 -5 8 -10 11 -10 2 0 4 5 4 10 0 6 -5 10 -11 10 -5 0
-7 -4 -4 -10z"/>
<path d="M13412 11389 c2 -6 8 -10 13 -10 5 0 11 4 13 10 2 6 -4 11 -13 11 -9
0 -15 -5 -13 -11z"/>
<path d="M1690 11300 c0 -5 5 -10 10 -10 6 0 10 5 10 10 0 6 -4 10 -10 10 -5
0 -10 -4 -10 -10z"/>
<path d="M1455 11069 c-10 -15 3 -25 16 -12 7 7 7 13 1 17 -6 3 -14 1 -17 -5z"/>
<path d="M14506 11042 c-3 -6 -1 -14 5 -17 15 -10 25 3 12 16 -7 7 -13 7 -17
1z"/>
<path d="M13740 10921 c0 -6 5 -13 10 -16 6 -3 10 1 10 9 0 9 -4 16 -10 16 -5
0 -10 -4 -10 -9z"/>
<path d="M14630 10860 c0 -5 5 -10 11 -10 5 0 7 5 4 10 -3 6 -8 10 -11 10 -2
0 -4 -4 -4 -10z"/>
<path d="M1240 10714 c0 -4 8 -13 18 -20 16 -13 16 -15 0 -28 -22 -16 -23 -26
-3 -26 8 0 15 7 15 15 0 8 7 15 15 15 8 0 15 5 15 10 0 6 -7 10 -15 10 -8 0
-15 7 -15 15 0 8 -7 15 -15 15 -8 0 -15 -3 -15 -6z"/>
<path d="M13890 10680 c0 -5 5 -10 10 -10 6 0 10 5 10 10 0 6 -4 10 -10 10 -5
0 -10 -4 -10 -10z"/>
<path d="M1220 10529 c0 -5 5 -7 10 -4 6 3 10 8 10 11 0 2 -4 4 -10 4 -5 0
-10 -5 -10 -11z"/>
<path d="M1067 10423 c-4 -3 -7 -13 -7 -20 0 -8 -7 -21 -16 -30 -10 -11 -12
-19 -5 -26 14 -14 50 30 51 61 0 22 -10 29 -23 15z"/>
<path d="M1065 10301 c-6 -11 9 -23 19 -14 9 9 7 23 -3 23 -6 0 -12 -4 -16 -9z"/>
<path d="M626 9621 c-4 -5 -2 -12 3 -15 5 -4 12 -2 15 3 4 5 2 12 -3 15 -5 4
-12 2 -15 -3z"/>
<path d="M505 9290 c3 -5 10 -10 16 -10 5 0 9 5 9 10 0 6 -7 10 -16 10 -8 0
-12 -4 -9 -10z"/>
<path d="M14851 8487 c-12 -14 -21 -36 -21 -54 0 -17 -7 -36 -15 -43 -19 -16
-22 -124 -2 -118 6 3 14 15 15 29 2 13 10 28 18 32 8 4 14 18 14 30 1 12 7 33
15 47 16 28 20 86 6 94 -4 3 -18 -5 -30 -17z"/>
<path d="M14890 8050 c0 -5 5 -10 10 -10 6 0 10 5 10 10 0 6 -4 10 -10 10 -5
0 -10 -4 -10 -10z"/>
<path d="M270 7990 c0 -5 5 -10 10 -10 6 0 10 5 10 10 0 6 -4 10 -10 10 -5 0
-10 -4 -10 -10z"/>
<path d="M240 7075 c0 -9 5 -15 11 -13 6 2 11 8 11 13 0 5 -5 11 -11 13 -6 2
-11 -4 -11 -13z"/>
<path d="M14920 4210 c0 -5 7 -10 16 -10 8 0 12 5 9 10 -3 6 -10 10 -16 10 -5
0 -9 -4 -9 -10z"/>
<path d="M14950 4180 c0 -5 5 -10 10 -10 6 0 10 5 10 10 0 6 -4 10 -10 10 -5
0 -10 -4 -10 -10z"/>
<path d="M15096 3982 c-3 -6 -1 -14 5 -17 15 -10 25 3 12 16 -7 7 -13 7 -17 1z"/>
<path d="M14835 2500 c-3 -5 -1 -10 4 -10 6 0 11 5 11 10 0 6 -2 10 -4 10 -3
0 -8 -4 -11 -10z"/>
<path d="M2220 2320 c0 -5 5 -10 10 -10 6 0 10 5 10 10 0 6 -4 10 -10 10 -5 0
-10 -4 -10 -10z"/>
<path d="M2280 2290 c0 -5 5 -10 10 -10 6 0 10 5 10 10 0 6 -4 10 -10 10 -5 0
-10 -4 -10 -10z"/>
<path d="M14502 2059 c2 -7 10 -15 17 -17 8 -3 12 1 9 9 -2 7 -10 15 -17 17
-8 3 -12 -1 -9 -9z"/>
<path d="M14506 2002 c-3 -6 -1 -14 5 -17 15 -10 25 3 12 16 -7 7 -13 7 -17 1z"/>
<path d="M2815 1820 c-3 -5 -1 -10 4 -10 6 0 11 5 11 10 0 6 -2 10 -4 10 -3 0
-8 -4 -11 -10z"/>
<path d="M3020 1550 c0 -5 5 -10 10 -10 6 0 10 5 10 10 0 6 -4 10 -10 10 -5 0
-10 -4 -10 -10z"/>
<path d="M3076 1532 c-3 -6 -1 -14 5 -17 15 -10 25 3 12 16 -7 7 -13 7 -17 1z"/>
<path d="M14125 1529 c-10 -15 3 -25 16 -12 7 7 7 13 1 17 -6 3 -14 1 -17 -5z"/>
<path d="M14126 1351 c-4 -5 -2 -12 3 -15 5 -4 12 -2 15 3 4 5 2 12 -3 15 -5
4 -12 2 -15 -3z"/>
<path d="M3418 1343 c7 -3 16 -2 19 1 4 3 -2 6 -13 5 -11 0 -14 -3 -6 -6z"/>
<path d="M13890 1194 c0 -8 5 -12 10 -9 6 3 10 10 10 16 0 5 -4 9 -10 9 -5 0
-10 -7 -10 -16z"/>
<path d="M13830 1164 c0 -8 5 -12 10 -9 6 3 10 10 10 16 0 5 -4 9 -10 9 -5 0
-10 -7 -10 -16z"/>
<path d="M9990 990 c0 -5 5 -10 10 -10 6 0 10 5 10 10 0 6 -4 10 -10 10 -5 0
-10 -4 -10 -10z"/>
<path d="M10050 870 c0 -5 5 -10 10 -10 6 0 10 5 10 10 0 6 -4 10 -10 10 -5 0
-10 -4 -10 -10z"/>
<path d="M4496 761 c-4 -5 -2 -12 3 -15 5 -4 12 -2 15 3 4 5 2 12 -3 15 -5 4
-12 2 -15 -3z"/>
<path d="M8956 641 c-4 -5 -2 -12 3 -15 5 -4 12 -2 15 3 4 5 2 12 -3 15 -5 4
-12 2 -15 -3z"/>
<path d="M8897 613 c-3 -5 5 -19 18 -31 13 -12 26 -19 28 -15 3 5 -5 19 -18
31 -13 12 -26 19 -28 15z"/>
<path d="M10432 581 c2 -7 7 -12 11 -12 12 1 9 15 -3 20 -7 2 -11 -2 -8 -8z"/>
<path d="M8482 461 c4 -13 18 -16 19 -4 0 4 -5 9 -11 12 -7 2 -11 -2 -8 -8z"/>
<path d="M7802 431 c4 -13 18 -16 19 -4 0 4 -5 9 -11 12 -7 2 -11 -2 -8 -8z"/>
<path d="M7980 340 c0 -5 5 -10 10 -10 6 0 10 5 10 10 0 6 -4 10 -10 10 -5 0
-10 -4 -10 -10z"/>
</g>
</svg>
