<?xml version="1.0" standalone="no"?>
<!DOCTYPE svg PUBLIC "-//W3C//DTD SVG 20010904//EN"
 "http://www.w3.org/TR/2001/REC-SVG-20010904/DTD/svg10.dtd">
<svg version="1.0" xmlns="http://www.w3.org/2000/svg"
 width="1376.000000pt" height="1080.000000pt" viewBox="0 0 1376.000000 1080.000000"
 preserveAspectRatio="xMidYMid meet">
<metadata>
Created by potrace 1.16, written by Peter Selinger 2001-2019
</metadata>
<g transform="translate(0.000000,1080.000000) scale(0.100000,-0.100000)"
fill="#000000" stroke="none">
<path d="M7655 10759 c-55 -11 -125 -25 -155 -30 -177 -32 -211 -40 -273 -68
-37 -17 -86 -50 -110 -73 -23 -22 -112 -87 -197 -144 -140 -93 -227 -161 -586
-459 -199 -165 -213 -182 -325 -380 -128 -228 -152 -281 -195 -434 -41 -146
-59 -229 -80 -366 -32 -215 -85 -478 -118 -583 -19 -60 -49 -170 -67 -243 -17
-74 -49 -199 -70 -279 -56 -215 -68 -293 -78 -530 -9 -203 -12 -222 -46 -339
-20 -69 -43 -137 -51 -152 -8 -16 -14 -39 -14 -53 0 -36 -60 -80 -155 -115
-44 -16 -163 -69 -265 -119 -223 -107 -298 -165 -389 -300 -95 -142 -138 -241
-158 -364 l-18 -108 -50 -11 c-66 -14 -345 -7 -545 15 -496 54 -742 101 -1049
203 -271 89 -455 144 -682 202 -228 58 -337 92 -554 173 -190 71 -241 97 -357
183 -48 35 -133 93 -188 128 -75 48 -137 100 -237 198 -150 148 -193 205 -259
343 -45 92 -46 98 -59 248 -8 84 -18 168 -24 187 -17 56 -36 228 -36 336 0 89
3 107 28 160 37 78 119 215 176 292 25 34 65 92 88 130 23 37 89 118 146 179
57 62 137 156 178 210 41 55 92 121 113 148 71 93 115 212 116 311 0 22 12 72
26 110 24 64 26 86 31 270 5 197 4 202 -26 328 -17 70 -38 142 -47 160 -25 48
-97 137 -111 137 -23 0 -25 -22 -4 -51 12 -16 27 -55 32 -87 16 -80 6 -345
-14 -397 -22 -59 -44 -154 -67 -290 -27 -160 -57 -221 -169 -339 -117 -124
-141 -154 -276 -356 -64 -96 -123 -182 -130 -190 -7 -8 -45 -77 -85 -152 -65
-126 -74 -149 -100 -275 -45 -218 -118 -522 -141 -591 -11 -34 -23 -88 -26
-120 -7 -76 13 -207 36 -246 11 -17 36 -87 57 -155 25 -83 65 -179 122 -294
77 -154 94 -180 175 -269 79 -87 275 -268 443 -409 31 -26 106 -75 167 -110
62 -34 146 -83 187 -107 87 -53 296 -146 460 -207 200 -74 602 -235 686 -276
85 -40 227 -78 484 -128 85 -17 184 -37 220 -45 36 -8 94 -20 130 -27 88 -16
261 -61 395 -103 67 -21 160 -40 237 -50 180 -22 272 -58 354 -141 34 -34 65
-73 69 -86 4 -13 19 -46 34 -74 15 -27 41 -84 57 -125 25 -67 38 -85 124 -169
52 -52 113 -102 135 -112 36 -16 77 -59 56 -59 -4 0 -6 -11 -4 -23 4 -20 -9
-35 -74 -88 -43 -36 -118 -94 -168 -129 -49 -36 -121 -89 -159 -117 -37 -29
-98 -69 -136 -89 -37 -19 -119 -79 -183 -133 -105 -89 -227 -187 -451 -361
-46 -36 -126 -99 -177 -141 -52 -42 -123 -92 -159 -111 -95 -52 -209 -146
-267 -219 -77 -97 -219 -313 -273 -414 -78 -146 -93 -275 -46 -399 14 -37 26
-89 26 -115 1 -25 8 -64 16 -86 9 -22 20 -59 25 -81 15 -61 118 -157 234 -216
103 -53 358 -131 505 -154 52 -9 214 -19 360 -24 146 -5 281 -11 300 -14 19
-3 90 -13 158 -21 316 -41 452 -87 732 -247 214 -123 230 -136 268 -208 30
-59 33 -71 29 -133 -6 -96 -21 -113 -148 -164 -57 -24 -120 -48 -139 -54 -19
-7 -80 -32 -135 -57 -55 -25 -113 -48 -130 -51 -43 -9 -47 -52 -8 -93 67 -72
206 -104 321 -74 151 38 204 69 347 204 164 154 205 218 205 325 0 118 -64
242 -227 443 -100 123 -277 254 -459 340 -139 67 -150 68 -464 54 -151 -6
-303 -14 -337 -17 -52 -4 -78 0 -150 25 -87 30 -134 36 -431 56 -86 6 -165 39
-267 112 -72 51 -142 144 -199 263 -29 63 -31 72 -31 186 l0 120 50 95 c55
106 133 193 205 230 25 13 77 44 115 70 39 25 102 64 140 85 147 80 244 156
353 274 252 272 249 269 409 360 81 46 210 122 286 168 179 111 384 193 553
222 104 18 133 28 233 78 62 32 137 79 167 105 64 56 101 63 304 62 158 -1
314 -18 422 -45 46 -11 110 -19 162 -19 73 0 89 3 106 20 l20 20 63 -39 c34
-21 84 -47 112 -56 76 -25 242 -56 268 -50 12 3 70 -1 127 -9 58 -8 139 -17
180 -21 41 -3 118 -13 170 -21 70 -11 173 -15 391 -15 294 1 515 -12 729 -43
183 -27 307 -38 518 -45 l212 -8 124 -61 c98 -47 142 -76 210 -137 96 -86 116
-117 166 -268 27 -83 32 -115 34 -200 l1 -102 -64 -115 c-35 -63 -76 -134 -90
-157 -37 -59 -174 -170 -231 -187 -119 -35 -207 -96 -257 -175 -20 -31 -80
-98 -133 -148 -58 -55 -106 -110 -119 -135 -47 -99 -33 -257 37 -413 42 -95
72 -186 117 -350 15 -55 36 -117 47 -139 25 -50 158 -249 203 -304 44 -55 48
-115 10 -177 -13 -22 -29 -50 -34 -61 -11 -26 -130 -125 -192 -162 -27 -16
-69 -28 -109 -33 -115 -14 -285 -55 -450 -109 -111 -36 -155 -46 -325 -71 -44
-6 -92 -17 -106 -24 -14 -8 -63 -23 -110 -35 -139 -34 -200 -70 -166 -98 35
-29 397 -48 459 -23 15 5 69 13 120 17 55 3 144 20 218 40 69 18 163 38 210
44 125 17 244 46 324 81 39 17 105 45 146 63 77 33 218 124 278 180 52 48 112
182 112 250 0 38 -44 147 -114 286 -30 58 -59 124 -65 147 -6 23 -43 108 -82
190 -39 81 -82 180 -96 218 -31 87 -41 224 -23 291 19 67 119 210 183 260 30
23 72 64 93 89 22 26 62 65 89 87 28 22 69 65 92 95 45 61 86 93 119 93 37 0
138 58 194 112 91 88 209 226 234 276 48 94 67 187 73 350 7 173 4 186 -63
327 -95 200 -260 398 -379 454 -28 13 -87 46 -133 73 -134 81 -289 135 -447
158 -44 6 -141 22 -215 36 -287 52 -312 54 -675 64 -207 6 -400 17 -455 25
-97 15 -295 66 -430 111 -41 14 -131 40 -200 59 -165 45 -205 60 -262 96 l-48
31 0 78 c0 65 6 97 36 182 71 200 76 229 81 421 3 97 9 177 14 177 4 0 20 20
35 45 25 44 66 75 98 75 8 0 35 18 61 40 73 63 173 117 250 134 39 8 129 36
202 61 86 29 161 48 215 54 46 5 126 22 178 39 52 16 111 33 130 36 19 4 62
17 95 31 62 24 288 88 358 100 21 3 75 26 120 49 45 24 102 47 127 51 25 4 55
13 67 21 13 8 48 14 81 14 32 0 81 6 108 14 27 8 78 20 114 26 110 19 459 217
584 330 23 20 86 71 142 112 55 42 137 116 182 165 81 88 81 89 264 180 181
90 184 91 319 113 124 20 147 21 275 11 248 -20 360 -39 494 -86 225 -78 290
-116 405 -236 120 -126 208 -201 357 -304 111 -77 163 -121 230 -195 106 -117
241 -278 287 -342 34 -47 34 -48 32 -153 -2 -92 3 -123 33 -243 78 -301 147
-600 161 -691 8 -53 17 -168 20 -256 10 -234 36 -319 126 -400 82 -74 121 -73
200 2 64 60 108 132 141 228 19 56 20 74 14 280 -6 181 -11 239 -32 330 -23
103 -52 323 -74 565 -24 263 -45 399 -80 528 -24 86 -39 118 -90 187 -60 81
-124 192 -191 330 -101 208 -118 230 -287 375 -84 71 -160 134 -170 139 -10 5
-59 23 -108 39 -79 27 -188 68 -339 130 -27 11 -102 41 -165 65 -63 25 -152
62 -197 82 -180 80 -579 106 -898 60 -55 -8 -190 -17 -300 -21 -199 -5 -312
-20 -380 -48 -38 -16 -230 -142 -278 -182 -16 -13 -36 -24 -45 -24 -9 0 -29
-6 -44 -14 -14 -8 -41 -19 -60 -25 -36 -12 -178 -114 -284 -204 -80 -68 -219
-145 -319 -177 -38 -13 -82 -29 -98 -37 -15 -7 -80 -24 -145 -38 -64 -13 -129
-28 -143 -33 -38 -15 -124 -69 -204 -128 -38 -28 -89 -61 -111 -72 -97 -49
-266 -105 -402 -133 -241 -50 -377 -99 -481 -174 -27 -19 -63 -41 -82 -49 -58
-24 -309 -74 -409 -82 -52 -4 -106 -10 -120 -14 -14 -4 -50 -1 -80 6 -30 7
-68 14 -85 14 -22 0 -56 21 -125 75 -52 41 -126 91 -165 111 -38 20 -113 61
-165 90 -155 87 -334 151 -471 169 l-46 6 -6 102 c-4 56 -14 152 -22 212 -27
205 -12 591 35 863 11 63 24 171 30 240 6 78 17 150 29 186 31 87 80 343 96
497 22 205 92 475 166 637 117 258 484 554 874 705 50 19 126 52 170 74 93 47
319 126 420 148 39 9 147 18 242 22 167 6 173 5 259 -21 48 -15 117 -43 154
-62 39 -20 106 -42 161 -53 159 -33 433 -112 491 -142 22 -11 127 -79 311
-200 64 -43 113 -66 185 -88 132 -41 143 -42 513 -50 320 -7 325 -7 384 -33
33 -14 105 -40 160 -57 55 -17 147 -55 205 -83 l105 -51 165 -4 c91 -1 206 -7
255 -13 355 -38 399 -41 413 -23 20 28 15 89 -10 115 -38 39 -107 79 -177 103
-79 27 -269 111 -288 127 -8 6 -60 15 -117 19 -57 5 -116 13 -132 19 -16 6
-65 18 -109 26 -44 9 -113 24 -152 34 -63 16 -96 18 -245 13 -155 -5 -184 -4
-276 16 -57 12 -138 37 -181 56 -44 18 -135 54 -205 79 -176 64 -290 124 -393
207 -105 85 -199 131 -348 169 -141 37 -148 39 -285 114 -113 62 -197 93 -312
115 -149 28 -167 33 -165 43 3 17 -48 27 -198 38 -280 22 -450 21 -560 -1z"/>
</g>
</svg>
