<?xml version="1.0" standalone="no"?>
<!DOCTYPE svg PUBLIC "-//W3C//DTD SVG 20010904//EN"
 "http://www.w3.org/TR/2001/REC-SVG-20010904/DTD/svg10.dtd">
<svg version="1.0" xmlns="http://www.w3.org/2000/svg"
 width="671.000000pt" height="1536.000000pt" viewBox="0 0 671.000000 1536.000000"
 preserveAspectRatio="xMidYMid meet">
<metadata>
Created by potrace 1.16, written by Peter Selinger 2001-2019
</metadata>
<g transform="translate(0.000000,1536.000000) scale(0.100000,-0.100000)"
fill="#000000" stroke="none">
<path d="M2994 15347 c-11 -9 -92 -57 -179 -107 -246 -143 -333 -215 -407
-340 l-37 -63 -63 2 c-76 3 -107 -9 -222 -84 -112 -73 -158 -93 -238 -101 -95
-10 -199 9 -435 76 -113 33 -238 64 -277 69 -424 58 -876 -34 -1092 -222 l-44
-39 0 -69 c0 -38 2 -69 4 -69 2 0 42 18 90 40 104 48 254 92 402 117 151 25
609 25 839 0 159 -18 711 -93 751 -103 20 -5 21 -8 8 -32 -7 -15 -27 -79 -44
-142 -17 -63 -41 -135 -53 -160 -21 -42 -26 -45 -66 -48 -23 -2 -62 4 -87 14
-24 9 -47 14 -50 11 -16 -15 23 -48 86 -72 76 -29 93 -48 88 -98 l-3 -32 -70
3 c-38 2 -103 14 -144 27 -41 13 -77 23 -78 21 -2 -2 2 -15 8 -29 12 -27 57
-49 124 -62 46 -8 95 -31 95 -45 0 -5 -12 -35 -26 -67 -14 -32 -63 -144 -109
-248 -45 -105 -99 -223 -119 -262 l-36 -72 -37 6 c-63 9 -184 52 -249 88 -33
19 -118 77 -190 129 -71 53 -132 96 -135 96 -3 0 -23 -25 -43 -55 -20 -30 -43
-55 -50 -55 -22 0 -68 51 -110 121 l-37 62 42 43 c42 43 44 64 8 64 -32 0 -72
-25 -115 -72 -48 -52 -138 -213 -129 -229 4 -6 42 -37 84 -68 90 -66 230 -141
351 -187 l85 -32 -38 -17 c-23 -9 -92 -20 -175 -25 -157 -12 -216 -23 -257
-50 -25 -16 -27 -20 -12 -26 41 -15 232 4 352 35 166 44 262 50 339 21 55 -21
58 -24 41 -36 -10 -8 -36 -14 -58 -14 -42 0 -81 -16 -72 -30 3 -5 34 -7 69 -3
53 5 64 3 69 -11 4 -10 1 -18 -6 -21 -6 -2 -44 -13 -83 -24 -39 -11 -79 -30
-89 -41 -18 -20 -18 -20 22 -20 22 0 73 11 113 25 40 14 78 25 84 25 21 0 36
-17 45 -48 l9 -31 -66 -6 c-37 -4 -84 -11 -104 -16 -43 -11 -97 -53 -85 -65 5
-5 65 6 135 24 70 18 140 32 155 32 33 0 77 -40 77 -69 0 -24 -11 -27 -200
-46 -145 -15 -244 -36 -255 -55 -9 -14 82 -12 200 5 121 17 197 19 250 4 l39
-11 -27 -24 c-37 -32 -82 -43 -222 -55 -190 -16 -273 -38 -296 -81 -9 -17 -8
-19 8 -14 95 29 439 48 512 27 22 -6 19 -8 -25 -28 -56 -25 -80 -32 -253 -68
-111 -24 -221 -64 -221 -82 0 -14 147 10 282 47 154 42 234 50 277 26 l24 -13
-24 -16 c-41 -27 -94 -46 -203 -72 -58 -13 -129 -37 -158 -52 -49 -26 -51 -28
-26 -31 15 -2 87 11 160 29 125 31 228 42 244 27 13 -14 -33 -73 -73 -96 -22
-12 -92 -35 -155 -50 -107 -27 -198 -65 -198 -84 0 -19 96 -6 200 27 129 41
149 42 181 15 l24 -20 -35 -30 c-88 -75 -228 -90 -425 -44 -222 51 -281 63
-350 68 l-70 6 52 -25 c28 -13 112 -40 185 -60 73 -20 158 -45 188 -56 63 -23
150 -76 150 -91 0 -17 -106 -3 -195 26 -87 28 -147 32 -183 13 -21 -12 -14
-15 75 -31 107 -20 203 -52 203 -67 0 -10 -69 -6 -185 12 -105 16 -211 11
-254 -10 -60 -31 -85 -73 -30 -53 89 34 302 19 431 -30 27 -10 27 -11 12 -40
-25 -49 -160 -183 -237 -236 -40 -27 -144 -89 -232 -137 -251 -138 -383 -220
-371 -232 6 -7 60 23 152 84 83 56 154 78 169 53 15 -25 -105 -177 -196 -247
-27 -20 -49 -41 -49 -46 0 -12 40 2 80 29 87 60 112 -7 37 -101 -15 -19 -72
-68 -127 -108 -114 -84 -139 -112 -147 -164 l-6 -38 79 80 c85 87 173 157 216
174 25 9 28 8 28 -10 0 -52 -64 -140 -190 -262 -131 -126 -184 -193 -178 -223
4 -25 53 19 196 179 107 120 184 188 198 174 13 -13 -8 -78 -45 -133 -21 -33
-72 -99 -114 -149 -79 -92 -113 -148 -102 -165 11 -17 19 -11 54 40 35 51 75
68 87 35 6 -15 -40 -104 -99 -190 l-34 -50 28 -82 c52 -154 89 -197 184 -210
47 -6 48 -6 41 18 -34 120 -38 158 -32 276 3 67 9 129 12 136 3 8 25 22 49 31
74 29 167 95 245 175 154 159 256 395 326 754 l27 139 34 -7 c43 -8 146 11
195 36 21 11 79 46 129 79 50 33 100 60 110 60 28 0 90 -60 111 -108 14 -30
23 -92 33 -210 15 -178 29 -241 65 -293 l23 -32 -44 -36 c-389 -320 -607 -636
-650 -946 -15 -109 -35 -133 -201 -242 -70 -46 -126 -89 -123 -94 12 -18 44
-8 90 27 37 28 49 33 61 23 19 -16 18 -38 -6 -76 -23 -39 -66 -66 -185 -118
-91 -39 -165 -97 -165 -129 0 -26 24 -19 130 34 134 67 201 68 166 3 -25 -48
-106 -118 -226 -195 -108 -70 -182 -136 -209 -187 -7 -11 -8 -21 -3 -21 16 0
97 57 177 124 44 37 97 76 117 87 38 20 98 26 98 10 0 -17 -76 -77 -176 -138
-91 -56 -173 -127 -161 -140 8 -7 63 24 150 83 108 74 159 84 165 33 5 -40
-31 -75 -108 -104 -39 -15 -77 -36 -85 -48 -34 -48 27 -51 84 -2 41 34 64 37
75 10 10 -28 -67 -114 -195 -218 -34 -28 -31 -29 29 -11 17 5 22 2 22 -13 0
-28 -65 -85 -150 -132 -41 -23 -85 -53 -98 -67 -22 -25 -31 -84 -12 -84 6 0
10 4 10 8 0 24 125 122 155 122 18 0 -32 -58 -134 -157 -64 -61 -113 -115
-108 -119 15 -15 77 26 139 93 123 132 146 152 183 159 20 3 39 4 42 1 12 -13
-51 -100 -123 -169 -85 -83 -134 -150 -134 -185 0 -20 12 -10 69 58 77 91 116
126 176 158 l39 21 19 -31 20 -30 -90 -92 c-92 -94 -111 -124 -95 -153 7 -13
18 -4 61 50 68 85 106 116 142 116 16 0 29 -4 29 -8 0 -4 -47 -63 -104 -131
-112 -131 -213 -271 -197 -271 20 0 74 55 147 151 84 109 123 139 180 139 l39
0 -53 -35 c-203 -137 -329 -570 -225 -773 51 -100 147 -141 268 -115 l40 9
-67 23 c-88 29 -129 58 -152 105 -15 31 -17 42 -7 55 50 69 62 102 76 214 6
47 6 47 44 47 49 0 99 34 129 87 12 22 36 94 52 159 32 125 64 187 106 206 38
18 40 11 73 -182 10 -62 34 -109 59 -118 17 -5 7 38 -44 201 -60 188 -59 273
4 330 15 14 21 15 29 5 26 -34 117 -195 144 -254 30 -66 31 -69 24 -179 -6
-92 -4 -117 8 -141 15 -27 16 -20 17 137 0 103 6 197 15 245 8 44 30 183 50
309 41 269 80 437 131 564 20 50 38 91 40 91 2 0 13 -15 24 -32 37 -60 28
-134 -36 -315 -47 -132 -57 -170 -58 -230 -1 -65 6 -94 19 -81 3 3 21 74 40
159 20 85 42 172 51 194 31 78 96 143 115 114 15 -24 10 -54 -27 -171 -23 -71
-37 -139 -40 -183 -3 -69 -4 -70 -34 -78 -42 -11 -102 -73 -133 -138 -29 -62
-51 -170 -41 -202 5 -17 13 -4 34 65 32 102 68 167 112 202 30 23 34 24 40 8
25 -62 -2 -144 -82 -252 -55 -74 -85 -134 -95 -193 -6 -32 -5 -36 9 -31 23 9
59 76 86 157 20 62 66 127 91 127 15 0 68 -64 69 -82 0 -10 -18 -65 -39 -122
-45 -118 -77 -243 -67 -254 17 -17 63 56 75 118 7 35 20 81 28 102 15 37 48
66 61 54 3 -4 -14 -94 -37 -202 -40 -181 -43 -203 -37 -292 3 -53 8 -110 11
-127 5 -27 -3 -40 -70 -114 -62 -69 -75 -90 -75 -117 0 -38 14 -44 30 -14 18
33 29 13 23 -39 -3 -27 -1 -56 5 -66 9 -17 11 -16 25 11 8 17 23 59 32 94 27
106 53 140 104 140 17 0 21 -6 21 -35 0 -40 -24 -93 -81 -176 -43 -63 -54 -97
-45 -134 10 -38 23 -22 46 57 19 63 63 129 76 115 3 -3 -2 -39 -10 -81 -38
-180 -31 -362 20 -558 21 -80 23 -100 13 -120 -6 -13 -43 -76 -82 -142 -83
-140 -119 -237 -115 -304 l3 -47 17 35 c10 19 40 86 67 149 28 63 72 150 98
194 47 78 48 79 51 46 6 -54 -17 -147 -60 -249 -22 -52 -42 -101 -45 -107 -3
-8 3 -13 16 -13 23 0 47 31 56 75 11 52 26 83 42 90 9 3 17 4 19 3 1 -2 -1
-35 -6 -73 -19 -152 14 -279 140 -545 89 -188 110 -250 110 -329 l0 -56 26 45
c29 53 49 70 80 70 52 0 43 -43 -26 -129 -52 -65 -62 -101 -37 -135 11 -15 17
-8 49 62 38 80 62 102 112 102 35 0 41 -38 15 -107 -39 -109 -44 -132 -32
-144 17 -17 30 -3 48 54 10 28 23 62 31 74 l14 22 35 -32 c40 -35 44 -65 20
-125 -23 -53 -48 -77 -157 -144 -113 -69 -158 -115 -158 -159 l0 -31 66 61
c65 60 162 117 185 109 20 -7 -67 -103 -198 -218 -70 -61 -149 -137 -176 -167
-54 -63 -102 -141 -93 -151 4 -3 75 64 159 151 147 152 194 187 247 187 25 0
26 -20 4 -83 -20 -59 -80 -126 -195 -218 -99 -79 -142 -139 -137 -190 3 -30 5
-28 72 65 73 101 114 136 161 136 25 0 27 -3 20 -27 -12 -51 -55 -136 -89
-177 -19 -23 -72 -83 -118 -133 -75 -83 -151 -193 -132 -193 24 0 78 50 114
105 46 70 101 125 127 125 13 0 15 -10 11 -59 -6 -85 -51 -168 -153 -281 -102
-113 -138 -162 -154 -213 -25 -74 -3 -60 81 55 91 123 118 148 156 148 24 0
24 -2 17 -57 -12 -97 -38 -138 -176 -274 -105 -103 -129 -133 -139 -168 -6
-24 -10 -45 -7 -47 2 -2 42 41 90 95 47 55 106 113 130 130 l44 30 6 -44 c8
-56 -6 -135 -36 -193 -12 -26 -68 -93 -126 -152 -97 -98 -140 -160 -141 -202
0 -33 17 -18 95 82 84 108 136 160 162 160 13 0 15 -9 9 -57 -16 -143 -79
-256 -237 -428 -95 -104 -152 -182 -164 -225 -6 -19 2 -13 31 23 22 26 101
104 177 173 l137 125 0 -39 c0 -56 -26 -146 -56 -194 -15 -24 -57 -70 -93
-103 -126 -116 -189 -182 -211 -224 -12 -24 -20 -45 -17 -47 9 -9 90 66 163
150 74 85 129 124 148 106 16 -16 24 -103 15 -154 -14 -76 -44 -125 -140 -230
-62 -69 -92 -110 -100 -138 -5 -22 -7 -43 -4 -47 4 -3 23 14 44 39 63 79 128
144 161 164 l32 18 -4 -73 c-5 -99 -30 -147 -138 -268 -91 -102 -120 -145
-120 -181 0 -29 12 -20 77 63 73 94 134 157 150 157 8 0 18 -12 23 -26 26 -68
-2 -155 -89 -273 -127 -173 -135 -214 -16 -82 91 101 101 100 92 -4 -3 -46
-13 -79 -37 -122 -18 -32 -45 -79 -59 -105 -14 -26 -22 -50 -18 -54 13 -13 41
10 59 49 33 68 88 57 88 -17 0 -32 -11 -60 -45 -116 -45 -76 -53 -103 -35
-130 8 -12 10 -11 10 6 0 24 37 67 51 59 5 -4 9 -41 9 -84 0 -63 -5 -87 -25
-127 -14 -27 -25 -50 -25 -51 0 0 9 1 20 4 10 3 26 16 35 29 20 30 33 30 47 0
9 -21 6 -32 -21 -72 -43 -65 -40 -77 10 -51 l41 22 49 -54 49 -54 15 36 c22
53 19 112 -15 242 -38 147 -38 159 -4 151 25 -7 26 -5 19 21 -3 15 -20 60 -37
98 -38 86 -49 155 -24 155 18 0 30 -22 46 -88 10 -39 32 -63 46 -50 3 3 -9 41
-27 84 -77 192 -99 286 -80 338 6 15 20 30 31 33 26 7 26 39 0 121 -22 71 -26
137 -8 148 7 5 27 -10 51 -37 l39 -44 -42 84 c-50 101 -61 167 -35 226 l18 40
7 -32 c4 -18 16 -45 26 -60 18 -27 19 -27 22 -6 2 12 -13 62 -32 110 -45 110
-51 144 -36 174 24 45 45 50 53 12 3 -16 15 -34 26 -41 20 -11 21 -10 21 21 0
23 -13 54 -41 95 -28 41 -43 76 -46 105 -10 82 32 71 72 -19 26 -59 41 -72 60
-53 12 12 8 24 -26 74 -72 109 -97 243 -55 300 18 25 31 13 67 -56 32 -64 50
-79 74 -59 13 10 9 19 -26 59 -84 93 -122 223 -86 289 13 22 13 22 30 -14 10
-20 30 -52 44 -71 30 -38 133 -126 140 -119 12 12 -41 99 -101 165 -73 79 -90
110 -101 183 -12 83 36 56 126 -68 55 -77 93 -113 105 -101 12 12 -30 80 -91
148 -82 91 -97 118 -93 172 4 57 36 63 78 15 16 -18 45 -51 64 -73 19 -22 37
-37 40 -34 15 15 -20 86 -69 139 -92 100 -118 156 -87 190 9 10 23 26 30 35
19 22 34 8 78 -71 39 -70 56 -87 80 -82 32 6 25 25 -30 89 -106 125 -132 216
-84 300 12 22 25 39 28 39 13 0 40 -37 51 -71 14 -41 37 -69 56 -69 25 0 13
28 -71 164 -43 71 -44 86 -11 123 24 28 24 28 25 5 0 -52 50 -106 80 -87 17
11 11 28 -26 80 -86 118 -99 220 -34 255 18 10 23 3 56 -65 38 -80 74 -115 74
-73 0 13 -21 59 -46 103 -55 98 -70 149 -55 188 17 43 41 31 67 -33 12 -30 32
-61 45 -70 22 -15 22 -14 16 23 -3 21 -26 73 -51 115 -25 42 -49 91 -52 109
-6 32 11 93 26 93 17 0 40 -40 55 -100 9 -36 24 -73 32 -82 17 -20 53 -24 53
-8 0 6 -29 67 -65 135 -69 133 -78 171 -50 225 9 17 19 30 23 30 4 0 13 -19
19 -43 20 -72 93 -119 77 -49 -4 15 -24 59 -45 98 -42 77 -48 114 -23 135 14
11 19 10 35 -10 11 -13 22 -41 25 -63 7 -38 37 -88 55 -88 20 0 7 70 -26 140
-20 40 -35 83 -33 94 4 28 44 40 101 32 59 -9 105 -41 131 -91 19 -37 21 -55
20 -220 -2 -177 -1 -179 15 -135 11 31 38 66 86 113 38 37 76 67 83 67 27 0
72 -31 87 -60 9 -17 15 -55 15 -90 0 -58 1 -61 22 -58 33 4 33 29 2 108 -22
58 -25 72 -14 85 12 14 15 14 31 -1 10 -9 45 -62 78 -118 32 -56 67 -108 77
-116 32 -27 10 83 -36 177 -22 45 -40 87 -40 92 0 5 10 15 23 24 12 8 43 52
67 97 43 79 79 120 106 120 21 0 34 -67 34 -175 0 -115 8 -139 38 -111 20 17
20 16 27 -36 3 -29 20 -137 36 -239 16 -102 29 -216 29 -254 0 -65 1 -67 18
-52 26 24 29 22 37 -19 4 -23 -2 -76 -16 -146 -17 -87 -20 -114 -10 -134 15
-34 27 -23 35 32 7 51 29 84 57 84 26 0 43 -85 37 -184 -4 -62 -18 -117 -57
-232 -53 -158 -57 -174 -42 -174 28 0 54 41 71 114 17 71 41 116 61 116 10 0
29 -92 29 -145 0 -93 -52 -240 -120 -343 l-22 -32 21 0 c35 0 68 43 90 116 20
69 45 114 61 114 17 0 32 -73 27 -126 -3 -29 -24 -99 -47 -156 -44 -109 -57
-170 -46 -214 10 -40 24 -18 42 67 25 121 56 163 68 92 12 -78 5 -211 -20
-350 -14 -80 -24 -159 -22 -176 3 -27 8 -17 36 63 49 143 54 144 48 5 -5 -118
-24 -216 -60 -299 -18 -44 -16 -51 13 -41 12 3 22 18 26 38 18 92 45 126 59
75 17 -64 -4 -157 -68 -308 -27 -64 -36 -99 -36 -142 0 -56 14 -85 24 -51 3
10 10 48 16 85 5 37 13 75 17 85 9 27 44 63 61 63 32 0 -16 -230 -78 -371 -23
-52 -44 -100 -47 -106 -8 -20 25 -15 46 6 11 11 25 39 31 63 22 92 30 114 45
133 15 18 16 11 12 -100 -5 -128 -16 -171 -79 -307 -17 -38 -29 -71 -25 -74
14 -14 47 20 57 59 23 90 36 121 53 131 25 16 37 -7 37 -72 0 -60 -34 -171
-81 -263 -40 -80 -34 -112 7 -39 37 64 58 85 79 76 22 -8 13 -92 -36 -338 -41
-208 -52 -339 -24 -302 13 18 14 15 15 -28 l0 -48 45 0 c39 0 45 3 45 21 0 31
19 59 40 59 29 0 130 -52 130 -67 0 -9 15 -13 45 -13 26 0 45 5 45 11 0 21
-57 64 -109 83 -56 20 -91 55 -91 92 0 46 86 27 140 -31 13 -14 40 -36 58 -47
27 -17 38 -19 58 -9 13 6 24 14 24 19 0 5 -43 28 -97 52 -53 24 -109 55 -125
68 -25 21 -28 30 -28 84 l0 60 41 -7 c23 -4 39 -3 37 1 -51 106 -52 109 -52
194 0 47 6 122 13 168 l13 82 35 0 c42 0 78 -18 138 -70 56 -48 69 -50 52 -7
-16 39 -60 70 -140 99 -85 31 -117 60 -116 106 2 88 30 119 74 84 15 -12 37
-22 49 -22 17 0 14 4 -14 21 -51 31 -79 59 -101 101 -25 48 -24 90 1 113 19
18 23 17 117 -28 54 -25 109 -47 123 -49 56 -7 29 20 -70 70 -58 29 -126 64
-151 78 l-46 26 -12 78 c-12 77 -8 130 10 130 5 0 34 -14 65 -31 47 -27 59
-30 80 -21 28 13 32 32 7 32 -33 0 -139 57 -166 89 -31 37 -34 76 -10 111 9
14 17 26 18 28 3 5 113 -36 191 -72 109 -50 59 -11 -78 60 -164 85 -203 145
-139 216 l28 31 31 -21 c57 -41 136 -72 182 -72 42 1 44 2 26 15 -11 8 -56 29
-100 45 -45 16 -106 42 -136 57 l-55 28 -8 64 c-6 51 -5 68 6 79 13 12 24 9
83 -27 83 -50 161 -76 199 -67 34 9 28 15 -36 37 -28 10 -102 49 -165 86
l-113 68 -1 73 c0 39 2 72 4 72 2 0 28 -11 58 -25 58 -27 93 -32 104 -13 10
16 -22 36 -98 59 -45 13 -73 27 -82 42 -20 32 -27 141 -11 164 13 17 15 17 42
-8 15 -15 44 -35 63 -44 71 -36 234 -104 238 -100 3 3 -15 24 -39 48 -36 36
-61 50 -139 76 -110 36 -163 68 -186 113 -15 29 -23 112 -12 123 3 3 90 -31
194 -75 104 -45 196 -84 203 -88 27 -11 -30 58 -68 83 -20 13 -83 40 -141 60
-57 21 -121 49 -142 62 -36 25 -78 92 -78 126 0 22 24 17 130 -25 41 -17 82
-33 90 -36 11 -4 11 0 -3 15 -10 12 -59 42 -108 69 -104 54 -139 90 -139 139
0 45 19 85 40 85 9 0 47 -16 83 -35 64 -34 120 -45 132 -26 3 6 -50 36 -117
69 -147 71 -183 103 -183 167 0 24 5 49 12 56 16 16 72 -4 149 -52 67 -42 111
-55 134 -39 20 13 13 18 -110 71 -179 78 -227 123 -217 201 8 56 17 62 60 32
73 -49 136 -75 175 -72 20 2 37 8 37 13 -1 6 -55 34 -120 63 -66 30 -135 65
-153 79 -48 36 -68 83 -56 130 8 35 12 38 42 36 18 0 63 -19 100 -41 85 -49
132 -67 132 -47 0 18 -57 65 -100 82 -126 52 -181 85 -197 118 -12 26 -14 42
-6 67 12 43 35 41 111 -11 31 -21 76 -48 99 -60 44 -22 107 -28 118 -11 3 5
-55 38 -128 73 -144 69 -214 122 -248 189 -30 58 -26 70 19 62 54 -10 92 -27
149 -68 57 -41 142 -81 151 -71 11 11 -22 58 -55 81 -18 12 -80 41 -137 64
-81 32 -114 51 -141 81 -19 21 -35 44 -35 49 0 23 72 8 145 -31 42 -22 78 -39
80 -37 2 2 -5 18 -17 36 -14 23 -42 43 -97 67 -146 68 -166 80 -169 108 -5 38
31 100 85 146 26 22 51 41 55 41 4 0 23 -31 43 -68 20 -38 51 -84 70 -102 33
-32 35 -33 35 -12 0 35 -24 82 -74 146 -25 32 -49 69 -52 82 -6 24 18 74 35
74 5 0 19 -30 31 -67 12 -38 31 -77 41 -88 18 -18 20 -18 35 -3 16 15 14 21
-25 78 -41 62 -50 93 -31 105 23 14 54 -10 95 -75 38 -60 79 -99 90 -88 9 8
-39 96 -78 142 -75 90 -72 79 -32 132 73 95 141 260 200 487 15 59 32 107 38
107 5 0 25 -14 44 -31 19 -16 40 -28 46 -26 27 9 14 39 -42 100 -67 71 -77
105 -42 148 18 22 19 22 45 6 14 -10 34 -34 45 -55 21 -41 58 -79 68 -69 16
17 -20 85 -72 137 -51 51 -87 121 -71 138 14 13 63 -29 117 -100 33 -42 64
-80 69 -83 33 -21 -20 88 -96 197 -30 42 -54 80 -54 83 0 4 14 23 31 44 67 85
95 268 85 564 l-6 188 21 -12 c12 -6 34 -39 50 -74 25 -56 65 -102 77 -90 10
10 -25 87 -74 160 -59 88 -69 129 -31 123 14 -2 34 -22 56 -55 18 -29 40 -53
48 -53 26 0 24 28 -7 76 -59 94 -104 281 -116 489 -7 112 6 256 26 310 11 28
12 29 25 12 7 -10 23 -57 34 -105 23 -89 43 -132 63 -132 19 0 1 94 -36 184
-35 84 -45 147 -27 175 8 12 13 12 33 -1 25 -16 31 -27 76 -130 32 -71 72
-108 72 -66 0 31 -37 107 -92 193 -48 74 -83 155 -76 176 6 18 51 -32 113
-126 88 -134 102 -142 175 -105 46 23 78 26 86 6 3 -8 -8 -47 -25 -87 -35 -83
-37 -97 -17 -125 14 -18 15 -17 29 16 8 19 23 73 32 120 9 47 24 97 31 112 15
29 61 65 70 55 16 -16 3 -81 -27 -133 l-32 -57 22 -19 c33 -26 41 -23 41 16 0
45 16 57 63 46 89 -20 123 -76 157 -260 35 -185 49 -208 149 -241 79 -26 110
-56 140 -136 12 -31 33 -72 47 -90 13 -17 24 -38 24 -45 0 -29 -32 -57 -83
-73 -59 -20 -87 -40 -87 -65 0 -25 36 -31 106 -20 111 18 119 22 122 61 5 67
11 81 35 77 13 -2 27 -15 35 -33 7 -16 16 -36 21 -44 10 -20 39 -37 47 -28 8
7 -102 360 -173 557 -25 69 -65 167 -88 218 -24 50 -41 92 -39 92 17 0 45 -25
84 -75 25 -31 57 -63 72 -71 25 -13 58 -10 58 5 0 4 -44 46 -98 93 -58 51
-106 100 -116 122 -35 73 -12 62 166 -81 143 -114 250 -176 256 -147 6 26 -34
60 -95 80 -54 19 -103 53 -103 73 0 13 88 -13 168 -49 56 -26 61 -27 52 -9
-15 27 -79 72 -174 122 -94 49 -167 116 -183 169 l-11 37 32 -16 c17 -9 72
-44 122 -79 116 -81 186 -114 244 -114 38 0 42 2 30 14 -8 8 -78 46 -156 85
-110 55 -151 82 -188 121 -82 88 -59 93 74 15 159 -93 213 -117 262 -113 43 3
42 4 -122 85 -165 81 -252 142 -263 184 -4 13 -2 19 6 15 7 -3 77 -32 157 -65
80 -33 184 -80 233 -105 48 -24 87 -41 87 -37 0 14 -71 81 -113 108 -22 14
-83 43 -136 65 -137 57 -223 104 -260 142 -30 31 -33 39 -37 118 -8 131 25
141 106 34 44 -58 67 -73 84 -56 8 8 -16 37 -86 103 -53 51 -104 106 -112 124
-17 34 -21 73 -8 73 11 0 89 -51 137 -90 76 -61 146 -85 184 -61 10 6 -2 20
-45 51 -116 85 -130 95 -178 140 -60 55 -106 117 -106 142 0 30 16 21 87 -53
86 -89 100 -97 120 -70 8 12 20 21 26 21 7 0 46 -20 88 -44 69 -41 94 -50 127
-47 35 3 -3 29 -160 107 -275 137 -333 194 -333 326 0 36 3 69 7 73 13 13 50
-8 148 -81 103 -78 135 -94 178 -94 l27 1 -28 24 c-15 14 -83 57 -150 96 -209
122 -317 219 -317 282 0 18 5 19 45 14 24 -4 85 -27 135 -52 129 -65 218 -61
114 5 -52 33 -120 56 -274 96 -135 34 -239 83 -279 131 -17 21 -31 42 -31 46
0 13 59 0 198 -44 82 -26 141 -39 179 -39 55 0 56 0 38 20 -24 26 -89 46 -215
66 -129 19 -183 42 -210 86 -38 63 -32 67 73 46 117 -23 291 -33 337 -20 l35
9 -30 13 c-16 7 -109 18 -206 25 -201 15 -247 30 -276 90 -9 19 -15 37 -12 39
7 7 412 -28 444 -39 14 -5 11 2 -12 23 -43 41 -82 51 -248 62 -77 6 -163 17
-190 25 -52 15 -98 53 -110 93 -5 19 -3 22 22 23 56 2 100 -2 175 -17 43 -8
95 -14 115 -12 l38 3 -26 26 c-34 35 -103 49 -242 49 -62 0 -127 4 -146 10
-41 12 -81 47 -81 72 0 16 9 18 72 18 40 0 120 -5 179 -12 75 -8 114 -9 131
-1 23 10 23 10 -11 28 -25 13 -74 19 -185 26 -194 11 -219 15 -269 42 l-42 22
40 3 c22 1 70 9 108 18 62 15 107 14 155 -3 10 -3 2 10 -17 30 -18 19 -83 62
-144 94 -60 32 -129 76 -152 99 -39 37 -85 127 -72 140 7 8 56 -19 180 -98
125 -80 221 -128 257 -128 19 0 11 7 -35 31 -159 82 -306 214 -353 318 -49
106 -29 195 62 279 36 33 53 42 81 42 96 0 168 -89 234 -292 13 -37 27 -70 32
-73 14 -9 11 13 -11 90 -24 85 -24 87 -2 115 16 20 22 21 58 11 55 -15 76 -43
102 -136 32 -111 109 -264 189 -370 38 -49 130 -154 206 -232 137 -140 138
-142 158 -215 11 -40 38 -125 60 -188 22 -63 46 -141 54 -173 l13 -57 -44 -42
c-35 -33 -44 -48 -44 -75 l0 -33 43 6 c23 3 93 30 155 60 63 30 117 54 121 54
5 0 21 -28 35 -62 26 -61 60 -108 78 -108 15 0 -29 95 -80 174 -55 84 -68 125
-32 106 11 -6 38 -37 60 -70 40 -60 65 -74 76 -45 4 10 -11 34 -40 65 -132
141 -177 287 -110 361 15 17 19 15 88 -36 39 -30 88 -61 109 -70 43 -18 119
-20 150 -4 19 11 14 14 -44 31 -174 52 -277 110 -337 188 -18 23 -31 45 -28
47 3 3 59 -25 126 -62 66 -37 149 -78 184 -91 68 -25 166 -45 166 -35 0 15
-114 73 -237 121 -161 62 -293 144 -270 167 13 12 121 -18 210 -59 97 -44 196
-61 233 -40 17 9 14 13 -26 30 -25 10 -121 42 -215 71 -185 57 -303 112 -355
166 l-33 34 27 11 c43 16 138 12 197 -9 30 -10 95 -37 145 -60 110 -49 157
-61 148 -38 -8 22 -64 63 -110 81 -22 9 -86 30 -144 47 -121 35 -179 66 -211
110 -22 31 -22 32 -4 45 27 20 83 17 161 -7 79 -25 147 -30 165 -12 20 20 -60
49 -170 62 -94 12 -136 26 -161 56 -15 18 -9 26 33 41 17 6 32 15 33 20 2 5
-28 30 -65 56 -44 30 -115 98 -196 188 -171 189 -258 249 -406 281 -63 14 -59
30 12 47 30 8 60 18 67 24 18 16 15 30 -7 23 -10 -3 -30 -1 -45 4 -21 9 -26
17 -26 44 l0 34 83 5 c129 9 171 39 105 75 l-33 18 96 6 c156 11 189 29 189
103 0 35 -1 35 -32 28 -18 -4 -89 -7 -158 -7 -110 1 -134 4 -205 29 -44 15
-115 48 -158 74 -84 50 -257 188 -257 204 0 7 27 9 73 6 61 -4 90 -13 191 -62
128 -60 202 -86 249 -86 30 0 30 0 11 21 -29 33 -103 66 -221 100 -192 55
-259 92 -293 160 l-21 40 28 -7 c15 -3 98 -39 183 -80 105 -50 175 -77 215
-83 33 -5 62 -7 64 -5 9 8 -25 37 -71 60 -27 13 -96 40 -154 59 -110 36 -157
60 -188 94 -18 19 -18 21 0 52 33 56 40 56 158 -2 96 -48 116 -54 172 -54 106
0 100 18 -18 55 -56 17 -140 49 -185 70 l-83 39 0 48 c0 73 11 83 57 55 21
-12 76 -42 123 -65 68 -34 97 -42 152 -45 117 -7 114 6 -13 48 -170 56 -259
108 -259 151 0 19 1 19 48 0 26 -11 81 -33 122 -49 96 -39 138 -46 175 -32
l30 12 -25 13 c-14 7 -77 27 -140 44 -63 18 -132 43 -152 56 -38 25 -62 58
-51 69 15 15 90 3 193 -31 60 -20 113 -34 116 -30 11 10 -7 47 -30 62 -12 8
-57 20 -99 26 -83 12 -127 37 -127 70 0 17 8 19 76 19 99 0 227 -27 451 -94
178 -54 342 -91 366 -83 18 6 -64 56 -117 72 -25 8 -96 23 -158 34 -152 27
-207 45 -259 83 l-44 32 73 12 c92 16 150 44 280 138 57 41 126 85 153 98 49
23 50 23 44 62 -18 123 -127 240 -262 281 -38 11 -28 -23 22 -72 29 -28 45
-53 45 -68 0 -29 -85 -145 -106 -145 -8 0 -24 20 -34 44 -34 76 -68 87 -134
42 -21 -14 -98 -44 -170 -67 -157 -49 -204 -74 -251 -136 l-35 -46 0 61 c0 33
-3 67 -6 76 -10 26 -24 8 -24 -30 0 -66 -58 -99 -165 -92 l-50 3 -45 90 c-60
118 -111 262 -151 425 l-33 130 21 28 c11 15 46 45 77 68 32 22 62 48 68 57
18 33 -45 19 -111 -23 -73 -47 -104 -51 -128 -14 -16 26 -16 27 5 44 12 10 38
21 59 24 83 15 121 46 72 59 -20 5 -95 -11 -150 -32 -26 -9 -27 -8 -63 73 -21
46 -66 136 -102 202 -35 65 -64 119 -64 119 0 0 93 -2 207 -3 238 -4 359 7
756 68 362 56 490 70 657 70 239 0 421 -41 598 -135 71 -38 86 -43 103 -32 16
10 19 23 19 85 l0 72 -67 44 c-200 129 -373 182 -623 193 -244 10 -383 -14
-815 -141 -394 -115 -521 -104 -770 69 -132 92 -188 117 -269 123 l-69 5 -203
153 c-318 240 -466 302 -739 311 -115 4 -144 2 -161 -10z m1692 -5649 c14 -27
16 -50 10 -143 -18 -301 -18 -332 -8 -339 14 -8 40 63 52 142 5 37 10 116 10
175 0 117 7 127 41 53 24 -53 24 -116 -2 -273 -22 -135 -21 -211 4 -259 14
-26 15 -23 37 92 24 126 30 252 17 321 -8 37 -6 42 13 48 35 11 49 -13 69
-118 10 -54 20 -99 22 -102 3 -2 11 0 19 5 11 7 14 28 12 93 -2 63 1 87 11 96
24 20 83 -59 114 -154 26 -76 27 -89 27 -280 0 -189 -2 -205 -27 -288 -32
-105 -47 -135 -89 -182 -53 -61 -63 -61 -83 -7 -10 26 -66 148 -125 272 -156
326 -200 463 -200 623 0 92 35 257 54 257 3 0 13 -14 22 -32z m-2952 -86 c45
-90 59 -164 53 -297 -6 -133 -13 -165 -94 -410 -30 -93 -68 -219 -83 -280 -15
-60 -33 -111 -39 -113 -20 -7 -116 103 -148 169 -49 99 -91 289 -64 289 22 0
69 -29 92 -57 16 -20 20 -22 15 -8 -69 192 -93 369 -62 461 16 48 69 124 86
124 5 0 16 -24 26 -52 13 -39 18 -89 19 -183 1 -71 5 -145 10 -164 l7 -35 14
25 c23 43 27 105 10 209 -25 156 -19 260 14 260 5 0 17 -15 27 -32 13 -25 19
-70 24 -180 5 -117 10 -153 25 -179 47 -80 63 5 41 218 -18 167 -21 241 -11
267 9 23 11 21 38 -32z m3146 -982 c51 -102 62 -206 26 -256 -13 -17 -15 -15
-33 22 -11 21 -30 68 -41 104 -20 61 -102 365 -102 378 0 10 119 -187 150
-248z m-136 10 c43 -84 67 -158 115 -360 22 -91 50 -195 64 -232 30 -83 20
-80 -74 19 -148 157 -229 336 -229 508 0 57 19 148 35 176 11 17 47 -28 89
-111z m-3320 -51 c73 -67 108 -138 113 -232 3 -40 1 -90 -4 -111 l-9 -39 -37
33 c-80 70 -128 167 -141 287 -7 62 -1 113 14 113 5 0 33 -23 64 -51z m3706
-16 c0 -33 -43 -160 -61 -178 -16 -16 -43 21 -42 57 1 18 18 69 38 112 34 74
39 78 51 61 8 -10 14 -34 14 -52z m-3763 -245 c11 -13 26 -38 33 -56 18 -46
48 -82 78 -93 24 -9 25 -11 16 -77 -4 -37 -8 -100 -8 -140 -1 -39 -4 -72 -8
-72 -23 0 -78 77 -111 157 -21 50 -47 99 -58 109 -23 21 -25 77 -4 114 8 14
14 37 15 53 0 33 19 35 47 5z m3661 -13 c2 -16 -1 -47 -8 -69 -6 -21 -12 -58
-12 -82 0 -52 -12 -56 -57 -19 -81 69 -54 211 39 203 31 -3 35 -7 38 -33z
m127 -67 c4 -29 5 -71 3 -93 l-3 -40 -21 23 c-26 28 -34 64 -34 151 l1 66 24
-27 c15 -18 26 -46 30 -80z m-51 -133 c9 -14 19 -45 23 -70 5 -37 3 -45 -10
-45 -9 0 -25 -13 -37 -30 -14 -20 -30 -30 -47 -30 -25 0 -25 2 -20 44 8 56 48
156 63 156 7 0 19 -11 28 -25z"/>
</g>
</svg>
