<?xml version="1.0" standalone="no"?>
<!DOCTYPE svg PUBLIC "-//W3C//DTD SVG 20010904//EN"
 "http://www.w3.org/TR/2001/REC-SVG-20010904/DTD/svg10.dtd">
<svg version="1.0" xmlns="http://www.w3.org/2000/svg"
 width="2470.000000pt" height="1074.000000pt" viewBox="0 0 2470.000000 1074.000000"
 preserveAspectRatio="xMidYMid meet">
<metadata>
Created by potrace 1.16, written by Peter Selinger 2001-2019
</metadata>
<g transform="translate(0.000000,1074.000000) scale(0.100000,-0.100000)"
fill="#000000" stroke="none">
<path d="M1321 10723 c-66 -33 -117 -148 -147 -330 -30 -188 -120 -486 -188
-622 -18 -36 -58 -131 -87 -211 -30 -80 -94 -226 -143 -325 -146 -296 -151
-312 -197 -647 -73 -536 -72 -530 -186 -788 -55 -124 -122 -277 -148 -340 -43
-105 -54 -121 -121 -189 -59 -58 -77 -85 -89 -124 -45 -153 14 -271 156 -311
48 -13 62 -21 70 -44 17 -46 49 -71 105 -83 89 -20 452 3 718 46 l218 35 128
85 c71 47 175 108 232 134 57 27 164 88 238 136 177 114 358 203 435 215 176
27 882 53 1125 41 47 -2 142 1 212 8 134 12 407 4 715 -23 146 -12 151 -14
204 -49 100 -67 154 -122 194 -199 49 -95 128 -227 181 -303 50 -72 92 -112
334 -326 241 -212 364 -337 420 -426 25 -40 100 -152 168 -250 68 -97 141
-213 162 -257 l39 -81 21 -530 c19 -511 21 -537 55 -733 48 -282 70 -369 128
-507 72 -174 88 -239 77 -317 -29 -205 -144 -637 -218 -818 l-38 -95 -60 -6
c-32 -4 -93 -7 -134 -8 -159 -3 -242 -41 -344 -161 -79 -92 -96 -122 -96 -170
0 -35 9 -38 125 -43 57 -3 100 -12 150 -31 41 -16 99 -30 140 -33 64 -5 78 -3
142 26 86 38 115 38 223 6 141 -42 222 -31 326 46 38 28 58 52 75 91 50 112
86 173 111 186 49 23 126 32 173 20 37 -10 56 -9 117 6 130 33 149 34 241 22
127 -18 152 -10 202 59 43 60 51 65 92 53 92 -25 116 18 117 206 l1 129 55 29
c58 29 96 67 135 133 15 25 56 170 110 380 83 327 93 360 274 850 104 281 203
562 221 625 21 78 53 159 99 250 38 74 94 191 126 260 64 140 95 179 168 210
l51 22 240 -17 c289 -20 302 -22 299 -56 -1 -13 -5 -54 -9 -90 -4 -37 -4 -77
0 -90 3 -13 49 -69 101 -124 129 -135 206 -237 448 -593 195 -287 206 -301
209 -268 3 34 7 29 92 -110 48 -80 102 -161 118 -180 16 -18 173 -153 348
-299 l318 -266 118 -166 c65 -92 131 -190 146 -219 32 -58 88 -206 88 -230 0
-8 -58 -77 -128 -152 -70 -75 -156 -171 -191 -212 -188 -221 -368 -405 -461
-470 l-35 -25 -290 0 -290 -1 -163 -83 c-156 -78 -165 -85 -182 -124 -10 -23
-21 -62 -25 -86 l-7 -44 61 7 c53 6 64 4 90 -15 16 -12 36 -40 45 -63 l16 -42
83 11 83 11 112 -47 112 -47 234 -7 c128 -4 264 -4 300 0 65 6 71 10 199 105
73 54 170 117 217 140 47 23 196 101 332 172 l248 130 218 213 c205 201 222
220 277 317 77 136 148 241 205 304 28 31 59 81 78 127 32 78 102 297 102 323
0 8 -46 105 -101 217 -106 211 -193 423 -275 667 l-49 145 -1 272 -2 272 -45
83 c-24 46 -50 100 -57 121 -11 35 -10 40 11 63 13 14 38 34 57 46 l33 20 127
-21 c178 -29 193 -34 244 -89 66 -70 94 -125 128 -252 39 -147 90 -276 101
-258 5 7 11 32 15 56 3 23 10 44 14 47 4 2 18 -16 32 -42 l26 -46 7 32 c4 18
10 31 13 29 4 -2 45 -28 92 -59 47 -30 119 -76 161 -102 88 -54 350 -256 424
-326 148 -142 364 -243 885 -416 293 -97 356 -124 370 -159 11 -30 70 -387
115 -698 l36 -248 -16 -132 c-31 -265 -67 -522 -76 -545 -14 -38 -67 -64 -115
-57 -39 6 -47 2 -169 -83 -205 -141 -246 -187 -295 -327 l-19 -55 52 21 c81
32 80 32 114 -10 23 -28 60 -53 125 -85 l94 -46 234 -11 c129 -5 254 -13 276
-16 59 -8 148 13 185 43 16 14 38 42 49 62 10 20 43 63 72 96 30 33 67 79 81
102 23 37 32 43 83 53 74 16 110 50 118 111 3 24 15 305 26 624 16 434 19 668
15 930 -5 272 -3 365 7 418 l13 68 148 -131 c82 -72 153 -128 158 -125 5 4 9
16 9 28 0 18 2 19 14 7 7 -8 70 -98 139 -200 125 -186 232 -365 408 -689 l94
-173 7 57 c4 32 9 60 11 61 2 2 18 -16 36 -41 33 -46 51 -51 51 -12 1 55 15
48 181 -87 102 -83 235 -206 354 -327 650 -662 616 -629 642 -611 13 10 21 24
19 34 -2 10 19 -1 58 -31 140 -109 488 -327 586 -367 30 -12 240 -87 465 -167
341 -121 442 -152 598 -186 241 -53 765 -150 1022 -191 110 -17 328 -53 485
-80 252 -44 322 -52 605 -70 654 -41 838 -62 1065 -120 85 -21 319 -78 520
-125 481 -113 637 -154 685 -178 22 -12 121 -55 220 -98 135 -57 182 -74 187
-64 16 28 31 152 24 199 -7 41 -17 59 -64 109 -127 133 -445 403 -592 502
-160 108 -176 120 -145 112 11 -3 37 -8 57 -12 36 -6 38 -4 53 32 34 81 39 74
-101 153 -70 40 -182 107 -248 148 -67 42 -159 96 -206 120 -79 41 -84 46 -82
72 3 26 -1 30 -35 39 -50 14 -409 14 -529 0 -123 -15 -309 0 -607 47 -328 52
-575 82 -731 90 l-139 7 -286 150 -286 150 -169 165 c-158 153 -185 175 -385
307 -119 78 -281 181 -361 229 -80 47 -160 96 -178 108 -19 12 -116 112 -215
222 -100 110 -223 245 -274 301 -50 55 -90 101 -88 103 1 1 28 -1 59 -6 55 -9
58 -8 67 15 5 13 9 27 9 31 -1 4 -82 52 -181 107 -339 187 -544 335 -790 570
-90 86 -233 216 -317 288 -146 126 -180 163 -715 787 -309 360 -661 765 -782
900 -328 366 -643 724 -707 804 -31 39 -103 148 -159 241 -125 209 -202 324
-282 424 -82 103 -222 318 -351 541 -154 263 -229 368 -629 870 -303 380 -450
536 -687 729 -271 222 -709 511 -955 631 -264 130 -695 291 -860 322 -106 20
-721 17 -1080 -5 -502 -30 -516 -32 -775 -98 -275 -70 -390 -83 -850 -99 -609
-20 -895 -23 -1006 -11 -60 6 -206 20 -324 31 -118 11 -286 33 -374 50 -145
28 -475 76 -701 102 -136 15 -712 2 -829 -19 -79 -15 -172 -17 -701 -18 l-610
0 -325 38 c-179 21 -388 47 -465 59 -127 20 -179 22 -550 23 -383 0 -419 -2
-543 -23 -73 -12 -221 -29 -330 -37 -108 -8 -249 -22 -312 -30 -64 -8 -127
-15 -140 -14 -14 1 -63 -16 -110 -38 -123 -58 -130 -60 -130 -29 0 44 -19 76
-78 135 -45 45 -71 62 -121 79 -77 26 -86 26 -130 5z m5866 -7025 c-6 -327 -8
-361 -31 -467 -41 -185 -85 -312 -119 -343 -22 -21 -135 -68 -163 -68 -6 0 0
23 113 425 83 291 193 748 193 797 0 5 3 8 6 8 4 0 4 -159 1 -352z"/>
</g>
</svg>
