<?xml version="1.0" encoding="UTF-8" standalone="no"?>
<!-- Created with Inkscape (http://www.inkscape.org/) -->

<svg
   xmlns:svg="http://www.w3.org/2000/svg"
   xmlns="http://www.w3.org/2000/svg"
   version="1.1"
   width="440.94202mm"
   height="257.31726mm"
   viewBox="0 0 440.94202 257.31726"
   id="svg8">
  <defs
     id="defs2" />
  <g
     transform="translate(179.52321,1.697474)"
     id="layer1">
    <path
       d="m 87.162413,255.12519 c 0,-0.85188 2.226624,-3.45879 3.527778,-4.13029 1.65627,-0.85477 9.419279,-2.02514 13.632409,-2.05526 2.93952,-0.021 7.17037,-0.9383 9.78482,-2.12145 3.21984,-1.45711 9.16367,-6.46748 9.88643,-8.3338 0.81308,-2.09956 -1.62856,-15.33894 -4.97104,-26.95468 -0.83184,-2.8908 -0.95196,-3.07997 -3.34104,-5.26143 -1.86994,-1.70743 -3.48292,-3.78546 -6.57187,-8.46666 -3.72212,-5.64074 -4.24338,-6.63614 -5.74271,-10.96635 -0.90696,-2.61938 -2.09088,-6.50875 -2.63094,-8.64306 -0.54006,-2.1343 -1.156045,-4.06393 -1.368854,-4.28806 -0.21281,-0.22413 -2.768177,-1.31685 -5.678594,-2.42827 -2.910417,-1.11142 -7.130553,-2.87273 -9.378075,-3.91402 -2.247526,-1.04129 -4.192214,-1.89326 -4.321528,-1.89326 -0.129318,0 -0.23512,1.5036 -0.23512,3.34133 0,2.74728 -0.147743,3.6724 -0.83101,5.20348 -0.457055,1.02417 -1.134085,2.13076 -1.504516,2.45908 -0.86167,0.76371 -3.716764,1.42931 -4.173223,0.97289 -0.21166,-0.21164 -0.124146,-0.33511 0.237514,-0.33511 0.620755,0 2.743458,-1.641 2.743458,-2.12089 0,-0.16185 -0.47625,-0.77053 -1.058333,-1.35261 -0.582084,-0.58209 -1.058334,-1.38805 -1.058334,-1.79103 0,-0.40298 -0.175591,-0.73269 -0.390207,-0.73269 -0.866737,0 -3.102215,2.21434 -4.035993,3.99784 l -0.993169,1.89692 0.475665,3.59385 c 0.386112,2.91724 0.394074,4.21747 0.0423,6.90624 -0.366829,2.80382 -0.355216,3.46505 0.07564,4.30669 0.93019,1.81704 1.05894,3.8401 0.381469,5.99396 l -0.627038,1.99351 1.151869,0.96163 c 0.633529,0.52889 2.012707,1.23239 3.064835,1.56332 1.959687,0.6164 2.338878,1.00266 1.354945,1.38024 -1.584336,0.60796 -4.862506,-0.13432 -6.853125,-1.55176 -0.557988,-0.39733 -1.4934,-1.55939 -2.078686,-2.58237 -1.234412,-2.15752 -2.098111,-3.20034 -2.894623,-3.49491 -0.311521,-0.11521 -1.049211,-1.06496 -1.639313,-2.11056 -0.590098,-1.0456 -1.80468,-2.65402 -2.699064,-3.57428 -0.894383,-0.92026 -1.88862,-2.07376 -2.209412,-2.56335 -0.451651,-0.68931 -0.777163,-0.8415 -1.442586,-0.67449 -0.472631,0.11862 -1.061403,0.048 -1.308386,-0.15701 -0.337213,-0.27987 -0.768135,0.0167 -1.730146,1.19071 -0.704596,0.85986 -1.281084,1.80231 -1.281084,2.09431 0,0.81297 1.619631,2.55638 2.847294,3.06489 1.633778,0.67673 0.453493,1.20401 -1.511011,0.67502 -3.740809,-1.00729 -5.771614,-6.0494 -4.338514,-10.7717 0.799208,-2.63351 0.07996,-6.60684 -0.912364,-5.04015 -0.480085,0.75796 -0.37319,2.35619 0.236442,3.53508 0.305347,0.59048 0.46905,1.15973 0.363784,1.26499 -0.39177,0.39177 -2.053403,-1.05849 -2.535932,-2.21334 -0.670892,-1.60568 -0.653983,-4.53196 0.02946,-5.09917 0.291042,-0.24155 0.529167,-0.82704 0.529167,-1.30111 0,-0.98818 0.508779,-2.08907 1.439372,-3.11451 0.954613,-1.05189 2.441194,-3.98108 2.441194,-4.81015 0,-1.60225 1.074236,-2.96807 3.562382,-4.52931 1.374983,-0.86277 3.779259,-2.76814 5.342841,-4.23416 l 2.842874,-2.66548 -3.316408,-2.08079 C 44.686553,145.1279 32.229151,133.85635 19.007173,118.34038 13.597763,111.99245 9.8680494,106.05457 5.5255134,96.876944 c -6.24914102,-13.20708 -7.365983,-15.29125 -9.186309,-17.14286 -1.166492,-1.18653 -2.389534,-2.02858 -3.544846,-2.44057 -0.970138,-0.34596 -3.7482644,-1.5358 -6.1736114,-2.64409 -2.425347,-1.10828 -5.46674,-2.44591 -6.758647,-2.9725 -3.566531,-1.45375 -7.41184,-4.16072 -11.510085,-8.102718 -4.002253,-3.849669 -6.976383,-7.576576 -11.992393,-15.02781 -5.67614,-8.431843 -10.41676,-13.482833 -13.58056,-14.469694 -4.72294,-1.473193 -18.6803,0.564811 -27.06665,3.95218 -6.89755,2.786016 -12.53713,4.223564 -19.206072,4.895694 -5.22886,0.526994 -18.92147,0.2569 -28.06616,-0.553617 -9.35983,-0.829586 -21.88616,-0.878392 -25.75278,-0.100341 -1.64923,0.331865 -5.28305,1.012162 -8.07515,1.511773 -2.7921,0.49961 -5.9671,1.244053 -7.05556,1.654312 -1.08845,0.410263 -2.82066,0.783279 -3.84934,0.828929 -1.02868,0.04565 -1.96795,0.180622 -2.08727,0.299939 -0.11931,0.119316 -0.4286,0.216937 -0.68731,0.216937 -0.71975,0 -0.56702,-1.669472 0.31415,-3.433837 1.56815,-3.139923 4.74338,-4.834868 15.09048,-8.055327 18.85678,-5.869039 26.09461,-8.633871 30.24898,-11.555041 3.04408,-2.140457 7.44775,-5.516456 7.67471,-5.88369 0.12269,-0.198519 1.19749,-1.008169 2.38844,-1.79922 6.11954,-4.064705 13.57292,-6.4990972 22.48232,-7.3430832 2.911332,-0.275787 4.439962,-0.718297 11.641672,-3.370054 9.285,-3.41885 16.15651,-5.65111803 19.0382,-6.18471903 7.91045,-1.46476897 14.87786,-1.04858997 21.04273,1.256926 5.28427,1.97619403 9.00393,3.78498003 12.03466,5.85218403 3.65529,2.493207 10.619393,9.5393892 15.642843,15.8272222 2.24512,2.81021 5.556528,6.485325 7.358687,8.166917 2.966424,2.767979 3.565243,3.160494 6.3249034,4.145862 4.973423,1.775816 11.118777,1.825272 20.6871466,0.16649 11.736695,-2.034688 25.326747,-0.811572 37.941513,3.414762 3.676092,1.231603 14.936104,6.279246 19.236003,8.623122 3.8885,2.119623 9.694171,5.97457 12.419316,8.246385 1.218949,1.016176 4.791502,3.318598 7.939003,5.116494 16.156193,9.228633 25.014893,15.475983 34.961253,24.655403 5.34357,4.93155 12.27076,12.59602 16.33039,18.068476 2.0151,2.71638 5.04765,6.75762 6.739,8.98051 1.69136,2.2229 4.17124,5.63602 5.51084,7.58473 1.33961,1.94869 4.53939,6.47996 7.11064,10.06948 4.53749,6.33442 7.76116,11.17894 10.09422,15.16944 1.10949,1.89776 11.51121,12.67721 13.34421,13.82883 0.48507,0.30475 1.76833,1.32637 2.85168,2.27027 1.08335,0.9439 3.76569,3.2243 5.96075,5.06756 2.19505,1.84327 5.83307,4.91623 8.08443,6.82882 2.25139,1.91259 6.86805,5.56035 10.2593,8.10615 3.39122,2.54579 6.40825,4.87109 6.70448,5.16733 0.82419,0.8242 6.47121,4.98375 14.46992,10.65846 6.40764,4.54592 12.98384,8.86512 22.04861,14.48133 3.72082,2.3053 6.48899,4.53785 6.5097,5.25013 0.0335,1.15815 -0.89955,1.46232 -3.68557,1.20125 -1.45627,-0.13646 -2.64774,-0.14476 -2.64774,-0.0185 0,0.12632 0.17141,0.54995 0.38089,0.94139 0.30082,0.56205 0.24518,0.86215 -0.26458,1.42717 -0.91863,1.01821 -3.4386,0.68562 -6.95131,-0.91746 -3.18065,-1.45152 -3.34793,-1.49311 -2.61567,-0.65044 0.77667,0.8938 1.06239,2.45754 0.60515,3.31193 -0.36664,0.68506 -0.6218,0.72765 -3.44812,0.57543 -2.55171,-0.13741 -3.49825,-0.37129 -5.77243,-1.42624 -2.66171,-1.23473 -6.33935,-3.8095 -10.79359,-7.55671 -1.96525,-1.65331 -2.41014,-1.87177 -3.81169,-1.87177 -2.10344,0 -6.09953,-1.71558 -8.72095,-3.74402 -2.4457,-1.89244 -3.0577,-2.17701 -3.0577,-1.42172 0,0.3048 -0.59249,0.95679 -1.3166,1.44885 -1.63665,1.11212 -3.4749,1.16099 -5.48842,0.14591 -1.67618,-0.845 -5.78047,-4.93283 -9.69701,-9.65819 -1.44738,-1.74625 -2.76193,-3.31623 -2.92128,-3.48885 -0.1639,-0.1776 -0.77012,0.0904 -1.39637,0.61736 -1.40356,1.18102 -1.88238,1.16788 -4.43579,-0.1218 -3.04955,-1.54028 -6.5399,-4.28953 -10.64384,-8.38379 -1.99347,-1.98879 -3.88189,-3.61597 -4.1965,-3.61597 -0.31461,0 -1.34599,-0.47625 -2.292,-1.05834 -0.94601,-0.58208 -2.20002,-1.05833 -2.78672,-1.05833 -0.58667,0 -3.32272,-0.46198 -6.08011,-1.02662 -2.75737,-0.56464 -8.18659,-1.4518 -12.06491,-1.97146 -3.87832,-0.51965 -7.19736,-1.03498 -7.37564,-1.14516 -0.19259,-0.11903 -0.22418,0.50214 -0.0778,1.53048 0.45074,3.16717 0.50547,5.59455 0.16232,7.19887 -0.18676,0.87312 -0.33191,1.94469 -0.32255,2.38125 0.0181,0.84399 -0.52892,1.09251 -0.77649,0.35278 -0.0812,-0.24254 -0.0737,0.0353 0.0166,0.61736 0.0903,0.58208 0.38321,1.48701 0.65088,2.01095 0.26767,0.52394 0.48668,1.13371 0.48668,1.35503 0,0.22133 0.56259,1.05968 1.25022,1.86301 1.14997,1.34349 1.2013,1.49636 0.64024,1.90661 -0.5546,0.40554 -0.47488,0.56165 0.87829,1.71991 1.17844,1.00871 1.43917,1.43129 1.25248,2.03002 -0.12968,0.41588 -0.38064,0.84952 -0.5577,0.96366 -0.17706,0.11414 -0.0807,0.40772 0.2141,0.6524 0.47069,0.39063 0.47306,0.50784 0.0194,0.96149 -0.28414,0.28414 -0.71628,0.4062 -0.9603,0.27123 -0.24402,-0.13496 0.11195,0.24534 0.79104,0.84512 0.6791,0.59978 1.0548,1.09696 0.8349,1.10484 -0.35376,0.0127 -0.8154,0.94253 -0.9704,1.95462 -0.0297,0.19402 0.66331,0.93175 1.54004,1.63938 0.87674,0.70763 1.97412,1.80369 2.43863,2.43568 l 0.84455,1.14907 -0.84455,-0.25388 c -0.46451,-0.13963 -1.12237,-0.34139 -1.46192,-0.44835 -0.33954,-0.10696 -0.61736,-0.0172 -0.61736,0.19945 0,0.21666 -0.27781,0.39745 -0.61736,0.40177 -0.50033,0.006 -0.45017,0.13862 0.26459,0.69771 0.48507,0.37942 0.73828,0.69339 0.56268,0.69771 -0.17559,0.004 -0.0319,0.32534 0.31926,0.7134 0.76495,0.84526 0.64666,0.86604 -1.00392,0.17639 -1.71782,-0.71775 -2.24083,-0.68844 -1.57386,0.0882 1.52908,1.7805 1.20882,1.8165 -1.12639,0.12662 l -1.23472,-0.89352 0.86237,0.9643 c 0.7545,0.84368 1.26615,2.00746 0.88258,2.00746 -0.0731,0 -0.73017,-0.51593 -1.46017,-1.14652 l -1.32728,-1.14653 1.27978,1.5875 c 1.05565,1.30948 1.33863,1.71103 1.18448,2.4483 -0.56979,0.0197 -1.07311,-0.1763 -1.98642,-0.9448 l -1.13515,-0.95517 0.18025,0.94288 c 0.13119,0.6863 0.43717,1.21958 0.085,1.29304 -0.35219,0.0735 -1.36257,-0.31293 -1.9743,-0.899 -0.70344,-0.71538 -1.20782,-0.63782 -1.73215,-1.22879 l -0.73126,-0.83283 0.61961,1.12734 c 0.66232,0.86807 1.51146,1.43298 1.28908,2.64022 -1.53744,0.0491 -1.87151,-1.47162 -2.81775,-2.04274 -0.0834,0.0834 0.23777,1.11581 0.71374,2.2942 0.28442,1.35873 0.46777,1.3832 0.0123,2.63865 -0.2452,0.6999 -0.43051,0.79018 -1.10297,0.53737 -0.44454,-0.16713 -1.0212,-0.81032 -1.28146,-1.42931 l -0.47322,-1.12544 -0.24397,1.11083 c -0.13419,0.61096 -0.11812,1.31314 0.0357,1.56041 0.15382,0.24727 0.29896,2.07031 0.32253,4.05119 0.0395,3.31952 0.12071,3.72018 1.03674,5.11528 1.50301,2.28908 6.04715,6.4764 7.53358,6.94203 1.77666,0.55655 4.01916,2.17763 4.55782,3.2948 0.66088,1.37063 0.18,3.66229 -1.06635,5.0818 -1.11592,1.27096 -2.03652,1.29345 -1.15023,0.0281 0.59461,-0.84892 0.69571,-2.62252 0.19465,-3.41476 -0.28497,-0.45059 -0.55641,-0.4355 -2.09083,0.11627 -1.442,0.51853 -2.33025,0.58974 -4.8742,0.39073 l -3.11086,-0.24336 -0.63587,2.06736 c -0.83891,2.72748 -2.58672,6.24419 -3.5358,7.11428 -0.84652,0.77606 -3.91913,1.04611 -15.18795,1.33486 -5.13529,0.13159 -6.02584,0.23774 -6.42698,0.76604 -0.433,0.57027 -0.46645,0.57124 -0.47688,0.0138 -0.01,-0.52907 -0.48882,-0.59888 -4.07882,-0.59456 -4.066059,0.005 -7.734549,-0.50248 -8.117906,-1.12277 -0.587061,-0.94988 -5.338586,0.1977 -6.471719,1.56304 -0.58988,0.71076 -1.098335,0.74577 -1.098335,0.0756 z"
       id="path826"
       style="fill:#000000;stroke-width:0.35277778" />
  </g>
</svg>
