<?xml version="1.0" standalone="no"?>
<!DOCTYPE svg PUBLIC "-//W3C//DTD SVG 20010904//EN"
 "http://www.w3.org/TR/2001/REC-SVG-20010904/DTD/svg10.dtd">
<svg version="1.0" xmlns="http://www.w3.org/2000/svg"
 width="1536.000000pt" height="813.000000pt" viewBox="0 0 1536.000000 813.000000"
 preserveAspectRatio="xMidYMid meet">
<metadata>
Created by potrace 1.16, written by Peter Selinger 2001-2019
</metadata>
<g transform="translate(0.000000,813.000000) scale(0.100000,-0.100000)"
fill="#000000" stroke="none">
<path d="M4515 8065 c47 -411 270 -819 642 -1175 253 -241 415 -360 1215 -885
311 -204 391 -262 410 -299 24 -47 79 -91 190 -154 51 -29 104 -61 118 -72
l25 -19 -37 -16 c-69 -28 -140 -38 -243 -32 -253 14 -515 123 -1195 497 -405
223 -616 333 -910 475 -135 65 -499 245 -810 399 -1355 675 -1731 807 -2415
846 -422 24 -810 -37 -1056 -166 -216 -113 -369 -334 -431 -619 -20 -93 -17
-350 6 -470 95 -511 459 -1148 935 -1637 99 -103 106 -108 146 -108 28 0 55 9
88 30 58 37 87 44 134 35 l37 -7 -32 -25 c-37 -29 -62 -71 -62 -106 0 -76 170
-145 469 -192 95 -14 689 -85 718 -85 67 0 -93 -64 -537 -215 -572 -195 -801
-296 -1017 -449 -65 -46 -75 -58 -107 -126 -127 -272 -103 -593 68 -893 65
-114 147 -223 239 -320 80 -84 83 -86 139 -92 66 -8 117 5 168 44 77 59 102
72 150 80 27 4 50 7 50 5 0 -1 -19 -14 -42 -28 -88 -53 -148 -127 -148 -181 0
-28 6 -35 36 -50 34 -16 39 -16 80 0 26 10 86 55 151 113 115 103 160 135 207
146 28 7 27 5 -24 -54 -51 -59 -219 -217 -290 -273 -29 -22 -32 -29 -20 -37
27 -18 76 -10 136 20 39 20 106 74 202 164 127 120 234 197 250 181 3 -3 -67
-78 -155 -167 -165 -168 -219 -237 -210 -262 3 -9 28 -26 55 -40 29 -15 52
-34 55 -46 l5 -21 43 21 c56 29 128 98 205 196 75 96 137 155 193 183 23 12
41 19 41 16 0 -3 -73 -96 -162 -208 -189 -234 -204 -255 -190 -269 5 -5 36
-12 69 -15 157 -14 275 114 409 447 41 101 43 104 53 77 18 -45 12 -118 -13
-179 -32 -78 -94 -161 -231 -311 -65 -70 -115 -130 -112 -133 14 -15 89 -15
140 0 62 18 146 87 198 162 41 60 115 212 188 384 70 166 150 321 169 328 18
6 15 -52 -8 -142 -26 -104 -95 -236 -244 -471 -131 -206 -215 -359 -204 -370
14 -14 72 9 110 43 l40 36 38 -44 38 -44 32 49 c44 71 98 184 180 386 39 96
91 215 115 266 45 96 133 239 141 230 13 -12 -68 -222 -156 -407 -54 -113
-109 -238 -124 -278 -31 -88 -66 -253 -66 -316 l0 -46 39 43 c125 137 213 321
357 744 38 112 72 203 76 203 13 0 21 -70 16 -138 -7 -90 -47 -189 -163 -402
-141 -260 -180 -374 -161 -475 7 -34 9 -36 34 -30 73 17 147 108 197 242 47
124 102 243 122 265 23 26 43 22 43 -7 0 -40 -35 -117 -151 -336 -60 -113
-109 -213 -109 -224 0 -16 6 -17 67 -12 139 13 190 76 249 303 41 158 63 211
109 260 31 33 65 45 65 23 0 -6 -30 -74 -66 -152 -91 -197 -126 -303 -132
-404 -5 -91 -3 -94 55 -72 70 26 110 92 153 254 21 77 39 105 67 105 25 0 13
-56 -42 -197 -30 -78 -55 -150 -55 -159 0 -16 2 -15 23 3 59 55 131 79 143 48
3 -8 -6 -39 -20 -70 -25 -55 -25 -55 -3 -44 60 31 129 94 170 157 59 88 75
125 158 371 66 195 129 344 162 386 16 19 16 18 17 -19 0 -94 -58 -256 -208
-573 -90 -189 -142 -308 -142 -325 0 -4 20 -8 44 -8 81 0 126 58 126 165 0 56
2 65 18 65 27 0 52 -32 52 -66 0 -16 -14 -58 -30 -92 -35 -75 -35 -73 -12 -65
78 27 132 123 156 273 41 259 47 294 51 298 9 9 38 -23 52 -55 26 -63 13 -126
-57 -277 -36 -78 -60 -180 -53 -220 3 -14 6 -26 7 -26 0 0 30 10 66 21 52 17
102 23 245 28 212 8 235 15 267 89 25 56 34 189 20 307 -10 82 -3 115 23 115
25 0 29 -42 26 -274 l-2 -229 38 6 c109 18 164 141 149 332 -6 72 -5 85 13
106 l19 24 11 -28 c6 -16 11 -102 11 -203 0 -96 2 -174 5 -174 14 0 62 30 82
52 36 38 71 128 82 211 6 43 11 164 11 268 0 149 3 198 16 227 30 72 38 18 42
-279 l4 -277 98 193 c61 122 105 223 120 275 25 96 35 238 23 326 -5 33 -7 66
-5 72 6 20 40 13 49 -10 4 -13 7 -150 5 -306 -3 -281 -3 -283 17 -273 69 37
101 140 102 326 0 118 2 127 13 95 25 -67 66 -139 88 -154 77 -54 156 29 199
210 18 76 20 108 16 224 -3 74 -9 149 -12 165 -7 38 18 76 38 56 8 -8 13 -63
16 -176 l3 -164 32 6 c79 14 93 49 71 175 -22 123 -20 176 11 234 33 64 50 82
65 67 8 -8 6 -47 -5 -140 -19 -149 -20 -209 -6 -218 14 -9 38 52 128 312 42
122 78 221 80 219 2 -2 -2 -24 -9 -47 -9 -32 -11 -154 -10 -444 4 -623 -24
-1206 -107 -2257 l-17 -218 26 0 c33 0 39 14 39 98 0 258 75 817 209 1559 39
213 84 474 101 578 17 105 33 205 36 223 5 31 7 32 50 32 25 0 58 7 74 15 29
15 67 82 91 163 17 60 65 112 110 118 l35 6 32 -69 c41 -88 65 -195 102 -440
34 -229 43 -270 76 -375 53 -163 152 -267 283 -297 38 -8 46 -6 89 23 100 69
186 208 238 383 14 48 52 221 84 383 60 304 94 429 138 515 24 47 26 49 33 25
4 -14 7 -62 8 -107 2 -159 45 -195 163 -135 l55 27 7 -173 c13 -351 49 -609
171 -1217 119 -590 152 -790 172 -1043 6 -78 8 -83 14 -47 12 60 10 454 -1
601 -6 71 -31 309 -55 529 -63 566 -69 642 -69 900 0 300 27 513 92 720 l28
90 44 -93 c24 -51 48 -91 54 -89 7 2 13 50 16 118 4 91 7 110 16 94 22 -39 54
-152 89 -315 50 -229 73 -315 101 -382 27 -64 82 -158 92 -158 4 0 19 31 35
68 15 38 34 77 42 88 22 29 36 0 29 -61 -9 -78 -34 -238 -40 -259 -6 -18 -5
-18 17 -2 62 43 112 0 208 -179 172 -323 263 -415 423 -432 58 -6 61 -5 54 13
-5 10 -17 62 -28 114 -32 153 -18 495 18 439 5 -8 12 -88 15 -179 6 -165 6
-165 46 -261 23 -52 49 -128 58 -167 12 -47 21 -69 29 -65 6 4 25 17 41 29 17
12 42 27 57 33 33 13 43 2 53 -59 6 -33 18 -55 44 -82 122 -121 159 -1 71 227
-77 200 -101 275 -95 295 8 25 52 27 59 3 3 -10 28 -99 56 -198 55 -190 102
-317 146 -393 27 -45 27 -46 37 -21 6 13 11 65 11 114 0 118 -23 204 -129 470
-112 284 -136 362 -142 466 -6 93 2 163 18 154 5 -4 9 -14 9 -24 0 -30 115
-433 179 -626 32 -99 96 -283 141 -408 l83 -228 34 60 c18 33 39 63 44 67 6 3
36 -18 67 -48 98 -94 96 -93 88 -21 -10 87 -36 177 -117 395 -84 228 -98 281
-79 303 7 8 16 15 21 15 4 0 24 -33 44 -72 25 -53 47 -128 80 -273 50 -222 82
-302 144 -358 69 -62 171 -85 188 -41 7 18 -8 50 -67 144 -39 62 -41 68 -38
137 l2 72 23 -31 c61 -83 145 -275 157 -359 l7 -46 45 23 c25 13 66 26 90 30
88 13 81 74 -30 262 -101 170 -123 222 -97 222 20 0 72 -54 105 -108 40 -67
112 -234 150 -349 25 -76 29 -81 46 -71 61 38 66 151 12 259 -17 35 -68 123
-113 194 -82 130 -149 260 -149 289 0 24 34 19 63 -8 33 -30 71 -108 136 -272
58 -149 104 -231 163 -291 101 -104 148 -70 148 107 0 154 -61 303 -294 717
-86 154 -156 283 -156 286 0 14 56 -22 91 -60 87 -90 162 -239 312 -619 103
-257 172 -422 182 -432 1 -2 25 8 52 21 26 13 69 27 95 31 52 8 98 38 98 65 0
9 -23 39 -51 66 -59 58 -79 92 -79 135 0 35 15 38 60 15 34 -18 53 -50 80
-139 21 -66 48 -109 81 -127 30 -15 154 -22 178 -10 11 6 34 32 51 57 22 31
41 47 61 51 25 5 28 9 23 27 -12 39 -37 81 -101 170 -64 89 -73 111 -50 119
24 8 55 -16 88 -70 131 -214 179 -253 262 -208 104 57 99 52 82 84 -16 31 -71
79 -122 105 -35 17 -36 41 -2 51 26 9 52 -12 121 -97 33 -40 77 -84 99 -97
l40 -24 35 34 c48 46 67 84 59 119 -4 17 -41 66 -87 116 -79 85 -117 147 -118
192 l0 23 41 -23 c23 -13 63 -47 88 -77 134 -157 164 -181 244 -195 32 -6 41
-4 57 16 24 28 26 86 4 117 -9 13 -44 41 -77 62 -46 30 -56 40 -42 45 24 9 69
-14 150 -80 114 -92 174 -96 263 -20 36 30 42 41 42 73 0 43 -32 96 -70 117
-14 7 -58 28 -97 45 -53 23 -73 37 -73 50 0 31 33 23 160 -36 148 -70 220 -85
284 -61 45 17 86 60 86 89 0 25 -55 63 -132 92 -86 32 -135 67 -150 104 -5 14
-14 34 -20 44 -11 22 -6 20 123 -59 130 -78 219 -124 244 -124 37 0 57 34 71
121 7 44 20 89 29 99 15 16 10 22 -72 87 -103 82 -212 154 -340 226 -51 29
-93 55 -93 59 0 18 73 19 123 3 79 -26 168 -91 315 -229 74 -69 139 -126 145
-126 20 0 106 61 145 104 65 70 94 123 82 146 -13 25 -68 40 -150 41 l-65 0
60 18 c158 46 266 143 314 283 11 31 21 69 23 85 l3 28 -118 5 c-115 5 -118 5
-104 25 12 15 30 20 86 23 85 5 85 6 40 119 -55 139 -115 229 -234 349 -224
225 -465 343 -1084 533 l-224 68 129 5 c213 9 339 61 681 281 100 64 283 171
407 236 348 185 409 228 538 380 578 680 704 1570 299 2109 -290 384 -816 539
-1506 442 -340 -48 -472 -82 -781 -205 -627 -249 -1169 -522 -2619 -1320 -844
-464 -925 -508 -1296 -695 l-317 -160 -123 59 c-107 51 -182 78 -326 117 l-31
9 13 39 c19 55 67 100 172 162 101 59 149 108 164 169 l10 40 112 29 c166 42
343 108 512 191 625 307 1105 847 1586 1784 l91 176 -71 -72 c-109 -111 -257
-304 -470 -609 -422 -604 -592 -809 -840 -1006 -238 -190 -499 -306 -791 -352
-52 -8 -116 -17 -142 -19 l-48 -5 0 34 c0 41 -53 105 -114 136 -55 29 -183 36
-246 14 -40 -14 -47 -14 -68 0 -75 49 -263 80 -431 71 -129 -7 -200 -21 -267
-54 -51 -25 -52 -25 -80 -7 -65 43 -193 14 -295 -67 -49 -39 -99 -115 -99
-151 0 -38 1 -39 -235 78 -983 482 -1644 1129 -2043 1999 l-33 70 6 -50z"/>
</g>
</svg>
