<?xml version="1.0" encoding="UTF-8" standalone="no"?>
<!-- Created with Inkscape (http://www.inkscape.org/) -->

<svg
   xmlns:svg="http://www.w3.org/2000/svg"
   xmlns="http://www.w3.org/2000/svg"
   version="1.2"
   width="481.25299"
   height="103.044"
   viewBox="0 0 481.253 103.044"
   id="Layer_1"
   xml:space="preserve"
   style="overflow:inherit"><defs
   id="defs7" />
<path
   d="m 282.253,0 c 0.667,0 1.333,0 2,0 8.329,4.004 11.101,13.566 19,18 0.88,3.213 -3.297,1.37 -3,4 63.52,0.5 119.815,-28.255 181,-18 -3.678,10.349 -12.102,17.242 -16,22 -6.986,-1.014 -10.396,-5.604 -15,-9 -29.402,16.598 -69.754,22.247 -88,50 -22.489,-3.068 -30.586,-28.148 -59,-19 1.453,1.547 3.9,2.1 7,2 -6.142,4.362 -7.982,12.398 -15,14 -12.45,2.841 -22.396,-10.082 -34,-11 -12.732,12.273 -39.616,27.604 -52,5 -21.482,2.185 -42.261,5.072 -65,6 -1.89,1.956 4.738,3.879 4,8 -10.322,3.005 -16.555,29.736 -27,31 -6.702,0.811 -13.738,-9.768 -18,-15 -5.847,-7.179 -9.102,-13.593 -11,-22 -21.228,-1.061 -44.019,3.946 -68,0 -0.79,-5.456 6.549,-2.784 6,-8 -10.279,-1.963 -27.934,-2.333 -30,-10 -2.681,-9.945 16.604,-14.245 27,-18 11.03,-3.984 23.238,-10.559 32,-13 28.744,-8.009 67.066,-5.859 97,-4 21.133,1.313 42.256,1.835 61,3 10.591,0.658 24.4,4.382 35,2 11.7,-2.629 19.264,-17.675 30,-18 z"
   id="path3"
   style="fill-rule:evenodd" />
</svg>