<?xml version="1.0" encoding="UTF-8" standalone="no"?>
<!-- Created with Inkscape (http://www.inkscape.org/) -->

<svg
   xmlns:svg="http://www.w3.org/2000/svg"
   xmlns="http://www.w3.org/2000/svg"
   version="1.1"
   width="552"
   height="185"
   viewBox="0 0 552 185"
   id="Layer_1"
   xml:space="preserve"><defs
   id="defs44" />
    
    <g
   id="XMLID_2_">
        
        <g
   id="g4">
            
            <path
   d="m 537.06,30.78 c 5.171,-0.19 3.421,4.64 -0.239,3.84 l 0.06,-1.02 -0.78,-0.66 c -0.05,-0.19 -0.239,-0.24 -0.239,-0.48 l 0.88,-0.64 0.318,-1.04 z"
   id="path6" />
            
            <path
   d="m 536.1,32.94 0.78,0.66 c -9.84,3.82 -20.189,12.57 -25.66,22.46 -8.189,14.8 -14.91,32.09 -21.35,46.76 -0.7,1.59 -1.24,3.029 -1.92,4.31 -3.95,7.45 -5.23,10.4 -12.38,11.49 -7.561,1.16 -16.23,-0.101 -24.78,-2.41 -3.11,-0.84 -7.39,-3.13 -10.89,-3.94 l 0.68,-0.85 c -2.32,-0.96 -4.9,-1.66 -7.92,-1.92 v 1.2 c -12.41,-2.851 -25.141,-3.9 -37.8,-4.84 l 0.12,-1.16 c -4.29,-0.41 -7.66,-0.67 -11.521,-0.48 -0.65,0.03 -3.74,-0.35 -4.08,0.48 -0.79,1.899 5.26,2.649 6.72,2.88 3.511,0.54 5.48,0.87 8.4,1.2 l -0.12,-1.181 c 16.021,4.381 30.3,10.53 37.21,21.631 3.21,5.149 3.88,8.88 3.23,12.699 -1.29,7.46 -10.4,7.551 -17.391,6.761 -11.77,-1.32 -24.029,-8.101 -33.779,-12.101 -5.101,-2.09 -10.21,-4.24 -15,-7.85 -7.511,-5.65 -15.73,-10.13 -25.07,-11.8 -2.08,-0.37 -3.69,-0.811 -5.6,-0.301 l 0.119,-1.14 c -2.529,0.7 -4.409,-1.58 -5.279,-0.24 -0.65,1 2.88,2.19 4.08,3.12 l 0.779,-0.84 c 4.051,3.979 9.2,7.01 12.471,11.83 l -1.011,0.53 c 0.721,1.199 1.091,2.75 1.681,4.08 l 0.84,-0.681 c 2.84,20.931 -23.91,22.16 -38.92,18.95 -7.351,-1.57 -13.55,-4.56 -19.61,-8.82 -5.46,-3.85 -12.08,-7.51 -17.24,-10.83 -6.66,-4.27 -12.66,-3.46 -21.1,-2.689 -12.5,1.13 -23.84,-0.37 -36.72,-0.72 -2.22,-0.07 -12.66,-0.48 -10.78,1.859 1.84,2.311 4.7,3.771 6.68,5.62 8.28,7.78 17.73,19.66 26.52,30.62 1.6,2 3.88,5.63 3.1,6.8 -0.45,0.66 -2.51,0.561 -4.4,0.7 -4.28,0.3 -8.2,0.09 -12.8,-0.66 -6.52,-1.05 -9.89,-0.6 -17.24,-3.899 -7.06,-3.171 -16.9,-8.921 -24.71,-13.601 -8.29,-4.97 -15.61,-13.43 -22.89,-21.3 -4.46,-4.811 -9.93,-6.49 -17.87,-7.35 -15.26,-1.671 -31.68,-2.841 -46.35,-5.28 -14.65,-2.45 -29.29,-5.65 -44.53,-9.561 -5.37,-1.37 -12.11,-3.229 -17.35,-6.479 -3.47,-2.15 -7.84,-5.521 -10.26,-7.54 -4.35,-3.65 -12.34,-10.97 -9.02,-15.36 1.16,-1.53 5.71,-0.93 4.09,-3.5 -3.05,-4.85 -0.62,-9.35 4.93,-13.37 8.63,-6.24 23.76,-12.12 33.37,-15.02 9.71,-2.94 19.21,-6.03 28.32,-8.41 8.15,-2.12 19.18,-3.67 28.13,-4.45 6.22,-0.54 14.29,-1.12 21.32,-1.75 12.57,-1.14 25.84,0.88 38.75,0.21 1.74,-0.09 3.62,-0.01 5.37,0.04 18.71,0.44 37.86,0.13 55.29,0.84 12.67,0.52 25.79,1.39 38.07,1.78 13.09,0.42 25.74,-0.03 38.36,-1.76 5.41,-0.74 12.71,-0.33 18.57,-4.38 7.76,-5.36 15.84,-11.06 24.83,-13.21 4.779,-1.14 9.689,-0.77 11.359,3.94 2.17,6.12 0.75,9.12 -6.649,15.43 -0.391,0.33 -0.69,0.58 -1.03,1.13 l -0.27,-1.14 c -1.211,0.38 -3.98,2.5 -3.36,3.36 0.689,0.96 1.87,0.22 3.36,-0.24 l 0.029,-1.43 c 4.721,1.17 13.34,-2.03 17.931,-3.94 3.89,-1.62 5.84,-2.85 8.489,-5.59 8.75,-9.09 25.16,-12.35 37.391,-17.36 v 1.2 c 5.18,-1.46 10.43,-2.85 16.56,-3.36 l -0.12,-1.08 c 1.62,0.14 3.59,-0.19 5.431,0.01 1.439,0.16 4.09,0.22 4.75,0.48 2.239,0.87 3.75,4.15 4.34,5.12 8.13,13.52 -15.431,25.89 -23.98,33.03 l -0.5,-1.08 c -2.689,0.43 -2.62,3.49 0.72,3.12 L 429.9,51.2 c 7.149,0.99 18.189,-2.99 26.239,-6.74 13.471,-6.29 21.44,-9.28 34.431,-12.34 10.51,-2.47 27.029,-3.37 37.59,-2.06 3.26,0.4 6.8,0.52 8.58,1.76 l -0.88,0.64 c 0,0.24 0.19,0.29 0.24,0.48 z"
   id="path8" />
            
            <path
   d="m 441.06,114.06 c -1.96,0.11 -6.619,-1.42 -9.119,-2.399 l 0.72,-0.96 v -1.2 c 3.02,0.26 5.6,0.96 7.92,1.92 l -0.68,0.85 0.199,1.07 c 0.07,0.489 0.89,0.229 0.96,0.719 z"
   id="path10" />
            
            <path
   d="m 439.38,10.62 -0.12,1.08 0.12,1.08 c -6.13,0.51 -11.38,1.9 -16.56,3.36 v -1.2 l -0.721,-0.96 c -0.04,-0.2 0.091,-0.23 0.24,-0.24 -0.21,-0.57 -1.34,0.55 -1.2,-0.72 0.9,0.63 1.341,-0.94 1.92,0.48 3.181,-1.76 7.82,-2.11 11.761,-2.88 1.11,-0.22 3.15,-0.1 4.56,0 z"
   id="path12" />
            
            <path
   d="m 430.98,50.22 c 0,0.16 0,0.32 0,0.48 l -1.08,0.5 0.119,1.18 c -3.34,0.37 -3.409,-2.69 -0.72,-3.12 l 0.5,1.08 1.181,-0.12 z"
   id="path14" />
            
            <path
   d="m 395.46,106.86 c 0,0.08 0,0.159 0,0.239 l -1.08,0.5 0.12,1.181 c -2.92,-0.33 -4.89,-0.66 -8.4,-1.2 -1.46,-0.23 -7.51,-0.98 -6.72,-2.88 0.34,-0.83 3.43,-0.45 4.08,-0.48 3.86,-0.189 7.23,0.07 11.521,0.48 l -0.12,1.16 0.599,1 z"
   id="path16" />
            
            <path
   d="m 360.42,41.34 c 0,0.08 0,0.16 0,0.24 l -1.41,0.25 -0.029,1.43 c -1.49,0.46 -2.671,1.2 -3.36,0.24 -0.62,-0.86 2.149,-2.98 3.36,-3.36 l 0.27,1.14 1.169,0.06 z"
   id="path18" />
            
            <path
   d="m 350.82,128.46 c 1.1,1.14 2.18,2.3 1.92,4.8 l -1.08,0.04 -0.84,0.681 c -0.59,-1.33 -0.96,-2.881 -1.681,-4.08 l 1.011,-0.53 0.67,-0.911 z"
   id="path20" />
            
            <path
   d="m 338.82,117.42 c 0,0.08 0,0.16 0,0.24 l -1.141,-0.12 -0.779,0.84 c -1.2,-0.93 -4.73,-2.12 -4.08,-3.12 0.87,-1.34 2.75,0.94 5.279,0.24 l -0.119,1.14 0.84,0.78 z"
   id="path22" />
            
        </g>
        
        <g
   id="g24">
            
            <path
   d="m 536.88,33.6 c -9.84,3.82 -20.189,12.57 -25.66,22.46 -8.189,14.8 -14.91,32.09 -21.35,46.76 -0.7,1.59 -1.24,3.029 -1.92,4.31 -3.95,7.45 -5.23,10.4 -12.38,11.49 -7.561,1.16 -16.23,-0.101 -24.78,-2.41 -3.11,-0.84 -7.39,-3.13 -10.89,-3.94"
   id="path26"
   style="fill:none;stroke:#000000;stroke-width:1.7687;stroke-linecap:round" />
            
            <path
   d="m 429.8,50.34 c 8.55,-7.14 32.11,-19.51 23.98,-33.03 -0.59,-0.97 -2.101,-4.25 -4.34,-5.12 -0.66,-0.26 -3.311,-0.32 -4.75,-0.48 -1.841,-0.2 -3.811,0.13 -5.431,-0.01"
   id="path28"
   style="fill:none;stroke:#000000;stroke-width:1.80560005;stroke-linecap:round" />
            
            <path
   d="m 536.74,31.82 c -1.78,-1.24 -5.32,-1.36 -8.58,-1.76 -10.561,-1.31 -27.08,-0.41 -37.59,2.06 -12.99,3.06 -20.96,6.05 -34.431,12.34 -8.05,3.75 -19.09,7.73 -26.239,6.74"
   id="path30"
   style="fill:none;stroke:#000000;stroke-width:1.78310001;stroke-linecap:round" />
            
            <path
   d="m 432.66,110.7 c -12.41,-2.851 -25.141,-3.9 -37.8,-4.84"
   id="path32"
   style="fill:none;stroke:#000000;stroke-width:1.99660003;stroke-linecap:round" />
            
            <path
   d="m 359.01,41.83 c 4.721,1.17 13.34,-2.03 17.931,-3.94 3.89,-1.62 5.84,-2.85 8.489,-5.59 8.75,-9.09 25.16,-12.35 37.391,-17.36"
   id="path34"
   style="fill:none;stroke:#000000;stroke-width:1.94560003;stroke-linecap:round" />
            
            <path
   d="m 350.15,129.37 c -3.271,-4.82 -8.42,-7.851 -12.471,-11.83"
   id="path36"
   style="fill:none;stroke:#000000;stroke-width:1.74170005;stroke-linecap:round" />
            
            <path
   d="m 394.38,107.6 c 16.021,4.381 30.3,10.53 37.21,21.631 3.21,5.149 3.88,8.88 3.23,12.699 -1.29,7.46 -10.4,7.551 -17.391,6.761 -11.77,-1.32 -24.029,-8.101 -33.779,-12.101 -5.101,-2.09 -10.21,-4.24 -15,-7.85 -7.511,-5.65 -15.73,-10.13 -25.07,-11.8 -2.08,-0.37 -3.69,-0.811 -5.6,-0.301"
   id="path38"
   style="fill:none;stroke:#000000;stroke-width:1.81359994;stroke-linecap:round" />
            
            <path
   d="m 351.66,133.3 c 2.84,20.931 -23.91,22.16 -38.92,18.95 -7.351,-1.57 -13.55,-4.56 -19.61,-8.82 -5.46,-3.85 -12.08,-7.51 -17.24,-10.83 -6.66,-4.27 -12.66,-3.46 -21.1,-2.689 -12.5,1.13 -23.84,-0.37 -36.72,-0.72 -2.22,-0.07 -12.66,-0.48 -10.78,1.859 1.84,2.311 4.7,3.771 6.68,5.62 8.28,7.78 17.73,19.66 26.52,30.62 1.6,2 3.88,5.63 3.1,6.8 -0.45,0.66 -2.51,0.561 -4.4,0.7 -4.28,0.3 -8.2,0.09 -12.8,-0.66 -6.52,-1.05 -9.89,-0.6 -17.24,-3.899 -7.06,-3.171 -16.9,-8.921 -24.71,-13.601 -8.29,-4.97 -15.61,-13.43 -22.89,-21.3 -4.46,-4.811 -9.93,-6.49 -17.87,-7.35 C 128.42,126.309 112,125.139 97.33,122.7 82.68,120.25 68.04,117.05 52.8,113.139 47.43,111.769 40.69,109.91 35.45,106.66 31.98,104.51 27.61,101.139 25.19,99.12 20.84,95.47 12.85,88.15 16.17,83.76 c 1.16,-1.53 5.71,-0.93 4.09,-3.5 -3.05,-4.85 -0.62,-9.35 4.93,-13.37 8.63,-6.24 23.76,-12.12 33.37,-15.02 9.71,-2.94 19.21,-6.03 28.32,-8.41 8.15,-2.12 19.18,-3.67 28.13,-4.45 6.22,-0.54 14.29,-1.12 21.32,-1.75 12.57,-1.14 25.84,0.88 38.75,0.21 1.74,-0.09 3.62,-0.01 5.37,0.04 18.71,0.44 37.86,0.13 55.29,0.84 12.67,0.52 25.79,1.39 38.07,1.78 13.09,0.42 25.74,-0.03 38.36,-1.76 5.41,-0.74 12.71,-0.33 18.57,-4.38 7.76,-5.36 15.84,-11.06 24.83,-13.21 4.779,-1.14 9.689,-0.77 11.359,3.94 2.17,6.12 0.75,9.12 -6.649,15.43 -0.391,0.33 -0.69,0.58 -1.03,1.13"
   id="path40"
   style="fill:none;stroke:#000000;stroke-width:1.77520001;stroke-linecap:round" />
            
        </g>
        
    </g>
    
</svg>