<?xml version="1.0" encoding="UTF-8" standalone="no"?>
<!-- Created with Inkscape (http://www.inkscape.org/) -->

<svg
   xmlns:svg="http://www.w3.org/2000/svg"
   xmlns="http://www.w3.org/2000/svg"
   version="1.2"
   width="756.35602"
   height="1435.697"
   viewBox="0 0 756.356 1435.697"
   id="svg2"
   xml:space="preserve"
   style="overflow:inherit"><defs
   id="defs27" />
<g
   id="Layer_2">
	<path
   d="m 730.806,208.126 c -1.3,1.967 -2.5,3.7 -3.601,5.2 -0.166,0.8 -0.383,1.817 -0.649,3.05 0.333,-0.267 0.633,-0.45 0.899,-0.55 0.301,0.733 0.45,1.233 0.45,1.5 -0.166,0.267 -0.267,0.5 -0.3,0.7 -0.2,0.667 -0.333,1.75 -0.4,3.25 0.2,0.333 0.384,0.75 0.551,1.25 0.199,-1.767 0.449,-3.683 0.75,-5.75 l 0.449,0.1 c 0.534,3.467 1,6.483 1.4,9.05 0.6,-0.867 1.1,-1.417 1.5,-1.65 0.533,0.6 0.616,0.917 0.25,0.95 l -0.15,0.45 c 0.134,1.833 0.284,3.617 0.45,5.35 0.467,-0.667 0.934,-1.117 1.4,-1.35 -0.2,0.7 -0.533,1.5 -1,2.4 0.467,0.733 0.916,1.434 1.35,2.1 1.167,-2.033 1.834,-3.233 2,-3.6 l 0.5,0.1 c 0.066,0.267 0.101,0.434 0.101,0.5 -0.034,0.1 -0.117,0.434 -0.25,1 -0.067,0.167 -0.15,0.367 -0.25,0.6 l 0.8,0.1 c 0,0.033 0.017,0.133 0.05,0.3 0.066,-0.033 0.116,-0.066 0.15,-0.1 0.399,-0.133 0.666,-0.2 0.8,-0.2 0.133,0.5 -0.05,1.117 -0.55,1.85 0,0.066 0.35,0.083 1.05,0.05 0.399,-0.267 0.483,0 0.25,0.8 -0.101,0.3 -0.533,0.817 -1.3,1.55 0.033,1.1 0,1.8 -0.101,2.1 0,0.033 0,0.083 0,0.15 0.033,0.267 0.101,0.533 0.2,0.8 1.434,-1.066 2.55,-1.816 3.35,-2.25 l 0.4,0.3 c 0.267,0.167 0.45,0.35 0.55,0.55 -1.2,1.567 -2.434,2.933 -3.7,4.1 0.034,0.033 0.051,0.066 0.051,0.1 2.267,-1.667 4.1,-2.784 5.5,-3.35 -0.7,1.2 -2.384,2.85 -5.051,4.95 0.034,0.1 0.051,0.233 0.051,0.4 2.333,-1.8 4.35,-3 6.05,-3.6 0.133,0.167 0.25,0.267 0.35,0.3 0.033,0.1 -0.033,0.417 -0.2,0.95 -0.1,0.333 -0.899,1.133 -2.399,2.4 0.467,-0.233 0.916,-0.433 1.35,-0.6 -0.399,0.633 -0.899,1.283 -1.5,1.95 1.167,-0.6 2.101,-0.883 2.8,-0.85 l 0.25,0.4 c -0.966,0.767 -2.733,2.317 -5.3,4.65 0.033,0.133 0.066,0.3 0.101,0.5 2.633,-1.933 4.833,-3.45 6.6,-4.55 -1.3,1.3 -2.45,2.433 -3.45,3.4 2.533,-1.933 4.667,-3.316 6.4,-4.15 0.066,0.167 0.166,0.267 0.3,0.3 0.066,0.1 0.017,0.4 -0.15,0.9 -0.233,0.8 -1.716,2.566 -4.449,5.3 1.699,-0.467 3.183,-0.533 4.449,-0.2 l 0.15,0.3 c -0.1,0.033 -0.417,0.233 -0.95,0.6 0.2,0.167 0.316,0.35 0.351,0.55 -0.334,0.067 -1.967,0.867 -4.9,2.4 -0.134,0.067 -0.267,0.133 -0.4,0.2 1.2,0.233 2.483,0.533 3.851,0.9 0.066,0 0.166,-0.033 0.3,-0.1 -0.033,0.067 -0.066,0.133 -0.1,0.2 0.267,0.033 0.533,0.117 0.8,0.25 0.733,0 1.5,0.017 2.3,0.05 -0.233,0.2 -0.483,0.417 -0.75,0.65 0.267,0.034 0.467,0.034 0.6,0 0.434,-0.267 0.534,0 0.301,0.8 -0.267,0.767 -2.4,2 -6.4,3.7 1.8,0.333 3.384,0.867 4.75,1.6 -1.167,0.367 -2.45,0.7 -3.85,1 0.233,0 0.483,0 0.75,0 l 0.1,0.4 c -1.2,-0.033 -2.85,0.15 -4.95,0.55 1.267,0.566 2.584,1.15 3.95,1.75 1.5,0.167 3.066,0.35 4.7,0.55 v 0.45 c -0.334,0.066 -1,0.15 -2,0.25 0.399,0.167 0.816,0.316 1.25,0.45 -0.566,-0.133 -1.134,-0.283 -1.7,-0.45 -0.2,0 -0.417,0.017 -0.65,0.05 0,0.067 -0.017,0.2 -0.05,0.4 -0.233,0.667 -1.05,1.25 -2.45,1.75 3.834,1.767 6.784,2.383 8.851,1.85 0,0.233 -0.066,0.6 -0.2,1.1 -0.333,0.1 -1.134,0.133 -2.4,0.1 -1.066,0.867 -2.633,1.417 -4.699,1.65 -0.067,-0.033 -0.117,-0.033 -0.15,0 0.667,0.3 1.3,0.583 1.9,0.85 0.1,-0.033 0.199,-0.033 0.3,0 -0.033,0 -0.084,0.017 -0.15,0.05 0.634,0.267 1.2,0.517 1.7,0.75 0.6,0.333 0.934,0.633 1,0.9 -1.134,-0.267 -2.566,-0.7 -4.3,-1.3 -0.434,0.067 -0.884,0.133 -1.351,0.2 1.733,0.3 3.15,0.583 4.25,0.85 -0.199,-0.033 -1.916,0.034 -5.149,0.2 -0.867,0.067 -1.767,0.067 -2.7,0 2.033,1.233 4.316,2.3 6.85,3.2 -0.1,0.033 -0.833,-0.034 -2.199,-0.2 -0.9,-0.1 -1.684,-0.2 -2.351,-0.3 -1.233,0.1 -2.5,0.05 -3.8,-0.15 4.566,1.6 7.184,2.383 7.85,2.35 l 0.4,0.1 -0.1,0.5 c -0.834,0.5 -1.5,0.8 -2,0.9 -0.634,0.1 -1.367,0.184 -2.2,0.25 0.1,0.133 0.133,0.267 0.1,0.4 -0.366,0.133 -1.8,0.083 -4.3,-0.15 -0.767,-0.066 -1.467,-0.117 -2.1,-0.15 3.433,2.267 6.366,3.617 8.8,4.05 -0.066,0.733 -0.917,1 -2.55,0.8 -0.233,0.1 -0.567,0.267 -1,0.5 -0.733,0.367 -1.167,0.533 -1.301,0.5 -1.267,-0.233 -2.916,-0.8 -4.949,-1.7 -0.134,0.567 -0.233,1.083 -0.301,1.55 3.601,2.1 5.75,3.3 6.45,3.6 l -0.1,0.4 c -2.5,-0.867 -4.684,-1.733 -6.55,-2.6 -0.067,0.2 -0.117,0.4 -0.15,0.6 3.1,2.267 5.9,3.716 8.4,4.35 0.733,0.267 1.1,0.483 1.1,0.65 -0.134,0.033 -1.083,0 -2.85,-0.1 -1.733,-0.133 -2.9,-0.25 -3.5,-0.35 -0.467,-0.067 -1.65,-0.817 -3.551,-2.25 -0.033,0.133 -0.05,0.283 -0.05,0.45 1.2,1.667 2.533,3.55 4,5.65 -0.333,0.2 -0.733,0.3 -1.2,0.3 1.434,1.333 3.017,2.767 4.75,4.3 -0.267,0 -0.55,-0.034 -0.85,-0.1 0.566,0.433 1.134,0.883 1.7,1.35 0.399,0.333 0.2,0.433 -0.601,0.3 -1.033,-0.167 -2.5,-1.15 -4.399,-2.95 0.467,0.8 0.783,1.333 0.95,1.6 -0.167,0.067 -0.334,0.1 -0.5,0.1 -0.334,0.067 -0.767,0.05 -1.301,-0.05 -1.1,-0.167 -2.35,-1.167 -3.75,-3 -0.066,0.633 -0.133,1.25 -0.199,1.85 2.433,2.367 4.666,3.833 6.699,4.4 v 0.45 c -0.399,0.1 -0.783,0.2 -1.149,0.3 0.633,0.367 1.217,0.65 1.75,0.85 l -0.05,0.45 c -0.367,0.167 -0.667,0.283 -0.9,0.35 -0.434,0.167 -0.917,0.2 -1.45,0.1 -0.6,-0.1 -1.283,-0.333 -2.05,-0.7 2.267,2.867 4.7,5.417 7.3,7.65 -2.066,-1.367 -4.017,-2.867 -5.85,-4.5 -0.3,0.133 -0.584,0.233 -0.851,0.3 0.767,0.6 1.567,1.25 2.4,1.95 -0.333,0.267 -0.634,0.467 -0.9,0.6 -0.399,0.233 -0.866,0.3 -1.399,0.2 -0.033,0 -0.066,0 -0.101,0 1.5,1.7 3.25,3.75 5.25,6.15 -0.066,0.233 -0.116,0.383 -0.149,0.45 -0.134,0.1 -0.45,0.1 -0.95,0 -1.667,-0.267 -3.85,-1.767 -6.55,-4.5 0.366,0.467 0.816,0.983 1.35,1.55 1.934,2.1 3.117,3.633 3.55,4.6 -0.133,0.267 -0.25,0.466 -0.35,0.6 -0.2,0.2 -0.566,0.267 -1.1,0.2 -1.267,-0.233 -2.467,-0.733 -3.601,-1.5 -0.033,0.067 -0.033,0.167 0,0.3 2,3.367 3.3,5.45 3.9,6.25 -0.134,0.3 -0.283,0.534 -0.45,0.7 -0.233,0.233 -0.616,0.3 -1.15,0.2 -0.966,-0.167 -1.983,-0.85 -3.05,-2.05 -0.6,-0.733 -1.2,-1.617 -1.8,-2.65 1.5,4.5 2.333,8.083 2.5,10.75 -1.767,-4.3 -3.417,-8.683 -4.95,-13.15 l -0.05,-0.1 c -0.033,0.4 -0.083,0.9 -0.15,1.5 0.034,0.133 0.034,0.3 0,0.5 1.5,4.3 2.5,7.333 3,9.1 2,3.333 3.367,5.783 4.101,7.35 -0.101,0.233 -0.167,0.383 -0.2,0.45 -0.134,0.133 -0.434,0.167 -0.9,0.1 h -0.05 c 0.367,1.333 0.584,2.55 0.65,3.65 l -0.25,0.25 c -2.101,-1.967 -3.917,-4.1 -5.45,-6.4 v 0.05 l -0.3,0.7 -0.351,0.05 c -0.1,-0.6 -0.199,-1.333 -0.3,-2.2 -0.267,-0.4 -0.5,-0.817 -0.7,-1.25 0.034,0.233 0.067,0.467 0.101,0.7 l -0.3,0.05 c 0.133,0.233 0.25,0.483 0.35,0.75 -0.167,-0.233 -0.35,-0.467 -0.55,-0.7 l -0.101,-0.05 v -0.05 c -0.066,-0.033 -0.116,-0.083 -0.149,-0.15 0.033,0.133 0.05,0.283 0.05,0.45 0.134,0.5 0.267,0.967 0.4,1.4 1.1,1.167 2.116,2.567 3.05,4.2 1.333,2.133 3.066,5.316 5.2,9.55 l -0.601,1.1 c -0.033,0.2 -0.45,0.233 -1.25,0.1 -0.1,-0.034 -0.184,-0.05 -0.25,-0.05 1.233,2.733 1.667,4.667 1.3,5.8 -0.199,0.667 -0.55,1.167 -1.05,1.5 0.867,1.633 1.75,3.566 2.65,5.8 -0.066,0.033 -0.367,0.25 -0.9,0.65 -0.133,0.067 -0.267,0.15 -0.399,0.25 0.466,0.867 0.916,1.817 1.35,2.85 0.267,0.367 0.5,0.767 0.7,1.2 l -0.15,0.2 c 0.3,0.767 0.617,1.583 0.95,2.45 -0.233,0.2 -0.417,0.35 -0.55,0.45 -0.134,0.067 -0.316,0.1 -0.55,0.1 -0.134,0.2 -0.384,0.417 -0.75,0.65 -0.534,-0.367 -1.084,-0.85 -1.65,-1.45 0.233,0.4 0.467,0.867 0.7,1.4 0.767,1.2 1.483,2.55 2.149,4.05 0.767,1.767 1.717,4.034 2.851,6.8 0.267,0.566 0.566,1.183 0.899,1.85 0.233,0.5 0.467,1.033 0.7,1.6 0.967,1.534 1.566,2.45 1.8,2.75 -0.066,0.233 -0.233,0.417 -0.5,0.55 1.967,5.033 3.284,9.483 3.95,13.35 0.733,2.6 1.283,4.767 1.65,6.5 h -0.55 c -0.2,-0.567 -0.4,-1.117 -0.601,-1.65 0,0.067 -0.017,0.15 -0.05,0.25 l -0.25,0.2 c -0.066,-0.667 -0.167,-1.383 -0.3,-2.15 -0.267,-0.7 -0.517,-1.367 -0.75,-2 0,0.133 0,0.25 0,0.35 l -0.5,0.2 c -0.267,-0.9 -0.584,-1.883 -0.95,-2.95 l -0.1,0.2 c -0.2,-0.2 -0.384,-0.417 -0.551,-0.65 -0.033,0.067 -0.066,0.133 -0.1,0.2 1.667,4.733 2.733,8.183 3.2,10.35 0.399,0.7 0.833,1.417 1.3,2.15 -0.4,-0.434 -0.783,-0.883 -1.15,-1.35 0.134,0.767 0.15,1.3 0.051,1.6 -0.167,0.566 -0.417,1.1 -0.75,1.6 l -0.9,-0.15 0.7,-0.7 c -0.033,-0.233 -0.75,-2.267 -2.15,-6.1 -0.399,-0.533 -0.816,-1.083 -1.25,-1.65 0.167,2.233 0.267,4.45 0.3,6.65 -0.033,0.066 -0.017,0.15 0.051,0.25 1.233,2.7 2.149,4.816 2.75,6.35 l 0.05,0.3 c -0.867,-1.4 -1.684,-2.783 -2.45,-4.15 0.2,1.167 0.366,2.383 0.5,3.65 l -0.2,0.15 c -0.267,-1.066 -0.583,-2.233 -0.95,-3.5 -0.078,0.417 -0.153,0.892 -0.225,1.425 2.787,8.466 5.262,17.491 7.425,27.075 2.8,12.567 4.2,22.517 4.2,29.85 0,2.467 -2.533,17.067 -7.6,43.8 -5.667,29.7 -8.967,47.85 -9.9,54.45 -0.566,4.3 -1.233,13.183 -2,26.65 -0.392,6.788 -0.792,12.771 -1.2,17.95 1.043,6.646 2.41,14.579 4.101,23.8 3.866,20.733 6.816,51.267 8.85,91.6 2.034,40.333 -1.9,81.883 -11.8,124.65 -9.934,42.733 -23.884,65.383 -41.851,67.949 -3.133,2.7 -6.233,5.434 -9.3,8.2 -30.399,27.267 -62.533,40.117 -96.399,38.55 l -9.551,1.551 c -6.3,-0.434 -12.05,-1.367 -17.25,-2.801 -4.767,-1.333 -8.416,-2.949 -10.949,-4.85 -0.034,-0.667 -0.067,-1.366 -0.101,-2.1 -0.233,-0.034 -0.467,-0.067 -0.7,-0.101 -3.433,-0.6 -6.649,-1.899 -9.649,-3.899 -4.834,-1.601 -8.167,-4.417 -10,-8.45 -0.434,-1.167 -0.884,-2.584 -1.351,-4.25 -2.866,-4.934 -5.383,-10.917 -7.55,-17.95 0.134,-2.6 -0.916,-6.316 -3.149,-11.15 -2.634,-5.633 -5.95,-11.033 -9.95,-16.199 -3,-3.867 -5.8,-6.75 -8.4,-8.65 -0.1,-0.134 -0.15,-0.267 -0.15,-0.4 -3.533,-9.6 -4.85,-18.383 -3.95,-26.35 1,-7.866 1.767,-13.85 2.3,-17.95 h -1.25 c 0.167,-1.833 0.333,-3.967 0.5,-6.399 -3.133,-8.634 -5.55,-15.333 -7.25,-20.101 0.333,-0.167 1,-0.033 2,0.4 0.033,0 0.083,0.017 0.15,0.05 -0.566,-1.233 -0.983,-2.817 -1.25,-4.75 -1.533,-2.5 -2.867,-5.1 -4,-7.8 -1.566,-3.633 -2.45,-6.717 -2.65,-9.25 -0.7,-0.733 -1.317,-1.467 -1.85,-2.2 -0.867,-1.167 -1.5,-2.217 -1.9,-3.15 l 0.55,-1.1 c -0.167,-0.367 -0.3,-0.733 -0.4,-1.1 1.4,-0.667 2.767,-1.467 4.1,-2.4 0.967,-0.633 1.933,-1.317 2.9,-2.05 -0.433,-1.133 -0.767,-2.184 -1,-3.15 -0.033,0 -0.066,0 -0.1,0 -0.066,0 -0.117,-0.066 -0.15,-0.2 -0.066,-0.167 -0.05,-0.434 0.05,-0.8 -0.267,-1.433 -0.333,-2.7 -0.2,-3.8 l 0.7,0.15 c -0.1,0.667 -0.133,1.417 -0.1,2.25 0.1,-0.233 0.25,-0.5 0.45,-0.8 0.567,-0.934 1.517,-2.333 2.85,-4.2 0.333,-1.333 0.684,-2.717 1.05,-4.15 -0.767,1 -1.517,1.967 -2.25,2.9 -2.567,3.267 -4.9,5.8 -7,7.6 l -1,0.15 c -0.1,-0.267 -0.167,-0.467 -0.2,-0.6 -0.033,-0.3 0.133,-1.033 0.5,-2.2 0.733,-2.434 4.633,-8.95 11.7,-19.55 0.3,-0.433 0.566,-0.85 0.8,-1.25 0.1,-0.133 0.2,-0.25 0.3,-0.35 0.034,-0.4 0.083,-0.75 0.15,-1.05 0.466,-2.566 0.867,-5.033 1.2,-7.4 -0.1,0.167 -0.183,0.317 -0.25,0.45 -6.167,11.867 -9.883,18.55 -11.15,20.05 -0.467,-0.233 -0.75,-0.45 -0.85,-0.65 -0.066,-0.3 0.1,-1.117 0.5,-2.45 1.434,-3.633 2.867,-7.117 4.3,-10.45 -0.534,1.1 -1.083,2.267 -1.65,3.5 -0.633,-1.9 -0.466,-4.417 0.5,-7.55 0.133,-0.5 0.284,-1 0.45,-1.5 l 8.4,-27.8 c 0.9,-1.8 1.867,-3.767 2.9,-5.9 0.1,-1.367 0.2,-2.617 0.3,-3.75 -2.434,5.4 -4.067,9.367 -4.9,11.9 -0.4,0.167 -0.784,0.333 -1.15,0.5 -0.7,0.3 -1.15,0.316 -1.35,0.05 0.8,-1.9 2.383,-5.867 4.75,-11.9 l -0.95,0.1 c 0.4,-1.067 0.933,-2.333 1.6,-3.8 l -1.1,-0.2 c 0,-0.033 0.017,-0.083 0.05,-0.15 -1.033,1.867 -1.966,3.466 -2.8,4.8 l -1.05,0.05 c 2.167,-7.5 4.25,-14.283 6.25,-20.35 -0.367,0.133 -0.717,0.267 -1.05,0.4 -0.767,0.3 -1.25,0.3 -1.45,0 2.6,-6.467 4.85,-11.9 6.75,-16.3 0,-0.1 0.017,-0.167 0.05,-0.2 0.033,-0.167 0.1,-0.317 0.2,-0.45 0.833,-1.867 1.583,-3.533 2.25,-5 0.6,-1.2 1.166,-2.35 1.7,-3.45 0.066,-0.333 0.149,-0.717 0.25,-1.15 -1.5,2.9 -3,5.767 -4.5,8.6 l -1.051,0.2 c 0.134,-0.5 0.25,-1.217 0.351,-2.15 0.1,-0.867 0.316,-1.867 0.649,-3 0.301,-0.9 2.301,-5.25 6,-13.05 0.2,-0.433 0.384,-0.816 0.551,-1.15 0.466,-2.467 0.966,-4.983 1.5,-7.55 -0.2,-5.567 -0.467,-11.2 -0.801,-16.9 -1.133,-19.033 -1.233,-35.316 -0.3,-48.85 0.267,-4.633 0.517,-8.15 0.75,-10.55 -0.166,-1.767 -0.3,-3.533 -0.399,-5.3 0,-2.667 0.35,-9.667 1.05,-21 0,-1.167 0,-2.383 0,-3.65 0.033,-2.434 0.333,-6.717 0.899,-12.85 0.067,-0.8 0.134,-1.567 0.2,-2.3 -2.033,0.6 -3.717,0.8 -5.05,0.6 -8.067,-1.333 -12.517,-7.367 -13.35,-18.1 -0.2,-2.267 -0.217,-4.667 -0.05,-7.2 -0.033,0 -0.083,-0.017 -0.15,-0.05 -2.167,-0.333 -3.25,-1.233 -3.25,-2.7 0.433,-1.5 0.667,-2.317 0.7,-2.45 0.567,-1.867 1.65,-2.933 3.25,-3.2 0.167,-0.067 0.383,-0.1 0.65,-0.1 l 0.05,-0.35 c 0.367,-1.233 4.517,-7.5 12.45,-18.8 9.167,-12.967 15.084,-21.35 17.75,-25.15 1.233,-1.8 2.45,-3.583 3.65,-5.35 0.5,-0.9 0.983,-1.817 1.45,-2.75 7.767,-14.367 17.35,-27.583 28.75,-39.65 8.066,-8.667 13.3,-14.5 15.699,-17.5 2.9,-3.566 5.284,-6.95 7.15,-10.15 0.066,-0.066 0.1,-0.133 0.1,-0.2 -0.133,-0.467 -0.25,-0.934 -0.35,-1.4 0.4,-0.667 0.75,-1.367 1.05,-2.1 2.134,-4.6 3.217,-8.85 3.25,-12.75 0,-0.833 -0.149,-1.767 -0.45,-2.8 0.334,-2.333 0.25,-4.816 -0.25,-7.45 -0.699,-3.2 -1.85,-5.967 -3.449,-8.3 -0.067,-0.1 -0.134,-0.2 -0.2,-0.3 l 0.3,-1.1 -0.1,0.2 c -1.367,-2.3 -3.101,-3.75 -5.2,-4.35 -1.267,-1.033 -2.601,-2.117 -4,-3.25 -1.533,-1 -3.417,-1.55 -5.65,-1.65 0.033,0.533 0.033,1.083 0,1.65 l -0.35,0.3 c -0.233,-0.467 -0.334,-1.083 -0.3,-1.85 l 0.05,-0.1 c -0.334,0 -0.667,0 -1,0 -0.101,-0.1 -0.15,-0.217 -0.15,-0.35 -0.633,-0.1 -1.267,-0.167 -1.899,-0.2 -0.2,0.7 -0.417,1.383 -0.65,2.05 l -0.35,-0.05 0.5,-2.1 c -1.534,-0.2 -3.067,-0.417 -4.601,-0.65 -0.467,-0.033 -0.983,-0.066 -1.55,-0.1 -0.533,1.3 -0.866,2.333 -1,3.1 l -0.55,0.05 c 0.066,-0.833 0.333,-1.9 0.8,-3.2 -0.233,-0.067 -0.467,-0.1 -0.7,-0.1 -0.033,0.033 -0.05,0.067 -0.05,0.1 -0.066,0.367 -0.25,0.617 -0.55,0.75 -0.134,0.533 -0.267,1.1 -0.4,1.7 l -0.5,0.05 0.4,-1.6 c -0.434,0.033 -0.717,0.1 -0.851,0.2 -0.6,-0.667 -1.017,-1.184 -1.25,-1.55 -0.166,-0.033 -0.333,-0.066 -0.5,-0.1 0,0.033 -0.017,0.083 -0.05,0.15 -0.033,0.066 -0.066,0.167 -0.1,0.3 -0.233,0.767 -0.467,1.617 -0.7,2.55 l -0.3,0.25 c -0.033,-0.467 0.033,-1.117 0.2,-1.95 v -0.05 c -0.101,-0.3 -0.2,-0.784 -0.301,-1.45 -0.033,0 -0.066,-0.017 -0.1,-0.05 -0.167,0 -0.6,0 -1.3,0 0.3,2.466 0.583,4.25 0.85,5.35 l -0.6,0.05 c -0.3,-0.9 -0.634,-2.417 -1,-4.55 0,0.1 -0.017,0.217 -0.05,0.35 0.033,0 0.05,0.033 0.05,0.1 l -0.101,0.15 c -0.133,0.467 -0.233,0.867 -0.3,1.2 l -0.5,0.05 c 0.066,-0.267 0.134,-0.566 0.2,-0.9 -0.134,-0.133 -0.233,-0.3 -0.3,-0.5 -0.066,-0.033 -0.134,-0.3 -0.2,-0.8 -0.066,0.267 -0.283,0.483 -0.65,0.65 -0.1,-0.167 -0.35,-0.533 -0.75,-1.1 -0.199,0 -0.399,0.017 -0.6,0.05 -0.2,0.233 -0.384,0.45 -0.55,0.65 0.666,2.033 1,3.083 1,3.15 -0.733,-0.6 -1.334,-1.583 -1.8,-2.95 -0.134,0.4 -0.25,0.767 -0.351,1.1 v 0.05 c 0.066,0.133 0.134,0.267 0.2,0.4 l -0.05,0.35 c -0.733,-0.733 -1.334,-1.65 -1.8,-2.75 -0.634,-0.033 -1.167,-0.033 -1.601,0 -0.066,0.267 -0.1,0.483 -0.1,0.65 0,0.062 0.033,0.096 0.1,0.1 -0.068,-0.002 -0.118,-0.019 -0.149,-0.05 0,0.033 0,0.067 0,0.1 0,0.133 -0.017,0.267 -0.051,0.4 0,0.367 0.051,0.667 0.15,0.9 l -0.15,0.25 c -0.1,-0.3 -0.199,-0.55 -0.3,-0.75 -0.2,0.2 -0.483,0.333 -0.85,0.4 -0.033,0.034 -0.05,0.083 -0.05,0.15 h -0.551 c 0.067,-0.067 0.101,-0.15 0.101,-0.25 -1.066,-0.133 -1.851,-0.434 -2.351,-0.9 -0.5,0.567 -0.767,0.867 -0.8,0.9 -0.2,-0.2 -0.383,-0.367 -0.55,-0.5 0.066,0.533 0.083,0.867 0.05,1 l -0.2,0.75 c -0.033,0 -0.1,0.066 -0.199,0.2 l -0.301,-0.1 c 0,-0.433 -0.133,-1.267 -0.399,-2.5 -0.267,-0.133 -0.55,-0.267 -0.851,-0.4 l -0.25,1.2 c -0.133,0.233 -0.333,0.433 -0.6,0.6 -0.267,-0.6 -0.4,-1.3 -0.4,-2.1 -0.3,-0.067 -0.533,-0.083 -0.699,-0.05 l 0.05,-0.1 c -0.066,0 -0.167,0.183 -0.3,0.55 l -0.15,0.45 c -0.167,0.3 -0.434,0.5 -0.8,0.6 -0.434,-0.767 -0.667,-1.35 -0.7,-1.75 0,-0.133 0.017,-0.316 0.05,-0.55 -0.033,0 -0.066,-0.017 -0.1,-0.05 -0.267,0.9 -0.55,1.75 -0.851,2.55 -0.066,0 -0.149,0.033 -0.25,0.1 -0.1,0.1 -0.399,0.117 -0.899,0.05 -0.667,-0.133 -1.217,-0.566 -1.65,-1.3 -0.366,-0.733 -1.1,-1.184 -2.2,-1.35 -0.366,-0.067 -0.616,-0.317 -0.75,-0.75 -0.066,-0.467 -0.116,-0.783 -0.149,-0.95 -0.334,0.434 -0.617,0.7 -0.851,0.8 -0.566,-0.233 -0.883,-0.667 -0.949,-1.3 -0.167,-1.1 -0.284,-1.733 -0.351,-1.9 0,1 -0.05,1.75 -0.149,2.25 l -0.4,0.15 c -0.3,-0.5 -0.583,-1.167 -0.85,-2 -0.034,0.034 -0.067,0.05 -0.101,0.05 -0.267,-0.167 -0.55,-0.267 -0.85,-0.3 -0.4,-0.566 -0.8,-1.183 -1.2,-1.85 -0.066,0.033 -0.116,0.05 -0.15,0.05 -0.199,-0.433 -0.399,-0.867 -0.6,-1.3 l -0.25,1.15 -0.1,0.3 c 0.199,0.167 -0.101,0.184 -0.9,0.05 -1.134,-0.167 -2,-1.284 -2.6,-3.35 -0.2,-0.3 -0.4,-0.6 -0.601,-0.9 -1.1,-0.534 -1.616,-0.867 -1.55,-1 0.033,0 0.15,0 0.35,0 l -0.25,-0.05 c -0.3,-0.033 -0.933,-1.283 -1.899,-3.75 -0.8,-2.1 -1.334,-3.816 -1.601,-5.15 -0.1,-0.167 -0.166,-0.3 -0.199,-0.4 0,0.367 0.083,1.267 0.25,2.7 0.166,1.434 0.233,2.517 0.199,3.25 -0.066,0.167 -0.25,0.3 -0.55,0.4 -1.033,-1.633 -1.5,-3.95 -1.399,-6.95 0,-0.733 0.033,-1.6 0.1,-2.6 -0.4,-0.867 -0.684,-1.467 -0.85,-1.8 -0.067,-0.133 -0.15,-0.283 -0.25,-0.45 -0.2,-0.3 -0.384,-0.6 -0.551,-0.9 -0.1,0.833 -0.149,1.767 -0.149,2.8 -0.066,3 0.2,5.15 0.8,6.45 -1.333,-1.3 -1.917,-3.417 -1.75,-6.35 0.033,-1.033 0.134,-2.417 0.3,-4.15 -0.133,-0.167 -0.25,-0.35 -0.35,-0.55 -0.134,0.333 -0.25,0.667 -0.351,1 l -0.55,0.05 0.5,-1.65 c -0.367,-0.533 -0.716,-1.083 -1.05,-1.65 -0.133,0.333 -0.267,0.65 -0.4,0.95 l -0.4,-0.05 0.45,-1.45 c -0.367,-0.533 -0.733,-1.1 -1.1,-1.7 -0.2,0.667 -0.417,1.316 -0.65,1.95 l -0.4,-0.1 0.7,-2.3 c -0.133,-0.267 -0.284,-0.517 -0.45,-0.75 0,0.1 -0.017,0.2 -0.05,0.3 -0.1,0.133 -0.233,0.133 -0.4,0 -0.133,-0.133 -0.233,-0.316 -0.3,-0.55 l 0.2,-0.7 c -0.3,-0.566 -0.55,-1.283 -0.75,-2.15 -0.367,0.833 -0.784,1.917 -1.25,3.25 l -0.4,-0.05 1.3,-4.35 c -0.434,-2.133 -0.833,-4.967 -1.2,-8.5 0,-0.067 0,-0.133 0,-0.2 -0.533,-0.667 -1.017,-1.433 -1.45,-2.3 -1.267,-2.467 -1.684,-4.433 -1.25,-5.9 0.4,-1.3 1.716,-2.733 3.95,-4.3 0.434,-0.3 0.85,-0.55 1.25,-0.75 0,-0.1 0.017,-0.2 0.05,-0.3 0.133,-0.867 0.4,-1.767 0.8,-2.7 0.8,-2.633 1.6,-4.433 2.4,-5.4 0.367,-0.4 0.784,-0.767 1.25,-1.1 0.833,-1.633 2.233,-3.466 4.199,-5.5 1.034,-1.033 2,-1.816 2.9,-2.35 -0.033,-0.467 0.033,-0.9 0.2,-1.3 0.066,-0.133 0.116,-0.267 0.149,-0.4 0.601,-0.633 1.233,-1.333 1.9,-2.1 1.533,-1.8 2.816,-3.333 3.85,-4.6 0.4,-0.267 0.817,-0.55 1.25,-0.85 3.567,-2.367 7.584,-4.233 12.051,-5.6 4.466,-1.367 8.033,-1.783 10.699,-1.25 1.4,0.267 2.367,0.8 2.9,1.6 1.733,-1.8 4.4,-3.267 8,-4.4 0.967,-0.933 2.2,-2.066 3.7,-3.4 0.633,-0.5 1.35,-1.083 2.149,-1.75 0,-0.367 0,-0.566 0,-0.6 0.233,-0.733 0.601,-1.4 1.101,-2 0,-0.2 0,-0.4 0,-0.6 -0.434,-0.1 -0.917,-0.233 -1.45,-0.4 -1.1,-0.333 -1.65,-0.583 -1.65,-0.75 1.101,0.1 2.184,0.233 3.25,0.4 0.134,-0.633 0.301,-1.217 0.5,-1.75 0.2,-0.6 0.384,-1.1 0.551,-1.5 -0.067,-0.1 -0.101,-0.2 -0.101,-0.3 -0.767,-0.233 -1.399,-0.4 -1.899,-0.5 l -0.4,-0.8 c 0.233,-0.067 0.816,0 1.75,0.2 1.4,-4.667 3.934,-7.716 7.6,-9.15 0.034,-0.2 0.084,-0.4 0.15,-0.6 -0.9,0.5 -1.483,0.733 -1.75,0.7 -1.167,-0.2 -1.417,-1.95 -0.75,-5.25 0.233,-1 0.75,-2.817 1.55,-5.45 2.066,-6.833 7.316,-10.333 15.75,-10.5 3.167,-0.066 5.95,0.367 8.351,1.3 0.3,0.1 0.6,0.233 0.899,0.4 0.367,0 0.75,0 1.15,0 0.1,0 0.184,-0.017 0.25,-0.05 0.666,-0.2 1.55,-0.367 2.649,-0.5 0.134,-0.233 0.267,-0.45 0.4,-0.65 1.134,-1.767 1.7,-2.983 1.7,-3.65 l 0.35,0.05 c -0.066,0.833 -0.2,1.583 -0.399,2.25 -0.134,0.4 -0.417,1.033 -0.851,1.9 0.167,-0.033 0.316,-0.05 0.45,-0.05 0.167,-0.167 0.35,-0.35 0.55,-0.55 1.134,-1.233 2.316,-2.283 3.55,-3.15 0.434,-0.467 0.801,-0.867 1.101,-1.2 0.066,0.133 0.116,0.217 0.149,0.25 0,0.033 0,0.083 0,0.15 0.267,-0.167 0.551,-0.333 0.851,-0.5 0.267,0.333 0.517,0.784 0.75,1.35 0.8,-1.533 1.45,-2.917 1.95,-4.15 l 0.3,0.05 c 0.033,0.8 -0.084,1.65 -0.351,2.55 -0.399,0.767 -0.783,1.483 -1.149,2.15 1.566,-0.3 2.467,-0.55 2.7,-0.75 0.033,-0.033 0.066,-0.067 0.1,-0.1 0.026,-0.053 0.01,-0.094 -0.05,-0.125 0.051,0.017 0.102,0.025 0.149,0.025 1.434,-1.466 2.634,-2.35 3.601,-2.65 -0.334,0.633 -0.75,1.333 -1.25,2.1 0.133,0 0.25,0 0.35,0 0.066,0.033 0.384,-0.2 0.95,-0.7 0.634,-0.333 1.2,-0.083 1.7,0.75 1.566,-0.633 3,-1.367 4.3,-2.2 l 1.15,0.2 c 0.133,0.333 -0.117,0.717 -0.75,1.15 0.199,-0.067 0.383,-0.1 0.55,-0.1 0.566,-0.267 1.416,-0.65 2.55,-1.15 2.167,-0.967 3.833,-1.6 5,-1.9 0.134,0.267 -0.017,0.75 -0.45,1.45 0.934,-0.1 2.816,-0.4 5.65,-0.9 2.3,-0.367 4.05,-0.633 5.25,-0.8 l 0.25,0.45 c -0.733,0.467 -2.417,1.067 -5.05,1.8 0.533,0.067 2.283,-0.117 5.25,-0.55 2.933,-0.4 4.483,-0.583 4.649,-0.55 0.233,0.033 0.483,0.083 0.75,0.15 0.4,-0.567 1.05,-0.8 1.95,-0.7 l 8.55,0.8 c 0.367,-0.034 0.717,-0.05 1.05,-0.05 0.867,-0.533 2.284,-0.85 4.25,-0.95 1.334,-0.034 4.034,0.033 8.101,0.2 0.833,-0.167 1.85,-0.267 3.05,-0.3 0.033,0 0.083,0 0.15,0 3.767,-1.367 7.083,-2.167 9.949,-2.4 0.733,0.333 1.15,0.617 1.25,0.85 -0.033,0.034 -1.449,0.434 -4.25,1.2 0.101,0 0.217,0 0.351,0 3.7,-1.2 6.116,-1.617 7.25,-1.25 0.2,0.233 0.3,0.467 0.3,0.7 -0.1,-0.1 -0.417,-0.2 -0.95,-0.3 -0.912,-0.163 -2.462,0.07 -4.649,0.7 4.166,-0.133 6.216,-0.033 6.149,0.3 0.867,-0.2 1.517,-0.333 1.95,-0.4 -0.434,0.233 -1.134,0.533 -2.1,0.9 0,0.033 0,0.067 0,0.1 0.233,0 0.5,0.033 0.8,0.1 1.633,-0.767 2.816,-1.283 3.55,-1.55 -0.167,0.567 -0.65,1.167 -1.45,1.8 1.233,0.133 2.717,0.283 4.45,0.45 1.767,0.233 3.566,0.5 5.4,0.8 0.1,0.066 0.216,0.117 0.35,0.15 2.333,-0.367 3.717,-0.5 4.15,-0.4 v 0.2 c -0.134,-0.033 -0.4,-0.083 -0.801,-0.15 -0.899,0.233 -1.767,0.467 -2.6,0.7 0.233,0.133 0.5,0.267 0.8,0.4 2.5,-0.233 5.217,-0.483 8.15,-0.75 0.767,0.233 1.133,0.433 1.1,0.6 -2.566,0.4 -4.934,0.783 -7.1,1.15 0.233,0.067 0.5,0.183 0.8,0.35 0.566,-0.1 1.134,-0.167 1.7,-0.2 2.767,-0.3 5.8,-0.566 9.1,-0.8 l -0.05,0.25 c -1.033,0.167 -3.8,0.717 -8.3,1.65 -0.167,0.067 -0.334,0.117 -0.5,0.15 0.399,0.2 0.8,0.417 1.2,0.65 3,-0.333 6.6,-0.716 10.8,-1.15 -3.334,1.6 -5.684,2.617 -7.05,3.05 0.566,-0.1 1.083,-0.083 1.55,0.05 5.6,-1.133 8.7,-1.783 9.3,-1.95 -1.033,0.9 -2.684,1.817 -4.95,2.75 2.767,-0.833 4.55,-1.283 5.351,-1.35 0.767,0.233 1.149,0.433 1.149,0.6 -0.866,0.2 -3.149,1.1 -6.85,2.7 0.6,0.133 1.1,0.25 1.5,0.35 2.733,-0.934 4.684,-1.7 5.85,-2.3 0.767,0.2 1.15,0.383 1.15,0.55 -0.033,0 -0.066,0.017 -0.101,0.05 0.967,0.3 1.45,0.533 1.45,0.7 -0.166,0.033 -1.5,0.883 -4,2.55 0.367,-0.033 0.717,-0.05 1.05,-0.05 0.134,-0.133 0.284,-0.267 0.45,-0.4 3.033,-2.1 5.733,-3.333 8.101,-3.7 -2.467,2.133 -4.45,3.767 -5.95,4.9 -0.033,0.033 -0.066,0.067 -0.101,0.1 0.134,0.133 0.5,0.25 1.101,0.35 0.633,0.1 1.066,0.8 1.3,2.1 2.1,-2 3.65,-3.333 4.65,-4 -1.834,2.267 -3.351,4.1 -4.551,5.5 0.067,0.633 0.084,1.367 0.051,2.2 1.966,-2.033 3.683,-3.6 5.149,-4.7 -2.166,2.667 -3.866,4.733 -5.1,6.2 -0.066,0.067 -0.101,0.133 -0.101,0.2 -0.033,0.2 -0.066,0.417 -0.1,0.65 -0.1,0.8 -0.2,1.567 -0.3,2.3 1.133,-2.733 1.899,-4.466 2.3,-5.2 l 0.45,0.1 c -0.033,0.233 -0.15,0.517 -0.351,0.85 -0.199,0.434 -0.366,0.867 -0.5,1.3 -0.267,1.1 -0.5,2.183 -0.699,3.25 0.033,-0.1 0.083,-0.184 0.149,-0.25 0.367,-1.033 0.717,-2 1.05,-2.9 l 0.75,-0.05 c 0,0.133 -0.033,0.367 -0.1,0.7 1.366,-1.9 2.25,-3.267 2.65,-4.1 l 0.5,0.1 c 0.274,-0.3 0.291,-0.05 0.057,0.75 z m 4.95,28.601 c -0.03,0 -0.063,-0.025 -0.101,-0.075 0.037,0.053 0.07,0.095 0.101,0.125 v -0.05 z m 0,-2.901 c -0.101,0.233 -0.233,0.5 -0.4,0.8 -0.134,0.267 -0.25,0.5 -0.35,0.7 0.1,0.167 0.199,0.35 0.3,0.55 0.133,-0.167 0.267,-0.333 0.399,-0.5 10e-4,-0.766 0.017,-1.283 0.051,-1.55 z m -37.05,-40.4 c 0.067,0.1 0.134,0.217 0.2,0.35 0.434,-0.067 0.884,-0.1 1.351,-0.1 -0.334,-0.133 -0.667,-0.25 -1,-0.35 -0.201,0.034 -0.384,0.067 -0.551,0.1 z m 16.9,7.5 c 1.533,-0.6 3.333,-1.333 5.4,-2.2 -1.4,0.3 -3.233,1.017 -5.5,2.15 0.034,0 0.067,0.017 0.1,0.05 z m -1.4,0.551 c -0.033,0.033 -0.083,0.066 -0.149,0.1 0.333,-0.133 0.684,-0.25 1.05,-0.35 -0.167,0 -0.316,0.033 -0.45,0.1 -0.167,0.066 -0.318,0.116 -0.451,0.15 z m 26.75,65.25 c -0.066,0.2 -0.116,0.4 -0.149,0.6 0.899,0.1 1.816,0.2 2.75,0.3 -0.901,-0.301 -1.767,-0.601 -2.601,-0.9 z m 3.5,9.699 c 0.065,-0.033 0.1,-0.033 0.101,0 -10e-4,-0.033 -0.018,-0.05 -0.05,-0.05 l -0.051,0.05 z m -2.55,-4.4 c -0.566,0.1 -1.166,0.183 -1.8,0.25 -0.033,0.167 -0.066,0.35 -0.1,0.55 2.466,0.534 4.566,0.917 6.3,1.15 -0.733,-0.233 -2.2,-0.883 -4.4,-1.95 z m -2.95,6.85 c -0.066,0.3 -0.133,0.617 -0.199,0.95 l 1.949,0.2 c -0.567,-0.333 -1.15,-0.716 -1.75,-1.15 z m -129.375,-84.95 -1.324,1.05 -0.101,0.25 c 0.134,-0.1 0.5,-0.434 1.101,-1 0.115,-0.115 0.223,-0.215 0.324,-0.3 z m -9.075,0.7 c -0.067,0.133 -0.15,0.3 -0.25,0.5 0.333,-0.267 0.716,-0.583 1.149,-0.95 -0.199,0.033 -0.499,0.184 -0.899,0.45 z m -1.3,2.05 c -0.267,0.367 -0.583,0.8 -0.949,1.3 0.033,-0.034 0.066,-0.05 0.1,-0.05 0.866,-0.733 1.384,-1.217 1.55,-1.45 l 0.2,-0.35 c -0.301,0.2 -0.601,0.384 -0.901,0.55 z m -39.4,45.35 0.1,-0.05 h -0.05 l -0.05,0.05 z m -44.25,87.4 c -0.2,-0.333 -0.367,-0.683 -0.5,-1.05 -0.033,0.566 -0.05,1.05 -0.05,1.45 l 0.199,0.2 c 0.101,-0.067 0.217,-0.266 0.351,-0.6 z m 18,7.9 -0.05,-0.05 c 0,0.032 -0.017,0.065 -0.051,0.1 0.036,-0.033 0.069,-0.05 0.101,-0.05 z m 5.55,0.7 c -0.233,-0.033 -0.45,-0.05 -0.65,-0.05 0.067,0.267 0.15,0.533 0.25,0.8 h 0.2 c 0.033,-0.2 0.101,-0.433 0.2,-0.7 v -0.05 z m 4.4,0.75 h -0.15 c 0.1,-0.4 0.134,-0.617 0.1,-0.65 l -0.05,-0.05 c -0.3,-0.033 -0.583,-0.033 -0.85,0 0.267,0.633 0.55,1.184 0.85,1.65 0,-0.267 0.033,-0.583 0.1,-0.95 z m -46.95,426.35 c 0,-0.233 0.017,-0.45 0.05,-0.65 0.033,-0.667 0.083,-1.333 0.15,-2 -0.267,1.133 -0.5,2.267 -0.7,3.4 0.167,-0.266 0.333,-0.516 0.5,-0.75 z m -3.3,16.05 c 0.333,-1.066 0.65,-2.083 0.95,-3.05 -0.3,0.4 -0.567,0.767 -0.8,1.1 -0.133,0.633 -0.267,1.283 -0.4,1.95 h 0.25 z m 2.25,-2.35 c 0.067,-0.867 0.133,-1.783 0.2,-2.75 -0.6,1.767 -1.2,3.417 -1.8,4.95 0.533,-0.766 1.067,-1.5 1.6,-2.2 z m -2.5,12.901 c 0.1,-0.767 0.233,-1.567 0.4,-2.4 -1.833,1.7 -3.233,2.9 -4.2,3.6 -0.434,-0.066 -0.783,-0.133 -1.05,-0.2 0.2,0.833 0.467,1.7 0.8,2.6 1.333,-1.134 2.683,-2.334 4.05,-3.6 z m -1.65,10.149 c -1,0.467 -1.95,0.833 -2.85,1.1 1.267,0.433 2.633,1.017 4.1,1.75 0,-0.133 0.017,-0.267 0.05,-0.4 -0.2,-0.3 -0.367,-0.6 -0.5,-0.9 -0.3,-0.533 -0.567,-1.05 -0.8,-1.55 z m 1.6,-0.5 c 0.033,-0.133 0.066,-0.25 0.1,-0.35 -0.3,0.133 -0.6,0.283 -0.9,0.45 0.2,0.333 0.434,0.683 0.7,1.05 0.033,-0.366 0.067,-0.75 0.1,-1.15 z m -1.45,15.5 c -1.5,-2.2 -2.983,-4.184 -4.45,-5.95 l 0.15,0.4 c 0.667,2.567 2.05,5.8 4.15,9.7 0.067,0.067 0.133,0.15 0.2,0.25 -0.1,-1.299 -0.117,-2.766 -0.05,-4.4 z m 6.7,29.351 c -0.333,-0.467 -0.684,-0.867 -1.05,-1.2 0.267,0.833 0.6,1.833 1,3 0.033,-0.567 0.05,-1.168 0.05,-1.8 z m 0.5,14.299 c 0.3,-1.267 0.583,-2.35 0.85,-3.25 0.033,-0.167 0.1,-0.333 0.2,-0.5 -0.033,-0.167 -0.033,-0.35 0,-0.55 l -1.2,3.899 0.15,0.401 z m 1.65,24 c -1.233,-1.967 -2.117,-3.7 -2.65,-5.2 -0.033,6.467 0.95,10.566 2.95,12.3 0.3,-2.233 0.534,-4.133 0.7,-5.699 -0.3,-0.5 -0.633,-0.967 -1,-1.401 z m 5.3,9.901 c 0,0.5 0.033,1 0.101,1.5 l 0.05,0.05 c 0.066,-0.5 0.083,-0.816 0.05,-0.95 -0.067,-0.201 -0.135,-0.401 -0.201,-0.6 z"
   id="path5"
   style="fill-rule:evenodd" />
</g>
<g
   id="Layer_4">
	<path
   d="m 324.056,92.477 c 3.333,-1.9 8,-3.833 14,-5.8 1.533,-4.4 3.767,-7.467 6.7,-9.2 5.033,-3.034 10.767,-0.45 17.2,7.75 l 1.2,-0.4 c 0.3,-0.6 0.717,-1.383 1.25,-2.35 3,-5.434 6.617,-7.2 10.85,-5.3 1.333,0.533 2.6,1.367 3.8,2.5 l 0.2,-0.1 0.15,0.35 c 2.3,2.2 4.534,5.367 6.7,9.5 3.3,6.5 5.333,13.417 6.1,20.75 0.667,6.733 0.05,12.5 -1.85,17.3 0.133,1.3 0,2.667 -0.4,4.1 -0.033,0.1 -0.05,0.184 -0.05,0.25 -0.367,1.1 -0.75,2 -1.15,2.7 0.267,1.933 0.3,4.083 0.1,6.45 15.367,4.667 14.3,31.5 -3.2,80.5 -2.733,4.733 -3.716,9.733 -2.95,15 0.767,5.233 0.5,13.433 -0.8,24.6 -1.367,11.2 -0.933,21.017 1.3,29.45 2.233,8.433 3.233,19.717 3,33.85 -0.233,14.167 -1.533,24.433 -3.9,30.8 -2.3,6.333 -5.883,12.267 -10.75,17.8 7.133,-1.633 15.2,-3.017 24.2,-4.15 9,-1.167 22.8,-3.9 41.4,-8.2 18.567,-4.3 33.45,-6.167 44.65,-5.6 2.033,0.133 4.15,0.3 6.35,0.5 10.5,1.233 18.467,2.15 23.9,2.75 3.3,0.367 6.399,0.65 9.3,0.85 -4.866,-1.333 -7.467,-1.833 -7.8,-1.5 -0.634,0.633 -2.2,0.683 -4.7,0.15 l -3.55,-1 c -0.667,-0.667 -1.05,-1.15 -1.15,-1.45 v -0.3 c -0.166,0.1 -0.283,0.117 -0.35,0.05 -0.134,-0.066 0.133,-0.433 0.8,-1.1 0.2,-0.2 0.767,-0.4 1.7,-0.6 0.899,-0.167 1.467,-0.367 1.7,-0.6 1.8,-1.8 5.633,-1.783 11.5,0.05 2.566,0.8 6.483,2.083 11.75,3.85 0.866,0.133 1.733,0.317 2.6,0.55 -0.033,-0.034 -0.083,-0.067 -0.15,-0.1 -3.466,-1.367 -5.25,-2.067 -5.35,-2.1 -0.667,-0.567 -1.083,-0.917 -1.25,-1.05 -0.2,-0.2 0.033,-0.65 0.7,-1.35 0.566,-0.533 2.517,-0.4 5.85,0.4 0.8,0.167 1.65,0.383 2.55,0.65 0.634,-0.1 1.384,-0.167 2.25,-0.2 -0.666,-0.333 -1.449,-0.667 -2.35,-1 -1,-0.934 -1.6,-1.483 -1.8,-1.65 -0.267,-0.233 -0.05,-0.683 0.649,-1.35 0.134,-0.167 0.717,-0.383 1.75,-0.65 1,-0.267 1.601,-0.5 1.801,-0.7 0.433,-0.467 4.533,0.25 12.3,2.15 3.833,0.9 7.184,1.6 10.05,2.1 h 0.05 c -6.1,-1.567 -10.25,-2.6 -12.45,-3.1 1.801,-0.8 5.017,-0.867 9.65,-0.2 0.8,-0.1 2.15,-0.233 4.05,-0.4 -0.2,-0.1 -0.399,-0.183 -0.6,-0.25 l -0.2,-0.75 c 1.467,0.233 2.884,0.45 4.25,0.65 0.8,-0.066 1.283,-0.083 1.45,-0.05 h 1 c -1.4,-0.6 -2.384,-1.05 -2.95,-1.35 -1.066,-0.433 -1.75,-1.017 -2.05,-1.75 1.666,0.067 4.517,-0.3 8.55,-1.1 l 0.45,-0.2 c -4.5,-1.267 -6.917,-1.95 -7.25,-2.05 -0.367,-0.066 -0.634,-0.15 -0.8,-0.25 -0.434,-0.367 -0.317,-0.883 0.35,-1.55 0.333,-0.333 0.9,-0.317 1.7,0.05 1.733,0.8 2.633,1.217 2.7,1.25 0.966,0.333 1.933,0.434 2.899,0.3 v -0.05 c 0.066,-0.033 0.117,-0.017 0.15,0.05 1.833,-0.333 3.649,-1.4 5.45,-3.2 2,0.633 3.649,1.9 4.949,3.8 0.867,0.566 2,1.417 3.4,2.55 -1.167,-1.4 -2.417,-2.85 -3.75,-4.35 l -0.35,-2.3 0.85,0.5 6.75,6.75 c -0.9,-1.833 -1.816,-3.934 -2.75,-6.3 1.033,0.7 2.733,2.567 5.1,5.6 0.867,1.033 1.667,2 2.4,2.9 0.3,0.067 0.6,0.133 0.9,0.2 -0.167,-0.333 -0.317,-0.667 -0.45,-1 -1.2,-2.9 -1.851,-4.767 -1.95,-5.6 l 0.45,-0.1 c 0.267,0.233 0.8,1.517 1.6,3.85 0.467,1.067 1.017,2.117 1.65,3.15 11.133,2.967 20.75,10.333 28.85,22.1 8.767,12.7 13.084,26.583 12.95,41.65 -0.066,12.133 -3.217,22.934 -9.45,32.4 1.033,3.533 0.483,10.233 -1.649,20.1 -0.9,3.967 -1.983,8.15 -3.25,12.55 -1.101,3.667 -1.717,5.566 -1.851,5.7 -0.399,0.4 -1.033,0.733 -1.899,1 -1.301,0.367 -2.434,0.067 -3.4,-0.9 -0.533,-0.533 -1.167,-3.1 -1.9,-7.7 -0.733,-4.967 -1.133,-7.483 -1.199,-7.55 -0.067,0.5 -0.067,3.617 0,9.35 -0.067,5.633 -0.483,8.833 -1.25,9.6 -0.534,0.533 -1.117,0.933 -1.75,1.2 -1.233,0.467 -2.317,0.233 -3.25,-0.7 -0.101,-2.167 -0.301,-4.5 -0.601,-7 -0.566,-4.9 -1.5,-8.2 -2.8,-9.9 0.066,4.966 0.1,7.517 0.1,7.65 -0.066,3.633 -0.366,5.983 -0.899,7.05 l -1.75,1.05 -0.8,-0.2 c -0.434,-0.167 -0.967,-0.583 -1.601,-1.25 -0.6,-0.567 -1.083,-3.2 -1.45,-7.9 -0.233,-3.4 -0.35,-6.4 -0.35,-9 l -0.3,-0.35 c -0.167,0.367 -0.867,3.333 -2.101,8.9 -1.033,4.667 -2.083,7.55 -3.149,8.65 -1.066,1.067 -1.55,1.417 -1.45,1.05 l -0.75,0.05 c -0.533,-0.066 -1.134,-0.417 -1.8,-1.05 -1.667,-1.7 -2.033,-4.45 -1.101,-8.25 1.034,-4.067 1.184,-6.684 0.45,-7.85 -0.366,1.767 -1.3,4.817 -2.8,9.15 -1.866,5.133 -3.316,8.217 -4.35,9.25 -1.101,1.1 -1.551,1.45 -1.351,1.05 h -0.649 c -0.434,0 -0.983,-0.317 -1.65,-0.95 -0.866,-0.9 -1.033,-2.933 -0.5,-6.1 0.033,-0.167 0.583,-2.383 1.65,-6.65 -0.934,1.9 -2.2,5.083 -3.801,9.55 -1.533,4.4 -2.85,7.667 -3.949,9.8 l -1.801,1.15 -0.6,-0.05 c -0.366,-0.067 -0.866,-0.417 -1.5,-1.05 -1.566,-1.566 -1.366,-5.017 0.6,-10.35 2.5,-5.5 3.934,-8.7 4.301,-9.6 0.033,-0.267 0.017,-0.434 -0.051,-0.5 -0.166,-0.167 -0.6,0.083 -1.3,0.75 -0.267,0.267 -0.983,1.75 -2.149,4.45 -1.2,2.7 -2.45,4.717 -3.75,6.05 -0.967,0.933 -2,1.85 -3.101,2.75 -0.066,0.1 -0.166,0.167 -0.3,0.2 -0.233,0.1 -0.684,-0.183 -1.35,-0.85 -0.9,-0.9 -1.167,-2.1 -0.801,-3.6 0.167,-0.5 0.551,-1.35 1.15,-2.55 l -0.15,-0.15 c -1.133,1.8 -2.35,3.333 -3.649,4.6 -1.028,1.028 -1.494,1.395 -1.4,1.1 -0.034,0.1 -0.102,0.15 -0.2,0.15 -0.233,0.1 -0.683,-0.2 -1.35,-0.9 -0.667,-0.667 -0.417,-2.717 0.75,-6.15 1.5,-3.833 2.417,-6.283 2.75,-7.35 l -0.7,0.4 c -2.666,4.333 -4.85,7.483 -6.55,9.45 l -1.25,0.9 c -0.366,0.1 -0.917,-0.2 -1.65,-0.9 -0.433,-0.433 -0.566,-1.05 -0.399,-1.85 0.267,-0.833 0.416,-1.417 0.45,-1.75 l -0.2,-0.1 c -1.601,1.6 -3.101,3 -4.5,4.2 -0.066,0.1 -0.167,0.15 -0.3,0.15 -0.2,0.1 -0.634,-0.184 -1.301,-0.85 -0.699,-0.667 -0.85,-1.6 -0.449,-2.8 0.433,-1.167 0.3,-2.1 -0.4,-2.8 -1.066,-1.1 0.167,-3.483 3.7,-7.15 4.133,-3.767 6.55,-6.017 7.25,-6.75 l -0.45,-0.5 c -0.9,0.6 -3.634,2.05 -8.2,4.35 -3.434,1.733 -6.017,3.466 -7.75,5.2 -0.066,-0.066 -0.316,-0.1 -0.75,-0.1 -0.467,-0.1 -0.916,-0.233 -1.35,-0.4 -0.467,-1.5 0.05,-2.95 1.55,-4.35 1.9,-1.5 3.15,-2.683 3.75,-3.55 l 0.15,-0.5 c -0.767,0.467 -1.634,1.117 -2.601,1.95 -0.934,0.633 -2.05,0.8 -3.35,0.5 0.033,-2.567 1.166,-4.717 3.399,-6.45 2.267,-1.333 4.017,-2.467 5.25,-3.4 -0.333,0 -0.666,0 -1,0 -1.033,0.566 -2.399,1.367 -4.1,2.4 -3.066,1.833 -5.384,3.4 -6.95,4.7 -0.033,-0.067 -0.35,-0.2 -0.95,-0.4 -0.6,-0.233 -1.149,-0.533 -1.649,-0.9 0,-0.867 0.6,-1.883 1.8,-3.05 0.333,-0.3 0.566,-0.633 0.7,-1 -4.834,3.267 -9.267,5.333 -13.3,6.2 -0.634,-0.667 -0.634,-1.65 0,-2.95 -5.7,1.8 -12.767,4.633 -21.2,8.5 -9.967,4.633 -17.55,7.9 -22.75,9.8 l -0.75,-0.8 c -0.167,-0.3 -0.267,-0.5 -0.3,-0.6 0,-0.067 0.333,-0.433 1,-1.1 0.367,-0.367 1.033,-0.767 2,-1.2 -3.833,0.566 -8.083,1.05 -12.75,1.45 -0.2,0.067 -0.367,0.117 -0.5,0.15 -10.233,2.534 -16.983,4.2 -20.25,5 -0.033,-0.267 -0.05,-0.45 -0.05,-0.55 0.066,-0.1 0.45,-0.5 1.15,-1.2 0.333,-0.333 2.067,-1.2 5.2,-2.6 -1.934,0.033 -3.9,0.05 -5.9,0.05 -2.733,0.933 -6.417,2.183 -11.05,3.75 0.2,-0.4 0.817,-1.333 1.85,-2.8 0.267,-0.3 0.5,-0.617 0.7,-0.95 -0.466,0 -0.9,0 -1.3,0 -6.233,2.7 -11.767,4.65 -16.6,5.85 l -0.9,-0.65 c 4.433,-2.1 8.267,-3.9 11.5,-5.4 -2.133,-0.066 -4.283,-0.167 -6.45,-0.3 -5.633,1.9 -9.367,3.05 -11.2,3.45 -0.167,0.066 -0.283,0.066 -0.35,0 -0.1,-0.1 0.183,-0.483 0.85,-1.15 0.233,-0.233 2.417,-1.066 6.55,-2.5 -1.3,-0.066 -2.6,-0.133 -3.9,-0.2 -3.033,1.1 -5.833,2.033 -8.4,2.8 l -0.45,-0.5 0.75,-1.05 c 1.267,-0.6 2.467,-1.133 3.6,-1.6 -0.967,-0.067 -1.9,-0.133 -2.8,-0.2 -0.233,0.133 -0.483,0.3 -0.75,0.5 l -0.75,-0.15 c -4.7,1.567 -8.017,2.583 -9.95,3.05 l -0.5,-0.5 0.55,-0.8 c 1.367,-0.633 2.817,-1.283 4.35,-1.95 -3.633,0.466 -7.217,0.867 -10.75,1.2 -1.667,1 -3.217,2.017 -4.65,3.05 h -0.65 c -0.067,-0.233 -0.083,-0.417 -0.05,-0.55 0.1,-0.133 0.517,-0.566 1.25,-1.3 0.3,-0.3 0.684,-0.6 1.15,-0.9 -5,0.4 -9.85,0.6 -14.55,0.6 -6.233,0.034 -12.066,-0.283 -17.5,-0.95 -21.066,-11.4 -37,-19.633 -47.8,-24.7 -10.8,-5.1 -15.717,-9.483 -14.75,-13.15 -4.434,-8.567 -3.35,-18.367 3.25,-29.4 1.033,-6.934 0.55,-15.783 -1.45,-26.55 -2.033,-10.667 0.333,-21.617 7.1,-32.85 -0.533,-1.8 -0.983,-3.617 -1.35,-5.45 -0.5,-2.733 -0.8,-5.233 -0.9,-7.5 -0.167,-0.4 -0.317,-0.75 -0.45,-1.05 l 0.4,-0.05 c -0.034,-1.3 0.05,-2.55 0.25,-3.75 1.066,2.2 2.066,5.167 3,8.9 0.2,-1.667 0.4,-2.966 0.6,-3.9 0.367,-1.2 0.7,-2.433 1,-3.7 -0.133,-2.5 -0.367,-4.767 -0.7,-6.8 -1.934,-5.733 -3.133,-9.583 -3.6,-11.55 0.433,-0.233 0.9,-0.617 1.4,-1.15 0.133,0.133 0.267,0.133 0.4,0 0.1,0.367 0.3,0.917 0.6,1.65 l 0.45,-0.25 c 0.367,0.367 0.85,1.283 1.45,2.75 0.1,0.2 0.483,1.717 1.15,4.55 0.333,0.8 0.683,1.633 1.05,2.5 0.3,-1 0.6,-1.983 0.9,-2.95 -3.267,-9.067 -5.517,-15.317 -6.75,-18.75 0.467,-0.5 0.983,-0.667 1.55,-0.5 0,-0.034 -0.017,-0.083 -0.05,-0.15 l 0.55,0.2 0.1,0.25 c 0.467,0.3 1.017,0.8 1.65,1.5 -0.333,-0.833 -0.684,-1.667 -1.05,-2.5 l 0.9,-0.1 c 1.434,3.3 2.6,5.934 3.5,7.9 0.4,0.667 0.8,1.434 1.2,2.3 -0.367,-1.7 -0.733,-3.333 -1.1,-4.9 -1.367,-4.133 -2.5,-7.333 -3.4,-9.6 l 0.55,-0.35 1.1,2.1 c -0.767,-3.467 -1.417,-6.25 -1.95,-8.35 0.433,-0.467 0.966,-0.817 1.6,-1.05 1.434,2.767 2.9,6.15 4.4,10.15 0.4,0.667 0.8,1.35 1.2,2.05 -0.4,-3.1 -0.7,-5.883 -0.9,-8.35 -0.4,-1.267 -0.767,-2.383 -1.1,-3.35 l 0.55,-0.15 c 0.167,0.167 0.283,0.333 0.35,0.5 0,-0.8 -0.017,-1.55 -0.05,-2.25 -0.333,-0.933 -0.667,-1.933 -1,-3 l 0.9,-0.1 c 0.067,0.066 0.117,0.167 0.15,0.3 0,-0.233 0,-0.433 0,-0.6 l 0.25,-0.1 c -0.466,-2.767 -0.667,-4.8 -0.6,-6.1 -4.167,-10.534 -6.1,-16.534 -5.8,-18 0.3,-0.133 0.85,-0.217 1.65,-0.25 0.767,0 1.367,0.033 1.8,0.1 l 0.55,0.95 c 0.333,0.7 0.467,1.133 0.4,1.3 l -2.1,-1.1 c 3.466,5.1 6.883,10.933 10.25,17.5 -0.067,-0.333 -0.15,-0.667 -0.25,-1 -3.367,-9.867 -5.417,-17.184 -6.15,-21.95 h 0.05 c -0.167,-0.567 -0.2,-0.9 -0.1,-1 0.733,-0.733 1.55,-1.217 2.45,-1.45 0.1,-0.033 0.216,-0.05 0.35,-0.05 -0.633,-2.133 -1.2,-4.1 -1.7,-5.9 0.033,-0.1 0.117,-0.217 0.25,-0.35 0.233,-0.167 0.45,-0.283 0.65,-0.35 2.1,4.2 4.05,8.633 5.85,13.3 0.167,-0.2 0.316,-0.367 0.45,-0.5 0.467,0.466 0.917,0.966 1.35,1.5 -0.2,-1.4 -0.383,-2.6 -0.55,-3.6 0.233,-0.233 0.4,-0.417 0.5,-0.55 -0.167,-0.3 -0.317,-0.533 -0.45,-0.7 0.3,-0.2 0.617,-0.333 0.95,-0.4 -0.6,-2.2 -1.184,-4.184 -1.75,-5.95 0.967,1.733 1.867,3.633 2.7,5.7 0.733,-0.067 1.45,0.033 2.15,0.3 -0.1,-0.467 -0.2,-0.95 -0.3,-1.45 -0.566,-1.2 -1.117,-2.466 -1.65,-3.8 -2.8,-7.033 -3.85,-11.533 -3.15,-13.5 l 0.2,-0.2 c 0.2,1.534 1.067,4.184 2.6,7.95 -0.133,-0.767 -0.25,-1.467 -0.35,-2.1 l 0.5,-0.5 0.3,-0.2 c 0.333,0.033 0.833,0.383 1.5,1.05 0.133,0.133 0.233,0.25 0.3,0.35 -1.6,-3.667 -2.633,-5.8 -3.1,-6.4 l 0.8,-0.8 c 0.633,0.9 1.233,1.75 1.8,2.55 -0.566,-2.034 -0.767,-3.367 -0.6,-4 0.067,-0.233 0.15,-0.417 0.25,-0.55 -0.2,-0.667 -0.4,-1.35 -0.6,-2.05 -1.067,-1.6 -1.934,-2.767 -2.6,-3.5 0.133,-0.133 0.316,-0.5 0.55,-1.1 0.367,-0.833 0.567,-1.283 0.6,-1.35 1.333,0.667 2.917,1.85 4.75,3.55 0.067,-0.3 0.117,-0.617 0.15,-0.95 l -3,-2.95 c -0.7,-0.833 -1.316,-1.75 -1.85,-2.75 -0.7,-1.167 -1.05,-1.95 -1.05,-2.35 0.733,0.066 1.467,0.133 2.2,0.2 -1.633,-1.867 -2.55,-3.117 -2.75,-3.75 -0.133,-0.333 -0.067,-0.683 0.2,-1.05 0.3,-0.4 0.267,-0.967 -0.1,-1.7 0.733,-0.2 3.45,2 8.15,6.6 0.133,0.067 0.216,0.15 0.25,0.25 0.167,-0.033 0.333,-0.05 0.5,-0.05 0.6,-1.534 0.966,-2.517 1.1,-2.95 0.034,-0.167 -0.133,-0.367 -0.5,-0.6 -0.833,-0.333 -1.267,-0.5 -1.3,-0.5 -0.333,-0.767 -0.433,-1.433 -0.3,-2 0.966,-0.3 1.7,-0.5 2.2,-0.6 0.8,-0.1 1.467,0.017 2,0.35 l 0.8,-0.2 c -1.7,-0.767 -4.017,-1.55 -6.95,-2.35 -2.367,-0.667 -3.65,-1.117 -3.85,-1.35 -0.667,-0.667 -1,-1.117 -1,-1.35 l 0.15,-0.1 c -0.066,-0.233 -0.1,-0.383 -0.1,-0.45 0,-0.067 0.35,-0.434 1.05,-1.1 0.267,-0.267 1.967,-0.117 5.1,0.45 1.267,-0.534 2.967,-1.2 5.1,-2 -0.233,-0.534 -0.434,-1.034 -0.6,-1.5 -3.133,0.7 -6.1,1.05 -8.9,1.05 -0.233,0.067 -0.383,0.067 -0.45,0 -0.2,-0.167 0.033,-0.583 0.7,-1.25 0.9,-0.9 3.483,-1.817 7.75,-2.75 -0.2,-1.633 0.466,-2.783 2,-3.45 l 0.8,-1.15 c -0.567,0 -1.65,0.3 -3.25,0.9 -1.633,0.567 -2.817,0.817 -3.55,0.75 -1,-1.367 -1.383,-2.45 -1.15,-3.25 0.067,-0.333 0.383,-0.783 0.95,-1.35 0.767,-0.767 2.083,-1.75 3.95,-2.95 0.267,-0.167 0.566,-0.317 0.9,-0.45 -6.8,-9.433 -10.983,-21.1 -12.55,-35 -0.267,0.333 -0.583,0.65 -0.95,0.95 -0.367,0.8 -0.684,1.667 -0.95,2.6 -0.667,3.767 -1.066,5.867 -1.2,6.3 -0.467,1.133 -1.434,2.533 -2.9,4.2 -3,3.433 -5.917,3.883 -8.75,1.35 -2.167,-1.867 -2.816,-4.217 -1.95,-7.05 0.133,-0.367 1.017,-2.117 2.65,-5.25 0.7,-1.3 1.283,-3.033 1.75,-5.2 0.367,-2.4 0.633,-4.217 0.8,-5.45 -1.7,2.4 -2.767,3.833 -3.2,4.3 -1,1.167 -2,2.083 -3,2.75 -1.067,0.5 -1.983,0.8 -2.75,0.9 -1.9,1.2 -3.583,1.117 -5.05,-0.25 -2.733,-2.367 -3.283,-5.1 -1.65,-8.2 2.167,-2.5 3.283,-3.783 3.35,-3.85 0.233,-0.267 0.767,-0.617 1.6,-1.05 0.767,-0.434 1.283,-0.817 1.55,-1.15 0.3,-0.333 1.033,-1.534 2.2,-3.6 0.633,-1.434 1.15,-2.467 1.55,-3.1 0.2,-0.3 0.35,-0.533 0.45,-0.7 0.7,-0.767 1.833,-1.867 3.4,-3.3 0.933,-0.867 1.65,-1.5 2.15,-1.9 0.133,-0.5 0.25,-0.95 0.35,-1.35 0.3,-0.667 0.783,-1.483 1.45,-2.45 0.2,-0.3 0.333,-0.533 0.4,-0.7 1.233,-2.733 2.733,-5.05 4.5,-6.95 2.233,-2.6 4.1,-4.833 5.6,-6.7 0.6,-2 0.9,-3.05 0.9,-3.15 1.8,-4.6 3.267,-7.833 4.4,-9.7 0.133,-0.333 0.267,-0.617 0.4,-0.85 0.533,-1 1.317,-1.95 2.35,-2.85 0.367,-0.467 0.783,-0.967 1.25,-1.5 l 0.15,0.4 c 0.803,-0.634 1.736,-1.251 2.803,-1.85 z m -3.2,154.5 c 0.433,1.3 0.833,2.433 1.2,3.4 0.033,0.033 0.066,0.083 0.1,0.15 0.167,0.133 0.333,0.25 0.5,0.35 0,-0.1 0.034,-0.217 0.1,-0.35 -0.533,-1 -0.983,-1.967 -1.35,-2.9 -0.167,-0.234 -0.35,-0.451 -0.55,-0.65 z m -2.8,2.399 c -0.434,-0.467 -0.667,-0.717 -0.7,-0.75 l -0.35,-0.95 c 0,0.167 0,0.35 0,0.55 l 0.95,1.6 c 0.1,-0.033 0.133,-0.183 0.1,-0.45 z m -1.15,-2.149 c 0.067,-0.034 0.133,-0.083 0.2,-0.15 -0.133,-0.267 -0.25,-0.5 -0.35,-0.7 0.067,0.233 0.117,0.516 0.15,0.85 z m 0.35,19.049 c -0.133,-0.233 -0.3,-0.483 -0.5,-0.75 0.133,0.333 0.25,0.75 0.35,1.25 0.067,-0.2 0.117,-0.366 0.15,-0.5 z m -11.6,-11.299 c -0.5,0.233 -0.833,0.417 -1,0.55 0.733,1.033 1.5,2.217 2.3,3.55 -0.434,-1.467 -0.867,-2.834 -1.3,-4.1 z m 268.65,89.849 c -2.334,-0.2 -4.417,0.184 -6.25,1.15 0.233,0.233 0.684,0.5 1.35,0.8 0.634,0.233 1.15,0.417 1.55,0.55 0.2,0.333 0.534,0.567 1,0.7 0.067,0.1 0.051,0.233 -0.05,0.4 0.533,-0.066 1.066,-0.133 1.601,-0.2 -2.301,-0.967 -3.884,-1.583 -4.75,-1.85 v -0.6 c 3.133,0.433 5.966,0.933 8.5,1.5 -1.168,-0.833 -2.151,-1.65 -2.951,-2.45 z m -143.25,131.7 c -0.167,0.467 -0.4,0.85 -0.7,1.15 1.4,-0.367 2.717,-0.733 3.95,-1.1 -1.067,0 -2.15,-0.016 -3.25,-0.05 z"
   id="path8"
   style="fill-rule:evenodd" />
</g>
<g
   id="Layer_6">
	<path
   d="m 718.506,930.977 c 0.633,5.033 1.083,9.8 1.35,14.3 -0.533,-0.1 -1.066,-0.267 -1.6,-0.5 -1.067,-0.434 -1.767,-0.967 -2.101,-1.6 -0.333,1 -0.566,3.216 -0.7,6.649 -0.1,3.334 -0.433,5.783 -1,7.351 l -0.449,0.5 c -0.4,0.033 -1.034,-0.267 -1.9,-0.9 l -2.2,-1.6 c 0,0.1 0,0.216 0,0.35 0.2,2.533 0.384,4.4 0.55,5.6 -0.1,0.301 -0.399,0.5 -0.899,0.601 0.033,0.1 0.05,0.217 0.05,0.35 -0.167,3.134 -0.517,5.3 -1.05,6.5 l -0.95,0.351 c -0.3,-0.667 -0.6,-1.517 -0.9,-2.551 l -0.399,0.2 c -0.267,0.134 -0.483,0.233 -0.65,0.3 -0.467,0.034 -0.684,-0.416 -0.649,-1.35 l -0.051,-0.05 -2.35,5.45 c 0.033,0.133 -0.017,0.233 -0.15,0.3 -0.1,0.066 -0.216,0.083 -0.35,0.05 l -0.45,0.3 c -0.166,-0.166 -0.383,-0.383 -0.649,-0.649 -0.067,0 -0.134,-0.034 -0.2,-0.101 -0.434,-0.166 -0.733,-0.434 -0.9,-0.8 -0.233,0.3 -0.483,0.583 -0.75,0.85 -0.066,0.034 -0.1,0.084 -0.1,0.15 -0.167,0.366 -0.334,0.75 -0.5,1.15 -0.4,1.033 -0.816,2.017 -1.25,2.949 -0.4,0.934 -0.884,3.101 -1.45,6.5 -0.667,3.567 -1.017,5.4 -1.05,5.5 -0.167,0.4 -0.467,0.7 -0.9,0.9 0.233,-2.366 0.867,-6.384 1.9,-12.05 h -0.05 c -0.334,-0.134 -0.567,-0.233 -0.7,-0.3 -0.066,-0.034 -0.101,-0.233 -0.101,-0.601 -1.699,2.566 -3.683,5.233 -5.949,8 -2.434,2.9 -4.717,5.117 -6.851,6.65 -1.1,2.333 -2.066,4.366 -2.899,6.1 l -0.95,-0.149 c 0.5,-1.367 1.1,-2.9 1.8,-4.601 -1.134,0.601 -2.2,1.017 -3.2,1.25 -0.467,1.367 -0.833,2.334 -1.1,2.9 -0.434,1 -1.334,2.7 -2.7,5.1 l -0.6,-0.3 c 1.066,-2.733 2.033,-5.25 2.899,-7.55 -0.566,-0.033 -1.133,-0.134 -1.7,-0.3 -1.533,1.166 -3.066,2.316 -4.6,3.449 -0.3,0.534 -0.6,1.101 -0.9,1.7 -2.166,3.4 -4.883,4.95 -8.149,4.65 -8.9,5.934 -18.233,11.35 -28,16.25 -0.667,1.033 -1.367,2.05 -2.101,3.05 -4.133,5.566 -8.017,8.366 -11.649,8.4 -3.767,0.1 -9.4,2.833 -16.9,8.199 -2.033,1.5 -3.7,2.75 -5,3.75 -1.1,4.034 -1.967,6.784 -2.6,8.25 -0.367,0.867 -0.884,1.667 -1.55,2.4 -0.4,0.4 -0.917,0.884 -1.551,1.45 0.334,-2.667 0.983,-5.8 1.95,-9.4 -1.2,0.767 -1.95,1.101 -2.25,1 -0.267,-0.133 -0.55,-0.416 -0.85,-0.85 -0.101,0.233 -0.2,0.483 -0.3,0.75 -0.634,1.399 -1.934,4.083 -3.9,8.05 -2.3,4.667 -4.184,8.316 -5.65,10.95 l -1.25,-0.55 c 2.434,-8.034 3.767,-12.417 4,-13.15 0.567,-1.8 1.117,-3.483 1.65,-5.05 -3.1,2.899 -6.684,6.416 -10.75,10.55 -1.967,5.233 -3.65,9.95 -5.05,14.15 l -0.9,1.449 c -0.333,0.334 -0.816,0.517 -1.45,0.551 -0.166,-2.7 0.25,-5.967 1.25,-9.801 -1.8,1.967 -3.716,4 -5.75,6.101 -3.933,3.8 -7.366,6.7 -10.3,8.7 -0.934,2.3 -1.7,4.116 -2.3,5.449 -0.6,1.367 -0.884,1.851 -0.85,1.45 h -0.801 c -0.6,0.066 -1.199,0 -1.8,-0.2 0.167,-1.199 0.5,-2.616 1,-4.25 -1.666,0.567 -3.116,0.733 -4.35,0.5 -0.5,1.567 -0.867,2.834 -1.101,3.801 -0.433,0.333 -0.75,0.55 -0.949,0.649 -0.4,0.233 -0.801,0.351 -1.2,0.351 -1.2,-1.367 -1.5,-3.733 -0.9,-7.101 -0.6,0.566 -1.333,1.334 -2.2,2.3 -1.633,1.567 -3.283,2.567 -4.949,3 -0.601,-1.033 -0.884,-2.149 -0.851,-3.35 0,-1.033 0.167,-1.95 0.5,-2.75 0.3,-0.634 1.334,-2.116 3.101,-4.45 -1,0.601 -2.117,1.084 -3.351,1.45 -2.133,2.167 -4.25,3.717 -6.35,4.65 -0.634,-0.434 -1.05,-0.733 -1.25,-0.9 -0.2,-0.333 -0.117,-0.934 0.25,-1.8 0.233,-0.533 1,-1.717 2.3,-3.55 -0.033,-0.167 -0.066,-0.317 -0.1,-0.45 -0.233,0.133 -0.851,0.833 -1.851,2.1 -2.434,3.434 -4.55,6.233 -6.35,8.4 -0.434,0.166 -0.934,0.184 -1.5,0.05 -0.367,-2.6 0.35,-6 2.149,-10.2 0.2,-0.434 0.4,-0.85 0.601,-1.25 0,-0.033 0,-0.083 0,-0.149 -0.334,0.166 -0.667,0.333 -1,0.5 -0.8,1.566 -1.884,2.966 -3.25,4.199 -0.101,-0.033 -0.184,-0.083 -0.25,-0.149 -0.9,1.467 -1.634,2.684 -2.2,3.649 l -1.8,-0.25 -1,-0.649 c -0.7,1.166 -1.4,2.166 -2.101,3 l -1.35,-0.8 c -0.2,-0.801 -0.167,-2.233 0.1,-4.301 0.034,-0.166 0.034,-0.366 0,-0.6 -0.1,0 -0.166,0.033 -0.199,0.1 -3.267,6.801 -6.05,11.733 -8.351,14.801 l -1.65,-0.7 c 0.667,-1.533 1.533,-3.934 2.6,-7.2 0.667,-2.1 1.267,-3.884 1.8,-5.35 -0.566,0.166 -1.117,0.3 -1.65,0.399 -0.4,0.601 -0.8,1.267 -1.2,2 -1.667,2.767 -3.017,4.867 -4.05,6.3 l -1.45,-0.6 c 0.8,-2.566 1.517,-4.816 2.15,-6.75 -11.434,17.3 -18.684,25.05 -21.75,23.25 0.633,2.033 1.4,4.434 2.3,7.2 3.333,10.233 3.633,25.5 0.9,45.8 -2.733,20.3 -4.667,34.3 -5.8,42 0,0.167 0,0.316 0,0.45 0.1,1.533 0.15,3.233 0.15,5.1 -0.033,3.066 -0.133,7.233 -0.3,12.5 -0.033,0.733 -0.05,1.467 -0.05,2.2 l -0.65,-0.25 c 0.033,-0.667 0.033,-1.417 0,-2.25 0.067,-3.066 0.033,-6.866 -0.1,-11.4 -0.267,1.767 -0.566,3.483 -0.9,5.15 0.033,1.8 -0.033,3.717 -0.2,5.75 -0.067,1.066 -0.133,2.134 -0.2,3.2 -0.4,4.2 -0.933,8.133 -1.6,11.8 1.333,12.6 2.067,24.816 2.2,36.65 -0.2,0.399 -0.5,0.85 -0.9,1.35 -0.333,0.333 -0.95,0.3 -1.85,-0.1 -0.133,-0.067 -0.267,-0.15 -0.4,-0.25 -0.1,0.066 -0.2,0.149 -0.3,0.25 -0.533,0.233 -1.233,0.166 -2.1,-0.2 -0.733,-0.334 -1.283,-1.15 -1.65,-2.45 -0.167,0.1 -0.433,0.184 -0.8,0.25 0.467,1.767 1.05,3.8 1.75,6.1 1.433,4.733 2.333,8.301 2.7,10.7 -0.2,0.4 -0.617,0.533 -1.25,0.4 -0.667,-2.733 -2.05,-7.167 -4.15,-13.3 0.5,3.199 1,6.949 1.5,11.25 0.3,2.166 0.633,4.85 1,8.05 l 0.75,5.899 -1.5,1.051 -3.5,-6.15 c -2.867,45.566 -9.867,69.866 -21,72.9 -11.167,3.033 -19.583,4.133 -25.25,3.3 -12.867,1.133 -21.4,2.7 -25.6,4.7 l -18.45,7.25 c -0.567,1.366 -1.2,3.166 -1.9,5.399 -0.934,1.867 -2.534,3.483 -4.8,4.851 l -11.5,4.5 c -6.667,3.1 -12.85,5.116 -18.55,6.05 -1.467,1.366 -3.083,2.833 -4.85,4.399 -9,8.101 -16.667,13.834 -23,17.2 0.1,2.634 -0.083,5.2 -0.55,7.7 -0.833,3.9 -2.367,6.467 -4.6,7.7 -3.4,1.899 -5.8,1.583 -7.2,-0.95 -1.233,-2.2 -1.733,-5.033 -1.5,-8.5 0.3,-3.767 1.45,-7.667 3.45,-11.7 0.367,-0.667 0.733,-1.35 1.1,-2.05 -1.3,0.566 -2.617,1.15 -3.95,1.75 -0.1,0.066 -0.2,0.2 -0.3,0.4 -1.633,3.333 -3.1,6.833 -4.4,10.5 -1.033,3.133 -3,5.066 -5.9,5.8 -0.5,0.066 -1.066,0.149 -1.7,0.25 -2.233,3.833 -5.367,5.467 -9.4,4.899 -0.4,0.033 -0.767,-0.066 -1.1,-0.3 -3.1,-3.167 -3.467,-6.767 -1.1,-10.8 0.9,-1.6 1.566,-3.217 2,-4.85 1.133,-4.7 3.05,-9.101 5.75,-13.2 0.867,-1.533 1.983,-2.783 3.35,-3.75 4.767,-4.101 9.517,-8.134 14.25,-12.101 2.667,-2.133 5.2,-4.35 7.6,-6.649 0.4,-0.4 0.8,-0.783 1.2,-1.15 v -0.8 c 0.867,-1.267 2.933,-2.55 6.2,-3.85 v 0.05 c 0.8,-0.467 1.6,-0.9 2.4,-1.3 -0.233,-0.233 -0.367,-0.45 -0.4,-0.65 l 0.15,-1.3 c 0.3,-0.134 1.233,-0.5 2.8,-1.101 0.333,-0.133 0.733,-0.316 1.2,-0.55 2.433,-1.033 3.883,-1.717 4.35,-2.05 l -0.45,-0.1 c -1.133,-0.2 -1.883,-0.617 -2.25,-1.25 -0.133,-0.733 -0.3,-1.25 -0.5,-1.551 l -0.05,-1.649 c 1.333,-0.334 5.35,-1.15 12.05,-2.45 3.367,-0.7 5.683,-1.184 6.95,-1.45 0.367,-0.2 0.7,-0.399 1,-0.6 -0.7,-1.066 -1.067,-1.851 -1.1,-2.351 0.167,-0.466 0.267,-0.733 0.3,-0.8 l 6.25,-0.95 c 1.133,-1 2.267,-1.899 3.4,-2.699 -1.433,-1.034 -2.25,-1.584 -2.45,-1.65 2.433,-0.366 4.717,-0.8 6.85,-1.3 3.7,-2.134 11.333,-5.467 22.9,-10 0.1,-0.101 0.15,-0.184 0.15,-0.25 3.233,-4.066 5.35,-8.434 6.35,-13.101 -1.3,-5.366 -2.367,-10.3 -3.2,-14.8 -0.633,2.2 -1.183,4.217 -1.65,6.05 l -1,1.101 0.05,0.399 c -0.167,0.167 -0.667,0.067 -1.5,-0.3 -1.233,-0.533 -1.4,-3.333 -0.5,-8.399 -0.7,2.333 -1.35,4.533 -1.95,6.6 -0.434,0.3 -0.733,0.483 -0.9,0.55 -0.333,0.101 -0.7,0.117 -1.1,0.05 -0.2,-2.066 0.483,-6.699 2.05,-13.899 -0.333,0.399 -0.633,0.783 -0.9,1.149 l -1.75,-0.75 c 1.567,-3.767 3.767,-9.55 6.6,-17.35 0,-1.634 0.017,-3.316 0.05,-5.05 -1.167,2.166 -2.433,4.467 -3.8,6.899 -0.567,-1.433 -0.467,-3.85 0.3,-7.25 -0.066,0.067 -0.117,0.134 -0.15,0.2 -1.133,-2.033 -1.467,-4.366 -1,-7 0.067,-0.366 0.15,-0.733 0.25,-1.1 -0.467,-1.033 -0.767,-2.467 -0.9,-4.3 -0.2,-2.067 -0.133,-3.617 0.2,-4.65 l 0.65,-0.45 c 0.066,0.233 0.066,1.134 0,2.7 -0.034,1.366 0.083,2.483 0.35,3.35 l 0.15,0.301 c 0.133,-0.367 0.267,-0.75 0.4,-1.15 0.133,-0.8 0.25,-1.55 0.35,-2.25 -0.131,-1.192 -0.098,-2.726 0.1,-4.6 0.133,-0.967 0.25,-1.834 0.35,-2.601 -0.267,-0.066 -0.5,-0.149 -0.7,-0.25 -3.5,-1.533 -3.367,-8.467 0.4,-20.8 -1.2,2.167 -2.184,3.934 -2.95,5.3 l -0.95,-0.149 c 0.566,-1.067 1.15,-2.184 1.75,-3.351 -0.4,0.533 -0.833,1.134 -1.3,1.8 0.133,-1.267 0.367,-2.75 0.7,-4.449 -3.833,6.666 -7.333,12.433 -10.5,17.3 l -1.5,-0.4 -0.15,-0.899 c 0,-0.334 0.2,-0.967 0.6,-1.9 5.5,-9.733 10.6,-18.65 15.3,-26.75 0.133,-0.767 0.267,-1.45 0.4,-2.05 -1.933,3.633 -3.2,5.833 -3.8,6.6 l -0.8,0.15 c 1.267,-3.533 2.95,-8 5.05,-13.4 -0.1,-0.399 -0.184,-0.783 -0.25,-1.149 -0.934,1.866 -1.517,3.05 -1.75,3.55 -0.067,0 -0.25,0.083 -0.55,0.25 -0.333,0.2 -0.65,0.316 -0.95,0.35 0.8,-3.267 2.35,-7.899 4.65,-13.899 1.5,-3.9 2.8,-7.134 3.9,-9.7 0.133,-0.267 0.267,-0.55 0.4,-0.851 0,-0.033 0,-0.066 0,-0.1 v -0.5 c -0.2,0.767 -0.566,1.417 -1.1,1.95 -0.867,0.934 -1.833,1.1 -2.9,0.5 -0.5,-2.733 0.133,-6.2 1.9,-10.4 2.2,-4.5 3.633,-7.666 4.3,-9.5 -1.833,3.101 -3.083,5.417 -3.75,6.95 l -0.45,0.2 c -0.3,0.1 -0.85,-0.033 -1.65,-0.4 -0.867,-0.366 -1.35,-0.649 -1.45,-0.85 l 0.15,-0.2 c 1.233,-4.033 3.233,-9.884 6,-17.55 1.9,-5.4 3.45,-9.783 4.65,-13.15 0.033,-0.633 0.066,-1.267 0.1,-1.899 -2.767,6.267 -4.9,10.966 -6.4,14.1 l -1,0.1 c 1.7,-4.933 4.133,-11.533 7.3,-19.8 0.3,-0.767 0.583,-1.5 0.85,-2.2 0.167,-1.666 0.333,-2.983 0.5,-3.949 0.633,-4.267 1.383,-9.084 2.25,-14.45 -1.567,-34.767 0.35,-58.783 5.75,-72.05 5.4,-13.367 9.367,-19.434 11.9,-18.2 -0.2,-0.601 -0.434,-1.233 -0.7,-1.9 -0.733,-2.2 -1.05,-4.399 -0.95,-6.6 0.066,-1.134 0.216,-2.25 0.45,-3.351 0.167,-1.133 0.4,-2.25 0.7,-3.35 3.8,-11.333 16,-25 36.6,-41 30.8,-23.9 62.633,-45.95 95.5,-66.15 32.833,-20.233 54.633,-37.949 65.399,-53.149 10.767,-15.267 26.95,-36.4 48.551,-63.4 21.566,-27 40.166,-24.466 55.8,7.6 15.633,32.067 24.483,59.267 26.55,81.6 2.134,22.3 -1.634,34.083 -11.3,35.35 0.568,1.936 1.134,5.136 1.701,9.603 z m -223.4,147.149 c -0.033,0 -0.067,0.017 -0.1,0.051 -0.333,0.966 -0.667,1.966 -1,3 l 0.25,0.05 c 0.6,-1.066 1.184,-2.15 1.75,-3.25 -0.3,0.033 -0.6,0.083 -0.9,0.149 z m 217.9,-127.1 -0.101,0.05 c 0,0.134 0.017,0.283 0.05,0.45 0.035,-0.2 0.051,-0.366 0.051,-0.5 z m -344.75,282.75 c -0.667,0.2 -1.167,0.267 -1.5,0.2 -1.033,2.2 -2.117,4.5 -3.25,6.899 l -0.1,0.2 c 0.167,-0.1 0.45,-0.399 0.85,-0.899 0.4,-0.567 0.65,-0.917 0.75,-1.051 l 0.4,0.051 c 0.067,0.033 0.083,0.083 0.05,0.149 0.933,-1.767 1.883,-3.6 2.85,-5.5 l -0.05,-0.049 z m -0.7,28.151 c 0.033,0.267 0.033,0.517 0,0.75 l 0.2,0.1 c 0.1,-0.333 0.2,-0.634 0.3,-0.9 -0.2,-10e-4 -0.367,0.016 -0.5,0.05 z m -0.95,12.949 c 1,-2.233 1.9,-4.416 2.7,-6.55 -1.233,2.5 -2.217,4.434 -2.95,5.8 -0.033,0.467 -0.083,0.884 -0.15,1.25 -0.333,1.067 -0.2,0.9 0.4,-0.5 z m -58.35,100.5 c 0.767,-0.399 1.533,-0.732 2.3,-1 -0.9,0.167 -1.85,0.467 -2.85,0.9 l 0.55,0.1 z m 13.15,-7.3 c -0.433,-0.066 -0.9,-0.133 -1.4,-0.2 -2.767,-0.366 -4.517,-0.517 -5.25,-0.449 -0.933,0.166 -1.417,0.3 -1.45,0.399 0,0.101 0.05,0.267 0.15,0.5 1,0.767 1.533,1.4 1.6,1.9 1.233,-0.134 2.35,-0.25 3.35,-0.351 1.033,-0.665 2.033,-1.266 3,-1.799 z m 10.15,-7.95 c 0.2,0.101 0.85,0.167 1.95,0.2 0.333,-0.166 0.633,-0.333 0.9,-0.5 -0.9,0.101 -1.85,0.2 -2.85,0.3 z m 8.55,-6.449 0.3,0.3 c 0.4,0.2 0.7,0.333 0.9,0.399 0.5,-0.366 0.983,-0.666 1.45,-0.899 -0.8,0.132 -1.683,0.2 -2.65,0.2 z"
   id="path11"
   style="fill-rule:evenodd" />
</g>
<g
   id="Layer_5">
	<path
   d="m 656.256,812.526 c 8.966,1.8 17.949,3.933 26.949,6.4 14.634,4.067 21.7,13.733 21.2,29 -0.467,15.899 -4.717,30.966 -12.75,45.199 -2.533,4.567 -5.267,8.9 -8.2,13 -0.233,2.834 -0.616,5.95 -1.149,9.351 -1.767,11.767 -7.934,26.75 -18.5,44.95 -46.682,25.631 -80.981,33.989 -102.9,25.074 -21.918,-8.914 -45.602,-33.123 -71.05,-72.625 l 2.55,-1.199 -10.55,-6.801 -2.5,0.851 -1.3,-0.75 0.6,-4.95 -1.15,-0.55 0.2,-2.05 -13.3,-10.351 -4.4,-0.3 0.7,-3.75 -1.5,-1.5 c -2.434,-0.934 -5.233,-2 -8.4,-3.2 1.233,-0.3 2.517,-0.467 3.85,-0.5 -0.033,-0.166 -0.05,-0.316 -0.05,-0.45 -1.267,-0.433 -2.583,-0.899 -3.95,-1.399 -2.133,12.1 -4.883,25.217 -8.25,39.35 -1.466,6.066 -2.833,11.75 -4.1,17.05 1.433,6.567 2.3,11.434 2.6,14.601 -0.633,0.899 -1.017,1.366 -1.15,1.399 -0.367,0.233 -0.9,0.2 -1.6,-0.1 -0.233,-0.1 -0.667,-1.017 -1.3,-2.75 -0.033,0.634 -0.083,1.283 -0.15,1.95 0.167,0.467 0.35,0.983 0.55,1.55 1.434,4.333 1.817,7.283 1.15,8.85 -0.433,0.934 -1.216,1.834 -2.35,2.7 -0.534,0.4 -0.983,0.7 -1.35,0.9 -0.2,0.366 -0.383,0.717 -0.55,1.05 0.3,0.533 0.717,1.233 1.25,2.1 0.767,1.733 0.95,3.517 0.55,5.351 -0.367,0.666 -0.617,1.083 -0.75,1.25 -0.267,0.333 -0.733,0.333 -1.4,0 -0.133,-0.033 -0.5,-0.733 -1.1,-2.101 -0.067,-0.233 -0.133,-0.433 -0.2,-0.6 -0.133,0.7 -0.233,1.417 -0.3,2.15 0.033,0.6 0.083,1.3 0.15,2.1 -0.2,0.333 -0.333,0.6 -0.4,0.8 l -0.05,0.05 c -0.066,3 -0.15,4.75 -0.25,5.25 -0.133,1.5 -0.5,2.9 -1.1,4.2 0.633,2.101 1.033,3.667 1.2,4.7 -0.233,0.667 -0.417,1.066 -0.55,1.2 -0.167,0.233 -0.55,0.217 -1.15,-0.05 -0.667,-0.267 -1.6,-1.95 -2.8,-5.051 -0.233,-0.633 -0.467,-1.199 -0.7,-1.699 -0.333,1.333 -0.55,2.466 -0.65,3.399 0.4,1.767 0.95,3.533 1.65,5.3 1.933,4.733 3.066,7.983 3.4,9.75 l -0.85,0.95 c -1,-0.333 -2.183,-1.8 -3.55,-4.399 -0.133,-0.267 -0.233,-0.551 -0.3,-0.851 0.067,0.7 0.167,1.25 0.3,1.65 -0.267,-0.134 -0.65,-0.25 -1.15,-0.351 0.767,1.7 1.65,3.517 2.65,5.45 1.933,4.834 1.966,10.066 0.1,15.7 -0.367,-2.6 -1.066,-5.517 -2.1,-8.75 -0.467,-1.267 -0.9,-2.467 -1.3,-3.6 0.1,2.333 0.217,4.833 0.35,7.5 0.233,4.5 0.4,8.533 0.5,12.1 0,0.066 0.033,0.1 0.1,0.1 -0.4,1.101 -0.65,2.2 -0.75,3.301 0,0.133 -0.233,1.55 -0.7,4.25 0.067,2.8 -5.417,8.083 -16.45,15.85 -11.1,7.7 -24.817,9.583 -41.15,5.65 -0.5,-0.101 -0.983,-0.2 -1.45,-0.301 -3.9,-0.833 -7.033,-1.216 -9.4,-1.149 l -34.25,0.1 c -1.333,0.134 -2.817,0.15 -4.45,0.05 l -20.75,-6.8 -3.2,1.65 -2.65,-1.2 -1.15,0.55 -2.8,-1.2 -12.25,6.601 c -1.667,0.899 -2.5,1.366 -2.5,1.399 -0.2,0.301 -0.117,2.684 0.25,7.15 -0.067,5.066 -1.6,9.384 -4.6,12.95 -1.767,2.166 -4.583,3.166 -8.45,3 -3.033,-0.033 -4.9,-0.384 -5.6,-1.05 -1.233,-1.034 -1.566,-3.301 -1,-6.801 0.934,-6.199 1.383,-11.083 1.35,-14.649 0,-0.167 0,-0.351 0,-0.55 l -0.2,0.1 c -0.3,0.467 -0.717,1.733 -1.25,3.8 -0.6,2.033 -1.617,3.967 -3.05,5.8 -3.233,3.9 -6.233,5.717 -9,5.45 -1.233,-0.1 -2.633,-0.816 -4.2,-2.149 -2.067,-1.733 -2.95,-4.934 -2.65,-9.601 0,-0.033 0.017,-0.083 0.05,-0.149 l 2.2,-4.95 c -2.633,2.566 -5.7,3.6 -9.2,3.1 -2.5,-0.366 -4.483,-1.149 -5.95,-2.35 -2.6,-2.2 -2.25,-6.117 1.05,-11.75 1.233,-2.066 2.7,-4.117 4.4,-6.15 -9.267,5.7 -15.067,7.566 -17.4,5.601 -3.833,-3.2 -3.417,-7.567 1.25,-13.101 4.3,-4.934 10.966,-9.833 20,-14.7 1.466,-0.8 2.95,-1.533 4.45,-2.199 -0.3,-0.301 -0.533,-0.65 -0.7,-1.051 3.933,-0.733 12.6,-2.866 26,-6.399 l 9.45,-2.55 c 15.833,1.833 27.35,2.733 34.55,2.699 6.267,0 12.483,0.684 18.65,2.051 5.2,0.399 11.25,0.166 18.15,-0.7 4.133,-0.566 8.283,-1.3 12.45,-2.2 -0.534,-0.3 -0.684,-0.5 -0.45,-0.6 0.133,-0.101 0.367,-0.134 0.7,-0.101 1,-0.333 2.216,-1.1 3.65,-2.3 1.3,-1.167 2.383,-2.3 3.25,-3.4 -0.434,0.334 -1.25,0.667 -2.45,1 -1.633,0.434 -3.117,0.551 -4.45,0.351 0.066,-0.066 0,-0.184 -0.2,-0.351 -0.133,-0.399 0.017,-1.066 0.45,-2 0.867,-1.866 2.133,-3.283 3.8,-4.25 1.333,-0.699 2.25,-1.35 2.75,-1.949 -0.033,-0.067 -0.05,-0.117 -0.05,-0.15 -0.233,0.134 -0.4,0.25 -0.5,0.35 -0.2,0.067 -0.784,-0.116 -1.75,-0.55 -1.067,-0.467 -2.034,-2.483 -2.9,-6.05 -1.033,-4.134 -0.4,-7.55 1.9,-10.25 -1.133,1.233 -2.167,2.033 -3.1,2.4 l -1.15,-0.25 c -2.034,-2.967 -2.3,-8.384 -0.8,-16.25 0.367,-1.867 0.867,-4.351 1.5,-7.45 0.333,-2.267 0.167,-3.566 -0.5,-3.9 -1.633,-0.7 -1.1,-5.383 1.6,-14.05 l -0.3,-0.4 c 0.033,-0.833 0.033,-1.833 0,-3 -0.4,0.867 -0.767,1.7 -1.1,2.5 -0.633,0.667 -1.3,1.117 -2,1.351 -1.667,-2.033 -2.383,-3.45 -2.15,-4.25 1.7,-4.101 3.167,-7.684 4.4,-10.75 -0.167,-2 -0.367,-4.15 -0.6,-6.45 -1.367,2.533 -2.75,5.3 -4.15,8.3 -0.4,0.634 -0.7,1.033 -0.9,1.2 -0.267,0.3 -0.883,0.233 -1.85,-0.2 -0.867,-0.366 -1.283,-0.6 -1.25,-0.7 0.033,-0.3 -0.033,-0.566 -0.2,-0.8 l 5.15,-12.85 c -1.233,1.399 -2.25,2.25 -3.05,2.55 -0.867,-1.533 -1.183,-2.967 -0.95,-4.3 0.267,-1.667 1.583,-5.816 3.95,-12.45 -0.133,-0.566 -0.25,-1.15 -0.35,-1.75 -0.2,-0.066 -0.417,-0.15 -0.65,-0.25 -0.933,-0.434 -1.383,-0.85 -1.35,-1.25 0.067,-0.233 0.184,-0.7 0.35,-1.4 l 0.8,-1.899 v -0.05 c -0.4,-2.4 -0.783,-4.75 -1.15,-7.051 -0.033,-0.033 -0.066,-0.05 -0.1,-0.05 -0.933,-0.366 -1.367,-0.633 -1.3,-0.8 0.033,-0.1 0.183,-0.116 0.45,-0.05 -0.034,-1.134 -0.034,-2.851 0,-5.15 -3.067,-20.066 -4.65,-37.683 -4.75,-52.85 -0.034,-7.167 -0.434,-18.35 -1.2,-33.55 -1.3,-5.1 -2.65,-11.217 -4.05,-18.35 -4.167,-24.667 -6.25,-37.066 -6.25,-37.2 0,-7.5 0.333,-12.75 1,-15.75 1.066,-4.934 3.017,-8.167 5.85,-9.7 0.434,-2.4 1.05,-5.017 1.85,-7.85 2.467,-8.767 3.9,-14.25 4.3,-16.45 0.333,-1.967 1.816,-4.55 4.45,-7.75 2.6,-3.167 5.733,-6.184 9.4,-9.05 5.967,-4.633 11.284,-7.45 15.95,-8.45 8.9,-6.7 17.883,-9.2 26.95,-7.5 7.966,1.333 17.117,4.733 27.45,10.2 9.6,5.133 15.783,9.617 18.55,13.45 5.233,3.367 10.85,7.383 16.85,12.05 l 63.15,51.1 c 22.899,17.8 45.717,34.4 68.45,49.8 19.333,13.065 40.166,21.915 62.5,26.548 z m -300.2,115.451 c -0.067,-0.3 -0.133,-0.584 -0.2,-0.851 -0.067,0.534 -0.1,1.101 -0.1,1.7 0.1,-0.333 0.2,-0.616 0.3,-0.849 z m 95,-54.451 c -0.067,0.434 -0.133,0.884 -0.2,1.35 1.267,0.167 2.583,0.4 3.95,0.7 0.1,-0.366 0.233,-0.733 0.4,-1.1 -1.233,-0.334 -2.483,-0.717 -3.75,-1.15 -0.133,0.067 -0.267,0.134 -0.4,0.2 z m 9.7,6.1 c -3.733,-0.533 -5.867,-0.8 -6.4,-0.8 1.967,0.334 3.967,0.75 6,1.25 l 2.15,0.25 -1.75,-0.7 z m 9.6,9.9 -0.65,-1.65 -4.05,-0.25 4.7,1.9 z m -34.5,53.401 -0.05,0.25 c -0.133,0.233 -0.217,0.5 -0.25,0.8 0.066,0.2 0.167,0.399 0.3,0.6 -0.033,-0.533 -0.017,-1.05 0.05,-1.55 -0.033,-0.034 -0.05,-0.067 -0.05,-0.1 z m -4.05,24 c 0.033,0.366 0.066,0.716 0.1,1.05 -0.033,0.267 -0.017,0.533 0.05,0.8 0.033,-0.066 0.05,-0.15 0.05,-0.25 0.033,-0.3 0.067,-0.6 0.1,-0.9 -0.167,-0.334 -0.267,-0.567 -0.3,-0.7 z m -1.8,6.8 c -0.267,1.166 -0.6,2.217 -1,3.149 0.2,1.067 0.35,2.051 0.45,2.95 0.267,0.8 0.533,1.55 0.8,2.25 0,-0.899 0,-1.95 0,-3.149 -0.033,-0.167 -0.1,-0.417 -0.2,-0.75 0.1,-0.2 0.167,-0.434 0.2,-0.7 -0.033,-1.101 -0.05,-2.267 -0.05,-3.5 -0.067,-0.034 -0.133,-0.118 -0.2,-0.25 z"
   id="path14"
   style="fill-rule:evenodd" />
</g>
<g
   id="Layer_7">
	<path
   d="m 378.406,401.876 c -4.233,0.3 -7.65,0.717 -10.25,1.25 l 0.95,0.25 c 2.167,0.267 6.767,0.283 13.8,0.05 0.4,0 0.767,0 1.1,0 -1.9,-0.533 -3.767,-1.05 -5.6,-1.55 z m 19.9,7.351 c 1.6,0.333 3.617,0.683 6.05,1.05 0.467,-0.1 0.917,-0.2 1.35,-0.3 -0.7,0 -1.567,-0.05 -2.6,-0.15 -1.4,-0.167 -3,-0.368 -4.8,-0.6 z m -6.1,-3.301 h 0.1 c 0.267,-0.033 0.716,-0.033 1.35,0 -0.167,-0.066 -0.383,-0.133 -0.65,-0.2 -0.267,0.034 -0.533,0.1 -0.8,0.2 z m -42,-10.65 c 0.333,-0.167 0.683,-0.333 1.05,-0.5 -1.633,-0.1 -3.433,-0.2 -5.4,-0.3 -0.367,0.066 -0.55,0.183 -0.55,0.35 0.5,0.133 2.133,0.284 4.9,0.45 z m 8.55,0.5 c -0.533,-0.2 -1.066,-0.367 -1.6,-0.5 -0.566,0.067 -1.1,0.167 -1.6,0.3 1.6,0.1 2.667,0.167 3.2,0.2 z m 60.05,16.9 1,-0.3 -0.15,-0.2 c -1.4,0.133 -2.25,0.417 -2.55,0.85 0.4,-0.033 0.967,-0.15 1.7,-0.35 z m -6.65,-2.55 c -1.3,0.267 -2.483,0.517 -3.55,0.75 4.167,0.5 9.25,1.066 15.25,1.7 -3.967,-0.833 -7.867,-1.65 -11.7,-2.45 z m 227.35,96.601 c -0.101,0.066 -0.15,0.45 -0.15,1.15 0.066,0.7 0.2,1.367 0.4,2 l 0.35,-0.25 c 0,-1.334 -0.2,-2.301 -0.6,-2.9 z m 7.05,-7.951 c -0.2,-0.767 -0.384,-1.517 -0.55,-2.25 -0.233,-1.067 -0.467,-2.133 -0.7,-3.2 -0.334,-0.167 -0.7,-0.316 -1.101,-0.45 0.5,1.3 1.034,2.667 1.601,4.1 0.234,0.567 0.484,1.167 0.75,1.8 z m -45,-21.799 c -0.066,-0.6 -0.117,-1.2 -0.15,-1.8 -1.233,2.833 -2.316,4.917 -3.25,6.25 -0.434,3.5 -0.934,6.983 -1.5,10.45 0.334,1.733 0.65,3.35 0.95,4.85 2,-2.434 3.3,-5.633 3.9,-9.6 -0.167,-0.1 -0.384,-0.2 -0.65,-0.3 0.1,-3.267 0.333,-6.551 0.7,-9.85 z m -23.6,-21.701 c -1.433,1.533 -2.3,2.4 -2.6,2.6 -0.267,0.167 -0.634,0.367 -1.1,0.6 2.1,-0.3 4.466,-0.75 7.1,-1.35 l 0.05,-0.1 c -0.033,0 -0.066,0.017 -0.1,0.05 -1.033,-0.599 -2.15,-1.2 -3.35,-1.8 z m 3,-3.25 c -0.199,0.233 -0.416,0.467 -0.649,0.7 -0.101,0.433 -0.217,0.833 -0.351,1.2 0.4,-0.633 0.733,-1.266 1,-1.9 z m 8.55,9.35 c 0.3,-1.1 0.6,-2.233 0.899,-3.4 -0.267,-0.167 -0.533,-0.333 -0.8,-0.5 -0.434,0.033 -0.9,0.117 -1.4,0.25 -2.366,4.5 -4.383,7.966 -6.05,10.4 2.234,-2 4.684,-4.25 7.351,-6.75 z m -25.45,-2.8 c 1.066,0.267 2.366,0.4 3.899,0.4 1.934,-1.6 4.084,-3.534 6.45,-5.8 -0.166,-0.066 -0.333,-0.167 -0.5,-0.3 1.233,-0.9 2.434,-1.8 3.601,-2.7 -0.367,0.133 -0.717,0.283 -1.051,0.45 -2.3,2.133 -4.783,4.066 -7.449,5.8 -1.534,1 -3.183,1.717 -4.95,2.15 z m -0.2,-14.8 c -0.8,-0.367 -1.583,-0.717 -2.35,-1.05 -2.7,1.333 -5.233,2.45 -7.601,3.35 -1.166,0.467 -2.25,0.85 -3.25,1.15 2.834,0.466 6.3,-0.083 10.4,-1.65 0.968,-0.599 1.901,-1.2 2.801,-1.8 z m 3.9,5.625 c 0.071,-0.086 0.138,-0.144 0.199,-0.175 -0.033,-0.034 -0.066,-0.017 -0.1,0.05 l -0.099,0.125 z m -12,-9.825 c -0.067,0.034 -0.134,0.1 -0.2,0.2 -0.467,0.5 -0.917,0.967 -1.351,1.4 0.934,-0.367 1.784,-0.75 2.551,-1.15 -0.334,-0.133 -0.667,-0.283 -1,-0.45 z m 25.9,-91.8 c 0.267,-0.067 0.55,-0.117 0.851,-0.15 -0.534,-0.3 -1.101,-0.6 -1.7,-0.9 -0.066,-0.034 -0.134,-0.05 -0.2,-0.05 -0.733,-0.333 -1.533,-0.617 -2.4,-0.85 0.301,0.2 0.601,0.417 0.9,0.65 0.799,0.4 1.649,0.834 2.549,1.3 z m -366.25,-67.85 c -2.833,-1.6 -5.983,-3.35 -9.45,-5.25 1.433,1.167 3.05,2.483 4.85,3.95 l 0.2,-0.45 c 2,1.067 4,2.1 6,3.1 -0.533,-0.466 -1.067,-0.916 -1.6,-1.35 z m -47.3,-59.699 c -0.067,0 -0.133,0.017 -0.2,0.05 0.099,-0.033 0.182,-0.016 0.25,0.05 -0.033,-0.035 -0.05,-0.068 -0.05,-0.1 z m 3.95,5.5 c -0.167,-0.367 -0.367,-0.767 -0.6,-1.2 -0.467,-0.167 -0.95,-0.35 -1.45,-0.55 0.633,0.566 1.317,1.149 2.05,1.75 z m -9.35,-10.301 c -1.233,-0.566 -2.167,-1.033 -2.8,-1.4 1.067,1.233 2.25,2.517 3.55,3.85 0.4,-0.267 0.816,-0.5 1.25,-0.7 -0.7,-0.6 -1.367,-1.183 -2,-1.75 z m -12.65,-19.15 c 0.466,-0.4 0.716,-0.65 0.75,-0.75 -1.567,-0.367 -2.717,-0.633 -3.45,-0.8 0.6,0.733 1.467,1.683 2.6,2.85 -0.133,-0.466 -0.1,-0.9 0.1,-1.3 z m 4.65,5.9 v 0.05 c 0.032,-0.032 0.065,-0.032 0.1,0 -0.035,-0.033 -0.068,-0.05 -0.1,-0.05 z m -37.6,-49.85 c 0.067,1 0.133,2.1 0.2,3.3 0.233,-0.934 0.533,-1.95 0.9,-3.05 0.167,-0.4 0.3,-0.767 0.4,-1.1 -0.367,-0.7 -0.7,-1.333 -1,-1.9 -0.133,0.7 -0.3,1.617 -0.5,2.75 z m 33.5,36.651 -0.6,-0.15 c -1.533,-0.333 -2.95,-0.65 -4.25,-0.95 1.2,0.467 2.483,0.983 3.85,1.55 0.367,-0.134 0.7,-0.284 1,-0.45 z m 16.35,-119.051 c 2.267,5.167 3.566,10.233 3.9,15.2 0.267,0.6 0.517,1.233 0.75,1.9 0.867,2.5 1.133,6.65 0.8,12.45 -0.3,5.367 0.117,9.183 1.25,11.45 2.067,5.333 3.383,8.733 3.95,10.2 0.3,0.267 0.617,0.566 0.95,0.9 -0.1,-0.367 -0.167,-0.717 -0.2,-1.05 1.033,-0.3 1.983,-0.034 2.85,0.8 0.1,0.067 0.2,0.15 0.3,0.25 0.9,1.3 1.367,1.967 1.4,2 0.7,1.033 1.317,2.017 1.85,2.95 -0.133,-0.833 -0.217,-1.534 -0.25,-2.1 l 0.75,-0.15 c 0.233,1.433 0.417,2.5 0.55,3.2 0.133,0.533 0.283,1.05 0.45,1.55 0.2,0.333 0.4,0.667 0.6,1 0.5,0.5 0.983,1.017 1.45,1.55 -0.034,-0.333 -0.083,-0.667 -0.15,-1 -0.533,-1.367 -0.983,-2.7 -1.35,-4 0.466,-0.1 0.883,-0.1 1.25,0 l 0.05,-0.05 0.55,-0.4 c 0.034,0.267 0.083,0.534 0.15,0.8 0.233,0.133 0.483,0.333 0.75,0.6 0.066,0.033 0.617,0.8 1.65,2.3 0.1,0.167 0.217,0.35 0.35,0.55 -0.133,-0.333 -0.2,-0.566 -0.2,-0.7 l 1.3,-0.85 c 0.133,0.333 0.284,0.7 0.45,1.1 l 0.2,-0.15 -0.1,-0.25 c 0.133,0 0.467,0.383 1,1.15 0.333,0.533 0.65,1.633 0.95,3.3 0.7,1.3 1.483,2.7 2.35,4.2 0.633,1.133 1.2,2.167 1.7,3.1 1.233,0.867 2.467,1.8 3.7,2.8 0.067,0.067 0.117,0.117 0.15,0.15 -1.5,-3.066 -2.883,-5.8 -4.15,-8.2 l 0.6,-0.35 c 0.3,0.433 0.75,0.967 1.35,1.6 0.633,0.7 1.2,1.383 1.7,2.05 0.867,1.3 1.833,3.583 2.9,6.85 13.2,10.8 25.767,22.767 37.7,35.9 5.767,6.4 12.9,13.783 21.4,22.15 9.867,9.633 17.233,16.85 22.1,21.65 17.867,17.534 31.217,32.467 40.05,44.8 3.5,4.933 5.4,10.117 5.7,15.55 1.1,-0.2 5.3,0.133 12.6,1 8.567,1.067 16.95,2.3 25.15,3.7 11.967,2.167 21.45,4.433 28.45,6.8 12.6,0.7 27.217,2.733 43.85,6.1 24.033,4.867 46.467,11.483 67.3,19.85 -4.167,-2.333 -7.101,-4.733 -8.8,-7.2 2.7,0.833 6.367,2.583 11,5.25 4.567,2.667 8.067,5.1 10.5,7.3 v 0.1 c 1.134,0.467 2.301,0.983 3.5,1.55 0.5,0.233 1,0.467 1.5,0.7 -0.267,-0.233 -0.517,-0.483 -0.75,-0.75 l -2.1,-1.45 c -1.9,-0.767 -3.816,-1.817 -5.75,-3.15 -1.8,-1.267 -4.5,-3.2 -8.1,-5.8 l -0.4,-1 c 1.566,0.233 3.283,0.85 5.15,1.85 3.833,1.3 7.866,3.467 12.1,6.5 3.033,1.4 6.6,3.233 10.7,5.5 0.033,-0.033 0.033,-0.067 0,-0.1 l 0.55,-0.4 c 0.2,0.333 0.333,0.683 0.4,1.05 1.833,0.934 3.733,1.983 5.699,3.15 0.334,-0.034 0.684,-0.034 1.051,0 -0.034,-0.034 -0.051,-0.067 -0.051,-0.1 -1.199,-1.7 -1.983,-2.983 -2.35,-3.85 l 0.55,-0.35 c 0.934,1.367 2.017,2.833 3.25,4.4 0.367,0 0.733,0 1.101,0 4.033,-0.333 8.5,0.233 13.399,1.7 -0.3,-0.933 -0.467,-1.883 -0.5,-2.85 l 0.55,-0.4 c 0.267,0.867 1.267,2.25 3,4.15 0.567,0.233 1.184,0.467 1.851,0.7 0.066,0.033 0.133,0.066 0.2,0.1 0.267,0.033 0.566,0.1 0.899,0.2 -0.033,-0.033 -0.066,-0.083 -0.1,-0.15 -0.733,-1.067 -1.2,-1.817 -1.4,-2.25 -0.233,-0.6 -0.333,-1.3 -0.3,-2.1 l 0.55,-0.4 c 0.167,0.2 0.3,0.4 0.4,0.6 0.366,-0.233 0.666,-0.333 0.899,-0.3 0.834,1.534 1.851,3.267 3.051,5.2 0.366,0.1 0.75,0.2 1.149,0.3 -0.3,-0.2 -0.566,-0.367 -0.8,-0.5 l -0.6,-1.3 c 0.699,0.533 2.133,1.35 4.3,2.45 0.133,0 0.267,0.017 0.399,0.05 -1.866,-1.1 -3.6,-2.183 -5.199,-3.25 0.533,-0.267 2.1,0.367 4.699,1.9 1.267,0.767 2.301,1.434 3.101,2 0.733,0.133 1.399,0.3 2,0.5 0,-0.133 0.017,-0.267 0.05,-0.4 0.333,-0.433 0.566,-0.833 0.7,-1.2 l 0.55,-0.35 c 0.533,0.433 2.3,1.3 5.3,2.6 3.367,1.467 5.417,2.4 6.15,2.8 l 0.05,0.15 c 14.767,-1.267 28.4,-1.1 40.9,0.5 23.833,3.1 40.583,11.367 50.25,24.8 2.1,2.967 7.35,7.284 15.75,12.95 8.366,5.633 13.449,9.7 15.25,12.2 0.066,0.1 0.416,0.6 1.05,1.5 0.7,1.033 1.233,2.017 1.6,2.95 0.967,2.833 0.4,5.133 -1.7,6.9 0.267,0.267 0.534,0.583 0.801,0.95 0.366,0.5 0.683,1.117 0.949,1.85 1.067,1.833 1.95,3.667 2.65,5.5 3.066,8.267 1.684,15.35 -4.15,21.25 -0.733,2.633 -1.616,5.35 -2.649,8.15 -8.167,21.967 -22.717,40.1 -43.65,54.4 -0.833,0.567 -4.316,-0.217 -10.45,-2.35 1.9,5.733 2.801,10.267 2.7,13.6 -0.166,0 -0.283,0.067 -0.35,0.2 -0.033,0 -0.334,-0.4 -0.9,-1.2 -1.666,-2.467 -3.467,-7.133 -5.399,-14 -0.801,-0.333 -1.65,-0.667 -2.551,-1 2,6.4 3.167,10.767 3.5,13.1 -0.767,0.267 -1.517,0.117 -2.25,-0.45 -1.1,-3.033 -2.566,-7.65 -4.399,-13.85 -0.4,-0.167 -0.816,-0.35 -1.25,-0.55 0.434,1.4 0.883,2.867 1.35,4.4 1.967,7.133 2.8,11.867 2.5,14.2 0.2,0.5 0.4,1 0.601,1.5 -0.334,-0.1 -0.617,-0.283 -0.851,-0.55 -0.1,0.267 -0.233,0.466 -0.399,0.6 -0.767,0.5 -1.184,0.717 -1.25,0.65 -0.034,-0.034 0.017,-0.117 0.149,-0.25 l -0.25,-0.4 c -0.434,-1.566 -0.8,-3.05 -1.1,-4.45 -1.601,-2.934 -3.566,-7.7 -5.9,-14.3 -0.267,-0.767 -0.517,-1.5 -0.75,-2.2 2.367,9.066 3.351,15.15 2.95,18.25 l -0.55,-0.4 c -2.101,-6.1 -3.733,-10.934 -4.9,-14.5 1.5,6.667 2.483,13.183 2.95,19.55 -0.6,-0.133 -1.083,-0.35 -1.45,-0.65 -0.133,-0.6 -0.366,-1.4 -0.7,-2.4 -0.366,-1.2 -0.616,-2.017 -0.75,-2.45 -0.666,0.667 -1.199,1.05 -1.6,1.15 -0.667,0.267 -1.267,0.083 -1.8,-0.55 0.033,0.467 0.05,0.883 0.05,1.25 -1.066,0.267 -2.083,0.217 -3.05,-0.15 -0.7,-1.567 -1.367,-3.067 -2,-4.5 -0.334,2.2 -1.2,3.75 -2.601,4.65 -0.767,0.5 -1.166,0.75 -1.199,0.75 -0.067,-0.067 -0.051,-0.15 0.05,-0.25 l -0.4,-0.25 c -0.066,-2.367 -0.217,-4.767 -0.45,-7.2 -0.5,1.233 -1.199,2.15 -2.1,2.75 -0.767,0.5 -1.167,0.717 -1.2,0.65 -0.033,-0.033 0.017,-0.117 0.15,-0.25 l -0.3,-0.4 c 0,-1.633 0.25,-2.35 0.75,-2.15 0.566,-6.667 -0.317,-14.683 -2.65,-24.05 -0.2,-0.967 -0.434,-1.9 -0.7,-2.8 -0.166,-0.1 -0.333,-0.217 -0.5,-0.35 0.834,6.934 1.25,13.184 1.25,18.75 0.867,5.2 0.851,8.6 -0.05,10.2 0.434,4.233 0.4,8.217 -0.1,11.95 -0.134,-3.5 -0.483,-7.15 -1.051,-10.95 -0.5,0.333 -0.767,0.483 -0.8,0.45 -0.033,-0.067 0.017,-0.167 0.15,-0.3 -0.7,-1 -1.066,-1.767 -1.101,-2.3 0.134,0.1 0.45,0.3 0.95,0.6 0.267,0.133 0.467,0.15 0.601,0.05 -0.467,-2.533 -0.9,-4.933 -1.301,-7.2 -0.233,-1.066 -0.466,-2.133 -0.699,-3.2 l -0.101,-0.1 c -0.166,-0.567 -0.333,-1.133 -0.5,-1.7 -0.2,1.733 -0.6,3.184 -1.2,4.35 -0.166,2.367 -0.383,4.383 -0.649,6.05 -0.367,0.133 -0.733,0.167 -1.101,0.1 -0.166,-0.033 -0.5,-0.167 -1,-0.4 -0.133,-0.833 -0.3,-1.65 -0.5,-2.45 -0.366,0.167 -0.666,0.233 -0.899,0.2 -0.2,0 -0.517,-0.117 -0.95,-0.35 l -0.4,-0.55 c 0.567,-1.033 1.051,-2.133 1.45,-3.3 -0.6,-2.833 -1.083,-5.2 -1.45,-7.1 -0.066,-0.167 -0.1,-0.317 -0.1,-0.45 -1,3.3 -2.233,5.434 -3.7,6.4 -0.8,0.5 -1.533,0.667 -2.2,0.5 -0.366,-0.1 -0.833,-0.316 -1.399,-0.65 -0.167,-1 -0.283,-2 -0.351,-3 -0.866,1.633 -1.983,2.883 -3.35,3.75 -0.767,0.5 -1.35,0.833 -1.75,1 0.9,3.434 1.866,5.9 2.9,7.4 0.533,0.767 1.133,1.467 1.8,2.1 1.066,0.934 1.616,1.417 1.649,1.45 l -0.85,0.25 c -1.033,-0.8 -1.566,-1.2 -1.6,-1.2 -0.567,-0.533 -1.134,-1.217 -1.7,-2.05 -1.267,-1.833 -2.45,-4.567 -3.55,-8.2 -0.367,-0.633 -0.617,-1.15 -0.75,-1.55 0.066,-0.1 0.149,-0.184 0.25,-0.25 -0.167,-0.667 -0.317,-1.35 -0.45,-2.05 -0.167,0.6 -0.3,1.233 -0.4,1.9 l -0.95,-0.25 c 0.034,-2.333 0.101,-4.617 0.2,-6.85 -0.233,-1.2 -0.45,-2.434 -0.649,-3.7 -0.067,-0.333 -0.117,-0.667 -0.15,-1 -0.467,0.7 -1,1.25 -1.6,1.65 -0.767,0.5 -1.217,0.617 -1.351,0.35 l 0.05,-0.65 c 0.4,-1.433 0.784,-2.867 1.15,-4.3 -0.233,-0.067 -0.45,-0.1 -0.65,-0.1 l -0.449,-1.4 c 0.533,-0.767 1.149,-1.867 1.85,-3.3 0,-0.333 -0.017,-0.633 -0.05,-0.9 -4,2.5 -6.434,3.533 -7.3,3.1 -0.2,-0.1 -0.45,-0.45 -0.75,-1.05 -0.233,-0.5 -0.601,-0.767 -1.101,-0.8 1.134,-0.033 1.95,-0.05 2.45,-0.05 -0.066,-0.034 -0.116,-0.05 -0.15,-0.05 1.434,-2.333 3.733,-6.8 6.9,-13.4 -2.434,4.367 -4.483,7.1 -6.15,8.2 -1.033,0.667 -1.716,1 -2.05,1 -0.533,0 -1.1,-0.45 -1.7,-1.35 -0.166,-0.267 -0.3,-0.483 -0.399,-0.65 -0.267,0.233 -0.45,0.383 -0.55,0.45 -3.567,2.333 -5.667,3.35 -6.301,3.05 -0.166,-0.133 -0.416,-0.317 -0.75,-0.55 -0.366,-0.133 -1.033,-0.017 -2,0.35 0.801,-0.567 1.667,-1.217 2.601,-1.95 -1.134,0.4 -1.75,0.617 -1.851,0.65 -0.333,-0.467 -0.566,-1.034 -0.699,-1.7 -0.101,-0.6 -0.101,-1.167 0,-1.7 1.767,-0.7 3.833,-2.917 6.199,-6.65 0.067,-0.1 0.134,-0.2 0.2,-0.3 -0.533,0.333 -1.066,0.683 -1.6,1.05 -3.4,2.2 -6.066,3.434 -8,3.7 -0.934,0.167 -2.3,-0.017 -4.101,-0.55 1.034,-0.133 1.967,-0.267 2.801,-0.4 1.6,-0.3 2.767,-0.683 3.5,-1.15 0.066,-0.067 3.35,-2.567 9.85,-7.5 l -0.05,-0.05 c -4.934,0.966 -9.101,1.55 -12.5,1.75 -2.167,0.966 -3.65,1.583 -4.45,1.85 0.033,-0.2 0.15,-0.55 0.35,-1.05 0.233,-0.433 0.334,-0.683 0.301,-0.75 -2.267,-0.1 -3.95,-0.483 -5.051,-1.15 v -0.65 c -0.699,-0.034 -1.3,-0.167 -1.8,-0.4 0.566,-0.3 1.15,-0.617 1.75,-0.95 v -0.45 l 0.55,-0.35 c 0.067,0.133 0.15,0.25 0.25,0.35 1.567,-0.933 3.067,-1.917 4.5,-2.95 -2.866,0.767 -5.366,1.316 -7.5,1.65 -0.1,-0.3 0.084,-0.767 0.551,-1.4 l 0.75,-0.9 c 1.3,-0.367 3.899,-1.517 7.8,-3.45 0.233,-0.1 0.5,-0.2 0.8,-0.3 -0.233,-0.167 -0.467,-0.316 -0.7,-0.45 -1.833,0.833 -3.434,1.45 -4.8,1.85 -1.366,0.4 -2.733,0.633 -4.1,0.7 -0.467,0.233 -0.884,0.4 -1.25,0.5 -0.9,0.3 -1.884,0.383 -2.95,0.25 -1.434,-0.2 -2.7,-0.233 -3.8,-0.1 0.5,-0.667 1.517,-1.483 3.05,-2.45 0.133,-0.067 0.267,-0.133 0.399,-0.2 -2.033,0.033 -3.416,-0.467 -4.149,-1.5 -0.233,-0.367 -0.434,-0.65 -0.601,-0.85 -1.267,0.3 -2.383,0.483 -3.35,0.55 0,-0.3 0.116,-0.767 0.35,-1.4 l 0.351,-0.75 6.8,-4.45 c -0.233,-0.1 -0.517,-0.217 -0.85,-0.35 0.566,-0.733 1.183,-1.433 1.85,-2.1 -1,-0.466 -2.017,-0.9 -3.05,-1.3 -1.367,0.6 -3.017,1.333 -4.95,2.2 -4.833,2.233 -7.8,3.466 -8.9,3.7 0.733,-1.5 2.233,-3.217 4.5,-5.15 -1.433,0.3 -2.699,0.383 -3.8,0.25 -0.6,-0.067 -1.133,-0.167 -1.6,-0.3 2.333,-1.567 4.5,-3.017 6.5,-4.35 -1.033,-0.467 -2.117,-0.934 -3.25,-1.4 -4.566,2.433 -7.601,3.85 -9.101,4.25 1.7,-2.067 3.467,-4.034 5.301,-5.9 -1.101,-0.466 -2.233,-0.95 -3.4,-1.45 -3.167,1.3 -5.533,1.85 -7.1,1.65 0.899,-1.133 1.767,-2.183 2.6,-3.15 -1.634,-0.2 -3.25,-0.4 -4.85,-0.6 -5.9,1.233 -9.2,1.983 -9.9,2.25 -2.033,0.6 -4.1,1.2 -6.2,1.8 -0.133,-0.433 0.5,-1.316 1.9,-2.65 l 0.149,0.2 c 2.4,-0.967 4.45,-1.833 6.15,-2.6 -2.767,-0.3 -5.4,-0.617 -7.9,-0.95 -8.667,1.333 -14.283,1.967 -16.85,1.9 2.233,-0.967 5,-1.95 8.3,-2.95 -1.2,-0.167 -2.333,-0.317 -3.4,-0.45 h -0.05 c -6.533,0.867 -11.767,1.417 -15.7,1.65 0.833,-0.4 3.65,-1.25 8.45,-2.55 -0.333,-0.066 -0.684,-0.117 -1.05,-0.15 -1.9,-0.267 -3.75,-0.533 -5.55,-0.8 -5.533,0.833 -10.2,1.3 -14,1.4 1.567,-0.867 3.533,-1.717 5.9,-2.55 -10.233,-1.533 -20.017,-3.1 -29.35,-4.7 -2.9,-0.167 -6,-0.283 -9.3,-0.35 -10.2,-0.367 -18.317,-0.55 -24.35,-0.55 0.033,-0.333 0.35,-0.767 0.95,-1.3 l 0.85,-0.7 c 0.4,0.1 0.733,0.133 1,0.1 l 0.35,-0.15 c -1.7,-0.3 -4.667,-0.883 -8.9,-1.75 -2.133,0.467 -3.8,0.917 -5,1.35 -0.066,-0.367 0.367,-1.033 1.3,-2 0.167,-0.033 0.316,-0.067 0.45,-0.1 -3.667,-0.9 -7.033,-1.95 -10.1,-3.15 -0.966,-0.433 -2.083,-0.8 -3.35,-1.1 -1.833,0.333 -3.784,0.717 -5.85,1.15 -0.1,-0.433 0.25,-1.117 1.05,-2.05 -1.933,-0.267 -4.1,-0.433 -6.5,-0.5 -6.8,-0.333 -11,-0.783 -12.6,-1.35 0,-0.333 0.45,-0.9 1.35,-1.7 0.833,-0.7 1.55,-1.167 2.15,-1.4 l -0.15,-0.05 c -2.6,0.6 -4.383,1.033 -5.35,1.3 -0.133,-0.4 0.15,-0.983 0.85,-1.75 -2,-0.333 -4.65,-0.8 -7.95,-1.4 -2.733,-0.5 -5.067,-1 -7,-1.5 -0.567,0.167 -1.1,0.333 -1.6,0.5 l -0.2,-0.65 c 0.1,-0.1 0.217,-0.167 0.35,-0.2 -2.767,-0.867 -4.4,-1.667 -4.9,-2.4 -0.567,-0.767 -0.767,-1.183 -0.6,-1.25 l 0.35,0.15 c 2.3,-0.833 4.933,-1.05 7.9,-0.65 0.433,0.067 0.8,0.117 1.1,0.15 -2.6,-0.9 -5.083,-1.733 -7.45,-2.5 -2.5,0.034 -5.65,0.067 -9.45,0.1 0.5,-0.933 1.066,-1.783 1.7,-2.55 -5.667,-1.767 -10.533,-3.167 -14.6,-4.2 -3.5,-0.933 -7.25,-1.85 -11.25,-2.75 -0.566,-0.4 -1.1,-0.783 -1.6,-1.15 -5,-3.633 -8.883,-6.567 -11.65,-8.8 l 0.15,-0.1 c -8.067,-4.167 -12.017,-6.367 -11.85,-6.6 0.7,-0.6 0.167,-1.7 -1.6,-3.3 -9.133,-3.167 -14.65,-10.617 -16.55,-22.35 -4,-6.8 -7.317,-11.967 -9.95,-15.5 -8.267,-6.434 -14.4,-11.017 -18.4,-13.75 -7.133,-4.867 -14.25,-8.934 -21.35,-12.2 3.933,0.133 10.933,2.717 21,7.75 -2.133,-1.733 -4.933,-3.95 -8.4,-6.65 -1.9,-0.833 -3.717,-1.567 -5.45,-2.2 0,-0.367 0.283,-0.833 0.85,-1.4 -2.267,-1.3 -4.35,-2.533 -6.25,-3.7 -1.267,-0.6 -2.417,-1.15 -3.45,-1.65 -6.033,-3.033 -10.667,-6.25 -13.9,-9.65 l -0.6,-1.25 0.55,-0.35 c 0.9,0.667 3.767,2.1 8.6,4.3 -0.233,-0.2 -0.467,-0.4 -0.7,-0.6 -4.233,-2.433 -7.617,-4.933 -10.15,-7.5 0.833,0.233 1.733,0.5 2.7,0.8 -1.1,-1.1 -1.867,-1.95 -2.3,-2.55 -0.533,-0.767 -0.983,-1.6 -1.35,-2.5 -0.5,-0.3 -1.05,-0.617 -1.65,-0.95 0.267,0.067 0.567,0.15 0.9,0.25 -4.566,-2.433 -7.433,-4.483 -8.6,-6.15 -0.533,-0.8 -0.8,-1.217 -0.8,-1.25 0.133,0 0.183,-0.133 0.15,-0.4 3.033,1.333 7.883,3.317 14.55,5.95 -0.667,-0.7 -1.317,-1.4 -1.95,-2.1 -0.567,-0.267 -1.133,-0.517 -1.7,-0.75 l 0.4,-0.7 c -0.434,-0.5 -0.883,-1.017 -1.35,-1.55 -0.067,-0.033 -0.167,-0.083 -0.3,-0.15 l 0.05,-0.1 c -0.9,-1.033 -1.783,-2.067 -2.65,-3.1 -7.267,-3.7 -12.784,-6.983 -16.55,-9.85 4.067,1.467 8.283,3.1 12.65,4.9 -0.367,-0.5 -0.716,-0.966 -1.05,-1.4 -0.5,-0.233 -1.017,-0.45 -1.55,-0.65 l 0.55,-0.65 c -0.5,-0.7 -1.017,-1.417 -1.55,-2.15 -12.6,-5.733 -19.85,-9.983 -21.75,-12.75 -0.567,-0.8 -0.817,-1.284 -0.75,-1.45 l 0.3,0.05 c 3.533,1.267 7.35,2.717 11.45,4.35 1.633,0.533 3.466,1.283 5.5,2.25 0.533,0.2 1.066,0.417 1.6,0.65 -0.367,-0.566 -0.733,-1.1 -1.1,-1.6 -0.067,-0.1 -0.133,-0.217 -0.2,-0.35 -0.9,-0.267 -1.617,-0.517 -2.15,-0.75 0.433,-0.133 0.917,-0.233 1.45,-0.3 -0.1,-0.167 -0.2,-0.333 -0.3,-0.5 -0.867,-0.7 -1.783,-1.433 -2.75,-2.2 -0.3,-0.233 -0.617,-0.483 -0.95,-0.75 -0.233,-0.167 -0.483,-0.317 -0.75,-0.45 -4.667,-2.6 -9.733,-5.717 -15.2,-9.35 -0.067,0.133 -0.133,0.217 -0.2,0.25 l -0.4,-0.55 c 0.067,0.033 0.117,0.033 0.15,0 -1.433,-0.967 -2.85,-1.95 -4.25,-2.95 0.2,0.1 0.417,0.167 0.65,0.2 l -0.05,-0.05 c -0.8,-1.167 -1.583,-2.583 -2.35,-4.25 l 0.55,-0.4 c 1,1.467 3.767,3.3 8.3,5.5 -1.033,-1 -1.967,-1.983 -2.8,-2.95 -0.267,0 -0.5,-0.017 -0.7,-0.05 l -0.2,-0.65 c -0.2,-0.033 -0.3,-0.1 -0.3,-0.2 -0.033,-0.1 0.017,-0.2 0.15,-0.3 -1.133,-1.333 -2.083,-2.55 -2.85,-3.65 -1,-1.467 -1.633,-3.067 -1.9,-4.8 -4.833,-2.034 -8.983,-3.883 -12.45,-5.55 3.433,0.8 7.25,1.85 11.45,3.15 0.5,0.133 1.017,0.284 1.55,0.45 0.066,-0.067 0.133,-0.083 0.2,-0.05 0.033,0.033 0.05,0.066 0.05,0.1 l 0.05,-0.05 c -2.467,-2.433 -4.233,-4.45 -5.3,-6.05 -0.6,-0.867 -1.2,-1.817 -1.8,-2.85 -0.467,-0.3 -0.917,-0.617 -1.35,-0.95 -1.833,-0.767 -2.85,-1.3 -3.05,-1.6 -0.367,-0.533 -0.55,-0.933 -0.55,-1.2 -1,-0.4 -1.934,-0.75 -2.8,-1.05 1,0.1 2.133,0.284 3.4,0.55 l 0.05,-0.05 0.55,-0.35 c 0.233,0.3 0.5,0.566 0.8,0.8 0.3,0.033 0.617,0.1 0.95,0.2 -0.3,-0.633 -0.617,-1.3 -0.95,-2 l 0.45,-0.3 c -0.467,-0.133 -0.717,-0.2 -0.75,-0.2 -1.2,-0.367 -2.033,-0.9 -2.5,-1.6 -0.066,-0.1 -0.066,-0.367 0,-0.8 0.2,-0.867 0.367,-1.733 0.5,-2.6 0.367,-0.233 1.083,-0.267 2.15,-0.1 -2,-0.833 -3.983,-1.517 -5.95,-2.05 -0.4,0.967 -0.7,1.7 -0.9,2.2 l -1.4,0.2 -0.45,-0.95 c 0.267,-0.7 0.517,-1.367 0.75,-2 -1.7,-0.433 -3.383,-0.817 -5.05,-1.15 l -0.25,-0.75 c -1.1,-0.3 -1.667,-0.483 -1.7,-0.55 -0.6,-0.867 -0.85,-1.483 -0.75,-1.85 0.033,-0.167 0.417,-0.65 1.15,-1.45 1.467,-0.6 3.733,-1.333 6.8,-2.2 -6.033,-0.933 -10.45,-1.667 -13.25,-2.2 3.467,-0.2 7.133,-0.2 11,0 -0.566,-0.3 -1.033,-0.717 -1.4,-1.25 -0.433,-0.533 -0.967,-1.417 -1.6,-2.65 -0.667,-1.067 -1.533,-1.767 -2.6,-2.1 0,-0.5 0.267,-1.15 0.8,-1.95 0.6,-0.967 1.55,-1.933 2.85,-2.9 l -1.1,-0.1 c -0.567,-0.4 -1.6,-0.933 -3.1,-1.6 -1.333,-0.733 -2.183,-1.733 -2.55,-3 -1.167,0.567 -2.217,0.684 -3.15,0.35 -0.833,2.4 -1.383,3.7 -1.65,3.9 -0.8,0.5 -1.35,0.7 -1.65,0.6 -0.133,-0.033 -0.2,-0.133 -0.2,-0.3 l -0.05,-0.25 c -0.333,0.167 -0.566,0.233 -0.7,0.2 -0.067,-0.033 -0.067,-0.117 0,-0.25 l -0.4,-0.6 c 0.267,-1.034 1.3,-3.467 3.1,-7.3 -0.1,-0.066 -0.2,-0.133 -0.3,-0.2 -1.533,1.5 -3.317,2.917 -5.35,4.25 -0.067,0.033 -0.133,0.066 -0.2,0.1 -0.7,0.4 -1.216,0.5 -1.55,0.3 -0.233,-0.1 -0.367,-0.233 -0.4,-0.4 v -0.85 c 0.467,-0.6 0.933,-1.167 1.4,-1.7 0.1,-0.7 0.233,-1.433 0.4,-2.2 -0.167,-0.067 -0.4,-0.317 -0.7,-0.75 -0.7,0.267 -1.167,0.216 -1.4,-0.15 -0.066,-0.267 0.067,-1.466 0.4,-3.6 -0.133,-1.367 -0.167,-3.05 -0.1,-5.05 -0.767,-0.333 -1.483,-0.683 -2.15,-1.05 0.233,0.967 0.4,1.75 0.5,2.35 0.566,3.667 0.333,6.566 -0.7,8.7 l -0.8,-0.3 c 0.233,-3.233 -0.1,-6.767 -1,-10.6 -0.1,-0.367 -0.217,-0.8 -0.35,-1.3 -7.867,-3.8 -12.4,-6.067 -13.6,-6.8 -1.767,-1.066 -3.333,-2.117 -4.7,-3.15 -2.367,-0.8 -5.316,-2 -8.85,-3.6 -4.434,-5.133 -7.017,-7.867 -7.75,-8.2 -1.5,-0.567 -3.483,-1.284 -5.95,-2.15 -1.7,-0.633 -3.65,-1.316 -5.85,-2.05 -1.267,-0.433 -2.566,-1 -3.9,-1.7 -1.133,-0.466 -2.283,-1.033 -3.45,-1.7 -0.1,-0.067 -0.216,-0.15 -0.35,-0.25 -0.133,-0.067 -0.25,-0.117 -0.35,-0.15 -1.033,-0.333 -1.833,-0.7 -2.4,-1.1 -0.4,-0.233 -0.75,-0.55 -1.05,-0.95 -0.5,0.067 -1.333,0.083 -2.5,0.05 -1.8,0 -3.1,-0.1 -3.9,-0.3 -0.2,-0.033 -0.55,-0.133 -1.05,-0.3 -0.5,-0.167 -1.184,-0.417 -2.05,-0.75 -1.633,-0.533 -2.566,-0.733 -2.8,-0.6 -0.267,0.067 -0.633,0.333 -1.1,0.8 -0.5,0.633 -0.867,1 -1.1,1.1 -0.167,0.033 -1.283,0.267 -3.35,0.7 -2.3,-0.7 -3.9,-3.817 -4.8,-9.35 -0.5,-3.133 -0.167,-5.233 1,-6.3 0.233,-0.934 0.65,-1.784 1.25,-2.55 0.167,-0.233 0.333,-0.4 0.5,-0.5 0.767,-0.167 1.65,-0.117 2.65,0.15 0.633,0.034 2.633,0.6 6,1.7 3.1,1.2 4.684,1.817 4.75,1.85 0.4,0.033 0.75,0.133 1.05,0.3 1.633,0.533 3.483,1.267 5.55,2.2 0.6,0.3 1.233,0.6 1.9,0.9 0.7,0.267 1.4,0.567 2.1,0.9 0.233,0.033 0.467,0.117 0.7,0.25 0.5,0.2 1.017,0.35 1.55,0.45 1.2,0.033 2.517,0.1 3.95,0.2 2.7,0.133 4.9,0.517 6.6,1.15 2.133,0.8 3.95,1.55 5.45,2.25 3.2,-1.367 4.967,-2.184 5.3,-2.45 -0.1,-0.233 -0.633,-0.917 -1.6,-2.05 -0.267,-0.434 -0.534,-0.85 -0.8,-1.25 -0.133,-0.2 -0.217,-0.333 -0.25,-0.4 -4.167,-1.367 -7.033,-2.466 -8.6,-3.3 -1.966,-1.067 -5.15,-3.2 -9.55,-6.4 -0.133,-0.167 -3.133,-2.7 -9,-7.6 -0.1,-0.033 -0.15,-0.067 -0.15,-0.1 -2.067,-0.566 -3.4,-1.017 -4,-1.35 -0.167,-0.066 -0.333,-0.15 -0.5,-0.25 -0.667,-0.3 -1.3,-0.566 -1.9,-0.8 -0.934,-0.3 -1.967,-0.8 -3.1,-1.5 -0.3,-0.133 -0.6,-0.3 -0.9,-0.5 -2.3,-1.467 -4.9,-3.583 -7.8,-6.35 -1.267,-1.167 -2.633,-2.5 -4.1,-4 -0.267,-0.367 -0.55,-0.717 -0.85,-1.05 -0.767,-0.8 -1.817,-1.917 -3.15,-3.35 -0.533,-0.267 -1.083,-0.55 -1.65,-0.85 -1.9,-0.9 -3.566,-1.533 -5,-1.9 -0.367,-0.067 -0.733,-0.167 -1.1,-0.3 -3.9,-0.867 -6.083,-1.367 -6.55,-1.5 -0.1,-0.1 -0.167,-0.133 -0.2,-0.1 -3.133,-1.333 -5.083,-3.267 -5.85,-5.8 -1.2,-3.633 0.667,-5.383 5.6,-5.25 2.4,0.133 4.267,0.417 5.6,0.85 0.434,0.233 2.317,1.1 5.65,2.6 0.4,0.167 0.817,0.35 1.25,0.55 0.867,0.4 1.717,0.767 2.55,1.1 0.167,0.033 0.3,0.033 0.4,0 0.533,-0.033 1.05,-0.05 1.55,-0.05 0.333,-0.033 0.667,0.033 1,0.2 1.333,0.1 2.684,0.5 4.05,1.2 1.133,0.167 1.933,0.35 2.4,0.55 0.8,0.1 1.517,0.267 2.15,0.5 1.9,1.167 3.5,2.217 4.8,3.15 1.5,0.9 3.267,2 5.3,3.3 0.067,0.033 0.167,0.033 0.3,0 1.367,0.6 2.6,1.033 3.7,1.3 0.933,0.333 1.817,0.667 2.65,1 1.367,0.5 3.033,1.95 5,4.35 0.434,0.467 0.85,0.95 1.25,1.45 0.033,0.133 0.083,0.25 0.15,0.35 0.034,0 0.15,0 0.35,0 2.367,1.733 4.617,3.333 6.75,4.8 0.333,-0.033 0.7,0.05 1.1,0.25 5.767,3.1 9.4,4.933 10.9,5.5 0.467,0.2 1.817,0.25 4.05,0.15 2,0 3.183,-0.1 3.55,-0.3 -1.167,-1.633 -4.383,-5.15 -9.65,-10.55 -3.4,-2.667 -7.684,-6.233 -12.85,-10.7 -2.667,-2.333 -5.333,-4.667 -8,-7 -3.5,-1.667 -6.983,-3.383 -10.45,-5.15 -0.566,-0.133 -1.167,-0.284 -1.8,-0.45 -0.7,-0.233 -1.467,-0.5 -2.3,-0.8 -1.3,-0.534 -2.55,-1.083 -3.75,-1.65 -1.3,-0.533 -2.567,-1.133 -3.8,-1.8 -0.133,-0.1 -0.35,-0.2 -0.65,-0.3 -0.6,-0.367 -1.233,-0.7 -1.9,-1 -2.667,-1.5 -5.184,-3.083 -7.55,-4.75 -2.767,-0.467 -6.933,-1.133 -12.5,-2 -3.333,-1.034 -5.9,-2.617 -7.7,-4.75 -1.067,-1.367 -1.8,-2.95 -2.2,-4.75 -0.133,-0.467 -0.283,-0.983 -0.45,-1.55 -0.1,-0.667 -0.067,-1.283 0.1,-1.85 0.167,-1.267 1.017,-2.117 2.55,-2.55 0.533,-0.2 2.167,-0.367 4.9,-0.5 1.767,-0.067 6.183,0.967 13.25,3.1 2.967,0.867 6.4,1.983 10.3,3.35 1.467,0.633 2.967,1.3 4.5,2 8.567,3.933 15.067,6.9 19.5,8.9 0.733,0.433 1.417,0.767 2.05,1 3.167,1.467 4.9,2.283 5.2,2.45 2.133,0.733 4.567,1.767 7.3,3.1 1.7,1.467 3.566,3.1 5.6,4.9 4.7,4.534 8.15,7.817 10.35,9.85 1.5,1.4 3.434,2.9 5.8,4.5 2.533,1.767 4.316,3.133 5.35,4.1 1.367,-0.367 2.5,-1.7 3.4,-4 0.2,-0.567 0.417,-1.067 0.65,-1.5 -0.167,-0.133 -0.333,-0.317 -0.5,-0.55 -0.133,-0.1 -0.3,-0.133 -0.5,-0.1 -1.833,-0.633 -5.733,-5.083 -11.7,-13.35 -3.5,-4.8 -6.167,-8.7 -8,-11.7 -0.933,-1.566 -1.633,-2.867 -2.1,-3.9 -0.2,-0.3 -0.383,-0.6 -0.55,-0.9 -1.3,-1.333 -3.333,-2.75 -6.1,-4.25 -3.667,-1.833 -6.25,-3.45 -7.75,-4.85 -0.133,-0.133 -0.333,-0.316 -0.6,-0.55 -1.067,-0.967 -3.467,-2.75 -7.2,-5.35 -2.1,-1.667 -3.733,-3.033 -4.9,-4.1 -1.267,-0.433 -2.7,-1.017 -4.3,-1.75 -4.966,-1.867 -7.566,-4.517 -7.8,-7.95 0.067,-0.8 0.433,-1.35 1.1,-1.65 0.566,-0.466 1.316,-0.65 2.25,-0.55 2.5,0.533 4.816,1.133 6.95,1.8 1.4,0.467 2.717,0.967 3.95,1.5 4.267,2.034 8.35,3.883 12.25,5.55 2.833,1.1 6.75,3.45 11.75,7.05 5.867,3.934 9.617,6.434 11.25,7.5 0.133,0.133 0.233,0.233 0.3,0.3 1.067,1.033 2.3,2.267 3.7,3.7 1.5,1.667 3.233,3.65 5.2,5.95 5,5.8 7.917,9.133 8.75,10 3.633,5.367 6.583,10.2 8.85,14.5 1.7,0.767 2.983,1.4 3.85,1.9 2.434,1.3 4.35,3.183 5.75,5.65 0.633,1.133 1.1,2.083 1.4,2.85 3.667,2.9 7.633,7.583 11.9,14.05 0.7,1.133 1.383,2.184 2.05,3.15 4.4,6.566 7.483,10.35 9.25,11.35 l 4.35,6.35 c 0.133,0.067 0.283,0.1 0.45,0.1 0.6,0.133 1.583,-0.183 2.95,-0.95 0.367,-0.233 0.8,-0.45 1.3,-0.65 0.333,-2.1 0.017,-4.617 -0.95,-7.55 0.066,-0.833 0.083,-1.7 0.05,-2.6 -0.233,-4.933 -0.95,-8.167 -2.15,-9.7 -0.3,-0.3 -1.517,-1.917 -3.65,-4.85 -1.5,-4.133 -0.684,-9.367 2.45,-15.7 1.067,-2.4 2.434,-3.233 4.1,-2.5 3.235,1.201 6.135,4.917 8.702,11.15 z"
   id="path17"
   style="fill-rule:evenodd" />
</g>
<g
   id="Layer_3">
	<path
   d="m 416.106,1373.727 c -3.367,3.733 -5.483,5.8 -6.35,6.2 -2.733,1.433 -4.833,3.533 -6.3,6.3 -2.4,4.5 -3.684,6.767 -3.85,6.8 -0.667,0.967 -2.833,3.467 -6.5,7.5 -3.267,3.467 -5.017,5.45 -5.25,5.95 0.033,0.033 -0.1,1.116 -0.4,3.25 -0.367,2.233 -0.667,3.566 -0.9,4 -0.067,0.033 -0.983,1.633 -2.75,4.8 -2.767,2.5 -6.284,2.7 -10.55,0.6 -6.267,-2.933 -8.6,-6.217 -7,-9.85 1.467,-3.1 3.4,-6.117 5.8,-9.05 2.333,-3.033 3.5,-4.65 3.5,-4.851 3.7,-8 7.066,-13.6 10.1,-16.8 3.034,-3.366 5.517,-7.033 7.45,-11 0.5,-2.767 0.917,-4.45 1.25,-5.05 1.233,-2.533 2.567,-4.417 4,-5.65 2.533,-1.767 9.917,-14.566 22.15,-38.399 22.567,19.3 24.4,34.399 5.5,45.3 l 0.15,0.75 c -4.4,3.7 -7.75,6.766 -10.05,9.2 z"
   id="path20"
   style="fill-rule:evenodd" />
</g>
<g
   id="Layer_8">
	<path
   d="m 312.406,1057.376 c -2.667,-1.633 -4.566,-3.416 -5.7,-5.35 -2.934,-5.566 -1.783,-8.884 3.45,-9.95 5.267,-1.1 10.333,-1.967 15.2,-2.6 4.767,-0.601 7.283,-0.95 7.55,-1.05 3.9,-1.467 7.467,-2.65 10.7,-3.551 2.433,-0.899 4.633,-1.583 6.6,-2.05 0.9,-0.166 1.783,-0.316 2.65,-0.45 4.5,-0.233 8.483,-1.166 11.95,-2.8 0.333,-0.233 0.633,-0.434 0.9,-0.6 l 4.6,-1.5 c 2.466,-0.867 6.716,-3.634 12.75,-8.3 0.533,-0.601 1.183,-1.233 1.95,-1.9 3.167,-4.4 6.9,-9.9 11.2,-16.5 24.4,24.767 26.517,39.684 6.35,44.75 l 0.1,0.85 c -4.767,2.334 -8.316,4.4 -10.65,6.2 0,-0.033 -0.017,-0.033 -0.05,0 -0.633,0.3 -1.283,0.65 -1.95,1.05 -3.533,0.967 -5.783,1.45 -6.75,1.45 -2.933,-0.133 -5.283,0.25 -7.05,1.15 -0.967,0.066 -1.917,0.233 -2.85,0.5 -1.067,0.267 -2.867,0.816 -5.4,1.649 -2.934,-0.267 -5.817,-0.316 -8.65,-0.149 -3.2,0.1 -5.817,0.416 -7.85,0.95 -0.3,-0.134 -0.567,-0.267 -0.8,-0.4 -0.833,-0.3 -1.583,-0.5 -2.25,-0.6 -2.267,-0.367 -3.983,-0.017 -5.15,1.05 -0.033,0.033 -0.033,0.1 0,0.2 -1.433,-0.434 -3.2,-0.601 -5.3,-0.5 -3.167,-0.034 -7.3,-0.2 -12.4,-0.5 -7.534,-0.667 -11.65,-1 -12.35,-1 -0.367,-0.066 -0.633,-0.082 -0.8,-0.049 z"
   id="path23"
   style="fill-rule:evenodd" />
</g>
</svg>