<?xml version="1.0" standalone="no"?>
<!DOCTYPE svg PUBLIC "-//W3C//DTD SVG 20010904//EN"
 "http://www.w3.org/TR/2001/REC-SVG-20010904/DTD/svg10.dtd">
<svg version="1.0" xmlns="http://www.w3.org/2000/svg"
 width="1009.000000pt" height="1536.000000pt" viewBox="0 0 1009.000000 1536.000000"
 preserveAspectRatio="xMidYMid meet">
<metadata>
Created by potrace 1.16, written by Peter Selinger 2001-2019
</metadata>
<g transform="translate(0.000000,1536.000000) scale(0.100000,-0.100000)"
fill="#000000" stroke="none">
<path d="M9733 15331 c-65 -47 -163 -176 -163 -215 0 -12 11 -38 25 -58 14
-20 25 -47 25 -60 0 -36 -54 -94 -124 -133 -77 -43 -87 -54 -115 -130 -23 -62
-45 -95 -143 -211 -126 -148 -210 -374 -163 -441 14 -20 13 -21 -35 -25 -67
-7 -160 -68 -256 -171 -91 -97 -363 -456 -399 -526 -36 -72 -34 -128 10 -220
41 -85 39 -107 -10 -117 -46 -8 -100 11 -141 53 l-35 35 47 116 c47 116 62
181 51 224 -4 13 -24 45 -47 72 -22 26 -40 54 -40 61 0 9 18 16 48 20 69 9
211 44 241 60 43 22 103 87 210 228 54 73 152 191 216 262 128 142 208 254
226 315 14 46 -1 93 -37 116 -59 39 -203 23 -287 -32 -46 -30 -76 -91 -77
-151 0 -37 -3 -43 -22 -43 -12 0 -39 19 -64 45 -36 37 -48 61 -73 142 -17 54
-37 130 -46 169 -9 41 -24 79 -35 89 -28 25 -91 30 -132 11 -57 -27 -83 -88
-113 -259 -20 -117 -43 -174 -103 -254 -27 -38 -57 -83 -66 -101 -37 -71 -57
-185 -65 -357 -5 -93 -12 -178 -16 -187 -9 -23 -33 -23 -70 2 -51 34 -83 27
-145 -34 -30 -30 -174 -142 -318 -251 -145 -108 -284 -217 -309 -241 -83 -83
-119 -210 -89 -309 33 -107 7 -231 -59 -283 -37 -30 -50 -28 -119 15 -116 71
-199 54 -376 -77 -164 -122 -281 -253 -334 -371 -22 -50 -88 -281 -116 -409
-27 -117 -56 -140 -178 -140 -100 0 -168 -20 -229 -69 -26 -21 -166 -155 -310
-297 -261 -258 -262 -259 -307 -354 -25 -52 -53 -128 -62 -168 -15 -67 -15
-87 -1 -245 18 -192 14 -237 -27 -290 -38 -49 -77 -64 -132 -49 -60 16 -79 15
-123 -8 -74 -37 -288 -290 -342 -403 -73 -154 -33 -410 74 -471 23 -13 56 -27
73 -31 89 -18 106 -132 31 -208 -24 -23 -55 -39 -111 -55 -43 -13 -98 -36
-122 -53 -87 -60 -166 -194 -205 -349 -18 -72 -21 -104 -17 -220 6 -156 20
-202 99 -333 54 -89 63 -142 34 -211 -9 -20 -25 -76 -36 -124 -11 -48 -22 -95
-25 -104 -10 -34 -65 -75 -123 -91 -49 -14 -67 -26 -110 -73 -60 -66 -119
-183 -155 -306 -69 -238 -60 -467 34 -948 33 -171 37 -262 16 -334 -18 -58
-58 -121 -87 -137 -19 -10 -28 -4 -80 50 -107 110 -179 245 -179 337 0 49 13
66 94 128 55 41 70 84 63 181 -6 101 -36 184 -138 387 -67 132 -88 164 -134
206 -57 53 -110 76 -200 88 -43 5 -58 14 -108 62 -31 31 -57 64 -57 74 0 9 20
31 44 47 101 70 90 171 -51 455 -69 141 -133 230 -191 267 -52 33 -93 36 -152
13 -37 -15 -42 -15 -66 1 -35 22 -54 73 -54 140 0 68 14 103 75 186 l47 64 -4
70 c-7 96 -78 281 -221 577 -117 241 -144 280 -204 292 -16 3 -54 10 -85 16
-67 13 -98 44 -98 96 0 27 10 44 50 84 89 90 91 179 5 325 -29 50 -66 117 -83
150 -31 62 -91 125 -176 183 -26 18 -46 38 -44 45 3 7 31 26 64 42 48 24 60
35 62 58 5 39 -36 121 -117 236 -137 192 -208 252 -341 286 -145 36 -146 38
-152 160 -8 171 -148 315 -353 364 -27 7 -89 34 -136 62 -48 27 -106 56 -130
64 -59 21 -105 68 -141 143 -46 97 -106 123 -233 101 -138 -23 -195 -57 -195
-114 0 -43 59 -97 169 -156 60 -31 108 -67 166 -124 72 -70 84 -87 94 -132 12
-51 9 -73 -9 -73 -6 0 -39 20 -75 45 -111 76 -275 113 -360 81 -48 -19 -101
-72 -111 -112 -16 -63 24 -137 101 -187 l50 -32 145 0 c157 0 168 3 232 62 27
25 48 24 48 -3 0 -34 38 -54 103 -54 64 0 80 -6 146 -53 60 -44 103 -45 197
-7 120 49 194 39 247 -32 32 -43 25 -74 -25 -121 -26 -25 -51 -58 -58 -81 -19
-59 -6 -169 28 -236 48 -95 174 -324 184 -337 20 -25 92 -15 138 18 44 32 44
30 -1 -36 -32 -49 -69 -162 -69 -216 0 -98 32 -182 126 -326 62 -97 103 -127
197 -146 101 -22 114 -40 80 -113 -13 -27 -32 -44 -76 -65 -92 -47 -100 -66
-93 -234 8 -233 44 -353 147 -491 33 -43 90 -140 128 -214 91 -179 99 -185
209 -186 102 -1 142 -15 205 -73 87 -80 85 -127 -7 -186 -72 -46 -86 -68 -86
-131 0 -94 47 -165 228 -347 86 -87 172 -167 190 -178 32 -21 74 -22 127 -5
16 5 27 -3 53 -41 17 -27 32 -53 32 -58 0 -6 -30 -21 -68 -34 -37 -13 -84 -32
-104 -42 l-37 -19 -36 44 c-20 25 -61 63 -91 86 -61 46 -69 46 -171 8 -71 -26
-107 -69 -98 -117 15 -82 78 -155 171 -198 l51 -23 5 -63 c15 -184 193 -413
439 -565 181 -111 216 -145 329 -313 55 -81 100 -151 100 -154 0 -4 -14 -27
-31 -52 -43 -62 -95 -193 -189 -473 -96 -288 -113 -368 -108 -509 4 -123 18
-160 116 -308 80 -122 96 -173 89 -277 -7 -95 -34 -356 -42 -404 -8 -45 -56
-96 -126 -133 -72 -39 -123 -93 -157 -167 -37 -81 -102 -412 -109 -553 -9
-191 23 -282 147 -414 124 -131 155 -213 151 -390 -2 -60 -4 -152 -5 -203 0
-50 -3 -92 -5 -92 -2 0 -25 8 -51 17 -45 16 -49 16 -74 -1 -15 -9 -31 -28 -36
-42 -26 -67 3 -416 56 -674 54 -262 181 -439 346 -480 55 -14 74 -46 65 -111
-8 -60 -48 -112 -142 -186 -137 -107 -129 -128 43 -127 111 0 124 3 267 49 83
26 154 51 159 56 4 4 -26 71 -68 148 -42 77 -76 145 -76 151 0 5 7 10 15 10
26 0 92 38 114 66 35 45 35 81 -3 276 -40 208 -50 272 -71 482 -17 171 -26
210 -58 257 -31 46 -73 58 -173 52 l-81 -6 -12 79 c-23 147 -26 249 -7 298 24
64 69 121 106 136 27 11 39 11 86 -4 115 -36 124 -15 135 334 13 438 22 501
97 688 44 110 47 122 47 212 0 83 -3 101 -25 140 -31 55 -64 69 -120 52 -22
-7 -58 -17 -80 -24 -35 -11 -42 -10 -57 5 -16 16 -16 23 1 122 10 58 20 156
23 217 6 145 15 161 162 285 64 54 170 152 237 218 162 159 184 204 238 470
13 66 29 165 36 220 6 55 20 154 32 219 21 125 20 184 -6 235 -41 78 -110 128
-195 140 -37 5 -47 10 -49 28 -4 30 19 70 70 122 61 62 100 85 203 122 78 28
98 40 151 93 96 97 192 312 274 616 53 195 79 250 149 309 107 91 129 116 137
156 4 25 2 50 -6 69 -46 112 -45 110 -25 162 14 36 44 75 119 150 141 141 135
139 341 139 l170 0 70 34 c119 59 200 151 321 366 131 232 145 261 188 383 40
117 55 206 44 277 -21 136 -21 188 2 247 22 61 94 149 140 173 14 7 66 21 114
29 164 29 237 80 375 261 49 65 99 148 144 239 37 76 98 186 136 245 106 164
118 193 95 215 -11 12 -29 14 -78 9 -74 -7 -102 5 -111 45 -8 40 19 161 50
224 55 110 87 128 407 232 265 87 283 98 338 212 38 78 56 101 144 184 201
190 224 216 235 257 19 71 34 77 179 74 208 -3 321 27 417 111 55 49 223 246
299 352 72 101 87 147 75 231 -12 84 -27 113 -86 164 -26 22 -44 43 -41 47 4
3 42 10 84 15 112 12 166 42 266 148 115 121 172 222 213 377 23 84 30 203 16
247 -15 44 -73 95 -118 103 -18 3 -33 9 -33 13 0 4 35 24 78 45 139 68 217
123 301 212 129 136 183 244 204 407 25 196 -36 293 -184 291 -49 -1 -82 -8
-125 -28 -79 -36 -231 -153 -287 -221 l-45 -55 -11 44 c-13 53 -46 82 -101 91
-74 13 -65 19 178 130 181 83 196 92 250 150 84 90 252 423 252 500 0 12 -11
42 -25 66 -71 125 -80 172 -65 321 5 57 11 141 12 186 2 91 -9 113 -69 138
-49 21 -86 17 -130 -15z m-321 -2097 c12 -68 5 -126 -16 -143 -11 -9 -23 -8
-51 4 -64 26 -84 20 -142 -40 -67 -69 -151 -198 -227 -346 -59 -116 -59 -117
-64 -221 -3 -79 0 -118 12 -163 21 -71 13 -83 -42 -67 -53 16 -117 15 -150 -2
-15 -8 -61 -49 -102 -91 -41 -43 -118 -105 -170 -140 -100 -66 -243 -203 -276
-265 -20 -39 -22 -108 -9 -271 8 -100 -6 -179 -39 -224 -14 -19 -16 -19 -60
29 l-45 49 -63 -7 c-154 -16 -255 -19 -276 -7 -21 11 -22 18 -20 99 3 77 0 91
-20 120 -13 17 -43 43 -66 57 -68 40 -81 87 -45 162 37 77 59 81 290 57 161
-17 406 88 511 219 71 89 237 347 285 445 59 118 63 166 16 233 -39 56 -89
198 -80 223 6 15 15 17 55 12 138 -16 191 -18 228 -6 128 41 406 281 473 410
l34 64 25 -64 c13 -36 29 -93 34 -126z m-1562 -410 c0 -3 -32 -48 -71 -100
-47 -63 -94 -112 -140 -146 -46 -34 -85 -75 -117 -122 -77 -112 -81 -130 -81
-318 0 -179 -9 -248 -37 -280 -11 -11 -47 -34 -82 -50 -90 -43 -212 -136 -257
-197 -51 -71 -84 -155 -85 -216 -1 -77 -26 -179 -61 -248 -67 -132 -75 -247
-33 -473 31 -162 29 -269 -6 -371 -23 -66 -57 -124 -77 -130 -6 -2 -27 12 -46
31 -70 70 -108 59 -250 -75 -70 -65 -110 -113 -147 -174 -147 -244 -181 -393
-148 -658 11 -86 10 -110 -5 -180 -18 -87 -33 -114 -89 -160 -29 -24 -52 -31
-130 -42 -80 -11 -111 -21 -204 -68 -122 -61 -366 -210 -431 -263 -160 -131
-282 -417 -328 -767 -24 -181 -73 -285 -151 -322 -39 -19 -41 -18 -133 20 -58
25 -72 27 -135 20 -39 -4 -96 -8 -126 -9 -75 -2 -82 14 -77 154 9 215 102 337
274 359 130 16 161 50 237 256 60 163 88 300 90 445 2 163 -16 192 -125 206
-63 8 -89 26 -89 63 0 58 78 163 134 180 17 5 60 12 96 16 162 15 244 131 261
370 5 66 15 144 23 173 16 59 9 149 -17 198 -8 16 -38 50 -67 76 -46 42 -51
51 -46 75 12 48 54 101 102 129 41 24 55 27 157 28 100 2 117 5 163 28 79 41
201 174 252 273 38 75 111 161 203 241 97 83 230 228 256 278 21 41 28 136 14
193 -7 26 -26 69 -42 94 -44 70 -35 127 30 182 52 43 89 50 173 33 90 -19 120
-12 206 43 147 96 378 285 403 332 5 10 16 51 24 91 9 40 30 101 47 136 32 66
32 80 12 204 -8 47 18 92 78 135 61 44 127 63 214 63 94 0 142 23 187 87 53
77 95 120 140 142 43 22 57 25 57 15z"/>
</g>
</svg>
