<?xml version="1.0" standalone="no"?>
<!DOCTYPE svg PUBLIC "-//W3C//DTD SVG 20010904//EN"
 "http://www.w3.org/TR/2001/REC-SVG-20010904/DTD/svg10.dtd">
<svg version="1.0" xmlns="http://www.w3.org/2000/svg"
 width="515.000000pt" height="293.000000pt" viewBox="0 0 515.000000 293.000000"
 preserveAspectRatio="xMidYMid meet">
<metadata>
Created by potrace 1.16, written by Peter Selinger 2001-2019
</metadata>
<g transform="translate(0.000000,293.000000) scale(0.100000,-0.100000)"
fill="#000000" stroke="none">
<path d="M2935 2919 c-212 -9 -225 -11 -360 -49 -77 -21 -205 -55 -285 -74
-153 -36 -262 -78 -373 -143 -38 -23 -94 -46 -130 -53 -34 -8 -104 -31 -156
-52 -141 -57 -299 -98 -378 -98 l-68 0 38 -27 37 -26 -27 -17 c-16 -9 -117
-63 -225 -121 -109 -57 -198 -107 -198 -110 0 -3 19 -10 42 -15 l42 -9 -79
-63 c-92 -73 -137 -129 -166 -208 -14 -38 -52 -94 -113 -168 -50 -61 -104
-127 -119 -148 -35 -46 -121 -104 -167 -114 -29 -6 -32 -8 -15 -14 11 -4 58
-10 105 -14 124 -10 129 -13 86 -42 -30 -20 -47 -24 -118 -25 -57 0 -105 -7
-153 -22 l-69 -23 37 -22 c31 -18 54 -22 120 -22 l82 -1 -60 -25 c-36 -15 -99
-29 -157 -36 -104 -11 -106 -13 -92 -65 9 -33 78 -51 250 -64 l151 -11 146 52
c111 40 175 70 258 122 61 38 136 78 167 90 31 11 89 38 127 58 80 43 179 70
197 52 7 -7 7 -22 2 -45 -13 -53 -167 -215 -241 -254 -84 -45 -95 -56 -87 -76
6 -16 15 -18 83 -11 46 4 94 15 121 29 25 12 58 25 75 29 16 4 51 23 77 43 85
62 53 12 -72 -112 -73 -72 -128 -136 -139 -161 -10 -22 -51 -85 -92 -140 l-74
-99 3 -85 c2 -47 7 -91 11 -98 10 -17 64 47 147 172 47 71 77 102 154 163 52
41 125 110 162 153 44 51 90 92 130 117 37 22 92 69 133 114 39 43 72 78 75
78 3 1 24 -25 47 -57 24 -32 54 -65 68 -72 14 -7 25 -16 25 -20 0 -3 -45 -46
-99 -95 l-100 -90 45 -5 45 -5 -101 -110 c-97 -107 -100 -111 -100 -157 0 -36
4 -48 15 -48 8 0 15 -2 15 -5 0 -3 -36 -67 -80 -142 l-80 -137 0 -96 0 -95 18
30 c10 17 51 88 92 160 90 161 150 246 196 281 20 16 59 68 90 121 40 68 67
101 100 123 24 17 44 35 44 40 0 15 111 130 171 176 31 24 67 60 79 79 33 53
39 42 19 -32 -25 -90 -41 -206 -46 -333 -2 -57 -10 -127 -18 -154 -8 -27 -15
-69 -15 -92 0 -42 13 -64 25 -44 3 5 10 10 14 10 7 0 31 -125 52 -275 8 -57
15 -75 38 -95 15 -14 33 -38 41 -55 l13 -30 8 25 c11 38 10 120 -3 286 -10
132 -9 172 7 320 11 108 25 185 37 213 28 66 46 410 23 445 -12 18 -14 37 -9
76 l7 51 44 -83 c25 -46 69 -108 100 -139 l55 -57 -11 -88 c-6 -49 -16 -129
-22 -179 -6 -49 -14 -107 -16 -127 -4 -29 -18 -49 -71 -100 -37 -35 -77 -70
-89 -78 -15 -10 -24 -27 -25 -50 -3 -30 0 -35 20 -38 12 -2 45 10 72 27 28 17
55 31 60 31 6 0 7 -31 3 -79 -7 -100 5 -110 51 -38 19 30 41 57 48 60 7 2 35
48 62 102 30 60 64 113 91 139 23 22 55 61 70 86 15 25 43 58 61 73 19 16 46
49 61 74 l26 45 20 -63 c29 -94 69 -138 130 -139 31 0 33 6 11 32 -22 23 -38
199 -23 245 9 29 14 32 81 44 44 8 73 9 75 3 2 -5 19 -34 38 -64 19 -30 43
-72 55 -92 12 -23 67 -75 139 -132 149 -120 178 -153 185 -208 3 -24 7 -59 9
-78 7 -56 -17 -90 -62 -90 -23 0 -24 -1 -6 -20 37 -41 145 -13 165 43 5 17 10
61 10 99 0 84 -36 164 -100 222 -28 25 -51 59 -67 99 -18 45 -45 83 -98 138
-40 42 -76 86 -79 97 -4 12 -15 24 -25 27 -18 5 -18 7 2 45 25 45 37 50 133
50 l70 0 22 -38 c12 -21 46 -62 77 -90 30 -28 55 -56 55 -62 0 -15 75 -50 108
-50 25 0 30 5 36 30 6 32 26 39 46 16 6 -8 31 -23 56 -32 24 -9 44 -23 44 -30
0 -16 -23 -40 -60 -66 l-25 -17 33 0 c24 -1 43 9 76 39 56 51 88 52 167 4 50
-30 62 -33 80 -24 18 10 20 18 16 47 -4 20 -16 46 -27 58 -24 26 -121 55 -184
55 -45 0 -192 45 -261 80 -22 11 -45 20 -52 20 -7 0 -10 7 -6 15 3 9 -2 24
-11 34 -15 16 -15 19 -1 31 8 7 15 18 15 24 0 7 13 47 29 91 l28 78 44 -40
c62 -57 82 -65 135 -57 38 5 49 12 70 45 l24 38 67 -2 c66 -2 68 -1 68 23 0
22 8 28 61 45 79 26 94 39 94 84 -1 69 -46 90 -112 52 -30 -18 -181 -81 -193
-81 -3 0 9 25 26 56 l32 56 -31 29 c-25 24 -30 34 -23 52 7 18 15 22 47 19 22
-1 51 3 66 9 33 13 94 104 103 153 15 77 37 52 70 -77 13 -53 29 -142 36 -199
11 -96 10 -107 -10 -173 -25 -79 -118 -243 -186 -325 -47 -58 -51 -73 -19 -78
31 -4 156 130 203 218 73 138 101 241 101 379 0 77 10 114 25 91 7 -11 0 -84
-11 -122 -6 -22 40 -36 60 -19 11 9 15 7 19 -11 3 -13 21 -61 40 -107 32 -76
35 -91 31 -155 -8 -123 -26 -219 -55 -293 -36 -90 -125 -269 -139 -278 -5 -3
-10 -11 -10 -17 0 -15 101 72 121 107 29 47 86 195 109 282 11 43 25 139 31
215 9 116 9 144 -4 189 l-16 53 33 -35 c19 -19 55 -81 81 -139 26 -58 75 -145
109 -195 l61 -89 3 47 c3 42 -4 60 -65 172 -37 69 -115 205 -172 301 -102 171
-104 177 -102 232 1 39 -8 89 -28 159 l-31 101 40 124 c33 102 48 133 86 178
38 46 55 58 99 70 30 8 54 20 55 25 2 20 -46 21 -95 3 -64 -24 -132 -96 -192
-206 -25 -46 -47 -81 -50 -78 -3 2 -9 24 -14 48 -26 114 -162 325 -244 377
-34 21 -61 29 -117 34 -96 8 -221 35 -276 58 -35 15 -94 23 -256 34 -138 10
-253 23 -331 40 -149 32 -232 36 -510 24z"/>
</g>
</svg>
