<?xml version="1.0" encoding="UTF-8" standalone="no"?>
<!-- Created with Inkscape (http://www.inkscape.org/) -->

<svg
   xmlns:svg="http://www.w3.org/2000/svg"
   xmlns="http://www.w3.org/2000/svg"
   version="1.2"
   width="233.62801"
   height="145.40199"
   viewBox="0 0 233.628 145.402"
   id="Layer_1"
   xml:space="preserve"
   style="overflow:inherit"><defs
   id="defs7" />
<path
   d="m 64.939,1.202 c 0.332,-0.026 0.664,-0.052 0.997,-0.078 -10.844,25.956 23.281,32.507 43.913,35.688 3.402,-0.813 1.262,-6.364 4.439,-7.368 1.465,3.426 3.36,8.43 5.591,2.906 2.229,-5.524 4.073,-0.279 5.002,4.29 26.432,-1.566 51.765,-13.03 45.283,-36.64 9.312,25.163 -16.077,36.386 -42.214,37.403 1.207,5.592 0.717,7.72 1.932,11.886 24.342,-4.196 50.108,-14.047 73.682,-19.801 9.374,-2.288 21.748,-5.81 30.064,-0.343 -0.567,23.487 -6.844,46.74 -29.315,48.431 4.356,1.797 9.477,2.698 10.671,8.193 -4.126,8.145 -14.013,21.741 -28.881,28.337 -10.733,4.762 -30.191,8.715 -39.566,7.104 -11.824,-2.032 -13.646,-14.919 -19.052,-25.594 0.988,19.761 1.256,38.908 -8.146,49.786 C 106.527,138.094 108.585,109.39 106.236,93.263 108.683,119.87 85.802,123.832 60.018,117.94 41.256,113.652 23.693,99.76 20.17,82.938 19.865,78.957 26.086,80.554 27.835,78.328 14.27,74.244 -0.485,62.486 0.012,30.35 c 15.474,-8.18 32.021,0.511 50.549,5.077 21.213,5.228 38.258,8.733 52.403,15.966 3.562,-2.537 1.729,-9.686 3.972,-13.35 C 86.361,35.339 51.649,26.091 64.939,1.202 z"
   id="path3"
   style="fill-rule:evenodd" />
</svg>