<?xml version="1.0" standalone="no"?>
<!DOCTYPE svg PUBLIC "-//W3C//DTD SVG 20010904//EN"
 "http://www.w3.org/TR/2001/REC-SVG-20010904/DTD/svg10.dtd">
<svg version="1.0" xmlns="http://www.w3.org/2000/svg"
 width="1536.000000pt" height="833.000000pt" viewBox="0 0 1536.000000 833.000000"
 preserveAspectRatio="xMidYMid meet">
<metadata>
Created by potrace 1.16, written by Peter Selinger 2001-2019
</metadata>
<g transform="translate(0.000000,833.000000) scale(0.100000,-0.100000)"
fill="#000000" stroke="none">
<path d="M14166 8308 c-14 -19 -16 -67 -16 -318 0 -247 -3 -314 -19 -405 -13
-76 -21 -183 -26 -348 -3 -131 -10 -249 -15 -262 -15 -39 -48 -331 -55 -477
-3 -75 -16 -201 -29 -280 -19 -115 -25 -197 -31 -418 -6 -297 -10 -340 -27
-340 -6 0 -19 -7 -29 -15 -15 -15 -17 -12 -24 32 -8 55 -33 123 -46 123 -19 0
-39 -53 -88 -230 -54 -197 -87 -295 -145 -427 -20 -45 -36 -84 -36 -88 0 -3
-13 -17 -29 -31 -16 -13 -48 -56 -72 -96 -23 -40 -63 -93 -89 -119 -96 -96
-299 -167 -540 -189 -63 -6 -155 -15 -205 -21 -124 -15 -570 -16 -675 -1 -47
7 -137 17 -200 22 -231 19 -358 32 -490 51 -74 11 -193 24 -264 30 -71 5 -177
16 -235 24 -58 8 -171 23 -251 33 -80 11 -237 30 -350 41 -113 12 -248 31
-300 41 -52 11 -162 31 -245 45 -82 14 -163 30 -180 35 -16 5 -79 16 -140 25
-60 9 -182 30 -270 46 -88 17 -227 39 -310 49 -82 11 -211 28 -285 39 -198 30
-299 41 -366 41 -69 0 -89 9 -80 37 6 20 -46 102 -174 270 -28 37 -74 114
-101 169 -68 139 -89 253 -90 498 0 199 -8 242 -51 266 -25 14 -33 13 -100
-10 -103 -35 -207 -90 -318 -169 -118 -85 -120 -86 -120 -68 0 8 50 68 111
133 113 121 151 174 127 174 -34 -1 -222 -104 -298 -165 -102 -81 -245 -178
-393 -265 -72 -43 -136 -92 -195 -148 -48 -46 -121 -109 -162 -139 -41 -31
-92 -69 -112 -85 -20 -15 -48 -28 -61 -28 -33 0 -242 -127 -338 -205 -261
-212 -426 -283 -786 -334 -78 -11 -186 -32 -240 -46 -182 -48 -370 -76 -603
-90 -447 -27 -589 -35 -800 -45 -118 -6 -255 -16 -305 -24 -49 -8 -171 -21
-270 -30 -99 -9 -227 -23 -285 -31 -99 -13 -164 -20 -460 -45 -275 -24 -485
-82 -780 -217 -91 -41 -219 -99 -285 -128 -264 -115 -456 -257 -616 -457 -42
-52 -107 -116 -160 -158 -49 -39 -96 -81 -105 -95 -8 -13 -21 -53 -27 -88 -10
-58 -9 -67 13 -111 28 -59 99 -132 209 -215 107 -81 227 -142 333 -170 46 -12
115 -33 153 -46 100 -34 238 -60 470 -86 103 -12 196 -38 202 -56 6 -18 -40
-23 -64 -8 -28 19 -83 19 -109 1 -17 -13 -24 -13 -45 -1 -50 29 -70 35 -87 26
-10 -5 -30 -7 -45 -4 -15 3 -34 0 -43 -8 -14 -11 -19 -10 -33 10 -16 21 -21
22 -42 11 -13 -7 -35 -21 -48 -31 -35 -28 -59 -24 -63 9 -5 40 -39 41 -72 2
-27 -33 -56 -35 -56 -5 0 21 -34 19 -55 -5 -14 -15 -22 -17 -37 -9 -13 7 -23
7 -32 0 -8 -7 -16 -7 -22 -1 -10 10 -74 -40 -74 -58 0 -5 17 -36 39 -69 74
-115 297 -285 463 -352 101 -41 384 -138 568 -194 122 -37 133 -40 386 -87 89
-17 176 -35 195 -40 19 -6 86 -17 149 -26 63 -8 205 -35 315 -59 111 -25 246
-49 300 -55 137 -16 179 -22 415 -65 113 -20 230 -38 260 -41 141 -10 266 -32
590 -103 186 -40 366 -68 555 -86 88 -8 183 -17 212 -21 l52 -6 54 -92 c30
-50 76 -142 102 -203 26 -62 56 -124 67 -138 27 -35 67 -32 167 11 140 61 130
64 251 -71 143 -159 309 -288 480 -375 25 -13 91 -56 147 -96 56 -40 168 -110
250 -155 81 -46 175 -99 208 -119 33 -20 86 -47 119 -59 32 -12 77 -32 100
-46 62 -35 229 -95 268 -95 18 0 43 7 56 15 30 22 110 147 143 225 15 36 36
87 48 113 42 97 61 198 61 327 0 119 -6 147 -38 179 -12 13 -12 16 6 22 12 5
29 20 39 36 15 23 18 48 17 178 0 82 -4 177 -9 209 l-8 59 184 -9 c222 -11
666 -8 879 6 150 10 290 31 550 83 256 52 570 107 715 127 777 104 849 114
1140 166 143 25 274 48 291 51 l31 5 7 -72 c9 -84 42 -289 56 -341 13 -46 45
-88 78 -100 41 -16 79 14 233 181 78 85 146 156 150 158 15 6 207 -177 524
-502 176 -180 340 -340 364 -357 51 -34 107 -38 140 -11 26 20 49 101 57 197
5 57 2 78 -14 117 -36 82 -36 106 -2 227 54 191 43 329 -43 548 -31 81 -51
115 -93 162 -68 75 -103 96 -181 112 -35 7 -63 16 -63 20 0 4 26 13 58 19 191
38 336 85 663 215 254 101 388 169 534 270 33 23 101 64 150 92 50 28 147 86
217 129 70 43 151 93 180 110 223 131 296 179 473 315 49 38 92 69 96 69 9 0
41 -284 46 -410 2 -63 6 -125 9 -137 12 -61 107 6 143 101 25 67 49 211 61
371 6 72 15 148 20 170 6 22 17 90 24 150 14 106 39 187 120 380 13 33 32 110
40 170 9 61 21 125 27 144 15 46 6 113 -20 150 -13 17 -33 57 -45 89 -13 32
-54 105 -93 163 -38 57 -91 145 -118 194 -59 111 -193 353 -211 380 -34 54
-76 236 -94 405 -6 58 -17 143 -25 190 -8 47 -24 155 -35 240 -11 85 -27 191
-35 235 -8 44 -19 140 -25 213 -5 72 -15 192 -21 265 -5 72 -30 269 -54 437
-37 258 -49 321 -80 405 -20 55 -56 163 -80 240 -24 78 -53 163 -65 189 -23
54 -149 246 -161 246 -4 0 -15 -10 -23 -22z"/>
</g>
</svg>
