<?xml version="1.0" standalone="no"?>
<!DOCTYPE svg PUBLIC "-//W3C//DTD SVG 20010904//EN"
 "http://www.w3.org/TR/2001/REC-SVG-20010904/DTD/svg10.dtd">
<svg version="1.0" xmlns="http://www.w3.org/2000/svg"
 width="683.000000pt" height="1536.000000pt" viewBox="0 0 683.000000 1536.000000"
 preserveAspectRatio="xMidYMid meet">
<metadata>
Created by potrace 1.16, written by Peter Selinger 2001-2019
</metadata>
<g transform="translate(0.000000,1536.000000) scale(0.100000,-0.100000)"
fill="#000000" stroke="none">
<path d="M682 15342 c-11 -11 -27 -45 -36 -75 -9 -31 -27 -68 -40 -84 -13 -15
-29 -46 -36 -68 -7 -22 -32 -76 -55 -120 -60 -111 -124 -331 -122 -416 1 -54
-4 -74 -32 -128 -23 -44 -35 -84 -38 -125 -4 -46 -14 -75 -40 -118 -32 -52
-34 -60 -28 -113 7 -49 5 -59 -14 -79 -20 -21 -21 -27 -10 -77 13 -58 6 -309
-9 -350 -5 -12 -23 -27 -43 -33 -33 -11 -34 -13 -34 -61 0 -28 4 -71 8 -96 7
-41 5 -49 -22 -83 -28 -35 -30 -42 -24 -99 3 -43 0 -79 -11 -119 l-17 -57 30
-70 c40 -90 40 -117 -4 -172 -20 -25 -35 -55 -35 -70 0 -15 -10 -39 -22 -54
-20 -25 -20 -31 -9 -92 10 -55 9 -72 -5 -118 -17 -52 -17 -55 6 -114 12 -33
20 -66 17 -73 -3 -7 -12 -29 -21 -50 -15 -34 -14 -38 9 -83 32 -59 31 -65 -5
-100 -37 -35 -37 -55 -5 -103 29 -43 31 -61 8 -120 -16 -42 -15 -45 5 -95 29
-69 28 -76 -13 -124 -19 -23 -35 -48 -35 -57 0 -8 16 -30 35 -47 42 -39 45
-69 9 -112 -24 -29 -25 -35 -19 -95 5 -51 3 -73 -11 -104 l-18 -39 32 -62 c18
-34 32 -67 32 -73 0 -6 -11 -21 -25 -34 -54 -51 -42 -112 44 -218 28 -35 51
-71 51 -80 0 -9 3 -348 5 -752 3 -404 10 -809 15 -900 31 -535 40 -714 50
-975 20 -545 95 -1553 190 -2570 39 -409 52 -516 100 -815 22 -135 85 -586
140 -1004 139 -1051 159 -1177 241 -1531 60 -259 121 -470 229 -800 85 -259
160 -510 160 -539 0 -4 -25 -5 -56 -1 -56 7 -57 6 -50 -17 17 -61 18 -78 5
-78 -32 0 -350 341 -550 588 -112 139 -221 274 -242 300 -21 26 -65 102 -97
170 -33 67 -67 125 -76 129 -24 9 -120 -26 -145 -53 -20 -22 -21 -27 -10 -63
16 -55 52 -121 166 -307 130 -211 164 -261 253 -374 89 -113 437 -463 572
-574 52 -44 96 -82 97 -85 3 -8 -105 -79 -174 -116 -35 -19 -57 -39 -68 -62
-13 -27 -65 -187 -65 -200 0 -2 33 -2 73 -1 55 2 83 -2 115 -16 43 -19 44 -19
100 0 75 25 141 22 226 -10 37 -14 78 -26 90 -26 12 0 46 16 75 35 65 41 113
50 241 42 102 -6 110 -4 173 46 32 26 37 27 83 17 68 -14 238 -39 242 -35 5 5
-27 122 -49 178 -11 29 -38 75 -60 104 -21 29 -39 59 -39 67 0 18 84 76 202
140 47 26 91 53 98 61 17 20 23 77 12 106 l-10 26 -209 -102 c-114 -56 -226
-108 -247 -115 -27 -9 -73 -11 -145 -7 -140 7 -157 14 -94 37 67 25 687 311
923 426 232 113 330 167 736 402 170 98 374 214 454 257 220 119 275 158 536
386 55 47 169 142 254 210 249 198 299 255 480 539 51 80 130 197 175 260 46
63 99 141 119 174 73 122 207 475 341 901 58 187 142 448 185 580 101 309 185
715 210 1020 16 199 13 850 -6 990 -28 220 -105 689 -130 790 -28 117 -29 143
-9 173 23 31 98 72 158 86 50 11 52 13 65 59 7 26 19 48 25 49 7 1 28 2 47 2
36 1 41 8 55 78 4 20 13 29 33 33 45 10 57 20 60 54 3 24 10 34 35 45 18 7 56
39 86 70 50 54 53 60 47 96 -6 37 -4 39 31 57 40 20 42 24 69 158 19 90 27
105 60 105 30 0 38 15 39 70 0 39 4 46 28 58 25 12 28 18 23 46 -3 17 -9 57
-12 89 -10 84 -30 85 -111 9 -25 -23 -33 -38 -33 -66 0 -25 -9 -45 -29 -69
-21 -24 -31 -46 -33 -77 -3 -38 -7 -45 -28 -50 -18 -4 -27 -15 -33 -44 -6 -25
-17 -41 -33 -48 -19 -9 -24 -19 -24 -49 0 -58 -8 -69 -50 -69 -25 0 -50 -9
-79 -31 -38 -27 -42 -34 -39 -67 3 -33 0 -37 -23 -40 -29 -3 -59 -47 -59 -85
0 -29 -12 -40 -64 -57 -32 -10 -42 -20 -62 -66 -17 -38 -35 -61 -65 -81 -22
-15 -45 -37 -50 -49 -4 -13 -17 -28 -28 -34 -17 -8 -24 -7 -41 10 -27 27 -25
47 10 99 l29 45 -38 17 c-31 13 -45 30 -70 80 -36 73 -39 106 -10 143 16 21
29 26 64 26 51 0 75 19 75 60 0 46 28 71 90 78 52 7 54 8 61 42 4 19 19 44 34
55 19 16 28 35 34 75 9 57 19 70 112 138 24 18 72 54 106 81 33 27 67 51 75
53 9 3 4 12 -16 29 -36 31 -30 59 21 90 34 21 35 23 29 70 -6 43 -4 49 19 66
73 51 70 46 70 129 l0 79 37 23 c32 21 40 36 67 116 27 80 30 100 25 166 -3
41 -12 92 -20 113 -8 20 -14 50 -14 66 0 15 -9 36 -21 47 -31 28 -51 8 -66
-67 -15 -70 -14 -69 -63 -97 -33 -18 -35 -22 -33 -68 4 -70 -3 -89 -45 -136
-34 -38 -37 -45 -38 -108 -2 -115 -82 -250 -147 -250 -44 0 -58 -21 -67 -99
-7 -61 -13 -79 -39 -109 -18 -21 -40 -55 -51 -77 -11 -24 -30 -45 -48 -53 -22
-9 -36 -28 -56 -76 -36 -83 -111 -176 -156 -192 -19 -7 -62 -13 -96 -13 -52
-1 -67 3 -101 28 -39 28 -75 71 -85 101 -9 26 12 51 60 71 57 25 63 34 56 80
-6 33 -3 38 27 59 55 37 98 82 132 135 30 46 32 55 29 124 -3 74 -2 77 54 189
l57 113 -16 35 c-22 46 -21 70 4 106 17 24 20 38 15 74 -5 38 -1 53 24 98 35
62 37 75 10 109 -26 33 -25 49 5 76 24 20 25 26 19 81 -6 54 -4 66 24 123 43
87 95 144 141 157 50 13 59 25 58 79 0 31 5 46 18 53 9 6 23 18 31 27 86 102
78 96 143 95 56 -1 61 0 61 21 0 13 10 27 24 34 23 13 46 49 46 75 0 22 -55
96 -86 117 -54 35 -134 15 -134 -35 0 -36 -22 -55 -72 -65 -59 -10 -73 -22
-97 -76 -19 -43 -53 -71 -71 -60 -17 10 -11 30 20 73 33 46 39 92 14 112 -32
28 -37 50 -19 97 23 60 14 158 -21 231 -26 52 -38 63 -47 40 -4 -9 -12 -5 -25
10 -19 24 -19 24 -31 -110 -7 -73 -19 -159 -27 -190 -7 -32 -14 -94 -14 -138
0 -62 -6 -95 -26 -147 -16 -41 -29 -102 -34 -153 -5 -49 -17 -104 -29 -130
-11 -25 -21 -62 -21 -82 0 -25 -5 -38 -13 -38 -22 0 -46 -32 -63 -84 -14 -41
-29 -58 -100 -114 -46 -36 -88 -78 -95 -94 -21 -50 -48 -77 -113 -107 -56 -27
-65 -36 -86 -83 -16 -35 -52 -80 -107 -134 -45 -45 -85 -79 -88 -76 -3 3 -5
19 -5 35 0 18 -11 42 -30 64 -16 18 -30 42 -30 53 0 11 -18 31 -45 50 -83 57
-80 89 14 150 44 28 56 43 90 114 26 56 55 97 90 131 29 28 59 61 66 75 20 38
46 145 55 222 6 57 15 78 54 135 32 48 50 88 62 138 8 39 29 94 46 123 27 48
30 60 24 105 -4 29 -9 76 -13 105 l-6 54 94 89 c56 53 102 89 114 89 39 0 63
28 75 84 6 30 20 66 30 79 26 33 131 87 169 87 23 0 40 9 60 30 22 25 34 30
68 28 34 -1 49 5 78 30 19 18 44 32 55 32 32 0 60 47 59 99 -1 103 -43 149
-93 102 -12 -11 -36 -24 -53 -27 -19 -4 -46 -22 -65 -44 -26 -28 -47 -40 -88
-50 -68 -16 -103 -33 -158 -78 -24 -19 -67 -47 -95 -63 -40 -21 -58 -39 -77
-76 -19 -37 -31 -49 -53 -51 -42 -5 -43 20 -7 100 28 61 32 78 27 124 -5 48
-3 58 20 84 23 27 25 37 19 83 -3 29 -9 87 -12 130 -6 66 -11 81 -31 96 -48
38 -86 3 -104 -95 -6 -32 -17 -74 -25 -93 -8 -18 -14 -58 -14 -89 0 -37 -6
-65 -19 -86 -14 -21 -20 -48 -19 -82 1 -40 -6 -63 -34 -114 -20 -36 -43 -96
-52 -135 -23 -93 -40 -118 -149 -218 -66 -60 -103 -104 -125 -146 -22 -40 -48
-70 -81 -94 -33 -24 -53 -47 -61 -72 -10 -29 -29 -47 -103 -97 -133 -88 -164
-114 -208 -174 -67 -92 -95 -69 -93 77 2 108 7 121 79 200 62 67 65 73 65 120
0 78 59 149 124 149 42 0 86 21 92 45 3 12 1 49 -5 82 -12 65 -9 79 25 133 21
32 22 39 11 78 -11 41 -10 44 17 65 26 21 28 27 24 72 -8 83 8 135 57 192 56
63 67 91 54 135 -15 53 -12 63 36 116 38 42 45 56 45 91 0 34 7 49 39 84 22
23 44 61 50 84 8 30 24 52 52 75 49 39 69 75 69 121 0 25 11 50 40 88 41 54
43 69 9 69 -22 0 -59 33 -59 54 0 23 51 65 91 76 44 12 56 37 45 95 -6 31 -2
40 37 82 43 48 101 140 126 199 17 43 11 98 -11 102 -50 10 -177 -90 -198
-155 -7 -21 -29 -56 -50 -78 -30 -34 -43 -62 -71 -160 -33 -116 -35 -119 -81
-152 -25 -18 -49 -40 -52 -49 -3 -9 -6 -46 -6 -84 0 -67 0 -68 -34 -84 -19 -9
-41 -16 -50 -16 -31 0 -66 -46 -66 -85 0 -61 -21 -122 -54 -162 -53 -61 -58
-77 -51 -149 11 -97 0 -115 -120 -196 -5 -4 -12 -47 -15 -95 l-5 -88 -34 -16
c-44 -21 -54 -40 -42 -86 22 -92 23 -89 -14 -133 -29 -35 -35 -50 -35 -89 0
-35 -7 -56 -25 -81 -14 -19 -25 -44 -25 -56 0 -41 -19 -75 -52 -92 -17 -9 -52
-35 -77 -58 -25 -23 -56 -46 -68 -53 -22 -11 -23 -10 -23 32 0 38 -5 48 -45
87 -25 24 -45 48 -45 53 0 4 15 14 33 22 18 7 40 22 49 32 37 40 128 287 128
347 0 18 13 45 35 72 38 46 41 62 24 130 -10 38 -9 52 11 104 15 41 20 70 16
92 -21 101 -22 95 27 118 56 27 64 45 71 181 5 89 3 109 -10 120 -21 17 -10
54 28 98 28 32 30 38 23 85 -12 73 -9 115 10 192 11 43 15 83 11 108 -8 50
-41 126 -55 126 -18 0 -111 -124 -120 -160 -15 -58 -35 -221 -36 -290 -1 -51
-8 -79 -33 -132 -44 -94 -82 -230 -82 -297 0 -31 -9 -82 -20 -114 -11 -31 -20
-80 -20 -109 0 -36 -9 -71 -26 -108 -14 -30 -28 -79 -31 -109 -4 -33 -16 -69
-30 -89 -18 -28 -23 -48 -23 -99 0 -119 -44 -171 -116 -137 -20 9 -47 32 -61
50 -23 31 -25 40 -22 121 l4 88 -37 20 c-45 24 -52 40 -73 175 -17 107 -51
216 -88 282 l-20 37 27 32 c18 21 26 41 24 58 -3 22 -8 26 -41 29 -25 2 -37 8
-34 15 34 91 34 112 0 124 -41 14 -43 23 -18 71 30 57 30 55 0 117 -14 28 -25
64 -25 82 0 21 -11 45 -35 73 -38 46 -37 56 9 99 31 29 33 53 7 89 -10 15 -22
37 -25 50 -5 15 -15 22 -32 22 -28 0 -31 21 -9 60 21 37 18 67 -11 106 l-27
34 26 38 c21 30 25 44 20 79 -3 24 -12 48 -19 54 -8 6 -14 21 -14 33 0 30 -50
76 -82 76 -36 0 -58 -34 -58 -87 0 -31 -6 -48 -22 -63 -18 -17 -23 -33 -24
-78 0 -31 -4 -76 -9 -99 -6 -36 -5 -42 15 -53 19 -10 21 -17 15 -51 -6 -32 -2
-48 21 -86 25 -43 26 -51 17 -96 -8 -41 -7 -54 10 -88 16 -33 18 -45 8 -66
-11 -23 -9 -29 14 -53 28 -30 30 -40 13 -87 -10 -28 -10 -38 2 -56 39 -62 41
-73 25 -122 -16 -46 -16 -47 9 -70 32 -30 32 -42 1 -85 -14 -19 -25 -42 -25
-51 0 -10 20 -36 44 -59 36 -34 47 -53 62 -108 9 -37 21 -75 26 -84 4 -9 17
-68 27 -132 11 -63 27 -128 36 -146 9 -17 13 -35 10 -40 -11 -19 -52 -10 -76
16 -33 35 -71 54 -110 54 -26 0 -42 10 -79 50 l-46 50 -60 -6 -60 -6 -34 39
c-19 22 -43 54 -52 71 -20 37 -50 42 -99 16 -17 -8 -45 -14 -62 -12 -26 2 -31
7 -29 23 2 11 6 35 9 53 11 67 -72 111 -182 95 -81 -12 -104 -2 -123 52 -8 22
-18 52 -24 66 -6 18 -32 39 -78 64 -37 20 -110 76 -162 124 -52 47 -116 105
-142 127 -45 40 -46 43 -40 83 8 50 -14 91 -51 91 -13 0 -27 -4 -30 -10 -15
-24 -55 -8 -103 40 -28 28 -55 50 -60 50 -6 0 -17 3 -25 6 -23 9 -57 -31 -57
-68 0 -44 34 -110 72 -138 29 -21 30 -24 13 -36 -16 -12 -16 -16 -4 -30 8 -10
43 -30 78 -46 62 -29 63 -30 58 -63 -8 -48 14 -75 62 -75 44 0 56 -11 66 -59
l7 -33 49 6 c42 6 49 4 59 -15 7 -11 9 -32 6 -45 -8 -30 9 -64 32 -64 23 0
202 -90 202 -102 0 -6 25 -37 55 -71 39 -42 55 -69 55 -88 0 -29 5 -32 73 -44
27 -4 56 -23 105 -67 l67 -60 62 5 63 5 0 -40 c0 -30 7 -46 28 -68 25 -25 34
-27 75 -23 l47 6 0 -42 0 -41 49 0 c45 0 52 -3 81 -37 17 -21 33 -48 36 -60 8
-31 48 -30 124 2 33 14 65 25 71 25 6 0 37 -26 68 -58 36 -38 70 -64 96 -72
54 -17 65 -27 65 -60 0 -15 9 -39 21 -54 11 -14 17 -30 14 -36 -13 -21 -46 -8
-89 36 -45 45 -47 46 -103 44 -87 -3 -88 -3 -137 39 -33 29 -61 43 -103 52
-32 7 -83 23 -113 36 -32 15 -81 26 -117 28 -74 4 -99 16 -107 50 -5 20 -11
25 -26 20 -21 -7 -46 14 -71 62 -14 25 -24 31 -66 37 -44 6 -53 11 -82 51 -18
25 -38 46 -44 46 -7 1 -39 2 -72 3 -64 1 -56 -3 -297 160 -20 14 -46 42 -56
62 -12 24 -33 44 -62 58 -35 17 -51 35 -82 90 -57 102 -92 124 -157 101 -36
-12 -46 -12 -97 6 -49 17 -59 18 -71 6 -12 -12 -11 -23 11 -77 14 -35 26 -74
26 -88 0 -18 32 -56 118 -142 93 -93 126 -120 158 -129 32 -8 45 -18 54 -41
16 -40 46 -60 87 -60 23 0 44 -10 70 -34 21 -18 47 -35 58 -37 14 -3 21 -16
27 -47 4 -23 10 -47 14 -53 11 -19 87 -49 125 -49 40 0 54 -9 92 -62 34 -46
53 -52 106 -33 28 9 49 12 59 6 25 -13 82 -76 96 -103 9 -18 23 -25 71 -31 84
-11 107 -25 132 -79 20 -40 28 -48 59 -54 20 -4 56 -2 81 3 67 16 204 -15 246
-55 30 -28 39 -30 127 -36 178 -12 247 -21 265 -36 31 -26 42 -68 37 -140 -4
-60 -2 -69 18 -87 12 -12 42 -26 66 -32 40 -10 47 -16 65 -59 11 -26 31 -61
45 -79 44 -59 25 -84 -49 -63 -81 23 -87 23 -107 5 -27 -24 -46 -14 -72 42
-28 58 -51 64 -108 28 -49 -31 -82 -30 -90 4 -3 13 -17 33 -31 44 -24 17 -32
18 -81 8 -68 -14 -91 -5 -133 52 -43 58 -56 64 -107 49 -86 -26 -87 -26 -97 0
-5 13 -23 39 -40 57 -25 27 -36 32 -59 27 -79 -16 -94 -18 -118 -12 -15 4 -54
33 -88 65 -93 88 -114 101 -159 101 -32 0 -46 6 -73 35 -29 31 -38 35 -85 35
-43 0 -57 5 -86 30 -21 19 -45 30 -63 30 -37 0 -59 22 -66 70 -8 52 -30 69
-95 77 -75 9 -96 25 -115 89 -17 60 -30 70 -124 97 -68 20 -94 43 -127 113
-26 55 -61 84 -100 84 -16 0 -67 12 -150 36 -34 9 -29 -20 12 -86 19 -30 35
-64 35 -77 0 -42 49 -83 125 -104 73 -20 115 -52 115 -89 0 -51 23 -73 117
-110 21 -8 41 -27 55 -53 18 -32 32 -44 63 -53 30 -8 45 -20 60 -46 28 -50
158 -167 197 -179 18 -5 48 -9 66 -9 49 0 87 -24 132 -84 41 -54 89 -86 130
-86 29 0 58 -16 107 -61 46 -42 56 -45 155 -53 74 -6 89 -12 155 -62 42 -32
50 -34 121 -34 92 0 123 -14 134 -57 l9 -33 100 0 c85 0 107 -3 147 -24 49
-24 224 -66 279 -66 17 0 50 7 74 15 57 20 82 13 107 -29 15 -25 32 -38 60
-45 84 -23 111 -115 40 -140 -45 -16 -71 -14 -64 4 7 20 -28 20 -84 0 -57 -20
-99 -11 -150 32 -26 23 -50 35 -66 33 -42 -4 -94 -2 -244 9 l-145 11 -22 -25
c-29 -33 -66 -32 -93 3 -24 30 -57 51 -81 52 -10 0 -40 -16 -68 -35 -29 -19
-58 -32 -65 -29 -8 3 -18 26 -23 52 l-8 47 -55 0 c-40 0 -65 6 -92 23 -31 19
-45 22 -86 16 -46 -6 -51 -4 -67 19 -11 18 -29 28 -58 32 -71 12 -139 50 -196
108 l-53 55 -36 -15 c-34 -14 -37 -14 -47 2 -33 57 -51 69 -121 76 -64 6 -71
10 -108 50 -23 24 -60 50 -85 59 -30 12 -53 29 -68 51 -56 87 -71 99 -127 99
-58 0 -68 6 -117 70 -45 59 -55 67 -114 81 -27 6 -62 18 -77 25 -37 19 -37 19
-54 -21 -20 -50 -18 -72 12 -88 14 -7 33 -25 43 -40 10 -15 42 -42 72 -60 45
-27 57 -40 75 -85 27 -67 31 -71 85 -80 38 -6 46 -13 62 -45 9 -21 34 -48 57
-62 22 -14 47 -36 55 -49 19 -28 186 -116 221 -116 16 0 39 -15 64 -40 38 -39
41 -40 108 -40 75 0 97 -13 104 -59 2 -18 13 -28 41 -37 21 -8 52 -25 68 -38
25 -22 37 -25 74 -19 43 5 44 5 62 -33 l18 -39 135 -13 c93 -9 161 -22 220
-42 120 -40 134 -42 186 -29 44 11 46 11 78 -20 38 -36 47 -38 71 -11 23 25
39 25 74 -1 26 -19 33 -20 66 -9 20 7 51 9 68 6 92 -19 139 -21 322 -12 87 4
118 1 148 -11 30 -13 44 -14 76 -5 54 17 67 15 144 -15 59 -23 72 -33 94 -71
14 -24 46 -67 70 -95 57 -67 76 -103 69 -133 -7 -27 -22 -30 -45 -11 -9 8 -37
21 -63 31 -28 10 -50 25 -53 37 -6 17 -16 19 -81 19 -67 0 -77 3 -98 25 -26
28 -43 31 -80 14 -20 -9 -32 -8 -59 4 -26 13 -42 14 -68 7 -30 -9 -36 -8 -52
15 -23 31 -32 31 -59 0 -24 -28 -59 -33 -78 -10 -17 21 -57 19 -87 -5 -38 -30
-57 -25 -97 25 -48 58 -87 61 -166 10 -52 -32 -56 -33 -64 -15 -13 29 -34 32
-83 10 -74 -33 -76 -32 -162 80 -16 21 -23 23 -47 15 -17 -7 -31 -21 -38 -42
-17 -50 -28 -57 -69 -44 -19 7 -42 20 -51 30 -14 15 -14 20 -1 37 34 44 1 66
-80 54 -42 -7 -56 -5 -85 12 -29 17 -46 19 -98 15 -61 -6 -63 -5 -73 19 -7 21
-14 25 -32 19 -64 -20 -76 -18 -82 11 -14 66 -22 74 -67 74 -24 0 -52 7 -62
15 -11 8 -37 15 -58 15 -33 0 -45 7 -87 50 -49 50 -118 89 -158 90 -12 0 -34
11 -50 24 -63 53 -187 101 -216 84 -26 -14 -20 -38 20 -76 27 -25 38 -45 42
-76 6 -40 7 -41 52 -46 25 -3 57 -15 71 -26 15 -11 47 -29 73 -39 39 -14 50
-24 65 -61 18 -41 22 -44 58 -44 31 0 44 -6 70 -35 26 -30 35 -35 59 -29 15 4
30 7 33 6 25 0 33 -6 45 -36 11 -27 22 -36 52 -43 28 -6 45 -19 66 -50 24 -36
35 -43 82 -54 30 -7 62 -20 71 -31 12 -12 31 -18 60 -18 31 0 51 -7 72 -25 23
-20 41 -25 81 -25 38 0 51 -4 51 -15 0 -29 40 -38 148 -31 87 5 108 3 135 -12
25 -13 59 -17 162 -18 72 -1 143 -5 159 -9 16 -5 51 -2 83 5 47 12 61 11 96
-2 30 -11 59 -13 102 -8 45 5 66 3 83 -8 20 -13 33 -13 90 -3 79 14 150 4 193
-28 33 -25 47 -26 73 -6 24 18 119 20 134 3 6 -7 12 -26 14 -43 3 -29 5 -30
63 -35 48 -4 68 -11 100 -36 22 -18 64 -39 93 -49 74 -24 108 -69 105 -142
l-2 -53 53 -39 c41 -31 54 -47 59 -73 3 -19 19 -56 36 -83 17 -27 31 -56 31
-66 0 -26 -26 -42 -58 -35 -19 5 -45 -1 -84 -19 -63 -29 -83 -27 -160 11 -66
33 -118 40 -156 20 -44 -23 -51 -21 -107 25 -47 39 -53 41 -100 36 -31 -3 -57
0 -70 8 -32 21 -100 27 -158 15 -67 -14 -93 -5 -159 55 -32 29 -63 47 -86 51
-20 3 -49 14 -64 25 -38 27 -65 24 -105 -11 -55 -48 -90 -42 -156 26 -54 56
-55 56 -133 66 -43 5 -103 11 -132 12 -37 2 -61 9 -80 25 -135 109 -173 129
-186 96 -8 -23 -23 -18 -62 20 -19 19 -39 35 -44 35 -5 0 -7 7 -4 15 13 32
-24 62 -118 99 -122 48 -131 54 -167 103 -44 61 -73 78 -111 64 -23 -7 -45 -7
-81 1 -27 6 -52 8 -56 5 -13 -14 18 -57 51 -71 28 -11 37 -23 46 -55 7 -26 18
-42 32 -47 11 -3 38 -24 59 -45 23 -24 48 -39 62 -39 23 0 47 -32 47 -63 0 -7
15 -19 33 -27 17 -8 34 -24 35 -35 5 -30 31 -45 79 -45 41 0 50 -5 117 -69 61
-58 81 -70 124 -80 29 -6 71 -23 93 -38 29 -19 57 -28 101 -31 52 -4 62 -8 81
-34 31 -43 62 -55 199 -83 118 -24 138 -31 205 -71 28 -16 37 -17 78 -6 46 12
48 12 81 -18 39 -34 34 -33 94 -19 69 16 95 14 129 -10 28 -21 39 -22 100 -16
64 6 69 5 101 -22 32 -27 38 -28 118 -25 82 3 87 2 142 -32 64 -39 88 -43 147
-22 22 8 91 16 154 18 63 1 117 7 120 12 9 12 76 -22 99 -52 39 -49 18 -92
-45 -92 l-25 0 19 -39 c16 -31 30 -42 73 -57 40 -15 54 -25 56 -42 5 -31 -19
-37 -75 -18 -25 9 -59 16 -75 16 -16 0 -41 9 -56 20 -26 19 -30 20 -70 6 -42
-15 -45 -15 -92 10 l-48 25 -74 -25 c-100 -35 -138 -34 -181 4 -39 34 -65 37
-127 15 -62 -22 -87 -19 -133 18 -39 30 -46 32 -118 32 -71 0 -80 2 -106 28
-16 15 -33 27 -38 27 -4 0 -32 -12 -61 -27 l-54 -27 -42 40 -43 41 -145 -2
-145 -2 -70 72 c-82 84 -107 100 -134 85 -30 -16 -37 -13 -60 26 -18 30 -26
35 -46 30 -14 -3 -36 -9 -49 -12 -20 -5 -36 5 -91 56 -85 79 -111 89 -200 81
l-70 -6 2 -43 c3 -57 33 -116 62 -120 12 -2 26 -14 31 -27 5 -13 23 -31 39
-40 17 -8 41 -29 53 -45 15 -21 30 -30 49 -30 20 0 36 -11 58 -37 17 -21 49
-44 73 -53 36 -13 44 -21 52 -51 9 -36 10 -37 68 -43 32 -3 76 -15 97 -25 27
-14 49 -18 75 -14 28 4 44 0 74 -19 21 -14 53 -29 72 -33 94 -19 112 -26 100
-40 -7 -8 -7 -16 -2 -19 19 -12 188 -9 243 4 67 15 119 8 145 -21 33 -36 69
-49 117 -43 31 4 53 1 75 -10 18 -9 48 -16 67 -14 22 1 41 -5 55 -17 20 -18
22 -18 51 -1 18 11 37 15 47 10 9 -4 56 -9 104 -10 83 -3 88 -2 124 27 27 21
45 28 59 24 11 -4 63 -10 115 -15 107 -10 188 -26 207 -42 7 -6 27 -8 43 -4
26 5 32 2 42 -19 12 -27 45 -33 67 -12 19 18 71 -47 71 -90 0 -25 4 -33 18
-33 23 0 51 -57 58 -119 3 -25 7 -58 9 -73 4 -27 3 -28 -40 -28 -39 0 -46 4
-60 29 -17 34 -40 42 -74 24 -35 -17 -147 -7 -198 19 -41 21 -42 21 -81 4 -34
-16 -47 -17 -92 -7 -40 9 -56 8 -67 0 -11 -10 -19 -7 -41 14 -35 34 -108 60
-148 52 -22 -4 -34 -14 -45 -37 -19 -43 -38 -46 -51 -10 l-12 30 -33 -16 c-32
-15 -34 -15 -53 6 -33 35 -81 28 -94 -15 -13 -40 -45 -39 -82 1 -40 44 -73 47
-108 10 -29 -32 -38 -28 -66 31 -23 47 -50 62 -91 52 -12 -3 -40 1 -62 10 -31
13 -43 14 -59 4 -21 -13 -24 -12 -86 36 -31 24 -54 33 -81 33 -39 0 -66 20
-90 68 -11 21 -14 21 -34 7 -30 -21 -34 -19 -52 15 -11 21 -27 33 -58 42 -26
7 -58 29 -87 57 -47 48 -154 111 -188 111 -11 0 -25 -7 -33 -16 -10 -13 -10
-20 4 -44 9 -15 17 -40 17 -54 0 -18 8 -30 30 -41 24 -12 30 -22 30 -48 0 -37
6 -47 41 -67 88 -51 99 -62 99 -94 0 -28 6 -35 45 -54 32 -15 50 -33 66 -64
12 -24 27 -46 33 -50 6 -5 36 -5 67 -2 l56 6 58 -52 58 -52 56 6 c31 4 81 8
111 10 30 1 65 6 77 10 18 7 30 0 63 -33 45 -45 60 -48 113 -26 50 21 52 20
101 -25 49 -45 88 -52 137 -23 27 16 30 16 74 -6 l46 -23 40 21 c42 22 84 27
94 11 9 -15 48 -12 73 6 18 12 26 13 37 4 10 -9 21 -8 44 4 33 17 61 21 61 8
0 -5 11 -14 24 -20 20 -9 29 -8 48 7 38 29 51 30 100 3 46 -26 47 -26 67 -8
12 11 21 25 21 33 0 17 20 17 46 -1 11 -8 40 -16 65 -18 39 -3 46 -7 61 -37
26 -52 46 -59 73 -25 30 38 51 27 65 -38 77 -350 78 -364 8 -335 -20 8 -41 11
-53 6 -11 -4 -41 -5 -67 -2 -33 4 -53 1 -69 -11 -35 -24 -54 -20 -83 19 -33
43 -45 44 -79 5 -37 -41 -68 -39 -147 10 -90 55 -106 53 -119 -14 -9 -40 -36
-44 -92 -15 -36 18 -55 21 -115 17 -75 -5 -92 1 -112 39 -14 25 -47 21 -63 -8
-10 -20 -54 -26 -64 -9 -4 7 -28 8 -65 4 -57 -6 -58 -6 -103 35 -25 23 -59 44
-78 47 -38 8 -69 30 -69 51 0 10 -10 12 -40 7 -29 -5 -53 -1 -87 14 -51 21
-209 38 -231 24 -9 -7 -9 -18 4 -55 13 -38 14 -51 4 -62 -13 -16 -15 -14 45
-32 17 -5 34 -19 40 -31 6 -13 20 -22 39 -24 23 -2 37 -14 59 -45 26 -39 32
-43 70 -43 36 0 46 -6 83 -46 40 -43 45 -45 90 -43 46 3 48 2 62 -31 22 -56
39 -64 75 -34 l30 25 27 -26 27 -26 38 31 c54 43 88 40 120 -10 14 -22 30 -40
36 -40 7 0 36 14 66 31 51 29 58 31 94 20 30 -9 48 -9 79 0 32 10 48 9 80 -1
35 -12 44 -11 89 9 66 28 79 27 117 -10 l32 -31 27 41 28 41 78 2 c44 1 91 2
106 2 23 1 28 -4 34 -33 10 -49 33 -58 91 -36 8 3 26 -3 39 -14 l24 -19 0
-239 c-1 -462 -31 -937 -75 -1179 -53 -289 -232 -893 -342 -1154 -52 -123
-346 -721 -427 -870 -196 -358 -574 -837 -844 -1068 -349 -299 -764 -551
-1522 -923 -285 -140 -663 -310 -719 -325 -35 -8 -35 15 2 75 16 25 35 64 42
86 16 50 60 115 224 335 109 145 177 222 411 460 456 465 751 814 983 1161 49
74 99 143 111 153 12 11 31 34 42 52 l20 33 -25 38 c-17 24 -26 51 -26 75 0
43 -10 47 -57 21 -30 -17 -128 -139 -632 -783 -267 -342 -316 -401 -528 -625
-155 -164 -276 -275 -288 -263 -3 2 6 38 20 79 97 282 163 645 235 1289 44
394 67 567 105 805 47 291 54 345 65 545 12 203 31 299 69 344 9 10 40 29 69
42 30 13 63 35 74 49 18 23 24 24 73 19 51 -6 56 -5 85 25 26 25 31 37 28 67
-4 54 -25 63 -93 39 -47 -16 -61 -17 -90 -6 -29 10 -39 9 -80 -11 -40 -19 -47
-20 -55 -8 -25 40 -2 149 40 192 27 27 33 28 118 28 l90 0 31 43 c22 29 54 54
109 82 63 34 78 45 80 67 5 39 -25 51 -103 43 -47 -5 -76 -3 -115 10 -46 15
-53 15 -74 1 -14 -8 -30 -32 -37 -53 -13 -42 -24 -53 -55 -53 -29 0 -32 11
-29 109 3 91 9 101 60 101 17 0 47 11 67 25 25 17 45 24 61 20 16 -4 29 0 41
14 15 16 22 18 42 9 21 -10 29 -8 52 11 15 12 39 29 54 39 16 9 28 24 28 33 0
20 20 39 41 39 44 0 64 64 33 108 -41 58 -158 81 -179 34 -5 -12 -16 -22 -23
-22 -8 0 -28 -12 -45 -26 -18 -15 -38 -23 -49 -20 -22 5 -58 -25 -58 -49 0
-24 -13 -18 -35 16 -16 24 -25 29 -46 25 -29 -5 -49 9 -49 35 0 17 36 108 46
119 3 3 33 7 67 10 52 4 64 9 72 27 7 17 15 20 35 17 33 -7 61 23 69 74 7 39
16 43 74 27 25 -7 28 -4 33 24 8 36 16 43 63 50 18 3 37 13 41 21 46 92 50
138 20 188 -25 41 -54 42 -75 2 -13 -25 -21 -30 -54 -30 -24 0 -48 -8 -66 -22
-27 -21 -28 -21 -42 -2 -16 23 -26 12 -45 -49 -12 -40 -22 -43 -70 -22 -15 6
-18 2 -18 -19 0 -16 -5 -24 -12 -21 -16 6 -78 -30 -78 -45 0 -5 -8 -10 -18
-10 -10 0 -28 -7 -40 -16 -18 -12 -23 -13 -26 -2 -25 81 -15 133 31 160 27 16
33 26 31 47 -3 23 -7 26 -41 26 -39 0 -45 11 -27 45 18 34 44 41 89 25 46 -16
67 -12 76 15 4 11 28 27 58 38 36 14 57 28 67 48 20 38 28 44 71 44 33 0 39 5
83 70 49 74 53 89 34 109 -11 10 -8 16 10 30 42 31 50 160 9 134 -6 -3 -38 -9
-71 -12 l-61 -6 -10 -42 c-6 -23 -14 -45 -18 -49 -4 -5 -34 -8 -65 -9 -56 0
-57 -1 -74 -37 -10 -21 -31 -44 -47 -52 -16 -9 -40 -29 -54 -46 -28 -33 -51
-32 -76 3 -9 13 -20 17 -37 13 -37 -10 -49 25 -35 100 13 72 37 106 79 115 61
12 77 43 45 88 -15 23 -15 25 3 38 12 9 32 12 55 9 49 -8 71 17 73 81 l1 48
40 5 c50 7 65 16 65 40 0 25 28 40 63 33 47 -9 77 38 42 67 -9 8 -15 29 -15
56 0 23 -4 45 -10 49 -5 3 -39 0 -75 -7 -54 -9 -70 -17 -87 -41 -18 -25 -25
-28 -57 -23 -44 8 -55 1 -74 -46 -14 -32 -21 -38 -46 -38 -31 0 -47 -18 -61
-69 -4 -19 -15 -27 -36 -31 -24 -4 -30 -10 -32 -38 -2 -18 -9 -32 -17 -32 -18
0 -29 83 -20 154 6 44 4 62 -9 81 -22 34 -21 40 17 50 25 8 32 16 33 35 0 39
11 50 80 81 l64 28 0 54 c0 54 19 87 48 87 6 0 14 12 18 28 13 57 16 63 45 69
39 8 44 18 29 63 -12 36 -11 42 24 103 38 69 44 95 24 115 -21 21 -44 13 -103
-33 -32 -24 -72 -49 -91 -55 -26 -9 -36 -20 -50 -58 -21 -57 -38 -78 -69 -86
-24 -6 -29 -15 -40 -78 -4 -26 -15 -44 -36 -58 -16 -12 -38 -39 -49 -61 -11
-21 -27 -39 -35 -39 -17 0 -19 8 -16 65 2 32 -3 45 -23 64 -29 28 -32 47 -11
75 23 30 18 66 -15 116 -38 57 -38 76 0 83 50 10 73 42 67 93 -4 43 -4 44 24
44 17 0 41 12 61 29 18 16 42 30 53 32 12 3 22 15 26 37 4 18 15 42 24 52 12
14 16 28 12 49 -5 26 -2 32 29 50 36 21 37 25 17 78 -3 6 7 21 20 33 23 20 25
29 25 104 0 44 -5 87 -10 94 -20 24 -47 13 -74 -30 -33 -53 -51 -68 -84 -68
-35 0 -50 -17 -50 -57 0 -43 -38 -83 -78 -83 -29 0 -29 0 -24 -50 4 -47 3 -50
-27 -67 -17 -10 -34 -28 -37 -41 -12 -46 -68 -49 -105 -6 -27 31 -101 192 -97
211 2 10 22 28 45 41 31 17 43 31 48 55 9 40 40 74 85 93 45 19 50 29 43 86
-5 45 -3 52 27 82 l32 34 -17 36 c-16 33 -16 38 -2 54 26 29 32 70 12 92 -10
11 -22 20 -26 20 -16 0 -94 -92 -105 -123 -8 -22 -20 -35 -42 -41 -27 -9 -31
-15 -37 -60 -9 -60 -20 -86 -40 -86 -8 0 -21 -13 -29 -29 -21 -40 -47 -48 -68
-21 -10 12 -18 30 -18 40 0 10 -9 49 -21 86 l-21 69 45 40 c43 38 45 43 49
102 4 65 26 103 57 103 9 0 27 7 39 16 18 12 22 25 22 63 0 32 5 53 16 62 42
35 48 101 10 123 -15 9 -24 4 -59 -36 -31 -34 -56 -51 -97 -65 l-55 -18 -6
-71 c-9 -93 -30 -134 -69 -134 -27 0 -33 6 -54 54 -13 30 -36 62 -50 71 -38
25 -33 57 18 114 31 35 46 62 51 93 4 24 13 57 20 74 11 28 11 36 -6 63 -21
34 -56 41 -104 19 -25 -11 -26 -14 -20 -69 7 -62 -5 -119 -31 -140 -24 -20
-41 7 -65 101 -22 89 -40 120 -70 120 -31 0 -50 27 -39 56 18 46 12 64 -25 80
-40 16 -42 29 -19 91 16 40 16 44 -5 78 -11 20 -21 48 -21 64 0 15 -14 46 -31
70 -28 38 -31 47 -26 94 7 71 -13 115 -78 171 -54 46 -75 87 -75 146 0 14 -9
41 -19 60 -11 19 -34 64 -50 99 -17 34 -49 84 -71 109 -22 25 -54 69 -70 97
-51 89 -110 156 -134 153 -14 -2 -21 -10 -20 -25 0 -13 1 -50 2 -84 2 -53 5
-63 33 -88 28 -26 30 -31 23 -80 -6 -45 -4 -57 16 -83 18 -24 21 -38 16 -72
-6 -39 -4 -44 29 -73 33 -30 35 -34 35 -97 0 -61 2 -67 35 -100 31 -31 35 -42
35 -84 0 -45 3 -52 35 -76 20 -16 38 -41 44 -61 5 -19 27 -51 49 -72 45 -44
85 -138 80 -192 -3 -31 -9 -39 -40 -54 -25 -11 -38 -24 -38 -36 0 -34 10 -49
31 -44 16 5 19 0 19 -35 0 -55 16 -65 87 -56 l59 6 21 -58 c12 -33 34 -94 49
-137 19 -51 46 -100 81 -145 149 -188 154 -196 133 -206 -11 -5 -20 -17 -20
-28 0 -25 -8 -23 -76 18 -85 52 -119 65 -132 52 -8 -8 -18 -6 -36 6 -34 22
-57 20 -63 -5 -4 -14 -11 -18 -22 -13 -58 24 -81 10 -81 -46 0 -37 1 -38 41
-45 34 -6 40 -10 36 -26 -4 -14 0 -19 15 -19 11 0 39 -22 65 -50 40 -44 49
-50 74 -45 22 5 29 2 34 -14 3 -12 18 -24 32 -28 15 -3 42 -17 61 -30 19 -12
53 -28 76 -33 73 -19 84 -27 96 -70 12 -43 7 -70 -16 -107 -17 -27 -56 -30
-75 -7 -8 10 -21 13 -37 9 -18 -4 -32 1 -51 19 -33 32 -130 66 -188 66 -88 0
-148 -51 -94 -80 11 -5 23 -24 26 -42 12 -53 22 -60 76 -53 47 7 48 6 55 -22
9 -37 22 -53 46 -53 10 0 30 -7 43 -16 14 -9 33 -13 44 -9 16 5 24 0 33 -19 6
-16 19 -26 31 -26 12 0 31 -9 43 -21 15 -14 45 -23 95 -30 80 -11 114 -27 124
-59 3 -11 14 -20 24 -20 22 0 41 -19 41 -42 0 -30 -28 -32 -80 -8 -27 12 -59
24 -72 25 -13 1 -26 3 -30 4 -4 0 -19 20 -34 42 -25 40 -28 41 -66 36 -34 -5
-44 -2 -63 19 -19 20 -36 26 -93 31 -65 5 -70 4 -77 -16 -9 -29 18 -116 52
-169 26 -40 50 -56 83 -57 8 0 16 -10 18 -23 2 -13 14 -27 28 -32 16 -7 24
-17 24 -34 0 -29 10 -37 59 -47 20 -4 51 -13 68 -20 26 -11 42 -11 77 -1 55
14 69 10 82 -27 8 -18 21 -31 40 -35 48 -12 73 -34 80 -70 9 -50 -3 -62 -31
-31 -17 18 -34 25 -60 25 -19 0 -35 -4 -35 -10 0 -17 -36 -11 -55 10 -14 16
-26 18 -61 13 l-44 -6 -19 45 c-20 47 -35 58 -80 58 -15 0 -48 13 -74 30 -54
34 -67 37 -67 15 0 -12 -7 -14 -27 -9 -16 4 -35 10 -44 15 -9 5 -19 5 -23 2
-12 -12 7 -118 26 -151 35 -58 43 -62 107 -56 76 8 94 -2 110 -65 14 -54 32
-71 76 -71 17 0 35 -9 46 -24 31 -39 57 -42 90 -10 l29 28 29 -28 c24 -23 34
-26 64 -21 32 6 43 2 87 -30 71 -52 87 -87 54 -120 -15 -14 -18 -14 -33 0 -11
9 -37 15 -68 15 -77 0 -143 11 -143 25 0 21 -35 45 -58 39 -12 -4 -35 -1 -52
4 -23 8 -42 7 -78 -3 -26 -8 -57 -15 -69 -15 -12 0 -28 -7 -37 -15 -33 -34 37
-125 96 -125 19 0 27 -7 32 -25 3 -13 16 -30 29 -36 12 -7 37 -25 56 -41 30
-26 40 -29 86 -26 48 3 55 0 76 -26 20 -26 26 -28 68 -22 58 7 68 1 80 -54 5
-25 14 -46 20 -48 6 -2 25 -13 43 -25 35 -24 48 -70 30 -104 -7 -12 -4 -28 10
-55 13 -25 17 -43 11 -49 -15 -15 -38 -1 -50 30 -8 21 -19 30 -46 35 -21 4
-41 15 -47 26 -7 13 -21 20 -40 20 -20 0 -30 5 -30 15 0 20 -60 57 -83 51 -11
-3 -24 5 -33 20 -19 27 -50 34 -40 8 10 -25 -13 -44 -53 -44 -70 -1 -147 -52
-111 -75 6 -3 10 -15 10 -25 0 -10 8 -21 17 -24 10 -3 27 -23 38 -43 11 -21
29 -39 40 -41 11 -2 28 -11 38 -20 10 -9 42 -24 70 -32 40 -12 58 -25 82 -57
20 -28 43 -46 68 -54 21 -7 44 -21 52 -32 10 -15 20 -17 43 -12 36 7 106 -19
99 -37 -2 -7 5 -26 16 -42 19 -27 19 -30 4 -41 -22 -16 -22 -22 8 -57 25 -30
30 -53 19 -82 -10 -26 -31 -18 -48 18 -9 19 -16 38 -16 43 0 19 -37 43 -68 43
-38 0 -62 23 -62 59 0 34 -28 61 -62 61 -27 0 -58 28 -58 52 0 11 -18 19 -67
28 -38 7 -73 17 -79 21 -28 22 -74 -32 -74 -86 0 -42 36 -101 69 -115 29 -11
36 -25 32 -58 -3 -22 52 -61 86 -62 27 0 32 -4 35 -27 2 -21 10 -29 35 -35 18
-5 34 -17 38 -28 4 -11 13 -20 21 -20 8 0 32 -9 52 -20 20 -10 49 -22 64 -25
17 -3 25 -10 22 -18 -3 -9 8 -17 33 -23 31 -7 39 -15 47 -44 5 -19 14 -38 19
-42 6 -4 4 -20 -7 -41 -9 -20 -19 -50 -23 -67 -3 -17 -12 -34 -19 -37 -19 -7
-72 36 -83 70 -10 28 -62 83 -109 114 -21 15 -25 14 -47 -7 -23 -22 -25 -22
-63 -7 -22 9 -49 13 -62 10 -18 -5 -21 -11 -16 -36 3 -16 6 -60 6 -98 l0 -69
28 0 c17 0 38 -10 52 -25 13 -14 31 -25 41 -25 9 0 24 -11 32 -24 9 -13 33
-30 54 -36 21 -7 55 -29 76 -49 32 -31 45 -36 84 -36 l47 0 19 -50 c21 -56 19
-128 -6 -152 -13 -13 -17 -11 -36 13 -11 14 -21 36 -21 48 0 32 -19 46 -61 46
-21 0 -41 4 -44 10 -3 5 -23 9 -43 8 -20 -1 -58 5 -84 12 -26 8 -50 12 -52 9
-3 -3 -8 -30 -12 -60 -6 -52 -5 -55 19 -66 23 -11 26 -19 29 -70 3 -55 4 -58
43 -80 21 -12 51 -39 65 -60 25 -36 29 -38 90 -43 49 -4 65 -9 65 -20 0 -10
-13 -16 -40 -18 -78 -6 -69 -42 16 -62 28 -7 53 -19 56 -27 3 -8 -2 -31 -12
-52 -13 -29 -15 -51 -10 -93 6 -44 3 -61 -10 -81 -13 -21 -14 -33 -6 -63 9
-32 7 -43 -9 -69 -25 -41 -25 -62 0 -125 19 -47 19 -53 4 -88 -14 -34 -36
-226 -73 -638 -6 -67 -24 -192 -41 -278 -16 -86 -37 -225 -45 -308 -28 -274
-75 -548 -155 -908 -170 -766 -166 -752 -253 -880 -37 -53 -180 -231 -184
-227 -3 4 34 291 58 442 11 72 54 262 95 424 41 162 100 400 130 530 30 130
70 292 89 361 19 69 43 179 54 245 11 66 25 146 32 177 15 66 8 80 -56 109
-54 25 -125 25 -157 -1 -54 -42 -67 -112 -93 -498 -18 -252 -25 -297 -90 -507
-58 -189 -73 -253 -130 -555 -77 -411 -140 -640 -219 -798 -23 -48 -51 -108
-61 -134 -24 -64 -45 -82 -88 -74 -57 11 -100 70 -132 181 -9 33 -52 177 -95
320 -204 678 -253 929 -359 1840 -89 756 -267 2367 -321 2890 -27 268 -65 711
-100 1189 -17 225 -42 513 -56 640 -24 214 -27 281 -34 916 -5 377 -13 766
-19 865 -21 373 -23 453 -13 566 13 144 30 189 85 224 97 63 111 99 53 130
-32 18 -36 18 -60 2 -14 -10 -26 -16 -26 -14 0 2 15 37 34 78 37 79 51 138 39
154 -5 6 -19 15 -32 21 -23 10 -22 11 32 42 51 29 87 71 87 101 0 6 -16 28
-35 50 -41 45 -41 49 -15 101 27 53 26 86 -5 106 -23 15 -25 22 -25 93 l0 77
44 45 c54 56 54 92 0 115 -41 17 -42 32 -9 85 l26 40 -23 70 c-22 68 -22 70
-4 104 18 33 18 34 -3 61 -11 15 -21 32 -21 39 0 7 18 35 40 63 46 57 46 59
23 107 -16 34 -16 36 5 74 27 48 27 66 3 97 -22 28 -17 61 20 120 18 30 21 45
16 97 -5 45 -2 75 10 110 14 40 15 53 5 82 -11 30 -10 39 8 75 16 31 19 51 15
88 -6 40 -3 52 19 81 42 57 32 144 -23 207 -39 44 -41 87 -5 110 52 35 74 127
53 228 -10 54 -10 69 5 113 11 33 14 64 10 90 -5 33 -1 49 25 95 19 33 31 69
31 91 0 20 9 60 20 89 19 51 19 52 0 83 l-20 32 21 27 c19 24 20 30 8 52 -10
20 -10 31 0 60 9 25 11 60 6 114 -6 63 -4 83 10 111 15 27 16 47 10 114 -11
119 -10 143 10 228 16 67 17 88 8 143 -13 76 -51 158 -75 162 -9 2 -26 -6 -36
-16z m4736 -4576 c-4 -48 -17 -90 -51 -163 -25 -54 -62 -143 -83 -198 -83
-227 -124 -294 -238 -392 -77 -66 -91 -59 -150 70 -19 42 -41 80 -49 83 -8 3
-23 21 -33 40 l-19 35 41 37 c22 20 57 51 77 69 24 20 35 37 31 47 -4 11 8 21
45 37 31 13 58 33 68 50 12 19 33 34 64 44 39 13 50 22 62 53 22 54 76 118
159 189 40 35 75 63 77 63 2 0 1 -29 -1 -64z m452 -975 c0 -21 -7 -58 -15 -81
-8 -24 -15 -77 -15 -120 0 -62 -5 -89 -26 -136 -14 -33 -35 -99 -45 -149 -28
-127 -26 -123 -82 -177 -44 -42 -53 -58 -74 -130 -26 -90 -40 -112 -66 -102
-22 8 -143 257 -152 312 -4 23 -18 56 -32 73 -22 26 -24 34 -15 55 7 13 32 38
56 56 25 17 50 44 57 60 9 21 27 36 63 52 45 20 56 32 95 97 57 96 67 107 108
115 24 5 47 21 80 60 26 30 50 54 55 54 4 0 8 -17 8 -39z"/>
</g>
</svg>
