<?xml version="1.0" standalone="no"?>
<!DOCTYPE svg PUBLIC "-//W3C//DTD SVG 20010904//EN"
 "http://www.w3.org/TR/2001/REC-SVG-20010904/DTD/svg10.dtd">
<svg version="1.0" xmlns="http://www.w3.org/2000/svg"
 width="1844.000000pt" height="3173.000000pt" viewBox="0 0 1844.000000 3173.000000"
 preserveAspectRatio="xMidYMid meet">
<metadata>
Created by potrace 1.16, written by Peter Selinger 2001-2019
</metadata>
<g transform="translate(0.000000,3173.000000) scale(0.100000,-0.100000)"
fill="#000000" stroke="none">
<path d="M3777 31702 c-65 -71 70 -316 286 -521 214 -203 237 -228 237 -259 0
-105 244 -388 765 -884 219 -210 358 -330 405 -351 14 -6 50 -37 80 -68 41
-42 70 -62 115 -79 178 -65 644 -115 1023 -108 105 2 192 0 192 -3 0 -6 -42
-132 -45 -137 -1 -1 -15 4 -31 13 -45 23 -126 19 -201 -11 -61 -24 -74 -26
-162 -20 -290 19 -350 19 -374 3 -22 -14 -28 -14 -70 1 -44 16 -48 16 -64 -1
-16 -16 -18 -16 -41 5 -19 18 -38 23 -97 26 l-73 4 -32 88 c-35 100 -62 140
-92 140 -11 0 -50 -29 -89 -67 l-69 -67 -38 36 c-78 74 -120 85 -174 47 l-30
-22 -89 43 c-117 56 -164 61 -207 25 l-32 -27 -26 31 c-77 92 -437 181 -618
153 -69 -11 -116 -33 -116 -54 0 -22 144 -153 232 -211 106 -71 253 -146 331
-171 56 -18 60 -18 114 1 l56 18 29 -29 c26 -25 34 -28 71 -23 24 3 75 20 114
37 40 16 79 30 88 30 9 0 32 -12 51 -26 45 -35 98 -53 156 -54 29 0 64 -9 96
-26 87 -45 140 -42 225 13 19 12 31 15 41 8 60 -44 59 -44 109 -33 43 10 50 9
78 -11 29 -21 34 -22 75 -11 36 10 47 10 60 -1 12 -10 52 -12 177 -9 306 9
329 7 383 -29 27 -17 65 -34 86 -37 21 -4 35 -11 32 -16 -3 -5 -56 -47 -117
-93 -246 -184 -379 -364 -422 -570 -13 -62 -16 -123 -13 -276 l3 -196 -40 -49
c-22 -27 -107 -123 -190 -214 -632 -693 -900 -1056 -1227 -1661 l-80 -147 -35
21 c-88 52 -175 165 -250 325 -172 370 -305 747 -498 1407 -179 615 -266 821
-424 1013 -43 52 -82 78 -150 98 -37 11 -71 32 -118 75 -77 70 -139 114 -188
134 -45 19 -54 4 -22 -38 54 -72 71 -133 47 -177 -9 -18 -16 -15 -88 37 -136
98 -255 148 -436 182 -141 27 -345 46 -358 33 -11 -11 -7 -13 202 -104 228
-100 310 -147 393 -227 72 -69 68 -73 -87 -86 -76 -6 -126 -27 -133 -55 -9
-33 -52 -42 -358 -70 -366 -33 -443 -49 -430 -90 8 -25 -2 -25 -140 -5 -138
20 -171 19 -195 -5 -26 -26 -25 -26 -108 10 -78 33 -127 38 -136 15 -14 -37
-89 -9 -276 103 -185 111 -353 226 -383 262 -57 68 -18 184 79 230 l48 24 -29
8 c-17 4 -47 3 -69 -3 -128 -35 -175 -169 -116 -331 29 -80 28 -82 -67 -114
l-68 -23 56 -1 c52 0 62 -4 125 -51 80 -59 324 -180 469 -234 55 -20 132 -54
172 -75 90 -50 130 -56 228 -36 77 16 79 16 101 -5 32 -30 85 -33 214 -9 63
12 178 25 255 30 232 14 638 107 849 194 44 19 116 53 159 76 l77 42 0 -34 c0
-74 95 -323 270 -709 92 -202 246 -600 374 -964 115 -327 169 -443 297 -635
168 -254 466 -589 547 -615 18 -5 16 -13 -28 -118 -171 -404 -268 -746 -278
-978 -8 -209 26 -274 183 -348 39 -18 78 -40 88 -49 16 -15 16 -16 0 -35 -10
-10 -48 -34 -85 -53 -85 -43 -159 -118 -243 -243 -70 -105 -187 -329 -285
-543 l-63 -137 -231 -132 c-1298 -743 -2512 -1568 -2802 -1905 -145 -167 -149
-210 -39 -361 30 -42 58 -87 62 -101 13 -52 -52 -146 -262 -382 -125 -141
-295 -345 -295 -355 0 -2 51 35 113 81 107 81 233 154 265 154 17 0 14 -44
-12 -185 -19 -97 -21 -245 -5 -245 7 0 44 25 84 55 108 83 115 75 49 -57 -76
-151 -97 -256 -58 -289 45 -37 -13 -492 -160 -1244 -99 -508 -107 -606 -50
-663 24 -24 14 -181 -30 -437 -65 -389 -82 -562 -66 -674 12 -86 34 -130 74
-150 28 -13 29 -14 23 -85 -3 -39 -31 -170 -61 -291 -101 -403 -111 -537 -43
-594 23 -18 22 -40 -12 -182 -62 -260 -112 -615 -113 -806 0 -114 1 -125 26
-167 29 -49 33 -98 11 -136 -8 -14 -14 -37 -15 -53 0 -23 5 -29 31 -34 17 -3
33 -12 36 -19 13 -34 -63 -172 -140 -253 l-42 -43 79 51 c124 80 132 68 34
-50 -56 -68 -52 -68 35 -1 107 84 139 163 152 380 4 61 11 112 16 112 22 0 45
126 104 555 74 544 112 732 171 845 40 75 49 136 59 370 15 373 35 515 83 584
l27 39 7 431 c8 534 22 659 81 747 31 46 44 85 62 188 40 239 69 556 120 1326
64 971 84 1181 109 1154 6 -6 162 -610 190 -734 14 -60 50 -245 81 -410 31
-165 61 -325 67 -355 l11 -55 13 32 c8 18 18 84 24 147 20 224 -13 483 -140
1111 -80 393 -80 401 -45 462 35 60 300 325 505 504 435 380 1160 960 1409
1129 49 33 63 38 59 24 -280 -992 -426 -1928 -488 -3149 -42 -817 -24 -2180
45 -3359 8 -137 14 -250 12 -251 -1 -1 -114 -41 -252 -89 -718 -252 -1067
-429 -1324 -672 -194 -183 -294 -383 -320 -639 -23 -224 -12 -865 24 -1530 84
-1506 308 -3908 440 -4697 27 -167 42 -209 81 -234 26 -18 29 -18 103 9 42 15
86 27 97 27 34 0 60 -40 89 -135 67 -225 255 -642 378 -841 90 -145 180 -234
220 -218 23 9 76 -88 303 -561 114 -236 241 -502 284 -590 251 -522 496 -942
614 -1053 50 -48 60 -53 94 -50 l37 3 80 -160 c44 -88 130 -264 192 -390 172
-353 296 -551 387 -617 33 -24 48 -29 79 -25 35 5 38 3 62 -36 14 -23 59 -130
101 -237 173 -441 225 -559 296 -662 40 -60 87 -93 119 -85 41 11 77 -69 203
-441 162 -480 228 -646 269 -681 9 -7 30 -14 48 -16 43 -6 72 -35 104 -106 41
-92 57 -201 53 -360 -1 -75 -2 -136 -1 -135 3 2 83 305 83 312 0 2 4 4 10 4
19 0 32 -87 28 -197 -2 -62 0 -109 3 -105 23 25 59 193 59 273 0 82 -17 114
-111 203 -81 78 -88 92 -67 126 27 43 -31 217 -204 609 -295 669 -340 787
-344 906 -4 89 8 64 -321 705 -137 268 -183 386 -183 474 0 97 -88 235 -353
554 -288 347 -356 447 -382 557 -28 122 -137 334 -670 1305 -485 883 -692
1281 -791 1520 -45 107 -48 122 -52 220 -4 108 10 246 26 262 6 6 535 -370
1423 -1013 778 -562 1438 -1040 1466 -1061 29 -21 50 -32 47 -25 -5 13 -806
797 -1044 1023 -471 445 -942 859 -1220 1071 -117 89 -272 195 -313 214 -26
12 -37 29 -19 29 14 0 32 48 32 83 0 18 -12 57 -26 87 -71 153 -170 547 -533
2115 -249 1077 -315 1358 -423 1790 -205 827 -306 1152 -386 1245 -27 32 -32
42 -17 36 146 -56 364 -21 622 100 148 69 225 85 418 85 148 0 309 -22 457
-63 89 -24 82 -11 98 -168 70 -675 214 -1635 340 -2260 257 -1280 694 -2409
1477 -3815 77 -137 270 -475 430 -750 335 -576 416 -722 518 -931 94 -194 129
-298 220 -668 81 -328 109 -423 131 -446 22 -22 32 0 39 90 23 302 36 375 81
467 36 74 73 98 149 97 277 -6 778 -229 1305 -579 281 -187 479 -364 535 -479
26 -53 26 -54 14 -162 -6 -60 -9 -135 -5 -166 7 -72 26 -148 36 -148 4 0 10
18 14 41 7 46 44 121 78 161 13 15 52 49 87 77 116 92 234 249 411 546 90 152
166 265 179 265 12 0 38 -61 51 -123 14 -61 40 -80 40 -29 0 40 27 127 44 141
20 17 52 -26 176 -231 207 -345 306 -476 443 -585 90 -72 126 -128 152 -238
l8 -30 16 35 c13 29 16 71 16 230 0 195 0 195 28 242 112 192 621 555 1132
808 259 128 454 195 638 220 94 13 134 3 173 -43 59 -70 87 -181 103 -407 14
-181 19 -210 35 -210 24 0 53 90 136 423 45 181 97 376 116 435 66 200 216
485 602 1149 516 885 745 1306 982 1803 363 762 625 1467 814 2190 165 631
335 1632 461 2714 19 165 38 303 42 307 13 13 190 57 297 74 55 9 158 16 231
16 195 1 292 -20 439 -93 178 -89 379 -132 518 -110 41 6 83 14 94 18 13 5 8
-5 -17 -32 -47 -50 -67 -91 -118 -241 -126 -374 -291 -1034 -685 -2738 -368
-1592 -464 -1976 -539 -2154 -37 -88 -41 -149 -13 -180 11 -12 17 -23 15 -24
-2 -2 -39 -25 -82 -51 -374 -230 -1231 -992 -2197 -1955 -184 -184 -328 -329
-320 -324 8 6 667 481 1463 1057 797 576 1455 1050 1462 1052 22 9 28 -26 33
-191 l4 -161 -43 -109 c-85 -219 -317 -667 -814 -1570 -492 -896 -636 -1176
-655 -1273 -19 -103 -91 -210 -365 -542 -298 -362 -375 -482 -375 -589 0 -108
-55 -236 -300 -696 -169 -318 -200 -390 -200 -471 0 -101 -42 -214 -285 -769
-179 -409 -235 -550 -260 -651 -16 -66 -16 -73 -1 -103 l17 -32 -89 -87 c-94
-91 -112 -124 -112 -202 0 -44 33 -204 51 -249 13 -31 14 -24 14 95 0 88 4
140 14 162 7 18 16 31 18 28 3 -3 24 -76 47 -164 l41 -159 1 166 c1 189 20
287 74 372 29 44 78 77 98 65 16 -10 60 47 93 119 41 91 105 269 214 593 49
145 107 300 129 345 40 80 42 82 74 79 29 -3 40 3 76 41 75 78 144 220 293
607 84 217 136 335 159 362 11 12 25 15 44 12 39 -8 79 16 142 85 83 92 189
279 402 713 l195 398 29 -6 c44 -9 84 18 145 94 162 200 390 625 814 1511 297
621 311 648 353 648 79 0 209 182 370 517 88 183 173 393 220 544 44 144 59
151 195 102 127 -45 142 -14 204 426 154 1083 364 3482 432 4939 17 354 17
994 0 1120 -30 233 -107 389 -281 569 -251 261 -596 442 -1344 706 -143 50
-263 93 -266 95 -3 2 0 95 7 207 38 658 61 1315 69 2023 17 1397 -75 2560
-287 3620 -43 217 -150 660 -198 820 -16 55 -28 101 -27 103 14 14 676 -498
1103 -855 433 -360 786 -690 864 -807 47 -70 52 -12 -51 -541 -116 -592 -124
-651 -125 -900 0 -146 4 -226 14 -263 7 -30 17 -50 21 -45 4 4 20 78 35 163
54 309 135 699 179 870 26 96 65 249 87 340 23 91 45 169 49 174 23 24 46
-216 95 -959 71 -1084 108 -1468 160 -1643 9 -28 20 -54 26 -58 21 -13 51 -96
66 -183 11 -63 17 -206 21 -542 l7 -455 28 -42 c49 -75 70 -208 82 -517 11
-293 21 -360 64 -450 63 -130 94 -288 176 -882 50 -367 68 -466 92 -502 11
-17 18 -64 24 -150 14 -188 29 -232 108 -312 36 -36 77 -72 91 -79 l25 -13
-28 34 c-47 58 -80 109 -74 115 7 7 61 -21 122 -64 l49 -35 -45 51 c-77 88
-145 216 -132 249 3 7 15 13 28 13 42 0 50 24 26 81 -27 67 -27 95 5 140 33
48 40 139 25 309 -21 231 -55 434 -127 753 -18 79 -18 79 4 95 31 25 42 64 42
152 0 96 -16 182 -86 465 -55 221 -72 322 -57 340 4 6 17 15 27 21 73 40 92
174 61 434 -8 69 -33 235 -55 370 -22 135 -43 285 -47 333 -6 82 -5 90 18 120
18 25 24 48 27 104 5 95 -8 191 -78 549 -106 542 -163 899 -176 1106 -6 97 -5
110 15 148 11 22 21 51 21 65 0 30 -44 153 -82 228 -65 130 -58 135 58 47 43
-33 79 -58 82 -56 11 12 0 204 -18 296 -23 123 -24 140 -7 140 41 0 207 -100
318 -192 26 -21 50 -38 54 -38 10 0 -83 117 -189 239 -251 286 -288 330 -321
386 -53 89 -50 109 35 225 63 87 77 127 62 179 -40 131 -342 406 -830 754
-526 375 -1401 927 -2103 1327 l-216 123 -28 66 c-64 150 -247 507 -310 602
-84 128 -169 213 -258 259 -114 58 -114 68 6 128 160 80 193 137 191 327 -3
218 -98 564 -268 974 -31 74 -55 135 -53 136 138 73 468 459 633 742 77 133
133 261 220 508 136 387 284 768 389 1000 164 362 254 600 258 682 1 18 4 32
7 30 3 -1 51 -26 107 -54 128 -66 294 -124 498 -173 211 -52 380 -80 474 -80
42 0 143 -11 225 -25 184 -31 191 -31 235 -1 36 24 37 24 111 10 95 -19 137
-12 225 35 38 21 116 55 172 76 137 50 359 160 462 229 74 49 90 56 135 57
l51 0 -69 23 c-37 13 -72 29 -77 37 -10 15 -10 18 20 99 55 150 -10 300 -134
311 -78 6 -99 -8 -41 -29 69 -25 123 -117 109 -185 -9 -46 -64 -92 -259 -216
-289 -185 -411 -240 -428 -196 -8 22 -53 18 -121 -11 -90 -38 -94 -39 -116
-15 -24 26 -56 27 -206 5 -119 -17 -147 -15 -137 11 14 35 -79 53 -431 85
-291 27 -330 35 -356 72 -28 38 -53 47 -167 58 -52 5 -96 11 -99 13 -11 11 22
50 85 103 71 58 192 121 430 225 95 41 140 65 133 72 -13 13 -233 -7 -366 -34
-190 -38 -335 -101 -452 -196 -30 -24 -56 -43 -58 -41 -36 43 -32 96 15 166
46 69 50 86 18 77 -46 -14 -106 -55 -188 -129 -59 -53 -96 -79 -124 -87 -73
-18 -94 -30 -144 -83 -160 -170 -265 -416 -452 -1061 -158 -541 -269 -866
-406 -1186 -136 -319 -205 -429 -316 -503 l-51 -35 -94 172 c-329 600 -561
915 -1175 1594 -115 127 -223 249 -239 270 l-28 38 -1 215 c0 243 -9 300 -66
417 -42 88 -135 214 -207 280 -30 26 -107 88 -171 137 l-118 89 53 14 c29 7
68 25 87 40 40 30 75 32 380 23 129 -3 165 -1 171 9 7 11 17 11 60 0 49 -12
52 -12 76 11 23 22 28 23 76 12 53 -13 82 -6 93 23 8 22 27 19 92 -16 70 -36
119 -35 192 6 30 17 60 25 92 25 60 0 106 15 152 51 20 16 45 29 55 29 10 0
56 -16 103 -35 104 -42 130 -43 171 -7 l32 29 51 -19 c62 -24 99 -16 236 48
188 89 440 279 440 333 0 46 -122 68 -281 52 -203 -21 -376 -78 -443 -146
l-33 -33 -22 21 c-37 38 -110 30 -215 -21 l-87 -43 -33 20 c-47 30 -86 27
-131 -9 -21 -17 -45 -40 -52 -50 -8 -11 -19 -20 -25 -20 -6 0 -42 29 -79 65
-39 37 -76 65 -88 65 -27 0 -46 -30 -85 -137 l-33 -88 -71 -5 c-51 -4 -78 -11
-100 -27 -27 -20 -30 -20 -46 -5 -15 15 -19 15 -62 -1 -42 -15 -47 -15 -70 0
-25 16 -68 16 -370 -3 -91 -6 -105 -4 -150 16 -28 12 -79 24 -117 27 -59 5
-72 3 -97 -15 l-29 -22 -22 68 c-12 37 -24 72 -26 77 -2 7 97 10 284 11 299 0
500 15 730 54 187 32 292 78 336 147 11 15 41 40 68 55 76 43 241 191 538 483
444 437 621 648 621 738 0 34 49 91 177 207 167 150 271 279 335 417 54 115
40 183 -37 183 -70 0 -154 -91 -301 -325 -48 -77 -125 -197 -170 -266 -74
-113 -87 -127 -117 -133 -50 -9 -102 -70 -246 -284 -142 -211 -199 -285 -361
-466 -221 -249 -381 -395 -479 -438 -38 -18 -49 -18 -87 -8 -55 16 -71 11
-229 -59 -210 -94 -333 -127 -580 -156 -129 -15 -473 -19 -527 -6 -21 4 -44
32 -99 116 -89 136 -306 356 -449 457 -437 307 -1023 490 -1650 515 -583 23
-1261 -147 -1720 -431 -251 -155 -506 -405 -619 -608 -26 -47 -26 -47 -90 -54
-98 -10 -463 3 -581 21 -204 31 -335 72 -530 163 -103 49 -147 58 -193 41 -25
-9 -42 -9 -66 -1 -93 33 -276 198 -502 452 -164 186 -217 254 -369 480 -133
197 -183 255 -232 268 -42 10 -64 40 -213 278 -222 357 -298 444 -383 444 -16
0 -36 -8 -45 -18z"/>
</g>
</svg>
