<?xml version="1.0" standalone="no"?>
<!DOCTYPE svg PUBLIC "-//W3C//DTD SVG 20010904//EN"
 "http://www.w3.org/TR/2001/REC-SVG-20010904/DTD/svg10.dtd">
<svg version="1.0" xmlns="http://www.w3.org/2000/svg"
 width="849.000000pt" height="1536.000000pt" viewBox="0 0 849.000000 1536.000000"
 preserveAspectRatio="xMidYMid meet">
<metadata>
Created by potrace 1.16, written by Peter Selinger 2001-2019
</metadata>
<g transform="translate(0.000000,1536.000000) scale(0.100000,-0.100000)"
fill="#000000" stroke="none">
<path d="M3550 15342 c-219 -89 -564 -389 -910 -792 -358 -418 -886 -1140
-1135 -1554 -130 -217 -342 -625 -425 -821 -174 -407 -235 -727 -247 -1290 -8
-379 20 -662 76 -772 36 -71 139 -190 361 -418 118 -121 245 -260 282 -309
155 -207 215 -396 273 -868 22 -174 17 -216 -36 -273 -69 -75 -196 -130 -554
-241 -269 -84 -451 -156 -645 -255 -183 -94 -269 -156 -328 -234 -58 -79 -76
-145 -68 -254 25 -346 19 -403 -49 -497 -87 -121 -153 -314 -142 -420 5 -49
33 -119 62 -158 19 -26 28 -18 136 125 132 175 147 179 461 134 210 -31 558
-74 928 -115 471 -52 623 -75 672 -101 26 -14 48 -68 48 -117 0 -85 -94 -344
-225 -622 -108 -227 -130 -299 -122 -396 19 -217 149 -632 339 -1079 193 -453
274 -581 605 -946 206 -228 345 -389 428 -495 240 -306 570 -670 980 -1080
432 -432 719 -691 1025 -923 170 -130 228 -166 410 -261 91 -48 213 -116 271
-153 226 -142 351 -179 484 -143 156 41 187 115 115 272 -45 98 -67 162 -100
299 -17 66 -44 156 -61 200 -17 44 -44 131 -60 193 -37 146 -80 246 -249 577
-164 323 -196 403 -210 522 -17 156 -95 278 -235 373 -122 82 -149 138 -66
132 59 -4 91 18 91 62 0 44 -21 103 -125 346 -48 113 -125 302 -172 420 -47
118 -119 287 -160 375 -91 194 -123 278 -157 415 -76 306 -90 706 -40 1150 11
96 18 237 18 370 1 241 -7 292 -74 538 -22 78 -40 147 -40 152 0 21 60 34 645
141 215 39 524 99 688 135 429 93 519 104 1042 129 399 19 547 32 670 56 126
26 299 97 357 149 54 47 97 124 105 187 5 47 3 51 -40 102 -25 29 -69 98 -99
153 -88 166 -168 280 -212 304 -103 58 -284 79 -941 109 -623 28 -823 44
-1040 81 -230 39 -1185 299 -1185 322 0 4 23 45 50 92 46 76 50 87 39 108 -24
43 -122 143 -199 202 -95 72 -147 131 -208 233 -42 71 -82 116 -165 184 -37
31 -35 68 9 153 l37 69 -13 63 c-18 97 -113 418 -165 563 -48 133 -89 221
-131 284 -13 20 -30 61 -38 91 -20 78 -23 85 -86 190 -79 131 -108 190 -183
375 -35 88 -105 248 -155 356 -187 402 -201 463 -166 698 8 58 31 164 49 236
31 121 33 144 38 340 4 150 12 243 27 325 13 73 24 194 30 330 5 124 18 268
30 340 65 400 67 437 26 466 -11 8 -51 24 -88 35 -75 22 -125 57 -116 81 4 10
26 17 63 22 110 13 149 53 125 127 -11 33 -11 48 -1 82 53 178 74 372 75 694
1 240 1 241 -22 266 -59 63 -200 92 -282 59z"/>
</g>
</svg>
