<?xml version="1.0" encoding="UTF-8" standalone="no"?>
<!-- Created with Inkscape (http://www.inkscape.org/) -->

<svg
   xmlns:svg="http://www.w3.org/2000/svg"
   xmlns="http://www.w3.org/2000/svg"
   version="1.1"
   width="1355pt"
   height="571pt"
   viewBox="0 0 1355 571"
   id="svg2">
  <defs
     id="defs11" />
  <g
     id="#000000ff">
    <path
       d="m 479.02,20.96 c 12.45,-6.88 24.94,-13.8 38.17,-19.08 1.81,-0.99 3.5,0.41 5.17,1.01 -2.11,1.56 -4.43,2.8 -6.86,3.78 -4.55,1.73 -7.98,5.34 -12.32,7.45 -7.66,3.99 -15.1,8.39 -22.85,12.2 -10.44,5.43 -20.34,12.02 -28.98,20.04 -6.24,5.66 -13.19,10.44 -20.32,14.89 -4.96,4.06 -10.14,7.82 -15.48,11.37 -11.93,8.93 -23.58,18.3 -34.27,28.7 -4.55,5.15 -9.5,9.92 -13.96,15.15 -4.53,4.89 -10.12,8.9 -13.34,14.88 5.88,-0.21 11.53,-2.36 16.09,-6.07 0.53,0.11 1.61,0.31 2.14,0.42 1.15,-0.22 2.3,-0.43 3.45,-0.63 0.42,-0.44 1.26,-1.32 1.68,-1.76 0.56,0.01 1.68,0.03 2.24,0.03 4.2,-3.15 8.91,-5.75 12.26,-9.91 5.13,-3.64 8.87,-8.84 13.83,-12.69 10.98,-9.38 22.25,-18.4 33.33,-27.65 5.52,-4.53 10.6,-9.61 16.48,-13.69 5.02,-3.54 9.71,-7.53 14.85,-10.9 2.72,-1.7 4.76,-4.2 6.99,-6.45 -0.52,1.79 -0.6,3.86 -1.9,5.31 -8.06,8.72 -18.58,14.68 -26.62,23.42 -3.85,4.28 -9.49,6.36 -13.32,10.67 -9.3,10.11 -22.24,16.46 -29.98,28.05 -2.71,3.81 -6.88,6.46 -8.69,10.92 2.21,-0.41 4.54,-0.76 6.4,-2.13 8.02,-5.55 15.66,-11.62 23.42,-17.53 0.51,0.25 1.54,0.75 2.05,1.01 1.79,-0.47 3.59,-0.86 5.41,-1.25 7.73,-5.7 14.64,-12.48 22.73,-17.71 9.03,-5.87 17.44,-12.83 27.33,-17.23 -0.11,-0.33 -0.33,-0.99 -0.44,-1.32 -0.27,-0.29 -0.82,-0.87 -1.1,-1.16 0.46,-0.79 0.92,-1.58 1.4,-2.37 0.29,0.8 0.85,2.41 1.14,3.21 l 0.5,0.66 c 6.81,-3.28 13.9,-6.23 21.26,-7.95 -1.6,1.52 -3.32,2.95 -5.38,3.78 -7.14,3.16 -14.39,6.07 -21.31,9.68 -2.52,1.44 -5.28,3.14 -6.23,6.06 -1.01,2.09 0.09,4.32 0.45,6.42 1.65,-0.03 3.29,-0.06 4.94,-0.1 -0.06,0.64 -0.18,1.93 -0.25,2.58 2.53,-1.87 5.15,-3.63 7.96,-5.07 6.4,-3.36 12.35,-7.49 18.27,-11.62 11.77,-6.8 24.65,-11.4 37.84,-14.55 -4.28,4.05 -10.18,5.4 -15.37,7.87 -8.25,3.98 -17.24,6.97 -24.08,13.31 -4.79,4.32 -10.96,6.73 -15.62,11.19 -0.87,1.25 -1.78,2.48 -2.63,3.73 5.71,-0.4 11.34,-2.1 16.28,-5 5.02,-2.86 10.76,-3.95 16.16,-5.85 4.21,-2.67 9.55,-1.03 13.9,-3.33 6,-2.97 11.76,-6.44 17.95,-9.05 9.27,-4.33 18.91,-10.49 29.61,-8.52 -4.33,2.69 -9.68,2.57 -14.08,5.08 -6.12,2.74 -11.47,6.87 -17.57,9.66 -4.67,2.96 -9.71,5.34 -14.21,8.54 -3.04,2.89 -7.48,4.72 -8.72,9.06 4.91,-2.2 9.61,-4.9 14.83,-6.35 0.27,-0.15 0.8,-0.44 1.06,-0.59 3.78,-0.48 6.95,-2.64 10.38,-4.1 4.38,-2.18 9.24,-2.65 14.01,-1.69 -0.27,-1.33 -0.54,-2.65 -0.81,-3.97 1.34,-0.2 2.68,-0.38 4.04,-0.56 -0.08,-0.51 -0.24,-1.53 -0.32,-2.04 0.42,0.29 1.26,0.87 1.68,1.16 1.93,-1.31 3.88,-2.6 5.82,-3.91 2.83,-0.48 5.68,-0.86 8.47,-1.59 3.09,-0.75 5.58,-2.83 8.39,-4.21 3.11,-1.54 6.3,-3.13 8.72,-5.7 2.25,-2.19 2.88,-5.42 4.22,-8.16 -0.22,2.69 -0.05,5.59 -1.41,8.03 -2.21,4.28 -6.32,7.02 -9.92,10.01 -3.35,2.58 -5.97,5.93 -8.68,9.13 1.15,-1.88 2.29,-3.78 3.41,-5.69 -5.36,3.02 -10.32,6.69 -15.12,10.51 0.96,1.03 1.92,2.05 2.88,3.09 12.04,-0.44 23.14,-5.48 34.53,-8.79 13.03,-2.03 24.92,-8.57 37.96,-10.5 -4.03,3.15 -8.87,4.97 -13.42,7.18 -1.18,1.77 -2.36,3.53 -3.53,5.3 -1.69,0.04 -3.38,0.09 -5.06,0.14 0.06,0.63 0.16,1.9 0.21,2.53 13.58,-0.78 26.45,-5.58 39.81,-7.69 6.49,-1.48 12.99,-3.33 19.73,-2.82 -2.29,2.09 -5.27,2.95 -8.26,3.44 -0.85,1.43 -1.69,2.87 -2.51,4.31 3.14,0.3 6.31,0.64 9.34,1.59 13.31,0.36 26.65,-2.62 38.93,-7.68 -2.02,2.91 -3.91,5.92 -5.05,9.28 7.16,4.51 15.22,0.06 22.47,-1.7 -3.24,5.11 -8.83,7.88 -12.98,12.12 -8.5,8.3 -18.38,15.01 -27.1,23.06 -5.83,6.11 -11.3,15.31 -7.03,23.76 7.97,-3.98 14.98,-9.54 22.28,-14.58 16.64,-11.02 34.38,-20.68 53.47,-26.71 6.28,-1.72 12.59,-3.35 18.78,-5.38 9.65,-3.09 19.99,-4.28 30.05,-2.85 3.24,0.33 5.92,2.3 8.58,3.99 -6.55,0.39 -13.16,-1.81 -19.59,0.09 -5.71,0.39 -11.16,2.21 -16.52,4.09 2.51,0.55 5.05,0.85 7.61,1.13 0.82,0.34 1.65,0.68 2.48,1.03 0.13,-0.72 0.38,-2.16 0.5,-2.88 0.47,0.32 1.4,0.96 1.87,1.28 3.09,-0.17 6.2,-0.52 9.18,-1.46 4.55,-0.04 9.05,0.64 13.49,1.55 2.49,-0.48 5.01,-0.81 7.49,-1.37 13.94,-3.51 28.62,-6.04 42.9,-3.08 2.06,0.29 3.19,2.29 4.7,3.51 -4.52,0.06 -9.04,-1.17 -13.52,-0.43 -0.4,0.43 -1.2,1.28 -1.6,1.71 3.92,0.27 8.07,-0.27 11.7,1.6 9.79,4.39 20.51,0.19 30.72,1.54 4.09,0.73 9.16,0.33 11.92,4.06 0.61,0.02 1.83,0.05 2.45,0.07 -1.95,0.88 -3.88,1.78 -5.78,2.72 2.25,1.27 4.62,2.53 7.26,2.71 8.42,0.87 16.95,-0.22 25.34,1.11 1.87,0.18 3.39,1.38 4.87,2.45 0.64,0.16 1.91,0.49 2.55,0.66 -1.56,1.18 -3.4,2.16 -4.31,3.96 11.06,6.94 25.32,3.64 36.57,10.04 -1.61,1.35 -3.17,2.74 -4.68,4.19 8.53,0.1 17.02,-0.87 25.55,-0.88 -0.17,0.49 -0.51,1.47 -0.68,1.96 1.23,0.33 2.48,0.66 3.74,0.99 -0.78,0.99 -1.57,1.97 -2.33,2.96 1.64,3 3.75,6 7.09,7.27 7.73,3.29 16.35,2.92 24.47,4.63 4.12,0.36 7.51,2.86 11.24,4.38 -1.95,0.25 -3.89,0.61 -5.8,1.02 0.04,0.9 0.13,2.7 0.18,3.6 1.33,-0.25 2.7,-0.5 4.07,-0.74 6.6,4.08 14.94,1.85 21.81,5.4 1.05,1.17 2.27,2.14 3.58,3.05 -1.15,1.09 -2.27,2.21 -3.39,3.32 2.97,1.34 5.78,3.21 9.07,3.68 5.85,1.12 12.5,1.31 16.93,5.89 -0.44,0.47 -1.33,1.4 -1.77,1.87 8.01,0.8 16.17,2.95 22.96,7.39 -1.85,0.6 -3.69,1.2 -5.51,1.82 1.69,1.55 3.27,3.49 5.64,3.99 5.07,1.22 10.29,1.99 15.09,4.14 -3,1.58 -6.21,2.73 -9.15,4.4 -0.43,2.35 1.67,3.97 3.36,5.18 5.35,3.55 12.21,3.02 17.74,6.17 -6.9,1.49 -14.74,0.55 -20.75,4.82 -3.04,1.89 -2.56,5.88 -3.24,8.93 4.29,2.88 9.66,2.21 14.27,4.21 3.67,1.24 7.55,2.08 10.82,4.31 -3.27,0.56 -6.57,0.54 -9.85,0.4 -0.09,0.64 -0.26,1.9 -0.35,2.53 -3.68,2.2 -7.35,4.46 -10.56,7.32 1.29,2 2.74,3.93 4.59,5.46 7.26,-3.63 14.64,-7.06 21.97,-10.55 10.69,-4.42 21.12,-9.52 32.23,-12.84 8.72,-2.74 17.21,-7.79 26.65,-6.88 12.09,-6.73 24.94,-12.05 37.94,-16.76 11.31,-3.96 23.37,-6.87 35.41,-4.99 0.1,0.56 0.32,1.7 0.42,2.26 1.17,0.19 2.36,0.38 3.56,0.57 -6.29,0.42 -12.65,0.57 -18.8,2.1 -8.04,1.61 -15.61,4.85 -23.14,8 -11.2,5.18 -22.24,10.67 -32.99,16.72 -8.29,4.59 -16.86,8.64 -25.21,13.13 0.34,0.5 1.01,1.52 1.35,2.02 1.18,-0.49 2.42,-0.97 3.64,-1.44 0.37,0.65 1.1,1.95 1.47,2.6 18.09,-8.78 35.93,-18.06 53.85,-27.19 9.19,-4.34 18.57,-8.29 28.16,-11.69 5.21,-1.24 10.63,-1.45 15.98,-1.27 0.12,0.54 0.36,1.61 0.49,2.14 -8.33,2.07 -16.99,3.09 -24.9,6.55 -6.52,2.96 -13.28,5.46 -19.48,9.08 -6.1,3.03 -12.33,5.95 -17.84,9.99 21.52,-7.28 42.12,-18.42 65.05,-20.74 3.76,0.18 7.39,1.45 10.85,2.88 -3.69,1.68 -7.74,1.91 -11.71,1.79 -10.67,-0.45 -20.64,3.92 -30.55,7.21 -9.32,4.22 -18.87,7.9 -28.2,12.09 -10.08,5.33 -20.5,9.96 -30.71,15.02 -4.44,2 -9.12,3.55 -13.12,6.38 4.67,-0.54 9.24,-1.78 13.95,-2.14 0.78,0.67 1.57,1.33 2.38,2 14.04,-5.26 27.71,-11.42 41.36,-17.64 6.63,-3.16 13.27,-6.36 20.28,-8.65 9.83,-3.39 19.8,-7.68 30.42,-6.98 0.46,0.89 0.94,1.79 1.43,2.68 -5.57,1.07 -11.38,0.87 -16.78,2.75 -6.79,2.33 -13.62,4.56 -20.19,7.45 -9.53,4.79 -19.28,9.18 -28.38,14.77 4.34,-0.58 8.5,-1.99 12.69,-3.23 9.76,-2.91 19.63,-5.4 29.53,-7.77 10.94,-2.36 21.92,-6.39 33.28,-4.42 -0.43,0.7 -1.3,2.1 -1.74,2.81 -6.39,0.98 -12.96,0.76 -19.23,2.52 -21.46,4.87 -42.31,12.07 -62.96,19.61 -0.39,0.45 -1.18,1.36 -1.57,1.81 -0.73,-0.11 -2.17,-0.34 -2.9,-0.45 -0.53,1.02 -1.04,2.05 -1.54,3.08 4.71,-0.74 9.6,-0.55 14.16,-2.14 5.61,-1.82 11.16,-3.93 16.97,-5.1 -5.25,2 -10.78,3.6 -15.12,7.35 0.73,0.06 2.18,0.2 2.91,0.27 1.03,-0.91 2.05,-1.82 3.11,-2.72 0.5,0.13 1.5,0.39 2,0.53 2.92,-1.11 5.88,-2.13 8.87,-3.07 8.42,-2.91 16.76,-6.13 25.37,-8.5 8.11,-2.62 16.69,-6.03 25.33,-4.31 -9.04,3.56 -18.76,5.07 -27.7,8.93 -9.76,3.28 -19.13,7.59 -28.12,12.57 -1.62,1.03 -3.18,2.14 -4.7,3.28 1.45,0.05 2.93,0.09 4.41,0.13 0.29,-0.38 0.86,-1.15 1.15,-1.53 11.44,-0.34 22.6,-3.32 33.87,-5.15 7.21,-1.69 14.7,-2.1 21.82,-4.22 0.37,0.22 1.1,0.66 1.47,0.88 2.75,-0.14 5.53,-0.2 8.3,-0.21 0.25,0.79 0.74,2.38 0.98,3.17 -2.12,0.25 -4.2,0.5 -6.29,0.76 1.22,1.02 2.45,2.04 3.7,3.07 -12.21,2.4 -24.55,4.65 -36.14,9.35 0.5,0.99 1.02,1.98 1.55,2.98 0.37,-0.58 1.13,-1.74 1.51,-2.32 1.45,0.33 2.86,0.85 4.29,1.36 1.09,-0.4 2.2,-0.8 3.33,-1.2 0.08,-0.52 0.23,-1.57 0.31,-2.1 0.51,0.15 1.52,0.45 2.03,0.6 -1.11,1.13 -2.24,2.25 -3.32,3.38 0.79,1.5 1.53,3.02 2.29,4.55 10.12,-0.1 20.11,-2.6 29.31,-6.75 4.14,-0.86 8.47,-0.17 12.65,0.27 -3.93,3.92 -9.98,3.6 -14.31,6.85 0.86,0.2 2.59,0.6 3.46,0.8 0.09,0.62 0.29,1.86 0.39,2.48 1.54,0.77 3.08,1.55 4.61,2.39 3.29,-0.45 6.54,0.18 9.72,1.04 -1.65,0.95 -3.54,1.61 -4.85,3.01 -1.24,2.39 -2.12,4.96 -3.23,7.42 4.12,-0.15 9.6,-3.38 12.65,0.74 0.58,-0.25 1.72,-0.76 2.3,-1.02 -2.85,2 -6.12,3.55 -8.37,6.26 -1.36,1.66 -1.03,3.98 0.23,5.6 3.08,1.86 6.84,0.71 10.2,0.56 -1.38,0.62 -2.74,1.26 -4.09,1.9 0.87,0.44 2.6,1.31 3.46,1.74 2,-0.28 4.01,-0.54 6.04,-0.79 l 0,1.09 c -3.19,3.91 -9.1,5.35 -10.63,10.55 -0.13,1.17 -1.59,2.94 -0.17,3.76 2.68,1.15 5.65,0.45 8.43,0.06 0.07,0.58 0.21,1.76 0.28,2.35 -4.94,3.08 -10.27,5.45 -15.3,8.36 5.1,2.58 10.9,1.98 16.42,1.91 -4.28,4.84 -10.7,7.01 -14.89,11.95 3.26,1.74 6.82,3.04 10.56,2.19 -0.87,1.14 -1.7,2.3 -2.5,3.48 -3.75,2.19 -7.92,3.48 -12.1,4.57 -0.26,0.8 -0.77,2.41 -1.03,3.22 4.76,2.51 10.13,2.52 15.37,2.07 -5.52,4.66 -12.35,7.47 -19.38,8.87 -0.23,0.21 -0.69,0.63 -0.92,0.84 1.87,0.64 3.76,1.3 5.63,2.04 0.71,0.06 2.15,0.18 2.86,0.25 0.09,0.6 0.27,1.81 0.36,2.41 -6.51,3.03 -13.49,4.74 -20.4,6.51 0.23,1.11 0.51,2.21 0.84,3.31 2.44,0.75 5.05,0.34 7.59,0.43 -2.6,4.75 -8.4,5.34 -13.1,6.61 -11.2,2 -22.45,4.18 -33.87,4.15 -7.36,0.28 -14.71,0.53 -22.06,0.91 -5,0.26 -10.04,-0.38 -15.01,0.26 -3.13,1.02 -5.93,2.99 -9.24,3.49 -9.15,1.56 -18.49,1.63 -27.74,1.74 -10.66,-0.19 -21.35,-0.22 -31.93,-1.59 -6.01,-0.7 -12.06,-1.92 -18.11,-0.93 -9.47,1.26 -18.85,-0.94 -28.21,-2.02 -4.4,5.75 -11.65,7.72 -17.26,11.92 -1.72,0.25 -3.43,0.49 -5.12,0.78 6.46,0.4 12.92,1.04 19.27,2.36 -10.36,4.69 -20.53,10.06 -31.65,12.74 -5.44,1.32 -11.07,1.67 -16.46,3.2 5.76,1.12 11.66,1.71 17.26,3.58 -4.36,1.91 -8.68,3.89 -12.94,6 -10.35,4.01 -21.37,6.13 -32.45,6.61 3.89,1.36 8.01,1.81 12.07,2.44 -10.87,6.91 -23.59,10.71 -36.44,11.17 -7.42,0.45 -14.82,-0.37 -22.18,-1.12 -1.15,0.9 -2.29,1.81 -3.42,2.72 7.69,4.86 16.82,5.62 25.43,7.83 -4.84,4.02 -11.23,5.07 -17.1,6.72 -6.76,1.93 -13.83,2.06 -20.8,1.87 -6.93,-0.07 -13.58,-2.26 -20.43,-3 1.24,1.9 2.23,4.03 3.87,5.64 4.85,2.37 10.36,2.76 15.56,4.02 -8.51,7.16 -20.02,9.98 -30.97,9.27 -9.55,0.32 -18.37,-3.65 -27.42,-5.98 3.06,2.18 6.1,4.4 8.94,6.88 3.7,3.23 8.64,4.18 13.15,5.79 -0.64,-0.03 -1.9,-0.09 -2.53,-0.13 -0.9,1.52 -2.16,2.77 -3.95,3.08 -7.22,1.91 -14.77,2.14 -22.19,2.41 -10.62,0.25 -20.53,-4.02 -29.98,-8.35 0.58,1.84 0.83,3.87 1.85,5.56 2.61,2.27 5.72,3.93 8.87,5.33 3.85,1.39 7.99,1.68 11.92,2.82 -6.92,4.74 -15.47,6.19 -23.66,6.95 -12.7,0.46 -24.18,-5.95 -34.94,-11.89 -0.48,2.66 -1.3,5.83 0.62,8.14 5.46,5.24 12.75,7.74 19.98,9.4 -6.12,3.9 -13.55,4.61 -20.62,4.67 -9.01,0.01 -17.65,-3.48 -25.21,-8.17 -3.79,-2.18 -7.27,-5.2 -11.73,-5.87 1.65,3.92 4.02,7.57 7.12,10.53 3.56,3.16 8.19,4.64 12.29,6.94 -12.71,5.01 -27.21,2.92 -39.15,-3.17 -6.29,-3.33 -11.25,-8.53 -17.2,-12.35 0.59,4.19 3.49,7.4 5.72,10.82 2.31,3.68 6.4,5.51 9.91,7.83 -13.24,3.39 -27.54,0.39 -39,-6.79 -5.98,-4.01 -11.4,-8.77 -17.32,-12.84 0.04,9.81 8.41,16.73 15.9,21.73 -7.72,1.27 -15.95,1.24 -23.14,-2.19 -11.72,-4.65 -20.57,-13.94 -29.74,-22.22 1.27,9.09 8.69,15.21 15.06,21.02 -12.31,2.13 -25.48,-2.11 -34.41,-10.81 -5.17,-5.13 -10.79,-9.97 -14.73,-16.18 -0.49,1.44 -0.96,2.88 -1.43,4.34 0.47,2.3 0.6,4.65 0.41,7 2.6,2.81 5.35,5.5 8.34,7.9 -4.44,-0.11 -9.06,-0.33 -13,-2.62 -7.31,-3.95 -13.21,-10.07 -18.57,-16.32 -4.68,-5.35 -6.01,-13.09 -11.83,-17.5 -1.55,-1.33 -3.71,-1.32 -5.6,-1.71 -3.4,-2.38 -6.76,-4.81 -10.13,-7.21 -2.06,0.76 -4.09,1.58 -6.1,2.43 -3.68,-2.13 -6.98,-4.85 -10.88,-6.58 -3.48,-1.45 -6.24,-4.68 -6.91,-8.4 -0.14,-3.27 0.18,-6.57 -0.57,-9.78 -3.32,2.05 -6.59,4.22 -9.23,7.13 -0.31,-1.38 -0.6,-2.75 -0.91,-4.11 -1.28,-0.89 -2.54,-1.76 -3.8,-2.64 -0.17,0.72 -0.5,2.16 -0.67,2.89 -5.33,3.6 -12.14,1.46 -16.82,-2.19 -4.08,-3.32 -8.57,0.29 -12.54,1.83 -12.69,5.45 -26.78,3.58 -40.17,3.06 -7.26,-0.13 -14.3,-2.18 -21.55,-2.39 3.21,2.13 6.65,4.18 10.51,4.83 3.4,0.32 6.81,0.21 10.21,0.37 -5.22,6.71 -14.38,7.48 -22.22,6.68 -7.22,-0.9 -14.5,-1.69 -21.46,-3.88 -4.44,-1.32 -9.11,-1.59 -13.52,-2.97 -2.88,-0.87 -5.9,-1.75 -8.89,-0.85 -7.94,1.88 -16.06,-0.07 -24.07,0.52 -15.04,1.5 -30.05,-0.94 -45,-2.3 -12.14,-0.17 -23.9,-3.58 -35.93,-4.76 -5.07,-0.48 -10.11,-1.17 -15.1,-2.15 -11.55,-2.74 -23.38,0.04 -35.07,-0.4 4.74,5.35 10.49,9.79 14.34,15.91 10.22,13.88 21.3,27.99 36.85,36.2 6.88,3.63 14.65,6.17 19.97,12.16 0.15,1.62 -0.35,3.51 0.69,4.95 3.88,6.08 9.7,10.51 15.42,14.74 5.3,4.5 11.21,8.19 16.99,12.04 2.01,1.24 3.41,3.16 4.68,5.12 l -1.36,0 c -3.23,-1.94 -6.84,-3.06 -10.45,-4.07 -7.4,-2 -14.19,-5.64 -21.19,-8.68 -6.05,-2.59 -11.62,-6.15 -16.59,-10.45 -4.6,-0.34 -9.23,-1.34 -13.12,-3.94 -5.42,-3.08 -9.13,-8.41 -14.69,-11.28 -5.83,-3.35 -10.49,-8.27 -15.44,-12.75 -5.22,-4.77 -9.15,-10.72 -14.09,-15.77 -6.9,-7.11 -12.32,-15.58 -20.05,-21.89 -6.93,-6.36 -12.65,-16.09 -23.05,-16.69 -5.33,4.76 -9.13,11.21 -15.28,15.07 -6.23,2.68 -11.55,-3.26 -17.64,-3.55 -9.41,-0.82 -18.43,-4.29 -27.93,-4.25 -10.02,-0.05 -20.04,-0.3 -30.04,-0.92 -10.14,-0.79 -19.15,-5.99 -27.59,-11.25 -6.27,-3.47 -11.29,-8.68 -16.51,-13.48 -5.97,-5.69 -10.33,-12.78 -16.05,-18.69 -5.52,-5.96 -12.81,-9.97 -20.31,-12.9 -3.64,-1.54 -7.69,-2.58 -10.52,-5.51 -2.3,-2.41 -4.54,-4.89 -7.2,-6.92 0.69,-0.77 1.38,-1.53 2.07,-2.29 0.12,-1.51 0.24,-3.01 0.36,-4.5 0.73,0.37 2.18,1.1 2.91,1.47 1.33,-3.14 2.87,-6.19 4.84,-8.98 -0.42,-0.39 -1.27,-1.18 -1.69,-1.57 0.49,-1.66 0.98,-3.32 1.46,-4.97 -0.88,0.22 -2.63,0.66 -3.5,0.88 -0.94,-0.32 -1.87,-0.63 -2.81,-0.94 -0.47,0.45 -1.41,1.34 -1.88,1.79 -0.71,-0.22 -1.43,-0.43 -2.14,-0.64 -3.32,0.65 -6.65,1.19 -10.01,1.57 -0.39,0.24 -1.18,0.74 -1.58,0.98 -3.44,-0.16 -7.63,0.59 -10.02,-2.56 -3.32,-4.08 -7.66,-7.87 -8.59,-13.3 -0.7,-3.92 -4.65,-6.81 -3.75,-11.04 0.66,-5.43 0.19,-11.25 3.14,-16.09 -0.19,-4.78 -1.76,-9.62 -0.88,-14.37 3.56,-6.78 8.21,-13.52 8.46,-21.46 -0.1,-6.49 0.14,-12.97 0.28,-19.46 -3.64,-0.1 -6.27,2.14 -7.93,5.18 -0.29,-0.17 -0.86,-0.51 -1.15,-0.67 -2.91,0.36 -6.05,0.83 -8.69,-0.82 -3.62,-2.07 -7.6,-3.33 -11.54,-4.62 1.81,0.28 3.62,0.6 5.42,0.93 0.26,-0.22 0.76,-0.66 1.02,-0.88 4.39,1.86 9.4,1.81 14,0.82 0.12,-0.41 0.36,-1.24 0.48,-1.65 -3.15,-2.02 -6.84,-2.98 -9.99,-4.99 -4.03,-2.55 -7.86,-5.4 -11.66,-8.28 7.69,3.77 14.78,8.99 23.38,10.57 -1.03,-3.08 -2.19,-6.17 -4.07,-8.85 -3.42,-4.62 -6.26,-9.77 -10.79,-13.46 3.82,1.36 7.76,2.79 10.7,5.71 4.51,4.33 8.52,9.15 12.26,14.15 0.2,-4.53 1.1,-9.04 2.82,-13.24 1.72,-2.92 3.94,-5.59 4.91,-8.9 1.31,-4.91 5.42,-8.36 7.04,-13.14 2.1,-6.15 3.76,-12.47 6.47,-18.39 3.11,-6.82 8.93,-11.95 15.13,-15.92 4.98,-3.23 10.79,-4.71 16,-7.46 -5.23,-7.04 -5.28,-16.42 -3.76,-24.71 0.72,3.71 1.04,7.71 3.47,10.8 -1.06,-5.62 -2.34,-11.21 -2.68,-16.93 1.26,0.98 2.51,1.99 3.75,3 -1.22,3.66 -0.31,7.36 1.43,10.67 0.93,-6.47 1.28,-12.96 0.25,-19.45 2.85,8.26 4.04,17.01 6.98,25.24 1.97,-8.24 0.16,-16.64 -0.07,-24.95 2.61,9.16 3.37,18.76 2.97,28.25 2.25,-3.15 4.62,-6.31 5.93,-9.99 1.35,-3.64 1.7,-7.53 2.6,-11.29 0.79,5.63 -0.93,11.1 -1.15,16.69 -0.21,2.48 -0.35,5.12 -1.68,7.3 -1.96,1.97 -4.72,2.85 -7.05,4.29 2.42,0.3 4.87,1.07 7.34,0.73 3.49,-1.05 6.66,-2.92 9.96,-4.44 -0.04,-0.54 -0.1,-1.62 -0.14,-2.16 1,-0.95 2,-1.91 2.99,-2.86 0.32,0.49 0.95,1.47 1.27,1.97 7.69,-0.81 14.31,-5.09 21.39,-7.82 8.56,-3.95 17.83,-5.89 26.97,-7.99 10.47,-1.69 20.82,-4 31.24,-5.95 7.88,-1.26 15.91,-1.87 23.58,-4.22 4.7,-1.44 9.58,-2.12 14.49,-2.1 4.01,-4.64 7.49,-9.96 8.6,-16.1 0.7,-2.3 1.39,-4.61 2.15,-6.9 -0.44,4.66 -1.54,9.24 -1.66,13.93 2.97,-4.03 4.54,-8.82 6.9,-13.19 -1.6,4.95 -3.74,9.75 -4.43,14.96 2.84,-4.09 4.96,-8.61 7.22,-13.03 -2.1,5.84 -4.51,11.59 -7.64,16.96 -1.42,2.59 -3.12,5.18 -3.29,8.23 3.14,-3.56 4.9,-8.01 7.07,-12.16 -0.07,2.24 -0.12,4.48 -0.15,6.72 2.23,-3.19 4.1,-6.6 6.18,-9.89 -1.32,4.12 -3.41,7.91 -5.5,11.68 2.93,-1.6 5.32,-3.93 6.77,-6.97 l -0.61,2.98 c 4.76,-2.32 10.09,-3.01 14.94,-5.1 9.28,-4.55 19.64,-6.89 28.21,-12.87 3.58,-2.74 6.47,-6.23 9.8,-9.24 17.56,-14.4 33.72,-30.57 52.44,-43.54 8.93,-6.89 18.71,-12.54 27.74,-19.29 11.47,-8.77 24.12,-15.82 36.34,-23.46 6.31,-3.72 12.6,-7.49 18.94,-11.17 11.49,-6 21.89,-13.95 33.7,-19.36 z"
       id="path5"
       style="fill:#000000" />
    <path
       d="m 1305.51,280.24 c 0.47,0.6 0.47,0.6 0,0 z"
       id="path7"
       style="fill:#000000" />
  </g>
</svg>
