<?xml version="1.0" standalone="no"?>
<!DOCTYPE svg PUBLIC "-//W3C//DTD SVG 20010904//EN"
 "http://www.w3.org/TR/2001/REC-SVG-20010904/DTD/svg10.dtd">
<svg version="1.0" xmlns="http://www.w3.org/2000/svg"
 width="1016.000000pt" height="1536.000000pt" viewBox="0 0 1016.000000 1536.000000"
 preserveAspectRatio="xMidYMid meet">
<metadata>
Created by potrace 1.16, written by Peter Selinger 2001-2019
</metadata>
<g transform="translate(0.000000,1536.000000) scale(0.100000,-0.100000)"
fill="#000000" stroke="none">
<path d="M3392 15123 c4 -105 10 -142 31 -206 44 -127 258 -611 511 -1154 71
-152 82 -212 52 -271 -23 -44 -192 -202 -322 -300 -161 -121 -320 -268 -546
-502 l-188 -194 -27 22 c-89 70 -164 101 -248 102 -41 0 -70 6 -91 19 -18 11
-83 92 -155 193 -222 312 -451 612 -523 683 -83 82 -148 117 -228 123 -56 4
-58 3 -58 -20 0 -36 287 -744 358 -883 141 -277 277 -434 487 -562 52 -32 83
-58 89 -74 7 -22 -8 -52 -121 -235 -160 -257 -231 -385 -326 -584 -165 -343
-292 -713 -381 -1105 -46 -202 -117 -589 -128 -695 -6 -58 -12 -111 -14 -117
-2 -10 -47 -13 -176 -13 -345 0 -557 -50 -748 -176 -36 -24 -37 -25 -29 -72 4
-26 12 -59 18 -75 14 -36 89 -82 181 -111 94 -30 368 -92 475 -107 44 -6 83
-14 87 -18 12 -10 -20 -222 -47 -314 -14 -48 -56 -157 -94 -244 -99 -226 -128
-303 -157 -411 -41 -161 -47 -341 -16 -512 6 -32 2 -83 -15 -180 -28 -166 -49
-237 -114 -381 -67 -149 -90 -239 -89 -359 0 -104 1 -108 54 -290 66 -223 96
-389 111 -619 4 -52 15 -129 26 -170 24 -94 93 -240 155 -327 84 -117 88 -135
89 -404 1 -293 10 -321 130 -460 79 -92 111 -171 140 -354 73 -454 139 -634
281 -769 55 -52 80 -86 105 -140 l34 -72 5 -195 5 -196 34 -52 c43 -67 79 -95
205 -157 86 -43 108 -58 148 -109 63 -79 73 -102 108 -257 38 -170 64 -244
106 -302 48 -66 122 -111 242 -149 90 -28 108 -38 131 -68 14 -19 95 -115 180
-213 173 -200 261 -274 406 -343 188 -89 364 -113 701 -96 340 18 494 50 689
147 127 63 219 129 372 269 59 54 160 134 223 176 175 118 222 174 467 555 71
110 165 250 209 310 174 239 210 301 385 658 114 232 133 289 174 512 34 182
71 292 145 423 72 130 122 276 150 440 31 186 42 210 160 371 83 113 109 225
118 516 8 256 1 235 130 370 46 48 94 109 107 135 36 72 60 208 105 605 22
198 52 443 68 545 27 184 27 187 24 653 l-3 467 29 0 c30 0 617 -108 842 -155
69 -14 353 -82 633 -151 279 -69 526 -126 550 -127 37 -2 42 1 45 21 2 12 -1
22 -7 22 -6 0 -49 35 -96 78 -197 176 -349 272 -565 355 -207 80 -792 262
-1099 343 l-144 38 6 70 c24 282 29 376 24 486 -4 109 -9 135 -35 200 -41 101
-50 168 -56 415 -6 252 -20 339 -86 534 -60 178 -66 204 -85 406 -27 275 -49
374 -126 567 -22 53 -39 103 -39 111 0 9 60 41 158 87 303 139 423 227 509
372 81 136 160 201 363 303 246 123 439 245 514 325 64 69 86 160 46 200 -26
26 -60 34 -123 26 -66 -9 -102 -25 -379 -168 -262 -136 -452 -222 -680 -309
-203 -76 -366 -144 -531 -220 -70 -32 -130 -59 -132 -59 -3 0 -5 8 -5 18 0 11
-9 27 -20 37 -31 28 -89 120 -106 167 -8 24 -35 120 -58 213 -73 285 -138 436
-285 659 -39 59 -71 116 -71 126 0 10 20 46 45 81 279 398 332 497 375 710 12
56 29 114 39 128 88 124 185 407 220 636 25 170 25 165 -2 165 -45 0 -177
-118 -288 -258 -32 -40 -98 -130 -146 -200 -57 -83 -120 -160 -183 -222 -53
-52 -147 -161 -209 -242 l-112 -148 -132 88 c-309 207 -648 382 -829 428 -103
27 -273 14 -620 -45 -351 -60 -415 -63 -479 -23 -61 39 -145 135 -203 232 -26
45 -127 235 -223 423 -252 492 -286 551 -373 637 -51 52 -100 70 -185 70 l-57
0 4 -127z m698 -3278 c282 -21 615 -52 800 -76 277 -35 444 -75 750 -181 114
-39 127 -46 151 -82 14 -21 42 -47 61 -57 19 -10 49 -34 66 -54 29 -32 32 -42
32 -100 l0 -65 -128 0 c-137 0 -307 17 -494 50 -243 42 -1409 311 -1478 341
-51 22 -110 78 -110 105 0 24 48 112 67 123 24 14 43 13 283 -4z m-670 -876
c47 -5 144 -21 215 -34 72 -13 252 -45 400 -70 422 -71 693 -135 1185 -280
347 -103 635 -201 734 -251 103 -52 239 -149 233 -167 -7 -23 -113 -67 -187
-78 -135 -21 -284 -3 -600 70 -96 22 -373 83 -615 136 -1021 222 -1100 242
-1438 365 -281 101 -467 175 -488 194 -10 9 -19 26 -19 39 0 19 9 26 48 40
158 54 293 64 532 36z m-897 -1009 c153 -18 607 -105 1552 -300 1242 -255
1900 -406 2354 -539 235 -69 254 -80 254 -155 0 -54 -13 -72 -62 -86 -110 -30
-742 12 -1131 76 -198 32 -307 60 -505 128 -596 205 -1301 357 -2310 501 -371
53 -646 106 -745 143 -33 13 -46 24 -48 40 -6 38 21 66 99 103 182 89 331 113
542 89z m-298 -1447 c894 -342 1691 -612 1875 -634 63 -8 668 -39 2115 -110
127 -6 403 -11 615 -11 410 0 423 -1 467 -50 13 -15 18 -36 18 -84 0 -95 -16
-106 -183 -139 -73 -14 -158 -35 -189 -46 -175 -60 -442 -70 -803 -31 -227 25
-620 55 -1010 77 -911 52 -1315 117 -1895 305 -115 38 -327 105 -470 149 -518
160 -1082 360 -1120 399 -27 27 -45 92 -45 164 0 48 4 58 33 87 44 42 142 83
182 75 17 -3 201 -71 410 -151z m-470 -1272 c73 -19 149 -47 203 -74 164 -84
295 -121 662 -186 124 -23 342 -63 485 -90 143 -27 409 -74 590 -105 742 -127
919 -158 1105 -196 380 -77 579 -95 955 -87 359 8 577 31 1243 133 95 15 120
16 160 5 69 -18 122 -76 122 -132 0 -37 -40 -108 -75 -135 -45 -34 -130 -48
-466 -78 -439 -39 -517 -45 -770 -56 -504 -23 -1098 33 -2114 200 -505 82
-978 195 -1950 465 -71 20 -228 55 -348 79 -288 58 -315 76 -250 164 93 125
216 151 448 93z m-75 -1252 c246 -11 259 -12 625 -87 343 -70 748 -131 1535
-232 989 -126 1489 -167 2420 -200 334 -12 442 -22 533 -50 85 -26 101 -42 94
-92 -7 -49 -31 -86 -65 -99 -69 -27 -267 -41 -497 -36 -228 5 -882 66 -1250
117 -171 23 -248 31 -1125 120 -1067 108 -1420 155 -1825 245 -247 55 -288 61
-500 75 -189 13 -230 20 -269 51 -30 24 -56 69 -56 98 0 42 64 85 150 100 3 0
106 -4 230 -10z m175 -1084 c110 -8 425 -35 700 -60 1058 -95 1310 -115 2205
-180 798 -57 1330 -123 1408 -174 8 -4 12 -21 10 -37 -2 -23 -12 -34 -50 -52
l-47 -24 -518 36 c-285 20 -1296 90 -2248 156 -1955 135 -1782 115 -1778 207
1 27 11 70 22 96 24 56 4 54 296 32z m1500 -1105 c303 -16 919 -50 1370 -75
451 -25 912 -50 1025 -56 231 -12 258 -20 252 -75 -7 -58 -10 -59 -275 -59
-146 0 -377 9 -582 23 -187 12 -578 38 -870 58 -291 19 -788 52 -1104 74 -315
22 -622 40 -681 40 -59 0 -121 5 -139 11 -29 10 -31 14 -31 57 l0 45 243 -6
c133 -4 490 -20 792 -37z m275 -850 c392 -18 824 -51 1350 -100 271 -26 571
-59 577 -64 0 0 5 -19 9 -40 l7 -39 -234 6 c-260 8 -276 9 -1677 107 -546 39
-1005 73 -1020 76 -43 10 -72 33 -72 56 l0 21 428 -6 c235 -4 519 -11 632 -17z
m320 -840 c453 -19 1212 -77 1222 -94 4 -6 8 -21 8 -33 0 -18 -10 -25 -52 -38
-151 -45 -333 -41 -781 15 -133 16 -413 41 -622 54 -209 14 -394 30 -410 36
-37 14 -65 39 -65 57 0 16 344 18 700 3z m826 -607 c6 -21 2 -31 -18 -48 -23
-20 -41 -22 -191 -29 -167 -6 -660 7 -815 23 -87 9 -122 27 -122 63 0 17 23
18 570 18 l570 0 6 -27z"/>
</g>
</svg>
