<?xml version="1.0" standalone="no"?>
<!DOCTYPE svg PUBLIC "-//W3C//DTD SVG 20010904//EN"
 "http://www.w3.org/TR/2001/REC-SVG-20010904/DTD/svg10.dtd">
<svg version="1.0" xmlns="http://www.w3.org/2000/svg"
 width="1206.000000pt" height="1536.000000pt" viewBox="0 0 1206.000000 1536.000000"
 preserveAspectRatio="xMidYMid meet">
<metadata>
Created by potrace 1.16, written by Peter Selinger 2001-2019
</metadata>
<g transform="translate(0.000000,1536.000000) scale(0.100000,-0.100000)"
fill="#000000" stroke="none">
<path d="M11745 15340 c-131 -42 -285 -165 -504 -404 -430 -469 -848 -1027
-997 -1331 -77 -157 -106 -256 -145 -485 -16 -96 -36 -195 -44 -221 -22 -64
-75 -123 -143 -156 l-57 -28 -290 3 c-264 3 -300 1 -395 -18 -314 -64 -643
-270 -995 -624 -227 -228 -400 -448 -527 -671 -111 -196 -188 -365 -423 -930
-248 -597 -370 -845 -700 -1421 -497 -866 -915 -1439 -1376 -1889 -187 -182
-314 -289 -609 -514 -448 -342 -554 -443 -1049 -1001 -519 -584 -650 -710
-1396 -1350 -645 -552 -889 -778 -1242 -1152 -406 -430 -585 -660 -711 -913
-142 -285 -179 -621 -101 -915 50 -190 158 -436 259 -590 213 -324 489 -556
790 -664 338 -122 755 -68 1190 155 260 134 417 270 810 704 464 513 615 635
1544 1254 654 436 726 497 1081 906 213 245 348 379 730 720 346 309 550 502
770 726 400 408 771 825 1092 1227 381 476 546 739 875 1397 252 504 352 670
669 1115 625 879 716 1026 904 1460 177 411 265 772 265 1095 0 311 -62 521
-294 998 -59 119 -117 250 -130 290 -52 155 -42 284 35 440 57 115 82 144 202
229 135 95 214 177 260 270 47 91 63 171 77 368 15 220 29 323 56 418 64 220
296 578 648 997 69 83 137 173 151 201 70 140 22 277 -110 313 -56 15 -101 13
-170 -9z m139 -130 c36 -13 42 -49 18 -102 -11 -23 -75 -108 -142 -188 -340
-405 -568 -750 -653 -985 -43 -121 -61 -231 -77 -485 -22 -325 -57 -395 -286
-557 -131 -93 -174 -143 -240 -278 -80 -166 -100 -291 -70 -447 19 -100 46
-167 174 -428 213 -438 272 -635 272 -908 0 -308 -78 -629 -252 -1037 -168
-394 -293 -600 -778 -1280 -443 -621 -512 -734 -815 -1335 -328 -649 -475
-881 -862 -1362 -228 -285 -476 -569 -777 -893 -335 -360 -587 -604 -1041
-1010 -383 -342 -515 -472 -750 -740 -359 -409 -404 -446 -1080 -898 -927
-619 -1067 -734 -1545 -1262 -351 -387 -494 -517 -697 -633 -298 -170 -662
-262 -923 -232 -130 15 -199 34 -307 85 -350 165 -630 480 -798 895 -127 316
-144 563 -59 858 89 307 367 673 977 1284 292 293 424 413 1016 921 785 674
849 736 1369 1320 533 598 631 692 1072 1028 293 223 427 336 619 524 174 170
327 337 458 500 372 463 789 1118 1206 1896 171 319 286 570 523 1150 154 379
297 674 413 850 102 158 259 348 426 515 311 313 593 498 880 577 75 20 101
22 405 22 314 0 327 1 380 22 116 48 209 144 248 256 12 34 35 143 51 242 45
277 91 402 230 622 337 537 1020 1334 1245 1454 84 45 128 55 170 39z"/>
<path d="M10175 12569 c-41 -42 -128 -93 -202 -118 -103 -35 -216 -43 -420
-30 -266 18 -375 -1 -568 -98 -247 -124 -558 -383 -796 -664 -242 -285 -337
-459 -619 -1134 -266 -636 -339 -795 -526 -1143 -632 -1175 -1186 -1963 -1745
-2482 -214 -199 -300 -270 -629 -520 -118 -90 -255 -198 -305 -241 -143 -123
-357 -347 -701 -734 -542 -611 -586 -653 -1559 -1485 -504 -431 -884 -795
-1199 -1150 -356 -399 -520 -649 -583 -885 -23 -86 -26 -121 -27 -255 -1 -178
8 -220 94 -430 66 -160 86 -198 172 -326 50 -76 110 -148 198 -235 280 -282
509 -372 826 -325 208 31 388 87 576 181 193 97 328 208 543 446 424 468 478
524 661 685 217 191 467 372 1072 776 657 439 728 497 996 808 301 349 389
437 871 865 629 558 1196 1154 1746 1835 381 470 534 713 857 1355 275 547
413 774 791 1305 401 564 544 782 655 1000 182 356 312 725 357 1015 17 105
17 382 0 465 -33 170 -122 392 -274 691 -47 92 -100 211 -118 265 -50 156 -52
332 -3 510 4 16 -4 26 -48 50 -29 16 -55 30 -58 32 -3 1 -19 -12 -35 -29z"/>
</g>
</svg>
