<?xml version="1.0" standalone="no"?>
<!DOCTYPE svg PUBLIC "-//W3C//DTD SVG 20010904//EN"
 "http://www.w3.org/TR/2001/REC-SVG-20010904/DTD/svg10.dtd">
<svg version="1.0" xmlns="http://www.w3.org/2000/svg"
 width="1536.000000pt" height="1384.000000pt" viewBox="0 0 1536.000000 1384.000000"
 preserveAspectRatio="xMidYMid meet">
<metadata>
Created by potrace 1.16, written by Peter Selinger 2001-2019
</metadata>
<g transform="translate(0.000000,1384.000000) scale(0.100000,-0.100000)"
fill="#000000" stroke="none">
<path d="M10406 13822 c-26 -10 -54 -26 -62 -37 -24 -32 -17 -104 16 -173 35
-74 38 -110 11 -143 -16 -20 -23 -22 -47 -14 -39 14 -63 60 -73 142 -9 74 -21
104 -54 141 -29 31 -100 29 -204 -7 -155 -54 -209 -100 -220 -189 -8 -74 11
-140 87 -300 86 -181 119 -277 127 -363 8 -89 -2 -133 -39 -174 -44 -50 -79
-48 -157 11 -70 52 -108 97 -121 143 -10 37 11 127 55 230 34 81 31 124 -20
278 -46 139 -63 168 -111 183 -77 26 -213 -32 -247 -103 -10 -20 -22 -39 -28
-42 -5 -4 -31 7 -58 24 -115 74 -216 12 -237 -146 -12 -91 1 -133 61 -206 30
-37 55 -71 55 -76 0 -5 -30 -12 -66 -16 -49 -5 -73 -13 -89 -29 -47 -47 -75
-268 -42 -332 23 -44 47 -62 133 -97 64 -27 84 -41 111 -77 79 -106 93 -120
125 -120 17 0 66 16 109 36 101 45 141 52 175 29 54 -35 81 -154 52 -236 -6
-18 -32 -67 -57 -109 -88 -143 -97 -150 -174 -125 -72 24 -180 80 -219 114
-18 16 -51 64 -72 107 -33 65 -57 95 -140 174 -287 273 -280 261 -248 419 40
191 36 267 -17 376 -36 71 -139 180 -197 206 -52 23 -184 46 -316 55 -127 8
-160 -4 -215 -79 -53 -73 -51 -108 20 -276 31 -74 57 -140 57 -147 0 -47 87
-57 211 -24 108 29 134 27 175 -14 29 -29 34 -41 34 -83 0 -57 -28 -110 -64
-119 -15 -3 -47 4 -87 21 -141 59 -172 67 -235 63 -48 -3 -70 -10 -98 -31 -97
-75 -121 -164 -69 -259 58 -104 72 -134 84 -181 40 -159 192 -212 355 -122
142 78 143 78 159 65 19 -16 20 -128 2 -173 -8 -18 -35 -57 -61 -87 -26 -30
-57 -73 -68 -94 -41 -80 -8 -201 99 -361 24 -37 34 -62 31 -81 -6 -54 -32 -39
-144 83 -186 202 -288 299 -348 328 -42 20 -79 29 -156 35 -86 8 -110 14 -158
41 -136 76 -126 73 -218 61 -146 -19 -204 -68 -204 -169 0 -71 30 -160 77
-231 32 -47 41 -72 46 -121 8 -72 25 -109 66 -144 49 -41 96 -52 216 -52 102
0 113 2 157 28 35 20 57 44 84 90 66 114 99 132 134 75 24 -40 26 -95 4 -126
-23 -33 -64 -51 -167 -73 -121 -25 -185 -58 -246 -124 -59 -65 -83 -128 -84
-223 -1 -132 50 -179 378 -339 194 -95 219 -98 274 -36 l37 41 22 -34 c38 -59
100 -67 158 -22 41 33 54 78 64 219 11 153 22 197 57 239 49 59 152 92 289 93
56 0 82 -5 120 -24 46 -22 49 -27 52 -65 2 -27 -7 -65 -26 -115 -44 -111 -55
-172 -49 -259 6 -94 26 -136 152 -320 106 -155 132 -203 141 -257 8 -54 -7
-105 -91 -288 -120 -263 -142 -348 -132 -526 8 -150 43 -247 176 -494 206
-379 215 -400 215 -480 0 -111 -56 -195 -130 -195 -38 0 -227 53 -367 103
-171 62 -238 112 -306 231 -62 108 -96 219 -121 386 -12 80 -33 179 -46 220
-51 164 -308 566 -387 607 -59 30 -106 75 -197 189 -98 122 -112 134 -160 134
-43 0 -82 -41 -109 -115 -12 -33 -28 -79 -37 -102 -16 -43 -70 -128 -164 -257
-69 -96 -80 -138 -80 -320 0 -263 40 -423 169 -685 l71 -143 0 -297 c0 -334
-4 -360 -70 -496 -96 -197 -233 -289 -337 -225 -60 36 -89 111 -163 425 -77
324 -132 455 -247 588 -113 129 -208 196 -278 197 -16 0 -55 -7 -85 -15 -70
-19 -106 -8 -155 47 -55 60 -75 111 -75 194 0 88 31 156 120 259 75 88 104
147 125 258 20 105 41 170 85 257 82 161 105 288 97 518 -6 181 -28 284 -81
390 -68 136 -162 213 -367 302 -103 45 -149 79 -149 111 0 33 29 79 56 89 14
6 90 10 168 10 166 0 228 10 311 49 137 64 218 150 316 333 30 57 87 152 128
213 132 198 165 285 159 416 -3 70 -6 82 -31 106 -25 25 -34 28 -100 28 -88 0
-150 -27 -213 -93 -31 -32 -44 -40 -50 -30 -5 7 -8 67 -9 133 0 100 -3 126
-18 149 -37 55 -126 70 -260 42 -78 -17 -81 -16 -160 32 -83 50 -147 50 -253
-3 -91 -45 -211 -156 -220 -205 -9 -42 -27 -37 -67 19 -65 90 -143 90 -240 1
-84 -76 -137 -191 -217 -467 -11 -40 -22 -73 -24 -73 -2 0 -18 21 -35 47 -45
67 -41 94 29 226 72 137 90 201 90 329 0 113 -12 151 -59 191 -25 21 -43 27
-80 27 -51 0 -62 -6 -161 -85 -79 -63 -95 -72 -168 -91 -78 -20 -107 -46 -221
-193 -55 -70 -131 -161 -170 -202 -79 -82 -81 -89 -56 -194 18 -75 18 -133 0
-210 -22 -88 -19 -265 4 -357 40 -154 106 -254 303 -454 l148 -151 -18 -24
c-10 -13 -31 -45 -46 -71 -31 -54 -31 -54 -151 3 -65 31 -77 33 -170 33 -55 0
-137 -2 -182 -5 -74 -4 -84 -2 -104 18 -27 27 -22 52 27 123 20 29 45 72 55
94 26 59 42 260 43 546 1 271 -6 319 -56 372 -25 27 -33 30 -70 25 -23 -3 -59
-18 -82 -34 -88 -62 -115 -186 -77 -346 22 -94 27 -167 11 -167 -15 0 -60 84
-87 162 -21 60 -24 86 -21 157 5 134 30 178 192 336 124 120 134 134 146 182
15 65 2 111 -43 149 -44 37 -123 31 -194 -14 -67 -43 -80 -41 -93 11 -24 101
-34 122 -70 140 -63 33 -221 4 -270 -48 -20 -21 -25 -41 -33 -137 -5 -62 -10
-114 -12 -116 -1 -1 -37 14 -80 34 -92 44 -98 42 -140 -42 -23 -45 -30 -72
-30 -114 1 -71 28 -119 129 -229 100 -109 103 -121 70 -281 -22 -105 -25 -140
-20 -218 6 -85 5 -93 -11 -90 -11 2 -26 28 -43 78 -28 85 -51 121 -111 174
-101 92 -224 102 -296 24 -32 -34 -63 -107 -63 -150 0 -48 -16 -88 -34 -88 -8
0 -27 11 -42 24 -27 22 -28 28 -35 152 -15 250 -84 370 -254 445 -103 46 -244
21 -296 -52 -22 -31 -24 -45 -28 -176 l-3 -141 -48 -39 c-89 -71 -102 -128
-54 -231 22 -47 27 -70 26 -131 -1 -96 14 -126 70 -142 24 -6 61 -9 83 -6 64
9 72 -2 47 -61 -25 -59 -28 -131 -7 -171 17 -35 97 -71 169 -77 77 -8 100 12
171 146 33 62 72 122 87 133 24 18 31 18 78 7 101 -24 127 -68 155 -267 9 -61
20 -126 25 -145 6 -18 10 -47 10 -63 0 -35 -38 -155 -49 -155 -10 0 -102 115
-136 170 -34 56 -82 107 -117 126 -15 8 -55 14 -92 14 -58 0 -75 -5 -150 -45
l-85 -45 -105 7 c-100 6 -107 5 -161 -21 -64 -32 -90 -64 -79 -98 4 -13 29
-48 56 -79 l48 -56 -24 -54 c-39 -90 -41 -112 -10 -148 14 -18 43 -40 64 -51
20 -10 61 -46 91 -80 48 -53 66 -65 165 -108 124 -55 167 -82 295 -188 146
-122 187 -187 204 -328 l7 -56 -52 26 c-66 33 -91 27 -133 -32 l-32 -46 -6
109 c-11 185 -48 295 -108 320 -40 17 -155 13 -174 -6 -15 -15 -39 -14 -73 4
-16 8 -54 15 -85 15 -57 0 -88 -12 -211 -84 -64 -37 -93 -30 -153 37 -26 29
-60 67 -76 85 -26 29 -35 32 -83 32 -43 0 -61 -5 -84 -25 -38 -32 -46 -64 -32
-132 14 -68 6 -79 -43 -58 -49 20 -103 19 -155 -5 -59 -27 -84 -83 -84 -191
-1 -149 63 -228 271 -340 157 -84 235 -135 272 -177 38 -43 34 -45 -81 -56
-91 -8 -133 -28 -174 -85 -28 -39 -31 -50 -31 -115 1 -87 18 -122 92 -191 l54
-50 -27 -58 c-61 -136 -43 -173 101 -201 50 -10 129 -18 177 -18 98 0 146 17
231 79 72 53 113 52 235 -6 50 -24 92 -47 92 -49 0 -3 -22 -31 -50 -63 -27
-31 -54 -68 -59 -82 -11 -29 7 -118 38 -187 24 -54 27 -98 6 -106 -24 -10 -42
13 -77 97 -43 106 -90 166 -158 202 -52 27 -61 29 -150 25 -72 -3 -105 -9
-136 -26 -172 -89 -121 -298 110 -449 137 -89 148 -97 162 -126 14 -26 14 -31
-2 -48 -16 -17 -27 -19 -124 -13 l-107 7 -43 -39 c-55 -50 -90 -123 -90 -189
0 -66 25 -106 87 -136 41 -21 63 -24 149 -24 l101 0 134 65 c130 63 134 65
213 65 69 -1 93 -6 161 -34 182 -75 205 -82 289 -82 91 0 145 10 294 52 133
39 227 49 437 48 155 -1 178 1 258 25 151 45 258 94 372 170 123 83 190 110
320 126 139 18 162 26 214 78 60 61 118 175 171 334 42 130 61 158 105 158 11
0 71 -16 133 -35 140 -43 209 -50 337 -36 182 21 281 70 455 227 47 42 100 88
119 102 l33 26 33 -36 c38 -41 61 -104 51 -141 -3 -14 -25 -49 -49 -79 -24
-29 -49 -63 -55 -75 -20 -36 -14 -91 14 -139 l26 -44 -20 -38 c-11 -20 -32
-59 -47 -87 -24 -45 -26 -57 -21 -120 11 -126 59 -191 186 -255 60 -30 90 -59
90 -86 0 -27 -52 -79 -95 -95 -94 -34 -227 -94 -271 -122 -213 -133 -290 -211
-365 -371 -44 -95 -52 -160 -34 -302 23 -186 25 -177 -49 -248 -49 -47 -73
-79 -100 -139 -29 -64 -51 -93 -128 -170 -99 -100 -132 -120 -243 -148 -127
-34 -162 -27 -278 55 -56 39 -62 41 -145 44 -48 2 -91 7 -95 12 -12 11 47 75
118 125 76 55 156 138 184 193 49 96 37 181 -39 283 -62 83 -223 238 -279 269
-37 21 -47 33 -61 74 -31 95 -93 146 -241 200 -25 9 -75 41 -111 70 -149 123
-222 125 -334 8 -147 -153 -162 -422 -36 -620 18 -27 85 -99 151 -160 132
-124 181 -188 181 -238 0 -18 -13 -66 -30 -107 -46 -115 -39 -162 40 -279 47
-70 48 -73 27 -80 -12 -3 -56 -6 -98 -7 -66 -1 -84 3 -138 30 -86 43 -154 111
-171 172 -11 41 -11 70 0 179 20 194 1 266 -85 315 -55 31 -155 62 -243 75
-70 10 -81 15 -122 53 l-46 42 -206 6 c-193 6 -211 5 -260 -14 -90 -34 -189
-108 -216 -162 -33 -63 -25 -110 38 -218 55 -93 60 -109 30 -109 -39 0 -117
49 -183 115 -66 67 -67 68 -114 63 -65 -6 -167 -54 -203 -94 -16 -19 -34 -52
-40 -74 -6 -22 -13 -40 -16 -40 -4 0 -29 21 -57 46 -127 114 -257 134 -382 59
-67 -41 -93 -43 -190 -15 -117 33 -142 29 -214 -35 -71 -63 -73 -63 -139 9
-39 43 -42 49 -42 103 0 32 9 117 20 188 27 176 26 233 -3 276 -34 51 -85 72
-181 73 -106 1 -136 -12 -170 -75 l-27 -49 -43 34 c-97 80 -194 75 -248 -11
-18 -31 -23 -52 -23 -109 0 -69 3 -77 77 -227 43 -85 78 -165 78 -178 -1 -36
-17 -52 -110 -107 -116 -68 -180 -122 -236 -195 -67 -89 -107 -177 -108 -241
-1 -89 62 -170 147 -190 44 -10 96 9 201 75 119 75 155 83 196 44 16 -16 35
-43 41 -62 15 -47 -13 -97 -82 -146 -60 -42 -68 -43 -174 -11 -43 13 -95 18
-181 18 -121 1 -121 1 -196 -37 -94 -48 -170 -114 -198 -173 -20 -41 -22 -57
-18 -152 4 -83 9 -116 26 -148 21 -42 74 -94 95 -94 6 0 60 12 120 26 106 26
111 26 124 8 26 -35 15 -66 -47 -138 -68 -79 -82 -116 -69 -177 17 -76 34 -95
120 -138 92 -46 118 -49 184 -21 61 26 89 25 171 -7 58 -22 85 -27 174 -27 98
-1 115 2 223 38 64 22 119 37 122 35 3 -3 10 -31 16 -63 11 -62 9 -68 -72
-220 -27 -49 -32 -73 -37 -147 l-5 -89 39 -38 c74 -74 222 -107 347 -78 66 16
122 40 286 126 105 55 171 64 226 30 40 -25 69 -72 60 -100 -12 -37 -86 -61
-218 -70 -98 -7 -140 -15 -207 -40 -48 -18 -136 -39 -205 -49 -67 -10 -142
-27 -166 -38 -76 -34 -178 -163 -179 -226 0 -35 32 -87 73 -117 75 -55 127
-68 328 -79 149 -8 201 -15 274 -36 l89 -26 66 27 c79 33 261 124 312 156 20
13 95 79 165 148 118 115 320 280 343 280 14 0 12 -47 -1 -73 -7 -12 -42 -53
-79 -92 -75 -79 -92 -115 -142 -305 -32 -126 -41 -228 -20 -252 7 -9 40 -26
73 -38 34 -13 98 -46 142 -73 115 -70 155 -87 210 -87 59 0 123 29 186 86 82
74 96 129 64 254 -20 81 -14 109 34 152 105 93 135 131 185 233 46 97 53 105
86 115 21 5 44 10 52 10 33 1 99 41 179 108 133 112 180 125 263 73 56 -36 82
-72 73 -101 -16 -50 -191 -102 -391 -116 l-104 -7 -40 -43 c-53 -58 -100 -133
-100 -159 0 -12 -24 -62 -54 -112 -89 -147 -92 -204 -16 -281 66 -66 120 -87
225 -87 110 0 192 24 350 100 151 73 255 145 354 243 l83 83 48 -31 c27 -17
65 -36 84 -41 104 -29 235 78 284 230 25 75 76 154 119 182 41 28 99 25 118
-5 14 -21 15 -34 5 -88 -22 -129 -46 -190 -92 -234 -82 -79 -353 -224 -456
-244 -116 -23 -134 -31 -188 -82 -55 -52 -114 -152 -114 -194 0 -35 16 -70 60
-128 30 -40 43 -68 50 -110 11 -71 35 -120 78 -164 38 -38 124 -82 160 -82 34
0 84 24 124 59 20 17 40 31 46 31 31 0 19 -147 -23 -292 -47 -159 -33 -199
133 -370 144 -149 166 -163 235 -154 157 21 254 129 292 326 9 47 21 109 26
138 18 89 72 183 148 254 112 106 194 131 288 88 84 -38 81 -75 -19 -213 -69
-95 -105 -161 -116 -214 -6 -31 -17 -44 -56 -70 -93 -61 -159 -141 -224 -269
-39 -77 -47 -137 -33 -239 20 -141 59 -188 158 -188 112 0 200 65 243 179 12
32 26 64 32 71 14 17 83 17 96 0 19 -23 -4 -79 -62 -149 -78 -94 -96 -132 -96
-199 0 -88 29 -133 127 -194 44 -27 104 -71 133 -98 56 -50 85 -63 124 -53 59
15 146 126 177 227 10 32 23 118 29 191 12 143 29 237 56 308 25 70 30 221 9
300 -48 181 -49 189 -49 435 -1 196 2 256 17 324 22 103 50 161 77 161 18 0
20 -7 19 -89 -1 -93 11 -132 54 -179 23 -25 39 -27 101 -10 55 14 65 7 89 -60
40 -110 114 -158 200 -129 101 34 234 151 298 261 45 78 57 135 74 341 18 233
29 296 63 360 34 63 223 256 279 284 76 38 84 21 23 -52 -49 -61 -60 -98 -60
-214 0 -81 3 -96 21 -114 17 -17 29 -20 60 -16 50 7 150 54 229 107 34 23 68
39 76 36 23 -9 16 -43 -17 -80 -41 -47 -78 -69 -183 -107 -66 -24 -99 -42
-129 -72 -49 -49 -87 -130 -94 -201 -9 -89 1 -117 71 -195 63 -70 66 -76 94
-196 5 -18 22 -39 42 -53 70 -47 159 -5 213 100 24 45 31 79 42 181 18 173 46
231 183 378 140 150 173 216 212 427 37 200 103 356 214 506 77 104 185 216
223 232 42 18 43 18 43 -8 0 -23 -43 -105 -153 -292 -96 -164 -168 -318 -217
-466 -57 -171 -114 -287 -199 -405 -76 -105 -113 -170 -125 -219 -4 -16 -11
-106 -16 -200 -7 -151 -12 -182 -39 -264 -58 -172 -38 -283 59 -340 39 -24 56
-27 132 -27 80 0 89 2 129 30 25 18 58 57 83 98 l40 69 51 -8 c107 -16 150 -1
190 67 17 29 20 52 20 151 0 66 4 119 10 120 5 2 25 -23 44 -55 19 -32 45 -66
58 -74 73 -48 212 75 213 187 0 39 -25 95 -94 215 -109 189 -138 417 -90 705
19 109 33 160 43 160 16 0 81 -222 88 -294 4 -56 1 -87 -16 -148 -12 -42 -24
-121 -28 -175 l-5 -98 61 -90 c89 -131 162 -226 192 -248 54 -39 218 -35 267
8 24 21 27 30 26 87 0 50 -7 80 -36 143 -52 116 -61 205 -23 205 8 0 49 -32
92 -70 42 -39 88 -73 101 -77 14 -3 39 1 59 11 52 25 142 114 169 168 26 52
48 69 109 88 88 28 111 66 95 152 -6 28 -10 52 -10 55 0 2 33 -14 73 -36 39
-21 86 -42 104 -46 46 -9 109 22 165 82 40 43 47 58 53 107 9 66 -2 178 -20
222 -7 17 -35 48 -61 69 -89 71 -106 110 -60 140 41 27 170 45 317 44 193 -1
229 19 270 152 15 48 17 69 9 112 -16 80 -39 146 -77 215 -19 35 -32 70 -29
78 3 8 27 24 53 36 27 11 56 28 67 37 20 18 20 18 69 -59 17 -26 40 -42 98
-66 42 -17 102 -50 134 -72 66 -48 93 -51 149 -19 64 36 81 68 80 145 -2 87
-32 170 -86 238 -24 30 -58 72 -76 95 -42 53 -50 84 -27 109 24 27 77 26 133
-2 51 -24 176 -138 198 -179 19 -38 18 -96 -6 -181 -40 -146 -22 -261 50 -322
40 -33 131 -60 176 -52 78 15 119 97 103 206 -11 81 -11 112 3 108 6 -2 17
-24 23 -49 7 -24 25 -72 39 -107 31 -72 29 -89 -21 -147 -67 -79 -66 -158 2
-234 48 -53 160 -103 244 -108 60 -4 70 -2 113 26 70 45 108 116 108 203 0 37
4 69 10 73 18 11 50 -20 81 -78 34 -63 58 -79 103 -66 46 13 72 45 106 130 18
43 36 79 40 79 15 0 19 -61 13 -188 -6 -140 1 -180 44 -244 45 -67 155 -120
217 -104 46 11 83 56 91 109 13 88 37 67 75 -66 29 -103 41 -115 139 -140 75
-19 97 -12 137 44 49 67 104 91 222 99 107 7 118 14 131 83 18 101 -33 221
-138 325 l-64 62 41 39 42 38 0 74 c0 97 -29 159 -116 249 -37 38 -61 71 -55
74 15 10 246 -30 315 -54 80 -27 129 -57 233 -142 102 -82 151 -107 211 -108
36 0 50 6 76 32 37 37 72 121 82 197 6 45 3 55 -24 98 -17 26 -52 93 -77 148
-26 55 -56 111 -68 124 -24 26 -132 81 -159 81 -10 0 -18 2 -18 5 0 3 20 30
45 61 25 30 52 70 60 89 17 42 50 47 83 12 27 -29 68 -119 82 -182 6 -27 16
-69 21 -93 13 -59 44 -98 103 -127 71 -35 138 -34 175 3 23 23 29 39 35 100 4
39 11 72 16 72 5 0 40 -12 77 -26 129 -50 241 -33 286 44 26 44 17 85 -33 159
-22 32 -40 64 -40 71 0 16 31 28 100 37 69 9 108 29 120 61 15 39 12 132 -6
170 -32 67 -124 130 -267 180 -82 30 -97 41 -111 86 -7 21 -31 48 -69 76 -62
47 -80 72 -71 96 9 22 36 20 81 -7 55 -32 138 -29 221 8 35 15 72 39 83 53 43
55 10 143 -78 203 -91 63 -187 78 -342 55 -186 -28 -230 -21 -310 51 -36 32
-44 45 -43 72 0 19 5 38 11 44 6 6 82 14 168 18 266 13 392 64 417 170 8 35
-16 113 -53 171 -46 72 -98 97 -238 114 -122 14 -219 36 -235 52 -15 15 9 51
40 59 15 3 74 1 132 -5 194 -22 266 -13 315 38 35 37 47 94 35 161 -14 72 -39
111 -77 121 -47 12 -63 56 -63 171 0 89 -2 98 -27 128 -36 43 -79 59 -157 59
-71 0 -96 6 -96 24 0 6 25 40 56 76 80 93 119 177 119 260 -1 71 -15 107 -61
154 -46 45 -83 60 -149 60 -50 0 -72 -7 -123 -34 l-62 -34 -57 28 c-39 19 -79
30 -124 34 -124 9 -161 -35 -185 -226 -26 -199 -42 -238 -131 -323 -112 -107
-160 -112 -150 -14 3 27 24 97 48 155 52 128 60 198 31 256 -24 46 -109 130
-149 145 -64 24 -172 -20 -265 -109 l-58 -55 -93 -7 c-58 -5 -110 -15 -138
-27 -88 -40 -168 -144 -169 -221 0 -75 54 -142 133 -163 119 -32 152 -45 155
-61 5 -26 -35 -23 -157 12 -106 31 -197 38 -232 20 -10 -6 -53 -50 -95 -98
-92 -105 -116 -122 -174 -122 -50 0 -107 -23 -174 -69 -52 -36 -82 -38 -161
-11 -91 31 -124 27 -186 -22 -92 -76 -99 -80 -138 -85 -43 -6 -80 10 -154 66
-120 89 -126 194 -21 311 51 56 91 78 196 106 107 29 135 45 203 114 28 28 66
65 87 81 l36 29 94 -15 c214 -35 267 -20 395 113 l93 95 112 -7 c62 -4 127
-10 145 -13 28 -4 39 1 88 48 31 30 61 62 67 72 5 11 16 60 23 110 10 61 21
99 35 117 11 14 30 45 41 70 12 25 26 56 33 70 17 36 36 35 89 -5 80 -61 131
-59 202 6 74 68 70 122 -16 228 -100 122 -108 145 -63 180 58 45 94 20 144
-101 48 -117 96 -148 230 -148 98 0 130 13 189 75 57 61 99 144 108 214 5 42
2 51 -35 100 l-41 54 34 61 c69 124 66 207 -9 282 -58 58 -140 87 -231 82 -56
-3 -88 -12 -161 -46 -59 -27 -121 -47 -178 -57 -99 -17 -134 -30 -216 -80 -32
-19 -62 -35 -66 -35 -5 0 -25 28 -45 63 l-37 62 34 38 c65 71 67 123 9 181
-46 47 -53 64 -53 130 1 69 -18 99 -83 136 -41 23 -53 25 -164 24 -143 -1
-259 -28 -315 -73 -19 -15 -52 -59 -73 -97 -48 -88 -61 -101 -81 -85 -15 13
-60 165 -53 184 2 6 27 21 57 32 95 36 112 88 50 159 -80 90 -329 124 -486 65
-31 -12 -97 -53 -147 -91 -51 -38 -113 -81 -139 -94 -100 -51 -228 -39 -405
36 -133 57 -193 68 -448 80 -381 17 -402 19 -505 40 -180 37 -270 83 -270 139
0 41 38 91 103 135 47 33 68 40 116 44 69 5 100 -4 241 -68 149 -68 186 -74
354 -65 244 14 246 14 406 -41 l145 -49 225 0 225 0 138 48 138 48 157 -21
c218 -30 289 -44 470 -96 192 -56 246 -59 326 -20 83 41 90 56 83 179 -6 123
-30 202 -70 231 -24 17 -42 21 -110 20 -72 -1 -94 -6 -187 -44 l-105 -42 -262
-9 c-143 -4 -299 -13 -345 -19 -162 -22 -219 -23 -283 -3 -37 12 -61 25 -63
35 -4 23 133 136 181 149 25 7 102 8 218 3 211 -8 244 -1 308 72 21 24 42 44
45 44 4 0 30 -18 59 -40 58 -43 114 -70 148 -70 11 0 52 14 90 30 61 27 79 31
149 28 76 -3 80 -2 110 27 39 37 52 60 60 105 3 20 12 36 21 38 8 1 72 -35
140 -82 213 -143 267 -162 354 -128 28 11 77 25 110 32 33 6 70 18 83 26 30
19 45 60 37 101 -8 45 -95 136 -174 183 -66 38 -139 105 -160 147 -6 12 -11
33 -11 47 0 26 1 26 74 26 127 0 166 29 166 125 0 92 -49 151 -183 221 -87 44
-117 70 -117 100 0 31 15 40 110 62 115 28 171 53 225 103 82 76 112 148 94
229 -14 64 -118 340 -141 372 -44 63 -160 58 -263 -12 -16 -11 -33 -20 -36
-20 -3 0 -9 41 -12 90 -7 90 -24 149 -54 182 -25 28 -97 46 -276 69 -139 18
-176 20 -208 10 -80 -24 -149 -112 -149 -191 0 -45 23 -157 47 -234 l16 -50
-29 -22 c-83 -66 -99 -82 -115 -120 -10 -23 -25 -89 -34 -147 -8 -58 -21 -122
-29 -140 -16 -39 -64 -78 -116 -96 -40 -14 -265 -27 -303 -17 -23 5 -25 9 -16
34 18 53 66 97 159 147 152 82 212 149 270 298 82 211 134 567 100 689 -20 72
-92 88 -188 43 -30 -14 -66 -25 -81 -25 -15 0 -47 -13 -72 -28 -40 -26 -64
-53 -153 -175 -34 -46 -81 -77 -117 -77 -15 0 -55 11 -90 24 -111 42 -178 51
-241 32 -97 -28 -178 -119 -178 -199 0 -55 -63 -117 -120 -117 -52 0 -4 89
130 241 88 100 102 128 108 217 6 94 -13 145 -77 205 -75 70 -123 92 -206 91
-58 0 -82 -6 -138 -33 -121 -58 -291 -253 -330 -379 -10 -30 -17 -107 -20
-217 -7 -239 -21 -273 -195 -475 -109 -126 -149 -197 -196 -351 -49 -162 -62
-267 -48 -372 26 -182 12 -216 -107 -261 -71 -28 -93 -47 -155 -134 -45 -62
-88 -89 -234 -146 -59 -23 -136 -59 -172 -81 -39 -23 -79 -38 -100 -39 -34 -1
-35 0 -38 42 -2 28 10 86 35 170 32 108 38 141 38 222 0 87 -3 101 -32 160
-18 36 -48 90 -68 122 l-37 56 11 70 c6 39 11 167 11 284 1 153 5 224 14 251
8 21 48 89 89 150 92 137 128 223 172 419 51 223 82 279 202 369 91 68 106
106 137 338 18 131 30 154 70 128 13 -9 43 -51 67 -94 79 -145 118 -176 183
-149 99 41 172 210 182 421 6 103 4 113 -18 155 -29 54 -81 91 -203 145 -50
21 -91 40 -93 41 -2 1 4 62 13 135 29 228 12 352 -56 402 -37 27 -104 30 -163
9z m-1260 -2083 c46 -28 90 -122 109 -233 22 -132 21 -152 -18 -191 -92 -92
-271 -27 -347 128 -33 67 -54 165 -44 210 7 35 35 53 126 83 91 29 131 30 174
3z m4449 -76 c-25 -60 -61 -116 -95 -148 l-31 -30 10 27 c23 61 55 115 89 151
20 20 37 37 39 37 2 0 -4 -17 -12 -37z m-7312 -180 c23 -59 29 -126 16 -177
-12 -48 -47 -86 -80 -86 -9 0 -64 -16 -120 -35 -117 -40 -158 -44 -160 -17 -5
87 27 158 100 224 46 42 191 127 217 128 7 0 18 -17 27 -37z m5627 -161 c0
-28 -35 -121 -53 -140 -32 -35 -59 -46 -190 -81 -64 -17 -152 -45 -194 -62
-41 -16 -78 -27 -81 -25 -2 3 1 26 8 52 27 95 135 205 232 235 18 6 83 14 143
18 61 5 116 9 123 9 6 1 12 -2 12 -6z m-6698 -404 c74 -40 119 -100 126 -170
4 -39 1 -49 -13 -54 -44 -17 -129 68 -180 179 -40 86 -26 95 67 45z m-2660
-178 c1 -37 -3 -47 -31 -72 -53 -47 -60 -21 -16 57 20 37 39 65 41 62 2 -2 5
-23 6 -47z m1124 -21 c21 -17 23 -62 8 -179 -9 -70 -12 -144 -9 -187 7 -75 1
-87 -28 -55 -23 26 -34 84 -42 217 -3 66 -10 140 -15 165 -6 31 -5 47 3 52 14
9 66 0 83 -13z m9652 -161 c37 -11 55 -37 42 -59 -14 -21 -211 -19 -262 4 -44
19 -53 53 -15 62 61 13 179 10 235 -7z m-1504 -186 c-176 -170 -387 -304 -480
-306 -37 -1 -49 4 -65 23 -43 53 -12 132 95 236 126 122 183 141 446 143 l105
1 -101 -97z m837 59 c24 -20 24 -20 4 -35 -35 -27 -127 -58 -138 -47 -16 16 8
58 45 81 41 25 60 25 89 1z m-7387 -172 c50 -25 93 -69 166 -169 81 -113 148
-151 365 -210 159 -43 215 -70 269 -130 55 -62 73 -124 55 -193 -14 -57 -65
-127 -114 -157 -56 -35 -76 -20 -134 103 -42 86 -64 118 -143 203 -51 55 -108
122 -126 149 -46 68 -105 110 -220 158 -114 47 -169 83 -210 140 -33 48 -57
111 -46 128 10 17 84 5 138 -22z m-1214 -430 c25 -5 100 -37 168 -71 l123 -61
185 -5 186 -5 -6 -46 c-3 -25 -8 -75 -11 -111 -3 -36 -10 -72 -14 -79 -16 -25
-94 -13 -237 37 -203 72 -231 77 -297 58 -29 -8 -105 -41 -168 -73 l-114 -58
-115 0 -115 0 -3 65 c-2 36 -1 116 3 177 l7 113 71 21 c147 44 257 56 337 38z
m1240 -260 c77 -46 150 -139 150 -191 0 -63 -54 -118 -116 -118 -38 0 -89 55
-107 118 -19 61 -32 185 -23 201 11 18 58 13 96 -10z m-479 -463 c20 -8 64
-31 97 -51 133 -78 327 -134 417 -120 49 7 107 42 188 114 84 74 109 85 146
67 41 -22 81 -73 81 -104 0 -15 -9 -65 -21 -112 -57 -231 -55 -300 8 -430 46
-95 147 -197 260 -263 80 -47 133 -95 133 -122 0 -18 -56 -63 -128 -102 l-59
-33 -104 81 c-179 139 -282 177 -447 166 -168 -12 -232 -48 -303 -168 -50 -83
-76 -106 -135 -115 -69 -10 -110 2 -155 47 -46 46 -47 60 -23 220 21 138 14
254 -20 323 -14 28 -70 99 -125 159 -99 106 -100 108 -117 184 -9 42 -17 103
-18 135 -1 50 3 61 25 84 42 41 122 66 199 60 36 -3 81 -12 101 -20z m5417
-72 c49 -20 91 -62 163 -160 97 -135 145 -168 262 -184 100 -14 181 0 296 51
130 57 145 47 116 -81 -10 -45 -15 -94 -12 -115 9 -54 54 -146 90 -183 84 -88
156 -87 319 4 26 14 62 27 80 28 l33 1 3 -64 c5 -98 -13 -183 -57 -280 -23
-48 -41 -95 -41 -104 0 -57 64 -102 167 -117 148 -21 177 -72 115 -203 -35
-76 -82 -132 -131 -156 -20 -10 -75 -30 -122 -45 -154 -49 -221 -122 -280
-306 -40 -125 -68 -187 -86 -194 -8 -3 -43 -2 -76 3 -34 6 -114 13 -177 17
l-115 7 -60 55 c-86 80 -169 139 -258 184 -68 34 -81 44 -97 81 -10 23 -22 69
-25 102 -13 107 -52 161 -206 286 -162 131 -229 224 -200 277 6 12 55 55 109
96 105 81 139 119 178 195 78 157 49 339 -94 577 -40 66 -72 128 -72 139 0 17
43 82 64 97 18 13 75 9 114 -8z m-7033 -309 c121 -102 194 -126 487 -155 240
-24 277 -33 318 -73 49 -48 60 -97 21 -97 -9 0 -52 -16 -96 -35 -44 -19 -84
-35 -89 -35 -4 0 -42 17 -84 37 -62 31 -86 38 -138 38 -53 0 -66 -4 -89 -25
-23 -22 -26 -31 -22 -68 4 -40 19 -66 105 -187 13 -18 20 -39 16 -48 -10 -28
-77 -40 -154 -28 -157 25 -305 90 -356 157 l-28 36 12 171 c7 95 12 209 12
254 0 75 6 113 16 113 3 0 34 -25 69 -55z m8660 6 c22 -10 69 -49 105 -86 75
-78 143 -115 211 -115 37 0 70 12 160 57 114 58 114 58 204 58 131 0 188 -33
296 -170 82 -103 135 -129 256 -122 48 2 98 8 111 12 43 14 24 -27 -41 -91
-45 -44 -80 -67 -122 -83 -86 -32 -183 -57 -191 -48 -4 4 3 26 15 48 46 81 24
180 -47 222 -37 22 -108 26 -220 13 -71 -9 -74 -8 -150 27 -77 37 -109 43
-322 66 -130 14 -184 32 -276 92 -77 50 -154 115 -154 131 0 16 125 8 165 -11z
m872 -666 c64 -19 85 -54 55 -94 -13 -18 -30 -27 -56 -29 -31 -3 -42 2 -71 31
-40 40 -44 69 -13 91 27 19 23 19 85 1z m-265 -42 c25 -29 30 -76 18 -179 -13
-104 -31 -167 -58 -197 -22 -25 -70 -46 -93 -40 -23 6 -38 74 -46 203 l-6 95
35 45 c37 49 91 90 118 90 9 0 24 -8 32 -17z m-8633 -298 c15 -15 14 -18 -7
-35 -13 -10 -43 -22 -68 -26 -79 -11 -124 33 -71 71 28 21 122 14 146 -10z
m-748 -85 c10 -6 37 -47 60 -91 72 -145 149 -197 328 -220 l89 -12 6 -61 c4
-34 14 -90 22 -125 8 -35 13 -65 11 -67 -1 -2 -20 2 -42 7 -66 16 -348 24
-374 10 -12 -7 -42 -44 -67 -82 -53 -84 -77 -89 -109 -24 -16 32 -20 60 -20
140 0 88 3 108 29 165 82 187 83 216 11 305 -25 30 -45 57 -45 60 0 9 81 5
101 -5z m1506 -40 c152 -50 213 -87 213 -130 0 -60 -96 -130 -177 -130 -59 0
-132 55 -196 149 -19 28 -12 48 36 99 36 38 44 38 124 12z m-524 -225 c4 -39
15 -95 24 -125 8 -30 16 -71 17 -90 1 -34 0 -35 -39 -38 -79 -5 -157 65 -170
153 -10 63 15 109 79 146 72 41 79 37 89 -46z m4707 -309 c178 -8 493 -72 675
-136 276 -98 427 -223 539 -448 44 -88 67 -172 59 -215 -12 -62 -29 -87 -194
-282 -100 -118 -109 -171 -59 -328 17 -52 30 -110 30 -129 0 -39 -56 -138
-189 -336 -106 -159 -134 -188 -250 -269 -114 -80 -200 -159 -240 -222 -16
-25 -43 -86 -61 -136 -52 -149 -91 -200 -180 -236 -53 -21 -179 -15 -285 14
-283 77 -413 108 -492 117 -161 20 -278 -6 -568 -126 -169 -70 -237 -78 -406
-48 -205 36 -373 21 -534 -50 -106 -47 -134 -81 -135 -163 0 -42 8 -67 40
-128 22 -42 40 -88 40 -103 0 -15 -14 -49 -30 -77 -23 -38 -30 -62 -30 -102 0
-60 6 -65 104 -92 l61 -16 17 -55 c25 -78 63 -110 131 -110 66 0 243 40 325
73 156 64 273 166 361 316 104 178 160 216 366 251 225 39 435 36 492 -5 25
-19 15 -25 -75 -46 -148 -34 -260 -98 -422 -238 -103 -90 -133 -108 -243 -147
-208 -75 -317 -157 -479 -361 -90 -113 -160 -175 -226 -199 -49 -18 -155 -17
-240 1 -98 20 -194 29 -237 21 -24 -5 -54 -23 -87 -54 -85 -79 -97 -128 -53
-217 29 -59 30 -71 10 -79 -53 -20 -104 149 -125 419 -15 183 -3 294 65 610
72 339 100 436 197 695 127 340 154 474 145 720 -5 138 -7 152 -53 295 -62
197 -64 257 -14 365 76 164 193 355 272 444 55 63 95 88 250 152 72 29 175 81
231 115 56 35 154 94 217 133 237 144 658 344 818 387 71 20 249 38 322 32 19
-1 82 -5 140 -7z m4542 -510 c122 -32 264 -84 278 -102 25 -29 -172 -264 -234
-280 -86 -21 -281 88 -331 187 -23 43 -13 86 31 137 47 55 65 65 155 81 4 0
49 -10 101 -23z m-2249 -272 c17 -9 56 -40 87 -69 121 -115 209 -161 366 -191
96 -17 170 -47 183 -73 5 -9 11 -37 15 -62 8 -54 57 -140 124 -217 72 -82 82
-101 82 -158 0 -168 67 -306 259 -534 124 -147 173 -213 204 -275 32 -66 72
-192 91 -292 18 -95 39 -293 32 -300 -3 -3 -29 16 -58 42 -62 56 -119 84 -169
85 -57 0 -96 35 -153 135 -99 176 -116 188 -286 210 -62 8 -124 22 -137 30
-28 19 -46 53 -68 130 -42 147 -136 262 -272 333 -43 22 -139 59 -213 82 -317
99 -475 215 -567 417 -21 45 -27 77 -31 154 -5 109 6 189 44 304 30 93 46 115
86 115 28 0 128 45 178 80 49 35 123 70 147 70 13 0 38 -7 56 -16z m1736 -249
c37 -19 78 -71 127 -163 63 -118 72 -124 212 -133 65 -5 149 -15 188 -23 76
-16 88 -15 226 29 l86 27 83 -21 c89 -23 137 -47 122 -62 -5 -5 -52 -13 -104
-18 -140 -11 -168 -28 -244 -144 -52 -79 -76 -92 -141 -72 -113 34 -160 11
-229 -115 -41 -76 -93 -130 -124 -130 -34 0 -67 38 -122 141 -109 209 -249
312 -489 364 -180 39 -242 61 -278 98 -42 43 -51 88 -23 116 28 28 55 27 151
-9 130 -48 171 -41 330 55 52 31 104 61 115 66 32 13 84 10 114 -6z m-8154
-177 c34 -72 32 -97 -9 -137 -51 -50 -70 -40 -74 37 -3 64 24 152 48 152 6 0
22 -24 35 -52z m-1101 -450 c17 -24 21 -65 8 -86 -17 -26 -66 61 -55 96 7 19
30 14 47 -10z m10768 -95 c33 -36 45 -59 62 -128 17 -65 13 -85 -19 -85 -30 0
-167 92 -184 123 -19 36 -10 69 28 94 46 31 81 29 113 -4z m-8310 -170 c27
-24 22 -64 -21 -166 -62 -145 -89 -281 -106 -517 -8 -120 -20 -166 -48 -184
-12 -7 -55 -16 -95 -19 -93 -8 -137 -29 -237 -117 -44 -39 -107 -84 -141 -101
-66 -33 -185 -58 -276 -59 -85 0 -205 -19 -264 -41 -34 -13 -74 -40 -112 -77
-33 -31 -84 -78 -115 -104 -55 -48 -119 -152 -147 -243 -34 -108 -104 -205
-149 -205 -21 0 -97 48 -169 106 -29 24 -89 65 -133 91 -48 29 -79 54 -79 64
0 24 168 180 258 239 87 59 185 92 452 151 102 22 237 57 300 76 223 67 464
204 576 327 70 77 152 242 224 451 55 159 81 213 133 272 60 68 113 88 149 56z
m-3980 -83 c32 0 46 -21 54 -84 12 -87 -29 -96 -136 -31 -88 53 -120 95 -120
154 l0 48 87 -43 c48 -24 100 -44 115 -44z m-505 51 c47 -34 65 -73 61 -132
-4 -55 -27 -63 -70 -22 -40 38 -56 70 -64 131 -6 47 -5 52 13 52 11 0 38 -13
60 -29z m970 -52 c107 -53 183 -112 183 -144 0 -16 -7 -17 -54 -12 -87 9 -149
51 -224 151 -21 28 -29 56 -15 56 3 0 53 -23 110 -51z m7792 -58 c49 -49 149
-321 157 -429 6 -77 -9 -110 -70 -157 -32 -25 -48 -29 -144 -35 -116 -8 -156
-19 -166 -45 -3 -9 -6 -62 -6 -118 l0 -102 -81 -38 c-74 -35 -82 -42 -101 -84
-26 -59 -21 -155 11 -207 45 -73 157 -96 268 -55 45 17 74 39 141 107 l85 85
15 -28 c21 -40 28 -147 12 -185 -7 -17 -39 -51 -72 -76 -80 -62 -92 -84 -98
-173 l-5 -74 -50 -16 c-27 -9 -81 -38 -119 -64 -37 -26 -74 -47 -82 -47 -31 0
-37 40 -19 126 32 151 11 198 -169 383 -140 144 -146 153 -146 216 1 76 27
121 121 206 147 134 189 240 189 473 0 72 5 149 11 171 14 53 109 146 170 168
63 22 125 21 148 -2z m3281 -47 c176 -30 229 -47 298 -98 109 -80 149 -192
103 -291 -17 -39 -72 -95 -92 -95 -5 0 -22 21 -37 46 -15 26 -43 73 -62 105
-42 71 -80 99 -137 99 -61 0 -79 -27 -86 -132 -6 -92 -23 -118 -77 -118 -40 0
-80 -17 -111 -46 l-26 -25 -17 34 c-24 52 -20 74 25 125 62 71 74 98 73 172
-1 54 -8 80 -42 155 -22 49 -38 93 -36 97 3 5 20 6 37 3 18 -2 102 -17 187
-31z m-10250 -19 c185 -19 215 -30 308 -119 63 -61 67 -82 15 -92 -61 -12
-275 12 -330 36 -84 37 -121 68 -140 119 -9 25 -23 50 -30 54 -24 15 -14 30
15 23 15 -4 88 -13 162 -21z m9611 -310 c104 -195 289 -459 378 -539 30 -27
27 -46 -9 -46 -45 0 -131 -21 -172 -41 -50 -25 -71 -24 -107 6 -34 30 -60 91
-97 237 -14 57 -48 181 -75 277 -37 130 -49 190 -49 240 0 112 -1 114 131
-134z m-7830 104 c49 -11 91 -24 94 -29 8 -14 -114 -61 -213 -82 -137 -29
-377 -31 -480 -4 -39 11 -69 23 -65 27 17 16 143 63 228 85 123 32 309 33 436
3z m5861 -341 c88 -60 87 -69 -14 -159 -180 -160 -189 -161 -170 -22 14 107
26 148 52 191 27 44 54 42 132 -10z m-8338 -94 c33 -9 120 -47 192 -85 202
-106 302 -134 545 -148 178 -11 186 -25 30 -56 -47 -9 -147 -36 -221 -60 -177
-56 -268 -71 -351 -56 -76 13 -95 26 -267 183 -138 126 -210 204 -199 215 25
24 188 28 271 7z m-1549 -283 c6 -11 -32 -41 -52 -41 -14 0 -18 32 -6 43 10
10 51 8 58 -2z m659 -165 c53 -16 84 -40 97 -74 11 -29 -8 -122 -27 -129 -8
-3 -37 5 -65 17 -29 12 -92 26 -143 32 -50 5 -111 12 -136 15 l-45 5 56 52
c98 92 163 112 263 82z m3981 -156 c39 -15 133 -107 177 -174 32 -50 38 -67
38 -114 0 -150 -116 -400 -236 -511 -72 -65 -180 -132 -169 -104 13 35 21 167
13 226 -11 84 -59 168 -132 231 -96 83 -124 114 -131 146 -18 83 35 184 125
234 105 59 253 90 315 66z m2963 -32 c6 -6 12 -22 12 -37 -1 -55 -41 -116
-144 -217 -89 -87 -116 -108 -200 -149 -111 -54 -142 -86 -216 -225 -55 -102
-130 -182 -203 -216 -75 -34 -204 -61 -219 -46 -12 12 1 31 137 193 44 53 118
150 164 215 214 302 244 334 391 420 127 74 234 98 278 62z m-6172 -53 c27 -8
65 -25 84 -37 l35 -22 -45 -14 c-50 -17 -376 -20 -440 -4 l-35 8 45 24 c118
61 248 77 356 45z m6674 -243 c0 -120 -41 -225 -110 -287 l-23 -20 8 50 c16
112 92 325 116 325 5 0 9 -31 9 -68z m908 -559 c24 -33 52 -125 52 -167 l0
-29 -25 23 c-34 32 -75 117 -75 155 0 53 18 59 48 18z m-3111 -139 c9 -24 -17
-64 -90 -137 -92 -91 -193 -160 -288 -197 -136 -52 -150 -39 -61 62 98 114
241 235 313 267 55 25 117 27 126 5z m-1468 -269 c31 -30 -14 -58 -63 -39 -16
6 -22 45 -9 58 10 10 55 -2 72 -19z m896 -135 c-3 -5 -10 -10 -16 -10 -5 0 -9
5 -9 10 0 6 7 10 16 10 8 0 12 -4 9 -10z m-816 -26 c64 -25 63 -54 -4 -113
-53 -46 -90 -62 -328 -141 -265 -87 -353 -129 -429 -206 -54 -55 -56 -56 -68
-35 -17 32 2 79 55 134 55 57 93 77 227 116 198 58 257 92 312 180 19 32 45
63 58 69 34 16 132 14 177 -4z"/>
</g>
</svg>
