<?xml version="1.0" standalone="no"?>
<!DOCTYPE svg PUBLIC "-//W3C//DTD SVG 20010904//EN"
 "http://www.w3.org/TR/2001/REC-SVG-20010904/DTD/svg10.dtd">
<svg version="1.0" xmlns="http://www.w3.org/2000/svg"
 width="1454.000000pt" height="1536.000000pt" viewBox="0 0 1454.000000 1536.000000"
 preserveAspectRatio="xMidYMid meet">
<metadata>
Created by potrace 1.16, written by Peter Selinger 2001-2019
</metadata>
<g transform="translate(0.000000,1536.000000) scale(0.100000,-0.100000)"
fill="#000000" stroke="none">
<path d="M2688 15338 c-25 -13 -69 -22 -131 -26 -88 -7 -96 -9 -167 -55 -41
-26 -93 -61 -115 -77 -22 -17 -73 -39 -115 -50 -93 -26 -238 -96 -307 -149
-43 -33 -65 -42 -140 -56 -48 -9 -122 -27 -163 -40 -150 -48 -307 -94 -394
-116 -50 -12 -113 -37 -144 -55 -72 -44 -183 -89 -281 -116 -66 -17 -95 -32
-163 -83 -218 -164 -415 -413 -532 -669 -35 -76 -36 -82 -36 -197 0 -117 1
-119 59 -296 264 -805 660 -1470 1196 -2009 356 -358 884 -781 1240 -993 552
-330 994 -818 1279 -1411 168 -352 296 -765 296 -960 0 -35 12 -103 29 -162
15 -57 36 -143 45 -193 10 -49 22 -98 28 -109 5 -10 11 -53 13 -96 2 -43 8
-95 13 -116 37 -144 46 -261 31 -404 -12 -121 -43 -280 -75 -395 -28 -97 -109
-298 -128 -318 -7 -7 -30 -51 -51 -97 -21 -47 -73 -155 -116 -241 -99 -199
-166 -421 -218 -732 -19 -111 -44 -200 -71 -258 -9 -21 -17 -25 -41 -21 -40 6
-184 -16 -233 -36 -23 -8 -58 -26 -78 -39 l-37 -22 35 -66 c40 -78 45 -138 15
-177 -11 -13 -45 -37 -76 -53 -54 -27 -60 -28 -99 -15 -22 7 -86 14 -141 16
-101 2 -282 42 -562 123 -121 35 -223 99 -383 244 l-52 47 21 85 c26 103 26
102 2 110 -11 3 -37 17 -57 32 -37 24 -43 25 -149 20 -160 -7 -308 -52 -427
-129 -47 -30 -48 -31 -42 -72 17 -105 74 -163 185 -187 37 -8 59 -20 80 -43
19 -22 100 -68 251 -143 221 -111 432 -234 539 -317 38 -30 85 -53 152 -75 67
-23 98 -38 102 -51 3 -10 24 -36 46 -58 l39 -40 -52 -47 c-127 -112 -313 -214
-498 -273 -175 -56 -217 -62 -418 -62 l-188 0 -69 -34 c-90 -43 -150 -96 -159
-137 -3 -18 -1 -60 5 -93 l10 -62 119 -112 118 -112 100 0 99 0 74 49 c41 27
97 72 124 101 123 129 522 244 923 266 87 5 122 11 122 20 0 9 45 14 173 18
363 14 485 21 498 32 8 6 34 16 59 23 64 18 135 59 170 97 17 19 39 34 50 34
11 0 49 12 85 26 l66 27 247 -63 c135 -34 285 -73 332 -87 73 -21 104 -25 224
-24 83 0 143 4 150 11 6 6 84 10 212 10 229 0 234 1 273 83 31 64 27 96 -20
166 -63 95 -155 165 -277 211 l-54 20 -31 -22 c-18 -12 -58 -47 -90 -77 l-58
-55 -47 17 c-100 37 -197 102 -288 192 -84 82 -94 96 -112 156 -46 150 -53
126 111 416 216 383 395 723 608 1151 171 346 195 400 237 540 36 123 47 177
50 247 2 49 7 94 11 100 5 5 14 28 21 50 7 22 24 66 38 98 19 44 29 56 41 52
50 -20 198 -65 245 -75 38 -8 65 -21 90 -44 20 -20 51 -36 73 -41 50 -9 206
-69 263 -102 25 -13 200 -74 390 -133 190 -60 476 -151 635 -203 l290 -95 0
-116 c0 -86 -3 -119 -13 -125 -10 -6 -13 -33 -12 -97 2 -92 -20 -282 -46 -392
-20 -89 -20 -633 1 -787 8 -60 17 -157 21 -215 4 -68 13 -117 24 -140 29 -57
59 -166 66 -236 6 -57 13 -74 52 -127 133 -182 292 -313 499 -413 l91 -44 175
0 c191 0 239 9 376 71 46 21 79 29 120 29 32 0 61 4 66 9 6 5 43 20 82 35 125
44 372 146 553 228 533 241 989 519 1498 913 l25 19 -6 -102 c-33 -502 -180
-1070 -379 -1466 -190 -378 -501 -732 -809 -923 -52 -32 -65 -46 -99 -112 -44
-85 -125 -187 -192 -243 -34 -27 -74 -45 -164 -73 -65 -21 -182 -62 -259 -93
l-140 -55 -115 1 c-68 0 -139 7 -175 16 l-60 16 -52 -56 c-29 -30 -53 -64 -53
-76 0 -50 111 -238 179 -302 l30 -29 98 7 97 7 55 53 c55 51 136 93 163 83 19
-7 -257 -277 -372 -364 -191 -144 -438 -283 -671 -379 -132 -54 -460 -243
-688 -397 l-52 -35 91 -95 c108 -113 220 -207 246 -207 11 0 37 -9 59 -20 40
-21 155 -29 155 -11 0 11 252 208 445 347 293 211 692 464 732 464 38 0 67 16
142 79 172 144 411 302 631 419 120 63 313 152 330 152 13 0 13 -100 0 -214
-10 -83 -13 -91 -51 -135 -84 -95 -138 -235 -139 -357 0 -70 5 -92 31 -152 31
-70 32 -71 96 -97 74 -29 244 -75 280 -75 49 0 130 57 159 112 10 20 14 69 14
188 0 88 4 168 9 178 5 9 14 67 21 127 13 127 30 212 67 345 25 89 31 101 108
195 367 449 663 957 889 1527 140 353 246 702 306 1003 33 166 59 264 127 465
69 207 159 509 222 740 6 19 13 62 16 95 3 37 17 83 35 120 32 66 35 88 46
405 l5 165 -36 80 c-21 44 -63 145 -95 224 l-59 143 -68 51 c-37 27 -126 89
-198 136 -127 84 -131 86 -190 86 -33 0 -69 -4 -80 -9 -11 -5 -66 -8 -123 -7
-84 2 -106 0 -115 -13 -9 -11 -44 -18 -127 -26 -107 -10 -125 -15 -267 -75
-287 -121 -720 -271 -898 -311 -29 -6 -29 -6 10 23 84 63 146 151 176 253 7
25 26 59 42 75 16 17 40 58 54 90 68 169 253 674 337 925 53 157 104 301 115
320 11 19 27 62 38 95 16 55 18 101 17 538 0 262 3 477 8 477 4 0 20 -19 35
-42 47 -76 229 -312 341 -444 304 -359 647 -683 997 -943 72 -53 142 -105 157
-116 14 -11 57 -45 95 -77 88 -73 240 -168 269 -168 12 0 46 -13 76 -28 41
-22 73 -30 138 -35 60 -5 105 -15 155 -36 141 -60 241 -83 379 -88 75 -4 131
-2 135 4 3 5 29 14 58 21 118 26 214 96 259 188 26 54 27 57 22 207 -4 115 -9
160 -21 184 -11 21 -17 56 -17 101 0 40 -7 85 -15 107 -53 124 -129 468 -155
694 -6 57 -11 207 -10 334 1 231 1 232 31 322 85 249 235 484 393 615 30 25
55 52 55 60 2 58 -61 186 -112 224 -35 26 -142 66 -179 66 -32 0 -91 -17 -112
-33 -17 -12 -17 -16 -2 -60 10 -29 16 -81 16 -131 0 -73 -3 -86 -24 -111 -13
-15 -43 -69 -67 -120 -44 -92 -45 -93 -112 -130 -37 -20 -74 -35 -81 -32 -24
9 -85 367 -85 496 0 46 -3 103 -7 127 -4 26 -2 49 4 57 14 16 42 318 42 449 0
57 4 108 9 113 16 16 31 170 31 313 0 102 4 138 15 156 18 27 34 182 35 327 0
75 3 98 15 102 32 13 85 154 85 227 0 29 -8 44 -45 80 -62 61 -126 80 -277 80
-108 0 -121 -2 -165 -26 -26 -15 -60 -38 -75 -52 -27 -25 -28 -30 -28 -122 0
-89 2 -98 24 -119 77 -72 110 -294 104 -696 -2 -148 -7 -227 -15 -240 -12 -20
-31 -166 -58 -450 -12 -116 -21 -172 -37 -205 -11 -25 -32 -90 -45 -145 -14
-55 -26 -101 -27 -102 -2 -2 -28 6 -59 17 -31 11 -63 20 -71 20 -18 0 -172 92
-266 158 -152 107 -332 273 -436 401 l-49 61 -63 0 c-95 0 -141 -25 -275 -149
-26 -24 -49 -42 -51 -40 -2 2 -59 74 -127 159 -289 364 -645 772 -929 1062
-99 102 -108 109 -165 123 -139 34 -291 43 -427 26 -62 -8 -78 -16 -214 -106
-165 -109 -408 -291 -559 -418 l-99 -84 -36 33 c-61 57 -308 260 -460 378
-195 153 -371 280 -595 432 -122 82 -194 138 -206 158 -25 42 -330 236 -696
441 -113 63 -123 72 -138 111 -21 55 -82 111 -132 119 -63 11 -103 25 -208 75
-130 61 -277 152 -320 199 -34 37 -35 37 -172 55 -138 19 -138 19 -198 65 -33
25 -78 62 -101 83 -35 32 -63 44 -190 82 -499 151 -946 354 -1239 564 -138 99
-227 174 -385 327 -224 216 -347 315 -559 448 -296 185 -622 325 -1015 437
-154 44 -184 46 -238 18z m9681 -5018 c291 -95 518 -266 655 -493 31 -52 33
-61 25 -98 -18 -79 -68 -141 -126 -155 -37 -10 -117 32 -166 87 -57 64 -55 61
-116 169 -92 163 -242 371 -316 440 -36 33 -69 80 -57 80 6 0 51 -13 101 -30z
m-4742 -4392 c-3 -7 -5 -2 -5 12 0 14 2 19 5 13 2 -7 2 -19 0 -25z"/>
</g>
</svg>
