<?xml version="1.0" standalone="no"?>
<!DOCTYPE svg PUBLIC "-//W3C//DTD SVG 20010904//EN"
 "http://www.w3.org/TR/2001/REC-SVG-20010904/DTD/svg10.dtd">
<svg version="1.0" xmlns="http://www.w3.org/2000/svg"
 width="1536.000000pt" height="1419.000000pt" viewBox="0 0 1536.000000 1419.000000"
 preserveAspectRatio="xMidYMid meet">
<metadata>
Created by potrace 1.16, written by Peter Selinger 2001-2019
</metadata>
<g transform="translate(0.000000,1419.000000) scale(0.100000,-0.100000)"
fill="#000000" stroke="none">
<path d="M8826 14179 c-237 -25 -454 -94 -685 -219 -134 -72 -202 -161 -265
-351 -33 -100 -43 -180 -57 -472 -11 -213 -15 -247 -28 -247 -9 0 -56 7 -106
15 -110 19 -354 12 -459 -12 -45 -10 -138 -51 -270 -117 -154 -78 -226 -109
-306 -130 -157 -41 -212 -70 -312 -165 l-86 -82 -319 -79 c-469 -116 -557
-146 -638 -221 -23 -21 -45 -39 -47 -39 -3 0 19 66 48 147 30 81 52 153 50
160 -3 7 -33 33 -68 59 -248 184 -604 191 -948 19 -131 -66 -228 -139 -464
-347 l-109 -97 -42 57 c-55 74 -118 137 -171 168 -114 67 -387 132 -594 141
-243 10 -469 -41 -711 -162 -234 -117 -342 -219 -469 -445 -29 -52 -79 -136
-111 -185 -113 -175 -145 -277 -194 -620 -37 -262 -20 -232 -166 -286 -164
-60 -209 -84 -342 -183 -148 -110 -164 -117 -272 -126 -103 -8 -147 -24 -190
-70 -29 -30 -30 -34 -29 -123 1 -73 10 -126 43 -252 23 -88 54 -187 70 -220
33 -71 109 -173 260 -348 185 -216 180 -201 206 -537 36 -468 63 -593 200
-964 36 -98 64 -181 61 -183 -3 -3 -50 0 -105 7 -129 17 -207 6 -486 -65 -115
-29 -266 -65 -335 -80 -68 -15 -137 -33 -153 -41 -35 -18 -83 -93 -160 -247
-67 -134 -73 -162 -58 -238 6 -30 15 -128 21 -219 21 -365 98 -498 514 -886
271 -253 311 -318 411 -673 157 -552 296 -828 542 -1075 184 -186 363 -298
675 -426 94 -38 135 -61 157 -85 38 -44 154 -273 185 -366 13 -41 38 -152 56
-248 17 -96 38 -190 45 -208 21 -50 123 -153 175 -176 78 -35 180 -29 325 22
65 22 136 41 157 41 47 0 181 -28 653 -136 659 -152 693 -157 895 -157 157 0
185 2 275 26 65 17 145 49 226 91 l126 64 21 -44 c13 -25 34 -50 52 -59 17 -9
112 -28 212 -44 l182 -28 316 156 c638 317 911 420 1340 506 184 37 257 43
293 23 12 -6 53 -38 92 -70 213 -179 660 -317 1138 -350 330 -23 649 27 806
127 56 35 130 113 138 145 10 41 13 42 60 15 28 -17 53 -25 66 -21 25 6 57 54
57 83 0 31 18 40 69 35 43 -4 52 -1 85 29 l38 33 127 -130 c148 -152 187 -216
226 -374 96 -400 26 -807 -198 -1140 -98 -145 -339 -360 -471 -420 -37 -16
-87 -43 -111 -60 -75 -52 -186 -99 -269 -115 -254 -49 -840 19 -1217 141 -281
90 -488 196 -1209 614 -305 177 -537 281 -729 327 -96 23 -132 26 -376 30
-425 8 -576 -14 -712 -104 -95 -62 -168 -184 -333 -552 -107 -238 -198 -424
-248 -501 -19 -30 -88 -110 -153 -176 -137 -140 -139 -146 -90 -251 102 -214
277 -354 501 -399 155 -31 344 -2 436 66 71 52 72 60 35 324 -17 127 -34 276
-37 331 -16 274 68 555 209 699 47 48 85 74 157 110 116 57 201 70 394 64 120
-5 140 -8 235 -42 186 -67 254 -107 681 -408 654 -460 817 -548 1195 -648 443
-118 992 -142 1555 -69 350 45 449 74 568 169 155 124 424 523 570 848 105
231 135 360 167 712 9 96 21 207 26 245 13 93 13 239 -1 298 -29 129 -103 290
-180 393 -21 28 -133 148 -249 268 -116 119 -233 247 -261 284 -54 73 -160
271 -160 301 0 31 23 40 145 56 64 9 144 25 178 36 142 48 306 150 532 333 72
58 211 170 310 250 156 127 185 146 216 146 111 0 639 -350 639 -424 0 -51
-105 -171 -204 -233 -90 -58 -223 -93 -756 -203 -458 -95 -560 -119 -567 -136
-8 -22 43 -205 93 -332 80 -202 173 -345 333 -514 182 -192 336 -298 706 -484
l256 -129 78 0 c73 0 82 2 117 30 84 68 89 119 48 426 -15 107 -27 244 -27
304 -1 103 1 115 35 200 75 189 252 520 348 650 l43 58 24 -29 c76 -90 194
-308 267 -490 55 -138 125 -459 211 -959 20 -115 39 -226 43 -245 l8 -35 64 3
c226 11 630 108 740 177 49 31 136 128 164 184 31 61 56 146 56 191 0 42 -8
51 -150 157 -149 112 -408 363 -571 553 -107 125 -320 413 -597 808 -135 193
-131 176 -70 273 19 30 41 70 49 89 25 62 16 211 -31 480 -49 283 -55 394 -26
454 12 23 164 183 381 400 471 471 672 696 820 921 273 414 389 808 440 1498
l15 198 57 51 c113 100 290 284 330 343 80 119 123 231 123 320 0 56 -35 109
-156 234 -176 184 -343 271 -575 301 -150 18 -451 -37 -954 -175 -300 -83
-434 -133 -510 -190 -25 -19 -47 -35 -50 -35 -3 0 -5 16 -5 35 0 50 -35 220
-60 295 -33 97 -107 235 -171 320 -184 243 -435 401 -739 466 -98 20 -421 27
-440 8 -5 -5 -16 -111 -24 -238 -8 -125 -16 -229 -18 -231 -1 -1 -49 13 -106
32 -116 38 -216 51 -278 34 -45 -12 -281 -176 -352 -244 -112 -108 -162 -212
-192 -403 -12 -71 -25 -133 -31 -139 -6 -6 -114 -12 -262 -16 -213 -5 -264 -9
-330 -27 -179 -49 -499 -196 -572 -263 -56 -52 -102 -139 -173 -329 -163 -435
-227 -784 -277 -1505 -33 -481 -47 -528 -183 -608 -201 -119 -320 -186 -339
-192 -33 -9 -36 16 -30 288 6 319 -3 286 232 807 299 661 325 757 329 1194 l1
190 96 41 c128 56 199 103 293 194 200 193 310 407 407 796 26 101 48 168 60
181 11 11 63 45 117 74 639 351 1162 937 1418 1588 42 108 51 122 69 118 11
-2 116 -10 233 -17 324 -20 465 3 641 104 130 74 157 120 197 332 29 156 8
403 -62 743 -35 169 -68 283 -108 367 -105 223 -340 522 -430 546 -47 13 -174
8 -556 -22 -452 -35 -683 -74 -810 -136 -93 -45 -250 -220 -296 -328 -11 -27
-12 -50 -3 -117 24 -200 99 -581 139 -711 40 -130 170 -275 333 -371 144 -85
133 -71 118 -161 -22 -130 -106 -454 -146 -560 -96 -259 -263 -495 -430 -608
-70 -48 -209 -111 -348 -158 -80 -27 -100 -31 -107 -19 -23 37 -40 276 -40
560 0 359 15 547 105 1340 71 620 85 777 85 931 l0 127 -87 79 c-119 107 -157
135 -246 183 -227 123 -570 175 -911 139z m-690 -1986 c335 -199 468 -256 621
-269 77 -6 99 -3 322 48 l54 13 33 -39 c64 -74 151 -276 260 -601 98 -293 108
-349 109 -605 0 -245 -12 -322 -70 -438 -36 -71 -113 -163 -188 -225 l-45 -37
-23 98 c-53 236 -162 489 -279 655 -153 214 -383 391 -622 478 -171 63 -425
114 -614 125 -155 8 -168 16 -162 93 6 89 39 142 177 286 174 181 220 276 221
458 0 48 4 67 13 67 7 0 94 -48 193 -107z m-1443 -494 c256 -26 387 -45 401
-59 7 -7 11 -58 10 -138 -1 -219 -48 -388 -180 -651 -142 -283 -211 -369 -251
-315 -56 75 -158 331 -188 472 -20 98 -44 337 -52 517 -6 150 -6 152 17 173
13 12 27 22 32 22 4 0 99 -9 211 -21z m-2550 -294 c171 -44 442 -232 624 -431
83 -91 98 -109 265 -319 179 -224 425 -472 573 -577 39 -27 154 -101 256 -164
103 -63 189 -120 192 -128 3 -7 0 -24 -7 -37 -18 -35 -54 -31 -246 29 -215 67
-323 91 -438 99 l-93 6 -54 107 c-162 323 -373 462 -1065 703 -239 83 -348
125 -369 141 -10 8 -12 26 -7 71 7 76 102 464 118 483 7 8 21 18 33 22 33 14
157 11 218 -5z m1317 -262 c291 -82 623 -347 787 -628 66 -113 133 -317 133
-404 0 -36 -3 -41 -22 -41 -34 0 -250 108 -353 177 -197 130 -404 328 -508
485 -109 163 -197 351 -197 420 0 28 1 29 38 22 20 -4 75 -17 122 -31z m1618
-813 c23 -16 44 -41 48 -56 12 -47 -50 -542 -81 -650 -8 -28 -24 -59 -35 -69
-20 -18 -22 -18 -75 8 -80 39 -131 89 -154 153 -24 63 -41 193 -41 314 l0 85
93 91 c120 118 164 154 186 154 10 0 37 -13 59 -30z m-3513 -76 c367 -51 729
-115 819 -145 177 -59 342 -151 330 -184 -3 -8 -31 -27 -62 -42 -43 -21 -72
-28 -117 -28 -79 0 -148 33 -363 173 -232 152 -240 155 -326 150 -90 -6 -157
-39 -219 -108 -141 -157 -129 -405 47 -946 43 -135 50 -161 47 -196 -1 -9 -42
-41 -98 -75 -54 -33 -122 -75 -152 -94 -52 -33 -58 -34 -168 -38 l-113 -3 -86
-92 c-164 -173 -187 -224 -187 -406 0 -117 2 -130 32 -206 38 -98 94 -188 153
-244 74 -73 150 -102 357 -138 l43 -7 99 -219 c54 -120 96 -223 93 -228 -8
-13 -95 -52 -211 -94 -431 -157 -930 -33 -1273 315 -117 118 -173 206 -221
345 -56 160 -77 442 -44 569 46 176 173 319 440 495 72 47 194 127 272 179
172 113 261 185 269 219 9 35 -14 108 -117 387 -50 133 -91 257 -92 276 l-2
35 103 37 c123 44 224 109 290 188 26 30 71 79 99 109 l53 55 62 -7 c35 -4
144 -18 243 -32z m5801 -561 c-8 -15 -15 -22 -16 -15 0 17 20 55 27 49 2 -3
-2 -18 -11 -34z m-36 -93 c-16 -31 -23 -19 -9 16 6 16 13 24 16 17 2 -7 -1
-22 -7 -33z m-3625 -247 c110 -36 202 -67 204 -69 2 -2 -14 -43 -37 -91 -83
-177 -140 -403 -163 -648 -16 -178 -16 -478 0 -605 12 -102 12 -108 -13 -204
-22 -83 -26 -120 -26 -237 0 -128 -2 -144 -24 -188 -31 -61 -116 -155 -155
-171 -24 -10 -43 -9 -101 4 -237 54 -410 158 -440 264 -24 88 46 181 195 259
126 66 125 65 125 191 0 59 -11 205 -25 325 l-25 217 55 129 c101 236 128 365
140 681 3 91 9 178 12 193 5 27 7 28 41 22 21 -4 127 -36 237 -72z m2580 57
c182 -5 381 -13 444 -16 l113 -6 -5 -42 c-9 -64 -100 -390 -116 -415 -7 -11
-47 -16 -156 -22 -137 -7 -151 -9 -212 -39 -143 -71 -239 -202 -458 -625 -42
-82 -81 -154 -85 -159 -18 -18 -279 535 -344 727 -38 112 -81 298 -92 393 -6
61 -6 61 27 87 19 14 63 39 99 55 145 65 235 83 375 76 44 -2 229 -9 410 -14z
m4821 -17 c15 -53 89 -181 210 -368 389 -597 400 -620 484 -1034 48 -237 110
-595 110 -634 0 -42 -52 -169 -121 -292 -221 -400 -598 -855 -858 -1037 -80
-57 -82 -57 -90 -35 -17 45 -51 166 -60 213 -19 99 22 230 250 802 255 637
309 793 309 894 0 69 -24 104 -169 251 -109 111 -123 117 -251 117 -284 0
-580 -108 -710 -258 -59 -69 -103 -163 -108 -232 -5 -68 8 -112 86 -290 108
-248 182 -475 202 -618 16 -122 -13 -329 -58 -406 -22 -38 -48 -54 -65 -41
-134 101 -287 142 -572 152 -171 6 -265 -7 -388 -56 -40 -16 -75 -27 -78 -25
-20 12 53 309 226 914 129 450 183 630 189 630 25 0 235 44 276 58 159 55 310
154 383 251 l47 63 -1 136 c0 76 -4 203 -8 283 -7 135 -9 149 -35 194 l-29 48
24 18 c237 184 541 316 737 318 51 1 64 -2 68 -16z m-6316 -288 c59 -123 113
-277 147 -420 16 -70 18 -126 18 -455 0 -361 -1 -378 -24 -470 -31 -124 -60
-202 -74 -197 -24 8 -48 55 -61 122 -8 39 -26 185 -41 325 -28 272 -68 555
-111 790 -34 190 -39 390 -10 465 l19 49 39 -44 c22 -25 66 -99 98 -165z
m-1679 -233 c-19 -63 -50 -121 -51 -95 0 14 49 173 58 188 16 25 12 -33 -7
-93z m5509 68 c52 -6 98 -14 102 -18 4 -4 14 -69 23 -145 36 -311 103 -441
329 -632 l59 -50 -17 -165 c-44 -427 -84 -614 -144 -682 -8 -10 -20 -18 -26
-18 -6 0 -30 44 -53 98 -65 148 -127 246 -214 337 -121 126 -245 202 -419 256
-66 21 -93 24 -235 23 -144 -1 -169 -3 -249 -28 -49 -14 -113 -40 -144 -56
-30 -16 -59 -27 -62 -25 -8 5 -7 18 22 165 29 155 85 382 115 463 101 283 258
439 481 477 68 11 322 11 432 0z m-4485 -152 c-17 -118 -35 -352 -35 -473 0
-114 13 -193 50 -310 17 -50 30 -103 30 -116 0 -31 -62 -172 -71 -162 -11 13
-47 180 -59 273 -14 120 -12 386 5 515 18 137 76 388 87 377 4 -4 1 -51 -7
-104z m2585 -217 c0 -50 -154 -471 -285 -781 -236 -555 -255 -622 -280 -981
-18 -252 -33 -346 -68 -423 -58 -126 -251 -402 -376 -536 l-60 -65 0 180 c0
99 4 215 8 258 10 90 20 105 116 169 84 57 152 125 181 180 41 81 48 169 35
461 -18 390 -17 485 9 597 89 378 305 701 601 899 96 65 119 73 119 42z
m-1311 -290 c30 -129 39 -193 61 -464 25 -296 23 -312 -57 -507 -132 -324
-225 -590 -334 -950 l-22 -75 -24 75 c-44 139 -56 204 -56 300 1 156 26 275
216 1020 53 206 110 445 127 530 17 85 34 164 37 174 5 19 6 19 19 2 7 -10 22
-57 33 -105z m-943 -848 c49 -64 144 -214 144 -229 0 -9 -29 -61 -65 -115 -36
-53 -83 -135 -103 -181 -21 -45 -43 -92 -49 -103 l-12 -20 -16 20 c-67 83 -93
227 -60 341 15 56 133 304 143 304 3 0 11 -8 18 -17z m1234 -330 c0 -120 -110
-433 -152 -433 -24 0 21 228 68 349 30 76 62 131 75 131 5 0 9 -21 9 -47z
m-5709 -52 c237 -114 472 -192 699 -233 163 -29 660 -37 869 -14 209 23 195
26 187 -36 -10 -72 -90 -310 -127 -377 -82 -148 -308 -407 -384 -442 -33 -15
-67 -19 -200 -19 -88 -1 -217 -5 -287 -9 -123 -8 -130 -9 -220 -53 -290 -141
-419 -355 -450 -748 -26 -331 42 -591 231 -882 33 -52 61 -100 61 -106 0 -40
-183 -11 -305 48 -104 51 -180 113 -260 213 -278 348 -399 1031 -279 1577 52
235 140 421 277 583 43 50 89 110 102 132 23 39 23 42 11 115 -8 41 -28 129
-45 194 -33 127 -33 126 -27 126 2 0 68 -31 147 -69z m3914 3 c22 -9 89 -144
126 -255 17 -50 50 -166 74 -259 55 -211 71 -253 211 -530 129 -256 212 -401
278 -480 62 -75 80 -115 70 -153 -5 -16 -17 -35 -27 -41 -15 -9 -23 -4 -53 29
-118 136 -295 466 -544 1020 -217 480 -279 647 -248 666 15 10 89 12 113 3z
m-1292 -376 c6 -395 19 -458 143 -713 59 -122 132 -222 284 -395 56 -63 109
-128 117 -144 23 -44 12 -105 -46 -253 l-52 -131 -72 -27 c-316 -119 -641
-234 -648 -229 -5 3 -27 40 -48 83 -96 191 -217 337 -413 502 -64 55 -120 103
-123 109 -9 15 5 35 120 181 336 424 524 801 591 1188 21 123 33 141 98 141
l44 0 5 -312z m566 233 c43 -6 60 -14 83 -40 33 -36 36 -76 12 -142 -22 -63
-41 -212 -59 -464 -20 -282 -25 -302 -58 -232 -56 117 -200 799 -182 857 9 27
96 36 204 21z m1480 -329 c28 -55 128 -357 141 -429 15 -77 9 -319 -8 -351 -7
-12 -17 -20 -22 -17 -18 11 -121 176 -165 263 -63 125 -78 193 -73 327 5 116
25 184 70 232 25 27 32 23 57 -25z m-1015 -339 c177 -272 285 -495 321 -660 6
-30 5 -33 -19 -33 -36 0 -331 97 -345 114 -9 11 -9 25 0 61 15 60 6 362 -15
495 -17 105 -18 120 -11 120 3 0 34 -44 69 -97z m3394 -108 c2 -32 -4 -50 -30
-89 -18 -26 -47 -71 -65 -100 -17 -28 -44 -71 -60 -96 l-28 -45 -3 90 c-4 110
11 185 46 226 30 37 76 60 112 56 22 -2 25 -8 28 -42z m2862 30 c162 -38 240
-76 240 -118 0 -26 -94 -203 -134 -253 -26 -33 -32 -36 -66 -30 -20 3 -99 28
-174 55 -178 65 -278 89 -393 97 -51 4 -93 9 -93 11 0 14 56 86 90 115 133
115 349 165 530 123z m-3478 -162 c12 -28 23 -78 26 -120 7 -106 -16 -147
-122 -221 -113 -79 -163 -134 -219 -240 -63 -120 -70 -126 -107 -107 -16 8
-41 36 -56 61 -52 88 -28 142 163 365 59 69 143 166 186 217 42 51 84 92 93
92 8 0 24 -21 36 -47z m972 -78 c23 -24 66 -123 66 -151 0 -20 -120 -8 -137
14 -13 16 -18 118 -7 146 9 24 52 19 78 -9z m-1998 -212 c10 -89 15 -165 11
-169 -25 -25 -108 121 -109 191 -1 47 61 175 73 152 4 -6 15 -85 25 -174z
m-4466 -88 c0 -2 -29 -44 -64 -92 -158 -217 -183 -299 -195 -641 -6 -171 -11
-216 -23 -229 -22 -21 -46 -11 -105 47 -155 155 -175 385 -53 619 80 154 187
255 300 285 53 14 140 21 140 11z m4242 -85 c42 -85 33 -106 -23 -51 -23 23
-29 38 -29 71 0 56 18 49 52 -20z m3974 4 c130 -26 492 -157 508 -182 8 -13
-59 -71 -103 -89 -28 -12 -61 -14 -141 -10 -119 6 -501 56 -513 67 -13 11 61
182 89 208 30 26 59 27 160 6z m-7723 -210 c74 -37 216 -185 323 -334 82 -116
137 -184 294 -364 33 -38 60 -78 60 -89 0 -10 -109 -165 -242 -343 l-242 -324
-44 0 c-164 0 -379 48 -515 114 -126 62 -167 97 -167 143 0 75 167 770 219
912 34 94 105 213 161 272 45 48 78 50 153 13z m2309 -126 c82 -40 148 -77
148 -85 0 -52 -357 64 -368 120 -6 28 18 49 47 42 13 -3 91 -38 173 -77z
m7035 52 c32 -70 79 -470 54 -470 -19 0 -75 31 -271 149 -199 121 -260 145
-395 156 -44 3 -84 10 -88 14 -17 16 84 91 150 111 96 30 377 68 483 66 48 -1
56 -4 67 -26z m-5621 -60 c24 -17 49 -40 55 -52 22 -41 -12 -138 -48 -138 -9
0 -38 22 -65 50 -51 54 -61 91 -36 145 15 33 40 32 94 -5z m1945 -11 c40 -17
100 -34 132 -37 70 -6 73 -22 11 -64 -55 -37 -121 -53 -156 -39 -40 15 -68 67
-68 124 0 26 2 47 4 47 2 0 37 -14 77 -31z m1205 -38 c-52 -54 -370 -204 -490
-231 -36 -8 -63 -8 -103 1 -29 7 -53 15 -53 19 0 19 91 86 164 121 129 61 343
115 470 118 l40 1 -28 -29z m-1733 -546 c2 -18 -4 -20 -55 -19 -95 2 -88 -15
-87 226 l0 213 70 -200 c39 -110 71 -209 72 -220z m2694 312 c17 -17 17 -19
-6 -62 -51 -96 -262 -268 -389 -315 -83 -32 -238 -70 -309 -77 -77 -7 -78 -2
-28 102 72 150 188 270 330 341 l70 35 157 -3 c135 -3 160 -6 175 -21z m-6761
-547 c228 -59 535 -65 714 -15 52 14 104 28 115 31 16 4 29 -10 69 -77 63
-105 64 -135 7 -247 -48 -95 -54 -99 -231 -157 -354 -116 -497 -269 -476 -512
11 -137 61 -230 237 -444 l118 -144 -37 -33 c-20 -19 -66 -48 -102 -65 -61
-30 -71 -32 -175 -31 -123 1 -107 -5 -410 124 -216 92 -330 133 -427 155 -43
9 -78 19 -78 21 0 3 30 66 66 142 106 222 105 216 115 407 5 94 16 197 24 229
42 164 324 636 379 636 7 0 48 -9 92 -20z m5150 -97 c-7 -53 -26 -83 -26 -41
0 42 12 88 23 88 6 0 7 -18 3 -47z"/>
</g>
</svg>
