<?xml version="1.0" standalone="no"?>
<!DOCTYPE svg PUBLIC "-//W3C//DTD SVG 20010904//EN"
 "http://www.w3.org/TR/2001/REC-SVG-20010904/DTD/svg10.dtd">
<svg version="1.0" xmlns="http://www.w3.org/2000/svg"
 width="1536.000000pt" height="1173.000000pt" viewBox="0 0 1536.000000 1173.000000"
 preserveAspectRatio="xMidYMid meet">
<metadata>
Created by potrace 1.16, written by Peter Selinger 2001-2019
</metadata>
<g transform="translate(0.000000,1173.000000) scale(0.100000,-0.100000)"
fill="#000000" stroke="none">
<path d="M14400 11716 c-213 -46 -372 -147 -621 -395 -159 -159 -250 -275
-361 -457 -201 -332 -335 -753 -377 -1184 -66 -686 -76 -748 -135 -915 -41
-113 -86 -196 -164 -302 -165 -221 -318 -333 -614 -447 -132 -51 -211 -75
-488 -151 -260 -71 -435 -130 -589 -199 -534 -238 -1020 -702 -1285 -1225
-183 -362 -222 -649 -127 -925 64 -182 216 -356 383 -438 37 -18 67 -39 67
-46 2 -28 -52 -170 -97 -257 -63 -123 -165 -226 -276 -281 -77 -37 -84 -39
-180 -39 -85 0 -115 5 -186 29 -241 81 -502 260 -1010 691 -249 212 -472 387
-595 469 -336 225 -732 346 -1133 346 -170 0 -285 -14 -428 -50 -482 -124
-805 -460 -944 -982 -39 -150 -64 -310 -95 -623 -42 -422 -76 -601 -151 -788
-82 -203 -218 -391 -387 -533 -216 -182 -418 -273 -717 -325 -259 -44 -518
-47 -1105 -13 -326 20 -736 22 -900 5 -354 -36 -648 -137 -876 -302 -626 -451
-971 -1195 -1006 -2164 -5 -163 -4 -182 11 -198 20 -20 49 -22 63 -5 6 7 13
94 17 193 33 937 349 1637 940 2079 230 173 497 268 856 307 163 17 565 15
905 -7 383 -23 834 -24 1005 -1 404 55 675 178 928 421 213 204 336 413 412
700 39 148 64 308 95 621 28 282 54 465 85 586 139 542 463 859 986 966 71 14
135 18 314 17 206 0 236 -2 354 -27 277 -59 511 -156 726 -302 143 -96 219
-156 595 -470 165 -138 349 -288 408 -334 414 -319 724 -445 950 -386 223 58
403 255 498 545 22 67 32 85 46 83 10 -1 60 -7 111 -14 231 -32 485 54 656
224 116 115 191 240 268 447 58 155 106 231 218 341 74 73 113 104 166 129 61
29 289 106 799 270 458 147 782 303 1056 507 393 293 721 733 926 1242 128
320 192 625 233 1116 11 132 25 269 31 305 24 149 113 356 224 524 62 92 112
149 188 210 112 89 224 267 262 415 62 244 0 519 -161 714 -102 124 -252 222
-409 268 -91 26 -275 34 -365 15z"/>
</g>
</svg>
