<?xml version="1.0" encoding="UTF-8" standalone="no"?>
<svg
   width="617.85333"
   height="860.23242"
   viewBox="0 0 617.85333 860.23242"
   version="1.1"
   id="svg4"
   xmlns="http://www.w3.org/2000/svg"
   xmlns:svg="http://www.w3.org/2000/svg">
  <defs
     id="defs8" />
  <path
     d="m 360.68928,0.35640745 c -8.429,0.68499995 -15.632,3.54099995 -18.669,7.40299995 -1.691,2.149 -1.988,2.215 -3.439,0.763 -1.157,-1.157 -4.254,-1.716 -11.404,-2.061 -12.107,-0.583 -18.734,0.953 -31.252,7.2389996 -5.434,2.729 -10.381,4.532 -12.438,4.532 -1.878,0 -6.274,0.861 -9.77,1.913 -3.495,1.053 -7.93,2.232 -9.855,2.621 -4.414,0.892 -8.503,2.974 -13.112,6.677 -4.742,3.81 -11.606,5.789 -20.079,5.789 -11.346,0 -14.587,2.239 -26.845,18.548 -5.175,6.885 -8.535,10.241 -13.481,13.463 -5.982,3.897 -9.483,7.976 -9.483,11.045 0,0.636 -1.047,1.98 -2.327,2.986 -4.463,3.511 -8.846,13.496 -9.803,22.332003 -1.364,12.593 -1.61,13.197 -9.103,22.436 -3.876,4.78 -8.369,11.486 -9.984,14.903 -5.308,11.229 -5.808,16.844 -6.935,77.787 -1.071,57.927 -0.556,76.506 2.729,98.311 0.802,5.329 2.137,15.989 2.965,23.689 1.911,17.754 4.054,24.788 10.969,36 3.053,4.95 6.233,11.326 7.067,14.168 1.167,3.977 2.543,6.01 5.969,8.817 4.004,3.281 4.453,4.079 4.453,7.913 0,3.525 0.433,4.496 2.5,5.602 2.329,1.246 2.5,1.858 2.504,8.919 0.004,8.805 1.912,12.975 6.878,15.032 3.185,1.319 3.477,1.857 3.155,5.812 -0.387,4.765 2.103,9.16 8.162,14.41 5.157,4.467 6.817,6.813 10.993,15.534 4.017,8.391 5.687,10.806 9.113,13.183 4.876,3.383 10.287,8.851 9.519,9.619 -1.642,1.643 -47.307,14.219 -63.339,17.444 -5.191,1.044 -12.36,3.337 -15.932,5.095 -6.473,3.187 -15.425,10.967 -21.094,18.334 l -2.988,3.881 -8.266,0.289 c -8.617,0.3 -11.269,1.248 -26.205003,9.366 -3.916,2.128 -7.875,3.282 -13.745,4.007 -6.803,0.84 -12.048,2.602 -30,10.081 -25.327,10.552 -34.639,15.571 -41.8119997,22.535 -13.114,12.732 -4.628,26.049 14.9079997,23.398 8.549,-1.16 14.527,-3.395 34.988,-13.08 10.361,-4.904 30.836,-13.671 45.500003,-19.482 14.663,-5.811 36.336,-14.4 48.161,-19.087 11.825,-4.686 30.147,-11.375 40.715,-14.864 10.568,-3.49 24.968,-8.796 32,-11.793 15.457,-6.588 20.24,-8.157 31.285,-10.266 14.678,-2.801 18.038,-2.831 21.908,-0.191 11.197,7.636 9.679,16.612 -5.13,30.324 -11.612,10.751 -36.059,26.105 -63.386,39.81 -5.01,2.512 -13.335,7.865 -18.5,11.896 -13.239,10.329 -14.399,11.101 -29.695,19.758 -16.179,9.155 -18.55,11.88 -15.884,18.25 2.067,4.938 5.054,5.629 12.838,2.971 l 6.035,-2.06 -0.654,2.687 c -1.153,4.746 -5.869,9.359 -15.062,14.732 -17.623,10.302 -20.029,12.189 -39.453,30.956 -10.815003,10.45 -22.699003,21.642 -26.407003,24.871 -8.615,7.502 -11.883,12.377 -11.883,17.725 0,9.463 8.986,12.077 21.338,6.208 12.257003,-5.825 23.566003,-14.982 53.416003,-43.251 18.363,-17.39 19.867,-18.131 24.397,-12.004 1.609,2.176 3.005,2.951 5.314,2.951 7.24,0 15.225,-7.679 27.033,-26 5.741,-8.908 14.4,-18.968 41.311,-48 23.937,-25.824 48.819,-54.27 56.417,-64.5 10.448,-14.067 14.402,-17.341 19.718,-16.329 1.446,0.276 1.951,1.602 2.412,6.339 0.468,4.802 -0.164,9.264 -3.183,22.49 -8.447,37.001 -10.676,51.19 -13.373,85.128 -1.415,17.804 -3.267,37.582 -4.116,43.95 -1.775,13.322 -1.591,19.885 0.589,20.953 0.825,0.404 2.826,1.128 4.447,1.608 5.511,1.631 6.709,5.485 7.133,22.938 0.207,8.549 0.688,16.047 1.067,16.661 0.38,0.614 1.029,18.474 1.444,39.689 0.733,37.541 2.076,57.498 4.144,61.573 2.433,4.796 4.99,6.5 9.752,6.5 3.803,0 5.135,-0.518 7.391,-2.873 10.154,-10.598 10.75,-57.1 1.49,-116.261 -2.131,-13.616 -2.01,-19.834 0.428,-21.887 0.662,-0.557 2.764,-2.026 4.672,-3.264 5.261,-3.415 5.764,-6.731 2.634,-17.368 -2.34,-7.955 -2.504,-9.508 -1.549,-14.674 0.794,-4.294 0.748,-7.756 -0.178,-13.476 -2.088,-12.892 -1.485,-34.233 1.642,-58.197 2.766,-21.189 3.346,-36.332 2.377,-62 -0.622,-16.447 5.357,-29.612 11.866,-26.128 2.598,1.39 16.46,20.974 27.332,38.614 10.51,17.052 18.203,32.048 26.428,51.514 7.968,18.857 17.854,38.026 21.327,41.354 4.582,4.39 16.234,6.285 18.616,3.028 1.788,-2.446 6.62,-0.941 11.897,3.703 2.471,2.176 8.209,9.46 12.749,16.186 10.722,15.884 33.688,47.097 45.534,61.884 12.582,15.706 27.393,31.052 40.685,42.156 6.049,5.054 13.513,11.282 16.585,13.841 6.642,5.53 14.447,9.848 17.802,9.848 2.656,0 6.371,-1.68 7.52,-3.4 1.698,-2.544 0.696,-10.241 -2.096,-16.1 -3.422,-7.181 -8.633,-14.132 -22.113,-29.5 -5.549,-6.325 -17.035,-21.4 -25.526,-33.5 -21.198,-30.208 -36.059,-46.424 -56.638,-61.801 -7.746,-5.788 -9.958,-8.251 -11.344,-12.633 -0.732,-2.315 -0.525,-2.259 4.237,1.162 10.364,7.447 14.672,8.436 18.79,4.317 1.729,-1.728 2.455,-3.557 2.455,-6.184 0,-9.55 -9.381,-20.19 -38.781,-43.985 -15.897,-12.866 -27.129,-23.181 -48.261,-44.322 -25.709,-25.72 -35.393,-36.806 -37.893,-43.383 -0.835,-2.196 -0.687,-3.049 0.784,-4.52 1.751,-1.751 2.274,-1.694 15.232,1.664 12.7,3.29 14.357,3.482 30.919,3.581 11.427,0.068 22.532,-0.521 32,-1.696 33.701,-4.184 51.395,-11.503 69.495,-28.747 11.078,-10.553 17.07,-14.523 31.851,-21.102 17.991,-8.008 24.19,-12.138 37.011,-24.656 7.448,-7.273 12.619,-15.176 12.634,-19.31 0.013,-3.753 -3.49,-7.7 -7.502,-8.453 -7.606,-1.427 -16.215,3.586 -32.151,18.722 -12.497,11.87 -20.962,18.244 -36.709,27.643 -19.529,11.657 -44.497,22.029 -69.629,28.927 -7.919,2.173 -12.438,2.705 -27.157,3.192 -17.168,0.568 -21.803,0.038 -12.105,-1.383 10.187,-1.493 19.468,-7.841 28.879,-19.753 3.164,-4.004 8.256,-9.882 11.318,-13.062 5.298,-5.505 5.566,-6.032 5.575,-11 0.015,-7.337 1.384,-9.121 9.332,-12.157 9.524,-3.64 11.274,-5.725 11.05,-13.173 -0.31,-10.342 5.227,-18.07 27.498,-38.381 7.534,-6.871 14.38,-13.533 15.213,-14.804 0.833,-1.271 2.163,-5.703 2.956,-9.849 1.083,-5.657 2.415,-8.95 5.337,-13.196 4.524,-6.573 5.161,-8.42 8.654,-25.1 2.985,-14.256 5.359,-19.746 8.926,-20.641 4.235,-1.063 4.307,-4.878 0.204,-10.792 -2.593,-3.739 -2.359,-8.032 0.832,-15.248 1.715,-3.879 2.481,-7.183 2.284,-9.856 -0.259,-3.518 -0.755,-4.245 -3.964,-5.814 -3.565,-1.743 -3.629,-1.87 -2.256,-4.5 0.886,-1.699 1.414,-5.825 1.418,-11.078 0.004,-5.752 0.933,-12.322 2.969,-21 2.575,-10.974 2.997,-14.857 3.219,-29.629 0.292,-19.482 -0.05,-20.693 -7.616,-26.892 -5.325,-4.364 -5.563,-5.077 -5.86,-17.608 -0.199,-8.424 -0.588,-10.236 -3.433,-16 -1.764,-3.575 -4.13,-7.63 -5.257,-9.011 -1.174,-1.438 -2.488,-5.232 -3.074,-8.871 -1.686,-10.467 -3.94,-13.764003 -11.746,-17.182003 -9.594,-4.2 -9.465,-4.084 -10.729,-9.692 -1.577,-7.006 -3.203,-9.301 -14.339,-20.244 -5.317,-5.225 -12.03,-12.293 -14.918,-15.706 -5.913,-6.989 -17.523,-15.108 -26.51,-18.538 -4.608,-1.758 -6.561,-3.193 -8.854,-6.506 -2.336,-3.374 -3.55,-4.25 -5.891,-4.25 -1.934,0 -5.103,-1.586 -9.202,-4.605 -10.131,-7.4619996 -13.216,-8.7009996 -22.885,-9.1909996 -5.133,-0.26 -10.068,0.037 -12.177,0.733 -3.133,1.034 -4.107,0.887 -8.368,-1.266 -11.177,-5.645 -24.698,-7.83099995 -40.496,-6.54699995"
     stroke="none"
     fill="#000000"
     fill-rule="evenodd"
     id="path2" />
</svg>
