<?xml version="1.0" standalone="no"?>
<!DOCTYPE svg PUBLIC "-//W3C//DTD SVG 20010904//EN"
 "http://www.w3.org/TR/2001/REC-SVG-20010904/DTD/svg10.dtd">
<svg version="1.0" xmlns="http://www.w3.org/2000/svg"
 width="656.000000pt" height="1536.000000pt" viewBox="0 0 656.000000 1536.000000"
 preserveAspectRatio="xMidYMid meet">
<metadata>
Created by potrace 1.16, written by Peter Selinger 2001-2019
</metadata>
<g transform="translate(0.000000,1536.000000) scale(0.100000,-0.100000)"
fill="#000000" stroke="none">
<path d="M498 15266 c-152 -52 -284 -98 -293 -103 -36 -21 -205 -197 -205
-214 0 -29 37 -33 254 -26 111 4 220 3 243 -2 77 -15 268 -172 335 -276 63
-96 83 -177 82 -325 -2 -160 -21 -226 -154 -535 -181 -425 -376 -922 -449
-1148 -144 -446 -213 -992 -191 -1508 12 -261 56 -731 85 -906 39 -231 129
-591 207 -833 22 -69 84 -244 138 -390 224 -608 263 -784 295 -1345 22 -384
39 -527 76 -640 10 -33 26 -98 34 -143 9 -55 25 -102 49 -145 21 -37 51 -121
75 -207 48 -173 60 -203 163 -388 102 -182 125 -241 198 -519 32 -125 68 -252
80 -281 11 -29 36 -116 55 -194 25 -104 41 -148 59 -167 28 -31 42 -57 100
-194 72 -168 189 -362 314 -519 185 -233 270 -368 307 -488 9 -30 20 -118 25
-195 7 -116 18 -176 60 -345 73 -297 84 -390 84 -730 1 -194 -3 -309 -12 -360
-49 -275 -134 -422 -286 -494 -39 -18 -138 -52 -221 -76 -278 -78 -373 -129
-416 -225 -36 -78 -15 -102 34 -40 33 42 82 48 112 15 10 -11 29 -20 42 -20
25 0 206 52 420 121 120 38 183 48 183 29 0 -18 -104 -87 -216 -144 -62 -31
-138 -74 -170 -94 -65 -42 -164 -146 -188 -197 -20 -41 -21 -105 -2 -130 13
-18 15 -16 34 22 12 22 35 53 53 67 26 22 37 26 63 19 74 -18 127 1 246 88 73
53 163 99 195 99 11 0 26 9 33 20 7 12 45 36 85 54 42 19 98 57 134 89 58 52
109 77 156 77 26 0 61 -82 101 -237 37 -145 48 -169 75 -178 11 -3 32 -26 49
-51 l29 -45 15 23 c43 66 48 147 22 353 -16 128 -16 132 5 206 12 44 21 104
21 145 0 43 5 77 13 89 13 17 16 17 72 -10 79 -39 161 -45 210 -16 41 24 50
21 90 -26 30 -37 40 -40 61 -19 20 21 18 36 -16 89 -54 86 -223 189 -340 208
-87 14 -126 34 -159 83 -61 91 -85 207 -100 481 -17 321 9 533 95 795 47 144
48 146 48 281 1 158 3 155 -128 298 -42 47 -85 103 -96 126 -72 148 -26 562
87 793 l36 72 36 -6 c20 -3 105 -21 189 -40 84 -19 187 -37 228 -41 73 -6 76
-7 98 -42 38 -60 72 -158 114 -326 53 -210 66 -323 59 -498 -4 -119 -10 -161
-38 -262 -31 -110 -33 -132 -33 -260 0 -109 5 -162 23 -240 77 -341 75 -325
75 -550 0 -240 -10 -320 -84 -700 -26 -137 -55 -294 -64 -349 -9 -54 -25 -119
-37 -145 -11 -25 -24 -81 -29 -124 -7 -60 -15 -85 -34 -107 -13 -16 -29 -53
-36 -82 -6 -29 -17 -63 -25 -75 -16 -24 -222 -149 -312 -190 -32 -14 -103 -41
-158 -59 -55 -19 -150 -55 -211 -80 l-111 -47 -32 -61 c-28 -56 -39 -96 -25
-96 3 0 35 18 72 40 37 22 73 39 82 38 9 -2 16 -16 18 -36 4 -39 11 -39 99 -7
99 35 271 88 400 123 95 26 111 28 104 14 -26 -48 -96 -95 -338 -226 l-162
-88 -41 -94 c-40 -92 -51 -153 -36 -202 10 -31 20 -27 40 16 24 51 65 109 81
116 7 2 33 -9 58 -25 l45 -29 44 19 c25 10 77 48 116 83 38 34 121 92 184 127
62 36 181 105 263 154 83 49 192 110 242 135 l92 46 32 -29 c56 -54 224 -256
245 -296 29 -57 69 -99 93 -99 12 0 38 7 58 15 45 19 58 9 58 -42 0 -66 22
-48 40 33 22 95 16 193 -13 251 -12 23 -66 98 -120 165 -54 68 -110 144 -124
168 -42 72 -53 171 -32 276 2 14 14 23 33 27 43 9 63 46 69 127 5 77 12 70
-81 85 -27 4 -40 13 -46 28 -16 42 -23 351 -11 537 22 366 69 644 151 897 62
189 79 267 79 365 0 65 4 83 24 113 37 54 41 111 21 289 -11 100 -15 186 -11
233 11 139 86 317 259 618 44 77 98 181 120 230 47 108 55 119 73 104 8 -6 21
-9 29 -5 19 7 19 -5 0 -51 -20 -47 -19 -48 12 -23 27 21 28 21 43 2 15 -18 16
-18 33 5 22 28 41 30 34 3 -6 -23 10 -17 31 12 7 10 22 18 33 18 16 0 18 -3 9
-19 -14 -27 -13 -31 11 -31 12 0 23 -8 26 -20 6 -24 35 -26 53 -5 20 24 40 18
40 -11 0 -33 25 -27 26 7 2 51 4 55 16 34 6 -11 17 -24 25 -28 7 -4 13 -20 13
-34 0 -18 4 -24 15 -19 10 3 17 -3 21 -19 8 -30 15 -31 32 -5 7 12 17 18 23
14 6 -4 4 -13 -7 -25 -13 -14 -14 -19 -3 -19 7 0 24 12 37 27 l23 28 -6 -33
c-4 -20 -3 -32 4 -32 6 0 11 5 11 10 0 6 7 10 15 10 8 0 15 -9 15 -20 0 -29 9
-25 57 22 46 45 73 46 31 0 -14 -15 -31 -37 -37 -49 -10 -20 -9 -23 9 -23 13
0 32 17 52 45 18 25 38 45 46 45 9 0 6 -9 -10 -29 -28 -33 -54 -89 -45 -98 13
-12 38 8 66 54 51 83 62 96 73 85 14 -14 -2 -59 -41 -112 -38 -53 -40 -73 -7
-64 13 3 27 1 30 -5 10 -16 36 -14 36 2 0 20 33 47 58 47 25 0 28 -10 10 -29
-11 -10 -9 -12 7 -9 10 2 29 19 42 38 39 62 51 75 58 68 4 -4 -3 -23 -15 -43
-16 -26 -19 -40 -12 -47 8 -8 21 10 45 63 19 41 46 85 61 98 33 31 34 15 1
-29 -14 -19 -25 -40 -25 -48 0 -25 26 4 91 102 118 175 209 386 328 753 84
260 79 241 128 605 36 267 38 298 38 543 -1 226 -4 288 -28 470 -58 438 -118
672 -253 983 -66 154 -144 296 -219 401 -36 50 -108 161 -159 248 -52 87 -123
195 -158 241 -34 46 -71 99 -81 119 -10 19 -63 78 -119 131 -55 53 -107 112
-115 130 -7 18 -95 114 -196 214 -100 101 -186 192 -192 204 -13 28 -340 333
-469 437 -288 234 -579 380 -898 451 -213 48 -342 60 -618 60 -231 0 -278 -3
-500 -33 -385 -52 -578 -45 -726 25 -136 64 -339 246 -432 389 -29 44 -82 139
-117 210 -153 312 -221 585 -232 935 -10 301 19 492 147 964 104 387 160 676
191 981 15 157 15 464 0 590 -32 252 -111 454 -227 584 -42 46 -51 52 -76 47
-17 -3 -45 1 -65 9 -23 10 -70 15 -137 15 l-102 0 -276 -94z m4692 -10509 c-1
-33 -27 -64 -42 -49 -9 9 -7 20 7 46 20 37 35 38 35 3z"/>
</g>
</svg>
