<?xml version="1.0" encoding="UTF-8" standalone="no"?>
<!-- Created with Inkscape (http://www.inkscape.org/) -->

<svg
   xmlns:svg="http://www.w3.org/2000/svg"
   xmlns="http://www.w3.org/2000/svg"
   version="1.2"
   width="1171.7939"
   height="501.418"
   viewBox="0 0 1171.794 501.418"
   id="Layer_1"
   xml:space="preserve"
   style="overflow:inherit"><defs
   id="defs13" />
<g
   id="g3">
	<g
   id="Layer_2">
		<path
   d="m 351.619,158.832 c 11.032,-4.2 19.715,-7.241 26.05,-9.125 6.336,-1.886 15.062,-3.777 26.175,-5.676 11.113,-1.897 30.721,-5.964 58.825,-12.199 16.64,-12.343 31.214,-24.384 43.725,-36.125 12.511,-11.745 21.818,-20.212 27.925,-25.4 6.106,-5.184 15.565,-13.001 28.375,-23.45 12.814,-10.45 25.54,-19.192 38.176,-26.225 12.628,-7.036 22.128,-13.045 28.5,-18.025 3.133,-2.444 6.832,-3.169 11.1,-2.175 -2,2.504 -3,4.621 -3,6.35 0,1.767 0.667,2.65 2,2.65 0.104,0 0.229,-0.058 0.375,-0.175 0.379,0.117 0.837,0.175 1.375,0.175 1.134,0 3.05,-0.367 5.75,-1.1 2.767,-0.767 4.184,-1.15 4.25,-1.15 0.616,-0.075 1.183,-0.159 1.7,-0.25 0.573,0.439 1.156,0.897 1.75,1.375 -0.3,0.607 -0.45,1.332 -0.45,2.175 0,0.733 0.083,1.233 0.25,1.5 0.267,0.5 0.85,0.9 1.75,1.2 h 4.05 c 3.991,-0.992 5.35,0.316 4.075,3.925 -0.583,0.875 -0.875,1.583 -0.875,2.125 0,1.367 1.434,2.851 4.3,4.45 1.422,0.79 2.821,1.39 4.2,1.8 2.271,0.647 3.287,1.931 3.05,3.851 -0.082,0.188 -0.165,0.388 -0.25,0.6 -0.7,1.866 -1.05,3.217 -1.05,4.05 0,1.233 0.9,2.634 2.7,4.2 1.947,1.7 4.08,2.608 6.399,2.725 l 0.025,0.025 c 2.808,1.471 3.533,3.087 2.175,4.85 -1.364,1.772 -0.673,2.73 2.075,2.875 l -0.025,0.025 c 2.931,0.166 3.646,1.75 2.15,4.75 -1.499,3.003 -0.415,4.586 3.25,4.75 1.489,0.83 1.739,1.714 0.75,2.65 -0.987,0.929 -1.204,1.821 -0.65,2.675 0.552,0.86 1.068,1.428 1.551,1.7 v 0.024 c 1.944,3.133 2.636,5.324 2.074,6.575 -0.562,1.259 -0.712,2.517 -0.449,3.775 0.268,1.253 1.034,2.562 2.3,3.925 2.089,3.69 2.572,5.773 1.45,6.25 -0.017,0.475 -0.025,0.982 -0.025,1.524 0,2.301 0,3.467 0,3.5 0.226,1.869 0.775,2.669 1.65,2.4 2.095,1.6 2.678,2.841 1.75,3.725 -0.932,0.884 -1.249,1.542 -0.95,1.976 0.271,0.333 0.57,0.566 0.899,0.7 0.211,0.803 0.419,1.611 0.625,2.425 -0.149,0.548 -0.225,1.189 -0.225,1.925 0,1.467 0,2.217 0,2.25 0.216,1.081 0.808,1.664 1.775,1.75 0.294,1.136 0.594,2.278 0.899,3.425 -2.286,1.812 -3.087,3.762 -2.399,5.851 0.696,2.095 1.863,3.337 3.5,3.725 1.625,0.387 1.941,0.854 0.949,1.4 -0.984,0.539 -1.477,1.356 -1.475,2.449 0,1.301 0.95,2.051 2.85,2.25 -0.1,0.134 -0.267,0.65 -0.5,1.551 -0.233,0.866 -0.35,1.383 -0.35,1.55 0,0.467 1.233,1.733 3.7,3.8 2.633,2.167 4.533,3.25 5.7,3.25 h 0.024 c 1.125,1.31 2.316,2.542 3.575,3.7 0,0.095 0,0.194 0,0.3 0,0.967 0.066,1.634 0.2,2 0.333,0.833 1.066,1.25 2.2,1.25 0.638,0 1.222,-0.075 1.75,-0.225 0.289,0.203 0.58,0.403 0.875,0.6 0.725,0.485 1.433,0.985 2.125,1.5 -0.101,0.251 -0.15,0.56 -0.15,0.925 0,0.8 0.667,1.8 2,3 1.515,1.307 3.265,2.031 5.25,2.175 1.453,1.468 2.819,3.01 4.1,4.625 -0.399,0.334 -0.6,1.067 -0.6,2.2 0,0.8 0.083,1.334 0.25,1.601 0.5,0.833 1.717,1.233 3.65,1.199 0,-0.033 0.017,-0.05 0.05,-0.05 0.033,0 0.05,0.134 0.05,0.4 0,0.5 -0.417,1.25 -1.25,2.25 -0.833,1 -1.25,1.783 -1.25,2.35 0,0.867 0.3,1.467 0.9,1.8 0.964,0.561 2.914,0.86 5.85,0.9 0.018,0.032 0.034,0.065 0.05,0.1 7.311,0.235 16.228,-1.415 26.75,-4.949 10.523,-3.535 22.007,-8.868 34.45,-16 22.258,-5.899 34.324,-5.683 36.2,0.649 1.875,6.336 3.85,11.452 5.925,15.351 2.074,3.895 3.558,8.562 4.45,14 0.897,5.438 0.589,10.805 -0.925,16.1 16.888,-1.142 33.805,-6.55 50.75,-16.225 16.939,-9.676 32.364,-17.309 46.274,-22.9 13.919,-5.592 27.561,-12.358 40.925,-20.3 13.365,-7.938 27.474,-14.737 42.325,-20.4 14.851,-5.665 30.676,-9.223 47.476,-10.675 h 84 c 1.062,2.014 1.971,4.23 2.725,6.65 -0.083,0.731 -0.125,1.599 -0.125,2.6 0,2.2 0.25,4.25 0.75,6.15 0.44,1.626 1.024,2.885 1.75,3.774 0.038,0.337 0.071,0.679 0.1,1.025 0.121,1.465 0.221,3.006 0.301,4.625 -0.354,1.039 -0.721,2.048 -1.101,3.024 -0.366,1.2 -0.55,2.75 -0.55,4.65 0.482,2.111 1.091,3.745 1.825,4.9 -0.011,0.718 -0.027,1.443 -0.05,2.175 -0.684,1.738 -1.025,3.963 -1.025,6.675 0,0.267 0,1.616 0,4.05 0.104,0.797 0.279,1.456 0.525,1.976 -0.076,1.263 -0.201,2.513 -0.375,3.75 -2.434,4.131 -3.65,7.806 -3.65,11.024 v 1.3 c -0.099,0.22 -0.199,0.436 -0.3,0.65 -0.68,0.228 -1.413,0.895 -2.2,2 -0.467,1.033 -1.267,2.667 -2.4,4.9 -0.155,0.311 -0.347,0.919 -0.574,1.824 -0.565,0.783 -1.157,1.558 -1.775,2.325 -0.329,0.133 -0.68,0.283 -1.05,0.45 -3.5,1.6 -5.601,3.134 -6.3,4.6 -0.38,1.043 -0.921,2.518 -1.625,4.426 -0.13,0.117 -0.263,0.234 -0.4,0.35 -0.335,-0.233 -0.776,-0.325 -1.325,-0.275 -1.3,0.134 -2.899,1 -4.8,2.601 -2.89,2.456 -4.881,4.923 -5.975,7.399 -0.233,0.163 -0.466,0.321 -0.7,0.476 -0.904,-0.174 -2.129,-0.115 -3.675,0.175 -3.733,0.733 -6.917,2.366 -9.551,4.9 -0.321,0.456 -0.705,1.473 -1.149,3.05 -0.185,0.081 -0.367,0.164 -0.55,0.25 -0.257,-0.107 -0.557,-0.175 -0.9,-0.2 h -8.25 c -1.967,0.1 -4.083,1.35 -6.35,3.75 -0.83,0.856 -1.497,1.64 -2,2.35 -0.18,0.055 -0.354,0.113 -0.525,0.176 -0.045,-0.013 -0.086,-0.021 -0.125,-0.025 h -7 c -3.033,-0.167 -6.467,1.45 -10.3,4.85 -0.104,0.093 -0.204,0.185 -0.3,0.275 -1.446,0.393 -2.88,0.776 -4.301,1.15 -1.458,0.385 -2.899,0.81 -4.324,1.274 -0.405,-0.178 -0.914,-0.294 -1.525,-0.35 -1.767,-0.134 -3.767,0.25 -6,1.149 -2.709,1.084 -4.793,2.468 -6.25,4.15 -0.321,-0.24 -0.754,-0.34 -1.3,-0.3 -1.233,0.066 -2.767,0.75 -4.601,2.05 -4.399,3.134 -6.6,6.033 -6.6,8.7 3.044,8.181 6.985,13.022 11.825,14.524 0.456,0.582 2.048,2.323 4.774,5.226 2.731,2.899 3.748,4.815 3.051,5.75 -0.101,0.24 -0.15,0.523 -0.15,0.85 0,0.334 0.15,0.717 0.45,1.15 0.434,0.533 0.95,0.8 1.55,0.8 0.353,0 0.661,-0.066 0.925,-0.2 4.214,1.37 6.789,3.153 7.726,5.351 0.066,0.174 0.167,0.357 0.3,0.55 0.434,0.533 0.95,0.8 1.55,0.8 0.212,0 0.404,-0.025 0.575,-0.075 1.75,0.86 3.584,1.644 5.5,2.351 0.24,0.396 0.632,0.722 1.175,0.975 1.017,0.509 2.592,0.85 4.725,1.025 1.191,2 3.809,2.983 7.851,2.949 0.067,0.422 0.56,0.738 1.475,0.95 0.912,0.213 1.554,0.787 1.925,1.726 0.373,0.938 1.632,1.421 3.775,1.449 0,0.233 -0.083,0.7 -0.25,1.4 -0.066,0.7 0.066,1.25 0.4,1.65 0.959,1.176 3.718,1.601 8.274,1.274 0.33,0.253 0.655,0.503 0.976,0.75 -0.049,0.353 -0.116,0.811 -0.2,1.375 -0.134,0.934 -0.084,1.684 0.149,2.25 0.634,1.601 3.184,2.5 7.65,2.7 -0.3,0.9 -0.184,1.9 0.35,3 0.601,1.2 1.517,2.15 2.75,2.85 0.101,0.034 1.067,0.217 2.9,0.551 1.5,0.233 2.5,0.767 3,1.6 0,0.8 0.2,1.333 0.6,1.6 0.601,0.467 2.65,0.801 6.15,1 0.066,1.667 0.3,2.9 0.7,3.7 0.702,1.433 2.918,2.058 6.649,1.875 3.729,-0.181 5.553,0.652 5.476,2.5 -0.076,1.847 1.149,2.872 3.675,3.075 0,0.366 -0.083,1.05 -0.25,2.05 0.467,0.9 2.467,1.417 6,1.55 0,0.601 -0.083,1.667 -0.25,3.2 0,1.3 0.884,1.95 2.65,1.95 h 0.024 c -0.587,2.133 -2.962,3.966 -7.125,5.5 -2.922,-0.758 -13.13,2.117 -30.625,8.625 -17.501,6.511 -44.867,7.494 -82.1,2.95 -37.233,-4.539 -59.274,-6.306 -66.125,-5.3 -6.844,0.998 -23.961,-3.494 -51.351,-13.476 -27.397,-9.974 -50.281,-9.79 -68.649,0.55 -18.359,10.343 -34.176,17.259 -47.45,20.75 -13.279,3.484 -27.479,9.942 -42.6,19.375 -8.786,5.485 -19.786,8.993 -33,10.525 -6.328,4.041 -12.961,5.925 -19.9,5.65 -3.011,1.877 -6.194,3.085 -9.55,3.625 -3.363,0.534 -6.663,0.792 -9.9,0.774 -6.785,3.468 -13.727,5.093 -20.825,4.875 l -22.425,3.325 c -6.009,1.466 -11.125,2.033 -15.35,1.7 -0.967,1.372 -1.601,2.089 -1.9,2.149 -7.541,1.556 -14.674,2.188 -21.399,1.9 -6.863,2.762 -12.93,4.145 -18.2,4.15 -5.542,1.757 -10.709,2.99 -15.5,3.699 -2.593,0.389 -5.359,0.105 -8.3,-0.85 -18.243,3.982 -36.71,6.866 -55.4,8.65 -13.76,1.408 -38.593,7.258 -74.5,17.55 -19.638,9.79 -41.862,10.974 -66.675,3.55 -24.81,-7.418 -46.65,-14.501 -65.525,-21.25 -13.914,-0.662 -26.814,-2.271 -38.7,-4.825 -11.894,-2.558 -21.769,-4.732 -29.625,-6.524 -7.852,-1.785 -14.936,-4.085 -21.25,-6.9 -6.311,-2.821 -10.519,-4.421 -12.625,-4.8 -1.815,1.323 -6.982,2.84 -15.5,4.55 h -36 c -6.114,-1.129 -10.989,-3.87 -14.625,-8.225 -0.053,1.623 0.164,3.006 0.65,4.149 1.586,3.723 2.119,12.265 1.6,25.625 -0.521,13.359 -1.945,27.018 -4.274,40.976 -2.325,13.961 -4.209,22.686 -5.65,26.175 -1.446,3.484 -3.671,7.351 -6.675,11.6 -2.994,4.253 -2.828,-11.247 0.5,-46.5 1.26,-19.167 -0.399,-38.334 -4.975,-57.5 l -20.101,17.25 c -6.584,10.093 -12.851,20.317 -18.8,30.675 -0.08,-0.22 -0.821,0.872 -2.225,3.275 -1.403,2.398 -2.861,0.782 -4.375,-4.85 3.441,-6.63 7.641,-15.13 12.6,-25.5 -15.541,9.424 -27.832,16.999 -36.875,22.725 -2.114,0.854 -3.214,0.813 -3.3,-0.125 -0.093,-0.941 0.133,-1.892 0.675,-2.85 11.501,-10.121 25.918,-22.138 43.25,-36.051 5.297,-23.356 7.363,-39.606 6.2,-48.75 h -70.1 c -38.788,-4.355 -44.455,-6.923 -17,-7.699 29.359,1.605 56.793,-0.744 82.301,-7.051 -1.296,-4.671 2.771,-11.779 12.199,-21.324 9.426,-9.546 17.992,-20.555 25.7,-33.025 7.708,-12.474 22.591,-26.448 44.65,-41.925 22.065,-15.47 43.424,-28.703 64.075,-39.7 20.65,-11.003 37.351,-18.494 50.1,-22.475 12.744,-3.974 26.835,-9.091 42.275,-15.351 4.434,-1.731 8.851,-3.448 13.251,-5.147 z m -235.551,227.1 9.5,-9 -6,-9 -3.5,18 z"
   id="path6"
   style="fill:#010101;fill-opacity:0.99220001;fill-rule:evenodd" />
	</g>
	<g
   id="Layer_3">
		<path
   d="m 785.744,383.656 c -11.448,0.416 -20.69,0.725 -27.726,0.926 -0.934,-0.134 -1.866,-0.334 -2.8,-0.601 -1.967,-0.6 -3.783,-1.35 -5.45,-2.25 -1.833,-0.899 -3.5,-2.017 -5,-3.35 30.149,-22.525 57.316,-38.025 81.5,-46.5 24.188,-8.473 41.321,-11.164 51.4,-8.075 0.963,0.295 1.904,0.595 2.825,0.9 0.453,0.869 1.128,1.728 2.024,2.574 2.267,2.167 5.283,3.25 9.05,3.25 0.932,0 1.731,-0.133 2.4,-0.399 0.337,1.012 1.286,2.195 2.85,3.55 2.233,1.9 4.483,2.85 6.75,2.85 0.279,0 0.546,-0.008 0.801,-0.024 0.677,0.504 1.343,1.013 2,1.524 -0.034,0.212 -0.051,0.429 -0.051,0.65 0,2.467 1.934,3.884 5.801,4.25 0.81,0.754 1.609,1.521 2.399,2.3 -0.133,0.429 -0.2,0.912 -0.2,1.45 0,1.267 0.667,2.384 2,3.35 1.094,0.825 2.502,1.393 4.226,1.7 0.754,0.904 1.495,1.821 2.225,2.75 -13.8,6.938 -28.883,11.679 -45.25,14.226 -16.366,2.54 -32.892,5.565 -49.575,9.074 -16.684,3.504 -30.751,5.463 -42.199,5.875 z m -360.35,15.151 c 18.938,7.404 37.729,9.913 56.375,7.525 18.64,-2.395 31.307,-2.229 38,0.5 6.036,2.465 11.628,5.54 16.775,9.225 0.62,1.54 2.146,3.698 4.575,6.475 3,3.482 5.875,5.566 8.625,6.25 -0.018,0.316 -0.025,0.649 -0.025,1 0,1.834 0.583,3.834 1.75,6 1.219,2.271 2.811,3.729 4.775,4.375 0.042,2.052 0.234,3.56 0.574,4.525 0.859,2.334 2.518,3.726 4.976,4.175 -0.05,0.516 -0.075,1.074 -0.075,1.675 0,7.275 2.408,11.242 7.225,11.9 -0.149,0.893 -0.225,1.977 -0.225,3.25 0,1.5 0.75,3.25 2.25,5.25 1.414,1.852 2.981,2.985 4.7,3.4 0.114,0.386 0.231,0.77 0.35,1.149 l -0.2,0.5 c -26.066,1.867 -51.35,-1.066 -75.85,-8.8 -34.729,-10.965 -61.295,-21.265 -79.7,-30.9 -18.401,-9.634 -28.718,-18.117 -30.95,-25.449 -1.933,-6.367 -0.767,-12.117 3.5,-17.25 2.782,-3.918 13.64,-2.176 32.575,5.225 z"
   id="path9"
   style="fill:#010101;fill-opacity:0.99220001;fill-rule:evenodd" />
	</g>
</g>
</svg>