<?xml version="1.0" encoding="UTF-8" standalone="no"?>
<!-- Created with Inkscape (http://www.inkscape.org/) -->

<svg
   xmlns:svg="http://www.w3.org/2000/svg"
   xmlns="http://www.w3.org/2000/svg"
   version="1.0"
   width="482pt"
   height="671pt"
   viewBox="0 0 482 671"
   id="svg2">
  <defs
     id="defs12" />
  <g
     transform="matrix(0.1,0,0,-0.1,0,671)"
     id="g6"
     style="fill:#000000;stroke:none">
    <path
       d="m 1125,5718 c -10,-6 -32,-12 -48,-12 -17,-1 -33,-9 -40,-21 -7,-11 -21,-20 -32,-20 -27,0 -43,-56 -27,-99 8,-20 9,-32 2,-34 -20,-7 -9,-41 20,-65 34,-29 37,-37 15,-37 -28,0 -15,-30 26,-57 38,-25 39,-27 20,-35 -19,-7 -20,-10 -9,-28 7,-11 16,-20 20,-20 3,0 14,-7 23,-16 12,-12 13,-19 5,-24 -19,-12 -3,-43 30,-62 32,-18 41,-48 14,-48 -14,0 -16,-8 -12,-43 3,-23 1,-51 -3,-62 -7,-18 -8,-18 -8,5 -2,36 -26,102 -37,98 -5,-2 -10,12 -12,29 -2,19 -13,40 -26,50 -12,10 -25,26 -29,36 -9,23 -28,22 -34,-3 -3,-13 -14,-20 -28,-20 -12,0 -28,-7 -35,-15 -7,-8 -9,-15 -5,-15 5,0 0,-9 -10,-20 -17,-19 -17,-21 0,-46 14,-21 15,-28 4,-35 -10,-6 -5,-15 19,-39 25,-24 29,-32 17,-36 -23,-9 -18,-21 21,-48 35,-24 36,-24 14,-36 -22,-12 -21,-12 11,-36 18,-13 39,-24 47,-24 12,0 11,-4 -3,-20 -12,-13 -14,-20 -6,-20 7,0 24,-9 37,-19 24,-19 24,-20 5,-33 -19,-14 -18,-15 15,-33 39,-21 65,-56 45,-63 -7,-2 -11,-31 -11,-78 0,-41 -4,-74 -10,-74 -5,0 -11,-52 -12,-122 l -3,-123 -27,2 c -21,1 -26,-2 -22,-15 4,-12 -1,-9 -15,7 -12,13 -21,18 -21,12 0,-6 -5,-11 -11,-11 -6,0 -9,6 -6,14 8,20 -4,28 -20,15 -11,-9 -13,-2 -13,40 0,39 -4,51 -15,51 -10,0 -15,11 -16,33 0,17 -3,26 -6,20 -10,-25 -23,-12 -23,21 0,19 -4,38 -10,41 -5,3 -10,-1 -10,-9 0,-19 -16,-21 -23,-3 -2,6 -8,0 -12,-15 -4,-16 -11,-28 -16,-28 -5,0 -9,-11 -9,-25 0,-27 -17,-34 -26,-11 -3,8 -14,16 -25,19 -10,3 -19,12 -19,21 0,19 -20,22 -20,4 -1,-20 -39,33 -49,67 -5,17 -10,22 -10,13 -3,-47 -40,19 -42,73 0,13 -3,18 -6,12 -2,-7 -8,-13 -13,-13 -13,0 -32,68 -25,90 7,22 -10,28 -19,8 -3,-7 -5,5 -4,27 1,27 -2,39 -10,38 -7,-2 -12,8 -12,23 0,15 -4,23 -10,19 -6,-4 -17,-1 -25,5 -12,10 -15,9 -15,-5 0,-14 -3,-15 -15,-5 -13,11 -15,8 -15,-14 0,-16 -4,-25 -10,-21 -7,4 -9,-2 -4,-19 4,-16 2,-26 -5,-26 -6,0 -11,5 -11,12 0,6 -3,9 -6,5 -9,-9 6,-48 17,-42 5,3 6,-2 2,-11 -3,-10 -2,-15 3,-12 5,3 10,-9 11,-28 2,-45 -11,-43 -42,6 -14,23 -30,38 -35,35 -6,-3 -10,0 -10,8 0,9 -10,15 -25,15 -30,0 -31,-5 -8,-32 12,-14 13,-17 3,-9 -13,10 -18,8 -29,-10 -10,-15 -10,-22 -2,-25 20,-7 12,-32 -11,-32 l -21,0 23,-25 c 19,-21 21,-25 7,-25 -28,0 -19,-18 17,-35 19,-9 33,-22 30,-29 -4,-11 61,-43 79,-38 4,1 12,-9 17,-23 5,-14 16,-26 25,-26 8,-1 21,-2 27,-3 7,0 14,-9 16,-20 3,-13 0,-16 -9,-11 -7,5 -10,4 -6,-2 4,-6 17,-9 31,-8 20,3 23,-1 18,-19 -3,-11 -9,-27 -15,-34 -5,-7 -7,-16 -3,-19 4,-4 11,-1 16,7 8,12 10,10 10,-8 0,-15 4,-21 12,-16 7,5 8,3 3,-6 -4,-7 -3,-15 3,-19 15,-9 -2,-33 -19,-26 -8,3 -25,21 -38,41 -15,22 -27,31 -31,24 -5,-7 -10,-3 -15,12 -4,12 -8,26 -10,31 -1,4 -3,10 -4,15 -2,4 -6,-2 -11,-13 -7,-18 -10,-14 -29,25 -13,28 -21,38 -21,25 -1,-19 -1,-19 -19,2 -10,12 -22,19 -26,15 -5,-4 -5,-1 -1,6 10,16 -4,39 -14,22 -4,-7 -13,1 -23,22 -9,18 -17,27 -17,20 0,-7 5,-23 11,-35 8,-16 1,-12 -25,12 -19,19 -39,31 -43,28 -4,-4 -1,-13 5,-19 15,-15 16,-52 2,-43 -5,3 -10,2 -10,-2 0,-13 37,-42 45,-35 3,4 3,-1 -1,-11 -3,-9 -10,-17 -16,-17 -5,0 -6,-5 -3,-11 4,-6 14,-8 22,-5 8,4 11,1 8,-5 -4,-6 1,-17 11,-24 16,-12 16,-16 5,-24 -10,-7 -5,-17 25,-45 33,-29 36,-36 19,-36 -17,0 -16,-3 9,-23 20,-16 27,-29 23,-40 -4,-10 -2,-17 3,-17 6,0 12,0 15,0 3,0 14,-9 25,-20 12,-12 26,-18 33,-13 8,5 8,2 -1,-9 -11,-14 -8,-19 22,-37 45,-28 111,-93 108,-106 -1,-6 11,-18 26,-27 22,-13 28,-24 26,-46 -1,-23 4,-31 30,-42 25,-11 27,-15 12,-18 -16,-3 -13,-10 20,-43 26,-27 33,-39 22,-39 -15,0 -15,-3 -2,-30 9,-16 20,-30 25,-30 6,0 8,-4 5,-9 -4,-5 0,-12 6,-14 7,-3 2,-6 -12,-7 l -25,-1 23,-18 c 12,-11 22,-26 22,-34 0,-8 7,-17 15,-21 8,-3 15,-10 15,-16 0,-6 -4,-8 -10,-5 -5,3 -10,-1 -10,-9 0,-9 3,-16 8,-16 7,0 52,-62 52,-72 0,-3 -10,-4 -22,0 -19,4 -21,3 -12,-9 5,-8 16,-27 22,-43 11,-25 11,-28 -3,-23 -16,7 -22,-18 -6,-28 17,-10 53,-92 49,-111 -5,-25 -57,-22 -78,4 -9,10 -22,21 -29,23 -8,3 -19,20 -25,39 -7,19 -17,34 -24,33 -13,-3 -27,59 -18,82 5,13 -5,20 -26,16 -11,-1 -21,46 -15,64 4,8 2,17 -3,20 -4,3 -10,-1 -13,-7 -2,-7 -7,28 -11,79 -4,50 -13,117 -21,149 -7,32 -11,62 -9,66 2,3 -5,9 -16,13 -14,4 -20,15 -20,34 0,25 -49,159 -50,137 0,-5 -11,3 -25,18 -13,14 -28,26 -34,26 -13,0 -30,-109 -21,-140 4,-15 5,-31 1,-36 -9,-13 -31,-16 -31,-3 0,5 -4,8 -9,4 -5,-3 -12,-1 -16,5 -3,5 -1,10 4,10 6,0 11,8 11,18 0,14 -2,15 -10,2 -7,-11 -10,-11 -10,-2 0,7 -4,11 -9,7 -5,-3 -13,0 -17,6 -4,8 -3,9 4,5 13,-8 15,4 6,28 -6,15 -8,15 -21,-1 -8,-10 -12,-13 -9,-7 3,7 -1,29 -8,50 -11,30 -15,33 -15,16 -1,-15 -5,-21 -13,-16 -8,5 -9,-2 -5,-26 6,-28 5,-31 -8,-20 -19,16 -19,11 0,-33 19,-45 19,-51 0,-43 -8,3 -15,1 -15,-4 0,-6 3,-10 8,-10 11,0 43,-61 36,-71 -3,-6 6,-25 20,-44 14,-18 22,-36 17,-40 -6,-3 3,-19 20,-36 31,-32 38,-55 14,-45 -24,9 -18,-2 20,-35 39,-34 44,-49 18,-49 -14,0 -12,-4 7,-17 31,-21 50,-45 43,-56 -2,-4 1,-15 8,-23 16,-20 4,-30 -16,-14 -9,8 -14,22 -11,33 3,14 1,17 -11,13 -22,-9 -49,14 -31,25 10,7 9,9 -4,9 -10,0 -18,7 -18,15 0,8 -6,15 -14,15 -8,0 -17,14 -21,30 -5,23 -10,28 -19,21 -8,-7 -17,1 -30,32 -18,41 -18,41 -30,18 -11,-19 -14,-21 -19,-7 -4,9 -2,16 3,16 14,0 -22,80 -42,91 -10,5 -18,17 -18,27 0,9 -10,22 -22,27 -14,6 -24,21 -26,38 -4,31 -22,37 -22,7 0,-11 -4,-20 -10,-20 -6,0 -6,-9 0,-25 8,-20 6,-27 -5,-31 -11,-5 -12,-11 -4,-26 6,-11 8,-26 5,-34 -3,-8 1,-25 9,-38 8,-12 12,-25 9,-29 -3,-3 1,-16 10,-28 11,-16 12,-26 5,-35 -8,-10 -4,-20 16,-40 14,-14 24,-32 21,-40 -3,-7 7,-23 22,-34 18,-14 23,-23 15,-26 -7,-3 -13,-10 -13,-15 0,-5 6,-9 13,-9 16,-1 65,-39 50,-40 -29,0 -10,-27 29,-42 24,-9 35,-17 26,-17 -31,-2 -19,-17 22,-31 37,-12 54,-30 29,-30 -5,0 -8,-4 -5,-9 3,-5 32,-12 63,-17 32,-4 50,-9 41,-11 -34,-8 -7,-33 36,-33 23,0 56,-9 76,-20 19,-11 43,-23 53,-26 9,-4 17,-11 17,-18 1,-11 87,-56 109,-56 7,0 10,-4 7,-8 -7,-12 52,-31 108,-33 32,-2 62,-12 91,-30 23,-14 58,-34 78,-44 20,-9 35,-22 34,-28 -1,-5 16,-14 37,-19 53,-11 112,-48 95,-59 -8,-5 6,-10 39,-15 47,-6 106,-33 75,-34 -25,0 -12,-20 22,-34 19,-8 38,-22 41,-31 4,-9 12,-14 19,-11 7,2 24,-7 38,-20 14,-13 31,-24 38,-24 7,0 9,-9 5,-25 -5,-20 -3,-25 13,-25 23,0 73,-57 69,-79 -2,-8 13,-30 32,-47 19,-18 46,-50 58,-73 20,-36 21,-41 6,-41 -12,0 -8,-9 17,-38 77,-87 111,-137 79,-117 -15,9 -12,-8 5,-31 17,-22 19,-34 6,-34 -5,0 -12,9 -16,19 -3,11 -12,18 -19,15 -8,-3 -16,5 -20,21 -4,14 -11,23 -16,20 -6,-3 -15,6 -21,22 -7,19 -12,24 -18,15 -6,-9 -13,-3 -24,20 -9,18 -17,27 -17,21 0,-23 -15,-14 -29,18 -8,18 -19,28 -26,25 -8,-3 -19,3 -27,11 -11,15 -11,16 5,10 9,-3 17,-2 17,3 0,16 -20,22 -34,11 -10,-8 -17,-7 -26,4 -7,8 -17,15 -22,15 -6,0 -5,-7 2,-15 7,-9 10,-18 7,-22 -9,-8 -57,44 -57,63 0,10 -7,13 -24,8 -22,-5 -28,-2 -65,42 -11,13 -15,13 -22,3 -4,-7 -10,-11 -12,-9 -2,3 -14,20 -26,38 -20,29 -43,43 -40,25 7,-44 -3,-45 -41,-5 -22,23 -45,53 -50,67 -6,16 -14,23 -25,19 -10,-4 -15,0 -15,10 0,9 -7,16 -15,16 -10,0 -15,10 -15,30 0,18 -5,30 -13,30 -9,0 -12,11 -9,37 4,31 2,35 -13,29 -15,-5 -17,-2 -13,24 4,23 1,30 -11,28 -17,-3 -18,3 -6,39 5,18 3,22 -8,17 -10,-4 -14,2 -14,22 0,18 -13,37 -39,61 -65,57 -138,35 -113,-34 6,-17 5,-23 -5,-23 -8,0 -16,7 -20,15 -3,9 -12,12 -23,8 -10,-3 -15,-3 -11,2 4,4 1,14 -7,21 -17,17 -49,19 -39,2 5,-8 2,-9 -9,-5 -10,3 -17,2 -17,-3 0,-6 -7,-10 -16,-10 -12,0 -15,-6 -10,-22 3,-13 6,-30 6,-39 0,-9 14,-22 30,-29 17,-7 30,-18 30,-24 0,-6 15,-18 33,-26 17,-8 32,-19 31,-25 -1,-5 12,-18 28,-28 22,-13 28,-22 23,-37 -4,-11 -2,-20 4,-20 13,0 81,-59 81,-71 0,-16 -21,-9 -46,16 -14,14 -29,25 -34,25 -6,0 -10,3 -10,8 0,12 -49,31 -52,20 -2,-5 -15,-1 -28,10 -22,18 -25,18 -37,3 -7,-9 -12,-11 -11,-6 3,13 -52,95 -63,95 -5,0 -6,-8 -3,-17 3,-10 -5,-1 -17,20 -13,20 -30,37 -40,37 -9,0 -28,11 -43,25 -14,13 -33,22 -40,19 -8,-3 -19,3 -26,15 -13,25 -32,28 -23,4 5,-12 -1,-11 -24,7 -17,12 -36,20 -41,16 -6,-3 -13,-2 -17,4 -10,17 -35,11 -35,-8 0,-9 -9,-23 -20,-30 -39,-24 -19,-86 31,-97 19,-4 29,-12 25,-20 -3,-8 14,-21 47,-34 35,-15 47,-25 40,-32 -7,-7 -19,-6 -38,3 -22,10 -29,10 -32,1 -3,-9 -11,-6 -26,7 -23,22 -37,26 -37,10 0,-5 -6,-7 -14,-4 -21,8 -43,-34 -45,-85 -2,-64 30,-91 119,-98 55,-5 67,-9 63,-21 -5,-11 -2,-12 13,-5 36,19 84,24 84,9 0,-11 8,-12 40,-4 29,8 44,7 54,-1 9,-8 32,-10 65,-5 43,6 51,4 51,-10 0,-12 6,-15 25,-11 14,3 36,7 50,10 18,4 25,1 25,-11 0,-11 8,-15 33,-13 56,4 70,0 63,-16 -4,-12 5,-15 49,-15 48,0 55,-2 55,-20 0,-16 7,-20 36,-20 23,0 33,-4 28,-11 -4,-8 1,-9 17,-4 21,7 22,6 10,-9 -12,-15 -8,-16 48,-16 61,0 71,-6 49,-28 -9,-9 -1,-12 36,-12 53,0 91,-24 65,-41 -9,-6 -1,-9 28,-9 48,0 75,-8 68,-21 -6,-8 50,-42 60,-37 4,2 16,-6 28,-18 12,-11 32,-26 45,-33 19,-10 21,-15 11,-27 -9,-11 -7,-14 10,-14 27,0 73,-29 65,-41 -3,-5 8,-14 25,-20 17,-6 28,-15 25,-20 -3,-5 2,-12 11,-15 18,-7 75,-86 75,-105 0,-7 13,-24 30,-39 40,-36 66,-101 75,-190 10,-87 10,-93 5,-267 -2,-78 -7,-133 -13,-133 -5,0 -7,-15 -4,-36 3,-19 2,-47 -4,-61 -9,-24 -11,-25 -27,-9 -10,9 -25,45 -32,81 -7,36 -16,63 -18,60 -10,-10 -32,18 -32,40 0,13 -18,50 -40,83 -22,33 -40,71 -40,86 0,16 -5,26 -15,26 -9,0 -15,9 -15,25 0,18 -4,23 -15,19 -11,-4 -15,1 -17,17 -3,49 -4,54 -16,52 -18,-4 -34,35 -31,80 2,50 -6,74 -38,106 -13,13 -23,29 -23,35 0,6 5,4 10,-4 8,-13 10,-12 10,3 0,9 -5,17 -11,17 -11,0 -10,20 7,84 5,23 3,26 -19,26 -19,0 -28,7 -36,31 -8,23 -15,30 -27,25 -8,-3 -20,-6 -25,-6 -5,0 -9,-6 -9,-14 0,-9 -7,-12 -20,-9 -23,6 -24,4 -9,-34 13,-33 20,-173 9,-173 -22,0 27,-114 57,-133 7,-4 13,-18 13,-30 1,-14 15,-32 40,-49 22,-15 40,-35 40,-44 0,-8 14,-27 30,-41 17,-13 30,-31 30,-40 0,-8 14,-26 31,-40 16,-14 28,-32 25,-39 -3,-7 8,-26 24,-41 17,-15 30,-33 30,-40 0,-6 10,-24 23,-40 27,-33 59,-111 48,-118 -4,-2 -18,9 -30,25 -12,17 -30,30 -40,30 -26,0 -137,120 -145,157 -4,17 -13,37 -21,43 -8,6 -11,18 -8,26 3,8 -1,14 -11,14 -9,0 -16,5 -16,11 0,5 -4,7 -10,4 -5,-3 -7,0 -5,7 4,10 -6,14 -36,15 -35,2 -40,0 -33,-15 4,-9 8,-29 8,-45 1,-19 10,-33 31,-46 35,-21 83,-71 69,-71 -5,0 -2,-5 6,-10 11,-8 4,-10 -27,-8 -23,1 -41,6 -40,11 1,5 -8,10 -20,12 -14,1 -19,-3 -16,-12 7,-19 -11,-16 -38,6 -17,14 -29,16 -41,10 -14,-7 -16,-6 -12,6 4,8 1,15 -5,15 -6,0 -11,-7 -11,-15 0,-18 -5,-18 -31,-5 -15,9 -19,7 -19,-6 0,-15 -3,-15 -27,2 -16,10 -34,23 -41,30 -7,7 -29,12 -50,11 -35,-2 -37,-4 -46,-44 -11,-55 -5,-69 41,-88 108,-46 121,-48 177,-26 75,30 142,36 196,17 51,-18 63,-20 56,-7 -9,15 68,-5 104,-27 45,-27 96,-91 78,-96 -7,-2 -34,-10 -60,-17 -26,-7 -44,-17 -41,-23 4,-5 -3,-7 -15,-4 -12,4 -22,2 -22,-4 0,-5 -5,-6 -10,-3 -6,3 -13,-2 -16,-12 -9,-28 -18,-45 -26,-44 -8,0 -111,-60 -146,-86 -28,-20 -45,-50 -37,-63 8,-13 56,12 103,54 36,31 157,116 166,116 3,0 3,-11 0,-25 -2,-14 -1,-25 3,-24 28,5 45,-2 36,-13 -13,-17 -30,-89 -38,-155 -6,-55 11,-88 41,-76 12,4 14,18 8,76 l -7,70 24,-6 c 13,-3 31,-2 39,4 13,8 12,11 -4,24 -10,8 -24,16 -30,18 -21,8 10,41 45,49 19,3 35,5 37,3 2,-1 -3,-19 -12,-38 -14,-34 -12,-47 5,-47 5,0 20,23 34,50 22,43 29,50 55,50 26,0 30,-3 30,-29 0,-16 3,-36 6,-45 5,-13 8,-13 20,-1 8,7 14,25 14,38 0,19 7,27 27,32 17,4 29,2 31,-4 6,-19 32,-12 32,8 0,10 7,22 16,25 13,5 8,13 -25,36 -22,17 -46,30 -52,30 -5,0 -7,5 -4,10 3,6 -2,10 -13,10 -10,0 -27,9 -37,20 -19,20 -18,22 35,70 30,28 61,50 68,50 8,0 26,6 40,13 15,8 41,20 57,29 21,10 29,21 28,36 -4,30 31,46 92,43 41,-1 52,2 63,19 10,16 10,20 -1,20 -20,0 -77,30 -77,40 0,9 39,25 52,22 4,-1 12,7 18,18 18,33 83,89 105,90 24,1 59,27 74,58 7,13 21,22 34,22 12,0 38,8 57,19 27,14 35,25 36,50 1,20 -3,31 -12,31 -24,0 -26,21 -2,39 29,23 52,98 52,176 1,36 6,63 14,68 6,4 12,22 12,39 0,26 -3,30 -21,25 -19,-5 -21,-2 -17,24 4,25 1,29 -18,29 -13,0 -26,5 -29,10 -10,16 -43,11 -48,-7 -2,-10 -5,-47 -6,-83 -2,-36 -6,-67 -11,-70 -4,-3 -11,-24 -15,-47 -3,-23 -12,-41 -18,-40 -5,1 -15,-15 -20,-35 -5,-23 -16,-40 -28,-43 -12,-4 -19,-16 -19,-31 0,-14 -10,-35 -23,-47 -12,-12 -29,-34 -36,-49 -8,-16 -18,-28 -22,-28 -4,0 -13,-16 -19,-34 -8,-24 -16,-33 -26,-29 -10,4 -14,-2 -14,-21 0,-15 -8,-30 -20,-36 -11,-6 -20,-18 -20,-26 0,-10 -6,-14 -14,-11 -9,4 -17,-2 -21,-14 -4,-10 -11,-17 -16,-14 -5,4 -16,-10 -25,-29 -10,-19 -22,-32 -29,-30 -7,3 -15,-6 -19,-20 -3,-14 -13,-26 -21,-26 -7,0 -17,-9 -20,-20 -3,-11 -12,-20 -18,-20 -7,0 -22,-15 -34,-33 -31,-45 -93,-104 -93,-88 0,7 8,25 18,39 9,15 22,34 27,43 6,9 23,36 39,60 17,24 36,62 43,83 8,22 25,52 39,68 13,16 24,36 24,44 0,8 4,14 8,14 4,0 9,20 10,45 2,46 -5,54 -26,33 -8,-8 -15,-8 -27,2 -12,10 -15,10 -15,-4 0,-9 -5,-16 -10,-16 -6,0 -8,-10 -5,-22 10,-42 -74,-245 -121,-292 -8,-8 -15,-26 -16,-40 -1,-13 -6,-22 -11,-19 -20,12 13,195 40,226 10,10 12,17 5,17 -16,0 -15,89 1,118 14,24 76,62 103,62 9,0 12,5 8,12 -5,8 0,9 14,6 16,-5 22,-2 22,11 0,9 5,22 12,29 9,9 8,12 -4,12 -9,0 -18,5 -20,11 -3,8 -14,7 -35,-5 -39,-20 -43,-20 -43,-2 0,8 13,24 29,35 16,12 32,32 35,46 4,14 21,39 39,55 27,25 29,31 17,39 -12,8 -9,15 18,42 17,17 32,39 32,49 0,19 30,50 48,50 15,0 16,17 2,25 -6,4 6,20 27,37 51,40 49,38 34,48 -11,6 -7,15 18,41 32,35 38,49 21,49 -14,0 1,33 22,48 21,15 24,38 6,45 -8,3 -1,15 20,32 36,30 42,50 12,42 -17,-4 -18,-2 -9,14 5,10 21,26 34,35 29,19 32,42 8,51 -10,4 -21,11 -24,16 -4,5 -14,5 -25,0 -30,-14 -80,-3 -96,21 -5,7 -8,7 -8,-2 0,-7 -5,-10 -10,-7 -6,3 -14,-4 -19,-17 -5,-14 -5,-25 1,-29 5,-3 3,-9 -6,-12 -9,-4 -17,-1 -17,6 -1,7 -5,-10 -10,-38 -4,-27 -13,-51 -19,-53 -5,-2 -10,-15 -10,-28 0,-13 -4,-24 -9,-24 -13,0 -31,-60 -34,-113 -1,-25 -6,-42 -11,-39 -5,3 -7,-2 -3,-10 4,-11 1,-14 -12,-11 -14,3 -19,-7 -29,-56 -7,-34 -21,-69 -31,-78 -10,-10 -21,-40 -25,-67 -3,-27 -10,-54 -15,-60 -5,-6 -12,-27 -16,-46 -4,-19 -16,-45 -27,-57 -11,-12 -22,-37 -24,-55 -8,-66 -21,-46 -28,41 -5,72 -4,97 9,120 8,17 15,35 15,41 0,14 -27,13 -33,-2 -3,-7 -6,10 -6,37 -1,28 4,56 10,62 14,14 1,36 -17,29 -9,-4 -14,2 -14,15 0,11 3,18 8,16 4,-3 7,15 8,39 0,24 -3,44 -8,44 -4,0 -8,10 -9,23 0,21 -1,21 -10,-3 -13,-33 -25,-14 -28,47 -1,26 -4,50 -7,54 -2,4 1,9 7,11 5,2 7,11 4,20 -5,13 -14,16 -36,11 l -29,-6 0,57 c 0,43 -3,56 -15,56 -21,0 -20,78 1,108 21,30 10,41 -16,17 -20,-18 -20,-18 -20,43 0,33 5,64 10,67 5,3 10,11 10,17 0,7 -6,6 -15,-2 -13,-11 -15,-7 -15,23 0,46 28,129 47,140 12,7 12,11 -4,23 -17,13 -17,15 7,34 17,13 20,20 10,20 -10,0 -6,8 13,25 15,14 27,34 27,43 0,16 10,22 75,48 19,7 19,8 -2,11 -13,3 -23,9 -23,14 0,12 61,39 87,39 26,0 52,20 35,27 -22,9 19,32 56,33 29,0 32,3 27,20 -5,15 0,21 22,26 49,10 55,14 50,28 -6,16 13,26 49,26 17,0 24,6 24,19 0,10 17,30 42,46 35,24 39,29 24,37 -15,8 -11,14 28,46 37,30 42,38 28,43 -13,5 -10,10 18,24 19,10 29,20 23,22 -19,7 -16,20 8,44 17,17 19,23 8,30 -11,8 -10,13 9,28 22,19 31,38 12,26 -5,-3 -10,-1 -10,5 0,6 7,13 15,16 24,10 18,24 -15,35 -17,6 -30,17 -30,25 0,8 -6,11 -15,8 -8,-4 -15,-1 -15,5 0,18 -18,12 -25,-8 -3,-11 -12,-18 -19,-15 -7,3 -20,-11 -31,-36 -14,-31 -21,-38 -31,-29 -11,9 -17,2 -30,-31 -13,-31 -21,-40 -34,-37 -14,4 -22,-6 -35,-39 -16,-41 -31,-51 -47,-29 -4,5 -10,1 -14,-10 -5,-11 -16,-29 -26,-39 -10,-11 -18,-24 -18,-29 0,-4 -8,-6 -18,-3 -12,4 -23,-2 -34,-22 -20,-33 -81,-102 -91,-102 -14,0 -6,41 12,59 10,10 22,28 26,40 3,12 12,21 19,21 13,0 46,31 46,43 0,3 -8,7 -17,9 -12,3 -1,13 35,31 50,26 61,47 24,47 -12,1 -9,7 13,23 16,12 34,22 39,22 5,0 11,6 13,13 3,6 0,12 -7,12 -15,0 47,60 63,60 7,1 5,6 -5,13 -15,12 -12,17 28,51 44,38 57,61 29,50 -23,-9 -18,8 16,49 26,31 28,37 12,37 -15,1 -12,6 12,27 19,17 25,28 17,31 -18,6 -4,22 19,22 21,0 26,15 8,26 -6,3 -8,16 -5,28 7,29 -14,61 -41,62 -13,0 -23,-3 -23,-8 0,-4 -9,-8 -21,-8 -11,0 -17,-4 -14,-10 3,-5 2,-10 -4,-10 -6,0 -8,12 -5,29 5,24 2,29 -18,34 -37,10 -62,2 -73,-21 -5,-12 -13,-22 -17,-22 -5,0 -8,-16 -8,-35 0,-27 -4,-35 -18,-35 -15,0 -17,-6 -14,-36 4,-29 1,-36 -17,-41 -17,-4 -21,-13 -21,-44 0,-40 -7,-48 -28,-27 -9,9 -12,-1 -12,-46 0,-42 -3,-56 -12,-53 -7,2 -12,10 -10,17 1,7 -2,18 -8,25 -6,7 -7,21 -3,30 5,15 3,17 -11,12 -15,-6 -17,-3 -11,26 12,57 15,82 9,70 -3,-7 -12,-13 -19,-13 -10,0 -11,9 -4,38 11,48 11,54 -1,47 -6,-4 -9,16 -7,54 l 3,61 -34,6 c -19,4 -38,2 -44,-4 -6,-6 -17,-8 -24,-5 -8,3 -14,-1 -14,-11 0,-18 -21,-21 -36,-6 -13,13 -54,1 -54,-16 0,-17 -16,-18 -27,-1 -5,7 -10,-7 -13,-38 -4,-35 -1,-55 9,-68 13,-16 13,-17 -2,-11 -10,3 -17,1 -17,-5 0,-6 5,-11 10,-11 6,0 10,-8 10,-19 0,-10 12,-30 26,-45 21,-20 23,-26 10,-26 -9,0 -16,-4 -16,-10 0,-5 4,-10 9,-10 5,0 13,-10 17,-22 4,-13 14,-28 23,-35 14,-11 14,-12 -3,-13 -13,0 -16,-3 -8,-12 16,-22 20,-77 5,-82 -10,-4 -11,-11 -4,-24 13,-25 2,-202 -13,-199 -7,1 -10,-18 -8,-56 3,-55 2,-58 -17,-52 -19,6 -20,4 -12,-18 14,-35 2,-107 -15,-100 -10,3 -14,-3 -14,-20 0,-48 -12,-86 -25,-81 -7,3 -16,-4 -20,-14 -9,-30 -45,-73 -56,-67 -5,4 -9,22 -9,42 0,31 -2,34 -16,22 -14,-12 -15,-7 -9,46 4,33 9,68 11,78 6,21 -12,23 -20,2 -13,-35 -21,-10 -16,50 5,61 0,79 -15,55 -12,-19 -27,2 -20,28 3,14 10,44 14,67 7,38 6,42 -11,37 -22,-5 -23,4 -4,49 7,19 16,48 19,65 5,28 4,31 -13,27 -17,-5 -18,-3 -3,44 9,26 20,56 24,65 13,26 11,32 -6,18 -8,-7 -15,-10 -15,-7 0,16 44,117 51,117 5,0 9,9 9,20 0,14 -5,18 -17,13 -16,-6 -17,-5 -3,13 9,10 26,39 39,64 13,25 31,53 40,64 15,18 15,18 -6,12 -32,-10 -29,-1 18,47 88,91 96,104 59,92 -11,-3 -20,-2 -20,3 0,10 76,76 114,100 20,12 19,13 -6,7 -40,-8 -35,7 18,59 39,38 43,47 29,52 -14,6 -9,14 30,50 25,24 44,47 41,52 -6,10 40,62 55,62 6,0 8,9 4,19 -4,14 4,27 32,48 46,34 55,46 42,53 -5,4 5,16 22,29 17,13 28,25 25,28 -3,3 -1,14 5,25 16,29 -13,68 -51,68 -16,0 -32,5 -35,10 -4,6 -14,1 -24,-11 -11,-13 -23,-19 -30,-15 -7,5 -9,12 -3,19 5,7 12,33 15,60 6,42 5,47 -13,47 -11,0 -20,3 -20,8 0,4 -12,12 -26,19 -20,9 -26,9 -31,-3 -3,-8 -11,-14 -19,-14 -9,0 -14,-11 -14,-31 0,-27 -2,-30 -15,-19 -12,10 -16,10 -20,-1 -4,-12 -12,-57 -14,-83 -1,-4 -8,-5 -17,-2 -14,6 -15,-1 -9,-49 5,-46 4,-54 -8,-49 -10,4 -16,-4 -19,-25 -3,-17 -2,-31 2,-31 4,0 6,-10 5,-22 -2,-17 -8,-22 -23,-21 -15,2 -22,-5 -27,-28 -6,-27 -55,-93 -55,-74 0,20 24,85 32,85 4,0 8,5 8,11 0,6 -7,9 -15,5 -15,-5 -15,13 1,62 2,6 -1,12 -7,12 -6,0 -8,9 -4,20 4,11 8,39 10,63 1,23 8,55 14,70 14,35 14,50 1,42 -19,-12 -1,46 21,65 13,11 17,39 7,42 -6,2 5,22 25,45 20,22 34,43 30,46 -3,4 10,24 30,46 52,58 70,88 72,124 0,18 3,37 4,42 9,28 -1,44 -30,50 -22,5 -34,3 -41,-6 -7,-11 -11,-11 -15,-1 -7,18 -21,15 -28,-8 -4,-14 -13,-19 -23,-16 -12,4 -22,-6 -36,-36 -15,-32 -21,-37 -27,-25 -5,9 -5,26 1,41 6,17 6,27 -1,31 -5,4 -7,15 -4,26 5,15 2,18 -12,13 -16,-5 -17,-4 -2,8 15,12 14,15 -17,24 -26,9 -37,8 -45,-2 -6,-7 -16,-11 -23,-8 -8,3 -16,-5 -20,-20 -4,-15 -11,-23 -19,-20 -10,4 -14,-8 -16,-42 0,-26 -6,-53 -12,-61 -9,-9 -8,-17 1,-28 14,-17 5,-35 -17,-35 -13,0 -15,-9 -11,-45 3,-24 1,-46 -4,-47 -4,-2 -2,-24 6,-50 12,-42 12,-54 -1,-99 -11,-37 -12,-54 -4,-62 6,-6 11,-18 11,-27 0,-13 -1,-13 -10,0 -8,13 -10,12 -10,-2 0,-10 5,-18 10,-18 6,0 10,-8 10,-17 0,-15 -2,-16 -10,-3 -9,14 -15,7 -11,-14 1,-5 -4,-4 -12,2 -8,7 -17,10 -20,7 -4,-3 -5,-2 -2,2 3,3 -5,11 -18,18 -30,15 -29,81 2,105 21,15 41,71 41,115 0,19 -1,19 -18,-3 -17,-22 -18,-22 -19,-3 -1,12 2,23 8,26 5,4 9,17 9,31 0,15 -4,23 -11,19 -6,-4 -1,11 10,34 21,40 30,81 12,52 -7,-10 -10,-11 -16,0 -5,8 1,20 18,33 25,21 52,74 43,84 -3,3 -8,-2 -12,-11 -3,-9 -12,-13 -19,-10 -11,4 -10,11 7,33 11,15 17,33 14,39 -4,6 -1,14 8,17 9,3 12,12 9,22 -5,11 -2,14 10,9 9,-3 19,-2 22,3 4,6 1,10 -5,10 -8,0 -9,7 -5,18 11,24 16,112 7,110 -4,-1 -20,4 -36,11 -22,9 -31,9 -36,0 -6,-8 -9,-8 -14,0 -10,15 -66,14 -66,-1 0,-9 -3,-8 -10,2 -7,12 -12,12 -22,2 -9,-9 -9,-12 0,-12 7,0 12,-4 12,-10 0,-5 -3,-10 -7,-9 -5,1 -18,-2 -30,-6 -20,-6 -20,-9 -8,-22 19,-19 19,-43 0,-43 -10,0 -15,-10 -15,-27 0,-59 -18,-57 -25,2 -7,53 -9,57 -21,40 -18,-24 -18,-16 1,29 14,33 13,40 -7,37 -4,0 -5,13 -1,29 5,30 -10,43 -20,18 -3,-7 -6,4 -6,25 -1,39 -9,45 -29,25 -9,-9 -12,-7 -12,9 0,28 -11,34 -35,21 z m 235,-1131 c 0,-13 5,-28 11,-34 7,-7 12,-42 13,-80 1,-61 -2,-73 -31,-117 l -32,-49 -12,29 c -12,31 0,143 24,232 12,45 27,56 27,19 z M 747,4287 c -3,-7 3,-18 12,-24 10,-6 28,-33 40,-59 18,-37 20,-49 10,-55 -11,-6 -11,-15 -1,-42 16,-43 15,-48 -4,-40 -14,5 -14,2 2,-28 18,-36 22,-51 30,-139 4,-51 4,-54 -11,-36 -8,11 -15,31 -15,44 0,20 -3,22 -14,13 -11,-10 -16,-8 -21,8 -3,12 -4,30 0,40 4,14 1,19 -12,17 -19,-1 -21,12 -9,58 5,20 3,24 -9,20 -18,-7 -19,2 -4,46 8,23 9,34 1,39 -7,4 -8,19 -3,44 7,29 6,37 -5,37 -14,0 -20,50 -7,63 11,12 25,8 20,-6 z m 312,-210 c 8,-20 6,-27 -7,-32 -15,-6 -13,-8 8,-20 22,-12 70,-66 70,-80 0,-3 -6,-5 -14,-5 -23,0 -29,-19 -9,-27 23,-9 39,-29 58,-72 17,-38 20,-65 6,-56 -12,7 -26,-15 -15,-24 12,-8 50,-79 59,-110 5,-17 4,-22 -5,-16 -7,4 -11,4 -8,-1 37,-77 48,-106 43,-113 -3,-5 1,-12 7,-14 7,-3 3,-6 -9,-6 -29,-1 -29,-5 1,-44 33,-44 44,-87 21,-87 -22,0 -14,-23 13,-35 12,-5 29,-25 39,-45 10,-19 24,-41 31,-48 16,-18 15,-30 -4,-34 -13,-2 -12,-7 6,-28 45,-51 55,-71 39,-80 -11,-7 -9,-14 13,-37 26,-29 50,-70 62,-110 6,-17 3,-23 -8,-23 -13,0 -13,-5 4,-32 10,-17 17,-35 14,-39 -2,-4 0,-10 6,-14 17,-10 11,-25 -7,-18 -24,9 -63,51 -63,67 0,8 -7,16 -15,20 -8,3 -15,1 -15,-4 0,-30 -72,30 -91,75 -6,16 -8,17 -8,3 -2,-32 -32,-7 -56,46 -19,40 -24,45 -25,26 0,-21 -2,-22 -14,-10 -8,8 -24,33 -35,55 -12,22 -21,32 -21,22 0,-9 -4,-17 -8,-17 -13,0 -32,72 -26,100 5,25 4,25 -7,3 -7,-13 -15,-23 -19,-23 -10,0 -23,68 -15,80 3,6 2,10 -4,10 -5,0 -12,-6 -15,-12 -4,-7 -4,-3 -2,10 2,12 0,22 -5,22 -12,0 -11,47 2,72 6,11 8,22 6,25 -3,3 -12,-8 -21,-24 l -15,-28 -1,47 c 0,26 5,50 10,53 6,3 10,14 10,23 -1,16 -2,16 -14,0 -22,-30 -29,-20 -24,36 3,39 1,53 -7,50 -16,-6 -30,135 -15,150 13,13 13,49 0,41 -6,-4 -8,22 -5,75 3,60 10,89 25,110 22,30 27,55 9,44 -8,-4 -9,4 -4,27 4,19 11,36 16,37 15,6 10,22 -6,22 -17,0 -20,16 -5,25 6,4 8,10 5,15 -3,5 2,13 12,18 19,11 38,-3 52,-41 z"
       id="path8" />
  </g>
</svg>
