<?xml version="1.0" standalone="no"?>
<!DOCTYPE svg PUBLIC "-//W3C//DTD SVG 20010904//EN"
 "http://www.w3.org/TR/2001/REC-SVG-20010904/DTD/svg10.dtd">
<svg version="1.0" xmlns="http://www.w3.org/2000/svg"
 width="1364.000000pt" height="1536.000000pt" viewBox="0 0 1364.000000 1536.000000"
 preserveAspectRatio="xMidYMid meet">
<metadata>
Created by potrace 1.16, written by Peter Selinger 2001-2019
</metadata>
<g transform="translate(0.000000,1536.000000) scale(0.100000,-0.100000)"
fill="#000000" stroke="none">
<path d="M10511 15349 c-682 -72 -1278 -471 -1541 -1032 -180 -383 -225 -877
-130 -1419 25 -143 25 -184 0 -252 -39 -102 -133 -184 -237 -206 -57 -12 -62
-12 -393 40 -285 45 -435 60 -685 67 -456 12 -883 -37 -1373 -158 -1056 -260
-2083 -830 -3057 -1698 -169 -150 -688 -669 -836 -836 -1192 -1340 -1940
-2850 -2179 -4398 -112 -729 -105 -1433 21 -2047 179 -870 624 -1580 1384
-2214 805 -670 1742 -1062 2815 -1178 179 -19 655 -16 830 5 837 103 1546 462
2620 1327 1080 871 2130 1985 2882 3060 398 568 736 1186 963 1760 73 184 172
483 224 672 329 1206 227 2427 -286 3437 -48 93 -86 182 -90 206 -8 62 19 143
66 197 61 68 117 88 280 99 451 29 811 140 1126 344 246 159 461 393 580 630
100 200 133 366 142 725 17 682 -119 1253 -403 1692 -24 38 -44 72 -44 77 0
16 -106 147 -184 229 -246 256 -579 444 -1086 613 -251 83 -671 206 -780 228
-199 40 -427 51 -629 30z m519 -1730 c100 -16 252 -71 342 -125 153 -92 309
-263 374 -410 52 -118 68 -199 68 -344 0 -148 -13 -216 -65 -350 -62 -163
-210 -342 -366 -446 -34 -23 -115 -63 -180 -89 -268 -110 -311 -129 -380 -171
-159 -98 -233 -235 -233 -429 0 -34 9 -133 20 -221 29 -241 33 -309 22 -434
-23 -251 -87 -471 -212 -725 -137 -279 -284 -489 -472 -671 -179 -173 -344
-270 -548 -324 -118 -30 -340 -38 -466 -16 -606 105 -1012 584 -1041 1226 -25
545 270 1071 772 1380 156 96 297 151 580 226 94 25 213 59 265 76 273 88 433
228 485 424 14 50 15 101 10 344 -6 238 -4 297 9 357 79 368 386 665 746 726
51 9 207 7 270 -4z m-3435 -1585 c33 -8 77 -26 98 -40 115 -75 160 -254 94
-367 -42 -71 -95 -102 -272 -159 -209 -68 -256 -114 -345 -346 -81 -207 -136
-271 -266 -312 -109 -33 -232 -22 -337 31 -50 26 -102 68 -102 83 -1 6 -17 36
-37 66 -101 153 -115 378 -34 547 137 284 459 474 866 513 107 10 257 3 335
-16z m3438 -3012 c70 -31 152 -114 190 -191 l32 -66 0 -165 c-1 -188 -21 -315
-81 -505 -46 -143 -156 -365 -241 -485 -80 -112 -205 -241 -285 -293 -68 -45
-164 -82 -233 -91 -134 -18 -312 83 -365 206 -27 64 -24 142 10 209 13 24 78
100 145 169 67 69 133 143 147 165 64 103 98 237 118 465 23 255 66 385 163
487 89 95 159 125 277 120 49 -2 92 -11 123 -25z m-7158 -356 c221 -84 337
-202 337 -343 0 -190 -164 -391 -582 -712 -169 -130 -244 -202 -380 -367 -235
-283 -390 -387 -580 -388 -180 -1 -308 97 -370 284 -19 56 -21 80 -17 180 12
295 161 566 488 887 257 253 534 426 764 477 105 23 250 16 340 -18z m3797
-1326 c174 -54 322 -244 453 -585 119 -309 167 -592 135 -792 -24 -156 -96
-304 -197 -409 -26 -27 -52 -58 -57 -68 -20 -35 -105 -70 -182 -74 -61 -3 -78
0 -121 21 -85 44 -141 123 -167 239 -8 35 -17 131 -21 213 -13 319 -31 363
-260 620 -173 195 -218 283 -219 431 -1 85 1 95 37 166 57 116 151 192 297
239 78 25 219 25 302 -1z m-2899 -10 c228 -19 395 -64 592 -160 391 -190 686
-546 899 -1083 195 -492 306 -1199 306 -1937 -1 -995 -178 -1604 -584 -2005
-223 -221 -544 -369 -912 -420 -141 -20 -503 -19 -624 1 -402 69 -854 265
-1310 569 -606 405 -943 845 -1049 1371 -58 287 -56 673 5 1004 127 693 523
1439 1039 1955 163 164 259 243 444 366 331 220 666 332 1046 347 17 1 83 -3
148 -8z m1595 -5392 c50 -23 70 -40 93 -76 16 -25 29 -60 29 -77 0 -22 6 -33
22 -40 57 -25 97 -174 78 -289 -17 -100 -56 -164 -174 -281 -239 -238 -499
-389 -771 -447 -87 -18 -294 -15 -380 6 -104 25 -240 95 -312 161 -141 128
-195 369 -106 476 49 58 90 70 267 80 319 16 486 88 745 318 241 214 344 248
509 169z"/>
</g>
</svg>
