<?xml version="1.0" encoding="UTF-8" standalone="no"?>
<!-- Created with Inkscape (http://www.inkscape.org/) -->

<svg
   xmlns:svg="http://www.w3.org/2000/svg"
   xmlns="http://www.w3.org/2000/svg"
   version="1.1"
   width="472"
   height="365"
   viewBox="0 0 472 365"
   id="Layer_1"
   xml:space="preserve"><defs
   id="defs7" />
<path
   d="m 324,0 c 0.333,0 0.667,0 1,0 39.149,8.329 57.355,42.043 79,72 16.239,22.476 32.674,43.13 49,61 -0.252,4.114 -0.82,8.507 -1,10 3.306,4.206 11.095,4.856 12,11 0.977,6.629 -8.154,10.821 -7,19 1.499,10.618 14.287,10.57 15,24 0,5.333 0,10.667 0,16 -3.958,22.043 -16.943,35.057 -28,50 -0.816,10.991 -7.496,37.724 -8,56 -0.265,9.611 4.066,29.899 -13,24 -1.99,-2.343 -2.304,-6.363 -2,-11 -6.027,-6.197 -19.591,-1.537 -25,2 -2.104,9.987 -4.172,26.929 -16,21 -3.827,-6.604 6.018,-15.233 0,-21 -13.061,3.404 -24.076,11.418 -36,19 -10.376,6.598 -16.495,10.59 -30,12 -1,0 -2,0 -3,0 -43.117,-3.811 -23.969,-67.947 -25,-105 -11.79,-0.867 -28.878,1.104 -38,-5 -15.291,15.376 -26.381,34.952 -41,51 -19.52,-0.85 -45.52,5.543 -59,1 4.466,-10.829 25.143,-2.533 29,-12 -5.682,-9.141 -28.453,-14.021 -44,-16 7.441,-11.96 26.872,-2.031 39,-1 0.007,-4.027 -8.778,-7.874 -10,-14 10.759,0.696 15.336,4.394 26,8 3.52,-13.146 10.908,-22.426 14,-36 -7.739,-5.594 -19.284,-7.383 -24,-16 -9.789,0.789 -13.546,-4.454 -20,-7 -17.645,4.306 -37.43,-1.173 -51,-7 -4.331,0.669 -3.033,6.967 -9,6 -3.054,-2.85 2.019,-7.88 -2,-9 -5.757,-3.29 -10.327,7.206 -15,5 -0.643,-5.31 2.512,-6.821 5,-9 C 59.269,185.731 18.748,186.252 0,165 0,161.333 0,157.667 0,154 10.378,126.378 34.444,112.444 53,93 50.775,74.251 65.412,58.642 84,60 c 5.754,0.42 12.088,5.677 18,7 26.379,5.901 48.836,-2.073 73,-4 5.982,-0.477 12.345,0.677 18,0 22.925,-2.746 43.467,-12.668 65,-12 7.358,0.228 13.734,3.635 21,2 5.73,-26.937 16.29,-49.043 45,-53 z"
   id="path3"
   style="fill-rule:evenodd" />
</svg>