<?xml version="1.0" standalone="no"?>
<!DOCTYPE svg PUBLIC "-//W3C//DTD SVG 20010904//EN"
 "http://www.w3.org/TR/2001/REC-SVG-20010904/DTD/svg10.dtd">
<svg version="1.0" xmlns="http://www.w3.org/2000/svg"
 width="1141.000000pt" height="1536.000000pt" viewBox="0 0 1141.000000 1536.000000"
 preserveAspectRatio="xMidYMid meet">
<metadata>
Created by potrace 1.16, written by Peter Selinger 2001-2019
</metadata>
<g transform="translate(0.000000,1536.000000) scale(0.100000,-0.100000)"
fill="#000000" stroke="none">
<path d="M7700 15354 c-111 -13 -247 -43 -415 -91 -171 -49 -205 -55 -335 -63
-133 -9 -182 -18 -280 -50 -32 -11 -43 -8 -116 24 -153 67 -178 68 -479 9
-167 -32 -189 -34 -300 -28 -66 4 -286 9 -489 11 -333 4 -375 6 -433 24 -117
36 -177 27 -282 -43 -30 -20 -93 -50 -140 -67 -47 -17 -149 -58 -226 -90 -78
-33 -192 -73 -255 -90 -69 -18 -135 -43 -165 -62 -27 -17 -99 -57 -160 -87
-60 -31 -186 -106 -280 -167 -93 -61 -208 -132 -255 -159 -125 -72 -158 -95
-261 -191 -101 -92 -168 -138 -196 -132 -22 4 -31 64 -32 225 -1 104 -10 145
-25 107 -8 -21 -23 -165 -36 -353 -6 -85 -17 -169 -25 -187 -13 -32 -48 -61
-135 -114 -91 -55 -299 -362 -385 -570 -15 -36 -31 -95 -36 -132 -15 -124 -44
-158 -305 -360 -170 -132 -251 -184 -302 -194 -40 -8 -54 -25 -50 -63 l3 -30
90 44 c59 28 117 67 169 112 143 124 260 203 304 203 26 0 26 -2 7 -103 -19
-100 -19 -199 1 -441 14 -176 14 -208 0 -344 -22 -204 -21 -235 15 -375 34
-135 34 -149 0 -339 -11 -64 -27 -196 -35 -292 -16 -183 -20 -199 -68 -254
-22 -26 -27 -39 -21 -55 4 -12 8 -58 8 -102 -1 -71 -5 -89 -37 -157 -20 -42
-73 -136 -118 -207 -45 -71 -80 -135 -78 -142 2 -7 27 14 55 47 28 32 81 94
119 137 47 55 69 75 74 65 14 -27 -46 -437 -101 -679 -45 -204 -52 -277 -40
-442 10 -133 19 -191 72 -487 47 -266 3 -559 -110 -731 -44 -67 -260 -329
-364 -439 -41 -44 -150 -113 -402 -255 -66 -37 -200 -114 -297 -171 -97 -58
-194 -111 -217 -119 -22 -7 -63 -29 -91 -48 -59 -40 -185 -149 -219 -190 -31
-37 -22 -72 24 -94 32 -15 37 -15 82 2 88 33 247 119 288 156 71 64 138 105
700 429 267 154 332 195 345 221 12 22 202 149 320 214 185 102 318 145 443
145 125 0 203 -42 301 -161 109 -131 396 -572 396 -606 0 -29 -264 -84 -494
-103 -133 -11 -177 -23 -158 -42 16 -16 239 -12 362 6 58 9 147 27 198 41 51
14 104 25 118 25 31 0 32 -25 1 -45 -34 -22 -311 -112 -391 -126 -68 -13 -93
-32 -65 -51 27 -18 130 2 318 63 228 74 220 76 271 -56 42 -109 103 -212 174
-295 31 -36 56 -68 56 -72 0 -7 -14 -13 -225 -84 l-160 -53 -28 27 c-15 15
-42 56 -59 92 -46 99 -56 115 -70 115 -24 0 -12 -90 21 -161 17 -37 31 -71 31
-76 0 -13 -56 0 -103 24 -21 10 -69 48 -108 83 -39 36 -74 65 -79 65 -35 0 -3
-75 57 -132 52 -51 139 -88 231 -100 42 -5 109 -21 147 -35 39 -14 110 -39
159 -56 88 -30 89 -31 66 -46 -12 -9 -140 -84 -284 -167 -467 -269 -555 -330
-880 -612 -59 -51 -141 -118 -181 -147 -41 -30 -81 -65 -89 -77 -23 -32 -4
-46 36 -26 49 23 218 153 338 259 264 233 417 335 937 627 l251 141 133 -14
c74 -8 143 -15 154 -15 42 0 -261 -186 -394 -241 -133 -55 -169 -98 -72 -85
44 6 45 6 23 -10 -73 -51 -322 -147 -424 -164 -74 -11 -92 -25 -63 -46 44 -34
188 7 439 123 231 107 306 131 306 99 0 -7 -23 -49 -52 -92 -28 -44 -139 -218
-246 -389 -256 -408 -379 -593 -496 -748 -53 -70 -96 -132 -96 -136 0 -5 8
-12 17 -15 48 -19 237 249 743 1049 230 364 355 514 482 578 52 26 58 27 89
14 46 -19 63 -41 51 -64 -27 -49 -317 -316 -425 -390 -26 -18 -47 -39 -47 -48
0 -41 100 5 232 107 82 63 120 73 126 32 6 -40 -132 -230 -251 -346 -108 -107
-126 -138 -83 -146 40 -8 256 244 441 513 106 155 137 196 143 191 6 -7 -180
-354 -228 -426 -49 -73 -100 -174 -100 -200 0 -39 33 -17 83 55 26 38 62 84
78 102 38 38 119 97 119 86 0 -5 -36 -71 -80 -147 -88 -153 -108 -202 -92
-218 16 -16 37 5 84 84 47 80 56 87 74 63 12 -17 15 -16 41 12 15 17 80 130
143 252 153 294 167 315 208 319 22 2 34 -2 38 -13 12 -31 -106 -252 -225
-424 -36 -51 -38 -61 -13 -61 30 0 61 29 123 112 32 44 59 75 59 69 0 -20
-130 -304 -211 -459 -80 -153 -90 -182 -66 -182 38 0 118 133 235 390 107 237
192 413 197 408 2 -2 -30 -116 -71 -253 -224 -746 -249 -859 -294 -1350 -11
-121 -25 -236 -30 -255 -16 -54 -13 -80 9 -80 40 0 44 17 71 272 24 224 41
312 80 419 40 111 49 124 50 71 0 -39 2 -42 19 -33 25 14 51 71 51 114 0 68
78 269 133 342 14 19 15 18 10 -10 -71 -446 -279 -1182 -483 -1704 -80 -205
-92 -251 -66 -251 20 0 48 55 135 267 89 217 92 223 107 223 22 0 83 81 105
139 11 31 37 124 56 206 19 83 36 152 38 154 6 6 -6 -221 -16 -298 -10 -82 -2
-104 29 -85 23 15 28 52 46 309 17 246 28 300 105 507 70 191 120 297 131 278
10 -18 43 -236 66 -440 17 -154 15 -207 -12 -263 -20 -41 -13 -67 16 -67 14 0
25 -11 35 -33 22 -54 53 -220 70 -382 22 -206 43 -353 55 -395 16 -55 47 -100
70 -100 26 0 26 24 1 81 -24 55 -47 179 -61 329 -15 166 -12 170 21 26 16 -72
39 -150 51 -175 22 -43 25 -46 58 -43 19 2 40 8 46 13 7 6 13 98 16 272 5 202
10 278 24 335 9 39 20 72 24 72 13 0 30 -296 30 -506 0 -237 13 -343 62 -488
40 -119 70 -181 88 -181 27 0 22 49 -15 145 -32 83 -38 113 -48 236 -13 164
-2 271 36 379 16 44 48 206 87 435 33 200 64 368 69 373 11 11 26 -113 17
-147 -4 -15 4 -50 20 -92 79 -206 5 -587 -151 -773 -40 -49 -46 -81 -14 -81
30 0 78 54 133 149 26 45 50 81 54 81 5 0 13 -5 19 -11 19 -19 30 -2 35 51 10
98 31 77 49 -49 14 -100 8 -188 -21 -330 -24 -119 -73 -277 -94 -306 -14 -19
-15 -19 -33 -2 -24 21 -39 22 -47 1 -9 -24 25 -86 57 -104 26 -14 29 -14 42 4
8 11 31 59 51 108 20 49 38 87 40 85 2 -2 -7 -60 -21 -129 -35 -183 -75 -447
-75 -499 -1 -24 -8 -62 -16 -84 -27 -70 -29 -95 -7 -95 21 0 46 23 56 52 4 10
13 73 22 140 36 282 110 657 126 641 4 -4 17 -60 28 -123 20 -112 32 -196 106
-730 32 -234 38 -261 70 -325 39 -81 92 -148 107 -139 8 5 9 52 5 145 -4 76
-4 145 -1 154 3 8 17 15 30 15 30 0 30 7 -1 111 -43 143 -50 240 -36 512 7
133 16 260 20 282 l8 40 11 -40 c6 -22 25 -116 42 -210 17 -93 50 -253 75
-355 46 -192 56 -257 76 -450 10 -108 18 -135 55 -202 12 -22 17 -91 23 -327
9 -301 15 -341 47 -341 15 0 16 36 13 347 -3 228 -1 348 6 348 41 1 46 72 14
205 -16 68 -21 144 -29 375 -12 394 -12 605 0 605 6 0 10 -9 10 -20 0 -11 18
-91 41 -177 l41 -158 -6 -280 c-3 -154 -10 -299 -15 -323 -7 -34 -6 -45 5 -49
22 -8 41 14 53 62 20 81 49 42 31 -41 -6 -27 -20 -68 -30 -92 -29 -65 -34
-106 -16 -121 13 -11 18 -9 33 18 10 17 21 31 24 31 4 0 9 -138 13 -308 9
-408 23 -694 36 -726 6 -16 15 -24 21 -20 8 5 10 107 8 369 -4 335 -3 363 14
379 18 19 18 27 -4 186 -5 36 -11 139 -14 230 l-4 165 24 -99 c60 -234 101
-529 78 -558 -6 -8 -6 -82 0 -208 7 -133 7 -310 -1 -555 -6 -223 -7 -364 -1
-370 6 -6 15 -3 25 7 23 23 33 170 34 503 0 160 5 373 10 474 15 254 30 272
46 56 4 -49 11 -99 16 -109 6 -10 13 -51 17 -90 5 -55 10 -71 23 -74 13 -2 19
6 24 34 11 60 -4 268 -31 419 -39 218 -47 290 -43 375 3 66 7 83 26 102 22 22
22 22 41 3 11 -11 36 -67 56 -125 20 -58 49 -132 65 -165 33 -68 72 -262 91
-446 17 -178 23 -212 36 -216 44 -15 38 137 -21 522 -19 121 -33 221 -31 223
6 7 68 -166 81 -228 26 -123 42 -860 22 -1020 -2 -21 2 -26 25 -28 l27 -3 0
462 0 462 64 -85 c73 -96 110 -130 133 -121 14 6 15 -2 9 -60 -5 -51 -3 -68 7
-74 44 -25 106 -263 114 -435 6 -120 14 -138 43 -103 18 22 24 130 12 210 -6
38 -10 71 -8 72 2 2 14 -33 26 -79 23 -88 34 -108 56 -108 24 0 16 71 -21 197
-82 276 -93 332 -110 544 -22 289 -40 451 -90 799 -46 318 -79 616 -73 647 3
13 10 6 27 -25 56 -107 101 -394 107 -682 2 -107 7 -201 9 -209 4 -11 9 -11
24 3 13 12 20 36 24 84 7 85 -8 341 -28 472 -8 55 -15 106 -15 112 1 23 49
-41 60 -80 25 -87 51 -276 56 -397 7 -177 12 -215 30 -215 26 0 36 51 48 245
11 167 14 186 25 160 24 -58 59 -336 79 -635 5 -82 10 -105 22 -105 35 0 37
171 4 450 -22 195 -19 206 33 108 62 -117 72 -150 98 -343 28 -209 49 -305 75
-348 43 -70 52 -23 20 110 -10 46 -26 155 -35 243 -8 88 -26 243 -40 345 -34
255 -58 468 -96 857 -26 265 -31 335 -21 345 27 27 83 -40 177 -208 80 -145
112 -229 189 -494 35 -124 87 -296 115 -382 27 -87 57 -195 67 -240 22 -110
21 -109 39 -102 39 15 9 174 -94 499 -67 212 -95 315 -87 322 9 9 57 -99 106
-239 26 -77 55 -147 63 -155 19 -19 37 -9 37 20 0 20 0 20 15 1 8 -10 65 -100
125 -200 131 -217 144 -234 161 -216 18 16 -27 107 -200 402 -72 124 -152 266
-177 315 l-45 90 -9 181 c-8 147 -15 199 -36 270 -35 119 -38 130 -31 124 8
-8 110 -254 151 -365 57 -156 96 -208 96 -127 0 51 -19 108 -94 284 -36 84
-68 167 -72 183 -6 26 0 22 41 -30 108 -136 233 -341 343 -561 68 -136 80
-150 107 -130 18 13 13 26 -98 254 -65 132 -119 252 -120 267 -2 24 3 30 30
37 33 8 53 45 53 95 0 23 4 22 63 -28 34 -30 116 -107 181 -171 66 -65 126
-118 133 -118 48 0 -13 102 -110 184 -27 22 -66 62 -87 88 -34 43 -38 54 -44
127 -12 142 -61 287 -225 662 -152 350 -194 498 -207 732 l-5 112 55 -103 c69
-129 128 -213 199 -279 59 -56 74 -63 83 -38 4 10 -10 33 -38 63 -50 53 -127
166 -181 262 -35 65 -81 170 -73 170 3 0 16 -4 30 -10 46 -17 56 -5 56 69 l1
66 73 -75 c89 -93 136 -161 228 -332 39 -73 102 -185 140 -248 63 -104 69
-119 64 -155 -3 -23 -7 -47 -10 -55 -8 -22 9 -44 29 -36 9 3 19 15 22 26 9 33
30 23 102 -44 126 -119 150 -108 49 24 -115 148 -118 155 -117 235 l0 70 19
-45 c10 -25 19 -69 19 -98 1 -38 5 -54 17 -59 25 -9 39 15 41 73 0 31 3 57 5
60 3 2 33 -21 69 -52 83 -72 115 -90 135 -73 13 11 -7 34 -134 158 -130 128
-150 152 -160 191 -14 60 -27 290 -16 290 23 -1 107 -75 120 -105 13 -31 17
-34 44 -28 66 13 257 -112 300 -198 11 -21 20 -58 20 -84 0 -32 4 -45 14 -45
23 0 45 28 52 65 3 19 11 35 18 35 6 0 31 -14 56 -30 94 -63 219 -88 285 -58
56 25 21 48 -75 48 -67 0 -124 25 -249 109 -106 72 -118 89 -215 316 -83 197
-87 213 -32 135 51 -70 149 -258 160 -303 5 -22 12 -28 29 -25 58 8 6 137
-167 413 -94 150 -105 170 -86 173 28 5 26 38 -6 115 -19 46 -29 98 -39 202
-8 77 -17 160 -21 184 -10 60 1 51 79 -66 81 -122 123 -205 151 -296 12 -39
26 -72 33 -74 6 -2 16 12 23 31 6 20 15 36 20 36 5 0 38 -38 73 -86 111 -148
196 -314 197 -384 0 -44 13 -65 34 -57 29 12 21 110 -17 198 -57 129 -107 203
-366 539 -44 58 -81 108 -81 113 0 22 28 -6 134 -132 132 -158 179 -203 201
-195 28 11 15 40 -47 110 -87 97 -137 158 -190 234 -55 80 -99 155 -71 124
148 -172 199 -224 211 -219 7 3 16 5 18 5 15 0 -2 44 -31 81 -41 52 -45 68 -9
40 52 -41 72 -18 32 35 -12 16 -65 75 -119 130 -102 108 -143 175 -153 254
l-6 45 17 -25 c10 -14 53 -68 95 -121 94 -118 171 -189 204 -189 41 0 28 32
-42 100 -90 87 -208 248 -282 384 -19 34 43 -36 214 -240 107 -129 202 -234
210 -234 56 0 -66 171 -383 538 -131 151 -133 154 -133 201 0 69 36 272 65
366 24 78 78 164 118 189 27 17 44 0 111 -112 72 -120 91 -141 108 -124 17 17
-3 74 -63 173 -28 46 -54 90 -56 96 -6 16 97 147 107 136 4 -4 21 -51 39 -103
40 -114 141 -326 170 -357 12 -13 28 -23 37 -23 21 0 10 36 -56 175 -60 125
-112 263 -124 327 -7 40 9 91 42 133 l19 24 43 -122 c67 -194 115 -276 143
-248 12 12 9 24 -50 166 -41 99 -86 252 -79 270 3 9 18 20 33 26 43 17 125 -2
281 -65 75 -30 175 -69 221 -86 124 -45 220 -99 273 -151 78 -78 84 -148 23
-289 l-23 -55 31 -8 c41 -11 90 -1 112 23 15 17 17 32 11 117 -4 54 -10 113
-13 132 l-6 34 38 -7 c60 -12 114 19 99 57 -3 8 -36 40 -74 72 -39 32 -70 62
-70 67 0 15 30 70 66 121 37 51 43 91 19 123 -17 23 -19 34 -4 34 19 0 129
-112 171 -175 37 -55 40 -64 36 -113 -6 -65 6 -77 53 -54 29 15 34 23 37 58 3
36 -4 52 -61 135 -35 52 -71 108 -80 125 -9 17 -43 61 -76 98 -34 36 -61 71
-61 76 0 19 29 24 176 29 84 3 156 10 160 14 4 4 -4 19 -18 34 -33 33 -85 42
-245 42 l-122 1 16 45 c15 46 15 46 -36 208 -82 261 -132 498 -150 711 -12
143 16 573 60 911 10 83 19 203 19 268 0 68 7 150 16 195 21 104 86 268 125
315 l31 38 -40 43 c-61 66 -64 98 -60 666 l3 485 89 205 c85 197 111 280 88
280 -20 0 -53 -54 -73 -122 -31 -101 -82 -119 -117 -41 -13 31 -16 67 -14 203
1 140 -2 177 -19 245 -19 71 -22 110 -23 345 -1 223 -4 275 -19 330 -42 147
-112 256 -293 455 -147 161 -193 221 -275 359 -83 142 -150 213 -279 298 -113
75 -200 154 -257 233 -64 88 -94 113 -172 146 -163 68 -402 198 -587 319 -100
66 -124 76 -259 105 -99 22 -106 28 -74 62 35 37 50 68 43 87 -7 18 -39 21
-49 5 -4 -6 -25 -24 -47 -40 -34 -24 -51 -29 -97 -29 -72 0 -137 30 -251 115
-91 68 -168 108 -253 132 -51 14 -295 25 -367 17z m2672 -7681 c37 -40 190
-254 185 -259 -9 -10 -168 175 -222 259 -14 22 -15 27 -3 27 8 0 26 -12 40
-27z m313 -28 c33 -8 66 -22 73 -32 15 -19 13 -136 -2 -150 -10 -10 -54 41
-107 121 -56 84 -56 83 36 61z m-1225 -882 c0 -25 -49 -285 -54 -291 -11 -10
-40 118 -40 176 -1 61 1 65 36 98 42 38 58 43 58 17z m-175 -154 c23 -44 12
-60 -13 -19 -24 39 -27 50 -12 50 5 0 17 -14 25 -31z m-116 -105 c65 -132 204
-481 198 -498 -4 -11 -168 190 -194 238 -33 63 -59 303 -30 294 6 -3 18 -18
26 -34z m101 -26 c29 -60 41 -123 20 -102 -10 10 -60 138 -60 154 0 23 13 6
40 -52z m-295 -107 c23 -46 57 -142 52 -147 -8 -8 -77 111 -83 145 -8 40 10
41 31 2z m415 -80 c0 -35 -18 -14 -26 29 -6 33 -6 34 9 15 9 -11 17 -31 17
-44z m-487 -1 c19 -22 80 -112 136 -199 l101 -159 10 -123 c5 -68 9 -142 9
-164 0 -39 -1 -37 -51 60 -80 157 -254 526 -268 569 -10 32 -10 40 1 47 22 13
25 12 62 -31z m-5484 -75 c29 -30 49 -59 46 -65 -3 -5 -38 -29 -77 -52 -92
-54 -127 -55 -276 -3 -62 22 -112 42 -112 45 0 5 335 126 356 129 6 0 35 -24
63 -54z m5156 -100 c25 -84 15 -94 -27 -30 -38 58 -40 85 -7 85 14 0 22 -14
34 -55z m320 -180 c133 -234 239 -436 259 -493 9 -24 18 -73 22 -110 8 -81 3
-78 -80 47 -107 160 -231 425 -300 641 -39 119 -46 159 -22 125 7 -11 62 -105
121 -210z m570 124 c9 -28 15 -53 12 -56 -10 -9 -38 44 -44 82 -9 54 11 38 32
-26z m-5864 5 c32 -26 59 -49 59 -52 0 -7 -189 6 -224 16 l-28 8 53 37 c29 20
59 37 67 37 7 0 40 -21 73 -46z m4808 -12 c28 -54 67 -192 90 -315 27 -140 27
-182 0 -107 -35 96 -137 455 -132 463 7 12 22 -2 42 -41z m289 -67 c70 -159
101 -235 97 -235 -2 0 -22 25 -44 56 -41 58 -101 206 -101 251 0 35 2 32 48
-72z m-419 17 c31 -114 52 -205 48 -215 -4 -13 -87 195 -87 220 0 21 8 33 21
33 5 0 13 -17 18 -38z m-89 -99 c30 -98 27 -118 -11 -63 -35 53 -69 115 -69
129 0 14 33 19 47 8 7 -5 22 -39 33 -74z m1181 -20 c11 -18 19 -43 17 -55 -3
-18 -12 -7 -42 52 -30 59 -34 71 -17 56 12 -11 31 -35 42 -53z m-735 -38 c13
-31 24 -61 24 -68 0 -16 -35 38 -55 86 -25 60 3 44 31 -18z m672 -144 c44 -95
87 -264 102 -406 19 -172 15 -177 -53 -58 -127 226 -139 264 -151 508 l-5 110
36 -40 c20 -22 51 -73 71 -114z m-5303 90 c-3 -12 -11 -21 -16 -21 -6 0 -8 3
-6 8 2 4 7 16 11 26 9 25 20 13 11 -13z m179 -20 c6 -9 -114 -184 -122 -177
-7 7 46 116 74 153 25 34 38 40 48 24z m4030 -94 c54 -86 146 -311 187 -456
36 -130 37 -142 5 -111 -35 32 -52 72 -155 364 -112 318 -113 325 -37 203z
m460 -172 c82 -224 125 -375 107 -375 -11 0 -10 -4 -86 223 -62 180 -97 298
-109 362 -5 29 -5 29 11 -5 8 -19 43 -111 77 -205z m-1196 168 c15 -68 26
-272 14 -253 -17 26 -52 196 -52 249 0 68 24 71 38 4z m-2968 20 c-1 -5 -7
-19 -15 -33 l-14 -25 -1 26 c0 14 3 29 7 32 9 9 23 9 23 0z m4275 -34 c49 -59
125 -232 125 -283 -1 -20 -1 -20 -21 4 -31 37 -101 159 -120 210 -38 102 -32
126 16 69z m-4939 -25 c-10 -14 -20 -23 -23 -20 -3 3 2 17 11 32 10 14 20 23
23 20 3 -3 -2 -17 -11 -32z m1098 -91 c-13 -60 -30 -162 -39 -228 -33 -251
-33 -251 -32 38 2 304 1 297 63 297 l30 0 -22 -107z m183 70 c-4 -21 -16 -119
-27 -218 -20 -167 -57 -380 -79 -450 -7 -20 -8 37 -5 175 8 296 20 484 33 509
9 15 21 21 48 21 36 0 36 0 30 -37z m1959 12 c21 -32 63 -296 70 -440 5 -100
4 -108 -9 -85 -21 35 -72 252 -93 387 -22 145 -9 200 32 138z m-2456 -96 c-33
-166 -80 -334 -103 -371 -38 -59 -32 -3 17 153 24 79 54 180 66 224 27 103 29
109 36 103 3 -3 -5 -52 -16 -109z m1851 35 l-19 -59 -1 62 c-1 41 3 63 12 66
24 9 27 -10 8 -69z m1457 19 c32 -106 68 -490 44 -468 -20 19 -73 178 -88 269
-15 85 -14 166 2 232 8 32 27 18 42 -33z m-2581 15 c-3 -7 -5 -2 -5 12 0 14 2
19 5 13 2 -7 2 -19 0 -25z m303 0 c0 -38 -27 -198 -35 -206 -3 -3 -5 46 -5
110 0 63 3 118 7 121 17 18 33 5 33 -25z m730 10 c0 -13 -3 -34 -7 -47 -6 -22
-7 -23 -13 -7 -8 24 0 76 11 76 5 0 9 -10 9 -22z m184 -45 c-28 -292 -46 -403
-63 -403 -17 0 -18 38 -5 136 11 86 44 253 60 307 10 34 14 16 8 -40z m1565
-33 c1 -20 -1 -22 -9 -10 -5 8 -9 31 -9 50 1 32 2 33 9 10 4 -14 8 -36 9 -50z
m-1832 -62 c-2 -24 -4 -7 -4 37 0 44 2 63 4 43 2 -21 2 -57 0 -80z m-269 -62
c3 -80 1 -157 -3 -173 l-8 -28 -7 25 c-5 14 -8 97 -9 185 -1 123 2 156 11 147
8 -8 13 -63 16 -156z m-489 -2 c1 -138 -10 -254 -20 -209 -9 41 -11 261 -2
321 10 75 21 22 22 -112z m1375 104 c3 -13 5 -68 5 -123 -1 -77 -3 -93 -10
-70 -15 47 -24 215 -12 215 6 0 13 -10 17 -22z m-2117 -165 c-4 -98 -11 -218
-17 -268 -12 -105 -38 -202 -50 -189 -11 12 -30 140 -30 204 0 28 7 86 15 128
20 99 76 302 83 302 3 0 2 -80 -1 -177z m2550 55 c-2 -24 -4 -7 -4 37 0 44 2
63 4 43 2 -21 2 -57 0 -80z m288 -78 c21 -102 28 -190 17 -190 -20 0 -63 193
-61 279 l1 46 15 -35 c8 -19 21 -64 28 -100z m-3599 -39 c-36 -70 -54 -94 -36
-47 18 47 61 128 66 123 3 -3 -11 -37 -30 -76z m4440 9 c24 -38 51 -87 58
-107 8 -21 21 -52 30 -68 9 -18 18 -72 22 -130 l7 -100 -37 35 c-54 51 -73 87
-80 155 -4 33 -18 106 -32 163 -35 150 -34 153 32 52z m-3199 -97 c-4 -82 -11
-161 -17 -178 -10 -31 -6 129 7 263 11 113 16 65 10 -85z m3372 54 c35 -100
38 -115 16 -97 -17 14 -55 130 -55 168 0 36 4 29 39 -71z m-2821 -92 c0 -44
-4 -93 -8 -110 -5 -18 -8 31 -8 120 0 105 3 138 9 110 4 -22 8 -76 7 -120z
m815 -130 c0 -159 -4 -242 -15 -300 l-16 -80 -1 276 c-1 152 2 298 6 324 6 44
7 46 16 24 6 -13 10 -122 10 -244z m-1436 203 c-2 -13 -4 -5 -4 17 -1 22 1 32
4 23 2 -10 2 -28 0 -40z m3863 -58 c53 -96 103 -210 96 -218 -21 -20 -141 194
-153 273 -7 52 4 41 57 -55z m240 -59 c83 -183 86 -199 22 -103 -61 90 -102
177 -102 219 0 35 1 36 14 18 7 -11 37 -71 66 -134z m-365 34 c44 -78 69 -146
94 -262 21 -92 15 -124 -14 -79 -15 22 -134 385 -135 409 0 19 22 -8 55 -68z
m-4000 -340 c-8 -320 -23 -588 -37 -655 l-12 -55 -6 62 c-10 119 7 703 24 808
9 55 17 132 17 170 l2 70 8 -80 c5 -44 7 -188 4 -320z m3363 150 c127 -223
138 -263 167 -605 9 -102 20 -204 24 -227 5 -24 7 -43 5 -43 -33 0 -273 802
-309 1030 -9 57 -7 55 113 -155z m-2633 -35 c17 -200 16 -320 -3 -370 -8 -21
-14 -4 -41 106 -36 148 -39 199 -13 227 14 15 18 42 20 139 2 66 7 116 12 112
4 -5 15 -101 25 -214z m1081 123 c-9 -94 -25 -174 -38 -188 -10 -11 -6 25 18
173 9 50 18 92 21 92 3 0 3 -35 -1 -77z m-1569 -25 c-2 -18 -4 -6 -4 27 0 33
2 48 4 33 2 -15 2 -42 0 -60z m3689 -31 c40 -90 41 -96 18 -81 -28 19 -88 99
-99 132 -7 24 10 55 28 49 5 -1 29 -47 53 -100z m-2633 68 c-7 -21 -13 -19
-13 6 0 11 4 18 10 14 5 -3 7 -12 3 -20z m1472 4 c8 -23 1 -34 -14 -24 -13 8
-15 45 -2 45 5 0 13 -9 16 -21z m-3215 -4 c17 -9 30 -17 30 -20 0 -2 -17 -53
-39 -112 -38 -107 -86 -213 -97 -213 -10 0 31 294 47 337 10 27 20 28 59 8z
m1005 -110 c16 -93 20 -291 7 -313 -14 -22 -56 348 -45 401 9 42 19 17 38 -88z
m2004 -60 c23 -176 46 -567 33 -545 -11 18 -15 44 -41 255 -26 215 -34 328
-26 366 10 46 21 21 34 -76z m-2375 -574 c7 -11 11 -9 21 10 12 22 14 19 21
-36 4 -33 8 -127 8 -210 1 -139 -1 -156 -27 -230 -50 -146 -57 -201 -57 -457
0 -130 -4 -239 -8 -242 -10 -6 -35 71 -57 173 -27 129 -37 368 -32 721 5 304
8 348 31 475 14 77 38 212 53 300 l28 160 5 -325 c3 -179 9 -331 14 -339z
m2841 553 c4 -46 3 -64 -4 -54 -5 8 -12 49 -15 90 -4 49 -3 68 3 54 5 -11 12
-52 16 -90z m740 -33 c31 -68 54 -125 52 -128 -2 -2 -25 19 -50 46 -46 50 -60
82 -71 176 -9 68 3 52 69 -94z m734 -170 c72 -116 131 -214 131 -217 0 -3 -19
5 -41 18 -81 45 -119 102 -203 300 -42 100 -80 190 -83 198 -11 29 67 -90 196
-299z m-863 127 c15 -29 19 -108 6 -108 -14 0 -69 63 -104 120 -42 68 -58 105
-58 133 0 18 13 9 71 -48 39 -39 77 -82 85 -97z m-3916 -147 c-56 -157 -179
-454 -179 -435 -2 39 135 663 156 714 3 8 15 -36 26 -99 l21 -114 -24 -66z
m1769 232 c0 -36 -3 -43 -9 -28 -12 28 -12 75 0 75 6 0 10 -21 9 -47z m-1189
28 c0 -6 -4 -13 -10 -16 -5 -3 -10 1 -10 9 0 9 5 16 10 16 6 0 10 -4 10 -9z
m3906 -68 c15 -34 20 -133 7 -133 -33 1 -51 43 -58 136 l-7 79 22 -25 c12 -14
28 -39 36 -57z m-3308 -305 l-3 -113 -18 39 c-25 53 -25 163 -1 297 l19 104 3
-107 c1 -59 1 -158 0 -220z m942 219 c-15 -110 -30 -168 -41 -161 -13 8 -11
55 7 140 31 150 55 165 34 21z m2126 46 c-4 -4 -11 -1 -16 7 -16 25 -11 35 7
17 9 -9 13 -20 9 -24z m-1126 -52 c14 -73 13 -218 -1 -204 -28 28 -49 189 -33
251 9 33 22 15 34 -47z m425 -13 c33 -104 171 -648 179 -708 l7 -45 -20 36
c-27 50 -105 279 -141 414 -39 147 -73 385 -55 385 2 0 16 -37 30 -82z m-3411
46 c10 -26 26 -287 25 -404 l-1 -105 -18 100 c-40 220 -53 345 -41 386 13 41
25 49 35 23z m513 -176 c-2 -35 -3 -9 -3 57 0 66 1 94 3 63 2 -32 2 -86 0
-120z m3699 66 c25 -53 43 -98 41 -100 -6 -6 -49 60 -81 124 -23 46 -27 72
-10 72 3 0 26 -43 50 -96z m-4685 -38 c-12 -71 -35 -131 -52 -142 -14 -8 -12
5 23 160 19 87 23 96 31 72 6 -17 5 -51 -2 -90z m1986 62 c-2 -13 -4 -5 -4 17
-1 22 1 32 4 23 2 -10 2 -28 0 -40z m1777 -90 c53 -148 72 -219 85 -313 19
-135 -10 -114 -87 60 -62 141 -85 218 -79 262 16 115 20 134 28 126 5 -5 29
-66 53 -135z m1215 42 c19 -35 20 -40 6 -40 -10 0 -32 15 -51 34 -27 27 -34
42 -34 73 l1 38 27 -32 c16 -18 38 -51 51 -73z m-418 -2 c23 -33 66 -89 95
-124 30 -35 54 -69 54 -76 0 -19 -106 90 -144 147 -30 46 -61 115 -51 115 2 0
23 -28 46 -62z m-3644 -80 c-2 -24 -4 -5 -4 42 0 47 2 66 4 43 2 -24 2 -62 0
-85z m1151 57 c-2 -35 -7 -67 -11 -71 -15 -15 -19 8 -12 71 9 86 29 87 23 0z
m2725 32 c30 -23 47 -75 46 -137 -1 -33 -3 -30 -36 40 -61 131 -62 139 -10 97z
m-2866 -104 c-3 -10 -5 -2 -5 17 0 19 2 27 5 18 2 -10 2 -26 0 -35z m-831
-105 c-8 -149 -25 -309 -34 -323 -12 -18 -18 108 -10 223 7 105 30 222 45 222
3 0 3 -55 -1 -122z m1784 87 c0 -8 -4 -15 -10 -15 -5 0 -10 7 -10 15 0 8 5 15
10 15 6 0 10 -7 10 -15z m-46 -175 c36 -251 48 -372 38 -382 -31 -31 -100 400
-78 488 11 44 22 14 40 -106z m-1595 -10 c1 -91 -16 -75 -26 24 -7 73 4 120
17 76 5 -14 8 -59 9 -100z m2057 14 c-3 -8 -9 -14 -14 -14 -4 0 -3 28 2 63
l11 62 3 -49 c2 -27 1 -55 -2 -62z m-1972 55 c13 -33 14 -51 6 -102 -5 -34
-14 -120 -20 -190 -13 -170 -33 -206 -26 -47 3 63 6 175 6 248 0 72 4 132 9
132 5 0 16 -18 25 -41z m2216 -67 c-1 -61 -2 -65 -15 -48 -16 21 -19 65 -9
103 11 42 24 12 24 -55z m1210 -52 c6 -15 26 -34 45 -43 40 -19 47 -40 43
-122 l-3 -60 -53 88 c-29 49 -71 125 -93 170 l-41 82 45 -44 c25 -24 51 -56
57 -71z m-2413 -2 c-4 -87 -31 -208 -43 -196 -4 5 14 242 22 273 3 14 11 25
16 25 7 0 9 -36 5 -102z m1378 -284 c30 -153 52 -280 50 -282 -8 -8 -47 83
-65 152 -24 94 -61 430 -45 414 3 -3 31 -131 60 -284z m-488 209 c-3 -10 -5
-2 -5 17 0 19 2 27 5 18 2 -10 2 -26 0 -35z m-2240 -418 c-3 -176 -9 -331 -15
-345 l-9 -25 -6 30 c-3 17 -11 104 -18 194 -16 227 -5 461 28 581 16 59 24
-131 20 -435z m403 50 c-6 -192 -15 -354 -20 -358 -4 -5 -14 31 -21 79 -11 77
-10 114 9 328 13 133 22 260 22 283 0 23 3 50 8 60 14 35 14 -37 2 -392z
m1979 333 c6 -40 13 -100 17 -133 3 -33 7 -71 10 -85 4 -23 2 -23 -25 10 -43
51 -54 105 -40 201 6 43 15 79 19 79 4 0 12 -33 19 -72z m-1869 42 c21 -13 25
-214 11 -546 -12 -279 -20 -349 -52 -459 -35 -119 -42 -105 -35 65 3 85 13
324 21 530 8 206 18 385 21 398 7 24 12 26 34 12z m354 -32 c27 -152 37 -470
17 -531 -7 -21 -15 -37 -17 -34 -2 2 -11 51 -19 108 -22 155 -18 489 5 489 4
0 10 -15 14 -32z m895 -278 c0 -128 -4 -206 -9 -194 -13 32 -24 352 -15 430
l9 69 7 -45 c4 -25 8 -142 8 -260z m-605 139 c-11 -152 -22 -166 -23 -29 0 69
2 136 6 150 l7 25 8 -30 c5 -17 6 -69 2 -116z m1810 -61 c7 -31 6 -32 -9 -13
-23 29 -45 112 -44 164 1 45 1 44 24 -36 13 -45 26 -96 29 -115z m-956 95 c-2
-49 -9 -97 -16 -108 -10 -18 -11 -17 -7 10 2 17 7 65 11 108 3 42 8 77 11 77
3 0 4 -39 1 -87z m589 25 c-3 -7 -5 -2 -5 12 0 14 2 19 5 13 2 -7 2 -19 0 -25z
m-1660 -10 c-3 -7 -5 -2 -5 12 0 14 2 19 5 13 2 -7 2 -19 0 -25z m-328 -238
c1 -90 -4 -160 -12 -185 l-12 -40 -3 65 c-2 36 0 144 4 240 9 205 21 163 23
-80z m762 113 c5 -53 11 -70 30 -84 23 -17 24 -23 24 -141 0 -94 -4 -134 -18
-170 -17 -43 -17 -49 -3 -70 19 -29 32 -231 19 -298 -8 -40 -11 -26 -31 140
-50 412 -67 659 -48 688 13 21 20 6 27 -65z m66 0 c-2 -16 -4 -5 -4 22 0 28 2
40 4 28 2 -13 2 -35 0 -50z m110 45 c-3 -8 -6 -5 -6 6 -1 11 2 17 5 13 3 -3 4
-12 1 -19z m-1928 -245 l-1 -248 -28 135 c-16 74 -29 150 -29 168 -1 29 46
192 55 192 2 0 3 -111 3 -247z m464 225 c6 -20 -11 -178 -19 -187 -2 -2 -4 44
-4 102 0 100 10 136 23 85z m2090 -213 c1 -84 -15 -147 -34 -128 -12 12 -25
323 -14 349 12 30 46 -127 48 -221z m-1213 205 c0 -11 -4 -20 -10 -20 -5 0
-10 9 -10 20 0 11 5 20 10 20 6 0 10 -9 10 -20z m1973 -180 c105 -243 162
-410 140 -410 -19 0 -73 67 -97 121 -26 59 -121 384 -131 447 l-6 37 22 -40
c12 -22 44 -92 72 -155z m-503 5 c18 -40 47 -191 38 -200 -12 -12 -148 279
-148 317 0 22 92 -76 110 -117z m191 -10 c9 -27 16 -51 14 -53 -8 -8 -53 30
-63 54 -7 14 -12 48 -12 77 l1 52 21 -40 c12 -22 29 -62 39 -90z m659 -201
c62 -191 104 -343 96 -351 -14 -14 -111 193 -154 328 -33 103 -48 177 -57 284
l-5 70 30 -75 c17 -41 57 -156 90 -256z m-1232 -54 c1 -124 -2 -243 -6 -265
-6 -34 -10 -19 -25 100 -24 188 -36 327 -37 403 0 51 3 64 18 69 9 4 21 14 27
22 16 25 23 -75 23 -329z m-1321 238 c-2 -13 -4 -3 -4 22 0 25 2 35 4 23 2
-13 2 -33 0 -45z m1100 30 c-3 -7 -5 -2 -5 12 0 14 2 19 5 13 2 -7 2 -19 0
-25z m-580 -55 c-3 -10 -5 -2 -5 17 0 19 2 27 5 18 2 -10 2 -26 0 -35z m2125
-141 c123 -276 208 -512 208 -578 0 -32 -24 -40 -55 -20 -42 27 -54 57 -84
203 -34 160 -45 201 -112 415 -71 227 -67 225 43 -20z m-1755 -4 c-2 -35 -3
-9 -3 57 0 66 1 94 3 63 2 -32 2 -86 0 -120z m1230 90 c-3 -7 -5 -2 -5 12 0
14 2 19 5 13 2 -7 2 -19 0 -25z m-3827 -3 c0 -8 -4 -15 -10 -15 -5 0 -10 7
-10 15 0 8 5 15 10 15 6 0 10 -7 10 -15z m3580 -14 l35 -29 3 -143 c2 -79 -1
-162 -6 -184 l-9 -40 -12 40 c-16 57 -61 313 -61 352 0 40 6 41 50 4z m-1571
-153 c-1 -129 -1 -132 -14 -85 -24 89 -28 141 -11 181 8 20 17 36 20 36 4 0 6
-60 5 -132z m843 90 c8 -29 12 -126 13 -296 1 -229 2 -255 18 -263 15 -9 17
-29 17 -159 0 -85 -4 -150 -9 -150 -12 0 -37 112 -50 225 -26 220 -41 627 -25
669 10 27 23 18 36 -26z m572 -118 l41 -85 2 -160 c2 -154 1 -158 -13 -115
-32 96 -103 388 -109 450 l-7 65 23 -35 c12 -19 40 -73 63 -120z m440 80 c6
-43 6 -44 -8 -20 -9 14 -15 41 -15 60 0 46 14 21 23 -40z m-3903 -28 c-27 -88
-50 -146 -58 -139 -3 3 10 50 27 104 36 107 40 117 47 110 2 -3 -5 -37 -16
-75z m2533 31 c10 -43 20 -443 12 -504 -4 -32 -18 -72 -32 -95 l-25 -39 5 265
c7 282 14 400 26 400 4 0 11 -12 14 -27z m664 -15 c2 -15 11 -28 21 -31 13 -3
20 -18 24 -58 8 -64 9 -575 2 -567 -6 5 -40 265 -70 526 -9 78 -13 147 -10
153 11 17 30 4 33 -23z m-1229 -98 c60 -184 80 -407 81 -892 0 -172 -11 -236
-24 -140 -18 129 -67 556 -80 702 -15 159 -18 417 -5 402 4 -4 16 -36 28 -72z
m1811 -161 c7 -39 7 -65 0 -84 -8 -22 -6 -31 10 -52 22 -28 80 -200 80 -236
-1 -22 -1 -22 -16 -2 -9 11 -44 68 -80 128 l-64 107 0 123 c0 67 3 154 7 192
l7 70 22 -95 c13 -52 28 -120 34 -151z m-1942 119 l-4 -33 -8 28 c-5 15 -5 44
0 65 l8 37 4 -32 c2 -18 2 -48 0 -65z m-203 -135 c-11 -311 -20 -353 -29 -150
-5 92 -5 191 -2 220 8 62 25 127 32 127 3 0 3 -89 -1 -197z m2640 37 c36 -71
61 -130 55 -130 -26 0 -80 73 -98 132 -25 80 -35 128 -28 128 3 0 35 -58 71
-130z m-144 -57 c47 -45 79 -87 99 -128 30 -63 65 -173 57 -181 -2 -2 -40 46
-84 108 -188 263 -215 340 -72 201z m-123 -40 c49 -107 48 -138 -1 -43 -25 47
-48 96 -52 110 -15 49 21 3 53 -67z m-2302 -52 c-10 -142 -24 -164 -25 -39 -1
111 4 142 21 131 7 -4 9 -37 4 -92z m224 -420 c28 -244 49 -446 47 -448 -8 -7
-46 100 -72 197 -62 239 -87 547 -56 690 14 60 15 63 22 35 5 -17 31 -230 59
-474z m2045 161 c65 -276 76 -349 41 -267 -62 143 -157 602 -117 560 5 -6 39
-137 76 -293z m-1585 109 c11 -90 19 -170 16 -178 -3 -7 -14 -13 -24 -13 -10
0 -24 -6 -31 -12 -11 -11 -12 9 -7 117 7 141 17 257 22 252 2 -1 12 -76 24
-166z m-849 -294 c-18 -18 -35 76 -36 188 0 77 6 134 20 190 l20 80 3 -224 c1
-132 -2 -229 -7 -234z m1279 113 c61 -419 109 -919 115 -1195 l5 -230 -26 75
c-108 315 -146 646 -158 1370 l-5 305 24 -95 c14 -52 34 -156 45 -230z m785
115 c9 -88 15 -173 13 -190 -3 -28 -5 -26 -22 25 -15 43 -20 88 -23 210 -3
189 8 172 32 -45z m47 163 c-9 -9 -12 -7 -12 12 0 19 3 21 12 12 9 -9 9 -15 0
-24z m-317 -231 c8 -126 15 -240 14 -255 -4 -100 -37 210 -40 368 -4 222 6
180 26 -113z m99 23 c52 -252 73 -417 82 -630 l6 -155 -22 25 c-40 46 -60 106
-70 206 -29 297 -59 815 -44 779 2 -5 24 -107 48 -225z m936 158 c36 -29 50
-63 50 -118 0 -117 -22 -98 -85 75 l-35 96 28 -20 c15 -12 34 -26 42 -33z
m-2202 -118 c0 -37 -1 -40 -8 -20 -4 14 -8 61 -8 105 l1 80 7 -60 c4 -33 8
-80 8 -105z m1036 -265 c5 -60 5 -60 -10 -27 -34 77 -44 145 -43 297 l2 150
22 -180 c13 -99 25 -207 29 -240z m-1778 258 c-10 -10 -19 5 -10 18 6 11 8 11
12 0 2 -7 1 -15 -2 -18z m1261 -65 c-2 -13 -4 -3 -4 22 0 25 2 35 4 23 2 -13
2 -33 0 -45z m1381 -45 c31 -121 35 -139 23 -128 -10 10 -51 161 -51 189 0 32
8 14 28 -61z m-2661 35 c-3 -7 -5 -2 -5 12 0 14 2 19 5 13 2 -7 2 -19 0 -25z
m1165 6 c32 -11 43 -71 42 -239 -1 -180 -12 -335 -24 -335 -16 0 -100 409
-100 485 0 45 34 110 53 101 7 -3 20 -9 29 -12z m512 -179 c6 -153 -8 -116
-18 45 -4 65 -3 101 3 95 5 -6 12 -68 15 -140z m-1697 103 c-3 -7 -5 -2 -5 12
0 14 2 19 5 13 2 -7 2 -19 0 -25z m1870 -40 c-2 -13 -4 -5 -4 17 -1 22 1 32 4
23 2 -10 2 -28 0 -40z m-1530 -5 c-3 -10 -5 -4 -5 12 0 17 2 24 5 18 2 -7 2
-21 0 -30z m-98 -288 c15 -404 20 -461 78 -792 8 -45 -11 -42 -25 5 -19 65
-51 251 -78 457 -32 246 -37 444 -12 560 10 44 17 82 18 84 0 2 2 2 4 0 2 -2
9 -143 15 -314z m786 306 c3 -6 10 -61 16 -123 6 -62 18 -131 26 -153 42 -114
54 -156 79 -273 31 -150 33 -255 10 -431 -20 -147 -29 -173 -44 -116 -23 88
-101 652 -132 952 -8 82 -9 117 0 132 11 22 35 28 45 12z m603 -156 c0 -66 -3
-90 -8 -70 -10 41 -10 228 0 195 4 -14 8 -70 8 -125z m597 -77 c24 -74 35
-126 35 -167 0 -33 7 -88 15 -123 18 -82 57 -354 53 -375 -4 -20 -76 88 -109
162 -26 58 -40 227 -20 239 14 9 14 165 0 226 -6 25 -17 77 -24 115 -12 61
-12 68 1 50 8 -11 30 -68 49 -127z m-295 -68 c16 -63 27 -117 25 -118 -2 -2
-11 10 -19 27 -21 39 -43 138 -49 221 -6 74 -8 77 43 -130z m-1613 88 c-2 -13
-4 -5 -4 17 -1 22 1 32 4 23 2 -10 2 -28 0 -40z m1230 -65 c-3 -10 -5 -4 -5
12 0 17 2 24 5 18 2 -7 2 -21 0 -30z m-592 -157 c30 -210 29 -260 -3 -96 -23
113 -41 290 -29 280 3 -3 18 -86 32 -184z m761 48 c-4 -19 -11 -32 -17 -29
-10 7 -12 78 -2 115 7 23 7 23 16 -13 5 -21 6 -53 3 -73z m-423 -254 c1 -114
-15 -181 -35 -146 -12 22 -7 264 6 285 17 27 29 -30 29 -139z m409 82 c22 -66
35 -213 42 -482 l6 -215 -55 160 c-75 218 -87 283 -83 450 3 144 9 161 52 146
14 -5 27 -26 38 -59z m-705 -194 c-3 -8 -6 -5 -6 6 -1 11 2 17 5 13 3 -3 4
-12 1 -19z m342 -180 c18 -90 31 -182 30 -213 l-1 -30 -15 35 c-21 49 -57 224
-50 244 12 30 26 16 36 -36z m-680 -85 c-2 -108 -3 -119 -9 -68 -12 91 -11
195 0 195 6 0 9 -48 9 -127z m1020 -237 c33 -101 71 -228 85 -282 27 -107 48
-245 40 -254 -9 -8 -68 67 -133 171 l-61 98 0 226 c0 124 2 225 5 225 2 0 31
-83 64 -184z m165 -39 c9 -61 17 -173 20 -247 5 -134 5 -135 -9 -70 -16 75
-32 237 -39 395 -6 130 5 98 28 -78z m-1117 61 c-3 -7 -5 -2 -5 12 0 14 2 19
5 13 2 -7 2 -19 0 -25z"/>
</g>
</svg>
