<?xml version="1.0" standalone="no"?>
<!DOCTYPE svg PUBLIC "-//W3C//DTD SVG 20010904//EN"
 "http://www.w3.org/TR/2001/REC-SVG-20010904/DTD/svg10.dtd">
<svg version="1.0" xmlns="http://www.w3.org/2000/svg"
 width="2633.000000pt" height="1394.000000pt" viewBox="0 0 2633.000000 1394.000000"
 preserveAspectRatio="xMidYMid meet">
<metadata>
Created by potrace 1.16, written by Peter Selinger 2001-2019
</metadata>
<g transform="translate(0.000000,1394.000000) scale(0.100000,-0.100000)"
fill="#000000" stroke="none">
<path d="M18385 13933 c-31 -8 -45 -23 -45 -49 0 -19 8 -25 40 -34 67 -18 87
-54 77 -138 -8 -64 -44 -172 -64 -195 -10 -10 -46 -39 -80 -63 -35 -25 -74
-55 -86 -67 -13 -12 -37 -31 -53 -42 -51 -35 -114 -97 -114 -112 0 -10 -6 -12
-22 -7 -13 4 -25 10 -28 14 -7 11 -105 30 -153 30 -51 0 -115 -17 -134 -35 -7
-7 -25 -46 -39 -87 -15 -40 -31 -84 -37 -98 -6 -14 -10 -28 -9 -32 1 -5 -3 -8
-8 -8 -5 0 -10 -6 -10 -13 0 -8 -11 -36 -25 -63 -14 -27 -25 -54 -25 -60 0 -6
-18 -19 -40 -29 -22 -10 -40 -21 -40 -25 0 -4 -13 -13 -29 -20 -16 -6 -39 -22
-52 -36 -12 -13 -28 -24 -35 -24 -7 0 -20 -8 -30 -17 -9 -10 -32 -27 -49 -38
-66 -40 -113 -74 -120 -85 -4 -7 -17 -1 -36 14 -43 36 -92 43 -156 21 -29 -10
-53 -21 -53 -25 0 -3 -17 -12 -37 -19 -21 -8 -51 -24 -66 -37 -16 -13 -32 -24
-36 -24 -4 0 -21 -11 -37 -25 -16 -14 -37 -28 -46 -31 -10 -3 -18 -9 -18 -13
0 -5 -17 -20 -37 -34 -21 -14 -58 -44 -83 -66 -25 -23 -48 -41 -51 -41 -6 0
-54 -41 -104 -91 -17 -16 -34 -27 -38 -23 -4 4 -7 35 -7 68 0 108 -25 233 -54
267 -14 17 -26 34 -26 38 0 4 -11 13 -25 19 -33 15 -95 -8 -95 -35 0 -10 -18
-49 -40 -87 -22 -37 -40 -71 -40 -75 0 -17 -251 -241 -270 -241 -5 0 -15 -6
-22 -13 -21 -21 -164 -97 -182 -97 -9 0 -16 -4 -16 -9 0 -5 -31 -19 -70 -32
-38 -12 -70 -26 -70 -30 0 -3 -30 -14 -67 -23 -37 -10 -70 -21 -73 -24 -7 -10
-112 -42 -136 -42 -11 0 -24 -4 -29 -8 -6 -5 -50 -17 -100 -27 -49 -10 -101
-23 -115 -30 -14 -7 -56 -20 -95 -30 -38 -10 -74 -22 -80 -25 -5 -4 -45 -16
-87 -26 -43 -10 -78 -21 -78 -24 0 -4 -27 -15 -60 -25 -33 -10 -60 -21 -60
-25 0 -4 -21 -15 -47 -25 -27 -10 -55 -23 -63 -30 -8 -6 -31 -18 -50 -25 -61
-23 -120 -63 -188 -129 l-67 -63 -105 -3 c-201 -6 -283 -35 -396 -142 -59 -55
-133 -144 -160 -190 -10 -18 -21 -33 -24 -33 -4 0 -22 -24 -40 -52 -19 -29
-37 -55 -41 -58 -3 -3 -19 -30 -34 -60 -15 -30 -34 -63 -43 -72 -8 -10 -11
-18 -6 -18 5 0 4 -4 -1 -8 -6 -4 -27 -33 -48 -65 -21 -32 -44 -60 -52 -64 -8
-3 -15 -11 -15 -17 0 -7 -10 -22 -22 -33 -13 -11 -30 -30 -38 -43 -27 -40 -71
-95 -89 -110 -10 -8 -79 -83 -153 -166 -137 -152 -201 -214 -218 -214 -15 0
-22 -44 -11 -72 14 -38 1 -45 -115 -63 -54 -9 -128 -24 -164 -35 -36 -10 -103
-25 -150 -31 -47 -7 -87 -16 -90 -19 -3 -4 -54 -14 -115 -24 -60 -10 -112 -21
-115 -26 -3 -4 -52 -15 -110 -25 -58 -9 -110 -21 -115 -26 -6 -4 -44 -15 -85
-25 -132 -30 -263 -90 -405 -186 -33 -23 -63 -46 -68 -52 -5 -7 -11 -4 -19 9
-17 30 -92 102 -130 125 -71 43 -167 84 -243 105 -33 9 -67 20 -75 24 -8 5
-58 16 -110 25 -52 10 -102 21 -112 26 -9 5 -70 16 -135 25 -65 9 -129 20
-143 25 -70 27 -329 40 -798 41 -563 1 -592 2 -592 11 0 4 -8 14 -17 24 -10
10 -18 21 -18 26 0 5 -4 12 -10 16 -5 4 -18 23 -27 42 -10 19 -36 60 -58 90
-22 30 -40 60 -40 67 0 6 -8 14 -17 17 -10 3 -25 17 -33 30 -23 37 -112 157
-136 182 -12 12 -24 28 -28 36 -11 24 -41 65 -60 84 -10 11 -49 64 -87 119
-107 157 -148 204 -233 270 -21 17 -44 36 -52 43 -7 7 -32 19 -56 28 -23 8
-52 21 -63 28 -11 7 -45 21 -75 31 -30 10 -57 21 -60 25 -6 8 -65 30 -100 36
-14 3 -29 9 -34 15 -12 11 -76 12 -76 1 0 -5 -6 -9 -14 -9 -9 0 -23 24 -35 57
-12 31 -30 65 -41 75 -11 10 -20 23 -20 30 0 23 -251 263 -306 293 -13 7 -24
16 -24 20 0 4 -20 18 -45 31 -25 13 -45 27 -45 30 0 4 -17 15 -37 26 -21 11
-44 26 -52 34 -8 7 -27 18 -43 23 -15 6 -28 14 -28 18 0 5 -17 14 -37 20 -21
7 -45 18 -53 25 -20 17 -148 80 -194 95 -21 7 -68 42 -113 86 -42 40 -84 76
-95 79 -10 4 -18 10 -18 14 0 4 -19 16 -42 27 -24 10 -45 21 -48 24 -3 4 -14
10 -24 14 -15 5 -17 9 -8 18 16 16 15 46 -2 63 -8 9 -52 17 -117 21 -100 8
-102 8 -59 18 25 5 47 13 50 17 3 3 24 10 48 14 38 6 42 10 42 35 0 51 -73 59
-325 35 -27 -2 -41 -2 -30 1 30 9 45 24 45 45 0 12 -7 19 -19 19 -11 0 -22 4
-26 9 -3 5 -20 7 -38 5 -17 -3 -64 -6 -103 -8 -70 -3 -184 -32 -184 -46 0 -4
-21 -15 -47 -25 -27 -10 -51 -23 -55 -29 -12 -18 -145 -20 -172 -3 -13 9 -66
23 -117 32 -52 8 -103 19 -114 24 -40 18 -166 34 -177 23 -14 -14 -42 0 -78
37 -150 153 -350 268 -455 259 -25 -2 -45 -1 -45 2 0 3 -19 11 -42 18 -23 7
-60 22 -83 32 -22 10 -59 24 -82 31 -24 6 -43 15 -43 19 0 4 -18 12 -40 19
-78 23 -64 44 45 62 75 12 85 19 85 61 0 21 -8 31 -32 44 -18 9 -35 20 -38 23
-10 12 -81 41 -100 41 -10 0 -22 5 -25 10 -7 12 -145 14 -145 2 0 -4 -19 -13
-43 -19 -23 -7 -54 -21 -67 -33 -14 -12 -30 -25 -36 -28 -31 -19 -93 -204 -76
-225 5 -7 12 -27 15 -44 5 -27 2 -36 -17 -48 -12 -8 -33 -39 -45 -68 -13 -28
-27 -60 -32 -69 -12 -24 -11 -128 1 -128 6 0 10 -6 10 -14 0 -17 38 -84 60
-106 15 -15 64 -50 146 -103 50 -33 61 -34 76 -2 10 23 8 29 -23 63 -20 20
-43 49 -52 64 -35 56 -11 136 47 160 17 6 34 16 38 22 4 5 36 12 71 14 56 4
73 0 131 -27 36 -17 72 -35 79 -41 6 -5 23 -19 37 -29 20 -15 25 -29 27 -70 1
-33 9 -61 22 -80 12 -16 21 -33 21 -38 0 -16 83 -73 117 -79 18 -3 36 -10 39
-15 7 -12 141 -11 201 1 26 5 89 11 139 12 l91 4 11 -43 c17 -64 96 -137 170
-159 31 -9 66 -21 78 -26 26 -12 132 -5 196 12 l48 13 64 -66 c115 -118 295
-217 396 -217 15 0 30 -4 36 -9 5 -5 90 -17 189 -26 99 -9 184 -20 190 -24 5
-4 81 -16 168 -26 86 -10 157 -22 157 -27 0 -4 11 -8 24 -8 37 0 199 -30 210
-39 6 -4 29 -15 52 -24 49 -19 73 -38 173 -139 113 -115 145 -150 184 -209 20
-30 50 -70 67 -89 16 -19 35 -41 42 -49 9 -11 7 -17 -7 -27 -10 -8 -22 -14
-25 -14 -10 0 -30 -48 -30 -71 0 -20 60 -121 79 -133 5 -4 24 -32 42 -64 18
-31 36 -59 39 -62 4 -3 9 -10 11 -16 2 -7 20 -31 39 -54 124 -150 157 -189
189 -218 19 -18 44 -46 55 -61 20 -28 74 -96 139 -176 18 -21 49 -58 70 -81
20 -23 37 -44 37 -47 0 -4 29 -34 65 -68 35 -34 62 -66 59 -71 -3 -5 -24 -6
-45 -3 -27 5 -39 3 -39 -5 0 -7 -8 -10 -20 -7 -25 6 -297 -29 -325 -42 -11 -6
-63 -19 -115 -30 -52 -11 -128 -32 -169 -46 -40 -14 -80 -25 -87 -25 -8 0 -14
-4 -14 -10 0 -5 -17 -14 -39 -20 -21 -5 -65 -23 -97 -40 -33 -16 -65 -30 -71
-30 -7 0 -13 -4 -13 -9 0 -6 -38 -21 -85 -36 -96 -29 -135 -65 -135 -124 0
-18 -7 -48 -15 -67 -8 -19 -22 -51 -31 -71 -9 -21 -24 -56 -35 -78 -10 -22
-21 -59 -25 -82 -8 -51 -10 -53 -98 -86 -136 -52 -376 -216 -423 -290 -29 -46
-70 -72 -137 -88 -28 -6 -70 -20 -94 -31 -23 -10 -67 -24 -97 -30 -30 -6 -55
-14 -55 -18 0 -4 -34 -16 -75 -25 -42 -10 -78 -22 -81 -26 -2 -4 -39 -15 -82
-25 -42 -9 -88 -22 -102 -29 -14 -7 -50 -18 -80 -25 -30 -7 -72 -22 -92 -32
-36 -19 -37 -19 -81 1 -114 52 -299 48 -445 -10 -42 -17 -79 -34 -82 -38 -3
-3 -18 -15 -33 -24 -16 -10 -38 -27 -50 -37 -86 -74 -49 -66 -355 -73 -153 -4
-313 -11 -357 -17 -44 -5 -96 -12 -115 -14 -19 -2 -93 -7 -165 -11 l-130 -6
100 98 c140 137 189 203 215 288 12 39 25 84 31 101 11 37 -8 84 -34 84 -22 0
-52 15 -76 38 -9 9 -32 28 -51 42 -47 35 -111 89 -136 114 -11 11 -86 85 -165
162 -155 153 -234 235 -289 302 -19 23 -48 57 -65 76 -16 18 -57 63 -90 101
-33 38 -76 86 -95 106 -156 162 -277 295 -291 319 -10 15 -23 31 -29 35 -6 4
-25 26 -41 48 -63 86 -245 278 -287 301 -10 5 -27 21 -39 34 -20 24 -24 25
-61 14 -53 -16 -57 -15 -86 11 -55 50 -147 117 -194 141 -21 11 -33 26 -37 48
-4 18 -11 38 -15 43 -5 6 -18 35 -29 65 -27 72 -105 156 -153 165 -26 5 -39
15 -51 38 -27 51 -53 95 -67 112 -8 9 -15 31 -16 48 -6 53 -15 101 -23 112 -4
6 -14 30 -22 55 -7 25 -35 73 -61 107 -33 44 -49 76 -53 108 -4 25 -11 45 -16
45 -5 0 -8 3 -7 8 0 4 -8 27 -20 52 -12 25 -22 52 -22 61 0 9 -14 35 -30 57
-17 23 -30 45 -30 48 0 4 -20 31 -45 60 -25 28 -45 59 -45 67 0 8 -6 30 -14
48 -7 19 -19 75 -26 124 -7 50 -16 95 -20 100 -4 6 -11 33 -14 60 -22 163 -98
323 -174 369 -41 25 -112 36 -112 17 0 -5 -14 -14 -31 -21 -34 -15 -79 -58
-79 -77 0 -6 -7 -19 -15 -27 -29 -29 -58 -172 -52 -256 5 -70 31 -168 47 -180
4 -3 15 -21 25 -40 21 -43 86 -130 140 -189 69 -76 75 -81 83 -81 4 0 6 -20 4
-45 -3 -28 2 -59 12 -79 9 -19 16 -40 16 -48 0 -18 58 -88 74 -88 7 0 17 -28
24 -70 7 -39 16 -78 21 -88 5 -9 22 -48 37 -87 15 -38 40 -87 56 -107 18 -24
28 -49 28 -70 0 -36 40 -126 72 -162 60 -66 183 -189 204 -202 13 -9 31 -14
39 -10 8 3 15 1 15 -4 0 -5 38 -51 84 -102 68 -77 84 -100 90 -136 3 -23 14
-57 24 -75 26 -49 105 -128 165 -167 48 -31 56 -41 67 -85 17 -65 24 -76 91
-144 74 -75 113 -109 184 -164 70 -53 183 -162 275 -266 71 -81 132 -142 182
-183 18 -15 44 -36 58 -48 34 -29 222 -150 232 -150 5 0 21 -8 36 -19 15 -10
59 -39 99 -64 39 -26 110 -84 156 -129 47 -46 126 -121 177 -168 118 -109 126
-124 101 -188 -22 -55 -100 -171 -147 -218 -35 -36 -140 -175 -136 -181 10
-14 -35 -32 -94 -37 -38 -2 -143 -12 -234 -20 -344 -33 -390 -37 -565 -47
-219 -12 -768 -6 -810 9 -16 6 -77 18 -134 26 -57 9 -109 20 -115 24 -6 5 -40
15 -76 21 -36 7 -76 18 -90 24 -14 6 -81 23 -150 38 -213 46 -315 71 -320 79
-3 5 -37 9 -77 11 -72 4 -94 -4 -99 -33 -3 -21 -54 -181 -64 -203 -18 -37 -42
-209 -42 -300 0 -110 20 -198 66 -290 30 -62 115 -165 136 -165 4 0 20 -11 36
-25 16 -14 44 -28 62 -31 18 -4 35 -10 38 -15 15 -25 139 -1 239 46 28 13 70
29 95 35 25 7 50 16 57 22 6 5 40 16 75 24 35 8 77 21 93 28 47 22 289 49 370
42 94 -9 279 -38 285 -45 5 -7 89 -31 132 -39 16 -2 28 -8 28 -12 0 -4 38 -16
85 -26 47 -10 85 -21 85 -25 0 -4 42 -14 93 -24 50 -10 97 -21 102 -26 6 -4
62 -17 125 -29 63 -12 120 -25 125 -30 6 -4 59 -15 119 -25 60 -9 116 -21 125
-25 9 -5 67 -16 128 -26 62 -9 113 -21 113 -25 0 -5 11 -9 23 -9 23 0 57 -27
57 -46 0 -5 37 -47 83 -94 144 -150 211 -255 185 -289 -25 -31 -85 -86 -145
-133 -73 -57 -101 -81 -152 -129 -42 -40 -174 -129 -190 -129 -6 0 -11 -4 -11
-9 0 -5 -17 -15 -38 -21 -20 -7 -48 -19 -62 -28 -25 -16 -83 -48 -152 -83 -21
-11 -38 -24 -38 -29 0 -5 -8 -11 -18 -14 -10 -4 -27 -14 -38 -24 -11 -10 -33
-27 -49 -38 -16 -10 -87 -75 -157 -143 -70 -69 -140 -130 -155 -137 -15 -6
-37 -26 -48 -42 -10 -17 -30 -36 -44 -42 -27 -12 -63 -39 -119 -87 -20 -18
-41 -33 -45 -33 -18 0 -114 -107 -126 -140 -7 -19 -17 -44 -21 -56 -5 -12 -32
-35 -62 -52 -100 -57 -186 -162 -189 -231 -1 -19 -21 -44 -74 -91 -39 -36 -78
-75 -85 -88 -9 -14 -20 -20 -31 -17 -11 4 -39 -12 -81 -47 -145 -121 -228
-224 -228 -286 0 -13 -13 -41 -28 -61 -16 -20 -35 -52 -42 -71 -7 -19 -20 -44
-27 -55 -7 -11 -13 -27 -13 -37 0 -10 -4 -18 -9 -18 -5 0 -15 -30 -21 -67 -11
-60 -16 -70 -42 -83 -17 -8 -36 -26 -43 -40 -41 -84 -46 -100 -43 -136 2 -30
-1 -41 -16 -49 -28 -14 -196 -204 -230 -259 -58 -96 -70 -227 -31 -341 35
-101 118 -175 195 -175 61 0 100 27 156 106 52 75 77 155 125 398 10 55 23
104 29 110 5 5 10 17 10 26 0 8 20 36 45 62 25 26 45 50 45 54 0 3 11 19 25
36 14 16 28 42 32 56 3 15 19 48 34 73 15 25 30 61 34 80 4 19 28 59 52 89 25
31 54 78 65 105 11 28 24 59 29 70 4 11 9 36 11 55 2 29 39 99 76 145 4 6 11
17 14 26 4 9 23 19 45 22 46 8 132 90 158 152 45 112 47 114 115 152 36 20 67
39 70 42 9 11 85 66 107 78 17 8 30 8 59 -2 38 -13 64 -11 64 6 0 4 27 26 60
49 32 22 112 95 177 162 105 109 260 263 563 563 52 51 122 122 155 157 33 35
96 95 140 134 187 166 249 220 277 240 16 12 35 29 41 37 7 9 46 34 87 56 42
22 89 54 105 71 16 16 38 30 50 30 25 0 44 44 33 80 -4 14 -14 50 -24 80 -20
69 -96 164 -199 250 -41 35 -75 65 -75 67 0 6 45 -1 160 -22 49 -10 133 -16
200 -16 63 1 153 -5 200 -13 104 -18 263 -56 270 -66 9 -11 121 -39 136 -33 7
3 17 -2 20 -11 3 -9 12 -16 20 -16 7 0 25 -11 39 -26 14 -14 40 -31 58 -39 17
-7 46 -25 62 -39 17 -15 40 -29 52 -32 12 -3 24 -12 27 -20 3 -8 12 -14 20
-14 8 0 33 -16 56 -35 26 -22 53 -35 70 -35 15 0 41 -7 56 -15 33 -17 190 -21
257 -6 23 5 99 17 168 26 l127 17 83 -65 c254 -194 748 -476 999 -570 55 -20
65 -28 68 -50 2 -14 10 -31 18 -37 8 -7 14 -19 14 -26 0 -18 108 -168 164
-228 25 -26 46 -54 46 -60 0 -24 71 -84 107 -91 52 -10 144 -63 210 -123 61
-55 84 -71 143 -97 44 -20 62 -28 250 -115 221 -101 216 -99 236 -135 18 -35
60 -65 91 -65 15 -1 13 -4 -9 -23 -16 -13 -28 -26 -28 -31 0 -4 -14 -22 -31
-39 -18 -17 -38 -46 -46 -65 -7 -18 -20 -35 -28 -38 -7 -3 -20 -22 -28 -43 -9
-20 -23 -43 -32 -51 -9 -8 -29 -36 -43 -63 -15 -27 -32 -57 -37 -66 -65 -101
-98 -148 -152 -217 -35 -45 -63 -84 -63 -87 0 -3 -30 -49 -66 -104 -37 -54
-82 -131 -101 -172 -19 -41 -42 -86 -52 -100 -11 -14 -38 -63 -61 -108 -39
-76 -41 -84 -30 -122 11 -40 15 -46 55 -77 14 -11 16 -17 8 -20 -7 -3 -13 -12
-13 -19 0 -7 -11 -26 -24 -42 -13 -15 -38 -55 -56 -88 -18 -33 -37 -63 -44
-67 -6 -4 -7 -8 -1 -8 7 0 7 -3 0 -8 -5 -4 -26 -29 -45 -57 -19 -27 -38 -52
-42 -53 -4 -2 -8 -8 -8 -14 0 -24 -159 -206 -221 -254 -8 -5 -41 -21 -74 -33
-33 -13 -69 -27 -80 -32 -21 -8 -113 -27 -180 -36 -22 -3 -42 -9 -45 -13 -3
-4 -59 -14 -125 -24 -65 -9 -122 -21 -125 -25 -3 -5 -78 -16 -168 -25 -89 -8
-177 -22 -195 -29 -18 -8 -59 -19 -92 -26 -33 -6 -61 -15 -63 -21 -2 -5 -12
-10 -23 -10 -10 0 -19 -4 -19 -10 0 -5 -6 -10 -14 -10 -8 0 -34 -16 -58 -35
-42 -34 -49 -40 -76 -67 -77 -77 -115 -121 -135 -158 -19 -34 -14 -34 -102
-11 -89 23 -233 5 -272 -35 -8 -8 -19 -14 -24 -14 -11 0 -64 -58 -92 -99 -9
-14 -22 -52 -29 -84 -7 -31 -16 -57 -20 -57 -4 0 -8 4 -8 9 0 5 -36 9 -80 10
-44 1 -103 6 -131 11 -67 13 -196 13 -204 0 -3 -5 -15 -10 -26 -10 -10 0 -19
-4 -19 -10 0 -5 -7 -10 -16 -10 -10 0 -39 -23 -65 -50 -53 -56 -71 -101 -73
-190 -1 -59 -5 -64 -91 -133 -69 -55 -102 -69 -162 -68 -82 1 -160 45 -182
104 -25 65 -1 153 61 225 32 37 35 63 12 86 -22 22 -30 20 -66 -14 -17 -16
-35 -30 -41 -30 -20 0 -123 -119 -152 -176 -28 -55 -30 -66 -29 -164 0 -94 3
-110 27 -156 15 -29 27 -55 27 -60 0 -4 9 -17 20 -29 17 -18 18 -27 10 -83
-13 -96 5 -190 57 -287 22 -43 90 -103 124 -110 16 -4 31 -11 34 -16 8 -12
117 -12 147 0 71 28 108 45 108 51 0 3 18 16 39 28 42 24 51 38 51 82 0 37
-22 58 -68 65 -61 10 -112 25 -112 35 0 8 11 19 43 46 7 6 24 15 38 19 33 10
93 38 99 46 3 3 23 12 45 19 22 7 50 22 62 33 16 14 40 21 80 24 64 4 133 22
133 34 0 4 15 12 33 18 19 7 43 20 54 30 11 10 33 26 50 34 16 9 55 46 86 84
111 132 140 154 227 167 46 7 103 23 130 36 9 4 49 13 90 20 41 7 92 22 115
34 31 16 58 21 120 21 83 0 106 -9 203 -83 29 -21 80 -41 110 -41 12 -1 22 -6
22 -11 0 -6 8 -5 20 2 17 11 22 10 31 -2 8 -11 12 -12 16 -2 6 14 33 16 33 2
0 -5 20 -10 45 -10 25 0 45 5 45 10 0 6 7 10 16 10 14 0 16 8 11 41 -5 40 -5
41 21 35 68 -16 218 -17 257 -3 37 13 40 17 43 54 3 40 3 40 -39 47 -24 4 -48
11 -55 16 -6 6 -28 16 -50 23 -38 14 -38 14 61 21 70 5 105 12 117 23 22 20
24 71 3 79 -18 7 -4 23 37 41 29 13 38 20 102 78 22 19 42 35 46 35 4 0 11 10
17 23 24 53 116 138 187 173 72 36 121 67 151 97 9 10 23 17 30 17 8 0 30 13
48 30 19 16 38 30 42 30 4 0 24 14 44 31 20 17 56 47 81 67 53 43 330 323 330
333 0 4 17 29 38 56 52 65 108 171 127 238 10 33 22 55 31 55 8 0 14 -5 14
-11 0 -12 43 -7 83 9 16 7 37 12 47 12 10 0 20 3 22 8 2 4 35 23 73 42 39 19
73 39 76 43 3 5 9 8 13 8 12 -1 41 13 54 26 7 7 20 13 28 13 8 0 14 5 14 10 0
6 5 10 10 10 17 0 42 22 135 121 60 65 132 177 180 282 15 31 30 57 34 57 4 0
18 23 31 50 13 28 30 56 38 63 9 7 27 37 41 67 15 30 38 71 52 90 14 19 38 61
53 93 16 31 31 57 35 57 3 0 18 21 31 47 14 27 31 53 39 59 14 11 88 151 143
269 38 82 49 93 92 88 23 -2 57 -8 76 -13 74 -20 476 -47 780 -53 80 -1 150
-5 155 -8 13 -7 178 -4 230 4 22 3 90 9 150 12 128 7 319 31 355 44 14 5 63
17 110 26 47 10 90 21 95 25 6 4 28 13 50 20 46 14 168 69 175 79 3 4 17 12
32 18 25 11 31 10 57 -15 48 -46 73 -64 107 -78 18 -8 35 -18 38 -23 3 -5 18
-12 32 -15 15 -4 82 -34 148 -67 108 -53 136 -63 237 -79 127 -21 174 -32 204
-47 11 -6 55 -28 98 -49 43 -21 86 -45 95 -54 9 -9 32 -22 50 -29 18 -8 36
-19 40 -25 4 -6 26 -20 50 -30 23 -11 42 -22 42 -25 0 -4 23 -15 50 -26 28
-11 50 -23 50 -27 0 -4 5 -8 10 -8 6 0 43 -15 83 -34 40 -19 81 -37 93 -40 15
-5 20 -14 20 -43 0 -23 5 -38 14 -41 20 -7 134 -125 184 -191 93 -122 105
-138 142 -176 60 -63 80 -88 174 -220 109 -154 138 -201 229 -380 12 -22 48
-78 81 -125 33 -47 75 -107 94 -135 63 -94 152 -173 240 -216 46 -22 83 -31
164 -39 58 -5 122 -7 143 -4 34 6 40 3 71 -32 52 -62 119 -122 150 -135 15 -6
28 -15 28 -20 0 -5 5 -9 11 -9 6 0 37 -15 68 -34 31 -18 67 -37 81 -41 14 -4
32 -13 40 -20 8 -7 32 -18 53 -25 20 -6 37 -15 37 -18 0 -10 66 -38 110 -47
19 -4 40 -11 45 -15 6 -4 45 -16 88 -26 42 -10 77 -21 77 -25 0 -4 24 -13 53
-19 28 -7 57 -16 62 -19 19 -13 81 -31 159 -45 43 -9 84 -20 91 -26 12 -10
102 -40 119 -39 5 0 12 -3 15 -8 6 -9 177 -85 221 -98 13 -4 30 -13 36 -19 7
-6 36 -24 64 -41 28 -16 67 -42 87 -57 20 -16 40 -28 45 -28 18 0 216 -208
253 -265 21 -33 49 -89 62 -125 31 -82 38 -90 78 -90 79 0 128 128 142 368 l5
84 63 -64 c34 -35 89 -85 120 -113 32 -27 79 -69 104 -92 82 -73 225 -174 269
-187 12 -4 22 -11 22 -16 0 -11 57 -30 92 -30 33 0 63 13 96 43 l22 21 28 -26
c15 -14 52 -42 82 -63 30 -20 57 -40 60 -43 7 -10 80 -64 115 -87 17 -10 36
-25 44 -33 8 -7 24 -20 37 -29 29 -19 95 -153 128 -262 14 -46 36 -106 48
-132 22 -46 26 -49 78 -60 72 -15 162 -5 222 25 38 19 48 21 48 9 0 -18 100
-114 227 -218 85 -70 120 -113 138 -171 10 -32 22 -64 27 -70 4 -6 11 -39 14
-72 9 -86 -4 -112 -69 -137 -39 -16 -53 -26 -55 -43 -6 -41 14 -52 93 -52 67
0 73 2 83 25 6 14 16 25 22 25 24 0 62 113 68 197 4 70 1 90 -18 140 -13 32
-28 64 -34 72 -6 7 -15 21 -21 31 -5 9 -27 42 -47 71 -21 30 -38 57 -38 61 0
5 17 -2 38 -15 20 -13 51 -29 67 -35 17 -7 48 -29 70 -48 42 -39 105 -74 130
-74 8 0 23 -4 33 -9 9 -5 46 -17 82 -26 36 -9 73 -21 82 -26 25 -13 168 -15
176 -2 4 6 24 18 44 26 21 9 47 25 60 36 12 12 25 21 30 21 4 0 8 6 8 14 0 7
15 26 34 42 18 16 36 38 40 50 8 26 -2 54 -19 54 -20 0 -65 -26 -79 -46 -26
-35 -200 -28 -238 9 -7 8 -34 22 -61 32 -26 10 -47 21 -47 24 0 4 -16 13 -35
20 -19 7 -40 18 -47 24 -7 7 -31 24 -53 39 -22 16 -71 57 -110 93 -38 36 -80
68 -92 71 -13 3 -23 10 -23 15 0 4 -31 18 -70 29 l-70 21 18 27 c29 44 41 66
52 91 14 33 15 169 1 205 -7 16 -43 60 -81 97 -52 50 -83 72 -122 85 -29 9
-55 21 -58 25 -3 5 -69 13 -145 20 -77 6 -153 17 -170 24 -16 7 -56 21 -87 30
-32 9 -58 21 -58 26 0 5 -5 9 -11 9 -20 0 -156 70 -173 89 -9 10 -38 27 -64
37 -26 9 -53 23 -60 30 -7 7 -30 23 -52 35 -45 26 -50 40 -18 54 48 21 22 85
-33 85 -15 0 -30 4 -33 9 -3 4 -40 20 -83 35 -43 15 -89 33 -103 40 -14 7 -46
19 -72 26 -27 7 -48 16 -48 21 0 4 -16 13 -36 19 l-36 12 25 17 c42 28 142
106 145 114 2 4 9 7 15 7 6 0 37 12 69 27 40 19 61 35 64 51 9 34 -13 53 -60
52 -69 -2 -220 10 -246 19 -14 5 -63 17 -110 26 -47 9 -98 22 -115 30 -16 7
-55 18 -85 25 -30 6 -66 16 -80 22 -48 21 -65 26 -115 38 -27 7 -59 16 -70 20
-11 5 -54 16 -95 26 -41 9 -77 20 -80 24 -3 4 -23 13 -44 20 -22 7 -53 21 -70
30 -17 10 -53 23 -81 29 -27 7 -59 18 -71 26 -11 7 -58 21 -104 30 -46 9 -91
21 -99 25 -9 4 -43 15 -76 24 -33 10 -69 21 -80 25 -11 5 -51 16 -90 25 -72
17 -85 22 -195 73 -36 17 -81 36 -100 43 -19 7 -48 18 -65 25 -16 7 -49 19
-72 26 -24 7 -43 16 -43 20 0 4 -17 13 -37 20 -21 6 -40 15 -43 18 -6 8 -75
41 -86 41 -10 0 -138 61 -144 69 -3 3 -18 15 -35 25 -46 29 -75 59 -75 79 0 9
-5 17 -11 17 -6 0 -4 7 5 15 19 20 30 92 21 147 -8 49 -36 118 -47 118 -4 0
-19 22 -33 49 -13 28 -30 54 -37 58 -7 4 -32 33 -56 63 -23 30 -78 96 -122
145 -44 50 -92 108 -107 130 -14 22 -40 53 -57 69 l-31 29 40 -6 c22 -2 83
-10 135 -16 52 -7 104 -16 115 -21 20 -9 56 -15 155 -25 59 -7 138 -20 210
-34 25 -5 144 -16 265 -25 121 -10 227 -21 236 -25 8 -5 67 -12 130 -16 62 -4
166 -14 229 -22 133 -16 370 -38 515 -48 55 -4 117 -11 138 -16 45 -12 594
-11 640 1 17 4 111 11 207 14 l175 6 23 -53 c24 -55 43 -81 127 -174 133 -147
296 -298 445 -414 30 -23 84 -67 120 -96 87 -71 97 -78 157 -116 28 -17 77
-49 110 -69 32 -21 67 -44 78 -50 11 -7 34 -22 50 -34 17 -11 71 -40 120 -64
50 -24 92 -47 95 -51 3 -4 28 -17 55 -29 27 -12 52 -25 55 -29 3 -4 26 -16 53
-26 26 -10 47 -22 47 -26 0 -5 5 -9 11 -9 6 0 42 -16 80 -35 39 -19 76 -35 83
-35 7 0 24 -8 37 -18 13 -11 37 -22 52 -26 15 -4 57 -20 93 -36 35 -17 67 -30
70 -30 3 0 34 -13 69 -30 35 -16 69 -30 75 -30 5 0 10 -4 10 -8 0 -5 26 -16
57 -26 32 -10 67 -24 78 -31 11 -7 52 -21 90 -31 39 -10 72 -21 75 -25 7 -9
131 -39 163 -39 15 0 27 -4 27 -10 0 -6 27 -10 60 -10 62 0 68 3 129 63 25 25
31 27 54 16 15 -7 27 -15 27 -19 0 -4 18 -15 40 -25 22 -10 40 -22 40 -27 0
-4 5 -8 11 -8 5 0 38 -14 71 -30 34 -17 82 -36 107 -42 25 -6 51 -14 56 -18
12 -10 115 -25 265 -41 63 -6 120 -15 125 -19 10 -8 55 -10 500 -30 132 -6
247 -13 255 -17 8 -3 60 -9 115 -13 128 -10 299 -32 305 -40 3 -3 55 -14 115
-24 61 -10 115 -22 121 -27 6 -5 57 -16 115 -25 57 -9 109 -20 114 -24 6 -4
48 -15 95 -24 47 -10 94 -21 105 -26 11 -5 51 -16 89 -25 38 -9 74 -19 80 -24
6 -5 36 -16 66 -25 30 -9 63 -22 74 -27 10 -6 42 -18 70 -26 28 -8 56 -19 61
-23 10 -8 68 -30 226 -85 36 -13 89 -35 117 -49 28 -14 63 -26 77 -26 29 0
102 69 111 107 4 14 12 22 20 19 7 -3 50 -10 96 -16 107 -14 219 -40 236 -52
6 -6 12 -7 12 -2 0 5 4 4 8 -1 13 -18 62 -35 103 -35 39 0 41 1 65 56 13 30
28 53 32 51 4 -2 39 -18 77 -37 39 -18 77 -39 85 -46 26 -22 173 -94 193 -94
10 0 30 12 44 27 l27 26 49 -54 c43 -49 121 -148 201 -258 32 -44 72 -65 124
-65 38 0 68 -22 122 -91 29 -37 119 -138 196 -221 36 -39 71 -54 125 -54 21 0
39 -4 39 -8 0 -4 15 -23 33 -42 61 -64 197 -229 197 -239 0 -6 3 -11 8 -11 4
0 12 -10 17 -22 7 -15 24 -26 53 -33 44 -10 71 -39 72 -77 0 -9 6 -23 13 -30
7 -7 21 -33 32 -57 20 -45 90 -122 159 -176 21 -16 44 -36 52 -43 21 -20 91
-27 109 -12 17 14 20 50 5 50 -25 0 -84 78 -128 171 -18 36 -32 71 -32 77 0 7
-4 12 -8 12 -4 0 -13 22 -18 50 l-11 50 32 0 c54 0 110 -25 194 -87 38 -28
111 -107 111 -120 0 -6 3 -13 8 -15 9 -4 47 -58 55 -81 4 -10 17 -17 32 -17
24 0 25 3 25 59 0 33 -4 62 -9 65 -4 3 -14 33 -20 67 -27 137 -83 211 -232
307 -42 28 -79 54 -83 60 -3 5 -27 15 -53 23 -27 7 -56 23 -66 36 -27 34 -104
105 -167 154 -30 24 -57 46 -60 49 -3 3 -33 29 -67 59 -44 37 -63 60 -63 76 0
75 -203 274 -305 299 -17 4 -55 19 -85 33 l-55 25 0 51 c0 28 -5 52 -11 54
-22 7 -178 127 -205 157 -34 39 -142 94 -200 102 l-44 6 3 63 c3 57 1 65 -20
79 -13 8 -54 18 -93 21 -38 3 -86 10 -105 16 -19 5 -90 9 -156 9 -127 0 -135
3 -192 57 -7 7 -17 13 -22 13 -5 0 -15 10 -22 23 -60 108 -102 147 -157 147
-15 0 -31 4 -36 9 -6 5 -62 17 -125 26 -63 9 -128 20 -145 25 -53 15 -251 42
-287 39 -28 -3 -43 4 -77 33 -38 33 -48 36 -128 42 -48 4 -122 19 -167 34 -90
30 -2 27 -776 20 -196 -2 -362 -8 -400 -15 -98 -18 -782 -16 -883 3 -82 14
-178 39 -212 54 -11 5 -38 14 -60 21 -74 22 -310 116 -353 141 -56 31 -131 90
-132 103 -1 37 -109 141 -271 263 -100 74 -125 94 -144 110 -11 9 -51 43 -90
75 -38 32 -79 67 -91 76 -12 10 -28 22 -36 27 -40 23 -306 269 -377 348 -118
133 -172 198 -194 237 -31 53 -32 59 -12 59 8 0 15 4 15 8 0 5 48 17 108 26
59 10 116 22 127 27 11 4 76 18 145 29 69 12 134 25 145 30 11 4 72 16 135 25
63 9 124 20 135 25 11 5 63 16 115 26 52 9 100 20 105 24 6 4 44 15 85 25 41
9 77 21 80 25 3 4 32 15 65 25 33 9 74 23 90 30 17 8 53 21 80 30 83 27 268
117 425 206 32 18 237 155 273 183 37 29 119 93 137 109 8 7 40 33 70 58 125
101 297 265 410 390 41 45 85 93 98 105 12 11 22 26 22 32 0 6 4 12 8 14 12 4
115 127 182 215 78 102 173 243 165 243 -3 0 8 19 25 42 16 22 30 45 30 50 0
4 10 25 23 46 13 20 38 71 55 113 17 41 40 93 51 115 11 21 27 64 36 94 9 30
25 73 35 95 9 22 30 94 45 160 15 66 31 129 35 140 38 97 63 296 66 525 4 313
-19 402 -173 670 -121 211 -274 382 -534 599 -147 121 -191 153 -409 289 -30
19 -67 43 -82 53 -15 11 -30 19 -34 19 -4 0 -22 11 -40 25 -18 14 -36 25 -40
25 -4 0 -21 10 -38 23 -17 13 -61 40 -99 61 -37 20 -93 54 -125 75 -31 21 -97
60 -145 87 -48 27 -109 61 -135 76 -26 15 -58 32 -72 38 -14 6 -57 27 -97 46
-39 19 -75 34 -79 34 -4 0 -15 6 -23 13 -9 7 -52 28 -96 46 -44 19 -102 44
-130 56 -27 13 -61 26 -75 30 -14 4 -34 13 -45 20 -11 6 -45 20 -75 30 -30 10
-59 21 -65 25 -5 5 -30 13 -55 20 -25 6 -58 18 -75 25 -16 7 -55 21 -85 30
-30 10 -68 23 -85 30 -16 7 -55 21 -85 30 -30 10 -60 22 -66 26 -6 5 -33 16
-60 24 -27 8 -67 24 -89 35 -21 11 -46 20 -55 20 -9 0 -24 6 -35 14 -11 7 -47
23 -80 35 -33 12 -73 28 -90 36 -94 44 -146 65 -162 65 -13 0 -18 7 -18 23 2
28 60 139 90 170 12 12 43 47 70 77 104 120 347 360 364 360 5 0 14 7 18 15 5
8 32 32 62 54 29 22 77 60 105 85 69 60 120 101 210 166 42 30 91 68 109 84
17 15 48 40 67 54 19 15 48 39 64 54 17 16 32 28 36 28 3 0 17 21 30 47 43 81
139 148 295 204 33 12 96 35 140 51 81 30 119 41 190 59 21 6 44 14 50 19 30
25 194 31 631 25 247 -4 561 -7 698 -6 167 1 301 -4 405 -14 146 -15 245 -15
316 -1 104 22 171 38 180 45 10 9 101 20 161 21 22 0 41 10 62 31 28 29 35 31
110 33 44 1 86 7 94 13 7 6 40 14 73 18 127 14 281 37 295 45 19 10 100 24
120 22 18 -3 75 51 110 103 33 49 67 82 125 122 26 18 51 21 200 26 206 7 263
14 293 34 21 13 23 21 20 78 l-3 63 40 6 c53 7 152 56 195 97 19 19 73 61 120
96 117 85 111 79 106 123 -4 37 -2 40 37 63 23 14 62 31 87 38 25 7 47 16 50
20 3 3 20 14 38 23 61 31 172 132 198 181 10 19 22 35 26 35 5 0 8 15 8 34 0
32 9 42 118 131 151 123 241 205 247 226 3 10 21 19 43 23 20 3 47 12 59 18
54 32 164 113 215 158 60 53 88 108 109 214 6 28 15 60 20 72 6 11 9 40 7 65
-5 69 -31 60 -92 -31 -58 -86 -122 -152 -179 -183 -22 -12 -51 -28 -66 -36
-14 -8 -47 -16 -73 -19 l-47 -4 13 53 c23 96 109 250 169 301 26 23 30 31 21
45 -18 29 -67 28 -115 -4 -123 -81 -182 -147 -239 -268 -48 -102 -49 -103 -89
-110 -33 -5 -44 -14 -65 -48 -23 -39 -62 -86 -189 -231 -29 -32 -54 -61 -57
-65 -3 -4 -21 -8 -40 -9 -63 -4 -96 -22 -146 -79 -27 -30 -62 -70 -79 -87 -16
-17 -48 -54 -70 -80 -66 -81 -115 -127 -126 -121 -5 4 -32 1 -59 -5 -44 -10
-55 -19 -97 -76 -81 -109 -136 -178 -188 -236 l-49 -56 -23 24 c-12 13 -33 24
-48 24 -26 0 -118 -39 -165 -71 -43 -29 -144 -81 -173 -90 -26 -7 -29 -5 -46
34 -10 23 -26 48 -35 56 -19 16 -66 9 -124 -19 -58 -28 -202 -60 -329 -74 -50
-5 -53 -4 -59 19 -9 35 -78 95 -111 95 -30 0 -93 -21 -93 -31 0 -3 -26 -14
-57 -23 -32 -10 -76 -26 -98 -35 -22 -10 -53 -22 -70 -26 -16 -3 -54 -17 -83
-31 -29 -13 -57 -24 -63 -24 -6 0 -25 -7 -42 -15 -105 -48 -251 -93 -442 -136
-49 -11 -99 -24 -110 -29 -11 -5 -65 -17 -120 -26 -55 -9 -104 -20 -110 -24
-5 -4 -55 -15 -110 -24 -55 -10 -109 -21 -120 -26 -22 -9 -241 -36 -370 -45
-44 -4 -100 -10 -125 -15 -25 -5 -130 -11 -235 -14 -258 -8 -399 -16 -465 -27
-30 -5 -89 -14 -130 -19 -41 -6 -112 -15 -158 -21 -45 -6 -84 -15 -87 -19 -3
-4 -22 -11 -42 -15 -21 -3 -71 -22 -111 -41 -40 -19 -75 -34 -78 -34 -3 0 -17
-8 -32 -18 -15 -11 -46 -31 -69 -46 l-41 -27 -49 46 -48 47 -87 -6 c-49 -3
-96 -10 -105 -15 -10 -5 -47 -17 -83 -26 -36 -10 -69 -20 -75 -24 -5 -4 -30
-13 -55 -20 -49 -13 -166 -60 -245 -96 -90 -42 -165 -75 -173 -75 -4 0 -29
-12 -57 -25 -27 -14 -58 -25 -67 -25 -9 0 -23 -6 -30 -13 -7 -7 -33 -20 -58
-30 -25 -9 -74 -33 -110 -52 -36 -19 -81 -41 -100 -50 -19 -8 -42 -19 -50 -24
-8 -5 -77 -42 -154 -81 -76 -39 -150 -79 -165 -89 -38 -27 -187 -123 -256
-166 -81 -50 -119 -77 -170 -122 -24 -21 -58 -50 -77 -65 -132 -106 -253 -210
-313 -268 -106 -102 -205 -206 -205 -215 0 -4 -13 -23 -30 -41 -16 -19 -39
-57 -51 -84 -19 -43 -25 -50 -50 -50 -16 0 -48 6 -71 14 -24 8 -83 20 -133 26
-49 6 -117 18 -150 26 -33 8 -152 24 -265 36 -248 25 -891 37 -1085 19 -66 -6
-172 -13 -235 -16 -200 -8 -464 -26 -480 -32 -20 -7 -65 -10 -260 -18 -91 -3
-201 -8 -245 -12 l-80 -6 76 74 c41 41 87 90 101 109 14 19 73 84 132 143 58
60 106 112 106 117 0 5 10 17 23 27 37 29 115 149 128 195 12 48 5 112 -17
146 -8 12 -10 22 -5 22 5 0 11 10 15 23 8 33 147 115 251 147 22 7 45 16 50
20 6 4 33 15 60 26 28 10 52 21 55 24 3 3 68 28 145 55 77 27 149 54 160 60
11 7 40 18 65 25 25 7 59 18 75 26 17 7 60 18 98 24 37 7 67 15 67 19 0 4 44
15 98 25 53 9 106 21 117 26 11 4 76 25 145 45 69 20 157 49 195 64 39 16 86
32 105 36 19 4 41 11 50 16 8 4 51 15 95 24 44 9 96 23 115 30 19 7 62 18 95
25 33 7 74 18 90 25 17 7 62 19 100 25 39 7 88 18 110 26 22 7 100 14 174 17
134 4 156 11 144 44 -3 7 -40 30 -82 50 -42 20 -87 45 -101 55 -14 11 -49 34
-78 52 -44 28 -50 35 -38 45 15 13 105 47 206 80 30 10 64 22 75 28 20 11 73
26 127 38 37 7 47 43 19 66 -11 9 -21 20 -21 24 0 15 33 37 126 85 55 29 110
58 124 66 14 7 68 34 121 58 96 46 130 54 319 76 194 22 278 54 365 138 62 61
77 100 70 180 -5 60 -41 152 -65 167 -14 8 -3 25 16 25 32 0 147 61 220 117
42 32 90 68 107 80 18 13 37 26 42 30 6 5 40 22 75 39 36 17 92 44 124 60 51
25 71 29 145 29 78 0 89 -2 122 -27 47 -36 79 -37 79 -3 0 30 -106 137 -155
157 -16 6 -33 17 -37 22 -10 15 -221 14 -239 0 -8 -7 -48 -19 -89 -29 -82 -18
-123 -37 -220 -100 -54 -36 -131 -75 -146 -75 -12 0 1 24 39 72 42 53 48 63
95 146 22 40 24 50 17 127 -5 68 -12 92 -33 123 -72 105 -107 124 -187 105z
m75 -446 c0 -2 -10 -12 -22 -23 l-23 -19 19 23 c18 21 26 27 26 19z m400
-3607 c0 -5 -5 -10 -11 -10 -5 0 -7 5 -4 10 3 6 8 10 11 10 2 0 4 -4 4 -10z
m-11680 -4620 c12 -8 11 -10 -7 -10 -13 0 -23 5 -23 10 0 13 11 13 30 0z"/>
</g>
</svg>
