<?xml version="1.0" encoding="UTF-8" standalone="no"?>
<!-- Created with Inkscape (http://www.inkscape.org/) -->

<svg
   xmlns:svg="http://www.w3.org/2000/svg"
   xmlns="http://www.w3.org/2000/svg"
   version="1.1"
   width="150.82962mm"
   height="235.03307mm"
   viewBox="0 0 150.82962 235.03306"
   id="svg8">
  <defs
     id="defs2" />
  <g
     transform="translate(117.79951,99.084533)"
     id="layer1">
    <path
       d="m -29.498357,135.8122 c -0.32796,-0.18278 -0.77285,-0.27727 -1.32419,-0.28119 -0.45666,-0.003 -1.07578,-0.0694 -1.37583,-0.14703 -0.30005,-0.0776 -0.78366,-0.20241 -1.0747,-0.27732 -0.40897,-0.10529 -0.82769,-0.45764 -1.8433,-1.55118 -1.07745,-1.16012 -1.49681,-1.50507 -2.32834,-1.91531 -0.55781,-0.2752 -1.31264,-0.67254 -1.6774,-0.88299 -0.36477,-0.21045 -1.12677,-0.64807 -1.69334,-0.97248 -0.56657,-0.32442 -1.35255,-0.83528 -1.74661,-1.13524 -0.46521,-0.35411 -1.15807,-0.685 -1.97556,-0.94347 -3.48205,-1.10096 -7.84218,-3.3237 -8.45046,-4.30793 -0.043,-0.0695 -0.47449,-0.39516 -0.95893,-0.72364 -0.48443,-0.32848 -1.08551,-0.76233 -1.33572,-0.96411 -0.25022,-0.20178 -0.74401,-0.58913 -1.09731,-0.86077 -0.57275,-0.44035 -1.76613,-1.42073 -3.64286,-2.99264 -0.34357,-0.28777 -0.87097,-0.66456 -1.172,-0.83734 -0.30104,-0.17276 -0.84625,-0.58821 -1.21157,-0.92318 -0.36533,-0.33498 -0.73297,-0.60906 -0.81698,-0.60906 -0.084,0 -0.39957,-0.23813 -0.70124,-0.52917 -0.87475,-0.84393 -1.30986,-1.12517 -2.20195,-1.4233 -0.90706,-0.30312 -1.61282,-1.0295 -1.61282,-1.65992 0,-0.18831 -0.31145,-0.68753 -0.74084,-1.18752 -0.69783,-0.81257 -1.11525,-1.24274 -2.64583,-2.7266 -0.34925,-0.3386 -1.01438,-1.13615 -1.47806,-1.77235 -0.46368,-0.6362 -1.08174,-1.39185 -1.37346,-1.67921 -0.29172,-0.28737 -0.53147,-0.6061 -0.53277,-0.70829 -0.003,-0.23021 -0.58858,-1.01511 -1.37086,-1.83729 -0.3258,-0.34244 -0.63575,-0.82014 -0.68878,-1.06158 -0.10765,-0.4901 -0.38731,-0.974396 -0.86702,-1.501436 -0.47453,-0.52133 -1.06926,-1.60102 -1.45001,-2.63234 -0.0904,-0.24482 -0.47162,-0.75282 -0.84721,-1.12889 -0.64129,-0.64211 -1.12282,-1.59545 -1.37726,-2.72671 -0.0433,-0.19226 -0.2437,-0.63676 -0.44546,-0.987774 -0.20175,-0.351 -0.61461,-1.146175 -0.91746,-1.767064 -0.30284,-0.620889 -0.66435,-1.293213 -0.80334,-1.49407 -0.139,-0.200844 -0.41927,-0.867594 -0.62283,-1.481667 -0.20356,-0.614059 -0.51215,-1.338735 -0.68576,-1.610374 -0.1736,-0.271639 -0.42863,-0.858731 -0.56673,-1.304643 -0.1381,-0.445925 -0.41444,-1.049175 -0.61409,-1.340555 -0.19966,-0.291395 -0.47402,-0.882707 -0.6097,-1.314041 -0.13568,-0.43132 -0.41101,-1.07854 -0.61184,-1.438261 -0.20083,-0.35972 -0.36514,-0.839625 -0.36514,-1.066461 0,-0.226836 -0.11545,-0.563866 -0.25655,-0.748947 -0.14111,-0.185096 -0.34094,-0.717536 -0.44408,-1.183203 -0.10314,-0.465666 -0.27204,-0.985167 -0.37533,-1.154444 -0.28523,-0.467444 -0.75833,-1.772595 -0.75841,-2.09224 -4e-5,-0.155829 -0.16215,-0.587798 -0.36024,-0.959923 -0.2704,-0.507943 -0.38128,-0.975585 -0.44484,-1.876241 -0.0719,-1.018173 -0.14227,-1.272159 -0.46542,-1.678799 -0.29537,-0.371672 -0.40082,-0.693815 -0.47015,-1.436328 -0.06,-0.642041 -0.18679,-1.08894 -0.38523,-1.357347 -0.16272,-0.220077 -0.25744,-0.500225 -0.21051,-0.62254 0.0469,-0.122315 -0.0191,-0.337848 -0.14684,-0.478959 -0.1277,-0.141097 -0.19943,-0.341899 -0.1594,-0.446208 0.11026,-0.287359 -0.2508,-1.557457 -0.47583,-1.673818 -0.10875,-0.05623 -0.30885,-0.136567 -0.44467,-0.178547 -0.35258,-0.108952 -0.31928,-0.742076 0.0494,-0.939391 0.36895,-0.197457 0.26787,-1.340076 -0.14912,-1.68577 -0.59854,-0.496203 -0.72855,-1.213132 -0.28836,-1.59004 0.46336,-0.396734 0.4068,-1.849614 -0.0845,-2.171545 -0.31594,-0.20701 -0.35547,-0.310839 -0.28533,-0.749441 0.10501,-0.656731 -0.13349,-1.514122 -0.47151,-1.695026 -0.32137,-0.172001 -0.50088,-0.886573 -0.3089,-1.229614 0.1005,-0.179592 0.0759,-0.357957 -0.0876,-0.634676 -0.20669,-0.349885 -0.20722,-0.407853 -0.006,-0.637554 0.21203,-0.241921 0.48477,-1.432151 0.42974,-1.875437 -0.0144,-0.116417 -0.0959,-1.16157 -0.18101,-2.322562 -0.0851,-1.161006 -0.24271,-2.321433 -0.35022,-2.578749 -0.10751,-0.257302 -0.15921,-0.562328 -0.11489,-0.677827 0.0443,-0.115514 0.007,-0.29838 -0.0824,-0.406386 -0.0903,-0.108811 -0.12313,-0.355148 -0.0736,-0.552464 0.12769,-0.508776 -0.0472,-0.936456 -0.44461,-1.087572 -0.18878,-0.07177 -0.39898,-0.277114 -0.46711,-0.456325 -0.3194,-0.840063 -0.98108,-0.865519 -1.24893,-0.04803 -0.0981,0.299508 -0.3425,0.739563 -0.54304,0.9779 -0.69994,0.831836 -0.71727,1.809425 -0.0417,2.354241 0.73704,0.594431 -0.62034,1.945767 -1.44018,1.43376 -0.30701,-0.191728 -0.54828,-0.109644 -0.54828,0.18652 0,0.105876 -0.15978,0.382397 -0.35505,0.614469 -0.452613,0.537887 -0.741633,1.858997 -0.515353,2.355638 0.10714,0.235133 0.11411,0.463564 0.0216,0.706952 -0.30842,0.811234 -0.0656,4.478641 0.338923,5.119511 0.20284,0.32131 0.3688,0.710311 0.3688,0.864447 0,0.154136 0.0876,0.488767 0.19474,0.743642 0.35184,0.837254 0.53004,1.517565 0.43695,1.668201 -0.0503,0.08146 -0.0285,0.224705 0.0486,0.318318 0.0771,0.09361 0.14241,0.505658 0.14522,0.915656 0.006,0.943723 0.10945,1.264878 0.43926,1.369554 0.19246,0.06109 0.28874,0.279555 0.36076,0.8186 0.054,0.40441 0.18223,0.83065 0.28488,0.947208 0.10265,0.116558 0.25544,0.392896 0.33954,0.614073 0.11657,0.306607 0.21109,0.377233 0.39787,0.297279 0.78136,-0.334433 1.0211,-0.264936 1.0211,0.295995 0,0.295896 0.10269,0.647545 0.23029,0.788529 0.21569,0.23835 0.20561,0.263849 -0.15904,0.402491 -0.34605,0.131572 -0.38063,0.201577 -0.31113,0.629849 0.18563,1.143917 -1.0409,1.016932 -2.2173,-0.229573 -0.80696,-0.855049 -1.1804,-0.96036 -0.9886,-0.27878 0.0577,0.204964 0.0921,0.662559 0.0765,1.016861 -0.0209,0.474712 0.0509,0.745081 0.27311,1.027543 0.27254,0.346484 0.38922,0.698373 0.84939,2.56159 0.27231,1.102614 1.13915,2.593128 1.53491,2.639258 0.30238,0.03524 0.35245,0.104902 0.31682,0.440774 -0.0252,0.237377 0.10339,0.647545 0.3175,1.012896 0.1979,0.337693 0.35982,0.736995 0.35982,0.887335 0,0.485436 0.53995,1.028488 0.92623,0.93153 0.2419,-0.06071 0.36712,-0.01792 0.43044,0.147109 0.12337,0.321479 -0.0353,0.438813 -0.29834,0.220542 -0.38151,-0.316625 -0.41295,-0.02275 -0.0945,0.88385 0.16999,0.484025 0.30843,1.002947 0.30765,1.15316 -8.5e-4,0.150227 0.12272,0.405285 0.27446,0.566815 0.35395,0.376752 0.99411,1.577918 0.99411,1.865291 0,0.121469 0.1905,0.437811 0.42333,0.703002 0.25767,0.293468 0.42334,0.638866 0.42334,0.882635 0,0.406894 0.36236,1.292 0.84301,2.059136 0.14589,0.232833 0.27093,0.550333 0.27788,0.705556 0.007,0.155222 0.15447,0.518639 0.32782,0.807593 1.22002,2.033636 1.59084,2.552079 2.15748,3.016405 0.3521,0.288516 0.60966,0.604125 0.57235,0.70135 -0.13603,0.3545 0.57988,1.998148 1.43555,3.295822 0.53847,0.81664 0.87702,1.47936 0.87702,1.71684 0,0.25626 0.12678,0.47914 0.37567,0.66044 0.359,0.26151 0.39961,0.73766 0.0629,0.73766 -0.20721,0 -1.00304,-0.7097 -1.00304,-0.89449 0,-0.0901 -0.23243,-0.34929 -0.51651,-0.57596 -0.55256,-0.44088 -0.64678,0.71373 -0.14043,1.72094 0.10631,0.21148 0.23488,0.6026 0.28569,0.86914 0.0508,0.26655 0.19701,0.60025 0.32489,0.74156 0.20546,0.22702 0.34657,2.256446 0.33664,4.841586 -0.008,2.11744 -0.2131,4.48678 -0.44298,5.12057 -0.14885,0.41036 -0.27063,0.85852 -0.27063,0.9959 0,0.232 -0.8437,0.72742 -1.2388,0.72742 -0.23069,0 -1.16009,0.57248 -1.16009,0.71458 0,0.0672 -0.19708,0.34673 -0.43795,0.62106 -0.74052,0.84339 -2.01326,0.54091 -1.52926,-0.36346 0.8647,-1.61571 0.81681,-4.53628 -0.0981,-5.98163 -0.31318,-0.49475 -0.88571,-2.14607 -1.09939,-3.1709 -0.13567,-0.65065 -0.37923,-1.25148 -0.70827,-1.7472 -0.27583,-0.415556 -0.5015,-0.889706 -0.5015,-1.053656 0,-0.40994 -0.39945,-1.24469 -0.95036,-1.98603 -0.25342,-0.34101 -0.46076,-0.77381 -0.46076,-0.96177 0,-0.83143 -0.50981,-1.12075 -1.06154,-0.60242 -0.30265,0.28431 -1.35625,-0.89995 -1.1285,-1.26844 0.0387,-0.0625 -0.0207,-0.18925 -0.13198,-0.28156 -0.17375,-0.14421 -0.16072,-0.24751 0.0926,-0.73346 0.28054,-0.53822 0.28358,-0.58916 0.0627,-1.052362 -0.12766,-0.26773 -0.23212,-0.581222 -0.23212,-0.696679 0,-0.359269 -0.7293,-1.332738 -0.99846,-1.332738 -0.6536,0 -1.54154,-0.794879 -1.54154,-1.379968 0,-0.148294 -0.122493,-0.380478 -0.272203,-0.515959 -0.48659,-0.440365 -1.27174,-2.269518 -1.91186,-4.454073 -0.12191,-0.41601 -0.25186,-0.614596 -0.37684,-0.575832 -0.61136,0.189639 -1.25119,0.170123 -1.33207,-0.04063 -0.047,-0.122386 -0.30658,-0.264033 -0.57692,-0.314749 -0.56513,-0.106016 -0.73318,-0.383935 -0.44268,-0.732098 0.25665,-0.307622 0.22064,-1.654754 -0.0726,-2.714512 -0.11759,-0.424999 -0.25565,-1.090239 -0.30681,-1.478294 -0.0663,-0.503075 -0.20948,-0.827151 -0.49884,-1.12927 -0.2232,-0.233045 -0.40411,-0.550545 -0.40203,-0.705556 0.0229,-1.705892 -0.55425,-3.033507 -1.31873,-3.033507 -1.03291,0 -2.88813,-1.805305 -2.56597,-2.496933 0.0653,-0.140095 0.13605,-0.476984 0.15729,-0.748623 0.11207,-1.433011 0.26734,-2.628872 0.35997,-2.772368 0.11488,-0.177969 -0.10158,-0.750697 -0.51424,-1.360621 -0.22973,-0.339556 -0.25324,-0.549825 -0.17131,-1.532255 0.0551,-0.661035 0.039,-1.20626 -0.0385,-1.299774 -0.24451,-0.295191 -0.43106,-2.231743 -0.28738,-2.983315 0.1681,-0.87932 -0.1309,-1.547255 -0.82307,-1.83865 -0.56194,-0.236558 -0.59653,-0.608541 -0.10583,-1.138018 0.19402,-0.209367 0.35316,-0.482502 0.35364,-0.60699 4.3e-4,-0.124488 0.10463,-0.416842 0.23145,-0.649675 0.21115,-0.387661 0.36182,-0.956861 0.56503,-2.134532 0.0662,-0.383667 0.008,-0.493197 -0.44645,-0.839808 -0.49881,-0.38045 -0.51865,-0.427256 -0.43619,-1.028912 0.0501,-0.365224 0.0149,-0.827969 -0.0835,-1.100271 -0.13497,-0.373253 -0.13067,-0.651482 0.0209,-1.352113 0.10495,-0.485182 0.23336,-1.18436 0.28537,-1.553746 0.061,-0.433 0.22343,-0.809004 0.45729,-1.058333 0.47605,-0.507535 1.09863,-1.764355 1.09863,-2.217858 0,-0.198854 0.13663,-0.468348 0.30644,-0.604421 0.57465,-0.460474 1.24443,-1.232902 1.2451,-1.435904 4.3e-4,-0.111422 0.12483,-0.33473 0.27657,-0.49626 0.3577,-0.380746 0.99411,-1.579132 0.99411,-1.871938 0,-0.125123 0.381,-0.624261 0.84667,-1.109203 0.46566,-0.484943 0.84666,-0.989951 0.84666,-1.122243 0,-0.132292 0.1905,-0.457496 0.42334,-0.722686 0.26138,-0.297702 0.42333,-0.638077 0.42333,-0.889748 0,-0.472821 0.54882,-1.18762 1.15091,-1.498967 0.36317,-0.187805 0.40152,-0.267307 0.3252,-0.674144 -0.0798,-0.42562 -0.0264,-0.512615 0.69205,-1.126406 0.9827,-0.83954 1.04925,-1.052886 0.61499,-1.971675 -0.44778,-0.947377 -0.66648,-1.644635 -0.66648,-2.124808 0,-0.211766 -0.0878,-0.556514 -0.19513,-0.766093 -0.10731,-0.209564 -0.24122,-0.721331 -0.29757,-1.137228 -0.0597,-0.440492 -0.21387,-0.867593 -0.36932,-1.023056 -0.14678,-0.146783 -0.26687,-0.36298 -0.26687,-0.480455 0,-0.117461 -0.0772,-0.337156 -0.17151,-0.488216 -0.13483,-0.215886 -0.1342,-0.377811 0.003,-0.75699 0.1144,-0.316386 0.16524,-1.204497 0.14773,-2.580951 -0.0188,-1.476093 0.0401,-2.41252 0.19862,-3.156923 0.12392,-0.582084 0.33037,-1.661584 0.45877,-2.398889 0.24385,-1.400243 0.4241,-2.135023 0.64039,-2.610556 0.27846,-0.612191 0.46005,-1.153902 0.56764,-1.693333 0.0619,-0.310444 0.17592,-0.818444 0.25331,-1.128889 0.0774,-0.310444 0.24545,-1.0089443 0.37345,-1.5522223 0.12799,-0.543278 0.32005,-1.178278 0.42679,-1.411111 1.014243,-2.212316 1.081603,-3.113601 0.353573,-4.730465 -0.582123,-1.2928019 -0.582123,-1.2928019 -0.2144,-1.9202769 0.36773,-0.627473 0.36773,-0.627473 0.0905,-1.786143 -0.353393,-1.476776 -0.513123,-3.14703 -0.312803,-3.270837 0.390793,-0.2415217 0.0539,-1.0628327 -0.43594,-1.0628327 -0.51616,0 -0.56606,-2.573002 -0.11493,-5.9266671 0.12177,-0.90527 0.12122,-1.360164 -0.002,-1.85475 -0.09,-0.360418 -0.12014,-0.886829 -0.0671,-1.169801 0.0554,-0.295122 0.0212,-0.783383 -0.08,-1.145119 -0.15203,-0.542981 -0.1428,-0.719038 0.0664,-1.266829 0.1726,-0.451952 0.25354,-1.144892 0.27948,-2.392629 0.0201,-0.966031 0.10121,-1.838048 0.18029,-1.937814 0.22204,-0.280141 0.758313,-1.810793 0.679243,-1.93873 -0.14248,-0.230536 0.51875,-1.963651 0.92114,-2.414358 0.22845,-0.255884 0.41536,-0.5815 0.41536,-0.72359 0,-1.383895 2.81582,-3.500824 4.65659,-3.500824 0.16028,0 0.78148,-0.184132 1.38047,-0.40918 0.59898,-0.22505 1.25565,-0.446494 1.45927,-0.492099 0.70399,-0.157678 1.0553,-0.563903 0.85943,-0.993784 -0.0993,-0.217898 -0.17131,-0.993414 -0.17131,-1.844381 0,-1.601898 -0.11816,-2.022309 -0.66096,-2.351659 -0.19651,-0.119236 -0.52522,-0.527728 -0.73047,-0.90776 -0.27737,-0.513557 -0.55178,-0.787425 -1.06878,-1.066647 -0.47734,-0.257805 -0.78136,-0.545709 -0.96893,-0.917584 -0.15033,-0.298049 -0.35611,-0.637156 -0.45728,-0.753572 -0.20885,-0.24032 -0.62398,-1.368382 -0.62708,-1.704014 -0.001,-0.12229 -0.15376,-0.364867 -0.33918,-0.53906 -0.44669,-0.419645 -0.64407,-2.122045 -0.31873,-2.749133 0.1834,-0.353499 0.18371,-0.472814 0.003,-0.985817 -0.11333,-0.321004 -0.17011,-0.727066 -0.12619,-0.902361 0.0439,-0.175295 -0.0188,-0.509465 -0.13933,-0.7426 -0.21193,-0.409839 -0.20781,-0.428211 0.12441,-0.554523 0.56611,-0.215232 0.58252,-0.806341 0.0324,-1.167086 -0.11279,-0.07397 -0.11234,-0.170465 0.002,-0.352778 0.11313,-0.180921 0.11446,-0.344373 0.005,-0.585659 -0.13195,-0.290295 -0.0996,-0.376551 0.24355,-0.650197 0.39568,-0.315502 0.39568,-0.315502 0.1716,-0.975513 -0.26348,-0.776049 -0.28,-1.12867 -0.0712,-1.518894 0.10372,-0.193791 0.10834,-0.406509 0.0144,-0.661002 -0.0762,-0.206389 -0.21764,-0.851502 -0.3143,-1.433585 -0.14972,-0.901627 -0.24587,-1.125175 -0.64937,-1.509751 -0.30176,-0.287606 -0.47363,-0.585411 -0.47363,-0.820665 0,-0.520557 -0.22389,-0.877728 -0.70671,-1.127405 -0.22887,-0.118351 -0.79122,-0.547634 -1.24967,-0.95396 -2.128063,-1.886127 -3.303883,-1.456148 -4.465303,1.63288 -0.15502,0.412332 -0.4714,0.863523 -0.80681,1.150625 -0.65548,0.561062 -0.94293,1.513518 -0.95093,3.150842 -0.005,1.031141 -0.27521,1.844662 -0.81754,2.461711 -0.27461,0.312449 -0.14203,1.506916 0.45509,4.100104 0.12137,0.527048 0.23752,1.352548 0.25812,1.834444 0.0419,0.9799 0.33917,1.695327 1.29948,3.127398 0.33564,0.500526 0.70832,1.246512 0.82818,1.657745 0.16159,0.554386 0.4292,0.972446 1.03507,1.616982 1.50672,1.602894 2.177453,2.447051 2.309143,2.906226 0.50456,1.759318 -0.982293,1.053417 -2.453773,-1.164955 -1.01396,-1.528621 -1.4111,-2.056745 -2.0894,-2.778497 -0.37856,-0.402813 -0.68829,-0.829627 -0.68829,-0.948477 0,-0.118849 -0.16346,-0.583024 -0.36325,-1.031502 -0.19979,-0.448477 -0.50676,-1.259912 -0.68216,-1.80319 -0.1754,-0.543278 -0.48763,-1.233949 -0.69385,-1.534826 -0.37494,-0.547047 -0.37494,-0.547047 -0.30436,-2.860648 0.0647,-2.119701 0.0468,-2.360171 -0.21289,-2.869276 -0.30903,-0.60574 -0.36346,-1.065277 -0.14237,-1.201917 0.0776,-0.04797 0.14111,-0.181532 0.14111,-0.296814 0,-0.115281 0.38187,-1.094997 0.84861,-2.177144 0.71826,-1.665317 0.83526,-2.051037 0.7617,-2.511102 -0.12198,-0.762825 0.32135,-1.581848 1.44571,-2.670873 2.40711,-2.331431 -0.17522,-3.339429 -7.42741,-2.899247 -2.93129,0.17792 -3.19964,0.267151 -4.84301,1.610379 -1.02098,0.834511 -1.54762,1.022041 -1.70662,0.607705 -0.36566,-0.952898 1.23074,-2.829799 3.10524,-3.650852 0.68976,-0.302124 1.35018,-0.629774 1.4676,-0.728111 0.11742,-0.09834 0.53017,-0.256338 0.91722,-0.351116 0.38705,-0.09478 0.96191,-0.289059 1.27745,-0.431739 0.64173,-0.290171 2.38851,-0.350514 3.39822,-0.117394 0.3219,0.07432 1.41245,0.226702 2.42345,0.338629 1.011,0.111927 1.96583,0.271819 2.12185,0.355314 0.15601,0.08349 0.54387,0.15181 0.86191,0.15181 0.31804,0 0.80622,0.09525 1.08484,0.211667 0.93024,0.388679 1.273863,0.289622 3.017643,-0.869912 0.66523,-0.44235 1.07816,-0.851833 1.45415,-1.442016 0.49193,-0.77217 2.10479,-1.991958 2.63386,-1.991958 0.43738,0 1.42523,-0.72105 2.66485,-1.94512 1.32635,-1.30971 1.43813,-1.38632 2.50085,-1.71402 2.36712,-0.72993 3.17066,-1.22042 4.04709,-2.47038 0.13944,-0.19887 0.34064,-0.36159 0.44711,-0.36159 0.10647,0 0.65734,-0.22225 1.22415,-0.49389 0.56682,-0.27164 1.12149,-0.49389 1.23261,-0.49389 0.79716,0 2.54178,-1.19542 3.12286,-2.13979 0.29736,-0.48328 0.59364,-0.76771 0.95589,-0.91769 1.49065,-0.61717 2.03922,-0.94799 2.33198,-1.40635 0.1703,-0.26664 0.63558,-0.67351 1.03394,-0.90416 0.39837,-0.23064 0.79957,-0.51004 0.89156,-0.62089 0.19917,-0.23998 1.21234,-0.78445 1.45974,-0.78445 0.0958,0 0.39545,-0.11726 0.66594,-0.26057 0.27049,-0.14331 0.65197,-0.29964 0.84774,-0.3474 0.23469,-0.0573 0.5231,-0.35908 0.84666,-0.88604 1.07681,-1.75368 2.95829,-3.54193 4.23017,-4.02057 0.984,-0.3703 2.01648,-1.06671 2.7984,-1.88754 0.33615,-0.35287 0.78065,-0.68269 0.98778,-0.73292 0.71845,-0.17424 1.93064,-0.77109 2.2816,-1.1234 2.0175,-2.02525 5.50333,-2.895333 5.50333,-1.37366 0,0.84616 2.32409,1.06553 4.85534,0.45829 0.48594,-0.11657 1.16668,-0.13159 2.25925,-0.0499 0.86006,0.0644 1.913,0.1345 2.33986,0.15589 0.42686,0.0214 1.47461,0.14414 2.32833,0.27278 2.98541,0.44984 3.38255,0.27414 2.57348,-1.13855 -0.29549,-0.51594 -3.16798,-2.626233 -4.1257,-3.030963 -0.95434,-0.40331 -1.49923,-1.65019 -0.88828,-2.03266 1.58276,-0.99084 6.01607,2.45483 7.82628,6.082743 0.79143,1.58614 0.79143,1.58614 2.94697,2.65752 1.82511,0.90713 2.24556,1.17812 2.74273,1.76773 0.32295,0.383 0.85234,0.83564 1.17641,1.00586 0.9117,0.47889 2.39171,1.09649 2.63126,1.09802 0.3048,0.002 1.50477,0.62452 2.301,1.19382 0.43253,0.30925 0.913,0.51445 1.34056,0.57254 0.88442,0.12016 1.425561,0.37682 2.090991,0.99174 0.96732,0.89389 1.82282,1.21928 4.08804,1.55489 1.40698,0.20846 1.61753,0.28054 2.3896,0.81811 0.99523,0.69295 1.79149,1.07712 2.22729,1.0746 0.36708,-0.002 2.08218,0.35314 3.2462295,0.67242 0.58531,0.16054 1.03662,0.41636 1.59215,0.90249 0.63284,0.55379 1.0013,0.7449 2.00537,1.04016 0.67654,0.19895 1.4386,0.45435 1.69347,0.56756 0.25487,0.11322 0.58845,0.20585 0.7413,0.20585 0.25434,0 0.64038,0.34998 2.14844,1.94781 0.29475,0.3123 0.98519004,0.7801 1.55222004,1.05167 1.23815996,0.59303 2.28572996,1.49282 2.50242996,2.14943 0.39469,1.19591 2.3574,2.11076 3.22431,1.5029 0.20601,-0.14445 0.69001,-0.29696 1.07554,-0.33891 0.56317,-0.0613 0.78267,-0.1677 1.11651,-0.54132 0.6385,-0.71461 1.80563,-1.53825 2.1797505,-1.53825 0.52957,0 2.20962,-0.95478 3.13856,-1.78365 0.4662,-0.41599 0.93562,-0.75635 1.04313,-0.75635 0.10752,0 0.37499,-0.1769 0.59439,-0.39311 0.75468,-0.74371 1.88625,-1.17702 2.96661,-1.13601 0.62545,0.0237 1.18141,-0.0449 1.59508,-0.19697 2.04384,-0.75127 5.12891,-1.0547 5.73264,-0.56383 1.0573,0.85967 0.85617,1.28279 -0.68992,1.45132 -2.98339,0.32521 -3.53786,0.45032 -4.83106,1.09006 -1.96781,0.97348 -2.04089,1.01887 -3.7115,2.30504 -0.36462,0.28071 -0.94042,0.651 -1.27957,0.82288 -0.33915,0.17187 -1.0929,0.67244 -1.67502,1.11239 -1.76981,1.33756 -1.92173,1.44338 -2.50613,1.74574 -2.6705805,1.381728 -2.9557705,2.25431 -1.2559405,3.842682 1.1195305,1.046124 1.7498305,1.902378 1.7498305,2.377116 0,0.10554 0.20915,0.441444 0.46478,0.746456 0.25562,0.305011 0.69552,0.872066 0.97756,1.260122 0.28202,0.388055 0.83488,1.020668 1.22855,1.405806 0.74503,0.72887 1.01392,1.837937 0.5565,2.295352 -0.11828,0.118285 -0.082,0.257535 0.14112,0.541141 0.16521,0.21003 0.30038,0.459994 0.30038,0.555478 0,0.09548 0.12483,0.332297 0.27739,0.526252 1.081,1.374275 0.66132,8.434304 -0.50138,8.434304 -0.49209,0 -0.55274,-0.628622 -0.21676,-2.247039 0.10234,-0.492924 0.0855,-0.668415 -0.0803,-0.834122 -0.21713,-0.217122 -0.21357,-0.301055 0.0901,-2.124582 0.0899,-0.539651 0.099,-0.964697 0.0228,-1.058333 -0.0701,-0.08606 -0.23673,-0.870855 -0.37035,-1.74398 -0.20011,-1.307511 -0.28544,-1.5875 -0.48377,-1.5875 -0.38272,0 -0.85446,-0.604188 -0.85446,-1.094377 0,-0.242655 -0.061,-0.478865 -0.13546,-0.524913 -0.0745,-0.04605 -0.55484,-0.898507 -1.0674,-1.894351 -0.81858,-1.590443 -1.03442,-1.894443 -1.7748705,-2.499882 -0.46362,-0.379089 -1.12327,-1.102004 -1.46588,-1.606476 -1.11736,-1.645233 -1.54082,-1.966449 -2.24129,-1.700131 -0.40836,0.155259 -1.35843,1.285168 -1.35843,1.615568 0,0.131533 -0.14964,0.378992 -0.33254,0.549912 -0.38091,0.355962 -0.79635,1.107221 -0.79635,1.440064 0,0.828383 -0.48843,2.258046 -0.94353,2.761791 -0.49021,0.542606 -0.49021,0.542606 -0.23195,0.983432 0.25826,0.440825 0.25826,0.440825 -0.1298,0.751783 -0.21343,0.171028 -0.38805,0.379386 -0.38805,0.463018 0,0.08363 -0.13398,0.322381 -0.29773,0.530556 -0.29152,0.370608 -0.34273,1.07218 -0.25323,3.469562 0.007,0.194028 -0.0529,0.606778 -0.13356,0.917222 -0.0807,0.310445 -0.31620996,1.326445 -0.52336996,2.257778 -0.20716,0.931333 -0.52683,2.042583 -0.71037,2.469444 -0.48804,1.135043 -0.52238,1.626064 -0.19734,2.822222 0.15818,0.582084 0.38472,1.502834 0.50343,2.046111 0.32582,1.491124 0.53297,1.716499 1.96493996,2.137796 1.03852,0.305538 2.06848,1.207003 2.55547,2.236649 0.18354,0.388055 0.52475,1.023055 0.75825,1.411111 0.23349,0.388055 0.46028,0.800805 0.50398,0.917222 0.0437,0.116417 0.26621,0.599099 0.49448,1.072628 0.22828,0.473528 0.41505,0.966344 0.41505,1.095149 0,0.128804 0.12106,0.50337 0.26903,0.832372 0.27016,0.600683 0.38212,1.145461 0.55795,2.714851 0.0522,0.465667 0.15542,0.941917 0.22943,1.058333 0.074,0.116417 0.174,0.529167 0.22219,0.917223 0.0482,0.388055 0.18838,1.118305 0.31154,1.622777 0.6838,2.800805 0.70905,2.974713 0.51665,3.557702 -0.16818,0.509573 -0.15599,0.607585 0.14384,1.156439 0.31531,0.577207 0.31846,0.613605 0.0841,0.971294 -0.1979,0.302024 -0.21569,0.458499 -0.095,0.835589 0.13788,0.430788 0.18772,1.082923 0.36958,4.835358 0.0392,0.807993 0.18759,1.800241 0.3483,2.328334 0.1540305,0.506157 0.3465005,1.225928 0.4277105,1.599494 0.0812,0.373565 0.23482,0.818065 0.34136,0.987778 0.10655,0.169711 0.26847,0.8483171 0.35983,1.5080121 0.20613,1.488618 1.05247,3.263664 2.37223,4.9753067 0.6641,0.861305 1.31434,1.888803 1.7853,2.821082 0.22542,0.446263 0.4513,0.811388 0.50194,0.811388 0.0506,0 0.23864,0.353604 0.41776,0.785785 0.17913,0.432181 0.67369,1.210056 1.09903,1.7286109 0.42535,0.518555 0.90131,1.193289 1.0577,1.499408 0.15638,0.306121 0.64187,1.093269 1.07887,1.749216 1.19299,1.790734 1.42467,2.187344 1.42721,2.443233 0.001,0.128413 0.24872,0.826913 0.54988,1.552223 0.30114,0.7253113 0.77075,1.8584963 1.04356,2.5181913 0.27281,0.659694 0.60699,1.580444 0.74262,2.046111 0.13563,0.465667 0.35783,1.132417 0.49379,1.481667 0.13595,0.34925 0.2923,1.0356 0.34743,1.525227 0.11179,0.992858 0.15963,1.060126 1.05838,1.488341 0.45397,0.216281 0.64872,0.399669 0.68313,0.643199 0.0799,0.565616 0.64154,1.317371 1.66366,2.226818 0.53313,0.474359 1.09372,1.10672 1.24577,1.405269 0.15205,0.298549 0.60918,0.899823 1.01585,1.336153 1.52606,1.637439 1.1691,2.251823 -0.72786,1.25277 -1.38535,-0.729615 -1.49145,-0.684911 -0.91722,0.386475 0.15522,0.289617 0.28222,0.610193 0.28222,0.712386 0,0.102206 0.24928,0.685362 0.55394,1.295907 0.54642,1.095065 0.74931,1.735131 1.20898,3.814121 0.12869,0.582083 0.35272,1.328448 0.49784,1.658606 0.41639,0.947264 0.81571,2.787339 0.9841,4.534633 0.0852,0.88392 0.24718,1.785649 0.36001,2.003835 0.60136,1.16291 0.1389,2.799164 -0.6581,2.328361 -1.27604,-0.753773 -1.12108,0.411367 0.2334,1.754759 1.29606,1.285466 1.38882,1.731081 0.37551,1.80412 -0.60706,0.04374 -0.77347,0.916135 -0.29084,1.524705 0.0686,0.08654 0.18231,0.615414 0.2526,1.175272 0.0712,0.567323 0.22675,1.127238 0.35131,1.264878 0.30253,0.334292 0.28143,0.504105 -0.094,0.756581 -0.3175,0.213515 -0.3175,0.213515 0,0.555484 0.34373,0.370219 0.39606,0.689427 0.17935,1.094331 -0.10036,0.187522 -0.0811,0.30552 0.0706,0.431334 0.27314,0.226681 0.27109,0.970238 -0.003,1.075408 -0.3244,0.124488 -0.25695,0.37767 0.28086,1.054227 0.75758,0.953022 0.68711,1.220625 -0.31614,1.20039 -0.81138,-0.01637 -0.81138,-0.01637 -0.77525,0.406964 0.0199,0.232834 0.0384,0.677334 0.041,0.987778 0.003,0.310444 0.10328,1.199444 0.22351,1.975556 0.12023,0.776111 0.23762,2.363611 0.26086,3.527777 0.0232,1.164167 0.0847,2.275417 0.13666,2.469445 0.19541,0.730306 -0.20146,0.942932 -0.94581,0.506715 -1.00237,-0.587431 -1.3715,-0.141111 -1.09391,1.322663 0.0942,0.49657 0.0918,1.172535 -0.007,2.060589 -0.12386,1.110855 -0.1117,1.426619 0.0762,1.980212 0.49722,1.464522 0.0154,2.949265 -0.9571,2.949265 -0.59262,0 -0.59262,0 -0.75511,1.128889 -0.0894,0.620889 -0.27021,1.414639 -0.40188,1.763889 -0.38855,1.030548 -0.66632,2.653467 -0.71246,4.162777 -0.0237,0.776111 -0.1243,1.823861 -0.22349,2.328334 -0.4674,2.377171 -0.15395,4.683802 0.78872,5.804111 0.37005,0.439787 0.40748,0.694295 0.11632,0.791351 -0.24615,0.08206 -1.13429,-0.77851 -1.97076,-1.909586 -0.6616,-0.892826 -0.81784,-1.029478 -1.07991,-0.943302 -1.15329,0.379222 -1.67706,-0.09673 -1.75209,-1.5921 -0.0262,-0.523028 -0.14797,-1.28984 -0.27051,-1.70403 -0.13551,-0.458018 -0.19378,-1.010609 -0.14869,-1.410504 0.0408,-0.361597 0.0112,-1.038733 -0.0657,-1.504724 -0.0769,-0.466005 -0.15576,-2.085523 -0.17528,-3.59894 -0.0195,-1.513417 -0.1208,-3.374644 -0.22507,-4.136051 -0.19293,-1.408882 0.0576,-4.4866 0.44312,-5.443954 0.19096,-0.474204 0.40468,-2.170007 0.54435,-4.319439 0.0686,-1.056175 0.21771,-2.10384 0.35141,-2.469445 0.1277,-0.34925 0.25929,-1.04775 0.29239,-1.552222 0.0331,-0.504472 0.10065,-1.383129 0.15009,-1.952554 0.0986,-1.135832 -0.10655,-3.33241 -0.53594,-5.738001 -0.15239,-0.853722 -0.33072,-2.060222 -0.3963,-2.681111 -0.30474,-2.885553 -1.31177,-6.385094 -1.90261,-6.611818 -0.32852,-0.126068 -0.49033,-1.034768 -0.64436,-3.618738 -0.081,-1.358194 -0.1822,-2.564694 -0.22496,-2.681111 -0.0428,-0.116417 -0.14049,-0.846667 -0.21717,-1.622778 -0.0767,-0.776111 -0.19424,-1.823861 -0.26126,-2.328333 -0.067,-0.504472 -0.2148,-1.647472 -0.32838,-2.54 -0.48589,-3.818212 -0.78206,-4.965093 -1.41862,-5.493385 -0.46733,-0.387858 -0.3443,2.17321 0.33162,6.903029 0.0831,0.581265 0.11284,1.344887 0.0661,1.696903 -0.0467,0.35203 -0.017,0.892443 0.0659,1.200926 0.15023,0.558588 0.21136,1.686885 0.38206,7.051971 0.1442,4.531995 0.1544,5.622742 0.0561,5.997223 -0.0509,0.194027 -0.0391,0.543277 0.0263,0.776111 0.0677,0.241201 0.059,0.848317 -0.0204,1.411111 -0.0766,0.543278 -0.23743,2.226028 -0.35746,3.739444 -0.57215,7.214644 -0.7654,9.273215 -0.90499,9.64002 -0.0831,0.218482 -0.15116,0.682018 -0.15116,1.030068 0,0.348051 -0.0864,0.804291 -0.19208,1.01387 -0.10564,0.209564 -0.2332,0.825542 -0.28346,1.36882 -0.0503,0.543277 -0.22221,1.464027 -0.38211,2.046111 -0.15987,0.582083 -0.35431,1.625515 -0.43206,2.318752 -0.0778,0.693222 -0.23215,1.389972 -0.34306,1.548341 -0.11093,0.158355 -0.20167,0.608104 -0.20167,0.999448 0,0.441932 -0.10694,0.911041 -0.28223,1.238095 -0.15522,0.289602 -0.28222,0.718467 -0.28222,0.953008 0,0.515535 -0.45263,2.247448 -0.81298,3.110752 -0.14385,0.344635 -0.23761,0.736543 -0.20834,0.870923 0.0293,0.13438 -0.0464,0.386631 -0.16829,0.560564 -0.12182,0.173934 -0.2215,0.577102 -0.2215,0.895929 0,0.350153 -0.14437,0.854569 -0.36459,1.27388 -0.20053,0.381805 -0.41797,0.884696 -0.48319,1.11753 -0.0652,0.232833 -0.30427,0.963083 -0.5312,1.622777 -0.22694,0.659695 -0.59229,1.770945 -0.81188,2.469445 -0.2196,0.6985 -0.56841,1.651 -0.77513,2.116666 -0.20671,0.465667 -0.48866,1.187211 -0.62655,1.603418 -0.1379,0.416221 -0.3380905,0.924221 -0.4448905,1.128889 -0.10679,0.204681 -0.19456,0.454165 -0.19503,0.554415 -10e-4,0.24042 -0.82707,2.01647 -1.06362,2.28717 -0.10172,0.11641 -0.32187,0.56091 -0.48921,0.98778 -0.16735,0.42686 -0.51045,1.09361 -0.76245,1.48166 -0.252,0.38806 -0.68176,1.18181 -0.95502,1.76389 -0.27325,0.58208 -0.66542,1.305316 -0.87148,1.607186 -0.20606,0.30187 -0.37504,0.68287 -0.37552,0.84666 -0.002,0.66514 -0.98599,2.17087 -2.278,3.48566 -1.18365,1.20451 -2.23667996,2.56763 -2.23667996,2.89533 0,0.0991 -0.11787,0.26324 -0.26192,0.36466 -0.14405,0.10142 -0.39341,0.44264 -0.55413,0.75827 -0.16072,0.31564 -0.39211,0.65679 -0.5142,0.75811 -0.12209,0.10133 -0.22198,0.26002 -0.22198,0.35265 0,0.0926 -0.22225004,0.3652 -0.49389004,0.60569 -0.27163,0.24048 -0.49388,0.53773 -0.49388,0.66056 0,0.1228 -0.21357,0.4616 -0.47458,0.75287 -0.57305,0.63946 -1.92431,2.58383 -1.92431,2.76895 0,0.0728 -0.24731,0.34413 -0.54958,0.60285 -0.30226,0.25873 -0.77155,0.80456 -1.04287,1.21298 -0.27132,0.40842 -0.62726,0.86353 -0.79099,1.01139 -0.16372,0.14784 -0.29768,0.34171 -0.29768,0.43081 0,0.23093 -0.68748,1.12769 -1.68135,2.19315 -0.47057,0.50447 -0.85627,0.95961 -0.85711,1.01143 -0.0103,0.6347 -6.0865295,5.08146 -8.3270895,6.09403 -0.50447,0.228 -1.10772,0.55653 -1.34056,0.7301 -0.23283,0.17355 -0.64558,0.42757 -0.91722,0.56444 -0.27164,0.13688 -0.84314,0.51623 -1.27,0.84299 -0.42686,0.32677 -1.315861,0.88296 -1.975551,1.23597 -1.2323,0.65943 -2.09357,1.65123 -2.11253,2.4327 -0.0351,1.44818 -2.78595,3.26717 -3.95525,2.61544 z M -97.524747,25.657555 c 0.26375,-0.221926 0.43416,-0.49887 0.43416,-0.705556 0,-0.343224 0.36502,-0.814677 0.7232,-0.934071 0.10671,-0.03557 0.20196,-0.265768 0.21166,-0.511527 0.01,-0.245774 0.0256,-0.599652 0.0353,-0.786399 0.0122,-0.233806 0.23081,-0.492689 0.70219,-0.831341 1.04476,-0.750584 1.14555,-1.309892 1.22204,-6.781656 0.0739,-5.2824903 0.0552,-5.4811613 -0.54456,-5.8039233 -1.3523,-0.727728 -1.66747,0.207153 -0.91436,2.7123033 0.20136,0.669808 0.0344,0.990762 -0.71228,1.369125 -0.9531,0.482973 -1.3585,1.78798 -0.78923,2.540616 0.39868,0.527102 0.26104,1.067318 -0.43776,1.718066 -0.93036,0.866394 -0.99718,2.25837 -0.16645,3.46741 0.63505,0.924264 0.62767,0.816229 0.0939,1.374733 -0.72761,0.761379 -0.94856,1.420227 -0.81175,2.420606 0.17439,1.275122 0.25567,1.339158 0.95393,0.751614 z M 18.900034,12.6526 c -0.009,-0.779197 -0.38707,-1.670887 -0.83854,-1.975555 -1.13429,-0.7654723 -2.08819,0.261639 -1.09902,1.18337 1.10345,1.028213 1.94395,1.37186 1.93756,0.792185 z m -2.30714,-2.9056203 c -0.10835,-0.259299 -0.24359,-0.941924 -0.30054,-1.516945 -0.16377,-1.653403 -0.66003,-2.351095 -1.55311,-2.183551 -0.67244,0.12615 -0.79908,0.484215 -0.55378,1.565705 0.10509,0.463296 0.24109,1.096356 0.30223,1.4068 0.12729,0.646245 0.97421,1.1994443 1.8363,1.1994443 0.46588,0 0.46588,0 0.2689,-0.4714533 z M -92.117817,-14.633647 c 0.21722,-0.291238 0.28225,-0.634276 0.30764,-1.622778 0.0179,-0.696886 0.11674,-1.427596 0.22262,-1.645607 0.42414,-0.873359 -0.68962,-1.450294 -2.23873,-1.15968 -0.53596,0.100547 -0.56476,1.122038 -0.0537,1.90459 0.12671,0.194028 0.27825,0.606778 0.33676,0.917223 0.37962,2.014451 0.78241,2.468339 1.42541,1.606252 z m 7.88526,-44.750974 c 0.11658,-0.09701 0.55156,-0.747888 0.96662,-1.446388 0.41505,-0.6985 0.86685,-1.397 1.00398,-1.552223 0.13714,-0.155222 0.29506,-0.472722 0.35094,-0.705555 0.0559,-0.232834 0.21933,-0.591887 0.36324,-0.797895 0.1439,-0.206008 0.26164,-0.416088 0.26164,-0.466843 0,-0.83557 3.92294,-4.450262 4.82976,-4.450262 0.99054,0 1.25011,-0.89977 0.7559,-2.62022 -0.2274,-0.79161 -0.33863,-1.61744 -0.43489,-3.22898 -0.1126,-1.88507 -1.8758,-1.98297 -4.02188,-0.2233 -0.34925,0.28637 -0.92075,0.72295 -1.27,0.97017 -0.34925,0.24723 -0.94356,0.6709 -1.32069,0.94148 -0.6344,0.45517 -0.76333,0.49196 -1.7239,0.49196 -1.13865,0 -1.25488,0.0696 -3.1643,1.89501 -0.85033,0.81292 -1.94002,1.35055 -2.73734,1.35055 -0.69272,0 -1.39296,0.46184 -2.53757,1.673649 -1.56525,1.657134 -1.94635,1.964339 -2.74535,2.212986 -2.68098,0.83433 -2.39211,2.86813 0.53244,3.748561 0.34434,0.103661 0.81224,0.345121 1.03977,0.536574 0.30953,0.260458 0.55309,0.339872 0.96737,0.315428 0.37819,-0.02231 0.92879,0.128437 1.73703,0.475585 1.27767,0.548766 1.62033,0.562177 2.87639,0.112577 1.15977,-0.415132 2.79695,-0.203166 3.303,0.427641 0.44288,0.552068 0.63247,0.618572 0.96784,0.339495 z m 76.3146105,-3.483586 c 0.14338,-0.09074 0.22964,-0.559673 0.29698,-1.614604 0.17715,-2.775253 1.01461,-3.784246 2.81705,-3.394046 2.04231,0.44214 3.89738004,0.507947 4.55618004,0.16163 0.44956,-0.23632 0.79574,-0.30461 1.42081996,-0.28026 1.15451,0.045 1.78411,-0.33901 1.78411,-1.08806 0,-0.46695 -0.5198,-0.96096 -1.57234,-1.49433 -0.70199996,-0.35573 -1.35962996,-0.9627 -2.57479,-2.37644 -0.69354,-0.80687 -1.52268,-1.3528 -2.05462,-1.3528 -0.49768,0 -1.66984,-0.5164 -2.28788,-1.00793 -1.74663,-1.38911 -2.3761,-1.68977 -3.3637,-1.60661 -0.81371,0.0685 -0.99997,0.0333 -1.6504495,-0.31217 -3.29419,-1.74948 -3.69936,-1.9022 -4.62074,-1.74175 -1.05908,0.18443 -1.37161,0.10326 -3.09443,-0.80372 -4.045791,-2.1299 -4.564641,-1.91234 -3.79574,1.59162 0.11921,0.54328 0.26132,1.30528 0.31579,1.69333 0.28748,2.04795 0.74599,2.82712 1.58474,2.693 1.47079,-0.23519 5.84263,3.10116 8.0353,6.13211 1.96997,2.723106 3.7302495,4.930369 3.9310895,4.929286 0.0388,-1.41e-4 0.16149,-0.05792 0.27263,-0.128256 z"
       id="path908"
       style="fill:#000000;stroke-width:0.14111111" />
  </g>
</svg>
