<?xml version="1.0" standalone="no"?>
<!DOCTYPE svg PUBLIC "-//W3C//DTD SVG 20010904//EN"
 "http://www.w3.org/TR/2001/REC-SVG-20010904/DTD/svg10.dtd">
<svg version="1.0" xmlns="http://www.w3.org/2000/svg"
 width="653.000000pt" height="1536.000000pt" viewBox="0 0 653.000000 1536.000000"
 preserveAspectRatio="xMidYMid meet">
<metadata>
Created by potrace 1.16, written by Peter Selinger 2001-2019
</metadata>
<g transform="translate(0.000000,1536.000000) scale(0.100000,-0.100000)"
fill="#000000" stroke="none">
<path d="M3485 15347 c-17 -8 -55 -17 -86 -21 -42 -5 -72 -18 -129 -56 -147
-97 -171 -128 -185 -243 -5 -44 -14 -66 -34 -90 l-28 -31 -56 13 c-67 17 -86
11 -202 -59 -106 -64 -149 -113 -218 -249 -54 -106 -75 -166 -95 -266 -6 -27
-16 -69 -23 -92 -11 -35 -10 -49 5 -95 22 -69 46 -225 46 -308 1 -111 11 -135
88 -209 39 -36 85 -90 102 -119 18 -30 41 -54 53 -57 12 -3 91 -19 175 -35
128 -26 156 -29 170 -18 24 21 54 97 48 123 -3 13 -33 45 -66 70 -67 51 -120
121 -120 158 0 18 11 30 49 50 27 15 54 27 60 27 6 0 38 -25 71 -55 33 -30 64
-55 69 -55 5 0 26 -23 46 -50 l37 -51 -27 -39 c-20 -29 -30 -62 -41 -136 -8
-53 -19 -105 -25 -116 -11 -20 -10 -22 57 -148 39 -72 39 -151 0 -270 -22 -68
-29 -115 -36 -235 -11 -184 -28 -274 -89 -474 -27 -86 -61 -210 -76 -276 -51
-227 -66 -270 -145 -435 -131 -274 -148 -349 -134 -580 17 -275 13 -322 -45
-530 -73 -262 -80 -316 -90 -711 l-9 -344 -40 -115 c-69 -198 -82 -248 -107
-429 -14 -97 -41 -243 -60 -326 -19 -82 -37 -168 -40 -190 -4 -22 -20 -85 -37
-140 -34 -111 -34 -134 -7 -495 6 -85 9 -243 6 -350 -4 -185 -6 -200 -35 -287
-17 -50 -47 -175 -66 -277 -23 -125 -41 -197 -55 -219 -79 -122 -106 -266
-131 -682 -6 -99 -16 -227 -23 -285 -15 -128 -14 -339 2 -439 7 -41 22 -100
35 -130 101 -239 99 -234 99 -306 0 -59 -7 -86 -43 -175 -30 -74 -44 -124 -48
-170 -4 -61 -2 -67 27 -104 47 -59 62 -122 71 -302 l7 -160 46 -106 c70 -160
96 -270 113 -485 7 -98 3 -108 -36 -88 -40 21 -57 57 -79 170 -21 103 -38 134
-104 190 -56 48 -76 52 -122 21 -21 -14 -51 -26 -68 -26 -33 0 -179 -78 -267
-144 -30 -22 -88 -71 -128 -109 l-74 -70 -60 7 c-73 7 -108 0 -108 -24 0 -20
47 -35 141 -46 49 -6 58 -4 86 20 17 14 34 26 38 26 4 0 42 32 84 72 94 88
126 108 173 108 27 0 47 8 73 31 58 52 153 60 191 18 9 -10 23 -51 31 -91 7
-40 24 -90 38 -112 l24 -41 -76 -71 -76 -72 7 -81 7 -82 -31 -29 c-18 -17 -44
-33 -59 -36 -14 -3 -55 -14 -91 -25 -63 -18 -76 -26 -217 -141 -60 -50 -83
-59 -83 -33 0 36 -65 180 -97 215 -44 49 -178 119 -243 127 -59 7 -141 -8
-270 -49 -145 -46 -199 -78 -306 -180 -105 -101 -154 -161 -154 -190 0 -33 24
-19 125 73 136 124 146 131 259 179 133 56 223 74 300 61 103 -18 171 -72 232
-185 15 -28 40 -67 56 -87 15 -20 28 -45 28 -56 0 -30 -125 -275 -154 -302
-34 -32 -108 -39 -156 -14 -19 10 -49 38 -67 63 -18 25 -44 59 -58 76 -14 18
-25 39 -25 47 0 49 -73 78 -149 57 -75 -20 -171 -128 -206 -232 -14 -40 -14
-47 0 -74 8 -16 15 -40 15 -54 0 -37 54 -125 100 -161 46 -37 50 -66 12 -85
-13 -6 -30 -21 -38 -33 -14 -19 -21 -21 -79 -15 -55 6 -69 4 -102 -16 -35 -21
-51 -22 -218 -24 -165 -1 -184 -3 -230 -24 -49 -22 -105 -67 -105 -84 0 -14
43 -8 122 17 113 36 192 42 277 20 57 -15 73 -16 85 -6 9 8 57 15 118 18 134
6 159 15 209 71 l41 47 -5 85 c-6 99 -31 172 -78 231 -31 40 -32 43 -21 85 7
24 12 55 12 69 0 15 6 25 14 25 8 0 36 18 61 40 51 44 75 51 75 20 0 -12 10
-24 24 -30 18 -6 29 -25 46 -75 24 -72 72 -142 110 -163 17 -9 53 -12 110 -9
67 3 96 9 136 30 64 32 130 107 145 161 40 144 38 144 210 86 154 -51 161 -51
319 28 108 53 109 55 146 194 35 131 71 171 139 154 32 -8 92 -61 111 -97 23
-45 17 -74 -32 -146 -59 -85 -69 -110 -83 -203 -14 -90 -25 -109 -84 -140 -44
-23 -49 -24 -117 -12 -39 7 -108 12 -155 12 l-84 0 -57 -50 c-45 -39 -74 -55
-128 -71 -111 -33 -329 -109 -341 -119 -7 -6 -17 -28 -24 -50 -6 -22 -34 -88
-60 -147 -27 -60 -56 -134 -65 -166 -11 -39 -29 -70 -51 -93 -25 -25 -35 -45
-40 -81 -21 -153 -82 -238 -224 -312 -44 -23 -81 -45 -83 -50 -2 -5 -43 -29
-93 -53 -75 -37 -91 -49 -93 -69 -6 -49 17 -53 124 -19 55 18 142 47 194 66
l96 35 72 97 c88 119 114 181 120 287 3 52 9 83 17 88 8 4 23 33 35 64 23 61
35 81 123 193 73 93 81 99 190 144 49 20 119 52 155 70 89 45 156 64 282 81
175 24 181 22 132 -45 -33 -48 -49 -55 -169 -81 -138 -30 -209 -70 -400 -228
l-103 -84 0 -82 c0 -76 -2 -85 -30 -120 -17 -21 -30 -44 -30 -52 0 -24 -30
-74 -97 -161 -34 -46 -66 -95 -69 -108 -10 -40 9 -49 43 -20 16 13 41 28 56
31 52 13 105 93 146 217 19 56 31 74 72 109 47 39 49 43 49 92 0 82 22 114
114 162 23 12 51 37 64 56 28 41 57 58 98 59 17 0 86 18 154 40 151 48 212 87
260 166 48 78 93 124 121 124 33 0 73 27 150 101 36 35 84 74 107 87 l42 23 0
-53 c0 -61 -14 -88 -95 -183 -30 -36 -56 -75 -59 -87 -2 -13 -8 -52 -14 -88
-12 -84 -64 -213 -116 -292 -31 -47 -53 -69 -91 -89 -27 -14 -63 -33 -80 -42
-16 -9 -42 -17 -57 -17 -15 0 -47 -9 -70 -19 -24 -10 -55 -24 -70 -30 -34 -13
-101 -102 -164 -218 -84 -154 -149 -207 -275 -222 -38 -5 -75 -14 -82 -19 -7
-6 -43 -18 -80 -28 -75 -18 -117 -45 -117 -75 0 -23 14 -24 89 -4 32 8 111 19
176 25 131 11 189 31 244 83 50 48 109 139 176 272 l60 120 88 3 c48 1 87 -1
87 -6 0 -5 -9 -17 -21 -28 -12 -10 -27 -31 -35 -46 -43 -83 25 -179 117 -164
51 8 57 -7 22 -56 -38 -56 -114 -115 -193 -150 -141 -63 -171 -82 -229 -143
-92 -99 -241 -338 -241 -386 0 -16 6 -20 28 -17 22 2 40 23 106 123 104 158
184 237 307 303 101 54 236 149 280 198 52 57 66 169 28 218 -26 32 -39 33
-69 1 -30 -32 -40 -32 -40 3 0 17 13 47 32 72 70 92 80 106 93 138 12 28 19
32 50 32 87 0 219 117 326 289 35 57 68 105 73 105 5 1 37 -34 70 -77 53 -68
84 -95 190 -170 19 -13 19 -15 -9 -83 -22 -54 -29 -93 -35 -179 -10 -166 -28
-192 -190 -285 -41 -24 -90 -59 -107 -77 -43 -45 -76 -153 -77 -249 0 -66 3
-80 40 -151 23 -43 44 -90 48 -105 5 -24 12 -28 39 -28 61 0 73 37 32 98 -31
46 -65 151 -65 203 0 51 34 89 175 194 60 46 132 106 160 134 l50 52 11 148
c13 170 38 262 83 305 l29 28 35 -36 c19 -19 58 -46 87 -61 l51 -26 -30 -35
c-27 -30 -31 -42 -31 -92 0 -39 -10 -86 -30 -142 -36 -105 -38 -158 -5 -265
36 -117 114 -225 163 -225 20 0 66 30 178 116 98 76 133 94 179 94 90 0 145
-52 145 -137 l0 -54 -133 -132 c-133 -131 -257 -277 -257 -301 0 -36 110 -151
155 -162 70 -17 218 30 287 92 77 69 121 76 260 43 67 -15 84 -7 65 30 -30 59
-103 84 -208 69 -75 -10 -242 -88 -261 -122 -11 -19 -100 -39 -138 -31 -16 4
-35 16 -41 27 -23 42 20 138 61 138 52 0 110 67 110 128 0 13 10 27 28 36 39
20 116 105 142 156 29 57 24 116 -19 200 -60 119 -129 169 -217 156 -67 -9
-115 -38 -209 -126 -46 -44 -92 -80 -101 -80 -26 0 -81 62 -93 105 -17 63 -14
185 8 247 33 96 115 205 169 226 48 19 188 43 208 36 10 -4 37 -21 59 -39 53
-42 78 -55 109 -55 15 0 30 -8 36 -20 18 -34 76 -27 114 15 l32 35 49 -34 c31
-21 62 -54 82 -87 30 -51 90 -218 147 -409 40 -135 80 -181 140 -166 32 8 35
40 5 58 -35 22 -55 68 -113 263 -72 239 -124 352 -200 423 -32 30 -64 52 -77
52 -12 0 -46 -12 -75 -26 -48 -23 -57 -25 -91 -14 -108 35 -119 79 -40 151 28
27 54 49 57 49 4 0 31 31 60 70 l55 70 59 0 c47 0 70 6 113 30 59 34 68 32
117 -19 l29 -31 -16 -67 c-23 -99 -12 -142 78 -296 l28 -49 -13 -171 c-13
-183 -5 -291 26 -345 61 -109 69 -117 115 -124 24 -3 66 -7 93 -7 l50 -1 152
150 c156 155 206 189 274 190 33 1 34 1 16 15 -41 31 -139 10 -266 -56 -85
-44 -146 -98 -167 -147 -16 -39 -31 -46 -78 -38 -53 10 -102 59 -120 119 -20
69 -19 135 6 263 29 150 24 214 -24 292 l-37 60 0 124 c0 132 -3 141 -52 171
-39 25 -38 62 2 70 16 4 48 19 71 34 45 30 69 25 79 -17 3 -15 16 -26 32 -31
15 -4 50 -27 77 -50 40 -34 54 -55 66 -94 19 -67 71 -144 109 -162 17 -7 45
-23 62 -33 28 -18 37 -19 112 -8 50 7 94 19 114 32 76 50 70 50 108 8 19 -21
45 -44 58 -51 12 -6 28 -27 36 -46 12 -27 23 -36 56 -45 43 -12 48 -19 69 -98
11 -40 31 -58 31 -27 0 25 14 18 98 -46 119 -89 239 -130 276 -94 29 29 16 41
-64 59 -14 3 -32 18 -41 33 -10 18 -47 45 -105 76 -72 39 -96 58 -126 100 -20
29 -75 96 -122 149 -102 115 -127 127 -227 109 -35 -6 -91 -24 -123 -41 -32
-16 -64 -30 -71 -30 -6 0 -22 12 -36 26 -13 14 -33 30 -45 34 -26 10 -54 67
-54 110 0 41 -14 66 -42 74 -14 3 -34 25 -50 55 -49 90 -154 117 -338 87 -56
-10 -108 -15 -116 -12 -8 3 -14 18 -14 33 0 15 -12 48 -25 72 -14 24 -22 48
-18 52 9 9 200 49 235 49 50 0 145 -58 236 -143 59 -56 113 -97 158 -120 116
-59 134 -61 298 -47 81 7 148 16 151 20 2 4 -7 17 -20 30 -21 20 -41 25 -122
31 -54 4 -110 8 -124 9 -14 0 -38 11 -52 24 -14 13 -49 32 -78 41 -36 12 -72
36 -115 76 -39 36 -72 59 -86 59 -13 0 -48 20 -78 45 -30 24 -69 56 -87 71
-45 36 -101 42 -162 15 -32 -13 -70 -21 -108 -21 l-58 0 68 38 c37 20 89 55
115 78 77 67 100 75 237 81 l124 6 29 -29 c20 -21 38 -59 60 -129 36 -114 75
-170 145 -204 55 -27 74 -26 188 3 164 42 239 45 239 10 0 -9 17 -35 38 -59
20 -23 55 -73 77 -110 62 -107 160 -205 205 -205 6 0 30 18 54 40 48 45 121
81 145 72 9 -3 36 -23 60 -44 54 -47 236 -140 265 -136 35 5 27 48 -13 70 -19
11 -72 54 -117 96 -46 43 -108 93 -139 111 -53 32 -57 33 -100 21 -28 -8 -65
-10 -99 -6 l-55 7 -24 -48 -25 -47 -42 64 c-23 36 -57 99 -76 140 -69 148 -82
158 -198 167 -73 6 -75 5 -152 -37 l-78 -43 -43 23 c-74 39 -122 87 -128 128
-17 103 -70 181 -164 241 -59 38 -96 39 -163 5 -49 -25 -54 -26 -106 -13 -44
10 -60 10 -90 -1 -61 -21 -142 -81 -180 -132 -20 -26 -42 -48 -49 -48 -20 0
-25 60 -21 222 5 165 17 216 66 291 36 54 126 110 229 144 95 31 104 38 142
108 23 44 35 55 109 92 91 47 123 51 242 33 195 -31 440 -166 440 -243 0 -13
11 -38 24 -56 13 -17 29 -53 35 -79 25 -100 50 -128 139 -147 28 -6 32 -4 32
15 0 12 -16 48 -35 80 -19 31 -66 123 -104 203 -60 125 -75 150 -113 178 -65
47 -176 96 -327 141 -75 22 -148 47 -163 54 -38 19 -57 18 -140 -13 -66 -24
-83 -36 -177 -130 -113 -113 -150 -137 -226 -148 -46 -7 -56 -14 -132 -92 -46
-46 -87 -82 -92 -79 -17 11 -19 71 -9 266 l10 195 102 103 c142 144 157 154
266 162 129 11 179 37 305 160 112 109 164 139 236 140 59 0 99 -14 175 -62
34 -21 66 -38 73 -38 19 0 -24 73 -72 123 -61 62 -104 74 -200 57 -138 -24
-171 -42 -292 -160 -60 -59 -119 -112 -130 -118 -11 -5 -47 -13 -80 -16 -127
-15 -252 -59 -311 -109 -57 -48 -58 -47 -51 171 10 309 65 843 105 1007 11 46
17 110 16 185 0 110 -2 119 -38 205 -84 201 -87 223 -57 417 25 162 26 247 6
435 -8 77 -19 243 -25 369 -12 283 -18 346 -36 408 -20 71 -18 140 10 275 33
160 76 458 76 531 0 37 -10 89 -26 137 -14 43 -28 114 -31 158 -5 75 -3 88 35
200 23 66 52 183 66 260 14 77 40 181 57 230 l32 90 4 255 c4 228 7 265 28
345 32 118 105 558 105 628 0 30 -9 108 -20 172 -11 64 -20 163 -20 219 0 71
6 122 20 171 26 89 26 186 0 317 -35 180 -23 334 35 447 39 78 45 121 55 378
13 357 39 507 110 646 l40 79 0 246 c0 363 30 765 60 823 11 20 17 21 84 15
126 -11 217 -49 296 -122 74 -69 92 -121 101 -297 5 -89 12 -154 20 -163 26
-32 106 -2 140 52 12 19 36 98 55 175 27 112 34 162 34 241 0 136 -38 313 -90
418 -10 19 -21 46 -25 60 l-8 25 23 -20 c35 -31 69 -109 79 -177 5 -41 14 -66
26 -75 24 -16 99 -17 112 0 6 6 13 47 17 90 8 95 15 114 58 163 l33 37 -3 111
c-4 179 -41 285 -134 390 -120 135 -396 261 -626 287 -150 17 -160 19 -178 36
-13 13 -14 25 -8 57 4 23 8 79 8 126 0 103 -29 176 -79 199 -16 8 -66 48 -110
90 -96 92 -150 121 -226 121 -64 0 -168 -35 -246 -82 -67 -40 -159 -127 -173
-162 -20 -52 -67 -16 -99 77 -39 112 -93 168 -221 225 -131 59 -330 89 -395
59z m-1237 -12431 c53 -27 65 -50 59 -108 -4 -28 -11 -56 -16 -61 -6 -6 -33
-5 -73 3 -91 17 -95 21 -69 63 11 19 21 41 21 50 0 30 20 67 35 67 9 0 28 -6
43 -14z m-238 -319 c0 -44 -74 -226 -97 -240 -15 -9 -196 18 -200 29 -4 13 28
41 177 158 52 41 101 75 108 76 6 0 12 -11 12 -23z m740 -784 c1 -10 -12 -64
-27 -120 -26 -95 -30 -103 -56 -109 -16 -3 -30 -4 -32 -2 -2 2 4 28 14 58 11
30 24 74 30 96 17 65 70 122 71 77z m1790 -8 c-14 -8 -33 -14 -44 -15 -15 0
-16 3 -6 15 7 8 27 15 44 15 l31 -1 -25 -14z"/>
</g>
</svg>
