<?xml version="1.0" standalone="no"?>
<!DOCTYPE svg PUBLIC "-//W3C//DTD SVG 20010904//EN"
 "http://www.w3.org/TR/2001/REC-SVG-20010904/DTD/svg10.dtd">
<svg version="1.0" xmlns="http://www.w3.org/2000/svg"
 width="351.000000pt" height="1536.000000pt" viewBox="0 0 351.000000 1536.000000"
 preserveAspectRatio="xMidYMid meet">
<metadata>
Created by potrace 1.16, written by Peter Selinger 2001-2019
</metadata>
<g transform="translate(0.000000,1536.000000) scale(0.100000,-0.100000)"
fill="#000000" stroke="none">
<path d="M1570 15320 c0 -23 7 -98 15 -168 9 -70 15 -163 13 -207 l-3 -80 -54
102 c-61 116 -104 173 -131 173 -23 0 -30 -20 -23 -63 7 -42 -14 -60 -23 -20
-4 15 -16 38 -27 51 -11 12 -23 41 -26 64 -5 37 -10 43 -38 50 -18 5 -33 13
-33 18 0 6 -6 10 -14 10 -8 0 -26 -23 -40 -51 -24 -49 -25 -50 -32 -25 -3 14
-10 26 -15 26 -17 0 -42 -52 -50 -101 -6 -35 -18 -61 -40 -86 -28 -33 -31 -40
-25 -82 22 -153 20 -183 -9 -144 -7 9 -19 14 -29 10 -13 -5 -16 -23 -16 -104
0 -54 5 -137 11 -186 6 -48 9 -93 7 -99 -3 -7 -28 30 -57 81 -89 154 -201 279
-216 239 -3 -8 16 -61 43 -118 129 -277 257 -690 214 -690 -18 0 -36 34 -102
190 -85 202 -154 315 -264 428 -96 100 -173 162 -200 162 -19 0 -20 -7 -1 -40
20 -35 18 -42 -6 -35 -13 4 -27 1 -38 -9 -16 -15 -22 -15 -61 -1 -49 17 -89
19 -110 4 -13 -8 -12 -12 8 -26 30 -21 28 -33 -8 -33 -48 0 -47 -24 2 -98 67
-102 69 -122 8 -87 -37 21 -43 18 -37 -15 11 -51 106 -282 157 -377 34 -63 45
-93 36 -93 -34 0 -121 139 -195 312 -27 64 -57 128 -66 142 -52 80 -62 -35
-15 -175 37 -110 75 -187 133 -265 53 -72 71 -104 59 -104 -9 0 -58 52 -145
154 -82 96 -104 62 -40 -65 47 -93 167 -220 274 -289 94 -60 288 -157 344
-171 22 -6 47 -16 57 -23 18 -14 133 -205 126 -211 -14 -14 -468 74 -520 101
-15 8 -60 56 -101 107 -85 106 -101 121 -122 113 -24 -9 -18 -46 20 -125 l35
-73 -77 7 c-88 9 -112 9 -122 0 -10 -11 37 -43 97 -65 75 -27 110 -46 150 -84
47 -43 64 -82 106 -236 73 -270 165 -410 465 -711 220 -220 315 -297 435 -355
49 -24 97 -51 107 -60 10 -9 32 -62 49 -118 44 -141 108 -289 190 -440 39 -71
69 -130 68 -132 -2 -1 -62 31 -135 71 -296 163 -409 262 -549 477 -68 105 -94
122 -94 63 0 -51 41 -144 107 -243 74 -114 257 -297 335 -337 99 -51 70 -59
-68 -20 -128 36 -244 96 -307 158 -66 65 -97 111 -181 265 -79 147 -96 171
-118 172 -15 0 -18 -9 -18 -52 0 -145 101 -352 229 -470 60 -56 153 -109 306
-174 105 -45 154 -89 203 -180 51 -98 44 -106 -40 -41 -65 50 -179 112 -225
122 -42 8 -73 -2 -73 -24 0 -25 30 -49 90 -72 29 -11 73 -34 98 -51 65 -44
230 -210 215 -215 -21 -7 -136 35 -196 71 -30 18 -87 61 -126 94 -76 66 -109
87 -119 77 -12 -12 52 -118 106 -177 55 -59 92 -80 287 -168 84 -37 165 -90
165 -108 0 -7 -12 -36 -27 -65 l-28 -52 -5 -384 -5 -384 -29 42 -30 43 -6 253
c-3 140 -9 257 -12 261 -13 12 -38 -5 -49 -33 -6 -16 -13 -115 -16 -220 -3
-106 -10 -193 -15 -193 -4 0 -8 10 -8 23 0 21 -9 40 -53 116 -9 17 -24 63 -32
103 -12 54 -23 81 -45 103 -17 17 -30 40 -30 51 0 12 -14 41 -32 65 l-31 43
-14 -47 c-15 -51 -26 -58 -45 -27 -7 11 -18 20 -25 20 -25 0 -24 -48 2 -126
25 -77 129 -294 181 -382 18 -30 32 -78 46 -159 10 -63 17 -118 14 -120 -7 -7
-30 51 -51 128 -23 87 -55 144 -80 144 -12 0 -19 -6 -19 -15 4 -41 78 -373 95
-424 11 -32 19 -67 17 -78 -2 -16 -10 -11 -38 27 -99 134 -151 215 -171 270
-30 83 -126 285 -146 307 -51 57 -57 -21 -12 -156 16 -50 75 -181 129 -291 55
-110 102 -218 106 -240 7 -40 7 -40 -14 -21 -12 10 -38 55 -59 100 -81 173
-118 241 -135 244 -10 2 -24 -8 -35 -24 -15 -24 -18 -52 -20 -174 0 -80 -2
-151 -2 -159 -1 -9 -9 -11 -26 -7 -34 9 -33 -12 6 -127 40 -121 143 -330 274
-557 l107 -185 -7 -195 c-7 -219 -20 -359 -34 -373 -12 -12 -30 49 -65 215
-29 135 -50 192 -68 185 -19 -6 -14 -152 7 -257 9 -47 32 -145 51 -218 54
-211 57 -353 6 -335 -35 12 -91 77 -126 147 -46 92 -78 131 -99 123 -10 -4
-17 -16 -17 -28 0 -13 -6 -30 -14 -38 -21 -23 -1 -60 86 -157 163 -182 182
-292 223 -1354 15 -394 28 -663 45 -920 11 -167 13 -384 4 -393 -4 -3 -19 7
-34 23 -56 59 -78 26 -40 -59 11 -24 20 -48 20 -54 0 -6 -33 22 -74 61 -72 70
-106 88 -106 57 0 -35 37 -91 153 -229 43 -53 62 -86 77 -135 24 -81 40 -244
40 -413 0 -112 -2 -128 -16 -128 -14 0 -16 -8 -10 -50 5 -40 4 -50 -8 -50 -26
0 -27 -16 -5 -87 19 -59 21 -83 16 -183 -8 -152 -34 -366 -48 -392 -8 -14 -18
-19 -35 -15 -21 4 -24 1 -24 -28 0 -25 -5 -34 -21 -38 -20 -5 -21 -10 -15 -55
23 -177 32 -637 16 -842 -29 -371 -27 -412 44 -750 62 -290 60 -280 39 -280
-10 0 -33 9 -52 21 -104 63 -110 41 -15 -62 118 -129 197 -283 240 -468 16
-69 13 -82 -16 -63 -26 16 -50 15 -50 -1 0 -7 20 -37 44 -65 63 -73 84 -104
91 -135 5 -17 16 -29 31 -33 32 -8 231 -1 240 9 11 10 -9 166 -57 447 -22 129
-45 271 -50 315 -12 108 -17 125 -34 125 -15 0 -23 -22 -27 -79 -2 -19 -8 -36
-15 -38 -38 -13 -38 223 1 386 15 63 25 125 21 138 -12 51 -47 15 -79 -84 -10
-29 -22 -55 -27 -59 -15 -9 -50 85 -67 181 -13 77 -14 112 -4 246 13 167 36
349 53 414 6 22 34 81 63 130 90 152 103 185 72 185 -16 0 -57 -45 -106 -118
-19 -28 -38 -48 -42 -44 -22 22 107 862 147 957 15 37 127 153 184 190 45 30
52 50 21 60 -36 11 -80 -6 -142 -56 -34 -27 -65 -49 -70 -49 -22 0 -3 56 42
122 48 70 63 118 38 118 -6 0 -19 -7 -29 -16 -16 -14 -17 -8 -23 108 -22 485
-29 588 -41 694 -22 181 -31 530 -15 579 8 24 41 69 86 116 81 85 89 106 82
214 -7 117 -42 111 -73 -13 -20 -79 -50 -132 -75 -132 -24 0 -31 22 -19 62 5
18 9 48 9 65 0 26 -4 33 -20 33 -36 0 -43 37 -54 283 l-10 238 97 197 c54 108
97 203 97 210 0 20 -45 14 -67 -10 -11 -13 -31 -43 -43 -68 -13 -25 -39 -70
-58 -100 -34 -53 -35 -54 -44 -30 -11 29 7 389 23 470 15 74 27 96 134 235 99
129 118 159 108 169 -11 11 -40 6 -53 -9 -23 -28 -32 -16 -25 35 4 30 3 50 -3
50 -16 0 -96 -92 -136 -157 -21 -35 -43 -60 -49 -56 -12 7 -2 475 12 572 13
82 33 109 107 143 109 51 129 63 129 78 0 23 -77 24 -157 4 -37 -10 -71 -15
-75 -11 -8 9 15 221 28 255 5 14 51 68 102 121 193 200 424 488 413 516 -8 21
-45 5 -109 -45 -27 -22 -54 -40 -59 -40 -4 0 -7 30 -6 68 4 91 -16 90 -54 -3
-41 -101 -50 -104 -42 -15 5 63 4 78 -10 89 -19 16 -26 2 -57 -119 -21 -85
-107 -281 -128 -294 -31 -19 13 198 70 346 40 104 92 156 243 248 58 36 174
108 256 161 83 53 181 109 218 125 194 81 401 247 447 358 19 45 19 46 -2 46
-10 0 -58 -34 -108 -76 -89 -76 -128 -99 -146 -88 -17 10 -9 24 64 105 87 98
110 130 97 143 -17 17 -118 -44 -206 -128 -101 -94 -119 -106 -166 -106 -51 0
-102 -17 -234 -76 -67 -30 -127 -54 -133 -54 -37 0 10 66 168 235 288 307 441
537 441 660 0 62 -36 26 -159 -158 -166 -249 -384 -507 -408 -483 -3 3 6 18
21 33 104 113 276 382 302 472 28 100 26 98 205 181 333 154 649 342 649 387
0 20 -13 17 -142 -42 -66 -31 -123 -54 -125 -52 -2 3 19 31 46 62 28 32 51 62
51 67 0 26 -58 -2 -280 -137 -290 -175 -510 -278 -510 -237 0 4 43 55 96 112
113 123 205 243 239 311 58 114 28 95 -191 -123 l-194 -192 0 40 c1 81 19 166
40 189 12 13 74 51 138 86 156 84 220 124 264 167 74 71 28 100 -59 38 -80
-56 -307 -161 -325 -150 -13 8 -9 102 7 174 11 49 13 107 8 240 -5 149 -4 180
10 206 18 35 79 89 247 219 63 49 250 202 415 340 410 342 548 443 642 467 32
8 39 35 17 59 -27 30 -84 21 -188 -29 -152 -73 -355 -220 -561 -407 -147 -133
-242 -211 -335 -275 -110 -75 -252 -150 -285 -150 -59 0 -60 108 -1 196 12 17
100 137 197 265 371 492 466 640 573 901 37 88 43 118 27 118 -26 0 -82 -70
-214 -267 -80 -120 -176 -259 -213 -308 -38 -50 -138 -182 -223 -294 -181
-240 -229 -293 -241 -271 -18 33 -120 508 -120 562 0 53 115 314 209 471 165
280 257 493 321 747 53 208 57 306 17 402 -31 74 -51 53 -68 -69 -43 -315
-107 -506 -280 -838 -90 -173 -92 -175 -86 -90 4 59 13 86 55 170 60 117 130
323 166 486 33 149 34 258 3 348 -40 117 -57 94 -81 -113 -21 -180 -78 -412
-121 -491 -18 -33 -61 -127 -94 -209 -75 -180 -127 -286 -142 -286 -7 0 -9 10
-4 28 54 211 97 437 134 700 8 51 17 73 56 125 64 85 155 277 204 431 23 70
57 166 77 213 50 121 94 302 101 410 5 83 4 93 -12 99 -23 9 -39 -13 -60 -80
-25 -77 -37 -106 -45 -106 -3 0 -14 36 -24 79 -16 77 -38 114 -56 95 -9 -9
-19 -96 -40 -352 -23 -266 -40 -315 -177 -500 l-54 -74 -29 39 c-34 45 -37 63
-11 63 43 0 106 107 145 246 14 49 39 114 55 144 46 83 36 146 -14 90 -22 -25
-44 -26 -52 -2 -19 50 -58 23 -68 -48 -4 -29 -22 -72 -46 -111 -22 -35 -46
-88 -55 -116 -34 -116 -44 -54 -44 273 0 268 -6 314 -54 399 -19 33 -24 61
-29 160 -11 229 -68 425 -124 425 -9 0 -13 -13 -13 -40z m-243 -542 c-3 -7 -5
-2 -5 12 0 14 2 19 5 13 2 -7 2 -19 0 -25z m-716 -409 c44 -64 134 -234 144
-269 l7 -25 -21 20 c-21 21 -191 312 -191 328 0 21 28 -3 61 -54z m603 -478
c67 -111 74 -138 81 -302 3 -79 8 -157 10 -174 l4 -30 -22 29 c-12 16 -58 78
-102 137 l-80 108 1 169 c1 94 5 176 9 183 10 16 33 -12 99 -120z m604 -177
c3 -47 0 -53 -40 -94 l-43 -45 -3 35 c-5 44 12 99 39 134 29 37 43 28 47 -30z
m-12 -371 c-2 -10 -17 -62 -32 -115 -27 -100 -53 -154 -54 -113 0 60 62 245
82 245 5 0 7 -8 4 -17z m-1271 -199 c63 -13 380 -64 403 -64 15 0 26 -90 13
-103 -31 -31 -531 143 -531 184 0 7 9 9 23 5 12 -4 54 -13 92 -22z m46 -168
c130 -62 236 -101 349 -129 l55 -13 79 -145 c43 -79 108 -187 145 -238 36 -52
69 -100 73 -107 4 -6 0 -29 -8 -51 -14 -36 -14 -48 4 -149 11 -60 17 -115 13
-122 -16 -29 -156 91 -350 302 -309 336 -393 446 -461 607 -38 87 -45 109 -36
109 2 0 63 -29 137 -64z m499 -2 c0 -9 -5 -14 -12 -12 -18 6 -21 28 -4 28 9 0
16 -7 16 -16z m91 -190 c37 -19 59 -68 59 -131 l0 -48 -21 25 c-21 26 -64 105
-79 146 -11 29 -2 31 41 8z m229 -216 c34 -74 51 -158 32 -158 -35 0 -102 148
-102 223 0 39 1 39 19 23 10 -9 33 -49 51 -88z m130 -439 c0 -18 -10 -8 -25
24 l-16 32 21 -24 c11 -13 20 -27 20 -32z m-95 -136 c14 -21 25 -44 25 -51 0
-21 -38 4 -45 30 -15 52 -16 58 -11 58 3 0 17 -17 31 -37z m149 -285 c76 -87
156 -273 156 -363 0 -23 -2 -25 -15 -15 -17 14 -192 364 -201 403 -9 41 9 33
60 -25z m-71 -820 c94 -50 164 -120 182 -181 17 -57 19 -103 6 -111 -21 -13
-149 131 -230 258 -48 77 -45 80 42 34z m147 -640 c36 -80 18 -308 -31 -400
l-12 -23 -10 30 c-15 43 -13 373 1 408 16 38 30 34 52 -15z m530 -449 c0 -55
-243 -400 -266 -377 -5 6 77 229 107 289 24 49 159 123 159 88z m200 -773 c0
-15 -37 -32 -47 -22 -9 8 17 36 33 36 8 0 14 -6 14 -14z m-190 -11 c0 -38
-103 -100 -215 -129 -61 -16 -77 -14 -57 6 12 12 252 137 265 138 4 0 7 -7 7
-15z m-1163 -178 c89 -148 109 -191 117 -257 4 -30 12 -60 18 -68 8 -9 8 -16
-1 -25 -10 -9 -17 -7 -33 13 -27 32 -140 268 -167 348 -22 65 -28 117 -11 107
5 -3 39 -56 77 -118z m801 -99 c-7 -19 -38 -22 -38 -4 0 10 9 16 21 16 12 0
19 -5 17 -12z"/>
</g>
</svg>
