<?xml version="1.0" standalone="no"?>
<!DOCTYPE svg PUBLIC "-//W3C//DTD SVG 20010904//EN"
 "http://www.w3.org/TR/2001/REC-SVG-20010904/DTD/svg10.dtd">
<svg version="1.0" xmlns="http://www.w3.org/2000/svg"
 width="1536.000000pt" height="915.000000pt" viewBox="0 0 1536.000000 915.000000"
 preserveAspectRatio="xMidYMid meet">
<metadata>
Created by potrace 1.16, written by Peter Selinger 2001-2019
</metadata>
<g transform="translate(0.000000,915.000000) scale(0.100000,-0.100000)"
fill="#000000" stroke="none">
<path d="M10796 9036 c-123 -111 -148 -126 -212 -126 -13 0 -24 2 -24 4 0 3
14 28 32 55 17 28 29 54 25 57 -3 3 -13 -9 -23 -28 -34 -65 -65 -98 -94 -98
-15 0 -82 -11 -148 -25 -66 -14 -129 -25 -139 -25 -33 1 13 27 70 41 51 11
112 37 105 44 -6 6 -133 -36 -179 -60 l-46 -23 -49 29 c-60 35 -81 36 -160 4
-65 -26 -238 -75 -264 -75 -9 0 0 14 23 36 46 43 49 56 5 18 -67 -56 -137 -75
-373 -103 -94 -11 -186 -25 -205 -31 -47 -13 -71 -13 -47 1 9 5 17 15 17 20 0
6 -14 0 -32 -12 -32 -23 -138 -40 -138 -22 0 5 16 17 36 27 53 25 36 30 -19 6
-25 -11 -92 -34 -149 -51 -57 -17 -128 -43 -158 -59 -78 -40 -136 -47 -165
-20 -52 49 -256 73 -385 46 -76 -16 -177 -62 -216 -97 -24 -22 -192 -49 -304
-48 l-65 0 30 16 c23 13 26 18 13 21 -9 2 -27 -3 -40 -12 -16 -10 -56 -15
-127 -17 -95 -3 -105 -1 -112 17 -7 18 -8 18 -15 -3 -5 -20 -13 -23 -53 -22
-25 0 -68 4 -96 8 -49 7 -50 8 -22 19 16 7 34 12 42 12 8 0 17 5 20 10 12 19
-44 10 -93 -16 l-51 -26 -62 21 c-35 11 -73 21 -86 21 -13 0 -23 6 -23 15 0 8
-5 25 -11 39 -10 22 -18 25 -68 25 -31 0 -96 -6 -146 -14 -49 -8 -139 -17
-200 -21 l-110 -6 35 23 c19 13 47 30 63 36 34 16 35 31 1 39 -17 4 -40 -1
-68 -15 -24 -11 -65 -25 -92 -31 -27 -5 -60 -12 -74 -16 l-25 -6 22 16 c12 9
56 33 98 52 41 20 75 40 75 45 0 5 -2 9 -5 9 -15 0 -142 -63 -209 -104 -58
-35 -85 -46 -109 -44 l-32 4 38 19 c20 10 37 23 37 28 0 11 -36 0 -78 -24 -42
-24 -85 -24 -192 1 -107 25 -135 25 -246 0 -114 -25 -116 -25 -135 8 -12 21
-28 31 -68 40 -29 7 -65 12 -80 12 -16 0 -57 10 -92 21 -55 19 -86 22 -216 21
-160 -1 -205 11 -79 21 41 3 87 12 102 20 l29 15 -27 7 c-37 9 -87 10 -188 2
l-85 -7 40 25 c22 14 123 52 225 85 166 54 232 79 206 80 -30 0 -376 -120
-447 -156 -92 -47 -127 -57 -88 -25 13 11 20 23 16 27 -10 11 -125 -10 -168
-29 -61 -29 -200 -59 -242 -54 -61 8 -65 20 -24 66 39 43 61 80 54 88 -3 2
-11 -6 -17 -19 -16 -29 -81 -98 -94 -98 -5 0 4 15 21 33 43 46 113 144 113
159 0 6 -22 -19 -49 -58 -27 -38 -63 -82 -80 -98 -27 -26 -35 -28 -58 -20 -37
13 -34 26 7 38 29 8 31 10 13 14 -12 2 -55 -6 -96 -17 -40 -12 -84 -21 -98
-21 l-24 1 28 15 c55 30 25 22 -45 -11 -84 -41 -109 -44 -101 -15 8 30 -18 25
-63 -11 -50 -40 -186 -108 -223 -113 -28 -3 -29 -2 -20 22 16 41 3 35 -16 -8
-14 -30 -24 -40 -42 -40 -28 0 -29 9 -2 61 11 23 18 43 16 45 -2 3 -16 -23
-31 -55 -26 -58 -42 -79 -52 -68 -3 3 2 19 10 36 18 34 21 61 6 61 -5 0 -10
-11 -10 -25 0 -40 -27 -83 -73 -116 -33 -24 -43 -27 -45 -15 -2 8 2 24 7 35 6
11 11 28 10 38 0 10 -7 0 -15 -22 -15 -41 -49 -83 -59 -73 -3 3 8 31 25 63 16
31 30 67 29 79 0 13 -5 6 -13 -19 -12 -40 -61 -125 -72 -125 -3 0 -2 5 1 10
10 16 -7 12 -28 -7 -20 -17 -20 -17 -13 2 17 43 15 58 -2 20 -22 -46 -52 -77
-52 -53 0 7 7 24 16 36 9 13 14 26 11 29 -3 3 -17 -18 -31 -45 -31 -62 -46
-73 -47 -35 0 27 -1 27 -9 6 -12 -30 -18 -29 -31 5 -10 26 -11 26 -25 8 -8
-11 -14 -29 -14 -41 0 -12 -7 -30 -16 -41 -14 -18 -15 -17 -10 19 14 93 14
107 0 47 -25 -102 -34 -114 -31 -42 1 34 -1 62 -5 62 -9 0 -13 -46 -9 -97 1
-24 -2 -33 -14 -33 -14 0 -15 10 -9 74 4 49 3 79 -5 92 -11 17 -11 17 -5 -5 3
-13 3 -56 -1 -96 -6 -66 -8 -72 -28 -71 -23 1 -24 6 -13 74 4 25 2 42 -4 42
-10 0 -17 -23 -22 -70 -4 -31 -19 -30 -35 1 -7 13 -13 18 -13 11 0 -7 7 -23
15 -36 12 -18 13 -29 4 -54 -9 -27 -16 -32 -44 -32 -18 0 -41 -3 -49 -6 -14
-5 -16 -1 -10 34 4 25 2 42 -5 46 -7 5 -12 -11 -13 -51 -1 -36 -3 -45 -5 -23
-2 19 -6 46 -10 60 -6 24 -6 23 -14 -9 -4 -19 -3 -45 2 -58 11 -30 11 -54 0
-72 -8 -12 -13 -12 -36 3 -15 10 -29 15 -32 12 -3 -3 6 -10 19 -17 21 -9 25
-18 27 -56 1 -47 -32 -119 -50 -107 -5 3 -9 -3 -9 -13 0 -24 -56 -113 -70
-113 -6 0 -13 6 -16 14 -3 8 -13 17 -22 21 -11 4 -9 -2 7 -19 l24 -25 -27 -35
c-14 -19 -45 -50 -68 -69 -49 -40 -208 -140 -213 -135 -2 2 -9 15 -15 28 l-10
25 4 -26 c5 -21 -8 -38 -81 -110 -47 -46 -83 -75 -79 -64 6 16 5 17 -5 8 -9
-9 -19 -9 -41 3 -17 9 -32 13 -34 11 -3 -2 9 -10 26 -17 36 -15 37 -21 5 -57
l-24 -28 -43 23 c-38 20 -27 5 12 -18 12 -7 11 -13 -10 -35 -38 -41 -209 -168
-289 -214 -38 -23 -73 -46 -76 -51 -3 -5 -13 -7 -23 -4 -13 5 -14 4 -3 -4 10
-7 -7 -24 -69 -68 -46 -33 -122 -91 -169 -129 -47 -39 -105 -85 -128 -103
l-42 -33 -64 83 c-35 46 -92 126 -127 178 -65 100 -81 121 -60 80 23 -44 111
-172 178 -258 35 -46 61 -86 58 -89 -3 -3 -22 6 -43 21 l-38 27 33 -29 33 -30
-73 -51 -73 -51 -115 119 c-63 65 -130 128 -147 140 -52 35 -38 18 21 -28 30
-23 95 -86 144 -140 l90 -97 -95 -70 c-53 -38 -101 -67 -107 -65 -6 2 -24 5
-41 7 l-30 3 29 -7 c16 -4 31 -12 33 -18 2 -6 -32 -34 -75 -63 -44 -28 -84
-63 -90 -76 -7 -14 -18 -25 -27 -25 -8 0 -15 -4 -15 -9 0 -14 -64 -33 -86 -25
-14 4 -15 3 -6 -4 10 -7 0 -12 -35 -21 -26 -7 -72 -23 -101 -36 -45 -21 -52
-28 -47 -45 5 -16 2 -20 -18 -20 -13 0 -36 -9 -51 -21 -15 -11 -39 -25 -54
-29 -26 -8 -26 -8 -3 -9 13 -1 39 10 57 24 18 14 41 25 52 25 17 0 20 -10 25
-74 10 -133 113 -326 230 -431 49 -44 67 -55 87 -51 14 3 59 13 100 22 95 21
299 25 353 6 23 -9 42 -23 47 -38 25 -65 33 -334 10 -334 -28 0 -41 -141 -16
-169 8 -9 17 -27 20 -41 6 -22 -2 -32 -55 -74 -68 -54 -98 -107 -99 -173 0
-36 5 -45 38 -70 134 -105 173 -114 507 -123 228 -6 296 -5 365 7 143 25 465
-3 513 -45 9 -8 17 -12 17 -7 0 4 8 1 17 -6 11 -10 14 -10 9 -1 -16 27 14 10
48 -28 22 -25 35 -33 33 -22 -4 24 -17 43 -26 38 -4 -3 -8 1 -8 9 0 17 81 -26
108 -58 15 -17 18 -18 13 -4 -5 14 4 12 47 -14 60 -35 204 -109 213 -109 3 0
6 14 6 30 0 29 2 30 48 32 72 3 126 -2 136 -12 7 -7 1 -10 -15 -10 -17 0 -20
-3 -11 -9 11 -7 10 -10 -3 -15 -9 -3 -24 -6 -33 -5 -14 0 -13 2 3 9 23 10 5
13 -19 4 -25 -10 -19 -24 10 -24 33 0 96 38 87 53 -4 7 0 8 11 4 10 -4 19 -7
21 -7 2 0 14 -18 26 -40 24 -42 35 -49 42 -28 2 7 3 5 2 -4 -2 -9 6 -25 17
-35 11 -10 24 -28 29 -40 5 -13 17 -23 28 -23 10 0 22 -7 25 -16 5 -12 10 -11
33 10 15 15 33 26 39 26 6 0 19 9 29 20 10 11 25 20 34 19 11 0 12 -2 3 -6
-10 -4 -8 -9 7 -20 25 -17 26 -35 5 -71 -15 -25 -15 -25 0 -8 14 17 16 18 16
3 0 -9 5 -17 10 -17 6 0 10 12 10 26 0 14 5 34 10 44 9 16 14 17 43 8 17 -6
61 -30 97 -52 51 -32 75 -41 115 -42 33 -2 50 -6 50 -15 0 -7 -7 -15 -15 -17
-13 -5 -13 -3 0 14 14 18 14 18 -2 5 -10 -7 -15 -17 -12 -22 3 -5 -1 -9 -8 -9
-8 0 -6 -5 5 -11 9 -6 15 -14 13 -18 -3 -4 16 -4 42 0 53 8 66 4 31 -10 -17
-7 -19 -10 -6 -10 19 -1 22 -12 7 -27 -6 -6 8 -10 42 -9 34 0 53 -4 56 -13 3
-9 -4 -13 -19 -12 -40 4 -49 1 -49 -16 0 -14 11 -15 83 -9 45 3 92 11 104 17
33 16 40 2 12 -21 -13 -11 -18 -20 -11 -21 6 0 12 5 12 11 0 5 4 8 9 4 5 -3
12 -1 16 5 3 5 9 10 13 10 9 0 62 -46 62 -54 0 -3 -19 -6 -42 -6 l-43 0 25 20
c30 24 19 26 -15 4 -38 -25 -30 -34 31 -34 50 0 55 -2 49 -18 -22 -52 -10 -65
30 -32 12 10 21 11 33 3 19 -11 25 -53 9 -53 -6 0 -8 -3 -4 -6 3 -4 20 5 36
19 21 17 37 23 55 20 32 -6 32 -10 4 -42 -14 -16 -8 -13 13 7 32 29 69 43 69
25 0 -4 -12 -21 -27 -37 -26 -29 -25 -28 9 3 31 29 40 32 69 26 30 -7 31 -9
15 -21 -10 -7 -25 -10 -34 -7 -13 4 -14 3 -3 -5 7 -5 28 -6 47 -2 19 4 36 4
39 0 6 -10 -19 -20 -53 -20 -15 0 -34 -5 -42 -10 -10 -7 14 -10 76 -10 80 0
120 7 199 35 19 6 19 6 2 -8 -12 -10 -14 -17 -7 -22 6 -4 -6 -22 -32 -47 -37
-34 -38 -36 -10 -18 18 12 36 20 39 17 10 -11 -48 -55 -85 -66 -35 -10 -35
-10 17 -6 30 2 59 9 65 15 8 8 6 9 -8 4 -19 -7 -19 -7 0 19 10 14 25 27 32 27
7 0 11 4 7 9 -3 5 -1 12 5 16 5 3 10 1 10 -4 0 -6 4 -10 9 -9 5 2 9 -1 10 -7
1 -5 -4 -10 -10 -10 -12 0 -39 -33 -39 -48 0 -5 7 -4 15 3 13 11 15 7 11 -31
-3 -39 -7 -44 -30 -47 -33 -4 -34 -22 -1 -22 18 0 25 -5 25 -19 0 -11 5 -23
10 -26 6 -3 10 3 10 13 0 11 6 22 14 25 16 6 26 -20 26 -68 0 -48 19 -8 21 45
2 44 2 44 8 10 6 -32 8 -33 17 -15 6 11 17 37 23 58 7 20 16 37 20 37 5 0 28
16 52 35 24 19 47 35 52 35 4 0 0 -17 -8 -37 l-15 -38 21 28 c11 15 28 27 36
27 14 0 14 -3 -1 -19 -19 -21 -14 -41 8 -41 27 0 117 33 107 40 -6 3 20 4 57
2 66 -4 95 -19 66 -35 -8 -4 -19 -5 -26 -1 -7 5 -8 3 -3 -6 6 -10 4 -12 -9 -7
-9 4 -15 3 -11 -2 3 -6 46 -7 98 -4 l92 5 -30 -26 -30 -26 30 11 c17 6 53 15
80 20 28 5 58 12 68 15 16 5 17 3 8 -14 -6 -12 -11 -23 -11 -26 0 -11 31 -6
62 10 37 19 93 7 123 -26 18 -19 17 -20 -6 -21 l-24 -1 25 -7 c32 -9 36 -54 5
-59 -37 -7 -35 -18 3 -15 33 3 35 2 15 -8 -28 -14 -30 -29 -5 -22 12 3 19 -1
19 -11 0 -10 -6 -14 -16 -11 -9 2 -23 0 -31 -6 -12 -8 -11 -9 5 -5 11 3 29 -1
39 -9 17 -13 17 -17 5 -32 -9 -11 -10 -14 -1 -9 19 11 14 -18 -8 -47 -11 -13
-31 -28 -45 -31 -14 -4 -25 -11 -25 -16 0 -13 13 -13 26 0 5 5 19 7 31 4 40
-11 46 -83 38 -438 -5 -232 -12 -358 -26 -454 -10 -73 -23 -185 -29 -250 -18
-195 -37 -290 -76 -372 -20 -41 -53 -117 -74 -168 -21 -50 -69 -147 -107 -215
-39 -67 -94 -166 -123 -219 -36 -67 -83 -132 -152 -208 -54 -62 -116 -135
-137 -163 -45 -60 -72 -86 -161 -152 -36 -27 -92 -72 -126 -101 -43 -37 -70
-53 -95 -56 -34 -3 -34 -3 49 -56 152 -98 304 -134 464 -113 129 17 174 60
261 242 47 99 103 151 155 147 l37 -3 0 -102 c0 -83 3 -105 17 -120 10 -9 19
-15 21 -12 12 16 212 441 241 513 44 108 83 250 102 364 10 63 20 92 37 111
13 14 34 53 47 86 55 144 123 258 196 332 73 75 77 82 202 343 87 181 111 196
162 94 45 -89 38 -302 -21 -659 -42 -260 -74 -354 -160 -486 -33 -50 -94 -158
-135 -241 -71 -142 -76 -155 -77 -221 l-2 -71 -85 -44 c-47 -24 -87 -46 -88
-47 -11 -10 139 -45 192 -45 34 0 105 -11 157 -25 133 -35 151 -34 181 13 14
20 30 52 36 70 6 18 32 66 56 105 25 40 65 117 88 172 59 136 127 233 128 183
1 -56 22 -210 31 -238 l13 -35 13 30 c21 51 80 242 124 405 40 152 41 160 49
380 5 140 14 251 24 295 31 135 68 251 111 345 23 52 55 136 70 185 15 50 33
101 40 115 6 14 24 73 38 131 14 59 62 205 108 325 88 233 134 388 145 488 6
52 14 70 52 121 77 101 88 110 120 96 25 -10 26 -10 8 4 -19 14 -18 15 15 15
24 0 30 3 20 9 -10 7 -7 9 12 8 17 -1 22 -6 16 -13 -5 -7 13 -15 56 -26 36 -8
65 -12 65 -8 0 5 -18 11 -40 15 -64 11 -63 29 1 23 30 -3 46 -3 37 -1 -26 6
-22 20 7 27 18 5 32 0 48 -15 25 -24 117 -79 132 -79 6 0 -15 14 -45 31 -66
36 -71 41 -62 56 9 15 101 -15 136 -44 11 -10 15 -11 9 -3 -21 23 -15 30 14
19 19 -7 28 -7 34 3 9 14 -19 51 -32 42 -5 -3 -17 -1 -26 5 -13 7 1 9 50 8 37
0 62 -4 55 -9 -14 -8 8 -13 49 -9 12 1 25 -3 28 -10 5 -6 0 -10 -11 -9 -35 4
-67 0 -60 -7 4 -4 24 -6 46 -4 45 3 83 -15 124 -58 17 -17 33 -31 38 -31 4 0
-10 16 -32 37 -28 24 -37 39 -29 44 20 12 -39 42 -86 43 -24 1 -38 4 -32 8 17
11 45 10 86 -3 68 -22 83 -34 129 -99 52 -74 70 -95 53 -63 -6 13 -34 52 -61
88 l-49 65 40 0 c39 0 109 -23 109 -35 0 -10 -54 -1 -62 10 -5 7 -8 6 -8 0 0
-6 19 -29 42 -50 24 -22 32 -28 19 -12 -17 19 -20 27 -10 27 36 0 149 -97 149
-128 0 -12 2 -14 8 -4 6 9 15 5 33 -14 13 -14 33 -31 44 -37 18 -9 19 -9 6 7
-13 15 -13 19 0 27 12 7 12 9 -2 9 -8 0 -27 18 -42 41 -26 40 -26 40 -4 34 12
-3 4 4 -17 17 -49 29 -64 58 -18 34 17 -9 35 -16 39 -16 4 1 -9 10 -30 21 -52
27 -41 34 14 9 24 -11 53 -20 64 -21 14 -1 10 -4 -10 -9 -29 -7 -29 -8 10 -9
34 -1 45 -8 73 -41 37 -45 36 -46 -15 -25 -36 15 -37 15 -18 -2 10 -10 30 -19
44 -20 14 0 36 -14 50 -30 l24 -28 -22 35 c-42 66 -47 81 -31 90 23 13 34 12
36 -4 2 -16 42 -76 50 -76 3 0 -5 14 -17 31 -17 24 -19 33 -9 39 7 4 9 13 6
19 -4 6 -2 11 3 11 6 0 11 -7 11 -16 0 -10 6 -14 15 -10 8 3 15 0 15 -5 0 -6
-9 -9 -20 -6 -11 3 -20 3 -20 1 0 -6 51 -27 70 -29 8 -1 34 -5 56 -9 41 -7 41
-7 37 21 -5 25 3 20 70 -46 42 -41 77 -84 79 -95 3 -22 48 -37 48 -17 0 6 8
11 18 12 10 0 12 3 5 6 -7 2 -13 14 -13 25 0 15 4 18 22 13 17 -6 20 -4 15 9
-4 9 -10 23 -13 31 -3 8 -1 15 5 15 6 0 11 -4 11 -10 0 -5 5 -10 12 -10 6 0
20 -8 30 -17 10 -9 41 -19 67 -23 l49 -6 -5 32 c-3 17 -1 39 4 48 8 15 11 15
35 -3 38 -30 140 -48 124 -22 -3 4 4 8 15 8 28 2 23 -16 -6 -23 -30 -7 -31
-15 -7 -37 24 -22 72 -17 72 7 0 25 5 18 14 -17 4 -19 3 -26 -4 -22 -5 3 -10
2 -10 -4 0 -5 5 -13 10 -16 10 -6 14 -45 4 -45 -3 0 -15 5 -27 10 -20 9 -20 9
-3 -2 11 -7 34 -26 52 -41 33 -28 54 -29 54 -1 0 17 12 18 28 2 12 -12 11 -15
36 57 l13 40 12 -42 c6 -23 16 -45 22 -49 8 -4 8 0 0 14 -14 27 -14 59 1 68 6
4 8 3 5 -3 -7 -11 22 -28 31 -18 3 3 -1 5 -8 5 -10 0 -11 3 -3 11 15 15 77
-17 69 -37 -3 -8 -1 -14 4 -14 6 0 10 19 10 43 0 31 3 38 10 27 9 -13 10 -13
11 0 1 8 1 18 0 23 0 4 4 7 10 7 6 0 9 -6 6 -14 -6 -14 21 -32 31 -21 3 3 0 5
-6 5 -7 0 -12 7 -12 16 0 13 3 14 15 4 8 -7 26 -9 44 -5 26 6 35 2 61 -27 26
-28 33 -31 48 -20 42 30 67 27 41 -5 -8 -9 -9 -14 -2 -10 7 4 13 0 16 -10 4
-14 5 -13 6 5 1 27 8 28 35 5 17 -14 16 -13 -2 9 -26 29 -23 32 29 42 21 4 43
13 49 21 11 13 17 12 48 -12 20 -14 32 -22 29 -15 -4 6 1 16 10 22 15 9 15 10
-6 4 -16 -4 -21 -3 -17 5 5 7 1 8 -10 4 -12 -4 -15 -2 -12 8 2 8 15 16 27 17
14 2 21 0 17 -6 -4 -6 3 -8 16 -4 15 4 19 2 13 -7 -6 -10 -3 -11 14 -2 18 10
21 9 21 -7 0 -10 -3 -22 -7 -28 -5 -5 7 6 26 23 18 18 43 33 54 33 16 0 18 -3
9 -12 -19 -19 -14 -38 11 -37 16 1 18 2 5 6 -23 6 -23 16 2 38 20 18 20 17 20
-8 0 -15 4 -27 8 -27 5 0 7 14 4 31 -3 23 2 37 23 59 16 16 31 27 35 25 4 -3
10 4 13 15 6 23 27 27 27 6 0 -8 -7 -21 -15 -30 -14 -13 -14 -16 0 -23 12 -7
8 -15 -24 -38 -21 -17 -37 -33 -35 -36 2 -4 20 8 40 27 20 18 50 38 66 43 l29
10 -38 -47 c-21 -26 -28 -39 -17 -30 11 10 26 18 32 18 6 0 9 7 6 15 -4 8 -2
15 4 15 5 0 12 -13 16 -30 3 -16 10 -30 16 -30 6 0 9 4 6 8 -2 4 15 14 40 21
24 7 44 19 44 26 0 18 31 42 63 51 27 6 28 5 16 -14 -7 -11 -22 -25 -34 -31
-11 -5 -14 -10 -7 -10 16 -1 62 47 62 65 0 8 6 14 13 14 8 0 7 4 -3 10 -11 7
-5 10 23 10 35 0 48 -12 27 -25 -5 -3 -10 -12 -10 -18 0 -7 5 -4 11 6 16 28
33 20 69 -30 18 -27 44 -60 58 -75 13 -14 24 -29 23 -32 -1 -3 2 -6 6 -5 4 0
10 -8 14 -18 7 -17 8 -17 8 0 1 30 38 2 61 -46 l21 -42 -26 28 c-14 15 -25 24
-25 18 0 -5 22 -29 49 -53 27 -24 88 -96 136 -161 92 -125 135 -176 135 -160
0 5 -5 14 -12 21 -9 9 -9 12 0 12 18 0 57 -44 72 -80 7 -17 17 -30 22 -30 5 0
6 5 3 10 -3 6 -2 10 4 10 6 0 13 -11 17 -25 3 -14 14 -31 23 -38 9 -7 21 -21
26 -31 13 -23 31 -21 27 2 -3 19 60 -50 140 -152 29 -38 94 -106 144 -150 49
-45 148 -133 218 -196 70 -63 144 -125 164 -137 54 -32 121 -111 166 -194 70
-129 63 -257 -26 -524 -74 -220 -86 -268 -103 -396 -17 -126 -46 -224 -96
-321 -25 -49 -67 -98 -185 -213 -98 -97 -153 -159 -155 -175 -3 -21 -21 -31
-116 -71 -133 -55 -198 -92 -217 -122 -8 -12 -17 -51 -20 -85 -4 -35 -11 -74
-16 -87 -8 -20 -3 -25 40 -45 43 -20 58 -22 146 -16 55 3 127 8 162 12 42 4
71 2 86 -6 18 -9 30 -9 62 5 68 28 111 65 191 161 42 52 117 126 165 165 84
68 90 71 113 59 41 -22 67 -1 124 102 29 51 70 111 90 133 23 25 42 58 49 88
7 26 36 105 65 175 30 70 71 179 92 242 21 63 61 174 90 245 29 72 60 155 70
185 10 30 30 80 45 110 16 31 49 123 75 205 97 312 129 403 182 516 35 76 56
137 61 175 5 40 12 60 22 62 8 1 40 -13 70 -32 179 -113 180 -113 360 -130
l124 -11 91 -107 c49 -59 95 -107 102 -107 24 -2 87 -67 133 -137 41 -63 51
-90 92 -255 26 -101 49 -210 52 -242 4 -32 29 -147 57 -255 40 -157 52 -219
56 -307 l5 -110 -59 -90 c-53 -81 -65 -92 -102 -104 -33 -10 -41 -16 -36 -29
3 -9 1 -53 -6 -98 -12 -79 -14 -83 -48 -99 -64 -30 -173 -106 -227 -156 -40
-39 -58 -49 -73 -44 -28 9 -26 1 6 -30 34 -30 88 -49 210 -71 70 -12 99 -14
122 -6 22 8 49 8 91 0 33 -5 67 -8 75 -4 8 3 27 33 43 68 17 36 62 101 107
153 43 50 102 120 132 156 38 48 62 68 84 73 47 9 91 44 84 67 -7 20 22 86 59
136 13 18 29 61 36 98 11 58 10 73 -8 142 -25 95 -38 185 -52 368 -7 77 -15
172 -20 210 -5 39 -10 124 -10 190 0 66 -7 174 -15 240 -31 250 -36 320 -27
384 7 47 6 76 -4 109 -9 27 -16 119 -19 234 -4 135 -9 197 -19 217 -18 34 -92
111 -108 112 -7 0 -4 4 7 8 17 7 14 10 -20 20 -22 6 -47 15 -55 21 -12 8 -10
10 10 11 20 0 17 3 -14 12 -22 7 -41 18 -44 25 -3 9 3 10 23 2 53 -20 38 -8
-31 24 -39 18 -74 39 -78 45 -4 6 -11 9 -16 6 -13 -8 -86 31 -93 50 -9 21 6
19 28 -5 22 -25 43 -27 24 -3 -11 16 -11 16 1 5 8 -7 15 -18 15 -24 0 -6 6
-13 13 -15 32 -11 5 27 -63 90 -41 38 -73 73 -69 78 3 5 -2 9 -10 9 -10 0 -13
6 -9 16 5 13 9 12 29 -7 13 -12 24 -18 24 -12 0 6 -16 21 -35 33 -47 29 -145
146 -184 219 -36 68 -39 85 -12 76 18 -5 18 -4 3 29 -9 20 -21 32 -28 29 -8
-3 -19 10 -28 32 -22 51 -20 68 2 26 21 -41 38 -41 36 -1 -2 38 5 38 38 -2 15
-18 28 -27 28 -20 0 6 -11 22 -25 34 -14 12 -23 28 -21 34 3 7 -6 20 -20 29
-23 15 -64 71 -64 87 0 4 7 5 15 2 19 -8 19 4 0 36 -32 57 -13 53 53 -10 29
-27 60 -50 70 -50 12 1 8 9 -18 31 -73 65 -130 122 -130 131 0 5 14 -1 30 -14
44 -32 58 -13 31 41 -18 34 -19 41 -6 41 11 0 13 5 5 26 -13 33 -13 31 10 37
13 3 18 11 14 20 -4 12 0 14 15 10 21 -5 29 11 11 22 -19 12 -10 24 17 21 14
-2 32 -10 38 -20 17 -22 28 -20 15 3 -11 22 -14 71 -3 71 3 0 15 -7 25 -17 29
-26 31 -9 3 25 -27 32 -34 72 -12 72 7 0 26 -14 43 -31 33 -35 84 -65 84 -49
0 5 -5 10 -10 10 -6 0 -31 19 -55 41 -38 35 -45 48 -45 78 0 58 14 69 41 32
26 -35 47 -43 27 -10 -35 58 -36 62 -26 85 8 18 7 29 -6 49 -29 44 8 30 39
-15 15 -22 29 -40 31 -40 14 0 -2 33 -37 76 -35 42 -42 59 -43 100 -1 27 -6
64 -11 82 -8 33 -7 33 13 21 26 -16 40 -5 22 16 -20 24 -7 26 31 5 56 -33 100
-51 112 -47 7 2 -1 10 -18 18 -62 27 -85 49 -85 80 0 19 5 29 15 29 8 0 24 21
35 48 l21 47 24 -30 c34 -41 41 -15 15 59 -22 64 -26 106 -10 106 6 0 10 8 11
18 1 9 6 0 13 -20 17 -54 24 -54 18 1 -2 26 3 91 13 144 17 93 17 96 -3 124
-23 32 -38 118 -23 127 5 4 31 -21 56 -54 26 -34 49 -59 52 -56 3 2 -21 37
-52 76 -58 73 -78 110 -89 170 l-6 35 45 -45 c60 -59 58 -40 -3 24 -34 36 -72
98 -126 206 -43 85 -88 171 -99 190 l-20 35 44 -42 c66 -64 86 -55 53 22 -8
20 -17 51 -19 69 -6 38 -47 122 -77 153 -45 48 -3 20 58 -39 35 -34 66 -59 69
-56 4 4 -76 83 -152 150 -21 18 -31 48 -18 48 3 0 32 -13 65 -30 64 -32 75
-36 65 -20 -4 6 -39 26 -78 45 -52 24 -90 53 -137 101 l-65 66 38 -5 c27 -4
37 -3 34 6 -2 7 -23 12 -49 13 -55 1 -60 4 -98 60 -29 41 -30 44 -10 44 33 0
23 22 -35 80 -31 30 -53 61 -50 68 7 18 -27 82 -62 114 -15 14 -53 44 -85 65
-78 53 -344 370 -361 431 -8 30 -20 48 -38 57 -23 12 -117 145 -103 145 3 0
26 -12 50 -26 25 -15 47 -24 50 -21 6 5 -76 57 -91 57 -11 0 -135 110 -135
119 0 5 12 6 26 3 17 -3 25 -1 21 5 -4 6 -21 13 -38 17 -25 5 -30 10 -26 26 4
17 2 20 -14 15 -11 -4 -38 3 -63 15 -49 23 -141 116 -123 124 16 6 -28 41 -80
63 -24 10 -43 21 -43 25 0 4 7 5 15 2 8 -4 15 -1 15 5 0 6 -15 11 -33 11 -56
0 -129 27 -203 75 l-69 45 80 1 80 1 -111 13 c-81 9 -129 21 -179 43 -56 25
-65 31 -50 39 14 8 8 12 -31 18 -87 13 -184 59 -184 87 0 5 13 2 30 -7 47 -24
150 -45 228 -45 39 0 72 3 72 8 0 4 -39 8 -88 8 -62 1 -107 9 -157 25 -72 25
-82 36 -49 53 84 45 84 59 1 20 -47 -21 -68 -25 -120 -21 -34 2 -72 9 -83 15
-33 18 -88 24 -116 13 -23 -8 -28 -7 -33 8 -4 14 -20 19 -68 24 -34 3 -125 20
-202 38 -115 26 -172 33 -320 39 -109 4 -191 12 -207 20 l-27 13 49 55 c66 74
55 80 -14 9 l-54 -57 -58 27 c-71 32 -187 42 -272 23 -55 -12 -202 -6 -202 9
0 4 25 19 55 34 30 15 55 32 55 38 0 8 -4 8 -12 1 -20 -15 -179 -94 -183 -91
-3 4 173 167 235 218 14 11 20 20 13 21 -6 0 -68 -51 -137 -114z m419 -143
l50 -18 -130 -3 c-149 -3 -183 2 -165 23 6 8 21 16 33 19 42 9 162 -3 212 -21z
m-1110 -24 c26 -16 27 -19 9 -19 -11 0 -42 7 -68 16 -34 12 -44 19 -35 25 18
12 56 3 94 -22z m-6321 -64 c-6 -15 -42 -31 -51 -22 -2 3 8 12 24 21 35 19 33
19 27 1z m816 1 c-25 -13 -120 -30 -120 -21 0 7 93 34 120 34 l25 0 -25 -13z
m345 -16 c-3 -5 -41 -9 -83 -9 -60 1 -69 3 -42 9 55 11 132 11 125 0z m358
-115 c67 -9 48 -25 -24 -22 -39 2 -65 9 -76 20 -15 15 -14 16 18 12 19 -2 55
-7 82 -10z m1092 5 c-11 -5 -29 -9 -40 -9 -17 -1 -17 1 -5 9 8 5 26 9 40 9 23
0 23 -1 5 -9z m-69 -35 c-19 -14 -66 -21 -66 -10 0 8 42 24 65 24 20 0 20 0 1
-14z m2055 -2 c17 -17 -37 -29 -216 -48 -82 -9 -177 -22 -210 -30 -33 -7 -61
-12 -63 -10 -8 7 128 75 178 89 67 19 292 18 311 -1z m-2991 -14 c0 -11 -71
-12 -97 -1 -13 5 -3 9 32 12 54 6 65 4 65 -11z m3074 -14 c18 -14 16 -15 -32
-15 -29 0 -52 4 -52 9 0 23 57 26 84 6z m-1719 -5 c-3 -5 -17 -10 -31 -10 -13
0 -24 5 -24 10 0 6 14 10 31 10 17 0 28 -4 24 -10z m-3775 -108 c0 -16 -7 -37
-15 -48 -16 -21 -16 -24 0 49 7 35 15 35 15 -1z m10612 -627 c10 -19 10 -19
-8 -6 -44 34 -107 98 -120 124 -11 21 3 11 51 -35 36 -35 71 -72 77 -83z m508
-647 c0 -5 10 -22 22 -38 12 -16 18 -33 14 -37 -11 -12 -86 73 -86 97 0 20 1
20 25 4 14 -9 25 -20 25 -26z m81 -45 c31 -34 59 -74 59 -86 0 -5 -18 4 -39
20 -33 23 -54 51 -79 106 -8 16 33 -11 59 -40z m-27 -58 c36 -18 176 -152 184
-175 10 -28 -37 -2 -127 71 -109 87 -151 131 -151 157 0 12 6 11 28 -9 15 -13
45 -33 66 -44z m458 -598 c20 -28 20 -30 3 -17 -44 32 -54 43 -49 51 7 13 19
4 46 -34z m17 -52 c57 -62 51 -74 -9 -16 -27 26 -50 51 -50 55 0 16 21 2 59
-39z m50 -115 c5 -8 11 -28 15 -43 7 -28 5 -27 -36 15 -23 23 -48 61 -54 82
l-13 39 40 -39 c23 -21 44 -46 48 -54z m211 -778 c0 -15 -2 -15 -10 -2 -13 20
-13 33 0 25 6 -3 10 -14 10 -23z m-11863 -1104 c-3 -8 -6 -5 -6 6 -1 11 2 17
5 13 3 -3 4 -12 1 -19z m88 -58 c3 -5 1 -10 -4 -10 -6 0 -11 5 -11 10 0 6 2
10 4 10 3 0 8 -4 11 -10z m47 -35 c-2 -19 -8 -35 -13 -35 -5 0 -9 16 -9 35 0
22 5 35 13 35 9 0 12 -11 9 -35z m31 2 c3 -8 1 -20 -4 -28 -6 -10 -9 -7 -9 14
0 29 5 35 13 14z m11273 -24 c-10 -10 -19 5 -10 18 6 11 8 11 12 0 2 -7 1 -15
-2 -18z m-11126 7 c0 -5 -4 -10 -10 -10 -5 0 -10 5 -10 10 0 6 5 10 10 10 6 0
10 -4 10 -10z m11142 -95 c9 -17 7 -16 -15 4 -15 13 -24 28 -20 34 6 9 13 1
35 -38z m-47 -35 c3 -5 -1 -10 -9 -10 -9 0 -16 5 -16 10 0 6 4 10 9 10 6 0 13
-4 16 -10z m-10752 -37 c-7 -2 -19 -2 -25 0 -7 3 -2 5 12 5 14 0 19 -2 13 -5z
m10747 -55 c0 -16 -3 -19 -11 -11 -6 6 -8 16 -5 22 11 17 16 13 16 -11z m130
-13 c11 -13 10 -14 -4 -9 -9 3 -16 10 -16 15 0 13 6 11 20 -6z m-10762 -42
c-10 -2 -26 -2 -35 0 -10 3 -2 5 17 5 19 0 27 -2 18 -5z m282 -98 c0 -8 -2
-15 -4 -15 -2 0 -12 -3 -21 -7 -15 -5 -16 -3 -6 15 13 25 31 29 31 7z m393
-92 c-7 -2 -19 -2 -25 0 -7 3 -2 5 12 5 14 0 19 -2 13 -5z m3642 -129 c13 -9
30 -12 37 -8 7 4 10 4 6 -1 -4 -4 -3 -13 2 -20 8 -9 -1 -9 -38 0 -29 8 -48 18
-50 29 -4 20 12 21 43 0z m-3325 -19 c-7 -9 -15 -13 -19 -10 -3 3 1 10 9 15
21 14 24 12 10 -5z m3855 -17 c9 -20 12 -23 9 -9 -4 16 -3 21 5 17 6 -4 11
-16 11 -26 0 -21 36 -110 45 -110 3 0 1 9 -5 19 -7 14 -7 22 2 27 6 4 8 3 4
-4 -3 -6 -2 -13 4 -17 5 -3 15 -16 21 -28 9 -17 9 -20 -1 -10 -7 6 -18 10 -24
7 -6 -2 -21 12 -34 31 -12 20 -27 33 -32 30 -5 -3 -19 8 -31 24 -14 20 -27 27
-38 23 -13 -5 -12 -2 3 13 18 18 19 18 32 0 7 -10 11 -21 9 -26 -3 -4 -1 -10
5 -14 5 -3 10 1 10 10 0 26 -19 55 -36 55 -8 0 -12 5 -9 10 12 20 35 9 50 -22z
m-4008 -15 c-3 -10 -5 -4 -5 12 0 17 2 24 5 18 2 -7 2 -21 0 -30z m3723 27
c13 -9 13 -10 0 -10 -8 0 -22 5 -30 10 -13 9 -13 10 0 10 8 0 22 -5 30 -10z
m345 0 c3 -6 -1 -7 -9 -4 -18 7 -21 14 -7 14 6 0 13 -4 16 -10z m-3480 -10
c-3 -5 -11 -10 -16 -10 -6 0 -7 5 -4 10 3 6 11 10 16 10 6 0 7 -4 4 -10z
m3575 -20 c14 -11 21 -20 15 -20 -5 0 -21 9 -35 20 -14 11 -20 20 -15 20 6 0
21 -9 35 -20z m-3557 -7 c-7 -2 -19 -2 -25 0 -7 3 -2 5 12 5 14 0 19 -2 13 -5z
m220 -23 c16 -1 -34 -29 -51 -30 -10 0 -10 5 -2 21 7 12 17 18 27 15 8 -3 20
-6 26 -6z m3627 1 c0 -4 -11 -6 -25 -3 -14 2 -25 6 -25 8 0 2 11 4 25 4 14 0
25 -4 25 -9z m90 -11 c0 -5 -4 -10 -10 -10 -5 0 -10 5 -10 10 0 6 5 10 10 10
6 0 10 -4 10 -10z m-90 -19 c16 -31 13 -34 -26 -28 -33 6 -35 5 -18 -8 18 -13
18 -14 -2 -9 -15 4 -21 13 -21 32 0 15 2 21 4 15 3 -7 9 -13 14 -13 4 0 6 7 3
15 -9 23 33 19 46 -4z m-213 -6 c9 -25 -4 -29 -17 -6 -7 15 -7 21 0 21 6 0 13
-7 17 -15z m327 -1 c3 -8 2 -12 -4 -9 -6 3 -10 2 -10 -2 0 -15 88 -96 97 -90
5 3 10 -8 11 -24 1 -16 -2 -29 -7 -29 -5 0 -37 30 -70 66 -60 64 -62 67 -44
84 10 11 19 19 19 19 1 1 5 -6 8 -15z m366 -46 l23 -31 -23 16 c-18 12 -27 14
-37 5 -7 -6 -16 -8 -19 -5 -10 10 5 39 16 32 5 -3 10 -1 10 4 0 17 4 14 30
-21z m-450 2 c0 -12 -8 -12 -35 0 -18 8 -17 9 8 9 15 1 27 -3 27 -9z m354 4
c9 -3 16 -10 16 -15 0 -15 -47 -10 -60 6 -10 12 -9 15 8 15 11 0 27 -3 36 -6z
m-66 -50 c-10 -10 -28 6 -28 24 0 15 1 15 17 -1 9 -9 14 -19 11 -23z m1557 27
c-3 -5 4 -12 15 -16 22 -7 27 -25 7 -25 -22 0 -51 26 -43 38 4 7 12 12 17 12
6 0 8 -4 4 -9z m63 -7 c-13 -13 -20 -14 -34 -4 -16 10 -16 11 -2 6 10 -3 20
-1 23 4 4 6 11 10 18 10 7 0 5 -7 -5 -16z m-2258 -26 c0 -6 -6 -5 -15 2 -8 7
-15 14 -15 16 0 2 7 1 15 -2 8 -4 15 -11 15 -16z m593 -23 c9 -18 9 -19 -6 -6
-10 7 -17 23 -16 35 0 14 2 16 6 6 3 -8 10 -24 16 -35z m120 35 c11 0 17 -8
17 -25 0 -30 -33 -35 -62 -8 -26 23 -24 47 5 39 12 -3 30 -6 40 -6z m582 0 c3
-5 1 -10 -4 -10 -6 0 -11 5 -11 10 0 6 2 10 4 10 3 0 8 -4 11 -10z m895 -38
c-20 -7 -40 7 -40 29 l0 22 26 -24 c14 -13 20 -25 14 -27z m-930 12 c0 -8 -4
-14 -10 -14 -5 0 -10 2 -10 4 0 2 -3 12 -6 20 -5 12 -2 15 10 10 9 -3 16 -12
16 -20z m-513 -16 c-3 -7 -5 -2 -5 12 0 14 2 19 5 13 2 -7 2 -19 0 -25z m479
7 c1 -8 -4 -15 -12 -15 -14 0 -19 21 -7 33 8 9 16 1 19 -18z m-236 -4 c0 -23
-37 -38 -54 -21 -8 8 -6 15 8 26 27 20 46 18 46 -5z m354 4 c3 -8 1 -15 -3
-15 -5 0 -11 7 -15 15 -3 8 -1 15 3 15 5 0 11 -7 15 -15z m-787 -17 c-3 -8 -6
-5 -6 6 -1 11 2 17 5 13 3 -3 4 -12 1 -19z m982 13 c20 -13 6 -41 -21 -42 -22
-1 -22 -1 2 -9 25 -8 25 -8 2 -9 -13 -1 -30 5 -38 13 -16 16 -19 40 -4 31 6
-3 7 1 4 9 -5 12 0 16 17 16 13 0 30 -4 38 -9z m-479 -65 l0 -31 -20 30 c-11
17 -20 39 -20 49 0 18 1 18 20 1 12 -11 20 -31 20 -49z m518 39 c0 -17 -6 -25
-17 -24 -9 0 -11 3 -5 5 7 3 10 14 7 24 -3 11 -1 20 5 20 5 0 10 -11 10 -25z
m39 -17 c-18 -12 -27 -10 -27 6 0 8 6 16 13 19 17 6 29 -16 14 -25z m4363 -23
c24 -25 41 -45 37 -45 -19 0 -85 51 -90 69 -8 31 4 26 53 -24z m-5420 28 c-1
-18 -18 -35 -24 -24 -4 6 -4 16 -1 21 7 12 25 13 25 3z m730 -2 c0 -5 3 -17 6
-26 6 -16 5 -16 -25 -1 -17 9 -29 21 -26 26 8 13 45 13 45 1z m-154 -77 l-14
-39 -8 33 c-4 21 -10 29 -14 22 -4 -7 -13 -9 -19 -5 -15 9 7 38 24 31 7 -2 18
0 26 5 20 12 21 -1 5 -47z m391 40 c-3 -3 -12 -4 -19 -1 -8 3 -5 6 6 6 11 1
17 -2 13 -5z m-443 -67 c-8 -28 -11 -30 -23 -22 -19 11 -13 38 7 30 13 -5 14
-4 5 6 -10 10 -15 9 -28 -1 -12 -10 -15 -10 -15 3 0 20 20 27 43 15 13 -7 16
-15 11 -31z"/>
<path d="M3576 8759 l-71 -72 78 69 c42 38 77 70 77 71 0 11 -22 -7 -84 -68z"/>
<path d="M2175 7799 c-4 -6 -5 -12 -2 -15 2 -3 7 2 10 11 7 17 1 20 -8 4z"/>
<path d="M1375 7730 c133 -9 292 -57 323 -97 11 -15 12 -15 12 -1 0 11 -26 27
-74 47 -104 43 -188 61 -281 59 l-80 -1 100 -7z"/>
<path d="M1248 7723 c7 -3 16 -2 19 1 4 3 -2 6 -13 5 -11 0 -14 -3 -6 -6z"/>
<path d="M1962 7650 c0 -14 2 -19 5 -12 2 6 2 18 0 25 -3 6 -5 1 -5 -13z"/>
<path d="M1735 7630 c11 -5 27 -9 35 -9 9 0 8 4 -5 9 -11 5 -27 9 -35 9 -9 0
-8 -4 5 -9z"/>
<path d="M1798 7613 c7 -3 16 -2 19 1 4 3 -2 6 -13 5 -11 0 -14 -3 -6 -6z"/>
<path d="M1740 7575 c19 -19 36 -35 39 -35 3 0 -10 16 -29 35 -19 19 -36 35
-39 35 -3 0 10 -16 29 -35z"/>
<path d="M680 7386 c0 -11 30 -66 36 -66 2 0 -3 15 -12 33 -19 36 -24 44 -24
33z"/>
<path d="M745 7260 c9 -16 18 -30 21 -30 2 0 -2 14 -11 30 -9 17 -18 30 -21
30 -2 0 2 -13 11 -30z"/>
<path d="M1398 7183 c7 -3 16 -2 19 1 4 3 -2 6 -13 5 -11 0 -14 -3 -6 -6z"/>
<path d="M1288 7173 c18 -2 45 -2 60 0 15 2 0 4 -33 4 -33 0 -45 -2 -27 -4z"/>
<path d="M323 7073 c9 -2 23 -2 30 0 6 3 -1 5 -18 5 -16 0 -22 -2 -12 -5z"/>
<path d="M403 7073 c9 -2 23 -2 30 0 6 3 -1 5 -18 5 -16 0 -22 -2 -12 -5z"/>
<path d="M481 7056 c10 -9 69 -36 69 -32 0 6 -55 36 -66 36 -4 0 -5 -2 -3 -4z"/>
<path d="M760 7026 c0 -3 9 -10 20 -16 11 -6 20 -8 20 -6 0 3 -9 10 -20 16
-11 6 -20 8 -20 6z"/>
<path d="M810 6997 c0 -2 28 -25 63 -52 34 -26 54 -39 44 -28 -18 20 -107 87
-107 80z"/>
<path d="M498 6613 c12 -2 30 -2 40 0 9 3 -1 5 -23 4 -22 0 -30 -2 -17 -4z"/>
<path d="M413 6603 c9 -2 23 -2 30 0 6 3 -1 5 -18 5 -16 0 -22 -2 -12 -5z"/>
<path d="M368 6593 c7 -3 16 -2 19 1 4 3 -2 6 -13 5 -11 0 -14 -3 -6 -6z"/>
<path d="M328 6583 c7 -3 16 -2 19 1 4 3 -2 6 -13 5 -11 0 -14 -3 -6 -6z"/>
<path d="M255 6561 c-22 -11 -35 -19 -30 -19 14 -1 93 36 80 37 -5 0 -28 -8
-50 -18z"/>
<path d="M412 6501 c-29 -10 -63 -28 -75 -40 -20 -18 -36 -21 -108 -23 l-84
-1 65 -7 c36 -4 97 -7 135 -7 64 0 66 1 21 6 -46 6 -47 7 -30 22 31 27 62 40
127 54 39 8 51 14 32 14 -16 0 -54 -8 -83 -18z"/>
<path d="M273 6393 c9 -2 25 -2 35 0 9 3 1 5 -18 5 -19 0 -27 -2 -17 -5z"/>
<path d="M228 6383 c7 -3 16 -2 19 1 4 3 -2 6 -13 5 -11 0 -14 -3 -6 -6z"/>
<path d="M188 6373 c7 -3 16 -2 19 1 4 3 -2 6 -13 5 -11 0 -14 -3 -6 -6z"/>
<path d="M2310 4626 c0 -2 8 -10 18 -17 15 -13 16 -12 3 4 -13 16 -21 21 -21
13z"/>
<path d="M2421 4593 c7 -12 15 -20 18 -17 3 2 -3 12 -13 22 -17 16 -18 16 -5
-5z"/>
<path d="M2945 4480 c-10 -11 -15 -23 -12 -27 4 -3 7 -1 7 5 0 6 6 9 14 6 8
-3 17 -1 21 5 4 7 -1 9 -12 5 -16 -5 -16 -4 1 10 11 9 15 16 9 16 -5 0 -18 -9
-28 -20z"/>
<path d="M3629 4149 l-24 -20 30 17 c39 24 40 24 28 24 -6 0 -21 -9 -34 -21z"/>
<path d="M4040 3930 c-8 -5 -10 -10 -5 -10 6 0 17 5 25 10 8 5 11 10 5 10 -5
0 -17 -5 -25 -10z"/>
<path d="M4275 3890 c-4 -6 3 -10 14 -10 25 0 27 6 6 13 -8 4 -17 2 -20 -3z"/>
<path d="M4049 3843 c-13 -16 -12 -17 4 -4 16 13 21 21 13 21 -2 0 -10 -8 -17
-17z"/>
<path d="M7921 3726 c10 -9 69 -36 69 -32 0 6 -55 36 -66 36 -4 0 -5 -2 -3 -4z"/>
<path d="M7745 3693 c6 -6 28 -20 50 -32 22 -13 31 -15 20 -6 -22 18 -86 53
-70 38z"/>
<path d="M8015 3670 c10 -11 20 -20 23 -20 3 0 -3 9 -13 20 -10 11 -20 20 -23
20 -3 0 3 -9 13 -20z"/>
<path d="M8310 3686 c0 -3 9 -10 20 -16 11 -6 20 -8 20 -6 0 3 -9 10 -20 16
-11 6 -20 8 -20 6z"/>
<path d="M8110 3660 c8 -5 20 -10 25 -10 6 0 3 5 -5 10 -8 5 -19 10 -25 10 -5
0 -3 -5 5 -10z"/>
<path d="M8190 3666 c0 -3 14 -12 30 -21 17 -9 30 -13 30 -11 0 3 -13 12 -30
21 -16 9 -30 13 -30 11z"/>
<path d="M8360 3656 c0 -3 14 -12 30 -21 17 -9 30 -13 30 -11 0 3 -13 12 -30
21 -16 9 -30 13 -30 11z"/>
<path d="M8770 3630 c8 -5 20 -10 25 -10 6 0 3 5 -5 10 -8 5 -19 10 -25 10 -5
0 -3 -5 5 -10z"/>
<path d="M8260 3626 c0 -2 8 -10 18 -17 15 -13 16 -12 3 4 -13 16 -21 21 -21
13z"/>
<path d="M8200 3616 c0 -2 7 -7 16 -10 8 -3 12 -2 9 4 -6 10 -25 14 -25 6z"/>
<path d="M8430 3617 c0 -7 72 -48 76 -44 2 2 -14 14 -36 26 -22 12 -40 20 -40
18z"/>
<path d="M8615 3570 c14 -27 28 -50 30 -50 3 0 -6 23 -20 50 -14 28 -28 50
-30 50 -3 0 6 -22 20 -50z"/>
<path d="M8825 3561 c-29 -7 -29 -7 12 -12 33 -3 39 -2 31 8 -6 7 -11 12 -12
12 0 -1 -14 -5 -31 -8z"/>
<path d="M9046 3560 c4 -8 16 -28 27 -44 11 -15 33 -51 49 -80 17 -28 27 -42
23 -31 -8 25 -60 112 -87 145 -11 14 -16 18 -12 10z"/>
<path d="M9011 3512 c17 -29 34 -52 36 -52 7 0 -41 81 -55 92 -7 7 1 -12 19
-40z"/>
<path d="M9574 3495 c1 -37 -3 -49 -12 -47 -8 1 -11 -2 -7 -8 4 -7 11 -8 18
-1 21 17 47 -13 48 -55 2 -32 3 -34 6 -10 l5 29 56 -54 c41 -39 35 -31 -22 31
-69 76 -77 88 -72 115 4 20 3 25 -3 16 -7 -11 -10 -9 -14 10 -2 13 -4 2 -3
-26z"/>
<path d="M8719 3522 c10 -18 40 -44 79 -66 8 -5 12 0 11 16 0 13 -3 17 -6 11
-8 -20 -20 -15 -59 23 -20 21 -31 28 -25 16z"/>
<path d="M8909 3521 c26 -24 41 -27 41 -9 0 6 -3 8 -7 5 -3 -4 -18 0 -32 9
l-26 15 24 -20z"/>
<path d="M9380 3537 c0 -10 51 -87 57 -87 5 0 -11 27 -44 75 -7 11 -13 16 -13
12z"/>
<path d="M9675 3470 c21 -22 41 -40 44 -40 3 0 -13 18 -34 40 -21 22 -41 40
-44 40 -3 0 13 -18 34 -40z"/>
<path d="M10796 3485 c-11 -8 -15 -15 -9 -15 6 0 16 7 23 15 16 19 11 19 -14
0z"/>
<path d="M8670 3471 c5 -11 15 -23 21 -27 6 -3 3 5 -6 20 -20 30 -30 35 -15 7z"/>
<path d="M10184 3482 c3 -6 -3 -12 -16 -15 -20 -4 -19 -4 5 -6 28 -1 36 12 15
25 -6 4 -8 3 -4 -4z"/>
<path d="M10930 3480 c0 -6 -21 -24 -47 -40 -26 -17 -42 -30 -36 -30 15 0 93
58 93 70 0 6 -2 10 -5 10 -3 0 -5 -5 -5 -10z"/>
<path d="M9360 3466 c0 -2 7 -7 16 -10 8 -3 12 -2 9 4 -6 10 -25 14 -25 6z"/>
<path d="M10734 3448 l-19 -23 25 20 c14 11 27 21 29 22 2 2 0 3 -6 3 -5 0
-18 -10 -29 -22z"/>
<path d="M10530 3450 c-12 -8 -11 -10 7 -10 12 0 30 -3 40 -6 16 -5 16 -4 -1
10 -23 19 -26 19 -46 6z"/>
<path d="M9421 3420 c29 -45 29 -45 29 -34 0 5 -12 23 -26 39 l-26 30 23 -35z"/>
<path d="M10634 3384 c-18 -14 -18 -15 4 -4 12 6 22 13 22 15 0 8 -5 6 -26
-11z"/>
<path d="M9151 3364 c0 -11 3 -14 6 -6 3 7 2 16 -1 19 -3 4 -6 -2 -5 -13z"/>
<path d="M10589 3353 c-13 -16 -12 -17 4 -4 16 13 21 21 13 21 -2 0 -10 -8
-17 -17z"/>
<path d="M9630 3335 c0 -10 40 -75 47 -75 2 0 -6 17 -18 38 -28 45 -29 47 -29
37z"/>
<path d="M11800 2900 c0 -8 5 -22 10 -30 9 -13 10 -13 10 0 0 8 -5 22 -10 30
-9 13 -10 13 -10 0z"/>
</g>
</svg>
