<?xml version="1.0" standalone="no"?>
<!DOCTYPE svg PUBLIC "-//W3C//DTD SVG 20010904//EN"
 "http://www.w3.org/TR/2001/REC-SVG-20010904/DTD/svg10.dtd">
<svg version="1.0" xmlns="http://www.w3.org/2000/svg"
 width="1020.000000pt" height="315.000000pt" viewBox="0 0 1020.000000 315.000000"
 preserveAspectRatio="xMidYMid meet">
<metadata>
Created by potrace 1.16, written by Peter Selinger 2001-2019
</metadata>
<g transform="translate(0.000000,315.000000) scale(0.100000,-0.100000)"
fill="#000000" stroke="none">
<path d="M3930 3144 c-19 -2 -78 -9 -130 -15 -136 -15 -424 -83 -575 -136
-339 -118 -420 -153 -680 -294 -208 -113 -269 -135 -400 -149 -52 -5 -111 -16
-130 -24 -30 -13 -35 -20 -35 -48 1 -18 7 -44 15 -58 8 -14 14 -29 15 -33 1
-23 -226 39 -505 138 -374 133 -575 180 -730 173 -81 -5 -102 -10 -205 -55
-155 -68 -253 -118 -325 -166 -83 -56 -209 -172 -231 -212 l-18 -33 48 -96
c26 -53 51 -96 56 -96 5 0 11 -8 14 -17 10 -29 69 -63 109 -63 35 0 195 38
255 61 15 6 68 19 117 30 50 10 131 30 180 44 153 43 335 36 531 -21 81 -23
153 -49 549 -201 72 -28 160 -60 196 -73 l67 -22 -16 -27 c-25 -44 -10 -74 78
-147 l79 -67 -15 -36 c-29 -67 -32 -76 -49 -161 -18 -89 -39 -146 -110 -295
-23 -49 -58 -124 -78 -165 -31 -66 -89 -141 -115 -152 -16 -5 -112 -138 -112
-154 0 -21 9 -18 74 26 32 22 62 40 67 40 13 0 40 -58 40 -88 0 -15 -6 -58
-15 -97 -17 -76 -20 -135 -8 -135 4 0 18 25 31 55 36 85 72 135 97 135 12 0
33 -10 48 -21 27 -21 27 -22 23 -125 -2 -58 0 -107 5 -110 12 -7 34 48 53 135
17 74 39 101 80 101 43 0 77 -36 107 -112 56 -142 80 -143 56 -2 -11 63 -14
103 -8 117 15 35 47 67 67 67 38 0 95 -81 108 -153 4 -20 11 -37 15 -37 27 0
10 200 -22 250 -9 14 -19 41 -23 60 -4 19 -18 50 -31 67 -42 55 -56 110 -44
166 5 26 10 69 10 95 0 48 52 327 63 338 3 3 38 -3 79 -14 40 -11 96 -23 123
-26 294 -35 409 -44 740 -61 123 -6 756 -61 810 -70 17 -2 116 -9 220 -15 105
-6 280 -24 390 -40 315 -46 590 -62 717 -41 l48 8 67 -71 c38 -39 85 -91 106
-114 57 -64 137 -107 274 -147 89 -26 166 -79 212 -145 23 -33 62 -74 87 -92
29 -21 61 -58 87 -102 23 -38 55 -83 73 -100 20 -20 37 -52 48 -91 10 -33 22
-67 27 -75 48 -77 86 -129 102 -140 18 -11 19 -10 13 7 -14 36 -28 122 -23
137 4 9 14 16 23 16 25 0 85 -30 129 -66 54 -43 126 -87 132 -80 3 2 -20 34
-51 70 -58 69 -71 111 -42 135 25 21 49 15 145 -37 52 -29 96 -52 98 -52 11 0
-69 84 -111 117 -38 29 -46 41 -46 68 0 18 8 43 19 56 18 22 20 23 97 11 87
-13 147 -15 157 -5 4 3 -43 22 -104 42 -87 28 -114 41 -124 61 -21 37 -18 68
5 75 11 3 20 11 20 16 0 14 75 11 125 -7 63 -21 75 -13 28 18 -54 36 -122 57
-217 69 -45 5 -92 14 -106 19 -14 5 -45 8 -70 7 -38 -1 -59 6 -123 42 -42 25
-103 67 -135 94 -31 26 -109 85 -172 130 -63 44 -159 114 -214 155 -83 63 -96
76 -81 84 9 6 25 18 35 28 26 26 188 61 330 71 342 23 653 -2 1000 -81 118
-26 265 -54 325 -60 61 -6 164 -20 230 -31 66 -11 199 -26 295 -34 96 -8 247
-22 335 -30 151 -15 792 -58 1045 -71 63 -3 183 -11 265 -18 83 -7 156 -11
163 -9 14 6 17 49 3 57 -11 7 -196 31 -823 106 -515 61 -1510 209 -1544 229
-16 9 -303 80 -449 111 -81 17 -499 170 -539 197 l-41 28 109 7 c142 10 179
31 141 84 -10 15 -30 23 -70 28 -109 12 -98 4 -460 374 -214 220 -420 377
-705 539 -296 167 -769 313 -1195 367 -344 44 -607 68 -675 60z"/>
</g>
</svg>
