<?xml version="1.0" standalone="no"?>
<!DOCTYPE svg PUBLIC "-//W3C//DTD SVG 20010904//EN"
 "http://www.w3.org/TR/2001/REC-SVG-20010904/DTD/svg10.dtd">
<svg version="1.0" xmlns="http://www.w3.org/2000/svg"
 width="1175.000000pt" height="442.000000pt" viewBox="0 0 1175.000000 442.000000"
 preserveAspectRatio="xMidYMid meet">
<metadata>
Created by potrace 1.16, written by Peter Selinger 2001-2019
</metadata>
<g transform="translate(0.000000,442.000000) scale(0.100000,-0.100000)"
fill="#000000" stroke="none">
<path d="M8180 4384 c-25 -7 -74 -14 -108 -14 -56 0 -75 -6 -155 -47 -152 -78
-280 -153 -308 -179 -14 -13 -29 -24 -35 -24 -5 0 -47 -23 -94 -51 -47 -29
-110 -65 -140 -81 -30 -17 -58 -34 -61 -39 -3 -5 -50 -39 -105 -75 -91 -60
-102 -65 -139 -59 -22 3 -81 8 -131 11 -79 5 -99 3 -139 -15 -26 -12 -58 -21
-71 -21 -13 0 -35 -5 -49 -12 -21 -9 -40 -8 -98 6 -40 9 -101 24 -137 32 -36
8 -81 19 -100 24 -19 5 -93 23 -165 40 -71 17 -157 38 -190 46 -33 9 -98 24
-145 34 -164 36 -186 43 -300 90 -64 27 -145 54 -180 60 -75 13 -128 24 -185
39 -158 40 -774 62 -905 33 -30 -7 -167 -17 -305 -23 -137 -5 -272 -14 -298
-19 -26 -6 -114 -13 -195 -16 -81 -3 -176 -11 -212 -19 -55 -12 -633 -38 -695
-32 -25 2 -158 -11 -245 -24 -36 -5 -130 -14 -210 -20 -281 -19 -418 -42 -590
-99 -109 -37 -334 -131 -355 -149 -37 -31 -100 -69 -142 -86 -42 -17 -56 -17
-155 1 -34 5 -41 3 -68 -26 -17 -18 -32 -43 -35 -56 -3 -13 -7 -35 -10 -48 -6
-32 -88 -108 -150 -141 -27 -15 -70 -44 -96 -66 -26 -22 -89 -61 -139 -88 -56
-30 -114 -70 -151 -106 -65 -63 -149 -174 -149 -196 0 -8 11 -31 25 -51 30
-45 31 -79 4 -138 -27 -58 -59 -182 -59 -229 0 -91 41 -166 159 -290 39 -41
71 -79 71 -84 0 -5 26 -35 58 -66 31 -32 79 -84 106 -115 46 -54 172 -146 199
-146 7 0 51 -14 98 -31 46 -17 117 -35 158 -40 87 -10 275 -59 381 -100 41
-16 97 -33 124 -39 27 -6 58 -15 68 -21 11 -6 65 -15 119 -20 100 -8 149 -25
214 -74 17 -12 40 -25 52 -29 11 -4 24 -13 26 -21 3 -7 26 -22 50 -33 46 -20
277 -244 277 -268 0 -33 250 -296 414 -436 44 -38 87 -80 96 -94 10 -14 28
-32 41 -41 13 -9 47 -33 74 -54 28 -20 70 -45 95 -55 25 -10 66 -32 92 -50 27
-18 63 -37 81 -43 18 -6 87 -40 153 -74 65 -34 135 -69 154 -76 19 -8 50 -23
68 -33 35 -22 155 -66 317 -120 58 -19 162 -39 325 -63 270 -40 533 -34 840
20 74 13 169 28 210 34 41 7 99 23 129 36 29 14 60 25 67 25 25 0 256 81 314
111 32 16 61 29 65 29 4 0 54 23 112 50 58 28 108 50 112 50 3 0 24 12 46 27
22 15 65 40 96 55 31 16 76 46 100 67 24 21 58 45 74 54 34 17 146 132 220
227 28 35 64 75 80 89 66 55 195 192 195 205 0 8 16 33 35 56 19 23 35 45 35
49 0 12 131 106 200 143 121 66 161 88 185 104 32 21 66 12 87 -23 19 -31 146
-164 192 -201 33 -26 127 -93 190 -134 22 -15 88 -48 145 -74 57 -25 118 -56
136 -68 18 -13 46 -27 61 -33 16 -6 74 -27 129 -48 147 -54 217 -65 379 -55
119 8 141 12 180 35 107 63 97 188 -37 453 -24 48 -29 72 -34 170 -6 114 -6
115 -48 176 -30 44 -54 68 -88 84 -54 28 -130 106 -125 130 8 39 113 66 323
83 66 5 149 16 185 23 36 8 94 18 130 22 35 3 91 17 125 29 33 13 109 30 169
39 60 9 147 26 194 37 143 35 282 12 449 -75 38 -19 95 -47 128 -61 33 -15 78
-35 100 -45 22 -10 96 -37 165 -60 69 -24 136 -49 150 -56 14 -7 66 -27 115
-43 50 -16 106 -36 125 -44 19 -9 76 -27 125 -40 50 -14 135 -39 190 -55 55
-17 163 -42 240 -57 77 -15 156 -31 175 -36 19 -4 60 -10 90 -13 54 -4 56 -3
97 41 23 25 49 65 57 91 22 67 37 183 36 282 -1 69 -5 89 -21 106 -25 27 -24
62 3 91 18 19 22 36 23 96 0 43 -5 83 -13 101 -11 23 -12 37 -2 72 10 34 10
47 1 58 -8 9 -10 35 -5 78 6 62 5 66 -21 86 -21 17 -26 28 -22 49 4 22 -3 38
-35 76 l-41 48 13 71 c11 55 11 79 2 114 -7 24 -12 68 -12 98 0 33 -5 58 -14
65 -7 6 -16 42 -19 86 -7 80 -36 162 -68 191 -12 11 -19 30 -19 53 0 20 -9 51
-20 69 -11 18 -20 39 -20 48 0 9 -17 33 -37 54 -21 21 -55 57 -77 80 -21 22
-49 43 -62 46 -30 8 -247 -49 -364 -96 -30 -12 -71 -26 -90 -31 -19 -6 -80
-32 -135 -59 -55 -26 -131 -62 -170 -80 -38 -17 -88 -40 -110 -50 -93 -44
-132 -60 -146 -60 -8 0 -23 -6 -34 -14 -11 -7 -31 -17 -45 -21 -13 -4 -63 -33
-110 -64 -106 -70 -118 -77 -155 -95 -16 -8 -73 -38 -125 -66 -105 -56 -143
-73 -240 -100 -59 -17 -85 -18 -295 -10 -187 7 -241 12 -290 28 -69 23 -234
62 -263 62 -10 0 -54 9 -97 20 -43 11 -92 20 -108 20 -16 0 -65 12 -108 27
-94 32 -98 43 -35 108 36 38 44 54 49 98 4 28 16 64 27 79 25 33 70 152 70
184 0 12 5 26 10 29 6 4 19 23 29 44 19 35 25 127 21 286 -3 117 0 146 15 151
49 19 51 120 3 168 -56 55 -280 85 -388 50z"/>
</g>
</svg>
