<?xml version="1.0" standalone="no"?>
<!DOCTYPE svg PUBLIC "-//W3C//DTD SVG 20010904//EN"
 "http://www.w3.org/TR/2001/REC-SVG-20010904/DTD/svg10.dtd">
<svg version="1.0" xmlns="http://www.w3.org/2000/svg"
 width="1536.000000pt" height="1342.000000pt" viewBox="0 0 1536.000000 1342.000000"
 preserveAspectRatio="xMidYMid meet">
<metadata>
Created by potrace 1.16, written by Peter Selinger 2001-2019
</metadata>
<g transform="translate(0.000000,1342.000000) scale(0.100000,-0.100000)"
fill="#000000" stroke="none">
<path d="M13827 13400 c-32 -10 -76 -30 -97 -44 -35 -23 -45 -25 -102 -19
-105 9 -228 -31 -306 -101 -20 -18 -55 -39 -77 -46 -49 -16 -102 -49 -134 -84
-18 -19 -34 -26 -61 -26 -105 0 -236 -75 -299 -173 -45 -69 -48 -72 -112 -120
-30 -22 -62 -37 -94 -42 -121 -18 -229 -85 -289 -178 -28 -43 -42 -55 -84 -70
-53 -18 -147 -95 -171 -140 -9 -17 -27 -29 -55 -36 -126 -31 -238 -166 -265
-318 -10 -54 -18 -68 -64 -115 -29 -30 -63 -77 -76 -105 -22 -49 -25 -51 -71
-57 -115 -15 -253 -125 -300 -239 -20 -49 -27 -56 -64 -67 -127 -38 -233 -135
-270 -248 l-17 -49 -74 -6 c-89 -6 -182 -47 -242 -105 -22 -21 -60 -48 -85
-61 -92 -44 -161 -120 -198 -219 l-18 -46 -70 -12 c-125 -21 -218 -83 -289
-191 -18 -29 -40 -53 -47 -53 -32 0 -138 -65 -180 -110 -48 -52 -91 -130 -102
-188 -5 -24 -13 -34 -33 -38 -100 -22 -161 -56 -224 -123 -45 -48 -89 -123
-100 -172 -6 -22 -14 -27 -73 -38 -113 -21 -203 -78 -265 -168 -35 -51 -69
-143 -69 -188 0 -29 -4 -32 -54 -48 -75 -24 -164 -92 -206 -159 -34 -54 -36
-56 -91 -62 -110 -13 -226 -87 -288 -185 -29 -45 -36 -49 -98 -65 -124 -30
-216 -103 -271 -213 -22 -44 -30 -52 -61 -58 -58 -11 -147 -64 -197 -117 -50
-53 -93 -138 -101 -198 -5 -37 -6 -38 -62 -49 -149 -30 -262 -126 -311 -264
l-18 -52 -62 -12 c-125 -26 -209 -80 -270 -174 -20 -32 -42 -77 -49 -101 l-12
-43 -82 -1 c-176 -3 -321 -106 -377 -267 -16 -46 -24 -55 -66 -75 -27 -13 -66
-35 -86 -49 -32 -22 -41 -24 -70 -14 -114 36 -248 17 -351 -52 -109 -74 -173
-184 -184 -319 -5 -53 -9 -68 -22 -68 -24 0 -116 -46 -156 -77 -50 -40 -103
-120 -124 -189 l-19 -59 -61 -7 c-70 -8 -148 -41 -206 -87 -48 -39 -110 -128
-126 -181 -11 -37 -29 -50 -71 -50 -36 0 -130 -43 -177 -80 -57 -45 -106 -112
-131 -179 l-18 -45 -71 -12 c-39 -7 -92 -22 -118 -35 -61 -29 -154 -121 -178
-176 -18 -41 -20 -42 -74 -48 -134 -15 -230 -69 -303 -170 -26 -35 -37 -41
-90 -52 -168 -34 -290 -157 -321 -322 l-11 -60 -57 -21 c-91 -33 -181 -119
-218 -208 -11 -26 -18 -29 -91 -38 -184 -25 -316 -147 -351 -324 l-11 -57 -57
-17 c-141 -44 -255 -167 -277 -297 -6 -35 -7 -36 -72 -48 -162 -30 -287 -145
-327 -301 l-11 -45 -67 -7 c-130 -13 -255 -96 -311 -206 l-23 -46 -115 0
c-111 -1 -116 -2 -190 -39 -109 -53 -192 -154 -213 -257 -13 -68 -12 -67 -76
-73 -172 -15 -327 -170 -347 -345 -7 -60 -9 -64 -57 -100 -134 -101 -193 -269
-154 -439 11 -46 10 -51 -20 -98 -90 -146 -76 -345 34 -479 42 -52 42 -53 47
-147 3 -80 9 -104 35 -162 36 -76 108 -153 170 -180 34 -16 42 -26 58 -75 38
-111 130 -206 241 -248 38 -15 45 -22 55 -58 49 -183 222 -316 413 -316 27 0
36 -7 64 -55 39 -65 97 -115 178 -152 50 -23 77 -28 174 -33 69 -3 125 -11
140 -19 38 -22 120 -41 175 -41 98 1 192 35 263 96 26 22 50 34 70 34 93 0
224 72 290 160 22 29 48 50 75 61 66 25 105 47 147 85 44 40 95 116 105 157 9
33 11 34 80 52 122 32 220 111 273 219 17 36 40 67 50 70 31 10 109 91 141
148 17 29 36 76 42 105 12 50 13 52 58 63 111 28 228 128 270 233 l22 55 82 4
c94 6 158 30 226 85 50 42 116 139 126 186 10 45 23 57 59 57 79 0 210 69 266
140 36 46 76 131 85 182 6 32 14 40 60 62 63 31 143 114 178 183 24 47 29 51
72 56 95 14 219 94 260 171 19 34 22 36 71 36 141 0 305 102 354 220 9 22 29
38 74 59 72 35 137 96 177 167 26 46 34 52 71 58 148 24 280 162 311 327 10
55 14 61 56 88 37 23 60 30 122 33 145 9 277 98 339 230 17 35 30 68 30 74 0
7 30 13 78 16 126 7 246 79 308 183 24 41 28 44 91 55 108 18 197 71 259 151
11 15 35 34 54 44 90 46 162 133 195 233 10 29 23 52 31 52 44 0 131 47 192
105 58 53 74 63 115 68 97 13 197 72 252 147 28 38 46 51 94 69 73 26 152 95
192 166 l29 52 63 5 c80 7 158 43 224 102 55 50 109 143 119 207 5 29 13 40
40 53 19 8 54 34 78 56 31 29 52 40 74 40 147 0 305 97 367 225 24 49 29 53
83 68 109 30 222 134 258 237 25 70 27 73 80 85 154 35 270 150 306 305 11 46
13 49 56 60 181 45 312 221 312 418 0 31 2 34 23 27 12 -4 51 -14 87 -22 168
-38 357 52 435 208 15 30 43 75 61 100 18 25 42 66 53 91 18 42 22 46 65 52
99 15 228 109 277 202 12 22 31 36 75 52 70 26 121 66 174 137 33 44 45 53 80
59 135 22 282 167 305 304 5 32 13 41 51 61 24 13 68 48 98 78 43 44 63 56
112 69 100 26 201 97 239 168 16 30 24 35 70 41 120 15 242 104 300 219 29 56
32 59 85 73 150 38 264 164 292 323 9 56 11 58 45 65 147 27 279 159 315 315
11 46 15 51 67 76 31 16 80 53 111 84 45 46 63 58 98 64 97 15 210 98 264 193
20 35 34 50 44 46 21 -8 143 16 193 38 61 27 123 80 157 134 23 35 41 49 83
67 69 28 158 115 194 189 15 30 33 84 39 120 10 53 19 72 54 110 121 132 147
315 68 473 l-25 50 22 50 c17 37 24 77 27 147 4 85 1 102 -22 161 -26 64 -26
66 -10 109 24 63 24 208 1 276 -23 67 -85 152 -135 186 -36 26 -40 33 -51 98
-6 39 -23 93 -37 121 -31 61 -100 138 -148 163 -33 18 -34 19 -38 99 -4 58
-12 97 -31 139 -52 114 -181 216 -295 233 -39 5 -57 16 -104 61 -32 29 -81 65
-110 78 -57 26 -152 45 -208 43 -19 -1 -62 6 -95 15 -76 22 -155 21 -228 -3z
m213 -153 c14 -6 68 -13 120 -17 108 -7 152 -24 202 -77 90 -97 84 -93 135
-93 86 -1 182 -61 223 -140 25 -49 33 -116 21 -172 -16 -69 -1 -94 74 -128
109 -49 146 -104 153 -227 5 -91 6 -92 91 -151 108 -73 143 -209 86 -330 -14
-30 -25 -60 -25 -68 0 -7 14 -40 31 -73 53 -102 49 -197 -13 -294 -33 -52 -33
-77 3 -118 39 -43 60 -105 60 -174 0 -100 -27 -148 -125 -228 -26 -21 -29 -31
-36 -103 -4 -43 -15 -95 -25 -114 -35 -69 -98 -118 -171 -134 -37 -8 -54 -25
-82 -81 -23 -46 -52 -75 -102 -101 -28 -15 -57 -19 -143 -19 -121 0 -128 -3
-147 -76 -13 -47 -46 -95 -90 -130 -33 -27 -79 -42 -163 -54 -31 -5 -44 -15
-78 -61 -46 -63 -82 -88 -155 -110 -67 -19 -80 -36 -88 -111 -15 -154 -99
-237 -253 -252 -100 -9 -107 -18 -113 -135 -5 -81 -9 -100 -36 -142 -39 -64
-101 -102 -190 -115 -80 -13 -100 -27 -115 -83 -35 -131 -108 -189 -252 -204
-67 -7 -73 -9 -92 -40 -52 -85 -82 -118 -134 -144 -30 -16 -69 -28 -86 -28
-58 0 -91 -19 -124 -71 -32 -49 -90 -91 -143 -104 -41 -10 -61 -40 -70 -105
-9 -71 -28 -112 -72 -158 -42 -46 -77 -62 -154 -73 -76 -11 -86 -17 -117 -79
-13 -26 -39 -60 -57 -76 -34 -30 -52 -38 -138 -65 -41 -13 -48 -19 -79 -83
-27 -53 -44 -75 -80 -97 -55 -35 -100 -49 -163 -49 -58 0 -84 -22 -94 -77 -8
-47 -35 -100 -70 -143 -15 -17 -39 -57 -54 -89 -31 -65 -70 -102 -135 -126
-58 -23 -154 -16 -212 14 -44 22 -98 28 -108 11 -3 -5 -27 -21 -54 -35 -62
-34 -71 -56 -64 -143 7 -88 -14 -156 -66 -209 -48 -50 -95 -72 -177 -82 -83
-10 -104 -30 -104 -100 0 -147 -111 -261 -253 -261 -51 0 -62 -4 -88 -29 -22
-22 -29 -39 -29 -68 -1 -108 -97 -213 -212 -229 -83 -11 -95 -20 -124 -96 -49
-128 -123 -177 -265 -178 l-87 0 -45 -54 c-30 -34 -66 -62 -99 -78 -68 -32
-77 -44 -88 -111 -15 -95 -59 -160 -135 -200 -31 -16 -60 -22 -129 -23 -102
-2 -115 -11 -138 -86 -6 -22 -30 -61 -52 -85 -33 -36 -55 -50 -111 -68 -66
-21 -73 -26 -115 -86 -57 -79 -111 -110 -208 -117 -76 -5 -86 -10 -122 -65
-34 -52 -101 -94 -168 -107 -85 -16 -106 -29 -115 -75 -28 -133 -61 -184 -149
-227 -40 -19 -66 -41 -88 -73 -47 -68 -105 -97 -204 -103 -44 -2 -89 -8 -98
-13 -9 -5 -28 -35 -43 -66 -31 -68 -65 -107 -120 -136 -34 -19 -57 -22 -152
-22 -100 0 -114 -2 -127 -20 -9 -11 -16 -32 -16 -46 -1 -106 -83 -215 -185
-244 -40 -12 -73 -15 -113 -10 -54 6 -60 5 -97 -25 -44 -35 -95 -64 -101 -57
-2 2 1928 1584 4290 3515 2362 1932 4321 3542 4355 3577 319 341 425 821 281
1270 -57 175 -154 336 -291 480 -184 192 -407 315 -679 372 -102 21 -350 24
-450 4 -181 -34 -392 -122 -522 -218 -33 -25 -986 -802 -2117 -1727 -1131
-925 -2063 -1686 -2070 -1691 -22 -13 -9 121 17 171 24 47 81 100 128 120 19
8 67 14 109 14 42 0 85 4 95 10 20 11 35 51 45 122 3 25 18 64 33 86 50 75
109 107 215 118 82 8 96 22 107 106 16 135 73 196 220 240 40 12 48 19 75 71
62 119 122 156 253 157 120 0 116 -4 153 142 16 66 69 125 144 158 36 16 71
40 83 57 48 68 151 98 269 79 47 -7 54 -6 76 16 17 17 26 41 31 79 14 114 103
211 205 224 70 9 109 30 117 62 35 158 128 241 272 243 65 0 84 17 106 94 16
56 36 79 136 168 27 24 30 32 30 90 0 135 72 221 217 258 35 9 47 19 68 55 34
57 83 100 132 115 84 26 95 33 113 75 41 97 122 150 238 158 58 4 67 8 105 44
23 23 60 50 83 61 33 17 47 33 73 87 48 97 129 145 246 145 47 0 54 3 95 46
50 51 78 68 130 79 21 5 56 27 87 55 64 59 118 75 211 66 102 -11 109 -10 143
18 83 70 182 89 269 53z m-5240 -4031 c0 -5 -209 -176 -215 -176 -8 0 24 60
51 96 24 33 114 84 146 84 10 0 18 -2 18 -4z m-295 -245 c-6 -5 -226 -186
-490 -401 l-480 -393 -3 39 c-5 59 17 120 60 169 50 56 78 71 158 84 76 12 95
28 114 95 30 101 127 176 228 176 75 0 95 13 124 77 49 111 122 162 234 163
38 0 60 -4 55 -9z m-1075 -875 c0 -4 -222 -187 -279 -230 -12 -9 -13 -5 -7 29
16 85 81 164 157 191 32 12 129 19 129 10z m-405 -335 c-6 -5 -68 -57 -140
-115 -138 -113 -153 -117 -120 -30 24 63 61 103 120 130 49 23 161 35 140 15z
m-422 -319 c16 -7 15 -10 -10 -33 -15 -15 -993 -815 -2173 -1779 -1180 -965
-2169 -1774 -2198 -1798 -48 -41 -52 -43 -42 -18 5 15 10 46 10 68 0 61 19
113 58 158 45 54 99 79 178 87 94 9 107 22 110 116 3 99 35 173 94 216 62 44
102 55 191 48 92 -7 122 8 134 70 20 107 96 182 208 204 79 16 97 35 97 102 0
118 58 219 147 259 23 10 73 21 110 25 79 7 88 12 115 70 27 57 96 117 153
133 28 8 70 11 110 7 81 -8 107 10 130 89 19 67 73 130 135 157 34 15 65 20
127 19 103 -2 120 10 133 90 23 144 118 227 261 228 86 0 108 17 120 88 24
155 139 244 293 227 87 -9 111 10 120 97 8 78 46 160 91 194 39 29 113 54 162
54 23 0 42 8 59 25 23 24 25 30 18 78 -11 84 -5 139 22 194 28 59 69 97 133
126 57 25 156 20 223 -11 26 -12 54 -22 63 -22 9 0 39 22 67 50 40 40 63 54
119 70 77 23 93 40 103 108 19 126 121 212 251 211 33 0 68 -4 78 -7z m-4453
-3666 c0 -2 -35 -32 -77 -66 -43 -35 -125 -102 -182 -149 l-104 -85 5 65 c6
73 23 113 69 158 51 52 86 65 189 71 52 4 96 7 98 8 1 1 2 0 2 -2z m3911 -103
c-5 -10 -9 -44 -10 -75 -1 -101 -48 -180 -133 -222 -31 -16 -69 -26 -94 -26
-64 0 -91 -17 -110 -67 -41 -107 -86 -148 -210 -193 -25 -9 -37 -23 -52 -61
-30 -71 -65 -112 -124 -145 -49 -26 -60 -29 -146 -27 -106 2 -108 1 -154 -85
-43 -80 -141 -139 -215 -130 -22 2 78 88 613 525 352 288 640 523 642 523 1 0
-1 -8 -7 -17z m-4389 -262 c26 -6 -4 -32 -388 -345 -424 -347 -542 -456 -625
-582 -317 -476 -286 -1079 79 -1525 372 -453 1034 -588 1556 -317 117 62 170
102 751 577 292 239 535 438 541 443 8 6 9 -6 2 -44 -24 -132 -109 -210 -245
-227 -80 -9 -103 -31 -103 -96 0 -100 -55 -196 -134 -235 -55 -26 -59 -32 -86
-102 -37 -100 -134 -168 -238 -168 -84 0 -94 -10 -127 -125 -23 -78 -88 -148
-155 -164 -87 -21 -95 -26 -132 -82 -20 -31 -51 -68 -68 -82 -37 -31 -117 -57
-177 -57 -38 0 -50 -6 -92 -45 -61 -57 -110 -77 -187 -77 -60 0 -73 5 -171 56
-26 14 -39 15 -70 7 -135 -38 -276 32 -317 157 -26 78 -48 91 -149 85 -71 -5
-90 -2 -135 17 -56 24 -116 83 -138 135 -7 19 -17 58 -20 89 -8 67 -22 81
-100 102 -32 8 -76 26 -97 40 -45 30 -94 103 -103 153 -12 73 -23 88 -82 112
-114 46 -182 153 -168 263 3 28 9 66 12 84 6 30 1 37 -54 90 -71 68 -93 115
-94 198 0 71 23 131 71 186 38 44 40 66 12 145 -25 74 -26 102 -5 172 19 66
68 121 139 157 61 30 62 32 68 140 10 169 127 266 300 248 53 -5 66 -3 86 13
21 17 25 30 27 84 5 101 22 148 75 201 80 80 190 97 305 47 44 -20 49 -20 80
-5 22 10 36 25 40 43 18 84 39 129 80 169 60 61 150 85 236 65z m3002 -903
c-32 -65 -122 -138 -168 -138 -8 0 -27 -10 -42 -23 -21 -19 -29 -36 -35 -88
-12 -83 -44 -146 -97 -186 -53 -40 -98 -53 -188 -53 -87 0 -102 -13 -114 -98
-24 -171 -159 -261 -327 -220 l-53 13 517 423 c285 232 519 418 521 413 2 -5
-4 -25 -14 -43z"/>
</g>
</svg>
