<?xml version="1.0" standalone="no"?>
<!DOCTYPE svg PUBLIC "-//W3C//DTD SVG 20010904//EN"
 "http://www.w3.org/TR/2001/REC-SVG-20010904/DTD/svg10.dtd">
<svg version="1.0" xmlns="http://www.w3.org/2000/svg"
 width="1536.000000pt" height="1374.000000pt" viewBox="0 0 1536.000000 1374.000000"
 preserveAspectRatio="xMidYMid meet">
<metadata>
Created by potrace 1.16, written by Peter Selinger 2001-2019
</metadata>
<g transform="translate(0.000000,1374.000000) scale(0.100000,-0.100000)"
fill="#000000" stroke="none">
<path d="M13605 13729 c-221 -29 -469 -130 -638 -258 -90 -68 -12457 -10789
-12550 -10880 -111 -108 -198 -227 -267 -366 -111 -223 -144 -367 -144 -620 0
-183 13 -278 60 -422 34 -106 121 -283 182 -368 68 -96 323 -386 406 -462 172
-157 392 -268 647 -325 145 -32 405 -32 556 0 184 40 370 121 517 227 40 28
612 520 1272 1091 659 572 3451 2992 6204 5378 2753 2386 5047 4379 5098 4430
156 154 272 338 340 543 53 157 66 248 66 443 0 185 -15 284 -64 430 -33 98
-122 276 -178 355 -71 100 -305 367 -397 453 -175 163 -400 279 -648 333 -107
23 -354 33 -462 18z m375 -154 c236 -39 470 -152 639 -310 67 -62 309 -339
366 -420 224 -313 284 -730 160 -1102 -64 -190 -147 -326 -289 -470 -65 -65
-11976 -10400 -12486 -10833 -464 -395 -1167 -384 -1617 25 -56 51 -248 265
-346 386 -240 297 -320 742 -201 1121 59 189 156 350 292 488 69 70 12355
10728 12533 10873 145 118 378 217 575 246 97 14 272 12 374 -4z"/>
<path d="M13576 13454 c-150 -29 -294 -91 -420 -178 -97 -67 -12500 -10822
-12591 -10917 -129 -136 -221 -303 -268 -488 -19 -74 -22 -112 -21 -271 0
-158 3 -197 22 -263 55 -200 132 -335 302 -532 209 -244 315 -337 465 -414
163 -84 321 -121 510 -121 232 0 437 62 625 190 63 43 67 47 1311 1125 514
445 3236 2805 6049 5244 2813 2438 5152 4470 5198 4515 219 214 332 483 332
791 0 230 -55 418 -179 607 -52 80 -209 267 -325 387 -169 175 -365 282 -598
326 -99 19 -317 18 -412 -1z m-5582 -5605 c27 -8 66 -37 131 -99 132 -125 171
-133 329 -70 91 36 111 34 154 -15 39 -44 49 -81 63 -230 28 -294 -22 -592
-116 -703 -55 -64 -89 -72 -287 -71 -166 0 -172 0 -226 -27 -56 -27 -106 -73
-230 -207 -82 -90 -129 -111 -242 -112 -81 0 -90 2 -195 50 -130 59 -181 104
-216 191 -35 87 -33 233 4 367 51 186 168 440 276 600 166 246 383 374 555
326z"/>
</g>
</svg>
