<?xml version="1.0" encoding="UTF-8" standalone="no"?>
<!-- Created with Inkscape (http://www.inkscape.org/) -->

<svg
   xmlns:svg="http://www.w3.org/2000/svg"
   xmlns="http://www.w3.org/2000/svg"
   version="1.0"
   width="1600pt"
   height="800pt"
   viewBox="0 0 1600 800"
   id="svg2">
  <defs
     id="defs12" />
  <g
     transform="matrix(0.1,0,0,-0.1,0,800)"
     id="g6"
     style="fill:#000000;stroke:none">
    <path
       d="m 2349,7952 c -31,-27 -34,-35 -37,-101 -2,-40 -7,-70 -11,-69 -255,136 -381,102 -381,-102 0,-68 25,-174 50,-216 l 18,-32 -46,-17 c -26,-10 -78,-33 -115,-52 -38,-19 -104,-47 -148,-63 -129,-48 -158,-67 -279,-189 l -116,-116 -190,-63 c -237,-79 -481,-177 -569,-228 -36,-21 -97,-56 -133,-77 -75,-43 -164,-125 -187,-173 -22,-47 -18,-125 10,-210 25,-74 70,-154 86,-154 5,0 18,-18 29,-40 25,-48 103,-112 167,-136 26,-10 64,-33 83,-52 71,-68 200,-113 437,-153 75,-12 537,-12 673,1 58,5 213,13 345,16 l 240,7 95,-27 c 116,-33 305,-122 380,-179 175,-132 471,-426 576,-572 135,-187 293,-435 315,-493 31,-81 94,-202 105,-202 8,0 27,-27 44,-60 17,-33 35,-60 40,-60 5,0 23,-30 40,-66 17,-38 37,-68 47,-70 30,-8 53,-61 74,-169 23,-123 121,-427 174,-542 l 38,-83 -79,-82 c -43,-46 -110,-112 -149,-147 -38,-36 -162,-153 -275,-260 -145,-139 -268,-244 -420,-360 -544,-417 -815,-651 -914,-789 -31,-42 -78,-108 -106,-147 -91,-125 -218,-348 -261,-455 -68,-174 -96,-373 -68,-486 6,-25 19,-50 28,-57 9,-7 27,-39 40,-72 32,-78 61,-124 108,-170 62,-61 103,-66 103,-14 0,16 5,29 11,29 16,0 89,77 89,94 0,24 17,28 59,15 55,-16 73,-1 70,60 -2,58 9,101 26,101 8,0 17,10 20,21 5,16 9,18 15,8 15,-23 39,9 46,62 4,32 11,49 21,49 18,0 33,41 33,91 0,21 5,39 10,39 6,0 10,14 10,30 0,17 3,29 8,28 14,-5 100,88 141,152 23,35 49,86 59,112 13,39 35,66 104,129 49,44 109,97 135,118 27,21 93,83 149,137 56,54 138,126 183,158 99,71 443,250 597,311 62,24 177,73 256,109 80,36 185,80 234,97 112,40 238,96 343,154 45,25 102,50 126,55 49,11 132,47 140,61 3,4 20,5 39,2 34,-5 82,13 105,41 8,9 25,16 39,16 15,0 37,13 58,35 50,54 66,47 99,-37 15,-40 58,-143 95,-228 143,-327 230,-559 285,-762 50,-182 56,-217 62,-333 6,-145 -9,-320 -35,-404 -16,-51 -20,-56 -72,-79 -30,-13 -82,-28 -115,-34 -70,-11 -128,-35 -169,-69 -80,-68 -106,-92 -106,-100 0,-5 -15,-29 -34,-53 -37,-49 -61,-109 -52,-131 3,-8 16,-15 28,-15 14,0 30,-11 42,-28 18,-27 22,-29 110,-31 50,-1 109,-7 131,-13 44,-13 182,-12 511,1 237,9 261,16 319,83 60,71 65,90 66,260 0,84 4,176 8,203 28,171 34,204 47,245 28,83 45,234 35,307 -9,67 -51,246 -117,498 -19,72 -57,229 -84,350 -27,121 -59,254 -70,295 -28,109 -80,379 -80,420 0,20 -6,59 -13,87 -11,42 -11,50 0,46 16,-6 18,34 3,73 -8,20 -8,29 0,34 9,5 8,19 0,51 -7,24 -14,60 -15,79 -2,19 -5,49 -7,66 -4,32 -4,32 52,38 30,4 107,20 170,36 63,16 165,41 225,56 239,58 565,175 1033,373 353,149 362,151 536,151 156,0 243,-10 357,-41 l 76,-20 7,-72 c 4,-40 11,-126 16,-192 8,-93 16,-131 35,-170 30,-61 77,-176 165,-405 37,-96 108,-265 157,-375 50,-110 120,-273 156,-362 37,-89 116,-274 176,-410 198,-451 218,-526 167,-633 -27,-58 -59,-117 -89,-162 -10,-15 -66,-70 -125,-123 C 9187,833 9093,784 8905,740 8686,688 8548,648 8484,619 8380,570 8192,398 8148,311 c -26,-54 -27,-81 -3,-81 8,0 17,-9 20,-20 3,-11 11,-20 16,-20 6,0 17,-6 24,-14 17,-16 73,-25 205,-30 52,-3 129,-12 170,-22 67,-15 113,-16 424,-10 352,7 472,18 533,49 16,9 88,78 159,154 71,75 213,221 316,323 264,263 369,378 408,451 29,55 34,75 37,148 2,46 -1,99 -8,118 -8,25 -8,37 1,48 8,10 7,22 -6,52 -9,21 -16,42 -15,47 3,13 -19,66 -39,96 -10,14 -47,113 -83,220 -85,255 -117,413 -137,675 -9,128 -8,157 16,340 42,327 57,399 105,490 40,77 120,198 138,210 5,3 21,-15 35,-39 65,-111 319,-420 486,-591 97,-99 223,-234 280,-300 93,-106 151,-169 396,-425 34,-36 88,-95 120,-132 33,-37 135,-150 228,-253 170,-187 228,-258 280,-349 26,-45 29,-60 32,-155 3,-128 -18,-218 -76,-336 -81,-163 -150,-233 -275,-279 -157,-58 -327,-163 -412,-253 -90,-96 -116,-163 -63,-163 13,0 20,-7 20,-19 0,-10 7,-24 15,-31 18,-15 125,-32 235,-37 47,-2 159,-9 250,-14 223,-13 262,-9 375,45 90,42 335,201 335,216 0,4 9,10 19,13 24,6 62,79 90,177 37,126 146,410 210,550 71,153 105,271 97,334 -4,28 -8,68 -9,88 -2,20 -13,51 -25,67 -12,17 -22,37 -22,45 0,20 -47,75 -83,96 -45,28 -241,245 -306,340 -150,218 -321,522 -548,975 l -236,470 -33,180 c -46,247 -48,234 29,191 34,-19 134,-67 221,-105 88,-39 189,-88 225,-110 94,-57 324,-286 616,-616 137,-154 292,-325 345,-380 53,-55 135,-149 181,-210 113,-147 199,-247 333,-385 61,-63 158,-171 216,-239 221,-263 516,-562 795,-803 66,-56 150,-131 187,-166 39,-36 76,-62 89,-62 12,0 47,-24 81,-55 32,-30 68,-55 79,-55 11,0 30,-5 42,-12 12,-6 35,-14 52,-19 16,-4 54,-18 83,-30 45,-20 56,-21 73,-11 16,10 28,11 55,2 48,-16 144,-17 172,-2 52,29 22,66 -243,305 -264,237 -467,456 -825,887 -84,102 -190,226 -235,275 -93,103 -302,376 -655,854 -135,183 -300,401 -367,485 -179,222 -483,627 -883,1176 -194,267 -389,532 -434,589 -234,300 -737,696 -1196,943 -168,90 -377,186 -482,221 -424,142 -725,205 -1088,226 -211,13 -1009,7 -1115,-8 -92,-13 -346,-37 -550,-51 -77,-5 -210,-15 -295,-21 -86,-7 -212,-9 -285,-5 -340,17 -482,29 -625,51 -85,13 -177,27 -205,30 -84,12 -732,15 -865,4 l -125,-10 -270,94 c -149,52 -285,98 -303,102 -19,4 -174,76 -345,160 -172,84 -330,159 -352,165 -22,7 -46,21 -53,31 -7,10 -31,24 -53,30 -22,7 -44,20 -50,30 -5,10 -26,23 -46,29 -21,7 -56,20 -78,30 -22,9 -61,25 -88,35 -26,9 -53,23 -61,30 -7,7 -33,18 -57,25 -24,6 -64,19 -89,30 -25,10 -70,22 -100,26 -48,6 -64,15 -140,78 -47,39 -141,111 -210,159 -69,48 -152,110 -185,137 -32,28 -100,71 -151,96 -75,38 -105,47 -161,51 -67,5 -71,4 -104,-25 z"
       id="path8" />
  </g>
</svg>
