<?xml version="1.0" standalone="no"?>
<!DOCTYPE svg PUBLIC "-//W3C//DTD SVG 20010904//EN"
 "http://www.w3.org/TR/2001/REC-SVG-20010904/DTD/svg10.dtd">
<svg version="1.0" xmlns="http://www.w3.org/2000/svg"
 width="578.000000pt" height="442.000000pt" viewBox="0 0 578.000000 442.000000"
 preserveAspectRatio="xMidYMid meet">
<metadata>
Created by potrace 1.16, written by Peter Selinger 2001-2019
</metadata>
<g transform="translate(0.000000,442.000000) scale(0.100000,-0.100000)"
fill="#000000" stroke="none">
<path d="M2431 4410 c-105 -22 -239 -80 -331 -144 -25 -16 -129 -112 -231
-212 -103 -100 -205 -195 -228 -212 -63 -46 -211 -107 -371 -152 -208 -60
-288 -93 -403 -169 -279 -184 -507 -389 -619 -556 -53 -79 -140 -260 -173
-359 -63 -187 -86 -370 -66 -519 34 -253 201 -652 375 -892 225 -313 458 -538
724 -704 448 -276 828 -392 1542 -468 203 -21 657 -24 800 -4 425 57 798 157
1093 295 270 125 599 355 775 541 364 385 501 761 452 1246 -33 326 -112 519
-335 819 -173 233 -398 425 -646 550 -111 57 -504 223 -764 325 -278 108 -487
206 -746 347 -319 175 -422 222 -556 253 -83 20 -232 27 -292 15z"/>
</g>
</svg>
