<?xml version="1.0" standalone="no"?>
<!DOCTYPE svg PUBLIC "-//W3C//DTD SVG 20010904//EN"
 "http://www.w3.org/TR/2001/REC-SVG-20010904/DTD/svg10.dtd">
<svg version="1.0" xmlns="http://www.w3.org/2000/svg"
 width="1101.000000pt" height="1536.000000pt" viewBox="0 0 1101.000000 1536.000000"
 preserveAspectRatio="xMidYMid meet">
<metadata>
Created by potrace 1.16, written by Peter Selinger 2001-2019
</metadata>
<g transform="translate(0.000000,1536.000000) scale(0.100000,-0.100000)"
fill="#000000" stroke="none">
<path d="M5100 15354 c-14 -2 -65 -9 -115 -15 -462 -57 -781 -218 -964 -488
-54 -80 -103 -178 -116 -236 -10 -43 -16 -52 -55 -72 -70 -37 -146 -100 -274
-228 -183 -182 -287 -318 -394 -515 -52 -96 -75 -154 -107 -275 -28 -108 -62
-165 -128 -218 -53 -43 -78 -56 -136 -71 -36 -9 -49 -18 -60 -41 -22 -48 -66
-90 -226 -213 -326 -252 -598 -577 -760 -907 -80 -165 -162 -384 -186 -500
-22 -104 -38 -433 -39 -785 l0 -225 -86 -95 c-207 -229 -398 -467 -587 -735
-66 -93 -149 -206 -183 -251 -108 -139 -239 -399 -385 -759 -145 -360 -237
-728 -281 -1120 -20 -183 -17 -683 5 -865 46 -370 100 -612 212 -945 220 -658
534 -1273 789 -1545 29 -30 95 -108 149 -172 278 -336 876 -927 1190 -1177
167 -133 371 -279 607 -436 275 -182 412 -266 799 -488 408 -233 574 -333 805
-484 268 -176 379 -263 428 -337 80 -119 284 -312 489 -464 160 -118 278 -187
542 -316 271 -133 295 -143 374 -156 29 -5 98 -27 154 -50 62 -25 130 -44 176
-50 42 -6 119 -23 173 -39 224 -67 291 -76 570 -76 286 0 408 12 696 70 427
86 792 223 1038 388 293 196 646 500 820 707 247 292 492 689 658 1064 123
278 240 700 277 996 41 327 54 765 30 1020 -54 600 -261 1136 -675 1751 -162
241 -200 286 -413 497 -113 111 -318 315 -456 452 -367 365 -604 573 -667 587
-16 3 -28 12 -28 21 0 18 141 290 180 347 39 56 52 92 104 272 94 326 112 483
103 923 -9 408 -38 645 -111 913 -68 244 -176 493 -331 757 -130 223 -152 255
-224 334 -363 400 -528 562 -666 656 -38 27 -85 63 -102 82 l-33 34 15 89 c42
259 20 502 -71 774 -73 215 -157 350 -343 543 -185 192 -351 317 -559 418
l-92 44 0 96 c0 141 -17 253 -54 363 -47 139 -112 239 -242 377 -99 104 -114
126 -143 199 -55 134 -150 256 -256 328 -129 87 -241 133 -532 217 -119 35
-207 44 -303 30z"/>
</g>
</svg>
