<?xml version="1.0" standalone="no"?>
<!DOCTYPE svg PUBLIC "-//W3C//DTD SVG 20010904//EN"
 "http://www.w3.org/TR/2001/REC-SVG-20010904/DTD/svg10.dtd">
<svg version="1.0" xmlns="http://www.w3.org/2000/svg"
 width="1536.000000pt" height="1094.000000pt" viewBox="0 0 1536.000000 1094.000000"
 preserveAspectRatio="xMidYMid meet">
<metadata>
Created by potrace 1.16, written by Peter Selinger 2001-2019
</metadata>
<g transform="translate(0.000000,1094.000000) scale(0.100000,-0.100000)"
fill="#000000" stroke="none">
<path d="M2294 10802 c-88 -132 -241 -399 -293 -512 -14 -30 -66 -136 -115
-235 -48 -99 -115 -241 -148 -315 -32 -74 -92 -196 -133 -271 -83 -151 -102
-192 -150 -324 -18 -49 -63 -166 -100 -260 -122 -307 -165 -455 -250 -850 -26
-121 -65 -269 -86 -330 -22 -60 -64 -195 -95 -299 -62 -209 -77 -249 -105
-285 -26 -33 -23 -73 15 -171 l34 -85 -60 -58 c-67 -66 -137 -169 -168 -247
-12 -31 -23 -87 -26 -134 -8 -117 -9 -120 -73 -190 -42 -48 -61 -78 -70 -113
-7 -26 -17 -65 -22 -85 l-10 -38 -68 0 c-58 0 -74 -4 -112 -29 -24 -17 -60
-49 -80 -73 -20 -24 -68 -78 -108 -122 -39 -43 -71 -86 -71 -96 0 -31 28 -50
75 -50 24 0 46 -4 50 -9 3 -5 -15 -26 -40 -47 -61 -50 -72 -70 -49 -95 12 -14
30 -19 65 -19 91 0 95 -10 49 -123 -16 -42 -30 -86 -30 -100 0 -23 2 -24 107
-30 194 -12 334 -7 533 18 249 33 289 29 413 -35 202 -103 190 -94 240 -183
70 -127 379 -749 461 -930 195 -429 473 -964 618 -1187 16 -25 99 -187 184
-360 85 -173 207 -413 271 -533 121 -229 203 -426 274 -664 23 -75 48 -152 56
-172 17 -41 72 -290 109 -496 29 -161 82 -391 120 -517 29 -96 70 -156 97
-145 24 9 22 36 -23 219 -22 90 -65 308 -95 484 -67 385 -97 511 -204 849 -91
288 -119 350 -356 795 -176 328 -417 809 -490 975 -78 176 -86 191 -257 494
-83 146 -157 283 -164 305 -8 22 -44 96 -79 164 -36 69 -88 177 -116 241 -28
64 -101 214 -162 334 -64 126 -107 221 -101 226 5 4 30 15 56 25 64 23 189
137 237 214 6 10 20 7 65 -14 106 -48 238 -48 361 1 52 22 62 23 81 10 26 -17
114 -117 182 -208 60 -81 82 -100 151 -127 44 -17 74 -20 208 -20 l156 0 110
-115 c180 -190 250 -239 702 -493 99 -56 214 -115 255 -133 321 -136 968 -320
1190 -339 109 -9 248 -30 655 -99 458 -77 591 -90 940 -90 171 0 418 -5 550
-10 132 -6 366 -11 520 -11 154 0 354 -5 445 -11 115 -7 213 -7 325 1 149 10
265 16 1000 55 154 8 296 17 315 20 19 3 107 10 195 15 88 6 178 15 200 21 22
5 137 14 255 19 482 20 902 46 1035 65 109 15 403 38 695 55 269 15 528 55
690 106 25 8 140 27 255 43 230 33 355 59 750 156 143 35 373 87 510 115 175
36 281 64 355 92 58 22 128 48 155 58 145 50 198 200 198 555 0 151 -3 181
-25 266 -27 101 -145 372 -206 474 -73 123 -158 253 -230 355 -41 58 -103 152
-138 210 -92 155 -192 302 -355 520 -169 226 -204 283 -294 480 -103 223 -154
312 -331 580 -67 102 -145 223 -173 268 l-50 84 19 46 c10 26 30 74 44 107 59
142 107 352 166 726 22 136 60 343 86 460 55 254 65 384 37 463 -20 56 -16 53
-168 85 -491 104 -965 98 -1545 -19 -80 -16 -289 -63 -465 -105 -176 -42 -390
-92 -475 -111 -85 -19 -195 -46 -245 -60 -159 -43 -391 -93 -593 -128 -375
-66 -657 -117 -722 -131 -36 -8 -207 -42 -380 -75 -173 -32 -423 -84 -555
-114 -528 -120 -644 -147 -730 -170 -49 -14 -151 -34 -225 -46 -300 -49 -728
-149 -1190 -280 -521 -147 -646 -179 -805 -210 -143 -27 -194 -42 -339 -100
-260 -103 -490 -171 -766 -225 -164 -32 -252 -57 -435 -122 -212 -76 -419
-166 -635 -276 -454 -233 -571 -289 -773 -372 -256 -106 -339 -147 -435 -214
-126 -90 -393 -373 -439 -468 -33 -65 -95 -73 -293 -34 -197 39 -300 51 -421
51 l-97 0 -62 88 c-98 137 -97 130 -51 275 105 325 143 465 152 557 6 52 15
115 20 140 36 164 178 616 250 796 26 66 71 198 99 293 28 95 61 194 74 220
35 68 201 437 261 581 86 203 234 502 347 700 175 307 185 330 140 330 -11 0
-52 -53 -108 -138z"/>
</g>
</svg>
