<?xml version="1.0" standalone="no"?>
<!DOCTYPE svg PUBLIC "-//W3C//DTD SVG 20010904//EN"
 "http://www.w3.org/TR/2001/REC-SVG-20010904/DTD/svg10.dtd">
<svg version="1.0" xmlns="http://www.w3.org/2000/svg"
 width="1536.000000pt" height="1119.000000pt" viewBox="0 0 1536.000000 1119.000000"
 preserveAspectRatio="xMidYMid meet">
<metadata>
Created by potrace 1.16, written by Peter Selinger 2001-2019
</metadata>
<g transform="translate(0.000000,1119.000000) scale(0.100000,-0.100000)"
fill="#000000" stroke="none">
<path d="M6705 11179 c-55 -5 -172 -21 -260 -35 -88 -14 -228 -29 -311 -32
-145 -7 -153 -8 -193 -36 -63 -44 -96 -107 -95 -181 1 -123 58 -195 204 -262
52 -24 111 -52 130 -61 19 -9 109 -91 200 -182 266 -267 440 -368 711 -414
112 -19 425 -23 509 -7 75 15 155 56 187 96 l27 33 22 -54 c42 -104 111 -166
243 -219 99 -40 375 -105 477 -112 88 -6 123 2 194 44 3 2 7 -19 8 -46 5 -129
94 -260 267 -396 103 -81 166 -119 246 -149 120 -45 202 -51 282 -21 14 6 15
-1 10 -47 -12 -117 127 -438 292 -673 100 -143 161 -209 209 -225 l36 -11 -26
-27 c-43 -46 -123 -220 -149 -327 -30 -118 -46 -317 -33 -401 5 -32 18 -73 29
-91 l21 -33 -25 9 c-14 6 -52 13 -85 17 -126 14 -249 -48 -410 -208 -151 -150
-208 -254 -219 -395 l-6 -73 -42 39 c-24 22 -56 46 -71 54 -75 38 -223 47
-365 22 -142 -24 -266 -75 -394 -161 -134 -89 -173 -140 -183 -239 l-7 -66
-40 30 c-96 70 -264 96 -448 67 -124 -20 -182 -38 -287 -91 -227 -114 -328
-224 -355 -383 -7 -41 -8 -43 -25 -27 -51 46 -145 55 -337 30 -224 -29 -401
-93 -565 -202 -95 -63 -218 -185 -258 -256 l-32 -56 -30 22 c-27 20 -40 22
-141 20 -195 -2 -434 -70 -597 -169 -45 -27 -118 -80 -163 -119 -149 -129
-217 -237 -220 -351 l-1 -52 -36 23 c-113 74 -245 53 -460 -74 -169 -100 -377
-327 -459 -500 -22 -48 -26 -69 -26 -151 l0 -96 -40 14 c-152 53 -390 -63
-636 -308 -202 -201 -287 -347 -297 -507 -4 -76 -6 -82 -23 -73 -36 20 -87 10
-164 -30 -296 -156 -580 -466 -672 -732 -32 -95 -35 -196 -6 -253 l21 -39 -72
-35 c-101 -49 -236 -185 -293 -296 -110 -212 -123 -479 -32 -651 l29 -56 -50
-48 c-28 -27 -50 -55 -50 -62 0 -7 -11 10 -24 37 -68 144 -239 242 -515 295
-183 36 -229 40 -345 29 -142 -12 -235 -33 -314 -72 -71 -34 -144 -108 -163
-164 -17 -53 -4 -128 35 -208 81 -162 206 -253 458 -334 121 -38 224 -52 400
-52 151 0 221 12 299 51 40 21 119 94 119 111 0 23 17 4 34 -39 46 -112 195
-214 436 -297 207 -72 292 -87 528 -92 239 -6 303 2 392 47 58 29 133 101 145
140 6 20 10 17 36 -31 56 -105 183 -191 338 -230 107 -26 520 -79 676 -86 101
-4 149 -2 215 11 153 30 285 110 328 197 l21 41 20 -40 c84 -165 301 -220 761
-193 197 11 239 20 393 77 110 41 171 88 214 162 15 26 28 49 29 51 2 2 16
-12 33 -31 40 -46 131 -94 217 -114 87 -20 270 -14 394 15 121 27 352 104 438
146 174 83 274 179 297 283 l7 34 32 -30 c43 -42 161 -99 253 -122 177 -46
436 -35 747 31 427 91 553 180 632 448 3 9 13 -3 26 -28 30 -60 108 -142 166
-174 62 -34 137 -51 337 -77 181 -23 269 -25 435 -9 347 32 600 155 694 337
l22 44 33 -66 c62 -126 185 -216 347 -252 114 -25 318 -16 439 20 113 34 225
92 294 153 58 51 126 146 136 192 l6 28 62 -62 c51 -51 76 -67 143 -93 242
-93 594 -106 1004 -36 391 67 509 136 527 310 l6 53 27 -37 c101 -141 272
-215 590 -259 164 -22 502 -25 595 -5 268 58 395 144 487 329 39 79 43 93 43
162 0 63 -5 85 -27 127 -73 140 -323 278 -588 325 -154 28 -585 12 -750 -28
-101 -24 -257 -103 -317 -161 -50 -48 -103 -134 -103 -169 0 -10 -4 -24 -9
-32 -7 -11 -13 -7 -26 18 -25 49 -84 111 -141 147 -122 78 -294 109 -564 101
-201 -5 -341 -26 -539 -77 -224 -59 -366 -162 -420 -306 l-18 -46 -24 38 c-33
55 -104 129 -163 171 -28 20 -53 38 -55 40 -3 2 21 26 52 54 68 61 183 211
227 297 45 88 50 154 18 224 l-25 55 36 -13 c20 -7 61 -13 91 -14 30 0 106 -9
169 -20 125 -22 293 -26 356 -9 25 7 58 29 87 58 l47 47 23 -35 c59 -90 190
-151 437 -202 205 -42 303 -47 414 -20 49 11 104 21 123 21 108 0 173 99 146
226 -26 125 -86 195 -224 265 -332 167 -687 191 -830 56 -23 -21 -27 -22 -31
-9 -2 10 5 37 16 62 27 65 33 158 14 214 -9 25 -14 46 -13 46 2 0 25 -9 51
-21 74 -33 177 -25 275 22 155 74 334 204 424 308 94 108 133 222 108 312
l-10 37 82 -5 c247 -15 555 161 658 376 27 57 33 80 36 161 3 77 0 107 -16
155 -11 33 -19 61 -18 63 2 1 15 -2 30 -8 45 -17 158 -12 227 10 148 47 265
186 338 406 103 308 72 602 -80 738 -47 42 -122 76 -169 76 -11 0 -1 16 30 48
78 81 98 182 64 321 -62 253 -263 481 -446 507 l-46 6 24 35 c28 42 56 116 86
226 19 69 23 106 22 232 -1 179 -19 260 -90 404 -39 79 -62 110 -133 181 -95
95 -180 146 -290 175 -64 16 -202 22 -235 9 -16 -6 -15 -2 6 37 20 39 23 57
23 164 -1 112 -3 126 -34 203 -67 170 -176 295 -298 343 -48 19 -77 23 -173
24 -109 0 -119 -2 -181 -31 l-66 -32 34 57 c55 91 77 179 77 301 0 303 -185
621 -428 740 -154 75 -273 91 -540 70 -209 -16 -250 -9 -421 73 -122 58 -134
62 -202 62 -63 0 -76 -3 -114 -30 -63 -45 -111 -116 -117 -176 -4 -41 0 -56
21 -88 15 -22 44 -54 66 -72 65 -52 87 -94 156 -299 78 -234 206 -499 287
-599 70 -86 170 -153 283 -190 168 -55 237 -66 405 -66 167 0 209 9 315 64 28
14 53 27 57 29 4 2 -4 -23 -19 -55 -85 -185 45 -543 236 -646 121 -66 244 -89
349 -64 58 13 63 13 57 -2 -25 -61 -45 -175 -45 -250 0 -220 103 -442 314
-684 43 -48 99 -103 124 -122 60 -44 153 -75 231 -78 33 -1 61 -3 61 -4 0 -2
-19 -20 -43 -42 -165 -152 -131 -441 80 -680 63 -71 130 -117 201 -137 l53
-16 -40 -28 c-121 -88 -210 -292 -256 -585 -23 -147 -14 -262 30 -367 6 -15 3
-15 -42 -1 -96 30 -250 -2 -380 -78 -86 -50 -220 -190 -265 -275 -66 -124 -86
-262 -54 -368 13 -44 13 -47 -2 -41 -9 4 -41 12 -70 18 -157 33 -459 -116
-607 -301 -89 -111 -146 -265 -130 -351 l7 -36 -24 22 c-50 47 -116 68 -213
68 -179 -1 -296 -59 -479 -237 -67 -65 -127 -118 -134 -118 -28 0 -165 -51
-200 -75 l-36 -24 -12 35 c-33 97 -148 160 -359 200 -76 14 -147 19 -295 19
-217 0 -253 -8 -359 -79 l-49 -33 -6 47 c-14 104 -89 203 -206 272 -66 39
-265 108 -385 133 -90 19 -233 19 -313 0 -68 -16 -151 -54 -171 -79 -19 -23
-26 -20 -39 17 -26 73 -149 166 -280 213 -73 26 -89 28 -286 32 -121 2 -250
-1 -305 -7 -104 -13 -251 -57 -321 -98 -66 -39 -137 -110 -150 -149 l-12 -35
-36 32 c-53 47 -167 97 -249 109 -59 9 -88 8 -158 -5 -266 -50 -502 -172 -688
-359 -113 -112 -148 -176 -155 -284 -4 -62 -7 -72 -21 -66 -88 37 -160 42
-256 19 -195 -46 -395 -194 -588 -435 -74 -92 -117 -174 -138 -260 -17 -71
-15 -204 4 -256 l15 -42 -46 15 c-54 17 -126 12 -172 -12 -52 -27 -145 -129
-182 -202 -103 -198 -134 -428 -83 -616 l7 -27 -85 6 c-157 12 -347 -24 -472
-89 -65 -35 -172 -134 -195 -182 -8 -16 -16 -32 -17 -34 -2 -2 -22 18 -45 44
-79 89 -207 154 -405 204 -243 62 -679 91 -818 56 -88 -22 -179 -72 -235 -127
-53 -52 -60 -56 -60 -33 0 57 -113 191 -198 234 -79 40 -370 111 -457 111 -19
0 -36 4 -39 8 -3 5 6 40 19 79 33 100 45 199 45 387 0 112 -5 180 -15 219 -8
32 -15 59 -15 61 0 2 24 15 52 29 112 55 251 195 399 400 149 209 240 387 247
484 5 75 -9 103 -66 132 -32 16 -73 51 -61 51 2 0 26 -11 53 -25 183 -93 506
95 790 458 117 151 166 265 166 390 0 62 2 68 18 62 9 -4 36 -12 59 -18 137
-33 484 153 714 382 143 143 179 206 179 312 l0 68 43 -24 c64 -37 114 -41
199 -15 282 85 843 472 877 605 l10 40 168 1 c252 2 409 37 608 136 223 112
360 238 380 351 l7 38 27 -25 c96 -92 286 -95 535 -9 154 53 300 134 428 236
48 38 103 118 124 180 l16 49 32 -31 c51 -49 92 -61 214 -61 186 0 368 43 548
130 139 67 254 210 254 317 l0 46 23 -20 c50 -46 88 -58 187 -58 91 0 98 2
165 37 147 79 364 297 432 436 46 93 56 195 26 282 l-18 56 56 -1 c49 0 63 4
96 31 116 93 177 309 178 629 0 167 -2 184 -23 231 -13 29 -36 64 -51 78 l-28
27 43 42 c59 56 71 114 49 239 -16 92 -108 399 -152 503 -63 153 -172 282
-280 333 -50 23 -71 27 -149 27 l-90 0 4 50 c8 110 -55 232 -187 358 -231 220
-488 330 -620 264 l-32 -16 6 52 c4 30 2 71 -4 94 -25 92 -144 197 -377 331
-176 101 -220 115 -369 116 -113 1 -124 -1 -174 -27 l-53 -27 6 33 c9 46 -11
142 -41 200 -75 149 -268 271 -563 357 -144 43 -146 43 -330 46 -102 1 -230
-2 -285 -7z m1460 -8224 c34 -19 88 -41 120 -49 85 -21 508 -59 580 -52 130
13 337 85 374 130 16 20 31 21 31 3 0 -30 64 -100 131 -143 82 -54 238 -124
363 -165 262 -86 487 -75 598 28 l27 25 11 -42 c7 -26 27 -58 54 -85 78 -77
199 -107 517 -125 271 -16 379 -3 455 55 39 30 42 29 46 -3 3 -19 -7 -26 -54
-46 -153 -63 -325 -238 -406 -414 -20 -43 -27 -78 -30 -143 -5 -94 6 -141 44
-201 27 -42 30 -58 11 -58 -22 0 -193 -86 -255 -129 -69 -46 -128 -110 -148
-158 l-15 -35 -30 46 c-55 83 -166 148 -309 181 -207 47 -794 21 -993 -46
-170 -57 -306 -154 -338 -242 -7 -20 -15 -37 -19 -37 -3 0 -17 22 -32 49 -79
144 -281 179 -740 131 -264 -28 -405 -61 -562 -129 -144 -63 -281 -191 -337
-315 l-33 -73 -30 46 c-62 92 -160 115 -423 100 -211 -11 -303 -24 -421 -54
-231 -61 -379 -171 -459 -341 l-29 -60 -22 28 c-13 15 -50 44 -83 64 l-59 37
54 49 c61 54 130 154 166 238 45 106 38 353 -13 480 l-23 56 57 -4 c123 -9
233 36 434 180 290 208 455 436 459 635 l1 73 35 -8 c58 -12 190 -5 316 18
305 54 596 198 726 358 48 59 108 173 108 204 0 46 11 49 49 12 20 -19 63 -51
96 -69z"/>
</g>
</svg>
