<?xml version="1.0" encoding="UTF-8" standalone="no"?>
<!-- Created with Inkscape (http://www.inkscape.org/) -->

<svg
   xmlns:svg="http://www.w3.org/2000/svg"
   xmlns="http://www.w3.org/2000/svg"
   version="1.2"
   width="987.59998"
   height="271.185"
   viewBox="0 0 987.6 271.185"
   id="Layer_2"
   xml:space="preserve"
   style="overflow:inherit"><defs
   id="defs7" />
<path
   d="m 987.1,39.835 -42,0.25 c -35.6,4.667 -57.316,7.583 -65.149,8.75 -17.7,2.7 -33,5.767 -45.9,9.2 -13.666,3.633 -29.684,8.967 -48.05,16 -13.989,5.39 -35.698,14.273 -65.125,26.649 7.183,3.91 13.766,7.994 19.75,12.25 14.576,-4.513 25.885,-7.796 33.925,-9.85 10.9,-2.8 23.834,-5.384 38.8,-7.75 44.934,-7.033 74.95,-12.066 90.051,-15.1 21.231,-4.247 40.748,-9.155 58.55,-14.726 -19.79,6.865 -39.173,12.656 -58.15,17.375 -19.733,4.9 -50.3,11.3 -91.7,19.2 -18.925,3.636 -38.375,8.711 -58.35,15.225 61.522,5.14 106.48,21.814 134.875,50.025 1.894,0.095 3.802,0.178 5.725,0.25 l 0.25,0.85 c -0.157,0.091 -1.648,0.224 -4.475,0.4 1.989,2.058 3.897,4.174 5.725,6.35 10.934,13.067 19.75,29.65 26.45,49.75 0.867,2.601 3.15,10.134 6.851,22.601 0.215,0.728 0.423,1.436 0.625,2.125 -0.302,-0.941 -0.61,-1.916 -0.926,-2.925 -3.399,-10.867 -5.8,-18.267 -7.199,-22.2 -6.801,-18.934 -15.483,-34.55 -26.051,-46.851 -2.588,-3.007 -5.354,-5.898 -8.3,-8.675 -0.682,0.041 -1.415,0.082 -2.2,0.125 -5.966,0.367 -9.633,0.55 -11,0.55 -28.166,0 -53.55,-4.517 -76.149,-13.55 -14.967,-6 -32.316,-15.95 -52.05,-29.85 -2.159,-1.523 -4.168,-2.939 -6.025,-4.25 -14.165,5.048 -31.756,11.998 -52.775,20.85 -22.699,9.566 -38.283,15.8 -46.75,18.7 -15.267,5.233 -28.017,7.85 -38.25,7.85 -18.712,0 -36.954,-2.1 -54.725,-6.3 -0.859,0.15 -1.718,0.301 -2.575,0.45 -0.432,0.075 -0.865,0.15 -1.3,0.225 -1.704,3.043 -3.903,6.768 -6.6,11.176 -7.867,12.899 -13.884,20.55 -18.051,22.949 -22.399,13.101 -40.899,21.317 -55.5,24.65 -3.932,0.9 -8.024,1.567 -12.275,2 -17.014,20.4 -39.006,30.6 -65.975,30.6 -1.88,0 -3.747,-0.041 -5.6,-0.125 -1.982,1.331 -4.132,2.573 -6.45,3.726 -13.693,6.818 -30.301,9.269 -49.825,7.35 -15.395,3.367 -33.22,5.05 -53.475,5.05 -29.4,0 -55.583,-3.066 -78.55,-9.199 -23.833,-6.4 -42.567,-15.667 -56.2,-27.801 -11.7,-7.666 -22.733,-15.133 -33.1,-22.399 -20.433,-14.334 -30.65,-23.566 -30.65,-27.7 0,-0.483 0.033,-0.95 0.1,-1.4 -4.282,-4.243 -8.499,-8.01 -12.65,-11.3 -5.333,-3.967 -8.733,-6.649 -10.2,-8.05 -2.167,-2.066 -3.25,-4.45 -3.25,-7.15 0,-0.256 0,-0.506 0,-0.75 -0.978,0.101 -1.978,0.15 -3,0.15 -1.033,0 -1.683,-0.116 -1.95,-0.35 -0.267,-0.334 -0.617,-0.634 -1.05,-0.9 -0.02,-0.012 -0.036,-0.037 -0.05,-0.075 -5.64,-0.616 -12.623,-0.925 -20.95,-0.925 -1.3,0 -3.45,0.267 -6.45,0.8 -3.1,0.533 -5.617,1.101 -7.55,1.7 -1.867,-0.9 -3.017,-1.467 -3.45,-1.7 -0.533,-0.3 -0.8,-0.616 -0.8,-0.95 0,-3.1 3.583,-5.3 10.75,-6.6 5.7,-1 14.367,-1.5 26,-1.5 2.032,0 4.216,0.167 6.55,0.5 4.739,-5.362 13.389,-14.012 25.95,-25.95 15.3,-14.5 29.383,-27.434 42.25,-38.8 7.933,-7.233 14.333,-12.983 19.2,-17.25 8.833,-7.667 16.983,-14.05 24.45,-19.15 16.199,-11.024 31.94,-17.875 47.225,-20.55 2.953,-2.697 6.011,-5.281 9.175,-7.75 7.434,-5.833 14.267,-10.149 20.5,-12.95 6.867,-3.033 12.267,-3.899 16.2,-2.6 3.2,1.033 6.967,4.616 11.3,10.75 1.626,2.316 4.193,6.392 7.7,12.225 6.763,1.643 13.096,3.234 19,4.775 l 29,0.5 c 5.555,0.491 10.938,1.024 16.15,1.6 6.764,-6.703 11.93,-11.42 15.5,-14.149 6.533,-4.967 12.267,-7.45 17.2,-7.45 16.467,0 28.733,4.1 36.8,12.3 2.767,2.867 4.883,6.05 6.35,9.55 1.033,2.567 1.567,4.784 1.6,6.65 0,0.233 -0.367,2.217 -1.1,5.95 -0.097,0.488 -0.188,0.964 -0.275,1.425 7.954,2.515 14.912,5.257 20.875,8.225 3.417,1.692 7.175,3.834 11.275,6.426 1.088,-0.501 2.213,-1.042 3.375,-1.625 9.533,-4.767 14.567,-7.233 15.1,-7.4 h 8 c 9.066,5.7 15.2,13.967 18.4,24.8 0.6,2.066 1.65,6.584 3.15,13.55 0.12,0.565 0.237,1.115 0.35,1.65 14.222,8.322 26.764,17.581 37.625,27.775 9.513,-5.882 16.738,-10.324 21.675,-13.325 10.267,-6.233 19.066,-11.117 26.4,-14.65 19.866,-9.533 40,-14.3 60.399,-14.3 23.134,0 47.351,5.917 72.65,17.75 3.617,1.684 7.109,3.4 10.475,5.15 0.602,-0.24 1.144,-0.456 1.625,-0.65 39.101,-15.733 63.334,-25.384 72.7,-28.95 18,-6.866 33.066,-11.816 45.2,-14.85 11.767,-2.967 26.45,-5.55 44.05,-7.75 2.134,-0.267 25.233,-2.834 69.3,-7.7 24.834,0.167 37.334,0.417 37.5,0.75 L 987.1,39.835 z M 235.75,4.585 c -10.139,5.363 -19.481,11.538 -28.025,18.525 3.199,-0.361 6.374,-0.536 9.525,-0.525 l 46.475,0.25 C 262.499,20.8 261.491,19.199 260.7,18.035 257,12.601 253.016,8.118 248.75,4.585 h -13 z m 112,14.95 c -4.47,2.717 -9.145,6.434 -14.025,11.149 28.075,3.133 51.283,7.392 69.625,12.775 -0.169,-1.031 -0.335,-2.106 -0.5,-3.225 -1.3,-9.034 -3.45,-15.483 -6.45,-19.351 -4.6,-5.866 -12.283,-8.8 -23.05,-8.8 -8.867,0.002 -17.4,2.485 -25.6,7.452 z m 136.1,68.425 c -0.81,-5.213 -1.609,-9.321 -2.4,-12.325 -3.667,-13.866 -10.4,-20.8 -20.2,-20.8 -5.126,0 -11.602,1.975 -19.425,5.925 3.521,2.3 7.279,4.908 11.275,7.825 10.1,7.366 18.433,12.783 25,16.25 1.946,1.026 3.863,2.067 5.75,3.125 z m 247.3,27.95 c -4.17,-2.908 -6.87,-4.767 -8.101,-5.575 -3.434,-2.294 -6.75,-4.41 -9.95,-6.35 -10.808,4.695 -20.407,8.854 -28.8,12.475 9.215,-0.583 17.814,-0.875 25.8,-0.875 7.15,0 14.125,0.125 20.926,0.375 0.038,-0.02 0.08,-0.036 0.125,-0.05 z m 21.95,6.925 c 13.834,12.233 31.733,22.15 53.7,29.75 23.018,7.955 49.176,12.805 78.476,14.55 -28.844,-26.028 -73.702,-41.486 -134.575,-46.375 0.815,0.686 1.615,1.378 2.399,2.075 z m -113.6,-40 c -23,0 -44.533,4.6 -64.6,13.8 -7.534,3.467 -16.233,8.184 -26.101,14.15 -4.428,2.692 -10.694,6.56 -18.8,11.6 5.054,5.165 9.037,10.048 11.95,14.65 14.282,-2.479 31.882,-5.58 52.8,-9.3 29.474,-5.076 55.574,-8.56 78.3,-10.45 16.223,-6.871 28.398,-11.996 36.525,-15.375 -3.575,-2.076 -7,-3.918 -10.275,-5.525 C 680.733,87.352 660.8,82.835 639.5,82.835 z m -95.55,57.65 c 2.6,4.907 3.899,9.475 3.899,13.699 0,0.17 -0.024,0.378 -0.074,0.625 4.321,1.034 8.555,1.942 12.699,2.726 14.146,-3.309 28.487,-7.459 43.025,-12.45 14.434,-4.967 32.85,-12.217 55.25,-21.75 0.562,-0.238 1.12,-0.472 1.675,-0.7 -16.467,1.725 -31.559,3.558 -45.274,5.5 -15.367,2.2 -32.834,5.15 -52.4,8.851 -6.854,1.288 -13.122,2.454 -18.8,3.499 z m 24.225,18.35 c 9.719,1.5 18.911,2.25 27.575,2.25 11.134,0 22.533,-1.566 34.2,-4.7 9.2,-2.5 19.717,-6.333 31.55,-11.5 6.9,-3 17.25,-7.717 31.05,-14.149 10.505,-4.747 19.863,-8.547 28.075,-11.4 H 695.1 c -7.636,0.66 -15.036,1.335 -22.199,2.025 -7.587,3.273 -13.837,5.948 -18.75,8.024 -20.4,8.667 -37.834,15.367 -52.301,20.101 -10.984,3.574 -22.208,6.691 -33.675,9.349 z"
   id="path3"
   style="fill-rule:evenodd" />
</svg>