<?xml version="1.0" standalone="no"?>
<!DOCTYPE svg PUBLIC "-//W3C//DTD SVG 20010904//EN"
 "http://www.w3.org/TR/2001/REC-SVG-20010904/DTD/svg10.dtd">
<svg version="1.0" xmlns="http://www.w3.org/2000/svg"
 width="484.000000pt" height="486.000000pt" viewBox="0 0 484.000000 486.000000"
 preserveAspectRatio="xMidYMid meet">
<metadata>
Created by potrace 1.16, written by Peter Selinger 2001-2019
</metadata>
<g transform="translate(0.000000,486.000000) scale(0.100000,-0.100000)"
fill="#000000" stroke="none">
<path d="M2265 4840 c-135 -27 -234 -63 -396 -144 -113 -57 -149 -72 -163 -64
-30 17 -63 0 -112 -57 -50 -58 -67 -65 -100 -40 -24 18 -65 19 -89 1 -11 -8
-24 -36 -30 -63 -8 -34 -15 -47 -26 -44 -71 20 -101 8 -126 -51 l-18 -41 -62
-1 c-71 -2 -85 -12 -119 -79 -25 -48 -26 -48 -62 -42 -32 5 -41 2 -61 -19 -15
-16 -21 -31 -17 -44 6 -17 0 -22 -31 -32 -55 -18 -73 -37 -71 -76 1 -25 -7
-45 -29 -72 -28 -33 -35 -37 -73 -34 -74 5 -113 -58 -85 -137 24 -69 22 -72
-38 -65 -47 6 -56 3 -84 -20 -40 -34 -47 -65 -29 -127 8 -27 13 -56 10 -63 -5
-14 -47 -26 -89 -26 -12 0 -31 -10 -43 -22 -31 -35 -37 -72 -17 -123 19 -52
16 -61 -28 -69 -18 -3 -49 -20 -70 -37 -41 -33 -47 -65 -22 -109 20 -34 20
-35 -21 -76 -36 -36 -37 -37 -30 -98 3 -33 9 -80 12 -103 6 -42 6 -42 -45 -73
-81 -50 -90 -86 -41 -160 37 -56 37 -65 3 -82 -17 -8 -32 -27 -39 -48 -10 -30
-8 -45 12 -101 31 -85 30 -95 -6 -129 -35 -33 -37 -47 -11 -120 17 -48 18 -57
5 -71 -20 -22 -18 -31 26 -119 39 -78 50 -120 30 -120 -5 0 -14 -9 -20 -20 -8
-14 -5 -34 14 -82 13 -35 27 -84 31 -108 11 -65 19 -76 72 -96 68 -25 72 -30
40 -60 -15 -13 -27 -29 -27 -35 0 -6 22 -34 49 -62 63 -66 95 -143 86 -207 -5
-41 -2 -49 32 -94 22 -29 57 -59 83 -72 37 -18 47 -30 55 -61 10 -35 18 -41
110 -88 64 -32 99 -55 98 -65 0 -8 -4 -28 -8 -45 -12 -53 26 -93 145 -153 57
-29 121 -68 141 -88 32 -32 46 -37 101 -43 85 -9 90 -13 82 -67 -6 -39 -3 -49
17 -71 40 -42 114 -74 188 -80 65 -5 69 -5 105 27 34 30 41 32 89 27 78 -8
105 -24 117 -68 19 -69 116 -114 243 -113 39 0 53 6 80 32 18 18 39 32 47 32
8 0 31 -16 52 -37 34 -33 43 -37 111 -42 70 -6 77 -9 120 -48 25 -23 58 -45
73 -49 49 -13 129 23 253 113 22 16 24 16 37 -1 7 -11 15 -23 16 -28 2 -6 24
-12 50 -15 46 -5 61 -1 135 43 l33 19 42 -47 c31 -33 54 -48 81 -53 72 -14
185 12 230 53 11 9 35 51 54 92 l34 75 23 -29 c18 -21 35 -29 68 -33 58 -7 79
5 128 72 22 30 47 55 56 55 8 0 44 -20 81 -45 83 -57 127 -61 198 -20 78 45
88 63 86 159 -1 55 2 86 9 86 6 0 33 -11 60 -25 74 -37 104 -34 157 20 37 37
44 49 39 70 -4 14 -4 25 -2 25 2 0 28 -11 58 -25 29 -14 71 -25 95 -25 36 0
46 5 73 38 42 51 57 104 42 146 -19 52 -15 62 39 108 65 54 72 67 53 102 -21
41 -18 46 25 46 28 0 49 7 68 24 24 21 28 31 27 73 -1 27 -14 76 -28 110 l-26
62 25 47 c33 61 33 113 0 152 -32 38 -31 48 4 60 38 13 54 45 53 102 0 46 -15
66 -82 113 -22 15 -23 19 -10 42 13 24 11 28 -20 60 -30 31 -32 38 -27 80 3
34 -2 69 -19 124 -37 117 -32 131 39 131 18 0 37 4 44 8 22 14 33 59 22 90 -8
22 -5 39 11 76 11 26 20 62 20 81 0 27 7 37 41 60 38 25 41 30 36 61 -3 19
-22 61 -41 93 -40 66 -42 73 -21 91 18 15 20 88 4 122 -8 19 -6 35 10 76 12
29 21 63 21 75 0 12 -24 58 -54 100 -46 66 -56 90 -66 149 -17 101 -29 110
-133 102 -63 -5 -91 -3 -120 9 -38 16 -41 20 -51 70 -10 41 -129 127 -178 127
-36 0 -37 1 -36 33 2 68 -34 97 -121 97 -59 0 -77 13 -91 68 -14 53 -37 68
-124 82 -106 17 -217 106 -232 187 -9 53 -20 71 -57 93 -22 14 -50 20 -93 20
-50 0 -68 5 -110 31 -81 52 -154 118 -147 135 3 9 -6 27 -23 45 -21 22 -37 29
-65 29 -34 0 -37 3 -43 34 -7 36 -21 46 -62 46 -19 0 -29 8 -39 34 -11 25 -22
35 -46 40 -20 4 -52 27 -90 65 -69 70 -229 187 -324 236 -77 40 -105 42 -240
15z"/>
</g>
</svg>
