<?xml version="1.0" standalone="no"?>
<!DOCTYPE svg PUBLIC "-//W3C//DTD SVG 20010904//EN"
 "http://www.w3.org/TR/2001/REC-SVG-20010904/DTD/svg10.dtd">
<svg version="1.0" xmlns="http://www.w3.org/2000/svg"
 width="1536.000000pt" height="716.000000pt" viewBox="0 0 1536.000000 716.000000"
 preserveAspectRatio="xMidYMid meet">
<metadata>
Created by potrace 1.16, written by Peter Selinger 2001-2019
</metadata>
<g transform="translate(0.000000,716.000000) scale(0.100000,-0.100000)"
fill="#000000" stroke="none">
<path d="M8971 7141 c-6 -11 -11 -46 -11 -79 l0 -58 -55 -18 c-38 -12 -53 -21
-48 -29 4 -7 30 -48 58 -92 58 -89 85 -139 85 -155 0 -30 -72 -1 -201 81 -42
27 -86 49 -97 49 -28 0 -53 -40 -59 -94 l-5 -44 -67 -8 -66 -9 106 -62 107
-63 -11 -41 c-19 -76 27 -125 156 -165 76 -24 70 -25 -195 -63 -117 -17 -228
-34 -247 -37 l-34 -7 7 42 c8 53 33 102 107 213 84 124 78 141 -32 92 -32 -15
-65 -24 -74 -20 -27 10 -48 75 -43 133 4 41 16 70 56 135 28 46 47 87 42 91
-13 14 -72 -19 -115 -63 -22 -22 -42 -40 -45 -40 -4 0 -13 18 -20 40 -15 46
-33 65 -55 56 -23 -8 -31 -39 -44 -156 -12 -105 -25 -138 -54 -127 -8 3 -54
71 -103 152 -111 183 -140 220 -161 203 -12 -9 -14 -25 -10 -63 3 -27 8 -58
12 -67 5 -13 -6 -24 -50 -49 l-56 -31 58 -62 c76 -79 133 -150 133 -165 0 -27
-60 -15 -182 35 -59 24 -116 44 -126 44 -32 0 -45 -27 -46 -91 l-1 -60 -40
-10 c-88 -22 -87 -23 32 -69 l112 -43 -1 -49 c0 -82 37 -108 190 -132 41 -6
77 -17 79 -22 2 -7 -48 -24 -123 -43 -69 -17 -182 -52 -251 -77 -69 -25 -127
-43 -130 -40 -10 10 26 95 79 187 30 52 57 102 61 112 12 32 -19 29 -91 -7
-76 -38 -75 -39 -107 23 -30 59 -24 116 23 208 39 76 51 113 37 113 -20 0 -69
-36 -105 -77 -24 -26 -44 -43 -47 -38 -10 27 -49 89 -58 92 -35 10 -52 -54
-54 -203 -1 -78 -17 -107 -49 -88 -9 6 -59 72 -112 147 -111 158 -136 187
-163 187 -21 0 -21 -16 -2 -120 6 -33 4 -36 -39 -63 -25 -16 -46 -33 -46 -37
0 -5 34 -39 76 -76 78 -70 127 -131 118 -146 -10 -16 -56 -8 -185 34 l-131 43
-20 -25 c-19 -23 -22 -73 -7 -119 3 -9 -17 -20 -60 -35 -36 -12 -61 -25 -55
-28 7 -5 111 -37 205 -64 12 -3 18 -20 21 -56 4 -40 12 -57 31 -74 30 -25 105
-44 180 -44 63 0 80 -10 75 -41 -2 -17 -27 -37 -103 -82 -55 -32 -153 -93
-218 -134 -65 -42 -120 -73 -124 -70 -3 3 -5 35 -4 71 1 69 19 123 87 258 19
37 34 74 34 83 0 25 -31 17 -97 -24 -70 -45 -75 -44 -112 39 -28 62 -27 79 19
193 22 55 38 102 36 104 -16 16 -103 -57 -134 -112 -6 -11 -12 -18 -14 -15 -2
3 -16 24 -31 48 -28 43 -60 55 -71 26 -3 -9 -6 -71 -6 -139 0 -95 -3 -125 -14
-135 -9 -7 -21 -8 -30 -3 -8 4 -66 72 -130 150 -130 159 -153 180 -174 159
-11 -11 -10 -24 5 -81 l18 -68 -25 -16 c-13 -9 -35 -25 -48 -36 l-23 -20 73
-57 c93 -73 152 -133 144 -147 -12 -18 -65 -13 -194 20 -151 39 -155 37 -150
-64 l3 -69 -35 -15 c-19 -8 -46 -19 -60 -25 -22 -9 -13 -13 75 -34 55 -13 110
-26 123 -29 17 -4 22 -13 22 -36 0 -39 24 -85 53 -101 12 -7 72 -15 132 -18
107 -5 110 -6 113 -29 2 -13 -6 -37 -18 -53 -19 -25 -20 -33 -10 -64 7 -19 10
-41 7 -48 -9 -23 -359 -217 -435 -241 -22 -6 -23 -5 -12 14 6 12 51 67 100
122 49 56 87 105 84 110 -8 13 -41 11 -107 -8 -57 -16 -60 -16 -73 2 -7 10
-16 38 -20 62 -9 60 13 113 81 195 30 36 55 71 55 77 0 28 -79 -1 -134 -49
-20 -18 -38 -31 -39 -29 -2 2 -10 27 -18 54 -11 38 -20 51 -36 53 -29 4 -47
-32 -73 -143 -24 -103 -34 -125 -59 -125 -20 0 -30 19 -101 185 -103 242 -139
275 -140 123 l0 -66 -50 -17 c-27 -9 -52 -20 -55 -25 -3 -5 16 -40 43 -77 58
-82 102 -155 102 -171 0 -19 -47 -14 -92 9 -22 11 -73 41 -112 65 -39 24 -81
44 -93 44 -31 0 -56 -42 -57 -95 -1 -49 -10 -55 -78 -55 -20 0 -39 -3 -42 -8
-2 -4 39 -32 92 -63 l97 -55 0 -58 c0 -55 2 -60 37 -90 22 -20 63 -40 100 -51
35 -9 74 -21 88 -24 14 -4 26 -16 28 -27 8 -52 -76 -75 -356 -99 -101 -8 -192
-15 -203 -15 -17 0 -19 7 -19 58 0 70 25 126 104 235 62 86 76 110 76 128 0
16 -50 5 -116 -25 l-52 -24 -21 48 c-36 84 -24 138 58 260 51 75 37 90 -40 41
-24 -15 -55 -40 -68 -55 l-24 -26 -21 52 c-41 103 -77 68 -99 -96 -15 -108
-31 -144 -59 -133 -8 2 -43 58 -78 122 -95 173 -141 240 -165 240 -18 0 -20
-6 -17 -76 l2 -76 -50 -22 c-27 -12 -50 -24 -50 -27 0 -3 29 -39 65 -80 88
-101 121 -152 108 -165 -14 -14 -52 -2 -189 57 -130 56 -140 56 -155 2 -6 -23
-9 -57 -6 -74 5 -32 5 -33 -46 -44 -29 -7 -57 -15 -64 -19 -7 -3 37 -26 97
-51 l110 -45 0 -50 c0 -29 7 -60 15 -72 20 -28 105 -60 184 -69 39 -4 65 -12
68 -21 3 -8 4 -16 1 -18 -3 -3 -121 -12 -580 -41 l-98 -6 0 66 c0 79 16 114
114 255 36 52 66 101 66 109 0 17 -44 9 -118 -24 l-53 -23 -19 42 c-37 81 -23
146 59 267 52 76 36 91 -40 41 -24 -17 -55 -41 -69 -56 l-24 -25 -25 52 c-14
29 -31 54 -38 56 -23 6 -43 -45 -57 -145 -16 -112 -29 -146 -54 -141 -10 2
-44 51 -79 113 -87 156 -144 243 -160 250 -28 10 -35 -7 -31 -79 l3 -71 -47
-25 c-27 -14 -48 -27 -48 -30 0 -3 35 -45 76 -95 149 -178 137 -190 -88 -93
-64 28 -124 48 -132 45 -23 -9 -38 -55 -34 -105 2 -31 -1 -43 -12 -46 -8 -2
-39 -10 -69 -16 l-54 -13 114 -47 114 -47 3 -56 c3 -48 7 -60 33 -81 34 -29
84 -44 173 -54 53 -6 61 -10 64 -29 2 -13 0 -23 -5 -23 -4 0 -52 -5 -106 -10
-91 -9 -109 -7 -238 19 -80 17 -154 39 -174 51 -58 36 -360 361 -707 762
l-180 207 -36 -24 c-49 -32 -143 -70 -215 -85 -31 -7 -57 -16 -57 -19 0 -3 46
-139 101 -301 130 -378 248 -737 290 -879 30 -103 31 -115 20 -165 -6 -29 -27
-85 -46 -124 -32 -68 -36 -72 -75 -78 -22 -4 -40 -9 -40 -12 0 -3 13 -26 29
-51 51 -79 73 -163 80 -301 l6 -125 84 -7 c170 -14 515 -102 528 -134 13 -35
-15 -35 -131 0 -155 47 -303 75 -439 82 l-112 6 -110 -50 c-130 -58 -127 -48
-64 -209 41 -105 118 -236 185 -318 85 -103 259 -219 382 -256 42 -12 49 -22
33 -48 -7 -11 -17 -10 -62 4 -166 54 -325 175 -445 337 -58 79 -137 238 -170
344 l-25 81 -54 22 c-161 67 -331 239 -390 396 l-17 43 -74 11 c-94 14 -269
14 -354 0 -35 -5 -93 -22 -128 -35 -45 -19 -90 -27 -158 -31 l-96 -6 -64 -75
c-35 -41 -64 -80 -64 -87 0 -9 20 -7 78 6 42 11 109 20 147 21 64 3 70 1 70
-16 0 -15 -31 -36 -130 -89 -187 -99 -175 -87 -175 -157 0 -32 4 -61 9 -65 5
-3 84 19 175 49 138 45 166 51 166 37 0 -9 -8 -67 -17 -129 l-18 -113 -152
-127 c-90 -75 -153 -134 -153 -144 0 -15 9 -18 58 -18 97 0 159 22 307 107
210 121 237 132 377 164 137 31 193 36 203 18 4 -6 5 -12 4 -14 -2 -2 -55 -15
-118 -29 -63 -14 -142 -39 -176 -55 -62 -29 -268 -162 -280 -180 -20 -33 159
-23 354 20 102 23 137 27 147 18 16 -13 18 -35 5 -44 -6 -3 -146 -26 -312 -51
-166 -25 -310 -49 -320 -55 -26 -14 -34 -48 -15 -67 14 -14 49 -17 226 -20
197 -4 211 -6 221 -24 6 -11 9 -21 7 -23 -2 -1 -105 -8 -230 -14 -218 -11
-231 -10 -303 10 -41 11 -79 17 -85 14 -5 -3 -10 -19 -10 -35 0 -52 85 -83
355 -131 281 -49 332 -70 307 -124 l-12 -25 -180 0 c-200 0 -235 -7 -371 -76
-114 -57 -86 -89 69 -78 139 9 432 -22 460 -50 14 -14 -17 -42 -88 -81 -82
-44 -182 -135 -328 -295 -104 -115 -132 -154 -132 -186 0 -56 56 -35 335 126
97 56 179 99 182 96 15 -14 -17 -38 -153 -115 -82 -46 -159 -90 -171 -97 -34
-21 -136 -199 -128 -223 15 -47 31 -43 290 64 138 57 251 102 252 101 8 -8
-22 -126 -38 -152 -30 -50 -63 -65 -192 -88 -67 -13 -122 -27 -124 -33 -5 -13
55 -29 135 -38 55 -6 62 -9 62 -29 0 -12 -16 -49 -35 -81 -38 -63 -39 -76 -3
-99 56 -36 69 -32 171 49 53 41 110 81 127 89 36 15 74 10 91 -10 14 -17 -7
-53 -51 -86 -48 -35 -36 -88 22 -88 15 0 43 8 63 17 19 9 38 14 41 10 11 -11
-17 -107 -103 -350 -76 -217 -82 -241 -71 -265 21 -43 43 -38 125 25 90 68
122 114 230 328 147 291 156 302 284 345 105 36 98 41 189 -140 48 -95 87
-160 96 -160 8 0 37 22 65 49 l52 50 -8 139 -7 139 46 117 c58 147 70 197 100
390 24 152 41 203 81 236 12 10 8 25 -32 103 -69 139 -128 240 -211 364 -62
94 -72 115 -62 128 7 8 16 15 21 15 13 0 178 -253 227 -348 23 -44 67 -148 96
-229 152 -421 249 -607 403 -775 355 -387 887 -734 1388 -905 234 -80 510
-134 845 -167 658 -65 1286 -58 1775 19 50 8 194 26 320 40 789 87 1433 192
2109 341 1514 335 2924 852 4048 1484 l197 111 213 39 c202 37 398 67 818 125
288 40 472 91 655 182 191 96 356 236 411 349 37 78 40 177 6 241 -57 108
-342 347 -637 532 -115 72 -131 87 -315 285 -107 114 -195 213 -195 219 0 30
125 64 295 82 116 11 117 33 5 81 -36 16 -65 34 -65 42 0 21 30 74 58 105 28
30 89 51 174 62 30 4 61 11 69 16 27 16 -15 40 -92 51 -41 6 -75 12 -77 13 -2
2 6 20 17 41 25 46 27 72 5 81 -21 8 -67 -15 -151 -76 -70 -51 -118 -65 -129
-37 -3 7 20 91 51 186 81 251 77 299 -17 199 l-49 -53 -49 18 c-27 10 -54 15
-60 11 -5 -3 -10 -22 -10 -41 0 -82 -33 -244 -49 -244 -19 0 -42 44 -79 150
-55 157 -51 150 -79 150 -28 0 -93 -36 -93 -51 0 -24 -34 -18 -80 15 -27 20
-50 32 -50 27 0 -5 17 -56 38 -114 l38 -103 -36 -35 c-20 -19 -40 -50 -46 -69
l-9 -34 -65 60 c-36 33 -96 86 -135 119 -38 32 -70 65 -70 74 0 34 94 87 230
130 74 23 137 46 140 51 8 13 -32 35 -90 50 -27 7 -55 17 -62 22 -15 12 -3 55
31 113 22 37 36 47 98 73 40 16 86 34 102 39 77 24 17 58 -88 49 -63 -6 -68
-5 -61 11 17 43 25 79 19 95 -11 36 -46 18 -145 -78 -56 -54 -84 -74 -103 -74
-33 0 -33 5 0 234 20 136 24 184 15 202 -15 34 -37 21 -73 -42 -32 -58 -40
-61 -110 -45 l-38 9 0 -149 c0 -140 -1 -149 -19 -149 -20 0 -46 37 -126 183
-37 67 -53 87 -70 87 -20 0 -73 -47 -91 -82 -9 -16 -15 -15 -72 12 -34 16 -62
27 -62 24 0 -3 26 -51 57 -106 46 -83 54 -103 45 -117 -36 -48 -52 -78 -52
-94 0 -30 30 -79 92 -149 33 -38 57 -68 53 -68 -4 0 -64 32 -133 71 -117 66
-134 73 -219 85 -125 18 -153 32 -203 99 l-42 57 24 26 c56 63 104 92 223 135
166 60 167 73 5 104 -44 9 -45 10 -42 43 9 92 55 143 172 191 30 12 62 28 70
36 13 12 13 15 0 23 -20 13 -86 12 -133 -1 -22 -6 -41 -8 -44 -6 -2 3 1 24 7
46 26 96 -18 107 -93 25 -111 -122 -126 -136 -144 -132 -16 3 -18 14 -18 83 0
44 4 139 8 210 7 108 6 133 -6 150 -20 26 -38 10 -72 -60 l-25 -53 -61 5 -62
6 6 -34 c17 -98 28 -239 20 -254 -9 -15 -13 -14 -40 9 -17 14 -46 50 -64 79
-90 144 -101 157 -124 157 -22 0 -65 -41 -91 -85 -10 -18 -12 -18 -67 3 -31
12 -57 18 -57 14 0 -4 27 -47 60 -97 33 -49 60 -94 60 -98 0 -5 -11 -23 -25
-41 -47 -62 -31 -110 69 -204 62 -57 82 -92 54 -92 -6 0 -124 49 -262 109
-138 60 -268 117 -289 125 l-38 16 28 51 c31 57 81 99 210 173 130 75 130 85
2 93 -71 5 -79 8 -80 27 -6 103 21 149 137 227 41 27 74 54 74 59 0 17 -87 11
-140 -10 l-50 -20 0 54 c0 34 -5 58 -14 65 -29 24 -58 -7 -140 -151 -33 -59
-64 -78 -83 -52 -7 10 -13 23 -13 30 0 40 -32 326 -41 356 -21 81 -57 54 -83
-64 -6 -26 -10 -28 -54 -28 -77 0 -78 -4 -44 -111 35 -109 48 -184 34 -193
-14 -9 -81 49 -157 136 -73 84 -87 93 -115 78 -24 -13 -60 -72 -60 -97 0 -20
-3 -20 -65 -8 -36 6 -65 9 -65 6 1 -3 36 -44 79 -91 l79 -84 -19 -35 c-10 -20
-19 -48 -19 -63 0 -34 46 -88 114 -134 28 -19 49 -34 46 -34 -10 0 -591 228
-597 234 -13 13 57 84 148 149 108 78 136 103 125 114 -4 5 -46 7 -92 5 l-84
-2 0 61 c0 86 20 121 112 193 43 33 78 67 78 75 0 20 -66 9 -134 -22 l-56 -26
0 45 c0 51 -14 84 -35 84 -19 0 -58 -54 -89 -123 -34 -77 -63 -117 -86 -117
-23 0 -23 0 -60 203 -31 170 -50 237 -69 237 -16 0 -38 -50 -46 -102 l-7 -46
-59 -7 c-32 -4 -59 -10 -59 -15 0 -4 14 -40 30 -81 40 -97 63 -176 56 -195 -9
-24 -55 6 -156 101 -59 56 -97 85 -112 85 -26 0 -62 -47 -74 -94 l-7 -29 -66
6 -66 6 90 -83 c86 -81 89 -85 77 -110 -7 -15 -12 -45 -12 -68 0 -35 6 -47 40
-80 28 -25 35 -38 24 -38 -37 0 -450 93 -461 104 -12 11 44 91 126 180 50 55
91 103 91 108 0 18 -34 20 -91 4 -82 -22 -87 -21 -98 22 -25 88 -10 136 73
232 58 68 68 90 39 90 -22 0 -114 -52 -132 -74 -21 -25 -28 -19 -35 25 -20
124 -77 96 -111 -54 -24 -107 -40 -139 -67 -135 -19 2 -33 28 -88 163 -91 224
-115 261 -139 216z m1062 -2008 c19 -22 39 -99 67 -258 33 -190 34 -191 89
-72 41 89 80 142 110 150 31 8 59 -19 66 -63 4 -22 8 -40 10 -40 1 0 22 7 45
15 78 27 151 13 138 -27 -3 -7 -37 -40 -78 -73 -93 -77 -109 -99 -117 -163
l-6 -52 81 0 c60 0 85 -4 96 -16 9 -8 16 -18 16 -20 0 -20 -33 -51 -118 -112
-160 -114 -207 -184 -184 -269 5 -21 18 -67 27 -103 9 -36 23 -72 30 -80 13
-15 20 -47 17 -82 -4 -38 -82 -11 -82 28 0 8 8 14 18 14 12 0 14 2 4 8 -21 14
-67 191 -67 258 0 55 4 67 38 117 24 35 67 76 118 113 139 101 136 96 52 89
l-72 -6 -11 42 c-25 92 12 187 99 253 28 21 51 40 51 42 0 7 -55 -17 -107 -47
l-53 -30 0 76 c0 51 -3 74 -11 70 -6 -4 -30 -48 -55 -98 -61 -126 -107 -163
-147 -119 -10 11 -29 89 -51 206 -41 224 -49 241 -62 140 -8 -58 -24 -74 -76
-74 -21 0 -38 -4 -38 -10 0 -5 13 -42 29 -83 60 -152 64 -207 13 -207 -35 0
-56 15 -170 119 l-94 85 -18 -24 c-11 -14 -20 -43 -22 -65 -3 -38 -5 -40 -42
-45 l-39 -5 63 -58 63 -59 -17 -34 c-9 -19 -16 -50 -16 -69 0 -41 28 -66 138
-119 64 -32 72 -39 72 -65 0 -34 -34 -81 -60 -81 -23 0 -28 -16 -40 -119 -7
-58 -6 -89 2 -107 10 -20 8 -28 -6 -42 -16 -16 -18 -16 -36 8 -22 29 -23 44
-10 157 10 94 28 134 64 151 14 6 26 16 26 20 0 5 -27 24 -61 42 -126 67 -159
116 -139 201 l13 53 -74 65 c-41 36 -91 82 -113 102 l-39 36 54 -8 c30 -4 73
-8 96 -8 40 -1 44 1 58 36 9 21 26 48 37 60 39 42 64 31 182 -77 60 -55 111
-98 113 -96 3 2 -18 62 -46 133 -28 71 -51 134 -51 140 0 6 28 15 62 20 l62 8
14 55 c15 60 36 90 62 90 9 0 24 -8 33 -17z m-1348 -39 c24 -24 59 -98 116
-245 28 -74 53 -136 56 -138 9 -12 24 22 43 99 37 145 72 190 125 156 13 -8
26 -29 30 -46 4 -16 9 -30 11 -30 2 0 30 14 61 30 63 34 94 37 118 14 15 -15
14 -18 -1 -43 -10 -14 -39 -51 -64 -81 -61 -71 -70 -89 -70 -142 0 -70 6 -73
95 -58 67 11 78 11 92 -2 23 -24 10 -49 -74 -140 -105 -114 -130 -151 -144
-212 -11 -52 -11 -53 36 -146 26 -52 57 -106 70 -120 27 -31 38 -69 23 -87
-17 -21 -35 -15 -48 18 -7 16 -42 81 -77 142 -64 111 -65 113 -59 171 8 83 35
132 127 231 45 48 78 89 75 92 -3 4 -33 -2 -67 -12 -52 -16 -62 -17 -70 -4
-30 47 -38 158 -15 212 7 18 32 53 56 80 56 63 35 60 -44 -7 l-63 -54 -6 65
c-9 113 -33 104 -63 -23 -21 -93 -38 -130 -68 -149 -43 -28 -66 -4 -115 122
-76 193 -103 253 -113 253 -5 0 -8 -27 -7 -62 l3 -63 -41 -15 c-23 -8 -44 -18
-48 -22 -3 -3 15 -38 40 -78 86 -135 101 -181 60 -196 -31 -12 -85 8 -186 71
-57 36 -110 65 -116 65 -15 0 -27 -40 -27 -95 -1 -38 -3 -40 -33 -43 -18 -2
-33 -6 -33 -10 0 -4 33 -27 74 -51 69 -41 74 -46 65 -68 -5 -14 -9 -42 -9 -63
0 -31 6 -43 28 -59 25 -18 118 -51 183 -65 49 -11 48 -96 -2 -122 -23 -11 -29
-21 -29 -47 1 -61 19 -176 32 -196 17 -28 -4 -51 -30 -35 -30 19 -41 57 -48
167 l-7 107 37 34 c20 19 33 37 29 39 -5 2 -39 14 -78 25 -131 40 -181 90
-170 173 l5 45 -126 74 c-133 77 -140 90 -53 90 88 0 106 8 113 49 3 20 15 51
26 69 30 49 63 44 184 -31 118 -74 141 -85 132 -61 -3 9 -38 66 -77 126 -40
60 -70 111 -67 113 3 3 29 13 59 23 l54 19 6 66 c3 36 11 73 18 81 17 21 45
20 66 0z m2557 -96 c25 -20 36 -72 53 -238 19 -191 22 -205 39 -191 7 6 30 42
51 81 43 78 97 140 122 140 30 0 53 -31 53 -73 0 -38 1 -39 28 -33 15 4 52 10
83 13 44 4 59 2 72 -12 25 -24 8 -48 -71 -99 -97 -63 -124 -95 -130 -154 l-4
-49 73 -7 c86 -8 119 -29 100 -64 -6 -11 -60 -50 -119 -86 -112 -67 -178 -127
-201 -183 -11 -28 -10 -45 9 -134 13 -57 29 -118 36 -136 26 -60 1 -97 -50
-77 -19 7 -22 54 -3 54 8 0 9 2 1 8 -6 4 -15 27 -18 52 -4 25 -14 77 -22 117
-7 39 -11 86 -8 105 16 86 85 157 230 240 l76 43 -73 5 -74 5 -3 68 c-5 108
28 159 148 234 53 34 18 27 -67 -12 -42 -19 -77 -35 -78 -35 -2 0 1 17 6 38
11 47 12 112 1 112 -4 0 -19 -18 -32 -41 -100 -164 -118 -184 -163 -177 -34 5
-44 40 -61 220 -9 92 -20 177 -25 189 -7 21 -8 21 -19 -11 -7 -18 -12 -44 -12
-57 0 -27 -32 -43 -87 -43 -29 0 -34 -3 -28 -17 22 -58 55 -191 55 -223 0 -22
-7 -43 -15 -50 -27 -22 -74 10 -170 114 -49 53 -95 96 -102 96 -16 0 -35 -36
-42 -80 -6 -33 -9 -35 -50 -38 l-44 -3 62 -63 62 -63 -20 -34 c-34 -55 -28
-90 23 -137 24 -22 67 -52 94 -66 62 -32 66 -38 52 -82 -8 -25 -22 -40 -48
-52 -42 -20 -58 -61 -69 -177 -5 -64 -14 -84 -36 -85 -4 0 -12 10 -18 23 -7
16 -5 48 10 117 26 130 35 148 76 166 19 8 35 17 35 19 0 3 -25 21 -56 41
-122 78 -160 144 -128 223 l16 41 -100 107 c-56 59 -99 109 -98 110 2 2 35 -3
75 -12 40 -8 78 -15 86 -15 7 0 25 20 40 45 31 53 66 79 94 70 11 -3 64 -54
118 -112 68 -74 99 -101 101 -89 3 13 -49 194 -74 261 -5 12 1 15 27 15 19 0
50 3 70 6 32 5 37 10 47 51 11 41 50 93 70 93 4 0 15 -6 24 -12z m-3745 -182
c21 -24 74 -103 117 -175 76 -127 92 -148 102 -139 2 3 8 50 14 105 11 118 20
146 56 169 26 18 27 18 54 -13 15 -17 30 -37 32 -44 6 -16 13 -12 72 35 24 19
49 29 74 30 55 2 54 -28 -3 -120 -48 -77 -62 -128 -51 -186 11 -59 17 -61 79
-33 34 16 70 25 89 23 54 -5 48 -34 -31 -155 -86 -133 -101 -168 -101 -237 0
-51 4 -60 52 -123 28 -37 71 -89 95 -115 50 -55 55 -83 16 -93 -26 -6 -53 13
-53 37 0 4 -6 16 -14 25 -103 127 -155 216 -156 264 0 53 42 156 100 244 32
49 57 91 55 93 -2 2 -29 -8 -61 -22 -31 -14 -60 -26 -64 -26 -20 0 -60 107
-61 162 -1 48 4 67 35 124 20 36 35 68 32 71 -2 2 -28 -24 -56 -59 -29 -35
-56 -64 -60 -66 -4 -2 -11 14 -15 35 -4 21 -13 54 -22 73 -20 49 -29 28 -41
-95 -6 -55 -16 -112 -23 -128 -14 -31 -48 -44 -76 -29 -10 6 -58 75 -106 155
-48 80 -97 156 -108 169 l-20 23 5 -35 c2 -19 8 -49 11 -65 6 -28 3 -32 -37
-54 -24 -13 -45 -25 -46 -27 -2 -1 33 -44 77 -94 45 -51 84 -103 87 -116 17
-66 -58 -70 -201 -9 -126 52 -141 54 -149 18 -4 -16 -2 -42 4 -57 15 -41 13
-44 -27 -62 l-38 -16 82 -32 83 -31 -2 -54 c-2 -47 1 -56 24 -76 31 -27 106
-45 183 -45 l54 0 11 -41 c9 -33 8 -45 -5 -65 -8 -13 -20 -24 -25 -24 -16 0
-12 -47 11 -132 16 -58 28 -83 45 -95 24 -15 32 -47 15 -58 -5 -3 -25 2 -45
11 -32 16 -37 24 -57 98 -12 45 -24 105 -27 134 -4 45 -1 57 18 77 13 14 21
27 18 30 -2 3 -41 11 -85 19 -93 16 -148 40 -166 70 -7 11 -17 43 -22 71 l-10
49 -133 50 c-72 28 -132 53 -132 56 0 4 37 15 83 26 l82 19 7 54 c13 109 42
127 139 86 125 -52 192 -76 202 -72 5 1 -34 51 -87 109 -53 59 -96 109 -96
112 0 2 25 18 55 35 l54 31 -6 65 c-5 54 -3 69 12 85 26 29 39 25 82 -24z
m-4911 -171 c10 -25 -85 -165 -166 -245 -111 -111 -240 -170 -369 -170 -48 0
-51 2 -51 25 0 23 4 25 43 25 176 0 374 138 477 333 25 48 55 62 66 32z m9901
-27 c22 -27 24 -80 12 -250 -7 -98 -9 -181 -5 -185 4 -4 41 30 83 75 85 93
123 118 152 102 25 -13 35 -43 27 -84 l-6 -31 74 3 c65 4 76 2 96 -18 12 -12
20 -27 18 -33 -2 -7 -50 -35 -107 -62 -87 -43 -107 -57 -126 -90 -13 -22 -25
-51 -27 -64 -3 -22 2 -26 64 -41 76 -19 100 -35 96 -64 -3 -24 -33 -40 -168
-92 -108 -42 -157 -73 -191 -123 -22 -32 -24 -42 -21 -145 2 -60 8 -121 13
-134 6 -16 6 -36 -1 -58 -10 -31 -13 -32 -41 -22 -21 7 -29 16 -29 34 0 13 3
24 8 24 4 0 3 51 -1 113 -9 122 -3 167 33 225 28 45 124 105 231 143 49 17 89
35 89 40 0 4 -29 11 -65 14 -36 4 -67 11 -70 14 -2 4 0 36 5 71 13 92 47 135
140 182 82 42 71 48 -33 19 -37 -10 -67 -15 -67 -12 0 4 9 35 21 70 12 34 18
65 14 69 -3 4 -48 -37 -98 -91 -96 -101 -119 -113 -153 -80 -15 15 -16 33 -11
153 4 74 10 166 13 204 9 84 -9 88 -39 7 l-20 -52 -55 7 -55 7 7 -49 c3 -27 9
-87 13 -134 5 -73 3 -88 -11 -103 -10 -9 -25 -17 -33 -17 -25 0 -86 70 -142
164 -29 47 -57 88 -62 92 -16 9 -69 -46 -69 -72 0 -27 -16 -34 -54 -23 -16 5
-31 7 -33 5 -2 -2 19 -36 46 -77 l50 -73 -35 -38 c-19 -21 -34 -45 -34 -54 0
-31 31 -73 101 -138 70 -65 71 -67 59 -96 -15 -37 -32 -51 -71 -59 -26 -5 -34
-15 -54 -62 -12 -31 -28 -79 -36 -108 -14 -54 -31 -77 -49 -66 -18 11 -11 62
22 152 35 96 71 143 112 143 14 0 26 3 26 7 0 3 -31 37 -69 74 -96 94 -112
157 -62 228 l20 28 -86 128 c-54 81 -78 125 -67 121 11 -4 49 -19 86 -33 l68
-26 43 46 c33 36 50 47 74 47 37 0 62 -28 142 -154 32 -51 58 -83 64 -77 5 5
2 55 -7 122 -24 172 -28 161 48 153 l64 -7 22 42 c37 73 82 101 107 69z
m-6083 -232 c29 -45 76 -120 105 -168 29 -49 56 -88 61 -88 13 0 18 25 25 120
8 99 27 148 62 156 26 7 68 -23 78 -57 6 -16 12 -14 55 20 49 39 100 58 120
46 21 -13 8 -56 -40 -136 -55 -90 -62 -131 -36 -194 l15 -34 61 25 c136 55
151 16 54 -135 -91 -141 -107 -182 -102 -246 4 -44 12 -62 53 -116 27 -35 69
-85 92 -111 49 -54 55 -85 18 -94 -31 -8 -58 12 -50 37 4 11 2 19 -4 19 -14 0
-150 187 -157 217 -10 40 2 146 21 183 9 19 42 72 73 118 30 45 52 85 49 88
-3 3 -28 -6 -56 -20 -28 -14 -56 -26 -64 -26 -33 0 -82 147 -67 201 5 17 25
61 45 97 l35 67 -65 -69 c-43 -47 -66 -65 -69 -55 -3 8 -10 32 -16 54 -12 49
-26 72 -37 62 -4 -5 -13 -57 -19 -117 -13 -121 -29 -160 -69 -160 -34 0 -56
26 -142 172 -42 69 -87 139 -100 155 l-24 28 7 -45 c14 -86 12 -92 -34 -118
l-42 -24 68 -76 c85 -95 102 -120 102 -149 0 -55 -65 -50 -228 20 -51 21 -98
37 -106 34 -18 -7 -28 -64 -15 -89 15 -27 5 -45 -32 -61 l-32 -13 79 -31 79
-30 5 -58 c4 -47 10 -61 31 -77 32 -24 88 -37 157 -38 38 0 57 -5 72 -20 29
-29 26 -76 -7 -106 l-27 -25 18 -77 c20 -83 41 -132 56 -132 13 0 13 -37 -1
-45 -5 -4 -23 -2 -38 5 -24 10 -30 22 -54 114 -34 130 -34 153 0 188 14 15 24
31 20 34 -3 3 -40 10 -82 15 -90 10 -160 40 -179 78 -8 14 -17 45 -21 68 l-7
42 -134 53 c-78 30 -129 55 -122 59 7 3 45 14 84 23 l70 17 11 65 c6 36 17 72
23 79 21 25 66 17 181 -31 61 -25 118 -44 127 -42 12 2 -11 33 -77 106 -60 65
-91 108 -87 117 3 8 26 25 51 37 l45 22 -6 72 c-6 66 -5 72 16 87 35 24 64 4
124 -87z m-1189 -194 c25 -17 60 -81 123 -223 37 -83 72 -151 77 -151 6 0 18
36 28 79 27 115 46 162 72 179 31 20 62 5 81 -42 8 -19 18 -34 22 -34 4 0 27
14 52 31 35 23 53 29 85 27 59 -4 57 -29 -11 -113 -85 -106 -93 -128 -78 -204
8 -36 17 -38 100 -16 51 13 60 13 81 0 13 -9 23 -18 23 -21 0 -15 -30 -57 -96
-133 -140 -162 -157 -228 -89 -344 22 -37 57 -90 78 -119 47 -65 49 -94 6
-100 -19 -3 -36 1 -45 9 -19 19 -18 33 2 33 13 0 13 3 -4 18 -11 9 -46 66 -77
126 -53 103 -56 113 -50 160 9 75 45 140 130 239 42 48 71 87 66 87 -6 0 -34
-9 -63 -20 -29 -11 -58 -20 -64 -20 -17 0 -45 70 -51 126 -6 61 17 121 73 189
20 25 34 45 30 45 -3 0 -36 -26 -74 -59 l-68 -58 -11 69 c-18 115 -30 106 -62
-46 -24 -111 -46 -146 -92 -146 -33 0 -43 14 -107 160 -69 159 -94 210 -105
210 -5 0 -6 -26 -2 -60 l7 -60 -46 -21 c-25 -11 -46 -24 -46 -28 0 -4 22 -39
48 -77 65 -92 84 -130 80 -162 -3 -25 -6 -27 -50 -26 -38 0 -65 11 -154 62
-59 34 -113 62 -120 62 -18 0 -28 -43 -20 -90 6 -39 6 -39 -35 -51 l-40 -13
58 -32 c94 -52 105 -62 93 -84 -20 -36 -12 -87 16 -109 31 -24 143 -61 185
-61 22 0 32 -6 39 -26 16 -42 12 -64 -20 -92 -24 -21 -30 -35 -30 -66 0 -69
21 -164 40 -181 18 -16 17 -55 -2 -55 -18 0 -48 21 -58 41 -6 11 -17 66 -24
122 -15 109 -9 150 25 168 21 11 26 39 7 39 -7 0 -46 10 -87 22 -54 16 -85 32
-113 58 -35 34 -38 41 -38 92 l0 55 -129 69 c-72 38 -125 72 -119 75 6 4 46
10 88 14 l77 7 12 52 c24 110 63 122 176 55 101 -59 165 -91 165 -81 0 12 -54
95 -111 170 l-51 67 61 28 61 27 0 58 c0 80 34 123 75 94z m8396 -22 c27 -15
26 -113 -3 -297 -12 -79 -18 -146 -14 -150 3 -4 37 23 74 58 87 85 119 109
148 109 39 0 57 -27 49 -75 l-6 -42 72 -5 c55 -4 76 -10 92 -27 32 -32 13 -51
-86 -87 -108 -39 -132 -55 -157 -104 -31 -61 -35 -57 73 -95 49 -17 71 -42 61
-69 -6 -17 -41 -30 -190 -75 -108 -33 -166 -69 -196 -124 -15 -26 -18 -57 -18
-172 0 -160 -7 -184 -50 -162 -27 13 -44 75 -18 65 10 -4 14 22 16 125 3 145
15 183 73 231 46 39 92 60 194 91 131 38 123 35 105 45 -8 4 -41 13 -73 20
l-58 12 6 36 c18 110 71 176 166 207 103 33 85 45 -31 21 -36 -8 -66 -13 -68
-11 -2 2 8 30 22 64 30 70 30 71 12 71 -7 0 -50 -36 -94 -80 -69 -68 -86 -80
-114 -80 -65 0 -70 26 -39 223 27 176 32 217 23 217 -4 0 -20 -25 -35 -56 -24
-47 -31 -55 -50 -51 -12 3 -36 8 -54 12 l-31 6 1 -134 c2 -101 -1 -138 -12
-150 -34 -42 -80 1 -160 147 -34 64 -65 116 -67 116 -19 0 -55 -38 -65 -67
-10 -30 -15 -34 -38 -30 -14 2 -34 8 -43 12 -13 5 -6 -15 24 -73 l43 -79 -33
-37 c-20 -23 -32 -47 -32 -65 0 -36 50 -111 108 -160 44 -38 45 -40 32 -71
-16 -38 -48 -61 -81 -58 -21 3 -30 -8 -69 -84 -49 -94 -79 -133 -92 -120 -10
10 9 67 55 158 41 81 55 95 104 103 l37 6 -58 65 c-70 78 -87 109 -88 161 0
35 7 52 46 104 5 7 -15 52 -57 126 -93 161 -92 156 -6 114 40 -19 80 -35 87
-35 8 0 23 11 34 25 23 29 68 55 96 55 28 0 49 -29 112 -147 31 -59 61 -108
68 -111 9 -3 10 32 5 144 l-6 147 39 -7 c21 -4 51 -10 65 -13 22 -4 30 1 53
41 14 25 36 52 48 61 27 18 24 18 49 5z m-9513 -133 c25 -26 63 -108 122 -265
24 -62 48 -111 54 -109 6 2 25 52 42 111 35 118 53 146 96 146 25 0 32 -6 46
-40 9 -22 21 -40 25 -40 4 0 29 11 55 25 50 27 101 32 120 13 15 -15 4 -35
-71 -126 -56 -68 -61 -78 -64 -130 -5 -78 3 -88 60 -73 85 21 137 11 137 -26
0 -7 -46 -64 -101 -125 -105 -115 -138 -170 -139 -226 0 -35 77 -198 116 -245
13 -16 24 -42 24 -58 0 -24 -4 -29 -25 -29 -25 0 -51 32 -40 50 3 6 2 10 -4
10 -5 0 -35 51 -65 113 -67 137 -71 174 -26 263 16 33 65 98 110 147 45 48 77
87 72 87 -6 0 -38 -9 -72 -19 l-62 -19 -19 41 c-11 26 -19 65 -19 103 0 63 15
95 87 183 23 29 25 32 7 23 -11 -6 -43 -31 -71 -56 -28 -25 -53 -46 -56 -46
-2 0 -7 30 -10 67 -12 120 -28 107 -69 -55 -23 -90 -50 -132 -87 -132 -29 0
-55 39 -96 148 -45 118 -102 242 -111 242 -4 0 -4 -29 0 -64 l6 -64 -50 -17
c-27 -9 -50 -19 -50 -22 0 -3 23 -42 51 -85 61 -95 82 -143 74 -168 -16 -52
-77 -32 -259 84 -52 34 -60 36 -74 23 -9 -10 -15 -35 -16 -68 -1 -51 -2 -52
-38 -63 l-38 -11 75 -43 c41 -24 75 -48 75 -54 0 -6 -5 -28 -11 -49 -10 -32
-9 -42 5 -63 22 -34 81 -63 166 -82 l70 -16 0 -47 c0 -41 -4 -50 -31 -70 l-32
-24 7 -90 c3 -53 12 -100 21 -113 18 -28 20 -64 3 -64 -7 0 -23 8 -36 18 -26
20 -42 97 -42 209 0 69 1 73 32 97 40 31 35 36 -57 65 -38 12 -84 31 -101 42
-44 27 -68 80 -60 133 l6 41 -126 73 c-69 40 -123 76 -119 80 4 4 43 9 87 12
l81 5 12 47 c17 67 40 98 73 98 17 0 64 -23 116 -55 90 -57 140 -85 151 -85 9
0 -19 50 -85 151 -33 52 -60 97 -60 101 0 4 27 15 60 24 l60 17 0 41 c0 51 15
107 32 118 21 13 33 9 56 -15z m-1127 -62 c15 -22 55 -111 90 -198 35 -86 68
-156 73 -154 6 2 16 26 23 53 35 132 55 185 78 200 33 22 63 9 83 -34 9 -21
17 -38 18 -40 1 -2 28 10 59 27 62 33 94 38 113 19 21 -21 13 -42 -43 -106
-71 -81 -85 -110 -85 -169 0 -71 6 -75 70 -58 70 19 104 19 120 0 19 -23 4
-49 -77 -137 -105 -114 -130 -151 -143 -210 -10 -49 -9 -55 27 -132 21 -44 53
-100 71 -124 44 -58 47 -92 9 -106 -24 -9 -31 -7 -43 9 -19 25 -18 35 4 36 13
1 13 2 2 6 -8 2 -41 58 -74 124 -53 111 -58 125 -53 169 9 72 49 142 134 231
42 44 73 82 69 86 -3 4 -30 -1 -60 -10 -29 -9 -57 -17 -63 -17 -19 0 -43 79
-43 144 0 67 14 97 81 174 16 18 29 35 29 39 0 8 -68 -44 -111 -84 l-36 -35
-7 64 c-10 86 -21 103 -39 58 -8 -19 -22 -69 -32 -110 -13 -53 -26 -83 -46
-102 -54 -55 -75 -33 -149 155 -29 72 -63 152 -77 177 l-23 45 3 -72 3 -73
-48 -16 c-26 -8 -48 -18 -48 -21 0 -3 25 -45 55 -93 73 -115 83 -145 60 -170
-10 -11 -24 -20 -32 -20 -19 0 -119 52 -206 106 -39 24 -75 44 -78 44 -12 0
-28 -63 -26 -99 2 -32 -1 -36 -36 -46 l-38 -11 76 -42 c41 -24 75 -49 75 -55
0 -7 -5 -29 -11 -50 -8 -31 -7 -43 5 -63 22 -32 82 -61 167 -81 l70 -15 -3
-52 c-2 -41 -7 -53 -25 -61 -28 -12 -32 -37 -22 -140 6 -74 11 -87 34 -107 23
-21 25 -25 12 -43 -14 -19 -15 -19 -50 8 -39 29 -43 43 -53 184 l-7 93 38 35
c27 24 34 36 24 39 -8 2 -47 14 -88 26 -54 16 -84 31 -115 60 -39 37 -41 41
-40 97 l1 59 -76 42 c-42 24 -100 58 -130 77 l-55 33 92 7 91 8 15 51 c20 68
41 96 72 96 14 0 78 -31 141 -70 64 -38 120 -70 125 -70 11 0 0 20 -78 143
-35 55 -64 104 -64 107 0 4 27 15 60 25 l60 18 0 61 c0 109 49 139 101 61z
m-2258 -595 c5 -4 -51 -42 -124 -83 -73 -42 -135 -74 -137 -72 -2 2 15 43 38
91 l42 87 86 -7 c48 -4 91 -11 95 -16z m1710 -162 c16 -64 28 -211 22 -275 -9
-97 -49 -182 -107 -223 -39 -29 -43 -30 -55 -14 -18 24 -17 26 21 51 77 49
110 193 83 363 -8 57 -13 108 -11 112 11 17 42 7 47 -14z"/>
<path d="M1300 6285 c-6 -7 -21 -47 -34 -87 l-22 -73 -78 -5 c-66 -4 -81 -8
-97 -29 -25 -30 -24 -55 5 -116 24 -53 143 -214 224 -305 l49 -55 74 13 c87
14 247 88 278 128 38 48 25 206 -29 364 -27 76 -58 142 -73 152 -15 9 -45 -8
-87 -48 l-35 -33 -45 35 c-25 19 -61 43 -82 54 -31 17 -38 17 -48 5z"/>
<path d="M1320 4065 c-36 -19 -109 -48 -163 -65 -59 -19 -100 -37 -104 -47 -4
-9 -2 -39 4 -67 13 -61 8 -76 -23 -76 -13 0 -24 -3 -24 -6 0 -3 17 -38 37 -78
74 -141 240 -279 385 -317 43 -12 47 -11 150 38 103 49 105 51 111 89 16 96 3
220 -32 316 -25 65 -85 148 -108 148 -8 0 -44 20 -79 45 -34 25 -69 47 -76 50
-7 2 -42 -11 -78 -30z"/>
</g>
</svg>
