<?xml version="1.0" encoding="UTF-8" standalone="no"?>
<!-- Created with Inkscape (http://www.inkscape.org/) -->

<svg
   xmlns:svg="http://www.w3.org/2000/svg"
   xmlns="http://www.w3.org/2000/svg"
   version="1.1"
   width="100%"
   height="100%"
   viewBox="0 0 400 400"
   id="Layer_2"
   xml:space="preserve"><defs
   id="defs7" />
<path
   d="m 369.23,231.67 c -1.65,-11.02 -8.29,-20.84 -16.82,-27.65 -7.87,-7.59 -12.79,-17.48 -17.89,-27.08 -4.64,-9.6 -5.35,-21.04 -12.2,-29.59 -8.07,-7.48 -7.37,-17.27 -13.25,-26.14 -2.95,-5.45 -6.93,-10.27 -11.5,-14.45 -6.55,-5.99 -14.18,-10.67 -21.88,-15.02 -3.87,-2.19 -7.79,-4.29 -11.67,-6.46 -3.55,-1.98 -5.56,-5.08 -9.2,-6.98 -2.05,-1.07 -4.31,-1.11 -6.3,-2.35 -1.97,-1.23 -3.63,-2.84 -5.46,-4.25 -2.31,-1.77 -4.68,-1.78 -7.26,-2.8 -1.5,-0.59 -2.74,-1.67 -4.19,-2.36 -5.04,-2.9 -10.54,-5.5 -16.11,-6.99 -1.21,-1.34 -2.23,-1.32 -3.85,-1.64 -0.92,-0.18 -1.33,-0.59 -2.12,-1.14 -1.51,-1.04 -2.75,-1.52 -4.02,-2.83 -1.47,-1.52 -3.49,-2.83 -5.33,-3.86 -1.82,-0.21 -2.88,-1.43 -4.45,-2.25 -1.16,-0.44 -2.31,-0.33 -3.39,-1.14 -4.48,-1.71 -8.28,2.77 -12.25,4.2 -5.22,4.8 -12.65,5.03 -19.09,7.51 -21.84,9.83 -41.56,8.47 -58.11,29.69 -19.78,8.05 -32.74,27.27 -51.73,36.86 -14.4,9.85 -23.85,24.83 -27.67,41.83 -4.79,10.86 -5.73,22.41 -5.18,34.19 0.89,18.98 13.93,33.67 27.37,45.62 14.31,14.41 33.73,22.32 51.06,32.45 7.46,1.98 14.29,5.78 21.12,8.94 23.23,5.75 44.12,18.31 67.14,24.37 10.35,11.12 24.75,16.54 38.48,22.26 13.31,6.9 27.93,11.23 42.29,15.33 18.49,3.36 37.25,2.26 55.78,-0.05 8.76,-0.55 16.52,-5.1 24.03,-9.24 6.9,-2.48 11.08,-7.74 14.75,-13.78 17.53,-22.75 25.3,-70.44 8.9,-95.2 z m -34.7,72.89 c -4.99,5.33 -11.44,9.09 -17.95,12.25 -6.92,3.36 -14.7,5.58 -22.45,6.22 -13.09,1.07 -26.41,0.71 -39.31,-1.88 -11.81,-2.37 -23.55,-6.43 -34.47,-11.44 -7.32,-3.35 -15.51,-7.48 -20.03,-14.48 -5.42,-8.39 -4.59,-21.86 -3.19,-31.3 1.56,-10.49 5.04,-20.64 9.41,-30.27 1.57,-3.47 4.52,-3.95 7.78,-5.01 11.49,-3.74 23.57,-5.36 35.13,-8.96 6.71,-2.09 13.7,-4.15 20.58,-5.7 5.84,-1.32 11.72,-2.49 17.52,-3.97 1.92,-0.49 4.28,-1.23 6.65,-1.65 6.08,-1.06 9.82,2.26 14.67,5.07 13.49,7.83 23.97,18.55 31.02,32.48 9.3,18.42 9.32,42.97 -5.36,58.64 z"
   id="path3" />
</svg>