<?xml version="1.0" encoding="UTF-8" standalone="no"?>
<!-- Created with Inkscape (http://www.inkscape.org/) -->

<svg
   xmlns:svg="http://www.w3.org/2000/svg"
   xmlns="http://www.w3.org/2000/svg"
   version="1.2"
   width="12.653"
   height="23.934"
   viewBox="0 0 12.653 23.934"
   id="Layer_1"
   xml:space="preserve"
   style="overflow:inherit"><defs
   id="defs9" />
<path
   d="M 8.967,4.578 C 9.373,3.752 9.185,1.703 10.893,3.439 l 0.896,0.759 C 13.334,5.554 12.031,4.836 11.68,5.825 10.405,9.136 10.239,13.153 9.753,16.023 9.238,19.088 7.833,20.221 8.29,21.421 9.238,23.916 7.23,23.156 6.228,23.075 5.226,22.994 0.614,25.678 1.806,21.258 1.183,15.48 -1.063,16.875 0.938,9.404 2.864,2.677 1.862,4.088 1.373,2.216 0.914,1.023 0.642,1.212 2.839,0.996 4.625,0.819 4.655,-1.499 5.198,2.243 c 1.41,6.565 2.794,3.988 3.229,3.31 l 0.54,-0.975 z"
   id="path3"
   style="fill:#020202;stroke:#020202;stroke-width:0.25;stroke-miterlimit:10" />
<path
   d="M 2.771,5.42 C 2.75,5.3 2.725,5.183 2.691,5.066 2.677,5.007 2.657,4.95 2.655,4.886 2.643,4.83 2.66,4.744 2.715,4.709 2.819,4.623 2.947,4.613 3.067,4.593 3.188,4.576 3.305,4.558 3.419,4.521 3.647,4.446 3.847,4.312 4.066,4.201 4.169,4.15 4.328,4.094 4.45,4.195 4.555,4.293 4.583,4.423 4.619,4.54 V 4.555 C 4.674,5.023 4.928,5.488 5.13,5.936 5.345,6.387 5.574,6.833 5.802,7.28 6.267,8.167 6.72,9.063 7.143,9.973 c 0.434,0.907 0.844,1.825 1.2,2.767 0.087,0.236 0.183,0.468 0.252,0.71 0.07,0.243 0.165,0.477 0.211,0.727 0.052,0.246 0.124,0.489 0.13,0.745 0.046,0.252 -10e-4,0.507 -0.043,0.762 L 8.892,15.686 C 8.8,15.92 8.727,16.165 8.626,16.399 8.566,16.515 8.529,16.639 8.455,16.747 L 8.245,17.07 8.244,17.073 8.241,17.076 7.164,18.01 C 6.987,18.171 6.773,18.282 6.58,18.422 L 6.283,18.623 C 6.181,18.685 6.092,18.767 5.979,18.811 L 5.327,19.116 C 5.11,19.221 4.862,19.246 4.629,19.313 4.513,19.354 4.388,19.341 4.267,19.347 4.143,19.343 4.019,19.368 3.898,19.337 3.661,19.302 3.389,19.217 3.21,19.1 L 3.198,19.094 2.85,18.861 C 2.731,18.787 2.643,18.675 2.538,18.586 2.432,18.495 2.348,18.385 2.262,18.275 2.169,18.171 2.089,18.06 2.018,17.941 1.712,17.482 1.508,16.964 1.28,16.493 L 1.27,16.476 1.269,16.464 1.075,15.051 C 1.026,14.816 1.049,14.576 1.043,14.338 L 1.042,13.624 C 1.038,13.148 1.139,12.677 1.191,12.205 1.223,11.969 1.304,11.743 1.36,11.511 1.426,11.283 1.466,11.048 1.556,10.826 1.718,10.379 1.88,9.933 2.089,9.507 2.183,9.29 2.291,9.08 2.395,8.868 2.495,8.655 2.605,8.447 2.651,8.225 2.689,7.992 2.747,7.761 2.768,7.529 L 2.812,6.828 C 2.815,6.36 2.81,5.889 2.771,5.42"
   id="path5"
   style="fill:#020202" />
</svg>