<?xml version="1.0" standalone="no"?>
<!DOCTYPE svg PUBLIC "-//W3C//DTD SVG 20010904//EN"
 "http://www.w3.org/TR/2001/REC-SVG-20010904/DTD/svg10.dtd">
<svg version="1.0" xmlns="http://www.w3.org/2000/svg"
 width="1262.000000pt" height="1536.000000pt" viewBox="0 0 1262.000000 1536.000000"
 preserveAspectRatio="xMidYMid meet">
<metadata>
Created by potrace 1.16, written by Peter Selinger 2001-2019
</metadata>
<g transform="translate(0.000000,1536.000000) scale(0.100000,-0.100000)"
fill="#000000" stroke="none">
<path d="M5705 15354 c-117 -25 -202 -64 -292 -136 -79 -62 -145 -150 -195
-258 -61 -131 -62 -132 -129 -183 -38 -29 -75 -67 -91 -95 -33 -56 -51 -69
-143 -108 -93 -39 -129 -76 -155 -163 -11 -38 -36 -91 -55 -118 -51 -70 -64
-104 -76 -196 -20 -163 -31 -179 -135 -198 -86 -15 -90 -17 -140 -60 -25 -21
-54 -39 -65 -39 -59 0 -241 -143 -284 -225 -17 -30 -25 -35 -56 -35 -50 0
-184 -36 -244 -65 -112 -54 -157 -114 -210 -275 -37 -116 -62 -155 -139 -224
-93 -82 -100 -94 -106 -201 -5 -89 -6 -92 -47 -141 -68 -80 -76 -126 -47 -263
15 -72 14 -77 -7 -143 -22 -66 -22 -70 -6 -121 21 -66 22 -101 2 -117 -8 -6
-61 -16 -117 -21 -121 -10 -236 -38 -305 -72 -71 -37 -284 -198 -333 -254 -57
-65 -73 -99 -67 -140 6 -32 4 -35 -37 -52 -23 -11 -96 -36 -162 -56 -176 -55
-245 -95 -313 -181 -28 -35 -85 -50 -280 -70 -276 -28 -324 -43 -461 -145
-116 -87 -203 -177 -237 -246 -24 -50 -28 -70 -28 -143 0 -75 4 -93 33 -154
l33 -70 -31 -27 c-41 -38 -38 -67 10 -122 22 -25 40 -50 40 -56 0 -21 -78 -63
-175 -93 -167 -51 -211 -84 -262 -193 -25 -56 -28 -71 -33 -235 -7 -217 -13
-234 -139 -364 -203 -210 -237 -336 -124 -465 37 -42 49 -67 69 -139 25 -92
30 -132 15 -132 -20 0 -118 -101 -143 -147 -67 -123 -36 -234 79 -285 52 -23
90 -67 99 -115 7 -39 -9 -121 -51 -262 -30 -99 -32 -180 -6 -237 10 -22 45
-69 78 -105 119 -127 135 -176 92 -276 -41 -94 -20 -189 62 -278 50 -55 93
-78 169 -94 72 -15 116 -43 136 -85 15 -31 15 -37 0 -82 -34 -101 -9 -180 91
-279 72 -72 140 -111 244 -140 148 -41 195 -83 239 -209 29 -86 63 -138 122
-190 48 -42 90 -65 260 -145 60 -28 73 -41 143 -131 124 -163 261 -247 477
-296 142 -32 181 -62 240 -182 47 -95 140 -186 248 -242 94 -48 163 -108 253
-220 94 -117 146 -168 227 -223 131 -88 148 -105 207 -206 139 -237 220 -330
338 -386 38 -18 78 -36 88 -39 9 -3 20 -14 23 -23 24 -71 71 -140 175 -252
176 -192 282 -294 419 -402 69 -55 157 -126 195 -159 80 -69 182 -124 231
-124 32 0 34 -3 65 -74 37 -85 105 -197 151 -251 18 -21 80 -79 138 -128 129
-110 161 -146 202 -226 52 -103 195 -508 249 -706 78 -286 124 -389 223 -505
51 -60 60 -77 116 -216 51 -123 76 -167 120 -204 58 -49 94 -57 290 -70 139
-10 194 -17 220 -31 19 -9 71 -52 115 -95 159 -154 223 -178 505 -190 123 -6
221 -15 265 -26 97 -24 384 -25 510 -1 113 21 178 21 239 1 66 -23 144 -14
230 25 38 17 98 36 134 41 80 13 114 31 131 67 19 40 29 169 20 233 -5 30 -12
89 -15 132 -6 72 -5 80 25 144 44 94 76 133 128 156 39 17 56 19 131 12 102
-10 137 -7 175 13 34 17 104 122 113 169 9 46 47 81 97 89 78 12 105 25 128
62 25 39 79 67 112 57 12 -3 47 -30 77 -59 30 -30 68 -59 83 -64 43 -16 117
-13 162 8 55 24 90 69 137 171 75 163 79 169 140 215 82 62 158 89 228 81 166
-19 165 -19 211 4 66 33 160 103 201 148 60 66 72 98 70 180 -2 73 -2 74 35
110 21 21 56 64 78 97 46 69 76 88 175 116 87 24 118 39 165 81 57 49 75 95
75 185 0 64 -21 183 -46 264 -4 14 3 15 44 11 60 -5 64 0 73 92 4 39 12 72 19
76 7 5 34 11 59 15 100 14 142 35 216 109 72 72 115 142 115 187 0 13 -15 56
-34 95 -61 127 -58 149 26 241 30 32 60 67 68 79 12 16 29 22 80 26 127 10
235 85 260 180 25 92 -12 226 -89 322 l-31 39 29 18 c16 9 33 23 37 31 5 7 9
60 9 118 l0 104 49 27 c111 58 161 153 161 304 0 98 -1 102 -105 289 -43 79
-44 81 -51 205 -6 99 -14 148 -39 226 -20 64 -36 145 -44 226 -16 147 -30 180
-119 283 -62 73 -114 171 -140 266 -9 30 -18 116 -22 190 -7 154 -30 264 -79
383 -45 108 -293 589 -333 647 -43 62 -159 172 -278 265 -55 43 -135 111 -177
152 -206 195 -461 333 -752 407 -81 21 -142 60 -179 114 -108 155 -145 181
-298 206 -32 6 -38 12 -59 64 -41 99 -153 189 -260 208 -43 8 -60 21 -60 44 0
30 -84 134 -136 168 -26 18 -66 37 -87 43 -39 10 -39 11 -35 53 3 24 28 92 56
152 72 157 77 180 51 246 -27 69 -21 114 24 177 60 83 71 111 70 182 0 91 -20
165 -54 204 l-29 32 36 79 c55 118 74 181 74 243 0 66 -20 112 -81 196 -101
138 -110 168 -80 284 26 101 26 115 -3 176 -25 55 -74 104 -136 135 -30 15
-40 26 -40 45 0 45 -30 105 -57 111 -21 6 -24 11 -18 33 3 14 9 64 12 111 4
70 1 95 -15 143 -67 189 -278 356 -571 452 -74 24 -94 36 -152 91 -66 62 -113
91 -220 133 -70 28 -92 50 -119 123 -26 69 -65 120 -133 172 -75 57 -143 83
-309 122 -146 34 -224 43 -267 29 -20 -6 -21 -4 -14 22 4 15 8 105 7 198 -1
205 -14 261 -106 464 -57 126 -67 142 -142 218 -45 45 -106 108 -136 141 -39
42 -66 62 -90 67 -59 13 -90 34 -121 85 -28 45 -107 106 -158 122 -12 3 -15
34 -16 154 -1 181 -13 219 -92 305 -69 74 -177 156 -225 171 -34 10 -38 15
-38 44 0 49 -36 154 -71 207 -66 99 -187 181 -307 206 -51 11 -146 13 -187 5z
m3146 -8052 c30 -15 78 -43 108 -62 66 -43 148 -50 266 -26 163 34 242 19 466
-88 143 -68 180 -79 329 -96 184 -22 222 -38 382 -164 119 -92 135 -101 255
-132 121 -31 216 -81 363 -189 92 -67 133 -90 205 -115 149 -52 234 -103 364
-215 179 -157 257 -273 302 -455 27 -107 40 -129 155 -251 101 -109 139 -172
138 -234 -1 -22 -2 -75 -4 -118 -2 -72 1 -83 34 -150 20 -39 52 -94 71 -121
29 -40 35 -57 35 -101 0 -57 -17 -96 -106 -241 -86 -139 -114 -307 -74 -436
11 -34 20 -83 20 -106 0 -48 -9 -60 -119 -151 -59 -49 -134 -145 -162 -206 -9
-22 -27 -94 -39 -160 -34 -194 -60 -233 -245 -370 -179 -132 -203 -168 -216
-324 -24 -287 -88 -389 -288 -466 -38 -14 -78 -36 -90 -49 -12 -13 -40 -66
-63 -117 -86 -201 -162 -262 -471 -378 -170 -64 -242 -106 -327 -191 -41 -41
-89 -85 -105 -97 -50 -35 -131 -51 -292 -58 -153 -6 -231 -21 -282 -53 -14 -9
-55 -42 -90 -74 -35 -32 -89 -70 -120 -85 -52 -26 -65 -28 -186 -29 -146 -1
-180 -6 -248 -41 -116 -58 -186 -151 -326 -428 -56 -110 -112 -213 -125 -230
-35 -44 -93 -41 -215 9 -90 37 -98 38 -180 33 -61 -3 -132 -18 -245 -51 -261
-76 -342 -65 -454 60 -98 110 -172 137 -462 169 -327 37 -380 83 -665 590
-628 1117 -970 2078 -1086 3060 -29 243 -32 563 -6 685 79 368 288 721 632
1066 224 224 372 339 667 517 281 169 988 511 1143 553 62 17 110 19 440 20
413 0 397 -2 665 83 151 48 181 50 251 13z"/>
<path d="M8435 7059 c-1014 -95 -1908 -710 -2322 -1597 -159 -342 -252 -693
-298 -1126 -35 -340 -4 -634 100 -954 274 -832 1037 -1481 1939 -1647 356 -65
679 -55 1011 30 421 108 874 317 1181 545 459 341 799 938 953 1675 49 234 56
310 55 590 0 217 -4 284 -22 405 -89 574 -294 1012 -647 1378 -381 397 -820
615 -1380 688 -143 18 -443 25 -570 13z"/>
</g>
</svg>
