<?xml version="1.0" standalone="no"?>
<!DOCTYPE svg PUBLIC "-//W3C//DTD SVG 20010904//EN"
 "http://www.w3.org/TR/2001/REC-SVG-20010904/DTD/svg10.dtd">
<svg version="1.0" xmlns="http://www.w3.org/2000/svg"
 width="428.000000pt" height="1536.000000pt" viewBox="0 0 428.000000 1536.000000"
 preserveAspectRatio="xMidYMid meet">
<metadata>
Created by potrace 1.16, written by Peter Selinger 2001-2019
</metadata>
<g transform="translate(0.000000,1536.000000) scale(0.100000,-0.100000)"
fill="#000000" stroke="none">
<path d="M1518 15343 c-38 -43 -116 -227 -148 -350 -37 -142 -51 -255 -60
-518 -8 -194 -15 -283 -30 -350 -101 -456 -122 -618 -149 -1135 -9 -173 -10
-176 -54 -295 -103 -273 -127 -481 -77 -655 16 -57 12 -99 -14 -133 -39 -53
-84 -151 -111 -243 -35 -120 -34 -215 5 -364 41 -157 40 -189 -15 -324 -55
-137 -90 -271 -105 -406 -15 -134 -3 -209 55 -345 25 -57 45 -112 45 -120 0
-19 -26 -70 -100 -200 -67 -116 -111 -235 -141 -378 -33 -161 -15 -291 67
-478 39 -89 45 -140 20 -186 -8 -15 -46 -71 -85 -123 -112 -152 -144 -231
-155 -390 -3 -42 -15 -107 -27 -145 -18 -60 -21 -87 -17 -200 5 -146 9 -158
94 -312 61 -111 69 -148 61 -282 -10 -165 -50 -276 -144 -399 -104 -136 -136
-288 -115 -548 15 -182 32 -267 84 -414 22 -63 53 -156 68 -207 23 -79 71
-182 120 -260 8 -12 12 -23 10 -25 -3 -2 -40 -21 -83 -42 -93 -48 -178 -121
-214 -184 -14 -26 -53 -93 -86 -150 -54 -92 -60 -111 -67 -180 -11 -99 -17
-116 -90 -215 l-61 -82 6 -105 c30 -532 166 -760 760 -1276 209 -182 402 -369
462 -449 25 -33 68 -105 94 -160 54 -111 58 -138 37 -279 -11 -77 -10 -84 14
-144 35 -85 115 -209 230 -358 53 -68 101 -139 108 -157 20 -58 22 -169 6
-342 -43 -446 -133 -887 -230 -1124 -51 -125 -63 -184 -46 -235 18 -57 54 -70
184 -71 l109 0 33 78 c39 91 42 123 14 177 -11 22 -20 52 -20 67 0 15 27 118
59 228 32 110 75 272 95 360 21 88 51 207 67 264 29 100 125 380 133 388 2 2
59 -24 127 -58 68 -34 173 -82 234 -106 60 -24 118 -51 128 -61 10 -9 36 -51
59 -94 22 -42 57 -97 78 -121 37 -42 99 -82 110 -71 2 3 7 80 10 171 5 158 7
166 29 184 16 13 39 19 75 19 62 0 76 11 141 105 71 104 91 122 169 151 85 33
100 47 155 147 23 42 46 77 50 77 15 0 220 -178 345 -300 120 -116 165 -177
151 -201 -4 -5 -1 -25 5 -44 15 -46 65 -76 138 -82 l58 -5 42 47 c50 57 65
114 60 239 l-3 90 -97 42 c-125 54 -182 93 -304 205 -54 50 -121 106 -147 124
l-48 33 60 42 c34 24 61 49 61 57 0 9 -62 44 -154 88 -173 83 -162 70 -172
211 -9 119 5 149 131 290 217 241 322 411 334 539 6 66 10 76 52 126 95 112
140 211 190 414 22 93 29 141 26 179 -3 28 -10 110 -16 181 -11 138 -26 196
-66 257 -14 21 -25 44 -25 51 0 8 23 46 51 86 123 175 130 256 34 396 -13 20
-47 108 -76 196 -34 106 -64 179 -90 219 -110 171 -523 508 -719 587 l-61 24
-110 -17 c-128 -21 -121 -25 -139 75 -21 111 -68 247 -161 459 -49 111 -89
214 -89 228 0 14 23 102 50 197 28 95 57 210 65 256 30 168 11 447 -40 610
-29 90 -67 155 -185 316 l-88 121 24 99 c46 192 49 400 9 750 -31 265 -57 370
-131 516 l-44 89 24 98 c43 171 69 325 69 417 1 134 -60 364 -145 547 l-41 88
26 57 c59 132 56 257 -14 545 -45 188 -46 204 -19 276 27 70 27 192 0 297 -11
42 -67 191 -124 329 l-105 251 24 105 c13 58 30 159 36 225 15 155 5 220 -50
312 -50 86 -56 110 -81 328 -11 99 -22 186 -25 194 -3 7 -12 93 -20 190 -20
237 -30 291 -82 465 -25 82 -58 206 -73 275 -34 150 -117 411 -170 534 -53
123 -79 148 -112 110z"/>
</g>
</svg>
