<?xml version="1.0" standalone="no"?>
<!DOCTYPE svg PUBLIC "-//W3C//DTD SVG 20010904//EN"
 "http://www.w3.org/TR/2001/REC-SVG-20010904/DTD/svg10.dtd">
<svg version="1.0" xmlns="http://www.w3.org/2000/svg"
 width="1536.000000pt" height="1271.000000pt" viewBox="0 0 1536.000000 1271.000000"
 preserveAspectRatio="xMidYMid meet">
<metadata>
Created by potrace 1.16, written by Peter Selinger 2001-2019
</metadata>
<g transform="translate(0.000000,1271.000000) scale(0.100000,-0.100000)"
fill="#000000" stroke="none">
<path d="M12408 12700 c-210 -33 -346 -96 -703 -325 -240 -154 -282 -177 -490
-268 -186 -82 -282 -133 -420 -222 -152 -99 -262 -163 -470 -278 -247 -136
-479 -280 -880 -547 -170 -113 -377 -249 -460 -302 -684 -436 -721 -458 -1050
-638 -306 -168 -488 -282 -1275 -793 -787 -512 -1175 -755 -1600 -1002 -338
-197 -419 -252 -458 -314 -54 -87 -71 -99 -1139 -801 -1588 -1044 -2741 -1957
-3142 -2490 -80 -105 -196 -329 -235 -451 -165 -517 -91 -1109 235 -1870 293
-687 529 -1081 900 -1503 413 -470 871 -773 1313 -868 81 -17 134 -22 271 -22
149 0 184 3 283 27 62 14 165 47 228 72 277 111 498 253 1159 743 418 311 763
558 1325 947 939 651 1108 776 2620 1945 1446 1117 1763 1366 2089 1639 274
229 309 257 431 340 159 108 425 267 1045 621 1384 792 1947 1153 2436 1561
533 446 823 911 916 1468 13 77 17 164 18 316 0 234 -7 304 -70 680 -24 143
-46 294 -50 335 -24 283 -123 485 -380 773 -128 145 -713 734 -827 834 -245
216 -459 330 -709 379 -67 13 -163 17 -469 19 -212 2 -411 0 -442 -5z"/>
</g>
</svg>
