<?xml version="1.0" standalone="no"?>
<!DOCTYPE svg PUBLIC "-//W3C//DTD SVG 20010904//EN"
 "http://www.w3.org/TR/2001/REC-SVG-20010904/DTD/svg10.dtd">
<svg version="1.0" xmlns="http://www.w3.org/2000/svg"
 width="900.000000pt" height="432.000000pt" viewBox="0 0 900.000000 432.000000"
 preserveAspectRatio="xMidYMid meet">
<metadata>
Created by potrace 1.16, written by Peter Selinger 2001-2019
</metadata>
<g transform="translate(0.000000,432.000000) scale(0.100000,-0.100000)"
fill="#000000" stroke="none">
<path d="M4920 4305 c-30 -7 -73 -14 -95 -14 -41 -1 -96 -17 -175 -50 -25 -11
-73 -27 -108 -37 -34 -9 -67 -23 -73 -31 -6 -7 -20 -13 -30 -13 -10 0 -21 -4
-24 -10 -3 -5 -15 -10 -26 -10 -21 0 -33 -6 -113 -57 -28 -18 -55 -33 -59 -33
-5 0 -31 -18 -57 -40 -26 -22 -51 -40 -54 -40 -6 0 -90 -60 -135 -96 -108 -86
-191 -164 -458 -426 -172 -169 -352 -340 -399 -380 -47 -40 -113 -97 -147
-126 -34 -29 -91 -77 -127 -106 -36 -29 -80 -70 -97 -90 -18 -20 -35 -36 -39
-36 -9 0 -115 -90 -206 -174 -43 -39 -114 -102 -159 -141 -145 -125 -219 -198
-225 -222 -4 -13 -30 -48 -59 -78 -29 -31 -58 -70 -64 -88 -30 -82 -30 -81
-116 -90 -44 -4 -108 -14 -142 -22 -62 -15 -62 -15 -165 19 -57 19 -137 42
-178 51 -90 21 -100 28 -100 69 0 39 -42 84 -91 96 -19 5 -52 15 -74 24 -37
13 -42 13 -60 -4 -13 -11 -41 -19 -78 -22 -53 -4 -60 -3 -75 19 -33 47 -138
156 -187 195 -81 65 -296 277 -357 354 -68 85 -140 198 -154 239 -10 32 -65
75 -95 75 -28 0 -23 -19 6 -26 24 -6 75 -75 75 -101 0 -14 123 -197 161 -240
16 -19 29 -38 29 -43 0 -17 179 -201 273 -279 110 -93 152 -140 138 -154 -6
-6 -21 0 -43 16 -31 24 -228 143 -355 215 -60 34 -192 172 -224 236 -9 17 -28
51 -42 76 -15 25 -27 56 -27 69 0 32 -46 91 -71 91 -10 0 -19 -4 -19 -10 0 -5
4 -10 10 -10 16 0 60 -73 60 -100 0 -14 9 -36 20 -50 11 -14 20 -29 20 -34 0
-15 61 -109 94 -143 16 -18 41 -54 55 -80 27 -49 57 -70 294 -208 109 -63 167
-109 167 -132 0 -14 37 -79 141 -248 20 -33 52 -92 72 -130 23 -47 51 -83 83
-111 71 -59 90 -67 143 -60 25 3 77 10 116 15 66 9 73 8 118 -17 59 -32 92
-69 77 -87 -6 -7 -29 -15 -53 -18 -23 -3 -105 -17 -182 -31 -183 -34 -251 -34
-315 -1 -57 29 -82 31 -100 10 -11 -13 -8 -15 20 -15 17 0 46 -10 63 -22 27
-20 44 -23 112 -22 44 0 123 8 175 17 52 8 133 18 180 22 l85 6 53 -51 c49
-46 53 -54 47 -83 -10 -48 -34 -127 -54 -177 -23 -59 -244 -335 -318 -397 -32
-26 -89 -81 -128 -122 -102 -107 -301 -257 -382 -287 -50 -18 -116 -71 -107
-86 11 -17 52 -8 57 12 3 12 25 29 54 42 101 44 150 81 371 281 48 44 114 100
147 125 141 108 211 177 269 261 32 47 69 97 81 111 13 14 44 64 70 113 47 88
62 100 86 71 17 -20 139 -82 198 -100 25 -8 68 -14 95 -14 34 0 64 -9 105 -30
31 -17 76 -34 101 -38 32 -5 48 -14 56 -31 18 -35 95 -110 129 -126 17 -8 43
-15 60 -17 21 -2 31 -9 35 -26 6 -27 59 -52 127 -59 23 -3 46 -10 51 -16 14
-18 82 -221 82 -246 0 -12 8 -38 19 -59 10 -20 26 -82 36 -137 21 -120 39
-196 55 -225 7 -13 9 -37 5 -56 -4 -26 -3 -34 9 -34 19 0 41 38 37 63 -1 10
-11 33 -22 51 -10 18 -23 52 -28 77 -23 117 -43 207 -52 234 -5 17 -18 61 -29
99 -11 38 -24 74 -29 80 -17 22 -44 127 -35 136 5 5 126 12 269 15 443 8 609
15 630 24 11 5 89 12 174 16 85 3 159 9 165 14 6 5 24 11 39 15 16 4 39 17 52
30 13 13 60 34 111 50 49 15 103 31 120 36 17 6 42 10 57 10 14 0 29 5 32 10
3 6 17 10 30 10 13 0 26 4 29 9 7 11 59 19 186 30 96 8 237 42 275 67 11 7 56
22 100 33 152 39 360 130 370 161 4 11 18 22 33 25 15 4 43 10 62 15 19 5 58
14 85 20 153 34 520 159 750 255 50 20 128 53 175 71 47 19 99 41 115 48 17 8
69 30 117 50 48 20 140 60 205 90 65 29 143 65 173 79 30 13 85 39 122 56 37
16 82 37 100 44 18 8 105 48 193 90 88 41 230 107 315 147 247 115 473 227
588 291 59 32 114 59 123 59 9 0 22 7 29 15 7 8 16 13 20 10 5 -3 12 -1 15 5
4 6 73 44 153 84 135 68 198 105 180 106 -7 0 -234 -109 -678 -327 -157 -77
-339 -165 -405 -196 -155 -71 -617 -277 -695 -310 -19 -8 -89 -37 -155 -65
-124 -52 -153 -64 -370 -152 -71 -28 -139 -56 -150 -61 -57 -23 -233 -92 -255
-99 -14 -5 -61 -23 -105 -40 -328 -128 -718 -230 -773 -201 -35 17 -206 21
-327 7 -66 -8 -165 -17 -220 -21 -108 -6 -293 -30 -363 -45 -28 -7 -49 -7 -61
0 -13 6 -62 5 -152 -6 -74 -9 -216 -19 -316 -24 -99 -4 -186 -11 -192 -14 -16
-10 -211 -14 -217 -4 -3 5 30 47 73 95 146 161 148 163 182 163 30 0 148 57
184 89 11 8 29 20 42 26 21 9 76 58 155 140 13 14 30 25 38 25 7 0 17 11 22
25 5 14 21 30 35 37 14 6 25 15 25 19 0 4 19 28 42 54 23 26 47 55 53 65 5 10
31 49 58 88 26 39 47 76 47 81 0 6 15 28 33 48 37 44 42 53 104 176 25 51 58
110 73 132 15 22 44 72 64 110 36 68 62 113 135 225 44 69 91 160 91 176 0 13
86 182 101 199 5 5 9 17 9 26 0 10 11 40 25 67 14 28 25 59 25 70 0 12 5 24
10 27 6 3 10 15 10 26 0 10 4 27 9 37 17 34 31 89 31 125 0 20 5 39 10 42 6 3
10 15 10 26 0 10 4 27 9 37 19 34 52 158 55 202 1 25 8 58 14 73 15 35 15 81
1 148 -18 82 -64 118 -192 148 -56 13 -74 12 -147 -4z"/>
</g>
</svg>
