<?xml version="1.0" encoding="UTF-8" standalone="no"?>
<!-- Created with Inkscape (http://www.inkscape.org/) -->

<svg
   xmlns:svg="http://www.w3.org/2000/svg"
   xmlns="http://www.w3.org/2000/svg"
   version="1.2"
   width="550"
   height="400"
   viewBox="0 0 550 400"
   id="Layer_2"
   xml:space="preserve"><defs
   id="defs9" />
    
    <path
   d="m 239.066,131.675 c -0.216,0.074 -0.433,0.148 -0.65,0.225 -0.399,0 -0.783,0 -1.149,0 -7.938,-0.331 -13.721,1.511 -17.351,5.525 -13.401,2.353 -24.151,7.044 -32.25,14.075 -0.404,-0.001 -1.229,-0.16 -2.475,-0.475 -1.238,-0.312 -3.496,0.23 -6.775,1.625 -6.184,-2.429 -11.934,-2.479 -17.25,-0.15 -0.018,0.049 -0.034,0.1 -0.05,0.15 -0.4,0 -0.783,0.05 -1.15,0.15 -1.873,0.286 -3.724,0.595 -5.55,0.925 -4.59,0.842 -9.031,1.842 -13.325,3 l -0.024,0.025 c -0.834,-0.304 -2.892,-0.179 -6.175,0.375 -3.284,0.554 -6.709,1.645 -10.275,3.275 l -8.7,3.3 c -3.033,2.5 -6.333,5.483 -9.899,8.95 -0.567,0.533 -3.233,3.633 -8,9.3 -3.2,3.833 -6.667,6.867 -10.4,9.1 -2.634,1.534 -7.3,4.167 -14,7.9 -5.418,1.088 -7.352,2.396 -5.8,3.925 -0.845,-0.1 -1.578,-0.058 -2.2,0.125 -1.233,0.4 -1.65,1.316 -1.25,2.75 -2.377,-0.115 -3.327,1.218 -2.85,4 -1.488,-0.135 -2.396,0.257 -2.726,1.175 -0.323,0.916 -0.465,1.958 -0.425,3.125 -1.8,0.714 -2.658,1.414 -2.575,2.101 0.091,0.693 0.107,1.102 0.05,1.225 -1.727,0.208 -2.643,1.608 -2.75,4.2 -0.235,0.111 -0.769,0.486 -1.6,1.125 -0.838,0.635 -1.013,1.801 -0.525,3.5 -0.3,0.923 -0.449,1.706 -0.449,2.35 0,0.334 -0.217,0.634 -0.65,0.9 -0.434,0.3 -0.65,0.649 -0.65,1.05 0,0.8 0.267,1.384 0.801,1.75 -0.7,0.366 -1.051,0.7 -1.051,1 0,0.333 0.101,0.65 0.301,0.95 0.267,0.366 0.466,0.633 0.6,0.8 -2.3,1.638 -2.725,2.871 -1.275,3.7 1.452,0.829 4.602,0.929 9.45,0.3 4.848,-0.624 8.206,-1.565 10.075,-2.825 1.867,-1.268 2.967,-2.593 3.3,-3.975 0.163,-0.273 0.297,-0.573 0.4,-0.9 l 1.024,0.275 c -0.08,0.135 -0.155,0.26 -0.225,0.375 -0.6,1.1 -0.9,2.283 -0.9,3.55 0,0.428 0.084,0.728 0.25,0.9 0.014,0.491 0.03,1.308 0.051,2.449 0.3,1.834 1.05,2.75 2.25,2.75 0.733,0 1.833,-0.699 3.3,-2.1 1.467,-1.533 2.316,-2.4 2.55,-2.6 0.667,-0.534 1.866,-1.084 3.6,-1.65 1.534,-0.467 3.051,-0.833 4.551,-1.1 1.894,-0.319 4.035,-0.928 6.425,-1.825 7.415,-0.931 13.157,-1.455 17.225,-1.575 0.734,-0.041 1.901,-0.016 3.5,0.075 14.167,1.883 28.316,2.158 42.45,0.825 0.467,0.267 0.934,0.517 1.4,0.75 2.767,1.533 5.683,2.55 8.75,3.05 0.533,0.033 1.066,0.066 1.6,0.1 1,0.867 2.1,1.634 3.3,2.3 0.967,0.534 1.95,0.75 2.95,0.65 0.333,-0.066 0.667,-0.134 1,-0.2 0.5,-0.2 1,-0.383 1.5,-0.55 1.127,3.323 4.127,4.772 9,4.35 3.134,1.601 6.167,2.617 9.1,3.051 6.934,0.133 13.884,0.033 20.851,-0.301 l 0.225,9.15 c 0.079,1.761 0.188,3.693 0.325,5.8 -0.1,1.267 0.017,3.134 0.35,5.601 0,2.166 -0.966,4.05 -2.899,5.649 -0.267,0.233 -2.667,1.75 -7.2,4.55 -0.676,0.429 -1.301,0.829 -1.875,1.2 -3.283,0.022 -4.925,1.639 -4.925,4.851 0,1.1 0.333,1.983 1,2.649 0.8,0.834 1.983,1.25 3.55,1.25 0.156,0 0.307,0 0.45,0 0.05,0.244 0.117,0.494 0.2,0.75 0.433,1.467 1.383,2.2 2.85,2.2 2.009,0 3.925,-0.05 5.75,-0.15 0.097,0.101 0.347,0.15 0.75,0.15 0.7,0 1.292,-0.108 1.775,-0.325 2.273,-0.189 4.382,-0.465 6.324,-0.825 2.747,-0.518 5.047,-1.184 6.9,-2 1.566,0 2.9,-0.816 4,-2.449 1.1,-1.634 1.658,-3.601 1.675,-5.9 -0.035,-0.531 -0.094,-1.098 -0.175,-1.7 -0.4,-3.033 -0.417,-5.133 -0.05,-6.3 0.899,-2.866 3.684,-7.85 8.35,-14.95 0.929,-1.4 1.763,-2.658 2.5,-3.774 1.481,-0.294 3.073,-0.644 4.775,-1.051 0.861,0.146 1.77,0.305 2.725,0.476 0.794,0.957 1.677,1.991 2.65,3.1 2.627,2.993 4.627,5.618 6,7.875 0.366,1.564 0.55,3.039 0.55,4.425 0,1.78 -0.417,3.664 -1.25,5.65 -1.221,0.795 -1.463,1.771 -0.725,2.925 -0.209,0.452 -0.434,0.902 -0.676,1.351 -0.134,0.084 -0.234,0.159 -0.3,0.225 -0.3,0.233 -0.483,0.5 -0.55,0.8 0.046,0.053 0.096,0.111 0.15,0.175 v 1.976 c -4.804,1.942 -7.004,4.092 -6.601,6.45 -5.297,3.74 -5.13,5.757 0.5,6.05 -3.771,5.37 -2.038,6.471 5.2,3.3 -1.233,2.569 -0.825,3.361 1.225,2.375 2.051,-0.984 3.509,-1.909 4.375,-2.775 -1.203,3.008 1.53,3.416 8.2,1.226 6.668,-2.186 10.51,-8.128 11.525,-17.825 0.655,-1.535 1.047,-2.485 1.175,-2.85 0.833,-2.334 1.25,-4.717 1.25,-7.15 0,-0.4 0.2,-2.384 0.6,-5.95 0.362,-2.948 0.57,-4.814 0.625,-5.6 2.479,0.395 4.763,0.753 6.851,1.075 3.198,1.268 6.656,2.192 10.375,2.774 7.507,2.467 15.189,3.7 23.05,3.7 3.186,0 5.544,-0.342 7.075,-1.025 28.443,-0.378 53.701,-5.669 75.775,-15.875 0.504,0.646 0.979,1.246 1.424,1.801 -0.26,1.449 -0.534,2.416 -0.824,2.899 -0.301,0.467 -1.334,1.367 -3.1,2.7 -0.99,0.716 -1.665,1.324 -2.025,1.825 -2.297,1.519 -3.572,2.91 -3.825,4.175 -0.167,1 -0.917,3.134 -2.25,6.4 -0.83,2.121 -1.372,3.654 -1.625,4.6 -0.478,0.263 -1.02,0.562 -1.625,0.9 -2.366,1.3 -3.55,2.116 -3.55,2.449 0,0.434 0.199,0.817 0.6,1.15 0.233,0.167 0.7,0.434 1.4,0.8 -0.533,0.3 -1,0.684 -1.4,1.15 -0.199,0.267 -0.4,0.566 -0.6,0.899 l 0.25,1.4 c 0.367,0.134 1.15,0.2 2.35,0.2 1.167,0 2.051,-0.066 2.65,-0.2 -0.5,0.5 -0.801,0.816 -0.9,0.95 -0.199,0.3 -0.3,0.733 -0.3,1.3 0,0.7 0.134,1.2 0.399,1.5 0.301,0.333 0.834,0.5 1.601,0.5 0.634,0 1.634,-0.4 3,-1.2 1.634,-0.934 2.616,-1.45 2.95,-1.55 0,0.066 0.066,0.55 0.199,1.45 0.268,0.866 0.801,1.3 1.601,1.3 3.733,0 6.783,-2.15 9.149,-6.45 1.5,-2.767 2.367,-5.283 2.601,-7.55 0.399,-2.566 3.283,-5.533 8.649,-8.9 5.234,-3.267 7.851,-5.333 7.851,-6.199 0,-0.141 -0.009,-0.299 -0.024,-0.476 0.162,-0.207 0.32,-0.432 0.475,-0.675 0.666,-1.066 1,-1.85 1,-2.35 0,-4.024 -1.551,-9.708 -4.65,-17.051 0.766,-0.522 1.516,-1.056 2.25,-1.6 0.916,2.881 2.232,5.53 3.95,7.95 2.467,3.467 6.5,7.217 12.101,11.25 6.366,4.566 10.416,7.8 12.149,9.7 3.667,4.033 5.5,8.683 5.5,13.949 0,1.4 -1.217,2.834 -3.649,4.301 -0.292,0.174 -0.566,0.349 -0.826,0.524 -3.35,-0.153 -5.024,0.655 -5.024,2.425 0,0.567 0.101,1.084 0.3,1.551 0.167,0.333 0.483,0.783 0.95,1.35 -1.399,0.733 -2.083,1.483 -2.05,2.25 0,0.634 0.033,1.066 0.1,1.3 0.301,0.7 0.95,1.101 1.95,1.2 1.333,0 2.583,-0.033 3.75,-0.1 0.403,-0.036 0.762,-0.061 1.075,-0.075 0.371,0.176 0.771,0.334 1.199,0.475 0.051,0.552 0.176,1.102 0.375,1.65 0.4,1.033 0.934,1.55 1.601,1.55 1.467,0 2.899,-0.35 4.3,-1.05 0.407,-0.204 1.324,-0.778 2.75,-1.726 0.242,-0.026 0.484,-0.06 0.725,-0.1 0.264,0.95 0.756,1.425 1.476,1.425 1.833,0 3.25,-0.6 4.25,-1.8 0.579,-0.701 0.896,-1.302 0.95,-1.8 0.081,-0.053 0.164,-0.104 0.25,-0.15 2.5,-1.366 3.75,-2.467 3.75,-3.3 -1.334,-11 -2,-17.316 -2,-18.95 0,-0.399 0.166,-1.733 0.5,-4 0.367,-2.267 0.55,-3.616 0.55,-4.05 0,-0.967 -2.167,-3.767 -6.5,-8.4 -4.8,-5.133 -7.317,-7.899 -7.55,-8.3 -0.309,-0.521 -0.608,-1.347 -0.9,-2.475 1.98,-4.111 3.613,-9.303 4.9,-15.575 1.05,-5.093 1.824,-10.567 2.324,-16.425 0.479,-0.869 0.803,-1.994 0.976,-3.375 -0.017,-2.034 -0.024,-3.643 -0.024,-4.825 0.303,0.908 0.627,1.8 0.975,2.675 4.6,11.667 11.283,17.5 20.05,17.5 4.272,0 7.823,-2.133 10.649,-6.399 0.768,-0.221 1.734,-0.704 2.9,-1.45 0.133,-0.093 0.258,-0.185 0.375,-0.275 2.246,-0.979 3.438,-1.537 3.575,-1.675 -0.319,-0.117 -0.819,-0.109 -1.5,0.025 V 208.8 c -1.067,-0.1 -2.283,0.25 -3.649,1.05 -0.103,0.058 -0.211,0.125 -0.326,0.2 0.236,-0.444 0.453,-0.869 0.65,-1.274 1.445,-0.981 2.621,-1.807 3.525,-2.476 -0.059,-0.083 -0.107,-0.157 -0.15,-0.225 0.23,-0.224 0.463,-0.466 0.7,-0.726 1.5,-1.699 2.25,-3.033 2.25,-4 v -0.55 h -0.3 c -0.167,1.066 -1.051,2.467 -2.65,4.2 -0.719,0.777 -1.41,1.444 -2.074,2 -0.22,0.149 -0.461,0.316 -0.726,0.5 0.115,-0.286 0.216,-0.562 0.3,-0.825 0.465,-0.169 0.906,-0.628 1.325,-1.375 1.2,-0.618 2.158,-1.818 2.875,-3.6 0.667,-2.8 1,-4.233 1,-4.3 0,-0.933 -0.083,-1.65 -0.25,-2.15 -0.175,-0.466 -0.45,-0.933 -0.825,-1.4 -0.186,-0.505 -0.461,-1.038 -0.824,-1.6 -0.219,-0.347 -0.436,-0.647 -0.65,-0.9 -0.006,-0.857 -0.039,-1.407 -0.1,-1.65 -0.201,-0.6 -0.668,-0.9 -1.4,-0.9 0.035,0.094 0.076,0.203 0.125,0.325 -0.178,-0.173 -0.387,-0.282 -0.625,-0.325 0.27,0.702 0.47,1.552 0.6,2.55 -0.194,-0.536 -0.444,-1.102 -0.75,-1.7 -0.693,-1.355 -1.436,-2.43 -2.225,-3.225 -0.414,-0.754 -0.855,-1.212 -1.325,-1.375 l -0.25,0.55 c 0.228,0.64 0.437,1.323 0.625,2.05 -0.024,-0.05 -0.049,-0.101 -0.075,-0.15 -0.633,-1.267 -1.166,-2 -1.6,-2.2 0.037,0.055 0.07,0.113 0.1,0.175 -0.385,-0.617 -0.752,-1.008 -1.1,-1.175 1.434,2.867 2.367,5.117 2.8,6.75 0.234,0.867 0.384,1.709 0.45,2.525 -0.986,-1.484 -1.803,-2.342 -2.45,-2.575 -0.063,0.063 -0.114,0.172 -0.149,0.325 -0.454,-0.993 -0.82,-1.602 -1.101,-1.825 h -0.399 c -0.037,-0.125 -0.071,-0.25 -0.101,-0.375 0.015,-2.273 -0.003,-3.564 -0.05,-3.875 h -0.5 c -0.128,0.426 -0.229,0.942 -0.301,1.55 h -0.199 c -0.167,0.367 -0.25,0.934 -0.25,1.7 0,0.178 0.1,0.537 0.3,1.075 0,0.055 0,0.113 0,0.175 0,1.499 0.024,2.599 0.075,3.3 -0.871,-1.429 -1.58,-2.346 -2.125,-2.75 0.166,0.5 1.199,2.617 3.1,6.35 0.41,0.811 0.76,1.561 1.051,2.25 -0.113,-0.227 -0.23,-0.443 -0.351,-0.65 -0.437,-1.021 -0.836,-1.654 -1.2,-1.9 -0.519,-0.673 -1.052,-1.189 -1.6,-1.55 0.246,1.081 1.005,2.822 2.275,5.226 0.131,0.573 0.271,1.215 0.424,1.925 0.523,2.219 0.873,4.052 1.051,5.5 -0.078,0.145 -0.162,0.286 -0.25,0.425 0.033,-0.383 0.05,-0.809 0.05,-1.275 0,-0.833 -0.384,-2.116 -1.149,-3.85 -0.768,-1.7 -1.4,-2.684 -1.9,-2.95 0.166,0.867 0.583,2.45 1.25,4.75 0.08,0.275 0.154,0.542 0.225,0.8 -0.207,0.881 -0.648,1.98 -1.324,3.301 -0.156,0.272 -0.373,0.647 -0.65,1.125 0.033,-0.79 0.05,-1.716 0.05,-2.775 0,-2.8 -0.083,-4.7 -0.25,-5.7 h -0.3 c -0.301,1.3 -0.45,3.2 -0.45,5.7 0,1.576 0.075,2.918 0.226,4.025 -0.086,0.163 -0.178,0.33 -0.275,0.5 -1.348,0.483 -2.914,0.725 -4.7,0.725 -4.8,0 -8.683,-5.434 -11.649,-16.3 -0.801,-2.9 -1.801,-7.333 -3,-13.3 -1.033,-5.267 -1.834,-8.733 -2.4,-10.4 -1.768,-5.233 -5.1,-10.133 -10,-14.7 -0.523,-0.484 -1.057,-0.959 -1.6,-1.425 -3.324,-3.702 -7.406,-7.193 -12.25,-10.475 -18.967,-12.867 -48.418,-21.417 -88.351,-25.65 l -12.8,-0.2 c -16.516,-0.487 -27.814,-0.537 -33.9,-0.15 -30.087,-0.659 -57.146,2.917 -81.175,10.725 l -1.35,0.425 c -0.647,0.207 -1.289,0.423 -1.926,0.65 l -0.66,0.224 z M 61.866,217 l -3.5,-2.95 3.5,2.95 z m 456.7,-21.15 c 0,1.9 -0.367,3.767 -1.1,5.6 -0.35,0.846 -0.741,1.521 -1.176,2.024 0.195,-0.583 0.387,-1.241 0.575,-1.975 l 0.375,-2 c 0.026,-0.031 0.052,-0.065 0.075,-0.1 0.772,-1.174 1.189,-2.449 1.25,-3.825 10e-4,0.092 10e-4,0.183 10e-4,0.276 z m -5.2,-4.05 v 3.45 c -0.051,0.062 -0.101,0.12 -0.149,0.175 -0.033,-0.055 -0.066,-0.113 -0.101,-0.175 0.134,-0.8 0.2,-1.95 0.2,-3.45 h 0.05 z m 1.5,1.8 c 0,0.578 -0.233,1.795 -0.7,3.65 -0.115,-0.248 -0.249,-0.515 -0.4,-0.8 0.249,-0.395 0.416,-0.745 0.5,-1.05 0.067,-0.233 0.101,-0.867 0.101,-1.9 0,-0.563 -0.075,-1.23 -0.226,-2 0.191,0.345 0.375,0.662 0.551,0.95 0.117,0.438 0.174,0.821 0.174,1.15 z m 1.825,-0.15 c 0.178,0.426 0.318,0.776 0.425,1.05 -0.112,0.921 -0.245,2.063 -0.399,3.425 -0.152,0.333 -0.336,0.658 -0.551,0.975 -0.019,0.029 -0.035,0.062 -0.05,0.1 0.109,-0.671 0.177,-1.829 0.2,-3.475 0.166,-0.723 0.291,-1.415 0.375,-2.075 z m -8.875,-1.15 c 0.002,-0.168 0.002,-0.334 0,-0.5 0.027,0.051 0.053,0.101 0.074,0.15 0.322,1.191 0.897,2.792 1.726,4.8 0.071,0.174 0.138,0.349 0.2,0.525 0.008,0.294 0.016,0.653 0.025,1.075 -0.281,-0.566 -0.606,-1.199 -0.976,-1.9 -0.293,-0.559 -0.576,-1.084 -0.851,-1.575 -0.143,-0.755 -0.209,-1.614 -0.198,-2.575 z m 6.975,9.875 c 0.57,-0.491 1.07,-0.975 1.5,-1.45 -0.361,1.426 -0.861,2.676 -1.5,3.75 h -0.05 c 0.05,-0.325 0.075,-0.634 0.075,-0.925 0,-0.498 -0.007,-0.957 -0.025,-1.375 z M 507.516,210 c -0.428,0.358 -0.895,0.675 -1.399,0.95 0.46,-0.72 0.726,-1.152 0.8,-1.3 0.462,-0.792 0.812,-1.5 1.051,-2.125 -0.111,0.902 -0.261,1.727 -0.452,2.475 z"
   id="path3"
   style="fill-rule:evenodd" />
    
    <line
   fill-rule="evenodd"
   fill="none"
   stroke="#000000"
   stroke-width="0.1"
   stroke-linecap="round"
   stroke-linejoin="round"
   stroke-miterlimit="3"
   x1="505.5"
   y1="217"
   x2="509"
   y2="214.05"
   id="line5"
   style="fill:none;stroke:#000000;stroke-width:0.1;stroke-linecap:round;stroke-linejoin:round;stroke-miterlimit:3" />
    
</svg>