<?xml version="1.0" standalone="no"?>
<!DOCTYPE svg PUBLIC "-//W3C//DTD SVG 20010904//EN"
 "http://www.w3.org/TR/2001/REC-SVG-20010904/DTD/svg10.dtd">
<svg version="1.0" xmlns="http://www.w3.org/2000/svg"
 width="1536.000000pt" height="385.000000pt" viewBox="0 0 1536.000000 385.000000"
 preserveAspectRatio="xMidYMid meet">
<metadata>
Created by potrace 1.16, written by Peter Selinger 2001-2019
</metadata>
<g transform="translate(0.000000,385.000000) scale(0.100000,-0.100000)"
fill="#000000" stroke="none">
<path d="M7954 3819 c-76 -37 -146 -44 -152 -14 -7 36 -20 38 -66 6 -50 -35
-116 -61 -152 -61 -20 0 -23 6 -26 42 l-3 41 -31 -26 c-56 -47 -124 -77 -175
-77 -46 0 -49 2 -49 25 0 14 -4 25 -8 25 -5 0 -37 -22 -71 -50 -62 -50 -121
-74 -169 -68 -21 2 -28 10 -32 33 l-6 30 -99 -98 c-122 -121 -187 -155 -223
-117 l-19 21 -54 -63 c-29 -35 -88 -102 -131 -151 -43 -48 -131 -167 -196
-265 -66 -97 -125 -182 -133 -188 -9 -7 -100 -14 -254 -17 -132 -4 -273 -11
-314 -17 -113 -15 -699 -63 -991 -80 -201 -12 -360 -32 -455 -57 -45 -13 -114
-17 -270 -19 -245 -3 -430 14 -554 51 -110 33 -174 32 -302 -4 -57 -16 -150
-41 -207 -56 -57 -14 -167 -50 -245 -79 -151 -58 -392 -126 -837 -236 -359
-90 -348 -88 -388 -55 -36 30 -47 28 -55 -13 -5 -26 -11 -30 -56 -36 -120 -16
-416 -36 -534 -36 -121 0 -131 2 -185 29 -80 40 -120 51 -185 53 -46 1 -61 -3
-80 -20 -18 -17 -30 -20 -59 -16 -27 5 -51 0 -92 -19 -58 -27 -63 -35 -46 -68
22 -41 243 -130 455 -185 135 -34 130 -41 -15 -24 -91 11 -293 65 -400 106
-61 24 -65 25 -77 8 -31 -42 -4 -127 55 -172 25 -19 52 -28 96 -33 33 -3 93
-20 131 -37 39 -16 102 -35 142 -41 54 -8 105 -27 209 -78 l137 -68 196 -6
c187 -7 201 -9 316 -44 112 -34 133 -37 318 -46 223 -10 239 -12 567 -74 403
-76 411 -77 580 -73 l155 3 75 -37 c111 -55 480 -151 702 -183 206 -29 515
-13 663 36 50 16 102 29 117 29 65 0 122 -88 336 -515 131 -260 157 -297 273
-374 32 -22 85 -47 117 -56 31 -9 136 -59 233 -111 268 -144 428 -202 518
-190 101 14 159 86 168 210 14 187 -97 385 -323 576 -42 36 -103 100 -136 142
-66 85 -103 116 -163 140 -22 9 -146 39 -275 68 -237 53 -300 71 -300 88 0 20
60 24 490 33 245 5 472 13 505 18 110 17 168 13 252 -18 81 -30 440 -94 598
-106 143 -12 634 28 761 61 115 30 171 62 244 142 l68 75 103 8 c57 5 144 21
193 35 100 30 185 30 229 1 14 -9 86 -92 160 -184 140 -175 302 -343 331 -343
14 0 16 10 10 80 -5 58 -4 80 5 80 6 0 60 -46 118 -102 75 -72 108 -98 111
-87 1 9 -6 49 -16 90 -12 46 -16 75 -10 78 6 2 52 -39 104 -90 110 -109 120
-109 104 -1 -19 117 -5 119 109 17 47 -42 92 -74 100 -73 13 3 16 18 17 76 0
40 4 75 8 79 4 4 43 -30 87 -75 43 -46 84 -80 89 -77 6 3 10 44 10 91 0 71 3
84 16 84 9 0 51 -34 93 -75 43 -41 83 -75 89 -75 8 0 12 25 12 80 0 98 7 100
84 31 69 -63 102 -84 116 -76 5 3 10 41 10 85 0 43 5 82 10 85 6 4 46 -30 90
-75 43 -45 84 -79 89 -75 6 3 11 39 11 81 0 91 7 93 90 22 128 -110 134 -111
106 -22 -10 31 -14 60 -9 64 4 5 41 -16 82 -46 98 -72 104 -71 96 11 -4 36 -3
65 2 65 4 0 35 -22 68 -50 33 -27 67 -50 76 -50 18 0 29 28 29 72 0 37 10 58
26 58 8 0 43 -18 76 -40 34 -22 68 -40 74 -40 9 0 14 20 16 57 2 31 8 58 14
60 6 2 46 -26 90 -62 43 -36 85 -65 93 -65 11 0 13 14 8 75 -9 101 1 103 107
30 46 -32 89 -54 95 -51 6 4 11 34 11 66 0 32 4 61 9 64 10 7 45 -19 114 -82
27 -24 51 -42 53 -39 3 3 -2 29 -10 58 -17 56 -21 99 -8 99 4 0 41 -23 82 -50
107 -71 122 -67 100 25 -5 22 -6 43 -1 48 4 4 39 -17 77 -48 89 -71 98 -71 90
-1 -4 30 -3 57 2 60 4 3 42 -17 83 -44 41 -28 77 -50 82 -50 11 0 9 42 -4 79
-20 58 1 58 100 1 51 -29 94 -50 97 -47 3 3 1 22 -6 42 -7 20 -10 38 -8 41 3
2 36 -19 75 -46 39 -28 78 -50 86 -50 10 0 17 16 22 55 3 30 11 55 17 55 5 0
34 -20 62 -45 29 -25 58 -45 65 -45 7 0 11 23 11 65 0 46 4 65 13 65 7 0 43
-20 80 -45 37 -25 71 -43 76 -40 5 3 5 23 0 46 -5 22 -7 44 -4 49 3 5 35 -5
70 -22 35 -18 67 -30 69 -27 3 3 0 22 -6 42 -6 20 -9 39 -6 42 3 3 35 -6 72
-19 73 -28 86 -23 66 28 -19 51 -15 57 31 41 23 -8 45 -15 50 -15 19 0 8 16
-22 34 -43 25 -69 53 -69 72 0 13 7 15 35 11 19 -3 35 -2 35 2 0 5 -18 29 -41
54 l-40 47 25 11 c14 7 26 16 26 20 0 5 -25 16 -55 24 -64 19 -72 41 -20 51
19 3 35 10 35 14 0 5 -26 18 -57 29 -106 38 -126 56 -104 91 8 11 31 14 108
13 117 -3 202 -23 368 -88 135 -54 567 -200 721 -245 196 -58 450 -111 729
-155 242 -38 286 -33 365 41 86 80 116 185 141 489 39 472 -64 883 -245 978
-33 17 -63 22 -151 25 -105 3 -120 1 -315 -48 -463 -115 -721 -201 -1120 -373
-96 -41 -194 -80 -217 -86 -122 -33 -528 -34 -508 -1 3 5 30 23 61 41 48 27
55 35 50 54 -5 18 1 28 23 44 19 14 31 33 35 57 6 29 17 41 57 66 27 17 49 34
49 39 0 4 -13 12 -30 18 -35 12 -35 12 -14 52 14 28 14 32 -2 50 -17 19 -17
21 0 49 20 34 14 50 -17 50 -37 0 -51 14 -38 38 16 30 16 31 -46 34 -50 3 -58
6 -58 23 -1 38 -12 44 -71 38 -48 -5 -57 -3 -69 14 -12 17 -22 20 -61 15 -38
-4 -50 -1 -60 13 -11 15 -22 17 -65 11 -48 -7 -54 -5 -73 19 -21 26 -21 26
-89 14 -60 -11 -68 -11 -80 4 -10 15 -21 16 -75 9 -52 -7 -64 -6 -71 6 -8 14
-18 14 -81 3 -74 -14 -81 -12 -93 23 -2 5 -25 2 -52 -7 -63 -22 -82 -21 -95 2
-10 19 -11 19 -77 0 l-67 -19 -21 25 c-20 25 -20 25 -75 10 -69 -19 -90 -19
-90 -1 0 25 -17 27 -85 11 -93 -21 -109 -20 -95 5 14 26 10 25 -50 -5 -58 -29
-146 -36 -136 -10 3 8 9 22 12 30 8 19 -12 19 -91 0 -33 -8 -73 -14 -88 -15
-24 0 -27 3 -22 20 8 25 11 25 -71 -6 l-69 -26 -16 21 c-21 26 -31 26 -109 2
-61 -19 -62 -19 -67 0 -6 23 -4 23 -69 2 -50 -15 -55 -15 -92 1 -32 15 -46 16
-78 7 -54 -15 -74 -14 -74 4 0 26 -24 27 -79 5 -63 -24 -80 -25 -96 -3 -12 16
-18 16 -64 4 -48 -12 -52 -12 -69 9 -16 20 -19 20 -61 5 -59 -20 -82 -19 -88
5 -7 25 -21 25 -53 0 -33 -26 -39 -25 -77 12 l-32 31 -35 -18 -35 -19 -26 24
c-23 22 -29 23 -58 12 -45 -16 -53 -15 -87 9 -27 20 -32 21 -76 9 -46 -13 -47
-13 -71 15 -23 27 -27 27 -98 23 -78 -5 -95 1 -95 35 0 18 -5 19 -49 14 -43
-5 -51 -3 -72 19 -18 19 -33 24 -69 24 -45 0 -48 2 -56 33 -9 31 -12 32 -54
29 -41 -3 -47 -1 -63 27 -21 35 -27 37 -68 16 -36 -19 -43 -15 -69 36 -11 21
-23 39 -25 39 -3 0 -23 -12 -45 -26 -44 -29 -56 -26 -65 15 -11 52 -28 57
-103 34 -123 -39 -112 -39 -112 1 0 20 -4 36 -8 36 -4 0 -55 -16 -112 -35 -57
-19 -108 -35 -112 -35 -5 0 -6 16 -2 35 3 19 5 35 3 35 -2 -1 -32 -14 -65 -31z"/>
</g>
</svg>
