<?xml version="1.0" standalone="no"?>
<!DOCTYPE svg PUBLIC "-//W3C//DTD SVG 20010904//EN"
 "http://www.w3.org/TR/2001/REC-SVG-20010904/DTD/svg10.dtd">
<svg version="1.0" xmlns="http://www.w3.org/2000/svg"
 width="1536.000000pt" height="1368.000000pt" viewBox="0 0 1536.000000 1368.000000"
 preserveAspectRatio="xMidYMid meet">
<metadata>
Created by potrace 1.16, written by Peter Selinger 2001-2019
</metadata>
<g transform="translate(0.000000,1368.000000) scale(0.100000,-0.100000)"
fill="#000000" stroke="none">
<path d="M11270 13670 c-1177 -39 -2134 -154 -2875 -345 -1023 -263 -2010
-814 -2940 -1644 -174 -155 -579 -560 -746 -746 -306 -341 -584 -681 -874
-1070 -362 -485 -551 -760 -1353 -1965 -417 -629 -567 -844 -792 -1146 -146
-195 -220 -286 -529 -654 -759 -903 -1162 -1822 -1161 -2650 0 -69 3 -141 6
-161 6 -36 6 -36 49 -31 27 3 87 -6 162 -23 232 -53 995 -246 1383 -350 1179
-316 1564 -410 2090 -509 618 -116 1083 -161 1670 -160 652 0 1149 57 1799
204 198 46 239 48 315 19 176 -65 248 -289 143 -446 -35 -53 -108 -107 -165
-123 -204 -57 -723 -154 -1042 -194 -392 -50 -573 -60 -1050 -60 -544 0 -796
18 -1331 94 -618 89 -1162 211 -2364 532 -924 246 -1511 395 -1521 385 -8 -7
76 -200 141 -324 517 -990 1729 -1744 3376 -2097 942 -202 2077 -260 2838
-145 2307 348 4407 2189 6328 5549 761 1331 1486 2871 2238 4755 168 420 217
564 254 742 46 223 52 443 16 618 -80 386 -335 699 -821 1007 -248 157 -528
299 -1289 656 -165 77 -367 173 -450 213 l-150 72 -550 3 c-302 1 -665 -2
-805 -6z"/>
</g>
</svg>
