<?xml version="1.0" standalone="no"?>
<!DOCTYPE svg PUBLIC "-//W3C//DTD SVG 20010904//EN"
 "http://www.w3.org/TR/2001/REC-SVG-20010904/DTD/svg10.dtd">
<svg version="1.0" xmlns="http://www.w3.org/2000/svg"
 width="1536.000000pt" height="750.000000pt" viewBox="0 0 1536.000000 750.000000"
 preserveAspectRatio="xMidYMid meet">
<metadata>
Created by potrace 1.16, written by Peter Selinger 2001-2019
</metadata>
<g transform="translate(0.000000,750.000000) scale(0.100000,-0.100000)"
fill="#000000" stroke="none">
<path d="M7060 7475 c-45 -21 -91 -63 -247 -223 -105 -108 -195 -193 -199
-189 -4 4 2 17 14 30 29 31 28 41 -4 33 -60 -15 -161 -101 -242 -205 -107
-139 -194 -241 -207 -241 -7 0 -15 9 -17 20 -2 12 -7 21 -13 22 -25 4 -321
-409 -419 -584 -60 -108 -79 -101 -26 10 35 75 21 82 -31 14 -49 -63 -156
-243 -189 -316 -24 -51 -28 -57 -34 -38 -6 19 -11 15 -36 -32 -15 -30 -31 -69
-35 -86 -9 -40 -38 -53 -170 -74 -116 -18 -484 -36 -759 -36 -199 0 -295 -10
-534 -56 -428 -80 -592 -120 -812 -194 -63 -22 -191 -63 -285 -91 -241 -72
-374 -127 -585 -242 -102 -56 -227 -122 -278 -148 -52 -26 -104 -57 -116 -68
-13 -12 -88 -49 -167 -82 -79 -33 -209 -88 -289 -122 -80 -34 -183 -86 -230
-116 -47 -30 -134 -78 -195 -106 -71 -34 -131 -71 -170 -105 -142 -125 -320
-298 -347 -339 -29 -41 -30 -47 -25 -115 6 -86 49 -192 114 -283 24 -35 41
-63 38 -63 -19 0 -181 97 -264 158 -57 41 -101 42 -162 3 -77 -50 -107 -85
-124 -146 -22 -75 -14 -92 85 -190 62 -60 84 -90 100 -133 12 -30 51 -100 88
-155 37 -54 88 -131 114 -171 106 -158 166 -229 273 -322 61 -52 137 -112 170
-131 104 -63 531 -349 570 -383 11 -9 55 -38 99 -65 43 -26 104 -69 135 -94
99 -83 205 -150 298 -190 80 -35 451 -150 648 -202 132 -34 290 -50 430 -44
115 6 152 3 320 -24 195 -31 717 -84 975 -100 80 -5 219 -5 310 -1 l165 6 65
-49 c36 -28 103 -77 148 -111 46 -34 157 -119 245 -189 163 -129 269 -199 320
-211 26 -6 27 -5 17 15 -7 11 -9 23 -5 27 10 10 144 -61 225 -120 41 -29 93
-64 115 -77 22 -14 58 -39 80 -56 22 -18 90 -63 150 -100 157 -97 303 -194
355 -236 92 -74 170 -120 196 -117 23 3 12 15 -98 108 -136 117 -270 217 -365
274 -119 71 -73 54 144 -51 261 -127 463 -204 463 -176 0 11 -130 73 -205 97
-50 17 -137 62 -100 52 11 -3 67 -21 123 -40 121 -41 208 -55 347 -58 95 -2
145 5 145 20 0 4 -46 20 -102 36 -215 60 -256 74 -446 154 -90 38 -53 39 63 1
193 -61 455 -108 455 -81 0 6 -53 27 -117 47 -174 53 -187 57 -326 110 -70 26
-126 50 -123 52 2 2 21 -3 42 -11 129 -51 309 -79 382 -60 35 10 26 19 -30 30
-190 39 -395 105 -413 134 -12 19 -1 21 51 5 150 -44 467 -75 494 -49 8 8 -12
16 -77 29 -211 41 -537 140 -788 238 -77 30 -236 89 -353 132 -116 43 -211 79
-210 81 3 2 96 -17 318 -66 221 -48 592 -108 805 -131 88 -9 119 -8 153 2 24
7 39 16 35 19 -9 8 -132 35 -203 45 -69 9 -192 33 -335 65 -71 16 -155 34
-186 40 -64 12 -141 48 -147 69 -4 11 30 12 199 5 343 -15 509 -9 509 17 0 5
-26 9 -57 10 -32 0 -94 4 -138 9 -44 5 -165 16 -270 25 -257 22 -282 33 -75
34 91 1 206 6 255 12 148 17 151 25 19 40 -215 25 -302 30 -514 30 -241 1
-242 6 -10 33 235 27 358 36 635 46 149 6 313 17 365 25 152 23 162 22 197
-27 17 -24 42 -76 57 -117 32 -88 56 -131 73 -131 15 0 33 -40 74 -160 53
-155 112 -283 215 -465 127 -224 193 -296 134 -145 -11 28 -18 55 -15 60 12
19 36 -5 90 -91 71 -112 167 -223 206 -239 16 -7 32 -10 35 -8 2 3 -11 26 -31
52 -19 25 -35 51 -35 56 0 31 49 -3 159 -110 167 -162 188 -145 38 31 -102
121 -110 149 -42 149 28 0 39 -6 56 -32 26 -39 125 -121 140 -116 6 2 -7 26
-29 53 -53 69 -212 315 -212 330 0 16 31 42 55 46 40 7 80 -23 140 -102 61
-82 127 -149 145 -149 15 0 -23 71 -90 170 -76 112 -80 121 -80 172 1 76 47
103 87 51 50 -69 168 -199 190 -211 50 -27 46 -20 -110 206 -70 101 -81 126
-66 155 29 54 63 49 119 -17 25 -30 68 -83 95 -119 46 -60 100 -106 111 -94 3
3 -20 40 -50 83 -30 44 -80 122 -110 175 -58 101 -69 146 -42 181 26 35 52 21
110 -54 100 -132 166 -207 197 -223 50 -26 54 -13 12 40 -68 86 -173 249 -173
268 0 28 19 57 37 57 9 0 54 -38 99 -85 78 -81 173 -143 196 -129 5 3 -28 44
-72 91 -90 95 -114 134 -106 169 11 43 42 28 130 -61 63 -65 90 -85 110 -85
l27 0 -18 31 c-10 17 -39 56 -65 86 -27 30 -50 64 -54 77 -9 36 14 106 34 106
10 0 44 -31 75 -68 56 -66 94 -98 104 -89 7 7 -61 136 -101 192 -36 49 -43 83
-30 133 10 34 30 27 97 -34 93 -84 167 -117 167 -74 0 19 -113 140 -192 206
-43 35 -48 64 -18 94 28 28 41 19 131 -85 41 -48 91 -96 112 -106 20 -11 37
-17 37 -13 0 25 -84 156 -132 206 -62 66 -69 85 -40 111 31 28 56 20 137 -43
76 -59 111 -71 143 -51 10 6 -4 22 -51 60 -36 28 -68 58 -71 67 -10 27 -7 51
9 64 13 11 20 10 43 -9 79 -64 176 -121 206 -121 30 1 29 3 -62 91 -51 50 -94
100 -95 112 -4 40 30 29 95 -30 53 -50 103 -83 124 -83 3 0 0 9 -6 19 -15 30
-13 34 20 29 17 -3 30 -3 30 -2 0 2 -27 24 -61 49 -54 42 -60 50 -57 79 4 42
34 45 109 11 33 -14 69 -25 82 -23 19 3 17 7 -20 31 -45 29 -53 47 -28 67 13
10 23 10 58 -5 101 -42 97 -41 97 -16 0 11 -23 36 -55 60 -55 42 -65 60 -42
78 26 21 46 21 71 2 19 -15 37 -19 73 -17 l47 3 -37 25 c-28 19 -37 31 -35 49
4 37 30 47 69 29 58 -27 134 -46 163 -41 25 5 19 10 -61 52 -118 63 -117 100
3 71 43 -11 58 -10 95 3 l44 15 -30 11 c-16 6 -36 14 -43 16 -20 7 -10 49 12
54 11 2 44 -2 73 -9 35 -9 60 -10 74 -4 18 9 14 13 -40 39 -34 16 -61 34 -61
41 0 22 36 35 65 24 34 -13 75 -13 75 0 0 6 -7 10 -15 10 -8 0 -15 5 -15 10 0
6 27 10 60 10 33 0 60 4 60 8 0 5 -18 16 -40 25 -22 8 -40 22 -40 30 0 13 6
13 47 1 61 -18 127 -18 143 1 14 17 10 19 -49 29 -83 15 -111 26 -111 47 0 29
21 32 89 13 61 -17 134 -15 153 4 5 5 -20 18 -64 32 -116 37 -126 41 -132 56
-7 19 41 19 91 -1 57 -22 147 -35 179 -26 l29 8 -45 23 c-25 13 -74 33 -109
45 -66 22 -77 31 -63 52 5 8 29 9 95 1 87 -10 148 -5 131 12 -5 4 -18 10 -29
13 -11 3 15 5 58 6 42 0 77 5 77 9 0 12 -93 32 -153 33 -29 0 -92 6 -142 13
l-90 12 165 5 c117 4 172 10 190 20 24 14 24 14 -30 20 -31 3 -41 6 -24 7 40
2 94 21 94 33 0 5 -57 9 -127 9 -116 1 -126 2 -103 15 36 20 306 20 425 -1
139 -24 356 -102 465 -166 25 -15 70 -34 101 -42 32 -8 75 -26 96 -40 54 -36
340 -172 433 -206 41 -16 183 -86 315 -156 419 -222 1595 -807 1735 -863 133
-53 244 -76 258 -54 5 6 43 -1 102 -18 109 -32 256 -39 300 -15 24 14 24 14
-20 26 -64 16 -212 61 -230 69 -8 4 -22 21 -30 38 -12 24 -27 35 -68 47 -38
13 -56 25 -67 46 -8 16 -25 36 -37 45 -21 15 -21 16 -3 11 12 -3 34 3 55 16
l35 21 -65 29 c-64 29 -65 30 -40 43 25 14 25 14 -35 41 -33 14 -105 43 -160
64 -55 21 -168 72 -250 112 -83 41 -165 79 -182 86 -32 11 -46 32 -20 32 16 0
85 -24 93 -33 4 -4 29 -7 54 -7 26 0 67 -7 90 -15 52 -19 91 -19 114 -2 16 12
6 19 -95 70 -63 31 -106 57 -96 57 36 0 15 19 -55 49 -40 17 -65 31 -55 31 10
0 28 5 39 11 19 10 19 12 -13 31 -32 20 -128 48 -211 62 -28 5 -41 15 -57 42
-12 20 -31 38 -42 41 -18 5 -19 7 -3 24 15 17 13 18 -28 30 -92 25 -106 30
-122 48 -16 18 -15 19 16 30 l33 12 -35 16 c-136 60 -289 119 -370 143 -125
36 -204 69 -170 69 14 1 43 -6 65 -14 42 -15 131 -19 184 -9 50 10 22 29 -79
54 -74 18 -97 29 -140 66 -62 53 -73 59 -159 90 -36 14 -55 22 -41 19 14 -3
48 -11 75 -17 28 -6 63 -8 79 -4 l28 7 -42 32 c-60 45 -101 67 -130 67 -14 1
-65 19 -115 41 l-90 40 70 -6 c39 -4 119 -8 178 -10 123 -4 139 6 93 54 -28
29 -26 41 9 41 12 0 29 6 39 13 17 13 17 14 -10 25 -35 13 -244 67 -298 77
-21 3 -35 10 -30 14 19 16 137 41 196 41 35 0 90 7 123 14 33 8 63 12 68 9 4
-2 31 -2 59 2 60 9 53 16 -45 46 -49 15 -67 25 -63 35 4 10 -3 14 -22 15 -43
3 107 19 165 19 59 -1 133 16 133 30 0 6 -4 10 -8 10 -5 0 -51 9 -102 20 -51
11 -110 20 -129 20 -44 0 -201 32 -201 41 0 3 28 9 63 13 100 10 206 27 297
47 47 10 114 23 150 29 97 16 114 20 104 29 -11 10 -169 31 -240 32 l-49 0 45
15 c50 15 179 44 339 75 101 20 223 68 174 69 -22 0 -44 20 -22 20 18 0 99 42
99 52 0 4 8 8 18 8 9 0 42 13 73 30 48 25 68 29 127 29 38 -1 80 5 93 12 23
12 23 12 4 20 -11 4 -31 8 -45 9 -24 1 -24 1 -6 15 13 10 46 15 95 16 135 2
157 21 44 39 -63 11 -88 26 -57 35 10 4 53 22 94 40 41 19 93 36 115 39 132
18 157 52 33 43 l-83 -5 78 24 c86 26 226 96 257 129 l20 21 -38 -3 c-20 -1
22 10 93 26 72 15 180 42 240 59 61 17 131 37 158 43 26 6 47 16 47 20 0 28
-267 -12 -542 -81 -64 -17 -120 -30 -125 -30 -13 1 172 68 292 106 306 97 424
133 470 142 57 12 214 67 228 81 26 26 -409 36 -492 12 -24 -7 -82 -14 -130
-16 -59 -2 -136 -16 -244 -44 -154 -40 -217 -57 -727 -202 -135 -39 -380 -104
-545 -144 -165 -41 -367 -94 -450 -118 -82 -24 -307 -90 -500 -147 -433 -127
-473 -137 -588 -145 -50 -4 -123 -13 -160 -21 -179 -37 -587 -5 -862 67 -88
22 -219 54 -292 69 -72 16 -196 46 -275 69 -226 64 -952 245 -1183 295 -115
25 -282 61 -370 80 -88 19 -218 42 -289 52 -71 9 -177 26 -235 38 l-106 23
183 5 c112 3 187 9 194 16 12 12 -14 18 -126 26 -105 8 -105 18 3 44 39 9 71
20 71 24 0 14 -51 20 -110 14 -33 -3 -88 -8 -122 -11 -62 -5 -63 -5 -28 9 19
8 48 15 63 15 15 1 45 10 65 20 20 10 56 24 78 30 41 11 73 36 61 47 -3 4 -20
1 -38 -5 -100 -35 -579 -86 -579 -63 0 16 13 22 230 102 107 40 213 82 235 94
l40 21 -43 3 c-41 3 -300 -69 -460 -128 -30 -11 -64 -20 -76 -20 -23 0 -56 28
-56 47 0 6 35 30 78 53 42 24 106 62 142 85 36 23 112 70 170 103 97 57 102
62 70 62 -34 0 -125 -37 -305 -125 -188 -92 -217 -100 -223 -59 -3 22 91 108
253 231 93 70 141 118 127 127 -11 7 -132 -65 -270 -162 -137 -96 -159 -107
-188 -93 -16 7 -24 19 -24 36 0 31 49 105 85 129 14 9 61 47 104 84 43 37 104
86 135 110 31 24 54 48 51 53 -9 14 -93 -33 -181 -101 -160 -124 -154 -120
-204 -120 -39 0 -49 4 -59 24 -18 34 -7 51 123 186 61 63 122 127 135 143 24
26 24 27 4 27 -12 0 -43 -16 -69 -35 -75 -53 -123 -76 -152 -73 -63 7 -30 53
180 243 30 28 60 60 67 72 11 22 10 22 -14 13 -15 -6 -36 -15 -47 -21 -26 -14
-216 -168 -280 -226 -53 -49 -49 -47 -83 -31 -47 21 -43 51 17 131 62 82 125
147 281 290 104 96 121 117 94 117 -25 0 -190 -125 -302 -229 -99 -92 -111
-100 -122 -84 -7 9 -13 35 -13 58 0 64 59 152 176 264 98 94 151 157 141 167
-13 13 -146 -87 -251 -189 -66 -64 -101 -74 -112 -33 -13 55 13 93 188 265 94
92 169 173 167 179 -7 19 -100 -34 -184 -104 -119 -99 -120 -100 -150 -80 -14
9 -25 23 -25 32 0 35 48 105 139 202 53 57 109 120 126 139 l30 36 -28 -7
c-16 -4 -62 -34 -104 -67 -77 -61 -114 -72 -121 -37 -4 21 75 109 126 140 19
11 48 24 66 28 l31 6 -24 13 c-49 27 -132 -20 -290 -163 -78 -70 -113 -82
-119 -39 -7 51 45 114 216 262 97 85 98 100 2 56z"/>
</g>
</svg>
