<?xml version="1.0" encoding="UTF-8" standalone="no"?>
<!-- Created with Inkscape (http://www.inkscape.org/) -->

<svg
   xmlns:svg="http://www.w3.org/2000/svg"
   xmlns="http://www.w3.org/2000/svg"
   version="1.2"
   width="1842"
   height="2118.8831"
   viewBox="0 0 1842 2118.883"
   id="Layer_1"
   xml:space="preserve"
   style="overflow:inherit"><defs
   id="defs7" />
<path
   d="m 10,2044.267 c -0.212,-6.603 -6.416,-13.008 -7,-19 -0.534,-5.479 2.042,-11.116 4,-18 1.769,-6.216 1.729,-13.288 3,-18 9.012,-33.426 33.267,-50.111 66,-59 18.671,-21.446 52.901,-30.477 86,-28 8.754,0.655 32.976,5.197 39,3 10.064,-3.671 12.089,-76.57 14,-96 6.56,-66.707 69.232,-92.14 112,-129 10.718,-9.237 39.202,-33.149 43,-36 15.906,-11.938 176.094,-131.21 185,-150 15.828,-9.343 64.534,-65.748 77,-80 49.502,-56.594 122.926,-90.443 178,-141 27.999,-25.702 53.434,-52.765 80,-80 32.768,-37.358 79.872,-62.1 109,-104 6.551,-9.424 48.406,-83.958 52,-93 7.433,-18.699 8.377,-47.795 19,-60 10.623,-12.205 19.836,-24.981 23,-30 5.683,-9.012 77.019,-97.73 115,-129 20.32,-16.729 42,-38.663 59,-53 17,-14.337 24.926,-37.903 28,-44 8.537,-16.929 9.727,-36.438 8,-58 4.318,-25.046 3.997,-51.995 14,-69 5.87,-9.979 8.973,-49.497 10,-56 2.192,-13.884 5.313,-32.558 11,-43 9.518,-17.478 45.506,-70.199 53,-79 10.088,-11.848 22.376,-20.529 36,-30 12.355,-8.589 29.841,-16.116 38,-28 2.784,-4.056 42.685,-52.315 59,-64 20.648,-24.018 40.289,-49.044 62,-72 2.582,-7.025 36.665,-55.998 42,-67 5.335,-11.002 14.665,-19.665 45,-26 30.335,-6.335 44.564,-17.591 52,-23 0.312,-42.203 28.611,-33.54 69,-50 42.002,-12.002 40.389,-16.46 48,-15 -0.532,17.297 -75.007,36.441 -84,46 -8.993,9.559 0.527,21.509 -12,34 -12.527,12.491 -18.715,16.214 -41,26 -22.285,9.786 -41.002,11.002 -50,32 -8.998,20.998 -10.336,44.337 -17,64 -13.333,54.328 -59.082,95.949 -69,110 -16.071,22.769 -24.651,47.985 -44,65 -6.254,5.5 -15.486,9.12 -21,16 -55.998,57.997 -49.062,71.619 -51,105 -1.938,33.381 2.332,41.669 -2,60 -4.332,18.331 -13.188,20.402 -18,39 -4.812,18.598 0.069,32.481 0,63 -0.069,30.519 -0.6,53.832 -7,69 -6.4,15.168 -21.562,58.635 -33,73 -11.438,14.365 -13.668,18.336 -24,31 -10.332,12.664 -73,48 -82,58 -9,10 -10.562,10.633 -18,21 -7.438,10.367 -10.333,16.335 -19,32 -8.667,15.665 -15.657,15.428 -25,26 -9.343,10.572 -27.021,22.05 -40,62 -12.979,39.95 -14.333,42.335 -25,75 -10.667,32.665 -14,32.668 -38,65 -24,32.332 -86,76 -90,83 -4,7 -7.001,10.27 -13,17 -5.999,6.73 -45.667,53.002 -64,70 -18.333,16.998 -28.334,29.668 -38,39 -9.666,9.332 -53.363,37.024 -60,42 -6.637,4.976 -7.666,10.668 -28,25 -20.334,14.332 -47.666,31.002 -72,48 -24.334,16.998 -46.877,47.668 -68,63 -21.123,15.332 -110.048,94.701 -199,146 -88.952,51.299 -126.667,77.338 -148,87 -21.333,9.662 -10.704,1.046 -19,17 -8.296,15.954 -15.77,12.904 -16,36 -0.23,23.096 0.825,22.162 -4,40 -4.825,17.838 -10.312,57.297 -30,74 -19.688,16.703 -11.941,13.432 -22,18 -23.192,10.217 -42.023,18.768 -56,25 -13.977,6.232 -13.977,6.232 -23,8 -2.492,14.679 -10,34.337 -22,44 -12,9.663 -28.442,12.168 -34,15 -5.367,2.734 -25.542,18.431 -30,22 -9.504,7.608 -17.717,17.021 -27,25 -29.517,7.619 -50.83,-1.711 -59,-24 0,-1.667 3.806,-25.756 10,-48 z"
   id="path3"
   style="fill-rule:evenodd" />
</svg>