<?xml version="1.0" standalone="no"?>
<!DOCTYPE svg PUBLIC "-//W3C//DTD SVG 20010904//EN"
 "http://www.w3.org/TR/2001/REC-SVG-20010904/DTD/svg10.dtd">
<svg version="1.0" xmlns="http://www.w3.org/2000/svg"
 width="1536.000000pt" height="560.000000pt" viewBox="0 0 1536.000000 560.000000"
 preserveAspectRatio="xMidYMid meet">
<metadata>
Created by potrace 1.16, written by Peter Selinger 2001-2019
</metadata>
<g transform="translate(0.000000,560.000000) scale(0.100000,-0.100000)"
fill="#000000" stroke="none">
<path d="M993 5579 c-59 -29 -137 -118 -162 -183 -27 -74 -37 -226 -22 -355 7
-57 9 -107 4 -112 -5 -5 -30 -2 -57 6 -101 31 -180 11 -255 -64 -62 -62 -85
-114 -85 -191 0 -49 7 -78 27 -120 37 -76 36 -113 -5 -143 -49 -36 -139 -66
-251 -83 -117 -17 -128 -22 -156 -68 -30 -48 -37 -121 -18 -187 41 -137 175
-209 392 -209 149 0 163 -12 235 -185 48 -114 112 -217 168 -267 21 -19 72
-53 113 -76 147 -81 235 -183 294 -339 58 -153 75 -184 132 -244 71 -74 139
-105 279 -124 128 -18 156 -26 248 -72 89 -45 162 -115 232 -222 107 -165 209
-248 437 -360 67 -33 140 -75 163 -94 52 -46 98 -134 113 -221 19 -109 71
-190 154 -243 21 -13 140 -58 265 -99 279 -92 391 -148 567 -285 72 -56 159
-118 195 -139 100 -58 262 -124 395 -159 66 -17 147 -45 181 -61 93 -45 189
-133 296 -270 170 -218 252 -255 472 -210 176 35 261 15 476 -115 139 -83 232
-83 435 0 101 41 117 45 197 45 74 0 103 -5 190 -35 57 -20 157 -47 223 -60
329 -67 434 -38 509 141 75 180 168 260 386 337 78 27 100 30 280 37 175 7
202 11 263 34 76 28 103 46 195 123 113 95 209 133 397 158 145 19 244 61 344
146 182 154 224 179 526 304 231 97 472 215 560 276 113 78 179 156 254 300
95 182 270 438 366 535 130 132 208 149 525 118 137 -14 239 -17 395 -14 534
10 1005 4 1190 -15 155 -17 260 -20 760 -20 505 -1 597 -3 709 -19 188 -26
307 -20 408 23 190 80 380 272 420 424 11 41 10 52 -3 75 -21 39 -57 39 -200
-3 -187 -54 -297 -69 -459 -59 -200 12 -326 9 -404 -10 -38 -9 -130 -45 -205
-81 -259 -122 -321 -118 -556 34 -142 93 -244 138 -363 161 -73 15 -255 8
-412 -14 -136 -20 -475 -21 -720 -1 -285 22 -732 38 -858 30 -171 -10 -259
-38 -337 -107 -20 -17 -78 -83 -130 -147 -243 -303 -582 -558 -1025 -770 -141
-67 -241 -103 -374 -134 -79 -18 -123 -21 -341 -22 l-250 0 -57 -28 c-95 -47
-170 -109 -281 -234 -160 -180 -194 -188 -287 -68 -45 59 -76 74 -119 59 -40
-14 -68 -67 -117 -218 -51 -162 -79 -217 -115 -230 -22 -7 -35 -2 -88 35 -60
42 -65 44 -135 44 -72 0 -73 0 -167 -62 -113 -75 -160 -93 -260 -100 -98 -7
-200 15 -306 66 -65 32 -91 51 -139 107 -162 187 -288 274 -537 371 l-89 34
-75 -15 c-86 -18 -191 -21 -245 -6 -49 14 -74 48 -82 112 -17 130 -61 197
-188 285 -92 64 -282 171 -413 233 -136 64 -187 107 -273 232 -88 128 -258
340 -338 424 -66 68 -166 144 -235 180 -26 12 -100 41 -165 64 -65 22 -137 51
-159 64 -68 40 -134 105 -187 185 -110 164 -176 222 -458 408 -113 74 -261
177 -330 228 -182 134 -682 464 -786 518 -49 25 -170 77 -269 116 -207 81
-281 127 -400 245 -132 130 -186 240 -231 468 -29 149 -44 185 -80 198 -38 15
-65 12 -111 -11z"/>
</g>
</svg>
