<?xml version="1.0" encoding="UTF-8" standalone="no"?>
<!-- Created with Inkscape (http://www.inkscape.org/) -->

<svg
   xmlns:svg="http://www.w3.org/2000/svg"
   xmlns="http://www.w3.org/2000/svg"
   version="1.1"
   width="582.29382mm"
   height="196.08931mm"
   viewBox="0 0 2063.2458 694.80464"
   id="svg3349">
  <defs
     id="defs3351" />
  <g
     transform="translate(827.20548,-568.98463)"
     id="layer1">
    <path
       d="m 222.64844,568.99609 c -2.63115,0.0349 -4.85042,0.15037 -6.57617,0.35352 -3.09375,0.36419 -20.75857,0.69829 -39.25391,0.74219 -29.32193,0.0696 -34.52385,0.37836 -40.625,2.4082 -3.84841,1.28035 -11.77734,2.70306 -17.62109,3.16016 -11.72956,0.9175 -27.875444,3.93362 -46.724614,8.73242 -6.79128,1.72898 -14.392065,3.14453 -16.890625,3.14453 -3.32365,0 -6.955669,1.59349 -13.537109,5.9375 -14.70439,9.7055 -19.454096,12.40982 -24.722656,14.07617 -2.75,0.86976 -8.675366,3.4177 -13.166016,5.66211 -4.49065004,2.2444 -10.6781501,4.75753 -13.75,5.58399 -7.36801,1.98228 -11.827758,4.33786 -19.085938,10.08203 -6.36847,5.04003 -9.388706,6.19913 -32.123046,12.32617 -7.90625,2.13077 -17.46875,4.72107 -21.25,5.75586 -3.78125,1.03479 -11.375,2.41866 -16.875,3.07617 -35.444206,4.23725 -34.333566,3.95248 -65.624996,16.86914 -3.78125,1.56085 -8.5625,3.21769 -10.625,3.68164 -2.0625,0.46397 -7.38428,2.28286 -11.82422,4.04102 -4.43992,1.75816 -12.44608,4.50505 -17.79297,6.10547 -5.34687,1.60039 -13.2458,4.95534 -17.55274,7.45507 -13.1776,7.64821 -13.75447,7.90636 -24.70507,11.07227 -13.13896,3.79859 -36.4062,9.16738 -46.67774,10.76953 -12.60315,1.96583 -38.42088,7.73874 -69.57226,15.55664 -3.78125,0.94897 -9.125,2.10186 -11.875,2.5625 -9.63906,1.61459 -21.00731,6.00367 -38.55274,14.88867 -11.75924,5.95487 -21.05326,9.74168 -27.69726,11.28321 -5.5,1.27611 -13.564,4.20923 -17.91797,6.51757 -4.35398,2.30832 -9.00292,4.19727 -10.33203,4.19727 -1.32911,0 -9.01706,2.73732 -17.08399,6.08398 -8.06691,3.34666 -17.75976,6.4749 -21.54101,6.95118 -3.78125,0.47629 -9.27281,2.26477 -12.20118,3.97461 -2.92839,1.70983 -7.42839,3.86841 -10,4.79492 -9.33958,3.36489 -32.03462,14.83156 -37.2832,18.83789 -2.9583,2.25812 -9.96356,5.63212 -15.56641,7.49804 -5.60287,1.86591 -11.96153,4.91654 -14.13086,6.7793 -6.70001,5.7532 -24.93926,17.03947 -31.47851,19.47852 -3.41915,1.2753 -12.88929,7.29064 -21.04688,13.36718 -8.1576,6.07655 -17.43885,12.55361 -20.625,14.39258 -17.22185,9.93999 -30.25253,20.65964 -54.4414,44.78907 -12.4438,12.41322 -31.92218,30.02239 -40.14844,36.29687 -2.32718,1.77502 -4.53174,4.16261 -4.89844,5.30469 -0.36671,1.14209 -2.39708,3.20117 -4.51172,4.57617 -2.11464,1.375 -5.30718,5.03125 -7.0957,8.125 -1.78853,3.09375 -5.03729,7.875 -7.21875,10.625 -2.18145,2.75 -4.68642,6.40625 -5.5664,8.125 -3.50943,6.85446 -15.67337,27.28199 -20.2168,33.94919 -2.65125,3.8905 -4.82031,8.4723 -4.82031,10.1817 0,1.7093 -1.74548,7.2059 -3.87696,12.2148 -3.54259,8.325 -3.74286,9.5066 -2.33984,13.7578 0.97388,2.9509 1.22106,7.1632 0.67578,11.5274 -0.55036,4.4049 -0.38369,7.1727 0.46484,7.6972 0.72872,0.4503 1.33335,2.8961 1.34375,5.4336 0.0214,5.2504 2.87756,14.4251 4.10743,13.1953 0.44841,-0.4485 1.17003,0.1086 1.60351,1.2383 0.98608,2.5696 3.02149,2.691 3.02149,0.1797 0,-2.3896 1.75302,-2.4061 3.7207,-0.035 1.34297,1.6185 1.75444,1.6126 3.41601,-0.049 1.68598,-1.686 2.05667,-1.6596 3.44727,0.2422 1.45532,1.9903 1.65936,1.9723 3.06055,-0.2637 1.17639,-1.8772 1.6552,-2.0158 2.21875,-0.6445 0.5447,1.3254 1.27616,1.0226 3.02343,-1.25 1.26821,-1.6495 2.31869,-2.2592 2.33399,-1.3535 0.0188,1.1137 0.8982,1.3702 2.7168,0.793 2.24921,-0.7138 2.54611,-0.4718 1.8164,1.4785 -0.47982,1.2825 1.68667,-0.32 4.8125,-3.5606 3.12582,-3.2406 5.6836,-6.7562 5.6836,-7.8125 0,-1.0562 0.5625,-1.9199 1.25,-1.9199 0.6875,0 1.25,-0.8438 1.25,-1.875 0,-1.0417 1.11111,-1.875 2.5,-1.875 1.84259,0 2.5,-0.8324 2.5,-3.168 0,-2.8497 0.269,-3.0262 2.67187,-1.7402 2.59673,1.3898 2.65488,1.2509 2.0625,-4.9141 -0.38934,-4.0519 -0.15892,-6.0652 0.63867,-5.5722 0.80826,0.4995 1.01398,-2.1598 0.58203,-7.541 -0.36704,-4.5726 -0.17083,-8.3145 0.4375,-8.3145 0.60834,0 1.10743,-2.2618 1.10743,-5.0254 0,-3.2665 1.15594,-6.8751 3.30468,-10.3125 5.71596,-9.1439 10.48733,-14.5678 12.22657,-13.9004 0.91728,0.352 2.71801,-0.6618 4.0039,-2.2539 1.2859,-1.5921 3.86836,-3.8782 5.73828,-5.0801 3.23839,-2.0779 3.36573,-2.0778 2.66797,0.01 -0.40291,1.2054 1.24754,-0.6211 3.66797,-4.0586 2.42043,-3.4375 6.00074,-7.99927 7.95703,-10.1367 11.25731,-12.29965 15.7847,-16.66855 16.68945,-16.10938 0.55847,0.34515 3.24828,-2.88884 5.97852,-7.1875 4.87666,-7.67816 12.76563,-14.26069 12.76563,-10.65234 0,0.94504 1.53808,1.79647 3.51757,1.94726 2.91445,0.22207 3.99233,-0.5754 6.2793,-4.64453 3.70479,-6.59177 19.45637,-21.06324 26.51367,-24.35937 3.12765,-1.46076 7.28103,-3.91189 9.23047,-5.44532 1.94944,-1.53341 4.49381,-2.7871 5.65234,-2.7871 1.15855,0 4.40564,-1.96875 7.2168,-4.375 2.81116,-2.40625 5.88141,-4.375 6.82227,-4.375 0.94087,0 2.96032,-0.8751 4.48828,-1.94532 1.52798,-1.07022 2.7793,-1.57504 2.7793,-1.12109 0,0.45395 1.98778,-0.92097 4.41796,-3.05469 5.25134,-4.61074 10.00396,-5.57868 6.08789,-1.24023 -2.3408,2.59327 -2.30128,2.59 2.31055,-0.12696 2.58032,-1.52015 5.00265,-3.26841 5.38477,-3.88671 0.38213,-0.6183 1.25781,-1.125 1.94531,-1.125 0.6875,0 0.90342,0.5625 0.47852,1.25 -1.35064,2.18539 0.87685,1.35292 5.19335,-1.93946 6.25561,-4.77137 12.2291,-7.01113 13.99219,-5.24804 1.08421,1.08427 1.43946,1.05656 1.43946,-0.10743 0,-1.12813 0.63645,-1.20164 2.36718,-0.27539 1.77987,0.95257 2.77546,0.77903 4.00391,-0.70117 1.47368,-1.77567 1.71643,-1.74315 2.45508,0.33789 0.67044,1.88885 0.97278,1.62667 1.66406,-1.4414 0.69901,-3.10232 2.56546,-4.67632 10.80273,-9.11719 10.01146,-5.39737 11.81313,-5.66023 7.76954,-1.12891 -2.15675,2.4169 -2.11723,2.4174 2.8125,-0.0312 3.60227,-1.78928 5.98046,-2.20965 8.50976,-1.5039 2.35249,0.65642 3.68049,0.49356 4.02539,-0.49415 2.85603,-8.17876 3.26073,-8.84398 4.33399,-7.10742 0.93524,1.51327 1.45992,1.46093 3.46484,-0.35351 1.29924,-1.17578 2.76262,-2.13867 3.25195,-2.13867 0.48933,0 2.6344,-1.26562 4.76758,-2.8125 2.75866,-2.00045 4.03845,-2.36136 4.42969,-1.25 0.82508,2.3438 4.66537,1.88222 7.14648,-0.85938 3.52694,-3.89722 24.74456,-9.8461 22.57032,-6.32812 -0.99056,1.60277 -1.03153,1.60633 6.82421,-0.72657 4.16141,-1.23581 6.93804,-1.51873 7.41407,-0.75586 1.13742,1.8228 10.74568,0.96056 22.01172,-1.97656 5.5,-1.43389 13.2359,-2.83613 17.1914,-3.11523 6.90694,-0.48735 7.11008,-0.41676 5.11914,1.7832 -2.4783,2.73849 -1.39991,2.96691 2.41992,0.51172 1.52269,-0.9787 7.55079,-2.90483 13.39454,-4.28125 5.84375,-1.37643 12.2138,-3.11025 14.15625,-3.85156 1.95907,-0.74766 3.20087,-0.89626 4.5039,-0.40625 2.69379,-0.87581 5.2693,0.14985 6.58008,2.40625 2.90882,-1.20491 4.97591,-0.0303 2.22266,1.71093 -1.44444,0.9135 -1.2204,1.16664 1.04687,1.18164 1.58745,0.0105 2.5897,-0.46126 2.22656,-1.04882 -0.36314,-0.58756 0.75842,-2.4005 2.49219,-4.0293 2.51838,-2.36589 3.36519,-2.61726 4.20899,-1.25195 0.61433,0.99408 2.15509,1.42119 3.68359,1.02148 2.53176,-0.66206 3.16425,-0.0327 1.89258,1.20703 0.82415,0.0875 1.58042,0.3093 2.42578,0.24024 1.6667,-0.0485 1.87529,-0.0776 0.63281,0.0156 -5.58561,0.41921 -3.51396,2.57389 -0.375,5.01758 4.30329,-0.45651 7.48663,-2.45129 5.4082,-3.76758 -1.32615,-0.83987 -1.14195,-1.10063 0.78711,-1.11523 1.38518,-0.0105 4.76018,-1.21513 7.5,-2.67578 l 4.98243,-2.6543 -2.38282,2.6543 c -1.30967,1.46065 -1.81836,2.65625 -1.13086,2.65625 1.9608,0 5.4993,-4.46199 4.45313,-5.61524 -0.51712,-0.57004 -0.17452,-0.59283 0.76172,-0.0508 0.98351,0.56941 2.09309,0.35329 2.6289,-0.51367 0.51005,-0.8253 3.04343,-1.97743 5.62891,-2.56055 4.07176,-0.91834 4.78496,-0.74183 5.32422,1.32031 0.60798,2.32488 0.69637,2.32235 3.77539,-0.0996 2.25974,-1.7775 4.96437,-2.45557 9.54687,-2.39257 4.72472,0.0649 5.74189,0.36827 3.89454,1.16211 -2.38545,1.02506 -2.37112,1.07822 0.3125,1.1621 1.54688,0.0483 2.8125,-0.4746 2.8125,-1.1621 0,-0.6875 0.59419,-1.25 1.32226,-1.25 0.72808,0 0.92286,0.65051 0.43164,1.44531 -0.64212,1.03897 0.39057,1.23625 3.67578,0.70312 2.83742,-0.46045 4.57032,-0.24176 4.57032,0.57617 0,0.76806 1.17257,0.98665 2.8125,0.52344 1.54687,-0.43694 6.75,-1.57801 11.5625,-2.53515 4.8125,-0.95712 11.13073,-2.56626 14.04101,-3.57422 2.91028,-1.00797 4.98602,-1.33748 4.61328,-0.73438 -0.37273,0.60309 0.48092,1.09571 1.89649,1.09571 3.13874,0 3.40699,2.06521 0.38672,2.97851 -1.83758,0.55567 3.83439,0.29278 16.64843,-0.7207 0.0701,-0.0563 0.13423,-0.11839 0.20703,-0.17188 1.00987,-0.74197 2.46506,-0.45747 3.69727,-0.68554 1.89887,-0.35147 2.93615,-0.22345 3.39258,0.22265 1.09098,-0.12354 2.19232,-0.27162 3.27344,-0.42968 0.16159,-0.0904 0.32616,-0.17457 0.5,-0.24024 1.13399,-0.4284 2.33756,-0.68452 3.54101,-0.83008 0.56844,-0.0688 1.82354,-0.23913 2.34961,-0.16992 0.18351,-0.0519 0.3521,-0.0922 0.53125,-0.14062 0.85764,-1.3356 1.69608,-1.11063 3.96875,-0.86133 1.64311,-0.23894 2.66942,-0.18918 2.67383,0.18164 0.44219,0.0103 0.89796,0.0179 1.41211,0.008 0.0134,-0.006 0.0276,-0.012 0.041,-0.0176 0.39133,-0.16291 0.77059,-0.2989 1.14063,-0.41601 -1.31181,-0.87222 -0.66299,-1.16993 2.56055,-1.16993 3.10961,0 3.80997,0.27975 2.67968,1.08204 2.73563,1.0476 3.9695,3.96365 3.46094,6.83398 15.11913,-4.57726 19.9303,-5.71995 27.57813,-6.53711 8.24154,-0.88061 8.5485,-0.8173 7.3125,1.49219 -0.93469,1.74647 -0.8649,2.67182 0.2539,3.36328 1.08251,0.66903 0.7472,1.20782 -1.12109,1.80078 -1.46583,0.46525 -2.66406,1.38609 -2.66406,2.04492 0,0.65882 1.54688,0.40957 3.4375,-0.55273 14.66548,-7.46454 22.90235,-10.24364 20.9375,-7.06445 -0.4843,0.78361 2.40262,1.28279 7.73828,1.33789 5.91437,0.0611 7.74895,0.4156 6.01172,1.16211 -1.83572,0.78884 -0.67326,1.12097 4.375,1.25 4.62291,0.11815 6.07159,0.48914 4.42578,1.13281 -3.22545,1.26146 8.71572,2.75695 14.5664,1.82422 2.27296,-0.36236 5.82032,0.0362 7.88282,0.88672 2.0625,0.85054 4.62531,1.44097 5.69726,1.3125 1.07197,-0.12845 4.165714,1.46814 6.875001,3.54687 2.7093,2.07874 7.082122,5.22631 9.716797,6.99414 3.022513,2.02806 4.536025,3.87559 4.101563,5.00781 -0.487563,1.27056 0.243456,1.79493 2.503906,1.79493 2.077387,0 4.545944,1.52809 7.066406,4.375 3.5331,3.9907 7.141738,6.1227 5.289063,3.125 -0.4249,-0.6875 -0.484888,-1.25 -0.132813,-1.25 0.352063,0 1.435291,1.82813 2.408203,4.0625 16.634213,38.20194 18.410366,41.55496 27.316406,51.5625 9.732071,10.93574 14.698814,18.2742 15.533204,22.95312 0.44601,2.50115 2.146117,7.51676 3.779296,11.14648 1.63319,3.62974 2.970704,6.91207 2.970704,7.29493 0,0.38286 1.718572,3.09094 3.820312,6.01757 l 3.8222658,5.32227 0.085937,99.25782 c 0.04744,54.592 -0.3364435,100.2669 -0.8515624,101.498 -1.4259708,3.4119 0.088878,21.9349 2.3925781,29.2676 2.0445,6.5077 4.7945855,9.825 16.1191415,19.4414 l 5.533203,4.6973 50.460937,0.8223 50.462892,0.8222 4.88867,3.543 c 4.3038,3.1176 5.98082,3.541 13.99609,3.541 5.00834,0 10.68963,0.6102 12.625,1.3555 1.93539,0.7453 10.83204,1.5065 19.76954,1.6914 8.9375,0.1849 17.83218,0.9809 19.76757,1.7695 1.93537,0.7885 5.60771,1.4336 8.16016,1.4336 3.07249,0 5.35418,0.8325 6.75195,2.4649 4.1307,4.8238 12.19532,4.8736 12.19532,0.074 0,-3.8103 2.08268,-3.0553 2.90429,1.0527 0.85843,4.2922 3.80829,5.766 6.38477,3.1895 1.4097,-1.4097 1.78845,-4.4171 1.55859,-12.3633 -0.33531,-11.592 -1.17684,-13.2861 -14.83008,-29.8399 -3.31004,-4.0133 -6.01757,-7.7565 -6.01757,-8.3183 0,-1.9365 -14.23822,-9.0494 -27.64844,-13.8125 -7.39467,-2.6264 -14.46465,-5.2965 -15.71094,-5.9317 -3.86587,-1.9702 -20.61481,-7.5173 -29.14062,-9.6523 -13.43815,-3.3651 -24.61627,-7.7999 -32.841801,-13.0293 -12.09,-7.6863 -13.408203,-8.7916 -13.408203,-11.2266 0,-2.4695 4.704461,-14.7678 6.613281,-17.2871 3.01388,-3.9778 8.706763,-17.8749 9.849613,-24.0449 0.69782,-3.7674 2.06703,-8.3939 3.04296,-10.2812 0.97595,-1.8872 2.0987,-6.9613 2.49415,-11.2754 0.64693,-7.0575 7.17064,-41.2315 12.98828,-68.0391 1.21688,-5.6074 3.65649,-13.2012 5.42187,-16.875 1.7654,-3.67392 3.87359,-10.33594 4.6836,-14.80469 2.14238,-11.81914 1.92714,-11.45433 6.45898,-11.01758 l 4.07227,0.39258 -0.20899,24.99999 c -0.20671,24.863 -1.38325,54.7564 -4.03711,102.5 -1.15741,20.822 -1.09238,26.4203 0.39453,33.5059 2.09053,9.9619 2.22038,10.1483 11.53516,16.5664 l 7.15039,4.9277 55.70703,0.6934 c 30.63927,0.3819 56.66645,1.135 57.83789,1.6738 1.17145,0.5388 3.26103,2.8993 4.64453,5.2441 2.82874,4.7944 4.69054,5.1684 10.94336,2.2012 4.02442,-1.9094 4.66152,-1.9104 8.62696,-0.019 3.0552,1.457 4.28125,2.8695 4.28125,4.9355 0,2.8044 2.04982,5.8965 3.91015,5.8965 2.29245,0 4.83985,-4.3235 4.83985,-8.2148 0,-2.3571 0.29822,-4.2852 0.66406,-4.2852 2.40982,0 9.33594,3.9194 9.33594,5.2832 0,2.9729 3.72715,7.1455 5.70507,6.3867 3.89138,-1.4933 5.71711,-7.7555 5.66211,-19.4257 -0.0494,-10.4143 -0.35337,-11.7669 -3.85937,-17.2305 -4.03292,-6.2848 -14.78426,-16.2576 -24.77149,-22.9785 -8.7034,-5.857 -26.23338,-10.0015 -58.79882,-13.9004 -7.85912,-0.941 -15.72693,-2.6932 -19.20508,-4.2774 -5.4929,-2.5019 -5.8104,-2.8981 -4.6875,-5.8515 0.66246,-1.7424 1.20508,-7.8877 1.20508,-13.6543 0,-5.7667 0.66999,-12.0575 1.49023,-13.9805 3.59148,-8.4199 16.86216,-31.3995 20.56641,-35.6133 2.23212,-2.5392 4.71095,-7.0368 5.50781,-9.9961 0.79686,-2.9593 4.06064,-9.3718 7.2539,-14.25 3.19327,-4.8782 8.05665,-13.15938 10.80665,-18.40037 l 5,-9.52734 8.4375,0.0703 c 5.0862,0.0432 8.4375,0.60045 8.4375,1.40235 0,0.73167 1.18374,0.25888 2.63085,-1.05078 2.3003,-2.08182 4.7759,-2.39661 19.6875,-2.50586 9.381,-0.0687 17.61915,0.19673 18.30665,0.58984 2.00575,1.14684 4.75135,1.32756 6.17773,0.40625 0.72675,-0.46946 2.44727,-0.8764 3.82227,-0.9043 1.375,-0.0278 3.0625,-0.387 3.75,-0.79883 1.82363,-1.09244 7.17273,1.21193 6.25585,2.69532 -0.45886,0.7425 0.79268,1.26172 3.04493,1.26172 2.103,0 3.82422,-0.5625 3.82422,-1.25 0,-0.6875 0.84375,-1.25 1.875,-1.25 1.03125,0 1.875,1.06492 1.875,2.36718 0,1.7402 0.82691,2.31999 3.12304,2.1875 1.71825,-0.0991 3.1245,-0.78841 3.125,-1.5332 5e-4,-0.7448 0.84571,-1.35547 1.87696,-1.35547 1.03125,0 1.875,0.79009 1.875,1.75586 0,1.35238 0.49545,1.26042 2.1582,-0.40234 2.04525,-2.04528 2.19582,-2.00686 2.8457,0.74609 0.851,3.60445 6.2461,4.54594 6.2461,1.08984 0,-1.22468 1.35898,-3.6945 3.02148,-5.48828 2.82037,-3.04326 3.11139,-3.11031 4.33789,-1.00195 1.23587,2.12465 1.31878,2.11054 1.39258,-0.24023 0.0767,-2.46692 0.10111,-2.46852 1.91211,-0.0742 1.00938,1.33453 1.83594,3.35145 1.83594,4.48047 0,3.02831 3.72453,2.49964 3.89453,-0.55274 0.11175,-2.00671 0.27287,-2.11858 0.70312,-0.48633 0.77112,2.92575 4.1275,1.39421 4.25,-1.93945 0.0676,-1.8326 0.31963,-2.08545 0.79688,-0.80273 0.38375,1.03125 1.69506,2.83348 2.91406,4.00586 1.9805,1.90485 2.29637,1.92418 2.96875,0.17187 0.47137,-1.22822 1.68178,-1.71951 3.23828,-1.3125 1.95613,0.51155 2.48438,0.0298 2.48438,-2.26953 0,-2.68759 0.31723,-2.83016 3.97461,-1.78125 2.186,0.62695 4.37224,1.78412 4.85937,2.57226 0.48712,0.78815 1.45228,1.08412 2.14453,0.65625 0.69238,-0.42789 1.60389,0.12011 2.02539,1.21875 0.43713,1.13887 1.56786,1.68917 2.63086,1.28125 1.0255,-0.3935 1.86524,-0.20886 1.86524,0.41016 0,1.2543 4.94217,1.00197 7.15429,-0.36523 1.89,-1.1681 3.03717,0.86703 2.10742,3.73632 -0.633,1.95335 -0.39778,1.89883 1.5586,-0.36523 1.26712,-1.46641 3.55651,-3.30792 5.08789,-4.0918 2.3525,-1.20415 2.66903,-1.12248 2.03515,0.5293 -0.41262,1.07527 -0.26015,1.86536 0.33985,1.75586 2.561,-0.46752 4.3083,0.18831 3.5918,1.34766 -1.20525,1.9501 4.15931,1.46837 8.94531,-0.80274 3.0875,-1.46511 4.70929,-1.66768 5.66992,-0.70703 0.96062,0.96065 2.16453,0.81094 4.20703,-0.52734 2.673,-1.7514 2.81699,-1.71163 2.20899,0.61328 -0.7265,2.77818 0.96388,2.89328 5.54101,0.37695 3.35487,-1.84438 13.79207,-1.42866 14.56445,0.58008 0.82762,2.15254 7.23044,0.4315 7.89844,-2.12305 0.73688,-2.81805 4.08985,-4.24956 4.08985,-1.74609 0,1.00967 0.5625,1.83594 1.25,1.83594 0.6875,0 1.25976,-0.98438 1.25976,-2.1875 0.005,-1.20312 1.31155,-2.7915 2.9043,-3.5293 2.465,-1.14175 3.92066,-0.66064 9.76953,3.23437 6.829,4.54764 10.64972,4.93989 12.88672,1.32032 1.40525,-2.2738 2.98063,-1.47478 2.29101,1.16211 -0.9455,3.6156 1.20729,3.06899 3.69141,-0.9375 1.8415,-2.9702 2.13932,-3.09765 2.20312,-0.9375 0.073,2.5 0.0726,2.5 2.03711,0 1.93263,-2.45934 1.95184,-2.45425 1.12696,0.3125 -0.51025,1.7117 -0.30548,2.8125 0.52539,2.8125 0.75075,0 1.84978,-1.26563 2.4414,-2.8125 0.59163,-1.54687 2.26488,-3.88367 3.71875,-5.19336 2.61875,-2.35868 2.64438,-2.35277 2.67188,0.625 l 0.0273,3.00586 2.16016,-2.77149 c 1.18787,-1.524 3.28516,-2.74927 4.66016,-2.72265 3.19,0.0619 5.81348,-0.55294 7.89648,-1.85352 1.12313,-0.70122 1.86378,-0.19321 2.33203,1.59766 0.80613,3.08259 0.6209,3.03729 4.80078,1.13281 2.64,-1.20291 3.48072,-1.15771 4.33985,0.23242 0.86412,1.39826 1.42482,1.42553 2.9707,0.14258 1.64762,-1.36745 1.81805,-1.10415 1.26367,1.95312 l -0.64062,3.53711 3.60546,-3.45508 c 1.98276,-1.89962 4.03335,-3.02329 4.5586,-2.49804 0.96463,0.96472 1.61386,1.14053 5.25586,1.42383 1.27675,0.0993 1.7368,0.86284 1.26367,2.0957 -0.468,1.21979 -0.23401,1.62436 0.63086,1.08984 0.75638,-0.46753 1.83237,-0.11026 2.39062,0.79297 0.83587,1.3525 1.37269,1.34578 3.03907,-0.0371 1.5915,-1.32083 2.34582,-1.35377 3.5332,-0.15429 1.181,1.19303 1.03377,1.79409 -0.67773,2.75976 -1.20313,0.67885 -2.1875,1.86549 -2.1875,2.63867 0,0.77319 1.26562,0.31634 2.8125,-1.01562 1.54687,-1.33197 4.54569,-3.37457 6.66406,-4.53907 3.73113,-2.05101 3.98914,-2.02388 8.27539,0.88868 3.95263,2.68592 4.65477,4.04788 6.58789,12.75976 1.19013,5.36363 2.66986,11.38183 3.28711,13.37503 0.61725,1.9932 1.13604,5.9307 1.15234,8.75 0.0368,6.3322 1.88338,14.6098 3.48438,15.6211 0.657,0.4151 1.86326,3.9965 2.68164,7.9589 0.81837,3.9624 2.00674,6.884 2.64062,6.4922 0.634,-0.3917 1.75925,0.8675 2.5,2.7969 1.16962,3.0461 6.35135,14.2345 11.94922,25.7969 0.94225,1.9463 1.71485,4.8658 1.71485,6.4883 0,1.6225 0.5625,3.2977 1.25,3.7226 0.6875,0.4249 1.25,-0.4189 1.25,-1.875 0,-4.4367 2.11413,-1.7117 8.03125,10.3477 3.11063,6.3397 7.78,14.6704 10.375,18.5117 7.90113,11.6957 22.63304,32.5828 28.57617,40.5156 3.09037,4.125 6.58074,9.1229 7.75586,11.1074 1.17501,1.9845 3.9394,5.922 6.14453,8.75 19.08912,24.481 34.12109,45.4285 34.12109,47.5625 0.009,4.7592 8.53185,16.5243 14.3711,19.8379 2.5745,1.4609 13.50263,2.3713 55.625,4.627 13.40625,0.718 28.22037,1.7111 32.92187,2.209 8.1969,0.8681 8.68728,1.1117 11.92578,5.9062 2.838,4.2013 4.16024,5.0635 8.27344,5.4024 3.0781,0.2537 5.52083,1.2977 6.58203,2.8125 l 0,0 c 3.5576,5.0793 9.04688,1.6386 9.04688,-5.6719 0,-6.7931 9.71131,-5.4482 11.53711,1.5976 0.96469,3.7227 1.47227,4.095 5.08007,3.7461 3.4337,-0.3322 4.05925,-0.9235 4.37305,-4.1367 0.7097,-7.2658 1.34062,-7.5479 5.85352,-2.6211 3.6721,4.009 4.62463,4.4666 6.83593,3.2832 2.2019,-1.1784 2.56446,-2.5769 2.56446,-9.7695 -0.006,-10.649 -1.50347,-13.1551 -17.23047,-28.8477 -15.5162,-15.4823 -21.36107,-18.4276 -42.76367,-21.5449 -30.17676,-4.3953 -39.05403,-8.5965 -54.41016,-25.7539 -21.21062,-23.6989 -22.46239,-25.3626 -27.11914,-35.9961 -1.8065,-4.125 -7.20451,-16.2188 -11.99414,-26.875 -9.12587,-20.3041 -10.79608,-24.9133 -12.00195,-33.125 l -0.73438,-5 5.31641,6.25 c 15.49212,18.2122 30.36755,29.6033 43.14843,33.0449 2.68437,0.7228 8.87818,4.1218 13.76368,7.5528 4.88563,3.431 11.0812,6.9963 13.76757,7.9218 14.40066,4.9615 42.25707,31.7084 46.00977,44.1778 0.9717,3.2287 2.54108,6.7567 3.48828,7.8379 0.9474,1.0811 2.88138,4.269 4.29688,7.0859 4.5068,8.9688 6.36269,9.5518 33.93359,10.6465 29.652,1.1773 35.46806,1.9048 41.91016,5.25 6.1014,3.1681 28.05479,4.5224 35.78318,2.207 6.1599,-1.8456 8.1575,-0.8106 17.1211,8.8711 5.4145,5.8483 7.528,7.3288 10.041,7.0313 2.7788,-0.3289 3.3501,-1.2376 4.4941,-7.1582 0.7208,-3.7301 1.9771,-6.9999 2.793,-7.2657 0.8159,-0.2659 3.0186,1.2385 4.8945,3.3438 3.5874,4.0261 6.8207,4.6887 12.4492,2.5488 3.115,-1.1843 3.3202,-1.6961 2.7364,-6.875 l -0.6309,-5.5957 7.9883,0 c 7.3359,0 8.2699,0.3134 11.4121,3.8301 3.611,4.0415 7.2215,4.0983 8.1191,0.1269 0.5854,-2.5895 -6.5411,-17.2379 -10.9179,-22.4394 -1.7897,-2.127 -7.9922,-6.4499 -13.7813,-9.6055 -5.7891,-3.1557 -12.1807,-7.1306 -14.2051,-8.834 -4.1345,-3.479 -13.1542,-5.5781 -23.9668,-5.5781 -5.6584,0 -8.7694,-0.8345 -14.5156,-3.8887 -4.0229,-2.1383 -10.89883,-5.2514 -15.27923,-6.9199 -4.3803,-1.6685 -9.66754,-3.9143 -11.74804,-4.9902 -8.80282,-4.5521 -22.27453,-15.9029 -30.57813,-25.7637 -8.7244,-10.3604 -25.37988,-25.015 -46.58398,-40.9863 -5.8438,-4.4016 -13.42651,-10.7926 -16.84961,-14.2031 -3.4231,-3.4105 -8.7669,-8.124 -11.875,-10.4727 -8.7255,-6.5935 -33.53444,-33.2481 -34.49024,-37.0566 -0.46903,-1.8687 -2.76381,-6.1778 -5.10156,-9.5762 -2.33762,-3.39853 -5.72439,-10.15493 -7.52539,-15.01367 -3.19325,-8.61483 -3.22231,-8.94426 -1.13281,-13.32618 1.17863,-2.4714 2.46244,-7.34796 2.85156,-10.83593 0.389,-3.48797 1.38427,-7.18555 2.21289,-8.2168 1.53763,-1.91353 7.39026,-15.83811 8.80664,-20.95508 0.4309,-1.55686 1.25473,-2.53839 1.83203,-2.18164 1.5586,0.96327 9.05941,-10.09002 13.09961,-19.30273 1.9453,-4.4356 5.29516,-10.6231 7.44336,-13.75 2.1484,-3.12689 5.58111,-8.97395 7.62891,-12.99219 4.1941,-8.23012 13.7537,-19.65649 12.44922,-14.88086 -0.4375,1.60122 -0.21191,2.8125 0.52539,2.8125 0.7122,0 0.9654,0.98437 0.5625,2.1875 -0.4029,1.20312 1.33989,-0.79738 3.87109,-4.44531 2.5312,-3.64792 5.26878,-6.85442 6.08398,-7.12696 3.5501,-1.18698 6.46284,-1.13765 6.24024,0.10743 -0.12339,0.68996 0.48038,1.04664 1.3789,1.12304 0.17521,-0.30148 0.31677,-0.48486 0.31055,-0.20898 -0.002,0.0685 -0.0302,0.14193 -0.0449,0.21289 1.34905,0.0315 3.21873,-0.49723 4.48828,-1.55078 2.2296,-1.85044 7.23438,-1.47786 7.23438,0.53906 0,1.00821 1.52643,1.4361 4.33593,1.21484 3.3895,-0.26694 4.04868,0.006 3.01758,1.24805 -1.7571,2.11718 -0.10289,4.94851 1.78711,3.05859 0.7474,-0.7474 2.17693,-1.35937 3.17773,-1.35937 1.00073,0 3.82906,-1.53293 6.28516,-3.40625 2.456,-1.87332 5.12484,-3.50272 5.93164,-3.62109 0.8069,-0.11843 3.58513,-1.65496 6.17383,-3.41407 4.3877,-2.9814 7.75333,-3.3794 6.11133,-0.72265 -1.1696,1.89246 0.67232,1.33841 4.41992,-1.33008 2.4321,-1.73185 4.61467,-2.27238 7.13867,-1.76758 0.58186,0.11637 1.11856,0.17987 1.61719,0.19727 1.15609,-1.1349 2.53576,-1.6935 3.9043,-1.70313 1.11444,-1.15639 2.24041,-1.23585 4.50976,-0.37305 2.5621,0.9741 3.74995,0.73815 5.83985,-1.15625 1.4432,-1.30813 3.4687,-2.42863 4.5,-2.49023 1.0312,-0.0616 3.42957,-0.48406 5.33007,-0.9375 2.9296,-0.69894 3.32875,-0.49367 2.62305,1.3457 -0.7166,1.86755 -0.47086,1.97461 1.77344,0.77344 1.4342,-0.76747 4.01898,-1.39453 5.7422,-1.39453 1.7234,0 3.4814,-0.5625 3.9063,-1.25 0.4249,-0.6875 1.3339,-1.25 2.0215,-1.25 0.687,0 0.97,0.45447 0.6269,1.00977 -0.3432,0.55529 2.0465,1.00976 5.3105,1.00976 6.2709,0 12.4464,3.95004 10,6.39648 -0.7217,0.72156 -0.3165,1.12663 1.0626,1.0625 3.8087,-0.17718 3.5355,2.353 -0.3438,3.18555 -2.7299,0.58587 -1.8427,0.82775 3.4355,0.9375 3.9125,0.0813 7.4619,0.71094 7.8868,1.39844 0.4249,0.6875 0.035,1.27052 -0.8653,1.29492 -0.8998,0.0243 -0.2857,0.79213 1.3653,1.70703 2.2507,1.24726 2.5634,1.86106 1.25,2.45508 -1.35,0.61058 -1.3918,0.96144 -0.1817,1.52539 0.8638,0.40248 1.2539,1.24623 0.8653,1.875 -0.3886,0.62878 0.2628,1.14258 1.4492,1.14258 1.1865,0 1.8032,0.35492 1.3691,0.78906 -0.4343,0.43415 -0.2058,1.88141 0.5078,3.21485 0.9989,1.86651 2.4981,2.37635 6.5176,2.21875 7.5189,-0.2948 12.9741,0.12352 11.1602,0.85546 -3.4103,1.37606 -1.372,3.86745 3.7226,4.55079 2.9071,0.38992 5.4847,1.30916 5.7285,2.04101 0.244,0.73185 1.6629,1.34724 3.1524,1.36914 2.6504,0.0389 2.6556,0.079 0.2812,1.875 -2.323,1.75705 -2.2784,1.83594 1.0117,1.83594 1.8917,0 3.1038,0.54054 2.6954,1.20117 -0.4159,0.67299 2.0224,1.56788 5.5449,2.03516 6.6645,0.88408 11.3008,3.84692 11.3008,7.22265 0,2.11222 1.4369,2.68605 2.9472,1.17579 0.476,-0.47605 2.0525,-1.04636 3.502,-1.26758 2.2709,-0.34655 2.4096,-0.13018 1,1.56836 -1.4478,1.74444 -1.2155,1.86207 2.0195,1.02734 2.0107,-0.51884 5.741,-0.92821 8.291,-0.91211 3.1878,0.0201 4.8027,-0.58985 5.168,-1.94922 0.4372,-1.62773 0.557,-1.59002 0.6758,0.21094 0.2074,3.12849 2.2456,2.70288 3.0859,-0.64453 0.8322,-3.31614 8.257,-6.77736 9.6621,-4.50391 0.5885,0.95231 1.1944,0.82237 1.9395,-0.41992 1.7437,-2.90758 5.2371,-3.65986 5.7558,-1.23828 0.3314,1.54744 1.0981,0.94025 2.8477,-2.25586 l 2.3945,-4.375 0.7637,4.375 0.7617,4.375 1.4649,-3.51172 c 0.8052,-1.93098 1.8242,-5.76736 2.2656,-8.52734 0.5637,-3.52527 1.8786,-5.814 4.418,-7.69141 1.988,-1.46985 5.3974,-5.50651 7.5761,-8.9707 2.1786,-3.4642 7.118,-9.95508 10.9766,-14.42383 7.1853,-8.32151 11.7293,-17.72378 11.0117,-22.78125 -0.5129,-3.61448 -6.4637,-4.59383 -9.7637,-1.60742 -1.245,1.12677 -5.1672,2.81557 -8.7168,3.75195 -3.5498,0.93638 -7.8055,2.5878 -9.457,3.66992 -3.7528,2.45898 -10.5898,2.62623 -10.5898,0.25977 0,-4.01655 -5.0111,-8.14806 -10.3496,-8.53516 -4.5533,-0.33016 -5.336,-0.81141 -5.709,-3.50781 -0.2377,-1.71875 -1.0474,-3.87271 -1.7989,-4.78711 -0.7515,-0.9144 -1.3984,-3.44565 -1.4414,-5.625 -0.073,-3.77345 -0.3049,-3.9563 -4.8593,-3.8125 -4.337,0.13694 -4.7178,-0.10613 -4.0899,-2.60742 0.4478,-1.78464 -0.3662,-4.19226 -2.3066,-6.82227 -1.6493,-2.2356 -3.661,-6.81962 -4.4688,-10.1875 -1.3472,-5.61556 -1.1375,-7.23933 2.5313,-19.57812 6.1737,-20.76369 8.778,-27.44354 11.6875,-29.98438 2.7421,-2.39455 14.548,-6.96313 16.5605,-6.4082 2.7103,0.74738 12.9364,-1.73821 14.3985,-3.5 1.223,-1.47361 2.9974,-1.75623 7.373,-1.17578 5.0411,0.66874 6.1234,0.37938 8.6504,-2.31055 2.2237,-2.36718 3.7108,-2.91136 6.4609,-2.36133 2.7701,0.55404 3.7435,0.18963 4.334,-1.625 2.05,-6.29949 3.42,-9.21484 4.3321,-9.21484 2.4885,0 8.6678,6.7682 10.0234,10.97851 2.1698,6.73902 8.9718,17.77149 10.957,17.77149 2.8275,0 8.9649,-5.02204 8.9649,-7.33594 0,-1.19069 0.6731,-2.83724 1.4961,-3.66015 0.8229,-0.82293 1.8883,-4.45105 2.3691,-8.0625 2.6521,-19.92367 2.4777,-19.32612 5.4609,-18.75586 4.2956,0.82115 6.9205,-2.75876 6.9395,-9.46289 0.011,-3.99201 1.201,-8.18449 3.75,-13.21094 3.6702,-7.23774 4.6957,-14.76505 2.6992,-19.80274 -1.0054,-2.53667 -10.9739,-9.24588 -23.3398,-15.70703 -8.3414,-4.35838 -9.4796,-4.6054 -24.375,-5.29883 -13.4763,-0.62738 -16.4845,-1.17022 -21.875,-3.94335 -3.4375,-1.76842 -10.4904,-4.08741 -15.6719,-5.1543 -5.5976,-1.15255 -12.6285,-3.75207 -17.3242,-6.40625 -5.8558,-3.30988 -11.5099,-5.16885 -21.8282,-7.17578 -13.0408,-2.53644 -19.0106,-2.76444 -93.9257,-3.57032 l -80.00006,-0.85937 -15.32227,-7.08008 c -19.1794,-8.86186 -21.82058,-9.46533 -24.52148,-5.60937 -1.1182,1.59651 -2.03583,4.32287 -2.04883,6.06054 -0.0455,8.4402 -0.53355,8.78516 -12.46485,8.78516 -9.5526,0 -12.69734,0.62346 -24.77734,4.91406 -7.6093,2.70272 -15.01535,5.54576 -16.45898,6.31836 -1.44362,0.77261 -8.04886,2.21975 -14.67774,3.21485 -9.346,1.40296 -14.23194,2.93181 -21.75781,6.80664 -5.338,2.74832 -11.14679,4.99609 -12.91016,4.99609 -1.76338,0 -9.15764,1.40625 -16.43164,3.125 -7.60962,1.79805 -17.02711,3.13072 -22.17773,3.13672 -9.60576,0.0117 -35.7398,2.92995 -43.9668,4.91015 -2.75813,0.66387 -7.10057,2.07801 -9.64844,3.14258 -3.84875,1.6081 -11.03587,1.92545 -42.48437,1.87305 -45.849,-0.0763 -53.11742,-1.18152 -66.73242,-10.14649 -14.17675,-9.33483 -29.25114,-16.28484 -54.24414,-25.00585 -7.90625,-2.75879 -19.71875,-6.90845 -26.25,-9.22266 -6.53125,-2.31421 -13.4276,-4.23117 -15.32422,-4.25977 -1.89675,-0.0286 -11.7405,-2.8457 -21.875,-6.25976 -20.09312,-6.76881 -23.51528,-7.35191 -80.92578,-13.75977 -34.26475,-3.82445 -57.69088,-7.02885 -82.5,-11.28906 -29.60287,-5.0834 -68.13081,-8.77973 -86.54883,-8.53516 z m -427.72266,271.19922 c 0.43425,-0.0179 0.92969,0.0617 1.38086,0.24219 0.99716,0.39903 0.70032,0.69391 -0.75586,0.75391 -1.3177,0.0543 -2.05598,-0.24089 -1.64062,-0.65625 0.20768,-0.20765 0.58137,-0.32197 1.01562,-0.33985 z m -161.96875,14.03125 c -0.18997,0.84478 0.56243,1.5247 2.13867,1.85156 -0.73778,-0.68933 -1.47366,-1.34256 -2.13867,-1.85156 z m 1308.26172,2.06446 c 0.6875,0 0.90342,0.5625 0.47852,1.25 -0.4249,0.6875 -1.33594,1.25 -2.02344,1.25 -0.6875,0 -0.90146,-0.5625 -0.47656,-1.25 0.4249,-0.6875 1.33398,-1.25 2.02148,-1.25 z m -1426.8418,9.19726 c -0.49874,0.0148 -1.24847,0.10292 -2.14453,0.23633 0.13758,0.0445 0.25129,0.0698 0.60742,0.18555 0.47333,0.15378 0.91425,0.32265 1.33985,0.5 0.25378,-0.10601 0.4809,-0.20851 0.64258,-0.30469 0.73689,-0.43838 0.55848,-0.64694 -0.44532,-0.61719 z m -7.48047,2.05469 c -0.22928,-0.043 -1.13608,0.35015 -2.01367,0.79297 0.32158,0.0184 0.8388,-0.0203 1.46289,-0.0899 0.1571,-0.14084 0.3157,-0.28087 0.46289,-0.43359 0.1641,-0.17026 0.17855,-0.25255 0.0879,-0.26953 z M 910.375,869.23633 c 0.122,0.16034 0.36748,0.37029 0.67383,0.59961 0.94305,0.16291 1.8838,0.32953 2.8164,0.51758 -0.0967,-0.067 -0.1926,-0.133 -0.29101,-0.19727 -0.99441,-0.2803 -2.09353,-0.59829 -3.19922,-0.91992 z m 134.4473,0.96679 c 0.5664,0 1.1328,0.0864 1.5625,0.25977 0.8594,0.34676 0.1562,0.63086 -1.5625,0.63086 -1.7188,0 -2.4219,-0.2841 -1.5625,-0.63086 0.4297,-0.17338 0.9961,-0.25977 1.5625,-0.25977 z m -129.53324,1.23829 c -0.11586,0.19444 -0.23685,0.39339 -0.35742,0.59179 1.33821,0.60244 1.53315,0.4109 0.35742,-0.59179 z m 147.03324,5.01171 c 0.5664,0 1.1328,0.0864 1.5625,0.25977 0.8594,0.34676 0.1562,0.63086 -1.5625,0.63086 -1.7188,0 -2.4219,-0.2841 -1.5625,-0.63086 0.4297,-0.17338 0.9961,-0.25977 1.5625,-0.25977 z m 17.6035,13.74219 c 0.4342,-0.0179 0.9296,0.0617 1.3808,0.24219 0.9971,0.39903 0.7005,0.69391 -0.7558,0.75391 -1.3176,0.0543 -2.056,-0.24089 -1.6406,-0.65625 0.2077,-0.20765 0.5813,-0.32197 1.0156,-0.33985 z m -772.50002,92.5 c -0.43425,0.0179 -0.80794,0.13217 -1.01562,0.33985 -0.41536,0.41536 0.32292,0.71045 1.64062,0.65625 0.47098,-0.0194 0.80738,-0.0667 1.03125,-0.13086 -0.18177,-0.1163 -0.2781,-0.172 -0.5332,-0.34375 0.18933,0.11684 0.38718,0.2229 0.58203,0.33203 0.4173,-0.1353 0.32801,-0.35033 -0.32422,-0.61133 -0.45116,-0.18058 -0.94661,-0.26006 -1.38086,-0.24219 z m -1055.46875,36.28319 c -0.0345,-0.053 -0.24251,0.1653 -0.55078,0.5274 0.15845,-0.088 0.31978,-0.1673 0.48242,-0.2383 0.0552,-0.151 0.0867,-0.261 0.0684,-0.2891 z"
       id="path3368"
       style="fill:#000000" />
  </g>
</svg>
