<?xml version="1.0" encoding="UTF-8" standalone="no"?>
<!-- Created with Inkscape (http://www.inkscape.org/) -->

<svg
   xmlns:svg="http://www.w3.org/2000/svg"
   xmlns="http://www.w3.org/2000/svg"
   version="1.1"
   width="100%"
   height="100%"
   viewBox="0 0 114.3 186"
   id="Ebene_1"
   xml:space="preserve"><defs
   id="defs9" />
<style
   type="text/css"
   id="style3" />
<path
   d="m 57.5,177.8 c 2.8,0.5 15.2,-7.9 16.2,-10 0.8,-1.6 0.9,-3.5 1.4,-5.2 1,-2.9 3.1,-5.2 4,-8.1 0.4,-1.2 0.5,-2.5 0.6,-3.7 0.4,-4.7 0.9,-9.5 1.3,-14.2 0.2,-1.9 0.4,-3.7 0.2,-5.6 -0.2,-2.6 -0.9,-5.3 -0.1,-7.8 0.1,-0.4 0.2,-0.7 0.5,-1 0.2,-0.2 0.5,-0.3 0.8,-0.3 1.6,-0.4 3.2,-0.5 4.9,-0.5 0.6,0 1.1,0.1 1.6,0.4 1,0.6 1.2,1.9 1.3,3 0.4,4 0.8,8 1.3,12 0.2,1.6 0.4,3.3 1.4,4.6 0.5,0.6 1.1,1 1.4,1.7 0.8,1.6 -0.4,3.6 0.4,5.1 0.4,-0.1 0.7,-0.1 1.1,-0.2 -0.3,2.4 1.7,4.8 0.9,7 -0.3,0.8 -1,1.5 -1.9,1.8 1.2,0.4 2.5,0.4 3.6,0 0.3,-0.1 0.6,-0.2 0.7,-0.5 0.1,-0.2 0.1,-0.5 0.1,-0.8 -0.3,-4 -1.1,-7.9 -2.4,-11.7 -0.3,-1 -0.6,-2.3 0.3,-2.8 0.1,-0.1 0.3,-0.1 0.4,-0.2 0.2,-0.2 0.2,-0.6 0.1,-1 -1.4,-5.8 -3.2,-11.5 -5.4,-17 -0.7,-1.7 -1.4,-3.4 -2.5,-4.8 -2.1,-2.8 -5.5,-4.5 -8.9,-4.5 0.7,-1.9 0.1,-4.5 -0.3,-6.5 -0.7,-4.1 -0.1,-8.2 -0.6,-12.3 -0.2,-1.3 -0.4,-2.7 -0.1,-4 0.4,-1.3 1.6,-2.5 3,-2.2 1.5,0.3 2,2.2 2.3,3.7 0.8,4 2,8 3.5,11.8 0.2,0.6 0.5,1.2 1,1.6 0.6,0.6 1.5,0.8 2.4,0.9 4.2,0.7 8.5,0.7 12.7,0.2 0.4,0.2 0.1,0.8 0.3,1.1 0.3,0.4 0.9,-0.1 1.1,-0.6 0.5,-1.4 0.5,-2.9 0.2,-4.2 -0.7,1.2 -2.5,1.3 -3.9,1.2 -0.9,-0.1 -1.9,-0.1 -2.8,-0.2 -1.9,-0.1 -3.9,-0.3 -5.3,-1.5 -0.9,-0.7 -1.5,-1.8 -2,-2.8 -1.1,-2 -2.2,-4.1 -3.3,-6.1 -1.2,-2.2 -2.3,-4.3 -3.9,-6.2 -1.4,-1.8 -3.2,-3.4 -5.2,-4.6 -0.6,-0.4 -1.3,-0.8 -1.5,-1.5 -0.1,-0.4 -0.1,-0.7 -0.1,-1.1 0,-1.4 -1,-2.8 -2.4,-3.2 -1,-0.3 -2,-0.2 -3.1,-0.2 -1,0 -2.2,-0.2 -2.8,-1 -0.7,-0.8 -1,-1.3 0,-1.6 2,0.8 4.6,0 5.7,-1.9 0.4,-0.7 0.6,-1.4 1.1,-2 0.8,-1.2 2.3,-1.7 3.4,-2.6 1.5,-1.3 2.3,-3.2 3.1,-5 1.6,-4 3.2,-7.9 4.9,-11.9 0.1,-0.3 0.2,-0.6 0.1,-0.9 -0.2,-0.4 -0.9,-0.3 -1.1,-0.7 -0.3,-0.4 -0.1,-0.9 0.2,-1.3 0.9,-1.6 1.7,-3.1 2.5,-4.7 0.6,-1.2 1.2,-2.5 1,-3.9 -0.2,-1.4 -1.9,-2.4 -3,-1.6 0.6,3.2 -0.6,6.8 -3.2,8.9 -0.6,0.5 -1.3,1 -1.8,1.6 -0.6,0.9 -0.6,2.1 -0.7,3.2 -0.1,4.2 -0.8,8.3 -1.9,12.4 -0.9,-0.4 -1.8,-0.8 -2.7,-1.2 0.1,-1.3 0.3,-2.9 0.3,-4.1 C 78,55.8 77.7,52.8 77,50.2 76.3,47.6 74.6,45 72,44.2 71.2,44 70.4,43.9 69.8,43.4 68.7,42.5 69,40.8 69.5,39.5 c 0.5,-1.3 1.2,-2.7 0.7,-4 -0.2,-0.5 -0.6,-1 -0.6,-1.6 -0.1,-0.5 0.1,-1 0.3,-1.5 0.4,-1.5 0,-3.2 -1,-4.4 1,-0.4 1.8,-1 2.8,-1.4 4.7,-2 8.6,-5 11.6,-9.1 0.9,-1.2 1.8,-2.5 1.8,-4 0,-1.5 -1.5,-3 -2.9,-2.5 -0.4,0.1 -0.7,0.4 -1,0.7 -2.6,2.6 -3.2,6.8 -5.9,9.5 -2.1,2.1 -5.1,2.8 -8,3.4 -2.2,-1.6 -4.5,-3.3 -6,-5.6 -0.3,-0.5 -0.7,-1.1 -1.2,-1.4 -2,-1 -4.1,2.5 -6.2,1.7 -0.3,-0.5 -0.4,-1 -0.3,-1.6 -1.5,-0.9 -3.2,0.5 -4.4,1.8 -1.4,1.6 -2.9,3.2 -4.3,4.9 -2.2,-0.2 -4.5,-1 -6.2,-2.2 C 35.4,19.8 33.5,15.9 32.4,12 32.3,11.5 32.1,11 31.9,10.6 31.3,9.7 30,9.5 28.9,9.8 c -1.1,0.3 -1.8,1.2 -2.5,2.1 2,6.3 7,11.5 13.2,13.9 0.7,0.3 1.5,0.6 2,1.2 0.5,0.7 0.6,1.7 0.6,2.5 0.1,4.1 0.1,8.3 0.2,12.4 0,0.4 0,0.8 -0.3,1.1 -0.3,0.2 -0.7,0.2 -1.1,0.2 -1.9,0 -3.5,1.3 -4.4,2.9 -0.9,1.6 -1.3,3.5 -1.7,5.3 -0.2,1 -0.8,2.3 -1.9,2.3 C 31.9,53.6 31.5,52.2 31.5,51.1 31.4,45.7 33.7,40 31.8,35 31.1,33.2 30,31.7 29.5,29.8 29,27.9 29.6,25.6 31.4,25 c -0.5,-1.5 -2.9,-1.5 -3.9,-0.3 -1,1.2 -1.1,2.9 -0.9,4.5 0.2,2.1 0.7,4.1 1.4,6.1 0.2,0.6 0.4,1.3 -0.1,1.6 -0.3,0.2 -0.6,0.2 -0.9,0.4 -0.6,0.4 -0.6,1.3 -0.4,2 1,4.8 2,9.7 2.9,14.5 0.7,3.4 1.8,7.3 5.1,8.4 -0.1,-0.4 -0.1,-0.9 -0.2,-1.3 -0.1,1.3 -0.1,3.9 -0.2,5.1 -0.1,1.6 0.1,3.1 0.7,4.6 0.6,1.5 1.8,2.9 3.4,3.2 0.7,0.1 1.5,0.1 2.2,0.1 0.7,0 1.5,0.3 1.9,0.8 0.5,0.6 0.4,1.6 -0.3,1.9 -0.2,0.1 -0.4,0.1 -0.7,0.1 -1.1,0.1 -2.1,0.2 -3.2,0.3 -1,0.1 -1.9,0.2 -2.8,0.6 -1.9,0.9 -2.8,3.5 -1.9,5.4 -3.7,1.4 -6.2,5.5 -6.6,9.4 -0.4,3.9 0.2,8 -0.7,11.9 -0.9,4 -3.2,7.6 -5.8,10.7 -0.6,0.7 -1.2,1.5 -1.3,2.4 -0.1,0.9 0.8,1.9 1.6,1.7 0.8,-0.2 1,-1.2 1.2,-1.9 1.2,-3.8 5.3,-5.9 7.1,-9.4 2.3,-4.5 0.2,-10 0.1,-15.1 0,-0.9 0.1,-2 0.7,-2.7 0.6,-0.7 2,-0.7 2.4,0.2 0.1,0.3 0.1,0.6 0.1,0.9 -0.3,8.4 -0.5,16.9 -0.8,25.3 0,0.9 -0.1,1.8 -0.6,2.5 -0.4,0.5 -1.1,0.8 -1.7,1.1 -3.4,1.7 -5.6,5.2 -6.7,8.8 -1.2,3.6 -1.4,7.5 -1.8,11.2 -0.4,3.3 -1,6.8 -3.2,9.3 -1.9,2.1 -4.5,3.9 -6.6,5.8 -0.5,0.4 -1,0.9 -1.6,1 -0.6,0.1 -1.4,-0.1 -1.6,-0.8 -0.5,0.3 -0.9,0.8 -1.1,1.3 0.6,1.2 1.3,2.3 1.9,3.5 0.2,0.4 0.4,0.8 0.8,0.9 0.4,0.2 0.9,-0.1 1.1,-0.5 0.2,-0.4 0.1,-1.1 -0.2,-1.5 1.1,-1.4 2.5,-2.7 4.1,-3.6 1,-0.6 2.1,-1.1 3,-1.7 1,-0.7 1.8,-1.5 2.5,-2.5 0.6,-0.9 1.2,-2.1 2.2,-2.4 0.3,-0.1 0.7,-0.1 1,-0.2 0.7,-0.2 1.2,-0.7 1.4,-1.4 1.6,-5.4 -0.3,-11.6 0.2,-17.2 0,-0.5 0.1,-1 0.4,-1.3 0.5,-0.5 1.4,-0.4 2.2,-0.5 1.6,-0.3 3.2,-2 4.5,-1.1 0.1,8.6 1.4,17.1 3.9,25.3 1.4,4.8 3.3,9.4 5.8,13.7 0.9,1.5 1.9,3 3.2,4.2 0.7,0.6 1.5,1.1 2.2,1.6 2.5,1.6 4.9,3.2 7.4,4.7 1,0.6 2.1,1.3 3.3,1.1"
   id="path5"
   style="stroke:#1d1d1b;stroke-width:0.685;stroke-miterlimit:10" />
</svg>