<?xml version="1.0" standalone="no"?>
<!DOCTYPE svg PUBLIC "-//W3C//DTD SVG 20010904//EN"
 "http://www.w3.org/TR/2001/REC-SVG-20010904/DTD/svg10.dtd">
<svg version="1.0" xmlns="http://www.w3.org/2000/svg"
 width="1536.000000pt" height="703.000000pt" viewBox="0 0 1536.000000 703.000000"
 preserveAspectRatio="xMidYMid meet">
<metadata>
Created by potrace 1.16, written by Peter Selinger 2001-2019
</metadata>
<g transform="translate(0.000000,703.000000) scale(0.100000,-0.100000)"
fill="#000000" stroke="none">
<path d="M12604 6973 c-4 -33 -1 -120 7 -203 16 -176 14 -803 -4 -990 -23
-243 -8 -598 39 -943 l7 -49 -29 4 c-25 3 -29 7 -29 36 0 33 -8 41 -21 20 -5
-7 -11 -5 -21 8 -13 18 -14 17 -8 -9 8 -31 -8 -57 -36 -57 -28 0 -32 17 -13
65 9 25 15 46 13 48 -2 1 -13 7 -24 13 -13 7 -24 30 -33 70 -25 115 -33 133
-78 188 -60 74 -202 196 -235 203 -15 3 -29 14 -32 24 -3 12 -14 19 -30 19
-13 0 -38 3 -55 6 -25 5 -30 3 -29 -12 2 -20 -28 -32 -90 -33 -50 -1 -60 10
-33 34 22 20 26 55 8 73 -7 7 -29 12 -50 12 -39 0 -88 34 -88 61 0 6 -8 1 -18
-11 -25 -31 -81 -29 -147 5 -39 19 -78 29 -149 35 -53 5 -105 14 -115 20 -15
7 -32 4 -73 -14 -31 -15 -84 -28 -126 -32 -42 -4 -79 -13 -88 -21 -12 -13 -19
-12 -49 7 -32 20 -39 21 -67 9 -26 -11 -32 -10 -40 4 -5 9 -19 17 -32 17 -12
0 -37 11 -56 25 -61 45 -84 48 -298 35 -293 -16 -393 -34 -572 -104 l-105 -41
-230 0 c-179 -1 -246 -5 -303 -18 -91 -21 -106 -21 -99 -2 9 22 -2 24 -88 10
-58 -9 -115 -10 -205 -4 -69 4 -166 8 -215 9 -80 0 -95 -3 -126 -24 l-36 -25
5 25 c4 24 4 24 -81 24 -98 0 -180 -15 -198 -36 -15 -19 -43 -18 -36 1 8 21
-12 30 -26 12 -13 -17 -169 -27 -457 -30 -120 -2 -174 -6 -197 -17 -30 -13
-34 -13 -55 7 -61 58 -150 64 -189 14 -19 -23 -21 -23 -15 -5 9 31 -15 51 -70
60 -72 10 -433 -20 -471 -40 -25 -13 -81 -19 -245 -27 -117 -5 -240 -14 -273
-20 -33 -6 -76 -13 -97 -16 -22 -3 -71 3 -127 17 l-91 23 -252 -17 c-349 -23
-724 -36 -1027 -36 -342 0 -505 -24 -590 -88 -37 -28 -10 -32 -230 33 l-94 28
-51 -20 c-121 -47 -307 -102 -386 -113 -134 -19 -336 -15 -470 10 -178 33
-382 37 -555 10 -77 -12 -172 -24 -211 -27 l-72 -5 -44 41 c-25 22 -55 41 -67
41 -23 0 -343 -43 -448 -60 -59 -10 -63 -9 -87 15 -32 32 -61 32 -91 -1 -15
-17 -45 -30 -85 -40 -33 -8 -98 -33 -142 -57 l-82 -42 -157 -6 c-174 -6 -197
-13 -218 -71 -15 -39 -57 -126 -106 -218 -39 -72 -49 -155 -20 -166 23 -9 18
-27 -21 -85 -20 -30 -46 -74 -59 -99 -13 -25 -41 -65 -62 -90 -22 -25 -52 -64
-66 -87 -15 -23 -42 -49 -62 -59 -38 -18 -112 -103 -121 -139 -3 -13 5 -48 19
-81 14 -32 32 -87 40 -120 9 -34 41 -111 71 -170 60 -118 126 -327 126 -397 0
-23 -18 -94 -40 -157 -22 -63 -40 -133 -40 -155 0 -42 29 -102 55 -111 8 -3
26 -26 40 -50 44 -75 133 -120 177 -90 34 24 50 20 119 -31 69 -51 134 -73
214 -73 27 0 95 -7 150 -16 55 -9 155 -17 221 -19 84 -2 145 -10 198 -24 88
-24 109 -25 186 -9 47 9 64 9 105 -5 66 -23 82 -22 168 13 42 17 94 30 117 30
l43 0 -7 -71 -7 -71 34 6 c21 4 38 2 42 -4 9 -15 116 -12 203 6 56 12 127 16
262 14 102 0 210 0 240 2 30 1 85 -3 122 -10 67 -12 159 -8 207 10 19 7 21 11
11 23 -10 12 -7 17 16 26 45 17 103 5 201 -39 49 -23 103 -44 119 -48 29 -5
30 -4 30 30 0 21 7 44 17 53 16 16 17 16 17 -10 0 -30 18 -35 67 -16 63 24
119 28 169 13 27 -8 145 -21 262 -29 230 -16 249 -19 302 -46 29 -15 58 -18
165 -18 107 1 158 -4 285 -30 291 -58 420 -62 490 -16 58 37 87 38 220 10 144
-29 294 -35 307 -10 7 13 15 12 53 -8 37 -18 62 -22 140 -22 87 0 101 3 164
33 53 25 72 30 82 21 9 -8 102 -15 260 -20 135 -4 318 -16 407 -25 133 -14
200 -15 377 -8 259 11 481 12 535 2 22 -3 236 -7 475 -9 367 -1 454 -5 555
-20 132 -21 230 -24 240 -9 3 5 18 10 33 10 15 0 41 9 57 20 20 13 47 20 80
20 54 0 68 -6 78 -32 3 -9 18 -18 34 -20 20 -2 29 -9 31 -25 4 -28 8 -28 74
-3 29 11 54 20 55 20 1 0 3 -10 5 -21 6 -43 32 -46 121 -15 104 38 293 49 348
22 40 -20 57 -20 125 0 49 14 55 14 70 0 8 -9 25 -16 36 -16 11 0 31 -9 45
-20 14 -11 40 -20 57 -20 18 0 48 -8 67 -18 35 -18 36 -18 31 0 -3 13 1 18 17
18 14 0 25 9 31 26 10 24 13 26 48 18 20 -4 48 -8 62 -10 14 -1 42 -9 62 -18
48 -20 96 -20 119 0 24 22 47 12 63 -27 l13 -31 23 29 c16 20 24 24 28 14 3
-10 9 -8 23 10 15 20 19 21 19 7 0 -25 6 -23 58 22 41 37 49 40 86 35 23 -3
154 -12 291 -20 182 -11 274 -12 340 -5 50 6 164 17 255 25 164 14 234 27 245
45 10 15 35 12 35 -5 0 -22 -49 -127 -70 -150 -43 -46 -90 -172 -134 -360 -50
-218 -62 -287 -77 -475 -10 -132 -30 -256 -50 -307 -8 -23 -14 -25 -49 -20
-22 3 -40 4 -40 2 0 -2 15 -13 34 -24 l34 -21 -18 -58 c-10 -31 -23 -97 -29
-147 -7 -49 -17 -106 -23 -125 -20 -67 -153 -179 -198 -167 -16 4 -18 2 -10
-13 27 -50 -3 -144 -64 -205 -20 -20 -36 -39 -36 -44 0 -4 -22 -22 -48 -39
-26 -17 -70 -58 -97 -92 -47 -59 -81 -80 -106 -65 -23 15 -3 -19 24 -39 25
-19 29 -19 59 -4 18 9 76 55 128 103 52 48 111 95 131 105 96 50 234 184 315
305 30 45 46 83 114 270 21 58 58 237 95 456 23 143 144 738 166 821 10 37 29
65 124 175 28 32 57 70 66 83 l17 25 13 -27 c16 -36 22 -35 40 5 12 27 19 32
47 32 17 0 32 4 32 8 0 5 13 21 29 36 19 17 32 42 36 67 4 21 19 66 33 99 23
52 27 73 27 155 -1 54 -6 104 -13 116 -8 15 12 6 68 -32 116 -77 274 -153 343
-164 111 -18 111 -17 72 -104 -30 -68 -21 -73 20 -9 17 25 33 51 37 56 3 6 33
-8 68 -32 34 -22 68 -41 75 -41 17 0 160 -106 219 -163 34 -32 46 -51 46 -73
0 -39 33 -91 71 -112 51 -28 368 -250 444 -310 39 -31 115 -97 169 -147 338
-307 577 -511 684 -584 60 -40 82 -49 82 -33 0 20 -205 233 -295 307 -63 52
-127 118 -184 190 -48 61 -141 169 -207 241 -65 71 -133 146 -150 165 -60 65
-128 118 -269 208 -44 28 -90 57 -101 65 -12 8 -43 57 -69 108 -27 51 -62 116
-80 143 -45 71 -274 315 -296 315 -10 0 -21 5 -24 10 -3 6 -15 10 -26 10 -10
0 -19 5 -19 11 0 35 243 -52 301 -107 16 -15 43 -61 60 -103 106 -254 311
-465 576 -592 61 -30 77 -33 158 -34 74 0 96 4 120 20 l30 19 -47 7 c-26 4
-66 20 -90 37 -24 16 -69 46 -102 68 -143 95 -204 171 -221 275 -3 20 -14 47
-25 60 -24 28 -122 142 -202 236 -56 64 -70 93 -46 93 6 0 50 -18 98 -40 113
-52 151 -59 352 -67 136 -5 171 -3 184 8 10 8 50 16 93 19 l76 5 -35 16 c-34
15 -35 16 -10 22 15 4 36 24 52 51 17 29 37 48 53 52 19 5 24 11 20 25 -4 13
7 32 36 64 23 25 34 42 24 39 -16 -7 -17 2 -10 132 4 76 9 141 11 143 2 2 20
-9 41 -25 89 -66 108 -77 61 -35 -57 51 -118 132 -118 158 0 10 -4 23 -9 28
-5 6 -12 46 -16 89 l-7 80 33 -25 c67 -50 63 -40 -14 36 -43 43 -92 102 -108
131 -17 29 -45 62 -63 73 -18 11 -40 29 -50 40 -10 11 -24 17 -32 14 -8 -3
-14 1 -14 11 0 12 9 16 34 16 37 0 121 32 148 56 15 14 20 13 56 -8 47 -26 62
-20 38 17 -53 82 -299 123 -424 71 -64 -26 -142 -41 -172 -31 -14 5 -20 15
-20 38 -1 27 -2 29 -11 15 -12 -22 -52 -23 -68 -4 -21 26 40 120 105 163 16
10 21 19 14 23 -7 4 2 23 25 51 19 24 38 58 41 76 3 18 12 37 20 44 8 6 14 24
14 40 0 44 17 78 63 123 23 22 58 71 77 108 19 37 40 70 47 72 6 3 27 1 45 -4
l33 -9 -37 30 c-64 53 -46 71 47 48 70 -18 75 -3 9 27 l-62 28 25 40 c63 101
80 105 220 45 85 -37 97 -39 105 -25 12 22 61 46 95 46 15 0 42 -9 58 -21 60
-40 148 -80 182 -83 23 -1 42 -10 54 -25 23 -29 53 -24 57 9 4 39 -53 116
-136 182 -124 98 -188 123 -352 134 -180 12 -382 -35 -458 -108 -55 -54 -138
-170 -156 -220 -22 -59 -113 -237 -132 -259 -8 -9 -19 -33 -25 -53 -6 -20 -25
-51 -44 -70 -18 -18 -41 -49 -50 -67 -10 -19 -23 -41 -30 -49 -7 -8 -18 -31
-24 -51 -7 -21 -20 -39 -31 -42 -13 -3 -24 -24 -37 -68 -16 -54 -23 -64 -48
-71 -17 -5 -47 -6 -68 -2 -38 6 -38 6 -22 30 15 23 14 24 -7 21 -19 -2 -28 8
-49 52 -15 29 -39 67 -54 83 -15 16 -26 30 -24 32 2 2 22 12 43 23 l39 20 -61
7 c-70 8 -89 23 -71 58 l12 23 -25 -22 c-36 -34 -51 -29 -28 10 16 27 51 160
50 185 -1 4 -12 -21 -25 -54 -13 -34 -35 -80 -49 -103 l-27 -42 -45 31 c-82
57 -171 92 -253 101 -42 4 -77 8 -78 8 -2 1 -3 7 -3 15 0 8 -15 17 -34 20 -19
4 -40 14 -47 23 -12 15 -12 16 3 10 12 -4 19 0 23 14 8 25 -3 59 -20 59 -7 0
-15 7 -19 15 -3 8 -15 15 -26 15 -11 0 -20 5 -20 11 0 8 -14 10 -40 6 l-40 -5
31 39 30 39 -37 -16 c-36 -15 -39 -15 -52 3 -9 12 -12 33 -9 62 3 27 0 53 -7
65 -7 12 -25 102 -40 201 -15 99 -31 201 -37 226 -6 28 -9 266 -7 625 3 523 1
586 -14 652 -10 40 -18 94 -18 118 0 32 -10 64 -35 111 -19 36 -35 74 -35 84
0 24 -10 49 -20 49 -5 0 -12 -26 -16 -57z m-1154 -1423 c0 -12 -28 -25 -36
-17 -9 9 6 27 22 27 8 0 14 -5 14 -10z m-780 -15 c18 -9 30 -24 30 -35 0 -28
-22 -25 -54 6 -43 43 -31 57 24 29z m200 -35 c0 -5 -11 -17 -25 -26 -14 -9
-25 -26 -25 -39 0 -29 -37 -76 -54 -69 -8 3 -17 1 -21 -5 -8 -14 -62 -14 -70
-1 -7 12 53 40 85 40 17 0 19 4 14 25 -4 18 -1 27 11 31 9 4 21 17 26 30 6 17
16 24 34 24 14 0 25 -4 25 -10z m815 -41 c19 -19 19 -19 -3 -19 -30 0 -58 15
-66 36 -5 13 -2 15 21 9 16 -3 37 -15 48 -26z m-4730 -19 c9 -14 68 -13 83 2
9 9 12 5 12 -20 0 -38 -20 -50 -55 -34 -29 14 -40 2 -88 -93 -43 -86 -64 -111
-99 -119 -38 -9 -36 8 6 92 19 38 42 94 51 125 16 55 18 57 50 57 19 0 37 -4
40 -10z m4425 -6 c-18 -21 -50 -37 -50 -25 0 15 30 41 47 41 13 0 13 -3 3 -16z
m-1775 -43 c7 -12 -28 -33 -47 -29 -19 4 -22 -41 -3 -48 27 -11 -3 -34 -44
-34 -20 0 -42 -5 -49 -12 -8 -8 -15 -9 -22 -2 -16 16 -2 41 36 63 19 11 39 32
46 46 9 19 19 25 44 25 18 0 35 -4 39 -9z m-1125 -11 c0 -5 -13 -24 -30 -42
-34 -38 -40 -21 -9 23 20 29 39 38 39 19z m556 -29 c-22 -42 -66 -53 -66 -16
0 15 45 44 68 45 10 0 9 -7 -2 -29z m1519 9 c7 -12 -12 -40 -26 -40 -5 0 -9
11 -9 25 0 25 23 35 35 15z m1347 -37 c23 -21 23 -33 0 -33 -21 0 -42 18 -42
37 0 18 20 16 42 -4z m-91 -10 c-12 -24 -61 -69 -61 -57 0 12 30 56 44 66 19
13 27 9 17 -9z m-1126 -23 c-10 -11 -13 -20 -7 -20 24 0 10 -53 -48 -185 -33
-75 -66 -158 -72 -185 -6 -28 -15 -50 -20 -50 -34 0 -35 191 -1 239 10 14 31
51 46 81 28 59 91 140 109 140 6 0 3 -9 -7 -20z m1315 10 c0 -5 -9 -10 -20
-10 -11 0 -20 5 -20 10 0 6 9 10 20 10 11 0 20 -4 20 -10z m-1902 -34 c3 -12
-1 -17 -10 -14 -7 3 -15 13 -16 22 -3 12 1 17 10 14 7 -3 15 -13 16 -22z m406
15 c6 -9 -46 -95 -65 -106 -9 -6 -11 1 -6 28 10 61 53 108 71 78z m-6954 -32
c0 -25 -17 -59 -30 -59 -13 0 -13 22 0 54 11 31 30 34 30 5z m551 1 c20 -16
21 -19 7 -20 -14 0 -18 -9 -18 -39 0 -21 -14 -71 -30 -111 -72 -175 -170 -510
-170 -582 0 -13 -6 -33 -14 -44 -8 -11 -16 -36 -18 -55 -3 -38 -21 -46 -26
-11 -6 37 -25 25 -57 -35 -16 -31 -36 -59 -42 -61 -24 -7 -26 29 -3 60 13 17
25 51 28 76 4 40 3 45 -13 38 -15 -5 -17 -2 -12 23 16 76 137 394 208 541 43
91 79 175 79 187 0 19 33 53 51 53 4 0 17 -9 30 -20z m4674 -3 c25 -19 10 -40
-23 -32 -28 7 -44 24 -36 37 8 12 38 9 59 -5z m751 -2 c18 -14 17 -14 -13 -15
-23 0 -33 5 -33 15 0 19 21 19 46 0z m479 -73 l-28 -27 23 33 c12 18 25 31 28
27 3 -3 -7 -18 -23 -33z m905 20 c0 -11 -46 -32 -70 -32 -31 0 -24 28 8 33 49
7 62 7 62 -1z m-3185 -22 c9 -14 -44 -45 -56 -33 -7 7 -3 16 12 27 27 18 35
20 44 6z m-5001 -15 c3 -8 -4 -21 -17 -30 -42 -29 -64 -10 -30 27 20 22 39 23
47 3z m6662 -32 c-11 -11 -19 6 -11 24 8 17 8 17 12 0 3 -10 2 -21 -1 -24z
m-496 12 c19 -23 -5 -40 -47 -36 -14 1 -18 33 -6 44 11 12 40 7 53 -8z m1384
-22 c4 -10 1 -20 -9 -25 -8 -5 -24 -26 -35 -46 l-21 -37 6 38 c12 75 43 112
59 70z m-795 -45 c-17 -31 -23 -9 -8 28 9 22 13 25 16 12 2 -9 -1 -27 -8 -40z
m-2675 26 c8 -21 7 -66 -2 -80 -7 -12 -83 -37 -90 -29 -7 7 19 73 39 99 23 30
44 33 53 10z m2416 -20 c0 -31 -23 -28 -28 4 -2 15 2 22 12 22 11 0 16 -9 16
-26z m130 17 c0 -5 -7 -12 -16 -15 -22 -9 -24 -8 -24 9 0 8 9 15 20 15 11 0
20 -4 20 -9z m-4820 -81 c-6 -11 -15 -20 -20 -20 -15 0 -12 28 7 63 l18 32 3
-27 c2 -15 -2 -36 -8 -48z m5770 28 c0 -7 -4 -19 -9 -27 -11 -17 -25 3 -17 24
7 18 26 20 26 3z m-310 -18 c0 -15 -7 -20 -25 -20 -18 0 -25 5 -25 20 0 15 7
20 25 20 18 0 25 -5 25 -20z m-550 -35 c0 -41 -2 -45 -24 -45 -39 0 -56 -11
-56 -35 0 -29 -18 -42 -26 -21 -10 27 5 65 42 106 48 53 64 52 64 -5z m490
-155 c-18 -82 -32 -97 -25 -25 6 54 5 58 -9 46 -23 -19 -29 -9 -15 23 7 15 20
26 32 26 15 0 18 5 14 21 -3 11 -3 28 1 37 13 31 14 -71 2 -128z m-3160 23 c0
-26 -4 -33 -19 -33 -26 0 -88 -71 -100 -117 -6 -21 -11 -55 -11 -75 0 -34 -3
-38 -24 -38 -49 0 -74 54 -36 78 11 7 20 23 20 36 0 13 8 34 19 47 10 13 29
57 42 97 13 40 29 72 36 72 7 0 13 -5 13 -11 0 -21 20 3 20 24 1 36 39 -42 40
-80z m-2325 -54 c4 -5 -3 -43 -15 -82 -13 -40 -24 -78 -26 -85 -5 -19 -44 4
-44 27 0 9 11 28 25 41 15 14 25 35 25 51 0 49 19 75 35 48z m-1615 -26 c0
-25 -57 -143 -69 -143 -5 0 -11 7 -15 15 -3 8 -20 24 -38 35 l-33 20 38 0 c33
0 41 5 69 45 34 48 48 56 48 28z m-542 -106 c-3 -46 -6 -52 -26 -55 -30 -5
-72 23 -72 47 0 10 19 36 41 56 36 32 43 35 51 21 5 -9 8 -40 6 -69z m72 42
c25 -49 23 -84 -5 -84 -25 0 -40 41 -31 88 4 21 9 37 11 37 3 0 14 -18 25 -41z
m6980 32 c0 -5 -7 -11 -15 -15 -8 -3 -15 -12 -15 -21 0 -21 -30 -78 -37 -71
-7 6 13 63 32 93 15 23 35 31 35 14z m2110 -66 c0 -16 -6 -25 -16 -25 -11 0
-14 5 -10 16 3 9 6 20 6 25 0 5 5 9 10 9 6 0 10 -11 10 -25z m-8990 -55 c11
-21 5 -60 -10 -60 -11 0 -20 26 -20 56 0 29 15 31 30 4z m140 -40 c22 -22 27
-60 9 -60 -11 0 -109 70 -109 77 0 2 18 3 40 3 27 0 47 -7 60 -20z m6705 -10
c7 -12 -12 -40 -26 -40 -10 0 -12 34 -2 43 9 10 21 9 28 -3z m-4935 -21 c0
-25 -17 -59 -30 -59 -13 0 -13 36 0 61 14 25 30 24 30 -2z m-1645 -28 c-3 -12
-11 -21 -16 -21 -10 0 -12 21 -3 45 10 24 27 2 19 -24z m4991 -20 c-13 -20
-26 -11 -26 16 0 25 1 26 16 11 9 -9 13 -21 10 -27z m-5426 -57 c-16 -37 -33
-65 -36 -62 -9 9 14 80 37 118 34 54 33 19 -1 -56z m143 49 c-3 -10 -12 -27
-20 -38 -12 -18 -13 -18 -13 -2 0 23 18 57 30 57 5 0 7 -8 3 -17z m-282 -17
c-17 -20 -66 -36 -82 -26 -19 12 -5 23 44 36 48 12 55 10 38 -10z m7648 -84
c-3 -6 -13 -6 -26 -1 -16 6 -23 17 -23 36 l0 28 26 -27 c15 -14 25 -30 23 -36z
m-2493 -14 c-15 -61 -42 -128 -52 -128 -12 0 4 84 25 133 27 63 42 60 27 -5z
m3370 -36 c-4 -3 -12 0 -18 6 -9 9 -8 18 2 39 l14 28 4 -33 c2 -19 1 -37 -2
-40z m123 42 c-9 -11 -15 -12 -23 -4 -8 8 -7 13 4 20 20 12 33 1 19 -16z
m-3149 -30 c-18 -21 -24 -10 -9 18 8 14 14 18 17 10 2 -7 -2 -19 -8 -28z
m-3703 -81 c-3 -10 -5 -4 -5 12 0 17 2 24 5 18 2 -7 2 -21 0 -30z m5708 -3 c0
-18 -43 -26 -59 -10 -8 8 -7 13 4 20 21 14 55 8 55 -10z m400 0 c0 -8 -8 -16
-17 -18 -13 -2 -18 3 -18 18 0 15 5 20 18 18 9 -2 17 -10 17 -18z m-7615 -20
c0 -12 -28 -25 -36 -17 -9 9 6 27 22 27 8 0 14 -5 14 -10z m1890 -18 c0 -5 -7
-17 -15 -28 -15 -19 -20 -8 -9 20 6 17 24 22 24 8z m-605 -11 c3 -6 -4 -15
-15 -21 -16 -8 -20 -8 -20 3 0 25 23 36 35 18z m818 -108 c-7 -2 -21 -2 -30 0
-10 3 -4 5 12 5 17 0 24 -2 18 -5z m-4298 -73 c0 -22 -29 -18 -33 3 -3 14 1
18 15 15 10 -2 18 -10 18 -18z m4683 -17 c-4 -20 -35 -30 -50 -15 -15 15 0 32
28 32 19 0 25 -5 22 -17z m-808 -72 c0 -5 -6 -14 -14 -20 -16 -13 -32 2 -21
19 8 12 35 13 35 1z m-117 -48 c-7 -2 -21 -2 -30 0 -10 3 -4 5 12 5 17 0 24
-2 18 -5z m-190 -362 c-11 -9 -23 -28 -27 -43 -6 -26 -26 -40 -26 -19 0 38 59
118 68 91 3 -7 -4 -20 -15 -29z m-25 -124 c2 -12 -3 -17 -17 -17 -12 0 -21 6
-21 13 0 31 32 34 38 4z m3772 -8 c0 -17 9 -70 19 -118 28 -124 32 -151 21
-151 -11 0 -27 57 -46 160 -16 90 -18 140 -4 140 6 0 10 -14 10 -31z m-2672
-314 c-2 -14 -7 -26 -13 -26 -5 0 -11 12 -13 26 -2 18 1 25 13 25 12 0 15 -7
13 -25z m2872 -49 c0 -28 -17 -8 -25 29 -7 29 -7 29 8 10 9 -11 17 -29 17 -39z
m-124 26 c24 -15 54 -94 64 -164 12 -83 16 -101 35 -143 29 -64 40 -124 27
-145 -28 -46 -5 -83 39 -60 21 12 21 12 5 -11 -9 -13 -16 -36 -16 -51 0 -19
-5 -28 -16 -28 -13 0 -15 -7 -10 -30 4 -20 2 -30 -7 -30 -12 0 -54 105 -82
205 -14 50 -63 354 -66 410 -2 57 2 64 27 47z m121 -129 c-3 -10 -5 -2 -5 17
0 19 2 27 5 18 2 -10 2 -26 0 -35z m4533 -335 c12 -25 11 -30 -5 -48 -26 -29
-35 -10 -35 77 0 94 13 128 21 53 3 -30 11 -67 19 -82z m-4040 31 c0 -5 -6 -9
-14 -9 -15 0 -28 24 -19 34 7 7 33 -13 33 -25z m2564 -11 c3 -13 0 -27 -7 -33
-6 -6 -17 -19 -23 -30 -22 -40 -84 -21 -70 22 5 16 69 61 87 63 4 0 9 -10 13
-22z m-414 -72 c0 -7 -7 -19 -15 -26 -16 -13 -20 -3 -9 24 8 20 24 21 24 2z
m-875 -46 c4 -6 -5 -10 -20 -10 -15 0 -24 4 -20 10 3 6 12 10 20 10 8 0 17 -4
20 -10z m-4545 -30 c0 -12 -28 -25 -36 -17 -9 9 6 27 22 27 8 0 14 -5 14 -10z
m2854 -26 c9 -24 7 -36 -5 -29 -6 4 -16 -1 -24 -11 -13 -18 -14 -18 -20 -1 -5
11 -1 25 10 37 22 24 31 25 39 4z"/>
<path d="M12330 5250 c33 -26 48 -26 25 0 -10 11 -25 20 -34 20 -12 0 -9 -6 9
-20z"/>
</g>
</svg>
