<?xml version="1.0" encoding="UTF-8" standalone="no"?>
<!-- Created with Inkscape (http://www.inkscape.org/) -->

<svg
   xmlns:svg="http://www.w3.org/2000/svg"
   xmlns="http://www.w3.org/2000/svg"
   version="1.1"
   width="140"
   height="120"
   viewBox="0 0 140 120"
   id="Layer_1"
   xml:space="preserve"><defs
   id="defs27" />
    
    <g
   id="g3">
        
        <path
   d="m 96.572,25.28 c 0.834,-2.936 7.67,-4.818 8.889,-0.952 1.225,1.87 1.617,5.341 0.317,7.301 -0.471,-0.059 -0.291,-0.767 -0.317,-1.27 -0.471,0.059 -0.291,0.767 -0.317,1.27 -0.908,-0.044 -0.581,-1.324 -0.636,-2.222 -0.562,0.603 -0.295,2.033 -0.952,2.54 -1.068,-3.218 -2.002,-8.083 -6.983,-6.349 -10e-4,-0.106 -10e-4,-0.212 -10e-4,-0.318 z"
   id="path5"
   style="fill-rule:evenodd" />
        
        <path
   d="m 83.874,27.502 c 1.066,-3.204 5.582,-4.115 8.889,-2.54 2.071,2.373 3.27,5.619 5.714,7.619 2.001,-0.538 4.832,-0.248 7.302,-0.317 1.383,3.696 5.123,5.035 6.031,9.206 0.199,0.965 -0.406,2.734 0.317,3.175 -1.245,8.395 0.327,15.16 1.588,22.539 1.814,-1.066 6.969,-1.474 7.936,1.588 -0.558,1.876 -3.059,1.808 -2.856,4.444 -0.735,1.381 -0.11,4.123 -0.317,6.031 0.057,10.766 -8.667,15.263 -14.604,20.317 -4.401,3.747 -5.955,4.499 -12.063,5.396 -1.345,0.197 -2.796,0.892 -3.81,0.952 -6.45,0.386 -12.706,-3.649 -19.682,-4.444 -4.123,-0.47 -7.522,-0.734 -11.111,-1.904 -1.771,-1.565 -3.133,-4.088 -5.397,-4.444 -2.833,-0.447 -4.945,1.741 -7.936,0.952 -1.036,-0.273 -3.438,-2.382 -4.444,-3.492 -3.377,-3.724 -2.219,-8.811 1.27,-13.333 2.412,-3.126 5.426,-3.207 10.159,-3.492 -0.555,-9.466 -9.302,-11.952 -15.555,-17.142 -4.843,-4.02 -8.662,-8.146 -12.38,-12.381 0.193,-0.018 0.375,-0.047 0.317,-0.317 2.974,-1.046 6.17,-1.872 10.476,-1.587 5.585,3.784 12.134,5.911 17.777,9.207 5.21,3.042 10.274,9.379 14.603,12.698 1.2,3.984 3.27,7.101 4.127,11.429 0.646,-0.307 0.686,-1.22 0.635,-2.223 0.528,-1.488 0.528,-5.178 0,-6.666 -0.768,-9.951 4.278,-21.281 -0.635,-28.571 -1.732,-3.049 -0.868,-8.542 2.222,-9.524 -0.589,2.252 0.97,-1.175 2.223,-0.952 0.048,0.788 -0.164,1.317 -0.635,1.587 1.143,0.602 1.115,-2.685 3.491,-1.905 -3.227,2.726 1.002,4.671 1.588,7.301 -1.415,7.569 2.598,10.597 4.762,15.555 1.447,3.317 1.979,7.231 3.175,10.793 0.569,1.698 1.157,3.546 1.587,5.397 0.367,1.582 -0.021,4.519 2.222,5.079 -1.551,-11.994 0.244,-30.084 -5.396,-39.047 -0.825,-2.034 -1.309,-4.408 -1.59,-6.984 z"
   id="path7"
   style="fill-rule:evenodd" />
        
        <path
   d="m 83.874,27.502 c 0.281,2.576 0.765,4.949 1.587,6.984 -2.665,0.293 -5.009,1.525 -6.349,2.222 -0.586,-2.63 -4.814,-4.576 -1.588,-7.301 1.709,-1.043 4.205,-1.299 6.35,-1.905 z"
   id="path9"
   style="fill:#afafaf;fill-rule:evenodd" />
        
        <path
   d="m 19.114,39.883 c -5.393,-7.215 8.965,-7.998 10.476,-2.54 0.895,1.222 1.594,2.639 1.904,4.444 -1.425,-0.268 -0.975,-2.411 -2.222,-2.857 -0.105,0.542 1.095,2.493 0.635,4.444 -0.838,-0.855 -1.09,-2.296 -1.905,-3.174 -0.629,0.239 1.066,1.782 0,2.54 -0.999,-1.965 -2.539,-3.388 -4.444,-4.444 -1.689,0.322 -3.133,0.888 -4.444,1.587 z"
   id="path11"
   style="fill-rule:evenodd" />
        
        <path
   d="m 105.461,24.328 c 8.296,0.708 15.129,-0.45 20.316,-3.175 0,2.646 0,5.291 0,7.937 -5.27,2.454 -11.943,3.506 -19.999,3.174 -2.47,0.07 -5.301,-0.221 -7.302,0.317 -2.444,-2 -3.643,-5.246 -5.714,-7.619 0.874,1.06 2.338,0.868 3.81,0.317 0,0.106 0,0.211 0,0.317 4.981,-1.734 5.915,3.131 6.983,6.349 0.657,-0.507 0.391,-1.937 0.952,-2.54 0.055,0.898 -0.272,2.178 0.636,2.222 0.026,-0.503 -0.153,-1.211 0.317,-1.27 0.026,0.503 -0.153,1.211 0.317,1.27 1.301,-1.958 0.909,-5.429 -0.316,-7.299 z"
   id="path13"
   style="fill:#afafaf;fill-rule:evenodd" />
        
        <path
   d="m 125.777,21.153 c -5.188,2.725 -12.021,3.882 -20.316,3.175 -1.219,-3.866 -8.055,-1.984 -8.889,0.952 -1.472,0.551 -2.936,0.742 -3.81,-0.317 -3.307,-1.575 -7.822,-0.664 -8.889,2.54 -2.146,0.606 -4.641,0.862 -6.35,1.905 -2.376,-0.78 -2.349,2.507 -3.491,1.905 0.471,-0.27 0.683,-0.799 0.635,-1.587 -1.253,-0.223 -2.812,3.204 -2.223,0.952 0,-0.105 0,-0.211 0,-0.317 -10.814,7.734 -26.269,8.102 -42.855,6.984 -1.511,-5.458 -15.869,-4.675 -10.476,2.54 0.169,0.66 -1.237,0.673 -0.317,0.318 0.891,-0.992 -0.224,1.214 -1.587,0.317 0,-6.561 0,-13.122 0,-19.682 36.083,0.209 73.015,-0.425 108.568,0.315 z"
   id="path15"
   style="fill:#ffffff;fill-rule:evenodd" />
        
        <path
   d="m 29.59,37.343 c 16.586,1.118 32.042,0.75 42.855,-6.984 0,0.106 0,0.212 0,0.317 -3.089,0.982 -3.954,6.475 -2.222,9.524 -3.835,1.728 -8.486,4.905 -13.65,5.714 -7.565,1.185 -15.373,-1.64 -22.857,-1.587 -4.306,-0.285 -7.501,0.541 -10.476,1.587 0.058,0.27 -0.124,0.299 -0.317,0.317 -1.977,-0.173 -4.49,1.856 -5.714,3.492 0,-3.069 0,-6.137 0,-9.206 0.109,0.072 0.24,0.006 0.322,0.044 0.124,0.057 0.221,-0.013 0.297,-0.016 0.093,0.004 0.119,0.06 0.172,-0.109 0.045,-0.141 0.246,-0.168 0.371,-0.167 0.125,0.002 0.159,0.067 0.308,-0.021 0.014,-0.056 0.162,-0.139 0.199,-0.162 0.111,-0.069 0.278,-0.041 0.236,-0.206 1.311,-0.699 2.755,-1.265 4.444,-1.587 1.906,1.057 3.446,2.479 4.444,4.444 1.066,-0.757 -0.629,-2.3 0,-2.54 0.814,0.878 1.067,2.319 1.905,3.174 0.46,-1.951 -0.74,-3.903 -0.635,-4.444 1.247,0.446 0.797,2.589 2.222,2.857 -0.31,-1.802 -1.01,-3.219 -1.904,-4.441 z"
   id="path17"
   style="fill:#afafaf;fill-rule:evenodd" />
        
        <path
   d="m 85.461,34.486 c 5.641,8.962 3.846,27.053 5.396,39.047 -2.243,-0.561 -1.854,-3.497 -2.222,-5.079 -0.43,-1.851 -1.018,-3.699 -1.587,-5.397 -1.196,-3.562 -1.728,-7.476 -3.175,-10.793 -2.164,-4.958 -6.177,-7.986 -4.762,-15.555 1.341,-0.697 3.685,-1.93 6.35,-2.223 z"
   id="path19"
   style="fill:#ffffff;fill-rule:evenodd" />
        
        <path
   d="m 70.224,40.201 c 4.913,7.29 -0.133,18.62 0.635,28.571 0,2.222 0,4.444 0,6.666 0.051,1.003 0.011,1.916 -0.635,2.223 C 69.367,73.333 67.297,70.217 66.097,66.232 61.768,62.913 56.704,56.576 51.494,53.534 45.85,50.239 39.302,48.112 33.717,44.327 c 7.484,-0.053 15.292,2.772 22.857,1.587 5.164,-0.808 9.815,-3.985 13.65,-5.713 z"
   id="path21"
   style="fill:#ffffff;fill-rule:evenodd" />
        
    </g>
    
    <rect
   width="108.568"
   height="86.664001"
   x="17.209"
   y="20.836"
   id="rect23"
   style="fill:none" />
    
</svg>