<?xml version="1.0" standalone="no"?>
<!DOCTYPE svg PUBLIC "-//W3C//DTD SVG 20010904//EN"
 "http://www.w3.org/TR/2001/REC-SVG-20010904/DTD/svg10.dtd">
<svg version="1.0" xmlns="http://www.w3.org/2000/svg"
 width="1536.000000pt" height="1416.000000pt" viewBox="0 0 1536.000000 1416.000000"
 preserveAspectRatio="xMidYMid meet">
<metadata>
Created by potrace 1.16, written by Peter Selinger 2001-2019
</metadata>
<g transform="translate(0.000000,1416.000000) scale(0.100000,-0.100000)"
fill="#000000" stroke="none">
<path d="M6200 14153 c-118 -17 -212 -40 -250 -58 -53 -26 -160 -42 -354 -51
l-139 -7 -97 -48 c-54 -26 -154 -66 -223 -88 -104 -34 -140 -41 -204 -41 -108
0 -143 -12 -214 -75 -72 -62 -148 -88 -309 -107 -53 -6 -111 -19 -132 -29 -20
-10 -66 -23 -102 -28 -46 -7 -83 -20 -123 -44 -48 -29 -71 -37 -133 -42 -222
-18 -251 -24 -323 -72 -82 -55 -236 -141 -337 -190 -51 -24 -101 -40 -160 -48
-178 -26 -264 -47 -298 -74 -90 -70 -107 -81 -127 -81 -11 0 -43 -14 -70 -31
-27 -17 -70 -38 -96 -45 -26 -8 -52 -21 -59 -29 -28 -33 -75 -59 -123 -66 -27
-5 -67 -20 -88 -35 -32 -22 -56 -28 -132 -35 -103 -10 -193 -26 -221 -41 -10
-6 -59 -48 -109 -95 -50 -46 -113 -96 -141 -110 -28 -14 -89 -54 -136 -88 -47
-35 -102 -68 -122 -73 -21 -6 -57 -26 -81 -46 -23 -19 -63 -44 -88 -54 -25
-11 -58 -34 -75 -52 -16 -19 -78 -85 -139 -149 -102 -108 -282 -314 -348 -400
-16 -20 -42 -64 -58 -98 -16 -35 -55 -91 -85 -125 -78 -90 -100 -141 -124
-292 -11 -70 -24 -135 -29 -145 -5 -9 -30 -36 -55 -60 -30 -30 -51 -62 -62
-95 -9 -27 -30 -70 -45 -95 -29 -44 -29 -46 -29 -202 0 -135 -3 -163 -20 -200
-14 -32 -20 -67 -20 -124 -1 -81 -21 -278 -39 -371 -14 -75 -15 -355 -3 -464
7 -52 12 -127 12 -166 0 -106 15 -169 65 -269 53 -105 55 -129 19 -232 -26
-76 -26 -76 -9 -134 16 -51 16 -67 5 -141 -6 -45 -20 -107 -31 -136 -24 -68
-24 -88 2 -147 24 -55 21 -91 -14 -145 -13 -19 -34 -78 -46 -130 -19 -79 -21
-103 -12 -140 6 -25 11 -68 11 -97 0 -44 -5 -57 -35 -93 -19 -23 -38 -53 -41
-67 -8 -30 4 -161 17 -184 5 -10 33 -25 63 -33 29 -9 60 -23 67 -32 8 -10 41
-29 74 -44 34 -16 78 -47 101 -71 41 -44 42 -45 49 -139 7 -99 19 -132 66
-190 29 -34 29 -37 29 -161 0 -72 -7 -162 -15 -206 -19 -97 -19 -248 -1 -333
27 -126 51 -173 141 -272 66 -73 91 -109 115 -168 17 -41 46 -104 63 -140 28
-57 32 -75 31 -140 -1 -67 -6 -85 -49 -175 -80 -171 -95 -217 -95 -301 0 -73
1 -77 34 -110 29 -29 41 -34 79 -34 58 0 79 17 177 144 105 135 116 146 149
146 23 0 40 -13 83 -62 29 -35 102 -115 162 -178 110 -116 130 -147 140 -210
4 -22 25 -58 56 -95 30 -36 52 -74 56 -95 9 -54 23 -86 51 -111 13 -13 41 -51
61 -84 20 -33 62 -89 95 -125 33 -36 85 -99 117 -140 31 -41 101 -115 155
-165 141 -130 350 -338 427 -426 57 -65 74 -78 114 -88 52 -13 100 -7 127 17
13 11 17 31 17 82 0 66 -1 69 -67 166 -88 131 -124 174 -275 332 -175 182
-270 342 -357 598 -44 129 -51 195 -25 232 23 33 71 29 116 -8 21 -17 86 -55
145 -84 60 -29 154 -81 211 -114 103 -62 126 -71 237 -92 113 -23 176 -56 270
-140 100 -90 125 -99 219 -82 58 11 61 11 105 -18 40 -25 181 -65 337 -95 11
-3 37 -18 58 -34 52 -42 152 -68 286 -76 135 -8 233 -32 346 -84 73 -34 93
-39 190 -46 60 -4 134 -13 164 -21 30 -8 79 -14 110 -14 49 0 60 -4 87 -30 48
-47 63 -87 56 -150 -4 -43 0 -67 17 -110 18 -45 23 -81 27 -205 3 -82 10 -158
15 -168 21 -40 27 -124 12 -179 -19 -73 -19 -73 26 -122 36 -39 40 -48 40 -97
1 -30 5 -87 9 -126 7 -59 14 -79 38 -106 25 -28 31 -46 36 -103 9 -97 45 -230
78 -293 16 -30 29 -66 29 -80 0 -36 57 -256 80 -307 21 -50 137 -245 193 -329
53 -78 200 -230 252 -260 22 -13 69 -28 103 -34 68 -11 75 -14 137 -72 22 -20
81 -66 132 -101 150 -104 220 -171 256 -247 18 -36 54 -89 82 -118 41 -42 61
-54 110 -68 89 -24 103 -32 124 -65 18 -31 86 -223 115 -332 28 -101 88 -148
187 -148 163 0 192 124 115 503 -15 73 -40 150 -69 218 -55 125 -52 132 46
133 62 1 66 0 111 -42 82 -76 132 -86 250 -52 70 20 70 20 165 -1 53 -11 136
-27 185 -35 49 -8 121 -27 160 -40 170 -61 152 -58 241 -44 96 15 115 13 296
-35 202 -54 297 -84 371 -116 93 -41 168 -41 209 0 25 25 29 37 29 84 0 47 -5
60 -36 100 -59 75 -153 125 -385 205 -139 48 -482 145 -594 168 -44 9 -116 31
-160 49 -44 18 -113 38 -153 44 -91 14 -132 31 -196 80 -28 21 -64 45 -81 54
-35 18 -85 62 -85 76 0 21 82 111 122 134 24 14 68 30 98 36 30 6 93 25 139
43 l84 32 59 -33 c54 -30 62 -31 94 -21 25 9 45 26 65 58 27 43 29 52 29 155
l0 109 -38 38 c-63 63 -70 63 -432 -15 -192 -42 -347 -38 -480 10 -348 126
-363 132 -368 177 -2 14 4 54 13 88 9 33 18 91 21 128 4 37 12 89 20 116 23
83 18 145 -15 198 -36 56 -66 73 -148 83 -66 7 -93 26 -112 78 -13 34 -13 226
-1 352 5 50 14 154 19 233 10 137 38 268 64 300 8 10 31 12 96 7 47 -4 169 -2
271 4 102 6 291 14 420 17 205 6 240 9 274 26 44 22 84 20 156 -7 38 -14 50
-15 80 -4 22 8 124 14 275 18 163 4 247 10 262 19 49 28 213 52 351 52 110 0
146 4 187 19 72 28 304 65 362 58 36 -4 57 0 86 15 21 10 62 22 90 24 29 3 72
12 97 19 49 15 157 30 290 40 55 5 104 15 140 31 30 13 77 28 103 34 67 14
112 34 155 69 21 15 64 42 97 59 33 16 75 37 93 47 17 9 60 20 94 25 42 6 74
18 102 38 62 44 111 67 221 101 137 42 295 69 375 64 70 -5 63 -8 171 75 41
32 44 32 150 32 151 0 233 -31 349 -130 49 -41 106 -49 295 -43 129 5 176 2
245 -12 47 -9 133 -20 192 -24 120 -7 148 -20 182 -82 29 -53 16 -83 -72 -170
-66 -65 -89 -80 -162 -109 -69 -27 -98 -46 -154 -99 -79 -76 -102 -120 -112
-212 -6 -61 -5 -67 21 -97 42 -50 68 -44 161 39 43 39 99 80 124 91 25 12 67
36 93 54 53 37 118 51 175 38 20 -4 64 -8 98 -8 60 -1 61 -1 130 60 38 34 79
66 91 72 26 14 210 27 248 18 67 -17 354 -332 468 -514 27 -42 59 -88 71 -102
62 -68 70 -127 44 -330 -14 -113 -8 -142 37 -187 39 -39 88 -44 127 -13 36 28
83 104 114 185 24 63 26 79 21 165 -4 64 -14 121 -32 175 -14 44 -37 130 -50
190 -13 61 -31 130 -40 155 -9 25 -17 76 -18 113 l-2 68 58 56 c55 53 60 55
98 50 36 -5 60 -18 136 -73 14 -10 57 -19 117 -24 101 -9 100 -8 163 -56 26
-20 59 -34 90 -39 59 -9 73 -19 73 -56 0 -19 -14 -44 -45 -79 -67 -75 -58
-127 23 -145 90 -19 200 32 256 119 30 46 32 84 10 169 -31 122 -65 167 -208
275 -122 92 -295 258 -335 321 -16 25 -48 93 -71 151 -23 58 -52 130 -65 160
-13 30 -26 87 -30 125 -4 39 -16 90 -27 115 -11 25 -29 74 -40 110 -11 36 -38
100 -61 143 -32 63 -42 94 -48 155 -4 45 -16 94 -28 117 -11 22 -28 85 -37
140 -13 82 -22 109 -50 151 -41 60 -54 101 -54 166 0 63 -14 95 -63 148 -73
77 -77 85 -113 201 -37 123 -55 148 -135 200 -37 23 -55 45 -84 102 -20 39
-46 82 -56 96 -22 28 -24 72 -8 171 12 69 11 70 -17 112 -40 60 -46 155 -14
232 20 48 22 59 11 99 -6 25 -11 97 -11 159 0 128 -1 125 88 223 31 33 69 89
86 125 31 65 31 66 31 235 l0 170 -54 119 -54 118 26 82 c33 102 34 125 2 184
-22 41 -25 59 -25 145 0 77 -4 106 -19 135 -11 21 -22 71 -26 113 -4 53 -16
95 -40 149 -25 55 -37 99 -45 168 -8 74 -17 105 -45 158 -28 52 -35 77 -35
120 0 68 -14 100 -78 188 -37 50 -53 83 -58 115 -4 25 -17 62 -30 81 -13 19
-33 64 -45 100 -12 36 -33 81 -48 100 -41 53 -44 60 -52 117 -10 74 -48 151
-107 216 -60 66 -68 79 -77 134 -5 30 -21 58 -57 99 -57 65 -63 78 -73 154
-10 75 -43 132 -136 237 -43 48 -84 104 -90 123 -25 76 -73 155 -127 209 -38
37 -62 70 -70 97 -6 23 -35 66 -65 100 -29 32 -85 102 -125 155 -89 120 -158
183 -264 244 -46 26 -108 71 -138 100 -130 125 -243 215 -270 215 -15 0 -42
11 -61 24 -19 14 -57 41 -86 60 -28 20 -77 66 -110 103 -32 37 -69 78 -83 90
-30 28 -156 93 -179 93 -9 0 -66 38 -126 85 -61 47 -135 97 -165 111 -30 14
-91 43 -136 65 -46 22 -107 62 -143 94 -75 67 -101 80 -171 89 -38 5 -97 28
-193 77 -77 38 -145 69 -151 69 -39 0 -94 28 -148 75 -39 34 -82 61 -113 71
-27 9 -72 29 -100 44 -27 16 -76 36 -108 45 -32 9 -117 39 -189 66 -71 27
-161 56 -199 65 -45 10 -88 29 -128 56 -58 39 -65 41 -164 48 -96 7 -107 10
-154 42 -40 28 -66 37 -133 46 -66 9 -100 21 -164 56 -52 28 -101 46 -136 51
-30 4 -71 14 -90 22 -23 10 -88 16 -190 20 -123 4 -172 10 -240 30 -121 35
-362 43 -505 18 -88 -16 -136 -17 -420 -11 -223 4 -338 11 -380 21 -56 13
-344 19 -415 8z m6804 -8913 c54 -65 44 -148 -26 -217 -43 -42 -105 -67 -273
-108 -27 -7 -74 -24 -103 -39 -105 -53 -399 -101 -674 -109 -101 -3 -112 8
-71 65 17 24 34 59 38 78 16 76 74 141 142 159 21 6 49 18 63 28 19 14 53 20
140 24 87 5 142 14 225 38 113 34 133 35 267 15 66 -9 90 0 139 51 54 57 94
61 133 15z"/>
</g>
</svg>
