<?xml version="1.0" encoding="UTF-8" standalone="no"?>
<!-- Created with Inkscape (http://www.inkscape.org/) -->

<svg
   xmlns:svg="http://www.w3.org/2000/svg"
   xmlns="http://www.w3.org/2000/svg"
   version="1.1"
   width="742.49994"
   height="428.77823"
   id="svg3027">
  <defs
     id="defs3029" />
  <g
     transform="translate(34.214295,-244.44699)"
     id="layer1">
    <path
       d="m 214.88044,670.90497 c -1.42711,-1.4271 -2.59474,-3.4876 -2.59474,-4.5789 0,-1.6061 -0.90511,-2.1123 -4.75,-2.6563 -14.74662,-2.0865 -19.87565,-10.2781 -10.53505,-16.8256 3.14286,-2.203 5.68639,-3.0684 10,-3.4025 4.18477,-0.3241 6.47661,-1.0768 8.28505,-2.721 1.375,-1.2502 3.89006,-2.9735 5.58901,-3.8296 1.69896,-0.8561 4.61914,-3.5498 6.4893,-5.9859 1.87016,-2.4362 4.86761,-5.3912 6.66099,-6.5668 1.79339,-1.1756 3.27539,-2.9208 3.29335,-3.8782 0.0179,-0.9575 0.83221,-4.0543 1.80946,-6.8819 l 1.77681,-5.1411 -4.79138,-0.4604 c -3.1506,-0.3027 -6.17533,-1.453 -8.83278,-3.3589 -2.22277,-1.5942 -5.19726,-3.5054 -6.60999,-4.2472 -1.41273,-0.7417 -3.49256,-2.9146 -4.62185,-4.8286 -1.26861,-2.1501 -3.79847,-4.3098 -6.62006,-5.6514 -5.82521,-2.7697 -9.14286,-7.5738 -9.14286,-13.2392 0,-2.3497 -1.125,-9.4755 -2.5,-15.8352 -1.76713,-8.1733 -2.5,-14.6183 -2.5,-21.9853 l 0,-10.4224 3.61463,-4.3446 c 3.72251,-4.4743 14.39691,-12.9032 21.93531,-17.321 2.3518,-1.3783 5.2118,-4.0201 6.35554,-5.8707 1.14375,-1.8506 5.45791,-6.5538 9.58703,-10.45149 4.12912,-3.89768 7.50749,-7.78752 7.50749,-8.64408 0,-0.85656 -0.17546,-1.55738 -0.38992,-1.55738 -0.21446,0 -4.76399,-0.9 -10.11008,-2 -8.71757,-1.79371 -13.62688,-2 -47.59589,-2 l -37.87573,0 -2.50427,3.78421 c -3.68694,5.57134 -14.54797,11.20947 -21.64372,11.2356 -14.09739,0.0519 -26.811306,3.66134 -33.716546,9.57194 -2.29761,1.9667 -7.21191,5.0668 -10.92066,6.8893 -3.70875,1.8224 -10.79318,6.3566 -15.74318,10.076 -4.95,3.7194 -12.15,8.7435 -16,11.1646 -3.85,2.4212 -8.26922,5.3868 -9.8205,6.5903 -2.61039,2.0251 -4.122483,2.2129 -20.298328,2.5214 -14.6347117,0.2791 -17.86991171,0.076 -19.8881127,-1.2459 -2.270422,-1.4877 -2.551264,-1.4383 -4.839941,0.8503 -4.1206653,4.1207 -13.7949823,4.665 -19.2607723,1.0837 -1.317862,-0.8635 -3.632766,-3.4402 -5.144229,-5.7259 -2.599669,-3.9315 -2.748116,-4.7809 -2.748116,-15.7257 0,-12.8115 2.710629,-25.281 6.954103,-31.99035 4.313672,-6.82036 23.7555123,-25.71365 29.3319503,-28.50435 3.245326,-1.62411 6.006347,-3.88652 7.151814,-5.86027 2.7439467,-4.72808 7.7538597,-11.03245 14.8121327,-18.63927 3.4375,-3.70465 6.25,-7.31017 6.25,-8.01225 0,-1.73926 13.335629,-15.44211 19.499999,-20.03698 2.75,-2.04983 9.725,-8.10728 15.5,-13.46101 10.27724,-9.52755 25.39875,-21.56537 27.08968,-21.56537 0.46852,0 2.82951,-1.39399 5.24665,-3.09775 l 4.394806,-3.09774 -0.50303,-15.7648 c -0.48228,-15.11471 -0.41488,-15.85294 1.63443,-17.90225 2.42405,-2.42405 8.24557,-2.84041 11.83246,-0.84627 2.43419,1.35329 8.3562,8.00053 10.15004,11.39307 0.63523,1.20134 1.15496,4.37783 1.15496,7.05887 0,8.12678 0.71678,8.44892 13,5.84259 6.93399,-1.4713 13.21696,-3.59789 18.5,-6.26167 4.4,-2.21855 9.35,-4.35558 11,-4.74897 3.07005,-0.73196 17.79938,-6.923 20.5,-8.61658 0.825,-0.51736 3.66978,-2.09361 6.32172,-3.50277 2.65195,-1.40916 6.92695,-4.04723 9.5,-5.86237 2.57306,-1.81515 7.12459,-4.60371 10.11453,-6.19681 2.98994,-1.5931 6.81494,-4.29728 8.5,-6.00929 1.68506,-1.712 6.21375,-4.80266 10.06375,-6.86813 3.85,-2.06547 8.62888,-5.04363 10.61974,-6.61812 4.04166,-3.19641 15.53369,-8.899 17.93598,-8.90022 0.85565,-4.3e-4 3.08057,-1.12579 4.94428,-2.50079 1.86371,-1.375 3.90911,-2.5 4.54534,-2.5 0.63623,0 3.31177,-1.14582 5.94565,-2.54626 5.67746,-3.01874 20.36015,-8.83052 26.00901,-10.29503 2.2,-0.57037 16.6,-3.10649 32,-5.63582 15.4,-2.52933 32.275,-5.65966 37.5,-6.95629 5.225,-1.29662 15.125,-3.55926 22,-5.02807 6.875,-1.46882 16.55,-3.61911 21.5,-4.77844 11.02994,-2.58327 32.74491,-3.76764 80.19269,-4.37383 27.8989,-0.35643 35.53774,-0.15872 41.5,1.07413 9.79824,2.02604 36.71831,11.51891 50.30731,17.73996 24.25784,11.10525 29.27157,13.75214 35.01497,18.48539 3.29176,2.71282 9.17334,7.27502 13.07016,10.13823 8.47722,6.22867 28.1638,27.7905 31.71063,34.73123 1.38978,2.71964 3.46678,5.93848 4.61556,7.15299 1.14877,1.2145 2.08868,2.87778 2.08868,3.69619 0,0.8184 1.83149,4.99971 4.06998,9.29181 3.63279,6.96554 4.12828,8.77057 4.61276,16.80381 0.38716,6.41945 -0.0848,13.44428 -1.64587,24.5 -2.07594,14.70174 -2.46462,16.06651 -7.54716,26.5 -3.44527,7.0725 -6.8101,12.41138 -9.4241,14.95295 -2.23609,2.17412 -4.06561,4.49621 -4.06561,5.1602 0,0.66399 -1.85784,3.5576 -4.12854,6.43024 -4.06561,5.14339 -4.11891,5.31502 -3.49736,11.26167 0.34714,3.32128 1.52998,7.56207 2.62853,9.42397 2.54726,4.31729 2.52744,7.07783 -0.0707,9.84339 l -2.06804,2.20133 3.98523,7.86313 c 4.91353,9.69477 12.54027,17.29257 23.53759,23.44847 10.10016,5.6536 15.24587,10.2479 19.61326,17.5114 l 3.5,5.8209 0.53737,47.0412 c 0.37696,32.9991 0.89934,48.084 1.75,50.5346 0.66694,1.9213 1.21263,6.709 1.21263,10.6392 0,8.9581 -1.23304,10.6235 -10.29549,13.906 -5.55998,2.0139 -8.66143,2.4614 -17.05884,2.4614 -7.47612,0 -10.79054,-0.3988 -12.20451,-1.4682 -1.28468,-0.9717 -4.41518,-1.479 -9.25687,-1.5 -8.84785,-0.038 -11.18426,-1.0818 -11.18426,-4.9944 0,-3.1567 3.11542,-6.2226 8.69045,-8.5524 2.58042,-1.0783 3.3075,-2.0648 3.80265,-5.1591 0.33671,-2.1043 1.07918,-5.8509 1.64994,-8.3259 1.31989,-5.7235 2.76958,-31.2839 2.81891,-49.702 l 0.038,-14.202 -4.75,-3.241 c -2.6125,-1.7826 -10.825,-8.9415 -18.25,-15.9086 -16.81017,-15.7734 -19.66957,-18.2308 -29,-24.9221 -4.125,-2.9582 -9.79157,-7.0989 -12.59237,-9.2015 -2.80081,-2.1026 -5.42786,-3.8228 -5.8379,-3.8228 -0.88235,0 -0.0784,5.9303 2.0506,15.1252 1.19052,5.1419 2.4292,7.6048 5.53224,11 6.25979,6.8492 8.97227,12.16 9.56837,18.7339 0.49898,5.5028 0.27993,6.2904 -3.59479,12.9249 -2.26938,3.8857 -4.12615,7.4756 -4.12615,7.9776 0,0.502 -1.85801,3.5075 -4.12892,6.6787 -2.27091,3.1713 -4.7219,7.6321 -5.44666,9.9128 -3.97942,12.5229 -12.31162,30.3682 -16.41055,35.1469 -2.52881,2.9481 -3.92165,9.687 -4.44382,21.5 -0.53093,12.0113 -1.56056,16.2635 -4.96392,20.5 -2.35418,2.9304 -2.68466,3.0177 -14.25809,3.7644 -29.40349,1.8973 -39.42741,1.9737 -41.26076,0.3145 -1.11366,-1.0078 -4.59435,-1.7986 -9.66392,-2.1957 -4.35785,-0.3413 -8.95595,-1.2657 -10.21799,-2.0542 -4.59825,-2.8729 -5.17166,-9.3628 -1.17993,-13.3545 1.65833,-1.6583 3.34463,-1.9745 10.52942,-1.9745 13.44671,0 18.88725,-3.2005 21.35109,-12.5599 0.65331,-2.4818 3.24548,-6.5633 6.66858,-10.5 3.0799,-3.5421 6.23303,-7.6503 7.00694,-9.1294 0.77391,-1.4792 2.22893,-3.2792 3.23337,-4 2.01558,-1.4466 2.00563,-1.4291 12.09062,-21.2643 6.01992,-11.8399 7.09374,-14.7179 7.08928,-19 -0.003,-3.1266 -0.66901,-6.0415 -1.75,-7.662 -0.95961,-1.4385 -2.91316,-4.3635 -4.34122,-6.5 -1.42806,-2.1364 -3.15061,-5.5724 -3.82789,-7.6355 -0.67727,-2.063 -2.77672,-5.9975 -4.66544,-8.7432 -1.88872,-2.7457 -4.35901,-7.3389 -5.48954,-10.2071 -1.13053,-2.8681 -3.54608,-7.9337 -5.36789,-11.2567 -1.82181,-3.3231 -4.14016,-8.2919 -5.15188,-11.0419 -1.01172,-2.75 -3.75279,-8.4702 -6.09126,-12.7115 -2.33847,-4.24123 -5.43263,-10.54123 -6.87592,-13.99996 -3.40799,-8.16703 -8.31646,-16.78859 -9.55816,-16.78859 -0.53772,0 -6.10495,3.11088 -12.37162,6.91306 -6.26667,3.80218 -14.00619,7.66204 -17.19893,8.57748 -3.19275,0.91543 -7.37999,2.60025 -9.30499,3.74405 -1.925,1.14379 -6.875,3.08722 -11,4.31873 -4.125,1.23151 -10.06367,3.18139 -13.19705,4.33307 -3.13338,1.15166 -11.45838,2.78076 -18.5,3.62006 -7.04162,0.8394 -20.22795,2.4136 -29.30295,3.4984 -10.38282,1.241 -27.88436,2.2695 -47.20727,2.7743 -16.889,0.4411 -31.02756,1.1223 -31.41901,1.5138 -0.39145,0.3915 -1.30806,5.7732 -2.0369,11.9594 -0.72885,6.1862 -2.18583,13.2727 -3.23774,15.7477 -4.07296,9.5831 -8.38564,20.929 -11.78337,31 -3.77089,11.177 -6.27844,17.7333 -9.56154,25 -1.11822,2.475 -2.18413,7.2536 -2.3687,10.6192 -0.18456,3.3656 -0.7968,7.3324 -1.36052,8.8151 -0.56372,1.4827 -1.02772,4.1291 -1.03111,5.8808 -0.003,1.7516 -0.73977,4.5349 -1.63641,6.1849 -0.89663,1.65 -2.31478,4.35 -3.15144,6 -0.83665,1.65 -3.47527,5.1182 -5.86359,7.7071 l -4.3424,4.7072 0,9.6 c 0,5.28 -0.49644,11.5716 -1.10321,13.9812 -1.75637,6.9752 -3.48142,7.9135 -15.74921,8.5666 -7.43668,0.3959 -11.64202,1.1044 -13.94522,2.3494 -2.24008,1.2108 -6.45901,1.9567 -13.15526,2.3257 -9.61162,0.5296 -9.92238,0.4784 -12.45236,-2.0516 z m 36.97894,-92.9819 c 1.26701,-8.9977 3.23529,-18.7994 4.37395,-21.7816 3.40593,-8.9202 6.27054,-20.6123 6.41587,-26.1868 0.16857,-6.4652 -0.17119,-6.4656 -13.04517,-0.016 -6.79725,3.4054 -9.33418,5.2076 -9.76897,6.9399 -0.32302,1.2871 -2.80315,4.0277 -5.51139,6.0904 -7.27156,5.5382 -6.75067,8.0814 3.60802,17.616 7.84325,7.2194 9.48471,11.1787 10.12323,24.4183 0.27278,5.6563 0.72206,10.058 0.99839,9.7817 0.27633,-0.2763 1.53907,-7.8642 2.80607,-16.8619 z M 640.0819,408.46932 c 2.35875,-4.16521 0.51667,-2.29475 -3.09066,3.13829 l -3.57763,5.38829 1.30023,7.48744 c 2.07786,11.96558 3.01791,11.50275 3.58288,-1.76402 0.29502,-6.92791 1.04957,-12.95102 1.78518,-14.25 z m 12.62644,-20.75 c 0.25134,-1.1 0.69421,-5.6 0.98415,-10 0.58128,-8.82116 0.0521,-8.28854 -3.47762,3.5 -1.23509,4.125 -2.79241,8.625 -3.46071,10 -0.6683,1.375 -1.53627,3.625 -1.92882,5 -0.58561,2.05127 0.0168,1.69228 3.35615,-2 2.23843,-2.475 4.27551,-5.4 4.52685,-6.5 z"
       id="path3093"
       style="fill:#000000" />
  </g>
</svg>
