<?xml version="1.0" standalone="no"?>
<!DOCTYPE svg PUBLIC "-//W3C//DTD SVG 20010904//EN"
 "http://www.w3.org/TR/2001/REC-SVG-20010904/DTD/svg10.dtd">
<svg version="1.0" xmlns="http://www.w3.org/2000/svg"
 width="946.000000pt" height="1536.000000pt" viewBox="0 0 946.000000 1536.000000"
 preserveAspectRatio="xMidYMid meet">
<metadata>
Created by potrace 1.16, written by Peter Selinger 2001-2019
</metadata>
<g transform="translate(0.000000,1536.000000) scale(0.100000,-0.100000)"
fill="#000000" stroke="none">
<path d="M7735 15350 c-11 -5 -37 -9 -58 -9 -20 -1 -67 -14 -104 -31 -36 -16
-71 -30 -77 -30 -6 0 -60 -42 -121 -93 -93 -79 -125 -114 -212 -236 -146 -202
-306 -485 -536 -946 -188 -377 -430 -894 -475 -1015 -11 -30 -36 -98 -57 -150
-155 -401 -204 -536 -317 -870 -143 -427 -276 -843 -308 -965 -75 -286 -93
-361 -136 -560 -61 -287 -172 -774 -203 -895 -5 -19 -21 -98 -36 -175 -14 -77
-39 -210 -55 -295 -16 -85 -37 -198 -45 -250 -116 -700 -127 -759 -220 -1130
-269 -1069 -295 -1141 -721 -1992 -501 -1003 -790 -1551 -947 -1798 -231 -363
-328 -502 -585 -835 -133 -172 -133 -172 -210 -179 -37 -4 -84 -9 -104 -12
-22 -3 -38 -2 -38 4 0 5 49 46 108 90 135 101 200 170 240 253 17 35 54 91 81
122 74 84 65 101 -33 67 -33 -11 -74 -20 -92 -20 -28 0 -35 5 -40 25 -7 30
-21 38 -91 55 -50 11 -64 30 -23 30 32 0 34 20 4 51 -32 33 -70 37 -183 18
-85 -13 -96 -9 -76 31 9 17 27 73 40 124 30 117 68 199 100 216 27 14 89 135
81 157 -3 7 5 23 18 35 28 27 34 56 46 204 8 105 16 135 52 186 18 25 2 33
-42 21 -42 -11 -51 -4 -24 18 23 19 190 271 223 337 27 54 73 221 85 304 2 21
20 64 40 95 37 61 122 316 111 333 -9 15 -18 7 -69 -68 -67 -100 -164 -189
-312 -285 -133 -87 -273 -167 -291 -167 -6 0 5 30 24 66 25 46 38 86 43 133 7
59 12 71 50 111 80 85 149 176 169 223 11 26 25 47 31 47 6 0 8 -4 5 -10 -14
-22 15 -8 35 17 14 18 17 29 9 33 -7 5 -3 14 12 29 12 11 26 21 30 21 4 0 7 8
7 18 -2 27 39 88 68 101 20 9 25 17 21 33 -4 12 4 40 17 67 38 74 49 146 44
275 -2 66 -9 121 -15 127 -9 9 -8 18 3 35 14 21 14 25 -7 53 l-22 29 21 35 22
34 -41 26 -40 26 -47 -33 c-45 -33 -112 -66 -161 -81 -13 -4 -49 -20 -80 -35
-31 -16 -57 -27 -59 -25 -2 2 4 18 13 36 14 26 15 37 6 52 -11 16 -7 24 27 55
43 42 67 91 57 121 -3 11 1 34 10 51 12 24 15 57 13 160 l-3 130 -53 -46 c-47
-41 -56 -45 -76 -36 -20 9 -25 21 -31 76 -7 71 -14 82 -44 67 -14 -8 -22 -7
-32 5 -9 11 -23 14 -45 11 -30 -5 -32 -3 -38 29 -4 18 -2 42 3 52 7 14 5 27
-9 50 -24 40 -37 40 -80 2 -19 -16 -43 -29 -53 -30 -10 0 -36 -9 -59 -21 l-41
-21 7 38 7 37 -31 -6 c-29 -6 -31 -5 -24 16 18 59 37 91 74 124 37 33 90 113
90 135 0 30 -101 -60 -185 -164 -20 -27 -43 -48 -50 -48 -18 0 -27 55 -19 121
5 45 3 57 -9 62 -24 9 -124 -46 -197 -109 -36 -30 -74 -60 -84 -66 -16 -9 -18
-8 -11 8 5 11 11 50 13 88 3 58 1 72 -14 83 -27 20 -46 16 -39 -7 3 -10 1 -37
-6 -60 -10 -34 -16 -40 -39 -40 -30 0 -53 21 -69 63 -16 40 -28 33 -40 -23
-13 -58 -33 -103 -67 -143 -13 -16 -27 -39 -30 -53 -3 -13 -9 -24 -13 -24 -21
0 -64 66 -96 147 -53 132 -61 134 -68 15 -16 -231 -7 -325 49 -526 14 -48 23
-93 21 -100 -2 -6 -19 11 -38 38 -19 27 -58 83 -88 125 -58 81 -91 171 -91
248 0 64 -16 60 -41 -9 -20 -57 -23 -85 -27 -290 l-4 -226 55 -114 c44 -92 66
-124 116 -173 33 -33 61 -62 61 -66 0 -4 -33 -29 -73 -57 -80 -55 -165 -92
-213 -92 -17 0 -55 -4 -85 -10 -30 -5 -104 -16 -166 -25 -132 -18 -149 -24
-197 -65 -70 -62 -37 -86 61 -45 63 27 67 28 131 15 37 -6 83 -14 102 -17 80
-10 200 -54 200 -72 0 -5 -16 -12 -36 -15 -19 -4 -37 -13 -40 -21 -3 -7 17
-44 46 -81 57 -75 105 -166 175 -333 52 -122 103 -206 159 -260 27 -26 36 -43
36 -68 0 -18 -3 -33 -6 -33 -17 0 -131 99 -181 158 -125 145 -196 209 -276
246 -76 36 -117 73 -117 106 0 9 -5 31 -11 49 -9 25 -16 31 -40 31 -24 0 -29
-4 -29 -25 0 -52 57 -164 171 -334 182 -274 212 -306 446 -470 95 -66 140
-111 113 -111 -6 0 -65 28 -133 61 -189 96 -324 120 -362 66 -20 -29 -12 -35
42 -30 l48 5 65 -83 c95 -122 122 -159 114 -159 -4 0 -38 11 -76 25 -38 14
-78 25 -89 25 -39 0 -133 40 -185 80 -106 80 -113 64 -28 -64 87 -132 241
-330 301 -387 59 -57 285 -212 346 -238 53 -23 55 -26 68 -94 20 -102 21 -115
11 -121 -15 -9 -74 45 -138 125 -76 95 -356 307 -513 389 -26 13 -78 11 -228
-11 -85 -12 -113 -24 -80 -33 62 -18 117 -45 167 -82 49 -36 68 -44 103 -44
59 0 76 -15 86 -80 20 -121 121 -288 262 -435 87 -90 113 -125 93 -125 -3 0
-37 27 -77 60 -52 44 -87 65 -127 76 -83 23 -109 34 -180 75 -36 20 -84 42
-106 49 -52 16 -240 9 -273 -9 -38 -21 -7 -31 102 -31 84 0 105 -4 146 -24 43
-23 140 -120 129 -131 -2 -3 -20 0 -39 5 -40 12 -125 17 -134 8 -3 -3 4 -22
15 -41 21 -36 88 -77 125 -77 27 0 233 -115 311 -173 101 -76 119 -112 146
-287 18 -115 23 -186 23 -346 0 -131 -4 -209 -11 -225 -7 -13 -18 -53 -26 -89
-13 -57 -18 -65 -39 -68 -13 -2 -43 -10 -66 -19 -59 -22 -63 -44 -62 -309 1
-188 -2 -226 -16 -259 -11 -26 -19 -75 -22 -138 -2 -53 -8 -108 -13 -121 -5
-13 -6 -33 -3 -45 4 -16 -1 -23 -21 -31 -14 -5 -40 -20 -56 -32 -25 -18 -42
-22 -92 -20 -33 2 -69 7 -80 13 -16 9 -24 6 -42 -10 -24 -22 -61 -28 -71 -11
-3 6 -10 10 -15 10 -16 0 -67 -84 -90 -150 -46 -130 -97 -223 -193 -348 -29
-38 -52 -89 -83 -180 l-43 -127 -1 -275 c0 -292 1 -300 47 -300 17 0 24 8 32
38 6 20 11 44 11 53 0 29 22 39 65 28 22 -6 50 -13 63 -16 13 -3 29 -14 35
-24 17 -27 26 -24 64 21 59 69 215 140 313 144 34 1 35 0 35 -34 -1 -19 -4
-46 -9 -59 l-8 -24 35 27 c43 33 54 60 61 156 6 66 10 78 39 108 47 49 84 69
178 96 104 29 302 41 340 20 13 -7 47 -13 75 -14 41 0 59 6 91 29 46 33 79 73
98 117 7 17 26 46 43 65 100 114 121 178 122 361 0 84 1 87 33 120 18 18 52
49 75 68 40 33 43 39 51 106 5 39 17 85 27 104 65 114 63 104 63 276 l1 161
55 72 c30 39 59 86 64 104 19 62 37 105 51 121 7 10 21 52 31 94 10 42 23 97
29 121 9 37 8 53 -7 94 l-18 49 46 41 c26 23 62 52 80 65 19 12 62 43 97 68
34 25 69 44 76 41 8 -3 22 3 32 14 10 11 30 19 51 19 33 0 45 13 21 24 -8 3
15 31 59 73 117 111 398 505 623 873 62 102 136 223 165 270 274 443 407 684
669 1208 386 772 515 1073 617 1440 123 442 172 628 219 822 28 118 69 287 91
375 35 141 51 218 90 433 5 28 14 77 19 107 6 30 14 79 19 108 6 28 14 72 20
97 5 25 28 128 50 230 22 102 47 226 56 275 15 84 20 114 46 255 37 208 53
285 109 530 105 465 236 975 309 1210 89 287 362 1093 476 1405 48 132 119
312 157 400 165 377 662 1341 853 1655 204 335 267 422 338 463 24 14 78 36
120 48 70 21 80 22 149 9 95 -17 131 -32 194 -81 61 -47 151 -171 170 -237 20
-64 17 -112 -12 -232 -29 -116 -26 -64 -44 -950 -6 -272 -15 -637 -20 -810
-19 -605 21 -1202 92 -1385 10 -27 25 -104 33 -170 21 -189 53 -263 208 -489
15 -21 34 -63 44 -92 9 -30 20 -54 24 -54 5 0 23 18 41 41 36 44 72 66 157 94
140 46 256 145 316 270 26 53 59 102 100 145 34 36 71 81 82 100 125 209 260
1048 225 1395 -7 63 -17 168 -23 233 -15 163 -55 452 -85 607 -62 322 -284
849 -440 1045 -110 137 -229 250 -320 303 -44 26 -86 47 -93 47 -32 0 -77 39
-152 133 -116 145 -135 164 -214 215 -80 52 -99 58 -220 77 -101 16 -141 17
-170 5z"/>
</g>
</svg>
