<?xml version="1.0" standalone="no"?>
<!DOCTYPE svg PUBLIC "-//W3C//DTD SVG 20010904//EN"
 "http://www.w3.org/TR/2001/REC-SVG-20010904/DTD/svg10.dtd">
<svg version="1.0" xmlns="http://www.w3.org/2000/svg"
 width="1278.000000pt" height="1536.000000pt" viewBox="0 0 1278.000000 1536.000000"
 preserveAspectRatio="xMidYMid meet">
<metadata>
Created by potrace 1.16, written by Peter Selinger 2001-2019
</metadata>
<g transform="translate(0.000000,1536.000000) scale(0.100000,-0.100000)"
fill="#000000" stroke="none">
<path d="M10997 15353 c-4 -5 -20 -86 -37 -179 -38 -211 -58 -282 -126 -453
-102 -253 -256 -546 -456 -865 -227 -363 -415 -622 -477 -659 -29 -17 -32 -17
-38 -1 -3 9 1 44 9 78 9 33 36 140 61 236 97 377 279 1305 303 1553 5 49 4 67
-5 67 -40 0 -128 -325 -306 -1138 -99 -452 -160 -644 -285 -901 -87 -177 -128
-249 -253 -436 -121 -182 -223 -318 -271 -364 l-36 -35 0 26 c0 32 15 68 109
261 98 200 143 337 112 337 -25 0 -205 -272 -434 -655 -265 -443 -394 -640
-485 -737 -44 -48 -67 -59 -74 -36 -9 26 -56 -4 -105 -69 -127 -167 -333 -541
-808 -1468 -230 -447 -417 -785 -435 -785 -15 0 -12 31 9 101 35 117 36 149 6
149 -40 0 -334 -577 -662 -1300 -179 -395 -236 -528 -413 -965 -86 -214 -191
-467 -233 -560 -85 -193 -114 -284 -157 -505 -48 -246 -87 -337 -138 -323 -41
10 -86 -101 -132 -329 -51 -255 -94 -393 -183 -593 -87 -196 -177 -473 -292
-896 -224 -830 -375 -1191 -643 -1539 -81 -105 -407 -432 -562 -564 -264 -226
-383 -313 -458 -338 -63 -21 -181 -90 -320 -187 -169 -119 -389 -238 -732
-394 -519 -237 -1018 -420 -1451 -532 -340 -88 -500 -153 -569 -231 -38 -44
-39 -78 -3 -101 40 -27 256 -23 428 6 920 158 2523 698 3235 1091 169 93 285
174 372 259 62 61 76 80 72 98 -9 34 72 144 314 428 561 657 1016 1565 1133
2262 37 222 123 437 404 1013 183 375 266 563 285 645 31 131 80 260 160 422
200 403 498 876 790 1253 319 412 369 477 418 548 28 41 52 81 52 88 0 24 -85
-15 -247 -112 -86 -52 -159 -92 -161 -89 -9 8 62 106 207 285 430 530 548 680
602 762 70 106 74 122 29 98 -10 -6 -21 -6 -24 -1 -10 16 60 116 220 316 88
110 311 391 495 625 184 234 450 569 590 745 427 535 583 755 535 755 -25 0
-128 -95 -331 -306 -186 -193 -291 -291 -302 -280 -14 13 80 152 251 371 125
160 183 223 315 343 212 191 447 362 761 552 235 143 500 317 500 330 0 19
-111 -28 -515 -222 -328 -158 -489 -216 -501 -183 -15 39 259 331 842 896 788
766 1151 1141 1368 1414 92 116 436 625 422 625 -2 0 -75 -84 -162 -187 -314
-373 -569 -649 -865 -938 -416 -406 -704 -651 -983 -838 -261 -174 -450 -321
-676 -526 -124 -112 -164 -141 -177 -127 -19 18 73 214 458 981 428 852 536
1078 607 1270 83 225 101 337 82 512 -13 123 -22 163 -33 146z"/>
</g>
</svg>
