<?xml version="1.0" encoding="UTF-8" standalone="no"?>
<!-- Created with Inkscape (http://www.inkscape.org/) -->

<svg
   xmlns:svg="http://www.w3.org/2000/svg"
   xmlns="http://www.w3.org/2000/svg"
   version="1.1"
   width="744.09448"
   height="1052.3622"
   id="svg2">
  <defs
     id="defs4" />
  <g
     id="layer1">
    <path
       d="m 226.66886,709.98026 c -3.24352,-2.9625 -3.31172,-3.1969 -3.31172,-11.3826 0,-7.3352 0.39525,-9.1979 3.2307,-15.2252 4.56617,-9.70619 10.95127,-26.40615 13.7031,-35.83985 1.28792,-4.41516 4.24661,-12.97756 6.57488,-19.02756 2.32827,-6.05 5.28471,-15.05 6.56988,-20 1.28516,-4.95 3.23468,-12.06432 4.33226,-15.80961 1.09758,-3.74528 3.39994,-13.87028 5.11635,-22.5 1.71642,-8.62971 4.16256,-20.64039 5.43586,-26.69039 1.27331,-6.05 2.85458,-13.7 3.51394,-17 1.29391,-6.47585 2.07452,-9.84349 7.06975,-30.5 4.30934,-17.82015 4.56137,-19.82942 2.58255,-20.58877 -0.87295,-0.33498 -4.40915,0.37764 -7.85822,1.5836 -23.27564,8.13828 -36.74874,12.50193 -46.77105,15.14815 -6.325,1.67001 -12.29583,3.7483 -13.2685,4.61843 -1.68687,1.50903 -1.75611,0.4829 -1.5,-22.22877 l 0.2685,-23.81082 2.70103,-0.28747 c 3.3799,-0.35972 14.54488,-3.59636 26.29897,-7.62386 4.95,-1.69611 13.13863,-4.21058 18.19695,-5.58772 5.78659,-1.57541 9.43338,-3.10069 9.83455,-4.11333 1.63141,-4.11799 4.14961,-22.72551 3.2981,-24.37031 -0.55808,-1.07801 -0.4865,-5.73161 0.1846,-12 0.60291,-5.63152 1.26445,-16.76414 1.4701,-24.73914 0.20564,-7.975 0.60852,-15.85 0.89527,-17.5 1.90609,-10.96772 5.24033,-25.03915 7.34549,-31 1.35969,-3.85 2.76529,-8.35 3.12355,-10 0.80651,-3.71443 5.98143,-11.5 7.64383,-11.5 0.67467,0 2.75237,-1.56275 4.61711,-3.47278 1.86475,-1.91003 4.51545,-3.73601 5.89045,-4.05773 1.375,-0.32173 4.47342,-2.36168 6.88537,-4.53322 4.12254,-3.71163 5.89376,-7.63496 6.29165,-13.93627 0.0521,-0.825 1.51234,-3.3 3.24499,-5.5 1.73264,-2.2 4.00048,-5.34221 5.03964,-6.98268 1.03915,-1.64048 3.38539,-4.39361 5.21386,-6.11808 1.82847,-1.72447 3.32449,-3.63385 3.32449,-4.24307 0,-1.50482 5.96801,-6.83036 10.11785,-9.02863 1.86018,-0.98538 4.73215,-2.51201 6.38215,-3.39251 5.84079,-3.11685 14.05947,-4.21767 21.70308,-2.90694 7.89109,1.35317 24.27634,9.32298 26.05238,12.67191 0.58337,1.1 3.28032,4.475 5.99324,7.5 2.71291,3.025 5.29869,6.42845 5.74617,7.56323 0.55461,1.40643 4.74363,3.77895 13.15937,7.45301 20.12338,8.78526 39.84576,22.34077 39.84576,27.38663 0,1.01426 -3.51313,-0.81412 -7.70222,-4.00855 -5.80926,-4.42991 -16.15821,-9.15882 -24.04777,-10.98853 -5.62205,-1.30384 -8.2459,-1.35569 -17.40771,-0.34396 -9.47106,1.04588 -10.86797,1.44368 -11.44412,3.25899 -0.36095,1.13724 -2.97886,4.3903 -5.81759,7.22902 -7.83742,7.83742 -10.54621,13.11731 -7.64849,14.9082 0.51265,0.31683 1.4389,3.15589 2.05832,6.30901 0.61942,3.15312 1.5823,7.20429 2.13973,9.0026 1.35825,4.38179 1.93418,13.86035 1.86295,30.66068 -0.0482,11.36683 -0.40478,14.71192 -1.93779,18.17754 -1.52625,3.45035 -1.94221,7.28812 -2.21703,20.45505 -0.329,15.76309 -0.27998,16.2294 1.7865,16.99392 2.75528,1.01934 19.77549,-0.50188 34.37522,-3.07236 6.325,-1.1136 15.775,-2.71353 21,-3.5554 10.82566,-1.74427 14.60499,-2.95469 17.6202,-5.64328 1.16611,-1.03979 3.07861,-1.96273 4.25,-2.05097 1.17139,-0.0882 2.1298,-0.51467 2.1298,-0.94762 0,-0.43296 0.42056,-0.7872 0.93458,-0.7872 0.55034,0 0.97344,9.69322 1.02909,23.57662 0.0907,22.61411 0.018,23.55235 -1.77915,22.98194 -1.03053,-0.32707 -6.55612,0.11212 -12.2791,0.97598 -5.72298,0.86386 -11.08042,1.5971 -11.90542,1.62943 -0.825,0.0323 -5.325,0.87371 -10,1.86975 -4.675,0.99604 -15.475,2.33109 -24,2.96677 -8.525,0.63569 -21.35,1.8512 -28.5,2.70114 -7.15,0.84995 -16.8477,1.82728 -21.55044,2.17186 -5.35213,0.39216 -9.49395,1.2463 -11.07282,2.28347 -1.38731,0.91133 -5.06768,4.98007 -8.17859,9.04164 -4.99533,6.52185 -5.83962,8.31455 -7.2259,15.34304 -0.86333,4.3771 -2.28107,9.6236 -3.15054,11.65889 -0.86946,2.03529 -1.32947,4.66178 -1.02224,5.83663 0.59621,2.27992 -0.36676,8.32772 -3.48635,21.89545 -2.21526,9.63465 -4.26856,15.06739 -5.69471,15.06739 -0.541,0 -1.23485,0.79153 -1.5419,1.75894 -0.30705,0.96742 -1.53919,2.20492 -2.7381,2.75 -1.2368,0.56231 -2.75573,2.72152 -3.51103,4.99106 -0.73216,2.2 -1.77781,4.9 -2.32366,6 -1.98851,4.00727 -6.00372,19.63021 -6.00372,23.36012 0,2.55991 -0.6632,4.43009 -2,5.63988 -1.38576,1.2541 -1.99585,3.06764 -1.98649,5.90499 0.007,2.25225 -0.87085,7.69501 -1.95172,12.09501 -1.08087,4.4 -2.90981,13.625 -4.0643,20.5 -3.08896,18.39481 -4.95516,25.17617 -7.08137,25.73219 -0.98467,0.25749 -2.26394,1.8268 -2.84281,3.48735 -0.80664,2.31392 -1.51351,2.89861 -3.02613,2.50305 -1.08551,-0.28387 -2.49529,0.11242 -3.13286,0.88064 -1.64377,1.98063 -8.83986,1.77413 -11.15392,-0.32006 -1.70006,-1.53853 -2.16295,-1.5645 -4.45714,-0.25 -1.9476,1.11591 -3.59319,4.21808 -6.8784,12.96683 -2.37508,6.325 -4.3423,12.50359 -4.3716,13.73021 -0.0293,1.2266 -1.14021,5.0516 -2.46869,8.5 -1.32849,3.4484 -2.89942,8.1084 -3.49096,10.3556 -1.58258,6.0121 -12.41302,16.2766 -17.28189,16.3787 -0.92856,0.0195 -3.17856,-1.3257 -5,-2.9893 z"
       id="path2998"
       style="fill:#000000" />
  </g>
</svg>
