<?xml version="1.0" encoding="UTF-8" standalone="no"?>
<!-- Generator: Adobe Illustrator 26.0.3, SVG Export Plug-In . SVG Version: 6.00 Build 0)  -->

<svg
   version="1.1"
   id="svg2"
   x="0px"
   y="0px"
   viewBox="0 0 261.8577 475.69221"
   xml:space="preserve"
   width="261.8577"
   height="475.6922"
   xmlns="http://www.w3.org/2000/svg"
   xmlns:svg="http://www.w3.org/2000/svg"><defs
   id="defs7" />
<g
   id="layer1"
   transform="translate(0.01320457,0.00215582)">
	<path
   id="path2998"
   d="m 14.69,472.69 c -3.24,-2.96 -3.31,-3.2 -3.31,-11.38 0,-7.34 0.4,-9.2 3.23,-15.23 4.57,-9.71 10.95,-26.41 13.7,-35.84 1.29,-4.42 4.25,-12.98 6.57,-19.03 2.33,-6.05 5.28,-15.05 6.57,-20 1.29,-4.95 3.23,-12.06 4.33,-15.81 1.1,-3.75 3.4,-13.87 5.12,-22.5 1.72,-8.63 4.16,-20.64 5.44,-26.69 1.27,-6.05 2.85,-13.7 3.51,-17 1.29,-6.48 2.07,-9.84 7.07,-30.5 4.31,-17.82 4.56,-19.83 2.58,-20.59 -0.87,-0.33 -4.41,0.38 -7.86,1.58 -23.28,8.14 -36.75,12.5 -46.77,15.15 -6.32,1.67 -12.3,3.75 -13.27,4.62 -1.69,1.51 -1.76,0.48 -1.5,-22.23 l 0.27,-23.81 2.7,-0.29 c 3.38,-0.36 14.54,-3.6 26.3,-7.62 4.95,-1.7 13.14,-4.21 18.2,-5.59 5.79,-1.58 9.43,-3.1 9.83,-4.11 1.63,-4.12 4.15,-22.73 3.3,-24.37 -0.56,-1.08 -0.49,-5.73 0.18,-12 0.6,-5.63 1.26,-16.76 1.47,-24.74 0.21,-7.98 0.61,-15.85 0.9,-17.5 1.91,-10.97 5.24,-25.04 7.35,-31 1.36,-3.85 2.77,-8.35 3.12,-10 0.81,-3.71 5.98,-11.5 7.64,-11.5 0.67,0 2.75,-1.56 4.62,-3.47 1.86,-1.91 4.52,-3.74 5.89,-4.06 1.37,-0.32 4.47,-2.36 6.89,-4.53 4.12,-3.71 5.89,-7.63 6.29,-13.94 0.05,-0.83 1.51,-3.3 3.24,-5.5 1.73,-2.2 4,-5.34 5.04,-6.98 1.04,-1.64 3.39,-4.39 5.21,-6.12 1.83,-1.72 3.32,-3.63 3.32,-4.24 0,-1.5 5.97,-6.83 10.12,-9.03 1.86,-0.99 4.73,-2.51 6.38,-3.39 5.84,-3.12 14.06,-4.22 21.7,-2.91 7.89,1.35 24.28,9.32 26.05,12.67 0.58,1.1 3.28,4.48 5.99,7.5 2.71,3.02 5.3,6.43 5.75,7.56 0.55,1.41 4.74,3.78 13.16,7.45 20.12,8.79 39.85,22.34 39.85,27.39 0,1.01 -3.51,-0.81 -7.7,-4.01 -5.81,-4.43 -16.16,-9.16 -24.05,-10.99 -5.62,-1.3 -8.25,-1.36 -17.41,-0.34 -9.47,1.05 -10.87,1.44 -11.44,3.26 -0.36,1.14 -2.98,4.39 -5.82,7.23 -7.84,7.84 -10.55,13.12 -7.65,14.91 0.51,0.32 1.44,3.16 2.06,6.31 0.62,3.15 1.58,7.2 2.14,9 1.36,4.38 1.93,13.86 1.86,30.66 -0.05,11.37 -0.4,14.71 -1.94,18.18 -1.53,3.45 -1.94,7.29 -2.22,20.46 -0.33,15.76 -0.28,16.23 1.79,16.99 2.76,1.02 19.78,-0.5 34.38,-3.07 6.33,-1.11 15.77,-2.71 21,-3.56 10.83,-1.74 14.6,-2.95 17.62,-5.64 1.17,-1.04 3.08,-1.96 4.25,-2.05 1.17,-0.09 2.13,-0.51 2.13,-0.95 0,-0.44 0.42,-0.79 0.93,-0.79 0.55,0 0.97,9.69 1.03,23.58 0.09,22.61 0.02,23.55 -1.78,22.98 -1.03,-0.33 -6.56,0.11 -12.28,0.98 -5.72,0.87 -11.08,1.6 -11.91,1.63 -0.83,0.03 -5.33,0.87 -10,1.87 -4.67,1 -15.48,2.33 -24,2.97 -8.52,0.64 -21.35,1.85 -28.5,2.7 -7.15,0.85 -16.85,1.83 -21.55,2.17 -5.35,0.39 -9.49,1.25 -11.07,2.28 -1.39,0.91 -5.07,4.98 -8.18,9.04 -5,6.52 -5.84,8.31 -7.23,15.34 -0.86,4.38 -2.28,9.62 -3.15,11.66 -0.87,2.04 -1.33,4.66 -1.02,5.84 0.6,2.28 -0.37,8.33 -3.49,21.9 -2.22,9.63 -4.27,15.07 -5.69,15.07 -0.54,0 -1.23,0.79 -1.54,1.76 -0.31,0.97 -1.54,2.2 -2.74,2.75 -1.24,0.56 -2.76,2.72 -3.51,4.99 -0.73,2.2 -1.78,4.9 -2.32,6 -1.99,4.01 -6,19.63 -6,23.36 0,2.56 -0.66,4.43 -2,5.64 -1.39,1.25 -2,3.07 -1.99,5.9 0.01,2.25 -0.87,7.7 -1.95,12.1 -1.08,4.4 -2.91,13.62 -4.06,20.5 -3.09,18.39 -4.96,25.18 -7.08,25.73 -0.98,0.26 -2.26,1.83 -2.84,3.49 -0.81,2.31 -1.51,2.9 -3.03,2.5 -1.09,-0.28 -2.5,0.11 -3.13,0.88 -1.64,1.98 -8.84,1.77 -11.15,-0.32 -1.7,-1.54 -2.16,-1.56 -4.46,-0.25 -1.95,1.12 -3.59,4.22 -6.88,12.97 -2.38,6.33 -4.34,12.5 -4.37,13.73 -0.03,1.23 -1.14,5.05 -2.47,8.5 -1.33,3.45 -2.9,8.11 -3.49,10.36 -1.58,6.01 -12.41,16.28 -17.28,16.38 -0.92,0.01 -3.17,-1.34 -4.99,-3 z" />
</g>
</svg>
