<?xml version="1.0" standalone="no"?>
<!DOCTYPE svg PUBLIC "-//W3C//DTD SVG 20010904//EN"
 "http://www.w3.org/TR/2001/REC-SVG-20010904/DTD/svg10.dtd">
<svg version="1.0" xmlns="http://www.w3.org/2000/svg"
 width="1536.000000pt" height="1402.000000pt" viewBox="0 0 1536.000000 1402.000000"
 preserveAspectRatio="xMidYMid meet">
<metadata>
Created by potrace 1.16, written by Peter Selinger 2001-2019
</metadata>
<g transform="translate(0.000000,1402.000000) scale(0.100000,-0.100000)"
fill="#000000" stroke="none">
<path d="M522 14007 c-7 -9 -16 -92 -22 -213 -14 -271 -59 -884 -70 -964 -12
-78 -18 -240 -30 -870 -8 -400 -7 -496 6 -605 8 -71 19 -238 24 -370 9 -246
18 -389 46 -720 8 -104 19 -248 24 -320 11 -165 25 -276 55 -440 13 -72 31
-213 40 -315 18 -208 42 -374 85 -595 16 -82 43 -220 59 -305 51 -266 130
-612 156 -685 13 -38 38 -128 55 -199 18 -71 49 -179 71 -240 22 -61 67 -189
100 -284 71 -206 115 -303 296 -652 220 -427 233 -452 250 -510 23 -79 161
-348 201 -392 19 -21 33 -40 31 -42 -2 -2 -38 -27 -81 -55 -82 -55 -163 -137
-202 -204 -14 -23 -37 -78 -51 -122 -24 -71 -27 -91 -23 -189 l3 -108 -60 5
c-33 4 -141 16 -240 28 -241 28 -383 23 -549 -20 -182 -48 -234 -76 -351 -195
-168 -169 -267 -340 -305 -527 -39 -187 -54 -566 -23 -576 7 -3 14 9 17 29 92
543 105 595 188 744 61 112 142 204 251 285 177 132 325 175 567 166 159 -6
266 -22 437 -63 120 -29 122 -31 123 -99 0 -16 11 -57 25 -89 29 -70 28 -72
-60 -171 -84 -95 -129 -159 -166 -239 -53 -114 -40 -216 27 -216 32 0 59 32
106 125 22 44 74 140 115 213 l75 132 67 -59 c113 -101 195 -192 261 -291 34
-52 80 -114 102 -136 l40 -42 -58 -17 c-72 -21 -263 -117 -364 -184 -86 -56
-191 -155 -216 -203 -12 -22 -18 -57 -18 -107 -1 -68 1 -75 25 -93 25 -19 28
-19 61 -4 18 9 108 80 198 157 278 237 340 279 420 279 34 0 50 -7 81 -34 48
-44 234 -136 274 -136 41 1 60 18 152 140 43 58 127 166 187 240 154 194 196
292 196 457 0 100 1 100 106 83 87 -14 126 -4 148 38 l13 25 45 -41 c56 -52
103 -72 167 -72 48 0 51 -2 70 -38 22 -43 46 -67 79 -77 14 -4 33 -28 53 -68
34 -69 94 -156 120 -175 10 -6 23 -28 29 -47 10 -29 9 -40 -3 -59 -13 -19 -33
-27 -114 -41 -172 -31 -262 -73 -342 -160 -53 -58 -79 -112 -90 -187 -5 -35
-16 -81 -26 -103 -9 -22 -25 -89 -35 -150 -11 -60 -37 -175 -59 -255 -104
-376 -202 -705 -241 -805 -23 -60 -56 -153 -74 -205 -19 -53 -40 -109 -48
-125 -9 -17 -21 -54 -27 -83 -16 -75 -28 -96 -126 -201 -89 -97 -138 -164
-194 -263 -25 -44 -44 -63 -86 -87 -60 -34 -147 -117 -170 -161 -9 -16 -28
-36 -43 -44 -31 -16 -60 -46 -44 -46 5 0 29 7 52 15 23 8 44 15 46 15 2 0 4
-24 4 -54 0 -30 4 -57 9 -60 11 -7 18 9 26 68 4 25 10 46 14 46 22 0 104 68
145 119 34 43 55 61 79 66 40 9 67 33 125 114 25 35 92 120 149 189 57 68 113
143 124 165 12 23 32 54 45 68 24 25 97 244 224 664 27 88 73 234 104 325 83
247 133 428 141 506 9 91 30 166 53 188 17 15 36 16 168 10 122 -5 165 -3 234
11 235 48 279 102 324 395 29 190 29 205 -4 348 -16 74 -28 138 -24 143 14 23
69 41 114 37 35 -4 65 -18 125 -58 156 -105 317 -160 472 -160 79 0 82 -1 103
-29 30 -43 49 -105 56 -180 6 -67 -8 -177 -26 -195 -5 -5 -22 3 -44 22 -60 53
-141 65 -211 33 -69 -31 -115 -104 -115 -182 0 -15 23 -71 50 -125 57 -112 84
-211 130 -466 17 -95 46 -245 65 -333 19 -88 39 -191 45 -230 6 -38 29 -152
51 -252 47 -214 61 -299 89 -528 21 -180 34 -239 70 -320 21 -49 21 -59 18
-345 -3 -260 -7 -310 -28 -418 -20 -104 -22 -133 -14 -193 l10 -70 -33 -39
c-54 -63 -35 -86 24 -28 l33 32 35 -37 c54 -55 90 -45 45 13 -11 14 -20 32
-20 41 0 8 20 94 44 190 63 249 90 519 67 668 -8 51 -8 78 -1 85 31 31 -2 240
-145 921 -24 116 -51 251 -60 300 -9 50 -43 214 -75 365 -58 271 -108 556 -99
565 3 2 27 -2 54 -10 65 -20 111 -19 184 4 111 34 159 88 172 191 4 30 21 108
38 174 35 134 37 176 15 282 -8 42 -13 78 -10 81 3 3 22 6 43 7 41 1 33 12
102 -134 23 -47 64 -110 91 -142 46 -52 61 -61 195 -118 112 -47 160 -62 213
-67 l67 -6 36 40 35 39 55 -34 c29 -18 92 -53 139 -77 47 -24 207 -127 355
-229 633 -434 964 -650 1160 -757 94 -50 202 -111 240 -134 119 -72 155 -87
188 -81 24 5 56 -9 181 -78 83 -46 170 -93 192 -104 23 -12 131 -75 240 -140
269 -161 291 -171 384 -182 49 -6 117 -24 181 -48 57 -22 112 -42 121 -45 12
-4 18 -19 20 -49 2 -35 7 -43 23 -43 13 0 25 12 35 33 15 31 16 31 38 16 13
-9 26 -13 30 -9 11 11 -41 98 -84 141 -46 47 -158 92 -296 120 -93 19 -122 32
-333 153 -82 47 -256 140 -385 206 -226 116 -235 122 -238 152 -2 17 -10 37
-18 44 -21 17 -398 234 -606 349 -95 52 -260 154 -367 225 -106 72 -277 181
-380 243 -324 197 -645 399 -686 432 -22 17 -89 62 -150 100 -160 100 -181
124 -175 200 2 30 38 120 55 138 21 23 51 -2 89 -76 66 -124 160 -220 362
-367 153 -113 264 -180 439 -265 168 -83 288 -128 495 -187 124 -36 127 -36
358 -41 240 -4 348 3 607 39 230 33 375 66 583 134 354 115 376 119 590 90
173 -23 525 -53 762 -65 118 -6 267 -15 330 -20 221 -18 599 -23 775 -11 176
13 440 53 630 97 112 26 167 37 491 99 269 51 792 206 1125 333 390 149 630
276 839 442 104 83 317 300 388 395 86 115 212 379 253 525 33 122 34 129 34
315 -1 181 -2 194 -29 280 -36 114 -72 167 -188 282 -128 126 -154 147 -383
298 -237 157 -301 190 -500 263 -343 124 -399 142 -526 172 -74 18 -195 49
-269 71 -233 66 -614 148 -792 170 -57 7 -164 9 -260 7 -138 -5 -195 -12 -368
-46 -113 -22 -257 -48 -320 -57 -160 -23 -324 -50 -535 -90 -99 -18 -211 -39
-250 -45 -38 -7 -151 -30 -250 -52 -99 -22 -225 -44 -280 -48 -55 -5 -129 -13
-165 -19 -36 -5 -182 -22 -325 -36 -143 -14 -357 -37 -475 -50 -281 -32 -515
-51 -780 -65 -237 -12 -583 -43 -730 -65 -52 -8 -176 -20 -275 -26 -99 -5
-214 -15 -255 -21 -47 -7 -454 -13 -1080 -18 -838 -6 -1030 -10 -1155 -24
-175 -19 -242 -30 -347 -57 -72 -18 -80 -18 -135 -3 -78 21 -385 31 -478 15
-200 -35 -314 -102 -432 -254 -180 -232 -259 -456 -233 -659 7 -49 9 -92 6
-95 -3 -3 -40 4 -83 15 -43 11 -94 23 -114 26 l-37 7 -3 112 c-4 100 -7 117
-31 158 -35 59 -91 109 -159 142 -57 28 -171 57 -228 57 -21 0 -46 10 -70 29
-92 72 -185 85 -277 38 -87 -44 -137 -114 -164 -232 l-16 -69 -64 -38 c-36
-20 -88 -57 -117 -82 -28 -26 -58 -46 -66 -46 -27 0 -96 81 -172 203 -42 66
-96 144 -120 171 -58 69 -107 147 -153 247 -21 46 -66 132 -100 191 -91 160
-252 533 -252 584 0 8 -13 40 -29 72 -37 75 -72 170 -117 317 -138 451 -167
553 -190 660 -15 66 -50 226 -80 355 -130 573 -145 671 -239 1545 -54 509 -64
624 -85 1020 -7 116 -16 269 -21 340 -6 72 -13 479 -15 905 -5 693 -4 819 15
1185 11 226 26 479 33 563 11 148 11 153 -9 180 -24 32 -45 38 -61 19z"/>
</g>
</svg>
