<?xml version="1.0" standalone="no"?>
<!DOCTYPE svg PUBLIC "-//W3C//DTD SVG 20010904//EN"
 "http://www.w3.org/TR/2001/REC-SVG-20010904/DTD/svg10.dtd">
<svg version="1.0" xmlns="http://www.w3.org/2000/svg"
 width="1536.000000pt" height="984.000000pt" viewBox="0 0 1536.000000 984.000000"
 preserveAspectRatio="xMidYMid meet">
<metadata>
Created by potrace 1.16, written by Peter Selinger 2001-2019
</metadata>
<g transform="translate(0.000000,984.000000) scale(0.100000,-0.100000)"
fill="#000000" stroke="none">
<path d="M5424 9793 c8 -21 24 -60 36 -86 12 -27 19 -51 16 -54 -3 -3 -26 2
-51 10 -70 24 -99 2 -70 -54 14 -26 14 -29 1 -29 -9 0 -32 14 -53 32 -36 31
-37 31 -13 4 17 -20 20 -27 9 -23 -10 3 -44 11 -77 17 -67 14 -102 3 -102 -30
0 -25 -15 -33 -38 -21 -11 6 -61 16 -111 22 -105 14 -123 8 -103 -36 8 -17 8
-25 1 -25 -23 0 -58 26 -136 103 -46 45 -83 77 -83 72 0 -5 30 -40 67 -77 l67
-68 -63 0 -63 0 -63 64 c-34 35 -71 78 -81 95 -10 17 -22 31 -27 31 -11 0 22
-46 105 -148 38 -46 66 -87 63 -92 -3 -5 -29 2 -58 14 -72 32 -104 38 -127 26
-26 -14 -25 -38 3 -68 l22 -24 -40 7 c-22 4 -62 13 -89 21 -100 28 -172 7
-121 -36 44 -37 -6 -40 -76 -4 -28 14 -48 21 -45 15 4 -6 -15 -11 -51 -13 -51
-3 -58 -6 -61 -25 -2 -13 5 -27 20 -37 22 -16 22 -16 1 -16 -24 0 -97 55 -158
120 -22 23 -49 46 -60 52 -11 6 14 -25 55 -68 l75 -79 -60 -3 c-80 -4 -103
-23 -69 -57 9 -9 14 -19 10 -22 -10 -10 -51 16 -129 80 l-72 60 53 -54 c28
-30 52 -58 52 -62 0 -4 -20 -7 -44 -7 -34 0 -48 -5 -59 -21 -13 -18 -19 -19
-53 -10 -50 14 -171 14 -179 0 -8 -12 23 -49 42 -49 7 0 13 -4 13 -10 0 -15
-45 -23 -92 -16 -100 14 -220 18 -230 8 -15 -15 7 -41 47 -58 l30 -13 -30 -1
c-58 0 -100 19 -150 70 -59 59 -83 67 -31 10 43 -47 44 -57 11 -70 -17 -7 -25
-17 -25 -34 0 -14 -5 -28 -11 -31 -11 -8 -74 33 -109 70 -13 14 -28 25 -34 25
-5 0 7 -17 27 -38 l38 -39 -78 5 c-61 3 -81 1 -91 -10 -10 -12 -8 -21 10 -44
21 -26 21 -27 3 -20 -75 31 -153 33 -188 6 -37 -29 -51 -25 -97 28 l-42 47 29
-45 c16 -25 33 -50 36 -57 7 -11 -17 -18 -130 -37 -30 -5 -40 2 -120 76 -86
80 -87 80 -23 14 l65 -69 -35 8 c-86 17 -106 17 -119 1 -11 -13 -9 -19 15 -41
24 -23 25 -25 7 -25 -22 0 -86 43 -118 79 -11 13 -29 28 -40 34 -11 6 -3 -9
20 -34 l40 -44 -30 -3 c-17 -2 -36 -9 -43 -14 -10 -8 -21 -3 -45 20 -39 38
-56 42 -33 7 16 -24 16 -24 -12 -19 -40 8 -60 -17 -42 -51 26 -48 1 -36 -64
30 -65 66 -76 72 -56 34 10 -17 7 -20 -20 -25 -17 -4 -33 -11 -36 -15 -9 -15
-51 -10 -65 8 -12 14 -12 15 -1 9 25 -15 -3 26 -43 64 -25 23 -34 28 -27 14 6
-11 18 -26 26 -34 22 -18 20 -28 -6 -32 -15 -2 -24 -11 -26 -25 -2 -13 -9 -23
-15 -23 -20 0 -112 81 -162 143 -26 31 -49 57 -52 57 -6 0 12 -31 41 -69 29
-39 33 -61 12 -61 -7 0 -19 -7 -26 -15 -12 -14 -17 -12 -46 16 -37 36 -68 94
-59 109 3 6 -3 10 -14 10 -23 0 -36 35 -29 75 4 21 3 23 -9 13 -21 -17 -35 8
-29 54 2 24 -1 38 -9 42 -15 5 -45 88 -45 123 0 13 -9 32 -20 43 -11 11 -20
27 -20 35 0 14 -66 52 -75 43 -3 -2 11 -36 30 -74 31 -61 33 -70 18 -75 -15
-5 -13 -8 10 -24 30 -19 35 -42 11 -52 -13 -5 -12 -8 5 -25 25 -23 25 -22 5
-43 -15 -14 -14 -18 10 -42 26 -26 31 -60 8 -56 -18 4 -14 -12 8 -32 11 -10
20 -28 20 -40 0 -14 7 -25 18 -27 19 -5 69 -94 58 -105 -10 -10 -51 24 -236
197 -183 170 -264 235 -282 224 -5 -3 24 -40 64 -83 110 -112 338 -407 271
-348 -27 23 -53 22 -53 -3 0 -36 -28 -21 -91 50 -35 38 -65 68 -67 65 -3 -2 9
-20 27 -40 47 -54 41 -73 -13 -34 -25 17 -57 44 -72 60 -15 16 -33 29 -38 29
-6 -1 3 -12 19 -25 36 -30 37 -30 -67 -6 -150 35 -569 56 -608 31 -13 -9 -13
-10 0 -10 63 -2 172 -25 262 -55 59 -19 122 -35 140 -34 25 1 17 5 -32 15 -91
20 -103 38 -20 29 101 -10 190 -26 195 -35 3 -5 -9 -12 -27 -16 l-33 -7 48
-12 c62 -16 90 -40 35 -30 -27 5 -38 4 -38 -5 0 -9 -11 -11 -35 -7 -19 3 -35
2 -35 -4 0 -5 6 -9 13 -9 6 0 -10 -11 -36 -24 -54 -27 -97 -63 -97 -82 0 -9
10 -7 35 7 46 27 104 40 126 29 12 -7 19 -5 23 5 7 19 35 19 42 0 4 -8 11 -12
16 -9 18 11 80 23 93 18 7 -3 -11 -28 -47 -62 -58 -55 -98 -112 -80 -112 5 0
21 17 34 38 39 58 89 102 144 128 48 23 84 24 84 3 0 -14 -74 -112 -133 -177
-52 -58 -120 -188 -132 -254 -4 -21 -5 -38 -1 -38 3 0 26 31 51 69 25 38 77
100 115 138 231 228 237 233 269 233 17 0 31 -2 31 -5 0 -18 -33 -65 -45 -65
-9 0 -15 -9 -15 -23 0 -13 -13 -44 -29 -69 -18 -28 -27 -54 -24 -66 3 -13 -2
-24 -14 -31 -11 -5 -25 -29 -32 -53 -7 -24 -29 -72 -48 -108 -32 -59 -90 -256
-79 -267 3 -3 21 26 41 63 72 138 82 153 94 141 8 -8 11 -2 11 24 0 22 7 41
20 52 11 9 20 25 20 35 0 11 9 27 20 37 11 10 20 26 20 35 0 10 6 23 14 29 8
7 24 32 35 57 12 24 28 44 37 44 8 0 24 20 35 45 19 44 38 52 40 17 1 -20 4
-12 18 44 8 28 19 44 36 52 27 12 227 17 238 6 4 -4 -2 -19 -12 -33 -39 -56
-59 -110 -75 -206 -11 -66 -25 -114 -43 -145 -17 -28 -20 -40 -10 -31 25 20
32 -8 13 -53 -8 -20 -11 -34 -6 -31 22 14 17 -16 -11 -61 -17 -27 -25 -43 -17
-36 17 14 28 6 28 -20 0 -11 -11 -23 -27 -30 -22 -9 -24 -12 -11 -15 22 -5 24
-31 3 -39 -8 -4 -15 -17 -15 -30 0 -14 -12 -52 -26 -86 -14 -34 -28 -87 -30
-117 l-4 -56 21 48 c15 32 28 47 40 47 15 0 19 7 19 35 0 46 19 85 42 85 15 0
18 5 13 20 -3 10 3 49 15 87 11 37 29 122 40 189 22 135 56 241 124 385 l46
96 46 7 c26 3 160 6 298 6 138 0 269 5 291 10 22 5 126 21 230 35 183 25 227
33 490 90 201 44 1003 200 1285 250 290 51 429 78 650 124 80 16 231 41 335
55 618 82 859 80 1210 -9 374 -95 617 -260 907 -616 l87 -105 -6 -115 c-4 -93
-1 -131 16 -208 34 -153 36 -205 12 -301 -37 -147 -89 -315 -98 -315 -4 0 -67
6 -138 14 l-130 13 -120 -40 c-134 -45 -200 -60 -325 -71 l-85 -8 113 -2 c61
0 112 -5 112 -9 0 -4 -16 -24 -36 -43 -19 -18 -53 -57 -76 -86 -22 -29 -49
-55 -59 -58 -14 -5 -18 -12 -14 -25 8 -25 -18 -73 -52 -99 -22 -16 -24 -20
-10 -21 9 0 17 -3 17 -6 0 -18 -40 -68 -72 -91 -44 -30 -44 -42 1 -19 30 16
49 8 36 -14 -19 -30 -233 -212 -255 -217 -14 -2 -37 -14 -50 -24 l-25 -20 25
6 c37 10 119 66 190 129 84 75 93 74 65 -5 -9 -24 -35 -64 -58 -88 l-42 -44
44 32 c24 17 46 29 49 27 2 -3 -10 -46 -27 -96 -31 -90 -54 -241 -32 -210 6 8
11 29 11 45 1 51 27 147 59 215 l31 65 -4 -115 c-5 -134 8 -108 23 49 6 66 15
109 25 120 9 9 34 57 56 106 77 165 116 202 258 241 60 17 92 15 92 -6 0 -17
-62 -50 -95 -50 -44 -1 -115 -35 -115 -56 0 -16 1 -16 13 -2 23 29 128 51 141
29 3 -4 -6 -18 -19 -31 -13 -13 -23 -26 -20 -30 2 -3 -28 -12 -68 -18 -77 -13
-122 -32 -78 -32 l25 0 -27 -28 c-42 -44 -32 -45 36 -2 72 46 102 52 93 17 -3
-14 2 -35 14 -55 20 -32 20 -32 1 -23 -15 9 -22 6 -34 -13 -9 -13 -46 -59 -83
-102 -37 -44 -83 -104 -103 -134 -43 -68 -93 -185 -89 -208 2 -9 19 21 37 68
49 126 62 147 146 243 84 96 112 117 126 96 5 -9 3 -17 -7 -22 -8 -4 -31 -41
-50 -80 -20 -40 -50 -92 -67 -116 -32 -47 -100 -204 -112 -261 -11 -54 -1 -35
48 87 44 112 101 213 118 213 12 0 13 4 -16 -106 -14 -53 -25 -117 -24 -143 1
-42 2 -38 15 32 32 177 171 536 246 636 83 111 215 221 264 221 42 0 46 -20
25 -123 l-19 -95 -69 -68 c-51 -51 -82 -93 -116 -159 -25 -49 -69 -126 -97
-170 -28 -44 -64 -116 -81 -160 -48 -130 -61 -156 -92 -184 -101 -94 -270
-450 -292 -616 -8 -67 9 -39 25 40 14 71 71 226 113 310 60 120 172 275 199
275 23 0 -2 -95 -56 -206 -37 -78 -50 -111 -36 -99 19 18 20 18 20 -1 0 -10
-7 -57 -15 -104 -17 -93 -31 -385 -15 -315 5 22 9 68 9 102 2 169 108 613 146
613 21 0 71 78 127 198 27 59 60 126 71 150 22 44 86 126 93 119 5 -5 -34
-244 -48 -289 -6 -21 -19 -40 -29 -43 -26 -9 -119 -83 -119 -96 0 -6 18 4 41
23 82 67 112 70 112 12 0 -19 -10 -34 -29 -48 -49 -34 -164 -148 -198 -196
-33 -45 -61 -110 -48 -110 4 0 18 23 31 51 28 63 205 249 220 234 18 -18 0
-52 -52 -98 -50 -42 -126 -152 -114 -163 3 -3 25 25 49 63 51 78 71 98 93 90
28 -11 29 -54 1 -110 -33 -68 -97 -135 -170 -176 -31 -18 -55 -35 -53 -38 6
-6 90 37 140 71 20 14 37 21 37 15 0 -5 -14 -37 -31 -70 -41 -81 -30 -86 14
-7 19 35 49 81 66 102 38 48 32 60 -10 20 l-30 -29 17 40 c9 22 21 49 26 59
10 19 11 19 24 1 22 -29 17 -96 -16 -218 -45 -170 -63 -296 -64 -452 0 -165
14 -254 62 -390 l35 -100 -18 -147 c-20 -160 -17 -263 10 -338 23 -66 42 -161
55 -285 7 -67 23 -145 41 -200 17 -49 38 -141 49 -202 26 -157 46 -223 97
-333 25 -52 52 -117 60 -145 8 -27 30 -80 49 -117 19 -37 34 -75 34 -85 0 -9
-19 -44 -41 -76 -75 -107 -99 -207 -59 -247 42 -42 173 -20 276 46 l51 32 7
-59 c3 -34 19 -88 37 -126 39 -83 53 -214 46 -418 -4 -123 -8 -151 -35 -228
-36 -106 -68 -156 -202 -312 -261 -307 -386 -512 -456 -754 -39 -134 -29 -149
19 -29 69 170 187 359 332 532 67 81 153 176 159 176 2 0 -3 -37 -10 -83 -41
-256 -141 -595 -269 -908 -59 -144 -115 -312 -115 -345 0 -37 20 -6 43 64 14
43 66 164 115 268 75 160 142 314 192 448 6 16 12 27 14 25 11 -11 -59 -401
-100 -557 -28 -108 -44 -282 -25 -282 6 0 11 1 11 3 8 105 25 195 58 293 22
65 52 173 66 239 51 232 67 297 120 483 30 103 59 214 66 245 16 81 36 70 32
-18 -3 -70 -25 -195 -90 -510 -22 -104 -52 -260 -67 -345 -34 -197 -89 -409
-159 -623 -31 -92 -56 -180 -56 -195 1 -26 1 -26 21 10 34 66 206 598 243 753
89 374 147 604 165 655 l20 55 1 -65 c1 -36 5 -76 9 -90 6 -20 9 -15 15 30 29
231 35 513 11 580 -20 58 -18 95 8 159 42 103 82 90 115 -37 35 -133 35 -140
-2 -369 -39 -241 -55 -404 -38 -388 6 6 29 78 52 160 47 169 59 198 60 145 1
-85 21 -424 31 -510 12 -102 36 -218 123 -593 31 -131 56 -240 56 -243 0 -2 5
-4 11 -4 13 0 13 2 -52 360 -55 306 -72 511 -67 805 l3 160 22 -68 c23 -68 39
-154 68 -362 8 -60 33 -184 55 -275 22 -91 56 -267 75 -392 39 -247 60 -332
100 -390 49 -73 57 -36 10 47 -35 60 -43 102 -66 320 -24 242 -42 365 -69 476
-63 264 26 96 207 -391 72 -192 159 -373 198 -410 41 -39 40 -15 -3 57 -56 92
-78 148 -192 488 -54 160 -121 356 -149 436 -31 90 -63 208 -81 305 -17 87
-40 199 -50 249 -10 49 -17 91 -15 94 10 9 96 -145 209 -374 112 -227 160
-333 256 -568 18 -43 34 -76 37 -73 2 2 -7 47 -21 98 -78 295 -333 874 -486
1108 -74 112 -142 244 -164 319 -32 109 -14 340 40 513 13 42 32 86 42 98 15
19 21 20 44 10 36 -17 90 -5 119 26 20 21 24 38 27 100 5 83 -7 141 -45 226
l-25 56 36 74 c20 40 43 102 52 138 10 40 31 87 55 122 46 67 72 137 94 251 8
45 31 152 50 237 19 85 42 225 51 310 9 85 23 178 31 205 32 114 38 189 24
328 -26 261 -26 246 -3 270 31 33 41 92 52 322 6 116 13 261 16 323 3 61 9
112 13 112 3 0 14 -23 24 -51 10 -28 21 -49 23 -46 8 8 -46 166 -59 174 -8 5
-17 53 -25 129 -6 67 -21 150 -32 185 -11 35 -20 69 -20 74 0 16 76 -101 142
-218 33 -59 62 -106 65 -103 3 2 -25 61 -62 131 -37 69 -65 129 -61 132 9 10
85 -45 137 -100 27 -28 49 -47 49 -41 0 26 -201 193 -251 209 -19 6 -21 13
-17 66 2 32 8 62 12 66 7 8 33 -17 129 -127 26 -30 44 -46 38 -35 -5 11 -40
56 -78 100 -38 44 -75 90 -82 103 -11 21 -8 71 6 95 7 13 181 -195 206 -248
33 -68 67 -218 67 -297 0 -87 -32 -260 -76 -409 -20 -68 -45 -155 -56 -194
-20 -74 -36 -281 -20 -255 5 8 12 58 15 110 4 58 17 130 33 185 15 50 38 126
51 170 13 44 37 147 54 230 35 170 44 194 55 151 21 -84 -34 -558 -92 -791 -8
-33 -17 -69 -20 -80 -3 -15 -1 -14 9 5 35 61 101 432 118 660 6 80 13 156 17
170 11 49 20 -60 22 -260 2 -153 4 -185 12 -150 12 58 3 310 -17 470 -42 324
-87 433 -292 697 -79 101 -97 142 -88 200 l6 43 100 -81 c113 -93 123 -105
183 -226 24 -48 62 -112 84 -142 50 -66 50 -59 58 -486 3 -181 9 -370 13 -420
4 -49 6 110 4 355 l-3 445 36 -75 c20 -41 45 -118 56 -170 21 -98 21 -216 3
-710 -3 -74 -3 -130 0 -125 9 20 35 450 35 584 0 177 -19 285 -76 428 -53 135
-60 164 -45 192 17 32 34 26 102 -34 35 -30 66 -52 69 -49 3 4 -17 25 -45 48
-99 82 -115 101 -115 139 0 20 -4 47 -9 61 -8 19 -6 30 10 50 l20 26 -24 0
c-36 0 -80 55 -75 92 3 16 0 28 -6 27 -6 -1 -17 -1 -24 0 -14 1 -122 99 -122
111 0 11 144 -29 170 -48 14 -10 57 -69 95 -129 39 -61 89 -133 112 -160 23
-27 48 -67 57 -88 37 -89 62 -272 96 -695 8 -110 8 -109 4 45 -6 195 -19 354
-40 498 -8 60 -13 111 -10 114 17 17 106 -236 157 -447 23 -90 47 -176 55
-190 l15 -25 -5 25 c-45 197 -106 418 -142 509 -25 63 -43 118 -41 124 1 5 19
-15 38 -45 20 -29 73 -100 118 -157 113 -141 153 -206 197 -316 40 -101 58
-121 29 -33 -29 89 -73 175 -132 251 -30 39 -106 140 -168 222 -62 83 -122
159 -134 169 -11 11 -21 23 -21 28 0 15 50 8 91 -13 22 -11 46 -18 52 -16 7 2
-13 16 -43 32 -88 44 -110 63 -110 94 0 15 -11 55 -25 89 -14 34 -25 64 -25
67 0 3 26 5 58 6 l57 1 -43 9 c-58 11 -117 40 -117 58 0 7 27 23 62 36 64 23
118 53 110 61 -2 3 -28 -8 -57 -23 -33 -17 -73 -28 -111 -31 -70 -5 -77 8 -20
37 39 21 91 74 91 94 0 6 -14 -5 -31 -25 -37 -46 -82 -60 -169 -56 l-65 3 -5
45 -5 45 -20 -33 c-16 -27 -24 -32 -45 -27 -61 16 -110 65 -64 65 19 0 162 59
169 70 2 4 -39 -8 -93 -27 -70 -24 -109 -33 -142 -30 -61 5 -202 44 -218 60
-7 8 -49 135 -93 282 -91 306 -99 361 -99 681 l0 182 58 104 c76 136 110 185
185 265 81 86 257 237 304 261 59 30 172 69 372 127 l183 54 232 -45 c298 -59
499 -105 936 -214 195 -49 423 -103 505 -120 83 -17 267 -58 410 -91 452 -104
570 -127 815 -154 185 -21 337 -51 630 -126 129 -33 291 -69 360 -80 103 -16
368 -71 467 -95 13 -4 36 -24 50 -45 29 -44 39 -46 23 -4 -15 41 -3 44 14 4
21 -50 44 -170 55 -289 19 -203 -28 -485 -127 -750 -13 -34 27 12 48 56 12 24
28 44 34 44 8 0 16 20 19 52 8 66 21 79 40 42 15 -28 15 -27 10 32 -4 45 3
104 27 230 18 93 36 173 40 177 4 4 19 -8 34 -28 15 -19 32 -35 37 -35 6 0 -8
22 -31 49 -30 36 -43 61 -47 93 l-6 43 42 -40 c22 -21 41 -34 41 -29 0 6 -12
21 -26 35 -35 33 -54 71 -54 111 l0 32 47 -44 c49 -47 49 -45 -10 33 -34 45
-57 110 -43 124 4 4 27 -13 51 -37 65 -64 55 -39 -12 32 -55 57 -57 60 -38 74
26 19 115 18 143 -2 44 -31 100 -178 103 -274 1 -32 2 -33 9 -10 7 24 8 24 16
5 4 -11 8 -50 8 -87 1 -57 3 -63 13 -45 11 22 12 22 24 -8 6 -16 14 -54 17
-83 3 -40 8 -52 20 -50 9 2 31 -18 51 -47 51 -71 113 -133 118 -117 3 6 -7 26
-21 43 -14 17 -26 39 -26 49 0 9 -7 23 -15 30 -8 7 -15 23 -15 36 0 13 -6 27
-14 31 -17 10 -36 46 -36 69 0 12 6 15 21 11 17 -5 14 1 -14 26 -20 19 -40 50
-46 72 -22 78 -10 105 31 68 11 -10 18 -12 18 -4 0 6 -15 21 -34 32 -59 35
-61 75 -1 44 46 -26 55 -13 11 15 -43 26 -76 66 -76 91 0 25 15 24 52 -3 20
-14 29 -17 26 -7 -2 8 -22 24 -43 35 -39 22 -80 75 -73 95 5 16 99 -51 125
-90 13 -19 23 -48 24 -65 0 -30 1 -30 11 -8 6 12 15 22 19 22 15 0 39 -45 39
-73 0 -22 4 -28 16 -23 8 3 24 1 34 -4 22 -12 43 -70 34 -93 -7 -18 11 -24 21
-7 11 18 25 0 25 -33 1 -30 2 -31 15 -13 13 18 18 15 83 -45 77 -71 162 -126
144 -93 -6 11 -40 48 -76 84 -36 35 -66 70 -66 76 0 7 12 17 28 22 l27 10 -33
1 c-44 1 -72 17 -72 41 0 10 -11 27 -25 38 l-25 20 23 15 22 16 -25 0 c-57 2
-95 66 -52 90 14 8 10 10 -20 11 -27 0 -41 6 -53 22 -14 20 -14 24 0 34 18 13
9 24 -20 24 -12 0 -30 7 -41 16 -18 15 -18 15 0 10 16 -6 17 -4 6 9 -7 8 -21
15 -31 15 -25 0 -24 17 2 31 28 14 84 3 108 -22 16 -17 19 -18 24 -5 9 23 34
19 63 -9 20 -20 24 -21 22 -7 -4 24 43 19 84 -9 21 -16 33 -19 36 -11 6 18 22
15 58 -13 38 -29 46 -31 38 -10 -7 18 9 19 37 4 12 -6 47 -12 80 -14 72 -3 75
13 6 35 -25 8 -52 21 -59 28 -6 6 -24 12 -38 12 -34 0 -139 36 -159 54 -9 8
-32 16 -51 18 l-35 4 30 13 c16 7 77 21 135 32 l105 19 -80 -5 c-44 -2 -114
-13 -155 -23 l-74 -19 30 26 c16 14 43 36 59 49 25 19 26 21 5 11 -14 -7 -42
-23 -63 -37 -44 -30 -60 -22 -27 13 13 14 21 27 18 30 -8 8 -48 -44 -48 -61 0
-19 -41 -27 -74 -15 -15 6 -41 11 -57 11 -16 0 -29 3 -29 6 0 45 206 198 430
319 69 37 127 69 129 71 15 14 -15 10 -84 -11 -44 -14 -92 -25 -107 -25 -15 0
-43 -11 -63 -24 -36 -25 -140 -54 -151 -43 -3 3 2 18 12 34 14 22 7 18 -29
-16 -50 -48 -72 -48 -45 0 9 16 15 29 13 29 -3 0 -27 -22 -53 -50 -27 -27 -56
-50 -66 -50 -18 0 -18 1 -1 28 l18 27 -24 -20 c-13 -11 -39 -33 -56 -49 -18
-16 -35 -27 -39 -24 -3 3 5 26 17 49 18 36 19 41 5 29 -10 -7 -27 -33 -37 -56
-11 -23 -30 -51 -43 -63 l-23 -22 4 28 c4 23 -1 19 -25 -22 -28 -47 -92 -118
-92 -102 0 4 14 32 31 62 41 72 29 71 -17 -2 -60 -95 -70 -103 -131 -103 l-54
0 26 35 c48 62 19 66 -109 13 -66 -27 -116 -36 -116 -21 0 4 14 22 32 40 l32
33 -37 0 c-20 0 -66 -11 -103 -25 -36 -14 -70 -25 -75 -25 -18 0 -8 16 21 33
63 38 18 70 -59 42 -24 -8 -47 -13 -50 -9 -9 9 27 33 103 67 38 17 64 33 59
34 -6 2 -61 -19 -123 -48 -113 -52 -129 -55 -188 -43 -23 4 -46 1 -72 -11
-111 -50 -36 42 84 102 39 20 65 38 59 40 -19 7 -111 -49 -177 -107 -70 -61
-110 -68 -74 -11 17 28 3 54 -27 49 -40 -8 -30 18 20 52 25 17 45 33 45 35 0
15 -26 -2 -90 -60 -71 -64 -108 -84 -129 -70 -14 8 -14 35 0 35 6 0 9 12 7 28
-3 23 -7 27 -35 27 -18 0 -33 5 -33 10 0 19 57 102 81 118 12 9 20 20 16 23
-9 9 -76 -62 -105 -112 -13 -21 -37 -50 -53 -62 l-29 -24 -16 37 c-15 36 -17
37 -55 32 -23 -3 -39 -1 -39 5 0 21 45 72 88 99 36 23 41 29 24 29 -26 0 -109
-79 -135 -129 -14 -28 -20 -31 -32 -21 -8 7 -15 28 -15 47 0 34 0 34 -37 27
-21 -4 -48 -11 -61 -15 -48 -18 -56 -11 -30 24 14 17 42 57 62 87 l38 55 -39
-45 c-115 -135 -143 -153 -143 -93 0 24 -2 25 -40 19 -22 -3 -40 -4 -40 0 0 3
21 33 47 67 l48 62 -77 -77 c-42 -43 -84 -78 -92 -78 -19 0 -20 4 -4 29 18 30
3 51 -37 51 -19 0 -35 3 -35 7 0 4 24 32 53 62 28 30 43 49 32 41 -11 -7 -55
-50 -97 -94 -42 -44 -80 -77 -84 -73 -4 4 0 15 9 25 34 38 14 61 -52 62 -20 0
-22 3 -13 12 26 26 10 30 -16 5 -34 -32 -43 -33 -60 -7 -9 15 -19 18 -42 14
-37 -8 -38 5 -4 46 15 17 24 33 21 36 -6 6 -61 -64 -70 -88 -5 -14 -18 -18
-53 -18 l-47 0 21 23 c12 13 22 31 22 40 0 28 -41 25 -120 -8 -33 -14 -66 -21
-82 -18 l-28 5 25 30 c29 34 30 41 10 58 -20 16 -62 5 -115 -30 -59 -39 -72
-39 -68 3 l3 32 -48 -3 c-62 -4 -61 16 5 101 16 20 26 37 21 37 -15 0 -49 -41
-83 -102 -17 -32 -37 -58 -44 -58 -18 0 -36 21 -36 42 0 36 -71 50 -121 24
-26 -13 -26 -13 -15 15 8 23 7 32 -5 44 -13 13 -22 13 -77 -6 -67 -23 -92 -20
-92 9 0 41 -40 53 -91 26 -50 -25 -55 -11 -14 37 22 24 46 53 55 63 14 18 14
18 -5 8 -11 -5 -40 -33 -64 -62 -31 -37 -49 -50 -65 -48 -21 3 -23 13 -11 55
11 34 -16 39 -93 16 -72 -22 -102 -17 -102 17 0 22 -37 35 -74 26 -36 -9 -38
4 -5 45 17 22 26 39 20 39 -6 0 -27 -22 -47 -50 -40 -55 -51 -61 -56 -27 -3
20 -9 22 -65 25 -35 2 -63 6 -63 9 0 4 12 20 28 37 l27 29 -40 -31 c-59 -46
-91 -46 -106 -3 -10 29 -12 30 -60 24 -36 -4 -49 -2 -49 7 0 14 86 101 135
137 17 12 25 22 18 22 -19 1 -114 -80 -152 -129 -40 -53 -55 -56 -59 -12 -4
38 -8 39 -116 16 l-75 -15 -46 26 c-43 26 -51 27 -123 20 -63 -5 -75 -4 -64 6
6 7 12 26 12 41 0 23 -4 28 -25 28 -35 0 -90 -24 -127 -55 -17 -14 -33 -23
-36 -21 -5 6 -5 7 87 121 l64 80 -54 -56 c-30 -31 -76 -80 -103 -110 -56 -63
-71 -53 -26 17 18 29 26 52 21 57 -15 15 -73 -1 -124 -33 l-47 -30 16 33 c9
17 35 59 57 92 29 43 33 54 16 38 -14 -13 -54 -70 -88 -128 -56 -92 -68 -106
-100 -115 -60 -16 -64 -14 -58 27 11 65 -29 84 -77 35 -14 -16 -31 -45 -37
-65 -6 -24 -21 -43 -43 -56 -43 -27 -65 -28 -43 -3 10 10 17 29 17 42 0 23 0
23 15 4 13 -17 14 -16 8 21 -3 22 -9 56 -13 75 l-8 35 -1 -35 c-1 -46 -20 -72
-75 -104 -26 -15 -56 -44 -70 -68 -21 -35 -26 -39 -32 -24 -8 21 8 79 47 165
16 35 28 66 25 68 -7 8 -75 -134 -86 -182 -19 -80 -29 -100 -60 -119 l-30 -17
0 34 c0 40 -20 61 -48 52 -19 -5 -53 -70 -67 -128 -14 -54 -27 -43 -59 47 -3
10 -9 16 -13 13 -3 -4 2 -30 11 -58 16 -47 16 -53 2 -68 -14 -13 -21 -13 -52
-2 -32 12 -38 11 -46 -3 -13 -22 -38 -20 -38 3 0 11 -5 23 -12 27 -8 5 -9 0
-4 -17 14 -50 18 -127 8 -145 -10 -17 -11 -16 -12 9 0 54 -69 18 -71 -38 0
-18 -2 -17 -11 5 -7 15 -11 105 -12 235 0 208 0 211 32 315 33 110 37 130 24
130 -4 0 -23 -60 -41 -132 -43 -171 -49 -283 -26 -531 l16 -187 -42 -52 -43
-51 -19 47 c-13 29 -26 46 -37 46 -20 0 -40 -39 -40 -78 0 -54 -15 -56 -56 -6
-21 26 -44 57 -51 68 -10 17 -12 18 -13 4 0 -9 34 -54 76 -99 58 -62 73 -84
64 -92 -9 -9 -21 -1 -51 33 -32 37 -40 42 -49 30 -15 -23 -12 -46 16 -111 36
-86 30 -99 -27 -55 -61 48 -100 56 -122 23 -15 -23 -20 -24 -86 -19 -65 4 -73
3 -105 -22 -41 -31 -60 -32 -103 -7 -25 16 -33 30 -42 71 -14 64 -14 91 0 127
10 27 9 27 -29 -10 -21 -20 -41 -34 -45 -31 -16 16 -5 46 29 84 46 50 40 63
-6 15 -58 -60 -81 -39 -34 30 17 26 20 36 10 32 -19 -7 -31 13 -41 66 -15 79
-55 81 -75 5 -13 -47 -31 -45 -43 5 -7 27 -3 66 11 140 35 174 61 419 43 402
-6 -6 -15 -74 -21 -150 -10 -144 -38 -280 -57 -280 -6 0 -26 20 -45 45 -38 50
-61 59 -87 36 -10 -9 -20 -14 -22 -11 -5 4 4 122 16 198 9 62 -10 25 -25 -48
-19 -94 -19 -94 -46 -43 -24 48 -70 92 -85 82 -13 -7 -26 29 -44 115 -8 41
-19 79 -24 84 -8 8 -4 -19 24 -167 l5 -29 -45 42 c-35 32 -52 41 -80 41 -41 0
-42 7 -21 88 8 28 10 52 5 52 -5 0 -14 -20 -20 -45 l-11 -45 -29 21 c-44 31
-64 22 -62 -29 1 -23 -1 -42 -5 -42 -23 0 -53 37 -66 83 -15 52 -111 257 -120
257 -7 0 5 -31 48 -120 44 -91 47 -114 9 -78 -30 29 -72 48 -104 48 -26 0 -24
-15 6 -54 32 -42 33 -61 4 -46 -25 14 -49 68 -49 109 0 16 -4 33 -10 36 -6 3
-10 -5 -10 -19 0 -34 -11 -38 -46 -15 -16 10 -39 19 -51 19 -20 0 -23 -5 -23
-37 l-1 -38 -19 23 c-10 12 -40 61 -65 107 -25 47 -48 85 -50 85 -6 0 10 -41
35 -90 11 -22 18 -40 14 -40 -31 0 -122 38 -150 62 -19 17 -34 26 -34 21 0 -6
9 -18 21 -29 40 -36 59 -94 30 -94 -4 0 -19 10 -32 21 -13 12 -55 37 -94 56
-70 33 -70 33 -87 13 -9 -11 -18 -26 -20 -32 -3 -9 -20 -5 -57 11 -57 24 -101
22 -101 -6 0 -9 8 -22 18 -29 15 -12 10 -13 -38 -14 -62 0 -79 9 -169 88 -34
30 -61 49 -61 44 0 -6 30 -37 67 -70 l66 -60 -70 5 c-46 4 -73 2 -77 -6 -15
-23 -27 -8 -75 94 -50 105 -72 138 -47 68z m602 -161 c-4 -3 -14 2 -24 12 -16
18 -16 18 6 6 13 -6 21 -14 18 -18z m1114 -368 c0 -17 -22 -14 -28 4 -2 7 3
12 12 12 9 0 16 -7 16 -16z m-5782 -343 c3 -8 -1 -12 -9 -9 -7 2 -15 10 -17
17 -3 8 1 12 9 9 7 -2 15 -10 17 -17z m13248 -176 c-3 -9 -11 -13 -16 -10 -8
5 -7 11 1 21 14 18 24 11 15 -11z m-36 -45 c0 -11 -48 -25 -56 -17 -4 3 -3 10
1 16 8 14 55 14 55 1z m-60 -55 c0 -9 -9 -15 -25 -15 -26 0 -34 15 -12 23 23
10 37 7 37 -8z m-7551 -1171 c7 -6 -29 -53 -49 -64 -36 -19 -240 -67 -240 -56
0 5 29 39 65 73 l65 64 77 -7 c43 -4 80 -8 82 -10z m2539 -686 c7 -7 12 -18
12 -26 0 -12 -3 -12 -15 -2 -8 6 -19 9 -25 5 -11 -7 -14 17 -3 28 9 10 17 9
31 -5z"/>
<path d="M6080 9813 c0 -11 10 -28 21 -39 l22 -19 -18 35 c-23 45 -25 47 -25
23z"/>
<path d="M5890 9802 c0 -4 16 -32 35 -62 42 -67 46 -55 5 18 -29 49 -40 62
-40 44z"/>
<path d="M5110 9793 c1 -10 29 -43 60 -68 13 -11 6 1 -15 28 -40 48 -45 53
-45 40z"/>
<path d="M4910 9753 c0 -7 28 -41 61 -75 34 -35 44 -43 23 -18 -22 25 -49 59
-61 75 -12 17 -23 24 -23 18z"/>
<path d="M9927 9644 c-32 -20 -56 -38 -53 -41 6 -6 116 59 116 69 0 11 0 11
-63 -28z"/>
<path d="M10143 9618 c-29 -35 -40 -58 -30 -58 6 0 69 91 66 94 -2 2 -19 -14
-36 -36z"/>
<path d="M4340 9598 c0 -9 18 -35 40 -59 l41 -44 -37 55 c-21 30 -39 57 -41
59 -2 2 -3 -3 -3 -11z"/>
<path d="M10954 9470 c-33 -16 -75 -45 -94 -65 -32 -33 -29 -32 47 17 44 29
89 58 99 65 34 22 8 13 -52 -17z"/>
<path d="M11310 9368 c-36 -33 -56 -56 -45 -49 29 16 132 111 120 110 -5 0
-39 -27 -75 -61z"/>
<path d="M1111 9382 c-7 -13 -11 -26 -8 -28 8 -8 29 25 25 38 -3 8 -9 4 -17
-10z"/>
<path d="M3473 9335 c15 -14 33 -25 40 -25 7 0 -1 12 -16 25 -15 14 -33 25
-40 25 -7 0 1 -12 16 -25z"/>
<path d="M3180 9340 c0 -15 79 -100 93 -100 17 0 4 21 -22 34 -16 9 -38 30
-50 48 -11 18 -21 26 -21 18z"/>
<path d="M11443 9310 c-28 -16 -55 -35 -59 -42 -7 -12 101 45 121 63 19 19
-11 8 -62 -21z"/>
<path d="M12043 9191 c-58 -21 -175 -82 -169 -88 3 -4 187 75 223 96 28 16 4
12 -54 -8z"/>
<path d="M2588 9175 c26 -39 102 -112 102 -99 0 5 -28 36 -62 69 -34 34 -52
47 -40 30z"/>
<path d="M588 9078 c9 -9 15 -9 24 0 9 9 7 12 -12 12 -19 0 -21 -3 -12 -12z"/>
<path d="M14912 8993 c-14 -30 -16 -40 -6 -28 24 30 46 75 36 75 -4 0 -18 -21
-30 -47z"/>
<path d="M14082 8753 c-24 -14 -41 -27 -39 -30 8 -7 71 23 86 40 18 23 4 20
-47 -10z"/>
<path d="M7775 8723 c-3 -15 -15 -41 -26 -57 -19 -29 -19 -29 10 4 17 19 31
45 31 57 0 31 -6 29 -15 -4z"/>
<path d="M8120 8679 c0 -8 11 -26 25 -39 32 -30 32 -14 0 25 -17 20 -25 25
-25 14z"/>
<path d="M15293 8649 c11 -7 23 -7 35 0 14 9 11 10 -18 10 -29 0 -32 -1 -17
-10z"/>
<path d="M1263 8615 c-36 -32 -17 -32 22 0 17 14 25 25 18 25 -7 0 -25 -11
-40 -25z"/>
<path d="M1276 8529 c-14 -11 -26 -27 -26 -35 0 -20 14 -10 40 26 25 35 22 37
-14 9z"/>
<path d="M1430 8482 c0 -12 19 -26 26 -19 2 2 -2 10 -11 17 -9 8 -15 8 -15 2z"/>
<path d="M14340 8392 c14 -24 31 -49 39 -55 8 -7 4 7 -9 31 -14 24 -31 49 -39
55 -8 7 -4 -7 9 -31z"/>
<path d="M1390 8389 c0 -8 7 -24 15 -35 11 -15 14 -16 15 -3 0 8 -7 24 -15 35
-11 15 -14 16 -15 3z"/>
<path d="M14422 8250 c0 -14 2 -19 5 -12 2 6 2 18 0 25 -3 6 -5 1 -5 -13z"/>
<path d="M14599 8080 c13 -11 28 -20 35 -20 6 1 0 10 -13 20 -13 11 -28 20
-35 20 -6 -1 0 -10 13 -20z"/>
<path d="M14231 7899 c-1 -17 26 -89 33 -89 5 0 -7 43 -22 80 -7 16 -11 19
-11 9z"/>
<path d="M14211 7793 c1 -15 4 -41 8 -58 10 -45 23 -14 15 35 -8 47 -25 64
-23 23z"/>
<path d="M14184 7700 c4 -25 12 -49 18 -55 7 -7 9 3 4 35 -4 25 -12 50 -18 55
-7 7 -9 -3 -4 -35z"/>
<path d="M6355 7375 c-60 -13 -140 -43 -134 -50 3 -3 90 19 214 54 27 8 28 9
5 9 -14 0 -52 -6 -85 -13z"/>
<path d="M6285 7224 c-79 -40 -122 -73 -70 -54 17 6 49 23 73 36 24 14 60 31
80 39 32 12 33 14 12 14 -14 1 -56 -15 -95 -35z"/>
<path d="M6277 7114 c-27 -14 -47 -28 -44 -30 5 -6 107 43 107 51 0 9 -15 4
-63 -21z"/>
<path d="M9490 6970 c8 -5 23 -10 32 -10 10 0 65 -16 122 -35 106 -36 145 -44
116 -25 -8 6 -55 23 -105 39 -97 31 -191 49 -165 31z"/>
<path d="M6200 6797 c-72 -83 -88 -107 -46 -67 45 41 100 109 94 115 -2 2 -24
-19 -48 -48z"/>
<path d="M9310 6834 c25 -8 49 -12 55 -10 16 6 -43 26 -73 25 -22 -1 -19 -4
18 -15z"/>
<path d="M8801 6269 c-1 -10 54 -140 78 -184 36 -66 13 1 -34 100 -24 50 -44
87 -44 84z"/>
<path d="M6621 6147 c-44 -76 -87 -247 -62 -247 5 0 14 34 20 75 7 49 23 100
47 146 42 85 39 103 -5 26z"/>
</g>
</svg>
