<?xml version="1.0" standalone="no"?>
<!DOCTYPE svg PUBLIC "-//W3C//DTD SVG 20010904//EN"
 "http://www.w3.org/TR/2001/REC-SVG-20010904/DTD/svg10.dtd">
<svg version="1.0" xmlns="http://www.w3.org/2000/svg"
 width="1536.000000pt" height="800.000000pt" viewBox="0 0 1536.000000 800.000000"
 preserveAspectRatio="xMidYMid meet">
<metadata>
Created by potrace 1.16, written by Peter Selinger 2001-2019
</metadata>
<g transform="translate(0.000000,800.000000) scale(0.100000,-0.100000)"
fill="#000000" stroke="none">
<path d="M10738 7639 c-73 -11 -206 -66 -380 -155 -36 -19 -92 -43 -124 -54
-128 -44 -295 -178 -444 -355 -92 -110 -186 -202 -247 -241 -28 -19 -55 -39
-59 -45 -10 -16 -120 -65 -212 -94 -54 -17 -87 -34 -107 -56 -50 -52 -60 -54
-102 -16 -74 66 -159 117 -244 146 -169 60 -270 65 -1039 57 -502 -5 -706 -27
-835 -93 -68 -34 -76 -36 -112 -26 -95 28 -127 33 -226 39 -143 9 -216 -12
-305 -88 -18 -15 -38 -28 -44 -28 -6 0 -34 -23 -62 -50 -28 -28 -66 -61 -85
-73 -46 -30 -50 -46 -12 -53 31 -6 43 -24 17 -24 -8 0 -24 -8 -37 -19 -18 -14
-21 -22 -12 -32 9 -11 8 -19 -3 -33 -12 -18 -30 -20 -183 -22 -129 -3 -179 -7
-211 -20 -33 -14 -49 -15 -78 -6 -112 33 -278 18 -485 -45 -10 -3 -44 0 -75 7
-61 12 -72 10 -153 -35 -24 -14 -33 -13 -95 11 -59 22 -210 45 -294 45 -130
-1 -503 -22 -517 -29 -10 -6 -48 -11 -83 -10 -36 0 -94 -8 -130 -17 -36 -9
-87 -21 -115 -26 -55 -10 -220 -52 -304 -76 -33 -10 -77 -34 -115 -65 -80 -64
-130 -87 -215 -97 -38 -5 -76 -13 -83 -17 -7 -5 -33 -11 -58 -15 -59 -9 -252
-80 -365 -134 -49 -23 -130 -60 -179 -81 -153 -65 -302 -176 -352 -261 -18
-30 -36 -45 -62 -54 -20 -6 -44 -17 -52 -23 -8 -7 -40 -25 -70 -40 -77 -40
-155 -92 -225 -149 -33 -27 -82 -68 -110 -91 -123 -102 -415 -412 -415 -442 0
-7 -10 -25 -22 -41 -13 -15 -27 -35 -33 -44 -39 -63 -67 -99 -74 -99 -17 0
-181 -263 -181 -291 0 -4 -18 -37 -40 -73 -22 -36 -40 -71 -40 -76 0 -6 -9
-34 -20 -61 -11 -27 -29 -72 -41 -101 -48 -119 -82 -354 -66 -453 4 -22 9 -75
12 -117 4 -67 1 -85 -19 -125 -44 -90 -70 -324 -61 -537 5 -134 12 -184 40
-298 34 -139 47 -169 97 -223 16 -16 31 -39 34 -50 13 -39 62 -100 102 -125
34 -21 50 -45 101 -146 34 -66 61 -127 61 -135 0 -8 18 -41 41 -74 39 -58 88
-155 104 -204 4 -13 41 -63 84 -112 42 -48 94 -111 116 -139 38 -50 51 -68
122 -176 55 -82 314 -354 339 -354 33 0 11 44 -51 103 -58 55 -79 87 -57 87
12 0 92 -84 92 -97 0 -6 7 -14 16 -17 47 -18 45 8 -3 55 -46 45 -88 99 -76 99
5 0 14 -5 21 -12 6 -6 14 -9 18 -6 6 7 -67 118 -91 138 -8 7 -15 19 -15 26 0
8 16 -4 36 -26 19 -21 45 -42 57 -46 24 -7 76 -56 251 -231 61 -62 117 -113
124 -113 11 0 -37 78 -76 123 -8 9 -11 17 -5 17 22 0 81 -49 136 -115 32 -39
67 -71 78 -73 29 -5 23 9 -26 58 -25 25 -51 54 -57 65 -16 28 48 -22 133 -103
91 -87 133 -108 159 -77 9 11 7 19 -14 40 -14 14 -26 30 -26 35 0 19 18 10 38
-17 16 -22 23 -25 33 -16 9 9 7 20 -9 47 -27 45 -22 45 22 1 35 -34 66 -46 66
-24 0 6 -45 56 -100 110 -94 93 -118 129 -86 129 7 0 19 6 26 14 15 19 37 10
54 -23 8 -14 32 -37 55 -51 22 -14 41 -31 41 -38 0 -17 -23 -3 -74 43 -74 68
-78 33 -5 -43 51 -51 79 -65 79 -38 0 7 9 16 20 19 11 3 20 9 20 15 0 14 -107
112 -123 112 -15 0 -44 47 -34 56 9 9 42 -15 110 -80 36 -35 63 -53 72 -50 25
10 16 27 -31 64 -77 59 -146 130 -128 130 15 0 54 -31 139 -110 17 -15 40 -33
53 -39 40 -21 26 15 -23 56 -25 20 -47 44 -50 53 -3 8 -23 26 -46 40 -22 14
-47 38 -55 53 -18 34 -46 32 -54 -3 -6 -23 -8 -21 -28 24 -12 27 -22 55 -22
63 0 8 -7 27 -15 42 l-14 28 52 11 c29 6 63 14 76 18 21 6 22 5 12 -14 -6 -11
-8 -28 -4 -38 4 -10 0 -20 -10 -26 -40 -22 -5 -69 112 -150 26 -17 61 -51 79
-75 35 -46 52 -54 52 -25 0 10 -47 64 -105 122 -58 57 -105 109 -105 116 0 8
25 -3 60 -26 32 -22 64 -40 70 -40 21 0 9 19 -30 48 -71 52 -106 115 -46 82
43 -22 196 -171 196 -190 0 -9 7 -23 16 -30 12 -11 18 -10 33 6 16 16 18 28
12 72 -7 46 -5 52 11 52 25 0 22 16 -8 43 -14 12 -32 36 -39 52 -16 37 -92
116 -168 174 -58 44 -80 79 -29 45 15 -10 46 -29 69 -42 43 -24 111 -86 171
-155 19 -22 40 -37 49 -35 13 2 2 20 -45 72 -34 37 -62 72 -62 77 0 16 26 10
54 -12 46 -37 29 2 -24 53 -27 26 -50 52 -50 58 0 18 26 11 50 -15 22 -24 50
-34 50 -18 0 4 -19 26 -41 49 -36 37 -42 49 -44 90 -1 42 -6 51 -41 80 -21 19
-79 69 -129 112 -49 43 -109 91 -132 105 -24 15 -43 34 -43 42 0 18 16 20 24
3 4 -9 10 -6 22 9 9 13 27 23 40 23 22 0 24 4 24 51 0 28 4 58 9 67 10 20 -5
213 -20 257 -6 17 -17 59 -24 95 -7 36 -22 90 -35 120 -12 30 -31 84 -42 120
-20 63 -57 138 -86 172 -14 16 -25 36 -70 120 -13 23 -101 119 -195 213 -101
100 -182 188 -196 215 -13 25 -37 64 -52 87 -16 23 -29 44 -29 47 0 16 -67
101 -93 116 l-30 19 -2 200 c-2 177 -1 200 14 206 11 5 29 -8 60 -42 59 -65
95 -90 155 -108 39 -12 77 -38 166 -116 157 -138 230 -208 259 -249 13 -19 42
-56 65 -81 58 -64 87 -129 93 -202 7 -110 12 -127 33 -127 18 0 20 -7 20 -69
0 -65 10 -95 25 -71 18 29 25 -10 19 -106 -5 -75 -4 -104 5 -104 6 0 11 8 11
18 0 14 2 15 10 2 9 -15 8 -30 -12 -108 -9 -35 -8 -46 2 -52 8 -5 18 -6 24 -3
9 6 4 -50 -10 -96 -6 -20 -4 -22 15 -16 19 6 21 3 21 -32 -1 -21 -7 -49 -15
-63 -29 -51 -14 -97 29 -86 18 4 26 13 26 28 0 32 22 98 33 98 13 0 2 -62 -17
-102 -9 -17 -13 -34 -10 -39 12 -20 33 -7 44 27 11 32 15 35 40 29 31 -7 40 2
49 49 5 24 13 32 36 36 26 4 32 12 47 59 10 30 23 103 30 163 10 94 9 117 -5
177 -10 38 -17 98 -17 133 0 43 -10 98 -29 163 -29 96 -106 261 -140 300 -10
11 -26 33 -37 49 -41 61 -50 75 -92 131 -58 75 -236 259 -287 295 -26 18 -54
54 -80 101 -22 40 -67 101 -99 136 -69 73 -69 75 11 163 27 30 64 81 83 113
19 32 53 79 75 104 l40 45 40 -18 c33 -16 41 -26 51 -66 17 -70 44 -105 149
-203 53 -48 128 -124 167 -169 39 -45 103 -115 142 -156 87 -92 126 -143 126
-165 0 -9 6 -40 14 -68 8 -29 17 -64 20 -79 4 -18 13 -28 25 -28 19 0 31 -39
31 -107 0 -34 17 -54 30 -34 4 7 3 37 -3 67 -10 58 -3 102 13 74 11 -20 50
-216 50 -251 0 -22 5 -29 19 -29 15 0 19 -10 25 -52 3 -29 6 -79 6 -110 0 -32
4 -58 9 -58 9 0 21 103 21 180 0 30 3 41 10 34 6 -6 11 -46 11 -90 0 -43 3
-97 6 -118 5 -37 6 -38 19 -21 9 12 14 45 14 88 0 37 4 66 9 63 14 -9 21 -158
9 -229 -13 -80 -1 -108 27 -61 16 29 16 28 10 -38 -3 -38 -2 -68 1 -68 4 0 16
7 26 17 17 15 18 15 18 -9 0 -25 21 -43 34 -31 3 4 6 46 6 94 0 48 3 94 6 103
11 28 24 6 24 -40 0 -28 4 -43 10 -39 5 3 10 13 10 21 0 8 8 26 17 41 l17 26
11 -34 c14 -40 23 -41 49 -5 37 49 25 183 -28 335 -14 41 -26 84 -26 95 0 31
-28 106 -50 134 -11 14 -20 36 -20 49 0 14 -21 62 -46 107 -26 44 -53 94 -62
109 -8 16 -20 31 -28 34 -7 3 -30 30 -51 61 -20 32 -65 89 -98 127 -33 39 -78
92 -100 119 -22 27 -67 72 -100 99 -33 27 -67 62 -76 76 -9 14 -44 74 -79 134
-34 59 -74 116 -87 127 -34 27 -24 46 40 75 29 12 66 34 83 47 16 13 61 45
100 71 39 25 106 80 150 121 82 79 106 89 124 56 6 -11 20 -25 32 -31 52 -28
262 -27 398 2 52 11 131 26 175 34 43 8 102 21 130 29 27 8 93 21 145 29 52 9
124 21 160 27 36 6 155 14 265 17 110 3 209 10 219 16 11 5 74 11 140 12 128
3 206 22 291 70 22 12 58 26 79 30 22 3 76 18 119 32 90 29 117 26 244 -23
109 -42 219 -27 333 47 64 41 120 60 120 41 0 -6 -4 -14 -10 -17 -14 -9 -12
-45 2 -45 7 0 24 12 39 26 15 14 32 23 38 20 18 -11 13 -24 -17 -41 -41 -25
-70 -73 -78 -133 -5 -40 -3 -57 8 -70 9 -9 23 -33 32 -52 9 -20 30 -44 46 -54
35 -20 36 -30 14 -111 -12 -47 -15 -92 -11 -207 5 -141 4 -149 -19 -193 -23
-43 -24 -49 -14 -131 15 -117 -1 -161 -101 -290 -68 -86 -119 -189 -119 -241
0 -24 -6 -45 -13 -50 -20 -12 -102 -133 -138 -205 -17 -34 -38 -92 -45 -128
-16 -76 -18 -193 -4 -220 13 -25 15 -198 2 -230 -5 -14 -18 -52 -27 -85 -10
-33 -24 -78 -32 -100 -8 -22 -16 -76 -17 -120 -1 -44 -6 -87 -11 -95 -13 -20
-35 -82 -35 -99 0 -20 29 6 41 36 9 24 29 31 29 10 0 -7 -9 -29 -20 -50 -11
-20 -20 -44 -20 -52 0 -19 26 -19 34 0 9 25 45 18 52 -11 11 -44 -2 -136 -29
-199 -21 -50 -23 -61 -10 -63 19 -5 38 20 62 83 l20 50 0 -40 c0 -22 -6 -58
-14 -80 -19 -51 -19 -65 0 -65 8 0 15 -9 15 -20 0 -11 7 -20 15 -20 8 0 15 -5
15 -11 0 -21 45 -3 57 22 21 44 64 201 67 244 2 40 15 73 29 74 4 1 10 1 15 1
14 0 34 43 53 118 20 76 21 182 2 282 -6 35 -43 103 -63 115 -15 9 -10 134 6
167 16 30 34 174 34 266 0 85 26 205 58 272 23 48 31 55 57 56 21 1 37 11 55
34 14 18 42 52 62 75 38 42 128 238 128 279 0 12 9 40 20 64 16 36 23 42 49
42 25 0 31 5 41 34 6 19 10 79 9 133 -1 61 2 107 10 121 6 12 18 95 26 184 9
90 20 172 26 183 9 14 9 20 0 23 -18 6 -13 22 8 22 15 0 22 -14 36 -67 9 -38
24 -90 34 -118 10 -27 28 -81 41 -120 12 -38 32 -87 42 -108 24 -47 131 -153
175 -172 19 -8 39 -28 51 -52 21 -40 96 -140 159 -211 89 -99 217 -182 282
-182 15 0 32 -5 37 -10 6 -6 46 -25 90 -43 43 -18 109 -49 145 -69 60 -34 150
-62 279 -88 25 -5 122 -14 216 -20 94 -5 185 -15 203 -21 26 -9 35 -8 50 5 25
23 35 20 69 -18 27 -31 55 -117 64 -196 2 -19 9 -25 27 -25 13 0 29 -9 35 -20
6 -11 26 -37 44 -58 33 -38 36 -45 32 -85 -1 -13 4 -30 11 -38 11 -14 15 -13
30 7 17 23 17 23 52 4 30 -16 37 -26 53 -89 10 -41 19 -112 20 -166 2 -119 1
-115 18 -101 11 10 16 8 20 -7 4 -11 4 -27 0 -36 -4 -9 -1 -16 6 -16 6 0 14 9
17 20 3 11 10 20 15 20 13 0 2 -59 -17 -96 -19 -36 -19 -44 0 -44 8 0 15 5 15
10 0 6 5 10 11 10 8 0 7 -5 -1 -15 -22 -27 4 -41 29 -16 12 12 23 21 26 21 13
0 3 -45 -15 -70 -20 -27 -13 -49 10 -35 13 8 13 -21 -1 -47 -14 -27 -4 -34 25
-18 14 7 32 10 40 7 19 -7 20 -28 5 -98 -13 -58 -6 -69 46 -69 36 0 76 35 145
124 40 53 47 70 67 169 15 75 19 116 13 128 -6 10 -10 30 -10 46 0 44 -35 145
-90 259 -27 57 -53 122 -56 145 -10 58 -60 128 -122 169 -29 20 -65 53 -80 75
-52 77 -197 210 -312 288 -68 46 -100 75 -122 108 -20 31 -92 59 -151 59 -22
0 -92 16 -156 36 -64 19 -161 49 -216 65 -99 30 -171 59 -312 125 -39 19 -78
34 -87 34 -8 0 -30 13 -48 28 -70 60 -137 92 -258 122 -78 19 -87 27 -94 84
-4 28 -10 61 -13 74 -9 37 14 26 86 -42 62 -59 73 -65 124 -71 52 -7 56 -9 72
-46 10 -21 25 -45 35 -54 40 -36 490 -215 541 -215 15 0 74 -15 132 -34 169
-55 253 -69 391 -64 119 4 167 15 251 60 30 17 45 24 102 48 33 15 74 46 113
86 48 49 66 62 78 55 10 -5 34 -11 54 -15 46 -8 90 -57 128 -141 18 -40 64
-103 134 -184 81 -93 105 -128 100 -143 -16 -50 6 -198 47 -325 23 -70 33 -81
55 -62 18 15 21 12 61 -68 25 -51 47 -67 55 -41 7 19 27 0 44 -40 15 -38 32
-54 46 -45 12 7 0 42 -32 88 -32 47 -90 154 -90 166 0 42 66 -62 112 -173 13
-32 29 -60 37 -63 32 -12 30 15 -4 77 -19 36 -35 71 -35 77 0 19 16 12 29 -11
6 -13 24 -45 39 -71 45 -77 64 -45 22 36 -23 43 -24 47 -10 47 10 0 30 -35 67
-112 20 -42 30 -47 40 -20 4 9 13 22 20 27 16 12 3 56 -39 125 -26 44 -28 60
-5 60 17 0 97 -129 97 -157 0 -13 5 -23 10 -23 6 0 10 7 10 15 0 8 3 15 6 15
10 0 49 -52 54 -74 3 -11 11 -21 18 -24 18 -6 9 46 -30 170 -16 53 -28 102
-26 109 5 14 84 -90 104 -137 11 -25 20 -34 39 -34 13 0 27 -5 30 -11 4 -6 13
-8 20 -5 8 3 15 -7 19 -25 5 -26 8 -29 26 -19 17 9 20 8 20 -10 0 -12 5 -20
12 -18 8 3 11 25 9 66 -1 35 2 62 7 62 12 0 22 -24 22 -51 0 -10 5 -19 11 -19
12 0 8 66 -7 134 -6 25 -5 28 15 21 27 -8 27 7 2 60 -11 22 -32 72 -47 110
-25 61 -42 83 -135 176 -58 59 -121 115 -140 124 -19 10 -48 30 -65 44 -18 14
-55 42 -83 61 -29 19 -95 73 -146 119 -52 46 -108 93 -124 105 -16 12 -60 47
-98 79 -39 31 -74 57 -78 57 -4 0 -24 10 -44 22 -84 53 -196 89 -288 93 -35 2
-72 7 -84 10 -20 7 -20 7 -2 27 10 12 42 36 72 55 29 19 63 43 75 54 72 63
228 143 309 159 47 9 65 19 94 51 49 52 73 49 89 -11 7 -25 19 -63 28 -85 8
-22 15 -65 16 -95 1 -99 19 -183 46 -211 18 -19 28 -44 34 -91 11 -75 25 -117
45 -132 7 -6 15 -20 17 -30 1 -11 9 -21 16 -24 9 -3 12 13 12 55 1 64 13 57
25 -14 4 -24 11 -45 16 -49 13 -8 11 118 -2 172 -10 39 -7 66 5 53 10 -9 58
-254 57 -291 0 -27 18 -32 27 -8 7 18 10 19 19 8 6 -7 15 -28 20 -46 4 -17 13
-31 18 -30 10 3 10 15 -1 83 -3 22 -3 37 2 32 15 -14 54 -153 54 -194 0 -43
13 -65 23 -39 3 8 3 31 0 50 -8 48 12 47 24 -1 10 -38 13 -40 45 -28 13 5 18
-1 24 -29 6 -35 20 -54 31 -42 3 3 0 27 -7 53 -28 106 -19 183 10 91 26 -84
62 -168 70 -163 9 6 1 53 -11 61 -5 3 -9 22 -9 43 0 20 -7 46 -15 57 -8 10
-15 32 -15 47 0 16 -5 37 -10 48 -8 15 -7 19 4 19 16 0 33 -41 46 -110 12 -60
25 -109 40 -145 22 -50 23 -6 2 88 -11 53 -15 87 -9 87 23 0 48 -37 63 -89 8
-31 27 -96 41 -144 25 -82 29 -88 50 -82 19 4 25 -1 37 -30 8 -19 20 -35 25
-35 15 0 14 17 -3 48 -18 34 -76 194 -76 210 0 7 6 12 13 12 13 0 67 -113 67
-141 0 -19 27 -45 37 -35 4 4 -1 22 -11 41 -10 19 -16 41 -12 51 5 14 9 13 24
-7 10 -13 26 -45 36 -71 21 -58 55 -103 56 -75 0 10 -9 35 -20 57 -22 43 -25
60 -10 60 18 0 48 -42 54 -75 4 -19 16 -44 27 -57 17 -18 19 -19 15 -5 -3 11
-9 31 -13 45 -6 27 -6 27 15 8 12 -10 24 -27 27 -37 7 -22 35 -26 35 -5 0 7
-16 40 -35 72 -19 32 -35 64 -35 71 0 22 -61 146 -86 176 -13 16 -24 35 -24
43 0 9 -5 25 -12 37 -21 37 -47 121 -48 149 0 47 36 23 71 -48 18 -35 35 -64
38 -64 4 0 15 -16 25 -35 13 -24 22 -32 27 -23 4 7 -2 25 -14 42 -12 17 -28
41 -34 54 -11 21 -11 23 9 20 20 -3 44 -31 105 -124 9 -14 11 -15 7 -3 -3 10
-1 20 5 23 6 4 27 -18 47 -49 26 -38 41 -52 48 -45 19 19 41 10 65 -25 22 -32
41 -45 41 -28 0 4 -16 38 -36 76 -27 53 -33 72 -24 82 16 19 -27 96 -87 155
-92 92 -163 189 -120 164 24 -15 82 -59 89 -69 4 -5 10 -7 13 -3 18 18 -48 76
-161 144 -18 11 -17 13 13 30 18 11 33 27 33 37 0 23 24 70 44 86 9 8 16 26
16 41 0 16 3 35 6 44 12 31 24 15 24 -31 0 -38 2 -44 13 -34 9 9 11 59 10 192
-2 115 1 178 7 174 6 -3 10 -13 10 -20 0 -8 13 -21 29 -29 16 -9 32 -27 35
-42 4 -15 20 -56 36 -91 25 -54 33 -64 49 -58 16 5 22 -4 41 -60 25 -76 46
-98 35 -37 -4 23 -2 42 4 46 11 7 51 -44 51 -66 0 -27 21 -88 30 -88 6 0 10
21 10 47 0 46 1 47 15 25 9 -12 22 -39 29 -59 15 -43 37 -50 46 -14 5 21 9 14
24 -37 11 -34 22 -62 26 -62 16 0 17 15 4 72 -18 74 -5 97 25 48 20 -33 61
-171 61 -204 0 -10 6 -16 13 -13 13 5 13 11 2 77 -7 42 -7 44 10 30 10 -8 27
-35 38 -59 16 -37 17 -47 6 -67 -11 -22 -10 -27 12 -52 14 -15 31 -40 39 -57
20 -44 24 -11 10 76 -6 40 -8 74 -6 77 7 7 44 -38 52 -63 3 -11 12 -27 19 -35
7 -8 20 -39 30 -67 9 -29 21 -53 27 -53 10 0 8 23 -8 78 -4 13 -2 22 5 22 10
0 61 -98 75 -142 3 -10 11 -18 17 -18 11 0 10 6 -7 68 -9 33 20 29 45 -7 25
-35 61 -117 61 -139 0 -34 25 -67 50 -67 17 0 26 -7 30 -24 11 -46 28 -35 22
15 -4 41 -3 46 14 42 20 -3 34 -29 55 -98 11 -36 18 -44 35 -42 11 1 27 -5 36
-15 17 -20 68 -158 73 -198 3 -28 12 -42 21 -32 4 3 2 25 -4 49 -6 23 -9 44
-7 46 9 9 25 -11 25 -31 0 -37 43 -136 62 -140 20 -6 37 -44 45 -97 4 -26 12
-39 31 -48 35 -16 42 -15 42 6 0 11 9 27 20 37 11 10 20 25 20 34 0 25 -87
277 -113 329 -56 108 -117 240 -117 251 0 26 26 3 68 -58 23 -35 42 -71 42
-82 0 -15 5 -18 23 -13 26 6 40 -17 51 -86 4 -19 11 -42 16 -50 9 -13 11 -13
19 0 8 12 13 12 30 -4 12 -11 21 -29 21 -41 0 -34 28 -107 50 -130 12 -13 20
-38 22 -70 3 -50 3 -50 36 -47 26 3 32 0 32 -15 0 -11 7 -28 16 -39 14 -18 15
-14 9 42 -5 58 -4 61 20 72 33 15 33 51 -1 119 -25 49 -26 54 -11 76 17 27 25
11 -82 181 -17 26 -31 54 -31 61 0 7 -7 18 -15 25 -8 7 -15 18 -15 24 0 6 -21
40 -46 76 -25 36 -60 88 -79 115 -19 28 -50 68 -70 90 -20 22 -48 65 -62 95
-18 39 -57 86 -132 160 -58 58 -137 139 -176 180 -83 89 -182 173 -232 197
-19 9 -47 32 -62 52 -15 20 -80 89 -146 154 -163 160 -499 494 -675 671 -293
295 -310 309 -396 321 -27 4 -85 16 -128 26 -148 34 -342 34 -486 -1 -25 -6
-54 -12 -65 -12 -11 0 -34 -4 -51 -9 -20 -6 -41 -6 -59 1 -60 23 14 50 189 71
87 10 224 36 240 46 38 24 163 33 331 24 l110 -6 18 -36 c10 -20 69 -93 133
-162 98 -108 133 -138 242 -210 304 -201 419 -243 652 -238 71 2 96 7 152 33
36 17 71 27 77 24 6 -4 11 -27 11 -51 0 -60 36 -147 82 -199 21 -24 38 -49 38
-56 0 -14 28 -51 138 -187 94 -117 135 -154 140 -129 3 16 -29 64 -85 125 -33
36 -42 61 -23 61 5 0 27 -24 49 -52 144 -189 187 -242 199 -246 17 -5 15 23
-3 38 -8 7 -29 36 -45 65 -17 30 -44 68 -60 85 -30 33 -35 42 -24 53 14 13 53
-18 70 -57 11 -22 39 -64 64 -92 25 -28 65 -77 90 -110 30 -40 46 -53 48 -42
2 9 -8 28 -22 42 -15 14 -26 32 -26 39 0 8 -18 37 -40 63 -24 30 -36 50 -28
53 14 5 51 -39 79 -91 11 -21 23 -38 28 -38 5 0 24 -25 42 -57 35 -57 102
-133 119 -133 21 0 7 26 -65 122 -41 55 -75 108 -75 119 0 27 21 15 61 -34 19
-23 50 -60 70 -82 20 -22 39 -48 42 -58 4 -10 11 -16 17 -12 11 7 -4 44 -42
102 -33 49 -34 53 -9 53 11 0 40 -24 68 -57 26 -31 76 -86 111 -122 34 -36 62
-69 62 -73 0 -5 5 -8 10 -8 23 0 6 30 -60 103 -38 43 -70 87 -70 97 0 11 3 20
6 20 4 0 87 -81 184 -180 97 -99 180 -180 184 -180 3 0 6 9 6 20 0 20 -24 45
-185 198 -63 61 -74 81 -47 90 13 4 135 -109 308 -285 93 -95 124 -118 124
-93 0 6 -3 10 -7 10 -11 0 -45 61 -38 68 3 3 37 -28 75 -69 55 -58 72 -71 79
-60 12 18 31 4 62 -45 11 -19 27 -34 35 -34 26 0 14 37 -26 83 -22 25 -40 49
-40 55 0 5 -11 21 -25 35 -14 14 -22 28 -17 31 6 3 21 -9 35 -27 14 -17 63
-72 110 -121 47 -49 88 -95 91 -102 7 -18 46 -18 46 -1 0 8 -9 22 -20 32 -11
10 -20 25 -20 32 0 8 22 -9 49 -39 166 -181 241 -242 241 -196 0 13 -53 70
-144 157 -25 24 -46 50 -46 58 0 23 29 14 44 -15 8 -15 43 -55 78 -89 34 -34
90 -89 123 -122 58 -59 95 -77 95 -46 0 8 -16 27 -36 42 -20 15 -44 36 -53 46
-9 10 -33 36 -54 58 -26 27 -37 45 -32 56 4 13 35 -12 133 -110 70 -70 141
-136 157 -146 17 -10 39 -28 49 -40 21 -23 56 -29 56 -8 0 6 -19 26 -41 42
-40 29 -100 125 -79 125 6 0 43 -26 81 -58 97 -78 128 -97 141 -84 6 6 -14 28
-64 67 -85 67 -158 135 -158 148 0 5 15 5 32 1 22 -4 64 -36 127 -95 94 -90
144 -119 99 -59 -12 17 -32 37 -45 45 -21 14 -32 45 -17 45 4 0 28 -12 53 -28
73 -43 100 -56 108 -49 8 9 -36 57 -52 57 -6 0 -26 13 -45 29 l-35 29 28 7
c43 11 90 0 182 -44 46 -23 87 -41 90 -41 15 0 0 18 -35 44 -22 17 -40 33 -40
37 0 4 25 1 55 -7 53 -14 81 -12 70 5 -2 5 -19 11 -36 15 -64 13 -79 46 -21
47 20 0 55 3 77 7 34 6 40 11 37 30 -5 36 22 26 47 -18 12 -22 29 -40 37 -40
21 0 17 17 -11 54 -43 56 -29 75 23 31 17 -14 35 -25 41 -25 16 0 13 30 -4 36
-22 9 -18 34 5 34 24 0 26 22 5 40 -21 17 -8 32 15 18 25 -16 37 -3 18 19 -46
53 -87 173 -59 173 5 0 23 -8 40 -17 30 -18 31 -17 53 4 l22 22 -52 47 c-54
49 -63 64 -37 64 24 0 18 14 -14 33 -28 16 -47 58 -36 77 8 14 62 -15 75 -40
6 -11 18 -20 26 -20 13 0 14 8 9 43 -8 50 -27 73 -74 93 -28 12 -31 17 -21 29
16 20 5 34 -46 55 -24 11 -44 24 -44 30 0 13 10 12 40 -5 34 -20 37 -19 54 15
14 29 14 31 -9 46 -14 9 -57 28 -97 43 -57 21 -76 33 -91 59 l-19 32 31 0 c48
0 38 25 -21 54 -29 13 -72 44 -96 68 -34 35 -43 52 -46 87 -5 55 -18 68 -140
130 -54 28 -106 60 -114 72 -15 22 -15 22 37 15 29 -4 82 -17 117 -30 35 -13
66 -20 69 -16 7 12 -17 28 -65 45 -24 9 -52 24 -61 34 -18 19 -62 37 -154 63
-38 11 -53 21 -64 43 -8 17 -18 38 -23 47 -4 10 -8 34 -8 53 0 39 19 46 54 20
24 -18 36 -19 36 -2 0 6 -13 21 -28 31 -16 10 -33 31 -39 47 -7 17 -27 36 -52
48 -45 23 -55 52 -18 50 12 0 54 -6 92 -13 68 -13 94 -9 81 12 -6 9 -55 22
-216 55 -47 9 -65 20 -125 77 -38 36 -83 74 -99 84 -15 10 -24 22 -20 26 5 5
54 26 109 48 61 23 101 44 103 54 5 25 -26 29 -65 8 -27 -14 -47 -18 -79 -13
-37 5 -45 3 -51 -13 -3 -11 -11 -22 -17 -26 -19 -13 -56 -9 -63 8 -4 11 -13
13 -34 9 -16 -4 -34 -3 -41 2 -7 4 -15 8 -18 9 -43 7 -101 32 -126 54 -18 15
-50 34 -71 40 -21 7 -69 30 -108 50 -38 20 -108 54 -155 74 -47 21 -121 54
-165 73 -44 19 -117 48 -163 64 -45 16 -92 35 -105 43 -12 7 -46 21 -74 31
-29 9 -63 25 -75 35 l-23 19 23 1 c12 0 55 9 95 21 63 18 107 21 337 26 146 2
271 6 279 9 12 4 12 8 -3 22 -15 15 -40 17 -204 17 -175 -1 -464 -23 -575 -45
-75 -15 -94 -13 -114 16 -58 82 -109 137 -146 155 -23 12 -77 48 -119 80 -43
33 -93 66 -112 74 -19 8 -63 35 -98 59 -35 24 -84 52 -108 62 -25 10 -83 43
-129 73 -46 31 -102 67 -125 81 -74 45 -136 85 -169 107 -102 69 -282 135
-422 155 -38 6 -79 14 -90 18 -93 35 -147 42 -227 29z m-138 -2276 c4 -26 6
-50 4 -52 -5 -5 -57 30 -71 48 -7 9 -13 28 -13 43 0 20 6 28 23 30 32 6 49
-14 57 -69z m-116 51 c4 -9 4 -19 1 -22 -6 -6 -35 18 -35 29 0 16 28 10 34 -7z
m-260 -144 c-5 -22 -1 -31 19 -44 16 -11 29 -34 37 -64 21 -82 34 -117 47
-133 7 -8 13 -34 13 -58 0 -35 4 -43 24 -51 21 -8 25 -17 31 -74 4 -36 5 -81
3 -101 -3 -24 0 -35 9 -35 9 0 12 15 10 55 -4 68 2 81 33 65 20 -11 21 -17 19
-105 -2 -52 0 -97 3 -100 8 -8 31 111 24 123 -3 6 -2 13 4 17 5 3 10 -2 11
-12 0 -10 1 -55 2 -101 1 -47 6 -82 12 -82 6 0 10 17 11 37 2 87 20 133 40
101 12 -18 1 -215 -13 -229 -9 -9 -173 67 -197 91 -18 18 27 11 61 -10 35 -21
54 -12 25 12 -27 22 -70 48 -82 48 -5 0 -45 16 -87 36 -85 40 -83 56 2 29 30
-9 62 -15 72 -13 31 7 -37 36 -139 60 l-93 23 49 5 c72 7 69 26 -6 38 -39 6
-51 10 -31 11 35 1 53 19 32 32 -7 4 -53 11 -101 15 -48 3 -88 10 -88 15 0 5
13 15 29 23 49 26 119 102 152 167 29 56 33 76 37 162 4 80 7 96 18 86 8 -7
11 -21 8 -39z m-1272 -331 c-19 -48 -59 -84 -109 -98 -39 -11 -49 -9 -39 8 7
10 154 131 161 131 2 0 -4 -18 -13 -41z m5037 -135 c24 -9 50 -32 70 -60 19
-26 40 -44 52 -44 13 0 24 -13 35 -40 19 -47 39 -54 31 -10 -9 41 19 41 58 0
26 -28 54 -40 115 -54 16 -3 29 -16 37 -36 6 -16 18 -30 27 -30 9 0 16 -4 16
-10 0 -5 11 -10 25 -10 15 0 28 -7 32 -17 20 -59 36 -87 40 -71 2 9 11 19 18
22 23 8 74 -14 80 -35 4 -11 19 -26 35 -34 32 -16 45 -44 35 -75 -6 -17 -15
-20 -78 -21 -40 0 -88 -2 -107 -5 -47 -6 -160 48 -160 77 0 10 -3 19 -7 20 -5
0 -53 1 -109 2 l-100 2 -32 36 c-18 21 -52 46 -77 58 -28 13 -54 35 -69 60
-14 21 -35 47 -48 57 -30 24 -78 87 -78 102 0 9 106 127 117 131 2 1 20 -6 42
-15z m-5965 -67 c19 -47 122 -143 173 -162 63 -24 59 -50 -11 -66 -56 -12
-106 -7 -106 13 0 14 -58 138 -74 158 -6 8 -19 32 -29 53 l-17 37 25 0 c19 0
28 -8 39 -33z m2091 23 c8 -13 -15 -13 -35 0 -12 8 -11 10 7 10 12 0 25 -4 28
-10z m-2563 -101 c7 -96 26 -150 67 -194 16 -16 40 -53 54 -81 14 -27 33 -56
41 -63 9 -8 16 -17 16 -22 0 -18 -63 -8 -91 14 -87 66 -86 65 -93 115 -4 29
-14 56 -25 66 -47 43 -90 208 -60 233 8 6 23 13 34 16 46 11 50 6 57 -84z
m3174 -88 c3 -60 -13 -158 -33 -210 -10 -25 -8 90 3 217 7 82 27 78 30 -7z
m54 -4 c-1 -34 -6 -75 -13 -90 -10 -25 -12 -17 -11 60 2 106 2 106 14 98 6 -3
10 -34 10 -68z m-159 33 c0 -5 0 -35 0 -65 0 -75 0 -75 -11 -75 -6 0 -10 32
-10 75 0 43 4 75 10 75 6 0 10 -4 11 -10z m-235 -87 c-9 -9 -56 11 -56 24 0
12 5 11 30 -3 16 -10 28 -20 26 -21z m-3355 -40 c13 -32 26 -61 27 -65 2 -4
-1 -8 -6 -8 -5 0 -17 18 -27 40 -10 22 -24 45 -32 51 -17 15 -17 39 0 39 7 0
24 -26 38 -57z m6098 43 c29 -15 87 -84 78 -92 -3 -3 -31 20 -63 50 -60 58
-63 66 -15 42z m-2684 -75 c36 -16 77 -51 61 -51 -15 0 -114 49 -121 59 -9 16
15 13 60 -8z m115 -11 c0 -5 -4 -10 -9 -10 -6 0 -13 5 -16 10 -3 6 1 10 9 10
9 0 16 -4 16 -10z m25 -60 c3 -5 2 -10 -4 -10 -5 0 -13 5 -16 10 -3 6 -2 10 4
10 5 0 13 -4 16 -10z m35 -74 c0 -3 -4 -8 -10 -11 -5 -3 -10 -1 -10 4 0 6 5
11 10 11 6 0 10 -2 10 -4z m-2630 -60 c49 -14 75 -27 75 -36 0 -10 -8 -14 -25
-12 -45 6 -155 41 -175 56 -19 15 -18 15 15 15 19 0 69 -10 110 -23z m5651
-18 c26 -33 25 -57 -2 -32 -11 10 -25 27 -30 36 -14 26 9 23 32 -4z m-3771
-33 c0 -13 -3 -31 -6 -40 -10 -26 -24 2 -24 49 0 33 2 37 15 26 8 -7 15 -23
15 -35z m173 -102 c-6 -15 -23 -18 -23 -4 0 5 3 17 6 26 5 12 9 14 14 4 5 -7
6 -18 3 -26z m-163 -10 c0 -7 -4 -13 -10 -13 -5 0 -10 12 -10 28 0 21 2 24 10
12 5 -8 10 -21 10 -27z m110 1 c0 -14 -4 -22 -10 -19 -5 3 -10 17 -10 31 0 14
4 22 10 19 6 -3 10 -17 10 -31z m4127 -79 c3 -9 3 -19 -1 -22 -7 -7 -36 16
-36 28 0 15 30 10 37 -6z m-3928 -187 c4 -27 4 -48 0 -48 -5 0 -9 9 -9 19 0
11 -4 22 -9 25 -9 6 -15 39 -26 136 l-5 55 20 -70 c11 -38 24 -91 29 -117z
m35 87 c6 -28 5 -29 -9 -11 -8 11 -15 31 -15 45 1 31 14 12 24 -34z m641 -5
c3 -5 -1 -10 -10 -10 -9 0 -13 5 -10 10 3 6 8 10 10 10 2 0 7 -4 10 -10z
m-886 -695 c33 -58 38 -75 20 -75 -5 0 -19 20 -30 45 -11 24 -24 47 -29 50 -6
3 -10 13 -10 21 0 28 19 13 49 -41z m-8577 -84 c26 -16 52 -40 59 -53 18 -36
61 -78 95 -94 34 -16 163 -141 195 -190 11 -16 29 -47 40 -69 10 -22 31 -60
46 -84 19 -32 27 -62 31 -113 5 -72 18 -92 46 -68 22 18 39 -22 31 -72 -7 -37
-6 -40 13 -34 18 6 22 2 27 -27 4 -19 6 -43 5 -53 -4 -39 0 -54 16 -54 14 0
16 8 11 50 -7 54 3 65 21 25 15 -32 15 -73 1 -113 -7 -22 -7 -36 1 -51 14 -26
30 -27 30 -2 0 11 5 32 11 48 l12 28 8 -35 c4 -19 7 -63 5 -98 -2 -60 5 -84
19 -62 14 22 25 8 25 -33 0 -23 7 -52 15 -64 27 -38 0 -35 -112 14 -97 42
-117 47 -198 51 -49 2 -129 -1 -178 -8 -77 -10 -91 -10 -112 4 -14 9 -25 25
-25 36 0 11 -19 39 -42 63 -42 43 -85 64 -174 87 -33 8 -45 18 -58 44 -9 19
-16 41 -16 51 0 9 -6 28 -14 43 -27 53 -29 124 -6 200 20 70 36 291 29 417 -6
106 -3 130 17 160 12 17 29 42 38 58 21 34 31 34 88 -2z m8508 -28 c0 -19 -18
-16 -30 6 -17 33 -12 46 10 26 11 -10 20 -24 20 -32z m-7935 -553 c3 -5 1 -10
-4 -10 -6 0 -11 5 -11 10 0 6 2 10 4 10 3 0 8 -4 11 -10z m75 -116 c0 -8 -4
-12 -10 -9 -5 3 -10 13 -10 21 0 8 5 12 10 9 6 -3 10 -13 10 -21z m-70 -39 c0
-8 -4 -15 -10 -15 -5 0 -10 7 -10 15 0 8 5 15 10 15 6 0 10 -7 10 -15z m227
-227 c-3 -8 -6 -5 -6 6 -1 11 2 17 5 13 3 -3 4 -12 1 -19z m13 -67 c0 -11 -4
-23 -10 -26 -6 -4 -10 5 -10 19 0 14 5 26 10 26 6 0 10 -9 10 -19z m70 -63 c0
-10 -2 -18 -4 -18 -2 0 -11 -3 -20 -6 -12 -5 -16 0 -16 19 0 14 3 33 7 43 6
16 7 16 20 -2 7 -10 13 -26 13 -36z m58 -131 c-3 -37 -4 -40 -14 -22 -6 11 -9
38 -6 59 6 54 24 22 20 -37z m-88 -52 c0 -8 -7 -15 -15 -15 -16 0 -20 12 -8
23 11 12 23 8 23 -8z m205 -275 c3 -5 -1 -10 -9 -10 -8 0 -18 5 -21 10 -3 6 1
10 9 10 8 0 18 -4 21 -10z m75 -176 c28 -20 55 -45 61 -56 10 -19 8 -19 -31 3
-23 13 -59 38 -79 56 -51 46 -16 43 49 -3z m72 19 c10 -9 18 -20 18 -25 0 -16
-18 -8 -34 17 -19 29 -11 33 16 8z m45 -118 c9 -25 -2 -27 -22 -5 -17 18 -17
20 -1 20 9 0 19 -7 23 -15z m-97 -95 c0 -5 -2 -10 -4 -10 -3 0 -8 5 -11 10 -3
6 -1 10 4 10 6 0 11 -4 11 -10z m60 -50 c0 -5 -4 -10 -10 -10 -5 0 -10 5 -10
10 0 6 5 10 10 10 6 0 10 -4 10 -10z m30 -79 c0 -6 -4 -13 -10 -16 -5 -3 -10
1 -10 9 0 9 5 16 10 16 6 0 10 -4 10 -9z m-354 -402 c51 -49 64 -69 45 -69 -8
0 -121 108 -121 116 0 15 29 -3 76 -47z m-88 3 c3 -9 -2 -13 -14 -10 -9 1 -19
9 -22 16 -3 9 2 13 14 10 9 -1 19 -9 22 -16z m67 -62 c16 -16 25 -33 22 -37
-4 -3 -8 -4 -9 -2 -2 2 -16 19 -32 37 -37 40 -20 43 19 2z"/>
<path d="M14388 4443 c-3 -4 -8 -20 -12 -35 -5 -21 -3 -28 8 -28 15 0 29 51
16 63 -4 5 -10 5 -12 0z"/>
<path d="M10900 4047 c0 -9 5 -19 11 -22 5 -4 14 -18 19 -31 5 -13 14 -24 20
-24 15 0 12 16 -5 34 -8 8 -15 19 -15 24 0 5 -7 15 -15 22 -12 10 -15 10 -15
-3z"/>
<path d="M10840 3745 c0 -5 5 -17 10 -25 5 -8 10 -10 10 -5 0 6 -5 17 -10 25
-5 8 -10 11 -10 5z"/>
<path d="M10611 3473 c0 -4 4 -17 9 -28 8 -19 9 -19 9 2 1 12 -3 25 -9 28 -5
3 -10 3 -9 -2z"/>
<path d="M2599 902 c16 -31 38 -45 47 -31 4 7 -3 19 -17 30 -31 24 -42 24 -30
1z"/>
</g>
</svg>
