<?xml version="1.0" standalone="no"?>
<!DOCTYPE svg PUBLIC "-//W3C//DTD SVG 20010904//EN"
 "http://www.w3.org/TR/2001/REC-SVG-20010904/DTD/svg10.dtd">
<svg version="1.0" xmlns="http://www.w3.org/2000/svg"
 width="118.000000pt" height="119.000000pt" viewBox="0 0 118.000000 119.000000"
 preserveAspectRatio="xMidYMid meet">
<metadata>
Created by potrace 1.16, written by Peter Selinger 2001-2019
</metadata>
<g transform="translate(0.000000,119.000000) scale(0.100000,-0.100000)"
fill="#000000" stroke="none">
<path d="M544 1153 c-16 -21 -36 -47 -46 -57 -10 -11 -18 -26 -18 -33 0 -7 -4
-13 -10 -13 -5 0 -10 -7 -10 -15 0 -8 -7 -15 -15 -15 -8 0 -15 -6 -15 -14 0
-8 -7 -16 -15 -20 -8 -3 -15 -12 -15 -21 0 -8 -4 -15 -10 -15 -5 0 -10 -6 -10
-13 0 -7 -11 -24 -25 -39 -14 -15 -25 -31 -25 -36 0 -6 -6 -12 -14 -15 -7 -3
-16 -17 -20 -31 -3 -14 -18 -38 -32 -53 -15 -15 -32 -41 -40 -58 -7 -16 -21
-39 -31 -50 -10 -11 -25 -33 -33 -50 -8 -16 -17 -32 -20 -35 -3 -3 -25 -45
-50 -95 -25 -49 -48 -91 -52 -93 -5 -2 -8 -12 -8 -23 0 -10 -4 -19 -9 -19 -14
0 -22 -72 -9 -87 6 -7 21 -13 34 -13 13 0 24 -4 24 -9 0 -11 137 -66 215 -85
65 -16 276 -46 327 -46 23 0 44 -12 80 -46 56 -52 34 -51 238 -14 214 39 254
61 247 139 -5 57 -28 141 -39 141 -4 0 -8 7 -8 15 0 8 -4 15 -10 15 -5 0 -10
7 -10 15 0 8 -4 15 -10 15 -5 0 -10 7 -10 15 0 8 -4 15 -10 15 -5 0 -10 7 -10
15 0 8 -4 15 -10 15 -5 0 -10 7 -10 15 0 8 -4 15 -10 15 -5 0 -10 7 -10 15 0
8 -4 15 -10 15 -5 0 -10 7 -10 15 0 8 -4 15 -10 15 -5 0 -10 7 -10 15 0 8 -4
15 -10 15 -5 0 -10 7 -10 15 0 8 -4 15 -10 15 -5 0 -10 7 -10 15 0 8 -4 15
-10 15 -5 0 -10 7 -10 15 0 8 -4 15 -9 15 -5 0 -12 14 -16 30 -4 17 -11 30
-16 30 -5 0 -9 7 -9 15 0 8 -4 15 -10 15 -5 0 -10 7 -10 15 0 8 -4 15 -10 15
-5 0 -10 7 -10 15 0 8 -4 15 -10 15 -5 0 -10 7 -10 15 0 8 -4 15 -10 15 -5 0
-10 7 -10 15 0 8 -4 15 -10 15 -5 0 -10 7 -10 15 0 8 -4 15 -10 15 -5 0 -10 7
-10 15 0 8 -4 15 -10 15 -5 0 -10 5 -10 11 0 17 -33 82 -52 103 -10 11 -18 25
-18 31 0 6 -8 20 -17 31 -10 10 -29 36 -43 56 -14 21 -28 38 -31 38 -4 0 -19
-17 -35 -37z"/>
</g>
</svg>
