<?xml version="1.0" standalone="no"?>
<!DOCTYPE svg PUBLIC "-//W3C//DTD SVG 20010904//EN"
 "http://www.w3.org/TR/2001/REC-SVG-20010904/DTD/svg10.dtd">
<svg version="1.0" xmlns="http://www.w3.org/2000/svg"
 width="1536.000000pt" height="547.000000pt" viewBox="0 0 1536.000000 547.000000"
 preserveAspectRatio="xMidYMid meet">
<metadata>
Created by potrace 1.16, written by Peter Selinger 2001-2019
</metadata>
<g transform="translate(0.000000,547.000000) scale(0.100000,-0.100000)"
fill="#000000" stroke="none">
<path d="M4464 5387 c-170 -239 -294 -503 -554 -1182 -143 -371 -236 -598
-290 -704 l-28 -57 -165 -12 c-91 -7 -310 -28 -488 -47 -178 -19 -421 -39
-539 -45 -376 -18 -513 -30 -600 -50 -280 -67 -409 -169 -638 -505 -148 -218
-249 -310 -592 -535 -352 -232 -419 -280 -497 -357 -69 -68 -73 -74 -73 -117
0 -43 2 -47 38 -62 105 -44 812 -267 821 -259 7 8 -41 74 -78 108 -21 19 -86
62 -144 96 -58 34 -125 79 -149 101 l-43 38 30 13 c66 29 321 -3 346 -43 5 -7
9 -38 9 -68 0 -32 6 -64 15 -76 20 -29 98 -61 179 -74 61 -10 94 -8 162 5 18
4 23 -1 28 -28 3 -19 21 -53 39 -76 27 -36 43 -45 109 -66 208 -66 391 -85
806 -85 327 0 492 -10 643 -41 189 -37 215 -49 448 -207 516 -349 566 -380
713 -433 288 -106 535 -68 765 116 86 69 170 159 303 324 l83 104 66 -7 c322
-31 730 -31 1266 -1 238 13 517 27 815 40 l115 5 105 -142 c317 -430 549 -672
798 -833 211 -136 571 -264 603 -214 17 27 9 48 -48 131 -71 104 -82 134 -83
232 0 99 15 157 95 359 59 150 95 280 95 342 0 56 -117 96 -372 125 -100 12
-189 25 -196 29 -23 13 84 59 163 71 39 5 118 10 176 10 89 0 416 29 784 70
279 32 495 64 605 91 78 19 164 32 230 36 133 7 154 0 446 -144 232 -115 306
-143 551 -204 264 -66 399 -83 700 -83 176 -1 266 3 273 10 18 18 2 38 -51 69
-47 28 -69 61 -55 83 3 5 54 -2 118 -18 134 -32 256 -55 263 -49 2 3 0 34 -6
70 -32 190 33 446 154 604 144 189 587 492 1042 715 506 247 888 336 1195 278
77 -14 210 -67 210 -83 0 -25 -99 -162 -167 -230 -132 -134 -257 -215 -633
-410 -134 -70 -265 -141 -290 -157 l-45 -30 110 6 c321 15 760 211 991 441
163 163 240 359 205 527 -73 352 -510 485 -1231 377 -168 -25 -292 -52 -580
-124 -749 -187 -1275 -373 -1791 -631 -455 -227 -686 -285 -952 -239 -193 34
-227 69 -130 135 29 19 52 38 53 41 0 4 -11 10 -25 13 -39 10 -346 142 -490
210 -128 61 -134 66 -261 188 -133 130 -219 238 -272 343 -17 33 -54 137 -82
230 -67 219 -104 308 -150 356 -46 49 -80 51 -165 10 -108 -51 -333 -229 -610
-483 -112 -103 -198 -162 -259 -180 -53 -15 -202 -14 -286 1 -36 7 -162 34
-280 61 -460 104 -840 143 -1825 185 -352 15 -603 28 -776 41 l-85 6 -67 117
c-278 489 -496 1211 -553 1829 -4 39 -10 72 -13 72 -3 0 -29 -33 -57 -73z"/>
</g>
</svg>
