<?xml version="1.0" standalone="no"?>
<!DOCTYPE svg PUBLIC "-//W3C//DTD SVG 20010904//EN"
 "http://www.w3.org/TR/2001/REC-SVG-20010904/DTD/svg10.dtd">
<svg version="1.0" xmlns="http://www.w3.org/2000/svg"
 width="1536.000000pt" height="815.000000pt" viewBox="0 0 1536.000000 815.000000"
 preserveAspectRatio="xMidYMid meet">
<metadata>
Created by potrace 1.16, written by Peter Selinger 2001-2019
</metadata>
<g transform="translate(0.000000,815.000000) scale(0.100000,-0.100000)"
fill="#000000" stroke="none">
<path d="M565 8110 c9 -44 74 -232 113 -330 16 -41 33 -100 36 -131 l7 -56
-61 -56 c-53 -49 -105 -77 -146 -77 -6 0 -19 -9 -29 -20 -17 -19 -18 -22 -2
-55 21 -45 13 -63 -38 -85 -24 -10 -62 -32 -86 -49 -54 -40 -81 -39 -219 4
-61 19 -118 35 -126 35 -28 0 -2 -21 74 -59 103 -52 160 -95 168 -127 4 -14
17 -30 30 -35 28 -10 47 -52 38 -83 -8 -26 -47 -76 -100 -130 -52 -52 -69 -85
-84 -166 -33 -179 53 -439 170 -516 84 -56 201 -69 311 -34 92 29 150 76 212
173 30 45 72 99 95 119 118 106 232 135 232 58 0 -39 10 -58 54 -102 89 -89
86 -316 -5 -525 -24 -53 -51 -105 -60 -114 -11 -11 -42 -21 -79 -25 -44 -5
-70 -14 -91 -32 -31 -25 -65 -81 -52 -83 5 -1 19 -2 33 -2 37 -3 56 -47 35
-86 -25 -49 -21 -53 45 -45 57 6 60 6 60 -15 0 -31 -46 -70 -97 -83 -59 -15
-50 -34 14 -30 28 2 54 -1 57 -7 4 -5 -1 -28 -10 -51 -14 -36 -25 -44 -89 -74
-102 -47 -105 -59 -14 -55 61 2 73 0 70 -11 -3 -8 -5 -34 -6 -56 -1 -23 -7
-56 -15 -73 -10 -25 -10 -37 -1 -55 10 -19 9 -28 -7 -57 -16 -27 -21 -62 -26
-174 -8 -150 -28 -276 -52 -312 -20 -32 -57 -29 -141 11 -87 42 -148 95 -164
144 -6 20 -28 53 -48 73 -21 20 -42 51 -47 70 -14 49 -41 48 -97 -2 -58 -51
-100 -118 -95 -156 2 -21 10 -29 35 -35 20 -5 45 -25 69 -56 21 -26 66 -76
100 -112 35 -36 68 -77 73 -93 6 -15 21 -31 33 -36 13 -5 47 -32 76 -60 29
-28 59 -51 67 -51 7 0 35 -17 62 -38 70 -56 85 -62 182 -78 47 -7 98 -16 113
-19 l26 -6 -19 37 c-23 46 -25 121 -4 171 8 19 15 46 15 58 0 12 7 28 15 35
13 10 19 9 36 -6 20 -18 20 -18 10 7 -5 14 -19 41 -30 60 -28 45 -27 56 10 74
17 9 29 19 26 21 -3 3 1 17 8 31 10 20 11 32 3 46 -7 13 -8 53 -4 113 5 61 3
94 -3 99 -18 11 -12 43 9 50 10 3 33 -1 49 -9 41 -22 51 -20 51 8 0 17 -7 26
-25 30 -15 4 -31 18 -37 34 -7 15 -21 34 -31 43 -16 13 -17 20 -8 36 16 30 33
34 120 22 150 -20 141 10 -10 36 -100 18 -113 27 -104 74 11 61 34 94 58 88
12 -3 66 -17 120 -30 54 -13 100 -21 103 -16 8 14 -39 37 -115 53 -92 21 -127
39 -134 68 -12 46 18 108 51 108 13 0 13 3 -1 18 -33 36 -13 173 27 188 11 4
14 17 9 54 -5 40 -1 59 24 112 17 35 51 87 77 116 81 88 122 65 137 -79 4 -44
15 -102 24 -130 16 -47 16 -50 -5 -84 -12 -20 -20 -46 -18 -62 2 -23 8 -29 36
-31 28 -3 32 -7 32 -33 0 -19 5 -29 15 -29 20 0 40 -43 55 -114 15 -72 9 -115
-21 -155 -29 -40 -19 -49 30 -26 64 29 81 -1 36 -67 -29 -43 -32 -63 -7 -55
65 21 60 23 67 -37 7 -54 6 -58 -30 -102 -42 -51 -40 -72 3 -31 35 34 52 34
52 3 0 -14 5 -28 10 -31 20 -12 9 -34 -50 -107 -63 -77 -75 -101 -37 -75 148
105 162 108 162 32 -1 -28 -4 -57 -9 -66 -5 -13 0 -18 22 -22 21 -4 33 -15 40
-35 14 -42 4 -77 -34 -119 -50 -55 -45 -73 8 -28 16 14 34 25 39 25 16 0 37
-45 44 -95 4 -27 16 -70 27 -95 28 -67 33 -122 14 -161 -9 -18 -15 -33 -14
-34 2 0 15 -6 31 -13 56 -24 60 -105 7 -178 -40 -56 -38 -63 7 -23 l37 32 13
-30 c6 -17 19 -95 28 -174 21 -191 32 -273 47 -337 15 -66 0 -147 -40 -212
-37 -60 -83 -90 -141 -91 l-46 0 45 -18 c52 -21 60 -43 34 -93 -25 -50 -44
-68 -73 -68 l-26 0 29 -23 c33 -27 31 -48 -11 -97 -33 -40 -75 -61 -138 -70
-45 -7 -46 -8 -13 -9 20 0 49 -6 64 -11 23 -9 26 -14 20 -42 -8 -40 -111 -247
-138 -275 -11 -12 -32 -24 -46 -28 l-27 -7 29 -15 c25 -13 28 -19 23 -49 -3
-19 -20 -54 -36 -76 -17 -23 -31 -53 -31 -66 0 -13 -22 -79 -49 -145 -26 -67
-54 -138 -60 -158 -6 -20 -23 -46 -36 -59 -13 -13 -22 -27 -19 -32 8 -13 -20
-102 -93 -295 -63 -166 -68 -175 -103 -193 -46 -24 -50 -33 -50 -125 0 -41 -7
-94 -15 -118 -8 -24 -19 -75 -24 -113 -25 -174 -133 -595 -169 -656 -22 -38
-9 -45 40 -20 51 25 75 16 80 -31 3 -28 8 -33 41 -41 48 -12 68 -1 84 46 20
61 36 304 28 458 -5 126 -3 160 14 247 40 194 108 353 152 353 19 0 20 4 14
65 -8 74 5 90 50 61 29 -19 29 -19 10 27 -26 63 -15 150 22 164 9 4 29 -1 45
-10 33 -19 36 -10 9 25 -28 35 -35 71 -21 112 19 59 35 64 75 26 23 -23 35
-29 35 -19 0 9 -12 26 -26 40 -47 44 -49 65 -9 123 19 28 35 63 35 77 0 58 55
163 92 175 12 3 27 -1 39 -12 30 -27 33 -10 4 31 -34 51 -34 108 0 139 14 13
25 34 25 48 0 31 78 193 114 235 15 18 34 33 41 33 10 0 12 11 8 40 -7 52 12
97 49 116 26 13 29 20 25 44 -8 39 31 114 61 118 13 2 32 -4 43 -14 10 -9 22
-14 26 -10 4 3 -8 20 -25 36 -18 16 -32 32 -32 35 0 18 43 86 61 95 16 9 25 8
40 -6 31 -28 34 -7 4 32 l-27 36 30 66 c52 112 76 230 76 367 0 66 -6 152 -13
190 -8 39 -17 99 -21 135 -4 36 -15 85 -25 110 -9 25 -25 86 -35 135 -11 50
-32 133 -49 186 -16 53 -32 117 -36 142 l-7 47 41 0 c48 0 52 9 13 32 -83 49
-151 170 -87 154 38 -10 31 14 -19 63 -49 48 -72 91 -62 117 4 11 12 13 28 8
17 -5 7 10 -34 53 -31 33 -60 73 -63 89 -3 16 -15 56 -26 90 -23 74 -24 90 -2
102 15 9 11 16 -25 57 -35 40 -42 55 -42 89 0 23 -7 52 -17 65 -13 19 -14 28
-5 42 18 28 15 37 -23 82 -19 22 -40 59 -46 81 -6 23 -24 84 -40 136 -24 73
-29 105 -24 140 6 41 4 48 -24 74 -39 37 -39 61 -1 81 38 19 79 19 119 -1 26
-13 48 -15 101 -10 65 7 69 6 89 -20 11 -15 21 -35 21 -45 0 -28 26 -37 81
-26 46 9 51 8 86 -19 21 -16 78 -66 126 -111 49 -46 123 -105 165 -133 143
-92 153 -101 168 -135 8 -19 14 -56 14 -82 0 -57 14 -87 30 -63 5 8 10 25 10
36 0 26 24 48 45 40 11 -4 15 -23 16 -78 1 -67 2 -70 9 -31 11 55 35 100 62
114 33 18 58 -19 58 -85 l1 -51 19 36 c10 19 26 42 35 49 15 13 20 11 36 -9
15 -18 19 -40 19 -105 l1 -81 18 55 c30 85 69 100 91 34 7 -19 9 -53 5 -77
l-6 -42 20 42 c39 82 95 75 93 -12 l0 -47 19 31 c23 37 60 42 83 10 9 -13 31
-25 53 -28 28 -5 41 -13 51 -34 11 -24 19 -27 59 -27 101 0 177 -121 106 -167
-37 -23 -43 -32 -43 -66 0 -20 7 -30 24 -36 13 -5 26 -17 30 -26 9 -23 28 -7
51 45 20 45 35 52 35 16 0 -28 24 -56 46 -56 9 0 37 10 64 21 69 30 129 20
179 -28 20 -19 50 -42 66 -50 40 -20 75 -53 75 -71 0 -11 9 -12 39 -7 35 6 41
4 56 -19 10 -14 26 -26 37 -26 12 0 23 -10 29 -29 6 -17 20 -32 33 -35 36 -9
145 -93 164 -126 9 -16 27 -32 39 -35 12 -3 48 -35 80 -71 31 -36 69 -70 83
-77 45 -22 61 -70 58 -178 -3 -85 -6 -100 -31 -137 l-27 -42 41 0 c51 0 73
-12 88 -48 17 -40 0 -78 -44 -99 -19 -9 -35 -23 -35 -31 0 -10 8 -9 34 7 46
29 94 28 101 -1 3 -13 10 -45 15 -72 6 -26 17 -61 25 -77 8 -15 15 -45 15 -65
0 -21 11 -66 25 -101 14 -35 46 -145 70 -246 25 -100 55 -218 66 -262 12 -44
25 -105 30 -136 4 -30 17 -77 29 -103 23 -54 25 -88 9 -118 -9 -17 -7 -24 15
-42 47 -38 60 -128 26 -184 -27 -43 -25 -56 4 -37 23 15 25 15 34 -2 6 -10 13
-36 17 -58 4 -22 19 -69 32 -104 34 -85 29 -150 -15 -216 -35 -53 -35 -70 1
-38 36 33 62 44 75 31 21 -21 13 -69 -24 -141 -35 -68 -38 -97 -11 -97 7 0 24
-11 37 -25 13 -14 37 -29 54 -33 29 -8 29 -8 27 -75 -2 -53 1 -67 12 -67 20 0
37 -52 37 -111 0 -38 5 -51 22 -63 17 -12 23 -30 28 -79 7 -59 13 -71 98 -192
117 -166 194 -315 195 -376 0 -24 -3 -54 -7 -66 -11 -31 8 -30 50 2 18 14 37
25 43 25 17 0 33 -40 27 -65 -7 -27 8 -35 63 -35 87 0 145 102 72 125 -11 3
-41 41 -67 83 -27 42 -94 138 -151 213 -56 75 -116 166 -132 203 -17 36 -42
81 -55 99 -32 42 -64 127 -114 303 -53 187 -54 189 -40 218 10 22 7 34 -20 86
-37 70 -40 98 -12 108 19 7 18 11 -24 65 -64 82 -71 117 -24 117 18 0 16 4
-15 39 -44 49 -78 138 -85 224 -4 56 -2 71 14 88 18 20 18 21 -13 47 -56 48
-67 103 -22 117 28 9 24 18 -25 59 -79 64 -71 113 16 103 26 -4 48 -3 48 1 0
10 -55 42 -72 42 -35 0 -84 85 -72 123 5 17 12 19 50 13 67 -9 63 11 -10 43
-69 32 -102 67 -91 101 7 21 16 24 83 20 23 -1 42 1 42 5 0 3 -24 17 -52 29
-86 38 -112 76 -122 176 -4 36 -12 77 -18 92 -13 34 -3 78 17 78 21 0 19 14
-9 47 -57 69 -75 150 -35 160 19 5 18 8 -15 42 -27 28 -36 47 -42 87 -4 33 -2
59 6 73 9 19 9 26 -4 40 -9 10 -16 29 -16 43 0 14 -6 41 -14 59 -7 19 -11 39
-9 46 2 6 -10 36 -27 66 -17 30 -46 99 -64 154 -41 123 -51 139 -127 198 -33
26 -71 64 -84 85 -18 28 -29 37 -43 33 -11 -2 -31 6 -48 20 -16 13 -51 36 -79
51 -27 15 -69 41 -91 59 -23 17 -79 56 -125 85 -46 29 -117 82 -158 118 -41
37 -94 75 -118 85 -24 10 -59 30 -78 44 -18 14 -136 80 -262 146 -125 67 -264
145 -308 173 -44 29 -137 83 -206 119 -144 76 -238 141 -258 180 -18 34 -2 57
22 33 23 -24 38 -20 91 24 50 41 74 48 94 28 7 -7 88 -14 224 -20 133 -5 228
-14 253 -23 22 -7 66 -23 98 -34 31 -12 92 -26 135 -31 190 -25 234 -34 391
-80 91 -27 204 -56 251 -65 47 -9 109 -21 138 -26 29 -6 65 -21 82 -35 18 -16
56 -30 102 -40 67 -14 92 -28 300 -164 125 -82 238 -152 251 -155 13 -4 55
-31 93 -61 331 -260 487 -350 1172 -683 203 -98 262 -131 295 -166 45 -45 74
-58 176 -74 35 -6 98 -26 140 -45 42 -20 110 -43 151 -52 41 -9 151 -43 244
-75 195 -69 260 -86 520 -140 105 -22 224 -48 264 -59 39 -11 159 -31 265 -45
105 -14 246 -36 312 -49 186 -38 389 -49 772 -43 367 6 435 13 718 72 94 19
184 35 201 35 33 0 73 11 192 54 40 15 97 28 126 31 32 2 91 20 148 44 53 23
109 41 124 41 16 0 63 16 104 36 41 20 102 42 135 51 158 39 525 308 571 418
8 20 28 55 44 77 17 23 39 71 50 107 41 137 106 175 295 173 61 0 175 -10 255
-22 80 -11 217 -25 305 -30 129 -8 229 -24 520 -81 198 -39 420 -83 492 -100
158 -35 193 -36 285 -8 69 21 71 21 157 4 l88 -18 70 26 c39 14 99 31 134 37
35 6 98 22 139 35 41 14 110 31 154 40 107 20 157 51 190 117 14 28 26 68 26
88 0 92 -67 192 -153 229 -23 10 -72 23 -108 30 -36 6 -98 22 -137 36 -39 14
-78 25 -86 25 -17 0 -126 48 -217 95 -77 40 -78 40 -310 30 -170 -8 -178 -7
-241 15 l-65 24 -138 -19 c-134 -19 -143 -19 -408 -1 -150 10 -367 21 -482 25
-116 4 -216 10 -223 15 -6 4 -12 24 -12 45 0 20 -11 79 -24 131 -13 52 -32
131 -41 174 -42 194 -240 476 -460 656 -74 61 -333 225 -480 305 -208 114
-429 198 -657 250 -81 19 -156 39 -166 44 -63 34 -589 106 -950 130 -207 15
-997 14 -1318 -1 -322 -15 -864 -15 -1439 0 -692 17 -736 19 -748 31 -6 6 -22
11 -34 11 -13 0 -36 6 -51 14 -15 7 -47 16 -72 20 -25 4 -110 27 -190 51 -304
92 -428 111 -1035 155 -154 11 -332 28 -395 38 -167 25 -1053 25 -1175 0 -49
-10 -118 -16 -179 -15 -98 2 -99 3 -125 35 -15 17 -37 32 -48 32 -11 0 -23 8
-25 18 -4 13 -16 18 -50 19 -25 2 -77 14 -114 29 -150 57 -178 65 -257 71 -48
3 -100 14 -126 25 -25 11 -70 23 -101 25 -55 5 -59 4 -97 -31 -54 -48 -100
-66 -172 -66 -49 0 -65 -4 -89 -25 -17 -14 -39 -25 -50 -25 -12 0 -24 -4 -27
-10 -3 -5 -22 -10 -41 -10 -26 0 -34 -4 -34 -17 0 -15 -4 -13 -20 7 l-19 25
-53 -28 c-29 -15 -71 -31 -93 -36 -22 -4 -62 -22 -89 -39 -66 -42 -109 -43
-126 -2 -15 35 -9 74 27 185 22 66 27 100 27 190 1 98 -2 116 -25 165 -37 80
-72 115 -146 152 -56 28 -79 33 -157 36 -178 8 -261 -23 -377 -139 -64 -64
-80 -86 -93 -132 -18 -63 -39 -86 -64 -71 -9 6 -64 104 -123 218 -59 114 -110
211 -114 214 -4 4 -4 -9 0 -28z"/>
</g>
</svg>
