<?xml version="1.0" standalone="no"?>
<!DOCTYPE svg PUBLIC "-//W3C//DTD SVG 20010904//EN"
 "http://www.w3.org/TR/2001/REC-SVG-20010904/DTD/svg10.dtd">
<svg version="1.0" xmlns="http://www.w3.org/2000/svg"
 width="1536.000000pt" height="761.000000pt" viewBox="0 0 1536.000000 761.000000"
 preserveAspectRatio="xMidYMid meet">
<metadata>
Created by potrace 1.16, written by Peter Selinger 2001-2019
</metadata>
<g transform="translate(0.000000,761.000000) scale(0.100000,-0.100000)"
fill="#000000" stroke="none">
<path d="M5426 7566 c-46 -24 -110 -50 -143 -56 -91 -19 -170 -55 -223 -103
-36 -32 -68 -50 -122 -66 -40 -13 -102 -40 -138 -61 -36 -20 -83 -43 -105 -50
-58 -18 -232 -99 -288 -133 -33 -20 -55 -43 -72 -77 -38 -75 -72 -107 -149
-144 -70 -33 -119 -77 -189 -169 -22 -29 -41 -40 -97 -57 -79 -23 -89 -34
-161 -165 -27 -48 -74 -111 -122 -161 -66 -70 -85 -84 -126 -94 -29 -7 -67
-27 -97 -52 -26 -22 -65 -48 -86 -59 -20 -10 -39 -23 -43 -29 -3 -5 -29 -16
-56 -24 -91 -27 -116 -50 -165 -148 -52 -103 -65 -112 -184 -123 -97 -10 -129
-23 -194 -85 -49 -46 -60 -52 -130 -65 -41 -8 -92 -21 -112 -30 -20 -8 -75
-21 -123 -29 -49 -8 -103 -22 -122 -31 -81 -42 -203 -142 -326 -268 -115 -118
-137 -145 -175 -223 -38 -78 -47 -90 -78 -100 -32 -11 -180 -33 -319 -49 -54
-6 -104 -27 -171 -71 -19 -13 -75 -37 -125 -55 -176 -62 -234 -99 -417 -273
-151 -143 -205 -206 -322 -381 -47 -71 -102 -151 -120 -177 -21 -30 -36 -64
-40 -95 -4 -26 -16 -73 -26 -104 -11 -31 -28 -102 -40 -157 -26 -130 -28 -373
-4 -466 14 -50 15 -94 11 -253 l-6 -192 64 -106 c99 -162 180 -272 259 -351
39 -39 107 -110 151 -159 44 -49 123 -123 176 -164 154 -122 308 -234 347
-256 20 -10 68 -36 106 -57 38 -21 87 -43 110 -50 22 -6 66 -26 96 -44 30 -18
132 -59 225 -91 l170 -58 186 3 c113 2 202 -1 225 -7 22 -6 109 -15 194 -20
211 -13 272 -32 335 -106 37 -43 61 -60 118 -84 40 -16 110 -50 157 -75 142
-75 340 -142 444 -150 86 -7 92 -9 155 -54 64 -46 68 -47 136 -46 77 1 230 36
399 91 76 24 120 33 143 30 39 -7 219 -119 365 -227 55 -41 139 -104 187 -139
47 -35 135 -104 195 -155 60 -50 137 -112 172 -138 55 -42 64 -53 78 -101 22
-76 74 -149 117 -164 19 -7 62 -12 97 -12 56 -1 66 2 88 26 33 36 37 59 32
167 -5 98 -12 118 -64 182 -18 23 -49 69 -69 102 -20 34 -54 82 -75 107 -45
53 -52 90 -18 99 14 3 67 -9 128 -29 58 -18 169 -46 245 -60 126 -24 175 -28
490 -35 265 -7 363 -13 405 -24 30 -9 84 -16 120 -16 36 0 106 -7 155 -16 68
-12 215 -17 600 -23 456 -8 520 -11 605 -29 52 -11 131 -23 175 -27 44 -3 161
-15 260 -27 188 -21 328 -21 376 2 34 16 49 49 49 109 0 42 -6 57 -40 102 -22
30 -40 56 -40 60 0 16 30 15 95 -4 64 -19 96 -21 360 -20 338 0 504 19 639 73
65 25 90 30 165 30 82 0 95 -3 166 -37 l77 -36 127 12 c69 7 180 26 246 41
247 58 353 80 445 90 52 6 131 17 175 25 44 7 159 23 255 35 302 37 504 86
646 158 78 39 171 132 180 179 11 60 -1 131 -27 159 -53 57 -88 62 -261 38
-59 -8 -64 8 -17 52 61 57 74 124 34 172 -31 37 -75 45 -152 27 -95 -22 -262
-40 -356 -38 -75 2 -108 9 -242 54 -85 29 -179 66 -207 84 -88 52 -125 148
-77 196 20 20 29 21 98 15 42 -3 279 -9 526 -12 l450 -7 50 -25 c70 -34 137
-108 163 -180 23 -62 101 -162 153 -196 24 -15 44 -17 113 -15 76 4 88 7 122
34 64 53 76 86 70 195 -3 52 -8 104 -11 115 -8 30 8 46 56 56 24 4 269 8 544
9 634 0 603 5 872 -131 172 -87 202 -99 247 -99 62 0 90 18 106 65 17 53 4
110 -35 149 -18 18 -94 70 -169 116 -75 45 -139 86 -141 90 -3 5 -2 15 1 24 8
20 47 20 134 1 129 -28 180 -14 180 50 0 69 -87 129 -246 171 -55 14 -130 34
-169 44 -76 20 -238 92 -325 146 -30 18 -86 45 -125 59 -38 15 -119 53 -180
86 -61 32 -160 77 -220 99 -60 22 -129 52 -153 66 -24 14 -75 37 -114 50 -73
25 -191 85 -265 136 -33 22 -43 35 -43 56 0 36 54 88 135 132 76 42 209 149
352 284 84 79 131 115 190 145 127 63 325 217 525 407 83 79 115 101 225 158
170 88 273 167 480 368 95 91 203 191 242 222 38 30 78 70 89 88 12 19 63 75
115 124 82 79 101 103 142 186 37 75 48 109 52 159 4 59 1 71 -40 161 -54 118
-132 235 -238 360 -44 51 -110 134 -148 183 -72 95 -121 139 -192 177 -39 20
-59 23 -169 24 -104 0 -133 4 -172 21 -53 24 -54 27 -67 148 -9 83 -16 101
-83 233 -40 79 -88 159 -107 179 -95 98 -246 99 -416 2 -47 -27 -113 -56 -145
-63 -124 -29 -225 -117 -348 -301 -92 -138 -64 -128 -324 -123 -134 3 -234 9
-250 16 -41 17 -626 33 -958 26 l-295 -7 -95 26 c-52 14 -115 31 -139 37 -36
9 -65 32 -145 109 -149 144 -169 155 -378 223 -77 24 -119 31 -248 38 -85 5
-171 15 -190 21 -20 7 -172 17 -350 25 -264 10 -326 16 -385 33 -99 30 -183
28 -256 -5 -53 -24 -67 -26 -146 -22 -67 4 -102 11 -147 32 -57 25 -66 26
-225 26 -199 -1 -257 11 -332 66 l-54 39 -230 -4 c-291 -4 -334 1 -388 45
-121 97 -255 133 -369 100 -81 -23 -117 -20 -194 18 -54 26 -86 35 -145 39
-48 3 -97 14 -135 30 -34 14 -99 30 -154 36 -52 7 -114 21 -139 32 -78 34
-169 45 -273 31 l-92 -11 -155 71 c-275 124 -318 138 -432 138 -97 0 -100 -1
-183 -44z m2886 -6466 c25 -7 49 -25 70 -52 18 -22 56 -58 83 -80 64 -51 157
-157 149 -170 -8 -12 -136 -2 -244 18 -41 8 -167 19 -280 25 -113 5 -245 13
-295 18 -49 5 -102 10 -116 10 -14 1 -34 7 -44 15 -26 19 -9 39 47 55 23 7 66
26 94 41 40 21 72 29 141 34 111 9 158 21 198 51 58 45 121 56 197 35z"/>
</g>
</svg>
