<?xml version="1.0" standalone="no"?>
<!DOCTYPE svg PUBLIC "-//W3C//DTD SVG 20010904//EN"
 "http://www.w3.org/TR/2001/REC-SVG-20010904/DTD/svg10.dtd">
<svg version="1.0" xmlns="http://www.w3.org/2000/svg"
 width="474.000000pt" height="1536.000000pt" viewBox="0 0 474.000000 1536.000000"
 preserveAspectRatio="xMidYMid meet">
<metadata>
Created by potrace 1.16, written by Peter Selinger 2001-2019
</metadata>
<g transform="translate(0.000000,1536.000000) scale(0.100000,-0.100000)"
fill="#000000" stroke="none">
<path d="M4461 15274 c-61 -46 -142 -100 -180 -118 -50 -26 -71 -43 -80 -64
-15 -35 -44 -64 -85 -86 -20 -10 -35 -32 -52 -72 -29 -73 -36 -78 -82 -76 -50
3 -60 -10 -69 -89 -8 -79 -36 -115 -78 -99 -49 19 -65 13 -65 -22 0 -91 -43
-148 -110 -148 -42 0 -50 -11 -50 -67 0 -38 -26 -68 -71 -78 -19 -4 -28 -15
-37 -50 -7 -28 -33 -70 -73 -117 -61 -72 -89 -121 -89 -155 0 -10 -16 -26 -37
-38 -30 -16 -39 -29 -49 -67 -14 -57 -41 -102 -88 -147 -25 -24 -36 -44 -36
-64 0 -41 -25 -89 -60 -112 -27 -18 -29 -24 -29 -79 1 -74 -20 -106 -82 -123
-24 -6 -45 -12 -46 -12 -1 -1 5 -22 14 -48 l16 -46 -54 -48 -53 -47 13 -52
c15 -59 13 -64 -52 -95 -50 -24 -54 -38 -32 -110 l17 -53 -25 -34 c-13 -18
-32 -58 -42 -88 -21 -65 -41 -108 -64 -133 -11 -14 -16 -40 -17 -90 0 -40 -6
-84 -14 -100 -11 -23 -19 -27 -48 -25 l-34 3 -3 -96 c-3 -120 -16 -149 -72
-165 -49 -15 -96 -5 -138 28 -25 20 -26 24 -20 82 4 33 13 79 21 101 11 33 11
42 0 55 -26 29 -46 80 -66 165 -11 48 -30 109 -41 135 -16 38 -18 53 -10 68
16 31 14 39 -18 58 -49 29 -65 70 -59 152 5 66 3 73 -19 94 -44 41 -65 96 -65
165 0 59 -1 64 -27 78 -16 8 -42 36 -58 62 -94 154 -95 156 -89 200 5 39 3 43
-28 63 -53 32 -68 63 -64 131 3 64 -6 79 -48 79 -40 0 -59 36 -57 106 1 47 -2
64 -12 64 -22 0 -77 52 -91 87 -8 18 -14 45 -14 60 0 23 -9 34 -48 57 -72 45
-92 66 -99 109 -4 27 -12 41 -28 47 -36 14 -82 75 -95 128 -9 35 -20 53 -36
60 -29 14 -69 68 -84 115 -14 45 -35 48 -58 7 -34 -59 -72 -29 -72 57 0 69
-16 88 -69 79 l-42 -6 -24 52 c-14 29 -25 59 -25 65 0 7 -17 24 -38 37 -43 27
-87 75 -97 105 -3 11 -19 22 -34 26 -37 8 -108 53 -191 120 -90 73 -138 95
-204 95 -85 0 -87 -2 -70 -63 20 -69 61 -107 114 -107 36 0 40 -2 40 -26 0
-44 18 -66 49 -59 15 3 40 1 54 -4 22 -9 27 -17 27 -45 0 -32 4 -37 42 -54 24
-10 58 -35 75 -56 18 -20 50 -48 70 -62 33 -22 39 -32 43 -71 5 -44 7 -47 48
-61 28 -9 51 -26 69 -50 14 -21 91 -100 170 -178 147 -144 157 -161 131 -205
-11 -18 -10 -23 12 -37 94 -63 146 -143 134 -207 -6 -32 -4 -35 18 -35 36 0
69 -41 75 -94 5 -38 11 -49 38 -65 22 -12 42 -38 60 -77 15 -33 41 -88 59
-124 17 -36 32 -68 34 -71 2 -4 -6 -9 -18 -12 -31 -8 -24 -32 16 -46 48 -17
74 -62 74 -128 0 -50 1 -52 44 -77 55 -32 63 -52 36 -88 -11 -15 -20 -31 -20
-37 0 -5 25 -23 55 -40 80 -45 113 -109 84 -162 -9 -17 -4 -26 30 -59 22 -21
47 -53 56 -70 14 -28 15 -34 2 -48 -25 -30 -27 -49 -5 -69 45 -39 78 -96 78
-132 0 -20 -4 -42 -9 -49 -5 -9 0 -22 15 -39 36 -38 47 -86 42 -177 -4 -62 -1
-93 14 -133 39 -112 27 -145 -136 -368 -158 -215 -212 -327 -237 -484 -14 -94
-6 -155 42 -315 57 -192 57 -187 16 -249 -20 -30 -46 -79 -59 -111 -23 -58
-23 -58 -60 -53 -20 3 -68 19 -105 37 -55 25 -75 41 -103 83 -26 37 -51 59
-95 82 -48 26 -69 45 -108 100 -77 112 -115 144 -174 146 -22 1 -52 27 -146
126 -65 68 -127 144 -139 168 -13 27 -30 46 -44 49 -16 4 -40 38 -86 124 -47
87 -80 134 -129 185 -105 105 -127 85 -63 -58 19 -44 38 -105 41 -135 4 -40
13 -64 33 -87 16 -17 49 -75 74 -128 86 -182 191 -296 498 -543 142 -114 197
-153 225 -158 27 -5 49 -19 78 -51 56 -62 118 -124 155 -153 22 -18 40 -51 66
-120 61 -163 66 -202 44 -365 -10 -77 -21 -178 -25 -225 -18 -237 -27 -294
-50 -325 -12 -17 -84 -95 -159 -174 -143 -149 -199 -222 -245 -320 -15 -32
-46 -81 -69 -107 -47 -55 -87 -130 -97 -186 -5 -28 -18 -46 -53 -72 -25 -20
-89 -87 -142 -148 -62 -72 -117 -126 -153 -148 -38 -24 -59 -45 -67 -66 -17
-51 -47 -68 -210 -123 -85 -29 -215 -81 -288 -117 -132 -65 -133 -66 -115 -86
16 -18 25 -19 83 -13 36 4 95 9 131 10 37 2 80 10 95 18 38 19 108 34 216 46
79 9 93 14 158 57 54 36 75 57 89 89 11 25 42 61 77 91 98 82 144 134 151 165
4 22 19 39 57 63 73 48 166 148 166 181 0 17 18 45 58 88 32 34 96 118 142
186 47 69 105 145 130 171 45 47 97 86 104 79 2 -2 -5 -53 -16 -114 -30 -160
-30 -359 -1 -441 27 -75 23 -96 -46 -213 -28 -47 -53 -97 -56 -112 -4 -16 -15
-29 -28 -33 -35 -10 -51 -41 -117 -227 -34 -96 -102 -255 -150 -354 -49 -99
-98 -208 -109 -242 -31 -92 -44 -198 -34 -268 6 -44 5 -71 -5 -100 -17 -49 -9
-109 24 -190 27 -65 37 -196 38 -480 1 -129 1 -130 -32 -189 -26 -46 -32 -66
-28 -91 5 -25 1 -36 -19 -55 -40 -38 -60 -104 -59 -200 0 -50 6 -98 15 -118
l14 -33 52 26 c85 43 122 117 163 328 12 60 30 134 41 165 12 35 17 68 13 85
-4 18 -1 34 9 45 38 45 51 208 22 279 -12 29 -13 43 -4 71 18 56 5 166 -40
322 -48 165 -48 171 6 293 25 56 37 101 40 147 8 111 135 350 257 485 l45 50
-19 -70 c-11 -38 -35 -117 -55 -175 -65 -192 -75 -321 -35 -461 16 -55 11
-159 -10 -219 -24 -69 -25 -158 -4 -297 l17 -105 -27 -82 c-23 -68 -28 -107
-34 -245 -7 -148 -6 -168 10 -200 27 -53 22 -107 -22 -246 -51 -162 -52 -202
-3 -298 38 -76 37 -71 33 -257 -2 -108 8 -145 65 -234 54 -85 64 -115 79 -236
14 -116 30 -157 125 -325 24 -42 53 -115 72 -185 70 -253 112 -356 184 -445
46 -57 154 -312 155 -366 0 -3 -20 -37 -45 -75 -43 -64 -45 -72 -45 -139 0
-75 -6 -87 -94 -230 -35 -55 -37 -64 -32 -113 5 -46 2 -60 -25 -112 -20 -39
-28 -66 -24 -80 4 -14 -1 -30 -19 -50 -31 -37 -46 -88 -46 -158 0 -44 -7 -64
-41 -120 -35 -59 -39 -72 -34 -109 5 -35 -1 -59 -40 -152 -47 -115 -75 -213
-75 -268 0 -17 -11 -53 -25 -80 -14 -26 -43 -118 -64 -205 -22 -86 -44 -165
-50 -176 -6 -12 -11 -33 -11 -49 0 -15 -9 -56 -19 -89 -11 -34 -17 -70 -15
-81 3 -11 -4 -37 -15 -57 -12 -21 -30 -83 -41 -139 -11 -56 -47 -202 -79 -325
-109 -408 -140 -609 -101 -657 11 -13 15 -12 37 17 30 41 48 105 67 228 8 52
64 280 125 506 61 226 130 493 152 594 22 103 48 195 59 209 31 45 48 96 75
233 30 147 54 214 91 249 18 17 24 33 24 64 0 30 13 66 45 127 38 73 45 95 45
143 0 47 7 68 40 129 30 55 40 84 40 118 0 38 6 54 34 87 25 30 36 54 41 93 4
29 16 73 26 97 10 24 19 62 19 85 1 52 32 128 97 236 62 104 83 154 92 223 l6
52 43 2 c25 1 68 14 100 30 31 15 60 30 64 31 5 2 8 -5 8 -15 1 -33 36 -97 92
-164 30 -37 76 -109 102 -162 29 -57 72 -124 108 -164 32 -37 66 -81 74 -97 9
-15 36 -57 60 -93 24 -35 44 -70 44 -77 0 -7 23 -44 51 -82 28 -38 76 -118
106 -177 30 -59 75 -132 99 -162 27 -33 44 -64 44 -80 0 -16 23 -61 54 -108
29 -45 93 -154 141 -242 98 -178 155 -272 197 -326 15 -20 28 -43 28 -50 0
-39 26 -95 64 -142 29 -36 45 -66 50 -97 4 -25 28 -79 55 -124 27 -45 118
-221 203 -391 145 -291 249 -475 269 -475 11 0 29 34 29 57 0 25 -66 160 -131
271 -30 51 -66 131 -86 195 -24 74 -49 127 -79 170 -60 85 -80 125 -89 175 -4
28 -21 60 -48 93 -78 95 -89 116 -96 179 -7 57 -11 65 -64 118 -49 49 -57 63
-57 95 0 26 -10 51 -34 84 -18 27 -50 91 -71 143 -48 120 -77 179 -109 217
-14 16 -35 60 -47 97 -15 45 -36 83 -64 114 -27 30 -64 94 -103 180 -85 187
-137 274 -213 356 -45 49 -69 85 -78 116 -19 65 -51 125 -141 261 -44 66 -85
138 -92 161 -7 24 -34 65 -64 97 -99 108 -99 128 0 328 40 81 79 173 85 203 6
30 20 149 31 265 23 235 26 250 50 285 29 40 42 108 44 215 1 88 -2 108 -26
168 -34 82 -35 122 -3 257 27 116 31 178 13 243 -9 34 -8 72 5 182 17 154 14
184 -29 305 -25 70 -26 84 -23 215 6 227 2 306 -16 355 -32 84 -34 110 -19
209 18 115 14 150 -33 284 -32 92 -35 109 -29 172 3 39 13 95 21 125 20 75 19
153 -5 228 -28 89 -14 98 25 16 18 -38 87 -152 154 -254 193 -292 232 -388
235 -572 1 -84 6 -114 21 -142 16 -30 18 -41 8 -66 -9 -25 -9 -38 3 -66 8 -20
17 -72 19 -117 8 -151 59 -266 194 -442 44 -56 91 -125 106 -154 37 -75 97
-136 168 -171 93 -46 97 -43 77 61 -16 82 -59 164 -145 274 -133 169 -155 204
-155 246 0 27 -9 50 -34 82 -55 72 -58 81 -45 132 19 75 7 227 -26 315 -24 65
-28 96 -35 240 -10 211 -24 255 -156 502 -106 198 -166 296 -214 350 -45 52
-62 87 -195 397 l-92 215 21 50 c20 48 21 70 21 331 0 154 4 286 9 294 6 9 27
-22 70 -105 105 -203 171 -286 268 -335 23 -12 70 -51 102 -86 66 -72 136
-123 245 -178 49 -24 90 -54 119 -86 36 -41 71 -63 201 -126 110 -54 165 -76
188 -74 17 1 72 -5 123 -15 75 -13 100 -14 131 -5 29 9 44 9 60 0 14 -7 42 -9
78 -4 69 8 90 8 166 0 44 -5 71 -3 97 8 39 16 74 59 63 77 -18 29 -93 52 -217
66 -71 8 -145 21 -165 29 -27 12 -44 13 -72 5 -101 -28 -187 -2 -356 109 -66
44 -136 87 -156 96 -20 10 -40 28 -46 43 -7 20 -22 31 -53 40 -54 16 -103 50
-210 146 -46 42 -92 78 -102 82 -9 3 -20 14 -23 24 -3 11 -26 36 -50 56 -28
22 -45 45 -47 62 -2 20 -11 29 -33 35 -20 6 -38 22 -53 47 -12 21 -61 83 -108
137 -71 81 -98 121 -152 231 l-66 134 -7 161 c-5 99 -14 183 -24 217 -20 69
-14 112 29 210 48 108 59 147 54 195 -5 37 -1 48 31 89 20 25 78 85 129 132
51 48 106 109 121 135 18 33 47 61 89 89 62 41 112 100 151 177 17 34 28 43
55 49 30 5 39 14 63 62 18 36 74 104 157 191 119 125 196 225 211 272 4 10 12
19 19 19 6 0 33 21 58 48 37 36 50 58 58 98 9 42 17 56 47 75 43 28 65 73 52
107 l-9 23 -42 -22 c-80 -40 -147 -101 -249 -225 -95 -116 -200 -224 -219
-224 -4 0 -13 -19 -19 -43 -7 -30 -18 -47 -35 -55 -13 -6 -70 -53 -125 -104
-89 -81 -107 -103 -141 -175 -51 -104 -133 -189 -290 -300 -125 -88 -124 -88
-172 -28 -41 53 -33 103 39 230 84 149 98 204 98 385 0 108 -6 181 -24 284
l-24 139 -129 185 -129 185 26 52 c14 29 52 82 86 119 l61 66 -17 45 -18 44
31 35 c16 19 37 56 47 82 22 61 60 143 77 166 10 14 10 22 0 38 -26 42 -15 67
53 121 59 46 64 53 58 77 -12 43 -6 78 22 129 18 34 25 63 25 101 0 50 3 56
48 101 42 42 48 53 44 81 -4 29 2 38 62 93 69 65 76 80 51 113 -22 29 -18 47
16 80 17 16 47 56 66 89 20 33 52 77 72 98 33 35 35 39 23 69 -10 27 -9 34 4
41 8 5 31 22 50 39 32 29 34 32 28 82 l-6 51 69 56 c38 31 132 125 210 210
135 147 141 155 127 176 -20 32 -17 50 8 64 13 7 59 47 103 89 45 43 91 81
104 85 21 6 22 11 17 50 -7 42 -6 43 27 54 18 6 58 38 89 70 31 33 66 61 78
63 25 3 36 18 44 60 5 24 11 27 53 30 48 3 57 11 68 61 4 20 11 27 29 27 43 0
86 12 86 25 0 7 11 29 25 49 14 20 25 48 25 61 0 21 -6 24 -47 30 -27 3 -60 8
-74 10 -21 3 -50 -14 -138 -81z"/>
</g>
</svg>
