<?xml version="1.0" encoding="UTF-8" standalone="no"?>
<!-- Created with Inkscape (http://www.inkscape.org/) -->

<svg
   xmlns:svg="http://www.w3.org/2000/svg"
   xmlns="http://www.w3.org/2000/svg"
   version="1.2"
   width="30.898001"
   height="48.806999"
   viewBox="0 0 30.898 48.807"
   id="Layer_1"
   xml:space="preserve"
   style="overflow:inherit"><defs
   id="defs7" />
<path
   d="M 11.316,0 C 10.889,0 10.463,0 10.037,0 9.073,0.25 7.957,0.347 7.478,1.083 5.07,0.269 1.248,0.779 0,2.362 0.3,2.48 0.396,2.411 0.886,2.46 1.733,3.231 3.7,3.705 5.117,4.231 5.04,4.449 4.508,4.212 4.625,4.625 5.047,4.761 5.522,4.842 6.102,4.822 5.993,5.577 7.221,6.204 7.085,6.986 7.39,7.292 7.252,6.653 7.676,6.79 7.924,7.346 7.098,8.053 7.381,8.66 7.306,8.913 7.066,9.001 6.691,8.955 c -1.43,2.188 -2.399,5.971 -1.476,8.955 0.321,0.142 0.421,0.734 0.492,1.377 0.229,0.033 0.406,0.118 0.59,0.197 1.196,3.925 2.367,8.303 4.231,11.907 0.546,1.056 0.748,1.121 0.295,1.968 0.132,0 0.263,0 0.394,0 0.155,0.193 -0.52,0.395 -0.295,0.984 0.346,0.296 0.22,-0.509 0.787,-0.295 0.869,0.312 0.264,2.098 0.984,2.558 0.877,0.392 1.316,-0.341 2.066,-0.098 0.784,-0.585 0.151,-2.201 0.099,-2.756 -0.03,-0.227 0.283,-0.109 0.295,-0.295 1.114,0.484 2.644,1.151 3.936,0.394 0.164,0.296 0.533,0.385 0.787,0.591 0.475,1.873 1.4,4.04 1.969,6.396 0.584,2.423 0.848,4.956 1.574,6.79 0.176,0.442 0.983,0.932 1.477,1.181 0.196,0 0.393,0 0.59,0 0.521,-0.562 1.9,-0.169 2.066,-1.279 0.262,-10e-4 0.562,0.037 0.689,-0.099 0.198,-0.293 0.407,-0.575 0.393,-1.082 0.714,0.185 1.729,0.096 2.165,-0.295 -0.016,-0.114 0.022,-0.176 0.099,-0.197 0,-0.59 0,-1.181 0,-1.771 -1.587,-4.152 -3.795,-7.685 -5.609,-11.611 0.664,-0.008 0.233,1.08 1.083,0.886 0.44,-0.824 0.114,-1.695 0.295,-2.559 0.124,-0.588 0.52,-1.029 0.591,-1.574 0.074,-0.572 0.051,-1.314 0,-1.968 -0.172,-2.233 -0.947,-5.186 -1.771,-6.986 -0.385,-0.842 -1.01,-1.457 -1.279,-2.264 -0.129,-0.387 -0.055,-0.856 -0.197,-1.279 -0.264,-0.786 -0.803,-1.687 -1.18,-2.559 -0.87,-2.008 -2.12,-3.378 -3.346,-4.723 C 19.402,8.018 18.284,5.936 18.501,4.529 16.891,2.233 15.098,0.122 11.316,0 z"
   id="path3"
   style="fill-rule:evenodd" />
</svg>