<?xml version="1.0" standalone="no"?>
<!DOCTYPE svg PUBLIC "-//W3C//DTD SVG 20010904//EN"
 "http://www.w3.org/TR/2001/REC-SVG-20010904/DTD/svg10.dtd">
<svg version="1.0" xmlns="http://www.w3.org/2000/svg"
 width="1536.000000pt" height="1388.000000pt" viewBox="0 0 1536.000000 1388.000000"
 preserveAspectRatio="xMidYMid meet">
<metadata>
Created by potrace 1.16, written by Peter Selinger 2001-2019
</metadata>
<g transform="translate(0.000000,1388.000000) scale(0.100000,-0.100000)"
fill="#000000" stroke="none">
<path d="M3035 13874 c-16 -2 -73 -9 -125 -15 -111 -13 -303 -50 -410 -80
-131 -37 -692 -238 -778 -279 -102 -49 -155 -85 -257 -175 -115 -102 -209
-175 -295 -230 -91 -59 -396 -361 -551 -545 -212 -252 -282 -359 -293 -445 -3
-28 -24 -116 -46 -195 -44 -159 -75 -340 -115 -670 -31 -253 -102 -685 -140
-855 -24 -104 -26 -126 -16 -174 6 -30 11 -82 11 -115 0 -122 61 -565 110
-801 16 -77 40 -194 54 -260 14 -66 41 -228 61 -360 58 -393 152 -834 225
-1060 63 -193 76 -247 95 -382 21 -153 49 -254 96 -348 83 -166 246 -383 395
-525 90 -87 142 -120 187 -120 33 0 73 -34 86 -73 6 -17 10 -87 8 -153 l-2
-122 41 -79 c63 -121 163 -278 224 -352 107 -128 120 -159 145 -336 30 -214
73 -292 275 -490 130 -128 229 -243 260 -305 10 -20 38 -88 61 -151 116 -318
246 -527 363 -586 108 -53 139 -112 112 -208 -23 -77 -20 -177 8 -288 35 -137
69 -200 152 -282 101 -99 118 -131 149 -270 48 -212 109 -346 174 -380 16 -8
48 -17 72 -21 61 -9 113 -38 171 -92 71 -66 90 -109 83 -180 -14 -124 69 -260
295 -482 122 -120 171 -176 218 -250 103 -161 311 -371 480 -483 98 -66 126
-94 182 -188 44 -73 87 -108 184 -144 100 -38 245 -74 338 -84 107 -12 136
-26 183 -90 26 -37 46 -53 73 -61 22 -6 164 -10 340 -10 281 0 307 -1 360 -21
172 -62 239 -67 627 -45 368 21 497 33 615 57 185 37 260 79 260 145 0 79 -60
161 -267 365 -158 156 -243 227 -319 268 -119 63 -229 185 -259 284 -9 29 -22
123 -30 209 -8 86 -21 172 -28 191 -8 18 -71 89 -140 158 -113 113 -127 130
-142 181 -18 65 -78 153 -195 288 -108 125 -167 208 -185 261 -25 69 -60 123
-171 260 -119 147 -168 220 -182 272 -24 85 -155 221 -313 323 -113 74 -122
89 -139 244 -23 222 -74 290 -233 310 -88 11 -143 31 -215 78 -78 51 -103 96
-117 207 -10 81 -46 184 -75 215 -14 15 -45 33 -68 39 -22 7 -54 22 -69 35
-44 36 -67 46 -165 67 -145 32 -216 80 -246 168 -7 19 -12 48 -12 65 -1 104
-193 396 -261 396 -128 1 -306 302 -420 710 -33 119 -51 142 -162 200 -77 41
-132 91 -163 152 -13 26 -53 134 -90 240 -76 224 -99 268 -162 311 -161 112
-197 211 -158 440 22 127 16 157 -77 388 -41 101 -86 220 -101 265 -31 94 -67
140 -199 258 -48 42 -89 87 -92 99 -3 12 -7 67 -8 122 -4 126 -31 209 -138
425 -106 213 -212 370 -348 512 -61 65 -112 123 -113 130 -1 7 -2 65 -3 128
-1 106 -4 125 -42 240 -47 144 -73 265 -108 510 -24 171 -38 234 -69 315 -43
114 14 473 117 735 82 210 89 250 63 406 l-13 81 206 119 c203 118 449 277
546 354 121 96 462 177 785 186 91 3 186 10 213 16 28 6 81 32 129 64 55 37
91 54 112 54 18 0 90 -16 161 -36 71 -20 187 -49 257 -65 70 -16 169 -44 218
-64 109 -42 209 -61 391 -75 173 -13 217 -27 309 -96 41 -31 95 -66 120 -76
139 -61 622 -210 797 -248 67 -14 122 -34 200 -75 183 -94 541 -201 828 -246
152 -23 288 -55 375 -87 75 -27 218 -40 520 -47 325 -8 541 -22 607 -39 78
-21 118 -50 159 -117 59 -97 190 -184 315 -209 82 -17 103 -27 212 -108 138
-101 167 -113 303 -123 193 -14 322 -71 484 -213 99 -88 187 -141 326 -202 70
-30 184 -85 253 -123 151 -83 287 -144 373 -167 97 -27 223 -22 333 11 183 56
220 56 281 3 47 -41 79 -90 160 -239 119 -220 162 -271 285 -339 75 -42 125
-105 218 -277 87 -162 136 -227 237 -319 104 -94 136 -140 260 -371 52 -97
116 -209 142 -248 58 -88 152 -183 217 -220 60 -34 111 -80 131 -117 27 -52
43 -154 59 -368 24 -346 54 -492 123 -605 47 -77 46 -107 -7 -400 -46 -258
-66 -429 -56 -499 3 -28 15 -82 27 -119 23 -77 21 -101 -17 -232 -33 -114 -42
-220 -60 -690 -18 -468 -30 -640 -52 -750 -14 -70 -15 -132 -7 -510 10 -548
11 -531 -30 -731 -19 -94 -47 -253 -63 -355 -27 -178 -28 -195 -26 -524 3
-394 16 -653 39 -762 9 -43 45 -159 81 -258 58 -162 85 -250 124 -398 34 -133
138 -186 331 -166 174 17 261 93 444 384 77 121 164 222 200 231 41 10 89 78
113 158 12 41 44 181 72 312 78 377 82 388 184 454 176 115 247 270 311 682
33 215 45 256 90 301 21 20 41 37 45 37 15 0 52 74 70 141 10 39 39 191 64
338 50 295 66 353 127 454 24 40 42 84 45 110 3 23 -7 128 -22 232 -28 203
-55 509 -55 640 0 45 7 107 15 138 8 32 15 73 15 92 0 79 -33 283 -74 455 -49
202 -86 412 -86 475 0 22 12 87 26 145 30 121 29 160 -12 353 -33 157 -76 285
-124 373 -47 84 -49 108 -19 255 28 136 23 182 -45 404 -30 99 -69 229 -86
290 -35 120 -49 152 -90 205 -54 68 -86 183 -100 351 -12 146 -29 193 -132
356 -44 70 -95 158 -114 195 -24 48 -67 102 -145 184 -202 213 -259 296 -310
447 -39 116 -77 184 -187 338 -49 68 -113 165 -142 214 -93 159 -123 198 -250
326 -108 109 -133 130 -183 148 -32 12 -90 43 -130 70 -129 87 -220 125 -430
181 -147 39 -183 68 -430 342 -112 124 -203 185 -426 288 -274 127 -517 220
-1134 436 -54 19 -130 39 -170 45 -175 26 -290 65 -432 146 -104 59 -196 129
-325 248 -111 102 -181 143 -280 165 -30 6 -158 16 -285 20 -143 5 -249 14
-280 23 -50 14 -81 27 -320 132 -309 136 -535 204 -780 234 -105 13 -196 42
-270 86 -85 52 -133 62 -480 101 -514 57 -715 94 -779 145 -15 11 -35 38 -46
59 -59 116 -261 152 -613 111 -301 -35 -428 -28 -847 48 -300 54 -507 51 -670
-9 -45 -16 -112 -33 -149 -36 -75 -7 -162 8 -182 33 -26 30 -77 46 -189 58
-63 7 -135 21 -160 30 -105 39 -259 54 -395 39z"/>
</g>
</svg>
