<?xml version="1.0" encoding="UTF-8" standalone="no"?>
<!-- Created with Inkscape (http://www.inkscape.org/) -->

<svg
   xmlns:svg="http://www.w3.org/2000/svg"
   xmlns="http://www.w3.org/2000/svg"
   version="1.1"
   width="792"
   height="612"
   viewBox="0 0 792 612"
   id="Layer_1"
   xml:space="preserve"><defs
   id="defs559" />
<path
   d="m 314.637,456.9 c 0.098,0.069 0.273,0.062 0.403,0.1 -0.129,-0.046 -0.268,-0.069 -0.403,-0.1 z"
   id="path3" />
<path
   d="m 273.12,477.944 c -0.065,-0.05 -0.16,-0.079 -0.32,-0.064 0.117,0.023 0.216,0.044 0.32,0.064 z"
   id="path5" />
<path
   d="m 426.462,392.575 c -0.002,-0.047 -0.017,-0.093 -0.062,-0.136 0.017,0.046 0.039,0.091 0.062,0.136 z"
   id="path7" />
<path
   d="m 232.44,510.513 c 0.079,0.161 0.168,0.323 0.28,0.487 -0.058,-0.198 -0.157,-0.354 -0.28,-0.487 z"
   id="path9" />
<path
   d="m 137.495,422.87 c -0.018,0.015 -0.038,0.039 -0.055,0.05 l 0.047,-0.036 0.008,-0.014 z"
   id="path11" />
<path
   d="m 497.2,98.2 c 0.046,0.021 0.094,0.026 0.141,0.042 -0.04,-0.036 -0.085,-0.057 -0.141,-0.042 z"
   id="path13" />
<path
   d="m 518.4,390.279 c -0.038,0.283 0.041,0.682 -0.24,0.721 -0.105,-0.329 -0.109,-0.66 -0.124,-1.002 -0.02,-0.443 -0.057,-0.903 -0.356,-1.398 0.154,-0.807 1.151,-0.769 2.16,-0.72 -0.274,-0.704 -0.142,-0.892 0.48,-1.2 0.082,0.678 1.362,-0.376 1.92,0.721 -1.549,-2.756 1.529,-4.718 3.6,-3.121 1.028,-0.091 1.011,-1.229 1.68,-1.68 1.648,-0.288 2.441,0.279 2.641,1.44 0.037,-0.282 -0.041,-0.681 0.24,-0.72 0.032,0.768 -0.237,1.836 0.72,1.68 0.565,-0.555 0.569,-1.671 1.68,-1.68 0.19,1.631 -0.862,2.018 -0.96,3.359 1.409,-0.827 2.467,-3.027 1.92,-5.039 0.472,0.071 0.477,-0.324 0.721,-0.48 1.083,0.277 1.191,1.527 2.159,1.92 0.236,-0.388 0.641,-0.553 0.96,-0.24 0.357,-1.247 0.473,-4.462 1.92,-3.119 -0.27,-1.899 -0.732,-3.151 -1.439,-4.08 0.569,-0.361 0.239,-1.012 0.479,-1.201 0.575,-0.095 -0.133,1.094 0.721,0.721 -0.348,-1.207 0.734,-2.246 0.239,-3.6 0.457,-0.104 0.604,-0.518 1.2,-0.48 -0.333,-2.094 0.211,-2.824 -0.479,-4.561 0.419,-0.779 1.116,-1.283 1.92,-1.68 -0.255,-0.785 -0.754,-1.326 -1.2,-1.92 1.005,-2.485 2.617,-5.092 2.16,-7.68 1.049,-0.109 2.622,-0.104 4.56,0 0.08,-2.225 -0.79,-2.197 -1.68,-3.6 0.67,-1.011 2.541,-0.82 2.88,-2.16 -0.422,-0.059 -0.547,-0.414 -0.479,-0.961 0.568,-0.391 1.308,-0.611 1.439,-1.439 -0.481,-1.123 -3.17,-1.305 -2.88,-2.4 0.689,1.055 1.835,-0.631 2.16,-1.439 -0.134,-0.586 -0.929,-0.512 -0.72,-1.44 -0.876,-0.213 -1.279,0.424 -1.681,0 0.585,-0.505 -0.212,-1.067 0.24,-1.44 1.954,-0.301 1.111,0.77 1.68,0.961 1.198,-1.161 2.633,-0.01 3.12,0.959 0.747,-0.772 0.848,-2.191 2.16,-2.399 -0.185,-0.904 0.293,-1.147 0.24,-1.92 -1.062,-0.183 -0.825,0.935 -1.44,1.2 0.22,-0.421 0.083,-1.197 0.48,-1.439 0.56,-0.001 1.12,0 1.68,0 0.027,-0.293 0.072,-0.568 0.48,-0.48 0.056,-1.176 -0.423,-1.817 -0.24,-3.12 -1.142,0.021 -0.781,-1.459 -1.44,-1.92 1.543,-0.183 2.637,0.083 3.36,0.72 0.33,-0.308 0.418,-1.436 -0.24,-1.439 -0.022,0.377 0.032,0.832 -0.479,0.72 0,-0.64 0,-1.28 0,-1.921 -1.015,-0.346 -1.764,-0.956 -2.16,-1.92 0.614,-0.693 0.743,-1.648 0.72,-2.399 1.924,0.175 2.092,-0.715 3.84,-0.239 0.329,-0.97 -0.43,-0.851 -0.72,-1.201 1.275,-0.074 5.121,-17.361 5.04,-19.2 0.4,0 0.8,0 1.2,0 0.279,-1.174 -0.204,-2.266 0.96,-2.88 -0.82,-0.88 -1.105,-1.119 -1.2,-2.16 0.68,0.25 1,0.25 1.68,0"
   id="path15" />
<path
   d="M 517.12,391"
   id="path17" />
<path
   d="m 570.424,293.934 c 0.939,-0.1 1.264,-0.816 2.16,-0.96 0.797,0.7 3.453,0.631 4.32,0.48 -0.576,-1.503 -3.189,-0.971 -3.6,-2.64 0.24,0 0.285,-0.195 0.48,-0.24 0.463,0.417 1.215,0.543 1.68,0.96 -0.17,-1.845 0.52,-3.013 0.959,-4.8 -0.758,-0.042 -1.432,-0.169 -1.439,-0.96 1.426,0.066 2.502,-0.219 2.641,-1.44 -1.256,-0.258 -1.154,-2.632 -2.4,-2.16 0.227,-1.092 -1.221,-2.412 -1.68,-3.6 -0.535,0.104 -1.303,0.551 -1.441,-0.24 0.051,-0.27 0.268,-0.374 0.48,-0.48 2.293,0.129 6.092,2.175 7.68,-0.24 -1.113,0.006 -1.434,0.807 -2.879,0.48 -0.586,-1.574 -2.781,-1.54 -3.84,-2.64 0.098,-0.754 0.941,-1.482 0,-1.92 0.789,-0.009 1.697,0.098 1.68,-0.72 -0.324,-0.625 -1.676,0.151 -1.68,-0.24 0,-0.24 0,-0.48 0,-0.72 0.879,0 1.76,0 2.639,0 -0.525,-0.993 -1.682,-1.357 -2.639,-1.92 0.348,-0.131 1.24,0.281 1.199,-0.24 -0.654,-0.786 -2.061,-0.819 -2.4,-1.92 0.34,-0.461 1.166,-0.435 1.68,-0.72 0.258,-0.896 -0.596,-0.684 -0.479,-1.44 1.566,-0.434 3.094,-0.905 2.639,-3.36 -0.678,-0.199 -0.621,0.338 -1.199,0.24 0.018,-1.217 -0.85,-1.551 -0.961,-2.64 0.945,-1.055 3.25,-0.751 4.561,-1.44 0.156,1.205 2.035,0.685 2.641,1.44 -1.281,-2.984 -3.945,-3.743 -6,-5.52 1.49,-0.909 1.471,-3.329 4.08,-3.12 0.555,0.325 0.795,0.965 1.92,0.72 0.166,-1.286 -1.293,-0.946 -1.92,-1.44 -0.416,-1.587 -0.234,-3.832 0.959,-5.04 -0.367,-0.753 -1.631,-0.609 -1.68,-1.68 1.219,0.158 1.805,-0.72 0.721,-0.96 0.744,0.023 1.33,-0.109 1.68,-0.48 -0.352,-0.209 -0.762,-0.359 -0.721,-0.96 0.455,0.054 0.529,-0.271 0.961,-0.24 0.115,-0.756 -0.736,-0.543 -0.48,-1.44 0.236,-0.644 1.51,-0.25 1.92,-0.72 -0.965,-0.568 -2.076,0.49 -2.16,-0.96 -0.096,-0.575 1.094,0.133 0.721,-0.72 -1.078,-0.155 -1.885,0.662 -2.4,-0.24 1.119,0.125 2.986,-0.128 3.119,-1.68 1.959,0.846 2.947,-0.697 4.801,-0.96 2.428,-0.344 4.459,0.677 6.48,0 0.174,-0.733 -0.246,-0.875 -0.24,-1.44 2.447,-1.678 6.799,-2.541 10.801,-2.64 1.547,-3.14 5.457,-2.445 7.92,-4.56 0.396,0.402 1.408,0.191 2.158,0.24 0.055,-0.454 -0.27,-0.529 -0.238,-0.96 2.117,-0.202 3.213,-1.427 5.039,-1.92 0,-0.959 -0.479,-1.44 -0.48,-2.4 0.285,-0.276 0.85,-0.272 1.441,-0.24 0.004,0.716 0.623,0.816 0.719,1.44 0.945,-0.186 1.246,0.106 1.68,-0.24 -0.637,-0.5 1.355,-0.39 1.201,-1.2 1.582,0.016 1.92,0.204 3.359,0 0.055,0.454 4.561,-1.6 4.561,-2.4 1.752,-0.285 2.432,-0.89 4.32,-0.48 0.383,-0.418 0.586,-1.351 1.68,-0.72 0.357,-1.474 1.82,-1.91 3.119,-1.2 0.039,-0.283 -0.041,-0.681 0.24,-0.72 1.723,0.302 2.539,-1.378 4.08,-0.48 0,-0.48 0,-0.96 0,-1.44 -0.584,-0.136 -1.234,-0.206 -1.199,-0.96 0.773,-0.069 1.676,-0.472 0.719,-0.96 1.736,0.216 2.035,0.555 3.602,0 0.096,0.784 0.666,1.093 0.719,1.92 0.641,0 1.281,0 1.92,0 0.186,-1.767 2.845,-1.439 3.669,-2.272 -0.314,-1.048 20.779,-5.129 20.246,-5.6 -0.133,0.346 18.33,-6.488 17.984,-6.354 -9.487,-1.598 -11.891,-0.828 -15.714,0.149 -0.094,-0.343 -15.798,2.5 -15.511,2.185 -1.654,-0.025 -9.066,0.328 -12.945,0.407 -0.205,0.606 -2.71,1.928 -3.489,1.166 0.24,0 0.48,0 0.721,0 -0.15,-1.646 -1.525,-0.822 -2.4,-1.92 -0.668,-0.108 0.188,1.308 -0.48,1.2 -1.408,0.417 -2.156,-0.729 -2.879,-0.24 -0.232,0.871 1.078,0.202 0.959,0.96 -0.896,-0.465 -1.473,0.309 -2.16,0.24 -1.713,-0.171 -1.895,-1.278 -3.359,-2.16 0.014,0.786 0.682,0.917 0.48,1.92 -0.561,0 -1.121,0 -1.68,0 -0.221,3.58 -4.932,2.04 -7.682,1.92 -0.076,0.804 -0.246,1.513 -0.719,1.92 0.143,-0.624 -0.098,-0.864 -0.721,-0.72 0.01,0.331 -0.113,0.527 -0.24,0.72 0.283,0.038 0.682,-0.041 0.721,0.24 -1.365,0.127 -3.377,0.573 -4.32,-0.72 -0.754,0.505 -0.928,0.505 -1.68,0 -0.148,0.333 -0.924,0.036 -0.961,0.48 1,0.602 -1.967,1.171 -2.398,1.92 -0.996,-1.498 -1.969,-0.289 -3.842,-0.48 -0.295,0.777 0.777,0.184 0.48,0.96 -0.695,0.584 -1.951,0.608 -2.879,0.96 -0.104,-0.457 -0.518,-0.603 -0.48,-1.2 -0.818,-0.178 -0.396,0.884 -0.961,0.96 -0.264,-0.48 -1.287,0.292 -2.16,0 0.076,-0.325 0.342,-0.458 0.24,-0.96 -0.904,0.185 -1.146,-0.293 -1.92,-0.24 -0.348,0.908 0.66,0.46 0.48,1.2 -0.209,0.351 -0.359,0.761 -0.959,0.72 0,-0.64 0,-1.28 0,-1.92 -2.301,2.098 -3.363,2.167 -7.201,1.44 -0.041,-0.359 0.086,-0.886 -0.24,-0.96 -1.541,1.177 -3.312,-0.593 -4.32,-1.44 0.947,-0.654 3.682,0.481 3.84,-0.96 -1.555,-0.757 -3.518,-0.061 -4.318,-1.2 0.398,0 0.799,0 1.199,0 0.297,-0.776 -0.777,-0.183 -0.48,-0.96 1.707,-0.638 2.793,-0.256 4.32,0.24 0.348,-0.908 -0.66,-0.46 -0.48,-1.2 0.455,-0.426 1.586,-0.175 2.4,-0.24 0,0.24 0,0.48 0,0.72 1.355,0.155 2.348,-0.052 2.4,-1.2 -1.803,-0.958 -7.898,-0.65 -6.24,-2.16 -0.805,-0.076 -1.512,-0.247 -1.92,-0.72 2.057,-1.422 5.885,0.356 8.641,-0.72 0.525,0.5 -0.211,0.775 0.24,1.2 1.197,-0.342 1.492,-1.091 1.199,-2.4 -2.92,-1.428 -5.578,1.706 -8.16,-0.48 0.412,-0.308 0.006,-1.435 0.721,-1.44 0.193,0.814 1.562,0.451 0.959,1.44 0.559,0.487 1.016,-0.582 1.68,-0.72 -2.719,-3.213 2.25,-1.989 3.361,-3.6 -1.916,-0.005 -4.139,0.298 -4.801,-0.96 -0.041,0.359 0.086,0.886 -0.24,0.96 -0.484,-0.555 -0.797,-1.282 -1.68,-1.44 -0.023,0.377 0.031,0.832 -0.48,0.72 0.363,-1.493 -1.352,-1.466 -1.439,-3.12 1.166,0.034 1.645,0.755 1.92,1.68 2.25,-0.263 3.645,-0.69 5.76,0 -0.229,-0.447 0.719,-0.802 0,-0.96 -0.672,0.723 -0.395,-0.534 0,-0.72 -1.582,-1.377 -4.512,-1.408 -5.76,-3.12 0.18,-0.542 1.346,-0.094 1.92,-0.24 0.188,-1.455 -1.148,-1.015 -0.48,-2.4 -1.568,0.889 -3.088,0.463 -4.559,-0.48 0.691,-0.029 1.57,0.131 1.92,-0.24 -0.297,-1.784 -3.67,-0.491 -4.08,-2.16 0.525,-0.783 0.957,-1.435 2.16,-0.96 -0.18,-0.739 0.658,-0.461 0.479,-1.2 -0.166,-0.473 -1.338,0.059 -1.439,-0.48 0.508,-0.549 -0.107,-0.85 0.24,-1.68 0.689,0.049 1.219,-0.061 1.439,-0.48 -0.422,-0.138 -1.41,0.291 -1.439,-0.24 0,-0.32 0,-0.64 0,-0.96 0.641,0 1.279,0 1.92,0 0,0.4 0,0.8 0,1.2 0.691,0.029 1.57,-0.131 1.92,0.24 -0.311,-1.096 0.596,-2.48 -0.24,-2.64 -0.758,1.003 -2.207,0.163 -2.639,-0.48 0.076,-0.563 0.742,-0.537 0.959,-0.96 -0.641,0 -1.279,0 -1.92,0 -0.023,0.377 0.031,0.832 -0.48,0.72 -0.467,-1.293 -3.152,-0.366 -3.359,-1.92 0.338,-0.863 1.379,-1.021 1.68,-1.92 -0.799,-1.122 -3.443,-0.397 -4.801,-0.96 0.697,-0.263 1.705,-0.217 2.4,-0.48 0.154,-1.003 -0.896,-0.95 0,-1.44 -0.957,-0.552 -2.873,1.073 -2.879,-1.2 1.383,0.184 2.049,-0.35 2.879,-0.72 -0.623,-0.896 -2.941,-0.099 -3.84,-0.72 0.414,0.013 0.615,-0.185 0.721,-0.48 -0.447,-0.033 -0.803,-0.158 -0.961,-0.48 0.041,-1.123 0.617,-0.797 0.24,-1.92 2.18,0.019 3.131,-1.19 5.041,-1.44 -1.535,6.274 -14.307,-11.827 -4.32,-12 0,0.48 -4.527,2.126 -5.041,0.96 0.594,-0.356 0.684,-2.223 -0.719,-1.92 -0.055,0.454 0.27,0.529 0.24,0.96 -0.42,-0.551 -2.133,0.446 -2.4,0 0.203,-0.517 1.529,0.09 1.68,-0.48 -0.279,-0.041 -0.26,-0.379 -0.24,-0.72 1.311,-0.377 2.238,-0.988 3.6,-0.72 0.391,-0.57 0.541,-1.38 0.961,-1.92 0.957,-0.529 1.717,0.069 2.879,0 0,-0.64 0,-1.28 0,-1.92 -2.523,-0.443 -2.324,1.834 -4.799,1.44 0.275,1.316 -1.502,0.579 -1.92,1.2 0.293,0.027 0.568,0.072 0.479,0.48 -2.324,0.425 -5.324,0.625 -7.199,-0.48 0.566,-0.074 0.447,-0.833 1.199,-0.72 0.463,0.098 0.191,0.93 0.961,0.72 0.414,-0.146 -0.018,-1.138 0.48,-1.2 1.096,-0.135 1.494,0.425 2.639,0.24 0.617,-0.617 0.096,-1.128 0.961,-1.68 -0.754,0.034 -0.824,-0.616 -0.961,-1.2 0.496,-0.785 1.604,-0.957 2.4,-1.44 -0.08,0.88 1.219,0.382 0.961,1.44 0.639,0 1.279,0 1.92,0 0,-0.72 0,-1.44 0,-2.16 -1.912,-0.281 -2.875,0.989 -3.84,-0.24 -1.119,2.058 -3.779,0.492 -4.801,-0.24 1.852,-0.708 1.791,-3.329 3.84,-3.84 0,0.64 0,1.28 0,1.92 0.48,0 0.961,0 1.439,0 -0.018,-0.862 0.195,-1.954 -0.479,-2.16 0.748,-0.372 1.945,-0.295 1.92,-1.44 -2.064,0.545 -3.545,0.933 -5.76,1.68 -0.09,0.791 -0.562,1.199 -0.961,1.68 -0.449,-0.27 -0.51,-0.93 -0.959,-1.2 -0.24,1.04 0.268,1.332 0.479,1.92 -0.764,-0.676 -2.918,0.038 -3.119,-1.2 0.088,-0.646 1.385,-1.317 0.48,-2.16 -0.869,1.052 -1.312,2.528 -3.602,2.16 -0.328,0.547 0.619,0.902 0,0.96 -0.691,-0.785 -1.887,0.996 -2.639,-0.24 0.473,-0.728 1.211,-1.188 2.639,-0.96 0,-0.48 0,-0.96 0,-1.44 1.193,-0.168 1.615,-1.493 3.121,-1.92 1.736,-0.492 4.346,0.579 4.08,-2.16 -0.338,-0.062 -0.273,-0.526 -0.48,-0.72 -0.912,0.716 -1.551,-0.344 -3.359,0 -0.109,-0.771 -0.934,-0.826 -1.439,-1.2 -0.039,0.282 0.041,0.681 -0.24,0.72 -0.527,-0.601 -1.5,-2.01 -2.16,-1.68 1.4,1.706 -0.09,4.071 -2.16,3.84 0.488,0.071 0.639,0.481 0.959,0.72 0.32,-0.721 0.941,-1.14 2.16,-0.96 -0.053,0.772 0.426,1.015 0.24,1.92 -0.785,0.574 -1.91,0.81 -3.119,0.96 -0.215,-0.586 -0.561,-1.041 -0.48,-1.92 -1.873,-1.124 -2.518,0.531 -4.561,0.24 -0.258,-0.633 -0.953,-2.072 -1.92,-1.2 1.314,0.588 -1.693,0.426 -2.16,0 2.072,-1.129 4.389,-2.011 5.76,-3.84 0.32,0 0.641,0 0.961,0 -0.029,-0.61 -0.35,-0.931 -0.961,-0.96 -0.775,0.664 -1.508,1.373 -2.16,2.16 -0.879,-0.718 -1.312,0.679 -2.398,0 -1.236,1.949 -5.105,2.349 -7.682,2.64 2.256,-0.17 2.807,-3.241 4.801,-2.88 0.055,-0.454 -0.27,-0.529 -0.24,-0.96 0.738,-0.542 1.945,-0.616 1.92,-1.92 -1.074,-0.354 -0.736,0.703 -1.68,0.48 -0.568,-0.952 -1.629,-1.412 -2.16,-2.4 1.184,-0.018 1.414,-0.986 1.68,-1.92 -1.863,0.434 -3.48,1.417 -5.52,0.48 2.168,-0.237 1.799,-0.596 0,-1.2 0.129,0.849 -0.203,1.237 -0.721,1.44 -0.875,-0.456 -1.496,0.327 -2.158,-0.24 0.529,0.082 1.691,-1.054 0.959,-0.72 -0.053,0.187 -0.201,0.279 -0.48,0.24 -0.023,-0.745 0.756,-0.685 0.48,-1.68 0.611,-0.028 1.234,-0.045 1.199,-0.72 -1.234,-0.296 -2.68,1.116 -3.119,2.4 -0.865,0.142 -1.609,0.405 -2.4,0 -0.338,1.421 -2.369,1.15 -3.359,1.92 0.053,-0.454 -0.271,-0.529 -0.24,-0.96 0.818,-1.022 2.225,-1.455 3.359,-2.16 0.273,-1.052 0,-0.788 -0.24,-1.68 -1.514,-0.318 -2.314,0.932 -3.84,0.24 0.59,-1.891 2.686,-2.276 2.881,-4.56 -1.189,0.218 -1.42,0.464 -1.92,0.96 0.004,0.396 0.666,0.134 0.721,0.48 -1.35,0.411 -2.836,0.685 -3.842,1.44 0.941,-1.699 3.08,-2.201 4.08,-3.84 -0.186,-0.054 -0.473,-0.006 -0.479,-0.24 -0.727,0.814 -1.777,0.808 -2.641,0.96 0.062,0.395 -2.312,1.677 -3.359,0.96 0.387,-0.414 0.471,-1.127 0.959,-1.44 -1.033,-1.083 -2.418,0.48 -3.359,0.96 -0.303,-0.099 -0.49,-0.31 -0.48,-0.72 1.461,-0.066 0.01,-0.146 0,-0.48 -0.049,-1.697 2.617,-0.666 3.359,-2.4 -1.445,0.396 -3.58,1.375 -5.039,0.96 1.066,-0.039 0.268,-1.687 -0.48,-1.44 -0.617,2.792 -3.395,2.054 -5.76,2.88 -0.004,-0.805 0,-1.6 0.961,-1.44 -0.277,-0.672 -0.277,-1.248 0,-1.92 -1.057,-0.323 -1.506,1.196 -1.92,0.72 0,-0.56 -0.002,-1.12 0,-1.68 -1.475,-0.115 -2.48,0.241 -3.602,0.48 0.051,0.469 -0.369,1.454 -1.199,0.72 1.145,-1.574 3.5,-1.94 4.08,-4.08 -1.898,0.342 -2.787,1.692 -4.08,2.64 -1.193,-0.042 -1.502,-0.258 -2.641,-0.72 -1.371,0.886 -2.465,1.014 -4.799,1.2 -0.617,1.142 -1.578,2.151 -2.881,1.44 0.795,-0.886 1.037,-2.323 1.68,-3.36 -0.629,-0.331 -0.826,-1.094 -1.68,-1.2 -2.59,0.61 -4.85,2.829 -7.199,2.88 2.674,-2.045 5.426,-4.013 6.959,-7.2 -2.439,-1.069 -3.127,4.807 -5.76,4.32 0.045,-1.335 1.291,-2.133 2.16,-1.92 -0.488,-1.272 -1.939,-1.581 -1.439,-3.84 0.801,0.447 1.01,-0.863 0.479,-0.96 -0.982,0.809 -2.158,1.61 -3.219,1.242 0.242,0.225 0.195,1.251 -0.141,1.158 -0.506,-1.074 -2.943,0.253 -2.16,1.2 0.744,0.715 0.631,-0.779 1.441,-0.72 -0.162,0.878 -0.965,1.116 -1.201,1.92 -0.494,-0.786 -1.242,-1.318 -1.92,-1.92 0.951,0.154 0.314,-1.143 0,-1.2 -1.42,0.9 -1.809,2.832 -4.32,2.64 -0.201,0.279 -0.316,0.644 -0.24,1.2 -0.387,0.041 -1.236,0.805 -1.439,0.24 0.098,-0.462 0.93,-0.189 0.721,-0.96 -0.951,-0.31 -0.49,0.79 -1.441,0.48 0.002,-0.241 -0.193,-0.286 -0.238,-0.48 -0.344,-1.144 1.002,-0.596 0.719,-1.68 -0.965,0.003 -2.496,0.691 -3.119,0.24 0.998,-1.321 1.887,-2.753 2.639,-4.32 -0.623,0.144 -0.863,-0.096 -0.719,-0.72 -1.223,-0.102 -2.219,0.022 -2.641,0.72 1.559,0.131 -0.162,2.32 -1.199,2.16 1.146,0.766 -1.678,2.438 -2.641,1.92 0.277,-0.256 0.088,-1.105 -0.24,-1.44 -1.24,0.28 -0.771,2.268 -2.16,2.4 -0.605,-0.863 -1.619,-0.625 -2.639,-1.44 0.031,0.993 -0.547,1.375 -0.961,1.92 -0.398,-0.481 -0.871,-0.889 -0.959,-1.68 0.713,-0.416 1.217,0.078 1.68,-0.24 -0.562,-1.277 0.473,-1.14 0.959,-1.92 -0.4,-0.318 -0.805,-0.636 -1.68,-0.48 0.057,-1.097 -1.117,-0.963 -0.959,-2.16 -0.574,-0.146 -1.742,0.301 -1.922,-0.24 0,-0.24 0,-0.48 0,-0.72 1.219,-0.062 1.736,-0.825 1.922,-1.92 -1.51,-0.088 -2.473,1.445 -3.842,0.72 -0.143,0.497 0.297,1.577 -0.238,1.68 -1.846,-1.414 -3.879,1.904 -5.041,1.92 1.012,-0.725 -0.641,-0.208 -1.68,-0.48 -1.025,1.137 -3.148,2.449 -4.561,2.4 0.082,-0.799 0.98,-0.78 0.961,-1.68 -2.545,0.57 -4.621,3.044 -6.721,3.6 0.412,-2.337 1.033,-2.978 1.68,-5.04 -0.277,-0.201 -0.643,-0.316 -1.199,-0.24 -0.785,1.536 -1.482,3.157 -3.121,3.84 0.311,-1.129 0.973,-1.065 0,-1.92 1.145,-0.296 1.945,-0.936 1.92,-2.4 -2.697,1.062 -4.338,3.181 -6.479,4.8 -0.012,-0.812 0.559,-1.041 0.959,-1.44 -0.828,-0.708 -1.268,0.51 -1.68,0.96 -2.182,-0.258 -2.902,2.214 -4.08,2.16 0.922,-0.804 0.691,-0.99 0,-1.44 0.051,-0.837 1.682,-1.803 0.48,-2.4 0.203,0.706 -0.65,1.559 -0.961,0.96 0.74,-0.271 0.371,-1.206 -0.24,-1.44 -0.473,0.74 -1.148,0.84 -1.68,1.44 0.059,-0.067 0.369,0.288 0.24,0.48 -1.186,1.769 -3.107,1.435 -3.84,2.16 -0.199,-1.32 -0.775,-2.265 -1.199,-3.36 0.492,-0.585 1.119,-2.649 1.92,-1.44 -0.32,-1.575 1.373,-1.664 0,-2.4 -1.109,4.119 -6.312,2.66 -7.441,6.72 -0.635,-0.003 -1.412,0.133 -1.439,-0.48 0.033,-0.911 0.783,-1.987 0.24,-3.12 -1.303,1.222 -1.047,3.086 -2.16,4.8 0.182,-0.902 -0.627,-0.812 -0.959,-1.2 -0.268,1.068 0.635,0.965 0.719,1.68 -1.289,0.394 -1.555,3.08 -2.639,2.88 0.914,-1.585 2.381,-5.11 1.439,-6.96 -0.07,1.505 -2.252,1.604 -1.201,2.88 -0.428,-0.941 -1.762,-0.032 -1.92,-0.24 -0.004,-0.352 1.014,-0.761 0,-0.72 -0.609,1.231 -0.68,3 -1.68,3.84 -0.541,-0.179 -0.094,-1.346 -0.24,-1.92 0.359,-0.041 0.887,0.086 0.961,-0.24 -1.424,0.064 -0.863,-1.857 -0.961,-3.12 -1.852,0.672 0.592,4.949 -1.92,6 0,-0.4 0,-0.8 0,-1.2 -0.955,0.484 -1.166,1.712 -1.92,2.4 -0.041,-0.359 0.086,-0.886 -0.24,-0.96 -0.113,1.086 -1.691,0.707 -1.92,1.68 -0.053,-0.187 -0.201,-0.279 -0.479,-0.24 -0.1,-0.578 0.438,-0.522 0.238,-1.2 -0.783,-0.177 -0.801,-1.118 -1.68,-1.2 -0.389,1.032 -1.215,2.702 -1.92,2.64 -0.266,1.02 -0.67,3.162 -1.68,2.64 0.562,-1.118 0.252,-3.107 1.439,-3.6 -0.623,-0.646 -0.723,0.293 -1.439,0.24 0.213,1.657 -0.561,3.593 -1.92,2.88 0.246,-0.955 1.053,-1.348 0.721,-2.88 -0.48,0 -0.961,0 -1.441,0 -0.371,0.748 -0.295,1.945 -1.439,1.92 0,0.64 0,1.28 0,1.92 -1.062,-0.182 -0.824,0.935 -1.439,1.2 -0.131,-0.89 -1.434,0.348 -1.68,-0.72 0.422,-0.808 -0.162,-1.23 0,-2.4 -2.613,-0.772 -0.852,2.829 -2.64,2.88 -0.761,-1.462 -2.636,-0.372 -4.32,-0.96 0.444,1.283 -0.293,2.927 -0.72,4.08 -0.117,-0.284 -0.257,-0.544 -0.48,-0.72 -0.049,1.587 0.332,2.527 -0.24,3.84 -0.078,-1.166 -1.407,-0.364 -0.479,-1.44 -0.766,-0.206 -0.742,0.377 -1.2,0.48 -0.405,-0.555 -0.622,-1.298 -0.48,-2.4 0.701,0.067 0.825,-0.058 0.48,-0.48 -0.853,-0.675 -0.7,4.154 -1.92,1.68 -0.185,1.145 0.854,1.065 0.72,2.16 -0.663,0.103 -0.225,-0.895 -0.72,-0.96 0.092,1.292 -0.393,2.007 -0.96,2.64 -3.408,0.688 -1.678,-3.762 -4.8,-3.36 0.615,1.103 -0.31,2.469 0.479,3.12 -1.508,0.134 -0.157,1.636 -1.439,1.92 -0.479,-0.801 -0.963,-1.598 -0.96,-2.88 -0.48,0 -0.96,0 -1.44,0 0.078,1.874 0.222,2.567 -0.479,3.84 -0.106,-0.454 0.326,-1.446 -0.48,-1.2 -1.235,0.25 0.379,1.859 -0.48,2.4 -1.269,0.389 -0.466,-1.293 -1.439,-1.2 -0.463,1.192 0.733,2.792 -0.48,3.84 -0.319,0 -0.64,0 -0.96,0 -0.02,-1.5 -1.451,-1.588 -2.64,-1.92 -0.24,-1.44 -0.932,-2.429 -2.16,-2.88 -0.713,1.338 0.596,1.943 -0.24,2.88 1.8,1.911 -0.551,3.916 -0.96,5.76 0.349,0.131 1.241,-0.281 1.2,0.24 0.084,1.444 -0.989,1.731 -1.2,2.88 -0.56,0 -1.12,0 -1.68,0 -0.03,0.77 -0.529,1.071 -0.72,1.68 -0.388,-0.332 -0.298,-1.142 -1.2,-0.96 -0.168,0.711 0.501,2.262 -0.72,1.92 -0.252,1.221 1.5,1.688 0.72,2.64 -0.038,-0.283 0.041,-0.681 -0.24,-0.72 -0.197,0.777 0.299,2.076 0,2.16 -1.209,-0.643 -1.812,-1.423 -1.68,-2.88 -1.302,0.236 -1.583,3.343 -0.96,3.36 -0.981,0.428 -0.498,0.649 0,1.2 -0.596,0.311 -1.165,-0.536 -1.2,0 0.352,0.208 0.761,0.359 0.72,0.96 -0.002,1.357 -2.157,0.563 -2.64,1.44 -0.402,-0.318 -0.804,-0.636 -1.68,-0.48 -0.595,-0.845 -0.634,-2.246 -1.92,-2.4 0,0.72 0,1.44 0,2.16 0.167,0.474 1.339,-0.059 1.44,0.48 -0.383,0.337 -0.613,0.827 -0.72,1.44 1.132,1.346 0.928,1.86 1.2,3.36 -0.709,-0.251 -0.705,-1.215 -1.92,-0.96 0.481,-0.716 -0.278,-1.851 -0.96,-2.16 -0.71,0.42 0.139,1.279 0,1.92 -0.48,0 -0.96,0 -1.44,0 -0.152,0.952 0.913,0.688 0.72,1.68 -0.548,-0.412 -1.692,-0.228 -2.16,-0.72 0.375,-0.585 1.293,-0.627 1.44,-1.44 -0.629,-0.251 -0.491,-1.269 -1.2,-1.44 -0.865,0.498 0.446,2.082 -0.24,2.4 0.175,-0.428 -0.815,-0.742 -1.44,-0.24 0.216,1.345 2.919,2.625 1.92,3.6 1.506,4.894 -3.75,1.32 -4.32,-0.96 -2.801,-0.243 -1.264,-0.104 -0.24,0.96 -0.945,0.653 1.029,1.663 0,2.4 -0.478,-0.723 -1.693,-0.707 -2.64,-0.96 0.072,0.472 -0.324,0.476 -0.48,0.72 0.948,0.295 0.695,1.076 0.24,1.68 2.473,-0.883 2.803,2.453 2.4,3.84 -1.161,0.59 -2.082,-0.892 -3.12,-1.2 -0.092,0.892 0.973,0.627 0.72,1.68 -0.317,0.003 -0.22,0.421 -0.48,0.48 -0.51,-0.24 -1.07,-1.062 -1.68,-0.48 -0.289,0.819 1.577,1.886 0.24,2.88 -1.604,0.109 -2.611,-1.472 -3.6,-1.2 0.424,1.975 2.192,1.437 2.16,4.08 -0.68,0.25 -1,0.25 -1.68,0 -0.184,0.548 -0.904,1.497 0.24,1.44 0.575,0.095 -0.133,-1.093 0.72,-0.72 1.095,-0.001 0.416,2.037 1.68,1.2 0.04,0.387 0.805,1.237 0.24,1.44 -0.521,-0.519 -0.559,-0.345 -1.44,-0.72 -0.163,0.558 -0.613,0.827 -0.96,1.2 -0.932,-1.096 -2.724,-2.008 -3.6,-0.24 1.667,1.408 -0.316,3.315 0.24,4.56 -0.904,-0.104 -1.093,0.507 -1.44,0.96 0.789,0.492 1.541,1.02 1.68,2.16 -1.263,0.37 -1.574,-0.109 -3.12,-0.24 0.257,0.703 0.681,1.239 0.48,2.4 0.596,-0.036 1.165,-0.045 1.2,0.48 -0.704,0.803 0.589,0.992 0,1.44 -0.359,-0.878 -1.687,-0.398 -2.16,0 -0.205,-1.396 -0.143,-3.057 -1.44,-3.36 -0.051,0.269 -0.267,0.374 -0.48,0.48 0.329,0.404 0.89,1.812 0.24,2.4 -0.49,-0.151 -0.067,-1.213 -0.96,-0.96 -0.436,1.036 0.258,2.265 0.48,3.36 -0.832,0.309 -1.917,0.834 -2.64,0 0.003,-0.396 0.666,-0.134 0.72,-0.48 -1.593,-0.393 -1.615,0.784 -2.64,0.96 -0.287,0.913 0.685,3.085 -0.72,2.88 -0.075,1.894 0.858,4.018 0,5.28 -0.477,-0.003 -0.305,-0.655 -0.96,-0.48 0.067,0.627 0.081,1.201 -0.72,0.96 -0.054,0.454 0.27,0.529 0.24,0.96 -0.458,-0.103 -0.434,-0.686 -1.2,-0.48 -0.412,0.308 -0.005,1.435 -0.72,1.44 0.737,-1.024 -0.674,-1.706 0.24,-2.4 -2.06,1.248 -0.678,5.585 -2.16,7.2 -0.412,-0.821 0.264,-1.487 -0.24,-2.4 -2.398,0.474 1.078,4.964 -1.68,5.28 -0.082,1.652 0.062,2.069 -0.48,3.12 0.126,-1.007 -0.419,-1.341 -0.48,-2.16 -1.01,0.601 -1.06,-0.691 -0.72,-1.44 -1.26,-0.06 -0.609,1.791 -1.2,2.4 -0.396,-0.004 -0.134,-0.666 -0.48,-0.72 -1.746,1.722 -0.66,5.054 -1.2,7.68 -0.034,-0.926 0.188,-2.108 -0.48,-2.4 0,1.04 0,2.08 0,3.12 -2.162,0.112 -1.135,3.086 -2.88,4.08 0,-0.4 0,-0.8 0,-1.2 -1.034,-0.314 -0.297,1.143 -1.2,0.96 -0.131,-0.349 0.28,-1.241 -0.24,-1.2 -0.689,0.67 -0.767,1.953 -1.92,2.16 0.261,2.101 -0.459,3.22 -1.2,4.32 -0.054,-1.013 0.841,-3.37 0.24,-3.36 -0.812,2.869 -3.032,4.328 -4.32,6.72 -0.166,-0.474 -0.64,-0.64 -1.2,-0.72 -0.167,1.697 -0.958,3.695 -0.96,4.8 -0.502,-0.138 -0.685,-0.595 -1.44,-0.48 -0.21,0.661 -0.417,2.261 -0.96,1.2 -0.214,1.638 0.21,2.438 -1.2,2.88 -0.788,-1.692 0.266,-5.225 -1.2,-6.24 -0.312,2.614 0.541,4.981 -0.72,6.72 0.153,-1.483 0.194,-2.823 0.24,-3.84 -1.913,0.787 -0.145,3.962 -1.92,5.04 -0.022,-0.377 0.032,-0.833 -0.48,-0.72 0.265,2.363 -0.03,5.687 -2.4,5.52 -0.46,-1.04 0.888,-1.486 0.24,-1.92 -0.284,0.717 -0.208,-0.878 -0.96,-0.48 -0.869,0.363 0.401,1.976 -0.96,2.16 -0.122,-0.598 0.008,-1.448 -0.72,-1.44 0.357,3.237 -1.164,4.596 -2.4,6.24 -0.551,-1.748 0.468,-4.688 -0.96,-6 -0.467,2.26 0.26,4.014 -1.68,4.8 -0.447,-0.81 -0.29,-2.761 0,-3.6 -1.097,0.023 -0.478,1.761 -1.2,2.16 0.068,-0.627 -0.087,-1.032 -0.72,-0.96 -0.386,0.813 -0.009,2.392 -1.2,2.4 -0.098,-0.862 -0.061,-1.859 -0.72,-2.16 -1.113,0.817 0.431,6.041 -2.16,5.28 -0.14,1.271 0.987,0.153 1.2,0.72 -0.038,0.282 0.041,0.681 -0.24,0.72 -0.284,-0.035 -0.544,-0.427 -0.72,0 1.11,0.186 -0.206,3.067 -0.72,2.4 0.077,-0.563 0.379,-0.901 0.24,-1.68 -1.241,-0.121 -0.653,1.586 -1.2,2.16 -0.101,-0.459 -0.087,-1.033 -0.72,-0.96 -0.914,2.646 -1.778,4.047 -2.88,6.24 0.176,-1.996 0.559,-2.31 0.72,-4.32 -1.536,-0.255 -0.941,1.619 -1.92,1.92 -0.252,-0.789 -0.115,-1.965 -0.48,-2.64 -1.588,0.839 -1.618,3.743 -1.44,5.04 -0.542,-0.578 -0.871,-1.369 -1.68,-1.68 -0.348,-0.907 0.659,-0.46 0.48,-1.2 -0.329,0.076 -0.988,-0.569 -1.44,-0.24 -0.083,1.043 0.581,1.339 0.72,2.16 -0.047,1.232 -1.146,1.414 -1.44,2.4 0.28,0.36 0.693,0.587 0.72,1.2 -0.61,0.51 -0.914,1.327 -1.92,1.44 -0.246,0.966 0.374,1.066 0.72,1.44 -1.174,1.52 -1.437,3.631 -1.2,5.52 -0.58,1.485 -1.833,0.543 -2.16,1.44 -0.733,-1.347 0.237,-4.398 -1.2,-5.04 -0.337,1.079 0.727,2.133 -0.24,2.4 -0.698,-1.158 -0.793,-3.032 -0.96,-4.08 -0.825,0.964 -0.745,-1 -1.2,-1.2 -0.417,2.728 3.028,6.387 0,7.92 -0.146,-0.495 0.387,-1.667 -0.48,-1.44 -0.552,0.726 1.321,2.345 0.24,3.6 -0.15,-0.57 -0.323,-1.118 -0.96,-1.2 -0.237,1.614 -1.895,0.786 -1.92,2.88 0.361,0.57 1.011,0.24 1.2,0.48 -0.454,0.027 -0.167,0.793 -0.72,0.72 -0.283,-0.517 -0.521,-1.079 -1.2,-1.2 0.358,1.159 -0.599,1.002 -1.44,0.96 -0.13,1.062 -1.881,2.274 -2.64,1.2 -1.715,0.765 -2.28,2.68 -4.32,3.12 -0.171,3.269 -4.088,2.792 -5.04,5.28 0.057,0.343 0.395,0.405 0.48,0.72 1.194,-0.2 2.026,-0.357 2.88,0.24 -0.073,-0.693 0.633,-1.701 0.72,-1.44 -0.171,-0.515 4.763,-4.874 6.24,-4.32 1.43,1.292 3.281,3.436 2.4,6.24 -0.906,-0.854 0.061,-3.58 -1.44,-3.84 0.319,0.743 0.641,3.435 -0.24,4.32 -0.569,-0.311 -0.553,-1.207 -1.44,-1.2 -0.548,0.939 0.795,3.224 -0.72,3.6 -0.496,-0.624 0.098,-2.338 -0.96,-2.4 -0.415,0.946 -0.736,1.984 -1.92,2.16 0.039,0.747 1.068,2.009 0,2.4 -0.858,-0.602 -1.235,-3.641 0.24,-3.84 -0.538,-0.742 -0.791,-1.77 -1.44,-2.4 0.88,4.229 -0.988,7.205 -0.72,11.28 0.027,-0.293 0.072,-0.568 0.48,-0.48 -0.153,0.887 0.311,2.391 -0.24,2.88 -0.607,-0.833 -0.349,-2.531 -1.44,-2.88 -0.353,0.683 0.229,2.483 0,3.84 -1.292,-0.547 -0.672,0.325 -1.2,0.96 -1.272,-0.777 0.522,-3.258 -0.96,-3.6 -0.267,1.919 0.177,3.336 -0.96,4.08 0.8,1.525 -0.671,2.658 0.48,3.36 -0.807,0.304 -1.27,-0.94 -1.68,-0.24 0.809,0.632 0.171,2.709 1.44,2.88 -0.225,1.855 -0.552,3.607 -1.2,5.039 -1.451,-0.17 -0.522,-2.694 0.24,-2.879 -0.414,-1.304 -1.012,-1.147 -1.68,-1.92 -0.175,1.425 0.429,3.629 -0.48,4.32 -0.113,-1.934 -1.574,-3.499 -1.2,-4.56 -0.65,-0.149 -0.597,-1.003 -1.44,-0.96 0.46,1.14 0.55,2.65 0.72,4.08 -1.087,-0.446 -0.417,0.863 -0.96,0.96 -0.454,-0.054 -0.53,0.271 -0.96,0.24 -0.032,-0.768 0.237,-1.837 -0.72,-1.68 -0.445,1.235 -0.675,2.686 -0.96,4.08 -0.396,-0.004 -0.134,-0.665 -0.48,-0.72 -0.116,0.283 -0.256,0.544 -0.48,0.72 0.71,0.718 0.486,2.915 -0.24,3.601 -0.695,-1.084 -1.044,-1.344 -1.68,-2.16 -0.168,1.98 0.998,3.717 -0.24,4.8 -0.665,-1.575 -1.702,-2.778 -1.68,-5.04 -0.692,0.588 -0.832,1.728 -1.68,2.16 -1.284,-1.24 -0.267,-3.299 -1.44,-4.561 -0.67,0.789 0.359,2.052 0,2.4 -1.307,-0.291 -0.318,-1.807 -0.72,-2.641 -1.342,0.449 0.074,3.084 -0.72,4.08 -0.487,-0.999 -0.248,-1.4 -0.48,-2.399 -0.981,-0.132 -0.811,1.036 -0.24,1.2 -1.382,0.723 -1.177,2.885 -0.96,4.08 -0.56,0 -1.12,0 -1.68,0 0.223,1.143 1.502,2.49 0.72,3.84 0.098,-0.578 -0.438,-0.521 -0.24,-1.2 -2.295,-0.199 -0.36,-3.833 -2.16,-4.08 0.009,1.265 0.646,2.788 -0.24,3.601 0.284,-3.082 -1.762,-4.844 -2.64,-7.44 -0.357,3.892 2.089,7.123 -1.2,9.12 -0.754,-0.481 0.067,-1.829 -0.96,-2.4 0.386,2.358 1.288,4.127 -0.72,4.32 0.206,-0.748 0.703,-1.033 0,-1.68 0.021,1.221 -0.271,2.128 -1.44,2.16 -0.837,-0.764 -0.702,-2.499 -1.92,-2.881 -0.576,0.721 -1.438,2.385 -0.24,2.881 0.692,-0.775 -0.592,-1.419 0,-1.921 1.007,0.136 0.62,2.307 0.48,3.36 0.393,0.711 1.366,2.539 -0.24,2.64 0.181,-0.896 0.317,-1.728 -0.48,-2.159 -0.189,1.557 0.047,3.441 -0.72,4.56 -0.459,-0.501 -0.44,-1.479 -1.2,-1.681 -0.137,1.938 0.139,3.234 -0.24,4.561 -0.312,-0.944 -1.574,-1.477 -0.96,-2.641 -0.331,-0.01 -0.527,0.113 -0.72,0.24 -0.142,-2.098 -2.36,-2.119 -2.4,-4.32 -1.167,0.189 -1.97,-1.39 -0.96,-1.92 -2.389,-0.494 -2.569,-6.053 -4.8,-6.719 0.021,-0.379 0.612,-0.188 0.48,-0.721 -1.38,0.16 -1.507,1.078 -1.2,2.4 -0.33,0.01 -0.527,-0.113 -0.72,-0.24 0.478,1.49 0.279,1.927 0,3.6 -0.32,0 -0.64,0 -0.96,0 -0.15,1.291 -0.094,2.786 -0.48,3.84 -0.739,0.18 -0.461,-0.658 -1.2,-0.479 -0.374,0.677 -0.999,2.413 -1.44,0.96 -0.8,1.262 0.809,1.167 0.72,2.4 -0.248,0.791 -0.952,-0.048 -1.2,0.959 1.483,-0.282 0.065,2.336 1.44,2.16 -1.23,0.588 -1.687,-1.452 -2.88,-1.68 0.152,1.207 1.318,1.401 1.68,2.4 -0.883,0.477 -0.099,2.621 -0.72,3.359 -0.677,0.323 -0.602,-1.271 -0.96,-0.479 0.816,0.454 -0.411,0.841 -0.24,1.44 0.456,0.875 1.155,2.232 0.48,2.879 0.751,0.129 0.865,0.896 0.96,1.681 -0.86,1.14 -1.793,2.206 -3.12,2.88 -0.493,-0.227 -0.204,-1.236 -0.96,-1.2 0.014,1.267 0.543,2.017 0.96,2.88 -0.423,0.807 -1.737,0.189 -2.16,0.48 -0.043,1.322 1.428,1.132 1.44,2.4 0.418,0.018 0.747,-0.055 0.96,-0.24 -0.382,0.377 -0.067,1.285 0.24,1.68 0.041,-0.359 -0.086,-0.886 0.24,-0.96 1.149,0.612 -0.383,1.415 0.24,2.399 -1.474,0.133 -0.651,1.135 -0.24,1.681 -1.127,-0.221 -1.516,0.267 -3.12,0 -0.153,-0.524 0.68,-0.764 -0.24,-0.72 -0.146,0.375 -1.285,0.793 -0.96,1.439 0.865,0.077 2.377,0.559 2.64,1.92 -0.156,0.964 -0.972,1.268 -1.44,1.92 2.392,0.248 1.942,3.338 3.36,4.561 -0.187,0.533 -0.139,1.301 -0.72,1.439 -0.335,-0.689 0.654,-1.219 0,-1.439 -0.24,1.359 -2.724,0.477 -3.12,1.68 0.922,1.478 3.319,1.48 4.32,2.88 -0.763,0.468 -0.687,1.239 -0.96,1.681 -0.575,0.095 0.133,-1.094 -0.72,-0.721 -0.521,-0.041 -0.109,0.852 -0.24,1.2 0.679,-0.198 0.622,0.339 1.2,0.239 0.452,-0.127 1.111,-1.263 1.44,-0.719 -0.407,1.113 -1.072,1.967 -1.44,3.119 0.694,0.106 1.094,0.506 1.2,1.2 -1.302,0.491 -2.443,2.04 -4.08,1.44 -0.294,1.626 -2.179,1.66 -3.36,2.4 -0.667,-0.773 -0.612,-2.269 -1.44,-2.881 0.074,1.446 0.625,2.416 0.96,3.6 -1.384,0.377 -1.839,1.682 -3.36,1.92 1.193,0.266 -0.178,1.605 -0.24,2.16 -0.078,-0.275 -1.047,-0.826 -1.2,-0.24 0.25,0.551 0.933,0.668 1.2,1.201 -1.406,2.114 1.657,3.084 2.64,4.319 -1.514,0.325 -2.228,-1.294 -3.36,-1.68 -2.829,5.928 8.366,6.76 5.76,11.76 1.035,-0.532 1.864,0.297 1.68,1.68 -0.608,-0.254 -1.368,0.506 -0.72,0.721 1.028,-0.173 1.131,3.438 2.16,2.64 -0.186,0.534 -0.139,1.302 -0.72,1.44 -2.375,0.094 -1.002,2.819 -1.2,4.319 -3.675,0.598 -5.653,-5.62 -9.36,-5.76 3.19,2.25 5.726,5.153 8.64,7.68 0.292,0.751 0.938,2.302 0,2.881 -1.294,0.162 -2.573,-1.666 -3.36,-0.48 0.431,-0.031 0.562,0.238 0.48,0.72 -0.832,0.128 -2.276,-0.356 -2.4,0.48 0.915,-0.115 0.489,1.11 1.68,0.72 -0.837,0.866 1.831,1.487 0.24,2.4 0.584,0.135 1.235,0.205 1.2,0.96 -0.307,0.333 -1.133,0.146 -1.44,0.479 0.072,-0.632 -0.333,-0.787 -0.96,-0.72 0.458,0.831 -0.151,0.86 -0.72,0.479 -0.258,0.645 -0.555,1.947 0.72,1.681 0.142,-0.766 -0.451,-0.742 0,-1.2 0.636,0.282 1.413,-0.46 1.44,0 -0.333,0.675 -0.635,1.38 -0.24,2.16 -2.788,1.81 0.411,4.845 0.24,6.96 0.054,-0.187 0.006,-0.474 0.24,-0.48 0.003,0.478 0.655,0.306 0.48,0.96 -0.747,0.521 0.072,2.402 -0.96,1.2 0.034,1.167 1.614,0.787 1.92,1.681 -0.929,0.03 -0.128,1.792 -1.44,1.439 0.096,1.104 1.547,0.853 1.68,1.92 -0.278,-0.201 -0.644,-0.316 -1.2,-0.24 -0.208,1.169 0.808,1.112 0.96,1.92 -0.795,0.422 -0.045,0.898 -0.48,1.681 1.271,0.268 1.297,1.618 0.72,2.64 1.173,0.348 1.529,1.511 2.16,2.4 -1.217,0.499 0.857,1.724 -0.48,2.399 0.101,-1.003 -0.719,0.111 -0.96,0.24 0.351,0.209 0.761,0.359 0.72,0.96 -0.533,0.556 -0.936,-0.081 -1.68,0 -0.211,0.771 0.622,0.498 0.72,0.96 -1.299,0.037 -1.873,-1.591 -2.4,-2.399 -7.064,-10.849 -13.91,-22.047 -18.72,-34.561 -0.246,-0.234 -0.485,-0.475 -0.72,-0.72 -0.449,-1.871 -0.775,-3.865 -1.92,-5.04 -0.148,-1.452 -0.176,-3.024 -1.2,-3.6 0.113,2.623 3.127,9.682 3.84,11.279 3.164,7.092 6.667,14.128 10.32,20.88 0.601,-0.04 0.751,0.369 0.96,0.721 2.386,6.014 7.981,10.099 8.88,16.8 -2.685,-4.207 -4.392,-7.462 -7.44,-10.32 0.04,-0.279 2.929,3.788 3.27,3.809 -0.132,-0.427 -2.673,-5.045 -3.03,-5.248 -0.132,1.186 -0.123,-0.25 -0.48,-0.24 -0.335,0.689 0.654,1.219 0,1.439 -0.301,-0.818 -1.227,-1.013 -1.2,-2.159 0.411,-0.041 0.944,1.36 0.96,0.239 -0.468,-1.112 -15.511,-23.808 -16.81,-23.347 0.056,0.903 15.554,21.724 15.61,22.627 -1.562,0.196 -16.942,-23.144 -18.026,-22.627 2.196,2.523 19.372,26.161 21.626,28.627 0.054,-0.187 0.007,-0.474 0.24,-0.479 -0.276,2.498 2.458,3.896 3.12,6.239 -3.196,-3.684 -6.293,-7.466 -8.88,-11.76 -0.56,-0.358 -1.034,0.081 -1.2,-0.24 0.707,-1.004 -1.192,-1.108 -0.96,-2.399 -0.454,-0.054 -0.529,0.271 -0.96,0.239 -0.396,-0.563 -0.075,-1.844 -0.96,-1.92 -0.531,0.346 0.302,0.586 -0.24,0.721 -0.57,-0.256 0.514,-1.105 -0.24,-1.44 -0.051,0.27 -0.266,0.374 -0.48,0.48 0.192,-0.833 -0.357,-0.923 -0.24,-1.681 -0.719,-0.239 -1.218,0.151 -0.72,-0.72 -0.547,-0.33 -0.902,0.619 -0.96,0 -0.832,-3.657 -5.699,-5.335 -6.72,-9.6 -2.625,-0.908 -3.687,-4.616 -6.24,-4.801 0.147,0.813 1.065,0.855 1.44,1.44 4.314,3.845 20.703,27.264 24.207,31.92 -0.574,0.74 -4.637,-6.23 -5.667,-6.24 -0.859,-2.417 -10.808,-12.593 -11.58,-14.399 -0.821,0.342 -0.113,1.302 -0.48,1.68 -2.557,-2.644 -12.96,-10.56 -12.96,-10.56 -1.165,-0.436 -1.701,-1.499 -3.12,-1.681 -0.365,1.245 1.218,0.803 1.2,1.44 8.269,5.57 24.883,21.927 30.523,30.126 -5.318,-3.484 -15.972,-14.996 -21.164,-18.606 -0.179,-0.522 -1.05,-0.873 -0.48,-1.439 -3.143,0.335 -9.412,-5.703 -10.536,-5.903 l 0.014,-0.035 c -0.039,0.089 -0.078,0.179 -0.117,0.266 l 0.002,-0.004 c 1.994,1.687 9.285,5.988 10.637,8.316 0.739,-0.168 0.461,-0.168 1.2,0 1.94,1.804 4.877,4.034 6.96,6.48 1.215,1.427 3.61,2.546 3.12,3.84 0.556,-0.077 0.921,0.038 1.2,0.24 0.108,0.691 0.85,0.75 0.72,1.68 3.881,2.519 6.073,6.727 9.36,9.84 -1.293,-0.735 -3.406,-2.899 -5.04,-4.56 -5.135,-5.219 -10.958,-10.917 -17.04,-15.36 -1.722,-1.258 -3.835,-2.271 -5.28,-4.08 -1.392,-0.289 -7.453,-3.953 -7.2,-4.08 0.133,1.104 1.011,1.073 0.24,1.92 0.954,0.564 1.928,1.118 2.88,1.44 -0.023,-0.008 0.046,-0.529 0.24,-0.48 2.674,0.675 3.809,3.796 7.2,4.32 -0.013,0.307 -0.308,0.332 -0.24,0.72 5.174,3.513 9.866,7.388 13.2,11.521 1.33,-0.297 2.67,1.781 2.88,2.64 0.809,-0.481 4.136,3.175 5.28,4.32 3.635,3.64 8.567,8.408 11.04,12.239 -3.106,0.146 -2.594,-3.326 -5.04,-3.84 -0.095,0.413 0.356,0.615 0,0.721 -2.264,-1.971 -4.993,-3.909 -6.72,-6 -1.358,0.392 -3.017,-2.257 -4.32,-1.921 5.71,4.37 11.415,8.745 15.36,14.881 -1.621,-0.18 -3.321,-1.424 -3.12,-2.641 -1.751,-0.568 -2.07,-2.569 -4.08,-2.88 0.56,1.439 2.268,1.731 2.64,3.36 -2.079,-1.265 -3.083,-2.03 -5.76,-3.36 0.312,1.434 -0.013,0.344 -0.48,1.2 1.575,1.12 4.563,1.921 4.32,4.08 0.7,0.06 0.828,-0.452 1.2,-0.72 0.306,0.334 1.175,0.104 1.2,0.72 -0.021,0.378 -0.612,0.188 -0.48,0.72 0.279,0.201 0.644,0.316 1.2,0.24 0.317,-0.601 -0.949,-0.751 -0.24,-0.96 1.106,0.334 0.49,1.392 1.44,2.16 0.572,-0.787 0.969,0.611 1.44,0.72 -0.856,0.023 -0.705,1.056 -1.2,1.44 -0.927,-1.233 -2.304,-2.017 -4.08,-2.4 -1.216,-1.265 -2.484,-2.476 -4.56,-2.88 0.071,0.952 1.596,0.464 0.72,1.92 0.755,0.115 0.938,-0.342 1.44,-0.48 1.404,2.436 4.244,3.437 6,5.521 -1.712,-0.538 -3.541,-1.779 -4.8,-1.2 3.059,1.421 6.869,2.091 8.88,4.56 -1.81,-0.189 -2.714,-1.285 -4.32,-1.68 0.069,0.891 1.27,0.65 1.2,1.68 -1.217,-0.383 -2.221,-0.979 -3.12,-1.68 0.337,-0.062 0.273,-0.526 0.48,-0.72 -0.58,-0.076 -1.337,-1.201 -1.92,-0.48 0.405,0.396 1.079,0.521 1.44,0.96 -2.056,0.795 -4.294,-2.225 -6,-0.96 2.14,1.141 5.312,1.249 6.72,3.12 -0.734,0.174 -0.706,-0.414 -1.44,-0.24 0.019,0.782 1.087,0.513 1.68,0.721 1.864,-1.504 2.606,2.163 4.8,1.92 0,0.24 0,0.479 0,0.72 -3.547,0.723 -4.705,-1.682 -7.68,-2.64 -0.041,0.681 0.812,0.468 0.48,1.439 2.4,0.865 4.565,2.189 4.8,4.561 0.542,-0.16 1.546,-0.361 1.44,0.72 -1.564,-0.119 -2.422,-0.301 -3.84,-0.479 0.556,1.124 3.615,-0.256 2.88,2.159 0.382,-1.739 4.714,-0.486 6,0.48 -0.717,1.549 0.399,1.596 0.48,3.12 -0.62,0.5 -2.325,-0.085 -2.88,0.479 0.86,0.188 2.855,0.437 3.36,1.681 -0.027,0.453 -0.793,0.166 -0.72,0.72 1.122,0.258 0.604,2.82 1.68,2.399 -0.111,0.77 -0.914,0.847 -0.96,1.681 1.034,-0.109 1.491,1.214 0.96,1.92 1.038,0.322 0.99,1.73 1.92,2.16 1.517,6.483 7.882,8.117 11.76,12.239 4.938,0.767 6.417,1.544 11.28,1.44 0.028,0.612 0.045,1.234 0.72,1.2 0.423,-0.218 0.396,-0.884 0.96,-0.96 -0.165,0.646 0.496,0.464 0.72,0.72 0.353,-1.722 2.823,-0.272 3.6,-1.2 0.519,0.201 0.818,0.622 1.68,0.48 0.626,-0.573 1.881,-0.977 2.88,-0.48 0.452,-0.423 -0.328,-0.743 0.48,-0.96 0.7,0.648 -1.091,2.34 0.24,2.88 0.817,-0.303 0.566,-1.674 1.2,-2.159 0.232,1.369 0.642,-0.323 0.96,0.96 0.004,-0.956 0.229,-1.69 0.72,-2.16 0.447,0.032 0.802,0.157 0.96,0.479 -1.136,0.656 0.233,1.669 0.96,1.92 -0.14,-0.82 -0.803,-1.117 -0.72,-2.16 0.307,-0.013 0.333,-0.308 0.72,-0.239 0.67,0.985 2.466,-0.183 3.36,-0.48 0.524,0.181 1.062,0.346 1.4,0.713 -0.896,-1.82 0.19,-3.366 2.2,-1.913 0.449,-0.43 0.287,-1.473 0.96,-1.68 0.058,0.422 0.413,0.547 0.96,0.48 0.373,-0.854 -0.815,-0.146 -0.72,-0.721 0.96,-0.348 2.397,0.688 3.84,0 -0.99,-0.13 -1.626,-0.614 -2.16,-1.199 0.494,-0.066 0.226,-0.895 0.72,-0.961 0.462,0.098 0.189,0.931 0.96,0.721 0.422,-0.893 0.441,-0.939 1.68,-0.721 -0.035,-0.595 -0.044,-1.164 0.48,-1.199 2.445,0.04 -0.873,0.127 -0.48,-1.2 1.321,-0.511 1.955,0.432 3.12,0.72 -0.13,-0.85 0.85,-0.59 0.72,-1.439 -0.407,-0.474 -1.21,-0.551 -0.96,-1.681 1.028,0.238 2.265,0.945 2.4,-0.479 0.755,0.783 -0.317,1.093 -0.24,1.92 0.7,-0.58 2.055,-0.505 2.64,-1.2 -0.904,0.104 -1.093,-0.507 -1.44,-0.96 1.958,-1.235 5.502,0.724 7.44,0.24 -2.207,-1.313 -6.514,-0.526 -6.72,-3.84 1.36,0.159 2.181,-0.22 3.12,-0.48 -0.419,-2.151 1.917,-0.124 2.4,-1.439 -0.292,-0.027 -0.568,-0.072 -0.48,-0.48 -1.35,0.652 -3.108,-0.359 -4.56,-0.96 2.649,-1.741 6.717,0.397 11.04,0 0.247,-1.207 -1.401,-0.52 -1.44,-1.44 0.907,0.357 2.055,-0.288 3.12,-0.479 -0.337,-0.062 -0.273,-0.526 -0.48,-0.72 0.767,-0.594 2.906,0.186 3.36,-0.721 0.076,0.564 1.138,0.143 0.96,0.96 1.564,-0.259 2.56,0.049 3.6,-0.96 1.934,0.537 3.581,2.572 2.4,4.801 1.377,0.035 0.539,2.116 0.24,2.64 1.083,-0.044 0.64,1.439 1.68,1.439 0.964,-0.269 0.38,-0.843 0.96,-1.68 -0.205,-0.755 -1.321,-0.599 -1.44,-1.439 0.32,0 0.64,0 0.96,0 -0.335,-2.002 -0.284,-4.02 0.24,-5.521 -1.998,-0.654 -1.253,-3.231 -0.48,-4.8 4.703,0.657 7.347,3.373 11.28,4.8 0.336,-1.262 -0.951,-1.753 -0.24,-2.64 -2.259,-0.781 -4.951,-1.13 -6.72,-2.4 -1.313,0.537 -1.96,-0.237 -2.16,-1.439 -1.558,-0.613 -4.011,-0.75 -4.8,-1.44 1.847,-0.526 3.457,-0.329 5.52,-0.24 0.241,-0.318 0.227,-0.893 0.72,-0.96 0.794,0.544 2.769,0.218 3.36,-0.24 -1.668,-0.43 -5.462,0.604 -6.72,-0.72 -0.187,-0.196 0.076,-0.713 -0.16,-0.896 -0.104,-0.021 -0.203,-0.041 -0.32,-0.064 0.161,-0.015 0.255,0.015 0.32,0.064 1.236,0.251 1.631,0.334 3.28,0.176 0.127,-1.087 -1.352,-0.568 -1.68,-1.2 1.498,-2.513 4.59,-1.696 7.2,-1.68 0.368,-1.387 2.935,-0.503 3.84,-0.24 0.333,-0.147 0.036,-0.924 0.48,-0.96 2.257,0.113 5.266,0.677 7.2,0.24 -2.539,-0.631 -5.354,-1.34 -7.68,-0.721 -0.325,-0.874 -1.725,-0.675 -1.68,-1.92 0.964,0.085 1.756,-0.004 1.92,-0.72 -0.554,-0.451 -1.825,0.548 -2.16,-0.479 0.574,-0.146 1.741,0.301 1.92,-0.24 -0.331,-0.249 -1.422,-0.952 -0.96,-1.2 1.474,0.244 1.596,-0.33 1.68,-0.96 1.333,0.072 3.404,1.541 4.32,0.479 -1.264,-0.188 -2.301,-0.729 -3.12,-0.72 0.495,-1.414 3.361,0.331 4.32,-0.96 -0.729,-0.15 -2.067,0.308 -2.4,-0.24 0.595,-0.524 1.515,-0.725 2.16,-1.199 0.806,0.313 1.568,0.672 2.16,1.199 -0.627,-0.067 -1.032,0.088 -0.96,0.721 1.163,0.032 3.032,0.214 4.32,-0.24 -1.625,0.026 -1.19,-0.934 -2.88,-0.48 0.168,-0.738 0.168,-0.461 0,-1.199 0.696,-0.191 3.209,-0.046 2.16,-0.96 0.754,-0.258 1.27,-0.166 2.16,0 0.178,-0.602 0.03,-0.76 0.72,-1.2 -2.287,0.077 -3.952,0.564 -5.52,0.479 1.19,0.102 0.136,-0.719 0.72,-0.96 1.2,0.066 2.608,-1.356 3.36,-0.24 1.192,-2.448 4.491,0.638 5.52,-0.479 0.172,-0.651 -1.132,0.172 -0.96,-0.48 -0.013,-0.412 0.185,-0.615 0.48,-0.72 1.26,0.269 3.88,-0.208 2.64,1.2 0.553,0.557 0.773,-0.444 1.68,-0.24 -0.312,-0.595 0.536,-1.164 0,-1.2 -0.338,0.401 -1.596,-1.369 -1.92,0.24 0.079,-1.039 -1.329,-0.591 -1.2,-1.68 0.278,0.201 0.643,0.316 1.2,0.24 -0.065,-0.945 0.092,-1.668 0.72,-1.92 0.597,-0.037 0.743,0.377 1.2,0.479 0.453,-0.507 1.088,-0.832 1.68,-1.2 0.263,-0.567 -0.757,-1.677 0.72,-1.68 0.037,0.597 -0.377,0.743 -0.48,1.2 1.582,0.926 3.7,0.25 5.357,0.62 -0.043,-0.03 -0.075,-0.07 -0.077,-0.141 0.447,0.033 0.802,0.158 0.96,0.48 -0.807,-0.247 -0.374,0.746 -0.48,1.2 0.893,0.252 0.471,-0.81 0.96,-0.96 0.32,0 0.64,0 0.96,0 0.24,0.622 0.422,1.607 -0.24,1.92 -2.651,0.229 -4.706,-0.616 -6.96,0.72 3.161,1.12 7.393,-0.313 9.12,0.96 1.613,-1.539 6.04,-0.915 7.2,0 -0.241,1.919 -0.225,4.096 -1.68,4.8 1.29,1.939 -0.006,4.011 0.24,6 -0.114,-0.468 0.646,-1.228 0.72,-0.72 -0.141,0.499 -0.504,0.775 -0.72,1.2 1.788,0.559 0.582,4.172 -0.48,3.84 0.856,1.963 -2.716,3.915 -1.44,5.52 0.038,-0.282 -0.042,-0.681 0.24,-0.72 0.796,3.867 -2.26,6.595 -3.84,9.36 -0.32,0 -0.64,0 -0.96,0 -0.21,0.771 0.622,0.497 0.72,0.96 -1.491,3.109 -3.23,7.113 -3.6,10.56 -0.355,0.125 -0.604,0.355 -0.96,0.48 -1.34,3.939 -3.876,6.684 -5.52,10.319 0.183,1.303 -0.296,1.944 -0.24,3.12 -1.537,0.365 -1.79,1.649 -3.36,1.2 0.278,1.108 -0.297,3.073 0.48,3.6 2.996,-0.124 4.816,-1.423 6.96,-2.399 0.193,-0.647 8.303,10.895 14.424,16.973 1.034,1.026 2.26,3.966 3.006,4.696 1.148,1.123 7.982,-6.992 8.054,-6.994 -0.392,-2.793 29.48,-46.27 30.706,-46.625 -0.054,-0.273 -0.5,-3.693 -0.98,-6.746 -0.354,-2.247 -0.725,-4.295 -0.971,-4.744 1.477,-0.977 2.111,0.696 2.4,1.681 1.162,0.121 0.979,-1.101 2.399,-0.721 0.469,-2.087 -0.181,-3.101 0.48,-4.319 0.609,0.19 0.129,1.47 0.96,1.439 -0.264,-0.696 -0.217,-1.703 -0.48,-2.399 1.137,0.097 1.652,-0.429 2.88,-0.24 -0.021,-0.896 -0.269,-0.685 0,-1.44 -1.15,-0.164 -1.116,-0.263 -1.92,-0.479 1.411,-1.675 2.167,-0.255 4.32,0 -0.912,-1.42 -1.278,-1.911 -1.68,-3.84 0.879,-0.08 1.333,0.266 1.92,0.479 -0.005,-1.035 -1.195,-0.885 -1.2,-1.92 0.765,0.116 1.004,0.756 1.92,0.72 0.587,-0.565 -0.358,-0.446 -0.24,-1.2 0.726,-0.555 2.021,-0.539 2.88,-0.96 0.2,-0.77 0.205,-0.497 -0.239,-0.96 1.923,-0.588 3.017,1.755 4.319,0.24 -0.987,-0.213 -1.967,-0.433 -2.399,-1.2 1.693,-0.215 4.567,0.685 5.52,-0.239 -3.474,0.072 -9.001,-0.832 -7.439,-4.801 0.498,0.062 0.065,1.055 0.479,1.2 0.944,-0.288 1.768,0.192 2.641,-0.479 0.558,0.162 0.642,0.797 1.199,0.96 2.203,-0.919 2.551,2.086 5.04,1.68 -0.062,-1.138 -1.656,-0.743 -1.439,-2.16 0.241,10e-4 0.285,-0.194 0.479,-0.24 0.714,0.175 2.073,1.413 2.641,0.24 -0.428,-0.133 -0.997,-0.123 -1.2,-0.479 0.982,-0.588 -0.902,-1.53 0,-2.88 -1.572,-0.028 -3.013,-0.188 -4.08,-0.721 0.035,-0.692 0.721,-1.091 1.2,-1.92 0.523,-0.043 0.764,0.196 0.72,0.72 1.426,-1.268 3.031,1.194 4.32,0.721 -0.863,-1.138 -2.526,-1.474 -3.36,-2.641 0.173,-0.946 0.298,-1.942 0.72,-2.64 0.343,0.058 0.405,0.396 0.721,0.48 0.248,-0.846 0.74,-1.713 0.72,-2.16 2.437,0.418 3.229,1.512 5.04,2.16 0.562,-0.634 0.04,-1.637 0,-2.4 0.726,0.33 0.857,-0.114 1.919,0 -0.367,-1.793 -2.569,-1.751 -2.879,-3.6 0.241,0 0.285,-0.194 0.479,-0.24 0.693,1.022 0.463,-0.673 1.681,0 -0.031,-0.601 -0.459,-0.752 0.238,-0.96 2.352,-0.191 2.805,1.516 5.041,1.439 -0.436,-0.864 0.043,-0.707 0.24,-1.439 -0.367,-0.433 -0.881,-0.72 -1.439,-0.96 -0.199,-0.679 0.338,-0.622 0.238,-1.2 -1.424,-0.976 -2.623,-2.176 -3.6,-3.6 0.631,-0.624 0.189,0.388 0.961,0.239 0.887,-0.754 -1.271,-1.307 -0.24,-2.16 0.393,0.264 1.65,0.889 2.16,0.24 -1.266,-0.172 0.252,-0.783 0.48,-0.96 -0.332,-0.388 -1.143,-0.298 -0.961,-1.2 0.732,0.388 1.822,0.418 2.641,0.721 -0.408,-2.407 2.945,-1.055 3.6,-2.4 -0.945,-0.016 -1.162,-0.758 -1.439,-1.44 0.902,0.088 1.475,1.41 2.16,0.961 0.121,-1.241 -1.496,-0.745 -1.92,-1.44 -0.061,-0.741 -0.244,-1.356 -0.48,-1.92 0.24,10e-4 0.285,-0.194 0.48,-0.24 0.471,-0.071 0.475,0.324 0.719,0.48 -0.406,-1.033 -0.879,-2.001 -1.199,-3.12 1.525,-0.007 1.938,1.102 3.119,1.439 -0.238,-0.641 -0.656,-1.104 -0.959,-1.68 1.6,0.161 0.881,-1.998 1.439,-2.88 -0.6,-0.462 -0.986,0.366 -1.439,-0.24 -0.445,-0.423 0.061,-0.743 0.479,-0.96 0.834,0.526 1.18,1.54 2.4,1.68 -0.082,-1.117 -1.541,-0.857 -1.439,-2.159 0.324,0.179 1.676,0.533 1.68,0.239 -0.27,-1.329 -0.842,-2.358 -1.68,-3.12 1.373,-0.44 2.408,-1.766 4.08,-1.199 0.066,-0.421 -0.676,-1.198 0,-1.44 0.916,-0.175 1.799,1.062 2.16,0 -0.992,-0.048 -1.301,-0.78 -1.92,-1.2 0.777,-0.602 1.637,0.318 2.639,0.24 -0.219,-1.74 2.16,-0.882 2.881,-1.68 -0.07,-1.506 0.889,-2.027 0,-3.12 1.074,-0.354 0.736,0.703 1.68,0.479 0.004,-1.065 -0.029,-2.413 -1.439,-2.64 1.061,-0.283 2.203,-0.005 2.879,0.72 0.174,-0.733 -0.244,-0.874 -0.238,-1.439 1.158,0.279 0.785,-0.976 1.439,-1.2 -0.4,-0.48 -0.871,-0.89 -0.961,-1.68 0.633,0.072 0.619,-0.501 0.721,-0.96 -0.188,-0.773 -1.084,-0.836 -1.68,-1.2 0.053,-0.454 -0.271,-0.529 -0.24,-0.96 0.477,-0.003 0.305,-0.655 0.959,-0.48 1.479,0.655 2.232,1.942 3.842,1.44 -0.727,-0.154 -1.387,-0.375 -1.441,-1.2 0.828,-0.374 1.123,-0.159 1.92,0.24 -0.559,-0.928 -0.895,-0.752 -1.199,-1.681 -0.861,-0.157 -1.859,0.774 -2.16,-0.239 0.395,-0.405 0.521,-1.079 0.961,-1.44 -0.025,0.788 2.002,0.139 1.98,-0.345 -0.021,-0.045 -0.045,-0.09 -0.061,-0.136 0.045,0.043 0.059,0.089 0.061,0.136 0.219,0.436 0.705,0.798 1.139,0.345 0.268,-1.229 -0.955,-0.964 -0.961,-1.92 1.883,-0.168 3.074,2.696 4.32,0.96 -2.074,-0.405 -3.482,-1.477 -5.039,-2.399 0.342,-0.059 0.404,-0.396 0.719,-0.48 1.33,0.893 2.908,0.403 4.561,1.199 0.455,-0.881 -0.346,-1.439 -0.48,-2.399 1.748,0.306 3.361,0.943 3.84,-0.96 -0.254,-0.465 -1.105,-0.334 -1.439,-0.72 0.467,-1.376 -0.957,-1.872 -0.959,-3.12 0.545,0.116 1.225,0.477 1.68,0 -0.016,-1.266 -1.436,-1.125 -2.16,-1.68 0.383,-0.817 2.15,-0.25 2.879,-0.721 0.234,-1.193 -0.969,-0.949 -1.199,-1.68 0.096,-1.727 1.832,-2.111 3.6,-1.92 0.707,-3.514 6.176,-2.416 9.361,-1.2 0.199,-0.702 -1.432,-0.778 -0.721,-1.2 1.285,0.219 0.23,-0.475 0.24,-0.479 1.045,-0.481 0.797,0.595 1.92,0 -0.119,-1.002 -1.959,-0.28 -1.68,-1.681 1.74,-0.239 0.305,-3.945 3.359,-3.84 -0.166,-1.068 2.447,-1.236 3.359,-1.439 0.213,-0.669 0.301,-1.461 0.721,-1.92 0.326,0.453 -0.273,1.063 0.961,0.959 -0.029,-0.332 -0.279,-1.297 0.479,-1.92 1.123,-0.251 1.973,0.707 2.4,-0.239 1.111,1.346 -0.127,-0.736 1.865,0.312 -0.004,0.396 2.51,1.263 2.455,1.608 0.623,0.333 -2.441,-2.731 -1.637,-1.726 0.377,-0.182 2.439,-0.685 3.041,-0.643 1.594,0.99 1.395,-2.188 2.162,0.234 2.043,-0.531 -0.197,-1.285 2.455,-1.404 -2.518,-3.53 3.684,0.766 0.938,-2.702 0.777,-0.198 2.076,0.299 2.16,0 -0.836,-0.123 -0.83,-1.089 -0.959,-1.92 0.846,-0.273 2.055,-0.185 2.4,-0.96 0.277,0.85 2.32,0.917 2.639,0.96 0.359,-0.638 -0.191,-1.664 1.441,-1.44 0.014,0.993 0.758,1.257 1.439,0.961 -0.041,-1.322 0.496,-2.064 1.68,-2.16 0.072,-0.473 -0.324,-0.477 -0.48,-0.721 0.355,-0.605 0.928,-0.991 1.68,-1.199 0.441,2.217 1.982,3.324 1.92,5.76 1.434,0.221 1.348,0.533 2.641,0 -0.018,-1.376 -0.428,-2.344 -0.48,-4.08 1.186,-0.476 0.936,-2.221 0.48,-3.359 -0.002,0.242 -0.42,0.301 -0.48,0 0.041,-0.359 -0.086,-0.887 0.24,-0.961 0.371,1.641 3.217,0.02 1.92,-1.199 0.672,-0.299 1.902,-1.286 2.881,-0.48 0,0.561 0,1.12 0,1.68 1.08,0.199 2.33,0.229 3.119,0.721 -0.062,-0.783 0.748,-0.693 0.961,-1.2 -0.221,-0.938 -0.363,-1.977 0.959,-1.921 0.648,0.072 0.432,1.01 0.961,1.201 -0.068,-0.628 0.088,-1.033 0.721,-0.961 1.225,0.854 1.588,2.572 2.879,3.36 -0.043,-0.523 0.197,-0.764 0.721,-0.72 0.283,0.116 0.543,0.256 0.719,0.48 -0.158,0.971 -0.721,0.418 -1.199,0.719 -0.174,0.734 0.246,0.875 0.24,1.44 -1.143,1.018 -2.285,2.036 -2.4,4.08 -1.852,0.868 -3.941,1.498 -5.76,2.399 0.174,0.547 0.213,1.227 0.48,1.681 2.875,0.083 4.344,1.575 5.76,3.12 -1.031,-0.486 -0.65,0.246 -0.48,0.96 -0.877,0.003 -1.078,0.683 -1.68,0.96 0.371,2.686 -3.336,2.509 -5.279,3.84 -0.721,0.494 -0.684,1.51 -1.682,1.439 -0.457,2.043 -1.432,3.712 -0.719,5.761 0.598,0.228 1.447,-0.856 1.439,0.239 0.82,0.181 0.305,-0.975 1.199,-0.719 0.018,1.015 0.549,0.567 0.961,0.239 0,0.32 0,0.64 0,0.96 2.268,-0.28 3.402,-2.287 5.279,-1.68 -0.75,0.066 -2.656,1.209 -1.68,1.439 0.404,-0.005 1.707,-1.166 2.881,-1.199 0.357,0.842 0.975,1.424 0.719,2.88 -0.6,-0.041 -0.75,0.368 -0.959,0.72 0.773,0.867 -0.326,1.904 -0.24,2.88 0.35,0.371 1.229,0.212 1.92,0.24 0.123,0.776 1.201,1.717 0.24,2.16 1.301,-0.181 0.945,1.294 2.4,0.96 0.025,-3.922 4.596,-3.984 6.719,-6.24 3.816,-0.788 3.383,-4.346 7.201,-5.04 0.811,0.2 -0.242,2.312 0.719,1.2 0.244,1.364 -0.592,1.646 -1.439,1.92 0,2.617 -0.607,3.982 -0.959,5.76 0.4,0.8 1.492,1.916 0.719,3.12 0.498,0.144 1.576,-0.296 1.68,0.24 0.193,0.833 -0.357,0.923 -0.24,1.68 0.549,0.292 1.271,0.41 1.66,0.86"
   id="path19" />
<path
   d="m 595.36,186.52 c -0.234,1.105 -1.837,-0.122 -1.92,-0.72 0.561,0.32 1.352,0.408 1.92,0.72 z"
   id="path21" />
<path
   d="m 576.16,138.76 c -0.426,1.686 -2.417,1.264 -4.08,1.2 0.832,-1.453 2.398,-0.844 4.08,-1.2 z"
   id="path23" />
<path
   d="m 568.48,128.2 c 0.44,0.679 1.563,0.675 1.92,1.44 -1.153,0.033 -2.401,0.161 -2.641,-0.72 -0.094,-0.575 1.095,0.133 0.721,-0.72 z"
   id="path25" />
<path
   d="m 551.68,122.92 c 1.208,-0.168 1.582,0.498 1.44,1.68 -0.608,-0.432 -1.724,-0.356 -1.44,-1.68 z"
   id="path27" />
<path
   d="m 484.48,96.04 c 0.319,0 0.64,0 0.96,0 0.189,0.924 -1.149,0.924 -0.96,0 z"
   id="path29" />
<path
   d="m 249.76,273.4 c 0.427,0.453 0.791,0.969 0.72,1.92 -0.931,-0.406 -1.081,-1.292 -0.72,-1.92 z"
   id="path31" />
<path
   d="m 183.52,352.6 c 0.675,0.045 1.022,0.418 0.96,1.2 -0.558,-0.162 -1.008,-0.432 -0.96,-1.2 z"
   id="path33" />
<path
   d="m 178.72,418.12 c -0.341,-1.258 -1.194,-0.932 -1.92,-1.44 -0.198,-0.678 0.338,-0.621 0.24,-1.199 1.32,-0.121 1.656,0.744 2.16,1.439 0.179,0.739 -0.827,0.293 -0.48,1.2 z"
   id="path35" />
<path
   d="m 171.52,449.8 c -2.352,-3.407 -5.321,-6.198 -8.16,-9.12 0.031,-0.43 -0.293,-0.506 -0.24,-0.96 0.867,0.413 0.914,1.646 2.4,1.44 -0.729,0.963 1.117,1.012 0.96,2.16 0.494,0.21 1.078,-0.623 0.48,-0.721 1.069,-0.645 2.672,1.408 3.12,2.881 -1.206,-0.155 -1.194,-1.526 -2.4,-1.681 1.737,2.983 5.463,6.057 7.92,9.12 -1.664,0.222 -2.411,-2.546 -4.08,-3.119 z"
   id="path37" />
<path
   d="m 174.88,446.2 c -0.127,0.369 -0.25,0.015 -0.24,-0.24 1.626,1.014 2.555,2.726 3.6,4.32 -1.49,-0.989 -2.369,-2.591 -3.36,-4.08 z"
   id="path39" />
<path
   d="m 180.88,471.88 c -1.261,0.221 -0.982,-1.098 -1.92,-1.2 -0.172,-0.651 1.132,0.172 0.96,-0.479 0.272,0.045 0.133,0.241 0,0.24 0.095,0.704 1.393,0.206 0.96,1.439 z"
   id="path41" />
<path
   d="m 176.32,386.439 c -0.941,-0.693 -2.21,0.016 -1.92,-2.16 0.739,0.18 0.461,-0.658 1.2,-0.479 0.438,0.187 -0.144,0.259 -0.48,0.24 -0.198,0.679 0.338,0.622 0.24,1.2 0.896,0.096 1.408,-0.191 1.44,-0.961 0.507,0.613 1.571,0.67 1.68,1.681 0.193,-0.127 0.39,-0.251 0.72,-0.239 -0.736,-1.304 -0.163,-1.304 0.24,0 -0.641,-0.002 -0.521,0.758 -1.2,0.719 0.032,-0.832 -1.216,-0.384 -1.2,-1.199 -0.421,0.218 -0.834,0.445 -0.72,1.198 z"
   id="path43" />
<path
   d="m 176.8,386.439 c 1.592,0.329 2.404,1.436 3.12,2.641 -1.952,0.031 -2.692,-1.148 -3.12,-2.641 z"
   id="path45" />
<path
   d="m 180.16,387.88 c -0.42,-0.54 -1.367,-0.553 -1.44,-1.44 0.718,-0.543 1.607,0.347 1.44,1.44 z"
   id="path47" />
<path
   d="m 182.08,388.84 c -1.131,-0.98 -2.402,-2.996 -2.16,-4.561 1.832,0.879 2.508,3.39 2.16,4.561 z"
   id="path49" />
<path
   d="m 182.32,389.8 c 0.675,-0.034 0.692,0.588 0.72,1.2 -0.728,0.088 -0.498,-0.781 -0.72,-1.2 z"
   id="path51" />
<path
   d="m 178.96,475 c 1.956,-0.517 3.093,1.138 4.32,1.68 -1.332,0.288 -3.161,-0.995 -4.32,-1.68 z"
   id="path53" />
<path
   d="m 180.16,482.2 c 0.127,-0.193 0.25,-0.39 0.24,-0.72 1.007,-0.127 1.341,0.419 2.16,0.479 -0.751,0.479 -1.509,0.418 -2.4,0.241 z"
   id="path55" />
<path
   d="m 179.68,479.08 c 0.713,-2.312 4.306,-0.53 4.32,1.439 -1.493,-0.335 -2.784,-0.668 -4.32,-1.439 z"
   id="path57" />
<path
   d="m 182.8,391.721 c 0.969,0.384 1.146,1.466 1.2,2.159 -0.253,0.081 -1.052,-1.339 -1.2,-2.159 z"
   id="path59" />
<path
   d="m 183.52,388.359 c 0.958,0.002 0.46,1.461 0.96,1.92 -0.692,0.677 -0.686,-1.381 -0.96,-1.92 z"
   id="path61" />
<path
   d="m 184.72,385.48 c -0.432,0.528 -0.21,1.71 -0.48,2.399 -0.901,-0.202 -3.708,-3.958 -0.72,-4.56 0.69,0.27 0.873,1.047 2.16,0.72 0.059,0.669 0.189,1.622 0.24,2.88 -0.725,-0.154 -0.67,-1.089 -1.2,-1.439 z"
   id="path63" />
<path
   d="m 186.4,383.8 c -0.105,-0.825 0.095,-1.345 0.24,-1.92 0.723,0.022 0.785,2.203 -0.24,1.92 z"
   id="path65" />
<path
   d="m 187.36,384.76 c 0.132,-0.957 0.132,-0.723 0,-1.68 0.757,-0.309 0.757,1.988 0,1.68 z"
   id="path67" />
<path
   d="m 188.32,382.359 c -0.654,-0.226 -0.549,-1.21 -0.72,-1.92 1.041,-0.16 0.646,1.115 0.72,1.92 z"
   id="path69" />
<path
   d="m 201.04,421.96 c -0.488,-0.231 -0.519,-0.922 -0.48,-1.68 0.563,0.187 0.971,1.161 0.48,1.68 z"
   id="path71" />
<path
   d="m 207.76,328.84 c -0.824,-1.127 0.291,-2.953 -0.96,-3.359 -0.073,-0.554 0.693,-0.268 0.72,-0.721 1.135,1.066 0.266,2.826 0.24,4.08 z"
   id="path73" />
<path
   d="m 210.16,502.12 c -0.355,-0.125 -0.605,-0.355 -0.96,-0.48 0.03,-0.689 0.3,-1.14 1.2,-0.96 0.032,0.591 0.037,1.156 -0.24,1.44 z"
   id="path75" />
<path
   d="m 211.84,320.2 c -0.714,-0.021 -0.642,-1.431 0.24,-1.2 0.198,0.678 -0.338,0.621 -0.24,1.2 z"
   id="path77" />
<path
   d="m 214,316.359 c -0.836,-0.739 -0.581,-1.122 -0.72,-2.399 0.388,-0.067 0.414,0.227 0.72,0.24 0.039,0.278 -0.053,0.427 -0.24,0.479 0.039,0.281 0.438,0.203 0.72,0.24 -0.138,0.503 -0.595,0.686 -0.48,1.44 z"
   id="path79" />
<path
   d="m 214.96,319.48 c 0.773,0.826 1.045,2.154 0.96,3.84 -0.533,-0.963 -1.063,-3.021 -0.96,-3.84 z"
   id="path81" />
<path
   d="m 216.16,414.04 c -0.792,-0.139 -0.344,-0.906 -0.24,-1.44 1.097,-0.008 0.013,0.842 0.24,1.44 z"
   id="path83" />
<path
   d="m 219.52,403.96 c -0.123,-1.003 0.134,-1.626 0.48,-2.16 0.292,0.229 0.216,2.123 -0.48,2.16 z"
   id="path85" />
<path
   d="m 220.96,314.68 c -0.912,-0.219 -0.175,-0.965 -0.24,-1.68 0.537,0.104 0.097,1.183 0.24,1.68 z"
   id="path87" />
<path
   d="m 221.68,310.84 c -0.752,-0.166 -0.313,-0.641 -0.24,-1.199 0.611,0.023 0.567,0.893 0.24,1.199 z"
   id="path89" />
<path
   d="m 222.4,509.56 c 0,-0.239 0,-0.479 0,-0.72 0.579,0.099 0.522,-0.438 1.2,-0.24 -0.191,0.529 -0.482,0.959 -1.2,0.96 z"
   id="path91" />
<path
   d="m 226.96,395.8 c -0.922,-2.575 0.624,-2.194 0,0 l 0,0 z"
   id="path93" />
<path
   d="m 227.44,311.08 c 1,0.601 1.167,2.033 1.2,3.6 -0.799,-1.052 -0.795,-1.885 -1.2,-3.6 z"
   id="path95" />
<path
   d="m 230.08,310.359 c 0.088,-1.561 0.444,-1.912 0.48,-3.119 0.631,0.936 -0.384,2.102 0.48,2.88 -0.431,-0.03 -0.506,0.294 -0.96,0.239 z"
   id="path97" />
<path
   d="m 232.24,387.88 c -0.562,-0.347 0.152,-1.429 0.24,-1.92 1.132,0.433 -0.24,1.178 -0.24,1.92 z"
   id="path99" />
<path
   d="m 233.68,307.721 c -0.545,-0.256 -0.091,-1.509 -0.24,-2.161 0.614,0.592 0.379,1.228 0.24,2.161 z"
   id="path101" />
<path
   d="m 240.4,301.72 c -0.488,-0.232 -0.518,-0.922 -0.48,-1.68 0.488,0.231 0.518,0.922 0.48,1.68 z"
   id="path103" />
<path
   d="m 241.12,296.2 c -0.716,-0.164 -0.805,-0.956 -0.72,-1.92 0.893,-0.013 0.692,1.068 0.72,1.92 z"
   id="path105" />
<path
   d="m 246.64,393.64 c 0.632,-0.072 0.788,0.333 0.72,0.96 -0.632,0.072 -0.788,-0.332 -0.72,-0.96 z"
   id="path107" />
<path
   d="m 245.2,289.24 c 0.667,0.556 0.356,1.856 0,2.64 -0.392,0.701 0.214,-0.821 0,-1.44 -0.281,0.039 -0.203,0.438 -0.24,0.72 -0.65,-0.436 0.133,-1.448 0.24,-1.92 z"
   id="path109" />
<path
   d="m 243.04,296.68 c -0.452,-0.588 -0.906,-1.174 -0.96,-2.16 0.699,0.34 1.069,1.011 0.96,2.16 z"
   id="path111" />
<path
   d="m 243.04,384.76 c 0.48,0.32 0.535,1.065 0.72,1.68 -0.768,-0.036 -0.993,-1.336 -0.72,-1.68 z"
   id="path113" />
<path
   d="m 244,382.12 c -0.542,-0.179 -0.094,-1.347 -0.24,-1.92 1.101,0.085 0.637,1.438 0.24,1.92 z"
   id="path115" />
<path
   d="m 244.96,380.439 c -0.289,-0.271 -0.435,-0.685 -1.2,-0.479 0,-0.319 0,-0.64 0,-0.96 0.634,0.504 1.511,0.748 1.2,-0.721 1.267,0.286 -0.061,1.543 0,2.16 z"
   id="path117" />
<path
   d="m 245.68,380.2 c 0.471,0.333 0.292,2.036 0,2.399 -0.471,-0.331 -0.293,-2.036 0,-2.399 z"
   id="path119" />
<path
   d="m 247.12,421.96 c -0.32,0 -0.64,0 -0.96,0 0.036,-0.596 -0.124,-0.996 -0.48,-1.2 0.358,-0.8 1.077,-0.712 1.68,-0.24 0.032,0.591 0.036,1.157 -0.24,1.44 z"
   id="path121" />
<path
   d="m 249.52,355.48 c 0.757,0.317 0.208,1.71 0.24,2.64 -0.549,-0.411 -0.088,-1.832 -0.24,-2.64 z"
   id="path123" />
<path
   d="m 247.84,285.4 c 1.135,0.042 -0.086,0.949 0.24,1.68 -0.72,-0.411 -0.267,-0.873 -0.24,-1.68 z"
   id="path125" />
<path
   d="m 248.56,381.4 c -1.044,-0.045 -0.437,-0.418 -0.48,-1.2 0.806,-0.247 0.374,0.746 0.48,1.2 z"
   id="path127" />
<path
   d="m 249.76,371.32 c -0.938,-0.121 -1.029,-2.033 -0.72,-2.641 0.583,0.138 -0.113,1.553 0.72,1.44 0.642,0.071 -0.638,-0.931 0.48,-0.72 0.262,1.064 -0.407,1.195 -0.48,1.921 z"
   id="path129" />
<path
   d="m 251.44,370.6 c -0.871,-0.218 -0.146,-0.708 -0.24,-1.439 0.658,0.004 0.57,1.131 0.24,1.439 z"
   id="path131" />
<path
   d="m 255.28,347.32 c 0.294,0.455 0.595,1.536 0.24,1.92 -0.662,-0.312 -0.48,-1.297 -0.24,-1.92 z"
   id="path133" />
<path
   d="m 253.12,365.08 c 0.613,0.027 0.476,0.804 0.48,1.439 -0.613,-0.026 -0.476,-0.802 -0.48,-1.439 z"
   id="path135" />
<path
   d="m 252.16,272.2 c 0.75,0.378 0.824,2.413 0.48,3.12 -0.824,-0.305 -0.479,-2.758 -0.48,-3.12 z"
   id="path137" />
<path
   d="m 252.16,347.32 c 1.051,-0.025 0.885,2.113 0,2.16 0.417,-0.8 -0.121,-1.064 0,-2.16 z"
   id="path139" />
<path
   d="m 255.52,490.12 c 0.708,-0.412 1.731,-0.509 2.88,-0.48 -0.56,0.794 -1.987,0.624 -2.88,0.48 z"
   id="path141" />
<path
   d="m 257.2,488.92 c -1.65,-0.351 -3.292,-0.708 -4.8,-1.2 1.894,-0.48 3.774,-0.688 6.24,0 -0.146,0.734 -1.15,0.61 -1.44,1.2 z"
   id="path143" />
<path
   d="m 271.12,484.36 c 0.217,1.438 -0.409,2.304 0.24,3.84 -0.408,-0.089 -0.453,0.187 -0.48,0.479 -0.993,0.033 -1.375,-0.545 -1.92,-0.96 -0.319,0.485 -1.605,0.725 -2.16,0.24 1.713,-0.884 -1.826,-3.008 -3.12,-2.4 0.601,0.6 1.653,0.747 2.16,1.44 -0.959,1.694 -3.056,0.285 -4.8,0.96 -0.177,-0.199 0.496,-0.657 -0.72,-0.72 -0.073,-0.634 0.501,-0.619 0.96,-0.721 -1.317,-0.19 -2.229,-0.583 -3.84,-0.72 1.062,-1.713 3.666,-0.13 4.8,-0.96 -0.024,-0.615 -0.895,-0.386 -1.2,-0.72 0.557,-1.25 1.891,-0.274 2.64,0.24 0.549,-1.229 1.701,-0.686 3.12,-0.721 -0.127,0.193 -0.25,0.39 -0.24,0.721 0.92,-1.401 3.158,-0.247 4.56,0.002 z"
   id="path145" />
<path
   d="m 276.88,244.12 c -0.735,-0.751 0.21,-1.858 0,-2.88 0.696,0.712 -0.092,1.976 0,2.88 z"
   id="path147" />
<path
   d="m 280.96,471.88 c 0.815,0.065 1.946,-0.186 2.4,0.24 -0.14,1.231 -2.331,0.687 -2.4,-0.24 z"
   id="path149" />
<path
   d="m 288.16,238.6 c -0.852,-0.868 0.522,-1.545 0.72,-2.16 0.887,0.903 -1.055,1.014 -0.72,2.16 z"
   id="path151" />
<path
   d="m 299.68,222.04 c 0.952,0.278 0.094,0.975 0.48,1.92 -0.204,0.044 -0.227,-0.094 -0.24,-0.24 -0.233,0.006 -0.186,0.293 -0.24,0.48 -0.439,-0.755 0.055,-1.178 0,-2.16 z"
   id="path153" />
<path
   d="m 299.68,460.36 c -0.525,-1.882 2.131,-1.845 3.12,-0.721 -0.649,1.051 -1.68,0.905 -3.12,0.721 z"
   id="path155" />
<path
   d="m 304.24,454.6 c -0.102,-0.501 0.164,-0.635 0.24,-0.96 0.853,-0.373 0.145,0.815 0.72,0.721 -0.075,0.325 -0.601,0.199 -0.96,0.239 z"
   id="path157" />
<path
   d="m 306.4,455.8 c 0.708,-0.857 0.125,-0.801 0,-1.92 0.546,-0.116 1.226,-0.476 1.68,0 0.302,0.854 -1.202,1.255 0.24,1.2 0.16,1.04 -1.114,0.647 -1.92,0.72 z"
   id="path159" />
<path
   d="m 310,451.48 c 0.678,-0.199 0.622,0.338 1.2,0.239 0.181,1.085 -1.603,0.9 -1.2,-0.239 z"
   id="path161" />
<path
   d="m 310.48,455.32 c -0.762,-0.202 0.426,-0.316 0.72,-0.24 0,-0.16 0,-0.32 0,-0.48 -0.15,-0.569 -1.478,0.038 -1.68,-0.479 0.351,-0.916 1.466,-0.698 2.4,-0.48 -0.072,0.967 -0.354,1.725 -1.44,1.679 z"
   id="path163" />
<path
   d="m 314.8,202.84 c 0.471,0.333 0.293,2.037 0,2.4 -0.857,-0.18 -0.122,-1.737 0,-2.4 z"
   id="path165" />
<path
   d="m 312.64,297.16 c 0.22,-1.061 1.526,-1.034 1.68,-2.16 1.012,0.471 -0.943,1.865 -1.68,2.16 z"
   id="path167" />
<path
   d="m 313.12,336.279 c 0.243,-0.747 1.929,-0.955 2.4,-0.719 -0.675,0.469 -1.606,1.053 -2.4,0.719 z"
   id="path169" />
<path
   d="m 315.52,294.28 c 0.041,-0.919 0.868,-1.052 1.2,-1.68 0.705,0.721 -0.65,1.418 -1.2,1.68 z"
   id="path171" />
<path
   d="m 317.44,292.36 c -0.308,-0.947 0.699,-0.581 0.72,-1.2 0.61,0.32 0.152,1.569 -0.72,1.2 z"
   id="path173" />
<path
   d="m 320.8,192.28 c 0.646,0.258 0.766,2.207 -0.24,2.16 -0.248,-0.319 -0.009,-1.605 0.24,-2.16 z"
   id="path175" />
<path
   d="m 324.88,458.68 c -2.553,0.688 -3.757,0.559 -4.56,-0.239 0.31,-0.49 1.164,-0.437 0.96,-1.44 0.715,0.005 1.462,-0.022 1.44,0.72 0.967,-1.067 1.903,-1.902 3.84,-0.72 -0.735,0.384 -1.432,0.808 -1.68,1.679 z"
   id="path177" />
<path
   d="m 328,187.48 c -0.646,-0.346 -0.796,-2.089 -0.48,-2.64 1.073,0.46 0.303,1.284 0.48,2.64 z"
   id="path179" />
<path
   d="m 330.4,181.96 c -0.6,-0.817 -0.345,-1.199 -0.72,-2.4 1.351,0.224 0.594,1.109 0.72,2.4 z"
   id="path181" />
<path
   d="m 332.32,334.84 c 0.575,-0.145 1.095,-0.345 1.92,-0.24 -0.116,0.44 -1.943,1.199 -1.92,0.24 z"
   id="path183" />
<path
   d="m 337.12,339.641 c -0.73,0.009 -1.58,0.139 -1.44,-0.721 0.73,-0.01 1.58,-0.14 1.44,0.721 z"
   id="path185" />
<path
   d="m 338.08,386.68 c 0.4,0 0.8,0 1.2,0 0.041,0.865 -1.241,0.865 -1.2,0 z"
   id="path187" />
<path
   d="m 369.28,122.92 c 1.309,0.741 0.27,2.355 1.2,3.36 -1.401,-0.119 -1.214,-1.826 -1.2,-3.36 z"
   id="path189" />
<path
   d="m 370.96,472.12 c -1.984,-0.096 -1.364,-2.796 -1.92,-4.32 0.448,-0.191 0.879,-0.4 1.44,-0.479 -0.263,1.991 1.653,2.63 0.48,4.799 z"
   id="path191" />
<path
   d="m 378.64,121 c -0.179,-0.523 -1.05,-0.874 -0.479,-1.44 0.612,0.027 0.476,0.804 0.479,1.44 z"
   id="path193" />
<path
   d="m 382.48,369.88 c 0.828,-0.657 2.202,0.188 3.119,0.24 -0.866,0.694 -2.24,-0.15 -3.119,-0.24 z"
   id="path195" />
<path
   d="m 388.96,452.92 c 0,0.4 0,0.8 0,1.2 0.633,0.072 0.788,-0.332 0.72,-0.96 0.104,-0.166 0.896,1.011 0.721,1.92 -0.422,0.293 -1.674,-0.263 -2.4,0.24 -0.109,-1.524 -1.089,-0.315 -1.68,-0.721 0.582,-0.968 -0.128,-1.264 -0.24,-2.159 1.162,-0.043 1.923,0.317 2.879,0.48 z"
   id="path197" />
<path
   d="m 439.36,103.96 c 0.338,-0.622 0.812,-1.108 1.199,-1.68 0.636,0.651 -0.509,1.558 -1.199,1.68 z"
   id="path199" />
<path
   d="m 458.8,103 c 0.36,-0.76 0.717,-1.523 1.92,-1.44 -0.693,0.427 -0.923,1.317 -1.92,1.44 z"
   id="path201" />
<path
   d="m 463.6,98.68 c -0.111,-0.512 0.343,-0.458 0.721,-0.48 -0.499,-0.687 0.441,-0.113 0.96,-0.72 0.008,0.969 -0.712,1.209 -1.681,1.2 z"
   id="path203" />
<path
   d="m 465.52,364.84 c -0.776,0.297 -0.183,-0.776 -0.96,-0.48 -0.173,-0.732 0.246,-0.874 0.24,-1.439 0.24,0 0.48,0 0.72,0 0,0.64 0,1.279 0,1.919 z"
   id="path205" />
<path
   d="m 467.68,100.12 c -1.291,0.251 -1.014,-1.072 -0.479,-1.44 0.866,-0.227 0.334,0.945 0.479,1.44 z"
   id="path207" />
<path
   d="m 469.36,98.2 c -0.633,0.072 -0.788,-0.333 -0.721,-0.96 0.855,0.055 1.255,-0.345 1.2,-1.2 0.48,0 0.96,0 1.44,0 -0.319,1.04 -1.773,0.946 -1.919,2.16 z"
   id="path209" />
<path
   d="m 477.52,104.44 c 0.253,-0.627 0.976,-0.785 1.921,-0.72 -0.549,0.332 -1.272,0.489 -1.921,0.72 z"
   id="path211" />
<path
   d="m 481.36,102.52 c -0.559,-0.36 -0.366,-0.587 -0.24,-1.2 0.24,0 0.479,0 0.72,0 0.18,0.74 -0.827,0.292 -0.48,1.2 z"
   id="path213" />
<path
   d="m 485.68,103.72 c -0.578,-0.099 -0.521,0.438 -1.199,0.24 0.07,-0.489 0.648,-0.471 0.72,-0.96 0.194,0.045 0.239,0.241 0.479,0.24 0,0.16 0,0.32 0,0.48 z"
   id="path215" />
<path
   d="m 493.84,102.28 c -0.377,-0.103 -0.205,-0.755 -0.96,-0.48 0.085,-0.315 0.423,-0.377 0.48,-0.72 0.276,0.387 0.943,0.76 0.48,1.2 z"
   id="path217" />
<path
   d="m 495.76,103 c 0.197,-1.277 2.967,-5.071 3.12,-1.92 -1.789,0.091 -1.823,1.03 -3.12,1.92 z"
   id="path219" />
<path
   d="m 504.4,361 c -0.197,-1.877 0.929,-2.432 1.68,-3.359 0.214,0.105 0.43,0.21 0.479,0.479 -0.278,1.401 -1.648,1.712 -2.159,2.88 z"
   id="path221" />
<path
   d="m 521.2,391 c -0.48,0 -0.96,0 -1.44,0 -0.198,-0.678 0.339,-0.621 0.24,-1.2 0.663,0.138 1.346,0.255 1.2,1.2 z"
   id="path223" />
<path
   d="m 529.36,379.721 c 0.603,1.049 -0.152,2.521 -1.2,1.92 0.169,-1.832 0.996,-3.005 1.2,-4.801 0.239,0 0.479,0 0.72,0 0.699,1.316 0.786,2.33 -0.72,2.881 z"
   id="path225" />
<path
   d="m 532,374.68 c -0.691,-0.428 -1.619,-0.621 -1.68,-1.68 0.604,0.275 1.802,-0.042 1.439,1.2 0.281,-0.039 0.202,-0.438 0.24,-0.72 0.843,0.19 0.278,0.839 10e-4,1.2 z"
   id="path227" />
<path
   d="m 532.48,221.8 c -0.228,-0.867 0.944,-0.334 1.439,-0.48 -0.22,0.419 -0.749,0.53 -1.439,0.48 z"
   id="path229" />
<path
   d="m 532,117.64 c 0.453,-0.427 0.969,-0.791 1.92,-0.72 -0.317,0.73 -1.205,1.034 -1.92,0.72 z"
   id="path231" />
<path
   d="m 543.52,123.4 c -0.008,-0.728 0.843,-0.598 1.44,-0.72 -0.416,0.304 -0.629,0.811 -1.44,0.72 z"
   id="path233" />
<path
   d="m 545.44,122.2 c 0.014,-1.106 2.281,0.042 1.92,-1.44 0.602,0.198 2.066,-0.466 1.92,0.48 -1.793,-0.347 -2.351,1.802 -3.84,0.96 z"
   id="path235" />
<path
   d="m 547.84,123.88 c 0.994,-0.446 2.216,-0.664 3.36,-0.96 0.143,0.497 -0.297,1.577 0.24,1.68 -0.844,0.437 -1.83,0.73 -2.641,1.2 -0.038,-0.281 -0.438,-0.202 -0.72,-0.24 -0.075,-0.563 -0.378,-0.901 -0.239,-1.68 z"
   id="path237" />
<path
   d="m 558.4,135.16 c -0.169,-0.831 0.841,-0.861 1.199,-0.48 -0.035,0.525 -0.604,0.515 -1.199,0.48 z"
   id="path239" />
<path
   d="m 568.48,133.96 c 0.457,0.103 0.434,0.686 1.199,0.48 -0.152,0.487 -1.122,0.158 -1.199,0.72 -0.536,-0.035 0.311,-0.605 0,-1.2 z"
   id="path241" />
<path
   d="m 568.48,140.68 c 0.597,0.283 1.871,-0.111 1.92,0.72 -0.833,-0.047 -1.845,0.085 -1.92,-0.72 z"
   id="path243" />
<path
   d="m 573.76,281.56 c -0.085,0.315 -0.422,0.377 -0.479,0.72 -0.542,-0.258 -0.699,-0.9 -1.2,-1.2 0.387,-0.602 1.153,0.426 1.679,0.48 z"
   id="path245" />
<path
   d="m 574.24,273.16 c 0,0.16 0,0.32 0,0.48 -0.557,0.077 -0.922,-0.039 -1.2,-0.24 0.078,-0.276 1.047,-0.826 1.2,-0.24 z"
   id="path247" />
<path
   d="m 571.6,145.96 c 0.005,-0.658 1.133,-0.57 1.44,-0.24 -0.32,0.342 -1.067,0.635 -1.44,0.24 z"
   id="path249" />
<path
   d="m 575.44,262.12 c 0.239,0 0.479,0 0.72,0 0,0.32 0,0.64 0,0.96 -0.633,0.072 -0.788,-0.332 -0.72,-0.96 z"
   id="path251" />
<path
   d="m 574.72,152.68 c -0.034,-1.018 1.876,-0.861 1.92,0 -0.64,0 -1.28,0 -1.92,0 z"
   id="path253" />
<path
   d="m 574.72,148.12 c 0.565,-0.65 1.089,-0.576 2.4,-0.48 0.064,0.989 -1.86,0.845 -2.4,0.48 z"
   id="path255" />
<path
   d="m 577.36,152.92 c -0.373,-0.853 0.814,-0.145 0.72,-0.72 -0.204,-0.704 -0.604,0.312 -1.2,0 0.119,-0.991 2.512,-0.554 1.92,0.72 -0.866,-0.567 -0.651,0.644 -1.44,0 z"
   id="path257" />
<path
   d="m 580,240.52 c -0.285,-0.945 -1.273,0.204 -1.92,-0.48 0.205,-0.343 2.393,-0.649 1.92,0.48 z"
   id="path259" />
<path
   d="m 580.24,151.48 c -0.904,-0.69 0.482,-1.098 0.479,-1.68 0.755,-0.275 0.583,0.377 0.96,0.48 -0.154,0.725 -1.089,0.67 -1.439,1.2 z"
   id="path261" />
<path
   d="m 580.72,166.36 c 0.349,-0.371 0.937,-0.504 1.681,-0.48 -0.175,1.081 -0.75,0.372 -1.681,0.48 z"
   id="path263" />
<path
   d="m 595.36,195.64 c -1.701,1.077 -4.26,0.537 -5.761,-0.24 2.178,-0.239 3.747,1.077 5.761,0.24 z"
   id="path265" />
<path
   d="m 592.48,191.08 c -1.706,-0.061 -1.997,-0.192 -3.36,-0.72 1.097,-0.386 3.299,-0.954 3.36,0.72 z"
   id="path267" />
<path
   d="m 589.12,172.12 c 0.349,0.131 1.24,-0.281 1.2,0.24 0.27,0.823 -1.746,0.711 -1.2,-0.24 z"
   id="path269" />
<path
   d="m 589.12,194.44 c -0.032,0.395 -1.647,0.395 -1.68,0 -0.113,-0.953 1.122,0.109 1.68,0 z"
   id="path271" />
<path
   d="m 586.24,178.6 c 0.35,-0.454 1.253,-1.076 1.92,-0.48 -0.054,0.747 -1.194,0.405 -1.92,0.48 z"
   id="path273" />
<path
   d="m 590.8,208.6 c -1.711,0.351 -1.713,-1.007 -3.359,-0.72 0.175,-0.545 0.722,-0.718 1.199,-0.96 1.144,0.433 1,0.704 2.641,0.48 -0.246,0.315 -0.236,0.885 -0.481,1.2 z"
   id="path275" />
<path
   d="m 553.12,124.6 c 0.142,-1.182 -0.232,-1.848 -1.44,-1.68 -0.284,1.324 0.832,1.248 1.44,1.68 z"
   id="path277" />
<path
   d="m 589.6,195.4 c 1.501,0.777 4.06,1.317 5.761,0.24 -2.015,0.837 -3.584,-0.479 -5.761,-0.24 z"
   id="path279" />
<path
   d="m 179.68,479.08 c 1.536,0.771 2.827,1.104 4.32,1.439 -0.014,-1.969 -3.606,-3.75 -4.32,-1.439 z"
   id="path281" />
<path
   d="m 177.04,415.48 c 0.098,0.578 -0.438,0.521 -0.24,1.199 0.727,0.509 1.579,0.183 1.92,1.44 -0.348,-0.907 0.659,-0.461 0.48,-1.2 -0.504,-0.694 -0.84,-1.56 -2.16,-1.439 z"
   id="path283" />
<path
   d="m 468.64,97.24 c -0.067,0.627 0.088,1.032 0.721,0.96 0.146,-1.214 1.6,-1.12 1.92,-2.16 -0.48,0 -0.96,0 -1.44,0 0.054,0.855 -0.346,1.255 -1.201,1.2 z"
   id="path285" />
<path
   d="m 485.44,96.04 c -0.32,0 -0.641,0 -0.96,0 -0.189,0.924 1.149,0.924 0.96,0 z"
   id="path287" />
<path
   d="m 465.28,97.48 c -0.519,0.607 -1.459,0.034 -0.96,0.72 -0.378,0.022 -0.832,-0.032 -0.721,0.48 0.97,0.009 1.69,-0.231 1.681,-1.2 z"
   id="path289" />
<path
   d="m 467.2,98.68 c -0.534,0.368 -0.812,1.691 0.479,1.44 -0.144,-0.495 0.388,-1.667 -0.479,-1.44 z"
   id="path291" />
<path
   d="m 495.76,103 c 1.297,-0.89 1.331,-1.829 3.12,-1.92 -0.153,-3.151 -2.923,0.643 -3.12,1.92 z"
   id="path293" />
<path
   d="m 492.88,101.8 c 0.755,-0.275 0.583,0.377 0.96,0.48 0.463,-0.44 -0.204,-0.812 -0.479,-1.2 -0.058,0.342 -0.396,0.405 -0.481,0.72 z"
   id="path295" />
<path
   d="m 481.12,101.32 c -0.126,0.613 -0.318,0.84 0.24,1.2 -0.348,-0.908 0.659,-0.46 0.479,-1.2 -0.239,0 -0.479,0 -0.719,0 z"
   id="path297" />
<path
   d="m 458.8,103 c 0.997,-0.123 1.228,-1.013 1.92,-1.44 -1.203,-0.083 -1.56,0.68 -1.92,1.44 z"
   id="path299" />
<path
   d="m 439.36,103.96 c 0.689,-0.122 1.835,-1.029 1.199,-1.68 -0.387,0.572 -0.861,1.058 -1.199,1.68 z"
   id="path301" />
<path
   d="m 484.48,103.96 c 0.678,0.198 0.621,-0.338 1.199,-0.24 0,-0.16 0,-0.32 0,-0.48 -0.24,0 -0.285,-0.195 -0.479,-0.24 -0.071,0.489 -0.649,0.471 -0.72,0.96 z"
   id="path303" />
<path
   d="m 477.52,104.44 c 0.649,-0.231 1.372,-0.388 1.921,-0.72 -0.946,-0.065 -1.669,0.092 -1.921,0.72 z"
   id="path305" />
<path
   d="m 533.92,116.92 c -0.951,-0.071 -1.467,0.293 -1.92,0.72 0.715,0.314 1.603,0.01 1.92,-0.72 z"
   id="path307" />
<path
   d="m 378.16,119.56 c -0.57,0.566 0.301,0.917 0.479,1.44 -0.002,-0.636 0.134,-1.413 -0.479,-1.44 z"
   id="path309" />
<path
   d="m 549.28,121.24 c 0.146,-0.947 -1.318,-0.283 -1.92,-0.48 0.361,1.482 -1.906,0.334 -1.92,1.44 1.489,0.842 2.047,-1.307 3.84,-0.96 z"
   id="path311" />
<path
   d="m 543.52,123.4 c 0.812,0.091 1.024,-0.416 1.44,-0.72 -0.598,0.122 -1.448,-0.008 -1.44,0.72 z"
   id="path313" />
<path
   d="m 370.48,126.28 c -0.931,-1.005 0.108,-2.619 -1.2,-3.36 -0.014,1.534 -0.201,3.241 1.2,3.36 z"
   id="path315" />
<path
   d="m 548.8,125.8 c 0.811,-0.469 1.797,-0.763 2.641,-1.2 -0.537,-0.104 -0.098,-1.183 -0.24,-1.68 -1.145,0.296 -2.366,0.514 -3.36,0.96 -0.139,0.779 0.164,1.117 0.24,1.68 0.281,0.038 0.681,-0.041 0.719,0.24 z"
   id="path317" />
<path
   d="m 570.4,129.64 c -0.356,-0.765 -1.479,-0.761 -1.92,-1.44 0.373,0.853 -0.815,0.145 -0.721,0.72 0.24,0.881 1.488,0.753 2.641,0.72 z"
   id="path319" />
<path
   d="m 569.68,134.44 c -0.766,0.206 -0.742,-0.377 -1.199,-0.48 0.311,0.595 -0.536,1.165 0,1.2 0.077,-0.562 1.046,-0.233 1.199,-0.72 z"
   id="path321" />
<path
   d="m 558.4,135.16 c 0.595,0.035 1.164,0.044 1.199,-0.48 -0.358,-0.381 -1.368,-0.351 -1.199,0.48 z"
   id="path323" />
<path
   d="m 576.16,138.76 c -1.683,0.356 -3.248,-0.253 -4.08,1.2 1.663,0.063 3.654,0.486 4.08,-1.2 z"
   id="path325" />
<path
   d="m 568.48,140.68 c 0.074,0.805 1.087,0.672 1.92,0.72 -0.048,-0.831 -1.323,-0.437 -1.92,-0.72 z"
   id="path327" />
<path
   d="m 571.6,145.96 c 0.373,0.395 1.12,0.103 1.44,-0.24 -0.308,-0.33 -1.436,-0.418 -1.44,0.24 z"
   id="path329" />
<path
   d="m 574.72,148.12 c 0.54,0.365 2.464,0.509 2.4,-0.48 -1.311,-0.096 -1.835,-0.17 -2.4,0.48 z"
   id="path331" />
<path
   d="m 581.68,150.28 c -0.377,-0.103 -0.205,-0.755 -0.96,-0.48 0.003,0.582 -1.384,0.99 -0.479,1.68 0.349,-0.53 1.284,-0.475 1.439,-1.2 z"
   id="path333" />
<path
   d="m 578.8,152.92 c 0.592,-1.273 -1.801,-1.71 -1.92,-0.72 0.596,0.312 0.996,-0.704 1.2,0 0.095,0.575 -1.093,-0.133 -0.72,0.72 0.789,0.644 0.574,-0.567 1.44,0 z"
   id="path335" />
<path
   d="m 574.72,152.68 c 0.641,0 1.28,0 1.92,0 -0.044,-0.861 -1.954,-1.018 -1.92,0 z"
   id="path337" />
<path
   d="m 582.4,165.88 c -0.744,-0.024 -1.332,0.109 -1.681,0.48 0.932,-0.108 1.507,0.601 1.681,-0.48 z"
   id="path339" />
<path
   d="m 590.32,172.36 c 0.04,-0.521 -0.852,-0.108 -1.2,-0.24 -0.546,0.951 1.47,1.063 1.2,0.24 z"
   id="path341" />
<path
   d="m 588.16,178.12 c -0.667,-0.596 -1.57,0.026 -1.92,0.48 0.726,-0.075 1.866,0.267 1.92,-0.48 z"
   id="path343" />
<path
   d="m 329.68,179.56 c 0.375,1.201 0.12,1.583 0.72,2.4 -0.126,-1.291 0.631,-2.176 -0.72,-2.4 z"
   id="path345" />
<path
   d="m 327.52,184.84 c -0.316,0.551 -0.166,2.294 0.48,2.64 -0.177,-1.356 0.593,-2.18 -0.48,-2.64 z"
   id="path347" />
<path
   d="m 595.36,186.52 c -0.568,-0.312 -1.359,-0.4 -1.92,-0.72 0.083,0.598 1.686,1.825 1.92,0.72 z"
   id="path349" />
<path
   d="m 592.48,191.08 c -0.062,-1.674 -2.264,-1.106 -3.36,-0.72 1.363,0.528 1.654,0.66 3.36,0.72 z"
   id="path351" />
<path
   d="m 320.8,192.28 c -0.249,0.555 -0.488,1.841 -0.24,2.16 1.006,0.047 0.886,-1.902 0.24,-2.16 z"
   id="path353" />
<path
   d="m 587.44,194.44 c 0.032,0.395 1.647,0.395 1.68,0 -0.558,0.109 -1.793,-0.953 -1.68,0 z"
   id="path355" />
<path
   d="m 314.8,205.24 c 0.293,-0.363 0.471,-2.067 0,-2.4 -0.122,0.663 -0.857,2.22 0,2.4 z"
   id="path357" />
<path
   d="m 588.64,206.92 c -0.478,0.242 -1.024,0.415 -1.199,0.96 1.646,-0.287 1.648,1.071 3.359,0.72 0.245,-0.315 0.235,-0.885 0.48,-1.2 -1.64,0.224 -1.497,-0.047 -2.64,-0.48 z"
   id="path359" />
<path
   d="m 532.48,221.8 c 0.689,0.05 1.219,-0.061 1.439,-0.48 -0.494,0.145 -1.666,-0.387 -1.439,0.48 z"
   id="path361" />
<path
   d="m 299.92,223.72 c 0.014,0.146 0.036,0.284 0.24,0.24 -0.386,-0.945 0.472,-1.642 -0.48,-1.92 0.055,0.982 -0.439,1.405 0,2.16 0.054,-0.186 0.007,-0.473 0.24,-0.48 z"
   id="path363" />
<path
   d="m 288.16,238.6 c -0.335,-1.146 1.606,-1.257 0.72,-2.16 -0.197,0.615 -1.571,1.292 -0.72,2.16 z"
   id="path365" />
<path
   d="m 578.08,240.04 c 0.646,0.684 1.635,-0.465 1.92,0.48 0.473,-1.129 -1.715,-0.823 -1.92,-0.48 z"
   id="path367" />
<path
   d="m 276.88,244.12 c -0.092,-0.904 0.696,-2.168 0,-2.88 0.21,1.022 -0.735,2.129 0,2.88 z"
   id="path369" />
<path
   d="m 576.16,263.08 c 0,-0.32 0,-0.64 0,-0.96 -0.24,0 -0.48,0 -0.72,0 -0.068,0.628 0.087,1.032 0.72,0.96 z"
   id="path371" />
<path
   d="m 252.64,275.32 c 0.344,-0.707 0.271,-2.741 -0.48,-3.12 0.001,0.362 -0.344,2.815 0.48,3.12 z"
   id="path373" />
<path
   d="m 574.24,273.64 c 0,-0.16 0,-0.32 0,-0.48 -0.153,-0.586 -1.122,-0.037 -1.2,0.24 0.278,0.202 0.644,0.317 1.2,0.24 z"
   id="path375" />
<path
   d="m 250.48,275.32 c 0.071,-0.951 -0.293,-1.467 -0.72,-1.92 -0.361,0.628 -0.211,1.514 0.72,1.92 z"
   id="path377" />
<path
   d="m 572.08,281.08 c 0.501,0.299 0.658,0.941 1.2,1.2 0.058,-0.342 0.395,-0.405 0.479,-0.72 -0.525,-0.054 -1.291,-1.082 -1.679,-0.48 z"
   id="path379" />
<path
   d="m 247.84,285.4 c -0.026,0.807 -0.48,1.27 0.24,1.68 -0.326,-0.731 0.895,-1.638 -0.24,-1.68 z"
   id="path381" />
<path
   d="m 245.2,290.44 c 0.214,0.619 -0.392,2.141 0,1.44 0.356,-0.784 0.667,-2.083 0,-2.64 -0.107,0.472 -0.891,1.484 -0.24,1.92 0.038,-0.283 -0.041,-0.681 0.24,-0.72 z"
   id="path383" />
<path
   d="m 318.16,291.16 c -0.021,0.619 -1.028,0.252 -0.72,1.2 0.872,0.369 1.33,-0.88 0.72,-1.2 z"
   id="path385" />
<path
   d="m 315.52,294.28 c 0.55,-0.262 1.905,-0.958 1.2,-1.68 -0.332,0.628 -1.159,0.76 -1.2,1.68 z"
   id="path387" />
<path
   d="m 240.4,294.28 c -0.084,0.965 0.004,1.756 0.72,1.92 -0.028,-0.852 0.173,-1.933 -0.72,-1.92 z"
   id="path389" />
<path
   d="m 242.08,294.52 c 0.054,0.986 0.508,1.572 0.96,2.16 0.109,-1.149 -0.261,-1.82 -0.96,-2.16 z"
   id="path391" />
<path
   d="m 314.32,295 c -0.154,1.126 -1.46,1.1 -1.68,2.16 0.737,-0.295 2.692,-1.689 1.68,-2.16 z"
   id="path393" />
<path
   d="m 239.92,300.04 c -0.038,0.758 -0.008,1.448 0.48,1.68 0.038,-0.758 0.008,-1.449 -0.48,-1.68 z"
   id="path395" />
<path
   d="m 233.68,307.721 c 0.139,-0.933 0.374,-1.569 -0.24,-2.161 0.149,0.651 -0.305,1.905 0.24,2.161 z"
   id="path397" />
<path
   d="m 230.56,307.24 c -0.036,1.207 -0.392,1.559 -0.48,3.119 0.454,0.055 0.529,-0.27 0.96,-0.239 -0.864,-0.778 0.151,-1.944 -0.48,-2.88 z"
   id="path399" />
<path
   d="m 221.44,309.641 c -0.073,0.559 -0.512,1.033 0.24,1.199 0.327,-0.306 0.371,-1.176 -0.24,-1.199 z"
   id="path401" />
<path
   d="m 227.44,311.08 c 0.405,1.715 0.401,2.548 1.2,3.6 -0.033,-1.567 -0.201,-2.999 -1.2,-3.6 z"
   id="path403" />
<path
   d="m 220.72,313 c 0.064,0.715 -0.672,1.461 0.24,1.68 -0.143,-0.497 0.297,-1.576 -0.24,-1.68 z"
   id="path405" />
<path
   d="m 213.76,314.68 c 0.188,-0.053 0.279,-0.201 0.24,-0.479 -0.307,-0.014 -0.333,-0.308 -0.72,-0.24 0.139,1.277 -0.116,1.66 0.72,2.399 -0.115,-0.754 0.342,-0.938 0.48,-1.439 -0.283,-0.038 -0.681,0.04 -0.72,-0.241 z"
   id="path407" />
<path
   d="m 212.08,319 c -0.882,-0.23 -0.954,1.18 -0.24,1.2 -0.098,-0.579 0.438,-0.522 0.24,-1.2 z"
   id="path409" />
<path
   d="m 214.96,319.48 c -0.103,0.818 0.427,2.877 0.96,3.84 0.085,-1.685 -0.187,-3.013 -0.96,-3.84 z"
   id="path411" />
<path
   d="m 206.8,325.48 c 1.251,0.406 0.136,2.232 0.96,3.359 0.026,-1.254 0.896,-3.014 -0.24,-4.08 -0.027,0.454 -0.793,0.168 -0.72,0.721 z"
   id="path413" />
<path
   d="m 332.32,334.84 c -0.023,0.959 1.804,0.2 1.92,-0.24 -0.825,-0.105 -1.345,0.095 -1.92,0.24 z"
   id="path415" />
<path
   d="m 313.12,336.279 c 0.794,0.334 1.725,-0.25 2.4,-0.719 -0.471,-0.236 -2.157,-0.028 -2.4,0.719 z"
   id="path417" />
<path
   d="m 335.68,338.92 c -0.14,0.859 0.71,0.729 1.44,0.721 0.14,-0.861 -0.71,-0.731 -1.44,-0.721 z"
   id="path419" />
<path
   d="m 252.16,347.32 c -0.121,1.096 0.417,1.359 0,2.16 0.885,-0.046 1.051,-2.185 0,-2.16 z"
   id="path421" />
<path
   d="m 255.52,349.24 c 0.355,-0.384 0.054,-1.465 -0.24,-1.92 -0.24,0.623 -0.422,1.608 0.24,1.92 z"
   id="path423" />
<path
   d="m 183.52,352.6 c -0.048,0.769 0.402,1.038 0.96,1.2 0.062,-0.782 -0.285,-1.155 -0.96,-1.2 z"
   id="path425" />
<path
   d="m 249.76,358.12 c -0.032,-0.93 0.517,-2.322 -0.24,-2.64 0.152,0.808 -0.309,2.229 0.24,2.64 z"
   id="path427" />
<path
   d="m 506.08,357.641 c -0.751,0.928 -1.877,1.482 -1.68,3.359 0.511,-1.168 1.881,-1.479 2.159,-2.88 -0.049,-0.269 -0.265,-0.374 -0.479,-0.479 z"
   id="path429" />
<path
   d="m 464.56,364.359 c 0.777,-0.296 0.184,0.777 0.96,0.48 0,-0.64 0,-1.279 0,-1.92 -0.239,0 -0.479,0 -0.72,0 0.006,0.566 -0.413,0.708 -0.24,1.44 z"
   id="path431" />
<path
   d="m 253.6,366.52 c -0.004,-0.636 0.133,-1.412 -0.48,-1.439 0.004,0.636 -0.133,1.412 0.48,1.439 z"
   id="path433" />
<path
   d="m 249.76,370.12 c -0.833,0.112 -0.137,-1.303 -0.72,-1.44 -0.31,0.607 -0.219,2.52 0.72,2.641 0.074,-0.727 0.743,-0.857 0.48,-1.92 -1.118,-0.212 0.162,0.79 -0.48,0.719 z"
   id="path435" />
<path
   d="m 251.2,369.16 c 0.094,0.731 -0.631,1.222 0.24,1.439 0.33,-0.307 0.418,-1.434 -0.24,-1.439 z"
   id="path437" />
<path
   d="m 382.48,369.88 c 0.879,0.09 2.253,0.935 3.119,0.24 -0.916,-0.052 -2.29,-0.897 -3.119,-0.24 z"
   id="path439" />
<path
   d="m 532,373.48 c -0.038,0.282 0.041,0.681 -0.24,0.72 0.362,-1.242 -0.835,-0.925 -1.439,-1.2 0.061,1.059 0.988,1.252 1.68,1.68 0.276,-0.361 0.841,-1.01 -10e-4,-1.2 z"
   id="path441" />
<path
   d="m 529.36,376.84 c -0.204,1.796 -1.031,2.969 -1.2,4.801 1.048,0.602 1.803,-0.871 1.2,-1.92 1.506,-0.551 1.419,-1.564 0.72,-2.881 -0.24,0 -0.48,0 -0.72,0 z"
   id="path443" />
<path
   d="m 244.96,378.279 c 0.311,1.469 -0.566,1.225 -1.2,0.721 0,0.32 0,0.641 0,0.96 0.765,-0.205 0.911,0.209 1.2,0.479 -0.061,-0.617 1.267,-1.874 0,-2.16 z"
   id="path445" />
<path
   d="m 243.76,380.2 c 0.146,0.573 -0.301,1.741 0.24,1.92 0.397,-0.482 0.861,-1.835 -0.24,-1.92 z"
   id="path447" />
<path
   d="m 245.68,380.2 c -0.293,0.363 -0.471,2.067 0,2.399 0.293,-0.363 0.471,-2.066 0,-2.399 z"
   id="path449" />
<path
   d="m 248.08,380.2 c 0.043,0.782 -0.564,1.155 0.48,1.2 -0.106,-0.454 0.326,-1.447 -0.48,-1.2 z"
   id="path451" />
<path
   d="m 187.6,380.439 c 0.17,0.71 0.066,1.694 0.72,1.92 -0.074,-0.805 0.321,-2.08 -0.72,-1.92 z"
   id="path453" />
<path
   d="m 186.64,381.88 c -0.146,0.575 -0.345,1.095 -0.24,1.92 1.025,0.283 0.963,-1.898 0.24,-1.92 z"
   id="path455" />
<path
   d="m 187.36,383.08 c 0.132,0.957 0.132,0.723 0,1.68 0.757,0.308 0.757,-1.989 0,-1.68 z"
   id="path457" />
<path
   d="m 183.52,383.32 c -2.988,0.602 -0.181,4.357 0.72,4.56 0.27,-0.689 0.048,-1.871 0.48,-2.399 0.53,0.35 0.475,1.284 1.2,1.439 -0.05,-1.258 -0.181,-2.211 -0.24,-2.88 -1.287,0.327 -1.47,-0.45 -2.16,-0.72 z"
   id="path459" />
<path
   d="m 178.24,386.439 c 0.678,0.039 0.559,-0.721 1.2,-0.719 -0.402,-1.304 -0.976,-1.304 -0.24,0 -0.331,-0.012 -0.527,0.112 -0.72,0.239 -0.109,-1.011 -1.173,-1.067 -1.68,-1.681 -0.032,0.77 -0.544,1.057 -1.44,0.961 0.098,-0.578 -0.438,-0.521 -0.24,-1.2 0.336,0.019 0.917,-0.054 0.48,-0.24 -0.739,-0.179 -0.461,0.659 -1.2,0.479 -0.29,2.176 0.979,1.467 1.92,2.16 -0.114,-0.754 0.299,-0.98 0.72,-1.199 -0.016,0.817 1.232,0.368 1.2,1.2 z"
   id="path461" />
<path
   d="m 178.72,386.439 c 0.073,0.888 1.02,0.9 1.44,1.44 0.167,-1.092 -0.722,-1.982 -1.44,-1.44 z"
   id="path463" />
<path
   d="m 179.92,384.279 c -0.242,1.564 1.029,3.58 2.16,4.561 0.348,-1.171 -0.328,-3.682 -2.16,-4.561 z"
   id="path465" />
<path
   d="m 243.76,386.439 c -0.185,-0.614 -0.239,-1.359 -0.72,-1.68 -0.273,0.345 -0.048,1.645 0.72,1.68 z"
   id="path467" />
<path
   d="m 232.48,385.96 c -0.087,0.491 -0.802,1.573 -0.24,1.92 0,-0.742 1.372,-1.487 0.24,-1.92 z"
   id="path469" />
<path
   d="m 176.8,386.439 c 0.428,1.492 1.168,2.672 3.12,2.641 -0.716,-1.205 -1.528,-2.311 -3.12,-2.641 z"
   id="path471" />
<path
   d="m 339.28,386.68 c -0.4,0 -0.8,0 -1.2,0 -0.041,0.865 1.241,0.865 1.2,0 z"
   id="path473" />
<path
   d="m 183.52,388.359 c 0.274,0.539 0.268,2.597 0.96,1.92 -0.5,-0.459 -10e-4,-1.918 -0.96,-1.92 z"
   id="path475" />
<path
   d="m 182.32,389.8 c 0.222,0.419 -0.008,1.288 0.72,1.2 -0.028,-0.612 -0.045,-1.234 -0.72,-1.2 z"
   id="path477" />
<path
   d="m 520,389.8 c 0.099,0.579 -0.438,0.522 -0.24,1.2 0.48,0 0.96,0 1.44,0 0.146,-0.945 -0.537,-1.062 -1.2,-1.2 z"
   id="path479" />
<path
   d="m 182.8,391.721 c 0.148,0.82 0.947,2.24 1.2,2.159 -0.055,-0.693 -0.231,-1.776 -1.2,-2.159 z"
   id="path481" />
<path
   d="m 226.96,395.8 c 0.624,-2.194 -0.922,-2.575 0,0 l 0,0 z"
   id="path483" />
<path
   d="m 247.36,394.6 c 0.068,-0.627 -0.087,-1.032 -0.72,-0.96 -0.068,0.628 0.088,1.032 0.72,0.96 z"
   id="path485" />
<path
   d="m 219.52,403.96 c 0.696,-0.037 0.771,-1.931 0.48,-2.16 -0.346,0.534 -0.603,1.157 -0.48,2.16 z"
   id="path487" />
<path
   d="m 215.92,412.6 c -0.104,0.534 -0.551,1.302 0.24,1.44 -0.227,-0.598 0.857,-1.448 -0.24,-1.44 z"
   id="path489" />
<path
   d="m 245.68,420.76 c 0.356,0.204 0.516,0.604 0.48,1.2 0.32,0 0.64,0 0.96,0 0.276,-0.283 0.271,-0.849 0.24,-1.44 -0.603,-0.472 -1.322,-0.56 -1.68,0.24 z"
   id="path491" />
<path
   d="m 200.56,420.28 c -0.039,0.758 -0.008,1.448 0.48,1.68 0.491,-0.519 0.083,-1.493 -0.48,-1.68 z"
   id="path493" />
<path
   d="m 170.08,445.48 c -0.448,-1.473 -2.051,-3.525 -3.12,-2.881 0.598,0.098 0.014,0.931 -0.48,0.721 0.157,-1.148 -1.689,-1.197 -0.96,-2.16 -1.486,0.206 -1.533,-1.027 -2.4,-1.44 -0.054,0.454 0.271,0.53 0.24,0.96 2.839,2.922 5.808,5.713 8.16,9.12 1.669,0.573 2.416,3.341 4.08,3.12 -2.457,-3.063 -6.183,-6.137 -7.92,-9.12 1.206,0.154 1.195,1.525 2.4,1.68 z"
   id="path495" />
<path
   d="m 174.64,445.96 c -0.011,0.255 0.113,0.609 0.24,0.24 0.991,1.489 1.87,3.091 3.36,4.08 -1.045,-1.594 -1.974,-3.306 -3.6,-4.32 z"
   id="path497" />
<path
   d="m 311.2,451.72 c -0.579,0.099 -0.522,-0.438 -1.2,-0.239 -0.403,1.138 1.381,1.323 1.2,0.239 z"
   id="path499" />
<path
   d="m 386.32,454.6 c 0.591,0.405 1.57,-0.804 1.68,0.721 0.727,-0.503 1.979,0.053 2.4,-0.24 0.175,-0.909 -0.616,-2.086 -0.721,-1.92 0.068,0.628 -0.087,1.032 -0.72,0.96 0,-0.4 0,-0.8 0,-1.2 -0.956,-0.163 -1.717,-0.522 -2.88,-0.479 0.113,0.894 0.823,1.19 0.241,2.158 z"
   id="path501" />
<path
   d="m 309.52,454.12 c 0.203,0.518 1.53,-0.09 1.68,0.479 0,0.16 0,0.32 0,0.48 -0.294,-0.076 -1.482,0.038 -0.72,0.24 1.086,0.046 1.368,-0.712 1.44,-1.681 -0.934,-0.216 -2.049,-0.434 -2.4,0.482 z"
   id="path503" />
<path
   d="m 304.48,453.64 c -0.076,0.325 -0.342,0.459 -0.24,0.96 0.359,-0.04 0.885,0.086 0.96,-0.239 -0.575,0.094 0.133,-1.094 -0.72,-0.721 z"
   id="path505" />
<path
   d="m 308.08,453.88 c -0.454,-0.476 -1.134,-0.116 -1.68,0 0.125,1.119 0.708,1.062 0,1.92 0.806,-0.073 2.081,0.32 1.92,-0.72 -1.442,0.055 0.062,-0.346 -0.24,-1.2 z"
   id="path507" />
<path
   d="m 322.72,457.72 c 0.022,-0.742 -0.725,-0.715 -1.44,-0.72 0.204,1.004 -0.65,0.95 -0.96,1.44 0.803,0.798 2.007,0.927 4.56,0.239 0.248,-0.871 0.945,-1.295 1.68,-1.68 -1.936,-1.182 -2.873,-0.347 -3.84,0.721 z"
   id="path509" />
<path
   d="m 299.68,460.36 c 1.439,0.184 2.471,0.33 3.12,-0.721 -0.988,-1.123 -3.645,-1.16 -3.12,0.721 z"
   id="path511" />
<path
   d="m 370.48,467.32 c -0.562,0.079 -0.992,0.288 -1.44,0.479 0.556,1.524 -0.064,4.225 1.92,4.32 1.173,-2.168 -0.743,-2.807 -0.48,-4.799 z"
   id="path513" />
<path
   d="m 179.92,470.44 c 0.133,10e-4 0.272,-0.195 0,-0.24 0.172,0.651 -1.132,-0.172 -0.96,0.479 0.938,0.103 0.659,1.421 1.92,1.2 0.433,-1.232 -0.865,-0.734 -0.96,-1.439 z"
   id="path515" />
<path
   d="m 280.96,471.88 c 0.069,0.927 2.26,1.471 2.4,0.24 -0.454,-0.426 -1.585,-0.175 -2.4,-0.24 z"
   id="path517" />
<path
   d="m 183.28,476.68 c -1.227,-0.542 -2.364,-2.196 -4.32,-1.68 1.159,0.685 2.988,1.968 4.32,1.68 z"
   id="path519" />
<path
   d="m 180.4,481.48 c 0.01,0.33 -0.113,0.526 -0.24,0.72 0.891,0.177 1.648,0.238 2.4,-0.24 -0.819,-0.061 -1.153,-0.606 -2.16,-0.48 z"
   id="path521" />
<path
   d="m 266.56,484.36 c -0.01,-0.331 0.113,-0.527 0.24,-0.721 -1.418,0.035 -2.57,-0.509 -3.12,0.721 -0.75,-0.515 -2.083,-1.49 -2.64,-0.24 0.306,0.334 1.176,0.104 1.2,0.72 -1.134,0.83 -3.738,-0.753 -4.8,0.96 1.611,0.137 2.522,0.529 3.84,0.72 -0.459,0.102 -1.033,0.087 -0.96,0.721 1.216,0.062 0.543,0.521 0.72,0.72 1.744,-0.675 3.84,0.734 4.8,-0.96 -0.507,-0.693 -1.559,-0.841 -2.16,-1.44 1.294,-0.607 4.833,1.517 3.12,2.4 0.555,0.484 1.841,0.245 2.16,-0.24 0.545,0.415 0.927,0.993 1.92,0.96 0.027,-0.293 0.072,-0.568 0.48,-0.479 -0.648,-1.536 -0.022,-2.402 -0.24,-3.84 -1.402,-0.251 -3.64,-1.405 -4.56,-0.002 z"
   id="path523" />
<path
   d="m 252.4,487.72 c 1.508,0.492 3.15,0.85 4.8,1.2 0.29,-0.59 1.294,-0.466 1.44,-1.2 -2.466,-0.688 -4.346,-0.481 -6.24,0 z"
   id="path525" />
<path
   d="m 258.4,489.64 c -1.149,-0.028 -2.172,0.068 -2.88,0.48 0.893,0.144 2.32,0.314 2.88,-0.48 z"
   id="path527" />
<path
   d="m 209.2,501.64 c 0.355,0.125 0.604,0.355 0.96,0.48 0.276,-0.284 0.271,-0.849 0.24,-1.44 -0.9,-0.18 -1.17,0.27 -1.2,0.96 z"
   id="path529" />
<path
   d="m 222.4,508.84 c 0,0.24 0,0.48 0,0.72 0.718,-10e-4 1.009,-0.431 1.2,-0.96 -0.678,-0.199 -0.621,0.338 -1.2,0.24 z"
   id="path531" />
<path
   d="M 150.933,417.16"
   id="path533"
   style="fill-rule:evenodd" />
<path
   d="M 148.473,414.033"
   id="path535"
   style="fill-rule:evenodd" />
<path
   d="m 369.191,482.75 c -0.022,0.377 0.032,0.832 -0.479,0.72 0,-0.64 0,-1.28 0,-1.921 -1.015,-0.346 -4.065,1.415 -4.461,0.451 0.614,-0.693 3.044,-4.02 3.021,-4.771 1.924,0.175 2.092,-0.715 3.84,-0.239"
   id="path537" />
<path
   d="m 330.792,541.549 c -0.038,0.283 0.041,0.682 -0.24,0.721 -0.105,-0.329 -0.109,-0.66 -0.124,-1.002 -0.02,-0.443 -0.057,-0.903 -0.356,-1.398 0.154,-0.807 1.151,-0.769 2.16,-0.72 -0.274,-0.704 -0.142,-0.892 0.48,-1.2 0.082,0.678 1.362,-0.376 1.92,0.721 -1.549,-2.756 1.529,-4.718 3.6,-3.121 1.028,-0.091 1.011,-1.229 1.68,-1.68 1.648,-0.288 2.441,0.279 2.641,1.44 0.037,-0.282 -0.041,-0.681 0.24,-0.72 0.032,0.768 -0.237,1.836 0.72,1.68 0.565,-0.555 0.569,-1.671 1.68,-1.68 0.19,1.631 -0.862,2.018 -0.96,3.359 1.409,-0.827 2.467,-3.027 1.92,-5.039 0.472,0.071 0.477,-0.324 0.721,-0.48 1.083,0.277 1.191,1.527 2.159,1.92 0.236,-0.388 0.641,-0.553 0.96,-0.24 0.357,-1.247 0.473,-4.462 1.92,-3.119 -0.27,-1.899 -0.732,-3.151 -1.439,-4.08 0.569,-0.361 0.239,-1.012 0.479,-1.201 0.575,-0.095 -0.133,1.094 0.721,0.721 -0.348,-1.207 0.734,-2.246 0.239,-3.6 0.457,-0.104 0.604,-0.518 1.2,-0.48 -0.333,-2.094 0.211,-2.824 -0.479,-4.561 0.419,-0.779 1.116,-1.283 1.92,-1.68 -0.255,-0.785 -0.754,-1.326 -1.2,-1.92 1.005,-2.485 2.617,-5.092 2.16,-7.68 1.049,-0.109 2.622,-0.104 4.56,0 0.08,-2.225 -0.79,-2.197 -1.68,-3.6 0.67,-1.011 2.541,-0.82 2.88,-2.16 -0.422,-0.059 -0.547,-0.414 -0.479,-0.961 0.568,-0.391 1.308,-0.611 1.439,-1.439 -0.481,-1.123 -3.17,-1.305 -2.88,-2.4 0.689,1.055 1.835,-0.631 2.16,-1.439 -0.134,-0.586 -0.929,-0.512 -0.72,-1.44 -0.876,-0.213 -1.279,0.424 -1.681,0 0.585,-0.505 -0.212,-1.067 0.24,-1.44 1.954,-0.301 1.111,0.77 1.68,0.961 1.198,-1.161 2.633,-0.01 3.12,0.959 0.747,-0.772 0.848,-2.191 2.16,-2.399 -0.185,-0.904 0.293,-1.147 0.24,-1.92 -1.062,-0.183 -0.825,0.935 -1.44,1.2 0.22,-0.421 0.083,-1.197 0.48,-1.439 0.56,-10e-4 1.12,0 1.68,0 0.027,-0.293 0.072,-0.568 0.48,-0.48 0.056,-1.176 -0.423,-1.817 -0.24,-3.12 -1.142,0.021 -0.781,-1.459 -1.44,-1.92 1.543,-0.183 2.637,0.083 3.36,0.72"
   id="path539" />
<path
   d="M 329.511,542.27"
   id="path541" />
<path
   d="m 312.231,505.069 c -1.143,1.018 -2.284,2.036 -2.399,4.08 -1.853,0.868 -3.942,1.498 -5.761,2.399 0.174,0.547 0.214,1.227 0.48,1.681 2.876,0.083 4.344,1.575 5.76,3.12 -1.03,-0.486 -0.649,0.246 -0.479,0.96 -0.877,0.003 -1.078,0.683 -1.681,0.96 0.371,2.686 -3.336,2.509 -5.279,3.84 -0.721,0.494 -0.683,1.51 -1.681,1.439 -0.457,2.043 -1.433,3.712 -0.72,5.761 0.598,0.228 1.447,-0.856 1.439,0.239 0.82,0.181 0.306,-0.975 1.2,-0.719 0.017,1.015 0.549,0.567 0.96,0.239 0,0.32 0,0.64 0,0.96 2.268,-0.28 3.403,-2.287 5.28,-1.68 -0.75,0.066 -2.657,1.209 -1.68,1.439 0.403,-0.005 1.706,-1.166 2.88,-1.199 0.358,0.842 0.976,1.424 0.72,2.88 -0.601,-0.041 -0.751,0.368 -0.96,0.72 0.773,0.867 -0.325,1.904 -0.24,2.88 0.35,0.371 1.229,0.212 1.92,0.24 0.123,0.776 1.201,1.717 0.24,2.16 1.301,-0.181 0.945,1.294 2.4,0.96 0.026,-3.922 4.597,-3.984 6.72,-6.24 3.815,-0.788 3.382,-4.346 7.2,-5.04 0.811,0.2 -0.241,2.312 0.72,1.2 0.244,1.364 -0.593,1.646 -1.439,1.92 0,2.617 -0.608,3.982 -0.96,5.76 0.4,0.8 1.493,1.916 0.72,3.12 0.497,0.144 1.576,-0.296 1.68,0.24 0.192,0.833 -0.357,0.923 -0.24,1.68 0.549,0.292 1.271,0.41 1.66,0.86"
   id="path543" />
<path
   d="m 316.792,512.27 c -0.197,-1.877 0.929,-2.432 1.68,-3.359 0.214,0.105 0.43,0.21 0.479,0.479 -0.279,1.401 -1.649,1.712 -2.159,2.88 z"
   id="path545" />
<path
   d="m 333.591,542.27 c -0.48,0 -0.96,0 -1.44,0 -0.198,-0.678 0.339,-0.621 0.24,-1.2 0.663,0.137 1.346,0.254 1.2,1.2 z"
   id="path547" />
<path
   d="m 344.391,525.949 c -0.691,-0.428 -1.619,-0.621 -1.68,-1.68 0.604,0.275 1.802,-0.042 1.439,1.2 0.281,-0.039 0.202,-0.438 0.24,-0.72 0.843,0.19 0.278,0.84 0.001,1.2 z"
   id="path549" />
<path
   d="m 318.471,508.91 c -0.751,0.928 -1.877,1.482 -1.68,3.359 0.511,-1.168 1.881,-1.479 2.159,-2.88 -0.049,-0.269 -0.265,-0.373 -0.479,-0.479 z"
   id="path551" />
<path
   d="m 344.391,524.75 c -0.038,0.282 0.041,0.681 -0.24,0.72 0.362,-1.242 -0.835,-0.925 -1.439,-1.2 0.061,1.059 0.988,1.252 1.68,1.68 0.276,-0.361 0.841,-1.011 -10e-4,-1.2 z"
   id="path553" />
<path
   d="m 332.391,541.069 c 0.099,0.579 -0.438,0.522 -0.24,1.2 0.48,0 0.96,0 1.44,0 0.146,-0.945 -0.537,-1.062 -1.2,-1.2 z"
   id="path555" />
</svg>