<?xml version="1.0" standalone="no"?>
<!DOCTYPE svg PUBLIC "-//W3C//DTD SVG 20010904//EN"
 "http://www.w3.org/TR/2001/REC-SVG-20010904/DTD/svg10.dtd">
<svg version="1.0" xmlns="http://www.w3.org/2000/svg"
 width="1088.000000pt" height="1536.000000pt" viewBox="0 0 1088.000000 1536.000000"
 preserveAspectRatio="xMidYMid meet">
<metadata>
Created by potrace 1.16, written by Peter Selinger 2001-2019
</metadata>
<g transform="translate(0.000000,1536.000000) scale(0.100000,-0.100000)"
fill="#000000" stroke="none">
<path d="M2495 15349 c-56 -17 -160 -30 -255 -34 -98 -4 -123 -6 -257 -24 -43
-6 -111 -13 -151 -16 -41 -3 -79 -8 -85 -12 -7 -4 -32 -8 -57 -9 -80 -3 -154
-12 -183 -23 -16 -6 -32 -9 -36 -7 -4 3 -36 -3 -72 -14 -35 -10 -95 -24 -134
-30 -38 -7 -90 -18 -115 -25 -25 -7 -63 -16 -84 -20 -22 -3 -58 -15 -80 -25
-23 -10 -61 -21 -86 -24 -25 -4 -58 -13 -74 -21 -15 -8 -33 -12 -38 -9 -6 4
-33 0 -62 -9 -82 -25 -156 -39 -226 -42 -36 -1 -103 -8 -150 -14 -60 -8 -98
-8 -130 0 -28 6 -55 6 -70 1 -13 -5 -42 -5 -64 -1 -23 5 -52 8 -65 9 -23 0
-23 -1 -7 -19 27 -29 98 -42 236 -41 69 0 147 0 174 0 26 -1 65 5 85 11 20 7
46 12 59 11 13 -1 42 3 65 9 61 15 173 38 240 49 32 5 71 17 87 25 16 8 42 15
57 15 15 1 39 7 53 15 14 8 47 14 73 15 32 0 58 7 76 19 15 11 36 18 47 15 11
-3 40 2 64 10 25 9 60 16 78 16 18 0 43 5 55 12 23 13 115 26 232 32 39 2 83
9 99 15 16 7 55 11 87 10 32 -1 64 3 71 9 7 6 70 13 138 15 69 3 163 8 210 11
47 3 99 6 115 7 17 1 66 6 109 10 64 7 83 6 95 -5 28 -26 68 -35 271 -66 449
-69 790 -144 946 -209 38 -15 92 -33 121 -40 29 -7 57 -19 64 -27 19 -23 115
-74 299 -160 96 -45 270 -128 385 -186 116 -58 309 -147 430 -198 121 -50 290
-123 375 -160 288 -127 700 -300 708 -298 5 2 52 -43 106 -99 85 -89 368 -343
496 -444 64 -51 286 -200 343 -229 44 -23 60 -40 38 -40 -5 0 -15 -16 -21 -35
-10 -31 -13 -33 -36 -24 -14 5 -32 16 -40 24 -9 8 -27 15 -41 15 -24 0 -77 30
-98 55 -20 24 -129 95 -145 95 -9 0 -25 -6 -35 -14 -14 -10 -27 -11 -54 -3
-50 15 -353 14 -423 -2 -66 -14 -299 -98 -392 -140 -65 -29 -78 -45 -70 -79 4
-12 0 -22 -10 -25 -9 -4 -16 -18 -16 -32 0 -41 148 -764 165 -809 27 -69 49
-78 152 -66 118 14 527 97 571 116 47 19 72 42 72 66 0 20 -3 22 -28 9 -37
-19 -138 -43 -299 -71 -92 -16 -203 -36 -246 -43 -43 -8 -80 -10 -83 -5 -3 4
-25 106 -50 226 -25 119 -65 293 -90 385 -44 162 -45 169 -27 183 10 7 29 16
43 19 14 3 72 19 130 35 150 43 450 108 550 119 75 8 87 8 105 -8 20 -17 143
-89 178 -103 17 -7 24 -28 9 -28 -13 0 -34 -69 -27 -90 7 -22 -10 -28 -18 -7
-3 7 -22 25 -44 40 -38 26 -41 27 -97 15 l-58 -11 23 -18 c13 -9 41 -20 63
-23 47 -8 65 -29 66 -76 0 -36 32 -100 50 -100 5 0 10 -7 10 -14 0 -8 10 -26
23 -41 12 -14 36 -43 52 -65 18 -24 52 -50 87 -67 31 -16 57 -33 57 -38 1 -19
-103 -112 -132 -119 -40 -9 -51 1 -32 31 30 46 17 178 -21 214 -13 12 -27 20
-30 16 -4 -4 -15 11 -26 32 -35 72 -143 132 -273 152 -133 20 -206 6 -224 -43
-8 -23 23 -137 53 -197 49 -93 160 -158 257 -149 47 5 94 32 84 48 -3 4 2 10
10 14 21 8 26 -6 27 -83 0 -73 12 -95 52 -103 11 -1 30 -13 42 -25 40 -40 152
-26 196 23 15 17 26 36 87 146 26 46 46 52 119 38 157 -32 228 -63 342 -150
41 -32 86 -63 99 -70 13 -7 65 -43 115 -80 160 -118 441 -300 846 -550 217
-133 404 -247 417 -253 20 -9 23 -18 23 -62 0 -57 4 -63 97 -171 41 -48 60
-81 82 -145 29 -83 153 -406 276 -714 35 -88 78 -216 95 -285 17 -69 51 -190
75 -270 56 -184 125 -443 125 -469 0 -15 -20 -32 -77 -63 -173 -97 -493 -320
-913 -636 -245 -185 -480 -364 -522 -398 -105 -85 -153 -112 -255 -140 -94
-26 -121 -45 -148 -105 -10 -21 -23 -39 -30 -39 -6 0 -22 19 -35 43 -73 132
-331 308 -639 436 -103 44 -422 150 -586 196 -33 9 -105 35 -160 57 -172 69
-552 177 -715 202 -216 34 -456 17 -524 -38 -38 -30 -49 -115 -20 -147 10 -11
24 -48 31 -81 7 -33 19 -68 28 -78 19 -21 19 -34 0 -85 -23 -66 -19 -139 12
-193 52 -93 205 -225 311 -269 61 -25 187 -42 240 -31 59 11 183 72 213 104
26 28 38 26 -136 28 -120 1 -134 3 -186 28 -30 15 -69 45 -86 65 -28 35 -53
76 -53 86 0 5 71 24 123 32 21 3 59 17 84 31 58 30 119 33 128 4 5 -15 -4 -33
-34 -67 -40 -45 -51 -76 -31 -88 6 -3 45 10 87 31 l77 36 96 -16 c53 -8 129
-19 168 -22 81 -8 86 -17 26 -50 -21 -12 -46 -34 -55 -48 -9 -15 -27 -37 -40
-49 l-24 -22 27 -3 c15 -2 108 15 207 38 l180 42 283 -10 c306 -11 329 -15
552 -91 50 -17 98 -31 108 -31 10 0 18 -6 18 -13 0 -7 12 -30 27 -52 15 -22
27 -49 28 -61 1 -29 32 -63 72 -80 49 -21 151 -18 198 6 48 24 45 24 45 0 0
-11 6 -23 14 -26 21 -8 91 14 110 34 9 11 30 19 47 20 117 3 304 128 644 431
200 179 276 238 664 520 63 46 144 108 181 139 38 32 96 73 131 92 35 19 96
57 136 84 41 27 76 46 79 43 4 -3 55 -52 115 -108 l108 -103 -36 -44 -36 -44
2 -141 c0 -78 5 -198 11 -267 18 -238 24 -618 11 -725 -18 -139 -20 -140 -78
-80 -124 129 -228 285 -366 550 -133 257 -156 291 -218 332 -51 35 -88 37
-136 7 -25 -16 -87 -117 -97 -157 -31 -132 -21 -258 29 -358 131 -262 289
-421 542 -548 80 -40 179 -50 273 -28 36 9 65 15 65 14 1 -1 18 -28 38 -60
140 -216 146 -235 93 -340 -20 -40 -63 -164 -96 -276 -56 -195 -61 -207 -103
-250 -24 -25 -61 -74 -83 -108 -21 -35 -42 -63 -46 -63 -4 0 -12 18 -18 40 -6
23 -35 98 -64 168 -29 70 -65 172 -79 227 -33 123 -86 280 -122 360 -15 33
-42 99 -59 146 -64 170 -134 219 -242 170 -52 -24 -75 -68 -114 -226 -23 -90
-30 -140 -30 -215 0 -180 65 -409 146 -518 37 -50 79 -82 219 -172 104 -67
171 -89 276 -90 l46 0 6 -177 c4 -136 11 -203 30 -285 21 -93 22 -108 10 -121
-16 -16 -42 -123 -43 -175 0 -32 -35 -106 -69 -145 -9 -10 -29 -24 -46 -32
-55 -23 -74 -55 -104 -176 -18 -70 -62 -195 -116 -324 -49 -115 -107 -255
-130 -310 -60 -143 -108 -235 -183 -350 -118 -181 -202 -329 -217 -380 -21
-68 -11 -162 20 -189 19 -17 21 -24 13 -46 -30 -74 -45 -101 -61 -106 -22 -7
-163 -167 -222 -251 -51 -73 -85 -135 -85 -156 0 -8 -14 -20 -31 -28 -18 -7
-56 -36 -86 -66 -43 -42 -53 -57 -48 -74 4 -11 8 -31 9 -43 4 -30 20 -57 55
-90 25 -24 31 -38 31 -70 0 -23 7 -47 17 -58 15 -17 15 -20 -4 -46 -30 -40
-83 -148 -83 -169 0 -10 -7 -27 -16 -38 -10 -14 -13 -32 -8 -61 4 -26 2 -44
-5 -48 -17 -11 -13 -37 17 -101 16 -33 34 -92 41 -132 7 -40 19 -77 27 -84 23
-19 16 -29 -17 -22 -22 4 -38 0 -59 -16 -38 -28 -47 -27 -125 13 -55 30 -70
33 -94 25 -21 -8 -46 -5 -102 10 -81 22 -218 85 -203 93 29 17 211 -15 276
-48 15 -8 34 -14 42 -14 26 0 -16 59 -65 92 -91 61 -266 92 -321 56 -13 -8
-35 -18 -50 -21 -35 -9 -82 -69 -74 -95 11 -35 211 -182 247 -182 8 0 20 -5
26 -11 16 -16 196 -74 255 -83 26 -4 50 -11 53 -17 8 -11 68 -11 120 1 33 7
46 6 74 -11 50 -29 92 -19 114 26 9 19 21 35 27 35 5 0 10 8 10 18 0 11 8 27
19 36 18 16 19 15 26 -16 4 -18 9 -76 10 -128 5 -125 18 -202 61 -357 20 -70
40 -149 44 -176 5 -26 17 -64 28 -85 10 -20 28 -64 40 -97 11 -33 50 -134 85
-225 93 -234 92 -208 3 -264 -79 -49 -122 -92 -132 -131 -5 -21 -11 -23 -37
-19 -88 14 -145 27 -174 41 -25 12 -50 14 -120 8 -69 -5 -102 -3 -144 9 -51
15 -118 44 -129 57 -3 3 -21 13 -41 22 l-37 17 17 34 c24 53 105 74 209 55
104 -20 105 13 2 52 -30 11 -93 23 -140 26 -75 5 -91 3 -128 -16 -58 -29 -71
-61 -74 -174 l-3 -94 41 -42 c23 -22 47 -41 53 -41 7 0 22 -7 35 -15 42 -28
190 -76 276 -91 171 -30 276 -44 332 -44 57 0 108 15 108 32 0 5 10 4 21 -3
56 -29 80 -30 125 -1 24 15 43 34 44 42 0 8 9 21 20 28 11 7 20 20 20 30 0 9
9 23 20 30 11 7 20 20 20 30 0 9 10 23 21 30 19 12 21 20 16 62 l-6 48 34 6
c51 10 95 51 95 89 0 36 -44 135 -88 200 -16 23 -50 83 -75 132 -25 50 -64
115 -88 145 -26 34 -43 65 -44 84 -1 17 -5 43 -9 58 -7 24 -4 29 20 40 16 7
31 13 32 14 7 5 -60 250 -95 349 -19 55 -48 121 -64 146 -28 43 -29 48 -15 75
8 16 19 47 24 69 6 22 20 67 33 100 19 54 21 68 12 145 -12 99 -44 188 -83
233 -31 36 -58 86 -71 130 -7 24 -5 30 11 34 19 5 80 84 80 102 0 5 11 12 24
15 14 3 46 24 71 46 45 39 47 40 75 25 46 -24 50 -20 50 49 0 63 1 65 29 71
42 9 124 83 118 107 -3 10 -1 21 4 24 5 3 6 16 3 29 -3 12 -1 26 5 29 6 4 11
14 11 23 0 9 7 21 16 28 22 16 11 35 -65 111 -52 52 -61 66 -61 97 0 26 4 37
14 37 21 0 42 33 72 115 15 38 45 90 66 115 21 25 71 84 109 133 74 92 93 107
131 107 13 0 33 6 44 14 19 14 20 20 11 81 -8 54 -6 81 11 158 12 51 26 119
32 152 14 81 28 126 100 316 87 229 133 317 309 584 26 39 57 104 71 145 13
41 32 84 41 95 9 11 19 28 22 37 5 13 12 15 34 9 31 -9 72 9 91 39 8 13 9 67
3 189 -7 149 -6 183 10 261 18 85 49 164 91 222 17 25 18 35 7 166 -16 183 -6
249 66 433 30 77 55 146 55 152 0 6 15 40 33 76 25 49 32 72 26 91 -12 43 -10
57 11 63 15 4 20 14 20 36 0 18 6 46 14 64 12 29 11 42 -5 106 -27 105 -31
345 -7 421 17 53 17 55 -3 76 -25 27 -31 49 -79 284 -46 230 -65 378 -80 630
-13 216 -9 372 10 395 19 23 -13 203 -60 335 -20 58 -47 147 -60 198 -21 87
-25 95 -67 129 -45 37 -122 148 -235 338 -211 357 -303 561 -483 1070 -87 247
-126 338 -179 416 -20 30 -36 59 -36 65 0 6 -7 17 -14 24 -8 6 -22 35 -31 63
-20 62 -46 87 -89 87 -17 0 -47 5 -66 10 -50 14 -362 203 -580 351 -102 69
-223 148 -270 176 -47 27 -137 88 -200 134 -324 238 -367 279 -396 384 -16 62
-18 65 -48 65 -17 0 -36 4 -43 8 -7 4 -26 48 -44 97 -140 399 -214 507 -369
540 -34 7 -31 4 50 -76 67 -66 90 -95 103 -135 32 -91 -9 -139 -98 -114 -25 7
-45 14 -45 16 0 2 11 20 25 40 45 66 25 138 -48 170 -21 10 -81 47 -132 83
-52 37 -185 129 -296 206 -111 77 -279 204 -373 283 -176 147 -214 168 -306
174 -19 1 -51 12 -71 24 -76 47 -348 178 -434 209 -252 92 -623 249 -877 371
-155 75 -287 140 -293 144 -5 4 -48 27 -95 51 -47 23 -132 69 -190 100 -107
59 -208 92 -264 88 -17 -2 -45 5 -62 14 -166 87 -621 190 -1089 247 -93 11
-178 23 -188 26 -32 10 -221 12 -252 3z"/>
</g>
</svg>
