<?xml version="1.0" standalone="no"?>
<!DOCTYPE svg PUBLIC "-//W3C//DTD SVG 20010904//EN"
 "http://www.w3.org/TR/2001/REC-SVG-20010904/DTD/svg10.dtd">
<svg version="1.0" xmlns="http://www.w3.org/2000/svg"
 width="2029.000000pt" height="642.000000pt" viewBox="0 0 2029.000000 642.000000"
 preserveAspectRatio="xMidYMid meet">
<metadata>
Created by potrace 1.16, written by Peter Selinger 2001-2019
</metadata>
<g transform="translate(0.000000,642.000000) scale(0.100000,-0.100000)"
fill="#000000" stroke="none">
<path d="M8485 6397 c-102 -34 -118 -45 -244 -157 -327 -291 -351 -317 -504
-550 -118 -179 -174 -251 -331 -430 -104 -118 -245 -279 -314 -356 l-124 -142
-126 -6 c-70 -4 -305 -13 -522 -21 -217 -8 -503 -24 -635 -35 -333 -29 -1001
-109 -1495 -180 -228 -33 -476 -66 -550 -75 -298 -34 -602 -88 -905 -160 -478
-114 -612 -145 -714 -166 -52 -10 -250 -59 -440 -108 -190 -49 -387 -99 -437
-110 -166 -39 -802 -239 -953 -300 -117 -47 -161 -73 -176 -101 -37 -71 -14
-96 185 -202 388 -206 495 -254 740 -334 129 -42 303 -100 386 -129 83 -30
195 -65 250 -80 124 -32 132 -36 190 -80 83 -63 151 -90 567 -225 437 -141
533 -167 842 -229 369 -74 496 -90 795 -101 184 -6 338 -18 465 -35 358 -48
570 -74 658 -81 l89 -7 167 -341 c161 -327 370 -698 693 -1228 137 -223 255
-378 312 -408 63 -34 92 -22 129 49 33 67 34 107 13 626 -8 193 -18 504 -21
692 -6 302 -5 344 9 349 8 3 153 -17 323 -45 374 -61 348 -58 668 -76 852 -47
874 -47 1480 21 219 24 1612 293 1840 355 l120 33 505 6 c545 8 547 8 628 64
58 40 116 104 179 196 69 101 105 123 239 145 881 146 968 158 1104 159 103 0
171 -7 288 -27 84 -15 201 -30 260 -34 l107 -6 115 47 c63 26 134 58 157 72
70 41 70 103 1 134 l-40 18 59 26 c32 15 101 42 153 61 52 18 145 54 205 79
135 55 221 73 393 82 121 6 134 5 153 -12 12 -10 79 -87 149 -169 137 -163
785 -821 915 -930 133 -112 433 -248 605 -275 85 -13 191 -13 227 1 77 29 88
72 53 217 -29 120 -45 149 -210 377 -48 66 -117 176 -153 245 -80 153 -156
379 -164 491 l-6 76 392 347 c387 343 401 354 1063 848 421 314 717 528 796
574 149 89 217 143 233 189 l13 34 75 -59 c96 -73 170 -118 207 -126 22 -4 40
2 76 26 l48 32 -6 61 c-2 34 -7 81 -9 104 l-4 41 232 229 c128 125 247 247
266 269 22 28 39 67 52 119 22 83 22 79 -29 143 l-18 23 -133 -10 -133 -11
-282 -126 c-649 -292 -610 -277 -1421 -549 -835 -280 -892 -302 -1675 -650
-839 -373 -895 -405 -1046 -588 -42 -51 -80 -93 -84 -95 -5 -2 -93 6 -197 17
-103 11 -314 30 -468 43 -261 21 -281 24 -300 44 -12 13 -45 32 -74 43 -61 23
-113 64 -225 176 l-81 82 -77 13 c-94 16 -120 10 -307 -66 -74 -30 -153 -59
-177 -64 -61 -14 -525 15 -1134 71 -225 20 -256 24 -445 53 -55 8 -341 42
-635 75 -638 72 -1906 227 -1970 242 -157 37 -164 42 -323 198 -82 80 -158
161 -169 179 -28 45 -34 180 -19 442 6 113 14 300 18 415 6 205 5 213 -21 330
-28 122 -61 197 -96 215 -10 6 -59 12 -107 15 -75 5 -99 2 -158 -18z"/>
</g>
</svg>
