<?xml version="1.0" standalone="no"?>
<!DOCTYPE svg PUBLIC "-//W3C//DTD SVG 20010904//EN"
 "http://www.w3.org/TR/2001/REC-SVG-20010904/DTD/svg10.dtd">
<svg version="1.0" xmlns="http://www.w3.org/2000/svg"
 width="576.000000pt" height="394.000000pt" viewBox="0 0 576.000000 394.000000"
 preserveAspectRatio="xMidYMid meet">
<metadata>
Created by potrace 1.16, written by Peter Selinger 2001-2019
</metadata>
<g transform="translate(0.000000,394.000000) scale(0.100000,-0.100000)"
fill="#000000" stroke="none">
<path d="M3435 3931 c-16 -4 -74 -29 -127 -56 -95 -47 -98 -47 -191 -47 -82 1
-102 4 -147 27 -31 16 -61 24 -74 21 -11 -3 -48 -28 -81 -57 -95 -81 -136
-109 -162 -109 -13 0 -50 11 -83 25 -87 37 -121 33 -215 -22 -93 -54 -141 -62
-278 -44 -120 16 -154 8 -261 -62 -123 -81 -151 -84 -285 -28 -55 22 -116 41
-135 41 -57 0 -151 -40 -357 -152 -316 -172 -291 -162 -390 -159 -81 1 -89 0
-118 -25 -39 -32 -72 -96 -111 -212 -36 -108 -51 -200 -90 -557 -50 -461 -46
-446 -196 -806 -129 -309 -148 -390 -123 -511 10 -46 20 -62 78 -119 156 -154
339 -219 576 -204 162 9 227 21 356 65 129 45 166 48 290 24 212 -40 378 -98
639 -224 159 -76 268 -119 485 -193 428 -145 458 -158 605 -257 143 -96 242
-139 463 -199 380 -104 476 -110 826 -51 333 57 500 130 620 273 52 62 65 92
119 264 70 226 79 236 204 213 86 -15 121 -9 179 34 56 42 83 94 76 148 -5 39
-26 70 -137 203 -54 63 -58 80 -36 143 14 38 13 48 -16 159 -50 189 -37 203
184 203 116 0 137 3 166 20 35 22 71 87 72 130 0 76 -168 203 -369 279 -80 31
-114 49 -147 82 -52 51 -120 179 -159 299 -50 155 -70 184 -293 450 -115 136
-142 181 -126 208 6 9 34 35 62 56 31 23 52 47 52 58 0 29 -62 50 -170 55 -82
4 -100 8 -128 29 -47 36 -71 92 -79 179 -8 104 -16 112 -86 96 -30 -8 -59 -11
-65 -8 -5 4 -13 39 -16 78 -9 83 -29 110 -101 128 -83 21 -158 14 -256 -24
-143 -55 -170 -49 -255 56 -68 85 -104 100 -189 80z"/>
</g>
</svg>
