<?xml version="1.0" standalone="no"?>
<!DOCTYPE svg PUBLIC "-//W3C//DTD SVG 20010904//EN"
 "http://www.w3.org/TR/2001/REC-SVG-20010904/DTD/svg10.dtd">
<svg version="1.0" xmlns="http://www.w3.org/2000/svg"
 width="1513.000000pt" height="1536.000000pt" viewBox="0 0 1513.000000 1536.000000"
 preserveAspectRatio="xMidYMid meet">
<metadata>
Created by potrace 1.16, written by Peter Selinger 2001-2019
</metadata>
<g transform="translate(0.000000,1536.000000) scale(0.100000,-0.100000)"
fill="#000000" stroke="none">
<path d="M10305 15354 c-267 -19 -337 -28 -484 -64 -86 -21 -317 -75 -513
-120 -603 -137 -739 -192 -932 -379 -183 -177 -445 -540 -569 -787 -177 -354
-260 -701 -372 -1564 -31 -234 -57 -429 -58 -434 -2 -6 -36 35 -77 90 -488
658 -674 879 -1041 1239 -322 316 -529 465 -643 465 -69 0 -201 47 -400 142
-441 210 -818 349 -1201 444 -287 71 -338 77 -700 82 l-329 4 130 -138 c248
-262 291 -313 307 -357 12 -32 -32 -62 -126 -87 -118 -31 -194 -75 -235 -134
-35 -53 -40 -90 -16 -124 24 -35 63 -50 157 -60 49 -6 98 -17 112 -26 90 -59
26 -189 -144 -293 -94 -57 -141 -100 -141 -128 0 -31 45 -88 139 -178 132
-126 206 -162 243 -119 9 9 25 35 36 58 61 121 208 161 299 81 45 -39 63 -82
63 -146 0 -60 -31 -103 -88 -123 -51 -18 -369 -15 -627 5 -644 52 -946 17
-1231 -144 -97 -54 -250 -201 -283 -271 -26 -54 -30 -106 -10 -119 22 -14 82
-11 130 7 59 22 146 22 185 2 147 -79 238 -354 264 -800 30 -521 41 -620 82
-743 27 -82 59 -120 128 -155 33 -17 67 -42 77 -56 15 -24 15 -29 2 -53 -41
-73 -293 -143 -689 -192 -279 -34 -422 -61 -662 -125 -247 -67 -433 -140 -597
-235 -295 -172 -405 -280 -358 -352 8 -12 50 -40 93 -62 128 -65 124 -97 -38
-290 -95 -114 -188 -248 -188 -271 0 -37 366 -87 1055 -144 864 -72 1197 -132
1307 -237 32 -31 35 -58 11 -93 -27 -38 -50 -56 -155 -115 -164 -94 -212 -168
-238 -368 -6 -45 -15 -302 -20 -572 -11 -622 -30 -789 -116 -1037 -67 -193
-149 -347 -346 -651 -181 -280 -302 -506 -417 -774 -122 -287 -176 -498 -142
-552 16 -25 97 -14 190 25 264 111 493 160 1081 233 432 53 450 55 450 45 0
-5 17 -164 37 -354 33 -312 37 -373 37 -630 1 -286 -8 -397 -39 -511 -79 -282
-104 -463 -112 -799 -6 -243 3 -361 30 -388 13 -12 21 -11 60 6 161 71 964
567 1427 880 118 80 285 193 370 250 245 166 339 203 376 146 15 -22 16 -34 6
-97 -6 -40 -31 -142 -55 -227 -59 -206 -71 -280 -70 -440 0 -149 15 -251 68
-460 74 -296 128 -617 140 -835 3 -60 11 -144 16 -185 14 -104 72 -322 115
-433 31 -79 263 -532 269 -525 1 2 159 246 350 543 475 737 677 1035 854 1253
80 98 112 118 136 86 23 -31 45 -132 54 -251 8 -94 15 -125 45 -194 93 -216
282 -464 591 -775 169 -169 302 -280 389 -324 73 -37 109 -38 141 -5 22 21 25
33 25 93 0 38 -10 116 -21 173 -41 200 -6 357 130 587 34 57 73 138 87 180 24
70 26 87 21 192 -4 97 -14 151 -65 350 -115 448 -126 609 -58 826 35 108 107
231 241 409 174 232 230 324 276 460 21 61 24 88 24 213 0 128 2 142 17 142
36 0 159 -184 331 -495 310 -560 452 -796 669 -1107 571 -820 1191 -1419 1759
-1702 238 -119 462 -180 704 -192 111 -6 141 3 163 48 11 24 9 37 -13 105 -15
43 -46 114 -70 158 -131 242 -265 681 -265 869 0 128 38 160 260 221 74 21
141 41 148 44 9 5 -29 42 -115 113 -155 127 -206 181 -278 292 -66 101 -104
182 -135 286 -27 92 -51 139 -127 255 -108 164 -224 297 -508 585 -154 157
-311 326 -348 375 -122 164 -187 322 -187 457 0 118 51 300 97 346 58 58 122
12 574 -417 367 -348 631 -543 944 -696 520 -256 1005 -281 1615 -84 171 55
319 128 380 187 116 112 64 191 -141 210 -65 6 -113 17 -145 32 -77 37 -171
140 -232 256 -107 203 -303 380 -559 508 -114 57 -207 85 -316 97 -166 17
-326 105 -550 302 -79 70 -104 108 -82 127 7 6 56 15 108 20 155 15 352 86
637 230 256 130 450 271 450 328 0 55 -87 106 -238 141 -144 32 -212 78 -212
140 0 71 80 129 246 177 115 33 196 77 244 131 96 109 45 186 -133 202 -102
10 -168 41 -250 120 -69 65 -93 99 -172 236 -109 191 -247 351 -367 429 -59
37 -88 62 -88 76 0 17 42 23 234 31 110 5 252 16 315 24 597 82 1187 349 1496
677 156 166 340 428 411 586 66 146 87 183 117 208 33 28 63 29 125 3 31 -13
35 -12 49 6 10 14 13 33 9 65 -13 94 -125 288 -183 315 -31 15 -36 14 -79 -4
-25 -11 -73 -43 -107 -70 -158 -124 -203 -122 -312 19 -149 195 -361 361 -745
585 -102 60 -212 126 -245 148 -145 97 -278 222 -290 270 -17 67 134 246 528
626 71 68 159 160 196 205 151 180 285 417 355 628 95 286 132 687 81 857 -22
72 -70 121 -118 121 -50 0 -87 -35 -136 -130 -24 -45 -56 -90 -74 -104 -93
-71 -241 -100 -472 -93 -172 5 -221 16 -235 53 -12 30 -3 58 64 193 61 125 67
154 34 172 -46 25 -165 3 -783 -145 -220 -52 -457 -106 -526 -120 -131 -27
-253 -34 -264 -15 -13 20 6 59 65 133 67 85 100 141 100 172 0 33 -37 72 -114
121 -95 60 -144 108 -172 168 -50 105 -19 237 77 338 117 121 214 80 622 -257
260 -214 366 -278 464 -279 60 0 112 27 142 76 107 173 155 771 81 1010 -29
94 -38 103 -148 137 -138 43 -684 178 -1032 254 -546 119 -750 149 -1030 149
-208 1 -293 -7 -570 -53 -487 -81 -628 -86 -722 -24 -38 25 -78 87 -78 123 0
33 59 90 130 126 118 60 361 133 570 173 58 11 121 23 140 27 19 4 114 10 212
14 l176 6 39 31 c53 43 83 122 90 239 10 171 -16 188 -307 191 -107 1 -217 0
-245 -2z"/>
</g>
</svg>
