<?xml version="1.0" standalone="no"?>
<!DOCTYPE svg PUBLIC "-//W3C//DTD SVG 20010904//EN"
 "http://www.w3.org/TR/2001/REC-SVG-20010904/DTD/svg10.dtd">
<svg version="1.0" xmlns="http://www.w3.org/2000/svg"
 width="571.000000pt" height="1536.000000pt" viewBox="0 0 571.000000 1536.000000"
 preserveAspectRatio="xMidYMid meet">
<metadata>
Created by potrace 1.16, written by Peter Selinger 2001-2019
</metadata>
<g transform="translate(0.000000,1536.000000) scale(0.100000,-0.100000)"
fill="#000000" stroke="none">
<path d="M4461 15330 c-52 -53 -112 -255 -131 -447 -24 -229 28 -501 122 -642
21 -31 28 -51 23 -68 -5 -22 -11 -18 -103 62 -108 96 -204 200 -324 350 -146
184 -168 206 -196 203 -36 -4 -45 -44 -31 -143 29 -206 168 -443 365 -622 63
-58 171 -134 206 -145 7 -3 8 -18 4 -41 -9 -46 -9 -45 -156 56 -160 111 -275
209 -317 274 -53 79 -108 103 -137 61 -23 -32 -20 -94 8 -174 67 -199 174
-333 394 -496 50 -38 106 -74 122 -80 17 -5 30 -16 30 -23 0 -17 -31 -179 -35
-183 -2 -2 -49 19 -104 48 -88 45 -114 65 -223 173 -68 67 -145 150 -172 185
-27 34 -60 65 -73 68 -32 8 -63 -21 -63 -57 0 -51 58 -212 107 -297 97 -167
326 -407 416 -434 20 -6 37 -16 37 -22 0 -6 -13 -60 -28 -120 -28 -109 -28
-109 -45 -83 -29 45 -88 96 -186 161 -144 95 -284 212 -397 330 -76 79 -108
106 -127 106 -149 0 82 -388 427 -717 100 -96 171 -143 215 -143 11 0 21 -3
21 -6 0 -3 -12 -49 -26 -103 l-27 -98 -76 44 c-156 92 -225 156 -280 260 -88
165 -189 188 -199 44 -8 -114 38 -277 114 -404 50 -83 203 -233 282 -277 68
-38 65 -31 41 -122 l-9 -37 -68 41 c-90 56 -199 169 -301 312 -91 128 -118
150 -151 121 -15 -14 -20 -31 -20 -70 0 -79 29 -230 51 -260 4 -5 25 -54 46
-107 23 -56 65 -131 99 -178 68 -94 192 -217 229 -226 15 -4 24 -12 22 -18 -3
-6 -10 -38 -17 -71 -7 -33 -14 -63 -17 -67 -7 -13 -234 164 -290 226 -29 31
-69 88 -89 127 -58 110 -105 134 -148 76 -18 -24 -20 -41 -19 -137 2 -140 27
-242 94 -377 58 -117 142 -216 248 -290 99 -70 101 -73 90 -124 -17 -76 -16
-76 -62 -32 -23 22 -78 67 -122 101 -44 33 -96 77 -116 98 -61 66 -141 176
-166 231 -40 87 -108 127 -146 86 -37 -43 -30 -170 23 -378 41 -162 102 -277
200 -375 83 -82 184 -147 243 -157 20 -3 40 -9 42 -13 4 -7 -23 -150 -31 -159
-5 -6 -148 116 -210 181 -34 34 -104 115 -156 178 -101 123 -163 184 -197 195
-49 15 -89 -51 -77 -128 8 -47 80 -236 126 -329 40 -81 155 -233 225 -297 55
-50 163 -111 196 -111 10 0 21 -5 24 -10 8 -12 -14 -151 -26 -164 -9 -10 -101
41 -189 105 -77 56 -243 224 -289 291 -31 46 -74 78 -105 78 -44 0 -26 -147
33 -265 59 -119 231 -360 312 -437 39 -37 97 -84 128 -103 l58 -36 -14 -86
c-7 -48 -15 -88 -16 -90 -9 -8 -212 104 -259 144 -70 59 -236 236 -301 321
-128 166 -195 83 -132 -163 36 -139 173 -360 297 -481 108 -106 227 -203 276
-225 26 -13 42 -27 42 -38 0 -17 -21 -133 -25 -139 -1 -1 -44 26 -96 60 -100
67 -284 238 -377 351 -74 91 -122 116 -156 81 -54 -54 21 -262 154 -428 99
-123 316 -348 366 -378 50 -32 49 -25 28 -130 l-5 -26 -62 25 c-90 36 -138 76
-303 246 -159 165 -186 187 -225 187 -64 0 -76 -79 -33 -226 43 -149 83 -215
208 -339 127 -126 231 -207 296 -232 25 -9 47 -18 49 -19 4 -4 -20 -144 -25
-144 -2 0 -48 21 -101 47 -95 45 -104 53 -268 219 -170 172 -225 214 -283 214
-40 0 -52 -17 -52 -75 0 -77 32 -162 128 -344 95 -178 158 -259 275 -347 65
-49 189 -114 219 -114 18 0 18 -9 2 -88 -5 -23 -5 -23 -28 -5 -13 10 -93 70
-177 135 -85 64 -202 159 -262 211 -114 101 -152 121 -174 91 -17 -23 -16 -56
1 -98 23 -55 143 -235 223 -334 90 -110 274 -287 323 -310 19 -9 37 -17 39
-19 3 -2 -20 -145 -25 -152 -2 -2 -20 10 -41 26 -21 16 -69 49 -108 73 -119
75 -185 129 -317 257 -137 134 -168 150 -189 96 -20 -54 10 -122 126 -287 152
-217 318 -391 420 -442 40 -19 54 -31 51 -43 -3 -9 -8 -34 -12 -56 -10 -57
-13 -60 -43 -32 -14 13 -98 78 -186 145 -88 66 -192 153 -232 191 -44 44 -80
71 -93 71 -32 0 -80 -53 -80 -87 0 -67 93 -207 267 -399 109 -121 179 -177
251 -202 28 -9 52 -20 53 -25 1 -4 -4 -55 -11 -113 l-12 -106 -30 36 c-16 20
-86 83 -156 140 -70 57 -164 138 -209 179 -119 111 -172 132 -195 81 -9 -19
-9 -36 0 -72 17 -64 82 -198 132 -272 48 -70 256 -277 350 -347 l65 -49 -4
-64 c-2 -36 -5 -67 -7 -69 -2 -2 -23 14 -47 35 -24 21 -72 62 -107 89 -34 28
-104 89 -154 136 -128 122 -180 159 -221 159 -78 0 -86 -80 -22 -215 68 -143
181 -276 345 -409 39 -32 80 -72 91 -91 11 -20 29 -35 43 -37 25 -3 26 -9 7
-106 l-11 -53 -56 59 c-31 32 -91 85 -132 117 -41 33 -104 86 -140 118 -77 70
-154 117 -193 117 -43 0 -77 -40 -77 -92 0 -116 136 -284 412 -511 77 -63 111
-85 124 -80 14 5 16 2 10 -20 -3 -15 -9 -47 -13 -72 -3 -25 -9 -44 -12 -43
-53 25 -222 138 -279 187 -110 94 -168 131 -208 131 -45 0 -58 -26 -51 -99 15
-140 125 -277 364 -455 120 -88 132 -100 128 -124 -2 -15 -7 -57 -10 -95 l-7
-67 -45 32 c-25 18 -82 66 -127 106 -157 142 -226 172 -262 117 -14 -21 -15
-32 -5 -71 23 -89 121 -257 185 -317 17 -16 60 -49 96 -75 101 -71 130 -101
130 -136 0 -50 -58 -435 -95 -636 -19 -102 -45 -276 -59 -386 -41 -330 -83
-478 -169 -599 -85 -120 -216 -195 -456 -261 -139 -39 -297 -86 -471 -140 -63
-19 -262 -68 -443 -109 -569 -129 -696 -177 -762 -290 -29 -49 -31 -74 -8
-122 20 -42 78 -73 138 -73 91 0 228 45 433 142 188 89 311 129 413 135 100 6
145 -5 196 -50 76 -67 93 -170 49 -300 -13 -40 -63 -151 -110 -247 -98 -199
-126 -278 -126 -359 0 -68 23 -117 69 -148 83 -56 190 -3 256 126 34 67 52
140 70 276 14 110 26 168 99 470 32 135 59 190 128 257 62 60 184 129 297 167
194 66 644 117 955 108 283 -8 443 -37 696 -126 124 -44 162 -49 214 -27 73
30 96 107 56 186 -36 70 -126 119 -320 173 -156 44 -259 57 -436 57 -168 0
-315 16 -414 46 -104 31 -160 116 -160 242 0 78 33 392 80 752 27 206 58 458
70 560 30 275 19 245 93 246 102 1 180 54 286 194 77 103 136 223 162 332 22
90 20 132 -6 142 -26 10 -45 -5 -72 -58 -14 -28 -56 -81 -94 -118 -55 -55 -90
-78 -181 -122 -106 -52 -113 -54 -116 -35 -9 52 4 66 69 73 86 8 138 35 207
104 83 83 158 186 240 330 78 136 93 188 68 227 -32 48 -52 37 -174 -98 -55
-61 -129 -108 -238 -152 -48 -20 -93 -40 -101 -46 -10 -9 -13 -5 -13 19 0 16
3 42 6 58 l6 29 81 0 c106 0 125 11 258 144 145 145 275 340 324 484 28 85 32
139 11 157 -32 25 -59 6 -132 -90 -119 -160 -221 -241 -357 -286 -45 -14 -93
-33 -105 -41 -31 -19 -35 -14 -27 39 l7 43 76 0 c103 0 153 25 257 130 189
192 365 475 365 590 0 86 -83 65 -143 -38 -24 -39 -144 -156 -212 -205 -16
-12 -77 -38 -135 -57 -58 -20 -116 -43 -128 -52 -13 -8 -26 -13 -28 -10 -2 2
-1 24 2 48 l6 44 62 1 c82 0 145 32 272 138 176 147 275 267 358 432 55 111
75 178 60 202 -24 38 -47 25 -164 -90 -127 -126 -166 -150 -353 -222 -66 -25
-132 -55 -148 -67 -33 -23 -35 -19 -23 52 l6 36 30 -15 c61 -30 157 4 323 114
110 72 219 175 325 308 105 130 132 184 109 225 -20 36 -64 39 -109 8 -19 -13
-81 -61 -136 -108 -127 -106 -180 -132 -314 -154 -58 -10 -120 -23 -137 -31
-37 -15 -38 -12 -27 44 5 27 9 30 25 22 31 -17 116 -11 181 13 178 65 512 349
588 499 38 77 42 158 9 181 -28 20 -64 9 -132 -41 -88 -66 -231 -141 -417
-218 -96 -40 -176 -71 -178 -69 -5 4 18 135 25 147 2 4 15 0 29 -8 38 -26 115
-12 252 44 170 69 216 100 368 245 149 143 207 221 225 302 10 47 10 57 -5 79
-28 43 -73 31 -176 -50 -70 -55 -183 -110 -335 -164 -129 -46 -185 -72 -255
-119 -24 -17 -45 -29 -46 -28 -1 1 5 41 13 89 l16 87 31 -16 c72 -37 187 -11
360 81 143 77 233 143 346 254 141 140 212 258 190 318 -22 57 -104 37 -233
-59 -117 -87 -152 -102 -347 -152 -96 -24 -201 -57 -233 -73 -32 -16 -56 -24
-53 -17 2 6 7 37 11 67 9 75 15 82 51 63 87 -45 297 26 479 162 180 135 324
305 374 439 29 76 28 119 -4 140 -35 23 -57 14 -160 -64 -207 -156 -302 -200
-495 -231 -65 -11 -127 -24 -138 -30 -11 -6 -23 -11 -26 -11 -5 0 4 91 9 98 2
2 24 -4 49 -12 42 -15 54 -15 124 0 151 30 413 184 537 316 136 143 270 356
282 446 5 37 3 42 -20 53 -33 15 -87 -10 -173 -80 -68 -56 -204 -138 -298
-182 -33 -15 -127 -46 -208 -68 -81 -22 -166 -50 -189 -62 l-42 -21 8 59 c4
32 8 59 10 61 2 2 12 -1 23 -7 34 -18 75 -13 183 25 273 95 471 247 667 511
96 131 133 228 100 261 -22 22 -45 13 -134 -55 -247 -184 -357 -234 -589 -263
-49 -7 -109 -20 -132 -30 -42 -18 -43 -18 -43 0 0 10 5 41 11 68 l10 49 37
-18 c70 -36 149 -22 312 57 113 55 118 59 257 199 78 79 158 167 177 197 43
64 75 153 83 230 5 48 3 59 -11 64 -31 12 -61 -6 -181 -106 -66 -55 -143 -112
-171 -126 -32 -15 -103 -34 -190 -50 -82 -14 -159 -35 -189 -49 -27 -13 -51
-22 -53 -20 -3 3 25 164 34 193 3 10 12 7 34 -12 71 -59 165 -58 312 3 112 47
162 83 276 200 197 202 322 377 322 452 0 31 -28 59 -59 59 -32 0 -72 -23
-159 -93 -136 -110 -246 -157 -474 -202 -73 -15 -141 -31 -151 -37 -10 -5 -21
-7 -24 -5 -4 5 15 115 23 128 2 4 25 -4 51 -17 80 -41 175 -30 320 36 90 42
152 81 228 146 76 65 297 308 327 361 47 81 32 163 -29 163 -29 0 -114 -46
-210 -114 -100 -70 -129 -80 -300 -106 -165 -24 -228 -38 -266 -57 -16 -8 -31
-13 -33 -10 -2 2 2 30 10 63 9 39 18 58 27 56 106 -26 186 -16 286 33 143 71
485 431 559 590 53 114 48 180 -14 180 l-31 0 42 45 c154 163 186 201 196 236
8 30 7 43 -4 61 -29 43 -83 28 -210 -59 -92 -62 -125 -71 -323 -88 -149 -12
-204 -24 -259 -54 -23 -13 -40 -19 -38 -12 2 6 9 30 15 53 10 40 12 42 36 33
40 -16 204 -12 265 6 76 22 237 105 350 180 174 115 379 353 379 440 0 46 -53
69 -103 43 -12 -7 -51 -33 -87 -59 -73 -53 -187 -113 -270 -142 -30 -10 -134
-34 -230 -54 -97 -19 -190 -44 -208 -55 -18 -10 -35 -19 -36 -19 -2 0 8 44 22
98 l26 97 105 0 c92 0 118 4 203 32 252 83 464 233 614 432 97 130 114 191 64
241 -11 11 -30 20 -42 20 -38 0 -146 -57 -248 -129 -178 -128 -265 -159 -461
-163 l-135 -3 10 45 c5 25 11 47 12 49 2 2 15 -6 30 -18 42 -33 94 -43 155
-30 64 13 261 102 373 168 228 132 485 509 399 583 -30 25 -52 29 -88 14 -30
-13 -25 -6 39 59 152 151 225 307 168 358 -27 25 -69 21 -142 -13 -54 -25 -60
-26 -35 -8 127 97 239 195 288 253 95 113 140 231 102 268 -37 38 -106 12
-279 -103 -104 -69 -199 -119 -365 -189 l-74 -31 27 32 c114 141 210 328 236
458 22 108 37 278 30 329 -6 38 -46 76 -72 66 -17 -7 -13 1 -112 -208 -41 -87
-97 -190 -123 -230 -48 -72 -178 -217 -194 -217 -5 0 -9 15 -9 33 -1 56 -19
114 -69 219 -67 140 -101 297 -101 464 0 177 -53 249 -129 174z m244 -1270 c2
-4 -7 -18 -20 -30 l-25 -23 0 35 c0 31 3 35 20 31 11 -3 22 -9 25 -13z m-69
-331 c-22 -21 -42 -36 -43 -35 -1 1 5 29 13 62 l16 60 27 -25 28 -26 -41 -36z
m284 -329 c-8 -5 -19 -10 -25 -10 -5 0 -3 5 5 10 8 5 20 10 25 10 6 0 3 -5 -5
-10z m-380 -37 c49 -24 115 -27 199 -9 41 9 76 14 78 13 1 -2 -54 -21 -124
-43 -76 -23 -147 -52 -175 -71 -45 -30 -48 -30 -43 -10 2 12 9 48 15 80 6 31
13 57 14 57 2 0 18 -7 36 -17z m-30 -1903 c-54 -43 -250 -131 -342 -154 -51
-13 -108 -31 -125 -40 -18 -9 -34 -16 -36 -16 -3 0 3 33 13 73 10 39 21 85 24
101 6 26 8 27 24 13 74 -67 243 -61 397 13 72 34 77 35 45 10z"/>
</g>
</svg>
