<?xml version="1.0" standalone="no"?>
<!DOCTYPE svg PUBLIC "-//W3C//DTD SVG 20010904//EN"
 "http://www.w3.org/TR/2001/REC-SVG-20010904/DTD/svg10.dtd">
<svg version="1.0" xmlns="http://www.w3.org/2000/svg"
 width="1536.000000pt" height="617.000000pt" viewBox="0 0 1536.000000 617.000000"
 preserveAspectRatio="xMidYMid meet">
<metadata>
Created by potrace 1.16, written by Peter Selinger 2001-2019
</metadata>
<g transform="translate(0.000000,617.000000) scale(0.100000,-0.100000)"
fill="#000000" stroke="none">
<path d="M6556 6085 c-62 -109 -81 -125 -158 -125 -101 0 -190 65 -229 167
-10 27 -11 28 -26 8 -8 -11 -26 -42 -40 -69 -41 -80 -62 -96 -132 -96 -86 0
-177 48 -208 109 l-22 43 -14 -34 c-8 -18 -20 -51 -27 -73 -20 -63 -48 -113
-69 -125 -58 -31 -191 7 -243 69 -15 17 -29 31 -31 31 -8 0 -45 -93 -72 -182
-34 -112 -55 -132 -137 -126 l-58 4 0 -163 c0 -145 -2 -165 -18 -181 -14 -14
-53 -22 -173 -36 -249 -28 -519 -66 -594 -82 -38 -9 -99 -22 -135 -29 -36 -7
-94 -20 -130 -28 -36 -8 -110 -23 -165 -32 -55 -9 -152 -30 -215 -47 -63 -17
-165 -43 -225 -58 -148 -37 -328 -93 -450 -140 -55 -21 -120 -45 -145 -53 -82
-28 -462 -207 -546 -258 -167 -100 -441 -214 -747 -308 -37 -12 -150 -62 -250
-112 -175 -87 -235 -113 -432 -181 -119 -41 -204 -94 -295 -183 -46 -45 -99
-85 -137 -104 -73 -36 -133 -86 -133 -110 0 -26 52 -101 101 -147 41 -38 140
-121 242 -202 77 -61 298 -265 307 -283 18 -32 12 -97 -9 -109 -33 -17 -111
-11 -211 15 -73 20 -125 44 -235 107 -77 44 -169 98 -205 118 -36 21 -87 45
-114 54 -48 16 -50 16 -95 -6 -30 -15 -53 -35 -65 -59 -19 -35 -19 -38 -2 -83
43 -112 115 -192 232 -259 27 -15 68 -41 91 -58 66 -47 347 -184 489 -238 71
-27 158 -62 194 -78 136 -62 393 -149 665 -225 39 -10 106 -32 150 -48 156
-57 494 -160 523 -160 17 0 88 -18 159 -40 176 -55 721 -191 933 -233 260 -52
342 -65 598 -96 253 -31 257 -32 292 -101 9 -19 43 -105 75 -190 73 -198 163
-374 318 -626 355 -575 474 -698 580 -596 41 39 145 258 162 339 23 120 38
378 26 478 -18 150 -52 237 -128 328 -71 86 -165 161 -220 176 -62 17 -93 62
-60 89 25 21 311 25 517 7 107 -9 240 -21 295 -25 164 -14 1083 -33 1310 -27
220 6 478 36 685 80 82 17 138 22 257 22 176 0 175 0 258 -106 83 -106 132
-152 152 -144 45 20 83 17 129 -10 39 -23 50 -25 71 -16 40 18 62 13 147 -33
97 -52 212 -100 281 -116 28 -6 100 -40 160 -74 163 -94 241 -132 371 -181
250 -95 477 -142 704 -147 l135 -3 110 45 c154 62 166 73 226 196 78 161 117
289 134 434 24 201 20 330 -14 479 -39 166 -61 222 -122 304 -55 75 -114 123
-168 136 -20 5 -138 14 -264 21 -238 12 -281 19 -298 52 -36 67 103 106 676
188 484 70 650 89 845 97 126 5 155 3 226 -15 86 -21 193 -69 284 -125 30 -18
96 -59 146 -89 244 -151 933 -451 1439 -628 325 -114 386 -130 580 -160 77
-11 183 -28 235 -36 151 -26 370 -30 469 -10 119 24 158 43 192 89 27 38 29
46 29 139 0 193 -97 446 -250 658 -26 36 -62 94 -80 130 -18 36 -46 84 -62
108 -74 107 -117 226 -168 462 -40 186 -23 451 38 606 34 86 222 475 257 534
76 125 226 446 280 595 50 142 56 166 52 217 -21 247 -263 335 -707 257 -176
-31 -288 -62 -536 -148 -312 -108 -370 -130 -509 -196 -66 -31 -191 -88 -278
-126 -222 -98 -512 -248 -717 -371 -448 -268 -609 -338 -779 -338 -121 0 -396
26 -526 49 -60 11 -171 27 -245 36 -127 15 -398 71 -479 100 -20 7 -55 16 -78
19 -23 4 -49 16 -58 26 -23 25 -15 62 15 76 14 7 106 18 206 26 163 14 185 18
226 42 68 40 200 158 274 245 161 188 317 529 301 654 -7 48 -39 95 -121 178
-80 80 -183 137 -267 149 -42 6 -97 26 -173 64 -63 32 -147 64 -191 75 -44 10
-139 33 -211 50 -88 21 -156 31 -210 31 -43 0 -131 9 -194 19 -87 15 -171 20
-345 22 -233 2 -268 -2 -377 -40 -31 -11 -94 -27 -140 -36 -78 -16 -220 -66
-244 -86 -5 -4 -63 -29 -127 -53 -64 -25 -134 -56 -155 -70 -21 -13 -67 -38
-102 -56 -36 -18 -113 -61 -171 -96 -100 -60 -111 -64 -168 -64 -89 0 -133 22
-198 99 -31 36 -59 67 -64 69 -4 2 -21 -4 -38 -12 -45 -24 -121 -21 -162 7
-40 27 -79 91 -79 130 0 32 -15 34 -50 7 -19 -15 -41 -20 -90 -20 -55 0 -72 5
-113 31 -40 25 -54 42 -80 98 l-32 68 -44 -33 c-34 -27 -53 -34 -87 -34 -38 0
-49 6 -101 54 -32 30 -65 66 -72 80 -8 14 -17 26 -20 26 -3 -1 -26 -27 -51
-59 -55 -73 -85 -91 -145 -91 -76 0 -115 29 -194 148 -23 34 -43 62 -45 62 -1
0 -24 -38 -50 -85z"/>
</g>
</svg>
