<?xml version="1.0" standalone="no"?>
<!DOCTYPE svg PUBLIC "-//W3C//DTD SVG 20010904//EN"
 "http://www.w3.org/TR/2001/REC-SVG-20010904/DTD/svg10.dtd">
<svg version="1.0" xmlns="http://www.w3.org/2000/svg"
 width="1536.000000pt" height="664.000000pt" viewBox="0 0 1536.000000 664.000000"
 preserveAspectRatio="xMidYMid meet">
<metadata>
Created by potrace 1.16, written by Peter Selinger 2001-2019
</metadata>
<g transform="translate(0.000000,664.000000) scale(0.100000,-0.100000)"
fill="#000000" stroke="none">
<path d="M6814 6503 c-340 -360 -603 -689 -851 -1063 -104 -157 -242 -379
-276 -446 l-16 -31 -108 -7 c-356 -22 -779 -85 -1093 -162 -724 -177 -2290
-856 -3600 -1560 -85 -46 -198 -97 -250 -115 -120 -40 -270 -109 -319 -148
-21 -17 -44 -44 -51 -61 -27 -64 13 -118 155 -205 91 -56 112 -72 104 -80 -13
-11 -327 51 -393 79 -35 15 -36 15 -64 -20 -32 -39 -52 -94 -52 -145 0 -49 41
-129 85 -168 53 -46 104 -67 211 -85 104 -18 182 -44 464 -154 905 -352 1821
-553 2950 -644 214 -17 1029 -15 1255 4 94 8 171 14 172 14 1 -1 13 -53 28
-116 83 -372 241 -700 489 -1017 239 -306 450 -427 609 -349 100 48 455 394
587 572 83 110 157 261 177 359 15 75 15 84 -1 140 -15 52 -28 70 -89 130 -83
82 -182 153 -353 254 -130 77 -167 106 -161 124 11 34 62 36 952 34 635 -1
930 2 1060 11 390 28 670 59 973 107 84 14 157 25 162 25 5 0 14 -19 20 -42
138 -544 411 -1002 785 -1316 165 -139 390 -274 478 -289 59 -9 58 14 -7 137
-68 131 -77 176 -44 240 13 25 38 55 57 68 39 25 141 57 213 67 l47 6 -28 62
c-73 162 -118 349 -127 522 -15 282 60 513 235 721 71 85 72 79 -19 120 -94
44 -196 65 -306 66 l-102 1 52 44 c135 117 352 239 530 298 228 76 417 103
781 112 276 6 430 -2 631 -33 347 -53 447 -67 604 -84 586 -64 1738 -102 1894
-61 165 42 113 185 -166 456 -175 170 -358 314 -626 492 -129 85 -251 173
-273 195 -21 22 -54 70 -71 106 -31 62 -33 73 -32 167 0 97 2 106 76 325 96
284 138 420 182 590 122 468 140 778 48 850 -54 43 -173 13 -309 -77 -160
-105 -438 -357 -567 -512 -35 -42 -114 -146 -176 -231 -191 -262 -303 -383
-525 -565 -287 -236 -466 -326 -758 -382 -132 -25 -608 -25 -787 0 -379 54
-800 160 -1187 299 -51 18 -93 36 -93 39 0 4 24 10 53 13 223 30 678 146 888
227 98 38 149 85 149 136 0 34 -10 47 -128 162 -71 70 -143 147 -161 174 -56
82 -101 191 -131 313 -53 214 -62 287 -69 537 l-6 239 -29 25 c-61 53 -182 15
-379 -117 -172 -115 -525 -411 -897 -750 -205 -188 -338 -301 -406 -347 -245
-167 -532 -217 -859 -152 -55 11 -103 24 -108 28 -4 4 -1 72 8 152 8 79 15
149 15 156 0 9 -14 10 -49 6 -64 -7 -131 23 -162 74 -29 46 -30 128 -2 175
l20 34 -44 18 c-24 10 -63 38 -88 62 -56 57 -79 123 -80 229 l0 80 -56 56
c-106 105 -129 255 -64 412 6 14 2 17 -29 17 -73 0 -151 52 -188 124 -13 26
-23 67 -26 111 l-4 71 -47 19 c-58 24 -126 87 -155 143 l-22 43 -130 -138z"/>
</g>
</svg>
