<?xml version="1.0" encoding="UTF-8" standalone="no"?>
<!-- Created with Inkscape (http://www.inkscape.org/) -->

<svg
   version="1.1"
   width="78.671295mm"
   height="55.571445mm"
   viewBox="0 0 78.671295 55.571445"
   id="svg8"
   xmlns="http://www.w3.org/2000/svg"
   xmlns:svg="http://www.w3.org/2000/svg">
  <defs
     id="defs2" />
  <g
     id="layer1"
     transform="translate(-76.325069,-101.48204)">
    <path
       d="m 84.65818,119.70535 c -0.008,0.0501 -0.14198,0.24221 -0.34243,0.46772 -0.20046,0.22551 -0.22551,0.20045 -0.29233,0.40926 -0.0668,0.2088 -0.45937,1.77901 -0.51783,1.94605 -0.0585,0.16705 -0.14199,0.21716 -0.10023,0.5596 0.0418,0.34244 -0.0752,0.48443 -0.008,0.65147 0.0668,0.16704 0.28397,0.51784 0.40926,0.67652 0.12528,0.1587 0.42596,0.5429 0.49277,0.55125 0.0668,0.008 -0.11693,0.28397 -0.12528,0.42596 -0.008,0.14199 0.0668,0.35079 0.0835,0.48443 0.0167,0.13363 0.32574,1.06072 0.35079,1.14424 0.0251,0.0835 0.16705,0.35915 0.27563,0.60971 0.10857,0.25057 1.09413,1.74561 1.186,1.921 0.0919,0.1754 0.283979,0.5763 0.417609,0.79346 0.133641,0.21715 0.526191,0.49278 0.67653,0.66817 0.15034,0.1754 0.517831,0.43431 0.517831,0.43431 l 0.0418,0.13364 c 0,0 -0.517829,0.43431 -0.593,0.51783 -0.0752,0.0835 -0.952149,1.51175 -1.002259,1.59527 -0.0501,0.0835 -0.23386,0.49278 -0.30068,0.593 -0.0668,0.10023 -0.62641,1.16095 -0.69323,1.36141 -0.0668,0.20045 -0.20881,0.41761 -0.317381,0.83522 -0.108579,0.4176 -0.0501,0.36749 -0.1587,0.60135 -0.108569,0.23386 -0.464489,1.18577 -0.547169,1.41019 -0.0827,0.22443 -0.885881,1.50009 -0.96856,1.77176 -0.0827,0.27167 -1.2048,1.71271 -1.263861,1.81902 -0.0591,0.1063 -0.165369,0.33072 -0.30711,0.54334 -0.14174,0.21261 -0.921309,0.46065 -0.921309,0.46065 L 77.44955,144.107 c 0,0 -0.53153,0 -0.66146,0.14174 -0.12993,0.14174 -0.33073,0.48428 -0.33073,0.63783 0,0.15355 0.11812,0.56696 0.21261,0.62602 0.0945,0.0591 0.46066,0.17718 0.51972,0.18899 0.0591,0.0118 0.803201,0.0473 0.89769,0.0118 0.0945,-0.0354 3.236421,-0.74414 3.236421,-0.74414 l 1.759949,-0.53153 0.555161,-0.18899 c 0,0 0.0709,0.18899 0.0591,0.23624 -0.0118,0.0473 -0.2008,0.57877 -0.4016,0.81501 -0.2008,0.23623 -0.15355,0.38979 -0.34254,0.63783 -0.18899,0.24805 -0.51972,1.16937 -0.61421,1.34655 -0.0945,0.17717 -0.30711,0.62602 -0.30711,0.79138 0,0.16537 0.43704,0.62603 0.51972,0.63784 0.0827,0.0118 0.61421,0.15355 0.67327,0.0827 0.0591,-0.0709 0.62602,-0.7087 0.68508,-0.75594 0.0591,-0.0472 1.11031,-1.00401 1.26386,-1.19299 0.15355,-0.18899 0.36616,-0.44885 0.62602,-0.72052 0.25986,-0.27167 0.72052,-0.70871 0.72052,-0.70871 0,0 0.476189,-0.61447 0.559709,-0.84833 0.0835,-0.23386 1.035671,-0.75169 1.035671,-0.75169 l 0.384199,-0.16705 c 0,0 0.68487,-0.0334 0.71828,0.0668 0.0334,0.10023 0.985561,0.98556 1.286241,1.16931 0.300679,0.18375 0.48442,0.33408 1.00226,0.65147 0.51783,0.31738 1.05237,0.55124 1.38646,0.58465 0.33409,0.0334 0.58465,0.15034 0.81851,0.0501 0.23386,-0.10023 0.31739,-0.25057 0.35079,-0.3508 0.0334,-0.10022 0,-0.36749 -0.0668,-0.51783 -0.0668,-0.15034 -0.13363,-0.51783 -0.35079,-0.70158 -0.21716,-0.18375 -0.83522,-0.66818 -1.00226,-0.85192 -0.167051,-0.18375 -0.167051,-0.33409 -0.41761,-0.58466 -0.25056,-0.25056 -0.3842,-0.4176 -0.3842,-0.4176 0,0 0.20745,-0.21296 0.43188,-0.22478 0.224419,-0.0118 2.3151,-0.21261 2.82301,-0.21261 0.5079,0 1.5119,0.0118 1.9135,-0.0118 0.4016,-0.0236 0.75596,0.0236 0.93313,-0.0709 0.17718,-0.0945 0.53153,-0.28348 0.53153,-0.42522 0,-0.14174 0.0354,-0.17718 -0.0354,-0.4016 -0.0709,-0.22442 -0.0591,-0.53153 -0.2953,-0.63784 -0.23623,-0.1063 -3.18917,-1.4056 -3.18917,-1.4056 0,0 -0.88588,0.0709 -0.94494,0.0945 -0.0591,0.0236 -0.73233,0.0472 -1.03944,0.0472 -0.3071,0 -0.92132,-0.1063 -1.15755,-0.27167 -0.23623,-0.16536 -0.34254,-0.28348 -0.34254,-0.41341 0,-0.12993 0.16536,-0.36616 0.25986,-0.4016 0.0945,-0.0354 0.43703,-0.0945 0.77957,-0.14174 0.34255,-0.0472 0.472469,-0.1063 0.472469,-0.1063 l 1.582781,0.80319 0.41341,0.60241 2.99373,1.37364 0.45101,-0.0501 1.55351,0.3842 c 0,0 0.885329,0.25056 1.403159,0.30068 0.51784,0.0501 1.21942,0 1.36976,0 0.15034,0 0.68488,0.0501 0.75169,0.0835 0.0668,0.0334 0.3675,0.35079 0.68488,0.50113 0.31738,0.15034 0.66817,0.18375 0.83522,0.26727 0.16704,0.0835 0.25056,0.21716 0.45102,0.48443 0.20045,0.26726 2.35531,1.58691 2.63928,1.83747 0.28398,0.25057 1.48669,1.1526 1.70385,1.25283 0.21715,0.10023 0.58465,0.31738 0.58465,0.31738 0,0 -1.04402,0.56795 -1.21107,0.70159 -0.16704,0.13363 -0.29232,0.26726 -0.37584,0.28397 -0.0835,0.0167 -0.29233,-0.008 -0.44267,0.0835 -0.15034,0.0919 -0.35079,0.22551 -0.43431,0.29233 -0.0835,0.0668 -2.21333,1.22777 -2.4973,1.41151 -0.28398,0.18375 -1.46999,0.61806 -1.67044,0.68488 -0.20045,0.0668 -0.83522,0.0835 -0.83522,0.0835 l -1.17496,-0.12385 c 0,0 -0.34254,-0.0709 -0.86226,-0.29529 -0.51972,-0.22443 -0.70871,-0.33073 -0.909511,-0.44885 -0.2008,-0.11812 -0.61421,-0.28348 -0.67327,-0.29529 -0.059,-0.0118 -0.54334,-0.0827 -0.80319,-0.0354 -0.25986,0.0473 -0.68509,-0.0354 -0.79139,0.10631 -0.10631,0.14174 -0.23624,0.12994 -0.11812,0.36617 0.11812,0.23624 0.2953,0.36617 0.4016,0.48428 0.10631,0.11811 0.6024,0.31891 0.76776,0.44885 0.16537,0.12993 0.72052,0.38979 0.92132,0.51972 0.2008,0.12993 0.673271,0.17718 0.531531,0.23623 -0.14174,0.0591 -1.157551,0.36617 -1.157551,0.36617 0,0 -1.86626,0.25986 -1.97257,0.28348 -0.1063,0.0236 -1.67726,0.0591 -1.81901,0.0827 -0.14174,0.0236 -0.99218,0.0827 -1.50009,0.0473 -0.5079,-0.0354 -2.10249,-0.0709 -2.10249,-0.0709 0,0 -1.09066,-0.1598 -1.55838,-0.21827 -0.46772,-0.0585 -0.64312,-0.15034 -1.04402,-0.13363 -0.4009,0.0167 -0.74334,0.0585 -1.00226,0.10022 -0.25892,0.0418 -0.70158,-0.008 -0.77675,0.0835 -0.0752,0.0919 -0.25892,0.37585 -0.267271,0.56795 -0.008,0.1921 -0.008,0.35079 0.108571,0.50113 0.11693,0.15034 0.29233,0.22551 0.492779,0.31738 0.200461,0.0919 1.820781,0.50949 1.887591,0.50949 0.0668,0 1.219419,0.18375 1.68714,0.24221 0.46773,0.0585 1.40317,0.11693 1.43658,0.11693 0.0334,0 3.05202,0.16911 3.05202,0.16911 0,0 -1.37017,0.31892 -1.45285,0.35436 -0.0827,0.0354 -1.004,0.48428 -1.122121,0.63783 -0.11811,0.15356 -0.165359,0.21261 -0.330729,0.57878 -0.16536,0.36616 -0.15355,0.8032 -0.12992,0.93313 0.0236,0.12993 0.24804,0.4016 0.51971,0.48428 0.27167,0.0827 0.41341,0.2008 0.72052,0.1063 0.3071,-0.0945 0.79139,-0.4016 0.95675,-0.49609 0.16537,-0.0945 0.85045,-0.34254 1.21661,-0.46066 0.36617,-0.11811 1.71271,-0.3071 1.71271,-0.3071 l 2.08193,-0.58007 c 0,0 1.670431,0.0501 2.204971,0.0334 0.53454,-0.0167 1.90429,-0.0501 2.35531,0.0167 0.45102,0.0668 1.58692,0.23386 1.93771,0.25057 0.35079,0.0167 1.67043,-0.11693 2.00452,-0.13364 0.33409,-0.0167 1.20271,-0.33408 1.40316,-0.33408 0.20045,0 2.6826,-0.57581 2.6826,-0.57581 0,0 0.53153,0.0945 0.73233,0.14174 0.2008,0.0472 0.82682,0.28348 1.08668,0.29529 0.25986,0.0118 0.54334,-0.0591 0.73233,-0.14174 0.18898,-0.0827 0.17717,-0.0827 0.38978,-0.2008 0.21262,-0.11811 0.34255,-0.2008 0.34255,-0.2008 l 0.89769,0.2008 c 0,0 0.79139,-0.11811 1.06306,-0.28348 0.27167,-0.16536 0.62602,-0.41341 0.86225,-0.56696 0.23624,-0.15356 0.64965,-0.41341 0.64965,-0.41341 l 0.48346,-0.19254 c 0,0 0.10023,-0.0668 0.41761,-0.11693 0.31739,-0.0501 0.60136,-0.15034 0.7517,-0.23386 0.15034,-0.0835 0.26727,-0.3842 0.3842,-0.48443 0.11693,-0.10022 0.16704,-0.20045 0.16704,-0.35079 0,-0.15034 0.30068,-0.3842 0.33409,-0.56794 0.0334,-0.18375 0.20045,-0.51784 0.31738,-0.60136 0.11693,-0.0835 0.35079,-0.16704 0.35079,-0.16704 l 0.7517,0.0167 1.67043,0.0835 c 0,0 2.90656,-0.0668 3.12371,-0.10022 0.21716,-0.0334 2.42213,-0.48443 2.62259,-0.56795 0.20045,-0.0835 0.73499,-0.3675 1.21941,-0.58465 0.48443,-0.21716 0.85193,-0.43431 1.1192,-0.53454 0.26726,-0.10023 1.00226,-0.45102 1.13589,-0.51784 0.13364,-0.0668 1.21479,-0.7734 1.35653,-0.90333 0.14174,-0.12993 0.0827,-0.22442 0.37798,-0.35435 0.29529,-0.12993 0.23623,-0.22442 0.53153,-0.42522 0.29529,-0.2008 0.6024,-0.4961 0.6024,-0.4961 l 0.95678,0.27166 c 0,0 1.29929,0.34254 1.35835,0.35436 0.0591,0.0118 0.69689,0.3071 0.69689,0.3071 0,0 0.14174,0.18899 0.53153,0.15356 0.38979,-0.0354 0.95675,-0.14175 1.13393,-0.14175 0.17718,0 0.35435,0.0236 0.35435,0.0236 0,0 -0.82682,0.54334 -0.93313,0.57877 -0.1063,0.0354 -0.83863,0.43704 -0.96856,0.53153 -0.12993,0.0945 -1.42922,0.53153 -1.84263,0.62603 -0.41341,0.0945 -1.72452,0.74413 -1.83083,0.80319 -0.1063,0.0591 -0.28348,0.25987 -0.28348,0.46065 0,0.20081 0.0354,0.44886 0.21261,0.56698 0.17718,0.11812 0.41342,0.23623 0.70871,0.11812 0.29529,-0.11812 1.2048,-0.31892 1.39379,-0.4016 0.18898,-0.0827 1.5119,-0.27167 1.59458,-0.2953 0.0827,-0.0236 0.63784,-0.0709 0.63784,-0.0709 0,0 -0.72052,0.82683 -0.86226,0.90951 -0.14174,0.0827 -0.36616,0.43703 -0.67327,0.6024 -0.30711,0.16536 -0.6024,0.77957 -0.72052,0.95675 -0.11811,0.17718 -0.21261,0.46066 -0.28348,0.69689 -0.0709,0.23624 -0.15355,0.55516 -0.1063,0.72052 0.0472,0.16536 0.33072,0.43704 0.48428,0.48428 0.15355,0.0473 0.48428,-0.15355 0.54334,-0.22442 0.0591,-0.0709 0.18899,-0.15355 0.23623,-0.41341 0.0472,-0.25986 -0.0591,-0.41341 0.0591,-0.54334 0.11812,-0.12993 1.45285,-1.27567 1.45285,-1.27567 0,0 0.0945,-0.15356 0.41341,-0.27167 0.31892,-0.11812 0.67327,-0.24805 0.83863,-0.41341 0.16537,-0.16537 0.51972,-0.62603 0.59059,-0.68509 0.0709,-0.0591 0.27167,-0.12993 0.30711,-0.0236 0.0354,0.10631 0.42522,0.23624 0.51971,0.0945 0.0945,-0.14174 0.21262,-0.48428 0.21262,-0.48428 0,0 0.1063,-0.0945 0.29529,-0.16537 0.18899,-0.0709 0.44885,-0.2008 0.44885,-0.2008 l 1.14574,-0.94493 c 0,0 0.2008,0.0472 0.29529,-0.0709 0.0945,-0.11813 0.14174,-0.21263 0.21261,-0.22443 0.0709,-0.0118 0.28348,0.0118 0.44885,-0.0472 0.16536,-0.0591 0.35435,-0.22443 0.35435,-0.22443 0,0 0.17718,0.0709 0.17718,0.2008 0,0.12993 0.15355,0.4961 0.27167,0.68508 0.11812,0.18899 -0.0354,0.2953 0.31892,0.53153 0.35435,0.23624 0.99218,0.22443 1.1103,0.16537 0.11812,-0.0591 0.21261,-0.22443 0.22442,-0.46066 0.0118,-0.23624 0,-0.28348 -0.0236,-0.6024 -0.0236,-0.31892 -0.15355,-0.35435 -0.0236,-0.59059 0.12993,-0.23623 0.33073,-0.43703 0.36616,-0.63783 0.0354,-0.2008 0.0472,-0.44885 0.0827,-0.55515 0.0354,-0.10631 0.16537,-0.2008 0.2953,-0.28348 0.12993,-0.0827 0.37797,-0.23624 0.47247,-0.42523 0.0945,-0.18899 0.15355,-0.41341 0.23623,-0.69689 0.0827,-0.28348 0.2008,-0.43704 0.31892,-0.63784 0.11812,-0.2008 0.51972,-0.56696 0.59059,-0.62602 0.0709,-0.0591 1.3111,-1.06306 1.3111,-1.06306 0,0 0.43704,-0.18898 0.50791,-0.38978 0.0709,-0.2008 0.0827,-0.33073 0.34254,-0.77958 0.25986,-0.44885 0.34254,-0.66146 0.36616,-0.92132 0.0236,-0.25986 0,-0.47247 0.12993,-0.68508 0.12993,-0.21261 0.30711,-0.64965 0.25986,-0.85045 -0.0472,-0.2008 -0.0118,-0.31892 -0.0236,-0.59059 -0.0118,-0.27167 0.0472,-0.49609 0.0591,-0.6024 0.0118,-0.1063 0.29529,-1.9135 0.36616,-2.16155 0.0709,-0.24804 0.27167,-1.22842 0.27167,-1.34654 0,-0.11811 -0.0827,-0.34254 -0.25986,-0.43703 -0.17717,-0.0945 -0.27167,-0.0709 -0.23623,-0.27167 0.0354,-0.2008 0.0945,-0.22443 0.0591,-0.47247 -0.0354,-0.24805 0.0354,-0.28349 -0.17718,-0.46066 -0.21261,-0.17718 -0.38979,-0.2008 -0.5079,-0.37798 -0.11812,-0.17718 -0.25986,-0.34254 -0.22443,-0.48428 0.0354,-0.14174 0.15356,-0.30711 0.0945,-0.50791 -0.0591,-0.2008 -0.30711,-0.47247 -0.30711,-0.47247 0,0 -0.44885,-0.86225 -0.62602,-1.08668 -0.17718,-0.22442 -0.73233,-0.55515 -1.06307,-0.68508 -0.33072,-0.12993 -0.56695,-0.27167 -0.7087,-0.41341 -0.14174,-0.14174 -0.2008,-0.31892 -0.31891,-0.51972 -0.11812,-0.2008 -0.44885,-0.38979 -0.67327,-0.33073 -0.22444,0.0591 -0.59059,0.0118 -0.75596,-0.0236 -0.16536,-0.0354 -0.59058,-0.12993 -1.02763,-0.11811 -0.43702,0.0118 -0.60239,-0.0945 -0.93312,0 -0.33073,0.0945 -0.6024,0.28348 -0.77957,0.3071 -0.17718,0.0236 -0.33074,-0.0945 -0.62603,-0.0709 -0.29529,0.0236 -0.0118,0.23624 -0.42522,0.18899 -0.41342,-0.0472 -0.23623,-0.22442 -0.51972,-0.0472 -0.28348,0.17718 -0.55515,0.37798 -0.66146,0.46066 -0.1063,0.0827 -0.49609,0.29529 -0.57877,0.3071 -0.0827,0.0118 -0.29529,-0.0236 -0.30711,-0.15355 -0.0118,-0.12993 0.18899,-0.5079 0.16537,-0.66146 -0.0236,-0.15355 -0.0236,-0.14174 -0.0591,-0.41341 -0.0354,-0.27167 -0.21261,-0.43703 -0.27168,-0.66146 -0.0591,-0.22442 0.0709,-0.34254 0.10631,-0.44884 0.0354,-0.10631 0.0236,-0.33073 -0.0472,-0.42523 -0.0709,-0.0945 -0.28349,-0.38978 -0.28349,-0.38978 0,0 0,-0.22443 0,-0.37798 0,-0.15355 -0.0591,-0.44885 -0.0591,-0.44885 0,0 -0.28348,-0.11811 -0.40159,-0.18899 -0.11812,-0.0709 -0.43705,-0.15355 -0.46066,-0.28348 -0.0236,-0.12993 -0.0473,-0.33073 0.0354,-0.44884 0.0827,-0.11812 0.22443,-0.36617 0.22443,-0.43704 0,-0.0709 -0.11812,-0.24805 -0.2008,-0.27167 -0.0827,-0.0236 -0.25986,0 -0.47247,-0.10631 -0.21261,-0.1063 -0.22443,-0.0354 -0.37798,-0.22442 -0.15355,-0.18899 -0.35435,-0.43703 -0.4016,-0.55515 -0.0472,-0.11812 -0.0591,-0.25986 -0.0236,-0.47247 0.0354,-0.21261 0.0354,-0.43704 0.0354,-0.4961 0,-0.0591 0.0236,-0.12992 -0.0945,-0.18898 -0.11812,-0.0591 -0.12993,0.0473 -0.31892,-0.0709 -0.18899,-0.11812 -0.34254,-0.12993 -0.36616,-0.24805 -0.0236,-0.11812 -0.0236,-0.17718 -0.0236,-0.17718 l 0.10631,-0.35435 c 0,0 0.10631,-0.21261 -0.0591,-0.22442 -0.16536,-0.0118 -0.57878,-0.0709 -0.57878,-0.0709 l -0.2008,-0.22443 c 0,0 0.10631,-0.21261 0.0827,-0.33073 -0.0236,-0.11811 -0.2953,-0.35435 -0.35436,-0.46065 -0.0591,-0.10631 -0.16536,-0.17718 -0.0118,-0.28349 0.15356,-0.1063 0.34254,-0.38978 0.34254,-0.48428 0,-0.0945 -0.16536,-0.1063 -0.4016,-0.18899 -0.23623,-0.0827 -0.37797,-0.0945 -0.54334,-0.22442 -0.16536,-0.12993 -0.24804,-0.11812 -0.25986,-0.27167 -0.0118,-0.15355 0.25986,-0.63784 0.36617,-0.72052 0.1063,-0.0827 0.31892,-0.3071 0.21261,-0.4016 -0.10631,-0.0945 -0.12993,-0.15355 -0.29529,-0.12993 -0.16537,0.0236 -0.4016,0.0827 -0.61421,0.0473 -0.21262,-0.0354 -0.41342,-0.23623 -0.55516,-0.46066 -0.14174,-0.22442 -0.14174,-0.40159 -0.37797,-0.47247 -0.23624,-0.0709 -0.14174,0.0236 -0.42523,-0.1063 -0.28348,-0.12993 -0.33073,-0.0945 -0.44884,-0.27167 -0.11812,-0.17718 -0.21262,-0.57878 -0.4016,-0.68508 -0.18899,-0.10631 -0.27167,-0.17718 -0.37798,-0.0236 -0.10631,0.15355 -0.43703,0.38979 -0.56696,0.46066 -0.12993,0.0709 -0.24805,0.25986 -0.56697,0.1063 -0.31892,-0.15355 -0.67327,-0.36616 -0.74414,-0.5079 -0.0709,-0.14175 -0.25986,-0.30711 -0.36616,-0.34255 -0.10631,-0.0354 -0.25986,-0.0591 -0.38979,-0.0591 -0.12993,0 -0.35919,-0.18508 -0.35919,-0.18508 0,0 0.008,-0.45936 -0.008,-0.51783 -0.0167,-0.0585 -0.0668,-0.22551 -0.18375,-0.15869 -0.11693,0.0668 -0.21715,0.16704 -0.41761,0.29233 -0.20045,0.12528 -0.14198,0.25891 -0.42596,0.24221 -0.28397,-0.0167 -0.60971,-0.15869 -0.69323,-0.27562 -0.0835,-0.11693 -0.25056,-0.28398 -0.33408,-0.30903 -0.0835,-0.0251 -0.32574,-0.10023 -0.40926,-0.10023 -0.0835,0 -0.13364,-0.13363 -0.33409,-0.16704 -0.20045,-0.0334 -0.15034,0.0501 -0.3842,-0.10023 -0.23386,-0.15034 -0.35079,-0.23386 -0.43431,-0.33409 -0.0835,-0.10022 -0.13364,-0.36749 -0.23386,-0.46772 -0.10023,-0.10022 -0.15034,-0.31738 -0.28398,-0.20045 -0.13363,0.11693 -0.23386,0.18375 -0.46772,0.13363 -0.23386,-0.0501 -0.33408,-0.0835 -0.35079,-0.21715 -0.0167,-0.13364 -0.10022,-0.53454 -0.25056,-0.60136 -0.15034,-0.0668 -0.35079,0 -0.41761,0.15034 -0.0668,0.15034 -0.11693,0.43431 -0.3842,0.41761 -0.26727,-0.0167 -0.40091,-0.3675 -0.46772,-0.3842 -0.0668,-0.0167 -0.26727,-0.10023 -0.31739,-0.0167 -0.0501,0.0835 -0.21715,0.15034 -0.31738,0.0835 -0.10022,-0.0668 -0.25056,-0.30068 -0.25056,-0.30068 0,0 -0.30068,0.0167 -0.31739,0.11693 -0.0167,0.10023 -0.0334,0.21716 -0.16704,0.26727 -0.13363,0.0501 -0.45102,-0.16704 -0.45102,-0.16704 0,0 -0.35079,-0.16705 -0.35079,0 0,0.16704 0.0167,0.28397 -0.0334,0.50113 -0.0501,0.21715 -0.0167,0.35079 -0.28397,0.31738 -0.26727,-0.0334 -0.45102,-0.10023 -0.66817,-0.23386 -0.21716,-0.13364 -0.3508,-0.23386 -0.50114,-0.31738 -0.15033,-0.0835 -0.16704,-0.25057 -0.4009,-0.23386 -0.23386,0.0167 -0.31738,0.13363 -0.48443,0.18374 -0.16704,0.0501 -0.0835,0.13364 -0.46772,0.16705 -0.3842,0.0334 -0.41761,0.10022 -0.61806,-0.0501 -0.20045,-0.15034 -0.0668,-0.10023 -0.43431,-0.30068 -0.3675,-0.20045 -0.60135,-0.33409 -0.60135,-0.33409 0,0 -0.51784,-0.0334 -0.70158,-0.0167 -0.18375,0.0167 -0.41761,0.0334 -0.65147,0.0668 -0.23386,0.0334 -0.40091,0.0835 -0.65147,0.0334 -0.25056,-0.0501 -0.18375,0.0668 -0.55124,-0.16704 -0.3675,-0.23387 -0.55125,-0.30068 -0.56795,-0.56795 -0.0167,-0.26727 -0.0334,-0.31738 -0.10023,-0.51784 -0.0668,-0.20045 -0.35079,-0.53454 -0.4176,-0.53454 -0.0668,0 -0.20046,0.0334 -0.3675,0.10023 -0.16704,0.0668 -0.41761,0.0668 -0.58465,0.0835 -0.16705,0.0167 -0.46772,0.0501 -0.53454,-0.0501 -0.0668,-0.10023 -0.55124,-0.65147 -0.65147,-0.7684 -0.10023,-0.11693 -0.21716,-0.26727 -0.40091,-0.30068 -0.18374,-0.0334 -0.15033,-0.0334 -0.46772,0.0167 -0.31738,0.0501 -0.41761,0.13364 -0.56794,0.20046 -0.15034,0.0668 -0.18375,0.15033 -0.3508,0.10022 -0.16704,-0.0501 -0.75169,-0.3842 -0.75169,-0.3842 0,0 -0.70158,-0.20045 -0.78511,-0.20045 -0.0835,0 -0.66817,0.16704 -0.66817,0.16704 0,0 -0.0861,0.16986 -0.57039,0.32341 -0.48428,0.15356 -0.37797,0.23624 -0.55515,0.15356 -0.17718,-0.0827 -0.42522,-0.22443 -0.5079,-0.36617 -0.0827,-0.14174 -0.47247,-0.53153 -0.47247,-0.53153 l -0.30711,0.16537 c 0,0 -0.13439,0.14678 -0.27638,0.10502 -0.14199,-0.0418 -0.2088,-0.16704 -0.30068,-0.24221 -0.0919,-0.0752 -0.2088,-0.15034 -0.28397,-0.15869 -0.0752,-0.008 -0.16704,-0.0418 -0.16704,-0.0418 0,0 -0.0251,-0.10858 -0.0752,-0.2088 -0.0501,-0.10023 -0.0752,-0.21716 -0.1921,-0.25892 -0.11693,-0.0418 -0.42597,-0.0919 -0.45937,-0.0919 -0.0334,0 -0.21716,0.0167 -0.29233,-0.0334 -0.0752,-0.0501 -0.60971,-0.87698 -0.65982,-0.97721 -0.0501,-0.10022 -0.30903,-0.46772 -0.42596,-0.52618 -0.11693,-0.0585 -0.16705,-0.0919 -0.29233,-0.0919 -0.12528,0 -0.29232,0.0501 -0.36749,0.15034 -0.0752,0.10022 -0.10858,0.16704 -0.20046,0.43431 -0.0919,0.26727 -0.70158,1.52009 -0.70158,1.52009 l -0.60971,-0.37584 c 0,0 -0.66817,-0.65982 -0.77675,-0.78511 -0.10858,-0.12528 -0.26727,-0.34244 -0.31738,-0.49278 -0.0501,-0.15033 -0.008,-0.25056 -0.16705,-0.34243 -0.1587,-0.0919 -0.24222,-0.14198 -0.34244,-0.30067 -0.10023,-0.15869 -0.0668,-0.23386 -0.27563,-0.46772 -0.2088,-0.23386 -0.52618,-0.50948 -0.593,-0.60971 -0.0668,-0.10022 -0.0585,-0.39255 -0.1754,-0.50948 -0.11693,-0.11693 -0.24221,-0.24221 -0.40925,-0.28397 -0.16705,-0.0418 -0.34244,-0.14199 -0.34244,-0.14199 0,0 -0.15869,-0.55124 -0.25892,-0.70994 -0.10022,-0.15869 -0.58466,-0.98555 -0.72664,-1.07743 -0.14199,-0.0919 -0.37585,-0.26727 -0.5596,-0.26727 -0.18375,0 -0.33408,0.24222 -0.33408,0.3842 0,0.14199 0.14198,0.5596 0.15869,0.72664 0.0167,0.16705 0.0418,0.42596 -0.0167,0.67653 -0.0585,0.25056 -0.008,0.3842 -0.20046,0.62641 -0.1921,0.24221 -0.63476,0.81016 -0.67652,0.93545 -0.0418,0.12528 -0.47018,0.45973 -0.47018,0.45973 0,0 -0.92132,0.9095 -1.03944,1.12211 -0.11812,0.21262 -0.33073,0.61422 -0.38979,1.004 -0.0591,0.38979 0.0709,0.93313 0.0827,1.14574 0.0118,0.21262 0.0236,0.54334 -0.0118,0.77958 -0.0354,0.23623 -0.18898,0.63783 -0.18898,0.9095 0,0.27168 -0.11812,0.73233 -0.11812,0.73233 0,0 -0.10631,0.16537 -0.17718,0.28349 -0.0709,0.11811 -0.0709,0.3071 -0.0591,0.35435 0.0118,0.0472 0.141739,0.0236 -0.0945,0.11812 -0.23623,0.0945 -0.42522,0.16536 -0.5079,0.29529 -0.0827,0.12993 -0.0945,0.30711 -0.12993,0.56696 -0.0354,0.25986 0.0945,0.30711 -0.12993,0.37798 -0.22443,0.0709 -0.73233,0.27167 -0.86226,0.44885 -0.12993,0.17717 -0.29529,0.37797 -0.41341,0.55515 -0.11812,0.17718 -1.21661,0.90951 -1.38198,1.03943 -0.16536,0.12993 -0.56696,-0.0236 -0.87407,0.2953 -0.3071,0.31892 -0.271671,0.27167 -0.42522,0.37797 -0.153551,0.10631 -0.23624,0.2008 -0.23624,0.4016 0,0.2008 -0.236231,0.75596 -0.29529,0.75596 -0.0591,0 -0.200801,-0.14174 -0.3071,-0.0236 -0.10631,0.11811 -0.14175,0.28348 -0.14175,0.38979 0,0.1063 0.12993,0.12992 -0.0354,0.12992 -0.165359,0 -0.767759,0.0118 -0.850439,0.11812 -0.0827,0.10631 -0.18899,0.16537 -0.22443,0.46066 -0.0354,0.29529 0.0354,0.30711 -0.0354,0.34254 -0.0709,0.0354 -0.60239,0.10631 -0.77957,0.24805 -0.17718,0.14174 -0.36617,0.27167 -0.48428,0.54334 -0.118121,0.27167 -0.3269,0.50934 -0.3269,0.50934 z"
       id="path9339"
       style="fill:#000000;stroke:#000000;stroke-width:0.264583px;stroke-linecap:butt;stroke-linejoin:miter;stroke-opacity:1" />
  </g>
</svg>
