<?xml version="1.0" standalone="no"?>
<!DOCTYPE svg PUBLIC "-//W3C//DTD SVG 20010904//EN"
 "http://www.w3.org/TR/2001/REC-SVG-20010904/DTD/svg10.dtd">
<svg version="1.0" xmlns="http://www.w3.org/2000/svg"
 width="1536.000000pt" height="1274.000000pt" viewBox="0 0 1536.000000 1274.000000"
 preserveAspectRatio="xMidYMid meet">
<metadata>
Created by potrace 1.16, written by Peter Selinger 2001-2019
</metadata>
<g transform="translate(0.000000,1274.000000) scale(0.100000,-0.100000)"
fill="#000000" stroke="none">
<path d="M6063 12707 c7 -46 -4 -47 -37 -4 -15 18 -26 26 -26 17 0 -8 9 -26
20 -40 11 -14 20 -28 20 -32 0 -15 -60 15 -99 49 -29 24 -45 32 -54 25 -7 -5
-21 -6 -32 -1 -11 4 -30 8 -43 8 -19 1 -21 -2 -12 -18 17 -32 12 -33 -25 -5
-45 34 -54 27 -15 -11 17 -16 30 -32 30 -37 0 -18 -38 -6 -75 25 -22 17 -48
33 -60 34 -144 13 -185 15 -185 7 0 -5 9 -22 20 -39 38 -58 24 -59 -56 -5 -56
38 -81 49 -71 33 3 -5 -7 -9 -21 -10 -14 0 -31 -8 -38 -17 -11 -15 -15 -14
-41 8 -22 19 -33 22 -41 14 -8 -8 3 -20 41 -44 29 -19 48 -34 42 -34 -29 0
-91 25 -103 41 -7 11 -23 18 -35 18 -17 -1 -18 -2 -4 -6 35 -9 17 -25 -20 -18
-45 8 -52 13 -34 24 18 11 -4 19 -36 13 -21 -4 -22 -6 -7 -33 9 -18 11 -29 4
-29 -6 0 -8 -4 -5 -10 8 -13 -35 -13 -55 0 -8 5 -15 17 -15 27 0 21 -32 30
-49 13 -8 -8 -4 -16 16 -31 14 -11 37 -28 50 -39 l23 -20 -51 15 c-29 8 -71
22 -94 30 -23 8 -51 15 -62 15 -19 0 -19 -1 3 -21 23 -19 23 -20 2 -10 -33 16
-38 13 -17 -10 l19 -21 -40 8 c-62 11 -125 41 -125 59 0 9 -5 15 -12 13 -25
-9 -17 -25 22 -47 22 -12 40 -27 40 -33 0 -5 -16 -1 -35 11 -19 12 -51 30 -70
42 -37 22 -45 17 -19 -12 28 -31 11 -43 -22 -16 -21 18 -41 25 -66 24 -32 -1
-35 -3 -25 -16 9 -12 6 -12 -15 2 -31 20 -38 21 -38 7 0 -6 16 -18 35 -27 19
-9 35 -21 35 -26 0 -11 -52 1 -61 14 -6 10 -64 29 -88 29 -11 0 -11 -3 0 -17
13 -15 12 -16 -6 -8 -11 5 -36 9 -55 10 -19 0 -40 4 -45 7 -6 4 -17 3 -24 -2
-10 -6 -5 -13 20 -26 48 -24 19 -30 -34 -6 -32 14 -65 19 -126 19 -75 -1 -82
-2 -78 -19 6 -22 8 -22 -38 -2 -20 8 -47 13 -59 11 l-21 -4 23 -8 c12 -4 22
-11 22 -16 0 -4 -19 -2 -41 6 -23 8 -48 15 -56 15 -28 0 -3 -17 56 -39 73 -26
91 -46 24 -26 -130 40 -156 46 -200 43 -48 -3 -48 -4 -19 -16 40 -17 30 -21
-34 -11 -77 11 -110 11 -110 -1 0 -5 7 -10 15 -10 8 0 15 -4 15 -10 0 -12 6
-13 -60 5 -65 17 -70 18 -70 6 0 -5 14 -14 30 -20 43 -14 37 -19 -15 -13 -28
3 -45 1 -45 -6 0 -7 -10 -8 -32 -1 -18 5 -42 9 -53 9 -17 0 -17 -2 -5 -10 10
-7 -12 -10 -72 -10 l-88 0 10 -26 10 -26 -57 7 c-32 4 -62 8 -67 8 -6 1 -11
-6 -14 -15 -2 -12 6 -20 30 -27 30 -8 31 -9 8 -11 -29 -3 -21 -4 -101 9 -38 6
-65 7 -69 1 -3 -5 -20 -8 -38 -8 -51 2 -48 -9 7 -22 84 -20 75 -34 -15 -25
-113 11 -139 11 -142 0 -2 -5 7 -12 19 -15 12 -3 24 -11 26 -17 3 -8 -7 -9
-34 -2 -52 12 -96 11 -88 -1 4 -6 -5 -10 -19 -10 -16 0 -26 -6 -26 -15 0 -11
-12 -15 -47 -15 -27 0 -54 -4 -62 -9 -22 -14 -3 -31 37 -31 20 0 44 -5 52 -11
11 -8 -15 -9 -92 -5 -64 3 -108 2 -108 -3 0 -6 15 -12 32 -14 26 -3 23 -4 -14
-5 -25 -1 -53 -5 -62 -8 -24 -9 -9 -24 27 -25 56 -2 -48 -19 -143 -23 -93 -4
-147 -14 -156 -27 -3 -5 14 -9 38 -10 59 0 127 -14 108 -22 -8 -3 -80 -7 -160
-9 -102 -2 -152 -7 -170 -18 l-25 -14 25 -6 c23 -6 23 -7 5 -13 -11 -3 -40 -9
-65 -13 -25 -4 -39 -9 -32 -11 24 -9 11 -21 -28 -28 -22 -4 -40 -10 -40 -15 0
-5 -18 -11 -40 -15 -34 -6 -40 -10 -40 -31 0 -17 -8 -27 -24 -34 -13 -5 -27
-14 -31 -19 -3 -6 -19 -11 -34 -11 -16 0 -34 -7 -41 -15 -11 -13 -8 -15 19
-15 33 0 42 -15 14 -24 -10 -2 -42 -8 -70 -11 -86 -11 -60 -33 42 -36 34 -1
19 -5 -47 -10 -53 -5 -109 -14 -125 -21 l-28 -12 45 -6 45 -6 -28 -12 c-16 -7
-36 -12 -46 -12 -36 0 -81 -13 -81 -22 0 -6 17 -8 45 -4 25 4 45 5 45 2 0 -2
-24 -12 -52 -21 -83 -26 -108 -37 -108 -46 0 -5 7 -9 16 -9 25 0 4 -21 -42
-41 -49 -22 -73 -47 -33 -35 13 4 35 10 49 12 25 5 25 5 5 -11 -11 -9 -42 -28
-70 -42 -71 -36 -105 -62 -100 -76 3 -7 -13 -22 -35 -35 -43 -25 -54 -47 -17
-37 21 6 21 5 -4 -17 -15 -13 -43 -36 -64 -52 -28 -22 -34 -31 -24 -37 11 -7
11 -9 1 -9 -18 0 -113 -91 -106 -102 3 -5 -14 -30 -38 -56 -34 -38 -39 -47
-25 -50 22 -4 22 -7 -8 -46 -26 -34 -32 -52 -15 -41 16 10 12 -7 -10 -40 -26
-39 -25 -48 2 -39 22 6 22 6 5 -19 -20 -30 -22 -52 -5 -41 8 5 9 2 5 -9 -22
-54 -22 -53 -4 -38 10 8 17 9 17 3 0 -6 -4 -14 -10 -17 -13 -8 -13 -75 0 -75
5 0 2 -16 -7 -35 -16 -33 -16 -36 1 -48 16 -12 16 -15 1 -51 -9 -21 -13 -46
-10 -55 6 -14 8 -14 21 3 13 19 14 18 14 -15 l1 -34 34 40 c29 34 35 37 35 19
0 -12 -9 -33 -20 -47 -26 -33 -25 -41 6 -56 22 -10 28 -9 39 6 8 10 17 15 21
11 4 -4 2 -14 -5 -21 -14 -18 1 -32 46 -40 21 -4 35 -1 43 8 15 19 30 10 30
-17 0 -18 4 -19 33 -14 26 5 38 2 52 -14 10 -11 24 -20 32 -20 8 0 11 -4 8
-10 -3 -5 0 -10 8 -10 8 0 24 16 36 35 11 19 25 35 31 35 12 0 6 -15 -18 -42
-14 -16 -13 -18 3 -18 10 0 48 32 85 70 61 64 90 84 90 62 0 -4 -6 -14 -13
-22 -6 -7 3 -3 21 9 17 12 71 70 120 129 48 58 100 119 115 136 26 28 27 29
16 6 -6 -14 -28 -47 -48 -75 -58 -78 -57 -85 2 -23 30 31 78 92 106 135 40 60
51 72 51 53 0 -14 -16 -49 -36 -78 -41 -59 -37 -85 4 -34 15 18 32 32 37 32 6
0 18 14 27 30 9 17 22 30 28 30 6 0 8 -4 5 -10 -3 -5 -2 -10 4 -10 15 0 46 49
76 120 27 65 73 136 82 127 2 -3 -11 -42 -31 -88 -20 -45 -34 -84 -33 -86 8
-8 42 42 90 133 40 76 58 100 77 104 15 4 33 21 46 44 26 46 54 76 54 57 0 -7
-14 -44 -31 -82 -16 -39 -28 -76 -26 -82 3 -7 17 16 32 50 28 63 53 79 33 21
-8 -22 -8 -33 -1 -35 6 -2 9 -13 6 -23 -7 -25 12 -27 21 -3 6 14 9 15 15 4 13
-20 28 -6 41 37 18 55 41 102 51 102 5 0 4 -12 -2 -27 -10 -27 -9 -27 7 -11
10 10 31 43 48 75 36 67 70 89 36 23 -28 -56 -7 -41 35 24 35 55 72 93 81 84
3 -3 -11 -38 -30 -77 -39 -77 -45 -101 -21 -81 9 7 25 35 36 61 24 56 49 83
49 53 0 -11 -9 -34 -20 -51 l-20 -33 21 0 c15 0 25 11 36 40 11 26 22 39 32
38 10 -2 25 15 41 46 33 65 53 73 44 17 -6 -39 -6 -40 21 -37 19 2 33 13 43
32 13 23 17 25 20 12 5 -24 19 -23 27 2 4 11 11 17 17 14 6 -4 25 11 43 32 36
43 58 43 24 0 -11 -14 -19 -32 -16 -39 2 -6 17 8 33 32 35 52 73 95 80 89 2
-3 -5 -26 -17 -52 -11 -26 -19 -52 -16 -59 4 -14 37 45 37 68 0 8 5 15 10 15
6 0 18 16 27 35 9 19 20 35 25 35 12 0 10 -13 -11 -61 -29 -67 -34 -89 -21
-89 6 0 19 18 27 40 12 31 20 39 32 34 43 -17 49 -15 84 35 49 67 74 70 47 5
-23 -53 -24 -58 -9 -48 6 3 24 34 39 69 24 53 88 135 106 135 6 0 4 -3 -58
-99 -49 -76 -67 -130 -27 -81 12 14 29 25 37 25 10 0 34 29 57 68 43 70 80
115 90 106 3 -3 -11 -28 -30 -55 -38 -53 -46 -77 -17 -51 11 10 26 14 40 10
13 -3 22 -1 22 6 0 19 72 92 132 132 66 45 75 42 21 -7 -20 -19 -34 -36 -31
-40 4 -3 31 17 61 45 57 51 97 78 97 64 -1 -4 -21 -24 -46 -43 -25 -19 -50
-44 -56 -55 -11 -19 -10 -19 17 -1 15 10 47 33 71 51 45 35 111 62 122 50 4
-3 -4 -15 -18 -25 -41 -32 0 -23 50 10 25 16 50 30 57 30 25 0 22 -20 -4 -35
l-28 -16 30 6 c17 3 67 28 111 56 93 56 115 63 61 18 -42 -35 -45 -44 -18 -58
25 -14 84 6 77 25 -3 9 9 21 35 34 39 21 40 21 30 2 -9 -18 -8 -19 11 -14 15
4 19 2 13 -7 -10 -18 45 12 84 45 17 14 31 32 31 40 0 7 13 20 29 29 43 22 52
-1 13 -32 -19 -14 -29 -29 -25 -38 9 -24 34 -17 45 13 9 23 16 27 39 24 18 -3
48 7 87 28 45 24 65 29 77 22 15 -8 11 -14 -29 -41 -25 -18 -46 -39 -46 -47 0
-17 3 -15 65 26 22 15 65 39 95 54 l55 27 -42 -38 c-54 -48 -55 -59 -4 -33 22
11 47 17 55 14 10 -4 16 -1 16 9 0 8 12 17 28 20 34 7 43 -2 18 -17 -68 -41
-75 -71 -8 -37 27 14 42 17 49 10 8 -8 18 -7 34 2 17 9 24 9 27 0 6 -18 35
-13 122 19 90 33 156 40 146 15 -3 -9 0 -15 8 -15 8 0 17 7 20 15 5 13 10 14
28 4 15 -8 54 -10 127 -5 107 6 126 11 102 25 -26 16 31 42 75 36 31 -5 50 -1
93 23 52 27 56 28 85 14 17 -9 37 -18 45 -22 8 -3 35 5 60 17 48 25 60 19 41
-17 -6 -12 -9 -24 -6 -28 3 -3 48 16 100 43 51 26 99 45 107 43 8 -3 -15 -20
-53 -38 -64 -32 -78 -50 -39 -50 10 0 37 14 60 30 52 38 95 56 89 38 -3 -7
-19 -17 -36 -22 -30 -8 -40 -24 -26 -39 3 -3 31 3 62 14 30 11 64 17 73 14 10
-3 45 1 79 10 34 9 67 14 73 12 7 -2 -5 -7 -25 -11 -21 -4 -38 -11 -38 -16 0
-13 8 -13 66 5 61 18 76 19 44 0 l-25 -14 26 -1 c15 0 57 11 94 25 79 30 119
30 65 0 -31 -17 -33 -20 -13 -23 12 -2 31 2 42 7 11 6 28 11 38 10 16 0 16 -1
-2 -9 -17 -7 -15 -9 13 -9 18 -1 56 11 84 25 32 16 53 22 57 15 4 -6 12 -7 21
-1 31 20 45 9 18 -13 -49 -40 -28 -51 60 -32 41 8 62 9 65 2 2 -7 32 -3 85 10
70 18 82 19 82 6 0 -11 6 -14 23 -9 12 3 40 9 62 12 39 5 39 5 20 -12 -19 -16
-19 -16 15 -10 22 3 29 2 20 -3 -8 -5 -39 -12 -68 -16 -28 -4 -49 -11 -46 -16
3 -6 15 -7 25 -4 11 4 27 1 35 -6 10 -8 44 -10 118 -7 66 4 108 2 115 -5 7 -7
35 -7 93 1 88 13 145 14 93 3 -17 -3 -31 -14 -33 -24 -3 -16 13 -17 210 -18
128 0 205 -4 193 -9 -11 -5 -49 -9 -85 -9 -80 -2 -112 -17 -49 -23 24 -3 49
-1 56 4 7 6 21 3 37 -7 17 -12 35 -14 61 -9 36 6 37 6 31 -17 l-7 -24 20 23
c16 19 29 22 83 21 l63 -1 -40 -12 c-28 -9 -40 -18 -40 -32 0 -24 44 -29 139
-16 36 5 66 5 66 1 0 -9 -26 -19 -51 -19 -10 0 -19 -5 -19 -11 0 -7 12 -9 35
-5 24 5 35 3 35 -5 0 -7 11 -10 28 -7 15 3 41 2 57 -2 l30 -8 -30 -2 c-29 -1
-28 -3 20 -26 28 -13 58 -24 68 -24 9 0 17 -4 17 -10 0 -5 7 -10 15 -10 8 0
15 -7 15 -15 0 -12 16 -15 83 -15 72 -1 80 -2 63 -15 -25 -19 -14 -31 49 -50
30 -8 58 -22 63 -31 7 -12 14 -13 36 -4 36 13 41 13 27 -4 -10 -12 -3 -17 36
-30 26 -9 64 -17 83 -19 19 -3 36 -9 38 -16 2 -6 8 -11 13 -11 6 0 7 5 3 11
-4 7 2 9 17 7 31 -4 39 -38 9 -38 -12 0 -18 -4 -15 -10 3 -5 21 -10 39 -10 19
0 39 -6 45 -14 7 -8 28 -17 49 -21 20 -4 43 -16 50 -27 10 -13 17 -16 22 -9 4
8 18 7 46 -5 21 -9 41 -20 44 -24 3 -4 26 -10 52 -13 26 -4 62 -13 80 -22 31
-14 32 -15 6 -11 -16 2 -28 0 -28 -5 0 -11 61 -27 133 -34 54 -6 57 -8 51 -30
-5 -21 -1 -24 46 -34 28 -6 64 -11 79 -11 17 0 29 -5 28 -12 -1 -36 5 -48 22
-48 11 0 23 -5 27 -11 4 -6 19 -9 36 -5 27 5 30 4 25 -15 -4 -16 1 -23 26 -33
18 -7 41 -17 52 -21 22 -9 32 -11 58 -13 14 -2 16 -8 11 -29 -7 -28 -7 -28 14
-9 23 20 65 15 44 -6 -20 -20 7 -49 73 -79 35 -15 72 -40 83 -54 13 -16 26
-23 36 -19 10 4 16 1 16 -9 0 -10 7 -13 20 -10 14 4 20 0 20 -12 0 -19 64 -85
83 -85 7 0 18 -9 24 -19 8 -12 19 -17 31 -14 23 6 40 -16 22 -27 -9 -6 -6 -11
10 -20 25 -13 71 -53 131 -112 20 -21 42 -38 48 -38 6 0 11 -6 11 -13 0 -18
37 -47 61 -47 16 0 19 -4 14 -22 -6 -16 -4 -20 9 -15 8 3 23 -1 32 -10 11 -12
13 -18 5 -21 -9 -3 -9 -7 0 -18 6 -8 15 -14 19 -14 5 0 27 -12 49 -27 32 -20
38 -29 30 -40 -9 -10 -5 -13 20 -13 36 0 41 -17 9 -29 l-22 -8 22 -12 c12 -6
22 -20 22 -31 0 -10 27 -46 60 -78 33 -33 60 -64 60 -68 0 -5 -7 -1 -14 9 -25
32 -27 17 -4 -24 13 -23 33 -48 46 -56 12 -9 22 -25 22 -37 0 -13 11 -33 25
-46 18 -17 22 -27 15 -36 -8 -8 -3 -20 15 -42 27 -33 32 -52 13 -53 -7 0 -4
-4 8 -9 24 -9 41 -69 24 -80 -8 -5 -7 -16 2 -35 10 -22 10 -29 1 -32 -9 -3 -9
-12 -2 -29 12 -32 11 -37 -1 -29 -14 9 -13 -5 10 -70 11 -32 20 -70 19 -84 -1
-25 -1 -24 -15 8 -22 50 -27 31 -10 -37 18 -68 21 -126 6 -117 -5 3 -10 17
-10 30 0 13 -4 26 -9 30 -6 3 -8 -21 -5 -62 5 -53 2 -73 -10 -88 -15 -19 -15
-19 -16 10 -1 48 -20 8 -20 -42 0 -38 -4 -44 -32 -59 -18 -9 -48 -28 -65 -42
l-33 -24 0 26 c0 26 0 26 -30 11 -32 -16 -51 -19 -49 -7 3 20 -3 21 -30 8 -16
-9 -31 -13 -34 -10 -9 10 4 34 19 34 18 0 18 14 0 29 -10 8 -26 9 -57 2 -24
-6 -62 -10 -84 -10 l-40 0 31 13 c35 16 61 45 29 32 -38 -14 -105 -19 -105 -8
0 7 12 15 26 18 14 4 22 10 17 15 -5 5 -26 2 -48 -5 -22 -8 -42 -12 -45 -9 -3
3 0 8 6 10 6 2 20 10 30 18 17 14 14 15 -36 10 -50 -6 -53 -5 -32 7 30 18 17
29 -27 23 -20 -3 -30 -2 -23 1 21 10 13 24 -13 24 -14 0 -25 5 -25 11 0 7 -11
8 -30 4 -19 -4 -30 -3 -30 4 0 6 -17 11 -37 11 -29 0 -35 3 -23 11 11 7 0 8
-40 4 -48 -5 -53 -4 -37 8 25 21 21 27 -13 20 -25 -5 -29 -3 -24 11 6 15 3 15
-19 5 -14 -6 -33 -9 -42 -5 -15 5 -15 9 -4 23 13 15 11 16 -21 10 -19 -4 -48
-9 -65 -12 l-30 -6 30 15 c29 14 30 14 5 15 -14 0 -50 -6 -80 -14 -30 -8 -59
-15 -64 -15 -19 0 9 18 46 30 44 13 65 37 25 27 -14 -4 -33 -10 -43 -14 -14
-5 -16 -3 -10 12 6 17 1 18 -71 13 -43 -3 -69 -4 -58 -1 43 11 40 26 -4 19
-38 -6 -43 -4 -37 10 6 15 0 16 -54 10 -62 -7 -72 -3 -42 20 15 12 15 13 -10
14 -16 0 -33 -8 -41 -21 -13 -18 -16 -18 -24 -6 -4 9 -26 17 -48 19 l-40 4 33
8 c17 5 32 12 32 17 0 12 -4 12 -88 -8 -56 -13 -75 -14 -84 -5 -9 9 -8 12 6
12 9 0 14 4 11 10 -3 5 -25 7 -50 3 -31 -4 -45 -2 -45 6 0 6 -17 11 -41 11
-24 0 -38 4 -34 10 4 6 -11 10 -37 11 l-43 1 33 9 c54 16 36 22 -45 16 -74 -6
-76 -5 -43 8 33 13 34 14 8 14 -15 1 -50 -4 -78 -10 -64 -14 -85 -6 -40 14 32
14 33 15 10 16 -14 1 -42 -4 -63 -10 -50 -14 -59 -4 -16 16 l34 15 -50 -5
c-46 -4 -48 -3 -31 10 19 14 19 15 -6 15 -15 0 -30 -4 -33 -10 -3 -5 -16 -9
-28 -9 -12 1 -38 -2 -57 -5 l-35 -7 33 18 c44 23 40 32 -13 28 -25 -1 -42 1
-39 6 3 5 -2 9 -10 9 -9 0 -18 -11 -22 -25 -5 -19 -11 -24 -25 -20 -10 3 -28
1 -39 -5 -12 -6 -29 -9 -38 -7 -12 3 -5 9 22 21 52 23 38 32 -20 12 -56 -19
-54 -19 -54 -6 0 5 19 15 43 21 53 15 69 29 35 29 -15 0 -30 5 -33 10 -5 8
-11 8 -19 0 -7 -5 -26 -8 -42 -4 -16 3 -60 -2 -99 -10 -38 -8 -71 -13 -73 -11
-2 2 16 13 40 24 40 20 41 21 11 16 -18 -2 -33 0 -35 7 -3 8 -18 6 -52 -5 -47
-16 -48 -16 -43 3 7 27 -10 26 -18 -1 -5 -14 -12 -18 -23 -13 -10 3 -25 7 -35
8 -9 1 -23 8 -29 14 -19 19 -89 14 -169 -13 -41 -14 -90 -24 -109 -23 -32 3
-28 5 40 27 41 14 67 26 57 28 -14 4 -70 -11 -134 -35 -30 -11 -10 17 25 34
32 16 34 19 15 22 -12 2 -35 -4 -52 -12 -38 -20 -52 -20 -44 0 4 12 0 14 -20
9 -14 -4 -34 -2 -44 3 -13 7 -25 7 -38 -1 -11 -6 -60 -25 -110 -42 -49 -18
-99 -36 -110 -40 -14 -6 -10 3 14 28 41 44 36 59 -7 22 -16 -14 -36 -25 -42
-25 -7 0 -37 -12 -66 -27 -42 -21 -57 -25 -76 -16 -22 10 -22 11 17 31 26 14
33 21 21 22 -11 0 -48 -16 -83 -36 -75 -42 -126 -59 -120 -41 2 7 24 23 50 37
25 14 50 29 54 34 15 14 -71 -7 -127 -31 -110 -49 -109 -49 -75 -12 l30 33
-30 -19 c-16 -10 -39 -24 -50 -32 -45 -30 -47 -7 -3 36 36 35 34 36 -40 17
-30 -8 -60 -12 -67 -10 -8 3 -35 -4 -62 -16 -76 -35 -106 -42 -99 -25 7 19 2
19 -36 -1 -23 -12 -29 -13 -26 -2 3 7 26 23 52 36 63 30 52 41 -13 13 -65 -28
-92 -28 -60 -1 l24 19 -35 -11 c-44 -14 -119 -16 -121 -3 -1 6 14 15 34 20 19
6 39 13 43 18 15 15 -42 6 -85 -13 -24 -11 -44 -20 -46 -20 -7 0 1 36 10 42
27 20 -34 5 -72 -18 -25 -14 -48 -23 -51 -19 -4 4 -1 10 6 12 6 3 12 9 12 14
0 5 -12 4 -27 -1 -27 -10 -27 -9 -8 6 19 15 17 16 -32 12 -54 -3 -59 6 -15 24
16 6 22 12 14 15 -7 3 -28 -2 -46 -11 -40 -19 -50 -20 -40 -4 7 11 -4 10 -51
-7 -14 -5 -11 1 10 19 36 31 23 34 -23 6 -42 -26 -60 -26 -37 0 20 22 14 26
-16 10 -11 -7 -19 -7 -19 -1 0 5 6 11 13 14 6 2 8 8 4 13 -4 4 -16 3 -25 -4
-28 -20 -42 -25 -50 -17 -4 4 -1 10 6 12 18 7 15 21 -5 26 -10 2 -30 -8 -45
-21 -35 -32 -98 -56 -98 -37 0 7 7 18 15 25 8 7 15 17 15 23 0 6 -13 -2 -29
-17 -40 -38 -62 -24 -25 15 18 19 23 29 13 29 -8 0 -37 -25 -65 -55 -48 -52
-83 -72 -71 -41 3 8 1 17 -6 19 -9 3 -9 10 1 27 23 39 2 36 -34 -5 -20 -23
-37 -35 -40 -29 -4 9 -12 9 -32 -1 -51 -24 -73 -28 -66 -11 8 21 -6 20 -21 -1
-15 -20 -35 -9 -36 20 -1 14 -3 16 -6 7 -2 -8 -24 -25 -48 -37 -35 -17 -51
-20 -76 -13 -25 8 -41 4 -80 -16 -27 -13 -49 -20 -49 -14 0 5 -8 10 -17 10
-12 1 2 19 42 55 67 61 64 74 -4 20 -24 -19 -54 -35 -67 -35 -14 0 -24 -6 -24
-15 0 -13 -28 -35 -45 -35 -10 0 17 44 59 94 22 27 34 47 26 44 -8 -2 -35 -32
-60 -66 -43 -58 -69 -80 -56 -47 3 8 1 15 -4 15 -6 0 -10 -6 -10 -14 0 -8 -5
-18 -12 -22 -8 -5 -9 5 -5 39 4 26 2 49 -3 52 -6 4 -10 -7 -10 -24 0 -26 -4
-31 -25 -31 -18 0 -25 5 -25 20 0 15 -7 20 -25 20 -21 0 -25 5 -25 28 0 15 -5
34 -10 42 -7 11 -10 2 -10 -31 0 -25 -3 -49 -7 -52 -14 -14 -33 17 -33 54 0
42 -31 85 -52 73 -6 -4 -23 -9 -37 -11 -14 -2 -45 -6 -68 -9 l-43 -6 0 -65 c0
-55 -2 -64 -16 -59 -9 3 -18 6 -20 6 -2 0 -4 23 -4 50 0 28 -4 50 -10 50 -5 0
-10 -16 -10 -35 0 -24 -5 -35 -15 -35 -8 0 -15 8 -15 19 0 30 -23 43 -47 26
-11 -8 -23 -11 -27 -8 -4 4 -9 -3 -13 -15 -6 -25 -23 -30 -23 -6 0 26 -20 4
-21 -24 -2 -24 -2 -24 -6 -4 -5 25 -23 30 -23 7 0 -20 -10 -19 -27 3 -13 16
-14 15 -10 -5 6 -27 -14 -31 -33 -8 -21 26 -47 18 -52 -15 -5 -36 18 -43 25
-7 3 13 5 6 6 -17 1 -36 -1 -38 -25 -33 -18 3 -24 1 -20 -9 7 -19 -28 -18 -44
1 -7 8 -25 15 -40 15 -15 0 -33 7 -40 15 -17 21 -7 29 19 15 28 -15 27 1 -3
49 -27 42 -73 84 -118 107 -16 8 -26 19 -23 24 3 5 -7 18 -23 27 -16 10 -27
24 -25 30 3 7 -7 18 -21 24 -14 7 -26 16 -26 20 0 9 -107 59 -126 59 -8 0 -14
5 -14 10 0 14 -61 50 -84 50 -11 0 -30 10 -43 22 -19 18 -34 21 -88 20 -44 0
-63 3 -59 10 5 7 -11 9 -50 6 -31 -3 -53 -2 -50 1 3 3 -20 11 -53 17 -54 10
-56 12 -33 22 21 9 17 10 -25 7 -165 -14 -205 -14 -205 -4 0 7 -10 9 -26 5
-19 -5 -24 -4 -18 5 5 8 2 10 -8 7 -8 -4 -41 -9 -74 -13 -32 -3 -78 -13 -101
-21 -24 -9 -47 -13 -52 -10 -5 4 -74 -25 -153 -63 -79 -38 -155 -72 -170 -75
-14 -3 -49 -24 -76 -45 l-50 -40 -41 30 c-23 16 -41 36 -41 45 0 9 -6 14 -12
11 -14 -4 -15 -37 -3 -76 7 -21 6 -22 -14 -12 -11 7 -21 21 -21 31 0 11 -4 20
-10 20 -13 0 -13 -16 1 -41 18 -35 4 -42 -28 -15 l-32 27 -17 -27 c-10 -15
-20 -53 -22 -86 -4 -48 -7 -58 -20 -53 -12 4 -13 -1 -9 -25 9 -45 -9 -36 -25
12 -28 82 -55 50 -37 -43 6 -31 9 -63 6 -71 -5 -13 -9 -5 -67 135 -31 74 -51
92 -58 53 -2 -9 -1 -25 3 -34 5 -13 8 -14 14 -3 7 11 12 8 22 -10 20 -37 39
-128 28 -135 -18 -11 -39 18 -39 52 0 18 -5 36 -11 40 -7 4 -10 -16 -7 -65 1
-39 1 -71 -2 -71 -3 0 -13 8 -21 19 -12 13 -18 45 -21 107 -5 102 -14 127 -35
99 -17 -24 -17 -35 2 -35 12 0 15 -14 15 -67 0 -65 0 -66 -20 -48 -11 10 -20
26 -20 37 0 23 -9 23 -25 1 -12 -16 -14 -14 -23 17 -5 19 -6 40 -2 45 4 6 -1
19 -11 29 -21 21 -24 11 -10 -27 11 -29 4 -42 -15 -26 -16 13 -3 -48 26 -121
11 -28 24 -69 29 -91 9 -38 8 -39 -18 -39 -15 0 -31 8 -39 20 -23 37 -30 20
-12 -27 9 -27 20 -66 24 -88 l7 -40 -26 28 c-14 15 -25 39 -25 53 0 13 -4 24
-10 24 -5 0 -17 12 -25 28 -16 27 -16 8 0 -30 4 -10 3 -18 -2 -18 -6 0 -22 24
-38 53 -36 67 -66 109 -72 103 -3 -3 13 -39 36 -81 23 -41 37 -75 32 -75 -5 0
-34 28 -65 62 -31 34 -56 55 -56 48 0 -7 36 -48 80 -91 44 -42 80 -84 80 -93
0 -8 9 -20 19 -26 40 -21 66 -60 40 -60 -14 0 -118 91 -182 160 -78 83 -139
140 -150 140 -5 0 32 -43 82 -95 50 -53 91 -100 91 -105 0 -18 -18 -10 -69 30
-57 45 -61 47 -61 23 0 -9 25 -40 56 -69 32 -29 54 -57 50 -63 -11 -17 -21
-14 -56 15 -17 15 -33 24 -36 21 -3 -2 15 -22 40 -42 26 -21 46 -41 46 -46 0
-4 -42 12 -94 37 -72 35 -102 45 -132 42 l-39 -3 43 -13 c29 -9 42 -18 39 -26
-4 -9 9 -20 31 -30 20 -9 48 -26 62 -37 l25 -20 -34 7 c-19 3 -62 19 -96 34
-33 15 -72 31 -85 35 -22 7 -23 6 -12 -8 8 -9 43 -26 79 -38 78 -26 69 -40
-25 -38 -105 3 -79 -8 38 -15 110 -7 170 -20 170 -37 0 -4 -7 -6 -15 -3 -8 4
-15 1 -15 -5 0 -6 15 -11 33 -11 17 0 39 -5 47 -10 27 -18 -113 -11 -225 11
-59 11 -112 18 -118 15 -7 -2 3 -7 21 -11 45 -10 40 -23 -10 -28 -24 -2 11 -4
78 -5 112 -2 175 -12 198 -33 5 -4 -61 -5 -146 -2 -112 4 -157 3 -162 -6 -5
-7 1 -11 16 -12 169 -6 339 -16 344 -22 12 -12 -1 -17 -55 -24 -29 -3 -48 -9
-44 -13 11 -10 114 -19 108 -10 -3 5 2 11 11 14 23 9 24 8 24 -19 0 -18 5 -25
19 -25 10 0 24 -7 31 -15 10 -13 9 -15 -8 -15 -12 0 -24 5 -27 10 -3 6 -14 10
-23 10 -16 -1 -15 -2 1 -14 16 -12 16 -14 1 -20 -8 -3 -24 -6 -35 -6 -12 0
-19 -7 -19 -19 0 -15 11 -19 67 -24 82 -8 100 -21 47 -36 -22 -6 -47 -11 -56
-11 -10 0 -18 -4 -18 -9 0 -5 52 -9 116 -10 64 -1 120 -4 125 -7 5 -3 9 -13 9
-22 0 -28 -44 -122 -57 -122 -7 0 -18 -10 -24 -22 -8 -14 -14 -18 -17 -10 -8
26 -32 12 -32 -20 0 -18 -14 -62 -30 -96 -17 -35 -30 -74 -30 -85 1 -26 22
-107 32 -123 9 -13 -38 -26 -68 -18 -12 3 -24 -3 -32 -16 -9 -15 -9 -20 0 -20
6 0 0 -12 -14 -27 -33 -35 -48 -73 -48 -121 l0 -37 19 40 c20 45 68 105 83
105 5 0 7 -12 3 -30 -7 -30 7 -42 19 -17 4 6 4 1 0 -13 -14 -64 -16 -111 -4
-125 10 -12 7 -20 -14 -46 -34 -40 -34 -75 -2 -83 l24 -6 -21 -50 c-20 -47
-20 -52 -5 -78 8 -15 18 -47 22 -71 9 -57 15 -66 31 -44 11 14 16 15 26 6 10
-10 18 -8 36 9 22 21 23 21 23 1 0 -11 3 -23 7 -27 4 -4 6 -36 5 -71 -2 -38 3
-86 12 -117 18 -62 75 -134 122 -154 22 -9 33 -22 37 -43 9 -45 69 -105 136
-135 124 -56 305 -58 447 -5 32 12 68 21 79 21 11 -1 43 -2 70 -2 l50 0 -28
-16 c-35 -19 -26 -35 15 -27 l31 6 -6 -61 c-5 -61 5 -93 16 -50 5 17 9 19 21
9 12 -10 15 -9 18 6 3 13 12 2 31 -34 29 -55 54 -72 43 -28 -5 19 -3 23 8 19
15 -6 26 -29 35 -70 0 -4 12 1 26 10 25 16 27 16 45 -6 26 -31 26 -5 -1 38
-11 19 -19 42 -17 51 2 12 16 -4 39 -47 31 -57 39 -65 65 -65 18 0 28 5 27 13
-4 18 12 15 32 -8 16 -18 55 -28 55 -15 0 3 -9 23 -20 45 -35 69 -23 74 34 13
53 -57 86 -71 46 -20 -38 47 -20 51 36 6 22 -17 47 -35 57 -41 18 -9 18 -8 2
16 -18 27 -9 36 13 14 26 -26 11 14 -20 53 -50 62 -22 60 35 -3 29 -31 63 -60
77 -63 19 -6 11 5 -32 45 -32 28 -58 56 -58 61 0 18 23 8 62 -27 44 -40 65
-38 27 2 l-24 26 35 -7 c35 -7 77 -35 52 -35 -21 0 -13 -16 15 -29 21 -10 24
-14 13 -21 -8 -5 -12 -11 -10 -13 55 -44 100 -50 100 -12 0 18 5 25 20 25 11
0 20 -4 20 -10 0 -5 12 -17 26 -27 25 -16 27 -16 43 5 16 22 18 22 49 7 18 -9
32 -24 33 -33 0 -14 2 -14 8 2 6 17 10 15 34 -14 15 -17 27 -42 27 -56 0 -13
5 -24 11 -24 5 0 9 -8 7 -17 -1 -10 1 -24 5 -30 5 -7 3 -30 -2 -50 -6 -21 -11
-47 -11 -58 1 -19 1 -19 14 -2 7 9 18 17 25 17 18 0 13 -29 -13 -63 -13 -18
-28 -47 -35 -66 -11 -34 -11 -34 9 -16 11 10 20 24 20 30 0 7 8 19 17 26 15
13 16 12 8 -11 -4 -14 -9 -41 -10 -60 -1 -19 -9 -51 -18 -70 -8 -19 -18 -53
-22 -74 -7 -34 -6 -38 9 -33 10 4 16 1 16 -8 0 -8 5 -15 11 -15 5 0 7 -4 4
-10 -3 -5 -15 -10 -26 -10 -22 0 -25 -15 -4 -24 8 -3 29 7 47 22 27 23 31 24
24 7 -4 -11 -13 -32 -18 -47 -10 -27 -28 -38 -28 -17 0 5 -5 7 -11 4 -7 -5 -5
-13 5 -24 14 -15 14 -19 -1 -34 -23 -23 -8 -34 17 -12 20 18 20 17 20 -8 0
-15 -13 -41 -28 -59 -29 -33 -50 -98 -32 -98 12 0 50 50 50 66 0 8 10 14 24
14 13 0 31 3 40 6 27 10 18 -11 -31 -77 -26 -35 -57 -82 -70 -104 -71 -125
-74 -139 -21 -88 15 15 28 21 28 14 0 -23 19 -1 41 47 24 53 37 42 18 -15 -23
-69 -79 -178 -102 -196 l-22 -18 34 6 c25 5 32 4 26 -5 -6 -9 -3 -9 13 -1 29
16 32 14 23 -11 -8 -23 -63 -45 -69 -28 -2 6 -17 1 -33 -11 -32 -23 -30 -46 2
-28 44 23 50 5 14 -40 -19 -24 -33 -47 -29 -50 3 -3 12 3 20 13 11 15 16 17
28 7 12 -10 19 -8 37 13 24 27 36 26 48 -7 6 -16 -5 -41 -51 -110 -45 -70 -58
-98 -58 -128 0 -49 14 -57 36 -19 17 28 44 48 44 32 0 -4 -11 -24 -25 -44 -14
-20 -25 -44 -25 -52 0 -9 -7 -16 -15 -16 -19 0 -19 -19 0 -26 24 -10 17 -24
-11 -24 -23 0 -25 -2 -13 -16 11 -13 11 -17 -3 -25 -13 -7 -14 -16 -6 -55 9
-40 8 -48 -10 -64 -11 -11 -23 -29 -27 -40 -4 -11 -11 -18 -16 -15 -11 8 -12
-6 0 -24 6 -9 18 -11 40 -6 18 4 31 3 31 -3 0 -15 -25 -31 -58 -38 -18 -4 -32
-13 -32 -20 0 -8 -9 -14 -19 -14 -23 0 -69 -35 -59 -45 4 -4 28 -10 54 -13
l47 -5 -34 -18 c-49 -26 -63 -23 -87 19 -12 20 -22 31 -22 25 0 -7 -7 -13 -16
-13 -14 0 -14 -3 -4 -15 10 -12 10 -15 0 -15 -7 0 -10 -7 -6 -15 3 -8 9 -22
12 -30 5 -12 -3 -15 -39 -15 -51 0 -79 -8 -72 -20 3 -5 -4 -11 -15 -15 -11 -3
-20 -14 -20 -23 0 -10 -10 -22 -21 -27 -33 -15 -19 -30 24 -27 20 2 37 -1 37
-7 0 -15 -14 -20 -68 -25 -62 -4 -77 -12 -61 -32 9 -11 8 -15 -4 -20 -9 -3
-21 -3 -27 1 -6 3 -10 -3 -10 -14 0 -12 5 -21 10 -21 6 0 10 -5 10 -10 0 -7
-6 -7 -19 0 -27 14 -34 13 -27 -5 3 -9 -3 -19 -16 -26 -33 -18 -54 -48 -78
-109 -30 -77 -50 -107 -61 -89 -15 25 -33 -4 -19 -31 10 -19 8 -25 -19 -47
-17 -14 -31 -30 -31 -36 0 -5 -11 -22 -25 -39 -14 -16 -25 -37 -25 -46 0 -9
-12 -29 -27 -45 -22 -22 -28 -38 -28 -73 -1 -39 -5 -48 -48 -88 -51 -49 -61
-72 -24 -60 22 6 22 6 -3 -22 -14 -16 -28 -30 -32 -32 -4 -2 -4 -10 -1 -18 4
-11 0 -15 -13 -12 -13 2 -19 -3 -19 -16 0 -11 -6 -21 -13 -24 -6 -2 -12 -15
-12 -28 0 -13 -4 -24 -9 -24 -14 0 -53 -68 -46 -80 3 -5 -6 -12 -20 -16 -14
-3 -25 -10 -25 -15 0 -5 -11 -14 -24 -19 -13 -5 -27 -19 -31 -30 -4 -12 -25
-38 -46 -57 -29 -26 -36 -38 -27 -44 16 -10 -28 -59 -87 -98 -29 -19 -40 -33
-40 -51 0 -38 -51 -98 -79 -93 -16 3 -25 -2 -33 -20 -7 -14 -26 -30 -45 -36
-19 -7 -48 -31 -68 -56 -19 -25 -39 -45 -45 -45 -5 0 -18 -9 -30 -20 -46 -45
-126 -110 -135 -110 -6 0 -9 -3 -8 -7 4 -11 -34 -53 -47 -53 -6 0 -35 -18 -65
-40 -29 -22 -68 -43 -87 -46 -18 -3 -33 -10 -33 -14 0 -4 -17 -10 -38 -14 -22
-3 -60 -15 -87 -27 -26 -12 -62 -21 -81 -22 -31 -1 -39 -17 -8 -17 8 0 14 -4
14 -10 0 -12 2 -12 -37 -1 -43 12 -52 -1 -11 -15 l33 -12 -39 -1 c-26 -1 -43
5 -52 17 -11 14 -15 14 -22 4 -7 -11 -18 -11 -52 -2 -43 12 -66 6 -40 -10 8
-6 23 -10 32 -10 9 0 19 -4 22 -8 3 -4 -43 2 -102 14 -59 12 -108 19 -110 15
-1 -4 -20 -6 -42 -5 -22 1 -40 -2 -40 -7 0 -4 -19 1 -43 11 -51 24 -68 25 -61
5 4 -8 4 -15 2 -15 -17 0 -74 26 -88 40 -27 27 -125 60 -179 60 -34 0 -56 -6
-75 -21 l-26 -20 -55 27 c-68 33 -114 29 -177 -14 -23 -16 -77 -46 -118 -67
-113 -56 -239 -143 -261 -178 -27 -45 -25 -60 9 -54 24 4 25 3 8 -7 -53 -31
-87 -72 -93 -111 -8 -59 17 -78 102 -77 l65 1 64 -66 c75 -76 64 -76 251 -17
148 47 257 57 485 47 168 -7 185 -10 188 -27 2 -10 -9 -32 -26 -50 -63 -67
-65 -110 -6 -167 31 -30 41 -34 83 -32 26 1 86 16 132 33 46 17 138 44 203 61
66 17 136 37 155 46 20 8 64 21 98 28 34 8 85 24 115 37 61 28 138 56 187 68
18 5 48 24 66 44 31 34 55 46 55 28 0 -4 -5 -13 -12 -20 -9 -9 -8 -12 5 -12
10 0 20 7 23 15 4 8 15 15 27 15 11 0 31 10 44 22 20 19 25 20 33 8 8 -13 12
-12 25 7 10 14 21 19 36 16 18 -5 20 -2 17 28 -2 26 1 34 14 37 14 3 18 -3 18
-22 0 -31 20 -35 27 -6 3 11 14 20 24 20 37 0 89 33 89 56 0 12 9 32 20 45
l19 24 1 -27 c0 -16 5 -28 11 -28 6 0 9 9 6 20 -6 23 11 27 19 5 4 -8 10 -12
15 -9 13 8 11 54 -2 54 -6 0 -9 6 -6 13 2 6 10 11 16 9 6 -1 14 5 17 13 8 20
24 9 24 -16 0 -33 44 -21 48 13 3 24 7 27 31 22 24 -5 30 -2 42 28 7 18 13 50
13 70 -2 47 22 52 38 7 10 -30 10 -30 29 -10 11 12 19 35 19 56 0 24 4 35 15
35 10 0 15 -11 15 -35 0 -39 15 -47 23 -13 5 18 8 19 21 8 14 -11 16 -9 16 13
0 19 4 25 15 21 11 -5 15 2 15 27 0 31 3 34 30 36 20 1 30 -2 30 -11 0 -9 7
-12 20 -9 17 5 18 7 5 20 -22 22 -7 38 16 17 18 -16 19 -16 19 9 0 20 5 27 20
27 15 0 20 7 20 29 0 42 16 47 29 9 11 -31 11 -31 31 -12 11 10 29 28 40 38
11 11 20 33 21 50 1 17 4 42 9 56 8 28 17 15 22 -33 5 -49 23 -24 19 27 -3 53
12 57 22 6 4 -16 10 -30 15 -30 5 0 36 18 69 39 64 41 92 88 78 131 -4 13 -2
20 6 20 7 0 22 11 34 24 18 21 22 22 45 10 14 -8 19 -14 13 -14 -7 0 -13 -9
-13 -20 0 -20 1 -20 25 -3 13 10 25 25 25 34 0 9 9 27 20 40 16 20 19 21 20 7
0 -10 4 -18 8 -18 14 0 42 35 42 52 0 20 31 33 41 17 8 -14 29 19 29 46 0 12
6 15 21 10 27 -9 39 8 39 59 0 31 3 37 12 28 18 -18 28 -15 28 8 0 30 18 24
22 -7 l3 -28 32 33 c18 19 37 31 43 27 6 -4 10 6 10 26 0 26 2 29 14 20 19
-16 41 20 24 37 -9 9 -5 12 15 12 25 0 27 2 17 21 -16 29 -7 34 24 13 27 -17
44 -14 31 5 -3 6 -15 11 -26 11 -14 0 -19 7 -19 28 0 15 4 33 9 41 7 11 12 6
18 -20 7 -27 14 -34 34 -34 15 0 28 8 34 23 5 12 13 22 17 22 4 0 17 18 28 40
12 23 28 44 36 47 9 3 12 12 9 24 -4 13 -1 19 9 19 11 0 16 10 16 31 0 28 2
30 17 18 15 -13 16 -10 10 28 -7 44 10 73 20 34 6 -24 23 -28 23 -6 0 8 4 15
9 15 6 0 7 15 5 33 -3 17 0 46 6 62 l12 30 13 -29 c12 -29 13 -29 24 -8 6 11
11 30 11 41 0 44 24 69 33 34 3 -11 20 17 47 75 41 87 60 111 60 77 0 -20 20
-18 48 4 27 23 28 31 3 24 -24 -6 -34 21 -22 62 l9 30 7 -32 c10 -42 28 -32
19 11 -5 28 -2 34 16 39 16 4 24 1 27 -14 7 -26 21 -24 26 4 l4 22 8 -22 c11
-34 29 -28 22 7 -5 20 -3 28 6 25 12 -5 81 105 83 134 2 15 3 21 9 46 1 6 3
16 3 23 1 6 13 12 27 12 32 0 32 17 -1 51 -28 29 -27 66 1 55 23 -8 53 22 47
48 -4 18 -1 17 18 -7 l23 -29 13 32 c8 17 20 73 27 123 14 90 14 91 25 57 10
-29 11 -17 6 68 -3 56 -3 102 -1 102 3 0 15 -17 27 -37 26 -44 39 -30 16 16
-11 21 -13 32 -5 37 6 3 9 15 6 25 -7 26 7 24 27 -4 17 -22 17 -22 12 11 -3
18 -17 49 -31 70 -44 64 -26 86 25 30 23 -25 32 -30 42 -20 12 12 11 14 -48
149 -17 39 -1 45 19 7 9 -18 17 -23 21 -15 4 6 -2 26 -13 45 -26 42 -27 54 -1
31 11 -10 20 -13 20 -7 0 15 -36 52 -50 52 -5 0 -10 4 -10 9 0 14 37 20 49 8
21 -21 12 12 -19 66 -40 71 -37 91 5 42 36 -42 46 -42 19 0 -15 23 -15 25 0
25 9 0 19 -7 22 -15 11 -27 22 -16 20 18 -2 17 -18 55 -36 84 -17 28 -30 59
-28 70 4 19 7 17 71 -62 l25 -30 -2 31 c0 16 -12 51 -25 76 -16 30 -22 51 -17
64 7 15 12 9 26 -33 19 -53 50 -107 50 -86 0 6 -7 30 -15 53 -17 48 -21 124
-5 83 14 -35 23 -27 16 12 -11 56 25 40 39 -18 9 -33 23 -43 38 -28 19 19 24
13 30 -34 4 -25 14 -59 23 -76 10 -20 12 -35 6 -41 -13 -13 -2 -58 14 -58 8 0
14 9 14 19 0 11 5 21 11 23 7 2 7 18 -2 51 -12 49 -6 73 12 47 5 -8 12 -28 16
-43 4 -18 11 -26 19 -23 11 4 14 -6 15 -42 0 -72 19 -115 57 -131 29 -13 32
-19 32 -57 0 -51 16 -98 30 -89 7 4 8 24 5 50 -8 51 8 67 25 26 7 -19 9 -49 5
-84 -5 -36 -3 -57 4 -61 12 -8 15 16 12 109 -2 57 -1 59 13 35 10 -17 15 -53
16 -108 0 -64 3 -84 15 -88 8 -4 15 -13 15 -21 0 -8 5 -11 10 -8 6 3 10 23 10
43 0 43 13 68 29 58 14 -9 15 -66 1 -66 -5 0 -10 -22 -10 -50 0 -40 3 -48 15
-44 10 4 15 0 15 -11 0 -9 4 -13 10 -10 5 3 7 19 3 35 -3 17 -1 30 4 30 18 0
23 -83 7 -101 -18 -20 -18 -29 1 -29 8 0 15 -9 15 -20 0 -11 7 -23 15 -26 9
-4 15 -20 16 -43 1 -30 3 -27 10 19 9 50 28 80 52 80 10 0 -1 -62 -13 -70 -4
-3 -10 -39 -14 -80 -4 -41 -5 -72 -1 -68 6 5 12 27 14 51 1 4 6 7 12 7 9 0 10
-22 5 -76 -5 -69 6 -148 24 -164 3 -3 5 -16 5 -29 0 -13 6 -26 13 -28 6 -3 12
2 12 11 0 9 8 16 20 16 24 0 26 -20 5 -60 -14 -27 -14 -30 1 -30 11 0 14 -5 9
-17 -12 -32 -10 -38 8 -35 16 3 17 -2 11 -49 -8 -59 11 -63 22 -4 4 21 13 37
25 40 11 4 19 16 19 28 0 12 4 28 9 36 18 28 22 -10 9 -80 -9 -51 -18 -74 -32
-81 -19 -10 -19 -11 -2 -24 13 -9 17 -22 14 -43 -4 -25 -1 -31 13 -31 12 0 21
-12 28 -37 14 -48 14 -73 1 -73 -19 0 -8 -132 21 -255 16 -66 29 -128 29 -138
0 -9 7 -20 15 -23 8 -4 15 -18 15 -34 0 -15 9 -39 21 -54 12 -15 18 -33 14
-45 -4 -13 0 -20 15 -24 11 -3 20 -13 20 -22 0 -9 -4 -13 -10 -10 -22 14 -8
-23 25 -64 37 -47 44 -67 20 -57 -31 12 -10 -44 39 -103 36 -43 48 -91 22 -91
-9 0 -12 -8 -8 -25 2 -14 8 -25 13 -25 5 0 9 -11 9 -25 0 -16 12 -34 35 -52
40 -32 44 -44 14 -36 -19 5 -20 4 -10 -15 6 -11 16 -24 21 -27 6 -3 10 -22 10
-41 0 -23 6 -38 20 -46 11 -7 20 -20 20 -30 0 -9 5 -20 10 -23 6 -3 10 -15 10
-27 0 -17 2 -18 15 -8 12 10 15 9 15 -8 0 -13 -9 -22 -25 -26 -23 -6 -24 -8
-11 -21 8 -8 21 -15 29 -15 8 0 17 -14 20 -33 4 -17 9 -43 13 -56 6 -20 4 -23
-9 -18 -25 9 -21 -10 17 -90 19 -39 31 -75 26 -79 -4 -5 -4 -44 1 -88 4 -44 4
-89 -1 -102 -7 -19 -6 -24 5 -24 10 0 15 -10 15 -30 0 -20 -5 -30 -15 -30 -19
0 -19 -14 1 -34 13 -14 14 -24 5 -67 -14 -65 -14 -71 4 -95 15 -18 15 -18 13
11 -2 22 2 30 16 33 17 4 17 -1 11 -50 -4 -29 -8 -114 -9 -189 -1 -103 -5
-140 -16 -153 -8 -10 -15 -36 -15 -57 -1 -31 3 -39 17 -39 11 0 15 -5 12 -15
-4 -8 -16 -15 -28 -15 -20 -1 -20 -2 -3 -14 21 -16 22 -26 2 -26 -17 0 -19
-12 -5 -26 7 -7 -7 -17 -41 -32 -40 -16 -50 -18 -45 -6 4 11 0 11 -19 -3 -16
-12 -22 -24 -18 -37 4 -15 1 -18 -16 -13 -15 3 -24 0 -28 -10 -4 -10 -14 -13
-34 -9 -22 4 -29 2 -29 -10 0 -16 -30 -17 -80 -3 -8 2 -14 -2 -12 -9 1 -9 -5
-11 -23 -6 -19 5 -25 2 -25 -10 0 -19 -21 -21 -38 -4 -10 10 -19 8 -45 -7 -17
-10 -36 -24 -42 -31 -5 -6 -36 -31 -69 -54 -33 -24 -63 -55 -70 -71 -6 -16
-17 -29 -24 -29 -9 0 -12 -6 -8 -16 5 -13 2 -15 -16 -9 -13 4 -53 9 -89 12
-81 6 -124 -12 -145 -63 -8 -20 -31 -45 -55 -60 -31 -19 -47 -40 -65 -82 -14
-31 -38 -84 -55 -118 -29 -57 -30 -62 -16 -95 26 -63 36 -64 121 -20 42 22 76
35 76 29 0 -6 -19 -36 -42 -66 -37 -48 -43 -52 -46 -34 -4 29 -22 18 -22 -12
0 -26 58 -84 110 -111 31 -16 33 -16 54 4 22 21 174 111 187 111 19 0 -10 -49
-58 -96 -51 -52 -66 -78 -40 -72 6 1 26 -12 44 -30 17 -18 40 -32 51 -32 11 0
73 26 138 58 126 62 192 88 201 78 3 -3 -13 -26 -36 -51 -47 -51 -49 -62 -21
-98 54 -68 166 -25 329 128 36 34 80 70 98 79 17 8 61 41 97 71 35 30 67 55
71 55 8 0 98 62 106 73 3 5 28 19 55 33 27 13 70 41 96 61 48 39 136 164 171
243 11 25 28 55 38 68 9 12 20 41 24 63 4 22 13 53 21 67 16 31 18 78 4 87
-14 9 -12 45 3 45 16 0 16 95 -1 112 -17 17 -15 31 4 24 13 -5 15 4 12 69 -2
44 1 76 7 78 6 2 5 14 -3 32 -10 21 -10 30 -1 35 7 5 8 16 4 30 -4 14 -3 20 3
16 20 -12 20 58 1 83 -11 13 -19 29 -19 35 0 6 7 3 14 -7 8 -10 17 -14 20 -8
3 5 -6 23 -20 40 -14 17 -23 37 -21 43 4 10 6 10 6 0 1 -10 5 -10 21 0 24 15
26 36 5 44 -10 4 -12 10 -7 18 16 20 19 104 9 225 -5 63 -3 76 11 87 16 11 15
15 -2 50 -11 25 -14 40 -7 42 18 6 12 27 -14 52 -14 13 -25 33 -25 44 1 19 3
18 25 -9 21 -26 25 -27 31 -11 4 10 -1 44 -10 77 -23 83 -22 102 6 94 15 -6
20 -4 15 6 -20 50 -20 52 -9 45 9 -5 13 8 14 46 1 29 2 69 3 88 2 57 15 152
27 202 9 36 9 57 0 85 -10 33 -10 40 5 50 18 14 25 96 12 145 -4 15 -4 30 0
32 4 3 2 47 -4 98 -7 55 -8 94 -3 96 5 2 2 15 -7 29 -13 19 -14 27 -4 39 8 10
9 17 0 28 -6 7 -9 20 -5 29 3 10 -2 20 -15 27 -12 6 -21 18 -21 27 0 14 2 14
15 -3 14 -18 14 -18 15 6 0 44 -30 154 -49 180 -34 47 -39 97 -5 52 12 -15 13
-13 7 18 -3 19 -17 66 -29 103 -22 65 -22 94 0 109 7 5 3 14 -10 27 -15 14
-23 37 -28 83 -4 34 -10 73 -13 86 -10 40 16 23 27 -18 6 -22 14 -40 18 -40
12 0 2 149 -14 211 -18 73 -18 108 1 129 18 20 20 53 7 128 -7 43 -6 52 6 52
12 0 13 8 7 37 -4 21 -9 56 -10 78 -1 22 -11 59 -23 82 -26 50 -27 60 -7 43
12 -10 15 -9 15 7 0 20 -33 74 -77 127 -23 28 -24 51 -1 28 16 -16 28 -15 28
1 0 17 -32 47 -49 47 -18 0 -80 69 -67 73 6 3 -2 8 -18 12 -31 8 -75 45 -54
45 7 0 32 -5 56 -10 24 -6 47 -8 53 -5 10 7 -114 136 -148 154 -15 7 -23 21
-23 36 0 14 -4 25 -10 25 -5 0 -7 7 -4 15 4 10 0 15 -14 15 -11 0 -22 -5 -24
-11 -3 -8 -14 -6 -36 5 -44 23 -40 28 13 20 27 -4 45 -2 45 3 0 13 -34 43 -48
43 -7 0 -12 11 -12 24 0 25 -41 66 -67 66 -11 0 -11 4 -3 20 9 17 8 20 -14 20
-35 0 -56 10 -56 26 0 9 11 14 27 14 l26 0 -22 24 c-13 14 -28 23 -35 20 -6
-2 -20 2 -31 10 -18 13 -18 14 3 20 29 10 28 22 -5 55 -20 19 -27 35 -25 54 3
24 0 27 -25 27 -16 0 -38 6 -48 14 -16 12 -13 13 32 9 44 -5 52 -3 62 16 8 15
21 21 45 21 18 0 35 3 39 6 3 3 28 7 55 8 27 1 56 7 65 14 15 13 177 24 177
13 0 -6 115 -31 140 -31 6 0 8 5 5 10 -8 13 -10 13 49 -5 52 -16 118 -20 130
-8 4 4 26 6 49 4 58 -4 43 7 -65 45 -55 19 -82 33 -67 33 14 1 59 -10 100 -24
41 -14 88 -24 104 -23 23 2 9 9 -55 26 -111 30 -118 33 -102 39 7 3 51 -7 96
-21 86 -27 156 -34 156 -16 0 6 14 10 30 10 23 0 30 5 30 19 0 15 11 19 70 24
77 6 100 15 79 27 -8 6 1 11 27 15 21 4 61 14 87 22 39 12 48 19 44 34 -4 15
3 19 52 24 31 4 64 9 74 12 29 8 8 23 -23 16 -19 -3 -30 -1 -30 6 0 7 26 12
73 12 39 1 60 4 45 6 -53 8 -20 33 44 33 34 0 46 17 16 23 -13 2 -4 5 20 6 39
1 55 -10 32 -24 -5 -3 -15 -15 -21 -26 -10 -19 -9 -20 18 -6 15 8 54 23 86 33
31 10 57 23 57 30 0 16 56 44 87 44 14 0 21 4 18 10 -3 6 -30 10 -58 11 -85 1
-104 17 -21 18 88 1 134 -7 134 -25 0 -10 8 -10 43 1 23 7 55 16 71 20 43 9
14 25 -48 25 -89 0 -40 11 64 15 75 2 106 7 119 19 19 18 37 21 43 8 2 -5 20
-7 40 -4 23 2 35 8 31 15 -4 7 8 8 37 4 24 -3 51 -2 59 2 9 5 51 11 94 15 60
5 77 4 71 -5 -5 -9 1 -10 22 -5 l28 7 -19 -21 c-11 -12 -54 -44 -95 -71 -74
-47 -133 -99 -114 -99 6 0 15 5 21 11 6 6 22 12 37 13 15 2 35 11 45 20 25 23
38 20 16 -4 -10 -11 -43 -34 -72 -51 -29 -17 -58 -39 -63 -50 -14 -25 2 -24
25 1 10 11 25 20 33 20 11 0 8 -8 -11 -28 -15 -15 -27 -33 -27 -38 0 -6 -15
-17 -33 -26 -42 -20 -94 -64 -109 -92 -11 -21 -11 -21 11 -2 11 11 24 16 29
12 4 -5 -3 -15 -16 -25 -51 -36 -77 -60 -71 -65 3 -4 18 3 33 15 15 11 33 18
42 15 22 -8 9 -23 -39 -44 -53 -24 -145 -107 -107 -96 24 6 24 6 8 -13 -10
-11 -18 -24 -18 -30 0 -6 -19 -30 -42 -55 -112 -115 -152 -181 -79 -127 16 12
34 18 40 15 6 -4 20 -2 32 5 21 11 21 11 3 -14 -23 -31 -102 -79 -169 -103
-60 -21 -78 -34 -46 -34 20 0 21 -2 11 -15 -7 -8 -21 -15 -31 -15 -11 0 -19
-4 -19 -9 0 -5 -12 -23 -26 -40 -18 -22 -22 -31 -11 -31 8 0 20 7 27 15 7 8
17 15 23 15 6 0 -10 -22 -37 -49 -27 -27 -46 -53 -43 -58 3 -5 -3 -17 -14 -27
-37 -31 -11 -29 40 3 31 20 59 31 73 28 19 -3 13 -8 -32 -29 -30 -14 -64 -35
-74 -47 -20 -22 -9 -30 12 -9 6 6 14 9 17 6 9 -9 -77 -117 -163 -206 -45 -45
-84 -92 -88 -105 -4 -12 -25 -38 -47 -58 -36 -32 -41 -40 -38 -75 1 -21 3
-140 4 -264 2 -179 5 -235 19 -275 13 -39 30 -194 29 -260 -1 -48 -20 -225
-25 -233 -3 -6 0 -15 9 -19 8 -5 18 -30 21 -58 6 -42 5 -48 -9 -42 -12 5 -19
-3 -27 -31 -13 -47 -13 -75 0 -67 6 3 10 18 10 33 0 30 15 60 25 50 8 -8 -12
-111 -31 -155 -11 -28 -11 -33 2 -33 17 0 16 3 4 -38 -8 -29 -7 -32 5 -22 13
11 15 7 14 -21 0 -19 -8 -65 -18 -102 -15 -56 -15 -69 -4 -75 11 -6 11 -15 2
-41 -16 -45 3 -65 24 -25 26 50 33 2 9 -63 -15 -40 -18 -62 -11 -74 5 -10 9
-27 9 -38 0 -11 9 -29 21 -40 12 -11 19 -23 16 -28 -9 -14 21 -73 37 -73 11 0
15 -10 15 -37 0 -57 12 -137 23 -150 6 -8 5 -19 -2 -33 -10 -18 -9 -22 9 -27
23 -6 27 -23 10 -40 -13 -13 5 -54 23 -50 7 1 14 -7 16 -17 3 -15 0 -18 -17
-13 -19 5 -21 2 -15 -16 12 -40 35 -69 51 -63 25 10 36 -5 14 -21 -12 -8 -26
-11 -31 -8 -16 10 -12 -11 5 -25 9 -7 26 -9 45 -5 26 6 30 4 30 -14 0 -14 -5
-19 -15 -15 -10 4 -15 0 -15 -10 0 -14 -4 -15 -20 -6 -24 13 -25 4 -6 -60 9
-32 19 -46 34 -48 23 -4 38 -42 16 -42 -9 0 -14 -12 -14 -35 0 -19 5 -35 10
-35 6 0 10 6 10 13 0 7 7 4 15 -7 20 -26 19 -40 -1 -32 -11 4 -15 2 -11 -8 3
-8 9 -32 13 -53 3 -21 12 -48 20 -60 8 -12 14 -36 14 -53 0 -27 3 -30 20 -25
29 9 36 -19 11 -44 -28 -28 -27 -36 9 -61 35 -25 39 -40 10 -40 -11 0 -20 -4
-20 -8 0 -15 22 -30 36 -25 21 8 17 -7 -8 -26 -24 -20 -16 -45 13 -38 14 4 19
0 19 -15 0 -15 -5 -18 -20 -13 -11 3 -20 2 -20 -3 0 -5 9 -12 20 -15 11 -3 20
-13 20 -22 0 -12 -5 -15 -20 -10 -11 3 -20 2 -20 -3 0 -14 52 -47 68 -44 9 2
12 -4 10 -15 -2 -10 -12 -18 -22 -18 -30 0 -30 -22 1 -39 19 -11 23 -15 11
-16 -22 0 -35 -45 -18 -65 6 -8 9 -19 6 -24 -4 -5 1 -14 10 -19 15 -8 15 -12
-1 -42 -9 -18 -14 -41 -12 -52 4 -14 -3 -24 -24 -37 -16 -10 -26 -21 -22 -25
15 -15 -24 -26 -70 -20 -40 5 -46 4 -41 -10 10 -26 -22 -19 -41 10 -12 18 -20
22 -28 15 -13 -10 -24 -8 -219 55 -128 41 -147 41 -216 9 -30 -14 -84 -30
-120 -36 -70 -11 -117 -32 -135 -61 -8 -12 -6 -27 8 -58 27 -60 74 -97 132
-105 99 -12 158 -26 172 -40 21 -21 -9 -62 -53 -71 -22 -4 -33 -11 -30 -19 3
-8 -6 -15 -23 -18 -15 -3 -68 -20 -118 -37 -99 -35 -120 -37 -243 -25 l-83 8
-62 -60 c-34 -33 -82 -75 -107 -92 -43 -30 -112 -124 -146 -200 -12 -27 -13
-39 -3 -62 6 -16 15 -29 20 -29 5 0 9 -4 9 -10 0 -5 -8 -10 -17 -10 -53 0
-113 -70 -113 -130 0 -39 47 -90 83 -90 15 0 31 -9 41 -25 9 -13 33 -29 53
-34 46 -13 146 -14 139 -2 -3 5 1 12 10 15 29 11 36 6 30 -19 -6 -24 -5 -24
46 -19 29 3 67 7 85 9 17 2 81 27 142 55 91 42 125 53 193 60 120 12 573 115
713 161 141 47 284 113 368 170 74 51 168 83 316 110 139 25 157 32 199 72 48
45 65 84 65 144 0 43 -7 65 -41 123 -22 38 -36 70 -31 70 5 0 3 12 -4 28 -8
15 -20 48 -27 74 -7 26 -19 53 -26 59 -12 10 -12 14 2 24 15 11 14 14 -9 36
-27 25 -53 79 -38 79 5 0 16 -10 24 -23 15 -21 16 -20 16 28 1 58 -15 94 -25
58 -4 -13 -10 -23 -15 -23 -14 0 -28 43 -19 54 5 5 6 15 3 22 -3 10 3 14 19
14 19 0 24 5 23 21 -1 12 -9 27 -18 34 -23 17 -21 35 4 35 19 0 20 4 14 42 -4
24 -13 50 -20 58 -16 19 -36 90 -25 90 4 0 10 -7 14 -15 7 -20 36 -19 36 1 0
8 -5 24 -10 35 -8 13 -7 19 0 19 5 0 10 19 10 42 0 24 2 68 5 98 4 30 2 81 -3
113 -7 45 -6 60 4 64 7 2 12 19 12 36 0 18 6 57 12 87 14 63 16 152 5 226 -5
35 -4 54 4 58 7 5 11 -5 11 -28 0 -19 5 -38 10 -41 7 -4 10 48 8 156 -1 127
-4 158 -13 145 -17 -23 -25 -10 -15 25 5 16 10 33 11 37 1 4 9 17 17 30 10 15
13 37 9 70 -3 26 -1 72 4 102 5 34 5 58 -1 64 -17 17 -12 86 5 86 18 0 19 21
4 91 -11 49 -10 53 11 69 21 16 21 19 12 106 -6 49 -15 102 -21 117 -15 38
-14 42 4 27 18 -15 19 -6 4 60 -5 25 -11 65 -13 90 -2 25 -8 63 -13 85 -8 31
-12 36 -18 23 -4 -10 -11 -15 -16 -12 -14 8 -10 44 5 44 11 0 11 9 0 56 -7 30
-20 66 -28 80 -14 21 -15 24 -1 24 11 0 13 5 5 25 -5 13 -11 55 -14 92 -4 57
-3 65 8 51 17 -23 26 -23 26 1 0 26 15 34 30 16 17 -21 30 -9 30 27 0 26 2 29
15 18 12 -10 14 -7 14 17 0 42 12 103 21 103 4 0 15 -10 24 -23 l17 -22 -6 25
c-6 24 -5 24 9 6 14 -18 16 -18 16 -3 0 10 -7 29 -16 42 -29 44 -10 50 34 11
23 -21 42 -34 42 -28 0 6 -4 14 -10 17 -5 3 -10 13 -10 20 0 11 8 13 30 8 20
-3 30 -1 30 6 0 7 9 22 20 33 18 20 21 20 33 5 8 -12 16 -14 27 -7 12 7 12 12
2 22 -9 9 -12 9 -12 -3 -1 -13 -29 28 -30 44 0 16 36 6 48 -13 20 -32 34 -14
17 21 -18 35 -6 38 34 8 28 -21 58 -19 45 3 -4 6 4 19 16 28 18 14 28 15 41 7
14 -9 22 -7 36 4 10 9 26 19 36 22 10 4 17 17 17 34 l0 28 26 -30 25 -30 -6
28 c-6 31 2 35 21 10 12 -16 13 -12 7 26 -5 36 -4 43 8 36 8 -5 20 -17 27 -27
29 -40 39 -13 16 46 -11 29 20 8 44 -30 28 -43 39 -38 21 10 -18 49 -3 58 31
18 17 -21 30 -29 35 -23 4 8 12 8 27 0 15 -8 22 -8 28 1 4 7 13 9 19 6 15 -9
14 7 -1 22 -6 6 -9 14 -6 18 4 3 16 -4 27 -15 28 -28 35 -26 27 4 l-7 26 41
-21 40 -21 9 23 c6 16 4 28 -6 40 -9 10 -11 18 -4 23 13 7 26 0 71 -38 33 -28
34 -29 21 -70 -19 -63 -25 -117 -12 -117 6 0 11 -13 11 -30 0 -16 5 -30 10
-30 6 0 10 -22 10 -49 0 -55 14 -73 35 -45 11 15 14 16 14 4 0 -8 -4 -24 -8
-35 -6 -14 -2 -28 10 -47 11 -14 19 -33 19 -40 0 -23 11 -28 31 -15 24 15 33
4 19 -23 -6 -11 -9 -29 -7 -38 4 -14 6 -13 12 5 13 42 26 12 19 -44 -6 -53 -6
-55 15 -48 19 6 21 3 21 -30 0 -23 4 -34 11 -30 6 5 8 32 3 78 -5 61 -4 70 7
59 10 -9 14 -44 15 -118 1 -58 5 -108 8 -111 3 -4 6 -15 6 -25 0 -10 5 -18 10
-18 6 0 10 7 10 15 0 8 5 15 10 15 13 0 13 -16 0 -59 -10 -36 -3 -62 11 -40 5
8 9 26 9 41 0 14 3 35 7 45 13 30 19 -44 11 -111 -9 -62 -4 -80 13 -56 8 11 9
4 6 -27 -3 -25 1 -52 9 -68 8 -15 14 -33 14 -39 0 -24 25 -66 38 -61 8 3 12
-6 12 -25 0 -30 14 -41 23 -17 3 6 6 -1 7 -18 1 -16 4 -24 7 -17 2 6 9 12 15
12 6 0 8 -6 5 -13 -12 -30 80 -192 115 -203 11 -3 53 -36 92 -73 40 -36 120
-99 179 -139 85 -59 108 -81 117 -108 7 -19 21 -39 32 -45 18 -10 19 -9 7 13
l-12 23 26 -24 c14 -13 38 -48 54 -77 29 -56 45 -70 36 -31 -10 41 19 1 36
-50 12 -37 21 -49 39 -51 22 -3 32 -18 56 -86 3 -10 9 -16 12 -13 4 3 2 19 -4
36 -9 25 -8 30 8 34 21 5 40 -10 40 -33 0 -31 31 -121 40 -115 5 3 21 -6 35
-21 l26 -26 15 21 c21 30 29 27 47 -19 15 -40 37 -54 37 -24 0 8 5 12 11 9 6
-4 8 -13 5 -21 -6 -15 22 -34 50 -34 9 0 23 -8 31 -17 13 -16 14 -16 8 10 -7
32 9 35 45 8 20 -16 22 -21 11 -35 -10 -12 -10 -16 -1 -16 6 0 20 -10 31 -22
15 -19 20 -21 28 -9 8 12 15 9 40 -18 25 -27 32 -30 37 -17 9 23 23 20 34 -6
7 -18 9 -19 9 -5 1 18 9 21 35 11 9 -3 14 -10 11 -15 -10 -16 19 -49 37 -43
10 3 29 -3 44 -15 14 -11 31 -18 38 -15 7 3 37 -9 65 -25 58 -35 69 -38 51
-16 -15 18 -1 20 34 4 16 -8 22 -17 18 -28 -5 -14 -4 -14 11 -2 16 12 23 10
61 -18 34 -24 55 -31 89 -31 34 0 53 -7 82 -30 21 -16 47 -30 59 -30 11 0 32
-9 46 -20 14 -11 30 -20 35 -20 6 0 28 -9 50 -20 22 -11 47 -20 57 -20 9 0 20
-5 24 -11 3 -6 15 -8 26 -6 11 3 21 0 24 -8 3 -8 29 -17 61 -21 41 -5 56 -11
62 -26 6 -16 19 -20 75 -24 38 -2 94 -11 126 -19 32 -8 71 -15 86 -15 16 0 54
-13 84 -30 30 -16 69 -29 85 -30 17 0 40 -7 51 -15 12 -8 24 -12 27 -9 3 3 17
-2 31 -11 14 -10 26 -15 26 -11 0 3 16 -6 36 -19 20 -14 42 -25 48 -25 6 0 26
-30 45 -66 19 -36 45 -72 57 -81 13 -8 24 -23 24 -32 0 -10 11 -28 25 -41 14
-13 25 -32 25 -43 0 -11 6 -28 14 -36 19 -23 50 -203 42 -251 -5 -35 -4 -40
13 -40 19 0 19 -2 6 -41 -8 -23 -15 -54 -15 -69 0 -23 -8 -32 -43 -49 -24 -12
-55 -21 -70 -21 -17 0 -27 -5 -27 -15 0 -25 -67 -19 -94 8 -27 27 -121 67
-158 67 -20 0 -47 -21 -112 -87 -121 -124 -256 -301 -256 -335 0 -19 5 -28 15
-28 10 0 0 -15 -25 -38 -32 -31 -40 -46 -40 -74 0 -49 57 -98 91 -77 11 7 15
0 19 -33 7 -61 35 -77 146 -84 85 -6 95 -5 149 20 77 35 100 34 117 -5 13 -30
14 -31 68 -26 78 7 160 38 269 104 53 31 101 60 106 65 6 4 33 27 61 50 29 24
64 44 79 44 14 1 34 9 44 18 12 11 36 16 74 16 31 0 57 5 57 10 0 6 13 10 29
10 17 0 32 4 35 9 3 4 23 11 43 15 21 3 51 13 67 21 19 10 57 15 118 15 105 0
150 16 168 61 23 56 6 95 -80 178 -43 42 -86 94 -97 116 -11 22 -29 60 -41 84
-17 35 -19 46 -10 53 7 4 9 8 3 8 -6 0 -11 65 -11 173 -2 182 -17 277 -54 346
-11 20 -25 65 -31 101 -22 134 -28 156 -49 205 -14 32 -27 96 -35 174 -16 138
-25 157 -112 207 -40 24 -44 24 -130 14 -48 -6 -97 -13 -108 -15 -11 -3 -14
-2 -7 1 22 10 13 26 -13 22 -14 -3 -28 -1 -31 3 -3 5 -17 9 -32 9 -15 0 -37 7
-49 15 -16 12 -23 12 -27 2 -3 -9 -9 -7 -19 6 -8 9 -18 17 -23 17 -5 0 -14 8
-21 18 -6 11 -32 25 -58 32 -28 8 -42 16 -34 20 13 9 -19 30 -45 30 -8 0 -22
7 -30 16 -10 9 -16 11 -16 4 0 -6 -6 -10 -12 -7 -7 2 -13 12 -13 23 0 14 -8
20 -29 22 -20 3 -25 6 -16 12 26 16 -7 35 -93 54 -22 5 -27 11 -22 26 4 11 2
20 -3 20 -6 0 -41 25 -79 56 -37 31 -85 64 -105 74 -21 9 -47 29 -58 43 -12
15 -30 27 -41 27 -10 0 -19 4 -19 10 0 18 -42 48 -85 60 -28 8 -42 17 -39 25
7 17 -81 76 -101 69 -9 -4 -15 0 -15 9 0 24 -54 57 -93 57 -20 0 -39 5 -42 10
-4 6 7 10 25 10 18 0 29 4 25 10 -3 5 -28 10 -55 10 -27 0 -52 5 -55 10 -4 6
5 10 19 10 14 0 26 3 26 6 0 19 -25 43 -62 60 -24 10 -53 31 -65 45 -12 14
-49 40 -83 58 -33 18 -58 36 -55 41 7 12 -60 46 -106 55 -22 4 -38 14 -44 28
-6 14 -28 28 -57 38 -55 18 -70 29 -42 30 30 1 -107 39 -142 39 -21 0 -31 5
-31 15 0 10 9 14 26 13 16 -2 26 2 28 12 3 16 -103 84 -149 95 -16 4 -25 11
-22 16 3 5 -4 9 -15 9 -12 0 -20 3 -20 8 3 18 -3 21 -27 11 -24 -8 -25 -8 -14
6 11 14 7 19 -12 16 -5 0 -8 6 -8 14 0 8 -6 15 -14 15 -8 0 -21 6 -28 13 -8 6
-23 17 -33 23 -11 6 -20 17 -20 25 0 8 -9 22 -20 32 -20 17 -19 17 10 11 l30
-5 -22 19 c-28 24 -29 35 -5 28 15 -5 21 2 30 31 24 82 31 128 22 137 -14 14
-12 26 3 26 15 0 41 109 32 133 -4 8 1 17 10 21 12 4 15 13 11 29 -3 13 1 35
9 51 8 16 15 37 15 47 0 11 5 19 11 19 6 0 9 7 5 15 -3 8 8 51 25 95 17 44 29
86 26 92 -2 7 3 18 12 25 13 9 14 17 5 40 -6 17 -7 40 -2 58 5 17 5 59 1 95
-4 36 -8 99 -9 140 -2 81 -8 132 -19 166 -4 12 -2 25 4 28 6 4 11 31 11 61 0
31 5 55 11 57 7 2 13 20 15 38 3 40 9 68 17 90 4 8 11 53 17 100 7 47 23 139
36 205 28 139 54 365 47 413 -3 18 -1 32 5 32 6 0 11 20 12 45 1 25 2 57 3 73
1 15 -3 60 -7 101 -8 68 -7 73 9 67 15 -5 16 -1 10 46 -4 29 -11 61 -16 70 -6
10 -5 19 1 23 15 10 12 35 -5 35 -17 0 -22 65 -5 75 15 9 12 58 -4 80 -10 14
-11 27 -4 54 6 20 8 64 5 98 -2 35 0 66 5 71 14 14 21 79 21 185 0 48 4 87 9
87 5 0 8 8 5 18 -2 9 3 31 12 47 8 17 15 61 16 100 1 39 6 79 11 90 5 11 9 65
8 120 -1 78 -6 113 -23 156 -30 78 -89 142 -165 179 l-64 32 -7 54 c-6 52 -17
68 -29 42 -5 -14 2 61 10 101 5 21 3 23 -10 12 -14 -12 -16 -9 -16 22 0 20 -5
39 -11 43 -6 4 -9 19 -5 36 5 26 4 29 -16 22 -17 -5 -20 -3 -15 12 20 65 20
64 -3 64 -22 0 -22 1 -5 26 12 18 14 29 6 37 -7 7 -16 1 -28 -21 -10 -18 -21
-32 -25 -32 -11 0 -10 4 7 36 23 44 38 130 27 151 -6 10 -8 31 -5 46 3 15 1
33 -4 40 -6 6 -13 62 -17 122 -12 194 -73 485 -102 485 -9 0 -14 12 -14 38 -1
51 -53 178 -72 174 -10 -1 -15 7 -15 25 -1 30 -37 138 -53 158 -5 6 -19 41
-30 78 -11 36 -27 73 -36 81 -8 9 -22 38 -30 65 -8 28 -23 56 -34 64 -11 8
-23 28 -26 46 -4 17 -14 37 -24 44 -9 7 -25 28 -35 47 -10 19 -27 52 -37 72
-13 24 -25 35 -34 31 -10 -4 -14 3 -14 21 0 16 -10 37 -25 50 -14 13 -25 27
-25 32 0 5 -8 21 -17 34 l-17 24 -6 -24 c-6 -21 -9 -16 -18 28 -17 74 -29 94
-53 87 -16 -5 -19 -1 -19 24 0 17 -4 31 -10 31 -5 0 -10 -5 -10 -11 0 -21 -19
2 -25 31 -4 17 -11 30 -15 30 -5 0 -7 -7 -4 -15 5 -11 2 -13 -11 -9 -10 4 -28
32 -42 61 -17 39 -28 53 -38 49 -10 -4 -15 1 -15 14 0 11 -12 26 -28 34 -16 8
-46 35 -66 61 -24 29 -49 48 -67 52 -19 3 -29 12 -29 23 0 9 -9 25 -21 36 -17
16 -22 16 -30 4 -8 -13 -10 -13 -19 0 -6 10 -6 16 0 18 6 2 10 8 10 14 0 6 -7
8 -15 4 -8 -3 -15 0 -15 7 -1 17 -36 57 -50 57 -7 0 -21 11 -31 24 -11 14 -30
28 -42 32 -12 3 -32 18 -44 33 -19 22 -24 24 -33 11 -9 -13 -11 -13 -20 0 -6
8 -8 23 -6 33 2 9 -1 17 -8 17 -7 0 -34 20 -59 45 -70 67 -157 122 -166 106
-12 -19 -45 1 -62 37 -16 32 -97 107 -86 80 7 -21 3 -22 -24 -8 -10 6 -19 20
-19 30 0 11 -5 20 -10 20 -6 0 -25 14 -42 31 -25 23 -34 27 -38 16 -8 -23 -47
-3 -71 37 -14 24 -25 33 -38 29 -27 -7 -54 10 -82 51 -17 26 -33 37 -61 41
-20 4 -39 13 -42 21 -3 8 -19 14 -41 14 -23 0 -38 5 -42 16 -4 10 -13 14 -27
10 -16 -4 -25 2 -38 24 -10 17 -25 30 -36 30 -11 0 -41 12 -67 26 -35 20 -49
24 -55 15 -5 -9 -16 -3 -39 19 -27 28 -34 30 -48 19 -11 -10 -17 -11 -20 -3
-8 23 -32 49 -39 41 -4 -4 -2 -13 4 -19 29 -29 -7 -39 -42 -13 -17 13 -17 17
-5 32 12 15 12 16 -3 11 -10 -4 -23 1 -34 13 -13 14 -25 18 -48 14 -27 -5 -33
-2 -48 25 -20 35 -40 40 -36 8 5 -36 -15 -36 -32 -1 -15 32 -82 79 -99 69 -4
-3 -16 3 -26 14 -23 26 -35 25 -35 -1 0 -14 -5 -19 -17 -17 -10 2 -17 11 -17
21 1 11 -23 30 -72 57 -80 44 -94 48 -94 25 0 -8 -7 -15 -15 -15 -8 0 -15 6
-15 13 0 13 -62 59 -76 56 -5 -1 -25 5 -44 13 -56 25 -83 32 -76 19 12 -19 -5
-12 -36 14 -32 27 -50 27 -28 0 25 -30 -9 -15 -55 25 -58 50 -79 54 -55 9 20
-37 -23 -21 -84 31 -58 48 -116 78 -116 60 0 -5 9 -14 20 -20 25 -14 26 -30 1
-30 -30 0 -81 33 -87 55 -6 23 -54 51 -54 31 0 -7 5 -17 12 -24 9 -9 9 -12 0
-12 -7 0 -30 16 -52 36 -22 20 -43 35 -46 32 -2 -3 2 -11 11 -18 17 -14 20
-30 6 -30 -5 0 -23 11 -39 25 -17 14 -37 25 -47 25 -9 0 -13 5 -10 10 3 6 -3
10 -14 10 -11 0 -23 5 -26 10 -3 6 -14 10 -24 10 -10 0 -31 10 -46 21 -22 18
-29 20 -36 8 -5 -8 -9 -21 -9 -29 -1 -11 -6 -9 -20 8 -17 21 -42 26 -101 20
-31 -3 -89 32 -89 53 0 24 -27 36 -49 21 -31 -23 -41 -24 -67 -3 -27 21 -60
29 -49 12 3 -5 1 -12 -5 -16 -14 -9 -67 25 -115 74 -24 25 -48 41 -63 41 -13
0 -32 5 -43 10 -29 16 -24 -8 6 -32 24 -18 34 -48 17 -48 -4 0 -28 20 -52 45
-46 47 -62 53 -36 13 15 -23 14 -24 -10 -26 -20 -1 -24 2 -20 16 5 15 1 19
-24 19 -16 0 -30 -4 -30 -9 0 -4 -11 -8 -25 -8 -27 0 -32 9 -13 28 9 9 9 12 1
12 -7 0 -15 -4 -18 -10 -11 -18 -24 -11 -42 23 -14 26 -18 29 -21 13 -2 -11 7
-29 23 -43 20 -19 23 -28 15 -38 -6 -7 -10 -21 -8 -31 5 -29 -21 -27 -34 3 -6
15 -17 35 -24 43 -6 8 -16 29 -22 45 -8 26 -11 27 -17 12 -4 -10 -2 -36 4 -58
6 -21 11 -42 11 -46 -2 -12 -32 -3 -61 18 -15 10 -34 16 -43 13 -21 -8 -49 15
-38 30 5 6 14 27 20 46 l12 35 -28 -33 c-34 -41 -48 -40 -73 3 -12 19 -27 35
-35 35 -18 0 -18 -14 1 -30 8 -7 15 -18 15 -26 0 -23 -21 -27 -36 -5 -14 19
-17 20 -38 6 -22 -15 -26 -14 -66 20 -45 38 -75 48 -45 15 19 -21 14 -50 -8
-50 -7 0 -26 14 -42 30 -37 38 -47 38 -33 -1 12 -35 5 -47 -17 -29 -9 7 -13
21 -10 31 4 11 2 19 -4 19 -6 0 -11 -4 -11 -10 0 -17 -26 -11 -45 10 -10 11
-22 20 -27 20 -5 0 -4 -9 2 -20 15 -27 -4 -25 -23 3 l-16 22 0 -22 c-1 -18 -7
-23 -25 -23 -14 0 -28 6 -33 13 -5 8 -10 0 -13 -23 l-6 -35 -42 41 c-24 24
-42 36 -42 27 0 -8 -4 -11 -10 -8 -5 3 -10 -1 -10 -9 0 -25 -19 -19 -32 9 -16
35 -32 31 -24 -5 7 -37 0 -38 -50 0 -52 39 -60 38 -30 -7 14 -20 23 -39 21
-42 -10 -9 -57 24 -71 51 -23 44 -38 47 -31 5z m-2960 -304 c-7 -2 -21 -2 -30
0 -10 3 -4 5 12 5 17 0 24 -2 18 -5z"/>
</g>
</svg>
