<?xml version="1.0" standalone="no"?>
<!DOCTYPE svg PUBLIC "-//W3C//DTD SVG 20010904//EN"
 "http://www.w3.org/TR/2001/REC-SVG-20010904/DTD/svg10.dtd">
<svg version="1.0" xmlns="http://www.w3.org/2000/svg"
 width="1536.000000pt" height="363.000000pt" viewBox="0 0 1536.000000 363.000000"
 preserveAspectRatio="xMidYMid meet">
<metadata>
Created by potrace 1.16, written by Peter Selinger 2001-2019
</metadata>
<g transform="translate(0.000000,363.000000) scale(0.100000,-0.100000)"
fill="#000000" stroke="none">
<path d="M13295 3620 c-468 -25 -852 -60 -2130 -195 -1534 -162 -2430 -243
-3375 -304 -451 -30 -486 -31 -1350 -41 -1046 -13 -1618 -32 -2260 -75 -1834
-123 -3052 -393 -3686 -817 -122 -81 -274 -221 -340 -314 -54 -75 -108 -188
-131 -274 -13 -48 -18 -101 -18 -200 1 -118 4 -141 23 -184 63 -139 247 -274
544 -398 952 -398 2891 -684 5303 -783 897 -36 2054 -43 2530 -15 1352 80
2607 318 3831 725 1512 503 2822 1260 3080 1780 48 97 52 154 21 276 -126 488
-454 724 -1117 804 -160 20 -681 28 -925 15z m-5455 -1219 c0 -555 2 -619 16
-625 32 -12 132 -5 456 34 817 97 1109 120 1573 120 520 1 970 26 1840 105
l50 4 -43 -9 c-24 -5 -148 -25 -275 -45 -715 -112 -1308 -175 -1812 -195 -740
-29 -1109 -57 -1440 -110 -140 -23 -354 -65 -361 -72 -2 -3 -16 -308 -29 -679
-14 -371 -25 -683 -26 -694 0 -11 -44 290 -98 670 l-96 689 -35 7 c-19 4 -210
10 -423 13 -213 4 -949 18 -1635 31 -686 14 -1305 25 -1376 25 -71 0 -127 2
-125 4 3 3 445 14 984 25 539 12 1176 25 1415 31 239 5 603 13 808 16 l372 7
0 27 c0 32 -76 1085 -85 1178 l-7 62 176 0 176 0 0 -619z"/>
</g>
</svg>
