<?xml version="1.0" encoding="UTF-8" standalone="no"?>
<!-- Created with Inkscape (http://www.inkscape.org/) -->

<svg
   xmlns:svg="http://www.w3.org/2000/svg"
   xmlns="http://www.w3.org/2000/svg"
   version="1.2"
   width="612"
   height="792"
   viewBox="0 0 612 792"
   id="Layer_1"
   xml:space="preserve"><defs
   id="defs7" />
    
    <path
   d="m 164.6,415.9 c 0.566,-0.267 1.167,-0.534 1.8,-0.801 0.6,-0.3 1.267,-0.583 2,-0.85 l 9.1,-3.05 c 0.767,-0.2 1.517,-0.384 2.25,-0.55 0.7,-0.167 1.4,-0.317 2.1,-0.45 0.4,-0.066 0.783,-0.184 1.15,-0.351 0.333,-0.166 0.7,-0.399 1.1,-0.699 0.367,-0.334 0.767,-0.767 1.2,-1.301 l 1.6,-1.949 c 0.333,-0.5 0.767,-1.051 1.3,-1.65 0.5,-0.6 1.066,-1.267 1.7,-2 l 19.7,-20 c 0.767,-0.733 1.5,-1.4 2.2,-2 0.667,-0.6 1.284,-1.133 1.85,-1.6 l 15.35,-11.5 c 0.566,-0.433 1.1,-0.85 1.6,-1.25 0.467,-0.4 0.917,-0.783 1.351,-1.15 0.399,-0.367 0.767,-0.717 1.1,-1.05 0.3,-0.333 0.583,-0.65 0.851,-0.95 0.267,-0.3 0.5,-0.6 0.699,-0.9 0.2,-0.3 0.384,-0.583 0.551,-0.85 0.3,-0.633 0.517,-1.167 0.649,-1.6 0.134,-0.433 0.15,-0.833 0.05,-1.2 -0.133,-0.367 -0.383,-0.717 -0.75,-1.05 -0.366,-0.333 -0.866,-0.717 -1.5,-1.15 -1.5,-1 -2.283,-1.933 -2.35,-2.8 -0.033,-0.6 0.267,-1.15 0.9,-1.65 0.199,-0.167 0.399,-0.283 0.6,-0.35 0.2,-0.1 0.45,-0.15 0.75,-0.15 0.3,0 0.667,0.05 1.1,0.15 l 1.601,0.35 c 0.467,0.1 1,0.2 1.6,0.3 0.601,0.1 1.25,0.2 1.95,0.3 0.733,0.067 1.5,0.133 2.3,0.2 l 14.55,0.2 47.348,-3.549 39.8,-0.05 22.35,1.4 c 2.267,0.233 4.534,0.5 6.801,0.8 2.199,0.3 4.383,0.617 6.55,0.95 2.166,0.3 4.283,0.617 6.35,0.95 2.066,0.333 4.101,0.7 6.101,1.1 2,0.367 3.983,0.75 5.949,1.15 1.934,0.4 3.851,0.817 5.75,1.25 1.867,0.434 3.717,0.883 5.551,1.35 1.8,0.467 3.6,0.95 5.399,1.45 1.767,0.5 3.5,1.017 5.2,1.55 1.7,0.5 3.384,1.05 5.05,1.65 1.667,0.534 3.316,1.117 4.95,1.75 1.634,0.6 3.233,1.217 4.8,1.85 l 6.351,2.6 c 0.833,0.367 1.6,0.733 2.3,1.1 0.666,0.333 1.283,0.65 1.85,0.95 0.5,0.3 0.967,0.6 1.4,0.9 0.434,0.3 0.816,0.6 1.149,0.9 0.301,0.267 0.584,0.55 0.851,0.85 0.233,0.3 0.45,0.617 0.649,0.95 0.834,1.333 1.267,2.533 1.301,3.6 0,1.067 -0.483,2.117 -1.45,3.15 -0.967,1 -2.483,2.033 -4.55,3.1 -1.067,0.533 -2.267,1.1 -3.601,1.7 -1.399,0.6 -2.934,1.233 -4.6,1.9 -1.5,0.566 -2.983,1.133 -4.45,1.7 -1.5,0.567 -2.95,1.1 -4.35,1.6 -1.4,0.5 -2.784,0.983 -4.15,1.45 -1.4,0.467 -2.75,0.917 -4.05,1.35 -1.334,0.4 -2.65,0.8 -3.95,1.2 -1.333,0.367 -2.616,0.717 -3.85,1.05 -1.301,0.333 -2.567,0.65 -3.801,0.95 -1.267,0.3 -2.517,0.583 -3.75,0.85 -1.233,0.267 -2.466,0.517 -3.699,0.75 -1.233,0.2 -2.45,0.4 -3.65,0.6 -1.233,0.2 -2.45,0.384 -3.65,0.551 -1.233,0.133 -2.466,0.266 -3.699,0.399 -1.233,0.101 -2.467,0.2 -3.7,0.3 -1.233,0.101 -2.467,0.184 -3.7,0.25 -1.267,0.033 -2.533,0.084 -3.8,0.15 -1.3,0 -2.601,0.017 -3.9,0.05 H 363 l -3.9,2.601 c -0.566,0.366 -1.116,0.716 -1.649,1.05 -0.566,0.333 -1.134,0.649 -1.7,0.95 -0.566,0.3 -1.15,0.6 -1.75,0.899 -0.6,0.267 -1.184,0.533 -1.75,0.8 -0.634,0.233 -1.25,0.467 -1.85,0.7 -0.634,0.2 -1.284,0.4 -1.95,0.601 -0.634,0.199 -1.3,0.383 -2,0.55 -0.7,0.166 -1.4,0.333 -2.101,0.5 l -4.649,0.7 -4.2,0.149 c -0.6,-0.033 -1.05,-0.083 -1.35,-0.149 -0.367,-0.101 -0.551,-0.217 -0.551,-0.351 l 0.051,-0.05 0.05,-0.15 0.149,-0.25 c 0.134,-0.199 0.351,-0.449 0.65,-0.75 l 2.1,-2.199 c 0.301,-0.334 0.601,-0.65 0.9,-0.95 0.267,-0.334 0.517,-0.634 0.75,-0.9 0.2,-0.267 0.384,-0.517 0.55,-0.75 0.134,-0.2 0.217,-0.366 0.25,-0.5 0.033,-0.166 0.033,-0.267 0,-0.3 l -0.1,-0.05 -0.35,-0.101 -20.95,-0.7 -29.25,0.35 c -2.2,0.134 -4.367,0.3 -6.5,0.5 -2.167,0.167 -4.284,0.366 -6.351,0.6 -2.066,0.2 -4.1,0.417 -6.1,0.65 -2,0.233 -3.983,0.5 -5.95,0.8 -1.967,0.267 -3.9,0.55 -5.8,0.851 -1.9,0.3 -3.783,0.633 -5.65,1 -1.866,0.333 -3.717,0.699 -5.55,1.1 -1.833,0.401 -3.65,0.816 -5.45,1.25 -1.833,0.4 -3.633,0.85 -5.399,1.35 -1.768,0.434 -3.551,0.917 -5.351,1.45 -1.767,0.5 -3.533,1.033 -5.3,1.601 -1.8,0.533 -3.583,1.1 -5.35,1.699 -1.8,0.601 -3.517,1.167 -5.15,1.7 -1.667,0.533 -3.233,1.017 -4.7,1.45 -1.466,0.434 -2.866,0.833 -4.2,1.2 -1.367,0.333 -2.65,0.633 -3.85,0.899 -1.2,0.266 -2.367,0.5 -3.5,0.7 -1.1,0.2 -2.167,0.367 -3.2,0.5 -1.033,0.134 -2.033,0.233 -3,0.3 -0.966,0.067 -1.917,0.101 -2.85,0.101 h -3 l -7.35,9.05 c -0.467,0.5 -0.917,1 -1.35,1.5 -0.434,0.467 -0.867,0.917 -1.3,1.35 -0.434,0.434 -0.884,0.867 -1.35,1.301 -0.5,0.433 -1,0.866 -1.5,1.3 l -6.8,5.35 c -0.433,0.3 -0.783,0.533 -1.05,0.7 -0.3,0.167 -0.483,0.267 -0.55,0.3 -0.3,-0.033 -0.45,-0.333 -0.45,-0.899 -0.033,-0.301 -0.017,-0.634 0.05,-1 0.034,-0.4 0.083,-0.834 0.15,-1.301 0.066,-0.5 0.167,-1.017 0.3,-1.55 l 2.95,-9.5 c 0.267,-0.633 0.533,-1.233 0.8,-1.8 0.233,-0.6 0.483,-1.15 0.75,-1.65 l 1.55,-3.1 -6.95,-2.3 c -0.633,-0.267 -1.167,-0.5 -1.6,-0.7 -0.467,-0.2 -0.833,-0.384 -1.1,-0.55 -0.167,-0.101 -0.267,-0.184 -0.3,-0.25 -0.067,-0.066 -0.1,-0.134 -0.1,-0.2 0,-0.167 0.083,-0.333 0.25,-0.5 0.167,-0.2 0.417,-0.417 0.75,-0.65 0.3,-0.233 0.667,-0.466 1.1,-0.699 0.434,-0.236 0.934,-0.486 1.501,-0.753 z"
   id="path3"
   style="fill:#010101;fill-rule:evenodd" />
    
</svg>