<?xml version="1.0" standalone="no"?>
<!DOCTYPE svg PUBLIC "-//W3C//DTD SVG 20010904//EN"
 "http://www.w3.org/TR/2001/REC-SVG-20010904/DTD/svg10.dtd">
<svg version="1.0" xmlns="http://www.w3.org/2000/svg"
 width="1254.000000pt" height="1536.000000pt" viewBox="0 0 1254.000000 1536.000000"
 preserveAspectRatio="xMidYMid meet">
<metadata>
Created by potrace 1.16, written by Peter Selinger 2001-2019
</metadata>
<g transform="translate(0.000000,1536.000000) scale(0.100000,-0.100000)"
fill="#000000" stroke="none">
<path d="M5294 15346 c-66 -29 -80 -89 -43 -186 11 -30 23 -87 26 -127 5 -65
3 -76 -21 -117 -42 -71 -36 -111 24 -181 72 -81 180 -305 180 -371 0 -7 -15
-21 -34 -32 -39 -23 -84 -94 -93 -145 -3 -23 2 -50 16 -82 14 -31 21 -68 21
-107 0 -77 18 -118 84 -188 39 -43 60 -76 75 -121 25 -75 26 -133 5 -276 -18
-122 -11 -168 31 -201 55 -43 69 -122 40 -218 -19 -62 -19 -98 0 -160 8 -27
20 -80 25 -119 13 -84 43 -138 110 -196 l51 -44 3 -75 c2 -57 9 -90 30 -135
22 -48 30 -83 37 -175 12 -160 16 -182 45 -254 31 -78 70 -126 115 -141 40
-14 58 -52 58 -131 1 -55 -7 -67 -50 -78 -15 -3 -41 -22 -57 -41 -86 -97 -55
-237 66 -308 l57 -33 3 -75 3 -75 -253 -17 c-139 -10 -261 -17 -270 -17 -16 0
-18 12 -18 101 0 110 9 139 43 139 62 0 215 117 201 154 -6 15 -54 36 -85 36
-51 0 -123 -25 -155 -52 -19 -17 -38 -28 -41 -24 -4 3 -8 31 -11 61 -5 65 13
100 57 110 75 16 183 120 167 161 -9 24 -85 12 -154 -26 -55 -30 -92 -38 -92
-21 0 14 22 27 67 39 100 29 142 142 87 230 -33 52 -166 -2 -213 -88 l-25 -44
-28 59 c-32 69 -36 125 -10 147 9 9 42 19 72 23 30 4 65 13 77 21 20 12 83 95
83 108 0 17 -159 4 -227 -18 -21 -7 -20 -3 12 59 37 70 43 103 23 123 -25 25
-120 6 -138 -28 -6 -10 -10 -31 -10 -47 0 -42 -14 -57 -44 -49 -29 7 -144 111
-135 121 4 3 33 9 65 12 138 14 173 77 116 207 -12 25 -28 49 -36 52 -29 11
-135 -47 -182 -99 -41 -46 -47 -49 -69 -39 -34 16 -31 26 14 59 68 48 83 93
60 176 -5 20 -16 37 -23 37 -33 0 -144 -103 -168 -156 -6 -13 -15 -24 -20 -24
-16 0 -7 31 32 105 51 97 52 121 4 141 -75 31 -114 3 -114 -84 0 -54 -14 -82
-41 -82 -21 0 -99 39 -99 49 0 3 14 14 30 23 40 23 60 73 60 147 0 112 -18
127 -113 95 -57 -19 -93 -60 -102 -114 -4 -22 -9 -40 -12 -40 -4 0 -31 19 -61
42 -48 36 -53 42 -36 49 10 4 34 13 52 19 31 12 32 13 32 76 0 52 -3 65 -19
73 -24 13 -72 0 -123 -34 l-38 -25 21 39 20 39 -25 50 c-14 28 -38 60 -52 71
l-27 22 -34 -33 c-18 -17 -34 -30 -36 -27 -2 2 -12 31 -23 64 l-19 60 -57 -3
c-55 -3 -57 -2 -73 27 -19 37 -41 39 -102 10 -55 -27 -91 -70 -99 -120 -9 -53
-20 -57 -56 -22 l-30 30 34 24 c42 29 48 38 48 70 0 47 -67 109 -119 109 -23
0 -41 -44 -41 -101 0 -21 -4 -40 -9 -43 -4 -3 -28 5 -52 17 -50 25 -79 72 -79
128 0 21 -7 42 -15 49 -27 22 -38 -2 -33 -72 5 -84 28 -115 120 -163 40 -21
84 -48 98 -61 64 -59 282 -134 391 -134 104 0 190 -57 315 -208 15 -18 61 -56
102 -84 41 -28 91 -65 111 -83 43 -39 84 -60 131 -70 64 -12 72 -17 86 -51 9
-22 26 -39 48 -48 19 -8 65 -38 102 -66 53 -41 75 -65 98 -113 37 -73 116
-143 173 -152 87 -14 119 -48 103 -105 -27 -94 -3 -197 65 -271 19 -21 37 -51
41 -66 4 -16 15 -45 25 -65 15 -29 19 -60 19 -141 0 -86 4 -113 22 -153 18
-40 22 -73 26 -184 l4 -135 -193 -33 c-229 -39 -235 -39 -245 -9 -11 32 -8
157 5 190 14 35 30 34 66 -3 32 -33 59 -37 110 -16 46 19 70 57 55 86 -12 22
-81 59 -111 60 -22 0 -49 32 -49 57 0 41 11 53 46 53 86 0 134 50 134 138 0
57 -17 67 -82 52 -41 -10 -62 -22 -94 -56 -23 -24 -44 -44 -48 -44 -13 0 -106
93 -106 106 0 7 16 16 38 19 20 3 69 21 107 40 39 19 80 35 93 35 12 0 22 5
22 10 0 31 -150 41 -234 15 -70 -21 -76 -20 -134 31 -66 58 -69 84 -9 84 68 0
87 20 87 90 0 32 -4 62 -10 65 -17 11 -94 -15 -146 -50 l-52 -34 -39 47 c-49
58 -63 84 -63 116 0 20 6 27 28 31 43 9 117 51 120 69 3 14 -8 16 -76 16 l-80
0 -7 70 c-7 68 -26 103 -45 84 -19 -19 -23 -120 -6 -192 9 -39 16 -87 16 -107
0 -49 11 -68 96 -157 41 -43 74 -84 74 -92 0 -9 34 -52 76 -96 41 -45 82 -97
90 -117 9 -20 44 -64 79 -99 36 -34 67 -74 71 -88 10 -40 -3 -89 -39 -142 -32
-48 -32 -50 -35 -184 l-3 -136 -160 -51 c-177 -56 -182 -56 -195 12 -8 44 -2
51 47 58 50 7 148 55 163 80 9 15 6 23 -19 43 -16 13 -51 31 -77 40 -52 17
-67 13 -121 -32 -16 -13 -32 -24 -36 -24 -7 0 -31 66 -31 87 0 5 18 15 40 22
21 6 46 18 55 27 36 36 1 204 -42 204 -33 0 -81 -38 -109 -85 l-27 -46 -29 28
c-53 50 -69 87 -66 145 4 61 8 65 132 99 101 29 152 72 142 121 -12 59 -76
108 -141 108 -66 0 -85 -17 -156 -137 -22 -39 -35 -41 -80 -10 -60 40 -114
154 -96 201 5 13 14 12 54 -10 61 -31 176 -51 209 -35 32 14 31 54 -1 97 -31
40 -74 54 -171 54 -82 0 -112 16 -145 81 -21 43 -18 59 11 59 10 0 31 10 46
23 22 19 28 34 32 80 5 69 -8 79 -79 54 -89 -32 -94 -28 -102 86 -2 35 -10 64
-19 74 -15 14 -17 13 -28 -8 -19 -35 -6 -149 26 -217 14 -31 32 -83 40 -115 8
-31 26 -76 41 -100 23 -35 28 -57 33 -137 4 -60 13 -107 23 -127 26 -50 75
-101 122 -129 50 -29 57 -42 49 -94 -11 -69 18 -139 93 -223 54 -60 76 -94
107 -169 21 -51 45 -126 53 -167 l16 -75 -26 -22 c-15 -12 -73 -48 -129 -79
-57 -32 -133 -75 -169 -96 -36 -22 -75 -39 -87 -39 -12 0 -40 -17 -63 -37 -36
-32 -47 -37 -91 -37 -61 0 -80 20 -76 79 3 35 6 40 26 38 62 -7 92 48 92 167
l0 81 -59 -61 c-47 -48 -65 -60 -90 -60 -36 0 -59 28 -68 84 l-6 36 57 0 c32
0 66 5 77 10 23 13 49 61 49 93 0 42 -25 52 -117 50 -81 -3 -84 -2 -93 23 -6
14 -10 40 -10 59 0 29 6 37 45 59 82 48 94 89 42 141 -68 68 -117 54 -138 -41
-7 -30 -15 -54 -19 -54 -10 0 -80 78 -80 88 0 17 26 32 56 32 42 0 64 23 64
66 0 46 -23 89 -60 111 -16 9 -30 20 -30 23 0 3 21 21 46 38 59 42 59 75 -1
109 -57 32 -97 30 -140 -8 l-35 -31 0 35 c0 24 9 46 26 66 49 59 49 143 -1
206 -30 37 -41 28 -61 -51 -32 -120 -67 -145 -119 -83 -37 45 -31 81 16 92 49
11 105 58 96 81 -8 20 -58 43 -115 52 -39 6 -41 5 -55 -29 -31 -72 -54 -54
-37 28 15 73 3 95 -50 95 -49 0 -70 -21 -70 -71 0 -21 -4 -39 -10 -39 -15 0
-74 56 -89 84 -13 23 -12 29 12 64 53 81 57 154 12 223 -13 20 -30 53 -38 72
-21 49 -48 55 -110 22 l-52 -27 -22 26 -22 26 61 59 c33 33 58 64 54 69 -7 12
-92 42 -117 42 -19 0 -54 -38 -81 -89 -9 -17 -23 -31 -31 -31 -27 0 -66 41
-92 96 -31 65 -50 66 -49 1 0 -74 57 -134 144 -152 70 -14 120 -97 120 -199 1
-71 47 -149 95 -157 12 -2 38 -32 62 -69 52 -79 96 -118 143 -126 84 -14 131
-51 149 -120 13 -49 73 -108 119 -119 17 -3 36 -12 42 -20 6 -7 24 -65 40
-128 15 -63 39 -141 53 -173 14 -33 28 -76 31 -97 6 -47 44 -99 97 -133 33
-20 39 -30 39 -58 0 -18 9 -60 19 -93 10 -32 22 -97 26 -145 l7 -85 -65 -5
c-47 -4 -81 -14 -126 -39 l-62 -33 -24 30 c-14 16 -24 34 -25 41 0 6 22 16 50
23 85 20 130 72 130 149 0 56 -17 89 -51 96 -20 5 -31 14 -34 31 -3 13 -7 35
-10 47 -6 32 -50 74 -105 102 -39 20 -47 30 -59 70 -21 71 -54 105 -102 105
-39 0 -111 -29 -124 -50 -3 -5 -15 -15 -25 -20 -19 -10 -18 -9 2 25 13 24 22
60 26 104 4 61 2 70 -18 88 -12 12 -33 23 -46 26 -47 9 -62 -25 -67 -153 -2
-59 -4 -65 -25 -68 -30 -4 -99 47 -134 100 -22 32 -28 53 -28 95 l0 53 104 0
c143 0 157 17 105 121 -22 45 -33 49 -120 49 -62 0 -69 2 -69 20 0 33 -50 77
-148 130 -51 27 -97 50 -102 50 -16 0 -30 -38 -38 -98 l-7 -57 -38 1 c-22 1
-54 12 -79 29 l-43 29 50 12 c72 19 93 33 105 70 15 44 -3 108 -40 146 -65 64
-132 15 -170 -125 l-13 -48 -33 32 c-19 18 -34 40 -34 48 0 8 14 49 32 92 31
76 32 109 4 109 -20 0 -50 -45 -70 -104 -32 -96 -14 -156 61 -206 26 -18 62
-45 78 -60 58 -54 106 -80 146 -80 43 0 54 -9 101 -84 35 -55 82 -89 115 -83
35 6 42 -5 53 -83 18 -126 80 -193 197 -212 38 -6 74 -15 80 -21 8 -6 12 -35
11 -82 -2 -102 30 -166 115 -234 154 -122 297 -308 312 -403 4 -28 27 -60 97
-138 76 -85 88 -104 77 -114 -163 -152 -233 -200 -308 -212 -40 -6 -43 -5 -37
12 8 27 -9 83 -31 100 -27 21 -79 17 -132 -10 l-48 -25 -22 54 c-31 74 -42 81
-79 50 -16 -13 -37 -41 -47 -61 l-17 -36 -44 43 -45 44 33 27 c18 16 57 44 85
64 51 34 69 62 61 100 -4 25 -23 28 -43 7 -13 -12 -38 -19 -87 -21 -78 -5 -98
5 -98 50 0 34 -17 43 -64 34 -48 -9 -83 -49 -104 -120 -10 -34 -24 -62 -33
-64 -7 -1 -33 15 -57 35 l-44 38 33 69 c18 38 34 91 37 117 l5 49 -32 0 c-82
0 -138 -50 -149 -134 l-7 -57 -57 41 c-34 24 -58 49 -58 59 0 10 18 30 43 45
23 15 53 42 66 61 20 30 23 44 19 100 -3 57 -8 69 -37 99 -18 19 -36 49 -40
68 -7 32 -8 33 -61 36 -68 3 -111 -20 -140 -78 -11 -22 -22 -40 -25 -40 -8 0
-35 58 -35 76 0 9 12 30 27 48 57 67 94 192 62 212 -14 8 -104 -79 -136 -134
-15 -26 -32 -42 -41 -40 -24 5 -25 22 -2 47 26 31 35 81 24 144 -7 43 -13 53
-31 55 -18 3 -22 10 -21 42 1 82 -60 136 -141 125 l-48 -6 -5 63 c-8 93 -56
179 -93 164 -22 -8 -63 -100 -76 -172 -7 -32 -15 -63 -19 -67 -11 -12 -119 17
-163 43 -21 12 -37 23 -37 25 0 1 25 15 55 30 63 30 85 63 85 124 0 56 -18 92
-44 89 -16 -2 -22 3 -24 22 -7 70 -16 93 -44 126 -38 43 -70 60 -129 69 l-47
7 2 71 1 72 -55 0 c-69 0 -110 -28 -145 -99 -23 -46 -25 -48 -25 -20 0 48 -11
74 -31 74 -13 0 -19 -11 -24 -44 -15 -99 12 -155 165 -339 44 -54 100 -110
122 -125 23 -15 67 -53 97 -85 59 -60 131 -97 194 -97 45 0 77 -10 77 -24 0
-7 11 -27 25 -46 13 -18 31 -56 40 -85 25 -87 116 -185 171 -185 11 0 42 -11
69 -25 28 -13 57 -25 66 -25 22 0 35 -18 42 -58 4 -18 20 -52 36 -75 16 -23
42 -71 59 -107 16 -36 41 -80 56 -99 14 -19 26 -39 26 -44 0 -35 128 -146 193
-167 20 -6 61 -29 90 -51 88 -67 262 -138 301 -123 17 6 137 -104 167 -153 38
-62 23 -125 -48 -204 -65 -72 -139 -92 -161 -44 -7 14 -12 35 -12 46 0 27 -33
89 -59 113 -21 19 -22 19 -36 0 -22 -29 -28 -78 -16 -134 12 -57 9 -70 -18
-70 -23 0 -37 17 -46 55 -16 66 -79 148 -99 128 -12 -12 -6 -114 9 -150 20
-46 19 -53 -4 -53 -24 0 -56 42 -107 140 l-39 75 -3 -87 c-3 -101 4 -96 -105
-72 -108 23 -167 44 -167 59 0 34 -59 24 -117 -21 -39 -29 -59 -30 -73 -4 -16
30 -4 56 35 79 40 23 52 67 36 128 -23 84 -62 81 -98 -8 -16 -41 -27 -55 -45
-57 -43 -4 -53 11 -39 61 11 37 10 54 -3 108 -9 34 -19 65 -21 68 -3 2 -22 -1
-44 -7 -21 -7 -40 -12 -43 -12 -3 0 -5 27 -5 60 -1 79 -28 136 -63 132 -44 -4
-129 -52 -152 -85 -19 -27 -22 -43 -21 -99 1 -38 1 -68 0 -68 -1 0 -38 7 -82
15 -106 19 -115 19 -115 -4 0 -26 61 -49 164 -63 58 -8 94 -19 126 -39 49 -30
166 -85 245 -114 56 -21 65 -30 65 -65 0 -14 11 -49 25 -77 23 -51 23 -53 5
-63 -10 -5 -53 -10 -95 -10 -73 0 -76 1 -86 28 -29 75 -32 77 -88 80 -57 3
-101 -16 -101 -44 0 -12 -6 -15 -21 -11 -30 8 -126 -11 -171 -34 -55 -28 -61
-64 -17 -101 l33 -28 -59 0 c-33 0 -100 5 -149 11 -72 9 -90 8 -97 -3 -39 -61
279 -93 406 -41 170 69 189 75 310 84 66 5 139 11 161 15 40 6 43 4 78 -42 20
-26 54 -60 77 -77 43 -32 59 -60 59 -106 0 -17 14 -46 35 -72 19 -24 35 -51
35 -60 0 -44 132 -122 239 -140 41 -8 81 -24 121 -50 34 -21 65 -39 69 -39 5
0 31 -18 57 -40 60 -49 114 -67 261 -82 73 -7 114 -16 117 -24 3 -7 1 -39 -4
-71 -13 -78 -12 -227 3 -348 16 -130 15 -135 -33 -135 -49 0 -70 21 -70 69 0
20 -6 45 -14 56 -12 17 -32 18 -96 3 -12 -2 -14 9 -12 68 3 54 0 73 -12 83
-36 30 -170 -26 -183 -77 -9 -34 -6 -56 14 -110 9 -23 13 -46 9 -50 -10 -9
-152 -9 -162 1 -4 4 0 30 10 58 25 69 13 219 -17 219 -20 0 -158 -92 -174
-116 -11 -17 -14 -39 -11 -74 3 -28 3 -50 1 -50 -5 0 -52 26 -73 39 -11 8 -4
20 38 65 60 64 68 79 77 167 l7 66 -63 -8 c-87 -12 -144 -35 -174 -70 -20 -25
-25 -41 -25 -88 0 -76 -14 -94 -60 -81 -51 14 -123 62 -139 93 -13 25 -12 29
43 92 31 37 56 71 56 75 0 20 -49 34 -111 31 -36 -1 -71 -40 -83 -92 -9 -35
-16 -45 -35 -47 -40 -6 -45 11 -22 78 l21 61 -22 40 c-12 21 -30 42 -41 45
-30 9 -104 -5 -129 -25 -22 -18 -22 -20 -8 -82 7 -35 14 -77 14 -94 1 -29 -1
-30 -47 -33 -26 -2 -47 0 -47 3 0 3 9 23 20 45 29 57 26 116 -9 172 -16 25
-34 49 -40 53 -30 18 -80 -73 -81 -146 0 -25 -6 -54 -14 -64 -14 -19 -15 -19
-50 -2 l-36 17 40 76 c47 90 52 133 15 169 -42 43 -127 23 -165 -37 -21 -33
-22 -76 -4 -150 9 -37 -15 -47 -138 -56 -94 -6 -103 -9 -103 -27 0 -19 7 -20
150 -21 111 0 163 -4 200 -17 28 -9 68 -19 90 -23 22 -4 51 -15 65 -25 33 -24
52 -25 191 -16 153 11 176 6 246 -55 67 -59 123 -85 208 -97 34 -5 99 -25 144
-45 135 -59 347 -103 433 -90 l41 7 -7 -46 c-4 -25 -2 -63 3 -84 12 -43 71
-106 114 -122 63 -24 148 -3 224 55 l32 24 15 -22 c39 -62 24 -133 -34 -163
-57 -30 -77 -98 -45 -155 25 -44 19 -59 -37 -85 -28 -13 -55 -22 -59 -20 -3 3
-9 22 -12 43 -7 42 -45 84 -92 102 -16 6 -65 16 -108 21 -43 5 -96 17 -117 25
-21 8 -55 14 -76 12 -53 -4 -64 -30 -64 -145 0 -51 -2 -93 -5 -93 -6 0 -109
41 -113 45 -2 2 6 22 18 45 12 24 20 55 18 73 -5 48 -39 56 -126 27 -67 -22
-72 -22 -111 -6 -23 9 -54 16 -70 16 -39 0 -88 -18 -95 -35 -5 -15 18 -115 34
-145 18 -35 11 -48 -36 -64 -26 -9 -50 -14 -54 -11 -4 2 -10 27 -13 56 -4 28
-15 65 -25 82 -17 29 -23 32 -68 32 -60 -1 -123 -30 -144 -67 -13 -24 -13 -30
2 -60 8 -19 35 -47 59 -63 24 -16 46 -31 49 -33 3 -2 -8 -15 -23 -28 -26 -22
-37 -24 -133 -24 -82 0 -104 -3 -104 -14 0 -30 32 -41 124 -41 95 1 122 9 191
60 36 27 50 32 140 55 39 10 93 27 120 38 28 11 68 24 90 30 22 5 54 16 72 23
28 11 37 10 80 -9 26 -11 75 -28 108 -37 33 -9 80 -28 105 -43 38 -22 57 -26
118 -26 66 1 81 5 155 44 45 23 111 53 145 67 35 13 81 32 102 43 22 11 51 20
65 20 33 0 196 -40 212 -52 6 -5 40 -57 75 -116 62 -105 151 -231 269 -380
106 -132 123 -190 70 -235 -37 -31 -92 -42 -136 -27 -29 10 -37 20 -60 80 -31
81 -45 96 -74 80 -28 -14 -44 -46 -51 -100 -6 -50 -29 -68 -103 -78 l-40 -5 7
34 c3 19 9 72 12 119 10 150 -42 200 -126 124 -87 -79 -105 -169 -55 -274 34
-72 29 -80 -50 -80 -56 0 -118 26 -123 52 -2 9 15 44 38 76 l42 59 -3 86 c-6
129 -34 146 -113 70 -48 -47 -56 -68 -56 -151 0 -43 -5 -75 -15 -88 -19 -29
-120 -50 -177 -38 l-42 9 -1 110 c0 107 -14 165 -38 165 -16 0 -82 -74 -100
-112 -24 -50 -22 -129 3 -161 26 -33 25 -38 -7 -69 -39 -36 -66 -48 -109 -48
-41 0 -114 19 -114 30 0 4 11 27 24 51 25 46 50 126 60 193 l5 38 -41 -6
c-106 -17 -158 -82 -158 -198 0 -40 -5 -69 -12 -76 -7 -5 -37 -17 -67 -26 -42
-12 -63 -14 -93 -5 -47 12 -55 27 -34 68 9 16 16 45 16 62 0 47 -38 118 -74
140 -92 56 -131 -19 -86 -163 11 -34 20 -64 20 -66 0 -2 -19 -2 -42 0 -41 3
-43 4 -45 38 -8 110 -16 142 -39 170 -28 33 -81 48 -112 31 -45 -24 -35 -154
18 -233 l29 -42 -27 -18 c-65 -44 -146 -43 -185 0 -15 17 -14 22 18 67 40 55
55 100 48 139 -6 31 -56 76 -84 76 -46 0 -89 -78 -89 -161 0 -56 -25 -79 -94
-86 l-59 -6 7 131 8 131 -54 -13 c-99 -23 -148 -62 -148 -118 0 -40 18 -79 53
-116 24 -25 28 -35 19 -44 -13 -13 -101 -16 -145 -5 -27 7 -27 8 -27 90 -1
158 -23 197 -115 197 -38 0 -60 -6 -79 -21 -61 -48 -52 -112 30 -215 30 -37
54 -73 54 -80 0 -18 -49 -54 -72 -54 -31 0 -59 18 -124 81 l-60 59 43 86 c57
115 57 124 -7 124 -56 0 -104 -20 -120 -49 -5 -11 -10 -45 -10 -75 0 -52 -2
-56 -26 -62 -40 -10 -138 21 -242 77 -91 49 -122 55 -122 25 0 -24 37 -52 125
-96 65 -32 100 -43 171 -51 133 -16 130 -15 200 -80 115 -107 177 -119 270
-53 45 32 51 34 136 34 63 0 105 6 147 21 52 17 142 29 244 31 15 1 38 -8 50
-19 45 -42 86 -55 157 -51 53 3 76 10 116 35 92 59 180 66 292 23 66 -25 123
-25 204 0 77 24 86 24 129 3 23 -12 57 -18 105 -18 74 0 81 3 201 90 15 12 51
17 135 19 62 2 127 6 144 10 25 7 36 2 73 -28 85 -71 213 -75 291 -10 22 19
49 28 98 35 37 5 94 17 127 28 53 17 64 17 105 5 25 -8 79 -14 120 -14 89 0
127 18 162 79 13 23 27 41 32 41 13 0 186 -175 186 -189 0 -13 -41 -31 -71
-31 -14 0 -26 15 -44 55 -20 46 -28 55 -49 55 -29 0 -106 -68 -106 -93 0 -20
25 -46 68 -69 18 -9 32 -24 32 -33 0 -37 -171 -79 -244 -61 -26 6 -26 8 -26
96 0 87 -1 90 -23 90 -13 0 -42 -16 -65 -36 -41 -35 -42 -37 -42 -98 0 -39 -6
-69 -15 -83 -15 -22 -125 -63 -166 -63 -17 0 -17 3 -4 41 21 60 19 79 -7 79
-27 0 -93 -31 -128 -58 -21 -18 -23 -23 -12 -47 18 -39 16 -43 -32 -50 -51 -8
-86 7 -86 36 0 27 -40 119 -52 119 -19 0 -86 -40 -92 -55 -10 -28 -7 -65 10
-96 8 -17 13 -37 10 -44 -7 -19 -99 -38 -148 -30 -72 12 -95 29 -103 75 -5 33
-15 46 -43 65 -21 12 -48 26 -61 30 -23 7 -24 6 -18 -36 4 -24 9 -56 13 -71 5
-24 3 -28 -21 -34 -33 -8 -59 5 -64 32 -5 31 -43 114 -51 114 -14 0 -34 -64
-35 -113 -1 -42 -6 -53 -31 -73 -38 -31 -49 -30 -73 9 -29 48 -88 100 -104 94
-19 -7 -28 -57 -20 -112 7 -55 -12 -68 -64 -39 -44 23 -121 108 -125 137 -2
14 -10 22 -23 22 -31 0 -31 -48 -1 -99 50 -85 119 -126 213 -126 52 0 193 43
252 77 30 18 52 23 72 19 16 -3 53 0 83 6 47 9 59 8 92 -8 26 -13 40 -28 45
-48 5 -15 19 -45 33 -65 14 -20 34 -72 45 -116 41 -163 153 -342 323 -515 45
-47 191 -180 323 -295 304 -264 448 -410 525 -529 98 -153 120 -179 184 -226
51 -38 61 -50 61 -75 0 -25 -4 -31 -27 -33 -54 -6 -278 102 -688 334 -264 148
-392 212 -483 240 -54 17 -59 17 -93 1 -19 -10 -34 -23 -32 -30 2 -6 69 -45
149 -85 79 -41 273 -146 432 -234 297 -165 461 -247 582 -291 100 -36 126 -49
122 -61 -7 -19 -68 -8 -196 34 -307 101 -454 164 -977 419 -161 78 -308 145
-328 148 -35 5 -96 -12 -96 -27 0 -12 41 -36 233 -135 424 -219 745 -358 1067
-465 l235 -78 -3 -43 c-2 -24 -5 -45 -8 -48 -2 -3 -47 17 -99 43 -105 54 -162
63 -192 33 -27 -27 -8 -46 98 -100 132 -68 159 -85 159 -98 0 -33 -217 25
-418 113 -133 58 -162 65 -202 48 -65 -27 -30 -55 160 -129 146 -57 329 -111
375 -111 18 0 43 -8 56 -19 21 -16 22 -22 11 -45 -8 -18 -20 -27 -39 -28 -116
-7 -386 21 -908 93 -687 95 -746 102 -781 89 -13 -5 -24 -16 -24 -24 0 -21 44
-34 165 -51 61 -8 307 -42 549 -75 241 -33 530 -72 643 -85 121 -15 217 -32
236 -41 22 -12 45 -15 84 -10 l53 6 0 -57 c0 -32 -3 -82 -6 -110 -8 -63 -12
-64 -108 -28 -36 14 -105 32 -151 40 -102 18 -708 75 -794 75 -58 0 -61 -1
-61 -25 0 -51 105 -74 465 -100 341 -24 454 -44 556 -95 71 -37 133 -139 98
-161 -17 -11 -37 -7 -260 42 -199 44 -258 48 -282 21 -10 -10 -17 -21 -17 -25
0 -19 147 -57 394 -102 157 -29 199 -44 122 -45 -26 0 -140 20 -252 45 -111
25 -214 45 -227 45 -28 0 -82 -39 -70 -50 29 -26 252 -79 463 -110 79 -11 148
-24 151 -28 8 -7 40 -124 36 -129 -6 -6 -303 28 -412 47 -189 33 -491 105
-829 197 -577 157 -656 171 -656 118 0 -29 103 -65 522 -179 652 -178 916
-234 1255 -266 133 -12 142 -15 154 -47 16 -41 11 -43 -58 -17 -94 36 -149 45
-170 28 -27 -19 -6 -45 53 -67 27 -10 90 -42 141 -70 90 -51 93 -53 123 -119
46 -98 42 -107 -60 -142 -76 -27 -98 -30 -210 -30 -102 -1 -137 3 -193 21 -75
25 -97 22 -97 -13 0 -32 33 -51 116 -69 126 -27 311 -16 432 26 75 26 109 25
118 -3 4 -13 1 -26 -7 -32 -8 -7 -19 -20 -25 -31 -5 -10 -28 -24 -50 -30 -25
-7 -38 -17 -36 -26 2 -8 7 -15 12 -17 22 -8 60 -44 55 -53 -9 -13 -127 -47
-229 -65 -76 -14 -107 -26 -190 -72 -99 -56 -99 -56 -210 -63 -172 -12 -240
-37 -480 -177 -161 -93 -253 -136 -340 -158 -67 -17 -92 -38 -65 -55 35 -23
205 33 349 115 52 29 140 79 195 109 54 31 126 66 160 78 57 20 235 39 235 25
0 -3 -6 -15 -12 -26 -10 -15 -10 -22 -1 -31 9 -9 24 -6 65 14 61 30 82 23 58
-21 -27 -47 -104 -94 -383 -234 -150 -76 -282 -147 -293 -159 l-19 -22 31 6
c17 3 159 69 315 145 334 164 376 194 390 281 11 72 23 84 77 78 69 -8 96 -34
100 -95 3 -58 2 -60 -124 -107 -94 -35 -148 -73 -299 -210 -252 -228 -344
-289 -453 -303 -50 -6 -57 -10 -60 -31 -4 -24 -3 -24 68 -18 130 11 246 82
455 279 137 128 214 189 280 219 74 34 115 45 115 30 0 -27 -67 -175 -116
-256 -53 -89 -63 -118 -45 -129 18 -11 37 5 81 70 56 82 83 104 129 104 84 1
170 72 205 169 26 74 53 91 139 91 l71 0 -40 -42 c-60 -63 -82 -99 -109 -178
-13 -38 -30 -78 -37 -89 -8 -10 -58 -55 -113 -99 -55 -44 -111 -92 -124 -106
-23 -24 -23 -26 -5 -26 10 0 25 -4 33 -9 12 -7 10 -14 -8 -36 -11 -15 -21 -32
-21 -36 0 -19 41 -7 73 21 31 27 41 30 103 30 38 0 76 -5 84 -10 12 -7 16 -46
21 -197 4 -103 7 -189 8 -190 0 -2 17 -3 36 -3 50 0 93 25 101 58 4 15 23 62
42 105 25 56 38 75 46 67 17 -17 10 -142 -13 -254 -23 -107 -25 -136 -13 -136
31 0 62 170 71 391 5 106 13 195 20 207 6 12 24 25 39 29 36 10 108 10 118 0
4 -4 -5 -60 -19 -125 -35 -153 -47 -258 -47 -412 0 -137 5 -170 26 -170 16 0
21 19 29 120 8 90 12 99 84 175 80 85 106 122 126 183 19 59 41 75 61 47 11
-14 14 -67 14 -223 l0 -205 -43 -51 c-80 -95 -95 -126 -57 -126 10 0 41 23 67
51 26 29 71 75 99 103 53 53 83 117 106 220 14 62 16 240 4 318 l-8 57 33 20
c51 31 85 27 109 -11 38 -62 63 -142 63 -198 0 -36 -16 -107 -47 -208 -54
-179 -67 -262 -43 -262 21 0 48 73 136 376 23 80 45 105 92 107 47 3 60 -27
57 -128 -3 -75 -6 -86 -47 -155 -99 -168 -114 -198 -137 -267 -29 -87 -31
-164 -5 -207 11 -17 26 -77 35 -135 9 -58 21 -110 27 -118 16 -18 65 -17 73 2
3 9 -1 71 -10 138 -20 156 -16 184 40 266 44 63 248 292 268 299 9 4 93 -59
116 -87 7 -9 12 -46 12 -99 l0 -84 25 4 c22 5 25 2 25 -21 0 -31 16 -51 41
-51 41 0 42 17 24 293 -10 144 -16 274 -12 288 8 30 52 55 64 36 4 -7 22 -44
40 -84 68 -156 197 -321 307 -395 117 -78 155 -131 176 -247 19 -108 47 -141
72 -85 20 43 -13 179 -77 314 -29 63 -57 126 -60 140 -12 40 -46 104 -63 116
-19 14 -31 134 -14 134 6 0 14 -5 18 -11 3 -6 25 -19 48 -29 22 -9 49 -26 58
-36 9 -11 57 -96 106 -191 103 -197 130 -239 144 -225 19 19 -3 101 -58 212
l-54 111 46 80 c26 45 53 83 60 86 8 3 25 -2 39 -11 25 -16 65 -22 65 -9 0 4
-25 30 -55 58 -55 51 -63 67 -46 94 8 12 20 7 63 -26 29 -23 65 -45 81 -48 57
-15 64 -36 101 -295 24 -167 82 -345 111 -342 21 3 15 56 -20 163 -40 124 -42
162 -9 167 16 2 34 -11 65 -49 90 -108 176 -192 239 -233 75 -50 129 -71 143
-57 15 15 -3 32 -113 110 -166 119 -197 164 -235 343 -19 91 -50 140 -123 198
-64 52 -72 65 -72 130 0 55 3 58 60 62 l35 3 25 -77 c15 -42 33 -84 41 -94 24
-29 111 -64 159 -64 84 0 120 -51 121 -172 1 -89 18 -152 43 -156 16 -3 18 3
15 74 -3 63 -1 79 13 87 24 16 44 -5 64 -66 37 -114 79 -166 173 -212 67 -34
175 -55 193 -37 19 19 -30 61 -83 73 -24 6 -65 24 -91 40 -55 36 -121 105
-115 122 6 18 47 9 87 -18 72 -50 324 -136 350 -120 27 17 -40 57 -155 95 -93
30 -142 56 -159 83 -7 12 -16 54 -19 93 -3 38 -15 112 -27 163 -12 51 -19 95
-15 99 11 11 112 -49 176 -105 95 -83 150 -102 195 -68 31 23 51 18 99 -26 42
-38 71 -89 120 -206 12 -29 24 -43 37 -43 22 0 23 25 3 99 -16 60 -13 71 16
71 52 0 125 -58 259 -208 64 -71 100 -90 100 -54 0 20 -77 120 -154 200 -68
71 -119 100 -206 116 -59 12 -79 21 -109 49 -20 19 -59 47 -88 61 -56 28 -63
40 -78 151 -9 62 -18 80 -63 127 -82 86 17 70 293 -47 84 -36 157 -65 163 -65
6 0 50 -31 99 -70 48 -38 120 -86 160 -105 87 -44 165 -124 223 -229 46 -83
72 -111 96 -102 40 16 -21 149 -130 283 -40 49 -73 101 -87 138 -24 67 -83
132 -181 200 -32 22 -60 46 -63 54 -25 64 114 -23 366 -230 147 -121 266 -199
304 -199 31 0 12 19 -82 83 -54 36 -133 95 -176 132 -127 108 -257 204 -333
246 -88 49 -94 56 -142 159 -61 131 -60 130 -14 130 42 0 56 -11 106 -87 41
-62 190 -202 276 -259 165 -110 406 -244 440 -244 33 0 22 27 -23 58 -23 16
-107 67 -187 114 -352 208 -501 359 -526 532 l-7 48 73 -51 c102 -72 242 -111
289 -82 19 12 -19 35 -83 50 -58 14 -109 39 -193 95 -68 44 -76 56 -39 56 36
0 86 21 86 36 0 18 -32 34 -67 34 -39 1 -109 34 -123 60 -19 35 -9 93 19 106
57 29 159 -31 333 -193 72 -68 143 -123 189 -149 41 -23 120 -67 176 -98 124
-69 164 -105 188 -171 40 -111 89 -113 60 -4 -30 119 -72 158 -282 262 -138
68 -141 70 -304 216 -203 183 -279 220 -389 187 -70 -21 -104 -21 -96 -1 15
40 88 135 104 135 9 0 49 -7 87 -15 78 -16 163 -19 183 -6 8 5 12 17 10 27 -4
23 -98 60 -181 70 -31 3 -60 10 -63 15 -2 5 7 32 21 60 l27 52 51 -6 c29 -4
115 -18 192 -31 231 -42 365 -33 365 24 0 22 -15 26 -170 40 -188 17 -380 67
-380 99 0 5 8 19 18 31 17 21 23 22 227 21 116 -1 216 3 223 8 8 4 12 19 10
31 -4 33 -32 38 -236 49 -95 5 -175 11 -178 14 -11 11 26 78 48 86 13 4 110
11 216 15 199 7 255 17 233 39 -13 13 -128 25 -281 27 -58 1 -116 5 -130 9
-32 9 -37 40 -11 72 l19 24 274 5 c150 3 279 9 285 13 7 5 13 14 13 21 0 19
-90 26 -351 26 -263 0 -236 -14 -218 117 14 111 13 109 77 127 86 24 389 82
552 105 188 28 204 32 208 59 3 18 -1 22 -25 22 -48 0 -404 -58 -565 -91 -84
-18 -167 -34 -184 -36 -35 -5 -46 9 -33 43 6 19 32 26 221 63 117 22 341 63
497 90 156 27 288 54 293 59 6 6 7 16 3 22 -13 21 -135 5 -575 -75 -228 -42
-422 -77 -430 -78 -12 -2 -15 10 -15 53 l0 55 120 17 c366 53 442 67 475 88
13 8 13 11 -2 26 -19 20 -53 17 -391 -26 -137 -18 -174 -20 -195 -10 l-27 12
23 19 c34 27 182 72 442 135 264 64 340 86 438 126 72 30 95 58 48 58 -41 0
-551 -138 -664 -179 -109 -40 -265 -81 -275 -72 -12 11 -48 212 -45 249 3 33
6 35 103 71 155 59 269 109 695 306 217 100 440 202 494 225 115 49 146 67
146 86 0 45 -140 -10 -685 -266 -483 -228 -718 -325 -766 -318 -26 3 -45 46
-51 113 l-3 37 225 69 c347 108 552 196 580 249 18 34 -27 25 -152 -31 -116
-53 -508 -187 -610 -209 -94 -21 -120 4 -40 38 57 24 249 82 273 82 9 0 22 7
29 16 11 12 11 18 -2 30 -13 13 -33 10 -173 -26 -87 -22 -168 -40 -181 -40
-24 0 -70 48 -57 61 4 4 119 58 255 118 307 137 328 148 328 167 0 33 -83 5
-418 -143 -107 -46 -195 -83 -197 -81 -11 12 -35 70 -35 83 0 23 73 52 153 60
75 8 115 31 104 59 -5 13 -16 16 -44 14 -29 -2 -38 1 -41 15 -6 31 16 45 131
83 166 55 216 84 172 100 -20 8 -198 -46 -388 -117 -87 -32 -168 -59 -179 -59
-39 0 -14 33 42 55 30 12 75 35 100 52 25 17 106 63 180 103 74 40 154 86 177
102 43 29 56 58 27 58 -9 0 -139 -63 -290 -140 -150 -77 -283 -140 -294 -140
-11 0 -24 8 -27 17 -10 24 33 56 217 158 216 120 300 185 241 185 -26 0 -91
-32 -307 -151 -184 -102 -212 -111 -243 -80 -12 12 -21 25 -21 29 0 18 42 44
245 152 230 123 298 166 292 183 -6 18 -30 10 -113 -39 -168 -99 -466 -240
-485 -228 -25 15 38 62 271 199 170 100 270 168 270 185 0 17 -39 11 -83 -11
-23 -12 -148 -82 -277 -157 -129 -74 -238 -137 -242 -139 -9 -5 -108 86 -108
98 0 16 164 150 283 230 108 74 141 109 101 109 -33 0 -208 -124 -344 -244
-41 -36 -77 -66 -81 -66 -16 0 -99 77 -99 92 0 20 127 177 166 205 16 12 24
25 20 32 -12 19 -44 -4 -148 -107 -102 -100 -117 -106 -140 -57 -25 56 54 279
124 353 41 41 92 60 383 138 132 36 293 81 357 100 165 50 201 41 162 -42 -19
-39 -13 -38 -125 -18 -24 4 -39 2 -44 -6 -11 -18 12 -54 48 -75 40 -23 47 -33
47 -67 0 -30 38 -65 79 -74 80 -18 90 -24 97 -62 8 -47 25 -74 75 -119 44 -40
69 -81 69 -112 0 -33 47 -80 88 -86 20 -3 52 -8 70 -11 26 -4 32 -9 32 -30 0
-68 42 -113 120 -128 28 -5 39 -15 55 -48 25 -53 59 -77 126 -92 44 -10 54
-17 59 -37 9 -35 31 -30 54 14 12 21 41 50 69 67 51 32 107 109 107 148 0 29
-28 79 -48 87 -24 9 -116 -22 -139 -47 -27 -29 -43 -70 -43 -113 0 -49 -9 -65
-37 -65 -37 0 -63 18 -62 43 1 12 -1 29 -5 39 -6 12 7 26 51 56 32 22 65 47
72 56 16 19 17 131 2 150 -7 8 -32 17 -56 21 -59 8 -75 26 -75 81 0 61 -24 84
-88 84 -59 0 -72 12 -72 66 0 31 -7 51 -24 71 l-24 27 -53 -24 c-84 -40 -106
-63 -130 -141 l-21 -69 -39 22 c-67 37 -100 116 -59 139 8 5 40 18 71 29 74
27 140 71 162 109 18 31 18 31 -7 56 -20 20 -35 25 -73 25 -64 -1 -122 -28
-188 -91 -43 -41 -62 -52 -86 -51 -44 1 -55 14 -40 51 10 22 31 39 87 66 78
39 129 88 142 139 6 23 16 32 47 41 49 13 52 36 7 50 -18 5 -31 14 -29 20 2 5
53 36 113 69 60 32 157 89 215 127 58 38 111 69 118 69 7 0 45 -21 84 -46 40
-25 107 -66 150 -90 60 -35 84 -56 105 -90 20 -33 41 -52 80 -71 29 -14 57
-33 61 -42 5 -9 14 -49 20 -89 20 -132 59 -195 144 -235 53 -25 54 -26 60 -77
8 -69 100 -225 160 -272 50 -38 56 -48 78 -111 27 -81 118 -156 189 -157 27 0
118 -49 139 -74 7 -8 16 -45 21 -81 10 -79 34 -124 80 -147 37 -19 96 -23 119
-9 24 15 5 38 -37 44 -21 4 -51 16 -65 27 -30 24 -52 90 -42 127 5 23 9 24 53
18 68 -9 87 8 86 77 -3 146 -102 170 -168 41 -18 -36 -36 -42 -56 -18 -11 14
-7 22 27 58 50 52 63 76 63 119 0 46 -47 118 -93 143 -34 18 -37 18 -56 1 -30
-27 -63 -113 -68 -180 -3 -34 -10 -66 -15 -72 -25 -33 -110 44 -112 101 -1 39
-1 39 69 73 52 25 81 83 90 181 l7 74 -67 -8 c-80 -8 -85 -4 -85 73 0 128
-116 121 -216 -13 l-45 -60 3 49 c3 47 5 51 43 70 25 13 47 34 57 57 17 33 17
42 3 140 -9 57 -20 118 -26 135 -14 44 -50 74 -95 80 -81 11 -84 13 -84 44 0
16 -9 52 -20 80 -11 28 -20 53 -20 55 0 3 34 5 76 5 64 0 83 -4 121 -26 39
-24 60 -28 176 -35 72 -4 159 -11 193 -14 52 -6 62 -5 68 10 10 27 106 11 168
-27 85 -53 210 -82 247 -59 27 17 4 38 -51 45 -60 8 -126 35 -147 59 -10 13
-11 24 -2 48 30 86 -1 171 -73 198 -36 14 -40 13 -52 -4 -9 -12 -14 -47 -14
-103 0 -99 -5 -101 -71 -16 -26 34 -55 60 -67 62 -26 4 -27 -7 -7 -74 19 -61
19 -74 1 -74 -16 0 -31 41 -41 110 -20 140 -72 204 -142 175 -65 -27 -69 -149
-9 -228 55 -73 55 -71 0 -63 -58 7 -144 34 -144 45 0 4 18 25 40 46 22 21 40
44 40 50 0 25 -128 98 -163 93 -29 -4 -47 -43 -47 -100 0 -59 -20 -74 -80 -58
-45 12 -76 46 -90 102 -14 50 -33 57 -87 28 -52 -28 -96 -80 -125 -149 -17
-42 -25 -51 -46 -51 -50 0 -182 106 -182 146 0 30 33 78 110 159 48 52 83 98
90 122 7 21 31 81 53 133 22 52 49 124 61 159 26 79 51 100 137 110 35 5 104
25 152 45 l88 36 46 -20 c56 -25 64 -25 110 0 30 16 57 20 133 20 92 0 97 1
122 28 14 15 33 41 41 58 21 41 80 65 174 70 40 2 95 13 123 24 28 11 58 20
68 20 38 0 93 22 148 60 33 22 64 40 70 40 5 0 40 18 77 40 36 22 72 40 80 40
8 0 55 -28 103 -63 121 -86 194 -129 326 -191 135 -64 185 -82 195 -72 17 17
-23 46 -174 126 -176 93 -283 157 -283 169 0 4 13 17 30 29 29 22 30 24 30
113 0 50 -5 99 -10 110 -14 25 -50 24 -101 -2 -23 -11 -42 -19 -42 -17 -24 49
-53 57 -124 37 -57 -16 -93 -44 -93 -75 0 -13 12 -49 27 -80 27 -55 28 -56 9
-70 -32 -23 -46 -17 -46 19 0 17 -4 37 -8 44 -14 22 -85 45 -142 46 -74 2
-116 -17 -130 -57 -8 -25 -22 -38 -59 -56 -61 -28 -77 -57 -57 -104 8 -19 19
-37 25 -40 18 -11 13 -36 -8 -36 -28 0 -39 19 -50 89 -8 47 -18 72 -37 93 -33
34 -60 44 -79 28 -21 -17 -28 -88 -15 -140 17 -67 17 -94 0 -98 -10 -2 -24 14
-38 43 -27 55 -73 87 -122 83 -35 -3 -35 -4 -38 -53 -3 -59 25 -111 73 -134
l29 -14 -27 -23 c-29 -24 -87 -40 -112 -30 -21 8 -35 49 -35 102 0 52 -19 94
-56 123 -38 30 -60 27 -73 -10 -17 -48 -13 -82 14 -155 27 -71 26 -84 -8 -84
-42 0 -50 14 -48 80 3 78 -13 104 -85 136 -83 37 -88 35 -81 -36 3 -41 15 -77
36 -114 l30 -54 -73 -31 c-40 -17 -99 -33 -129 -37 l-56 -7 1 374 c1 292 -3
403 -15 504 -21 161 -21 155 1 155 48 0 212 -147 212 -190 0 -11 -11 -37 -25
-58 -40 -60 -58 -192 -26 -192 15 0 90 59 107 84 8 14 18 44 21 66 7 49 27 48
31 -1 8 -113 26 -125 86 -59 31 35 36 47 36 90 l0 50 43 0 c43 0 102 -13 125
-28 10 -7 5 -25 -23 -82 -41 -88 -36 -97 50 -81 111 21 144 53 114 113 -28 55
-24 74 19 102 49 32 91 41 98 22 3 -8 -4 -47 -15 -88 -49 -178 -21 -207 99
-100 l45 40 -3 80 c-3 95 9 115 67 110 l36 -3 -2 -60 c-1 -33 -4 -73 -7 -89
l-6 -29 52 7 c102 14 124 39 103 119 -11 43 -10 49 6 57 28 16 71 12 107 -10
45 -28 48 -43 17 -95 -14 -25 -25 -53 -23 -63 4 -20 48 -30 98 -22 35 5 35 6
38 60 4 64 10 74 73 105 l47 24 4 -51 c8 -77 42 -84 104 -21 35 35 45 78 23
100 -7 7 -9 19 -6 27 13 33 157 7 157 -29 0 -6 -9 -20 -20 -30 -34 -31 -27
-87 16 -135 20 -22 44 -40 54 -40 23 0 41 44 49 118 l6 57 92 3 c77 2 105 -1
168 -23 81 -27 95 -26 95 6 0 14 -13 26 -42 39 -54 23 -84 28 -233 39 -96 7
-131 14 -175 35 -81 38 -167 37 -230 -4 -26 -16 -72 -39 -102 -49 -31 -11 -67
-26 -80 -35 -24 -16 -27 -15 -63 14 -20 16 -53 32 -72 36 -55 10 -319 -5 -365
-22 -22 -8 -68 -14 -102 -14 -80 0 -116 -11 -166 -51 l-41 -33 -72 13 c-136
25 -183 26 -222 2 -37 -21 -72 -27 -90 -13 -6 4 -17 20 -25 36 -8 16 -45 62
-82 102 -38 39 -68 75 -68 79 0 4 11 18 25 31 44 41 33 97 -34 167 l-36 39 45
39 c48 42 75 50 66 22 -3 -10 -8 -35 -12 -57 l-7 -39 97 5 c125 5 137 15 113
90 -9 28 -14 54 -12 56 2 3 15 -2 28 -11 21 -13 25 -26 29 -78 5 -67 24 -92
81 -105 42 -9 117 5 124 23 8 19 -19 70 -64 122 -18 22 -33 43 -33 49 0 20 58
93 98 122 l42 31 -15 -35 c-35 -82 -7 -149 80 -192 39 -19 63 -24 82 -19 36 9
89 68 121 137 l27 58 63 0 c58 0 66 3 93 31 63 68 60 162 -9 219 l-37 31 69
-3 69 -3 12 -55 c14 -69 40 -120 62 -120 27 0 198 106 227 141 40 47 36 89
-14 131 l-39 34 44 50 c55 61 65 52 58 -57 l-6 -79 47 0 c58 0 101 21 121 60
29 56 15 105 -44 156 -28 24 -25 55 9 95 l19 24 1 -47 c0 -39 5 -50 30 -72 37
-30 94 -49 135 -44 28 3 30 5 26 38 -3 19 -5 57 -5 85 -1 40 3 50 17 53 15 3
17 -5 17 -60 0 -68 14 -133 31 -144 13 -8 56 32 76 70 15 29 14 90 -2 143 -9
27 28 64 100 100 l50 25 -29 -30 c-26 -28 -27 -33 -15 -48 22 -26 73 -44 128
-44 58 0 71 14 71 79 0 30 -5 43 -20 51 -11 6 -20 14 -20 18 0 17 60 42 99 42
29 0 44 5 48 16 17 44 -90 47 -170 4 -31 -16 -70 -30 -87 -30 -40 0 -95 -29
-159 -83 -57 -49 -82 -57 -175 -57 -33 0 -88 -4 -121 -10 -63 -10 -91 -31
-126 -96 -10 -19 -37 -40 -73 -58 -58 -28 -107 -78 -116 -118 -5 -18 -17 -25
-55 -34 -28 -6 -72 -23 -100 -37 -36 -18 -77 -29 -145 -36 -112 -12 -184 -32
-231 -64 -47 -32 -61 -62 -53 -121 6 -44 4 -48 -12 -43 -11 3 -47 9 -81 12
-82 9 -134 -17 -215 -105 l-60 -65 -111 0 c-128 -1 -214 -24 -279 -76 -45 -36
-85 -45 -131 -30 -39 13 -40 15 -109 196 -27 71 -74 187 -105 258 -30 70 -53
133 -50 141 3 7 53 37 112 66 l107 53 121 2 c134 1 166 11 236 74 19 17 53 36
75 42 60 15 97 30 137 56 20 13 65 28 100 34 35 6 80 20 101 31 l38 22 52 -25
c64 -30 135 -31 198 -2 25 11 83 52 129 91 75 64 94 75 190 107 162 55 201 65
251 65 58 0 142 24 199 57 36 21 64 27 148 33 87 6 114 13 168 39 38 19 66 40
70 52 13 41 -10 42 -86 5 -44 -21 -100 -39 -136 -44 -35 -5 -63 -7 -63 -5 0 2
11 26 25 53 52 102 53 191 5 253 -62 79 -177 6 -210 -134 -15 -62 -7 -110 26
-149 15 -17 23 -37 20 -46 -10 -26 -156 -82 -156 -59 0 3 16 34 35 71 48 90
48 143 1 190 -28 28 -42 34 -75 34 -53 0 -88 -18 -135 -71 -36 -39 -38 -45
-32 -87 3 -25 17 -65 31 -90 18 -32 22 -48 15 -57 -12 -14 -112 -60 -154 -71
-27 -6 -29 -5 -22 17 15 47 18 137 6 173 -14 44 -57 70 -92 57 -37 -14 -96
-86 -104 -125 -8 -45 0 -78 33 -127 34 -52 26 -79 -40 -128 -67 -50 -109 -71
-142 -71 -27 0 -95 25 -95 35 0 3 29 47 65 97 69 95 84 131 68 157 -14 22
-101 26 -148 6 -51 -21 -68 -19 -111 10 -77 52 -168 18 -222 -83 -42 -78 -42
-128 -2 -201 17 -30 30 -57 30 -61 0 -10 -94 -50 -118 -50 -21 0 -32 18 -62
102 -12 31 -29 67 -39 80 -17 20 -22 21 -43 10 -36 -20 -68 -73 -68 -116 0
-38 23 -70 79 -108 13 -9 20 -21 16 -27 -23 -38 -202 -89 -219 -63 -3 6 5 24
19 40 50 59 16 130 -69 146 -70 13 -100 -28 -90 -120 5 -43 3 -58 -10 -73 -22
-24 -192 -105 -209 -98 -7 2 -40 52 -74 109 -72 123 -212 313 -315 428 -155
175 -198 225 -198 236 0 13 58 68 89 84 14 7 40 9 65 6 67 -11 71 -16 42 -71
-15 -26 -26 -63 -26 -82 0 -96 51 -183 107 -183 47 0 112 53 113 93 0 25 13
21 32 -12 21 -38 94 -91 124 -91 26 0 48 28 58 74 l7 29 44 -50 c54 -61 127
-103 152 -87 20 13 31 68 32 163 1 56 3 62 19 55 9 -4 40 -9 67 -11 64 -5 110
18 146 72 22 33 35 41 70 47 29 5 54 19 80 44 l37 36 16 -34 c9 -19 32 -50 52
-69 41 -40 58 -35 89 27 15 30 20 59 20 126 0 49 1 88 2 88 1 0 30 -18 65 -40
85 -56 93 -52 93 40 -1 59 -7 87 -28 133 -14 32 -24 64 -21 72 6 15 58 30 72
21 5 -3 12 -36 15 -74 11 -128 59 -202 132 -202 72 0 99 59 75 160 -14 60 -11
64 51 74 38 6 69 28 69 49 0 7 -33 44 -74 83 l-75 71 33 58 c37 68 52 77 66
41 16 -42 103 -126 131 -126 36 0 48 12 68 66 l19 49 56 -3 c53 -4 56 -2 66
23 5 14 10 56 10 91 0 63 1 65 23 58 49 -15 76 -35 94 -71 14 -30 28 -41 63
-53 25 -8 48 -19 53 -25 4 -5 4 -40 1 -77 -6 -58 -4 -67 12 -76 39 -21 131 46
161 115 11 29 16 32 33 23 29 -15 50 -12 50 8 0 24 -27 48 -63 57 -19 5 -34
20 -49 49 -31 63 -114 171 -165 216 -53 46 -97 57 -168 42 -95 -20 -168 -54
-220 -102 -27 -26 -64 -54 -81 -63 -47 -24 -199 -189 -225 -245 -29 -61 -138
-162 -174 -162 -13 0 -59 -11 -101 -25 -42 -14 -89 -25 -104 -25 -15 0 -49
-12 -76 -26 -35 -19 -72 -29 -130 -34 -51 -5 -105 -18 -145 -35 -35 -15 -76
-32 -91 -38 -22 -9 -37 -8 -78 7 -70 25 -126 17 -199 -27 -38 -24 -79 -39
-119 -46 -89 -14 -146 -57 -178 -132 -23 -55 -53 -64 -122 -35 -83 34 -108 38
-167 26 -35 -7 -66 -23 -93 -45 -22 -19 -51 -35 -64 -35 -40 0 -110 55 -148
115 -23 37 -44 57 -60 61 -14 3 -31 8 -39 10 -25 8 7 32 82 60 39 15 107 52
152 82 122 84 171 103 284 112 57 4 111 14 130 24 37 20 71 70 71 107 0 40 18
49 96 49 57 0 86 6 142 30 38 16 88 32 111 36 57 9 100 40 136 97 26 40 38 50
82 63 51 15 85 44 98 84 7 22 41 35 129 50 151 24 227 66 305 170 70 92 112
128 158 135 21 3 67 17 103 30 36 13 86 27 112 30 53 7 108 45 108 75 0 25 34
65 86 100 50 35 42 37 161 -43 108 -72 276 -151 302 -142 37 11 23 35 -35 61
-68 30 -281 158 -309 185 -20 19 -20 19 3 82 35 98 26 214 -19 238 -13 7 -32
6 -60 -1 -31 -9 -44 -18 -54 -43 -23 -56 -27 -118 -11 -172 21 -67 21 -69 -15
-109 l-31 -35 -52 54 c-62 63 -101 78 -125 47 -9 -11 -25 -22 -35 -24 -37 -6
-61 -54 -61 -121 1 -34 4 -76 9 -93 8 -30 6 -32 -33 -48 -65 -25 -79 -22 -86
22 -21 128 -80 241 -118 227 -8 -4 -38 -40 -68 -81 -30 -41 -64 -89 -76 -105
-34 -47 -47 -127 -29 -180 8 -24 23 -48 32 -54 9 -5 26 -17 38 -26 l21 -17
-25 -21 c-35 -29 -167 -83 -218 -89 l-42 -5 16 44 c53 146 -16 289 -139 289
-84 0 -144 -51 -172 -145 -12 -42 -20 -55 -35 -55 -24 0 -36 -22 -45 -85 -7
-41 -9 -46 -16 -27 -5 12 -15 22 -24 22 -26 0 -94 -70 -105 -108 -14 -50 -13
-152 2 -208 11 -41 11 -47 -6 -60 -19 -13 -103 -30 -111 -22 -3 2 2 40 9 84 8
43 17 100 20 127 l6 47 -55 0 c-62 0 -96 -11 -125 -40 -16 -16 -20 -33 -20
-85 0 -36 -4 -65 -9 -65 -5 0 -25 7 -44 15 -20 8 -55 15 -78 15 l-42 0 6 -49
c11 -95 53 -141 135 -151 l44 -5 -22 -27 c-25 -32 -94 -55 -115 -38 -7 6 -15
28 -19 48 -11 75 -95 158 -149 150 -34 -5 -35 -73 -3 -145 14 -30 26 -62 26
-69 0 -24 -25 -15 -48 16 -25 33 -71 46 -127 36 -75 -14 -89 -75 -28 -124 l37
-30 -57 -36 c-92 -59 -85 -62 -102 50 -3 22 -15 55 -25 72 -16 26 -26 32 -54
32 -41 0 -46 -10 -46 -98 0 -84 -7 -110 -32 -117 -33 -11 -50 13 -42 60 11 74
-33 69 -63 -7 -8 -21 -21 -38 -29 -38 -20 0 -188 75 -303 137 -81 43 -127 60
-200 75 -65 13 -103 27 -123 43 -28 24 -85 45 -120 45 -20 0 -24 15 -8 25 6 4
21 28 35 55 21 42 31 50 75 65 28 9 76 32 107 51 31 19 64 34 72 34 9 0 45 15
81 33 l65 32 215 0 c118 1 226 2 239 3 13 1 41 20 62 42 l38 40 48 -21 c57
-24 139 -27 180 -6 60 32 103 104 103 175 0 34 5 42 43 67 39 27 50 29 167 33
69 2 165 4 215 3 113 -1 143 9 216 74 32 29 72 55 89 59 43 8 76 49 87 104 6
37 14 50 36 60 55 26 90 26 131 -2 55 -37 124 -36 193 4 54 31 91 73 133 149
14 25 41 55 60 68 65 41 91 65 110 103 18 35 25 39 67 45 27 4 98 28 158 55
155 67 178 73 285 75 133 2 226 43 186 83 -14 15 -20 14 -63 -7 -42 -20 -153
-41 -153 -29 0 3 13 29 30 59 46 85 37 198 -18 228 -12 6 -65 7 -138 3 l-119
-7 3 -35 c4 -40 14 -49 47 -42 21 4 24 0 30 -34 3 -22 15 -62 25 -89 28 -70
26 -83 -16 -102 -43 -21 -53 -10 -54 52 -1 138 -75 202 -168 145 -44 -27 -66
-80 -59 -144 4 -43 10 -55 50 -93 l45 -43 -40 -10 c-22 -6 -46 -9 -53 -6 -7 2
-20 37 -29 77 -21 94 -35 109 -101 109 -57 0 -84 -19 -105 -74 -20 -54 4 -91
92 -138 32 -17 58 -34 58 -38 0 -4 -17 -27 -39 -51 l-38 -44 -16 56 c-31 107
-100 168 -206 185 l-44 7 5 -67 c9 -113 44 -162 163 -232 17 -9 15 -15 -23
-71 -63 -93 -144 -135 -208 -108 -42 17 -43 37 -7 90 47 70 39 175 -16 205
-32 17 -89 12 -110 -9 -27 -27 -36 -82 -22 -136 18 -72 14 -104 -13 -116 -32
-15 -61 2 -85 49 -24 48 -104 122 -131 122 -11 0 -25 -12 -34 -29 -9 -16 -30
-34 -48 -40 -53 -20 -62 -27 -76 -52 -27 -52 21 -187 89 -250 l40 -37 -47 -36
c-37 -29 -56 -36 -90 -36 l-44 0 0 48 c0 53 -25 96 -93 161 l-35 33 -12 -23
c-17 -31 -15 -121 4 -157 30 -59 24 -66 -65 -77 -71 -9 -81 3 -81 87 1 35 -2
79 -6 98 -7 30 -12 34 -32 31 -40 -5 -118 -49 -136 -76 -25 -38 -22 -110 6
-140 41 -43 5 -27 -54 25 -67 59 -103 72 -123 45 -17 -25 -17 -49 3 -88 24
-48 53 -75 92 -88 34 -11 34 -12 29 -57 -4 -38 -12 -53 -47 -85 -37 -35 -46
-39 -78 -34 -21 2 -53 11 -73 20 -36 15 -36 16 -43 88 -9 99 -22 135 -56 159
-45 32 -67 27 -80 -21 -12 -44 -3 -109 25 -175 22 -52 19 -69 -16 -98 -36 -31
-66 -35 -53 -8 5 9 9 53 9 97 0 65 -4 87 -22 118 -13 21 -23 48 -23 61 0 12
25 52 58 90 92 110 100 124 123 220 19 75 23 121 24 256 0 145 4 178 28 276
15 60 37 125 47 142 l20 33 113 -7 c104 -6 116 -5 155 15 54 28 50 47 -9 43
-206 -11 -224 -5 -235 85 -17 145 -64 178 -175 122 -60 -30 -65 -42 -35 -95
14 -26 26 -48 26 -49 0 -2 -21 4 -47 12 -55 17 -145 11 -180 -13 -39 -25 -23
-96 41 -191 31 -45 32 -63 6 -86 -11 -9 -20 -27 -20 -40 0 -16 -9 -26 -29 -34
-43 -16 -60 -76 -36 -127 31 -64 97 -96 201 -96 52 0 65 -3 74 -19 8 -17 15
-101 8 -101 -2 0 -21 7 -43 15 -60 21 -112 19 -125 -5 -15 -27 -3 -104 20
-133 15 -18 28 -22 64 -20 28 1 46 -3 46 -9 0 -22 -62 -108 -79 -109 -9 -1
-53 0 -97 1 -49 1 -84 -3 -88 -9 -12 -19 13 -49 59 -71 50 -24 53 -30 27 -54
-18 -15 -21 -15 -56 13 -41 32 -99 56 -120 48 -7 -3 -22 -32 -34 -65 -12 -33
-29 -65 -37 -72 -8 -7 -15 -19 -15 -26 0 -21 -12 -17 -54 18 l-38 31 -19 -24
c-11 -13 -22 -34 -25 -46 -8 -30 -12 -29 -51 9 -41 40 -53 29 -53 -46 l0 -49
-86 7 -87 6 5 -79 c3 -55 11 -89 25 -114 12 -19 19 -38 16 -41 -11 -11 -43 -6
-43 7 0 6 -17 38 -39 69 -38 56 -38 56 -58 37 -12 -12 -39 -22 -74 -26 -72 -8
-85 -16 -93 -58 -6 -32 -10 -35 -42 -35 -55 0 -217 39 -244 59 -39 28 -36 47
9 71 l41 20 0 88 0 88 55 64 c58 67 80 119 91 213 7 62 8 63 95 116 52 32 99
112 99 167 0 18 11 68 24 111 13 43 27 103 31 134 5 47 12 62 41 90 41 39 64
108 64 189 l0 56 56 27 56 28 -5 39 c-3 22 -19 70 -36 106 -35 75 -37 90 -16
158 8 27 12 59 9 72 -10 40 4 70 61 132 66 71 75 94 75 180 0 54 6 78 30 127
23 46 30 74 30 118 0 55 2 61 36 90 45 40 74 95 74 142 0 19 -3 35 -6 35 -18
0 -43 -23 -49 -47 -10 -41 -33 -73 -53 -73 -9 0 -48 27 -85 59 -38 33 -80 62
-94 66 -62 15 -115 -45 -129 -146 l-6 -45 118 -12 c65 -7 124 -18 131 -24 20
-16 16 -76 -9 -119 -12 -22 -24 -38 -28 -37 -3 2 -31 16 -62 32 -45 22 -76 29
-143 34 l-85 5 6 -34 c17 -99 46 -143 104 -159 36 -10 93 -4 143 16 14 5 17
-1 17 -40 0 -57 -16 -89 -67 -139 l-39 -37 -55 82 c-68 104 -82 108 -149 41
-57 -57 -69 -92 -46 -129 26 -39 71 -61 139 -68 73 -7 87 -21 87 -83 0 -53
-14 -55 -76 -13 -39 28 -113 60 -135 60 -5 0 -9 -12 -9 -27 0 -88 55 -157 134
-168 60 -9 72 -20 101 -90 l25 -60 -21 -17 c-37 -31 -73 -23 -128 30 -50 48
-147 109 -158 99 -3 -3 -5 -21 -5 -41 0 -53 50 -119 116 -151 30 -15 61 -34
69 -43 33 -38 28 -106 -12 -166 l-19 -28 -33 62 c-34 64 -68 96 -92 87 -20 -7
-47 -70 -47 -107 0 -60 40 -110 89 -110 26 0 36 -35 26 -96 -4 -29 -11 -44
-19 -42 -7 2 -33 27 -57 57 -58 72 -89 93 -136 95 -54 2 -54 -20 2 -145 60
-135 88 -172 126 -167 20 3 29 0 29 -9 0 -42 -73 -123 -111 -123 -12 0 -24 13
-34 38 -22 51 -65 112 -80 112 -20 0 -37 -27 -50 -78 l-12 -47 -54 -5 c-48 -4
-54 -8 -57 -30 -6 -35 15 -95 44 -130 24 -28 31 -30 90 -30 48 0 66 -4 70 -15
7 -16 -29 -81 -75 -135 l-29 -35 -44 47 c-45 49 -99 78 -143 78 -24 0 -25 -2
-25 -62 1 -117 37 -178 105 -178 49 0 75 -22 75 -64 0 -60 -55 -46 -157 39
-43 36 -84 65 -91 65 -18 0 -34 -50 -27 -85 8 -44 37 -73 107 -110 88 -45 109
-83 106 -190 l-3 -80 -105 3 c-136 4 -550 39 -574 48 -23 9 -18 57 14 132 25
58 38 61 59 16 39 -82 82 -86 152 -15 56 55 63 91 28 135 l-20 26 21 0 c76 0
117 110 70 187 -29 48 -72 52 -167 16 -11 -5 -13 7 -11 63 4 83 18 91 76 45
65 -51 88 -58 120 -35 37 27 62 80 62 130 0 59 -16 69 -118 70 -96 1 -112 11
-112 72 l0 35 44 -6 c64 -9 102 8 130 57 34 58 41 87 25 97 -22 14 -127 10
-166 -6 -19 -8 -41 -15 -48 -15 -13 0 -75 136 -75 164 0 22 32 36 80 36 55 0
73 11 104 64 32 55 32 68 4 81 -18 8 -25 22 -30 59 -4 27 -20 69 -35 95 l-29
46 -62 3 c-56 3 -64 6 -74 28 -16 34 -2 44 69 53 32 4 75 17 94 29 39 24 94
114 85 138 -9 25 -87 54 -144 54 -67 0 -100 -18 -137 -77 l-29 -46 -22 26
c-25 29 -60 114 -51 123 3 4 31 -4 61 -17 46 -19 60 -20 81 -11 60 27 93 150
60 222 -13 29 -16 53 -12 90 4 30 0 71 -9 106 -14 56 -14 57 16 122 16 35 30
70 30 78 0 19 -100 46 -170 46 -37 0 -75 -8 -106 -21 -46 -21 -49 -21 -62 -4
-34 46 -54 194 -33 246 6 17 8 17 26 -3 27 -30 68 -50 102 -50 29 0 103 43
103 61 0 13 -54 45 -110 66 -55 20 -73 39 -60 64 10 17 13 17 75 -1 61 -18 99
-23 137 -21 10 1 23 19 33 46 31 80 3 156 -66 176 -35 11 -46 9 -119 -20 -44
-17 -85 -29 -90 -26 -14 8 -12 90 2 137 6 21 26 55 43 75 l32 37 13 -38 c7
-21 28 -56 47 -77 86 -95 203 -58 203 63 0 75 -28 96 -168 127 -24 5 -46 12
-49 15 -13 12 10 59 52 106 l45 51 0 -42 c0 -72 80 -129 180 -129 53 0 63 11
54 56 -7 40 -75 122 -127 154 l-27 17 30 38 c32 41 34 58 6 63 -26 5 -64 -24
-85 -67 -13 -24 -30 -41 -45 -45 -33 -8 -93 -61 -112 -99 -9 -16 -22 -51 -30
-78 -8 -28 -33 -70 -59 -100 -25 -29 -50 -69 -55 -88 -16 -57 -12 -168 7 -204
23 -44 24 -174 2 -190 -26 -20 -50 -76 -56 -132 -4 -39 1 -76 22 -149 27 -96
28 -114 4 -191 -19 -65 -6 -105 61 -179 33 -36 62 -76 65 -88 2 -13 9 -78 14
-145 11 -137 34 -207 80 -241 22 -16 30 -32 36 -69 4 -26 13 -73 21 -103 7
-30 18 -120 24 -200 13 -189 23 -240 66 -328 33 -68 35 -79 35 -172 0 -69 -5
-110 -17 -137 -10 -24 -19 -83 -23 -163 -7 -134 -12 -148 -100 -310 -17 -31
-38 -87 -47 -125 -9 -39 -17 -75 -19 -81 -2 -7 -29 -8 -86 -2 -65 6 -100 16
-154 43 -43 21 -85 35 -107 35 -42 0 -50 19 -24 55 12 16 22 17 98 12 47 -4
88 -4 91 -1 10 11 -30 80 -63 108 -40 33 -75 33 -124 -1 l-40 -26 -44 24 c-25
13 -58 41 -74 63 -41 57 -37 107 15 164 32 35 43 27 43 -31 1 -61 33 -132 64
-142 27 -9 115 3 163 22 42 17 54 44 38 87 -16 41 -15 43 37 62 26 9 51 21 55
25 5 3 -3 25 -17 48 -27 42 -33 80 -16 97 6 6 14 25 19 42 8 25 6 36 -9 54
-16 20 -16 24 -2 34 22 16 19 80 -5 112 -39 52 -70 67 -138 67 -74 0 -101 -16
-151 -86 -38 -54 -58 -59 -95 -23 -43 41 -35 64 24 64 34 0 84 35 103 72 17
32 16 33 -9 52 l-25 19 34 49 c19 28 34 54 34 58 0 4 -13 24 -30 45 -16 21
-30 43 -30 49 0 41 -99 166 -131 166 -9 0 -36 -13 -60 -30 -40 -27 -45 -28
-56 -13 -7 9 -13 32 -13 50 0 37 25 53 83 53 18 0 43 7 55 16 22 15 23 17 5
29 -10 7 -33 16 -51 20 l-34 7 36 24 c20 14 36 31 36 39 0 19 -43 50 -95 71
-49 18 -75 9 -75 -27 0 -19 -16 -24 -44 -13 -24 9 -78 100 -74 126 3 22 7 23
118 28 l115 5 3 57 c2 40 -2 65 -13 82 -37 56 -127 59 -200 7 -24 -17 -48 -31
-53 -31 -15 0 -23 50 -14 89 11 51 31 58 76 27 72 -48 180 -25 202 43 23 70
-12 104 -104 103 -101 -1 -142 7 -142 28 0 20 15 25 115 35 127 13 134 18 105
83 -20 43 -61 72 -105 72 -24 0 -23 2 20 43 51 49 60 91 25 122 -26 24 -25 39
4 78 36 48 40 73 17 96 -28 28 -82 35 -170 24 -82 -11 -105 -5 -114 27 -7 29
6 33 77 25 114 -12 211 34 236 111 17 52 6 83 -38 101 -86 36 -243 -20 -307
-109 l-16 -23 -49 51 c-52 55 -70 95 -51 118 8 9 42 15 104 18 78 3 100 8 145
33 55 30 92 67 92 92 0 23 -87 56 -147 55 -41 0 -73 -9 -130 -36 -85 -41 -103
-37 -103 20 0 42 51 104 85 104 13 0 49 -13 80 -30 63 -33 81 -36 120 -18 25
11 37 41 60 142 l6 29 -98 -7 c-81 -5 -102 -4 -120 9 -43 30 -28 41 50 37 62
-3 76 -1 100 18 32 26 72 99 60 110 -4 5 -47 20 -95 35 -86 27 -87 27 -139 10
-53 -18 -53 -18 -71 5 -23 29 -17 34 52 49 31 6 69 20 86 30 38 23 66 78 53
103 -8 15 -3 22 26 39 20 12 35 29 35 39 0 27 -92 67 -218 96 -103 23 -138 42
-129 69 2 5 41 12 88 15 68 4 93 10 131 33 58 34 82 65 66 85 -7 7 -35 25 -62
40 -73 37 -158 37 -212 0 -22 -16 -43 -28 -46 -28 -9 0 -19 50 -14 68 9 28 43
42 122 52 41 5 83 14 92 19 49 27 -144 43 -204 17z m182 -162 c67 -23 71 -29
29 -48 -50 -24 -96 -29 -125 -14 -33 18 -32 34 5 58 36 24 30 24 91 4z m-1
-265 c94 -24 118 -43 70 -55 -36 -9 -109 14 -136 42 l-22 24 24 0 c13 0 42 -5
64 -11z m-75 -113 c-4 -6 -22 -19 -38 -29 -30 -17 -31 -17 -50 10 -29 42 -31
56 -16 93 l15 34 49 -49 c32 -31 46 -52 40 -59z m154 -47 c-17 -28 -134 -53
-148 -31 -6 11 5 28 24 35 29 11 132 8 124 -4z m94 -223 c12 -12 11 -16 -12
-31 -33 -22 -91 -14 -120 15 l-21 21 23 19 c21 17 27 18 69 5 26 -8 53 -21 61
-29z m1111 -127 c48 -49 51 -59 13 -59 -35 0 -70 25 -83 57 -21 56 15 57 70 2z
m-1089 -80 c0 -4 -10 -20 -23 -34 l-22 -27 -28 22 c-15 12 -26 27 -24 33 7 22
97 28 97 6z m1018 -146 c16 -23 15 -43 -5 -65 -24 -27 -51 -22 -89 16 -32 32
-46 81 -28 99 9 9 107 -32 122 -50z m-998 -62 c0 -4 -21 -17 -46 -29 -57 -28
-128 -39 -139 -22 -19 31 106 86 156 68 16 -5 29 -13 29 -17z m934 -174 c24
-17 24 -67 0 -84 -25 -18 -61 -16 -112 7 -52 23 -48 33 22 66 59 28 66 28 90
11z m-791 -46 c27 -27 -37 -85 -111 -102 -51 -11 -114 -1 -110 19 4 21 69 71
114 88 39 14 91 11 107 -5z m2210 -251 l52 -50 -62 0 c-49 0 -67 4 -83 20 -16
16 -18 24 -9 50 16 43 42 38 102 -20z m-2246 -17 c8 -21 -30 -53 -64 -53 -53
0 -83 38 -45 59 29 17 102 13 109 -6z m-132 -97 c19 -8 35 -17 35 -19 0 -8
-76 -57 -88 -57 -15 0 -16 44 -2 71 13 23 12 23 55 5z m124 -80 c21 -25 -38
-66 -94 -66 -31 0 -43 20 -20 34 82 50 96 54 114 32z m862 -66 c10 -6 19 -16
19 -24 0 -18 -67 -94 -90 -101 -21 -7 -59 11 -103 48 -26 22 -27 24 -10 39 49
44 137 62 184 38z m1317 -30 c37 -23 39 -28 15 -46 -30 -23 -72 -17 -104 15
-16 16 -29 34 -29 40 0 19 83 12 118 -9z m-2268 -32 l25 -10 -35 -29 c-63 -53
-110 -46 -110 17 0 41 46 49 120 22z m769 -88 c28 -22 51 -46 51 -53 0 -6 -9
-27 -20 -45 -20 -32 -22 -33 -43 -19 -34 22 -67 77 -67 112 0 57 12 58 79 5z
m-631 9 c4 -20 -54 -34 -88 -21 -21 8 -21 9 -5 26 23 22 88 19 93 -5z m-2120
-53 c4 -17 -12 -35 -30 -36 -5 0 -8 14 -8 31 0 24 4 30 17 27 10 -2 19 -12 21
-22z m2930 -8 c7 -7 12 -28 12 -48 0 -46 -27 -73 -67 -68 -40 4 -44 53 -8 97
29 33 44 38 63 19z m-2708 -63 c0 -63 -55 -114 -87 -82 -23 22 -8 64 30 87 43
27 57 25 57 -5z m3882 8 c19 -22 48 -78 48 -93 0 -14 -60 -12 -89 3 -44 22
-49 43 -16 77 34 35 37 36 57 13z m-3744 -86 c3 -43 1 -47 -19 -47 -28 0 -59
27 -59 51 0 21 38 51 60 47 10 -2 16 -18 18 -51z m1798 1 c11 -17 -34 -48 -71
-48 -34 0 -89 35 -80 51 9 13 142 11 151 -3z m667 -70 c-10 -21 -12 -21 -18
-5 -10 25 2 54 17 39 8 -8 8 -18 1 -34z m-2396 0 c-3 -7 -5 -2 -5 12 0 14 2
19 5 13 2 -7 2 -19 0 -25z m109 -5 c4 -13 3 -27 0 -30 -11 -12 -49 34 -43 51
9 22 36 9 43 -21z m2422 -27 c9 -72 -34 -114 -83 -82 -35 23 -31 48 11 86 43
37 68 36 72 -4z m-2258 -85 c0 -22 -25 -34 -51 -26 -24 8 -24 21 -1 34 28 17
52 13 52 -8z m1444 -17 c42 -41 4 -72 -76 -61 -59 8 -69 23 -35 53 33 28 87
32 111 8z m1951 -14 c10 -11 15 -23 12 -27 -8 -7 -47 25 -47 39 0 14 16 9 35
-12z m-3165 -109 c0 -31 -5 -62 -12 -69 -34 -34 -97 11 -83 60 13 42 65 84 88
71 4 -2 7 -30 7 -62z m2159 8 c17 -6 31 -14 31 -18 0 -10 -61 -67 -87 -80 -31
-16 -73 -14 -79 4 -11 28 6 65 39 85 37 23 52 24 96 9z m2092 -86 c10 -28 4
-93 -9 -93 -12 0 -82 74 -82 87 0 16 29 32 58 33 15 0 26 -8 33 -27z m-4065
-40 c-5 -12 -10 -13 -18 -5 -8 8 -8 15 3 28 15 18 25 4 15 -23z m174 -71 c0
-14 -59 -92 -69 -92 -24 0 -19 23 15 60 35 38 54 50 54 32z m-2090 -16 c0 -16
-28 -42 -36 -33 -8 7 14 47 26 47 6 0 10 -6 10 -14z m5805 -10 c50 -23 105
-76 105 -100 0 -7 -12 -25 -26 -40 -48 -47 -119 -28 -170 47 -42 62 -47 84
-21 102 29 21 53 19 112 -9z m151 -24 c-4 -3 -14 2 -24 12 -16 18 -16 18 6 6
13 -6 21 -14 18 -18z m2240 -7 c11 -17 15 -37 11 -60 -7 -41 -44 -98 -61 -92
-18 6 -56 79 -56 110 0 60 75 90 106 42z m-4354 -52 c28 -33 49 -81 37 -89
-12 -7 -66 41 -75 68 -11 36 13 49 38 21z m-1544 -28 c29 -63 0 -115 -64 -115
-74 0 -95 37 -46 82 25 23 78 57 93 58 3 0 11 -11 17 -25z m5622 -14 c13 -25
13 -158 0 -166 -16 -10 -79 34 -96 66 -17 33 -13 55 17 93 24 31 64 34 79 7z
m-7790 -51 c0 -19 -11 -26 -23 -14 -8 8 3 34 14 34 5 0 9 -9 9 -20z m3678 -61
c-7 -5 -16 -9 -20 -9 -13 0 -30 41 -23 58 6 15 10 13 31 -12 20 -23 23 -31 12
-37z m990 49 c14 -14 16 -48 3 -48 -15 0 -41 30 -41 46 0 17 22 18 38 2z
m-1713 -63 c34 -33 31 -45 -9 -45 -28 0 -66 20 -66 35 0 8 32 35 41 35 6 0 21
-11 34 -25z m4579 -2 c7 -16 17 -43 21 -60 9 -42 -6 -43 -68 -3 -41 26 -46 33
-37 50 24 44 64 51 84 13z m-7510 -13 c10 -10 -10 -101 -28 -125 -28 -38 -96
63 -82 121 6 24 9 25 54 18 26 -3 51 -10 56 -14z m5669 13 c-7 -2 -19 -2 -25
0 -7 3 -2 5 12 5 14 0 19 -2 13 -5z m-1928 -32 c6 -11 -26 -31 -49 -31 -19 0
-21 26 -3 33 21 9 46 8 52 -2z m1983 -60 c6 -39 -12 -45 -47 -16 -41 35 -39
47 7 43 30 -2 38 -7 40 -27z m-3438 0 c0 -15 -37 -55 -42 -45 -9 15 10 54 27
54 8 0 15 -4 15 -9z m5048 -53 c36 -38 56 -108 31 -108 -39 0 -119 100 -119
147 0 22 1 23 28 9 15 -8 42 -30 60 -48z m-1739 23 c14 -10 34 -29 45 -44 18
-25 19 -29 4 -43 -23 -23 -72 -9 -119 33 -43 39 -48 57 -21 72 21 12 59 5 91
-18z m-1036 -53 c40 -61 54 -98 36 -98 -16 0 -33 23 -69 93 -39 75 -17 78 33
5z m-1539 13 c8 -13 -68 -79 -100 -87 -36 -9 -69 24 -60 59 3 14 14 28 24 30
32 9 131 7 136 -2z m-1904 -50 c0 -23 -16 -36 -25 -21 -9 14 1 40 15 40 5 0
10 -9 10 -19z m7118 -50 c4 -41 -24 -121 -43 -121 -17 0 -25 23 -25 76 0 58
15 86 43 82 17 -2 23 -11 25 -37z m-5828 4 c-7 -8 -24 -15 -38 -15 -25 0 -25
1 -6 15 10 8 27 15 38 15 15 0 16 -3 6 -15z m4676 -11 c16 -24 16 -28 -2 -71
-23 -55 -40 -64 -54 -28 -11 30 -14 108 -3 118 14 15 43 6 59 -19z m-7596 -46
c16 -22 30 -45 30 -50 0 -13 -63 -48 -87 -48 -18 0 -23 6 -23 28 0 27 34 112
44 112 3 0 19 -19 36 -42z m-1300 -11 c0 -33 -111 -169 -126 -154 -12 12 29
102 62 135 33 33 64 42 64 19z m4805 -17 c-7 -11 -73 -25 -81 -17 -14 13 10
27 47 27 23 0 38 -4 34 -10z m855 -4 c0 -20 -48 -56 -66 -49 -17 6 -18 35 -2
51 17 17 68 15 68 -2z m2955 -76 c29 -39 32 -63 8 -58 -21 4 -63 64 -63 90 0
26 22 13 55 -32z m-3580 -4 c32 -14 63 -52 51 -63 -17 -18 -206 -31 -206 -15
0 17 70 81 92 85 13 2 24 5 26 6 1 0 18 -5 37 -13z m3475 -47 c22 -43 35 -111
26 -135 -6 -15 -8 -15 -28 2 -27 24 -68 111 -68 145 0 14 5 30 12 37 15 15 33
0 58 -49z m-1036 36 c21 -16 21 -17 -9 -32 -28 -14 -45 -6 -45 23 0 28 24 32
54 9z m-3817 -12 c6 -16 -36 -28 -50 -14 -9 9 -8 14 3 21 19 12 42 9 47 -7z
m-2197 -24 c0 -5 -4 -9 -10 -9 -5 0 -10 7 -10 16 0 8 5 12 10 9 6 -3 10 -10
10 -16z m2878 -1 c31 -31 3 -100 -52 -123 -40 -17 -66 -4 -66 33 1 34 15 53
60 81 41 25 42 25 58 9z m-4183 -39 c57 -53 61 -90 13 -136 -18 -17 -44 -36
-57 -43 -28 -14 -84 -6 -101 15 -18 21 -15 117 4 153 33 64 79 68 141 11z
m9641 0 c11 -23 13 -34 5 -42 -18 -18 -46 5 -49 42 -4 42 22 42 44 0z m-6648
5 c24 -17 29 -34 10 -34 -7 1 -38 12 -68 25 l-55 24 45 1 c26 0 55 -7 68 -16z
m3040 -20 c33 -14 40 -32 20 -52 -28 -28 -78 -5 -113 51 l-18 29 39 -8 c21 -3
54 -12 72 -20z m-6244 -33 c-8 -47 -19 -52 -36 -15 -11 23 -10 29 11 45 13 11
26 18 28 16 2 -3 1 -23 -3 -46z m1650 17 c35 -50 8 -138 -42 -138 -23 0 -94
59 -90 75 4 16 88 84 105 84 6 1 19 -9 27 -21z m7064 -34 c2 -20 -4 -36 -17
-48 -27 -25 -51 -14 -51 23 0 48 10 62 39 59 21 -2 27 -9 29 -34z m768 -10
c19 -44 19 -104 0 -104 -21 0 -66 58 -66 84 0 28 28 68 42 60 5 -4 16 -21 24
-40z m-4371 -8 c37 -16 46 -40 19 -50 -41 -16 -165 2 -179 25 -23 36 90 54
160 25z m639 -9 c17 -13 17 -15 2 -46 -24 -46 -43 -49 -78 -13 -32 32 -31 47
6 62 31 13 50 12 70 -3z m4109 -14 c14 -8 -25 -43 -48 -43 -32 0 -51 25 -35
45 12 15 57 13 83 -2z m-8004 -37 c13 -14 20 -29 16 -35 -3 -6 -35 -11 -71
-11 -73 0 -83 14 -36 49 36 27 64 26 91 -3z m6190 -72 c-7 -8 -24 -14 -38 -12
-41 5 -39 39 6 79 l38 33 3 -43 c2 -23 -2 -49 -9 -57z m-4647 49 c15 -15 28
-30 28 -35 0 -17 -163 -84 -180 -73 -13 8 7 57 41 98 37 45 71 48 111 10z
m4945 -49 c-3 -3 -13 8 -21 25 -23 43 -19 52 5 13 12 -18 19 -35 16 -38z
m1032 14 c27 -43 42 -100 30 -114 -30 -37 -89 12 -89 73 0 67 30 88 59 41z
m-6847 -13 c1 -5 -15 -19 -35 -30 -30 -16 -39 -17 -49 -7 -11 11 -9 17 11 33
25 20 71 23 73 4z m-2306 -30 c-24 -36 -95 -48 -84 -13 4 11 90 49 97 42 2 -2
-4 -15 -13 -29z m99 -4 c-15 -29 -45 -49 -45 -30 0 18 41 70 51 64 5 -4 3 -18
-6 -34z m4748 19 c29 0 72 -35 62 -50 -12 -19 -78 -10 -124 17 -40 23 -43 27
-26 34 11 5 29 6 40 4 11 -3 32 -5 48 -5z m3928 -26 c62 -32 76 -124 31 -216
l-27 -58 -72 36 c-110 53 -124 94 -67 192 36 61 79 76 135 46z m-2902 -49 c24
-36 23 -61 -5 -72 -24 -9 -54 31 -54 71 0 56 21 57 59 1z m1770 -14 c-7 -2
-21 6 -31 19 -29 36 -21 46 12 15 19 -19 26 -31 19 -34z m-7289 -28 c0 -20 -8
-41 -20 -53 -40 -40 -53 6 -23 81 15 38 17 40 30 23 7 -10 13 -33 13 -51z
m6692 50 c32 -29 17 -53 -32 -53 -26 0 -32 14 -19 44 14 30 25 32 51 9z
m-4790 -54 c-4 -38 -15 -54 -31 -45 -15 10 -14 59 1 74 20 20 33 7 30 -29z
m1590 11 c-3 -30 -18 -40 -59 -40 -41 0 -43 20 -6 50 36 28 69 23 65 -10z
m901 19 c39 -20 87 -72 87 -95 0 -32 -49 -50 -86 -32 -40 19 -58 56 -50 101 7
40 15 43 49 26z m722 -39 c17 -19 17 -21 0 -60 l-18 -41 -34 33 c-39 38 -41
50 -10 71 30 21 41 21 62 -3z m-3728 -42 c-2 -13 -4 -5 -4 17 -1 22 1 32 4 23
2 -10 2 -28 0 -40z m5633 -22 c-1 -29 -1 -30 -15 -12 -8 11 -15 34 -15 50 1
29 1 30 15 12 8 -11 15 -34 15 -50z m-378 -3 c36 -39 43 -69 24 -98 -24 -36
-44 -31 -66 18 -23 49 -25 78 -8 95 17 17 21 16 50 -15z m-4664 -4 c4 -19 -19
-31 -38 -19 -18 11 -4 42 17 38 10 -2 19 -10 21 -19z m4872 2 c15 -29 12 -93
-6 -119 -23 -33 -50 -28 -63 11 -24 72 37 167 69 108z m-360 -62 c0 -15 -4
-30 -10 -34 -11 -7 -33 71 -24 87 10 17 34 -20 34 -53z m-2570 37 c0 -28 -89
-80 -106 -63 -16 16 54 77 89 77 9 0 17 -6 17 -14z m1095 -16 c32 -34 28 -37
-15 -15 -17 9 -30 22 -30 30 0 23 13 18 45 -15z m-5033 -32 c-15 -15 -26 -4
-18 18 5 13 9 15 18 6 9 -9 9 -15 0 -24z m192 6 c21 -21 20 -47 -3 -68 -14
-13 -33 -16 -72 -14 -46 3 -54 6 -57 24 -4 28 50 74 88 74 16 0 36 -7 44 -16z
m8029 -5 c3 -13 1 -19 -6 -16 -15 5 -22 37 -9 37 5 0 12 -9 15 -21z m-6617 -6
c27 -28 47 -84 34 -97 -26 -26 -155 2 -155 34 0 14 78 80 95 80 5 0 16 -8 26
-17z m1272 -25 c7 -7 12 -26 12 -43 0 -36 -15 -55 -46 -55 -37 0 -40 35 -6 88
16 25 23 27 40 10z m2150 -28 c23 -17 42 -33 42 -37 0 -9 -62 -73 -71 -73 -10
0 -39 88 -39 117 0 31 19 29 68 -7z m3332 4 c43 -17 50 -36 23 -66 -33 -37
-70 -17 -80 46 -6 41 -1 43 57 20z m-6220 -33 c0 -4 -13 -15 -30 -24 -29 -18
-30 -18 -30 3 0 12 5 30 11 41 10 20 11 20 30 3 10 -9 19 -20 19 -23z m7678
-4 c10 -8 6 -14 -15 -27 -28 -17 -28 -17 -45 14 -27 49 -23 59 15 40 17 -9 38
-21 45 -27z m-3552 -2 c4 -14 4 -29 0 -32 -9 -10 -36 18 -36 38 0 28 29 23 36
-6z m482 6 c3 -8 -1 -12 -9 -9 -7 2 -15 10 -17 17 -3 8 1 12 9 9 7 -2 15 -10
17 -17z m1339 -50 c-3 -39 -11 -80 -18 -92 -11 -21 -12 -21 -21 -4 -12 21 -5
114 12 144 22 43 33 23 27 -48z m-3592 48 c11 -17 0 -20 -21 -4 -17 13 -17 14
-2 15 9 0 20 -5 23 -11z m5211 -52 c3 -10 3 -22 -1 -25 -11 -12 -45 39 -45 67
l0 26 20 -25 c11 -14 22 -33 26 -43z m-1466 -50 c0 -46 -64 -117 -105 -117
-19 0 -19 -5 5 143 l13 79 43 -43 c24 -24 44 -51 44 -62z m1360 68 c0 -30 -3
-35 -22 -34 -13 0 -31 4 -42 8 -17 6 -15 10 14 34 42 35 50 34 50 -8z m-6139
6 c21 -17 22 -20 7 -26 -21 -8 -58 11 -58 30 0 21 23 19 51 -4z m2969 0 c0 -9
-52 -51 -64 -51 -13 0 -5 21 14 40 21 21 50 27 50 11z m-6251 -30 c10 -6 11
-13 2 -29 -6 -11 -11 -33 -11 -49 0 -57 -14 -56 -68 1 -54 57 -61 71 -39 79
20 9 101 7 116 -2z m1306 -6 c22 -8 63 -14 92 -15 l52 0 -24 -52 c-14 -29 -25
-64 -25 -78 0 -14 -5 -32 -10 -40 -9 -12 -18 -7 -55 33 -41 44 -89 142 -78
160 5 9 0 9 48 -8z m-1231 -76 c-38 -42 -42 -4 -5 51 l16 25 3 -28 c2 -17 -4
-37 -14 -48z m1519 29 c49 -66 42 -110 -24 -143 -41 -21 -113 -17 -117 8 -7
37 76 167 107 167 5 0 21 -15 34 -32z m4265 15 c16 -31 22 -82 11 -89 -30 -18
-122 67 -104 96 11 18 83 12 93 -7z m1816 1 c13 -34 -21 -144 -45 -144 -17 0
-41 70 -34 99 13 52 65 82 79 45z m2020 -5 c28 -22 35 -66 14 -87 -22 -22 -68
-15 -78 12 -9 25 -4 63 13 84 13 17 20 15 51 -9z m-311 -37 c21 -23 31 -72 18
-91 -19 -29 -134 70 -116 99 11 17 80 12 98 -8z m-3813 -104 c0 -32 -40 -22
-54 15 -33 80 -31 85 13 42 22 -21 41 -47 41 -57z m-2743 35 c5 -13 -52 -53
-74 -53 -18 0 -16 21 3 48 17 25 64 28 71 5z m6398 -39 c16 -18 25 -39 25 -60
0 -45 -19 -44 -59 1 -41 47 -40 80 2 84 4 1 19 -11 32 -25z m-3495 -17 c8 -14
11 -29 7 -33 -11 -11 -47 26 -47 48 0 26 21 18 40 -15z m89 19 c9 -10 8 -15
-3 -19 -16 -7 -26 1 -26 20 0 17 14 17 29 -1z m1678 -39 c33 -31 39 -57 13
-57 -16 0 -80 61 -80 76 0 24 29 15 67 -19z m-5781 -2 c12 -47 -58 -115 -119
-115 -60 0 -43 52 36 105 62 42 75 43 83 10z m334 -10 c0 -21 -31 -34 -57 -24
-15 5 -21 14 -17 24 8 20 74 21 74 0z m7760 6 c0 -13 -40 -61 -51 -61 -10 0
-12 53 -2 63 9 10 53 8 53 -2z m-9403 -57 c6 -18 -41 -78 -70 -88 -34 -12 -42
-4 -27 26 31 59 86 95 97 62z m1093 -5 c0 -24 -23 -21 -28 4 -2 10 3 17 12 17
10 0 16 -9 16 -21z m5814 -22 c32 -42 35 -68 5 -41 -26 23 -53 74 -40 74 6 0
21 -15 35 -33z m-6820 -83 c10 -26 7 -53 -9 -84 -33 -64 -128 -76 -104 -12 33
86 96 140 113 96z m8470 -26 c12 -45 7 -54 -15 -31 -13 12 -19 28 -16 37 9 23
24 20 31 -6z m-1794 -2 c0 -15 -45 -30 -61 -20 -16 10 10 34 37 34 14 0 24 -6
24 -14z m1880 -11 c6 -8 10 -22 8 -31 -3 -17 -4 -17 -20 0 -19 18 -24 46 -9
46 5 0 14 -7 21 -15z m-8722 -46 c2 -23 2 -23 -13 -5 -18 24 -20 39 -2 34 6
-3 13 -15 15 -29z m1564 -6 c22 -20 23 -70 1 -95 -29 -33 -132 -18 -175 26
-24 23 -14 41 35 65 51 25 114 27 139 4z m218 8 c0 -12 -20 -25 -27 -18 -7 7
6 27 18 27 5 0 9 -4 9 -9z m4785 -48 c4 -20 3 -33 -3 -33 -11 0 -32 53 -32 79
0 27 27 -9 35 -46z m2030 10 c39 -15 85 -170 55 -188 -33 -20 -90 67 -90 138
0 54 5 62 35 50z m-321 -45 c8 -31 8 -78 -1 -78 -12 0 -63 53 -63 66 0 14 27
33 46 34 7 0 14 -10 18 -22z m-6613 -124 c2 -71 -3 -82 -55 -123 l-38 -31 -32
23 c-48 34 -139 128 -163 170 -12 20 -20 37 -18 37 2 0 19 -9 38 -20 40 -24
112 -35 161 -26 29 6 41 16 63 54 l27 46 8 -34 c4 -19 8 -63 9 -96z m6721 80
c32 -45 49 -109 28 -102 -22 7 -80 98 -80 125 0 34 19 25 52 -23z m-278 -31
c-3 -27 -8 -49 -9 -51 -1 -2 -13 14 -26 35 -13 21 -27 44 -32 51 -6 9 3 12 33
12 l41 0 -7 -47z m-7784 12 c0 -22 -29 -75 -40 -75 -15 0 -12 43 6 68 18 26
34 29 34 7z m7404 -35 c12 -12 -16 -102 -46 -151 l-19 -30 -45 62 c-41 55 -45
64 -34 85 25 46 112 66 144 34z m505 -38 c25 -50 32 -99 22 -146 -15 -64 -28
-65 -55 -5 -37 79 -52 153 -38 184 10 22 15 24 32 15 11 -6 28 -27 39 -48z
m-329 31 c0 -10 -5 -25 -10 -33 -8 -13 -12 -13 -27 3 -17 18 -17 19 1 33 26
19 36 18 36 -3z m108 -5 c45 -49 58 -150 22 -183 -56 -51 -110 80 -71 173 16
38 21 39 49 10z m-7443 -81 c-14 -50 -39 -97 -52 -97 -16 0 -17 43 -2 73 28
55 67 71 54 24z m6898 -17 c-1 -19 -5 -75 -8 -124 l-7 -88 -36 34 c-21 19 -54
47 -74 62 l-37 28 15 36 c28 67 62 92 124 88 22 -1 25 -5 23 -36z m374 2 c38
-52 53 -91 53 -141 0 -42 -4 -53 -26 -70 -64 -50 -134 -4 -134 88 0 72 45 166
74 155 7 -3 22 -17 33 -32z m1807 -24 c26 -37 20 -96 -19 -176 l-35 -73 -28
33 c-48 55 -51 67 -36 112 24 67 63 126 84 126 10 0 26 -10 34 -22z m-2054
-72 c40 -82 60 -166 60 -248 0 -56 -3 -68 -16 -68 -26 0 -80 64 -99 117 -21
60 -31 208 -16 245 15 40 36 27 71 -46z m-6890 49 c0 -18 -52 -46 -68 -36 -16
10 -5 39 16 44 34 9 52 7 52 -8z m-1340 -44 c20 -38 12 -81 -21 -111 -57 -54
-99 -47 -99 16 0 26 9 43 40 74 44 44 64 50 80 21z m9995 -56 c14 -13 25 -31
25 -40 0 -42 -70 -135 -101 -135 -24 0 -69 61 -69 93 0 43 62 104 108 106 7 1
24 -10 37 -24z m-2115 -21 c0 -14 -4 -23 -10 -19 -5 3 -10 15 -10 26 0 10 5
19 10 19 6 0 10 -12 10 -26z m-39 -96 c19 -72 -27 -152 -63 -110 -44 50 -51
123 -17 166 l21 27 24 -22 c13 -13 29 -40 35 -61z m157 50 c57 -60 85 -168 43
-168 -33 0 -100 115 -101 173 0 36 19 34 58 -5z m-6497 -48 c15 -48 10 -55
-25 -39 -28 13 -32 29 -16 60 16 29 28 23 41 -21z m207 -2 c21 -21 13 -57 -23
-92 -39 -39 -101 -58 -115 -35 -15 24 38 96 95 127 26 14 29 14 43 0z m7922
-43 c0 -39 -30 -125 -44 -125 -15 0 -66 55 -66 71 0 20 31 68 57 89 26 20 28
20 40 4 7 -10 13 -27 13 -39z m-9504 21 c7 -29 -3 -66 -18 -66 -18 0 -48 32
-48 51 0 18 24 38 47 39 7 0 15 -11 19 -24z m-130 -7 c10 -17 -13 -36 -27 -22
-12 12 -4 33 11 33 5 0 12 -5 16 -11z m1888 -100 c-38 -41 -103 -89 -121 -89
-57 0 73 118 131 120 17 0 16 -4 -10 -31z m7166 6 c56 -29 48 -75 -31 -182
-57 -77 -96 -68 -106 22 -5 35 0 53 21 89 22 38 69 86 83 86 2 0 17 -7 33 -15z
m250 -12 c0 -29 -84 -133 -107 -133 -19 0 -16 55 3 86 25 37 104 73 104 47z
m-7620 -57 c0 -17 -27 -29 -35 -16 -4 6 -3 15 0 20 9 15 35 12 35 -4z m-106
-36 c32 -22 64 -40 71 -40 16 0 25 -22 25 -59 0 -15 9 -44 20 -66 11 -22 20
-45 20 -51 0 -7 -21 -52 -47 -101 -26 -48 -72 -146 -103 -218 l-57 -130 -47
-7 c-25 -3 -66 -18 -91 -32 l-44 -26 -7 45 c-4 29 -16 56 -34 75 -70 75 -214
3 -230 -114 -6 -44 -17 -53 -45 -33 -17 14 -17 16 12 53 42 52 47 74 32 139
-16 73 -27 81 -85 65 -63 -18 -110 -64 -125 -124 -6 -26 -18 -50 -25 -53 -28
-10 -184 80 -184 106 0 4 19 13 43 20 61 19 104 55 118 101 14 45 7 70 -18 70
-25 0 -143 -57 -170 -82 -30 -28 -55 -17 -51 23 2 26 9 33 38 43 19 6 40 22
47 36 18 35 16 95 -3 137 -14 28 -22 33 -43 31 -21 -2 -32 -15 -56 -65 -16
-34 -34 -63 -38 -63 -4 0 -27 17 -49 39 l-42 39 32 36 c17 20 35 48 38 61 4
18 12 24 23 21 85 -25 140 -38 219 -51 51 -9 105 -21 120 -27 15 -6 46 -16 70
-24 40 -12 44 -12 65 9 18 18 41 23 156 34 73 7 149 17 168 24 50 16 100 64
130 123 14 28 30 57 35 64 18 21 51 13 112 -28z m236 -55 c0 -8 -14 -38 -32
-67 -31 -49 -33 -51 -39 -28 -13 48 -10 89 9 99 26 16 62 13 62 -4z m7318 -27
c-2 -24 -12 -38 -37 -55 -19 -13 -36 -21 -38 -19 -7 6 60 106 70 106 5 0 7
-14 5 -32z m-8712 -53 c-6 -25 -36 -36 -36 -13 0 14 31 50 38 44 2 -3 2 -17
-2 -31z m8264 -41 c14 -41 9 -50 -18 -35 -26 14 -37 48 -22 66 16 20 26 12 40
-31z m-8728 -36 c-15 -15 -26 -4 -18 18 5 13 9 15 18 6 9 -9 9 -15 0 -24z
m-100 -3 c-7 -37 -47 -44 -112 -21 l-35 13 50 16 c68 21 101 18 97 -8z m10888
-20 c-12 -15 -30 -12 -30 6 0 5 10 9 21 9 18 0 19 -2 9 -15z m-2306 -21 c9 -3
16 -12 16 -20 0 -19 -46 -48 -65 -40 -15 5 -21 47 -8 59 8 9 36 9 57 1z
m-7838 -59 c-4 -14 -11 -25 -16 -25 -13 0 -13 16 1 42 14 26 23 16 15 -17z
m9690 -61 c8 -29 -7 -49 -31 -41 -22 9 -29 35 -15 52 19 23 39 18 46 -11z
m171 -26 c-3 -7 -5 -2 -5 12 0 14 2 19 5 13 2 -7 2 -19 0 -25z m-335 -105 c24
-21 23 -55 -2 -78 -20 -18 -50 -14 -50 7 0 22 21 88 27 88 4 0 15 -7 25 -17z
m-9134 -100 c3 -36 -1 -44 -23 -59 -33 -22 -75 -6 -75 28 0 28 8 39 40 61 38
27 55 18 58 -30z m246 -36 c27 -20 34 -111 11 -137 -37 -40 -145 -33 -145 10
0 48 69 140 104 140 7 0 20 -6 30 -13z m8621 -7 c0 -17 -43 -25 -64 -11 -22
14 -2 32 32 29 20 -2 32 -8 32 -18z m85 -45 c-9 -11 -16 -13 -23 -6 -7 7 -6
15 3 26 9 11 16 13 23 6 7 -7 6 -15 -3 -26z m-123 -36 l28 -10 -38 -35 c-21
-20 -43 -34 -50 -31 -7 2 -13 25 -15 52 -3 46 -3 47 22 41 14 -3 38 -11 53
-17z m-8441 -94 c-9 -14 -21 -25 -26 -25 -17 0 -11 26 12 56 19 24 23 25 26
11 2 -10 -4 -29 -12 -42z m8183 19 c16 -21 18 -30 10 -52 -26 -69 -71 -84
-135 -47 -54 32 -58 61 -13 99 43 36 109 37 138 0z m-8279 -54 c0 -6 -23 -9
-52 -9 -45 1 -49 2 -23 9 44 11 75 11 75 0z m-1612 -88 c4 -27 -43 -112 -62
-112 -12 0 -36 47 -36 71 0 4 12 22 26 39 31 37 67 38 72 2z m9692 -31 c0 -16
-7 -34 -15 -41 -13 -11 -15 -7 -15 27 0 22 3 43 6 46 12 12 24 -4 24 -32z
m-115 2 c3 -10 9 -46 12 -80 7 -77 -6 -82 -67 -27 -48 44 -50 64 -9 98 36 30
54 33 64 9z m-9395 -98 c0 -26 -28 -67 -41 -60 -13 8 -11 72 2 97 11 21 12 21
25 3 8 -10 14 -28 14 -40z m204 39 c22 -9 20 -57 -3 -85 -17 -21 -21 -22 -34
-9 -24 25 -39 82 -25 92 16 9 41 10 62 2z m216 -94 c-6 -11 -18 -20 -28 -20
-14 1 -13 4 7 20 29 25 34 25 21 0z m8500 -5 c29 -31 17 -48 -31 -43 -28 2
-33 7 -31 23 4 22 20 45 31 45 4 0 18 -11 31 -25z m212 -32 c24 -21 24 -63 0
-63 -24 0 -42 19 -42 45 0 37 14 43 42 18z m-8308 -12 c14 -22 -96 -151 -129
-151 -32 0 -34 78 -2 107 46 43 117 67 131 44z m7744 -53 c-3 -7 -11 -13 -18
-13 -7 0 -15 6 -17 13 -3 7 4 12 17 12 13 0 20 -5 18 -12z m152 -110 c0 -19
-35 -32 -67 -26 -20 4 -29 52 -18 96 l6 25 40 -39 c21 -21 39 -46 39 -56z
m-7734 27 c9 -37 -3 -90 -27 -111 -19 -17 -21 -17 -51 14 -30 29 -31 33 -18
57 12 23 65 64 82 65 4 0 10 -11 14 -25z m308 -33 c0 -25 -8 -50 -17 -59 -15
-15 -18 -15 -37 2 -27 25 -26 70 3 90 36 25 52 15 51 -33z m134 -123 c-4 -32
-28 -43 -62 -29 l-30 11 30 19 c40 27 66 26 62 -1z m-20 -94 c18 -2 35 -5 36
-7 14 -18 56 -103 56 -113 0 -20 -63 -55 -99 -55 -17 0 -47 6 -65 14 -71 30
-93 84 -60 148 15 29 18 30 57 23 23 -5 57 -9 75 -10z m142 -31 c0 -16 -16
-19 -25 -4 -8 13 4 32 16 25 5 -4 9 -13 9 -21z m8990 -65 c0 -17 -4 -28 -10
-24 -5 3 -10 17 -10 31 0 13 5 24 10 24 6 0 10 -14 10 -31z m-734 -4 c6 -16
-12 -45 -27 -45 -10 0 -12 44 -2 53 11 11 23 8 29 -8z m-262 -93 c-24 -36 -29
-13 -8 35 16 34 18 36 21 15 3 -13 -3 -35 -13 -50z m-234 -25 c0 -14 -20 -37
-32 -37 -12 0 -10 24 4 38 16 16 28 15 28 -1z m840 -134 c0 -22 -32 -73 -46
-73 -13 0 -59 58 -52 65 9 10 83 32 91 28 4 -2 7 -11 7 -20z m170 -18 c17 -20
6 -86 -17 -102 -24 -19 -70 -16 -77 4 -11 26 14 82 42 98 34 18 37 18 52 0z
m-8680 -24 c0 -17 -10 -42 -24 -58 -20 -24 -26 -25 -40 -14 -26 22 -20 68 12
85 41 23 52 20 52 -13z m-567 -73 c13 -18 30 -49 36 -68 11 -32 10 -37 -10
-53 -30 -24 -69 -33 -79 -17 -4 7 -11 39 -14 71 -11 96 21 128 67 67z m677
-70 c0 -8 -61 11 -74 23 -5 4 -5 20 -2 35 l7 28 34 -39 c19 -22 34 -43 35 -47z
m8155 58 c19 -19 23 -30 16 -47 -13 -35 -32 -42 -79 -29 -42 11 -82 40 -82 59
0 45 105 57 145 17z m-9108 -21 c-7 -16 -37 -21 -37 -5 0 10 32 31 39 25 2 -2
1 -11 -2 -20z m478 6 c95 -44 110 -107 26 -105 -45 1 -81 22 -114 66 -40 54 9
76 88 39z m-664 -1 c10 -6 19 -17 19 -25 0 -21 -55 -79 -68 -71 -15 9 -35 74
-28 91 6 17 49 20 77 5z m94 -61 c5 -14 1 -27 -9 -37 -21 -21 -29 -10 -21 27
8 36 21 40 30 10z m-371 -57 c11 -50 0 -68 -37 -58 -31 7 -87 53 -87 70 0 15
55 35 90 33 21 -2 26 -9 34 -45z m9170 32 c10 -27 7 -56 -6 -52 -15 5 -24 68
-10 68 6 0 13 -7 16 -16z m214 -10 c4 -26 -22 -38 -49 -24 -36 20 -21 53 21
48 17 -2 26 -10 28 -24z m114 -29 c2 -12 -49 -31 -58 -22 -4 3 -4 13 0 22 6
18 55 18 58 0z m-8617 -22 c19 -9 34 -22 32 -27 -5 -16 -87 -34 -125 -28 -43
6 -41 27 6 51 46 25 44 25 87 4z m8109 -44 c29 -34 26 -55 -4 -39 -30 16 -54
70 -31 70 5 0 21 -14 35 -31z m-207 -73 c-8 -24 -27 -14 -36 21 -16 57 -14 60
14 23 14 -19 24 -39 22 -44z m-193 22 c9 -12 16 -33 16 -47 0 -24 0 -24 -21
-5 -12 10 -27 31 -35 46 -13 26 -13 28 5 28 11 0 27 -10 35 -22z m-7447 -482
c-3 -29 -17 -75 -31 -102 l-25 -49 -1 64 c0 47 6 73 22 102 30 54 42 49 35
-15z m269 28 c15 -59 -19 -204 -47 -204 -18 0 -49 56 -49 87 0 38 10 61 47
111 29 39 41 40 49 6z m-672 -103 c0 -24 -8 -49 -16 -58 -34 -33 -48 55 -16
95 19 22 33 6 32 -37z m-904 -67 c23 -68 -19 -104 -46 -39 -15 36 -19 87 -7
98 11 11 41 -23 53 -59z m223 2 c16 -30 17 -42 9 -62 -7 -13 -16 -24 -22 -24
-13 0 -38 62 -47 114 l-6 41 23 -16 c13 -9 33 -33 43 -53z m385 52 c-3 -7 -13
-37 -23 -65 -13 -38 -24 -53 -37 -53 -32 0 -21 66 20 113 17 20 46 23 40 5z
m-1494 -11 c14 -10 19 -32 23 -103 l5 -89 -56 55 c-31 30 -59 65 -63 78 -6 25
11 50 42 62 28 12 29 12 49 -3z m-264 -16 c0 -5 -9 -19 -19 -32 -26 -32 -49
-14 -25 19 15 22 44 30 44 13z m588 -39 c2 -28 -3 -53 -13 -69 -16 -23 -18
-24 -35 -8 -44 40 -27 130 23 123 18 -2 23 -11 25 -46z m312 33 c18 -21 6 -56
-31 -90 l-32 -30 7 55 c10 74 29 97 56 65z m2458 -189 c3 -12 -1 -17 -10 -14
-7 3 -15 13 -16 22 -3 12 1 17 10 14 7 -3 15 -13 16 -22z m336 -111 c99 -73
229 -155 353 -223 98 -54 169 -111 252 -206 155 -175 311 -463 311 -572 0 -28
-5 -35 -26 -40 -36 -9 -56 3 -169 103 -236 208 -450 357 -847 587 -92 54 -193
117 -224 141 -46 36 -60 42 -75 34 -56 -29 18 -99 243 -231 396 -233 580 -358
791 -538 110 -94 156 -144 145 -156 -3 -3 -37 18 -74 47 -88 67 -125 89 -146
89 -35 0 -17 -26 78 -115 81 -75 96 -94 90 -112 -6 -19 -122 -123 -137 -123
-4 0 -73 57 -155 128 -377 323 -783 629 -897 677 -36 15 -67 11 -67 -8 0 -18
75 -82 191 -162 318 -220 849 -654 849 -694 0 -10 -9 -26 -20 -36 -21 -19 -23
-18 -106 23 -46 23 -91 42 -99 42 -40 0 3 -55 77 -99 50 -30 57 -56 25 -89
-18 -18 -31 -23 -49 -18 -12 3 -77 65 -143 137 -115 126 -263 268 -370 356
-71 58 -207 143 -228 143 -32 0 -15 -32 43 -77 188 -148 242 -196 410 -363
103 -102 200 -204 215 -228 27 -41 28 -44 13 -75 -9 -18 -37 -60 -62 -95 l-47
-63 -153 183 c-211 251 -240 283 -254 274 -27 -16 9 -69 225 -334 86 -106 133
-171 133 -186 0 -27 -73 -141 -96 -150 -8 -3 -23 -2 -32 3 -33 17 -118 116
-179 206 -114 170 -239 298 -588 600 -230 200 -400 373 -473 484 -49 75 -69
118 -102 224 -23 73 -51 147 -61 165 -21 36 -20 37 48 45 23 3 67 17 99 31 36
17 89 30 144 36 48 5 104 17 123 25 20 8 60 15 90 15 65 0 137 20 212 60 53
28 64 30 169 30 153 0 203 15 257 80 29 35 57 56 93 69 84 33 101 29 200 -44z
m6511 -10 c9 -30 15 -69 13 -87 l-3 -32 -33 42 c-34 42 -51 104 -38 137 11 30
45 -2 61 -60z m-7175 41 c0 -16 -18 -31 -27 -22 -8 8 5 36 17 36 5 0 10 -6 10
-14z m6924 -58 c17 -23 6 -48 -20 -48 -18 0 -35 34 -28 54 9 23 30 20 48 -6z
m601 -77 c-4 -14 -9 -28 -11 -30 -11 -11 -27 22 -31 66 l-4 48 26 -29 c20 -22
25 -35 20 -55z m-957 5 c4 -31 -39 -86 -66 -86 -20 0 -9 52 19 91 25 35 43 33
47 -5z m-7164 -22 c4 -9 4 -19 2 -22 -10 -9 -36 8 -36 23 0 20 26 19 34 -1z
m7286 -158 c0 -37 -39 -98 -40 -62 0 28 22 96 32 96 4 0 8 -15 8 -34z m-94 -7
c-3 -17 -6 -40 -6 -50 0 -12 -7 -19 -18 -19 -18 0 -92 56 -92 70 0 4 21 12 48
18 76 16 75 16 68 -19z m266 -130 c41 -22 34 -94 -12 -140 -23 -23 -37 -29
-73 -29 -62 0 -97 29 -97 80 0 44 37 96 73 103 28 6 86 -2 109 -14z m-1292
-37 c0 -10 -7 -27 -15 -40 -18 -24 -103 -77 -111 -69 -12 11 9 50 47 88 41 41
79 52 79 21z m179 -176 c9 -11 3 -21 -31 -50 -44 -38 -164 -84 -180 -68 -13
13 22 52 85 93 62 40 106 49 126 25z m1177 1 c8 -21 -14 -67 -31 -67 -17 0
-19 18 -5 54 10 28 28 34 36 13z m-113 -27 c5 -5 6 -17 2 -29 -10 -32 -50 -26
-93 14 l-37 35 60 -6 c33 -4 64 -10 68 -14z m255 -150 c5 -34 -14 -94 -38
-115 -22 -20 -75 -24 -92 -7 -17 17 -2 55 43 106 47 53 81 59 87 16z m-1213
-10 c4 -6 4 -29 0 -51 -8 -46 -35 -68 -95 -76 -35 -5 -40 -3 -40 15 0 25 44
78 85 103 35 22 41 23 50 9z m1351 -174 c-4 -19 -20 -48 -35 -65 -31 -33 -71
-42 -71 -16 0 27 38 92 66 114 34 27 49 15 40 -33z m-1208 -18 c2 -27 -3 -43
-17 -57 -42 -42 -98 -15 -84 40 10 40 34 60 67 57 28 -3 31 -7 34 -40z m-155
2 c8 -30 -4 -98 -19 -111 -19 -16 -82 -2 -94 21 -14 25 -13 77 2 86 13 8 65
21 89 23 9 1 19 -8 22 -19z m1203 -4 c7 -18 -13 -56 -29 -56 -7 0 -28 16 -47
35 l-34 35 52 0 c36 0 54 -4 58 -14z m-896 -127 c20 -36 4 -67 -53 -99 -28
-16 -58 -30 -64 -30 -32 0 -3 118 34 139 31 18 71 13 83 -10z m1229 -10 c20
-37 7 -77 -42 -123 l-42 -40 -3 59 c-6 110 48 174 87 104z m-1429 -18 c13 -26
13 -108 -1 -116 -20 -13 -49 26 -49 66 0 66 26 93 50 50z m400 -119 c0 -45
-98 -140 -115 -111 -14 21 6 78 36 103 36 31 79 35 79 8z m1178 -97 c-2 -15
-12 -21 -35 -23 -39 -4 -40 1 -12 48 20 33 22 33 35 15 8 -11 13 -29 12 -40z
m-2358 -430 c0 -8 -74 -55 -88 -55 -21 0 -4 18 36 40 37 19 52 24 52 15z
m-4410 -2758 c0 -20 -28 -42 -95 -77 -75 -38 -101 -39 -109 -4 -14 56 42 90
157 93 33 1 47 -3 47 -12z m-242 -66 c2 -24 -1 -48 -6 -53 -5 -5 -37 -3 -79 7
-72 16 -114 37 -101 51 16 16 115 44 148 41 34 -2 35 -4 38 -46z m4462 24 c19
-22 3 -35 -46 -35 -49 0 -56 11 -22 34 28 20 52 20 68 1z m-4055 -87 l38 -41
-30 -28 c-36 -32 -106 -49 -198 -49 -73 0 -80 9 -35 48 27 24 166 109 181 111
4 1 24 -18 44 -41z m4100 -59 c20 -18 41 -41 47 -53 14 -26 38 -143 30 -151
-14 -13 -84 -3 -116 18 -107 67 -141 95 -164 138 -39 70 -30 79 77 79 87 0 92
-1 126 -31z m-3940 -45 c53 -57 20 -114 -65 -114 -53 0 -75 14 -84 51 -5 23 0
31 42 58 58 38 76 39 107 5z m-465 -114 c0 -76 -93 -180 -160 -180 -25 0 -25
12 0 78 11 29 20 60 20 70 0 29 17 45 56 52 76 15 84 13 84 -20z m4128 -8 c37
-24 59 -64 65 -117 3 -27 13 -91 22 -140 l17 -91 101 -51 c109 -55 147 -84
147 -110 0 -24 -52 -12 -192 48 -68 28 -172 69 -233 89 -86 29 -113 42 -122
61 -62 128 -74 160 -71 180 5 39 29 32 108 -31 77 -61 110 -74 110 -42 0 19
-54 79 -108 120 l-33 25 28 30 c52 55 105 65 161 29z m-3518 -2 c13 -24 0 -54
-30 -70 -33 -18 -50 -12 -50 18 0 59 57 96 80 52z m-179 -70 c26 -14 24 -48
-3 -60 -13 -5 -67 -27 -120 -49 -54 -23 -102 -41 -108 -41 -41 0 39 129 90
147 44 15 115 16 141 3z m3865 -15 c52 -52 124 -242 98 -258 -16 -9 -77 18
-96 43 -20 27 -63 214 -53 230 10 16 24 12 51 -15z m-3461 -96 c10 -15 -5 -28
-42 -35 -26 -5 -32 -2 -38 15 -3 11 -1 29 5 41 10 19 13 19 40 5 16 -8 32 -20
35 -26z m-160 6 c0 -12 -11 -25 -27 -33 -36 -17 -38 -52 -4 -52 36 0 40 -16
16 -55 -33 -53 -56 -65 -126 -65 -87 0 -96 13 -59 90 34 70 69 106 121 126 51
18 79 14 79 -11z m3137 -22 c21 -25 48 -79 48 -98 0 -8 -7 -15 -16 -15 -18 0
-134 68 -134 78 0 10 62 52 76 52 6 0 18 -8 26 -17z m-3362 -8 c0 -8 -16 -33
-36 -54 -26 -29 -50 -44 -92 -56 -31 -9 -78 -28 -105 -41 l-48 -25 3 47 3 48
55 17 c30 9 84 30 120 48 72 34 100 39 100 16z m411 -136 c5 -68 11 -93 27
-114 52 -66 6 -89 -59 -30 -22 19 -43 35 -49 35 -14 0 -30 -35 -30 -68 0 -33
-14 -42 -64 -42 -81 0 -82 45 -4 147 26 36 57 82 68 103 23 45 45 61 80 57 24
-2 25 -5 31 -88z m2840 65 c7 -9 37 -30 66 -46 65 -37 88 -64 107 -133 20 -68
20 -81 -5 -135 l-21 -45 -16 40 c-24 62 -92 164 -155 231 -57 61 -69 88 -44
97 25 11 55 7 68 -9z m-2622 -59 c13 -13 12 -17 -4 -35 -26 -29 -90 -47 -110
-30 -18 15 -20 61 -2 79 15 16 96 7 116 -14z m2557 -47 c92 -100 181 -248 149
-248 -17 0 -88 45 -138 87 -55 48 -167 170 -167 183 0 9 61 39 81 39 9 1 43
-27 75 -61z m-3281 -25 c-20 -115 -52 -212 -108 -330 -34 -73 -65 -133 -68
-133 -3 0 -10 86 -14 191 -6 180 -6 193 12 218 23 31 128 90 162 91 21 0 23
-3 16 -37z m903 -25 c-7 -19 -38 -22 -38 -4 0 10 9 16 21 16 12 0 19 -5 17
-12z m2076 -60 c18 -25 21 -48 6 -48 -5 0 -24 13 -42 28 -21 20 -29 34 -25 46
8 21 37 8 61 -26z m-1991 -46 c-2 -48 -25 -92 -48 -92 -17 0 -69 96 -61 115 5
14 43 23 86 21 23 -1 25 -5 23 -44z m1887 3 c28 -25 68 -54 90 -65 32 -16 47
-35 74 -88 19 -37 50 -89 70 -117 41 -57 45 -75 15 -75 -13 0 -36 17 -58 43
-20 23 -97 102 -171 175 l-135 133 24 19 c13 11 27 20 32 20 4 0 31 -20 59
-45z m-1693 5 c30 -13 45 -27 50 -47 13 -46 9 -138 -7 -167 -14 -26 -96 -83
-106 -74 -9 10 -25 224 -19 258 11 59 16 60 82 30z m3107 -60 c42 -38 75 -94
63 -106 -9 -9 -81 33 -119 70 -78 75 -23 109 56 36z m-2956 14 c26 -18 27 -34
6 -76 -18 -36 -29 -29 -42 27 -14 63 -4 77 36 49z m-996 -39 c44 -7 49 -18 31
-70 -27 -78 -136 -209 -157 -188 -18 18 11 230 35 259 6 8 21 12 33 9 11 -2
38 -6 58 -10z m2143 -15 c10 -46 -3 -55 -36 -24 -37 36 -37 54 0 54 24 0 31
-5 36 -30z m735 -10 c46 -91 80 -314 51 -342 -16 -17 -41 14 -41 53 0 38 -30
103 -82 180 -62 89 -65 102 -32 128 15 12 39 21 55 21 23 0 32 -7 49 -40z
m-410 10 c20 -11 65 -78 58 -86 -6 -6 -98 75 -98 87 0 12 17 11 40 -1z m-1101
-24 c27 -29 78 -157 86 -217 l7 -44 -21 25 c-31 38 -101 183 -108 224 -7 42 4
46 36 12z m536 -71 c8 -18 15 -48 15 -66 0 -35 -36 -119 -51 -119 -17 0 -39
105 -39 189 l0 85 30 -29 c16 -15 36 -43 45 -60z m-787 -71 c6 -164 -8 -200
-60 -160 -52 39 -47 190 9 257 38 44 47 25 51 -97z m-183 -88 c-9 -19 -52 -77
-96 -128 -137 -161 -216 -266 -240 -318 -24 -54 -39 -64 -39 -27 0 69 76 238
158 351 64 88 99 124 167 168 l60 39 3 -25 c2 -14 -4 -41 -13 -60z m1414 -37
c24 -56 19 -76 -19 -64 -26 8 -40 42 -40 96 0 36 2 39 19 30 10 -6 28 -33 40
-62z m-734 -75 c20 -21 65 -119 65 -139 0 -16 -28 2 -76 46 -39 38 -54 59 -54
79 0 48 28 54 65 14z"/>
</g>
</svg>
