<?xml version="1.0" standalone="no"?>
<!DOCTYPE svg PUBLIC "-//W3C//DTD SVG 20010904//EN"
 "http://www.w3.org/TR/2001/REC-SVG-20010904/DTD/svg10.dtd">
<svg version="1.0" xmlns="http://www.w3.org/2000/svg"
 width="1536.000000pt" height="1205.000000pt" viewBox="0 0 1536.000000 1205.000000"
 preserveAspectRatio="xMidYMid meet">
<metadata>
Created by potrace 1.16, written by Peter Selinger 2001-2019
</metadata>
<g transform="translate(0.000000,1205.000000) scale(0.100000,-0.100000)"
fill="#000000" stroke="none">
<path d="M7045 11998 c-89 -99 -220 -283 -320 -447 -101 -165 -168 -251 -198
-251 -24 0 -130 151 -197 282 l-60 116 9 64 c7 51 5 74 -10 125 -24 75 -31 74
-95 -10 -58 -78 -69 -99 -174 -347 -108 -253 -232 -520 -241 -515 -7 5 -138
223 -163 273 -10 19 -37 91 -61 162 -52 149 -93 240 -109 240 -7 0 -31 -12
-54 -27 -36 -24 -42 -33 -47 -73 -3 -25 -19 -79 -34 -120 -45 -117 -128 -424
-146 -533 -8 -54 -24 -138 -35 -188 -11 -49 -20 -99 -20 -111 -1 -57 -16 -54
-96 18 -42 38 -107 94 -143 125 -61 51 -72 67 -151 219 -47 90 -90 166 -97
168 -6 2 -17 -7 -24 -20 -15 -27 -35 -308 -47 -641 -5 -145 -12 -231 -20 -239
-8 -8 -53 16 -174 93 -134 85 -180 121 -263 205 -91 92 -137 125 -152 110 -9
-9 -4 -229 8 -286 12 -64 59 -228 89 -315 20 -57 20 -60 3 -73 -25 -18 -84 -8
-223 38 -143 47 -234 91 -280 134 -43 40 -101 76 -124 76 -24 0 -15 -25 42
-125 83 -147 163 -252 309 -405 48 -51 83 -96 83 -108 0 -15 -19 -30 -67 -57
-74 -41 -115 -71 -208 -154 -33 -29 -103 -83 -155 -119 -207 -143 -309 -221
-410 -313 -58 -53 -143 -131 -189 -173 -47 -42 -119 -101 -160 -130 -88 -62
-604 -581 -801 -806 -137 -156 -186 -201 -380 -355 -69 -54 -163 -135 -210
-180 -47 -45 -107 -100 -135 -122 -72 -60 -320 -312 -414 -423 -45 -52 -108
-138 -140 -190 -33 -52 -98 -140 -145 -195 -47 -55 -122 -156 -166 -225 -45
-69 -88 -134 -96 -145 -12 -19 -10 -29 25 -98 l38 -76 -23 -34 c-18 -27 -32
-36 -66 -41 -23 -4 -62 -19 -85 -34 -51 -32 -54 -51 -22 -145 33 -98 176 -354
240 -427 22 -25 72 -86 112 -135 41 -50 135 -149 211 -220 75 -72 157 -155
181 -185 24 -30 83 -95 132 -145 49 -49 112 -124 141 -166 70 -105 124 -164
287 -314 189 -175 246 -234 319 -332 87 -115 418 -385 586 -476 63 -34 196
-116 295 -182 99 -65 236 -149 305 -185 69 -36 181 -97 249 -135 68 -39 209
-110 314 -160 l191 -90 18 -60 c10 -33 43 -160 73 -283 31 -123 69 -258 86
-300 17 -42 85 -220 150 -395 66 -175 130 -342 143 -371 51 -115 361 -591 378
-580 5 4 8 24 6 45 -3 28 0 39 10 39 8 0 69 -55 136 -122 148 -149 339 -325
412 -379 l53 -39 110 0 110 0 -6 34 c-5 31 -2 37 38 66 24 18 58 39 74 47 44
21 95 123 95 188 0 28 7 99 15 160 13 100 13 114 -2 163 l-17 53 31 24 c22 18
32 36 37 66 4 23 22 67 41 98 19 31 41 76 50 100 23 66 18 292 -10 442 -6 31
-3 41 23 70 26 30 30 44 36 121 l7 88 -42 62 c-23 34 -61 79 -83 100 -49 47
-428 236 -681 340 -150 61 -205 88 -182 88 4 0 56 -16 115 -35 240 -77 720
-184 982 -219 63 -8 180 -29 260 -46 191 -41 565 -88 804 -101 112 -6 343 -7
561 -4 360 7 372 6 430 -14 33 -12 76 -32 96 -45 l36 -24 7 -113 c5 -91 14
-138 46 -239 81 -259 110 -360 155 -540 93 -374 118 -427 136 -294 6 44 15 64
39 89 29 30 32 40 50 176 20 161 48 277 91 391 34 87 46 101 86 96 25 -3 35
-17 86 -113 147 -280 214 -376 370 -528 61 -60 192 -173 291 -251 260 -204
255 -201 268 -188 7 7 -7 29 -48 74 -42 45 -64 79 -78 120 l-19 58 36 81 37
81 0 152 0 152 44 36 c42 35 46 37 102 32 85 -8 168 -54 324 -178 41 -33 138
-100 215 -151 262 -170 263 -170 176 -15 -33 58 -56 109 -51 113 11 12 169 -8
256 -32 38 -10 107 -36 154 -58 92 -44 240 -95 335 -116 l60 -14 185 53 c135
39 217 69 305 113 66 32 161 73 210 91 334 119 422 159 541 244 64 46 170 116
235 156 148 89 256 185 589 521 209 211 276 286 372 416 65 87 135 181 157
208 45 56 47 66 76 387 l15 166 -35 99 c-27 77 -38 129 -49 233 l-13 135 -92
210 c-127 290 -209 434 -374 656 -57 78 -230 244 -360 347 -43 34 -73 62 -68
62 30 0 272 -134 425 -234 94 -62 209 -138 256 -168 91 -59 208 -161 470 -408
210 -198 233 -216 360 -285 58 -32 137 -79 175 -105 67 -46 152 -80 201 -80
17 0 26 10 40 46 9 25 53 109 97 187 136 244 185 352 256 572 50 153 72 237
80 310 22 179 41 285 70 383 18 62 31 134 35 197 3 55 18 218 32 363 22 234
24 278 14 385 -22 242 -119 859 -190 1208 l-50 241 -84 180 c-47 98 -110 225
-140 282 l-55 103 -72 16 -72 15 -92 -40 c-86 -38 -95 -44 -150 -114 -32 -41
-73 -84 -92 -95 -19 -12 -59 -53 -91 -93 -31 -39 -104 -127 -162 -196 -59 -69
-162 -195 -230 -280 -186 -233 -362 -423 -490 -529 -63 -53 -135 -114 -160
-137 -69 -63 -239 -194 -267 -205 -79 -30 -39 9 242 232 67 53 150 129 185
169 77 88 131 143 266 270 88 83 177 193 238 294 254 419 356 682 327 841 -22
117 -98 306 -230 565 -144 286 -212 397 -343 560 -46 58 -104 131 -127 164
-24 32 -76 94 -115 136 -39 43 -98 123 -131 179 l-60 101 -125 84 c-737 495
-895 584 -1315 737 -62 23 -111 24 -159 4 -30 -13 -67 -14 -204 -10 -92 4
-177 8 -190 11 -21 4 -22 6 -7 34 14 27 14 30 -4 40 -11 5 -26 10 -34 10 -48
0 -146 43 -193 84 -51 45 -51 45 -175 62 -104 15 -142 25 -237 66 l-113 49
-43 -20 c-24 -10 -47 -24 -51 -31 -5 -8 -13 -2 -25 18 -10 16 -57 54 -105 83
-47 30 -114 71 -147 92 l-60 38 -41 -25 c-23 -13 -51 -31 -61 -39 -17 -13 -25
-7 -95 65 -57 60 -83 96 -104 146 -28 67 -58 101 -89 102 -27 0 -180 -75 -231
-114 -26 -20 -49 -36 -51 -36 -14 0 -37 114 -47 229 -6 74 -13 139 -15 143 -3
4 -32 8 -66 8 -71 0 -119 -25 -270 -144 -142 -110 -215 -159 -227 -152 -20 12
-41 110 -47 211 l-5 100 45 63 c41 58 44 66 34 94 -11 31 -60 68 -91 68 -11 0
-60 -21 -109 -47 -84 -43 -105 -61 -277 -235 -102 -103 -190 -188 -196 -188
-6 0 -37 22 -70 49 -56 45 -61 52 -73 108 -17 85 -15 270 5 375 12 60 14 91 7
98 -16 16 -151 -88 -204 -157 -25 -32 -108 -123 -186 -203 -77 -80 -159 -168
-181 -197 -39 -50 -41 -52 -57 -34 -9 10 -36 65 -59 122 -24 57 -66 139 -95
181 l-52 77 0 131 c0 71 -4 130 -9 130 -5 0 -30 -24 -56 -52z"/>
</g>
</svg>
