<?xml version="1.0" standalone="no"?>
<!DOCTYPE svg PUBLIC "-//W3C//DTD SVG 20010904//EN"
 "http://www.w3.org/TR/2001/REC-SVG-20010904/DTD/svg10.dtd">
<svg version="1.0" xmlns="http://www.w3.org/2000/svg"
 width="717.000000pt" height="1536.000000pt" viewBox="0 0 717.000000 1536.000000"
 preserveAspectRatio="xMidYMid meet">
<metadata>
Created by potrace 1.16, written by Peter Selinger 2001-2019
</metadata>
<g transform="translate(0.000000,1536.000000) scale(0.100000,-0.100000)"
fill="#000000" stroke="none">
<path d="M2123 15299 c15 -137 29 -553 24 -684 -7 -173 -25 -247 -110 -443
-106 -242 -183 -492 -252 -817 -58 -271 -74 -314 -235 -632 -83 -162 -158
-324 -170 -365 -47 -162 -66 -209 -136 -353 -74 -153 -129 -247 -293 -505 -50
-80 -137 -237 -192 -350 -160 -327 -177 -359 -254 -475 -98 -149 -105 -163
-195 -428 -43 -128 -104 -304 -135 -392 -119 -336 -162 -570 -172 -925 -7
-270 2 -360 63 -663 66 -326 113 -615 120 -730 7 -103 -4 -327 -32 -685 -14
-186 -14 -199 6 -334 11 -77 20 -166 20 -197 0 -50 5 -66 38 -117 21 -32 105
-131 187 -219 81 -88 191 -216 245 -285 198 -254 366 -439 914 -1007 142 -147
329 -347 415 -443 210 -235 296 -325 426 -443 95 -86 125 -107 224 -154 70
-34 110 -58 104 -64 -5 -5 -63 -14 -129 -19 -220 -19 -288 -29 -314 -48 -33
-23 -121 -203 -161 -327 -157 -497 -318 -934 -476 -1292 -88 -200 -116 -218
-280 -184 -75 15 -102 26 -125 48 -42 40 -179 211 -253 318 -112 161 -488 753
-583 918 l-47 82 -5 657 c-5 605 -6 659 -22 675 -17 16 -18 15 -32 -18 -22
-54 -35 -140 -46 -324 -16 -265 -32 -933 -25 -1008 6 -60 15 -80 70 -173 35
-58 82 -129 104 -157 22 -29 72 -108 111 -177 40 -69 123 -202 186 -296 232
-351 415 -574 509 -622 53 -27 178 -53 287 -59 77 -5 90 -3 121 16 48 29 119
142 243 386 175 343 301 645 435 1048 44 133 89 253 100 268 28 39 75 52 167
44 106 -8 142 -14 142 -24 0 -5 -41 -30 -90 -56 -50 -25 -99 -55 -109 -66 -10
-11 -26 -46 -34 -77 -20 -74 -98 -528 -137 -797 -46 -320 -67 -436 -111 -610
-63 -252 -85 -327 -156 -537 l-66 -198 -86 0 c-121 1 -157 12 -251 77 -233
163 -649 523 -744 645 -20 25 -99 103 -175 172 -209 192 -252 251 -341 471
-29 72 -84 202 -123 290 -38 88 -76 183 -83 210 -8 28 -21 135 -30 240 -18
217 -29 258 -71 253 -38 -4 -49 -40 -64 -216 -14 -170 -10 -199 62 -410 155
-454 265 -665 467 -887 128 -142 436 -446 577 -570 165 -145 375 -299 479
-351 80 -39 105 -47 194 -57 109 -12 258 0 302 23 32 17 69 108 148 360 195
627 285 1023 336 1479 19 172 39 308 46 315 15 14 59 -35 61 -67 2 -39 -1 -51
-38 -130 -36 -79 -36 -79 -50 -305 -7 -125 -18 -337 -23 -471 -5 -135 -19
-333 -30 -440 -28 -277 -48 -515 -60 -741 -35 -645 -43 -701 -102 -708 -42 -5
-205 43 -340 100 -129 54 -479 227 -612 302 -47 26 -119 55 -177 71 -79 22
-120 41 -223 105 -69 43 -143 90 -164 106 -75 57 -302 268 -330 308 -43 59
-136 224 -156 275 -10 25 -35 74 -55 110 -53 92 -93 185 -166 393 -66 187 -86
228 -110 228 -41 0 -54 -99 -27 -211 11 -46 27 -118 36 -159 23 -103 62 -189
217 -476 l134 -247 120 -114 c66 -63 152 -139 190 -168 144 -108 326 -227 372
-242 27 -9 68 -31 93 -50 24 -18 75 -43 112 -54 37 -12 109 -43 160 -70 198
-105 371 -189 389 -189 11 0 58 -19 105 -41 185 -89 427 -152 517 -135 51 9
91 50 111 111 9 28 21 113 27 190 5 77 18 203 29 280 41 295 49 387 85 970 14
226 32 520 40 655 8 135 20 262 25 282 12 43 69 122 90 126 8 1 21 -10 27 -25
7 -16 49 -67 93 -116 99 -108 99 -114 29 -258 -107 -218 -149 -395 -149 -626
0 -216 45 -414 135 -593 79 -156 169 -238 299 -271 36 -9 55 -22 83 -55 24
-30 43 -44 60 -44 31 0 73 28 83 56 6 15 43 40 110 74 72 37 118 69 160 112
150 149 229 443 233 863 2 188 -17 295 -89 512 -24 73 -44 137 -44 142 0 5 29
30 64 55 38 27 78 67 99 99 20 29 43 59 51 66 24 20 53 3 77 -46 21 -44 22
-51 16 -302 -3 -141 -11 -391 -18 -556 -12 -317 -6 -924 12 -1124 16 -194 87
-374 198 -502 47 -54 91 -79 141 -79 96 0 396 92 655 202 413 174 492 211 555
252 82 55 151 89 331 166 79 34 163 72 185 85 98 57 344 394 537 733 82 145
119 220 128 260 13 65 7 178 -11 195 -16 16 -53 -29 -115 -140 -27 -49 -67
-117 -90 -153 -23 -36 -59 -99 -80 -140 -78 -156 -293 -475 -376 -559 -39 -40
-80 -65 -186 -116 -74 -36 -174 -92 -222 -124 -100 -69 -142 -91 -170 -91 -57
0 -322 -113 -463 -198 -162 -97 -247 -132 -487 -203 -179 -52 -187 -52 -247
14 -54 59 -98 141 -113 208 -32 150 -13 849 44 1624 20 272 25 312 37 291 15
-27 55 -250 79 -436 14 -116 34 -220 59 -310 21 -74 52 -201 69 -282 58 -270
94 -341 215 -422 33 -22 50 -26 112 -26 110 0 165 16 332 96 169 82 656 346
797 433 217 133 393 268 536 411 131 129 258 316 365 535 41 82 85 170 99 195
28 51 31 99 15 245 -11 95 -26 155 -40 155 -14 0 -39 -75 -60 -182 -26 -126
-75 -245 -184 -448 -174 -325 -225 -388 -423 -527 -177 -124 -463 -305 -658
-417 -99 -56 -243 -141 -321 -188 -159 -98 -209 -122 -344 -167 -128 -42 -133
-42 -159 18 -48 113 -129 443 -200 816 -51 268 -71 421 -81 625 -14 281 -53
564 -91 649 -28 64 -74 108 -133 127 -76 24 -96 40 -96 74 0 16 3 31 8 33 7 4
204 -28 229 -37 13 -6 78 -103 86 -132 4 -10 15 -82 27 -159 41 -290 158 -621
349 -990 139 -268 231 -412 294 -459 24 -18 43 -21 115 -21 143 0 172 13 282
124 142 143 358 438 479 651 23 41 75 117 115 168 40 51 94 131 121 179 27 49
80 137 118 198 84 132 115 197 123 256 3 24 -1 112 -10 194 -9 83 -20 247 -26
365 -13 258 -27 335 -74 406 -71 106 -126 152 -126 106 0 -11 16 -65 35 -121
43 -126 52 -213 60 -636 3 -170 8 -320 10 -331 3 -15 -13 -45 -55 -99 -32 -42
-62 -86 -66 -98 -3 -12 -14 -31 -24 -42 -10 -11 -46 -69 -80 -130 -77 -135
-144 -235 -227 -339 -34 -44 -70 -96 -79 -115 -9 -19 -35 -57 -58 -85 -22 -28
-87 -119 -144 -203 -165 -243 -260 -334 -335 -317 -100 21 -136 81 -265 449
-27 77 -61 164 -76 193 -38 75 -89 263 -142 517 -74 362 -129 550 -186 632
-53 78 -139 127 -250 144 -40 6 -88 14 -106 18 l-34 6 153 150 c197 192 236
237 374 420 62 84 141 185 176 225 118 135 150 175 191 235 23 33 76 96 118
140 43 44 99 110 126 146 67 91 407 473 450 505 19 15 83 88 143 163 60 75
184 222 275 326 438 498 522 678 556 1190 13 211 13 423 -1 620 -11 143 -10
191 10 448 25 319 24 341 -25 787 -64 588 -89 727 -179 1015 -24 77 -53 177
-64 221 -22 88 -106 577 -141 819 -37 261 -101 573 -215 1045 -74 309 -107
470 -129 632 -55 401 -276 819 -600 1140 -123 122 -207 177 -528 344 -529 277
-555 294 -623 426 -77 149 -142 234 -301 393 -86 85 -160 155 -165 155 -24 0
30 -72 179 -239 101 -114 194 -246 248 -353 69 -137 99 -159 531 -381 321
-165 399 -210 508 -293 132 -99 296 -285 387 -439 97 -166 143 -247 178 -321
57 -118 108 -304 120 -437 14 -157 40 -297 110 -573 99 -398 182 -804 240
-1184 30 -192 67 -404 115 -652 14 -71 51 -208 84 -306 86 -258 111 -386 150
-763 12 -108 26 -218 31 -245 22 -104 29 -444 19 -949 -11 -620 -20 -763 -59
-970 -17 -88 -35 -187 -41 -219 -19 -107 -131 -337 -218 -447 -21 -26 -94 -99
-163 -163 -128 -118 -192 -191 -289 -326 -87 -122 -196 -256 -294 -359 -50
-53 -130 -148 -177 -211 -109 -147 -208 -260 -482 -550 -274 -290 -297 -315
-422 -470 -112 -138 -157 -184 -254 -251 -104 -73 -137 -90 -203 -105 -77 -18
-135 -52 -180 -104 -41 -48 -81 -54 -117 -15 -18 19 -22 32 -18 63 9 62 57
149 106 189 24 20 68 68 97 108 52 70 66 80 145 104 37 12 72 39 247 190 59
51 148 128 198 170 49 42 182 168 296 281 221 219 232 235 278 384 25 82 26
108 4 177 -33 103 -192 232 -473 384 -148 80 -181 102 -320 211 -178 139 -239
159 -467 152 -99 -3 -149 -9 -176 -21 -45 -20 -216 -187 -242 -237 -10 -19
-33 -52 -51 -72 -41 -46 -47 -84 -42 -264 3 -123 6 -145 28 -189 49 -101 162
-185 248 -185 33 0 25 14 -33 58 -61 45 -95 109 -102 192 -5 50 -3 61 11 66 9
4 28 28 41 54 29 57 67 90 104 90 22 0 39 -17 99 -96 80 -106 86 -128 52 -194
-21 -41 -28 -136 -10 -125 16 10 60 102 135 280 37 88 73 166 80 174 16 17 75
8 105 -17 20 -17 20 -18 5 -104 -8 -48 -35 -151 -60 -228 -25 -77 -45 -150
-45 -161 0 -73 91 107 140 276 18 61 36 118 42 128 9 18 11 18 29 -2 11 -12
27 -21 36 -21 14 0 15 -13 9 -114 -5 -75 -4 -116 3 -120 13 -8 36 46 58 132
19 76 34 88 123 96 64 6 66 6 125 -35 50 -34 66 -40 94 -35 62 10 101 -26 166
-154 l27 -54 -40 -35 c-220 -194 -250 -210 -285 -151 -23 39 -45 60 -63 60
-11 0 -14 -15 -14 -65 0 -64 -1 -67 -46 -115 -26 -28 -55 -50 -64 -50 -11 0
-32 21 -51 51 -18 28 -39 58 -47 66 -14 13 -16 13 -24 -1 -13 -23 -1 -70 33
-138 l29 -57 -37 -25 c-20 -14 -40 -23 -45 -20 -4 3 -23 29 -42 57 -39 61 -80
102 -94 93 -7 -4 -5 -24 3 -56 7 -28 19 -82 25 -120 13 -77 6 -100 -32 -100
-11 0 -22 -9 -25 -20 -8 -29 -20 -16 -52 54 -27 59 -54 86 -66 66 -3 -5 4 -49
15 -99 11 -50 20 -97 20 -105 0 -32 -35 -55 -98 -65 -35 -6 -79 -20 -99 -32
-30 -19 -41 -21 -64 -12 -38 15 -49 0 -49 -64 l0 -53 -34 0 c-18 0 -38 -6 -43
-12 -6 -7 -19 -54 -31 -104 -11 -51 -31 -112 -42 -137 -21 -45 -46 -74 -55
-65 -2 2 -9 37 -15 77 -19 138 -96 239 -141 185 -9 -11 -22 -14 -43 -9 -17 3
-47 7 -66 8 -32 2 -37 -2 -62 -48 -16 -27 -40 -87 -54 -133 -22 -73 -28 -83
-47 -80 -36 5 -69 85 -81 201 -10 89 -14 102 -31 105 -38 7 -44 28 -27 92 9
33 13 62 10 65 -3 3 -24 -2 -48 -11 -41 -16 -43 -16 -83 7 -23 13 -62 26 -86
29 -25 3 -48 12 -54 21 -11 18 5 91 42 193 12 32 20 61 17 64 -3 3 -35 -22
-70 -56 -35 -34 -70 -62 -76 -62 -6 0 -25 13 -41 29 -33 33 -37 74 -17 160 6
28 9 54 5 57 -9 10 -36 -15 -63 -58 -29 -46 -39 -47 -59 -9 -9 19 -26 32 -44
36 -48 10 -56 27 -41 90 7 30 10 58 7 61 -3 4 -25 -8 -49 -25 -54 -40 -110
-43 -133 -7 -15 22 -15 27 0 62 22 53 14 68 -33 61 -55 -7 -85 10 -187 102
-159 144 -169 165 -116 238 37 50 110 113 132 113 10 0 27 -12 39 -27 l21 -27
35 38 c39 42 59 43 59 1 0 -44 23 -41 75 10 l48 48 33 -37 32 -37 37 42 c25
29 41 41 53 36 22 -8 43 -86 64 -236 13 -86 22 -126 32 -129 12 -4 13 23 8
179 -7 199 -1 231 41 237 33 5 54 -51 92 -241 35 -179 45 -211 61 -201 16 10
5 146 -26 322 -14 78 -23 147 -20 152 13 20 45 9 60 -20 9 -17 29 -95 44 -173
30 -149 45 -197 59 -197 9 0 22 70 22 119 0 32 56 151 106 227 33 49 39 54 73
54 46 0 78 -22 86 -60 4 -16 24 -55 46 -87 50 -74 63 -120 49 -172 -10 -39
-78 -138 -119 -175 -32 -29 -27 -46 14 -46 76 0 159 59 201 143 47 91 67 190
67 332 1 146 -7 176 -70 273 -50 77 -186 209 -258 252 -54 32 -66 35 -135 34
-58 0 -97 -8 -170 -33 -142 -50 -285 -115 -380 -175 -86 -55 -102 -63 -223
-111 -130 -53 -454 -253 -519 -322 -58 -60 -73 -153 -43 -266 32 -122 151
-324 286 -483 112 -132 499 -471 650 -569 97 -63 102 -70 129 -157 16 -54 64
-115 108 -137 55 -28 60 -38 68 -128 l7 -81 -31 -16 c-17 -9 -39 -16 -48 -16
-9 0 -60 42 -113 93 -101 98 -153 127 -228 127 -19 0 -48 7 -66 16 -36 19
-703 678 -1006 994 -108 113 -356 379 -552 590 -195 212 -414 447 -486 523
-73 76 -141 157 -152 180 -21 45 -43 179 -60 367 -6 64 -11 289 -10 500 0 432
8 363 -96 900 -36 190 -73 388 -81 440 -32 211 -27 630 10 824 20 103 77 292
167 556 132 389 148 434 164 490 9 30 45 105 79 165 35 61 114 207 176 325
120 228 284 519 445 790 167 281 212 376 285 605 20 62 84 202 171 372 145
287 171 352 214 553 75 345 125 514 256 865 124 334 147 459 136 735 -7 177
-33 457 -48 513 -16 61 -33 46 -26 -24z m2295 -12330 c40 -14 45 -39 32 -159
-5 -52 -10 -104 -10 -115 -1 -18 -3 -18 -18 5 -9 14 -49 60 -89 102 -68 71
-72 79 -66 110 11 60 19 68 72 68 26 0 62 -5 79 -11z"/>
</g>
</svg>
