<?xml version="1.0" standalone="no"?>
<!DOCTYPE svg PUBLIC "-//W3C//DTD SVG 20010904//EN"
 "http://www.w3.org/TR/2001/REC-SVG-20010904/DTD/svg10.dtd">
<svg version="1.0" xmlns="http://www.w3.org/2000/svg"
 width="1432.000000pt" height="576.000000pt" viewBox="0 0 1432.000000 576.000000"
 preserveAspectRatio="xMidYMid meet">
<metadata>
Created by potrace 1.16, written by Peter Selinger 2001-2019
</metadata>
<g transform="translate(0.000000,576.000000) scale(0.100000,-0.100000)"
fill="#000000" stroke="none">
<path d="M2221 5689 c-22 -36 -44 -121 -44 -174 0 -51 11 -76 76 -174 43 -65
95 -271 69 -271 -6 0 -14 5 -17 10 -17 28 -41 -12 -36 -61 3 -37 -52 -143 -86
-166 -15 -11 -53 -27 -83 -37 -30 -9 -61 -20 -67 -23 -18 -7 -16 25 2 61 8 15
15 37 15 48 0 17 -3 18 -15 8 -8 -7 -15 -18 -15 -24 0 -15 -118 -131 -126
-124 -3 4 -8 25 -11 47 -6 46 -26 54 -44 19 -22 -45 -86 -94 -174 -135 -50
-23 -100 -44 -113 -48 -12 -3 -34 -22 -48 -41 -19 -25 -34 -34 -55 -34 -19 0
-42 -12 -66 -34 -21 -18 -48 -39 -61 -45 -32 -17 -82 -99 -82 -134 0 -16 8
-51 17 -78 15 -40 15 -53 5 -69 -25 -40 -7 -85 23 -60 23 19 38 2 30 -36 -5
-31 -4 -34 18 -34 33 0 48 -21 45 -61 -3 -28 0 -33 15 -31 24 4 47 -15 47 -40
0 -11 10 -28 23 -38 19 -16 20 -21 9 -40 -13 -21 -13 -21 36 -36 14 -4 16 -30
2 -39 -15 -9 -12 -25 4 -25 7 0 21 -12 31 -26 15 -23 15 -28 2 -41 -13 -14
-20 -13 -61 2 -25 10 -51 24 -57 31 -6 8 -17 14 -23 14 -6 0 -34 20 -63 45
-28 25 -56 45 -61 45 -6 0 -12 4 -14 8 -7 19 -157 120 -201 137 -88 32 -193
-7 -218 -82 -14 -42 -13 -137 2 -164 5 -10 13 -50 19 -90 6 -40 14 -77 19 -83
5 -6 14 -28 20 -48 7 -21 16 -38 20 -38 5 0 23 -24 41 -53 19 -29 54 -68 79
-87 121 -91 321 -325 321 -375 0 -12 3 -25 8 -29 4 -4 12 -26 17 -49 9 -35 16
-43 40 -47 26 -5 29 -9 30 -53 3 -56 25 -91 25 -39 0 43 14 40 47 -10 48 -71
64 -99 139 -246 61 -118 74 -152 74 -190 0 -52 7 -67 30 -67 8 0 23 -16 33
-36 25 -52 81 -114 95 -105 7 4 12 16 12 26 0 18 6 16 55 -16 l55 -35 133 0
c72 0 176 5 229 11 53 5 116 8 140 5 165 -17 158 -18 158 11 0 26 2 26 48 22
27 -3 63 -12 82 -21 18 -10 37 -17 42 -17 5 0 21 -11 36 -25 15 -14 34 -23 43
-20 12 4 32 -13 65 -55 53 -64 74 -75 74 -35 0 14 3 25 8 25 4 0 34 -34 67
-75 59 -73 80 -86 102 -64 14 14 61 -20 86 -61 25 -40 106 -120 122 -120 8 0
15 7 15 16 0 12 5 14 18 8 9 -4 35 -8 57 -9 63 -1 124 -37 200 -120 65 -69 95
-90 95 -65 0 6 5 10 11 10 9 0 113 -75 147 -107 7 -7 28 -20 47 -29 19 -9 47
-29 63 -45 36 -37 120 -176 138 -229 29 -85 254 -519 290 -561 8 -9 23 -58 34
-110 26 -123 36 -153 73 -220 27 -51 68 -89 95 -89 5 0 26 21 46 47 28 36 36
55 36 89 0 27 5 44 14 47 24 9 46 62 48 114 1 33 -7 70 -26 116 -22 55 -27 77
-21 115 7 52 -18 141 -55 191 -11 16 -20 33 -20 38 0 6 -16 24 -35 42 -19 17
-43 48 -54 69 -35 70 -71 183 -71 225 l0 42 163 1 c142 1 263 14 378 40 22 5
36 -6 108 -85 46 -50 89 -91 97 -91 7 0 18 9 24 20 19 35 97 19 245 -49 39
-18 93 -42 120 -53 28 -12 64 -35 80 -53 17 -17 42 -39 57 -49 46 -30 76 -132
83 -283 8 -175 21 -246 55 -311 17 -30 30 -60 30 -66 0 -6 30 -43 68 -81 65
-69 69 -71 137 -84 39 -7 86 -21 105 -30 64 -32 159 -9 370 91 89 43 189 115
253 183 42 45 126 210 151 298 10 35 17 98 18 160 1 115 -4 128 -94 266 -56
85 -57 100 -5 173 44 61 101 112 180 158 94 55 169 118 206 173 24 37 36 47
49 42 9 -4 55 -14 102 -22 47 -8 97 -17 111 -20 15 -2 37 0 48 7 18 9 21 17
16 39 -6 27 -4 28 58 39 35 7 76 12 90 12 14 0 33 7 41 16 9 8 32 18 51 21 25
4 35 11 35 24 0 13 7 19 21 19 11 0 27 7 35 15 9 8 32 15 52 15 50 0 158 18
207 35 23 7 86 14 145 14 58 1 132 6 165 11 33 5 61 10 62 10 2 0 14 -17 27
-38 13 -21 54 -70 90 -107 36 -38 73 -84 83 -102 10 -18 21 -33 25 -33 4 0 21
-19 37 -42 17 -24 45 -59 63 -80 18 -20 49 -55 68 -78 39 -47 110 -117 155
-152 16 -12 53 -48 82 -78 198 -205 225 -229 300 -270 43 -24 99 -58 124 -76
26 -19 65 -40 86 -48 l40 -14 28 36 c51 64 54 156 6 247 -23 44 -26 62 -26
145 0 70 5 104 18 129 9 19 17 47 17 62 0 16 7 50 15 76 8 26 19 62 24 78 20
64 23 110 12 179 -7 39 -17 79 -22 88 -5 10 -9 24 -9 32 0 31 -47 99 -131 187
-113 119 -116 149 -19 149 50 0 70 8 70 29 0 14 18 21 93 35 50 9 110 21 132
26 22 5 66 14 98 20 50 10 57 14 52 31 -11 33 35 42 173 34 118 -6 124 -6 129
13 3 11 15 23 27 26 36 9 173 -2 197 -16 15 -9 23 -10 26 -2 14 40 23 42 168
35 88 -4 143 -3 147 3 9 13 124 -10 156 -30 21 -14 28 -14 60 -1 28 11 51 12
97 6 33 -5 89 -8 125 -8 129 3 470 -41 665 -86 55 -13 134 -26 175 -30 41 -3
107 -15 145 -24 39 -10 138 -31 220 -45 83 -15 186 -36 230 -47 44 -10 121
-23 170 -29 50 -5 144 -16 210 -25 186 -23 271 -27 354 -15 121 17 124 18 118
42 -4 13 3 34 19 57 13 19 24 39 24 43 0 5 15 29 34 55 46 65 108 192 140 288
15 44 38 100 51 125 62 119 77 158 85 234 5 44 16 100 24 125 8 25 17 78 21
116 3 39 13 97 21 130 10 36 13 79 10 110 -3 27 -8 86 -12 129 -5 59 -12 85
-26 100 -11 12 -29 41 -40 66 -12 25 -32 69 -45 98 -13 29 -32 61 -42 71 -10
10 -37 43 -59 72 -22 30 -72 88 -111 129 -39 41 -71 81 -71 88 0 18 -169 7
-275 -17 -44 -11 -125 -26 -180 -35 -55 -9 -120 -21 -145 -26 -25 -5 -75 -14
-111 -20 -37 -5 -131 -24 -210 -41 -164 -34 -414 -87 -474 -99 -141 -29 -316
-77 -485 -134 -128 -42 -237 -72 -318 -85 -67 -11 -136 -28 -154 -37 -23 -12
-43 -14 -77 -9 -25 4 -72 7 -103 6 -31 -1 -59 2 -62 7 -3 6 -24 6 -48 2 -24
-4 -72 -11 -108 -14 -62 -7 -68 -6 -95 19 -24 23 -34 26 -67 21 -21 -4 -47
-10 -56 -15 -29 -15 -115 -39 -162 -47 -99 -15 -252 -6 -470 27 -75 11 -120
36 -120 66 0 10 -21 13 -84 13 -81 0 -146 16 -161 40 -3 5 -34 10 -68 10 -106
0 -138 9 -151 41 -11 30 -36 42 -113 54 -26 4 -43 12 -43 20 0 16 97 135 109
135 5 0 32 21 59 48 63 59 70 65 167 134 44 32 87 64 96 73 9 8 19 15 24 15 4
0 22 10 39 23 17 13 49 34 71 46 113 66 127 72 153 66 26 -5 27 -4 28 35 1 33
-3 44 -22 57 -18 12 -24 24 -24 53 0 22 -9 51 -23 72 -33 48 -47 94 -40 130 7
37 -14 58 -59 58 -20 0 -31 6 -37 23 -17 46 -31 94 -31 110 0 9 -10 22 -22 29
-33 18 -148 59 -183 65 -16 3 -41 18 -55 34 -23 27 -32 30 -110 35 -156 9
-171 13 -170 37 1 12 2 27 1 32 -1 7 -56 8 -158 3 -87 -4 -174 -4 -193 -1 -56
9 -90 31 -90 56 0 32 -18 47 -44 37 -43 -18 -177 -39 -207 -33 -18 3 -34 14
-36 24 -4 13 -24 21 -81 31 l-77 13 -3 38 c-3 30 -7 37 -19 33 -27 -11 -86
-15 -281 -21 -181 -6 -193 -5 -190 12 2 9 14 20 27 23 14 3 27 12 29 19 3 10
-6 12 -39 8 -162 -20 -237 -24 -298 -16 -86 13 -101 26 -70 68 18 24 20 34 11
43 -9 9 -34 5 -109 -20 -127 -42 -327 -60 -402 -36 -11 4 -10 8 4 24 14 16 16
23 7 32 -18 18 -142 -37 -209 -93 -32 -26 -83 -65 -113 -85 -30 -21 -59 -43
-65 -50 -5 -6 -66 -62 -135 -124 -69 -62 -130 -123 -137 -135 -15 -28 -76 -65
-106 -65 -28 0 -72 31 -72 50 0 11 -14 16 -55 18 -41 2 -61 9 -80 26 -16 16
-42 25 -74 29 -35 3 -54 11 -66 27 -15 20 -22 21 -111 16 -97 -7 -161 1 -158
19 1 6 25 19 53 29 28 10 53 22 56 26 3 3 16 14 29 23 21 14 22 17 8 23 -23 9
-207 -25 -207 -38 0 -6 -11 -8 -25 -6 -14 3 -45 2 -68 -2 -111 -20 -147 -21
-147 -6 0 9 11 23 25 32 28 18 32 36 11 57 -12 12 -27 10 -108 -16 -96 -31
-114 -37 -161 -56 -35 -14 -63 -14 -88 -1 -18 10 -16 14 31 60 27 27 50 53 50
59 0 13 -27 14 -66 2 -122 -38 -179 -51 -241 -57 -79 -7 -88 -1 -49 35 30 28
40 61 19 61 -8 0 -42 -14 -77 -30 -42 -20 -95 -35 -162 -45 -54 -8 -114 -17
-131 -21 -26 -5 -33 -3 -33 9 0 9 9 22 20 30 26 18 35 67 17 92 -14 19 -16 18
-52 -18 -20 -20 -40 -37 -43 -37 -3 0 -25 -10 -50 -21 -33 -16 -46 -19 -55
-10 -9 9 -8 17 1 32 19 30 9 33 -35 11 -21 -11 -54 -25 -74 -31 -20 -6 -53
-20 -74 -31 -45 -23 -80 -26 -72 -7 19 46 19 47 2 47 -9 0 -63 -15 -118 -34
-113 -38 -197 -54 -197 -38 0 6 18 30 40 54 35 38 50 68 35 68 -28 0 -143 -76
-201 -131 -39 -38 -78 -69 -87 -69 -19 0 -23 15 -6 25 15 10 29 53 23 70 -10
26 -38 17 -100 -32 -91 -73 -122 -93 -139 -93 -9 0 -30 -7 -47 -16 -35 -18
-78 -16 -198 11 -137 31 -344 -8 -431 -81 -53 -44 -155 -93 -213 -100 -25 -4
-46 -4 -46 -2 0 3 12 26 26 52 33 60 35 136 3 136 -5 0 -18 -19 -28 -42 -24
-54 -47 -85 -57 -76 -4 5 -9 38 -11 75 -2 38 -11 88 -20 113 -14 43 -14 48 5
90 29 64 52 148 46 168 -22 66 -27 73 -50 68 -18 -5 -26 0 -36 18 -14 25 -150
146 -165 146 -4 0 -14 -10 -22 -21z"/>
</g>
</svg>
