<?xml version="1.0" standalone="no"?>
<!DOCTYPE svg PUBLIC "-//W3C//DTD SVG 20010904//EN"
 "http://www.w3.org/TR/2001/REC-SVG-20010904/DTD/svg10.dtd">
<svg version="1.0" xmlns="http://www.w3.org/2000/svg"
 width="3458.000000pt" height="2470.000000pt" viewBox="0 0 3458.000000 2470.000000"
 preserveAspectRatio="xMidYMid meet">
<metadata>
Created by potrace 1.16, written by Peter Selinger 2001-2019
</metadata>
<g transform="translate(0.000000,2470.000000) scale(0.100000,-0.100000)"
fill="#000000" stroke="none">
<path d="M22205 24656 c-76 -38 -121 -73 -290 -224 -212 -190 -255 -234 -403
-408 -160 -191 -273 -371 -310 -494 -49 -160 -63 -471 -51 -1135 9 -518 22
-816 39 -861 15 -38 64 -331 120 -719 28 -192 56 -370 61 -394 13 -58 105
-255 236 -505 186 -354 215 -396 386 -574 84 -86 165 -173 180 -193 50 -67 29
-131 -85 -260 -41 -46 -94 -113 -118 -149 -105 -156 -112 -162 -505 -390 -154
-90 -298 -175 -320 -190 -22 -15 -114 -103 -205 -195 -91 -92 -183 -177 -205
-190 -71 -42 -276 -125 -391 -159 -161 -47 -184 -64 -326 -234 -67 -81 -182
-208 -255 -282 -122 -126 -145 -143 -319 -255 -235 -150 -360 -243 -477 -354
-51 -48 -176 -160 -279 -249 -171 -148 -600 -571 -728 -717 -29 -33 -82 -105
-118 -160 -35 -55 -160 -228 -277 -385 -117 -157 -295 -411 -395 -565 -100
-154 -242 -368 -314 -475 -222 -328 -469 -708 -544 -837 -85 -146 -146 -238
-348 -525 -258 -365 -319 -464 -359 -588 -10 -30 -67 -170 -128 -310 -162
-378 -224 -541 -367 -963 -71 -210 -154 -454 -184 -542 -33 -93 -81 -268 -116
-417 -33 -141 -73 -303 -88 -360 -16 -57 -32 -139 -36 -183 -19 -224 59 -1123
185 -2120 108 -862 151 -1013 498 -1752 102 -218 131 -302 175 -501 43 -192
45 -212 13 -212 -31 0 -92 39 -320 204 -403 293 -475 359 -637 586 -234 329
-510 676 -556 700 -44 24 -57 -3 -64 -130 l-5 -110 -130 101 c-372 290 -434
332 -760 522 -121 70 -254 153 -295 183 -89 66 -297 181 -765 424 -472 244
-1479 745 -1536 764 -102 33 -780 157 -1094 200 -375 51 -476 68 -865 146
-217 44 -444 90 -505 104 -60 13 -111 23 -112 22 -1 -1 36 -66 83 -145 47 -78
84 -144 82 -146 -2 -2 -140 45 -308 105 l-305 108 -12 -26 c-11 -26 -10 -28
25 -45 l37 -18 -60 6 c-33 4 -190 28 -350 55 -505 85 -691 111 -1240 170 -502
53 -540 59 -1015 155 -701 142 -1197 253 -1315 294 -73 26 -80 26 -105 1 -16
-16 -20 -33 -20 -87 l0 -68 -387 192 c-214 106 -391 193 -394 193 -4 0 -14
-11 -23 -24 -15 -24 -14 -26 44 -96 33 -39 60 -73 60 -75 0 -3 -33 16 -74 41
-146 88 -753 375 -1006 476 -41 16 -154 69 -250 117 -178 89 -237 108 -271 90
-28 -15 -24 -67 9 -120 45 -69 171 -207 254 -279 42 -36 75 -66 73 -68 -2 -2
-217 62 -478 142 -261 80 -478 146 -481 146 -3 0 51 -76 119 -170 69 -93 125
-171 125 -173 0 -2 -24 2 -54 11 -68 19 -120 10 -143 -24 -24 -37 -12 -174 32
-363 19 -85 33 -157 30 -160 -8 -7 -192 69 -390 160 l-170 79 -17 -22 c-19
-26 -32 -6 116 -182 50 -59 103 -125 118 -149 25 -37 88 -217 133 -379 11 -41
21 -59 36 -63 15 -5 36 -39 69 -109 26 -55 51 -111 55 -124 6 -21 4 -21 -44
10 -45 27 -54 30 -77 19 -24 -11 -26 -16 -21 -57 6 -56 85 -218 211 -429 52
-88 94 -161 92 -162 -2 -2 -19 4 -39 12 -57 24 -103 20 -124 -11 -14 -23 -15
-32 -5 -73 20 -74 113 -252 238 -456 65 -105 155 -260 202 -345 46 -85 108
-189 138 -230 77 -107 233 -287 391 -450 75 -77 134 -142 132 -144 -2 -2 -55
-16 -117 -31 -98 -24 -113 -30 -118 -51 -3 -13 1 -32 9 -45 22 -31 162 -147
331 -274 80 -60 144 -111 142 -113 -2 -2 -41 2 -87 8 -128 16 -319 28 -366 23
-82 -9 -86 -63 -8 -105 101 -55 474 -169 1040 -318 725 -191 918 -249 1245
-375 250 -97 619 -251 800 -334 147 -68 163 -78 320 -207 487 -399 758 -568
1018 -635 230 -59 1144 -188 1927 -273 453 -49 564 -55 1377 -66 816 -11 1225
-23 1388 -40 52 -6 307 -21 565 -35 845 -45 976 -56 1730 -150 894 -112 1372
-163 1680 -180 1684 -92 2437 -143 2665 -181 134 -23 173 -40 301 -136 304
-227 421 -289 759 -402 366 -122 425 -131 840 -131 220 0 402 6 565 18 216 17
249 22 329 50 104 36 179 39 272 12 32 -9 194 -86 359 -170 165 -84 332 -164
371 -178 83 -30 236 -63 489 -107 171 -30 183 -33 235 -70 313 -223 350 -243
585 -310 338 -97 529 -125 1305 -190 709 -59 857 -77 998 -120 135 -42 703
-139 907 -155 78 -7 83 -5 185 36 171 69 218 65 356 -28 55 -37 101 -60 140
-69 83 -19 221 -17 349 7 243 44 304 38 482 -52 136 -69 211 -85 353 -75 118
7 185 36 231 101 l31 43 281 5 c169 2 296 9 316 15 39 13 108 76 152 139 19
27 35 70 45 118 9 43 25 93 36 111 16 27 19 46 16 84 -4 41 -14 60 -62 118
-31 38 -107 119 -170 179 -131 128 -289 232 -551 363 -154 78 -167 82 -330
116 -184 39 -143 37 -635 33 -253 -1 -696 44 -1280 132 -381 57 -585 93 -755
134 -96 23 -218 43 -340 55 -104 11 -214 25 -244 30 -30 6 -57 10 -60 11 -3 0
102 25 234 55 132 29 280 65 330 80 169 50 233 62 411 78 216 20 335 38 474
72 154 38 274 79 338 117 109 63 154 77 305 92 139 14 212 30 447 96 l115 32
345 2 c339 1 347 1 465 29 326 75 364 80 600 81 308 0 343 -11 630 -193 180
-115 216 -127 333 -112 45 6 113 21 150 33 63 21 85 22 362 22 284 0 297 1
360 23 93 34 123 60 149 130 12 33 33 71 48 84 89 79 86 75 80 133 -7 67 -45
141 -133 257 -214 286 -338 352 -869 457 -171 34 -273 45 -645 66 -275 16
-812 73 -826 88 -1 1 150 71 336 155 l339 154 183 136 c571 423 582 430 1068
640 627 271 795 346 1030 463 351 175 571 312 689 430 169 168 770 1112 956
1502 195 408 233 602 222 1146 -3 170 -12 342 -22 424 l-17 137 32 276 c33
295 39 333 130 814 100 526 140 710 367 1710 118 524 112 462 77 790 -16 143
-15 189 5 284 29 134 -74 627 -355 1706 -152 579 -214 799 -291 1019 -41 119
-103 299 -138 401 -103 305 -140 386 -327 717 -63 111 -123 228 -133 259 -17
54 -17 64 -2 168 9 61 30 180 48 265 l33 153 110 51 c171 78 353 174 443 233
94 61 109 78 399 471 434 587 934 1289 992 1393 41 73 124 265 234 540 247
615 352 911 368 1029 5 42 21 155 36 251 29 197 28 291 -5 442 -40 175 -132
408 -285 723 -109 222 -179 306 -389 464 l-55 42 -129 11 c-237 19 -408 3
-553 -51 -198 -74 -1195 -684 -1414 -865 -80 -66 -322 -280 -691 -610 -165
-148 -309 -277 -321 -287 -20 -18 -24 -16 -265 137 -134 86 -260 163 -279 172
-67 28 -420 152 -507 178 -49 14 -155 36 -238 50 -185 31 -271 56 -495 146
-96 39 -299 112 -450 163 -151 51 -367 126 -480 168 -347 128 -577 186 -684
172 -105 -13 -219 -46 -316 -90 -115 -53 -244 -88 -388 -106 -80 -9 -151 -10
-334 0 -305 15 -448 35 -575 77 -119 40 -287 81 -461 115 l-122 23 -108 -33
c-135 -41 -196 -69 -250 -114 -45 -38 -330 -237 -394 -276 l-36 -22 -253 423
c-396 665 -961 1572 -1105 1773 -300 420 -379 513 -499 589 -112 71 -150 73
-270 12z"/>
</g>
</svg>
