<?xml version="1.0" encoding="UTF-8" standalone="no"?>
<!-- Created with Inkscape (http://www.inkscape.org/) -->

<svg
   xmlns:svg="http://www.w3.org/2000/svg"
   xmlns="http://www.w3.org/2000/svg"
   version="1.1"
   width="338mm"
   height="135mm"
   viewBox="0 0 338 135"
   id="svg8">
  <defs
     id="defs2" />
  <g
     transform="translate(0,-162)"
     id="layer1">
    <path
       d="m 179.90993,283.82174 c -1.04399,-0.31114 -5.00506,-4.34208 -6.48359,-6.59796 -1.52569,-2.32783 -3.04309,-5.33289 -5.70645,-11.30105 -1.17415,-2.63109 -2.17232,-4.8213 -2.21813,-4.86711 -0.0458,-0.0458 -3.53428,0.0143 -7.75212,0.13359 -23.63513,0.66845 -55.05257,-0.49836 -72.307165,-2.68542 -2.291721,-0.29049 -5.65719,-0.71789 -7.478817,-0.9498 -14.374383,-1.82992 -27.188871,-5.88224 -46.582351,-14.73069 -8.7585,-3.99615 -15.371172,-7.24116 -17.857242,-8.76304 -1.374044,-0.84114 -3.9614691,-2.24197 -5.7498331,-3.11295 C 5.829137,229.99999 4.1108487,229.0012 3.4977415,228.46152 1.7824133,226.95164 0.95661266,224.41237 1.7927,223.2187 c 0.4692651,-0.66997 1.4912922,-0.78373 4.2643038,-0.47465 2.6936411,0.30022 3.1015321,0.19542 3.1015321,-0.79689 0,-0.6224 -0.283436,-1.18935 -1.11087,-2.22203 -1.4828766,-1.85072 -0.7691162,-3.80957 1.886409,-5.17706 0.9363141,-0.48217 12.8828941,-4.37689 17.3873051,-5.66845 16.322373,-4.68019 32.698542,-7.75758 49.573875,-9.31587 3.878566,-0.35815 14.528318,-1.05521 21.368048,-1.3986 12.306267,-0.61786 16.320197,-0.70788 34.059507,-0.76394 l 19.20871,-0.0607 1.4652,-1.00113 c 2.17604,-1.48682 4.03498,-3.62362 7.19669,-8.27244 1.56113,-2.2954 3.37178,-4.78524 4.0237,-5.53299 0.6519,-0.74775 2.00494,-2.53562 3.00676,-3.97304 2.68155,-3.84758 4.53217,-5.383 6.50227,-5.39483 0.67464,-0.005 0.9196,0.14871 1.79149,1.11714 0.55549,0.61699 1.82988,2.27569 2.83198,3.68598 2.68626,3.78045 3.07639,4.26738 5.45589,6.8094 2.58696,2.76363 3.49101,3.40786 7.83618,5.58407 3.71803,1.86212 5.37855,2.91734 6.37291,4.04986 0.7745,0.88211 0.79453,0.98225 0.3632,1.81633 -0.40931,0.79152 -1.21863,1.27383 -3.95826,2.35891 -2.39911,0.95022 -4.16213,1.95819 -4.4871,2.56542 -0.18177,0.33961 0.0194,0.39712 2.19692,0.62776 7.35904,0.77951 20.1498,2.23605 24.51295,2.7914 4.75473,0.60518 9.21106,1.14391 17.73548,2.14404 2.05667,0.24129 7.63373,0.95937 12.39347,1.59572 13.16466,1.76005 18.75993,2.34585 25.2143,2.63986 l 3.52572,0.16061 2.67101,-0.69437 c 6.39459,-1.66238 11.47582,-3.68481 24.89377,-9.90818 13.69154,-6.35023 19.58059,-8.62956 23.74474,-9.19025 2.21481,-0.29822 4.65255,-0.21011 5.045,0.18236 0.34304,0.34306 0.0842,0.75795 -1.84239,2.95276 -2.06077,2.34769 -4.17037,5.63989 -6.96239,10.86541 -4.53429,8.48633 -7.11992,11.72697 -13.25402,16.61153 -1.58569,1.26268 -2.13679,2.1216 -2.13679,3.33026 0,0.91939 0.0776,1.04396 1.54916,2.48668 0.85209,0.83534 3.10985,2.89251 5.01733,4.57151 3.26911,2.87757 6.01525,5.82115 7.23866,7.75915 0.29786,0.47187 1.12102,1.91963 1.8292,3.21726 0.70821,1.29762 2.37115,4.10135 3.69546,6.23051 1.32429,2.12917 2.70362,4.4582 3.06512,5.17563 0.36153,0.71742 1.49107,2.304 2.51013,3.52572 1.87099,2.24311 2.56765,3.41245 2.35822,3.95825 -0.14344,0.3738 -1.51407,0.24804 -5.20433,-0.47757 -5.73322,-1.12731 -11.21553,-3.38182 -17.89683,-7.35978 -1.56442,-0.93143 -6.62657,-4.22686 -11.24919,-7.32316 -4.62263,-3.09631 -9.58776,-6.3428 -11.0336,-7.21442 -1.44586,-0.87163 -3.22474,-1.9467 -3.95309,-2.38906 -3.88839,-2.36158 -9.94439,-3.57823 -16.38874,-3.29251 -4.80926,0.21325 -11.12993,0.83598 -11.04583,1.08827 0.1768,0.53038 1.57686,1.035 3.91125,1.40973 1.37293,0.22038 2.58785,0.49232 2.69984,0.6043 0.73706,0.73708 -1.70345,2.63292 -8.012,6.22383 -2.51638,1.43236 -5.41706,3.24564 -6.4459,4.0295 -1.02885,0.78385 -2.31924,1.7364 -2.86749,2.11678 -0.54826,0.38037 -2.1988,1.87929 -3.66785,3.33096 -3.36753,3.32765 -4.18341,3.86952 -5.5299,3.67272 -2.3569,-0.34449 -4.43408,-1.55392 -7.92013,-4.61149 -2.48953,-2.18353 -4.07527,-3.40909 -5.03333,-3.89006 -0.60884,-0.30565 -0.69472,-0.28988 -1.70945,0.31412 -4.37884,2.60641 -11.83154,5.45729 -18.87221,7.2192 -6.6792,1.67145 -18.28029,3.77239 -22.36813,4.05082 -1.52781,0.10402 -3.04226,0.29142 -3.36546,0.41635 -1.33405,0.51563 -0.28605,1.32448 2.67813,2.06696 1.21975,0.30554 1.56989,0.5026 2.20945,1.24345 1.03234,1.19585 1.94068,3.04412 2.34918,4.78004 0.26095,1.10889 0.31742,2.20807 0.24428,4.7544 l -0.0951,3.31205 -1.10951,2.53647 c -1.99872,4.56928 -3.17207,5.67141 -5.34759,5.02304 z M 95.053486,257.34671 c 4.061447,-1.36379 7.557324,-4.17305 9.929784,-7.97948 l 1.02534,-1.64511 -0.3546,-0.92851 c -0.42666,-1.11718 -0.77507,-1.45451 -2.16335,-2.09452 -1.04134,-0.48007 -1.1905,-0.48858 -8.218883,-0.46899 -4.989747,0.0139 -9.131767,0.15956 -13.672649,0.48078 -3.582891,0.25346 -8.558977,0.46083 -11.057964,0.46083 -2.68891,0 -4.543615,0.0819 -4.543615,0.20059 0,0.61916 5.694136,0.54413 16.694486,-0.21999 3.993378,-0.27739 8.914665,-0.46311 12.793425,-0.4828 7.16221,-0.0364 7.95512,0.0919 9.17829,1.48506 0.79808,0.90896 0.81279,1.37099 0.0838,2.63094 -2.11003,3.64691 -5.943277,6.80616 -9.796306,8.07381 -1.475963,0.48559 -2.05966,0.56078 -4.273609,0.55052 -3.176418,-0.0147 -5.717164,-0.35585 -7.777722,-1.04425 -0.869544,-0.2905 -3.609996,-1.54683 -6.089894,-2.79183 -3.775833,-1.89561 -6.845322,-3.27372 -7.291631,-3.27372 -0.05608,0 -0.101963,0.12668 -0.101963,0.2815 0,0.15509 0.547674,0.45414 1.219654,0.66596 0.670811,0.21145 3.050679,1.32 5.288593,2.46344 6.067268,3.09998 7.908726,3.75029 11.540859,4.07569 3.01764,0.27036 5.985034,0.0984 7.587942,-0.43992 z"
       id="path832"
       style="fill:#000000;fill-opacity:1;stroke:#000026;stroke-width:0.12307996;stroke-linejoin:miter;stroke-miterlimit:10;stroke-opacity:1;stroke-dasharray:none" />
  </g>
</svg>
