<?xml version="1.0" standalone="no"?>
<!DOCTYPE svg PUBLIC "-//W3C//DTD SVG 20010904//EN"
 "http://www.w3.org/TR/2001/REC-SVG-20010904/DTD/svg10.dtd">
<svg version="1.0" xmlns="http://www.w3.org/2000/svg"
 width="376.000000pt" height="130.000000pt" viewBox="0 0 376.000000 130.000000"
 preserveAspectRatio="xMidYMid meet">
<metadata>
Created by potrace 1.16, written by Peter Selinger 2001-2019
</metadata>
<g transform="translate(0.000000,130.000000) scale(0.100000,-0.100000)"
fill="#000000" stroke="none">
<path d="M1880 1283 c-188 -15 -239 -23 -279 -44 -27 -14 -72 -25 -120 -29
-42 -4 -89 -13 -104 -19 -16 -6 -38 -11 -51 -11 -25 0 -231 -64 -260 -81 -67
-39 -91 -49 -147 -59 -125 -23 -322 -138 -477 -278 -44 -40 -97 -85 -118 -101
-67 -49 -97 -89 -149 -194 -31 -62 -58 -106 -71 -111 -12 -5 -31 -24 -44 -42
-72 -107 -65 -259 15 -296 37 -17 97 26 127 92 13 27 26 50 29 50 4 0 12 -14
18 -30 12 -36 34 -46 67 -32 23 11 24 16 22 94 l-1 82 43 36 c76 62 189 173
195 189 3 9 31 28 63 43 119 57 212 120 279 186 68 68 70 70 134 77 122 13
134 15 169 25 19 5 55 10 79 10 50 0 147 24 201 48 30 14 71 16 286 13 218 -2
252 -1 263 13 16 20 30 20 50 2 9 -7 72 -27 141 -44 69 -17 148 -36 175 -42
28 -7 70 -12 95 -11 42 1 136 -24 205 -55 17 -7 57 -20 89 -30 46 -13 72 -28
115 -70 31 -29 78 -66 106 -80 27 -15 63 -38 78 -51 16 -12 34 -23 40 -23 6 0
30 -7 53 -16 l42 -16 -25 -54 c-31 -68 -39 -119 -23 -139 12 -14 15 -14 34 4
l21 20 1 -39 c2 -45 18 -70 45 -70 25 0 39 30 39 84 0 25 4 46 10 46 5 0 27
-17 50 -39 38 -36 40 -41 34 -79 -21 -132 54 -170 152 -80 l44 41 0 -42 c0
-28 5 -44 15 -47 20 -8 45 13 45 38 0 14 5 18 15 14 18 -7 45 3 45 16 0 5 -9
21 -20 36 l-21 25 26 27 c43 45 28 70 -30 49 -43 -16 -55 -6 -48 39 4 22 13
37 27 42 21 9 21 9 -1 9 -31 1 -29 21 1 21 14 0 28 4 31 10 4 6 -6 10 -21 10
-27 0 -27 1 -8 15 19 14 19 14 -1 15 -20 1 -20 1 -1 15 15 11 16 15 5 15 -8 0
-20 -5 -27 -12 -9 -9 -12 -9 -12 -1 0 7 5 15 10 18 6 3 10 11 10 17 0 6 -8 4
-18 -5 -25 -23 -26 -23 -56 23 -18 28 -37 43 -66 51 -30 9 -59 33 -117 95 -42
46 -83 94 -92 106 -24 35 -90 100 -146 144 -94 75 -118 87 -260 130 -44 13
-87 32 -95 41 -8 10 -26 24 -40 31 -14 7 -43 23 -65 34 -45 24 -77 32 -215 54
-52 9 -103 20 -112 25 -10 5 -32 9 -50 9 -18 0 -53 5 -78 11 -25 6 -54 12 -65
15 -11 2 -31 6 -45 9 -36 7 -207 13 -260 8z"/>
</g>
</svg>
