<?xml version="1.0" standalone="no"?>
<!DOCTYPE svg PUBLIC "-//W3C//DTD SVG 20010904//EN"
 "http://www.w3.org/TR/2001/REC-SVG-20010904/DTD/svg10.dtd">
<svg version="1.0" xmlns="http://www.w3.org/2000/svg"
 width="1536.000000pt" height="700.000000pt" viewBox="0 0 1536.000000 700.000000"
 preserveAspectRatio="xMidYMid meet">
<metadata>
Created by potrace 1.16, written by Peter Selinger 2001-2019
</metadata>
<g transform="translate(0.000000,700.000000) scale(0.100000,-0.100000)"
fill="#000000" stroke="none">
<path d="M13882 6933 c-22 -32 -52 -69 -67 -83 -26 -24 -27 -25 -41 -6 -8 11
-14 35 -14 54 l0 34 -35 -31 c-49 -43 -103 -56 -220 -52 -227 8 -231 8 -258
-17 -23 -21 -36 -23 -208 -31 -110 -5 -194 -13 -207 -20 -18 -10 -39 -10 -96
0 -116 20 -671 -11 -761 -42 -16 -5 -93 -14 -171 -20 -77 -5 -165 -16 -195
-24 -115 -31 -152 -35 -419 -44 -249 -8 -281 -11 -335 -32 -47 -18 -90 -24
-205 -29 -80 -4 -185 -13 -235 -20 -110 -15 -204 -8 -312 24 -170 51 -282 56
-384 16 -56 -23 -113 -25 -224 -9 -66 9 -86 8 -157 -10 -100 -26 -105 -26
-159 -1 -38 17 -66 20 -194 20 -182 0 -511 -16 -620 -31 -44 -6 -111 -22 -150
-36 -168 -61 -147 -57 -223 -34 -141 43 -233 38 -456 -25 -143 -40 -176 -42
-225 -11 -33 20 -48 22 -171 22 -124 0 -141 -2 -212 -29 l-78 -28 -70 26
c-101 37 -184 36 -303 -5 -89 -31 -91 -31 -126 -14 -65 32 -112 33 -481 14
-201 -11 -421 -19 -490 -17 -112 3 -129 5 -154 26 -36 28 -70 28 -189 1 -71
-16 -109 -19 -167 -14 -81 7 -161 9 -280 6 -41 -1 -113 -1 -160 0 -47 0 -203
0 -346 -1 -144 -1 -271 1 -282 4 -11 4 -23 17 -26 30 -6 23 -32 38 -90 51 -16
3 -151 10 -300 15 -285 10 -321 15 -494 70 -112 36 -139 37 -183 5 -94 -68
-149 -74 -324 -34 -68 16 -134 23 -206 23 l-106 1 -104 -52 c-190 -95 -309
-186 -407 -311 -48 -61 -124 -102 -189 -102 l-53 0 -87 -91 c-49 -51 -130
-123 -181 -161 -51 -38 -164 -135 -250 -216 -189 -177 -221 -203 -338 -276
-110 -67 -130 -98 -120 -183 11 -94 43 -143 208 -321 99 -107 148 -181 148
-227 0 -16 5 -47 10 -67 9 -31 19 -41 63 -61 252 -118 266 -126 308 -180 23
-28 76 -104 119 -167 104 -155 169 -234 237 -289 70 -56 118 -143 136 -244 6
-37 14 -67 18 -67 3 0 10 33 14 73 5 50 10 67 16 57 5 -8 31 -52 57 -97 68
-118 136 -202 180 -220 79 -32 122 -99 122 -190 0 -32 5 -65 11 -73 8 -13 12
-12 26 8 8 12 19 22 24 22 14 0 11 -148 -3 -156 -6 -4 -45 -10 -87 -14 -99 -9
-173 -42 -315 -143 -190 -134 -282 -168 -616 -227 -354 -63 -468 -100 -630
-204 -135 -87 -210 -175 -210 -246 0 -23 6 -33 26 -42 23 -11 33 -9 78 16 120
66 167 87 237 105 78 20 292 46 325 39 11 -2 -18 -19 -74 -42 -51 -21 -120
-58 -155 -81 -112 -76 -344 -229 -447 -295 -130 -83 -172 -128 -168 -178 5
-66 31 -59 334 91 150 73 309 147 355 163 81 27 91 28 245 27 l161 -2 27 30
c22 24 30 28 42 18 8 -6 14 -17 14 -24 0 -7 16 -36 35 -65 19 -29 35 -60 35
-70 0 -10 -18 -56 -40 -102 -23 -46 -42 -98 -43 -114 -2 -27 0 -29 39 -32 35
-3 63 8 179 67 103 54 147 71 178 71 22 0 107 -16 189 -36 l149 -35 102 21
c56 12 169 25 252 30 220 14 433 74 645 184 233 120 230 119 255 108 13 -6 55
-40 93 -76 40 -38 78 -66 90 -66 12 0 33 15 49 35 15 19 31 35 35 35 4 0 10
-16 14 -35 9 -50 19 -51 38 -2 20 47 24 43 47 -43 l12 -45 9 35 c16 62 22 67
27 20 9 -67 34 -61 62 15 l11 30 13 -30 c15 -36 42 -62 70 -67 13 -2 22 -14
25 -33 6 -35 38 -45 77 -24 30 16 31 14 73 -96 17 -44 42 -91 54 -105 13 -14
39 -51 59 -82 23 -36 44 -58 58 -60 35 -5 81 -70 87 -124 l5 -47 -39 7 c-21 4
-95 9 -164 13 -118 5 -129 4 -200 -21 -145 -52 -141 -52 -216 -27 -161 53
-529 77 -724 48 -451 -68 -912 -304 -1024 -524 -17 -34 -22 -118 -8 -127 5 -3
114 35 243 85 298 114 358 131 451 127 l72 -3 -79 -46 c-98 -57 -218 -145
-323 -238 -93 -81 -114 -122 -114 -222 -1 -117 25 -135 166 -119 121 13 224
39 381 94 71 25 131 46 132 46 2 0 3 -29 3 -65 0 -40 6 -78 15 -95 15 -28 19
-30 76 -30 99 0 152 22 388 164 52 31 105 56 118 56 29 0 153 -61 153 -75 0
-6 -23 -38 -51 -70 -71 -83 -109 -144 -109 -176 0 -32 59 -89 93 -89 12 1 49
7 82 15 33 9 145 20 248 25 125 7 217 17 273 30 46 11 191 32 322 46 341 36
485 59 535 86 12 6 119 71 238 144 248 152 308 184 427 226 115 40 193 82 254
136 62 56 159 203 193 293 17 44 33 70 46 74 17 6 19 16 19 90 0 98 5 113 36
126 14 5 24 17 24 29 0 22 35 29 44 8 4 -10 7 -9 15 2 56 88 90 127 176 203
55 49 114 95 130 102 17 8 38 23 47 34 10 12 25 21 34 21 8 0 26 13 40 29 33
40 115 91 145 91 13 0 33 -7 43 -15 10 -8 23 -12 27 -9 5 2 31 -7 59 -21 32
-16 59 -23 73 -20 18 5 34 -4 72 -39 50 -48 60 -53 70 -36 4 6 15 8 25 5 11
-3 30 4 49 21 24 20 35 24 44 15 6 -6 26 -11 44 -11 28 0 35 -5 47 -35 17 -39
23 -42 41 -18 12 15 15 13 32 -22 16 -36 22 -40 56 -40 35 0 49 -9 61 -40 2
-5 19 5 39 24 l36 34 27 -22 c15 -11 31 -21 35 -21 5 0 9 34 9 75 0 41 4 75 8
75 4 0 30 -22 57 -50 27 -27 53 -50 57 -50 4 0 8 11 8 25 0 28 15 34 24 9 4
-10 13 -13 25 -9 13 4 37 -11 85 -55 36 -33 69 -60 71 -60 3 0 14 5 24 12 15
9 24 8 45 -6 28 -17 40 -40 51 -89 3 -15 21 -45 40 -65 34 -36 35 -37 51 -17
15 20 15 37 -3 145 l-5 35 64 -62 c35 -35 67 -63 70 -63 12 0 31 42 43 95 l12
50 16 -31 c18 -34 44 -60 53 -51 3 3 12 39 19 80 19 107 31 124 40 56 14 -118
45 -161 45 -65 0 30 5 58 10 61 6 3 10 -5 10 -19 0 -27 15 -43 25 -26 9 15 25
12 25 -5 0 -8 6 -15 13 -15 17 0 37 42 37 75 0 13 5 27 10 30 6 3 10 2 10 -3
0 -5 11 -33 24 -63 l23 -53 22 67 c13 37 26 69 30 71 4 3 21 -54 37 -127 l29
-132 5 105 5 104 33 -42 c37 -46 47 -50 74 -25 17 15 20 15 42 -6 13 -13 46
-64 73 -114 l48 -91 3 97 c2 74 6 97 16 97 16 0 39 53 56 132 7 32 16 58 19
58 4 0 26 -25 49 -55 24 -30 48 -55 53 -55 5 0 15 11 21 25 6 14 15 25 19 25
16 0 119 -314 107 -326 -2 -2 -60 -8 -129 -14 -241 -21 -471 -70 -572 -121
-23 -12 -61 -39 -85 -61 -23 -21 -75 -54 -115 -72 -76 -35 -137 -87 -137 -116
0 -10 12 -22 28 -27 15 -6 71 -27 124 -48 90 -35 103 -37 173 -33 l77 5 -47
-29 c-57 -35 -64 -52 -35 -83 54 -58 154 -71 390 -51 96 8 109 7 145 -11 22
-11 65 -26 95 -33 30 -7 75 -23 98 -37 54 -31 99 -25 144 17 36 35 52 38 304
44 158 4 199 8 240 25 28 10 99 26 160 35 60 9 141 21 179 26 89 13 155 35
230 76 74 40 147 54 289 54 142 1 166 7 284 73 53 30 113 58 132 62 19 4 82
29 140 55 130 59 144 64 169 51 11 -6 72 -60 136 -119 64 -60 130 -116 147
-126 l30 -18 -7 42 -7 42 43 -25 c60 -34 107 -42 130 -21 18 16 86 16 135 -1
18 -5 23 -2 28 20 6 22 11 26 29 21 101 -29 203 -30 226 -2 6 7 18 38 27 67
23 77 28 82 93 75 31 -4 63 -2 71 3 12 8 11 13 -8 34 -12 13 -22 30 -22 39 0
26 39 67 68 70 39 4 38 27 -3 86 -41 60 -47 90 -22 103 9 5 25 13 35 18 22 11
18 42 -15 103 -14 25 -22 51 -19 57 4 6 33 8 76 4 58 -5 70 -3 70 9 0 8 -9 23
-20 33 -29 26 -25 46 15 78 19 15 35 37 35 47 0 31 66 26 134 -10 l57 -29 -20
28 c-11 15 -27 34 -36 41 -9 8 -23 26 -30 41 -13 24 -12 28 5 44 11 10 20 25
20 33 0 24 26 -4 62 -67 l32 -56 9 35 c16 61 17 62 35 57 64 -20 58 -28 54 75
-4 99 10 178 32 178 15 0 26 21 26 51 0 34 29 34 64 0 l33 -32 11 26 c6 14 16
25 22 25 6 0 34 -24 63 -52 75 -75 260 -177 437 -241 25 -9 99 -47 164 -83
202 -112 274 -128 581 -128 330 1 453 32 555 140 61 65 63 86 10 153 -78 98
-156 125 -435 146 -275 22 -546 73 -605 115 -14 9 -56 33 -95 53 -72 36 -126
85 -164 149 -31 53 -73 84 -133 102 -76 22 -118 51 -118 80 0 13 7 29 15 36
19 16 19 38 1 81 -13 31 -12 36 5 58 10 13 19 29 19 37 0 7 12 16 28 20 15 3
33 7 40 10 8 2 12 24 12 63 0 51 3 61 20 66 27 9 25 13 -20 65 -22 24 -38 45
-37 47 2 1 20 -3 40 -9 20 -6 39 -9 42 -6 3 3 -4 43 -15 89 -23 99 -25 119 -7
119 8 0 24 11 37 25 12 13 27 22 32 19 5 -3 15 0 23 6 8 7 31 10 50 8 19 -2
35 -3 35 -1 0 1 -14 23 -32 48 -17 24 -29 47 -26 50 3 3 31 10 63 15 59 10 92
27 78 41 -5 5 -33 21 -63 36 -29 16 -54 33 -54 38 -1 6 15 11 34 13 54 5 58
18 21 56 l-34 35 27 7 c28 7 63 -8 154 -66 29 -18 55 -30 59 -27 3 4 -13 34
-36 68 -23 36 -41 74 -41 90 0 20 -11 37 -40 62 -22 19 -40 40 -40 46 0 7 -14
26 -31 42 -17 16 -29 34 -27 41 6 19 66 37 123 38 115 1 128 30 25 55 -101 25
-105 47 -10 61 70 10 94 22 81 38 -15 18 5 26 72 26 47 1 50 2 33 15 -10 7
-51 22 -92 31 -41 10 -74 21 -74 25 0 4 18 14 39 22 45 18 62 37 33 37 -26 0
-52 31 -52 63 0 26 40 67 66 67 26 0 14 18 -18 30 l-33 12 45 20 45 19 -25 19
-25 20 52 0 c63 0 78 16 23 25 -22 4 -40 10 -40 15 0 4 19 16 43 26 l42 17
-35 7 c-20 3 -41 10 -48 14 -19 12 -14 34 11 42 20 7 19 9 -12 14 -45 7 -64
36 -37 56 11 8 35 14 53 14 18 0 33 5 33 10 0 6 -4 10 -10 10 -5 0 -10 4 -10
10 0 5 17 12 38 15 69 12 69 16 2 48 l-65 30 33 10 c21 7 32 16 32 29 0 12 13
24 36 34 20 8 34 17 32 20 -3 2 -31 15 -64 29 l-59 24 50 2 c28 1 64 5 80 9
25 6 27 8 13 14 -10 5 -18 17 -18 27 0 10 -7 19 -15 19 -34 0 -12 18 33 27
l47 10 -75 36 -74 37 44 0 c25 0 55 3 67 6 l21 6 -24 36 c-34 50 -28 61 46 79
l35 9 -83 33 c-45 18 -82 37 -82 41 0 4 27 18 61 30 38 15 69 34 82 52 16 22
29 28 59 28 21 0 38 4 38 9 0 15 -159 112 -216 132 -29 11 -67 19 -84 19 -69
0 -3 39 69 41 20 1 47 4 61 8 23 6 20 8 -22 19 -41 10 -75 32 -51 32 5 0 18 6
28 14 18 13 14 16 -48 35 -37 11 -77 26 -89 32 -21 11 -21 12 -3 25 10 8 36
14 57 14 21 0 38 4 38 8 0 5 -33 21 -72 38 -45 18 -73 35 -73 44 0 10 24 23
65 36 l65 21 -62 13 c-44 9 -60 16 -56 26 3 8 -12 21 -39 35 l-43 23 38 6 c46
8 59 20 47 40 -5 9 -25 15 -49 15 -22 0 -37 3 -35 7 9 14 58 36 97 43 20 4 37
11 37 15 0 17 -48 24 -150 22 -92 -2 -103 0 -90 13 8 8 42 26 75 39 l60 25
-90 1 -90 1 60 56 c33 30 56 53 50 50 -26 -13 -115 -35 -115 -28 0 5 28 38 61
75 95 103 72 97 -90 -23 l-34 -26 46 68 c66 96 63 108 -13 57 -100 -67 -94
-27 18 113 30 37 52 70 49 74 -4 3 -32 -16 -63 -43 -85 -73 -114 -96 -114 -88
0 3 27 57 60 119 33 62 60 118 60 126 0 7 -43 -30 -97 -82 -59 -58 -98 -89
-101 -81 -2 7 17 56 42 109 26 53 45 98 42 100 -2 3 -22 -22 -44 -54z m-11703
-3794 c14 -41 14 -96 0 -105 -18 -11 -29 17 -29 79 0 63 12 74 29 26z m-73
-44 c18 -43 18 -65 0 -65 -15 0 -26 30 -26 73 0 36 8 34 26 -8z m7455 -1643
c4 -28 10 -63 13 -77 7 -29 -22 -50 -55 -40 -19 6 -20 12 -15 63 11 97 16 113
34 110 12 -2 19 -18 23 -56z m313 -63 c-17 -29 -52 5 -39 39 6 15 8 15 26 -7
10 -12 16 -27 13 -32z m-210 6 c21 -32 20 -55 -1 -55 -34 0 -46 16 -38 49 8
37 17 39 39 6z m91 -6 c8 -25 1 -34 -20 -26 -19 8 -20 47 -1 47 8 0 18 -9 21
-21z"/>
</g>
</svg>
