<?xml version="1.0" standalone="no"?>
<!DOCTYPE svg PUBLIC "-//W3C//DTD SVG 20010904//EN"
 "http://www.w3.org/TR/2001/REC-SVG-20010904/DTD/svg10.dtd">
<svg version="1.0" xmlns="http://www.w3.org/2000/svg"
 width="1536.000000pt" height="1296.000000pt" viewBox="0 0 1536.000000 1296.000000"
 preserveAspectRatio="xMidYMid meet">
<metadata>
Created by potrace 1.16, written by Peter Selinger 2001-2019
</metadata>
<g transform="translate(0.000000,1296.000000) scale(0.100000,-0.100000)"
fill="#000000" stroke="none">
<path d="M11241 12893 c-37 -38 -140 -147 -231 -243 -90 -96 -365 -382 -610
-635 -535 -551 -625 -646 -835 -880 -461 -511 -714 -859 -856 -1178 -104 -232
-156 -430 -229 -862 -78 -463 -135 -624 -318 -895 -160 -238 -331 -436 -670
-773 l-189 -189 -32 94 c-112 321 -295 514 -606 639 -243 98 -503 120 -870 73
-810 -102 -1923 -571 -2850 -1202 -1499 -1019 -2603 -2527 -2879 -3932 -48
-245 -60 -370 -60 -635 -1 -315 23 -498 100 -752 116 -384 355 -744 653 -985
595 -481 1468 -645 2486 -467 574 100 1156 303 1757 611 583 299 1165 703
1666 1156 155 139 458 445 603 607 694 777 1204 1611 1400 2290 121 417 91
802 -83 1085 -96 156 -223 267 -446 391 -62 34 -111 63 -109 65 5 5 227 41
732 119 678 104 985 157 1300 220 978 197 1653 443 2423 884 459 263 812 499
1887 1261 165 116 451 313 636 436 185 123 339 231 343 240 21 55 -19 118 -75
118 -54 0 -441 -256 -1177 -778 -862 -610 -1175 -821 -1587 -1063 -523 -308
-902 -483 -1415 -654 -586 -194 -1062 -294 -2325 -489 -398 -62 -854 -136
-950 -155 -25 -5 -41 1 -87 35 -32 23 -58 45 -58 50 0 4 12 13 28 18 217 81
820 313 927 357 404 166 836 402 1264 688 539 360 996 710 2521 1932 509 407
1015 811 1125 897 110 86 209 166 220 178 24 27 25 83 1 109 -24 26 -69 35
-98 20 -39 -21 -294 -222 -1358 -1074 -1087 -870 -1379 -1100 -1766 -1390
-692 -520 -1140 -808 -1619 -1041 -236 -115 -422 -193 -825 -344 -173 -65
-367 -139 -430 -164 -63 -25 -117 -46 -121 -46 -4 0 -17 16 -29 36 l-22 35 58
53 c33 29 221 196 419 371 796 705 1203 1098 1430 1380 150 187 270 411 395
740 149 390 240 545 435 741 305 306 734 556 1915 1114 771 364 1046 506 1270
654 155 102 231 163 338 269 99 97 157 182 221 320 64 139 84 176 120 221 17
22 34 49 37 62 18 70 -61 129 -126 94 -31 -17 -126 -170 -180 -289 -60 -136
-112 -212 -211 -307 -231 -221 -526 -389 -1479 -839 -1195 -563 -1677 -840
-1988 -1139 -237 -229 -349 -412 -512 -841 -87 -229 -177 -418 -257 -540 -185
-281 -600 -696 -1418 -1420 -148 -131 -329 -292 -402 -357 -73 -65 -136 -118
-140 -118 -5 0 -21 39 -37 86 l-28 86 274 277 c151 152 311 317 355 367 280
316 470 617 552 874 42 131 65 235 111 504 79 463 121 613 239 861 83 172 159
295 306 490 280 373 512 629 1360 1505 771 795 865 898 865 939 0 43 -9 60
-41 76 -50 26 -69 19 -138 -52z"/>
</g>
</svg>
