<?xml version="1.0" standalone="no"?>
<!DOCTYPE svg PUBLIC "-//W3C//DTD SVG 20010904//EN"
 "http://www.w3.org/TR/2001/REC-SVG-20010904/DTD/svg10.dtd">
<svg version="1.0" xmlns="http://www.w3.org/2000/svg"
 width="1024.000000pt" height="377.000000pt" viewBox="0 0 1024.000000 377.000000"
 preserveAspectRatio="xMidYMid meet">
<metadata>
Created by potrace 1.16, written by Peter Selinger 2001-2019
</metadata>
<g transform="translate(0.000000,377.000000) scale(0.100000,-0.100000)"
fill="#000000" stroke="none">
<path d="M4004 3703 c-31 -31 -120 -143 -199 -248 -79 -104 -163 -208 -187
-231 -191 -181 -547 -392 -947 -562 l-95 -41 -60 57 c-183 169 -505 309 -810
351 -147 21 -468 9 -657 -24 -138 -24 -457 -201 -634 -353 -323 -278 -464
-666 -399 -1101 30 -205 97 -429 173 -580 43 -83 141 -226 207 -299 303 -336
867 -491 1333 -367 300 80 544 229 813 493 l138 135 157 -42 c460 -124 916
-305 1303 -518 80 -44 199 -109 265 -146 167 -92 424 -215 463 -223 20 -4 32
-3 32 5 0 61 -843 673 -1255 911 -280 162 -406 220 -709 329 -93 34 -171 62
-172 64 -2 1 9 43 24 92 l28 90 180 7 c511 22 804 56 999 118 305 97 708 284
914 423 179 121 515 252 1031 402 102 30 223 66 270 80 182 54 287 68 525 69
240 1 267 -2 655 -70 770 -134 1537 -323 2170 -534 146 -48 325 -113 398 -144
144 -60 269 -102 279 -92 28 28 -347 273 -618 404 -422 205 -728 322 -1089
416 -52 13 -156 47 -230 74 -421 155 -886 266 -1275 304 -194 19 -650 16 -810
-6 -220 -29 -341 -55 -539 -116 -449 -139 -868 -312 -1141 -471 -327 -190
-681 -325 -1010 -385 -146 -27 -509 -27 -653 0 -111 21 -103 14 -117 98 -4 25
0 56 12 89 18 51 20 53 213 182 522 349 718 532 886 829 84 149 224 494 224
553 0 50 -20 45 -86 -22z"/>
</g>
</svg>
