<?xml version="1.0" standalone="no"?>
<!DOCTYPE svg PUBLIC "-//W3C//DTD SVG 20010904//EN"
 "http://www.w3.org/TR/2001/REC-SVG-20010904/DTD/svg10.dtd">
<svg version="1.0" xmlns="http://www.w3.org/2000/svg"
 width="2043.000000pt" height="1190.000000pt" viewBox="0 0 2043.000000 1190.000000"
 preserveAspectRatio="xMidYMid meet">
<metadata>
Created by potrace 1.16, written by Peter Selinger 2001-2019
</metadata>
<g transform="translate(0.000000,1190.000000) scale(0.100000,-0.100000)"
fill="#000000" stroke="none">
<path d="M10529 11873 c-8 -11 -30 -24 -49 -27 -39 -8 -86 -22 -140 -41 -19
-7 -67 -18 -106 -24 -39 -7 -93 -23 -120 -37 -46 -23 -58 -25 -196 -23 -81 0
-152 -2 -157 -6 -16 -9 -657 14 -718 26 -29 6 -53 15 -53 20 0 13 -47 11 -56
-2 -8 -14 -92 -52 -124 -57 -14 -1 -335 -4 -715 -6 -784 -4 -802 -5 -1032 -82
-72 -24 -140 -44 -151 -44 -11 0 -22 -5 -24 -10 -2 -6 -23 -18 -48 -27 -35
-13 -96 -18 -265 -23 -137 -4 -231 -10 -248 -18 -16 -7 -39 -12 -52 -12 -13 0
-28 -6 -32 -13 -4 -8 -39 -29 -78 -48 -38 -20 -99 -51 -135 -71 -36 -20 -80
-39 -97 -43 -18 -4 -33 -11 -33 -16 0 -5 -10 -9 -23 -9 -13 0 -27 -4 -32 -8
-17 -14 -119 -50 -173 -61 -30 -6 -73 -22 -96 -36 -24 -14 -49 -25 -56 -25 -7
0 -21 -7 -31 -16 -9 -8 -43 -22 -76 -31 -32 -8 -69 -21 -83 -28 -14 -7 -41
-18 -60 -24 -160 -56 -262 -95 -302 -116 -26 -14 -52 -25 -58 -25 -16 0 -357
-172 -414 -208 -28 -18 -54 -32 -59 -32 -4 0 -15 -7 -23 -15 -9 -8 -25 -15
-37 -15 -13 0 -58 -18 -102 -41 -97 -49 -254 -105 -338 -119 -174 -29 -240
-49 -372 -111 -22 -10 -56 -22 -75 -25 -19 -4 -44 -14 -55 -24 -23 -20 -177
-80 -206 -80 -24 0 -129 -46 -129 -57 0 -4 -12 -14 -27 -21 -16 -7 -56 -39
-90 -72 -35 -33 -66 -60 -69 -60 -3 0 -26 -19 -49 -42 -54 -54 -95 -88 -103
-88 -4 0 -26 -17 -49 -38 -56 -51 -113 -163 -106 -206 10 -62 -106 -249 -188
-303 -21 -14 -39 -29 -39 -33 0 -4 -15 -13 -32 -21 -18 -7 -35 -16 -38 -19
-12 -14 -79 -50 -94 -50 -9 0 -19 -7 -22 -15 -4 -8 -12 -15 -19 -15 -17 0
-127 -75 -138 -95 -5 -9 -30 -27 -56 -39 -48 -22 -58 -29 -116 -83 -20 -18
-39 -33 -43 -33 -4 0 -25 -16 -46 -35 -22 -19 -45 -35 -51 -35 -6 0 -27 -14
-45 -30 -19 -17 -45 -33 -57 -36 -13 -4 -23 -10 -23 -14 0 -5 -14 -11 -30 -15
-17 -4 -30 -10 -30 -15 0 -5 -8 -11 -17 -14 -10 -4 -44 -31 -76 -61 -31 -30
-61 -55 -65 -55 -4 0 -15 -9 -25 -20 -9 -11 -24 -20 -32 -20 -8 0 -15 -4 -15
-9 0 -5 -8 -12 -19 -16 -10 -3 -44 -26 -76 -50 -31 -25 -64 -45 -72 -45 -7 0
-16 -7 -19 -15 -4 -8 -15 -15 -25 -15 -11 0 -22 -7 -25 -15 -4 -8 -11 -15 -18
-15 -12 0 -159 -141 -226 -215 -20 -22 -52 -55 -73 -72 -85 -74 -233 -259
-268 -336 -13 -29 -47 -84 -82 -133 -99 -137 -197 -314 -197 -354 0 -10 -18
-56 -40 -101 -22 -46 -40 -91 -40 -100 0 -10 -4 -21 -10 -24 -5 -3 -10 -26
-10 -51 0 -25 -7 -59 -16 -77 -17 -33 -34 -103 -61 -252 -13 -75 -14 -100 -4
-149 11 -51 73 -184 106 -226 22 -28 48 -94 66 -165 22 -86 41 -138 57 -158
18 -22 5 -217 -24 -354 -13 -62 -24 -127 -24 -144 0 -32 -51 -198 -101 -331
-24 -63 -29 -92 -29 -161 0 -60 -8 -113 -25 -178 -14 -52 -31 -112 -36 -134
-12 -44 -4 -181 11 -200 5 -6 11 -122 13 -266 3 -285 20 -399 71 -473 14 -21
26 -44 26 -51 0 -6 9 -20 20 -30 11 -10 20 -30 20 -44 0 -61 39 -164 81 -216
9 -11 28 -42 44 -70 15 -27 38 -68 50 -90 25 -44 104 -275 125 -364 11 -45 10
-118 0 -389 l-13 -333 57 -82 c31 -46 56 -86 56 -89 0 -7 68 -148 95 -199 17
-30 96 -99 142 -122 17 -9 39 -27 47 -39 17 -24 78 -50 176 -74 36 -9 85 -27
110 -39 25 -13 61 -26 80 -30 45 -7 110 -21 180 -36 40 -9 284 -13 905 -14
585 -1 872 -6 920 -14 39 -6 86 -14 105 -17 19 -3 64 -19 99 -36 48 -23 77
-30 120 -30 33 0 79 -8 111 -20 47 -17 88 -21 275 -25 191 -5 223 -8 250 -24
48 -31 134 -69 153 -69 9 0 40 -14 67 -30 28 -16 66 -36 85 -45 19 -9 54 -25
77 -36 24 -10 50 -19 58 -19 8 0 15 -3 15 -7 0 -5 10 -13 23 -19 126 -63 202
-106 235 -132 22 -18 46 -32 52 -32 7 0 37 -27 67 -60 48 -52 58 -59 89 -58
47 2 63 29 37 65 -39 56 -92 159 -92 182 -1 21 2 23 37 18 20 -3 62 -13 92
-22 30 -9 74 -21 97 -26 23 -4 62 -21 85 -36 54 -34 156 -45 177 -19 16 19 8
44 -16 53 -10 4 -62 48 -116 99 -53 51 -111 98 -127 106 -30 13 -37 23 -22 32
8 5 72 -14 127 -38 17 -7 46 -19 65 -26 19 -8 55 -24 80 -37 28 -15 70 -26
117 -30 68 -5 73 -4 73 13 0 11 -8 25 -18 32 -63 44 -108 72 -115 72 -4 0 -30
21 -57 48 -66 63 -91 82 -117 88 -13 4 -23 10 -23 15 0 5 -6 9 -13 9 -7 0 -41
19 -77 43 -36 24 -92 56 -125 72 -33 17 -62 33 -63 38 -2 4 -19 14 -38 22 -19
8 -47 27 -62 43 -15 17 -38 33 -52 37 -42 13 -125 57 -133 71 -4 8 -13 14 -19
14 -31 0 -51 83 -26 108 17 17 35 15 82 -7 65 -30 164 -61 195 -61 17 0 32 -4
35 -9 6 -9 108 -61 120 -61 7 0 148 -94 253 -168 29 -20 74 -48 100 -62 27
-13 68 -37 93 -53 l45 -27 325 6 325 7 55 29 c47 24 66 28 138 28 83 0 85 1
184 56 79 43 112 56 152 59 96 5 262 34 296 51 19 10 66 20 106 23 39 4 78 11
85 18 8 6 34 16 59 23 25 6 72 22 105 36 58 24 66 25 235 20 288 -8 431 -20
470 -38 19 -9 52 -21 72 -28 20 -6 42 -18 48 -26 8 -8 31 -14 60 -14 27 0 73
-11 108 -25 61 -25 63 -25 388 -25 311 0 327 1 351 20 14 11 32 20 40 20 7 0
24 7 36 15 12 8 56 19 97 25 159 24 237 40 275 59 92 44 153 71 162 71 6 0 55
21 109 46 l99 47 93 -12 c51 -6 108 -19 125 -28 18 -9 53 -22 79 -29 48 -12
61 -19 241 -135 150 -96 160 -100 266 -110 53 -4 123 -16 156 -25 55 -15 150
-16 1113 -12 582 3 1055 1 1058 -3 3 -5 12 -9 21 -9 8 0 53 -18 99 -41 46 -22
114 -46 151 -54 62 -13 71 -18 136 -85 38 -39 82 -90 98 -115 15 -24 46 -56
69 -70 22 -14 40 -29 40 -34 0 -4 12 -21 27 -37 39 -42 42 -104 9 -187 -14
-36 -26 -78 -26 -94 0 -42 -44 -103 -163 -225 -68 -70 -112 -108 -126 -108
-31 0 -27 -35 7 -58 43 -31 158 -28 245 5 37 14 70 23 73 20 4 -3 -3 -18 -15
-33 -11 -15 -21 -32 -21 -39 0 -7 -17 -24 -37 -37 -20 -12 -51 -32 -68 -43
-18 -11 -46 -29 -64 -40 -18 -11 -63 -41 -99 -67 -37 -27 -72 -48 -78 -48 -27
0 -83 -93 -63 -106 6 -3 125 -5 265 -5 l254 2 83 30 c163 61 203 77 254 103
29 14 56 26 60 26 5 0 54 45 111 100 92 89 187 211 218 280 26 56 34 82 34
103 0 12 9 51 20 85 13 41 20 92 20 140 0 105 9 128 78 213 33 41 67 88 75
104 9 17 44 58 79 91 35 34 91 89 125 122 54 53 62 65 68 108 3 27 12 60 18
74 15 31 115 130 132 130 7 0 35 18 61 40 27 22 69 54 94 73 25 18 55 48 68
67 46 69 117 135 177 164 33 16 73 40 89 53 36 30 403 213 427 213 10 0 34 13
52 30 19 16 53 38 75 48 22 10 49 28 59 39 39 45 191 56 269 19 27 -13 76 -33
109 -46 33 -12 68 -26 77 -31 10 -5 29 -9 43 -9 13 0 61 -13 107 -30 45 -16
90 -30 100 -30 10 0 26 -4 36 -9 47 -25 94 -41 148 -51 109 -20 118 -23 154
-43 19 -11 78 -31 130 -44 52 -13 114 -31 138 -39 23 -7 72 -14 108 -14 75 0
151 -16 176 -37 12 -11 39 -14 100 -12 74 2 91 -1 153 -28 39 -17 99 -40 135
-51 36 -11 102 -32 147 -46 109 -34 270 -46 304 -22 13 9 33 16 44 16 26 0 45
18 45 41 0 17 -48 59 -67 59 -5 0 -31 20 -56 45 l-47 45 192 0 c142 0 206 4
242 15 27 8 64 15 83 15 37 0 54 8 130 62 28 21 73 43 100 50 53 14 326 150
358 178 25 22 99 60 117 60 8 0 37 23 66 50 l53 50 2 144 c2 177 -1 173 163
248 11 5 40 35 64 66 49 62 58 98 59 243 1 116 -22 146 -172 224 -33 18 -63
39 -153 113 -12 9 -30 23 -40 29 -115 77 -146 104 -184 161 -24 35 -82 103
-131 153 -49 49 -91 100 -95 114 -3 14 -9 25 -13 25 -4 0 -17 17 -29 38 -22
39 -68 88 -115 123 -16 12 -41 44 -57 73 -16 28 -50 76 -75 106 -25 30 -45 64
-45 76 0 11 -9 29 -20 39 -11 10 -20 24 -20 32 0 22 -54 95 -98 134 -22 19
-51 57 -65 85 -14 28 -52 78 -84 111 -32 33 -80 95 -107 139 -27 43 -65 104
-85 134 -20 30 -49 80 -66 111 -37 70 -102 142 -177 198 -48 36 -88 83 -107
125 -2 5 -23 28 -47 52 -24 23 -44 47 -44 53 0 6 -17 28 -37 49 -55 57 -211
275 -226 316 -4 10 -24 43 -45 75 -22 31 -46 67 -55 81 -61 92 -93 138 -107
155 -10 11 -29 42 -44 68 -37 68 -57 98 -90 134 -16 18 -34 42 -40 53 -6 10
-27 43 -47 72 -59 87 -99 151 -99 160 0 15 -82 183 -92 189 -6 4 -8 22 -6 40
5 32 -14 99 -37 129 -6 8 -17 33 -24 55 -25 73 -69 160 -113 220 -24 33 -55
78 -70 100 -15 22 -50 74 -79 115 -28 41 -55 84 -60 95 -5 11 -27 45 -49 75
-22 30 -51 75 -64 100 -14 25 -47 80 -75 123 -28 42 -51 81 -51 87 0 5 -4 10
-10 10 -5 0 -20 9 -32 20 -13 12 -30 27 -38 34 -8 7 -33 19 -55 26 -22 7 -51
17 -65 22 -14 6 -45 17 -70 25 -25 9 -57 24 -72 34 -14 11 -29 19 -34 19 -4 0
-21 11 -39 24 -38 29 -130 80 -165 91 -14 4 -49 23 -78 41 -29 19 -57 34 -63
34 -6 0 -30 14 -54 30 -24 17 -50 30 -57 30 -7 0 -23 7 -35 15 -12 8 -44 20
-72 26 -28 6 -51 14 -51 18 0 9 -56 37 -130 68 -25 10 -60 32 -77 50 -40 39
-57 48 -104 57 -20 3 -50 19 -67 34 -17 15 -52 33 -78 40 -31 8 -59 25 -81 48
-18 19 -57 52 -87 72 -66 45 -116 88 -116 99 0 4 -9 19 -20 33 -29 37 -82 120
-104 163 -11 21 -29 40 -42 43 -12 3 -25 12 -28 20 -3 8 -17 14 -31 14 -14 0
-25 4 -25 9 0 6 -12 16 -27 23 -14 7 -31 22 -37 33 -6 11 -22 29 -35 40 -39
31 -111 106 -111 114 0 4 -11 18 -25 31 -14 13 -25 28 -25 34 0 5 -11 22 -25
36 -14 14 -37 50 -53 80 -15 30 -40 73 -54 95 -26 41 -102 125 -113 125 -3 0
-11 5 -18 10 -7 6 -41 29 -76 52 -61 41 -90 73 -179 203 -63 92 -149 175 -181
175 -12 0 -21 3 -21 8 0 4 -22 15 -50 25 -27 10 -50 22 -50 27 0 6 -18 10 -40
10 -23 0 -53 6 -68 14 -15 7 -56 16 -92 20 -36 4 -74 13 -85 20 -11 7 -52 23
-91 35 -50 16 -81 33 -103 57 -18 19 -37 34 -42 34 -5 0 -17 8 -28 18 -10 9
-31 28 -48 42 -36 31 -53 60 -53 94 0 14 -12 39 -27 56 -27 28 -30 29 -75 19
-26 -6 -64 -22 -85 -36 -29 -20 -41 -23 -53 -14 -8 6 -26 16 -40 21 -14 6 -33
15 -42 20 -31 17 -52 28 -68 34 -8 4 -40 20 -70 37 -30 17 -74 36 -97 44 -23
7 -54 22 -70 33 -35 24 -166 81 -213 93 -49 11 -162 75 -205 116 -19 18 -41
33 -49 33 -8 0 -16 4 -18 9 -1 5 -17 17 -34 27 -17 11 -51 32 -75 49 -44 29
-44 29 -239 36 -206 7 -240 12 -280 40 -16 11 -54 20 -105 24 -47 4 -86 12
-96 21 -10 9 -38 14 -80 14 -67 0 -87 9 -144 63 -50 48 -61 57 -68 57 -3 0
-18 11 -32 24 -17 16 -44 27 -78 31 -28 4 -75 21 -103 37 -36 20 -72 30 -116
35 -58 5 -67 3 -79 -14z"/>
</g>
</svg>
