<?xml version="1.0" standalone="no"?>
<!DOCTYPE svg PUBLIC "-//W3C//DTD SVG 20010904//EN"
 "http://www.w3.org/TR/2001/REC-SVG-20010904/DTD/svg10.dtd">
<svg version="1.0" xmlns="http://www.w3.org/2000/svg"
 width="1536.000000pt" height="927.000000pt" viewBox="0 0 1536.000000 927.000000"
 preserveAspectRatio="xMidYMid meet">
<metadata>
Created by potrace 1.16, written by Peter Selinger 2001-2019
</metadata>
<g transform="translate(0.000000,927.000000) scale(0.100000,-0.100000)"
fill="#000000" stroke="none">
<path d="M9352 9201 c-68 -93 -89 -136 -112 -233 -21 -88 -36 -108 -81 -108
-35 0 -44 13 -74 99 -35 105 -105 204 -163 231 -51 24 -64 21 -90 -22 -15 -25
-15 -31 2 -77 22 -62 16 -98 -30 -168 -19 -29 -34 -63 -34 -76 0 -13 14 -49
31 -80 40 -74 49 -152 22 -186 -27 -33 -108 -41 -141 -15 -20 16 -26 40 -45
171 -19 127 -27 156 -46 177 -57 60 -111 39 -167 -66 l-39 -73 0 -150 c1 -82
3 -181 5 -220 2 -38 -2 -111 -8 -162 -13 -91 -13 -93 14 -165 20 -53 28 -92
28 -143 l1 -70 -47 -3 c-43 -3 -48 -1 -62 27 -9 16 -25 67 -36 113 -10 46 -29
110 -40 142 -24 67 -21 93 18 151 39 58 38 155 -2 243 -35 75 -56 92 -116 92
-94 0 -243 -133 -291 -261 -18 -47 -18 -53 -4 -75 10 -15 15 -47 15 -95 0 -61
-9 -97 -64 -257 -91 -266 -125 -351 -146 -362 -47 -25 -100 -1 -100 45 0 13
-11 37 -25 53 -14 17 -25 33 -25 36 0 3 -18 24 -39 45 -22 22 -55 72 -74 113
-20 40 -50 87 -69 104 -43 40 -116 89 -148 99 -14 4 -44 21 -68 38 -53 38
-140 49 -190 23 -17 -9 -48 -16 -68 -16 -54 0 -117 -34 -168 -91 -61 -67 -72
-121 -60 -294 13 -191 9 -311 -9 -339 -23 -34 -62 -41 -105 -18 -45 23 -67 66
-91 176 -21 100 -42 128 -126 172 l-52 28 -49 -19 c-33 -12 -67 -37 -101 -74
-43 -46 -53 -62 -53 -92 0 -54 -37 -164 -67 -199 -14 -17 -43 -40 -65 -51 -22
-11 -49 -36 -60 -55 -11 -19 -29 -39 -40 -45 -26 -14 -57 -2 -62 24 -16 76
-26 127 -31 159 -7 48 -93 177 -121 184 -42 11 -134 -59 -169 -126 -24 -46
-36 -171 -25 -248 23 -147 23 -168 6 -195 -33 -49 -115 -71 -170 -45 -35 15
-55 48 -66 110 -37 193 -188 315 -309 250 -53 -28 -66 -65 -81 -216 l-13 -135
28 -98 c26 -89 29 -114 31 -278 2 -148 6 -191 23 -242 25 -76 30 -231 11 -323
-11 -58 -11 -69 4 -97 21 -42 20 -55 -5 -88 -20 -25 -22 -34 -16 -137 5 -87
11 -115 27 -138 29 -41 25 -65 -24 -134 -65 -91 -145 -166 -176 -166 -32 0
-147 67 -172 101 -11 14 -22 46 -24 70 -3 24 -10 74 -16 111 -10 61 -9 71 12
120 21 49 22 62 16 165 -5 87 -4 119 7 140 8 16 17 48 21 72 4 24 22 78 42
120 41 88 53 163 46 282 l-4 86 46 32 c48 33 89 82 100 117 9 30 -36 82 -91
106 -57 25 -127 13 -225 -39 -59 -31 -74 -44 -89 -78 -23 -51 -37 -148 -37
-250 -1 -78 -2 -83 -59 -193 -77 -151 -102 -164 -146 -75 -14 28 -27 74 -30
110 -4 52 -17 84 -74 193 -37 73 -83 149 -101 171 -30 35 -39 39 -78 39 -147
0 -210 -123 -149 -290 15 -41 36 -104 45 -140 10 -36 24 -77 31 -93 10 -22 10
-43 -1 -111 -12 -80 -12 -89 9 -158 13 -40 25 -78 27 -85 6 -24 -27 -45 -60
-39 -39 8 -50 23 -77 103 -21 65 -22 102 -3 229 8 57 -20 79 -116 88 -79 7
-96 2 -150 -49 -19 -18 -48 -39 -64 -46 -24 -11 -32 -24 -42 -67 -17 -76 -24
-80 -86 -53 -81 36 -109 37 -163 6 -82 -49 -127 -150 -104 -238 6 -23 13 -136
14 -252 1 -115 7 -220 12 -233 5 -13 20 -29 33 -35 41 -21 48 -73 22 -180 -12
-51 -31 -137 -42 -191 -22 -107 -32 -126 -62 -126 -22 0 -48 53 -48 100 0 70
-67 162 -146 201 -37 17 -55 20 -97 15 -84 -11 -128 -44 -206 -154 -38 -54
-89 -115 -114 -135 -36 -29 -52 -53 -76 -114 -51 -127 -62 -143 -114 -173 -40
-23 -59 -44 -99 -112 -85 -142 -74 -130 -108 -113 -43 22 -47 54 -22 175 12
58 22 111 22 118 0 21 -81 102 -103 102 -11 0 -36 -5 -54 -12 -31 -11 -35 -10
-68 22 l-34 33 -36 -27 c-52 -40 -62 -62 -68 -147 -4 -53 -13 -91 -30 -124
l-24 -48 -44 40 c-55 50 -79 63 -120 63 -42 0 -116 -36 -131 -63 -16 -30 -13
-115 11 -299 12 -87 24 -196 27 -243 8 -104 -2 -113 -72 -66 -69 45 -200 86
-250 77 -102 -20 -179 -199 -129 -297 9 -16 38 -54 65 -84 38 -42 54 -71 71
-127 16 -51 33 -84 61 -114 26 -28 41 -55 45 -81 13 -82 56 -138 133 -172 25
-11 77 -45 115 -76 39 -30 95 -65 125 -76 56 -20 224 -103 248 -122 17 -14 15
-108 -4 -135 -11 -17 -25 -22 -57 -22 -52 0 -97 26 -127 74 -12 20 -48 54 -80
76 -32 22 -62 44 -65 50 -3 5 -24 10 -46 10 -60 0 -99 -42 -99 -105 0 -59 22
-107 65 -139 18 -14 35 -38 38 -54 3 -16 25 -53 49 -83 84 -106 147 -199 189
-279 27 -53 56 -92 82 -113 90 -72 93 -76 100 -154 7 -92 33 -142 112 -218 74
-71 85 -90 85 -145 0 -47 -14 -80 -34 -80 -7 0 -60 -13 -117 -30 -133 -38
-166 -39 -175 -4 -9 34 -99 131 -144 153 -26 14 -70 20 -175 25 -129 6 -143 5
-173 -14 -18 -11 -40 -35 -49 -55 -22 -46 -6 -103 40 -140 71 -58 160 -116
236 -154 120 -61 119 -87 -7 -175 -94 -66 -172 -147 -238 -245 -44 -67 -49
-80 -51 -135 -1 -34 -2 -66 -2 -73 -1 -6 -17 -30 -37 -54 -59 -70 -65 -91 -76
-243 -5 -77 -14 -147 -20 -154 -17 -20 -48 -10 -72 21 -20 27 -21 41 -22 267
l0 238 -27 41 c-31 47 -56 56 -136 48 -87 -7 -113 -25 -150 -104 -43 -89 -65
-112 -196 -198 -60 -40 -124 -88 -142 -106 -64 -68 -103 -210 -70 -254 15 -20
29 -20 936 -23 638 -1 921 1 921 8 0 6 -29 38 -65 71 -36 34 -65 67 -65 74 0
6 23 45 52 85 35 51 59 100 78 159 l26 86 -13 170 c-13 166 -13 196 6 224 14
21 49 4 66 -33 9 -19 34 -48 56 -65 21 -18 39 -39 39 -47 0 -8 13 -32 30 -52
17 -21 32 -55 36 -80 5 -29 21 -61 48 -95 35 -45 41 -60 44 -113 4 -58 2 -64
-43 -135 -27 -41 -81 -110 -122 -154 -40 -44 -73 -85 -73 -92 0 -10 285 -13
1425 -13 1283 0 1425 2 1437 16 47 57 46 57 118 50 67 -7 68 -7 90 23 16 23
36 35 78 46 31 9 74 20 94 26 45 12 53 33 34 87 -9 25 -11 44 -5 47 5 4 9 26
9 51 0 87 33 105 102 57 34 -23 41 -25 62 -13 13 6 32 9 43 6 23 -7 38 8 118
122 31 46 68 88 82 93 13 5 42 23 63 40 34 27 39 38 42 78 3 39 6 46 25 49 12
2 36 -7 53 -20 l31 -23 37 21 c23 13 51 44 73 80 42 69 74 88 173 103 40 5 81
18 96 30 15 11 56 25 91 32 35 7 91 20 123 31 65 20 121 23 131 8 13 -20 35
-9 60 31 15 23 40 46 59 54 18 8 38 21 46 29 8 11 30 16 70 16 50 0 60 3 74
25 9 13 16 36 16 49 0 21 7 27 42 36 23 7 53 9 67 7 23 -5 32 3 69 54 23 33
53 83 66 112 22 50 42 68 93 82 13 4 53 -7 103 -26 62 -25 89 -42 112 -70 20
-24 41 -39 63 -43 25 -5 36 -14 44 -36 5 -17 17 -30 26 -30 8 0 34 -17 58 -39
77 -70 79 -71 317 -66 135 3 217 8 225 15 9 8 20 8 32 2 10 -6 79 -8 163 -6
115 4 148 8 162 21 16 14 23 14 57 3 53 -17 119 -8 180 24 28 14 63 26 79 26
16 0 64 9 108 21 84 22 142 21 340 -2 79 -10 100 -9 150 6 63 18 181 15 229
-7 18 -8 44 -8 101 1 98 16 131 31 154 69 33 54 47 55 144 10 76 -35 101 -41
189 -48 56 -5 105 -6 110 -3 4 2 19 27 32 54 24 46 33 54 63 50 7 -1 58 21
114 49 56 27 109 50 117 50 26 0 134 55 155 79 17 19 26 21 75 15 54 -6 57 -5
93 30 20 20 46 56 56 79 29 65 68 81 172 68 87 -11 105 -18 163 -64 77 -60
190 -77 235 -34 20 19 33 22 89 19 55 -2 70 1 88 18 33 31 80 34 195 15 121
-20 174 -15 227 24 22 16 59 37 84 48 24 11 57 34 73 52 33 34 62 39 105 17
35 -18 101 -91 101 -111 0 -9 22 -37 49 -63 26 -26 60 -70 74 -98 32 -64 174
-200 218 -209 17 -4 71 -25 119 -46 107 -47 164 -53 205 -21 15 12 32 22 37
22 27 0 81 36 95 64 20 40 30 46 76 46 69 0 99 21 135 92 17 35 32 69 32 75 0
13 -23 23 -54 23 -36 0 -66 28 -66 62 0 28 2 30 28 24 15 -3 43 -9 62 -11 19
-3 68 -13 107 -22 40 -8 79 -13 88 -10 8 4 21 21 29 40 16 38 40 47 135 47 31
0 64 7 74 14 18 14 24 46 8 46 -23 0 -71 53 -71 78 0 52 11 57 117 58 54 0
121 7 150 14 47 12 55 12 108 -8 66 -26 142 -28 228 -7 74 17 89 31 111 100
19 60 23 64 73 75 46 11 80 0 136 -43 63 -48 117 -57 156 -25 17 12 30 31 30
40 1 29 44 68 90 81 36 10 49 20 65 52 13 25 30 41 46 45 l25 6 0 664 0 665
-55 5 c-54 5 -56 6 -86 57 -17 28 -36 76 -43 106 -15 70 -47 118 -86 130 -38
12 -92 62 -113 106 -18 37 -151 129 -187 130 -35 1 -45 21 -45 93 0 68 0 68
39 93 21 14 61 29 89 34 36 5 62 18 89 41 35 31 39 39 44 99 4 36 10 84 13
106 5 30 2 48 -11 72 -10 17 -30 54 -45 81 -42 77 -78 81 -195 22 -100 -50
-133 -79 -133 -120 0 -35 -27 -66 -78 -87 -28 -12 -57 -14 -122 -9 -115 8
-195 -14 -227 -65 -41 -64 -65 -90 -102 -108 -20 -11 -53 -37 -73 -60 -31 -35
-42 -41 -77 -41 -34 0 -43 4 -51 23 -55 137 -62 162 -57 216 3 31 12 78 20
106 12 42 19 50 44 57 49 13 60 33 38 70 -14 25 -16 43 -12 95 4 35 14 79 22
97 21 45 120 153 156 172 47 24 80 83 84 150 11 171 15 203 29 243 23 64 21
75 -31 121 l-47 41 -9 160 -9 160 31 63 c17 35 31 71 31 79 0 9 16 24 35 33
35 16 95 76 95 95 0 6 11 25 24 42 13 18 38 67 56 109 17 43 40 88 50 101 15
18 22 53 30 138 13 135 35 282 55 360 22 85 20 193 -6 246 -26 54 -91 111
-137 119 -49 9 -108 -12 -153 -54 -28 -28 -54 -75 -103 -184 -35 -81 -72 -174
-81 -205 -14 -48 -27 -68 -76 -115 l-60 -56 -9 -91 c-5 -50 -11 -94 -14 -99
-3 -5 -10 -46 -15 -93 -12 -95 -50 -178 -131 -289 -87 -118 -109 -182 -135
-378 -10 -71 -22 -126 -35 -150 -73 -131 -100 -189 -100 -211 0 -12 -19 -54
-42 -94 -23 -40 -54 -95 -69 -123 -16 -28 -38 -59 -49 -69 -11 -10 -30 -50
-41 -89 -42 -140 -132 -292 -194 -327 -22 -13 -77 -58 -122 -101 -45 -43 -86
-78 -92 -78 -21 0 -51 -40 -51 -67 0 -15 -11 -38 -26 -54 -14 -15 -32 -44 -39
-65 l-13 -39 -59 1 c-32 0 -77 8 -100 17 -31 12 -53 14 -86 8 -54 -10 -74 0
-93 45 -33 79 -9 135 55 127 27 -4 57 3 114 27 104 43 150 78 177 137 13 26
38 62 55 78 18 17 57 73 88 125 30 52 69 105 86 118 54 40 64 71 56 186 -6 80
-4 113 10 158 19 67 12 108 -31 169 -43 62 -77 63 -151 2 -36 -28 -43 -40 -43
-69 0 -28 -6 -38 -29 -51 -16 -10 -68 -72 -116 -140 -62 -87 -93 -123 -107
-123 -11 0 -42 12 -69 27 l-49 26 -1 71 c-1 39 0 80 1 91 3 31 36 61 88 80 26
10 61 28 77 40 42 31 117 145 172 262 26 54 60 120 76 146 25 41 28 54 23 91
-7 46 -29 73 -83 100 -43 22 -45 21 -109 -21 -40 -26 -57 -45 -61 -65 -7 -37
-119 -134 -171 -147 -48 -14 -108 2 -117 30 -4 10 1 42 10 70 14 43 15 60 6
112 -7 34 -16 105 -20 157 -8 85 -7 98 10 126 10 17 23 53 29 81 6 28 22 66
36 84 13 18 24 42 24 54 0 24 -83 143 -107 152 -24 9 -102 -36 -119 -69 -8
-15 -39 -46 -68 -68 -30 -23 -61 -52 -70 -64 -18 -28 -72 -41 -110 -26 -36 13
-34 40 11 202 23 86 37 159 39 206 1 50 7 79 18 91 8 9 33 64 54 122 l39 104
-7 130 c-7 142 -18 174 -70 219 -53 44 -99 46 -149 7 -18 -14 -26 -33 -32 -76
-9 -65 -15 -72 -79 -80 -66 -9 -89 -21 -96 -52 -9 -37 -22 -53 -45 -53 -27 0
-45 35 -62 118 -9 40 -22 84 -31 97 -22 33 -131 84 -198 91 -84 10 -112 -5
-140 -75 -21 -52 -23 -71 -23 -288 -1 -197 -3 -235 -16 -248 -13 -13 -20 -14
-43 -4 -33 15 -51 73 -66 207 -6 51 -16 112 -22 136 -10 37 -9 48 4 67 14 23
12 28 -29 92 -53 80 -72 95 -149 107 -95 16 -102 37 -35 109 40 43 54 96 41
153 -14 63 -11 147 6 193 48 123 48 123 35 214 -7 47 -17 112 -21 143 -6 46
-16 66 -51 108 -77 91 -127 104 -154 38 -9 -24 -29 -59 -43 -78 -24 -31 -28
-47 -33 -138 -3 -57 -11 -108 -17 -114 -7 -7 -12 -33 -12 -59 0 -36 -6 -54
-29 -82 -24 -31 -31 -55 -45 -149 -22 -145 -31 -173 -72 -218 -41 -46 -112
-196 -148 -313 -18 -58 -36 -97 -56 -117 -19 -19 -31 -44 -35 -74 -12 -76 8
-132 91 -252 37 -55 44 -73 44 -114 0 -43 -4 -52 -36 -82 -45 -42 -69 -89 -83
-161 -5 -31 -17 -70 -26 -86 -20 -39 -19 -76 4 -142 29 -84 55 -130 101 -174
46 -44 110 -143 110 -170 0 -22 -56 -102 -81 -116 -32 -17 -81 -3 -126 36 -50
42 -124 187 -149 290 -9 39 -28 95 -41 125 -37 84 -34 121 20 220 50 92 97
239 97 301 0 22 -11 65 -24 97 -31 76 -50 182 -43 243 4 28 27 102 52 165 38
95 46 124 44 171 -2 50 0 58 25 78 25 20 27 26 21 71 -6 45 -3 57 39 138 51
99 53 113 29 159 -13 26 -17 71 -20 232 -6 281 -13 329 -71 443 -54 108 -113
182 -145 182 -12 0 -42 -16 -66 -35 -39 -31 -50 -35 -97 -33 -86 4 -116 -44
-78 -125 20 -42 5 -112 -27 -122 -11 -4 -28 -25 -39 -48 -11 -23 -55 -79 -99
-124 -70 -74 -82 -83 -115 -83 -31 0 -38 4 -47 28 -20 52 -6 124 39 199 46 76
50 105 26 177 -13 37 -15 67 -10 134 19 263 19 262 2 281 -15 16 -84 41 -115
41 -5 0 -32 -31 -59 -69z m-10 -897 c52 -35 68 -50 63 -63 -4 -9 -16 -41 -27
-71 -26 -71 -43 -90 -62 -70 -16 17 -46 105 -46 134 0 11 -5 34 -12 52 -10 30
-6 64 8 64 3 0 38 -21 76 -46z m-870 -771 c8 -10 34 -51 58 -91 42 -71 43 -76
50 -185 4 -72 13 -123 23 -143 9 -18 19 -50 23 -72 6 -37 4 -40 -23 -49 l-29
-11 -2 -93 c-1 -87 1 -98 30 -154 17 -33 48 -82 70 -109 59 -76 46 -129 -35
-143 -56 -9 -105 5 -145 41 -20 18 -44 35 -52 38 -9 3 -26 37 -39 74 -13 38
-33 76 -44 85 -18 15 -19 24 -13 126 6 87 4 122 -8 162 -12 40 -13 58 -4 79 6
15 18 100 28 189 13 116 24 173 38 200 11 21 23 46 26 56 3 9 12 17 19 17 8 0
21 -8 29 -17z m2272 -13 c70 -48 72 -75 16 -177 -43 -78 -69 -94 -119 -77 -38
14 -48 53 -29 116 9 29 24 79 33 111 20 68 34 72 99 27z m888 -392 c3 -26 -5
-83 -19 -143 -20 -81 -23 -114 -18 -176 5 -64 3 -78 -11 -89 -14 -13 -20 -10
-45 17 -39 45 -47 83 -39 198 10 139 53 235 105 235 19 0 24 -6 27 -42z
m-6195 -699 c12 -24 25 -74 29 -110 7 -74 -10 -125 -65 -189 -24 -28 -39 -68
-75 -203 -25 -93 -47 -172 -50 -175 -9 -9 -76 26 -83 43 -9 24 16 133 42 184
20 40 24 66 28 187 5 142 15 184 42 184 12 0 14 10 9 53 -7 56 1 71 41 79 36
8 60 -8 82 -53z m840 0 c39 -15 43 -24 43 -114 0 -46 9 -112 20 -155 26 -100
26 -106 -16 -213 -36 -91 -36 -93 -30 -198 5 -69 3 -116 -4 -135 -15 -39 -56
-81 -102 -105 -37 -19 -37 -19 -48 1 -26 49 -28 113 -8 225 14 75 22 187 28
355 12 337 25 374 117 339z m4960 -195 c38 -47 72 -98 77 -114 14 -46 -18
-174 -68 -275 -24 -49 -47 -98 -50 -107 -7 -25 -43 -23 -56 3 -26 48 -39 119
-38 204 2 75 -2 99 -22 143 -23 54 -23 54 -5 105 31 89 54 127 75 127 13 0 43
-30 87 -86z m-2523 -178 c50 -50 68 -75 80 -115 8 -29 26 -66 40 -82 28 -33
42 -101 32 -154 -8 -41 -65 -105 -94 -105 -25 0 -53 34 -76 94 -10 25 -22 46
-27 46 -5 0 -21 19 -36 43 -15 23 -39 56 -54 72 -22 25 -27 42 -32 105 -6 82
7 130 40 149 38 22 62 12 127 -53z m-1326 19 c12 -3 32 -25 43 -48 12 -23 34
-58 49 -77 37 -47 60 -94 60 -122 0 -13 9 -42 20 -66 20 -45 36 -149 44 -287
6 -96 27 -198 57 -280 20 -54 23 -79 24 -240 1 -200 4 -214 69 -272 21 -18 36
-41 37 -55 4 -85 -11 -146 -42 -174 -27 -24 -42 -7 -58 68 -11 49 -22 68 -80
132 -80 88 -106 138 -114 220 -8 77 -44 239 -67 296 -25 62 -45 256 -31 293
21 53 5 274 -25 360 -8 22 -14 58 -14 81 0 24 -11 62 -26 93 -24 47 -26 55
-14 83 11 27 15 29 29 17 9 -8 26 -18 39 -22z m2419 -292 c49 -54 51 -64 23
-100 -13 -17 -20 -41 -20 -69 0 -33 -5 -46 -21 -58 -27 -18 -76 -125 -85 -183
-3 -24 -1 -63 6 -90 11 -43 10 -62 -10 -156 -22 -102 -22 -108 -5 -133 14 -22
16 -40 11 -96 -4 -50 -2 -78 9 -104 18 -44 19 -98 3 -112 -7 -5 -43 -13 -79
-16 -71 -8 -131 11 -144 43 -4 9 -10 77 -15 151 -4 74 -13 151 -19 170 -17 53
-14 150 3 150 8 0 34 34 57 76 41 75 42 78 30 126 -16 70 -14 114 9 203 23 89
50 141 108 203 54 58 82 57 139 -5z m-3051 -182 c36 -22 83 -43 106 -46 37 -7
39 -9 34 -34 -16 -67 -18 -228 -4 -286 8 -35 14 -108 14 -176 -1 -110 -2 -118
-28 -155 -41 -57 -135 -131 -197 -155 -82 -30 -85 -27 -78 96 5 78 3 113 -7
137 -15 36 -42 141 -59 226 -10 52 -5 90 21 167 6 17 16 55 23 85 11 51 48
139 71 168 16 19 35 15 104 -27z m386 -900 c80 -11 88 -15 88 -46 0 -13 8 -68
19 -122 13 -68 16 -116 11 -157 -9 -81 -29 -96 -124 -96 -84 0 -121 -18 -150
-72 -18 -34 -18 -38 -3 -61 9 -14 41 -39 70 -56 70 -40 82 -54 68 -80 -14 -26
-126 -81 -166 -81 -55 0 -65 -16 -85 -135 -26 -153 -46 -226 -90 -330 -21 -49
-41 -110 -45 -134 -9 -53 -36 -82 -124 -131 -36 -20 -69 -46 -77 -62 -8 -15
-39 -55 -69 -89 -30 -34 -55 -66 -55 -72 0 -25 -34 -47 -75 -47 -31 0 -53 -8
-91 -35 -45 -32 -55 -35 -121 -35 -40 0 -73 4 -73 9 0 5 -21 39 -47 77 -76
112 -69 206 22 295 l44 42 4 136 c9 263 -6 217 167 512 20 34 55 75 84 97 49
38 66 63 109 163 20 46 40 68 120 135 76 63 113 86 183 113 104 41 162 92 188
167 10 27 24 64 32 83 17 38 5 37 186 12z m-4210 -228 c9 -10 21 -36 28 -58
10 -35 9 -46 -9 -89 -12 -26 -31 -62 -42 -78 -18 -24 -24 -27 -34 -16 -18 20
-48 156 -40 186 16 67 63 93 97 55z m5641 -104 c46 -24 67 -52 67 -88 0 -20 7
-45 15 -55 8 -11 15 -33 15 -48 0 -18 10 -38 25 -52 14 -13 25 -33 25 -46 0
-12 13 -46 29 -74 l29 -51 -19 -95 c-10 -52 -21 -141 -25 -196 l-7 -102 66
-70 c57 -61 66 -76 72 -118 3 -27 12 -75 20 -106 27 -104 14 -131 -52 -103
-76 32 -323 382 -339 481 -4 28 1 64 15 115 29 105 28 147 -8 196 -39 54 -83
142 -76 152 3 5 10 44 16 87 21 153 64 208 132 173z m-5726 -455 c32 -49 38
-66 41 -125 4 -62 2 -70 -21 -93 -32 -31 -56 -33 -91 -5 -43 33 -69 94 -61
141 4 22 13 42 21 45 8 3 14 16 14 30 0 35 18 63 40 63 13 0 33 -20 57 -56z
m6809 -2 c19 -12 61 -104 68 -148 10 -60 -11 -236 -39 -326 -22 -69 -26 -106
-33 -335 l-9 -257 -28 -24 c-58 -49 -172 -5 -215 82 -28 60 -21 92 36 155 76
85 167 315 165 416 -1 33 6 90 15 127 15 62 15 75 0 162 -19 113 -20 143 -3
149 18 8 31 8 43 -1z m1098 -118 c9 -3 21 -25 27 -48 6 -22 22 -55 35 -73 15
-20 24 -45 24 -68 0 -20 10 -53 22 -74 l22 -39 -39 -88 -40 -89 0 -160 c0
-146 -2 -164 -23 -202 -20 -39 -51 -61 -70 -49 -4 2 -32 -4 -62 -15 -30 -10
-62 -19 -72 -19 -9 0 -40 -20 -68 -45 -43 -38 -57 -45 -92 -45 -28 0 -49 -7
-63 -20 -26 -25 -44 -19 -67 20 -11 19 -25 30 -40 30 -13 1 -43 11 -68 23 -54
26 -61 53 -34 127 18 49 32 60 81 60 26 0 72 57 109 135 21 44 24 65 24 170 1
136 10 187 40 224 11 14 25 38 31 53 6 14 53 65 105 112 94 86 95 86 148 86
30 0 61 -3 70 -6z m-8732 -71 c23 -40 78 -218 78 -252 0 -16 7 -34 15 -41 26
-22 28 -72 4 -151 -24 -80 -42 -109 -70 -109 -22 0 -25 5 -62 104 -19 52 -29
97 -28 126 7 183 7 194 -16 227 -27 37 -27 40 -8 87 20 47 62 51 87 9z m5065
-612 c21 -16 54 -47 72 -70 18 -23 53 -55 77 -72 40 -27 44 -34 44 -72 0 -23
8 -93 17 -155 14 -96 15 -126 5 -196 -7 -45 -12 -94 -12 -110 0 -68 -59 -117
-116 -96 -16 6 -42 23 -57 38 -31 30 -117 171 -117 193 0 8 -6 23 -13 34 -7
11 -21 42 -31 68 -20 53 -62 87 -106 87 -14 0 -47 -8 -73 -17 -47 -17 -49 -17
-62 0 -15 21 -30 150 -20 167 4 6 44 35 88 64 45 29 113 78 150 110 39 31 79
56 91 56 13 0 41 -13 63 -29z m5435 -179 c5 -18 8 -61 6 -95 l-3 -62 -62 -7
c-34 -4 -71 -11 -82 -17 -67 -36 -165 40 -147 114 9 33 36 49 136 79 113 34
141 31 152 -12z m-10018 -222 c36 -13 56 -60 63 -149 4 -62 2 -91 -12 -133
-10 -29 -19 -76 -21 -103 -1 -28 -16 -84 -33 -125 -25 -64 -28 -77 -16 -90 32
-36 42 -282 14 -357 -15 -41 -52 -29 -108 34 -71 79 -82 118 -75 267 6 141 17
196 55 290 17 40 26 77 23 91 -3 12 2 51 11 86 9 35 19 90 21 122 2 32 6 62 9
67 8 13 37 13 69 0z m1485 -86 c5 -6 20 -19 33 -30 13 -10 40 -41 61 -68 41
-54 44 -78 27 -181 -12 -67 -33 -379 -30 -440 1 -22 2 -58 1 -80 -5 -156 -2
-216 13 -270 18 -66 21 -196 6 -225 -12 -23 -32 -18 -78 22 -39 34 -52 34
-149 6 -60 -17 -86 -31 -134 -75 -33 -29 -64 -53 -70 -53 -5 0 -20 11 -33 23
-21 21 -23 31 -19 73 7 64 18 84 47 84 32 0 140 56 180 94 39 36 61 101 51
149 -4 18 -22 58 -42 90 -54 90 -67 241 -25 305 12 18 16 59 18 180 1 114 6
169 18 201 9 24 16 63 16 87 0 48 32 143 52 156 8 5 19 0 30 -15 10 -12 22
-27 27 -33z m801 5 c0 -17 5 -40 11 -52 20 -36 56 -369 45 -412 -8 -31 -50
-40 -120 -25 -78 16 -82 24 -51 111 34 99 34 152 -2 177 -16 11 -45 25 -66 33
-73 26 -73 70 -1 109 26 13 65 39 88 57 23 18 53 32 69 32 24 1 27 -3 27 -30z
m1168 -40 c154 -49 142 -40 142 -108 0 -68 -7 -76 -73 -85 -37 -6 -59 -17
-100 -53 -71 -64 -84 -81 -60 -89 69 -21 83 -33 83 -69 0 -23 -6 -38 -15 -42
-9 -3 -22 -18 -30 -33 -13 -25 -19 -27 -94 -33 -91 -6 -161 10 -198 45 -45 42
-58 159 -23 216 12 20 20 50 20 79 0 42 4 51 45 90 25 24 53 43 61 43 9 0 34
16 55 35 48 43 64 43 187 4z"/>
</g>
</svg>
