<?xml version="1.0" encoding="UTF-8" standalone="no"?>
<!-- Created with Inkscape (http://www.inkscape.org/) -->

<svg
   xmlns:svg="http://www.w3.org/2000/svg"
   xmlns="http://www.w3.org/2000/svg"
   version="1.1"
   width="100%"
   height="100%"
   viewBox="0 0 38.2 72.6"
   id="Layer_1"
   xml:space="preserve"><defs
   id="defs31" />
<style
   type="text/css"
   id="style3" />
<g
   id="g5">
	<path
   d="m 18.1,2.4 c 0.7,0.1 1,0.4 1.1,0.6 0.2,0.3 0.2,0.5 0.5,1 0.2,0.3 0.2,0.2 0.5,0.6 0.2,0.2 0.5,0.6 0.6,1.2 0.2,0.3 0.2,0.4 0.3,0.6 0.2,0.4 0.4,0.6 0.5,0.6 0.8,0.7 1.1,2.1 1.1,2.3 0.1,0.7 0,0.9 0.2,1.4 0.2,0.3 0.3,0.5 0.5,0.8 0.5,0.6 0.7,1.1 1.1,2 0.2,0.6 0.5,1.2 0.7,2 0.1,0.7 0.5,2.6 0.3,3.5 0,0.1 -0.1,0.3 0,0.6 0.1,0.2 0.3,0.3 0.4,0.3 0.7,0.4 1.3,2.5 1.3,2.5 0.7,2.7 0.9,5.4 0.9,5.4 0.1,1.3 0.4,4 -0.1,4.7 0,0.1 -0.2,0.3 -0.1,0.6 0.1,0.2 0.4,0.4 0.4,0.4 0.7,0.3 1.7,1.6 2.7,3 0.3,0.4 1,1.4 1.7,2.8 0.7,1.4 1.7,3.8 2.5,8.5 0.6,3.7 0.9,5.5 0.7,7.4 -0.6,5.5 -3.9,9.1 -5.2,10.6 -1.1,1.3 -2.4,2.6 -4.5,3.5 -1.1,0.5 -3.3,1.4 -5.9,0.6 -0.4,-0.1 -3,-1 -4,-3.2 C 15.9,65.8 16,65.1 15.3,64.1 14.5,63 13.5,62.5 13.2,62.3 10.6,61 7.1,56.2 5.5,53.5 2.1,47.6 2.2,41.6 2.3,38.3 c 0,0 -0.2,-6.6 1.5,-9.6 0.6,-1 1,-2 1.6,-2.9 0.2,-0.3 0.6,-0.7 0.8,-1.4 0.3,-0.9 0.2,-1.6 0.1,-1.9 -0.2,-1.5 0.5,-3 1.1,-4.4 0.8,-1.9 2.3,-4 2.8,-4.6 0.1,-0.1 0.2,-0.3 0.4,-0.6 0.2,-0.5 0.3,-1 0.3,-1.1 C 11,10.6 11.9,9.4 12.3,9 12.8,8.3 13.1,8.3 13.4,7.7 13.7,7 13.5,6.9 13.8,6.4 14.3,5.4 15,5.6 15.7,4.5 16,4 15.9,3.9 16.2,3.5 16.9,2.8 17.6,2.6 18.1,2.4 z"
   id="path7"
   style="stroke:#000000;stroke-miterlimit:10" />
	<path
   d="m 12.5,56.9 c -0.1,-0.5 -0.5,-1.9 0,-3.4 0.1,-0.3 0.3,-0.9 2.5,-3.2 0.8,-0.8 1.7,-1.8 3.1,-3 1.8,-1.6 1.9,-1.5 2.7,-2.4 0.3,-0.3 0.6,-0.6 2.4,-3.4 2.7,-4 0.9,-1.5 2.4,-3.8 0.8,-1.3 1.2,-1.8 1.3,-2.6 0,-0.6 -0.1,-1.1 0.2,-1.4 0.4,-0.3 1.1,0.1 1.3,0.3 1,0.6 1.5,1.4 2.3,2.7 1.3,2.1 1.2,1.7 1.7,2.6 0.7,1.3 1.1,2.5 1.6,4.3 1,3.9 1.6,5.9 1.7,8.9 0,1.7 0.1,3.3 -0.5,5.4 -0.9,3.1 -2.5,5.1 -3.7,6.7 -1,1.3 -2,2.5 -3.8,3.6 -1,0.7 -2.3,1.5 -4.2,1.6 -0.6,0.1 -2.9,0.2 -4.7,-1.1 -1.1,-0.8 -1.6,-2 -2.8,-4.5 -1.1,-2.5 -0.9,-2.8 -1.9,-4.5 -0.8,-1.3 -1.2,-1.6 -1.6,-2.8 z"
   id="path9"
   style="stroke:#000000;stroke-width:0.5;stroke-miterlimit:10" />
	<path
   d="m 15,54.5 c 0.3,-0.9 0.8,-1.6 1.2,-2.2 0.7,-0.9 1.2,-1.3 2,-2.1 1.7,-1.6 3,-3.3 3.9,-4.4 1,-1.3 1.5,-2.1 1.7,-2 0.1,0.1 -0.2,1 -0.7,1.8 -0.5,0.9 -1,1.4 -1.9,2.4 -2.4,2.6 -2.5,2.7 -2.6,3.1 -0.2,0.5 -0.4,1.3 -0.7,2.9 0,0.2 -0.2,0.8 -0.3,1.4 -0.3,2 -0.7,4.1 -0.4,6.5 0.1,1 0.3,1.6 0.5,2.3 0.2,0.8 0.4,1.2 0.6,1.5 0.9,0.9 2.7,0.4 3.1,0.2 2.9,-0.8 4.6,-3.5 5.7,-5.1 0.7,-1.1 2.3,-3.6 2.9,-7.1 0.5,-2.4 0.3,-4.5 0.9,-4.6 0.4,-0.1 0.9,1.2 1.1,1.7 1.5,3.7 0.4,7.3 0.1,8.4 -0.3,1.1 -0.7,2.5 -1.9,4 0,0.1 -1,0.9 -2.8,2.7 -1,0.9 -1.5,1.4 -2.1,1.4 -0.5,0 -1.1,-0.1 -2.1,-0.3 -0.6,-0.1 -0.9,-0.2 -1.1,0 -0.5,0.3 -0.3,0.8 -0.7,1.1 -0.7,0.5 -1.9,0 -2,0 -1,-0.5 -1.4,-1.4 -1.7,-2 -1.2,-2.7 -1.4,-4.2 -2.3,-7.3 -0.3,-2.2 -0.7,-3.1 -0.4,-4.3 z"
   id="path11"
   style="stroke:#000000;stroke-miterlimit:10" />
	<path
   d="m 27.3,38.2 c 0.1,-0.1 0.3,-0.5 0.7,-0.7 0.3,-0.1 0.8,-0.1 1.1,0.1 0.5,0.3 0.4,0.8 0.9,1.9 0.2,0.5 0.2,0.4 0.6,1.3 0.1,0.2 0.8,1.8 1.2,2.9 0.4,1.1 0.6,2.6 0.9,5.5 0.2,1.3 0.2,2 0.3,2.4 0.1,1 0.3,4.9 -1.7,8.7 -0.8,1.5 -2.4,4.5 -5.8,5.7 -0.2,0.1 -4.7,1.6 -7,-0.8 -0.7,-0.7 -1,-1.6 -1.4,-3.3 -0.3,-1.3 -0.9,-3.5 -0.4,-6.3 0.1,-0.9 0.6,-3.5 2.5,-5.9 1,-1.2 1.1,-0.9 2.4,-2.5 1.6,-1.9 2.6,-3.7 3.2,-4.9 0.7,-1.4 1.8,-2.6 2.5,-4.1 z"
   id="path13"
   style="stroke:#000000;stroke-miterlimit:10" />
	<path
   d="m 6.8,25 c 0.3,0.3 1.3,-1.2 3.4,-2.1 0.3,-0.1 0.3,-0.1 3.3,-0.9 2.5,-0.7 2.3,-0.6 2.6,-0.7 2,-0.4 3.6,-0.5 4.7,-0.5 2.1,-0.1 3.1,-0.1 3.7,0 0.7,0.1 1.3,0.2 1.4,0 0.1,-0.3 -0.4,-1 -1.1,-1.1 -0.5,-0.1 -0.8,0.1 -1.2,0.2 -1.1,0.3 -1.4,-0.1 -3,-0.1 -1,0 -0.6,0.2 -3,0.5 -0.9,0.1 -1.3,0.1 -2.1,0.3 -0.6,0.1 -0.8,0.2 -1.6,0.4 -1.4,0.4 -1.4,0.3 -2.3,0.5 C 11,21.7 10.2,22 8.7,22.7 7.9,23 7.5,23.2 7.2,23.6 6.8,24.1 6.5,24.8 6.8,25 z"
   id="path15"
   style="stroke:#000000;stroke-miterlimit:10" />
	<path
   d="m 10.9,13.7 c 0.3,0.2 0.9,-0.7 2.3,-1.4 0.6,-0.3 1.3,-0.4 2.6,-0.6 0.4,-0.1 1.2,-0.1 3,-0.3 2.5,-0.2 2.8,-0.2 3.3,-0.1 0.4,0.1 0.9,0.4 1.1,0.2 0.1,-0.1 -0.1,-0.5 -0.4,-0.7 -0.5,-0.3 -1.1,-0.2 -1.6,-0.1 -1.4,0.2 -0.9,-0.1 -3.4,0.1 -1.1,0.1 -1.8,0.2 -2.8,0.4 -1.5,0.4 -1.2,0.5 -2.5,0.8 -0.6,0.1 -1.1,0.2 -1.4,0.6 -0.3,0.4 -0.4,1 -0.2,1.1 z"
   id="path17"
   style="stroke:#000000;stroke-miterlimit:10" />
	<path
   d="M 14.1,7.3 C 15.1,7.1 16,7 16.6,6.9 17.5,6.8 18,6.7 18.5,6.6 c 0.9,-0.1 2,0 2,0 0.1,0.1 0.3,0.1 0.4,0.2"
   id="path19"
   style="stroke:#000000;stroke-miterlimit:10" />
	<path
   d="m 9.1,25.5 c -0.2,2.1 0,3.9 0.2,5.1 0.2,1.1 0.5,2.1 0.7,2.8 0.5,1.5 0.9,2.6 1.2,3.4 0.7,1.8 1.4,3.2 1.8,3.9 0.2,0.4 1,1.8 2,3.4 0.6,1 1.2,1.8 1.7,2.5"
   id="path21"
   style="stroke:#000000;stroke-miterlimit:10" />
	<path
   d="m 5.5,28.3 c -0.1,2.4 0,4.4 0.1,5.9 0.1,1.3 0.2,2.4 0.5,3.8 0.4,2 1,3.5 1.6,4.8 0.4,1 0.9,2.1 1.6,3.4 1.3,2.2 2.2,3 2.8,3.4 0.5,0.4 1,0.6 1.3,0.8"
   id="path23"
   style="stroke:#000000;stroke-miterlimit:10" />
	<path
   d="m 23.2,57.7 c 0.9,-2.1 1.1,-4 1.2,-5.1 0.1,-1.5 0.1,-3 -0.9,-4.1 C 23,48 22.4,47.7 22,47.6"
   id="path25"
   style="stroke:#000000;stroke-miterlimit:10" />
	<path
   d="m 16.8,59 c 1,1.6 3.3,-0.7 4.5,-1.6 1.9,-1.4 2.7,-3.1 3.5,-4.6 0.9,-1.8 1.8,-3.5 1.5,-5.9 -0.1,-1 -0.5,-4 -1.6,-3.8 -0.7,0.1 -0.5,1.2 -2.2,3.3 -1.7,2.3 -2.7,2.7 -3.9,4.2 -1.9,2.4 -1.7,4.4 -1.9,5.1 -0.2,1.6 -0.5,2.3 0.1,3.3 z"
   id="path27"
   style="stroke:#000000;stroke-miterlimit:10" />
</g>
</svg>