<?xml version="1.0" standalone="no"?>
<!DOCTYPE svg PUBLIC "-//W3C//DTD SVG 20010904//EN"
 "http://www.w3.org/TR/2001/REC-SVG-20010904/DTD/svg10.dtd">
<svg version="1.0" xmlns="http://www.w3.org/2000/svg"
 width="925.000000pt" height="1536.000000pt" viewBox="0 0 925.000000 1536.000000"
 preserveAspectRatio="xMidYMid meet">
<metadata>
Created by potrace 1.16, written by Peter Selinger 2001-2019
</metadata>
<g transform="translate(0.000000,1536.000000) scale(0.100000,-0.100000)"
fill="#000000" stroke="none">
<path d="M5805 15272 c-125 -109 -299 -273 -1030 -972 -319 -306 -600 -574
-625 -597 l-45 -41 -233 -26 c-129 -14 -239 -29 -245 -33 -58 -35 -253 -200
-389 -329 -247 -235 -470 -472 -632 -676 -43 -54 -79 -98 -80 -98 -1 0 -25 22
-53 49 -89 86 -364 205 -581 252 -125 27 -479 38 -591 19 -174 -29 -468 -230
-752 -512 -181 -180 -284 -321 -391 -533 -125 -248 -150 -365 -152 -705 -1
-237 9 -311 65 -483 41 -127 142 -330 232 -464 41 -61 157 -224 258 -362 101
-138 203 -286 226 -329 24 -42 81 -180 128 -307 l85 -230 70 -685 c38 -377 92
-919 120 -1205 54 -564 86 -824 130 -1065 84 -455 164 -734 342 -1190 55 -140
156 -406 225 -590 142 -381 196 -506 278 -646 136 -232 683 -1005 873 -1234
77 -92 198 -214 259 -261 29 -23 169 -100 311 -173 349 -180 367 -191 402
-269 15 -34 64 -181 109 -327 170 -559 225 -675 403 -846 216 -207 517 -346
848 -390 259 -34 458 -6 617 87 76 44 235 204 297 297 151 228 253 509 292
806 27 200 7 526 -56 935 -27 182 -49 272 -122 500 -69 221 -70 193 6 356 55
115 144 260 316 510 164 239 240 358 500 780 108 176 318 514 467 750 476 758
520 840 728 1375 347 894 452 1193 475 1355 17 120 82 430 166 800 159 698
193 934 194 1333 0 248 -26 410 -102 632 -71 206 -162 357 -344 569 -164 190
-252 267 -404 350 -156 85 -244 140 -238 147 3 2 79 25 169 50 90 26 171 48
180 51 8 2 39 56 68 118 l53 114 -105 133 c-146 186 -241 284 -551 568 -375
343 -492 460 -573 570 -102 138 -304 432 -603 875 -613 907 -874 1285 -888
1285 -4 0 -52 -40 -107 -88z"/>
</g>
</svg>
