<?xml version="1.0" standalone="no"?>
<!DOCTYPE svg PUBLIC "-//W3C//DTD SVG 20010904//EN"
 "http://www.w3.org/TR/2001/REC-SVG-20010904/DTD/svg10.dtd">
<svg version="1.0" xmlns="http://www.w3.org/2000/svg"
 width="774.000000pt" height="1810.000000pt" viewBox="0 0 774.000000 1810.000000"
 preserveAspectRatio="xMidYMid meet">
<metadata>
Created by potrace 1.16, written by Peter Selinger 2001-2019
</metadata>
<g transform="translate(0.000000,1810.000000) scale(0.100000,-0.100000)"
fill="#000000" stroke="none">
<path d="M1195 18056 c-150 -38 -302 -132 -488 -299 -79 -71 -146 -156 -187
-236 -70 -139 -94 -398 -52 -556 42 -158 104 -332 157 -440 60 -122 177 -303
264 -408 163 -198 184 -237 201 -376 8 -58 7 -78 -2 -86 -7 -6 -67 -24 -133
-40 -243 -57 -366 -121 -545 -280 -134 -120 -294 -357 -346 -513 -23 -66 -25
-88 -22 -181 5 -149 54 -302 136 -424 84 -125 218 -282 314 -368 143 -130 381
-298 528 -375 l55 -29 0 -420 c0 -231 -2 -656 -3 -945 -4 -602 11 -845 78
-1245 89 -543 114 -663 225 -1100 37 -143 79 -312 95 -375 30 -121 125 -409
179 -545 158 -395 282 -611 454 -791 l88 -92 -22 -79 c-11 -43 -30 -100 -41
-128 -48 -122 -50 -211 -5 -308 28 -61 95 -141 139 -163 15 -8 28 -22 28 -32
0 -35 83 -262 152 -416 80 -181 87 -216 88 -426 0 -251 -37 -585 -111 -985
-16 -88 -41 -259 -54 -381 -14 -121 -29 -244 -35 -272 -12 -63 -24 -173 -90
-777 -27 -253 -61 -559 -75 -680 -14 -121 -39 -344 -55 -495 -85 -768 -111
-998 -120 -1025 -13 -45 -29 -191 -40 -380 -6 -93 -22 -238 -35 -321 -14 -84
-32 -210 -40 -281 -44 -364 -73 -491 -146 -635 -33 -65 -36 -90 -14 -108 24
-20 84 2 138 50 80 71 207 295 327 580 29 69 55 127 56 129 11 12 16 -23 29
-196 8 -104 19 -202 25 -219 25 -64 66 -82 95 -41 28 40 96 267 106 356 5 47
14 120 20 161 5 41 14 165 19 275 13 281 19 352 40 500 11 72 24 183 30 245 6
63 13 123 16 133 7 23 20 14 28 -20 7 -29 69 -226 162 -513 29 -91 60 -192 68
-225 24 -96 65 -345 71 -436 8 -109 12 -126 30 -133 46 -17 69 27 88 169 28
198 31 266 28 620 -4 564 25 798 154 1210 24 77 60 193 80 258 19 64 40 117
45 117 11 0 16 -31 30 -180 9 -109 17 -184 55 -530 45 -416 74 -757 80 -945 8
-245 18 -342 37 -362 24 -24 45 -5 51 45 4 26 13 94 21 152 30 216 36 292 41
565 16 846 47 1512 81 1715 9 51 18 18 33 -110 29 -263 42 -562 61 -1365 11
-467 22 -636 58 -877 18 -123 30 -150 56 -129 25 21 34 103 45 391 9 243 22
393 76 890 7 69 27 264 45 435 17 170 33 311 35 313 11 11 55 -122 169 -508
88 -299 116 -541 117 -998 0 -166 -3 -306 -6 -311 -11 -19 35 -463 54 -512 13
-35 45 -61 65 -53 26 10 36 47 36 128 0 40 13 151 30 247 30 173 40 209 165
599 36 113 77 247 92 298 19 66 29 87 34 74 4 -10 14 -90 23 -178 9 -87 23
-199 31 -249 16 -108 23 -187 35 -450 9 -186 13 -236 41 -450 19 -150 86 -357
120 -376 30 -16 59 -1 76 39 12 29 40 314 43 432 0 27 19 -5 60 -105 61 -148
204 -430 258 -510 71 -106 179 -177 217 -145 22 18 18 56 -10 105 -67 113
-102 263 -145 610 -12 94 -29 224 -40 290 -19 123 -32 253 -50 500 -5 78 -16
165 -24 195 -8 30 -23 141 -35 245 -12 105 -75 676 -141 1270 -65 594 -126
1150 -135 1235 -8 85 -20 178 -25 205 -13 65 -36 241 -50 380 -6 61 -26 198
-45 305 -68 384 -104 672 -111 885 -9 290 0 355 74 513 65 139 146 354 157
417 5 34 15 46 60 77 60 43 117 125 135 200 19 72 9 173 -23 239 -15 31 -27
64 -27 75 0 10 -9 48 -19 83 l-20 63 66 67 c223 226 394 554 579 1109 30 89
72 233 93 320 21 86 61 245 89 352 67 259 135 569 166 760 70 432 88 564 118
855 14 140 17 946 4 1612 l-7 432 51 28 c178 96 433 278 564 403 119 114 286
323 339 426 24 47 74 210 87 283 23 129 -9 256 -103 413 -129 216 -212 311
-372 430 -128 96 -225 140 -420 188 -171 43 -163 38 -158 102 6 71 47 205 75
245 13 17 57 72 100 121 95 113 232 318 292 439 48 95 134 337 164 458 20 85
22 260 3 360 -26 134 -87 257 -174 352 -116 127 -345 291 -479 344 -70 27 -96
32 -168 32 -74 0 -102 -5 -209 -42 -347 -117 -898 -427 -1145 -644 l-55 -48
-138 94 c-213 146 -348 207 -583 263 -301 72 -578 56 -904 -51 -165 -54 -256
-104 -503 -278 l-42 -30 -57 52 c-166 152 -495 353 -859 524 -193 91 -293 129
-402 152 -81 17 -112 17 -178 1z"/>
</g>
</svg>
