<?xml version="1.0" standalone="no"?>
<!DOCTYPE svg PUBLIC "-//W3C//DTD SVG 20010904//EN"
 "http://www.w3.org/TR/2001/REC-SVG-20010904/DTD/svg10.dtd">
<svg version="1.0" xmlns="http://www.w3.org/2000/svg"
 width="1058.000000pt" height="1536.000000pt" viewBox="0 0 1058.000000 1536.000000"
 preserveAspectRatio="xMidYMid meet">
<metadata>
Created by potrace 1.16, written by Peter Selinger 2001-2019
</metadata>
<g transform="translate(0.000000,1536.000000) scale(0.100000,-0.100000)"
fill="#000000" stroke="none">
<path d="M7063 15117 c-1117 -1491 -1940 -3031 -2443 -4572 -57 -176 -199
-659 -215 -732 -5 -27 -12 -33 -43 -39 -50 -10 -276 -10 -447 0 -113 7 -161 5
-247 -8 -230 -36 -359 -89 -517 -213 -148 -116 -189 -131 -566 -214 -104 -22
-232 -54 -283 -71 -52 -16 -95 -28 -96 -26 -7 7 -136 713 -136 741 0 4 -9 7
-20 7 -11 0 -20 -6 -20 -14 0 -21 76 -444 110 -610 l30 -149 -23 -15 c-12 -8
-63 -56 -113 -106 -68 -68 -100 -109 -127 -165 -34 -67 -37 -81 -37 -160 -1
-144 -4 -152 -129 -271 -118 -113 -150 -157 -205 -291 -50 -121 -80 -245 -116
-475 -44 -288 -65 -350 -159 -468 -117 -148 -177 -339 -146 -471 22 -97 19
-137 -15 -205 -65 -129 -81 -278 -56 -516 27 -256 67 -371 235 -679 97 -177
122 -234 135 -306 6 -32 -1 -47 -75 -160 -357 -541 -736 -1264 -1216 -2313
-63 -137 -116 -253 -119 -257 -2 -4 4 -12 14 -18 17 -9 35 25 192 367 203 444
545 1137 695 1412 158 288 301 529 454 765 l64 100 18 -97 c19 -107 43 -160
144 -321 87 -139 101 -175 114 -287 20 -173 64 -278 162 -387 79 -87 89 -108
105 -227 31 -221 145 -374 384 -512 90 -52 116 -78 167 -166 27 -48 83 -113
193 -224 177 -178 200 -196 330 -253 52 -22 107 -51 122 -64 l26 -22 -160
-235 c-597 -874 -1035 -1468 -1521 -2063 -69 -84 -78 -99 -66 -113 12 -15 15
-14 34 9 489 593 1017 1306 1580 2135 l158 233 41 -44 c70 -75 197 -149 312
-183 45 -13 86 -16 174 -13 238 7 278 4 385 -31 77 -24 125 -33 207 -37 169
-9 279 18 493 123 203 99 360 144 506 144 32 0 109 7 171 15 62 8 175 19 251
23 124 8 143 12 200 40 34 17 108 71 165 122 119 104 130 110 237 139 125 34
207 85 378 234 l55 48 139 -84 c492 -297 1096 -605 1743 -891 109 -48 126 -53
131 -38 4 9 4 20 0 23 -3 4 -55 28 -116 54 -345 148 -928 432 -1270 620 -190
104 -563 321 -580 337 -7 6 -1 17 17 32 20 18 44 25 105 31 97 8 136 30 222
121 267 285 302 315 596 506 92 60 167 119 221 172 91 91 212 266 244 355 11
31 28 76 37 101 12 32 49 78 133 165 65 66 127 139 138 162 58 112 109 382 98
514 -9 113 -27 166 -90 278 -56 98 -58 103 -53 159 3 31 11 83 18 114 18 78 4
155 -51 283 -42 97 -44 105 -51 240 -11 213 -57 321 -208 488 -76 84 -82 95
-92 183 -8 71 -37 156 -100 292 -72 156 -97 196 -206 340 -108 141 -118 169
-138 372 -20 204 -64 329 -155 440 l-37 45 207 290 c538 754 1103 1601 1833
2750 1071 1685 1055 1659 1041 1675 -9 9 -17 11 -23 5 -5 -6 -181 -282 -391
-615 -1395 -2204 -1937 -3026 -2612 -3957 l-88 -122 -56 34 c-66 40 -125 60
-209 74 -115 18 -175 58 -225 152 -79 149 -160 200 -366 229 -136 20 -193 37
-227 67 -10 10 -38 58 -62 108 -35 74 -56 103 -113 157 -101 95 -393 282 -482
309 -19 6 -94 14 -166 18 -145 7 -121 -2 -283 108 -99 67 -278 98 -618 110
-112 3 -203 7 -203 8 0 1 22 83 49 181 373 1355 988 2697 1849 4039 259 404
595 881 865 1229 60 77 74 102 66 113 -6 7 -14 13 -18 13 -3 0 -88 -110 -188
-243z"/>
</g>
</svg>
