<?xml version="1.0" standalone="no"?>
<!DOCTYPE svg PUBLIC "-//W3C//DTD SVG 20010904//EN"
 "http://www.w3.org/TR/2001/REC-SVG-20010904/DTD/svg10.dtd">
<svg version="1.0" xmlns="http://www.w3.org/2000/svg"
 width="1536.000000pt" height="1468.000000pt" viewBox="0 0 1536.000000 1468.000000"
 preserveAspectRatio="xMidYMid meet">
<metadata>
Created by potrace 1.16, written by Peter Selinger 2001-2019
</metadata>
<g transform="translate(0.000000,1468.000000) scale(0.100000,-0.100000)"
fill="#000000" stroke="none">
<path d="M6461 14669 c-212 -24 -422 -84 -606 -174 -175 -86 -240 -136 -323
-253 -78 -109 -107 -132 -217 -173 -172 -65 -556 -224 -639 -266 -204 -102
-313 -193 -429 -358 -44 -63 -119 -149 -202 -230 -127 -124 -135 -135 -183
-235 -27 -58 -55 -121 -61 -141 -8 -26 -30 -49 -79 -86 -156 -119 -304 -195
-722 -373 -477 -204 -514 -226 -1020 -610 -347 -264 -426 -319 -621 -426 -226
-125 -358 -213 -445 -299 -84 -82 -117 -142 -138 -251 -35 -176 -41 -188 -135
-273 -170 -151 -193 -184 -232 -326 -16 -58 -35 -97 -83 -165 -163 -229 -244
-464 -251 -725 -2 -60 -12 -155 -23 -210 -37 -178 -46 -276 -46 -505 -1 -312
21 -862 39 -1000 49 -361 139 -657 300 -985 208 -423 450 -749 852 -1146 518
-513 1093 -933 2258 -1649 66 -40 172 -111 235 -156 188 -135 329 -213 845
-469 270 -134 533 -269 585 -300 57 -34 185 -93 320 -147 266 -106 508 -223
640 -308 74 -48 128 -97 240 -214 587 -612 852 -861 1190 -1117 271 -206 612
-407 870 -514 36 -14 126 -57 200 -95 911 -461 1970 -601 3025 -399 1279 245
2385 961 3037 1969 119 183 243 413 311 575 14 33 41 84 60 112 62 93 121 276
161 508 18 101 37 173 71 259 62 158 74 223 74 391 0 86 7 204 20 304 27 212
27 287 -1 387 -33 115 -33 361 0 521 22 108 22 115 6 183 -10 47 -45 128 -105
245 -95 186 -115 245 -164 493 -48 241 -63 268 -256 468 -157 162 -176 196
-189 338 -10 104 -35 197 -72 271 -59 115 -187 264 -325 377 -56 46 -93 89
-162 191 -103 150 -187 247 -271 312 -52 40 -65 58 -126 177 -78 151 -108 185
-233 260 -56 34 -133 97 -221 179 -294 277 -586 508 -910 722 -120 79 -210
148 -285 218 -193 180 -225 198 -376 223 -164 28 -217 45 -260 86 -35 33 -38
40 -30 63 5 14 11 164 12 334 l2 308 -33 125 c-22 87 -35 166 -41 260 -21 299
-7 253 -202 650 -207 421 -276 532 -421 675 -87 87 -116 109 -206 154 -130 67
-271 162 -487 329 -93 71 -197 149 -233 174 -211 147 -400 223 -603 243 -38 4
-70 12 -72 18 -78 269 -135 380 -279 549 -172 201 -463 386 -866 548 -85 34
-173 75 -195 90 -178 122 -470 231 -735 275 -115 19 -423 27 -539 14z m4529
-6193 c291 -49 410 -75 623 -137 348 -100 734 -269 1047 -457 368 -221 929
-666 1147 -911 460 -516 757 -1224 860 -2051 25 -207 25 -727 0 -925 -60 -458
-160 -802 -337 -1154 -191 -382 -484 -768 -866 -1141 -283 -276 -441 -398
-656 -506 -176 -88 -729 -321 -850 -358 -521 -157 -1089 -173 -1978 -55 -434
57 -632 125 -1343 457 -309 145 -446 220 -652 357 -277 183 -487 372 -740 665
-310 359 -389 487 -489 795 -64 198 -106 388 -137 630 -18 135 -15 495 5 650
82 638 360 1297 785 1859 236 313 576 655 901 907 257 199 489 345 836 527
398 208 715 416 949 622 228 200 305 256 375 271 72 16 255 0 520 -45z"/>
<path d="M10780 7415 c-388 -53 -787 -230 -1225 -543 -423 -302 -786 -629
-1008 -907 -422 -526 -649 -1143 -624 -1685 7 -146 68 -587 97 -700 31 -121
136 -404 195 -525 108 -221 338 -560 496 -730 207 -223 373 -342 628 -452 285
-123 642 -223 956 -267 579 -81 1166 -61 1594 54 36 9 41 14 41 40 0 16 -12
59 -27 95 -25 60 -26 69 -13 98 7 18 15 60 18 95 4 70 17 81 28 25 5 -27 1
-54 -13 -94 -19 -51 -19 -59 -6 -95 8 -21 22 -61 30 -89 9 -27 17 -51 18 -53
7 -8 260 89 370 142 173 83 294 159 445 280 141 112 493 459 488 480 -2 8 -25
29 -53 48 -44 29 -53 41 -73 98 -12 36 -34 75 -48 88 -31 27 -23 48 10 27 13
-9 31 -34 41 -58 9 -23 24 -59 32 -79 11 -25 31 -46 65 -67 27 -17 51 -31 54
-31 2 0 37 45 78 99 247 332 377 644 450 1082 40 238 49 383 43 692 -6 282
-16 395 -57 625 -124 694 -449 1307 -885 1671 -393 328 -1009 574 -1600 641
-123 14 -429 11 -545 -5z m1380 -693 c0 -5 -19 -17 -42 -28 -123 -54 -212
-124 -249 -196 -11 -21 -26 -68 -35 -104 -30 -130 -67 -172 -191 -215 -35 -13
-82 -38 -103 -56 -21 -18 -41 -29 -44 -25 -11 19 62 72 140 102 106 40 138 72
165 164 33 114 48 152 79 195 53 73 280 205 280 163z m217 -383 c-23 -19 -51
-62 -82 -126 -53 -113 -82 -146 -182 -214 -40 -27 -84 -61 -97 -76 -14 -15
-28 -24 -32 -20 -14 14 27 56 113 114 113 78 122 89 177 204 32 67 59 108 88
135 27 24 43 33 46 25 2 -7 -12 -26 -31 -42z m377 -428 c3 -5 -8 -14 -24 -21
-16 -7 -62 -41 -102 -77 -94 -83 -111 -91 -210 -103 -217 -27 -234 -30 -303
-64 -108 -54 -227 -155 -306 -261 -107 -145 -136 -166 -307 -221 -171 -56
-217 -102 -316 -322 -35 -77 -74 -155 -87 -174 -27 -38 -129 -151 -141 -156
-22 -10 -2 24 48 80 75 83 94 115 164 269 100 221 149 268 347 333 61 21 130
50 152 67 23 16 72 71 110 122 96 129 199 221 310 276 82 41 113 49 256 65 72
8 142 19 156 25 15 5 61 39 103 76 94 82 137 107 150 86z m444 -218 c3 -10
-15 -13 -65 -13 -116 0 -199 -24 -275 -77 -202 -142 -256 -174 -331 -198 -43
-14 -89 -25 -103 -25 -14 0 -35 -5 -46 -11 -49 -26 -219 -162 -257 -205 -23
-26 -44 -44 -48 -41 -9 10 42 78 84 112 104 82 208 156 227 160 12 2 47 9 79
15 81 16 195 76 323 170 119 87 168 108 277 120 93 10 129 8 135 -7z m-1910
-124 c-2 -6 -28 -19 -58 -29 -130 -40 -184 -96 -254 -261 -66 -157 -80 -179
-196 -304 -56 -60 -119 -137 -141 -170 -43 -65 -91 -202 -110 -311 -11 -66
-22 -94 -34 -82 -7 7 30 184 55 260 37 111 78 171 228 334 100 109 108 121
171 268 79 185 123 233 253 282 71 26 91 29 86 13z m1995 -247 c62 -33 129
-64 150 -71 43 -15 51 -36 10 -27 -16 4 -86 36 -156 71 -101 51 -138 65 -173
65 -47 0 -91 -17 -113 -44 -7 -9 -17 -13 -23 -10 -12 8 9 32 47 56 20 12 49
18 88 18 51 0 71 -7 170 -58z m-437 -261 c17 -10 57 -48 89 -84 40 -45 67 -68
89 -73 17 -3 45 -13 63 -21 29 -13 37 -13 78 2 29 12 58 16 82 12 62 -10 203
-51 203 -59 0 -13 -43 -8 -108 12 -73 23 -123 25 -186 8 -37 -10 -51 -9 -83 4
-21 9 -49 19 -64 22 -15 3 -53 36 -92 80 -77 86 -108 100 -203 94 -51 -3 -69
-9 -91 -29 -40 -37 -130 -85 -193 -103 -30 -9 -132 -22 -226 -30 -94 -9 -179
-18 -190 -22 -38 -14 -76 -47 -128 -113 -29 -36 -79 -87 -111 -111 -62 -48
-443 -242 -450 -230 -8 13 13 24 195 114 191 93 285 157 343 234 92 122 119
134 357 152 74 6 155 16 180 22 59 14 176 73 218 109 30 27 39 29 115 29 63 0
89 -5 113 -19z m-2646 -403 c1 -61 18 -107 57 -157 37 -47 41 -56 51 -148 6
-53 9 -99 6 -102 -11 -12 -23 27 -30 99 -7 78 -20 116 -50 141 -29 24 -54 91
-54 147 0 28 5 52 10 52 6 0 10 -15 10 -32z m2854 -38 c33 -12 35 -35 4 -25
-70 21 -116 17 -279 -25 -249 -63 -386 -108 -468 -152 -72 -40 -74 -40 -145
-33 -39 4 -95 8 -123 8 -29 0 -53 4 -53 9 0 13 49 21 96 14 144 -20 129 -22
212 22 87 45 202 83 442 146 167 44 264 55 314 36z m468 -155 c1 -5 -23 -13
-52 -18 -67 -9 -137 -47 -275 -148 -60 -44 -111 -75 -113 -69 -2 6 -2 12 -1
14 2 1 50 37 107 79 114 85 202 134 266 147 49 10 67 8 68 -5z m-1682 -154 c0
-5 -9 -13 -20 -16 -12 -4 -32 -24 -45 -46 -14 -21 -37 -45 -53 -53 -31 -16
-126 -32 -308 -50 -130 -14 -190 -37 -215 -82 -7 -13 -18 -24 -26 -24 -24 0
14 58 57 86 29 20 60 28 122 35 181 20 324 41 350 51 15 6 37 26 49 44 30 49
89 85 89 55z m531 -102 c19 -6 100 -42 180 -80 94 -44 183 -78 247 -94 55 -14
183 -53 284 -88 101 -35 215 -70 253 -76 77 -14 137 -43 160 -77 21 -33 2 -38
-26 -8 -34 36 -48 42 -148 64 -48 10 -165 46 -258 79 -93 33 -212 69 -264 81
-64 15 -143 45 -249 95 -85 40 -174 78 -197 85 -24 6 -43 15 -43 20 0 13 19
13 61 -1z m-1942 -160 c100 -50 151 -134 151 -249 0 -56 -5 -77 -32 -130 -48
-91 -124 -165 -192 -185 -124 -36 -249 22 -337 158 -92 143 -65 268 81 370
108 75 225 88 329 36z m1558 -64 c31 -8 72 -15 89 -15 47 0 217 -89 309 -163
132 -104 341 -304 378 -360 19 -28 60 -103 91 -165 60 -120 102 -169 203 -239
51 -35 65 -53 42 -53 -17 0 -167 118 -193 153 -13 17 -47 79 -76 137 -29 58
-70 130 -91 160 -43 62 -269 274 -387 363 -95 72 -245 147 -293 147 -44 0
-139 28 -139 40 0 13 -1 13 67 -5z m-93 -195 c17 -25 77 -90 134 -145 58 -55
135 -140 172 -190 37 -49 130 -156 207 -236 146 -154 221 -247 293 -364 56
-91 117 -222 122 -260 4 -43 -16 -43 -24 0 -19 90 -130 285 -246 430 -31 39
-113 129 -182 200 -70 72 -158 173 -197 225 -38 52 -108 129 -154 171 -46 42
-102 101 -124 132 -22 31 -50 59 -62 63 -32 9 -29 26 4 22 20 -2 36 -16 57
-48z m-831 -134 c18 -7 69 -41 115 -75 45 -35 117 -80 160 -101 99 -50 124
-67 195 -137 132 -130 202 -296 216 -511 12 -190 21 -206 230 -413 144 -142
174 -178 205 -239 20 -40 36 -79 36 -86 0 -31 -17 -10 -45 54 -25 60 -47 85
-201 238 -217 217 -233 245 -246 427 -11 156 -27 219 -85 337 -38 77 -61 109
-128 176 -67 68 -98 90 -178 129 -53 26 -127 71 -164 100 -64 51 -106 77 -145
89 -19 6 -25 26 -8 26 6 0 25 -6 43 -14z m2108 -95 c31 -3 64 -13 73 -20 10
-8 36 -46 59 -85 49 -83 118 -156 147 -156 12 0 20 -7 20 -16 0 -11 -5 -14
-16 -10 -9 3 -20 6 -25 6 -22 0 -93 79 -144 160 -56 88 -70 100 -127 100 -42
0 -128 22 -128 33 0 6 17 7 43 2 23 -4 67 -10 98 -14z m-1439 -91 c83 -26 116
-57 183 -176 27 -48 84 -128 128 -178 122 -141 163 -199 192 -278 68 -179 138
-290 245 -386 67 -60 110 -122 110 -157 0 -28 -15 -15 -38 35 -15 32 -46 70
-89 107 -101 89 -184 218 -248 389 -29 76 -82 153 -189 274 -41 47 -97 123
-123 170 -63 112 -104 157 -157 170 -58 15 -106 38 -106 51 0 6 6 8 13 5 6 -2
42 -14 79 -26z m-931 -128 c24 -16 69 -50 99 -77 30 -26 93 -65 139 -87 74
-34 97 -53 183 -141 55 -56 106 -114 114 -129 17 -32 18 -98 4 -165 -6 -27
-12 -123 -13 -213 -3 -160 -4 -169 -41 -285 -51 -161 -54 -195 -22 -288 30
-86 33 -127 11 -127 -11 0 -15 11 -15 36 0 20 -12 72 -27 116 l-27 79 24 77
c13 42 34 113 48 157 23 71 26 99 28 255 1 96 7 191 13 210 14 45 14 109 -2
136 -7 12 -55 67 -107 122 -85 88 -106 104 -183 140 -54 25 -111 62 -149 96
-34 30 -79 63 -100 73 -21 10 -38 24 -38 31 0 18 11 15 61 -16z m-597 -364 c4
-24 38 -106 76 -183 83 -167 99 -232 100 -405 0 -69 7 -159 14 -200 43 -231
49 -270 43 -277 -4 -3 -9 -4 -11 -2 -2 2 -18 80 -35 173 -23 124 -31 199 -31
285 -1 183 -17 250 -100 415 -47 93 -74 159 -77 189 -7 59 12 63 21 5z m727
-232 c-28 -30 -51 -61 -51 -69 0 -8 16 -37 35 -63 53 -75 76 -123 73 -152 -4
-33 -22 -26 -24 9 -2 29 -20 64 -69 133 -19 26 -35 59 -35 73 0 27 84 123 108
123 9 0 -6 -22 -37 -54z m-164 -404 c25 -52 63 -114 85 -139 22 -25 45 -55 53
-67 13 -20 55 -231 55 -276 0 -32 -19 -23 -24 13 -19 124 -39 225 -48 241 -6
11 -29 42 -52 70 -23 28 -63 94 -90 146 -27 52 -59 109 -72 126 -13 17 -20 35
-16 39 12 12 62 -57 109 -153z m927 -149 c-3 -21 -22 -74 -41 -118 -58 -131
-60 -143 -39 -240 16 -80 15 -125 -3 -125 -8 0 -13 31 -27 186 -6 57 -3 69 40
167 25 58 46 120 46 136 0 21 5 31 15 31 13 0 15 -8 9 -37z"/>
</g>
</svg>
