<?xml version="1.0" encoding="UTF-8" standalone="no"?>
<!-- Created with Inkscape (http://www.inkscape.org/) -->

<svg
   xmlns:svg="http://www.w3.org/2000/svg"
   xmlns="http://www.w3.org/2000/svg"
   version="1.1"
   width="1127"
   height="1115"
   id="svg2985">
  <defs
     id="defs2989" />
  <path
     d="m 601.1875,1.96875 c -1.73643,0.1280497 -3.91201,0.9231906 -6.65625,2.3125 -8.12586,4.11384 -26.006,20.9699 -35.34375,33.3125 -3.29543,4.35587 -7.80449,9.70625 -10.03125,11.90625 -12.57938,12.4282 -32.67983,45.113592 -31,50.40625 0.43785,1.37957 -0.13893,2.45121 -1.96875,3.75 -15.57432,11.05458 -16.76477,12.89447 -29.5625,45.125 -9.05536,22.80555 -11.22173,27.31281 -16.25,34 -7.20069,9.57634 -10.30227,15.86029 -11.9375,24.21875 -1.10147,5.63014 -1.65147,6.7063 -4.25,8.03125 -6.00757,3.06316 -8.4038,5.21536 -14.03125,12.5625 -4.96343,6.4802 -6.94766,10.53041 -14.625,30.1875 -4.87911,12.4925 -10.02156,27.32423 -11.4375,32.96875 -1.41594,5.64453 -3.66863,13.04023 -5,16.4375 -1.54318,3.93771 -2.40625,8.22224 -2.40625,11.8125 0,5.55643 -0.0998,5.74176 -6.5,12.53125 -7.59342,8.05525 -9.17703,11.98094 -10.03125,24.96875 -0.88744,13.49281 -2.0484,16.99167 -6.875,20.78125 C 381.02161,379.05539 375.27629,383.875 370.5,388 c -4.77628,4.125 -10.17365,8.57899 -12,9.90625 -3.69393,2.68447 -11.12738,12.06621 -14.59375,18.4375 C 341.27968,421.17146 339.1634,423 336.125,423 c -3.08421,0 -15.02001,4.11834 -20.9375,7.21875 -2.75,1.44083 -7.91395,5.31452 -11.46875,8.625 -4.33192,4.03417 -7.79445,6.37246 -10.5,7.0625 -2.2202,0.56625 -7.63125,3.14098 -12.03125,5.71875 -19.38125,11.35461 -33.11416,19.96659 -36.34375,22.8125 -3.65705,3.2226 -14.84158,11.99583 -26.6875,20.9375 -10.37254,7.82952 -17.13804,14.76633 -17.9375,18.40625 -0.87533,3.98537 -5.28101,7.7729 -10.15625,8.6875 -2.07175,0.38867 -8.42058,3.70758 -14.09375,7.375 -13.34563,8.6273 -39.37349,28.04541 -45.78125,34.15625 -2.75,2.62258 -7.16577,6.39218 -9.8125,8.375 -7.43705,5.57153 -17.38645,16.91889 -18.21875,20.78125 -1.87223,8.68823 -7.58539,15.24967 -15.21875,17.46875 -9.4755,2.7546 -20.10543,11.34299 -45.21875,36.625 -6.9657,7.0125 -13.1184,12.75 -13.6875,12.75 -1.20432,0 -10.58639,11.92775 -18.59375,23.65625 -6.14231,8.99672 -7.64983,14.18191 -5.78125,19.84375 2.3826404,7.21949 8.27308,7.35503 22.3125,0.5625 12.58505,-6.08887 24.08279,-15.17454 34.25,-27.0625 4.1865,-4.89504 9.52399,-10.44853 11.875,-12.375 2.351,-1.92647 9.30856,-10.3947 15.46875,-18.8125 24.32282,-33.23671 25.28102,-34.14103 41.21875,-38.40625 10.60574,-2.83829 8.86326,-1.89448 20.90625,-10.90625 5.225,-3.90987 11.3,-8.20643 13.5,-9.53125 7.10372,-4.27776 15.84306,-11.27156 22.5,-18.03125 3.575,-3.63018 8.38401,-7.87091 10.71875,-9.40625 2.49556,-1.6411 6.10783,-5.61444 8.75,-9.625 5.21689,-7.91874 9.73239,-10.97624 20.53125,-13.96875 4.66922,-1.29391 9.41597,-3.53731 13.375,-6.34375 3.36941,-2.38849 8.4929,-5.53692 11.40625,-7 2.91334,-1.46308 5.53513,-3.27716 5.8125,-4 0.27738,-0.72283 3.25611,-3.4952 6.625,-6.1875 3.3689,-2.69231 8.84711,-7.40231 12.1875,-10.46875 5.8483,-5.36869 15.18742,-12.70841 25.28125,-19.84375 2.6419,-1.86756 6.42024,-5.17039 8.40625,-7.34375 3.93185,-4.30276 4.51535,-4.42269 15.21875,-3.21875 9.68213,1.08906 11.7116,4.56544 6.5625,11.28125 -3.50254,4.56826 -3.46354,11.2914 0.28125,37.6875 2.22685,15.69651 1.07729,16.8116 -7.90625,7.6875 -9.72709,-9.87929 -20.1388,-14.09136 -36.8125,-14.90625 -9.07842,-0.44368 -11.61803,-0.23605 -14.25,1.125 -1.76199,0.91115 -3.1875,2.43862 -3.1875,3.40625 0,2.46828 9.95346,13.43551 19.46875,21.4375 7.26024,6.10558 25.20794,19.74203 49.90625,37.96875 9.57744,7.0679 32.08879,18.78125 36.125,18.78125 1.29849,0 2.68878,0.48906 3.0625,1.09375 1.28492,2.07904 12.69771,6.79456 18.09375,7.46875 4.0484,0.50581 6.59619,0.24164 10.125,-1.09375 7.30953,-2.76611 19.76008,-13.19685 25.34375,-21.21875 2.47565,-3.5567 3.49487,-4.25 6.28125,-4.25 6.84314,0 7.1087,4.609 1.0625,18 -3.58756,7.94565 -3.63073,8.27799 -4.15625,24.28125 l -0.53125,16.21875 5.125,13.5 c 2.82151,7.425 7.19147,17.63184 9.71875,22.6875 3.20662,6.41466 4.42792,9.88947 4,11.5 -0.64934,2.44391 -6.47735,7.03838 -10.5625,8.3125 -4.05676,1.26526 -19.73959,13.37926 -26.5625,20.53125 -2.75,2.88263 -7.39153,7.01554 -10.28125,9.15625 -9.11794,6.75459 -15.9303,16.69564 -18.6875,27.28125 -1.88258,7.22771 -2.02263,7.40514 -7.4375,9.78125 -10.35211,4.54264 -35.83301,20.92123 -53.59375,34.4375 -4.4,3.34849 -11.4885,7.72546 -15.71875,9.71875 -9.92304,4.67573 -14.57796,10.29479 -10.03125,12.0625 0.9625,0.37421 5.58062,0.9412 10.28125,1.25 12.20918,0.80205 28.24509,-3.3822 55.46875,-14.4375 11.55,-4.69035 26.85,-10.90708 34,-13.8125 7.15,-2.90543 16.28858,-6.84329 20.3125,-8.78125 11.67778,-5.62414 29.75312,-19.92698 36.28125,-28.6875 7.56332,-10.14972 14.76542,-18.4893 17.59375,-20.375 1.54319,-1.02887 4.33922,-3.9952 6.21875,-6.59375 4.57514,-6.32538 9.36446,-9.5 14.34375,-9.5 5.25923,0 8.20695,3.44413 9.65625,11.1875 0.59553,3.18183 1.60137,7.13125 2.21875,8.78125 0.61738,1.65 2.32662,6.375 3.8125,10.5 3.60553,10.0094 4.89021,12.30392 12,21.59375 14.39589,18.81002 19.73167,23.74647 33.125,30.625 6.44952,3.31234 6.98606,3.95571 10.59375,12.75 1.00501,2.44989 6.43659,10.5316 12.09375,17.96875 12.17299,16.00315 13.9061,20.38943 15.25,38.5625 0.48807,6.6 2.76482,22.8 5.03125,36 2.26643,13.2 4.50593,26.7 4.96875,30 1.49832,10.6835 3.76331,20.88466 5.78125,26 5.22326,13.24057 9.43487,23.00445 14.625,33.75 3.11947,6.45849 8.32362,18.6085 11.5625,27 10.14319,26.2796 21.00537,52.107 23.46875,55.8438 1.30181,1.9748 4.2333,7.1498 6.5,11.5 9.14506,17.5509 14.1475,24.2192 19.0625,25.375 4.8656,1.144 4.60763,1.1461 9.65625,-0.125 3.738,-0.9414 4.79891,-1.7438 5.9375,-4.4688 1.7464,-4.1799 1.78145,-17.0742 0.0625,-24.375 -2.19137,-9.3074 -8.74911,-24.1579 -13.8125,-31.25 -5.63962,-7.8991 -7.99823,-12.3886 -16.0625,-30.6875 -15.24635,-34.59596 -16.15564,-37.47464 -13.53125,-42.65625 1.19854,-2.36642 1.29945,-5.12183 0.625,-14.875 -0.89838,-12.99138 -3.40159,-22.287 -9.5,-35.25 -1.86855,-3.97185 -3.375,-7.66479 -3.375,-8.1875 0,-0.52272 -2.4257,-6.95082 -5.375,-14.28125 -2.94929,-7.33043 -5.69579,-15.1125 -6.09375,-17.3125 -0.39796,-2.2 -1.57225,-6.46281 -2.625,-9.46875 -1.05274,-3.00594 -1.90625,-5.79523 -1.90625,-6.1875 0,-1.40341 3.15095,-3.84375 4.96875,-3.84375 2.95966,0 8.0694,4.98535 10.1875,9.9375 1.07369,2.5103 2.81663,5.49443 3.875,6.625 1.05838,1.13057 3.309,4.85489 4.96875,8.28125 3.36776,6.95234 12.75608,17.70967 20.4375,23.40625 2.77907,2.06097 5.35875,4.08597 5.75,4.5 9.65588,10.21785 16.66095,16.69561 22.3125,20.71875 10.16452,7.23575 24.94904,18.66422 33,25.5 3.85,3.26889 12.53913,10.69196 19.3125,16.5 11.67854,10.01413 45.01097,35.41225 62.90625,47.90625 5.42897,3.7904 12.7774,7.5733 21.5,11.0938 7.28857,2.9415 18.00625,7.4469 23.78125,10 12.53507,5.5416 28.76639,12.4964 54.5,23.3437 21.17973,8.9278 35.28517,12.8286 58.6875,16.1875 7.86028,1.1282 17.6875,2.7203 21.8125,3.5312 16.18,3.1814 33.4602,4.4688 59.625,4.4688 30.6872,0 39.2343,-1.1637 49,-6.625 3.3925,-1.8971 6.6217,-4.0059 7.1875,-4.6875 0.5657,-0.6816 1.9152,-4.4292 3,-8.3437 1.0848,-3.9146 2.4279,-7.9455 2.9688,-8.9688 1.7429,-3.2977 8.1974,-26.2294 8.1874,-29.0938 0,-1.5251 -0.9148,-7.9562 -2.0312,-14.2812 -1.1165,-6.325 -2.4543,-14.5451 -2.9688,-18.25 -0.5144,-3.7049 -2.4698,-10.4549 -4.3437,-15 -1.8739,-4.54511 -3.7407,-9.82721 -4.1563,-11.75 -0.4156,-1.9228 -1.3475,-4.8478 -2.0624,-6.5 -0.715,-1.65221 -2.916,-8.175 -4.9063,-14.5 -1.9904,-6.325 -5.3886,-15.1 -7.5625,-19.5 -2.1738,-4.4 -4.658,-11.38321 -5.5,-15.5 -1.0835,-5.29724 -2.6754,-9.24387 -5.4688,-13.53125 -2.5565,-3.92381 -4.653,-8.84644 -5.9374,-14 -3.5028,-14.05531 -13.1208,-35.37029 -20.9063,-46.28125 -9.8393,-13.78927 -32.4363,-43.70095 -36.5313,-48.34375 -2.253,-2.55439 -7.1362,-7.20052 -10.8437,-10.34375 -5.2369,-4.43986 -6.9958,-6.63201 -7.8437,-9.78125 -0.682,-2.5324 -5.3752,-9.69996 -12.50005,-19.125 -21.45636,-28.38339 -26.16928,-33.51252 -40.75,-44.375 -7.3308,-5.46138 -15.31718,-12.30387 -17.75,-15.1875 -6.36681,-7.54662 -23.55182,-24.85122 -29.625,-29.84375 -2.85619,-2.34797 -8.41455,-8.51838 -12.375,-13.71875 -5.43301,-7.13398 -10.17842,-11.87121 -19.3125,-19.21875 -6.65836,-5.35606 -15.01875,-12.53206 -18.59375,-15.96875 -3.575,-3.43669 -7.5125,-6.94944 -8.75,-7.8125 -2.45098,-1.70939 -2.99082,-5.63465 -1,-7.25 1.98253,-1.60863 19.54002,-1.78844 26.25,-0.28125 4.21622,0.94705 14.77024,1.3574 35.5,1.4375 25.93449,0.10019 30.02814,-0.0865 33.875,-1.625 6.16787,-2.46674 10.15209,-2.20435 18.9375,1.28125 10.68389,4.23883 16.81581,8.74548 24.5625,18 C 988.87977,638.98081 990.17511,640 993,640 c 4.26656,0 6.5702,-1.73327 11.1875,-8.4375 L 1008,626 l -3.3438,-4.75 c -6.96008,-9.85035 -22.15382,-23.76234 -30.7187,-28.125 -4.31278,-2.19678 -29.59252,-9.125 -33.28125,-9.125 -1.12056,0 -6.17434,-1.65692 -11.25,-3.6875 -8.78528,-3.51466 -9.98714,-3.73031 -25.21875,-4.46875 -8.8,-0.42663 -18.475,-1.25715 -21.5,-1.84375 -9.47713,-1.83779 -29.29522,-2.31467 -41.5,-1 -10.5615,1.13767 -12.27876,1.63939 -21.25,6.125 -5.37038,2.6852 -10.65,4.85585 -11.75,4.84375 -3.21181,-0.0353 -10.11543,-3.55036 -11.875,-6.0625 -0.89112,-1.27224 -2.37276,-4.60023 -3.28125,-7.375 C 789.60801,560.07576 776.74157,545.28946 758.75,531.125 751.48849,525.40813 743.78886,522 738.09375,522 c -5.77713,0 -9.81744,-2.10177 -11.40625,-5.9375 -2.51764,-6.07814 0.52253,-10.69474 8.8125,-13.40625 2.85043,-0.93233 7.55634,-3.48892 10.4375,-5.6875 2.88115,-2.19859 11.55,-7.1288 19.25,-10.9375 16.11815,-7.97261 25.42068,-15.09053 29.0625,-22.21875 1.31731,-2.5784 3.86074,-5.77011 5.65625,-7.09375 3.21998,-2.37373 19.15651,-9.05583 33.78125,-14.1875 12.22626,-4.29007 24.14852,-9.67173 29.25,-13.15625 2.62705,-1.79438 5.66455,-3.53049 6.75,-3.875 1.6651,-0.52848 2,-1.52563 2,-6.40625 0,-6.66685 -2.35269,-11.05074 -8.03125,-14.9375 -3.2463,-2.22198 -4.13009,-2.32797 -13.46875,-1.84375 -9.28204,0.48128 -11.00514,0.92959 -24,6.21875 -7.7,3.13406 -16.24635,6.57792 -18.96875,7.65625 -2.72239,1.07833 -6.45086,3.26789 -8.28125,4.875 -4.53639,3.983 -10.57107,6.9375 -14.1875,6.9375 -3.74835,0 -19.26438,3.53313 -24.4375,5.5625 -2.1274,0.83456 -5.2774,2.57559 -7,3.875 -1.72259,1.2994 -4.86916,3.08918 -7,3.96875 -4.93109,2.03545 -14.96296,9.17725 -22.375,15.9375 -3.16832,2.88971 -8.04104,6.87668 -10.8125,8.875 -2.77145,1.99831 -7.49645,6.24225 -10.5,9.4375 -7.61264,8.09851 -13.63383,13.24166 -16.40625,13.9375 -1.34238,0.33691 -4.89265,-0.33968 -8.21875,-1.5625 -4.79769,-1.76382 -6.79323,-3.30317 -11.3125,-8.625 -7.25836,-8.54736 -8.19712,-9.02057 -47.5,-24.09375 -5.65968,-2.17057 -21.0908,-6.04138 -27.375,-6.875 -7.19256,-0.95413 -18.80426,1.55892 -28.9375,6.28125 -5.90955,2.75399 -8.1875,2.0786 -8.1875,-2.40625 0,-3.48152 1.63982,-6.15006 7.125,-11.53125 5.62096,-5.51444 6.20483,-7.31443 5.65625,-17.03125 -0.31762,-5.62599 -1.2187,-9.13689 -4.125,-15.65625 -2.05904,-4.61881 -4.64278,-9.50714 -5.71875,-10.875 -1.2127,-1.54171 -1.9375,-4.04371 -1.9375,-6.5625 0,-14.44805 -5.38746,-35.54673 -11.78125,-46.15625 -1.98873,-3.3 -10.9199,-15.71105 -19.84375,-27.59375 -12.04037,-16.03253 -17.4452,-22.41609 -20.96875,-24.75 -5.3629,-3.55223 -7.0165,-3.8148 -10.1875,-1.59375 -2.11283,1.47988 -2.21975,2.23248 -2.21875,15.25 0.002,14.3674 -0.0462,14.14865 5.5,23.09375 1.1,1.77411 6.1625,8.91117 11.25,15.84375 9.19281,12.52675 10.95309,16.66039 7.625,17.9375 -2.07556,0.79647 -8.00477,-1.32441 -11.875,-4.25 -6.50928,-4.92051 -10.66686,-5.78967 -24.5625,-5.125 -11.35029,0.54292 -13.59624,0.97354 -19.375,3.59375 -3.59593,1.63047 -7.56516,4.04468 -8.8125,5.375 -1.24734,1.33033 -4.05,3.60973 -6.25,5.0625 -2.2,1.45277 -5.01184,3.34111 -6.21875,4.21875 -1.31344,0.95507 -3.01961,1.35926 -4.25,0.96875 -1.96958,-0.62512 -2.04025,-1.38036 -2.03125,-17.84375 0.009,-16.2212 0.14679,-17.46726 2.46875,-22.1875 1.35277,-2.75 2.4828,-5.44619 2.5,-6 0.0172,-0.55381 2.05787,-5.95381 4.5625,-12 2.50464,-6.04619 5.17443,-13.025 5.90625,-15.5 1.59365,-5.38977 8.09105,-20.13901 17.8125,-40.34375 7.11574,-14.78911 7.1364,-14.85935 7.8125,-25.5 0.37288,-5.86851 1.03481,-11.55625 1.46875,-12.65625 0.43395,-1.1 4.20521,-5.4074 8.375,-9.5625 20.18611,-20.11499 35.59606,-40.08926 38.5,-49.9375 0.89198,-3.025 2.45669,-7.75 3.5,-10.5 2.44116,-6.43448 4.39074,-19.39761 3.5625,-23.8125 C 527.50351,123.20805 529.7171,117 531.625,117 c 0.49882,0 1.18965,-0.89246 1.53125,-1.96875 0.3416,-1.07629 7.22953,-8.62597 15.3125,-16.78125 8.08296,-8.155284 17.41875,-18.35388 20.71875,-22.65625 3.3,-4.30237 8.25,-10.529295 11,-13.84375 4.94242,-5.956887 10.71281,-13.480962 16.28125,-21.25 1.57684,-2.2 4.79259,-8.47385 7.15625,-13.9375 3.78275,-8.74403 4.22515,-10.55246 3.75,-15.15625 -0.70185,-6.8002553 -2.36736,-9.7192092 -6.1875,-9.4375 z"
     id="path2995"
     style="fill:#000000" />
</svg>
