<?xml version="1.0" standalone="no"?>
<!DOCTYPE svg PUBLIC "-//W3C//DTD SVG 20010904//EN"
 "http://www.w3.org/TR/2001/REC-SVG-20010904/DTD/svg10.dtd">
<svg version="1.0" xmlns="http://www.w3.org/2000/svg"
 width="1156.000000pt" height="1536.000000pt" viewBox="0 0 1156.000000 1536.000000"
 preserveAspectRatio="xMidYMid meet">
<metadata>
Created by potrace 1.16, written by Peter Selinger 2001-2019
</metadata>
<g transform="translate(0.000000,1536.000000) scale(0.100000,-0.100000)"
fill="#000000" stroke="none">
<path d="M7190 15355 c0 -3 9 -24 21 -46 34 -67 97 -127 219 -206 63 -42 153
-101 200 -131 161 -106 292 -258 427 -497 88 -156 123 -258 138 -405 9 -92 41
-302 70 -458 14 -74 34 -215 45 -315 24 -213 31 -258 70 -460 57 -301 60 -406
19 -606 -53 -258 -60 -428 -29 -701 29 -255 45 -790 32 -1072 -11 -226 -18
-268 -49 -268 -23 0 -75 -34 -178 -116 -194 -153 -657 -493 -1005 -736 -287
-201 -406 -278 -555 -359 -333 -180 -406 -230 -599 -419 -140 -137 -229 -241
-272 -319 -15 -28 -29 -49 -32 -46 -3 2 6 40 18 83 l23 78 -21 47 c-23 51 -31
56 -54 30 -30 -35 -41 -69 -47 -148 l-6 -80 -24 70 c-27 83 -34 93 -74 103
-42 11 -66 46 -77 115 -13 81 -49 154 -106 218 -27 30 -65 76 -84 102 -19 25
-47 52 -62 59 -15 7 -29 22 -32 33 -3 11 -60 81 -127 155 -203 224 -303 354
-564 725 -208 296 -254 353 -550 685 -276 309 -393 451 -530 648 -118 169
-229 333 -267 393 -15 24 -67 88 -117 142 -49 54 -132 162 -184 240 -52 78
-130 181 -173 228 -97 105 -129 168 -219 429 -37 107 -107 292 -155 410 -48
118 -140 346 -205 505 -64 160 -128 311 -141 337 -42 82 -150 207 -181 208
-19 0 -16 -90 3 -169 9 -36 45 -138 79 -226 35 -88 88 -238 119 -333 86 -260
106 -316 261 -712 78 -201 161 -415 185 -477 50 -131 91 -197 195 -313 166
-184 470 -575 755 -970 186 -259 306 -415 685 -890 335 -419 503 -639 597
-779 137 -204 279 -371 337 -397 38 -17 39 -18 43 -79 3 -54 9 -70 49 -126 25
-35 62 -91 82 -125 22 -36 53 -72 77 -88 l40 -26 0 -71 c0 -63 4 -77 40 -143
35 -64 52 -126 34 -126 -4 0 -30 14 -58 32 -44 28 -62 33 -133 36 l-83 4 -60
54 c-81 72 -113 87 -185 88 -55 1 -65 5 -103 37 -48 41 -138 76 -228 89 -34 5
-89 20 -122 34 -79 32 -367 121 -457 141 -38 9 -140 45 -225 80 -85 35 -308
122 -496 193 -391 149 -559 218 -805 330 -226 104 -274 119 -404 132 -114 10
-135 19 -135 55 0 12 -7 29 -17 36 -14 12 -89 100 -413 484 -28 33 -66 76 -83
95 -18 19 -73 94 -122 165 -49 72 -125 180 -169 240 -152 209 -409 612 -480
753 -39 78 -126 357 -240 773 -169 617 -183 702 -173 1069 4 166 9 219 26 276
45 155 220 523 293 615 22 28 37 53 34 57 -4 3 -30 6 -60 6 -65 1 -107 -27
-153 -105 -31 -53 -157 -406 -187 -524 -57 -224 -103 -715 -94 -994 4 -128 6
-141 36 -201 17 -36 68 -193 112 -350 129 -454 231 -745 360 -1031 166 -367
375 -654 935 -1284 194 -218 279 -305 334 -341 24 -16 55 -37 70 -46 14 -10
71 -34 126 -54 55 -20 143 -57 195 -81 52 -24 163 -68 245 -98 83 -29 233 -86
335 -125 284 -110 596 -225 800 -295 102 -35 289 -101 415 -148 127 -46 260
-94 296 -106 36 -12 86 -34 111 -50 52 -33 158 -76 210 -85 20 -4 61 -22 92
-40 30 -18 99 -45 153 -61 107 -30 126 -42 154 -96 15 -29 36 -46 109 -83 49
-26 90 -50 90 -53 0 -3 -39 -3 -88 1 -85 6 -89 5 -133 -22 -61 -39 -96 -49
-219 -62 -107 -12 -128 -18 -160 -50 -23 -23 -72 -36 -169 -45 -67 -7 -78 -11
-115 -45 -26 -24 -65 -46 -106 -60 -36 -12 -180 -77 -320 -144 -280 -135 -314
-149 -540 -232 -85 -31 -307 -121 -493 -201 -186 -79 -435 -182 -555 -229
-119 -48 -239 -98 -267 -111 -125 -63 -192 -127 -470 -443 -99 -113 -252 -279
-340 -370 -184 -189 -219 -230 -270 -320 -21 -36 -92 -136 -157 -223 -200
-264 -275 -382 -302 -467 -29 -92 -66 -262 -100 -465 -44 -263 -184 -1246
-191 -1345 -8 -120 7 -240 46 -367 16 -53 32 -123 34 -155 5 -66 24 -117 55
-148 11 -11 65 -112 119 -223 117 -242 182 -347 262 -422 57 -52 99 -70 99
-42 0 7 -9 45 -20 85 -22 80 -63 167 -104 222 -14 18 -40 70 -57 115 -17 44
-45 107 -63 140 -18 33 -36 77 -40 99 -4 21 -34 111 -66 200 -87 242 -94 267
-86 354 9 97 46 323 101 607 41 217 65 361 99 605 9 59 33 158 56 227 37 113
50 176 65 325 5 49 13 66 49 110 24 29 78 103 121 163 118 167 250 336 375
480 340 394 425 501 482 606 17 34 43 68 56 77 13 8 34 37 47 63 30 57 89 117
124 125 54 12 60 16 69 43 12 34 53 54 242 121 74 26 170 62 213 79 165 66
647 276 739 322 54 27 103 49 109 49 6 0 30 14 55 31 25 17 49 29 54 27 6 -2
-17 -43 -50 -91 -33 -49 -60 -96 -60 -104 0 -9 -39 -97 -86 -196 -48 -99 -99
-211 -114 -247 -29 -70 -193 -365 -303 -543 -35 -56 -80 -132 -101 -170 -20
-37 -70 -108 -111 -159 -40 -50 -75 -102 -78 -116 -6 -29 7 -139 24 -208 13
-54 38 -108 77 -166 25 -38 25 -38 18 -211 -3 -94 -11 -392 -16 -662 -5 -269
-15 -599 -21 -731 l-11 -242 55 -113 c31 -63 95 -206 142 -319 240 -564 421
-925 600 -1195 90 -135 120 -165 360 -350 304 -236 402 -297 610 -380 218 -88
452 -153 492 -138 26 10 -257 185 -512 317 -72 37 -170 95 -218 130 -109 78
-473 410 -494 451 -9 16 -33 55 -53 85 -116 171 -345 645 -545 1130 -51 124
-107 256 -124 294 l-31 68 30 46 c38 57 38 86 -2 175 l-31 72 -2 355 c0 195
-5 396 -9 445 -6 66 -3 154 13 330 11 132 23 308 27 390 8 172 15 194 91 266
26 25 116 100 198 166 102 82 204 177 320 298 171 179 735 726 960 931 66 60
141 130 166 155 31 31 58 49 83 53 23 5 66 31 121 76 51 40 106 75 134 85 33
11 73 38 124 84 81 74 133 95 177 71 19 -10 21 -17 15 -48 -7 -40 -97 -309
-113 -339 -12 -21 -151 -571 -207 -818 -21 -88 -45 -178 -55 -200 -9 -22 -47
-76 -85 -120 -118 -141 -147 -224 -185 -542 -60 -488 -95 -652 -182 -830 -33
-67 -38 -85 -28 -102 15 -28 24 -26 55 10 87 104 191 427 245 758 57 354 82
427 212 616 78 115 119 214 133 320 14 108 68 294 220 760 57 176 112 347 122
379 10 33 23 61 30 63 17 6 27 -94 20 -208 -6 -99 -19 -147 -123 -439 l-37
-104 -9 -386 c-5 -212 -10 -502 -11 -645 l-2 -260 28 -57 c52 -107 165 -208
230 -208 35 0 135 70 230 160 l81 76 7 130 c13 213 28 1155 19 1209 -4 28 -20
106 -35 175 -37 176 -41 251 -20 410 9 74 20 141 25 149 4 8 27 -86 54 -225
73 -377 89 -511 107 -859 12 -243 26 -337 63 -399 13 -22 61 -90 105 -150 45
-59 88 -122 97 -140 8 -17 21 -43 29 -58 40 -71 62 -404 46 -690 -14 -256 -14
-351 1 -366 19 -19 42 -14 67 12 22 23 22 28 11 73 -11 41 -10 64 5 148 33
187 30 617 -6 860 -13 85 -39 135 -131 251 -131 166 -140 201 -163 594 -18
325 -38 528 -65 666 -42 219 -46 364 -9 364 33 0 84 -37 145 -104 38 -42 92
-90 119 -105 119 -68 417 -422 765 -911 319 -449 712 -944 936 -1180 l71 -75
27 -320 c15 -176 34 -392 42 -480 22 -241 103 -921 119 -995 8 -36 20 -90 26
-121 l13 -57 -41 -48 c-22 -27 -87 -110 -144 -185 -181 -237 -394 -476 -669
-749 -216 -215 -272 -277 -299 -327 -18 -35 -39 -63 -47 -63 -8 0 -14 -7 -14
-16 0 -9 -36 -53 -79 -98 -171 -175 -611 -850 -611 -936 0 -29 19 -25 86 19
142 93 261 217 457 476 157 207 247 311 507 585 293 309 468 504 533 592 30
40 62 80 72 88 10 8 73 78 139 155 66 77 181 202 254 277 l134 137 -7 158 c-8
200 -23 304 -90 633 -80 394 -135 782 -169 1180 -25 289 -47 335 -279 577
-355 372 -522 576 -795 973 -63 91 -140 201 -172 245 -66 89 -279 440 -303
496 -14 34 -51 70 -176 170 -67 54 -82 76 -61 89 8 5 33 7 55 4 54 -8 591
-144 790 -200 87 -25 188 -48 223 -51 58 -6 66 -9 100 -48 20 -23 57 -80 81
-125 24 -46 69 -111 100 -145 34 -37 65 -85 80 -121 35 -87 175 -356 281 -539
171 -296 310 -506 409 -618 75 -85 74 -84 45 -168 -68 -198 -47 -279 70 -279
105 0 129 36 134 206 4 133 -12 223 -49 275 -12 17 -45 48 -75 70 -30 22 -54
45 -54 53 0 7 -18 37 -41 67 -54 72 -266 401 -364 564 -109 182 -203 368 -260
515 -26 69 -64 151 -83 183 -19 31 -33 60 -29 63 8 9 81 -32 257 -144 318
-202 633 -426 795 -566 111 -96 183 -146 211 -146 32 0 51 -29 83 -121 127
-373 382 -1015 525 -1321 240 -516 308 -682 420 -1036 208 -657 298 -964 321
-1091 47 -270 21 -598 -80 -995 -123 -482 -178 -572 -471 -775 -61 -42 -46
-49 37 -18 270 102 368 204 460 476 110 325 191 714 211 1014 25 383 -23 722
-167 1167 -29 91 -58 192 -65 225 -22 115 -62 240 -140 440 -43 110 -91 234
-106 275 -14 41 -39 100 -55 131 -15 31 -40 98 -54 148 -36 129 -48 164 -122
351 -36 91 -98 255 -138 365 -149 411 -349 841 -463 993 -39 52 -318 271 -511
401 -185 125 -646 405 -740 450 -31 15 -81 43 -111 63 -117 75 -849 458 -878
458 -5 0 -39 16 -75 35 -85 45 -163 65 -257 65 -68 1 -78 3 -110 30 -30 27
-41 30 -100 30 -66 0 -184 -14 -213 -26 -11 -4 -20 5 -32 31 -19 40 -41 55
-99 70 -51 14 -56 31 -11 39 27 5 42 17 63 48 58 88 81 104 155 111 73 7 137
31 189 71 20 15 63 31 108 40 40 9 103 27 139 40 36 14 140 48 231 76 581 180
829 270 1156 418 111 51 208 92 216 92 25 0 194 92 428 232 124 74 299 174
390 222 91 48 173 97 183 109 13 15 17 30 12 53 -7 41 26 81 139 167 204 154
328 274 562 543 298 345 407 467 541 606 97 100 164 181 212 254 39 59 71 113
71 121 0 7 15 43 34 80 89 175 255 775 346 1244 52 269 72 428 91 724 20 315
0 452 -95 635 -29 58 -70 146 -91 195 -62 151 -247 493 -346 640 -71 105 -185
205 -234 205 -56 0 -62 -71 -11 -127 97 -109 398 -651 490 -883 154 -390 151
-632 -14 -1318 -32 -136 -70 -305 -84 -377 -14 -71 -39 -204 -57 -295 -57
-302 -128 -506 -189 -550 -16 -11 -60 -62 -98 -113 -38 -51 -111 -140 -161
-197 -51 -57 -131 -156 -179 -219 -88 -119 -185 -223 -434 -466 -78 -77 -242
-237 -363 -356 -211 -208 -222 -217 -267 -223 -41 -6 -49 -11 -54 -34 -3 -15
-7 -31 -9 -37 -1 -5 -22 -16 -46 -23 -24 -8 -87 -44 -139 -82 -370 -266 -993
-592 -1500 -785 -114 -43 -362 -119 -491 -149 -57 -14 -121 -32 -141 -40 -24
-10 -68 -16 -120 -16 -105 0 -189 -20 -273 -65 -37 -19 -81 -35 -98 -35 -66 0
-217 -96 -217 -137 0 -7 -9 -22 -20 -33 l-21 -21 -28 21 c-40 28 -81 25 -151
-10 -33 -16 -62 -30 -66 -30 -16 0 6 101 34 160 18 36 32 81 32 100 0 44 21
75 64 95 19 9 51 31 73 50 21 18 66 47 98 65 72 38 136 86 230 171 39 35 93
83 120 105 90 74 486 357 687 491 108 72 391 270 630 440 238 170 469 334 514
366 l81 56 16 143 c28 245 41 585 42 1088 0 441 -2 503 -22 678 -15 122 -23
252 -23 350 0 252 -38 624 -115 1143 -25 163 -56 395 -71 515 -37 316 -56 365
-246 630 -147 207 -233 311 -357 435 -151 150 -349 291 -478 339 -48 18 -163
28 -163 15z m-2190 -8145 c43 -22 85 -25 126 -10 32 13 42 6 24 -15 -17 -20
-132 -84 -182 -102 -21 -7 -125 -24 -231 -38 -106 -14 -221 -33 -257 -43 -36
-11 -87 -22 -115 -26 -27 -4 -117 -23 -199 -42 -178 -40 -211 -42 -141 -8 110
53 323 124 373 124 33 0 80 12 138 34 49 19 116 39 148 45 33 6 100 31 150 55
50 25 99 45 109 45 10 1 35 -8 57 -19z m1505 -46 c47 -22 82 -29 165 -35 58
-4 118 -12 135 -19 16 -6 67 -20 113 -31 98 -22 287 -93 427 -159 103 -48 164
-89 134 -90 -8 0 -146 34 -305 75 -159 41 -352 88 -429 105 -296 64 -326 72
-385 102 -63 31 -77 60 -33 66 12 2 27 9 33 16 14 18 64 7 145 -30z m-1795
-305 c0 -4 -18 -13 -41 -19 -50 -14 -232 -186 -353 -335 -175 -216 -848 -857
-1065 -1014 -35 -25 -92 -70 -125 -99 -34 -28 -101 -86 -151 -127 -184 -155
-204 -175 -215 -213 -13 -48 -25 -66 -39 -58 -28 18 4 89 83 184 63 76 101
145 361 652 243 476 274 531 315 560 16 12 57 62 91 111 34 50 82 112 106 140
43 47 47 49 98 49 65 0 116 10 495 101 162 39 318 74 345 78 55 7 95 3 95 -10z"/>
</g>
</svg>
