<?xml version="1.0" standalone="no"?>
<!DOCTYPE svg PUBLIC "-//W3C//DTD SVG 20010904//EN"
 "http://www.w3.org/TR/2001/REC-SVG-20010904/DTD/svg10.dtd">
<svg version="1.0" xmlns="http://www.w3.org/2000/svg"
 width="2633.000000pt" height="1635.000000pt" viewBox="0 0 2633.000000 1635.000000"
 preserveAspectRatio="xMidYMid meet">
<metadata>
Created by potrace 1.16, written by Peter Selinger 2001-2019
</metadata>
<g transform="translate(0.000000,1635.000000) scale(0.100000,-0.100000)"
fill="#000000" stroke="none">
<path d="M26245 16340 c-91 -38 -222 -279 -499 -920 -39 -91 -185 -388 -323
-660 -351 -690 -625 -1263 -698 -1455 -87 -231 -125 -634 -125 -1327 0 -431
-24 -654 -95 -863 -100 -298 -305 -511 -565 -585 -95 -27 -283 -37 -400 -21
-47 6 -141 24 -210 40 -69 17 -165 37 -215 46 -259 48 -525 185 -796 412 -158
132 -349 305 -614 557 -524 499 -833 745 -1209 960 -207 119 -284 153 -1216
538 -1957 808 -2715 1137 -3415 1483 -369 182 -505 258 -733 409 -496 327
-1098 633 -1652 839 -1143 426 -2204 471 -2979 128 -282 -125 -498 -293 -687
-532 -250 -319 -431 -668 -489 -946 -36 -174 -30 -348 20 -541 15 -60 19 -92
12 -88 -7 2 -78 34 -159 70 -1252 552 -2590 803 -3808 715 -1071 -77 -2071
-403 -2898 -945 -299 -196 -537 -389 -795 -643 -366 -361 -613 -685 -868
-1136 -431 -765 -645 -1445 -700 -2230 -14 -207 -6 -687 16 -925 32 -340 29
-1337 -5 -2035 -30 -602 -79 -1124 -125 -1346 -27 -128 -17 -643 21 -1049 149
-1614 779 -2786 1851 -3446 730 -450 1633 -664 2790 -664 393 0 694 23 1023
76 1244 200 2167 792 2699 1731 191 337 340 768 416 1198 52 298 60 404 60
806 l0 377 39 -72 c329 -602 671 -1095 1100 -1586 135 -155 502 -526 656 -664
995 -894 2183 -1493 3500 -1765 181 -37 745 -132 985 -165 1832 -255 3372 -78
4573 523 761 381 1397 946 1876 1666 621 932 999 2129 1130 3575 31 341 40
547 40 950 1 401 0 422 -27 625 -84 621 -180 1073 -317 1485 -118 356 -221
577 -433 925 -105 174 -147 248 -147 258 0 2 53 -23 118 -56 1128 -578 2157
-570 2775 22 253 242 409 522 514 921 l35 135 -18 280 c-26 392 -27 1198 -1
1425 62 541 173 893 416 1320 100 174 127 230 203 419 143 356 234 674 338
1174 28 136 62 279 76 317 17 50 24 91 24 145 0 67 -3 79 -25 100 -26 27 -30
28 -60 15z m-14392 -2085 c40 -4 86 -9 102 -10 17 -1 50 -5 75 -8 25 -4 77 -9
115 -12 39 -4 77 -8 85 -10 8 -2 42 -7 75 -10 33 -4 92 -11 130 -17 39 -5 81
-11 95 -13 14 -2 61 -8 105 -14 44 -6 116 -15 160 -21 44 -5 114 -16 155 -24
41 -8 93 -17 115 -20 103 -14 178 -32 310 -74 61 -19 114 -37 120 -41 12 -6
162 -59 187 -65 16 -4 73 -28 178 -73 19 -8 42 -17 51 -18 10 -2 57 -21 105
-42 49 -21 91 -38 94 -39 8 -1 63 -25 92 -40 14 -8 32 -14 39 -14 6 0 35 -11
63 -24 28 -14 80 -36 116 -50 101 -39 269 -114 305 -136 18 -11 35 -17 38 -13
4 3 7 2 7 -3 0 -5 10 -11 22 -11 13 -1 24 -7 26 -13 2 -5 7 -8 12 -5 4 3 13
-2 20 -10 7 -8 18 -15 25 -15 7 0 60 -24 119 -54 58 -30 106 -51 106 -48 0 4
4 3 8 -3 4 -5 51 -32 105 -59 53 -27 97 -52 97 -55 0 -3 -201 -6 -448 -6 -530
-1 -1258 -13 -1357 -22 -140 -15 -602 -8 -772 10 -90 10 -171 20 -181 22 -10
1 -45 6 -77 10 -65 8 -84 11 -129 21 -16 3 -40 7 -55 9 -14 2 -62 10 -106 19
-44 9 -87 18 -95 19 -8 1 -19 5 -25 9 -8 4 -116 30 -127 29 -2 0 -34 9 -73 20
-38 11 -81 22 -94 25 -14 3 -29 8 -35 12 -6 4 -14 7 -18 8 -5 1 -9 2 -10 4 -2
1 -10 3 -18 5 -12 2 -110 39 -195 74 -53 21 -161 76 -173 88 -7 7 -17 13 -21
13 -4 0 -19 9 -32 20 -13 11 -29 23 -34 27 -160 121 -203 161 -226 213 -43
100 32 201 275 370 12 8 37 26 56 41 34 26 40 27 170 28 74 1 135 3 136 4 5 4
139 -1 207 -8z m1417 -3135 c239 -11 575 -20 745 -20 340 0 520 -10 753 -40
367 -48 667 -131 997 -275 66 -28 197 -78 290 -110 94 -32 265 -96 380 -142
116 -47 264 -100 330 -118 115 -32 119 -34 90 -45 -201 -77 -274 -116 -374
-194 -194 -150 -419 -392 -552 -591 -101 -150 -196 -363 -239 -532 -10 -39
-13 -43 -43 -43 -18 0 -56 11 -85 25 -50 23 -189 121 -209 147 -5 7 -44 85
-85 173 -148 317 -333 629 -448 757 -40 45 -71 67 -146 104 -122 60 -213 144
-367 342 -63 81 -131 160 -150 174 -148 114 -419 199 -580 183 -157 -15 -261
-66 -377 -184 -70 -70 -95 -105 -137 -186 -28 -55 -68 -149 -88 -210 -20 -60
-38 -111 -40 -113 -2 -2 -87 162 -189 364 -101 203 -210 407 -240 453 -31 47
-56 88 -56 93 0 14 367 9 820 -12z m-250 -2515 c6 -22 24 -110 41 -195 17 -85
44 -213 60 -285 37 -162 44 -206 30 -184 -30 46 -117 419 -145 627 -18 124
-21 234 -4 132 4 -30 13 -73 18 -95z m4772 -122 c35 -40 41 -93 45 -448 l5
-350 -37 -215 c-115 -677 -226 -1055 -396 -1352 -224 -391 -615 -685 -1016
-765 -130 -25 -356 -22 -493 6 -126 26 -286 79 -373 121 -72 37 -360 211 -355
216 2 2 40 -8 83 -22 316 -97 707 -154 965 -140 242 14 499 75 666 159 224
113 422 296 552 511 38 62 116 278 173 481 131 463 159 846 94 1300 -37 257
-26 433 31 496 21 24 36 24 56 2z m-11146 -33 c148 -38 320 -137 508 -292 82
-67 99 -88 221 -273 163 -247 266 -423 361 -619 87 -181 130 -303 174 -491 68
-294 89 -373 129 -474 22 -57 36 -100 32 -95 -4 5 -84 108 -178 229 -348 451
-415 521 -681 716 -135 99 -257 200 -351 288 -305 288 -478 440 -583 512 -68
47 -84 87 -73 183 14 124 70 228 152 283 82 56 164 65 289 33z m-2657 -2558
c324 -483 751 -952 1111 -1222 254 -191 379 -391 380 -607 0 -229 -131 -398
-366 -469 -72 -22 -277 -25 -369 -5 -121 26 -340 166 -486 311 -193 190 -279
372 -340 723 -30 170 -30 385 1 612 20 149 22 195 16 370 -3 110 -9 239 -12
288 -4 48 -4 87 -1 87 4 0 33 -40 66 -88z"/>
</g>
</svg>
