<?xml version="1.0" standalone="no"?>
<!DOCTYPE svg PUBLIC "-//W3C//DTD SVG 20010904//EN"
 "http://www.w3.org/TR/2001/REC-SVG-20010904/DTD/svg10.dtd">
<svg version="1.0" xmlns="http://www.w3.org/2000/svg"
 width="595.000000pt" height="1178.000000pt" viewBox="0 0 595.000000 1178.000000"
 preserveAspectRatio="xMidYMid meet">
<metadata>
Created by potrace 1.16, written by Peter Selinger 2001-2019
</metadata>
<g transform="translate(0.000000,1178.000000) scale(0.100000,-0.100000)"
fill="#000000" stroke="none">
<path d="M3150 11751 c-118 -51 -394 -212 -662 -387 -73 -47 -144 -86 -165
-90 -52 -10 -85 -25 -178 -81 -99 -59 -229 -111 -400 -159 -71 -20 -154 -47
-183 -61 -80 -37 -174 -132 -257 -258 -97 -145 -115 -157 -260 -166 -113 -7
-180 -24 -250 -64 -22 -12 -74 -28 -115 -34 -116 -19 -178 -52 -264 -141 -160
-167 -274 -384 -340 -648 -98 -384 -95 -884 8 -1429 14 -71 153 -837 310
-1703 158 -866 317 -1732 356 -1925 148 -751 418 -1939 521 -2295 17 -58 79
-229 138 -380 59 -151 118 -311 130 -355 13 -44 29 -93 36 -110 7 -16 21 -57
30 -90 9 -33 28 -89 42 -125 14 -36 58 -150 98 -255 160 -419 261 -633 327
-689 88 -76 284 -155 483 -195 55 -11 172 -25 260 -31 88 -6 248 -22 355 -35
107 -14 262 -30 343 -36 140 -11 149 -10 162 7 39 53 139 244 185 354 75 180
100 226 205 380 163 240 163 239 220 685 41 320 66 487 94 612 11 49 146 512
300 1030 287 968 292 984 336 1262 15 91 38 206 51 255 13 50 35 174 49 276
72 546 374 2098 704 3621 22 102 50 259 61 350 11 90 30 227 41 304 28 183 22
341 -20 541 -79 381 -184 571 -423 770 -127 106 -187 144 -406 258 -108 56
-273 147 -367 203 -158 94 -172 105 -195 149 -14 27 -50 74 -80 105 -87 88
-180 128 -363 154 -61 9 -126 18 -144 21 -18 3 -168 92 -360 216 -180 116
-332 212 -338 214 -5 2 -39 -9 -75 -25z"/>
</g>
</svg>
