<?xml version="1.0" standalone="no"?>
<!DOCTYPE svg PUBLIC "-//W3C//DTD SVG 20010904//EN"
 "http://www.w3.org/TR/2001/REC-SVG-20010904/DTD/svg10.dtd">
<svg version="1.0" xmlns="http://www.w3.org/2000/svg"
 width="1536.000000pt" height="1089.000000pt" viewBox="0 0 1536.000000 1089.000000"
 preserveAspectRatio="xMidYMid meet">
<metadata>
Created by potrace 1.16, written by Peter Selinger 2001-2019
</metadata>
<g transform="translate(0.000000,1089.000000) scale(0.100000,-0.100000)"
fill="#000000" stroke="none">
<path d="M7075 10858 c-44 -38 -66 -79 -95 -178 -12 -41 -29 -85 -36 -98 -14
-21 -16 -21 -38 -7 -17 12 -25 28 -29 66 -8 64 -36 109 -84 136 -54 30 -191
84 -235 93 l-38 7 0 -41 c0 -49 28 -112 63 -145 15 -13 61 -36 104 -50 96 -32
114 -55 94 -122 -9 -31 -30 -59 -70 -97 l-56 -53 -73 78 c-40 43 -85 103 -99
133 l-27 55 -24 -75 c-42 -131 -18 -223 87 -343 64 -73 73 -91 73 -138 -1 -70
-56 -139 -112 -139 -15 0 -44 7 -65 16 -20 8 -49 14 -64 12 -60 -7 -30 -93 97
-280 38 -57 79 -122 90 -144 19 -37 65 -184 58 -184 -1 0 -58 32 -126 70 -67
39 -126 68 -129 64 -3 -3 -8 -43 -9 -88 l-4 -82 76 -92 c97 -117 138 -145 220
-150 l61 -4 1 -67 c1 -54 8 -83 43 -163 22 -53 44 -117 47 -142 7 -45 6 -46
-22 -46 -58 1 -109 35 -181 121 -82 99 -123 125 -177 115 -28 -5 -40 -14 -52
-40 -15 -31 -15 -34 9 -68 15 -23 28 -64 36 -113 17 -100 44 -134 120 -146 37
-6 67 -19 98 -43 25 -19 69 -42 99 -51 83 -24 96 -57 73 -181 -12 -63 -34
-100 -43 -73 -39 110 -42 114 -77 132 -22 11 -82 22 -153 29 -129 12 -156 4
-177 -50 -20 -51 6 -199 36 -209 6 -2 30 15 52 37 23 22 49 40 57 40 9 0 45
-25 81 -56 51 -43 69 -53 79 -45 11 9 28 -4 76 -59 35 -39 63 -78 64 -88 1 -9
10 -47 20 -84 31 -112 8 -143 -75 -96 -53 30 -106 109 -120 181 -7 31 -9 60
-6 64 4 3 39 -6 79 -20 l73 -27 -59 56 c-61 58 -77 62 -86 24 -5 -20 -12 -23
-55 -25 -59 -2 -100 -21 -155 -74 -44 -42 -52 -79 -25 -118 8 -12 75 -59 147
-104 73 -46 199 -127 280 -181 140 -93 148 -100 158 -140 6 -24 13 -48 15 -55
5 -16 -109 -57 -138 -49 -14 3 -102 62 -197 131 -98 71 -182 125 -195 125 -66
0 -105 -38 -105 -102 0 -25 21 -53 131 -169 148 -157 190 -184 305 -195 84 -8
103 -19 159 -94 41 -57 43 -62 33 -98 -5 -20 -15 -42 -21 -49 -13 -13 -142
-33 -211 -33 -55 0 -88 26 -122 93 -56 112 -93 122 -220 58 -117 -59 -119 -61
-105 -103 12 -38 44 -62 436 -343 146 -104 228 -156 268 -170 31 -10 57 -22
57 -26 0 -4 -29 -19 -65 -34 -36 -16 -65 -30 -65 -32 0 -2 12 -27 26 -55 28
-54 74 -172 74 -187 0 -5 -16 -9 -35 -8 -45 1 -60 -14 -110 -115 -50 -103 -71
-118 -145 -99 -51 13 -51 13 -103 -23 -61 -42 -71 -44 -91 -14 -24 34 -19 76
15 130 27 42 31 54 25 91 -19 118 -19 120 8 160 30 43 29 53 -16 162 -16 39
-38 102 -47 140 l-18 70 -77 52 c-90 61 -118 71 -153 52 -21 -11 -24 -19 -20
-49 2 -19 14 -61 26 -92 28 -77 39 -160 47 -360 l7 -167 -26 -12 c-25 -11 -31
-8 -91 45 -103 90 -156 167 -156 225 0 38 33 61 94 68 l43 5 -17 59 c-10 32
-39 97 -64 145 -25 47 -46 90 -46 95 0 5 15 23 34 40 63 54 66 117 12 199 -13
20 -35 59 -49 87 -30 59 -78 93 -130 93 -53 0 -137 -35 -186 -76 -56 -48 -53
-74 10 -91 26 -8 59 -27 78 -47 l33 -34 -27 -53 c-36 -71 -33 -153 9 -216 32
-47 29 -69 -10 -83 -24 -10 -33 -4 -116 72 -126 115 -127 117 -127 336 -1 201
8 251 58 313 23 28 31 48 31 78 0 45 -19 140 -32 157 -23 31 -130 17 -144 -19
-2 -7 -6 -99 -7 -203 l-2 -189 -33 -67 c-41 -81 -83 -125 -127 -134 -46 -8
-67 1 -90 38 -19 31 -20 55 -22 427 l-2 394 -26 26 c-24 24 -31 26 -106 23
-81 -2 -119 -13 -119 -34 0 -7 12 -29 26 -49 31 -45 43 -125 44 -285 0 -122
-6 -137 -58 -137 -42 0 -174 60 -204 93 -31 34 -34 56 -16 141 l12 58 -47 94
c-26 51 -47 103 -47 115 0 12 18 70 41 129 37 97 41 115 36 173 -7 93 -32 158
-80 208 -23 23 -44 42 -48 42 -13 0 -44 -63 -94 -185 -76 -189 -73 -278 15
-378 28 -33 32 -43 27 -78 -9 -72 -63 -104 -128 -76 -43 18 -181 162 -209 217
-30 59 -40 134 -29 221 5 41 9 130 9 199 1 148 -21 250 -74 344 -42 75 -69
102 -83 84 -32 -40 -34 -58 -22 -181 12 -133 7 -158 -42 -218 -28 -35 -26 -81
6 -152 20 -43 25 -67 21 -92 -8 -40 -28 -59 -55 -50 -30 9 -107 99 -137 161
-25 52 -26 60 -20 153 l7 99 -45 6 c-24 4 -56 16 -70 27 -27 21 -31 36 -46
152 -10 79 -25 110 -143 300 -55 88 -108 112 -175 78 -46 -24 -124 -108 -120
-130 2 -9 28 -22 65 -33 115 -34 153 -110 161 -322 l4 -129 -61 54 c-35 30
-101 74 -153 99 -136 67 -145 86 -123 271 9 80 -7 158 -38 187 -12 11 -47 31
-77 45 l-55 24 -47 -39 c-27 -22 -48 -47 -48 -57 0 -9 14 -33 31 -53 28 -35
30 -41 23 -97 l-6 -59 -28 31 c-26 29 -31 31 -131 37 -60 4 -114 13 -126 21
-27 16 -45 51 -72 142 -55 177 -159 244 -328 212 -114 -22 -124 -20 -189 30
-60 47 -97 57 -108 29 -11 -30 15 -187 40 -236 45 -90 29 -108 -96 -108 -74 0
-83 -2 -107 -26 -24 -24 -25 -29 -19 -99 4 -41 12 -88 17 -105 22 -61 78 -66
140 -14 47 39 45 39 189 19 38 -6 50 -3 79 19 43 32 75 33 117 4 60 -41 114
-151 98 -201 -13 -42 -23 -47 -108 -47 -62 0 -99 -6 -159 -27 -42 -14 -74 -30
-70 -34 5 -5 34 -15 65 -23 45 -11 111 -14 319 -11 l262 3 23 -23 c31 -31 31
-81 1 -126 -47 -69 -151 -115 -290 -128 -107 -10 -135 -28 -100 -63 19 -18 34
-21 115 -23 86 -1 102 -5 213 -49 200 -81 269 -83 374 -11 l51 35 42 -37 c55
-48 67 -64 68 -85 0 -23 -46 -75 -72 -81 -13 -2 -81 -16 -152 -31 -121 -25
-196 -50 -196 -65 0 -4 10 -17 23 -29 23 -21 26 -22 203 -12 119 7 207 17 259
30 43 11 88 20 99 20 12 0 44 -20 71 -44 l50 -44 -26 -49 c-15 -26 -32 -66
-39 -88 -28 -88 -66 -115 -159 -115 -55 0 -111 -15 -111 -29 0 -4 7 -16 15
-28 13 -19 22 -21 69 -16 42 4 77 -1 163 -26 158 -45 196 -41 265 26 36 35 39
36 76 25 55 -17 106 -54 110 -79 3 -18 -9 -28 -66 -57 -38 -19 -105 -63 -148
-97 -44 -34 -85 -66 -91 -72 -7 -5 -38 -20 -70 -32 l-58 -24 30 -11 c34 -13
57 -24 135 -69 80 -45 129 -42 244 12 88 41 94 42 191 42 87 0 107 -4 157 -27
75 -35 148 -104 187 -177 17 -32 31 -61 31 -64 0 -16 -89 -27 -213 -27 -162 0
-183 -6 -249 -78 -51 -55 -58 -76 -30 -87 9 -4 174 -17 365 -29 330 -20 349
-20 380 -4 43 23 90 23 111 -1 17 -18 100 -230 93 -237 -1 -2 -51 -4 -111 -6
-107 -3 -108 -3 -130 25 -24 30 -44 33 -129 16 -60 -12 -62 -15 -48 -51 37
-95 43 -104 115 -155 104 -75 197 -116 274 -121 57 -4 62 -3 62 16 0 12 11 33
23 48 31 36 74 36 120 1 42 -32 136 -204 115 -212 -132 -48 -155 -47 -212 5
-24 22 -45 40 -48 40 -3 0 -26 -32 -52 -71 -51 -76 -91 -103 -150 -97 l-32 3
12 70 c15 85 25 74 -181 198 -124 75 -151 87 -176 82 -33 -8 -46 -26 -55 -82
-8 -49 -1 -61 83 -160 95 -113 98 -117 83 -153 -7 -17 -19 -30 -27 -30 -17 0
-242 56 -276 69 -62 24 -72 71 -33 149 44 87 44 85 -25 165 -75 87 -98 135
-99 204 l0 53 -62 31 c-70 35 -73 34 -97 -39 -13 -38 -12 -40 22 -85 40 -52
57 -116 57 -210 0 -76 -14 -128 -40 -152 -20 -18 -23 -18 -110 9 -50 14 -115
37 -144 50 -53 23 -55 26 -62 73 -11 78 -146 372 -190 416 -21 21 -131 64
-140 55 -2 -2 -11 -34 -21 -70 l-17 -66 38 -75 c36 -68 38 -80 33 -128 -7 -58
-30 -97 -65 -110 -16 -6 -39 0 -88 26 -78 41 -111 43 -149 13 l-28 -22 6 104
c4 58 9 115 13 128 6 20 3 22 -30 22 -78 0 -107 32 -152 162 -20 59 -97 178
-114 178 -10 0 -56 -52 -84 -94 -33 -50 -33 -75 3 -131 42 -66 141 -290 141
-318 0 -30 -37 -65 -76 -73 -37 -7 -45 2 -74 78 -12 34 -29 59 -40 63 -10 3
-48 -6 -85 -21 -77 -31 -74 -32 -201 52 -136 91 -209 183 -248 314 -9 30 -28
72 -42 93 l-25 39 -23 -25 c-14 -15 -40 -27 -67 -32 -108 -17 -129 -46 -129
-176 0 -54 -4 -82 -14 -92 -11 -11 -52 -14 -199 -13 l-185 1 -48 34 c-45 31
-52 33 -107 27 -32 -3 -63 -8 -67 -11 -13 -8 75 -150 105 -169 13 -9 65 -50
115 -91 81 -68 90 -79 90 -110 0 -24 -9 -45 -31 -70 -51 -57 -61 -60 -121 -26
-29 16 -116 48 -193 71 -77 23 -161 53 -188 67 -60 33 -120 93 -143 145 l-18
40 -73 -4 c-118 -8 -135 -37 -84 -149 15 -35 36 -85 45 -111 37 -101 92 -137
181 -118 46 10 58 9 79 -6 31 -20 32 -26 7 -49 -15 -13 -42 -18 -113 -21 -120
-4 -202 -26 -444 -122 -185 -73 -200 -81 -218 -113 -25 -45 -16 -80 27 -111
30 -22 41 -23 182 -23 165 0 183 -5 215 -58 16 -25 20 -50 20 -115 0 -96 11
-109 63 -70 90 68 543 328 572 328 11 0 36 -12 57 -27 36 -24 39 -30 36 -67
-3 -41 -3 -41 -68 -63 -41 -14 -75 -34 -92 -53 -44 -48 -38 -77 39 -168 63
-74 79 -72 173 24 100 101 203 168 411 266 168 80 177 83 246 83 110 0 111 -7
8 -127 -49 -57 -114 -130 -146 -163 -42 -44 -61 -71 -67 -102 -5 -23 -7 -44
-4 -48 3 -3 24 -5 46 -5 31 0 61 12 131 54 125 75 145 95 238 230 103 149 135
171 239 162 73 -7 342 -84 378 -109 21 -15 20 -16 -72 -89 -51 -40 -141 -111
-200 -156 -110 -85 -138 -114 -138 -143 0 -48 126 -143 182 -137 36 3 49 23
84 122 9 27 29 63 45 80 36 41 90 42 178 2 52 -23 68 -26 87 -17 34 15 30 47
-11 105 -46 65 -55 111 -26 139 20 21 32 22 228 25 114 2 218 0 231 -3 31 -8
82 -64 82 -90 0 -36 -27 -62 -77 -75 -47 -11 -49 -11 -136 34 -87 46 -96 47
-129 18 -16 -13 -15 -16 13 -39 39 -33 37 -62 -7 -134 -33 -53 -36 -61 -24
-88 25 -61 44 -70 176 -77 l121 -7 31 29 c23 21 36 46 47 89 17 71 51 104 133
135 67 25 113 25 214 -1 90 -22 142 -19 181 11 24 19 24 19 57 -15 41 -42 42
-76 4 -116 -27 -29 -29 -29 -136 -29 -104 0 -108 -1 -140 -29 -30 -26 -128
-186 -128 -208 0 -10 131 -43 168 -43 13 0 41 15 63 33 52 45 91 56 244 68
158 12 184 17 165 29 -8 5 -12 11 -10 13 31 25 61 37 93 37 31 0 40 -4 44 -21
4 -16 11 -19 27 -14 11 3 60 9 107 12 118 8 189 -14 230 -70 16 -22 29 -43 29
-47 0 -3 -24 -14 -52 -23 l-52 -17 -31 30 c-49 47 -92 60 -206 60 l-102 0 22
24 22 23 -53 -10 c-48 -10 -50 -11 -27 -21 13 -5 26 -11 28 -12 1 -2 -9 -18
-23 -36 -14 -19 -32 -51 -41 -71 -14 -35 -14 -38 5 -57 16 -16 33 -20 83 -20
108 0 185 -48 289 -178 56 -71 64 -93 52 -139 -6 -22 -7 -22 -37 -6 -25 12
-45 14 -101 8 -135 -15 -128 -17 -214 71 -42 43 -94 88 -114 99 l-37 19 -44
-22 c-24 -12 -51 -22 -58 -22 -27 0 -57 29 -88 86 -66 116 -176 112 -259 -10
-43 -65 -40 -80 23 -86 102 -11 555 -264 555 -310 0 -5 -17 -14 -37 -20 -21
-7 -63 -26 -93 -44 -86 -51 -119 -61 -200 -61 -66 1 -88 6 -190 49 -63 26
-151 61 -195 77 -146 52 -247 34 -323 -59 -33 -41 -37 -51 -36 -100 2 -76 15
-85 125 -80 78 4 89 7 132 38 61 43 67 40 186 -88 l93 -101 -31 -19 c-36 -22
-304 -49 -366 -38 -21 4 -63 21 -94 38 -47 25 -65 29 -111 26 -46 -3 -68 -12
-125 -51 -39 -25 -84 -51 -101 -57 -17 -6 -40 -24 -52 -39 l-21 -29 37 -24
c34 -23 48 -25 197 -30 118 -4 169 -9 191 -21 36 -18 108 -107 96 -119 -12
-12 -207 -84 -306 -112 -75 -22 -108 -26 -222 -26 l-133 0 -9 -32 c-7 -27 -2
-48 26 -113 53 -127 84 -147 205 -138 62 5 66 4 82 -21 15 -22 17 -40 12 -97
-3 -39 -14 -87 -24 -107 -15 -32 -23 -37 -56 -40 -27 -2 -51 4 -82 22 -24 14
-59 26 -78 26 -33 0 -35 -3 -75 -87 -56 -121 -61 -152 -29 -205 14 -24 48 -62
75 -85 91 -77 119 -190 67 -267 -78 -115 -92 -188 -77 -387 7 -79 9 -167 6
-195 -6 -43 -3 -54 17 -78 l24 -27 32 33 c24 25 40 61 67 153 20 66 48 151 63
190 l27 70 15 -35 c10 -25 17 -85 21 -200 6 -183 5 -182 81 -249 l46 -40 27
56 c25 52 27 62 25 183 l-2 129 42 47 c23 26 44 58 47 71 11 44 -4 104 -40
159 -20 29 -36 56 -36 59 0 4 23 30 51 60 l50 53 -26 44 c-15 23 -34 48 -42
55 -10 8 -13 21 -9 36 4 19 14 26 47 31 23 4 50 11 60 17 26 13 24 62 -3 110
l-22 40 60 60 61 60 21 -56 c30 -78 28 -117 -14 -210 -19 -44 -38 -86 -41 -94
-5 -11 -2 -11 16 -1 29 15 51 6 51 -20 0 -35 -18 -58 -55 -70 -30 -10 -35 -16
-35 -44 0 -43 39 -118 70 -133 27 -13 100 -17 138 -7 60 16 75 133 76 587 l1
349 33 29 c18 16 42 29 53 29 30 0 75 -29 88 -56 6 -13 31 -126 57 -251 56
-274 94 -367 108 -269 5 32 17 54 46 84 48 49 50 70 15 172 -34 101 -33 141 5
173 16 14 35 27 41 29 19 6 -63 218 -111 289 -60 88 -56 96 59 118 35 7 98 26
139 42 42 16 76 28 77 26 4 -6 25 -200 25 -234 0 -21 -9 -62 -20 -91 -11 -29
-20 -66 -20 -82 0 -29 0 -30 48 -24 36 5 53 13 74 36 41 47 85 136 104 211 9
38 24 78 34 89 36 45 141 7 193 -70 41 -61 68 -77 110 -63 18 6 48 26 65 44
57 59 62 83 61 317 -1 151 3 215 11 225 24 29 160 14 160 -18 0 -7 -22 -35
-50 -62 -27 -27 -50 -58 -50 -68 0 -10 15 -36 33 -57 18 -21 48 -75 66 -119
18 -45 37 -81 41 -81 4 0 36 30 72 68 69 71 115 150 142 244 22 76 20 101 -9
136 -14 17 -25 33 -25 36 0 3 32 6 70 6 62 0 70 -2 70 -19 0 -23 17 -30 94
-38 107 -10 118 -28 60 -93 -20 -22 -35 -42 -33 -44 2 -2 27 -14 55 -26 51
-21 74 -49 74 -90 0 -14 -12 -21 -56 -31 -53 -12 -55 -13 -52 -43 3 -29 8 -33
68 -52 l65 -21 -57 -29 c-67 -33 -65 -25 -47 -196 11 -111 5 -99 91 -174 27
-23 27 -26 22 -106 -10 -162 -25 -250 -60 -351 -189 -542 -240 -717 -286 -967
-20 -110 -23 -159 -23 -410 -1 -265 -2 -290 -23 -354 -29 -90 -28 -99 14 -146
39 -43 211 -141 281 -159 42 -11 44 -11 76 21 20 20 55 40 90 51 70 22 114 58
138 114 11 25 25 43 34 43 9 0 49 -14 88 -32 51 -23 87 -33 124 -33 52 0 52 0
141 88 49 48 96 87 104 87 24 0 40 -26 53 -83 l11 -52 185 -18 c229 -22 237
-19 254 84 4 30 28 58 138 166 79 77 150 138 177 150 63 31 352 67 481 61 122
-6 201 -40 290 -125 l61 -58 94 0 93 0 53 54 c29 30 77 66 108 80 54 25 60 26
260 26 174 0 213 -3 260 -19 138 -47 227 -122 335 -286 39 -57 85 -115 104
-127 49 -33 104 -30 180 9 l61 32 39 -38 c22 -21 47 -53 56 -70 l18 -33 64 33
c100 50 166 58 387 48 324 -15 433 -3 506 54 77 61 107 191 97 417 -6 135 -12
176 -71 490 -19 105 -40 242 -46 305 -15 151 -43 237 -151 460 -160 329 -430
790 -590 1007 -168 227 -207 499 -133 935 14 84 16 89 62 132 l47 45 21 -20
c17 -16 22 -35 26 -98 4 -64 11 -92 41 -152 36 -75 122 -226 173 -309 l28 -44
18 54 c21 70 23 194 3 251 -9 24 -31 60 -50 79 -31 31 -34 40 -28 73 5 34 8
37 37 37 79 0 238 -127 291 -233 34 -69 33 -115 -6 -170 -51 -73 -50 -107 11
-221 49 -95 57 -126 48 -190 -2 -15 21 -34 102 -82 l105 -63 23 67 c30 90 28
143 -8 227 -41 97 -39 116 16 175 26 28 55 50 64 50 27 0 57 -30 84 -85 24
-49 24 -49 5 -76 -23 -33 -24 -84 -2 -135 9 -22 20 -61 24 -89 5 -27 31 -94
59 -148 76 -146 77 -210 3 -289 -23 -24 -25 -32 -19 -82 4 -31 11 -56 15 -56
4 0 31 15 61 33 44 26 56 38 61 67 14 64 37 444 32 504 -6 65 1 76 53 76 37 0
75 -36 103 -100 43 -100 35 -212 -24 -335 -47 -97 -50 -115 -25 -148 21 -27
23 -27 144 -27 112 0 126 -2 157 -23 46 -31 59 -61 59 -140 0 -75 12 -107 59
-151 62 -59 140 -31 126 44 -6 30 -8 311 -2 316 1 1 22 -1 47 -5 39 -5 48 -11
63 -41 21 -42 19 -82 -13 -200 -30 -114 -25 -213 18 -303 23 -50 37 -67 66
-81 52 -25 86 -18 113 23 28 41 31 115 7 185 -9 26 -15 49 -12 51 6 6 90 -34
125 -61 18 -13 61 -72 95 -130 69 -117 87 -131 153 -117 50 10 67 43 68 127 0
66 -14 104 -65 169 l-30 37 18 50 c10 28 21 50 25 50 22 0 65 -53 105 -131 51
-98 67 -114 130 -124 64 -10 94 31 94 128 0 78 -34 140 -119 219 -96 89 -183
147 -364 243 -129 69 -152 85 -158 109 -10 36 4 64 38 77 22 8 55 -2 216 -67
l190 -77 46 19 c44 19 46 21 49 66 2 36 -2 51 -20 72 -23 26 -543 296 -570
296 -8 0 -25 -12 -39 -26 -59 -63 -109 -64 -109 0 1 61 29 188 46 207 24 27
40 24 132 -22 123 -61 217 -68 271 -18 19 18 22 28 16 58 -10 54 -19 66 -86
110 -83 56 -141 71 -269 71 -104 0 -107 1 -148 32 -46 36 -46 37 17 103 38 40
47 45 88 45 46 0 113 25 113 41 0 27 -39 60 -112 94 -68 32 -97 40 -182 47
-55 5 -140 6 -187 3 -105 -8 -183 2 -212 26 l-22 19 24 18 c20 16 47 20 182
24 157 5 178 10 238 54 11 9 -67 85 -98 95 -20 7 -106 15 -191 18 l-155 6 81
82 c81 81 94 105 94 172 0 48 46 124 111 186 35 33 93 88 128 123 l65 63 26
-19 c14 -10 43 -42 64 -71 22 -28 42 -47 46 -41 3 5 21 21 40 35 44 32 92 32
152 0 82 -44 115 -34 173 50 32 45 53 63 122 101 l83 45 -59 68 c-32 38 -93
114 -134 169 l-77 101 43 5 c91 13 298 26 307 21 5 -3 60 -72 122 -153 232
-304 314 -388 366 -376 64 15 86 69 48 114 -13 16 -27 49 -31 72 -15 100 -35
148 -68 168 -18 11 -46 20 -64 20 -31 0 -33 2 -52 67 -11 37 -18 69 -15 72 3
3 36 7 74 9 109 6 156 -24 378 -243 101 -99 184 -181 186 -183 5 -4 166 177
166 186 0 4 -37 32 -82 63 -46 30 -84 62 -86 71 -4 18 61 72 113 94 l37 15
106 -105 c110 -109 378 -314 525 -401 42 -26 114 -60 160 -77 70 -27 99 -32
202 -35 183 -7 234 18 183 89 -18 26 -23 46 -23 98 l0 65 58 -3 c41 -1 76 -11
117 -32 72 -37 114 -39 134 -7 8 12 28 73 44 136 l30 114 -24 21 c-14 12 -39
43 -57 71 -17 27 -44 56 -58 64 -25 14 -31 13 -79 -12 l-53 -27 -53 40 c-30
22 -54 44 -54 49 0 5 17 21 37 37 32 24 45 28 90 26 69 -4 92 19 122 116 14
47 32 83 52 103 28 29 30 36 25 73 -9 51 -20 62 -74 75 -41 9 -45 7 -80 -25
-48 -44 -73 -51 -212 -58 -161 -9 -170 -1 -125 115 10 25 16 53 12 61 -3 9
-40 35 -82 58 -96 53 -109 50 -195 -40 -61 -64 -68 -68 -120 -74 -30 -4 -89
-3 -130 1 l-75 8 70 39 c133 75 365 233 365 250 0 3 -14 13 -32 22 -26 14 -50
16 -128 11 -127 -8 -186 -28 -278 -92 -159 -113 -225 -155 -241 -155 -9 0 -41
16 -71 35 -71 46 -97 45 -155 -5 -25 -22 -49 -40 -53 -40 -14 0 -30 16 -65 62
l-36 47 47 27 c101 59 191 167 192 230 0 28 -84 74 -136 74 -70 -1 -119 -33
-269 -179 -166 -161 -177 -167 -312 -156 -72 6 -83 10 -78 24 37 101 62 155
84 181 23 26 35 31 91 36 36 4 75 13 87 20 28 17 77 100 70 118 -3 7 -24 22
-47 34 -38 19 -45 19 -103 6 -205 -45 -246 -73 -313 -211 -52 -106 -107 -174
-165 -204 -84 -42 -178 -33 -244 25 l-36 31 23 45 c20 39 29 46 72 56 59 15
96 44 193 151 l74 81 -134 96 c-186 132 -198 139 -241 131 l-35 -7 6 -52 c3
-28 14 -70 25 -94 10 -24 18 -47 18 -52 0 -4 -32 -45 -71 -91 -91 -107 -119
-164 -119 -245 l0 -62 -92 -6 c-51 -4 -105 -9 -120 -12 l-28 -6 0 62 c0 34 5
71 11 83 6 12 51 63 100 113 98 101 104 116 69 183 -29 58 -74 91 -121 91 -35
0 -47 -6 -91 -52 -126 -130 -256 -317 -292 -423 -15 -44 -47 -118 -70 -165
l-42 -85 -45 -3 c-36 -2 -49 2 -66 20 l-22 23 44 111 c24 61 55 135 70 164
l27 52 45 -6 c25 -3 52 -11 60 -17 36 -30 25 46 -12 81 -24 22 -42 25 -131 22
l-51 -2 -101 -132 c-96 -124 -101 -134 -96 -168 8 -51 -14 -90 -84 -143 -32
-25 -64 -52 -71 -61 -17 -21 -34 -20 -61 2 l-22 18 31 113 c17 62 48 145 68
184 48 96 55 123 43 169 -14 49 -107 150 -168 180 -43 21 -62 23 -203 24 -193
2 -229 16 -229 87 1 32 77 146 106 159 22 10 49 4 192 -45 188 -64 522 -157
564 -157 40 0 70 33 62 68 -9 37 -15 42 -65 53 -24 6 -73 27 -109 49 -78 47
-135 63 -305 90 -152 24 -220 42 -289 77 l-50 25 25 19 c13 11 43 24 66 30 54
14 68 31 86 102 16 61 40 97 65 97 29 0 171 -69 297 -144 183 -110 193 -119
197 -164 3 -33 6 -37 33 -40 34 -2 210 86 210 106 0 23 -113 137 -182 185 -57
38 -78 47 -113 47 -69 0 -118 20 -178 74 -32 28 -77 60 -100 70 -48 22 -48 22
1 105 49 84 91 121 134 121 51 0 85 -29 189 -164 l89 -116 120 0 c128 0 180 9
216 39 26 21 28 64 5 109 -13 25 -23 30 -67 35 -90 11 -103 43 -38 101 47 43
68 52 169 73 41 8 90 24 109 36 l33 20 -23 18 c-13 11 -106 65 -207 120 -180
100 -221 132 -208 165 6 15 22 16 144 10 75 -3 169 -9 208 -13 l72 -6 5 -40
c6 -45 32 -86 68 -105 28 -15 314 -8 412 10 62 12 70 25 36 59 -18 18 -28 20
-97 14 l-78 -7 -63 65 c-35 36 -75 68 -90 72 -14 4 -63 33 -108 66 -46 33 -96
65 -113 71 -43 14 -88 3 -133 -33 l-38 -31 -25 23 c-13 12 -26 31 -30 41 -8
25 31 102 66 132 53 44 93 43 247 -10 190 -65 220 -79 286 -130 108 -85 151
-75 182 41 17 60 20 65 45 65 18 0 49 -18 90 -50 81 -64 101 -65 177 -2 32 27
97 72 145 101 48 28 90 56 93 60 3 5 -2 28 -10 51 -8 23 -15 57 -15 75 0 56
-36 94 -145 152 -111 60 -136 84 -133 128 2 23 14 37 52 63 26 17 58 32 69 32
12 0 90 -45 173 -101 83 -55 178 -111 210 -124 104 -43 200 -26 256 44 23 29
24 29 143 33 100 3 127 8 162 26 107 56 94 171 -28 267 -51 39 -141 75 -189
75 -65 0 -118 20 -130 50 -16 38 -7 62 36 100 l35 30 27 -18 c62 -44 143 -52
288 -31 70 11 86 10 175 -11 92 -22 99 -22 123 -6 56 36 138 234 138 333 0 53
-19 78 -80 105 -23 10 -77 46 -121 78 -91 69 -116 80 -179 80 -45 0 -51 -4
-102 -56 -73 -74 -128 -103 -302 -162 -188 -65 -249 -95 -319 -159 -65 -60
-106 -69 -153 -32 -22 17 -26 28 -26 70 l0 49 215 216 c227 228 236 241 193
282 -34 30 -136 82 -165 82 -18 0 -82 -57 -265 -238 l-241 -239 16 -42 c41
-101 14 -151 -131 -251 -34 -24 -71 -58 -82 -75 -12 -19 -31 -35 -46 -38 -22
-4 -28 1 -40 30 -12 28 -13 46 -3 96 16 88 24 104 152 287 86 121 116 173 117
196 0 61 -35 67 -177 29 -104 -28 -184 -64 -226 -104 -62 -57 -89 -154 -69
-248 11 -47 9 -54 -18 -104 -15 -30 -46 -101 -68 -159 -52 -139 -75 -183 -125
-237 -48 -53 -103 -83 -149 -83 -38 0 -51 7 -66 36 -16 30 -26 126 -18 160 4
15 40 62 81 103 80 82 95 110 95 174 0 46 -28 214 -40 236 -5 9 -29 -9 -87
-65 -64 -63 -88 -96 -122 -166 -26 -54 -62 -108 -94 -143 -74 -78 -98 -73
-117 25 -6 30 -12 55 -15 58 -2 2 -33 7 -69 9 l-66 6 -26 -59 c-55 -124 -94
-264 -129 -464 -40 -228 -60 -315 -79 -342 -8 -10 -39 -38 -70 -63 l-57 -44
-49 48 c-28 27 -50 58 -50 69 0 11 14 50 31 86 38 81 44 143 34 328 -5 106
-11 139 -25 158 l-18 24 -21 -24 c-42 -49 -92 -165 -106 -245 -9 -48 -14 -149
-15 -249 0 -148 -3 -184 -26 -279 l-26 -109 -107 113 -108 114 25 19 c61 48
83 187 41 256 l-22 35 -16 -24 c-8 -13 -45 -43 -82 -66 -88 -57 -106 -94 -90
-181 16 -88 14 -155 -10 -285 -11 -63 -25 -152 -30 -197 -5 -46 -16 -98 -25
-115 -9 -18 -55 -69 -102 -114 l-86 -82 -33 20 -33 21 0 112 c0 101 3 117 26
165 17 33 41 62 65 78 27 17 42 37 49 62 9 32 8 38 -12 55 -13 10 -56 35 -97
54 l-74 34 -18 -23 c-27 -34 -32 -79 -25 -184 9 -123 -9 -323 -40 -443 -44
-169 -134 -332 -257 -464 -45 -49 -58 -58 -88 -58 -48 0 -59 15 -59 80 0 47 5
63 31 98 61 83 48 138 -52 222 l-51 43 -19 -24 c-17 -21 -19 -46 -20 -234 0
-115 -4 -249 -7 -297 -7 -84 -8 -88 -47 -128 -21 -22 -43 -40 -48 -40 -15 0
-100 91 -119 128 -10 18 -22 31 -28 27 -5 -3 -17 -30 -25 -60 -14 -47 -15 -70
-4 -175 15 -156 5 -214 -51 -270 -21 -21 -55 -43 -76 -50 -48 -15 -64 -28 -64
-48 0 -33 -44 -105 -81 -132 -21 -15 -85 -42 -141 -60 -57 -18 -133 -45 -170
-61 -36 -16 -81 -29 -98 -29 -49 0 -91 49 -130 154 -33 87 -43 100 -134 184
-51 46 -49 77 9 125 52 44 72 79 120 213 52 147 99 205 188 234 40 13 43 19
50 108 l4 52 -41 0 c-89 0 -103 -10 -314 -215 -222 -217 -245 -229 -265 -146
-8 34 2 50 105 159 50 54 110 124 134 158 56 79 112 197 120 254 8 64 -8 82
-72 82 -92 0 -130 -34 -189 -168 -18 -42 -39 -80 -46 -85 -8 -5 -32 -9 -55 -9
-51 0 -75 24 -81 82 -4 40 -1 45 32 68 61 43 131 146 226 331 98 193 151 272
223 332 56 46 77 104 51 143 -21 32 -45 30 -80 -6 -23 -24 -37 -30 -70 -30
-68 0 -96 -32 -147 -167 -27 -72 -64 -110 -115 -119 -37 -6 -40 -9 -77 -90
-58 -125 -137 -197 -190 -173 -42 19 -40 39 6 86 l43 44 -3 84 c-3 79 -1 87
22 110 14 14 34 25 46 25 16 0 20 6 20 36 0 116 45 177 176 240 l94 45 0 54
c0 50 -2 56 -30 70 -16 8 -45 15 -65 15 -32 0 -46 -11 -134 -97 -61 -62 -114
-125 -141 -171 -23 -40 -45 -71 -47 -68 -11 10 -32 168 -33 239 0 71 2 77 21
77 13 0 78 58 184 163 179 178 183 184 170 286 -7 61 -42 111 -79 111 -95 0
-302 -219 -362 -384 -19 -52 -26 -61 -45 -58 -56 6 -82 66 -81 186 1 103 25
181 97 311 31 55 81 151 112 213 47 94 60 112 79 112 64 0 96 34 121 127 21
82 46 125 85 147 77 44 93 78 64 134 -29 55 -149 152 -189 152 -25 0 -56 -45
-100 -146 -55 -127 -96 -201 -197 -353 -79 -120 -80 -121 -119 -121 -21 0 -52
-3 -68 -6 -34 -7 -38 -2 -48 71 l-8 47 121 117 c150 144 156 156 147 300 -11
176 26 256 180 397 47 43 88 88 91 101 12 47 -86 213 -126 213 -10 0 -52 -34
-94 -75 -42 -41 -82 -75 -90 -75 -22 0 -46 40 -46 76 0 22 13 49 39 84 43 57
57 114 46 183 -13 78 -50 106 -117 86 -34 -9 -37 -12 -179 -201 -61 -82 -113
-148 -115 -148 -2 0 -13 14 -23 31 -21 34 -21 56 0 260 11 99 10 111 -11 183
-18 59 -31 84 -57 106 -43 38 -73 38 -118 -2z m4618 -1975 c23 -6 47 -61 47
-104 0 -92 -65 -183 -165 -230 -76 -37 -90 -36 -104 2 -8 25 -6 41 13 92 24
65 101 223 119 245 10 12 36 11 90 -5z m1766 -32 c49 -22 117 -54 151 -71 l63
-32 -7 -46 c-3 -26 -13 -53 -20 -61 -17 -16 -38 -5 -213 108 -79 51 -104 72
-108 93 -14 60 13 62 134 9z m-717 -176 c9 -19 9 -47 0 -111 -6 -46 -14 -89
-17 -94 -13 -21 -136 -2 -182 27 -25 16 -48 62 -61 120 -11 50 -7 53 81 54 34
0 78 7 97 14 52 20 69 18 82 -10z m-324 -250 c23 -9 73 -53 133 -117 88 -92
96 -104 86 -125 -9 -20 -18 -23 -63 -23 -50 0 -60 5 -196 96 -79 53 -146 101
-151 108 -4 6 -6 20 -5 31 6 40 125 58 196 30z m-837 -775 c68 -28 131 -57
139 -66 13 -14 12 -17 -14 -37 -17 -12 -41 -20 -56 -19 -18 2 -42 -9 -77 -37
-67 -53 -94 -54 -129 -1 -14 22 -37 69 -50 104 l-23 65 27 20 c15 11 34 21 43
21 8 0 71 -23 140 -50z m-989 -1400 c15 -46 26 -85 25 -87 -5 -4 -149 113
-149 122 1 10 75 55 86 52 5 -2 22 -41 38 -87z m417 -106 c67 -29 81 -46 81
-94 0 -46 -19 -64 -134 -129 -101 -57 -118 -56 -136 7 -14 51 -12 172 3 202
28 55 82 59 186 14z m-553 -69 c17 -7 76 -42 131 -77 l99 -65 12 -65 c15 -84
15 -186 -1 -217 -6 -13 -23 -33 -37 -43 -21 -15 -31 -17 -56 -8 -29 10 -32 16
-53 108 -29 130 -45 156 -110 172 -70 17 -81 35 -81 138 l0 84 33 -7 c17 -4
46 -13 63 -20z m-8627 -257 c134 -39 144 -44 157 -72 28 -67 -41 -77 -201 -31
-129 37 -215 79 -215 104 0 27 47 52 85 46 17 -3 95 -24 174 -47z m1483 -318
c21 -6 57 -26 81 -44 33 -25 58 -35 103 -41 32 -4 83 -16 113 -27 l55 -21 -44
-22 c-49 -25 -47 -28 33 -46 43 -9 54 -15 43 -21 -9 -5 -20 -7 -24 -4 -4 2
-61 12 -127 21 -66 10 -139 25 -162 35 -54 23 -233 139 -233 151 0 4 17 11 38
14 20 4 42 8 47 10 19 6 40 5 77 -5z m1896 -181 l61 -76 -60 -52 c-69 -58
-113 -67 -149 -31 -23 23 -28 99 -9 147 12 34 80 106 89 95 4 -4 34 -41 68
-83z m-1105 -65 c68 -47 86 -64 68 -64 -5 0 -58 9 -117 21 -112 21 -148 21
-67 -1 65 -18 175 -61 169 -67 -3 -3 -67 13 -143 36 -76 22 -178 52 -228 66
-77 21 -83 24 -40 20 48 -4 49 -4 15 7 l-35 11 40 9 c69 16 178 24 225 16 28
-5 71 -26 113 -54z m7232 -241 c16 -8 62 -42 101 -73 98 -81 146 -105 218
-107 59 -1 88 -15 70 -32 -26 -26 -181 -83 -224 -83 -58 0 -94 18 -256 129
l-127 87 58 54 c54 50 60 53 94 47 19 -4 49 -14 66 -22z m-272 -319 c75 -31
137 -60 137 -64 0 -4 -8 -10 -17 -13 -10 -3 -72 -28 -138 -55 -167 -69 -161
-67 -180 -38 -9 14 -23 45 -30 68 -14 48 -5 91 30 144 20 32 19 32 198 -42z
m191 -316 c9 -12 27 -52 41 -89 32 -83 53 -104 97 -96 18 3 41 8 51 12 26 11
22 -21 -8 -50 -53 -54 -204 -22 -270 57 -60 71 -72 152 -25 175 41 21 96 16
114 -9z m-6497 -1266 c11 -98 -42 -182 -114 -182 -52 0 -123 21 -132 39 -5 9
-11 36 -12 61 -4 45 -3 45 34 54 38 10 48 5 60 -28 2 -5 20 -3 40 3 28 10 44
25 69 67 18 29 36 50 40 46 5 -5 11 -32 15 -60z"/>
<path d="M3352 1787 c-39 -41 -40 -47 -3 -47 26 0 29 4 33 38 3 20 4 38 3 39
-1 2 -16 -12 -33 -30z"/>
</g>
</svg>
