<?xml version="1.0" standalone="no"?>
<!DOCTYPE svg PUBLIC "-//W3C//DTD SVG 20010904//EN"
 "http://www.w3.org/TR/2001/REC-SVG-20010904/DTD/svg10.dtd">
<svg version="1.0" xmlns="http://www.w3.org/2000/svg"
 width="1536.000000pt" height="525.000000pt" viewBox="0 0 1536.000000 525.000000"
 preserveAspectRatio="xMidYMid meet">
<metadata>
Created by potrace 1.16, written by Peter Selinger 2001-2019
</metadata>
<g transform="translate(0.000000,525.000000) scale(0.100000,-0.100000)"
fill="#000000" stroke="none">
<path d="M10660 5233 c-47 -8 -132 -30 -189 -49 -62 -20 -107 -31 -110 -25
-11 17 -61 31 -111 31 -114 0 -602 -114 -647 -152 -10 -8 -18 -6 -33 7 -19 17
-24 17 -117 -5 -122 -27 -331 -87 -486 -138 -65 -21 -120 -35 -123 -31 -15 24
-99 6 -379 -83 -172 -54 -246 -87 -267 -116 -9 -13 -32 -21 -73 -26 -81 -10
-188 -36 -423 -100 -260 -72 -388 -118 -560 -205 l-144 -72 -32 24 c-88 68
-359 176 -616 247 -163 45 -455 32 -555 -25 -28 -16 -65 -25 -125 -30 -47 -3
-220 -22 -385 -40 -165 -18 -331 -36 -370 -40 -38 -4 -148 -22 -242 -40 -185
-36 -249 -61 -308 -122 -18 -18 -39 -33 -48 -33 -18 0 -322 -136 -357 -161
-14 -9 -48 -24 -75 -31 -47 -14 -58 -23 -68 -59 -6 -20 -171 -109 -247 -134
-30 -10 -76 -28 -101 -41 -25 -12 -84 -32 -130 -44 -46 -12 -118 -34 -159 -50
-41 -15 -93 -32 -115 -38 -22 -7 -74 -32 -115 -56 -41 -25 -113 -65 -160 -90
-47 -25 -121 -73 -165 -106 -44 -33 -100 -71 -125 -84 -25 -13 -54 -37 -65
-53 -11 -15 -61 -71 -111 -124 -50 -53 -111 -121 -137 -151 -50 -58 -97 -152
-97 -193 0 -48 24 -27 83 71 25 41 62 82 114 125 43 35 101 87 130 114 89 85
97 91 145 113 25 11 49 29 52 40 4 11 21 26 39 33 18 7 55 31 82 54 75 62 143
106 179 116 17 5 63 28 101 50 38 23 98 50 134 60 36 9 111 33 166 52 55 20
135 45 178 57 81 21 281 107 329 141 22 16 31 17 51 8 32 -15 152 17 262 70
44 21 103 49 132 61 28 12 61 32 73 45 18 19 27 22 41 14 45 -24 170 -14 329
24 256 63 415 97 615 132 105 18 222 44 260 58 99 37 148 46 161 32 6 -6 16
-27 23 -47 17 -51 40 -67 112 -79 35 -5 69 -16 75 -24 7 -10 22 -12 46 -9 26
5 50 -1 92 -21 31 -15 64 -24 72 -21 8 3 30 -2 47 -11 18 -9 44 -16 59 -15 16
1 45 -5 65 -14 21 -9 53 -16 70 -15 18 1 46 -5 61 -13 16 -8 38 -13 49 -10 11
3 39 -4 61 -15 27 -14 51 -19 69 -15 20 4 41 -1 66 -16 29 -17 40 -20 51 -11
11 9 23 8 51 -4 21 -8 53 -15 72 -15 30 0 34 -3 27 -17 -15 -37 -16 -91 0
-121 18 -36 20 -46 6 -37 -21 13 -214 45 -273 45 -139 0 -380 -61 -395 -101
-2 -4 -53 15 -114 42 -220 98 -472 143 -803 143 -291 1 -442 -22 -755 -114
-224 -66 -604 -211 -823 -314 -157 -75 -327 -196 -500 -358 l-114 -108 -84 1
c-104 0 -405 -43 -519 -75 -95 -27 -149 -47 -263 -100 -43 -20 -81 -36 -84
-36 -10 0 -655 -341 -727 -385 -41 -25 -84 -49 -94 -53 -24 -9 -179 -107 -351
-222 -158 -105 -326 -237 -340 -267 -6 -13 -17 -23 -25 -23 -24 0 -178 -95
-283 -175 -124 -93 -318 -295 -358 -371 -23 -44 -20 -100 7 -118 32 -23 47
-20 108 21 30 20 97 63 150 96 52 32 116 78 141 102 25 23 63 48 85 55 21 7
56 28 76 47 34 33 61 44 175 73 18 4 52 19 75 33 40 23 45 24 72 10 57 -30
141 5 281 117 60 48 127 90 200 125 61 28 213 107 338 173 391 209 880 410
1327 547 85 26 159 51 164 56 18 16 71 9 111 -16 22 -14 46 -25 54 -25 8 0 29
-11 47 -25 31 -24 33 -29 28 -70 -7 -50 1 -95 18 -95 6 0 21 11 34 25 13 14
36 28 51 31 35 7 50 19 91 72 23 29 41 42 58 42 13 0 24 -4 24 -8 0 -14 -22
-31 -35 -26 -20 8 -61 -55 -80 -121 -23 -83 -105 -162 -233 -226 -86 -43 -91
-47 -75 -61 10 -9 44 -23 76 -31 71 -19 124 -7 216 46 97 58 298 213 396 307
81 77 100 90 190 128 232 97 365 123 1078 207 493 58 540 68 710 159 129 68
504 190 556 180 23 -5 30 -11 26 -23 -12 -39 9 -46 137 -44 100 1 140 6 213
28 117 34 228 79 288 116 43 26 47 27 47 10 0 -11 -12 -34 -27 -51 -21 -26
-24 -33 -12 -41 23 -14 47 -10 100 16 60 31 207 168 215 202 8 30 47 31 68 1
25 -35 92 -75 149 -88 28 -7 63 -17 76 -22 23 -8 22 -9 -23 -44 -46 -35 -53
-52 -48 -119 5 -64 48 -122 113 -156 66 -33 76 -24 30 26 -45 49 -58 105 -23
105 27 0 146 73 156 96 8 19 21 22 95 27 132 9 270 61 324 123 12 15 32 24 48
24 17 0 42 12 61 29 18 15 47 35 64 44 16 8 49 36 71 60 23 25 44 43 46 40 3
-2 24 20 46 50 l42 55 63 -67 c102 -106 213 -240 272 -327 30 -44 68 -88 85
-98 37 -22 37 -47 0 -69 -27 -16 -30 -16 -55 4 -38 30 -150 41 -295 29 -213
-16 -374 -81 -573 -230 -195 -147 -249 -225 -339 -487 -66 -192 -72 -215 -76
-291 -7 -119 39 -227 107 -250 24 -9 30 -8 30 4 0 7 -4 14 -10 14 -17 0 -39
56 -46 114 -6 48 -4 60 17 90 18 26 34 36 73 45 77 17 146 53 198 104 46 45
47 47 41 95 -7 59 22 131 80 200 21 24 37 49 37 55 0 7 25 46 55 87 30 41 55
77 55 80 0 3 19 6 43 6 23 0 80 6 127 12 47 7 132 12 189 12 57 0 133 5 168
11 35 6 66 9 68 7 3 -2 -19 -29 -48 -59 -94 -96 -202 -274 -237 -387 -32 -103
-70 -279 -79 -362 -5 -48 -4 -124 5 -212 16 -169 20 -186 53 -222 107 -120
171 -157 285 -164 62 -3 75 -1 106 20 44 30 80 92 63 109 -9 9 -23 9 -58 0
-42 -10 -50 -9 -86 11 -38 21 -99 102 -99 131 0 6 13 19 29 28 20 12 30 27 34
54 3 20 13 42 22 49 13 9 13 16 3 43 -11 30 -10 34 25 72 39 43 42 53 52 144
3 32 16 79 29 105 13 26 36 88 51 137 30 101 59 156 104 199 17 17 31 38 31
48 0 15 4 16 26 7 15 -5 35 -7 45 -4 13 4 19 1 19 -8 0 -20 31 -27 118 -27
117 0 200 37 313 138 86 77 219 370 219 481 l0 43 40 -50 c52 -67 76 -82 129
-82 26 0 51 -6 62 -16 13 -12 22 -13 38 -5 28 15 28 15 41 -24 10 -31 9 -38
-9 -61 -32 -40 -25 -124 9 -124 10 0 23 -6 29 -14 10 -12 6 -15 -21 -21 -152
-30 -294 -121 -378 -242 -108 -155 -134 -242 -84 -282 27 -21 82 -28 99 -12 6
4 25 13 43 19 l33 11 -31 -37 c-16 -20 -30 -40 -30 -45 0 -5 -14 -20 -30 -34
-53 -44 -64 -83 -65 -223 l0 -125 37 -66 c62 -109 234 -231 340 -240 54 -5 55
6 1 29 -76 33 -145 84 -177 130 -23 33 -27 45 -18 54 7 7 12 26 12 44 0 32 7
56 45 164 13 36 26 77 29 91 4 18 18 31 46 44 39 18 40 19 40 72 0 30 4 53 10
53 25 0 123 85 171 148 56 74 163 286 178 354 30 140 31 146 15 235 -8 49 -21
115 -29 147 -13 58 -13 60 12 93 l25 33 -26 98 c-31 116 -33 147 -10 138 9 -3
24 -6 34 -6 14 0 24 -17 41 -67 31 -94 72 -174 112 -217 30 -31 40 -36 80 -36
25 0 49 5 52 10 9 14 85 -33 101 -62 18 -31 17 -70 -1 -104 -20 -39 -19 -80 4
-118 32 -52 30 -59 -45 -124 -76 -64 -179 -193 -218 -271 -53 -105 -80 -259
-55 -314 22 -49 79 -66 142 -42 16 7 17 -3 17 -126 0 -74 5 -151 10 -171 18
-63 95 -157 148 -180 26 -11 70 -30 97 -43 105 -48 171 -65 260 -65 86 0 114
13 51 23 -19 3 -90 32 -158 65 -89 44 -124 66 -125 79 0 10 -8 58 -17 107 -9
49 -16 102 -16 118 0 17 -8 44 -17 60 -14 24 -15 32 -5 35 16 6 47 68 57 113
4 19 21 49 37 65 74 74 125 244 148 485 6 63 15 151 20 195 9 81 -1 312 -14
333 -4 7 -4 32 0 57 l6 45 40 -63 c54 -84 95 -126 118 -120 12 3 31 -7 53 -29
29 -29 103 -72 194 -111 15 -7 23 -22 28 -56 4 -25 13 -58 21 -73 8 -15 19
-76 25 -135 10 -106 21 -133 53 -133 6 0 19 -28 29 -61 16 -55 66 -140 114
-194 35 -39 99 -83 179 -123 125 -63 174 -66 233 -16 l31 26 0 -32 c0 -37 23
-85 45 -94 9 -3 31 -6 48 -6 l32 0 -3 -104 c-3 -83 1 -122 18 -188 25 -97 111
-275 146 -301 13 -10 24 -25 24 -32 0 -36 141 -105 215 -105 34 0 95 23 95 36
0 4 -20 3 -44 0 -78 -12 -127 26 -145 111 -6 29 -19 72 -30 95 -54 120 -70
185 -80 336 -7 103 -16 168 -31 211 -16 49 -18 66 -9 77 17 21 27 17 33 -14
10 -43 118 -195 151 -212 17 -8 48 -32 70 -53 61 -59 148 -115 261 -168 57
-27 107 -49 112 -49 5 0 47 -18 93 -39 98 -46 227 -91 261 -91 14 0 37 -13 53
-30 l28 -30 -26 -52 c-14 -29 -40 -100 -58 -157 -34 -111 -34 -158 -2 -193 16
-18 18 -17 43 46 29 74 57 112 44 61 -4 -16 -7 -41 -7 -55 0 -32 45 -130 58
-126 5 1 19 31 30 67 11 35 26 74 34 87 9 17 9 27 1 36 -12 16 3 66 20 66 5 0
10 14 10 31 0 17 5 39 10 50 11 19 12 19 41 2 16 -10 27 -23 24 -30 -2 -7 -12
-50 -21 -94 -12 -61 -14 -87 -5 -105 6 -13 15 -24 20 -24 16 0 59 81 74 139
l14 54 6 -72 c3 -42 13 -84 23 -98 l16 -26 24 49 c13 27 24 59 24 71 0 21 4
20 80 -20 67 -36 82 -40 98 -30 17 10 23 8 38 -9 11 -11 48 -43 83 -69 35 -27
116 -104 180 -171 109 -115 324 -375 366 -443 10 -16 27 -40 38 -52 18 -20 19
-33 15 -117 -6 -106 -21 -140 -83 -189 -20 -16 -34 -31 -32 -34 3 -2 28 6 57
18 104 45 179 181 182 329 1 55 -3 73 -27 115 -45 79 -172 262 -247 357 -81
102 -268 283 -384 371 -79 60 -131 126 -125 157 10 49 67 156 99 184 71 62
141 188 258 466 31 74 70 154 86 177 31 46 82 89 112 94 10 2 27 15 37 29 18
23 18 28 3 80 -8 30 -19 111 -24 180 -8 122 -11 132 -99 390 -101 292 -120
338 -162 391 -16 20 -29 41 -29 47 0 50 -139 223 -309 384 -119 113 -179 156
-228 164 -32 5 -43 11 -45 27 -4 26 -190 170 -292 226 -39 22 -102 50 -141 62
-56 17 -81 33 -125 75 -90 86 -436 275 -566 309 -40 10 -70 27 -107 61 -67 60
-177 115 -366 181 -188 65 -217 72 -357 83 -103 8 -112 10 -142 38 -54 50
-114 72 -280 102 -280 51 -389 62 -542 54 l-139 -7 -10 25 c-19 50 -143 78
-336 77 -66 0 -158 -8 -205 -16z m644 -821 c20 -17 43 -32 51 -32 19 0 19 -19
1 -26 -24 -9 -39 -59 -31 -105 6 -32 19 -54 56 -91 l49 -49 -20 -39 c-11 -22
-24 -40 -28 -39 -4 0 -25 37 -47 81 -30 61 -59 101 -117 160 -88 88 -95 111
-49 146 16 12 38 35 47 51 l18 30 16 -27 c9 -15 33 -42 54 -60z m-829 -15 c23
-16 53 -27 72 -27 30 0 33 -3 33 -29 0 -21 9 -36 35 -55 30 -23 34 -31 28 -57
-6 -32 18 -69 45 -69 10 0 12 -5 6 -17 -4 -10 -16 -53 -27 -95 -24 -93 -14
-97 -157 62 -57 63 -123 130 -146 150 -24 19 -43 44 -43 56 -1 11 -6 25 -12
31 -7 7 3 18 35 37 25 15 51 36 57 48 10 19 13 20 23 7 6 -9 29 -27 51 -42z
m-750 -77 c12 0 34 -14 50 -30 29 -30 29 -31 17 -86 -9 -46 -9 -62 3 -88 30
-67 61 -86 138 -86 l55 0 -19 -37 c-15 -29 -19 -59 -19 -130 l0 -93 -66 65
c-104 101 -229 168 -359 190 l-40 7 42 36 c75 66 108 157 66 181 -15 8 -11 15
28 53 39 40 46 43 64 31 11 -7 29 -13 40 -13z m2350 -38 c16 -26 36 -56 44
-68 12 -18 11 -23 -12 -47 -37 -41 -38 -69 -6 -126 16 -27 33 -53 39 -56 8 -5
7 -11 -1 -21 -14 -17 -29 -9 -29 14 0 34 -50 123 -96 172 -44 47 -46 51 -30
68 22 25 20 48 -6 66 -25 17 -24 18 17 33 46 17 48 16 80 -35z m-1056 -41 c12
-8 45 -110 38 -117 -2 -2 -24 16 -50 40 -52 48 -63 86 -24 86 12 0 28 -4 36
-9z m-742 -91 c29 -36 6 -40 -33 -7 -16 14 -24 29 -20 36 8 13 28 2 53 -29z
m-1249 -14 l33 -17 -30 -29 c-29 -26 -31 -33 -31 -97 0 -59 3 -73 23 -91 31
-29 89 -52 134 -52 l38 0 24 -75 c28 -89 43 -119 128 -250 73 -112 136 -182
204 -226 50 -32 178 -79 216 -79 26 0 30 -15 8 -36 -21 -21 -19 -58 5 -79 29
-26 25 -35 -18 -35 -21 0 -76 -14 -121 -30 -46 -17 -85 -29 -87 -27 -2 2 -4
48 -5 101 l-1 97 -75 100 c-135 180 -217 257 -408 386 -108 73 -225 187 -201
196 21 8 66 100 66 134 0 15 -6 39 -13 53 -12 23 -10 28 17 62 26 31 33 35 46
24 8 -8 30 -21 48 -30z m2778 18 c14 -9 29 -25 35 -35 8 -15 1 -14 -41 8 -35
18 -47 29 -38 34 17 11 15 12 44 -7z m1020 -216 c15 -24 40 -60 57 -81 26 -34
28 -40 15 -55 -21 -23 -38 -78 -38 -119 0 -38 18 -72 69 -126 l35 -37 -24 -17
c-31 -22 -68 -58 -101 -101 l-26 -34 -7 96 c-10 140 -63 297 -135 396 l-33 45
44 5 c38 4 43 8 46 32 3 25 13 32 59 37 7 0 25 -18 39 -41z m-4561 -227 c-4
-17 -12 -31 -19 -31 -24 0 -25 12 -4 41 26 34 32 31 23 -10z m313 -47 c35 -24
46 -53 29 -72 -8 -9 -21 -30 -30 -47 -11 -22 -29 -35 -64 -47 -28 -10 -67 -31
-88 -48 -57 -45 -69 -36 -22 16 51 55 137 181 137 200 0 18 10 18 38 -2z
m4906 -129 c-27 -66 -9 -159 47 -241 29 -42 28 -47 -8 -67 -7 -4 -24 15 -43
50 -18 31 -57 83 -88 115 l-55 58 50 0 c60 0 78 16 70 63 -4 27 -1 35 16 44
12 6 23 11 24 12 1 0 -5 -15 -13 -34z m-5211 -160 c15 1 27 -2 27 -6 0 -7
-143 -48 -149 -42 -3 2 15 24 40 49 42 43 44 44 50 22 4 -17 12 -23 32 -23z
m5591 -320 c21 -32 20 -45 -4 -45 -22 0 -152 -35 -172 -46 -7 -4 14 21 47 55
67 69 101 79 129 36z m-322 -267 c-7 -7 -12 -8 -12 -2 0 14 12 26 19 19 2 -3
-1 -11 -7 -17z m646 -87 c17 -17 32 -32 32 -34 0 -3 -29 -2 -65 1 -88 7 -210
-14 -263 -45 -36 -20 -43 -29 -40 -51 3 -26 0 -28 -82 -48 -88 -23 -230 -85
-251 -110 -6 -8 -17 -14 -24 -14 -6 0 -37 -18 -69 -40 -40 -28 -53 -34 -46
-20 6 11 16 20 23 20 7 0 27 23 46 50 18 28 37 50 42 50 7 0 69 54 159 140 20
19 39 41 41 49 4 11 10 11 37 -3 28 -14 35 -15 60 -3 15 8 61 22 102 31 41 9
111 25 155 35 107 25 106 25 143 -8z m-1579 -44 c16 -11 30 -13 41 -7 14 8 21
-4 44 -82 33 -111 95 -237 147 -299 54 -64 49 -79 -6 -20 -25 26 -59 52 -76
57 -18 5 -35 16 -39 24 -31 66 -42 77 -106 110 -38 19 -129 54 -202 78 -129
42 -133 44 -117 62 12 14 16 32 14 64 l-4 45 104 -2 c88 -2 105 1 115 15 10
16 12 16 36 -6 14 -13 36 -30 49 -39z m1647 -272 l121 -7 -33 -50 c-32 -47
-54 -104 -54 -141 0 -9 -26 -63 -59 -120 -32 -56 -93 -180 -136 -274 -43 -95
-81 -170 -85 -168 -5 3 -6 22 -3 44 l5 38 -93 58 c-52 32 -146 85 -209 117
-96 49 -129 61 -198 70 -76 10 -81 12 -67 28 8 9 15 22 15 29 0 8 14 29 30 48
17 18 30 38 30 43 0 6 7 10 15 10 8 0 20 9 27 20 7 11 18 20 24 20 6 0 21 11
34 25 13 14 29 25 35 25 6 0 22 11 35 25 13 13 33 24 44 23 28 -2 136 63 176
106 29 30 36 33 78 28 26 -2 63 1 82 6 19 5 42 9 50 7 8 -2 70 -7 136 -10z
m-697 -102 c-8 -10 -27 -28 -42 -42 -16 -13 -46 -51 -67 -85 -26 -40 -41 -56
-44 -46 -3 8 -10 28 -16 43 -13 37 2 67 34 67 14 0 30 10 40 25 10 15 26 25
41 25 13 0 30 7 37 15 18 20 33 19 17 -2z m-202 -179 l29 -36 -21 -44 c-21
-45 -35 -51 -79 -34 -24 9 -26 14 -26 68 0 51 3 60 23 70 35 17 43 14 74 -24z
m1122 -115 c-11 -28 -28 -68 -38 -88 -10 -20 -33 -79 -52 -131 -20 -57 -50
-118 -76 -153 -23 -32 -45 -66 -48 -77 -5 -16 -10 -17 -31 -8 -13 6 -24 17
-24 23 0 26 23 75 35 75 7 0 16 17 20 38 4 20 15 45 26 55 10 10 19 26 19 37
0 11 9 27 19 37 10 10 24 37 30 60 7 23 30 62 55 90 23 26 48 58 55 71 22 42
29 22 10 -29z"/>
</g>
</svg>
