<?xml version="1.0" encoding="UTF-8" standalone="no"?>
<!-- Created with Inkscape (http://www.inkscape.org/) -->

<svg
   xmlns:svg="http://www.w3.org/2000/svg"
   xmlns="http://www.w3.org/2000/svg"
   version="1.2"
   width="239.56799"
   height="441"
   viewBox="0 0 239.568 441"
   id="Layer_1"
   xml:space="preserve"
   style="overflow:inherit"><defs
   id="defs7" />
<path
   d="m 44,0 c 3.667,0 7.333,0 11,0 8.996,1.555 18.679,7.109 23,13 10.036,13.683 2.748,32.941 10,50 6.208,14.602 18.971,18.274 32,24 3.642,1.601 6.941,4.79 10,6 6.143,2.43 13.469,1.448 20,5 5.589,3.04 12.646,11.955 18,19 12.052,15.858 20.304,29.754 28,46 3.561,7.515 9.631,13.43 10,22 4.128,1.885 5.738,14.919 10,20 0.438,9.902 6.306,19.648 7,30 0.521,7.77 -2.721,13.84 -2,21 -2.93,0.355 -5.263,-8.607 -7,-3 4.634,36.321 19.729,75.892 23,119 1.672,22.029 5.308,49.669 -1,67 -9.242,-0.424 -15.777,-3.556 -20,-9 0.861,6.194 -3.171,7.496 -5,11 -0.667,0 -1.333,0 -2,0 -4.107,-2.226 -7.055,-5.611 -13,-6 -23.338,-26.634 -35.946,-62.348 -41,-105 -2.057,-2.95 -1.931,4.657 -6,3 1.817,-4.821 -0.093,-7.868 1,-14 -1.535,-2.972 -4.443,3.693 -7,0 3.611,0.229 4.146,-7.787 2,-10 -7.564,8.465 0.982,25.652 -2,34 -8.643,-2.999 -5.43,-26.113 -5,-39 -7.554,0.399 -2.665,7.269 -3,11 -0.23,2.568 -3.873,4.399 -1,5 -9.753,1.316 -4.055,-12.605 -3,-21 27.111,0.653 23.537,-41.928 2,-45 -6.129,10.871 -20.43,13.57 -28,23 1.795,4.41 1.273,7.67 5,6 -1.655,2.385 0.56,7.583 1,11 -2.839,1.494 -4.525,4.142 -7,6 -3.81,-1.539 3.062,-4.807 3,-9 -0.065,-4.417 -2.961,-9.35 -8,-10 -1.097,5.089 -5.904,19.566 -1,21 -7.704,2.336 -6.07,-3.056 -9,-10 -1.185,7.203 4.117,21.865 11,21 0.612,5.694 -14.595,2.46 -14,-4 -6.084,1.349 -1.225,7.221 0,10 -14.841,-5.578 -6.812,-35.343 1,-43 9.541,-4.432 19.189,-12.135 28,-20 -7.329,-14.945 -19.855,-27.771 -29,-41 -1.341,-1.939 -8.186,-9.86 -11,-17 -3.908,-9.913 -8.089,-25.475 -13,-41 -6.943,-21.948 -19.353,-34.43 -16,-53 -0.354,-1.567 -1.761,0.875 -2,-1 C 41.684,85.201 53.761,69.001 51,54 33.527,44.826 22.291,25.665 0,32 0,31.667 0,31.333 0,31 1.525,22.889 14.437,21.854 19,20 19.462,9.456 33.756,4.094 44,0 z"
   id="path3"
   style="fill-rule:evenodd" />
</svg>