<?xml version="1.0" encoding="UTF-8" standalone="no"?>
<svg
   width="1159.8134"
   height="1096.1827"
   viewBox="0 0 1159.8134 1096.1827"
   version="1.1"
   id="svg4"
   xmlns="http://www.w3.org/2000/svg"
   xmlns:svg="http://www.w3.org/2000/svg">
  <defs
     id="defs8" />
  <path
     d="m 203.21303,0.60813456 c -5.041,1.54400004 -5.768,3.07800004 -4.351,9.18700004 1.98,8.5420004 2.782,10.3440004 13.699,30.7780004 12.613,23.606 20.45,36.596 34.392,57 11.19,16.376995 26.617,40.469995 33.935,52.999995 2.409,4.125 11.109,18.3 19.333,31.5 23.553,37.803 33.77,54.679 33.355,55.095 -0.212,0.211 -5.752,-0.733 -12.312,-2.098 -24.263,-5.048 -37.289,-2.814 -55.429,9.504 l -6.152,4.178 -5.173,-2.734 c -15.401,-8.14 -18.578,-9.42 -27.054,-10.897 -4.885,-0.851 -10.876,-1.548 -13.315,-1.548 -3.971,0 -4.923,-0.498 -9.119,-4.77 -5.409,-5.506 -11.978,-9.094 -36.026,-19.674 -16.32,-7.181 -31.208,-15.351 -39.159,-21.489 -1.925,-1.486 -11.15,-7.785 -20.5,-13.998 -9.350001,-6.212 -17.900001,-12.093 -19.000001,-13.067 -3.027,-2.682 -5.601,-3.096 -9.927,-1.598 -5.049,1.749 -6.573,3.929 -6.573,9.404 0,4.133 -0.148,4.378 -2.25,3.714 -13.578,-4.295 -17.721,-4.22 -22.678,0.411 -2.524,2.358 -3.072,3.65 -3.072,7.246 0,4.453 1.094,6.685 6.179,12.606 1.551,1.806 2.821,3.7 2.821,4.208 0,0.507 -2.035,2.115 -4.523,3.573 -2.487,1.458 -5.004,3.549 -5.591,4.648 -1.887,3.525 -0.093,8.659 4.628,13.248 5.225,5.078 8.376,6.669 18.986,9.585 29.887,8.215 34.417001,9.937 60.353001,22.956 14.106,7.08 28.347,13.869 31.647,15.088 9.383,3.464 31.257,13.566 39.235,18.119 l 7.235,4.13 -3.009,1.83 c -1.655,1.006 -4.764,1.83 -6.908,1.83 -2.738,0 -4.818,0.773 -6.981,2.593 -2.994,2.519 -3.348,2.573 -12.42,1.893 -9.24,-0.693 -9.36,-0.673 -11.389,1.907 -1.526,1.94 -2.965,2.607 -5.622,2.607 -2.542,0 -4.556,0.865 -6.988,3 -1.879,1.65 -4.415,3 -5.634,3 -1.22,0 -6.682,-1.8 -12.139,-4 -5.457,-2.2 -10.607,-4 -11.446,-4 -0.839,0 -2.688,1.164 -4.111,2.586 -2.41,2.41 -2.878,2.512 -6.897,1.5 -2.371,-0.597 -6.7,-1.089 -9.619,-1.093 -4.983001,-0.006 -5.839001,-0.408 -14.018001,-6.576 -11.225,-8.466 -37.874,-31.312 -48.789,-41.826 -18.471,-17.793 -28.384,-23.107 -36.3429998,-19.481 -3.67599998,1.676 -5.04299998,5.042 -4.29799998,10.591 0.87299998,6.506 8.59499998,22.212 14.59399978,29.687 11.866,14.782 36.1,36.095 53.923,47.424 l 7.376,4.688 -5.876,0.678 c -6.183,0.713 -13.37,3.264 -14.611,5.184 -1.379,2.136 -0.724,11.131 1.102,15.138 2.549,5.591 6.95,10.526 10.836,12.149 2.803,1.171 3.784,1.17 6.547,-0.007 1.788,-0.761 4.375,-2.61 5.75,-4.108 2.162,-2.355 6.962,-5.534 8.357,-5.534 0.251,0 -0.026,1.57 -0.615,3.489 -0.912,2.972 -0.789,3.802 0.831,5.592 1.702,1.88 2.577,2.029 8.327,1.413 3.533001,-0.378 8.848001,-1.319 11.811001,-2.091 2.963,-0.772 8.125,-1.403 11.473,-1.403 5.67,0 6.845,0.44 17.201,6.451 6.113,3.548 17.19,9.203 24.615,12.566 7.425,3.363 20.025,9.206 28,12.984 7.975,3.779 18.775,8.741 24,11.028 5.225,2.286 16.7,7.912 25.5,12.5 8.8,4.589 19.369,9.556 23.486,11.039 11.279,4.061 12.013,4.72 12.019,10.797 0.015,13.845 6.113,44.581 11.451,57.719 2.894,7.123 16.48,32.933 36.014,68.416 27.135,49.291 41.386,81.66 44.984,102.174 0.852,4.854 1.814,14.451 2.138,21.326 0.538,11.422 0.361,13.362 -2.06,22.49 -3.836,14.462 -8.319,22.233 -19.032,32.99 -9.487,9.527 -9.247,9.383 -41.315,24.841 -3.473,1.674 -7.458,4.403 -8.857,6.065 -2.173,2.583 -2.48,3.764 -2.118,8.138 0.717,8.635 6.573,13.845 16.933,15.063 4.634,0.545 6.225,0.262 10.413,-1.851 2.719,-1.371 8.067,-3.738 11.884,-5.259 8.934,-3.561 22.722,-12.168 33.602,-20.977 2.038,-1.65 6.452,-4.97 9.809,-7.377 7.486,-5.368 10.916,-10.569 16.136,-24.467 4.204,-11.192 6.51,-23.726 9.054,-49.207 1.005,-10.077 0.929,-15.973 -0.465,-36 -0.917,-13.172 -2.094,-26.649 -2.614,-29.949 -1.837,-11.644 -1.731,-11.565 8.04,6 3.977,7.15 11.385,19.525 16.461,27.5 5.076,7.975 12.016,19.612 15.423,25.86 7.723,14.166 10.96,19.233 20.315,31.804 4.09,5.495 11.751,16.935 17.026,25.423 12.565,20.218 24.96,37.116 36.063,49.162 l 8.986,9.75 -0.631,5.362 c -0.899,7.652 -9.893,36.938 -17.702,57.639 -4.286,11.365 -4.666,15.484 -1.957,21.247 1.679,3.571 3.039,4.946 6.107,6.174 5.447,2.179 12.674,2.018 16.59,-0.369 4.836,-2.949 12.311,-19.079 17.981,-38.802 2.569,-8.937 5.001,-16.25 5.405,-16.25 1.286,0 5.743,6.083 16.119,22 10.5,16.107 26.256,36.216 47.754,60.946 63.286,72.799 71.015,81.116 106.075,114.13697 30.006,28.26 48.001,43.047 69.663,57.244 17.208,11.279 19.766,12.5 22.546,10.764 3.685,-2.301 33.542,-2.391 50.198,-0.151 7.742,1.041 22.965,2.163 33.829,2.495 20.563,0.626 28.908,-0.3 44.465,-4.938 5.803,-1.73 22.6,-13.641 28.094,-19.921 2.862,-3.272 4.29,-3.986 10.5,-5.251 10.078,-2.052 15.169,-4.599 32.48097,-16.252 18.519,-12.464 25.415,-19.821 25.127,-26.806 -0.247,-6.001 5.316,-39.63797 9.071,-54.84197 3.61,-14.624 9.311,-32.313 12.172,-37.774 3.517,-6.713 15.708,-18.629 19.096,-18.664 2.752,-0.029 14.128,-4.126 16.864,-6.075 4.457,-3.173 6.75,-8.794 9.478,-23.23 1.446,-7.652 3.598,-15.489 5.13,-18.682 2.798,-5.832 13.272,-17.012 21.402,-22.847 13.528,-9.707 25.531,-30.332 29.272,-50.299 3.938,-21.012 0.044,-61.889 -6.905,-72.494 -0.825,-1.259 -1.5,-3.579 -1.5,-5.155 0,-3.163 -2.206,-7.711 -9.536,-19.661 -4.595,-7.492 -9.63,-13.313 -30.353,-35.094 -4.736,-4.978 -13.055,-14.041 -18.487,-20.141 -14.276,-16.033 -47.616,-46.65 -64.513,-59.247 -30.35197,-22.627 -40.76097,-30.126 -53.11097,-38.268 -7.975,-5.257 -16.969,-10.798 -19.986,-12.313 -3.017,-1.515 -7.253,-3.869 -9.413,-5.233 -2.159,-1.363 -19.94,-10.479 -39.514,-20.258 -19.573,-9.779 -39.084,-19.786 -43.358,-22.237 l -7.772,-4.458 7.279,-3.055 c 27.508,-11.547 58.229,-30.033 67.548,-40.647 2.863,-3.26 5.197,-8.914 5.21,-12.62 0.01,-2.693 -3.142,-6.136 -7.377,-8.059 -10.647,-4.835 -29.763,0.19 -44.117,11.596 -5.141,4.086 -6.915,4.952 -13,6.351 -2.75,0.633 -18.556,5.49 -35.125,10.795 l -30.124,9.645 -18.876,-10.16 c -37.257,-20.055 -89.67,-45.61 -110.877,-54.062 -11.549,-4.602 -23.047,-9.39 -25.551,-10.64 -2.504,-1.25 -9.091,-3.853 -14.639,-5.784 -13.306,-4.631 -21.069,-7.928 -69.808,-29.65 -7.15,-3.186 -21.325,-9.233 -31.5,-13.437 -19.141,-7.908 -53.551,-24.35 -52.714,-25.187 0.593,-0.593 9.548,1.635 20.714,5.153 4.675,1.473 13.58,3.749 19.788,5.057 6.208,1.309 12.216,2.876 13.351,3.483 1.135,0.608 5.955,2.234 10.712,3.615 17.078,4.956 39.866,3.001 45.689,-3.919 1.353,-1.608 2.46,-3.736 2.46,-4.729 0,-1.397 1.978,-2.417 8.75,-4.509 29.894,-9.234 36.269,-12.078 54.618,-24.371 21.559,-14.443 28.407,-19.876 41.132,-32.632 13.888,-13.921 20.589,-24.177 24.99,-38.245 1.511,-4.831 4.936,-14.749 7.61,-22.039 2.674,-7.29 5.612,-17.352 6.529,-22.36 1.544,-8.444 1.547,-9.806 0.041,-18.745 -0.893,-5.302 -1.821,-13.075 -2.061,-17.273 -0.674,-11.768 -3.84,-15.867 -12.256,-15.867 -2.687,0 -4.358,0.805 -6.856,3.303 -5.264,5.264 -6.654,11.457 -7.451,33.197 -0.844,23.011 -1.246,24.164 -19.874,57 -16.375,28.865 -29.538,38.736 -98.226,73.653 l -7.554,3.84 -12.315,-3.511 c -6.774,-1.931 -12.627,-3.704 -13.008,-3.94 -0.381,-0.235 -5.165,-1.133 -10.631,-1.996 -5.466,-0.862 -15.338,-2.9 -21.938,-4.528 -26.622,-6.568 -38.943,-8.183 -66.5,-8.713 -21.764,-0.419 -27.844,-0.193 -41.5,1.546 -8.8,1.121 -18.925,2.957 -22.5,4.08 -3.575,1.124 -6.565,2.049 -6.644,2.056 -0.079,0.007 -1.353,-3.025 -2.83,-6.737 -1.478,-3.712 -8.564,-18.225 -15.747,-32.25 -19.306,-37.699 -42.814,-77.035 -65.738,-110 -5.163,-7.425 -11.402,-16.425 -13.863,-20 -2.462,-3.574995 -10.174,-14.374995 -17.139,-23.999995 -6.965,-9.625 -15.519,-22 -19.008,-27.5 -18.608,-29.333 -28.568,-42.7050004 -34.697,-46.5850004 -3.638,-2.30400004 -10.683,-3.18900004 -14.958,-1.88000004 m -9.876,349.56199544 c -2.2,0.747 -5.35,1.631 -7,1.966 l -3,0.609 2.5,1.304 c 3.299,1.722 23.211,7.646 23.781,7.076 0.245,-0.244 -0.09,-2.674 -0.744,-5.398 -1.132,-4.72 -1.396,-5.007 -5.556,-6.054 -5.033,-1.268 -4.732,-1.283 -9.981,0.497"
     stroke="none"
     fill="#000000"
     fill-rule="evenodd"
     id="path2" />
</svg>
