<?xml version="1.0" standalone="no"?>
<!DOCTYPE svg PUBLIC "-//W3C//DTD SVG 20010904//EN"
 "http://www.w3.org/TR/2001/REC-SVG-20010904/DTD/svg10.dtd">
<svg version="1.0" xmlns="http://www.w3.org/2000/svg"
 width="2988.000000pt" height="2192.000000pt" viewBox="0 0 2988.000000 2192.000000"
 preserveAspectRatio="xMidYMid meet">
<metadata>
Created by potrace 1.16, written by Peter Selinger 2001-2019
</metadata>
<g transform="translate(0.000000,2192.000000) scale(0.100000,-0.100000)"
fill="#000000" stroke="none">
<path d="M16160 21909 c-58 -3 -161 -14 -230 -23 -69 -8 -206 -20 -305 -25
-145 -8 -196 -15 -260 -35 -44 -13 -114 -29 -155 -36 -41 -6 -101 -18 -132
-26 -32 -8 -81 -19 -110 -25 -34 -7 -360 -14 -908 -18 -838 -7 -856 -7 -915
-28 -33 -12 -89 -29 -125 -38 -36 -9 -79 -24 -96 -34 -17 -10 -48 -24 -70 -31
-21 -7 -55 -21 -74 -32 -34 -20 -146 -64 -240 -94 -25 -9 -67 -24 -95 -36 -27
-11 -77 -28 -111 -38 -33 -10 -78 -27 -100 -38 -21 -10 -57 -25 -79 -32 -22
-7 -99 -41 -171 -76 -72 -35 -134 -64 -138 -64 -4 0 -39 -16 -79 -35 -39 -19
-77 -35 -84 -35 -33 0 -276 -130 -397 -212 -178 -121 -237 -158 -376 -237 -63
-35 -142 -79 -175 -98 -33 -18 -89 -52 -125 -75 -127 -80 -166 -102 -275 -158
-179 -91 -259 -140 -390 -240 -108 -82 -187 -132 -274 -172 -47 -22 -113 -52
-146 -68 -33 -16 -71 -32 -85 -35 -14 -4 -40 -16 -57 -27 -18 -11 -81 -35
-140 -55 -96 -32 -123 -36 -238 -40 -97 -4 -148 -1 -200 11 -38 9 -122 27
-185 41 -63 13 -142 34 -175 47 -55 21 -77 23 -255 23 -189 0 -197 -1 -257
-27 -35 -15 -88 -32 -119 -38 -31 -7 -82 -21 -113 -32 -40 -14 -84 -20 -156
-20 -170 -2 -347 65 -519 197 -108 82 -290 243 -471 415 -82 79 -175 164 -206
190 -72 60 -190 124 -259 140 -30 7 -73 21 -96 32 -23 10 -126 30 -229 45
l-188 27 -141 -23 c-97 -16 -160 -31 -201 -51 -33 -15 -71 -31 -85 -34 -14 -4
-54 -20 -90 -35 -111 -48 -173 -73 -235 -93 -33 -11 -89 -30 -125 -44 -36 -13
-92 -28 -125 -34 -55 -9 -107 -23 -280 -78 -82 -27 -193 -74 -237 -103 -20
-13 -56 -35 -79 -49 -55 -32 -200 -170 -249 -235 -141 -191 -251 -400 -280
-530 -6 -27 -22 -80 -35 -117 -19 -53 -28 -111 -41 -263 -15 -180 -15 -210 1
-397 13 -155 22 -220 40 -273 13 -38 31 -113 39 -165 9 -52 20 -111 26 -130
17 -59 11 -159 -14 -247 -43 -145 -136 -255 -334 -394 -143 -102 -160 -117
-350 -318 -85 -90 -214 -217 -286 -281 -126 -112 -211 -201 -306 -320 -139
-174 -265 -279 -505 -417 -38 -22 -86 -50 -105 -61 -19 -11 -107 -60 -195
-108 -88 -48 -171 -95 -185 -105 -14 -9 -59 -38 -100 -65 -92 -59 -193 -139
-241 -190 -69 -75 -92 -109 -229 -344 -55 -94 -81 -129 -200 -265 -90 -103
-185 -219 -256 -310 -16 -22 -49 -75 -72 -118 -80 -146 -113 -381 -77 -558 8
-41 19 -119 25 -174 6 -55 20 -129 31 -165 11 -36 27 -100 35 -143 8 -44 26
-102 38 -130 22 -49 35 -81 86 -207 11 -28 30 -74 41 -103 12 -28 29 -81 39
-117 39 -141 140 -322 270 -480 156 -190 388 -401 575 -521 39 -25 96 -62 127
-82 32 -20 60 -37 63 -37 3 0 31 -16 61 -35 30 -19 58 -35 62 -35 4 0 25 -12
46 -26 44 -30 318 -168 356 -179 26 -8 115 -47 215 -95 136 -65 216 -99 266
-114 49 -15 106 -42 424 -204 131 -67 210 -99 318 -128 49 -13 102 -31 118
-40 17 -8 65 -21 107 -29 42 -7 101 -23 130 -34 29 -12 98 -28 153 -36 55 -8
132 -24 171 -35 40 -11 122 -25 183 -31 65 -6 128 -19 154 -30 24 -11 72 -26
105 -35 34 -8 75 -23 92 -33 17 -10 55 -26 85 -36 30 -10 68 -26 84 -35 17
-10 67 -28 112 -39 45 -11 95 -27 111 -35 16 -8 71 -22 123 -30 52 -8 120 -24
152 -35 32 -11 98 -26 145 -32 48 -6 126 -24 174 -40 48 -16 97 -29 109 -29
12 0 60 -13 108 -30 47 -16 119 -34 160 -41 40 -6 99 -20 130 -31 31 -10 104
-26 163 -33 59 -8 133 -24 165 -35 32 -11 108 -26 168 -35 61 -8 134 -24 163
-35 29 -11 88 -25 130 -31 42 -5 111 -21 152 -34 41 -14 108 -29 149 -35 41
-6 94 -19 119 -30 25 -11 73 -27 106 -36 34 -8 76 -24 93 -34 18 -11 55 -26
82 -34 26 -8 64 -22 82 -32 19 -10 68 -28 109 -40 41 -12 102 -31 135 -42 33
-11 87 -27 120 -35 93 -24 310 -105 430 -162 28 -13 61 -26 75 -30 14 -4 45
-18 70 -30 25 -13 81 -40 125 -60 44 -20 123 -57 175 -82 52 -25 127 -60 165
-78 133 -63 380 -186 415 -207 19 -11 89 -52 155 -91 66 -39 141 -83 166 -99
25 -15 50 -28 55 -28 5 0 33 -16 61 -35 29 -19 56 -35 61 -35 4 0 30 -14 57
-31 76 -48 254 -136 425 -209 52 -22 118 -52 145 -65 28 -13 70 -32 95 -40 24
-9 55 -22 67 -30 12 -8 48 -25 80 -36 32 -12 63 -26 70 -31 7 -5 45 -22 85
-38 104 -40 172 -68 258 -106 42 -19 82 -34 90 -34 8 0 35 -10 60 -22 46 -22
141 -58 260 -98 36 -12 90 -33 120 -45 30 -13 77 -29 103 -35 27 -6 66 -19 88
-30 21 -11 68 -27 105 -35 36 -9 93 -27 127 -40 34 -13 89 -32 122 -43 127
-41 337 -142 590 -282 72 -40 225 -124 340 -187 221 -120 318 -175 400 -227
99 -63 171 -110 211 -137 22 -15 119 -68 215 -117 168 -86 233 -122 349 -192
97 -59 192 -111 325 -180 72 -37 162 -84 200 -105 183 -99 458 -233 534 -260
133 -47 335 -154 400 -212 100 -89 123 -169 92 -310 -20 -89 -57 -170 -146
-323 -21 -36 -51 -89 -67 -119 -97 -182 -164 -286 -272 -425 -177 -225 -286
-336 -386 -390 -47 -25 -59 -28 -134 -24 -77 3 -86 6 -147 45 -91 59 -296 254
-438 414 -138 157 -271 278 -386 355 -109 72 -195 89 -303 62 -35 -9 -60 -25
-98 -64 -66 -68 -88 -123 -82 -207 7 -83 32 -132 212 -420 21 -34 80 -143 131
-242 51 -99 130 -252 175 -340 82 -159 120 -271 120 -350 0 -104 -54 -245
-134 -350 -36 -47 -135 -113 -215 -143 -36 -13 -84 -32 -106 -40 -35 -14 -123
-17 -702 -20 -753 -4 -1094 7 -1218 38 -44 11 -123 25 -175 30 -52 6 -129 22
-170 35 -41 14 -125 31 -186 39 -61 8 -129 22 -150 31 -21 8 -80 22 -131 31
-52 8 -117 24 -146 35 -29 12 -86 27 -127 35 -41 8 -100 24 -130 35 -30 11
-108 27 -172 35 -64 8 -145 23 -179 34 -35 11 -95 25 -133 31 -39 5 -105 23
-146 38 -41 16 -102 35 -135 44 -33 8 -80 23 -105 32 -29 11 -76 18 -131 18
-79 1 -91 -1 -154 -33 -118 -61 -185 -156 -193 -276 -6 -89 9 -134 56 -175 66
-58 123 -77 270 -89 85 -7 161 -19 210 -34 42 -14 97 -27 122 -31 25 -4 65
-18 90 -30 25 -13 65 -28 90 -35 24 -6 68 -25 98 -41 30 -16 62 -29 71 -29 9
0 41 -12 71 -26 30 -15 87 -35 125 -44 39 -10 95 -27 126 -38 30 -12 91 -25
135 -31 43 -6 111 -21 149 -35 39 -13 99 -27 135 -31 36 -4 92 -18 126 -30 33
-13 95 -30 137 -39 42 -8 94 -24 114 -34 21 -11 58 -24 83 -30 54 -13 294
-136 511 -260 113 -66 199 -168 199 -238 0 -45 -55 -122 -115 -162 -57 -38
-245 -132 -263 -132 -7 0 -36 -12 -65 -26 -29 -15 -78 -33 -110 -40 -32 -8
-75 -23 -97 -34 -22 -11 -74 -25 -117 -31 -43 -5 -112 -21 -153 -34 -41 -13
-113 -29 -160 -35 -47 -6 -105 -20 -130 -32 -25 -11 -78 -26 -118 -34 -40 -7
-89 -22 -110 -33 -20 -10 -57 -24 -82 -31 -42 -11 -106 -39 -255 -110 -155
-74 -212 -99 -240 -106 -16 -4 -48 -17 -70 -29 -22 -13 -64 -28 -93 -34 -29
-6 -74 -22 -100 -35 -26 -13 -62 -27 -79 -31 -48 -10 -173 -95 -214 -146 -20
-24 -55 -81 -78 -127 -50 -100 -66 -192 -58 -341 6 -96 9 -111 49 -193 32 -69
55 -102 99 -143 102 -93 180 -116 266 -74 51 24 125 105 155 169 31 67 88 159
125 207 39 48 146 122 218 148 28 10 59 24 70 31 12 8 58 21 104 29 46 9 105
25 132 36 27 10 82 24 122 30 39 6 98 22 131 35 32 13 86 29 120 35 33 6 86
21 117 34 31 14 86 29 122 35 36 5 87 19 114 31 26 11 93 27 148 35 55 8 132
24 170 35 60 18 124 22 455 34 260 9 422 20 500 32 166 26 681 25 935 -1 150
-16 268 -19 705 -20 367 -1 554 3 620 11 177 24 265 32 445 43 141 9 194 16
250 34 38 13 95 30 125 36 30 7 73 22 95 34 22 13 56 29 75 37 45 17 140 75
260 157 52 36 132 91 177 121 45 31 122 89 171 129 126 104 784 779 932 958
69 82 164 197 211 255 156 188 264 302 423 443 201 178 311 295 450 481 129
172 134 179 255 418 49 97 98 190 109 205 18 26 48 89 150 318 62 138 105 205
174 270 83 79 140 109 273 144 l120 32 425 8 c234 5 439 11 455 14 17 3 78 15
137 26 59 11 171 24 250 30 79 6 188 22 243 35 55 13 142 28 193 34 58 6 113
19 150 35 31 14 79 30 107 36 27 6 63 19 80 30 16 10 55 25 85 34 123 36 309
136 528 283 101 69 191 127 200 130 9 3 31 16 47 28 31 22 292 165 302 165 3
0 36 15 73 34 97 50 233 89 278 81 59 -11 128 -52 166 -98 20 -24 54 -84 76
-134 37 -84 40 -98 40 -179 0 -99 -15 -141 -75 -211 -44 -52 -162 -117 -240
-133 -33 -7 -80 -22 -105 -35 -25 -12 -67 -28 -95 -34 -27 -7 -70 -23 -95 -36
-25 -13 -85 -42 -135 -65 -49 -23 -103 -49 -120 -58 -49 -26 -56 -29 -150 -71
-49 -22 -103 -43 -120 -47 -16 -3 -46 -15 -65 -25 -19 -11 -66 -30 -105 -43
-94 -32 -216 -84 -235 -100 -8 -8 -37 -26 -65 -40 -200 -106 -599 -418 -690
-540 -67 -90 -129 -208 -145 -277 -6 -30 -20 -81 -31 -114 -10 -33 -25 -95
-33 -138 -9 -47 -28 -100 -46 -132 -29 -51 -131 -155 -152 -155 -5 0 -28 -13
-51 -28 -23 -16 -80 -50 -127 -76 -47 -26 -119 -67 -160 -91 -99 -58 -245
-130 -294 -145 -22 -7 -53 -21 -70 -30 -17 -10 -53 -25 -81 -33 -27 -8 -75
-27 -105 -41 -30 -14 -62 -26 -70 -26 -8 0 -45 -15 -82 -34 -38 -19 -80 -39
-95 -45 -41 -16 -137 -76 -265 -166 -121 -85 -262 -219 -290 -275 -61 -126
-71 -156 -76 -242 -4 -84 -3 -91 30 -160 42 -88 67 -114 149 -156 84 -44 133
-43 246 4 61 25 118 60 186 113 112 86 261 191 357 251 89 55 212 131 252 154
67 40 220 116 232 116 7 0 34 11 60 25 25 13 82 33 126 44 43 11 96 29 117 39
21 11 55 22 77 26 21 4 66 20 100 36 33 15 86 38 116 50 30 12 91 38 135 57
44 20 111 47 150 60 38 13 80 30 92 38 13 9 51 22 85 31 35 9 77 24 93 34 17
10 57 26 90 35 33 10 80 28 105 40 25 12 63 26 85 30 22 4 65 17 96 30 30 13
87 29 125 36 38 6 88 20 112 30 24 10 80 28 125 39 44 11 90 26 101 34 12 7
39 19 61 26 53 17 317 158 535 286 41 24 93 53 115 65 39 21 251 162 385 255
36 25 112 68 170 96 100 48 110 50 205 55 116 5 148 -6 199 -70 41 -51 49
-153 18 -219 -11 -24 -29 -64 -40 -90 -33 -77 -97 -156 -247 -303 -78 -77
-155 -158 -172 -180 -44 -58 -103 -179 -129 -265 -13 -41 -32 -102 -44 -135
-19 -52 -21 -77 -18 -185 3 -116 5 -128 32 -174 62 -105 146 -170 239 -182 60
-8 148 27 209 84 52 48 119 155 187 297 123 256 186 375 224 424 23 29 108
117 190 195 99 94 179 181 240 261 50 66 127 163 172 215 45 52 119 149 165
215 175 251 228 304 432 437 198 127 356 243 426 311 35 34 107 116 159 182
194 243 358 386 558 487 130 66 180 98 366 239 63 47 164 119 224 159 79 53
146 110 240 204 116 117 311 353 405 491 172 253 345 483 485 645 125 146 152
180 232 300 85 127 92 139 251 415 23 39 50 86 61 105 12 19 57 96 100 170 44
74 91 153 104 175 72 115 197 383 243 520 13 39 30 81 38 95 8 14 22 51 31 84
9 32 25 73 35 90 10 17 25 54 33 82 8 28 24 69 35 91 11 21 28 66 36 100 9 33
25 80 36 105 11 25 26 79 34 119 8 41 23 94 34 119 11 25 25 79 32 120 6 41
20 110 31 154 14 55 23 138 30 278 8 181 12 208 38 287 17 47 35 121 41 165 7
43 18 96 25 117 31 86 37 177 45 594 7 390 10 437 29 506 11 41 25 108 31 148
6 40 21 101 35 135 14 34 29 86 35 116 6 30 20 82 31 114 46 135 48 373 4 516
-13 41 -28 99 -34 129 -6 30 -21 75 -32 100 -12 25 -27 67 -35 93 -19 61 -88
199 -136 270 -119 176 -282 292 -503 355 -37 10 -86 13 -185 10 -125 -5 -143
-8 -245 -43 -176 -62 -231 -101 -454 -318 -234 -228 -331 -298 -431 -312 -68
-9 -125 11 -175 60 -38 38 -45 53 -64 133 -25 109 -26 140 -5 310 15 119 16
181 5 600 -7 295 -16 503 -25 563 -8 52 -15 147 -16 210 -1 221 -16 353 -50
436 -16 42 -30 83 -30 91 0 24 -77 177 -128 255 -87 135 -251 287 -364 338
-24 10 -54 26 -68 34 -14 8 -50 26 -80 40 -80 37 -150 94 -193 157 -30 44 -46
84 -72 185 -18 71 -38 163 -45 204 -19 114 -84 233 -185 336 -117 119 -237
191 -436 259 -37 13 -85 33 -107 44 -23 12 -47 21 -55 21 -8 0 -40 13 -73 29
-32 16 -104 50 -159 75 -55 26 -113 54 -130 63 -16 9 -41 21 -54 27 -100 46
-821 417 -921 474 -99 57 -188 121 -310 223 -30 25 -102 79 -160 119 -74 53
-178 146 -355 319 -137 134 -328 317 -423 405 -99 92 -227 224 -298 308 -155
181 -369 391 -539 528 -140 112 -376 309 -545 455 -58 49 -133 108 -168 130
-122 77 -177 112 -223 138 -68 39 -167 117 -325 254 -175 154 -307 244 -399
273 -22 7 -53 21 -70 30 -16 10 -60 26 -98 34 -37 9 -85 25 -106 36 -22 11
-61 24 -88 30 -26 6 -73 21 -104 35 -30 13 -87 31 -125 39 -38 8 -89 24 -114
35 -25 10 -81 25 -125 31 -44 6 -123 22 -175 36 -129 32 -291 44 -780 55 -228
5 -451 13 -495 18 -44 5 -154 10 -245 10 -91 1 -237 6 -325 12 -142 10 -174
16 -280 51 -66 21 -142 50 -170 63 -244 118 -368 139 -860 148 -104 2 -237 0
-295 -4z"/>
</g>
</svg>
