<?xml version="1.0" standalone="no"?>
<!DOCTYPE svg PUBLIC "-//W3C//DTD SVG 20010904//EN"
 "http://www.w3.org/TR/2001/REC-SVG-20010904/DTD/svg10.dtd">
<svg version="1.0" xmlns="http://www.w3.org/2000/svg"
 width="157.000000pt" height="1536.000000pt" viewBox="0 0 157.000000 1536.000000"
 preserveAspectRatio="xMidYMid meet">
<metadata>
Created by potrace 1.16, written by Peter Selinger 2001-2019
</metadata>
<g transform="translate(0.000000,1536.000000) scale(0.100000,-0.100000)"
fill="#000000" stroke="none">
<path d="M465 15344 c-63 -15 -306 -131 -390 -186 -27 -18 -55 -44 -63 -58
-21 -39 -9 -162 47 -490 95 -556 145 -944 181 -1415 29 -382 54 -642 105
-1090 74 -655 103 -1006 130 -1590 8 -181 24 -454 35 -605 24 -341 37 -599 50
-1030 13 -427 28 -778 40 -950 15 -209 38 -625 65 -1210 32 -679 60 -1136 85
-1414 11 -120 38 -438 60 -707 58 -711 80 -915 205 -1919 92 -736 116 -995
135 -1480 11 -285 28 -487 66 -790 47 -379 64 -423 160 -406 65 13 125 84 144
172 15 72 44 675 45 924 0 333 -24 1913 -40 2630 -8 355 -22 1030 -30 1500
-16 941 -28 1367 -50 1865 -45 1016 -67 1631 -85 2325 -26 1062 -40 1473 -65
1955 -29 554 -44 916 -55 1290 -14 511 -26 750 -55 1065 -13 146 -38 443 -55
660 -51 662 -71 772 -151 832 -57 43 -177 98 -257 119 -87 22 -172 23 -257 3z
m265 -85 c63 -14 152 -51 143 -60 -11 -10 -243 -76 -331 -94 -98 -20 -214 -20
-259 1 -143 69 240 200 447 153z"/>
</g>
</svg>
