<?xml version="1.0" standalone="no"?>
<!DOCTYPE svg PUBLIC "-//W3C//DTD SVG 20010904//EN"
 "http://www.w3.org/TR/2001/REC-SVG-20010904/DTD/svg10.dtd">
<svg version="1.0" xmlns="http://www.w3.org/2000/svg"
 width="1380.000000pt" height="1536.000000pt" viewBox="0 0 1380.000000 1536.000000"
 preserveAspectRatio="xMidYMid meet">
<metadata>
Created by potrace 1.16, written by Peter Selinger 2001-2019
</metadata>
<g transform="translate(0.000000,1536.000000) scale(0.100000,-0.100000)"
fill="#000000" stroke="none">
<path d="M4100 15340 c-49 -49 -30 -112 73 -233 37 -43 72 -88 79 -100 7 -13
12 -62 13 -117 0 -89 2 -99 34 -155 18 -33 58 -90 88 -126 194 -239 798 -734
1373 -1125 247 -167 513 -366 710 -529 367 -305 640 -515 870 -668 301 -201
318 -234 114 -230 -62 1 -104 9 -185 36 -113 38 -204 55 -459 87 -303 38 -427
69 -690 170 -280 107 -609 188 -915 226 -195 25 -567 25 -728 1 -282 -42 -476
-112 -642 -233 -157 -113 -232 -162 -365 -239 -188 -107 -249 -153 -371 -274
-155 -156 -231 -296 -246 -458 -9 -91 12 -174 73 -298 65 -133 73 -162 48
-167 -34 -6 -237 12 -363 32 -272 44 -494 116 -1017 325 -559 225 -574 229
-914 229 -501 0 -540 -42 -540 -584 0 -272 -13 -413 -46 -505 -68 -185 -71
-222 -85 -1040 -11 -617 -11 -675 5 -727 21 -73 66 -120 137 -143 58 -20 120
-18 394 9 287 28 934 61 1200 60 216 0 284 -4 400 -22 347 -54 553 -142 717
-305 79 -80 145 -182 247 -384 45 -89 97 -181 116 -203 19 -23 39 -60 45 -83
28 -107 64 -194 244 -585 160 -348 186 -411 281 -692 107 -315 175 -489 279
-714 188 -406 285 -710 306 -961 10 -124 21 -177 41 -201 29 -35 320 -3 589
65 85 21 217 62 293 90 280 104 522 158 1422 316 83 14 265 48 405 75 140 27
388 67 550 90 355 50 575 94 1024 207 188 47 364 85 395 86 l56 2 3 -75 c3
-86 -13 -200 -69 -490 -107 -546 -326 -1455 -555 -2305 -359 -1327 -447 -1636
-570 -2004 -95 -283 -105 -331 -76 -376 23 -37 87 -83 128 -91 28 -5 36 0 93
63 152 166 470 698 721 1208 134 273 183 388 266 624 35 102 107 296 158 431
117 305 138 368 276 825 150 500 171 594 305 1385 46 272 106 626 134 785 27
160 52 312 56 338 8 61 31 84 92 91 143 17 194 29 276 68 112 51 148 60 390
103 108 19 224 44 256 55 174 58 461 282 845 660 358 352 573 587 1046 1140
250 294 294 353 437 590 41 69 90 150 109 180 49 78 64 136 75 295 13 185 33
290 73 389 73 176 162 484 173 592 7 75 -12 137 -67 223 -39 60 -88 101 -122
101 -10 0 -64 46 -120 103 -156 156 -850 702 -1118 879 -363 240 -453 279
-783 343 -476 93 -714 164 -954 285 -262 132 -577 346 -613 416 -20 40 -28 44
-81 44 -70 0 -142 25 -284 99 -241 126 -527 315 -978 647 -655 482 -1281 885
-1926 1238 -1108 608 -2338 1154 -2598 1156 -20 0 -41 -8 -53 -20z"/>
</g>
</svg>
