<?xml version="1.0" standalone="no"?>
<!DOCTYPE svg PUBLIC "-//W3C//DTD SVG 20010904//EN"
 "http://www.w3.org/TR/2001/REC-SVG-20010904/DTD/svg10.dtd">
<svg version="1.0" xmlns="http://www.w3.org/2000/svg"
 width="1533.000000pt" height="1536.000000pt" viewBox="0 0 1533.000000 1536.000000"
 preserveAspectRatio="xMidYMid meet">
<metadata>
Created by potrace 1.16, written by Peter Selinger 2001-2019
</metadata>
<g transform="translate(0.000000,1536.000000) scale(0.100000,-0.100000)"
fill="#000000" stroke="none">
<path d="M7350 15341 c-16 -31 -12 -121 10 -202 55 -200 96 -547 88 -741 l-3
-78 -175 192 c-168 184 -251 258 -291 258 -25 0 -59 -39 -59 -67 0 -17 11 -30
36 -45 44 -26 31 -38 -43 -38 -51 0 -53 1 -53 28 0 15 26 74 60 132 70 123 78
154 55 201 -24 48 -54 69 -98 69 -29 0 -44 -7 -63 -27 -55 -62 -72 -76 -130
-109 -94 -52 -202 -94 -272 -104 -43 -6 -77 -18 -104 -36 -74 -52 -176 -181
-219 -279 -42 -95 -33 -249 26 -445 45 -151 77 -281 71 -287 -10 -11 -38 20
-99 112 -81 122 -157 213 -268 321 -189 183 -345 271 -389 219 -15 -19 6 -56
48 -82 121 -75 179 -121 281 -222 124 -122 201 -213 201 -237 0 -16 -47 11
-200 120 -123 87 -183 115 -269 129 -118 18 -274 -16 -330 -72 -15 -15 -21
-34 -21 -64 0 -49 -15 -67 -69 -86 -40 -13 -71 -38 -71 -57 0 -8 18 -25 40
-39 22 -14 40 -31 40 -37 0 -6 -21 -30 -47 -52 -94 -81 -149 -142 -176 -195
-14 -30 -24 -58 -21 -62 3 -5 76 -9 162 -9 160 0 241 -8 322 -30 70 -19 27
-28 -140 -29 -176 -1 -298 -14 -342 -37 -18 -9 -63 -41 -99 -70 -81 -66 -93
-68 -74 -14 35 99 26 224 -18 255 -26 18 -125 20 -162 3 -14 -6 -27 -21 -30
-32 -2 -12 -11 -58 -20 -104 -35 -182 -126 -374 -242 -509 -86 -99 -112 -149
-113 -209 0 -35 27 -146 55 -229 11 -31 -150 142 -199 215 -58 87 -105 182
-166 338 -74 191 -105 228 -149 181 -25 -27 -27 -59 -5 -100 15 -31 124 -401
124 -425 0 -8 -25 -1 -72 19 -124 53 -277 40 -309 -25 -26 -54 -26 -53 -69
-50 -24 2 -62 -4 -87 -13 -29 -11 -58 -15 -82 -11 -32 5 -41 2 -64 -22 -53
-55 -122 -249 -166 -469 -37 -178 -28 -262 48 -455 21 -54 36 -98 32 -98 -4 0
-50 18 -101 41 -147 63 -204 73 -328 58 -84 -10 -134 -10 -263 1 -165 13 -242
9 -291 -16 -40 -21 -36 -49 14 -95 l42 -38 -52 -22 c-39 -16 -59 -33 -82 -67
-50 -76 -53 -156 -5 -168 34 -8 31 -18 -10 -44 -63 -39 -101 -145 -70 -197 16
-28 16 -33 -11 -128 -25 -88 -28 -117 -28 -235 0 -192 28 -310 133 -564 23
-55 40 -100 39 -102 -2 -1 -36 39 -77 90 -149 186 -241 363 -264 506 -17 108
-27 139 -56 172 -53 59 -99 7 -88 -101 13 -121 98 -306 261 -566 96 -153 120
-195 113 -201 -3 -3 -71 39 -153 92 -207 136 -346 185 -564 200 -102 7 -194
-9 -254 -44 -76 -44 -27 -62 204 -72 122 -6 204 -14 240 -25 118 -36 341 -163
348 -198 5 -26 -41 -21 -169 18 -151 46 -283 65 -455 65 -201 0 -286 -30 -270
-95 9 -37 47 -51 94 -36 55 19 276 26 358 12 74 -13 154 -44 154 -60 0 -5 -35
-12 -77 -16 -142 -13 -259 -67 -283 -129 -18 -50 18 -58 121 -26 35 10 65 18
67 16 2 -2 -34 -33 -79 -69 -92 -74 -148 -98 -208 -90 -39 5 -40 5 -47 -32
-10 -53 3 -213 26 -320 10 -49 17 -91 15 -93 -1 -2 -29 43 -62 100 -60 105
-106 202 -117 250 -8 35 -68 98 -94 98 -43 0 -38 -58 19 -200 28 -71 56 -125
173 -325 25 -44 46 -83 46 -87 0 -32 -97 41 -173 131 -57 67 -112 153 -131
208 -36 103 -69 143 -115 143 -71 0 0 -207 129 -379 92 -121 222 -226 442
-355 54 -31 98 -61 98 -66 0 -15 -90 -12 -292 10 -411 43 -717 45 -805 4 -42
-21 -42 -39 2 -65 41 -24 42 -30 14 -75 l-20 -34 24 -24 c47 -47 217 -78 527
-96 587 -34 631 -37 608 -51 -7 -5 -41 -9 -76 -9 -90 0 -319 -25 -602 -66
-349 -50 -420 -69 -420 -113 0 -50 69 -65 175 -37 119 32 408 46 433 22 4 -4
-39 -52 -96 -106 -114 -109 -143 -157 -163 -274 -6 -38 -9 -107 -6 -154 6 -96
24 -131 74 -144 31 -8 49 -24 68 -61 6 -12 27 -26 50 -33 41 -11 65 -40 65
-80 0 -19 27 -51 58 -69 8 -4 23 1 36 14 27 26 50 20 117 -29 53 -38 61 -32
89 69 30 106 42 125 102 154 29 15 89 54 133 88 84 64 144 99 169 99 30 0 25
-19 -14 -56 -22 -21 -43 -46 -46 -56 -3 -11 7 -43 25 -78 50 -96 37 -140 -43
-140 -55 0 -104 -17 -116 -40 -16 -29 -12 -68 9 -89 16 -16 40 -19 187 -24
159 -5 244 -17 244 -36 0 -12 -61 -37 -187 -76 -135 -42 -196 -83 -201 -134
-2 -18 2 -39 9 -47 16 -20 75 -17 138 7 92 34 105 12 36 -62 -53 -57 -60 -99
-21 -124 19 -13 32 -14 76 -4 35 7 55 8 62 1 5 -5 12 -75 15 -154 5 -130 4
-146 -12 -162 -13 -13 -27 -16 -49 -12 -45 9 -146 59 -182 89 -58 49 -153 265
-158 358 -3 60 -10 69 -54 69 -53 0 -134 -42 -196 -100 -67 -63 -86 -102 -86
-174 0 -57 -8 -68 -30 -41 -20 24 -48 18 -65 -15 -19 -37 -19 -95 -1 -148 8
-23 11 -44 6 -47 -5 -3 -26 -3 -47 1 -84 13 -78 -44 20 -191 28 -44 84 -112
122 -151 58 -58 84 -76 148 -103 138 -57 240 -75 429 -75 92 -1 161 -4 155 -7
-32 -17 -334 -104 -502 -144 -543 -130 -555 -134 -555 -171 0 -62 127 -47 665
81 339 80 471 108 487 103 6 -2 -46 -39 -118 -80 -230 -136 -267 -162 -350
-243 -131 -129 -185 -267 -188 -478 -1 -92 1 -100 23 -118 17 -14 32 -17 61
-13 53 9 73 -6 107 -78 17 -35 45 -83 62 -108 16 -25 26 -46 22 -48 -5 -2 -53
15 -108 37 -114 45 -196 63 -230 50 -27 -10 -27 -12 -8 -48 17 -34 81 -89 185
-158 148 -100 201 -117 420 -133 154 -12 239 -25 253 -39 12 -12 -62 -100
-243 -286 -218 -224 -260 -272 -260 -301 0 -30 26 -45 59 -33 15 6 80 63 146
128 316 309 515 478 515 436 0 -3 -21 -33 -46 -67 -81 -111 -149 -269 -174
-408 -14 -76 -14 -197 -1 -232 11 -30 55 -63 71 -53 6 3 10 44 10 94 0 111 15
189 50 267 45 100 50 92 43 -63 -10 -221 16 -284 187 -453 67 -67 116 -125
134 -160 33 -62 73 -110 93 -110 8 0 21 17 29 37 13 31 14 49 5 109 -6 40 -20
95 -31 124 -24 60 -26 161 -6 235 l14 50 1 -55 c2 -104 28 -189 96 -323 36
-70 65 -138 65 -152 0 -47 83 -74 121 -39 22 20 49 12 49 -13 0 -34 30 -61
116 -107 133 -71 304 -198 304 -225 0 -39 -147 29 -277 128 -110 84 -123 91
-165 91 -48 0 -136 -44 -150 -75 -17 -37 5 -76 102 -185 l81 -90 -96 67 c-52
38 -116 83 -141 101 -53 37 -57 38 -78 16 -39 -38 -6 -90 129 -199 54 -45 101
-87 103 -93 2 -7 -57 17 -130 54 -75 37 -150 66 -169 67 -33 2 -34 1 -33 -34
2 -60 33 -92 131 -134 116 -49 220 -102 228 -115 9 -15 -39 -30 -93 -30 -57 0
-122 17 -232 59 -82 32 -149 38 -157 15 -6 -19 58 -75 112 -100 91 -42 164
-55 335 -63 91 -4 171 -10 178 -14 17 -11 15 -27 -3 -27 -18 0 -102 -41 -155
-76 -50 -33 -171 -71 -269 -84 -144 -20 -197 -54 -154 -102 15 -17 26 -19 63
-14 100 14 538 177 638 238 18 11 35 18 38 15 11 -11 -333 -358 -497 -500 -85
-73 -124 -128 -115 -162 8 -32 37 -33 79 -3 149 103 479 423 729 706 99 112
183 201 185 198 7 -7 -97 -204 -308 -577 -209 -371 -332 -611 -327 -635 2 -9
11 -22 20 -28 14 -8 24 -5 49 19 44 42 77 95 233 378 208 377 367 637 416 682
19 18 20 17 20 -6 -1 -13 -19 -76 -42 -139 -162 -456 -253 -766 -279 -955 -11
-78 -11 -87 6 -105 20 -22 67 -27 82 -8 5 7 15 51 22 98 17 113 120 518 166
649 42 121 90 221 106 221 8 0 9 -43 4 -153 -7 -167 4 -317 35 -461 23 -106
47 -157 79 -173 59 -29 65 13 19 142 -25 73 -32 110 -35 195 -4 81 -1 109 10
124 8 12 19 16 27 11 37 -23 73 -181 51 -223 -6 -11 -8 -28 -4 -37 3 -10 57
-42 118 -71 142 -68 148 -75 98 -108 -57 -37 -180 -83 -274 -102 -121 -23
-153 -49 -111 -87 34 -31 123 -17 291 48 127 48 190 66 196 54 10 -15 -105
-128 -185 -180 -42 -28 -106 -59 -145 -71 -38 -12 -80 -32 -93 -45 -22 -22
-23 -26 -9 -46 12 -18 24 -22 68 -22 133 1 407 201 555 407 114 158 188 224
221 197 40 -34 -23 -189 -167 -406 -103 -155 -175 -240 -285 -333 -66 -56 -91
-84 -93 -103 -3 -24 0 -27 25 -27 49 0 133 59 243 169 134 134 202 237 335
506 57 116 115 224 129 240 24 29 25 29 43 12 16 -16 19 -48 25 -360 7 -355
22 -602 40 -674 10 -42 42 -82 55 -70 18 19 22 159 17 542 -7 430 -1 532 31
595 8 15 22 30 31 34 32 12 44 -13 44 -88 0 -94 30 -209 85 -322 53 -110 131
-189 237 -239 123 -59 206 -56 234 10 20 48 46 62 144 76 191 26 416 124 512
221 32 32 66 58 75 58 30 0 154 -89 219 -157 33 -34 69 -63 80 -63 44 0 133
68 262 199 l134 136 -52 -105 c-70 -140 -122 -228 -165 -280 -37 -44 -44 -80
-20 -100 58 -48 161 102 422 615 95 187 173 336 173 331 0 -6 -27 -138 -59
-295 -127 -610 -151 -811 -95 -811 31 0 65 114 109 365 54 313 140 649 179
700 14 18 15 13 16 -67 0 -87 -13 -223 -70 -718 -41 -365 -39 -468 12 -478 36
-7 45 38 88 428 54 504 85 680 119 680 12 0 14 -5 46 -155 73 -327 177 -529
348 -668 120 -98 217 -116 217 -42 0 28 -19 44 -100 86 -88 46 -195 154 -242
245 -21 39 -49 114 -63 165 -42 158 -34 156 67 -14 79 -135 150 -215 275 -313
121 -95 209 -144 260 -144 54 0 73 8 73 31 0 19 -19 30 -98 60 -86 32 -283
194 -318 261 -23 44 0 44 107 3 52 -20 119 -39 149 -42 49 -4 58 -2 77 18 11
13 28 52 37 86 8 35 26 84 40 110 25 51 136 222 136 212 0 -3 -9 -57 -20 -120
-27 -147 -55 -240 -93 -310 -31 -56 -32 -84 -2 -95 31 -12 64 6 91 52 65 111
104 304 129 644 10 124 21 231 25 239 16 31 81 -218 150 -579 74 -388 97 -483
126 -527 13 -21 18 -22 31 -11 13 10 15 27 10 88 -9 108 -66 436 -158 899 -44
222 -78 406 -75 409 6 5 12 -7 129 -273 132 -298 232 -460 372 -601 119 -120
243 -186 262 -138 11 29 -26 83 -89 131 -96 72 -183 167 -263 288 -131 196
-271 515 -227 515 15 0 36 -30 97 -135 77 -133 147 -224 267 -351 127 -132
234 -218 323 -260 91 -42 133 -51 141 -29 9 23 -34 65 -141 138 -136 93 -425
385 -425 430 0 16 21 4 156 -85 76 -50 162 -101 189 -114 69 -31 173 -48 266
-41 95 6 133 23 137 59 5 42 -25 52 -122 42 -146 -15 -196 -6 -196 32 0 23 45
34 171 44 145 11 171 23 268 125 167 176 262 374 295 613 8 57 17 106 19 109
3 2 14 -8 24 -23 15 -24 18 -49 18 -169 -1 -145 -14 -248 -42 -317 -9 -22 -54
-85 -99 -141 -113 -136 -125 -194 -37 -184 120 13 314 170 381 307 43 88 52
159 52 407 0 285 17 292 61 23 26 -159 28 -315 6 -392 -10 -32 -38 -101 -63
-155 -25 -54 -48 -117 -51 -140 -5 -40 -4 -43 18 -43 65 0 250 182 313 307 57
113 69 235 42 408 -32 201 -21 244 33 125 85 -191 131 -534 92 -693 -14 -55
-13 -59 6 -79 31 -31 70 -18 90 30 13 31 15 68 10 227 -7 213 -17 296 -53 437
-32 125 -24 139 54 99 48 -24 67 -47 82 -96 40 -130 345 -629 396 -649 25 -10
15 55 -19 134 -18 41 -94 185 -169 320 -74 135 -142 259 -151 277 l-17 32 56
7 c75 9 119 -6 194 -66 84 -67 148 -102 252 -139 234 -82 428 -78 428 9 0 47
-36 56 -132 34 -66 -15 -86 -15 -131 -5 -58 13 -254 105 -299 141 -69 54 -15
68 172 45 257 -31 340 -36 441 -25 207 21 310 95 296 212 -13 110 -165 366
-370 625 -105 133 -153 201 -145 208 5 6 171 -122 408 -315 341 -277 471 -367
517 -358 13 2 19 14 21 39 3 41 16 28 -153 153 -55 41 -163 129 -240 196 -77
66 -213 183 -302 258 -89 75 -161 138 -159 139 1 2 77 -28 167 -65 267 -112
576 -209 795 -252 117 -22 166 -25 195 -10 63 35 -33 85 -271 141 -221 52
-508 151 -615 213 l-30 17 55 -5 c331 -32 364 -30 537 25 191 61 281 126 228
166 -30 21 -60 15 -96 -21 -22 -21 -60 -42 -104 -56 -78 -26 -185 -33 -192
-12 -3 8 6 12 25 12 40 0 130 62 218 148 88 88 112 130 96 166 -6 14 -19 26
-28 26 -19 0 -65 -49 -108 -114 -36 -56 -108 -110 -168 -127 -64 -17 -69 2
-17 58 58 62 118 144 159 216 43 77 39 122 -20 205 -64 92 -72 90 -104 -20
-29 -100 -182 -298 -231 -298 -24 0 -16 20 86 218 49 95 89 183 89 196 0 14
-19 46 -45 78 -55 64 -61 84 -45 155 15 70 8 130 -36 301 -35 138 -42 196 -23
190 6 -2 38 -53 71 -113 223 -408 331 -585 359 -585 45 0 47 61 8 192 -12 37
-18 76 -15 86 8 23 75 55 117 55 24 0 48 -18 127 -96 97 -95 138 -122 167
-111 30 12 16 61 -39 141 -59 88 -92 147 -97 180 -6 34 99 220 156 278 64 63
145 108 196 108 28 0 86 -23 206 -81 191 -93 264 -115 290 -89 15 15 15 18 0
41 -20 30 -92 80 -239 166 -60 34 -108 64 -108 66 0 1 51 -21 114 -51 193 -91
303 -123 321 -95 18 30 -82 110 -244 195 -92 48 -120 67 -147 104 -56 78 -95
226 -80 305 8 43 75 130 117 152 44 22 83 11 323 -98 252 -114 348 -149 409
-151 38 -2 52 2 63 17 8 11 14 23 14 27 0 16 -71 49 -197 93 -217 76 -388 164
-422 218 -11 18 -9 24 24 50 20 17 47 48 61 69 24 38 26 39 83 39 77 0 172 30
296 93 79 40 116 67 178 128 86 85 97 116 52 145 -37 24 -68 7 -83 -44 -16
-52 -71 -101 -169 -151 -104 -51 -136 -58 -161 -33 -39 39 -37 143 3 158 22 9
45 -14 45 -47 0 -54 61 -87 92 -49 22 27 23 61 3 126 -22 73 -19 90 26 139 52
56 100 73 166 58 82 -19 106 13 57 78 -22 29 -25 41 -20 82 11 99 108 233 211
292 138 79 231 203 183 243 -19 15 -63 -7 -133 -67 -108 -93 -239 -120 -328
-68 -56 33 -64 33 -92 3 -30 -33 -102 -41 -235 -26 -139 15 -283 39 -294 50
-13 13 56 28 233 50 462 57 853 185 903 295 15 33 -3 72 -37 81 -20 5 -34 -2
-69 -34 -51 -47 -103 -75 -236 -125 -126 -48 -254 -84 -328 -93 -103 -11 -89
19 38 82 179 88 311 207 376 340 38 77 42 119 10 119 -13 0 -35 -23 -64 -65
-72 -106 -231 -260 -269 -260 -25 0 -13 37 62 184 81 159 90 196 52 196 -31 0
-53 -26 -72 -81 -15 -42 -66 -109 -85 -109 -12 0 -19 28 -18 78 0 25 -5 50
-14 58 -25 25 -76 -21 -168 -156 l-85 -125 -5 78 c-4 62 -9 82 -24 92 -24 18
-48 6 -72 -35 -10 -16 -43 -43 -75 -60 -59 -31 -80 -60 -94 -130 -11 -53 -33
-90 -54 -90 -41 0 -85 120 -75 206 6 45 3 60 -24 114 -63 126 -172 274 -350
475 l-97 109 80 -44 c192 -104 267 -169 526 -448 79 -86 109 -100 129 -61 6
11 8 33 5 49 -19 88 -270 357 -475 512 -119 89 -157 124 -147 134 9 9 102 -36
187 -91 140 -89 263 -190 395 -320 130 -129 206 -184 238 -172 47 18 -3 109
-137 246 -159 164 -309 281 -475 371 -121 65 -139 103 -39 80 139 -34 566
-229 733 -336 188 -120 239 -140 275 -104 16 16 18 25 10 40 -30 55 -203 152
-859 480 -79 39 -141 73 -138 76 3 3 115 -20 249 -51 418 -97 489 -113 638
-139 80 -15 188 -29 240 -32 82 -6 98 -4 113 10 22 23 22 30 -7 63 -23 27 -26
28 -142 29 -101 2 -140 8 -254 38 -475 125 -677 180 -765 209 l-100 32 95 3
c52 2 176 -2 275 -7 434 -26 792 0 980 70 66 25 115 68 115 102 0 47 -67 50
-158 7 -146 -69 -305 -96 -506 -85 -363 19 -762 56 -793 74 -16 9 61 23 232
41 241 27 533 114 803 241 297 139 444 280 339 324 -48 20 -67 11 -127 -57
-63 -71 -207 -169 -342 -233 -211 -98 -526 -168 -544 -120 -9 23 12 42 121
113 111 72 275 228 363 347 98 132 176 319 142 340 -18 11 -55 -30 -151 -171
-49 -72 -116 -163 -149 -201 -65 -78 -201 -185 -285 -227 -123 -60 -117 -31
48 234 164 262 198 353 146 380 -41 23 -80 -29 -153 -203 -13 -31 -19 -37 -36
-32 -54 17 -446 197 -509 234 -57 34 -70 45 -61 56 28 33 108 39 535 40 231 1
439 4 462 9 80 15 80 54 0 74 -57 15 -316 30 -632 37 -252 6 -421 18 -434 30
-9 10 37 41 139 94 131 68 304 138 575 233 229 80 318 118 364 155 31 26 22
53 -17 53 -72 0 -410 -113 -837 -280 -287 -112 -350 -134 -368 -126 -7 3 83
99 219 233 481 475 596 616 539 663 -39 32 -96 -13 -233 -184 -242 -302 -632
-634 -632 -538 0 11 32 70 72 133 144 231 265 520 276 661 4 58 2 69 -13 74
-31 12 -44 -12 -249 -439 -41 -87 -96 -189 -121 -226 -46 -70 -163 -182 -151
-145 3 10 26 96 51 189 64 239 88 378 89 516 1 102 -1 120 -18 138 -27 29 -60
27 -75 -5 -6 -14 -18 -108 -26 -208 -18 -227 -50 -364 -113 -491 -30 -62 -50
-85 -73 -85 -24 0 -26 39 -16 260 12 273 6 456 -18 505 -16 32 -26 41 -51 43
-19 2 -36 -3 -44 -12 -28 -35 -79 -20 -323 95 -162 76 -322 133 -404 144 -125
16 -64 64 92 72 169 9 335 -49 463 -162 35 -30 67 -55 72 -55 5 0 17 11 26 25
21 31 13 80 -19 113 -22 23 -22 24 -3 38 11 8 26 14 33 14 8 0 27 7 43 15 73
37 0 130 -162 209 -110 54 -211 81 -359 98 -60 7 -109 15 -109 19 0 3 43 16
95 29 171 41 325 19 465 -66 72 -44 111 -55 141 -40 38 18 36 52 -5 91 -41 39
-193 101 -331 136 -82 20 -187 27 -282 16 -40 -4 -29 17 22 45 106 58 290 107
517 137 207 28 255 54 197 107 -45 41 -285 15 -512 -56 -54 -16 -119 -32 -146
-36 -27 -3 -66 -17 -87 -29 -156 -94 -194 -111 -194 -86 0 13 85 89 175 157
154 117 319 220 470 296 110 55 210 122 230 152 9 14 15 35 13 48 -7 51 -114
18 -309 -93 -245 -141 -513 -330 -681 -482 -59 -52 -118 -103 -132 -112 -169
-111 254 415 576 717 236 220 318 304 318 327 0 31 -30 42 -66 25 -103 -50
-489 -417 -731 -697 -153 -175 -193 -213 -193 -183 0 25 51 146 175 416 256
556 327 749 285 775 -35 22 -104 -96 -270 -460 -106 -232 -176 -372 -191 -381
-9 -5 -10 19 -6 102 23 388 18 519 -21 573 -27 37 -38 36 -74 -2 -38 -40 -85
-65 -248 -131 -63 -26 -180 -81 -258 -122 -79 -42 -146 -74 -148 -71 -9 9 105
143 167 198 148 129 269 212 437 299 84 43 135 90 126 114 -9 22 -59 39 -96
31 -61 -12 -192 -84 -298 -163 -219 -164 -372 -317 -569 -570 -61 -79 -111
-141 -111 -137 0 21 122 309 176 415 80 159 140 249 276 419 176 219 214 284
188 316 -19 23 -43 18 -93 -20 -102 -78 -301 -354 -427 -593 -237 -448 -285
-532 -302 -532 -13 0 -9 34 12 95 64 187 142 751 125 909 -8 76 -32 175 -46
193 -29 34 -38 10 -50 -142 -43 -532 -59 -644 -111 -779 l-32 -81 -7 40 c-5
22 -8 77 -8 121 -2 225 -107 518 -231 647 -62 64 -93 73 -112 32 -17 -38 3
-91 62 -160 112 -131 161 -275 163 -482 2 -121 -3 -156 -19 -140 -4 3 -19 62
-34 130 -45 197 -121 349 -230 458 -51 51 -137 99 -177 99 -30 0 -63 -34 -63
-65 0 -20 10 -30 53 -51 104 -53 166 -120 231 -250 63 -127 125 -400 96 -428
-16 -16 -41 21 -95 145 -107 246 -248 398 -384 416 -61 8 -105 -12 -158 -74
-58 -68 -79 -77 -134 -58 -59 21 -106 19 -119 -4 -15 -29 -12 -49 10 -68 25
-22 25 -33 1 -33 -10 0 -30 -9 -45 -21 -20 -16 -26 -29 -26 -57 1 -43 10 -56
65 -97 115 -85 294 -347 349 -513 14 -42 24 -77 23 -79 -2 -2 -35 41 -73 94
-149 210 -373 468 -438 503 -42 22 -56 1 -56 -86 0 -42 -5 -76 -11 -80 -6 -3
-36 18 -67 49 -101 100 -183 120 -381 93 -115 -16 -181 -15 -181 3 0 37 198
118 355 145 46 8 110 12 150 9 60 -5 74 -2 95 15 24 20 24 21 8 55 -9 19 -35
50 -57 68 -46 36 -51 49 -21 49 45 0 79 29 109 94 41 85 41 123 0 157 l-32 26
50 7 c58 7 78 25 69 61 -15 58 -218 135 -429 161 -44 5 -70 25 -54 41 18 17
112 22 225 12 132 -12 166 -8 176 17 10 26 -13 54 -59 74 -54 23 -60 33 -39
69 22 38 13 57 -33 70 -101 28 -273 2 -403 -61 -73 -35 -100 -57 -195 -152
-89 -89 -121 -130 -165 -209 -30 -54 -63 -106 -73 -115 -18 -16 -20 -16 -32 2
-23 30 -30 101 -29 266 1 116 5 166 17 197 22 58 85 150 171 247 40 44 80 92
89 106 21 31 22 79 1 87 -25 9 -57 -11 -148 -92 -47 -42 -86 -73 -86 -68 0 4
9 82 20 173 24 203 25 249 5 257 -42 16 -78 -69 -115 -269 -38 -206 -63 -318
-71 -318 -28 0 -186 176 -220 246 -23 49 -55 64 -95 45 -46 -21 -33 -55 91
-236 147 -214 145 -203 94 -467 -50 -264 -69 -340 -82 -335 -6 2 -14 17 -19
33 -16 59 -89 516 -118 739 -34 261 -62 420 -91 516 -29 102 -74 146 -99 100z
m-816 -763 c-13 -46 -28 -102 -34 -124 -10 -42 -44 -94 -60 -94 -5 0 -14 9
-20 20 -13 24 3 128 26 173 15 29 91 107 104 107 4 0 -4 -37 -16 -82z m-204
19 c0 -12 -7 -54 -15 -92 -9 -40 -20 -160 -25 -284 -4 -117 -12 -217 -18 -223
-14 -14 -78 143 -98 241 -21 107 -15 220 15 279 23 45 92 102 123 102 12 0 18
-7 18 -23z m545 -188 c4 -5 -1 -20 -12 -31 -15 -17 -18 -36 -16 -125 1 -77 -1
-103 -10 -101 -20 6 -97 128 -97 153 0 30 40 78 82 98 39 20 45 20 53 6z m33
-349 c46 -21 52 -34 23 -50 -40 -21 -87 -12 -115 21 -14 17 -24 35 -20 40 9
15 66 10 112 -11z m225 -52 c29 -15 37 -23 25 -26 -9 -2 -38 8 -65 22 -37 19
-43 25 -25 26 12 0 42 -10 65 -22z m-320 -72 c28 -28 64 -39 193 -61 193 -34
384 -163 384 -260 0 -34 -12 -32 -33 8 -21 39 -86 84 -187 131 -111 51 -192
69 -271 62 -78 -7 -84 -3 -105 76 -21 79 -19 82 19 44z m1976 -66 c23 -12 -96
-25 -197 -21 -44 1 -38 24 9 32 40 8 167 0 188 -11z m970 -135 c46 -42 97
-136 140 -259 35 -100 36 -126 1 -40 -34 82 -113 209 -165 265 -42 44 -50 69
-24 69 5 0 26 -16 48 -35z m-179 -71 c43 -17 89 -73 133 -159 32 -64 98 -227
93 -232 -1 -2 -34 45 -71 104 -80 126 -163 240 -194 267 -41 37 -25 45 39 20z
m-2649 -51 c34 -20 38 -37 7 -27 -30 9 -78 33 -78 39 0 11 44 4 71 -12z m4730
-49 c25 -30 21 -191 -8 -311 -6 -24 -23 -32 -23 -10 0 18 -61 142 -99 201 -17
28 -31 60 -31 73 0 46 130 85 161 47z m-2141 -101 c86 -107 140 -199 140 -240
0 -53 -28 -30 -68 56 -39 86 -71 134 -137 212 -25 29 -45 59 -45 67 0 26 41
-9 110 -95z m-2440 42 c7 -9 10 -18 8 -21 -7 -6 -78 22 -78 30 0 13 59 5 70
-9z m4307 -42 c5 -15 -67 -35 -115 -31 l-37 3 55 22 c58 24 91 26 97 6z m111
-239 c61 -27 64 -47 10 -52 -29 -2 -43 3 -72 28 -42 37 -49 65 -13 55 12 -4
46 -18 75 -31z m-6190 5 c3 -16 -60 -49 -93 -49 -32 0 -6 48 35 63 26 10 55 3
58 -14z m22 -169 c0 -11 -51 -34 -97 -43 -47 -9 -41 9 10 27 83 29 87 30 87
16z m214 -150 c30 -30 -101 -79 -159 -60 -88 29 -19 84 94 75 30 -2 59 -9 65
-15z m5374 -43 c12 -11 22 -29 22 -40 0 -17 -5 -19 -42 -14 -41 6 -88 33 -96
55 -5 16 37 32 68 25 14 -3 35 -15 48 -26z m292 -12 c65 -45 144 -165 119
-181 -13 -8 -150 130 -173 174 -15 30 -15 32 1 32 9 0 33 -11 53 -25z m-6934
-122 c24 -56 45 -185 42 -250 l-3 -58 -32 65 c-38 81 -54 138 -56 204 -2 83
23 102 49 39z m6849 -70 c17 -6 95 -118 95 -135 0 -16 -19 1 -70 63 -59 71
-65 88 -25 72z m-189 -48 c82 -48 199 -222 211 -315 6 -44 -3 -90 -17 -90 -5
0 -30 40 -55 89 -25 49 -82 138 -126 197 -102 139 -105 173 -13 119z m-7798
-202 c4 -39 -10 -67 -44 -89 -49 -33 -57 23 -13 95 25 41 53 39 57 -6z m5352
23 c0 -19 -27 -46 -46 -46 -24 0 -29 31 -9 46 25 18 55 18 55 0z m2058 -209
c11 -12 11 -17 -4 -32 -21 -20 -79 -15 -103 10 -15 15 -14 18 4 31 23 18 81
12 103 -9z m204 -14 c39 -45 98 -206 98 -267 l-1 -31 -23 26 c-18 21 -116 260
-116 284 0 12 28 4 42 -12z m1734 -18 c96 -32 210 -90 217 -109 8 -21 -8 -20
-78 4 -67 23 -265 116 -265 124 0 13 56 4 126 -19z m-2069 -111 c28 -18 40
-59 23 -79 -25 -31 -129 -9 -144 30 -12 32 -6 56 17 65 26 11 73 4 104 -16z
m-6811 -22 c-7 -22 -37 -34 -56 -22 -18 11 -5 39 22 49 28 11 42 0 34 -27z
m7047 -103 c20 -60 28 -157 12 -160 -16 -2 -46 89 -52 159 -5 53 -4 64 8 60 8
-2 22 -29 32 -59z m-354 -40 c15 -45 14 -118 -2 -125 -23 -9 -109 30 -130 58
-28 37 -12 72 45 98 50 22 71 15 87 -31z m181 -29 c0 -54 -14 -65 -31 -26 -14
30 -4 76 16 76 11 0 15 -13 15 -50z m10 -166 c0 -31 -4 -44 -14 -44 -25 0 -36
66 -14 88 18 18 28 4 28 -44z m-344 -25 c18 -35 13 -89 -11 -109 -11 -9 -16
-4 -24 27 -6 21 -11 55 -11 76 0 47 23 50 46 6z m2207 -28 c20 -16 22 -76 6
-133 -16 -58 -46 -52 -119 25 l-60 62 -83 0 c-63 0 -89 4 -111 18 -15 10 -25
21 -22 24 25 25 360 29 389 4z m-2028 -66 c0 -51 -8 -75 -21 -62 -10 10 -17
85 -10 113 11 44 31 11 31 -51z m2286 3 c80 -34 97 -93 80 -281 -15 -163 -39
-249 -108 -387 l-57 -115 -7 245 c-4 135 -12 305 -18 377 -16 198 -8 210 110
161z m-10396 -104 c-23 -17 -92 -37 -108 -31 -17 6 73 47 103 46 24 0 24 0 5
-15z m9775 -35 c36 -17 59 -34 52 -36 -7 -3 -45 11 -85 30 -40 20 -63 36 -52
36 11 1 49 -13 85 -30z m870 -163 c0 -165 -10 -245 -42 -318 -32 -76 -42 -61
-35 55 6 90 36 325 53 400 14 64 24 6 24 -137z m-539 -26 c44 -24 54 -65 54
-225 -1 -157 -15 -225 -49 -225 -36 0 -35 207 1 273 24 43 20 72 -16 131 -32
50 -28 66 10 46z m-440 -60 c31 -17 24 -40 -14 -40 -41 0 -86 28 -66 41 19 12
56 11 80 -1z m254 -124 c27 -123 5 -329 -40 -366 -28 -23 -39 33 -40 195 0
135 2 156 24 208 13 33 27 55 31 50 4 -4 16 -44 25 -87z m-9910 -15 c6 -11
-76 -43 -184 -71 -92 -23 -91 -23 -91 -10 0 13 82 60 133 75 49 16 133 19 142
6z m2940 -50 c3 -6 -19 -18 -50 -27 -44 -14 -58 -15 -68 -5 -9 10 -8 15 7 27
22 16 102 19 111 5z m6728 -98 c32 -143 32 -298 2 -340 -13 -17 -14 -17 -33 0
-37 34 -65 172 -51 258 10 61 44 149 59 149 4 0 15 -30 23 -67z m-509 -5 c8
-18 21 -91 30 -163 22 -175 34 -234 57 -271 24 -40 44 -143 31 -156 -16 -16
-51 1 -66 30 -7 15 -16 58 -19 97 -4 59 -9 73 -32 92 -29 25 -52 29 -88 12
-53 -24 -61 -104 -23 -221 33 -99 36 -147 13 -162 -28 -17 -68 35 -107 137
-35 93 -80 157 -111 157 -11 0 -31 -12 -46 -26 -23 -23 -25 -31 -21 -92 3 -54
13 -88 51 -170 59 -127 67 -162 40 -162 -24 0 -183 76 -260 126 -129 81 -157
123 -234 356 -55 166 -67 250 -37 256 47 9 122 -87 177 -225 46 -116 75 -137
122 -87 35 37 30 86 -25 253 -26 79 -45 149 -42 157 11 30 136 12 291 -42 91
-31 135 -26 168 18 20 26 20 30 5 62 -22 44 -9 56 60 56 50 0 54 -2 66 -32z
m210 -44 c32 -12 81 -235 74 -333 -11 -150 -98 73 -98 251 0 48 2 88 4 88 2 0
11 -3 20 -6z m-1244 -224 c37 -53 100 -196 170 -391 37 -105 69 -192 71 -194
2 -1 67 -31 144 -65 223 -100 269 -138 156 -127 -35 3 -154 37 -298 86 -223
76 -304 94 -317 72 -20 -31 54 -85 260 -189 157 -80 224 -124 224 -149 0 -26
-147 -10 -345 37 -93 22 -202 43 -242 47 -68 5 -72 4 -98 -21 -14 -15 -25 -32
-23 -39 7 -23 94 -57 268 -103 227 -60 223 -59 185 -74 -117 -46 -196 -38
-409 44 -85 33 -168 58 -199 61 -57 5 -63 10 -103 87 -33 64 -55 152 -47 191
10 57 51 113 150 206 53 50 97 90 98 88 1 -1 -2 -42 -7 -92 -8 -69 -7 -99 4
-130 18 -54 47 -58 81 -13 35 46 55 124 67 258 14 175 63 328 130 403 39 45
52 46 80 7z m-8435 -36 c15 -20 43 -42 61 -50 39 -16 49 -44 84 -234 12 -63
32 -160 46 -215 38 -160 -6 -151 -88 18 -56 114 -93 219 -124 357 -37 162 -31
193 21 124z m8055 -18 c0 -15 -55 -66 -71 -66 -26 0 0 49 36 68 27 15 35 15
35 -2z m3751 -478 c85 -29 149 -96 149 -155 0 -50 -12 -94 -27 -100 -25 -10
-243 218 -243 253 0 18 72 19 121 2z m-243 -93 c46 -41 112 -127 112 -146 0
-13 -30 -39 -45 -39 -27 0 -78 55 -106 115 -28 59 -38 115 -20 115 5 0 31 -20
59 -45z m-681 -19 c15 -19 62 -97 102 -173 82 -152 123 -217 157 -249 47 -44
70 -196 38 -242 -12 -18 -24 -22 -52 -20 l-37 3 -1 70 c0 48 -8 87 -23 125
-30 74 -108 220 -166 311 -59 91 -84 146 -85 182 0 39 32 36 67 -7z m438 7
c51 -55 125 -233 97 -233 -6 0 -22 15 -36 33 -28 36 -106 194 -106 214 0 21
17 15 45 -14z m-197 -35 c44 -47 111 -228 85 -228 -17 0 -41 34 -77 110 -56
118 -60 172 -8 118z m-482 -30 c61 -66 134 -183 134 -214 0 -44 -63 9 -109 91
-17 29 -44 63 -61 75 -31 22 -38 48 -18 68 17 17 21 16 54 -20z m1539 -28 c10
-11 18 -33 17 -49 -1 -32 -36 -94 -72 -126 -22 -20 -22 -20 -37 0 -21 29 -14
146 11 174 24 26 58 27 81 1z m-1754 -57 c51 -54 119 -141 119 -154 0 -35
-101 45 -149 118 -29 44 -40 83 -23 83 4 0 28 -21 53 -47z m-103 -178 c110
-105 150 -159 132 -180 -11 -13 -16 -13 -42 3 -41 23 -182 172 -218 228 -61
97 -2 73 128 -51z m1101 -22 c22 -77 10 -165 -26 -205 -24 -27 -43 -11 -43 36
0 47 39 206 51 206 4 0 13 -17 18 -37z m-1378 -23 c62 -40 166 -151 175 -184
4 -19 2 -33 -8 -43 -14 -13 -19 -13 -45 1 -52 27 -180 178 -197 234 -10 32 20
29 75 -8z m-4250 -40 c46 -13 114 -72 139 -119 58 -115 17 -251 -97 -318 -39
-23 -60 -28 -113 -28 -39 0 -77 7 -96 16 l-31 16 0 -56 c0 -101 -47 -174 -138
-217 -61 -29 -134 -31 -191 -5 l-42 19 -4 -68 c-5 -87 -42 -151 -112 -195 -43
-26 -59 -30 -120 -30 -57 0 -80 5 -116 25 -98 55 -144 164 -115 273 18 71 19
67 -3 67 -10 0 -42 12 -70 26 -100 50 -150 167 -119 274 32 107 118 173 226
173 99 0 190 -60 227 -149 18 -43 18 -121 -1 -173 -13 -38 -13 -41 3 -41 9 0
36 -9 60 -20 l42 -19 0 58 c0 177 174 287 343 216 15 -6 17 -1 17 46 0 58 27
128 63 168 53 58 162 85 248 61z m2299 -126 c73 -25 151 -54 174 -63 l41 -18
-50 -25 c-92 -47 -260 -116 -296 -123 -27 -5 -40 -2 -54 11 -15 16 -17 31 -12
120 5 108 17 144 47 144 10 0 78 -21 150 -46z m1835 -6 c44 -51 68 -95 60
-108 -18 -29 -129 13 -145 55 -13 34 6 95 30 95 10 0 35 -19 55 -42z m-8510
-14 c114 -46 214 -129 188 -155 -7 -7 -37 -1 -91 17 -67 23 -83 25 -96 14 -9
-7 -16 -19 -16 -26 0 -21 -16 -17 -32 9 -15 24 -78 163 -78 173 0 9 61 -7 125
-32z m9329 5 c21 -24 26 -41 26 -83 0 -124 -87 -271 -149 -251 -48 15 -53 145
-11 257 41 110 85 136 134 77z m196 -158 c0 -39 -20 -68 -40 -56 -15 9 -12 57
6 83 21 30 34 19 34 -27z m-11720 0 c0 -20 9 -36 26 -50 34 -27 52 -26 80 0
54 50 167 33 239 -36 25 -25 79 -67 120 -95 71 -48 105 -89 105 -125 0 -9 -12
-37 -26 -61 -24 -41 -26 -52 -20 -112 3 -37 9 -84 12 -104 4 -24 2 -38 -5 -38
-19 0 -29 35 -46 150 -23 167 -29 175 -154 230 -77 33 -107 52 -117 72 -14 26
-25 31 -135 62 -92 26 -124 64 -103 120 10 26 24 18 24 -13z m11210 8 c14 -24
18 -144 6 -176 -8 -26 -51 -41 -75 -26 -21 13 -26 83 -11 143 19 73 57 102 80
59z m-8640 -110 c21 -38 -56 -79 -88 -47 -18 18 -15 66 5 76 22 13 70 -4 83
-29z m8400 6 c0 -20 -22 -65 -32 -65 -11 0 -10 25 4 55 12 27 28 33 28 10z
m-2160 -64 c0 -27 50 -66 110 -86 62 -21 62 -36 1 -83 -34 -26 -51 -32 -72
-28 -48 9 -108 -56 -61 -67 12 -3 7 -8 -20 -20 -58 -26 -85 -22 -108 16 -29
47 -26 81 11 107 27 20 30 26 24 61 -8 45 -1 60 45 94 41 30 70 33 70 6z
m-1857 -2 c21 -6 56 -26 78 -46 38 -34 42 -36 122 -37 70 -1 89 -5 128 -28 58
-34 96 -89 111 -161 10 -48 9 -64 -6 -112 -17 -54 -67 -119 -110 -142 -17 -9
-17 -14 -6 -48 48 -144 -90 -316 -242 -304 l-44 4 4 -60 c3 -33 5 -61 7 -63 1
-1 14 2 29 8 73 27 200 -3 253 -61 34 -37 63 -109 63 -158 0 -70 -21 -122 -70
-173 l-46 -48 43 -21 c142 -69 179 -264 70 -377 -97 -101 -245 -104 -342 -7
-52 52 -81 132 -71 199 9 55 59 140 95 162 l30 18 -52 26 c-88 44 -146 144
-134 233 5 33 3 38 -11 32 -107 -45 -227 -13 -292 77 -51 69 -60 157 -25 240
4 11 0 18 -14 23 -35 11 -99 84 -115 132 -21 62 -20 119 5 173 42 93 117 144
215 144 l61 1 -24 50 c-86 186 87 381 290 324z m-6193 -119 c0 -14 -47 -108
-72 -142 -26 -37 -45 -35 -65 6 -15 32 -15 37 1 60 9 14 40 39 69 56 56 32 67
35 67 20z m4471 -51 c102 -44 166 -155 157 -273 -8 -99 -61 -176 -152 -224
-41 -21 -65 -26 -121 -25 -79 0 -126 17 -180 64 -114 100 -127 273 -29 388 81
95 205 121 325 70z m-4295 -57 c6 -4 19 -22 28 -39 9 -18 41 -51 71 -73 57
-42 69 -64 63 -121 -2 -27 -8 -35 -26 -37 -17 -3 -37 11 -78 54 -55 57 -55 57
-103 51 -42 -5 -52 -3 -70 17 -24 25 -39 71 -33 99 7 34 116 70 148 49z m9908
-426 c1 -52 -7 -76 -20 -63 -10 10 -17 85 -10 113 11 43 30 12 30 -50z m1420
-75 c69 -36 213 -183 325 -329 151 -199 204 -300 180 -343 -13 -26 -71 -34
-152 -21 -107 16 -123 38 -217 287 -70 187 -142 327 -196 385 -24 26 -44 50
-44 54 0 11 53 -5 104 -33z m-12844 -47 c228 -17 462 -42 505 -54 25 -7 18 -8
-35 -10 -309 -6 -789 22 -862 51 -16 6 -28 15 -28 20 0 18 115 17 420 -7z
m12675 -56 c40 -47 146 -250 195 -372 36 -91 63 -198 54 -219 -7 -20 -44 -35
-103 -43 -44 -6 -51 -4 -65 18 -9 13 -20 67 -26 123 -14 125 -32 216 -76 375
-48 176 -45 194 21 118z m-229 -34 c46 -68 106 -206 129 -295 20 -75 32 -249
18 -249 -13 0 -100 217 -158 394 -74 226 -71 271 11 150z m-274 24 c64 -83 97
-189 64 -201 -42 -16 -136 113 -136 188 0 56 34 62 72 13z m-232 -41 c86 -130
107 -255 37 -218 -49 26 -97 142 -97 233 0 60 13 56 60 -15z m-6394 -53 c158
-97 147 -329 -20 -417 -56 -29 -155 -29 -211 0 -85 45 -129 117 -129 213 0
101 49 180 139 222 62 29 158 21 221 -18z m6839 -394 c11 -18 -14 -48 -50 -60
-58 -19 -76 12 -29 49 28 22 69 28 79 11z m-7171 -55 c96 -46 150 -138 150
-250 0 -111 -51 -193 -154 -246 -62 -33 -177 -33 -236 -2 -104 55 -155 136
-156 246 -1 112 57 205 157 254 42 20 62 23 125 21 47 -3 89 -11 114 -23z
m7416 -143 c0 -23 -19 -42 -41 -42 -29 0 -34 22 -9 42 28 23 50 23 50 0z
m-154 -37 c20 -8 34 -20 32 -27 -13 -43 -207 -85 -338 -73 -82 8 -123 15 -116
22 2 3 53 15 113 28 59 13 131 32 158 43 61 25 105 27 151 7z m-6738 -52 c68
-42 106 -108 110 -192 3 -57 0 -73 -25 -121 -20 -38 -43 -65 -76 -87 -46 -31
-46 -31 -24 -46 12 -8 36 -39 52 -68 60 -111 25 -248 -80 -314 -55 -34 -149
-45 -210 -25 -50 16 -114 75 -136 125 -23 50 -24 142 -3 193 17 42 67 97 105
117 l27 14 -39 41 c-24 25 -44 60 -54 92 -19 64 -19 72 0 136 45 150 220 217
353 135z m6258 -167 c24 -18 12 -30 -30 -29 -37 1 -76 18 -76 33 0 15 84 12
106 -4z m-4470 -162 c93 -57 136 -175 101 -278 l-16 -46 27 7 c15 5 57 8 93 8
56 0 73 -5 115 -30 123 -77 150 -246 57 -355 -74 -86 -177 -110 -284 -66 -13
6 -17 -2 -22 -43 -12 -102 -77 -178 -176 -207 -92 -27 -179 0 -245 78 -130
152 -20 388 182 388 29 0 68 -7 87 -14 l35 -15 0 28 c0 15 6 49 14 75 l14 47
-31 -8 c-166 -42 -311 64 -311 227 0 100 50 180 139 222 62 29 158 21 221 -18z
m6272 -9 c345 -42 349 -44 337 -140 -12 -97 -26 -100 -175 -38 -217 89 -332
134 -417 159 -51 16 -93 32 -93 36 0 15 141 8 348 -17z m-5 -239 c110 -40 168
-68 187 -91 13 -15 11 -20 -9 -36 -49 -40 -94 -20 -221 99 -36 34 -62 61 -58
62 4 0 49 -15 101 -34z m-11404 -25 c22 -22 65 -149 76 -222 10 -67 -9 -70
-41 -7 -48 97 -92 110 -168 52 -107 -82 -244 -116 -314 -78 -30 16 -36 17 -40
5 -11 -32 -53 -61 -120 -81 -72 -22 -153 -24 -159 -3 -12 36 154 120 321 163
133 34 155 44 216 95 62 52 132 85 203 94 4 1 16 -8 26 -18z m3069 -280 c141
-72 175 -263 66 -375 -55 -57 -89 -71 -174 -71 -85 0 -119 14 -174 71 -124
127 -63 337 114 395 39 13 123 3 168 -20z m1273 -56 c101 -36 159 -118 159
-225 0 -102 -46 -175 -135 -216 -123 -58 -270 -1 -323 126 -7 19 -14 59 -14
90 0 163 160 279 313 225z m-611 -61 c128 -38 217 -195 181 -320 l-9 -32 77
-4 c93 -6 143 -29 200 -94 42 -48 71 -121 71 -179 0 -61 -30 -135 -73 -182
-135 -147 -366 -115 -452 62 -24 48 -27 64 -23 135 l3 80 -65 0 c-152 0 -269
115 -270 266 0 131 66 226 189 270 49 18 107 17 171 -2z m-2361 -48 c10 -12 7
-18 -13 -31 -31 -21 -59 -14 -49 12 12 34 42 43 62 19z m9514 -754 c20 -22 39
-72 28 -72 -14 0 -61 59 -61 76 0 19 14 18 33 -4z m-3277 -127 c6 -35 -15 -85
-36 -85 -11 0 -30 33 -30 54 0 66 54 92 66 31z m3187 -5 c42 -46 80 -115 75
-137 -7 -37 -158 113 -158 158 0 34 44 23 83 -21z m-2812 -27 c7 -18 9 -72 5
-148 -7 -140 -12 -167 -35 -163 -12 3 -16 14 -14 53 0 28 2 99 2 159 1 59 4
112 7 117 10 17 24 9 35 -18z m2589 -24 c19 -12 70 -57 113 -101 84 -86 93
-113 47 -135 -60 -28 -78 -27 -109 8 -40 44 -111 184 -111 220 0 35 13 36 60
8z m-191 -47 c56 -59 151 -266 151 -329 0 -18 -5 -24 -19 -21 -14 2 -46 55
-110 180 -50 98 -91 185 -91 193 0 27 32 16 69 -23z m-224 -16 c62 -66 176
-258 210 -355 17 -49 14 -61 -11 -41 -34 29 -264 396 -264 422 0 19 35 5 65
-26z m-112 -142 c78 -113 175 -301 184 -356 5 -31 3 -38 -11 -38 -29 0 -63 48
-101 143 -20 51 -66 146 -101 213 -35 67 -64 127 -64 133 0 28 29 -1 93 -95z
m-8153 45 c16 -30 9 -64 -14 -64 -21 0 -42 45 -32 70 8 22 34 18 46 -6z m8002
-93 c70 -94 104 -151 114 -190 16 -67 -56 17 -149 174 -91 152 -72 160 35 16z
m-2126 48 c12 -17 14 -28 7 -35 -17 -17 -53 8 -53 36 0 33 25 32 46 -1z m584
-49 c0 -36 -31 -89 -60 -105 -33 -18 -36 -5 -10 58 33 83 50 108 61 91 5 -8 9
-27 9 -44z m-6628 6 c10 -19 15 -37 12 -40 -7 -7 -64 55 -64 70 0 23 36 2 52
-30z m-165 -100 c27 -40 28 -50 6 -58 -20 -8 -73 48 -73 78 0 32 40 20 67 -20z
m8117 -83 c22 -32 20 -50 -5 -46 -27 4 -44 30 -36 52 9 22 23 20 41 -6z
m-8310 -30 c5 -15 7 -31 3 -34 -12 -12 -57 15 -57 34 0 42 39 41 54 0z m8041
-115 c139 -171 171 -248 126 -304 -21 -26 -12 -27 -110 13 -24 9 -33 9 -46 -2
-9 -8 -54 -91 -100 -184 -78 -158 -133 -246 -156 -246 -18 0 -9 41 32 141 76
189 109 323 134 549 8 74 15 138 15 143 0 16 13 2 105 -110z m-8215 49 c0 -23
-19 -42 -41 -42 -29 0 -34 22 -9 42 28 23 50 23 50 0z m-1220 -21 c0 -29 -169
-131 -217 -131 -60 0 -5 56 107 109 64 31 110 40 110 22z m9725 -31 c18 -36
20 -83 3 -78 -19 6 -49 73 -42 92 9 24 22 20 39 -14z m-8703 -77 c58 -59 81
-102 66 -120 -22 -26 -79 -13 -125 30 -18 16 -23 31 -23 72 0 82 16 85 82 18z
m-1937 -70 c-30 -103 -65 -148 -65 -84 0 36 23 103 53 150 20 33 22 34 25 13
2 -12 -4 -48 -13 -79z m145 4 c0 -27 -25 -65 -36 -54 -7 7 20 77 31 77 3 0 5
-10 5 -23z m395 2 c22 -34 -47 -119 -96 -119 -38 0 -45 19 -23 65 24 51 100
86 119 54z m9381 -231 c8 -13 -30 -48 -52 -48 -17 0 -18 32 -2 48 15 15 45 15
54 0z m-2756 -136 c0 -24 -25 -47 -74 -67 -51 -22 -86 -13 -86 21 0 20 9 29
43 44 56 26 117 27 117 2z m3219 -51 c-35 -102 -109 -208 -109 -154 1 38 99
213 120 213 5 0 0 -26 -11 -59z m-5564 17 c-20 -63 -42 -195 -34 -209 5 -9 50
-38 101 -64 51 -26 95 -50 98 -52 8 -7 -21 -20 -75 -32 -29 -7 -65 -23 -79
-36 -44 -40 -43 -67 3 -159 23 -46 46 -110 52 -142 22 -121 29 -136 94 -204
35 -36 68 -77 73 -91 15 -37 -2 -59 -44 -59 -29 0 -44 9 -88 53 -29 28 -81 95
-116 147 -92 139 -137 190 -166 190 -53 0 -19 -84 121 -296 96 -144 155 -254
155 -287 0 -74 -100 -97 -256 -57 -167 42 -297 131 -310 210 -4 23 -15 51 -25
63 l-17 22 -31 -29 c-17 -16 -59 -83 -93 -150 -62 -120 -130 -206 -161 -206
-34 0 -18 54 44 155 121 196 193 382 206 526 7 77 -6 109 -43 109 -32 0 -47
-34 -79 -179 -29 -132 -52 -193 -98 -262 -52 -79 -107 -107 -142 -72 -28 27
-14 80 100 378 88 231 94 251 105 343 6 55 18 94 49 156 73 148 127 178 392
221 90 14 171 28 179 29 8 2 32 4 53 5 35 1 38 -1 32 -21z m-1935 -42 c0 -17
-10 -31 -33 -45 -35 -21 -57 -57 -57 -91 0 -37 -35 -60 -93 -60 -64 0 -73 -6
-44 -31 18 -14 20 -21 11 -36 -15 -25 -52 -28 -75 -7 -37 33 -19 84 41 113 21
10 37 27 43 46 13 41 43 72 102 106 64 37 105 39 105 5z m7708 -29 c6 -46 -48
-125 -122 -178 -43 -32 -76 -38 -76 -14 0 47 87 172 145 207 37 22 49 19 53
-15z m172 -16 c0 -41 -64 -180 -97 -211 -14 -14 -15 -8 -9 65 10 135 32 185
82 185 21 0 24 -4 24 -39z m-3469 -8 c8 -9 71 -63 142 -121 70 -57 134 -117
143 -134 18 -35 15 -75 -17 -203 -46 -180 -113 -329 -185 -405 -53 -57 -91
-75 -139 -66 -43 8 -52 35 -37 110 6 29 8 87 5 130 -6 72 -4 80 27 141 18 35
30 71 27 78 -3 8 -44 40 -91 71 -47 30 -86 60 -86 66 0 5 10 12 23 14 114 22
137 29 166 54 27 22 34 35 35 67 l1 40 -100 2 c-55 2 -111 5 -123 8 -36 9 -11
31 56 50 66 19 97 45 106 86 6 32 26 38 47 12z m-4812 -277 c31 -32 33 -37 22
-64 -18 -44 -149 -176 -199 -201 -53 -27 -72 -17 -72 38 0 49 38 112 78 133
47 23 67 43 87 88 22 49 41 50 84 6z m-1119 -49 c0 -48 -70 -77 -78 -34 -5 25
26 57 55 57 17 0 23 -6 23 -23z m7223 -215 c39 -43 95 -228 81 -266 -19 -48
-65 26 -88 142 -31 150 -30 165 7 124z m-161 -39 c28 -32 55 -156 39 -181 -6
-10 -15 -4 -35 22 -40 53 -59 104 -51 143 7 36 24 42 47 16z m622 -164 c39
-131 49 -204 27 -204 -37 0 -87 159 -97 304 l-5 86 20 -36 c11 -20 36 -88 55
-150z m-6842 96 c8 -19 8 -28 -2 -40 -25 -31 -70 -11 -70 31 0 40 55 46 72 9z
m6636 -22 c28 -66 46 -156 38 -188 -14 -57 -63 4 -76 96 -9 64 -4 139 10 139
4 0 17 -21 28 -47z m-7618 -81 c39 -101 77 -149 128 -158 54 -10 64 -21 57
-65 -5 -30 -2 -42 14 -58 26 -26 56 -26 116 0 30 14 56 18 73 14 43 -10 91
-64 107 -119 18 -61 19 -162 2 -196 -25 -50 -214 -96 -291 -70 -49 16 -62 42
-46 94 15 50 15 134 -1 186 -7 24 -33 62 -65 94 -87 90 -192 325 -170 382 6
17 8 17 26 -2 10 -10 33 -57 50 -102z m8000 46 c51 -84 99 -292 80 -343 l-11
-30 -18 24 c-52 68 -118 381 -81 381 6 0 19 -15 30 -32z m199 -52 c36 -38 53
-110 58 -251 4 -104 2 -134 -10 -149 -14 -19 -15 -18 -25 15 -6 19 -16 95 -22
169 -8 100 -16 145 -31 174 -31 60 -12 87 30 42z m-8417 -258 c40 -46 106
-117 146 -158 90 -93 90 -92 98 -160 8 -69 44 -152 89 -201 50 -56 68 -94 51
-108 -19 -16 -63 3 -158 67 -40 27 -109 68 -153 92 -44 24 -95 57 -112 73 -53
50 -83 174 -83 345 0 95 10 132 35 132 7 0 47 -37 87 -82z m8645 -183 c-3 -39
-12 -88 -21 -108 -16 -39 -46 -51 -46 -18 0 28 18 119 36 181 13 46 17 52 26
36 6 -11 8 -49 5 -91z m-2361 73 c8 -13 -30 -48 -52 -48 -17 0 -18 32 -2 48
15 15 45 15 54 0z m2992 -152 c80 -122 165 -271 214 -375 27 -57 47 -105 46
-107 -9 -8 -221 -25 -229 -17 -5 5 -4 25 2 46 13 47 1 137 -47 342 -19 83 -37
156 -39 163 -11 31 14 6 53 -52z m-2740 32 c4 -22 -44 -75 -162 -176 -55 -48
-113 -108 -130 -135 l-30 -49 -61 7 c-33 3 -64 10 -69 15 -16 15 20 45 98 83
89 43 106 64 106 132 0 65 24 89 117 122 77 26 126 27 131 1z m-3048 -59 c84
-37 99 -69 33 -69 -53 0 -108 19 -145 51 -28 24 -31 30 -18 39 19 13 71 4 130
-21z m-187 -161 c80 -40 53 -78 -55 -78 -71 0 -148 23 -148 45 0 15 28 41 60
54 32 13 94 4 143 -21z m-1137 -83 c22 -53 17 -195 -7 -195 -25 0 -71 175 -56
213 11 30 47 20 63 -18z m7024 -26 c24 -44 -10 -98 -44 -70 -18 15 -21 44 -6
72 14 25 36 24 50 -2z m-2455 -115 c-1 -120 -17 -171 -66 -207 -31 -23 -103
-34 -113 -18 -17 27 74 244 130 310 42 50 49 37 49 -85z m-6695 76 c28 -20
130 -141 130 -155 0 -10 -87 54 -147 108 -29 27 -50 53 -47 58 9 15 34 10 64
-11z m1945 -51 c21 -82 47 -291 37 -301 -22 -22 -82 199 -82 298 0 95 21 97
45 3z m1662 44 c7 -21 -66 -90 -125 -116 -88 -40 -168 -57 -261 -57 -72 0 -91
4 -126 25 -64 37 -66 55 -5 55 89 0 204 21 280 52 41 16 91 36 110 44 41 16
122 14 127 -3z m-1836 -152 c10 -58 18 -137 18 -176 0 -65 -1 -68 -14 -45 -27
50 -66 324 -50 350 13 21 26 -16 46 -129z m3004 108 c4 -6 1 -46 -6 -89 -10
-63 -10 -84 0 -102 6 -13 19 -36 28 -53 14 -25 15 -41 6 -104 -13 -90 -5 -117
36 -126 25 -5 31 -12 31 -33 0 -36 -45 -131 -65 -138 -29 -11 -41 12 -26 49
27 67 26 76 -17 120 -52 53 -64 84 -51 131 12 42 -2 75 -50 120 -56 53 -59
129 -9 184 39 41 109 65 123 41z m1539 -113 c42 -17 47 -45 16 -76 -28 -28
-92 -26 -156 4 -62 29 -75 53 -42 80 19 15 34 17 85 13 34 -4 78 -13 97 -21z
m-4725 -53 c23 -76 56 -246 66 -340 6 -53 4 -63 -8 -63 -50 0 -97 137 -104
302 -9 178 11 220 46 101z m6251 -173 c16 -67 34 -170 41 -228 6 -59 17 -120
25 -136 13 -26 12 -30 -15 -57 -31 -30 -60 -31 -62 0 -1 9 -2 93 -3 186 -2
133 -7 192 -24 269 -44 197 -12 168 38 -34z m-299 -9 c25 -170 13 -381 -21
-381 -16 0 -20 49 -20 230 0 274 15 328 41 151z m-6131 -90 c29 -58 62 -185
58 -228 l-3 -38 -22 41 c-40 74 -81 264 -58 264 2 0 14 -18 25 -39z m5074 -17
c17 -43 -3 -154 -27 -154 -7 0 -43 25 -82 56 -38 31 -79 62 -89 70 -11 7 -17
16 -13 20 12 12 72 22 138 23 52 1 68 -2 73 -15z m424 -46 c-4 -36 -22 -84
-64 -165 -58 -112 -81 -140 -110 -129 -24 9 -16 45 25 104 21 31 59 99 85 150
25 50 51 92 57 92 8 0 10 -17 7 -52z m182 8 c0 -53 -43 -225 -71 -283 -22 -45
-47 -55 -69 -28 -17 21 0 99 47 217 35 87 66 138 84 138 5 0 9 -20 9 -44z
m-6710 -55 c-6 -12 -16 -21 -21 -21 -13 0 -3 48 14 69 10 12 13 11 15 -7 2
-11 -2 -30 -8 -41z m886 -26 c27 -58 84 -271 84 -311 0 -56 -47 -2 -84 98 -26
68 -56 200 -56 243 0 44 29 29 56 -30z m3974 7 c0 -12 -54 -62 -68 -62 -19 0
-14 21 10 47 21 22 58 32 58 15z m-4142 -109 c64 -139 192 -489 192 -524 0
-31 -35 -22 -71 18 -45 52 -103 181 -133 295 -28 106 -45 278 -29 278 6 0 24
-30 41 -67z m2312 -146 c0 -42 -117 -174 -144 -164 -27 11 -19 63 16 102 47
54 128 93 128 62z m-2440 -151 c0 -52 -15 -68 -31 -32 -14 30 -4 76 16 76 11
0 15 -12 15 -44z m1799 -314 c65 -89 97 -152 77 -152 -17 0 -92 102 -130 177
-36 72 -10 60 53 -25z m-580 -83 c2 -64 48 -224 100 -348 56 -133 79 -206 68
-218 -12 -12 -83 66 -110 120 -79 162 -130 470 -87 522 14 17 15 16 21 -11 4
-16 7 -45 8 -65z m187 -79 c107 -235 179 -342 284 -422 l35 -27 -53 -1 c-29 0
-68 6 -87 14 -89 38 -175 183 -225 380 -35 136 -48 226 -31 211 6 -6 40 -76
77 -155z m129 32 c20 -38 76 -122 126 -188 133 -175 149 -212 66 -155 -75 51
-141 148 -203 297 -31 76 -41 114 -30 114 3 0 21 -31 41 -68z m-484 -43 c20
-129 123 -381 205 -504 21 -32 55 -70 77 -86 48 -35 45 -35 -30 -8 -152 56
-218 134 -262 305 -40 159 -49 315 -19 352 15 18 17 13 29 -59z m782 -119 c54
-58 70 -90 46 -90 -18 0 -159 146 -159 164 0 28 49 -5 113 -74z m742 52 c-11
-35 -66 -80 -149 -122 l-81 -41 40 36 c75 68 187 156 192 151 3 -2 2 -13 -2
-24z"/>
</g>
</svg>
