<?xml version="1.0" standalone="no"?>
<!DOCTYPE svg PUBLIC "-//W3C//DTD SVG 20010904//EN"
 "http://www.w3.org/TR/2001/REC-SVG-20010904/DTD/svg10.dtd">
<svg version="1.0" xmlns="http://www.w3.org/2000/svg"
 width="1536.000000pt" height="713.000000pt" viewBox="0 0 1536.000000 713.000000"
 preserveAspectRatio="xMidYMid meet">
<metadata>
Created by potrace 1.16, written by Peter Selinger 2001-2019
</metadata>
<g transform="translate(0.000000,713.000000) scale(0.100000,-0.100000)"
fill="#000000" stroke="none">
<path d="M4395 7093 c9 -20 27 -52 41 -71 14 -18 24 -34 23 -36 -2 -1 -25 -10
-52 -20 -63 -24 -150 -104 -181 -169 -47 -96 -75 -250 -96 -526 -24 -312 -11
-483 76 -1001 39 -230 45 -288 40 -355 -8 -106 -28 -183 -76 -283 l-40 -83 35
-15 c24 -10 52 -12 90 -8 32 4 55 3 55 -3 0 -10 -502 -40 -830 -50 -311 -8
-713 11 -860 42 -166 36 -283 71 -379 116 -173 80 -287 165 -491 364 -400 389
-600 554 -955 790 -298 198 -472 274 -648 283 -93 4 -99 3 -123 -19 -23 -22
-26 -29 -21 -77 4 -34 24 -92 55 -160 28 -59 71 -156 97 -217 124 -290 315
-575 614 -920 197 -227 322 -355 458 -472 142 -122 160 -142 201 -230 24 -52
27 -69 26 -168 0 -93 -4 -122 -27 -188 -60 -172 -127 -275 -292 -447 -185
-193 -319 -379 -436 -605 -116 -223 -147 -323 -119 -376 8 -14 21 -19 55 -19
58 0 156 50 545 281 162 96 357 211 434 255 198 113 403 270 544 417 376 392
474 471 627 506 89 20 315 33 440 25 149 -9 112 -20 -105 -30 -221 -10 -217
-22 22 -65 63 -11 130 -30 153 -42 52 -29 83 -86 91 -168 6 -58 11 -68 49
-105 55 -53 111 -69 245 -69 82 0 121 5 179 23 66 21 81 31 140 91 108 110
216 172 328 187 43 5 80 -3 263 -55 118 -34 217 -65 220 -68 3 -3 -6 -3 -20 0
-49 12 -256 28 -315 25 l-60 -3 3 -30 c6 -54 47 -128 120 -214 83 -98 126
-180 187 -357 45 -132 176 -488 213 -581 66 -164 151 -301 234 -379 80 -76
126 -97 228 -102 235 -11 434 107 872 518 164 155 239 205 392 266 100 40 203
62 333 70 93 6 109 4 268 -34 613 -147 1072 -195 2235 -233 195 -6 356 -13
358 -14 2 -2 -17 -34 -42 -73 -81 -124 -81 -211 -1 -352 58 -102 139 -266 185
-375 23 -55 79 -179 125 -275 126 -266 184 -433 281 -805 30 -116 66 -234 80
-262 64 -133 215 -181 338 -109 73 42 265 298 427 566 99 165 483 932 527
1053 21 58 37 130 48 215 18 147 50 251 103 342 21 36 48 84 59 106 l21 42
138 6 c588 27 1204 104 1633 205 506 119 928 230 990 261 83 42 176 114 207
161 24 36 28 55 33 138 3 53 2 98 -2 99 -5 2 -8 16 -8 30 -1 26 -1 26 -15 8
-8 -11 -24 -21 -35 -23 -15 -2 -20 3 -20 22 0 27 -17 34 -26 10 -4 -8 -17 -15
-30 -15 -19 0 -24 5 -24 28 -1 26 -1 26 -16 7 -8 -11 -20 -19 -25 -17 -5 1 -9
-3 -9 -9 0 -6 -7 -4 -15 5 -8 8 -15 22 -15 30 0 23 -17 20 -25 -4 -4 -11 -10
-18 -15 -15 -5 3 -10 0 -12 -7 -6 -17 -38 14 -38 36 0 23 -17 20 -25 -4 -4
-11 -11 -18 -16 -15 -5 4 -9 -1 -9 -9 0 -9 -4 -16 -10 -16 -5 0 -10 7 -10 15
0 8 -4 15 -9 15 -5 0 -12 10 -15 23 -6 22 -7 22 -18 2 -26 -44 -37 -49 -58
-25 -11 13 -20 27 -20 32 0 5 -5 6 -10 3 -6 -3 -10 -15 -10 -26 0 -11 -4 -17
-10 -14 -5 3 -10 -1 -10 -9 0 -9 -4 -16 -10 -16 -5 0 -10 4 -10 9 0 6 -11 22
-25 37 -24 26 -25 26 -25 6 0 -12 -7 -30 -17 -41 -18 -22 -30 -15 -50 29 l-11
25 -7 -27 c-4 -16 -11 -28 -16 -28 -5 0 -9 -7 -9 -15 0 -22 -10 -19 -36 13
-20 22 -24 24 -24 9 0 -10 -6 -25 -14 -33 -13 -12 -17 -12 -30 2 -15 14 -17
14 -32 0 -34 -34 -188 -15 -289 36 l-49 26 44 7 c25 4 91 25 148 46 79 30 107
37 122 29 15 -8 22 -6 34 12 9 12 16 17 16 10 0 -7 5 -10 10 -7 6 3 13 -1 16
-9 8 -22 24 -20 24 3 0 10 7 21 15 25 8 3 15 1 15 -4 0 -6 4 -9 9 -8 5 2 17
-6 25 -17 15 -20 15 -20 16 3 0 27 25 57 35 42 4 -6 10 -8 15 -5 4 3 10 -4 13
-15 6 -24 27 -27 27 -4 0 8 7 22 15 30 9 9 15 11 15 4 0 -6 4 -9 9 -5 5 3 12
-4 16 -15 9 -28 25 -25 25 6 0 14 4 23 9 20 5 -4 12 0 14 6 4 10 6 10 6 0 1
-7 5 -11 10 -7 5 3 12 -4 16 -15 8 -24 25 -27 25 -4 0 21 27 47 35 34 4 -6 11
-8 16 -5 5 4 9 -3 9 -14 0 -29 17 -35 26 -9 3 12 13 28 20 36 12 11 14 11 14
-3 0 -9 4 -14 9 -10 5 3 12 -4 16 -15 8 -26 25 -26 25 0 0 15 7 20 25 20 18 0
25 -5 25 -20 0 -11 5 -20 10 -20 6 0 10 4 10 8 0 5 8 18 18 29 14 17 19 18 30
7 6 -7 12 -20 12 -29 0 -8 5 -15 10 -15 6 0 10 4 10 8 0 5 8 18 18 29 18 22
27 18 49 -22 12 -20 12 -20 19 0 18 47 34 47 62 0 11 -20 12 -20 18 3 3 12 10
22 15 22 5 0 9 6 10 13 0 18 47 51 102 71 64 24 147 102 180 170 15 30 27 60
27 66 0 24 -64 134 -101 175 -83 90 -125 108 -614 261 -445 140 -739 218
-1065 284 -461 93 -1230 195 -1884 250 -267 23 -346 36 -493 85 -179 60 -315
140 -442 260 -41 38 -181 192 -311 340 -246 279 -495 532 -684 694 -433 371
-888 613 -1400 746 -206 53 -326 69 -536 69 -250 0 -404 -26 -595 -100 -86
-34 -146 -78 -128 -94 4 -5 82 1 173 12 230 27 454 27 586 -1 107 -22 252 -62
320 -87 l42 -16 7 -116 c11 -191 32 -311 110 -622 97 -389 109 -454 101 -559
-16 -207 -53 -290 -193 -429 -110 -108 -109 -106 -39 -122 24 -6 14 -8 -40 -9
-68 -1 -676 -35 -819 -46 -38 -3 -162 -12 -275 -20 -113 -9 -311 -24 -440 -35
-216 -19 -240 -19 -294 -5 -113 30 -132 50 -308 320 -145 222 -190 300 -306
535 -92 185 -123 236 -320 518 -375 538 -449 620 -865 959 -39 32 -135 83
-157 83 -6 0 -5 -14 5 -37z"/>
</g>
</svg>
