<?xml version="1.0" standalone="no"?>
<!DOCTYPE svg PUBLIC "-//W3C//DTD SVG 20010904//EN"
 "http://www.w3.org/TR/2001/REC-SVG-20010904/DTD/svg10.dtd">
<svg version="1.0" xmlns="http://www.w3.org/2000/svg"
 width="1536.000000pt" height="370.000000pt" viewBox="0 0 1536.000000 370.000000"
 preserveAspectRatio="xMidYMid meet">
<metadata>
Created by potrace 1.16, written by Peter Selinger 2001-2019
</metadata>
<g transform="translate(0.000000,370.000000) scale(0.100000,-0.100000)"
fill="#000000" stroke="none">
<path d="M11500 3693 c-69 -12 -398 -98 -490 -128 -153 -49 -389 -113 -458
-124 -68 -11 -369 -98 -477 -138 -38 -15 -110 -49 -159 -77 l-89 -50 -126 -4
c-127 -5 -309 10 -626 50 -88 11 -194 24 -235 29 -142 17 -405 40 -550 49 -80
5 -221 14 -315 20 -93 6 -300 17 -460 25 -159 8 -308 17 -330 20 -78 10 -688
25 -1300 31 -1015 11 -1420 -11 -2117 -116 -37 -5 -97 -10 -134 -10 -98 0
-314 -28 -574 -75 -47 -8 -139 -22 -205 -30 -66 -8 -165 -21 -220 -29 -55 -8
-170 -24 -255 -36 -85 -12 -198 -32 -250 -45 -98 -24 -334 -64 -500 -85 -52
-7 -183 -25 -290 -41 -136 -20 -288 -34 -500 -45 -168 -9 -321 -17 -340 -18
-19 -1 -46 -7 -60 -14 -14 -6 -80 -25 -148 -43 l-123 -30 -40 20 c-50 26 -91
27 -114 1 -17 -19 -17 -21 1 -42 47 -57 109 -118 121 -118 7 0 19 -13 28 -29
10 -21 30 -35 70 -50 31 -12 60 -21 66 -21 6 0 72 -20 147 -44 75 -24 184 -59
242 -76 124 -38 306 -119 443 -197 64 -36 144 -71 230 -98 73 -24 157 -54 187
-68 198 -89 632 -222 935 -286 83 -18 202 -45 265 -61 290 -73 341 -78 780
-72 181 2 300 -4 300 -17 0 -3 -28 -40 -63 -82 -34 -42 -96 -123 -137 -180
-126 -174 -304 -391 -374 -456 -89 -83 -88 -115 4 -68 14 8 50 35 80 60 71 62
97 78 112 72 8 -3 -26 -43 -85 -101 -63 -61 -97 -102 -95 -113 3 -17 25 -20
155 -22 23 0 54 -7 67 -16 14 -9 30 -13 37 -9 6 4 59 13 118 20 116 14 189 32
215 53 9 7 24 11 34 9 11 -3 30 3 43 13 13 10 34 19 47 19 13 0 34 12 48 27
20 22 27 24 34 13 7 -11 15 -8 40 13 17 15 40 27 50 27 10 0 25 12 34 26 10
14 23 23 29 21 7 -2 25 7 40 19 16 13 34 24 42 24 7 0 18 7 25 15 7 8 25 15
41 15 31 0 46 15 31 33 -7 9 2 24 32 55 37 38 46 55 61 123 10 43 20 79 23 79
3 0 109 -102 236 -227 127 -126 273 -265 323 -310 90 -80 206 -152 218 -134 3
6 -42 59 -100 120 -146 153 -143 165 15 52 140 -100 163 -114 202 -121 35 -7
37 -6 44 23 6 27 0 35 -62 93 -38 35 -65 63 -60 64 5 0 40 -23 78 -50 38 -28
72 -50 76 -50 9 0 7 128 -3 159 -4 13 -2 28 5 36 10 12 10 18 -1 31 -7 9 -14
22 -15 30 -1 7 -16 41 -33 75 -17 34 -28 65 -25 70 3 5 -3 32 -13 60 -16 46
-26 58 -87 98 -38 25 -103 64 -145 85 -60 32 -71 41 -53 44 12 2 51 -5 85 -16
44 -14 78 -18 120 -15 l57 5 -42 29 c-60 39 -103 77 -97 84 3 3 60 0 125 -5
137 -13 191 -16 514 -30 332 -14 589 -28 705 -39 55 -5 228 -13 385 -17 157
-3 290 -11 297 -16 7 -5 30 -42 52 -81 41 -72 131 -204 335 -489 163 -228 331
-387 438 -413 21 -5 27 -3 33 14 3 11 16 21 28 23 15 2 23 11 25 30 2 21 7 25
20 20 19 -7 18 -6 -36 67 -28 37 -13 40 32 6 19 -14 40 -23 48 -20 20 8 39 51
32 70 -4 9 0 15 8 15 8 0 21 12 29 28 8 15 18 30 23 33 5 4 7 13 4 20 -8 21
-4 34 10 31 6 -2 12 3 12 9 0 7 6 20 14 28 34 39 30 60 -21 108 -40 38 -44 44
-23 39 14 -4 52 -14 85 -23 103 -28 235 -21 235 12 0 8 3 15 8 15 4 0 13 4 21
9 11 7 11 13 0 32 -7 13 -14 30 -15 38 -2 7 -14 26 -28 40 -14 15 -26 35 -26
45 0 10 -14 31 -31 47 -19 18 -29 35 -25 45 3 8 -1 26 -10 39 -36 55 -3 65
128 40 42 -8 139 -21 215 -30 373 -42 610 -92 823 -173 76 -29 107 -35 156
-34 78 3 103 -14 203 -133 99 -118 280 -298 359 -357 85 -63 291 -193 322
-203 14 -4 120 -54 235 -111 116 -57 243 -115 284 -129 77 -26 145 -32 156
-15 3 6 25 10 47 10 24 0 49 7 59 16 13 12 41 17 96 19 43 2 79 7 81 11 2 5
-49 26 -113 47 -65 21 -136 50 -158 64 -22 14 -56 32 -74 39 -18 8 -33 19 -33
24 0 16 50 12 120 -10 52 -16 243 -50 282 -50 5 0 4 9 -2 19 -9 18 -6 20 43
25 28 2 106 10 172 16 66 7 136 19 155 27 19 8 56 21 81 29 26 8 52 21 59 29
7 8 20 15 29 15 9 0 22 12 28 28 16 35 31 59 66 100 23 28 27 42 28 100 1 37
0 72 -1 77 -2 6 -2 58 -1 116 2 104 18 180 39 187 19 6 116 -41 172 -84 149
-115 976 -536 1385 -704 487 -202 689 -264 898 -277 74 -5 97 -3 97 6 0 7 -9
15 -20 18 -34 9 -22 19 19 15 21 -2 47 -2 57 1 17 3 16 5 -6 16 -24 11 -23 11
7 5 50 -9 76 3 69 31 -4 17 1 31 18 50 30 32 39 77 28 137 -5 26 -6 52 -1 59
10 17 0 40 -25 61 -21 17 -21 18 -1 18 18 0 18 2 -5 20 l-25 20 26 0 c15 0 29
7 33 15 3 8 12 15 21 15 11 0 14 8 12 30 -2 17 -7 33 -10 37 -4 3 -7 20 -7 37
0 27 -6 34 -49 53 -29 14 -58 37 -72 58 -13 19 -30 35 -37 35 -7 0 -15 6 -18
14 -3 7 -24 17 -47 20 -38 7 -40 9 -24 21 17 12 16 15 -15 45 -18 18 -40 50
-50 72 -14 32 -22 38 -48 38 -32 0 -80 40 -80 65 0 7 -7 16 -16 19 -11 4 -15
16 -13 41 4 41 -7 55 -51 60 -17 2 -52 16 -76 30 -28 17 -51 24 -67 20 -17 -5
-39 5 -85 39 -34 25 -62 53 -62 61 0 11 -12 15 -49 15 -65 0 -101 14 -101 40
0 16 7 20 33 20 17 0 47 4 66 10 22 6 50 6 82 -1 41 -9 52 -8 73 8 14 10 28
26 32 37 5 15 13 17 45 13 21 -3 42 -1 45 5 3 5 12 7 20 4 8 -3 17 1 20 9 4 8
16 15 28 15 11 0 35 9 51 20 17 11 42 20 58 20 15 0 35 9 44 20 10 11 25 20
34 20 9 0 22 6 28 14 7 8 41 18 77 21 35 4 64 11 64 16 0 5 8 9 18 9 10 0 27
7 38 15 10 8 31 15 47 15 16 0 27 6 27 14 0 7 11 25 25 40 14 15 25 34 25 42
0 8 7 17 16 21 10 4 14 13 10 27 -6 26 7 49 30 52 33 5 62 26 67 48 3 11 4 44
2 71 -2 29 2 56 9 65 7 8 18 44 24 79 13 74 8 85 -48 109 -34 15 -34 15 -11
21 l24 7 -24 15 c-73 47 -252 102 -371 115 -35 3 -72 12 -83 19 -19 12 -68 18
-262 31 -51 4 -93 10 -93 13 0 15 -424 -12 -555 -35 -44 -8 -112 -14 -151 -14
-39 0 -120 -5 -180 -10 -60 -6 -161 -15 -224 -21 -142 -13 -423 -55 -469 -71
-46 -14 -378 -2 -481 18 -77 15 -277 80 -294 95 -6 5 19 9 58 9 115 0 137 34
66 101 -67 64 -193 93 -297 69 -154 -36 -197 -32 -428 38 -130 40 -630 181
-715 202 -25 6 -51 13 -59 16 -39 13 23 20 242 26 133 3 259 9 280 13 34 6 38
10 33 30 -8 31 18 51 84 68 38 10 59 21 66 36 6 12 21 32 34 46 14 15 20 30
16 43 -5 15 1 26 21 41 51 38 53 41 49 80 -3 32 1 44 20 62 13 12 24 30 24 40
0 10 4 20 9 23 5 3 12 23 16 43 4 20 18 50 31 66 26 31 29 43 13 52 -6 4 -7
19 -4 36 4 19 3 29 -5 29 -8 0 -9 10 -5 29 4 21 2 30 -11 35 -9 3 -14 12 -11
20 4 9 -4 16 -24 20 -16 3 -29 12 -29 20 0 22 -40 29 -100 19z m-10765 -983
c50 -20 128 -50 175 -65 47 -16 89 -32 94 -37 16 -13 -125 -8 -165 6 -19 7
-51 11 -70 9 -19 -2 -72 4 -119 14 -84 18 -85 19 -88 50 -2 18 2 42 8 53 14
27 42 22 165 -30z"/>
</g>
</svg>
