<?xml version="1.0" encoding="UTF-8" standalone="no"?>
<!-- Created with Inkscape (http://www.inkscape.org/) -->

<svg
   xmlns:svg="http://www.w3.org/2000/svg"
   xmlns="http://www.w3.org/2000/svg"
   version="1.1"
   width="100%"
   height="100%"
   viewBox="0 0 1330.3 1263.4"
   id="Layer_1"
   xml:space="preserve"><defs
   id="defs7" />
<path
   d="m 1292.4,32.9 c 0.4,0.5 0.9,1 1.3,1.5 2.5,4.2 4.8,8.5 7.5,12.6 2.7,4.2 0.6,7.8 -1.1,11.2 -1.3,2.6 -3,11.4 -1.5,14.1 2.1,3.5 4.6,6.8 6.5,10.4 5.5,10.3 11.7,20.5 16.1,31.3 5,12.6 7.3,26.1 8.4,39.8 1.1,13.8 0.7,27.4 -1.8,40.9 -1.8,9.7 -3.5,19.3 -5.7,28.9 -1.6,7.1 -3.5,14.3 -6.1,21.1 -4.3,11.3 -8.9,22.5 -13.9,33.6 -7.4,16.4 -14.9,32.7 -23,48.8 -4.5,8.8 -10.1,17.1 -15.5,25.4 -3.4,5.2 -7.4,10 -11,15.1 -5.6,7.8 -10.6,16 -16.7,23.5 -10,12.3 -20.3,24.3 -31,36.1 -10.2,11.2 -21.1,21.8 -31.5,32.9 -9,9.6 -20.1,16.7 -28.7,27 -10.3,12.4 -22.7,23 -34.4,34.1 -5.7,5.4 -13.2,8.9 -16.6,16.6 -0.4,1 -1.7,1.6 -2.6,2.3 -2.6,2 -5.5,3.7 -7.8,6 -5.4,5.5 -10.4,11.4 -15.9,16.8 -4,3.9 -8.9,7 -12.9,10.9 -5.5,5.3 -10.2,11.5 -15.9,16.6 -10.8,9.6 -22.3,18.6 -33.3,28.1 -10.4,9 -20.5,18.5 -30.9,27.6 -2.8,2.4 -6.7,3.7 -9.3,6.3 -10,10 -21.1,18.7 -30.6,29.5 -12.6,14.5 -29.1,25.5 -42,39.9 -3.3,3.7 -7.8,6.2 -11.3,9.7 -5.4,5.3 -10.2,11.2 -15.5,16.5 -8.1,8.2 -16.5,16.1 -24.8,24.1 -0.7,0.7 -1.3,1.5 -1.9,2.3 -6.4,7.9 -12.5,16.1 -19.2,23.7 -7.4,8.3 -15.4,16 -23.2,23.9 -8.9,9 -18,17.9 -26.8,26.9 -6.8,7 -13.3,14.3 -20.2,21.2 -11.6,11.5 -23.4,22.9 -35.1,34.3 -6.3,6.1 -12.5,12.1 -18.7,18.3 -3,3 -5.8,6.2 -8.8,9.3 -6.6,7.1 -12.9,14.5 -20,21 -14.1,12.9 -28.8,25.1 -43.2,37.7 -9.2,8.1 -18,16.5 -27.1,24.6 -10.3,9.1 -20.7,18.1 -31.1,27 -4.2,3.6 -8.6,7.1 -13,10.6 -10.2,8.3 -20.5,16.4 -30.5,25 -13.7,11.8 -27,24 -40.6,35.9 -3.4,3 -7.2,5.7 -10.9,8.5 -7.1,5.2 -14.6,10 -21.3,15.6 -12.1,10.1 -23.7,20.6 -35.6,31 -0.3,0.2 -0.5,0.4 -0.8,0.6 -8.7,6.5 -17.4,13.1 -26.2,19.5 -3.9,2.9 -7.9,5.8 -12.1,8.2 -6,3.4 -12.3,6.3 -18.3,9.6 -9.2,5.1 -18.2,10.7 -27.4,15.7 -6.1,3.3 -12.6,5.9 -18.9,9 -6.6,3.2 -13.1,6.9 -19.8,9.8 -8.5,3.7 -17.1,7.1 -25.9,10.1 -6.9,2.4 -14,4.2 -21.1,5.9 -8.6,2.1 -17.3,3.7 -26,5.5 -1.6,0.3 -3.2,0.6 -4.8,0.6 -13,0.1 -26.1,0.5 -39.1,0.2 -13.2,-0.3 -26.4,-0.9 -39.1,-5.1 -1.5,-0.5 -2.9,-1.1 -4.4,-1.3 -3.8,-0.5 -7.9,-0.2 -11.5,-1.3 -10.5,-3.4 -21,-6.9 -31,-11.3 -9.6,-4.2 -19.1,-8.7 -26.9,-16.4 -4.6,-4.5 -10.7,-7.5 -16.3,-10.8 -1.8,-1 -5.1,-0.1 -6.2,-1.3 -3.3,-3.6 -6.6,-7.6 -8.4,-12 -4.8,-11.5 -8.4,-23.6 -13.4,-35 -5.6,-12.9 -9.9,-26.1 -12.6,-39.9 -4.2,-21.9 -4,-43.9 -2.8,-66.1 0.7,-12.1 6,-23.2 6,-35.4 0,-4.2 2.7,-8.4 4.3,-12.5 6,-15.8 13.5,-30.9 22.4,-45.4 7.5,-12.4 13.3,-25.7 23,-36.9 8.1,-9.4 14.8,-19.9 22.6,-29.5 11,-13.5 20.3,-28.3 33.4,-40.2 8.5,-7.8 15.9,-16.9 23.8,-25.3 6.7,-7.1 13.8,-13.9 20.2,-21.2 10,-11.5 20.5,-22.4 33,-31.4 4.4,-3.2 9.2,-6.2 11,-11.9 0.3,-0.9 1.2,-1.6 1.9,-2.3 8.6,-8.7 17.4,-17.2 25.7,-26.2 11.8,-12.7 23.2,-25.7 35,-38.4 10,-10.8 20.1,-21.4 30.5,-31.8 12.5,-12.6 25.3,-24.9 38.1,-37.2 2.6,-2.4 6.5,-3.4 9.1,-5.9 6.9,-6.6 14.4,-12.4 19.5,-21.1 4.1,-6.9 11.7,-11.7 17.3,-17.8 7.4,-8.1 14.2,-16.8 21.6,-25 9.9,-11.1 19.8,-22.2 30.4,-32.7 10.2,-10.1 21.2,-19.5 31.9,-29.1 1.1,-1 2.2,-2.1 3.5,-2.8 7.2,-3.8 11.6,-11.5 19.6,-14.3 0.6,-0.2 0.7,-1.6 1.1,-2.4 0.5,-1 1.2,-2 1.8,-3.1 1.2,1.3 1.9,2.1 2.6,2.9 4.9,-4.4 9.5,-8.6 14.1,-12.8 1.6,-1.4 4.6,-0.8 4,-5.2 -0.4,-2.9 3.9,-6.2 5.2,-9.6 1.9,-5.3 7.8,-5.9 10.9,-10.5 6.6,-9.7 15.5,-17.9 23.9,-26.3 5.3,-5.2 11.5,-9.5 17.1,-14.4 7.7,-6.7 15.3,-13.5 22.7,-20.5 6.6,-6.2 12.9,-12.7 19.5,-19 7.6,-7.1 15.3,-14 22.9,-21 2.8,-2.6 7.6,-4.9 8,-7.9 1,-7.6 7.7,-10.2 11.5,-14.7 9.9,-11.7 21.2,-22.3 32.6,-32.7 18.2,-16.6 36.9,-32.6 55.2,-49 7.4,-6.6 14.3,-13.8 21.5,-20.7 1.9,-1.8 4.5,-2.8 6.2,-4.8 3.7,-4.2 6.4,-9.3 10.5,-13 14.7,-13.4 29.8,-26.4 44.8,-39.6 15.9,-14 31.5,-28.2 47.6,-42.1 12.6,-10.9 25.2,-22 38.6,-31.8 10.2,-7.4 21.6,-13.4 32.8,-19.3 15.1,-8 30.6,-15.5 45.9,-23.2 10.2,-5.1 20.2,-11 30.8,-15.2 14.7,-5.9 29.8,-10.9 44.9,-15.6 9.1,-2.8 18.5,-4.2 27.8,-6.3 7.1,-1.7 14.2,-3.8 21.4,-5.2 9.9,-2 19.9,-4.4 30,-5.1 12.2,-0.8 24.4,-0.3 36.7,0.2 20.7,0.7 40.1,6.5 58.4,15.9 8.1,4.1 15.9,8.8 24,13.1 1.4,0.7 3.4,0.4 6,0.7 -1.7,-2.9 -3.4,-4.4 -3.4,-5.9 0,-1.6 1.5,-4.7 2.3,-4.7 4.3,0.1 9.3,-0.2 12.9,1.7 5.3,2.6 10,7.3 15.1,11.2 z"
   id="path3" />
</svg>