<?xml version="1.0" standalone="no"?>
<!DOCTYPE svg PUBLIC "-//W3C//DTD SVG 20010904//EN"
 "http://www.w3.org/TR/2001/REC-SVG-20010904/DTD/svg10.dtd">
<svg version="1.0" xmlns="http://www.w3.org/2000/svg"
 width="1536.000000pt" height="630.000000pt" viewBox="0 0 1536.000000 630.000000"
 preserveAspectRatio="xMidYMid meet">
<metadata>
Created by potrace 1.16, written by Peter Selinger 2001-2019
</metadata>
<g transform="translate(0.000000,630.000000) scale(0.100000,-0.100000)"
fill="#000000" stroke="none">
<path d="M9181 6257 c-16 -24 -37 -50 -47 -58 -16 -12 -17 -12 -11 4 10 26 -6
21 -38 -13 -16 -16 -39 -30 -51 -30 -12 0 -27 -7 -34 -15 -7 -8 -17 -15 -22
-15 -6 0 -26 -14 -46 -31 -60 -53 -172 -91 -172 -59 0 11 59 42 115 60 50 16
73 36 30 26 -16 -4 -39 -10 -50 -13 -18 -5 -18 -4 -6 11 26 31 5 25 -51 -14
-31 -22 -75 -47 -98 -55 -40 -14 -110 -21 -110 -10 0 3 14 27 31 55 31 51 31
87 0 40 -35 -53 -77 -104 -88 -108 -20 -6 -15 23 7 43 25 22 80 104 80 119 0
5 -14 -3 -32 -20 -28 -26 -29 -26 -15 -4 10 13 17 27 17 31 0 12 -84 -33 -115
-62 -19 -17 -58 -35 -108 -48 -43 -12 -94 -28 -113 -36 -47 -19 -43 -10 6 15
39 20 59 44 47 56 -3 4 -19 -1 -36 -9 l-30 -15 3 29 c2 16 0 31 -4 34 -9 5
-72 -39 -146 -102 -44 -37 -57 -43 -97 -43 -59 0 -67 14 -23 42 61 39 43 52
-25 17 -22 -11 -46 -18 -52 -15 -7 2 -2 8 11 11 29 9 28 17 -7 43 -35 25 -71
21 -45 -5 21 -21 9 -72 -22 -100 -25 -23 -87 -32 -98 -14 -3 5 15 32 40 60 41
46 43 66 4 41 -9 -6 -17 -5 -21 2 -5 7 -22 0 -50 -20 -24 -18 -46 -32 -49 -32
-4 0 -12 11 -18 25 -14 31 -47 35 -39 4 4 -16 3 -18 -9 -8 -18 15 -18 5 2 -33
19 -36 5 -60 -24 -42 -13 9 -17 25 -17 65 0 81 -24 72 -55 -21 l-25 -75 -50
-3 c-48 -3 -49 -3 -32 16 43 47 -2 34 -55 -16 -35 -33 -38 -34 -68 -22 -17 7
-35 21 -41 31 -5 11 -16 19 -24 19 -21 0 -18 28 10 85 26 53 31 75 15 75 -9 0
-60 -50 -60 -60 0 -3 -5 -12 -10 -20 -8 -12 -15 -9 -44 19 -43 42 -56 35 -27
-12 28 -46 27 -48 -14 -31 -35 14 -55 12 -55 -6 0 -5 20 -18 45 -29 52 -23 55
-37 19 -81 -21 -24 -29 -28 -40 -19 -8 6 -14 20 -14 30 0 27 -54 26 -77 -1
-45 -52 -67 -69 -95 -75 -16 -4 -32 -4 -35 -1 -6 6 25 58 67 111 21 27 27 42
20 49 -14 14 -123 -95 -161 -163 -17 -29 -33 -51 -36 -48 -3 3 5 31 16 63 12
31 19 59 17 62 -12 12 -34 -10 -61 -63 -23 -43 -31 -52 -33 -36 -6 37 -34 26
-71 -26 -12 -18 -28 -33 -35 -33 -7 0 -51 -20 -98 -45 -48 -25 -91 -45 -96
-45 -23 0 -21 38 4 107 15 40 24 76 21 79 -10 11 -27 -7 -51 -54 -13 -26 -46
-65 -72 -88 -66 -55 -86 -64 -46 -23 17 19 32 38 32 42 0 14 -28 6 -63 -17
-39 -26 -52 -24 -34 5 13 21 5 34 -17 26 -22 -9 -77 -89 -72 -104 3 -7 -1 -13
-9 -13 -17 0 -19 18 -5 54 13 35 -5 34 -44 -1 l-30 -28 22 29 c12 16 22 35 22
42 0 27 -25 14 -66 -33 l-41 -47 0 32 c0 44 -9 49 -37 23 l-24 -22 -15 21 c-9
12 -20 21 -26 19 -5 -2 -27 -29 -48 -59 -21 -30 -45 -55 -53 -55 -8 0 -32 -18
-53 -40 -49 -51 -39 -30 35 68 32 43 58 82 58 87 0 24 -36 6 -77 -37 -37 -40
-43 -44 -38 -23 11 40 11 44 -5 47 -10 2 -25 -21 -49 -77 -27 -65 -43 -89 -86
-125 -29 -25 -55 -45 -60 -45 -4 0 -4 23 0 50 6 45 5 50 -13 50 -10 0 -27 -9
-37 -20 -29 -31 -45 -25 -45 18 -1 35 -2 36 -15 18 -8 -11 -15 -28 -15 -38 0
-44 -94 -168 -127 -168 -21 0 -15 18 23 80 35 58 38 85 8 73 -8 -3 -28 -28
-43 -55 l-29 -50 -16 47 c-15 45 -15 49 9 106 27 63 31 89 15 89 -15 0 -98
-133 -141 -227 -52 -114 -80 -106 -44 13 18 58 19 94 4 94 -6 0 -18 -18 -26
-40 -18 -45 -29 -43 -49 7 -12 28 -18 32 -29 23 -12 -10 -11 -19 6 -63 26 -65
21 -148 -10 -181 -12 -12 -28 -43 -37 -69 -9 -26 -19 -47 -22 -47 -3 0 -16 9
-28 21 l-22 20 -6 -45 c-13 -83 -46 -80 -46 5 0 24 -4 38 -10 34 -5 -3 -10
-18 -10 -32 0 -17 -4 -23 -14 -20 -22 9 -36 -14 -36 -61 0 -49 -14 -82 -35
-82 -11 0 -15 12 -15 40 0 61 -24 51 -39 -15 -10 -44 -17 -56 -36 -61 -13 -3
-28 -3 -34 0 -5 4 -13 1 -16 -4 -5 -8 -13 -6 -26 6 -29 26 -36 8 -10 -26 24
-34 22 -57 -9 -85 -20 -18 -40 -13 -40 11 0 8 -4 12 -10 9 -5 -3 -10 -19 -10
-34 0 -25 -10 -32 -117 -86 -65 -32 -125 -64 -133 -71 -8 -7 -27 -17 -42 -23
-26 -10 -28 -9 -38 30 -9 33 -15 40 -30 36 -13 -3 -21 1 -25 14 -7 21 -62 27
-95 9 -13 -7 -21 -6 -30 5 -29 35 -109 6 -204 -76 -82 -70 -105 -83 -133 -70
-19 9 -29 9 -40 -1 -8 -6 -33 -12 -56 -13 -47 -1 -188 -68 -288 -136 -97 -66
-381 -357 -482 -494 -56 -78 -62 -81 -127 -91 l-55 -7 44 -10 c36 -7 42 -11
28 -18 -9 -6 -17 -18 -17 -27 0 -10 -11 -34 -25 -54 -14 -20 -25 -42 -25 -49
0 -6 -13 -26 -30 -43 -16 -17 -42 -46 -58 -65 l-28 -33 -32 27 c-30 25 -36 26
-95 20 -34 -4 -88 -18 -119 -32 -47 -21 -58 -30 -58 -49 0 -18 -15 -32 -69
-64 -61 -35 -77 -51 -125 -124 -41 -61 -64 -87 -86 -95 -17 -6 -29 -15 -25
-21 4 -7 12 -7 26 0 34 19 20 -4 -33 -57 -29 -28 -70 -56 -90 -63 -46 -14 -65
-36 -22 -26 42 11 27 1 -36 -24 -30 -12 -74 -39 -98 -61 -48 -45 -56 -45 -130
-2 -42 24 -77 23 -38 -1 10 -6 28 -19 40 -29 l21 -17 -27 5 c-16 3 -39 7 -53
10 -14 3 -25 1 -25 -4 0 -5 25 -15 55 -21 30 -6 58 -16 61 -22 11 -18 -66 -1
-149 32 -42 16 -92 30 -112 30 -30 0 -48 10 -98 54 -125 108 -290 199 -423
231 -51 12 -100 16 -175 13 -88 -3 -111 -7 -154 -29 -27 -15 -75 -39 -105 -54
-30 -15 -70 -41 -88 -59 -35 -32 -72 -94 -72 -120 0 -20 19 -31 33 -17 6 6 18
11 27 11 9 0 42 14 73 31 49 26 59 29 79 18 16 -9 87 -13 243 -14 179 -2 230
-5 275 -19 87 -28 150 -57 150 -70 0 -22 -25 -44 -63 -56 -21 -7 -62 -32 -90
-56 -29 -24 -65 -54 -80 -67 -49 -39 -181 -177 -209 -219 -26 -38 -27 -42 -12
-69 8 -16 21 -29 30 -29 14 0 96 -42 120 -61 6 -5 38 -18 70 -29 49 -17 87
-21 219 -22 l160 -1 115 47 c137 57 200 100 270 184 55 66 74 75 135 70 l38
-3 -72 -40 c-39 -22 -71 -43 -71 -47 0 -13 11 -9 76 27 67 38 74 40 74 25 0
-5 -6 -10 -14 -10 -7 0 -19 -7 -26 -15 -17 -20 1 -20 40 0 39 20 39 1 0 -22
-26 -15 -40 -33 -25 -33 2 0 36 17 75 37 59 31 74 35 90 26 10 -7 48 -17 84
-24 55 -9 66 -14 66 -30 0 -16 3 -18 19 -9 30 16 52 12 58 -10 3 -11 12 -20
19 -20 8 0 14 -6 14 -14 0 -8 7 -16 15 -20 8 -3 15 -12 15 -21 0 -8 7 -15 15
-15 9 0 12 -6 9 -15 -7 -18 47 -75 71 -75 13 0 15 9 13 48 -3 45 -2 47 22 46
18 -1 31 7 45 30 24 37 75 50 75 19 -1 -42 -28 -116 -47 -132 -12 -9 -24 -27
-28 -41 -3 -14 -27 -66 -52 -116 l-46 -91 -55 -9 c-71 -12 -82 -34 -17 -34
l46 0 -41 -75 c-39 -71 -41 -76 -26 -102 8 -16 22 -52 32 -81 13 -44 20 -53
35 -49 10 3 35 -1 56 -8 21 -8 49 -11 63 -8 34 8 97 52 145 103 56 58 100 83
131 76 22 -6 24 -4 15 12 -8 16 -4 25 26 53 19 19 86 102 147 184 62 83 119
157 128 165 8 9 20 26 27 39 10 17 18 21 37 17 21 -6 24 -3 24 19 0 17 15 41
43 70 57 60 73 79 88 107 6 13 25 40 41 60 25 33 32 36 50 27 26 -14 34 -5 21
24 -10 22 -5 29 50 79 121 108 140 101 97 -33 -17 -52 -40 -109 -51 -128 -23
-38 -20 -47 10 -32 17 9 30 6 75 -19 48 -28 54 -34 47 -53 -28 -73 -18 -396
13 -456 12 -23 11 -29 -18 -67 -17 -24 -46 -51 -63 -61 -18 -9 -32 -24 -30
-32 3 -20 -38 -29 -181 -41 -137 -11 -189 -22 -279 -56 -117 -46 -162 -74
-204 -127 -22 -29 -55 -68 -74 -89 -18 -20 -41 -51 -51 -70 -9 -18 -31 -51
-48 -72 -46 -59 -43 -106 10 -156 37 -34 48 -39 125 -49 46 -7 138 -13 204
-14 l120 -2 105 51 c58 29 116 55 130 59 36 10 105 52 146 87 44 39 72 93 85
166 13 71 22 82 68 82 21 0 44 6 52 12 8 7 23 49 33 93 10 44 26 98 36 120 16
34 18 48 9 90 -7 35 -6 56 2 71 20 38 -24 273 -81 428 -20 55 -20 59 -4 77 9
11 29 19 44 19 l27 0 6 98 c4 53 14 137 22 186 l16 88 -36 53 c-44 63 -43 89
2 93 41 4 54 32 15 32 l-27 1 30 24 c46 38 113 71 199 99 96 32 126 33 133 6
3 -10 14 -22 24 -25 10 -4 38 -28 61 -54 59 -66 132 -116 229 -157 93 -38 117
-57 151 -120 12 -24 26 -44 30 -44 5 0 8 -8 8 -18 0 -9 9 -22 19 -27 64 -33
163 -99 167 -110 3 -8 29 -32 57 -53 112 -85 181 -158 199 -208 11 -31 41 -75
80 -119 35 -39 80 -91 101 -116 33 -41 76 -70 192 -132 19 -10 62 -22 95 -27
61 -9 105 -33 268 -144 45 -32 85 -49 147 -65 104 -26 175 -27 252 -2 33 11
80 21 104 22 44 4 44 4 50 -34 7 -44 43 -87 59 -71 7 7 6 22 -5 47 -20 49 -19
59 8 55 18 -2 23 -10 25 -45 2 -25 -4 -55 -14 -74 -9 -18 -27 -71 -40 -118
-20 -77 -48 -149 -74 -191 -19 -32 -58 -127 -65 -157 -3 -18 -33 -82 -66 -142
-33 -62 -59 -122 -59 -138 0 -16 -7 -38 -15 -49 -18 -24 -19 -35 -2 -31 8 1
12 -15 12 -58 0 -57 -1 -60 -30 -69 -16 -6 -32 -11 -33 -12 -2 -1 4 -19 14
-40 18 -37 18 -37 -7 -56 -18 -16 -33 -19 -65 -14 -127 17 -362 -84 -394 -170
-9 -23 -64 -62 -183 -128 -49 -28 -83 -39 -127 -43 -62 -6 -70 -14 -45 -47 10
-13 11 -25 5 -42 -13 -33 1 -38 76 -24 36 7 82 10 104 6 49 -8 146 17 175 44
15 14 35 20 71 20 37 0 54 5 66 20 10 10 44 33 78 50 49 25 67 29 100 24 22
-4 45 -13 52 -21 16 -19 75 -43 107 -43 42 0 121 42 191 102 36 30 87 71 114
89 37 26 58 51 82 99 28 54 39 66 75 80 28 11 45 26 54 46 6 16 19 35 28 43
12 9 17 29 17 65 0 29 6 61 15 72 18 27 32 90 50 227 8 60 17 112 19 116 3 4
16 57 30 119 16 68 36 126 51 148 14 20 25 41 25 46 0 6 9 22 19 37 10 14 24
46 31 71 15 57 71 153 120 206 30 33 41 55 54 118 10 44 24 80 32 83 20 7 52
-35 59 -77 23 -139 24 -145 57 -173 18 -15 59 -37 91 -49 65 -24 87 -47 87
-95 0 -40 16 -82 40 -108 10 -11 31 -45 47 -75 24 -47 37 -60 89 -87 49 -26
77 -33 145 -39 46 -3 103 -12 127 -20 49 -16 171 -18 222 -4 19 5 48 23 63 40
34 36 66 38 122 10 22 -11 58 -20 81 -20 38 0 45 4 64 35 36 59 78 58 157 -2
31 -24 66 -40 107 -48 34 -7 103 -29 153 -49 51 -20 97 -36 103 -36 14 0 67
-84 75 -119 4 -16 29 -43 67 -71 113 -83 118 -92 193 -280 39 -96 81 -186 95
-201 34 -38 71 -50 166 -54 94 -3 117 -14 197 -85 l57 -52 0 -71 c1 -46 6 -79
15 -91 18 -24 96 -39 158 -30 38 5 50 11 57 30 5 13 21 26 35 30 32 8 75 -10
75 -30 0 -14 30 -40 96 -81 17 -11 55 -38 85 -60 57 -43 126 -72 200 -85 26
-5 65 -18 87 -29 55 -28 82 -27 82 1 0 12 10 32 22 45 25 27 19 35 -39 51 -47
14 -198 146 -326 287 -52 56 -101 98 -143 122 -66 39 -81 57 -64 78 10 12 -44
43 -309 178 -23 12 -34 36 -125 283 -15 40 -39 83 -56 99 -30 28 -43 65 -76
208 -15 68 -16 80 -3 88 24 15 30 11 88 -51 35 -37 74 -67 104 -79 l47 -20 0
-53 c0 -91 26 -103 101 -48 29 22 60 42 70 45 9 3 20 12 22 20 3 7 27 23 53
34 37 17 65 21 148 20 55 -1 129 4 163 11 55 11 61 14 53 31 -15 27 -12 59 6
66 9 3 38 -3 64 -14 42 -18 49 -19 55 -6 4 13 16 14 58 8 28 -4 72 -8 97 -9
25 -2 54 -7 64 -13 26 -15 105 -5 148 18 21 11 43 17 49 14 11 -7 142 -37 143
-32 1 1 6 11 12 22 17 31 43 30 78 -3 49 -47 74 -57 95 -38 26 23 76 20 102
-6 12 -13 19 -17 15 -10 -5 8 3 12 28 12 33 0 66 -20 66 -41 0 -5 7 -9 15 -9
11 0 15 8 13 27 -4 39 32 43 74 8 18 -15 37 -24 46 -20 42 16 104 16 168 0 52
-13 126 -18 313 -21 218 -4 246 -3 262 12 15 14 31 16 79 11 34 -4 69 -11 80
-17 25 -14 289 -13 329 1 45 16 64 -1 141 -119 36 -55 77 -108 93 -119 15 -10
42 -38 59 -63 18 -25 50 -63 70 -86 21 -23 60 -86 87 -142 53 -107 123 -192
158 -192 40 0 53 10 47 37 l-7 25 32 -16 c31 -16 31 -16 31 9 0 22 3 25 25 19
21 -5 25 -3 25 16 0 19 4 21 30 15 26 -6 30 -4 30 14 0 12 1 21 3 21 21 0 134
-41 222 -80 113 -50 195 -75 195 -59 0 19 58 8 91 -17 19 -14 44 -30 57 -35
12 -5 32 -25 43 -44 12 -19 24 -35 29 -35 4 0 25 -14 46 -31 22 -17 64 -42 94
-56 30 -14 71 -33 90 -43 19 -10 52 -21 73 -25 20 -4 40 -11 43 -16 3 -5 16
-9 28 -9 13 0 34 -8 47 -18 59 -45 97 -34 133 36 14 27 31 52 39 55 10 4 17
30 22 80 5 62 4 80 -10 101 -34 51 -2 54 165 14 47 -11 99 -27 115 -36 40 -20
90 -62 90 -76 0 -6 9 -12 20 -14 40 -6 150 -66 177 -96 43 -47 36 -89 -25
-153 -35 -38 -32 -48 13 -38 41 9 106 67 132 119 21 41 21 39 -1 166 -5 25
-17 66 -29 92 -17 39 -31 52 -87 84 -178 99 -435 161 -566 136 -30 -6 -91 -16
-136 -23 -76 -12 -84 -11 -103 6 -15 13 -44 20 -107 25 -67 5 -89 11 -100 25
-14 21 -8 31 22 37 37 6 21 23 -25 26 -64 4 -80 11 -57 23 29 17 19 27 -20 23
-21 -2 -86 -7 -145 -10 -99 -6 -107 -5 -117 14 -9 18 -7 21 24 26 21 4 35 13
35 21 0 12 -18 13 -108 8 -59 -3 -145 -3 -192 1 -78 7 -89 10 -125 41 l-40 34
48 -6 c26 -3 47 -3 47 1 0 4 -20 16 -44 27 -37 16 -49 29 -75 80 -20 40 -26
61 -18 64 7 2 44 8 84 14 39 6 84 16 100 22 26 10 21 13 -82 43 -60 18 -126
38 -145 44 l-35 11 41 -5 c43 -6 63 6 41 24 -6 5 -66 22 -131 37 -108 25 -122
30 -152 64 l-34 36 33 6 c165 33 193 35 201 14 3 -8 17 -15 31 -15 15 0 35 -5
46 -10 15 -9 21 -7 25 5 3 8 16 15 29 15 12 0 35 6 51 14 16 8 52 21 79 28 57
14 65 22 65 61 0 39 17 67 40 67 13 0 25 12 34 34 11 27 18 33 38 29 16 -3 31
4 47 21 30 32 63 33 116 5 32 -16 52 -20 100 -15 93 8 98 11 91 63 -5 37 -3
43 12 43 10 0 23 5 29 11 8 8 19 6 41 -5 41 -21 42 -21 42 13 0 21 -8 36 -30
51 -36 26 -52 53 -44 74 9 24 45 19 88 -14 46 -35 56 -37 56 -12 0 10 -25 42
-55 72 -30 30 -55 57 -55 61 0 9 48 29 70 29 19 0 19 1 0 50 -11 28 -20 55
-20 60 0 18 54 10 109 -15 30 -14 57 -23 60 -19 7 7 -22 32 -114 97 -42 30
-64 52 -57 56 8 5 1 24 -22 61 -19 30 -33 57 -30 59 5 6 92 -37 99 -50 4 -5 1
-9 -5 -9 -6 0 -8 -4 -5 -10 3 -5 21 -10 38 -10 18 0 57 -7 87 -15 63 -17 104
-19 95 -6 -3 5 -20 13 -38 16 -84 18 -186 67 -233 112 -65 61 -45 65 62 14 70
-33 86 -38 91 -25 7 19 15 13 -104 73 -103 51 -125 67 -78 55 36 -9 31 8 -9
30 -18 9 -41 34 -50 53 l-17 36 32 -7 c25 -5 30 -3 25 9 -6 18 -6 18 68 4 81
-15 104 -4 46 22 -30 14 -56 18 -77 14 -21 -4 -44 0 -63 10 -29 15 -41 35 -20
35 6 0 10 5 10 10 0 6 -12 10 -26 10 -39 0 -64 18 -80 56 -18 44 -12 54 34 54
39 0 71 14 59 26 -4 4 -36 6 -72 5 -62 -2 -65 -1 -71 25 -4 16 -2 29 5 34 20
12 1 59 -36 87 -18 14 -32 31 -30 37 2 6 -18 37 -45 70 -58 72 -62 91 -16 82
18 -3 41 -15 53 -25 17 -15 75 -41 93 -41 2 0 -31 26 -73 57 -43 31 -74 58
-69 60 6 2 40 -8 77 -22 37 -14 67 -23 67 -21 0 2 -35 23 -77 46 -109 58 -143
86 -143 116 0 28 7 30 32 7 10 -9 21 -13 24 -10 3 3 -17 31 -46 62 -29 30 -50
58 -47 61 13 13 62 5 127 -21 66 -26 68 -27 89 -9 11 10 21 22 21 26 0 12 -92
56 -134 63 -26 5 -34 10 -24 16 7 5 22 9 33 9 11 0 32 6 46 14 15 7 39 11 53
9 14 -3 26 -1 26 5 0 17 -22 20 -97 10 -65 -7 -77 -6 -119 14 -53 26 -88 66
-79 90 8 20 56 28 178 28 58 0 97 4 97 10 0 6 -11 10 -24 10 -13 0 -45 9 -72
19 -27 11 -58 22 -68 25 -18 6 -16 10 14 41 40 41 35 56 -6 22 -56 -46 -64
-47 -116 -21 -56 28 -66 59 -18 52 25 -4 29 -1 25 12 -5 15 2 15 90 1 85 -13
119 -12 103 5 -4 3 -28 12 -55 19 -26 7 -41 14 -33 16 8 1 -2 5 -23 8 -21 3
-37 10 -37 15 1 5 -25 21 -57 37 -32 15 -71 42 -87 58 l-30 31 34 0 c18 0 73
-8 121 -17 49 -9 92 -13 96 -9 10 9 -16 26 -42 26 -41 0 -94 21 -89 34 4 9 -7
15 -35 20 -23 3 -57 14 -76 23 -44 21 -30 33 40 33 36 0 46 3 35 10 -8 5 -26
10 -41 10 -30 0 -129 47 -129 62 0 6 7 7 16 4 9 -3 28 -9 42 -12 39 -9 20 7
-67 58 -41 24 -76 49 -78 55 -4 12 52 38 77 35 24 -2 150 38 150 48 0 5 -14 5
-32 -1 -43 -12 -109 -11 -128 1 -13 9 -13 11 0 20 12 7 1 15 -48 36 -37 17
-61 32 -58 40 3 7 -12 14 -42 18 -55 7 -82 29 -74 58 3 14 1 19 -6 15 -12 -8
-42 2 -42 14 0 5 9 9 21 9 12 0 17 4 14 11 -4 5 1 19 11 30 16 18 16 19 -3 19
-19 0 -76 51 -74 67 1 4 -15 9 -34 11 -48 4 -41 21 22 52 28 14 54 32 57 40 3
8 9 21 12 28 3 7 -20 -1 -51 -19 -51 -29 -68 -33 -154 -37 -95 -4 -141 5 -141
28 0 6 32 10 70 10 53 0 70 3 70 14 0 17 -21 26 -68 27 l-37 1 35 16 c27 12
31 16 16 20 -10 2 -38 -1 -61 -7 -24 -6 -63 -10 -87 -10 -49 1 -38 5 42 14 65
7 90 19 74 35 -9 9 -33 8 -94 -1 -71 -10 -90 -9 -146 6 -40 11 -68 25 -75 36
-5 11 -16 19 -25 19 -16 0 -114 47 -114 55 0 2 12 11 28 20 26 15 24 15 -50
13 -46 -2 -78 1 -79 7 -3 17 73 48 161 65 63 12 86 21 88 33 4 22 -34 22 -153
1 -155 -29 -275 -30 -275 -4 0 5 30 23 67 40 49 23 64 33 55 42 -8 8 -5 16 14
31 45 35 19 29 -80 -19 -74 -36 -112 -48 -154 -51 -57 -3 -57 -3 -23 10 35 14
49 31 33 41 -5 3 -35 -1 -68 -9 -71 -17 -74 -17 -74 -6 0 5 15 12 33 16 84 17
177 49 177 61 0 20 -27 17 -138 -10 -137 -34 -172 -38 -172 -21 0 8 16 27 35
42 35 28 46 53 23 53 -7 0 -40 -14 -73 -30 -33 -16 -74 -30 -90 -30 -36 0 -66
30 -58 58 7 29 -18 38 -119 47 -49 4 -88 11 -88 16 0 5 23 25 50 45 28 20 50
40 50 44 0 23 -26 19 -73 -12 -93 -62 -110 -68 -195 -68 -85 0 -99 5 -79 28
10 13 5 14 -46 8 -38 -5 -57 -4 -57 3 0 6 -13 11 -30 11 -16 0 -30 5 -30 10 0
6 -7 10 -16 10 -11 0 -14 5 -10 16 5 13 0 15 -34 9 -38 -6 -104 7 -124 25 -5
5 19 26 53 47 33 21 61 41 61 45 0 4 -25 -2 -57 -13 -31 -10 -72 -19 -92 -19
-20 0 -73 -7 -119 -15 -53 -9 -91 -11 -105 -5 -21 8 -21 9 5 9 15 1 29 5 33
11 3 5 12 7 20 3 10 -3 15 1 15 12 0 16 -7 17 -62 12 l-63 -7 62 35 c68 39 82
52 60 61 -8 3 -65 -20 -127 -51 -62 -30 -122 -55 -134 -54 -14 0 -6 7 24 20
61 26 73 33 78 48 3 10 -9 11 -51 6 l-55 -7 6 27 c4 25 3 27 -19 20 -32 -10
-78 -33 -111 -56 -14 -11 -34 -19 -45 -19 -17 1 -17 1 -1 14 22 17 13 26 -26
26 l-30 0 35 37 c36 38 33 37 -46 -13 -65 -41 -124 -58 -168 -50 l-35 6 64 62
c59 57 78 88 54 88 -13 0 -142 -105 -153 -125 -4 -8 -12 -15 -17 -15 -15 0
-12 22 7 42 15 17 15 18 -8 18 -21 0 -20 3 20 44 l44 45 -42 -4 c-25 -1 -51
-11 -64 -23 -12 -12 -55 -39 -94 -61 -66 -36 -73 -38 -73 -20 0 15 -5 19 -17
16 -10 -3 -36 -8 -58 -11 l-40 -6 33 17 c17 9 32 20 32 25 0 22 -34 17 -89
-12 -33 -18 -64 -29 -70 -26 -6 4 8 29 34 62 25 30 45 59 45 65 0 15 -48 0
-140 -46 -90 -45 -158 -70 -166 -62 -3 3 18 26 45 52 53 50 61 65 36 65 -17 0
-20 16 -5 25 14 8 13 35 -1 35 -6 0 -28 -14 -48 -31 -51 -44 -229 -142 -247
-135 -23 9 -17 26 51 135 35 57 62 108 59 112 -10 17 -23 9 -53 -34z m419
-156 c0 -12 -49 -47 -83 -60 -48 -19 -38 7 15 38 57 33 68 36 68 22z m-532
-34 c2 -12 -3 -17 -17 -17 -23 0 -24 1 -15 25 8 19 28 15 32 -8z m-693 -12
c-26 -22 -85 -35 -85 -20 0 8 82 44 100 44 9 0 3 -9 -15 -24z m4688 -1066 c-8
-8 -16 -8 -30 0 -16 9 -14 10 12 11 21 0 26 -3 18 -11z m131 -103 c22 -11 24
-15 11 -20 -28 -10 -65 -7 -95 9 -17 9 -30 18 -30 20 0 11 90 4 114 -9z m214
-241 c15 -3 38 -14 52 -25 l25 -20 -25 0 c-47 0 -103 19 -124 40 l-21 22 33
-6 c17 -3 44 -8 60 -11z m-9984 -351 c10 -25 8 -32 -24 -67 -27 -31 -28 -37
-18 -69 21 -68 -33 -133 -60 -72 -12 25 -32 25 -32 -2 0 -21 -38 -17 -50 7
-21 39 -2 76 78 149 78 72 96 81 106 54z m10291 -166 c14 -6 25 -15 25 -21 0
-13 -52 1 -70 19 -12 12 -12 14 2 14 10 0 29 -5 43 -12z m-10497 -110 c16 -16
15 -70 0 -90 -7 -9 -25 -18 -40 -20 -28 -5 -28 -5 -28 53 0 36 5 59 13 62 22
9 43 7 55 -5z m-83 -134 l7 -55 -55 -72 c-30 -40 -62 -84 -72 -99 -9 -16 -24
-28 -32 -28 -8 0 -34 -13 -57 -30 -24 -16 -46 -26 -50 -23 -14 14 -5 44 23 75
15 18 52 74 82 123 51 87 126 178 140 169 4 -2 10 -29 14 -60z m10732 10 c-3
-3 -12 -4 -19 -1 -8 3 -5 6 6 6 11 1 17 -2 13 -5z m-11019 -362 c2 -16 -13
-39 -54 -82 -58 -61 -80 -72 -90 -45 -7 18 14 52 69 112 43 47 70 52 75 15z
m-680 -208 c40 -27 24 -64 -28 -64 -38 0 -131 -130 -242 -339 -21 -38 -41 -72
-46 -75 -10 -6 -132 52 -132 63 0 4 33 40 72 81 52 52 80 91 98 133 26 63 36
72 85 82 19 4 51 29 90 71 32 35 64 64 70 64 6 0 21 -7 33 -16z m232 -538 c0
-38 -19 -60 -44 -50 -20 8 -20 17 -1 54 21 41 45 39 45 -4z m-93 -134 c7 -4
15 -21 18 -37 7 -41 -15 -67 -52 -63 -25 3 -28 7 -26 36 0 18 9 42 19 53 19
21 23 22 41 11z m10930 -1298 c-3 -3 -12 -4 -19 -1 -8 3 -5 6 6 6 11 1 17 -2
13 -5z m46 -11 c-7 -2 -19 -2 -25 0 -7 3 -2 5 12 5 14 0 19 -2 13 -5z m50 -10
c-7 -2 -19 -2 -25 0 -7 3 -2 5 12 5 14 0 19 -2 13 -5z m92 -78 c43 -10 46 -12
25 -18 -50 -13 -99 -8 -110 12 -15 29 -13 33 13 25 12 -4 44 -13 72 -19z"/>
<path d="M12627 5325 c-11 -7 -25 -11 -32 -9 -7 3 -16 1 -20 -5 -7 -12 9 -14
54 -5 17 4 31 13 31 20 0 18 -10 17 -33 -1z"/>
<path d="M14270 2101 c0 -12 118 -63 133 -58 7 3 -10 15 -38 27 -79 35 -95 40
-95 31z"/>
</g>
</svg>
