<?xml version="1.0" standalone="no"?>
<!DOCTYPE svg PUBLIC "-//W3C//DTD SVG 20010904//EN"
 "http://www.w3.org/TR/2001/REC-SVG-20010904/DTD/svg10.dtd">
<svg version="1.0" xmlns="http://www.w3.org/2000/svg"
 width="1028.000000pt" height="1536.000000pt" viewBox="0 0 1028.000000 1536.000000"
 preserveAspectRatio="xMidYMid meet">
<metadata>
Created by potrace 1.16, written by Peter Selinger 2001-2019
</metadata>
<g transform="translate(0.000000,1536.000000) scale(0.100000,-0.100000)"
fill="#000000" stroke="none">
<path d="M4025 15354 c-151 -11 -283 -28 -383 -50 -63 -13 -123 -24 -135 -24
-12 0 -60 -16 -107 -36 -47 -20 -186 -74 -310 -120 -481 -181 -783 -318 -909
-411 -43 -32 -137 -95 -207 -140 -147 -93 -265 -186 -444 -348 -152 -137 -370
-359 -370 -375 0 -7 -35 -49 -78 -94 -43 -44 -127 -136 -186 -204 -172 -195
-271 -273 -479 -376 -125 -62 -199 -121 -246 -195 -19 -30 -60 -133 -99 -253
l-67 -203 1 -260 c2 -286 12 -400 50 -550 27 -106 28 -134 4 -325 -15 -120 1
-354 36 -530 54 -269 209 -555 413 -762 87 -88 118 -112 174 -137 38 -17 81
-39 95 -50 35 -24 109 -47 200 -61 40 -7 116 -27 170 -45 146 -51 163 -89 127
-280 -27 -140 -74 -424 -105 -639 -16 -115 -39 -238 -50 -273 -41 -134 -66
-507 -80 -1228 -6 -327 -15 -528 -25 -603 -13 -101 -13 -120 1 -185 8 -41 12
-88 9 -110 -4 -20 -43 -140 -87 -265 -90 -258 -168 -518 -168 -563 0 -17 -13
-61 -29 -97 -39 -89 -92 -265 -135 -442 -19 -80 -49 -185 -66 -235 -40 -118
-47 -149 -64 -302 -10 -93 -21 -143 -40 -183 -14 -30 -34 -102 -46 -160 -11
-58 -25 -118 -30 -134 -6 -17 -17 -89 -25 -161 -8 -72 -22 -176 -31 -231 -14
-87 -16 -232 -18 -1159 -2 -924 -4 -1073 -18 -1160 -9 -55 -20 -138 -23 -185
-4 -47 -16 -132 -26 -189 -21 -118 -24 -177 -8 -186 15 -10 86 41 104 74 8 17
22 78 31 138 9 59 27 151 41 203 40 153 41 160 53 275 6 62 15 501 20 1005 5
492 12 936 15 985 3 50 19 162 35 250 16 88 46 259 65 380 42 258 55 311 102
424 28 70 36 104 44 198 7 91 14 123 33 156 13 23 27 62 31 87 4 25 37 137 75
250 37 113 75 239 84 280 9 41 32 107 51 145 l35 70 -5 -90 c-3 -49 -10 -218
-15 -375 -12 -348 -22 -450 -60 -605 -15 -66 -31 -155 -34 -199 -3 -43 -24
-167 -45 -275 -24 -117 -44 -252 -50 -336 -8 -97 -18 -163 -35 -215 -29 -90
-43 -202 -52 -415 -10 -258 25 -852 66 -1110 10 -66 24 -172 30 -235 12 -132
52 -381 82 -520 20 -96 48 -162 98 -235 15 -22 37 -59 49 -83 24 -46 47 -54
75 -23 40 44 32 125 -34 392 -21 86 -43 205 -49 265 -5 60 -26 190 -45 289
-53 273 -67 418 -73 735 -7 380 12 654 72 1035 13 83 33 222 45 310 33 254 78
506 127 700 30 123 47 218 54 300 5 66 17 185 25 265 12 108 18 299 23 745 l6
600 98 224 c107 248 125 282 137 260 5 -8 13 -71 18 -139 15 -182 -6 -470 -45
-629 -8 -36 -13 -83 -10 -109 3 -29 -1 -63 -13 -96 -9 -28 -20 -80 -24 -116
-8 -85 -32 -161 -55 -180 -15 -12 -24 -47 -40 -160 -37 -259 -43 -321 -51
-580 l-8 -255 -41 -145 c-84 -296 -83 -290 -88 -885 -5 -514 -3 -556 27 -785
5 -41 18 -183 29 -315 21 -255 29 -303 67 -430 13 -44 28 -113 34 -153 19
-134 115 -532 135 -559 13 -16 16 -17 41 -3 85 47 91 140 26 410 -96 398 -102
435 -113 608 -5 92 -16 211 -24 264 -45 298 -44 1098 1 1380 11 72 14 126 9
178 -10 103 -8 125 10 161 32 61 97 417 110 604 12 167 100 695 116 695 4 0
19 -14 34 -32 30 -35 30 -28 -5 -188 -18 -80 -22 -154 -31 -470 -15 -505 -8
-645 46 -1070 48 -377 67 -498 90 -574 8 -27 22 -89 30 -138 9 -50 27 -124 40
-167 13 -42 28 -106 34 -142 6 -36 29 -116 51 -177 47 -132 57 -190 110 -612
23 -179 48 -359 56 -400 17 -85 43 -122 72 -104 20 13 22 102 9 584 -14 533
-27 618 -157 1015 -43 132 -86 267 -94 300 -14 54 -56 295 -56 319 0 17 50
-57 82 -119 17 -33 54 -103 84 -155 29 -52 57 -114 63 -138 11 -53 50 -112 73
-112 10 0 25 12 34 26 20 29 32 -5 -99 284 -112 250 -223 526 -253 630 -24 84
-26 103 -21 204 6 121 37 256 79 348 24 52 91 138 108 138 13 0 18 -74 9 -128
-4 -29 -17 -64 -28 -79 -38 -47 -24 -83 49 -133 22 -15 22 -16 6 -63 -10 -31
-16 -81 -16 -141 0 -88 1 -95 24 -110 14 -8 51 -21 83 -29 l58 -12 6 -140 c4
-77 16 -196 28 -265 11 -69 27 -187 36 -262 17 -159 25 -200 65 -326 17 -51
30 -99 30 -108 0 -9 32 -83 70 -165 39 -81 70 -157 70 -167 0 -10 5 -23 11
-29 5 -5 16 -40 24 -76 7 -36 21 -79 30 -97 9 -17 23 -79 30 -138 8 -59 22
-129 30 -157 8 -27 22 -106 31 -175 18 -148 27 -191 59 -290 14 -41 33 -124
44 -185 68 -386 97 -502 158 -630 13 -27 34 -96 48 -152 32 -130 37 -142 78
-197 40 -52 68 -130 97 -269 23 -114 41 -151 86 -172 33 -15 94 -21 94 -8 0
17 -173 701 -206 814 -34 120 -154 568 -251 946 -34 131 -44 186 -37 193 16
16 40 -28 188 -339 69 -145 132 -274 141 -287 17 -26 52 -31 86 -14 33 18 22
63 -50 212 -95 198 -267 594 -301 697 -16 47 -39 112 -50 144 -27 77 -40 302
-39 717 0 324 11 566 26 581 15 15 77 -26 95 -62 9 -19 24 -95 33 -169 9 -74
28 -193 41 -264 13 -71 24 -154 24 -186 0 -41 7 -70 25 -106 38 -74 53 -136
70 -284 19 -173 19 -238 -1 -360 -14 -82 -15 -104 -4 -129 29 -72 53 -22 91
196 32 177 32 409 1 577 -23 123 -28 189 -10 126 23 -83 48 -46 56 83 4 70 7
85 16 71 7 -13 13 -187 17 -504 6 -437 9 -494 27 -576 38 -166 74 -307 104
-404 33 -105 33 -111 47 -615 5 -159 12 -298 16 -308 11 -27 37 -16 47 18 13
49 30 504 26 715 -4 182 -7 209 -45 395 -23 110 -51 252 -63 315 -12 63 -26
138 -32 165 -25 122 6 587 44 658 9 17 12 17 24 5 16 -16 17 -9 -32 -323 -24
-156 -15 -254 60 -630 36 -181 66 -331 66 -332 0 -2 5 -3 11 -3 18 0 6 322
-22 561 -21 187 -22 219 -12 353 11 151 24 192 42 143 28 -72 116 -643 132
-852 16 -210 6 -924 -15 -1060 -22 -141 -21 -200 5 -241 25 -41 52 -44 75 -8
15 22 19 73 26 357 13 464 5 1047 -16 1157 -8 47 -27 193 -41 324 -14 131 -28
262 -31 290 -4 37 -1 60 10 81 9 17 16 44 16 61 0 17 9 43 20 57 40 50 80 154
104 269 25 117 39 158 56 158 28 0 24 -165 -6 -239 -15 -38 -16 -82 -11 -449
6 -412 16 -568 42 -677 8 -33 26 -166 41 -295 26 -234 28 -376 8 -561 -6 -53
-4 -58 26 -92 18 -21 36 -37 41 -37 21 0 40 70 54 198 8 76 20 163 26 192 17
79 5 343 -26 595 -24 196 -26 237 -25 635 0 412 8 598 28 650 8 21 14 5 40
-105 74 -314 83 -434 52 -700 -26 -222 -24 -256 26 -557 73 -444 112 -851 100
-1043 -7 -124 -56 -335 -129 -560 -94 -288 -137 -487 -117 -539 11 -29 42 -41
69 -27 25 14 38 55 51 164 19 155 76 306 189 500 l61 104 10 169 c29 493 6
775 -96 1199 -30 128 -37 173 -41 308 -4 113 -2 157 6 157 6 0 11 -1 11 -2 0
-2 29 -91 65 -198 79 -235 189 -595 216 -705 27 -114 43 -463 30 -665 -14
-219 -49 -397 -111 -570 -107 -298 -150 -410 -179 -464 -17 -32 -31 -66 -31
-75 0 -9 -13 -35 -28 -57 -39 -53 -44 -71 -26 -89 22 -22 96 -19 126 4 13 11
38 50 55 88 17 37 50 110 73 161 23 51 77 159 121 240 43 81 79 151 79 156 0
4 15 49 34 100 64 171 92 436 82 771 -11 412 -54 648 -180 990 -14 39 -26 82
-26 97 0 15 -16 58 -35 96 -38 77 -79 209 -90 292 -4 30 -16 81 -26 112 -22
68 -29 232 -10 251 18 18 27 -4 34 -80 5 -45 19 -91 46 -151 22 -48 56 -143
76 -211 21 -69 52 -159 71 -202 19 -44 38 -108 44 -150 6 -41 21 -95 35 -121
14 -27 36 -69 50 -95 56 -107 134 -487 159 -767 13 -151 15 -161 39 -182 16
-14 34 -20 47 -17 26 7 78 66 86 99 4 13 -10 154 -30 312 -19 158 -38 314 -42
347 -10 97 -23 145 -63 235 -65 145 -209 602 -265 840 -38 163 -66 346 -69
450 -3 135 19 353 39 393 10 17 20 45 23 61 4 16 12 31 18 33 16 6 30 -50 44
-172 6 -55 27 -152 46 -215 23 -73 39 -150 44 -210 4 -52 17 -124 28 -160 19
-60 32 -133 46 -250 3 -25 14 -56 25 -70 18 -24 19 -24 39 -6 38 34 46 81 46
266 0 140 -5 201 -24 305 -30 167 -25 219 25 292 20 29 42 53 48 53 27 0 115
-50 133 -76 47 -67 93 -244 173 -663 78 -410 89 -502 100 -826 20 -592 24
-633 95 -1125 50 -349 66 -401 135 -447 39 -27 53 -28 74 -7 21 20 19 31 -59
384 -35 157 -68 321 -74 365 -12 87 -18 733 -8 855 4 41 12 136 18 212 10 129
10 139 -10 192 -28 76 -59 263 -71 436 -6 80 -17 226 -25 325 -20 237 -19 334
1 363 20 29 32 28 44 -3 5 -13 24 -31 43 -39 30 -12 35 -20 45 -71 7 -32 19
-126 28 -209 22 -218 41 -331 63 -374 10 -20 26 -60 34 -89 22 -74 48 -108
218 -286 l151 -158 -11 -347 c-6 -191 -11 -373 -11 -404 l0 -58 39 0 c35 0 40
3 50 32 6 18 25 136 42 263 36 275 58 403 70 411 12 7 66 -34 146 -111 l62
-60 12 -235 c21 -454 -8 -639 -160 -1002 -38 -92 -76 -192 -85 -221 -28 -97
-59 -383 -60 -562 -1 -157 1 -173 21 -211 24 -45 65 -77 91 -72 25 5 34 74 29
223 -5 158 8 359 29 463 17 84 129 427 174 532 29 69 70 233 92 365 10 59 12
187 10 489 l-3 408 -40 79 c-22 44 -49 103 -60 132 -24 63 -159 331 -205 408
-31 51 -34 65 -40 165 -4 60 -3 162 1 227 6 107 9 117 27 117 44 0 226 -208
288 -330 33 -65 58 -150 95 -319 14 -68 46 -185 70 -260 83 -260 84 -268 95
-781 5 -234 14 -457 20 -496 16 -104 43 -207 56 -211 19 -6 24 48 39 422 19
464 27 586 42 572 15 -15 24 -192 33 -627 5 -267 14 -519 20 -561 10 -70 8
-89 -20 -227 -16 -83 -30 -181 -30 -217 0 -57 3 -69 25 -90 13 -14 31 -25 38
-25 31 0 57 35 67 89 19 101 30 446 30 941 0 444 5 543 23 513 3 -5 13 -133
22 -284 25 -449 56 -863 64 -872 11 -11 58 12 68 32 12 24 15 1000 4 1106 -13
126 -38 259 -56 302 -22 51 -49 164 -85 344 -17 84 -40 188 -52 229 -18 66
-21 106 -23 330 -2 217 -6 280 -28 420 -59 381 -68 446 -65 519 3 68 5 76 22
76 16 0 22 -11 32 -65 7 -36 19 -92 28 -125 16 -59 34 -197 56 -410 8 -77 22
-140 46 -209 36 -106 64 -234 64 -297 0 -22 14 -107 30 -189 38 -187 68 -418
76 -586 4 -71 13 -147 21 -169 12 -32 16 -151 23 -610 5 -333 13 -589 19 -615
6 -25 15 -93 21 -151 6 -59 26 -182 46 -275 19 -93 42 -209 50 -259 21 -126
27 -137 67 -133 l32 3 3 100 c3 103 -4 183 -38 440 -12 93 -24 262 -30 444
-10 313 -33 808 -50 1086 -12 185 -64 572 -110 810 -16 83 -46 247 -66 365
l-37 215 18 87 17 88 -32 66 c-43 89 -45 109 -25 265 22 176 30 205 58 213 40
11 74 6 98 -13 22 -18 24 -26 22 -108 -1 -48 -11 -132 -22 -186 -34 -160 -36
-256 -12 -517 34 -376 41 -426 67 -513 44 -146 74 -351 89 -612 4 -60 11 -130
15 -155 41 -234 55 -330 95 -635 25 -192 51 -384 58 -425 l13 -75 8 110 c9
140 -11 1161 -25 1263 -6 42 -14 106 -19 142 -5 36 -18 91 -29 122 -12 31 -26
101 -32 155 -6 54 -22 132 -35 173 -58 183 -60 634 -4 873 23 100 36 115 79
93 17 -9 43 -35 59 -58 26 -40 27 -48 33 -212 4 -94 8 -432 9 -751 0 -319 5
-645 9 -725 l9 -145 60 -125 c55 -116 103 -183 119 -167 3 4 -6 78 -22 165
l-28 157 -8 745 c-5 410 -13 835 -18 945 l-9 200 38 75 c21 41 49 114 64 161
14 47 37 102 51 123 20 30 25 49 25 100 0 34 7 85 15 112 21 70 50 222 79 419
38 265 39 293 17 465 -13 96 -21 211 -21 302 0 141 -1 151 -38 270 l-38 124
27 75 c35 92 37 175 9 285 -26 102 -65 166 -173 280 -94 100 -188 175 -304
243 l-73 43 0 117 c-1 246 -30 429 -106 656 -48 144 -88 202 -181 262 -64 41
-76 72 -43 108 31 33 58 40 79 21 50 -45 133 -57 202 -29 42 16 42 16 62 -8
24 -30 247 -482 314 -639 58 -134 92 -235 128 -376 14 -55 34 -127 45 -160 12
-32 32 -129 46 -214 13 -85 32 -180 41 -210 9 -30 17 -79 19 -109 3 -60 30
-206 74 -411 16 -74 34 -184 40 -243 7 -67 19 -128 33 -160 19 -46 21 -69 21
-197 -1 -163 -34 -438 -64 -546 -17 -59 -20 -101 -20 -284 -1 -623 -27 -871
-150 -1424 -63 -285 -67 -322 -46 -419 18 -80 37 -108 63 -91 21 13 94 285
158 594 20 96 61 274 91 394 33 133 58 258 64 320 5 56 11 342 15 636 6 624
19 705 45 295 20 -321 12 -624 -30 -1075 -30 -320 -40 -531 -40 -875 l0 -311
39 -114 c45 -135 71 -200 84 -217 14 -19 42 0 62 43 15 33 18 94 26 548 9 549
17 728 50 1071 21 209 21 237 10 560 -6 187 -16 387 -22 445 -13 139 -53 374
-90 535 -43 183 -47 280 -18 430 20 103 24 149 23 330 0 207 -1 212 -32 315
-18 58 -32 122 -32 143 0 64 -40 304 -70 423 -34 136 -85 266 -155 399 -87
165 -135 356 -135 536 0 137 -1 137 190 -89 52 -61 100 -125 105 -142 6 -16
23 -42 37 -57 14 -16 39 -62 56 -103 16 -41 74 -165 127 -275 102 -211 176
-382 194 -452 6 -23 16 -77 21 -121 6 -43 26 -126 46 -183 47 -141 53 -206 24
-300 -25 -82 -53 -144 -80 -174 -40 -44 -130 -321 -150 -460 -13 -91 -13 -528
0 -674 6 -63 19 -144 29 -180 10 -36 24 -88 30 -115 7 -28 46 -110 88 -183 70
-122 79 -134 102 -131 31 4 41 41 17 67 -22 24 -33 90 -46 276 -6 88 -15 189
-21 225 -26 157 -4 561 41 736 22 84 33 104 61 104 25 0 29 -18 39 -192 5 -84
16 -174 24 -199 44 -141 75 -630 60 -964 -19 -446 9 -829 87 -1159 71 -306 88
-391 104 -526 9 -75 35 -209 60 -309 25 -97 57 -255 71 -351 14 -96 30 -183
35 -192 6 -10 20 -18 34 -18 18 0 26 8 34 33 20 61 41 209 41 286 0 151 -129
788 -209 1031 -27 81 -33 117 -41 264 -10 162 -14 750 -10 1554 1 421 -12 727
-40 909 -24 157 -24 155 0 118 53 -79 73 -194 100 -590 11 -159 27 -355 35
-435 10 -93 18 -343 24 -700 5 -332 13 -565 19 -581 6 -14 15 -80 22 -145 20
-212 40 -356 75 -532 56 -280 140 -602 156 -602 16 0 9 87 -26 337 -56 407
-86 737 -105 1183 -36 840 -84 1641 -111 1850 -22 168 -72 302 -154 412 -45
59 -64 113 -48 129 16 16 41 -1 72 -50 60 -93 103 -206 172 -449 39 -136 90
-310 114 -387 45 -142 68 -251 104 -495 34 -226 41 -371 46 -949 3 -306 10
-590 16 -631 5 -41 16 -160 24 -265 13 -165 18 -196 40 -241 27 -55 89 -119
106 -109 14 9 11 87 -10 283 -21 187 -34 484 -51 1127 -12 437 -25 694 -39
743 -13 43 -37 237 -56 442 -26 285 -54 419 -139 669 -47 139 -63 172 -120
254 -36 52 -73 100 -82 108 -10 8 -30 32 -46 53 -37 51 -36 93 4 175 l32 66 4
199 c5 229 -13 585 -34 677 -8 35 -23 111 -34 168 -48 249 -97 417 -172 590
-58 135 -45 111 -130 237 -36 54 -88 140 -116 189 -27 50 -65 117 -86 149 -20
33 -36 68 -36 78 0 10 -17 37 -39 61 -21 23 -46 58 -55 77 -9 20 -70 94 -137
165 -140 152 -170 197 -181 277 -4 32 -21 89 -36 126 -16 37 -35 92 -42 122
-6 30 -34 100 -60 155 -26 55 -56 120 -66 145 -12 30 -49 76 -109 135 -49 50
-102 111 -117 135 -15 25 -77 99 -137 165 -61 66 -120 138 -131 159 l-19 40
31 55 c75 134 79 145 73 183 -5 29 -2 46 14 71 13 22 24 65 31 124 12 107 51
267 77 314 43 80 5 685 -68 1059 -47 240 -107 400 -214 570 -30 47 -66 112
-80 144 -77 175 -200 286 -398 361 -183 69 -310 159 -537 383 -69 68 -145 135
-170 150 -25 14 -49 30 -55 36 -27 32 -139 73 -363 136 -383 107 -486 146
-847 318 -270 128 -416 186 -615 240 -173 47 -274 68 -395 82 -100 11 -412 20
-490 14z m3890 -4456 c15 -12 34 -36 41 -54 8 -20 27 -39 47 -49 50 -23 143
-110 172 -159 14 -24 35 -48 48 -53 28 -13 160 -205 194 -282 14 -31 47 -101
74 -156 52 -106 68 -155 51 -155 -13 0 -135 96 -242 191 -63 55 -85 82 -110
136 -18 38 -51 95 -75 128 -44 61 -160 179 -227 229 -20 15 -43 42 -52 61 -16
33 -22 138 -10 169 9 23 56 20 89 -6z m280 -1020 c13 -29 36 -106 50 -171 50
-227 154 -490 243 -616 29 -41 52 -80 52 -86 0 -7 20 -33 44 -58 49 -49 57
-70 87 -235 31 -173 28 -175 -71 -49 -143 182 -205 287 -373 632 -60 123 -67
145 -62 181 4 29 0 57 -15 93 -11 28 -20 69 -20 90 0 30 -6 42 -25 55 -14 9
-25 21 -25 26 0 12 81 190 87 190 2 0 15 -24 28 -52z m-6363 -139 c36 -70 22
-179 -53 -400 -68 -203 -96 -235 -65 -76 9 45 25 169 37 276 11 106 25 204 30
218 12 32 30 26 51 -18z m6731 -31 l77 -73 10 -215 c5 -118 10 -228 10 -245
-1 -28 -2 -29 -14 -12 -24 32 -116 284 -145 400 -37 147 -46 217 -28 217 8 0
48 -33 90 -72z m-6997 -16 c12 -9 24 -28 27 -41 7 -29 -8 -225 -28 -381 -23
-170 -54 -618 -65 -925 -28 -779 -32 -815 -109 -960 -27 -49 -61 -124 -76
-165 -16 -41 -32 -79 -36 -83 -12 -15 -22 302 -15 503 8 222 31 619 46 790 22
236 178 1220 201 1263 12 21 28 21 55 -1z m7298 -303 c53 -42 346 -519 478
-779 66 -131 193 -478 213 -584 26 -140 37 -304 33 -503 -4 -196 -15 -259 -41
-250 -19 6 -38 103 -42 220 -3 91 -6 112 -23 130 -25 28 -36 63 -66 213 -35
170 -50 209 -180 469 -88 176 -128 245 -170 293 -31 34 -72 91 -92 125 -20 34
-44 71 -55 83 -48 52 -91 140 -100 204 -10 75 -12 361 -3 384 8 21 16 20 48
-5z m-762 -405 c56 -101 75 -177 98 -389 25 -220 54 -392 76 -444 8 -20 26
-76 39 -125 14 -49 36 -105 50 -125 34 -50 145 -434 196 -681 22 -107 49 -235
59 -285 35 -167 81 -748 62 -767 -25 -25 -50 95 -87 422 -35 307 -75 538 -134
775 -76 303 -94 350 -372 977 -104 234 -189 435 -189 446 0 25 54 99 78 106
21 7 37 39 47 96 17 90 25 90 77 -6z m801 -452 c91 -137 148 -247 202 -387 26
-66 67 -160 92 -209 36 -72 52 -121 79 -248 18 -86 42 -192 53 -235 25 -101
29 -135 14 -140 -7 -3 -27 46 -53 129 -29 91 -62 169 -105 248 -73 132 -225
453 -249 526 -9 27 -30 75 -47 106 -46 89 -93 290 -73 311 11 11 19 2 87 -101z
m-2237 -3594 c13 -25 17 -57 15 -145 l-1 -112 56 -63 c99 -113 99 -112 99
-348 0 -113 -2 -245 -4 -295 -3 -49 0 -112 5 -140 11 -53 7 -145 -6 -145 -9 0
-132 127 -232 239 l-75 84 -8 361 c-11 479 -11 501 10 532 15 24 85 63 112 64
7 0 20 -15 29 -32z m-4214 -547 c-3 -23 2 -33 28 -51 25 -18 31 -28 28 -53 -3
-28 3 -35 47 -64 82 -54 85 -60 85 -186 0 -92 -34 -731 -43 -817 -3 -32 -82
202 -107 320 -51 235 -91 835 -58 868 19 19 25 14 20 -17z m3929 -2 c6 -12 14
-70 17 -128 5 -96 4 -105 -11 -93 -15 13 -49 105 -62 169 -12 59 31 98 56 52z
m-259 -56 c14 -16 36 -48 50 -73 14 -25 54 -90 89 -145 90 -142 98 -170 98
-345 0 -115 -2 -141 -11 -125 -21 36 -135 290 -148 331 -7 21 -37 86 -66 144
-62 121 -84 200 -64 225 17 21 22 19 52 -12z m968 -144 c31 -58 68 -612 51
-764 -7 -64 -8 -68 -18 -44 -7 15 -30 40 -52 55 -28 20 -43 39 -47 60 -3 17
-4 175 -2 350 3 326 8 364 43 364 8 0 19 -9 25 -21z m-3480 -144 c22 -23 51
-35 122 -49 70 -15 61 -201 -20 -378 -19 -43 -37 -78 -40 -78 -2 0 -22 16 -44
36 -22 20 -53 40 -68 46 -40 13 -55 55 -44 126 4 31 8 111 9 177 0 66 4 126 8
133 13 20 52 14 77 -13z m2420 -72 c39 -95 94 -198 126 -236 13 -16 24 -37 24
-46 0 -10 12 -40 26 -66 59 -112 93 -270 110 -516 10 -146 2 -151 -90 -57
-118 120 -179 261 -206 477 -7 52 -19 113 -27 135 -8 23 -17 79 -20 126 -6 96
4 260 17 260 4 0 22 -35 40 -77z m1054 -835 c20 -29 21 -92 1 -108 -19 -16
-25 -11 -36 37 -19 85 -1 123 35 71z m-566 -155 c73 -159 99 -253 69 -253 -18
0 -37 21 -91 105 -33 49 -46 79 -46 105 0 42 18 110 29 110 4 0 22 -30 39 -67z"/>
<path d="M8220 9392 c0 -12 19 -26 26 -19 2 2 -2 10 -11 17 -9 8 -15 8 -15 2z"/>
</g>
</svg>
