<?xml version="1.0" standalone="no"?>
<!DOCTYPE svg PUBLIC "-//W3C//DTD SVG 20010904//EN"
 "http://www.w3.org/TR/2001/REC-SVG-20010904/DTD/svg10.dtd">
<svg version="1.0" xmlns="http://www.w3.org/2000/svg"
 width="1365.000000pt" height="1536.000000pt" viewBox="0 0 1365.000000 1536.000000"
 preserveAspectRatio="xMidYMid meet">
<metadata>
Created by potrace 1.16, written by Peter Selinger 2001-2019
</metadata>
<g transform="translate(0.000000,1536.000000) scale(0.100000,-0.100000)"
fill="#000000" stroke="none">
<path d="M7478 15350 c-14 -4 -45 -18 -68 -31 l-41 -23 -99 17 c-104 17 -135
14 -172 -20 -15 -14 -16 -18 -3 -43 8 -16 46 -49 85 -75 l70 -47 0 -49 c0 -28
-4 -58 -10 -68 -5 -11 -6 -89 -1 -207 7 -146 13 -204 29 -253 16 -48 18 -68
10 -78 -21 -26 -1 -197 42 -368 l41 -160 -29 -25 c-16 -14 -93 -80 -171 -148
-110 -96 -141 -119 -141 -102 0 20 -1 20 -52 -6 -180 -91 -300 -209 -344 -338
-15 -44 -17 -46 -55 -46 -34 0 -41 4 -61 40 -13 22 -33 43 -45 46 -16 4 -23
14 -23 31 0 14 -11 62 -25 107 -22 71 -32 88 -77 132 -48 46 -116 84 -152 84
-7 0 -17 -18 -22 -41 l-9 -40 -258 280 c-143 155 -261 281 -265 281 -3 0 2 -8
10 -17 8 -10 58 -73 111 -140 107 -135 188 -231 340 -400 68 -76 112 -135 136
-185 25 -50 49 -82 78 -104 l41 -32 -24 -11 c-16 -7 -24 -19 -24 -36 0 -31 -6
-31 -31 -2 l-19 22 6 -28 c5 -21 2 -32 -12 -42 -26 -19 -29 -19 -42 8 -10 21
-11 21 -12 2 -1 -18 -2 -17 -15 5 -14 24 -14 24 -16 -25 -1 -44 -2 -46 -9 -20
-4 17 -9 48 -11 70 -2 28 -4 17 -9 -35 l-5 -75 -23 45 -23 45 6 -65 6 -65 -22
25 -22 25 5 -37 c2 -21 2 -38 -1 -38 -3 0 -25 19 -50 43 l-44 42 32 -56 c40
-73 39 -81 -5 -38 l-37 34 28 -48 c21 -37 25 -51 16 -60 -8 -8 -14 -8 -19 -1
-22 31 -95 124 -98 124 -3 0 14 -35 37 -77 l41 -78 -52 55 c-53 56 -55 55 -12
-15 25 -39 25 -40 2 -20 l-23 20 8 -25 c16 -52 16 -54 -5 -17 -29 52 -33 46
-10 -12 15 -40 17 -51 6 -60 -10 -9 -23 15 -62 111 -35 88 -50 115 -52 96 -2
-14 15 -69 37 -123 50 -119 53 -153 6 -65 -20 36 -49 79 -65 95 l-31 30 35
-80 c49 -114 53 -139 12 -75 -65 103 -66 100 -8 -35 17 -38 28 -72 26 -75 -8
-7 -52 53 -76 102 -12 27 -23 46 -25 45 -2 -2 8 -41 22 -87 14 -46 24 -84 22
-85 -1 0 -28 1 -59 3 -56 4 -57 4 -66 40 l-10 37 -1 -45 -1 -44 -22 44 c-13
24 -30 46 -38 48 -12 4 -12 1 2 -14 9 -10 21 -32 27 -47 10 -25 8 -29 -15 -37
-38 -15 -39 -14 -52 35 -7 25 -16 45 -21 45 -6 0 -3 -21 6 -46 10 -30 12 -49
5 -56 -6 -6 -15 15 -26 62 -9 40 -16 79 -16 86 0 8 -4 14 -10 14 -13 0 -13 -1
9 -93 18 -73 18 -78 1 -87 -14 -7 -21 1 -45 51 -16 32 -32 59 -37 59 -5 0 -2
-13 7 -30 21 -41 19 -47 -6 -16 -37 47 -33 19 5 -32 19 -27 33 -52 29 -56 -18
-18 -42 -2 -68 46 -16 29 -30 47 -33 40 -2 -6 4 -22 12 -34 22 -31 20 -45 -4
-23 -11 10 -20 24 -20 32 0 7 -4 13 -10 13 -14 0 -13 -11 5 -53 18 -44 19 -67
3 -67 -7 0 -24 25 -37 55 -13 30 -27 55 -32 55 -4 0 3 -25 17 -55 29 -66 31
-85 3 -32 -11 20 -24 37 -29 37 -6 0 -1 -18 10 -40 19 -37 19 -41 4 -47 -12
-5 -27 5 -51 33 -18 21 -33 34 -33 27 0 -6 11 -25 25 -41 22 -26 23 -31 10
-42 -8 -7 -15 -8 -15 -3 0 5 -7 18 -15 29 -14 18 -14 17 -9 -13 4 -20 2 -33
-4 -33 -5 0 -19 15 -31 33 -11 17 -21 26 -21 19 0 -7 7 -24 16 -37 13 -20 14
-28 4 -40 -17 -21 -25 -19 -40 10 -7 14 -17 25 -22 25 -5 0 -1 -14 8 -31 12
-24 13 -34 4 -43 -9 -8 -14 -8 -17 2 -3 6 -9 12 -14 12 -6 0 -6 -7 0 -19 8
-14 6 -22 -7 -34 -16 -15 -20 -15 -50 3 -36 22 -42 24 -42 11 0 -5 14 -14 30
-21 33 -14 40 -30 13 -30 -9 0 -13 -3 -10 -6 10 -10 -12 -44 -29 -44 -8 0 -13
-4 -9 -9 6 -11 -52 -101 -66 -101 -5 0 -9 -8 -9 -17 0 -10 -15 -42 -33 -70
l-33 -52 -32 19 c-18 11 -32 28 -32 39 0 11 -7 24 -16 29 -15 8 -14 19 6 123
29 153 75 335 105 415 14 36 95 197 182 357 206 385 237 451 228 497 -4 19
-10 145 -15 280 -8 253 -17 321 -43 347 -12 12 -14 32 -10 92 4 57 -1 107 -20
201 -14 69 -28 146 -32 172 -3 25 -12 52 -20 58 -8 6 -21 36 -30 67 l-16 55
49 52 c55 58 86 111 78 131 -3 8 -23 19 -45 25 -37 10 -48 7 -138 -31 -87 -37
-100 -40 -132 -30 -62 18 -108 22 -135 11 -23 -8 -25 -13 -16 -30 6 -11 45
-50 88 -86 66 -56 110 -110 112 -136 0 -3 -7 -8 -15 -10 -12 -2 -5 -20 30 -76
25 -39 45 -74 45 -76 0 -2 -12 -7 -26 -10 l-25 -7 37 -51 c33 -46 36 -55 26
-80 -8 -23 -4 -47 23 -133 l33 -106 -23 -15 c-22 -14 -22 -16 -8 -62 10 -32
16 -102 18 -217 2 -93 8 -194 14 -224 l11 -53 -44 -67 c-66 -99 -120 -204
-160 -314 -55 -146 -160 -502 -226 -762 -53 -208 -59 -242 -62 -351 l-3 -120
63 -93 63 -94 -12 -73 c-16 -102 -8 -228 19 -280 26 -50 79 -98 126 -114 33
-11 36 -15 36 -51 0 -54 22 -102 58 -127 36 -26 131 -52 189 -52 24 0 43 -4
43 -10 0 -19 -33 -27 -79 -19 -25 5 -61 11 -78 14 -18 3 -33 2 -33 -4 0 -5 26
-12 58 -16 108 -12 93 -26 -23 -21 -60 3 -94 2 -75 -2 21 -4 35 -13 35 -22 0
-12 -12 -14 -61 -12 -38 3 -64 0 -68 -7 -5 -8 13 -11 57 -11 78 0 93 -11 35
-26 l-43 -12 49 -1 c81 -2 42 -15 -52 -18 -48 -2 -100 -7 -117 -13 -23 -7 -9
-8 55 -5 54 3 78 2 65 -4 -21 -9 -21 -9 25 -24 31 -11 -58 -6 -137 7 -46 7
-83 10 -83 5 0 -4 21 -11 48 -14 62 -9 74 -13 37 -14 -37 -1 -75 -11 -75 -20
0 -3 23 -4 51 -2 54 3 144 -7 136 -16 -3 -3 -33 -5 -66 -4 -33 0 -71 -4 -83
-9 -22 -8 -22 -9 -2 -9 11 -1 29 -8 40 -17 18 -14 14 -15 -45 -10 -37 2 -59 1
-51 -4 9 -6 0 -12 -29 -20 -59 -16 -44 -25 18 -11 38 8 57 8 78 -2 27 -11 25
-12 -29 -15 -70 -4 -77 -22 -10 -23 47 -1 47 -1 -23 -15 -81 -16 -100 -22 -92
-30 3 -3 24 0 47 6 37 10 45 9 64 -8 11 -11 28 -22 36 -25 8 -3 -5 -6 -30 -6
-52 -1 -90 -10 -90 -21 0 -4 20 -3 45 2 53 11 97 -4 49 -17 l-29 -8 25 -7 c19
-6 10 -9 -35 -10 -33 -1 -73 -6 -90 -10 -24 -6 -16 -8 35 -9 72 -1 140 -17
140 -31 0 -6 -58 -10 -141 -10 -91 0 -138 -4 -134 -10 3 -5 13 -10 21 -10 8 0
35 -14 62 -31 46 -30 46 -30 13 -24 -22 5 -31 4 -27 -3 4 -6 26 -14 51 -18 24
-3 43 -11 42 -17 -1 -6 18 -14 42 -19 25 -4 49 -12 54 -17 18 -18 -53 -17
-124 1 -39 10 -77 17 -83 15 -6 -3 11 -10 37 -17 57 -15 46 -30 -20 -30 -24 0
-43 -4 -43 -10 0 -5 28 -7 68 -5 37 3 61 3 55 -1 -20 -9 -15 -24 7 -24 11 0
20 -4 20 -9 0 -12 -36 -20 -95 -22 l-50 -2 40 -6 c30 -5 36 -8 22 -14 -10 -4
-33 -7 -50 -7 -29 -1 -30 -2 -14 -14 12 -9 14 -16 8 -21 -6 -3 -11 -11 -11
-16 0 -6 14 1 31 15 25 22 40 26 87 25 l57 -1 -40 -19 c-22 -10 -56 -19 -75
-20 -34 -1 -34 -2 -6 -8 l28 -6 -46 -22 c-32 -16 -44 -27 -40 -38 4 -9 -3 -23
-17 -35 -28 -22 -13 -27 17 -5 21 16 59 20 49 6 -3 -5 -18 -12 -34 -16 -16 -3
-35 -13 -42 -21 -15 -18 -14 -18 49 6 62 24 117 28 67 5 -24 -11 -26 -14 -10
-15 30 -1 2 -14 -77 -35 -38 -9 -68 -21 -68 -25 0 -4 46 6 103 21 97 27 202
39 181 21 -5 -5 -54 -16 -109 -26 -119 -20 -215 -45 -215 -57 0 -4 21 -2 47 6
29 9 64 12 88 8 39 -6 39 -6 -55 -36 -52 -16 -90 -32 -83 -34 6 -2 48 7 93 21
92 30 174 44 150 27 -11 -8 -3 -11 34 -11 94 0 32 -17 -146 -40 -98 -13 -178
-28 -178 -33 0 -5 10 -7 22 -4 13 3 50 8 83 11 l60 5 -45 -11 c-60 -14 -33
-23 30 -9 60 13 83 13 55 1 -15 -6 -6 -9 35 -10 48 -2 51 -3 25 -10 -16 -4
-81 -14 -142 -20 -62 -7 -113 -17 -113 -22 0 -6 10 -8 23 -5 12 3 54 8 92 12
l70 6 -40 -19 c-22 -10 -58 -25 -80 -32 -75 -25 -16 -21 66 4 46 14 84 24 86
22 6 -5 -89 -44 -140 -56 -26 -7 -50 -16 -53 -21 -8 -13 7 -11 56 6 68 24 61
17 -30 -30 -120 -62 -85 -56 55 10 109 51 175 68 175 45 0 -5 -5 -10 -11 -10
-16 0 -191 -89 -212 -108 -27 -24 -13 -25 24 -3 19 12 43 21 53 21 20 0 20 0
0 -15 -10 -8 -14 -15 -8 -15 5 0 19 7 30 15 10 8 35 14 54 14 l35 -1 -29 -12
c-17 -8 -24 -15 -16 -18 22 -7 -40 -26 -120 -36 l-75 -9 60 -2 60 -1 -90 -50
c-119 -66 -101 -63 33 4 l108 54 84 -5 c75 -6 81 -7 58 -19 -14 -7 -72 -25
-129 -39 -168 -41 -194 -57 -117 -72 l42 -8 -97 -45 c-53 -24 -97 -47 -97 -51
0 -9 28 3 164 66 51 23 90 35 110 33 26 -3 22 -6 -29 -18 -44 -10 -89 -34
-170 -89 -119 -80 -147 -102 -141 -108 2 -3 60 34 128 80 96 66 138 89 188
102 36 9 74 19 85 22 43 12 -2 -17 -65 -42 -59 -23 -48 -27 25 -8 11 2 -38
-29 -109 -69 -72 -41 -132 -81 -134 -89 -4 -11 -2 -11 9 -3 26 21 230 134 224
124 -3 -5 -26 -21 -51 -36 -50 -29 -56 -39 -18 -30 l26 7 -29 -38 c-55 -69
-66 -101 -59 -165 3 -32 14 -84 25 -115 l20 -58 -26 -122 c-26 -123 -26 -123
-57 -127 -138 -21 -249 -44 -351 -71 -66 -19 -175 -45 -241 -60 l-121 -27
-734 237 c-404 131 -747 237 -764 237 -16 0 -88 -5 -160 -11 -176 -14 -471
-13 -630 3 -128 12 -130 12 -151 -9 -26 -28 -145 -47 -274 -43 -100 3 -293
-25 -319 -46 -8 -6 -49 -14 -93 -17 -53 -4 -82 -10 -91 -21 -6 -9 -31 -18 -55
-21 -33 -4 -52 0 -87 19 -60 34 -102 45 -113 31 -29 -37 -23 -144 11 -199 15
-25 19 -48 18 -94 -2 -58 -1 -62 45 -117 25 -31 49 -57 53 -57 9 0 92 68 107
87 7 10 14 28 14 40 0 24 34 52 92 76 27 11 38 12 41 4 3 -8 34 3 91 30 47 24
88 43 90 43 2 0 6 -10 9 -22 5 -19 10 -17 51 28 36 39 47 47 57 37 25 -25 115
-10 311 48 l67 21 30 -23 30 -22 88 26 c162 47 191 50 438 43 l230 -7 41 -28
c33 -23 54 -29 120 -34 55 -4 135 -23 264 -62 392 -120 854 -267 1071 -343
178 -61 232 -76 250 -69 13 5 138 26 277 46 251 38 253 38 248 17 -25 -105
-197 -939 -206 -1001 l-12 -81 -116 -124 c-145 -157 -795 -849 -931 -992 -70
-75 -101 -115 -101 -131 0 -14 -50 -109 -111 -213 -186 -316 -307 -529 -379
-667 -79 -153 -75 -136 -161 -647 l-59 -355 -507 -505 c-445 -443 -531 -523
-691 -648 l-182 -143 0 -53 0 -53 -127 -74 c-110 -64 -128 -78 -141 -111 -13
-32 -33 -49 -130 -110 -113 -70 -117 -72 -226 -88 -127 -20 -192 -36 -201 -50
-7 -11 12 -20 138 -64 l77 -28 0 -87 c0 -109 12 -131 73 -130 49 0 135 13 143
22 3 3 -1 39 -9 81 l-14 75 31 28 c17 16 43 39 59 53 l27 24 29 -28 c33 -31
33 -31 55 47 9 32 21 70 27 85 l10 27 29 -35 c16 -19 30 -33 32 -30 3 3 38 60
79 127 41 68 77 123 81 123 4 0 10 -9 13 -20 3 -11 10 -20 15 -20 5 0 102 97
217 216 139 144 389 379 757 712 301 273 556 500 565 504 9 4 32 7 51 7 65 2
62 -14 68 367 l5 348 65 99 c78 120 142 240 142 269 0 52 371 842 418 891 42
44 85 66 148 78 33 6 84 24 115 41 65 34 262 180 394 292 49 42 91 72 93 68 1
-5 -31 -236 -72 -513 -144 -965 -180 -1230 -206 -1539 -12 -140 -27 -241 -79
-542 -63 -366 -98 -765 -108 -1248 -7 -327 3 -515 43 -835 57 -456 144 -765
309 -1095 82 -165 127 -238 247 -398 132 -176 188 -215 283 -198 82 16 261
163 429 356 241 275 316 396 622 1003 119 237 231 453 248 481 18 28 61 102
95 164 l63 113 56 -88 c83 -132 188 -270 256 -339 49 -49 73 -64 116 -77 99
-28 221 -47 305 -47 76 0 90 3 150 35 77 40 179 113 282 202 l72 63 64 -108
c36 -59 146 -271 246 -472 290 -586 375 -723 619 -1000 212 -242 386 -370 484
-357 63 8 115 54 220 191 365 482 536 1012 599 1856 13 180 7 691 -11 955 -21
299 -70 688 -121 950 -18 95 -44 312 -68 580 -13 136 -144 1058 -255 1785 -40
267 -73 486 -72 486 0 1 64 -32 141 -74 180 -96 409 -202 509 -236 56 -18 99
-26 151 -26 81 0 125 -12 172 -46 34 -25 334 -395 482 -594 49 -65 104 -147
123 -182 23 -43 71 -100 157 -188 l124 -125 34 -145 c19 -80 57 -232 85 -339
l52 -193 60 4 60 5 645 -362 c457 -255 719 -409 895 -524 137 -90 255 -165
262 -168 8 -3 16 6 20 22 6 26 9 24 116 -82 114 -113 118 -115 134 -55 3 12
10 22 14 22 4 0 29 -37 55 -82 l47 -81 20 31 c11 18 23 32 26 32 4 0 35 -14
69 -32 69 -37 73 -44 73 -137 l0 -64 76 6 c104 9 128 22 132 70 2 21 -4 63
-13 93 -9 31 -14 63 -11 70 3 8 45 39 93 70 107 69 101 63 83 74 -19 12 -131
12 -230 0 -74 -8 -78 -8 -209 37 -115 40 -136 51 -154 79 -19 29 -37 37 -161
76 l-140 44 -11 50 -10 49 -115 57 c-63 31 -171 82 -238 113 -89 40 -288 159
-705 421 l-581 364 -141 342 c-176 426 -192 461 -242 523 -65 82 -277 315
-503 555 -117 124 -221 242 -231 263 -13 25 -39 49 -80 75 -43 25 -1206 804
-1236 826 -4 3 -223 1049 -220 1052 5 6 331 -96 360 -112 23 -13 37 -14 75 -5
111 25 525 97 906 156 572 89 569 88 658 82 69 -6 85 -4 121 14 39 21 46 21
161 10 323 -32 407 -51 559 -128 l68 -34 32 19 32 20 105 -49 c154 -70 221
-92 253 -80 24 9 28 6 58 -41 30 -46 34 -49 45 -33 12 17 19 14 93 -34 44 -29
85 -50 91 -46 26 16 120 -67 120 -105 0 -27 39 -89 77 -123 20 -17 22 -17 71
23 62 49 73 67 77 135 2 40 9 58 28 77 31 31 49 93 45 156 l-3 47 -35 -3 c-19
-1 -53 -9 -75 -18 -48 -19 -145 -11 -145 11 0 19 -23 30 -97 45 -35 7 -68 19
-74 26 -6 8 -54 28 -107 44 -52 17 -104 36 -116 42 -12 7 -64 15 -116 19 -112
8 -230 45 -244 76 -8 18 -24 21 -165 31 -205 15 -651 86 -712 113 -41 19 -53
20 -95 10 -63 -14 -1461 -242 -1494 -243 -27 -1 -187 60 -365 138 -61 26 -146
60 -190 75 -49 17 -79 32 -78 41 0 7 11 49 22 92 26 99 26 141 1 189 -23 43
-25 51 -7 42 6 -4 1 3 -13 14 -14 11 -28 21 -32 21 -5 0 -8 4 -8 10 0 5 35
-11 77 -36 106 -63 113 -66 113 -56 0 5 -54 40 -120 77 -66 37 -120 70 -120
73 0 2 17 2 38 -2 34 -5 33 -4 -15 16 -56 22 -72 43 -25 32 84 -21 121 -39
231 -114 67 -46 124 -81 127 -78 3 3 -51 44 -119 91 -89 61 -141 90 -182 101
-66 17 -80 26 -40 26 16 0 82 -25 148 -56 66 -30 122 -53 125 -50 3 3 -42 28
-99 56 -102 48 -103 49 -62 50 23 0 45 5 48 10 8 13 -40 33 -145 60 -176 44
-193 60 -62 60 83 -1 90 -2 172 -45 46 -24 85 -43 87 -41 2 2 -28 20 -67 40
-38 20 -70 40 -70 43 0 3 25 3 55 0 30 -3 55 -2 55 2 0 5 -36 11 -79 14 -44 3
-87 10 -98 16 -14 8 -15 11 -3 12 8 0 -3 9 -25 20 l-40 18 34 1 c18 0 49 -9
67 -21 35 -21 47 -16 17 7 -34 26 14 16 57 -11 22 -14 40 -21 40 -16 0 14 -68
56 -158 97 -79 36 -82 39 -55 46 23 6 51 -3 152 -52 134 -65 131 -64 131 -51
0 4 -38 25 -85 46 -92 41 -107 55 -32 29 26 -9 52 -14 59 -11 7 2 -26 16 -74
31 -48 15 -90 31 -93 37 -8 12 -7 12 70 -12 78 -24 113 -20 40 5 -27 9 -61 23
-75 32 -25 14 -24 15 15 10 132 -17 150 -18 140 -8 -5 5 -62 15 -125 22 -134
14 -182 28 -105 30 38 1 45 4 30 10 -31 13 2 11 68 -4 31 -8 57 -10 57 -6 0 5
-8 11 -17 14 -10 3 11 3 47 0 123 -9 38 13 -142 37 -163 22 -199 35 -108 39
32 2 33 3 10 10 l-25 8 26 1 c23 1 199 -45 242 -64 9 -4 17 -3 17 2 0 6 -36
21 -80 34 -60 18 -74 25 -57 30 20 5 18 7 -13 17 -19 5 -28 11 -18 11 9 1 45
-8 80 -19 71 -22 78 -23 78 -12 0 10 -143 46 -252 63 -43 6 -75 16 -72 20 10
16 68 9 174 -21 120 -34 110 -32 110 -22 0 5 -33 17 -74 27 -46 12 -72 23 -70
30 3 6 -5 17 -18 23 -40 19 4 14 67 -8 32 -11 60 -18 63 -15 6 5 -61 35 -80
35 -9 0 -9 3 -1 11 9 9 18 8 37 -5 32 -21 58 -21 28 0 -14 9 -21 22 -18 32 4
12 -6 24 -32 39 -24 15 -31 22 -19 23 32 0 7 20 -26 20 -18 0 -50 9 -72 19
l-40 19 35 1 c57 1 113 -16 132 -41 13 -17 18 -19 18 -8 0 9 -5 21 -12 28 -9
9 -8 12 6 12 9 0 14 5 11 10 -3 6 -21 10 -40 10 -47 0 -53 18 -8 23 29 3 23 4
-22 6 -33 1 -69 6 -80 10 -18 8 -16 10 15 19 l35 9 -25 12 c-20 9 -10 10 50 5
42 -3 71 -2 67 2 -5 5 -34 11 -65 14 l-57 5 40 13 c22 8 46 16 54 18 8 2 11 7
8 10 -3 3 -40 -4 -82 -16 -51 -14 -87 -19 -108 -14 l-32 7 30 13 c17 7 44 13
62 14 23 0 31 4 27 14 -4 10 8 15 41 20 25 4 43 11 40 15 -2 5 -17 6 -32 4
-23 -4 -19 1 22 26 28 17 58 31 68 31 10 0 15 5 12 10 -4 6 -63 10 -146 10
-76 0 -139 4 -139 8 0 13 105 34 155 31 24 -2 47 0 51 4 4 4 -24 7 -62 7 -38
0 -76 5 -84 10 -13 9 -13 10 0 10 9 1 5 6 -10 16 -24 14 -22 15 38 11 43 -2
59 0 52 7 -6 6 -36 10 -68 11 l-57 0 33 23 c36 24 66 28 106 12 16 -6 26 -6
26 0 0 12 -66 30 -112 30 -20 0 -40 5 -43 10 -4 6 12 10 39 10 25 0 46 5 46
10 0 6 -26 10 -57 10 -47 1 -54 3 -39 12 12 6 42 8 80 4 41 -4 56 -3 46 4 -8
5 -25 10 -37 10 -16 0 -21 4 -17 15 5 13 2 14 -20 5 -14 -5 -40 -7 -56 -3 -28
5 -29 7 -13 18 10 7 27 15 38 18 11 2 -12 5 -52 6 -39 0 -74 5 -78 10 -7 13
96 25 141 16 24 -4 34 -3 29 4 -3 6 -18 11 -33 11 -15 0 -34 5 -42 10 -12 7
-8 10 15 11 17 0 39 4 50 9 18 8 17 9 -7 9 -14 1 -28 6 -30 12 -2 6 -46 13
-101 16 -93 6 -145 22 -75 24 29 1 28 2 -17 13 l-50 13 35 6 c19 4 55 8 80 10
33 3 28 4 -21 5 -45 1 -71 7 -79 17 -11 13 -8 15 18 15 17 0 34 5 38 11 5 9
-13 10 -65 5 -90 -9 -115 4 -41 21 l55 12 -67 -4 c-61 -5 -69 -3 -95 20 l-28
26 115 -4 c63 -3 153 -13 199 -22 68 -14 91 -15 122 -6 69 21 243 173 272 239
7 15 21 35 33 44 12 10 32 41 45 70 19 45 23 74 27 192 3 89 0 160 -8 195 -17
77 -76 200 -143 297 -31 45 -53 85 -50 88 4 3 17 6 30 6 12 0 23 4 23 9 0 5
-17 7 -38 4 -27 -4 -42 -1 -51 11 -12 14 -8 21 21 54 22 24 47 72 68 128 41
112 47 161 27 205 -9 19 -21 54 -27 79 -31 120 -423 825 -568 1020 -30 41 -99
120 -152 175 l-97 100 -6 80 c-4 44 -20 136 -37 204 -23 91 -31 142 -28 188 3
61 2 63 -24 69 -30 6 -29 -8 -13 179 3 38 0 56 -14 74 -18 23 -18 25 4 80 l23
56 -24 3 c-30 4 -30 11 1 102 30 87 29 81 9 73 -15 -5 -16 -1 -10 33 4 21 18
55 32 74 129 184 134 211 32 180z m-113 -1468 c-5 -41 -3 -53 21 -87 38 -58
135 -170 353 -414 105 -118 212 -245 237 -282 25 -37 88 -157 141 -265 80
-165 94 -200 84 -215 -6 -10 -11 -29 -11 -42 0 -17 -21 -42 -70 -86 -38 -35
-70 -59 -70 -55 0 4 14 29 31 56 41 68 29 73 -15 6 -37 -55 -47 -47 -21 16 8
20 11 36 7 36 -5 0 -16 -19 -26 -42 -15 -39 -17 -41 -33 -26 -15 16 -14 20 21
63 51 62 39 69 -12 8 -31 -35 -44 -45 -52 -37 -9 9 -6 23 10 54 12 23 19 44
16 47 -2 3 -14 -14 -26 -37 -31 -61 -35 -43 -5 25 14 31 24 62 22 68 -2 6 -16
-19 -32 -56 -16 -37 -35 -67 -42 -67 -17 0 -16 11 6 69 10 28 17 52 14 55 -3
2 -18 -10 -35 -27 l-30 -32 21 38 c11 20 16 37 11 37 -5 0 -19 -17 -29 -37
-31 -59 -36 -64 -54 -57 -24 9 -21 19 18 71 36 48 39 77 3 33 -12 -16 -18 -19
-14 -7 19 55 19 53 2 33 -8 -10 -23 -38 -33 -62 -17 -42 -35 -55 -48 -34 -4 6
1 44 10 85 9 41 15 80 12 87 -4 13 -37 -117 -37 -146 0 -9 -7 -16 -15 -16 -18
0 -18 -3 1 53 9 26 14 52 12 59 -3 7 -13 -12 -23 -42 -10 -30 -19 -56 -20 -58
-2 -2 -14 0 -29 4 -32 8 -34 34 -5 80 11 19 17 34 12 34 -13 0 -43 -55 -43
-79 0 -12 -5 -21 -11 -21 -7 0 -8 16 -3 45 4 30 3 45 -5 45 -6 0 -11 -18 -11
-41 0 -39 -1 -41 -26 -35 -15 4 -39 10 -55 13 -16 3 -29 6 -29 7 0 0 14 44 30
96 38 122 38 130 -4 45 -18 -39 -44 -79 -56 -90 l-23 -20 5 20 c3 11 22 58 42
105 43 98 39 97 -22 -3 -49 -81 -47 -63 9 68 l38 90 -38 -44 c-22 -24 -49 -65
-61 -92 -40 -85 -40 -42 0 54 33 80 61 181 47 167 -3 -3 -26 -54 -50 -115 -25
-60 -49 -108 -54 -105 -10 6 -10 36 0 70 6 19 2 16 -13 -10 -12 -19 -19 -28
-17 -20 2 8 7 26 11 40 l7 25 -20 -24 c-26 -29 -27 -18 -3 17 35 50 35 57 1
25 -19 -18 -39 -33 -43 -33 -4 0 9 29 29 65 20 36 34 65 31 65 -2 0 -21 -23
-42 -51 -32 -44 -39 -49 -51 -36 -13 13 -13 18 3 43 l18 29 -27 -24 c-25 -23
-27 -23 -27 -5 0 10 7 28 15 38 26 34 16 41 -14 12 -29 -28 -51 -28 -51 -2 0
8 -8 13 -17 12 -15 -1 -18 7 -17 43 1 39 -1 42 -13 26 -7 -11 -13 -25 -13 -32
0 -7 -4 -13 -10 -13 -5 0 -10 21 -10 46 0 27 -4 43 -10 39 -5 -3 -10 -20 -10
-36 0 -43 -20 -26 -21 19 l-2 37 -7 -40 c-5 -28 -8 -32 -9 -15 -2 23 -3 24
-15 7 -20 -26 -66 -5 -58 27 5 21 5 21 -16 2 -12 -11 -25 -16 -29 -12 -16 16
1 83 34 135 31 48 35 60 30 100 l-6 46 217 218 c119 119 218 217 220 217 2 0
1 -21 -3 -48z m-2055 -1224 c0 -13 -23 -5 -28 10 -2 7 2 10 12 6 9 -3 16 -11
16 -16z m2564 -60 c-9 -30 -10 -31 -24 -23 -8 5 -6 13 6 26 22 25 27 24 18 -3z
m-2916 -1545 c-10 -2 -26 -2 -35 0 -10 3 -2 5 17 5 19 0 27 -2 18 -5z m3125
-203 c5 -4 -16 -10 -45 -14 -29 -4 -63 -10 -75 -13 -14 -3 -23 -1 -23 6 0 6
10 11 23 12 20 1 19 2 -8 15 -28 13 -25 14 45 8 41 -4 79 -10 83 -14z m-3318
-29 c-18 -17 -65 -17 -65 -1 0 6 17 10 37 10 23 0 33 -4 28 -9z m3282 -7 c-3
-3 -12 -4 -19 -1 -8 3 -5 6 6 6 11 1 17 -2 13 -5z m-3320 -80 c6 -19 -45 -26
-69 -10 -20 14 -20 15 8 19 41 6 57 4 61 -9z m3341 -23 c10 -6 8 -10 -8 -14
-25 -6 -50 1 -50 14 0 11 41 11 58 0z m48 -96 c-21 -16 -36 -18 -60 -9 -31 12
-15 24 32 24 43 -1 46 -2 28 -15z m-3531 -95 c38 -22 46 -30 33 -35 -15 -6
-128 48 -128 61 0 13 52 0 95 -26z m64 24 c17 -4 31 -11 31 -16 0 -20 -34 -20
-74 0 -37 19 -39 21 -15 21 15 1 41 -2 58 -5z m3551 -109 c0 -2 -18 -14 -40
-25 -37 -19 -43 -19 -63 -5 -21 15 -21 15 11 15 20 0 31 4 27 10 -4 6 8 10 29
10 20 0 36 -2 36 -5z m37 -30 c-58 -35 -78 -41 -90 -28 -11 11 85 61 118 62
27 1 25 -2 -28 -34z m-3584 -82 c-7 -2 -21 -2 -30 0 -10 3 -4 5 12 5 17 0 24
-2 18 -5z m16 -17 c-2 -2 -33 -6 -69 -10 -44 -4 -60 -3 -50 4 14 9 129 15 119
6z m-29 -83 c-54 -6 -69 -14 -45 -23 16 -6 13 -9 -20 -15 -22 -3 -53 -11 -69
-16 -72 -23 -75 -3 -3 33 40 21 66 27 112 26 35 -1 45 -3 25 -5z m3513 -10
c-7 -2 -21 -2 -30 0 -10 3 -4 5 12 5 17 0 24 -2 18 -5z m62 -23 c27 -11 -59
-11 -95 0 -20 6 -14 8 25 8 28 0 59 -3 70 -8z m-3554 -19 c-27 -17 -142 -34
-153 -23 -7 7 3 12 33 16 24 3 55 7 69 10 51 7 66 6 51 -3z m3609 -87 c72 -38
74 -38 -57 -18 -47 7 -56 20 -20 27 12 2 3 5 -21 6 -26 0 -41 5 -37 11 12 20
71 8 135 -26z m-6 -45 c14 -14 -97 -6 -135 11 -19 8 -8 9 50 6 41 -3 79 -10
85 -17z m-3781 -26 c-7 -2 -19 -2 -25 0 -7 3 -2 5 12 5 14 0 19 -2 13 -5z
m140 -20 c-7 -2 -19 -2 -25 0 -7 3 -2 5 12 5 14 0 19 -2 13 -5z m3730 -200
c-7 -2 -19 -2 -25 0 -7 3 -2 5 12 5 14 0 19 -2 13 -5z m-3719 -72 c8 -13 -41
-31 -87 -31 -39 0 -40 1 -21 14 11 8 36 16 55 19 19 2 37 5 41 5 4 1 9 -2 12
-7z m-18 -80 c-6 -8 -83 -31 -107 -31 -24 0 1 13 48 26 59 16 66 16 59 5z
m3620 -45 c18 -14 18 -15 1 -22 -20 -7 -93 11 -102 26 -10 16 79 12 101 -4z
m-1 -81 c29 -13 29 -13 5 -14 -14 0 -38 6 -55 14 -29 13 -29 13 -5 14 14 0 39
-6 55 -14z"/>
</g>
</svg>
