<?xml version="1.0" standalone="no"?>
<!DOCTYPE svg PUBLIC "-//W3C//DTD SVG 20010904//EN"
 "http://www.w3.org/TR/2001/REC-SVG-20010904/DTD/svg10.dtd">
<svg version="1.0" xmlns="http://www.w3.org/2000/svg"
 width="1536.000000pt" height="568.000000pt" viewBox="0 0 1536.000000 568.000000"
 preserveAspectRatio="xMidYMid meet">
<metadata>
Created by potrace 1.16, written by Peter Selinger 2001-2019
</metadata>
<g transform="translate(0.000000,568.000000) scale(0.100000,-0.100000)"
fill="#000000" stroke="none">
<path d="M8840 5673 c-77 -4 -355 -39 -550 -68 -475 -71 -584 -89 -685 -116
-60 -16 -200 -51 -310 -79 -110 -28 -222 -59 -248 -71 -61 -25 -114 -27 -612
-15 -545 13 -1550 11 -1815 -3 -124 -7 -288 -21 -365 -32 -292 -41 -682 -119
-890 -178 -179 -52 -301 -92 -485 -161 -47 -18 -110 -41 -140 -52 -139 -50
-418 -179 -487 -226 -34 -23 -110 -81 -170 -128 -59 -48 -133 -103 -163 -122
-67 -43 -185 -94 -260 -112 -30 -7 -86 -26 -125 -42 -119 -48 -346 -103 -530
-128 -44 -6 -92 -13 -108 -16 -24 -5 -29 -2 -38 25 -14 39 -27 39 -41 1 -11
-33 -15 -35 -138 -51 -102 -13 -174 -40 -267 -102 -53 -35 -73 -56 -85 -84
-11 -30 -29 -47 -84 -79 -61 -37 -76 -41 -115 -37 -37 4 -46 2 -54 -15 -5 -10
-23 -38 -39 -61 -41 -58 -46 -127 -16 -217 32 -96 65 -160 119 -226 25 -31 77
-118 116 -192 232 -444 450 -731 688 -903 187 -137 297 -198 403 -226 49 -14
103 -31 120 -39 16 -9 46 -18 67 -22 46 -9 155 -52 253 -100 39 -19 111 -48
160 -65 49 -16 112 -39 139 -51 60 -27 362 -121 499 -156 55 -14 109 -30 120
-37 12 -6 62 -16 111 -23 50 -7 164 -28 255 -47 91 -19 194 -38 230 -42 119
-12 423 -76 464 -97 57 -29 90 -37 109 -27 9 5 25 5 40 0 29 -11 219 -52 261
-56 17 -1 56 -6 86 -10 30 -3 188 -13 350 -21 162 -8 356 -19 430 -24 100 -7
149 -7 190 2 30 7 89 12 130 13 l75 0 120 -81 c194 -131 588 -341 782 -417
215 -85 462 -147 643 -161 95 -8 84 6 -25 33 -73 17 -76 19 -37 20 45 1 51 21
7 21 -13 0 -27 5 -30 10 -3 6 -15 10 -25 10 -11 0 -27 8 -37 18 -10 10 -48 27
-85 36 -94 25 -149 63 -198 138 -24 35 -43 68 -45 73 -1 6 -7 23 -13 38 -7 15
-11 31 -10 35 4 19 -23 61 -43 67 l-23 8 23 18 c14 11 39 19 62 19 60 0 46 15
-37 40 -41 12 -74 23 -72 25 2 2 37 -3 78 -11 99 -20 217 -26 256 -12 27 10
38 7 84 -18 42 -23 70 -50 129 -129 42 -55 112 -136 157 -180 44 -44 118 -127
164 -185 111 -140 260 -286 395 -388 153 -116 372 -219 351 -167 -5 15 -1 16
34 10 32 -5 41 -3 46 9 3 9 12 16 19 16 22 0 25 30 5 47 -11 10 -20 28 -20 40
0 29 27 30 81 2 50 -25 72 -19 68 18 -2 16 0 34 4 41 5 6 6 16 2 21 -3 5 7 11
22 13 20 2 29 9 31 26 2 12 8 22 14 22 7 0 6 5 -1 14 -9 11 -9 15 0 18 6 2
-15 28 -47 58 -106 100 -116 111 -110 118 4 3 11 1 15 -6 10 -16 177 -112 195
-112 14 0 26 21 26 45 0 8 -37 49 -82 92 -45 43 -92 88 -105 100 -48 46 -20
40 60 -13 120 -82 155 -98 174 -83 9 8 13 23 10 38 -7 32 29 95 49 87 13 -5
24 4 62 48 7 7 2 19 -16 39 -29 31 -18 35 33 10 35 -17 35 -17 65 12 16 15 28
33 27 39 -1 6 11 12 26 14 20 2 27 8 23 18 -3 8 1 14 8 14 21 0 27 40 9 67
-22 33 -8 41 27 14 31 -22 56 -20 46 5 -8 22 4 44 25 44 12 0 16 5 12 15 -4
13 1 15 33 10 34 -5 43 -2 74 27 25 23 43 32 62 30 19 -2 28 2 32 15 3 11 25
26 49 35 27 10 42 21 41 32 -1 9 6 16 16 16 10 0 23 7 30 15 7 8 22 15 34 15
13 0 33 11 46 25 13 14 31 25 41 25 25 0 89 29 89 40 0 6 9 10 20 10 23 0 70
38 70 56 0 9 7 10 30 1 38 -14 61 3 43 32 -10 16 -8 17 27 8 31 -9 41 -8 55 6
9 9 24 18 33 18 9 1 24 2 32 3 8 0 15 8 15 16 0 8 17 18 40 25 23 5 61 22 86
37 28 16 54 25 67 22 13 -4 27 1 38 15 10 11 21 18 26 15 5 -3 23 4 42 15 18
12 42 21 53 21 24 0 58 35 48 50 -4 7 6 8 34 4 34 -5 41 -4 41 10 0 9 8 16 19
16 11 0 23 5 26 10 3 6 13 10 21 10 8 0 28 10 45 22 16 12 39 23 52 23 66 4
77 6 77 19 0 9 8 12 25 8 16 -3 27 1 31 11 3 9 19 19 36 22 16 4 41 13 56 21
15 8 36 14 48 14 28 0 74 23 74 36 0 6 -10 19 -22 28 l-23 17 25 -12 c14 -7
37 -20 52 -31 27 -18 55 -17 43 3 -8 12 31 53 43 45 6 -3 17 1 25 9 9 8 20 15
25 15 6 0 12 7 16 15 3 8 15 15 26 15 11 0 20 5 20 10 0 6 6 10 13 9 15 -3 66
10 93 23 12 5 32 7 44 3 17 -5 20 -4 15 5 -6 10 -1 11 19 6 19 -5 28 -2 32 8
3 8 12 12 20 9 8 -3 14 0 14 6 0 14 43 32 85 37 62 7 137 28 142 40 2 7 11 10
18 8 7 -3 16 -1 19 4 3 6 14 8 24 5 10 -2 34 7 55 21 21 14 42 26 47 26 6 0
15 9 22 20 8 12 24 20 40 20 16 0 28 4 28 10 0 5 16 12 35 16 36 6 45 18 23
28 -7 3 -2 3 10 0 21 -5 23 -3 17 15 -5 18 -2 21 19 21 14 0 26 4 26 10 0 5
11 12 25 16 14 3 25 10 25 15 0 5 10 14 23 20 49 22 68 38 104 85 20 27 43 53
50 57 7 4 30 23 50 42 32 29 38 40 37 75 -1 32 2 40 16 40 21 0 115 -95 197
-198 32 -41 104 -127 160 -193 56 -65 132 -162 170 -215 37 -52 88 -124 113
-158 25 -34 87 -123 139 -197 52 -74 113 -156 135 -184 23 -28 74 -100 114
-160 260 -394 512 -710 683 -856 46 -39 96 -82 111 -95 55 -47 225 -134 303
-155 99 -26 118 -14 63 37 -21 19 -34 34 -28 34 5 0 12 -4 15 -10 3 -5 14 -14
24 -19 21 -12 25 8 11 49 -5 14 -11 46 -14 73 -2 26 -11 60 -19 76 -15 31 -10
98 10 123 24 30 1 77 -88 177 -49 56 -87 101 -83 101 3 0 42 -31 87 -70 78
-66 82 -69 90 -47 5 12 11 42 12 67 2 25 4 45 5 45 1 0 3 10 4 22 2 16 -29 53
-121 145 -68 67 -123 126 -123 130 0 3 45 -24 99 -61 103 -70 177 -108 187
-98 3 3 -3 19 -14 34 -35 50 -82 140 -75 146 3 4 1 12 -4 19 -6 8 -7 22 -2 33
9 25 11 78 3 100 -4 9 -27 26 -53 39 -25 13 -66 43 -91 66 -30 28 -35 35 -15
22 52 -34 136 -73 150 -70 21 5 -11 73 -41 87 -14 6 -23 15 -19 20 10 17 -14
61 -39 71 -13 5 -25 13 -27 17 -2 5 -29 24 -60 41 -81 46 -96 70 -19 31 36
-18 73 -40 83 -48 16 -13 19 -13 34 2 15 15 15 17 0 23 -17 6 -77 87 -77 103
0 5 -7 11 -15 15 -8 3 -15 11 -15 19 0 7 -11 36 -25 65 -13 28 -22 58 -19 66
3 8 1 17 -5 21 -6 3 -11 14 -11 24 0 10 -6 24 -14 31 -8 6 -12 18 -9 26 3 8 1
20 -4 27 -6 6 -16 35 -23 62 -7 28 -17 54 -21 60 -5 5 -9 27 -9 50 0 23 -4 45
-8 51 -24 28 -30 62 -15 90 15 29 17 78 11 213 -3 62 -1 78 14 93 10 10 22 18
26 18 5 0 15 12 23 28 8 15 18 30 24 34 5 4 10 11 10 15 1 19 31 53 46 53 9 0
19 9 22 20 3 12 14 20 25 20 11 0 30 11 43 25 13 13 30 25 37 25 7 0 30 8 51
19 34 16 43 17 77 5 29 -10 47 -10 81 -1 24 6 43 15 43 19 0 4 8 8 18 8 10 0
29 11 42 25 13 14 29 25 35 25 7 0 29 14 50 30 21 17 46 30 56 30 11 0 19 4
19 9 0 5 10 13 23 17 12 4 41 20 65 37 31 22 55 31 86 32 38 0 48 6 86 48 24
26 52 47 62 47 10 0 22 8 25 18 9 21 43 51 61 52 6 0 12 4 12 9 0 5 16 19 35
31 33 20 65 68 65 97 0 7 11 23 25 35 14 12 25 26 25 32 0 6 12 22 25 35 25
23 33 55 17 65 -5 3 -7 21 -6 40 2 27 -1 36 -17 41 -10 4 -17 11 -13 16 3 5
10 7 15 3 6 -3 19 3 30 15 19 20 19 22 2 27 -10 3 -27 10 -38 15 -18 8 -18 9
5 8 58 -3 76 1 60 11 -13 8 -12 10 3 10 40 0 4 17 -73 35 -44 10 -80 22 -80
27 0 5 8 7 18 4 9 -3 50 -8 90 -12 68 -6 72 -5 72 14 0 13 -9 22 -27 27 -21 5
-24 8 -13 15 15 9 -3 20 -55 33 -13 3 -9 5 13 6 17 0 32 4 31 9 -1 16 -65 57
-124 78 -128 47 -223 59 -465 59 -281 0 -472 -26 -895 -124 -112 -26 -476 -86
-610 -101 -55 -7 -233 -13 -395 -15 -162 -2 -338 -9 -390 -14 -149 -16 -222
-13 -328 13 -53 13 -137 32 -187 41 -49 9 -111 26 -138 37 l-48 21 36 32 c63
59 93 156 60 202 -36 52 -260 62 -419 20 -127 -35 -216 -36 -311 -3 -576 194
-663 220 -1305 385 -80 21 -262 62 -355 81 -55 11 -118 25 -140 31 -94 25
-201 49 -305 68 -25 5 -85 17 -135 26 -49 9 -103 23 -120 31 -16 7 -65 18
-108 24 -44 5 -152 26 -241 45 -90 19 -169 35 -177 35 -43 0 -91 23 -100 47
-16 43 0 48 98 30 131 -24 276 -27 313 -7 10 5 46 10 80 10 61 0 150 24 225
60 22 11 63 23 90 27 47 8 52 11 75 56 17 32 33 50 50 54 14 3 30 10 35 17 6
6 19 16 30 22 11 6 26 23 33 37 7 14 25 35 40 46 15 11 34 26 42 34 8 7 34 22
57 32 40 19 42 23 49 72 9 72 -2 117 -35 153 -24 27 -37 32 -112 40 -79 9
-204 10 -329 3z m-8470 -1843 c4 -8 12 -25 19 -38 14 -28 3 -34 -72 -36 -49
-1 -52 0 -52 24 0 16 11 31 34 47 38 26 60 26 71 3z m6281 -2512 c22 -18 103
-148 96 -154 -3 -3 -57 6 -120 20 -63 14 -117 26 -121 26 -18 0 -1 35 37 75
45 47 79 57 108 33z"/>
</g>
</svg>
