<?xml version="1.0" standalone="no"?>
<!DOCTYPE svg PUBLIC "-//W3C//DTD SVG 20010904//EN"
 "http://www.w3.org/TR/2001/REC-SVG-20010904/DTD/svg10.dtd">
<svg version="1.0" xmlns="http://www.w3.org/2000/svg"
 width="1106.000000pt" height="509.000000pt" viewBox="0 0 1106.000000 509.000000"
 preserveAspectRatio="xMidYMid meet">
<metadata>
Created by potrace 1.16, written by Peter Selinger 2001-2019
</metadata>
<g transform="translate(0.000000,509.000000) scale(0.100000,-0.100000)"
fill="#000000" stroke="none">
<path d="M6123 4980 c-204 -95 -216 -102 -343 -207 l-132 -108 -174 -419 c-96
-231 -175 -420 -176 -420 -20 -7 -673 15 -818 28 -172 15 -253 16 -680 7
l-485 -10 -230 -65 c-126 -36 -279 -75 -340 -86 -60 -12 -118 -24 -129 -27
-13 -4 -16 -1 -11 7 6 10 2 11 -16 7 -13 -3 -242 -40 -509 -82 l-485 -77 -340
-178 c-187 -98 -412 -214 -500 -258 l-160 -80 -145 -180 c-80 -100 -147 -188
-148 -197 -2 -9 5 -27 16 -38 26 -30 113 -199 98 -194 -6 3 -69 41 -141 85
l-130 81 -70 -39 -70 -39 -3 -189 -2 -188 85 -112 c47 -61 90 -114 95 -117 6
-4 51 -10 101 -16 l91 -9 396 -269 397 -268 430 -177 430 -176 170 0 c163 0
174 -1 261 -30 l91 -31 -85 -295 -86 -295 95 -95 94 -94 38 38 c32 32 54 80
152 332 63 161 115 299 115 307 0 15 18 15 83 0 l48 -12 -59 -58 -59 -58 18
-100 18 -100 -24 -68 c-14 -38 -25 -73 -25 -78 0 -6 43 -59 95 -118 75 -86 94
-112 89 -130 -5 -21 -1 -23 51 -30 31 -3 146 -6 256 -6 l198 0 206 77 205 76
0 219 c0 203 1 219 18 219 10 0 132 -9 272 -21 140 -11 294 -19 343 -17 49 2
87 -1 87 -6 0 -5 -14 -62 -31 -127 l-31 -117 38 -66 c34 -58 42 -66 69 -67 16
0 91 -4 165 -8 130 -7 142 -10 302 -66 l168 -58 107 101 c60 55 119 112 132
126 l24 26 -36 81 c-21 44 -37 86 -37 93 0 8 9 25 20 39 11 14 20 29 20 34 0
5 -52 38 -115 74 l-115 64 228 5 c208 5 235 8 322 33 52 15 104 27 115 27 13
0 149 -129 386 -366 l365 -365 364 61 364 62 46 36 c25 21 113 92 196 160
l151 122 38 138 37 138 -116 232 c-108 216 -118 231 -148 240 -18 5 -131 33
-250 63 -119 29 -216 55 -214 56 2 2 324 -3 717 -12 l714 -15 57 -62 c32 -35
56 -68 55 -75 -1 -8 1186 -1051 1346 -1182 15 -12 30 -9 110 19 50 18 97 38
104 44 6 6 108 180 227 388 l215 376 75 264 c55 196 88 342 130 572 l57 308
-9 297 -10 296 -90 340 -90 340 -157 269 c-86 148 -158 275 -159 283 -1 8 -10
23 -20 35 -10 12 -43 63 -73 115 -38 63 -59 91 -67 85 -7 -4 -235 -150 -507
-324 -447 -286 -502 -324 -569 -395 -41 -43 -152 -158 -247 -255 l-172 -177
-78 -7 c-73 -6 -128 4 -833 141 -415 80 -817 160 -893 176 -76 16 -141 29
-145 29 -4 0 108 52 248 116 140 64 256 117 257 118 2 1 14 83 29 181 l26 179
-93 195 c-51 108 -122 255 -157 328 l-63 132 -278 239 c-153 132 -287 244
-298 251 -27 14 -262 101 -271 100 -4 0 -102 -45 -219 -99z"/>
</g>
</svg>
