<?xml version="1.0" standalone="no"?>
<!DOCTYPE svg PUBLIC "-//W3C//DTD SVG 20010904//EN"
 "http://www.w3.org/TR/2001/REC-SVG-20010904/DTD/svg10.dtd">
<svg version="1.0" xmlns="http://www.w3.org/2000/svg"
 width="316.000000pt" height="221.000000pt" viewBox="0 0 316.000000 221.000000"
 preserveAspectRatio="xMidYMid meet">
<metadata>
Created by potrace 1.16, written by Peter Selinger 2001-2019
</metadata>
<g transform="translate(0.000000,221.000000) scale(0.100000,-0.100000)"
fill="#000000" stroke="none">
<path d="M1215 2191 c-79 -23 -99 -37 -168 -119 -53 -64 -64 -72 -135 -98 -64
-23 -87 -38 -135 -86 -46 -47 -69 -62 -117 -77 -81 -25 -119 -57 -168 -138
-78 -128 -87 -223 -37 -373 16 -50 25 -98 25 -143 0 -39 6 -80 14 -96 14 -26
79 -91 122 -121 18 -13 21 -25 20 -81 -1 -60 2 -70 37 -124 l39 -57 -51 -52
c-27 -28 -62 -77 -77 -110 -23 -51 -26 -67 -22 -136 4 -76 6 -80 57 -149 87
-117 135 -154 252 -191 78 -25 111 -31 147 -27 103 12 181 54 260 138 33 35
43 38 200 49 111 7 129 12 202 46 107 50 154 101 207 224 22 52 43 103 46 113
4 9 12 19 19 21 7 2 42 12 78 22 77 22 187 92 215 137 60 97 73 122 68 129 -3
5 -21 -19 -41 -53 -67 -114 -141 -168 -286 -208 -64 -18 -73 -18 -120 -4 -28
8 -64 25 -81 36 -16 11 -31 21 -32 22 -2 1 -16 48 -33 104 -17 57 -44 129 -61
160 -59 111 -80 146 -94 154 -12 6 -9 20 20 76 46 93 98 134 217 174 88 30
101 31 242 31 l150 -1 39 -44 c21 -24 51 -64 65 -89 25 -41 27 -54 27 -150 0
-58 -3 -124 -8 -148 -11 -60 9 -53 22 8 17 80 14 203 -7 258 -18 45 -93 153
-113 160 -11 4 -12 29 -1 34 4 2 22 26 41 53 l33 50 -5 107 c-4 91 -8 113 -31
154 -14 25 -26 53 -26 61 0 32 -158 169 -211 183 -21 6 -57 13 -81 16 -24 3
-48 7 -55 9 -24 8 -142 -37 -185 -69 l-45 -35 -22 54 c-29 70 -119 156 -193
183 -80 30 -153 34 -223 13z m235 -38 c73 -35 134 -98 165 -168 l26 -57 -28
-37 c-15 -20 -35 -44 -45 -55 -9 -10 -29 -42 -45 -71 l-27 -53 -97 93 c-108
103 -160 133 -289 167 -47 12 -87 23 -89 24 -6 5 31 57 77 106 41 44 74 61
157 82 42 10 141 -5 195 -31z m445 -133 c3 -5 -2 -10 -11 -10 -27 0 -4 -16 34
-23 34 -7 40 0 20 22 -11 11 -6 12 27 6 61 -10 102 -33 166 -92 77 -72 124
-165 141 -277 10 -74 10 -89 -5 -128 -10 -25 -33 -63 -52 -85 l-34 -40 -63 9
c-63 9 -192 5 -236 -8 -18 -5 -21 -3 -16 10 5 12 0 16 -19 16 -48 0 -82 -23
-78 -52 0 -4 -14 -12 -33 -18 -28 -9 -39 -7 -79 16 -26 14 -65 47 -87 72 -36
42 -38 47 -20 50 29 5 69 92 43 92 -29 -1 -53 -16 -63 -41 -7 -16 -16 -26 -21
-23 -11 7 -12 64 -1 64 5 0 14 10 20 23 8 17 11 18 11 5 1 -26 13 -22 39 15
20 29 22 30 22 9 0 -27 27 -30 46 -4 13 15 14 15 11 -8 -2 -21 3 -26 27 -28
32 -4 46 10 46 47 0 21 -4 23 -35 19 -23 -3 -35 0 -35 8 0 20 -44 26 -57 7
-12 -16 -13 -16 -13 0 0 21 -13 22 -30 2 -17 -21 -30 -19 -25 5 2 11 0 20 -6
20 -5 0 -9 -7 -9 -16 0 -8 -4 -12 -10 -9 -9 6 34 105 46 105 3 0 2 -6 -2 -12
-4 -7 6 -1 22 14 15 15 25 31 21 34 -4 4 -14 -1 -23 -12 -15 -19 -15 -18 -5 2
16 34 142 164 175 181 30 16 108 40 133 42 6 1 15 -3 18 -9z m-789 -66 c135
-38 170 -59 282 -168 l103 -100 -6 -91 c-5 -67 -14 -105 -35 -151 -33 -72 -68
-94 -193 -119 l-77 -17 -93 36 c-50 20 -140 48 -200 63 l-107 27 -33 50 c-31
49 -32 54 -31 156 1 149 6 167 67 231 38 40 70 62 117 81 81 34 97 34 206 2z
m-405 -225 c-20 -93 -14 -165 19 -231 21 -41 26 -60 18 -63 -7 -2 -38 -11 -69
-19 -67 -19 -95 -40 -145 -108 l-38 -51 -23 74 c-28 92 -29 142 -2 229 36 120
121 216 209 237 42 11 46 3 31 -68z m843 -288 c28 -35 67 -69 97 -86 l50 -27
-40 -31 c-25 -19 -54 -57 -76 -99 -20 -37 -38 -68 -40 -68 -2 0 -27 15 -56 33
-49 30 -58 32 -133 30 l-81 -1 -33 49 c-22 34 -28 51 -20 53 7 3 46 12 86 21
98 23 131 47 167 122 17 34 30 62 31 62 0 1 22 -25 48 -58z m-661 -51 c102
-26 238 -73 284 -98 7 -5 29 -30 48 -56 l34 -48 -57 -38 c-53 -35 -71 -54
-165 -186 -27 -37 -45 -53 -68 -58 -53 -10 -140 -6 -227 12 -72 15 -90 23
-144 67 -73 59 -88 91 -88 185 0 67 3 75 40 130 44 64 70 82 152 104 70 19 57
20 191 -14z m608 -257 c49 -31 69 -53 110 -120 61 -100 74 -131 111 -262 33
-119 33 -117 -38 -266 -33 -70 -60 -110 -122 -176 l-80 -85 -71 -11 -71 -11
-107 43 c-87 36 -116 54 -160 97 -56 55 -103 149 -119 238 -10 55 -10 59 5
143 16 93 42 154 102 244 118 175 186 218 327 208 41 -3 68 -13 113 -42z
m-722 -239 c54 -10 109 -14 147 -11 l62 6 -23 -68 c-13 -37 -26 -93 -30 -125
l-8 -59 -51 6 c-95 11 -124 25 -161 75 -19 26 -40 63 -46 84 -13 40 -4 108 13
108 6 0 50 -7 97 -16z m21 -254 c36 -11 79 -20 96 -20 30 0 32 -2 44 -61 37
-174 128 -274 308 -339 l63 -23 -38 -39 c-62 -64 -117 -97 -198 -117 l-76 -19
-107 33 c-125 40 -158 64 -239 173 -55 75 -57 79 -61 153 -4 66 -1 84 20 130
19 42 106 149 120 149 2 0 32 -9 68 -20z m1020 -10 c22 -11 44 -20 49 -20 5 0
22 -4 36 -10 l26 -10 -45 -59 c-64 -82 -114 -123 -185 -148 -34 -12 -61 -20
-61 -18 0 2 13 24 28 48 25 40 55 106 92 205 7 17 14 32 17 32 2 0 21 -9 43
-20z m46 -187 c-68 -133 -148 -188 -333 -226 -13 -3 -23 -3 -23 0 0 2 21 29
48 59 35 40 59 58 97 70 84 28 160 71 191 108 41 49 49 44 20 -11z"/>
<path d="M2009 1970 c13 -11 31 -20 40 -20 12 1 11 5 -8 20 -13 11 -31 20 -40
20 -12 -1 -11 -5 8 -20z"/>
<path d="M1777 1973 c-25 -24 18 -32 49 -8 18 14 17 14 -12 15 -17 0 -34 -3
-37 -7z"/>
<path d="M1851 1956 c-10 -12 -7 -18 13 -31 30 -20 46 -13 46 21 0 19 -5 24
-24 24 -13 0 -29 -6 -35 -14z"/>
<path d="M1942 1954 c9 -9 24 -14 32 -11 27 11 17 27 -16 27 -30 0 -31 -1 -16
-16z"/>
<path d="M1710 1945 c-16 -19 0 -19 26 0 16 12 16 14 3 15 -9 0 -22 -7 -29
-15z"/>
<path d="M1731 1925 c-20 -7 -29 -15 -23 -19 8 -5 3 -15 -16 -31 -29 -26 -20
-31 22 -15 14 5 26 15 26 21 0 7 7 21 17 31 21 24 15 27 -26 13z"/>
<path d="M2060 1920 c11 -21 58 -45 68 -35 9 9 -41 55 -60 55 -16 0 -17 -3 -8
-20z"/>
<path d="M1782 1909 c-12 -19 -11 -20 25 -17 27 2 39 8 41 21 5 26 -49 23 -66
-4z"/>
<path d="M1942 1918 c3 -7 13 -15 22 -16 12 -3 17 1 14 10 -3 7 -13 15 -22 16
-12 3 -17 -1 -14 -10z"/>
<path d="M2005 1920 c-9 -15 4 -30 26 -30 17 0 18 3 9 20 -12 22 -25 26 -35
10z"/>
<path d="M1822 1876 l-34 -13 25 -16 c23 -15 26 -15 39 1 38 44 31 50 -30 28z"/>
<path d="M1922 1868 c2 -18 10 -23 33 -23 17 -1 40 -4 53 -9 27 -9 31 14 6 38
-20 20 -44 21 -44 1 0 -8 -4 -15 -9 -15 -5 0 -11 7 -15 15 -9 23 -28 18 -24
-7z"/>
<path d="M1622 1860 c-18 -29 -15 -32 13 -14 27 18 33 34 12 34 -7 0 -18 -9
-25 -20z"/>
<path d="M2045 1870 c-7 -12 30 -50 50 -50 18 0 18 2 3 35 -11 25 -41 34 -53
15z"/>
<path d="M2130 1870 c-7 -4 -9 -13 -6 -19 10 -16 46 -14 46 3 0 17 -23 27 -40
16z"/>
<path d="M1725 1843 l-30 -17 30 -6 30 -6 -32 -17 c-43 -23 -42 -37 1 -37 26
0 36 5 41 20 9 27 25 25 22 -2 -2 -19 4 -24 29 -26 20 -2 31 2 32 10 0 7 2 22
4 33 2 17 -3 20 -32 22 -19 1 -40 2 -47 2 -6 1 -9 10 -6 21 6 24 -2 25 -42 3z"/>
<path d="M1877 1853 c-15 -14 -7 -43 12 -43 26 0 36 17 21 35 -14 16 -23 19
-33 8z"/>
<path d="M1636 1821 c-17 -19 -17 -20 3 -30 16 -9 22 -8 31 8 22 42 -2 58 -34
22z"/>
<path d="M2032 1813 c5 -19 4 -19 -24 -5 -37 18 -53 6 -39 -31 8 -20 18 -27
36 -27 14 0 25 4 25 8 0 4 15 6 34 4 19 -2 37 1 41 8 9 15 -21 45 -54 55 -20
6 -23 4 -19 -12z"/>
<path d="M1907 1802 c-24 -26 -21 -41 9 -48 35 -9 51 8 36 41 -14 30 -23 31
-45 7z"/>
<path d="M2130 1790 c0 -23 5 -30 19 -30 20 0 37 32 26 50 -3 5 -15 10 -26 10
-14 0 -19 -7 -19 -30z"/>
<path d="M2197 1803 c-4 -3 -7 -16 -7 -28 0 -25 25 -51 34 -37 8 13 -18 74
-27 65z"/>
<path d="M1571 1746 c-32 -52 -25 -64 15 -25 29 27 34 29 24 11 -15 -31 -6
-39 31 -25 27 11 29 10 24 -8 -5 -16 -1 -19 23 -19 21 0 32 7 41 26 6 14 9 30
6 35 -9 13 -52 11 -59 -3 -3 -7 -4 0 -1 16 5 25 4 27 -12 21 -37 -15 -53 -17
-53 -6 0 21 -19 11 -39 -23z"/>
<path d="M1852 1734 c-30 -21 -30 -70 0 -80 15 -4 26 -1 36 12 14 18 14 18 8
1 -8 -25 10 -57 33 -57 12 0 23 11 30 30 14 41 -1 80 -30 80 -13 0 -30 7 -39
15 -14 13 -19 13 -38 -1z"/>
<path d="M2087 1737 c-3 -7 1 -26 8 -42 11 -25 14 -27 20 -12 8 20 -1 67 -14
67 -5 0 -11 -6 -14 -13z"/>
<path d="M1763 1732 c-21 -13 -26 -59 -8 -69 15 -9 15 -11 1 -22 -9 -8 -16
-27 -16 -43 0 -29 1 -30 40 -26 33 3 40 0 40 -14 0 -10 4 -18 9 -18 16 0 81
41 81 51 0 17 -40 49 -54 43 -17 -7 -71 26 -58 35 5 3 13 21 17 39 6 29 4 32
-17 32 -13 0 -28 -4 -35 -8z"/>
<path d="M1974 1729 c-9 -15 12 -33 30 -26 9 4 16 13 16 22 0 17 -35 21 -46 4z"/>
<path d="M2040 1716 c0 -24 25 -54 37 -43 8 8 -17 67 -28 67 -5 0 -9 -11 -9
-24z"/>
<path d="M2130 1732 c0 -18 33 -52 51 -52 25 0 25 36 0 50 -23 12 -51 13 -51
2z"/>
<path d="M2220 1684 c0 -26 28 -84 41 -84 7 0 -4 64 -16 93 -11 25 -25 21 -25
-9z"/>
<path d="M1976 1655 c-11 -30 -6 -45 15 -45 16 0 20 5 17 27 -3 31 -23 41 -32
18z"/>
<path d="M2097 1638 c-13 -19 -16 -20 -16 -5 -2 37 -51 2 -51 -37 0 -20 5 -26
21 -26 12 0 23 8 26 20 6 24 19 26 27 5 8 -22 23 -18 42 10 13 20 14 28 4 40
-18 21 -35 19 -53 -7z"/>
<path d="M2181 1619 c-24 -23 -25 -64 -1 -65 8 0 25 8 37 19 18 16 20 23 11
43 -14 29 -18 30 -47 3z"/>
<path d="M1615 1560 c-20 -39 -20 -64 1 -56 9 3 20 6 25 6 17 0 31 51 18 66
-17 21 -27 17 -44 -16z"/>
<path d="M1942 1570 c-17 -28 -16 -70 3 -70 17 0 65 46 65 62 0 6 -41 28 -53
28 -1 0 -8 -9 -15 -20z"/>
<path d="M1693 1568 c-9 -11 -33 -74 -33 -84 0 -2 8 -4 18 -4 10 0 32 15 50
34 l32 35 -22 15 c-27 19 -33 20 -45 4z"/>
<path d="M2233 1557 c-11 -14 -28 -24 -42 -23 -19 1 -26 -6 -32 -28 -12 -42
-1 -46 27 -11 23 29 24 30 24 6 0 -20 2 -21 15 -11 14 12 38 80 31 87 -2 2
-12 -7 -23 -20z"/>
<path d="M2017 1542 c-20 -22 -22 -42 -4 -42 19 0 69 44 61 53 -13 13 -41 7
-57 -11z"/>
<path d="M1861 1541 c-19 -12 -4 -31 25 -31 17 0 24 5 24 20 0 21 -24 27 -49
11z"/>
<path d="M1736 1507 c-30 -39 -32 -47 -10 -47 21 0 84 49 84 66 0 28 -48 15
-74 -19z"/>
<path d="M2105 1530 c-12 -4 -27 -15 -34 -24 -11 -13 -10 -17 14 -26 14 -5 30
-10 35 -10 6 0 30 52 30 66 0 6 -24 3 -45 -6z"/>
<path d="M1866 1469 l-18 -31 23 7 c62 19 86 55 36 55 -15 0 -29 -11 -41 -31z"/>
<path d="M1783 1473 c-28 -19 -31 -53 -4 -53 33 0 51 11 67 41 14 29 14 29
-13 28 -16 0 -38 -7 -50 -16z"/>
<path d="M1597 1474 c-14 -14 -7 -43 15 -58 20 -14 24 -14 40 1 29 26 19 57
-17 61 -17 2 -34 0 -38 -4z"/>
<path d="M1972 1468 c-7 -7 -12 -20 -12 -30 0 -14 8 -18 38 -18 20 1 48 7 60
14 l24 13 -35 16 c-42 20 -59 21 -75 5z"/>
<path d="M2177 1463 c-11 -10 -8 -53 3 -53 13 0 32 38 25 50 -7 12 -19 13 -28
3z"/>
<path d="M2118 1448 c-31 -11 -36 -23 -12 -32 29 -11 42 -6 46 19 6 28 5 28
-34 13z"/>
<path d="M1704 1442 c-33 -22 -41 -82 -11 -82 21 0 59 46 55 66 -4 20 -26 29
-44 16z"/>
</g>
</svg>
