<?xml version="1.0" standalone="no"?>
<!DOCTYPE svg PUBLIC "-//W3C//DTD SVG 20010904//EN"
 "http://www.w3.org/TR/2001/REC-SVG-20010904/DTD/svg10.dtd">
<svg version="1.0" xmlns="http://www.w3.org/2000/svg"
 width="1536.000000pt" height="1041.000000pt" viewBox="0 0 1536.000000 1041.000000"
 preserveAspectRatio="xMidYMid meet">
<metadata>
Created by potrace 1.16, written by Peter Selinger 2001-2019
</metadata>
<g transform="translate(0.000000,1041.000000) scale(0.100000,-0.100000)"
fill="#000000" stroke="none">
<path d="M7643 10390 c-18 -10 -71 -55 -119 -100 -47 -44 -90 -80 -95 -80 -5
0 -9 21 -9 48 0 66 -11 80 -44 58 -62 -40 -144 -139 -253 -304 -64 -97 -129
-194 -146 -214 l-29 -38 -78 0 -78 0 -6 -34 c-11 -56 -59 -90 -167 -116 -777
-189 -1752 -630 -2534 -1145 -304 -200 -517 -368 -725 -571 -106 -103 -137
-127 -201 -156 -202 -93 -381 -210 -797 -525 l-297 -224 -22 -60 c-25 -71 -15
-60 -89 -107 -87 -56 -232 -181 -320 -275 -146 -157 -248 -291 -597 -782 -176
-249 -296 -401 -409 -522 -43 -45 -78 -90 -78 -100 0 -10 -23 -62 -50 -116
-28 -55 -50 -105 -50 -112 0 -7 -13 -16 -29 -20 -68 -15 -151 -123 -175 -227
-9 -41 42 -98 164 -182 103 -72 146 -119 165 -185 7 -23 6 -23 -31 -16 -22 3
-93 27 -159 52 -96 36 -137 47 -202 51 -111 6 -125 1 -152 -53 -51 -102 -35
-183 51 -260 62 -56 138 -100 327 -191 l144 -69 192 -215 c220 -246 377 -402
486 -482 76 -56 245 -158 263 -158 21 0 124 -90 190 -166 39 -45 146 -184 237
-310 197 -271 284 -373 390 -457 152 -122 297 -172 478 -165 58 3 138 13 177
23 l70 17 205 -132 c331 -216 569 -354 824 -480 256 -126 401 -187 610 -256
72 -23 133 -49 137 -56 4 -7 36 -76 71 -153 76 -170 155 -312 258 -465 75
-112 207 -277 266 -332 l29 -28 64 38 c121 71 267 236 325 365 53 122 70 279
41 400 -16 67 -33 63 154 42 342 -38 519 -87 664 -183 39 -26 73 -48 76 -50 3
-1 11 11 18 26 7 16 37 46 68 67 30 21 60 47 65 58 10 18 13 17 52 -21 249
-240 746 -292 1481 -155 132 25 146 25 285 15 173 -13 206 -8 451 66 91 28
221 66 290 86 170 50 314 104 510 194 91 41 191 85 222 97 35 14 70 38 90 60
53 61 124 108 323 211 206 109 267 155 284 219 6 22 18 51 27 64 15 20 22 23
60 17 58 -8 82 13 185 167 134 198 182 258 272 335 105 90 132 129 148 212 17
93 23 102 67 98 35 -3 38 -1 79 67 60 99 252 486 314 635 121 291 159 429 159
577 -1 171 -49 311 -141 408 l-52 55 99 0 c206 0 491 -50 720 -126 192 -63
387 -152 698 -317 149 -80 317 -168 372 -195 368 -184 681 -263 1037 -261 157
0 281 10 293 22 4 4 11 91 16 193 4 102 26 402 48 667 61 741 72 1034 50 1362
-18 254 -65 550 -92 566 -21 14 -139 10 -203 -6 -33 -9 -94 -29 -135 -45 -41
-16 -113 -34 -160 -40 -275 -36 -530 -140 -935 -385 -514 -310 -721 -404
-1024 -465 -135 -27 -338 -41 -473 -33 -125 7 -125 6 -8 83 70 46 81 57 95 99
50 152 59 346 24 528 -11 60 -62 233 -114 388 -103 309 -142 465 -151 606 -8
108 -44 223 -129 411 -161 355 -388 675 -832 1175 -141 158 -145 162 -191 168
-100 13 -103 14 -96 41 4 17 -1 33 -21 56 -17 20 -25 40 -22 54 3 19 -1 23
-39 29 -73 11 -154 60 -269 165 -202 184 -263 215 -634 325 -123 36 -285 89
-360 117 -193 72 -366 125 -511 155 -106 22 -150 27 -290 27 -195 0 -211 -5
-335 -94 -80 -59 -164 -100 -204 -100 -15 0 -22 15 -36 83 -16 78 -16 87 -1
139 9 31 16 58 16 60 0 1 -19 3 -42 3 -47 0 -50 7 -35 85 11 55 -6 70 -70 61
-48 -7 -51 -6 -39 8 8 9 18 37 24 63 13 64 -1 77 -64 60 -80 -22 -102 11 -44
63 31 28 52 80 44 111 -6 25 -9 26 -53 19 -117 -17 -121 -17 -126 -3 -3 8 6
34 19 59 29 50 33 87 11 95 -8 3 -36 -1 -62 -10 -53 -18 -119 -21 -128 -6 -3
6 8 37 26 69 29 52 31 63 21 85 -14 31 -18 32 -59 6z"/>
</g>
</svg>
