<?xml version="1.0" standalone="no"?>
<!DOCTYPE svg PUBLIC "-//W3C//DTD SVG 20010904//EN"
 "http://www.w3.org/TR/2001/REC-SVG-20010904/DTD/svg10.dtd">
<svg version="1.0" xmlns="http://www.w3.org/2000/svg"
 width="571.000000pt" height="328.000000pt" viewBox="0 0 571.000000 328.000000"
 preserveAspectRatio="xMidYMid meet">
<metadata>
Created by potrace 1.16, written by Peter Selinger 2001-2019
</metadata>
<g transform="translate(0.000000,328.000000) scale(0.100000,-0.100000)"
fill="#000000" stroke="none">
<path d="M2475 3274 c-277 -16 -377 -31 -800 -119 -424 -88 -558 -127 -810
-235 -66 -28 -212 -90 -325 -137 -238 -98 -322 -145 -380 -210 -78 -90 -160
-298 -160 -410 0 -84 47 -268 109 -428 65 -169 196 -364 399 -596 255 -292
485 -472 786 -619 503 -245 1149 -427 1721 -485 455 -46 941 -46 1210 0 360
62 848 237 1062 383 159 108 269 277 356 547 90 280 87 400 -14 728 -44 143
-89 247 -141 328 -83 129 -195 210 -743 534 -385 228 -554 320 -719 391 -198
84 -749 259 -966 306 -77 17 -136 21 -310 23 -118 1 -242 1 -275 -1z"/>
</g>
</svg>
