<?xml version="1.0" standalone="no"?>
<!DOCTYPE svg PUBLIC "-//W3C//DTD SVG 20010904//EN"
 "http://www.w3.org/TR/2001/REC-SVG-20010904/DTD/svg10.dtd">
<svg version="1.0" xmlns="http://www.w3.org/2000/svg"
 width="760.000000pt" height="1536.000000pt" viewBox="0 0 760.000000 1536.000000"
 preserveAspectRatio="xMidYMid meet">
<metadata>
Created by potrace 1.16, written by Peter Selinger 2001-2019
</metadata>
<g transform="translate(0.000000,1536.000000) scale(0.100000,-0.100000)"
fill="#000000" stroke="none">
<path d="M1334 15325 c-27 -18 -66 -46 -86 -60 -20 -15 -65 -36 -100 -48 l-63
-22 -6 -74 c-5 -63 -9 -77 -30 -92 -68 -51 -81 -64 -98 -98 -10 -20 -28 -66
-39 -103 -33 -107 -46 -125 -112 -158 -47 -23 -61 -36 -65 -58 -27 -138 -62
-209 -139 -285 l-59 -57 7 -98 c3 -53 8 -111 12 -129 6 -30 4 -33 -47 -59 -72
-36 -123 -77 -150 -120 -28 -47 -22 -103 20 -169 25 -40 33 -68 41 -135 9 -80
6 -130 -9 -130 -4 0 -20 14 -36 30 -38 40 -77 40 -116 1 -50 -50 -32 -103 60
-181 28 -24 51 -46 51 -49 0 -4 -27 -17 -60 -30 -33 -13 -60 -26 -60 -28 0 -2
11 -21 25 -42 37 -60 41 -86 14 -105 -13 -9 -41 -16 -61 -16 -32 0 -40 -4 -48
-26 -15 -38 -12 -111 5 -145 9 -16 20 -61 25 -101 5 -45 16 -81 29 -99 26 -35
27 -81 2 -103 -11 -10 -46 -28 -78 -41 -67 -27 -92 -55 -100 -113 -7 -55 15
-88 78 -114 26 -11 51 -28 54 -38 3 -9 -10 -57 -29 -106 -18 -49 -37 -109 -41
-134 -9 -57 -19 -76 -62 -121 l-35 -37 26 -80 25 -81 -24 -53 c-15 -33 -22
-63 -18 -80 3 -14 38 -65 79 -113 41 -47 74 -94 74 -105 0 -11 -22 -37 -52
-62 -93 -77 -138 -125 -138 -147 0 -22 14 -38 73 -84 52 -39 54 -62 16 -148
-33 -76 -41 -138 -20 -163 7 -8 34 -18 59 -21 83 -11 92 -18 92 -74 0 -27 9
-77 19 -112 11 -35 22 -84 26 -109 10 -62 13 -67 119 -172 85 -84 95 -97 94
-128 -1 -19 1 -42 5 -51 5 -9 -2 -29 -18 -53 -31 -46 -31 -57 1 -105 30 -45
60 -62 161 -86 39 -9 80 -23 90 -31 17 -14 17 -16 -10 -37 -15 -12 -74 -42
-130 -67 -79 -35 -103 -50 -105 -67 -4 -27 52 -91 102 -118 40 -22 44 -40 20
-86 -22 -44 -15 -81 20 -98 25 -11 48 -12 148 -1 65 7 121 10 125 6 4 -4 -10
-40 -30 -81 -37 -73 -38 -74 -22 -112 9 -21 47 -68 88 -106 l72 -68 5 -134 c7
-176 17 -190 173 -246 67 -24 81 -41 102 -129 26 -107 43 -138 82 -151 47 -15
63 -56 63 -163 0 -46 3 -92 6 -101 4 -8 27 -30 53 -47 89 -60 101 -76 101
-134 0 -36 4 -54 14 -57 20 -8 36 -70 36 -140 0 -93 34 -136 107 -137 57 0 73
-26 80 -128 10 -143 -25 -255 -89 -291 -24 -14 -32 -14 -77 1 -45 14 -53 15
-66 1 -8 -8 -15 -29 -15 -47 0 -18 -6 -40 -13 -51 -14 -19 -17 -19 -138 1 -29
5 -41 1 -65 -19 l-28 -25 23 -50 c27 -58 24 -68 -43 -130 -41 -38 -51 -42 -96
-42 -59 0 -76 -19 -89 -99 -10 -61 -27 -82 -106 -128 -33 -19 -62 -37 -65 -40
-3 -2 -8 -41 -12 -86 -10 -126 -43 -252 -92 -347 -120 -232 -94 -408 45 -309
15 10 30 19 34 19 13 0 -4 -160 -25 -240 -25 -94 -25 -118 -1 -154 26 -39 15
-60 -73 -144 -69 -65 -85 -98 -70 -140 16 -43 59 -67 120 -66 53 2 54 1 54
-26 0 -36 41 -70 85 -70 40 0 87 34 187 136 l76 79 4 138 c3 95 1 140 -6 142
-87 23 -98 28 -107 49 -9 19 -7 34 10 71 24 55 26 74 9 110 -11 24 -9 29 20
56 18 17 34 44 38 65 9 50 -2 172 -18 193 -7 10 -37 50 -66 89 -38 51 -64 74
-88 82 -39 13 -46 43 -15 60 25 13 87 13 112 -1 11 -5 27 -8 37 -5 29 10 65
73 70 124 4 44 1 51 -37 97 -23 27 -41 53 -41 57 0 19 27 5 66 -33 49 -48 69
-48 121 -1 l32 30 -16 43 c-21 63 -2 172 28 153 28 -17 119 70 119 115 0 36
36 90 77 114 18 10 64 27 103 38 39 11 95 33 126 50 68 36 134 39 164 9 11
-11 20 -24 20 -30 0 -5 20 -23 44 -39 56 -39 79 -88 81 -171 1 -36 5 -72 9
-81 9 -20 44 -37 96 -45 l40 -7 0 -196 0 -196 48 -27 c26 -14 65 -29 87 -33
76 -14 82 -39 35 -145 -35 -80 -38 -136 -10 -198 10 -23 22 -58 26 -77 4 -22
17 -43 38 -59 20 -15 46 -55 71 -107 l40 -84 -2 -122 -2 -123 75 0 c80 0 114
-11 114 -36 0 -9 -25 -59 -54 -111 -65 -113 -73 -141 -52 -182 20 -38 46 -52
110 -60 l51 -6 -3 -55 c-3 -44 1 -61 17 -82 27 -34 26 -49 -3 -77 -99 -93 -58
-241 61 -224 36 6 38 2 46 -90 6 -66 64 -178 130 -255 30 -35 57 -75 60 -90 5
-25 26 -61 106 -188 17 -27 45 -82 61 -122 16 -39 58 -112 94 -162 83 -116
110 -192 111 -315 0 -71 -4 -97 -18 -119 -28 -42 -84 -194 -112 -303 -14 -54
-40 -138 -60 -188 -19 -49 -51 -133 -71 -185 -20 -52 -99 -220 -176 -372 -112
-222 -152 -291 -199 -345 -32 -38 -85 -102 -118 -144 -71 -90 -85 -99 -105
-61 -29 56 -30 100 -5 154 23 50 23 50 4 65 -22 16 -90 12 -108 -6 -6 -6 -14
-32 -17 -59 l-5 -47 -77 -40 c-42 -22 -88 -51 -103 -65 -37 -34 -109 -171
-135 -255 -25 -79 -42 -282 -28 -332 13 -48 60 -83 114 -83 24 0 44 4 44 8 0
4 -11 23 -24 41 -58 78 -61 259 -5 276 22 7 84 -27 93 -50 6 -16 -7 -97 -29
-182 -12 -46 -12 -60 1 -105 9 -29 19 -92 22 -139 l7 -86 52 -56 c34 -38 56
-73 65 -105 17 -56 81 -169 138 -240 31 -40 48 -53 77 -58 45 -8 93 -31 93
-44 0 -26 43 -31 173 -20 190 16 198 19 258 95 28 36 58 69 66 73 9 5 37 3 69
-6 43 -12 59 -13 80 -3 25 11 26 15 20 59 -8 58 -60 170 -123 265 -53 79 -179
217 -198 217 -20 0 -89 55 -105 84 -12 24 -12 28 0 36 8 6 29 10 45 10 64 0
121 60 165 170 21 53 25 96 12 117 -16 25 -85 43 -204 52 -68 5 -136 14 -152
21 -44 16 -105 69 -112 95 -8 31 3 48 119 194 135 170 162 213 277 446 111
229 141 265 229 284 117 25 366 6 571 -44 58 -15 138 -30 179 -35 87 -12 203
-64 250 -113 53 -57 88 -91 124 -124 68 -61 96 -195 58 -278 -27 -60 -44 -70
-90 -56 -45 13 -110 14 -129 2 -11 -6 -8 -20 12 -69 14 -34 31 -94 36 -134 6
-40 16 -76 23 -80 17 -11 58 -1 162 40 53 20 117 37 155 41 l65 6 11 50 c20
93 67 152 154 195 25 12 67 38 93 58 l49 35 -7 54 c-6 53 -6 55 34 98 46 50
53 78 49 195 l-3 85 -41 -3 -42 -2 -45 137 c-25 76 -50 161 -57 190 -6 29 -18
57 -25 63 -14 12 -151 30 -226 30 -41 0 -56 -7 -125 -58 -95 -71 -101 -77
-123 -139 l-17 -48 -54 -2 c-87 -2 -136 -11 -215 -38 l-74 -26 -58 21 c-58 20
-175 44 -373 75 -229 37 -280 69 -280 178 0 104 125 437 212 568 93 139 308
281 563 371 181 64 199 68 350 68 l140 0 115 116 c63 63 158 152 210 197 145
125 434 388 444 405 5 8 6 43 4 77 l-5 62 67 -5 c63 -4 70 -3 94 21 20 20 26
36 26 69 0 40 -4 47 -72 110 l-73 68 53 53 c64 65 66 89 16 172 -52 86 -54
114 -12 161 20 22 40 49 47 61 27 52 2 118 -64 168 -48 38 -64 72 -81 174 -23
142 -21 157 36 230 72 92 68 112 -37 187 -38 26 -69 48 -71 50 -2 1 12 23 30
49 30 42 33 53 32 115 0 87 -13 104 -69 95 -50 -7 -53 -4 -90 89 -23 60 -26
80 -23 155 l3 86 -47 5 c-26 3 -50 9 -53 12 -4 3 -2 31 4 61 11 59 4 101 -24
143 -8 13 -14 24 -11 24 2 0 30 -12 62 -27 77 -35 143 -37 177 -5 13 13 37 46
52 75 15 29 45 75 65 102 21 28 43 69 49 92 12 44 53 83 89 83 21 0 48 -36
102 -135 44 -80 57 -93 96 -101 77 -14 111 22 134 146 18 92 29 107 91 115 72
10 89 30 89 106 0 55 -3 64 -31 90 -18 17 -55 36 -88 45 -31 8 -68 22 -84 30
-15 8 -36 12 -47 9 -10 -3 -40 1 -67 10 -31 11 -60 14 -86 9 -36 -6 -41 -11
-63 -60 -13 -30 -28 -54 -34 -54 -5 0 -19 14 -32 30 -28 38 -56 38 -93 0 l-29
-30 -14 27 c-40 78 -77 82 -176 18 -79 -52 -129 -59 -176 -25 -37 26 -99 121
-116 176 -12 41 -11 45 15 81 15 21 35 44 45 52 10 8 24 28 32 44 15 28 14 30
-11 57 -23 24 -25 31 -15 50 9 17 17 21 38 16 74 -17 97 -17 130 3 32 20 32
22 26 76 -6 53 -6 55 30 91 l37 37 120 -6 119 -7 0 48 c0 27 -7 57 -15 68 -29
39 -9 104 33 104 11 0 43 -21 71 -46 49 -44 53 -46 80 -34 60 24 64 37 56 168
-7 113 -6 121 19 180 14 34 26 71 26 83 0 32 -69 95 -118 108 -23 7 -57 25
-76 41 -61 54 -129 61 -175 19 -26 -25 -27 -60 -1 -141 11 -34 20 -78 20 -96
0 -75 -105 -241 -192 -304 l-28 -20 -15 35 c-8 19 -37 65 -65 101 -27 36 -50
67 -50 70 0 3 22 27 49 54 63 63 91 140 73 201 -24 78 -126 139 -162 96 -7 -8
-19 -15 -26 -15 -20 0 -18 49 6 148 25 104 25 124 0 147 -33 30 -24 37 43 30
73 -8 95 4 146 82 38 57 42 119 10 164 -35 49 -55 54 -100 25 -47 -31 -82 -33
-110 -5 -18 18 -20 27 -13 72 4 29 6 67 5 86 -1 28 6 42 38 75 23 24 42 56 46
76 12 56 22 67 74 80 44 10 53 9 92 -11 33 -17 61 -23 115 -23 97 -1 107 8
100 93 -3 36 -8 98 -12 136 -3 39 -10 74 -15 80 -15 15 -11 38 25 147 19 57
39 130 45 163 5 33 19 85 31 115 17 42 20 67 16 105 -9 74 2 85 59 57 108 -52
189 -4 172 102 -4 24 1 43 16 66 41 63 47 75 47 108 0 67 -38 111 -125 145
-60 23 -64 28 -79 98 -5 21 -17 30 -65 48 -38 14 -70 34 -90 56 l-30 34 -48
-38 c-61 -48 -69 -58 -80 -101 l-9 -35 -19 49 c-12 31 -15 53 -9 62 5 7 22 31
38 53 20 29 30 58 35 98 5 52 9 60 40 78 66 39 88 68 101 131 7 32 23 81 37
107 30 60 133 165 170 172 45 10 57 20 64 53 3 17 20 51 36 76 17 25 35 65 41
89 10 38 16 45 61 64 61 26 91 69 91 133 0 75 7 78 98 47 44 -15 91 -27 106
-27 70 0 147 67 166 142 18 73 32 91 105 130 55 29 81 37 123 38 89 0 153 44
192 132 31 70 45 81 79 63 30 -15 61 -69 61 -105 0 -55 52 -110 106 -110 37 0
46 -10 63 -67 14 -51 70 -113 101 -113 13 0 39 17 61 39 l39 39 0 93 c0 80 4
100 23 130 100 165 101 167 63 214 l-25 30 -32 -18 -31 -17 8 27 c4 16 8 41 8
57 1 42 -44 66 -137 73 l-73 6 -48 -42 c-26 -22 -52 -41 -57 -41 -6 0 -15 14
-21 30 -6 20 -19 32 -36 37 -15 3 -48 25 -74 49 -28 27 -57 44 -71 44 -33 0
-87 -38 -179 -126 -86 -82 -108 -89 -155 -50 -64 53 -110 60 -163 24 -50 -35
-72 -83 -66 -145 l5 -53 -50 2 c-61 3 -86 -19 -97 -82 -6 -37 -12 -46 -31 -48
-16 -3 -32 5 -48 22 -30 33 -49 33 -104 -3 -59 -37 -74 -73 -64 -149 19 -139
8 -162 -74 -162 -71 0 -76 -7 -73 -98 2 -68 0 -82 -19 -106 -17 -22 -28 -27
-57 -24 -31 3 -38 8 -45 33 -17 55 -22 60 -66 59 -72 -1 -75 -10 -81 -208 l-5
-173 -36 -54 c-20 -30 -51 -97 -68 -148 -18 -51 -49 -127 -70 -170 -21 -42
-48 -107 -61 -146 -37 -114 -35 -112 -81 -71 -62 57 -132 42 -163 -33 -24 -60
-7 -123 73 -282 l69 -136 -60 -59 c-79 -78 -82 -88 -62 -190 16 -82 16 -83 -6
-118 -17 -29 -23 -59 -30 -151 -8 -124 -22 -160 -65 -171 -19 -5 -25 -14 -29
-47 -3 -23 -7 -256 -9 -517 -3 -418 -5 -479 -20 -512 -22 -48 -21 -73 3 -123
17 -35 21 -70 26 -230 8 -255 -12 -1202 -27 -1285 -9 -50 -9 -78 0 -125 11
-56 11 -64 -10 -110 -15 -33 -23 -71 -23 -110 -1 -51 5 -69 34 -120 32 -55 34
-67 40 -170 4 -89 9 -117 25 -139 11 -16 25 -35 30 -43 11 -15 13 -13 -69 -70
-40 -28 -46 -37 -46 -68 0 -55 24 -101 69 -131 23 -15 41 -32 41 -38 1 -6 3
-38 6 -71 8 -95 8 -147 0 -186 -8 -33 -5 -40 39 -89 86 -97 95 -150 30 -190
-40 -25 -50 -52 -41 -114 9 -61 35 -89 118 -133 49 -26 81 -50 104 -82 54 -73
60 -104 46 -246 -20 -193 -29 -215 -130 -311 -82 -78 -86 -83 -77 -110 12 -34
79 -83 125 -93 52 -10 47 -28 -15 -45 -30 -9 -70 -30 -87 -45 l-32 -29 12 -59
c22 -107 9 -139 -128 -302 -131 -156 -193 -204 -235 -181 -34 18 -58 8 -77
-32 -31 -65 -102 -106 -343 -198 -183 -71 -397 -172 -496 -236 -93 -59 -152
-86 -174 -78 -9 4 -31 39 -49 78 -18 39 -61 114 -95 166 -62 96 -95 177 -84
208 3 9 23 38 45 64 56 68 68 96 68 156 0 76 -28 122 -73 122 -6 0 -35 -25
-63 -56 l-52 -56 -7 79 c-5 49 -3 112 5 169 l12 92 -38 68 c-22 39 -43 94 -49
129 -10 52 -15 63 -45 82 -60 38 -67 47 -73 110 -4 33 -18 97 -33 143 -27 85
-27 119 -3 178 22 54 -2 74 -125 99 -43 9 -58 29 -29 40 36 12 43 23 31 48 -9
21 -5 30 33 76 41 50 44 56 44 113 0 92 -36 157 -77 141 -40 -15 -67 52 -68
168 l0 57 -86 0 -85 0 31 43 c39 54 62 130 54 174 -8 40 -36 58 -112 68 -29 4
-55 12 -57 19 -1 6 -10 57 -19 114 -8 56 -25 124 -37 151 -20 47 -20 51 -4 85
9 19 25 38 34 41 32 10 62 52 77 106 18 67 11 103 -26 129 -49 35 -76 27 -145
-45 -35 -36 -68 -65 -74 -65 -22 0 -33 43 -27 99 4 31 9 98 13 150 l5 94 -68
-7 c-38 -4 -88 -9 -112 -13 l-42 -5 2 56 c2 46 -1 59 -20 76 -12 11 -24 33
-27 48 -7 30 -28 78 -47 103 -9 13 -7 28 12 70 26 61 38 188 21 231 -12 32
-51 46 -86 30 -13 -6 -34 -29 -47 -51 -13 -23 -25 -41 -28 -41 -3 0 -11 23
-18 52 -15 63 -29 79 -85 93 -25 6 -43 16 -45 27 -2 9 17 39 42 67 81 91 94
136 50 170 -23 18 -41 21 -118 21 l-92 0 -37 38 c-55 57 -46 112 20 112 47 0
93 22 108 50 22 42 51 415 35 435 -16 19 -87 38 -115 31 -17 -4 -34 -29 -63
-89 l-40 -83 -58 0 c-33 0 -74 -3 -91 -8 -29 -8 -33 -6 -33 12 0 11 -18 42
-40 67 -22 25 -40 54 -40 64 0 20 30 51 50 51 7 0 39 28 71 61 55 58 61 61 95
56 19 -3 56 -20 81 -36 86 -57 135 -35 158 69 14 68 57 171 78 188 7 6 35 19
62 29 59 22 78 51 72 110 -5 51 -29 91 -63 103 -13 5 -24 15 -24 22 0 27 -48
114 -80 145 -43 42 -88 57 -126 43 -40 -15 -102 -77 -114 -114 -5 -17 -14 -98
-19 -180 -6 -82 -12 -151 -15 -153 -10 -10 -60 33 -72 64 -8 18 -17 33 -21 33
-3 0 -37 -33 -75 -72 -63 -67 -70 -71 -81 -54 -34 53 -49 65 -90 71 -23 4 -52
16 -64 27 -11 11 -40 24 -64 29 -53 12 -66 23 -85 67 -22 53 -17 91 21 171 40
84 43 108 15 153 -26 43 -25 75 5 140 14 29 25 61 25 70 0 22 -46 75 -81 93
-41 22 -65 19 -130 -17 -63 -35 -79 -33 -61 7 27 58 11 90 -49 101 -56 11 -71
22 -67 52 2 21 14 32 51 50 54 26 57 36 26 117 -25 68 -48 85 -115 85 l-51 0
-17 147 c-9 80 -23 158 -31 172 -7 14 -38 48 -69 74 -31 27 -56 55 -56 62 0 9
18 19 45 26 65 16 115 64 122 115 7 55 -11 108 -43 123 -14 6 -51 11 -82 11
l-57 1 26 23 c15 13 32 32 38 44 12 23 14 92 5 142 l-7 32 -81 -5 c-45 -3 -90
-7 -101 -9 -30 -5 -30 28 -1 67 50 65 45 105 -19 170 -18 17 -25 34 -23 53 3
26 5 27 68 28 36 0 70 2 77 2 18 3 53 84 53 124 0 41 -27 78 -112 156 l-58 52
60 0 c43 0 60 4 60 13 0 8 24 41 54 76 34 39 58 78 66 107 7 25 18 48 25 50 6
3 31 -4 56 -15 57 -26 105 -26 148 0 l34 21 38 -21 c81 -46 143 -18 189 85 18
40 50 84 89 123 33 34 63 71 66 82 11 35 -4 82 -40 128 -20 25 -38 56 -42 70
-9 41 -40 87 -80 117 -28 21 -52 29 -112 36 -42 4 -95 11 -118 14 -56 8 -98
-18 -160 -99 -26 -34 -65 -82 -86 -107 -21 -25 -50 -67 -64 -95 -26 -51 -41
-67 -55 -59 -11 7 -60 -21 -87 -50 -28 -30 -46 -33 -55 -10 -8 21 -10 17 29
64 31 37 34 47 29 80 -6 37 -6 38 37 51 34 11 49 23 64 52 l20 38 -27 49 c-16
28 -28 59 -28 70 0 11 20 49 45 86 51 74 51 76 34 269 -6 74 -17 136 -29 162
-21 48 -26 42 77 102 63 36 73 46 79 77 11 62 -2 101 -54 162 -85 99 -85 99 5
194 88 94 111 170 62 214 -10 9 -19 20 -19 24 0 3 20 20 45 38 37 26 45 37 45
63 0 17 -9 43 -20 59 -52 73 -49 112 17 196 25 33 66 102 90 154 50 106 73
136 113 145 15 3 51 26 79 50 29 25 70 49 91 55 42 11 68 34 101 88 12 17 25
32 29 32 5 0 43 -5 84 -11 102 -15 124 -9 131 39 13 79 13 79 51 86 29 6 38
14 51 44 8 20 17 51 20 69 6 34 0 41 -75 100 l-23 18 26 34 c14 19 25 41 25
48 0 23 -79 101 -124 123 -63 30 -105 26 -162 -15z m4108 -4657 c8 -16 12 -62
10 -141 l-1 -118 45 -42 c42 -39 44 -45 35 -70 -6 -16 -11 -50 -11 -77 0 -46
-2 -49 -51 -85 -48 -35 -51 -38 -44 -71 5 -30 2 -38 -20 -56 -14 -11 -42 -51
-61 -89 -39 -78 -55 -90 -85 -63 -19 17 -20 26 -14 74 4 30 8 84 9 119 l1 64
43 18 c63 27 72 55 37 123 l-28 55 21 48 c11 26 30 98 42 158 34 177 45 200
72 153z m-2238 -9584 c22 -22 20 -33 -9 -46 -38 -17 -95 28 -68 55 12 13 62 7
77 -9z"/>
</g>
</svg>
