<?xml version="1.0" standalone="no"?>
<!DOCTYPE svg PUBLIC "-//W3C//DTD SVG 20010904//EN"
 "http://www.w3.org/TR/2001/REC-SVG-20010904/DTD/svg10.dtd">
<svg version="1.0" xmlns="http://www.w3.org/2000/svg"
 width="1536.000000pt" height="1522.000000pt" viewBox="0 0 1536.000000 1522.000000"
 preserveAspectRatio="xMidYMid meet">
<metadata>
Created by potrace 1.16, written by Peter Selinger 2001-2019
</metadata>
<g transform="translate(0.000000,1522.000000) scale(0.100000,-0.100000)"
fill="#000000" stroke="none">
<path d="M12395 14738 c-1206 -1261 -1662 -1765 -1965 -2168 -203 -271 -403
-428 -863 -676 -238 -129 -1399 -696 -1407 -687 -11 12 -80 464 -87 563 -6 97
7 183 38 248 12 24 63 88 114 143 153 163 205 260 205 380 0 115 -64 179 -182
179 -62 0 -132 -21 -233 -72 -89 -45 -124 -53 -150 -34 -17 12 -21 29 -24 112
-5 160 25 298 99 444 46 91 82 142 164 228 134 142 190 177 612 378 60 28 82
50 67 65 -6 6 -67 11 -139 12 -111 2 -139 -1 -198 -21 -153 -51 -302 -148
-434 -283 -100 -102 -155 -178 -206 -284 -49 -100 -62 -150 -71 -273 -11 -143
-49 -232 -100 -232 -49 0 -89 99 -100 252 -7 106 -25 169 -75 268 -104 207
-315 409 -533 509 -120 56 -160 63 -351 62 -94 -1 -172 -3 -174 -5 -2 -3 36
-16 85 -31 372 -111 503 -176 649 -320 105 -105 169 -207 220 -357 54 -161 85
-435 56 -505 -17 -38 -58 -57 -104 -48 -18 4 -82 29 -141 57 -164 77 -217 77
-297 2 -124 -116 -126 -292 -4 -423 53 -57 85 -77 226 -140 102 -45 127 -102
108 -245 -26 -186 -120 -484 -159 -506 -102 -54 -1280 477 -1730 779 -198 134
-320 246 -457 424 -166 213 -448 539 -885 1021 -689 762 -1470 1574 -1544
1608 -29 13 -73 -11 -190 -105 -359 -289 -492 -640 -463 -1225 21 -439 165
-1071 338 -1479 58 -136 107 -219 185 -308 73 -85 264 -326 382 -485 210 -281
494 -516 870 -719 305 -165 349 -168 389 -32 32 110 38 169 20 196 -18 28 -29
30 -73 14 -26 -8 -45 -6 -109 16 -165 55 -565 279 -827 462 -126 88 -242 194
-235 214 9 27 114 22 241 -11 136 -35 166 -38 147 -15 -7 8 -87 73 -179 144
-210 164 -274 221 -328 295 -63 86 -81 155 -93 376 -13 222 -20 277 -65 490
-212 1011 -240 1560 -78 1560 93 0 271 -212 415 -496 75 -146 105 -245 89
-291 -22 -61 5 -90 92 -99 106 -11 137 -40 111 -104 -27 -63 3 -114 93 -159
76 -38 113 -110 94 -186 -26 -104 -3 -141 96 -155 105 -14 156 -55 168 -133
13 -86 18 -98 66 -173 152 -233 513 -505 975 -737 244 -122 418 -238 497 -330
89 -104 328 -255 761 -479 934 -485 1180 -724 1309 -1273 45 -190 80 -470 93
-742 7 -142 -22 -683 -36 -683 -4 0 -67 127 -140 283 -247 523 -379 773 -515
977 -114 172 -161 205 -332 239 -194 39 -312 43 -1308 51 -1050 8 -1075 9
-1304 66 -131 32 -224 68 -481 184 -351 159 -596 248 -644 236 -58 -14 -185
-116 -344 -276 -173 -172 -262 -241 -376 -289 -53 -23 -75 -26 -166 -25 -86 0
-120 6 -189 28 -206 68 -409 188 -596 355 -98 86 -175 178 -261 308 -45 68
-100 135 -139 171 -113 104 -244 157 -322 131 -34 -11 -35 -13 -16 -20 34 -13
50 -78 35 -147 -7 -32 -20 -68 -31 -82 -18 -26 -18 -27 9 -103 63 -173 207
-435 322 -588 32 -42 89 -106 128 -142 60 -57 95 -79 242 -151 297 -145 704
-298 1258 -474 1089 -346 1648 -590 2475 -1077 270 -160 363 -210 508 -276
202 -93 345 -137 490 -154 172 -19 237 -54 237 -130 0 -84 -120 -166 -300
-205 -249 -54 -470 -73 -470 -39 0 5 25 22 57 37 31 16 51 32 46 35 -6 4 -46
13 -89 19 -166 27 -1968 9 -2312 -23 -174 -16 -242 -43 -242 -96 0 -59 44 -80
100 -48 31 18 72 19 88 3 36 -36 -10 -122 -91 -168 -86 -50 -145 -39 -178 33
-55 121 7 351 121 448 114 97 125 108 119 114 -13 13 -103 -19 -159 -56 -107
-72 -169 -195 -178 -354 -6 -114 11 -215 49 -296 118 -250 578 -761 908 -1010
137 -103 195 -125 274 -104 27 7 27 7 27 -39 0 -25 -9 -79 -20 -118 -24 -86
-26 -155 -5 -185 9 -12 31 -24 54 -28 54 -9 78 -37 63 -71 -30 -64 1 -135 102
-242 83 -87 146 -133 184 -134 58 -2 89 35 243 285 101 164 192 235 288 224
25 -3 93 -19 151 -35 59 -17 142 -36 185 -43 70 -11 84 -17 112 -46 36 -37 49
-84 39 -139 -9 -47 -27 -51 -82 -18 -25 16 -62 39 -82 51 -51 31 -92 30 -124
-4 -66 -71 -76 -142 -28 -197 37 -42 93 -62 210 -76 113 -14 218 -43 305 -85
87 -42 130 -44 203 -10 59 27 169 130 196 184 17 33 17 34 0 27 -48 -19 -79
-18 -99 4 -17 19 -20 36 -20 129 0 127 20 193 66 216 26 14 35 14 94 -2 85
-23 98 -12 67 52 -43 89 -23 122 81 132 81 7 138 37 151 78 5 17 13 40 19 53
15 33 116 97 193 122 135 45 170 112 140 272 -20 104 -21 218 -2 261 17 41 49
70 73 65 20 -4 22 -48 8 -210 -9 -103 5 -138 54 -138 60 0 189 107 288 240
106 142 154 258 156 377 2 83 2 85 38 117 46 42 119 70 239 90 132 22 326 39
361 31 26 -6 29 -10 29 -47 0 -51 -27 -157 -100 -390 -71 -227 -104 -379 -98
-454 3 -30 1 -57 -5 -61 -5 -3 -22 4 -38 16 -55 41 -133 22 -247 -59 -31 -23
-58 -37 -60 -31 -4 13 29 76 85 165 87 135 123 245 100 313 -26 81 -109 63
-210 -47 -64 -69 -118 -145 -110 -153 3 -4 48 16 99 44 99 53 113 51 67 -10
-110 -146 -226 -217 -294 -180 -135 72 -958 -737 -1013 -996 -14 -65 68 -134
159 -135 22 0 86 11 143 25 57 14 107 25 113 25 24 0 0 -27 -100 -110 -113
-93 -162 -153 -143 -172 65 -65 694 441 927 747 42 55 105 179 105 207 0 23
-14 23 -68 -3 -52 -26 -87 -16 -98 27 -16 63 55 132 122 119 80 -15 140 -109
150 -238 9 -97 -8 -188 -56 -312 -57 -144 -67 -197 -47 -229 9 -13 26 -26 38
-28 54 -8 89 -112 89 -261 0 -123 -15 -162 -74 -188 -78 -34 -166 -40 -736
-49 -571 -9 -740 -19 -915 -55 -170 -35 -252 -81 -376 -206 -205 -209 -465
-612 -708 -1098 -126 -251 -210 -439 -354 -792 -228 -558 -402 -942 -639
-1409 -153 -304 -230 -489 -279 -678 -50 -193 -42 -338 20 -372 75 -39 130 31
145 185 9 91 67 260 176 515 233 544 494 1044 616 1181 67 75 157 255 268 539
205 524 338 790 500 1004 143 188 265 392 356 596 61 137 106 202 160 230 47
24 73 25 149 5 132 -34 416 -60 832 -75 466 -17 559 -31 559 -84 0 -71 -228
-272 -655 -578 -148 -106 -308 -239 -331 -274 -15 -23 -16 -29 -3 -49 24 -40
147 -133 359 -273 288 -189 430 -304 430 -346 0 -34 84 -76 153 -76 41 0 94
-28 118 -61 11 -16 25 -57 30 -91 19 -115 92 -230 294 -457 77 -88 139 -190
150 -251 4 -23 1 -48 -9 -72 -9 -21 -16 -42 -16 -47 0 -20 34 -20 108 0 119
32 169 18 311 -86 58 -43 86 -36 204 49 29 21 69 39 104 46 50 11 67 10 137
-8 109 -28 121 -21 91 53 -14 33 -14 42 -1 89 21 70 78 156 178 267 155 171
258 321 258 376 0 34 55 106 151 198 116 111 203 181 406 326 217 155 417 307
483 368 l55 50 -22 18 c-47 39 -753 590 -971 758 l-232 180 512 6 c582 7 772
19 1031 64 103 19 168 19 210 1 52 -21 111 -98 157 -204 105 -240 213 -428
355 -617 46 -60 109 -153 141 -205 81 -133 230 -445 304 -635 178 -457 267
-647 338 -723 125 -134 391 -648 587 -1132 79 -195 122 -329 135 -422 6 -41
24 -100 41 -135 79 -164 218 -140 236 40 10 112 -81 342 -358 897 -282 566
-406 842 -604 1345 -232 589 -474 1076 -722 1455 -225 343 -381 508 -558 591
-168 79 -377 111 -995 154 -757 53 -940 108 -940 280 0 67 24 114 88 171 l57
51 -1 59 c0 47 -11 85 -51 185 -57 140 -74 210 -63 267 9 52 21 71 78 124 62
58 120 88 170 88 49 0 73 -25 79 -84 5 -39 3 -46 -21 -61 -23 -16 -32 -16 -67
-6 -23 7 -43 11 -45 8 -17 -17 473 -518 670 -687 203 -173 335 -260 391 -260
67 0 4 61 -170 165 -65 39 -140 90 -166 116 -124 115 9 131 156 18 139 -106
174 -114 227 -48 81 102 93 112 120 106 14 -4 37 -24 52 -46 45 -64 115 -87
174 -57 51 26 72 29 72 10 0 -9 -8 -31 -19 -48 -31 -51 -34 -83 -11 -106 11
-11 28 -20 38 -20 35 0 121 51 148 88 53 72 121 111 191 112 77 0 65 -24 -66
-128 -47 -38 -50 -49 -18 -61 65 -25 181 41 218 123 33 73 27 98 -45 175 -74
79 -93 125 -72 176 19 44 58 72 122 86 129 29 272 -48 417 -227 67 -81 122
-122 150 -111 8 3 28 30 43 59 25 45 33 53 58 53 24 0 42 -15 105 -88 42 -49
84 -93 94 -99 44 -24 107 23 234 176 120 143 124 172 14 107 -38 -22 -73 -41
-76 -41 -4 0 30 40 76 88 169 177 416 503 486 640 67 131 56 235 -42 407 -48
84 -81 125 -101 125 -6 0 -15 -20 -18 -45 -8 -53 -48 -105 -80 -105 -45 0 -86
68 -86 142 0 124 122 166 455 155 230 -8 316 -31 354 -99 21 -36 7 -88 -44
-163 -24 -36 -40 -65 -35 -65 5 0 61 58 125 128 193 213 294 369 355 550 95
284 32 504 -173 607 -66 33 -127 46 -127 26 0 -5 35 -41 78 -79 42 -39 91 -94
109 -124 76 -126 84 -305 16 -380 -29 -32 -91 -24 -161 21 -65 42 -87 71 -77
100 3 10 41 44 85 76 161 115 162 115 -805 155 -390 16 -515 49 -515 134 0 82
-69 111 -260 111 -148 0 -200 -8 -181 -28 6 -7 62 -34 123 -62 61 -27 113 -55
115 -62 6 -17 -36 -41 -113 -64 -138 -40 -209 -50 -414 -55 -170 -5 -236 -2
-385 15 -205 24 -299 27 -293 10 2 -7 40 -31 83 -55 44 -24 81 -48 83 -54 5
-14 -49 -13 -178 5 -154 22 -292 58 -377 100 -118 58 -142 110 -77 171 41 39
110 62 295 99 260 51 482 144 719 302 502 334 1254 698 2015 978 218 80 320
113 705 229 1108 334 1479 546 1770 1015 60 98 203 380 253 501 80 193 61 237
-110 248 -78 5 -87 3 -147 -27 -80 -39 -169 -132 -252 -260 -96 -151 -152
-220 -263 -331 -172 -171 -375 -313 -561 -393 -170 -73 -257 -75 -387 -10
-111 56 -231 139 -388 270 -152 126 -255 196 -339 231 -82 33 -206 41 -296 18
-80 -20 -238 -96 -382 -182 -282 -170 -416 -204 -873 -224 -132 -6 -600 -15
-1040 -20 -835 -10 -940 -16 -1113 -59 -118 -29 -186 -58 -267 -112 -183 -123
-265 -266 -611 -1076 -129 -302 -191 -437 -196 -425 -4 9 -19 96 -34 192 -33
212 -43 553 -24 764 42 471 172 931 316 1122 94 124 392 332 764 532 585 316
817 466 1029 667 184 173 282 237 405 260 42 8 110 30 151 49 273 126 783 493
872 627 23 35 24 42 12 70 -11 28 -11 33 6 45 10 8 33 14 51 14 61 0 108 58
120 148 3 28 14 64 24 80 21 35 93 72 138 72 41 0 101 25 104 42 1 7 2 63 2
123 1 103 3 114 33 175 18 36 60 99 94 140 79 95 214 301 299 453 127 229 233
403 303 495 101 136 134 144 172 41 18 -50 20 -79 20 -359 0 -328 -9 -438 -66
-835 -55 -387 -168 -896 -245 -1102 -72 -194 -127 -263 -273 -338 -135 -70
-218 -157 -197 -210 8 -21 71 -19 141 5 58 20 106 26 118 14 23 -23 -104 -157
-288 -304 -296 -236 -494 -347 -678 -381 -51 -9 -80 -8 -165 7 -56 9 -105 14
-109 10 -4 -3 23 -35 59 -69 47 -45 69 -74 77 -103 14 -52 15 -48 -15 -115
-23 -50 -25 -61 -13 -75 55 -66 499 180 893 495 174 139 277 246 408 427 65
89 183 246 263 349 158 205 218 302 290 470 159 372 267 852 306 1355 15 199
7 557 -16 660 -21 98 -91 241 -164 332 -49 62 -284 321 -385 425 l-31 32 -460
-481z m-3153 -7235 c63 -70 76 -121 36 -147 -78 -48 -211 -9 -194 57 9 37 84
117 110 117 12 0 34 -12 48 -27z m-3158 -21 c8 -15 19 -55 26 -88 10 -51 9
-71 -4 -125 -23 -89 -53 -135 -136 -209 -71 -63 -105 -115 -94 -143 3 -8 -2
-17 -11 -21 -45 -17 -321 -28 -565 -22 -345 7 -544 31 -595 71 -20 15 -20 15
-1 30 10 8 39 18 65 22 60 10 365 10 611 -1 169 -8 206 -7 272 8 123 27 220
101 314 241 40 58 41 71 13 94 -27 22 -20 59 21 125 34 54 62 60 84 18z m5640
-78 c52 -53 32 -141 -39 -164 -70 -23 -141 42 -127 116 13 71 113 100 166 48z
m-3190 -6 c27 -102 -45 -183 -226 -258 -176 -73 -142 -90 360 -190 396 -78
417 -89 205 -108 -181 -16 -314 -69 -345 -138 -20 -42 34 -74 128 -74 22 0 49
-6 59 -14 18 -13 18 -14 1 -41 -15 -23 -17 -34 -7 -65 26 -87 145 -229 225
-267 53 -25 80 -8 118 73 17 36 33 63 36 60 2 -3 -1 -48 -8 -101 -14 -104 -9
-185 13 -219 8 -12 35 -27 61 -34 60 -16 136 -64 220 -140 116 -106 227 -141
289 -92 58 46 47 77 -65 190 -126 127 -213 294 -206 393 9 119 118 36 220
-168 91 -180 165 -259 261 -279 15 -4 27 -13 27 -20 0 -23 -47 -72 -130 -137
-80 -61 -110 -96 -110 -124 0 -32 32 -76 131 -181 86 -92 159 -191 159 -216 0
-15 -31 -8 -68 16 -101 63 -353 283 -847 736 -503 461 -636 563 -746 564 -39
1 -56 -6 -123 -51 -84 -57 -87 -58 -117 -43 -39 21 -79 139 -130 378 -26 125
-21 185 22 271 60 121 173 191 414 259 169 48 171 48 179 20z m2810 6 c3 -9 6
-33 6 -55 0 -46 -18 -61 -105 -84 -47 -13 -105 -16 -267 -16 -114 1 -217 5
-228 9 -15 6 8 15 92 35 62 16 194 50 293 77 99 26 185 49 191 49 7 1 15 -6
18 -15z m-4427 -64 c108 -55 213 -132 213 -156 0 -27 -68 -46 -170 -48 -84 -1
-100 2 -139 24 -66 37 -86 70 -86 139 0 107 36 115 182 41z m-1217 -34 c0 -41
-162 -128 -286 -153 -78 -16 -154 -13 -154 7 0 15 66 53 151 88 151 62 289 90
289 58z m-1275 -13 c19 -11 19 -12 -10 -25 -41 -17 -348 -18 -389 0 -63 28 15
41 219 39 97 -2 168 -7 180 -14z m5335 -13 c147 -31 314 -79 351 -102 30 -18
31 -21 14 -31 -10 -5 -62 -10 -114 -10 -100 0 -201 22 -291 62 -54 24 -130 77
-130 91 0 16 66 12 170 -10z m-549 -79 c24 -25 29 -38 29 -78 0 -47 -20 -93
-41 -93 -15 0 -89 71 -105 101 -17 34 -18 71 -2 87 7 7 29 12 51 12 29 0 46
-7 68 -29z m-5536 -85 c56 -24 43 -69 -33 -117 -54 -34 -85 -36 -129 -9 -59
35 -71 103 -23 127 34 17 143 16 185 -1z m8943 -25 c103 -26 170 -60 210 -106
48 -54 40 -115 -14 -115 -11 0 -55 16 -96 35 -114 52 -290 102 -554 155 -234
47 -238 48 -174 52 36 3 173 4 305 3 206 -2 252 -6 323 -24z m-9357 2 c22 -22
-32 -37 -147 -41 -151 -5 -276 29 -189 51 40 11 324 2 336 -10z m-564 -86 c15
-15 15 -18 -2 -37 -24 -27 -131 -79 -177 -86 -115 -19 -148 79 -43 128 52 24
196 21 222 -5z m7833 4 c120 -21 129 -32 48 -55 -248 -70 -1168 -74 -1168 -5
0 25 121 53 305 69 135 11 733 5 815 -9z m-3959 -118 c24 -24 -55 -45 -166
-45 -138 1 -234 33 -163 54 40 12 316 4 329 -9z m3565 -100 c32 -75 -6 -150
-82 -160 -31 -4 -43 -1 -57 15 -27 30 -14 72 40 132 55 61 78 64 99 13z m1277
-48 c94 -25 154 -55 192 -96 41 -46 47 -66 43 -144 -4 -76 -17 -77 -72 -5 -74
97 -140 122 -220 84 -39 -19 -80 -13 -92 13 -4 10 -10 40 -13 68 -4 35 -11 51
-23 53 -9 2 -45 -22 -79 -53 -81 -73 -129 -100 -207 -120 -101 -26 -172 -3
-188 60 -18 71 95 130 292 155 94 12 296 4 367 -15z m-7488 -5 c413 -22 652
-62 643 -107 -10 -53 -294 -67 -675 -34 -274 24 -332 25 -385 11 -55 -16 -62
-36 -32 -99 13 -29 24 -55 24 -57 0 -17 -41 6 -121 68 -109 83 -157 113 -166
104 -4 -4 4 -39 17 -79 44 -135 28 -199 -61 -245 -62 -33 -161 -27 -250 15
-119 55 -259 197 -259 262 0 32 76 104 127 119 153 45 695 65 1138 42z m1546
-47 c22 -22 -55 -46 -146 -46 -91 0 -168 24 -146 46 25 25 267 25 292 0z m430
-90 c20 -20 -16 -51 -66 -59 -49 -7 -145 17 -165 41 -10 12 -8 16 11 25 33 14
205 8 220 -7z m3804 5 c30 -13 31 -20 7 -41 -28 -26 -93 -31 -154 -13 -66 19
-88 39 -61 55 24 14 176 14 208 -1z m-4212 -93 c9 -4 17 -11 17 -15 0 -44
-700 -170 -725 -131 -26 43 138 116 329 147 82 14 344 13 379 -1z m4852 -10
c76 -20 145 -53 152 -73 4 -8 -2 -21 -13 -29 -28 -22 -287 -11 -419 17 -111
24 -221 68 -206 83 30 30 377 32 486 2z m-1941 -87 c137 -149 207 -241 192
-255 -3 -3 -23 2 -46 11 -22 9 -47 16 -55 16 -25 0 -55 -38 -55 -69 0 -82 -30
-80 -154 9 -103 73 -140 85 -149 49 -5 -19 -11 -21 -47 -16 -89 12 -116 81
-59 151 34 41 246 205 266 206 6 0 54 -46 107 -102z m2812 -19 c38 -12 116
-41 174 -66 181 -76 172 -93 -44 -75 -152 12 -228 30 -270 63 -31 24 -33 52
-6 79 25 25 61 25 146 -1z m-7211 -89 c0 -36 -157 -112 -342 -165 -72 -21
-458 -105 -481 -105 -13 0 314 152 409 190 85 34 241 81 309 93 51 9 105 3
105 -13z m6096 -18 c55 -35 106 -94 158 -182 84 -141 161 -177 318 -145 219
43 311 8 384 -150 47 -101 90 -365 59 -365 -13 0 -68 76 -91 125 -27 60 -34
120 -19 164 11 33 10 43 -5 75 -30 62 -93 94 -160 82 -24 -5 -52 -24 -88 -61
-39 -38 -64 -55 -91 -60 -89 -17 -242 44 -330 131 -56 55 -80 104 -91 186 -8
65 -58 136 -115 165 -81 41 -85 44 -69 54 29 18 94 10 140 -19z m-4287 -35
c33 -94 -84 -352 -139 -307 -24 20 -19 127 9 204 44 123 106 172 130 103z
m6043 -41 c95 -25 169 -82 149 -115 -13 -20 -121 -12 -203 14 -126 40 -171 78
-125 104 25 15 118 13 179 -3z m-6813 -166 c99 -25 166 -55 166 -74 0 -21 -47
-51 -118 -75 -68 -23 -112 -19 -161 15 -45 32 -67 124 -33 143 25 15 60 13
146 -9z m1471 -50 c41 -79 -5 -169 -87 -170 -43 0 -74 33 -62 66 20 54 93 132
126 134 4 0 14 -13 23 -30z m-1889 -19 c127 -63 184 -115 184 -171 0 -77 -105
-63 -209 27 -61 52 -121 131 -121 159 0 21 5 24 33 24 18 0 69 -18 113 -39z
m881 -76 c24 -16 24 -16 6 -48 -10 -18 -40 -47 -67 -64 -77 -52 -116 -41 -116
32 1 89 97 132 177 80z m6031 -111 c93 -19 81 -124 -25 -225 -67 -64 -92 -79
-133 -79 -44 0 -102 46 -149 117 -37 55 -39 92 -8 120 41 38 206 86 265 77 12
-2 34 -7 50 -10z m-7555 -38 c101 -42 90 -111 -53 -324 -61 -92 -154 -202
-171 -202 -15 0 -10 54 11 115 36 106 19 168 -66 240 -30 26 -54 55 -54 65 0
26 77 88 130 105 59 18 162 19 203 1z m4768 -54 c59 -38 119 -106 206 -235 69
-102 71 -106 40 -91 -147 75 -352 296 -315 341 14 18 18 17 69 -15z m-2134
-39 c23 -59 -248 -381 -418 -495 -71 -48 -91 -53 -120 -29 l-23 19 27 67 c43
105 31 111 -159 70 -124 -27 -144 -27 -144 2 0 26 83 123 127 150 54 33 88 29
163 -17 111 -69 155 -54 325 109 136 130 205 169 222 124z m2719 -99 c49 -23
168 -137 189 -179 15 -33 15 -38 1 -60 -21 -32 -73 -45 -181 -45 -98 1 -144 9
-231 41 -56 21 -57 22 -33 34 13 7 46 50 73 95 53 87 95 130 128 130 11 0 35
-7 54 -16z"/>
<path d="M2968 6519 c-23 -13 -23 -56 0 -94 25 -41 80 -95 97 -95 37 0 60 103
35 151 -22 39 -94 61 -132 38z"/>
<path d="M6 10895 c-3 -9 -5 -33 -5 -53 2 -33 2 -32 9 13 8 53 6 66 -4 40z"/>
<path d="M2980 7803 c-19 -2 -39 -8 -44 -13 -29 -29 284 -52 412 -30 75 12 94
23 64 36 -19 8 -377 14 -432 7z"/>
<path d="M11930 7804 c-89 -6 -127 -15 -110 -24 50 -28 399 -40 529 -19 147
23 90 39 -163 43 -111 2 -226 2 -256 0z"/>
<path d="M3872 7711 c-68 -9 -85 -17 -62 -31 67 -42 343 -37 357 6 2 7 -6 14
-19 17 -44 11 -213 15 -276 8z"/>
<path d="M4405 7611 c-40 -8 -38 -31 5 -47 76 -27 255 -9 255 26 0 20 -41 28
-145 28 -47 0 -98 -3 -115 -7z"/>
<path d="M10535 7611 c-40 -8 -38 -31 5 -47 76 -27 255 -9 255 27 0 19 -43 27
-145 27 -47 0 -98 -3 -115 -7z"/>
<path d="M12211 6516 c-50 -28 -68 -108 -32 -140 17 -15 25 -16 55 -6 41 13
126 91 126 115 0 19 -57 45 -97 45 -15 -1 -39 -7 -52 -14z"/>
<path d="M4408 5515 c-86 -32 -205 -142 -248 -229 -30 -62 -25 -117 12 -130
60 -21 216 98 309 238 44 66 49 98 17 120 -27 19 -41 19 -90 1z"/>
<path d="M10578 5390 c-27 -27 -30 -36 -25 -72 10 -77 98 -169 147 -153 49 15
65 116 31 192 -33 71 -100 86 -153 33z"/>
<path d="M4926 4970 c-4 -31 -16 -60 -32 -79 -28 -34 -129 -86 -187 -96 -20
-4 -40 -11 -42 -15 -11 -18 102 -25 395 -25 290 0 393 7 374 24 -5 5 -49 16
-99 26 -168 32 -293 93 -347 170 -18 25 -37 45 -44 45 -6 0 -14 -22 -18 -50z"/>
<path d="M4108 4922 c-64 -77 -66 -403 -2 -473 52 -57 137 22 238 221 73 144
81 183 44 217 -32 29 -111 54 -189 60 -63 5 -66 4 -91 -25z"/>
<path d="M10882 4908 c-21 -21 -13 -80 28 -201 22 -64 40 -124 40 -132 0 -26
47 -46 122 -52 130 -9 153 18 102 120 -59 115 -149 223 -216 258 -43 22 -59
24 -76 7z"/>
<path d="M10038 4783 c-16 -2 -28 -8 -28 -13 0 -29 419 -46 544 -22 63 13 74
18 62 30 -8 8 -533 13 -578 5z"/>
</g>
</svg>
