<?xml version="1.0" standalone="no"?>
<!DOCTYPE svg PUBLIC "-//W3C//DTD SVG 20010904//EN"
 "http://www.w3.org/TR/2001/REC-SVG-20010904/DTD/svg10.dtd">
<svg version="1.0" xmlns="http://www.w3.org/2000/svg"
 width="1536.000000pt" height="1091.000000pt" viewBox="0 0 1536.000000 1091.000000"
 preserveAspectRatio="xMidYMid meet">
<metadata>
Created by potrace 1.16, written by Peter Selinger 2001-2019
</metadata>
<g transform="translate(0.000000,1091.000000) scale(0.100000,-0.100000)"
fill="#000000" stroke="none">
<path d="M8933 10896 c-23 -8 -72 -30 -109 -50 -109 -60 -151 -68 -419 -73
-175 -4 -293 -1 -435 11 -404 35 -581 32 -661 -10 -16 -8 -44 -38 -63 -68 -55
-86 -166 -129 -373 -145 -217 -17 -476 19 -602 84 -29 14 -87 53 -128 86 -41
32 -86 62 -101 65 -15 3 -34 8 -42 10 -34 9 -138 -30 -298 -110 -221 -112
-251 -121 -387 -121 -104 0 -117 3 -240 45 -122 41 -137 44 -240 44 -99 1
-116 -2 -167 -26 -103 -48 -192 -150 -293 -333 -44 -80 -165 -206 -238 -249
-26 -15 -86 -36 -133 -48 -138 -34 -209 -106 -234 -238 -32 -173 -44 -221 -67
-273 -36 -80 -80 -117 -140 -117 -60 0 -109 25 -203 101 -95 77 -164 110 -245
116 -83 7 -150 -16 -213 -72 -61 -55 -93 -115 -127 -235 -15 -52 -39 -117 -53
-144 -42 -77 -137 -167 -220 -209 -94 -47 -158 -55 -267 -32 -139 29 -252 11
-352 -57 -61 -41 -94 -104 -109 -205 -16 -108 -56 -192 -126 -268 -120 -130
-162 -293 -162 -625 0 -236 19 -338 84 -472 59 -123 60 -173 2 -286 -83 -161
-200 -495 -227 -647 -31 -177 -15 -377 39 -483 57 -112 121 -158 241 -171 141
-16 225 -84 301 -245 109 -230 156 -549 174 -1179 5 -193 12 -453 16 -576 l6
-223 -39 6 c-51 8 -327 39 -671 76 -299 32 -496 64 -652 107 -168 45 -253 21
-381 -107 -168 -168 -187 -322 -71 -555 68 -137 140 -232 395 -524 98 -112
175 -207 170 -211 -4 -4 -75 -36 -158 -70 -82 -34 -175 -78 -205 -97 -167
-110 -349 -351 -443 -588 -37 -94 -67 -219 -67 -280 0 -108 200 -361 517 -656
304 -282 368 -325 488 -323 61 1 90 9 225 61 232 91 329 120 477 142 263 40
484 -35 563 -189 51 -100 127 -150 256 -170 39 -6 301 -12 609 -14 558 -4 662
-9 963 -52 345 -48 433 -30 857 181 356 178 481 215 674 199 185 -14 359 -10
426 10 83 25 184 73 318 150 446 256 853 319 1262 197 217 -65 390 -76 487
-32 108 49 295 75 653 91 264 12 342 22 405 53 68 33 80 63 89 220 10 159 29
211 99 280 152 148 458 186 1072 131 227 -20 575 -23 685 -6 129 21 293 67
452 126 371 140 708 206 1123 221 181 6 324 22 451 50 537 119 1012 413 1168
722 11 23 32 84 45 136 49 189 129 346 181 356 25 4 45 -25 45 -65 0 -54 17
-84 57 -101 32 -13 48 -14 105 -3 213 38 457 243 572 480 29 61 31 71 30 175
-1 97 -7 132 -48 289 -80 309 -194 628 -334 936 -110 244 -182 485 -182 617
-1 171 -73 416 -172 580 -53 89 -141 179 -196 200 -60 23 -198 23 -302 1 -118
-26 -133 -27 -166 -13 -60 25 -77 104 -99 480 -8 138 -24 324 -35 415 -55 443
-164 1037 -231 1265 -38 128 -114 168 -348 184 -162 12 -226 35 -296 105 -27
28 -68 84 -89 124 -47 86 -117 156 -175 173 -38 11 -55 9 -234 -39 -106 -29
-207 -52 -224 -52 -53 0 -84 36 -94 108 -15 111 -87 216 -199 292 -117 80
-257 271 -383 525 -115 231 -216 360 -349 446 -90 58 -160 81 -264 86 -115 7
-175 -9 -314 -86 -136 -75 -179 -91 -243 -91 -95 0 -141 46 -213 211 -57 132
-77 163 -122 191 -33 20 -50 23 -147 23 -60 0 -186 -9 -279 -19 -237 -28 -296
-13 -347 86 -10 21 -19 42 -19 47 0 6 -9 36 -21 66 -51 136 -162 192 -296 151z"/>
</g>
</svg>
