<?xml version="1.0" standalone="no"?>
<!DOCTYPE svg PUBLIC "-//W3C//DTD SVG 20010904//EN"
 "http://www.w3.org/TR/2001/REC-SVG-20010904/DTD/svg10.dtd">
<svg version="1.0" xmlns="http://www.w3.org/2000/svg"
 width="1233.000000pt" height="864.000000pt" viewBox="0 0 1233.000000 864.000000"
 preserveAspectRatio="xMidYMid meet">
<metadata>
Created by potrace 1.16, written by Peter Selinger 2001-2019
</metadata>
<g transform="translate(0.000000,864.000000) scale(0.100000,-0.100000)"
fill="#000000" stroke="none">
<path d="M10210 8252 c-33 -16 -35 -20 -38 -75 -2 -42 2 -66 13 -84 14 -21 15
-36 6 -111 -15 -122 -13 -461 3 -622 29 -284 47 -437 57 -485 5 -27 16 -81 23
-120 40 -205 46 -576 11 -770 -9 -49 -32 -137 -52 -195 -36 -106 -104 -253
-122 -265 -6 -3 -19 -26 -30 -50 -60 -136 -216 -321 -520 -620 -145 -143 -384
-380 -530 -527 -199 -200 -279 -273 -316 -292 -28 -13 -73 -44 -100 -68 -28
-24 -72 -57 -99 -73 -28 -15 -69 -46 -94 -68 -38 -36 -46 -39 -63 -29 -10 7
-64 17 -120 23 -189 19 -306 86 -484 279 -43 47 -86 92 -95 100 -9 8 -27 31
-41 50 -13 19 -46 62 -74 95 -28 33 -67 89 -87 125 -20 36 -58 85 -83 110 -26
25 -63 70 -82 100 -47 71 -261 298 -393 414 -201 177 -481 380 -720 523 -91
55 -410 233 -416 233 -2 0 -39 16 -81 36 -242 111 -504 204 -748 264 -267 65
-342 75 -595 75 -200 0 -237 -3 -330 -23 -176 -40 -335 -110 -450 -200 -74
-58 -173 -165 -210 -229 l-35 -60 -69 23 c-131 45 -226 57 -406 51 -128 -4
-182 -10 -240 -27 -41 -11 -104 -28 -140 -35 -102 -23 -198 -75 -261 -143 -62
-67 -135 -166 -182 -247 -32 -56 -32 -57 -72 -51 -22 3 -98 9 -170 12 -105 5
-143 3 -194 -11 -159 -41 -270 -134 -335 -282 l-18 -41 -113 5 c-269 14 -425
-72 -485 -265 -17 -55 -18 -56 -83 -83 -123 -49 -212 -136 -237 -230 -7 -26
-15 -36 -25 -33 -22 9 -132 -23 -165 -48 -53 -39 -74 -84 -74 -163 1 -80 17
-125 70 -195 62 -81 160 -131 288 -145 56 -7 65 -11 143 -80 143 -125 297
-189 445 -184 l69 2 72 -71 c104 -102 213 -188 282 -222 115 -57 276 -75 399
-44 l63 16 79 -40 c43 -21 104 -54 134 -74 30 -19 80 -47 112 -61 31 -15 69
-37 85 -50 44 -37 93 -64 158 -88 33 -12 74 -32 90 -44 44 -33 103 -61 170
-80 62 -18 135 -54 135 -67 0 -5 -11 -8 -24 -8 -39 0 -281 -66 -426 -115 -268
-92 -359 -159 -460 -341 -57 -103 -104 -155 -337 -374 -86 -81 -104 -104 -123
-155 -36 -94 -28 -285 11 -285 7 0 35 20 63 44 221 188 451 276 720 277 199 0
340 -25 603 -107 267 -82 370 -98 483 -73 25 5 75 13 112 18 38 5 79 16 93 25
17 11 47 16 107 16 119 -1 178 -16 344 -91 184 -83 312 -79 532 15 343 147
460 132 826 -109 157 -103 256 -154 353 -182 98 -28 424 -29 743 -2 168 14
358 22 520 23 239 2 258 3 295 23 66 36 134 108 147 159 11 41 16 46 59 58 25
8 61 22 80 31 41 22 133 17 354 -19 214 -34 274 -37 509 -26 352 17 438 36
641 137 387 195 619 376 961 755 44 47 102 104 130 126 89 70 145 146 180 244
7 21 44 87 81 146 64 101 224 404 236 447 3 11 24 79 46 150 22 72 56 189 76
260 45 170 84 280 117 336 15 26 37 77 49 115 13 38 31 81 41 96 26 37 64 126
73 168 3 19 22 71 40 115 19 44 37 105 40 135 4 30 20 94 36 141 16 48 29 100
29 116 0 23 11 41 49 76 55 52 142 110 207 139 l44 19 26 -30 c62 -74 129 -40
179 92 25 66 50 64 120 -8 54 -57 64 -62 94 -45 47 25 55 239 13 355 -12 32
-22 60 -22 61 0 1 24 4 54 8 83 9 178 42 242 84 33 20 68 42 79 48 32 18 41
58 21 89 -14 22 -23 26 -54 23 -29 -2 -40 -9 -50 -30 -20 -42 -71 -51 -252
-45 -202 7 -246 19 -306 86 -85 95 -168 129 -417 170 -92 15 -169 30 -171 32
-7 6 19 143 43 239 60 230 200 504 365 715 70 90 233 253 349 349 92 78 106
86 144 86 33 0 46 5 62 26 47 60 36 128 -28 169 -52 32 -66 32 -102 -4 -23
-24 -29 -38 -29 -74 0 -43 -2 -45 -78 -104 -147 -114 -304 -269 -423 -418
-175 -218 -351 -529 -457 -807 l-48 -126 -59 31 c-72 39 -143 109 -180 179
-65 124 -75 149 -104 248 -31 108 -45 177 -87 435 -56 340 -74 474 -74 545 0
41 -7 125 -15 185 -19 142 -20 251 -2 258 26 10 49 75 42 117 -13 78 -87 110
-165 72z m921 -1655 c-10 -9 -11 -8 -5 6 3 10 9 15 12 12 3 -3 0 -11 -7 -18z
m-3226 -2657 c-3 -5 -1 -10 6 -10 7 0 10 -3 6 -6 -9 -9 -28 6 -22 17 4 5 8 9
11 9 3 0 2 -4 -1 -10z"/>
</g>
</svg>
