<?xml version="1.0" standalone="no"?>
<!DOCTYPE svg PUBLIC "-//W3C//DTD SVG 20010904//EN"
 "http://www.w3.org/TR/2001/REC-SVG-20010904/DTD/svg10.dtd">
<svg version="1.0" xmlns="http://www.w3.org/2000/svg"
 width="1534.000000pt" height="1536.000000pt" viewBox="0 0 1534.000000 1536.000000"
 preserveAspectRatio="xMidYMid meet">
<metadata>
Created by potrace 1.16, written by Peter Selinger 2001-2019
</metadata>
<g transform="translate(0.000000,1536.000000) scale(0.100000,-0.100000)"
fill="#000000" stroke="none">
<path d="M10124 15346 c-38 -7 -95 -21 -126 -30 -31 -9 -445 -181 -920 -382
-1770 -751 -3568 -1513 -4048 -1716 -272 -115 -525 -227 -562 -249 -250 -147
-420 -383 -485 -674 -22 -97 -21 -306 1 -410 22 -99 73 -234 131 -342 138
-259 375 -443 665 -516 67 -16 116 -21 230 -21 235 0 152 -30 1350 479 256
108 476 201 489 206 l24 10 -7 -78 c-8 -93 7 -240 35 -343 154 -564 750 -895
1304 -723 94 30 145 53 2620 1198 828 384 875 405 965 430 94 27 230 26 291
-2 97 -44 166 -143 213 -307 33 -113 51 -241 76 -536 11 -135 30 -297 41 -360
18 -98 300 -2929 293 -2938 -1 -2 -29 17 -62 41 -33 24 -244 138 -469 252
-224 114 -484 247 -578 295 -93 48 -314 161 -490 250 -176 89 -414 211 -530
270 -115 59 -338 173 -495 253 -157 79 -510 259 -785 400 -275 140 -532 266
-572 280 -223 80 -502 76 -728 -12 -133 -51 -238 -122 -355 -240 -154 -156
-239 -313 -282 -521 -16 -79 -19 -121 -15 -245 6 -179 26 -263 96 -410 79
-166 187 -294 339 -403 35 -24 813 -427 1730 -894 2226 -1135 2143 -1093 2243
-1122 378 -108 767 -3 1039 280 65 68 82 81 87 67 80 -230 227 -413 442 -553
l23 -16 -43 -28 c-63 -42 -183 -160 -239 -236 -123 -167 -200 -397 -200 -597
0 -126 408 -4268 430 -4358 42 -177 143 -358 275 -490 349 -349 900 -403 1312
-129 269 179 442 483 459 804 8 150 -393 4262 -430 4412 -28 110 -84 236 -146
329 -61 90 -182 212 -266 269 l-72 47 86 69 c245 195 392 496 392 799 0 62
-233 2490 -425 4440 -156 1573 -539 2548 -1160 2947 -456 294 -1034 310 -1801
49 l-172 -58 -7 66 c-16 151 -54 279 -131 434 -137 279 -367 467 -663 544
-119 31 -310 39 -417 19z"/>
<path d="M4925 8163 c-77 -9 -188 -38 -264 -69 -123 -49 -225 -117 -327 -219
-140 -138 -220 -275 -272 -465 -25 -91 -27 -106 -27 -352 0 -158 -4 -261 -10
-266 -5 -6 -806 -474 -1780 -1042 -974 -568 -1786 -1045 -1805 -1059 -203
-149 -344 -352 -407 -586 -23 -89 -26 -118 -26 -260 0 -141 3 -172 26 -257 51
-193 149 -360 290 -495 136 -130 282 -211 465 -260 84 -23 117 -26 252 -26
135 0 168 3 252 26 53 14 134 43 180 65 46 21 528 299 1073 617 1512 883 1549
905 1553 900 2 -2 19 -565 38 -1252 35 -1301 36 -1310 84 -1452 105 -312 372
-563 695 -651 119 -33 347 -39 475 -12 381 79 681 363 775 736 12 49 27 92 32
93 6 2 142 -17 304 -41 162 -25 692 -106 1179 -180 487 -75 1358 -208 1935
-296 578 -89 1089 -165 1137 -169 183 -17 366 17 533 99 284 140 480 396 545
710 28 137 24 331 -9 460 -90 344 -366 626 -702 719 -64 18 -303 57 -1349 216
-124 19 -533 82 -910 139 -845 129 -1902 291 -2357 360 -189 29 -345 55 -348
58 -3 3 -26 752 -50 1664 -35 1282 -48 1676 -60 1734 -60 299 -249 557 -512
697 -183 98 -410 141 -608 116z"/>
</g>
</svg>
