<?xml version="1.0" standalone="no"?>
<!DOCTYPE svg PUBLIC "-//W3C//DTD SVG 20010904//EN"
 "http://www.w3.org/TR/2001/REC-SVG-20010904/DTD/svg10.dtd">
<svg version="1.0" xmlns="http://www.w3.org/2000/svg"
 width="1536.000000pt" height="717.000000pt" viewBox="0 0 1536.000000 717.000000"
 preserveAspectRatio="xMidYMid meet">
<metadata>
Created by potrace 1.16, written by Peter Selinger 2001-2019
</metadata>
<g transform="translate(0.000000,717.000000) scale(0.100000,-0.100000)"
fill="#000000" stroke="none">
<path d="M3206 7155 c-332 -27 -539 -62 -780 -131 -467 -134 -929 -374 -1306
-677 -306 -246 -814 -754 -962 -962 -173 -243 -201 -480 -92 -804 46 -139 94
-227 165 -305 77 -83 157 -142 359 -261 91 -54 249 -149 352 -211 102 -62 215
-127 249 -144 112 -57 283 -119 440 -159 179 -47 228 -56 569 -110 319 -51
472 -81 675 -133 406 -103 707 -239 892 -403 29 -25 99 -103 156 -173 161
-196 287 -308 467 -412 309 -180 609 -252 1170 -281 246 -13 684 -6 1010 16
822 56 1140 14 1574 -205 378 -191 649 -371 1076 -714 96 -77 213 -164 260
-194 166 -105 439 -225 717 -316 176 -57 300 -87 518 -126 263 -47 343 -65
745 -167 206 -52 452 -107 545 -123 594 -100 1419 -160 2210 -160 418 0 648
22 915 86 170 40 213 76 226 188 13 107 -36 180 -140 210 -51 15 -87 41 -130
95 -17 22 -23 23 -86 17 -50 -4 -105 1 -216 20 -188 33 -351 37 -439 10 -53
-17 -82 -18 -245 -13 -179 6 -779 46 -1005 68 -439 41 -936 154 -2156 489
-359 98 -416 122 -629 258 -211 135 -415 303 -712 586 -217 207 -294 273 -455
393 -389 289 -898 506 -1337 568 -129 19 -479 22 -596 5 -41 -5 -156 -24 -255
-41 l-180 -31 -295 6 c-371 7 -572 32 -900 112 -250 61 -363 118 -450 227 -25
30 -80 122 -124 204 -99 186 -149 257 -252 359 -171 169 -422 309 -735 413
-366 121 -892 213 -1544 271 -669 59 -746 75 -1010 208 -172 86 -225 137 -225
216 0 57 29 110 122 222 112 136 242 263 373 365 259 202 816 584 951 652 471
236 958 260 1851 92 350 -66 864 -189 1903 -455 636 -162 748 -195 1215 -358
959 -335 1361 -431 2118 -506 585 -59 1018 -80 1517 -77 743 6 762 6 840 -8
196 -35 392 -112 462 -183 88 -87 88 -171 3 -442 -86 -272 -89 -292 -90 -586
0 -140 -4 -265 -8 -277 -11 -31 -98 -71 -192 -88 -44 -8 -179 -24 -300 -35
-317 -30 -415 -54 -517 -131 -66 -49 -134 -137 -149 -192 -49 -181 121 -402
378 -493 80 -28 101 -30 110 -8 8 20 -21 49 -150 152 -147 116 -166 158 -105
227 67 77 169 109 398 125 479 34 715 129 815 327 34 70 45 147 45 324 0 261
29 359 166 565 103 155 134 240 141 390 22 435 -341 768 -967 890 -71 13 -197
17 -740 24 -704 8 -774 12 -1090 66 -113 19 -315 48 -450 64 -279 34 -367 49
-530 90 -275 69 -621 209 -1085 438 -323 160 -451 208 -868 326 -569 162
-1228 331 -1851 476 -599 138 -928 199 -1316 240 -255 28 -785 35 -1034 15z"/>
</g>
</svg>
