<?xml version="1.0" standalone="no"?>
<!DOCTYPE svg PUBLIC "-//W3C//DTD SVG 20010904//EN"
 "http://www.w3.org/TR/2001/REC-SVG-20010904/DTD/svg10.dtd">
<svg version="1.0" xmlns="http://www.w3.org/2000/svg"
 width="1536.000000pt" height="1328.000000pt" viewBox="0 0 1536.000000 1328.000000"
 preserveAspectRatio="xMidYMid meet">
<metadata>
Created by potrace 1.16, written by Peter Selinger 2001-2019
</metadata>
<g transform="translate(0.000000,1328.000000) scale(0.100000,-0.100000)"
fill="#000000" stroke="none">
<path d="M6290 13152 c0 -142 12 -373 35 -648 15 -188 8 -289 -24 -372 -25
-64 -184 -361 -210 -392 l-20 -25 0 30 c0 17 6 93 14 170 39 378 -9 565 -166
645 -46 24 -133 38 -142 23 -4 -6 15 -29 42 -51 27 -23 62 -61 78 -86 69 -103
52 -294 -78 -876 -28 -124 -54 -229 -58 -233 -4 -4 -33 30 -63 76 -171 257
-413 506 -694 715 l-112 83 -4 50 c-4 35 -23 87 -61 163 -65 130 -251 415
-327 499 -53 58 -105 94 -114 78 -3 -4 26 -80 65 -167 39 -87 88 -199 109
-249 41 -95 83 -235 72 -235 -4 0 -29 7 -56 15 -61 19 -166 19 -209 1 -48 -20
-94 -78 -113 -144 -20 -68 -22 -197 -5 -302 59 -354 94 -562 111 -654 11 -61
20 -112 20 -115 -1 -16 -69 106 -103 184 -31 71 -57 173 -128 490 -105 467
-149 642 -183 719 -44 99 -68 65 -54 -74 14 -145 5 -464 -22 -782 -24 -283
-25 -288 -47 -288 -17 0 -33 19 -73 90 -108 192 -249 390 -334 468 -63 58
-171 126 -257 163 -128 55 -430 122 -451 101 -11 -11 39 -45 97 -65 39 -14
225 -146 225 -160 0 -20 -83 -41 -190 -48 -215 -16 -295 -40 -233 -72 66 -35
150 -50 296 -56 l149 -6 94 -180 c158 -305 331 -708 318 -747 -3 -11 -22 -38
-41 -59 l-35 -39 -28 42 c-57 90 -181 183 -374 283 -56 28 -131 60 -167 70
-62 16 -70 16 -122 1 -30 -9 -79 -32 -108 -52 -29 -19 -57 -36 -61 -37 -5 -1
-44 108 -87 243 -79 252 -126 360 -209 483 -59 89 -334 379 -346 367 -17 -17
17 -137 189 -660 96 -289 192 -588 216 -665 43 -144 55 -243 32 -266 -9 -9
-50 10 -182 85 -94 53 -205 110 -248 127 -43 17 -130 59 -193 93 -303 166
-469 250 -630 316 -341 142 -540 210 -576 196 -33 -13 10 -48 568 -470 185
-141 388 -292 450 -336 244 -175 393 -361 466 -583 44 -134 62 -315 46 -452
l-6 -50 -62 60 c-76 75 -223 176 -321 221 -209 97 -636 156 -1135 158 -214 1
-265 -2 -318 -16 -174 -49 -263 -138 -150 -152 24 -3 120 -12 213 -21 763 -73
1313 -291 1661 -657 159 -168 238 -330 250 -517 l5 -86 -23 26 c-68 76 -217
162 -398 229 -47 17 -96 36 -109 41 -13 5 -177 55 -365 110 -530 156 -682 206
-811 266 -66 30 -155 71 -198 90 -42 20 -80 33 -84 29 -10 -10 23 -71 63 -115
88 -98 386 -280 667 -407 244 -110 470 -218 547 -262 l65 -37 -75 -6 c-230
-19 -288 -9 -408 68 -34 23 -85 47 -113 53 -70 17 -234 9 -277 -14 -81 -42
-178 -185 -218 -321 -22 -76 -23 -225 -1 -276 21 -50 64 -88 186 -160 58 -35
119 -74 134 -86 35 -28 54 -29 62 -3 7 22 3 52 -26 192 -20 95 -20 99 -2 135
24 49 63 70 156 85 60 9 106 9 202 0 120 -11 129 -14 225 -62 l101 -51 -44
-52 c-74 -87 -92 -130 -92 -222 0 -63 5 -89 23 -122 35 -66 43 -124 51 -363 7
-199 11 -232 31 -285 44 -114 133 -227 232 -292 37 -25 38 -27 38 -87 0 -269
126 -724 300 -1081 156 -323 355 -550 575 -657 134 -65 141 -90 -152 582 -237
543 -263 619 -298 886 -17 132 -20 455 -5 554 14 89 68 196 133 261 61 63 158
131 170 120 4 -4 53 -82 108 -172 152 -252 248 -362 364 -422 53 -27 116 -28
145 -2 l23 20 -14 -23 c-12 -20 -12 -24 1 -32 8 -5 25 -10 38 -10 34 0 68 -40
75 -88 7 -40 8 -41 40 -36 17 3 38 8 46 10 9 3 12 -2 8 -17 -15 -55 50 -127
171 -193 l67 -37 -45 3 -45 3 0 -50 0 -50 73 -3 73 -3 10 31 c14 39 44 56 66
38 9 -7 39 -45 68 -84 29 -39 84 -106 123 -150 81 -90 101 -135 109 -244 4
-59 -1 -97 -21 -180 l-26 -104 27 -28 c37 -39 62 -180 63 -358 0 -123 3 -146
34 -252 l33 -116 -46 -34 c-32 -23 -58 -33 -85 -34 -32 -1 -45 -7 -68 -35 -16
-18 -27 -38 -24 -44 2 -5 0 -20 -5 -32 -8 -21 -15 -23 -76 -23 -107 0 -146
-43 -136 -147 5 -42 2 -57 -12 -73 -17 -19 -18 -19 -56 12 l-38 30 -46 -22
c-53 -26 -85 -70 -85 -117 0 -29 -5 -34 -67 -65 -59 -29 -69 -37 -73 -64 -4
-23 -19 -43 -56 -72 -61 -48 -114 -125 -114 -164 0 -16 12 -49 26 -73 20 -35
23 -48 15 -64 -15 -27 5 -85 53 -149 l36 -50 -29 -12 c-46 -19 -75 -55 -67
-84 3 -13 15 -27 26 -31 20 -6 35 -38 25 -55 -3 -5 -17 -10 -30 -10 -28 0 -75
-52 -75 -84 0 -25 16 -50 80 -126 78 -92 83 -102 70 -150 -18 -68 -15 -153 7
-197 19 -37 35 -52 204 -184 46 -37 117 -97 158 -135 l74 -69 152 -1 c146 -1
153 -2 198 -28 70 -41 175 -75 291 -93 l103 -17 16 -43 c35 -95 122 -195 193
-223 12 -5 42 -2 75 7 76 20 162 13 193 -16 14 -13 26 -33 28 -45 3 -18 41
-32 338 -119 775 -226 1201 -338 1295 -341 76 -1 139 28 245 114 41 34 102 82
135 107 l60 45 75 -5 74 -6 33 39 c46 53 85 64 207 57 153 -9 303 -59 409
-137 68 -50 154 -32 195 40 16 28 21 30 75 30 62 0 64 -3 42 -57 -8 -19 -15
-51 -15 -69 0 -31 3 -34 29 -34 16 0 34 -7 41 -15 15 -18 9 -36 -72 -245 -49
-125 -61 -167 -62 -215 -1 -53 2 -61 22 -70 20 -9 22 -17 22 -85 1 -277 189
-554 475 -697 242 -122 641 -165 997 -108 l108 17 37 -32 c97 -86 237 -122
473 -124 180 -1 236 9 356 64 118 53 274 178 349 278 l30 41 145 -1 c116 0
161 4 224 21 108 29 223 93 310 172 l72 67 50 -13 c326 -84 524 64 697 521 54
141 84 252 96 349 10 88 -3 448 -23 620 -8 72 -13 141 -9 153 3 12 0 29 -7 37
-15 19 -58 238 -57 292 1 24 -5 49 -14 60 -9 10 -33 72 -53 138 -21 66 -49
147 -62 179 -17 41 -21 63 -14 71 8 9 6 14 -5 19 -9 3 -36 48 -60 100 -24 51
-65 131 -91 177 -26 46 -47 92 -46 102 0 9 -5 17 -11 17 -7 0 -40 46 -74 102
-49 78 -63 109 -63 139 0 36 -2 39 -27 39 -20 0 -34 9 -50 33 -13 18 -23 38
-23 44 0 6 -8 17 -18 24 -10 8 -60 71 -111 140 -83 113 -93 131 -96 174 -3 54
-29 85 -70 85 -14 0 -38 15 -58 37 -29 30 -34 42 -30 69 8 49 -21 91 -78 109
-62 21 -85 46 -69 75 17 32 6 48 -37 56 -22 3 -52 19 -70 36 -25 25 -31 38
-31 72 1 73 -7 86 -57 86 -41 0 -47 4 -92 56 -29 34 -47 63 -45 75 2 14 -6 23
-30 33 -18 8 -60 45 -93 83 -95 108 -90 94 -67 165 41 126 90 397 100 553 l7
99 38 -95 c20 -52 54 -123 75 -158 42 -72 127 -171 147 -171 16 0 14 8 -41
182 -55 173 -71 252 -84 412 -11 144 -13 319 -4 329 4 4 19 -2 33 -12 48 -33
110 -51 177 -51 76 0 122 17 153 56 22 28 23 34 17 159 -3 72 -9 147 -12 167
l-6 38 28 -11 c16 -5 99 -45 184 -87 l155 -77 17 -95 c46 -263 50 -721 9
-1072 -26 -223 -35 -384 -23 -423 33 -114 146 96 223 414 62 254 119 512 119
533 0 36 17 9 50 -79 44 -118 100 -201 217 -320 214 -217 384 -336 357 -250
-4 12 -69 189 -144 393 -125 335 -195 545 -169 504 5 -8 35 -57 67 -107 76
-123 206 -310 318 -459 l91 -121 -9 -269 c-9 -265 -1 -442 21 -483 8 -14 11
-12 20 11 6 15 24 107 40 205 30 180 67 333 80 333 4 0 59 -66 122 -147 137
-177 252 -314 308 -368 34 -32 41 -36 41 -20 0 11 -12 45 -26 75 -14 30 -77
219 -141 420 -133 424 -162 511 -215 640 -21 52 -38 95 -38 97 0 5 111 -37
160 -62 132 -66 250 -176 304 -283 37 -73 65 -175 91 -328 27 -164 47 -223 69
-204 8 6 20 35 25 63 15 74 31 311 31 455 0 67 4 122 8 122 4 0 54 -56 109
-124 123 -149 191 -198 325 -230 30 -7 58 14 58 44 0 33 -90 454 -111 520 -12
36 -41 102 -65 148 -23 45 -40 82 -37 82 3 0 40 -27 84 -59 146 -111 347 -193
589 -241 99 -20 105 -20 117 -4 7 10 13 21 13 25 0 4 -131 110 -292 236 -556
436 -721 570 -978 794 -75 65 -246 192 -540 401 l-205 145 1 104 c1 165 -7
149 74 149 165 0 555 -159 819 -335 122 -81 379 -284 444 -350 85 -87 179
-251 264 -458 124 -305 246 -465 445 -586 l37 -22 16 24 c14 22 13 28 -30 113
-43 86 -104 262 -200 579 -127 422 -220 560 -538 798 -168 126 -411 266 -627
362 l-65 29 52 9 c50 8 56 7 110 -26 171 -103 449 -159 884 -176 248 -10 280
-17 479 -111 69 -33 173 -75 231 -94 233 -78 213 -36 -86 182 -126 92 -155
118 -137 120 36 5 155 -16 250 -45 105 -31 162 -40 162 -24 0 27 -34 74 -81
111 -92 73 -235 147 -599 312 -199 90 -537 259 -665 333 -125 72 -230 149
-312 231 -50 50 -76 68 -123 84 -79 27 -184 26 -275 -1 -249 -73 -1137 -231
-1162 -205 -4 3 5 19 19 34 32 34 58 84 58 112 0 36 28 78 80 119 116 92 506
259 948 408 154 51 296 108 442 176 305 141 498 220 525 213 38 -10 137 -91
185 -151 48 -62 95 -94 113 -76 13 13 -21 83 -104 215 -33 54 -59 99 -57 102
3 2 74 33 159 70 85 36 223 99 307 139 224 109 262 141 155 132 -32 -2 -239
-25 -460 -50 l-402 -47 -77 44 c-80 46 -110 57 -363 126 -243 67 -295 72 -691
67 -309 -4 -355 -6 -440 -26 -139 -32 -298 -88 -561 -200 -303 -128 -362 -152
-366 -147 -5 5 50 45 287 208 314 216 461 300 630 363 123 45 210 87 210 101
0 30 -262 11 -459 -32 -295 -66 -598 -196 -996 -429 -303 -177 -505 -324 -642
-464 l-82 -85 -8 30 c-12 42 -7 695 7 859 60 733 259 1195 697 1614 54 52 130
124 168 161 69 66 104 114 92 126 -9 10 -121 -46 -242 -121 -163 -100 -590
-389 -670 -453 -206 -164 -363 -361 -440 -550 -49 -121 -97 -362 -110 -557 -3
-49 -8 -100 -11 -112 -8 -41 -203 -263 -449 -513 -132 -135 -271 -278 -309
-319 l-69 -74 7 189 c31 860 59 1045 236 1574 105 315 154 533 185 824 30 288
14 343 -49 166 -15 -41 -58 -137 -96 -215 -38 -78 -124 -292 -196 -485 -69
-190 -171 -444 -226 -565 -162 -357 -198 -458 -198 -557 0 -33 -8 -52 -42 -97
l-42 -55 -14 34 c-28 68 -70 257 -82 369 -17 150 -8 340 25 511 25 137 40 195
114 465 81 297 117 575 109 837 -7 203 -27 220 -63 54 -19 -84 -36 -124 -298
-688 -92 -196 -175 -382 -185 -413 -11 -30 -30 -67 -42 -81 -31 -32 -119 -88
-127 -81 -3 4 19 66 49 139 125 299 156 422 165 661 6 155 2 177 -25 144 -6
-7 -27 -55 -47 -107 -46 -119 -82 -185 -118 -216 -24 -20 -67 -33 -67 -20 0 2
18 42 40 88 54 111 62 174 58 425 -3 192 -5 211 -25 249 -21 40 -46 59 -63 49
-11 -7 -36 -103 -64 -245 -34 -178 -65 -249 -161 -383 -65 -91 -76 -164 -50
-342 21 -147 19 -170 -31 -319 -61 -182 -61 -219 -3 -346 56 -124 61 -184 25
-332 -39 -162 -153 -464 -289 -762 l-45 -99 -6 69 c-17 185 -56 360 -177 787
-82 288 -113 441 -128 620 -23 272 -13 329 98 549 82 161 98 209 87 253 -10
38 -45 32 -115 -21 -125 -94 -262 -270 -321 -413 -55 -135 -90 -330 -90 -508
l0 -78 -41 68 c-22 37 -65 93 -94 125 l-53 57 -8 -30 c-5 -20 5 -104 31 -256
l38 -227 -11 -258 c-21 -471 -61 -709 -164 -983 -29 -77 -33 -82 -39 -56 -14
52 -68 449 -79 581 -15 172 -8 213 120 804 109 498 127 631 103 733 -14 61
-80 223 -116 285 -33 57 -46 39 -39 -53 5 -73 -14 -179 -77 -430 -69 -271
-185 -656 -189 -624 -2 15 9 112 24 215 14 104 27 230 28 279 2 80 6 98 39
165 71 150 139 415 156 612 14 160 -6 299 -75 532 -62 211 -163 511 -178 531
-14 18 -15 7 -16 -113z m6313 -3229 c-71 -53 -235 -182 -365 -285 -370 -293
-482 -370 -693 -476 -148 -74 -322 -132 -279 -93 23 21 738 553 809 602 99 69
277 175 387 230 96 48 249 118 261 119 4 0 -50 -44 -120 -97z m-2563 -350 c10
-208 21 -415 24 -460 l5 -82 -126 -76 c-105 -63 -127 -73 -137 -61 -6 8 -47
55 -91 106 -44 50 -80 95 -80 98 0 12 380 860 383 857 2 -2 12 -173 22 -382z
m3590 307 c47 -5 110 -15 140 -21 l55 -12 -35 -10 c-19 -5 -82 -31 -140 -57
-189 -88 -415 -174 -829 -316 -196 -68 -241 -81 -230 -64 29 42 455 373 514
401 164 74 337 101 525 79z m-11765 -2423 c44 -11 86 -22 93 -23 8 -3 -5 -27
-38 -66 -53 -66 -119 -185 -140 -253 -7 -22 -16 -44 -20 -48 -12 -13 -32 279
-25 354 7 66 9 70 29 64 11 -4 57 -16 101 -28z"/>
</g>
</svg>
