<?xml version="1.0" standalone="no"?>
<!DOCTYPE svg PUBLIC "-//W3C//DTD SVG 20010904//EN"
 "http://www.w3.org/TR/2001/REC-SVG-20010904/DTD/svg10.dtd">
<svg version="1.0" xmlns="http://www.w3.org/2000/svg"
 width="989.000000pt" height="388.000000pt" viewBox="0 0 989.000000 388.000000"
 preserveAspectRatio="xMidYMid meet">
<metadata>
Created by potrace 1.16, written by Peter Selinger 2001-2019
</metadata>
<g transform="translate(0.000000,388.000000) scale(0.100000,-0.100000)"
fill="#000000" stroke="none">
<path d="M815 3870 c-266 -42 -429 -174 -554 -452 -35 -78 -49 -98 -69 -103
-50 -13 -151 -97 -179 -149 -13 -26 -13 -30 1 -44 9 -9 35 -25 58 -37 75 -35
78 -51 108 -509 5 -87 15 -165 20 -171 17 -21 49 -5 83 41 18 24 35 43 38 44
12 0 29 -80 23 -105 -9 -36 3 -75 24 -75 19 0 19 1 97 -200 69 -177 207 -460
270 -555 57 -85 147 -179 193 -201 19 -9 51 -14 75 -13 38 3 59 -6 207 -94 91
-54 167 -103 169 -108 12 -35 98 -84 258 -148 112 -44 421 -146 568 -186 55
-16 103 -31 107 -34 4 -3 -73 -35 -170 -70 -384 -139 -423 -157 -427 -197 -1
-14 -41 -88 -60 -112 -3 -4 -435 44 -713 79 -279 35 -279 35 -287 8 -11 -32
-65 -89 -86 -89 -10 0 -19 -4 -19 -8 0 -15 446 -84 825 -127 127 -15 231 -30
233 -34 25 -68 77 -108 152 -118 22 -3 40 -9 40 -14 0 -17 80 -49 122 -49 53
0 177 34 197 55 13 12 13 20 3 47 -6 17 -10 34 -7 36 3 3 89 0 192 -7 139 -9
190 -16 196 -26 31 -56 129 -129 165 -124 9 2 50 -3 91 -10 160 -28 229 -1
216 86 -6 42 -5 43 17 39 49 -10 630 -16 765 -7 155 10 172 14 149 40 -31 35
-36 67 -15 107 10 21 19 39 19 39 0 1 -24 -2 -52 -7 -29 -5 -231 -11 -449 -15
l-396 -5 -11 57 c-11 53 -44 115 -62 115 -4 0 -4 -17 1 -37 5 -21 9 -59 9 -85
0 -54 -7 -57 -75 -33 -22 8 -48 15 -57 15 -20 0 -65 79 -51 89 5 3 113 82 241
175 214 155 232 171 232 198 0 30 2 28 66 -41 73 -79 111 -107 102 -75 -3 11
-13 35 -22 55 l-15 37 68 -34 c38 -19 75 -34 81 -34 7 0 -9 25 -35 55 -46 55
-47 56 -19 49 16 -4 39 -11 52 -15 13 -5 33 -9 45 -9 18 0 15 6 -23 45 l-43
44 49 -13 c27 -7 69 -23 92 -35 24 -12 46 -20 49 -17 3 3 -6 21 -21 40 -31 41
-33 50 -7 36 11 -5 42 -10 70 -10 l51 0 0 66 0 66 34 -26 c19 -14 38 -26 41
-26 4 0 4 25 0 55 l-6 55 35 0 c35 0 36 1 36 36 l0 36 65 -7 c69 -8 72 -6 55
40 l-10 25 30 -15 c46 -24 53 -20 46 24 l-6 40 30 -11 c41 -14 47 -5 27 37 -9
20 -17 49 -17 64 0 25 5 30 38 36 51 9 110 44 118 69 4 12 57 73 118 136 l111
115 59 7 c83 10 149 45 160 85 8 27 16 32 50 38 50 7 73 23 78 54 2 17 38 45
145 113 l143 90 47 -16 c96 -31 279 -41 356 -20 20 6 23 37 3 53 -7 6 -38 25
-67 41 -30 16 -49 30 -44 30 6 0 264 36 575 81 507 73 567 84 585 103 19 20
55 25 485 69 778 79 2410 261 2410 269 0 4 -18 13 -40 19 -22 7 -40 15 -40 18
0 4 33 18 73 32 53 20 109 29 217 38 214 18 223 32 38 57 -107 15 -364 14
-533 -1 -33 -3 -22 1 33 12 45 9 82 20 82 25 0 6 -9 23 -21 39 -16 23 -28 29
-59 29 -42 0 -902 -80 -1672 -155 -1069 -104 -1778 -180 -2178 -231 -107 -14
-217 -28 -245 -30 -45 -5 -73 3 -270 76 -731 272 -1357 450 -1580 450 -49 0
-79 7 -132 31 -77 35 -451 175 -812 304 -135 49 -272 104 -305 123 -282 159
-615 293 -853 341 -117 24 -311 34 -398 21z m2175 -3103 c-8 -8 -95 -76 -193
-152 -201 -155 -234 -186 -268 -251 l-24 -46 -115 7 c-63 4 -171 12 -239 19
l-124 11 -13 46 c-8 26 -21 52 -29 59 -13 11 -15 6 -15 -40 0 -46 -2 -51 -16
-39 -8 7 -22 25 -29 39 l-14 27 67 31 c77 35 209 86 437 167 l160 57 75 -11
c107 -16 108 -16 70 24 l-33 35 34 14 c47 21 291 23 269 3z"/>
</g>
</svg>
