<?xml version="1.0" standalone="no"?>
<!DOCTYPE svg PUBLIC "-//W3C//DTD SVG 20010904//EN"
 "http://www.w3.org/TR/2001/REC-SVG-20010904/DTD/svg10.dtd">
<svg version="1.0" xmlns="http://www.w3.org/2000/svg"
 width="1536.000000pt" height="351.000000pt" viewBox="0 0 1536.000000 351.000000"
 preserveAspectRatio="xMidYMid meet">
<metadata>
Created by potrace 1.16, written by Peter Selinger 2001-2019
</metadata>
<g transform="translate(0.000000,351.000000) scale(0.100000,-0.100000)"
fill="#000000" stroke="none">
<path d="M4198 3469 c-18 -23 -44 -52 -57 -65 -54 -54 -140 -10 -126 64 5 26
3 32 -6 26 -19 -12 -72 -73 -95 -110 -28 -45 -55 -74 -69 -74 -7 0 -24 12 -39
26 -28 29 -34 72 -16 118 7 20 6 24 -5 19 -20 -7 -98 -127 -119 -183 -31 -78
-56 -236 -63 -392 -6 -140 -8 -150 -27 -157 -12 -5 -147 -16 -301 -25 -154 -9
-343 -23 -420 -32 -285 -30 -623 -96 -869 -169 -235 -69 -948 -308 -1090 -364
-316 -126 -586 -255 -658 -314 -44 -36 -65 -46 -100 -49 -33 -2 -44 -7 -46
-22 -2 -11 4 -23 13 -29 26 -14 0 -27 -57 -27 -44 0 -48 -2 -48 -24 0 -27 8
-31 88 -41 40 -5 57 -13 68 -31 19 -28 11 -44 -20 -44 -12 0 -30 -6 -41 -14
-24 -17 -16 -66 22 -144 34 -68 35 -68 351 -168 250 -79 329 -98 492 -120 152
-21 541 -23 825 -4 151 9 205 9 262 0 62 -11 89 -10 175 3 57 9 208 22 337 28
129 6 241 13 249 17 35 13 -22 -250 -72 -329 -15 -24 -43 -69 -62 -99 -40 -64
-44 -90 -11 -90 13 0 28 5 34 11 15 15 43 4 43 -16 0 -8 -20 -52 -44 -98 -68
-127 -87 -209 -33 -145 28 34 60 43 80 23 19 -19 27 -19 27 -2 0 20 33 47 57
47 39 0 54 -33 70 -157 16 -123 32 -179 33 -111 0 27 7 42 26 57 35 27 48 26
72 -4 l20 -25 6 39 c8 50 26 65 70 57 42 -8 57 -25 95 -111 33 -72 78 -145 91
-145 4 0 1 20 -8 45 -13 41 -13 47 2 70 20 31 52 32 84 2 l25 -22 -12 22 c-28
55 -4 93 60 93 46 0 46 0 198 -169 75 -83 117 -119 128 -108 3 4 -11 25 -31
47 -40 44 -46 81 -20 118 17 24 52 29 73 9 12 -10 13 -8 6 8 -5 11 -10 36 -13
57 -3 31 0 39 22 53 39 26 78 13 187 -60 53 -35 109 -67 125 -71 29 -7 28 -7
-14 41 -60 68 -56 125 10 125 15 0 28 2 28 4 0 2 -16 28 -35 56 -20 29 -34 58
-32 64 5 16 170 14 238 -3 83 -20 93 -8 22 28 -65 32 -83 61 -38 61 14 0 66
-7 116 -16 96 -16 124 -14 65 6 -38 12 -50 24 -60 56 -5 17 -2 23 19 28 40 10
29 33 -24 51 -63 20 -80 39 -59 63 9 9 19 27 22 39 4 12 19 32 33 43 18 14 21
21 12 24 -8 3 -32 10 -54 17 -22 6 -46 16 -52 22 -18 14 -16 74 2 81 28 10 15
23 -30 29 -73 11 -115 32 -121 64 -5 24 -22 37 -104 81 -124 66 -129 72 -94
109 l26 28 571 0 c582 -1 933 -14 1046 -41 48 -11 59 -11 78 2 12 8 35 14 50
14 65 0 72 -7 137 -139 35 -69 84 -153 109 -186 59 -79 152 -167 204 -194 40
-20 42 -20 48 -2 11 36 42 31 120 -19 71 -47 129 -80 139 -80 2 0 2 9 -1 20
-7 25 13 50 40 50 11 0 49 -18 84 -41 49 -32 69 -40 89 -35 19 5 25 12 21 26
-10 40 53 40 131 1 45 -23 61 -26 75 -17 14 9 30 5 80 -21 44 -22 70 -30 90
-26 22 4 25 8 16 20 -9 11 -9 17 0 26 9 9 26 4 77 -23 42 -22 80 -35 105 -36
27 0 36 3 29 10 -5 5 -10 16 -10 22 0 7 28 -4 67 -27 44 -25 71 -35 77 -29 6
6 18 10 28 10 15 0 17 5 12 26 -6 25 -6 26 17 14 13 -7 49 -28 80 -47 42 -26
63 -32 82 -28 23 6 25 10 16 26 -13 25 -4 40 19 32 9 -4 46 -27 82 -51 36 -25
66 -39 68 -33 2 6 12 11 23 11 17 0 18 3 7 20 -10 15 -10 22 0 32 14 14 53 -3
119 -53 39 -29 45 -31 67 -19 14 7 22 18 19 26 -10 27 30 14 83 -26 39 -30 63
-40 89 -40 l36 0 -20 26 c-48 61 -15 58 73 -6 73 -53 86 -59 86 -35 0 11 5 12
25 5 29 -11 32 -4 9 22 -14 14 -14 20 -4 33 20 24 43 18 115 -31 63 -43 69
-45 78 -28 6 11 10 34 8 51 -4 45 10 43 104 -17 86 -54 95 -58 95 -35 0 9 9
15 22 15 20 0 20 1 3 20 -20 22 -14 50 12 50 10 0 54 -20 97 -45 88 -50 96
-52 96 -29 0 10 5 14 15 10 13 -5 13 -2 -1 19 -9 14 -14 32 -10 40 10 26 58
16 129 -27 52 -31 71 -38 77 -28 5 8 17 10 34 6 25 -6 26 -5 17 13 -17 31 -14
71 6 71 9 0 61 -16 115 -36 54 -20 102 -34 105 -30 3 3 7 25 7 48 1 37 4 43
23 46 13 2 51 -8 85 -22 84 -33 123 -42 114 -27 -4 7 2 14 15 19 19 7 20 10 6
15 -25 10 -20 44 9 63 24 16 31 16 115 -1 l89 -18 26 30 26 30 71 -15 c62 -12
72 -12 81 0 6 9 21 18 34 22 12 4 20 11 17 16 -3 5 28 6 69 3 60 -5 79 -2 105
13 34 20 50 18 210 -26 41 -11 104 -22 140 -25 36 -2 119 -17 184 -32 109 -25
120 -25 145 -11 21 12 34 13 57 5 30 -9 208 -20 295 -17 25 1 59 2 75 2 378
-4 465 -2 465 8 0 6 12 10 26 10 22 0 25 2 14 15 -10 12 -9 15 6 15 11 0 35
-5 54 -10 40 -12 116 -3 132 14 9 9 26 8 70 -4 56 -14 60 -14 69 3 7 11 22 17
47 17 58 -1 193 -25 236 -43 49 -22 55 -21 49 3 -5 17 0 20 26 20 33 0 39 8
20 27 -7 7 -9 19 -5 29 5 14 15 16 54 10 26 -4 89 -11 140 -16 52 -6 105 -13
119 -17 22 -5 25 -3 20 11 -5 11 -1 16 13 16 10 0 22 5 25 10 3 6 -1 10 -9 10
-9 0 -16 9 -16 20 0 18 7 20 80 20 73 0 80 2 80 20 0 15 7 20 25 20 35 0 31
15 -7 26 -18 6 -33 16 -33 24 0 11 19 17 73 22 61 5 77 10 97 33 l25 26 -31
11 c-41 14 -38 56 7 78 18 9 29 21 26 28 -2 7 4 20 14 27 17 13 15 14 -23 15
-67 0 -81 50 -18 62 13 2 20 11 20 27 0 13 12 31 28 43 l28 20 107 -42 c133
-53 264 -98 294 -100 56 -5 76 0 74 17 -1 20 3 20 102 8 54 -7 62 -5 62 9 0
13 10 16 50 16 28 0 50 5 50 10 0 6 -4 10 -10 10 -5 0 -10 6 -10 14 0 21 39
27 108 15 73 -13 96 -7 87 20 -7 22 18 40 57 42 15 0 18 3 8 6 -8 3 -26 10
-40 15 -25 9 -24 10 15 24 24 8 80 14 138 14 58 0 97 4 97 10 0 6 -6 10 -14
10 -14 0 -28 34 -18 44 3 3 14 6 25 6 10 0 32 14 48 31 29 31 30 31 99 24 71
-7 86 0 50 23 -29 18 -26 60 5 68 23 6 36 24 17 24 -5 0 -8 19 -8 42 1 51 21
64 110 74 45 5 60 11 63 25 3 11 10 19 15 19 5 0 6 4 3 10 -3 5 -15 10 -25 10
-20 0 -38 40 -26 58 3 5 32 22 63 37 32 15 52 30 45 32 -26 9 -62 51 -62 70 0
24 17 40 93 84 31 18 57 37 57 41 0 4 -20 5 -45 1 -37 -5 -45 -3 -45 10 0 24
35 52 83 68 l42 14 -78 3 c-73 3 -78 4 -75 24 2 15 25 32 78 59 45 23 67 39
55 40 -11 0 -59 2 -107 3 -49 2 -91 6 -95 10 -14 13 24 34 117 65 52 18 106
38 120 46 l25 14 -30 1 c-16 0 -74 -7 -128 -17 -96 -16 -98 -16 -125 4 -28 22
-29 25 -17 55 6 14 2 18 -15 18 -16 0 -20 4 -15 19 5 18 3 19 -30 9 -19 -6
-38 -9 -41 -6 -7 8 13 47 39 75 l20 22 -34 -9 c-51 -15 -109 -13 -109 4 0 7 7
19 15 26 19 16 19 30 -1 30 -11 0 -14 6 -9 21 6 19 4 21 -19 15 -36 -9 -35 24
2 46 34 22 14 22 -58 3 -30 -8 -56 -15 -57 -15 -10 0 -1 29 10 33 6 3 0 6 -16
6 -25 1 -27 4 -21 27 5 19 4 25 -5 20 -6 -4 -20 -4 -31 -1 -22 7 -26 35 -9 67
9 17 9 20 -2 16 -8 -3 -47 -16 -87 -29 -68 -22 -75 -22 -100 -8 -20 11 -27 22
-25 42 1 21 -3 27 -18 27 -10 0 -19 7 -19 15 0 17 -16 20 -25 5 -18 -29 -70 1
-54 32 14 26 5 23 -72 -27 -43 -28 -81 -45 -99 -45 -31 0 -39 17 -18 38 18 18
-22 15 -46 -3 -25 -19 -86 -20 -86 -2 0 7 5 18 12 25 9 9 9 12 0 12 -6 0 -47
-29 -91 -65 -74 -60 -114 -78 -123 -56 -1 5 -19 12 -39 16 l-36 7 -105 -129
c-58 -70 -140 -161 -182 -202 -64 -61 -79 -71 -91 -61 -8 7 -15 27 -15 44 0
26 -5 34 -30 43 -26 10 -30 16 -30 50 0 28 8 48 29 74 l29 35 -32 -4 c-40 -5
-60 17 -54 58 4 29 3 31 -24 24 -64 -14 -92 66 -43 124 30 36 32 46 4 32 -37
-20 -52 -5 -47 44 l5 45 -47 -27 c-44 -25 -50 -25 -75 -12 -24 13 -26 19 -22
53 5 34 3 38 -12 34 -30 -7 -51 11 -51 45 l0 31 -50 -47 c-65 -61 -80 -60 -80
3 0 49 0 49 -32 47 -28 -1 -33 3 -38 27 l-5 28 -45 -45 c-52 -54 -80 -60 -80
-18 0 15 5 33 12 40 17 17 3 15 -33 -4 -35 -17 -55 -8 -61 29 -3 18 -10 12
-40 -34 -41 -62 -64 -89 -79 -89 -12 0 -11 57 2 81 6 11 9 25 6 32 -2 6 -30
-21 -62 -60 -49 -61 -61 -70 -77 -62 -24 13 -23 54 3 95 25 41 15 44 -23 7
-23 -22 -30 -24 -43 -13 -8 7 -15 19 -15 28 0 12 -5 11 -23 -6 -13 -12 -27
-22 -31 -22 -4 0 -20 -10 -35 -21 -30 -22 -51 -19 -51 7 0 23 -9 17 -57 -37
-33 -36 -49 -47 -57 -39 -7 7 -7 16 2 30 18 29 15 32 -18 15 -28 -15 -30 -14
-46 10 l-17 26 -48 -47 c-27 -26 -52 -45 -55 -41 -4 4 -1 14 6 23 12 14 10 15
-24 8 -27 -5 -41 -3 -46 6 -6 10 -25 -1 -70 -43 -34 -31 -65 -57 -71 -57 -16
0 -10 42 13 77 l21 35 -21 -11 c-32 -17 -62 -13 -70 10 -8 19 -11 18 -60 -26
l-52 -47 0 29 c0 16 6 35 13 42 10 11 8 13 -8 8 -11 -2 -28 -8 -37 -12 -13 -5
-20 -1 -26 15 -8 21 -11 20 -65 -30 -70 -64 -92 -63 -84 6 4 41 2 46 -19 54
-13 5 -24 15 -24 22 -1 7 -25 -14 -54 -46 -38 -41 -59 -57 -70 -53 -18 7 -21
30 -6 57 8 15 6 17 -11 13 -12 -4 -25 1 -33 12 -11 15 -17 12 -58 -34 -25 -28
-49 -51 -53 -51 -8 0 -2 57 10 84 7 16 6 17 -15 6 -18 -10 -24 -9 -31 1 -4 7
-5 17 -3 21 13 21 -15 4 -51 -32 -28 -28 -47 -39 -58 -34 -21 8 -22 22 0 46
19 21 3 24 -27 6 -17 -11 -22 -10 -30 2 -5 8 -8 21 -5 28 10 28 -22 9 -66 -39
-29 -31 -52 -48 -59 -44 -12 7 -10 44 5 78 7 17 6 18 -13 6 -16 -10 -23 -10
-35 -1 -13 11 -21 5 -53 -33 -33 -41 -39 -44 -52 -31 -13 12 -13 20 -4 41 11
24 10 25 -7 15 -30 -15 -41 -12 -41 13 -1 18 -10 12 -58 -41 -65 -71 -87 -79
-80 -29 3 17 9 40 13 51 7 15 5 17 -13 11 -17 -5 -22 -2 -22 12 -2 64 -257
-336 -321 -503 -43 -111 -57 -134 -81 -134 -19 0 -20 4 -14 58 13 113 62 243
126 337 16 23 55 88 88 145 45 77 57 106 46 108 -8 2 -14 11 -14 20 -1 11 -20
-3 -55 -40 -30 -32 -59 -58 -64 -58 -21 0 -22 23 -2 51 24 33 14 40 -14 9 -21
-24 -53 -26 -61 -5 -10 25 -21 18 -53 -35 -17 -27 -35 -50 -40 -50 -17 0 -29
33 -21 55 7 17 3 23 -22 34 -30 14 -32 13 -74 -35 -36 -42 -45 -47 -61 -38
-12 8 -17 22 -17 43 1 17 -2 28 -7 25 -6 -3 -16 0 -24 6 -12 10 -25 3 -71 -36
-54 -46 -57 -47 -70 -29 -17 23 -18 37 -2 53 9 9 7 12 -10 12 -12 0 -22 5 -22
10 0 18 -19 11 -66 -26 -60 -45 -88 -43 -92 7 -3 32 -6 36 -27 32 -16 -4 -24
0 -27 13 -2 14 -13 6 -46 -34 -34 -40 -50 -52 -72 -52 -29 0 -40 15 -40 53 0
14 -10 27 -28 35 -26 12 -29 11 -72 -38 -47 -52 -77 -63 -100 -35 -7 8 -10 26
-8 40 4 19 1 25 -13 25 -11 0 -19 7 -19 15 0 24 -11 18 -62 -32 -44 -44 -49
-46 -74 -34 -23 10 -26 16 -21 46 4 22 1 38 -8 45 -11 9 -26 0 -69 -39 -60
-54 -98 -65 -115 -33 -6 10 -7 28 -4 40 4 17 1 22 -15 22 -11 0 -22 5 -24 11
-2 6 -26 -8 -53 -30 -27 -23 -54 -41 -60 -41 -20 0 -35 24 -35 57 0 23 -5 33
-15 33 -9 0 -18 7 -22 16 -4 12 -17 4 -58 -36 -58 -57 -84 -62 -99 -18 -8 23
-6 32 14 53 l23 24 -33 -12 c-28 -10 -34 -10 -43 5 -10 15 -17 11 -64 -33 -44
-42 -56 -48 -72 -39 -37 19 -53 42 -47 66 4 14 2 24 -4 24 -5 0 -10 7 -10 15
0 23 -7 19 -68 -35 -31 -27 -63 -50 -72 -50 -25 0 -40 21 -40 56 0 29 -4 32
-36 38 -33 7 -40 3 -84 -38 -27 -25 -58 -46 -69 -46 -26 0 -45 35 -38 69 4 21
1 29 -20 38 -23 11 -29 8 -78 -37 -56 -54 -80 -60 -116 -31 -21 17 -22 22 -11
46 11 24 11 26 -7 20 -12 -4 -21 0 -25 11 -6 15 -16 8 -61 -36 -50 -50 -56
-53 -80 -42 -28 13 -33 48 -13 85 10 20 10 21 -6 8 -13 -11 -22 -12 -42 -2
-24 11 -30 8 -80 -39 -58 -55 -74 -60 -104 -30 -19 19 -18 40 3 68 7 9 4 12
-10 12 -10 0 -25 6 -32 13 -10 10 -25 -1 -75 -57 -58 -64 -64 -68 -85 -56 -20
10 -23 18 -18 50 5 36 3 38 -26 44 -26 5 -37 0 -83 -44 -29 -27 -57 -50 -61
-50 -17 0 -33 24 -33 48 0 13 -7 30 -16 39 -14 14 -18 14 -42 -6 -102 -81
-132 -87 -132 -26 0 24 -5 35 -14 35 -8 0 -21 2 -28 5 -9 4 -41 -17 -77 -50
-34 -30 -68 -55 -76 -55 -33 0 -45 13 -45 49 0 69 -13 71 -73 8 -46 -47 -61
-57 -89 -57 -40 0 -58 15 -58 47 0 34 -25 29 -82 -17 -57 -45 -88 -50 -119
-19 -16 16 -20 29 -16 54 4 25 1 35 -10 39 -18 7 -32 -2 -86 -56 -45 -45 -79
-50 -95 -13 -7 14 -12 31 -12 38 0 7 -12 18 -27 25 -27 12 -30 10 -74 -40 -43
-49 -48 -52 -72 -41 -31 14 -43 52 -28 81 9 17 8 22 -10 27 -16 5 -30 -2 -58
-28 -54 -51 -82 -67 -117 -67 -40 0 -68 30 -61 66 4 25 3 26 -32 19 -21 -4
-51 -21 -73 -42 -45 -44 -82 -47 -115 -9 -16 19 -21 34 -17 54 5 25 3 28 -20
27 -17 0 -41 -16 -71 -47 -56 -59 -91 -63 -136 -19 -24 24 -28 35 -23 60 10
47 -26 42 -68 -10z"/>
</g>
</svg>
