<?xml version="1.0" standalone="no"?>
<!DOCTYPE svg PUBLIC "-//W3C//DTD SVG 20010904//EN"
 "http://www.w3.org/TR/2001/REC-SVG-20010904/DTD/svg10.dtd">
<svg version="1.0" xmlns="http://www.w3.org/2000/svg"
 width="1536.000000pt" height="1248.000000pt" viewBox="0 0 1536.000000 1248.000000"
 preserveAspectRatio="xMidYMid meet">
<metadata>
Created by potrace 1.16, written by Peter Selinger 2001-2019
</metadata>
<g transform="translate(0.000000,1248.000000) scale(0.100000,-0.100000)"
fill="#000000" stroke="none">
<path d="M9020 12459 c-13 -12 -130 -95 -260 -187 -129 -91 -279 -198 -333
-239 -54 -40 -102 -73 -106 -73 -4 0 -32 52 -62 116 -32 70 -62 122 -77 132
-56 36 -132 -1 -132 -65 0 -21 24 -81 66 -165 63 -126 65 -131 47 -148 -10 -9
-175 -146 -368 -303 -445 -363 -655 -547 -877 -770 l-178 -178 -72 3 -73 3
-175 232 c-215 284 -213 283 -260 283 -54 0 -86 -39 -81 -101 0 -10 64 -101
142 -204 77 -103 139 -188 137 -190 -2 -2 -90 3 -195 11 -124 9 -201 11 -216
5 -29 -11 -57 -48 -57 -74 0 -27 27 -74 47 -82 10 -4 141 -16 292 -27 230 -16
277 -22 288 -36 36 -46 36 -45 -65 -168 -53 -66 -107 -132 -119 -148 l-22 -28
-83 65 c-46 35 -157 124 -248 195 -144 115 -170 131 -202 132 -61 0 -104 -61
-80 -114 5 -12 121 -110 256 -216 144 -114 244 -200 242 -207 -3 -7 -42 -64
-86 -127 l-81 -115 -226 181 c-217 173 -228 180 -262 174 -49 -7 -73 -39 -69
-90 3 -40 6 -44 217 -213 118 -94 221 -178 229 -186 13 -13 11 -22 -18 -74
-18 -32 -37 -63 -42 -70 -7 -9 -85 25 -299 132 -183 92 -300 145 -319 145 -63
0 -101 -75 -65 -127 8 -12 144 -87 302 -168 159 -81 289 -148 291 -149 1 -2
-15 -41 -36 -87 -21 -46 -49 -112 -62 -146 -15 -43 -28 -63 -39 -63 -9 0 -77
20 -151 45 -74 25 -147 45 -163 45 -39 0 -77 -40 -77 -82 0 -60 18 -72 190
-127 88 -29 160 -54 160 -57 0 -4 -6 -32 -14 -63 -8 -31 -17 -68 -20 -83 l-6
-28 -181 0 -181 0 -29 -29 c-31 -31 -36 -59 -17 -94 23 -44 36 -46 211 -47
l167 0 0 -25 c0 -21 -5 -25 -28 -25 -33 0 -69 -30 -78 -66 -4 -17 12 -72 55
-183 33 -88 61 -168 61 -178 0 -17 -39 -30 -282 -99 -188 -52 -291 -86 -307
-100 -31 -27 -34 -83 -6 -114 16 -18 48 -91 42 -96 -1 0 -65 -40 -141 -88
l-139 -87 -41 40 c-50 48 -83 58 -124 37 -54 -28 -58 -87 -10 -142 l33 -37
-23 -15 c-12 -8 -58 -43 -102 -77 l-81 -63 -82 86 c-45 48 -111 117 -146 155
-71 74 -96 86 -142 67 -35 -15 -49 -37 -49 -80 0 -26 23 -55 146 -186 80 -86
144 -157 142 -158 -2 -1 -29 -26 -60 -55 l-57 -53 -45 31 c-78 54 -156 30
-156 -47 0 -32 -15 -55 -203 -310 -21 -30 -40 -52 -43 -50 -2 2 -19 74 -39
159 -50 217 -53 227 -77 249 -48 44 -138 7 -138 -57 0 -15 23 -126 51 -246 28
-120 49 -220 47 -223 -3 -2 -18 2 -34 11 -16 8 -39 15 -51 15 -34 0 -73 -40
-76 -78 -1 -18 -6 -30 -12 -28 -5 2 -53 21 -105 41 -52 20 -96 38 -98 40 -2 2
46 132 107 289 61 157 111 299 111 316 0 41 -39 80 -79 80 -58 0 -74 -28 -190
-329 -61 -156 -112 -286 -115 -288 -5 -5 -273 81 -282 90 -3 3 39 120 95 260
56 141 101 267 101 282 0 59 -84 97 -136 61 -13 -9 -57 -108 -124 -278 -57
-145 -106 -266 -110 -271 -3 -4 -42 1 -86 11 -74 17 -79 19 -76 42 2 14 26
153 53 309 27 156 49 297 49 313 0 82 -118 107 -157 33 -6 -11 -35 -159 -64
-330 -29 -170 -54 -311 -55 -313 -1 -2 -44 1 -96 7 -51 6 -123 13 -160 17
l-68 6 0 168 c0 163 -1 170 -24 196 -33 39 -89 39 -122 0 -23 -26 -24 -33 -24
-184 0 -86 -4 -162 -8 -168 -4 -7 -45 -15 -92 -19 l-86 -7 -53 168 c-29 93
-60 177 -68 186 -23 25 -67 32 -101 14 -56 -29 -55 -58 3 -244 25 -79 45 -145
45 -147 0 -1 -28 -8 -63 -15 -87 -17 -236 -66 -325 -106 -61 -28 -78 -32 -88
-22 -6 7 -79 119 -163 249 -83 130 -158 242 -166 249 -8 7 -31 12 -52 12 -45
0 -83 -37 -83 -81 0 -18 39 -88 115 -206 63 -98 113 -180 111 -182 -2 -2 -48
12 -102 32 -55 19 -112 35 -127 35 -39 0 -77 -40 -77 -82 0 -59 18 -72 185
-129 99 -34 155 -59 155 -68 0 -54 117 -334 186 -442 l24 -38 -278 -187 c-594
-401 -562 -377 -562 -429 0 -33 39 -74 75 -81 27 -5 63 16 315 186 157 106
343 231 414 278 l128 87 22 -26 c11 -14 51 -64 87 -110 37 -46 104 -126 149
-177 l82 -93 -96 -98 c-84 -86 -96 -103 -96 -133 0 -57 57 -100 111 -83 12 4
64 48 116 98 l93 90 103 -99 c56 -54 128 -123 159 -152 l58 -53 -139 -167
c-76 -92 -144 -178 -150 -190 -35 -66 46 -146 112 -110 14 7 89 90 167 185
l141 172 107 -81 c59 -45 108 -85 110 -89 2 -5 -53 -90 -123 -189 -190 -272
-207 -301 -200 -330 18 -71 99 -94 147 -43 13 16 91 125 173 243 82 118 149
216 151 218 1 2 55 -30 120 -71 66 -41 145 -89 177 -107 31 -17 57 -34 57 -37
0 -2 -49 -90 -110 -194 -60 -105 -113 -201 -116 -214 -7 -27 18 -80 41 -89 36
-13 82 -6 102 17 11 12 67 103 123 202 57 99 106 183 110 188 3 4 85 -30 181
-76 96 -46 195 -92 221 -103 l47 -19 -6 -42 c-5 -37 -2 -45 25 -72 45 -46 95
-39 130 18 l17 27 158 -54 158 -55 -6 -63 c-7 -61 -6 -64 23 -94 34 -33 59
-37 102 -15 29 15 34 24 44 85 l6 35 125 -30 125 -30 -6 -45 c-4 -25 -17 -58
-30 -73 -26 -31 -31 -75 -13 -109 9 -16 8 -44 -1 -110 -13 -98 -5 -127 45
-150 56 -25 111 16 121 92 4 27 9 50 12 50 10 0 382 -232 382 -239 0 -4 -34
-64 -76 -134 l-75 -127 -92 57 c-51 32 -159 99 -242 150 -160 100 -193 110
-233 73 -12 -11 -24 -31 -28 -45 -13 -51 12 -73 268 -232 l247 -154 -36 -74
c-21 -41 -42 -75 -47 -75 -5 0 -138 47 -296 105 -158 58 -301 105 -319 105
-69 0 -107 -85 -59 -133 14 -14 132 -62 308 -126 157 -58 288 -107 293 -111 4
-3 -5 -38 -21 -76 -16 -38 -41 -106 -56 -152 -32 -96 -20 -93 -196 -58 -134
27 -164 22 -186 -29 -16 -39 -3 -89 26 -105 10 -5 75 -21 145 -34 70 -14 129
-27 131 -29 3 -3 -11 -84 -31 -183 -4 -18 -16 -22 -117 -33 -162 -18 -186 -25
-205 -65 -21 -44 -7 -86 34 -107 28 -14 43 -14 130 -3 154 21 138 34 140 -115
2 -110 13 -213 39 -361 l6 -35 -119 -49 c-316 -129 -333 -137 -349 -168 -28
-55 8 -118 69 -118 17 0 118 36 222 79 105 43 191 78 193 76 1 -1 -22 -45 -53
-98 -61 -106 -70 -152 -35 -187 51 -51 110 -30 155 54 17 31 32 56 35 56 3 0
30 -48 60 -106 93 -182 294 -474 325 -474 8 0 110 86 226 190 115 105 213 190
217 190 4 0 47 -93 97 -206 89 -205 114 -244 157 -244 45 0 87 39 88 81 0 14
-47 131 -104 260 l-103 234 221 225 c187 190 226 226 256 231 69 11 85 28 92
101 2 19 48 75 158 192 85 90 158 165 162 165 3 1 46 -46 95 -104 86 -103 113
-123 158 -116 36 5 65 41 65 80 0 31 -14 53 -100 154 l-100 118 96 110 c53 60
98 109 100 109 2 0 74 -72 161 -160 106 -107 168 -161 187 -166 58 -14 116 45
102 101 -5 19 -67 89 -173 197 l-166 167 60 78 c33 43 90 120 126 170 l65 93
142 -120 c77 -66 149 -124 160 -130 54 -29 120 8 120 69 0 20 -6 44 -12 53 -7
9 -78 71 -158 138 -80 67 -147 126 -148 131 -2 5 32 64 75 132 44 67 102 160
131 207 l51 86 41 -4 c33 -3 46 1 66 19 31 29 33 88 4 114 -12 10 -19 24 -18
29 2 6 36 75 75 153 l73 142 47 -14 c27 -8 58 -15 71 -15 32 0 82 52 82 85 0
36 -48 82 -94 90 -29 6 -36 11 -30 24 3 9 24 64 47 122 l40 107 206 -69 c113
-38 215 -69 228 -69 12 0 34 11 49 24 34 28 38 84 10 115 -11 12 -101 48 -233
92 -200 66 -214 73 -209 93 3 11 11 45 18 74 l11 53 66 -7 c88 -10 107 -9 135
10 32 20 42 66 22 104 -18 35 -28 39 -119 52 -39 6 -72 11 -73 13 -7 7 10 57
20 57 26 0 55 51 141 243 49 109 94 196 99 193 202 -80 252 -100 254 -102 2
-1 -40 -123 -92 -270 -53 -147 -96 -277 -96 -289 0 -40 37 -75 78 -75 20 0 45
7 55 15 12 8 56 118 112 276 52 144 96 267 99 275 4 10 21 8 83 -12 43 -13
130 -38 193 -55 63 -18 119 -35 123 -39 5 -4 -17 -102 -47 -217 -31 -115 -56
-221 -56 -236 0 -60 77 -97 127 -62 24 17 37 55 104 313 42 162 43 164 68 159
14 -2 105 -19 201 -36 96 -17 195 -35 220 -39 42 -7 45 -9 48 -42 5 -48 37
-80 79 -80 42 0 83 38 83 76 0 22 3 25 23 21 12 -3 67 -8 122 -11 55 -4 123
-9 151 -12 l52 -5 7 -56 c12 -94 76 -132 139 -82 25 19 27 27 25 78 l-3 56
132 3 c73 1 132 -1 132 -5 1 -64 53 -411 64 -428 32 -49 128 -35 142 21 5 20
-10 174 -39 413 -2 15 22 22 114 35 l46 7 22 -61 c23 -63 42 -80 88 -80 65 0
95 55 69 129 -10 31 -11 43 -3 46 7 2 47 13 90 25 106 29 191 62 320 122 59
28 108 49 110 47 1 -2 27 -56 56 -119 30 -63 63 -123 74 -133 26 -23 82 -22
107 3 35 35 35 64 0 137 -18 38 -47 100 -66 140 l-33 71 72 54 c167 123 389
377 520 593 70 116 137 249 137 273 0 21 -22 30 -560 248 -140 57 -261 107
-268 111 -9 6 7 39 58 123 43 70 70 125 70 143 0 38 -40 77 -79 77 -42 0 -68
-28 -150 -162 -40 -65 -75 -118 -79 -118 -13 0 -437 143 -445 150 -4 3 12 93
35 199 39 179 44 192 63 187 11 -3 69 -10 128 -17 l108 -13 -8 -30 c-13 -56
-7 -88 21 -113 35 -30 80 -30 111 1 21 21 45 81 45 114 0 13 168 17 278 6 56
-6 60 -9 66 -35 8 -43 40 -69 84 -69 43 0 82 32 82 66 0 36 14 41 130 48 63 3
170 11 238 17 67 7 125 10 127 7 3 -2 21 -103 40 -224 24 -150 41 -227 53
-243 37 -50 104 -48 138 4 17 26 16 35 -15 233 -18 114 -35 219 -38 233 -5 25
-2 27 44 33 26 4 117 21 202 37 84 17 155 29 156 27 2 -2 35 -129 74 -283 76
-305 81 -315 148 -315 41 0 83 37 83 75 0 14 -29 142 -65 285 -36 143 -65 265
-65 273 0 11 89 41 256 85 7 2 41 -83 84 -212 74 -223 92 -256 142 -256 45 0
87 39 88 80 0 14 -31 120 -70 235 -38 115 -68 211 -65 214 4 4 378 158 398
164 4 1 30 -47 57 -108 55 -119 85 -155 131 -155 40 0 79 39 79 79 0 17 -23
83 -52 146 -28 63 -49 117 -47 119 2 1 56 29 119 61 63 32 166 89 229 127 62
38 115 67 116 66 90 -135 553 -788 567 -800 32 -28 92 -24 117 8 43 54 40 59
-259 484 -154 219 -280 403 -280 408 0 6 29 33 64 61 80 64 220 211 266 279
l35 52 152 -6 c161 -7 204 0 223 37 16 29 12 75 -9 100 -17 22 -31 25 -145 34
l-126 10 169 124 c202 148 224 180 162 242 -54 54 -48 57 -375 -185 l-198
-146 -95 90 c-52 49 -137 118 -188 152 -52 35 -94 67 -95 72 0 4 40 58 89 120
99 124 111 144 111 179 0 36 -46 77 -85 77 -42 0 -54 -11 -170 -160 -53 -69
-100 -126 -104 -128 -12 -4 -161 67 -161 76 0 5 25 76 55 158 60 162 63 189
18 224 -34 27 -78 26 -106 -2 -13 -13 -45 -84 -71 -158 -67 -185 -58 -172
-109 -154 -23 8 -90 28 -150 43 -59 15 -110 30 -113 33 -3 4 22 147 56 319 34
172 59 323 55 336 -15 60 -95 84 -139 40 -19 -19 -32 -71 -86 -346 l-63 -322
-36 5 c-20 3 -57 8 -82 12 l-46 6 -7 296 -7 297 -30 28 c-39 36 -73 35 -111
-4 l-31 -31 6 -285 5 -286 -96 6 c-53 4 -123 7 -154 7 l-57 0 -3 326 -3 326
-28 24 c-37 31 -81 31 -112 -1 l-25 -24 0 -326 0 -325 -194 0 -194 0 -7 39
c-6 38 -1 47 146 268 169 253 178 274 125 319 -29 26 -65 31 -97 14 -11 -6
-69 -86 -131 -178 -61 -92 -113 -161 -116 -154 -2 6 -30 110 -62 229 -49 182
-63 222 -85 241 -34 29 -66 28 -104 -4 -23 -19 -31 -34 -31 -57 1 -18 36 -162
79 -322 l79 -289 -41 -61 c-22 -33 -41 -61 -41 -61 -1 -1 -75 -9 -166 -19
-324 -33 -615 -87 -1291 -241 -228 -51 -420 -94 -425 -94 -5 0 -38 61 -73 136
-36 74 -74 142 -85 150 -29 20 -82 18 -106 -6 -39 -39 -36 -65 20 -184 28 -61
54 -118 57 -126 3 -13 -33 -26 -179 -68 -101 -29 -293 -87 -428 -130 -237 -74
-248 -76 -335 -74 -49 1 -109 5 -133 9 l-42 8 82 50 c122 74 138 90 138 134 0
26 -7 44 -22 58 -52 46 -67 41 -242 -69 l-118 -75 -47 22 c-66 32 -186 71
-281 91 -82 18 -83 18 -131 78 -57 71 -55 47 -30 339 l17 208 31 30 30 31 153
-164 c156 -167 179 -187 216 -188 53 -1 98 74 73 122 -7 12 -81 97 -166 187
l-153 165 93 95 c73 76 221 240 234 260 1 2 17 -2 35 -10 43 -18 77 -13 105
13 30 28 31 85 3 116 -11 12 -20 23 -20 26 0 3 43 64 96 136 104 140 100 138
166 104 63 -32 132 4 132 69 0 42 -15 62 -65 88 l-38 19 65 107 c36 59 66 109
68 110 1 2 88 -38 192 -87 202 -97 226 -102 268 -60 27 27 26 83 -2 113 -12
13 -102 61 -201 107 l-178 83 32 71 c25 55 37 70 51 68 115 -16 122 -15 148
11 52 52 21 128 -60 148 -24 6 -44 12 -44 14 0 1 9 27 20 59 30 88 68 271 79
380 5 54 12 100 14 102 2 3 66 -3 141 -12 134 -17 137 -17 163 2 51 38 51 105
0 138 -14 10 -80 22 -165 33 l-142 16 -4 31 c-3 17 -8 60 -11 96 -24 260 -176
680 -334 928 -44 67 -61 74 -101 41z m-1110 -3813 c0 -55 -12 -64 -39 -29
l-21 26 22 24 c31 33 38 29 38 -21z m-30 -341 c0 -19 -6 -20 -167 -18 l-168 1
-27 38 c-16 20 -28 40 -28 44 0 3 37 33 83 65 45 32 95 69 110 82 l29 23 84
-107 c46 -60 84 -117 84 -128z m911 -461 c134 -14 244 -26 245 -27 1 -1 36
-69 78 -152 41 -82 102 -192 136 -243 l61 -92 -25 -23 c-16 -15 -49 -89 -101
-227 -42 -113 -80 -211 -84 -218 -5 -9 -40 47 -100 160 -51 95 -102 181 -113
191 -27 23 -69 22 -102 -4 -48 -38 -39 -69 103 -332 l129 -239 -16 -40 c-15
-38 -17 -40 -51 -34 -20 3 -103 13 -186 23 -82 9 -153 19 -157 22 -3 3 6 121
21 261 27 247 29 257 54 282 33 33 37 88 8 117 -10 10 -84 44 -165 76 -80 31
-146 61 -146 66 0 5 15 40 34 78 40 78 98 239 116 324 7 31 14 57 15 57 2 0
112 -11 246 -26z m-3631 -218 c0 -2 -7 -7 -16 -10 -8 -3 -12 -2 -9 4 6 10 25
14 25 6z m3234 -412 c112 -43 105 -21 81 -233 -14 -121 -25 -178 -25 -125 0
23 -38 61 -170 169 -52 43 -94 81 -93 86 5 16 95 139 103 139 4 0 51 -16 104
-36z m1142 -352 c-72 -120 -78 -135 -70 -164 5 -17 21 -40 36 -51 23 -17 34
-19 65 -11 35 8 44 19 111 129 40 66 77 119 82 118 5 -2 39 -22 77 -47 83 -53
226 -125 331 -167 42 -17 78 -32 80 -34 2 -2 -4 -17 -12 -34 -36 -68 -4 -141
60 -141 52 0 73 16 99 74 l23 53 73 -19 c40 -10 74 -20 77 -22 8 -9 -73 -356
-84 -356 -5 0 -50 14 -100 30 -297 102 -712 216 -974 269 l-135 27 -38 66 -38
66 101 268 c56 148 104 272 107 277 2 4 50 -39 106 -95 l102 -103 -79 -133z
m-1286 -32 c70 -58 91 -70 120 -70 36 0 69 24 84 60 3 8 4 2 1 -15 -2 -16 -7
-65 -11 -107 l-6 -77 -122 6 c-66 3 -137 8 -156 12 l-35 6 14 128 c8 70 17
127 20 127 3 -1 44 -32 91 -70z m-274 -27 c-13 -139 -18 -163 -32 -163 -13 0
-85 71 -92 91 -3 7 111 130 127 137 2 1 1 -28 -3 -65z m-1618 -1095 c28 -35
80 -92 116 -128 36 -35 66 -68 66 -73 0 -5 -23 -36 -52 -69 l-51 -60 -79 121
c-43 66 -88 125 -99 132 -29 15 -85 3 -104 -24 -30 -43 -19 -77 68 -213 46
-71 86 -134 90 -140 4 -7 -82 -114 -198 -249 -113 -131 -209 -244 -214 -253
-10 -18 0 -25 -207 131 l-169 128 102 102 c116 116 124 137 74 188 -52 52 -75
43 -205 -77 -63 -58 -118 -106 -121 -106 -9 -2 -304 195 -305 202 0 3 109 40
243 83 396 129 818 285 935 346 20 11 42 20 49 21 6 0 34 -28 61 -62z m330
-335 c5 -10 20 -58 33 -108 14 -56 32 -98 46 -112 41 -42 112 -22 137 37 l11
27 33 -22 32 -22 -47 -18 c-27 -9 -99 -40 -161 -67 -62 -28 -114 -49 -116 -47
-2 2 -31 46 -64 98 l-61 95 52 59 c29 32 58 67 66 78 17 24 28 24 39 2z m-266
-468 c-99 -58 -199 -123 -320 -207 l-83 -58 198 229 198 229 47 -70 47 -71
-87 -52z m1215 -147 c-3 -7 -18 -42 -33 -78 l-29 -65 -7 50 c-13 104 -13 105
33 105 29 0 40 -4 36 -12z m-2778 -1159 l38 -42 -89 -121 c-49 -67 -97 -133
-106 -149 -10 -16 -22 -25 -31 -22 -21 8 -441 266 -445 274 -3 4 -2 26 1 49
l6 42 83 0 84 0 0 -35 c0 -56 23 -101 59 -113 70 -24 127 32 114 111 l-6 36
109 4 c60 1 117 4 127 5 10 1 35 -16 56 -39z"/>
</g>
</svg>
