<?xml version="1.0" standalone="no"?>
<!DOCTYPE svg PUBLIC "-//W3C//DTD SVG 20010904//EN"
 "http://www.w3.org/TR/2001/REC-SVG-20010904/DTD/svg10.dtd">
<svg version="1.0" xmlns="http://www.w3.org/2000/svg"
 width="1536.000000pt" height="522.000000pt" viewBox="0 0 1536.000000 522.000000"
 preserveAspectRatio="xMidYMid meet">
<metadata>
Created by potrace 1.16, written by Peter Selinger 2001-2019
</metadata>
<g transform="translate(0.000000,522.000000) scale(0.100000,-0.100000)"
fill="#000000" stroke="none">
<path d="M6348 5214 c-3 -3 -50 -13 -104 -23 -55 -10 -125 -26 -157 -35 -32
-9 -75 -16 -95 -16 -36 0 -98 -13 -137 -29 -11 -5 -38 -14 -60 -20 -22 -7 -49
-16 -60 -21 -18 -7 -56 -19 -175 -52 -25 -6 -52 -13 -60 -13 -8 -1 -28 -7 -45
-14 -16 -7 -56 -21 -88 -32 -32 -11 -76 -31 -98 -44 -21 -14 -43 -25 -47 -25
-5 0 -20 -8 -33 -18 -13 -11 -71 -31 -129 -46 -107 -28 -184 -64 -255 -121
-22 -18 -51 -38 -65 -45 -14 -7 -59 -38 -100 -69 -41 -30 -118 -84 -170 -118
-52 -34 -126 -86 -163 -115 -38 -29 -78 -58 -90 -65 -12 -6 -28 -21 -37 -31
-21 -28 -122 -107 -159 -126 -17 -9 -31 -20 -31 -25 0 -18 -80 -62 -146 -81
-96 -27 -156 -59 -224 -121 -15 -15 -219 -126 -238 -130 -21 -4 -144 -56 -225
-93 -43 -20 -87 -36 -98 -36 -10 0 -19 -4 -19 -9 0 -5 -10 -12 -22 -16 -26 -7
-45 -15 -101 -39 -21 -9 -47 -16 -57 -16 -11 0 -20 -4 -20 -8 0 -4 -21 -14
-47 -21 -27 -7 -57 -16 -68 -19 -11 -3 -23 -6 -27 -7 -3 0 -10 -3 -14 -8 -4
-4 -14 -7 -21 -7 -8 0 -32 -9 -54 -20 -23 -10 -61 -22 -85 -26 -24 -3 -46 -10
-49 -14 -3 -4 -29 -14 -57 -20 -29 -7 -58 -16 -64 -21 -6 -5 -14 -6 -17 -3 -5
6 -77 -16 -124 -38 -11 -6 -25 -8 -30 -5 -6 4 -33 -3 -62 -13 -28 -11 -60 -20
-70 -20 -10 0 -30 -9 -44 -20 -14 -11 -35 -20 -47 -20 -12 0 -45 -11 -73 -24
-29 -13 -77 -34 -107 -47 -30 -12 -72 -33 -92 -46 -21 -13 -38 -21 -38 -18 0
3 -36 -20 -79 -50 -44 -30 -86 -55 -94 -55 -9 0 -26 -13 -39 -29 -14 -16 -36
-32 -49 -36 -13 -4 -36 -16 -51 -27 -15 -10 -46 -25 -69 -33 -23 -9 -48 -20
-56 -26 -7 -6 -13 -9 -13 -6 0 7 -146 -69 -160 -83 -10 -10 -50 -30 -60 -30
-12 0 -129 -76 -145 -94 -20 -23 -109 -86 -120 -86 -7 0 -30 -12 -52 -27 -63
-44 -76 -53 -105 -64 -16 -6 -28 -15 -28 -20 0 -5 -17 -17 -37 -27 -21 -9 -44
-25 -51 -34 -7 -10 -20 -18 -28 -18 -8 0 -14 -4 -14 -8 0 -4 -15 -16 -32 -27
-18 -10 -52 -38 -76 -62 -24 -24 -47 -43 -51 -43 -5 0 -11 -10 -15 -22 -3 -13
-23 -43 -45 -68 -22 -24 -38 -46 -36 -49 3 -2 -11 -26 -30 -53 -19 -26 -35
-54 -35 -61 0 -6 -7 -31 -15 -53 -16 -47 -19 -100 -9 -161 6 -36 3 -48 -18
-76 -41 -52 -42 -109 -5 -187 25 -52 58 -91 158 -190 69 -69 172 -159 229
-200 91 -66 106 -81 124 -125 11 -28 47 -88 81 -135 34 -47 74 -104 89 -128
15 -24 60 -78 100 -120 40 -42 104 -122 144 -177 39 -55 84 -113 101 -130 17
-16 36 -46 41 -66 12 -45 63 -108 147 -182 48 -43 73 -58 113 -66 124 -27 146
-13 328 204 13 15 42 71 64 124 22 53 43 101 48 106 4 6 13 32 19 60 7 27 17
55 23 62 20 24 91 15 313 -40 33 -8 96 -22 140 -31 44 -10 103 -23 130 -31 97
-25 151 -37 195 -41 25 -3 68 -9 95 -15 28 -5 68 -11 90 -13 22 -3 67 -10 100
-17 67 -14 693 -21 757 -9 21 4 41 3 46 -2 6 -6 67 -9 149 -8 76 1 161 2 188
1 183 -4 272 -3 288 4 10 4 33 5 52 2 18 -3 55 1 82 9 62 19 185 26 528 28
l280 1 45 28 c25 15 58 37 73 50 26 20 40 22 147 23 103 1 128 5 197 30 94 34
150 67 233 137 41 35 48 37 73 28 13 -5 60 -15 103 -21 75 -10 132 -33 227
-90 17 -11 39 -23 47 -27 8 -3 29 -17 46 -30 17 -13 35 -23 40 -23 5 0 17 -9
27 -20 9 -11 23 -20 31 -20 7 0 19 -7 26 -15 7 -8 21 -15 31 -15 11 0 24 -10
30 -23 6 -12 25 -29 42 -37 32 -13 119 -78 125 -92 2 -5 10 -8 18 -8 12 0 29
-11 68 -45 6 -5 17 -10 24 -10 6 0 12 -4 12 -8 -1 -16 59 -57 82 -57 13 0 29
-5 36 -12 9 -9 13 -7 18 5 5 15 10 14 37 -7 46 -34 90 -40 113 -15 18 20 18
20 31 -6 8 -14 18 -25 23 -25 11 0 50 40 50 52 0 4 8 8 17 8 9 0 29 15 44 32
16 18 28 27 29 20 0 -10 5 -10 20 -2 16 9 22 8 26 -4 5 -12 20 -15 64 -13 48
2 60 5 64 21 3 12 10 16 20 13 8 -3 17 -1 20 6 2 7 5 2 5 -9 1 -27 29 -40 38
-18 3 8 12 13 19 10 7 -3 17 1 21 9 5 7 17 13 27 12 29 -3 50 42 31 64 -8 8
-15 23 -15 32 0 8 -11 24 -25 35 -14 11 -25 24 -25 29 0 5 -20 14 -45 21 -25
7 -45 16 -45 21 0 5 -13 14 -30 21 -16 7 -30 17 -30 22 0 5 -8 8 -17 6 -10 -2
-19 4 -21 13 -2 11 18 25 68 48 71 33 72 33 148 22 149 -21 155 -20 165 16 9
29 13 31 38 26 20 -4 29 -1 29 7 0 9 13 11 45 8 40 -5 335 -144 545 -257 30
-17 82 -37 115 -45 99 -24 555 -53 555 -35 0 19 21 7 30 -17 8 -20 15 -24 28
-18 9 4 34 8 54 10 20 2 51 10 68 19 18 10 58 16 98 17 58 1 75 -3 127 -31 54
-30 68 -33 147 -34 73 -1 92 2 115 19 16 11 48 26 72 33 24 7 53 23 66 37 12
13 32 24 44 24 12 0 38 12 56 26 33 25 36 25 92 14 83 -16 93 -20 93 -33 0 -8
-13 -11 -39 -9 -60 6 -105 -14 -146 -64 -21 -25 -35 -47 -32 -50 2 -3 35 2 73
10 38 8 91 17 118 20 27 4 61 14 75 23 14 9 44 20 66 23 30 4 44 13 62 39 31
45 29 60 -7 68 -35 6 -70 46 -70 77 0 26 85 80 140 90 47 9 76 45 84 108 4 28
16 64 27 80 l20 28 120 0 c94 0 119 3 119 14 0 7 11 34 25 59 25 45 48 59 112
72 18 4 36 12 40 18 5 7 14 50 20 97 7 47 15 104 19 127 5 34 1 53 -20 96 -14
30 -26 61 -26 70 0 9 -6 20 -14 24 -28 16 -19 78 15 109 24 22 24 40 -2 95
-12 24 -23 62 -24 83 -2 32 -10 47 -44 79 -46 42 -61 72 -61 118 0 19 -5 29
-15 29 -8 0 -15 7 -15 16 0 9 4 14 9 12 85 -33 472 -153 561 -174 30 -7 89
-22 130 -34 110 -31 210 -56 255 -65 22 -4 45 -11 50 -15 19 -16 174 -50 227
-50 41 0 60 5 76 20 12 12 22 25 22 30 0 6 9 10 20 10 23 0 24 -1 9 -33 -8
-18 -8 -30 0 -46 10 -18 21 -21 67 -21 55 0 56 1 50 25 l-7 26 58 -30 c32 -15
78 -32 103 -36 25 -4 74 -18 109 -31 114 -43 222 -64 317 -63 49 1 116 -3 149
-10 117 -22 178 -17 100 9 -39 13 -45 25 -16 33 12 3 22 -1 25 -10 4 -10 14
-13 31 -9 14 4 25 2 25 -4 0 -5 9 -10 19 -10 11 0 26 -7 35 -15 8 -8 19 -15
25 -15 5 0 14 -8 20 -17 14 -25 97 -25 115 0 12 16 16 16 42 2 16 -8 37 -15
47 -15 10 0 34 -7 55 -16 69 -29 262 -54 262 -34 0 5 -7 10 -15 10 -8 0 -15 8
-15 18 0 16 -21 32 -62 48 -21 7 -24 34 -5 34 7 0 18 -5 25 -12 7 -7 40 -11
87 -10 60 2 75 -1 75 -12 0 -23 20 -29 39 -12 24 22 39 20 61 -6 14 -18 26
-21 66 -19 27 1 50 6 52 11 2 5 10 6 18 3 9 -3 14 1 14 12 0 13 8 16 34 14 19
-2 38 0 42 4 4 4 20 7 36 7 17 0 28 5 28 13 0 18 -32 47 -52 47 -16 0 -57 39
-42 41 5 1 31 2 59 3 49 1 50 2 63 40 7 22 9 42 5 45 -16 12 -63 112 -58 122
4 5 13 9 21 9 38 0 126 54 160 98 19 25 48 52 65 59 17 7 29 19 29 31 0 20 29
52 47 52 14 0 24 40 17 67 -4 16 0 22 19 27 36 9 90 96 81 130 -3 14 -10 26
-16 26 -5 0 -16 16 -23 35 -14 32 -14 35 10 59 13 13 27 36 31 50 4 17 15 27
36 31 32 8 48 32 28 45 -18 11 -5 40 19 40 26 0 51 10 51 20 0 5 -26 16 -57
25 -54 16 -93 42 -93 63 0 11 40 28 90 38 61 12 187 81 193 107 8 30 57 57
104 57 22 0 48 7 59 16 18 15 17 15 -16 9 -19 -3 -60 -8 -90 -11 -30 -2 -77
-11 -105 -19 -172 -50 -267 -52 -210 -5 24 20 19 41 -9 34 -16 -4 -25 -1 -30
12 -9 23 -4 26 49 31 25 3 45 10 45 14 0 5 11 9 24 9 14 0 27 4 30 9 3 4 22
11 42 14 64 11 125 47 140 83 16 38 16 38 59 23 27 -10 38 -8 82 14 45 23 51
30 55 64 9 72 -16 77 -152 29 -46 -17 -98 -27 -133 -28 -32 0 -60 -4 -62 -8
-3 -4 -18 -6 -34 -4 -23 3 -29 0 -25 -11 7 -17 -11 -21 -21 -4 -4 6 -13 8 -20
5 -16 -6 -57 22 -50 35 4 5 1 9 -5 9 -6 0 -8 4 -5 10 3 5 18 7 34 4 20 -4 30
-1 34 10 4 9 13 16 22 16 14 0 35 9 75 32 8 4 22 11 30 14 8 3 44 17 80 30 36
14 79 27 95 29 29 4 164 51 173 60 3 3 -3 13 -12 24 -15 16 -15 22 -4 40 11
18 10 24 -7 41 -15 14 -39 21 -95 25 -41 3 -101 12 -135 19 -33 7 -68 14 -77
15 -42 4 -79 9 -85 11 -5 1 -12 3 -18 4 -5 1 -24 9 -42 19 -18 9 -36 16 -40
15 -10 -2 -86 20 -122 35 -14 6 -33 12 -41 13 -30 6 -105 29 -110 34 -23 24
-94 58 -133 64 -26 4 -63 14 -81 21 -44 18 -222 35 -367 35 -63 0 -141 2 -174
4 -33 3 -96 7 -140 10 -194 12 -255 19 -325 42 -53 17 -106 25 -180 28 -66 2
-119 9 -143 20 -21 8 -71 20 -110 26 -84 12 -149 23 -232 38 -33 6 -118 16
-190 22 -71 6 -177 18 -235 27 -84 13 -150 15 -325 10 -121 -3 -242 -11 -270
-16 -120 -25 -278 -50 -370 -61 -55 -6 -120 -13 -145 -16 -25 -3 -65 -7 -90
-10 -63 -6 -98 -11 -155 -24 -110 -24 -177 -32 -186 -23 -7 7 -6 33 2 76 10
51 10 73 1 92 -7 14 -12 33 -12 42 0 9 -16 49 -36 90 -34 67 -42 77 -118 127
-85 56 -85 56 -316 95 -56 10 -485 8 -530 -2 -14 -4 -43 -9 -65 -13 -64 -10
-257 -75 -295 -99 -19 -12 -46 -25 -60 -28 -14 -3 -43 -10 -65 -16 -63 -16
-152 -22 -265 -20 -168 5 -331 0 -382 -9 -25 -5 -52 -6 -59 -1 -8 4 -18 4 -24
0 -9 -8 -132 -17 -345 -27 -36 -1 -94 -9 -130 -17 -36 -8 -117 -18 -180 -22
-63 -4 -119 -10 -124 -13 -5 -3 -223 -7 -485 -8 -357 -3 -504 -8 -587 -19 -61
-9 -129 -15 -150 -14 -65 3 -207 -11 -219 -21 -7 -6 -23 -10 -36 -10 -50 1
-211 -10 -219 -15 -5 -3 -10 1 -13 7 -3 10 -15 9 -54 -4 -98 -34 -107 -21 -29
40 47 36 55 48 58 79 3 36 6 39 113 95 61 32 112 63 114 70 10 31 80 91 133
115 67 30 98 63 98 104 0 22 6 30 25 35 41 10 47 27 20 57 -28 29 -31 52 -13
94 6 15 12 32 12 37 1 5 8 12 17 15 8 3 22 12 30 19 8 7 23 19 33 26 19 13 19
17 6 57 -7 24 -24 55 -37 70 -33 36 -29 57 17 96 22 19 40 40 40 47 0 7 -13
25 -29 40 -27 26 -31 27 -122 22 -110 -5 -132 -9 -137 -24 -2 -7 -10 -12 -18
-12 -7 0 -11 -6 -8 -14 7 -17 -15 -25 -49 -19 l-27 5 23 18 c12 10 34 20 47
22 18 2 26 10 28 28 5 34 28 50 73 50 46 0 56 13 35 45 -15 23 -45 33 -58 19z
m-5428 -4395 c117 -47 112 -38 116 -185 3 -69 7 -130 10 -135 3 -5 0 -9 -5 -9
-6 0 -11 4 -11 9 0 5 -20 33 -45 63 -25 30 -45 59 -45 63 0 5 -17 31 -38 59
-43 57 -112 163 -112 172 0 9 47 -4 130 -37z m301 -100 c106 -34 310 -125 315
-141 6 -21 -8 -73 -40 -143 -13 -27 -34 -79 -47 -114 -26 -68 -90 -151 -118
-151 -27 0 -98 81 -120 138 -40 101 -65 325 -45 400 7 25 9 26 55 11z"/>
<path d="M15180 2916 c-36 -13 -94 -38 -130 -56 -49 -25 -73 -31 -102 -27 -41
5 -65 -11 -54 -38 8 -23 63 -11 171 38 50 22 117 48 150 57 36 10 60 23 60 31
0 22 -25 20 -95 -5z"/>
<path d="M12230 1469 c0 -17 27 -45 35 -37 3 3 -3 16 -14 29 -16 19 -20 20
-21 8z"/>
<path d="M14080 1380 c0 -5 5 -10 10 -10 6 0 10 5 10 10 0 6 -4 10 -10 10 -5
0 -10 -4 -10 -10z"/>
</g>
</svg>
