<?xml version="1.0" standalone="no"?>
<!DOCTYPE svg PUBLIC "-//W3C//DTD SVG 20010904//EN"
 "http://www.w3.org/TR/2001/REC-SVG-20010904/DTD/svg10.dtd">
<svg version="1.0" xmlns="http://www.w3.org/2000/svg"
 width="292.000000pt" height="185.000000pt" viewBox="0 0 292.000000 185.000000"
 preserveAspectRatio="xMidYMid meet">
<metadata>
Created by potrace 1.16, written by Peter Selinger 2001-2019
</metadata>
<g transform="translate(0.000000,185.000000) scale(0.100000,-0.100000)"
fill="#000000" stroke="none">
<path d="M1086 1732 c-11 -18 3 -94 23 -116 9 -10 48 -43 86 -71 39 -29 81
-63 95 -75 14 -12 32 -27 40 -34 39 -28 61 -70 54 -100 -3 -17 -10 -35 -15
-40 -5 -6 -9 -18 -9 -27 0 -9 -7 -19 -15 -23 -8 -3 -15 -12 -15 -21 0 -20 -53
-20 -74 0 -8 8 -19 15 -24 15 -6 0 -12 7 -16 15 -3 8 -13 15 -22 15 -9 0 -31
9 -48 19 -17 10 -57 24 -89 31 -31 6 -83 22 -115 34 -31 13 -82 27 -113 30
-31 4 -78 14 -105 22 -59 18 -225 36 -313 34 -76 -1 -165 -17 -169 -29 -2 -5
-13 -7 -25 -4 -18 4 -19 3 -7 -7 12 -9 7 -10 -25 -5 -31 4 -37 3 -25 -5 12 -9
10 -11 -12 -7 -15 2 -33 0 -40 -4 -9 -6 -6 -9 10 -9 12 0 22 -5 22 -11 0 -8
-12 -9 -37 -4 -34 6 -36 5 -22 -11 13 -16 12 -17 -11 -11 -14 3 -32 2 -40 -3
-12 -7 -8 -11 18 -16 43 -9 41 -24 -3 -17 -28 4 -35 2 -35 -11 0 -12 10 -16
46 -16 27 0 43 -4 39 -10 -3 -5 -19 -10 -36 -10 -49 0 -32 -20 19 -21 l47 -2
-40 -7 -40 -7 55 -3 55 -4 -47 -3 c-39 -3 -45 -7 -36 -17 8 -8 28 -11 55 -8
28 3 43 1 43 -7 0 -6 -16 -11 -37 -11 -23 0 -33 -4 -28 -9 6 -6 28 -6 53 -2
23 5 42 5 42 1 0 -4 -14 -10 -32 -14 -29 -6 -30 -8 -17 -21 13 -14 20 -14 57
-1 23 8 42 11 42 7 0 -5 -11 -12 -25 -15 -14 -4 -25 -11 -25 -16 0 -15 33 -12
58 6 13 9 26 14 29 11 3 -3 -9 -14 -26 -25 -23 -14 -28 -21 -19 -30 16 -16 33
-15 69 4 17 8 33 13 36 10 3 -3 -6 -11 -21 -17 -28 -13 -37 -35 -10 -25 9 3
28 8 42 11 26 5 26 5 5 -6 -13 -7 -23 -16 -23 -21 0 -11 7 -10 40 7 17 9 30
12 30 7 0 -5 -12 -15 -27 -23 -28 -14 -27 -14 27 -17 l55 -3 -75 -26 c-78 -27
-165 -87 -194 -134 -18 -30 -12 -43 15 -29 9 6 25 7 34 4 14 -6 13 -9 -6 -30
-25 -27 -18 -44 11 -26 29 18 36 15 16 -7 -13 -15 -14 -20 -3 -29 10 -8 16 -6
25 9 7 10 17 19 24 19 6 0 4 -7 -5 -18 -23 -25 -21 -35 5 -26 20 6 21 5 9 -10
-7 -9 -9 -16 -3 -16 5 0 15 7 22 16 8 8 23 20 34 26 16 8 15 4 -7 -20 -31 -33
-20 -57 12 -28 16 14 19 15 24 3 3 -8 0 -20 -6 -26 -19 -19 24 -13 46 6 20 17
20 17 13 -2 -6 -16 -5 -18 5 -7 18 17 34 15 20 -2 -9 -10 -8 -15 3 -19 8 -3
20 1 26 9 7 8 17 14 22 14 7 0 6 -5 -1 -13 -19 -23 0 -27 28 -6 31 23 70 17
50 -7 -6 -8 -16 -14 -21 -14 -6 0 -5 7 2 15 7 8 8 15 2 15 -5 0 -15 -6 -21
-14 -10 -12 -8 -16 10 -21 18 -6 28 -1 44 19 11 14 24 26 29 26 4 0 -2 -12
-14 -27 -20 -25 -20 -28 -5 -31 10 -2 29 10 46 30 32 37 40 30 9 -9 -36 -46
-10 -39 31 7 45 53 53 45 9 -10 l-29 -37 24 5 c13 2 36 19 50 38 14 19 31 34
37 34 7 0 1 -12 -13 -28 -45 -50 -53 -62 -38 -62 7 0 34 23 61 50 60 62 73 65
24 5 -32 -38 -35 -45 -18 -45 12 0 30 16 46 41 15 22 30 38 33 35 3 -3 -7 -22
-22 -41 -15 -20 -25 -39 -21 -42 13 -13 37 10 61 58 15 28 28 49 31 46 3 -2
-5 -25 -17 -51 -22 -45 -19 -77 4 -44 41 57 39 55 31 33 -16 -50 -16 -55 0
-55 9 0 16 6 16 14 0 8 5 18 11 22 8 4 9 0 4 -15 -3 -12 -2 -21 4 -21 5 0 13
9 16 20 3 11 11 20 16 20 6 0 5 -9 -2 -21 -9 -17 -8 -20 2 -17 7 2 24 34 37
71 14 37 28 67 33 67 4 0 2 -15 -5 -32 -29 -71 -29 -75 3 -74 29 1 31 4 45 70
9 38 16 75 16 82 0 8 5 14 10 14 10 0 8 -15 -11 -90 -5 -19 -9 -44 -9 -55 0
-17 2 -18 15 -4 8 8 22 50 30 94 9 43 18 81 22 84 6 7 -5 -91 -13 -114 -4 -10
0 -15 11 -15 9 0 22 13 28 30 6 17 15 30 19 30 4 0 8 7 8 15 0 8 7 15 15 15
18 0 19 -33 4 -135 -5 -38 -12 -106 -14 -150 -3 -44 -14 -143 -25 -219 -19
-129 -20 -159 -4 -143 7 6 43 243 51 332 3 33 9 65 14 70 4 6 10 51 14 100 10
167 23 235 43 235 5 0 12 -62 16 -137 8 -167 16 -193 60 -215 32 -16 34 -16
64 10 28 25 31 32 36 117 14 208 18 236 29 232 7 -2 12 -15 13 -28 5 -145 18
-287 30 -304 7 -11 13 -29 12 -40 -1 -11 5 -95 13 -187 12 -151 15 -168 31
-168 15 0 17 4 9 17 -5 10 -14 86 -20 168 -14 192 -22 482 -12 430 l7 -40 6
35 c4 31 5 29 7 -15 2 -65 21 -98 21 -37 0 23 5 42 11 42 7 0 8 -18 4 -53 -5
-39 -3 -57 9 -72 14 -19 15 -17 17 30 l2 50 7 -58 c9 -72 16 -80 26 -31 l8 39
7 -30 7 -30 1 33 c0 17 6 32 12 32 5 0 8 -3 6 -7 -3 -5 -1 -28 3 -53 6 -39 8
-40 9 -12 1 39 18 43 24 5 4 -26 4 -26 6 5 2 45 21 40 23 -5 1 -37 1 -37 5 -5
2 17 8 32 14 32 5 0 10 -15 10 -32 2 -32 2 -32 9 7 l7 40 2 -43 c1 -30 5 -42
14 -39 6 2 11 18 11 36 -2 40 12 41 20 1 3 -16 10 -30 15 -30 5 0 6 15 1 35
-4 19 -4 35 0 35 4 0 10 -13 14 -30 3 -16 10 -30 17 -30 7 0 8 12 5 32 l-6 33
17 -34 c10 -19 24 -37 31 -39 11 -3 12 0 3 16 -13 25 -14 32 -2 32 5 0 12 -10
16 -23 3 -12 9 -17 11 -10 3 7 0 22 -6 33 -6 12 -9 24 -7 27 3 3 15 -12 27
-34 12 -21 18 -29 14 -18 -15 47 -14 58 4 27 18 -33 18 -33 28 -11 l11 23 18
-27 c20 -32 41 -37 25 -6 -18 32 -4 34 15 2 9 -15 14 -20 11 -11 -6 19 9 25
19 8 3 -6 11 -10 17 -10 7 0 6 6 -2 15 -15 18 0 20 20 3 8 -7 6 -3 -4 10 -11
12 -17 25 -14 28 3 3 15 -7 27 -22 12 -15 24 -24 28 -21 3 4 0 13 -7 22 -15
18 1 20 19 3 10 -11 11 -9 6 7 -6 17 -4 17 13 -4 13 -16 21 -20 26 -12 4 6 5
15 2 20 -9 14 27 23 36 9 6 -11 10 -10 17 1 6 9 11 10 15 2 4 -6 12 -11 19
-11 8 0 8 3 -1 12 -7 7 -12 17 -12 22 0 6 5 5 12 -2 18 -18 38 -15 31 5 -6 16
-5 17 12 3 17 -14 18 -13 12 4 -6 14 -4 17 8 12 8 -3 15 -1 15 5 0 6 6 9 14 6
20 -8 28 4 13 21 -10 13 -9 14 11 3 20 -11 26 -8 23 12 -1 5 9 5 21 1 21 -6
22 -5 8 10 -12 16 -12 18 1 16 7 -1 21 -2 29 -1 13 1 13 2 0 11 -12 8 -10 10
10 10 20 0 22 2 10 10 -12 8 -10 10 10 11 21 1 22 2 5 6 -39 10 -41 25 -2 18
24 -5 37 -4 37 4 0 6 -7 11 -15 11 -20 0 -19 15 2 36 12 12 14 19 6 21 -7 3
-10 10 -7 18 7 18 -48 55 -83 56 -24 0 -26 1 -8 9 19 8 18 9 -4 9 -14 1 -32 8
-42 17 -10 9 -33 20 -51 24 -25 6 -27 8 -10 9 13 1 20 6 17 11 -3 6 3 10 14
10 12 0 21 5 21 10 0 6 16 10 35 10 36 0 48 15 18 23 -10 3 2 6 27 7 35 1 41
3 25 10 -17 7 -16 9 10 9 22 1 26 4 16 10 -11 7 -7 10 15 14 l29 4 -32 2 c-18
0 -33 5 -33 9 0 5 14 6 32 4 20 -3 35 0 42 10 6 8 22 19 36 23 l25 9 -25 7
-25 7 27 1 c14 1 35 4 45 8 16 6 15 8 -7 14 l-25 7 28 1 c30 1 37 17 10 24
-14 4 -13 5 4 6 22 1 44 21 24 21 -6 0 -11 5 -11 10 0 6 9 10 20 10 11 0 20 5
20 11 0 6 -7 9 -15 6 -8 -4 -17 -2 -20 3 -4 6 3 10 15 10 13 0 19 4 14 11 -3
6 -19 9 -35 5 -16 -3 -29 -1 -29 4 0 5 12 10 28 12 l27 4 -25 11 c-14 7 -18
12 -10 13 27 1 -12 20 -42 20 -16 0 -28 6 -28 13 0 18 -101 48 -186 54 -78 6
-270 -17 -356 -43 -26 -8 -64 -14 -84 -14 -44 0 -68 -7 -226 -67 -64 -24 -127
-52 -140 -63 -13 -10 -53 -32 -88 -49 l-65 -32 -27 33 c-19 24 -25 40 -21 59
3 18 0 28 -11 32 -43 17 14 97 110 153 27 15 51 32 52 36 2 4 9 8 16 8 34 0
156 152 156 194 0 13 -8 4 -21 -24 -22 -48 -131 -160 -157 -160 -8 0 -22 -7
-31 -15 -31 -30 -106 -81 -136 -93 -16 -6 -46 -12 -65 -12 -19 -1 -47 -2 -62
-2 -18 -1 -43 13 -74 38 -25 21 -63 51 -83 67 -20 15 -43 33 -51 40 -8 7 -39
29 -68 50 -28 21 -54 48 -56 60 -19 91 -22 101 -30 89z m272 -645 c2 -10 -3
-17 -12 -17 -10 0 -16 9 -16 21 0 24 23 21 28 -4z m272 -7 c0 -11 -7 -20 -15
-20 -8 0 -15 9 -15 20 0 11 7 20 15 20 8 0 15 -9 15 -20z"/>
<path d="M2728 793 c7 -3 16 -2 19 1 4 3 -2 6 -13 5 -11 0 -14 -3 -6 -6z"/>
<path d="M209 770 c-13 -10 -19 -19 -13 -20 6 0 19 9 29 20 23 26 14 26 -16 0z"/>
</g>
</svg>
