<?xml version="1.0" standalone="no"?>
<!DOCTYPE svg PUBLIC "-//W3C//DTD SVG 20010904//EN"
 "http://www.w3.org/TR/2001/REC-SVG-20010904/DTD/svg10.dtd">
<svg version="1.0" xmlns="http://www.w3.org/2000/svg"
 width="1536.000000pt" height="838.000000pt" viewBox="0 0 1536.000000 838.000000"
 preserveAspectRatio="xMidYMid meet">
<metadata>
Created by potrace 1.16, written by Peter Selinger 2001-2019
</metadata>
<g transform="translate(0.000000,838.000000) scale(0.100000,-0.100000)"
fill="#000000" stroke="none">
<path d="M2974 8370 c-11 -4 -28 -20 -37 -34 -10 -14 -24 -26 -32 -26 -20 0
-72 -83 -90 -143 -14 -46 -13 -50 7 -77 27 -38 20 -97 -28 -220 -47 -124 -83
-258 -93 -360 -5 -47 -16 -98 -25 -115 -36 -73 -51 -687 -21 -907 24 -173 54
-313 91 -423 42 -124 45 -192 9 -250 -29 -47 -32 -93 -10 -215 21 -122 20
-196 -5 -227 -11 -14 -20 -33 -20 -41 0 -40 -180 -222 -220 -222 -43 -1 -101
-42 -146 -102 -25 -35 -51 -66 -58 -71 -6 -4 -33 -6 -60 -5 l-50 3 -10 -55
-11 -54 -199 -98 -198 -98 -62 53 c-33 29 -66 57 -73 61 -8 4 -36 -15 -73 -49
-33 -30 -65 -55 -71 -55 -26 0 -107 54 -125 83 -16 27 -19 50 -18 137 1 58 4
137 8 175 5 54 2 82 -11 120 -29 81 -74 70 -143 -36 -56 -87 -82 -174 -85
-283 -3 -84 -6 -99 -50 -196 -55 -122 -58 -127 -100 -145 -18 -7 -41 -25 -51
-40 -95 -134 -121 -115 -135 98 -5 71 -11 133 -14 138 -11 17 -74 10 -94 -10
-34 -34 -41 -89 -42 -336 -1 -132 -4 -251 -8 -265 -14 -54 -139 -80 -203 -43
-37 22 -68 80 -68 127 0 50 -21 66 -85 66 -53 0 -85 -16 -85 -43 0 -29 24 -94
46 -126 27 -41 32 -102 9 -121 -18 -15 -63 1 -92 32 -16 18 -64 48 -77 48 -3
0 -10 -9 -16 -19 -7 -15 -2 -48 20 -135 34 -131 37 -197 15 -336 -18 -113 -39
-180 -66 -214 -13 -16 -18 -33 -14 -46 10 -32 103 -108 194 -157 66 -36 504
-233 518 -233 12 0 -1 -32 -17 -40 -11 -6 -145 -24 -297 -41 -152 -16 -278
-30 -278 -32 -1 -1 -7 -50 -14 -108 -6 -58 -23 -148 -37 -200 -20 -72 -25
-106 -20 -147 8 -69 30 -110 61 -118 53 -13 81 40 94 171 6 66 13 102 25 113
30 30 155 8 181 -32 14 -22 14 -33 0 -120 -19 -123 -19 -162 4 -212 14 -31 30
-47 63 -63 65 -31 75 -28 80 24 3 26 17 62 33 85 26 38 27 41 16 103 -15 89
-14 124 5 131 31 12 101 6 158 -14 32 -12 101 -30 154 -41 54 -10 102 -26 108
-34 6 -8 16 -47 23 -86 12 -73 29 -115 56 -143 39 -39 66 -3 88 115 l13 74
120 -2 c238 -5 264 -20 348 -191 62 -125 75 -142 112 -142 34 0 45 23 52 112
l7 83 90 -3 c50 -2 122 -10 160 -19 125 -27 122 -27 196 7 78 36 79 36 157
-34 55 -49 119 -79 154 -72 17 3 50 24 75 46 25 22 56 40 69 40 23 0 28 -8 38
-71 15 -86 108 -133 496 -249 207 -62 268 -89 331 -151 102 -99 149 -250 180
-579 37 -400 107 -751 170 -856 10 -17 23 -54 30 -82 13 -61 37 -74 89 -47 22
12 43 15 64 10 39 -9 110 -9 156 0 30 6 41 2 74 -24 70 -55 116 -49 116 16 0
39 26 90 72 140 78 85 76 77 31 131 -91 108 -243 375 -243 426 0 11 -42 109
-94 216 -135 280 -159 351 -160 473 -1 129 2 131 134 122 108 -7 299 -34 505
-70 176 -31 445 -48 640 -40 452 18 721 57 861 125 46 23 84 32 150 39 95 8
134 23 174 65 32 35 154 113 255 164 90 45 607 222 649 222 15 0 47 9 70 20
66 29 131 42 232 43 87 2 95 0 170 -37 70 -35 97 -58 235 -197 l156 -157 7 70
c3 38 11 79 17 89 9 18 12 18 39 4 16 -8 81 -63 145 -122 159 -148 237 -214
249 -210 15 5 24 43 25 103 2 105 39 106 114 2 69 -97 151 -168 192 -168 11 0
56 20 99 45 l79 44 21 -27 c117 -150 172 -197 224 -188 43 6 56 18 98 83 19
29 40 53 47 53 7 0 44 -32 82 -71 85 -87 148 -129 191 -129 32 0 32 0 39 63 8
64 35 132 57 140 22 7 67 -16 196 -101 68 -45 132 -82 143 -82 21 0 26 15 33
109 7 102 15 106 191 106 l145 0 35 37 c48 54 106 48 183 -17 42 -35 66 -29
137 35 92 84 128 103 178 98 55 -6 221 -84 268 -126 64 -56 151 -39 263 52 31
25 74 50 96 56 34 9 45 19 68 61 29 53 66 112 107 168 21 28 25 45 25 100 0
77 -22 131 -79 200 -21 25 -45 60 -54 76 -8 17 -40 62 -71 100 -52 65 -66 92
-80 155 -10 49 -67 121 -110 140 -56 24 -123 84 -146 130 -12 24 -22 70 -26
123 l-7 85 29 6 c102 20 188 26 419 26 345 0 575 -14 650 -40 32 -11 98 -27
148 -35 49 -9 107 -25 127 -35 20 -10 74 -28 120 -40 46 -12 99 -29 119 -39
20 -10 137 -54 261 -96 124 -43 272 -98 330 -123 58 -24 131 -55 163 -69 55
-23 71 -24 275 -27 208 -4 222 -5 347 -37 107 -28 149 -34 235 -34 129 0 163
12 192 69 27 55 57 86 82 86 35 0 44 13 52 68 6 51 21 78 101 197 19 29 35 66
38 94 8 61 19 104 45 175 18 49 20 71 15 140 -7 79 -6 82 26 129 l32 48 -21
43 c-26 52 -31 109 -41 511 -8 319 -11 335 -64 407 -30 43 -52 99 -66 172 -7
39 -19 69 -36 86 -14 14 -25 30 -25 35 0 20 -54 85 -114 138 l-63 56 -213 -70
c-117 -38 -248 -78 -291 -89 -43 -10 -171 -55 -283 -99 -192 -76 -298 -111
-337 -111 -9 0 -28 9 -42 20 -14 11 -37 20 -51 20 -39 0 -249 -78 -516 -193
-129 -55 -280 -115 -335 -132 -55 -18 -122 -42 -150 -53 -27 -12 -77 -28 -110
-36 -33 -8 -105 -30 -159 -50 -55 -19 -154 -44 -220 -56 -112 -20 -188 -36
-276 -60 -19 -5 -126 -10 -236 -10 -268 0 -424 27 -424 73 0 12 184 198 312
314 37 34 125 108 195 164 153 122 193 159 193 176 0 7 -11 30 -25 51 -13 21
-29 60 -34 87 -14 73 -17 78 -64 103 -51 27 -73 60 -82 127 -7 46 -24 85 -74
173 -19 33 -19 34 2 91 11 31 18 65 14 74 -3 9 -28 29 -54 45 -62 36 -87 63
-101 111 -17 56 -68 97 -139 111 -89 18 -106 29 -119 80 -12 51 -38 70 -95 70
-26 0 -43 8 -64 30 -20 21 -41 31 -74 35 -73 10 -82 15 -97 51 -15 36 -24 40
-118 48 -40 3 -69 13 -95 30 -68 48 -136 36 -335 -56 -71 -32 -141 -62 -157
-65 -25 -5 -29 -2 -34 23 -4 16 -8 35 -11 42 -10 33 -81 3 -265 -114 -130 -83
-162 -93 -207 -70 -37 19 -53 14 -142 -43 -35 -23 -86 -48 -113 -56 -27 -8
-65 -26 -83 -40 -18 -14 -35 -25 -39 -25 -3 0 -23 12 -45 26 -33 22 -48 26
-81 21 -54 -7 -89 -33 -229 -171 -89 -87 -132 -122 -181 -145 -79 -37 -181
-138 -306 -300 -112 -146 -226 -241 -290 -241 -52 0 -67 33 -59 127 4 42 13
91 21 110 18 43 115 140 159 158 22 10 37 25 44 45 8 20 18 30 32 30 47 0 50
105 3 116 -60 15 -165 -48 -181 -109 -4 -17 -25 -44 -45 -61 -30 -24 -49 -31
-96 -34 -54 -4 -60 -2 -66 18 -13 40 4 88 39 115 18 14 47 51 64 83 17 32 41
67 52 77 12 11 27 33 34 50 7 16 43 63 80 104 67 74 89 120 76 156 -11 30
-105 28 -145 -3 -40 -31 -109 -125 -142 -190 -14 -30 -32 -56 -39 -59 -7 -2
-24 -29 -39 -59 -15 -31 -51 -80 -81 -110 -49 -50 -57 -55 -91 -52 -34 3 -39
6 -47 39 -7 28 -4 51 14 105 30 94 85 205 124 251 18 21 42 56 54 79 11 22 58
90 103 150 93 124 137 208 122 233 -14 23 -103 27 -143 6 -35 -18 -144 -160
-192 -250 -17 -33 -51 -86 -75 -117 -24 -31 -55 -80 -70 -108 -28 -54 -37 -58
-71 -34 -98 69 -50 240 122 434 75 84 102 144 116 253 12 99 8 127 -20 127
-37 0 -52 -14 -81 -75 -16 -35 -63 -101 -104 -148 -42 -47 -82 -102 -91 -122
-8 -20 -44 -79 -79 -131 -36 -52 -65 -103 -65 -114 0 -26 -34 -26 -59 -1 -42
42 -56 83 -55 161 1 125 64 254 209 425 37 44 73 94 80 110 24 56 57 140 62
157 7 24 -40 68 -73 68 -49 0 -97 -38 -162 -128 -34 -48 -77 -117 -95 -153
-17 -37 -40 -69 -49 -72 -10 -3 -19 -20 -24 -43 -4 -22 -22 -70 -41 -108 -19
-38 -52 -113 -73 -168 -78 -199 -111 -227 -171 -145 -42 56 -69 115 -69 152 0
59 175 388 265 500 123 151 142 228 61 255 -48 15 -92 -5 -155 -71 -61 -64
-107 -147 -121 -220 -6 -30 -13 -64 -15 -75 -3 -12 -21 -41 -41 -65 -44 -53
-70 -103 -79 -153 -4 -20 -19 -51 -32 -67 -14 -16 -33 -55 -42 -86 -9 -32 -26
-62 -37 -70 -18 -12 -24 -11 -48 8 -40 32 -69 95 -61 135 3 19 29 62 56 96 66
82 81 111 83 167 1 45 0 46 -31 49 -18 2 -49 -5 -70 -15 -54 -25 -150 -122
-158 -158 -14 -66 -83 -195 -105 -195 -16 0 -90 71 -106 101 -20 40 -17 73 11
115 13 20 27 52 31 73 10 57 69 169 135 256 78 101 99 146 99 213 0 60 -24 94
-59 85 -37 -10 -108 -82 -160 -162 -74 -116 -188 -344 -212 -426 -12 -38 -31
-90 -44 -115 -12 -25 -28 -68 -35 -97 -21 -91 -51 -93 -125 -10 -88 97 -114
180 -76 235 11 16 22 54 26 92 4 45 15 79 34 110 16 25 45 77 66 115 20 39 59
100 86 136 60 81 71 109 72 183 1 83 -26 100 -116 75 -85 -23 -150 -122 -227
-343 -28 -83 -62 -171 -75 -197 -14 -28 -32 -95 -44 -168 -25 -148 -49 -201
-90 -201 -34 0 -62 30 -120 128 -58 98 -81 176 -81 272 0 107 26 182 102 295
34 49 70 109 80 133 11 25 36 65 55 90 44 57 44 109 0 130 -44 21 -91 -1 -175
-82 -86 -83 -107 -118 -123 -212 -16 -92 -24 -113 -52 -123 -26 -10 -37 -48
-37 -127 0 -22 -7 -63 -15 -90 -19 -61 -31 -150 -45 -319 -24 -292 -61 -353
-166 -277 -98 72 -165 182 -172 285 -4 50 -1 63 22 95 14 21 26 45 26 54 0 9
17 40 37 69 117 171 123 181 123 214 0 28 -5 35 -30 43 -54 19 -97 -2 -182
-88 -122 -125 -152 -205 -164 -441 -4 -74 -12 -152 -20 -174 -17 -54 -23 -90
-34 -222 -10 -126 -20 -153 -54 -153 -32 0 -136 79 -187 143 -75 94 -83 122
-83 287 1 164 19 265 60 344 31 58 43 160 25 194 -9 16 -21 22 -46 22 -42 0
-61 -19 -76 -73 -13 -50 -41 -107 -82 -167 -51 -74 -57 -106 -67 -360 -14
-337 -22 -366 -98 -364 -55 2 -135 47 -202 115 -68 69 -106 139 -121 226 -9
53 -8 67 6 95 9 18 28 67 42 108 31 94 110 247 168 325 25 33 48 74 51 93 13
68 -17 132 -61 132 -79 0 -224 -248 -300 -515 -27 -91 -48 -135 -65 -135 -29
0 -94 80 -135 164 -74 156 -80 215 -40 408 40 189 81 304 128 355 11 12 24 45
28 74 4 28 21 72 38 97 27 43 42 87 55 169 10 59 -40 81 -99 44 -41 -25 -87
-106 -156 -274 -100 -242 -117 -269 -160 -247 -67 36 -100 279 -63 458 18 89
131 321 188 388 41 48 56 82 56 127 0 47 -13 60 -59 60 -30 0 -48 -7 -74 -30
-18 -16 -49 -39 -69 -51 -37 -23 -53 -51 -64 -115 -8 -48 -63 -122 -90 -122
-12 0 -25 13 -36 35 -19 40 -42 238 -33 282 4 16 32 57 62 91 30 34 59 72 64
85 15 39 11 99 -7 106 -22 9 -105 6 -130 -4z"/>
</g>
</svg>
