<?xml version="1.0" encoding="UTF-8" standalone="no"?>
<!-- Created with Inkscape (http://www.inkscape.org/) -->

<svg
   xmlns:svg="http://www.w3.org/2000/svg"
   xmlns="http://www.w3.org/2000/svg"
   version="1.1"
   width="210mm"
   height="297mm"
   viewBox="0 0 210 297"
   id="svg8">
  <defs
     id="defs2" />
  <g
     id="layer1">
    <path
       d="m 77.218072,187.60303 c 0,0 -1.570208,1.1693 -1.670434,1.36975 -0.100227,0.20046 -0.567948,1.06908 -0.835218,1.26954 -0.267269,0.20046 -1.837478,3.07359 -1.837478,3.07359 0,0 -0.50113,0.90205 -0.601356,1.16931 -0.100226,0.26727 -0.300678,1.20272 -0.26727,1.40316 0.03341,0.20047 0.100226,0.23386 0.233861,0.63477 0.133635,0.40091 1.336348,1.90431 1.336348,1.90431 0,0 2.004521,0.93544 2.138156,1.00226 0.133635,0.0668 0.701582,0.36749 0.701582,0.36749 h 1.904296 l 1.637026,-0.20045 0.835217,0.26726 0.701582,0.70158 c 0,0 0.434313,0.13364 0.634766,0.16705 0.200452,0.0334 1.904295,-0.0334 1.904295,-0.0334 l 3.040191,-0.83523 3.340869,-1.06907 c 0,0 1.570208,-0.90204 1.804069,-1.03567 0.233861,-0.13364 2.772922,-1.06908 2.772922,-1.06908 l 2.071339,-0.66817 1.169304,-0.30068 c 0,0 0.968853,-0.0668 1.135895,-0.0668 0.167045,0 2.145366,0.80151 2.145366,0.80151 l 3.51991,1.63002 3.09468,1.55915 c 0,0 1.27567,1.01582 1.41741,1.15756 0.14174,0.14174 0.73232,0.87407 0.77957,0.96856 0.0473,0.0945 0.90315,2.50265 0.96996,2.80332 0.0668,0.30068 0.26728,1.20271 0.30069,1.60361 0.0334,0.40091 -0.56795,2.73952 -0.56795,2.73952 l -2.13816,5.44562 -1.73725,4.14267 c 0,0 -0.90203,2.27179 -1.10249,2.47224 -0.20045,0.20046 -2.07134,0.90204 -2.20497,0.93544 -0.13364,0.0334 -1.06908,0.53454 -1.40317,0.66819 -0.33408,0.13363 -0.93544,0.73498 -1.03567,0.86862 -0.10022,0.13364 -0.20045,0.3675 -0.20045,0.3675 0,0 0.30068,0.30067 0.83522,0.33409 0.53454,0.0334 1.60362,-0.10023 1.9377,0.0668 0.33409,0.16705 1.16931,-0.13363 1.57021,0.3675 0.4009,0.50113 0.90204,0.56795 1.20271,0.83521 0.30068,0.26728 0.20046,0.66818 0.90204,0.3675 0.70158,-0.30069 3.04019,-2.17156 3.04019,-2.17156 0,0 0.36749,-0.50113 0.60135,-1.10249 0.23387,-0.60137 0.60137,-1.43658 0.76841,-1.80407 0.16704,-0.36749 2.67269,-4.40995 2.67269,-4.40995 l 1.60362,-2.07133 5.0113,-6.9156 c 0,0 2.53906,6.5481 2.70611,6.81537 0.16704,0.26726 1.10248,2.17156 1.1693,2.3052 0.0668,0.13363 0.50113,1.10249 0.50113,1.23612 0,0.13364 0.0668,1.80407 0,1.93771 -0.0668,0.13363 -0.66817,0.93544 -1.00226,1.06906 -0.33409,0.13365 -1.60362,0.93546 -1.77066,1.23612 -0.16705,0.30069 -0.3675,0.36751 -0.23386,0.60137 0.13363,0.23386 1.83748,0.26727 2.03793,0.33409 0.20045,0.0668 0.30068,0.10022 0.66817,0.46772 0.3675,0.36749 2.10475,0.70157 2.17157,0.43431 0.0668,-0.26727 0.80181,-1.36975 1.00226,-1.43658 0.20045,-0.0668 1.00226,-0.26726 1.20271,-0.30067 0.20045,-0.0334 0.43432,-0.53454 0.43432,-0.7684 0,-0.23386 -0.10023,-4.91109 -0.10023,-4.91109 l -0.33409,-5.07811 v -7.45014 l 6.24743,-0.83521 7.55036,-1.5368 9.2208,-1.5368 2.20497,-0.86864 1.60362,-0.0668 2.13816,0.93545 1.07116,2.74798 2.36236,7.13429 c 0,0 1.41741,2.64583 1.41741,2.88208 0,0.23622 0.14174,1.55915 0.14174,1.55915 0,0 -1.08669,3.77975 -1.18118,3.96875 -0.0945,0.18899 -0.47247,2.26786 -0.75595,2.55134 -0.28348,0.28348 -2.74033,1.88988 -2.74033,2.12612 0,0.23622 -0.0945,0.7087 -0.0945,0.94493 0,0.23624 0.18899,0.56696 0.56697,0.61422 0.37797,0.0472 4.29948,-0.0472 4.53571,-0.0472 0.23624,0 1.22842,-0.51972 1.6064,-0.85045 0.37798,-0.33072 0.75595,-0.99218 0.8032,-1.41741 0.0472,-0.42522 0.0945,-1.08668 0.14174,-1.27567 0.0472,-0.18898 2.4096,-5.4334 2.4096,-5.4334 0,0 1.93713,-3.02381 1.93713,-3.3073 0,-0.28348 0,-2.40959 0,-2.88206 0,-0.47247 -0.0473,-3.54353 -0.0473,-3.54353 l 4.44122,-9.63839 c 0,0 2.83482,-4.15774 3.02381,-4.63021 0.18899,-0.47247 1.79538,-4.06324 1.79538,-4.53572 0,-0.47246 0.28349,-3.21279 0.28349,-3.68526 0,-0.47247 -1.13393,-4.63021 -1.13393,-4.63021 l -2.07887,-3.02381 -8.12649,-5.57515 -8.55171,-4.44122 c 0,0 -2.97656,-0.94494 -3.16555,-0.94494 -0.18899,0 -5.57515,-0.56696 -5.57515,-0.56696 l -5.14993,0.56696 -2.92931,0.75595 -1.93713,0.61421 -8.72792,3.69469 -11.42578,4.40995 c 0,0 -4.27631,0.66817 -4.6104,0.73499 -0.33409,0.0668 -1.26953,0.53454 -1.73725,0.73499 -0.46773,0.20045 -1.80407,0.53454 -1.80407,0.53454 l -1.73725,0.40091 -4.67722,0.86862 c 0,0 -5.34559,0.19683 -5.62907,0.19683 -0.28348,0 -3.118304,-0.0472 -3.118304,-0.0472 l -1.55915,-0.66146 -0.755953,0.42522 c 0,0 -0.519717,-0.75595 -0.566964,-1.08668 -0.04725,-0.33073 -0.755952,-1.70089 -0.755952,-1.70089 l -1.086682,-0.42523 c 0,0 -0.803199,-0.0945 -1.039434,0.0945 -0.236235,0.18899 -0.850447,1.08668 -1.039435,1.46466 -0.188988,0.37797 -1.039434,2.45684 -1.039434,2.45684 l -4.488468,2.88207 c 0,0 -3.827009,2.26786 -3.96875,2.50409 -0.141741,0.23624 -3.307291,2.26786 -3.49628,2.64584 -0.188988,0.37797 -1.356901,1.54133 -1.356901,1.54133 z"
       id="path1253"
       style="fill:#000000;fill-rule:evenodd;stroke:#000000;stroke-width:0.26458332px;stroke-linecap:butt;stroke-linejoin:miter;stroke-opacity:1" />
  </g>
</svg>
