<?xml version="1.0" standalone="no"?>
<!DOCTYPE svg PUBLIC "-//W3C//DTD SVG 20010904//EN"
 "http://www.w3.org/TR/2001/REC-SVG-20010904/DTD/svg10.dtd">
<svg version="1.0" xmlns="http://www.w3.org/2000/svg"
 width="982.000000pt" height="1536.000000pt" viewBox="0 0 982.000000 1536.000000"
 preserveAspectRatio="xMidYMid meet">
<metadata>
Created by potrace 1.16, written by Peter Selinger 2001-2019
</metadata>
<g transform="translate(0.000000,1536.000000) scale(0.100000,-0.100000)"
fill="#000000" stroke="none">
<path d="M4263 15352 c-23 -15 -43 -82 -43 -144 1 -120 73 -272 202 -421 96
-111 105 -126 87 -138 -8 -5 -32 -7 -54 -3 -51 7 -444 83 -470 91 -11 3 32
-48 96 -113 139 -143 176 -189 222 -274 69 -126 87 -240 62 -380 -11 -59 -19
-160 -20 -267 -4 -232 -12 -261 -88 -340 -43 -45 -52 -83 -33 -145 6 -22 4
-29 -9 -34 -25 -10 -130 25 -166 56 -36 29 -34 34 28 70 40 24 60 63 79 148
57 270 -64 767 -217 896 -34 29 -49 26 -49 -7 0 -12 -4 -28 -9 -35 -13 -21
-28 5 -60 101 -16 48 -46 111 -66 141 -56 85 -169 184 -280 246 -117 65 -211
150 -221 198 -4 18 -11 35 -16 38 -18 12 -59 -20 -112 -85 -66 -83 -139 -126
-194 -117 -20 4 -50 8 -67 9 -29 2 -30 1 -28 -43 4 -73 69 -193 148 -269 36
-35 64 -69 62 -75 -2 -6 -14 -12 -28 -14 -53 -6 -69 -13 -69 -30 0 -28 91
-113 216 -202 206 -147 272 -225 309 -366 19 -73 52 -629 36 -622 -11 5 -491
507 -605 633 -182 201 -306 367 -306 408 0 29 -54 77 -87 77 -32 0 -69 -29
-82 -63 -5 -12 -11 -47 -15 -78 -8 -66 -36 -116 -72 -130 -59 -22 -107 51
-118 178 -9 111 -66 251 -129 321 -11 12 -24 22 -29 22 -12 0 -9 -95 7 -200
17 -109 19 -188 5 -210 -17 -27 -75 16 -201 150 -148 155 -240 236 -303 265
-67 32 -80 25 -71 -39 17 -131 17 -133 -3 -180 -29 -65 -69 -113 -117 -141
-58 -35 -80 -32 -136 19 -27 24 -91 65 -143 90 -82 40 -308 121 -389 140 -51
12 -27 -18 83 -106 134 -107 137 -121 25 -129 -113 -8 -144 -30 -124 -89 6
-17 9 -37 6 -45 -11 -28 -69 -47 -156 -52 -120 -6 -151 -12 -151 -28 0 -19
122 -90 189 -109 70 -20 105 -20 164 1 68 25 99 1 83 -63 -8 -31 -61 -91 -97
-110 -16 -8 -29 -19 -29 -24 0 -13 151 -13 280 1 57 5 116 7 131 4 54 -12 42
-33 -128 -234 -29 -34 -53 -66 -53 -72 0 -16 33 -10 112 20 134 52 214 64 413
65 208 0 318 -16 465 -68 52 -19 151 -54 220 -79 69 -25 209 -66 311 -92 103
-26 192 -51 199 -55 28 -17 -4 -39 -128 -89 -272 -109 -259 -145 93 -251 334
-101 491 -190 718 -407 184 -175 334 -281 501 -353 88 -38 170 -105 209 -173
60 -102 107 -325 110 -517 1 -126 -11 -173 -50 -178 -29 -4 -60 39 -126 178
-29 63 -66 130 -81 148 -30 35 -60 41 -74 16 -15 -27 -70 -10 -153 47 -94 65
-141 105 -314 269 -144 137 -314 278 -365 305 -16 8 -42 15 -59 15 -35 0 -61
23 -61 54 0 31 -37 63 -88 74 -83 19 -132 -14 -132 -88 0 -26 5 -61 11 -78 6
-17 9 -39 7 -49 -2 -14 -11 -9 -42 24 -48 53 -153 192 -264 351 -73 106 -102
138 -102 116 0 -3 29 -94 64 -202 69 -214 80 -260 67 -280 -12 -20 -54 4 -162
96 -113 95 -172 141 -181 142 -15 0 -8 -45 17 -115 46 -131 34 -137 -125 -60
-134 65 -198 79 -230 50 -11 -10 -20 -24 -20 -31 0 -7 -12 -27 -27 -44 -28
-34 -37 -35 -124 -14 -33 7 -59 -17 -59 -56 0 -17 -9 -38 -22 -50 -31 -28
-131 -27 -287 6 -79 16 -127 22 -133 16 -7 -7 18 -33 68 -74 161 -130 187
-160 147 -172 -10 -3 -79 -8 -153 -12 -167 -8 -184 -15 -111 -46 171 -72 196
-85 199 -99 3 -18 4 -18 -126 -64 -127 -46 -202 -106 -186 -149 17 -44 122
-60 204 -31 46 16 96 20 104 7 2 -4 -4 -27 -15 -51 -10 -24 -19 -51 -19 -61 0
-31 33 -50 87 -50 79 0 130 23 203 94 69 67 119 91 175 84 51 -5 43 -35 -35
-123 -101 -115 -125 -194 -63 -203 11 -2 49 17 86 42 136 93 278 147 439 167
210 26 772 -30 931 -93 28 -11 38 -38 13 -38 -8 0 -28 -12 -45 -26 -86 -72 8
-163 191 -184 154 -18 308 -118 601 -393 235 -220 319 -295 424 -375 64 -49
87 -73 108 -116 30 -61 59 -195 74 -341 37 -352 41 -1028 7 -1063 -4 -3 -20 9
-36 27 -29 32 -50 34 -50 5 0 -25 -17 -15 -74 46 -102 111 -248 332 -327 498
-34 71 -56 141 -75 238 -7 38 -43 73 -82 80 -75 13 -167 89 -330 272 -40 45
-94 97 -120 114 -42 29 -54 33 -107 31 -68 -2 -80 4 -119 66 -19 30 -31 40
-38 33 -6 -6 -15 -55 -20 -109 -5 -54 -13 -102 -18 -107 -10 -10 -44 23 -118
112 -64 77 -108 97 -212 96 -90 -1 -239 -39 -267 -67 -23 -23 -4 -46 105 -130
114 -88 128 -102 111 -113 -7 -4 -61 -10 -120 -14 -60 -3 -111 -9 -115 -13
-10 -10 13 -34 78 -79 76 -53 75 -71 -6 -111 -54 -27 -58 -31 -42 -43 10 -7
48 -16 84 -19 178 -17 263 -63 473 -252 181 -164 343 -303 613 -529 l180 -149
-160 -3 c-245 -5 -387 23 -449 88 -57 59 -125 72 -435 80 -293 9 -398 22 -522
65 -40 14 -75 25 -80 25 -17 0 -7 -16 25 -37 54 -37 107 -90 107 -106 0 -9
-13 -18 -32 -22 -60 -12 -66 -15 -79 -46 -10 -25 -10 -41 0 -80 7 -27 10 -62
6 -78 -9 -43 -65 -87 -135 -107 -62 -17 -82 -31 -58 -39 7 -2 64 -8 126 -14
135 -11 167 -26 151 -69 -6 -15 -28 -49 -48 -77 -93 -122 -95 -120 206 -128
665 -17 1448 -193 1537 -346 46 -79 -46 -75 -306 13 -287 97 -560 144 -779
133 -123 -5 -163 -19 -167 -60 -2 -15 -13 -32 -24 -38 -45 -24 -185 -39 -453
-49 -613 -22 -879 -53 -931 -111 -19 -21 -18 -21 39 -72 32 -29 57 -60 57 -69
0 -29 -70 -71 -244 -149 -91 -40 -163 -76 -160 -81 3 -4 74 -9 157 -9 84 -1
221 -4 306 -8 l155 -6 -228 -182 c-125 -101 -224 -183 -219 -183 4 0 125 27
268 59 143 33 261 58 263 56 1 -1 -97 -89 -218 -195 -121 -107 -220 -195 -220
-196 0 -2 80 36 177 82 199 96 302 134 362 134 34 0 42 -4 53 -27 9 -20 25
-31 52 -38 85 -21 328 56 496 157 189 115 283 141 495 142 219 0 351 -40 503
-153 80 -60 102 -84 87 -99 -3 -4 -61 -10 -128 -13 -198 -10 -311 -59 -460
-202 -97 -92 -188 -155 -237 -163 -98 -15 -195 -69 -348 -191 -138 -111 -214
-159 -280 -179 -29 -9 -56 -23 -59 -31 -4 -9 1 -36 10 -60 16 -44 16 -45 -7
-68 -16 -15 -40 -25 -72 -29 -168 -20 -233 -48 -338 -145 -89 -83 -161 -119
-276 -136 -49 -7 -109 -23 -135 -34 -69 -30 -160 -100 -238 -180 -101 -105
-161 -142 -269 -165 -42 -9 -96 -63 -128 -125 -45 -89 -95 -127 -191 -142 -78
-12 -109 -31 -109 -65 0 -41 48 -80 115 -94 50 -10 72 -10 141 4 94 18 124 20
124 7 0 -16 -109 -110 -278 -239 -221 -169 -282 -242 -218 -258 56 -14 199 39
459 168 165 81 237 105 237 78 0 -18 -28 -67 -112 -193 -94 -142 -128 -209
-128 -254 0 -28 4 -33 23 -33 33 0 98 45 207 142 108 96 177 148 197 148 20 0
16 -52 -11 -122 -13 -35 -65 -146 -116 -247 -105 -211 -113 -228 -100 -236 11
-7 118 79 173 141 74 82 178 227 267 370 164 262 236 369 276 412 102 107 95
7 -23 -306 -36 -95 -64 -175 -62 -177 2 -2 96 67 209 152 232 176 403 293 430
293 30 0 146 100 470 405 235 221 345 295 497 337 69 19 105 21 323 22 191 0
266 -4 338 -17 103 -19 132 -30 132 -52 0 -32 -68 -40 -326 -37 -145 2 -281
-2 -320 -8 -172 -27 -327 -79 -401 -136 -24 -18 -33 -33 -33 -54 0 -16 5 -32
10 -35 35 -22 -23 -100 -117 -154 -84 -50 -124 -81 -118 -92 8 -12 102 -12
235 1 482 44 595 30 726 -92 77 -72 143 -169 254 -373 138 -252 201 -345 235
-345 45 0 18 175 -69 447 -111 347 -137 494 -102 578 30 70 90 31 159 -103 71
-139 100 -239 100 -352 0 -52 -3 -112 -8 -132 -6 -34 -5 -39 19 -50 37 -16 75
-1 100 42 18 30 21 51 20 140 0 159 -46 299 -153 469 -70 110 -100 218 -69
249 18 18 63 14 83 -8 9 -10 27 -41 40 -67 39 -85 217 -340 436 -628 l214
-280 6 -1400 c7 -1425 13 -1893 29 -2410 19 -558 34 -580 50 -73 6 183 15
1156 20 2163 5 1007 14 1902 19 1990 20 303 45 444 98 535 35 60 213 236 348
344 206 164 425 299 455 281 19 -12 -54 -124 -268 -414 -267 -361 -372 -549
-372 -666 0 -121 46 -80 314 279 248 332 361 464 381 444 14 -14 -93 -275
-271 -661 -146 -314 -212 -471 -252 -600 -40 -125 -46 -166 -25 -174 27 -10
96 77 218 272 149 239 213 309 245 270 31 -37 2 -225 -70 -460 -104 -338 -140
-499 -140 -631 0 -85 6 -104 30 -104 24 0 46 32 114 168 34 67 62 112 69 109
9 -3 12 -96 12 -383 0 -324 2 -385 16 -419 31 -77 74 -51 125 75 33 82 53 183
64 322 9 126 25 172 66 190 20 10 29 8 52 -8 43 -32 63 -85 77 -207 24 -201
61 -343 161 -620 79 -217 80 -220 88 -187 80 340 89 408 84 642 -4 166 -9 215
-37 352 -18 87 -31 160 -29 162 2 1 71 -76 153 -172 184 -217 312 -340 332
-320 13 13 -17 146 -73 317 -98 302 -173 475 -272 624 -76 116 -142 182 -261
260 -261 171 -340 385 -136 365 32 -3 65 -43 72 -86 9 -57 20 -67 67 -60 34 6
46 2 93 -29 78 -52 270 -241 452 -445 249 -279 426 -450 468 -450 50 0 -48
221 -196 441 -120 179 -178 250 -330 404 -181 184 -223 265 -132 252 54 -7
133 -49 295 -156 180 -119 198 -121 121 -10 -73 103 -91 206 -40 225 42 16
185 -103 308 -256 108 -135 232 -346 266 -450 6 -20 15 -79 20 -132 9 -97 33
-171 64 -196 43 -36 95 15 116 115 7 32 15 137 19 233 l7 175 33 -165 c73
-362 163 -625 251 -730 40 -49 57 -37 63 45 3 36 9 69 13 73 7 7 37 -26 97
-107 57 -77 66 -67 77 77 4 50 11 95 15 99 26 27 94 -96 227 -407 104 -244
144 -327 201 -417 48 -76 72 -93 89 -62 23 45 -6 195 -107 546 -82 286 -114
440 -121 583 -4 94 -2 122 11 155 23 54 31 36 44 -95 8 -81 18 -126 47 -200
106 -269 352 -677 496 -823 85 -85 108 -76 84 35 -16 78 -62 203 -154 422 -39
93 -69 171 -68 173 2 2 15 -5 28 -15 89 -69 482 -322 563 -363 109 -54 149
-60 154 -21 6 38 -18 91 -88 196 -83 123 -170 210 -228 226 -49 13 -82 44 -82
77 0 49 80 62 244 38 126 -18 185 -15 206 10 52 63 -151 232 -515 431 -178 97
-281 161 -308 191 -42 48 22 38 250 -38 139 -47 153 -50 180 -37 41 19 43 59
3 88 -137 97 -657 277 -1047 361 -81 17 -154 35 -162 39 -28 15 133 22 323 15
264 -9 487 10 533 47 33 26 -30 62 -183 103 -131 35 -164 48 -262 105 -130 77
-225 154 -392 316 -223 217 -302 279 -381 297 -34 9 -42 31 -28 71 10 26 9 38
-6 65 -27 53 -171 197 -290 289 -238 185 -431 367 -494 466 -39 62 -43 116 -8
116 31 0 133 -71 249 -173 120 -106 165 -137 200 -137 24 0 28 4 28 28 0 36
-48 136 -114 236 -73 111 -96 159 -96 201 0 33 2 35 33 35 40 0 81 -25 139
-83 32 -32 67 -53 125 -75 76 -29 382 -97 405 -90 6 2 -121 114 -281 248 -160
134 -290 244 -288 246 1 1 72 -9 157 -22 335 -50 442 -21 338 92 -59 64 -105
94 -320 206 -242 126 -368 209 -368 244 0 70 -775 441 -1257 602 -204 68 -304
84 -568 89 -253 5 -385 -6 -594 -53 -152 -34 -171 -25 -200 101 -32 141 -55
596 -48 948 6 347 14 372 187 552 141 148 151 186 66 245 -55 37 -78 59 -71
69 2 5 36 11 75 15 120 11 206 72 294 208 64 98 135 148 238 167 112 20 263
114 498 311 253 211 350 244 596 201 123 -21 186 -26 197 -15 8 9 -5 33 -48
83 -44 53 -46 92 -7 128 15 14 90 56 167 93 135 65 176 92 157 104 -5 3 -55
10 -112 15 -56 5 -107 14 -113 20 -10 10 3 20 133 105 112 73 166 173 106 195
-33 13 -76 1 -200 -59 -121 -59 -195 -75 -197 -44 -2 35 2 59 27 137 13 43 24
82 24 88 0 33 -76 -22 -270 -195 -52 -46 -96 -83 -98 -81 -1 1 31 92 71 201
100 267 124 354 98 354 -16 0 -85 -84 -161 -194 -109 -159 -190 -235 -190
-178 0 38 -22 92 -41 102 -47 26 -171 -49 -394 -236 -186 -156 -326 -259 -402
-295 -75 -36 -116 -82 -213 -244 -73 -123 -114 -175 -137 -175 -22 0 -15 94
13 178 59 178 164 331 352 512 105 101 133 133 130 151 -2 16 -13 25 -35 31
-28 7 -33 13 -33 39 0 44 56 145 155 279 112 152 178 281 179 350 1 49 4 54
46 90 25 22 103 72 173 112 153 87 257 175 257 218 0 36 48 79 161 141 166 92
374 172 487 189 77 11 131 49 252 177 80 84 102 125 82 145 -14 14 -233 26
-456 27 l-159 1 159 99 c177 110 291 202 349 281 46 63 67 118 54 142 -38 71
-178 -9 -521 -299 -139 -117 -148 -122 -148 -96 0 15 7 158 16 316 17 309 14
381 -17 421 -25 32 -44 32 -150 1 -173 -51 -172 -39 8 217 121 173 163 242
163 268 0 26 -20 25 -97 -1 -34 -11 -77 -19 -95 -17 -29 3 -33 7 -36 36 -2 18
4 64 12 102 20 87 20 140 1 167 -41 59 -127 -47 -189 -232 -14 -44 -30 -86
-35 -94 -18 -28 -38 -1 -75 96 -67 175 -80 181 -137 56 -89 -194 -100 -214
-117 -211 -13 2 -19 19 -24 63 -15 115 -93 231 -151 223 -20 -3 -22 -8 -20
-68 1 -36 11 -103 22 -150 26 -104 27 -168 5 -177 -9 -3 -31 2 -50 11 -40 19
-86 21 -117 5 -12 -6 -42 -33 -68 -60 -35 -38 -50 -47 -67 -42 -76 20 -206
302 -175 382 8 23 7 37 -7 69 -39 86 -250 277 -385 348 -72 37 -91 40 -129 22
-35 -15 -66 12 -66 58 0 57 -59 110 -97 86z m252 -947 c40 -40 31 -155 -12
-155 -25 0 -100 84 -108 120 -9 42 8 60 57 60 28 0 46 -7 63 -25z m1775 -364
c31 -59 -11 -160 -133 -319 -103 -136 -157 -87 -107 97 42 150 113 241 190
241 29 0 42 -5 50 -19z m-2794 -2366 c31 -74 7 -282 -29 -246 -8 8 -12 50 -12
129 0 152 12 186 41 117z m1755 -3843 c28 -25 32 -35 31 -77 0 -34 -6 -53 -21
-68 l-21 -21 -50 52 c-58 60 -70 94 -45 122 26 29 69 25 106 -8z m-500 -91
c139 -93 457 -447 520 -580 20 -44 20 -44 1 -70 -35 -48 -65 -56 -212 -56
-316 1 -420 106 -420 425 0 164 27 310 59 310 4 0 28 -13 52 -29z m1107 -206
c10 -29 12 -70 8 -145 -9 -168 -61 -379 -87 -353 -29 29 -39 311 -14 427 25
119 67 150 93 71z m-2563 -141 c-20 -70 -58 -139 -81 -148 -25 -10 -44 13 -44
53 0 44 46 128 92 166 31 26 32 27 41 7 6 -13 3 -40 -8 -78z m768 -16 c28 -14
20 -39 -28 -84 -50 -47 -85 -60 -115 -44 -23 12 -27 67 -9 101 22 43 97 56
152 27z m400 -190 c57 -76 79 -196 78 -433 -1 -277 -27 -389 -96 -422 -30 -14
-40 -15 -87 -2 -45 12 -56 20 -75 54 -58 106 -52 367 13 629 48 191 108 253
167 174z m884 -342 c57 -29 87 -58 108 -108 21 -51 20 -163 -3 -208 -15 -32
-21 -35 -58 -34 -57 1 -130 48 -315 202 -167 139 -279 252 -279 280 0 16 28
11 250 -45 137 -34 271 -73 297 -87z m-1202 -28 c25 -19 27 -26 21 -65 -10
-77 -121 -270 -149 -260 -19 6 -29 69 -24 152 10 162 73 235 152 173z m663
-52 c61 -31 105 -77 105 -111 0 -57 -124 -139 -199 -133 -33 3 -42 8 -57 38
-24 46 -20 163 6 203 23 35 79 37 145 3z m1110 -258 c19 -19 14 -49 -17 -103
-43 -75 -108 -108 -223 -113 -78 -4 -88 -2 -95 14 -15 40 224 213 298 214 14
0 30 -5 37 -12z m-744 -91 c47 -26 86 -79 86 -117 0 -116 -315 -200 -500 -134
-115 41 -117 74 -8 157 158 121 312 155 422 94z m-1023 -166 c72 -27 179 -96
179 -115 0 -21 -25 -27 -130 -33 -108 -6 -228 15 -270 45 -46 35 -33 98 25
123 31 14 134 3 196 -20z m-915 -152 c5 -53 -24 -144 -46 -144 -30 0 -36 157
-8 209 10 18 11 18 30 -2 12 -12 22 -37 24 -63z m3272 -55 c17 -20 32 -46 34
-58 16 -84 -83 -166 -126 -104 -19 26 -22 132 -5 175 20 53 46 50 97 -13z
m-990 -62 c5 -34 -42 -106 -122 -187 -115 -117 -236 -184 -252 -140 -19 48
167 261 281 322 68 37 89 38 93 5z m-1512 -27 c107 -53 171 -102 154 -119 -6
-6 -44 -11 -88 -10 -114 0 -203 45 -232 115 -31 74 36 80 166 14z m-1058 4
c17 -31 10 -125 -13 -169 -17 -32 -18 -33 -31 -15 -9 12 -14 47 -14 98 0 110
25 148 58 86z m1484 -78 c104 -66 145 -230 52 -207 -63 15 -201 190 -179 226
13 21 80 10 127 -19z m1472 -87 c58 -59 20 -154 -63 -154 -32 0 -44 6 -65 31
-35 41 -34 83 3 120 39 38 88 40 125 3z m-2682 -34 c34 -91 14 -184 -47 -212
-22 -10 -30 -8 -53 9 -41 30 -49 63 -29 125 19 61 72 130 95 126 9 -2 24 -23
34 -48z m531 -30 c73 -28 147 -95 147 -133 0 -73 -142 -90 -343 -41 -76 18
-117 45 -117 77 0 32 42 100 70 115 37 20 172 10 243 -18z m3084 -22 c23 -19
12 -106 -21 -170 -37 -72 -88 -147 -105 -153 -26 -10 -32 18 -29 135 3 95 8
122 26 157 12 22 27 44 34 47 19 8 78 -1 95 -16z m-2563 -29 c56 -50 266 -287
266 -301 0 -23 -245 136 -311 202 -42 42 -49 55 -49 88 0 67 27 70 94 11z
m-1979 -164 c38 -37 35 -95 -6 -129 -41 -35 -83 -34 -120 3 -38 38 -39 87 -4
125 33 36 95 37 130 1z m1900 -146 c138 -104 254 -248 310 -386 24 -57 29 -86
33 -178 7 -192 -24 -175 -183 96 -115 197 -278 517 -269 530 7 11 31 -3 109
-62z m2834 34 c14 -50 14 -271 0 -314 -13 -41 -44 -70 -65 -62 -47 18 -64 135
-35 246 41 158 79 206 100 130z m-3603 -361 c17 -10 17 -12 -11 -22 -46 -19
-258 -23 -343 -8 -152 27 -63 48 184 43 83 -1 160 -7 170 -13z m4049 -66 c19
-8 35 -21 35 -27 0 -21 -95 -106 -125 -111 -68 -13 -84 70 -25 125 34 30 64
34 115 13z m440 -456 c27 0 45 -31 45 -75 0 -32 -11 -66 -40 -121 -65 -126
-108 -170 -124 -128 -12 31 -6 191 9 242 16 53 57 97 83 87 7 -3 20 -5 27 -5z
m740 -304 c18 -13 18 -14 -6 -26 -35 -19 -161 -25 -214 -10 -97 27 -55 48 96
49 74 1 111 -3 124 -13z"/>
<path d="M3128 4610 c-93 -16 -215 -64 -408 -162 -218 -109 -353 -199 -358
-237 -4 -23 -2 -24 48 -18 52 6 190 51 380 125 180 69 335 89 366 47 7 -9 10
-24 7 -33 -3 -10 -56 -66 -118 -127 -81 -79 -132 -141 -185 -220 -123 -188
-224 -414 -206 -460 14 -39 108 3 221 100 42 36 81 65 86 65 13 0 11 -28 -6
-84 -30 -99 -9 -280 45 -385 43 -85 62 -52 122 208 41 179 61 236 79 226 13
-9 66 -119 125 -259 56 -136 49 -145 79 87 19 152 9 290 -31 400 -13 37 -36
99 -50 139 -36 101 -43 226 -19 372 16 101 16 114 2 148 -26 61 -85 83 -179
68z"/>
</g>
</svg>
