<?xml version="1.0" standalone="no"?>
<!DOCTYPE svg PUBLIC "-//W3C//DTD SVG 20010904//EN"
 "http://www.w3.org/TR/2001/REC-SVG-20010904/DTD/svg10.dtd">
<svg version="1.0" xmlns="http://www.w3.org/2000/svg"
 width="1536.000000pt" height="749.000000pt" viewBox="0 0 1536.000000 749.000000"
 preserveAspectRatio="xMidYMid meet">
<metadata>
Created by potrace 1.16, written by Peter Selinger 2001-2019
</metadata>
<g transform="translate(0.000000,749.000000) scale(0.100000,-0.100000)"
fill="#000000" stroke="none">
<path d="M15185 7483 c-76 -19 -613 -262 -1000 -453 -749 -370 -1411 -745
-2515 -1425 -333 -205 -810 -497 -1060 -650 -560 -342 -862 -531 -1180 -738
-135 -88 -351 -227 -479 -310 -300 -191 -364 -234 -484 -325 -87 -67 -107 -88
-178 -192 -44 -65 -90 -125 -104 -134 -30 -20 -71 -20 -345 -1 -328 23 -556
54 -1220 165 -448 75 -473 77 -775 90 -412 17 -543 36 -629 91 -99 62 -112
159 -55 389 39 160 43 239 14 290 -57 97 -183 98 -324 3 -86 -59 -220 -205
-314 -342 -115 -169 -182 -242 -244 -269 -111 -47 -368 -54 -843 -21 -180 12
-461 22 -720 26 -905 12 -1328 -46 -2205 -304 -347 -102 -526 -211 -525 -320
1 -83 109 -198 281 -299 57 -34 142 -83 188 -110 92 -54 135 -94 324 -296 113
-122 137 -142 200 -172 89 -42 218 -84 402 -130 176 -44 224 -52 432 -76 211
-25 260 -36 275 -63 17 -32 4 -156 -31 -302 -35 -144 -53 -287 -76 -600 -9
-116 -20 -273 -26 -350 -13 -158 -7 -402 11 -485 49 -223 195 -226 359 -7 22
29 77 115 123 192 199 330 311 561 439 905 89 238 161 398 203 448 33 38 48
39 166 12 193 -45 793 -47 1250 -5 569 54 1099 151 1547 286 335 100 435 110
515 52 24 -17 74 -75 113 -129 131 -185 211 -241 348 -247 56 -2 62 0 74 23
23 45 16 138 -21 254 l-34 107 26 10 c74 28 130 89 117 129 -5 15 5 18 72 23
43 4 130 18 193 31 63 13 138 27 167 31 56 7 150 -8 196 -32 28 -14 29 -14 88
51 42 45 80 75 124 97 59 29 71 31 137 27 129 -9 223 -70 465 -300 226 -216
335 -291 424 -291 111 0 126 120 49 412 -26 100 -40 175 -40 216 0 58 4 68 49
136 99 150 486 592 776 888 541 550 1149 1059 2240 1877 729 546 1217 873
2119 1419 98 59 269 167 380 240 310 203 407 256 551 300 71 22 97 35 128 66
35 34 38 41 26 56 -29 35 -103 51 -164 36z"/>
</g>
</svg>
