<?xml version="1.0" standalone="no"?>
<!DOCTYPE svg PUBLIC "-//W3C//DTD SVG 20010904//EN"
 "http://www.w3.org/TR/2001/REC-SVG-20010904/DTD/svg10.dtd">
<svg version="1.0" xmlns="http://www.w3.org/2000/svg"
 width="1536.000000pt" height="741.000000pt" viewBox="0 0 1536.000000 741.000000"
 preserveAspectRatio="xMidYMid meet">
<metadata>
Created by potrace 1.16, written by Peter Selinger 2001-2019
</metadata>
<g transform="translate(0.000000,741.000000) scale(0.100000,-0.100000)"
fill="#000000" stroke="none">
<path d="M4825 7399 c-445 -40 -685 -82 -1270 -220 -429 -102 -692 -156 -940
-193 -425 -64 -505 -84 -558 -138 -23 -23 -27 -31 -17 -43 33 -40 241 -45 660
-15 323 23 342 23 280 4 -110 -34 -413 -66 -801 -84 -119 -5 -239 -14 -265
-20 -120 -27 -259 -139 -397 -320 -51 -67 -184 -208 -367 -390 -352 -350 -475
-494 -655 -770 -251 -384 -418 -794 -472 -1158 -24 -164 -24 -546 -1 -692 44
-272 127 -487 266 -696 81 -120 217 -254 259 -254 7 0 17 8 22 18 14 26 -3 85
-79 272 -156 386 -205 594 -217 914 -16 436 73 829 281 1245 111 220 240 421
384 595 86 104 261 281 269 272 3 -3 -21 -47 -52 -98 -159 -255 -191 -310
-250 -422 -162 -307 -259 -591 -301 -876 -22 -156 -15 -465 15 -590 39 -168
97 -299 177 -400 52 -67 145 -140 177 -140 23 0 22 4 -26 145 -136 391 -118
793 56 1240 146 377 407 805 624 1021 117 117 218 157 408 158 84 1 121 -3
158 -17 42 -17 77 -48 77 -69 0 -4 -48 -48 -108 -97 -407 -337 -677 -788 -781
-1306 -45 -225 -51 -479 -16 -690 90 -544 485 -1163 1025 -1606 694 -568 1448
-924 2520 -1188 388 -96 510 -104 510 -37 0 32 -45 69 -117 96 -32 12 -166 53
-298 91 -1364 396 -2245 893 -2867 1619 -259 302 -454 672 -538 1020 -22 88
-23 115 -23 370 1 306 8 355 69 533 109 316 303 602 543 801 74 61 223 166
237 166 3 0 32 -24 63 -53 95 -88 239 -174 491 -295 673 -321 1331 -533 2025
-652 217 -37 450 -67 588 -76 223 -14 139 -32 -518 -109 -1079 -126 -1227
-158 -1459 -314 -282 -191 -627 -577 -721 -809 -31 -76 -41 -158 -23 -191 21
-39 72 -64 114 -56 55 10 114 77 262 298 129 191 212 298 344 441 l63 68 220
23 c983 105 1741 258 2278 459 228 85 273 98 349 94 55 -3 63 -6 66 -23 8 -59
-267 -357 -543 -586 -207 -172 -382 -302 -720 -539 -601 -420 -809 -582 -1005
-779 -172 -173 -193 -210 -198 -358 -4 -95 -2 -105 21 -146 28 -47 105 -126
177 -180 289 -217 962 -475 1485 -567 145 -26 404 -37 490 -21 135 25 295 139
295 210 0 58 -16 63 -265 76 -262 14 -520 62 -770 142 -425 137 -949 407 -981
505 -16 50 230 257 736 620 864 619 950 687 1276 1012 173 173 243 251 324
361 146 198 163 215 221 215 26 0 51 -5 54 -10 14 -22 -19 -126 -74 -233 -125
-246 -332 -531 -728 -1004 -295 -353 -384 -493 -414 -654 -29 -157 51 -306
266 -499 157 -140 504 -399 705 -527 224 -142 321 -178 463 -171 103 4 175 31
239 87 69 60 112 189 74 221 -12 9 -31 4 -98 -27 -71 -33 -93 -38 -153 -38
-61 0 -80 5 -145 38 -173 86 -762 572 -931 769 -55 64 -61 74 -56 106 15 87
81 182 347 497 528 625 772 959 926 1267 80 161 86 168 138 168 28 0 48 -6 57
-17 19 -23 15 -102 -11 -204 -56 -217 -179 -471 -480 -989 -169 -289 -226
-446 -218 -596 4 -71 9 -89 39 -139 87 -146 272 -240 544 -274 44 -6 184 -18
310 -26 127 -8 298 -23 380 -32 83 -9 222 -17 310 -18 156 0 162 1 223 29 71
33 119 81 158 158 49 96 42 238 -11 238 -9 0 -45 -18 -80 -41 -47 -30 -81 -43
-127 -49 -68 -10 -266 1 -478 25 -69 8 -208 19 -310 25 -224 13 -311 25 -411
56 -86 27 -129 56 -129 86 0 30 64 160 185 379 319 575 489 946 575 1255 12
43 26 83 30 88 5 5 51 25 102 45 110 44 193 96 343 216 61 49 130 98 155 109
88 40 218 22 567 -81 l122 -35 -26 -57 c-40 -87 -79 -217 -98 -321 -26 -144
-32 -507 -11 -680 56 -455 204 -788 471 -1056 166 -166 337 -273 530 -329 157
-46 305 -35 305 23 0 25 -28 49 -135 117 -384 246 -616 561 -723 983 -26 103
-27 117 -26 357 0 255 11 368 49 490 26 85 13 84 200 27 93 -28 172 -55 178
-61 6 -6 5 -49 -3 -124 -19 -173 -8 -434 24 -562 72 -291 212 -565 436 -855
91 -118 336 -364 450 -452 113 -87 177 -125 258 -154 104 -37 232 -30 232 13
0 10 -52 67 -117 128 -430 399 -658 724 -764 1085 -16 52 -91 397 -114 520 -3
14 -1 32 4 40 12 18 68 5 239 -57 l122 -45 15 -52 c8 -28 23 -107 34 -176 28
-171 62 -283 132 -429 159 -333 415 -614 786 -865 132 -89 222 -136 317 -165
124 -38 266 -21 266 33 0 30 -34 60 -173 150 -313 205 -578 467 -729 723 -84
143 -158 366 -173 521 -7 66 -6 72 11 72 29 0 284 -79 316 -98 31 -18 27 -10
80 -162 77 -222 184 -394 353 -565 198 -200 491 -396 693 -464 105 -36 231
-24 240 23 10 52 -32 103 -153 181 -393 256 -667 592 -719 884 l-6 33 68 -7
c72 -7 226 -32 255 -41 10 -3 36 -42 59 -87 60 -120 111 -190 217 -301 157
-162 359 -303 596 -417 122 -60 134 -63 215 -67 109 -5 125 5 124 76 -1 77
-21 100 -259 286 -111 88 -335 304 -335 324 0 17 -14 18 225 -27 100 -19 169
-37 185 -49 39 -29 66 -85 291 -612 259 -606 335 -773 544 -1195 268 -542 452
-864 536 -939 41 -38 47 -40 74 -30 40 16 105 208 105 313 l0 55 33 -32 c73
-71 82 -44 81 258 -1 270 -16 397 -74 615 -123 465 -460 1164 -907 1883 -141
226 -170 284 -194 379 -23 90 -61 174 -127 274 -78 119 -142 193 -326 379
-113 115 -184 195 -206 233 -72 129 -210 278 -456 493 -80 71 -163 153 -192
192 -28 37 -122 137 -209 222 -422 411 -743 638 -1264 895 -743 367 -1479 570
-2499 689 -118 14 -388 41 -600 61 -535 49 -567 55 -906 176 -552 197 -1000
278 -1704 309 -270 11 -733 11 -865 -1z m-2875 -972 c0 -21 -246 -177 -280
-177 -40 0 50 96 127 135 48 24 75 34 151 54 1 1 2 -5 2 -12z m1140 -1 c0 -2
-51 -21 -112 -42 -141 -46 -266 -102 -387 -172 -52 -30 -133 -69 -180 -87
-163 -63 -404 -113 -466 -97 l-28 8 44 38 c119 102 327 214 524 281 174 59
257 73 443 74 89 1 162 -1 162 -3z m6014 -66 c545 -84 1215 -370 1986 -848
932 -578 2042 -1498 2510 -2081 27 -34 50 -69 50 -77 0 -56 -129 41 -410 308
-675 642 -1206 1073 -1858 1507 -764 510 -1391 819 -2272 1122 -251 86 -254
88 -195 88 33 1 118 -8 189 -19z"/>
</g>
</svg>
