<?xml version="1.0" encoding="UTF-8" standalone="no"?>
<!-- Created with Inkscape (http://www.inkscape.org/) -->

<svg
   version="1.2"
   width="57.614025"
   height="318.09503"
   viewBox="0 0 57.614027 318.09503"
   id="Layer_2"
   xml:space="preserve"
   style="overflow:inherit"
   xmlns="http://www.w3.org/2000/svg"
   xmlns:svg="http://www.w3.org/2000/svg"><defs
   id="defs7" />
<path
   d="m 21.975636,1.85 c 0.367,-1.133 0.716,-1.75 1.05,-1.85 0.033,0.267 1.783,11.017 5.25,32.25 2.7,16.667 4.05,28.45 4.05,35.35 0,2.5 -0.833,8 -2.5,16.5 0,1.367 0.05,3.667 0.15,6.9 0.167,4.4 0.367,7.817 0.6,10.25 v 20.25 c 0.767,3.767 2.333,15 4.7,33.7 2.5,19.566 3.75,31.183 3.75,34.85 0,0.833 -0.25,6.9 -0.75,18.2 0,3.47 -0.242,6.587 -0.725,9.35 0.404,0.28 0.729,0.613 0.975,1 0.667,1.3 0.883,4.617 0.65,9.95 0,3.934 0.15,6.684 0.45,8.25 0.014,0.067 0.031,0.134 0.05,0.2 8.633,6.6 14.133,15.066 16.5,25.4 3.733,16.366 0.2,30.716 -10.6,43.05 -9.6,10.967 -21.117,14.8 -34.55,11.5 -2.9330002,-0.733 -5.0000002,-2.667 -6.2000002,-5.8 -6.1,-16 -6.417,-32.334 -0.95,-49 1.467,-4.5 3.9,-8.5 7.3000002,-12 4.1,-4.267 8.083,-8.65 11.95,-13.15 1.26,-1.462 2.01,-2.712 2.25,-3.75 0.333,-1.333 0.9,-3 1.7,-5 1.233,-3 1.883,-4.583 1.95,-4.75 0.133,-0.367 0.583,-2 1.35,-4.9 0.336,-1.224 1.127,-1.933 2.375,-2.125 0.171,-2.255 0.429,-5.647 0.775,-10.175 0.667,-8.733 1,-14.133 1,-16.2 0,-6.4 -0.617,-13.733 -1.85,-22 -1.267,-8.233 -1.9,-16.667 -1.9,-25.3 0,-1.566 -0.483,-5.417 -1.45,-11.55 -1,-6.1 -1.5,-9.5 -1.5,-10.2 V 100.8 c -0.2,-1.7 -0.3,-4.383 -0.3,-8.05 0,-5.2 0.433,-10.15 1.3,-14.85 0.833,-4.7 1.25,-8.066 1.25,-10.1 0,-0.133 -2.85,-21.35 -8.55,-63.65 -10e-4,-0.5 0.149,-1.267 0.45,-2.3 z"
   id="path3"
   style="fill-rule:evenodd" />
</svg>
