<?xml version="1.0" standalone="no"?>
<!DOCTYPE svg PUBLIC "-//W3C//DTD SVG 20010904//EN"
 "http://www.w3.org/TR/2001/REC-SVG-20010904/DTD/svg10.dtd">
<svg version="1.0" xmlns="http://www.w3.org/2000/svg"
 width="1536.000000pt" height="926.000000pt" viewBox="0 0 1536.000000 926.000000"
 preserveAspectRatio="xMidYMid meet">
<metadata>
Created by potrace 1.16, written by Peter Selinger 2001-2019
</metadata>
<g transform="translate(0.000000,926.000000) scale(0.100000,-0.100000)"
fill="#000000" stroke="none">
<path d="M10355 9253 c-22 -1 -130 -10 -240 -19 -1158 -89 -2052 -376 -3210
-1029 -196 -110 -657 -385 -717 -426 -34 -24 -37 -24 -30 4 4 18 -3 14 -42
-21 -98 -90 -224 -126 -446 -125 -223 0 -450 43 -760 145 -129 42 -149 53
-143 77 9 35 -17 154 -45 204 -56 105 -154 158 -302 165 -77 4 -111 0 -175
-17 -109 -30 -222 -91 -300 -163 l-66 -60 -87 17 c-124 26 -126 27 -147 82
-26 71 -78 153 -127 200 -61 59 -120 87 -195 91 -141 9 -246 -90 -308 -293
l-22 -70 -99 -55 c-456 -254 -905 -696 -1281 -1260 -161 -242 -274 -447 -445
-805 -37 -78 -95 -179 -131 -228 -155 -213 -408 -484 -782 -836 -132 -124
-243 -232 -247 -241 -11 -24 -9 -114 3 -172 23 -105 84 -190 161 -222 79 -34
227 -12 333 48 22 13 83 35 135 49 85 24 117 27 305 31 355 7 587 65 733 183
23 19 79 48 124 64 175 64 584 150 868 183 74 9 177 27 228 41 214 58 490 186
801 374 97 58 190 112 206 120 54 25 245 26 361 2 292 -60 655 -241 824 -411
36 -36 74 -82 83 -103 23 -47 38 -39 63 36 l18 52 29 -93 29 -94 27 26 c15 14
30 26 33 26 3 0 34 -39 69 -86 64 -86 158 -180 213 -212 50 -30 138 -225 206
-458 163 -556 273 -1617 274 -2644 1 -478 -7 -586 -47 -670 -36 -75 -142 -170
-319 -285 -278 -183 -299 -198 -315 -221 -20 -31 -12 -40 48 -53 64 -14 175
-14 314 0 61 6 134 11 164 10 67 -1 108 16 166 70 51 47 153 196 204 298 57
111 59 134 91 811 16 338 37 530 105 940 32 198 34 218 39 555 4 285 25 664
39 710 5 15 78 -122 120 -224 84 -210 148 -503 222 -1021 24 -173 53 -376 64
-450 52 -354 57 -1038 10 -1215 -15 -55 -174 -211 -352 -345 -76 -57 -134
-107 -130 -111 5 -5 37 -16 73 -25 98 -25 278 -4 345 40 23 15 26 15 45 -4 31
-31 49 -25 105 33 37 38 68 88 117 187 114 232 103 139 100 905 -1 369 1 814
6 990 8 369 6 409 -48 805 -66 485 -81 656 -87 986 -3 165 -3 330 1 366 l7 66
188 46 c103 25 290 73 417 107 l229 61 125 -7 c171 -8 594 -40 1020 -75 469
-39 783 -60 894 -60 56 0 185 15 340 39 346 55 435 64 588 59 l133 -4 117 -51
c120 -53 286 -144 393 -216 258 -175 582 -446 883 -741 188 -185 262 -270 312
-360 45 -79 51 -174 22 -302 -12 -49 -33 -148 -47 -220 -75 -388 -430 -1420
-622 -1809 -88 -178 -272 -437 -532 -750 -54 -66 -98 -121 -96 -123 14 -14
127 -32 205 -32 222 0 337 71 441 272 117 229 216 365 415 568 73 74 138 148
144 164 6 16 19 88 30 160 50 344 98 482 309 903 186 374 284 602 434 1018 64
177 189 555 222 668 10 33 22 57 30 57 35 0 303 -54 420 -85 212 -55 377 -127
463 -201 106 -91 172 -356 214 -869 17 -210 17 -1126 0 -1355 -25 -336 -44
-516 -59 -570 -46 -167 -237 -424 -469 -631 -102 -90 -102 -91 -24 -118 52
-18 197 -25 265 -12 80 15 179 64 208 104 13 18 33 55 44 84 29 71 87 152 180
253 180 196 191 221 203 447 5 93 14 454 20 803 23 1322 36 1725 70 2105 24
268 -2 488 -66 564 -50 60 -116 60 -267 0 -173 -70 -290 -13 -367 177 -22 53
-22 59 -9 127 20 105 16 365 -10 572 -60 480 -198 1158 -271 1332 -99 237
-291 531 -550 843 -148 177 -576 603 -760 755 -764 633 -1520 993 -2248 1070
-123 13 -340 17 -447 8z"/>
</g>
</svg>
