<?xml version="1.0" standalone="no"?>
<!DOCTYPE svg PUBLIC "-//W3C//DTD SVG 20010904//EN"
 "http://www.w3.org/TR/2001/REC-SVG-20010904/DTD/svg10.dtd">
<svg version="1.0" xmlns="http://www.w3.org/2000/svg"
 width="1536.000000pt" height="1281.000000pt" viewBox="0 0 1536.000000 1281.000000"
 preserveAspectRatio="xMidYMid meet">
<metadata>
Created by potrace 1.16, written by Peter Selinger 2001-2019
</metadata>
<g transform="translate(0.000000,1281.000000) scale(0.100000,-0.100000)"
fill="#000000" stroke="none">
<path d="M5333 9115 c-2461 -2349 -3875 -3706 -3883 -3726 -8 -17 -13 -44 -13
-59 0 -26 -4 -28 -48 -32 -31 -3 -60 -14 -81 -31 -80 -62 -1303 -1241 -1303
-1255 0 -11 8 -17 23 -17 12 0 86 -48 170 -110 81 -60 235 -174 342 -253 121
-88 195 -149 195 -160 0 -54 53 -9 631 543 323 308 595 574 606 590 10 17 18
47 18 68 0 36 1 37 35 37 20 0 50 6 68 14 18 7 667 621 1444 1362 777 742
2539 2425 3917 3739 1377 1315 2508 2398 2511 2409 8 20 -10 37 -31 29 -19 -7
-688 493 -694 520 -3 12 -13 23 -21 25 -9 2 -1622 -1531 -3886 -3693z"/>
<path d="M9485 10209 c-676 -809 -1236 -1481 -1243 -1495 -7 -13 -13 -44 -14
-68 0 -43 -2 -45 -37 -51 -21 -3 -49 -14 -63 -23 -40 -26 -5469 -6515 -5465
-6532 1 -8 13 -15 27 -16 16 -1 118 -70 280 -190 140 -104 292 -217 337 -249
45 -33 81 -65 78 -72 -6 -17 41 -52 63 -47 19 4 696 -494 698 -514 1 -7 2 -17
3 -23 0 -6 9 -9 19 -7 30 5 9207 8769 9207 8793 0 14 -6 19 -20 18 -26 -2
-694 493 -706 523 -4 13 -15 24 -23 24 -8 0 -2046 -1939 -4530 -4310 -2484
-2370 -4519 -4310 -4522 -4310 -3 0 16 26 43 57 192 224 5188 6200 5208 6229
18 27 25 50 25 85 0 46 2 49 26 49 14 0 41 7 60 16 45 21 2547 3006 2542 3032
-2 10 -13 17 -28 18 -16 0 -102 57 -240 160 -118 88 -267 198 -332 244 -69 51
-118 93 -120 105 -10 63 -19 54 -1273 -1446z"/>
<path d="M9605 4711 c-3311 -2750 -4960 -4125 -4960 -4138 0 -13 7 -18 25 -17
18 1 113 -64 330 -225 168 -125 324 -240 347 -256 24 -17 43 -38 43 -48 0 -10
6 -20 14 -23 15 -6 9943 8217 9953 8244 7 16 -14 32 -33 25 -18 -7 -719 515
-719 535 0 9 -9 18 -20 19 -14 2 -1545 -1263 -4980 -4116z"/>
</g>
</svg>
