<?xml version="1.0" standalone="no"?>
<!DOCTYPE svg PUBLIC "-//W3C//DTD SVG 20010904//EN"
 "http://www.w3.org/TR/2001/REC-SVG-20010904/DTD/svg10.dtd">
<svg version="1.0" xmlns="http://www.w3.org/2000/svg"
 width="1121.000000pt" height="583.000000pt" viewBox="0 0 1121.000000 583.000000"
 preserveAspectRatio="xMidYMid meet">
<metadata>
Created by potrace 1.16, written by Peter Selinger 2001-2019
</metadata>
<g transform="translate(0.000000,583.000000) scale(0.100000,-0.100000)"
fill="#000000" stroke="none">
<path d="M4018 5781 c-125 -61 -171 -71 -331 -71 -107 -1 -142 -4 -187 -21
-30 -11 -75 -24 -99 -29 -56 -13 -102 -41 -136 -86 -39 -51 -114 -84 -191 -84
-76 0 -135 17 -299 88 -119 52 -137 56 -219 60 -116 5 -257 -10 -541 -58 -324
-56 -454 -66 -624 -51 -132 12 -138 12 -195 -9 -32 -13 -97 -52 -145 -88 -135
-104 -153 -112 -246 -112 -106 0 -255 -17 -335 -36 -127 -32 -187 -67 -286
-167 -50 -51 -106 -101 -125 -112 -70 -42 -71 -104 -2 -218 26 -42 39 -81 50
-145 19 -109 35 -149 67 -163 41 -19 80 5 151 95 36 44 81 92 100 105 43 29
113 37 186 22 58 -13 249 -96 261 -115 31 -47 -20 -242 -100 -376 -14 -25 -28
-62 -29 -83 -6 -80 -39 -116 -173 -182 -73 -37 -111 -64 -166 -119 -105 -105
-136 -177 -96 -226 19 -23 56 -30 282 -49 136 -12 202 -30 258 -71 74 -54 131
-186 102 -240 -6 -12 -34 -46 -61 -76 -69 -77 -65 -92 31 -124 133 -45 243
-126 298 -219 22 -37 26 -58 27 -117 0 -91 7 -100 144 -165 136 -65 187 -106
201 -162 6 -23 16 -55 22 -70 36 -92 162 -88 263 7 22 21 47 41 55 46 16 9 79
13 150 11 43 -1 46 -3 69 -47 52 -96 98 -109 243 -65 57 17 131 34 166 38 l63
6 40 -41 c48 -50 84 -70 142 -78 56 -8 130 23 154 64 14 25 22 28 64 28 64 -1
88 23 155 156 44 87 67 120 128 180 64 64 81 89 128 188 63 133 89 166 169
221 142 96 247 99 547 13 174 -49 206 -52 387 -29 66 8 167 15 225 15 126 0
171 11 203 50 26 30 29 39 68 174 21 72 25 80 58 94 20 8 63 19 96 25 98 17
190 -8 386 -104 144 -70 170 -79 188 -69 37 19 35 11 102 519 28 213 41 272
98 418 26 71 61 166 76 213 54 166 94 224 231 334 25 21 51 60 85 132 41 86
59 111 115 163 126 115 198 126 364 57 115 -48 152 -47 259 6 l83 42 97 -12
c127 -16 145 -15 219 8 99 31 159 27 261 -19 152 -67 233 -76 441 -46 134 20
195 15 298 -26 92 -37 142 -37 240 0 141 53 159 53 240 -9 74 -55 108 -59 207
-26 123 41 145 37 261 -49 12 -9 43 -18 70 -21 46 -6 52 -4 94 31 25 20 55 41
68 46 60 23 168 4 321 -56 47 -18 121 -41 164 -50 131 -28 202 -71 309 -187
56 -61 114 -112 145 -130 102 -57 136 -125 99 -197 -26 -49 -72 -60 -266 -64
-166 -3 -179 -5 -255 -34 -232 -87 -313 -213 -236 -369 18 -36 31 -81 33 -115
3 -37 17 -83 42 -137 l39 -81 -7 -99 c-9 -121 -1 -143 79 -233 86 -95 112
-135 129 -193 20 -68 80 -126 157 -151 85 -28 121 -50 160 -97 28 -33 68 -60
160 -109 125 -66 239 -157 239 -191 0 -42 -82 -48 -283 -21 -107 14 -139 15
-198 5 -117 -20 -169 -59 -280 -209 -41 -55 -95 -113 -137 -146 -38 -31 -74
-68 -79 -84 -6 -15 -18 -49 -28 -76 -17 -48 -33 -67 -141 -168 -66 -61 -89
-101 -104 -178 -16 -84 13 -190 74 -270 24 -32 25 -36 9 -53 -21 -24 -70 -23
-168 3 -94 24 -159 26 -206 6 -83 -36 -231 -201 -289 -322 -45 -95 -58 -108
-128 -130 -78 -26 -100 -49 -149 -154 -30 -63 -61 -113 -94 -148 -29 -31 -63
-82 -83 -126 -44 -97 -78 -122 -161 -121 -69 0 -103 15 -239 107 -130 87 -162
99 -293 107 -109 7 -115 9 -185 49 -103 60 -181 78 -272 63 -98 -17 -204 -71
-276 -141 l-59 -58 -24 26 c-14 14 -39 54 -56 88 -34 68 -44 76 -140 107 -53
17 -70 28 -87 56 -41 64 -74 99 -102 105 -62 13 -88 39 -100 100 -13 66 -45
113 -97 145 -54 33 -101 41 -149 24 -61 -21 -81 -18 -152 22 -60 34 -70 36
-134 32 -60 -3 -83 -11 -192 -66 -139 -71 -181 -82 -225 -58 -54 28 -66 78
-58 247 8 174 -5 244 -61 320 -40 55 -150 133 -260 183 -233 108 -278 191
-193 352 22 42 51 118 65 168 24 88 91 269 201 546 47 119 161 337 199 381 8
8 14 18 14 20 0 12 -251 129 -306 143 -79 20 -156 20 -223 0 -60 -17 -64 -25
-106 -168 -42 -142 -84 -166 -290 -166 -56 0 -163 -7 -237 -16 -156 -18 -186
-15 -365 37 -173 50 -251 63 -334 56 -80 -7 -136 -30 -212 -86 -62 -45 -76
-66 -148 -212 -42 -86 -65 -119 -132 -187 l-81 -84 29 -13 c17 -7 46 -31 66
-53 43 -48 76 -59 129 -43 20 6 47 11 58 11 31 0 78 -45 134 -128 99 -146 143
-182 227 -182 l50 0 48 -92 c53 -101 124 -182 166 -190 39 -8 87 20 122 70 29
43 30 46 30 165 0 67 4 128 8 135 5 7 46 30 90 51 45 20 96 52 114 69 17 18
38 32 46 32 7 0 60 -22 116 -50 56 -27 113 -50 127 -50 37 0 84 23 132 64 24
20 55 36 68 36 39 0 103 -38 124 -73 37 -60 22 -104 -73 -207 -83 -91 -89
-107 -72 -206 28 -156 70 -234 130 -234 62 0 188 -29 249 -58 80 -38 116 -69
151 -134 l30 -53 5 -225 c6 -249 9 -260 74 -318 37 -32 77 -43 220 -61 109
-13 150 1 251 85 112 93 125 98 193 66 74 -33 131 -39 187 -18 24 10 57 16 72
14 27 -3 28 -6 31 -64 2 -40 -6 -101 -23 -172 -29 -129 -31 -183 -8 -222 22
-38 57 -55 108 -54 72 1 124 47 150 128 4 16 10 13 34 -21 31 -43 90 -73 144
-73 l32 0 0 -123 c0 -138 18 -215 62 -267 39 -46 66 -54 116 -32 62 28 99 76
147 197 81 202 125 241 270 239 77 -1 98 -6 223 -52 135 -51 224 -72 300 -72
32 0 47 -9 103 -61 36 -33 89 -71 117 -84 171 -75 368 -55 478 49 31 29 37 43
43 93 6 50 12 64 49 101 37 38 42 48 43 91 1 66 33 115 107 162 58 38 63 39
122 33 88 -9 99 3 90 110 -7 100 -2 110 141 260 96 101 103 106 141 106 29 0
70 -15 141 -51 152 -76 260 -78 338 -4 30 28 34 38 34 81 0 51 -6 63 -88 184
-73 110 -101 242 -66 317 21 43 51 63 112 74 69 13 83 35 76 119 -6 64 -5 69
17 83 13 8 45 18 71 21 61 9 98 50 128 142 27 84 58 127 113 157 36 19 57 22
147 22 101 -1 111 -3 271 -58 160 -55 211 -65 235 -49 14 8 96 118 113 150 16
30 14 89 -5 117 -8 13 -37 38 -64 55 -26 17 -75 61 -107 98 l-60 67 -122 38
c-66 21 -129 46 -140 55 -10 9 -28 50 -40 89 -26 89 -40 100 -151 114 -84 10
-120 22 -120 39 0 5 5 20 11 34 18 39 -5 81 -80 140 -122 98 -135 126 -125
261 8 114 3 135 -42 185 -32 36 -35 44 -30 77 18 106 18 109 -8 161 -34 67
-33 85 7 129 29 31 54 43 177 83 l144 47 116 -68 c194 -113 281 -131 358 -72
32 24 34 29 29 67 -3 23 -20 75 -38 116 -55 128 -40 202 58 279 52 41 83 84
83 117 0 30 -82 98 -155 128 -126 53 -260 123 -313 165 -28 23 -97 84 -153
137 -56 53 -126 111 -155 130 -79 50 -239 101 -364 114 -58 6 -115 18 -127 26
-28 17 -30 61 -8 124 28 80 -7 152 -80 166 -23 4 -87 -2 -174 -17 -132 -22
-139 -22 -197 -6 -69 20 -96 15 -207 -39 -92 -44 -114 -43 -158 2 -49 52 -114
94 -143 94 -18 0 -45 -18 -84 -53 -31 -29 -72 -59 -90 -66 -30 -13 -34 -12
-57 13 -35 37 -65 46 -160 46 -61 0 -99 6 -135 20 -63 25 -102 25 -181 1 -54
-17 -69 -18 -118 -8 -66 13 -495 16 -906 4 -267 -7 -284 -8 -360 -34 -93 -32
-187 -37 -225 -12 -82 52 -418 201 -526 233 -269 79 -361 73 -734 -48 -286
-93 -421 -104 -607 -50 -78 23 -92 24 -137 13 -28 -7 -65 -18 -83 -26 -43 -17
-103 -17 -130 2 -12 8 -42 44 -67 80 -39 54 -74 88 -88 84 -2 0 -47 -22 -100
-48z"/>
<path d="M7490 4730 c-193 -27 -407 -90 -564 -165 -161 -78 -380 -264 -544
-460 -336 -402 -530 -960 -509 -1460 24 -549 239 -969 677 -1318 326 -261 587
-382 985 -458 84 -16 163 -23 335 -26 266 -6 322 3 463 70 135 65 254 155 408
307 252 250 376 431 585 848 351 702 185 1661 -387 2230 -230 229 -468 347
-846 418 -102 19 -498 28 -603 14z"/>
</g>
</svg>
