<?xml version="1.0" standalone="no"?>
<!DOCTYPE svg PUBLIC "-//W3C//DTD SVG 20010904//EN"
 "http://www.w3.org/TR/2001/REC-SVG-20010904/DTD/svg10.dtd">
<svg version="1.0" xmlns="http://www.w3.org/2000/svg"
 width="503.000000pt" height="1536.000000pt" viewBox="0 0 503.000000 1536.000000"
 preserveAspectRatio="xMidYMid meet">
<metadata>
Created by potrace 1.16, written by Peter Selinger 2001-2019
</metadata>
<g transform="translate(0.000000,1536.000000) scale(0.100000,-0.100000)"
fill="#000000" stroke="none">
<path d="M3790 15325 c-34 -82 -42 -128 -47 -266 -7 -175 5 -302 54 -579 32
-183 36 -229 40 -433 14 -637 -105 -1195 -404 -1897 -77 -180 -372 -790 -382
-790 -4 0 -35 25 -71 57 -36 31 -94 70 -130 87 -61 29 -72 31 -185 31 -151 0
-184 -14 -306 -132 l-87 -84 -20 33 c-37 61 -250 492 -312 633 -311 702 -442
1220 -457 1805 -7 256 3 400 47 685 16 105 34 231 40 280 24 193 6 431 -42
534 -25 57 -35 38 -14 -26 30 -93 37 -149 37 -281 -1 -148 -16 -264 -67 -516
-46 -224 -58 -406 -49 -746 7 -299 23 -482 60 -680 90 -477 268 -968 604
-1663 l90 -189 -56 -76 c-31 -43 -76 -101 -101 -129 -70 -83 -74 -155 -13
-237 17 -23 59 -87 93 -144 34 -56 95 -140 135 -187 l72 -84 -34 -73 c-21 -44
-40 -108 -50 -162 -8 -49 -17 -91 -19 -94 -3 -2 -152 44 -333 103 -180 58
-341 111 -358 116 -61 19 -95 47 -95 78 0 16 -9 59 -21 97 -11 37 -18 79 -15
94 3 17 -3 41 -15 64 -13 25 -23 71 -29 139 -14 157 -44 226 -182 414 -86 117
-155 184 -222 214 -18 9 -36 31 -52 64 -13 27 -40 69 -59 93 -19 24 -38 56
-41 70 -11 55 -22 71 -44 65 -11 -3 -25 -14 -31 -25 -8 -14 -19 -18 -42 -16
-29 3 -32 0 -35 -27 -2 -20 6 -42 22 -65 14 -19 37 -57 52 -85 40 -75 122
-173 168 -202 49 -31 178 -138 224 -185 35 -37 52 -82 52 -141 0 -21 6 -50 14
-65 8 -15 24 -80 35 -145 12 -65 35 -160 51 -211 17 -51 30 -106 30 -122 0
-17 8 -37 19 -46 14 -12 22 -36 27 -80 7 -58 11 -66 56 -110 28 -27 84 -75
126 -107 206 -155 355 -225 675 -316 52 -15 61 -21 74 -52 20 -48 14 -65 -55
-154 -78 -102 -124 -193 -161 -317 -31 -106 -68 -286 -73 -357 -3 -33 -6 -40
-23 -37 -164 20 -223 23 -375 19 -238 -8 -612 -72 -736 -126 -40 -18 -47 -27
-93 -123 -28 -57 -68 -161 -89 -233 -50 -164 -54 -174 -86 -208 -31 -34 -33
-47 -6 -54 26 -7 25 -28 -5 -140 -28 -107 -77 -221 -99 -229 -24 -9 -27 -34
-6 -61 24 -31 24 -35 5 -99 -12 -40 -35 -73 -110 -155 -73 -79 -98 -114 -107
-146 -6 -24 -15 -43 -20 -43 -15 0 -46 -80 -54 -139 -5 -41 -18 -69 -51 -115
-105 -147 -151 -298 -104 -340 30 -27 51 -6 51 51 l0 44 35 -36 c25 -24 45
-35 66 -35 l30 0 -7 48 c-4 35 0 71 15 126 29 106 44 130 93 158 51 28 77 70
85 138 5 41 11 54 29 63 16 6 24 19 24 34 0 41 27 90 57 105 25 12 29 19 34
78 8 76 31 137 59 157 11 8 27 40 36 71 9 31 22 64 29 72 7 8 16 44 20 80 9
89 42 209 66 243 13 18 23 55 29 105 5 42 18 95 30 117 14 28 20 59 21 110 1
84 27 194 51 209 12 7 26 6 52 -6 97 -47 509 -88 882 -88 61 0 126 -3 143 -6
29 -6 31 -10 31 -47 0 -22 9 -73 20 -113 l21 -72 -31 -89 c-17 -49 -36 -130
-42 -184 l-11 -96 -76 -19 c-42 -10 -128 -44 -192 -76 -136 -67 -529 -325
-655 -431 -72 -60 -287 -278 -366 -372 -11 -14 -24 -68 -38 -164 -20 -136 -33
-183 -62 -223 -11 -15 -9 -20 10 -33 20 -15 22 -24 22 -116 0 -55 -5 -109 -11
-120 -8 -16 -5 -30 12 -67 18 -37 24 -68 27 -159 3 -79 1 -117 -7 -127 -10
-12 -8 -21 8 -43 28 -39 45 -155 32 -216 -10 -43 -9 -48 14 -71 31 -31 33 -92
5 -155 -27 -58 -25 -71 6 -71 26 0 26 -2 21 -42 -4 -24 -23 -83 -42 -131 -20
-48 -39 -104 -42 -125 -3 -20 -23 -75 -44 -122 -21 -47 -42 -112 -48 -146 -5
-33 -21 -88 -35 -122 -38 -91 -69 -210 -70 -274 -1 -47 3 -61 21 -79 18 -19
24 -20 37 -9 9 7 16 25 16 41 0 35 3 35 47 8 29 -18 37 -19 44 -8 14 22 11 41
-12 78 l-21 34 25 46 c14 25 30 64 37 86 6 22 29 76 50 120 22 44 46 113 54
154 9 41 24 84 35 95 10 12 24 39 31 61 7 22 19 48 27 57 11 13 13 29 8 68 -5
38 -3 56 9 75 14 21 14 27 0 60 -8 21 -14 57 -12 83 3 43 5 47 27 44 20 -2 23
1 18 20 -32 140 -32 139 -14 153 22 16 22 33 0 58 -13 13 -21 52 -30 135 -6
64 -17 153 -22 197 -36 280 -35 274 -18 293 16 17 16 21 1 51 -17 34 -16 141
4 327 16 146 32 165 241 278 122 66 152 85 364 232 108 76 482 294 503 294 16
0 28 -70 19 -110 -4 -16 -22 -69 -41 -116 -34 -85 -35 -87 -32 -222 2 -130 0
-140 -26 -201 -18 -41 -31 -94 -36 -150 -5 -47 -14 -134 -20 -193 -6 -58 -18
-130 -27 -160 -13 -44 -14 -84 -9 -238 11 -279 -6 -435 -64 -593 l-21 -59 23
-107 22 -108 -27 -89 c-38 -123 -49 -295 -45 -666 3 -334 3 -334 76 -440 l30
-43 -34 -170 c-65 -334 -120 -760 -145 -1118 -15 -221 -7 -701 15 -865 47
-355 138 -690 276 -1013 124 -291 188 -381 425 -598 93 -86 216 -164 232 -148
3 4 -31 45 -76 93 -130 137 -302 418 -345 563 -21 72 -21 78 10 106 31 29 30
50 -9 161 -14 39 -42 142 -62 230 -30 128 -39 191 -47 327 -12 229 2 446 35
544 l25 72 -44 133 c-25 77 -44 152 -44 179 -1 182 150 925 255 1256 30 95 15
87 185 103 355 33 580 31 648 -4 63 -32 156 -261 206 -506 74 -362 115 -971
73 -1079 -24 -61 -21 -93 12 -159 l29 -57 -13 -85 c-7 -47 -25 -164 -40 -260
-60 -401 -115 -616 -205 -800 -53 -107 -53 -107 -35 -196 5 -24 -3 -49 -43
-125 -57 -111 -177 -297 -263 -410 -33 -44 -59 -84 -57 -89 6 -17 173 105 254
185 127 126 296 362 397 555 138 263 243 620 292 995 47 359 47 1198 0 1799
-19 244 -19 379 1 431 8 22 20 54 25 70 6 17 14 234 20 515 5 267 13 519 19
560 22 155 23 193 6 233 -20 50 -43 174 -56 312 -6 61 -19 144 -30 185 -33
131 -42 307 -38 800 l3 465 -38 79 c-40 84 -53 140 -43 181 13 50 24 43 271
-170 307 -265 480 -392 714 -524 33 -19 63 -43 67 -53 8 -26 -13 -85 -48 -134
-22 -31 -28 -47 -23 -67 11 -41 -13 -94 -56 -129 -39 -31 -51 -58 -26 -58 6 0
18 -4 25 -9 18 -11 -8 -63 -82 -161 -56 -74 -69 -110 -40 -110 10 0 -8 -26
-47 -71 -55 -62 -62 -73 -51 -89 7 -11 12 -28 12 -38 0 -21 -107 -189 -139
-219 l-22 -21 28 -20 28 -20 2 -229 c2 -218 3 -228 23 -238 24 -12 24 -9 2
-76 -14 -42 -16 -64 -10 -99 12 -62 3 -232 -17 -305 -9 -33 -27 -72 -41 -87
-55 -56 -1 -88 81 -47 52 26 63 22 35 -14 -25 -31 -25 -44 -2 -55 22 -12 57 1
67 25 12 29 27 495 21 658 -3 106 -11 175 -26 235 -12 47 -22 116 -23 154 -2
69 -2 70 33 94 31 21 35 28 36 70 2 90 106 303 143 294 7 -1 11 17 11 52 0 61
10 95 44 146 14 20 26 57 30 89 6 61 21 84 47 76 27 -9 35 20 15 51 -20 29
-17 42 39 179 19 44 36 98 40 120 4 22 13 50 21 62 22 34 17 76 -16 137 -80
153 -204 277 -685 691 -195 167 -295 243 -398 303 -43 25 -87 56 -97 70 -21
26 -93 207 -111 277 -10 39 -8 51 15 107 14 36 31 106 37 156 11 77 15 92 28
87 40 -16 231 -26 381 -20 213 8 354 21 508 46 67 11 126 18 131 15 4 -3 11
-74 15 -158 9 -184 9 -204 -5 -230 -9 -16 -7 -23 9 -34 30 -20 35 -74 16 -150
-15 -62 -15 -70 0 -118 9 -28 30 -110 46 -182 17 -82 47 -177 79 -254 28 -67
51 -128 51 -135 0 -7 21 -41 46 -75 25 -34 59 -85 76 -113 17 -29 42 -64 56
-79 20 -21 26 -42 31 -97 4 -39 12 -76 19 -83 16 -16 62 5 62 29 0 14 3 12 13
-6 6 -14 17 -26 23 -28 17 -6 44 25 44 50 -1 43 -92 244 -150 330 -33 49 -60
97 -60 107 0 9 -13 34 -29 54 -17 21 -37 61 -47 89 -9 29 -35 88 -57 132 -37
75 -39 83 -34 147 3 36 13 81 22 98 15 30 15 32 -10 61 -14 17 -25 36 -26 42
0 7 -1 99 -3 205 -2 151 0 195 11 203 19 16 16 33 -11 62 -15 16 -29 48 -35
84 -6 32 -21 81 -32 108 -12 28 -29 70 -38 95 -20 56 -66 81 -196 109 -247 54
-606 53 -828 -1 -101 -25 -101 -25 -111 56 -14 113 -60 316 -91 402 -30 84
-80 171 -155 268 -16 21 -30 45 -30 52 0 16 40 37 165 89 155 63 337 169 504
292 118 88 125 99 183 276 l51 158 -22 40 c-19 33 -22 48 -16 92 4 29 15 71
26 95 14 34 16 47 7 62 -9 14 -9 37 0 97 7 43 12 117 12 164 0 99 4 107 116
235 36 42 72 91 79 108 8 18 20 38 28 44 8 7 17 30 21 52 3 22 43 111 87 198
70 135 80 162 76 195 -6 45 -22 67 -48 67 -24 0 -39 -36 -40 -93 l0 -42 -15
39 c-8 22 -22 48 -31 58 -25 27 -40 7 -48 -67 -3 -35 -21 -108 -38 -162 -25
-75 -37 -100 -56 -109 -29 -15 -41 -32 -41 -62 0 -14 -17 -40 -43 -65 -86 -84
-124 -180 -157 -395 -28 -184 -51 -264 -78 -277 -26 -11 -27 -23 -7 -49 10
-14 15 -45 15 -98 0 -76 -1 -78 -24 -78 -38 0 -40 -16 -6 -46 28 -25 30 -32
30 -94 l0 -67 -62 -18 c-170 -46 -347 -111 -476 -175 -79 -38 -146 -70 -148
-70 -2 0 -4 17 -4 38 -1 96 -46 232 -111 333 -16 25 -29 48 -29 51 0 3 19 18
42 33 113 75 191 169 230 278 42 120 50 157 43 207 -9 61 -26 90 -77 132 -28
23 -60 66 -90 122 l-48 87 90 179 c321 641 535 1236 619 1720 41 234 71 578
71 817 0 157 -14 272 -66 558 -52 280 -64 382 -65 531 0 105 5 154 21 220 22
87 22 132 0 79z"/>
</g>
</svg>
