<?xml version="1.0" standalone="no"?>
<!DOCTYPE svg PUBLIC "-//W3C//DTD SVG 20010904//EN"
 "http://www.w3.org/TR/2001/REC-SVG-20010904/DTD/svg10.dtd">
<svg version="1.0" xmlns="http://www.w3.org/2000/svg"
 width="390.000000pt" height="336.000000pt" viewBox="0 0 390.000000 336.000000"
 preserveAspectRatio="xMidYMid meet">
<metadata>
Created by potrace 1.16, written by Peter Selinger 2001-2019
</metadata>
<g transform="translate(0.000000,336.000000) scale(0.100000,-0.100000)"
fill="#000000" stroke="none">
<path d="M2245 3342 c-35 -17 -50 -18 -110 -10 -163 22 -887 -10 -1076 -47
-135 -27 -226 -77 -465 -256 -144 -108 -194 -161 -260 -276 -73 -129 -240
-576 -295 -793 -42 -165 -45 -264 -19 -520 31 -308 53 -391 157 -592 57 -112
120 -193 225 -294 263 -252 554 -424 848 -499 153 -39 259 -49 510 -50 224 0
240 1 343 27 59 15 156 48 214 73 58 25 197 73 307 106 273 81 366 114 468
166 273 139 490 337 599 546 29 56 75 135 102 176 27 40 63 102 79 138 40 85
35 120 -33 232 -46 74 -54 95 -57 146 -2 36 3 88 13 130 11 43 19 128 23 222
6 194 2 203 -91 203 l-62 0 -62 66 c-100 106 -304 373 -334 439 -18 38 -34 98
-44 162 -17 115 -34 165 -81 240 -70 110 -167 151 -574 239 -211 46 -272 51
-325 26z m-168 -120 c-15 -15 -27 -33 -27 -39 0 -15 30 -38 165 -126 129 -85
140 -103 132 -224 -6 -87 -28 -136 -73 -164 l-34 -21 0 -133 c0 -82 6 -162 15
-206 12 -58 13 -84 5 -126 -11 -51 -50 -113 -72 -113 -5 0 -41 -14 -80 -31
-64 -28 -80 -31 -170 -30 -82 0 -114 5 -183 29 -106 37 -171 75 -190 112 -23
44 -37 175 -25 221 13 46 58 80 282 213 209 124 211 125 302 96 80 -25 132
-22 158 8 16 17 41 90 53 149 17 83 -42 162 -184 248 -74 45 -131 94 -131 114
0 6 68 50 79 51 3 0 -7 -13 -22 -28z"/>
</g>
</svg>
