<?xml version="1.0" encoding="UTF-8" standalone="no"?>
<!-- Created with Inkscape (http://www.inkscape.org/) -->

<svg
   xmlns:svg="http://www.w3.org/2000/svg"
   xmlns="http://www.w3.org/2000/svg"
   version="1.1"
   width="225.27"
   height="301.56"
   viewBox="308.801 129.78 225.27 301.56"
   id="Ebene_1"
   xml:space="preserve"><defs
   id="defs117" />
<g
   id="g3">
	<path
   d="m 407.816,147.673 c -0.635,2.904 -2.899,5.451 -4.549,8.365 -0.386,1.853 -1.733,4.335 -1.089,6.085 1.205,3.276 0.388,6.459 1.019,9.568 0.847,1.805 1.324,3.802 2.308,5.506 1.094,1.895 2.65,3.521 3.8,5.003 5.616,0.303 10.665,-0.01 15.405,-2.93 1.275,0 2.773,0 4.322,0 0.209,0.333 0.492,0.971 0.729,0.954 2.813,-0.206 4.924,1.039 6.889,3.248 0.924,-0.284 1.947,-0.6 3.229,-0.994 2.859,2.178 6.063,-1.407 9.57,0.099 0.396,-0.726 0.795,-1.452 1.063,-1.942 5.771,-1.182 11.289,-1.738 16.381,-3.513 5.156,-1.797 10.48,-1.829 16.008,-3.254 1.482,-1.638 3.277,-3.617 5.072,-5.596 -0.334,1.026 -0.471,2.182 -1.043,3.051 -1.059,1.612 -1.33,3.171 -0.543,4.902 3.17,0.563 5.521,-1.239 7.826,-2.794 1.621,-1.096 2.641,-3.237 4.34,-4.034 2.025,-0.951 2.064,-3.428 4.166,-4.181 1.795,-0.644 2.223,-2.861 3.717,-4.012 0.494,-0.381 0.463,-1.445 0.721,-2.381 -2.787,-2.156 -4.695,-4.816 -4.521,-8.689 -1.342,1.43 -2.174,2.968 -3.316,4.226 -1.305,1.435 -2.885,2.62 -4.346,3.914 0,-0.333 -0.139,-0.768 0.021,-0.983 2.959,-4.016 5.707,-8.232 10.029,-11.005 0.109,-0.071 0.316,0.01 0.713,0.035 -0.33,2.102 -0.66,4.212 -0.912,5.826 0.748,1.067 1.213,1.727 1.568,2.235 3.826,-1.053 3.713,-4.896 5.967,-7.001 0.686,0 1.469,0 2.668,0 -0.375,1.413 -0.865,2.674 -1.018,3.975 -0.172,1.471 -0.039,2.978 -0.039,4.616 -5.16,5.428 -10.352,10.928 -15.59,16.379 -3.273,3.406 -7.65,4.681 -12.24,6.37 0.176,3.876 -1.801,6.854 -6.152,8.551 -3.037,0 -6.688,-0.646 -9.99,0.148 -5.217,1.255 -10.398,0.497 -15.555,0.915 -0.549,0.95 -1.096,1.896 -1.693,2.933 -1.541,0 -2.992,0 -4.422,0 -1.162,1.685 -2.236,3.244 -3.559,5.159 0.771,1.731 1.623,3.708 2.539,5.653 0.395,0.839 1.254,1.58 1.342,2.423 0.387,3.648 2.729,4.446 5.883,4.87 1.746,0.235 3.348,1.531 5.383,2.529 2.494,-0.224 4.814,-2.934 8.123,-2.63 3.26,0.299 6.441,-0.717 9.527,-1.258 3.246,-0.569 6.422,-0.455 9.777,-0.832 2.76,2.433 6.68,3.522 8.629,7.086 -1.365,0.354 -2.059,-0.616 -2.938,-1.369 -0.465,-0.397 -1.262,-0.405 -2.227,-0.68 0.619,1.986 1.074,3.449 1.639,5.255 4.703,3.191 7.85,8.208 11.059,13.009 3.16,4.729 7.592,8.513 9.633,13.861 1.721,-1.408 3.193,-2.616 4.953,-4.058 -0.197,-0.522 -0.408,-1.455 -0.869,-2.241 -2.883,-4.904 -6.135,-9.555 -9.861,-13.856 -0.758,-0.876 -1.742,-1.556 -1.389,-2.923 5.242,3.486 8.313,8.881 11.969,13.742 1.764,2.347 3.037,4.979 4.219,7.73 1.162,2.712 2.07,5.469 3.092,8.215 1.434,3.847 2.035,7.718 1.607,11.987 -0.564,0.435 -1.301,1.002 -2.455,1.892 -1.914,-5.326 -3.691,-10.215 -5.422,-15.121 -0.525,-1.491 -1.559,-3.122 -3.318,-4.721 -0.906,1.162 -1.791,2.3 -3.072,3.942 -0.314,-1.089 -0.367,-1.67 -0.635,-2.126 -2.461,-4.2 -4.533,-8.66 -8.064,-12.157 -0.424,-0.418 -0.594,-1.082 -0.922,-1.605 -3.324,-5.295 -7.176,-10.183 -11.615,-15.006 -2.965,2.249 -6.42,2.379 -9.984,2.27 -2.432,-0.075 -5.092,-0.312 -7.256,0.531 -2.301,0.897 -4.625,0.018 -7.004,1.22 -2.297,1.162 -5.232,-0.244 -7.676,-1.638 -1.324,1.616 -3.27,0.57 -4.973,0.87 -1.758,3.208 0.832,6.202 0.498,9.536 1.561,0.941 2.197,3.171 4.441,3.438 1.623,3.171 5.682,4.374 6.602,8.097 -0.395,0.708 -0.77,1.378 -1.188,2.125 0.498,0.555 0.928,1.031 1.598,1.777 2.396,0 5.023,0 7.652,0 3.662,0 7.334,-0.161 10.984,0.047 3.359,0.191 6.695,0.781 9.639,1.145 2.537,0.837 4.732,1.563 7.43,2.453 0.855,3.884 4.432,6.365 7.377,9.323 0.988,0.992 2.381,1.572 3.428,2.517 3.369,3.039 6.063,6.624 8.535,10.429 2.299,3.535 4.533,7.101 6.666,10.735 0.943,1.607 2.088,3.139 2.738,4.857 0.324,0.854 -0.254,2.051 -0.48,3.424 -0.035,-0.046 0.549,0.332 0.543,0.701 -0.029,2.446 1.152,4.521 1.76,6.763 0.547,2.018 2.613,4.25 0.346,6.623 -0.416,0.436 -0.02,1.611 -0.066,2.441 -0.32,5.355 -0.357,10.756 -1.104,16.055 -0.475,3.377 -1.529,6.705 -2.031,10.117 -1.959,1.414 -0.656,3.627 -1.258,5.459 -1.447,4.408 -2.76,8.898 -3.668,13.494 -0.654,3.316 -1.934,6.512 -2.934,9.762 -2.314,1.188 -3.295,3.439 -4.43,5.568 -2.775,0.246 -3.275,2.822 -4.49,4.561 -2.484,3.559 -5.928,5.988 -9.699,9.277 0,-1.391 -0.176,-2.5 0.025,-2.572 2.445,-0.883 3.561,-2.875 4.945,-4.896 2.307,-3.359 4.273,-6.887 6.238,-10.43 0.365,-0.662 0.355,-1.529 0.521,-2.305 -2.703,-0.486 -3.057,-0.471 -4.844,0.203 -0.354,-0.354 -0.707,-0.707 -0.945,-0.945 0.238,-1.096 0.25,-2.215 0.717,-3.092 1.719,-3.227 2.094,-6.809 3.033,-10.246 0.561,-2.045 1.732,-3.949 2.799,-5.818 1.996,-3.494 3.984,-6.975 5.16,-10.857 0.102,-0.334 0.635,-0.539 0.979,-0.604 0.17,3.428 -1.002,6.596 -3.156,9.48 -0.736,0.984 -1.355,2.094 -1.832,3.229 -1.607,3.842 -3.107,7.723 -4.037,11.803 -0.297,1.313 -0.795,2.574 -1.229,3.947 3.258,0.361 6.064,0.674 9.162,1.018 1.246,-3.818 2.982,-7.838 3.814,-12.035 1.008,-5.066 2.891,-9.91 3.414,-15.123 0.199,-1.977 0.268,-4.27 1.039,-6.006 1.443,-3.252 0.418,-6.314 0.883,-10.541 -3.75,4.98 -3.998,10.619 -8.059,14.229 -0.012,-0.865 -0.271,-1.695 0.029,-2.172 2.725,-4.32 4.08,-9.326 6.748,-13.361 -1.246,-1.035 -2.855,-1.816 -3.613,-3.098 -2.996,-5.063 -5.852,-10.217 -8.504,-15.464 -1.662,-3.287 -2.971,-6.766 -4.26,-10.226 -1.293,-3.473 -3.328,-6.556 -4.59,-10.106 -1.844,-5.192 -4.912,-9.95 -7.443,-14.899 -0.281,-0.546 -0.48,-1.134 -0.844,-2.012 -0.807,0.387 -1.58,0.813 -2.393,1.139 -2.779,1.12 -5.514,2.36 -8.668,2.054 -1.01,-0.099 -2.072,0.335 -3.797,0.652 -2.152,-0.459 -5.033,-1.194 -7.957,-1.667 -3.402,-0.551 -6.824,-1.157 -9.842,-2.778 -2.117,-1.137 -4.197,-1.405 -6.982,-1.109 -0.844,-0.93 -1.83,-2.017 -3.039,-3.351 -0.527,0.471 -1.105,0.988 -2.02,1.805 4.031,2.038 7.658,4.32 10.861,7.408 3.393,3.27 3.262,8.165 6.307,11.497 0,1.285 -0.529,3.041 0.117,3.846 1.131,1.403 0.797,2.766 0.867,4.179 0.068,1.329 0.076,2.668 -0.002,3.997 -0.072,1.228 -0.857,2.278 -0.09,3.728 0.551,1.04 0.107,2.608 0.107,3.736 1.514,3.073 2.971,5.967 4.361,8.895 0.326,0.689 0.535,1.477 0.615,2.236 0.166,1.572 -0.354,3.229 0.973,4.629 0.332,0.352 0.189,1.322 0.027,1.947 -1.295,4.998 -2.473,10.02 -3.326,15.117 -0.045,0.27 -0.428,0.482 -0.643,0.713 1.539,5.666 3.723,11.248 2.947,17.256 -0.545,4.211 -2.52,7.973 -4.807,11.48 -1.473,2.258 -3.391,4.225 -5.148,6.369 0,2.418 0,4.916 0,7.416 -0.002,7.133 -3.094,12.83 -8.17,17.607 -1.91,-0.066 -1.701,1.988 -2.768,2.766 0.23,6.936 -2.914,12.721 -6.422,18.318 -0.697,1.113 -1.627,2.393 -3.527,2.307 -2.039,-0.09 -1.834,2.346 -3.059,3.404 0,1.572 0,3.225 0,4.811 -2.096,2.787 -5.053,4.656 -6.775,7.762 -0.744,1.346 -2.697,2.691 -4.193,2.803 -2.684,0.199 -5.4,2.586 -8.195,0.199 -0.387,-0.33 -1.488,-0.314 -1.93,0 -2.238,1.602 -4.744,0.693 -7.058,0.994 -4.731,-2.949 -7.477,-7.525 -10.315,-12.004 -0.395,-0.623 -0.306,-1.533 -0.595,-2.246 -1.951,-4.811 -3.757,-9.74 -8.914,-12.217 -4.799,-5.283 -9.08,-10.871 -11.105,-17.895 -0.421,-1.461 -1,-3.094 -2.034,-4.113 -1.983,-1.953 -3.316,-4.236 -4.533,-6.656 -0.913,-1.814 -1.948,-3.545 -3.053,-5.262 -1.483,-2.305 -2.488,-5.037 -2.365,-8 0.11,-2.66 0.023,-5.33 0.023,-7.994 -3.52,-1.975 -3.468,-6.271 -5.873,-9.02 -0.503,-2.117 0.372,-4.408 -1.018,-6.559 -0.566,-0.875 -0.429,-2.959 0.252,-3.732 1.518,-1.73 -0.026,-3.762 1.174,-5.592 0.862,-1.314 0.441,-3.471 0.583,-5.145 -1.677,-1.51 -2.117,-3.273 -2.171,-5.297 -0.028,-1.035 -0.863,-2.047 -0.903,-3.088 -0.174,-4.5 0.02,-9.064 3.047,-12.686 2.268,-2.715 1.837,-5.706 1.909,-8.732 -2.601,-3.915 -0.026,-7.708 0.269,-11.555 1.834,-1.448 -0.067,-3.715 1.337,-5.473 1.623,-2.034 2.275,-4.914 4.055,-6.736 2.659,-2.722 3.459,-6.294 5.6,-9.203 -0.575,-1.338 -1.061,-2.469 -1.454,-3.383 -1.259,1.28 -2.591,2.635 -3.52,3.579 -2.488,0 -4.15,0 -5.58,0 -3.09,1.947 -6.3,2.986 -9.551,4.08 -2.863,0.963 -5.489,2.589 -8.578,1.83 -0.461,0.461 -1.016,0.758 -1.134,1.178 -0.547,1.95 -1.508,3.982 -1.334,5.895 0.391,4.31 -1.339,8.327 -1.185,12.593 0.101,2.797 -3.138,9.529 -5.293,12.265 -1.493,1.896 -3.054,3.736 -4.629,5.656 0,1.938 0,3.932 0,5.924 2.233,1.434 0.235,3.967 1.591,5.879 0.986,1.391 1.527,3.35 2.157,5.061 2.293,6.225 4.224,12.584 6.24,18.91 0.895,2.809 2.026,5.557 2.358,8.527 0.029,0.256 0.408,0.473 0.624,0.709 -2.406,0.324 -2.406,0.324 -4.475,-1.525 -0.118,0.117 -0.295,0.215 -0.342,0.357 -0.148,0.439 -0.247,0.896 -0.438,1.629 -0.39,-0.283 -0.696,-0.508 -1.396,-1.021 -0.032,0.586 -0.073,1.318 -0.114,2.053 -0.318,-0.273 -0.637,-0.551 -0.955,-0.824 0.047,0.23 0.033,0.502 0.152,0.688 0.511,0.793 1.348,1.496 1.547,2.352 0.802,3.457 2.989,6.141 4.835,8.994 1.619,2.502 3.518,4.82 5.279,7.201 -0.591,0.592 -1.063,1.064 -1.534,1.533 -4.159,-2.133 -8.342,-9.016 -12.78,-15.777 -1.603,-0.375 -3.269,-0.211 -3.935,-2.998 -1.092,-4.578 -2.736,-8.945 -2.949,-13.791 -0.14,-3.178 -1.389,-6.363 -2.523,-9.404 -0.339,-0.91 1.502,-1.539 -0.013,-2.16 -0.625,-4.965 -1.81,-9.885 -1.298,-14.941 0.054,-0.531 0.54,-1.02 0.799,-1.48 -1.282,-0.469 -2.58,-0.943 -3.93,-1.438 0.349,-2.578 -0.546,-4.928 1.101,-6.922 -1.705,-3.215 -1.108,-6.575 -0.612,-9.922 0.161,-1.088 0.573,-2.162 0.581,-3.244 0.025,-3.376 1.146,-6.466 2.229,-9.584 1.718,-4.946 4.456,-9.288 7.821,-13.245 0.859,-1.01 2.651,-1.679 2.834,-2.713 0.351,-1.979 1.868,-1.97 2.996,-2.724 0.679,-0.454 1.503,-1.055 1.728,-1.76 0.81,-2.546 2.915,-3.632 5.215,-4.845 2.902,0 6.077,-0.146 9.23,0.043 2.853,0.171 5.683,0.709 8.37,1.065 2.676,-2.802 2.618,-2.823 4.644,-8.34 0.474,-1.289 1.553,-2.344 2.229,-3.576 0.441,-0.804 0.658,-1.731 1.169,-3.133 0.503,-0.503 1.445,-1.445 2.558,-2.558 0,-1.803 0.243,-3.819 -0.068,-5.746 -0.314,-1.945 -1.179,-3.802 -1.838,-5.808 -1.521,0.085 -2.983,-0.269 -3.668,0.306 -1.085,0.909 -2.134,0.753 -3.228,0.726 -2.063,-0.052 -4.086,0.251 -6.138,-0.879 -1.584,-0.873 -3.794,0.634 -5.619,-0.986 -0.654,-0.58 -2.248,-0.064 -3.408,-0.124 -0.957,-0.049 -1.947,-0.078 -2.854,-0.346 -2.355,-0.694 -4.672,-1.515 -7.322,-2.39 -1.062,0.254 -2.583,0.619 -4.323,1.035 -3.019,2.444 -6.273,5.078 -9.527,7.712 0,-0.498 -0.216,-1.22 0.033,-1.461 3.557,-3.444 6.723,-7.303 10.657,-10.255 -2.962,-0.041 -3.982,0.583 -8.919,5.378 -6.515,1.491 -9.772,7.016 -14.591,9.824 -0.239,0.575 -0.407,1.004 -0.593,1.425 -0.235,0.531 -0.484,1.056 -1.053,2.293 3.421,-0.955 5.512,1.087 8,1.955 0.568,-0.826 1.176,-1.423 1.437,-2.145 0.68,-1.886 2.292,-4.428 4.03,-6.015 0,0.5 0.212,1.17 -0.033,1.473 -2.555,3.16 -3.635,7.102 -5.611,11.018 -1.515,-1.769 -2.781,-3.247 -4.353,-5.082 -1.283,2.989 -4.473,3.461 -5.466,6.417 -0.868,2.583 -2.623,4.867 -4.152,7.578 -0.952,-0.718 -1.694,-1.278 -2.574,-1.941 1.829,-2.495 0.983,-5.338 1.233,-7.928 1.796,-1.948 1.594,-5.429 4.912,-5.988 0.931,-3.027 3.833,-4.379 5.657,-6.648 1.742,-2.167 4.464,-3.13 6.4,-4.961 3.276,-3.1 7.987,-3.95 10.957,-7.405 4.293,-0.392 5.554,-5.246 9.357,-6.359 0.31,-0.056 0.62,-0.16 0.929,-0.161 3.498,-0.012 7.114,-0.563 10.457,0.156 3.084,0.664 5.976,2.422 9.138,3.191 1.211,0.295 2.427,0.575 3.468,0.82 0.707,-0.707 1.124,-1.507 1.658,-1.595 3.369,-0.559 5.063,-3.299 7.293,-5.348 0.835,-0.768 1.604,-1.83 2.598,-2.15 1.491,-0.481 1.826,-1.486 2.334,-2.719 0.707,-1.71 1.766,-3.275 2.747,-5.032 0.672,-3.454 -1.33,-6.186 -3.213,-9.395 -4.753,1.171 -8.949,-1.293 -12.907,-3.157 -3.902,-1.837 -7.881,-4.499 -9.844,-8.925 -0.438,-0.987 -0.916,-1.978 -1.529,-2.859 -1.654,-2.376 -4.666,-3.544 -5.525,-6.719 -0.677,-2.504 -1.832,-4.9 -2.957,-7.258 -2.059,-4.313 -3.76,-8.776 -6.267,-12.907 -3.227,-5.316 -5.113,-11.152 -4.707,-17.124 0.616,-0.906 1.072,-1.576 1.686,-2.479 0.911,0.748 1.509,1.239 2.197,1.804 0,1.597 0,3.233 0,4.596 1.661,4.049 5.074,6.226 7.919,9.492 0.783,-0.831 1.614,-1.496 2.165,-2.344 0.843,-1.297 1.494,-2.721 2.255,-4.147 0.756,0.713 1.318,1.243 1.961,1.851 -0.435,0.769 -0.813,1.438 -1.238,2.192 0.35,0.63 0.724,1.303 1.197,2.156 -0.351,0.462 -0.724,0.952 -0.8,1.052 0.761,2.783 1.303,5.364 2.184,7.824 0.909,2.539 1.17,5.193 1.828,7.75 0.665,2.585 2.1,4.969 1.477,8.099 0.926,0.082 1.7,0.149 2.483,0.218 4.06,3.163 7.755,6.975 13.505,8.281 0.961,0.967 2.253,2.266 3.56,3.579 5.04,-0.219 8.349,3.952 12.702,5.284 1.539,-1.586 2.91,-2.999 4.28,-4.412 0.108,0.169 0.216,0.338 0.324,0.506 1.447,-0.533 2.893,-1.067 4.296,-1.584 -0.284,-3.234 -0.293,-3.234 -3.559,-3.733 -0.975,-1.095 -2.073,-2.33 -3.392,-3.812 0,-1.561 0,-3.549 0,-5.556 1.691,-0.843 2.915,-2.189 2.9,-4.147 -0.009,-1.197 -1.062,-2.493 -0.818,-3.555 0.271,-1.185 1.071,-2.243 0.901,-3.613 -0.119,-0.964 -0.023,-1.954 -0.023,-2.912 -2.511,-0.333 -2.263,-4.756 -5.446,-3.354 -1.314,-2.008 -2.166,-4.295 -3.806,-5.54 -1.664,-1.262 -3.139,-2.339 -4.157,-4.267 -1.007,-1.906 -2.626,-3.489 -4.438,-5.803 1.999,-0.229 3.192,-0.366 4.574,-0.525 0.76,3.661 3.284,5.399 6.191,7.291 2.633,1.714 5.951,3.079 7.294,6.486 0.394,0.998 1.283,1.8 2.3,3.173 1.105,-2.218 2.063,-3.536 2.442,-5.004 1.833,-7.108 6.514,-10.874 14.588,-10.822 0.662,0.004 1.325,0 2.342,0 1.105,1.54 2.17,3.367 3.576,4.872 1.098,1.171 1.381,2.354 1.643,3.867 0.309,1.76 1.43,3.379 2.244,5.164 2.947,-1.98 6.732,-2.589 8.982,-5.887 2.084,0 4.207,0 6.434,0 0.115,-0.604 0.203,-1.059 0.371,-1.937 -1.752,0.356 -3.297,0.669 -4.818,0.979 0.971,-0.962 1.836,-1.819 3.086,-3.059 0.07,0 0.902,0 1.797,0 2.471,-1.964 4.977,-3.958 7.545,-5.999 0.066,0 0.283,-0.068 0.393,0.011 0.65,0.463 1.277,0.962 1.902,1.442 -0.455,1.397 -0.885,2.714 -1.414,4.335 -0.482,0 -1.256,0 -2.133,0 -1.203,2.395 -4.221,2.797 -5.223,5.359 -0.166,0.427 -1.023,0.729 -1.604,0.823 -2.186,0.356 -3.316,1.724 -3.92,3.903 -4.008,-0.437 -5.164,5.353 -9.748,3.981 0,2.069 -0.613,4.086 0.119,5.271 1.826,2.949 -0.271,6.509 1.881,9.238 0.303,0.383 0.629,0.747 0.982,1.166 0,1.262 0,2.59 0,4.375 -1.117,0.444 -2.406,0.958 -3.805,1.513 -0.244,1.32 -0.137,3.095 -2.127,3.577 -0.357,-0.709 -0.744,-1.373 -1.094,-1.976 4.547,-11.361 1.949,-30.16 -6.566,-38.965 -1.702,0 -3.351,0 -4.945,0 -0.289,0.289 -0.482,0.636 -0.765,0.742"
   id="path5" />
	<path
   d="m 505.97,221.265 c -0.354,1.367 0.631,2.046 1.391,2.923 3.727,4.301 6.979,8.952 9.859,13.856 0.461,0.786 0.672,1.718 0.869,2.241 -1.76,1.442 -3.232,2.65 -4.951,4.058 -2.043,-5.348 -6.473,-9.132 -9.635,-13.861 -3.209,-4.801 -6.354,-9.818 -11.059,-13.009 -0.563,-1.807 -1.02,-3.27 -1.639,-5.255 0.967,0.274 1.764,0.282 2.227,0.68 0.881,0.753 1.572,1.723 2.938,1.369 0.605,0.667 1.084,1.664 1.832,1.942 3.08,1.145 5.623,3.087 8.168,5.056 z"
   id="path7"
   style="fill:#ffffff" />
	<path
   d="m 494.972,158.272 c 1.461,-1.293 3.041,-2.479 4.346,-3.914 1.143,-1.257 1.977,-2.796 3.316,-4.226 -0.174,3.873 1.734,6.533 4.521,8.689 -0.26,0.936 -0.227,2 -0.721,2.381 -1.494,1.151 -1.922,3.368 -3.717,4.012 -2.102,0.753 -2.141,3.23 -4.166,4.181 -1.699,0.797 -2.719,2.938 -4.34,4.034 -2.305,1.555 -4.656,3.357 -7.826,2.794 -0.787,-1.73 -0.516,-3.29 0.543,-4.902 0.572,-0.87 0.709,-2.025 1.043,-3.051 2.525,-3.2 5.114,-6.352 7.001,-9.998 z"
   id="path9"
   style="fill:#ffffff" />
	<path
   d="m 331.993,232.263 c -1.738,1.586 -4.351,5.128 -5.03,7.015 -0.26,0.722 -0.869,1.318 -1.437,2.145 -2.487,-0.867 -4.578,-2.91 -8,-1.955 0.569,-1.237 0.818,-1.762 1.053,-2.293 0.186,-0.421 0.354,-0.85 0.593,-1.425 4.818,-2.808 8.076,-8.333 14.591,-9.824 4.937,-4.796 5.957,-5.419 8.919,-5.378 -3.934,2.952 -7.1,6.811 -10.657,10.255 -0.249,0.24 -0.032,0.962 -0.032,1.46 -0.334,0.334 0.333,-0.333 0,0 z"
   id="path11"
   style="fill:#ffffff" />
	<g
   id="g13">
		<g
   id="g15">
			<path
   d="m 322.654,233.697 c -0.658,1.42 -0.761,3.055 -0.063,4.482 0.599,1.224 2.311,1.547 3.42,0.897 1.239,-0.726 1.496,-2.196 0.897,-3.42 0.339,0.693 0.19,0.495 0.141,0.241 0.162,0.841 0.054,0.305 0.06,0.057 0.005,-0.197 0.096,-0.661 -0.036,0.163 0.04,-0.25 0.267,-0.695 -0.103,0.104 0.573,-1.236 0.361,-2.684 -0.897,-3.42 -1.089,-0.64 -2.846,-0.341 -3.419,0.896 l 0,0 z"
   id="path17"
   style="fill:#ffffff" />
		</g>
	</g>
	<g
   id="g19">
		<g
   id="g21">
			<path
   d="m 326.89,234.94 c -0.121,-0.658 -0.193,-1.325 -0.333,-1.979 -0.23,-1.079 -1.348,-1.835 -2.411,-1.835 -1.187,0 -2.017,0.779 -2.411,1.835 -0.148,0.397 -0.174,0.833 -0.2,1.255 -0.004,0.105 -0.01,0.21 -0.017,0.315 0.013,-0.12 0.026,-0.239 0.04,-0.359 0.182,-0.394 0.217,-0.479 0.106,-0.253 -0.172,0.342 -0.357,0.693 -0.434,1.07 -0.162,0.798 -0.03,1.38 0.298,2.127 0.549,1.248 2.347,1.525 3.42,0.897 0.559,-0.327 0.977,-0.869 1.149,-1.494 0.194,-0.706 0.031,-1.283 -0.252,-1.926 -0.014,-0.031 -0.028,-0.063 -0.042,-0.094 0.114,0.421 0.228,0.841 0.341,1.262 -0.023,0.147 -0.047,0.294 -0.07,0.441 -0.178,0.393 -0.209,0.473 -0.095,0.241 0.154,-0.304 0.284,-0.621 0.398,-0.941 0.124,-0.349 0.125,-0.756 0.149,-1.127 0.004,-0.105 0.01,-0.209 0.017,-0.314 -0.074,0.409 -0.07,0.485 0.012,0.23 -1.607,0 -3.214,0 -4.821,0 0.14,0.655 0.212,1.321 0.333,1.979 0.247,1.341 1.848,2.083 3.075,1.746 1.4,-0.385 1.995,-1.737 1.748,-3.076 l 0,0 z"
   id="path23"
   style="fill:#ffffff" />
		</g>
	</g>
	<g
   id="g25">
		<g
   id="g27">
			<path
   d="m 325.783,238.451 c 2.314,-0.978 3.599,-2.574 5.241,-4.399 1.573,-1.749 3.166,-5.663 -0.192,-6.587 -1.27,-0.349 -2.528,0.27 -3.466,1.072 -1.236,1.057 -2.447,1.72 -3.906,2.403 -1.237,0.579 -2.097,1.751 -2.743,2.904 -0.472,0.841 -1.905,1.639 -2.748,2.123 -2.582,1.483 -0.761,5.067 1.926,4.569 0.838,-0.155 1.611,-0.189 2.46,-0.181 0.71,0.007 0.139,-0.34 0.466,0.282 0.805,1.528 3.579,1.737 4.317,0 0.424,-0.996 0.979,-1.826 1.189,-2.91 0.613,-3.149 -4.206,-4.492 -4.821,-1.329 -0.125,0.646 -0.43,1.115 -0.686,1.715 1.439,0 2.878,0 4.317,0 -1.72,-3.266 -5.409,-2.985 -8.573,-2.399 0.642,1.523 1.284,3.046 1.926,4.569 1.707,-0.98 3.442,-2.276 4.542,-3.917 0.741,-1.105 1.441,-1.301 2.649,-1.866 1.027,-0.48 2.054,-2.042 3.149,-2.215 -0.811,-0.214 -1.622,-0.429 -2.432,-0.643 0.073,0.077 0.146,0.154 0.219,0.23 -0.214,-0.811 -0.429,-1.621 -0.643,-2.432 -0.108,0.735 -1.128,2.047 -1.549,2.255 -0.484,0.239 -1.08,0.82 -1.352,1.281 -0.422,0.716 -1.063,0.838 -1.814,1.156 -2.961,1.252 -0.409,5.558 2.524,4.319 l 0,0 z"
   id="path29" />
		</g>
	</g>
	<g
   id="g31">
		<g
   id="g33">
			<path
   d="m 332.409,230.658 c 0.239,-0.421 1.4,-0.837 1.799,-1.18 0.753,-0.647 1.495,-1.348 2.321,-1.901 1.87,-1.25 3.013,-2.711 5.303,-3.354 3.1,-0.87 1.781,-5.694 -1.329,-4.821 -1.345,0.377 -2.592,0.959 -3.801,1.652 -1.049,0.601 -1.733,1.549 -2.696,2.206 -1.024,0.698 -1.938,1.518 -2.893,2.304 -1.125,0.925 -2.255,1.218 -3.021,2.57 -1.592,2.81 2.728,5.329 4.317,2.524 l 0,0 z"
   id="path35" />
		</g>
	</g>
	<g
   id="g37">
		<g
   id="g39">
			<path
   d="m 414.833,171.333 c -0.113,1.248 -0.147,2.492 -0.14,3.745 0.002,0.442 0.008,0.884 0.007,1.326 0,0.19 -0.071,1.347 -0.014,0.95 -0.025,0.172 -0.343,0.932 -0.08,0.415 0.144,-0.282 0.028,-0.082 0.16,-0.131 -0.92,0.344 -2.071,0.234 -3.101,0.196 -3.226,-0.119 -3.214,4.881 0,5 3.006,0.111 6.317,-0.17 7.601,-3.317 0.989,-2.424 0.333,-5.625 0.566,-8.183 0.294,-3.212 -4.709,-3.184 -4.999,-0.001 l 0,0 z"
   id="path41" />
		</g>
	</g>
	<g
   id="g43">
		<g
   id="g45">
			<path
   d="m 409.169,179.006 c 1.864,1.068 2.397,0.993 1.6,-0.226 -0.36,-0.898 -0.61,-1.85 -0.881,-2.777 -0.382,-1.303 -0.702,-2.624 -1.1,-3.922 -0.667,-2.174 -0.908,-3.098 -0.725,-5.425 0.166,-2.095 -0.218,-2.941 -1.237,-4.584 -1.214,-1.959 -4.922,-1.35 -4.659,1.262 0.116,1.148 0.262,2.271 0.422,3.415 0.403,2.873 4.864,2.054 4.911,-0.665 0.026,-1.528 -0.074,-2.324 -0.371,-3.821 -0.459,-2.318 1.397,-5.138 2.115,-7.348 0.479,-1.474 -0.823,-3.282 -2.411,-3.165 -2.92,0.216 -3.176,2.32 -3.827,4.752 -0.554,2.068 1.776,4.007 3.672,2.823 3.04,-1.898 8.418,-19 12.995,-14.948 8.215,7.273 6.893,20.303 5.874,30.013 -0.297,2.835 -1.791,3.105 -3.975,4.118 -1.407,0.225 -1.571,0.998 -0.492,2.319 1.421,-0.437 2.814,-0.942 4.228,-1.399 3.178,-1.026 2.986,-3.837 2.289,-6.547 -1.16,-4.505 0.336,-8.677 -0.555,-13.253 -0.895,-4.589 -0.914,-8.664 -3.416,-12.793 -3.292,-5.436 -7.91,-6.053 -10.57,0.261 -1.639,3.888 -4.403,6.913 -6.421,10.607 -2.393,4.38 -1.44,8.237 -0.214,12.795 0.814,3.026 -0.288,7.872 3,9.797 2.272,1.331 4.67,0.023 5.643,-2.171 1.596,-3.603 -1.703,-6.006 -1.982,-9.375 -0.452,-5.454 5.135,-12.624 7.575,-17.238 -1.309,0.169 -2.618,0.337 -3.926,0.506 1.913,2.433 2.107,6.099 2.75,9.017 0.408,1.852 2.38,12.147 0.385,13.682 0.841,0 1.682,0 2.524,0 -0.964,-0.495 0.123,-8.479 0.17,-9.612 0.146,-3.479 -0.424,-6.679 -1.986,-9.783 -0.594,-1.179 -2.328,-1.603 -3.42,-0.897 -2.617,1.69 -2.764,4.264 -2.988,7.159 -0.249,3.217 4.752,3.193 5,0 0.055,-0.71 -0.179,-2.396 0.512,-2.841 -1.14,-0.299 -2.28,-0.598 -3.42,-0.897 2.28,4.528 1.018,9.894 1,14.752 -0.008,2.302 0.362,5.283 2.61,6.436 0.728,0.373 1.811,0.547 2.524,0 4.266,-3.279 3.111,-10.453 2.568,-15.153 -0.598,-5.197 -1.381,-11.187 -4.692,-15.398 -0.986,-1.254 -3.233,-0.805 -3.926,0.506 -3.113,5.885 -11.061,16.475 -7.401,23.523 1.072,2.065 3.271,5.974 2.81,0.655 -0.222,-2.561 -0.735,-4.912 -1.454,-7.383 -1.491,-5.125 3.552,-9.834 6.112,-13.688 0.706,-1.063 1.055,-2.485 1.471,-3.67 0.385,-1.097 3.225,4.917 3.293,5.163 1.243,4.445 1.348,9.405 0.766,13.872 -0.244,1.884 -0.055,3.411 0.381,5.237 0.219,0.745 0.445,1.487 0.684,2.227 -1.465,0.473 -2.915,0.98 -4.387,1.432 -2.438,0.749 -4.398,3.911 -2.975,6.339 1.3,2.221 4.292,2.116 6.324,1.138 2.773,-1.334 6.994,-1.692 7.959,-5.263 2.211,-8.202 2.018,-18.004 -0.098,-26.179 -1.4,-5.419 -6.486,-15.663 -13.427,-14.039 -2.666,0.624 -5.524,4.952 -7.239,6.857 -2.148,2.387 -2.439,8.196 -5.006,9.799 1.224,0.941 2.448,1.882 3.672,2.823 0.198,-0.738 0.227,-1.615 0.633,-2.28 -0.72,0.413 -1.439,0.825 -2.159,1.238 0.177,-0.013 0.354,-0.026 0.531,-0.04 -0.804,-1.055 -1.607,-2.11 -2.411,-3.165 -0.625,1.923 -1.633,3.687 -2.333,5.583 -0.765,2.072 0.446,4.839 0.411,6.915 1.637,-0.222 3.274,-0.443 4.911,-0.665 -0.081,-0.695 -0.163,-1.39 -0.244,-2.085 -1.553,0.42 -3.106,0.841 -4.659,1.262 1.279,2.064 -0.525,4.146 0.341,6.423 0.696,1.828 1.429,3.451 1.948,5.355 0.771,2.825 1.706,8.212 5.7,7.454 3.168,-0.6 1.823,-5.419 -1.327,-4.82 l 0,0 z"
   id="path47" />
		</g>
	</g>
	<g
   id="g49">
		<g
   id="g51">
			<path
   d="m 412.173,164.502 c -0.438,2.961 -0.247,5.794 0.167,8.746 0.355,2.533 4.25,2.245 4.821,0 0.904,-3.552 0.174,-7.204 0.917,-10.75 -1.607,0 -3.214,0 -4.821,0 0.6,1.887 0.895,3.804 1.104,5.769 0.189,1.783 0.208,3.635 1.064,5.245 1.516,2.847 5.832,0.321 4.317,-2.523 -0.572,-1.075 -0.405,-2.98 -0.543,-4.17 -0.222,-1.916 -0.536,-3.808 -1.122,-5.649 -0.706,-2.223 -4.288,-2.548 -4.821,0 -0.744,3.553 -0.025,7.246 -0.917,10.75 1.607,0 3.214,0 4.821,0 -0.278,-1.988 -0.461,-4.091 -0.167,-6.088 0.467,-3.154 -4.35,-4.511 -4.82,-1.33 l 0,0 z"
   id="path53" />
		</g>
	</g>
	<g
   id="g55">
		<g
   id="g57">
			<path
   d="m 408.661,155.167 c 0.203,-1.043 0.333,-2.101 0.339,-3.165 0.009,-1.363 -1.144,-2.5 -2.5,-2.5 -1.37,0 -2.491,1.137 -2.5,2.5 -0.002,0.37 -0.017,0.738 -0.046,1.106 -0.011,0.143 -0.093,0.75 0.008,0.029 -0.033,0.234 -0.078,0.467 -0.123,0.7 -0.26,1.336 0.358,2.693 1.746,3.075 1.237,0.341 2.815,-0.407 3.076,-1.745 l 0,0 z"
   id="path59" />
		</g>
	</g>
	<g
   id="g61">
		<g
   id="g63">
			<path
   d="m 420.326,142.514 c 0.144,-0.22 0.116,-0.199 -0.084,0.063 0.081,-0.099 0.167,-0.192 0.259,-0.282 0.208,-0.186 0.188,-0.174 -0.06,0.035 0.473,-0.326 -0.469,0.102 0.057,-0.001 -0.249,0.077 -0.499,0.077 -0.75,0.002 -0.272,-0.159 -0.544,-0.318 -0.816,-0.477 0.166,0.179 0.111,0.106 -0.164,-0.218 0.15,0.226 0.27,0.476 0.407,0.71 0.687,1.174 2.245,1.585 3.42,0.897 1.174,-0.688 1.586,-2.244 0.896,-3.42 -0.297,-0.508 -0.58,-0.95 -0.945,-1.421 -0.559,-0.718 -1.537,-0.958 -2.387,-1.016 -1.744,-0.119 -3.3,1.213 -4.15,2.604 -0.712,1.163 -0.26,2.743 0.897,3.42 1.193,0.7 2.71,0.264 3.42,-0.896 l 0,0 z"
   id="path65" />
		</g>
	</g>
	<g
   id="g67">
		<g
   id="g69">
			<path
   d="m 446.076,145.431 c 0.109,-0.242 0.215,-0.487 0.313,-0.735 0.105,-0.256 0.084,-0.205 -0.063,0.152 0.563,-1.242 0.369,-2.679 -0.896,-3.42 -1.199,-0.702 -2.703,-0.259 -3.422,0.897 -0.125,0.198 -0.051,0.107 0.229,-0.273 -0.072,0.09 -0.152,0.172 -0.232,0.254 -0.186,0.191 -0.389,0.363 -0.592,0.534 -0.072,0.059 -0.145,0.118 -0.217,0.175 -0.398,0.321 0.477,-0.361 0.082,-0.063 -0.178,0.134 -0.357,0.264 -0.537,0.393 -1.107,0.791 -1.635,2.163 -0.896,3.42 0.641,1.094 2.311,1.691 3.42,0.897 1.113,-0.796 2.328,-1.627 3.064,-2.813 -1.439,-0.841 -2.879,-1.682 -4.318,-2.523 -0.109,0.242 -0.217,0.487 -0.313,0.735 -0.105,0.256 -0.084,0.205 0.063,-0.151 -0.561,1.242 -0.369,2.679 0.896,3.42 1.081,0.631 2.858,0.343 3.419,-0.899 l 0,0 z"
   id="path71" />
		</g>
	</g>
	<g
   id="g73">
		<g
   id="g75">
			<path
   d="m 517.572,355.652 c -1.367,-0.418 -2.855,-0.271 -4.236,0 -1.08,0.211 -1.836,1.361 -1.836,2.41 0,0.041 0,0.082 0,0.125 0.611,-0.805 1.225,-1.607 1.836,-2.41 -0.053,0.02 -0.105,0.041 -0.156,0.063 -2.58,1.031 -2.277,4.74 0.664,4.91 2.012,0.117 4.051,0.156 6.064,0.156 1.688,0 2.758,-1.59 2.41,-3.164 0.107,0.492 0.982,-1.891 1.031,-2.373 0.213,-2.068 0.748,-3.795 1.438,-5.734 0.609,-1.723 0.379,-3.564 0.9,-5.275 0.344,-1.127 0.67,-2.117 0.795,-3.299 0.238,-2.264 -2.273,-3.826 -4.271,-3.377 -3.729,0.84 -4.518,4.781 -6.242,7.711 1.553,0.422 3.105,0.842 4.658,1.264 0.025,-1.191 0.418,-3.377 1.268,-4.357 -1.393,-0.811 -2.785,-1.621 -4.18,-2.434 -0.629,2.844 -2.115,5.67 -3.309,8.311 -0.93,2.047 -3.051,5.998 -2.145,8.309 0.445,1.133 1.193,1.719 2.41,1.836 5.043,0.484 5.154,-6.055 6.736,-9.184 1.453,-2.869 -2.861,-5.4 -4.316,-2.523 -0.34,0.672 -2.709,6.678 -2.42,6.707 0.805,0.609 1.607,1.223 2.412,1.834 -0.094,0.572 -0.037,0.504 0.172,-0.207 0.297,-0.797 0.584,-1.596 0.859,-2.398 0.523,-1.504 1.127,-2.895 1.824,-4.318 1.033,-2.102 2.088,-4.74 2.598,-7.033 0.504,-2.275 -2.438,-4.445 -4.18,-2.434 -1.813,2.094 -2.674,5.168 -2.732,7.895 -0.055,2.518 3.416,3.371 4.658,1.262 0.703,-1.191 1.354,-2.373 1.938,-3.625 0.455,-0.973 -0.484,-3.785 -1.133,-1.885 -0.65,1.914 -0.623,3.936 -1.123,5.895 -0.547,2.143 -1.377,3.896 -1.521,6.162 -0.115,1.799 -1.4,2.551 -0.947,4.605 0.805,-1.057 1.607,-2.109 2.412,-3.164 -2.014,0 -4.053,-0.039 -6.064,-0.156 0.223,1.637 0.443,3.271 0.666,4.91 0.051,-0.021 0.104,-0.041 0.156,-0.063 1.049,-0.422 1.834,-1.205 1.834,-2.412 0,-0.041 0,-0.082 0,-0.125 -0.611,0.805 -1.223,1.607 -1.834,2.412 0.506,-0.1 1.076,-0.154 1.576,0 3.091,0.942 4.402,-3.886 1.33,-4.827 l 0,0 z"
   id="path77" />
		</g>
	</g>
	<g
   id="g79">
		<g
   id="g81">
			<path
   d="m 523.349,340.322 c 0.85,-2.197 1.344,-4.064 1.703,-6.412 0.182,-1.166 1.252,-2.336 1.809,-3.354 0.609,-1.111 1.176,-2.26 1.971,-3.258 -1.311,-0.168 -2.617,-0.338 -3.926,-0.506 0.123,0.223 -0.479,1.902 -0.563,2.229 -0.094,0.508 -0.172,1.018 -0.232,1.529 -0.006,-0.297 -0.006,2.264 0.135,1.252 -0.387,2.77 -1.131,5.84 -2.125,8.469 -1.143,3.021 3.691,4.314 4.822,1.33 0.516,-1.363 0.896,-2.777 1.211,-4.197 0.379,-1.701 1.082,-3.75 1.082,-5.494 0,-2.604 1.346,-5.174 -0.016,-7.643 -0.715,-1.299 -2.922,-1.768 -3.926,-0.506 -1.789,2.248 -3.248,4.869 -4.578,7.412 -0.619,1.186 -0.645,2.602 -0.854,3.895 -0.234,1.439 -0.814,2.574 -1.336,3.922 -1.163,3.013 3.673,4.304 4.823,1.332 l 0,0 z"
   id="path83" />
		</g>
	</g>
	<g
   id="g85">
		<g
   id="g87">
			<path
   d="m 526.496,321.009 c -0.033,-0.104 0.111,-0.584 -0.072,0.076 -0.074,0.271 -0.146,0.537 -0.211,0.813 -0.096,0.428 -0.244,0.764 -0.244,1.229 0,0.396 0.299,1.324 0.34,1.508 0.514,2.336 4.396,2.453 4.822,0 0.176,-1.012 0.281,-2.031 0.531,-3.031 0.258,-1.035 0.563,-2.021 0.588,-3.102 0.076,-3.227 -4.924,-3.219 -5,0 -0.016,0.725 -0.33,1.453 -0.506,2.158 -0.215,0.865 -0.283,1.768 -0.438,2.645 1.607,0 3.217,0 4.822,0 -0.025,-0.115 -0.336,-1.209 -0.25,-0.844 0,0.443 0,0.887 0,1.33 0.311,-1.365 0.896,-2.699 0.439,-4.111 -0.993,-3.054 -5.823,-1.747 -4.821,1.329 l 0,0 z"
   id="path89" />
		</g>
	</g>
	<g
   id="g91">
		<g
   id="g93">
			<path
   d="m 513.96,242.411 c 1.314,0.304 2.348,1.404 3.973,0.181 0.918,-0.692 1.459,-1.64 1.148,-2.824 -0.422,-1.606 -1.957,-2.983 -3.746,-2.491 -2.301,0.633 -1.732,2.507 -2.979,3.893 1.393,0.368 2.785,0.735 4.18,1.103 -2.729,-6.489 -6.906,-12.982 -10.879,-18.785 -3.41,-4.984 -8.061,-10.253 -13.867,-12.399 -2.043,-0.754 -4.004,1.913 -2.824,3.672 3.338,4.979 8.49,8.631 12.379,13.218 3.971,4.685 7.609,9.248 13.08,12.367 1.777,1.013 4.467,-0.676 3.674,-2.823 -1.564,-4.228 -5.184,-7.87 -7.729,-11.589 -2.439,-3.563 -6.281,-5.869 -10.045,-7.78 -2.869,-1.456 -5.4,2.858 -2.523,4.317 3.537,1.795 6.723,3.752 9,7.081 1.859,2.717 5.34,6.229 6.477,9.3 1.225,-0.941 2.447,-1.882 3.672,-2.823 -4.994,-2.847 -8.523,-7.207 -12.068,-11.584 -3.51,-4.333 -8.516,-7.611 -11.598,-12.206 -0.939,1.224 -1.881,2.448 -2.822,3.672 5.078,1.876 9.018,7.378 11.92,11.62 3.326,4.859 7.055,10.645 9.334,16.072 0.67,1.593 2.781,2.658 4.178,1.103 0.375,-0.417 1.305,-2.82 1.369,-2.859 -0.84,0 -1.682,0 -2.521,0 -0.16,-0.25 -0.318,-0.499 -0.479,-0.749 0.383,-0.941 0.766,-1.882 1.148,-2.823 1.688,0.401 2.049,0.303 1.078,-0.294 -0.377,-0.199 -0.775,-0.33 -1.197,-0.391 -3.141,-0.725 -4.473,4.096 -1.333,4.821 l 0,0 z"
   id="path95" />
		</g>
	</g>
	<g
   id="g97">
		<g
   id="g99">
			<path
   d="m 502.527,229.102 c 0.264,1.808 1.209,3.371 2.393,4.728 0.426,0.487 0.908,0.821 1.24,1.387 0.451,0.772 0.947,1.531 1.635,2.113 1.039,0.88 2.514,1.023 3.535,0 0.904,-0.903 1.041,-2.654 0,-3.535 -0.924,-0.783 -1.381,-2.031 -2.252,-2.905 -0.943,-0.947 -1.531,-1.756 -1.729,-3.117 -0.197,-1.351 -1.887,-2.073 -3.076,-1.746 -1.434,0.394 -1.943,1.728 -1.746,3.075 l 0,0 z"
   id="path101" />
		</g>
	</g>
	<g
   id="g103">
		<g
   id="g105">
			<path
   d="m 490.367,173.428 c 1.596,-3.055 4.156,-5.419 5.533,-8.701 0.939,-2.241 1.654,-3.752 4.086,-4.489 0.617,-0.176 1.248,-0.269 1.889,-0.28 2.52,-0.162 -0.086,0.127 0.574,-1.062 -1.822,3.281 -5.15,6.36 -7.924,8.862 -1.666,1.502 -3.518,2.684 -5.725,3.178 -1.43,0.32 -2.688,0.747 -3.734,1.796 -1.344,1.343 -0.699,3.658 1.102,4.178 7.158,2.066 10.746,-11.501 16.414,-13.75 2.961,-1.174 1.672,-6.012 -1.33,-4.821 -3.141,1.246 -5.248,3.553 -7.445,6.046 -0.949,1.077 -5.23,8.015 -6.309,7.704 0.367,1.393 0.736,2.786 1.104,4.178 0.584,-0.585 2.582,-0.785 3.328,-1.021 1.381,-0.434 2.615,-1.269 3.783,-2.091 2.518,-1.772 4.586,-4.003 6.639,-6.275 2.176,-2.408 7.852,-7.49 4.221,-10.854 -2.803,-2.595 -9.127,-0.729 -11.742,1.188 -2.141,1.571 -2.924,4.324 -3.977,6.638 -1.199,2.638 -3.488,4.537 -4.805,7.051 -1.491,2.856 2.824,5.384 4.318,2.525 l 0,0 z"
   id="path107" />
		</g>
	</g>
	<g
   id="g109">
		<g
   id="g111">
			<path
   d="m 504.537,154.898 c -0.029,-0.151 -0.059,-0.302 -0.082,-0.454 0.1,0.573 0.1,-0.478 -0.012,0.158 0.094,-0.275 0.102,-0.314 0.023,-0.118 0.105,-0.234 0.23,-0.462 0.348,-0.691 0.617,-1.215 0.33,-2.702 -0.896,-3.42 -1.211,-0.709 -2.688,-0.249 -3.42,0.897 -0.188,0.291 -0.367,0.585 -0.549,0.878 -0.092,0.147 -0.186,0.292 -0.281,0.436 -0.428,0.648 0.27,-0.271 -0.248,0.305 -0.689,0.766 -1.383,1.47 -1.984,2.318 -0.789,1.114 -0.199,2.777 0.896,3.42 1.254,0.734 2.635,0.212 3.42,-0.897 0.18,-0.252 0.213,-0.298 0.1,-0.138 0.113,-0.134 0.23,-0.266 0.35,-0.395 0.301,-0.331 0.629,-0.634 0.928,-0.966 0.666,-0.739 1.154,-1.607 1.688,-2.439 -1.438,-0.841 -2.879,-1.682 -4.316,-2.523 -0.359,0.707 -0.777,1.438 -0.916,2.225 -0.166,0.936 -0.041,1.807 0.133,2.733 0.25,1.341 1.846,2.084 3.076,1.746 1.39,-0.384 1.99,-1.737 1.742,-3.075 l 0,0 z"
   id="path113" />
		</g>
	</g>
</g>
</svg>