<?xml version="1.0" standalone="no"?>
<!DOCTYPE svg PUBLIC "-//W3C//DTD SVG 20010904//EN"
 "http://www.w3.org/TR/2001/REC-SVG-20010904/DTD/svg10.dtd">
<svg version="1.0" xmlns="http://www.w3.org/2000/svg"
 width="1734.000000pt" height="3566.000000pt" viewBox="0 0 1734.000000 3566.000000"
 preserveAspectRatio="xMidYMid meet">
<metadata>
Created by potrace 1.16, written by Peter Selinger 2001-2019
</metadata>
<g transform="translate(0.000000,3566.000000) scale(0.100000,-0.100000)"
fill="#000000" stroke="none">
<path d="M2042 35642 c-40 -21 -81 -110 -112 -239 -11 -45 -34 -113 -51 -150
-26 -57 -32 -84 -36 -163 -4 -82 -2 -102 17 -145 12 -27 25 -70 30 -95 15 -87
52 -215 64 -225 19 -15 70 -94 99 -150 13 -27 35 -59 47 -70 31 -28 126 -166
144 -210 9 -21 16 -55 16 -77 0 -44 18 -75 86 -149 23 -26 48 -66 55 -89 15
-51 97 -140 249 -273 148 -129 192 -178 246 -271 59 -103 127 -206 135 -206 4
0 12 -15 20 -32 18 -47 100 -148 163 -202 30 -25 57 -46 61 -46 11 0 147 -127
192 -179 31 -36 47 -67 61 -118 38 -143 180 -347 288 -413 19 -13 37 -34 44
-55 6 -18 23 -51 38 -72 15 -21 54 -90 85 -153 51 -101 67 -123 128 -177 39
-35 100 -79 135 -99 36 -20 68 -42 70 -49 3 -7 23 -20 44 -30 36 -16 39 -21
45 -69 8 -55 27 -100 49 -113 7 -4 19 -19 26 -33 17 -33 78 -106 167 -199 40
-42 93 -101 119 -131 26 -30 61 -63 79 -72 28 -15 34 -25 45 -80 7 -35 21 -79
30 -98 9 -19 20 -48 24 -64 9 -36 36 -77 87 -131 21 -22 66 -69 100 -105 34
-36 72 -81 85 -100 13 -19 43 -57 68 -83 42 -45 45 -52 45 -104 0 -42 7 -71
30 -117 31 -63 169 -249 240 -323 22 -23 51 -62 65 -86 14 -24 55 -77 91 -118
56 -64 65 -80 65 -114 1 -71 32 -134 132 -269 46 -62 286 -297 334 -326 26
-16 32 -30 11 -30 -34 0 -35 -22 -3 -98 59 -142 87 -183 196 -289 58 -56 116
-108 130 -115 14 -6 39 -24 55 -39 17 -15 49 -37 71 -49 23 -11 49 -29 58 -38
31 -36 136 -187 136 -198 0 -6 7 -17 15 -24 8 -7 15 -22 15 -34 0 -12 7 -31
15 -42 22 -29 18 -79 -11 -134 -28 -54 -29 -45 7 -167 12 -40 11 -43 -22 -89
-19 -26 -61 -73 -94 -103 -33 -31 -80 -77 -105 -103 -25 -25 -72 -69 -105 -96
-155 -127 -291 -291 -364 -441 -15 -31 -32 -65 -39 -76 -28 -49 -65 -224 -73
-345 -9 -147 -4 -168 78 -302 29 -47 53 -97 53 -111 0 -13 13 -51 30 -83 16
-32 30 -64 30 -70 0 -7 -20 -28 -45 -48 -50 -42 -54 -56 -25 -93 23 -30 26
-73 6 -111 -8 -15 -33 -83 -56 -152 -34 -98 -44 -146 -50 -225 -6 -87 -13
-115 -49 -199 -23 -54 -62 -131 -87 -171 -24 -41 -47 -82 -51 -92 -4 -10 -21
-36 -40 -57 -18 -22 -33 -45 -33 -51 0 -6 -29 -55 -64 -108 -62 -95 -112 -188
-136 -257 -7 -19 -22 -62 -34 -95 -11 -33 -41 -89 -65 -125 -24 -36 -60 -99
-81 -140 -115 -231 -153 -300 -188 -340 -38 -44 -167 -286 -196 -368 -25 -71
-86 -177 -106 -184 -20 -7 -92 33 -120 67 -7 8 -18 15 -25 15 -7 0 -32 30 -55
68 -24 37 -52 80 -62 95 -11 16 -29 49 -42 75 -16 34 -90 115 -263 287 -269
268 -323 316 -323 291 0 -13 -7 -15 -38 -10 -25 4 -51 0 -76 -10 -37 -15 -38
-15 -72 12 -19 15 -34 32 -34 39 0 7 -6 27 -14 45 -8 18 -22 78 -31 133 -9 55
-21 108 -26 117 -5 10 -9 54 -9 98 0 59 -6 99 -25 152 -16 47 -34 142 -49 266
-14 106 -29 199 -34 205 -5 7 -12 41 -16 77 -6 69 -15 124 -40 230 -8 36 -20
119 -25 185 -12 137 -23 206 -57 355 -13 58 -25 137 -28 175 -3 39 -10 86 -16
105 -6 19 -18 82 -26 140 -9 57 -26 141 -39 185 -24 84 -44 182 -71 355 -8 58
-34 195 -56 305 -23 110 -45 232 -50 270 -6 39 -21 104 -34 146 -13 42 -24 99
-24 128 0 41 -10 73 -51 159 -28 59 -64 126 -80 149 -16 23 -29 46 -29 51 0
16 -98 102 -116 102 -19 0 -43 28 -44 50 0 9 -15 22 -34 28 -19 7 -51 26 -72
43 -22 17 -54 42 -71 57 -18 14 -33 32 -33 40 0 51 -114 322 -143 339 -9 5
-16 35 -20 78 -9 97 -21 132 -72 210 -24 37 -47 81 -51 98 -3 17 -19 59 -35
95 -16 35 -29 70 -29 78 0 7 -11 16 -24 20 -44 11 -83 62 -271 355 -75 116
-125 209 -125 231 0 20 -25 81 -94 223 -47 98 -81 185 -91 234 -6 30 -74 142
-119 194 -24 29 -55 71 -69 94 -14 22 -40 48 -58 57 -42 21 -142 21 -159 1 -7
-8 -18 -15 -26 -15 -7 0 -18 -9 -24 -20 -8 -14 -21 -20 -45 -20 -19 0 -35 4
-35 9 0 4 -12 21 -27 37 -37 39 -73 137 -107 290 -7 33 -18 69 -23 80 -6 10
-18 53 -27 94 -10 41 -33 113 -51 160 -59 149 -56 174 15 106 47 -45 182 -136
194 -129 16 10 0 108 -29 173 -35 79 -67 125 -119 170 -38 34 -39 34 -155 38
-105 4 -122 2 -159 -17 -23 -12 -49 -32 -57 -45 -9 -13 -32 -35 -50 -48 -19
-12 -35 -29 -35 -35 0 -8 -15 -13 -40 -13 -99 0 -238 -93 -255 -170 -4 -19
-12 -38 -18 -42 -14 -9 9 -184 29 -215 8 -12 14 -28 14 -35 0 -16 75 -70 109
-80 15 -4 28 -3 32 3 9 15 61 -54 103 -137 20 -38 36 -73 36 -77 0 -5 33 -52
73 -104 39 -53 109 -149 154 -212 45 -64 95 -135 112 -158 17 -23 31 -49 31
-57 0 -27 -21 -28 -49 -2 -30 29 -100 46 -189 46 -51 0 -59 -3 -108 -45 -43
-37 -56 -56 -68 -99 -13 -43 -21 -55 -41 -60 -22 -6 -25 -12 -25 -52 0 -28 9
-62 24 -92 46 -88 336 -403 486 -525 135 -111 297 -288 360 -392 64 -106 330
-394 466 -505 67 -55 152 -136 193 -184 39 -47 76 -86 81 -86 5 0 28 -23 51
-52 35 -45 40 -57 35 -87 -37 -246 -38 -244 62 -472 11 -25 25 -79 31 -120 7
-41 21 -92 33 -114 29 -55 86 -226 104 -310 18 -85 81 -298 135 -460 23 -66
47 -147 54 -180 7 -33 38 -158 69 -279 31 -120 56 -227 56 -236 0 -10 18 -76
39 -147 75 -247 111 -384 111 -423 0 -27 12 -64 35 -108 34 -66 68 -171 120
-367 14 -55 35 -131 47 -169 23 -80 119 -286 152 -331 33 -43 50 -79 81 -170
26 -77 65 -153 145 -280 67 -106 80 -185 54 -338 -7 -43 16 -127 72 -264 35
-83 78 -203 119 -329 12 -39 35 -96 50 -125 15 -30 36 -76 46 -104 10 -27 25
-70 34 -94 15 -40 85 -149 126 -196 10 -11 34 -61 54 -110 20 -50 52 -128 71
-175 20 -47 43 -103 52 -125 9 -22 51 -78 93 -125 42 -47 82 -96 89 -110 7
-14 59 -85 114 -158 56 -73 111 -147 123 -165 12 -18 31 -44 42 -58 11 -15 32
-57 46 -95 23 -61 27 -91 36 -269 5 -110 16 -234 24 -275 10 -53 14 -150 14
-328 0 -139 5 -260 10 -270 5 -9 19 -66 31 -127 12 -60 28 -137 37 -170 8 -33
17 -68 19 -78 10 -55 122 -187 158 -187 21 0 1 -76 -29 -112 -14 -16 -25 -33
-25 -38 0 -13 -120 -90 -142 -90 -11 0 -44 -11 -74 -25 -30 -14 -65 -25 -78
-25 -22 0 -59 -24 -97 -61 -9 -9 -40 -67 -68 -129 -44 -95 -100 -182 -147
-225 -13 -12 -31 -74 -39 -140 -16 -126 -39 -214 -72 -275 -36 -68 -70 -226
-73 -340 -5 -173 -4 -173 -125 -115 -40 19 -100 39 -133 44 -33 5 -74 17 -91
25 -16 9 -62 20 -102 26 -39 6 -75 12 -78 15 -4 2 -67 11 -140 20 -96 11 -182
13 -309 9 -161 -5 -230 -14 -362 -46 -83 -21 -207 -84 -252 -130 -43 -43 -47
-51 -97 -218 -16 -57 -72 -128 -122 -159 -15 -9 -52 -40 -83 -69 -31 -28 -67
-54 -80 -58 -12 -3 -53 -41 -90 -85 -38 -43 -72 -79 -76 -79 -4 0 -15 -16 -25
-35 -9 -20 -29 -50 -43 -68 -48 -56 -98 -136 -195 -312 -58 -107 -234 -375
-246 -375 -5 0 -21 -39 -36 -87 -26 -83 -87 -205 -169 -337 -20 -33 -36 -64
-36 -69 0 -11 -104 -171 -137 -211 -13 -16 -77 -135 -141 -264 -67 -134 -131
-251 -150 -271 -20 -21 -37 -52 -43 -80 -18 -80 -220 -477 -262 -516 -13 -12
-32 -54 -45 -100 -13 -44 -54 -145 -92 -225 -38 -80 -83 -185 -100 -234 -18
-49 -42 -105 -55 -125 -24 -38 -112 -306 -165 -506 -18 -66 -37 -129 -43 -140
-6 -11 -21 -49 -33 -84 -29 -85 -19 -119 51 -187 53 -52 102 -78 169 -88 20
-3 46 -11 56 -16 11 -6 56 -17 101 -25 45 -7 86 -18 91 -23 5 -5 0 -78 -11
-173 -11 -90 -25 -240 -32 -334 -14 -212 -8 -667 10 -710 7 -16 17 -55 23 -85
5 -30 18 -71 29 -91 18 -36 96 -109 116 -109 5 0 20 -11 33 -25 l23 -24 1
-383 2 -383 26 -90 c15 -49 45 -143 68 -208 40 -116 40 -119 24 -153 -16 -34
-16 -37 3 -62 11 -15 32 -33 48 -41 15 -7 30 -21 32 -31 7 -26 31 -30 189 -30
l141 0 7 -92 c4 -51 14 -106 22 -123 8 -16 20 -70 25 -120 10 -94 29 -165 60
-227 11 -21 19 -49 19 -64 0 -14 9 -37 20 -51 11 -14 20 -36 20 -48 0 -12 14
-37 30 -55 28 -32 30 -39 30 -116 l0 -82 53 -30 c84 -47 122 -55 166 -32 49
24 91 85 94 136 2 34 6 40 30 45 15 4 46 0 70 -8 23 -8 76 -17 117 -19 68 -5
80 -2 125 23 67 37 94 89 96 182 1 66 -17 125 -45 143 -23 16 -56 9 -56 -11 0
-11 -5 -23 -10 -26 -6 -3 -10 -18 -10 -34 0 -24 -4 -27 -35 -29 -47 -3 -71 24
-113 125 -18 44 -56 118 -83 164 -79 131 -154 278 -179 349 -13 36 -36 81 -50
100 -31 40 -43 85 -25 100 6 5 50 8 98 7 59 -1 90 2 99 11 8 8 15 51 18 118 3
57 9 105 15 107 5 1 29 -27 54 -62 50 -71 59 -68 60 20 1 36 -7 59 -40 114
-23 38 -52 94 -65 125 -13 31 -34 78 -48 105 -14 26 -26 58 -26 70 0 12 -11
38 -24 58 -20 29 -24 48 -25 107 0 70 -23 143 -55 180 -8 8 -17 26 -21 40 -12
44 -39 90 -56 95 -10 3 -47 25 -84 49 -36 24 -77 47 -91 50 -13 4 -24 13 -24
21 0 9 -4 23 -10 33 -15 27 -60 147 -60 161 0 6 6 22 14 34 20 30 26 248 8
269 -7 9 -17 51 -22 94 -5 44 -12 106 -16 139 -7 60 -28 114 -67 169 -11 16
-33 65 -48 110 l-28 80 22 24 22 23 16 -20 c10 -12 20 -21 23 -21 11 0 6 38
-9 66 -8 16 -15 48 -15 71 0 36 -8 52 -59 116 -33 41 -65 78 -70 82 -6 3 -20
23 -31 44 -10 21 -35 59 -54 85 -24 31 -36 57 -36 79 0 74 78 302 110 322 6 4
10 28 9 53 -2 55 31 214 61 290 12 30 20 76 20 110 0 87 48 262 72 262 4 0 8
6 8 14 0 29 83 283 105 321 13 22 37 83 53 135 51 162 101 292 140 360 20 36
42 77 49 92 22 51 96 173 119 198 13 14 48 82 78 150 29 69 84 190 121 270 73
159 175 432 225 605 32 108 123 324 265 622 105 220 148 264 157 157 5 -60 16
-74 61 -74 15 0 56 -14 90 -32 57 -29 69 -31 146 -29 59 2 103 9 145 25 34 13
78 26 100 30 21 4 53 14 70 23 34 16 40 15 156 -15 52 -13 176 -90 239 -148
66 -59 192 -151 226 -164 13 -5 50 -27 82 -48 72 -49 139 -83 147 -75 3 3 13
-11 22 -33 9 -21 23 -46 31 -55 24 -28 17 -161 -22 -368 -9 -52 -15 -112 -12
-133 5 -39 -9 -101 -59 -265 -27 -88 -27 -88 -22 -558 2 -119 -1 -150 -20
-205 -35 -106 -47 -188 -43 -300 9 -282 -3 -775 -19 -825 -8 -23 -5 -56 11
-135 34 -168 34 -226 3 -740 -1 -30 -6 -120 -9 -200 -3 -80 -10 -188 -16 -240
-6 -52 -14 -192 -18 -310 -4 -118 -12 -226 -18 -240 -5 -14 -11 -180 -12 -392
l-2 -367 -40 -80 c-21 -44 -39 -85 -39 -90 0 -10 -66 -105 -152 -221 -19 -25
-54 -80 -78 -122 -24 -43 -47 -78 -50 -78 -4 0 -15 -21 -25 -47 -10 -27 -36
-84 -58 -128 -22 -44 -50 -107 -62 -140 -13 -33 -50 -116 -83 -185 -91 -189
-121 -267 -138 -360 -19 -105 -62 -247 -80 -265 -18 -17 -18 -59 0 -121 8 -27
16 -65 19 -85 5 -39 20 -74 47 -104 23 -26 30 -77 20 -140 -4 -27 -15 -113
-24 -190 -9 -77 -26 -201 -38 -275 -23 -141 -24 -156 -38 -680 -7 -235 -6
-358 2 -445 6 -66 13 -264 14 -440 1 -202 6 -330 13 -348 6 -16 11 -71 10
-122 0 -52 2 -99 6 -104 6 -11 23 -227 30 -386 4 -96 19 -241 36 -340 6 -33
12 -132 15 -220 5 -161 19 -273 55 -420 17 -70 19 -118 19 -390 0 -347 10
-473 40 -515 41 -58 220 -90 303 -55 20 8 48 15 61 15 44 0 51 -29 48 -200 -3
-180 10 -356 33 -419 11 -31 17 -100 21 -243 3 -110 9 -211 15 -225 5 -13 11
-63 14 -111 16 -254 43 -360 89 -348 26 6 57 -18 80 -62 32 -63 39 -119 41
-362 4 -359 17 -543 44 -608 38 -94 62 -134 124 -206 66 -78 79 -88 105 -85
43 7 71 -11 97 -64 14 -28 43 -83 65 -122 22 -38 51 -95 66 -125 14 -30 41
-86 59 -125 19 -38 41 -97 51 -130 9 -33 28 -77 41 -99 14 -21 31 -56 39 -78
19 -54 70 -111 141 -157 33 -21 64 -44 67 -50 4 -6 27 -20 53 -31 56 -24 138
-26 183 -4 19 10 73 20 133 24 84 6 102 10 116 27 9 12 34 30 56 41 65 33 203
175 211 218 3 16 15 44 26 62 30 49 32 246 4 310 -18 40 -20 41 -38 26 -11
-11 -18 -31 -18 -53 0 -34 -19 -104 -32 -116 -3 -3 -18 24 -34 60 -16 36 -31
65 -35 65 -15 0 -27 -29 -44 -100 -23 -98 -60 -158 -101 -166 -25 -5 -47 3
-105 36 -41 23 -78 48 -82 56 -5 8 -23 29 -41 47 -65 65 -164 231 -215 358
-27 68 -52 139 -56 156 l-7 33 95 0 c103 0 107 2 143 70 35 66 12 272 -50 440
-13 36 -36 106 -51 155 -50 169 -68 220 -105 295 -21 41 -43 98 -50 125 -6 28
-19 66 -27 87 -8 20 -13 41 -9 46 3 5 -5 54 -18 108 -29 122 -56 294 -56 354
0 56 -33 194 -62 263 -21 49 -116 188 -138 202 -18 11 -10 25 14 25 16 0 26
-8 32 -23 6 -18 8 -15 11 21 4 40 0 48 -50 111 -78 95 -121 167 -166 271 -25
56 -52 102 -75 123 -19 18 -38 46 -41 63 -4 16 -27 73 -52 127 -34 73 -47 115
-51 162 l-5 64 37 17 36 18 0 84 c0 85 -27 242 -55 322 -8 23 -15 64 -15 91 0
26 -7 80 -15 120 -9 40 -15 99 -14 133 4 191 5 187 -44 293 -26 54 -47 107
-47 116 0 10 -15 66 -34 125 -35 107 -52 182 -43 182 2 0 23 -7 46 -15 22 -8
41 -11 41 -8 0 4 -10 23 -23 42 -52 79 -99 163 -94 167 3 3 20 -8 38 -23 75
-63 73 -63 66 -19 -3 21 -15 55 -26 76 -26 50 -40 130 -48 270 -6 108 -5 114
11 101 23 -19 31 -6 40 61 6 43 3 55 -22 96 -35 57 -82 172 -111 270 -15 51
-21 96 -20 155 1 61 -6 114 -29 207 -17 69 -47 215 -67 325 -21 110 -48 246
-61 302 -13 55 -37 177 -54 270 -17 92 -40 203 -51 246 -13 51 -19 106 -18
163 1 84 2 86 44 142 23 31 54 68 69 81 l26 25 55 -27 c31 -15 68 -27 83 -27
34 0 70 36 102 100 12 25 32 59 44 75 13 17 38 58 57 93 18 34 37 62 40 62 7
0 27 -58 78 -223 45 -145 272 -655 382 -859 34 -62 83 -158 109 -213 27 -55
80 -148 118 -207 39 -58 73 -116 77 -127 3 -11 45 -62 92 -113 110 -120 195
-225 252 -313 49 -76 166 -211 301 -346 47 -47 118 -123 157 -170 105 -126
198 -209 298 -269 50 -30 124 -79 166 -110 112 -83 278 -185 350 -215 57 -24
303 -148 490 -246 72 -38 305 -129 330 -129 8 0 122 -36 254 -80 132 -44 250
-80 262 -80 12 0 91 -18 176 -39 108 -28 180 -40 244 -43 89 -3 92 -2 130 28
21 17 63 45 94 63 48 26 66 31 125 31 58 0 76 -4 106 -25 46 -31 49 -31 99 0
40 26 115 45 176 45 26 0 41 -8 64 -35 17 -19 56 -47 87 -62 50 -25 69 -28
182 -31 120 -4 128 -3 200 26 42 17 116 38 165 48 50 9 97 23 106 31 17 14
173 56 254 68 28 4 63 14 78 22 15 7 114 47 220 87 296 113 337 132 401 186
39 34 122 83 259 151 215 108 217 109 440 267 154 110 255 201 626 566 173
172 220 224 314 356 61 85 140 191 177 235 36 44 74 96 84 115 11 19 61 100
111 180 166 261 384 690 445 875 18 55 52 147 75 205 23 58 54 146 68 197 14
50 33 106 40 125 l15 33 41 -89 c23 -49 57 -106 76 -128 19 -21 35 -47 35 -58
0 -24 18 -34 98 -54 l62 -17 37 26 c21 14 43 25 50 25 26 0 100 -126 123 -210
15 -57 1 -161 -46 -330 -37 -135 -73 -319 -129 -663 -28 -169 -44 -242 -74
-320 -44 -119 -75 -242 -96 -382 -8 -55 -23 -129 -34 -165 -11 -36 -29 -99
-41 -140 -12 -41 -26 -88 -31 -104 -11 -37 -6 -42 27 -27 15 6 29 9 33 6 3 -4
8 -45 10 -91 3 -80 1 -89 -37 -177 -22 -50 -43 -108 -47 -127 -4 -19 -14 -47
-21 -62 -31 -60 -21 -57 76 21 l42 34 -21 -41 c-32 -62 -70 -172 -57 -165 6 3
19 13 28 21 17 14 18 12 18 -28 0 -78 -22 -173 -51 -220 -15 -25 -31 -63 -35
-85 -4 -22 -22 -73 -40 -114 -38 -81 -41 -118 -19 -181 20 -57 19 -116 -4
-183 -11 -31 -17 -65 -14 -76 7 -26 -6 -80 -57 -239 -32 -99 -40 -138 -40
-200 0 -95 10 -132 49 -179 17 -21 31 -49 31 -63 0 -46 -29 -125 -78 -216 -27
-49 -77 -141 -112 -204 -34 -63 -88 -153 -120 -200 -74 -110 -131 -224 -175
-352 -59 -168 -63 -187 -86 -343 -12 -82 -29 -179 -39 -215 -10 -36 -21 -85
-25 -110 -3 -25 -14 -67 -23 -93 -16 -48 -16 -49 6 -65 l22 -17 -22 -41 c-28
-50 -48 -84 -112 -183 -27 -42 -57 -103 -66 -137 -10 -34 -23 -71 -29 -82 -22
-42 -10 -36 24 12 l35 50 0 -35 c0 -46 -23 -129 -59 -214 -16 -38 -41 -124
-56 -189 -23 -101 -26 -132 -20 -200 3 -45 13 -91 21 -103 18 -29 80 -61 134
-69 l43 -7 -7 -68 c-6 -70 -28 -118 -159 -344 -87 -151 -206 -265 -276 -265
-80 0 -103 23 -121 121 -10 53 -37 119 -49 119 -4 0 -13 -17 -21 -37 -7 -21
-20 -54 -28 -73 l-15 -35 -13 38 c-7 20 -18 64 -25 97 -6 33 -15 62 -18 64 -4
3 -17 -11 -30 -29 -29 -43 -39 -156 -21 -250 17 -90 87 -212 151 -267 27 -23
49 -46 48 -52 -3 -26 3 -35 36 -50 38 -18 260 -65 308 -66 16 0 44 -7 63 -16
27 -13 39 -14 66 -5 65 22 173 97 213 148 22 28 46 53 54 55 17 4 80 100 115
173 22 46 43 108 68 195 15 52 145 319 173 356 14 18 25 37 25 43 0 32 83 58
92 29 2 -6 45 26 95 72 86 78 93 89 122 164 48 125 81 466 81 829 0 182 1 184
64 255 l20 23 12 -22 c11 -22 12 -22 22 -3 14 28 60 254 76 379 8 61 18 178
21 260 4 83 14 186 22 230 11 54 18 169 22 350 6 251 8 272 27 305 12 19 27
33 35 31 134 -35 240 -39 317 -11 47 18 82 81 76 140 -3 25 4 110 16 190 16
110 22 216 26 440 4 205 13 365 29 525 13 127 27 273 30 325 8 118 10 126 30
110 13 -11 15 -4 15 49 0 33 -4 61 -9 61 -6 0 -8 68 -6 168 3 125 9 189 24
256 15 62 23 132 25 230 2 78 11 188 20 246 14 90 15 121 5 217 -11 100 -10
132 11 319 22 191 23 219 12 353 -7 80 -12 227 -12 326 0 207 -17 408 -61 720
-18 121 -32 254 -33 296 -1 71 2 82 39 154 33 65 40 90 43 149 8 153 -74 474
-173 681 -187 390 -352 711 -391 761 -51 64 -129 185 -159 244 -15 30 -41 73
-57 96 l-29 41 12 194 c13 217 7 436 -15 549 -26 133 -45 390 -56 752 -6 194
-17 439 -25 543 -10 146 -11 245 -4 430 7 164 7 371 -1 650 -14 517 -25 704
-51 823 -24 109 -27 238 -9 350 11 69 10 88 -9 182 -11 58 -25 150 -31 205
-11 101 -36 251 -71 425 -10 52 -19 120 -19 151 0 70 21 92 144 150 138 64
207 108 257 161 25 26 69 63 97 81 29 17 82 53 120 80 52 37 86 52 150 67 127
30 209 25 377 -25 110 -33 184 -30 243 10 20 14 49 25 65 25 35 0 77 40 77 75
0 15 5 35 11 46 9 17 18 7 76 -88 107 -176 342 -714 449 -1028 36 -104 94
-251 129 -325 35 -74 78 -171 96 -215 18 -44 85 -183 149 -310 237 -465 361
-779 455 -1155 30 -118 86 -316 125 -440 38 -124 75 -252 81 -285 16 -88 3
-188 -31 -239 -109 -161 -180 -300 -180 -350 -1 -23 -7 -52 -15 -66 -21 -36
-19 -40 15 -34 28 6 30 4 30 -23 0 -49 -84 -284 -117 -323 -7 -9 -18 -90 -27
-195 -9 -99 -20 -209 -26 -245 -5 -39 -5 -68 0 -75 19 -23 12 -72 -20 -138
-19 -39 -30 -77 -28 -91 4 -20 -4 -28 -68 -59 -42 -21 -83 -49 -96 -67 -12
-17 -37 -40 -55 -51 -23 -14 -34 -31 -39 -54 -3 -19 -23 -61 -44 -93 -35 -53
-39 -67 -43 -138 -4 -91 -50 -222 -143 -412 -50 -103 -55 -119 -52 -170 2 -32
8 -57 13 -57 6 0 26 24 45 53 l35 54 3 -39 c1 -21 9 -68 18 -104 l15 -66 77
-11 c42 -7 86 -12 98 -12 11 0 30 -10 42 -23 l22 -24 -31 -69 c-17 -38 -51
-101 -74 -139 -23 -39 -59 -104 -80 -145 -21 -41 -75 -134 -121 -207 -46 -72
-86 -143 -90 -157 -6 -27 -52 -66 -76 -66 -19 0 -38 20 -38 41 0 10 -11 31
-24 46 l-25 28 -40 -40 c-37 -35 -41 -44 -41 -87 0 -118 32 -180 110 -214 87
-38 118 -43 193 -30 40 7 82 18 95 25 21 11 22 10 22 -19 0 -17 9 -53 21 -80
17 -40 28 -51 63 -64 56 -21 115 -20 169 3 55 24 60 32 61 95 1 41 13 75 60
171 82 169 126 302 126 384 0 47 8 87 30 145 16 45 36 106 45 137 9 31 24 64
34 73 25 23 64 12 95 -25 29 -34 51 -36 86 -9 14 11 30 20 35 20 6 0 33 20 62
45 61 53 97 133 107 239 4 38 22 117 40 175 36 114 49 186 67 381 13 135 7
368 -11 463 -10 50 -9 62 6 85 22 35 77 88 125 117 41 27 56 64 84 212 50 268
47 889 -4 1113 -6 25 -11 68 -11 96 l0 51 52 7 c29 4 77 16 108 26 30 10 81
21 112 25 64 8 92 32 139 114 14 25 28 40 36 37 8 -3 13 2 13 12 0 48 -46 245
-90 382 -27 85 -59 196 -71 245 -12 50 -36 117 -54 150 -18 33 -96 212 -174
398 -82 195 -170 390 -210 461 -38 68 -103 190 -144 272 -158 315 -337 645
-429 789 -89 140 -288 507 -356 656 -29 66 -184 312 -356 569 -101 150 -242
301 -403 429 -51 41 -102 90 -114 110 -27 46 -80 198 -73 214 2 7 -35 51 -83
98 -77 75 -99 91 -173 122 -89 37 -178 57 -345 77 -159 19 -522 1 -668 -34
-38 -9 -78 -16 -90 -16 -12 0 -38 -9 -57 -20 -19 -11 -60 -32 -90 -46 -30 -14
-63 -29 -72 -35 -10 -5 -36 -9 -58 -9 l-40 0 0 72 c0 125 -26 236 -90 383 -10
22 -30 90 -45 150 -15 61 -31 118 -36 127 -5 9 -13 49 -19 89 -6 40 -17 80
-24 88 -7 9 -31 48 -52 86 -21 39 -52 90 -69 115 -18 25 -46 70 -63 100 -41
74 -65 93 -142 119 -126 42 -193 82 -258 153 -70 76 -81 117 -39 139 12 6 34
23 49 36 14 14 30 23 35 21 4 -1 24 31 44 72 27 54 44 112 63 210 47 246 56
322 56 485 0 88 9 268 20 400 23 279 24 335 8 369 -17 39 3 90 73 187 33 46
65 95 71 109 5 14 44 61 86 105 81 85 110 126 232 334 41 70 91 149 111 177
38 50 83 141 125 252 13 35 48 98 76 140 97 144 244 497 278 667 7 33 28 119
48 190 19 72 37 148 39 170 2 22 8 76 14 119 8 60 8 81 -2 86 -8 6 5 34 46 96
31 48 58 95 60 105 2 10 32 59 66 110 73 110 167 295 219 434 69 187 279 868
384 1250 90 327 153 603 191 840 11 69 54 203 127 389 39 100 87 231 108 291
21 61 77 200 125 310 l87 200 -7 83 c-5 56 -14 97 -31 130 -38 75 -25 142 36
187 19 14 76 67 125 118 50 51 170 160 268 242 146 122 184 159 204 200 14 27
58 84 97 125 88 92 139 155 196 240 26 40 151 173 320 340 152 151 289 295
305 320 16 25 46 61 68 81 30 28 41 47 48 84 10 53 -1 85 -30 85 -14 0 -20 10
-25 38 -8 53 -43 101 -100 140 -42 28 -57 32 -112 32 -50 0 -77 -6 -117 -26
-29 -15 -53 -30 -55 -35 -2 -5 -12 -9 -23 -9 -29 0 -23 32 16 86 19 27 48 73
65 101 17 29 38 56 45 61 19 10 98 125 217 317 55 88 109 168 120 178 11 9 33
17 50 17 103 0 171 115 172 290 0 158 -59 216 -253 251 -43 8 -61 17 -85 44
-17 19 -52 52 -78 73 -46 39 -48 40 -151 47 -73 5 -116 4 -142 -5 -38 -12
-165 -123 -165 -144 0 -6 -9 -29 -20 -51 -11 -21 -25 -65 -31 -98 -10 -49 -10
-60 2 -68 24 -15 35 -11 91 33 29 24 69 54 88 67 19 13 39 30 43 37 10 17 37
18 37 2 0 -7 -10 -33 -21 -58 -31 -67 -56 -141 -96 -285 -20 -71 -42 -152 -50
-180 -8 -27 -18 -64 -22 -81 -11 -43 -68 -148 -94 -172 l-22 -21 -55 27 c-38
18 -76 28 -123 30 -67 4 -70 3 -104 -29 -19 -19 -48 -60 -64 -91 -16 -31 -34
-60 -40 -63 -20 -13 -77 -111 -89 -154 -14 -52 -105 -258 -142 -321 -14 -25
-29 -61 -33 -80 -9 -42 -47 -107 -130 -220 -34 -47 -74 -107 -88 -135 -14 -27
-71 -103 -128 -169 -96 -113 -105 -126 -165 -267 -36 -82 -89 -220 -118 -306
-30 -87 -74 -213 -99 -280 -25 -66 -48 -141 -52 -165 -9 -51 -23 -69 -84 -104
-75 -44 -290 -235 -330 -294 -13 -19 -41 -54 -62 -77 -54 -59 -77 -110 -99
-221 -11 -53 -24 -113 -30 -132 -5 -19 -10 -58 -10 -86 0 -56 -19 -166 -79
-449 -22 -104 -47 -246 -56 -314 -17 -135 -31 -205 -96 -491 -23 -102 -45
-219 -50 -260 -19 -170 -31 -238 -50 -288 -26 -72 -49 -243 -49 -366 0 -104
-20 -237 -65 -436 -14 -63 -30 -156 -34 -206 -5 -50 -20 -129 -34 -175 -14
-46 -31 -113 -37 -149 -26 -151 -64 -298 -86 -336 l-24 -41 -108 -5 c-107 -5
-107 -5 -187 -53 -103 -62 -148 -105 -181 -174 -33 -72 -167 -250 -239 -321
-31 -30 -70 -75 -87 -100 -69 -102 -204 -220 -250 -220 -37 0 -46 12 -72 86
-42 120 -95 225 -170 334 -41 58 -101 165 -136 240 -34 74 -70 144 -80 155
-43 48 -168 272 -231 412 -37 83 -107 222 -154 309 -48 87 -93 172 -101 189
-7 18 -56 103 -108 191 l-96 159 0 81 c0 55 -6 100 -20 139 -11 32 -20 70 -20
84 0 44 -19 99 -45 130 -14 16 -25 38 -25 50 0 12 -4 21 -9 21 -6 0 1 25 15
55 13 31 24 60 24 65 0 5 -14 26 -32 45 -21 24 -37 35 -50 32 -10 -3 -18 -4
-18 -4 2 28 53 154 94 235 92 180 96 194 96 350 0 134 -1 140 -44 274 -40 125
-52 149 -128 259 -99 146 -217 268 -353 364 -81 58 -112 88 -175 170 -91 120
-110 167 -86 216 14 31 14 39 0 94 -8 33 -18 72 -21 88 -3 15 -9 27 -14 27
-16 0 -10 21 20 63 15 23 36 69 45 102 19 65 69 145 119 192 30 28 210 159
270 196 15 10 49 46 75 80 26 34 73 89 105 123 77 82 109 161 94 230 l-11 47
49 41 c27 23 92 80 146 129 53 48 102 87 108 87 15 0 53 61 121 193 49 95 54
108 42 128 -12 19 -6 31 65 136 87 130 154 207 228 266 42 33 119 131 173 221
8 14 12 51 10 107 l-2 86 39 49 c61 76 108 124 137 140 15 8 48 44 74 81 27
38 64 88 84 113 94 116 156 273 112 282 -10 2 18 30 74 75 85 67 154 139 219
228 16 22 64 78 106 125 85 94 99 120 99 185 l0 44 76 48 c42 27 102 65 133
86 31 21 75 50 98 65 33 21 49 42 74 97 17 39 31 84 31 102 -1 23 10 46 39 83
22 28 47 54 54 57 16 6 268 318 305 378 14 21 46 88 71 148 45 106 48 110 130
179 46 39 107 88 136 110 62 45 184 211 245 332 22 44 51 97 64 118 14 21 22
43 18 49 -3 6 5 22 17 36 34 36 340 278 380 301 40 22 122 164 114 197 -3 14
8 33 37 62 23 24 48 43 55 43 12 0 26 41 38 115 4 22 17 56 30 75 12 20 34 58
48 85 14 28 57 91 97 140 66 82 127 192 165 297 8 21 23 50 35 66 15 20 27 65
40 140 10 61 23 119 29 129 6 13 5 42 -5 93 -9 41 -15 94 -15 118 0 24 -11 78
-24 120 -14 42 -25 88 -25 101 0 14 -28 58 -72 113 l-72 89 -45 -7 c-28 -4
-103 -37 -188 -81 -127 -66 -154 -85 -250 -176 -59 -56 -125 -113 -146 -127
-51 -34 -137 -157 -188 -272 -75 -167 -159 -298 -215 -335 -30 -19 -45 -49
-114 -218 -28 -71 -68 -157 -88 -189 -19 -32 -45 -93 -58 -135 -12 -42 -38
-122 -58 -179 -20 -57 -36 -109 -36 -115 0 -7 -29 -59 -65 -117 -119 -193
-192 -340 -214 -430 -14 -54 -34 -104 -56 -137 -19 -29 -35 -63 -35 -75 0 -50
-15 -70 -106 -138 -67 -50 -100 -82 -115 -112 -12 -24 -39 -63 -60 -88 -21
-25 -48 -73 -59 -105 -11 -33 -34 -79 -50 -102 -17 -23 -30 -49 -30 -58 0 -9
-33 -51 -73 -93 -102 -108 -133 -157 -182 -291 -48 -132 -49 -135 -116 -247
-39 -66 -64 -93 -127 -142 -135 -105 -175 -161 -242 -347 -40 -112 -106 -229
-141 -249 -15 -9 -38 -16 -51 -16 -34 0 -129 -79 -173 -145 -35 -53 -63 -120
-116 -280 -24 -71 -83 -195 -109 -228 -11 -14 -43 -31 -78 -41 -50 -15 -62
-24 -75 -52 -9 -18 -29 -51 -44 -72 -29 -39 -51 -92 -119 -276 -19 -54 -56
-127 -80 -163 -24 -35 -44 -70 -44 -77 0 -7 -16 -35 -35 -62 -23 -31 -35 -60
-35 -81 0 -29 -4 -33 -42 -45 -24 -6 -57 -21 -75 -33 -32 -21 -143 -157 -143
-176 0 -5 -13 -45 -29 -87 -17 -42 -37 -112 -46 -154 l-16 -76 -37 -7 c-30 -5
-51 0 -102 24 -51 24 -79 31 -127 31 -62 0 -63 0 -89 41 -14 22 -41 82 -60
132 -19 51 -59 144 -89 207 -29 63 -70 165 -91 225 -50 147 -76 186 -254 385
l-76 86 -20 114 -19 115 -5 -82 -5 -83 -63 41 c-91 57 -197 109 -267 130 -33
10 -100 32 -150 50 -95 33 -263 72 -277 63 -14 -9 -9 -72 12 -126 31 -82 27
-113 -23 -174 -43 -51 -44 -56 -66 -190 -25 -151 -45 -194 -103 -229 -44 -27
-120 -56 -127 -49 -3 3 -8 40 -9 83 -4 72 -2 81 26 127 17 27 36 69 42 94 7
24 20 55 31 68 28 36 24 52 -12 52 -28 0 -33 -5 -75 -94 -24 -51 -44 -104 -44
-117 0 -32 -7 -40 -61 -77 l-46 -31 -7 67 c-10 106 -7 281 5 304 17 32 4 31
-35 -3 -20 -17 -38 -30 -39 -28 -2 2 -15 18 -29 36 l-26 32 -10 -27 c-5 -16
-5 -39 0 -57 5 -16 12 -99 16 -183 8 -164 6 -168 -42 -137 -13 9 -34 37 -45
63 -12 26 -40 76 -61 112 -22 36 -40 75 -40 87 0 12 -14 32 -32 47 -31 24 -33
24 -40 6 -8 -21 2 -60 26 -105 9 -16 16 -35 16 -40 0 -6 13 -51 29 -100 34
-106 47 -185 31 -185 -6 0 -48 18 -94 41 -107 52 -120 76 -119 217 l1 96 -79
84 c-43 46 -79 90 -79 98 0 8 11 42 25 77 14 34 28 80 32 103 5 38 3 41 -25
53 -51 22 -178 -9 -352 -83 -186 -81 -227 -101 -275 -136 -76 -56 -96 -65
-106 -49 -5 8 -7 23 -5 34 13 60 18 155 7 155 -6 0 -11 -12 -11 -27 -1 -42
-48 -217 -60 -221 -5 -2 -10 -12 -10 -22 0 -17 -14 -37 -108 -150 -33 -40
-138 -204 -169 -265 -36 -69 -82 -202 -89 -255 -6 -48 -35 -87 -55 -74 -8 5
-7 10 -46 -145 -34 -138 -43 -146 -173 -165 -86 -13 -140 -35 -140 -56 0 -17
-56 -11 -73 8 -23 25 -43 79 -51 134 -9 63 -77 206 -132 278 -44 58 -138 120
-183 120 -14 0 -21 6 -21 20 0 23 -84 203 -141 302 -22 36 -52 109 -69 160
-17 52 -47 122 -67 156 -43 72 -152 182 -181 182 -23 0 -36 15 -90 103 -43 70
-92 182 -92 210 0 23 -29 95 -55 137 -12 19 -28 53 -36 74 -12 33 -28 49 -104
98 -49 32 -100 61 -112 64 -14 4 -29 23 -43 57 -12 28 -33 67 -46 87 -14 20
-37 72 -53 116 -53 146 -89 210 -165 290 -57 59 -78 75 -97 73 -41 -5 -85 26
-104 73 -9 24 -28 58 -42 77 -14 18 -34 59 -43 90 -33 105 -142 292 -232 399
-28 34 -142 237 -175 312 -11 25 -43 72 -72 105 -29 33 -60 71 -68 85 -8 14
-44 45 -79 70 -51 37 -68 55 -89 101 -14 31 -25 66 -25 77 0 11 -16 62 -36
114 -20 51 -41 106 -46 121 -6 15 -27 53 -46 85 -20 31 -56 98 -82 147 -25 50
-76 141 -113 203 -49 83 -67 123 -67 150 -1 20 -7 55 -15 77 -8 22 -20 69 -25
105 -15 88 -35 145 -74 210 -19 30 -55 97 -81 149 -26 53 -67 116 -94 145 -78
83 -148 191 -161 249 -24 102 -73 190 -152 273 -41 44 -83 93 -93 111 -28 48
-109 113 -300 240 -38 26 -82 59 -97 75 -14 15 -36 28 -48 28 -24 0 -76 24
-105 50 -31 28 -85 33 -123 12z"/>
</g>
</svg>
