<?xml version="1.0" encoding="UTF-8" standalone="no"?>
<!-- Created with Inkscape (http://www.inkscape.org/) -->

<svg
   xmlns:svg="http://www.w3.org/2000/svg"
   xmlns="http://www.w3.org/2000/svg"
   version="1.1"
   width="379.66437mm"
   height="212.71056mm"
   viewBox="0 0 1345.2674 753.69882"
   id="svg3375">
  <defs
     id="defs3377" />
  <g
     transform="translate(239.38916,-226.29216)"
     id="layer1">
    <path
       d="m 376.3452,978.45526 c -1.19258,-0.87204 -2.33279,-3.12817 -2.53381,-5.01363 -0.20103,-1.88546 -1.58279,-4.72386 -3.07059,-6.30755 -3.9815,-4.2381 -3.44679,-7.83987 1.65443,-11.14432 2.82366,-1.8291 4.36497,-3.80932 4.375,-5.62082 0.01,-1.88076 1.71173,-3.92785 5.19436,-6.25 2.84839,-1.89923 7.34546,-4.88531 9.99351,-6.63571 2.64804,-1.7504 6.49265,-5.82852 8.54358,-9.0625 2.05093,-3.23397 4.23561,-5.87996 4.85485,-5.87996 1.19753,0 1.3715,-0.39305 8.29858,-18.75 2.4646,-6.53125 6.96107,-17.78125 9.99213,-25 3.03107,-7.21875 6.66369,-16.09635 8.07249,-19.72801 1.40878,-3.63165 3.44266,-7.94795 4.51973,-9.59177 1.73886,-2.65385 1.89283,-11.22823 1.37399,-76.52198 -0.54691,-68.82694 -1.09065,-82.90824 -3.20146,-82.90824 -1.24729,0 -9.67185,16.24674 -10.69486,20.625 -1.3511,5.78236 -8.13342,20.68325 -11.95075,26.25608 -1.88602,2.75333 -4.33245,8.53209 -5.43652,12.8417 -1.28385,5.01132 -4.27462,11.19553 -8.29748,17.15715 -3.45955,5.12682 -6.81604,10.70485 -7.45885,12.39558 -4.76832,12.54162 -14.64395,30.41347 -24.88209,45.02888 -2.83565,4.04803 -5.15574,7.88311 -5.15574,8.52237 0,2.82803 -5.54369,8.49144 -11.72884,11.98211 -4.08351,2.30459 -7.8802,5.66813 -9.65862,8.55669 -1.61165,2.61769 -6.10079,7.70209 -9.97585,11.29868 -5.28548,4.90562 -8.80568,9.89976 -14.09113,19.99122 l -7.04556,13.45199 0,14.41814 c 0,16.1807 -0.55843,17.64676 -9.07029,23.81272 -4.57389,3.31332 -5.99427,3.66169 -14.92933,3.66169 -5.88573,0 -11.23803,0.69184 -13.24995,1.71269 -8.81048,4.47041 -23.39597,3.78992 -25.28542,-1.1797 -0.9531,-2.50688 -2.09431,-2.95653 -8.32825,-3.28147 -6.52481,-0.34008 -7.46755,-0.75277 -9.74279,-4.26495 -1.38543,-2.13862 -3.64397,-4.38862 -5.01897,-5 -5.04038,-2.24111 -3.24498,-12.24197 2.97759,-16.58588 1.79982,-1.25644 5.24116,-2.59873 7.64741,-2.98285 9.46521,-1.51099 11.15329,-2.8935 15.69089,-12.85062 3.7083,-8.13732 4.95118,-9.70877 8.99353,-11.37098 7.23985,-2.97705 11.40768,-7.68002 16.47999,-18.59599 3.3178,-7.14016 6.54638,-11.8125 11.22014,-16.23763 7.14254,-6.76255 16.38571,-20.66543 20.59137,-30.97198 1.46233,-3.5836 3.85192,-8.48439 5.3102,-10.89064 6.33948,-10.46041 14.18344,-37.88151 14.22609,-49.73183 0.006,-1.86625 1.46721,-6.48692 3.24555,-10.26817 3.65803,-7.778 6.06381,-16.35956 7.24811,-25.85439 0.4445,-3.56365 2.1355,-9.48069 3.75779,-13.14896 1.62229,-3.66829 4.09561,-12.4185 5.49629,-19.44494 1.40067,-7.02644 4.33166,-16.55326 6.51331,-21.17072 2.18165,-4.61747 4.60883,-11.4571 5.39374,-15.1992 1.30452,-6.21933 1.22272,-6.92205 -0.95224,-8.1803 -1.30864,-0.75707 -5.34357,-3.90774 -8.9665,-7.00149 -8.82115,-7.53268 -13.98622,-11.27566 -27.61349,-20.0107 -13.96491,-8.95149 -21.05301,-15.19854 -24.16423,-21.29704 -1.37684,-2.69885 -4.88458,-6.23074 -8.47867,-8.53705 -3.37163,-2.16357 -7.196,-5.11805 -8.49856,-6.5655 -1.30257,-1.44745 -5.18081,-3.88371 -8.61831,-5.41392 -3.4375,-1.5302 -8.0535,-4.30628 -10.25779,-6.16907 -2.20429,-1.86278 -7.82929,-5.52788 -12.5,-8.14466 -4.67071,-2.61676 -11.30471,-6.34839 -14.74221,-8.29249 -3.4375,-1.9441 -8.93861,-5.92167 -12.2247,-8.83905 -3.28609,-2.91737 -8.68314,-6.20392 -11.99346,-7.30342 -3.31032,-1.09951 -7.88089,-3.37296 -10.15684,-5.0521 -2.27595,-1.67914 -7.0039,-3.99123 -10.50655,-5.13796 -7.04753,-2.30732 -18.08938,-7.71244 -23.86845,-11.68393 -2.0625,-1.41739 -6,-3.18614 -8.75,-3.93055 -2.75,-0.74442 -8.71053,-3.78785 -13.24561,-6.76317 -4.53509,-2.97532 -10.44134,-6.01833 -13.125,-6.76223 -2.68367,-0.7439 -9.3342,-4.30445 -14.77898,-7.91235 -12.81269,-8.49011 -11.02042,-7.47339 -23.225406,-13.1754 -5.84375,-2.73013 -13.5498,-7.49823 -17.12456,-10.59579 -9.78501,-8.47879 -14.31798,-10.847 -24.35349,-12.72329 -5.03082,-0.94057 -14.39997,-2.70792 -20.82034,-3.92742 -9.81468,-1.86424 -12.81213,-1.98208 -18.8252297,-0.74009 -4.38999,0.90674 -19.25078,1.47719 -38.4819603,1.47719 -25.14107,0 -32.41059,0.38344 -36.799754,1.94102 -6.869238,2.43772 -28.3925,4.39897 -59.84466,5.4532 -14.5242,0.48683 -25.7971,1.43105 -27.89387,2.33639 -5.13602,2.21764 -47.10702,2.07888 -52.45878,-0.17342 -2.8566,-1.20222 -5.27351,-3.92971 -8.33941,-9.41106 -3.1769,-5.67982 -4.82755,-7.50718 -6.25,-6.91909 -5.24558,2.16871 -12.01231,1.99052 -14.95691,-0.39388 -2.8203,-2.28373 -3.02908,-3.38137 -3.58816,-18.86415 -0.41301,-11.43771 -0.15213,-16.97129 0.85746,-18.18776 1.31913,-1.58945 3.0629,-8.38904 6.37105,-24.84298 1.57501,-7.83368 4.14252,-12.58951 9.35969,-17.33703 5.32295,-4.84377 15.90053,-11.90135 22.52393,-15.02844 5.29626,-2.50051 9.08669,-4.72206 21.36828,-12.52389 4.19004,-2.66171 10.37755,-5.61409 13.75,-6.56085 21.09091,-5.9209 32.44461,-9.67578 35.16494,-11.6297 6.11152,-4.38966 12.24639,-7.81757 14.02718,-7.8378 2.36856,-0.0269 18.042922,-10.44509 24.50676,-16.28877 5.068837,-4.58251 24.257125,-14.9818 27.643734,-14.9818 0.98804,0 6.68853,-1.38563 12.66777,-3.07918 20.17488,-5.71431 53.2939203,-12.35176 65.24633,-13.07613 l 11.875,-0.71969 0.67449,-8.75 c 0.72435,-9.39676 3.15688,-16.16244 8.1778,-22.74522 5.45456,-7.1513 14.89288,-4.63034 17.2978,4.62022 2.19621,8.44773 3.72481,12.5 4.71526,12.5 0.59961,0 1.59893,1.26563 2.2207,2.8125 0.96634,2.40412 1.14751,2.08649 1.24773,-2.1875 0.1035,-4.41391 0.28645,-4.70695 1.56077,-2.5 3.30491,5.72371 7.23045,7.48037 7.23045,3.2356 0,-2.61327 2.42274,-2.76824 5.34623,-0.34197 1.52326,1.2642 1.97616,1.04555 2.57461,-1.24291 l 0.72619,-2.77697 2.74638,3.06313 c 1.8637,2.07865 2.49548,2.36007 1.96572,0.87562 -0.89625,-2.51139 0.12775,-5.9375 1.77461,-5.9375 0.61394,0 1.11626,0.60268 1.11626,1.33929 0,1.62647 3.91184,5.70257 4.91071,5.11691 0.39287,-0.23033 1.36682,-0.96034 2.16435,-1.62223 1.03124,-0.85586 1.71723,-0.0128 2.37505,2.91879 0.50875,2.26723 1.18019,3.38473 1.49209,2.48333 0.43809,-1.26612 1.10092,-1.15579 2.91399,0.48501 1.916346,1.73427 2.695206,1.83488 4.245356,0.54836 1.60409,-1.33127 1.92094,-1.11574 2.04345,1.38998 0.12559,2.56841 0.2273,2.63076 0.75951,0.46556 0.89684,-3.64857 3.00458,-5.83143 4.92075,-5.09612 1.0868,0.41705 1.68146,-0.33093 1.69388,-2.13061 0.0155,-2.2489 0.24825,-2.41875 1.23086,-0.89827 0.66645,1.03125 1.22034,3.7433 1.23086,6.02679 0.017,3.69047 0.22748,3.94345 1.89414,2.27678 1.03125,-1.03125 1.875,-2.47768 1.875,-3.21428 0,-2.4983 2.54641,-1.35506 3.97744,1.78571 1.76368,3.87087 3.06793,3.96539 4.31173,0.3125 0.75868,-2.22815 1.2639,-1.12437 2.43163,5.3125 0.96814,5.33662 1.52636,6.75874 1.62659,4.14388 0.3203,-8.35583 4.99412,-13.93681 5.24047,-6.25761 0.0845,2.63303 0.12753,2.64224 1.11583,0.23873 1.19932,-2.91672 2.15976,-1.23736 2.85953,5 0.40144,3.57813 0.49469,3.49667 2.03475,-1.77725 1.80839,-6.19281 3.84904,-5.09454 3.88289,2.08975 0.01,2.23438 0.58164,4.0625 1.26914,4.0625 0.6875,0 1.28954,-1.82812 1.33786,-4.0625 0.0539,-2.49127 0.41646,-3.33732 0.9375,-2.1875 1.0668,2.35424 3.96115,3.03017 4.01439,0.9375 0.0871,-3.42357 3.65459,3.4628 4.41262,8.51777 l 0.80494,5.3677 3.91604,-3.97399 c 2.15381,-2.18569 3.83726,-4.25523 3.741,-4.59898 -0.0962,-0.34375 0.61487,-1.3503 1.58031,-2.23678 1.7796,-1.63406 2.46295,-0.55604 1.81408,2.86178 -0.13051,0.6875 0.47787,0.54688 1.35197,-0.3125 0.87411,-0.85937 2.23025,-1.5625 3.01364,-1.5625 1.82308,0 4.32565,5.45788 4.32565,9.43382 0,1.6864 0.50232,3.06618 1.11626,3.06618 1.35407,0 2.63374,-3.08641 2.63374,-6.35223 0,-1.31878 0.5957,-2.39777 1.32377,-2.39777 0.72808,0 1.0075,0.51174 0.62094,1.1372 -0.38655,0.62546 -0.35512,2.04327 0.0699,3.15069 0.67597,1.76156 1.05232,1.69103 3.00776,-0.5636 1.62246,-1.87072 2.41261,-2.13473 2.88271,-0.96319 0.3811,0.94972 0.7281,0.58507 0.84319,-0.8861 0.24905,-3.18387 4.76551,8.85468 4.92406,13.125 0.0683,1.83778 0.4943,2.53056 1.03438,1.68186 0.5051,-0.79372 1.48086,-1.45341 2.16836,-1.46597 1.29839,-0.0237 2.32005,-1.58104 3.83188,-5.84089 0.82942,-2.33709 0.94937,-2.29636 1.84058,0.625 0.52434,1.71875 1.02191,2.5625 1.10574,1.875 0.0839,-0.6875 1.26074,0.15625 2.6154,1.875 1.93925,2.46047 2.69755,2.76435 3.56595,1.42905 0.89237,-1.37217 1.29327,-1.38801 2.09982,-0.083 0.74783,1.21 1.21953,1.00912 1.88803,-0.80405 0.78977,-2.1421 0.99394,-2.02602 1.79489,1.02047 0.49705,1.89063 1.38728,3.4375 1.9783,3.4375 0.59101,0 1.93807,1.54688 2.99347,3.4375 l 1.9189,3.4375 -0.75521,-3.40055 c -0.89796,-4.04325 2.41886,-8.68616 3.74201,-5.23809 0.40568,1.05715 1.30405,1.572 1.99641,1.1441 0.69885,-0.43191 1.25883,0.44071 1.25883,1.96165 0,1.50681 1.03696,3.64938 2.30435,4.76128 1.2674,1.11189 2.62924,2.86536 3.02631,3.89661 0.4323,1.12271 0.76156,0.53162 0.82065,-1.47321 0.12593,-4.27221 3.71946,-8.23832 5.26119,-5.80665 0.57707,0.91018 1.10224,2.77986 1.16704,4.15486 0.0746,1.58351 0.36625,1.87534 0.79546,0.79606 0.56929,-1.43151 0.84496,-1.43318 1.72426,-0.0105 0.83355,1.34872 1.36261,1.37751 2.59869,0.14144 2.51074,-2.51073 3.552,-1.81035 3.552,2.38927 l 0,3.94127 2.33413,-2.69127 c 1.28376,-1.48019 3.01143,-2.69126 3.83927,-2.69126 0.82785,0 2.34892,-0.84375 3.38017,-1.875 1.03125,-1.03125 2.39732,-1.875 3.03572,-1.875 1.05807,0 1.74777,4.61267 1.2586,8.41754 -0.3609,2.80722 3.65031,0.14987 4.42341,-2.93042 0.76355,-3.04222 3.2552,-4.27244 2.88539,-1.42462 -0.44726,3.44437 0.44935,11.48157 0.97583,8.74727 0.29814,-1.54838 1.62779,-3.3963 2.95478,-4.10649 1.32699,-0.71018 2.4127,-2.1152 2.4127,-3.12226 0,-2.86656 1.95391,-2.14881 3.52256,1.29398 0.78312,1.71875 1.93743,3.12501 2.56513,3.12501 0.62771,0 1.49424,1.40625 1.92561,3.125 1.27799,5.0919 3.87436,3.77363 3.76334,-1.91078 -0.0541,-2.76978 0.26767,-4.59795 0.71507,-4.0626 0.4474,0.53535 2.74167,3.50463 5.09837,6.59838 5.98936,7.86249 9.8095,11.21007 11.88407,10.41399 0.97671,-0.37481 1.77585,-0.0588 1.77585,0.70227 0,0.76106 0.5625,1.38374 1.25,1.38374 0.6875,0 1.25,-0.84375 1.25,-1.875 0,-1.03125 0.49363,-1.875 1.09695,-1.875 0.60331,0 1.79719,0.84375 2.65305,1.875 2.29791,2.76881 3.75,2.28478 3.75,-1.25 0,-4.2205 2.15215,-3.94064 4.74564,0.6171 1.17115,2.05815 2.79336,3.74565 3.60492,3.75 0.81157,0.004 1.69838,1.27353 1.9707,2.8204 0.49399,2.80593 0.49839,2.8052 1.88272,-0.3125 1.33128,-2.99827 1.39077,-2.9349 1.46678,1.5625 0.095,5.6204 3.0922,6.46005 4.46195,1.25 0.83115,-3.16137 0.98559,-3.23668 1.92267,-0.9375 0.5604,1.375 1.05845,1.77336 1.10676,0.88523 0.13667,-2.51201 4.37112,-6.48009 5.87706,-5.50736 0.74261,0.47967 1.73436,2.96177 2.20391,5.51578 0.86378,4.69836 3.25689,7.76985 3.25689,4.18012 0,-1.07182 0.60275,-1.94877 1.33946,-1.94877 0.7367,0 1.23694,-1.26563 1.11163,-2.8125 -0.62674,-7.73732 0.8718,-7.80206 5.64916,-0.24407 2.89036,4.57267 3.81396,5.30891 4.69191,3.7401 0.60124,-1.07433 0.68476,-2.652 0.18563,-3.50593 -0.49914,-0.85393 0.21918,-0.567 1.59628,0.63763 1.37709,1.20462 2.78407,1.90997 3.1266,1.56743 0.34254,-0.34254 1.94183,0.78123 3.55395,2.49727 3.77195,4.01506 7.01077,3.93147 16.62783,-0.42912 6.9322,-3.14321 13.03395,-4.87629 31.49255,-8.94486 2.75,-0.60614 10.19912,-1.99706 16.55361,-3.09093 6.35449,-1.09386 13.5635,-3.17471 16.02005,-4.6241 5.10771,-3.01363 17.29038,-5.90299 25.55134,-6.06002 5.18504,-0.0986 18.47089,-2.77915 30.625,-6.17901 3.5245,-0.9859 39.67432,-1.40074 122.5,-1.40575 101.18337,-0.006 118.76981,0.26098 126.64422,1.92338 5.02932,1.06177 10.93557,1.9406 13.125,1.95297 2.18943,0.0124 9.88703,1.43776 17.10578,3.16753 39.45085,9.45332 46.18629,10.55998 64.27069,10.55998 13.9742,0 20.0475,0.60031 30.6415,3.02877 7.267,1.66583 18.6908,4.23608 25.3861,5.71168 8.7943,1.93823 13.8333,3.82485 18.1541,6.79707 3.2896,2.26279 7.3741,4.54829 9.0769,5.07889 1.7026,0.53059 8.7207,3.71178 15.5957,7.0693 10.4144,5.08601 14.1685,7.77874 22.5,16.13808 5.5,5.51841 12.8125,14.17068 16.25,19.22727 8.61519,12.67298 21.11709,28.80324 28.33729,36.56161 3.3207,3.56823 6.0378,7.13029 6.0378,7.91572 0,0.78542 4.9811,8.8383 11.0692,17.89528 11.7194,17.43455 17.0642,26.85945 15.895,28.0287 -0.3905,0.39057 0.7214,3.1527 2.4709,6.13808 1.7496,2.98537 4.4828,9.52975 6.074,14.54305 1.5911,5.0133 4.4552,11.58995 6.3647,14.6148 1.9095,3.02484 4.7949,8.34078 6.4118,11.8132 2.8923,6.21126 2.9402,6.96111 2.9591,46.31349 0.013,25.22566 0.5276,41.83157 1.3959,44.95881 1.6291,5.86808 2.1152,65.10608 0.5952,72.54119 -2.4837,12.14955 -11.0045,12.34957 -17.0999,0.40143 -2.4121,-4.72804 -2.5362,-6.53893 -1.9012,-27.72991 0.3736,-12.46933 1.0397,-26.03881 1.4801,-30.15438 1.0008,-9.35235 -0.9192,-18.24393 -6.297,-29.16054 -2.2641,-4.59614 -5.1372,-11.61121 -6.3847,-15.58906 -3.4992,-11.15802 -4.7743,-10.0746 -19.1855,16.3007 l -6.3209,11.56824 1.3425,9.68176 c 2.664,19.21158 6.0825,34.91346 10.2722,47.18176 6.2978,18.44089 13.676,35.54276 18.4872,42.85091 2.3355,3.54768 6.2151,9.63913 8.6213,13.53657 2.4063,3.89742 8.8414,11.36713 14.3004,16.59937 28.2905,27.11542 27.4951,25.84845 27.2224,43.36787 -0.3096,19.88202 -7.8645,43.97303 -20.5471,65.52028 -3.4402,5.8447 -4.0273,7.94099 -8.5275,30.4457 -1.8229,9.11587 -2.6075,17.1174 -2.3902,24.375 0.4922,16.42635 0.2223,18.26181 -3.2333,21.9905 l -3.1754,3.42626 -17.7621,-0.73462 c -9.7692,-0.40404 -21.7045,-0.70329 -26.523,-0.665 -7.1919,0.0571 -9.5423,-0.45567 -13.125,-2.86377 -3.9448,-2.65152 -4.4008,-3.56843 -4.745,-9.54275 -0.4813,-8.3505 3.2461,-16.56532 9.42,-20.76056 4.5917,-3.12014 11.325,-13.9526 14.0141,-22.54576 2.2964,-7.33818 7.092,-19.28843 10.0044,-24.9299 1.3997,-2.71144 2.8841,-6.93019 3.2985,-9.375 0.4143,-2.4448 2.6917,-10.29199 5.0607,-17.43819 3.493,-10.53727 4.1519,-14.0812 3.4854,-18.75 -1.0719,-7.50831 -4.3819,-12.80879 -11.5665,-18.52154 -3.2096,-2.55211 -9.2108,-7.80048 -13.3358,-11.66302 -4.125,-3.86255 -10.5937,-8.55968 -14.375,-10.43805 -3.7812,-1.87836 -8.8437,-4.98073 -11.25,-6.89413 -2.40619,-1.9134 -9.43749,-5.53836 -15.62499,-8.05546 -6.1875,-2.5171 -12.7969,-5.69776 -14.6875,-7.06814 -1.8906,-1.37036 -5.1181,-3.71723 -7.1721,-5.21528 -2.054,-1.49804 -4.0584,-2.39998 -4.454,-2.0043 -1.2968,1.29678 -4.217,13.82305 -6.8565,29.41096 -2.3134,13.6622 -2.4649,17.37567 -1.4093,34.54095 1.0459,17.00929 1.5958,20.15324 4.7553,27.19205 4.2969,9.5724 4.4535,15.72492 0.616,24.20905 -2.1009,4.64477 -4.4919,7.37366 -9.3094,10.625 -10.8039,7.29145 -26.3675,23.85099 -28.2164,30.02177 -0.8821,2.9443 -3.002,7.46597 -4.7107,10.04815 -5.392,8.14784 -10.3945,33.78788 -10.4201,53.40773 -0.012,9.16215 -2.3568,15.66362 -6.467,17.93105 -5.7346,3.16359 -36.343,4.65947 -54.53,2.66497 -13.56213,-1.4873 -14.51917,-2.45792 -13.33416,-13.52331 0.98062,-9.157 4.29144,-14.30036 9.20526,-14.30036 4.4354,0 8.6984,-2.74787 10.6529,-6.86666 2.7675,-5.83219 14.2894,-33.94317 16.9106,-41.25834 1.2318,-3.4375 6.3058,-14.96875 11.2756,-25.625 l 9.0361,-19.375 -1.3624,-22.8745 c -1.1718,-19.6744 -1.8703,-24.39595 -4.9927,-33.75 -1.9966,-5.98153 -4.505,-16.54386 -5.574,-23.47185 -1.0691,-6.928 -2.871,-15.08425 -4.0043,-18.125 -1.1332,-3.04076 -3.6647,-10.02865 -5.6255,-15.52865 -1.9608,-5.5 -5.2089,-14.5 -7.2179,-20 -2.0091,-5.5 -5.2407,-17.3125 -7.1813,-26.25 -1.9407,-8.9375 -3.6626,-16.44458 -3.8265,-16.68239 -0.164,-0.23782 -6.1035,0.43545 -13.19905,1.49615 -7.09551,1.0607 -15.99469,2.28871 -19.77594,2.72891 -3.78125,0.44022 -10.53125,1.59175 -15,2.55898 -11.19015,2.42202 -25.91202,4.09694 -48.75,5.5463 -10.65625,0.67627 -25.28125,2.04724 -32.5,3.04656 -7.21875,0.99934 -21,2.44168 -30.625,3.20522 -9.625,0.76353 -21.03031,2.19063 -25.34514,3.17133 -7.57641,1.72203 -77.49742,4.25158 -118.55491,4.28899 l -16.40005,0.015 -1.40584,5.3125 c -1.50215,5.67648 -4.17503,21.26748 -7.12538,41.5625 -0.99944,6.875 -2.73393,16.71875 -3.85444,21.875 -1.41056,6.49099 -2.22044,18.21929 -2.63265,38.125 -0.49666,23.98363 -0.95599,29.47531 -2.77054,33.125 -1.19634,2.40625 -2.53234,6.24704 -2.96887,8.53508 -0.45562,2.38798 -3.96643,8.07335 -8.24192,13.3468 -5.64108,6.9578 -8.0882,11.29377 -10.08598,17.87105 -2.37898,7.83225 -3.42769,9.38212 -10.68853,15.79641 -4.42791,3.91166 -8.05075,7.78921 -8.05075,8.6168 0,0.82757 -2.25,4.2275 -5,7.55537 l -5,6.0507 0,20.03137 c 0,22.46095 -1.1199,28.05508 -6.82801,34.10745 -4.7921,5.0811 -10.95369,6.82312 -24.16509,6.832 -5.70246,0.004 -14.04591,0.93081 -18.541,2.05993 -6.17407,1.55088 -9.18536,1.74223 -12.31279,0.78239 -2.36566,-0.72604 -4.86595,-0.81051 -5.83401,-0.1971 -2.56436,1.6249 -11.55531,1.32085 -14.0096,-0.47376 z M 296.55661,310.7768 c -0.85918,-4.02849 -1.63873,-5.50891 -2.3202,-4.40627 -0.56445,0.9133 -0.47701,2.68685 0.19431,3.94123 0.67133,1.25438 0.87702,2.83659 0.4571,3.51604 -0.41992,0.67944 -0.37894,2.44694 0.091,3.92778 1.63863,5.16283 2.93979,-0.59258 1.57774,-6.97878 z"
       id="path3394"
       style="fill:#000000" />
    <path
       d="m 1020.1384,923.57363 c -1.988,0.88916 -4.0989,1.39416 -6.2455,1.70319 -1.7684,0.21492 -3.5522,0.21996 -5.3308,0.22401 -1.4967,0.0105 -2.9929,-0.34974 -4.2406,-1.17874 -1.3125,-1.09598 -1.7076,-2.67162 -1.9429,-4.28975 -0.221,-1.56509 -0.1536,-3.10427 0.1549,-4.64654 0.3186,-1.34979 0.9831,-2.59636 1.7261,-3.75779 0.4678,-0.70736 0.9961,-1.35903 1.438,-2.08448 0,0 11.0339,-4.79301 11.0339,-4.79301 l 0,0 c -0.5368,0.65423 -0.7948,1.48331 -1.478,2.02672 -0.6718,1.10729 -1.4112,2.16116 -1.9078,3.37176 -0.3015,1.43931 -0.607,2.8144 -0.3473,4.30051 0.1359,1.24365 0.2833,2.56704 1.4032,3.32622 1.1991,0.56639 2.5361,0.71866 3.8536,0.67189 1.7341,-0.0214 3.4748,-0.0612 5.1886,-0.35501 2.1101,-0.40525 4.1773,-1.01268 6.0826,-2.02853 0,0 -9.388,7.50955 -9.388,7.50955 z"
       id="path3396"
       style="fill:#000000" />
    <path
       d="m 1011.7556,918.66157 c -1.9604,-0.81174 -4.0538,-1.23531 -6.0421,-1.94994 -1.5473,-0.37211 -2.6303,-1.4318 -3.8224,-2.38651 -1.1174,-0.95393 -1.9949,-1.92014 -2.40591,-3.35609 -0.20636,-1.2962 0.11268,-2.50609 0.78261,-3.61189 0.7812,-0.95695 1.3665,-1.90355 1.7548,-3.08002 0.2982,-0.73627 0.8085,-1.49598 1.5139,-1.91153 10.6488,-6.27295 6.7793,-5.35604 11.4796,-6.38644 0.677,-0.0123 1.2515,-0.3397 1.8785,-0.55015 0,0 -9.4949,7.3771 -9.4949,7.3771 l 0,0 c -0.6206,0.20598 -1.2531,0.34449 -1.87,0.56209 -3.9361,1.95898 -0.5189,0.27361 9.2016,-5.42162 0.1637,-0.0959 -0.344,0.16436 -0.4989,0.27391 -0.4492,0.31765 -0.9027,0.62154 -1.2944,1.00779 -0.5358,1.11389 -0.5391,2.49313 -1.6606,3.26475 -0.565,0.90144 -1.239,1.64677 -1.1753,2.79488 0.083,1.20354 1.1722,1.88304 1.97,2.65891 1.0723,0.89747 2.1609,1.69482 3.5456,2.05528 2.0251,0.65164 4.0614,1.27247 6.0922,1.90557 0,0 -9.9543,6.75391 -9.9543,6.75391 z"
       id="path3398"
       style="fill:#000000" />
    <path
       d="m 857.88205,969.22767 c -2.25166,-0.0495 -4.50425,-0.0299 -6.75627,-0.0216 -1.79136,0.008 -3.58273,0.0111 -5.3741,0.013 -1.60258,0.0555 -3.1485,0.044 -4.70989,-0.31845 -0.86262,-0.43298 -0.46432,-0.16403 -1.19308,-0.80954 0,0 10.18091,-6.42072 10.18091,-6.42072 l 0,0 c 0.51409,0.3069 0.22795,0.1788 0.86891,0.36001 1.50512,0.2447 3.03178,0.10991 4.55102,0.14279 1.77945,0.002 3.55889,0.005 5.33833,0.013 2.27184,0.008 4.5442,0.0272 6.8157,-0.0216 0,0 -9.72153,7.0631 -9.72153,7.0631 z"
       id="path3400"
       style="fill:#000000" />
    <path
       d="m 1080.1748,680.15943 c 0.04,2.30215 -0.2358,4.58146 -0.4905,6.86408 -0.3676,1.71083 -0.5755,3.48605 -1.1764,5.13542 -2.1683,4.19383 -9.7969,11.35235 -12.6094,6.30627 -0.4584,-1.31477 -0.3835,-2.71821 -0.6638,-4.07219 -0.2248,-1.20486 -0.7334,-2.33321 -1.2733,-3.42557 -0.4493,-1.22978 -0.992,-2.42299 -1.3422,-3.68743 -0.3535,-1.51464 -0.3905,-3.07575 -0.4249,-4.62339 -0.022,-1.62163 -0.014,-3.24349 -0.011,-4.86522 0,-1.62139 0,-3.24279 0.01,-4.86419 0,-1.36219 0.028,-2.72394 0.036,-4.08607 0,0 10.6132,-5.40768 10.6132,-5.40768 l 0,0 c 0.01,1.35031 0.039,2.70023 0.035,4.05059 -6e-4,1.62204 0,3.24408 -0.01,4.86611 0,1.61385 -0.011,3.22775 0,4.84156 0.022,1.4556 0.034,2.92319 0.3139,4.3571 0.2986,1.19907 0.8394,2.30469 1.2345,3.47116 0.5818,1.17879 1.1402,2.39735 1.4033,3.6913 0.2796,1.24353 0.3372,2.48626 0.5403,3.73917 0.082,0.15756 0.051,0.14208 0.067,-0.0797 -3.3729,1.92978 -6.7457,3.85956 -10.1185,5.78934 -0.5069,0.29623 0.384,0.0696 0.893,-0.52633 0.1397,-0.16359 0.2341,-0.36103 0.3511,-0.54155 1.0168,-1.37154 0.8247,-3.2068 1.4276,-4.76956 0.264,-2.22874 0.6774,-4.45495 0.4853,-6.7079 0,0 10.7067,-5.45537 10.7067,-5.45537 z"
       id="path3404"
       style="fill:#000000" />
  </g>
</svg>
