<?xml version="1.0" encoding="UTF-8" standalone="no"?>
<!-- Created with Inkscape (http://www.inkscape.org/) -->

<svg
   xmlns:svg="http://www.w3.org/2000/svg"
   xmlns="http://www.w3.org/2000/svg"
   version="1.1"
   width="744.09448"
   height="1052.3622"
   id="svg3041">
  <defs
     id="defs3043" />
  <g
     id="layer1">
    <g
       transform="matrix(0.38455675,0,0,0.38455675,299.17342,390.66362)"
       id="g3110">
      <path
         d="m 45.165513,363.50469 c -0.115362,-0.74984 -0.172396,-1.19014 0,-2.22453 0.172396,-1.0344 0.317459,-2.91809 1.026708,-3.93572 0.709254,-1.01762 0.04693,-0.6522 2.909011,-1.71119 2.862097,-1.05897 10.655287,-3.67608 14.202802,-4.62018 3.547514,-0.9441 3.556754,-0.85519 7.015842,-1.02671 3.459088,-0.17153 9.177451,-0.22846 13.689456,0 4.512008,0.22845 11.900048,0.67264 13.347218,1.36895 1.44716,0.69632 1.03254,0.33749 2.01267,0.27623 0.98013,-0.0613 1.88514,-0.36026 3.4631,-0.61847 1.57795,-0.2582 3.41822,-0.085 5.30466,-0.34224 1.88646,-0.25724 3.13601,-0.74133 5.98914,-1.19782 2.85314,-0.45651 5.52729,-0.39815 11.12268,-1.54007 5.5954,-1.14192 12.63423,-3.96031 22.41648,-5.30466 9.78225,-1.34435 26.91164,-2.3667 36.10593,-2.73789 9.19428,-0.37119 13.54685,0.37076 18.99411,0.51335 5.44726,0.14261 7.46788,-0.44541 13.68946,0.34224 6.22158,0.78764 15.40461,2.79298 23.53142,4.36986 8.12679,1.57688 14.48029,2.65703 25.22788,5.0911 10.7476,2.43407 25.77529,4.91621 39.24624,9.51075 13.47096,4.59455 57.56785,20.14472 41.27991,17.95438 -16.28794,-2.19035 -32.51702,-1.34254 -43.44028,-1.76265 -10.92326,-0.42011 -15.7132,-0.75895 -22.09899,-0.758 -6.38578,6.3e-4 -9.34054,0.25907 -16.18471,0.76369 -6.84416,0.50461 -20.72578,1.88608 -24.87094,2.2633 -4.14516,0.37722 -26.28401,3.80705 -27.1396,3.80705 -0.85559,0 -36.44817,6.16025 -37.13265,6.50249 -0.68447,0.34223 -19.67858,1.71118 -22.75871,1.71118 -3.08013,0 -21.24717,-2.59529 -23.27206,-2.90901 -2.0249,-0.31372 -9.34002,-1.62429 -12.14939,-1.8823 -2.80938,-0.258 -3.34565,0.42914 -4.6202,0.34224 -1.27454,-0.0869 -1.68076,-0.39858 -2.909,-0.85559 -1.22825,-0.45702 -2.61051,-1.39393 -4.44908,-1.88231 -1.83856,-0.48836 -4.79044,-0.79843 -6.50248,-1.0267 -1.71205,-0.22827 -2.62376,-0.22815 -3.7646,-0.34224 -1.14085,-0.11408 -1.85304,-0.25663 -3.08013,-0.34224 -1.2271,-0.0856 -2.65091,-0.0284 -4.27795,-0.17111 -1.62704,-0.14273 -3.25971,-0.0225 -5.475784,-0.68447 -2.216074,-0.66195 -4.990608,-2.05327 -7.70032,-3.25125 -2.709703,-1.19798 -6.352148,-3.07711 -8.555903,-3.93572 -2.203755,-0.85861 -2.56676,-0.65596 -4.620193,-1.19782 -2.053427,-0.54188 -5.815164,-1.62499 -7.700315,-2.05342 -1.885152,-0.42844 -2.591477,-0.13024 -3.593482,-0.51336 -1.002004,-0.38312 -1.617556,-1.0753 -2.224529,-1.71118 -0.606981,-0.63588 -1.023103,-1.3329 -1.368951,-2.05342 -0.345849,-0.72052 -0.569108,-1.47468 -0.68447,-2.22454 z"
         id="path3050-8"
         style="fill:#000000;stroke:#000000;stroke-width:0.39292207px;stroke-linecap:butt;stroke-linejoin:miter;stroke-opacity:1" />
      <path
         d="m 126.61775,379.07386 c -0.21747,0.93613 -1.79921,2.83821 -2.56677,3.7646 -0.76757,0.92638 -1.14914,1.41832 -1.88231,1.8823 -0.73316,0.46396 -1.74113,0.5268 -2.39565,0.85559 -0.65452,0.32878 -0.97023,0.68228 -1.54006,1.0267 -0.56983,0.34442 -2.01288,0.51462 -1.8823,1.02671 0.13058,0.51208 0.5104,-0.0427 1.02671,0 0.5163,0.0427 1.27865,0.30402 2.05341,0.34224 0.77476,0.0383 1.96529,-0.20079 2.56678,-0.17112 0.60149,0.0297 0.85612,-0.25465 1.0267,0.17112 0.17059,0.42577 -0.60201,0.87927 -1.0267,1.36894 -0.4247,0.48968 -0.99193,0.9158 -1.54006,1.54007 -0.54813,0.62426 -1.40348,1.68474 -1.71119,2.22453 -0.3077,0.5398 -0.57656,0.55199 -0.34223,0.8556 0.23432,0.3036 0.74129,-0.0871 1.36894,-0.17113 0.62766,-0.0841 1.47707,0.001 2.39565,-0.34223 0.9186,-0.34377 2.13379,-1.55774 2.90901,-1.8823 0.77523,-0.32455 1.2336,-0.71185 1.54007,-0.34223 0.30647,0.36959 -0.30491,0.62975 -0.51336,1.19782 -0.20845,0.56806 -0.53955,1.44977 -0.68447,2.22454 -0.14491,0.77477 -0.80842,1.98593 -0.17112,2.39565 0.6373,0.40973 1.28268,-0.34465 1.8823,-1.02671 0.59963,-0.68206 0.63728,-2.56922 1.19783,-3.08013 0.56054,-0.51089 0.79449,-0.28574 1.19782,-0.34223 0.40333,-0.0565 0.84984,-0.22946 1.19783,0 0.348,0.22946 0.3049,0.62976 0.51335,1.19782 0.20847,0.56808 0.29835,1.74222 0.68449,2.22454 0.38611,0.48234 0.56178,0.92748 1.19781,0.68447 0.63603,-0.243 0.72398,-1.75569 0.85559,-2.56677 0.13162,-0.81108 -0.25173,-1.68707 0,-2.22454 0.25175,-0.53746 0.47887,-0.84635 1.02671,-0.85559 0.54785,-0.009 0.99393,0.7157 1.54007,1.19783 0.54614,0.48213 1.14231,1.43296 1.71118,1.71119 0.56887,0.27821 0.95997,0.62429 1.36895,0.17111 0.40898,-0.45317 -0.21028,-1.58726 -0.51336,-2.22454 -0.30308,-0.63727 -0.94147,-0.97991 -1.19783,-1.54005 -0.25636,-0.56015 -0.28829,-1.16633 -0.34223,-1.71119 -0.0539,-0.54485 -0.0641,-0.76559 0,-1.54006 0.0641,-0.77446 0.15812,-1.9509 0.51335,-3.08013 0.35525,-1.12923 0.47257,-2.13516 1.71119,-3.59348 1.23861,-1.45832 5.53229,-1.87129 6.16025,-4.27795 0.62796,-2.40667 -0.53255,-5.02903 -3.25126,-6.67362 -2.71869,-1.64458 -10.78043,-0.51335 -11.63602,0.34223 -0.85559,0.85559 -3.84267,1.87884 -4.6202,3.42238 -0.77752,1.54354 -0.0688,3.65094 0,4.62018 0.0689,0.96926 0.3886,0.2617 0.17113,1.19784 z"
         id="path3052-5"
         style="fill:#000000;stroke:#000000;stroke-width:0.39292207px;stroke-linecap:butt;stroke-linejoin:miter;stroke-opacity:1" />
      <path
         d="m 204.81874,377.02043 c 0.17112,0.34224 2.90924,2.05326 3.08013,3.42237 0.17087,1.36911 -0.9102,2.22834 -1.71119,3.25125 -0.80097,1.0229 -2.2576,1.96233 -3.08012,2.73789 -0.82253,0.77555 -1.8521,1.21657 -1.8823,1.8823 -0.0302,0.66572 0.0525,0.84979 0.85558,1.0267 0.80309,0.17693 2.27647,-1.14839 3.25126,-1.54006 0.97477,-0.39167 1.95264,-1.54466 2.56677,-0.85558 0.61412,0.68905 -0.79193,1.56982 -1.19783,2.56676 -0.4059,0.99694 -1.89072,2.81231 -1.19783,3.42236 0.69289,0.61006 0.7309,-0.21746 1.71118,-0.85559 0.98029,-0.63812 3.13384,-2.59934 3.93573,-3.25125 0.80188,-0.65189 0.0758,-0.95705 0.85559,-0.68446 0.77977,0.27259 0.467,2.6784 0.85559,3.76459 0.38858,1.08619 0.69228,2.58928 1.36894,2.7379 0.67667,0.14862 0.47571,0.0638 0.8556,-0.68447 0.37987,-0.74829 -0.0417,-2.72954 0.17111,-3.93573 0.21284,-1.20618 -0.31387,-3.12313 1.02671,-3.25123 1.34057,-0.12811 1.72443,3.10129 2.22453,4.10683 0.5001,1.00555 0.41143,1.18081 0.8556,1.8823 0.44414,0.70149 1.17758,2.10015 1.88229,2.22454 0.70472,0.12437 0.84651,0.0781 1.19782,-0.68447 0.35133,-0.76259 -0.42447,-2.48099 -0.68447,-3.59349 -0.25999,-1.1125 -1.78425,-2.28586 -0.85558,-3.08013 0.92866,-0.79428 2.65386,1.13409 3.7646,1.71118 1.11073,0.5771 2.10637,1.53966 2.909,1.71118 0.80263,0.17152 1.19896,0.10465 1.54007,-0.17111 0.34111,-0.27576 0.59309,-0.31158 0.34223,-1.02672 -0.25085,-0.71512 -1.70341,-1.03593 -2.909,-1.88229 -1.20559,-0.84636 -3.23955,-2.11884 -4.27796,-3.25124 -1.03841,-1.13242 -1.33606,-2.02655 -2.05342,-3.25125 -0.71736,-1.22471 -1.8946,-2.68101 -2.22454,-4.10684 -0.32992,-1.42582 0.99292,-2.34314 0.17112,-4.10683 -0.82179,-1.7637 -3.6891,-3.83614 -5.98913,-4.62019 -2.30003,-0.78407 -5.64599,-1.05601 -7.01585,0 -1.36984,1.056 -0.74376,1.83546 -0.85559,3.25125 -0.11183,1.41576 0.34225,4.7913 0.51336,5.13353 z"
         id="path3054-3"
         style="fill:#000000;stroke:#000000;stroke-width:0.39292207px;stroke-linecap:butt;stroke-linejoin:miter;stroke-opacity:1" />
    </g>
  </g>
</svg>
