<?xml version="1.0" standalone="no"?>
<!DOCTYPE svg PUBLIC "-//W3C//DTD SVG 20010904//EN"
 "http://www.w3.org/TR/2001/REC-SVG-20010904/DTD/svg10.dtd">
<svg version="1.0" xmlns="http://www.w3.org/2000/svg"
 width="1536.000000pt" height="757.000000pt" viewBox="0 0 1536.000000 757.000000"
 preserveAspectRatio="xMidYMid meet">
<metadata>
Created by potrace 1.16, written by Peter Selinger 2001-2019
</metadata>
<g transform="translate(0.000000,757.000000) scale(0.100000,-0.100000)"
fill="#000000" stroke="none">
<path d="M560 7558 c-41 -4 -83 -5 -93 -2 -10 3 -23 1 -30 -4 -7 -5 -37 -12
-67 -16 -80 -10 -178 -36 -235 -62 -28 -12 -62 -25 -76 -29 -16 -4 -32 -19
-42 -40 l-16 -33 72 25 c40 14 88 29 107 33 19 4 49 13 65 18 95 33 272 46
620 46 255 1 374 -8 445 -31 8 -3 65 -6 125 -8 188 -6 284 -14 306 -25 11 -6
39 -11 62 -11 65 0 158 -19 174 -35 8 -8 34 -14 58 -14 59 0 146 -19 166 -36
8 -8 28 -14 43 -14 25 0 126 -29 171 -50 11 -5 55 -20 97 -34 42 -14 88 -32
101 -41 13 -8 64 -26 113 -38 49 -13 103 -31 121 -40 17 -9 58 -26 90 -38 32
-12 63 -27 69 -35 6 -7 51 -30 100 -50 49 -20 98 -45 109 -54 11 -10 52 -30
90 -45 39 -15 77 -33 86 -41 17 -15 150 -64 174 -64 8 0 15 -7 15 -15 0 -8 34
-32 80 -55 44 -22 80 -46 80 -53 0 -14 100 -67 126 -67 10 0 13 -6 10 -17 -5
-15 6 -22 52 -37 31 -10 63 -27 70 -37 6 -9 27 -21 45 -25 17 -3 43 -15 56
-25 13 -11 41 -22 63 -25 21 -4 38 -10 38 -14 0 -14 94 -77 134 -90 21 -7 49
-25 63 -40 14 -16 59 -45 101 -66 43 -20 83 -45 89 -55 7 -9 43 -27 80 -40 65
-21 131 -58 253 -138 60 -40 123 -71 144 -71 7 0 32 14 56 31 90 65 224 140
313 175 264 103 477 167 641 194 65 11 155 30 200 44 119 35 177 39 228 16 55
-25 120 -25 199 0 67 21 142 30 424 55 99 9 213 22 253 29 39 6 72 11 72 10 0
-1 -13 -28 -30 -59 -20 -38 -30 -72 -30 -100 0 -42 -1 -43 -56 -70 -43 -21
-55 -31 -51 -46 4 -14 -3 -21 -28 -29 -71 -23 -266 -174 -285 -220 -7 -16 -26
-38 -44 -49 -17 -11 -74 -49 -126 -85 -52 -36 -100 -66 -106 -66 -6 0 -17 -7
-24 -16 -8 -8 -59 -51 -114 -94 -120 -94 -275 -242 -302 -287 -10 -18 -21 -33
-25 -33 -4 0 -45 -48 -91 -107 -45 -59 -111 -142 -146 -185 -35 -43 -72 -98
-82 -121 -11 -23 -47 -85 -81 -137 -91 -141 -196 -331 -251 -455 -27 -60 -56
-115 -64 -121 -8 -6 -14 -17 -14 -25 0 -8 -12 -39 -26 -69 -47 -101 -125 -294
-175 -434 -63 -180 -64 -205 -3 -424 70 -256 163 -428 316 -585 78 -80 79 -81
74 -47 -4 19 -21 50 -39 70 -107 114 -211 373 -261 644 l-25 140 25 24 c35 36
60 79 98 173 19 46 48 111 65 143 16 33 28 63 25 67 -2 5 32 74 76 154 44 81
80 153 80 161 0 8 18 42 40 74 22 32 40 64 40 70 0 6 19 48 41 93 23 45 47 99
55 120 7 20 34 69 59 108 25 39 53 89 61 110 16 38 17 38 58 33 39 -6 44 -3
72 29 31 36 69 87 134 177 105 146 480 533 618 639 41 31 101 73 134 94 l59
38 33 -21 c18 -11 40 -20 48 -20 24 0 160 67 193 95 35 29 45 31 45 10 0 -22
13 -19 71 21 38 25 68 37 103 41 38 3 55 11 77 34 25 27 32 29 66 23 21 -4 40
-8 42 -10 2 -2 -3 -20 -11 -41 -14 -34 -14 -43 3 -100 17 -62 17 -63 -4 -102
-17 -32 -20 -44 -11 -68 9 -26 13 -28 62 -25 68 3 73 -10 27 -77 -48 -73 -52
-94 -24 -130 16 -19 30 -28 42 -25 25 8 21 -2 -18 -38 -20 -19 -38 -47 -41
-65 -6 -29 -3 -33 32 -51 85 -42 140 -36 151 18 7 35 19 46 36 32 7 -5 39 -12
72 -15 46 -5 69 -2 101 12 l41 19 99 -76 c55 -42 153 -129 218 -193 l120 -116
-82 -43 c-45 -24 -123 -78 -174 -121 -145 -121 -141 -116 -134 -152 3 -17 15
-41 26 -52 11 -12 20 -31 20 -42 0 -43 102 -106 208 -128 76 -16 122 -10 122
15 0 17 -38 40 -65 40 -8 0 -15 5 -15 10 0 6 7 10 16 10 8 0 32 11 52 25 20
14 42 25 49 25 7 0 34 14 60 30 26 17 50 30 54 30 5 0 37 21 74 46 l65 46 83
-74 c46 -40 126 -108 178 -150 52 -43 103 -91 113 -108 9 -17 90 -108 178
-203 247 -263 318 -359 318 -430 0 -40 54 -205 100 -302 82 -177 130 -291 130
-311 0 -12 -11 -29 -25 -38 -14 -9 -25 -23 -25 -31 0 -7 -9 -17 -21 -20 -11
-4 -29 -20 -39 -37 l-18 -31 0 89 c0 137 -40 287 -104 390 -68 109 -111 137
-238 158 -90 14 -224 27 -441 42 -165 11 -559 -39 -769 -98 -242 -68 -474
-171 -570 -255 -117 -101 -343 -341 -401 -426 -102 -148 -189 -354 -244 -577
-10 -39 -19 -132 -22 -233 -6 -184 -5 -190 59 -223 16 -8 28 -20 28 -27 0 -27
81 -87 245 -185 335 -199 413 -226 686 -239 145 -6 246 5 307 36 56 28 21 42
-130 51 -149 10 -203 23 -333 82 -309 140 -356 169 -461 289 -77 87 -81 97
-63 131 6 11 21 57 34 102 26 92 62 175 112 257 19 31 45 88 58 127 13 39 34
88 47 109 13 21 32 58 43 83 10 25 27 55 36 67 9 13 25 52 34 87 15 54 21 65
42 69 21 4 27 -1 38 -27 8 -18 20 -38 28 -44 21 -18 164 -52 216 -52 25 0 91
-7 146 -16 78 -12 202 -17 565 -19 256 -2 476 -8 490 -13 21 -8 14 -11 -50
-26 -190 -43 -249 -48 -555 -50 -295 -1 -302 -1 -424 27 -67 16 -154 39 -191
53 -78 28 -80 28 -80 12 0 -14 59 -54 135 -90 96 -46 143 -79 169 -118 53 -81
118 -105 441 -165 137 -25 244 -38 385 -47 l195 -11 100 33 c209 69 314 133
550 334 131 111 242 279 254 387 7 57 -18 411 -39 544 -21 138 -24 178 -12
171 20 -12 14 62 -13 159 -62 228 -145 424 -245 586 l-48 77 30 6 c17 3 73 6
125 6 64 0 105 5 131 16 20 9 50 18 66 20 131 18 229 89 293 214 10 19 23 42
29 50 15 19 44 191 44 256 0 92 -29 239 -75 382 -36 112 -61 167 -116 260 -39
64 -80 127 -92 140 -18 20 -19 24 -7 33 8 5 31 7 50 5 20 -3 60 -1 90 3 68 12
75 5 114 -117 16 -48 41 -117 57 -154 16 -37 47 -130 69 -207 52 -180 80 -239
146 -310 64 -69 71 -109 28 -150 -21 -20 -25 -32 -22 -60 7 -56 -9 -108 -50
-159 -20 -26 -55 -78 -77 -115 -21 -38 -53 -85 -70 -105 -17 -20 -44 -71 -59
-112 -16 -41 -40 -101 -54 -134 -24 -54 -25 -59 -9 -71 9 -7 28 -10 42 -7 32
6 31 -1 -5 -46 -72 -91 -131 -305 -134 -484 -1 -89 1 -99 20 -112 12 -9 24
-31 27 -51 4 -21 33 -74 74 -131 37 -53 85 -120 106 -150 20 -29 57 -67 80
-83 74 -50 250 -143 256 -134 3 5 17 13 31 19 98 44 220 178 220 241 0 53 -16
60 -39 15 -28 -55 -98 -110 -163 -128 -68 -18 -62 -20 -90 24 -14 20 -71 87
-126 147 -56 60 -118 133 -138 163 l-37 53 26 22 c22 19 29 40 47 135 38 208
105 478 122 500 6 7 27 61 48 120 52 149 163 411 172 406 4 -3 10 8 14 23 4
15 17 48 30 73 32 60 74 187 74 222 0 21 5 28 20 28 35 0 42 32 24 112 -9 40
-16 80 -15 88 0 8 4 50 7 93 l6 77 65 -70 c36 -39 79 -78 96 -86 44 -23 92
-22 127 4 l30 23 20 -33 c11 -18 20 -36 20 -40 0 -4 18 -14 40 -24 48 -21 50
-38 10 -79 -26 -27 -31 -41 -36 -105 l-7 -75 -95 -70 c-106 -79 -145 -117
-227 -224 -103 -134 -115 -164 -67 -176 25 -7 26 -8 8 -19 -131 -79 -221 -225
-271 -438 -13 -59 -13 -74 0 -138 21 -99 106 -302 163 -385 60 -89 155 -196
190 -214 63 -33 197 10 291 95 79 71 72 118 -7 55 -45 -35 -157 -58 -212 -44
-39 10 -44 18 -183 298 -81 163 -106 227 -90 232 67 23 174 137 214 231 10 23
22 42 28 42 5 0 35 51 66 113 31 61 65 119 75 127 10 8 47 49 82 91 34 41 97
112 138 158 81 89 120 145 120 174 0 11 8 21 19 24 26 7 50 64 76 183 13 58
29 126 36 151 11 42 10 56 -19 170 -35 140 -106 308 -175 417 -26 40 -47 74
-47 76 0 2 17 -5 37 -15 48 -24 99 -24 148 1 22 11 40 20 41 20 0 0 -3 -26 -8
-57 -19 -124 73 -363 216 -565 42 -59 76 -109 76 -112 0 -3 -29 -26 -64 -51
-71 -51 -136 -117 -136 -140 0 -8 2 -15 5 -15 16 0 111 55 143 83 20 18 49 40
63 49 25 16 26 15 42 -11 32 -55 109 -140 162 -180 30 -23 57 -41 61 -41 3 0
18 -8 32 -19 15 -10 68 -40 118 -65 l92 -47 26 -72 c14 -40 26 -78 26 -86 0
-7 15 -28 33 -45 22 -21 39 -51 51 -91 42 -140 58 -185 77 -209 10 -13 19 -33
19 -44 0 -35 48 -167 121 -334 39 -89 94 -215 122 -278 75 -173 105 -230 148
-282 22 -26 46 -66 54 -89 9 -23 29 -67 47 -98 17 -31 61 -112 97 -181 45 -85
74 -128 90 -135 22 -10 23 -13 17 -85 -4 -41 -10 -106 -15 -145 -5 -38 -16
-133 -25 -210 -9 -77 -21 -153 -27 -170 -9 -27 -25 -135 -44 -296 -9 -82 -19
-91 -96 -92 -81 -1 -150 32 -226 110 -50 50 -53 52 -53 28 0 -59 68 -158 148
-216 71 -50 107 -60 247 -61 168 -3 168 -3 205 212 10 63 24 178 29 255 6 77
17 203 26 280 8 77 15 204 15 283 0 113 3 144 14 148 11 4 12 13 5 37 -5 17
-6 41 -2 52 6 18 8 16 14 -10 4 -16 7 -54 8 -82 1 -54 14 -144 52 -356 17 -94
25 -120 43 -132 20 -15 21 -14 29 22 10 41 11 247 3 353 -17 232 -40 398 -66
490 -7 24 -5 40 6 62 12 24 15 64 12 218 -3 206 -4 205 53 143 20 -22 28 -46
38 -117 6 -49 27 -148 46 -220 18 -72 31 -143 28 -157 -2 -15 4 -73 16 -130
11 -57 29 -158 41 -224 27 -160 61 -305 72 -305 4 0 8 6 8 13 0 8 10 22 21 33
19 17 21 26 16 94 l-6 75 34 -73 c41 -87 71 -132 90 -132 15 0 16 8 17 85 1
68 -31 203 -84 353 -10 29 -18 65 -18 79 0 26 -30 139 -76 283 -13 41 -24 86
-24 99 l0 24 25 -23 c14 -13 25 -28 25 -34 0 -22 83 -177 100 -186 10 -5 37
-48 59 -95 50 -105 107 -191 156 -233 65 -57 81 -32 36 57 -42 82 -39 86 10
15 52 -74 98 -123 126 -135 17 -6 29 -32 58 -126 20 -65 47 -152 61 -193 13
-41 35 -120 49 -175 13 -55 38 -140 55 -189 16 -50 30 -98 30 -108 0 -9 17
-68 38 -130 42 -126 42 -133 8 -418 -9 -69 -23 -192 -31 -275 -18 -167 -42
-349 -55 -410 -5 -22 -16 -87 -24 -143 -9 -57 -30 -152 -48 -210 -18 -62 -34
-141 -37 -187 l-6 -80 -65 3 c-48 3 -80 11 -123 33 -135 69 -207 129 -207 170
0 24 -16 33 -24 13 -12 -31 -5 -60 24 -111 36 -62 106 -113 249 -181 78 -38
106 -46 152 -46 31 -1 63 5 71 11 8 7 33 15 56 19 51 8 65 24 85 94 28 97 138
652 149 745 12 101 12 109 29 550 12 293 14 322 33 347 18 26 19 32 7 93 -7
36 -27 109 -43 162 -16 54 -41 136 -54 183 -58 202 -102 334 -194 590 -32 90
-39 119 -31 132 20 32 12 55 -36 108 -26 29 -86 101 -133 160 -47 59 -118 144
-158 189 -54 61 -71 87 -67 101 5 15 -2 24 -30 37 -27 13 -44 33 -70 82 -39
72 -43 98 -19 116 10 7 22 43 31 96 9 53 21 91 34 105 19 20 94 209 106 265 4
23 16 35 47 50 61 29 81 50 115 115 33 65 101 317 101 376 0 20 16 131 35 245
50 296 52 331 27 390 -11 27 -24 77 -27 113 -6 50 -28 114 -96 273 -49 115
-89 218 -89 229 0 32 -131 214 -264 369 -128 149 -237 254 -294 283 -17 9 -32
23 -32 31 0 30 -309 235 -476 314 -91 44 -246 101 -274 101 -11 0 -31 11 -45
25 -51 46 -544 193 -729 216 -79 10 -100 16 -103 30 -6 23 -9 24 -187 64 -318
71 -308 70 -526 70 -176 0 -207 2 -217 16 -17 23 -260 44 -401 35 -289 -17
-389 -25 -405 -31 -11 -5 -25 -1 -37 10 -17 16 -34 17 -127 12 -102 -5 -303
-34 -543 -77 -91 -16 -107 -16 -121 -4 -24 22 -128 17 -241 -11 -55 -14 -145
-32 -201 -41 -56 -8 -109 -17 -117 -20 -8 -3 -58 -7 -110 -9 -71 -2 -152 -16
-320 -54 -279 -64 -412 -99 -424 -111 -6 -6 -23 -10 -39 -10 -87 0 -443 -78
-652 -142 -163 -50 -373 -165 -401 -220 -21 -41 -49 -48 -187 -48 -114 0 -459
-40 -607 -70 -139 -29 -340 -115 -340 -146 0 -14 -24 -19 -128 -29 -55 -5
-186 -35 -407 -94 -93 -24 -294 -96 -375 -133 -36 -17 -103 -47 -150 -67 -72
-32 -191 -103 -277 -166 -20 -16 -25 -13 -105 48 -112 86 -231 157 -276 164
-20 4 -50 16 -67 28 -52 38 -123 75 -142 75 -11 0 -38 16 -60 35 -23 19 -50
35 -60 35 -11 0 -30 11 -43 25 -13 14 -34 25 -46 25 -12 0 -36 12 -53 26 -17
14 -35 23 -41 19 -6 -4 -28 8 -50 25 -22 17 -44 28 -50 25 -6 -4 -30 9 -53 28
-24 19 -59 39 -78 45 -20 5 -80 40 -135 77 -116 79 -315 185 -349 185 -12 0
-53 18 -89 40 -36 22 -75 40 -86 40 -11 0 -62 23 -113 50 -52 28 -99 50 -106
50 -6 0 -43 16 -82 35 -39 19 -77 35 -84 35 -7 0 -42 14 -79 30 -36 17 -90 35
-119 41 -55 11 -185 57 -201 71 -6 4 -20 8 -32 8 -12 0 -63 16 -114 36 -51 19
-97 33 -103 31 -7 -2 -32 3 -57 13 -57 21 -126 35 -270 54 -63 9 -151 21 -195
28 -44 6 -105 12 -135 13 -116 4 -354 25 -389 35 -31 8 -205 15 -281 11 -14
-1 -79 0 -145 2 -66 1 -154 -1 -195 -5z m11290 -929 c0 -4 -9 -13 -20 -19 -21
-11 -25 -4 -14 24 6 15 34 11 34 -5z m1551 -362 c-6 -15 -15 -27 -21 -27 -6 0
-4 12 5 30 8 16 16 37 16 47 1 14 3 14 6 -3 2 -11 -1 -32 -6 -47z m-4039 -165
c29 -63 111 -155 168 -190 79 -47 111 -55 239 -57 l114 -3 30 -43 c37 -56 105
-199 150 -320 30 -81 69 -230 110 -428 6 -30 27 -87 47 -127 21 -40 34 -77 31
-82 -3 -5 -18 -12 -32 -15 -28 -7 -39 -30 -39 -84 0 -43 -9 -41 -42 7 -15 22
-35 40 -43 40 -8 0 -15 5 -15 10 0 6 -9 10 -20 10 -10 0 -34 10 -53 23 -48 33
-222 100 -362 141 -70 19 -156 53 -205 79 -110 59 -423 193 -571 245 -63 22
-166 52 -227 67 -105 25 -137 45 -73 45 32 0 79 33 136 94 22 24 49 46 61 50
12 4 35 35 59 81 34 66 37 80 32 127 -3 29 -15 80 -26 113 -12 33 -24 67 -27
76 -5 13 18 17 158 25 158 10 165 12 234 46 39 20 86 52 105 71 19 19 36 35
39 35 3 1 13 -15 22 -36z m3098 0 c0 -9 -7 -8 -26 5 -24 15 -25 17 -8 24 19 6
34 -6 34 -29z m830 -152 c0 -16 -2 -30 -4 -30 -2 0 -30 13 -63 30 l-58 29 63
1 62 0 0 -30z m-4656 -102 c37 -84 24 -139 -49 -213 -19 -19 -35 -43 -35 -55
0 -11 -7 -20 -15 -20 -9 0 -27 -7 -40 -16 -15 -10 -34 -14 -49 -10 -14 3 -28
2 -31 -4 -3 -5 -17 -10 -29 -10 -25 0 -51 -22 -39 -33 3 -4 -1 -7 -10 -7 -24
0 -30 18 -8 29 10 6 41 18 67 27 42 14 108 54 124 75 3 3 14 9 25 13 29 9 75
110 75 164 0 23 -7 59 -15 79 -18 41 -18 43 -6 43 4 0 20 -28 35 -62z m-94
-61 c0 -7 -7 -22 -15 -33 -13 -17 -14 -16 -4 14 11 33 19 41 19 19z m4869 -77
l-24 -32 -7 39 c-4 21 -7 49 -7 63 l-1 25 31 -32 31 -31 -23 -32z m-5011 -71
c-2 -7 -37 -24 -78 -39 -41 -15 -83 -30 -92 -35 -10 -4 -18 -3 -18 2 0 5 39
26 88 45 100 41 105 42 100 27z m-405 -185 c22 -8 -30 -62 -71 -74 -20 -5 -30
-5 -27 1 4 5 11 9 17 9 16 0 58 41 58 57 0 15 2 15 23 7z m5412 -829 c36 -82
98 -209 138 -282 69 -127 72 -131 99 -126 26 5 28 3 28 -28 0 -55 27 -166 55
-226 14 -30 43 -72 64 -92 l39 -36 -8 -195 c-5 -107 -9 -276 -10 -374 l0 -180
-68 100 c-37 54 -82 119 -100 144 -33 45 -33 45 -13 59 12 7 21 22 21 32 0 23
-58 172 -70 179 -5 3 -18 30 -30 60 -12 30 -29 66 -38 80 -9 14 -50 90 -93
170 -42 80 -98 185 -125 235 -46 85 -58 128 -71 238 -3 32 -17 65 -39 99 l-35
51 22 23 c12 13 27 33 33 45 6 13 25 26 42 31 36 9 59 48 70 117 4 23 10 39
15 34 4 -4 38 -75 74 -158z m-4905 -162 c0 -7 -39 17 -46 28 -3 6 5 3 20 -6
14 -10 26 -19 26 -22z"/>
</g>
</svg>
