<?xml version="1.0" standalone="no"?>
<!DOCTYPE svg PUBLIC "-//W3C//DTD SVG 20010904//EN"
 "http://www.w3.org/TR/2001/REC-SVG-20010904/DTD/svg10.dtd">
<svg version="1.0" xmlns="http://www.w3.org/2000/svg"
 width="1536.000000pt" height="548.000000pt" viewBox="0 0 1536.000000 548.000000"
 preserveAspectRatio="xMidYMid meet">
<metadata>
Created by potrace 1.16, written by Peter Selinger 2001-2019
</metadata>
<g transform="translate(0.000000,548.000000) scale(0.100000,-0.100000)"
fill="#000000" stroke="none">
<path d="M13980 5470 c-419 -22 -605 -69 -919 -232 -320 -165 -651 -392 -1631
-1113 -719 -529 -1144 -835 -1525 -1097 -146 -100 -406 -256 -475 -285 -97
-40 -144 -29 -219 52 -53 57 -51 77 9 87 96 16 297 143 391 246 95 104 45 123
-85 32 -169 -120 -310 -163 -454 -141 -84 13 -148 40 -252 104 -95 60 -139 63
-208 15 -92 -64 -126 -48 -390 185 -132 116 -227 182 -326 227 -121 55 -239
85 -966 244 -1644 360 -3312 771 -4285 1056 -354 104 -665 176 -859 200 -251
31 -904 -68 -1301 -196 -150 -49 -325 -135 -365 -180 l-31 -36 7 -107 7 -108
-37 -39 c-50 -53 -61 -97 -60 -244 1 -213 58 -388 154 -472 27 -24 104 -77
172 -120 253 -157 497 -284 1173 -608 l390 -187 165 -22 c444 -61 2346 -333
2495 -357 94 -14 175 -31 180 -36 6 -5 -5 -7 -30 -4 -167 22 -563 31 -1300 31
-776 -1 -1090 -9 -1395 -36 -152 -14 -195 -24 -259 -62 -68 -40 -93 -78 -79
-118 17 -49 61 -47 140 8 29 20 60 28 140 38 271 35 913 58 1423 53 408 -5
445 -8 445 -47 0 -33 -37 -120 -90 -215 -27 -49 -48 -91 -46 -93 2 -3 59 58
127 134 67 76 138 155 156 176 l34 38 277 -52 c301 -56 498 -101 514 -117 14
-14 -8 -53 -87 -152 -68 -86 -79 -121 -40 -128 37 -7 47 -24 42 -67 l-5 -40
34 40 c19 22 71 94 116 160 44 66 90 128 102 137 47 39 118 26 561 -107 577
-173 867 -286 830 -324 -16 -16 -181 -67 -410 -127 -430 -113 -687 -218 -945
-387 -147 -97 -323 -277 -297 -303 9 -9 99 42 239 134 210 140 334 202 588
297 123 46 501 155 630 181 107 21 120 14 120 -69 0 -34 5 -69 10 -77 11 -16
6 -21 102 94 53 63 145 122 228 145 78 23 513 121 535 121 25 0 17 -23 -26
-81 -22 -30 -45 -63 -51 -74 -11 -19 -11 -19 18 -1 16 10 59 41 95 67 129 95
286 149 431 149 84 0 221 17 283 35 28 8 70 28 94 45 56 38 118 40 216 5 39
-13 83 -25 98 -25 66 0 85 -37 142 -275 154 -635 510 -1310 749 -1421 54 -25
101 -31 111 -14 10 16 -11 37 -91 90 -131 89 -232 226 -364 495 -173 352 -286
741 -297 1026 -6 143 6 188 56 209 42 17 85 2 309 -108 272 -133 322 -184 385
-392 47 -152 107 -220 197 -220 65 0 112 29 221 137 l96 95 -124 177 c-301
426 -354 605 -192 640 78 17 549 14 704 -4 319 -37 591 -110 954 -254 566
-227 1181 -551 1722 -909 431 -285 697 -491 1048 -810 141 -129 223 -190 229
-172 13 37 -159 243 -329 397 -544 488 -1434 1052 -2229 1411 -800 361 -1236
482 -1742 482 -185 0 -362 16 -404 36 -48 23 -54 57 -18 96 261 274 2350 1834
3394 2533 173 116 349 230 392 253 180 100 429 125 1348 137 502 7 737 18 770
35 29 15 21 42 -13 51 -107 29 -987 47 -1347 29z m-8770 -3190 c11 -7 9 -11
-13 -19 -58 -22 -205 -5 -167 19 8 6 49 10 90 10 41 0 82 -4 90 -10z m3288
-147 c87 -124 92 -230 10 -210 -34 9 -58 69 -58 146 0 94 14 112 48 64z m-168
-189 c39 -45 38 -78 -3 -82 -51 -6 -82 47 -61 102 10 25 29 19 64 -20z m980
-171 c131 -123 290 -333 290 -383 0 -5 -8 -10 -18 -10 -45 0 -221 196 -326
364 -31 49 -56 93 -56 98 0 23 36 1 110 -69z"/>
</g>
</svg>
