<?xml version="1.0" standalone="no"?>
<!DOCTYPE svg PUBLIC "-//W3C//DTD SVG 20010904//EN"
 "http://www.w3.org/TR/2001/REC-SVG-20010904/DTD/svg10.dtd">
<svg version="1.0" xmlns="http://www.w3.org/2000/svg"
 width="1282.000000pt" height="1536.000000pt" viewBox="0 0 1282.000000 1536.000000"
 preserveAspectRatio="xMidYMid meet">
<metadata>
Created by potrace 1.16, written by Peter Selinger 2001-2019
</metadata>
<g transform="translate(0.000000,1536.000000) scale(0.100000,-0.100000)"
fill="#000000" stroke="none">
<path d="M3014 15346 c-15 -39 44 -180 186 -446 111 -207 180 -365 213 -485
19 -70 22 -104 21 -265 0 -161 -4 -209 -33 -375 -98 -576 -277 -1355 -346
-1512 -31 -69 -31 -104 -1 -168 55 -117 194 -266 549 -590 108 -98 197 -183
197 -187 0 -5 -51 -84 -114 -177 -251 -369 -319 -588 -267 -851 12 -58 21
-122 21 -143 0 -49 -28 -102 -80 -152 -59 -57 -237 -280 -450 -565 -351 -470
-461 -604 -519 -634 -67 -35 -175 -129 -389 -340 -213 -210 -417 -427 -529
-562 -32 -39 -107 -131 -168 -204 -174 -211 -303 -335 -417 -398 -333 -187
-786 -663 -872 -917 -21 -61 -20 -87 5 -119 43 -55 96 -24 183 107 30 45 59
99 64 119 14 53 41 88 156 206 212 218 335 289 605 353 270 63 291 72 313 128
l10 26 41 -48 c70 -79 88 -63 127 113 21 98 70 218 101 246 21 19 39 11 39
-19 0 -31 27 -67 51 -67 31 0 50 60 59 185 8 115 17 152 44 174 22 18 43 8 67
-34 12 -19 24 -33 29 -30 4 2 10 35 14 72 10 100 32 159 80 209 57 59 91 60
140 3 19 -23 39 -38 45 -34 7 3 11 43 11 96 0 102 9 129 71 221 54 79 239 271
298 309 54 35 81 36 146 5 64 -30 89 -58 81 -90 -3 -13 -70 -120 -149 -238
-158 -236 -217 -337 -335 -573 -99 -198 -180 -401 -227 -569 -48 -170 -78
-247 -126 -328 -60 -99 -124 -268 -265 -698 -69 -212 -247 -749 -394 -1195
-386 -1163 -383 -1154 -446 -1585 -47 -330 -111 -749 -169 -1106 -72 -442 -90
-687 -82 -1072 5 -256 16 -342 48 -377 26 -29 49 -127 49 -210 0 -79 15 -190
32 -248 15 -50 59 -97 90 -97 52 0 66 105 50 380 -5 91 -8 166 -7 168 1 1 37
-40 79 -92 71 -89 110 -125 123 -113 12 13 -13 73 -71 171 -79 133 -102 202
-121 368 -9 73 -22 165 -30 203 -8 39 -15 79 -15 90 0 19 1 19 18 -2 17 -21
31 -26 65 -24 12 1 17 10 17 34 0 37 -12 57 -85 142 -59 68 -79 101 -70 115 4
6 24 19 46 31 53 27 91 89 128 208 25 80 37 102 67 129 l37 33 -8 82 c-16 159
-10 207 30 233 29 19 52 7 57 -29 3 -25 32 -34 53 -17 21 18 19 86 -5 156 -42
119 -72 360 -86 684 -7 179 5 266 41 297 29 26 142 63 191 63 24 0 37 6 45 22
7 12 18 94 24 182 14 167 28 232 57 249 23 15 48 -8 48 -45 0 -46 27 -87 57
-88 25 0 23 48 -7 144 -16 54 -30 107 -30 117 0 10 14 33 31 50 l32 33 -8 100
c-14 179 -7 214 69 319 42 58 53 106 38 164 -19 69 -17 75 22 68 50 -10 57 12
66 194 10 198 24 236 86 229 50 -6 64 -48 74 -215 10 -157 25 -233 59 -286 63
-100 88 -224 111 -542 27 -373 72 -573 207 -915 76 -193 183 -418 212 -444 37
-33 78 -15 173 77 87 84 161 131 199 125 41 -6 57 -48 98 -244 49 -238 106
-437 178 -619 94 -239 183 -394 277 -484 73 -69 105 -70 171 -6 32 32 87 65
178 110 104 50 247 105 273 105 17 0 49 -114 79 -282 8 -48 34 -140 56 -205
50 -147 187 -428 269 -551 99 -149 246 -293 284 -279 9 4 25 27 37 52 27 58
103 125 201 175 87 45 129 51 152 19 8 -12 38 -74 67 -138 98 -218 180 -332
312 -437 138 -109 399 -223 595 -260 164 -31 333 0 387 70 65 85 124 289 170
591 15 93 28 171 30 173 7 7 14 -84 25 -293 11 -238 27 -324 73 -392 60 -89
161 -119 377 -110 210 9 372 59 526 165 67 46 185 164 233 235 53 78 117 223
156 357 20 69 40 128 43 132 4 3 99 -67 212 -157 l205 -164 93 92 c51 51 113
122 138 159 124 185 230 495 249 728 15 184 40 283 76 305 21 13 88 6 133 -13
24 -11 95 -53 158 -93 122 -79 206 -118 252 -119 60 0 168 154 311 445 193
392 295 698 336 1008 12 89 23 163 24 165 6 7 197 -114 243 -154 27 -24 59
-64 71 -89 12 -25 25 -45 31 -45 11 0 51 53 73 95 27 54 88 237 117 355 74
293 94 643 76 1301 l-8 316 143 -19 c250 -33 269 -22 269 162 0 189 -39 552
-95 879 -13 80 -23 146 -21 148 1 2 30 -55 64 -125 92 -194 125 -303 148 -486
4 -37 13 -56 35 -77 47 -44 70 -172 84 -474 7 -143 12 -185 25 -185 5 0 31 66
58 148 l49 147 7 -200 c11 -299 22 -348 59 -270 33 69 41 43 52 -181 6 -135
26 -211 59 -226 28 -12 46 -47 46 -91 0 -60 19 -106 50 -122 84 -43 142 -323
106 -501 -19 -94 -15 -127 21 -143 19 -9 24 -17 19 -31 -3 -11 -9 -29 -12 -40
-5 -15 0 -22 19 -29 21 -8 30 -24 46 -78 42 -140 54 -382 25 -508 -28 -120
-29 -144 -5 -168 38 -42 53 -145 81 -569 12 -182 23 -249 52 -333 20 -56 22
-83 24 -400 5 -529 16 -665 60 -733 22 -33 55 -25 77 19 47 97 82 613 93 1404
10 639 -11 947 -87 1330 -58 292 -77 418 -94 622 -21 268 -72 475 -234 963
-196 588 -439 1184 -686 1685 -134 270 -222 425 -317 550 -79 104 -155 264
-218 455 -62 186 -109 300 -206 491 -153 303 -308 534 -366 546 -43 9 -47 31
-10 65 36 32 57 34 107 14 82 -34 172 -147 252 -312 53 -111 106 -174 147
-174 40 0 73 -42 86 -108 18 -87 41 -174 51 -194 14 -26 35 -22 59 12 12 16
28 30 36 30 19 0 28 -24 54 -155 26 -130 53 -205 81 -231 20 -18 21 -18 35 1
8 10 14 42 14 72 0 69 21 80 61 35 33 -37 59 -117 59 -181 0 -71 18 -123 52
-152 27 -23 31 -34 42 -120 7 -52 18 -104 25 -116 25 -48 81 -11 81 52 0 41
25 75 55 75 63 0 302 -148 449 -278 144 -128 303 -328 350 -442 55 -135 99
-210 158 -275 131 -143 231 -167 214 -51 -8 53 -112 266 -191 391 -116 184
-202 293 -360 455 -206 212 -264 277 -591 670 -310 372 -542 641 -793 919 -97
107 -194 215 -217 240 -50 56 -71 95 -84 158 -15 67 -81 152 -241 308 -251
245 -594 513 -745 582 -43 19 -63 23 -94 18 -37 -6 -40 -5 -40 16 0 14 17 38
46 63 131 117 141 129 153 184 21 99 -17 241 -111 411 -22 41 -98 164 -169
273 l-128 199 25 10 c148 56 292 132 379 202 109 86 306 260 354 313 71 77
167 206 196 264 52 103 55 201 25 675 -58 908 -48 1384 36 1705 31 121 74 211
159 335 131 192 255 490 255 614 0 74 -12 101 -44 101 -36 0 -79 -57 -117
-152 -49 -123 -195 -409 -269 -526 -36 -57 -111 -165 -167 -240 -58 -77 -112
-160 -123 -190 -56 -147 -55 -265 15 -1640 14 -271 25 -516 25 -545 l0 -53
-102 -23 c-158 -36 -305 -105 -675 -319 -79 -46 -176 -99 -218 -118 l-75 -36
-62 45 c-75 54 -191 153 -400 343 -192 174 -310 274 -410 348 -98 71 -139 132
-179 258 -37 121 -104 224 -258 400 -291 331 -752 707 -987 803 -69 29 -154
32 -228 10 -215 -65 -557 -320 -819 -610 -246 -273 -390 -517 -412 -700 -15
-122 -32 -135 -183 -146 -99 -7 -113 -11 -197 -53 -49 -25 -121 -69 -160 -98
-38 -30 -118 -90 -177 -135 -131 -100 -253 -173 -291 -173 -17 0 -66 24 -125
61 -94 59 -631 428 -663 456 -15 12 -14 27 12 176 39 224 87 433 251 1085
l141 563 -98 202 c-110 227 -199 432 -239 553 -46 140 -232 390 -350 471 -53
36 -74 41 -82 19z m2670 -2655 c62 -74 78 -116 84 -213 9 -163 -37 -619 -72
-702 -17 -42 -36 -45 -86 -15 -104 64 -255 231 -313 348 -28 57 -31 73 -31
150 1 140 42 254 173 473 l82 138 63 -68 c35 -37 80 -87 100 -111z m1898 92
c67 -64 88 -92 119 -158 100 -213 141 -565 65 -565 -27 0 -63 -41 -106 -120
-24 -44 -61 -96 -82 -115 -147 -133 -323 118 -305 435 11 186 157 600 212 600
9 0 52 -35 97 -77z"/>
</g>
</svg>
