<?xml version="1.0" standalone="no"?>
<!DOCTYPE svg PUBLIC "-//W3C//DTD SVG 20010904//EN"
 "http://www.w3.org/TR/2001/REC-SVG-20010904/DTD/svg10.dtd">
<svg version="1.0" xmlns="http://www.w3.org/2000/svg"
 width="1536.000000pt" height="1246.000000pt" viewBox="0 0 1536.000000 1246.000000"
 preserveAspectRatio="xMidYMid meet">
<metadata>
Created by potrace 1.16, written by Peter Selinger 2001-2019
</metadata>
<g transform="translate(0.000000,1246.000000) scale(0.100000,-0.100000)"
fill="#000000" stroke="none">
<path d="M6575 12453 c-214 -12 -394 -27 -534 -44 -1393 -164 -2719 -747
-3884 -1707 -709 -585 -1179 -1142 -1482 -1757 -107 -218 -158 -343 -240 -590
-144 -433 -229 -845 -309 -1495 -173 -1394 -166 -2015 30 -2792 90 -360 258
-896 361 -1158 255 -645 519 -997 1149 -1526 295 -249 901 -751 959 -795 682
-517 1625 -697 2740 -523 227 35 500 92 570 119 321 120 924 530 1449 984 148
128 408 384 494 486 321 382 480 887 542 1720 29 399 38 825 19 993 -44 411
-196 754 -499 1132 -226 281 -473 538 -615 639 -382 271 -826 340 -1594 250
-206 -24 -302 -43 -411 -81 -402 -142 -748 -463 -1092 -1013 -288 -461 -322
-562 -322 -950 0 -359 69 -774 188 -1137 50 -152 80 -211 147 -282 154 -165
430 -219 814 -159 131 20 212 46 264 84 46 33 76 88 67 124 -6 22 -11 23 -143
27 -214 8 -358 50 -422 124 -199 226 -180 814 34 1100 92 121 219 223 314 250
53 15 187 79 227 108 17 13 15 19 -34 101 -57 95 -58 98 -39 113 9 8 39 -7
117 -58 58 -38 108 -69 111 -70 3 0 23 25 44 55 129 188 418 278 736 230 174
-26 295 -84 410 -195 138 -135 239 -340 304 -615 62 -265 105 -720 84 -887
-60 -481 -548 -1041 -1219 -1396 -341 -180 -760 -315 -1200 -384 -192 -30
-499 -32 -665 -4 -719 120 -1361 647 -1872 1536 -338 589 -611 1376 -688 1983
-36 288 -36 648 0 934 23 179 74 430 155 763 83 342 93 386 130 607 43 249
107 431 256 723 152 298 365 613 622 920 138 163 463 487 627 624 708 589
1496 954 2358 1090 283 45 988 103 1552 127 294 13 853 7 1050 -11 677 -61
1135 -203 1695 -525 190 -109 522 -323 634 -408 651 -496 1245 -1349 1815
-2605 268 -590 457 -1058 1061 -2627 142 -368 313 -809 380 -980 214 -543 249
-650 430 -1295 119 -423 194 -637 302 -857 100 -205 244 -402 359 -493 43 -34
58 -40 98 -40 126 0 296 201 341 403 24 107 -18 599 -85 994 -64 375 -144 719
-360 1544 -171 653 -234 917 -345 1449 -178 856 -314 1301 -586 1920 -189 431
-944 1871 -1227 2340 -289 479 -572 847 -916 1190 -427 426 -849 721 -1599
1119 -190 101 -316 158 -477 216 -326 118 -682 196 -1120 244 -549 61 -1719
115 -2060 94z"/>
</g>
</svg>
