<?xml version="1.0" standalone="no"?>
<!DOCTYPE svg PUBLIC "-//W3C//DTD SVG 20010904//EN"
 "http://www.w3.org/TR/2001/REC-SVG-20010904/DTD/svg10.dtd">
<svg version="1.0" xmlns="http://www.w3.org/2000/svg"
 width="1536.000000pt" height="1495.000000pt" viewBox="0 0 1536.000000 1495.000000"
 preserveAspectRatio="xMidYMid meet">
<metadata>
Created by potrace 1.16, written by Peter Selinger 2001-2019
</metadata>
<g transform="translate(0.000000,1495.000000) scale(0.100000,-0.100000)"
fill="#000000" stroke="none">
<path d="M2281 14833 c-98 -105 -100 -108 -82 -126 17 -17 21 -18 42 -4 23 15
27 13 114 -59 197 -164 240 -208 263 -271 57 -155 165 -280 371 -428 68 -49
124 -94 126 -99 2 -6 7 -38 11 -70 l9 -59 45 -13 c61 -18 109 -60 200 -175 43
-54 119 -133 171 -178 115 -98 397 -376 499 -490 40 -46 91 -96 113 -112 36
-26 44 -28 102 -22 95 9 172 -11 358 -90 l169 -72 -107 -3 -106 -3 21 -26 c13
-17 20 -41 20 -71 0 -62 -23 -81 -276 -231 -115 -68 -240 -143 -279 -166 -48
-28 -71 -48 -73 -63 -5 -31 -55 -66 -140 -96 -98 -35 -113 -43 -142 -77 -22
-26 -62 -40 -360 -127 -328 -96 -335 -98 -332 -122 5 -36 11 -39 88 -49 107
-13 200 2 363 60 122 43 703 219 722 219 3 0 11 -38 18 -85 9 -56 17 -85 26
-85 16 0 22 23 30 125 4 44 11 87 16 96 4 9 30 24 56 34 118 43 234 133 299
229 33 49 37 51 96 61 l61 10 28 65 c16 36 29 61 29 55 1 -5 7 -62 13 -125 10
-96 15 -115 30 -118 15 -3 17 8 17 125 l0 128 86 105 c47 58 89 108 93 113 4
4 122 25 261 47 231 37 256 43 287 68 123 99 171 122 249 122 54 0 68 -22 62
-92 -6 -57 -31 -89 -98 -123 l-45 -23 -49 -144 c-27 -78 -78 -219 -114 -313
-55 -146 -65 -181 -68 -246 -1 -42 -10 -116 -19 -164 -14 -71 -23 -97 -50
-130 -52 -64 -128 -186 -183 -292 -63 -122 -94 -153 -159 -161 -26 -3 -64 -16
-83 -28 -42 -29 -83 -30 -152 -4 -58 22 -62 20 -72 -41 l-6 -39 -136 0 -136 0
31 -35 c17 -20 31 -38 31 -40 0 -6 -157 -85 -169 -85 -5 0 -34 23 -65 50 l-55
51 -70 -3 -70 -3 55 -67 c64 -78 69 -74 -98 -84 -65 -3 -118 -10 -118 -14 0
-5 12 -22 26 -39 l26 -31 -35 -15 c-39 -16 -71 -10 -129 24 -39 24 -73 28
-126 17 l-33 -8 29 -52 30 -51 -123 -83 c-92 -62 -148 -92 -228 -121 -127 -46
-185 -79 -254 -144 l-53 -50 0 -82 0 -83 -45 -37 c-66 -53 -114 -122 -191
-270 -78 -151 -112 -205 -165 -260 -33 -35 -38 -47 -41 -95 l-3 -54 -47 -15
c-44 -13 -48 -17 -48 -46 0 -21 -28 -79 -89 -182 -86 -148 -115 -191 -235
-358 -69 -95 -98 -151 -121 -228 -15 -53 -18 -57 -47 -57 -64 0 -108 -47 -108
-116 0 -46 -19 -81 -84 -153 -38 -44 -61 -82 -82 -138 l-30 -78 -122 -93 -122
-93 20 -29 20 -28 -45 -60 c-68 -93 -160 -162 -332 -249 -84 -43 -153 -82
-153 -87 0 -5 37 -78 83 -163 74 -137 97 -172 97 -144 0 5 14 45 30 89 l31 79
72 33 c112 52 141 75 172 136 31 62 58 85 162 138 l71 38 57 -37 c43 -27 60
-33 70 -25 28 23 115 160 169 266 31 62 75 140 97 175 42 65 138 164 168 174
13 4 21 25 30 73 23 127 76 199 185 251 90 43 126 85 135 157 8 63 25 104 43
104 24 0 81 55 98 94 10 23 21 76 25 119 l7 77 84 58 83 57 1 83 0 83 75 47
74 47 3 95 3 95 42 9 43 9 24 81 c13 44 34 114 46 154 11 39 26 72 32 72 17 0
492 61 493 63 2 3 167 211 176 221 4 4 28 -4 53 -19 l46 -27 31 26 c36 31 69
32 126 6 l42 -19 116 130 115 130 20 -46 c11 -26 20 -51 20 -56 0 -21 18 -6
34 29 17 37 26 44 268 185 l48 29 26 -59 c60 -135 67 -268 19 -387 -14 -36
-25 -75 -24 -88 4 -50 -3 -68 -56 -132 -32 -40 -59 -84 -65 -109 -20 -77 -111
-339 -132 -381 -11 -23 -34 -57 -49 -77 -27 -35 -29 -42 -29 -136 0 -83 -5
-117 -35 -218 -20 -66 -53 -162 -74 -215 -21 -52 -69 -189 -107 -304 -44 -136
-73 -210 -83 -213 -61 -19 -86 -37 -168 -120 -103 -105 -95 -102 -233 -78 -47
8 -93 15 -104 15 -20 0 -20 -5 10 -82 l18 -48 -33 -34 -33 -34 -141 -7 -142
-7 70 -36 70 -36 -80 -24 c-44 -13 -118 -35 -163 -49 l-84 -25 28 -29 c17 -18
24 -33 18 -38 -5 -5 -90 -77 -189 -160 l-180 -151 -72 0 c-40 0 -73 -2 -73 -5
0 -2 11 -33 24 -69 l24 -64 -51 -6 c-29 -3 -80 -9 -114 -12 l-63 -7 0 -63 0
-63 -202 -181 -203 -182 -32 -86 c-18 -48 -47 -131 -65 -184 l-32 -97 29 -90
29 -90 -88 -91 c-95 -99 -136 -169 -136 -236 0 -25 -6 -47 -16 -54 -26 -22
-62 -92 -109 -210 -25 -62 -54 -125 -65 -140 -26 -36 -25 -45 5 -84 14 -18 25
-36 25 -41 0 -4 -25 -37 -56 -72 l-57 -64 -5 -95 -5 -94 -37 0 -37 0 -20 -83
c-46 -184 -117 -325 -220 -437 l-63 -68 0 -73 c-1 -114 -33 -168 -122 -207
-17 -7 -30 -22 -34 -39 -3 -15 -22 -86 -41 -158 -56 -206 -72 -285 -73 -355
l0 -65 -85 -59 -85 -59 0 -62 c0 -60 -5 -72 -100 -257 -107 -208 -145 -299
-164 -392 l-12 -59 -67 -22 c-82 -28 -126 -54 -246 -144 l-94 -71 -86 -1 c-47
0 -105 -4 -128 -7 l-41 -7 76 -150 77 -149 67 -27 66 -27 7 58 c6 56 8 58 63
97 31 22 104 84 162 138 58 53 124 111 148 127 59 41 140 68 204 68 l53 1 117
134 118 134 0 63 0 63 76 76 75 76 34 119 c45 160 61 193 143 304 56 74 74
108 88 160 29 116 35 130 75 176 25 29 44 65 55 102 21 76 27 93 68 192 19 47
54 152 78 234 39 134 47 152 73 166 24 13 35 35 72 145 24 72 57 180 74 240
21 76 55 158 110 268 66 131 86 181 114 291 35 142 49 175 90 225 20 24 27 44
29 85 2 41 16 81 59 173 36 74 57 131 57 153 l0 35 174 87 173 87 12 48 c15
57 64 109 161 167 79 47 110 74 110 95 0 31 40 80 87 107 122 69 163 109 163
160 0 18 8 23 47 29 29 4 53 14 61 26 7 11 18 17 23 13 6 -4 3 -14 -7 -25 -16
-18 -16 -20 1 -39 10 -11 23 -20 30 -20 6 0 47 74 90 165 l78 165 98 0 c114 0
107 -8 111 125 l3 79 100 39 c103 40 114 48 115 82 1 40 13 47 63 34 26 -6 47
-12 47 -13 0 -1 -9 -28 -21 -61 -11 -32 -29 -124 -40 -204 -10 -80 -22 -159
-25 -176 -12 -55 -45 -120 -87 -170 l-42 -49 -7 -141 c-5 -113 -13 -166 -41
-275 -75 -290 -85 -494 -60 -1250 16 -484 46 -685 149 -1012 25 -79 50 -177
55 -218 13 -113 38 -217 69 -297 16 -40 38 -112 50 -160 11 -48 52 -160 90
-248 37 -88 80 -192 95 -230 32 -86 66 -147 162 -291 67 -101 80 -115 133
-143 33 -18 62 -36 65 -41 3 -5 -35 -215 -85 -467 -49 -251 -90 -461 -90 -465
0 -5 19 -8 43 -8 23 0 77 -11 120 -25 87 -28 161 -32 210 -11 33 13 34 16 87
210 29 108 55 196 57 196 2 0 16 -6 32 -14 27 -14 64 -53 149 -155 29 -34 65
-62 105 -82 72 -37 164 -123 252 -234 185 -236 429 -403 725 -496 127 -39 182
-76 210 -138 45 -100 66 -135 92 -155 15 -11 31 -17 34 -13 4 4 -5 48 -19 99
-19 69 -23 95 -14 101 7 4 48 6 92 4 114 -5 175 -37 293 -151 l92 -89 -24 -26
c-17 -18 -21 -31 -15 -41 5 -8 20 -73 34 -144 37 -190 44 -187 60 29 6 85 14
157 16 160 3 2 25 -29 48 -71 24 -42 47 -72 51 -67 5 4 29 44 54 88 l46 80 0
-190 c0 -190 4 -215 35 -215 7 0 17 40 25 100 7 55 16 100 19 100 3 0 21 -39
40 -88 63 -160 69 -172 86 -166 12 5 15 24 15 93 0 47 3 103 6 124 l7 37 128
0 129 0 0 -53 c0 -30 3 -102 7 -160 5 -92 8 -107 23 -107 14 0 19 13 24 73 13
135 13 136 61 148 l42 11 7 75 c3 42 6 112 6 155 0 70 2 79 17 76 13 -2 22
-23 34 -73 11 -49 21 -71 32 -73 15 -3 17 7 17 67 0 65 2 71 20 71 37 0 97 39
121 77 13 21 40 74 59 118 l36 80 97 3 c73 2 97 0 98 -10 0 -7 6 -60 13 -118
l11 -105 48 92 c59 111 113 184 244 326 96 104 258 314 289 375 18 37 31 47
68 56 16 4 163 99 328 211 178 122 301 199 303 192 3 -7 21 -82 40 -167 20
-85 38 -163 41 -172 5 -16 20 -18 142 -18 75 0 142 4 147 8 6 4 25 23 43 43
l32 35 -20 58 c-32 93 -41 206 -35 437 l6 214 54 48 c67 60 128 149 144 213
27 109 46 164 88 259 44 100 143 357 143 374 0 4 11 19 23 33 18 19 26 43 30
88 8 74 14 83 68 99 l41 12 -4 108 c-3 93 -1 107 12 104 29 -8 47 31 85 177
21 80 51 177 67 215 51 120 58 176 58 452 l0 251 -26 32 -27 31 21 22 c18 19
25 54 47 247 14 124 30 254 35 290 15 105 11 265 -10 408 -14 96 -20 186 -20
315 0 202 -13 410 -36 592 -17 138 -53 371 -61 398 -5 17 -3 18 26 3 16 -9 46
-16 66 -16 65 0 114 -38 154 -118 18 -35 25 -41 36 -32 12 10 37 -9 134 -101
102 -96 118 -116 110 -132 -17 -31 -14 -79 6 -93 30 -22 34 -17 37 45 l3 59
75 -44 c77 -44 112 -77 141 -131 10 -19 44 -47 87 -72 60 -35 72 -47 91 -91
31 -72 72 -114 185 -188 55 -36 151 -107 213 -159 l113 -93 85 0 85 0 0 -91
c0 -90 0 -91 70 -249 93 -212 107 -256 145 -458 38 -199 46 -213 132 -238 l53
-15 0 -94 0 -93 33 -7 c72 -14 67 -5 67 -132 l0 -115 51 -56 c28 -32 68 -94
90 -138 36 -74 89 -250 89 -295 0 -13 12 -21 41 -29 22 -6 42 -16 43 -23 2 -7
9 -39 16 -72 11 -54 18 -66 75 -120 77 -74 91 -100 127 -244 29 -118 64 -193
98 -211 17 -9 20 -21 20 -83 0 -81 16 -117 54 -117 19 0 33 -23 94 -147 l72
-148 0 -117 0 -116 68 -12 68 -12 38 -99 c22 -55 42 -99 45 -99 44 -1 197 -24
232 -35 49 -17 101 -64 142 -132 20 -32 37 -45 74 -57 105 -35 210 -126 289
-251 26 -41 51 -75 55 -75 9 0 232 341 226 346 -2 3 -17 -1 -33 -7 -16 -7 -67
-12 -114 -13 -77 -1 -92 2 -150 31 -36 18 -107 69 -159 115 -52 46 -124 108
-160 138 -159 134 -241 292 -241 460 l0 66 -90 68 c-49 38 -90 70 -90 71 0 1
27 12 60 24 33 12 60 25 60 28 0 3 -31 39 -70 79 -110 116 -134 184 -106 294
9 34 16 63 16 64 0 1 -40 31 -90 65 l-90 64 30 37 29 37 -100 172 -100 173 20
22 21 22 -115 154 c-186 252 -249 384 -262 551 -5 69 -8 78 -28 83 -34 9 -104
63 -126 99 -25 41 -46 113 -58 200 -9 66 -12 70 -81 143 -39 42 -69 81 -67 87
2 7 25 19 50 27 l47 15 -110 110 -110 110 0 57 c0 46 -3 58 -18 62 -27 9 -98
83 -117 121 -27 59 -37 144 -31 265 10 168 -1 215 -71 312 -129 178 -273 309
-435 394 -72 37 -88 49 -88 68 0 36 -35 72 -110 116 -66 38 -110 80 -110 104
0 6 25 24 55 41 55 29 62 39 46 63 -7 11 -26 9 -105 -12 -53 -15 -102 -24
-109 -20 -28 17 -167 128 -167 133 0 3 12 26 25 50 29 50 23 60 -35 61 -50 0
-163 26 -207 47 -21 10 -60 39 -88 66 l-50 49 44 16 c83 32 65 42 -76 42
l-128 0 -68 109 -69 109 -61 7 c-86 9 -163 49 -292 151 -60 47 -127 95 -149
106 -57 29 -82 64 -105 148 -12 41 -32 112 -46 157 -14 49 -32 159 -45 274
-13 116 -32 226 -46 274 -13 44 -44 153 -69 242 -72 262 -123 374 -218 480
-19 21 -51 72 -72 113 -21 41 -54 93 -75 116 -43 47 -95 173 -117 284 -13 62
-13 86 -3 133 6 31 16 59 21 63 5 3 87 -35 181 -83 169 -87 173 -90 184 -128
l11 -40 123 -5 123 -5 45 -132 c42 -128 45 -133 71 -133 39 0 77 33 106 91 14
27 27 49 29 49 2 0 72 -25 157 -55 85 -31 186 -67 226 -81 40 -14 102 -44 139
-66 105 -63 209 -109 323 -143 l105 -31 129 -184 c70 -101 149 -222 174 -269
68 -127 99 -174 175 -265 37 -44 81 -107 98 -138 20 -37 47 -69 79 -92 27 -20
65 -54 85 -76 35 -39 36 -42 36 -120 l0 -81 110 -71 110 -71 0 -67 c0 -67 0
-68 56 -136 31 -38 68 -93 82 -123 18 -37 40 -64 73 -88 l48 -34 3 -72 3 -72
65 -48 c36 -27 72 -52 80 -57 13 -7 11 -12 -8 -32 l-22 -24 114 -93 115 -92
65 19 65 20 193 -129 193 -129 8 -60 9 -60 42 0 43 0 7 53 c3 28 6 66 6 83 0
22 19 57 65 122 36 50 65 95 65 101 0 7 -31 11 -82 11 -100 0 -256 36 -345 80
-71 35 -108 75 -159 175 -59 112 -103 174 -190 265 -91 95 -114 134 -145 245
-31 116 -43 138 -103 188 -44 38 -59 60 -80 115 -14 37 -42 89 -61 116 -19 28
-43 73 -52 103 -15 47 -24 57 -90 104 l-73 52 20 22 21 22 -157 212 c-109 147
-168 218 -193 232 -26 14 -46 39 -71 86 -57 110 -145 220 -297 374 l-143 145
0 110 0 110 -116 54 c-63 29 -149 77 -191 106 -45 32 -103 61 -142 73 -36 11
-81 30 -99 41 -35 21 -62 72 -62 115 l0 25 -100 0 -100 0 25 50 c14 27 25 51
25 54 0 2 -42 -10 -92 -26 -123 -40 -185 -46 -243 -24 -25 10 -45 23 -45 30 0
7 11 39 24 72 13 32 23 60 21 62 -1 2 -46 -9 -100 -23 -53 -15 -98 -25 -99
-23 -2 2 -22 32 -46 68 -24 36 -44 66 -45 68 -2 2 -20 -8 -40 -23 -39 -26 -74
-30 -159 -19 l-46 7 0 48 0 49 -137 0 -138 1 -120 62 c-142 73 -150 83 -226
267 -66 161 -87 198 -169 286 -99 107 -112 166 -54 254 34 52 35 106 4 200
-16 48 -23 98 -27 190 l-5 125 -54 55 -53 55 6 88 c5 75 8 87 22 81 57 -25
119 -33 205 -27 l91 6 118 -125 117 -125 0 -139 1 -139 34 73 c18 39 36 72 38
72 3 0 39 -16 80 -34 93 -43 153 -95 169 -147 9 -33 15 -39 39 -39 36 0 120
-31 166 -62 19 -13 63 -60 98 -106 66 -86 114 -131 176 -163 49 -25 220 -92
349 -138 58 -21 147 -63 198 -94 51 -31 141 -74 200 -97 59 -23 141 -54 183
-71 76 -29 150 -36 209 -20 21 6 5 15 -104 61 -135 57 -224 108 -266 155 -44
47 -75 64 -170 89 -88 24 -96 29 -211 122 l-119 96 0 50 c0 43 -3 51 -22 56
-13 3 -70 29 -126 59 -61 31 -124 55 -152 59 -37 5 -51 12 -61 31 -23 43 -102
105 -204 163 -113 63 -158 112 -212 228 -41 88 -40 90 68 147 113 59 172 75
314 85 201 14 320 60 399 153 22 28 91 92 151 144 155 134 602 596 691 714 40
55 89 128 109 163 38 69 33 66 148 82 l47 6 0 64 0 63 69 36 c73 39 91 62 91
121 0 44 15 74 38 74 28 0 60 28 67 59 11 53 97 111 163 111 34 0 47 13 56 57
9 40 14 44 106 77 41 15 107 44 147 64 l71 37 -101 127 -102 128 -9 -65 -8
-65 -87 -64 c-47 -35 -116 -83 -152 -107 -36 -24 -91 -64 -122 -88 -47 -35
-67 -44 -115 -50 -70 -8 -115 -34 -170 -99 -23 -29 -98 -88 -177 -142 -147
-100 -164 -118 -218 -225 -39 -78 -84 -126 -138 -148 -37 -15 -56 -36 -117
-127 -21 -31 -51 -61 -69 -70 -19 -9 -37 -27 -43 -45 -51 -136 -110 -218 -169
-236 -34 -10 -41 -18 -80 -105 -24 -52 -44 -95 -45 -96 0 0 -185 -4 -411 -8
-338 -6 -424 -10 -492 -25 l-82 -18 -36 23 -36 22 -51 -22 c-61 -26 -104 -28
-146 -6 -30 16 -36 15 -114 -8 l-83 -25 -117 118 c-105 106 -118 123 -133 175
-9 31 -15 63 -12 70 3 7 26 19 51 26 46 13 46 13 46 56 l0 44 -77 0 -78 1
-125 213 -125 214 -67 43 -68 42 0 109 0 109 -132 154 c-73 85 -137 154 -142
154 -5 1 -24 -10 -42 -24 l-33 -25 -88 45 c-74 39 -102 47 -174 55 -52 6 -105
6 -134 1 -55 -10 -88 -1 -107 29 -7 11 -15 20 -19 20 -3 0 -20 -20 -39 -45
l-34 -45 -92 0 c-103 0 -104 1 -104 73 0 23 -3 52 -6 65 -6 22 -8 21 -54 -22
-50 -47 -54 -49 -159 -66 -34 -6 -83 -21 -107 -33 -24 -11 -45 -19 -47 -16 -2
2 -26 40 -53 84 -27 44 -50 73 -51 65 -1 -8 -7 -48 -13 -87 l-12 -73 -51 1
c-75 1 -90 9 -102 60 l-11 44 -82 -1 c-70 -1 -91 -5 -147 -33 -35 -18 -89 -54
-118 -81 l-54 -49 -124 -3 -124 -3 -33 -110 -34 -111 -58 -17 c-47 -13 -67
-27 -106 -70 -58 -64 -157 -220 -174 -274 -25 -84 -43 -113 -87 -143 -25 -16
-49 -30 -54 -32 -4 -2 -29 -48 -53 -103 l-45 -100 -91 -7 c-99 -7 -130 -20
-155 -67 -17 -33 -15 -34 83 -47 28 -3 52 -9 52 -11 0 -10 -195 -273 -203
-273 -5 0 -41 27 -80 61 l-72 60 -29 -65 c-16 -36 -32 -66 -36 -66 -3 0 -26
27 -50 60 -24 33 -46 60 -50 60 -4 0 -12 -18 -19 -40 -6 -21 -15 -41 -19 -44
-4 -2 -47 32 -96 75 -49 43 -92 79 -97 79 -4 0 -19 -4 -33 -9 l-24 -10 26 -50
c21 -40 25 -54 16 -68 -19 -30 -39 -26 -120 26 l-79 50 -5 -41 -5 -42 -240
-33 c-132 -17 -251 -32 -265 -32 -20 0 -47 27 -132 132 -140 171 -197 251
-246 340 -50 90 -104 152 -238 268 -60 52 -124 119 -151 157 -98 141 -131 177
-257 287 -72 62 -142 124 -155 139 -23 24 -30 26 -115 26 l-91 1 -80 106 c-78
103 -82 107 -165 147 l-85 41 -14 63 c-8 34 -18 62 -22 62 -4 0 -53 -48 -108
-107z m4039 -609 c0 -23 -3 -25 -42 -22 -52 4 -61 24 -16 37 51 15 58 13 58
-15z m-20 -292 c0 -8 -15 -46 -34 -85 -80 -169 -126 -342 -126 -479 l0 -83
-46 -57 -46 -58 -149 0 c-118 0 -149 3 -143 13 50 82 195 269 256 331 89 89
109 120 171 263 60 138 97 200 108 182 5 -8 9 -20 9 -27z m2887 -797 c3 -10
-18 -25 -68 -50 -40 -19 -77 -35 -83 -35 -6 0 -62 86 -124 190 -100 169 -116
191 -145 198 l-32 8 -3 174 -2 174 225 -323 c125 -177 229 -329 232 -336z
m-4087 14 c0 -14 13 -26 46 -40 84 -37 56 -44 -204 -47 -133 -1 -242 1 -242 5
0 5 10 20 23 36 21 26 29 28 182 46 208 25 195 25 195 0z m-643 -26 c-3 -10
-5 -4 -5 12 0 17 2 24 5 18 2 -7 2 -21 0 -30z m6163 -78 l0 -35 -131 0 c-162
0 -168 15 -18 46 149 31 149 31 149 -11z m-382 -67 c-4 -10 -323 -96 -360 -98
-5 0 -8 25 -8 55 l0 55 186 0 c144 0 185 -3 182 -12z m-71 -785 c-3 -10 -5 -2
-5 17 0 19 2 27 5 18 2 -10 2 -26 0 -35z m553 -2158 c0 -14 -4 -25 -10 -25 -5
0 -10 11 -10 25 0 14 5 25 10 25 6 0 10 -11 10 -25z m1360 -539 c0 -14 -4 -28
-10 -31 -6 -4 -10 7 -10 24 0 17 5 31 10 31 6 0 10 -11 10 -24z m160 -221 c0
-14 -4 -25 -10 -25 -5 0 -10 11 -10 25 0 14 5 25 10 25 6 0 10 -11 10 -25z
m-10060 -3756 c0 -17 -4 -28 -10 -24 -5 3 -10 17 -10 31 0 13 5 24 10 24 6 0
10 -14 10 -31z m-540 -1304 c0 -14 -4 -25 -10 -25 -5 0 -10 11 -10 25 0 14 5
25 10 25 6 0 10 -11 10 -25z m-40 -165 c0 -5 -11 -10 -25 -10 -14 0 -25 5 -25
10 0 6 11 10 25 10 14 0 25 -4 25 -10z m0 -270 c0 -5 -11 -10 -25 -10 -14 0
-25 5 -25 10 0 6 11 10 25 10 14 0 25 -4 25 -10z m7400 -2610 c0 -5 -13 -10
-30 -10 -16 0 -30 5 -30 10 0 6 14 10 30 10 17 0 30 -4 30 -10z"/>
</g>
</svg>
