<?xml version="1.0" standalone="no"?>
<!DOCTYPE svg PUBLIC "-//W3C//DTD SVG 20010904//EN"
 "http://www.w3.org/TR/2001/REC-SVG-20010904/DTD/svg10.dtd">
<svg version="1.0" xmlns="http://www.w3.org/2000/svg"
 width="583.000000pt" height="1536.000000pt" viewBox="0 0 583.000000 1536.000000"
 preserveAspectRatio="xMidYMid meet">
<metadata>
Created by potrace 1.16, written by Peter Selinger 2001-2019
</metadata>
<g transform="translate(0.000000,1536.000000) scale(0.100000,-0.100000)"
fill="#000000" stroke="none">
<path d="M3235 15349 c-229 -21 -408 -63 -602 -139 -813 -322 -1596 -1032
-2085 -1890 -314 -552 -458 -1049 -530 -1830 -19 -212 -16 -865 5 -1080 45
-442 106 -728 219 -1020 217 -561 567 -974 1016 -1199 190 -95 342 -141 650
-197 l152 -28 0 -425 c0 -703 31 -1108 126 -1661 80 -468 172 -831 358 -1410
161 -505 238 -769 325 -1115 244 -973 274 -1540 87 -1677 -51 -38 -117 -68
-276 -125 -405 -146 -497 -267 -386 -508 45 -97 82 -157 162 -260 115 -150
239 -249 332 -266 90 -17 118 -55 132 -178 15 -134 78 -229 189 -285 153 -78
346 -73 545 16 204 90 228 90 354 4 70 -47 138 -66 237 -66 101 0 184 21 255
64 71 44 113 98 138 183 41 131 65 139 207 68 201 -100 372 -72 555 90 97 86
240 194 318 241 121 71 134 112 67 204 -61 83 -276 214 -495 300 -219 86 -366
183 -410 270 -11 21 -42 143 -69 272 -27 128 -152 699 -276 1268 -584 2672
-685 3205 -765 4065 -35 379 -103 1437 -92 1444 5 3 117 94 248 203 318 261
499 447 716 735 285 376 535 843 647 1208 217 706 226 2202 18 3025 -122 480
-434 1018 -786 1353 -220 208 -379 290 -653 332 -125 19 -492 28 -633 14z"/>
</g>
</svg>
