<?xml version="1.0" standalone="no"?>
<!DOCTYPE svg PUBLIC "-//W3C//DTD SVG 20010904//EN"
 "http://www.w3.org/TR/2001/REC-SVG-20010904/DTD/svg10.dtd">
<svg version="1.0" xmlns="http://www.w3.org/2000/svg"
 width="1536.000000pt" height="1043.000000pt" viewBox="0 0 1536.000000 1043.000000"
 preserveAspectRatio="xMidYMid meet">
<metadata>
Created by potrace 1.16, written by Peter Selinger 2001-2019
</metadata>
<g transform="translate(0.000000,1043.000000) scale(0.100000,-0.100000)"
fill="#000000" stroke="none">
<path d="M13935 10424 c-16 -2 -66 -9 -110 -15 -394 -51 -873 -266 -1235 -554
-113 -90 -116 -93 -1100 -990 -3710 -3385 -5826 -5316 -6115 -5579 -187 -170
-380 -351 -430 -401 -577 -582 -867 -1327 -745 -1915 10 -52 18 -95 16 -97 -3
-3 -324 43 -391 57 -89 19 -946 282 -1265 390 -364 122 -427 148 -550 231
-144 97 -220 158 -388 311 -187 171 -251 262 -345 493 -88 215 -135 444 -144
705 -5 152 -4 176 21 305 80 415 226 845 387 1140 121 219 231 370 387 529
261 265 572 442 943 537 188 48 206 46 376 -33 334 -156 682 -365 1023 -612
58 -42 110 -76 116 -76 19 0 36 28 30 47 -4 10 -57 54 -119 99 -294 213 -593
395 -886 542 l-195 97 60 6 c65 8 243 12 370 10 l81 -1 102 -100 c56 -55 105
-100 109 -100 14 0 32 23 32 41 0 9 -27 46 -60 82 l-61 66 38 -6 c21 -3 88
-18 149 -34 277 -70 535 -226 765 -460 64 -66 123 -119 131 -119 9 0 21 7 28
15 16 19 1 43 -93 142 -284 300 -647 489 -1026 534 -90 10 -96 13 -155 58
-237 185 -538 334 -756 375 -45 9 -97 16 -116 16 -57 0 -47 18 33 58 172 87
334 144 513 182 130 28 407 38 557 21 442 -52 955 -252 1328 -519 382 -274
700 -677 882 -1119 23 -56 48 -68 73 -38 17 20 -5 75 -105 271 -138 270 -305
495 -527 709 -204 197 -409 340 -682 474 -349 172 -700 272 -1052 302 -371 31
-778 -71 -1147 -288 -66 -39 -95 -49 -185 -65 -261 -46 -582 -190 -792 -354
-30 -23 -78 -52 -107 -63 -121 -47 -326 -159 -468 -255 -372 -253 -655 -733
-730 -1239 -18 -126 -21 -376 -5 -504 38 -307 152 -605 353 -923 33 -52 91
-151 129 -219 38 -68 87 -150 109 -183 32 -47 46 -81 64 -163 13 -56 37 -142
54 -191 17 -48 29 -89 28 -90 -9 -10 -240 149 -373 256 -214 172 -344 311
-446 478 -152 251 -241 595 -241 932 0 186 14 292 68 495 118 449 311 834 591
1179 107 132 111 140 95 160 -26 31 -48 16 -138 -96 -152 -189 -289 -401 -389
-600 -133 -265 -254 -647 -289 -916 -53 -402 54 -905 260 -1224 159 -246 451
-504 831 -736 79 -49 104 -69 118 -99 63 -132 255 -383 425 -553 336 -337 687
-514 1161 -587 140 -21 527 -24 696 -4 105 12 117 11 245 -13 142 -27 386 -60
532 -71 70 -6 90 -11 101 -27 45 -64 201 -229 267 -282 347 -277 868 -331
1429 -146 325 106 636 279 918 511 48 39 283 250 522 468 1026 936 1966 1795
4435 4047 1707 1557 2654 2428 2718 2500 358 397 583 828 663 1269 22 121 25
416 6 515 -32 162 -95 320 -176 442 -60 91 -222 263 -307 327 -205 155 -434
229 -734 236 -88 2 -173 1 -190 -1z m-11028 -4349 c172 -33 397 -133 598 -267
l110 -72 -145 -8 c-80 -4 -200 -15 -268 -23 l-123 -15 -122 44 c-201 72 -470
135 -585 136 l-37 1 45 41 c25 22 90 71 144 109 l99 69 103 0 c56 0 137 -7
181 -15z m-467 -19 c0 -1 -28 -25 -62 -52 -35 -27 -83 -67 -108 -90 -44 -40
-47 -41 -134 -48 -48 -3 -122 -13 -163 -22 -41 -8 -77 -13 -80 -11 -2 3 60 37
139 76 156 77 408 168 408 147z m140 -290 c123 -25 356 -93 348 -102 -3 -2
-62 -20 -131 -39 -490 -134 -904 -436 -1189 -869 -32 -48 -58 -85 -58 -82 0
12 227 458 281 551 115 201 256 399 373 524 l51 54 100 -6 c56 -3 157 -17 225
-31z m-487 -33 c-169 -198 -308 -421 -496 -798 -328 -654 -503 -1171 -532
-1570 -4 -44 -15 -154 -27 -245 -11 -91 -23 -253 -27 -360 l-6 -195 -46 65
c-60 85 -74 113 -121 244 -191 536 -181 1016 34 1594 163 441 350 747 638
1046 146 151 185 181 284 211 110 33 251 63 304 64 l44 1 -49 -57z m-698 -235
c-266 -286 -484 -673 -633 -1124 -97 -293 -126 -463 -126 -749 -1 -229 11
-338 54 -505 10 -41 17 -76 15 -79 -3 -2 -26 40 -51 95 -147 314 -201 566
-191 889 9 291 63 505 194 770 123 249 317 484 503 611 88 61 303 185 308 179
3 -2 -30 -41 -73 -87z m-220 -3076 c48 -139 50 -139 -47 -14 l-40 52 -4 158
-4 157 25 -113 c14 -62 46 -170 70 -240z m294 -560 l186 -183 -105 52 c-58 28
-147 74 -198 102 -105 58 -107 60 -165 217 -59 163 -58 166 24 75 40 -44 156
-162 258 -263z m294 -313 c125 -57 176 -87 437 -253 465 -296 511 -322 715
-411 72 -32 208 -83 303 -115 l174 -57 -129 -7 c-274 -14 -586 27 -828 111
-381 132 -740 416 -1020 808 -106 148 -107 146 67 59 84 -42 211 -103 281
-135z m1207 -584 c205 -77 319 -115 530 -176 189 -55 170 -68 -25 -18 -229 58
-618 203 -690 257 l-20 14 20 -7 c11 -4 94 -35 185 -70z m251 11 c79 -19 248
-55 374 -80 240 -48 386 -88 366 -101 -34 -20 -129 -16 -236 10 -231 56 -705
205 -653 205 3 0 70 -15 149 -34z m964 -241 c40 -14 40 -14 -30 -9 -38 3 -74
10 -79 15 -15 14 63 9 109 -6z m-270 -45 l30 -8 -30 0 c-16 0 -41 4 -55 8
l-25 8 25 0 c14 0 39 -4 55 -8z m78 -17 c-7 -2 -21 -2 -30 0 -10 3 -4 5 12 5
17 0 24 -2 18 -5z m54 -9 c-3 -3 -12 -4 -19 -1 -8 3 -5 6 6 6 11 1 17 -2 13
-5z"/>
</g>
</svg>
