<?xml version="1.0" standalone="no"?>
<!DOCTYPE svg PUBLIC "-//W3C//DTD SVG 20010904//EN"
 "http://www.w3.org/TR/2001/REC-SVG-20010904/DTD/svg10.dtd">
<svg version="1.0" xmlns="http://www.w3.org/2000/svg"
 width="750.000000pt" height="448.000000pt" viewBox="0 0 750.000000 448.000000"
 preserveAspectRatio="xMidYMid meet">
<metadata>
Created by potrace 1.16, written by Peter Selinger 2001-2019
</metadata>
<g transform="translate(0.000000,448.000000) scale(0.100000,-0.100000)"
fill="#000000" stroke="none">
<path d="M2600 4416 c-85 -30 -185 -65 -223 -80 -94 -36 -104 -32 -23 11 70
38 87 56 68 75 -18 18 -81 -3 -242 -81 -41 -20 -78 -37 -82 -39 -3 -2 -4 6 -1
17 3 12 2 28 -1 38 -6 14 -10 11 -26 -15 -11 -18 -25 -32 -31 -32 -12 0 -92
-61 -119 -91 -9 -10 -45 -34 -80 -55 -36 -20 -90 -56 -120 -79 -72 -54 -78
-57 -84 -46 -3 5 8 26 24 46 35 44 45 74 36 110 -7 28 -26 25 -26 -5 0 -10
-15 -29 -32 -41 -18 -13 -36 -27 -39 -32 -23 -33 -123 -148 -176 -203 -26 -26
-33 -42 -33 -72 0 -54 77 -170 160 -242 95 -81 134 -128 148 -176 15 -51 7
-72 -54 -145 -20 -24 -41 -56 -46 -71 -12 -34 -16 -34 -65 -6 -68 39 -101 72
-156 156 -87 132 -138 248 -158 354 -14 78 -34 124 -78 178 -60 74 -92 98
-196 149 -155 76 -263 100 -356 80 -74 -16 -93 -27 -171 -101 -85 -79 -128
-114 -198 -159 -200 -129 -220 -145 -205 -170 8 -12 230 10 312 31 31 8 36 5
88 -52 l56 -60 -23 -26 c-35 -39 -48 -50 -103 -76 -27 -13 -61 -37 -75 -52
l-25 -27 25 7 c14 3 36 9 50 12 21 6 16 -2 -28 -46 -51 -52 -62 -73 -42 -85
12 -8 106 40 139 72 14 13 40 31 56 40 17 8 55 34 85 57 30 23 95 61 144 85
82 40 93 43 145 38 109 -12 178 -56 191 -124 4 -21 15 -63 23 -93 9 -30 24
-84 33 -120 45 -174 126 -378 176 -440 15 -19 28 -40 28 -46 0 -12 24 -57 82
-152 58 -95 110 -140 218 -186 88 -38 95 -43 101 -76 4 -19 14 -39 23 -46 9
-6 16 -21 16 -32 0 -12 9 -26 20 -32 15 -8 20 -21 20 -50 0 -50 15 -90 35 -90
8 0 15 -9 15 -21 0 -38 19 -60 45 -53 23 6 25 3 25 -26 0 -23 5 -33 19 -37 11
-3 21 -13 24 -24 3 -11 21 -26 41 -34 41 -17 47 -35 13 -35 -12 0 -39 -14 -60
-31 l-37 -30 0 -107 c0 -111 -12 -162 -46 -200 -11 -12 -36 -48 -55 -79 -27
-46 -34 -68 -34 -109 0 -30 6 -58 15 -69 14 -17 15 -15 20 30 6 57 25 70 35
23 13 -60 44 -80 37 -24 -3 29 0 35 25 44 30 10 39 25 64 112 12 42 49 134 70
172 5 10 9 24 9 32 0 24 40 47 61 36 10 -6 32 -10 50 -10 40 0 189 -39 208
-54 7 -6 32 -16 55 -21 30 -8 42 -17 44 -32 2 -11 12 -29 23 -39 12 -11 19
-30 19 -56 0 -31 5 -41 24 -50 19 -8 26 -20 28 -47 2 -25 9 -39 24 -45 14 -7
25 -24 30 -49 5 -23 18 -45 29 -51 10 -6 28 -21 38 -33 10 -13 25 -23 32 -23
8 0 18 -14 23 -32 5 -21 16 -34 29 -38 12 -3 31 -17 43 -33 12 -15 30 -27 40
-27 9 0 23 -7 30 -15 7 -8 18 -15 25 -15 8 0 22 -11 33 -25 11 -14 27 -25 35
-25 22 0 64 -44 82 -86 8 -19 22 -37 32 -41 10 -4 26 -14 36 -23 17 -16 16
-19 -2 -61 -17 -37 -18 -55 -12 -119 5 -41 9 -68 10 -59 0 9 7 22 15 28 11 9
15 5 19 -19 4 -16 4 -36 1 -44 -7 -17 57 -147 85 -175 15 -15 20 -33 19 -70 0
-27 3 -55 7 -60 10 -17 65 -43 65 -31 0 6 -7 13 -15 16 -21 8 -19 60 2 68 23
9 40 -15 60 -84 8 -30 19 -59 24 -65 5 -5 9 -21 9 -36 0 -34 71 -99 108 -99
l25 0 -25 23 c-38 35 -43 62 -17 88 24 24 21 66 -9 107 -35 49 -62 97 -61 112
0 22 63 -52 131 -155 68 -104 81 -115 122 -114 17 0 25 3 18 6 -22 9 -43 62
-40 103 2 33 -3 46 -28 70 -60 60 -102 114 -117 153 -4 10 -20 25 -37 35 -16
9 -35 29 -41 44 -6 14 -24 38 -40 52 -16 14 -29 32 -29 39 0 22 -37 86 -61
105 -22 19 -22 20 -10 123 7 57 14 138 17 179 8 136 11 150 28 169 12 13 15
27 10 45 -4 19 -2 27 10 32 29 11 40 43 21 64 -13 14 -14 22 -4 43 15 33 6 55
-26 67 -15 6 -23 14 -20 20 11 18 -15 50 -40 50 -31 0 -31 7 -4 29 18 14 20
21 10 38 -6 12 -20 24 -30 28 -11 3 -21 16 -23 28 -2 15 -13 25 -35 31 -26 8
-33 16 -35 40 -2 23 -9 32 -26 34 -17 3 -21 8 -16 26 3 14 -1 27 -10 35 -9 8
-16 22 -16 31 0 10 -11 27 -25 38 -14 11 -25 25 -25 31 0 23 -41 33 -86 21
-53 -15 -66 -7 -35 21 30 28 21 44 -23 43 -30 -1 -36 2 -31 16 9 27 -5 50 -30
50 -12 0 -28 7 -35 15 -11 13 -8 21 17 48 17 18 34 42 37 54 4 12 20 34 36 50
16 15 35 40 43 56 8 15 41 56 75 91 97 103 186 134 324 111 56 -9 98 11 98 48
0 19 11 26 78 45 42 13 109 35 147 48 39 14 86 29 105 33 19 5 58 20 85 34
105 53 254 94 385 106 177 16 461 17 489 1 12 -6 30 -8 39 -4 26 10 122 13
128 3 7 -13 68 -11 81 2 7 7 38 9 84 5 112 -8 121 -10 156 -28 17 -10 61 -20
97 -22 47 -3 78 -11 110 -30 50 -29 67 -32 96 -14 17 11 29 8 79 -20 61 -34
117 -41 150 -20 15 9 27 6 66 -15 58 -33 103 -35 113 -7 7 20 8 20 40 -4 39
-28 117 -43 137 -26 11 9 23 9 46 1 38 -13 99 -14 118 -2 10 6 27 3 52 -10 40
-20 99 -25 114 -10 16 15 71 16 89 2 11 -9 52 -14 133 -15 65 -1 124 -5 132
-10 8 -5 29 -3 53 5 34 11 43 10 68 -4 31 -19 66 -22 75 -8 3 6 19 4 39 -4 37
-16 223 -18 243 -2 7 5 33 6 59 2 31 -4 61 -1 92 9 26 8 59 18 75 21 18 4 27
12 27 24 0 23 -16 30 -100 46 -36 7 -132 26 -215 43 -121 24 -187 31 -344 37
-107 4 -206 8 -220 10 -14 2 -75 6 -136 10 -106 6 -190 13 -395 36 -52 6 -144
21 -205 34 -120 27 -309 60 -395 70 -30 4 -111 16 -180 28 -113 19 -164 20
-550 20 -279 0 -434 -4 -452 -11 -14 -6 -64 -16 -110 -22 -80 -11 -166 -33
-328 -85 -75 -24 -246 -58 -352 -70 -52 -6 -58 -4 -69 17 -7 12 -23 31 -36 41
-17 14 -21 25 -17 43 3 13 2 30 -4 37 -21 27 -22 63 -2 80 11 9 20 27 20 40 0
15 9 29 25 37 30 16 33 54 8 90 -16 22 -16 24 2 34 48 28 68 53 67 83 -1 28 2
31 40 36 59 8 133 82 109 110 -7 9 3 17 35 31 40 16 45 22 40 42 -6 21 -3 24
20 24 34 0 94 29 94 45 0 7 -7 19 -16 26 -14 11 -8 16 48 34 59 19 63 22 66
53 3 30 0 34 -37 49 -44 17 -51 28 -23 37 22 7 55 62 46 77 -9 16 -69 39 -99
39 -30 0 -32 11 -5 28 24 15 26 54 3 73 -18 15 -165 17 -323 4 l-85 -7 19 21
c18 20 18 22 2 40 -10 11 -31 23 -46 26 -25 5 -165 -14 -226 -31 -17 -4 -23 0
-28 22 -7 26 -8 27 -69 20 -34 -3 -128 -9 -209 -11 -122 -5 -148 -3 -148 8 0
11 29 15 133 20 140 5 208 24 215 58 5 28 -53 39 -212 40 -169 1 -167 4 29 44
66 14 126 32 134 39 35 36 -18 58 -116 48 -54 -5 -75 10 -30 21 12 4 31 13 42
20 16 13 17 17 6 31 -25 30 -86 23 -383 -48 -54 -12 -98 -20 -98 -17 0 3 35
18 78 33 207 71 282 109 282 142 0 11 -23 28 -33 26 -1 -1 -72 -25 -157 -54z"/>
</g>
</svg>
