<?xml version="1.0" standalone="no"?>
<!DOCTYPE svg PUBLIC "-//W3C//DTD SVG 20010904//EN"
 "http://www.w3.org/TR/2001/REC-SVG-20010904/DTD/svg10.dtd">
<svg version="1.0" xmlns="http://www.w3.org/2000/svg"
 width="1536.000000pt" height="470.000000pt" viewBox="0 0 1536.000000 470.000000"
 preserveAspectRatio="xMidYMid meet">
<metadata>
Created by potrace 1.16, written by Peter Selinger 2001-2019
</metadata>
<g transform="translate(0.000000,470.000000) scale(0.100000,-0.100000)"
fill="#000000" stroke="none">
<path d="M14774 4671 c-33 -17 -82 -49 -108 -72 -47 -41 -47 -42 -44 -97 3
-52 6 -58 38 -80 53 -35 56 -49 25 -141 -29 -89 -35 -95 -139 -146 -76 -38
-93 -66 -107 -181 -9 -76 -16 -94 -45 -132 -18 -24 -36 -60 -40 -79 -4 -21
-17 -42 -34 -54 -40 -30 -68 -86 -80 -164 -12 -77 -42 -136 -126 -248 -62 -84
-55 -76 -120 -128 -41 -32 -53 -48 -58 -77 -10 -67 -91 -174 -176 -236 -97
-71 -125 -86 -161 -86 -39 0 -89 -31 -89 -56 0 -26 -62 -75 -137 -110 -105
-48 -185 -67 -263 -61 -35 3 -88 0 -117 -6 -39 -8 -88 -8 -190 1 -282 24 -344
33 -396 53 -28 12 -81 29 -117 39 -121 34 -190 61 -190 76 0 8 -11 19 -25 24
-14 5 -38 19 -54 31 -21 15 -58 25 -137 35 -77 10 -140 26 -214 54 -58 22
-119 40 -135 40 -17 0 -50 14 -74 30 -24 17 -51 30 -59 30 -8 0 -36 13 -61 29
-25 16 -57 32 -71 36 -14 4 -43 20 -64 36 -22 16 -47 29 -57 29 -9 0 -37 16
-62 35 -25 19 -51 35 -57 35 -6 0 -36 26 -68 58 -45 45 -69 61 -117 76 -35 11
-76 33 -98 52 -20 19 -41 34 -46 34 -5 0 -33 20 -63 43 -29 24 -69 52 -88 62
-19 10 -53 33 -74 51 -22 19 -44 34 -50 34 -15 1 -113 98 -139 140 -28 44 -88
78 -150 86 -29 4 -60 16 -77 30 -15 13 -36 24 -46 24 -11 0 -35 14 -54 30 -19
17 -55 38 -80 47 -25 9 -58 27 -75 39 -16 12 -43 24 -59 28 -16 4 -41 16 -54
27 -14 10 -33 19 -44 19 -11 0 -32 19 -50 45 -38 53 -85 75 -166 75 -31 1 -68
7 -82 15 -14 8 -38 14 -55 15 -16 0 -44 8 -60 19 -17 10 -52 21 -78 25 -26 4
-59 14 -75 22 -15 7 -45 14 -67 14 -22 1 -51 7 -65 15 -14 8 -37 14 -52 15
-14 0 -40 11 -56 25 -27 22 -39 25 -111 25 -55 0 -89 -5 -104 -15 -18 -11 -31
-12 -60 -4 -20 5 -37 15 -37 21 0 9 -26 7 -63 -8 -9 -3 -17 3 -22 18 l-8 23
-4 -22 c-5 -27 -28 -30 -41 -7 -9 16 -11 16 -32 1 -22 -15 -24 -15 -37 1 -12
16 -13 15 -19 -5 -7 -26 -15 -28 -32 -11 -9 9 -19 7 -44 -6 -27 -15 -46 -17
-98 -11 -130 13 -190 7 -234 -22 -22 -14 -56 -30 -76 -36 -56 -15 -185 -24
-240 -17 -35 4 -59 2 -77 -7 -14 -7 -40 -13 -57 -12 -61 3 -151 -14 -171 -31
-21 -19 -30 -21 -175 -45 -52 -9 -103 -20 -112 -25 -10 -6 -23 -10 -30 -10 -7
0 -26 -7 -43 -16 -20 -10 -42 -13 -67 -9 -29 5 -49 2 -78 -14 -23 -12 -46 -21
-54 -21 -7 0 -23 -12 -37 -26 -27 -29 -120 -74 -154 -74 -12 0 -42 -11 -66
-23 -35 -19 -49 -22 -67 -14 -21 10 -29 5 -71 -41 -43 -47 -52 -52 -90 -52
-52 0 -129 -38 -159 -79 -12 -17 -31 -31 -41 -31 -10 0 -35 -14 -56 -30 -21
-17 -45 -30 -53 -30 -8 0 -30 -11 -48 -25 -18 -14 -41 -25 -51 -25 -43 -1 -96
-28 -108 -56 -17 -39 -53 -70 -91 -78 -29 -7 -114 -77 -145 -121 -16 -23 -87
-72 -139 -96 -21 -9 -43 -31 -55 -52 -15 -29 -25 -37 -48 -37 -35 0 -97 -57
-97 -89 0 -14 -9 -25 -25 -31 -14 -5 -33 -26 -42 -45 -12 -26 -26 -38 -46 -42
-15 -3 -38 -19 -50 -35 -12 -16 -41 -48 -63 -71 -23 -24 -44 -53 -48 -65 -6
-17 -13 -21 -27 -17 -13 5 -19 2 -19 -10 0 -9 -17 -33 -37 -54 -57 -57 -100
-118 -159 -221 -46 -80 -60 -97 -104 -125 -20 -12 -44 -38 -54 -57 -11 -20
-33 -44 -50 -54 -36 -21 -46 -32 -46 -58 0 -10 -10 -31 -22 -46 -13 -16 -41
-58 -63 -95 -22 -36 -58 -89 -80 -118 -53 -68 -155 -238 -155 -258 0 -25 -38
-67 -78 -88 -21 -10 -53 -27 -72 -36 -19 -10 -74 -61 -124 -112 -129 -136
-150 -150 -233 -163 l-70 -11 -85 44 c-63 33 -101 46 -149 51 -109 11 -165 26
-261 67 -76 33 -109 42 -193 49 -145 13 -207 25 -349 67 -42 12 -83 13 -275 3
-407 -21 -460 -30 -608 -111 -40 -21 -78 -39 -86 -39 -45 0 -235 -75 -442
-175 -97 -47 -134 -70 -147 -91 -30 -53 -98 -111 -176 -150 -119 -60 -372
-307 -513 -498 -120 -165 -146 -202 -167 -238 -20 -35 -20 -40 -6 -81 15 -46
96 -137 121 -137 8 0 46 15 86 34 40 19 95 42 123 51 38 12 79 41 160 112 184
161 240 207 285 233 132 78 188 121 223 174 41 62 71 76 162 76 67 0 115 18
227 84 51 29 109 61 130 69 20 9 60 35 87 58 l50 42 53 -12 c71 -15 129 -8
267 36 55 18 223 19 265 3 49 -19 121 -30 288 -44 149 -13 161 -15 205 -45
106 -70 167 -87 342 -99 70 -5 113 -13 130 -24 47 -31 178 -60 390 -88 61 -8
159 2 235 24 28 7 79 17 115 20 114 10 187 55 332 203 69 71 146 152 173 180
26 29 51 53 55 53 5 0 3 -16 -2 -35 -17 -53 1 -68 76 -63 47 4 63 9 74 26 19
28 26 28 40 -3 14 -31 58 -33 119 -5 31 13 46 29 57 55 18 43 49 45 54 5 2
-14 11 -35 20 -48 16 -21 19 -21 40 -7 12 9 22 27 22 40 0 18 4 23 15 19 10
-4 15 -20 15 -45 0 -47 14 -51 29 -9 5 17 6 28 1 25 -5 -3 -12 6 -16 21 -5 21
-1 31 22 50 28 22 28 23 7 24 -21 0 -23 5 -23 61 0 55 -2 60 -16 48 -14 -11
-18 -10 -30 6 -15 20 -19 45 -6 45 4 0 27 -14 51 -30 58 -39 65 -38 41 7 -21
39 -27 113 -10 113 6 0 8 -10 5 -23 -8 -30 45 -56 95 -45 19 3 39 2 44 -3 16
-15 36 -10 36 9 0 22 22 43 70 67 19 10 29 20 23 22 -23 8 -14 22 20 31 29 8
32 12 33 48 0 24 5 39 12 38 7 -1 25 -2 41 -2 21 -2 28 -7 27 -19 -1 -13 5
-17 22 -16 20 3 22 -1 22 -46 0 -39 -4 -52 -22 -64 l-23 -16 31 0 31 -1 16
103 c10 56 17 112 17 124 0 27 14 36 51 35 29 -1 38 11 19 23 -21 13 13 36 49
34 63 -3 76 0 108 30 28 25 33 27 38 13 3 -10 17 -25 30 -35 25 -18 26 -18 53
2 38 26 57 86 37 115 -21 30 -19 63 5 71 24 7 26 37 5 55 -18 15 -10 30 17 30
17 0 18 2 8 15 -10 12 -10 15 2 15 8 0 30 16 49 36 18 19 48 41 65 49 21 9 36
25 47 53 13 33 20 39 36 35 15 -4 23 1 30 18 l9 24 10 -25 9 -25 8 24 c10 33
-9 49 -33 28 -16 -15 -52 -24 -52 -14 0 14 33 67 42 67 5 0 8 7 4 15 -3 8 -1
15 4 15 6 0 10 -4 10 -10 0 -22 30 -8 59 27 24 29 33 35 43 25 17 -17 39 -15
54 6 12 16 15 15 47 -16 33 -33 54 -31 41 2 -3 9 -1 16 5 16 7 0 14 -7 17 -15
9 -21 36 2 30 24 -3 9 1 25 9 35 14 19 15 19 35 1 16 -14 25 -16 43 -8 12 5
39 8 61 5 43 -5 56 6 56 52 0 24 -2 27 -15 16 -18 -15 -25 -9 -43 33 -11 25
-10 28 14 37 14 6 30 10 35 10 5 0 9 7 9 16 0 10 6 14 14 11 8 -3 19 5 26 18
7 13 22 26 34 29 53 14 170 175 150 208 -3 5 1 17 9 26 8 9 24 35 35 57 12 22
21 36 22 30 0 -5 4 -4 9 4 5 7 14 10 20 7 16 -10 14 -26 -4 -26 -19 0 -19 -9
0 -34 9 -12 22 -17 37 -13 13 3 31 2 41 -2 17 -6 17 -8 3 -20 -19 -16 -21 -29
-4 -28 7 0 30 -1 51 -1 33 -2 37 -5 32 -21 -5 -16 0 -19 36 -23 51 -5 80 12
60 36 -9 10 -9 16 -3 16 6 0 9 7 6 15 -5 11 3 17 26 22 21 4 38 16 49 34 9 17
25 29 36 29 24 0 47 33 39 55 -4 9 -1 15 9 15 8 0 18 7 21 15 5 13 10 14 27 5
12 -7 30 -10 40 -7 15 4 19 0 19 -24 0 -26 4 -29 33 -30 17 -1 38 0 46 1 8 1
18 -4 22 -12 6 -10 12 -9 23 7 9 11 16 16 16 11 0 -5 7 -3 15 4 9 7 18 10 21
7 12 -12 -7 -77 -31 -106 -14 -16 -25 -31 -25 -34 0 -8 58 -26 64 -20 3 4 6
24 6 45 0 64 20 128 40 128 9 0 22 11 28 25 7 15 20 25 32 25 15 0 20 7 20 29
0 16 6 31 15 35 8 3 15 17 15 31 0 15 6 25 14 25 8 0 16 6 19 13 2 6 8 9 12 5
4 -4 2 -23 -5 -42 -22 -67 -10 -73 46 -22 29 25 55 46 58 46 4 0 4 -15 1 -34
-6 -28 -4 -35 13 -40 24 -8 35 -45 19 -64 -9 -11 -8 -17 6 -27 9 -7 17 -17 17
-24 0 -13 13 -15 24 -3 4 4 21 7 37 7 26 0 29 -3 24 -22 -7 -30 0 -29 39 4
l31 26 3 -27 c2 -17 8 -25 15 -22 7 3 20 9 30 12 9 4 17 13 17 21 0 16 34 15
72 -1 25 -11 44 61 23 84 -19 21 -19 34 -1 27 8 -3 16 -1 18 5 3 8 10 8 25 -1
31 -16 70 -14 77 5 3 8 10 12 16 9 16 -10 12 11 -5 25 -21 18 -19 40 5 40 13
0 20 -7 20 -20 0 -10 9 -24 20 -30 21 -11 19 -33 -3 -24 -8 3 -12 -8 -13 -31
-1 -35 0 -36 30 -29 17 3 35 10 41 15 18 17 26 9 23 -23 -2 -24 -12 -38 -35
-53 -36 -22 -47 -43 -37 -69 6 -16 8 -16 25 0 11 9 19 22 19 29 0 19 47 58 55
45 5 -8 13 -6 26 6 16 15 19 15 19 2 0 -15 20 -28 42 -28 6 0 8 10 5 23 -8 31
6 52 29 42 34 -14 55 -15 76 -4 21 12 21 12 -7 32 -25 19 -26 21 -9 28 24 8
57 -8 50 -26 -8 -22 25 -26 78 -10 27 8 59 15 72 15 13 0 28 8 34 18 8 12 13
13 16 5 3 -7 21 -13 39 -13 22 0 38 -6 44 -17 8 -14 12 -15 25 -4 14 12 15 10
5 -18 -14 -41 -3 -53 21 -21 14 19 21 22 32 12 8 -6 24 -9 36 -5 21 5 22 2 22
-46 0 -69 28 -97 103 -103 34 -3 82 -19 138 -46 57 -28 100 -42 126 -42 54 0
101 -17 142 -52 18 -16 45 -35 60 -41 14 -6 45 -28 69 -49 23 -21 54 -43 70
-49 l27 -11 -22 -15 c-15 -10 -23 -26 -23 -45 0 -24 -6 -31 -31 -40 -28 -9
-30 -14 -25 -41 3 -16 6 -38 6 -48 0 -17 9 -19 85 -19 61 0 93 -5 110 -16 21
-14 33 -14 100 -3 69 12 80 11 107 -4 16 -9 49 -17 72 -17 34 0 48 -6 71 -30
16 -17 44 -33 64 -36 20 -4 54 -22 75 -40 27 -23 50 -34 71 -34 20 0 39 -8 51
-21 21 -24 96 -59 126 -59 17 0 64 -28 123 -75 19 -15 19 -17 2 -29 -16 -13
-16 -15 5 -41 19 -24 26 -27 65 -21 33 4 45 2 49 -8 4 -12 12 -12 37 -4 18 6
35 16 39 21 4 7 11 7 20 1 7 -6 42 -19 77 -30 40 -12 71 -29 86 -46 13 -15 48
-37 79 -48 31 -12 58 -26 61 -31 4 -5 61 -9 128 -9 101 0 127 -3 152 -19 17
-10 44 -20 60 -23 17 -3 70 -20 119 -38 49 -18 115 -36 145 -40 31 -5 130 -20
221 -34 224 -35 668 -48 743 -22 26 9 71 16 100 16 84 1 287 46 362 80 22 10
60 24 84 31 25 7 60 24 78 36 29 20 119 53 223 82 16 5 34 24 50 56 14 27 34
54 45 60 28 13 141 111 179 154 17 19 57 63 88 97 31 34 64 78 72 98 18 43 89
121 139 153 20 13 37 29 37 37 0 7 29 43 65 79 63 64 65 67 65 118 0 42 5 58
24 78 30 31 86 160 86 196 0 35 47 125 65 125 11 0 15 12 15 46 0 33 7 54 25
78 32 42 55 98 55 134 0 16 13 45 30 68 16 21 32 55 36 74 4 19 15 49 25 65
10 17 22 48 28 70 30 128 63 209 102 258 l41 52 -3 142 c-4 134 -3 143 19 172
18 25 22 43 22 103 0 51 5 80 16 97 21 29 13 73 -21 117 -37 49 -143 79 -240
69 -93 -10 -151 -10 -205 -2 -38 7 -54 3 -106 -22z m-6454 -1411 c0 -5 -4 -10
-9 -10 -6 0 -13 5 -16 10 -3 6 1 10 9 10 9 0 16 -4 16 -10z m-139 -13 c-1 -12
-15 -9 -19 4 -3 6 1 10 8 8 6 -3 11 -8 11 -12z m-33 -39 c20 -20 14 -40 -10
-36 -15 2 -24 11 -26 26 -4 24 16 30 36 10z m362 -45 c0 -13 -3 -13 -15 -3 -8
7 -12 16 -9 21 8 13 24 1 24 -18z m-925 -21 c-3 -3 -11 0 -18 7 -9 10 -8 11 6
5 10 -3 15 -9 12 -12z m-421 -18 c26 -10 18 -24 -14 -24 -29 0 -38 9 -23 23 8
9 17 9 37 1z m136 -234 c0 -5 -4 -10 -10 -10 -5 0 -10 5 -10 10 0 6 5 10 10
10 6 0 10 -4 10 -10z m-840 -114 c0 -2 -8 -10 -17 -17 -16 -13 -17 -12 -4 4
13 16 21 21 21 13z m250 -55 c16 -30 12 -36 -10 -16 -21 19 -26 35 -10 35 5 0
14 -9 20 -19z m-330 -25 c0 -3 -4 -8 -10 -11 -5 -3 -10 -1 -10 4 0 6 5 11 10
11 6 0 10 -2 10 -4z m420 -17 c0 -11 -4 -17 -10 -14 -5 3 -10 13 -10 21 0 8 5
14 10 14 6 0 10 -9 10 -21z m-150 -9 c0 -15 -7 -20 -29 -20 -17 0 -33 5 -36
10 -3 6 5 10 19 10 14 0 28 5 31 10 10 16 15 12 15 -10z m85 -30 c-3 -5 -11
-10 -16 -10 -6 0 -7 5 -4 10 3 6 11 10 16 10 6 0 7 -4 4 -10z m3410 -30 c3 -5
1 -10 -4 -10 -6 0 -11 5 -11 10 0 6 2 10 4 10 3 0 8 -4 11 -10z m-3479 -14
c18 -14 18 -15 -9 -21 -33 -9 -40 -4 -31 19 8 20 15 20 40 2z m-471 -155 c3
-5 1 -12 -5 -16 -5 -3 -10 1 -10 9 0 18 6 21 15 7z m-100 -301 c3 -5 2 -10 -4
-10 -5 0 -13 5 -16 10 -3 6 -2 10 4 10 5 0 13 -4 16 -10z m-185 -25 c0 -8 5
-15 12 -15 6 0 8 -3 5 -6 -8 -8 -37 14 -37 27 0 5 5 9 10 9 6 0 10 -7 10 -15z
m-50 -96 c0 -10 -5 -19 -10 -19 -12 0 -30 43 -30 68 1 25 40 -24 40 -49z m-80
-19 c0 -11 -4 -20 -10 -20 -5 0 -10 9 -10 20 0 11 5 20 10 20 6 0 10 -9 10
-20z m127 -22 c-3 -8 -6 -5 -6 6 -1 11 2 17 5 13 3 -3 4 -12 1 -19z m-333 -19
c-7 -11 -44 -12 -44 -1 0 15 11 20 30 15 11 -3 17 -9 14 -14z m-86 -61 c-2
-19 2 -24 30 -26 35 -4 38 -9 19 -36 -9 -12 -23 -17 -47 -14 -31 3 -35 6 -38
36 -3 33 11 62 30 62 5 0 8 -10 6 -22z m82 -239 c0 -6 -4 -7 -10 -4 -5 3 -10
11 -10 16 0 6 5 7 10 4 6 -3 10 -11 10 -16z m-110 -20 c0 -11 -4 -17 -10 -14
-5 3 -10 15 -10 26 0 11 5 17 10 14 6 -3 10 -15 10 -26z m-326 -47 c-25 -51
-44 -61 -44 -21 0 17 59 84 66 76 2 -2 -8 -26 -22 -55z m-51 -59 c6 -33 -2
-51 -14 -32 -11 18 -11 59 0 59 5 0 11 -12 14 -27z m-97 -108 c20 -31 15 -51
-8 -33 -20 16 -34 58 -19 58 6 0 18 -11 27 -25z m-176 -155 c0 -5 -4 -10 -10
-10 -5 0 -10 5 -10 10 0 6 5 10 10 10 6 0 10 -4 10 -10z m-187 -42 c-4 -7 -8
-17 -8 -23 0 -5 -10 -11 -23 -13 l-23 -4 22 26 c23 26 47 36 32 14z"/>
</g>
</svg>
