<?xml version="1.0" standalone="no"?>
<!DOCTYPE svg PUBLIC "-//W3C//DTD SVG 20010904//EN"
 "http://www.w3.org/TR/2001/REC-SVG-20010904/DTD/svg10.dtd">
<svg version="1.0" xmlns="http://www.w3.org/2000/svg"
 width="1536.000000pt" height="1002.000000pt" viewBox="0 0 1536.000000 1002.000000"
 preserveAspectRatio="xMidYMid meet">
<metadata>
Created by potrace 1.16, written by Peter Selinger 2001-2019
</metadata>
<g transform="translate(0.000000,1002.000000) scale(0.100000,-0.100000)"
fill="#000000" stroke="none">
<path d="M5150 10000 c-36 -10 -90 -26 -120 -34 -42 -12 -97 -16 -225 -15
-216 1 -252 -7 -306 -71 -60 -72 -81 -77 -206 -56 -165 28 -257 6 -391 -93
-93 -70 -113 -78 -255 -92 -140 -13 -158 -21 -174 -79 -15 -52 -30 -66 -83
-75 -34 -6 -39 -10 -45 -41 -7 -40 -34 -55 -128 -73 -80 -14 -152 -49 -224
-107 -59 -48 -105 -73 -263 -147 -80 -38 -94 -54 -105 -122 -8 -48 -57 -97
-188 -187 -49 -34 -100 -77 -115 -96 -24 -32 -27 -44 -27 -120 -1 -108 -7
-114 -163 -152 -33 -9 -50 -21 -77 -58 -55 -74 -93 -160 -101 -230 l-7 -62
-69 -37 c-74 -38 -105 -72 -137 -144 -20 -46 -53 -81 -83 -92 -14 -5 -18 -18
-18 -53 0 -67 -25 -110 -94 -163 -34 -25 -169 -152 -301 -281 -200 -197 -252
-242 -310 -272 -84 -44 -104 -64 -142 -143 -31 -64 -37 -67 -105 -50 -24 6
-29 3 -46 -32 -11 -21 -23 -56 -27 -76 -8 -42 -28 -57 -76 -57 l-32 0 7 -60
c9 -77 -2 -97 -60 -111 -25 -7 -48 -18 -51 -25 -2 -7 2 -59 11 -115 8 -57 13
-106 10 -109 -3 -3 -19 -5 -36 -5 -37 0 -42 -8 -62 -115 -13 -70 -14 -95 -4
-141 10 -50 10 -60 -6 -84 -9 -14 -37 -35 -61 -45 -82 -35 -89 -106 -17 -182
l25 -28 -51 -53 c-54 -58 -77 -115 -66 -164 9 -38 57 -147 66 -151 4 -2 8 -7
8 -10 0 -9 -92 -113 -147 -168 -24 -23 -43 -46 -43 -51 0 -6 25 -27 55 -47 31
-20 59 -44 62 -52 3 -8 -14 -44 -40 -82 -24 -38 -48 -83 -52 -100 -6 -29 -2
-37 38 -77 62 -60 66 -79 29 -119 -16 -17 -40 -51 -52 -76 -13 -25 -33 -59
-46 -76 -13 -17 -24 -36 -24 -42 0 -6 28 -24 63 -41 34 -16 81 -47 105 -69 51
-47 54 -78 15 -134 -28 -41 -42 -122 -29 -172 3 -14 26 -48 51 -76 24 -27 42
-56 39 -62 -3 -7 -24 -27 -47 -43 -35 -26 -43 -37 -45 -69 -7 -85 40 -136 125
-136 l55 0 -9 -42 c-12 -61 -7 -186 9 -232 10 -32 24 -46 70 -73 65 -38 98
-75 98 -110 0 -14 -14 -56 -30 -94 -33 -74 -33 -88 2 -166 20 -46 23 -48 63
-33 64 24 97 -38 93 -174 -3 -88 -1 -96 21 -120 13 -14 45 -32 71 -41 59 -20
89 -51 97 -101 9 -61 29 -91 80 -119 72 -38 98 -83 98 -166 0 -37 3 -70 6 -73
3 -4 39 -16 79 -27 135 -37 204 -87 239 -171 36 -88 43 -96 78 -113 30 -14 43
-15 102 -4 88 15 106 6 120 -61 6 -28 11 -59 11 -68 0 -38 22 -93 43 -107 13
-8 58 -23 101 -34 71 -18 83 -25 140 -80 70 -66 95 -76 162 -66 63 9 94 -12
94 -62 0 -33 8 -44 65 -98 43 -40 71 -75 80 -100 9 -28 20 -42 37 -45 37 -9
125 8 179 35 26 14 55 25 63 25 8 0 21 -20 30 -46 34 -101 96 -146 226 -164
129 -17 158 -29 217 -86 37 -36 65 -55 90 -60 58 -11 146 2 201 30 28 14 60
26 70 26 25 0 54 -33 86 -98 38 -75 49 -76 110 -8 68 76 90 76 160 1 l51 -54
115 1 115 1 47 44 c26 24 54 43 63 43 25 0 67 -25 100 -60 60 -64 122 -76 217
-41 29 11 73 25 98 31 25 6 64 23 88 36 l43 25 60 -45 c62 -47 111 -63 150
-51 13 4 47 30 75 57 32 30 60 48 71 46 23 -4 43 -44 43 -85 0 -43 22 -54 113
-56 62 -1 79 3 126 28 l53 28 69 -18 c85 -22 110 -16 171 41 76 71 98 77 298
81 96 2 187 9 203 15 20 8 32 23 45 61 28 81 101 109 189 72 56 -24 104 -19
184 20 83 40 105 42 170 18 46 -16 48 -16 95 8 28 14 55 36 64 53 28 53 57 66
166 75 121 11 153 25 200 91 44 62 74 71 203 63 89 -5 98 -4 125 17 15 13 36
43 47 67 18 43 20 44 54 37 43 -8 62 6 71 52 3 19 7 34 9 34 1 0 22 -7 45 -15
85 -30 182 -12 215 39 10 14 25 56 34 93 13 57 21 71 50 90 48 33 67 29 123
-23 42 -39 53 -45 85 -42 51 4 73 38 83 128 6 57 13 78 33 97 32 33 96 40 167
19 63 -19 122 -21 153 -5 12 6 50 40 84 75 85 89 149 118 271 122 l93 4 -7 93
c-6 90 -6 93 17 108 13 8 60 17 104 21 104 8 160 36 199 99 15 25 31 66 33 91
5 41 9 46 38 56 43 14 81 53 111 111 12 25 35 61 50 79 25 29 31 32 70 26 56
-7 59 2 56 169 -3 157 -11 203 -62 374 -49 163 -66 288 -45 337 16 39 34 42
104 17 66 -23 108 -12 188 49 70 54 129 81 203 93 64 11 118 41 141 79 33 56
118 76 154 36 15 -17 16 -23 5 -50 -8 -18 -9 -35 -4 -40 5 -4 58 -18 117 -30
104 -21 111 -22 175 -6 37 9 75 16 85 16 33 0 76 -30 106 -74 39 -56 80 -81
159 -97 81 -17 146 -4 227 46 48 29 67 35 94 31 60 -9 86 -50 61 -96 -16 -30
-47 -42 -129 -51 -99 -11 -176 -41 -237 -91 -43 -36 -53 -40 -90 -35 -40 4
-42 3 -104 -66 -66 -72 -139 -117 -192 -117 -19 0 -33 -10 -49 -33 -12 -17
-50 -61 -84 -97 -98 -102 -132 -153 -145 -217 -31 -148 -54 -214 -104 -297
-27 -45 -31 -61 -37 -170 -9 -152 -28 -245 -85 -415 -66 -200 -140 -345 -216
-426 -105 -113 -195 -165 -405 -238 -162 -57 -199 -75 -288 -142 -40 -30 -91
-59 -120 -67 -45 -13 -51 -19 -63 -55 -16 -49 -58 -91 -137 -135 -48 -27 -66
-44 -90 -88 -44 -79 -104 -117 -395 -253 -52 -24 -116 -63 -141 -85 -53 -47
-85 -62 -134 -62 -48 0 -63 -8 -80 -44 -19 -40 -54 -61 -130 -76 -84 -17 -120
-34 -173 -80 -25 -23 -76 -57 -113 -76 -66 -35 -129 -87 -129 -107 0 -6 17 -7
48 -2 45 8 107 10 173 4 26 -2 38 5 73 44 36 41 67 59 271 154 196 91 237 106
285 108 30 1 60 2 67 3 7 1 31 27 53 57 51 69 84 86 188 96 45 5 95 15 110 23
15 8 60 50 99 94 50 55 81 81 102 85 23 5 32 13 37 34 12 55 11 55 57 48 52
-8 77 10 77 54 0 16 6 33 13 39 13 11 244 110 331 142 85 31 171 50 228 50 47
0 64 6 117 40 92 60 137 80 205 95 84 17 105 30 123 73 22 54 41 72 85 79 33
5 42 12 60 47 12 22 50 88 86 146 107 173 152 284 152 378 0 38 6 50 50 96 76
80 81 100 74 269 l-7 143 61 67 c34 39 63 80 66 97 3 17 8 43 12 59 4 22 12
30 36 35 38 7 92 63 139 142 32 54 44 64 117 102 131 69 206 84 417 86 175 1
182 0 260 -28 77 -28 120 -47 253 -117 l63 -32 237 -8 c247 -8 372 -25 449
-60 23 -10 46 -19 50 -19 4 0 35 14 68 32 68 36 106 39 281 24 98 -8 103 -8
160 19 89 41 109 45 167 33 49 -10 55 -9 114 21 36 17 90 35 125 40 70 9 80
19 103 97 24 84 47 104 133 114 112 14 132 28 184 123 31 58 58 92 89 115 24
18 49 37 56 42 7 6 17 29 24 53 14 55 23 65 73 78 76 20 91 51 60 125 -21 51
-14 88 35 163 52 81 68 150 52 227 -6 32 -11 60 -11 64 0 3 17 25 39 48 49 55
61 97 70 246 7 108 11 127 38 177 22 42 32 76 37 130 6 62 16 94 64 192 l57
119 38 -6 39 -7 -7 33 c-8 37 -8 68 -2 211 l5 97 40 44 c23 25 49 62 58 83 19
45 21 140 4 202 -15 56 -7 86 37 134 49 55 63 95 63 184 0 43 7 103 15 133 8
30 15 67 15 82 0 33 -30 52 -68 44 -49 -11 -56 5 -28 59 15 26 26 57 26 67 0
11 -18 64 -39 117 -52 128 -61 165 -70 285 -11 127 -31 171 -104 225 -29 21
-61 51 -70 65 -10 14 -36 35 -58 47 -65 33 -124 100 -173 196 -45 90 -93 145
-189 217 -56 42 -101 47 -140 16 -41 -33 -64 -25 -57 19 3 25 -32 165 -48 194
-22 37 -81 64 -172 78 -102 16 -188 7 -254 -25 -64 -31 -77 -32 -101 -6 -12
14 -15 27 -10 47 26 106 15 133 -63 153 -26 7 -87 25 -137 41 -168 53 -199 59
-263 47 -86 -16 -108 -7 -136 55 -13 28 -47 76 -75 106 l-50 54 -48 -8 c-60
-10 -96 -10 -153 -1 -41 7 -55 4 -124 -29 -42 -20 -84 -34 -92 -31 -20 8 -17
30 6 51 26 24 22 59 -7 63 -38 6 -44 24 -35 102 10 81 2 152 -24 205 -33 70
-235 233 -317 257 -23 6 -61 29 -84 49 -50 45 -109 64 -251 79 -56 6 -121 18
-143 26 -58 20 -129 18 -189 -6 -83 -33 -105 -27 -234 53 -25 16 -69 35 -98
42 -63 17 -89 41 -97 91 -8 48 -39 71 -116 85 -74 13 -106 29 -172 85 -28 24
-56 44 -62 44 -6 0 -16 -11 -22 -24 -10 -21 -19 -24 -79 -28 -49 -2 -74 -9
-89 -22 -45 -40 -120 -17 -144 44 -14 38 -16 38 -111 60 -116 27 -205 24 -284
-10 -39 -17 -54 -29 -59 -49 -9 -39 -22 -51 -57 -51 -42 0 -56 11 -80 62 -30
61 -68 78 -178 78 -87 0 -168 -12 -221 -32 -31 -12 -47 -42 -47 -88 0 -29 -15
-40 -55 -40 -16 0 -38 17 -70 55 -36 42 -54 55 -75 55 -15 0 -76 -22 -136 -50
-177 -81 -239 -85 -328 -25 -52 35 -83 32 -148 -14 -41 -30 -58 -37 -67 -28
-6 6 -11 14 -11 19 0 4 -9 31 -20 61 -23 61 -46 77 -116 77 -40 0 -50 6 -103
54 -100 92 -151 118 -270 137 -37 6 -95 25 -132 44 -36 18 -86 36 -110 40 -41
6 -206 -9 -217 -20 -3 -3 2 -13 12 -24 16 -17 14 -18 -39 -24 -62 -6 -186 -62
-332 -149 -164 -98 -225 -101 -308 -14 -39 41 -59 54 -90 59 -53 9 -87 36
-103 83 -7 21 -16 42 -20 46 -4 4 -43 10 -87 13 -44 3 -107 10 -140 15 -33 6
-99 10 -146 10 -95 0 -108 7 -159 83 -14 21 -44 47 -68 58 -41 20 -51 21 -320
14 l-277 -7 -51 31 c-98 61 -214 76 -334 41z m8503 -3214 c18 -7 43 -26 57
-41 14 -14 62 -49 107 -76 104 -63 147 -110 140 -153 -3 -17 -9 -50 -12 -73
-7 -40 -6 -42 21 -48 77 -16 105 -28 128 -56 31 -37 32 -53 6 -112 -22 -49
-21 -58 17 -130 30 -58 43 -171 32 -277 -6 -58 -17 -92 -49 -152 -45 -87 -51
-135 -23 -192 15 -33 15 -51 -14 -347 l-31 -311 -55 -52 c-64 -62 -75 -94 -52
-157 9 -24 20 -55 24 -69 9 -27 -34 -253 -70 -375 -52 -174 -168 -365 -221
-365 -32 0 -78 -30 -89 -57 -5 -14 -7 -46 -4 -72 9 -69 -15 -100 -117 -150
-88 -44 -126 -54 -363 -98 -127 -23 -175 -27 -315 -27 -165 1 -244 11 -375 49
l-59 18 29 23 c24 19 42 24 89 24 l59 0 89 88 c50 48 100 107 112 131 25 53
30 56 131 76 75 16 83 20 129 69 27 28 75 86 107 128 55 74 70 101 138 252 17
38 57 103 89 144 70 92 74 126 24 198 l-33 47 34 36 c19 20 51 62 70 93 20 31
47 64 61 73 14 9 35 37 47 61 26 55 21 99 -17 157 l-26 40 21 37 c13 23 23 65
27 111 5 49 15 91 32 124 33 66 33 121 -2 217 -36 97 -33 153 14 258 57 129
54 198 -14 306 -59 92 -63 118 -31 177 29 56 30 70 11 125 -8 23 -20 85 -26
139 -6 60 -18 113 -31 137 -11 21 -17 42 -12 47 20 19 155 23 196 5z m-1451
-796 c24 -50 44 -158 69 -375 27 -237 27 -236 1 -273 -27 -36 -28 -85 -6 -179
19 -79 15 -179 -11 -293 -15 -62 -24 -82 -56 -114 -24 -23 -39 -48 -39 -63 0
-38 -26 -78 -77 -119 -27 -21 -69 -57 -94 -80 -143 -130 -315 -154 -564 -80
-66 20 -132 36 -147 36 -34 0 -61 35 -47 61 5 10 34 33 64 51 148 88 142 83
148 126 3 27 22 66 56 113 35 50 52 85 57 118 9 66 15 74 139 201 111 115 155
178 170 250 11 52 36 96 105 185 88 113 91 122 84 262 l-6 118 31 48 c29 45
34 48 69 45 31 -3 40 -8 54 -38z m-1352 -370 c47 -24 52 -53 17 -97 -29 -35
-43 -59 -111 -203 -33 -71 -71 -135 -99 -165 -24 -28 -61 -83 -82 -124 -65
-131 -161 -212 -291 -246 -90 -24 -345 -20 -396 7 -25 12 -22 39 11 113 26 58
33 65 69 74 38 11 39 12 39 58 0 27 4 69 8 95 12 74 -2 150 -37 203 -26 40
-29 48 -17 60 20 20 396 112 509 125 149 17 225 44 274 99 24 26 56 27 106 1z"/>
</g>
</svg>
