<?xml version="1.0" standalone="no"?>
<!DOCTYPE svg PUBLIC "-//W3C//DTD SVG 20010904//EN"
 "http://www.w3.org/TR/2001/REC-SVG-20010904/DTD/svg10.dtd">
<svg version="1.0" xmlns="http://www.w3.org/2000/svg"
 width="1522.000000pt" height="1536.000000pt" viewBox="0 0 1522.000000 1536.000000"
 preserveAspectRatio="xMidYMid meet">
<metadata>
Created by potrace 1.16, written by Peter Selinger 2001-2019
</metadata>
<g transform="translate(0.000000,1536.000000) scale(0.100000,-0.100000)"
fill="#000000" stroke="none">
<path d="M9293 13105 c-77 -23 -207 -94 -258 -139 -32 -27 -96 -110 -169 -219
-77 -115 -135 -190 -168 -218 -73 -61 -88 -91 -88 -172 0 -80 -30 -232 -73
-372 -27 -86 -31 -116 -32 -215 -1 -112 -2 -118 -43 -212 -47 -110 -49 -133
-27 -278 8 -52 15 -162 15 -245 0 -132 -2 -154 -20 -182 -23 -38 -36 -42 -45
-13 -8 25 -151 170 -220 222 -133 103 -223 69 -312 -119 -24 -51 -48 -95 -53
-98 -6 -4 -41 -9 -79 -12 l-69 -6 -13 74 c-12 69 -16 77 -63 122 -54 51 -135
97 -174 97 -33 0 -84 -24 -109 -51 -24 -27 -71 -118 -103 -199 -30 -76 -45
-90 -95 -90 -42 0 -73 19 -61 38 6 11 -28 113 -107 322 -31 80 -69 191 -85
247 -37 126 -56 158 -124 203 -48 32 -54 40 -64 88 -13 58 -80 175 -191 334
-83 120 -324 417 -386 477 l-46 44 -408 3 c-224 2 -505 6 -624 9 -142 4 -225
2 -244 -5 -15 -6 -49 -30 -75 -53 -26 -24 -67 -49 -91 -56 -101 -30 -135 -46
-173 -81 -51 -46 -90 -67 -155 -81 -43 -9 -65 -25 -178 -127 -70 -64 -148
-126 -172 -137 -38 -17 -55 -36 -129 -150 -93 -140 -121 -204 -122 -275 0
-125 29 -122 169 13 150 145 222 205 331 277 52 35 131 91 176 126 44 34 123
88 175 119 52 31 106 67 120 81 50 48 85 49 206 8 133 -44 210 -44 290 0 46
26 53 27 138 21 78 -6 104 -3 194 20 70 18 135 27 195 28 83 2 95 -1 137 -25
26 -15 100 -85 165 -155 65 -71 196 -207 290 -303 94 -96 177 -185 183 -197
14 -28 14 -65 0 -97 -24 -51 42 -215 233 -586 l110 -214 -23 -19 c-57 -44 -83
-75 -102 -117 -23 -54 -54 -90 -78 -90 -44 0 -102 -77 -138 -184 l-17 -49 -46
54 c-73 87 -118 149 -144 201 -14 27 -64 90 -113 141 -62 66 -100 116 -130
175 -46 88 -140 198 -212 248 -39 27 -49 29 -133 29 l-91 0 -246 112 c-174 79
-306 131 -454 178 -208 67 -209 68 -293 61 -46 -3 -118 -17 -158 -31 -42 -14
-97 -25 -127 -25 -30 0 -89 -11 -133 -24 -43 -13 -107 -26 -141 -30 -88 -10
-457 -78 -648 -120 -88 -19 -184 -38 -214 -42 -44 -6 -60 -14 -91 -45 -21 -22
-45 -39 -53 -39 -20 0 -374 -173 -507 -248 -129 -72 -386 -233 -497 -310 -156
-109 -211 -216 -144 -282 l28 -29 62 15 c34 7 81 24 104 35 56 29 342 206 547
339 183 119 464 270 501 270 13 0 31 -6 41 -13 27 -21 185 -2 353 42 83 21
242 64 355 94 317 86 629 159 643 150 6 -4 20 -17 30 -29 21 -27 100 -58 188
-74 35 -7 107 -26 159 -42 52 -17 133 -41 180 -53 47 -13 132 -39 190 -59 58
-19 132 -42 165 -51 84 -23 135 -75 135 -137 0 -32 8 -57 30 -92 43 -68 128
-154 173 -178 22 -11 76 -54 120 -97 45 -43 98 -87 118 -99 62 -38 73 -55 58
-96 -12 -33 -11 -38 9 -63 43 -55 182 -251 182 -257 0 -4 -54 -80 -120 -170
-91 -125 -126 -181 -144 -233 -40 -115 -98 -250 -120 -278 l-21 -26 -75 12
c-41 6 -116 24 -166 40 -61 19 -128 32 -205 38 -63 5 -166 21 -229 34 -63 14
-151 31 -195 37 -44 7 -161 31 -260 53 l-180 40 -249 -2 c-137 -1 -253 -4
-258 -7 -6 -4 -184 -10 -397 -15 -214 -5 -418 -13 -455 -18 -62 -9 -80 -18
-195 -94 -106 -71 -144 -90 -237 -121 -131 -42 -427 -165 -569 -235 -55 -28
-130 -61 -166 -75 -36 -13 -78 -36 -93 -51 -26 -26 -64 -45 -159 -79 -39 -15
-65 -38 -155 -139 -151 -171 -560 -590 -729 -746 -77 -73 -144 -139 -147 -147
-12 -32 -5 -90 14 -121 32 -54 66 -46 179 39 129 97 566 534 664 663 76 102
144 167 194 186 19 7 46 7 94 -2 61 -11 70 -10 97 7 17 10 70 44 119 75 115
73 176 105 363 189 221 101 413 203 592 316 46 29 54 29 109 4 53 -24 102 -25
194 -5 179 39 219 45 345 50 247 8 434 23 490 39 30 9 65 18 76 22 16 4 38 -7
84 -45 71 -56 73 -57 272 -66 70 -3 178 -14 240 -25 129 -23 181 -25 243 -9
40 10 49 8 102 -16 72 -35 304 -94 398 -102 85 -7 116 -22 145 -68 21 -34 21
-36 6 -140 -9 -58 -16 -170 -16 -251 0 -130 -2 -150 -24 -204 -14 -33 -30 -86
-36 -117 -15 -73 -31 -104 -70 -137 -22 -18 -43 -26 -70 -26 -21 0 -72 -13
-112 -28 -67 -26 -84 -39 -198 -154 -98 -97 -144 -135 -210 -173 -47 -26 -134
-80 -194 -118 -59 -39 -130 -80 -156 -92 -29 -12 -101 -66 -179 -134 -120
-105 -132 -119 -146 -166 -15 -53 -33 -75 -295 -365 -47 -52 -131 -149 -187
-215 -55 -66 -117 -136 -137 -155 -39 -37 -85 -143 -106 -242 -27 -132 -220
-508 -311 -605 -27 -28 -49 -57 -49 -64 0 -6 -27 -40 -60 -76 -89 -95 -94
-106 -94 -187 0 -94 35 -200 80 -241 l32 -30 -5 -91 c-3 -51 0 -143 7 -205 9
-73 14 -256 14 -509 1 -452 -1 -438 84 -460 146 -38 142 -36 312 -172 167
-133 523 -482 613 -598 51 -66 156 -140 199 -140 21 0 40 10 64 34 56 56 50
77 -61 205 -100 116 -517 508 -579 545 -20 11 -97 66 -172 121 -119 87 -134
100 -116 108 11 5 26 23 33 39 10 25 8 39 -16 106 -44 123 -54 189 -69 425
-11 187 -11 231 0 286 21 101 42 159 90 248 46 84 51 114 33 173 -30 100 -3
240 68 356 19 33 45 74 56 93 11 18 28 61 36 94 16 60 17 62 65 78 87 32 109
67 125 209 18 150 34 191 139 355 108 170 310 475 323 489 5 6 39 13 76 17
l68 7 84 93 c196 218 300 311 486 435 l178 118 83 2 84 1 0 -31 c0 -83 136
-265 239 -321 26 -14 66 -48 89 -75 l43 -50 6 -217 c4 -139 11 -236 20 -268 8
-27 14 -67 13 -87 -1 -62 54 -205 143 -374 47 -87 95 -193 107 -234 45 -151
119 -272 257 -413 69 -71 125 -111 195 -138 67 -25 100 -69 106 -142 2 -33 -9
-122 -32 -247 -51 -279 -59 -379 -46 -575 6 -90 19 -219 29 -287 18 -115 174
-727 205 -802 28 -68 38 -154 45 -381 6 -226 7 -231 33 -276 15 -25 58 -75 95
-110 53 -50 89 -73 156 -102 48 -21 128 -58 179 -82 103 -50 132 -54 249 -30
63 13 92 13 195 2 72 -7 140 -9 168 -4 27 4 116 35 200 68 171 69 222 107 271
205 25 49 29 71 36 197 12 189 21 246 69 417 60 213 216 680 265 795 65 152
75 216 75 484 0 178 -3 236 -14 258 -17 34 -50 268 -48 338 1 31 -3 59 -12 70
-13 18 -12 22 12 38 15 10 59 33 97 52 69 34 204 126 290 198 49 42 203 222
215 252 37 95 60 167 65 205 11 79 26 111 91 192 129 159 194 322 179 449 l-6
56 62 84 c34 46 99 131 145 189 45 58 95 132 111 165 23 48 39 67 84 97 52 34
59 43 98 135 24 54 50 123 58 153 17 65 63 150 131 243 28 37 62 98 77 136 14
37 36 77 48 88 38 35 190 104 240 110 47 6 49 5 94 -43 25 -27 104 -127 176
-223 71 -96 162 -215 202 -265 39 -50 79 -102 88 -116 9 -14 28 -90 43 -170
16 -89 34 -158 47 -179 20 -34 84 -70 123 -71 29 0 49 -26 64 -83 7 -26 44
-95 82 -153 38 -59 78 -125 89 -147 30 -58 35 -141 14 -225 -20 -82 -16 -99
35 -167 54 -73 74 -117 105 -230 20 -72 25 -112 21 -145 -3 -25 -8 -97 -10
-160 -5 -154 -30 -297 -66 -381 -16 -39 -34 -88 -40 -111 -11 -39 -10 -42 20
-73 36 -38 41 -32 -90 -105 -121 -67 -325 -205 -510 -344 -184 -138 -226 -174
-382 -320 -113 -105 -128 -123 -128 -152 0 -18 3 -39 6 -48 9 -25 71 -58 108
-58 49 0 169 64 208 112 18 22 114 112 213 199 99 87 191 171 205 186 38 41
116 99 309 229 95 64 185 126 200 136 14 11 77 31 140 44 63 14 121 32 130 41
14 14 16 60 18 378 1 199 1 387 2 418 0 30 5 87 11 125 6 38 11 123 11 188
l-1 119 44 47 c74 79 112 241 73 315 -8 17 -54 69 -102 115 -159 156 -193 195
-236 270 -23 41 -65 104 -92 139 -63 84 -156 269 -172 347 -18 83 -71 189
-111 219 -17 13 -115 107 -217 208 -101 101 -253 246 -336 322 -114 104 -159
151 -178 189 -14 28 -57 93 -95 144 -90 120 -141 152 -241 152 -38 0 -77 -4
-87 -10 -10 -5 -32 -34 -49 -65 -34 -60 -84 -103 -251 -216 -87 -60 -104 -67
-161 -73 -117 -13 -122 -4 -120 214 2 214 17 342 44 377 12 14 85 68 163 119
l142 93 44 83 c39 76 46 84 78 89 19 3 106 31 194 62 87 31 161 55 165 52 20
-12 82 19 117 58 66 74 74 77 214 77 69 0 202 7 295 15 94 8 219 15 278 15 89
0 117 4 159 22 l50 21 147 -72 c80 -40 196 -103 256 -140 61 -38 153 -92 207
-121 53 -29 127 -76 164 -106 73 -58 89 -63 135 -38 17 8 39 12 51 8 32 -10
97 -74 245 -241 157 -176 444 -453 535 -514 35 -23 78 -55 96 -71 18 -15 43
-30 56 -34 30 -7 126 33 126 53 0 37 -101 150 -231 259 -76 63 -213 192 -306
287 -92 95 -205 208 -251 251 -70 68 -85 88 -98 133 -18 62 -38 80 -148 132
-98 46 -365 188 -386 206 -8 7 -112 54 -230 104 -220 94 -239 106 -285 183
-35 56 -70 62 -259 38 -146 -19 -369 -53 -721 -111 -71 -12 -167 -32 -212 -45
-87 -25 -344 -140 -443 -198 -33 -19 -116 -62 -184 -95 -104 -50 -136 -71
-184 -121 -33 -33 -66 -60 -75 -60 -21 0 -45 36 -53 81 -4 18 -16 52 -29 74
-12 22 -32 65 -44 96 -12 32 -42 80 -67 109 -24 28 -44 59 -44 69 0 20 -66
144 -127 238 -24 36 -43 70 -43 75 0 6 48 81 106 168 115 173 130 211 100 269
-16 31 -16 33 11 83 15 28 50 70 77 92 65 54 448 442 463 470 7 11 12 41 13
66 0 64 28 103 112 156 125 80 270 187 333 245 33 30 98 81 145 114 232 160
295 217 305 273 8 49 43 82 88 82 40 0 131 42 532 242 187 94 401 195 475 225
141 57 170 78 170 122 0 33 23 67 58 85 42 21 214 53 472 86 129 17 298 40
375 51 77 11 224 24 327 28 208 9 244 19 286 81 32 48 31 118 -4 151 -25 23
-30 24 -167 23 -78 -1 -185 -7 -237 -13 -53 -6 -186 -17 -297 -26 -230 -17
-351 -38 -555 -96 -79 -23 -189 -49 -246 -59 -79 -14 -130 -31 -222 -74 -66
-31 -125 -56 -131 -56 -19 0 -237 -119 -399 -218 -449 -275 -507 -308 -610
-346 -124 -45 -147 -59 -265 -161 -49 -42 -124 -100 -165 -128 -41 -27 -138
-111 -215 -187 -77 -75 -165 -156 -195 -180 -30 -24 -84 -71 -120 -105 -36
-34 -82 -74 -103 -89 -20 -16 -61 -58 -89 -95 -29 -36 -82 -98 -119 -138 -120
-130 -268 -332 -304 -417 -19 -43 -52 -98 -72 -123 -21 -24 -55 -64 -75 -89
l-37 -45 -31 43 c-17 24 -57 80 -87 125 -47 69 -73 95 -170 167 -63 47 -146
102 -185 123 -39 20 -75 47 -80 59 -7 15 -7 92 1 242 16 319 15 523 -4 558
-17 32 -12 69 15 124 10 19 27 87 39 150 26 135 86 356 143 525 l41 120 111
118 c74 79 116 132 126 160 18 49 63 77 122 77 71 0 137 21 180 56 31 26 48
34 65 29 22 -5 23 -3 23 49 0 61 -8 71 -68 80 -24 3 -60 17 -80 30 -77 47
-155 58 -239 31z"/>
</g>
</svg>
