<?xml version="1.0" standalone="no"?>
<!DOCTYPE svg PUBLIC "-//W3C//DTD SVG 20010904//EN"
 "http://www.w3.org/TR/2001/REC-SVG-20010904/DTD/svg10.dtd">
<svg version="1.0" xmlns="http://www.w3.org/2000/svg"
 width="1087.000000pt" height="1536.000000pt" viewBox="0 0 1087.000000 1536.000000"
 preserveAspectRatio="xMidYMid meet">
<metadata>
Created by potrace 1.16, written by Peter Selinger 2001-2019
</metadata>
<g transform="translate(0.000000,1536.000000) scale(0.100000,-0.100000)"
fill="#000000" stroke="none">
<path d="M7146 14239 c-161 -22 -320 -94 -561 -254 -179 -118 -166 -111 -407
-194 -239 -82 -314 -114 -406 -174 -106 -69 -171 -143 -196 -223 -10 -32 17
-55 55 -47 20 4 48 -3 90 -22 77 -34 287 -100 365 -114 32 -6 108 -17 169 -26
126 -17 193 -45 214 -89 7 -16 50 -67 93 -112 l80 -83 -28 -29 c-16 -15 -69
-50 -119 -76 -161 -86 -338 -211 -525 -368 -57 -49 -129 -105 -160 -125 -132
-87 -219 -184 -390 -433 -51 -74 -123 -173 -160 -220 -88 -111 -111 -149 -155
-256 -20 -49 -70 -154 -112 -234 -41 -79 -138 -277 -215 -440 -143 -301 -198
-402 -273 -500 -23 -30 -67 -95 -97 -145 -30 -49 -91 -146 -135 -215 -268
-420 -333 -525 -380 -615 -28 -55 -87 -169 -132 -253 -83 -158 -241 -483 -241
-496 0 -4 -40 -102 -89 -219 -156 -372 -210 -529 -250 -728 -21 -106 -37 -141
-123 -277 -65 -102 -71 -116 -99 -215 -28 -99 -67 -169 -156 -279 -55 -67
-103 -144 -158 -249 -79 -151 -130 -232 -317 -504 -105 -153 -168 -265 -168
-297 0 -21 0 -21 21 -2 12 10 82 99 156 196 73 98 159 208 191 245 32 38 89
109 127 158 76 98 198 225 215 225 27 0 -63 -181 -173 -345 -45 -67 -106 -164
-135 -215 -69 -118 -210 -314 -298 -411 -78 -86 -105 -145 -154 -335 -41 -159
-40 -214 5 -214 25 0 96 63 414 367 105 100 223 208 263 240 40 32 118 96 173
143 55 47 131 110 170 140 38 30 123 102 189 160 212 188 239 210 361 299 146
107 163 117 179 101 23 -23 12 -158 -21 -260 -17 -52 -36 -123 -43 -158 -6
-34 -30 -109 -54 -165 -61 -145 -83 -218 -100 -325 -9 -52 -29 -142 -45 -200
-17 -59 -44 -170 -60 -247 -16 -77 -50 -194 -74 -260 -25 -66 -55 -165 -67
-220 -11 -55 -38 -167 -59 -250 -22 -82 -56 -224 -76 -315 -20 -91 -57 -220
-81 -287 -25 -67 -58 -175 -74 -240 -16 -65 -38 -145 -50 -178 -11 -33 -32
-105 -46 -160 -14 -55 -50 -175 -80 -267 -102 -315 -224 -777 -224 -849 0 -34
12 -49 40 -49 5 0 32 20 60 45 28 25 55 45 60 45 16 0 11 -77 -10 -180 -11
-52 -23 -154 -26 -225 -6 -114 -5 -132 10 -144 14 -12 21 -8 59 30 24 24 49
53 55 64 9 17 14 18 31 8 11 -7 27 -10 36 -7 29 12 125 228 259 584 30 80 66
172 80 206 33 78 52 155 66 257 17 126 65 314 103 408 20 46 54 154 77 239 23
85 59 202 80 260 20 58 49 141 63 185 14 44 104 314 200 600 166 493 200 588
261 730 14 33 26 70 26 82 0 36 30 115 61 159 15 22 80 85 143 138 143 121
266 251 354 376 37 52 102 135 145 184 43 48 86 105 96 125 11 20 56 79 100
131 45 52 113 145 152 208 76 121 72 109 94 314 7 67 34 110 90 150 58 41 127
47 183 16 61 -33 376 -330 408 -384 l26 -45 -20 -47 c-26 -62 -42 -168 -42
-285 0 -88 2 -99 36 -166 43 -87 148 -197 219 -231 38 -19 72 -25 143 -28 85
-4 92 -3 92 14 0 30 -12 41 -67 62 -81 31 -141 70 -158 102 -15 28 -14 33 21
102 53 106 71 128 103 128 33 0 70 -38 134 -135 47 -72 63 -92 231 -290 l100
-117 -12 -186 c-7 -103 -12 -217 -12 -254 l0 -66 50 -45 c28 -25 65 -52 83
-59 17 -7 61 -28 97 -47 60 -31 71 -33 163 -34 110 0 132 9 102 44 -11 11 -48
36 -82 56 -69 38 -93 64 -93 103 0 14 -13 44 -29 68 l-28 43 28 52 c15 29 35
79 44 112 25 98 106 162 233 185 34 6 91 24 126 40 36 16 89 36 118 45 l54 17
54 -27 c30 -15 99 -57 154 -93 79 -53 101 -63 115 -55 44 29 -14 193 -90 255
-55 44 -101 68 -132 68 -36 0 -46 19 -61 109 -13 86 -33 118 -88 147 -39 20
-70 18 -184 -15 -56 -16 -135 -33 -175 -36 -66 -7 -79 -12 -127 -49 -117 -90
-113 -88 -167 -81 -27 3 -68 17 -91 30 -52 31 -359 377 -437 493 -32 48 -70
99 -83 113 l-25 26 46 61 c76 101 148 152 217 152 21 0 89 -54 205 -164 70
-66 98 -87 115 -84 33 4 38 79 8 120 -26 36 -23 72 7 76 29 4 83 67 83 96 0
46 -148 204 -248 266 -29 17 -52 34 -52 37 0 3 129 137 288 298 329 334 573
589 650 678 29 34 78 107 109 162 76 135 130 218 373 575 253 372 317 473 390
615 31 61 130 234 220 385 285 478 330 569 355 713 45 250 40 538 -11 732 -48
185 -54 212 -85 422 -28 188 -32 242 -38 553 -7 340 -8 346 -33 407 -30 72
-51 150 -77 294 -36 192 -77 279 -242 505 -156 215 -199 265 -276 327 -80 65
-90 70 -338 180 -207 92 -283 118 -420 142 -109 19 -394 28 -489 14z"/>
</g>
</svg>
