<?xml version="1.0" standalone="no"?>
<!DOCTYPE svg PUBLIC "-//W3C//DTD SVG 20010904//EN"
 "http://www.w3.org/TR/2001/REC-SVG-20010904/DTD/svg10.dtd">
<svg version="1.0" xmlns="http://www.w3.org/2000/svg"
 width="2673.000000pt" height="2039.000000pt" viewBox="0 0 2673.000000 2039.000000"
 preserveAspectRatio="xMidYMid meet">
<metadata>
Created by potrace 1.16, written by Peter Selinger 2001-2019
</metadata>
<g transform="translate(0.000000,2039.000000) scale(0.100000,-0.100000)"
fill="#000000" stroke="none">
<path d="M8355 20369 c-33 -4 -94 -13 -135 -18 -100 -13 -193 -32 -205 -41 -5
-4 -26 -11 -45 -15 -19 -4 -41 -11 -50 -16 -8 -5 -37 -18 -65 -29 -64 -27
-180 -87 -225 -115 -36 -24 -94 -73 -245 -207 -171 -153 -231 -162 -540 -85
-104 26 -206 52 -225 57 -34 10 -98 21 -230 40 -36 6 -94 15 -130 20 -303 47
-672 63 -825 35 -137 -25 -218 -52 -350 -119 -161 -82 -227 -127 -310 -211
-105 -104 -208 -272 -260 -420 -9 -27 -21 -59 -25 -70 -34 -87 -45 -166 -45
-335 0 -201 -4 -185 110 -430 70 -149 89 -191 130 -290 48 -113 109 -202 266
-383 36 -42 99 -124 140 -183 190 -271 387 -518 557 -698 51 -55 128 -140 170
-190 249 -297 273 -325 541 -621 207 -228 323 -345 601 -610 510 -484 938
-853 1219 -1050 306 -214 670 -485 721 -537 110 -111 186 -335 216 -633 27
-263 33 -348 34 -436 1 -190 42 -359 157 -639 44 -106 172 -355 245 -475 92
-152 253 -386 315 -460 129 -154 559 -527 768 -667 49 -33 157 -94 240 -135
212 -107 273 -149 420 -293 75 -73 196 -176 286 -243 284 -212 348 -306 309
-449 -28 -100 -225 -333 -322 -380 -101 -49 -109 -51 -318 -59 -173 -6 -410
-33 -480 -54 -42 -12 -362 -27 -755 -35 -475 -9 -486 -11 -580 -68 -60 -37
-84 -62 -112 -116 -31 -61 -28 -118 11 -177 30 -45 102 -95 159 -109 20 -6 54
-14 76 -20 23 -6 224 -10 502 -10 423 1 475 2 589 21 195 33 221 34 269 10
106 -55 92 -172 -36 -312 -62 -67 -179 -180 -228 -222 -79 -65 -201 -114 -335
-132 -84 -12 -168 -46 -285 -116 -160 -95 -206 -114 -360 -144 -251 -49 -294
-53 -665 -60 -201 -3 -396 -11 -435 -15 -38 -5 -119 -10 -180 -10 -159 -1
-245 -13 -490 -65 -38 -8 -95 -20 -125 -26 -228 -43 -327 -149 -260 -278 70
-137 343 -200 611 -140 156 35 184 38 452 38 143 1 312 6 377 12 103 10 128 9
196 -6 62 -14 84 -24 117 -54 34 -32 40 -45 45 -89 7 -77 -18 -131 -99 -217
-90 -94 -247 -199 -606 -404 -156 -89 -311 -179 -346 -200 -35 -21 -169 -91
-298 -154 -129 -64 -306 -159 -394 -213 -88 -53 -259 -145 -380 -204 -121 -59
-274 -138 -340 -175 -66 -38 -163 -88 -215 -113 -296 -137 -320 -151 -416
-247 -94 -93 -108 -112 -220 -292 -78 -125 -146 -213 -259 -334 -97 -104 -135
-170 -142 -248 -10 -105 58 -208 173 -262 41 -18 66 -22 149 -22 86 0 108 4
156 25 73 33 134 89 159 145 18 42 26 71 51 208 15 78 60 177 106 233 20 24
70 71 112 104 42 33 132 112 200 175 166 155 435 332 573 377 100 33 255 66
433 91 317 46 361 66 570 265 101 96 259 226 350 287 169 113 403 223 625 295
69 22 179 60 245 84 66 24 161 53 210 64 250 59 267 66 700 290 200 103 208
107 510 216 72 26 135 51 140 55 17 11 156 69 215 88 271 89 308 95 530 94
107 -1 227 -6 265 -12 91 -13 177 -31 190 -40 6 -4 38 -18 72 -31 86 -34 162
-88 199 -141 31 -47 46 -89 85 -243 41 -161 97 -217 285 -285 204 -74 246 -99
400 -241 136 -126 280 -241 468 -373 87 -62 184 -133 215 -159 117 -100 219
-176 288 -216 81 -47 113 -85 120 -141 8 -62 -31 -131 -157 -276 -144 -167
-1409 -1427 -1560 -1555 -63 -53 -173 -152 -244 -218 -144 -135 -186 -159
-259 -148 -25 4 -66 21 -92 37 -70 45 -330 266 -437 372 -169 168 -405 432
-508 567 -74 97 -153 180 -206 215 -136 91 -374 140 -479 100 -127 -48 -169
-155 -107 -276 43 -85 124 -135 252 -154 147 -22 241 -94 365 -281 91 -138
129 -225 163 -374 11 -47 26 -110 33 -140 7 -30 13 -102 13 -160 1 -169 -40
-231 -166 -251 -62 -10 -251 -3 -588 21 -74 6 -225 14 -335 20 -256 13 -448
27 -555 41 -101 13 -433 35 -720 49 -113 5 -259 12 -325 16 -79 4 -184 0 -305
-10 -102 -9 -241 -22 -310 -27 -220 -19 -2151 8 -2585 36 -137 9 -410 20 -605
25 -394 10 -558 24 -1350 109 -190 20 -329 31 -530 41 -113 6 -212 13 -220 16
-8 3 -71 12 -140 20 -114 12 -218 27 -415 56 -86 12 -296 4 -327 -14 -22 -12
-102 -15 -983 -32 -399 -9 -517 -15 -574 -33 -176 -55 -181 -266 -9 -366 64
-36 131 -55 248 -67 153 -17 259 -6 505 50 76 17 123 21 296 20 114 0 213 -2
221 -5 8 -3 70 -12 139 -20 68 -8 210 -25 314 -38 144 -19 259 -26 473 -31
156 -3 329 -10 385 -16 56 -5 176 -15 267 -20 91 -6 221 -17 290 -25 69 -7
188 -21 265 -29 654 -73 691 -84 799 -229 85 -115 125 -140 265 -164 94 -16
104 -16 212 1 62 10 120 22 129 27 57 30 226 101 267 110 58 15 1160 13 1343
-1 63 -6 302 -16 530 -24 498 -17 555 -26 659 -104 18 -13 57 -61 86 -106 85
-131 132 -163 278 -187 67 -11 91 -11 182 4 106 17 156 36 261 99 106 65 211
81 374 58 36 -5 101 -13 145 -19 77 -11 181 -32 255 -52 19 -5 73 -14 120 -19
293 -35 408 -70 438 -134 33 -68 -21 -124 -192 -197 -163 -70 -214 -96 -396
-204 -85 -51 -195 -114 -245 -140 -115 -60 -190 -114 -290 -206 -44 -41 -125
-106 -181 -146 -178 -128 -264 -240 -264 -346 0 -100 57 -160 173 -180 81 -13
244 11 315 47 59 30 128 102 176 183 38 64 85 112 136 138 32 16 136 40 243
55 116 17 182 41 350 126 149 77 190 83 557 93 168 4 312 11 320 16 7 4 43 14
79 22 319 68 431 77 941 77 239 0 586 -4 770 -9 326 -7 338 -7 425 14 148 37
223 77 328 179 51 48 128 115 172 149 100 76 137 110 212 198 59 68 134 132
406 345 228 180 253 191 496 226 96 13 198 31 228 40 136 40 209 103 283 248
62 120 121 184 212 229 68 34 295 115 483 174 44 13 91 29 105 35 39 16 247
22 310 8 82 -18 208 -24 249 -12 124 37 154 49 228 93 97 59 170 83 233 77 65
-7 155 -47 235 -105 96 -71 152 -87 268 -80 74 4 115 14 207 47 110 40 123 42
285 52 94 5 269 8 390 6 242 -5 237 -4 405 -85 116 -56 183 -73 287 -73 114 0
195 20 287 71 194 109 226 119 531 174 44 8 112 22 150 30 39 9 108 22 155 30
194 32 250 45 350 80 185 65 224 75 290 77 113 4 165 -38 135 -108 -26 -61
-93 -107 -315 -213 -58 -27 -122 -64 -143 -82 -136 -113 -125 -295 22 -362 38
-17 66 -21 156 -20 174 0 240 29 385 168 102 98 147 133 220 172 117 63 199
80 450 92 270 13 312 33 440 205 54 74 80 99 139 136 40 25 118 78 174 119 56
40 131 87 167 103 240 109 268 129 430 307 52 58 136 139 186 180 141 117 205
148 424 206 36 10 92 31 126 47 106 51 380 266 550 429 148 144 237 198 454
279 144 54 225 105 328 208 112 112 157 184 248 392 60 139 155 321 236 455
47 77 98 169 113 205 36 80 135 273 207 400 47 85 65 121 114 237 8 17 14 38
14 46 0 9 4 18 9 21 5 3 12 18 15 32 4 14 30 74 57 132 55 116 85 196 105 282
7 30 19 78 27 105 17 57 62 214 84 295 8 30 28 91 43 135 16 44 43 123 61 175
33 100 88 234 138 337 33 68 60 143 96 268 58 202 63 261 45 475 -16 183 0
260 89 437 93 185 105 250 85 470 -7 81 -19 170 -25 198 -22 93 -50 200 -58
220 -5 11 -19 47 -32 80 -40 103 -97 191 -194 297 -143 157 -234 227 -355 270
-69 25 -230 28 -311 5 -29 -8 -93 -23 -142 -32 -74 -15 -94 -16 -130 -6 -101
30 -144 89 -172 235 -47 246 -100 372 -190 454 -54 49 -319 203 -465 270 -221
102 -310 118 -725 132 -159 5 -310 15 -335 21 -141 36 -225 72 -339 147 -121
80 -190 161 -426 494 -44 62 -121 167 -170 233 -88 117 -173 234 -250 345 -75
107 -91 129 -194 265 -57 76 -147 183 -200 239 -112 117 -190 214 -390 486
-79 107 -162 214 -185 238 -59 62 -146 115 -282 174 -181 78 -464 253 -576
357 -91 84 -266 285 -349 402 -41 57 -99 129 -130 160 -103 103 -348 248 -496
293 -28 9 -96 21 -150 26 -54 6 -138 15 -188 21 -143 16 -880 23 -1062 10 -87
-6 -174 -16 -192 -21 -19 -5 -138 -14 -265 -20 -240 -11 -605 0 -689 20 -23 6
-163 15 -312 20 -453 15 -649 34 -800 75 -151 42 -202 57 -217 66 -10 5 -22 9
-28 9 -17 0 -191 70 -290 118 -175 83 -362 200 -770 479 -517 353 -809 544
-977 640 -64 36 -170 102 -236 147 -129 88 -208 139 -407 261 -72 44 -142 87
-155 95 -68 43 -168 102 -230 135 -38 21 -88 48 -110 60 -22 12 -83 44 -135
70 -52 27 -147 78 -210 114 -162 91 -268 143 -422 205 -138 56 -192 79 -268
114 -25 11 -73 32 -108 47 -87 36 -213 94 -447 205 -124 59 -483 205 -620 252
-213 73 -252 109 -358 330 -211 436 -438 708 -768 921 -122 78 -298 167 -333
167 -8 0 -17 4 -20 9 -3 5 -23 12 -43 16 -21 4 -42 10 -48 15 -18 13 -191 40
-251 39 -33 -1 -86 -5 -119 -10z m6376 -13308 c36 -15 116 -58 178 -94 61 -37
113 -67 116 -67 2 0 77 -42 168 -94 90 -52 220 -122 288 -156 274 -138 314
-172 314 -274 -1 -55 -5 -67 -42 -121 -22 -33 -106 -127 -185 -210 -79 -82
-191 -209 -250 -281 -105 -129 -413 -436 -479 -476 -51 -32 -121 -29 -187 7
-64 35 -202 167 -302 290 -98 120 -255 275 -324 319 -31 20 -104 60 -164 89
-142 71 -206 115 -346 241 -64 58 -151 132 -194 165 -124 95 -242 228 -281
316 -51 115 -63 214 -32 280 35 77 75 89 221 64 58 -10 141 -23 185 -29 44 -6
93 -15 110 -21 70 -23 272 -33 438 -21 89 7 176 16 192 22 39 13 311 78 350
84 62 8 161 -6 226 -33z m2989 -1732 c25 -5 92 -27 150 -49 134 -50 188 -63
385 -94 88 -14 180 -30 205 -36 119 -27 258 -33 840 -39 l615 -6 54 -30 c109
-60 144 -168 145 -440 1 -167 1 -171 -26 -216 -68 -116 -158 -144 -503 -158
-166 -7 -208 -12 -246 -29 -75 -33 -126 -102 -128 -172 -2 -62 21 -104 105
-191 77 -80 84 -91 84 -127 0 -94 -92 -146 -340 -192 -63 -11 -149 -27 -190
-35 -41 -8 -111 -19 -155 -26 -151 -22 -240 -37 -305 -54 -184 -46 -238 -53
-470 -60 -286 -9 -353 -22 -530 -104 -173 -81 -218 -88 -498 -72 -255 15 -415
26 -607 42 -162 13 -416 7 -460 -11 -16 -7 -73 -13 -127 -14 -89 -1 -98 1
-122 23 -30 28 -34 67 -12 109 16 30 160 173 376 372 208 193 477 455 689 675
102 104 248 253 326 330 129 128 196 202 413 459 120 143 197 176 332 145z"/>
</g>
</svg>
