<?xml version="1.0" standalone="no"?>
<!DOCTYPE svg PUBLIC "-//W3C//DTD SVG 20010904//EN"
 "http://www.w3.org/TR/2001/REC-SVG-20010904/DTD/svg10.dtd">
<svg version="1.0" xmlns="http://www.w3.org/2000/svg"
 width="948.000000pt" height="1536.000000pt" viewBox="0 0 948.000000 1536.000000"
 preserveAspectRatio="xMidYMid meet">
<metadata>
Created by potrace 1.16, written by Peter Selinger 2001-2019
</metadata>
<g transform="translate(0.000000,1536.000000) scale(0.100000,-0.100000)"
fill="#000000" stroke="none">
<path d="M4255 15283 l-170 -77 -101 -100 c-55 -56 -152 -164 -215 -240 -63
-77 -164 -199 -224 -270 -204 -241 -208 -247 -321 -501 -119 -268 -183 -430
-220 -565 -20 -69 -42 -135 -50 -148 -8 -12 -53 -52 -99 -89 -103 -80 -249
-254 -266 -316 -19 -71 5 -148 124 -399 l56 -118 -103 -199 c-57 -109 -125
-232 -151 -272 -66 -102 -164 -201 -265 -266 -203 -132 -254 -232 -254 -493 1
-148 20 -225 85 -335 81 -138 89 -159 89 -232 -1 -167 -54 -295 -185 -448
-108 -126 -147 -201 -148 -287 -2 -58 3 -73 56 -178 136 -275 228 -444 267
-498 60 -80 204 -220 272 -265 32 -21 63 -47 69 -58 6 -12 13 -54 16 -94 l6
-73 -48 -51 c-29 -30 -56 -51 -69 -51 -11 0 -64 9 -116 20 -120 26 -386 38
-448 21 -45 -13 -53 -33 -14 -39 20 -3 20 -3 -4 -39 -31 -46 -30 -76 2 -249
21 -110 25 -161 22 -249 -3 -102 -6 -115 -39 -185 -22 -45 -70 -115 -119 -174
-113 -133 -417 -437 -515 -514 -161 -125 -163 -128 -184 -197 -39 -127 -69
-167 -276 -384 -130 -136 -137 -145 -130 -175 4 -17 6 -49 4 -71 -2 -22 -2
-58 -1 -80 21 -424 2 -659 -61 -753 -12 -17 -91 -92 -175 -165 -219 -188 -279
-276 -302 -435 -30 -221 -34 -438 -14 -818 6 -102 4 -134 -12 -195 -31 -122
-25 -260 20 -454 20 -88 64 -294 96 -457 95 -477 222 -822 374 -1018 24 -30
68 -94 99 -143 66 -102 124 -163 193 -203 27 -15 110 -67 184 -114 74 -48 176
-108 226 -135 51 -26 134 -81 185 -123 126 -102 281 -201 414 -267 199 -99
589 -273 645 -288 30 -9 110 -20 177 -26 89 -7 146 -18 210 -40 48 -17 135
-41 192 -55 79 -19 112 -32 134 -53 44 -42 135 -155 222 -278 105 -146 202
-243 291 -286 68 -34 70 -34 205 -34 158 0 157 0 230 106 50 74 92 100 158 98
45 -2 60 4 158 63 59 36 164 98 232 138 l125 71 185 15 c204 15 371 37 457 60
30 8 57 14 59 14 15 0 1 19 -17 23 -30 8 -16 22 90 95 219 150 377 288 472
412 74 96 125 145 173 165 25 10 95 18 215 25 97 5 193 14 212 19 19 6 87 18
150 27 192 26 311 95 515 299 191 191 304 357 361 530 15 44 39 105 55 136 71
142 238 354 296 377 15 6 65 21 111 33 105 27 162 69 296 215 157 172 209 265
241 429 45 228 19 714 -47 901 -22 62 -22 62 -3 105 32 72 183 347 249 453 77
124 121 174 212 241 116 86 274 288 366 465 30 60 33 72 33 155 -1 82 -55 409
-74 441 -3 6 -31 33 -61 59 -117 102 -233 294 -234 385 0 34 13 74 58 170 74
157 95 219 103 295 5 55 3 63 -21 91 -14 17 -55 51 -91 74 -43 28 -74 57 -90
84 -28 49 -85 209 -85 239 0 12 29 74 65 137 35 63 74 139 87 169 21 52 21 55
4 85 -44 76 -172 249 -215 289 -25 23 -143 101 -261 172 -217 130 -346 213
-454 292 -90 67 -175 102 -527 222 -178 60 -357 124 -398 140 -92 38 -181 102
-254 181 -50 54 -57 66 -57 103 0 44 16 81 63 146 28 39 28 39 28 201 0 155
-1 164 -26 217 -28 55 -140 211 -212 293 l-40 44 39 83 c59 128 56 152 -41
337 -80 153 -126 278 -171 467 l-23 96 49 78 c107 173 110 264 18 481 l-35 81
47 79 c110 186 127 270 74 365 -102 184 -150 303 -150 376 0 21 9 47 24 66 43
56 156 261 167 302 6 22 9 67 7 101 -3 52 -12 75 -53 145 -116 198 -135 235
-130 249 3 8 40 72 81 142 48 80 78 142 81 167 7 49 -4 64 -148 217 -125 133
-244 275 -265 316 -9 17 -20 63 -25 101 -5 42 -19 89 -36 120 -39 74 -204 235
-373 364 -80 60 -185 145 -235 187 -49 42 -123 93 -163 113 l-73 36 -130 -16
c-71 -9 -138 -13 -147 -10 -9 3 -39 23 -67 43 -77 59 -100 62 -405 66 l-275 4
-170 -77z"/>
</g>
</svg>
