<?xml version="1.0" standalone="no"?>
<!DOCTYPE svg PUBLIC "-//W3C//DTD SVG 20010904//EN"
 "http://www.w3.org/TR/2001/REC-SVG-20010904/DTD/svg10.dtd">
<svg version="1.0" xmlns="http://www.w3.org/2000/svg"
 width="1536.000000pt" height="1072.000000pt" viewBox="0 0 1536.000000 1072.000000"
 preserveAspectRatio="xMidYMid meet">
<metadata>
Created by potrace 1.16, written by Peter Selinger 2001-2019
</metadata>
<g transform="translate(0.000000,1072.000000) scale(0.100000,-0.100000)"
fill="#000000" stroke="none">
<path d="M1634 10640 c4 -30 23 -136 41 -235 43 -228 136 -506 472 -1420 254
-691 276 -741 598 -1385 237 -473 317 -625 420 -795 192 -318 265 -448 313
-556 16 -36 97 -166 179 -290 151 -226 214 -329 247 -405 12 -28 60 -80 149
-164 73 -68 203 -192 289 -276 l158 -152 -16 -37 c-23 -57 -16 -77 40 -105 57
-30 70 -50 31 -50 -32 0 -73 -21 -99 -49 -15 -17 -18 -30 -13 -71 l6 -51 -33
7 c-44 8 -74 -9 -92 -51 -22 -52 -113 -115 -324 -220 -137 -69 -176 -98 -184
-137 -5 -26 -73 -98 -342 -363 -184 -181 -334 -337 -334 -345 0 -26 -73 -89
-340 -290 -470 -355 -503 -386 -1019 -934 -207 -219 -436 -462 -509 -540 -209
-221 -805 -914 -938 -1091 -76 -101 -175 -269 -255 -430 -72 -145 -98 -223
-66 -196 9 7 40 54 69 105 66 117 242 379 356 532 64 84 208 241 497 539 224
231 496 519 603 640 245 275 487 522 752 768 259 240 364 326 570 467 177 121
318 224 389 284 25 21 62 46 82 57 21 10 63 50 92 87 30 37 105 117 166 177
62 61 153 163 203 228 55 71 99 119 112 121 134 26 136 26 199 86 98 91 308
220 360 220 25 0 23 -88 -3 -140 -11 -22 -94 -150 -184 -284 -228 -338 -325
-541 -265 -554 12 -2 45 41 115 150 201 315 262 405 328 483 37 44 90 108 118
143 27 34 56 62 63 62 25 0 74 60 81 98 4 20 9 40 11 45 2 4 37 -22 76 -59 97
-88 227 -173 345 -224 202 -87 199 -86 217 -124 10 -20 23 -40 29 -44 6 -4 58
-9 115 -12 l104 -5 12 -40 c16 -57 62 -121 104 -148 35 -21 44 -22 301 -22
l265 -1 100 -38 c320 -123 434 -151 510 -126 44 14 199 117 234 154 14 14 28
26 33 26 4 0 8 -21 8 -47 1 -78 19 -185 38 -217 33 -56 164 -111 298 -124 37
-4 69 -12 71 -18 2 -6 -36 -55 -84 -108 -216 -238 -246 -274 -276 -336 l-32
-65 1 -190 c0 -310 23 -393 138 -503 68 -65 86 -72 145 -51 36 13 40 25 11 34
-27 9 -48 84 -61 225 -10 116 -35 313 -45 362 -6 24 2 32 108 100 62 41 156
111 210 155 53 44 149 116 215 159 65 44 139 100 164 125 l47 46 53 -28 c78
-41 324 -119 373 -119 53 0 107 36 159 108 29 39 55 59 118 92 44 23 86 39 94
37 7 -3 16 -25 19 -49 17 -109 27 -137 66 -172 51 -46 95 -53 195 -33 91 19
125 14 209 -33 28 -15 75 -33 105 -39 40 -8 74 -26 125 -64 39 -30 83 -59 99
-65 44 -19 43 -21 -77 -175 -51 -65 -71 -124 -81 -234 l-7 -71 -92 -100 c-186
-201 -333 -432 -382 -598 -24 -83 -15 -312 16 -404 64 -189 232 -420 342 -470
29 -13 65 -20 113 -20 l70 0 -42 26 c-54 32 -82 80 -133 229 -23 66 -70 180
-106 254 -35 74 -64 142 -64 152 0 10 17 38 38 62 32 36 43 62 61 133 27 114
81 225 163 339 87 120 127 187 139 230 12 43 37 67 111 107 66 35 233 201 292
290 21 31 48 85 61 120 l23 63 108 6 c172 11 176 12 484 186 228 130 294 176
362 254 64 74 86 86 179 99 82 12 105 27 119 79 5 20 19 52 31 71 l21 34 18
-57 c25 -79 62 -132 118 -168 74 -47 141 -62 307 -68 l150 -6 48 -160 c83
-275 105 -309 226 -345 60 -18 78 -30 167 -111 157 -145 299 -245 384 -269 14
-4 133 -4 265 1 250 8 318 17 506 72 111 32 179 68 211 109 31 40 101 178 95
185 -3 2 -41 -11 -85 -31 -107 -46 -183 -61 -457 -86 -209 -19 -263 -26 -377
-46 -37 -7 -38 -6 -58 42 -29 68 -52 90 -245 234 -194 146 -218 169 -270 265
-32 58 -76 107 -262 288 -122 121 -223 223 -223 227 0 5 17 12 38 15 251 41
530 151 786 310 l109 67 33 -16 c37 -17 52 -43 90 -148 53 -147 186 -391 241
-440 28 -25 81 -45 143 -53 69 -9 76 -13 181 -100 120 -100 269 -205 362 -255
71 -39 80 -41 110 -30 41 15 343 29 644 30 129 0 255 5 283 11 58 12 104 49
214 168 66 73 82 100 49 86 -154 -66 -243 -79 -753 -110 -314 -20 -335 -17
-358 50 -42 122 -54 134 -198 209 -66 34 -384 265 -447 324 -15 14 -41 50 -58
80 -43 77 -100 135 -209 213 -52 38 -108 79 -124 92 l-28 23 56 37 c71 47 155
131 188 188 53 91 70 162 77 329 l6 155 45 7 c25 3 101 7 170 8 157 1 323 16
352 31 13 6 35 23 49 36 l27 25 108 -31 c60 -17 154 -44 209 -60 55 -16 175
-41 265 -55 204 -33 218 -37 362 -97 65 -27 125 -49 135 -49 51 0 -191 175
-339 245 -40 19 -167 62 -283 96 -115 33 -248 72 -295 86 l-84 25 59 24 c299
117 499 191 660 242 105 34 242 82 305 106 105 41 112 45 74 46 -71 0 -394
-20 -494 -31 -228 -25 -481 -110 -551 -185 l-21 -23 -29 21 c-53 40 -191 11
-517 -108 -96 -35 -183 -64 -193 -64 -19 0 -20 3 -54 150 -40 177 -114 309
-217 391 l-49 39 58 37 c481 307 563 370 563 431 0 16 6 36 13 45 6 9 70 37
142 62 71 25 153 61 183 81 29 19 115 95 191 167 75 73 166 158 203 189 61 53
67 62 73 107 4 27 3 57 -2 66 -10 17 -16 14 -348 -202 -93 -61 -217 -136 -274
-167 -89 -49 -158 -93 -242 -155 -27 -19 -24 -4 17 91 126 290 223 608 224
731 0 84 -24 61 -100 -95 -40 -83 -120 -221 -190 -328 -127 -193 -159 -249
-180 -315 -17 -55 -23 -61 -83 -82 -42 -15 -78 -43 -198 -159 -140 -136 -149
-143 -218 -165 l-73 -23 -18 24 c-10 13 -31 60 -46 104 -27 74 -29 92 -28 211
1 172 13 229 91 425 36 91 94 251 130 355 55 161 63 197 59 236 -5 36 -3 49
11 61 26 23 319 183 518 284 l170 85 129 14 c71 8 134 19 139 24 14 14 -58 58
-133 82 -36 12 -104 23 -151 26 -71 5 -98 2 -154 -16 -87 -28 -217 -94 -375
-189 -149 -90 -227 -148 -274 -205 -23 -29 -50 -47 -83 -59 -68 -24 -129 -70
-162 -123 -15 -24 -59 -124 -96 -222 -37 -98 -85 -214 -106 -259 -73 -154
-109 -336 -109 -545 l0 -125 -67 -13 c-281 -55 -666 -172 -891 -272 -73 -32
-141 -59 -150 -59 -30 0 -62 29 -123 112 -64 86 -149 235 -149 261 0 23 51 30
148 19 64 -8 102 -19 168 -51 47 -23 90 -41 95 -41 30 0 -29 137 -92 213 -52
64 -103 80 -357 115 l-53 7 -67 145 c-38 80 -87 177 -110 216 -23 38 -42 82
-42 96 0 42 33 124 133 328 75 154 114 219 183 310 149 198 158 218 89 207
-108 -18 -223 -113 -361 -297 -140 -188 -179 -277 -211 -479 -17 -111 -19
-115 -50 -134 -35 -20 -37 -27 -34 -92 3 -52 46 -249 71 -320 l19 -55 -58 0
-58 0 -58 -121 c-38 -80 -66 -157 -84 -230 -14 -60 -29 -109 -33 -109 -4 0
-33 16 -65 35 -125 76 -229 95 -398 75 -213 -25 -364 -80 -442 -162 -23 -23
-54 -54 -68 -67 -37 -35 -43 -72 -50 -321 -6 -215 -7 -226 -28 -242 -53 -42
-97 -35 -307 47 -74 29 -160 58 -190 65 -109 25 -123 40 -305 315 -61 94 -151
219 -198 278 -48 60 -87 112 -87 116 0 4 27 46 61 92 33 46 85 125 114 174 82
138 113 163 269 220 27 10 63 30 80 46 l31 28 -28 10 c-71 27 -238 -2 -348
-60 -84 -45 -204 -174 -256 -275 -52 -102 -95 -232 -95 -290 0 -54 0 -52 196
-402 81 -145 150 -271 154 -280 3 -9 -31 16 -76 55 -138 122 -207 146 -437
147 -163 1 -253 -8 -280 -28 -17 -12 -16 -18 14 -94 54 -140 43 -144 -78 -30
-164 155 -218 176 -496 188 l-190 8 -52 -51 -53 -51 -47 45 c-68 65 -92 79
-137 79 -21 0 -147 -14 -280 -30 -182 -23 -262 -38 -326 -60 -85 -29 -86 -29
-145 -13 -46 12 -87 14 -180 9 -227 -11 -301 -38 -473 -175 -141 -112 -212
-161 -232 -161 -30 0 -57 43 -159 250 -84 173 -126 243 -265 445 -172 250
-251 355 -275 363 -36 12 5 -83 128 -298 153 -265 258 -465 300 -572 31 -76
39 -128 21 -128 -16 0 -213 153 -272 212 -31 31 -82 93 -114 138 -42 61 -67
86 -93 97 -96 38 -103 48 -259 350 -132 256 -185 340 -240 380 -170 127 -357
398 -581 843 -297 588 -432 900 -646 1490 -127 350 -188 505 -370 945 -195
469 -245 596 -315 800 -35 99 -65 182 -68 185 -2 3 -2 -20 2 -50z m9046 -4669
c45 -43 146 -109 237 -154 39 -20 74 -41 78 -47 12 -19 -15 -48 -67 -72 -29
-14 -86 -51 -126 -83 -94 -73 -180 -125 -208 -125 -15 0 -24 8 -28 26 -6 23
16 377 31 504 l5 45 21 -30 c12 -17 37 -45 57 -64z m-618 -64 c30 -24 65 -51
79 -61 25 -16 26 -22 32 -134 3 -64 13 -161 22 -215 9 -53 15 -103 12 -111 -4
-9 -42 -15 -144 -19 -153 -7 -232 -23 -333 -67 -80 -35 -139 -39 -164 -11 -15
16 -18 52 -23 269 l-6 250 74 22 c41 12 135 41 209 65 120 39 156 50 182 54 4
0 31 -19 60 -42z m567 -2432 c109 -67 151 -103 151 -129 0 -31 -89 -158 -163
-233 -35 -37 -88 -77 -127 -97 -68 -36 -172 -70 -192 -64 -7 3 -20 34 -29 71
l-17 67 44 0 c84 0 162 51 207 135 19 35 22 56 22 168 0 108 2 127 15 127 9 0
49 -20 89 -45z"/>
</g>
</svg>
