<?xml version="1.0" encoding="UTF-8" standalone="no"?>
<!-- Created with Inkscape (http://www.inkscape.org/) -->

<svg
   xmlns:svg="http://www.w3.org/2000/svg"
   xmlns="http://www.w3.org/2000/svg"
   version="1.1"
   width="210mm"
   height="297mm"
   viewBox="0 0 210 297"
   id="svg38">
  <defs
     id="defs32" />
  <g
     id="layer1">
    <path
       d="m 42.372912,43.20581 c -4.756255,-2.297702 -7.639652,-6.208581 -10.9923,-9.58561 -0.9835,-0.983502 -3.05358,-3.79834 -3.89015,-5.28973 -0.35024,-0.624391 -1.28849,-4.073261 -1.27469,-4.68557 0.008,-0.352182 0.005,-1.521891 -0.006,-2.59937 -0.011,-1.077481 0.1464,-2.4467 0.34972,-3.042711 1.22578,-5.739293 5.248771,-10.0965333 9.22243,-14.312829 1.23339,-1.309687 2.44081,-2.678906 2.68316,-3.04270799 0.24236,-0.363802 1.97776,-2.26880201 3.85646,-4.23333301 1.87869,-1.964534 4.64774,-4.996536 6.15344,-6.737788 3.39798,-3.929572 3.0887,-3.826039 9.60415,-3.215092 2.62243,0.245902 5.4229,0.436023 6.22326,0.422488 1.96636,-0.03325 5.49712,0.184096 8.06979,0.49676 1.16417,0.141486 3.40624,0.380413 4.98238,0.530952 1.57615,0.15054 3.24302,0.39262 3.70417,0.537957 0.46115,0.14533 1.96955,0.456462 3.352,0.691396 1.38244,0.234934 3.94229,0.766868 5.68854,1.182071 1.74625,0.415205 4.06797,0.957138 5.15937,1.204293 3.1831,0.72083 9.133418,2.659436 12.028628,3.918908 2.7625,1.201735 5.88297,5.52800301 8.0456,11.154513 1.31834,3.429937 2.05581,5.033545 2.75437,5.989278 0.28045,0.383688 0.79771,1.812433 1.14948,3.175005 0.35176,1.362549 0.80547,2.834569 1.00823,3.271139 1.1211,2.41381 1.8518,10.272091 1.0918,11.741761 -0.22744,0.43982 -0.41352,0.993759 -0.41352,1.23098 0,0.874508 -1.88181,3.22553 -4.05584,5.067098 -2.13274,1.806602 -4.3318,3.067622 -5.92514,3.397682 -4.63673,1.441971 -10.03068,2.393059 -14.228398,3.71752 -5.13924,1.594702 -11.735819,3.612452 -16.27187,3.714218 -1.52797,0.0311 -4.20688,0.1886 -5.95313,0.350052 -10.93644,0.443805 -24.275388,0.294502 -32.11594,-5.04933 z"
       id="path21"
       style="fill:#000000;stroke-width:0.26458341" />
  </g>
</svg>
