<?xml version="1.0" standalone="no"?>
<!DOCTYPE svg PUBLIC "-//W3C//DTD SVG 20010904//EN"
 "http://www.w3.org/TR/2001/REC-SVG-20010904/DTD/svg10.dtd">
<svg version="1.0" xmlns="http://www.w3.org/2000/svg"
 width="1536.000000pt" height="1179.000000pt" viewBox="0 0 1536.000000 1179.000000"
 preserveAspectRatio="xMidYMid meet">
<metadata>
Created by potrace 1.16, written by Peter Selinger 2001-2019
</metadata>
<g transform="translate(0.000000,1179.000000) scale(0.100000,-0.100000)"
fill="#000000" stroke="none">
<path d="M3685 11646 c-5 -19 -3 -39 9 -62 9 -19 16 -56 16 -82 0 -26 9 -73
20 -105 11 -31 20 -71 20 -89 1 -18 7 -44 15 -58 8 -14 14 -38 15 -53 0 -15 7
-44 16 -65 8 -20 19 -55 24 -77 4 -22 13 -53 18 -70 6 -16 20 -64 32 -105 13
-41 27 -86 33 -100 5 -14 13 -41 18 -60 8 -35 30 -107 50 -165 6 -16 15 -48
19 -70 10 -46 35 -125 56 -173 8 -18 14 -42 14 -53 0 -11 6 -32 14 -47 7 -15
16 -44 20 -64 4 -20 13 -50 21 -65 8 -15 15 -38 15 -50 0 -12 6 -37 14 -55 7
-18 24 -67 36 -108 13 -41 28 -91 35 -110 7 -19 20 -57 29 -85 10 -27 21 -67
26 -88 4 -21 13 -44 19 -50 6 -6 11 -22 11 -36 1 -15 9 -44 20 -66 11 -22 20
-51 20 -65 0 -14 7 -34 15 -44 8 -11 15 -31 15 -44 0 -13 6 -36 14 -50 16 -30
42 -105 57 -167 6 -21 14 -44 18 -50 5 -5 12 -26 16 -45 4 -19 14 -44 21 -55
8 -11 14 -26 14 -35 0 -9 16 -54 35 -100 19 -46 35 -91 35 -100 0 -9 6 -24 14
-35 7 -11 17 -36 21 -55 4 -19 14 -44 21 -55 8 -11 14 -29 14 -41 0 -12 7 -27
15 -34 8 -7 15 -19 15 -26 0 -13 28 -81 56 -136 8 -14 14 -34 14 -44 0 -9 6
-25 13 -33 7 -9 23 -43 36 -76 12 -33 28 -73 36 -90 8 -16 32 -70 54 -118 23
-49 41 -90 41 -92 0 -7 68 -156 85 -187 27 -48 14 -80 -21 -52 -16 12 -74 51
-133 89 -53 34 -78 51 -89 62 -7 7 -17 13 -22 13 -5 0 -28 13 -52 29 -24 16
-53 32 -65 35 -13 4 -23 11 -23 16 0 5 -16 14 -35 20 -19 6 -35 15 -35 20 0 5
-10 12 -22 16 -22 6 -83 52 -136 101 -55 51 -58 6 -4 -53 44 -48 125 -114 139
-114 6 0 17 -7 24 -16 7 -9 22 -20 34 -25 25 -12 42 -22 135 -83 41 -27 85
-55 98 -63 13 -8 31 -22 41 -32 9 -9 35 -27 56 -41 22 -13 47 -30 55 -37 8 -7
46 -37 85 -66 62 -46 74 -62 112 -137 60 -122 113 -239 113 -250 0 -17 -28 -8
-100 32 -8 4 -22 11 -30 14 -8 3 -22 10 -30 15 -8 5 -26 14 -40 20 -14 6 -32
15 -40 20 -8 5 -22 12 -30 15 -8 3 -22 10 -30 15 -8 5 -26 14 -40 19 -14 6
-32 15 -40 20 -8 6 -22 13 -30 16 -8 3 -22 10 -30 15 -8 5 -26 14 -40 19 -14
6 -32 15 -40 20 -8 6 -22 13 -30 16 -8 3 -22 10 -30 15 -8 5 -28 16 -45 25
-16 8 -43 23 -60 34 -16 11 -39 24 -50 29 -12 5 -27 16 -34 25 -7 9 -18 16
-24 16 -12 0 -98 68 -110 87 -4 7 -14 13 -21 13 -8 0 -17 7 -20 16 -4 9 -9 15
-11 12 -8 -8 26 -70 54 -102 30 -32 236 -196 247 -196 4 0 15 -7 25 -16 20
-18 369 -194 385 -194 6 0 17 -6 23 -14 7 -8 25 -18 41 -21 16 -3 34 -13 41
-21 6 -8 22 -14 34 -14 12 0 28 -6 34 -14 7 -8 26 -18 42 -21 16 -4 29 -10 29
-15 0 -4 12 -13 28 -19 36 -15 78 -79 62 -95 -14 -13 -179 -10 -230 5 -19 6
-134 14 -255 19 -121 5 -254 14 -295 20 -51 8 -143 10 -290 5 -279 -8 -291 -8
-381 0 -52 5 -78 4 -83 -3 -4 -7 4 -14 21 -18 15 -3 42 -12 58 -20 22 -10 106
-17 315 -24 157 -5 317 -14 355 -19 39 -6 126 -10 195 -11 72 0 151 -7 185
-15 34 -8 113 -15 180 -16 66 0 143 -4 170 -9 97 -17 165 -36 177 -48 6 -6 20
-12 29 -12 10 0 21 -5 24 -10 4 -6 22 -17 41 -25 19 -8 34 -19 34 -24 0 -6 5
-11 10 -11 13 0 110 -67 130 -89 8 -9 22 -20 30 -24 18 -9 40 -23 96 -59 43
-28 90 -93 73 -103 -5 -4 -12 1 -15 9 -3 9 -10 16 -15 16 -11 0 -163 119 -167
131 -2 5 -7 9 -12 9 -5 0 -42 22 -83 50 -41 27 -78 50 -82 50 -4 0 -29 9 -54
21 -83 38 -106 47 -143 59 -21 6 -38 16 -38 21 0 5 -20 9 -45 9 -39 0 -47 -4
-57 -26 -11 -24 -9 -29 15 -50 16 -13 34 -24 42 -24 12 0 133 -75 145 -90 3
-3 37 -27 75 -53 86 -58 111 -78 117 -97 5 -13 -3 -15 -51 -10 -42 4 -66 13
-95 35 l-39 30 -162 3 -161 3 -40 -35 c-29 -26 -48 -36 -75 -36 -19 0 -41 -6
-47 -12 -12 -12 -54 -24 -172 -48 -30 -7 -77 -18 -105 -25 -53 -15 -117 -30
-200 -47 -27 -6 -66 -16 -85 -24 -19 -7 -56 -16 -82 -19 -26 -3 -50 -10 -53
-15 -3 -4 -24 -11 -48 -14 -41 -6 -104 -23 -198 -52 -26 -8 -54 -14 -63 -14
-9 0 -42 -9 -73 -20 -32 -11 -66 -20 -78 -20 -11 0 -33 -7 -49 -15 -15 -8 -39
-15 -52 -15 -13 0 -46 -9 -74 -20 -28 -11 -62 -20 -76 -20 -13 0 -35 -6 -47
-14 -12 -8 -41 -17 -64 -21 -24 -4 -45 -11 -48 -15 -3 -5 -27 -12 -53 -16 -26
-3 -56 -11 -67 -17 -11 -6 -36 -14 -55 -18 -35 -7 -108 -31 -165 -54 -57 -23
-130 -47 -160 -52 -16 -3 -39 -12 -50 -19 -11 -8 -28 -14 -38 -14 -10 0 -31
-6 -45 -14 -42 -21 -136 -56 -152 -56 -9 0 -24 -6 -35 -14 -11 -7 -36 -17 -55
-21 -19 -4 -44 -14 -55 -21 -11 -8 -29 -14 -40 -14 -12 0 -30 -7 -41 -15 -10
-8 -26 -15 -34 -15 -8 0 -33 -9 -55 -20 -22 -11 -47 -19 -56 -20 -8 0 -24 -7
-35 -15 -10 -8 -26 -15 -34 -15 -8 0 -33 -9 -55 -20 -22 -11 -47 -19 -56 -20
-8 0 -24 -7 -35 -15 -10 -8 -26 -15 -34 -15 -8 0 -33 -9 -55 -20 -22 -11 -50
-19 -61 -20 -12 0 -27 -7 -34 -15 -7 -8 -21 -15 -31 -15 -11 0 -36 -9 -56 -20
-21 -11 -43 -20 -50 -20 -6 0 -24 -7 -40 -15 -15 -8 -71 -31 -123 -51 -52 -20
-114 -45 -137 -55 -23 -11 -46 -19 -52 -19 -5 0 -22 -6 -38 -14 -15 -8 -53
-24 -83 -36 -78 -32 -121 -50 -153 -66 -16 -8 -34 -14 -40 -14 -7 0 -29 -9
-50 -20 -20 -11 -45 -20 -55 -20 -10 0 -27 -7 -38 -15 -10 -8 -25 -15 -33 -15
-8 0 -35 -10 -60 -21 -25 -12 -61 -28 -78 -35 -58 -24 -96 -42 -185 -83 -47
-23 -90 -41 -96 -41 -5 0 -15 -7 -22 -15 -7 -8 -21 -15 -31 -15 -9 0 -24 -6
-31 -14 -8 -7 -24 -17 -36 -20 -30 -10 -102 -57 -102 -68 0 -4 -7 -8 -15 -8
-8 0 -15 -4 -15 -10 0 -15 26 -12 40 5 7 8 25 15 39 15 15 0 36 7 47 15 10 8
26 15 34 15 8 0 32 9 53 20 20 11 45 20 56 20 10 0 24 7 31 15 7 8 22 15 34
15 11 0 35 9 51 20 17 11 40 20 51 20 12 0 27 7 34 15 7 8 23 15 35 15 12 0
28 7 35 15 7 8 20 15 29 15 9 0 33 9 54 20 20 11 45 20 55 20 10 0 26 6 37 13
11 7 47 23 80 36 33 12 78 31 101 42 23 10 46 19 52 19 6 0 24 7 41 15 17 8
45 22 62 30 17 8 36 15 42 15 7 0 29 9 50 20 20 11 45 20 56 20 10 0 24 7 31
15 7 8 21 15 32 15 10 0 36 9 58 20 22 11 48 20 58 20 11 0 25 7 32 15 7 8 21
15 31 15 11 0 36 9 56 20 21 11 45 20 53 20 8 0 24 7 34 15 11 8 26 15 34 15
8 0 33 8 56 19 81 36 117 51 129 51 7 1 30 9 52 20 22 11 47 20 55 20 8 0 24
7 34 15 11 8 29 15 41 15 12 0 30 7 41 15 10 8 26 15 34 15 8 0 32 9 53 20 20
11 43 20 50 20 7 0 30 9 52 20 22 11 46 20 55 20 8 0 24 7 34 15 11 8 27 15
35 15 15 0 84 25 158 56 17 8 39 14 50 14 10 0 27 7 37 15 11 8 27 15 35 15 9
0 29 7 45 15 16 9 46 20 65 25 59 15 134 41 163 56 14 8 35 14 47 14 11 0 35
6 53 14 18 8 67 24 108 36 41 12 89 26 105 32 34 11 127 34 200 50 28 5 65 16
83 24 18 8 46 14 63 14 16 0 45 6 63 14 18 7 53 17 77 20 24 4 67 13 94 21 28
7 75 19 105 25 143 29 188 39 220 49 19 6 51 11 71 11 20 0 54 6 75 14 22 7
64 17 94 21 30 4 74 13 98 21 23 8 62 14 86 14 24 0 62 7 85 15 22 8 86 17
140 21 93 6 102 5 138 -17 34 -21 50 -23 148 -23 66 0 119 5 132 13 21 10 27
8 58 -23 38 -38 115 -78 180 -95 115 -29 142 -37 162 -49 12 -7 42 -15 66 -18
38 -5 56 -17 120 -78 55 -52 77 -80 82 -106 11 -51 82 -154 169 -244 42 -44
76 -85 76 -91 0 -12 104 -220 120 -240 17 -21 90 -168 90 -181 0 -19 72 -158
87 -167 7 -4 13 -14 13 -21 0 -8 7 -16 15 -20 14 -5 22 -36 10 -36 -15 0 -94
46 -127 74 -20 17 -56 47 -79 66 -59 50 -100 65 -148 53 -28 -8 -42 -7 -56 3
-10 8 -25 14 -33 14 -8 0 -31 13 -51 28 -82 64 -109 74 -221 79 -98 5 -106 4
-124 -16 -15 -17 -31 -21 -79 -21 -40 0 -66 5 -77 15 -11 10 -47 18 -97 22
-71 5 -88 3 -139 -18 -33 -13 -77 -36 -99 -50 -35 -23 -64 -37 -185 -93 -14
-7 -52 -11 -85 -9 -33 2 -69 3 -80 3 -84 -3 -103 -7 -119 -22 -10 -10 -26 -18
-36 -18 -34 0 -107 -59 -141 -113 -32 -50 -131 -157 -146 -157 -4 0 -22 14
-40 32 -38 37 -82 41 -114 12 -16 -14 -37 -19 -90 -20 -49 0 -74 -5 -87 -17
-10 -9 -23 -17 -29 -17 -12 0 -82 -35 -160 -80 -10 -6 -29 -15 -43 -20 -14 -6
-32 -15 -40 -20 -8 -6 -24 -15 -35 -20 -11 -6 -33 -19 -50 -30 -16 -11 -41
-26 -55 -33 -62 -30 -171 -114 -181 -139 -14 -34 -42 -43 -80 -28 -63 27 -196
-22 -252 -92 -17 -21 -39 -38 -49 -38 -10 0 -26 -4 -36 -9 -9 -5 -37 -14 -62
-21 -25 -6 -59 -16 -76 -21 -17 -5 -50 -9 -75 -9 -24 0 -53 -7 -63 -15 -11 -8
-30 -15 -42 -15 -12 0 -50 -9 -84 -20 -34 -11 -77 -20 -94 -20 -17 0 -40 -7
-50 -15 -11 -8 -30 -15 -43 -15 -12 0 -46 -8 -75 -19 -29 -10 -80 -26 -113
-36 -33 -10 -67 -21 -75 -26 -8 -5 -26 -14 -40 -19 -63 -26 -98 -50 -166 -113
-95 -88 -104 -118 -78 -244 7 -36 39 -28 80 21 34 41 40 44 94 48 39 3 66 11
85 26 25 20 40 22 154 23 69 0 153 5 186 10 33 5 119 13 191 18 72 6 143 15
159 21 15 6 71 13 124 17 53 3 108 12 123 19 15 8 35 14 44 14 10 0 25 7 35
16 10 9 23 13 28 9 17 -10 13 -49 -6 -66 -10 -9 -36 -36 -59 -60 -58 -62 -117
-114 -177 -153 -29 -19 -65 -48 -81 -65 -17 -17 -34 -31 -39 -31 -5 0 -37 -21
-71 -48 -33 -26 -88 -65 -121 -86 -33 -21 -79 -52 -103 -68 -23 -16 -81 -47
-128 -69 -113 -52 -243 -150 -244 -184 0 -5 -19 -28 -42 -52 -35 -36 -52 -44
-117 -59 -42 -10 -82 -22 -88 -27 -20 -14 7 -45 64 -73 43 -21 62 -23 183 -24
96 0 143 4 162 14 14 8 45 17 68 21 23 4 54 13 68 21 15 8 39 14 53 14 14 0
34 7 45 15 10 8 28 15 39 15 11 0 38 9 60 20 22 11 50 19 62 20 12 0 25 4 28
10 3 5 25 14 48 20 23 6 56 17 72 25 17 7 50 21 75 30 25 9 64 25 88 36 23 10
49 19 56 19 8 0 27 6 43 14 68 34 125 56 142 56 10 0 24 7 31 15 7 8 21 15 31
15 11 0 36 9 56 20 21 11 45 20 54 20 9 0 22 7 29 15 7 8 22 15 34 15 12 0 26
4 31 9 6 5 42 21 80 36 39 14 77 30 85 36 8 5 22 12 30 15 8 3 33 13 55 23 22
10 56 25 75 34 102 44 328 162 350 182 9 8 21 15 27 15 12 0 109 61 133 83 8
8 36 26 61 41 26 14 57 37 71 49 13 12 53 45 88 74 36 28 92 79 125 112 l59
61 66 0 c41 1 72 6 84 15 11 8 30 15 42 15 13 0 25 4 29 9 3 5 36 24 73 42 37
18 99 52 138 76 39 24 76 43 81 43 5 0 38 26 71 58 43 40 62 65 62 82 1 36 24
118 37 131 7 7 33 -1 91 -30 44 -22 83 -45 87 -51 9 -15 97 -11 119 5 32 24
92 19 134 -12 20 -16 45 -38 55 -51 12 -15 29 -22 52 -22 18 0 38 -7 45 -15 6
-8 22 -17 33 -21 34 -10 77 -55 77 -81 0 -21 4 -23 58 -23 53 0 60 -3 100 -41
24 -22 60 -51 80 -64 21 -13 51 -35 67 -50 56 -50 186 -135 239 -156 17 -7 34
-25 42 -45 8 -18 30 -45 49 -60 51 -39 178 -55 460 -61 224 -4 232 -3 299 20
l68 24 42 -23 c32 -19 56 -24 109 -24 l68 0 57 58 c50 51 65 60 106 65 27 4
71 20 98 37 49 31 82 38 93 20 3 -5 14 -10 23 -10 9 0 34 -5 55 -11 43 -12 46
-27 17 -84 -11 -22 -20 -47 -20 -56 0 -36 -137 -101 -280 -134 -30 -7 -73 -17
-95 -24 -22 -6 -73 -11 -113 -11 -40 0 -104 -7 -142 -16 -79 -18 -371 -15
-450 4 -55 14 -526 15 -625 2 -38 -5 -137 -14 -220 -20 -164 -11 -206 -23
-268 -77 -20 -18 -46 -33 -57 -33 -39 0 -208 -238 -210 -295 0 -11 -6 -30 -14
-41 -8 -11 -17 -41 -21 -67 -4 -26 -11 -49 -15 -52 -5 -3 -11 -29 -15 -58 -4
-28 -13 -75 -21 -103 -10 -35 -15 -108 -15 -237 -1 -133 -5 -193 -15 -211 -7
-14 -16 -47 -20 -73 -4 -26 -13 -62 -20 -80 -8 -18 -14 -48 -14 -66 0 -19 -6
-52 -14 -74 -21 -60 -38 -211 -25 -234 12 -23 18 -23 45 -1 16 13 22 34 27 87
7 80 39 191 53 188 16 -5 16 -100 0 -132 -9 -17 -16 -45 -16 -63 0 -18 -7 -46
-15 -62 -8 -15 -16 -47 -17 -70 -3 -37 -1 -41 21 -41 19 0 33 14 62 62 21 35
42 75 45 90 4 16 13 37 20 48 8 11 14 30 14 43 0 13 6 38 14 55 13 29 19 71
46 317 5 41 9 111 9 155 1 77 11 120 52 230 10 28 19 57 19 65 0 9 6 24 14 35
7 11 16 37 20 57 4 20 13 50 21 65 8 15 15 39 16 53 0 14 10 45 22 69 l22 44
90 -2 c91 -2 138 10 220 53 17 9 37 16 46 16 9 0 33 7 52 15 20 8 56 15 79 15
24 0 75 7 113 14 51 11 174 16 447 20 208 3 386 9 395 15 10 5 58 12 108 16
49 4 104 14 122 21 18 8 47 14 66 14 18 0 58 9 90 20 31 11 69 20 84 20 16 0
37 7 47 15 11 8 28 15 38 15 17 0 42 10 143 55 17 7 46 20 65 28 106 47 220
103 257 127 22 16 50 31 61 34 11 4 26 13 32 21 7 8 20 15 29 15 21 0 81 54
81 74 0 22 15 27 44 16 35 -13 33 -32 -9 -87 -29 -37 -35 -55 -35 -93 0 -60
-20 -86 -108 -142 -86 -56 -96 -61 -162 -93 -116 -56 -138 -65 -151 -65 -8 0
-23 -7 -33 -15 -11 -8 -29 -15 -40 -15 -12 -1 -39 -9 -61 -20 -22 -11 -51 -20
-65 -20 -14 0 -34 -7 -44 -15 -11 -8 -33 -15 -48 -15 -16 0 -44 -6 -63 -14
-19 -8 -55 -18 -81 -22 -26 -4 -59 -13 -73 -20 -14 -8 -55 -14 -91 -14 -36 0
-90 -6 -120 -14 -30 -8 -90 -17 -134 -21 -43 -4 -93 -13 -112 -21 -18 -8 -54
-14 -79 -14 -25 0 -58 -6 -73 -14 -15 -7 -50 -16 -79 -20 -28 -4 -68 -13 -87
-21 -19 -8 -50 -15 -68 -15 -18 0 -44 -6 -59 -13 -14 -8 -49 -17 -78 -20 -29
-3 -59 -11 -66 -17 -7 -6 -35 -15 -62 -19 -52 -10 -95 -23 -161 -52 -23 -11
-50 -19 -59 -19 -40 0 -123 -51 -153 -95 -17 -25 -37 -45 -44 -45 -29 0 -66
-43 -105 -123 -22 -45 -41 -89 -41 -97 -1 -8 -9 -33 -20 -55 -11 -22 -20 -58
-20 -80 0 -22 -7 -62 -15 -89 -20 -66 -21 -368 -1 -469 8 -40 17 -95 20 -124
4 -28 13 -64 21 -80 13 -24 14 -75 9 -338 -6 -341 -1 -398 34 -403 35 -5 45
36 37 161 -7 117 2 164 35 184 17 12 20 9 26 -25 4 -20 2 -80 -5 -132 -12 -91
-15 -236 -5 -252 3 -4 14 -8 25 -8 19 0 34 25 73 125 30 77 40 257 26 457 -6
101 -17 192 -23 203 -19 34 -22 336 -4 414 9 36 19 109 23 161 7 99 27 230 37
247 4 6 38 13 77 16 38 3 80 13 92 21 12 9 29 16 38 16 8 0 44 19 78 42 74 51
131 85 152 93 8 4 29 13 45 20 17 8 44 17 60 21 17 4 39 13 50 20 11 8 30 14
43 14 13 0 33 5 45 12 21 11 86 28 192 50 28 6 68 16 90 23 22 8 60 17 85 20
25 4 50 11 55 15 22 18 272 73 287 64 10 -6 94 17 155 43 17 7 38 13 47 13 9
0 33 9 53 20 21 11 47 20 58 20 11 0 29 7 39 15 11 8 28 15 39 15 10 0 31 6
45 14 15 8 48 24 74 35 49 22 99 44 178 81 53 24 141 74 198 113 23 15 46 27
51 27 5 0 14 7 21 15 7 8 51 40 99 71 47 31 97 64 111 73 14 10 32 20 42 24 9
3 60 35 112 71 53 36 100 66 104 66 12 0 57 51 73 80 7 14 15 39 19 55 l6 30
77 -2 c43 -1 94 -7 113 -13 33 -11 35 -14 27 -39 -13 -43 -4 -324 12 -372 8
-23 15 -57 15 -76 0 -29 -5 -36 -34 -48 -19 -8 -37 -19 -41 -25 -3 -5 -22 -10
-41 -10 -20 0 -45 -5 -57 -11 -11 -7 -42 -18 -67 -25 -149 -41 -274 -97 -359
-159 -79 -57 -158 -107 -215 -136 -27 -13 -73 -48 -103 -77 l-53 -52 0 -78 c0
-56 -5 -84 -17 -101 -23 -34 -33 -133 -39 -394 -5 -199 -4 -237 12 -295 17
-65 49 -132 62 -132 4 0 17 -16 30 -34 23 -34 23 -36 11 -130 -14 -109 -1
-340 27 -460 26 -110 30 -264 10 -340 -16 -59 -16 -66 -2 -94 14 -27 14 -38 2
-97 -12 -56 -12 -74 0 -118 20 -79 78 -182 95 -171 5 3 9 58 9 123 0 91 5 133
20 181 11 34 20 69 20 76 0 7 24 25 53 39 66 31 80 46 101 108 19 56 22 292 5
397 -5 36 -16 115 -24 175 -13 106 -27 189 -44 267 -5 22 -4 41 1 46 17 17 12
342 -6 403 -8 30 -19 95 -25 144 -5 50 -13 104 -16 122 -13 60 74 148 221 224
44 23 95 49 114 59 19 10 76 37 125 60 50 24 97 47 105 52 8 4 24 12 35 17
154 69 195 98 248 172 65 91 107 160 107 174 0 7 21 37 47 66 56 61 92 117 93
142 0 11 7 33 15 50 17 39 43 111 54 152 5 17 16 44 25 60 21 39 21 128 0 149
-25 26 -9 33 80 38 48 2 91 10 100 17 30 25 46 6 46 -56 0 -32 7 -71 15 -87 8
-15 15 -35 15 -43 0 -18 37 -90 67 -130 26 -34 125 -113 142 -113 10 0 58 -22
121 -55 14 -7 39 -16 56 -19 24 -5 62 -40 150 -134 145 -157 330 -341 448
-447 49 -44 115 -113 147 -154 32 -40 92 -102 133 -137 71 -60 126 -133 126
-166 0 -39 110 -108 173 -108 43 0 99 -27 172 -84 31 -25 195 -145 280 -206
77 -55 329 -265 415 -346 25 -23 72 -64 105 -90 33 -27 62 -51 65 -54 3 -3 17
-13 31 -22 26 -17 27 -17 36 15 13 43 38 40 131 -13 94 -55 167 -144 191 -236
12 -45 34 -70 51 -59 17 10 11 98 -10 165 -11 34 -20 66 -20 71 0 30 -125 170
-177 197 -12 7 -23 26 -27 46 -7 34 -50 75 -146 138 -14 9 -56 39 -95 67 -91
65 -236 164 -255 173 -8 4 -49 32 -90 62 -41 30 -109 76 -150 102 -41 26 -91
60 -111 76 -20 15 -41 28 -47 28 -5 0 -30 16 -55 35 -25 19 -49 35 -54 36 -4
0 -28 15 -53 33 -30 22 -48 43 -54 67 -15 54 -63 119 -183 246 -113 119 -175
197 -193 243 -6 14 -14 33 -20 42 -11 19 -7 22 33 32 15 3 27 10 27 14 0 5
-25 26 -55 48 -74 52 -189 135 -245 177 -25 19 -67 47 -94 62 -45 26 -47 29
-30 42 10 7 28 13 40 13 13 0 25 4 29 9 3 5 20 13 38 17 23 5 60 35 130 107
53 55 100 97 104 93 14 -14 33 -83 40 -141 3 -33 15 -78 26 -100 37 -73 117
-164 144 -165 7 0 42 -16 77 -35 79 -43 110 -44 185 -5 63 31 98 70 146 161
27 53 60 87 72 75 3 -3 7 -36 10 -73 4 -66 11 -88 57 -182 25 -52 109 -131
169 -160 31 -15 63 -21 114 -21 l70 0 42 45 c22 24 41 50 41 56 0 40 140 -53
204 -135 60 -78 106 -105 174 -106 48 0 55 3 92 41 21 22 42 49 45 60 10 30
23 22 35 -20 15 -55 58 -81 138 -81 78 0 104 -19 106 -78 0 -33 -5 -48 -30
-74 -52 -56 -113 -165 -114 -203 0 -12 -5 -26 -11 -32 -12 -12 -33 -132 -32
-188 0 -22 4 -94 8 -160 7 -106 11 -127 37 -177 30 -56 69 -98 138 -148 32
-23 43 -25 132 -23 69 1 106 7 130 19 22 12 49 16 83 14 28 -2 91 -4 140 -4
94 0 127 10 227 71 30 18 42 20 70 13 56 -17 145 -12 186 9 48 25 92 67 127
119 31 46 37 49 79 27 41 -21 81 -19 124 9 43 27 92 86 92 111 0 9 15 22 33
30 56 24 88 95 94 207 4 59 1 83 -11 100 -9 12 -16 29 -16 38 0 16 -62 144
-95 195 -25 40 -173 232 -194 253 -10 9 -32 37 -51 62 -19 25 -87 99 -150 165
-64 66 -131 146 -150 178 -44 73 -51 86 -71 117 -9 14 -38 59 -64 100 -77 123
-105 161 -174 240 -103 116 -91 107 -212 165 -51 24 -89 65 -89 94 0 7 -9 24
-19 39 -42 60 -109 170 -132 216 -13 27 -41 64 -63 82 -35 30 -45 33 -114 36
l-76 3 -59 72 c-33 41 -98 103 -150 143 -51 38 -96 73 -102 78 -64 48 -133 71
-221 72 -47 0 -55 3 -85 38 -41 47 -127 114 -182 142 -23 11 -49 25 -57 29 -8
5 -40 19 -70 31 -30 12 -68 28 -83 36 -16 8 -36 14 -45 14 -9 0 -30 7 -47 16
-16 8 -50 18 -75 21 -60 8 -107 33 -155 83 -22 23 -52 48 -67 56 -17 9 -28 23
-28 36 0 18 4 20 37 15 23 -4 54 0 84 10 43 16 50 16 85 1 22 -8 66 -25 99
-37 33 -12 73 -28 88 -36 16 -8 34 -15 40 -15 7 -1 30 -9 52 -20 22 -11 47
-19 56 -20 8 0 24 -7 35 -15 10 -8 28 -15 39 -15 11 0 29 -6 40 -13 11 -7 53
-26 93 -42 40 -15 77 -34 83 -42 6 -7 22 -13 34 -13 12 0 28 -7 35 -15 7 -8
17 -15 24 -15 9 0 162 -74 206 -100 56 -33 232 -110 240 -105 6 3 10 15 10 25
0 42 10 50 58 44 58 -7 157 -41 197 -68 41 -28 135 -127 135 -142 0 -16 40
-45 52 -38 17 11 7 52 -34 133 -24 46 -59 100 -79 120 -36 38 -170 121 -194
121 -7 0 -27 18 -44 39 -21 26 -47 45 -79 56 -26 9 -60 23 -77 30 -16 7 -39
16 -50 19 -11 2 -51 17 -90 31 -38 15 -86 31 -105 37 -19 5 -39 14 -45 18 -5
4 -26 11 -45 15 -19 4 -44 14 -55 21 -11 8 -29 14 -40 14 -11 0 -33 7 -49 15
-15 8 -34 15 -42 15 -7 0 -33 8 -56 19 -48 21 -91 36 -158 56 -25 7 -60 18
-77 24 -65 22 -99 33 -145 45 -32 9 -64 28 -97 59 -28 26 -59 47 -69 47 -11 0
-37 14 -58 31 -32 26 -45 30 -79 26 -54 -6 -153 -26 -190 -39 -16 -5 -55 -16
-85 -23 -30 -7 -72 -18 -92 -25 -21 -6 -77 -9 -125 -8 l-88 3 -3 33 c-4 36
-23 42 -57 18 -11 -7 -36 -18 -56 -24 -34 -9 -40 -7 -85 30 -43 34 -54 38 -89
34 -39 -5 -41 -4 -74 48 -36 56 -95 96 -141 96 -14 0 -43 9 -65 20 -22 11 -51
20 -66 20 -42 0 -59 10 -59 34 0 26 -124 147 -218 215 -66 47 -73 63 -48 109
24 43 56 123 56 139 0 7 9 31 20 53 11 22 20 48 20 58 0 10 11 29 24 41 25 24
65 22 87 -5 6 -8 20 -14 30 -14 10 0 20 -4 24 -10 3 -5 32 -23 65 -39 32 -17
67 -35 77 -40 16 -9 85 -40 123 -56 8 -3 26 -12 40 -20 14 -8 42 -15 63 -15
32 0 49 -9 95 -49 31 -26 81 -65 110 -85 28 -20 73 -51 100 -69 26 -18 54 -36
62 -40 8 -4 29 -16 45 -27 17 -11 44 -27 60 -35 17 -8 39 -20 50 -27 46 -26
42 -24 201 -99 63 -29 98 -25 135 16 18 19 39 35 46 35 8 0 59 -44 114 -98 54
-54 101 -96 104 -94 12 12 3 80 -15 117 -11 22 -19 46 -20 52 0 23 -109 122
-163 149 -28 14 -68 43 -87 63 -73 77 -231 193 -355 261 -44 24 -98 54 -120
67 -22 12 -51 27 -64 33 -13 6 -45 27 -72 48 -40 31 -48 41 -44 62 5 21 -2 29
-42 53 -27 16 -75 48 -108 72 -33 24 -64 44 -70 44 -9 1 -88 30 -150 56 -42
17 -93 35 -145 50 -25 7 -58 18 -75 24 -16 6 -41 13 -55 15 -14 3 -48 26 -75
51 -52 47 -74 53 -115 30 -14 -8 -35 -14 -46 -15 -20 0 -84 -60 -84 -78 0 -4
-16 -24 -35 -45 -26 -28 -35 -47 -35 -72 0 -51 -24 -131 -64 -217 -20 -42 -36
-81 -36 -86 0 -5 -7 -15 -15 -22 -8 -7 -15 -21 -15 -30 0 -24 -47 -80 -67 -80
-9 0 -37 9 -62 21 -82 37 -171 72 -246 95 -26 9 -30 14 -29 44 2 54 25 182 35
202 13 25 28 208 22 258 -5 35 -11 43 -41 55 -39 17 -83 19 -97 6 -15 -13
-105 -34 -150 -34 -99 0 -231 9 -242 16 -19 12 -16 27 14 70 25 37 27 46 31
181 l4 142 -27 32 c-15 18 -33 32 -40 32 -8 0 -22 11 -33 25 -16 20 -19 36
-15 92 11 164 -58 365 -166 485 -56 62 -187 155 -257 183 -21 9 -48 20 -59 25
-11 5 -54 24 -95 43 -221 100 -569 155 -915 144 -152 -4 -186 -10 -340 -51
-110 -30 -239 -47 -420 -56 -185 -9 -292 -20 -405 -41 -30 -6 -100 -17 -155
-25 -55 -8 -122 -18 -150 -23 -27 -6 -149 -10 -270 -10 -259 -1 -269 -3 -436
-97 -20 -11 -65 -52 -86 -78 -21 -26 4 -31 132 -28 126 3 173 -8 122 -27 -16
-6 -40 -11 -53 -11 -14 0 -35 -5 -47 -12 -12 -6 -51 -17 -87 -24 -113 -21
-163 -39 -171 -59 -6 -16 -8 -16 -8 -4 -1 9 -12 24 -26 33 -14 9 -25 23 -25
32 0 8 -16 36 -35 61 -19 25 -35 49 -35 54 0 4 -16 31 -35 61 -20 29 -45 71
-56 93 -11 22 -33 63 -49 90 -16 28 -29 57 -29 66 -1 9 -8 22 -16 29 -8 7 -15
22 -15 34 0 11 -8 35 -17 51 -9 17 -19 48 -22 69 -3 22 -12 41 -18 44 -18 5
-17 -112 1 -141 8 -12 17 -43 20 -69 4 -25 14 -52 21 -58 8 -7 15 -21 15 -32
0 -11 6 -32 14 -46 7 -15 32 -65 56 -112 39 -77 101 -180 151 -252 10 -15 19
-30 19 -33 0 -3 16 -28 35 -55 19 -27 35 -52 35 -55 0 -3 15 -27 33 -53 51
-76 56 -85 72 -119 8 -17 19 -34 25 -38 5 -3 10 -17 10 -30 0 -13 8 -40 17
-60 13 -27 14 -38 5 -47 -12 -12 -38 3 -115 65 -51 42 -169 130 -216 162 -53
36 -90 74 -111 114 -44 86 -209 418 -214 431 -3 8 -10 22 -15 30 -9 14 -50
100 -116 245 -15 33 -35 78 -45 100 -10 22 -30 69 -45 105 -14 36 -32 79 -40
95 -27 61 -43 101 -65 160 -12 33 -28 75 -36 93 -8 18 -14 43 -14 55 0 13 -5
28 -11 34 -13 13 -44 96 -60 156 -5 21 -13 45 -18 55 -9 17 -34 88 -51 147 -5
17 -20 62 -35 100 -15 39 -30 86 -35 105 -9 37 -21 74 -51 155 -11 28 -19 59
-19 70 0 12 -6 29 -14 40 -7 11 -16 37 -20 57 -4 20 -13 50 -21 65 -8 15 -15
39 -15 54 0 14 -5 30 -11 36 -6 6 -15 29 -19 50 -5 21 -16 61 -25 88 -33 98
-37 110 -45 145 -4 19 -15 52 -24 72 -9 21 -16 48 -16 60 0 13 -7 32 -15 42
-8 11 -15 34 -15 51 0 17 -6 39 -14 50 -7 11 -16 38 -20 60 -4 21 -14 52 -22
67 -8 15 -14 37 -14 50 0 13 -6 35 -14 49 -7 14 -16 43 -20 65 -4 21 -14 51
-22 66 -8 15 -14 39 -14 53 0 15 -6 39 -14 53 -7 15 -19 46 -25 70 -6 23 -16
61 -22 85 -6 23 -17 56 -24 72 -8 17 -16 47 -20 67 -3 20 -12 50 -20 65 -8 15
-15 39 -15 53 -1 14 -7 36 -15 50 -8 14 -14 36 -15 50 0 14 -7 38 -15 54 -8
16 -18 47 -21 70 -4 22 -12 47 -18 55 -6 8 -16 30 -22 50 l-11 36 -8 -29z
m1885 -4051 c24 -8 48 -22 54 -30 6 -8 31 -19 56 -24 57 -13 261 -13 320 0 25
5 126 16 225 24 99 8 230 19 290 24 131 12 356 5 549 -15 l140 -16 40 -40 c33
-33 113 -102 171 -146 19 -15 100 -49 145 -61 94 -25 225 -33 425 -26 258 9
290 8 343 -15 25 -11 54 -20 66 -20 28 0 141 -74 192 -127 25 -25 48 -62 58
-92 15 -48 20 -81 12 -81 -6 0 -49 24 -79 44 -39 26 -57 9 -38 -37 7 -17 19
-50 25 -72 7 -22 18 -53 25 -69 37 -90 19 -166 -40 -166 -29 0 -102 25 -162
56 -16 8 -34 14 -40 14 -7 0 -29 9 -50 20 -20 11 -45 20 -54 20 -10 0 -27 7
-37 15 -11 8 -27 15 -35 15 -9 1 -34 9 -56 20 -22 11 -46 19 -53 20 -8 0 -28
6 -45 13 -59 25 -162 57 -182 57 -11 0 -29 6 -40 14 -11 7 -42 17 -70 21 -27
4 -55 11 -61 16 -7 5 -36 12 -65 15 -30 3 -74 12 -99 19 -25 8 -72 18 -105 23
-33 6 -78 15 -100 21 -22 6 -60 11 -85 11 -25 0 -64 9 -87 20 -38 17 -43 24
-49 60 -5 31 -15 48 -42 68 -31 23 -44 27 -99 26 -72 -2 -104 -18 -134 -68
l-19 -33 -138 -7 c-75 -3 -162 -13 -192 -21 -30 -8 -75 -15 -101 -15 -26 0
-63 -7 -82 -15 -20 -8 -47 -15 -59 -15 -13 0 -36 -7 -53 -16 -16 -8 -70 -19
-120 -25 -49 -5 -107 -12 -127 -15 -46 -8 -67 11 -98 86 -13 30 -32 64 -42 76
-10 11 -18 28 -18 37 0 9 -4 18 -9 21 -5 4 -19 25 -30 49 -11 23 -36 66 -56
95 -19 30 -35 57 -35 61 0 5 -15 28 -34 53 -22 29 -33 52 -30 65 4 14 -2 23
-20 31 -16 7 -26 20 -26 32 0 24 5 24 60 5z m-112 -425 c4 0 29 -20 57 -45 27
-25 53 -45 56 -45 3 0 21 -21 39 -46 31 -44 32 -48 15 -60 -10 -7 -23 -15 -29
-17 -7 -2 -4 -10 7 -21 9 -10 17 -21 17 -25 0 -4 10 -13 23 -18 21 -10 21 -11
3 -19 -13 -5 -23 -2 -31 9 -7 10 -17 17 -23 17 -37 0 -152 108 -152 143 0 8
-7 20 -15 27 -8 7 -15 17 -15 22 0 5 -16 37 -36 70 -48 83 -39 100 27 48 28
-22 54 -40 57 -40z m272 -319 c0 -12 -21 -19 -42 -13 -29 7 -21 22 12 22 17 0
30 -4 30 -9z m263 -153 c10 -10 23 -18 29 -18 9 0 9 -3 0 -12 -8 -8 -20 -5
-47 13 -19 13 -35 29 -35 36 0 16 29 6 53 -19z m3637 -299 c0 -18 -23 -104
-30 -112 -3 -4 -23 -1 -43 8 -20 8 -47 15 -59 15 -13 0 -29 4 -36 9 -22 13 7
50 48 61 19 6 42 14 50 20 20 13 70 13 70 -1z m-3602 -63 c47 -50 41 -70 -11
-34 -37 26 -56 48 -57 66 0 24 27 11 68 -32z m127 -76 c4 -6 -5 -10 -19 -10
-14 0 -26 5 -26 10 0 6 9 10 19 10 11 0 23 -4 26 -10z m255 -71 c0 -5 -9 -9
-20 -9 -22 0 -27 16 -7 23 15 5 27 -1 27 -14z m240 -1349 c0 -5 -4 -10 -10
-10 -5 0 -10 5 -10 10 0 6 5 10 10 10 6 0 10 -4 10 -10z m212 -177 c4 -11 92
-53 110 -53 8 0 23 -7 34 -15 10 -8 30 -15 44 -15 14 0 43 -9 65 -20 22 -11
47 -19 56 -20 22 0 107 -38 142 -62 15 -11 34 -34 41 -52 21 -50 100 -97 203
-123 41 -10 132 -114 171 -195 2 -3 -7 -10 -20 -14 -27 -8 -110 -70 -121 -90
-10 -18 -37 -17 -61 1 -11 8 -28 15 -39 15 -38 0 -107 53 -203 157 -115 125
-215 232 -334 358 -120 126 -127 135 -107 135 8 0 17 -3 19 -7z m3958 -427 c5
-14 21 -32 35 -42 32 -21 32 -40 -5 -144 -16 -47 -30 -95 -30 -107 0 -46 -8
-53 -43 -35 -18 8 -39 18 -47 22 -21 10 -24 43 -7 82 28 64 57 165 57 200 0
53 23 67 40 24z"/>
</g>
</svg>
