<?xml version="1.0" encoding="UTF-8" standalone="no"?>
<!-- Created with Inkscape (http://www.inkscape.org/) -->

<svg
   xmlns:svg="http://www.w3.org/2000/svg"
   xmlns="http://www.w3.org/2000/svg"
   version="1.1"
   width="1473.6603"
   height="738.32965"
   id="svg2">
  <defs
     id="defs4" />
  <g
     transform="translate(72.660275,-142.02427)"
     id="layer1">
    <path
       d="m 385.98904,877.25501 c -1.08986,-1.7875 -1.98325,-3.7042 -1.9853,-4.2594 -0.002,-0.5552 -0.90374,-1.5715 -2.00374,-2.2585 -3.14646,-1.965 -2.6517,-8.3961 1.2205,-15.8645 2.70708,-5.2212 3.06248,-6.6607 2.22933,-9.0298 -0.54514,-1.5501 -1.82429,-2.9788 -2.84256,-3.1749 -2.00165,-0.3855 -9.60727,2.6764 -9.60727,3.8677 0,0.3997 -1.35,1.286 -3,1.9694 -1.65,0.6835 -3,1.8631 -3,2.6213 0,0.7583 -1.0125,1.4132 -2.25,1.4552 -1.2375,0.042 -2.925,0.2273 -3.75,0.4115 -6.60713,1.4753 -10,1.6695 -10,0.5724 0,-0.6593 -0.78462,-0.9742 -1.75,-0.7024 -7.03471,1.9807 -8.04463,1.8583 -8.65235,-1.0488 -0.32299,-1.5451 -0.66068,-5.4473 -0.75042,-8.6717 -0.18999,-6.8264 -2.16177,-9.4973 -8.43613,-11.4276 -6.67664,-2.054 -7.19044,-2.6884 -4.78774,-5.9118 3.50208,-4.6983 7.44835,-6.3299 16.92712,-6.9988 7.32697,-0.5171 8.79635,-0.9095 9.2011,-2.4573 0.26493,-1.0131 0.54805,-1.842 0.62917,-1.842 0.0811,0 2.61613,-0.9305 5.63337,-2.0679 3.01723,-1.1373 7.5729,-2.7148 10.1237,-3.5054 2.73012,-0.8462 6.6378,-3.2819 9.5,-5.9214 2.6742,-2.4662 5.14509,-4.4887 5.49086,-4.4946 0.34577,-0.01 1.18787,-1.3607 1.87132,-3.0107 0.68345,-1.65 1.63805,-3 2.12132,-3 0.48327,0 0.87868,-0.8688 0.87868,-1.9306 0,-2.2749 3.24712,-7.7778 7.61732,-12.9091 1.71452,-2.0132 3.45258,-4.78527 3.86234,-6.16027 0.40977,-1.375 1.78738,-3.625 3.06136,-5 1.27398,-1.375 2.62696,-3.75642 3.00662,-5.29204 0.37965,-1.53561 1.95025,-4.05201 3.49022,-5.59198 1.53998,-1.53997 3.28959,-4.78355 3.88804,-7.20796 1.23724,-5.01223 4.82666,-16.41423 6.10977,-19.40802 0.47144,-1.1 1.87008,-4.475 3.10809,-7.5 1.238,-3.025 2.52121,-5.725 2.85159,-6 0.33037,-0.275 1.89011,-2.75 3.4661,-5.5 1.57598,-2.75 3.12937,-5.225 3.45198,-5.5 1.74258,-1.4854 4.08657,-8.64083 4.08657,-12.47491 0,-2.42388 0.43904,-4.6784 0.97565,-5.01004 0.5366,-0.33164 2.63268,-3.6207 4.65795,-7.30902 2.02527,-3.68831 4.46415,-7.60603 5.41974,-8.70603 2.59628,-2.98863 8.99133,-15.95587 8.03404,-16.29062 -1.62221,-0.56726 3.62986,-11.17896 7.7394,-15.63728 2.29527,-2.49008 4.17322,-5.21247 4.17322,-6.04976 0,-0.83729 0.3375,-1.52585 0.75,-1.53014 0.4125,-0.004 1.30126,-1.19519 1.97502,-2.64644 1.10798,-2.38654 0.92677,-2.98291 -1.89678,-6.24219 -4.29571,-4.95864 -13.13442,-9.38354 -18.98826,-9.50605 -2.56301,-0.0536 -4.58801,-0.54752 -4.5,-1.09752 0.088,-0.55 -1.04933,-1.04502 -2.52742,-1.10005 -2.70424,-0.10068 -3.32061,1.27334 -4.30646,9.60005 -0.0977,0.825 -0.9265,3.24246 -1.84184,5.37212 -0.91535,2.12967 -1.66426,4.21291 -1.66426,4.62942 0,0.41651 -1.8,2.61207 -4,4.87902 -2.2,2.26695 -4,4.54229 -4,5.05631 0,0.51402 -2.475,3.37037 -5.5,6.34746 -3.025,2.97709 -5.5,6.06969 -5.5,6.87245 0,0.80276 -1.79245,2.78339 -3.98321,4.40139 -2.19077,1.61801 -4.2461,3.72933 -4.56739,4.69183 -0.3213,0.9625 -1.38003,1.75 -2.35274,1.75 -1.99985,0 -9.38194,7.72939 -8.59625,9.00067 0.28086,0.45444 -2.30433,3.69174 -5.74488,7.19401 -3.44054,3.50227 -8.68655,8.94122 -11.65779,12.08654 -2.97125,3.14533 -5.78375,5.71878 -6.25,5.71878 -0.46626,0 -0.8668,0.5625 -0.89009,1.25 -0.0233,0.6875 -1.37329,2.35389 -3,3.70309 -1.62671,1.3492 -2.95765,3.02632 -2.95765,3.72695 0,0.70062 -1.05365,1.96423 -2.34144,2.80802 -3.25137,2.13038 -9.49675,11.45289 -10.27312,15.33473 -0.35407,1.77036 -1.03564,3.46102 -1.5146,3.75704 -0.47896,0.29601 -0.87084,1.47543 -0.87084,2.62092 0,2.16033 -4.31893,6.94019 -7.307,8.08681 -0.94135,0.36124 -1.65409,1.00681 -1.58385,1.43461 0.33953,2.06819 -0.27783,3.19659 -2.058,3.76159 -1.07186,0.3402 -2.21394,1.45377 -2.53794,2.4746 -0.32399,1.02084 -2.14265,3.81032 -4.04144,6.19885 -1.8988,2.38853 -3.45673,5.28029 -3.46206,6.42612 -0.005,1.14584 -0.34721,2.42068 -0.75971,2.83298 -0.81722,0.81684 -0.87198,1.33823 -1.36177,12.96546 -0.29485,6.9994 -0.64305,8.2147 -3.11012,10.8558 -1.52796,1.6356 -2.77811,3.9822 -2.77811,5.2145 0,2.0147 -1.67687,6.4696 -3.97035,10.5479 -0.46395,0.825 -1.30254,1.3985 -1.86355,1.2744 -0.56101,-0.1241 -1.60084,1.0865 -2.31074,2.6903 -1.83244,4.1397 -4.34175,4.4344 -7.34707,0.8628 -1.37956,-1.6395 -2.50829,-3.3615 -2.50829,-3.8266 0,-0.4652 -1.49584,-1.3394 -3.32408,-1.9428 -3.68887,-1.2175 -7.30001,-6.9202 -6.85407,-10.824 0.37584,-3.2901 -2.18755,-3.7666 -6.93934,-1.2899 -2.27194,1.1842 -6.43743,2.3603 -9.25665,2.6135 -12.19609,1.0954 -15.63095,1.6415 -16.20937,2.5775 -0.37135,0.6008 -1.34319,0.3361 -2.45275,-0.668 -1.01074,-0.9147 -2.32871,-1.3596 -2.92881,-0.9888 -0.6001,0.3709 -2.38307,0.8379 -3.96214,1.0377 -2.24393,0.284 -2.99109,-0.096 -3.42058,-1.738 -0.30224,-1.1558 -0.15403,-2.8404 0.32936,-3.7436 2.16375,-4.043 -1.36744,-4.9179 -21.73157,-5.3842 -2.3375,-0.053 -4.25,-0.4467 -4.25,-0.8738 0,-0.4271 -0.64468,-0.7765 -1.43261,-0.7765 -2.08674,0 -2.86807,-3.5157 -1.36493,-6.1417 1.89822,-3.31623 5.0972,-5.8699 6.66028,-5.31676 1.82144,0.64457 8.13726,-3.33176 8.13726,-5.12307 0,-0.81502 -0.98221,-1.41844 -2.30887,-1.41844 -2.28065,0 -6.65495,-2.47632 -5.68956,-3.2209 2.82962,-2.18239 6.37792,-3.7791 8.39815,-3.7791 1.35854,0 3.73688,-0.49689 5.28518,-1.1042 1.54831,-0.60731 6.56762,-1.09891 11.15404,-1.09245 6.97586,0.01 8.60592,-0.30005 9.97224,-1.8958 0.89832,-1.04915 2.29786,-1.90755 3.1101,-1.90755 1.80856,0 10.62833,-9.24264 12.82714,-13.44215 0.88058,-1.68182 1.75292,-4.38019 1.93854,-5.99638 0.53635,-4.67008 2.31664,-10.56147 3.19152,-10.56147 0.44077,0 1.37562,-1.9125 2.07744,-4.25 0.70182,-2.3375 1.74311,-5.52292 2.31398,-7.07872 0.57088,-1.55579 1.13405,-4.05032 1.25151,-5.54339 0.11745,-1.49307 0.91188,-4.0651 1.7654,-5.71563 0.85352,-1.65052 2.26389,-5.7488 3.13417,-9.10729 0.87027,-3.3585 2.94902,-8.86097 4.61944,-12.22772 1.67042,-3.36675 2.95963,-6.67394 2.86491,-7.34931 -0.26803,-1.91115 1.2641,-7.72794 2.03553,-7.72794 0.37997,0 1.63159,-1.6875 2.78138,-3.75 1.79945,-3.22786 2.92043,-8.89753 3.80601,-19.25 0.33337,-3.89719 0.38315,-4 1.93657,-4 2.20474,0 4.10819,-4.02783 2.40182,-5.08242 -1.05391,-0.65135 -0.86253,-1.27275 0.89676,-2.91178 1.23013,-1.14604 2.2366,-2.74118 2.2366,-3.54476 0,-0.80357 0.34274,-1.46104 0.76164,-1.46104 0.4189,0 2.10461,-4.1625 3.74604,-9.25 2.85612,-8.85243 7.68034,-18.48168 10.93041,-21.81738 0.90401,-0.92784 1.16369,-1.94793 0.6364,-2.5 -1.25816,-1.31732 -4.80759,-7.33812 -6.59247,-11.18262 -0.82987,-1.7875 -1.89823,-3.25 -2.37412,-3.25 -0.47589,0 -1.42445,-1.35 -2.1079,-3 -0.68345,-1.65 -1.57659,-3 -1.98476,-3 -0.40816,0 -1.94699,-2.68483 -3.41962,-5.96629 -1.47264,-3.28146 -3.11643,-6.23755 -3.65288,-6.5691 -0.53645,-0.33154 -0.74561,-0.97456 -0.4648,-1.42892 0.28082,-0.45437 -0.16184,-1.08415 -0.98368,-1.39952 C 310.67242,551.82584 310,550.94782 310,550.19005 c 0,-2.20258 -7.8655,-17.68501 -8.98447,-17.68501 -0.55854,0 -1.01553,-0.9 -1.01553,-2 0,-1.1 -0.3596,-2 -0.79911,-2 -0.68452,0 -3.10601,-5.39316 -3.81644,-8.5 -0.12577,-0.55 -0.93385,-3.25 -1.79574,-6 -0.86188,-2.75 -1.57193,-6.17888 -1.57789,-7.61973 -0.006,-1.44085 -0.95705,-5.49085 -2.11356,-9 -1.36481,-4.1412 -2.10656,-8.97536 -2.11361,-13.77503 -0.01,-6.79567 -0.24058,-7.61931 -2.84624,-10.16642 -1.55945,-1.52441 -3.75832,-3.06459 -4.88638,-3.42263 C 278.92296,469.6632 278,468.99937 278,468.54606 c 0,-0.45331 -1.0125,-1.09221 -2.25,-1.41978 -1.2375,-0.32756 -3.52275,-1.61385 -5.07834,-2.8584 -7.07781,-5.66267 -8.37347,-6.58495 -11.51192,-8.1945 -1.83714,-0.94218 -3.96361,-1.47384 -4.72549,-1.18148 -1.75097,0.67191 -8.67669,-2.15391 -9.71736,-3.96486 -0.43071,-0.74951 -2.52753,-1.83247 -4.65961,-2.40658 -2.88857,-0.77781 -5.4268,-2.79248 -9.95966,-7.90531 -3.34574,-3.77381 -7.54892,-7.4562 -9.34039,-8.18307 -1.79148,-0.72688 -4.93416,-2.89053 -6.98375,-4.80812 -2.04959,-1.9176 -4.56987,-3.54867 -5.60062,-3.6246 -1.03075,-0.0759 -2.95382,-1.1469 -4.27348,-2.37991 -3.13315,-2.92742 -12.457,-9.11441 -13.73551,-9.11441 -0.54846,0 -1.1472,-0.3375 -1.33054,-0.75 -0.58004,-1.30509 -9.65286,-5.47957 -10.61582,-4.88443 -0.50694,0.3133 -2.63896,-0.30586 -4.73783,-1.37593 -2.09888,-1.07007 -5.42793,-2.479 -7.39791,-3.13097 -1.96997,-0.65196 -3.01927,-1.37438 -2.33177,-1.60536 2.35049,-0.78972 1.25017,-2.15964 -3.5,-4.3576 -3.77089,-1.74483 -6.33707,-2.15728 -12.44941,-2.00094 -4.46825,0.11429 -12.14841,-0.66164 -18.30077,-1.84892 -5.83074,-1.12522 -10.75102,-2.04585 -10.93395,-2.04585 -0.18294,0 -0.55163,0.83753 -0.81932,1.86118 -0.41972,1.60501 -1.08957,1.76195 -4.86663,1.14024 -2.40896,-0.39652 -5.68454,-1.07468 -7.27907,-1.50703 -2.09255,-0.56737 -2.70081,-0.46514 -2.18625,0.36744 2.24589,3.63392 -7.638384,5.76916 -13.063124,2.82195 -5.08962,-2.76514 -12.04654,-4.58872 -13.18036,-3.4549 -0.57018,0.57018 -1.62943,0.80923 -2.3539,0.53122 -0.72447,-0.278 -1.76722,-0.61141 -2.31722,-0.74091 -0.55,-0.12949 -2.64124,-0.89214 -4.64719,-1.69476 -2.00596,-0.80263 -4.255956,-1.34037 -4.999996,-1.19499 C 62.10876,388.77986 58.8,387.63102 55.5,386.08152 43.85339,380.61288 28.69995,375.26087 26.106,375.69991 c -0.99154,0.16782 -2.88352,-0.20782 -4.2044,-0.83476 -1.32088,-0.62694 -4.4266,-1.69024 -6.9016,-2.3629 -2.475,-0.67265 -5.8406603,-2.1847 -7.4792603,-3.3601 -4.02171,-2.8849 -6.29288,-4.22083 -11.02074,-6.48254 -2.2,-1.05244 -5.09094,-3.09276 -6.42431,-4.53405 -1.3333797,-1.44128 -3.0596397,-2.62052 -3.8361397,-2.62052 -4.21447,0 -22.74769,-20.79093 -23.82524,-26.72764 -1.02824,-5.66496 -3.72924,-10.28924 -8.82709,-15.1125 -5.04569,-4.7739 -5.52891,-6.8555 -3.17098,-13.65986 1.29185,-3.72794 1.67413,-4.02137 5.62049,-4.31412 5.63275,-0.41786 7.01502,-2.05428 7.34891,-8.70009 0.34133,-6.79369 1.57814,-8.37832 5.07758,-6.50547 1.377,0.73695 2.75723,2.28035 3.06718,3.42979 0.9488,3.51861 5.8713,16.0586 6.51227,16.58989 0.33177,0.275 0.89377,1.2875 1.24889,2.25 0.35512,0.9625 1.44729,1.74749 2.42706,1.74442 3.07141,-0.01 9.2813797,-2.04456 9.2813797,-3.04142 0,-2.02119 1.92924,-0.80356 3.97728,2.51023 1.82659,2.95549 2.55088,3.38114 4.94021001,2.90327 2.43124999,-0.48625 3.10767999,-0.0536 5.13837999,3.28677 3.06877,5.04787 3.20875,5.11718 9.2560103,4.58277 6.22233,-0.54987 13.46316,-3.48622 14.36,-5.82336 1.47932,-3.85505 -4.9875,-17.34578 -8.33855,-17.3954 -0.64166,-0.01 -1.31666,-0.37495 -1.5,-0.8121 -0.94298,-2.24851 -9.2362203,-5.20551 -14.6141203,-5.21076 -6.57128,-0.006 -12.61775,-1.47017 -16.2192097,-3.92645 -3.71078,-2.53083 -10.14727,-4.11069 -14.88725,-3.65414 -3.6302,0.34967 -4.11534,0.16969 -3.63364,-1.34802 0.79725,-2.5119 -2.67069,-6.45366 -11.27844,-12.81939 -4.11354,-3.04211 -9.16385,-7.26705 -11.2229,-9.38876 -2.05905,-2.12171 -4.44595,-3.85766 -5.30421,-3.85766 -0.85827,0 -2.35795,-1.35 -3.33263,-3 -0.97468,-1.65 -2.07286,-3 -2.44039,-3 -0.96934,0 -4.58396,-9.32205 -6.97248,-17.98193 -2.92478,-10.60417 -2.34027,-12.45168 6.28112,-19.85349 3.94917,-3.39052 7.68924,-6.16458 8.31125,-6.16458 0.62202,0 2.13811,-1.07208 3.36909,-2.3824 1.32292,-1.40819 3.94995,-2.65141 6.42431,-3.04025 2.3024,-0.36182 6.28393,-1.74829 8.84786,-3.08105 4.11795,-2.14056 6.39243,-2.48918 19.5,-2.98892 8.16107,-0.31115 16.6383097,-1.05202 18.83830971,-1.64638 2.19999999,-0.59436 8.45925999,-1.03569 13.90947029,-0.98073 5.45021,0.0549 10.43875,-0.33934 11.08564,-0.87621 0.64689,-0.53687 6.31263,-1.21484 12.59053,-1.5066 6.2779,-0.29176 12.98936,-0.93206 14.91436,-1.42289 12.71261,-3.24144 20.013856,-3.86648 30.712966,-2.62923 3.41713,0.39516 6.76503,0.37727 7.43978,-0.0397 0.67475,-0.41701 2.82892,-0.87955 4.78703,-1.02785 1.95812,-0.1483 6.659144,-0.97492 10.446714,-1.83692 3.78757,-0.86201 10.31257,-1.7883 14.5,-2.05843 4.18743,-0.27013 12.33851,-0.93999 18.11351,-1.48859 5.775,-0.54859 15.73974,-1.17614 22.14387,-1.39455 6.40413,-0.21841 12.59163,-0.69791 13.75,-1.06557 1.24357,-0.39469 2.10613,-0.23131 2.10613,0.39893 0,1.69128 16.8921,1.32893 22.07186,-0.47345 5.39446,-1.87709 7.60503,-3.69346 11.17387,-9.18127 1.51016,-2.32217 4.01277,-4.87732 5.56136,-5.67813 1.54859,-0.80081 4.13801,-2.95745 5.75427,-4.79253 3.95298,-4.48818 10.74665,-8.76572 14.64225,-9.21929 7.71585,-0.89838 14.65585,7.14256 13.94922,16.16206 -0.18313,2.3375 0.0762,4.25 0.57629,4.25 0.97989,0 0.77999,8.36722 -0.2393,10.01646 -0.33953,0.54939 -0.0261,1.55793 0.69642,2.24121 1.4123,1.33551 7.65467,3.74233 9.70619,3.74233 0.68773,0 1.92543,0.675 2.75043,1.5 2.13807,2.13808 5.00136,1.85578 7.60714,-0.75 1.2375,-1.2375 2.60839,-2.13054 3.04643,-1.98452 0.43804,0.14601 2.28051,-0.86649 4.09439,-2.25 1.81388,-1.38352 3.70549,-2.52549 4.20357,-2.53772 0.49809,-0.0122 2.03061,-0.90222 3.40561,-1.97776 1.375,-1.07554 3.2875,-1.96553 4.25,-1.97776 0.9625,-0.0122 1.75,-0.4241 1.75,-0.91525 0,-2.34028 15.82225,-4.52792 21.61086,-2.988 5.87252,1.56226 12.30663,4.85833 13.37292,6.85069 0.97555,1.82285 0.17165,6.04681 -1.82681,9.59871 -1.5654,2.7822 -5.30837,11.50436 -6.19309,14.43161 -0.41557,1.375 -1.04932,3.21902 -1.40833,4.09783 -0.51423,1.25877 0.5777,1.97949 5.14586,3.3965 3.18922,0.98928 8.02031,2.85776 10.73574,4.15218 2.71544,1.29442 5.86544,2.36038 7,2.3688 1.66152,0.0123 1.77665,0.19631 0.59181,0.94563 -1.97193,1.24709 -0.98883,2.03599 3.90842,3.13632 2.25121,0.50582 6.89875,2.22379 10.32786,3.81773 3.42912,1.59393 7.79186,3.22166 9.69499,3.61717 1.90313,0.3955 5.05313,1.5319 7,2.52531 1.94687,0.99342 4.88977,2.05081 6.53977,2.34976 1.65,0.29895 5.475,1.2507 8.5,2.11501 3.28026,0.93724 10.74667,1.71458 18.5,1.92608 11.68451,0.31872 13.86013,0.67713 21.5,3.54188 4.675,1.753 11.425,3.55974 15,4.01498 3.575,0.45524 10.07225,1.76531 14.43834,2.91127 4.36608,1.14595 9.54108,2.08946 11.5,2.09669 1.95891,0.007 7.83666,0.90131 13.06166,1.98686 5.225,1.08555 12.65,1.98279 16.5,1.99387 3.85,0.0111 10.6,0.86867 15,1.90576 4.4,1.03709 12.05,2.44236 17,3.12283 4.95,0.68046 10.125,1.66688 11.5,2.19204 1.375,0.52515 5.65,1.61688 9.5,2.42606 12.03107,2.52865 13.91571,3.05218 17,4.72248 1.65,0.89355 3.675,1.63556 4.5,1.64891 0.825,0.0134 3.9344,1.36613 6.90977,3.00617 2.97537,1.64003 6.18555,2.98188 7.13373,2.98188 0.94818,0 4.6814,2.025 8.29604,4.5 3.61463,2.475 6.83481,4.5 7.15594,4.5 0.32113,0 5.40352,2.86394 11.2942,6.36431 18.22475,10.82955 24.96899,14.39671 31.45526,16.63732 3.44028,1.1884 7.83006,3.0005 9.75506,4.02689 1.925,1.02638 8,2.85473 13.5,4.06298 5.5,1.20825 10.45,2.53346 11,2.9449 2.02845,1.51743 14.44228,7.82467 22.59823,11.48175 4.62097,2.07201 9.52677,4.51557 10.90177,5.43012 4.34213,2.88808 16.23969,7.00412 23.37556,8.08692 6.95426,1.05525 10.87776,2.61366 15.86716,6.30242 1.60467,1.18636 5.23239,2.3213 8.74288,2.73522 4.69205,0.55324 6.77233,1.38545 9.54207,3.81732 1.94806,1.71042 4.20427,3.10985 5.01381,3.10985 0.80954,0 6.62408,2.925 12.9212,6.5 6.29713,3.575 11.7133,6.5 12.03594,6.5 0.32264,0 8.10494,2.97011 17.294,6.60025 11.72108,4.63039 18.70758,8.04752 23.40948,11.44954 8.1845,5.92192 10.4983,7.1381 21.7453,11.43012 4.8637,1.85609 10.8906,4.30742 13.393,5.4474 2.5024,1.13998 4.9513,2.07269 5.4419,2.07269 0.4907,0 3.3279,1.73613 6.3049,3.85807 5.2933,3.77288 26.7224,15.14193 28.5405,15.14193 0.5048,0 3.1933,1.49854 5.9744,3.33009 2.7811,1.83156 9.4604,5.53058 14.843,8.22006 5.3826,2.68948 10.0315,5.57843 10.3308,6.4199 0.9947,2.79602 4.0253,4.9588 10.6836,7.62431 7.7802,3.11461 16.28709,8.51318 22.54049,14.30436 2.475,2.29207 7.6883,5.72325 11.5851,7.62483 4.3931,2.14371 7.4963,4.35971 8.1672,5.83206 1.05191,2.30878 9.19561,9.64439 10.70681,9.64439 0.4142,0 2.4576,1.35 4.5409,3 2.0833,1.65 4.2856,3 4.8939,3 0.6084,0 1.1061,0.39752 1.1061,0.88337 0,0.48585 0.7875,1.15522 1.75,1.48749 4.5434,1.56845 16.9171,12.01367 21.6241,18.25393 2.8193,3.73757 7.6009,8.74845 10.6259,11.1353 8.8071,6.94912 17.7234,14.2545 20.2409,16.58385 1.2816,1.18583 5.5767,4.56116 9.5446,7.50072 3.968,2.93956 7.2145,5.6848 7.2145,6.10052 0,0.65596 3.7134,3.30863 12.6756,9.05482 1.2867,0.825 2.5936,2.2943 2.9041,3.26511 0.3106,0.9708 2.2987,3.6708 4.4181,6 2.1193,2.32919 4.9973,5.92091 6.3954,7.98161 4.9328,7.27035 7.141,10.29471 10.407,14.25328 5.0281,6.09428 5.1998,6.34059 5.1998,7.45779 0,0.57322 0.4056,1.04221 0.9012,1.04221 1.0693,0 5.0988,6.58256 5.0988,8.32932 0,0.66824 1.3792,2.88822 3.0649,4.93328 1.6857,2.04505 2.7648,4.20398 2.3979,4.79761 -0.6785,1.09783 4.8287,12.35129 7.2239,14.76122 1.3213,1.32949 1.4873,2.22648 1.8172,9.82021 0.099,2.2779 1.1315,6.065 2.2945,8.41577 1.1631,2.35078 1.8564,4.69209 1.5407,5.20291 -0.3157,0.51082 -0.6956,3.47372 -0.8442,6.58422 -0.2793,5.84481 2.2741,15.88227 5.5088,21.65546 3.8751,6.91618 9.9963,19.22035 9.9963,20.09353 0,0.51821 1.1431,2.62449 2.5403,4.68063 1.3972,2.05613 4.367,7.35001 6.5996,11.76418 5.2349,10.35051 9.1253,15.29589 21.3601,27.15279 6.9619,6.74685 11.7445,10.48973 15.7421,12.3197 3.1582,1.44571 6.3461,3.49085 7.0843,4.54475 0.7382,1.0539 3.3292,2.61539 5.7579,3.46997 2.4286,0.85458 6.0794,2.88803 8.1129,4.51877 4.4874,3.5988 8.019,5.0704 13.3028,5.5431 2.2,0.1968 7.1254,0.8757 10.9454,1.5085 3.82,0.6329 14.8784,1.2077 24.5741,1.2774 l 17.6287,0.1267 3.715,-2.8307 c 3.3006,-2.515 17.9178,-7.41615 24.2323,-8.12511 1.1526,-0.1294 3.0049,-1.14457 4.1162,-2.25593 1.1114,-1.11136 4.2184,-2.78292 6.9045,-3.71458 4.5583,-1.58103 8.1279,-3.30494 20.9772,-10.13095 3.0352,-1.61239 5.7768,-3.97474 6.7845,-5.84596 1.0843,-2.01327 3.4316,-3.93862 6.5411,-5.36512 3.618,-1.65982 5.2969,-3.17831 6.6096,-5.97831 0.9679,-2.06435 2.3699,-4.11322 3.1156,-4.55305 0.7457,-0.43983 1.3558,-1.67733 1.3558,-2.75 0,-1.21141 0.682,-1.95031 1.8,-1.95031 0.99,0 2.2947,-0.4947 2.8993,-1.09934 0.6047,-0.60463 2.0447,-0.79931 3.2,-0.43261 2.015,0.63953 2.1007,1.29783 2.1007,16.13983 0,14.15659 -0.1789,15.71509 -2.1027,18.31713 -1.1565,1.56422 -2.4052,4.32323 -2.7749,6.13114 -0.4833,2.363 -1.5748,3.73083 -3.8825,4.86548 -1.7656,0.86809 -3.4722,2.36589 -3.7925,3.32839 -0.3202,0.9625 -0.9672,1.75 -1.4379,1.75 -0.4706,0 -2.2057,1.35 -3.8557,3 -1.65,1.65 -3.3855,3 -3.8567,3 -0.4712,0 -4.9295,3.7125 -9.9074,8.25 -5.869,5.3498 -10.4285,8.6596 -12.9702,9.4152 -2.1557,0.6409 -7.7445,2.5905 -12.4195,4.3325 -8.4141,3.1354 -14.2821,4.8856 -23,6.8601 -2.475,0.5605 -6.975,1.626 -10,2.3678 -3.8257,0.938 -12.3494,1.3329 -28,1.2972 -13.7124,-0.031 -22.7719,0.3337 -23.1961,0.9347 -0.4515,0.6396 -2.3012,0.5568 -5.2644,-0.2357 -2.5125,-0.672 -8.7242,-1.2234 -13.8039,-1.2253 -7.8639,0 -10.2828,-0.4301 -16.2865,-2.8768 -3.878,-1.5803 -8.5529,-3.2033 -10.3887,-3.6065 -3.6536,-0.8024 -13.3882,-5.7908 -16.5604,-8.4861 -2.4675,-2.0965 -12.2601,-8.0255 -13.265,-8.0314 -0.4043,0 -2.985,-2.0518 -5.735,-4.5542 -2.75,-2.5024 -7.4453,-6.6629 -10.4341,-9.2457 -2.9887,-2.5827 -6.1517,-5.46143 -7.029,-6.39717 -3.6826,-3.92833 -33.2623,-22.78347 -38.2216,-24.36383 -6.8883,-2.19505 -11.8459,-4.51143 -14.2003,-6.63496 -3.9338,-3.54787 -8.842,-4.89483 -22.5652,-6.19254 -7.7021,-0.72833 -14.5766,-1.78705 -15.2768,-2.35271 -0.7001,-0.56566 -3.1814,-1.34322 -5.5139,-1.72791 -2.3325,-0.38469 -5.9325,-1.50913 -8,-2.49876 -4.9809,-2.38415 -13.798,-3.58303 -14.7711,-2.00845 -0.4819,0.77958 -3.0968,1.05973 -7.7377,0.82901 -5.7437,-0.28555 -7.2048,-0.0429 -8.0881,1.34296 -1.361,2.13522 1.2501,5.32053 5.1614,6.29651 1.472,0.36732 3.4355,1.35187 4.3634,2.1879 0.9278,0.83603 2.1709,1.22094 2.7625,0.85537 0.5915,-0.36558 3.6573,0.55544 6.813,2.04671 14.7275,6.95979 33.6846,16.51753 34.1838,17.23469 0.3045,0.43749 2.5183,1.80353 4.9194,3.03564 7.9425,4.07563 8.4409,5.21886 8.3499,19.15174 -0.055,8.4827 -2.4221,17.6123 -6.6103,25.5 -0.8761,1.65 -1.6035,3.45 -1.6164,4 -0.013,0.55 -1.0859,2.007 -2.3844,3.2377 -2.6549,2.5164 -4.5968,9.0122 -4.6201,15.4551 -0.01,2.3689 -0.7238,7.0072 -1.5892,10.3072 -0.8655,3.3 -2.1199,10.5 -2.7875,16 -1.9223,15.8366 -6.2793,21.8759 -10.4042,14.4214 -0.9369,-1.6931 -3.166,-5.3905 -4.9535,-8.2162 -1.7875,-2.8258 -3.25,-5.9466 -3.25,-6.9351 0,-0.9885 -0.529,-2.6443 -1.1755,-3.6796 -1.7221,-2.7574 -3.8193,-0.254 -3.8438,4.588 -0.05,9.9195 -4.9107,19.0578 -9.5212,17.9007 -1.9485,-0.4891 -2.6878,-0.039 -3.9537,2.4096 -0.8565,1.6562 -2.1081,2.9936 -2.7815,2.9722 -1.5835,-0.05 -7.6238,-8.1069 -10.3399,-13.7911 -1.6663,-3.4871 -1.9368,-5.1968 -1.2739,-8.0488 1.1382,-4.8961 1.1113,-5.1211 -0.6105,-5.1211 -0.825,0 -1.5,0.678 -1.5,1.5066 0,0.8286 -1.125,2.4848 -2.5,3.6803 -1.375,1.1956 -2.5,2.7997 -2.5,3.5648 0,1.7525 -2.5441,4.3708 -3.4078,3.5072 -0.3552,-0.3553 -2.0337,0.8736 -3.73,2.7308 l -3.0841,3.3766 -5.52411,-1.1587 c -3.0383,-0.6373 -5.9389,-0.9023 -6.4459,-0.589 -0.507,0.3133 -1.9661,0.3075 -3.2426,-0.013 -4.3119,-1.0822 -7.7765,-15.0879 -4.42,-17.868 0.8219,-0.6808 2.2979,-2.5319 3.2799,-4.1136 1.3926,-2.2428 1.5072,-3.0479 0.5208,-3.6575 -1.6463,-1.0174 -3.8494,-0.2062 -6.9462,2.5577 -5.2532,4.6884 -9.3801,5.5691 -14.2331,3.0375 -1.5258,-0.796 -2.98069,-1.025 -3.29379,-0.5185 -0.5965,0.9652 -5.4711,0.6939 -7.2465,-0.4034 -1.3078,-0.8082 0.2962,-7.3781 2.3728,-9.7188 2.9554,-3.3312 1.6307,-4.4241 -6.5994,-5.4446 -5.9941,-0.7432 -7.6762,-2.4357 -6.1233,-6.1609 0.9027,-2.1653 3.1338,-3.7137 9.6584,-6.7027 4.6665,-2.1379 9.26769,-3.9808 10.22469,-4.0954 4.1572,-0.4978 8.2402,-1.8406 8.2402,-2.71 0,-0.5183 0.9173,-0.6513 2.0384,-0.2954 1.3894,0.4409 3.682,-0.4077 7.2001,-2.6653 2.8389,-1.8217 5.6341,-3.344 6.2116,-3.3829 2.9453,-0.1984 7.2504,-1.9542 8.8389,-3.605 0.98391,-1.0224 2.19821,-1.859 2.69841,-1.859 1.5418,0 6.0126,-4.6416 6.0126,-6.2423 0,-1.9074 -2.5931,-4.1272 -3.8871,-3.3275 -0.5361,0.3313 -1.2581,0.1439 -1.6044,-0.4165 -0.6632,-1.073 -7.27161,-4.2497 -11.50851,-5.5321 -1.375,-0.4162 -3.5732,-1.5948 -4.8849,-2.6192 -1.3116,-1.0243 -2.7929,-1.8624 -3.2918,-1.8624 -0.4988,0 -1.8726,-0.8997 -3.053,-1.9994 -1.1803,-1.0996 -3.4115,-2.5594 -4.9581,-3.2441 -1.5467,-0.6846 -2.8122,-1.53241 -2.8122,-1.884 0,-0.35159 -0.7875,-0.90368 -1.75,-1.22686 -0.9625,-0.32318 -2.425,-0.99851 -3.25,-1.50074 -3.75549,-2.28623 -7.46319,-3.61783 -9.23729,-3.31753 -1.0638,0.18006 -2.6831,-0.3437 -3.5984,-1.16391 -1.7586,-1.57577 -21.1356,-11.65838 -22.4116,-11.6616 -0.4111,-10e-4 -3.5611,-1.28164 -7,-2.8458 -8.5491,-3.88839 -15.081,-6.65542 -15.7203,-6.65934 -0.2928,-0.002 -2.1499,-1.2393 -4.1268,-2.75 -1.9769,-1.51071 -3.8943,-2.74674 -4.2609,-2.74674 -0.3666,0 -2.5741,-0.83232 -4.9056,-1.84961 -2.3315,-1.01729 -6.9391,-2.89945 -10.2391,-4.18258 -6.1391,-2.38704 -12.9228,-5.49077 -19.9699,-9.13671 -3.495,-1.80825 -4.691,-1.93616 -10,-1.06951 -3.3165,0.54141 -10.0679,1.06687 -15.0031,1.1677 -4.9351,0.10082 -9.1407,0.35111 -9.3458,0.5562 -0.2051,0.20508 -0.4248,4.34225 -0.4882,9.1937 -0.1295,9.90175 1.5777,19.26069 3.818,20.93105 0.8189,0.61064 1.489,2.29977 1.489,3.75363 0,1.45386 0.9,4.32258 2,6.37495 1.1,2.05236 2,4.24004 2,4.86151 0,0.62147 0.9052,2.28078 2.0117,3.68736 1.965,2.49823 1.9711,2.68883 0.2632,8.23533 -1.9521,6.3395 -3.6565,7.8956 -12.5013,11.4129 -4.6329,1.8424 -8.1654,2.35 -18.49997,2.6585 -7.0255,0.2097 -13.73464,0.6074 -14.90921,0.8838 -1.17457,0.2763 -2.65548,-0.124 -3.29092,-0.8897 -0.98694,-1.1892 -2.03588,-1.1866 -7.19665,0.017 -3.32271,0.7752 -8.25538,2.3619 -10.96147,3.526 -3.74614,1.6115 -7.00749,2.1212 -13.66778,2.1358 -11.43981,0.025 -12.63588,-0.3232 -13.26065,-3.8618 l -0.51304,-2.9058 -9.98696,-0.027 c -5.49282,-0.015 -10.5391,0.3694 -11.21395,0.8534 -0.72054,0.5167 -3.60986,0.3989 -7,-0.2854 -3.17515,-0.6409 -7.348,-1.4139 -9.273,-1.7178 -1.925,-0.3039 -4.175,-1.1409 -5,-1.8599 -0.825,-0.719 -3.04034,-1.455 -4.92299,-1.6355 -1.88264,-0.1805 -3.61445,-0.9111 -3.84845,-1.6235 -0.47244,-1.4384 8.00992,-10.1577 10.00638,-10.2859 0.69578,-0.045 2.39006,-0.2577 3.76506,-0.4735 1.375,-0.2157 3.85,-0.6038 5.5,-0.8624 8.889,-1.3934 15.53707,-2.87913 15.05234,-3.36387 -0.51833,-0.51833 2.15285,-1.62301 13.94766,-5.76816 6.69944,-2.35444 11.85239,-4.74605 12.67003,-5.88047 0.36852,-0.51129 1.26852,-1.0176 2,-1.12513 0.73148,-0.10753 3.4832,-0.92669 6.11492,-1.82037 2.63172,-0.89368 5.36307,-1.62487 6.06966,-1.62487 0.7066,0 2.27867,-1.14315 3.49351,-2.54033 1.93672,-2.22743 2.04027,-2.78093 0.84064,-4.49364 -0.75248,-1.07432 -1.66529,-1.65617 -2.02845,-1.293 C 773.29714,749.54044 773,748.71601 773,747.34522 c 0,-1.37329 -1.13573,-3.55932 -2.52947,-4.86867 -1.39121,-1.30697 -2.30437,-2.96293 -2.02924,-3.6799 0.27512,-0.71697 -0.86107,-3.61235 -2.52488,-6.43418 -1.66381,-2.82184 -4.38024,-7.8151 -6.03651,-11.09615 -2.90377,-5.75234 -3.13413,-5.95121 -6.44565,-5.56461 -1.88884,0.22051 -3.43425,0.0913 -3.43425,-0.28722 0,-1.01443 -24.5512,-6.84593 -52.5,-12.47 -7.15,-1.43878 -13.9,-3.01173 -15,-3.49544 -1.1,-0.48371 -6.275,-1.84815 -11.5,-3.03209 -10.69034,-2.42235 -24,-7.59967 -24,-9.33576 0,-1.95611 -5.22082,-4.35083 -12.00441,-5.50625 -8.7323,-1.48733 -17.27173,-4.03716 -18.49559,-5.52268 -0.55,-0.66759 -4.375,-2.21651 -8.5,-3.44205 -4.125,-1.22554 -9.975,-3.13554 -13,-4.24444 -8.0778,-2.96115 -15.22253,-4.84204 -16.16957,-4.25674 -0.45674,0.28228 -0.83043,0.0892 -0.83043,-0.42915 0,-1.84284 -4.31026,-2.13241 -5.62268,-0.37774 -2.26899,3.03356 -13.84168,23.54517 -13.90182,24.63981 -0.10263,1.86776 -2.77106,6.92417 -6.1725,11.69626 -1.81665,2.54868 -3.31722,5.02368 -3.3346,5.5 -0.0615,1.686 -4.9874,6.47231 -6.01037,5.84008 -1.09593,-0.67732 -3.68143,2.14498 -8.17651,8.92537 -5.68329,8.57269 -7.32762,10.54634 -8.80884,10.57304 -2.82617,0.0509 -9.97268,9.73119 -9.97268,13.50842 0,0.86912 -1.51955,2.91439 -3.37677,4.54506 -1.85723,1.63066 -3.93682,4.31692 -4.62132,5.96945 -1.05459,2.546 -3.71393,3.91368 -5.35611,2.7546 -0.19481,-0.1375 -1.65731,1.30474 -3.25,3.20497 -1.59269,1.90023 -4.38919,5.05023 -6.21444,7 -1.82526,1.94977 -3.71272,4.52098 -4.19437,5.7138 -0.48165,1.1928 -2.13826,2.7858 -3.68136,3.54 -1.65818,0.8104 -2.69232,2.0407 -2.52858,3.0081 0.17777,1.0504 -0.5389,1.7527 -2,1.96 -1.47303,0.209 -2.92405,1.6472 -4.10941,4.0731 -1.00779,2.0625 -2.24529,3.75 -2.75,3.75 -0.5047,0 -0.92541,0.5625 -0.93492,1.25 -0.0201,1.4553 -3.7554,5.1267 -6.09053,5.9863 -0.8843,0.3255 -1.89151,2.0103 -2.23826,3.7441 -0.34674,1.7337 -1.01792,2.9127 -1.49151,2.62 -2.00277,-1.2378 -8.58117,9.1448 -7.52992,11.8843 0.36967,0.9634 -0.11394,2.1469 -1.20252,2.9429 -2.30672,1.6867 -2.93809,11.4402 -0.79382,12.263 0.75011,0.2879 1.36384,1.2907 1.36384,2.2286 0,0.9378 0.99488,3.7022 2.21084,6.143 1.21595,2.4408 2.30828,5.3378 2.42739,6.4378 0.1191,1.1 0.73491,4.134 1.36847,6.7421 0.96508,3.973 0.90734,4.9867 -0.35597,6.25 -2.19402,2.1941 -4.42334,1.8563 -7.14721,-1.0828 -1.32054,-1.4249 -2.87405,-2.2983 -3.45225,-1.941 -0.5782,0.3574 -1.05127,-0.026 -1.05127,-0.8526 0,-0.8262 -0.96635,-2.1791 -2.14744,-3.0064 -1.97788,-1.3854 -2.29371,-1.3182 -4,0.851 -2.27366,2.8905 -2.30408,3.9668 -0.21219,7.5081 1.73173,2.9315 1.35822,6.8042 -0.89187,9.2474 -0.68668,0.7456 -1.93769,2.6895 -2.78004,4.3199 -0.98403,1.9046 -2.44109,3.0714 -4.07576,3.2639 -2.10846,0.2483 -2.84463,-0.3666 -4.29824,-3.5901 -0.96471,-2.1394 -3.51812,-5.7626 -5.67424,-8.0516 -3.55986,-3.7793 -4.36857,-5.253 -4.04868,-7.3778 0.3235,-2.1487 -5.4026,-14.9939 -7.08545,-15.8946 -2.62352,-1.404 -3.3565,-0.4328 -1.96997,2.6103 0.94687,2.0781 0.88075,2.5042 -0.38859,2.5042 -2.34267,0 -4.46132,6.3093 -4.80137,14.2985 -0.33991,7.9857 -2.58575,14.4297 -5.33101,15.2963 -0.98733,0.3116 -3.64444,1.4303 -5.90468,2.4859 -5.64723,2.6375 -7.10807,2.4307 -9.40143,-1.3307 z"
       id="path2996"
       style="fill:#000000" />
  </g>
</svg>
