<?xml version="1.0" standalone="no"?>
<!DOCTYPE svg PUBLIC "-//W3C//DTD SVG 20010904//EN"
 "http://www.w3.org/TR/2001/REC-SVG-20010904/DTD/svg10.dtd">
<svg version="1.0" xmlns="http://www.w3.org/2000/svg"
 width="1536.000000pt" height="451.000000pt" viewBox="0 0 1536.000000 451.000000"
 preserveAspectRatio="xMidYMid meet">
<metadata>
Created by potrace 1.16, written by Peter Selinger 2001-2019
</metadata>
<g transform="translate(0.000000,451.000000) scale(0.100000,-0.100000)"
fill="#000000" stroke="none">
<path d="M6700 4503 c-8 -3 -60 -25 -115 -48 -55 -24 -118 -48 -140 -55 -84
-26 -151 -69 -215 -136 -126 -132 -387 -451 -555 -677 l-79 -107 -211 0 c-538
0 -1816 -94 -2735 -201 -377 -44 -513 -65 -735 -116 -554 -126 -1030 -286
-1397 -468 -248 -124 -327 -178 -354 -242 -11 -26 -21 -33 -51 -38 -61 -10
-79 -21 -98 -61 -46 -98 18 -297 146 -451 119 -144 606 -503 857 -631 414
-212 1289 -311 3319 -377 l423 -13 33 -29 c19 -15 145 -123 279 -240 477 -410
698 -573 780 -573 71 0 90 40 106 221 12 129 30 168 122 264 86 90 100 112
100 154 0 50 -60 103 -199 176 l-114 60 49 2 c27 2 285 10 574 18 1023 30
1486 44 1561 49 l76 5 44 -45 c126 -129 401 -356 735 -606 309 -231 464 -324
552 -334 40 -5 54 -1 94 25 59 38 123 118 181 229 56 108 88 196 137 382 45
167 82 263 135 346 73 116 119 153 389 314 206 123 226 143 187 184 -12 13
-44 32 -69 41 -63 23 -71 33 -36 41 16 4 119 31 229 61 239 64 431 104 666
137 424 61 776 88 1169 90 l295 1 90 -30 c145 -48 489 -225 955 -492 518 -297
792 -446 1035 -564 221 -106 282 -129 346 -129 61 0 99 31 99 79 0 125 -209
465 -701 1141 -146 201 -292 404 -324 452 l-57 87 27 48 c42 71 197 302 417
619 296 428 412 623 458 771 53 173 -1 323 -117 323 -118 0 -289 -88 -863
-445 -412 -257 -525 -321 -902 -517 -479 -249 -628 -312 -801 -342 -295 -52
-981 -20 -1832 85 -336 41 -315 32 -204 91 92 48 159 100 159 124 0 17 -63 71
-165 141 -177 121 -260 206 -320 327 -44 86 -65 157 -111 371 -59 279 -105
397 -173 442 -81 54 -158 18 -398 -188 -56 -49 -133 -108 -170 -133 -73 -48
-249 -199 -518 -446 -203 -186 -307 -271 -332 -272 -10 0 -200 5 -423 11 -223
7 -525 15 -673 19 l-267 7 74 59 c80 62 166 148 166 166 0 13 -29 40 -89 83
-25 18 -67 65 -94 106 -27 40 -76 101 -109 135 -93 97 -144 199 -193 390 -14
55 -33 108 -42 118 -16 17 -52 22 -83 11z"/>
</g>
</svg>
