<?xml version="1.0" standalone="no"?>
<!DOCTYPE svg PUBLIC "-//W3C//DTD SVG 20010904//EN"
 "http://www.w3.org/TR/2001/REC-SVG-20010904/DTD/svg10.dtd">
<svg version="1.0" xmlns="http://www.w3.org/2000/svg"
 width="1536.000000pt" height="662.000000pt" viewBox="0 0 1536.000000 662.000000"
 preserveAspectRatio="xMidYMid meet">
<metadata>
Created by potrace 1.16, written by Peter Selinger 2001-2019
</metadata>
<g transform="translate(0.000000,662.000000) scale(0.100000,-0.100000)"
fill="#000000" stroke="none">
<path d="M4480 6614 c-14 -2 -52 -9 -85 -15 -166 -29 -296 -97 -353 -186 -54
-85 -66 -148 -59 -313 4 -80 10 -158 13 -175 6 -28 3 -27 -57 31 -74 72 -95
84 -143 84 -55 0 -87 -37 -184 -213 -200 -364 -328 -628 -381 -788 -34 -102
-70 -151 -155 -208 -203 -138 -278 -267 -601 -1036 -79 -188 -165 -365 -221
-453 l-40 -63 -131 -59 c-272 -121 -465 -254 -558 -384 -64 -89 -86 -155 -93
-263 -6 -108 10 -99 -184 -112 -74 -6 -157 -18 -184 -27 -139 -47 -216 -157
-245 -349 l-11 -70 -69 -33 c-130 -61 -254 -189 -322 -333 -29 -60 -37 -68
-102 -105 -106 -59 -225 -181 -270 -276 -46 -98 -56 -194 -28 -279 16 -50 32
-69 162 -192 190 -182 196 -184 616 -291 182 -47 422 -110 535 -141 263 -71
605 -156 790 -194 759 -157 1821 -215 2480 -135 69 8 208 19 310 24 1025 54
1799 255 2716 706 l191 94 7 75 c14 158 52 222 168 279 84 43 107 44 221 11
113 -33 164 -39 210 -27 31 9 57 6 155 -19 337 -85 668 -119 1357 -138 312 -9
335 -11 415 -36 47 -14 126 -33 175 -41 126 -22 533 -30 760 -15 156 11 195
11 289 -3 60 -9 147 -16 193 -16 l84 0 15 37 c53 125 75 319 55 464 -14 97
-57 231 -101 320 -17 33 -29 63 -27 65 2 2 102 24 223 48 218 43 221 44 484
49 281 6 378 17 533 62 48 14 114 38 145 54 97 48 357 88 502 77 47 -4 123
-14 170 -24 73 -15 95 -16 160 -5 41 6 140 15 220 19 236 11 443 -18 737 -102
87 -24 187 -47 223 -50 57 -5 69 -3 100 18 46 31 62 68 68 153 16 269 -245
850 -496 1102 -61 62 -99 89 -182 133 -157 83 -227 156 -315 330 -89 178 -139
253 -228 347 -40 43 -88 101 -105 130 -45 70 -179 197 -282 265 -431 284
-1211 484 -2265 579 -132 12 -240 22 -241 23 -1 0 -60 89 -131 196 -153 228
-225 322 -343 444 -258 269 -615 489 -1070 659 -358 133 -686 157 -1185 86
-164 -23 -127 5 -344 -264 -302 -373 -491 -649 -751 -1090 -68 -115 -134 -227
-147 -248 l-24 -38 -127 67 -127 66 -29 90 c-34 106 -103 216 -176 280 -117
102 -247 160 -596 263 -457 136 -659 221 -889 374 -167 111 -155 98 -166 188
-24 192 -113 352 -240 433 -89 58 -171 82 -289 85 -58 2 -116 2 -130 -1z"/>
</g>
</svg>
