<?xml version="1.0" standalone="no"?>
<!DOCTYPE svg PUBLIC "-//W3C//DTD SVG 20010904//EN"
 "http://www.w3.org/TR/2001/REC-SVG-20010904/DTD/svg10.dtd">
<svg version="1.0" xmlns="http://www.w3.org/2000/svg"
 width="1536.000000pt" height="729.000000pt" viewBox="0 0 1536.000000 729.000000"
 preserveAspectRatio="xMidYMid meet">
<metadata>
Created by potrace 1.16, written by Peter Selinger 2001-2019
</metadata>
<g transform="translate(0.000000,729.000000) scale(0.100000,-0.100000)"
fill="#000000" stroke="none">
<path d="M7730 7280 c-30 -4 -63 -11 -73 -15 -30 -12 -47 -60 -47 -129 0 -64
0 -64 65 -144 75 -94 211 -198 557 -431 145 -97 258 -181 323 -241 100 -92
253 -218 417 -342 l87 -67 -112 -26 c-752 -179 -845 -205 -1567 -445 -261 -87
-488 -161 -505 -164 -30 -6 -31 -5 -94 116 -35 68 -143 240 -239 383 -138 204
-197 283 -279 370 -110 115 -259 229 -390 297 -61 32 -79 37 -173 43 -116 7
-147 0 -193 -43 -48 -45 -112 -193 -190 -437 -39 -124 -119 -316 -149 -358
-11 -15 -54 -62 -96 -105 -113 -113 -165 -214 -238 -467 -56 -190 -59 -206
-59 -310 0 -87 5 -125 23 -184 31 -99 78 -144 252 -243 74 -43 154 -90 178
-106 l42 -29 -212 -66 c-138 -43 -271 -77 -378 -96 -149 -27 -188 -30 -400
-32 -176 -2 -297 4 -480 20 -289 26 -333 38 -550 146 -80 40 -197 96 -260 126
-63 29 -250 130 -415 224 -297 169 -436 240 -498 255 -18 4 -165 62 -327 127
-162 66 -396 154 -520 196 -243 83 -272 87 -297 36 -20 -38 -16 -80 21 -227
19 -75 44 -193 56 -262 35 -208 54 -262 125 -359 93 -127 164 -241 238 -381
37 -69 96 -165 131 -215 79 -109 126 -201 126 -246 0 -19 5 -89 12 -155 l12
-121 -49 -134 c-56 -156 -74 -195 -121 -258 -19 -25 -59 -84 -90 -130 -30 -46
-93 -127 -140 -180 -84 -94 -225 -295 -245 -349 -6 -15 -23 -40 -38 -57 -16
-16 -51 -61 -79 -99 -55 -73 -150 -151 -266 -217 -170 -98 -213 -133 -396
-323 -184 -191 -230 -254 -230 -317 0 -35 33 -75 73 -88 94 -31 407 -45 662
-31 l210 11 155 72 c85 39 297 145 470 235 295 154 460 241 1055 557 378 201
561 313 712 438 145 118 226 162 437 233 111 38 152 43 142 19 -3 -9 -8 -51
-12 -93 l-7 -78 71 -140 c117 -229 181 -299 515 -567 l278 -224 147 -58 c143
-57 157 -65 512 -305 260 -177 404 -267 500 -315 74 -37 146 -75 160 -85 14
-10 243 -132 510 -273 267 -140 538 -286 602 -325 148 -88 191 -101 262 -79
74 24 118 54 336 236 119 98 248 195 330 247 129 81 138 89 218 192 52 65 103
144 131 202 l46 95 5 -95 c4 -52 12 -105 19 -118 17 -32 106 -72 160 -72 35 0
77 17 212 85 92 47 172 85 177 85 5 0 52 -31 103 -68 80 -58 317 -193 709
-405 84 -45 245 -98 400 -131 103 -22 309 -44 530 -56 102 -6 228 -15 280 -20
501 -50 739 -50 1125 1 217 29 246 35 500 111 l269 81 188 119 188 119 216
222 216 222 182 275 c212 321 324 526 549 1010 140 302 163 359 232 580 72
230 80 267 136 595 41 242 71 470 100 740 l41 390 53 180 c30 99 68 218 84
264 33 87 87 296 116 441 9 47 24 110 33 140 12 43 16 129 19 405 l5 350 -60
47 c-33 26 -79 56 -102 68 -63 32 -185 60 -264 60 -39 0 -109 7 -156 15 -349
61 -486 74 -860 81 -639 11 -1011 -18 -1940 -156 -333 -50 -739 -108 -903
-130 l-298 -40 -152 94 c-84 52 -213 124 -287 161 -74 37 -207 107 -295 155
-211 114 -692 300 -932 360 -346 86 -1151 162 -1383 130z"/>
</g>
</svg>
