<?xml version="1.0" encoding="UTF-8" standalone="no"?>
<!-- Created with Inkscape (http://www.inkscape.org/) -->

<svg
   xmlns:svg="http://www.w3.org/2000/svg"
   xmlns="http://www.w3.org/2000/svg"
   version="1.2"
   width="791.99902"
   height="245.185"
   viewBox="0 0 791.999 245.185"
   id="Layer_1"
   xml:space="preserve"
   style="overflow:inherit"><defs
   id="defs8" />
<g
   id="Layer_1_1_">
	<path
   d="M 136.95,11.85 C 150.35,6.983 164.7,3.033 180,0 c 0.333,0 0.667,0 1,0 4.333,0 8.667,0 13,0 0,0.333 0.017,0.5 0.05,0.5 13.367,1.6 24.683,5.1 33.95,10.5 0,0.333 0,0.667 0,1 0.333,0 0.65,0.05 0.95,0.15 8.133,3.133 15.483,7.083 22.05,11.85 0,0.333 0,0.667 0,1 0.333,0 0.616,0.083 0.85,0.25 19.867,14.066 31.584,36.316 35.15,66.75 0.5,8.833 0.2,16.833 -0.9,24 -0.066,0.333 -0.1,0.667 -0.1,1 0,0.667 0,1.333 0,2 0,0.333 0,0.667 0,1 0,1.333 -0.15,2.633 -0.45,3.9 -0.033,0.066 -0.217,0.1 -0.55,0.1 0,1.333 0,2.667 0,4 0,0.333 0,0.667 0,1 0,0.333 0,0.667 0,1 0,0.333 0,0.667 0,1 0,1.333 -0.15,2.633 -0.45,3.9 -0.033,0.066 -0.217,0.1 -0.55,0.1 0,1.667 0,3.333 0,5 0,0.333 0,0.667 0,1 0,1 0,2 0,3 0,0.333 0,0.667 0,1 0.333,0 0.667,0 1,0 1.3,-0.034 2.3,-0.367 3,-1 0.333,0 0.667,0 1,0 0.333,0 0.667,0 1,0 v -0.5 c 2.233,-0.1 3.9,-0.6 5,-1.5 0.333,0 0.667,0 1,0 0.333,0 0.667,0 1,0 v -0.5 c 2.233,-0.1 3.9,-0.6 5,-1.5 0.333,0 0.667,0 1,0 0.333,0 0.667,0 1,0 v -0.5 c 2.233,-0.1 3.9,-0.6 5,-1.5 0.333,0 0.616,-0.083 0.85,-0.25 0.802,-0.467 1.852,-0.717 3.15,-0.75 0.333,0 0.65,-0.05 0.95,-0.15 0.7,-0.233 1.383,-0.517 2.05,-0.85 0.333,0 0.667,0 1,0 0.333,0 0.667,0 1,0 v -0.5 c 2.233,-0.1 3.9,-0.6 5,-1.5 0.333,0 0.616,-0.083 0.85,-0.25 0.802,-0.467 1.852,-0.717 3.15,-0.75 0.333,0 0.65,-0.05 0.95,-0.15 0.7,-0.233 1.383,-0.517 2.05,-0.85 0.333,0 0.667,0 1,0 1.3,-0.034 2.3,-0.367 3,-1 0.333,0 0.667,-0.017 1,-0.05 8.333,-0.967 16.333,-2.283 24,-3.95 0.333,0 0.667,0 1,0 0,-0.333 0.083,-0.583 0.25,-0.75 2.333,-2.534 5.25,-2.95 8.75,-1.25 0.333,0 0.667,0 1,0 0.333,0 0.667,0 1,0 0.333,0 0.65,-0.05 0.95,-0.15 1.7,-0.6 3.717,-0.883 6.05,-0.85 0,-0.333 0,-0.667 0,-1 h -0.5 c 1.6,-3.333 4.434,-3.667 8.5,-1 0.333,0 0.667,0 1,0 0.667,0 1.333,0 2,0 0.333,0 0.667,0 1,0 0.333,0 0.667,0 1,0 0,-0.333 0.033,-0.5 0.1,-0.5 1.602,-0.333 3.233,-0.5 4.9,-0.5 0.333,0 0.667,0 1,0 2,0 4,0 6,0 0,-0.333 0.033,-0.517 0.1,-0.55 1.268,-0.3 2.567,-0.45 3.9,-0.45 0.333,0 0.667,0 1,0 0,-0.333 0.017,-0.5 0.05,-0.5 2.3,-0.333 4.617,-0.5 6.95,-0.5 0.333,0 0.667,0 1,0 1.333,0 2.667,0 4,0 0,-0.333 0.033,-0.517 0.1,-0.55 1.268,-0.3 2.567,-0.45 3.9,-0.45 0.333,0 0.667,0 1,0 0.333,0 0.667,0 1,0 0,-0.333 0.05,-0.517 0.15,-0.55 0.898,-0.3 1.85,-0.45 2.85,-0.45 0,-0.333 0.033,-0.517 0.1,-0.55 1.268,-0.3 2.567,-0.45 3.9,-0.45 0.333,0 0.65,-0.034 0.95,-0.1 5.565,-1.467 11.25,-1.434 17.05,0.1 0,0.333 0,0.667 0,1 0.333,0 0.667,0 1,0 1.667,0 3.333,0 5,0 0.333,0 0.667,0 1,0 1,0 2,0 3,0 0,0.333 0,0.667 0,1 0.333,0 0.667,0 1,0 1.667,0 3.333,0 5,0 0.333,0 0.667,0 1,0 0,-0.333 0.017,-0.5 0.05,-0.5 3.3,-0.333 6.617,-0.5 9.95,-0.5 0,0.333 0,0.667 0,1 0.333,0 0.667,0 1,0 1,0 2,0 3,0 0.333,0 0.65,-0.034 0.95,-0.1 14.378,-3.313 25.253,-1.73 32.625,4.75 0.491,0.426 0.966,0.876 1.425,1.35 0.203,0 0.403,0.008 0.6,0.025 0.138,0.003 0.271,0.012 0.4,0.025 26.166,1.867 52.166,5.517 78,10.95 0.334,0 0.65,0.05 0.95,0.15 1.366,0.566 2.716,1.183 4.05,1.85 0.334,0 0.65,0.033 0.95,0.1 10.8,2.833 20.482,6.8 29.05,11.9 0.334,0 0.666,0 1,0 15.666,-0.667 27.666,2.333 36,9 0.334,0 0.666,-0.017 1,-0.05 9.934,-0.767 18.934,0.917 27,5.05 0.334,0 0.65,0.05 0.95,0.15 2.368,0.851 4.718,1.726 7.05,2.625 2.689,1.043 5.357,2.118 8,3.225 0,0.333 0,0.667 0,1 6.375,1.694 11.709,4.411 16,8.15 1.026,0.89 1.993,1.84 2.9,2.85 3.364,3.723 7.099,7.073 11.198,10.05 3.021,2.185 6.237,4.168 9.65,5.95 6.734,3.1 13.909,5.758 21.525,7.975 5.549,1.364 11.456,2.373 17.725,3.025 0.334,0 0.666,0 1,0 0,2.333 0,4.666 0,7 0,0.333 0,0.666 0,1 -5.452,3.415 -10.919,6.766 -16.4,10.05 l -6.55,3.9 -1.3,2.85 c -43.4,3.134 -86.9,5.134 -130.5,6 -7.565,0.134 -15.133,0.3 -22.7,0.5 -7.533,0.167 -15.083,0.333 -22.648,0.5 l -0.95,-1.2 c -18.2,1.066 -36.333,1.983 -54.4,2.75 -32.166,1.4 -64.3,2.467 -96.398,3.2 -42.802,1.667 -85.468,0.05 -128,-4.85 -4.067,-0.567 -8.134,-1.134 -12.2,-1.7 -5.134,-0.732 -10.267,-1.45 -15.4,-2.15 L 154,214 143,206.05 V 206 c 0,-0.334 -0.05,-0.65 -0.15,-0.95 -0.123,-0.329 -0.24,-0.653 -0.35,-0.975 -3.426,-4.9 -6.317,-9.242 -8.675,-13.025 -5.309,-8.51 -7.917,-14.193 -7.825,-17.05 0,-0.333 0,-0.667 0,-1 3.833,-6.8 8.5,-12.633 14,-17.5 v 0.5 c 0.333,0 0.667,0 1,0 0,-0.333 0.083,-0.6 0.25,-0.8 8.366,-9.267 17.95,-17.333 28.75,-24.2 0,-0.333 0.083,-0.567 0.25,-0.7 1.333,-1.067 1.917,-2.833 1.75,-5.3 -6.5,-7.5 -15.5,-12.467 -27,-14.9 -0.333,-0.066 -0.667,-0.1 -1,-0.1 -17.066,-5.9 -36.066,-8.25 -57,-7.05 -0.333,0.033 -0.667,0.05 -1,0.05 -4.5,2.167 -10.167,3.167 -17,3 -0.333,0 -0.667,0 -1,0 -21.533,2.8 -43.866,3.15 -67,1.05 C 0.667,107.017 0.333,107 0,107 c 0,-0.333 0,-0.667 0,-1 0,-0.333 0,-0.667 0,-1 4.066,-3.3 8.566,-5.8 13.5,-7.5 C 50.467,84.8 80.967,65.966 105,41 c 0,-0.333 0.066,-0.633 0.2,-0.9 6,-13.6 16.267,-22.966 30.8,-28.1 0.333,0 0.65,-0.05 0.95,-0.15 z"
   id="path4" />
</g>
</svg>