<?xml version="1.0" standalone="no"?>
<!DOCTYPE svg PUBLIC "-//W3C//DTD SVG 20010904//EN"
 "http://www.w3.org/TR/2001/REC-SVG-20010904/DTD/svg10.dtd">
<svg version="1.0" xmlns="http://www.w3.org/2000/svg"
 width="2407.000000pt" height="957.000000pt" viewBox="0 0 2407.000000 957.000000"
 preserveAspectRatio="xMidYMid meet">
<metadata>
Created by potrace 1.16, written by Peter Selinger 2001-2019
</metadata>
<g transform="translate(0.000000,957.000000) scale(0.100000,-0.100000)"
fill="#000000" stroke="none">
<path d="M21718 9514 c-84 -20 -137 -50 -193 -108 -41 -44 -66 -59 -145 -90
-52 -21 -183 -74 -290 -118 -107 -45 -242 -96 -300 -115 -125 -41 -283 -114
-371 -173 -75 -50 -169 -138 -210 -197 -19 -27 -68 -67 -146 -118 -177 -117
-258 -179 -368 -284 -87 -83 -119 -106 -235 -168 -235 -124 -598 -288 -760
-341 -36 -12 -155 -40 -265 -62 -942 -192 -2459 -558 -2650 -640 -24 -10 -201
-46 -392 -80 -1269 -222 -2073 -402 -2455 -551 -115 -45 -172 -76 -224 -121
-30 -26 -45 -31 -103 -36 -95 -6 -188 15 -479 109 -540 175 -825 225 -1134
199 -198 -16 -278 -36 -818 -200 -831 -254 -1087 -344 -1188 -420 -29 -22 -56
-40 -60 -40 -5 0 -52 31 -105 69 -148 106 -214 113 -358 40 -151 -76 -427
-109 -1079 -129 -676 -20 -683 -21 -821 -90 -267 -135 -614 -250 -753 -250
-116 0 -208 -88 -223 -211 -6 -51 3 -62 28 -33 24 29 73 47 129 46 30 0 147
17 260 38 233 44 382 66 520 76 73 5 131 18 250 56 85 27 196 56 245 64 119
21 302 14 400 -15 63 -19 79 -20 165 -11 175 19 438 28 572 20 152 -10 231
-31 261 -71 18 -26 18 -28 2 -63 -19 -40 -137 -139 -193 -163 -28 -11 -43 -12
-87 -2 -71 16 -104 5 -367 -127 -285 -143 -335 -192 -346 -336 -6 -86 1 -86
93 -13 38 30 85 60 105 66 19 6 87 35 150 64 168 78 334 115 517 115 l72 0 92
65 c115 81 217 133 289 145 44 7 78 5 168 -12 100 -20 121 -21 193 -10 116 17
229 59 376 140 130 72 656 332 792 392 67 29 82 32 143 28 104 -8 173 -47 296
-167 157 -153 290 -239 428 -277 35 -9 64 -20 64 -24 0 -23 -264 -167 -1035
-565 -253 -130 -575 -297 -715 -370 -281 -147 -333 -169 -980 -420 -881 -341
-1221 -492 -1462 -652 -37 -24 -128 -73 -201 -108 -455 -217 -1452 -748 -1760
-937 -462 -284 -1730 -954 -2574 -1361 -690 -333 -1034 -467 -1348 -523 -418
-74 -793 -180 -977 -275 -77 -40 -138 -105 -122 -130 8 -13 83 -6 288 27 204
33 377 44 736 44 659 0 980 56 1430 250 404 173 1314 532 2010 791 791 295
868 327 1995 834 1503 675 1894 833 2260 911 482 103 1317 347 2190 638 526
176 722 251 978 372 315 150 879 394 911 394 8 0 35 -12 62 -27 46 -26 57 -28
159 -27 99 1 121 4 222 38 144 47 369 161 556 280 l149 94 71 -24 c96 -33 285
-70 431 -85 171 -17 529 -7 676 19 95 17 154 20 340 19 245 -1 315 8 394 48
27 14 51 23 53 21 3 -3 -2 -60 -11 -128 -50 -391 -22 -600 110 -824 113 -192
122 -284 31 -313 -17 -6 -99 -15 -182 -21 -305 -20 -496 -105 -536 -240 -14
-46 -2 -113 27 -157 22 -34 36 -28 61 25 39 84 50 87 328 87 l240 0 80 44 c44
25 135 80 203 124 175 112 290 165 396 183 145 25 242 2 469 -113 l108 -55 33
-67 c35 -72 90 -123 154 -141 20 -6 96 -15 169 -20 138 -9 179 -22 207 -62 9
-12 16 -33 16 -45 0 -35 27 -27 40 11 31 94 -49 189 -271 323 -198 120 -269
190 -255 249 15 60 168 37 369 -55 131 -61 323 -90 457 -71 41 6 133 31 205
55 155 53 326 81 425 70 218 -23 225 -25 235 -56 13 -39 25 -6 25 64 0 86 -26
139 -80 169 -31 17 -48 19 -135 13 -114 -7 -113 -7 -170 85 -49 79 -41 77
-295 50 -368 -38 -866 29 -1041 141 -57 36 -99 37 -175 2 -46 -20 -79 -27
-149 -31 -82 -3 -93 -2 -125 20 -44 30 -70 80 -70 139 0 25 18 118 40 207 77
312 83 360 85 632 1 160 5 255 13 272 6 16 26 37 43 47 48 29 285 106 487 158
159 40 193 46 342 53 174 8 225 17 550 95 177 43 203 47 280 42 47 -3 132 -18
190 -32 58 -15 145 -30 195 -34 l90 -6 29 -75 c174 -454 234 -554 494 -817
218 -222 282 -318 282 -423 -1 -30 -7 -66 -15 -80 -22 -38 -18 -108 9 -167 32
-67 109 -145 139 -141 20 3 22 8 19 63 -3 55 -1 63 26 93 35 39 50 93 59 203
7 92 7 91 105 58 100 -33 171 -74 258 -148 100 -84 137 -103 210 -109 45 -3
64 1 105 24 170 92 175 94 242 94 76 0 129 -24 157 -71 19 -31 50 -38 60 -13
3 9 6 41 6 72 0 103 -35 134 -218 193 -40 13 -71 28 -69 34 9 31 239 115 317
115 27 0 86 12 131 26 93 29 119 27 161 -18 38 -41 58 -32 58 27 0 52 -21 109
-52 143 -28 29 -164 72 -228 72 -27 0 -113 -11 -192 -24 -177 -31 -210 -34
-215 -20 -5 14 92 104 112 104 25 0 17 30 -19 66 -20 20 -44 34 -58 34 -14 0
-66 -30 -124 -71 -149 -107 -172 -118 -270 -134 -136 -22 -224 -20 -265 8 -45
29 -81 106 -108 226 -11 53 -32 147 -45 209 -18 78 -42 149 -77 225 -66 143
-159 397 -159 437 0 54 31 183 57 238 29 61 159 193 393 397 244 213 267 228
420 280 156 54 191 73 219 120 25 43 56 57 190 90 108 27 152 46 211 89 32 25
91 49 263 111 43 15 107 47 142 71 36 25 136 75 223 112 205 88 258 120 356
217 100 98 185 144 441 240 257 96 314 128 485 269 47 39 155 120 240 181 171
121 275 217 309 284 14 26 26 75 31 125 5 44 14 97 20 116 20 68 13 133 -19
177 -33 45 -175 145 -239 167 -74 26 -244 64 -472 106 -169 31 -245 49 -307
75 -46 19 -122 51 -170 71 -95 40 -184 53 -245 36 -36 -10 -41 -8 -97 33 -32
24 -74 51 -92 61 -58 29 -201 74 -288 89 -103 18 -297 18 -373 -1z"/>
</g>
</svg>
