<?xml version="1.0" standalone="no"?>
<!DOCTYPE svg PUBLIC "-//W3C//DTD SVG 20010904//EN"
 "http://www.w3.org/TR/2001/REC-SVG-20010904/DTD/svg10.dtd">
<svg version="1.0" xmlns="http://www.w3.org/2000/svg"
 width="1536.000000pt" height="429.000000pt" viewBox="0 0 1536.000000 429.000000"
 preserveAspectRatio="xMidYMid meet">
<metadata>
Created by potrace 1.16, written by Peter Selinger 2001-2019
</metadata>
<g transform="translate(0.000000,429.000000) scale(0.100000,-0.100000)"
fill="#000000" stroke="none">
<path d="M9910 4187 c-151 -134 -204 -197 -360 -427 -170 -252 -326 -463 -411
-554 l-63 -69 -271 7 c-148 4 -291 9 -317 13 l-48 6 0 61 c0 34 9 93 19 131
11 38 18 71 16 73 -1 2 -32 -18 -68 -43 -147 -102 -281 -136 -354 -88 -44 29
-23 171 35 237 23 27 8 17 -111 -68 -166 -121 -183 -129 -263 -134 -53 -3 -79
0 -103 12 -30 16 -31 19 -31 81 0 40 7 84 20 117 11 28 18 53 16 55 -7 7 -112
-86 -155 -137 -55 -66 -106 -89 -189 -90 -60 0 -66 2 -99 35 -35 35 -36 37
-30 94 4 33 16 82 27 110 26 68 26 70 -11 35 -40 -37 -68 -98 -69 -147 0 -33
-7 -45 -51 -87 -121 -116 -187 -92 -177 66 l5 73 -31 -16 c-17 -8 -72 -57
-122 -109 -50 -51 -103 -98 -119 -104 -36 -14 -83 -4 -112 23 -34 30 -32 120
2 171 13 20 21 36 17 36 -16 0 -105 -62 -151 -105 -68 -64 -157 -115 -201
-115 -33 0 -76 20 -92 44 -26 38 7 121 82 208 25 29 38 48 30 43 -95 -56 -184
-127 -277 -221 -123 -123 -127 -125 -190 -77 -40 29 -41 48 -8 97 l25 37 -22
-6 c-48 -13 -186 -86 -244 -129 -56 -41 -65 -44 -98 -36 -60 13 -134 69 -162
122 -22 42 -17 107 11 156 l24 43 -52 -28 c-70 -38 -185 -155 -222 -225 -17
-32 -35 -58 -41 -58 -21 0 -78 45 -97 78 -24 41 -25 110 -2 145 9 15 13 27 9
27 -19 -1 -178 -92 -232 -133 -31 -25 -87 -76 -124 -114 l-67 -70 -20 21 c-39
42 -52 115 -31 171 10 26 9 27 -17 21 -52 -12 -213 -97 -280 -147 -50 -38 -68
-47 -74 -37 -14 21 -10 93 6 114 26 34 16 37 -32 9 -72 -41 -166 -110 -262
-190 l-87 -72 -107 -7 c-60 -4 -165 -13 -235 -22 -70 -8 -160 -17 -200 -19
-135 -8 -482 -75 -787 -152 -99 -25 -297 -71 -440 -103 -276 -61 -667 -162
-825 -212 -187 -59 -495 -205 -720 -339 -127 -76 -146 -98 -157 -180 -10 -69
4 -80 237 -188 23 -10 22 -11 -13 -6 -79 12 -342 34 -347 29 -3 -3 -7 -54 -8
-112 -3 -88 -1 -113 14 -139 41 -77 463 -303 754 -405 228 -79 860 -230 1330
-318 151 -28 358 -73 460 -100 459 -120 817 -175 1212 -187 l197 -6 68 -81
c123 -147 452 -467 521 -508 65 -37 187 -77 199 -64 4 4 9 62 11 129 3 104 7
129 28 171 21 44 24 63 24 172 l0 121 403 -5 c250 -3 460 0 555 7 189 14 665
67 1127 126 193 24 490 60 661 80 312 35 392 48 794 124 118 23 352 61 520 86
177 26 326 53 356 64 71 28 220 54 271 48 70 -8 172 -81 402 -290 159 -145
215 -189 343 -274 95 -62 273 -153 302 -153 16 0 48 64 66 130 7 25 14 113 15
195 4 229 22 282 117 353 85 63 259 159 376 209 59 25 157 66 217 93 61 26
126 53 145 60 65 24 290 133 290 141 0 4 -54 37 -120 72 -135 71 -137 76 -38
103 96 25 97 25 221 -96 62 -60 126 -114 141 -120 25 -9 41 -5 125 34 53 25
120 54 148 65 29 11 85 37 125 57 79 40 78 43 -12 64 -30 7 -84 26 -120 43
l-65 30 65 13 c40 8 144 13 269 14 l203 0 118 -95 c194 -156 506 -379 645
-461 72 -43 212 -128 312 -191 255 -158 286 -176 388 -218 173 -72 457 -160
617 -190 119 -22 290 -35 374 -28 l73 6 -14 27 c-27 52 -162 225 -211 271 -27
25 -70 58 -95 72 -40 23 -48 35 -59 75 -7 26 -31 82 -53 125 -31 61 -57 94
-121 153 -125 115 -244 251 -292 334 -50 85 -144 315 -144 352 0 42 70 129
145 181 90 61 102 77 110 140 8 62 15 73 77 115 31 21 53 47 69 79 31 66 56
92 98 99 49 9 85 29 109 59 11 13 57 100 102 192 46 93 91 180 101 194 11 15
63 56 118 93 121 80 157 120 166 181 8 52 -5 92 -40 125 -23 21 -30 22 -117
16 -223 -17 -483 -67 -670 -130 -144 -48 -457 -176 -627 -256 -230 -109 -377
-192 -546 -309 -77 -54 -201 -139 -275 -190 -74 -50 -153 -105 -175 -121 -33
-25 -56 -32 -125 -40 -113 -13 -282 -13 -374 1 l-74 11 -17 47 c-39 104 -122
200 -209 243 l-44 21 -86 -41 c-46 -22 -124 -66 -172 -98 l-87 -57 -83 27
c-46 15 -84 31 -84 36 0 23 106 129 129 130 10 0 11 3 5 9 -17 17 -308 134
-664 268 -186 70 -449 211 -557 300 -57 47 -169 181 -228 271 -100 155 -171
348 -200 545 -3 20 -9 37 -13 37 -4 0 -54 -42 -112 -93z"/>
</g>
</svg>
