<?xml version="1.0" standalone="no"?>
<!DOCTYPE svg PUBLIC "-//W3C//DTD SVG 20010904//EN"
 "http://www.w3.org/TR/2001/REC-SVG-20010904/DTD/svg10.dtd">
<svg version="1.0" xmlns="http://www.w3.org/2000/svg"
 width="800.000000pt" height="368.000000pt" viewBox="0 0 800.000000 368.000000"
 preserveAspectRatio="xMidYMid meet">
<metadata>
Created by potrace 1.16, written by Peter Selinger 2001-2019
</metadata>
<g transform="translate(0.000000,368.000000) scale(0.100000,-0.100000)"
fill="#000000" stroke="none">
<path d="M3985 3629 c-380 -8 -624 -41 -800 -110 -130 -50 -211 -69 -373 -84
-218 -21 -265 -30 -396 -75 -174 -60 -319 -132 -492 -246 -88 -57 -149 -120
-219 -225 -24 -36 -91 -111 -149 -167 -109 -104 -128 -139 -89 -161 16 -9 16
-12 -4 -48 -12 -22 -25 -58 -29 -81 -6 -39 -10 -43 -48 -53 -22 -6 -77 -21
-121 -34 -44 -12 -107 -29 -140 -36 -70 -15 -337 -18 -530 -5 -169 11 -331 -4
-440 -41 -92 -31 -79 -40 37 -24 144 19 217 14 528 -38 134 -23 259 -38 420
-51 120 -9 252 -33 284 -51 10 -6 40 -17 67 -25 43 -13 51 -20 74 -67 29 -58
91 -141 129 -174 13 -12 47 -66 75 -120 28 -54 61 -109 73 -123 28 -31 98 -80
155 -109 50 -25 113 -78 113 -95 0 -7 -18 -25 -40 -42 -22 -16 -40 -32 -40
-36 0 -11 -50 -58 -60 -58 -6 0 -10 -4 -10 -10 0 -13 -37 -50 -50 -50 -5 0
-13 -6 -17 -13 -8 -12 -88 -67 -98 -67 -4 0 -21 -11 -39 -25 -18 -14 -38 -25
-44 -25 -6 0 -16 -9 -22 -20 -6 -11 -14 -19 -18 -17 -7 2 -52 -39 -52 -49 0
-3 -11 -20 -24 -37 -46 -63 -41 -104 32 -229 18 -31 45 -80 60 -110 22 -43 32
-53 52 -53 14 0 69 -22 123 -49 101 -50 105 -55 110 -122 2 -27 5 -31 19 -23
10 5 23 28 29 52 17 59 27 67 77 60 50 -7 58 -18 76 -106 l13 -61 19 29 c12
19 20 49 21 84 1 58 9 67 64 70 20 1 57 -73 65 -133 4 -26 10 -49 15 -52 28
-17 41 125 18 191 -11 28 -9 36 11 63 13 18 27 32 31 32 14 0 63 -57 79 -92
13 -29 19 -35 28 -26 29 29 -1 127 -59 191 -13 14 -36 39 -51 55 -33 36 -78
60 -130 68 -21 4 -38 10 -38 15 0 12 61 39 90 39 15 0 33 7 41 16 9 11 22 14
46 9 22 -4 40 -1 55 10 13 8 34 15 49 15 15 0 29 6 32 14 3 7 42 28 88 45 45
17 102 45 127 62 52 35 61 37 157 26 65 -7 123 -21 220 -53 58 -19 122 -30
380 -63 313 -41 535 -59 820 -67 366 -10 612 11 770 64 49 17 62 18 110 7 60
-14 132 -11 218 11 35 9 124 16 223 19 181 4 218 -3 282 -52 54 -41 66 -81 57
-201 -7 -115 6 -176 54 -244 31 -44 151 -108 254 -135 56 -15 76 -26 108 -60
48 -52 62 -87 55 -135 -8 -46 5 -49 35 -6 14 20 24 51 27 85 4 46 9 57 40 84
l35 31 19 -29 c10 -15 26 -44 34 -63 15 -32 17 -33 24 -15 14 33 11 100 -6
140 -15 38 -12 109 6 120 5 3 31 -20 58 -50 36 -41 51 -52 55 -41 12 32 -16
90 -94 191 -29 38 -29 40 -10 43 11 2 41 -6 67 -17 26 -12 49 -19 52 -17 22
22 -170 165 -204 152 -8 -3 -14 -1 -14 4 0 5 20 12 45 16 55 8 57 20 8 33 -64
18 -154 14 -188 -9 -16 -11 -33 -20 -37 -20 -10 0 -10 34 -1 44 4 4 8 33 9 64
0 31 4 65 9 75 4 10 1 27 -9 42 -9 13 -16 31 -16 38 0 8 -7 20 -15 27 -8 7
-12 16 -9 22 3 5 -1 20 -10 33 -9 13 -16 31 -16 38 0 17 -42 67 -56 67 -5 0
-18 14 -28 31 -27 46 -161 169 -183 169 -19 0 -16 8 13 42 14 17 36 52 49 79
28 55 57 205 49 249 -15 72 3 86 216 168 149 57 260 83 350 82 317 -4 712 36
800 81 8 4 38 13 65 20 42 11 63 26 133 96 45 46 82 92 82 101 0 9 14 53 30
97 16 44 30 88 30 98 0 31 -60 75 -144 106 -45 16 -117 46 -161 67 -64 30 -92
37 -140 37 -33 0 -118 1 -190 1 -286 1 -297 0 -432 -39 -122 -36 -397 -142
-493 -190 -77 -39 -84 -37 -92 20 -14 103 -15 100 10 103 14 2 33 -5 47 -18
29 -28 41 -11 20 29 -32 63 -14 77 47 36 45 -30 48 -31 48 -5 0 12 -16 37 -35
57 -19 20 -32 40 -29 44 3 5 30 9 60 9 77 0 70 20 -18 55 -66 26 -50 44 50 58
7 1 13 7 13 12 0 9 -39 23 -113 39 -37 8 -35 30 2 53 17 9 30 20 30 24 0 3
-25 9 -56 13 -46 5 -67 15 -114 51 -32 25 -68 45 -79 45 -12 0 -46 25 -80 59
-33 32 -75 64 -93 70 -18 7 -42 17 -52 23 -11 6 -44 19 -74 29 -30 10 -69 28
-86 39 -45 27 -131 46 -271 60 -77 7 -152 22 -210 40 -49 16 -115 32 -145 36
-30 4 -95 22 -145 39 -89 32 -336 85 -490 104 -115 15 -213 17 -540 10z"/>
</g>
</svg>
