<?xml version="1.0" standalone="no"?>
<!DOCTYPE svg PUBLIC "-//W3C//DTD SVG 20010904//EN"
 "http://www.w3.org/TR/2001/REC-SVG-20010904/DTD/svg10.dtd">
<svg version="1.0" xmlns="http://www.w3.org/2000/svg"
 width="986.000000pt" height="1297.000000pt" viewBox="0 0 986.000000 1297.000000"
 preserveAspectRatio="xMidYMid meet">
<metadata>
Created by potrace 1.16, written by Peter Selinger 2001-2019
</metadata>
<g transform="translate(0.000000,1297.000000) scale(0.100000,-0.100000)"
fill="#000000" stroke="none">
<path d="M6634 12713 c-503 -563 -738 -841 -873 -1034 -205 -291 -335 -631
-470 -1232 -27 -121 -52 -221 -55 -224 -6 -6 -207 14 -213 21 -2 2 -108 297
-235 657 l-231 654 -90 154 c-272 471 -327 536 -846 1005 -199 179 -277 243
-283 234 -5 -9 3 -23 25 -43 19 -16 137 -127 262 -245 l228 -215 287 -430
c203 -305 288 -441 293 -467 3 -21 26 -65 50 -100 107 -150 157 -284 237 -633
23 -99 62 -238 86 -310 51 -153 60 -192 80 -339 17 -134 18 -213 1 -246 -19
-38 -72 -68 -135 -76 -187 -22 -253 -175 -158 -367 20 -41 39 -91 42 -109 5
-30 -23 -438 -30 -446 -2 -1 -26 19 -54 45 -31 29 -131 168 -258 358 -415 620
-482 702 -606 736 -75 20 -176 -27 -309 -142 -56 -48 -209 -247 -500 -645
-162 -223 -228 -326 -364 -568 -164 -295 -217 -369 -367 -517 -103 -102 -312
-339 -305 -346 1 0 25 3 53 9 50 10 60 19 321 277 379 374 500 535 618 820 65
156 92 207 190 351 171 252 288 406 333 439 26 18 72 57 102 86 80 77 126 105
172 105 81 0 158 -103 524 -710 114 -190 221 -376 237 -413 40 -95 44 -172 18
-330 -27 -161 -26 -220 1 -337 19 -83 22 -123 22 -315 0 -192 -3 -233 -22
-325 -27 -122 -78 -285 -134 -425 -39 -96 -40 -104 -40 -210 1 -60 4 -168 8
-239 l7 -128 -34 7 c-103 20 -192 52 -699 250 -1224 478 -1739 671 -2301 859
-299 101 -369 107 -449 39 -76 -63 -110 -176 -170 -553 -136 -855 -278 -1538
-471 -2259 -101 -378 -109 -419 -116 -621 -6 -209 5 -287 71 -495 48 -153 379
-1189 509 -1594 l82 -253 9 48 c16 87 -8 222 -88 501 -411 1426 -450 1568
-467 1675 -22 141 4 292 124 738 173 637 205 805 387 2045 44 303 87 573 95
600 8 28 26 61 39 74 46 43 94 31 646 -163 669 -236 990 -352 1310 -476 146
-56 396 -146 555 -200 516 -174 692 -257 956 -452 93 -69 103 -81 95 -113 -11
-43 -202 -199 -821 -670 -165 -125 -383 -296 -485 -379 -472 -384 -1042 -858
-1108 -921 -118 -112 -160 -225 -132 -347 7 -29 137 -306 293 -623 154 -313
340 -696 414 -849 74 -154 244 -496 377 -760 310 -613 389 -814 460 -1157 26
-126 96 -299 121 -299 6 0 19 6 29 13 17 13 17 18 -13 113 -16 54 -48 175 -71
267 -165 688 -398 1265 -820 2027 -291 525 -665 1217 -688 1274 -31 76 -27
147 11 205 16 23 81 80 159 139 73 55 219 167 323 249 105 82 305 236 445 343
401 304 478 368 843 703 71 65 138 108 415 271 l330 193 6 -56 c30 -287 38
-577 32 -1076 -12 -952 36 -1342 201 -1645 75 -138 213 -294 287 -325 84 -35
160 -8 268 93 124 117 201 239 260 412 69 206 94 471 133 1450 24 594 47 903
81 1108 l5 32 148 -100 c82 -55 290 -205 462 -333 173 -128 357 -262 409 -299
115 -80 468 -382 1065 -912 257 -228 303 -273 325 -316 40 -78 37 -99 -35
-305 -37 -104 -92 -253 -122 -330 -53 -133 -81 -196 -271 -602 -210 -447 -393
-970 -532 -1518 -97 -384 -140 -600 -226 -1132 -3 -23 1 -38 20 -59 l24 -28
21 72 c12 40 42 171 66 290 58 284 120 472 670 2017 146 413 323 905 392 1095
122 337 125 346 121 415 -7 128 -40 171 -323 420 -643 568 -713 626 -1172 977
-155 119 -366 292 -470 385 -180 161 -555 517 -561 531 -2 7 333 149 589 249
160 62 272 93 859 242 965 243 2128 522 2183 522 70 1 90 -10 113 -63 16 -39
18 -86 20 -523 1 -488 9 -667 45 -1060 33 -372 91 -814 160 -1220 65 -380 48
-651 -61 -977 -21 -64 -121 -311 -221 -550 -363 -865 -411 -985 -451 -1122
-22 -76 -36 -142 -31 -147 5 -5 19 -10 33 -11 22 -3 35 25 252 542 274 654
566 1365 621 1510 68 181 73 86 -83 1524 -69 634 -106 989 -176 1701 -28 283
-58 397 -125 463 -21 21 -55 44 -77 50 -59 18 -196 14 -302 -8 -204 -43 -2334
-608 -2840 -754 -162 -46 -296 -83 -298 -81 -9 9 -177 1007 -193 1145 -16 143
-6 309 26 435 31 124 31 159 -1 298 -14 62 -26 146 -27 187 l-2 75 144 230
c232 372 422 669 538 840 97 144 113 162 158 185 40 20 65 25 125 25 71 0 84
-4 235 -69 197 -85 501 -231 655 -315 63 -35 207 -123 320 -195 409 -264 473
-293 920 -417 118 -33 222 -62 231 -65 12 -3 20 4 27 26 9 25 8 31 -6 39 -34
18 -319 129 -477 186 -255 92 -337 139 -710 405 -221 158 -482 281 -1010 475
-196 72 -214 77 -275 73 -108 -6 -135 -28 -306 -250 -346 -452 -698 -897 -706
-892 -4 3 -8 76 -9 162 0 86 -2 195 -2 242 -2 83 -1 88 46 180 54 108 59 149
26 216 -25 53 -64 78 -154 99 -146 33 -195 92 -181 215 9 78 60 265 140 510
38 115 77 260 95 353 61 308 135 459 493 1002 69 105 156 226 193 270 38 44
196 206 353 360 156 154 302 305 323 336 l38 56 -27 20 c-15 10 -32 22 -38 26
-7 4 -105 -98 -240 -250z"/>
</g>
</svg>
