<?xml version="1.0" standalone="no"?>
<!DOCTYPE svg PUBLIC "-//W3C//DTD SVG 20010904//EN"
 "http://www.w3.org/TR/2001/REC-SVG-20010904/DTD/svg10.dtd">
<svg version="1.0" xmlns="http://www.w3.org/2000/svg"
 width="914.000000pt" height="1536.000000pt" viewBox="0 0 914.000000 1536.000000"
 preserveAspectRatio="xMidYMid meet">
<metadata>
Created by potrace 1.16, written by Peter Selinger 2001-2019
</metadata>
<g transform="translate(0.000000,1536.000000) scale(0.100000,-0.100000)"
fill="#000000" stroke="none">
<path d="M4557 15354 c-3 -3 -89 -12 -191 -20 -103 -8 -216 -20 -254 -28 -37
-8 -132 -29 -212 -46 -328 -72 -795 -242 -935 -342 -27 -19 -117 -78 -200
-129 -305 -190 -486 -346 -782 -676 -198 -221 -217 -245 -378 -488 -142 -214
-207 -323 -332 -560 -145 -275 -332 -687 -354 -782 -6 -26 -17 -61 -24 -78 -7
-16 -24 -68 -38 -115 -14 -47 -59 -184 -101 -305 -86 -245 -149 -457 -166
-555 -12 -69 -77 -332 -140 -568 -39 -143 -47 -197 -75 -497 -8 -88 -33 -261
-55 -385 -63 -354 -73 -439 -72 -614 1 -147 -1 -163 -23 -217 -15 -35 -33
-113 -45 -195 -11 -75 -22 -140 -25 -144 -8 -12 -45 -329 -48 -410 -1 -41 -5
-79 -9 -85 -3 -5 -9 -37 -13 -70 -4 -33 -25 -131 -46 -219 l-40 -159 40 -121
c86 -260 90 -290 166 -1271 39 -501 57 -668 85 -830 11 -60 31 -207 44 -325
14 -118 37 -276 51 -350 42 -220 139 -589 215 -825 168 -520 233 -715 265
-790 18 -44 61 -147 94 -230 74 -184 245 -528 342 -690 39 -66 102 -158 139
-205 37 -47 138 -182 225 -300 87 -118 193 -258 235 -310 119 -147 334 -374
394 -416 86 -62 392 -303 491 -388 123 -107 257 -194 405 -265 114 -54 177
-78 385 -141 39 -12 124 -43 190 -70 166 -66 263 -86 535 -110 441 -40 773
-37 858 5 18 9 108 30 199 46 92 17 196 37 231 46 80 20 378 166 544 266 67
41 183 105 256 141 351 178 541 347 933 831 298 367 370 465 474 639 46 78 99
161 118 186 86 113 258 433 321 597 19 49 57 139 85 200 28 62 51 117 51 122
0 5 27 84 60 175 33 91 71 205 85 253 26 89 128 525 141 598 3 22 19 87 35
145 37 132 133 624 154 790 9 69 23 153 30 188 18 77 38 239 65 527 12 121 32
272 45 336 29 141 48 338 75 772 19 299 23 334 48 410 38 116 37 241 -6 428
-58 254 -81 537 -82 1014 -1 285 -11 410 -45 525 -13 47 -56 261 -95 475 -77
427 -229 1074 -326 1395 -27 86 -90 220 -106 220 -4 0 -8 8 -8 18 0 73 -199
557 -360 877 -286 566 -768 1354 -983 1605 -221 258 -479 510 -717 701 -80 64
-181 146 -224 182 -44 37 -114 86 -155 110 -42 25 -140 92 -218 150 -162 120
-204 142 -358 186 -60 18 -163 50 -227 72 -108 37 -131 41 -309 54 -106 8
-219 22 -252 30 -66 17 -71 17 -80 9z"/>
</g>
</svg>
