<?xml version="1.0" standalone="no"?>
<!DOCTYPE svg PUBLIC "-//W3C//DTD SVG 20010904//EN"
 "http://www.w3.org/TR/2001/REC-SVG-20010904/DTD/svg10.dtd">
<svg version="1.0" xmlns="http://www.w3.org/2000/svg"
 width="953.000000pt" height="745.000000pt" viewBox="0 0 953.000000 745.000000"
 preserveAspectRatio="xMidYMid meet">
<metadata>
Created by potrace 1.16, written by Peter Selinger 2001-2019
</metadata>
<g transform="translate(0.000000,745.000000) scale(0.100000,-0.100000)"
fill="#000000" stroke="none">
<path d="M2440 7288 c281 -276 429 -496 539 -797 23 -62 56 -140 72 -174 26
-50 28 -58 12 -52 -10 5 -155 55 -323 111 -396 132 -450 154 -731 294 -282
142 -401 194 -572 249 -239 78 -489 129 -730 151 -224 20 -670 10 -696 -16
-17 -17 48 -29 289 -54 685 -68 1015 -174 1618 -517 204 -116 300 -163 557
-273 186 -79 455 -209 455 -220 0 -14 -110 -20 -371 -20 -279 0 -363 -8 -519
-51 -227 -63 -667 -277 -905 -440 -96 -66 -108 -76 -104 -88 2 -6 66 18 144
55 446 209 861 323 1175 324 52 0 171 -5 263 -12 202 -14 200 -17 -45 -77
-236 -58 -321 -93 -483 -202 -150 -100 -392 -313 -517 -453 -134 -151 -128
-167 15 -47 282 234 546 395 772 471 50 17 178 49 285 71 107 23 247 52 310
65 63 13 126 24 140 24 24 -1 25 -1 5 -16 -11 -8 -69 -43 -130 -77 -139 -78
-232 -169 -337 -327 -153 -231 -220 -391 -83 -196 94 133 243 288 338 354 73
50 216 127 223 119 6 -6 -78 -232 -125 -335 -22 -51 -41 -102 -41 -114 0 -21
0 -21 21 -2 12 10 66 78 120 149 112 148 166 211 175 203 3 -4 16 -68 30 -145
30 -170 36 -195 49 -194 13 0 21 56 35 245 6 88 15 166 19 175 7 11 19 -1 55
-57 75 -116 80 -106 25 53 l-28 80 22 17 c31 24 49 22 120 -13 144 -73 251
-173 321 -300 98 -179 139 -420 100 -592 -18 -79 -84 -239 -99 -239 -8 -1 -82
126 -99 167 -2 7 -7 6 -15 -1 -15 -13 17 -142 53 -213 14 -28 26 -53 26 -57 0
-3 -24 15 -52 41 -101 91 -171 129 -324 179 -43 14 -105 31 -137 37 -118 21
-111 -9 17 -73 112 -56 214 -128 282 -200 l59 -62 -30 -8 c-17 -5 -190 -13
-385 -18 -322 -8 -366 -11 -476 -34 -175 -37 -457 -140 -478 -175 -10 -16 -2
-15 151 23 277 68 463 72 738 16 83 -17 214 -36 292 -42 l143 -11 -83 -50
c-294 -177 -710 -401 -924 -496 -141 -63 -301 -115 -418 -136 -49 -9 -97 -19
-105 -22 -26 -9 19 -22 80 -22 242 -2 769 157 1160 350 74 37 136 66 136 66 1
-1 -56 -75 -128 -165 -143 -180 -208 -249 -316 -335 -40 -32 -72 -62 -72 -67
0 -37 150 30 245 109 33 27 101 98 150 158 140 168 241 268 339 335 61 42 87
55 82 42 -36 -92 -52 -278 -26 -294 8 -5 17 -7 21 -4 4 2 25 50 48 106 23 57
51 119 63 138 l22 35 6 -65 c7 -75 14 -90 40 -90 12 0 25 14 36 40 10 22 21
40 25 40 16 0 70 -165 84 -259 25 -170 17 -462 -20 -686 -8 -49 -18 -105 -21
-122 -2 -18 -9 -33 -13 -33 -5 0 -36 18 -69 40 -33 22 -65 40 -71 40 -19 0
-12 -27 14 -58 14 -17 25 -32 25 -34 0 -3 -24 -3 -53 0 -66 5 -194 -14 -225
-34 -40 -26 -12 -41 91 -47 50 -3 110 -11 131 -19 l39 -14 -34 -21 c-19 -12
-90 -49 -159 -83 -132 -66 -185 -99 -264 -164 -51 -43 -146 -151 -146 -167 0
-23 38 -4 110 54 97 77 179 119 301 152 52 15 119 35 149 45 30 11 56 18 58
15 11 -11 -276 -400 -369 -499 -32 -34 -85 -82 -118 -106 -64 -47 -77 -70 -38
-70 57 0 216 121 375 284 56 57 102 102 102 99 0 -4 -27 -76 -61 -161 -157
-401 -394 -789 -695 -1137 -254 -295 -476 -474 -728 -590 -58 -27 -103 -52
-101 -55 14 -23 216 44 345 113 315 170 712 535 1029 945 120 155 293 423 371
575 30 59 57 107 60 107 4 0 11 -49 18 -109 15 -134 44 -249 80 -320 27 -54
48 -65 46 -26 0 11 -9 58 -19 105 -16 74 -17 118 -12 347 5 240 7 265 27 310
20 43 23 46 33 30 7 -11 36 -51 65 -90 82 -109 130 -214 159 -341 13 -61 28
-115 33 -120 4 -4 14 2 20 14 9 17 10 48 1 129 -14 137 -41 232 -98 351 -55
115 -94 212 -89 218 9 8 115 -47 169 -87 29 -23 59 -41 65 -41 20 0 23 19 8
47 -18 36 -117 136 -156 159 -16 10 -30 21 -30 24 0 3 19 10 43 16 64 14 56
38 -15 44 -31 3 -59 8 -63 11 -3 4 12 67 34 140 22 74 63 224 91 334 29 110
67 248 86 307 41 126 142 323 158 307 3 -2 8 -55 12 -118 5 -86 10 -114 22
-119 8 -3 21 3 28 13 19 25 44 148 47 222 1 35 4 63 7 63 11 0 122 -159 156
-224 20 -38 67 -144 104 -236 36 -92 88 -202 113 -243 66 -105 197 -223 197
-177 0 5 -24 47 -54 93 -79 122 -101 170 -181 387 -40 107 -76 204 -80 214 -5
11 36 -25 91 -80 320 -319 795 -654 1020 -720 99 -28 94 -11 -14 50 -202 113
-419 303 -726 631 -147 158 -420 465 -412 465 2 0 57 -14 121 -30 64 -17 189
-40 278 -51 312 -41 476 -97 714 -247 74 -46 137 -81 141 -77 10 10 -114 125
-221 204 -180 134 -327 205 -595 290 -88 28 -215 74 -282 103 l-123 51 24 20
c66 53 220 106 383 132 104 17 116 20 116 35 0 28 -231 47 -365 30 -56 -7
-121 -24 -172 -44 -84 -33 -106 -30 -62 10 27 24 96 125 108 158 18 45 -2 37
-66 -26 -34 -34 -65 -60 -67 -57 -9 9 -46 253 -46 305 0 169 81 341 203 433
100 76 245 123 418 136 73 6 88 5 102 -10 9 -9 17 -22 17 -28 0 -7 -32 -48
-70 -92 -39 -44 -65 -82 -60 -83 6 -2 45 20 86 48 l76 53 -7 -34 c-4 -19 -34
-114 -66 -211 -33 -97 -59 -181 -59 -187 0 -31 29 3 114 134 53 80 99 145 104
145 10 0 53 -133 91 -287 37 -147 49 -179 61 -167 5 5 10 120 11 257 2 136 4
247 5 247 10 0 144 -169 175 -221 74 -124 143 -316 179 -501 17 -85 32 -73 24
20 -16 198 -69 422 -123 530 -16 32 -68 109 -115 172 -47 63 -86 118 -86 122
0 10 70 -33 175 -107 44 -31 154 -106 245 -167 319 -215 531 -471 756 -908 43
-84 60 -109 62 -92 7 51 -109 341 -224 561 -144 273 -243 390 -479 566 -82 61
-156 119 -164 128 -16 20 287 -80 416 -137 284 -125 600 -371 906 -705 77 -85
143 -149 145 -143 10 30 -142 252 -306 447 -205 243 -359 391 -523 501 -108
72 -195 114 -378 184 -153 58 -317 138 -305 150 15 14 288 30 511 30 243 0
402 11 678 46 244 31 577 42 775 25 272 -23 464 -64 863 -185 206 -62 267 -76
267 -58 0 13 -63 50 -180 105 -410 194 -832 303 -1260 325 -184 10 -229 9
-550 -14 -247 -18 -482 -15 -770 10 -91 8 -210 18 -266 21 l-100 7 180 182
c153 154 200 195 304 264 177 117 330 193 575 286 99 38 127 62 60 51 -177
-29 -467 -122 -639 -204 -157 -76 -227 -124 -349 -242 -113 -109 -201 -161
-351 -204 -114 -33 -128 -32 -79 8 151 120 236 232 304 399 54 133 100 298 82
298 -4 0 -22 -35 -41 -77 -105 -246 -195 -364 -457 -601 l-91 -82 -79 10
c-105 14 -227 53 -290 92 -88 56 -156 164 -194 312 -25 95 -24 123 2 131 29
10 87 63 105 97 13 25 13 29 0 34 -8 3 -30 -6 -48 -19 -18 -14 -45 -29 -60
-32 -27 -7 -28 -5 -28 28 0 23 -9 46 -24 64 -26 31 -30 50 -28 120 2 38 6 44
35 56 71 30 70 66 -4 89 -25 7 -39 17 -39 28 0 26 -54 103 -94 133 -70 54
-151 80 -251 81 -84 1 -93 -1 -141 -30 -46 -28 -53 -30 -75 -18 -32 18 -78 18
-85 -1 -3 -8 6 -36 21 -61 27 -45 27 -47 10 -84 -23 -52 -61 -90 -90 -90 -14
0 -33 -12 -48 -31 l-24 -31 -31 31 c-16 17 -37 50 -44 73 -8 24 -22 44 -31 46
-14 3 -17 -5 -17 -50 0 -57 27 -128 62 -165 l21 -22 -46 -64 c-102 -143 -238
-248 -352 -273 -114 -25 -264 -17 -410 22 l-60 16 -82 171 c-45 95 -91 206
-102 247 -28 100 -51 279 -51 396 0 55 -4 93 -9 90 -18 -12 -35 -155 -35 -306
-1 -193 15 -266 88 -416 30 -60 53 -111 51 -113 -9 -8 -129 96 -206 177 -64
68 -88 103 -103 143 -65 189 -155 328 -321 494 -166 166 -430 375 -474 375 -8
0 50 -64 129 -142z"/>
</g>
</svg>
