<?xml version="1.0" standalone="no"?>
<!DOCTYPE svg PUBLIC "-//W3C//DTD SVG 20010904//EN"
 "http://www.w3.org/TR/2001/REC-SVG-20010904/DTD/svg10.dtd">
<svg version="1.0" xmlns="http://www.w3.org/2000/svg"
 width="1536.000000pt" height="1211.000000pt" viewBox="0 0 1536.000000 1211.000000"
 preserveAspectRatio="xMidYMid meet">
<metadata>
Created by potrace 1.16, written by Peter Selinger 2001-2019
</metadata>
<g transform="translate(0.000000,1211.000000) scale(0.100000,-0.100000)"
fill="#000000" stroke="none">
<path d="M10380 12099 c-201 -23 -392 -80 -585 -174 -144 -70 -264 -147 -369
-236 -38 -32 -99 -74 -136 -93 -305 -160 -589 -431 -776 -737 -100 -164 -180
-356 -228 -547 -80 -314 -80 -666 -1 -982 142 -570 527 -1050 1056 -1315 200
-101 399 -162 634 -196 139 -19 197 -54 239 -144 34 -72 58 -165 43 -170 -14
-5 -309 -29 -612 -50 -384 -27 -793 -75 -1073 -125 -59 -11 -258 -57 -442
-104 -184 -46 -425 -103 -535 -126 -455 -94 -739 -189 -990 -329 -111 -63
-175 -85 -220 -77 -47 9 -193 116 -275 202 -113 119 -194 277 -245 479 -81
319 -52 663 84 980 70 162 77 170 177 179 105 9 208 30 329 67 612 188 1064
701 1176 1337 29 164 29 411 0 576 -39 217 -144 482 -297 743 -273 466 -776
746 -1293 720 -131 -7 -230 -25 -376 -68 -377 -114 -469 -152 -660 -279 -152
-101 -354 -303 -454 -454 -181 -273 -276 -564 -288 -886 -14 -367 81 -704 282
-1005 241 -361 585 -602 1010 -710 l130 -33 -1 -98 c-1 -80 -11 -137 -48 -294
-25 -107 -50 -226 -55 -264 -20 -139 22 -475 84 -691 14 -49 69 -197 122 -330
53 -132 97 -256 97 -275 l1 -34 -115 -49 c-228 -97 -797 -275 -1191 -372 -149
-37 -201 -45 -345 -54 -422 -27 -2056 -51 -3447 -51 -648 0 -779 -2 -783 -14
-9 -24 13 -417 24 -428 8 -8 317 -10 1054 -9 998 2 1638 -9 1815 -29 76 -8 89
-13 147 -54 73 -53 111 -115 148 -241 33 -113 32 -314 0 -429 -56 -197 -168
-352 -384 -534 -205 -171 -326 -289 -515 -499 -89 -99 -182 -196 -205 -215
l-42 -33 -221 -6 c-170 -5 -244 -11 -325 -28 -788 -165 -1364 -820 -1418
-1613 -43 -623 234 -1209 743 -1573 110 -79 338 -195 460 -234 712 -229 1463
-10 1935 564 340 414 472 975 354 1504 -130 583 -549 1064 -1111 1275 -81 31
-81 28 -26 114 47 75 156 181 399 389 268 230 378 334 475 451 124 149 167
249 184 427 4 39 16 117 26 174 21 119 24 264 8 376 -11 71 -10 79 8 103 31
42 93 57 464 112 692 102 1065 169 1344 240 160 41 210 57 545 173 119 41 263
85 320 97 130 27 229 64 535 197 402 176 662 268 896 318 266 56 321 69 534
127 409 111 607 145 704 118 54 -14 124 -83 192 -188 105 -160 144 -329 189
-817 11 -121 32 -289 45 -373 46 -281 40 -295 -125 -342 -763 -217 -1353 -822
-1539 -1580 -48 -198 -63 -322 -63 -535 0 -274 31 -463 119 -719 107 -312 277
-582 522 -827 202 -202 407 -346 646 -453 600 -268 1267 -259 1853 24 243 118
412 238 602 429 254 255 417 521 530 861 149 449 149 917 0 1370 -296 905
-1133 1510 -2091 1510 l-118 0 -35 73 c-52 106 -63 162 -96 487 -36 352 -68
551 -122 760 -65 252 -64 245 -46 284 30 62 144 99 420 137 137 19 209 23 446
23 l283 1 63 -86 c69 -93 151 -168 321 -294 444 -327 763 -395 1090 -230 120
60 205 125 355 271 69 66 154 145 190 175 245 205 461 211 1030 30 221 -70
347 -93 710 -130 362 -37 1051 -85 1080 -76 14 4 18 24 23 118 10 161 9 265
-3 272 -5 3 -222 26 -482 50 -488 46 -795 79 -882 96 -27 5 -101 25 -165 43
-252 75 -469 121 -762 160 -383 52 -659 67 -1654 91 -346 8 -671 18 -721 21
l-92 6 -11 56 c-21 106 -16 140 34 211 25 36 45 70 45 76 0 7 26 18 58 25 178
39 450 157 617 267 324 214 578 507 736 850 22 48 62 153 89 234 26 80 62 172
78 206 17 33 49 113 71 177 236 684 71 1442 -428 1959 -390 404 -950 608
-1501 546z m-5356 -626 c-169 -198 -286 -442 -346 -716 -19 -88 -22 -132 -22
-322 0 -238 11 -322 70 -500 173 -529 599 -917 1122 -1022 121 -24 394 -24
514 0 547 110 989 535 1144 1100 l25 92 -7 -75 c-8 -103 -54 -280 -107 -408
-81 -202 -201 -376 -369 -537 -432 -416 -1048 -549 -1617 -350 -520 182 -904
622 -1022 1172 -27 123 -37 389 -20 517 57 427 280 809 626 1070 33 25 61 46
63 46 1 0 -23 -30 -54 -67z m4040 -180 c-238 -363 -350 -795 -316 -1211 40
-471 215 -860 536 -1191 301 -309 663 -489 1089 -542 141 -17 412 -7 551 21
151 30 300 80 442 149 174 86 284 162 476 331 l62 55 -24 -40 c-315 -528 -821
-859 -1420 -930 -999 -119 -1920 569 -2090 1561 -40 231 -36 466 11 704 78
390 308 786 606 1044 48 42 89 76 92 76 2 0 -5 -12 -15 -27z m-3166 -2815 c18
-15 16 -25 -23 -116 -77 -184 -114 -350 -122 -557 -16 -400 108 -766 334 -987
89 -87 209 -172 266 -188 68 -19 123 -6 239 56 317 168 527 240 990 339 145
31 371 84 503 117 449 114 567 137 940 182 245 31 353 41 705 66 151 11 335
25 408 31 78 7 137 8 141 3 15 -16 161 -367 156 -373 -3 -3 -99 -4 -213 -2
-338 4 -701 -46 -842 -117 -122 -61 -142 -121 -95 -284 72 -249 115 -490 150
-853 29 -297 47 -406 80 -488 12 -31 20 -59 16 -61 -3 -2 -25 -9 -49 -16 -49
-13 -86 -5 -78 16 3 7 -2 57 -10 111 -8 54 -21 141 -29 194 -8 53 -24 194 -35
314 -54 582 -117 778 -310 974 -78 80 -131 96 -275 87 -129 -8 -224 -29 -590
-126 -165 -43 -361 -91 -435 -106 -288 -56 -553 -146 -986 -334 -268 -117
-489 -200 -533 -200 -36 0 -215 -55 -442 -135 -454 -162 -796 -235 -1769 -375
-406 -58 -462 -74 -514 -144 -23 -31 -24 -48 -11 -261 6 -104 4 -147 -9 -217
-9 -47 -23 -141 -31 -207 -9 -67 -25 -146 -36 -176 -54 -144 -227 -335 -564
-625 -330 -283 -421 -374 -470 -469 l-17 -33 -68 4 c-121 7 -121 5 69 216 200
222 305 324 506 494 245 206 343 340 412 565 24 78 27 105 27 238 1 156 -6
201 -53 326 -35 92 -77 146 -156 199 -66 44 -81 50 -156 59 -167 21 -726 31
-1767 31 -841 0 -1063 3 -1067 13 -2 6 -5 76 -8 155 l-4 142 821 0 c1398 0
2949 24 3360 51 134 9 188 18 355 59 502 125 1172 344 1303 426 59 37 65 59
38 140 -12 38 -62 168 -111 289 -124 310 -171 506 -187 767 -9 153 -4 197 52
439 25 107 49 230 53 274 8 78 9 80 38 86 35 8 84 1 103 -13z m4650 -683 c2
-2 -7 -18 -19 -35 -39 -52 -39 -152 1 -292 64 -225 158 -397 280 -511 90 -86
270 -203 444 -292 315 -159 458 -171 692 -55 203 101 378 282 337 349 -36 60
-246 78 -712 62 -289 -9 -318 -9 -525 13 -203 21 -220 24 -238 46 -25 31 -121
203 -152 273 l-25 57 112 0 c197 0 1546 -40 1722 -50 530 -33 915 -93 1307
-205 227 -65 330 -80 1056 -147 l464 -43 -7 -130 c-4 -71 -8 -130 -9 -131 0 0
-91 5 -201 12 -790 51 -1218 101 -1440 170 -399 124 -542 156 -700 156 -240 1
-357 -61 -649 -341 -162 -156 -261 -231 -378 -286 -296 -141 -622 -53 -1053
282 -229 178 -309 288 -444 611 -41 98 -50 130 -45 157 4 24 2 35 -10 42 -9 5
-25 42 -36 82 -12 40 -29 90 -40 112 -11 21 -20 41 -20 43 0 9 78 46 117 55
32 8 161 5 171 -4z m568 -840 c125 -13 202 -14 445 -6 366 12 649 0 649 -28 0
-42 -157 -177 -280 -240 -116 -59 -173 -75 -270 -75 -70 1 -100 6 -175 33
-155 57 -373 175 -525 284 -79 57 -81 60 -35 53 22 -3 108 -13 191 -21z
m-1006 -1890 c217 -39 397 -98 585 -192 626 -313 1048 -913 1135 -1613 13
-109 13 -381 -1 -490 -47 -384 -201 -752 -439 -1050 -73 -91 -240 -258 -330
-330 -51 -40 -49 -37 26 41 175 182 295 350 395 554 147 302 211 581 211 925
0 344 -64 623 -211 925 -309 632 -911 1055 -1600 1125 -475 48 -966 -91 -1358
-383 -378 -282 -656 -701 -766 -1157 -31 -127 -56 -293 -59 -386 -1 -48 -3
-57 -6 -29 -2 22 1 102 8 177 82 977 817 1754 1791 1892 139 20 485 15 619 -9z
m-7974 -1665 c500 -86 943 -412 1178 -869 122 -239 175 -449 181 -721 l4 -165
-9 135 c-29 463 -181 812 -484 1116 -229 229 -461 357 -774 427 -81 17 -130
21 -292 22 -168 0 -209 -3 -298 -23 -310 -69 -537 -191 -761 -406 -145 -140
-253 -292 -340 -477 -335 -716 -126 -1579 494 -2039 134 -99 240 -157 385
-211 112 -42 58 -35 -78 10 -300 98 -523 244 -735 480 -276 307 -438 768 -412
1171 16 246 72 458 175 665 82 163 173 288 310 425 137 137 262 228 425 310
324 161 670 212 1031 150z m1351 -1837 c-3 -10 -5 -4 -5 12 0 17 2 24 5 18 2
-7 2 -21 0 -30z"/>
</g>
</svg>
