<?xml version="1.0" encoding="UTF-8" standalone="no"?>
<!-- Created with Inkscape (http://www.inkscape.org/) -->

<svg
   xmlns:svg="http://www.w3.org/2000/svg"
   xmlns="http://www.w3.org/2000/svg"
   version="1.2"
   width="550"
   height="400"
   viewBox="0 0 550 400"
   id="Layer_3"
   xml:space="preserve"><defs
   id="defs7" />
    
    <path
   d="m 406.1,97.05 h 0.051 l 0.05,0.05 v 0.05 l -5.101,3.6 c 0.967,0.367 2.017,0.767 3.15,1.2 l 3.15,-2.35 c 0,-0.033 0.017,-0.033 0.05,0 v 0.1 l -3.101,2.25 c 1.367,0.533 2.834,1.083 4.4,1.65 l 8.3,-4.45 h 0.05 c 0.034,0 0.051,0.017 0.051,0.05 v 0.05 h -0.05 l -8.25,4.4 c 0.101,0.033 0.2,0.067 0.301,0.1 1.133,0.433 2.25,0.85 3.35,1.25 l 3.75,-3.3 h 0.05 v 0.1 l -3.7,3.25 c 1.034,0.4 2.034,0.767 3,1.1 l 6.95,-2.75 c 0,-0.033 0.017,-0.033 0.05,0 h 0.051 v 0.05 c -0.034,0 -0.051,0.017 -0.051,0.05 l -6.899,2.7 c 1.733,0.633 3.316,1.216 4.75,1.75 l 3.35,-2.05 h 0.05 v 0.1 l -3.3,2 c 1.334,0.5 2.55,0.933 3.65,1.3 0.033,0.034 0.066,0.05 0.1,0.05 l 7.5,-2.6 h 0.101 c 0,0.033 -0.017,0.05 -0.051,0.05 v 0.05 l -7.399,2.55 c 1.1,0.4 2.366,0.95 3.8,1.65 l 4,-1.8 c 0.033,0 0.05,0.017 0.05,0.05 v 0.05 l -0.05,0.05 -3.85,1.75 c 0.633,0.3 1.333,0.633 2.1,1 l 4.25,-1.6 c 0,-0.033 0.017,-0.033 0.05,0 h 0.05 v 0.05 c -0.033,0 -0.05,0.017 -0.05,0.05 l -4.2,1.6 c 1.067,0.533 2.217,1.15 3.45,1.85 0.134,0.066 0.267,0.133 0.4,0.2 l 3.25,-1.25 h 0.05 l 0.05,0.05 v 0.05 h -0.05 l -3.2,1.2 c 1,0.566 2,1.15 3,1.75 l 2.7,-1.35 h 0.05 v 0.05 c 0,0.034 -0.017,0.05 -0.05,0.05 l -2.6,1.3 c 1,0.6 2.017,1.217 3.05,1.85 l 5,-1.15 h 0.05 l 0.05,0.05 -0.05,0.05 -4.95,1.1 c 1,0.633 2,1.267 3,1.9 l 1.9,-0.55 c 0,-0.033 0.017,-0.033 0.05,0 h 0.05 l -0.05,0.05 v 0.05 l -1.85,0.55 c 0.966,0.633 1.933,1.284 2.899,1.95 0.8,0.533 1.566,1.067 2.3,1.6 l 2.051,-0.85 h 0.1 v 0.05 c 0,0.034 -0.017,0.05 -0.05,0.05 l -2,0.85 c 8.866,6.333 13.3,11.083 13.3,14.25 0,0.2 -0.017,0.417 -0.05,0.65 0.934,1.6 2.05,3.283 3.35,5.05 1.4,1.867 2.267,4.283 2.601,7.25 0.1,0.833 0.216,2.117 0.35,3.85 0.167,1.567 0.4,2.917 0.7,4.05 0.467,1.733 1.233,5.967 2.3,12.7 0.033,-0.033 0.05,-0.067 0.05,-0.1 0.3,0.067 0.55,0.05 0.75,-0.05 0.033,0 0.05,0.217 0.05,0.65 0,0.067 0.467,0.533 1.4,1.4 0.9,0.833 1.35,1.467 1.35,1.9 l -0.199,0.2 c -0.267,-0.267 -0.884,-0.9 -1.851,-1.9 -0.7,-0.8 -1.2,-1.367 -1.5,-1.7 0.033,0.267 0.084,0.55 0.15,0.85 0.3,2 0.566,3.85 0.8,5.55 0.934,0.6 2.017,1.684 3.25,3.25 1.833,2.333 2.75,3.983 2.75,4.95 0,0.433 -0.017,0.667 -0.05,0.7 l -0.101,0.1 h -0.3 c -0.5,-1.867 -1.2,-3.45 -2.1,-4.75 -0.867,-1.233 -1.967,-2.35 -3.3,-3.35 0.199,1.4 0.366,2.667 0.5,3.8 0.267,0.367 0.566,0.767 0.899,1.2 1.233,1.633 2,2.917 2.3,3.85 l -0.399,0.1 c -0.367,-0.733 -1.25,-2.083 -2.65,-4.05 0.066,0.933 0.134,1.767 0.2,2.5 2.967,4.533 5.333,9.583 7.1,15.15 v 2.2 l -0.25,0.2 c -0.366,-2.667 -1.35,-5.784 -2.949,-9.351 -0.5,-0.433 -1.2,-1.4 -2.101,-2.9 0.533,0.767 1.15,1.517 1.851,2.25 -1.067,-2.333 -2.267,-4.583 -3.601,-6.75 0.066,0.567 0.101,1.067 0.101,1.5 0.066,0.167 0.149,0.35 0.25,0.55 -0.101,-0.167 -0.184,-0.317 -0.25,-0.45 0,0.033 0,0.067 0,0.1 0,1.066 -0.034,2.267 -0.101,3.6 l 1.101,3.4 c 0.166,0.3 0.35,0.633 0.55,1 2.3,4.067 3.816,7.05 4.55,8.95 l -0.2,0.2 c -0.533,-1.066 -1.899,-3.634 -4.1,-7.7 l 0.1,0.25 -0.149,0.3 c -0.301,-0.8 -0.617,-1.6 -0.95,-2.4 -0.134,-0.267 -0.267,-0.517 -0.4,-0.75 -0.233,-0.467 -0.45,-0.9 -0.649,-1.3 -0.067,0.367 -0.101,0.733 -0.101,1.1 0.601,1.133 1.167,2.3 1.7,3.5 0.032,0.064 0.065,0.115 0.1,0.15 -0.034,-0.033 -0.067,-0.05 -0.1,-0.05 0.667,1.4 1.267,2.817 1.8,4.25 l -0.45,0.15 c -1.066,-2.533 -1.916,-4.483 -2.55,-5.85 0,-0.033 -0.017,-0.05 -0.05,-0.05 -0.1,2.534 0.717,5.5 2.45,8.9 1.3,2.6 3.316,5.767 6.05,9.5 -1.8,-1.134 -3.8,-3.8 -6,-8 -0.934,-1.767 -1.65,-3.366 -2.15,-4.8 0.034,0.733 0.051,1.566 0.051,2.5 0,0.066 0,0.149 0,0.25 0.233,0.399 0.449,0.816 0.649,1.25 0.566,1.133 1.05,2.133 1.45,3 0.267,0.333 0.55,0.684 0.85,1.05 l -0.1,0.25 c -0.066,-0.1 -0.15,-0.2 -0.25,-0.3 0.134,0.267 0.267,0.517 0.4,0.75 1.066,1.733 2.183,3.45 3.35,5.149 l -0.15,0.2 c -0.666,-0.866 -1.3,-1.733 -1.899,-2.6 l -0.2,0.149 c -0.267,-0.366 -0.55,-0.75 -0.85,-1.149 0.433,0.666 0.899,1.399 1.399,2.2 l -0.1,0.199 c -0.867,-1.199 -2.267,-3.267 -4.2,-6.199 -0.1,-0.101 -0.167,-0.2 -0.2,-0.301 0.033,0.634 0.066,1.301 0.101,2 1.899,2.233 3.8,4.767 5.699,7.601 0,0.033 0.017,0.066 0.051,0.1 1.6,2.2 3.366,6.033 5.3,11.5 1.233,3.5 2.25,6.967 3.05,10.4 0.833,3.5 1.25,6.166 1.25,8 0,2.166 -0.033,3.434 -0.1,3.8 -0.334,2.033 -1.25,3.05 -2.75,3.05 -0.101,0 -0.217,-0.017 -0.351,-0.05 -0.033,1.066 -0.1,1.95 -0.2,2.65 l -0.149,0.25 c -0.101,0.133 -0.367,0.199 -0.8,0.199 -0.434,0 -0.684,-0.033 -0.75,-0.1 0,-0.066 -0.017,-0.134 -0.051,-0.2 -0.033,0.033 -0.066,0.066 -0.1,0.101 0.467,1.366 0.85,2.583 1.15,3.649 l -0.25,0.25 c -0.467,-1.166 -0.934,-2.283 -1.4,-3.35 h -0.05 c 0.066,0.434 0.116,0.899 0.149,1.399 0.467,4.534 0.983,7.25 1.551,8.15 -1.2,-0.767 -1.983,-3.767 -2.351,-9 -0.133,0.066 -0.267,0.15 -0.399,0.25 l -0.2,-0.2 c 0.2,-0.133 0.399,-0.267 0.6,-0.399 0,-0.2 0,-0.4 0,-0.601 -0.1,0 -0.166,-0.017 -0.2,-0.05 -0.033,0.134 -0.066,0.267 -0.1,0.4 h -0.3 c 0,-0.167 0.017,-0.334 0.05,-0.5 -0.366,-0.134 -0.7,-0.334 -1,-0.601 -0.2,1.733 -0.35,3.65 -0.45,5.75 h -0.3 c -0.066,-1.399 -0.1,-2.45 -0.1,-3.149 0.1,-1.134 0.199,-2.2 0.3,-3.2 -0.834,-0.967 -1.566,-2.517 -2.2,-4.65 0.134,0.767 0.267,1.584 0.4,2.45 0,0.066 0.316,2 0.949,5.8 l -0.199,0.65 -0.301,0.05 c 0.233,0.733 0.483,1.517 0.75,2.35 L 480.4,264.7 c -1.4,-2.8 -2.317,-5.533 -2.75,-8.2 -0.101,-0.7 -0.184,-1.55 -0.25,-2.55 -0.134,-0.467 -0.267,-0.934 -0.4,-1.4 0,-0.033 -0.017,-0.066 -0.05,-0.1 0.1,1.066 0.166,2 0.2,2.8 0,0.2 -0.217,0.333 -0.65,0.4 -0.9,-1.634 -1.816,-4.101 -2.75,-7.4 l -0.1,0.05 c -0.167,-0.633 -0.334,-1.25 -0.5,-1.85 -0.5,-1.101 -0.967,-2.467 -1.4,-4.101 -0.667,-2.3 -1.134,-4.35 -1.4,-6.149 -0.466,-1.967 -0.833,-3.75 -1.1,-5.351 -0.533,-0.8 -0.967,-1.583 -1.3,-2.35 0.066,1.5 0.267,3.033 0.6,4.6 0.3,1.4 0.55,2.617 0.75,3.65 0.7,2.4 1.267,4.566 1.7,6.5 0.066,0.1 0.116,0.2 0.15,0.3 -0.034,-0.033 -0.067,-0.066 -0.101,-0.1 0.2,0.934 0.367,1.816 0.5,2.649 l -0.399,0.101 c -0.034,-0.167 -0.45,-1.584 -1.25,-4.25 -0.967,-1.533 -1.967,-3.884 -3,-7.05 0,0.281 0,0.548 0,0.8 0.233,0.633 0.5,1.316 0.8,2.05 -0.3,-0.533 -0.566,-1.05 -0.8,-1.55 0,0.733 -0.017,1.399 -0.051,2 h -0.35 c 0,-0.233 0,-0.467 0,-0.7 -0.066,0.167 -0.2,0.25 -0.4,0.25 -0.133,-0.634 -0.267,-1.217 -0.399,-1.75 0.133,1.9 0.267,3.5 0.399,4.8 -0.066,0.233 -0.199,0.351 -0.399,0.351 -0.3,-1.667 -0.55,-3.884 -0.75,-6.65 -0.066,-1.1 -0.117,-2.033 -0.15,-2.8 -0.133,-0.233 -0.233,-0.467 -0.3,-0.7 0.1,1.267 0.217,2.366 0.35,3.3 l -0.45,0.1 c -0.167,-1.267 -0.334,-2.917 -0.5,-4.95 -0.301,-1.066 -0.45,-3.351 -0.45,-6.851 0,-2.899 0.1,-4.783 0.3,-5.649 0.134,-0.733 0.333,-1.351 0.6,-1.851 0.034,-1.033 0.101,-1.8 0.2,-2.3 0.134,-0.8 0.316,-1.5 0.55,-2.1 -0.033,-0.167 -0.05,-0.316 -0.05,-0.45 -0.5,2.533 -1.149,4.55 -1.95,6.05 -0.033,0.066 -0.05,0.117 -0.05,0.15 -0.1,0.666 -0.217,1.616 -0.35,2.85 0,1.066 0.017,2.917 0.05,5.55 0.066,2.534 0.017,4.601 -0.15,6.2 h -0.149 c -0.566,2.2 -1.15,4.351 -1.75,6.45 -1.4,5.066 -2.467,10.417 -3.2,16.05 -0.066,1.167 -0.066,2.334 0,3.5 0.1,4.167 0.75,8.533 1.95,13.101 0.866,3.233 1.633,6.466 2.3,9.699 0.366,1.667 0.65,3.284 0.85,4.851 0.233,1.8 0.367,3.533 0.4,5.2 0.066,1.267 0.434,2.75 1.1,4.449 0.534,1.367 0.834,3 0.9,4.9 0.033,1.434 0.083,2.95 0.15,4.55 0.1,2.634 0.05,5.167 -0.15,7.601 -0.434,0 -0.884,0 -1.35,0 -0.667,0.033 -1.25,0.033 -1.75,0 -6.801,-0.334 -13.167,-0.034 -19.101,0.899 -1.533,0.233 -3.133,0.434 -4.8,0.601 -3.8,0.267 -6.917,-0.233 -9.35,-1.5 -0.134,0 -0.25,0 -0.351,0 -1.3,0 -2.583,0 -3.85,0 0,-0.134 -0.033,-0.2 -0.101,-0.2 -1,-0.233 -1.966,-0.517 -2.899,-0.851 0.033,0.134 0.066,0.25 0.1,0.351 0.434,1.267 0.783,2.649 1.05,4.149 -0.133,0 -0.199,0.017 -0.199,0.051 -0.101,1.399 -0.851,2.199 -2.25,2.399 0.033,0.101 0.066,0.217 0.1,0.351 -2.866,0 -5.75,0 -8.65,0 -2.399,-0.101 -4.783,-0.101 -7.149,0 -1.8,0.033 -4.517,0.25 -8.15,0.649 -3.533,0.4 -5.316,0.601 -5.35,0.601 -0.134,0 -0.483,-0.25 -1.05,-0.75 -0.567,-0.534 -0.917,-0.801 -1.051,-0.801 -0.3,0.134 -0.649,0.284 -1.05,0.45 -0.8,0.267 -1.666,0.4 -2.6,0.4 -1.167,-0.134 -2.017,-0.316 -2.55,-0.55 -0.2,-0.067 -0.417,-0.434 -0.65,-1.101 l -0.35,-0.899 c -3.867,1.066 -6.034,0.216 -6.5,-2.551 -0.467,-2.8 -0.384,-4.517 0.25,-5.149 0.666,-0.667 1.083,-1.084 1.25,-1.25 0.433,-0.367 1.1,-1.017 2,-1.95 0.199,-0.2 0.649,-0.384 1.35,-0.55 0.333,-0.101 0.684,-0.184 1.05,-0.25 1.867,-0.7 2.8,-2.217 2.8,-4.55 0,-0.5 0.5,-1.634 1.5,-3.4 0.367,-0.9 0.767,-1.816 1.2,-2.75 0.9,-2.7 1.351,-5.55 1.351,-8.55 -0.034,-1.767 -0.2,-3.566 -0.5,-5.4 -0.4,-2.333 -0.567,-4.684 -0.5,-7.05 0.033,-0.866 0.083,-1.717 0.149,-2.55 0.066,-0.167 0.101,-0.351 0.101,-0.55 0.399,-2.334 0.767,-4.733 1.1,-7.2 0.233,-1.566 0.384,-3.2 0.45,-4.9 0.1,-3.6 -0.117,-7.517 -0.65,-11.75 -0.033,-0.133 -0.083,-0.217 -0.149,-0.25 -0.767,-0.633 -1.434,-1.416 -2,-2.35 -0.034,-0.134 -0.051,-0.25 -0.051,-0.351 -0.366,-1.267 -0.733,-2.517 -1.1,-3.75 -0.134,0 -0.2,-0.033 -0.2,-0.1 -0.366,-0.434 -0.684,-0.9 -0.95,-1.4 -0.1,0 -0.183,-0.033 -0.25,-0.1 -2.3,-1.833 -4.6,-3.684 -6.899,-5.55 -0.033,-0.134 -0.101,-0.25 -0.2,-0.351 -0.267,-0.366 -0.517,-0.767 -0.75,-1.199 -2.467,-0.467 -4.4,-0.851 -5.8,-1.15 -1.467,-0.267 -2.783,-0.55 -3.95,-0.85 v 1.55 c -0.134,0.033 -0.25,0.066 -0.35,0.1 -1.101,0.334 -2.2,0.634 -3.301,0.9 l 0.75,2.6 -0.05,0.05 v 0.051 l -0.05,-0.051 -0.75,-2.6 c -1.134,0.267 -2.283,0.5 -3.45,0.7 l 0.95,2.7 -0.05,0.05 V 234 c -0.033,0 -0.05,-0.017 -0.05,-0.05 h -0.051 l -0.899,-2.7 c -1.2,0.233 -2.4,0.417 -3.601,0.55 l 0.851,2.5 c 0,0.033 -0.017,0.05 -0.05,0.05 v 0.051 H 355.6 v -0.051 l -0.85,-2.5 c -1.9,0.2 -3.767,0.317 -5.6,0.351 l 0.649,2.55 c 0,0.033 -0.017,0.05 -0.05,0.05 h -0.05 l -0.65,-2.6 c -0.133,0 -0.267,0 -0.399,0 -1.101,0 -2.184,-0.017 -3.25,-0.05 l 2.25,3.449 v 0.051 h -0.05 l -2.3,-3.5 c -1.3,0 -2.583,-0.017 -3.85,-0.051 l 1.6,3.051 v 0.05 H 343 v 0.05 l -0.05,-0.05 -1.601,-3.101 c -0.767,-0.033 -1.517,-0.05 -2.25,-0.05 l 2.65,3.55 v 0.051 h -0.05 l -2.75,-3.601 c -1.134,-0.033 -2.25,-0.083 -3.351,-0.149 l 1.95,2.399 c 0.033,0 0.05,0.017 0.05,0.05 -0.033,0 -0.05,0.017 -0.05,0.051 h -0.05 l -2.05,-2.5 c -1.566,-0.067 -3.101,-0.15 -4.601,-0.25 l 2.9,3.5 c 0.033,0 0.05,0.017 0.05,0.05 h -0.05 v 0.05 l -0.05,-0.05 -3,-3.55 c -0.434,-0.034 -0.834,-0.067 -1.2,-0.101 l 1.75,1.5 v 0.05 l -0.05,0.051 V 233.1 l -1.9,-1.55 c -3.033,-0.233 -6.033,-0.5 -9,-0.8 l 2.101,3.55 c 0.033,0 0.05,0.017 0.05,0.05 -0.033,0 -0.05,0.017 -0.05,0.051 H 322.3 l -2.1,-3.65 c -1.967,-0.233 -3.917,-0.467 -5.851,-0.7 -3.633,-0.467 -7.199,-1.017 -10.699,-1.649 l 1.899,3.399 c 0.033,0 0.05,0.017 0.05,0.05 h -0.1 l -2,-3.449 c -3.767,-0.7 -7.467,-1.483 -11.1,-2.351 l 1,2.351 v 0.05 c 0,0.033 -0.017,0.05 -0.051,0.05 h -0.05 v -0.05 l -1.05,-2.4 c -0.566,-0.133 -1.116,-0.267 -1.65,-0.399 -2.333,-0.567 -5.083,-1.301 -8.25,-2.2 0,6.366 0.417,12.267 1.25,17.7 0.2,1.433 0.351,2.949 0.45,4.55 0.066,0.967 0.117,1.95 0.15,2.95 0.333,2.733 0.7,5.533 1.1,8.399 0.4,2.733 0.834,5.517 1.3,8.351 1.4,2.933 2.384,6.283 2.95,10.05 0.5,3.366 1.267,6.45 2.3,9.25 0.334,0.934 0.7,1.833 1.101,2.7 6.333,13.566 6.7,19.933 1.1,19.1 -1.899,0.134 -3.6,0.4 -5.1,0.8 -1.334,0.4 -2.75,0.667 -4.25,0.8 v 0.15 c -0.601,-0.033 -0.917,0.134 -0.95,0.5 -0.467,0 -0.917,0.033 -1.35,0.1 -0.134,0.034 -0.267,0.067 -0.4,0.101 -0.133,0.034 -1.4,0.05 -3.8,0.05 -1.733,0.267 -3.033,0.05 -3.9,-0.65 V 308.2 c -3.633,0.366 -7.216,0.184 -10.75,-0.55 0,-0.101 -0.017,-0.15 -0.05,-0.15 -1.667,-0.434 -3.117,-1.05 -4.35,-1.85 -0.1,0 -0.217,0 -0.35,0 -1.7,-0.034 -3.15,-0.351 -4.35,-0.95 -0.3,-0.8 -0.4,-1.783 -0.3,-2.95 0.2,-2.8 0.867,-5.167 2,-7.1 0.133,0 0.217,-0.017 0.25,-0.051 1.567,-2.033 3.717,-3.5 6.45,-4.399 0,-0.134 0.017,-0.2 0.05,-0.2 1.434,-0.733 2.55,-1.733 3.35,-3 -0.3,-0.767 -0.583,-1.533 -0.85,-2.3 -0.833,-2.033 -1.733,-4 -2.7,-5.9 -0.5,-0.899 -0.967,-1.816 -1.4,-2.75 -1.5,-2.967 -3.466,-6.05 -5.9,-9.25 -1.2,-3.166 -2.35,-6.416 -3.45,-9.75 -0.434,-1.399 -0.867,-2.833 -1.3,-4.3 -1.533,-5.066 -3.417,-9.767 -5.65,-14.1 -0.067,-0.101 -0.117,-0.233 -0.15,-0.4 -0.4,0.1 -0.75,0.233 -1.05,0.4 -1.966,1.233 -3.683,2.733 -5.15,4.5 -0.833,1.899 -1.617,3.85 -2.35,5.85 -0.933,2.5 -1.85,5.05 -2.75,7.65 -0.066,0.133 -0.117,0.267 -0.15,0.399 -0.833,2.233 -1.667,4.483 -2.5,6.75 -0.066,0.233 -0.15,0.467 -0.25,0.7 -3.367,8.167 -5.267,13.533 -5.7,16.1 -0.233,1.4 -0.417,2.767 -0.55,4.101 -0.367,3.633 -0.333,7.149 0.1,10.55 V 303 c 0.567,1.2 1.133,2.384 1.7,3.55 0,0.134 0,0.233 0,0.3 -0.233,0.9 -0.45,1.784 -0.65,2.65 -0.133,0 -0.216,0.017 -0.25,0.05 -0.3,0.3 -0.55,0.601 -0.75,0.9 -0.1,0 -0.216,0 -0.35,0 -0.5,0.166 -0.95,0.383 -1.35,0.649 -0.1,0 -0.2,0 -0.3,0 -1.8,0 -3.466,0.15 -5,0.45 v -0.2 c -5,0.467 -8.05,0.95 -9.15,1.45 -0.9,0.033 -1.8,0 -2.7,-0.1 -5.934,-0.467 -11.95,-0.9 -18.05,-1.3 0,-0.134 -0.017,-0.2 -0.05,-0.2 -1.767,-0.566 -3.4,-1.25 -4.9,-2.05 0.033,-0.101 0.033,-0.167 0,-0.2 -1.1,-0.566 -1.684,-1.566 -1.75,-3 0,-0.101 0.033,-0.2 0.1,-0.3 0.767,-1.101 1.767,-1.983 3,-2.65 0.667,-1.066 1.717,-2.167 3.15,-3.3 0.833,-0.634 1.667,-1.184 2.5,-1.65 2.1,-1.866 4.417,-3.483 6.95,-4.85 0,-0.101 0.033,-0.2 0.1,-0.3 0.8,-1.167 1.533,-2.367 2.2,-3.601 0.167,-1.6 0.283,-3.133 0.35,-4.6 0.034,-2.4 -0.083,-4.65 -0.35,-6.75 -0.1,-0.601 -0.167,-1.2 -0.2,-1.8 0,-0.601 0.05,-1.2 0.15,-1.801 0.633,-4.133 1.483,-8.267 2.55,-12.399 0.167,-0.634 0.183,-1.233 0.05,-1.8 l -0.4,-0.301 1.75,-6.1 0.5,0.1 3.1,-15.75 c 0.233,-1.6 0.466,-3.149 0.7,-4.649 0.934,-5.533 1.767,-11.134 2.5,-16.8 h -0.35 c 0.133,-0.801 0.284,-1.667 0.45,-2.601 0.7,-3.767 1.05,-6.45 1.05,-8.05 -0.267,-2.333 -0.533,-4.684 -0.8,-7.05 -0.2,-1.6 -0.367,-2.967 -0.5,-4.1 -0.833,-0.6 -1.633,-1.184 -2.4,-1.75 -1.8,-1.4 -3.267,-2.833 -4.4,-4.3 -1.133,-1.433 -1.983,-2.983 -2.55,-4.65 -0.1,-0.3 -0.2,-0.617 -0.3,-0.95 -0.267,-0.967 -0.467,-2.133 -0.6,-3.5 -0.133,-0.867 -0.45,-1.633 -0.95,-2.3 -0.1,-0.167 -0.566,-0.65 -1.4,-1.45 -1.167,-1.133 -1.55,-2.65 -1.15,-4.55 -2.067,-0.367 -3.767,-1.6 -5.1,-3.7 -0.133,-0.233 -0.25,-0.434 -0.35,-0.6 -1.033,-0.133 -1.85,-0.667 -2.45,-1.6 -0.467,-0.767 -0.7,-1.533 -0.7,-2.3 v -0.05 c -0.333,-0.3 -0.683,-0.566 -1.05,-0.8 -1.434,-0.9 -3.3,-1.7 -5.6,-2.4 -0.6,-0.167 -1.917,-0.5 -3.95,-1 -0.8,0.633 -1.6,1.183 -2.4,1.65 l 0.95,2.1 v 0.05 l -0.05,0.05 H 175 v -0.05 l -1,-2.1 c -1.1,0.633 -2.167,1.133 -3.2,1.5 l 0.1,0.4 c 0,0.034 -0.017,0.05 -0.05,0.05 v 0.05 c -0.033,0 -0.05,-0.017 -0.05,-0.05 l -0.1,-0.45 c -0.967,0.3 -1.9,0.483 -2.8,0.55 -1.367,0.1 -2.733,0.033 -4.1,-0.2 l -0.9,3.95 c -0.033,0 -0.05,0.017 -0.05,0.05 h -0.05 c -0.033,0 -0.033,-0.017 0,-0.05 l 0.9,-3.95 c -0.434,-0.067 -0.867,-0.15 -1.3,-0.25 -1.267,0.6 -2.566,1.083 -3.9,1.45 l -0.25,2.65 v 0.05 h -0.1 v -0.05 l 0.25,-2.65 c -1.467,0.4 -2.933,0.65 -4.4,0.75 -0.267,0 -0.533,0.017 -0.8,0.05 l -0.4,1.35 -0.05,0.05 h -0.05 c -0.034,-0.033 -0.034,-0.05 0,-0.05 l 0.4,-1.35 c -1.333,0.067 -2.583,0.117 -3.75,0.15 l -0.8,2.3 V 167 l -0.05,0.05 -0.05,-0.05 v -0.05 l 0.75,-2.3 c -0.467,0.033 -0.934,0.05 -1.4,0.05 -0.066,0 -0.133,0 -0.2,0 l -1.15,2.85 v 0.05 h -0.05 l -0.05,-0.05 v -0.05 l 1.1,-2.75 c -1.333,0.333 -2.517,0.633 -3.55,0.9 l -0.8,2.95 h -0.05 v 0.05 l -0.05,-0.05 0.8,-2.9 c -0.833,0.2 -1.55,0.383 -2.15,0.55 l -0.65,2.5 h -0.05 v 0.05 l -0.05,-0.05 c -0.033,0 -0.033,-0.017 0,-0.05 l 0.6,-2.45 c -0.367,0.1 -0.683,0.183 -0.95,0.25 l -0.8,5.25 c -0.033,0 -0.05,0.017 -0.05,0.05 h -0.05 c -0.033,-0.033 -0.033,-0.05 0,-0.05 l 0.75,-5.2 -1.2,0.3 c -0.434,0.1 -0.867,0.217 -1.3,0.35 l -1.1,3.5 h -0.05 l -0.05,0.05 v -0.05 c -0.034,0 -0.034,-0.017 0,-0.05 l 1.1,-3.4 c -0.6,0.167 -1.167,0.333 -1.7,0.5 l -1,5.6 H 135 v -0.05 l 1,-5.55 c -0.567,0.167 -1.083,0.317 -1.55,0.45 l -1.45,4 -0.05,0.05 h -0.05 v -0.05 c -0.033,0 -0.033,-0.017 0,-0.05 l 1.4,-3.9 c -1.4,0.467 -2.517,0.883 -3.35,1.25 l -1.3,3.75 -0.05,0.05 h -0.05 c -0.033,0 -0.05,-0.017 -0.05,-0.05 v -0.05 l 1.35,-3.65 c -0.1,0.034 -0.184,0.067 -0.25,0.1 -0.467,0.233 -0.95,0.467 -1.45,0.7 l -0.35,1.7 h -0.05 c 0,0.034 -0.017,0.05 -0.05,0.05 -0.034,-0.033 -0.034,-0.05 0,-0.05 l 0.35,-1.6 c -0.5,0.233 -1.017,0.5 -1.55,0.8 l -2.1,5.25 v 0.05 h -0.05 l -0.05,-0.05 v -0.05 l 2.05,-5.1 c -0.767,0.4 -1.567,0.85 -2.4,1.35 l -0.8,6 h -0.1 v -0.05 l 0.8,-5.9 c -0.434,0.233 -0.85,0.483 -1.25,0.75 l -0.7,2.3 -0.05,0.05 h -0.05 v -0.05 c -0.033,0 -0.033,-0.017 0,-0.05 l 0.65,-2.15 c -0.4,0.267 -0.8,0.517 -1.2,0.75 -0.067,0.033 -0.683,0.417 -1.85,1.15 l -0.9,3.45 V 179 h -0.1 v -0.05 l 0.9,-3.35 c -0.633,0.4 -1.417,0.9 -2.35,1.5 l -0.95,3.3 h -0.05 v 0.05 l -0.05,-0.05 0.9,-3.2 c -1.167,0.733 -2.566,1.633 -4.2,2.7 -0.067,0.033 -0.133,0.083 -0.2,0.15 l -1.45,4.9 h -0.1 c -0.033,0 -0.033,-0.017 0,-0.05 l 1.4,-4.75 c -5.833,3.733 -10.633,6.367 -14.4,7.9 -0.833,0.333 -1.617,0.617 -2.35,0.85 -0.833,0.267 -1.733,0.583 -2.7,0.95 -4.367,1.533 -10.367,3.967 -18,7.3 -8.433,3.8 -12.683,5.7 -12.75,5.7 -0.1,0 -0.2,0 -0.3,0 -0.767,1.5 -1.633,3.167 -2.6,5 -1.167,2.2 -2.867,5.367 -5.1,9.5 -0.367,-0.267 -0.667,-0.666 -0.9,-1.199 -0.167,-0.467 -0.25,-0.884 -0.25,-1.25 0,-0.967 0.167,-2.434 0.5,-4.4 0.1,-0.533 0.184,-1.017 0.25,-1.45 -0.833,1.667 -1.967,3.8 -3.4,6.4 -0.133,-0.066 -0.233,-0.15 -0.3,-0.25 l -0.55,0.25 c -0.333,0 -0.55,0 -0.65,0 -0.133,-0.033 -0.2,-0.267 -0.2,-0.7 0,-0.333 0.1,-0.7 0.3,-1.1 -0.033,-0.134 -0.05,-0.284 -0.05,-0.45 0,-2.134 0.817,-4.95 2.45,-8.45 -0.833,0.4 -1.45,0.6 -1.85,0.6 -0.433,0.034 -1.066,0.051 -1.9,0.051 l -1.15,-0.051 -0.1,-0.149 c -0.067,-0.134 -0.1,-0.4 -0.1,-0.8 0,-0.967 1.867,-2.584 5.6,-4.851 -0.033,0 -0.067,0.017 -0.1,0.05 -1.833,0.6 -3,0.966 -3.5,1.1 l -2.95,0.2 c -0.7,-0.167 -1.3,-0.617 -1.8,-1.351 -0.467,-0.633 -0.7,-1.2 -0.7,-1.7 0,-0.8 0.233,-1.35 0.7,-1.65 0.333,-0.233 1.083,-0.467 2.25,-0.7 -0.1,-0.1 -0.167,-0.233 -0.2,-0.4 -0.567,-0.7 -0.85,-1.233 -0.85,-1.6 0,-0.467 0.017,-0.783 0.05,-0.95 l 0.05,-0.1 c 0.233,-0.034 1.167,-0.133 2.8,-0.3 1.433,-0.133 2.5,-0.217 3.2,-0.25 0.233,-0.033 0.45,-0.05 0.65,-0.05 0.6,-0.233 1.233,-0.483 1.9,-0.75 2.667,-1 4.833,-1.767 6.5,-2.3 0.1,-0.133 0.183,-0.25 0.25,-0.35 0.733,-1.3 2.217,-3.45 4.45,-6.45 3.2,-4.333 5.167,-6.8 5.9,-7.4 0.1,-0.067 0.183,-0.184 0.25,-0.35 -2.934,0.667 -5.633,1.567 -8.1,2.7 -3.8,1.767 -8.433,2.667 -13.9,2.7 -5.434,0.067 -9.6,0.1 -12.5,0.1 -0.033,0.067 -0.083,0.1 -0.15,0.1 -1.267,0.433 -2.567,1.133 -3.9,2.1 -0.066,0.033 -0.1,0.066 -0.1,0.1 0.466,1.4 0.433,2.767 -0.1,4.1 0.066,-0.033 0.117,-0.033 0.15,0 0.733,0.367 0.85,0.767 0.35,1.2 -0.2,0.2 -0.417,0.333 -0.65,0.4 -1.5,0.6 -2.983,0.433 -4.45,-0.5 -0.267,-0.133 -0.5,-0.3 -0.7,-0.5 -1.667,-1.367 -2.667,-2.8 -3,-4.3 0.067,-0.034 0.1,-0.067 0.1,-0.1 0.033,-0.733 0.05,-1.467 0.05,-2.2 0.033,-0.066 0.066,-0.117 0.1,-0.15 0.3,-0.533 0.5,-1.067 0.6,-1.6 0.067,-0.066 0.117,-0.117 0.15,-0.15 1.2,-1.133 2.4,-2.25 3.6,-3.35 0.733,-0.333 1.533,-0.816 2.4,-1.45 1.434,-1.1 2.917,-2.017 4.45,-2.75 2.967,-1.5 5.967,-3.083 9,-4.75 1.467,-0.767 2.933,-1.483 4.4,-2.15 1.333,-0.6 2.684,-1.333 4.05,-2.2 1.267,-0.8 2.566,-1.5 3.9,-2.1 3,-2.2 6.017,-4.267 9.05,-6.2 1.033,-0.667 2.05,-1.45 3.05,-2.35 0.1,-0.1 0.233,-0.267 0.4,-0.5 0.033,-0.067 0.05,-0.15 0.05,-0.25 0.467,-0.1 0.934,-0.217 1.4,-0.35 l 0.1,0.05 c 0.733,-0.9 1.45,-1.417 2.15,-1.55 0.034,0 0.083,-0.017 0.15,-0.05 0.066,-0.533 0.45,-1.066 1.15,-1.6 0.033,-0.034 0.083,-0.083 0.15,-0.15 0.5,-0.1 1,-0.316 1.5,-0.65 0.033,0 0.067,-0.033 0.1,-0.1 0.167,-0.733 0.733,-1.5 1.7,-2.3 2.5,-2.067 4.95,-4.017 7.35,-5.85 0.1,-0.333 0.25,-0.683 0.45,-1.05 0,-0.033 -0.017,-0.083 -0.05,-0.15 0.767,-0.667 1.517,-1.2 2.25,-1.6 0.9,-0.5 1.583,-1.117 2.05,-1.85 0.433,-0.033 0.883,-0.15 1.35,-0.35 0.033,0 0.066,0.017 0.1,0.05 0.633,-0.467 1.067,-0.95 1.3,-1.45 0.033,-0.033 0.083,-0.083 0.15,-0.15 0.433,-0.067 0.883,-0.133 1.35,-0.2 0.033,0 0.083,-0.033 0.15,-0.1 0.233,-0.333 0.467,-0.683 0.7,-1.05 l -0.05,-0.1 c 0.233,0 0.5,-0.117 0.8,-0.35 l 0.1,0.05 c 0.5,-0.7 1.067,-1.1 1.7,-1.2 0.033,0 0.067,0.017 0.1,0.05 0.433,-0.2 0.75,-0.517 0.95,-0.95 0.133,-0.267 0.3,-0.483 0.5,-0.65 0.333,-0.2 0.667,-0.25 1,-0.15 0.034,0.033 0.083,0.083 0.15,0.15 3,-2 5.983,-4.017 8.95,-6.05 3.067,-2.1 6.083,-4.167 9.05,-6.2 0.2,-0.1 0.367,-0.233 0.5,-0.4 0.667,-0.3 1.333,-0.567 2,-0.8 1.633,-1.267 3.233,-2.633 4.8,-4.1 l -1.1,-0.7 v -0.05 c -0.033,-0.033 -0.033,-0.05 0,-0.05 h 0.05 c 0,-0.033 0.017,-0.033 0.05,0 l 1.05,0.75 c 1.067,-1.033 2.1,-2.117 3.1,-3.25 0.2,-0.233 0.417,-0.467 0.65,-0.7 l -1.95,-1.55 v -0.05 c 0,-0.034 0.017,-0.05 0.05,-0.05 l 1.95,1.55 c 0.4,-0.467 0.833,-0.983 1.3,-1.55 l -2.45,-2.05 v -0.1 h 0.05 l 2.45,2.1 c 0.633,-0.767 1.316,-1.583 2.05,-2.45 l -3.3,-2.55 V 98.3 c -0.034,-0.033 -0.034,-0.05 0,-0.05 H 130 c 0,-0.033 0.017,-0.05 0.05,-0.05 l 3.25,2.6 c 0.167,-0.2 0.35,-0.417 0.55,-0.65 L 130.8,98.7 v -0.05 c -0.033,0 -0.033,-0.017 0,-0.05 h 0.05 l 3.05,1.45 c 0.4,-0.5 0.817,-1.017 1.25,-1.55 l -1.8,-0.8 c -0.033,0 -0.05,-0.017 -0.05,-0.05 V 97.6 h 0.05 c 0,-0.033 0.017,-0.033 0.05,0 l 1.8,0.8 c 0.167,-0.2 0.35,-0.417 0.55,-0.65 l -1.55,-0.5 -0.05,-0.05 v -0.05 h 0.05 l 1.6,0.5 c 0.067,-0.133 0.15,-0.25 0.25,-0.35 l -3.15,-2.95 c -0.033,0 -0.033,-0.017 0,-0.05 -0.033,0 -0.033,-0.017 0,-0.05 h 0.05 c 0,-0.033 0.017,-0.033 0.05,0 l 3.15,3 c 0.1,-0.133 0.184,-0.25 0.25,-0.35 0.2,-0.267 0.417,-0.517 0.65,-0.75 l -2.45,-1.1 c -0.033,0 -0.033,-0.017 0,-0.05 0,-0.033 0.017,-0.033 0.05,0 l 2.45,1.1 c 0.2,-0.233 0.4,-0.45 0.6,-0.65 L 135,92.1 V 92 h 0.05 l 0.05,0.05 2.7,3.3 c 0.067,-0.133 0.15,-0.25 0.25,-0.35 l -1.35,-1.3 c -0.034,-0.034 -0.034,-0.05 0,-0.05 V 93.6 h 0.05 l 1.4,1.35 c 0.633,-0.7 1.283,-1.367 1.95,-2 l -3,-2.25 v -0.05 c 0,-0.033 0.017,-0.05 0.05,-0.05 h 0.05 l 3,2.3 c 0.167,-0.167 0.333,-0.316 0.5,-0.45 l -1.9,-3.55 c 0,-0.033 0,-0.066 0,-0.1 h 0.05 v 0.05 l 1.95,3.5 c 0.534,-0.5 1.083,-0.967 1.65,-1.4 l -1.15,-2.2 V 88.7 c 0,-0.034 0.017,-0.05 0.05,-0.05 h 0.05 l 1.15,2.25 c 0.333,-0.3 0.684,-0.566 1.05,-0.8 l -3.55,-4.2 v -0.1 h 0.1 l 3.5,4.2 c 0.434,-0.3 0.867,-0.583 1.3,-0.85 l -0.7,-1.45 v -0.05 h 0.05 V 87.6 c 0.034,0 0.05,0.017 0.05,0.05 l 0.7,1.4 c 0.067,-0.066 0.15,-0.133 0.25,-0.2 0.167,-0.1 0.35,-0.2 0.55,-0.3 l -3.3,-4.1 V 84.4 l 0.05,-0.05 h 0.05 v 0.05 l 3.3,4.1 c 0.267,-0.2 0.55,-0.383 0.85,-0.55 l -2.1,-2.8 c -0.034,0 -0.034,-0.017 0,-0.05 v -0.05 h 0.05 v 0.05 l 2.1,2.85 c 0.167,-0.1 0.316,-0.2 0.45,-0.3 l -0.95,-0.9 V 86.7 c 0,-0.034 0.017,-0.05 0.05,-0.05 h 0.05 l 0.95,0.95 c 1.1,-0.633 2.267,-1.217 3.5,-1.75 l -1.15,-3.15 c -0.033,0 -0.033,-0.017 0,-0.05 0,-0.033 0.017,-0.033 0.05,0 h 0.05 L 151,85.8 c 0.2,-0.1 0.4,-0.183 0.6,-0.25 L 151,84.3 c -0.033,0 -0.033,-0.017 0,-0.05 0.033,-0.033 0.05,-0.033 0.05,0 h 0.05 l 0.6,1.25 c 0.566,-0.233 1.133,-0.467 1.7,-0.7 l -0.05,-0.9 -0.65,-1.4 v -0.05 h 0.1 l 0.5,1.1 -0.2,-1.9 V 81.6 c 0,-0.033 0.017,-0.05 0.05,-0.05 h 0.05 v 0.05 l 0.25,2.2 0.35,0.85 c 0.633,-0.233 1.284,-0.467 1.95,-0.7 l -0.1,-3.35 0.05,-0.05 c 0,0.034 0.017,0.05 0.05,0.05 l 0.1,3.35 c 0.433,-0.167 0.883,-0.317 1.35,-0.45 l 0.2,-3.4 0.05,0.8 -0.15,2.55 c 0.1,-0.034 0.217,-0.067 0.35,-0.1 l -0.2,-2.45 0.05,-0.8 0.25,3.25 c 0.2,-0.067 0.4,-0.133 0.6,-0.2 l 0.2,-2.7 c 0,-0.034 0.017,-0.067 0.05,-0.1 0.033,0 0.05,0.017 0.05,0.05 h 0.05 l -0.25,2.75 c 0.566,-0.2 1.15,-0.367 1.75,-0.5 0.066,-0.033 0.133,-0.05 0.2,-0.05 l 0.3,-4 v -0.05 c 0.033,0 0.05,0.017 0.05,0.05 h 0.05 l -0.3,4 c 0.2,-0.067 0.4,-0.133 0.6,-0.2 l 0.4,-2.6 0.05,-0.05 h 0.05 v 0.05 h 0.05 l -0.45,2.55 c 0.667,-0.133 1.333,-0.267 2,-0.4 l 0.45,-2.25 v -0.05 c 0,-0.033 0.017,-0.033 0.05,0 0.033,0 0.05,0.017 0.05,0.05 l -0.4,2.2 c 0.267,-0.066 0.533,-0.117 0.8,-0.15 l 1.15,-5.95 c 0,-0.033 0.017,-0.05 0.05,-0.05 h 0.05 v 0.05 l -1.15,5.9 c 0.3,-0.034 0.6,-0.083 0.9,-0.15 l 0.6,-3.25 c 0,-0.033 0,-0.066 0,-0.1 h 0.05 v 0.05 c 0.034,0 0.05,0.017 0.05,0.05 l -0.6,3.25 c 0.7,-0.133 1.4,-0.267 2.1,-0.4 l 1.75,-6.9 c 0,-0.033 0.017,-0.033 0.05,0 h 0.05 v 0.05 l -1.75,6.85 c 0.033,0 0.083,0 0.15,0 l 1.9,-5.25 h 0.05 c 0,-0.033 0.017,-0.033 0.05,0 v 0.05 l -1.85,5.15 c 0.433,-0.067 0.883,-0.133 1.35,-0.2 l 0.4,-1.2 h 0.05 c 0,-0.034 0.017,-0.034 0.05,0 v 0.05 l -0.35,1.15 c 0.2,-0.033 0.417,-0.066 0.65,-0.1 l 2.55,-7.6 c 0,-0.034 0.017,-0.05 0.05,-0.05 h 0.05 V 73.2 L 170,80.75 c 0.5,-0.033 1,-0.083 1.5,-0.15 l 1.4,-3.25 c 0.033,-0.033 0.05,-0.033 0.05,0 H 173 v 0.05 l -1.4,3.2 c 0.2,-0.033 0.417,-0.067 0.65,-0.1 l 4,-6.3 h 0.05 c 0,-0.034 0.017,-0.034 0.05,0 v 0.05 l -4,6.25 c 0.9,-0.1 1.8,-0.167 2.7,-0.2 0.4,-0.066 0.817,-0.1 1.25,-0.1 l 3.3,-3.7 h 0.15 c 0,0.033 -0.017,0.05 -0.05,0.05 l -3.25,3.65 c 0.767,-0.067 1.55,-0.117 2.35,-0.15 l 3.35,-3.3 h 0.1 v 0.1 l -3.3,3.2 c 1.6,-0.066 3.233,-0.1 4.9,-0.1 l 2.95,-2.65 h 0.1 l -2.9,2.65 c 4.567,0.033 9.367,0.3 14.4,0.8 0.5,0.067 0.983,0.117 1.45,0.15 4.167,0.7 8.2,1.567 12.1,2.6 l 0.95,-1.55 V 81.9 h 0.05 c 0,0.033 0.017,0.05 0.05,0.05 l -0.05,0.05 -0.9,1.5 c 1.434,0.4 2.85,0.8 4.25,1.2 0.633,0.2 1.267,0.4 1.9,0.6 l 1.4,-2.1 0.05,-0.05 h 0.05 v 0.1 l -1.4,2.05 c 1.833,0.567 3.534,1.15 5.1,1.75 0.2,0 0.434,0.017 0.7,0.05 l 1.85,-2.2 c 0,-0.033 0.017,-0.05 0.05,-0.05 0,0.033 0.017,0.05 0.05,0.05 l -0.05,0.05 -1.8,2.2 c 1.566,0.133 3.033,0.317 4.4,0.55 l 0.7,-1.15 h 0.05 c 0,-0.033 0.017,-0.033 0.05,0 v 0.05 l -0.7,1.1 c 1.267,0.2 2.45,0.433 3.55,0.7 L 233.1,87 c 0,-0.033 0.017,-0.05 0.05,-0.05 h 0.05 v 0.1 l -0.85,1.35 c 0,0.033 0.017,0.05 0.05,0.05 0.333,-0.167 2.1,-0.167 5.3,0 l 0.45,-1.05 c 0.033,-0.033 0.05,-0.033 0.05,0 h 0.05 v 0.05 l -0.4,1 c 3.167,0.1 6.467,-0.4 9.9,-1.5 3.467,-1.133 7.55,-1.517 12.25,-1.15 4.667,0.4 8.8,1.467 12.4,3.2 h 5.05 l 0.7,-1.2 h 0.05 l 0.05,0.05 -0.05,0.05 -0.65,1.1 h 6.101 l 0.8,-1.6 c 0.033,-0.033 0.05,-0.033 0.05,0 h 0.05 v 0.05 l -0.8,1.55 h 2.3 c 1,-0.067 2.101,-0.15 3.3,-0.25 l 1,-2.2 c 0.034,-0.033 0.051,-0.033 0.051,0 h 0.05 v 0.05 l -0.95,2.1 c 1.267,-0.133 2.667,-0.267 4.2,-0.4 l 0.85,-1.3 0.05,-0.05 h 0.051 v 0.1 l -0.851,1.2 c 1.101,-0.1 2.25,-0.217 3.45,-0.35 l 0.7,-1.35 c 0,-0.033 0.017,-0.033 0.05,0 h 0.05 c 0,0.034 -0.017,0.05 -0.05,0.05 l -0.6,1.25 c 0.1,0 0.216,-0.017 0.35,-0.05 5.233,-0.5 11.467,-0.9 18.7,-1.2 h 13.1 l 0.75,-1.3 h 0.05 c 0.034,-0.033 0.051,-0.033 0.051,0 h 0.05 c 0,0.034 -0.017,0.05 -0.05,0.05 l -0.7,1.25 h 1.899 c 0.334,0.033 3.784,0.5 10.351,1.4 2.5,0.367 4.934,0.733 7.3,1.1 l 0.85,-1.3 h 0.101 v 0.1 l -0.851,1.2 c 3.467,0.566 6.784,1.133 9.95,1.7 l 0.9,-1.7 0.05,-0.05 h 0.05 v 0.1 L 359.4,90.8 c 1.166,0.233 2.316,0.45 3.449,0.65 1.567,0.3 3.067,0.6 4.5,0.9 l 1.301,-1.6 h 0.05 l 0.05,0.05 -0.05,0.05 -1.25,1.55 c 1.934,0.4 3.767,0.8 5.5,1.2 l 2.399,-2.45 h 0.101 v 0.1 l -2.351,2.4 c 2,0.467 3.851,0.934 5.551,1.4 l 3.899,-3.9 h 0.05 l 0.051,0.05 c 0,0.033 -0.017,0.05 -0.051,0.05 l -3.8,3.85 c 1.167,0.333 2.267,0.667 3.3,1 l 4.65,-4.1 h 0.05 v 0.05 h 0.05 l -0.05,0.05 -4.6,4 c 0.566,0.2 1.116,0.383 1.649,0.55 0.434,0.067 0.884,0.133 1.351,0.2 0.533,0.066 1.033,0.15 1.5,0.25 l 0.05,-0.05 c 0,-0.033 0.017,-0.033 0.05,0 0.033,0 0.05,0.017 0.05,0.05 1.101,0.167 2.101,0.316 3,0.45 l 3.2,-2.6 h 0.05 L 393.15,95 v 0.05 l -3.15,2.5 c 2.733,0.434 4.467,0.75 5.2,0.95 l 1.649,-1.45 h 0.051 l 0.05,0.05 v 0.05 l -1.601,1.4 c 0.034,0 0.067,0.017 0.101,0.05 0.8,0.3 1.666,0.617 2.6,0.95 l 2.601,-2.05 c 0,-0.033 0.017,-0.033 0.05,0 0.033,0 0.05,0.017 0.05,0.05 h -0.05 l -2.55,2.05 c 0.866,0.333 1.816,0.7 2.85,1.1 l 5.099,-3.65 z m 55.15,64.2 c 1.366,5.067 2.35,15.683 2.95,31.85 0.033,1.367 0.083,2.767 0.149,4.2 0.101,-0.5 0.2,-0.933 0.301,-1.3 0.433,-1.533 0.883,-2.867 1.35,-4 0.1,-0.6 0.217,-1.1 0.35,-1.5 0.2,-0.667 0.467,-1.267 0.801,-1.8 -0.067,-1.633 -0.551,-5.75 -1.45,-12.35 -1,-7.367 -1.783,-12.033 -2.351,-14 0,-0.033 0,-0.067 0,-0.1 -0.666,-0.167 -1.367,-0.5 -2.1,-1 z m 4.25,34.7 c 0.1,-1.267 0.217,-2.35 0.35,-3.25 -0.6,1.566 -1.1,3.2 -1.5,4.9 0,1.1 0.034,2.217 0.101,3.35 0.366,-1.534 0.684,-2.717 0.95,-3.55 0.033,-0.467 0.066,-0.95 0.099,-1.45 z m 8.1,1 c -0.033,-0.133 -0.083,-0.25 -0.149,-0.35 0,0.033 0,0.066 0,0.1 0.066,0.067 0.115,0.15 0.149,0.25 z m -0.2,0.15 c -0.101,0.833 -0.2,1.717 -0.301,2.65 0.101,0.067 0.184,0.15 0.25,0.25 -0.066,-0.467 -0.1,-0.917 -0.1,-1.35 0,-0.3 0.05,-0.5 0.15,-0.6 0,-0.033 0.166,-0.15 0.5,-0.35 -0.166,-0.2 -0.333,-0.4 -0.499,-0.6 z m 1.45,12.35 c 0.2,0.366 0.634,1.066 1.301,2.1 -0.534,-0.934 -1.084,-1.983 -1.65,-3.149 -0.032,0 -0.049,-0.017 -0.05,-0.051 0,0.201 0.017,0.401 0.05,0.601 0.099,0.165 0.216,0.332 0.349,0.499 z m 0.3,9.2 c 0.333,0.767 0.616,1.466 0.85,2.1 0.2,0.167 0.384,0.35 0.55,0.55 -0.333,-0.866 -0.583,-1.566 -0.75,-2.1 -0.267,-0.533 -0.517,-1.033 -0.75,-1.5 0.033,0.3 0.066,0.616 0.1,0.95 z m 2.65,-1.3 c 0.101,0.034 0.2,0.067 0.3,0.101 -1,-1.066 -2.083,-2.351 -3.25,-3.851 0.534,0.934 1.15,1.917 1.851,2.95 0.2,0.3 0.533,0.8 1,1.5 0.032,-0.234 0.066,-0.467 0.099,-0.7 z m 0.35,1.3 c 0.566,0.8 1.3,1.8 2.199,3 -0.633,-1.233 -1.283,-2.5 -1.949,-3.801 -0.067,0.234 -0.15,0.501 -0.25,0.801 z m -0.5,-0.25 c -0.301,-0.467 -0.617,-0.934 -0.95,-1.4 -0.134,-0.2 -0.267,-0.4 -0.4,-0.6 0.4,0.8 0.834,1.649 1.3,2.55 0.034,-0.167 0.05,-0.35 0.05,-0.55 z m 0.3,1.25 c 0.434,0.866 0.899,1.8 1.399,2.8 2.167,4.366 3.717,7.717 4.65,10.05 1.033,1.767 1.9,3.384 2.6,4.85 -1.366,-4.6 -3.3,-9.5 -5.8,-14.699 -0.733,-0.967 -1.633,-2.2 -2.7,-3.7 -0.066,0.233 -0.116,0.466 -0.149,0.699 z m -0.95,2.8 c -0.2,-0.233 -0.4,-0.467 -0.6,-0.7 0,0.066 0.017,0.116 0.05,0.15 0.2,0.233 0.416,0.483 0.649,0.75 -0.033,-0.067 -0.066,-0.133 -0.099,-0.2 z m -12.5,-19.9 c 0,0.601 0,1.217 0,1.851 0.167,-0.667 0.316,-1.4 0.45,-2.2 0.066,-0.467 0.149,-1.217 0.25,-2.25 -0.334,1.199 -0.566,2.066 -0.7,2.599 z m 0.25,2.5 c -0.233,0.601 -0.467,1.167 -0.7,1.7 0,0.1 -0.017,0.2 -0.05,0.3 0.2,-0.533 0.417,-0.967 0.65,-1.3 0.034,-0.233 0.067,-0.467 0.1,-0.7 z m -0.15,1.3 c -0.699,1.634 -1.199,3.467 -1.5,5.5 0.134,-0.6 0.217,-1 0.25,-1.199 0.301,-0.967 0.667,-1.801 1.101,-2.5 0.032,-0.535 0.082,-1.134 0.149,-1.801 z m 0.75,8.3 c 0,-0.067 0,-0.134 0,-0.2 -0.033,0.033 -0.066,0.066 -0.1,0.1 -0.167,0.733 -0.283,1.517 -0.35,2.351 0.033,-0.233 0.066,-0.45 0.1,-0.65 0.1,-0.601 0.217,-1.135 0.35,-1.601 z m -3.05,4.15 v -2.3 c -0.233,1.366 -0.316,2.85 -0.25,4.45 0,0.166 0,0.333 0,0.5 0.1,-1.033 0.183,-1.917 0.25,-2.65 z m 1.8,3.35 c 0,2.312 0.067,4.087 0.2,5.324 0,-0.043 0,-0.085 0,-0.125 -0.033,-2.033 0,-3.949 0.101,-5.75 -0.067,-1.366 -0.101,-2.3 -0.101,-2.8 0,-0.833 0.017,-1.583 0.05,-2.25 -0.1,0.334 -0.166,0.684 -0.199,1.05 l -0.051,0.25 c -0.033,0.434 -0.05,0.884 -0.05,1.351 l -0.05,0.4 c -0.033,0.834 0,1.683 0.1,2.55 z m -1.8,5.45 v -4.3 c -0.066,0.367 -0.1,0.717 -0.1,1.05 0.033,1.1 0.067,2.183 0.1,3.25 z m 3.05,-3.15 c 0,0.7 0.134,1.666 0.4,2.899 -0.167,-1.166 -0.3,-2.166 -0.4,-3 0,0.035 0,0.068 0,0.101 z m 0.2,7.4 c 0,0.101 0.017,0.2 0.05,0.301 0.233,0.666 0.5,1.416 0.801,2.25 -0.034,-0.434 -0.051,-0.867 -0.051,-1.301 -0.366,-1.199 -0.666,-2.316 -0.899,-3.35 0,0.4 0.017,0.783 0.05,1.15 -10e-4,0.333 0.016,0.65 0.049,0.95 z m 12.35,-6.05 c -0.233,-0.399 -0.45,-0.8 -0.65,-1.2 -0.033,0 -0.066,0.017 -0.1,0.051 0.166,0.3 0.333,0.616 0.5,0.949 0.067,0.067 0.15,0.133 0.25,0.2 z m -0.85,-1.7 v 0.101 c 0.467,0.467 0.934,1 1.4,1.6 -0.233,-0.5 -0.434,-0.95 -0.601,-1.35 -0.3,-0.4 -0.633,-0.783 -1,-1.15 0.101,0.299 0.168,0.565 0.201,0.799 z m 6.75,10.55 v 0.149 c 0.167,0.533 0.351,1.066 0.55,1.601 l 0.25,-0.101 c -0.1,-0.233 -0.366,-0.816 -0.8,-1.75 0,0.034 0,0.067 0,0.101 z m -16.9,-3.1 c 0.066,0.233 0.133,0.467 0.199,0.7 -0.066,-0.267 -0.116,-0.533 -0.149,-0.8 -0.033,-0.167 -0.066,-0.334 -0.101,-0.5 -0.027,-0.084 -0.053,-0.167 -0.074,-0.25 0.053,0.353 0.094,0.637 0.125,0.85 z m 4.3,2.1 c 0.2,1.166 0.45,2.383 0.75,3.649 -0.033,-0.8 -0.05,-1.6 -0.05,-2.399 0,-0.233 0.017,-0.434 0.05,-0.601 -0.267,-0.3 -0.517,-0.583 -0.75,-0.85 0,0.068 0,0.134 0,0.201 z m 3.35,3.4 c 0.03,0.062 0.047,0.136 0.05,0.226 0,-0.025 0,-0.051 0,-0.075 0,-0.033 0,-0.066 0,-0.101 0,-0.034 -0.017,-0.05 -0.05,-0.05 z m -0.25,1.7 c 0.2,1.2 0.434,2.517 0.7,3.95 -0.134,-1.066 -0.233,-2.084 -0.3,-3.05 -0.134,-0.3 -0.266,-0.6 -0.4,-0.9 z m -7.85,-3.5 c -0.2,-0.4 -0.384,-0.767 -0.55,-1.1 0.166,1.033 0.366,2.083 0.6,3.149 0,-0.599 -0.017,-1.282 -0.05,-2.049 z M 485,236.9 c 0,0.033 -0.05,0.083 -0.15,0.149 -0.133,-0.033 -0.25,-0.083 -0.35,-0.149 0.267,0.8 0.517,1.6 0.75,2.399 0.033,0 0.066,-0.017 0.1,-0.05 -0.033,0.066 -0.066,0.134 -0.1,0.2 0.667,2.533 1.116,5.066 1.35,7.6 0.067,0.566 0.134,1.117 0.2,1.65 0.934,-0.033 1.467,-0.167 1.601,-0.4 -0.167,-3.434 -1.284,-7.533 -3.351,-12.3 v 0.05 c 0,0.501 -0.017,0.784 -0.05,0.851 z m -1.95,3.2 c 0.066,0.434 0.15,0.851 0.25,1.25 0.033,0.134 0.066,0.267 0.101,0.4 0.033,-0.167 0.083,-0.316 0.149,-0.45 -0.166,-0.666 -0.333,-1.333 -0.5,-2 -0.066,-0.267 -0.133,-0.566 -0.2,-0.899 0.067,0.599 0.133,1.165 0.2,1.699 z m -5.4,0.75 c 0.066,-0.333 0.149,-0.633 0.25,-0.899 -0.067,-0.233 -0.15,-0.45 -0.25,-0.65 -0.267,-0.267 -0.534,-0.566 -0.801,-0.899 0.234,0.798 0.501,1.615 0.801,2.448 z m 2.15,-0.25 c 0.101,0.301 0.184,0.584 0.25,0.851 0.267,0.533 0.566,1.116 0.9,1.75 -0.167,-0.533 -0.334,-1.084 -0.5,-1.65 h -0.05 c 0,-0.033 0,-0.066 0,-0.1 -0.101,-0.267 -0.2,-0.566 -0.301,-0.9 C 480,240.583 479.9,240.6 479.8,240.6 z m -1.35,1.05 c -0.066,0.333 -0.117,0.666 -0.15,1 0.101,0.333 0.217,0.649 0.351,0.949 -0.034,-0.533 -0.067,-1.083 -0.101,-1.649 -0.033,-0.1 -0.067,-0.2 -0.1,-0.3 z m -1.7,1.1 c 0.167,1.434 0.333,2.75 0.5,3.95 0.033,-1.767 0.083,-3.167 0.15,-4.2 -0.367,-1.033 -0.684,-2.017 -0.95,-2.95 0.066,0.667 0.133,1.384 0.2,2.15 0.133,0.233 0.267,0.467 0.399,0.7 0.001,0.166 -0.099,0.284 -0.299,0.35 z m 1.4,2.8 c 0.399,1.7 0.983,4.167 1.75,7.4 0.533,2.033 1.066,3.533 1.6,4.5 0.1,-1.3 0.2,-2.483 0.3,-3.55 -0.8,-1.967 -1.55,-3.851 -2.25,-5.65 -0.166,-0.467 -0.333,-0.9 -0.5,-1.3 l -0.3,0.1 c 0,-0.333 0,-0.649 0,-0.95 -0.2,-0.533 -0.4,-1.05 -0.6,-1.55 0,0.3 0,0.634 0,1 z m 1.65,1 c -0.166,-0.767 -0.366,-1.533 -0.6,-2.3 v 0.8 c 0.066,0.167 0.133,0.334 0.2,0.5 0.133,0.334 0.267,0.667 0.4,1 z m 0.7,-0.25 c 0.233,0.8 0.35,1.417 0.35,1.851 0,0.466 -0.017,0.783 -0.05,0.949 0.367,0.867 0.767,1.817 1.2,2.851 0.033,-0.434 0.05,-0.834 0.05,-1.2 -0.233,-0.733 -0.483,-1.583 -0.75,-2.55 -0.366,-1.467 -0.633,-2.434 -0.8,-2.9 0,0.299 0,0.633 0,0.999 z m 0.1,-1.7 c 0.233,0.534 0.584,1.4 1.051,2.601 -0.167,-0.767 -0.567,-1.851 -1.2,-3.25 0.033,0.267 0.05,0.533 0.05,0.8 L 480.6,244.6 z m 1.1,2.85 c 0.166,0.399 0.333,0.85 0.5,1.35 0.033,-0.233 0.05,-0.434 0.05,-0.6 -0.066,-0.3 -0.134,-0.584 -0.2,-0.851 l -0.35,0.101 z m 2.55,-0.25 c 0.2,0.267 0.4,0.5 0.6,0.7 -0.199,-1.301 -0.433,-2.634 -0.699,-4 -0.067,0.399 -0.117,0.816 -0.15,1.25 0.099,0.734 0.183,1.416 0.249,2.05 z m -56.4,9.85 c -0.133,-0.767 -0.283,-1.566 -0.449,-2.399 -0.267,-1.167 -0.617,-2.267 -1.051,-3.301 v 4.301 c -0.133,0.466 -0.283,0.933 -0.449,1.399 -1,2.601 -2.4,4.884 -4.2,6.851 0.033,0.1 0.05,0.216 0.05,0.35 -0.233,1.033 -0.517,2.066 -0.85,3.1 0.033,0.134 0.05,0.25 0.05,0.351 -0.033,2.133 0,4.316 0.1,6.55 -0.1,0 -0.166,0.033 -0.2,0.1 -0.333,1.967 -0.783,3.801 -1.35,5.5 0.033,1.601 0.083,3.217 0.15,4.851 0.066,1.733 0.183,3.483 0.35,5.25 0.267,3.267 0.233,6.25 -0.1,8.95 0.233,1.1 0.716,1.116 1.449,0.05 0.434,-0.7 0.95,-1.334 1.551,-1.9 0.966,-0.967 1.933,-1.934 2.899,-2.899 l -0.05,-0.551 c 0.033,-0.033 0.066,-0.083 0.1,-0.149 2.034,-2.3 3.267,-5.217 3.7,-8.75 0.101,-0.667 0.15,-1.367 0.15,-2.101 0.066,-1.267 0.05,-2.633 -0.05,-4.1 -0.367,-5.6 -0.784,-11.267 -1.25,-17 -0.1,-1.437 -0.284,-2.92 -0.55,-4.453 z m 56.6,-7.6 h 0.05 c 0,-0.033 -0.017,-0.066 -0.05,-0.101 0,0.035 0,0.068 0,0.101 z m 0.05,0.5 c 0,0.333 0,0.649 0,0.95 0,1.066 -0.05,2.066 -0.15,3 0.367,0.633 0.717,1.1 1.051,1.399 0.033,-0.5 0.05,-1.166 0.05,-2 -0.101,-1.533 -0.267,-3.1 -0.5,-4.7 -0.2,-0.1 -0.384,-0.216 -0.55,-0.35 0.199,0.5 0.416,1 0.649,1.5 0,0.134 -0.066,0.25 -0.2,0.35 -0.133,-0.066 -0.25,-0.116 -0.35,-0.149 z m -1.65,2.75 c -0.033,0.333 -0.066,0.684 -0.1,1.05 0.066,0.233 0.167,0.483 0.3,0.75 0.066,0.167 0.134,0.35 0.2,0.55 0,-0.533 0,-1.066 0,-1.6 -0.134,-0.233 -0.267,-0.483 -0.4,-0.75 z m -4.75,-4.35 c 0,1.101 0.017,2.101 0.051,3 0.1,0.5 0.216,0.983 0.35,1.45 h 0.1 c -0.066,-0.399 -0.166,-1.233 -0.3,-2.5 l 0.25,-0.05 c -0.133,-0.733 -0.283,-1.517 -0.45,-2.35 -10e-4,0.133 -10e-4,0.284 -10e-4,0.45 z m -1.85,2.55 c -0.2,-0.367 -0.4,-0.767 -0.6,-1.2 -0.134,-0.101 -0.267,-0.184 -0.4,-0.25 0.333,1.3 0.717,2.733 1.15,4.3 h 0.199 c 0,-0.7 -0.05,-1.483 -0.149,-2.35 -0.066,-0.167 -0.134,-0.334 -0.2,-0.5 z m 7.95,3.9 c -0.066,0.434 -0.15,0.867 -0.25,1.3 0,0.267 0.017,0.567 0.05,0.9 0.134,0.366 0.267,0.75 0.4,1.15 0.3,-0.301 0.566,-0.717 0.8,-1.25 0.033,-0.267 0.083,-0.534 0.149,-0.801 0,-0.1 0.017,-0.199 0.051,-0.3 -0.433,-0.233 -0.834,-0.566 -1.2,-0.999 z m -1.1,2.2 c -0.233,-0.533 -0.449,-1.066 -0.649,-1.6 -0.167,0.899 -0.3,1.866 -0.4,2.899 0.3,0.334 0.601,0.5 0.9,0.5 H 483 c 0.066,-0.533 0.116,-1.083 0.15,-1.649 h -0.2 c 0.033,-0.067 0.083,-0.117 0.15,-0.15 z m 0.4,1.5 c -0.033,0.1 -0.05,0.184 -0.05,0.25 h 0.05 c 0,-0.066 0,-0.15 0,-0.25 z m 2.05,0.2 c 0,-0.167 0.017,-0.351 0.05,-0.55 -0.133,0.233 -0.267,0.416 -0.399,0.55 0.132,0.033 0.249,0.033 0.349,0 z m -10.6,-10.4 c 0.1,0.2 0.217,0.384 0.35,0.55 -0.2,-0.5 -0.416,-1.05 -0.649,-1.649 0.033,0.133 0.066,0.25 0.1,0.35 0.033,0.101 0.066,0.2 0.1,0.3 h -0.05 c 0.032,0.132 0.083,0.283 0.149,0.449 z m 12.85,0.95 c -0.333,0 -0.649,-0.033 -0.95,-0.1 0.067,0.833 0.101,1.633 0.101,2.399 0,0.566 -0.033,1.167 -0.101,1.8 0,0.134 0,0.25 0,0.351 0,0.8 -0.017,1.517 -0.05,2.149 0.9,-0.1 1.55,-0.649 1.95,-1.649 0.2,-1.134 0.3,-1.717 0.3,-1.75 0,-1.4 -0.083,-2.851 -0.25,-4.351 -0.2,0.767 -0.533,1.151 -1,1.151 z M 153.7,84.7 l -0.25,-0.5 0.05,0.55 c 0.067,0 0.133,-0.017 0.2,-0.05 z m -74.65,97.05 c 4.067,-3.333 7.15,-5.933 9.25,-7.8 2.467,-2.167 4.3,-3.983 5.5,-5.45 0.567,-0.7 0.983,-1.317 1.25,-1.85 -0.433,0.333 -0.85,0.667 -1.25,1 -3.566,2.8 -6.15,4.9 -7.75,6.3 -3.367,2.9 -5.7,5.417 -7,7.55 v 0.25 z"
   id="path3"
   style="fill-rule:evenodd" />
    
</svg>