<?xml version="1.0" standalone="no"?>
<!DOCTYPE svg PUBLIC "-//W3C//DTD SVG 20010904//EN"
 "http://www.w3.org/TR/2001/REC-SVG-20010904/DTD/svg10.dtd">
<svg version="1.0" xmlns="http://www.w3.org/2000/svg"
 width="1128.000000pt" height="1536.000000pt" viewBox="0 0 1128.000000 1536.000000"
 preserveAspectRatio="xMidYMid meet">
<metadata>
Created by potrace 1.16, written by Peter Selinger 2001-2019
</metadata>
<g transform="translate(0.000000,1536.000000) scale(0.100000,-0.100000)"
fill="#000000" stroke="none">
<path d="M7684 15351 c-17 -4 -37 -12 -45 -17 -8 -5 -66 -11 -129 -14 -100 -4
-119 -8 -144 -27 -22 -18 -37 -22 -65 -17 -29 5 -50 -2 -113 -35 -43 -23 -86
-41 -97 -41 -24 0 -338 -159 -496 -252 -61 -35 -165 -104 -232 -154 -66 -49
-176 -128 -244 -176 -68 -48 -178 -133 -244 -190 -167 -142 -644 -622 -870
-873 -430 -480 -449 -496 -1050 -875 -824 -519 -1182 -780 -1519 -1110 -423
-413 -780 -914 -1491 -2090 -448 -742 -644 -1177 -845 -1875 -65 -224 -100
-377 -100 -434 0 -37 6 -49 39 -82 85 -86 161 -47 578 298 97 80 174 139 170
132 -3 -8 -33 -79 -67 -159 -160 -376 -389 -1011 -474 -1315 -50 -179 -60
-252 -60 -410 1 -240 62 -520 131 -592 32 -35 33 -35 107 -31 52 2 80 8 93 21
28 24 40 22 84 -18 37 -33 43 -35 107 -35 78 1 261 25 273 37 4 4 115 190 247
413 442 748 613 1020 640 1020 15 0 124 -57 172 -90 62 -43 277 -142 403 -186
75 -26 137 -53 137 -59 0 -6 -39 -90 -86 -185 -47 -96 -107 -224 -132 -285
-78 -188 -66 -251 92 -490 127 -191 164 -275 246 -555 73 -249 210 -678 425
-1330 102 -311 225 -686 272 -835 l85 -270 -3 -130 c-8 -278 -3 -395 21 -465
25 -74 84 -178 135 -240 19 -23 35 -45 36 -48 1 -4 4 -187 9 -407 4 -261 11
-413 19 -437 16 -51 70 -119 112 -142 77 -42 171 16 208 127 23 68 54 259 71
437 6 63 13 116 14 118 7 7 45 -56 141 -233 54 -99 122 -219 152 -267 117
-189 265 -365 351 -415 44 -26 106 -33 125 -14 30 30 26 245 -8 340 -8 23 -32
73 -52 111 -21 38 -35 72 -31 76 4 3 121 -48 260 -114 358 -170 442 -197 482
-153 67 74 -17 295 -159 417 -113 96 -155 137 -155 150 0 39 178 112 295 121
97 8 130 -6 203 -80 178 -181 375 -476 517 -774 l68 -143 121 0 c67 0 139 5
161 11 52 14 98 59 125 122 47 108 13 190 -184 452 -76 102 -132 183 -127 188
5 5 113 4 247 -3 346 -18 559 0 621 54 22 19 24 25 14 44 -18 33 -73 61 -414
206 -512 218 -689 318 -842 471 -100 100 -177 213 -259 386 -107 225 -154 321
-191 389 -66 122 -259 671 -911 2590 -184 544 -189 602 -83 914 l64 188 350
123 c811 283 920 329 1185 498 333 213 529 388 999 892 443 474 601 659 658
770 22 44 114 206 203 359 459 793 644 1235 690 1646 5 52 15 457 20 899 l11
804 71 176 c150 372 298 646 456 843 30 37 57 68 61 68 3 0 33 4 66 9 111 18
407 41 900 71 554 34 895 57 943 65 40 7 40 19 2 108 -41 98 -149 255 -220
321 -99 91 -213 163 -269 170 -17 2 -63 22 -102 46 -39 23 -83 43 -97 43 -15
0 -43 10 -63 24 -20 13 -43 21 -51 18 -8 -3 -31 3 -51 15 -23 14 -49 20 -76
19 -30 -2 -47 3 -64 19 -21 20 -31 22 -80 16 -43 -5 -65 -3 -93 11 -20 9 -69
21 -108 26 -89 11 -96 19 -136 152 -47 157 -108 305 -155 377 -82 127 -256
306 -376 388 -103 69 -395 210 -529 253 -126 41 -142 44 -229 42 -76 -2 -100
0 -120 14 -22 15 -62 19 -261 24 -175 5 -245 11 -275 23 -42 16 -156 20 -211
7z m-3900 -9441 c2 -3 12 -75 21 -160 33 -321 81 -576 121 -651 26 -47 91
-114 165 -171 73 -55 130 -199 400 -1008 240 -721 397 -1225 469 -1503 23 -90
30 -140 30 -211 0 -106 -10 -142 -90 -316 -44 -95 -53 -124 -53 -170 1 -97 77
-298 145 -383 38 -49 38 -74 0 -134 -94 -147 -204 -186 -313 -113 -85 56 -189
151 -233 213 -58 81 -80 133 -105 251 -34 157 -69 227 -178 359 -120 145 -199
352 -584 1531 -263 805 -401 1268 -450 1506 -27 133 -31 265 -7 300 22 33 44
114 62 230 28 174 92 357 143 402 37 34 66 38 260 35 106 -1 194 -5 197 -7z"/>
</g>
</svg>
