<?xml version="1.0" standalone="no"?>
<!DOCTYPE svg PUBLIC "-//W3C//DTD SVG 20010904//EN"
 "http://www.w3.org/TR/2001/REC-SVG-20010904/DTD/svg10.dtd">
<svg version="1.0" xmlns="http://www.w3.org/2000/svg"
 width="1536.000000pt" height="944.000000pt" viewBox="0 0 1536.000000 944.000000"
 preserveAspectRatio="xMidYMid meet">
<metadata>
Created by potrace 1.16, written by Peter Selinger 2001-2019
</metadata>
<g transform="translate(0.000000,944.000000) scale(0.100000,-0.100000)"
fill="#000000" stroke="none">
<path d="M5064 9373 c-5 -38 -7 -101 -5 -140 3 -70 2 -73 -24 -85 -23 -10 -28
-10 -36 5 -5 9 -16 14 -23 11 -14 -5 -18 2 -30 59 -9 38 -31 29 -32 -14 -2
-74 -17 -51 -29 45 -4 31 -12 59 -17 62 -23 14 -27 -15 -14 -90 8 -49 10 -74
3 -67 -7 7 -14 7 -23 0 -11 -9 -8 -19 11 -49 21 -33 22 -39 8 -44 -19 -8 -15
-12 -47 51 -18 37 -30 51 -41 47 -19 -8 -19 -6 10 -64 29 -57 29 -60 12 -60
-7 0 -27 29 -45 65 -24 48 -36 63 -47 58 -10 -3 -14 -12 -9 -22 3 -9 8 -25 11
-36 4 -19 3 -19 -14 2 -10 12 -25 31 -33 43 -10 14 -19 17 -29 11 -11 -7 -6
-24 28 -86 23 -43 40 -79 39 -80 -35 -26 -43 -23 -68 25 -18 36 -29 47 -39 41
-11 -7 -9 -17 7 -54 19 -42 19 -57 2 -57 -4 0 -17 24 -31 53 -28 61 -58 97
-75 90 -7 -3 -22 13 -34 37 -18 34 -24 39 -36 29 -12 -10 -12 -16 6 -47 12
-19 19 -41 16 -49 -3 -8 8 -44 24 -80 17 -36 30 -69 30 -73 0 -4 -11 -12 -24
-18 -30 -14 -30 -14 -86 106 -24 50 -47 92 -51 92 -20 0 -17 -25 11 -86 16
-37 28 -69 25 -72 -7 -8 -8 -7 -64 105 -36 73 -55 101 -65 97 -12 -4 -12 -12
-4 -36 8 -22 8 -32 -1 -37 -8 -5 -2 -27 19 -75 31 -68 35 -91 10 -61 -7 8 -18
15 -25 15 -7 0 -18 7 -25 15 -7 8 -16 12 -21 9 -5 -3 -9 0 -9 5 0 6 -7 11 -15
11 -8 0 -15 -8 -15 -18 0 -11 -7 -18 -20 -18 -13 0 -20 7 -20 18 0 10 -7 18
-15 18 -9 0 -15 -10 -15 -26 0 -33 -33 -30 -38 4 -2 12 -9 22 -16 22 -15 0
-26 -52 -26 -127 0 -46 -2 -51 -20 -46 -11 3 -20 9 -20 14 0 5 -10 8 -22 6
-18 -2 -23 5 -31 41 -9 44 -31 57 -40 22 -8 -32 -27 -23 -27 13 0 47 -10 77
-26 77 -17 0 -17 -3 2 -160 9 -72 14 -135 12 -140 -2 -5 -34 15 -72 45 -54 43
-72 53 -83 44 -11 -10 -10 -14 4 -24 19 -14 26 -45 13 -60 -6 -7 -2 -31 10
-63 15 -38 16 -50 6 -46 -7 3 -19 17 -25 31 -9 19 -17 24 -34 20 -15 -4 -44 7
-87 33 -54 32 -66 36 -73 23 -5 -8 -7 -16 -5 -17 1 -1 20 -13 41 -25 20 -13
34 -27 31 -33 -3 -5 3 -16 14 -23 21 -15 36 -55 21 -55 -15 0 -49 39 -49 56 0
11 -5 14 -16 10 -9 -3 -18 -6 -20 -6 -3 0 -2 -5 2 -12 4 -6 9 -23 10 -37 1
-14 8 -52 15 -83 7 -32 10 -60 6 -64 -4 -4 -19 -2 -34 5 -22 10 -28 10 -32 -1
-2 -7 -16 13 -30 44 -20 44 -29 56 -40 49 -12 -7 -10 -20 11 -72 14 -35 23
-69 21 -77 -8 -20 -17 -5 -58 101 -35 87 -50 109 -67 91 -3 -3 8 -39 24 -80
17 -41 28 -77 25 -80 -3 -4 -22 4 -41 16 -34 20 -56 20 -56 0 0 -5 18 -19 40
-30 26 -13 37 -25 34 -34 -4 -10 8 -22 35 -36 23 -11 41 -25 41 -30 0 -15 -13
-12 -86 20 -63 29 -94 33 -94 12 0 -5 18 -17 40 -27 22 -10 40 -22 40 -28 0
-5 -6 -7 -14 -4 -29 11 -27 -27 5 -65 17 -22 29 -41 27 -43 -2 -2 -28 3 -58
11 -52 15 -84 23 -156 39 -24 5 -33 3 -37 -9 -5 -12 4 -18 38 -27 25 -6 45
-17 45 -25 0 -7 15 -17 33 -22 33 -9 152 -123 152 -146 0 -6 -15 -10 -37 -9
-22 1 -38 -3 -41 -10 -3 -9 -27 -13 -76 -11 -54 1 -71 -2 -71 -12 0 -8 -6 -14
-12 -14 -15 0 -130 18 -170 26 -23 5 -28 2 -28 -14 0 -15 9 -21 48 -26 188
-25 322 -50 313 -59 -7 -7 -47 -4 -118 7 -176 27 -210 28 -216 11 -7 -17 -3
-20 44 -29 23 -4 39 -13 41 -24 4 -13 28 -22 94 -36 49 -10 92 -20 96 -22 4
-3 -14 -39 -39 -82 -25 -42 -46 -81 -46 -87 0 -5 34 -107 76 -225 74 -213 137
-407 137 -428 0 -6 -31 -28 -69 -50 l-70 -40 -30 80 c-17 44 -31 84 -31 89 0
14 -28 25 -145 59 -60 18 -169 56 -240 84 l-131 53 -361 -87 c-198 -48 -367
-91 -374 -96 -8 -4 -113 -86 -234 -182 -125 -99 -307 -256 -423 -365 -151
-142 -296 -264 -555 -467 l-352 -275 -87 -213 -88 -213 -63 -365 -63 -366 115
-81 c63 -45 119 -85 123 -88 5 -3 -52 -316 -126 -696 l-136 -690 63 -364 63
-364 162 -212 163 -212 291 -216 291 -215 119 0 c65 0 118 3 117 8 0 4 -110
104 -244 222 l-243 215 -136 293 c-75 162 -133 299 -129 305 21 34 235 322
241 324 4 1 80 -129 170 -289 160 -288 162 -291 162 -352 0 -57 13 -95 148
-432 82 -203 229 -562 326 -799 l177 -430 107 -59 c59 -33 177 -106 263 -163
l156 -103 524 -75 524 -75 457 60 c252 33 465 60 473 60 8 0 15 9 15 20 0 20
-4 21 -142 14 -79 -3 -233 -9 -343 -13 l-200 -8 -285 78 c-210 57 -369 109
-605 196 l-320 119 -13 72 c-9 53 -118 327 -408 1034 l-395 963 37 77 37 76
-39 54 c-21 29 -83 113 -137 186 -93 127 -101 141 -152 284 -30 84 -53 154
-50 156 2 2 133 -39 292 -92 253 -85 312 -109 488 -199 168 -86 200 -105 197
-122 -2 -11 -30 -58 -63 -105 -32 -47 -91 -147 -129 -222 l-70 -138 0 -215 0
-216 311 -437 312 -437 332 -335 c182 -184 385 -393 451 -463 l119 -128 104
36 c58 19 108 35 112 35 4 0 17 -16 29 -35 l22 -35 251 0 252 0 315 89 315 88
360 253 c198 139 367 259 375 266 12 12 7 12 -30 0 -25 -9 -299 -94 -610 -190
-542 -168 -574 -176 -801 -215 -288 -50 -277 -50 -250 -12 12 16 21 33 21 39
0 5 -50 115 -110 243 l-111 234 -382 383 c-210 211 -492 488 -626 615 -159
151 -238 233 -228 235 9 2 222 -58 474 -132 l458 -135 517 -36 517 -36 378
100 378 100 415 36 415 36 340 -61 340 -62 445 7 c541 9 479 9 1020 0 l445 -7
340 62 340 61 415 -36 415 -36 379 -100 379 -101 516 36 516 37 458 135 c252
74 466 134 474 132 10 -2 -73 -87 -228 -235 -134 -127 -416 -404 -626 -615
l-382 -383 -111 -234 c-60 -128 -110 -238 -110 -243 0 -6 9 -23 21 -39 18 -25
18 -29 4 -29 -9 0 -123 18 -253 41 -229 39 -257 47 -817 220 -319 99 -593 184
-610 190 -26 8 -28 8 -15 -4 8 -8 177 -128 375 -267 l360 -253 317 -88 317
-89 250 0 249 0 22 35 c12 19 25 35 29 35 4 0 54 -16 112 -35 l104 -36 119
128 c66 70 269 279 451 463 l332 335 312 437 311 437 0 216 0 215 -70 138
c-38 75 -97 175 -129 222 -33 47 -61 94 -63 105 -3 16 32 37 212 127 185 92
254 120 488 199 150 50 275 89 277 87 3 -2 -20 -72 -50 -156 -51 -143 -59
-157 -152 -284 -54 -73 -116 -157 -137 -186 l-39 -54 37 -76 37 -77 -395 -962
c-292 -710 -398 -981 -408 -1035 l-13 -72 -330 -122 c-247 -92 -399 -141 -605
-197 l-275 -74 -200 8 c-110 4 -264 10 -342 13 -134 6 -143 6 -143 -12 0 -16
44 -24 473 -80 l474 -62 523 75 524 75 171 113 c93 61 212 135 262 162 l92 50
177 430 c97 237 244 596 326 799 135 337 148 375 148 432 0 61 2 64 163 352
89 160 165 290 169 289 6 -2 220 -290 241 -324 4 -6 -54 -143 -129 -305 l-136
-293 -243 -215 c-134 -118 -244 -218 -244 -222 -1 -5 52 -8 118 -8 l118 0 289
213 289 214 165 214 164 214 63 364 63 363 -135 690 -136 690 23 17 c12 9 68
48 123 87 56 39 99 77 98 85 -1 8 -29 172 -62 366 l-61 352 -85 207 c-47 114
-91 214 -97 221 -6 8 -160 130 -341 271 -247 191 -383 305 -536 450 -187 176
-639 549 -695 573 -12 5 -106 29 -211 54 -104 25 -262 62 -349 83 l-159 39
-131 -52 c-72 -29 -180 -67 -241 -85 -119 -35 -145 -46 -145 -59 0 -5 -14 -45
-31 -89 l-30 -80 -70 40 c-38 22 -69 44 -69 50 0 21 63 215 137 428 42 118 76
220 76 225 0 6 -21 45 -46 87 -25 43 -43 79 -39 82 4 2 47 12 96 22 66 14 90
23 94 36 2 11 18 20 41 24 47 9 51 12 44 29 -6 17 -40 16 -216 -11 -71 -11
-111 -14 -118 -7 -9 9 125 34 314 59 38 5 47 11 47 26 0 16 -5 19 -27 14 -41
-8 -156 -26 -170 -26 -7 0 -13 6 -13 14 0 10 -17 13 -71 12 -49 -2 -73 2 -76
11 -3 7 -19 11 -41 10 -22 -1 -37 3 -37 9 0 23 119 137 152 146 18 5 33 15 33
22 0 8 20 19 45 25 34 9 43 15 38 27 -4 12 -13 14 -37 9 -72 -16 -104 -24
-156 -39 -30 -8 -56 -13 -58 -11 -3 2 10 21 27 41 19 21 30 43 27 51 -3 8 -6
16 -6 19 0 2 -7 1 -15 -2 -34 -13 -12 14 25 31 22 10 40 22 40 27 0 21 -31 17
-94 -12 -73 -32 -86 -35 -86 -20 0 5 18 19 41 30 27 14 39 26 35 36 -3 9 8 21
34 34 22 11 40 25 40 30 0 20 -22 20 -56 0 -19 -12 -38 -20 -41 -16 -3 3 8 39
25 80 16 41 27 77 24 80 -17 18 -32 -4 -67 -91 -41 -106 -50 -121 -58 -101 -2
8 7 42 21 77 21 52 23 65 11 72 -11 7 -20 -5 -40 -49 -14 -31 -28 -51 -30 -44
-4 11 -10 11 -32 1 -15 -7 -30 -9 -34 -5 -4 4 -1 32 6 64 7 31 14 69 15 83 1
14 6 30 9 36 4 6 0 14 -9 17 -22 9 -24 8 -24 -9 0 -16 -34 -55 -49 -55 -15 0
0 40 21 55 11 7 17 18 14 23 -3 6 11 20 31 33 21 12 40 24 41 25 2 1 0 9 -5
17 -7 13 -19 9 -73 -23 -43 -26 -72 -37 -87 -33 -17 4 -25 -1 -34 -20 -6 -14
-18 -28 -25 -31 -10 -4 -9 8 6 46 12 32 16 56 10 63 -13 15 -6 46 13 60 14 10
15 14 4 24 -11 9 -29 -1 -83 -44 -38 -30 -70 -50 -72 -45 -2 5 3 68 12 140 19
157 19 160 2 160 -16 0 -26 -30 -26 -77 0 -36 -19 -45 -27 -13 -9 35 -31 22
-40 -22 -8 -36 -13 -43 -31 -41 -12 2 -22 -1 -22 -6 0 -5 -9 -11 -20 -14 -18
-5 -20 0 -20 46 0 75 -11 127 -26 127 -7 0 -14 -10 -16 -22 -5 -34 -38 -37
-38 -4 0 16 -6 26 -15 26 -8 0 -15 -8 -15 -18 0 -11 -7 -18 -20 -18 -13 0 -20
7 -20 18 0 10 -7 18 -15 18 -8 0 -15 -5 -15 -11 0 -5 -4 -8 -9 -5 -5 3 -14 -1
-21 -9 -7 -8 -18 -15 -25 -15 -7 0 -18 -7 -25 -15 -25 -30 -21 -7 10 61 21 48
27 70 19 75 -9 5 -9 15 -1 37 8 24 8 32 -4 36 -10 4 -29 -24 -65 -97 -56 -112
-57 -113 -64 -105 -3 3 9 35 25 72 28 62 31 86 11 86 -4 0 -30 -46 -56 -102
-26 -57 -49 -104 -50 -106 -4 -5 -55 21 -55 28 0 4 13 37 30 73 16 36 27 72
24 80 -3 8 4 30 16 49 18 31 18 37 6 47 -12 10 -18 5 -36 -29 -12 -24 -27 -40
-34 -37 -17 7 -47 -29 -75 -90 -14 -29 -27 -53 -31 -53 -17 0 -17 15 2 57 16
37 18 47 7 54 -10 6 -21 -5 -39 -41 -25 -48 -33 -51 -68 -25 -1 1 16 37 39 80
34 62 39 79 28 86 -10 6 -19 3 -29 -11 -49 -64 -52 -66 -47 -45 3 11 8 27 11
36 5 10 1 19 -9 22 -11 5 -23 -10 -47 -58 -18 -36 -38 -65 -45 -65 -17 0 -17
3 12 60 29 58 29 56 10 64 -11 4 -23 -10 -41 -47 -32 -63 -28 -59 -47 -51 -14
5 -13 11 8 44 19 30 22 40 11 49 -9 7 -16 7 -23 0 -7 -7 -5 18 3 67 13 75 9
104 -14 90 -5 -3 -13 -31 -17 -62 -12 -96 -27 -119 -29 -45 -1 43 -23 52 -32
14 -12 -57 -16 -64 -30 -59 -7 3 -18 -2 -23 -11 -8 -15 -13 -15 -36 -5 -26 12
-27 15 -24 85 5 100 -9 207 -27 207 -12 0 -14 -24 -13 -126 0 -69 -2 -128 -4
-131 -3 -3 -11 -2 -17 2 -9 5 -10 25 -6 65 4 37 3 61 -4 65 -5 3 -10 17 -10
31 0 15 -6 24 -15 24 -12 0 -15 -16 -15 -80 0 -65 -3 -80 -15 -80 -12 0 -15
11 -13 51 4 63 -18 80 -27 22 -11 -61 -16 -73 -30 -73 -10 0 -14 22 -14 99 -1
108 -6 131 -28 131 -11 0 -14 -17 -12 -87 2 -61 -2 -96 -12 -113 -13 -23 -14
-16 -19 85 -4 97 -7 110 -24 113 -18 4 -18 -2 -11 -117 7 -118 6 -121 -14
-121 -20 0 -21 5 -21 120 0 116 -1 120 -21 120 -21 0 -22 -3 -16 -97 l5 -98
-20 63 c-13 40 -25 62 -35 62 -12 0 -14 -7 -9 -35 5 -24 1 -44 -11 -67 l-17
-33 -6 30 c-9 49 -33 42 -55 -16 -20 -52 -45 -76 -45 -44 0 9 7 30 16 47 12
23 13 33 4 42 -8 8 -15 6 -25 -8 -11 -15 -15 -16 -19 -5 -2 8 -10 31 -16 52
-6 20 -18 37 -26 37 -19 0 -18 -10 7 -93 14 -49 17 -73 10 -80 -15 -15 -15
-13 -45 86 -18 58 -32 87 -41 87 -20 0 -19 -12 9 -103 22 -70 21 -97 -3 -83
-5 3 -19 45 -32 92 -22 77 -39 107 -55 91 -3 -3 7 -49 22 -102 23 -81 25 -98
13 -106 -23 -14 -25 -12 -77 61 -39 55 -52 67 -60 57 -9 -10 -1 -29 33 -79
l44 -65 -25 -12 c-14 -6 -27 -11 -29 -11 -2 0 -20 25 -41 55 -29 45 -39 53
-50 44 -12 -10 -12 -16 3 -38 37 -57 47 -83 32 -91 -14 -10 -28 7 -110 132
-41 62 -54 76 -65 67 -16 -13 -19 -6 63 -125 35 -51 63 -95 63 -98 0 -24 -30
10 -101 114 -64 93 -86 117 -96 109 -7 -6 -9 -16 -5 -23 4 -6 40 -60 80 -119
40 -59 69 -107 65 -107 -5 0 -21 19 -37 43 -108 155 -160 216 -172 206 -11 -9
4 -37 71 -136 47 -69 85 -129 85 -134 0 -5 -9 -13 -19 -19 -17 -9 -27 1 -85
85 -73 103 -83 114 -92 91 -4 -9 18 -48 55 -100 64 -88 69 -101 48 -109 -9 -3
-50 46 -116 139 -56 79 -107 146 -112 149 -5 4 -12 -1 -15 -9 -4 -9 9 -36 30
-65 38 -51 42 -61 27 -61 -6 0 -31 31 -58 70 -26 38 -52 70 -56 70 -25 1 -12
-37 33 -99 44 -61 73 -120 52 -107 -4 2 -38 49 -77 105 -38 55 -74 100 -78
101 -26 1 -10 -39 47 -119 53 -73 64 -94 58 -112 -8 -20 -12 -18 -53 34 -46
58 -71 69 -88 40 -9 -17 -10 -17 -16 0 -4 9 -15 17 -25 17 -10 0 -21 -8 -25
-17 -6 -17 -7 -17 -19 0 -18 24 -45 21 -51 -5 -3 -13 -11 -63 -19 -111 -7 -48
-16 -90 -19 -93 -3 -3 -31 11 -63 31 -51 33 -59 35 -69 21 -11 -14 -14 -14
-35 1 -21 15 -24 15 -35 0 -10 -15 -14 -15 -31 -2 -24 18 -31 18 -37 1 -4 -10
20 -31 75 -66 l80 -52 -7 -62 c-3 -33 -10 -65 -15 -70 -4 -4 -34 1 -66 13 -37
14 -61 18 -67 12 -6 -6 -19 -6 -34 0 -14 5 -29 7 -34 4 -4 -3 -20 2 -35 11
-22 15 -27 15 -35 3 -16 -26 -9 -34 59 -66 104 -50 198 -114 181 -123 -8 -5
-59 -25 -114 -46 l-100 -37 -77 27 c-72 25 -98 27 -98 7 0 -5 28 -19 63 -31
34 -13 69 -29 78 -37 9 -7 18 -10 22 -7 3 3 11 3 17 -1 6 -4 -30 -35 -87 -74
-54 -36 -162 -119 -240 -184 -78 -64 -147 -117 -153 -117 -6 0 -75 53 -153
117 -78 65 -186 148 -240 184 -57 39 -93 70 -87 74 6 4 14 4 17 1 4 -3 13 0
22 7 9 8 44 24 79 37 34 12 62 26 62 31 0 20 -26 18 -98 -7 l-77 -27 -100 37
c-55 21 -106 41 -114 46 -17 9 77 73 182 123 67 32 74 40 58 66 -8 12 -13 12
-35 -3 -15 -9 -31 -14 -35 -11 -5 3 -20 1 -34 -4 -15 -6 -28 -6 -34 0 -6 6
-30 2 -67 -12 -32 -12 -62 -17 -66 -13 -5 5 -12 37 -15 70 l-7 62 80 52 c55
35 79 56 75 66 -6 17 -13 17 -37 -1 -17 -13 -21 -13 -31 2 -11 15 -14 15 -35
0 -21 -15 -24 -15 -35 -1 -10 14 -18 12 -69 -21 -32 -20 -60 -34 -63 -31 -3 3
-12 45 -19 93 -8 48 -16 98 -19 111 -6 26 -40 30 -50 5 -6 -17 -7 -17 -19 0
-7 9 -20 17 -29 17 -8 0 -18 -8 -22 -17 -6 -17 -7 -17 -16 0 -17 29 -42 18
-88 -40 -41 -52 -45 -54 -53 -34 -6 18 5 39 58 112 57 80 73 120 47 119 -4 -1
-39 -46 -78 -101 -38 -56 -73 -103 -77 -105 -21 -13 8 46 52 107 45 62 58 100
33 99 -4 0 -30 -32 -56 -70 -27 -39 -52 -70 -58 -70 -15 0 -11 10 27 61 21 29
34 56 30 65 -3 8 -10 13 -15 9 -5 -3 -56 -70 -112 -149 -66 -93 -107 -142
-116 -139 -21 8 -16 21 48 109 37 52 59 91 55 100 -9 23 -19 12 -92 -91 -58
-84 -68 -94 -85 -85 -10 6 -19 14 -19 19 0 5 38 65 85 134 67 99 82 127 71
136 -12 10 -64 -51 -172 -206 -16 -24 -32 -43 -37 -43 -4 0 25 48 65 107 40
59 76 113 80 119 4 7 2 17 -5 23 -10 8 -32 -16 -96 -109 -71 -104 -101 -138
-101 -114 0 3 28 47 63 98 82 119 79 112 63 125 -11 9 -24 -5 -65 -67 -82
-125 -96 -142 -110 -132 -15 8 -5 34 32 91 15 22 15 28 3 38 -11 9 -21 1 -50
-44 -21 -30 -39 -55 -41 -55 -2 0 -15 5 -29 11 l-25 12 44 65 c33 50 42 69 34
79 -9 10 -22 -3 -60 -57 -51 -73 -55 -75 -78 -61 -12 8 -10 25 13 106 15 53
25 99 22 102 -16 16 -33 -14 -55 -91 -13 -47 -27 -89 -32 -92 -24 -14 -25 13
-3 83 28 91 29 103 9 103 -9 0 -23 -29 -41 -87 -30 -99 -30 -101 -45 -86 -7 7
-4 31 10 80 25 83 26 93 7 93 -8 0 -20 -17 -26 -37 -6 -21 -14 -44 -16 -52 -4
-11 -8 -10 -19 5 -10 14 -17 16 -25 8 -9 -9 -8 -19 4 -42 9 -17 16 -38 16 -47
0 -32 -25 -8 -45 44 -22 58 -46 65 -55 16 l-6 -30 -17 33 c-12 23 -16 43 -11
67 5 28 3 35 -9 35 -10 0 -22 -22 -35 -62 l-20 -63 5 98 c6 94 5 97 -16 97
-20 0 -21 -4 -21 -120 0 -115 -1 -120 -21 -120 -20 0 -21 3 -14 121 7 115 7
121 -11 117 -17 -3 -20 -16 -24 -113 -5 -101 -6 -108 -19 -85 -10 17 -14 52
-12 113 2 70 -1 87 -12 87 -22 0 -27 -23 -28 -131 0 -77 -4 -99 -14 -99 -14 0
-19 12 -30 73 -9 58 -31 41 -27 -22 2 -40 -1 -51 -13 -51 -12 0 -15 15 -15 80
0 64 -3 80 -15 80 -9 0 -15 -9 -15 -24 0 -14 -5 -28 -10 -31 -7 -4 -8 -28 -4
-65 4 -40 3 -60 -6 -65 -6 -4 -14 -5 -17 -2 -2 3 -4 62 -4 131 1 102 -1 126
-13 126 -9 0 -16 -20 -22 -67z m436 -160 c0 -7 -7 -13 -16 -13 -11 0 -14 5
-10 16 3 9 6 21 6 27 0 16 20 -14 20 -30z m4389 -5 c1 -5 -6 -8 -14 -8 -16 0
-19 9 -8 36 6 16 7 16 14 -2 4 -10 8 -22 8 -26z m-3315 -228 c-50 -64 -54 -67
-54 -47 0 18 93 132 98 119 2 -7 -18 -39 -44 -72z m102 42 c-14 -14 -16 -14
-16 -1 0 20 23 44 29 28 2 -6 -4 -18 -13 -27z m84 29 c0 -5 -7 -12 -16 -15
-14 -5 -15 -4 -4 9 14 17 20 19 20 6z m1860 -6 c11 -13 10 -14 -4 -9 -9 3 -16
10 -16 15 0 13 6 11 20 -6z m80 -22 c0 -13 -3 -13 -15 -3 -8 7 -15 19 -15 27
0 13 3 13 15 3 8 -7 15 -19 15 -27z m99 -27 c24 -31 41 -60 39 -67 -4 -12 -98
103 -98 121 0 18 14 5 59 -54z m-2030 -137 c-19 -12 -34 108 -16 130 10 12 14
2 21 -53 7 -54 6 -70 -5 -77z m1843 54 c-5 -49 -10 -61 -20 -54 -11 6 -12 24
-7 76 6 56 10 65 21 53 10 -10 12 -29 6 -75z m-2218 37 c-15 -22 -29 -40 -31
-40 -5 0 3 15 29 53 30 43 31 32 2 -13z m86 15 c0 -14 -4 -25 -10 -25 -11 0
-14 33 -3 43 11 11 13 8 13 -18z m109 -51 c-45 -59 -59 -71 -59 -54 0 16 94
131 98 119 2 -5 -15 -34 -39 -65z m97 44 c-18 -26 -22 -17 -5 14 6 11 13 17
16 15 3 -3 -2 -16 -11 -29z m2004 -12 c0 -5 -7 -1 -15 10 -8 10 -14 24 -14 29
0 6 6 1 14 -9 8 -11 15 -24 15 -30z m99 -23 c23 -29 41 -58 39 -64 -5 -15 -98
100 -98 121 0 8 3 10 8 5 5 -6 27 -34 51 -62z m111 36 c0 -10 -4 -19 -10 -19
-5 0 -10 12 -10 26 0 14 4 23 10 19 6 -3 10 -15 10 -26z m83 -18 c27 -46 14
-38 -18 12 -16 23 -22 37 -14 30 8 -6 22 -25 32 -42z m-2643 26 c0 -2 -10 -12
-22 -23 l-23 -19 19 23 c18 21 26 27 26 19z m2705 -17 c10 -11 16 -20 13 -20
-3 0 -13 9 -23 20 -10 11 -16 20 -13 20 3 0 13 -9 23 -20z m-2619 -65 c-3 -8
-12 -12 -20 -9 -13 5 -13 9 2 32 14 22 17 23 20 8 2 -9 1 -24 -2 -31z m2531
-7 c-17 -10 -27 0 -27 30 l0 27 20 -25 c13 -17 15 -27 7 -32z m-4747 9 c0 -18
-2 -19 -10 -7 -13 20 -13 43 0 35 6 -3 10 -16 10 -28z m6951 -10 c-8 -8 -11
-5 -11 9 0 27 14 41 18 19 2 -9 -1 -22 -7 -28z m-7017 2 c-8 -13 -24 -1 -24
18 0 13 3 13 15 3 8 -7 12 -16 9 -21z m2496 21 c0 -5 -10 -15 -22 -21 -23 -12
-23 -12 -4 10 21 23 26 26 26 11z m2106 -11 c19 -22 19 -22 -3 -10 -13 6 -23
16 -23 21 0 15 5 12 26 -11z m2490 -4 c-3 -9 -11 -13 -16 -10 -8 5 -7 11 1 21
14 18 24 11 15 -11z m-4755 -18 c-8 -8 -11 -7 -11 4 0 9 3 19 7 23 4 4 9 2 11
-4 3 -7 -1 -17 -7 -23z m2409 7 c0 -8 -4 -12 -10 -9 -5 3 -10 13 -10 21 0 8 5
12 10 9 6 -3 10 -13 10 -21z m-2170 -25 c0 -9 -6 -22 -14 -28 -11 -9 -15 -5
-20 21 -4 20 -2 34 6 39 14 9 28 -7 28 -32z m1956 7 c-3 -11 -6 -28 -6 -36 0
-12 -3 -12 -16 2 -21 21 -12 70 12 61 10 -4 14 -13 10 -27z m-4276 14 c0 -5
-2 -10 -4 -10 -3 0 -8 5 -11 10 -3 6 -1 10 4 10 6 0 11 -4 11 -10z m6580 6 c0
-3 -4 -8 -10 -11 -5 -3 -10 -1 -10 4 0 6 5 11 10 11 6 0 10 -2 10 -4z m-6910
-41 c0 -14 -2 -25 -4 -25 -2 0 -6 11 -8 25 -3 14 -1 25 3 25 5 0 9 -11 9 -25z
m204 2 c6 -9 7 -19 3 -23 -9 -9 -37 15 -37 33 0 18 20 12 34 -10z m6846 10 c0
-14 -20 -37 -32 -37 -12 0 -10 24 4 38 16 16 28 15 28 -1z m182 -12 c-2 -14
-6 -25 -8 -25 -2 0 -4 11 -4 25 0 14 4 25 9 25 4 0 6 -11 3 -25z m-7423 -49
c-1 -17 1 -38 5 -48 4 -9 6 -29 4 -45 -3 -26 -4 -27 -14 -8 -6 11 -15 51 -19
90 -6 64 -6 68 10 55 10 -8 15 -26 14 -44z m2766 -2 c-28 -21 -40 -1 -19 31
l18 28 10 -23 c8 -18 6 -25 -9 -36z m2105 4 c0 -14 -18 -17 -35 -4 -13 9 -15
19 -10 36 l7 23 19 -24 c10 -13 19 -27 19 -31z m2754 -22 c-4 -36 -13 -74 -20
-83 -12 -16 -13 -14 -14 19 0 20 4 39 8 42 5 3 7 19 4 36 -4 26 14 67 25 57 2
-3 1 -34 -3 -71z m-4590 -40 c10 -67 3 -78 -50 -80 -46 -1 -56 20 -14 29 30 7
49 29 36 42 -3 3 -30 -3 -60 -15 -59 -22 -76 -19 -50 10 11 12 25 16 40 12 19
-5 24 -2 24 14 0 20 37 53 55 48 6 -1 14 -28 19 -60z m1581 48 c14 -9 25 -25
25 -36 0 -16 5 -19 24 -14 15 4 29 0 40 -12 26 -29 9 -32 -50 -10 -30 12 -57
18 -60 15 -13 -13 6 -35 36 -42 34 -7 36 -28 4 -33 -11 -2 -33 2 -48 8 -28 10
-28 11 -21 68 10 80 11 81 50 56z m-4334 -10 c10 -13 10 -17 -2 -24 -13 -9
-26 6 -28 33 -2 12 16 8 30 -9z m7068 9 c-2 -27 -15 -42 -28 -33 -12 7 -12 11
-2 24 14 17 32 21 30 9z m-7260 -99 c26 -33 26 -44 3 -44 -25 0 -42 19 -42 47
0 30 14 29 39 -3z m7461 3 c0 -28 -17 -47 -42 -47 -23 0 -23 11 3 44 25 32 39
33 39 3z m-7652 -76 c7 -20 -34 5 -42 25 -6 15 -4 15 16 2 12 -8 24 -20 26
-27z m7846 24 c-8 -19 -44 -40 -44 -26 0 8 38 41 47 41 1 0 0 -7 -3 -15z
m-7939 -125 c16 -32 16 -34 -10 -24 -14 6 -45 53 -45 69 0 15 42 -19 55 -45z
m110 40 c3 -5 2 -10 -4 -10 -5 0 -13 5 -16 10 -3 6 -2 10 4 10 5 0 13 -4 16
-10z m7790 0 c-3 -5 -11 -10 -16 -10 -6 0 -7 5 -4 10 3 6 11 10 16 10 6 0 7
-4 4 -10z m130 -29 c-8 -17 -17 -31 -19 -31 -3 0 -12 -3 -21 -6 -16 -6 -16 -5
-1 24 15 28 46 55 54 47 2 -2 -4 -17 -13 -34z m-8106 -69 c5 -18 8 -32 5 -32
-4 0 -34 68 -34 78 0 16 21 -18 29 -46z m141 13 c0 -5 -5 -3 -10 5 -5 8 -10
20 -10 25 0 6 5 3 10 -5 5 -8 10 -19 10 -25z m7871 8 c-12 -20 -14 -14 -5 12
4 9 9 14 11 11 3 -2 0 -13 -6 -23z m144 -16 c-8 -21 -17 -37 -19 -37 -6 0 10
55 19 70 15 24 15 1 0 -33z m-8265 -87 c0 -5 9 -12 21 -15 11 -4 18 -9 16 -12
-7 -7 -67 26 -67 37 0 5 7 7 15 4 8 -4 15 -10 15 -14z m8390 10 c0 -12 -60
-44 -68 -36 -3 3 -1 6 5 6 5 0 20 9 33 20 26 23 30 24 30 10z m-5839 -26 c12
-15 10 -16 -21 -9 -56 12 -71 24 -29 25 22 0 42 -7 50 -16z m3329 7 c-8 -5
-31 -12 -50 -16 -31 -7 -33 -6 -21 9 8 9 28 16 50 16 25 -1 31 -3 21 -9z
m-3222 -30 c16 -23 16 -24 -8 -16 -14 4 -34 16 -45 27 -20 19 -20 19 9 16 17
-2 35 -13 44 -27z m3101 13 c-13 -16 -59 -38 -65 -31 -11 10 31 47 53 47 22 0
24 -2 12 -16z m-3026 -20 c27 -37 15 -39 -18 -4 -18 19 -24 30 -14 30 8 0 22
-12 32 -26z m2912 -4 c-16 -16 -30 -28 -33 -26 -7 8 33 55 47 56 10 0 4 -11
-14 -30z m-2759 -12 c43 -49 48 -58 31 -58 -8 0 -30 18 -47 40 -34 43 -20 58
16 18z m2604 -18 c-17 -22 -39 -40 -47 -40 -17 0 -12 9 31 58 36 40 50 25 16
-18z m-5455 10 c8 -13 -5 -13 -25 0 -13 8 -13 10 2 10 9 0 20 -4 23 -10z
m8315 0 c-20 -13 -33 -13 -25 0 3 6 14 10 23 10 15 0 15 -2 2 -10z m-5293 -27
c7 -10 23 -31 35 -47 21 -28 21 -28 0 -17 -22 12 -62 58 -62 72 0 14 12 10 27
-8z m2273 8 c0 -14 -40 -60 -62 -72 -20 -11 -19 -9 3 21 13 18 28 38 34 46 11
16 25 19 25 5z m-2340 -29 c0 -15 -2 -15 -10 -2 -13 20 -13 33 0 25 6 -3 10
-14 10 -23z m2391 1 c-8 -15 -10 -15 -11 -2 0 17 10 32 18 25 2 -3 -1 -13 -7
-23z m-2241 -10 c0 -13 -3 -13 -15 -3 -8 7 -15 16 -15 21 0 5 7 6 15 3 8 -4
15 -13 15 -21z m70 17 c0 -5 -2 -10 -4 -10 -3 0 -8 5 -11 10 -3 6 -1 10 4 10
6 0 11 -4 11 -10z m1960 6 c0 -3 -4 -8 -10 -11 -5 -3 -10 -1 -10 4 0 6 5 11
10 11 6 0 10 -2 10 -4z m67 -23 c-15 -16 -17 -16 -17 -1 0 9 6 18 13 21 20 7
22 -2 4 -20z m-1957 -3 c0 -30 -15 -70 -26 -70 -9 0 -12 11 -9 38 2 20 4 40 4
44 1 10 31 -2 31 -12z m1835 -29 c3 -30 1 -41 -9 -41 -19 0 -32 70 -15 81 18
11 19 8 24 -40z m-1698 -1 c17 -10 33 -15 35 -10 2 5 166 -32 366 -81 l362
-88 363 88 c199 49 363 86 365 81 2 -5 18 0 35 10 18 10 49 21 70 24 36 7 37
6 39 -24 0 -16 1 -35 2 -42 1 -7 -21 -18 -49 -26 -135 -36 -727 -227 -710
-229 11 -2 236 17 500 41 264 23 481 42 482 41 1 0 -9 -18 -23 -38 -23 -34
-25 -57 -5 -57 5 0 24 22 42 50 19 27 40 50 47 50 14 0 11 -7 -20 -52 -21 -31
-23 -48 -4 -48 7 0 31 25 51 55 21 30 45 55 53 55 9 0 1 -17 -22 -49 -20 -26
-33 -51 -29 -55 15 -15 32 -3 67 49 35 50 69 75 83 61 3 -3 0 -12 -7 -21 -10
-12 -9 -16 5 -21 11 -5 24 2 38 20 13 14 37 29 57 33 l35 6 -19 -29 c-11 -16
-34 -51 -52 -79 -24 -34 -30 -51 -22 -56 17 -11 23 -5 85 80 31 42 58 78 60
80 1 2 5 2 8 0 2 -3 -18 -38 -45 -79 -45 -68 -53 -90 -30 -90 5 0 37 41 71 90
34 50 69 90 77 90 8 0 -8 -31 -43 -81 -43 -62 -54 -84 -45 -93 13 -13 19 -7
98 108 29 42 59 76 67 76 22 0 18 -20 -11 -64 -18 -26 -23 -41 -16 -48 15 -15
25 -5 67 58 40 60 50 67 89 62 25 -3 25 -4 -35 -90 -54 -79 -65 -108 -39 -108
4 0 40 47 80 105 68 101 98 125 80 67 -67 -230 -71 -245 -60 -256 16 -16 22
-3 65 150 22 73 42 134 46 134 21 0 17 -31 -16 -146 -28 -94 -34 -129 -26
-137 16 -16 25 0 51 100 13 46 27 86 31 88 18 12 18 -35 -1 -100 -24 -83 -25
-95 -6 -95 9 0 21 22 31 58 15 49 18 54 26 35 5 -15 14 -21 24 -17 9 4 14 12
11 18 -21 49 -28 88 -19 97 7 7 18 -9 34 -55 25 -71 51 -86 57 -33 2 15 7 27
10 27 15 0 30 -62 25 -95 -4 -27 -2 -35 9 -35 10 0 21 21 32 60 9 33 19 60 22
60 3 0 2 -39 -2 -86 -5 -67 -4 -88 7 -94 25 -16 29 1 29 109 0 60 3 123 6 141
l7 32 14 -33 c11 -26 13 -58 7 -138 -5 -81 -4 -105 7 -111 24 -16 29 1 29 106
0 101 10 132 25 77 4 -16 8 -64 9 -107 1 -49 5 -81 12 -83 18 -6 25 40 25 164
0 85 3 113 12 110 6 -2 15 -26 20 -53 12 -82 17 -94 34 -94 13 0 15 8 10 45
-4 25 -10 57 -13 71 -6 22 -4 25 12 22 17 -3 19 -14 22 -101 2 -77 6 -97 17
-97 9 0 15 10 15 24 0 14 5 28 10 31 7 4 8 31 4 71 -5 46 -3 64 5 64 19 0 24
-25 25 -142 1 -73 5 -113 12 -115 7 -2 14 20 19 62 12 111 25 73 25 -73 l0
-138 173 -235 c146 -199 175 -245 190 -297 9 -34 17 -66 17 -72 0 -6 -43 -10
-113 -10 l-112 0 -157 -205 -156 -205 -118 200 c-117 199 -119 202 -340 448
-210 234 -373 390 -393 378 -5 -4 -36 -50 -70 -104 l-60 -97 -127 -42 c-70
-24 -129 -41 -130 -40 -2 1 17 81 41 177 25 96 45 183 45 193 0 16 -17 17
-219 17 l-220 0 -97 61 -96 61 -103 -26 c-91 -23 -111 -24 -186 -16 -46 5
-104 10 -127 12 l-44 3 -51 -75 -52 -75 -68 -11 c-49 -8 -85 -8 -134 0 l-68
11 -52 75 -51 75 -44 -3 c-23 -2 -81 -7 -127 -12 -75 -8 -95 -7 -186 16 l-103
26 -96 -61 -97 -61 -220 0 c-202 0 -219 -1 -219 -17 0 -10 20 -97 45 -193 24
-96 43 -176 41 -177 -1 -1 -60 16 -130 40 l-127 42 -60 97 c-34 54 -65 100
-70 103 -20 13 -205 -166 -407 -392 -208 -233 -214 -242 -328 -435 l-116 -198
-156 205 -157 205 -112 0 c-70 0 -113 4 -113 10 0 6 8 38 17 72 15 52 44 98
190 297 l173 235 0 138 c0 146 13 184 25 73 12 -107 30 -76 32 54 2 120 5 141
24 141 8 0 10 -18 5 -64 -4 -40 -3 -67 4 -71 5 -3 10 -17 10 -31 0 -14 6 -24
15 -24 11 0 15 20 17 97 3 87 5 98 22 101 16 3 18 0 12 -22 -3 -14 -9 -46 -13
-71 -5 -37 -3 -45 10 -45 17 0 22 12 34 94 5 27 14 51 20 53 9 3 12 -25 12
-110 0 -124 7 -170 25 -164 7 2 11 34 12 83 1 43 5 91 9 107 15 55 25 24 25
-77 0 -105 5 -122 29 -106 11 6 12 30 7 112 -5 79 -4 111 7 137 l14 33 7 -32
c3 -18 6 -81 6 -141 0 -108 4 -125 29 -109 11 6 12 27 7 94 -4 47 -5 86 -2 86
3 0 13 -27 22 -60 11 -39 22 -60 32 -60 11 0 13 8 9 35 -5 33 10 95 25 95 3 0
8 -12 10 -27 6 -53 32 -38 57 33 16 46 27 62 34 55 9 -9 2 -48 -19 -97 -3 -6
2 -14 11 -18 10 -4 19 2 24 17 8 19 11 14 26 -35 10 -36 22 -58 31 -58 19 0
18 12 -6 95 -19 65 -19 112 -1 100 4 -2 18 -42 31 -88 26 -100 35 -116 51
-100 8 8 2 43 -26 137 -33 115 -37 146 -16 146 4 0 24 -61 46 -134 43 -153 49
-166 65 -150 11 11 7 26 -60 256 -18 58 12 34 80 -67 40 -58 76 -105 80 -105
26 0 15 29 -39 108 -60 86 -60 87 -35 90 39 5 49 -2 89 -62 42 -63 52 -73 67
-58 7 7 2 22 -16 48 -29 44 -33 64 -11 64 8 0 38 -34 67 -76 79 -115 85 -121
98 -108 9 9 -2 31 -45 93 -35 50 -51 81 -43 81 8 0 43 -40 77 -90 34 -49 66
-90 71 -90 23 0 15 22 -30 90 -27 41 -47 76 -45 79 3 2 7 2 8 0 2 -2 29 -38
60 -80 62 -85 68 -91 85 -80 8 5 2 22 -22 56 -18 28 -41 63 -52 79 l-19 29 35
-6 c20 -4 44 -19 57 -33 14 -18 27 -25 38 -20 14 5 15 9 5 21 -7 9 -10 18 -7
21 14 14 48 -11 83 -61 35 -52 52 -64 67 -49 4 4 -9 29 -29 55 -23 32 -31 49
-22 49 8 0 32 -25 53 -55 20 -30 44 -55 51 -55 19 0 17 17 -4 48 -31 45 -34
52 -20 52 7 0 28 -23 47 -50 18 -28 37 -50 42 -50 20 0 18 23 -5 57 -14 20
-24 38 -23 38 1 1 218 -18 482 -41 264 -24 489 -43 500 -41 17 2 -575 193
-710 229 -27 8 -50 19 -49 26 1 7 2 26 3 42 1 30 2 31 39 24 20 -3 51 -14 69
-24z m-3526 -26 c63 -18 78 -29 62 -45 -8 -8 -15 -4 -27 12 -12 18 -19 20 -27
12 -9 -9 -9 -16 1 -28 7 -8 10 -18 6 -22 -3 -4 -13 2 -21 13 -36 46 -56 74
-52 74 2 0 28 -7 58 -16z m8620 -11 c-43 -58 -51 -66 -57 -60 -4 4 -1 14 6 22
10 12 10 19 1 28 -8 8 -15 6 -27 -12 -12 -16 -19 -20 -27 -12 -15 15 -1 27 58
44 68 21 69 21 46 -10z m-8638 -119 c31 -7 32 -11 12 -38 -15 -19 -16 -19 -45
9 -34 32 -39 49 -12 41 9 -3 29 -8 45 -12z m8677 8 c0 -5 -14 -21 -30 -37 -29
-28 -30 -28 -45 -9 -21 28 -19 31 23 42 49 13 52 13 52 4z m-6370 -24 c0 -7
-4 -19 -9 -26 -7 -11 -10 -10 -15 3 -3 9 -4 21 0 26 8 13 24 11 24 -3z m4024
3 c4 -5 3 -17 0 -26 -5 -13 -8 -14 -15 -3 -5 7 -9 19 -9 26 0 14 16 16 24 3z
m-4094 -13 c0 -7 -4 -19 -9 -27 -11 -17 -25 3 -17 24 7 18 26 20 26 3z m4166
-3 c8 -21 -6 -41 -17 -24 -12 19 -11 39 1 39 6 0 13 -7 16 -15z m-4272 -21
c10 -25 6 -57 -8 -83 -13 -24 -14 -23 -30 31 -9 31 -16 59 -16 62 0 14 48 5
54 -10z m4406 10 c0 -3 -7 -31 -16 -62 -16 -54 -17 -55 -30 -31 -26 47 -15 99
22 99 13 0 24 -3 24 -6z m-4596 -39 c-4 -8 -8 -15 -10 -15 -2 0 -4 7 -4 15 0
8 4 15 10 15 5 0 7 -7 4 -15z m4746 0 c0 -8 -2 -15 -4 -15 -2 0 -6 7 -10 15
-3 8 -1 15 4 15 6 0 10 -7 10 -15z m-5009 -106 c-9 -33 -9 -33 -10 17 -1 28 2
54 7 58 11 12 14 -39 3 -75z m5268 18 c-1 -41 -3 -47 -9 -27 -12 37 -12 92 0
85 6 -3 10 -30 9 -58z"/>
</g>
</svg>
