<?xml version="1.0" standalone="no"?>
<!DOCTYPE svg PUBLIC "-//W3C//DTD SVG 20010904//EN"
 "http://www.w3.org/TR/2001/REC-SVG-20010904/DTD/svg10.dtd">
<svg version="1.0" xmlns="http://www.w3.org/2000/svg"
 width="189.000000pt" height="358.000000pt" viewBox="0 0 189.000000 358.000000"
 preserveAspectRatio="xMidYMid meet">
<metadata>
Created by potrace 1.16, written by Peter Selinger 2001-2019
</metadata>
<g transform="translate(0.000000,358.000000) scale(0.100000,-0.100000)"
fill="#000000" stroke="none">
<path d="M1499 3484 c-44 -44 -108 -113 -141 -154 -33 -41 -68 -85 -78 -97
-33 -38 -170 -244 -206 -309 -46 -83 -57 -91 -83 -65 -22 22 -94 30 -106 11
-4 -6 -11 -8 -16 -5 -5 4 -9 1 -9 -4 0 -37 -42 7 -124 132 -104 156 -189 264
-293 373 -88 91 -191 179 -200 170 -4 -4 -2 -10 5 -15 37 -23 165 -147 226
-221 39 -47 76 -90 81 -96 19 -21 87 -120 157 -228 75 -117 86 -155 66 -233
-12 -48 -6 -84 18 -107 14 -15 13 -16 -13 -16 -16 0 -47 -13 -69 -29 -21 -16
-85 -53 -141 -84 l-102 -55 -29 47 c-16 25 -57 98 -91 161 -50 92 -72 123
-111 153 -35 26 -47 43 -44 55 4 12 0 11 -15 -6 -11 -13 -23 -22 -26 -22 -21
5 -7 -10 40 -40 43 -28 53 -40 53 -62 -1 -30 83 -187 140 -263 50 -66 92 -88
158 -81 64 7 109 26 165 69 73 55 71 55 64 4 -5 -33 -3 -55 9 -78 15 -31 15
-34 -6 -56 -12 -13 -29 -23 -37 -23 -20 -1 -38 -15 -75 -60 -69 -85 -210 -240
-218 -240 -5 0 -64 52 -131 116 -67 64 -140 125 -162 135 -22 9 -57 33 -78 53
-43 40 -47 42 -47 21 0 -8 -4 -15 -10 -15 -5 0 -10 -5 -10 -10 0 -6 3 -9 8 -8
13 4 92 -56 140 -107 164 -175 253 -245 313 -245 64 0 181 106 236 214 l20 39
5 -101 c3 -60 10 -107 18 -117 10 -12 9 -18 -9 -32 -24 -20 -109 -197 -181
-378 l-48 -120 -166 -160 c-91 -88 -166 -166 -166 -173 0 -15 -22 -51 -64
-107 -22 -27 -26 -37 -13 -32 13 5 17 1 17 -15 0 -18 4 -16 25 13 14 19 33 52
43 74 13 27 39 54 81 84 80 55 229 197 267 253 16 24 31 45 34 48 40 37 147
239 165 313 6 23 12 27 41 27 20 0 35 -5 35 -12 1 -7 3 -42 5 -78 1 -36 3 -67
5 -70 1 -3 3 -25 4 -50 2 -25 4 -47 5 -50 1 -3 4 -30 5 -60 2 -30 7 -73 11
-95 15 -83 10 -232 -11 -340 -4 -16 -7 -38 -8 -47 -1 -10 -5 -18 -9 -18 -5 0
-6 -11 -2 -25 4 -16 2 -25 -6 -25 -7 0 -9 -8 -5 -21 5 -16 4 -19 -5 -14 -10 6
-11 1 -6 -18 3 -14 2 -28 -2 -31 -5 -3 -7 -21 -6 -41 2 -24 0 -33 -8 -29 -7 5
-9 0 -6 -14 4 -12 2 -20 -3 -16 -5 3 -10 -14 -10 -38 -1 -24 -4 -54 -6 -68 -2
-14 -4 -46 -4 -72 0 -26 -5 -53 -12 -60 -7 -7 -13 -26 -13 -43 -4 -89 -10
-135 -18 -135 -5 0 -7 -3 -4 -6 3 -3 2 -21 -3 -40 -6 -19 -12 -49 -15 -67 -10
-63 -16 -90 -33 -147 -13 -42 -13 -40 -2 -40 9 0 24 38 22 54 -1 4 2 13 7 20
5 6 19 59 32 119 13 59 27 107 31 107 5 0 6 7 3 15 -4 8 -1 21 5 29 6 7 9 15
6 18 -3 3 6 52 20 109 15 57 26 111 27 119 0 8 4 31 8 50 5 19 11 51 14 70 3
19 8 46 10 60 3 14 10 54 16 90 7 36 15 81 20 100 5 19 12 56 15 83 7 43 25
76 25 45 0 -9 3 -9 10 2 6 9 6 18 0 24 -15 15 -12 26 4 20 18 -7 29 -46 15
-55 -6 -3 3 -6 20 -5 19 1 31 6 31 15 0 8 -6 11 -15 7 -11 -4 -15 1 -15 17 1
21 1 21 25 -5 15 -17 25 -23 28 -15 4 11 20 -56 31 -128 13 -87 27 -169 31
-175 3 -4 7 -25 10 -46 8 -53 17 -90 99 -429 33 -135 85 -293 99 -302 5 -3 7
3 4 13 -10 32 -46 167 -53 199 -4 17 -6 34 -5 39 1 5 -4 13 -11 17 -10 7 -10
9 1 9 12 0 11 3 -1 18 -9 9 -14 27 -12 39 2 13 -1 23 -7 23 -6 0 -9 8 -6 19 2
10 -6 60 -19 112 -13 52 -24 106 -24 121 0 15 -5 30 -10 33 -7 4 -6 13 1 27 8
15 8 19 0 14 -7 -5 -11 1 -11 14 0 14 4 19 13 15 6 -4 4 0 -6 8 -20 17 -24 44
-4 31 7 -5 5 -1 -6 8 -14 13 -19 33 -20 83 -1 36 -5 65 -9 65 -5 0 -8 9 -8 21
0 13 4 18 13 13 9 -6 9 -5 0 7 -7 9 -14 32 -15 51 -2 20 -6 34 -9 32 -21 -13
-31 268 -15 421 5 44 9 126 10 182 2 57 5 106 8 109 4 3 19 7 35 10 26 4 30 0
55 -63 43 -106 93 -182 188 -288 95 -105 191 -193 306 -277 40 -29 73 -57 73
-63 2 -19 54 -115 64 -115 5 0 7 8 4 19 -3 15 0 17 17 13 19 -5 19 -3 -5 21
-14 15 -36 49 -49 75 -17 35 -69 92 -201 217 -176 167 -179 170 -215 254 -20
47 -49 109 -64 136 -15 28 -49 91 -74 140 -26 50 -58 100 -72 112 -22 20 -23
27 -15 62 4 21 6 72 4 113 l-5 73 40 -61 c72 -111 176 -194 242 -194 24 0 52
11 83 30 45 31 206 192 249 251 13 17 40 41 62 52 85 47 82 45 63 53 -9 3 -14
10 -11 15 10 17 -8 9 -45 -20 -20 -16 -55 -39 -79 -53 -24 -13 -99 -79 -167
-146 -67 -67 -128 -122 -134 -122 -6 0 -67 63 -137 140 -70 77 -134 142 -143
145 -9 3 -31 18 -49 35 -31 28 -32 31 -18 52 10 13 16 43 16 74 l0 51 42 -40
c56 -52 116 -78 186 -80 89 -3 110 17 194 190 38 80 72 161 75 179 5 28 13 37
48 53 23 10 46 24 49 30 4 6 13 9 19 5 7 -3 4 1 -5 9 -10 8 -18 20 -18 28 0 9
-3 9 -12 -3 -7 -8 -29 -24 -48 -36 -68 -40 -97 -83 -160 -231 -67 -161 -74
-173 -98 -163 -20 7 -200 125 -224 146 -27 24 -59 38 -74 32 -11 -4 -11 -1 2
19 12 19 14 37 9 75 -4 27 -11 53 -16 56 -5 3 -6 12 0 21 4 9 6 24 4 33 -7 26
37 107 152 280 121 181 207 290 299 379 37 35 65 66 62 69 -3 2 -42 -31 -87
-74z m-489 -2324 c0 -11 -7 -20 -15 -20 -8 0 -15 5 -15 11 0 5 5 7 10 4 6 -3
10 1 10 9 0 9 2 16 5 16 3 0 5 -9 5 -20z"/>
<path d="M725 510 c-3 -5 -1 -10 4 -10 6 0 11 5 11 10 0 6 -2 10 -4 10 -3 0
-8 -4 -11 -10z"/>
</g>
</svg>
