<?xml version="1.0" encoding="UTF-8" standalone="no"?>
<!-- Created with Inkscape (http://www.inkscape.org/) -->

<svg
   xmlns:svg="http://www.w3.org/2000/svg"
   xmlns="http://www.w3.org/2000/svg"
   version="1.1"
   width="1000"
   height="1000"
   viewBox="0 0 1000 1000"
   id="Layer_1"
   xml:space="preserve"><defs
   id="defs11" />
<path
   d="m 721.554,616.44 c -21.068,-6.854 -42.471,-13.665 -64.661,-15.571 -11.083,-0.953 -21.214,0.619 -32.149,1.44 -18.029,1.353 -28.725,-8.435 -44.731,5.133 -9.182,7.827 -6.405,22.489 -7.177,33.106 -0.915,12.593 -8.705,25.551 -11.457,38.222 -6.088,28.028 -5.692,58.235 4.297,85.337 7.516,20.387 16.214,39.996 28.32,58.162 14.277,21.428 43.815,43.717 68.17,52.17 33.745,11.711 72.066,15.879 105.313,0.314 22.867,-10.705 40.77,-22.227 52.553,-45.313 7.52,-14.734 7.945,-31.729 8.346,-47.945 0.661,-26.84 -5.251,-57.188 -16.361,-81.728 -12.014,-26.534 -31.203,-43.636 -52.672,-62.003 -10.991,-9.397 -24.035,-16.848 -37.791,-21.324 z"
   id="path3"
   style="stroke:#010101;stroke-width:2;stroke-miterlimit:10" />
<path
   d="M 593.984,600.838 C 615.889,554.108 584.065,482.871 563.612,440.012 537.758,385.837 488.859,355.352 455.58,306.81 424.355,261.264 408.439,203.05 436.153,152.36 c 0.113,-0.5 0.226,-1 0.339,-1.5"
   id="path5"
   style="fill:none;stroke:#010101;stroke-width:2;stroke-miterlimit:10" />
<path
   d="m 571.485,632.336 c -29.792,0.016 -60.317,-2.424 -89.667,-7.832 -54.912,-10.121 -95.645,-50.28 -144.363,-74.658 -36.535,-18.279 -101.813,-31.48 -134.387,1.021 -40.882,40.793 -15.325,129.768 24.934,160.965"
   id="path7"
   style="fill:none;stroke:#010101;stroke-width:2;stroke-miterlimit:10" />
</svg>