<?xml version="1.0" standalone="no"?>
<!DOCTYPE svg PUBLIC "-//W3C//DTD SVG 20010904//EN"
 "http://www.w3.org/TR/2001/REC-SVG-20010904/DTD/svg10.dtd">
<svg version="1.0" xmlns="http://www.w3.org/2000/svg"
 width="997.000000pt" height="1536.000000pt" viewBox="0 0 997.000000 1536.000000"
 preserveAspectRatio="xMidYMid meet">
<metadata>
Created by potrace 1.16, written by Peter Selinger 2001-2019
</metadata>
<g transform="translate(0.000000,1536.000000) scale(0.100000,-0.100000)"
fill="#000000" stroke="none">
<path d="M4911 15347 c-43 -22 -66 -64 -66 -121 0 -31 6 -60 14 -70 8 -9 91
-55 185 -101 176 -87 360 -196 409 -243 18 -17 35 -51 48 -97 12 -38 31 -101
44 -140 15 -45 25 -107 29 -175 7 -131 38 -246 118 -449 l61 -154 -7 -126 c-8
-135 -29 -274 -48 -316 -12 -26 -12 -25 -30 37 -34 115 -36 130 -43 267 -17
333 -57 415 -341 692 -130 127 -174 159 -216 159 -61 0 -99 -72 -79 -147 6
-23 16 -45 21 -48 21 -13 8 -36 -32 -57 -32 -17 -60 -22 -113 -23 -84 0 -145
11 -145 28 0 7 18 39 40 72 72 108 77 152 20 175 -93 39 -276 -54 -431 -218
-182 -192 -287 -450 -311 -762 -6 -80 -15 -151 -21 -157 -15 -20 -45 -15 -62
11 -9 13 -22 63 -31 111 -11 62 -27 111 -55 164 -38 75 -39 79 -54 251 -8 96
-22 212 -31 258 -9 47 -15 111 -12 150 3 59 11 79 58 166 63 115 85 139 200
221 46 33 141 116 209 183 72 71 145 134 172 147 53 27 75 66 65 118 -11 58
-103 127 -170 127 -34 0 -84 -53 -92 -98 -6 -29 -29 -58 -113 -142 -163 -162
-289 -250 -359 -250 -21 0 -48 -16 -98 -57 -38 -32 -117 -91 -175 -130 -247
-168 -327 -269 -429 -540 -22 -59 -59 -141 -81 -181 -78 -141 -91 -235 -90
-622 0 -251 3 -296 21 -380 30 -134 35 -180 21 -180 -7 0 -30 9 -51 20 -22 11
-73 32 -112 46 -124 45 -171 85 -265 225 -151 225 -256 437 -278 563 -18 108
-19 266 -1 361 7 39 23 123 35 187 12 69 31 139 45 167 66 130 233 310 409
439 101 75 127 103 127 139 0 51 -121 143 -189 143 -36 0 -77 -38 -119 -112
-16 -29 -72 -98 -122 -153 -105 -113 -180 -210 -264 -340 -77 -118 -135 -193
-221 -285 -255 -274 -366 -583 -366 -1025 -1 -260 21 -364 142 -670 42 -106
44 -114 44 -220 l0 -110 -87 -215 c-138 -344 -151 -411 -152 -765 -1 -265 7
-344 59 -600 19 -93 37 -193 41 -221 9 -70 -13 -148 -86 -304 -79 -171 -98
-231 -115 -359 -8 -58 -19 -140 -25 -181 -14 -101 -45 -162 -198 -397 -223
-342 -346 -568 -357 -658 -3 -26 -28 -91 -59 -153 -30 -59 -88 -194 -130 -298
-195 -492 -198 -516 -217 -1614 -12 -687 -7 -1267 11 -1435 l9 -90 -84 -195
c-103 -242 -144 -358 -200 -575 -90 -350 -104 -479 -126 -1160 -14 -429 -7
-847 16 -1020 24 -183 75 -381 108 -423 21 -27 17 0 -17 99 -63 187 -71 274
-70 779 1 600 28 1082 75 1350 26 153 88 386 141 540 65 184 161 412 169 397
4 -6 10 -34 13 -62 50 -367 107 -610 217 -933 301 -879 358 -1063 401 -1292
19 -99 22 -150 23 -375 l0 -260 -39 -115 c-42 -126 -84 -216 -146 -311 -22
-34 -40 -67 -40 -72 0 -20 42 28 85 98 143 228 192 436 182 760 -10 313 -65
545 -306 1293 -167 516 -188 584 -211 697 -39 185 -80 489 -86 630 l-6 140 40
105 c69 182 133 433 171 671 38 233 52 384 81 829 31 480 43 590 86 747 93
347 305 704 547 923 l47 43 0 -106 0 -105 -60 -91 c-73 -111 -139 -242 -170
-334 -24 -73 -23 -108 4 -212 9 -33 25 -104 38 -159 24 -110 26 -92 -37 -303
-66 -223 -122 -603 -133 -900 -22 -577 40 -1073 273 -2198 216 -1041 220
-1064 220 -1415 -1 -292 -7 -337 -99 -732 -90 -384 -91 -394 -91 -718 0 -318
11 -403 67 -538 56 -136 71 -128 23 13 -54 156 -75 286 -75 455 0 223 32 424
126 786 98 380 120 559 110 875 -10 302 -19 366 -180 1216 -217 1143 -267
1559 -253 2113 10 402 51 654 170 1049 l52 174 45 33 c57 42 153 94 173 94 19
0 46 -39 167 -240 189 -316 375 -567 536 -726 61 -61 119 -124 127 -141 15
-28 89 -92 292 -255 52 -41 81 -72 83 -87 5 -33 -41 -156 -105 -285 -30 -59
-52 -110 -50 -113 18 -17 150 82 293 220 l82 78 73 -30 74 -29 -3 -312 c-3
-452 -21 -541 -169 -869 -154 -342 -219 -527 -267 -771 -117 -585 -96 -1627
49 -2412 43 -238 64 -370 80 -512 19 -158 33 -213 34 -126 1 77 -22 275 -73
630 -25 168 -52 377 -60 465 -60 618 -44 1323 40 1785 58 317 89 405 328 933
153 338 176 442 183 835 3 149 8 272 12 272 18 0 341 -74 351 -80 17 -10 47
-192 61 -360 14 -178 14 -1036 -1 -1515 -6 -209 -9 -427 -5 -485 7 -111 31
-298 43 -330 4 -10 7 162 7 383 0 416 4 480 53 947 26 242 27 278 26 725 -1
259 -6 500 -11 538 -8 53 -7 70 4 79 19 15 317 4 410 -16 95 -20 127 -35 242
-105 118 -73 188 -107 198 -97 4 4 -1 22 -11 39 -92 158 -116 204 -114 215 2
7 35 24 73 38 39 14 86 32 105 40 60 23 174 17 265 -14 l80 -27 -2 -35 c-2
-19 -22 -110 -44 -203 -23 -92 -39 -170 -35 -175 10 -9 35 21 151 183 110 154
128 173 150 155 33 -27 102 -311 126 -514 20 -168 6 -547 -30 -836 -60 -484
-100 -1130 -101 -1618 l0 -134 -212 -366 c-116 -202 -252 -437 -301 -522 -237
-410 -409 -784 -472 -1027 -27 -102 -34 -220 -16 -263 9 -23 10 -23 10 -4 10
340 139 632 632 1434 97 157 218 356 269 442 52 86 96 156 98 154 1 -2 12 -81
22 -177 36 -316 76 -522 140 -724 32 -98 154 -412 223 -570 19 -44 44 -102 56
-129 12 -27 24 -47 26 -44 6 6 -31 116 -139 408 -177 476 -211 630 -251 1142
l-16 197 49 73 c168 250 318 560 517 1068 157 401 232 659 279 960 39 253 49
408 43 654 -5 222 -18 331 -56 475 l-19 73 285 139 c157 76 289 139 293 139 4
0 42 -36 84 -81 56 -60 86 -102 116 -165 42 -89 54 -100 95 -90 48 12 45 43
-27 338 l-41 166 39 33 c143 119 306 313 398 471 88 151 159 251 348 486 103
129 217 276 253 328 72 101 121 150 160 160 34 8 146 -20 220 -56 216 -104
304 -375 275 -842 -26 -436 -81 -712 -275 -1403 -136 -480 -202 -732 -251
-950 -100 -445 -185 -769 -363 -1389 -201 -697 -264 -1016 -265 -1336 0 -203
16 -319 74 -545 64 -248 243 -796 224 -685 -4 19 -44 166 -89 325 -142 496
-171 663 -162 935 11 319 86 649 332 1445 123 398 183 609 291 1030 117 453
202 762 299 1079 183 600 249 869 292 1186 14 109 18 203 18 495 l0 360 -71
190 c-39 105 -95 255 -124 335 -80 223 -109 278 -168 328 -79 66 -128 186
-151 373 -7 50 -6 77 1 84 10 10 611 -590 860 -860 l120 -130 -6 -350 c-11
-636 -21 -701 -191 -1330 -271 -1002 -333 -1332 -400 -2115 -14 -162 -29 -329
-35 -370 -24 -185 -10 -405 55 -890 19 -140 51 -383 70 -540 58 -465 92 -600
209 -825 66 -126 185 -317 207 -330 19 -13 7 13 -75 153 -220 379 -252 491
-311 1097 -15 143 -39 366 -56 495 -38 308 -51 544 -39 735 12 203 94 934 126
1125 50 306 150 718 310 1285 207 735 254 975 254 1296 0 58 3 168 7 243 l6
137 30 -48 c127 -202 228 -503 286 -854 79 -470 94 -907 70 -1990 -6 -268 -9
-495 -7 -505 3 -19 40 465 58 771 17 280 23 1003 11 1245 -33 670 -148 1130
-369 1472 l-60 93 -5 350 c-5 398 -6 404 -87 570 -53 108 -130 216 -284 395
-119 138 -161 200 -176 260 -30 115 -196 383 -366 591 -93 114 -106 139 -143
276 -17 59 -44 148 -61 196 -45 126 -70 247 -76 367 -5 90 -2 122 20 222 38
176 50 323 43 558 -16 513 -94 865 -238 1070 -29 42 -47 80 -56 123 -16 76
-29 308 -43 737 -17 552 -55 795 -152 985 -26 49 -89 118 -348 376 -305 303
-392 379 -432 379 -63 0 -113 -65 -105 -137 7 -64 33 -86 140 -118 122 -36
178 -67 242 -137 56 -60 88 -127 100 -209 5 -36 2 -55 -13 -85 -11 -22 -45
-109 -75 -194 -31 -85 -80 -218 -111 -295 -61 -156 -109 -310 -152 -489 l-29
-120 -65 -54 c-36 -29 -92 -71 -124 -93 l-59 -40 -24 23 c-35 32 -45 86 -45
238 0 142 5 182 28 264 22 79 17 131 -35 338 -57 228 -83 294 -176 448 -179
296 -359 478 -612 616 -110 60 -180 104 -263 166 l-65 49 -70 -6 c-66 -6 -74
-5 -130 26 -102 54 -298 182 -341 221 -23 21 -54 56 -70 79 -44 64 -106 86
-163 56z m3908 -6657 l78 0 85 -87 c348 -358 404 -479 410 -890 2 -89 0 -164
-4 -168 -3 -3 -26 15 -50 42 -24 26 -96 104 -159 173 -63 68 -224 242 -358
385 -285 304 -341 369 -341 396 0 52 75 134 132 143 53 9 102 13 116 9 8 -1
49 -3 91 -3z m-7390 -369 c18 -11 6 -28 -134 -186 -301 -341 -466 -658 -545
-1046 -22 -106 -43 -370 -60 -734 -27 -594 -63 -898 -141 -1195 -44 -168 -41
-160 -52 -125 -34 109 -8 1188 49 1970 26 362 49 474 150 727 166 417 267 586
342 573 15 -3 92 1 172 9 184 17 202 18 219 7z m4743 -3031 c42 -180 53 -288
52 -540 0 -326 -31 -580 -110 -895 -113 -448 -576 -1567 -627 -1516 -29 29 67
1118 142 1611 50 326 56 395 56 640 0 252 -7 322 -56 564 -17 81 -29 149 -27
151 2 1 77 14 168 29 91 15 167 30 169 32 3 3 52 3 110 2 l106 -3 17 -75z"/>
</g>
</svg>
