<?xml version="1.0" standalone="no"?>
<!DOCTYPE svg PUBLIC "-//W3C//DTD SVG 20010904//EN"
 "http://www.w3.org/TR/2001/REC-SVG-20010904/DTD/svg10.dtd">
<svg version="1.0" xmlns="http://www.w3.org/2000/svg"
 width="2556.000000pt" height="2391.000000pt" viewBox="0 0 2556.000000 2391.000000"
 preserveAspectRatio="xMidYMid meet">
<metadata>
Created by potrace 1.16, written by Peter Selinger 2001-2019
</metadata>
<g transform="translate(0.000000,2391.000000) scale(0.100000,-0.100000)"
fill="#000000" stroke="none">
<path d="M6275 23900 c-3 -5 -25 -10 -48 -10 -23 0 -55 -7 -71 -15 -15 -8 -42
-15 -60 -15 -17 0 -40 -7 -50 -15 -11 -8 -32 -15 -47 -15 -15 0 -31 -4 -34
-10 -3 -5 -18 -10 -33 -10 -15 0 -36 -7 -46 -15 -11 -8 -30 -15 -42 -15 -13 0
-26 -4 -29 -10 -3 -5 -17 -10 -30 -10 -13 0 -38 -8 -57 -17 -61 -31 -68 -33
-87 -33 -10 0 -24 -7 -31 -15 -7 -8 -23 -15 -36 -15 -12 0 -26 -4 -29 -10 -3
-5 -17 -10 -31 -10 -13 0 -24 -4 -24 -8 0 -5 -19 -16 -42 -25 -67 -27 -152
-70 -166 -84 -7 -7 -18 -13 -23 -13 -10 0 -86 -48 -107 -67 -7 -7 -17 -13 -22
-13 -5 0 -44 -31 -87 -70 -43 -38 -81 -70 -85 -70 -10 0 -110 -101 -129 -130
-9 -14 -44 -56 -78 -94 -33 -38 -61 -74 -61 -81 0 -7 -11 -21 -25 -31 -14 -10
-25 -26 -25 -35 0 -8 -11 -26 -25 -39 -14 -13 -25 -29 -25 -35 0 -6 -7 -20
-15 -30 -29 -39 -81 -120 -88 -137 -3 -10 -11 -18 -17 -18 -5 0 -10 -9 -10
-19 0 -11 -4 -23 -10 -26 -9 -6 -77 -140 -105 -210 -7 -16 -22 -50 -34 -73
-11 -24 -21 -52 -21 -62 0 -10 -7 -23 -15 -30 -8 -7 -15 -20 -15 -29 0 -8 -12
-41 -27 -71 -15 -30 -33 -71 -41 -90 -8 -19 -19 -43 -23 -52 -5 -10 -9 -25 -9
-35 0 -9 -6 -24 -13 -32 -7 -9 -19 -36 -26 -61 -7 -25 -18 -56 -23 -70 -12
-29 -26 -72 -38 -115 -5 -16 -18 -55 -29 -85 -12 -30 -21 -67 -21 -81 0 -15
-7 -32 -16 -40 -8 -7 -13 -21 -11 -30 3 -10 -1 -26 -9 -36 -7 -10 -14 -31 -14
-48 0 -16 -7 -39 -15 -49 -8 -11 -15 -37 -15 -57 0 -21 -4 -41 -10 -44 -5 -3
-10 -27 -10 -53 -1 -26 -7 -58 -15 -72 -8 -14 -14 -42 -15 -62 0 -20 -4 -40
-10 -43 -5 -3 -10 -27 -10 -53 0 -26 -7 -56 -15 -66 -8 -11 -15 -35 -15 -53 0
-18 -4 -33 -10 -33 -5 0 -10 -15 -10 -32 -1 -18 -7 -44 -15 -58 -8 -14 -14
-39 -15 -57 0 -17 -4 -35 -10 -38 -5 -3 -10 -23 -10 -43 -1 -20 -7 -48 -15
-62 -8 -14 -14 -46 -15 -72 0 -26 -4 -50 -10 -53 -5 -3 -10 -23 -10 -43 0 -20
-7 -46 -15 -56 -8 -11 -15 -39 -15 -62 0 -24 -4 -46 -10 -49 -5 -3 -10 -21
-10 -38 0 -18 -7 -41 -15 -51 -8 -11 -15 -35 -15 -53 0 -18 -4 -33 -10 -33 -5
0 -10 -9 -10 -19 0 -11 -6 -32 -14 -48 -8 -15 -20 -41 -26 -58 -7 -16 -16 -37
-21 -45 -5 -8 -12 -22 -15 -30 -3 -8 -16 -39 -30 -68 -13 -29 -24 -59 -24 -67
0 -8 -4 -15 -10 -15 -5 0 -10 -9 -10 -19 0 -11 -6 -32 -14 -48 -20 -39 -36
-95 -36 -124 -1 -13 -7 -35 -15 -49 -21 -37 -21 -368 0 -396 8 -10 15 -40 15
-66 0 -26 5 -50 10 -53 6 -3 10 -19 10 -34 0 -16 6 -33 13 -39 7 -6 19 -34 27
-62 8 -28 20 -56 27 -62 7 -6 13 -21 13 -34 0 -14 4 -32 9 -42 39 -80 41 -89
59 -224 4 -32 13 -63 20 -70 16 -16 17 -399 0 -448 -11 -33 -16 -83 -36 -360
-5 -63 -14 -128 -20 -143 -16 -39 -16 -440 0 -470 11 -20 15 -61 36 -324 4
-51 13 -98 20 -105 18 -18 16 -227 -3 -252 -8 -11 -15 -35 -15 -53 0 -31 -39
-113 -67 -141 -7 -7 -13 -18 -13 -24 0 -16 -189 -206 -230 -231 -19 -12 -44
-31 -56 -42 -11 -11 -47 -33 -80 -49 -32 -16 -67 -33 -76 -37 -25 -12 -205
-11 -213 1 -3 6 -15 10 -26 10 -30 0 -112 64 -162 129 -26 33 -47 64 -47 71 0
6 -11 26 -25 44 -14 18 -25 41 -25 51 0 10 -6 26 -13 34 -7 9 -19 36 -26 61
-7 25 -19 58 -27 73 -8 16 -14 41 -14 55 0 15 -7 35 -14 45 -7 9 -11 28 -8 42
2 15 -2 33 -11 43 -8 9 -18 44 -21 77 -17 186 -23 232 -31 244 -9 16 -23 165
-34 386 -4 83 -13 166 -19 185 -7 19 -12 63 -12 96 0 34 -6 74 -14 90 -8 15
-12 39 -9 54 3 16 -2 41 -11 58 -9 17 -16 44 -16 60 0 16 -7 35 -15 42 -9 7
-13 20 -10 27 2 8 -1 24 -7 36 -7 12 -20 42 -28 67 -9 25 -25 60 -35 79 -28
49 -104 130 -140 149 -41 22 -187 22 -212 0 -10 -8 -26 -18 -36 -21 -10 -4
-25 -20 -35 -37 -9 -16 -20 -30 -24 -30 -5 0 -8 -8 -8 -17 0 -9 -8 -25 -17
-36 -16 -17 -18 -48 -19 -301 -2 -307 -13 -489 -32 -523 -6 -12 -12 -44 -12
-72 0 -27 -5 -53 -10 -56 -6 -3 -10 -32 -10 -63 -1 -34 -7 -65 -15 -76 -8 -11
-15 -41 -15 -67 0 -26 -5 -51 -10 -54 -6 -3 -10 -30 -10 -58 0 -30 -7 -60 -15
-71 -8 -11 -15 -35 -15 -53 0 -18 -4 -33 -10 -33 -5 0 -10 -8 -10 -19 0 -47
-112 -201 -146 -201 -7 0 -19 -6 -26 -14 -19 -19 -123 -28 -183 -17 -63 12
-125 34 -125 43 0 5 -7 8 -16 8 -8 0 -30 11 -48 25 -18 14 -38 25 -44 25 -6 0
-12 3 -14 8 -5 10 -125 92 -137 92 -5 0 -11 3 -13 8 -4 10 -115 83 -157 104
-20 10 -43 22 -51 27 -28 16 -91 41 -105 41 -8 0 -15 5 -15 10 0 6 -14 10 -31
10 -17 0 -37 7 -45 15 -21 21 -182 21 -210 0 -10 -8 -26 -15 -35 -15 -9 0 -42
-25 -73 -56 l-56 -56 0 -94 c0 -56 4 -94 10 -94 6 0 10 -7 10 -16 0 -23 148
-172 194 -196 50 -26 357 -333 400 -401 19 -29 41 -59 50 -66 9 -7 16 -19 16
-25 0 -7 11 -23 25 -36 14 -13 25 -31 25 -41 0 -10 5 -21 10 -24 6 -4 22 -30
36 -58 15 -29 32 -59 38 -67 7 -8 19 -35 26 -60 7 -25 20 -52 27 -61 7 -8 13
-25 13 -37 0 -11 5 -24 10 -27 6 -3 10 -23 10 -43 0 -21 6 -46 14 -57 22 -32
27 -107 35 -550 5 -231 12 -436 16 -455 4 -19 11 -107 15 -195 5 -88 12 -221
15 -295 5 -81 13 -146 21 -162 8 -15 14 -47 14 -72 0 -25 4 -48 10 -51 5 -3
10 -26 10 -51 0 -25 5 -55 12 -67 15 -28 29 -96 35 -174 3 -36 11 -67 19 -74
9 -7 14 -32 14 -70 0 -32 5 -61 10 -64 6 -3 10 -32 10 -64 0 -40 5 -63 15 -71
10 -8 15 -30 15 -61 0 -26 5 -51 10 -54 6 -3 10 -21 10 -39 0 -19 7 -39 15
-46 8 -7 15 -28 15 -46 0 -19 4 -34 9 -34 5 0 11 -10 14 -22 6 -29 27 -87 38
-110 5 -10 9 -26 9 -37 0 -10 7 -24 15 -31 8 -7 15 -23 15 -36 0 -12 5 -26 10
-29 6 -3 10 -14 10 -24 0 -10 7 -24 15 -31 8 -7 15 -23 15 -36 0 -12 5 -26 10
-29 6 -3 10 -17 10 -29 0 -13 7 -29 15 -36 8 -7 15 -23 15 -36 0 -24 2 -30 33
-92 9 -19 17 -42 17 -53 0 -10 4 -19 9 -19 5 0 11 -10 14 -22 6 -29 27 -87 38
-110 5 -10 9 -26 9 -37 0 -10 7 -24 15 -31 8 -7 15 -23 15 -36 0 -12 5 -26 10
-29 6 -3 10 -15 10 -25 0 -10 7 -25 15 -34 8 -8 15 -21 15 -30 0 -8 11 -36 25
-62 14 -26 25 -55 25 -65 0 -11 5 -19 10 -19 6 0 10 -8 10 -19 0 -10 7 -24 15
-31 8 -7 15 -21 15 -31 0 -11 5 -19 10 -19 6 0 10 -8 10 -19 0 -10 7 -24 15
-31 8 -7 15 -21 15 -31 0 -11 5 -19 10 -19 6 0 10 -8 10 -19 0 -10 7 -24 15
-31 8 -7 15 -20 15 -29 0 -8 11 -38 25 -66 13 -27 32 -69 42 -92 9 -24 20 -43
25 -43 4 0 8 -8 8 -17 0 -9 6 -24 14 -32 7 -9 24 -36 37 -61 13 -25 34 -59 46
-76 13 -17 23 -36 23 -43 0 -6 7 -14 15 -17 8 -3 17 -15 21 -26 3 -11 41 -59
85 -106 43 -47 79 -91 79 -97 0 -6 25 -35 56 -65 30 -30 93 -98 139 -150 46
-52 117 -121 157 -153 80 -63 188 -137 201 -137 5 0 23 -10 40 -22 38 -27 76
-48 88 -48 16 0 92 -59 156 -122 58 -56 93 -106 93 -133 0 -6 5 -16 12 -23 15
-15 38 -81 38 -113 0 -14 7 -34 15 -45 10 -13 14 -44 15 -96 0 -42 4 -80 10
-83 5 -3 10 -39 10 -78 1 -43 6 -82 15 -97 8 -14 14 -46 15 -72 0 -26 5 -50
10 -53 6 -3 10 -21 10 -39 0 -19 7 -39 15 -46 8 -7 15 -24 15 -39 0 -32 22
-97 38 -113 7 -7 12 -22 12 -34 0 -13 5 -26 10 -29 6 -3 10 -17 10 -29 0 -13
6 -28 13 -34 7 -6 19 -34 27 -62 8 -28 20 -56 27 -62 7 -6 13 -17 13 -24 0 -8
4 -22 9 -32 44 -88 61 -129 61 -143 0 -9 7 -22 15 -29 8 -7 15 -21 15 -31 0
-11 5 -19 10 -19 6 0 10 -7 10 -15 0 -19 129 -279 141 -283 5 -2 9 -12 9 -22
0 -9 7 -23 15 -30 8 -7 15 -21 15 -30 0 -10 3 -20 8 -22 9 -4 62 -85 62 -96 0
-4 7 -17 15 -27 31 -41 65 -96 65 -107 0 -6 11 -21 25 -34 14 -13 25 -29 25
-37 0 -7 11 -24 25 -37 14 -13 25 -30 25 -37 0 -8 11 -26 25 -41 32 -34 75
-99 75 -114 0 -6 11 -21 25 -34 14 -13 25 -28 25 -33 0 -9 11 -28 60 -101 21
-31 91 -136 103 -154 6 -10 24 -35 39 -55 16 -20 40 -54 55 -76 15 -22 42 -56
60 -75 35 -38 116 -135 175 -209 20 -25 58 -68 82 -96 25 -27 53 -61 63 -75 9
-14 35 -46 57 -71 64 -72 119 -167 145 -250 6 -20 11 -105 11 -196 0 -131 3
-168 17 -195 30 -60 33 -68 33 -81 0 -16 55 -69 95 -91 17 -9 44 -25 60 -36
17 -10 39 -19 50 -20 11 0 29 -7 39 -15 11 -8 30 -15 42 -15 13 0 26 -4 29
-10 3 -5 21 -10 39 -10 19 0 39 -7 46 -15 8 -9 29 -15 56 -15 23 0 46 -4 49
-10 3 -5 21 -10 38 -10 18 0 41 -7 51 -15 11 -8 30 -15 42 -15 13 0 26 -4 29
-10 3 -5 17 -10 29 -10 13 0 29 -7 36 -15 7 -8 20 -15 30 -15 19 0 146 -64
171 -86 8 -8 23 -14 32 -14 9 0 17 -3 17 -8 0 -4 16 -16 34 -26 19 -10 45 -29
57 -42 12 -13 29 -24 37 -24 8 0 23 -11 34 -25 11 -14 25 -25 31 -25 13 0 146
-107 208 -166 19 -19 39 -34 43 -34 15 0 138 -116 210 -199 42 -47 102 -115
135 -151 33 -36 91 -101 129 -145 79 -92 388 -396 429 -422 33 -21 183 -171
183 -182 0 -4 16 -26 35 -48 19 -23 35 -48 35 -57 0 -9 7 -19 15 -22 8 -4 15
-14 15 -23 0 -9 5 -22 11 -28 15 -15 15 -183 -1 -213 -19 -39 -92 -110 -111
-110 -10 0 -20 -4 -24 -9 -9 -15 -66 -41 -90 -41 -13 0 -28 -6 -34 -14 -7 -8
-28 -17 -49 -20 -98 -14 -118 -19 -132 -30 -8 -7 -35 -19 -60 -26 -25 -7 -52
-20 -61 -27 -8 -7 -22 -13 -30 -13 -20 0 -119 -102 -119 -122 0 -8 -7 -21 -15
-28 -21 -17 -19 -84 3 -118 24 -38 70 -82 85 -82 7 0 17 -4 23 -9 24 -23 177
-28 359 -12 61 5 169 13 240 18 72 5 140 15 152 21 28 16 475 17 504 1 11 -5
67 -13 125 -16 57 -3 107 -10 110 -15 3 -4 15 -8 28 -8 12 0 31 -7 42 -15 10
-8 27 -15 37 -15 10 0 33 -11 51 -25 18 -14 38 -25 44 -25 7 0 12 -4 12 -9 0
-5 10 -13 22 -17 12 -3 81 -64 153 -133 71 -70 150 -142 175 -161 25 -19 53
-45 63 -57 10 -13 26 -23 36 -23 10 0 26 -9 36 -20 10 -12 35 -30 54 -43 20
-12 41 -25 46 -29 32 -25 88 -58 100 -58 7 0 15 -3 17 -7 6 -14 98 -73 113
-73 8 0 15 -3 15 -7 0 -5 26 -21 58 -38 31 -16 59 -32 62 -35 8 -11 72 -40 87
-40 7 0 13 -4 13 -8 0 -9 70 -42 88 -42 7 0 12 -4 12 -8 0 -9 70 -42 88 -42 7
0 12 -4 12 -8 0 -9 70 -42 88 -42 7 0 12 -4 12 -10 0 -5 12 -13 26 -16 14 -4
48 -17 75 -30 27 -13 56 -24 64 -24 8 0 15 -4 15 -10 0 -5 8 -10 19 -10 10 0
24 -7 31 -15 7 -8 21 -15 31 -15 11 0 19 -4 19 -10 0 -5 8 -10 19 -10 10 0 24
-7 31 -15 7 -8 20 -15 29 -15 9 0 63 -23 121 -51 58 -29 116 -56 130 -62 14
-5 32 -13 40 -18 8 -5 31 -16 50 -25 19 -8 42 -20 50 -25 8 -5 22 -12 30 -15
8 -3 23 -10 32 -15 10 -5 26 -9 37 -9 10 0 24 -7 31 -15 7 -8 23 -15 36 -15
12 0 26 -4 29 -10 3 -5 16 -10 29 -10 12 0 31 -7 42 -15 10 -8 36 -15 56 -15
20 0 40 -4 43 -10 3 -5 30 -10 58 -10 30 0 60 -7 71 -15 13 -10 43 -15 82 -15
35 0 66 -4 69 -10 3 -5 34 -10 68 -10 39 -1 69 -6 81 -15 13 -10 43 -15 82
-15 35 0 66 -4 69 -10 3 -5 23 -10 44 -10 20 0 46 -7 57 -15 10 -8 38 -15 61
-15 23 0 45 -4 48 -10 3 -5 26 -10 49 -10 27 0 48 -6 56 -15 7 -9 29 -15 51
-15 21 0 41 -4 44 -10 3 -5 21 -10 39 -10 18 0 41 -7 52 -15 10 -8 36 -15 56
-15 20 0 40 -4 43 -10 3 -5 23 -10 44 -10 20 0 46 -7 57 -15 10 -8 40 -15 67
-15 26 0 47 -4 47 -10 0 -5 19 -10 43 -10 23 -1 53 -7 67 -15 14 -8 42 -14 62
-15 20 0 40 -4 43 -10 3 -5 26 -10 49 -10 27 0 48 -6 56 -15 8 -9 29 -15 56
-15 23 0 46 -4 49 -10 3 -5 18 -10 33 -10 15 -1 38 -7 52 -15 14 -8 40 -14 58
-15 17 0 32 -4 32 -10 0 -5 13 -10 29 -10 16 0 36 -7 45 -15 8 -8 28 -15 45
-15 17 0 31 -4 31 -10 0 -5 13 -10 29 -10 16 0 36 -7 45 -15 8 -8 30 -15 50
-15 19 0 38 -4 41 -10 3 -5 16 -10 29 -10 12 0 31 -7 42 -15 10 -8 36 -15 56
-15 20 0 39 -4 42 -9 3 -5 18 -11 33 -14 30 -5 87 -24 115 -38 10 -5 25 -9 33
-9 8 0 37 -11 64 -24 27 -13 61 -26 75 -30 14 -3 26 -11 26 -16 0 -6 5 -10 12
-10 18 0 88 -33 88 -42 0 -4 7 -8 15 -8 15 0 23 -3 83 -33 19 -9 39 -17 46
-17 7 0 36 -11 64 -25 29 -14 58 -25 66 -25 7 0 27 -7 42 -15 16 -8 44 -15 62
-15 17 0 32 -4 32 -10 0 -6 40 -10 99 -10 56 0 103 4 106 10 3 6 19 10 34 10
15 0 36 7 47 15 10 8 30 15 43 15 14 0 32 6 40 13 9 7 36 19 61 26 25 7 61 19
80 26 19 8 53 19 75 26 22 6 55 18 73 25 18 8 41 14 52 14 10 0 21 4 24 9 3 5
18 11 33 14 16 2 44 10 63 17 19 7 44 16 55 20 11 4 36 13 55 20 19 7 47 15
63 17 15 3 30 9 33 14 3 5 22 9 42 9 20 0 46 7 56 15 11 8 32 15 47 15 15 0
31 5 34 10 3 6 19 10 36 10 16 0 52 11 81 25 28 14 57 25 64 25 6 0 17 7 24
15 7 8 19 15 27 15 7 0 19 5 26 10 7 6 41 29 77 53 36 23 67 44 70 47 3 4 21
16 41 28 19 12 44 30 54 42 10 11 25 20 34 20 9 0 25 11 35 25 10 14 23 25 29
25 5 0 31 16 57 35 26 19 52 35 58 35 5 0 12 7 16 15 3 8 11 15 17 15 6 0 33
16 59 35 26 19 53 35 59 35 6 0 11 5 11 10 0 6 10 14 23 19 12 5 42 25 66 45
24 20 53 42 65 48 12 6 30 22 41 35 11 12 25 23 30 23 6 0 35 20 65 45 30 25
58 45 62 45 4 0 24 17 45 38 21 20 52 46 68 56 42 27 224 206 260 256 17 23
49 61 73 86 23 25 42 49 42 54 0 5 18 30 40 55 22 25 40 51 40 56 0 5 12 22
28 37 15 15 35 39 45 55 31 49 145 163 181 182 20 11 36 23 36 27 0 5 8 8 19
8 10 0 24 7 31 15 7 8 21 15 31 15 11 0 19 5 19 10 0 6 8 10 19 10 10 0 32 7
47 15 16 8 48 15 71 15 23 0 45 5 48 10 4 6 78 10 188 11 100 0 205 5 232 11
28 5 91 14 140 18 130 13 178 21 193 33 13 10 68 23 147 34 22 3 46 10 54 17
16 12 108 25 246 32 49 3 96 11 104 17 8 7 55 15 105 19 154 12 235 28 298 59
10 5 24 9 32 9 7 0 19 7 26 15 7 8 21 15 30 15 21 0 145 63 170 85 9 8 23 15
31 16 8 0 28 9 44 20 17 10 37 21 45 25 8 3 24 11 35 17 11 6 63 33 115 60 52
26 102 55 111 63 8 7 23 14 31 14 9 0 18 3 20 8 2 4 33 27 70 51 72 46 257
224 318 306 21 28 47 59 60 70 12 11 31 37 41 57 10 20 27 43 37 50 10 7 38
40 62 73 53 71 336 354 376 375 15 8 46 34 69 58 22 24 54 51 70 59 17 9 60
44 98 79 37 35 71 64 76 64 13 0 167 159 196 203 14 21 25 44 25 52 0 8 4 17
10 20 8 5 22 32 44 85 3 8 15 29 25 45 11 17 20 37 20 46 1 9 12 33 26 53 14
20 25 41 25 47 0 5 18 34 40 64 22 30 40 59 40 65 0 5 16 33 35 60 19 27 35
56 35 64 0 8 4 18 10 21 10 6 24 36 55 115 20 52 32 82 51 125 7 17 18 50 24
75 7 25 18 59 25 75 7 17 19 50 25 75 7 25 18 57 26 72 8 14 14 40 14 56 0 17
5 34 10 37 5 3 10 19 10 34 0 16 7 34 15 41 8 7 15 27 15 46 0 18 5 36 10 39
6 3 10 28 10 54 0 29 6 53 14 60 16 13 24 112 34 431 5 142 11 222 19 237 7
12 13 37 13 57 0 19 5 38 10 41 5 3 10 16 10 27 0 12 7 28 15 37 9 9 26 32 38
51 12 19 42 49 67 67 25 18 50 38 57 43 7 6 19 10 26 10 8 0 20 7 27 15 7 8
21 15 31 15 11 0 19 5 19 10 0 6 10 10 23 10 12 0 31 7 41 15 11 8 30 15 42
15 13 0 26 4 29 10 3 5 18 10 33 10 15 0 36 7 46 15 11 8 35 15 53 15 18 0 33
5 33 10 0 6 15 10 34 10 18 0 39 7 46 15 7 8 25 15 41 15 16 0 29 5 29 10 0 6
10 10 23 10 12 0 31 7 41 15 11 8 30 15 42 15 13 0 26 5 29 10 3 6 17 10 29
10 13 0 29 7 36 15 7 8 20 15 29 15 9 0 151 68 316 151 373 188 348 175 370
199 10 11 24 20 32 20 20 0 127 95 350 313 106 103 198 187 205 187 22 0 134
120 182 195 25 39 50 75 56 82 5 7 10 19 10 26 0 8 7 20 15 27 8 7 15 21 15
31 0 11 5 19 10 19 6 0 10 8 10 19 0 10 7 24 15 31 8 7 15 23 15 35 0 13 8 38
17 57 31 63 33 68 33 97 0 16 7 34 15 41 9 8 13 21 9 32 -3 10 1 30 10 43 9
13 16 39 16 57 1 18 7 44 15 58 7 14 11 37 8 52 -3 15 2 41 11 59 9 18 16 55
16 84 0 29 7 67 16 84 13 25 15 52 12 111 -3 53 0 86 8 102 18 32 20 488 2
506 -7 7 -11 36 -10 75 1 40 -3 72 -13 91 -8 15 -15 53 -15 83 0 30 -7 68 -16
84 -10 19 -14 51 -13 87 2 31 -2 67 -9 79 -8 14 -12 77 -12 186 0 118 -4 178
-15 213 -9 28 -15 84 -14 129 0 44 -4 96 -10 115 -6 19 -11 58 -11 86 0 28 -7
64 -15 81 -8 16 -14 45 -13 64 0 19 -4 44 -10 56 -7 12 -12 45 -12 73 0 28 -5
61 -12 73 -12 21 -20 77 -34 237 -4 41 -13 84 -20 95 -8 11 -14 45 -14 82 0
34 -4 65 -10 68 -5 3 -10 30 -10 59 0 28 -5 57 -12 64 -11 11 -23 63 -35 147
-3 22 -12 49 -19 60 -8 11 -14 32 -14 47 0 15 -4 29 -9 32 -5 3 -11 23 -14 43
-5 36 -35 134 -62 198 -17 42 -35 99 -35 113 0 7 -11 35 -25 64 -14 28 -25 62
-25 74 0 12 -7 27 -15 34 -8 7 -15 25 -15 41 0 15 -4 31 -10 34 -5 3 -10 19
-10 34 0 16 -7 34 -15 41 -8 7 -15 25 -15 41 0 15 -4 31 -10 34 -5 3 -10 21
-10 40 0 20 -6 35 -15 39 -8 3 -15 16 -15 30 0 14 -4 28 -10 31 -5 3 -10 17
-10 30 0 13 -6 36 -14 52 -8 15 -19 42 -26 58 -7 17 -18 43 -26 58 -8 16 -14
37 -14 48 0 10 -4 19 -10 19 -5 0 -10 9 -10 19 0 11 -6 32 -14 48 -8 15 -19
42 -26 58 -7 17 -18 43 -26 58 -8 16 -14 37 -14 48 0 10 -4 19 -10 19 -5 0
-10 9 -10 19 0 11 -6 32 -14 48 -8 15 -19 42 -26 58 -7 17 -18 43 -26 58 -8
16 -14 37 -14 48 0 10 -4 19 -10 19 -5 0 -10 8 -10 19 0 10 -7 24 -15 31 -8 7
-15 20 -15 30 0 9 -16 47 -35 84 -19 37 -35 76 -35 87 0 11 -7 22 -15 25 -8 4
-15 12 -15 20 0 14 -3 22 -33 82 -9 19 -17 44 -17 57 0 13 -4 27 -10 30 -5 3
-10 22 -10 41 0 19 -6 45 -14 57 -20 33 -30 133 -29 312 0 203 12 345 29 370
8 11 14 38 14 62 0 23 5 45 10 48 6 3 10 19 10 35 0 16 6 41 14 57 8 15 19 39
24 53 27 69 60 131 91 166 11 12 25 33 32 46 6 12 67 79 134 148 67 69 125
135 129 148 4 12 12 22 17 22 5 0 9 13 9 30 0 16 5 40 11 54 9 19 8 35 -2 70
-7 25 -17 46 -21 46 -4 0 -8 8 -8 18 0 10 -21 33 -47 52 l-48 34 -113 -1 c-69
0 -118 -5 -125 -12 -6 -6 -21 -11 -33 -11 -12 0 -27 -7 -34 -15 -7 -8 -21 -15
-31 -15 -11 0 -19 -4 -19 -10 0 -5 -7 -10 -16 -10 -12 0 -110 -43 -206 -91
-10 -5 -28 -9 -42 -9 -13 0 -29 -7 -36 -15 -8 -9 -29 -15 -56 -15 -23 0 -46
-4 -49 -10 -3 -5 -23 -10 -43 -10 -20 -1 -48 -7 -62 -15 -14 -8 -41 -15 -60
-15 -19 0 -44 -7 -54 -15 -11 -8 -30 -15 -42 -15 -13 0 -26 -4 -29 -10 -3 -5
-17 -10 -30 -10 -13 0 -26 -4 -30 -9 -3 -6 -18 -16 -33 -24 -94 -47 -176 -114
-342 -281 -74 -75 -142 -136 -151 -136 -9 0 -22 -6 -28 -14 -18 -21 -129 -42
-152 -28 -10 7 -25 12 -34 12 -20 0 -122 49 -136 66 -6 8 -18 14 -27 14 -8 0
-25 11 -38 25 -13 14 -27 25 -32 25 -4 0 -32 20 -61 45 -29 25 -56 45 -61 45
-5 0 -15 6 -22 13 -22 20 -92 64 -116 71 -12 4 -22 12 -22 17 0 5 -8 9 -19 9
-10 0 -24 6 -30 14 -6 8 -26 19 -44 26 -78 30 -107 44 -107 52 0 4 -11 8 -24
8 -14 0 -27 4 -30 9 -3 5 -18 11 -33 14 -25 4 -60 15 -118 38 -11 4 -29 10
-40 13 -41 10 -96 33 -107 44 -7 7 -20 12 -30 12 -10 0 -18 5 -18 10 0 6 -7
10 -15 10 -22 0 -160 135 -175 170 -7 17 -16 30 -21 30 -5 0 -9 8 -9 17 0 9
-6 24 -13 32 -8 9 -22 43 -32 76 -10 33 -21 64 -26 69 -5 6 -9 24 -9 42 0 17
-7 37 -15 44 -9 8 -13 21 -9 32 3 10 -1 30 -10 43 -9 13 -16 38 -16 55 0 17
-7 44 -15 60 -8 16 -12 36 -9 44 3 9 -1 27 -10 41 -9 13 -16 34 -16 45 0 20
-2 26 -33 88 -9 19 -17 40 -17 47 0 7 -3 15 -7 17 -11 4 -43 67 -43 83 0 7 -3
15 -8 17 -11 5 -72 103 -72 116 0 7 -4 12 -10 12 -5 0 -10 7 -10 15 0 12 -33
70 -58 100 -14 17 -42 78 -42 91 0 7 -3 14 -7 16 -12 5 -73 97 -73 109 0 5
-11 21 -25 35 -14 14 -25 31 -25 38 0 7 -9 21 -21 32 -12 10 -28 32 -36 49 -8
16 -37 53 -64 80 -27 28 -73 79 -103 115 -48 57 -167 170 -179 170 -2 0 -30
25 -61 55 -31 30 -60 55 -65 55 -5 0 -33 20 -62 45 -29 25 -59 45 -66 45 -7 0
-13 3 -13 8 0 4 -16 16 -34 26 -19 10 -45 29 -57 42 -12 13 -29 24 -36 24 -8
0 -24 11 -36 24 -12 13 -35 30 -52 39 -16 8 -41 27 -54 41 -14 14 -30 26 -38
26 -7 0 -31 18 -53 40 -22 22 -44 40 -49 40 -5 0 -33 20 -62 45 -29 25 -59 45
-66 45 -7 0 -13 4 -13 10 0 5 -16 16 -35 25 -19 9 -39 23 -46 31 -6 8 -20 14
-29 14 -10 0 -20 3 -22 8 -5 12 -87 62 -102 62 -7 0 -16 7 -20 15 -3 8 -13 15
-22 15 -9 0 -28 8 -42 18 -27 18 -245 126 -292 144 -14 6 -38 16 -53 24 -16 8
-37 14 -48 14 -10 0 -19 5 -19 10 0 6 -15 10 -33 10 -18 0 -42 7 -53 15 -10 8
-31 15 -46 15 -15 0 -30 5 -33 10 -3 6 -16 10 -29 10 -12 0 -31 7 -42 15 -10
8 -31 15 -46 15 -15 0 -30 5 -33 10 -3 6 -17 10 -29 10 -13 0 -29 7 -36 15 -7
8 -18 15 -25 15 -35 0 -127 61 -195 130 -74 74 -130 163 -130 207 0 12 -4 25
-10 28 -5 3 -10 16 -10 29 0 12 -7 31 -15 42 -8 10 -15 36 -15 56 0 20 -4 40
-10 43 -5 3 -10 30 -10 58 0 30 -7 60 -15 71 -8 11 -15 37 -15 57 0 21 -4 41
-10 44 -5 3 -10 21 -10 39 0 19 -7 39 -15 46 -8 7 -15 27 -15 46 0 18 -4 36
-10 39 -5 3 -10 23 -10 44 0 20 -7 46 -15 57 -8 10 -15 33 -15 51 0 17 -4 35
-10 38 -5 3 -10 25 -10 49 0 23 -7 51 -15 62 -8 10 -15 36 -15 56 0 20 -4 40
-10 43 -5 3 -10 23 -10 44 0 20 -7 46 -15 57 -8 10 -15 36 -15 56 0 20 -5 40
-10 43 -5 3 -10 23 -10 44 0 20 -7 46 -15 57 -8 10 -15 31 -15 46 0 15 -4 30
-10 33 -5 3 -10 21 -10 39 0 19 -7 39 -15 46 -8 7 -15 23 -15 36 0 24 -2 30
-33 92 -9 19 -17 44 -17 57 0 13 -5 27 -10 30 -5 3 -10 17 -10 29 0 13 -6 28
-13 34 -7 6 -19 34 -27 62 -8 28 -20 56 -27 62 -7 6 -13 21 -13 34 0 12 -4 26
-10 29 -5 3 -10 17 -10 29 0 13 -6 28 -13 34 -7 6 -19 34 -27 62 -8 28 -20 56
-27 62 -7 6 -13 21 -13 34 0 12 -4 26 -10 29 -5 3 -10 17 -10 29 0 13 -6 28
-13 34 -7 6 -19 34 -27 62 -8 28 -20 56 -27 62 -7 6 -13 16 -13 24 0 11 -31
65 -57 99 -5 6 -17 24 -27 40 -47 72 -135 168 -404 438 -158 159 -289 295
-292 303 -18 47 -491 524 -521 524 -6 0 -25 10 -42 23 -30 22 -181 98 -237
119 -14 6 -38 16 -53 24 -16 8 -41 14 -57 14 -16 0 -32 5 -35 10 -3 6 -25 10
-48 10 -24 0 -51 6 -62 14 -30 20 -200 30 -520 29 -344 -1 -512 -10 -540 -29
-11 -8 -45 -14 -82 -14 -34 0 -65 -4 -68 -10 -3 -5 -30 -10 -58 -10 -30 0 -60
-7 -71 -15 -11 -8 -41 -15 -67 -15 -26 0 -51 -4 -54 -10 -3 -5 -30 -10 -58
-10 -30 0 -60 -7 -71 -15 -11 -8 -41 -15 -67 -15 -26 0 -51 -4 -54 -10 -3 -5
-34 -10 -68 -10 -34 -1 -80 -7 -102 -15 -29 -11 -88 -15 -220 -15 -132 0 -191
4 -220 15 -22 8 -59 14 -82 15 -23 0 -45 5 -48 10 -3 6 -19 10 -35 10 -16 0
-31 4 -35 9 -7 12 -64 41 -80 41 -20 0 -162 144 -184 188 -12 23 -26 42 -31
42 -6 0 -10 6 -10 14 0 24 -42 87 -95 142 -40 41 -62 55 -110 69 -48 14 -66
15 -91 6 -17 -6 -37 -11 -46 -11 -19 0 -108 -77 -108 -95 0 -7 -7 -18 -15 -25
-8 -7 -15 -22 -15 -34 0 -12 -5 -27 -11 -33 -7 -7 -9 -58 -4 -164 12 -283 8
-365 -19 -399 -6 -8 -22 -35 -35 -60 -13 -25 -86 -109 -163 -186 -76 -78 -138
-149 -138 -157 0 -8 -7 -17 -15 -21 -8 -3 -15 -12 -15 -19 0 -18 -28 -75 -41
-82 -5 -4 -9 -12 -9 -20 0 -13 -34 -71 -63 -105 -6 -9 -31 -28 -54 -43 -37
-24 -52 -27 -122 -27 -44 0 -83 5 -86 10 -3 6 -13 10 -20 10 -14 0 -105 84
-105 97 0 3 -11 21 -25 39 -14 18 -25 40 -25 48 0 9 -4 16 -10 16 -5 0 -10 16
-10 35 0 22 -6 38 -15 41 -8 4 -15 17 -15 29 0 13 -4 27 -10 30 -5 3 -10 18
-10 33 0 15 -7 36 -15 46 -8 11 -15 30 -15 42 0 13 -4 26 -10 29 -5 3 -10 17
-10 29 0 13 -7 29 -15 36 -8 7 -15 18 -15 25 0 16 -29 73 -41 80 -5 4 -9 14
-9 23 -1 9 -21 42 -45 72 -25 30 -53 71 -65 92 -25 47 -336 358 -357 358 -9 0
-27 10 -39 21 -13 12 -32 27 -43 33 -108 61 -139 78 -170 88 -20 7 -43 18 -52
25 -8 7 -27 13 -42 13 -14 0 -29 5 -32 10 -3 6 -25 10 -48 10 -24 0 -52 7 -65
15 -32 23 -467 23 -511 0 -17 -8 -50 -15 -75 -15 -25 0 -47 -4 -50 -9 -3 -5
-18 -11 -33 -14 -16 -2 -44 -10 -63 -17 -19 -7 -44 -16 -55 -20 -11 -4 -36
-13 -55 -20 -19 -6 -45 -14 -57 -17 -13 -3 -23 -9 -23 -14 0 -5 -8 -9 -17 -9
-22 0 -283 -131 -283 -142 0 -4 -8 -8 -19 -8 -10 0 -24 -7 -31 -15 -7 -8 -21
-15 -31 -15 -11 0 -19 -4 -19 -10 0 -5 -8 -10 -19 -10 -10 0 -24 -7 -31 -15
-7 -8 -23 -15 -36 -15 -12 0 -26 -4 -29 -10 -3 -5 -23 -10 -43 -10 -20 -1 -55
-7 -77 -15 -51 -19 -76 -19 -101 0 -11 8 -42 14 -76 15 -31 0 -60 5 -63 10 -3
6 -23 10 -44 10 -21 0 -44 6 -50 14 -7 8 -30 17 -51 20 -22 3 -58 9 -80 12
-21 3 -44 12 -51 20 -6 8 -26 14 -45 14 -18 0 -36 5 -39 10 -3 6 -23 10 -44
10 -20 0 -46 7 -57 15 -11 8 -41 15 -71 15 -28 0 -55 5 -58 10 -3 6 -21 10
-38 10 -18 1 -43 7 -57 15 -14 8 -46 14 -72 15 -26 0 -50 5 -53 10 -3 6 -21
10 -40 10 -18 0 -40 7 -49 15 -8 8 -30 15 -50 15 -19 0 -38 5 -41 10 -3 6 -16
10 -29 10 -12 0 -31 7 -42 15 -10 8 -29 15 -41 15 -13 0 -23 5 -23 10 0 6 -13
10 -29 10 -16 0 -36 7 -45 15 -8 8 -24 15 -35 15 -11 0 -22 4 -25 9 -3 5 -18
11 -33 14 -16 2 -44 10 -63 17 -19 7 -44 16 -55 20 -11 4 -36 13 -55 20 -19 7
-53 15 -75 18 -22 2 -49 11 -60 18 -11 8 -41 14 -67 14 -27 0 -48 5 -48 10 0
6 -81 10 -224 10 -139 0 -227 -4 -231 -10z"/>
</g>
</svg>
