<?xml version="1.0" standalone="no"?>
<!DOCTYPE svg PUBLIC "-//W3C//DTD SVG 20010904//EN"
 "http://www.w3.org/TR/2001/REC-SVG-20010904/DTD/svg10.dtd">
<svg version="1.0" xmlns="http://www.w3.org/2000/svg"
 width="1536.000000pt" height="1372.000000pt" viewBox="0 0 1536.000000 1372.000000"
 preserveAspectRatio="xMidYMid meet">
<metadata>
Created by potrace 1.16, written by Peter Selinger 2001-2019
</metadata>
<g transform="translate(0.000000,1372.000000) scale(0.100000,-0.100000)"
fill="#000000" stroke="none">
<path d="M11960 13705 c-150 -19 -246 -41 -400 -91 -381 -125 -727 -374 -967
-695 -36 -49 -68 -89 -69 -89 -2 0 -61 43 -130 96 -262 199 -421 232 -486 103
-28 -53 -23 -127 16 -244 31 -92 119 -278 192 -407 15 -27 25 -49 23 -51 -7
-6 -1478 -1206 -1839 -1501 -195 -160 -1891 -1545 -3768 -3078 l-3413 -2788
-105 87 c-212 177 -351 263 -457 284 -48 10 -60 9 -101 -10 -88 -38 -106 -136
-55 -292 31 -95 99 -242 172 -372 l66 -119 -60 -72 c-299 -358 -483 -779 -556
-1271 -24 -167 -24 -551 1 -720 96 -656 381 -1217 847 -1670 141 -137 232
-213 369 -307 734 -506 1636 -634 2425 -346 103 38 310 135 380 178 l31 19 85
-69 c186 -155 328 -242 422 -261 75 -15 136 6 168 58 52 83 18 231 -111 490
l-75 151 224 184 c124 100 385 314 581 473 406 332 1938 1584 2985 2439 391
319 757 618 815 666 545 449 4423 3612 4433 3616 7 2 49 -25 93 -61 43 -37
118 -93 166 -126 212 -145 336 -163 406 -59 22 32 24 43 19 115 -6 95 -37 186
-123 359 -41 83 -55 121 -46 124 7 2 56 25 110 51 513 252 888 700 1047 1250
79 275 94 492 68 991 -15 276 -24 354 -64 554 -103 516 -369 1014 -754 1414
-336 350 -796 631 -1232 752 -43 12 -131 44 -195 71 -382 161 -768 220 -1138
174z"/>
</g>
</svg>
