<?xml version="1.0" encoding="UTF-8" standalone="no"?>
<!-- Created with Inkscape (http://www.inkscape.org/) -->

<svg
   xmlns:svg="http://www.w3.org/2000/svg"
   xmlns="http://www.w3.org/2000/svg"
   version="1.2"
   width="1615"
   height="784"
   viewBox="0 0 1615 784"
   id="Layer_1"
   xml:space="preserve"
   style="overflow:inherit"><defs
   id="defs80" />
<g
   id="q7Ys0e_1_">
</g>
<g
   id="g4">
	<g
   id="g6">
		<path
   d="M 215,0 C 193.205,6.293 162.488,2.799 139,3 120.115,14.143 100.604,22.667 78,31 57.331,38.621 32.039,41.487 16,58 c 1.459,5.874 3.316,11.351 4,18 -5.019,8.1 -17.107,8.85 -19,18 -1.485,7.18 4.369,16.769 9,24 12.923,20.182 32.903,32.531 37,59 12.346,15.074 21.92,27.361 41,33 11.7,3.458 23.799,-0.433 36,3 18.326,5.156 24.19,25.904 32,43 17.241,36.092 55.641,51.025 72,88 11.327,9.006 21.205,19.462 30,31 10.07,7.93 23.462,12.537 30,24 12.061,-0.374 22.163,7.717 33,14 21.237,12.312 45.725,17.345 55,39 12.166,8.924 27.715,19.182 42,25 10.272,4.184 23.568,8.691 34,10 14.618,1.834 29.667,-1.921 45,1 15.565,2.966 27.113,12.17 38,21 4.955,4.02 11.849,6.992 17,12 5.401,5.252 9.066,12.012 15,15 10.014,5.042 23.61,5.596 36,8 24.963,4.846 44.644,17.591 67,29 10.567,5.393 21.49,10.135 33,15 11.351,4.798 22.557,12.281 33,15 34.444,8.967 71.035,0.423 107,-5 37.043,-5.585 73.714,-10.021 107,-23 9.452,-6.155 21.039,-12.052 34,-21 7.524,-5.194 24.489,-22.342 33,-23 11.664,-0.901 20.485,11.074 30,17 -12.69,19.619 -1.858,45.697 17,51 -4.033,27.756 23.002,45.617 46,35 -4.166,48.724 -14.311,109.475 -17,150 C 728.66,784 364.341,784 0,784 0,522.658 0,261.347 0,0 71.667,0 143.333,0 215,0 z"
   id="path8"
   style="fill:#ffffff;fill-rule:evenodd" />
		<path
   d="m 227,0 c 462.654,0 925.35,0 1388,0 0,149.667 0,299.333 0,449 -1.286,-9.714 -5.52,-16.48 -10,-23 17.601,-18.227 1.872,-50.232 -27,-48 -1.871,-10.383 -12.211,-13.188 -19,-19 -4.552,-3.896 -6.377,-10.642 -11,-14 -8.862,-6.438 -19.799,-3.56 -29,-11 3.821,-9.739 2.047,-27.205 -10,-28 2.437,-19.135 -12.982,-18.937 -18,-5 0.066,5.917 4.272,10.051 2,13 -12.101,-7.899 -10.606,-29.394 -31,-29 -3.992,6.698 1.801,15.462 3,23 -7.394,-7.273 -26.508,-2.826 -33,-11 -2.045,3.586 -7.053,7.835 -7,12 0.082,6.526 7.277,11.481 13,14 -2.599,5.173 -8.07,11.319 -5,19 -12.371,1.068 -12.008,17.427 -1,20 0.441,7.225 4.646,10.688 8,15 -1.764,5.903 -7.606,7.727 -12,11 -4.635,-1.891 -5.898,-3.646 -10,-3 -6.436,1.014 -5.381,9.309 -11,11 -8.53,-4.212 -6.229,-14.769 -10,-22 -4.76,-9.127 -13.835,-14.013 -19,-21 1.05,-2.95 6.422,-1.578 9,-3 2.016,-3.123 -1.145,-6.241 2,-9 9.252,2.808 16.463,16.997 28,11 -1.544,-8.686 -9.201,-19.297 -16,-26 1.796,0.129 2.34,-0.993 2,-3 1.105,-5.085 7.239,1.074 10,-2 -2.877,-16.456 -18.377,-20.29 -32,-26 -1.127,-5.539 -1.275,-12.059 -7,-13 2.767,-4.279 -0.021,-10.274 -1,-14 -5.375,4.361 -8.136,0.267 -16,3 -5.838,-4.541 -13.262,-1.359 -18,-7 -2.518,2.149 -5.228,4.105 -8,6 -3.062,4.82 4.453,6.483 1,10 -7.603,-2.064 -7.056,-12.278 -13,-16 -6.321,2.595 -11.102,-0.377 -16,-2 -2.092,1.242 -3.759,2.908 -5,5 0.485,5.434 8.752,7.568 7,12 -5.018,-1.648 -11.3,-2.034 -16,-4 -4.869,0.941 -3.204,6.727 -3,8 -9.839,-0.172 -18.993,0.34 -24,5 2.255,8.412 14.401,6.932 21,11 -2.617,9.716 -13.071,11.595 -19,18 3.388,2.742 1.433,8.133 4,11 5.713,6.379 17.362,4.374 24,0 4.598,2.403 9.677,4.323 11,10 -4.153,8.119 -12.315,11.415 -17,21 0.417,5.192 3.39,12.23 2,16 3.566,2.767 6.539,6.128 10,9 -0.404,4.262 0.969,10.302 -1,13 -2.562,0.105 -4.768,0.566 -6,2 -3.419,-2.171 3.545,-10.46 0,-14 -18.284,0.232 -29.451,12.298 -30,27 -9.245,-11.088 -22.276,-18.391 -34,-27 4.621,-7.763 12.908,-8.466 15,-17 1.741,-7.104 -3.065,-18.604 -6,-25 -9.336,-20.347 -41.11,-25.78 -57,-8 -2.016,2.256 -2.938,10.4 -6,14 -3.451,4.057 -7.945,4.164 -6,11 -5.785,-0.652 -7.215,-0.652 -13,0 -4.977,-0.149 4.029,-4.484 0,-7 -4.779,-11.175 -21.235,-8.607 -29,-6 -2.603,4.398 5.285,5.713 3,13 -6.209,-0.326 -7.545,-8.174 -18,-9 -3.321,-0.262 -5.95,1.464 -10,2 -13.868,1.836 -31.062,-1.977 -31,7 0.049,7.149 6.517,4.677 13,7 -12.488,-0.154 -19.915,4.752 -28,9 -3.985,12.348 -7.986,24.68 -15,34 -1.317,-14.902 -5.451,-21.118 -10,-32 -19.698,-25.717 -48.852,-44.62 -65,-72 -24.96,-42.319 -65.742,-62.2 -105,-91 -29.368,-9.948 -67.767,4.219 -97,-1 -15.682,0.167 -30.173,6.086 -42,0 -9.176,-4.723 -9.216,-14.712 -13,-25 -4.431,-12.045 -12.099,-22.038 -18,-31 -29.248,-9.086 -53.547,-23.12 -82,-33 -0.878,-1.768 -3.169,-2.919 -1,-5 -6.509,3.081 -15.345,-3.196 -21,-7 -6.387,-0.613 -11.656,-2.344 -16,-5 -10.962,1.955 -17.355,-3.877 -29,-3 -2.94,-1.06 -4.627,-3.373 -7,-5 -12.891,0.891 -20.609,-3.391 -29,-7 -4.648,-6.997 -3.937,-13.726 -7,-20 C 492.291,63.355 480.116,55.994 470,49 459.977,42.071 447.745,34.08 436,31 423.197,27.642 409.054,30.14 396,29 370.271,26.754 350.38,12.94 326,8 322.403,8.564 315.938,10.513 314,7 288.452,13.509 252.709,5.525 227,0 z"
   id="path10"
   style="fill:#ffffff;fill-rule:evenodd" />
		<path
   d="m 1385,386 c -7.375,-1.667 -10.97,-8.861 -20,-6 0.915,-5.084 4.797,-7.203 8,-10 3.578,0.755 6.354,2.313 7,6 -3.469,0.802 -3.844,-1.489 -7,-1 2.889,4.777 11.59,3.743 12,11 z"
   id="path12"
   style="fill:#ffffff;fill-rule:evenodd" />
		<path
   d="m 1385,386 c 0.89,-0.615 1.789,-1.209 2,0 2.127,2.873 0.027,9.973 2,13 -11.432,13.568 -25.086,24.914 -41,34 0.154,-8.487 -4.328,-12.339 -7,-18 2.643,-4.69 8.72,-5.947 7,-15 18.151,1.151 33.042,-0.958 37,-14 z"
   id="path14"
   style="fill:#ffffff;fill-rule:evenodd" />
		<path
   d="m 1451,389 c -4.557,7.109 -8.123,15.211 -11,24 -5.456,-2.544 -10.415,-5.585 -10,-14 7.458,-2.876 12.675,-7.992 21,-10 z"
   id="path16"
   style="fill:#ffffff;fill-rule:evenodd" />
		<path
   d="m 1216,401 c 5.942,1.391 10.537,4.129 12,10 -4.374,1.293 -6.287,5.046 -9,8 -5.877,-2.456 -10.676,-5.99 -16,-9 4.193,-3.14 12.12,-2.546 13,-9 z"
   id="path18"
   style="fill:#ffffff;fill-rule:evenodd" />
		<path
   d="m 1517,401 c 2.228,4.227 8.131,13.906 4,18 -4.909,-1.955 -5.687,-12.71 -4,-18 z"
   id="path20"
   style="fill:#ffffff;fill-rule:evenodd" />
		<path
   d="m 1504,422 c -10.032,3.713 -19.662,-4.107 -26,3 4.42,-7.027 8.16,-22.752 20,-16 0.574,5.759 2.633,10.034 6,13 z"
   id="path22"
   style="fill:#ffffff;fill-rule:evenodd" />
		<path
   d="m 1409,409 c -1.759,2.372 -2.527,9.494 -7,6 0.535,-3.799 3.898,-4.769 7,-6 z"
   id="path24"
   style="fill:#ffffff;fill-rule:evenodd" />
		<path
   d="m 1041,415 c 3.85,-0.793 5.468,5.788 3,8 -3.464,-0.203 -1.82,-5.513 -3,-8 z"
   id="path26"
   style="fill:#ffffff;fill-rule:evenodd" />
		<path
   d="m 1120,429 c -1.998,4.5 -0.238,10.748 1,15 3.841,2.442 7.497,5.961 13,4 0.011,11.632 1.56,16.897 1,30 -2.941,-2.059 -5.478,-4.522 -9,-6 0.856,-8.316 -2.045,-11.21 0,-17 -6.614,-8.184 -10.812,-16.502 -23,-19 -3.855,-0.79 -10.738,2.511 -13,-3 13.509,0.309 15.724,-9.796 30,-4 z"
   id="path28"
   style="fill:#ffffff;fill-rule:evenodd" />
		<path
   d="m 1380,452 c -3.246,-0.58 -4.652,0.682 -7,1 0.528,-8.861 -10.431,-6.236 -16,-9 9.159,-10.013 16.46,1.789 23,8 z"
   id="path30"
   style="fill:#ffffff;fill-rule:evenodd" />
		<path
   d="m 1615,450 c 0,111.333 0,222.668 0,334 -162.67,0 -325.329,0 -488,0 -1.406,-60.063 4.395,-92.527 14,-132 6.906,-7.706 15.532,-18.084 15,-30 23.909,-7.975 46.851,-21.054 68,-31 7.303,-3.434 15.333,-8.377 23,-7 4.399,2.287 1.63,9.902 2,13 1.493,3.299 1.178,-3.346 4,-2 3.787,10.323 4.087,29.591 -2,36 -5.918,-5.415 -10.803,-11.863 -18,-16 -1.88,2.787 -3.18,6.153 -6,8 3.188,10.969 -1.59,10.842 -5,18 -2.938,6.169 -1.685,12.107 -7,14 1.832,6.502 9.91,6.756 11,14 -6.674,5.992 -20.638,4.695 -20,18 16.913,-2.474 35.809,9.467 49,1 9.906,-2.092 15.194,5.207 23,4 8.467,-1.31 13.244,-16.114 24,-10 0.846,-8.82 14.403,-9.608 20,-2 3.222,-4.632 2.928,-9.968 0,-14 5.074,-4.26 7.979,-10.687 16,-12 -1.464,-5.062 1.186,-5.044 0,-8 -6.033,-3.091 -9.271,2.736 -17,3 7.033,-4.628 11.248,-15.152 12,-23 7.335,16.514 19.487,39.246 7,54 -35.941,-4.861 -58.561,31.632 -44,62 4.115,0.88 7.885,4.021 12,2 1.625,2.041 3.246,4.087 4,7 9.907,-1.576 16.386,5.778 27,6 28.684,0.6 52.036,-39.998 28,-56 -0.103,-9.678 6.396,-14.15 2,-22 18.244,-13.817 12.699,-50.888 16,-78 12.139,-0.931 29.406,-4.938 39,-3 14.677,2.964 20.204,33.963 42,31 -0.461,9.872 -6.306,14.361 -9,22 14.413,8.196 37.363,-2.823 50,-11 5.091,1.909 11.114,2.886 15,6 3.918,-1.082 6.504,-3.496 9,-6 -0.853,-9.147 -8.706,-11.294 -16,-14 2.459,-2.443 -0.739,-4.336 0,-8 7.478,-6.35 17.007,4.235 26,4 6.45,-0.169 16.346,-5.862 17,-10 1.989,-12.583 -20.876,-13.136 -29,-19 1.505,-5.867 13.943,-6.993 19,-15 0.691,-1.096 -0.119,-3.271 1,-6 1.463,-3.566 6.615,-6.854 -2,-8 11.602,-7.845 5.815,-26.721 -12,-20 0.176,-4.886 3.34,-15.081 -4,-15 6.824,-6.509 15.517,-11.149 18,-22 3.059,0.726 2.941,-1.726 6,-1 1.428,-6.132 -4.309,-9.179 -1,-14 5.933,-3.644 6.743,3.021 12,3 2.187,-0.147 2.147,-2.52 2,-5 5.735,2.762 11.59,-0.387 17,-1 -1.712,17.428 8.041,31.619 22,27 -4.366,-5.967 -4.524,-16.143 -7,-24 9.612,-9.574 13.058,-38.322 -4,-43 5.137,-5.552 9.378,6.438 16,6 2.077,-0.257 0.273,-4.394 2,-5 0.333,0 0.667,0 1,0 z"
   id="path32"
   style="fill:#ffffff;fill-rule:evenodd" />
		<path
   d="m 1511,454 c -1.684,5.197 -2.106,5.94 -4,10 -4.703,-1.213 -12.697,0.716 -14,6 -4.033,-1.246 -5.048,-3.969 -10,-2 2.062,-11.938 17.389,-10.611 28,-14 z"
   id="path34"
   style="fill:#ffffff;fill-rule:evenodd" />
		<path
   d="m 1150,458 c 3.541,-0.541 2.459,3.541 6,3 -0.294,2.039 -2.706,1.961 -3,4 -2.422,-0.911 -2.648,-4.019 -3,-7 z"
   id="path36"
   style="fill:#ffffff;fill-rule:evenodd" />
		<path
   d="m 1330,461 c 2.418,1.248 3.234,4.099 4,7 -3.664,0.33 -5.557,-1.11 -8,-2 0.677,-2.323 3.323,-2.677 4,-5 z"
   id="path38"
   style="fill:#ffffff;fill-rule:evenodd" />
		<path
   d="m 1201,482 c -0.104,6.438 3.734,8.933 5,14 -8.526,3.958 -13.693,-3.055 -25,0 1.71,-5.137 -0.537,-12.737 -8,-14 3.863,-11.211 19.484,-1.671 28,0 z"
   id="path40"
   style="fill:#ffffff;fill-rule:evenodd" />
		<path
   d="m 1389,479 c -1.586,4.456 -5.423,3.432 -9,4 0.14,-4.193 4.582,-4.085 9,-4 z"
   id="path42"
   style="fill:#ffffff;fill-rule:evenodd" />
		<path
   d="m 1120,483 c 2.54,3.794 5.181,7.486 8,11 -6.448,5.297 -17.984,10.575 -27,10 0.162,-1.162 -0.221,-1.779 -1,-2 5.481,-7.518 10.148,-15.852 20,-19 z"
   id="path44"
   style="fill:#ffffff;fill-rule:evenodd" />
		<path
   d="m 1078,486 c 3.309,2.358 7.443,3.89 8,9 -3.832,-1.404 -6.956,-5.755 -11,-4 -0.251,-2.917 1.883,-3.45 3,-5 z"
   id="path46"
   style="fill:#ffffff;fill-rule:evenodd" />
		<path
   d="m 1272,499 c 5.739,1.928 11.03,4.303 16,7 -5.559,12.26 -4.252,29.621 -14,37 -5.813,4.4 -13.842,2.548 -19,9 1.855,-6.388 -3.736,-23.375 5,-29 -5.331,-9.099 9.657,-17.742 1,-24 1.934,-6.041 11.294,-12.245 11,0 z"
   id="path48"
   style="fill:#ffffff;fill-rule:evenodd" />
		<path
   d="m 1087,499 c 3.353,0.314 1.009,6.325 4,7 -1.891,1.984 -3.506,1.704 -6,1 -0.844,-4.178 1.944,-4.723 2,-8 z"
   id="path50"
   style="fill:#ffffff;fill-rule:evenodd" />
		<path
   d="m 1162,504 c 5.735,5.989 -1.568,14.674 -8,15 1.283,-6.383 4.383,-10.951 8,-15 z"
   id="path52"
   style="fill:#ffffff;fill-rule:evenodd" />
		<path
   d="m 1413,505 c -2.815,5.656 -9.257,12.555 -16,11 0.16,-4.207 4.535,-4.793 2,-9 6.217,-1.193 8.668,-1.276 14,-2 z"
   id="path54"
   style="fill:#ffffff;fill-rule:evenodd" />
		<path
   d="m 1305,510 c 2.606,2.727 8.684,1.983 14,2 -1.601,4.066 -5.995,5.338 -6,11 -0.701,3.701 3.506,2.494 5,4 -7.686,4.981 -13.937,11.396 -23,15 4.363,-5.722 5.864,-22.74 10,-32 z"
   id="path56"
   style="fill:#ffffff;fill-rule:evenodd" />
		<path
   d="m 1136,514 c 2.881,0.152 1.478,6.071 2,11 -4.029,-1.638 -6.971,-4.362 -11,-6 1.951,-2.715 7.577,-1.756 9,-5 z"
   id="path58"
   style="fill:#ffffff;fill-rule:evenodd" />
		<path
   d="m 1420,536 c 2.917,-0.279 3.438,0.241 2,2 10.85,1.092 24.687,-2.335 28,4 -12.133,3.812 -36.225,20.025 -23,37 5.271,-1.894 8.603,1.342 13,3 -9.056,5.953 -25.792,6.642 -36,6 -34.579,-2.174 -63.926,-22.393 -92,-32 0.745,-3.078 -2.745,-1.922 -2,-5 9.943,-5.057 16.219,-13.781 28,-17 -0.824,2.51 1.944,8.61 -2,8 2.827,3.977 4.164,1.685 9,1 0.482,3.185 3.148,4.185 3,8 6.021,-2.094 10.429,1.803 14,5 8.227,-5.347 9.502,-17.483 10,-28 9.337,11.462 22.027,15.951 22,35 11.274,-2.121 11.326,-17.804 5,-25 7.684,0.65 9.164,7.503 16,9 3.391,-8.406 -3.777,-14.878 -6,-21 6.385,1.552 12.146,-11.061 20,-8 -2.09,6.91 -6.465,11.535 -9,18 z"
   id="path60"
   style="fill:#ffffff;fill-rule:evenodd" />
		<path
   d="m 1124,531 c -3.417,-0.75 -1.271,4.062 -5,3 -1.941,-3.059 -4.102,-5.898 -5,-10 4.956,-2.872 7.155,4.541 10,7 z"
   id="path62"
   style="fill:#ffffff;fill-rule:evenodd" />
		<path
   d="m 1171,524 c 4.419,3.582 15.581,0.418 20,4 3.269,22.542 14.09,32.172 42,28 -9.783,5.501 -25.191,16.028 -40,14 -4.994,-0.684 -8.434,-5.747 -14,-5 -0.027,-0.973 -1.225,-0.776 -2,-1 0.348,-13.994 4.736,-29.449 -6,-40 z"
   id="path64"
   style="fill:#ffffff;fill-rule:evenodd" />
		<path
   d="m 1129,545 c 1,0 2,0 3,0 -0.672,6.338 3.913,7.421 5,12 -3.705,0.039 -5.798,-1.536 -8,-3 0,-3 0,-6 0,-9 z"
   id="path66"
   style="fill:#ffffff;fill-rule:evenodd" />
		<path
   d="m 1160,565 c -0.529,0.805 -1.043,1.623 -1,3 2.395,-0.605 4.562,-1.438 8,-1 7.658,9.457 -2.808,19.924 -14,14 5.929,-2.778 5.426,-11.233 2,-16 1.904,-1.874 2.513,-0.109 5,0 z"
   id="path68"
   style="fill:#ffffff;fill-rule:evenodd" />
		<path
   d="m 1291,577 c -6.949,-1.717 -13.876,-3.457 -21,-5 5.994,-5.652 17.681,-0.744 21,5 z"
   id="path70"
   style="fill:#ffffff;fill-rule:evenodd" />
		<path
   d="m 1315,573 c 5.061,0.627 10.836,2.229 17,5 16.393,7.37 39.082,14.234 41,29 0.923,7.103 -1.114,16.137 -2,24 -1.201,10.664 -1.884,24.188 -9,30 1.326,-22.792 -0.914,-41.801 -13,-56 0.095,-4.236 3.609,-5.083 0,-8 -3.804,-1.471 -0.196,4.471 -4,3 -2.006,-2.036 -0.261,-2.664 1,-4 -12.773,-5.227 -20.177,-15.823 -31,-23 z"
   id="path72"
   style="fill:#ffffff;fill-rule:evenodd" />
		<path
   d="m 1321,619 c -3.725,-10.73 -15.85,-16.852 -22,-22 -6.08,3.188 -9.544,21.263 -2,26 -1.848,2.485 -1.131,7.536 -5,8 -5.12,-0.88 -2.488,-9.512 -6,-12 -3.297,1.37 -7.996,1.337 -12,2 -9.012,-8.766 -10.934,-21.565 -11,-37 17.085,-1.705 32.366,6.933 48,10 3.07,8.053 22.981,19.356 10,25 z"
   id="path74"
   style="fill:#ffffff;fill-rule:evenodd" />
		<path
   d="m 215,0 c 4,0 8,0 12,0 25.709,5.525 61.452,13.509 87,7 1.938,3.513 8.403,1.564 12,1 24.38,4.94 44.271,18.754 70,21 13.054,1.14 27.197,-1.358 40,2 11.745,3.08 23.977,11.071 34,18 10.116,6.994 22.291,14.355 27,24 3.063,6.274 2.352,13.003 7,20 8.391,3.609 16.109,7.891 29,7 2.373,1.627 4.06,3.94 7,5 11.645,-0.877 18.038,4.955 29,3 4.344,2.656 9.613,4.387 16,5 5.655,3.804 14.491,10.081 21,7 -2.169,2.081 0.122,3.232 1,5 28.453,9.88 52.752,23.914 82,33 5.901,8.962 13.569,18.955 18,31 3.784,10.288 3.824,20.277 13,25 11.827,6.086 26.318,0.167 42,0 29.233,5.219 67.632,-8.948 97,1 39.258,28.8 80.04,48.681 105,91 16.148,27.38 45.302,46.283 65,72 4.549,10.882 8.683,17.098 10,32 7.014,-9.32 11.015,-21.652 15,-34 8.085,-4.248 15.512,-9.154 28,-9 -6.483,-2.323 -12.951,0.149 -13,-7 -0.062,-8.977 17.132,-5.164 31,-7 4.05,-0.536 6.679,-2.262 10,-2 10.455,0.826 11.791,8.674 18,9 2.285,-7.287 -5.603,-8.602 -3,-13 7.765,-2.607 24.221,-5.175 29,6 4.029,2.516 -4.977,6.851 0,7 5.785,-0.652 7.215,-0.652 13,0 -1.945,-6.836 2.549,-6.943 6,-11 3.062,-3.6 3.984,-11.744 6,-14 15.89,-17.78 47.664,-12.347 57,8 2.935,6.396 7.741,17.896 6,25 -2.092,8.534 -10.379,9.237 -15,17 11.724,8.609 24.755,15.912 34,27 0.549,-14.702 11.716,-26.768 30,-27 3.545,3.54 -3.419,11.829 0,14 1.232,-1.434 3.438,-1.895 6,-2 1.969,-2.698 0.596,-8.738 1,-13 -3.461,-2.872 -6.434,-6.233 -10,-9 1.39,-3.77 -1.583,-10.808 -2,-16 4.685,-9.585 12.847,-12.881 17,-21 -1.323,-5.677 -6.402,-7.597 -11,-10 -6.638,4.374 -18.287,6.379 -24,0 -2.567,-2.867 -0.612,-8.258 -4,-11 5.929,-6.405 16.383,-8.284 19,-18 -6.599,-4.068 -18.745,-2.588 -21,-11 5.007,-4.66 14.161,-5.172 24,-5 -0.204,-1.273 -1.869,-7.059 3,-8 4.7,1.966 10.982,2.352 16,4 1.752,-4.432 -6.515,-6.566 -7,-12 1.241,-2.092 2.908,-3.758 5,-5 4.898,1.623 9.679,4.595 16,2 5.944,3.722 5.397,13.936 13,16 3.453,-3.517 -4.062,-5.18 -1,-10 2.772,-1.895 5.482,-3.851 8,-6 4.738,5.641 12.162,2.459 18,7 7.864,-2.733 10.625,1.361 16,-3 0.979,3.726 3.767,9.721 1,14 5.725,0.941 5.873,7.461 7,13 13.623,5.71 29.123,9.544 32,26 -2.761,3.074 -8.895,-3.085 -10,2 0.34,2.007 -0.204,3.129 -2,3 6.799,6.703 14.456,17.314 16,26 -11.537,5.997 -18.748,-8.192 -28,-11 -3.145,2.759 0.016,5.877 -2,9 -2.578,1.422 -7.95,0.05 -9,3 5.165,6.987 14.24,11.873 19,21 3.771,7.231 1.47,17.788 10,22 5.619,-1.691 4.564,-9.986 11,-11 4.102,-0.646 5.365,1.109 10,3 4.394,-3.273 10.236,-5.097 12,-11 -3.354,-4.312 -7.559,-7.775 -8,-15 -11.008,-2.573 -11.371,-18.932 1,-20 -3.07,-7.681 2.401,-13.827 5,-19 -5.723,-2.519 -12.918,-7.474 -13,-14 -0.053,-4.165 4.955,-8.414 7,-12 6.492,8.174 25.606,3.727 33,11 -1.199,-7.538 -6.992,-16.302 -3,-23 20.394,-0.394 18.899,21.101 31,29 2.272,-2.949 -1.934,-7.083 -2,-13 5.018,-13.937 20.437,-14.135 18,5 12.047,0.795 13.821,18.261 10,28 9.201,7.44 20.138,4.562 29,11 4.623,3.358 6.448,10.104 11,14 6.789,5.812 17.129,8.617 19,19 28.872,-2.232 44.601,29.773 27,48 4.48,6.52 8.714,13.286 10,23 0,0.333 0,0.667 0,1 -0.333,0 -0.667,0 -1,0 -1.727,0.606 0.077,4.743 -2,5 -6.622,0.438 -10.863,-11.552 -16,-6 17.058,4.678 13.612,33.426 4,43 2.476,7.857 2.634,18.033 7,24 -13.959,4.619 -23.712,-9.572 -22,-27 -5.41,0.613 -11.265,3.762 -17,1 0.147,2.48 0.187,4.853 -2,5 -5.257,0.021 -6.067,-6.644 -12,-3 -3.309,4.821 2.428,7.868 1,14 -3.059,-0.726 -2.941,1.726 -6,1 -2.483,10.851 -11.176,15.491 -18,22 7.34,-0.081 4.176,10.114 4,15 17.815,-6.721 23.602,12.155 12,20 8.615,1.146 3.463,4.434 2,8 -1.119,2.729 -0.309,4.904 -1,6 -5.057,8.007 -17.495,9.133 -19,15 8.124,5.864 30.989,6.417 29,19 -0.654,4.138 -10.55,9.831 -17,10 -8.993,0.235 -18.522,-10.35 -26,-4 -0.739,3.664 2.459,5.557 0,8 7.294,2.706 15.147,4.853 16,14 -2.496,2.504 -5.082,4.918 -9,6 -3.886,-3.114 -9.909,-4.091 -15,-6 -12.637,8.177 -35.587,19.196 -50,11 2.694,-7.639 8.539,-12.128 9,-22 -21.796,2.963 -27.323,-28.036 -42,-31 -9.594,-1.938 -26.861,2.069 -39,3 -3.301,27.112 2.244,64.183 -16,78 4.396,7.85 -2.103,12.322 -2,22 24.036,16.002 0.684,56.6 -28,56 -10.614,-0.222 -17.093,-7.576 -27,-6 -0.754,-2.913 -2.375,-4.959 -4,-7 -4.115,2.021 -7.885,-1.12 -12,-2 -14.561,-30.368 8.059,-66.861 44,-62 12.487,-14.754 0.335,-37.486 -7,-54 -0.752,7.848 -4.967,18.372 -12,23 7.729,-0.264 10.967,-6.091 17,-3 1.186,2.956 -1.464,2.938 0,8 -8.021,1.313 -10.926,7.74 -16,12 2.928,4.032 3.222,9.368 0,14 -5.597,-7.608 -19.154,-6.82 -20,2 -10.756,-6.114 -15.533,8.69 -24,10 -7.806,1.207 -13.094,-6.092 -23,-4 -13.191,8.467 -32.087,-3.474 -49,-1 -0.638,-13.305 13.326,-12.008 20,-18 -1.09,-7.244 -9.168,-7.498 -11,-14 5.315,-1.893 4.062,-7.831 7,-14 3.41,-7.158 8.188,-7.031 5,-18 2.82,-1.847 4.12,-5.213 6,-8 7.197,4.137 12.082,10.585 18,16 6.087,-6.409 5.787,-25.677 2,-36 -2.822,-1.346 -2.507,5.299 -4,2 -0.37,-3.098 2.399,-10.713 -2,-13 -7.667,-1.377 -15.697,3.566 -23,7 -21.149,9.946 -44.091,23.025 -68,31 0.532,11.916 -8.094,22.294 -15,30 -9.605,39.473 -15.406,71.937 -14,132 -11.333,0 -22.667,0 -34,0 2.689,-40.525 12.834,-101.276 17,-150 -22.998,10.617 -50.033,-7.244 -46,-35 -18.858,-5.303 -29.69,-31.381 -17,-51 -9.515,-5.926 -18.336,-17.901 -30,-17 -8.511,0.658 -25.476,17.806 -33,23 -12.961,8.948 -24.548,14.845 -34,21 -33.286,12.979 -69.957,17.415 -107,23 -35.965,5.423 -72.556,13.967 -107,5 -10.443,-2.719 -21.649,-10.202 -33,-15 -11.51,-4.865 -22.433,-9.607 -33,-15 -22.356,-11.409 -42.037,-24.154 -67,-29 -12.39,-2.404 -25.986,-2.958 -36,-8 -5.934,-2.988 -9.599,-9.748 -15,-15 -5.151,-5.008 -12.045,-7.98 -17,-12 -10.887,-8.83 -22.435,-18.034 -38,-21 -15.333,-2.921 -30.382,0.834 -45,-1 -10.432,-1.309 -23.728,-5.816 -34,-10 -14.285,-5.818 -29.834,-16.076 -42,-25 -9.275,-21.655 -33.763,-26.688 -55,-39 -10.837,-6.283 -20.939,-14.374 -33,-14 -6.538,-11.463 -19.93,-16.07 -30,-24 -8.795,-11.538 -18.673,-21.994 -30,-31 -16.359,-36.975 -54.759,-51.908 -72,-88 -7.81,-17.096 -13.674,-37.844 -32,-43 -12.201,-3.433 -24.3,0.458 -36,-3 C 68.92,204.361 59.346,192.074 47,177 42.903,150.531 22.923,138.182 10,118 5.369,110.769 -0.485,101.18 1,94 2.893,84.85 14.981,84.1 20,76 19.316,69.351 17.459,63.874 16,58 32.039,41.487 57.331,38.621 78,31 100.604,22.667 120.115,14.143 139,3 162.488,2.799 193.205,6.293 215,0 z m 1133,400 c 1.72,9.053 -4.357,10.31 -7,15 2.672,5.661 7.154,9.513 7,18 15.914,-9.086 29.568,-20.432 41,-34 -1.973,-3.027 0.127,-10.127 -2,-13 -0.211,-1.209 -1.11,-0.615 -2,0 -3.958,13.042 -18.849,15.151 -37,14 z m 25,-25 c 3.156,-0.489 3.531,1.802 7,1 -0.646,-3.687 -3.422,-5.245 -7,-6 -3.203,2.797 -7.085,4.916 -8,10 9.03,-2.861 12.625,4.333 20,6 -0.41,-7.257 -9.111,-6.223 -12,-11 z m 57,24 c -0.415,8.415 4.544,11.456 10,14 2.877,-8.789 6.443,-16.891 11,-24 -8.325,2.008 -13.542,7.124 -21,10 z m -227,11 c 5.324,3.01 10.123,6.544 16,9 2.713,-2.954 4.626,-6.707 9,-8 -1.463,-5.871 -6.058,-8.609 -12,-10 -0.88,6.454 -8.807,5.86 -13,9 z m 318,9 c 4.131,-4.094 -1.772,-13.773 -4,-18 -1.687,5.29 -0.909,16.045 4,18 z m -23,-10 c -11.84,-6.752 -15.58,8.973 -20,16 6.338,-7.107 15.968,0.713 26,-3 -3.367,-2.966 -5.426,-7.241 -6,-13 z m -96,6 c 4.473,3.494 5.241,-3.628 7,-6 -3.102,1.231 -6.465,2.201 -7,6 z m -358,8 c 2.468,-2.212 0.85,-8.793 -3,-8 1.18,2.487 -0.464,7.797 3,8 z m 46,10 c 2.262,5.511 9.145,2.21 13,3 12.188,2.498 16.386,10.816 23,19 -2.045,5.79 0.856,8.684 0,17 3.522,1.478 6.059,3.941 9,6 0.56,-13.103 -0.989,-18.368 -1,-30 -5.503,1.961 -9.159,-1.558 -13,-4 -1.238,-4.252 -2.998,-10.5 -1,-15 -14.276,-5.796 -16.491,4.309 -30,4 z m 267,11 c 5.569,2.764 16.528,0.139 16,9 2.348,-0.318 3.754,-1.58 7,-1 -6.54,-6.211 -13.841,-18.013 -23,-8 z m 126,24 c 4.952,-1.969 5.967,0.754 10,2 1.303,-5.284 9.297,-7.213 14,-6 1.894,-4.06 2.316,-4.803 4,-10 -10.611,3.389 -25.938,2.062 -28,14 z m -330,-3 c 0.294,-2.039 2.706,-1.961 3,-4 -3.541,0.541 -2.459,-3.541 -6,-3 0.352,2.981 0.578,6.089 3,7 z m 173,1 c 2.443,0.89 4.336,2.33 8,2 -0.766,-2.901 -1.582,-5.752 -4,-7 -0.677,2.323 -3.323,2.677 -4,5 z m -153,16 c 7.463,1.263 9.71,8.863 8,14 11.307,-3.055 16.474,3.958 25,0 -1.266,-5.067 -5.104,-7.562 -5,-14 -8.516,-1.671 -24.137,-11.211 -28,0 z m 207,1 c 3.577,-0.568 7.414,0.456 9,-4 -4.418,-0.085 -8.86,-0.193 -9,4 z m -280,19 c 0.779,0.221 1.162,0.838 1,2 9.016,0.575 20.552,-4.703 27,-10 -2.819,-3.514 -5.46,-7.206 -8,-11 -9.852,3.148 -14.519,11.482 -20,19 z m -25,-11 c 4.044,-1.755 7.168,2.596 11,4 -0.557,-5.11 -4.691,-6.642 -8,-9 -1.117,1.55 -3.251,2.083 -3,5 z m 186,8 c 8.657,6.258 -6.331,14.901 -1,24 -8.736,5.625 -3.145,22.612 -5,29 5.158,-6.452 13.187,-4.6 19,-9 9.748,-7.379 8.441,-24.74 14,-37 -4.97,-2.697 -10.261,-5.072 -16,-7 0.294,-12.245 -9.066,-6.041 -11,0 z m -176,8 c 2.494,0.704 4.109,0.984 6,-1 -2.991,-0.675 -0.647,-6.686 -4,-7 -0.056,3.277 -2.844,3.822 -2,8 z m 69,12 c 6.432,-0.326 13.735,-9.011 8,-15 -3.617,4.049 -6.717,8.617 -8,15 z m 245,-12 c 2.535,4.207 -1.84,4.793 -2,9 6.743,1.555 13.185,-5.344 16,-11 -5.332,0.724 -7.783,0.807 -14,2 z m -104,35 c 9.063,-3.604 15.314,-10.019 23,-15 -1.494,-1.506 -5.701,-0.299 -5,-4 0.01,-5.662 4.399,-6.934 6,-11 -5.316,-0.017 -11.394,0.727 -14,-2 -4.136,9.26 -5.637,26.278 -10,32 z m -168,-23 c 4.029,1.638 6.971,4.362 11,6 -0.522,-4.929 0.881,-10.848 -2,-11 -1.423,3.244 -7.049,2.285 -9,5 z m 302,-1 c -7.854,-3.061 -13.615,9.552 -20,8 2.223,6.122 9.391,12.594 6,21 -6.836,-1.497 -8.316,-8.35 -16,-9 6.326,7.196 6.274,22.879 -5,25 0.027,-19.049 -12.663,-23.538 -22,-35 -0.498,10.517 -1.773,22.653 -10,28 -3.571,-3.197 -7.979,-7.094 -14,-5 0.148,-3.815 -2.518,-4.815 -3,-8 -4.836,0.685 -6.173,2.977 -9,-1 3.944,0.61 1.176,-5.49 2,-8 -11.781,3.219 -18.057,11.943 -28,17 -0.745,3.078 2.745,1.922 2,5 28.074,9.607 57.421,29.826 92,32 10.208,0.642 26.944,-0.047 36,-6 -4.397,-1.658 -7.729,-4.894 -13,-3 -13.225,-16.975 10.867,-33.188 23,-37 -3.313,-6.335 -17.15,-2.908 -28,-4 1.438,-1.759 0.917,-2.279 -2,-2 2.535,-6.465 6.91,-11.09 9,-18 z m -315,6 c 0.898,4.102 3.059,6.941 5,10 3.729,1.062 1.583,-3.75 5,-3 -2.845,-2.459 -5.044,-9.872 -10,-7 z m 63,40 c 0.775,0.224 1.973,0.027 2,1 5.566,-0.747 9.006,4.316 14,5 14.809,2.028 30.217,-8.499 40,-14 -27.91,4.172 -38.731,-5.458 -42,-28 -4.419,-3.582 -15.581,-0.418 -20,-4 10.736,10.551 6.348,26.006 6,40 z m -48,-10 c 2.202,1.464 4.295,3.039 8,3 -1.087,-4.579 -5.672,-5.662 -5,-12 -1,0 -2,0 -3,0 0,3 0,6 0,9 z m 26,11 c 3.426,4.767 3.929,13.222 -2,16 11.192,5.924 21.658,-4.543 14,-14 -3.438,-0.438 -5.605,0.395 -8,1 -0.043,-1.377 0.471,-2.195 1,-3 -2.487,-0.109 -3.096,-1.874 -5,0 z m 115,7 c 7.124,1.543 14.051,3.283 21,5 -3.319,-5.744 -15.006,-10.652 -21,-5 z m 76,24 c -1.261,1.336 -3.006,1.964 -1,4 3.804,1.471 0.196,-4.471 4,-3 3.609,2.917 0.095,3.764 0,8 12.086,14.199 14.326,33.208 13,56 7.116,-5.812 7.799,-19.336 9,-30 0.886,-7.863 2.923,-16.897 2,-24 -1.918,-14.766 -24.607,-21.63 -41,-29 -6.164,-2.771 -11.939,-4.373 -17,-5 10.823,7.177 18.227,17.773 31,23 z m -35,-2 c -15.634,-3.067 -30.915,-11.705 -48,-10 0.066,15.435 1.988,28.234 11,37 4.004,-0.663 8.703,-0.63 12,-2 3.512,2.488 0.88,11.12 6,12 3.869,-0.464 3.152,-5.515 5,-8 -7.544,-4.737 -4.08,-22.812 2,-26 6.15,5.148 18.275,11.27 22,22 12.981,-5.644 -6.93,-16.947 -10,-25 z"
   id="path76"
   style="fill-rule:evenodd" />
	</g>
</g>
</svg>