<?xml version="1.0" encoding="UTF-8" standalone="no"?>
<!-- Created with Inkscape (http://www.inkscape.org/) -->

<svg
   xmlns:svg="http://www.w3.org/2000/svg"
   xmlns="http://www.w3.org/2000/svg"
   version="1.1"
   width="100%"
   height="100%"
   viewBox="0 0 487.1 800"
   id="Layer_1"
   xml:space="preserve"><defs
   id="defs7" />
<path
   d="m 250.2,0 c -1.6,17.5 -3.2,34.9 -4.8,52.4 -5.9,0.9 -11.8,1.8 -17.7,2.7 0,0 12.3,6.9 14.5,13.9 0.3,1.1 0.2,2 -0.3,2.7 -0.2,0.2 -0.4,0.5 -0.6,0.6 -3.6,2.7 -14.1,1.5 -14.1,1.5 0,0 14,11.8 15.1,16.1 0,0.1 0.1,0.2 0.1,0.3 0,0.1 0,0.2 0,0.3 0,0.1 -0.1,0.2 -0.1,0.2 -0.1,0.2 -0.3,0.4 -0.5,0.6 -3.3,3 -18.8,3.9 -18.8,3.9 0,0 17.2,12.3 18.3,19.2 1,6.3 0.2,10 0,10.6 -1.2,-1 -28.9,-24.3 -46.8,-17.5 -0.9,0.5 -1.4,0.9 -1.6,1.3 -0.1,0.2 -0.1,0.5 -0.1,0.7 1.3,3.9 26.5,7.8 44.2,23.1 -0.4,3.8 -50.3,-12.1 -52.1,-2.1 1.6,2.8 53.6,10.3 57.5,17.1 -19.2,0.7 -58.8,-4.2 -57.5,2.1 -4,7.3 37.4,3.2 54.8,9.1 5.1,5.8 4.6,10.6 -4.3,11.2 -16.7,-8 -54.2,-13.9 -54.3,-3.7 0,0 0,0 0,0.1 0,0 0.1,0 0.1,0.1 0,0 0,0.1 0.1,0.1 0.1,0.1 0.2,0.1 0.3,0.2 4.2,2.1 39.1,1.1 52.3,9.7 -18.6,4.2 -81.8,-8.5 -82.2,-2.3 1.8,2.9 11.8,15.7 29,15.1 17.2,-0.5 57,7 59.7,12.3 0.1,0.2 0.1,0.3 0.1,0.5 -1.2,3.7 -52.4,-11.4 -72.1,-2.1 -20.4,9.6 58.6,3.8 71.5,15.5 12.9,11.8 -25.8,-1.1 -25.8,-1.1 0,0 -53.7,-7.5 -61.8,-3.7 -8.1,3.7 -17.2,12.3 -17.2,12.3 0,0 5.4,10.7 10.7,8.5 0.8,-0.3 1.4,-0.4 1.7,-0.3 0,0 0.1,0 0.1,0 0,0 0.1,0.1 0.1,0.1 0,0 0,0 0.1,0.1 0,0 0,0 0.1,0.1 0,0 0.1,0.1 0.1,0.1 0,0.1 0,0.2 0.1,0.2 0.1,1.6 -3.7,6.3 -3.7,6.3 0,0 74.6,17.9 91.3,33.9 16.7,16 -95.7,-25.1 -95.7,-25.1 0,0 -45.2,16.6 2.7,17.6 -5.3,7.8 2.2,12.5 2.7,12.8 0,0 79.6,16.6 87.6,29.4 8.1,12.8 -54.3,-12.3 -68.3,-19.3 -13.5,-6.7 -51,3.5 -53.1,6.7 0,0 0,0.1 -0.1,0.1 v 0.3 c 0,0 0.1,0 0.1,0.1 v 0.1 c 0,0 0.1,0.1 0.1,0.2 0,0 0,0 0.1,0.1 2.4,2.6 19.2,6.3 19.7,10.8 v 0.1 c 0,0.2 -0.1,0.5 -0.2,0.8 -2.1,4.1 -22.1,5.8 -22.9,9.6 0,0.1 -0.1,0.2 -0.1,0.2 0,4.3 100.5,25.1 127.4,47.6 26.9,22.5 -79,-26.7 -79,-26.7 0,0 5.9,8 0,10.2 -5.9,2.1 -26.9,-29.9 -61.3,-10.2 -6.3,8.1 30,14.6 39.3,15.5 -3.2,8.1 -5.9,10.7 7,18.7 1.4,0.9 2.2,1.4 2.5,1.7 0,0 0.1,0 0.1,0.1 l 0.1,0.1 v 0.1 c 0,0 -0.1,0 -0.1,0 0,0 0,0 -0.1,0 -2,-0.3 -25.2,-12.2 -27.6,-12.6 0,0 -0.1,0 -0.1,0 0,0 -0.1,0 -0.1,0 0,1.1 2.7,13.9 2.7,13.9 -11.9,-9.6 -26.3,-12.5 -39.8,-2.7 0,0.6 -0.1,9.8 13.4,15.5 -7.6,15.5 8.6,10.7 34.4,25.1 -38.3,-10 -41.4,8.5 -14,12.8 27.4,4.3 102.7,7 120.4,29.9 3.7,4.8 4.8,7.3 4,8.1 -3,2.7 -30.2,-16.9 -34.1,-17.6 0,0 -0.1,0 -0.1,0 0,0 -0.1,0 -0.1,0.1 -0.1,0.1 -0.1,0.2 -0.2,0.3 -1,2.1 -1.9,11.4 -1.9,11.4 -11.5,-6.6 -22,-12.5 -35.7,-15.3 -1.1,2.1 -0.8,5.2 -1.9,7.3 -12.4,-8.9 -23.3,-15.2 -41.4,-16.1 -0.7,2.9 -1.4,5.7 -2.2,8.6 0,0 -15.1,-18.7 -44.6,0 -16.5,11.8 62.4,4.3 75.3,18.2 12.9,13.9 2.7,16 2.7,16 -10.7,-3.9 -21.5,-7.8 -32.2,-11.7 0,0 -38.2,-7 -48.9,1.6 -10.7,8.6 156.9,29.4 161.8,52.4 3.3,12.5 -39.4,-13.1 -76.3,-24 -1.4,4.1 -2.9,8.2 -4.3,12.2 -0.9,-0.9 -15.2,-14.7 -31.2,-17.1 0,0 -0.1,0 -0.1,0.1 0,0 0,0.1 0,0.1 0,1.8 3.3,14.3 3.3,14.3 0,0 -41.3,-19.3 -62.3,-9.1 -21,10.2 73.1,15.5 81.7,25.1 0.9,1.1 1.3,1.8 1.3,2.3 0,0.1 -0.1,0.2 -0.1,0.3 -2.1,3 -30.1,-8.1 -32.9,-2.6 -3.2,6.4 -48.9,-11.7 -48.4,-3.2 0.5,8.6 6.5,13.3 6.5,13.3 0,0 95.1,9.1 98.4,20.3 3.2,11.2 -52.7,-6.4 -52.7,-6.4 0,0 -5.4,8 -1.1,11.7 0.2,0.1 0.3,0.3 0.3,0.3 0,0 0,0.1 0,0.1 0,0 -0.1,0 -0.1,0 -1.9,-0.6 -32.2,-20.4 -29.3,-5.2 -11.9,-4.7 -42.5,-19.2 -38.2,-8 4.2,11.1 84.1,26.8 86.4,27.3 -2.1,0.2 -35.9,3 -34.3,11.8 -45.2,-27.4 -45.1,-11 -44.1,-9.7 v 0.1 c -2.5,-0.4 -58.2,-14.2 -13.9,9.6 23.7,12.8 29.5,17.8 29.6,19.7 0,0 0,0.1 0,0.2 0,0.1 0,0.1 -0.1,0.2 0,0 -0.1,0 -0.1,0.1 0,0 0,0.1 -0.1,0.1 0,0 -0.1,0 -0.1,0.1 0,0 0,0 -0.1,0.1 0,0 0,0 -0.1,0.1 0,0 0,0.1 -0.1,0.1 -0.9,0.6 -3.1,0.3 -3.8,0.3 0,0 -0.1,0 -0.1,0 0,0 -0.1,0.1 -0.1,0.1 l 0.1,0.1 c 0.6,0.9 4.1,10.4 3.9,12 0,0 -0.1,0.1 -0.1,0.1 v 0.1 c 0,0 -0.1,0 -0.1,0 v 0.1 c 0,0 -0.1,0 -0.1,0 0,0 -0.1,0 -0.1,0 -1.9,-0.5 -31.3,-16.1 -41.3,-17.1 -10.2,-1.1 -58.6,13.3 -7,35.8 51.6,22.4 83.3,-5.4 111.8,-2.1 28.5,3.2 41.9,8 39.3,17.1 -2.7,9.1 -29.1,-29.8 -56.9,3.8 -31.6,-6.2 -53.1,-9.8 -36.8,13.3 -51.6,-19.2 -83.2,5.9 -18.1,16 63.9,1.9 103.2,-15.5 103.2,-15.5 0,0 10.8,19.8 26.4,5.9 14.9,-13.2 16,3.6 16.6,5.2 0,0 0.1,0 0.1,0.1 v 0.1 c 0,0 0.1,0 0.1,0 1.1,-0.3 15,-6.4 15,-6.4 1.3,0 2.5,0 3.8,0 v 128.3 c 17.4,0.2 34.7,0.3 52.1,0.5 0,0 -16.7,-111.7 -7.5,-126.6 8.9,-14.5 17.2,-12.9 17.7,-12.8 0,0 33.9,10.1 37.6,8.5 0,0 0.1,0 0.2,-0.1 0,0 0.1,0 0.1,-0.1 0.1,0 0.2,-0.1 0.2,-0.2 0,0 0,0 0.1,-0.1 2.8,-2.5 -0.1,-12.4 17.2,-10.8 5.3,-1.9 3.3,-10.3 6.7,-12.4 0.1,0 0.2,-0.1 0.2,-0.1 0.1,-0.1 0.3,-0.1 0.5,-0.2 0.2,-0.1 0.5,-0.1 0.7,-0.1 5.4,-0.5 109.1,28.8 131.7,1 -5.9,-15.5 -26.4,-1.1 -31.7,-0.5 -4.8,0 -25.3,-9.6 -37.1,0 -10.7,-8 -59.6,-13.3 -59.6,-13.3 -6.4,-6.4 116.6,3.2 123.6,-1.6 14.5,-14.4 -26.9,-12.8 -33.3,-8 -11.5,-6.9 -25.9,-6.4 -34.7,-1.6 -4.2,-10 -44.2,-5.7 -66.4,-8.5 -7.1,-4.1 -5.9,-6.5 -1.1,-9.1 46.4,2 92.6,8 139.2,5.9 12.6,-16.3 -15.9,-22.5 -33.3,-8.6 -10.2,-16.7 -31.2,-0.5 -45.2,-2.1 -14,-1.6 -7.5,-18.7 10.2,-16 17.7,2.7 49.5,-1.1 55.4,-9.1 5.9,-8 -3.5,-16.1 -32.8,-8.5 -9.9,-9.6 -31.7,0 -41.9,3.2 -13.6,-7.5 -45.2,-1 -55.9,1.6 -10.5,-6.5 55.4,-17.1 55.4,-17.1 25.4,-0.4 39.8,-4.8 47.8,-7 38.4,-20.5 -0.5,-22.7 -20.7,-7.8 -12.5,-9.7 -24.4,0.8 -35.7,4.6 -10.6,3.5 -30.2,6.1 -32.6,5 0,0 -0.1,0 -0.1,-0.1 0,0 -0.1,-0.1 -0.1,-0.1 l -0.1,-0.1 V 548 c 0,0 0,-0.1 0,-0.1 0,0 0,-0.1 0.1,-0.1 1.6,-2.4 30.6,-20.1 30.6,-20.1 0,0 37.6,-2.7 45.2,-3.8 4.6,-0.7 20.7,-8.2 20.7,-11 -0.1,-1.7 -6.8,-1.6 -27.1,3.5 -18.3,1.6 -29,0.6 -36,1.1 -11.2,-1.2 -16,-2.3 -16.9,-3.4 0,0 -0.1,-0.1 -0.1,-0.2 -0.1,-0.2 0,-0.4 0.1,-0.6 0,0 0.1,-0.1 0.2,-0.2 2.8,-2.2 20.5,-3.8 20.5,-3.8 0,0 54.3,-4.9 57.9,-7.8 0,0 0,0 0.1,-0.1 0,0 0,-0.1 0.1,-0.1 0,0 0.1,0 0.1,-0.1 1.1,-22.1 -46,-11.9 -47.3,-11.7 0.1,-15.5 -42.6,-0.2 -44.6,0 0,0 -0.1,0 -0.1,0 -1.8,-1.1 -2.6,-2.2 -2.8,-3.2 -0.1,-0.4 0,-0.8 0.1,-1.2 1.1,-3.2 7.5,-5.7 7.5,-5.7 11.8,-2.8 29.5,-3.7 34.1,-7.5 0,0 33.4,-0.3 37.3,-9.1 -8.2,-22.5 -70.6,4 -79,8 -1.7,0 -2.7,-0.4 -3.2,-1.1 -2.7,-4 10.8,-17.1 11.3,-17.6 0,0 0,-0.1 0.1,-0.1 2.1,-0.6 51.9,-3.1 75.7,-35.2 1.7,-19.8 -28.5,11.2 -28.5,11.2 -2.3,-25.7 -32.8,1.6 -50.5,3.8 -17.7,2.1 -18.3,-8 -5.9,-9.6 12.4,-1.6 26.3,-0.6 33.3,-19.3 7,-18.7 28,1.1 31.7,-5.9 3.6,-6.7 -6.9,-12.5 -7.5,-12.8 0,0 15.6,-16.1 -9.7,-15.5 -25,0.5 -57.3,-3.1 -58,-3.2 1.6,-0.6 27,-10.1 51,-9.6 24.7,0.5 11.3,-17.6 -12.4,-17.6 -23.6,0 -36,-8 -36,-8 13.4,-5 26.9,-10 40.3,-15 -0.9,-3.7 -1.8,-7.5 -2.7,-11.2 0,0 23.6,-18.7 -9.7,-14.4 -33.3,4.3 -37.1,4.8 -37.1,4.8 0,0 -65.6,10 -67.1,10.2 0,0 -0.1,0 -0.1,0 -0.6,-0.1 -7.1,-2.1 -8.3,-4.6 0,-0.1 -0.1,-0.2 -0.1,-0.3 0,-0.1 0,-0.2 -0.1,-0.3 0,-0.1 0,-0.3 0,-0.4 0.3,-1.3 2.3,-2.7 7.5,-4 17.2,-4.3 78,-16.5 87.1,-13.3 1.2,0.4 2,0.3 2.6,-0.1 3.4,-3.1 -8,-22.7 -35.9,-25.5 -32.2,-3.2 -52.1,8 -52.1,8 0,0 -21,-7.5 -1.6,-13.9 19.3,-6.4 50,2.1 50,2.1 0,0 34.4,-10.2 5.9,-14.4 -28.5,-4.3 -37.5,3.8 -50.5,4.3 -5.2,-6.5 44.7,-8 47.8,-13.3 -5.3,-9.6 -36.2,0 -54.3,0 -7.7,-3.2 -8.2,-8.5 0.5,-11.8 18.5,-0.7 35.8,0.4 54.3,-0.3 -0.5,-9.8 0,-21.4 -0.5,-31.2 -23.4,-4.3 -50.9,3.1 -64,2.5 3.5,-10.7 54.1,-13.4 59.7,-16.4 11.6,-14.4 -48.5,-0.2 -49.9,0 -10.7,-1.6 -10,-8.3 -3.3,-12.3 15.6,-1.8 50.5,2.3 47.9,-8.2 -2,-9.8 -24.2,-4.6 -33.4,-2.4 -9.1,2.1 -22.6,0.5 -22.6,0.5 -5.9,-7.8 52.7,-4.6 52.2,-10.7 -0.8,-6.9 -37.1,-2.2 -49.5,-1.6 -9.5,-6.5 44.7,-10.9 47.3,-11.7 0,0 0.1,-0.1 0.1,-0.1 2,-17.8 -37.6,0 -45.2,0 -1.3,0 -2.3,-0.3 -3,-0.9 -0.2,-0.1 -0.3,-0.3 -0.5,-0.5 -2.6,-3 -0.3,-9.9 -0.3,-9.9 0,0 14.1,-6.3 15,-7.8 0,0 0.1,0 0.1,-0.1 V 106 c 0,0 0,-0.1 0,-0.1 0,0 -0.1,0 -0.1,-0.1 0,0 -0.1,-0.1 -0.2,-0.2 -1.7,-1.3 -11.4,-4.5 -12.7,-4.6 0,0 -0.1,0 -0.1,0 0,0 -0.1,-0.1 -0.1,-0.1 0,0 0,0 -0.1,-0.1 0,0 -0.1,0 -0.1,-0.1 -0.7,-1.5 0.2,-12.1 0.2,-12.1 0,0 11.2,-8.3 11.9,-11.7 v -0.2 c 0,0 0,-0.1 0,-0.1 V 76 c 0,0 0,-0.1 -0.1,-0.1 v -0.1 c 0,0 -0.1,0 -0.1,-0.1 0,0 0,0 -0.1,-0.1 0,0 0,-0.1 -0.1,-0.1 0,0 0,-0.1 -0.1,-0.1 0,0 -0.1,-0.1 -0.2,-0.1 0,0 -0.1,0 -0.1,-0.1 -2.8,-1.4 -14.5,2.7 -14.5,2.7 0,-3.6 0,-7.1 0,-10.7 0,0 10.2,-1.1 11.3,-5.9 0.1,-0.3 0,-0.6 0,-0.8 0,-0.1 0,-0.3 -0.1,-0.3 -0.1,-0.2 -0.2,-0.5 -0.3,-0.6 0,0 -0.1,-0.1 -0.1,-0.1 C 264.6,56.5 255,56.1 255,56.1 253.8,37.4 252,18.7 250.2,0 l 0,0 z m -9.6,183.2 v 7.4 c 0,0 -12.1,-0.6 -14.3,-2.5 0,0 0,0 -0.1,-0.1 0,0 0,0 -0.1,-0.1 0,0 -0.1,0 -0.1,-0.1 0,0 -0.1,0 -0.1,-0.1 0,0 0,-0.1 -0.1,-0.1 v -0.1 c 0,0 -0.1,0 -0.1,-0.1 v -0.1 c 0,0 0,-0.1 0,-0.1 0,0 0,0 0,-0.1 V 187 c 0,0 0,-0.1 0.1,-0.2 0,0 0.1,0 0.1,-0.1 0,0 0.1,-0.1 0.1,-0.2 0,0 0,0 0.1,-0.1 0,0 0.1,-0.1 0.1,-0.1 0.1,-0.1 0.2,-0.2 0.3,-0.2 4,-2.8 12.1,-2.7 13.7,-3.2 0,0 0,0 0.1,0 0,0 0,-0.1 0.1,-0.1 0.1,0.4 0.2,0.5 0.2,0.4 0,0 0,0 0,0 l 0,0 z m 17.1,9.8 c 0.4,0 24,0.2 26.1,3.2 0,0 0,0.1 0.1,0.1 0,0 0,0.1 0.1,0.2 v 0.1 c 0,0 0,0.1 0,0.2 0,0 0,0.1 -0.1,0.2 -1.8,3.8 -25.7,6.1 -25.7,6.1 l -0.5,-10.1 0,0 z m -1.3,14.6 c 0,0 0,-0.1 0,0 0.1,0 0.1,0 0.1,0 1.4,0.4 11.2,0.7 12.4,2.3 0,0 0,0 0.1,0.1 v 0.1 c 0,0 0.1,0 0.1,0.1 v 0.1 c 0,0 0,0 0,0.1 0,0 0,0 0,0.1 0,0 0,0 0,0.1 v 0.1 c 0,0 -0.1,0 -0.1,0.1 v 0.1 c 0,0 0,0.1 -0.1,0.1 0,0 -0.1,0 -0.1,0.1 v 0.1 c -2,2.5 -11,3.1 -11.5,3.1 0,0 -0.1,0 -0.1,0 v -0.1 c 0,0 -0.1,0 -0.1,-0.1 -0.3,-1.2 -0.7,-6.5 -0.7,-6.5 l 0,0 z m -71.9,19.3 c 7.7,-0.4 23,1.4 51.7,9.3 0,0.6 0.6,8 0.3,9.2 0,0 -0.1,0 -0.1,0.1 v 0.1 c 0,0 -0.1,0.1 -0.1,0.1 -0.5,-0.2 -52.2,-15 -56.9,-14.8 -0.1,0 -0.3,0 -0.4,0 -0.1,0 -0.3,0 -0.3,-0.1 -0.1,0 -0.3,-0.1 -0.4,-0.2 0,0 -0.1,0 -0.2,-0.1 0,0 0,-0.1 -0.1,-0.1 -0.2,-0.1 -0.3,-0.3 -0.4,-0.4 0,0 -0.1,0 -0.1,-0.1 0,0 0,-0.1 -0.1,-0.1 v -0.1 c 0,0 -0.1,-0.1 -0.1,-0.1 v -0.1 c 0,0 0,-0.1 0,-0.1 0,0 0,-0.1 0,-0.1 0,-0.1 0,-0.2 0.1,-0.2 0.1,-0.2 0.2,-0.4 0.3,-0.5 1,-0.7 2.9,-1.5 6.8,-1.7 l 0,0 z m 26.8,21.9 c 8.3,-0.3 28,4.4 29.1,4.2 0,1.6 0.9,9 -0.1,10.5 0,0 0,0 -0.1,0.1 0,0 0,0 -0.1,0.1 0,0 0,0.1 -0.1,0.1 0,0 -0.1,0 -0.1,0.1 0,0 0,0 -0.1,0 0,0 -0.1,0 -0.1,0 0,0 0,0 -0.1,0 -1.7,-0.4 -30.9,-9.6 -32,-13.4 0,-0.1 0,-0.2 0,-0.2 0,-0.1 0.1,-0.3 0.2,-0.4 0,0 0,0 0.1,-0.1 0,0 0,0 0.1,-0.1 0.6,-0.6 1.8,-0.8 3.3,-0.9 l 0,0 z m 81.2,20.3 c 7.9,-0.2 13.4,0.5 11.4,2.9 -5.6,6.5 -44.5,11.8 -44.5,11.8 L 258.7,272 c 0.8,-0.1 20.6,-2.6 33.8,-2.9 l 0,0 z M 181.2,306 c 6.6,-0.3 22,3.3 56.3,17.7 l 0.2,8.5 c 0,0 -58.1,-17.5 -60.1,-20.4 -1,-1.4 -2.8,-5.5 3.6,-5.8 l 0,0 z M 295,318.7 c 1.8,-0.1 3,0.1 3.4,0.5 0,0 0,0 0.1,0.1 0,0 0,0.1 0.1,0.2 0,0 0.1,0.1 0.1,0.2 0,0.2 -0.2,0.6 -0.5,0.9 -5.4,6 -34.4,12.1 -34.4,12.1 0,0 0,-7.6 0,-7.8 0,0 0.1,0 0.1,0 1.1,-0.2 22.4,-5.8 31.1,-6.2 l 0,0 z m -127.3,1 c 8.7,-0.5 28.2,4.1 72.1,24.8 0,0.2 0.4,7.3 0.2,8 0,0 -0.1,0 -0.1,0 C 237.3,351.7 161,325 161,325 c -0.1,-0.3 -1.2,-4.8 6.7,-5.3 l 0,0 z M 313,353.1 c 2.2,-0.1 3.7,0.1 4,0.6 0,0.1 0.1,0.2 0.1,0.2 0,0.2 -0.2,0.5 -0.6,0.9 -6.9,6.2 -51.1,13.7 -52.6,13.9 0,0 -0.1,0 -0.1,0 0,0 -0.1,0 -0.1,0 0,0 -0.1,-0.1 -0.1,-0.1 0,0 0,-0.1 -0.1,-0.1 v -0.1 c 0,0 -0.1,-0.1 -0.1,-0.1 -0.3,-1.4 0.6,-6.5 0.7,-7.2 0,0 0,-0.1 0,-0.1 0,0 0.1,0 0.1,0 0,0 0,0.1 0.1,0.1 0,0 0,0 0.1,0 2.9,0 36.7,-7.5 48.6,-8 l 0,0 z m -129.8,19.4 c 13.1,-0.7 52.9,17.5 54.9,18 0,0 0.1,0 0.1,0 -0.2,0.8 -0.2,7.4 -0.4,8.4 v 0.1 c 0,0 -0.1,0 -0.1,0 -1.1,-0.6 -55.6,-23.1 -58,-21.3 -1.5,-3.4 0,-5 3.5,-5.2 l 0,0 z m 117.4,4.8 c 2.7,-0.1 4.7,0 5.4,0.3 0.1,0 0.1,0.1 0.2,0.2 v 0.1 c 0,0 0,0 0,0.1 v 0.1 c 0,0 -0.1,0 -0.1,0.1 0,0.1 -0.1,0.1 -0.2,0.2 -4.1,3.6 -41.7,11 -41.7,11 0,0 -0.2,-6.9 -0.2,-7.6 1.2,-0.4 25.4,-4 36.6,-4.5 l 0,0 z m -3,23.9 c 2.6,-0.1 4.5,0.1 5,0.5 l 0.1,0.1 c 0,0 0,0.1 0,0.1 0,0 0.1,0 0.1,0.1 0,0 -0.1,0 -0.1,0.1 0,0 0,0.1 0,0.1 0,0 -0.1,0 -0.1,0.1 0,0.1 -0.1,0.1 -0.1,0.2 0,0 -0.1,0.1 -0.2,0.2 -4.1,3.5 -35.9,10.2 -35.9,10.2 0,0 -0.9,-7.6 -0.9,-7.8 0.8,-0.2 22.1,-3.5 32.1,-3.9 l 0,0 z m -134.6,2 c 7.7,-0.5 26.8,2.7 73.8,19.7 l 1.6,9.2 c 0,0 -78.3,-25.1 -80.6,-25.9 V 406 c 0,0 0,-0.2 0,-0.3 0,-0.2 0.1,-0.6 0.4,-0.9 0.6,-0.7 1.9,-1.5 4.8,-1.6 l 0,0 z m 103.2,19.9 c 0.9,0.2 14.1,0.6 16.5,2.7 0,0 0,0 0.1,0.1 0,0 0,0 0.1,0.1 0,0 0.1,0 0.1,0.1 0,0 0,0.1 0.1,0.1 0,0 0.1,0 0.1,0.1 0,0 0,0.1 0.1,0.2 v 0.1 c 0,0 0,0 0,0.1 0,0 0,0.1 0,0.1 v 0.1 c 0,0 -0.1,0.1 -0.1,0.1 v 0.1 c 0,0 0,0.1 -0.1,0.1 -2,3.1 -15.8,4.3 -15.8,4.3 0,0 -0.7,-6.5 -1.1,-8.4 l 0,0 z m 31.8,17.8 c 3.1,-0.1 5.3,0.3 5.7,1.2 0.3,0.6 -0.2,1.5 -1.7,2.7 -11.3,9.2 -35.8,11 -35.8,11 v -10.1 c 0,0 0,0 0.1,0 1.4,-0.2 21.6,-4.5 31.7,-4.8 l 0,0 z m 31.2,9.4 c 3.9,-0.1 5.6,0.5 6.1,1.4 0,0.1 0.1,0.2 0.1,0.3 0,0.2 0.1,0.4 0.1,0.5 -0.1,1.1 -1.4,2.5 -2.3,3.4 -3.8,3.6 -64.8,22.8 -64.8,22.8 0,0 -0.5,-12.7 -0.2,-13.9 35.6,-10.7 53,-14.2 61,-14.5 l 0,0 z m -39.4,36.1 c 3.9,-0.1 6.9,0.1 7.8,1 0.1,0.1 0.1,0.2 0.2,0.2 0,0 0,0.1 0.1,0.2 0,0 0,0.1 0,0.2 0,0.1 0,0.2 0,0.3 0,0.2 -0.2,0.4 -0.3,0.6 -5.2,5.1 -30.6,5.9 -30.6,5.9 v -6.3 c 4.8,-0.3 15.4,-1.8 22.8,-2.1 l 0,0 z m 25.4,10.4 c 1.2,0 1.9,0.2 2,0.5 v 0.1 c -0.1,0.3 -0.4,0.7 -1.2,1.3 -10.1,7.2 -48.2,14.5 -48.2,14.5 0,0 0.5,-5 0.7,-6.2 1.1,0 37.6,-10 46.7,-10.2 l 0,0 z m 21.3,7.9 c 4.5,0 7.9,0.6 9.9,2 0,0 0.1,0 0.1,0 v 0.1 c 0,0 0,0 0,0.1 0,0 0,0.1 0,0.1 -0.2,1.4 -3,7.9 -13.1,10.7 -12.5,-1.1 -65.6,14.5 -66.6,14.7 0,0 -0.1,0 -0.1,0 v -0.1 c 0,-1 0.7,-6.4 0.7,-6.4 18.3,-10.8 51.5,-21 69.1,-21.2 l 0,0 z m -135.8,30.7 c 0.1,0 0.2,0 0.3,0 23,2.5 31.5,11 34,14.4 -4.6,8 -40.9,-9.9 -37,-13.7 0.4,-0.4 1.3,-0.7 2.7,-0.7 l 0,0 z m 131.5,1.5 c 0.9,0 1.7,0.2 2.3,0.5 0.2,0.2 0.5,0.4 0.6,0.6 0.2,0.4 0.4,0.8 0.4,1.4 -2.4,3.7 -14.8,2.1 -15.6,2 0.8,-0.2 7.9,-4.4 12.3,-4.5 l 0,0 z M 283,561.7 c 1.7,-0.1 3.1,0.1 3.9,0.6 0.1,0.1 0.2,0.2 0.3,0.2 0,0 0.1,0.1 0.1,0.1 0,0 0.1,0.1 0.1,0.2 0,0 0,0.1 0.1,0.2 0.1,0.4 0.1,1 -0.3,1.7 -3.6,6.7 -19.4,4.2 -19.4,4.2 v -4.7 c 0,0 0.1,0 0.1,0 0.9,0.1 9.6,-2.3 15.1,-2.5 l 0,0 z m -92.8,17.7 c 4.9,-0.2 9.1,2.9 13.5,5.5 9.9,-2 30.2,1.6 30.2,1.6 v 8.9 c 0,0 0,0.1 -0.1,0.1 0,0 0,0 -0.1,0 -1.8,0.3 -25.7,-0.7 -31,-4.1 -4.3,0 -16.6,-6.4 -17.6,-9.7 0,0 -0.1,-0.1 -0.1,-0.1 v -0.2 c 0,0 0,-0.1 0,-0.1 V 581 c 0,0 0.1,-0.1 0.1,-0.1 v -0.1 c 1.9,-0.9 3.5,-1.3 5.1,-1.4 l 0,0 z m 104.1,4.4 c 3.7,-0.2 5.3,0.9 2.4,5 -8.1,11.4 -29.1,6.7 -29.1,6.7 l -0.9,-7.1 c 7.5,0.4 21,-4.2 27.6,-4.6 l 0,0 z M 216,606.9 c 8.5,-0.4 17.7,3 17.7,3 0.2,0.4 4.6,8.9 0.7,11.8 -0.1,0.1 -0.3,0.2 -0.5,0.3 -4.7,2.5 -27.3,-1.9 -28.6,-11 2.6,-2.8 6.6,-3.9 10.7,-4.1 l 0,0 z m -87.3,4.5 c 7.7,-0.5 16.4,4.3 17.4,4.8 0,0 0.1,0 0.1,0 0,0.3 -0.3,8.6 -0.3,8.6 0,0 -15.3,-4.3 -20.2,-12.8 0.9,-0.4 2,-0.6 3,-0.6 l 0,0 z m 147.5,1.1 c 8.6,-0.1 19.1,2 20.6,4.9 0.3,0.6 0.2,1.3 -0.3,1.9 -4.3,5.1 -28.6,0.5 -28.6,0.5 v -6.3 c 2.1,-0.6 5.1,-1 8.3,-1 l 0,0 z"
   id="path3" />
</svg>