<?xml version="1.0" standalone="no"?>
<!DOCTYPE svg PUBLIC "-//W3C//DTD SVG 20010904//EN"
 "http://www.w3.org/TR/2001/REC-SVG-20010904/DTD/svg10.dtd">
<svg version="1.0" xmlns="http://www.w3.org/2000/svg"
 width="1536.000000pt" height="1077.000000pt" viewBox="0 0 1536.000000 1077.000000"
 preserveAspectRatio="xMidYMid meet">
<metadata>
Created by potrace 1.16, written by Peter Selinger 2001-2019
</metadata>
<g transform="translate(0.000000,1077.000000) scale(0.100000,-0.100000)"
fill="#000000" stroke="none">
<path d="M10246 10594 c6 -246 13 -383 20 -431 l7 -43 -51 0 c-39 0 -67 -8
-119 -35 -37 -19 -102 -44 -143 -54 -120 -30 -381 -52 -424 -35 -20 8 -21 24
-1 24 23 0 18 13 -19 49 -23 22 -45 63 -67 120 -35 89 -39 130 -24 261 5 46 2
61 -15 89 l-22 34 -20 -44 c-34 -71 -35 -208 -4 -414 14 -93 26 -173 26 -176
0 -4 -27 -14 -60 -23 -51 -14 -65 -23 -87 -57 -34 -52 -72 -74 -168 -94 -44
-10 -145 -38 -225 -62 -85 -26 -167 -45 -199 -46 -51 -2 -56 0 -76 29 -11 17
-41 85 -65 152 -24 67 -48 118 -53 115 -18 -11 1 -174 32 -280 17 -56 31 -107
31 -112 0 -24 -348 -314 -483 -403 -148 -97 -186 -98 -312 -12 -71 49 -85 48
-85 -4 0 -32 16 -59 65 -113 61 -66 63 -77 18 -160 -48 -90 -97 -139 -159
-161 -27 -10 -83 -45 -124 -79 -82 -67 -123 -89 -170 -89 -24 0 -32 -6 -44
-34 -23 -56 -46 -62 -119 -29 -64 29 -152 36 -205 16 -21 -8 -15 -15 78 -87
55 -44 103 -82 105 -86 3 -4 -10 -23 -28 -42 -20 -22 -43 -65 -60 -115 -31
-89 -48 -108 -122 -146 -27 -14 -84 -51 -125 -83 -129 -98 -166 -105 -198 -39
-12 25 -25 45 -29 45 -5 0 -23 -9 -40 -20 -43 -26 -43 -54 1 -118 l35 -50 -29
-111 c-16 -61 -34 -119 -39 -129 -12 -23 -142 -148 -312 -300 l-27 -24 -128
26 c-155 32 -154 32 -154 3 0 -26 25 -52 83 -86 75 -45 85 -78 43 -128 -40
-47 -75 -121 -87 -184 -11 -57 -15 -62 -64 -93 -79 -51 -116 -87 -222 -217
-137 -168 -151 -191 -169 -289 -20 -106 -41 -141 -103 -171 -35 -18 -81 -61
-176 -167 -118 -131 -130 -142 -142 -125 -25 36 -55 63 -69 63 -8 0 -34 -10
-57 -21 l-42 -22 25 -16 c74 -49 105 -78 108 -104 4 -29 -57 -225 -89 -289
-10 -20 -45 -60 -78 -89 -32 -28 -64 -62 -70 -75 -16 -35 -48 -38 -136 -10
-96 31 -164 33 -195 8 l-22 -18 83 -74 c46 -41 85 -75 87 -76 3 -2 -14 -128
-34 -263 -6 -36 -96 -138 -195 -222 l-46 -38 -89 14 c-49 8 -124 15 -167 15
-65 0 -91 5 -145 29 -88 38 -132 47 -132 28 0 -30 40 -58 237 -162 l203 -107
0 -38 c0 -50 -19 -71 -162 -186 l-120 -97 -102 17 c-57 10 -143 34 -196 56
-52 20 -140 48 -195 60 -55 12 -122 31 -150 41 -54 20 -92 24 -113 10 -9 -5
18 -21 85 -50 54 -23 136 -68 182 -101 46 -33 93 -62 105 -66 30 -9 266 -137
266 -145 0 -26 -54 -79 -112 -109 -36 -19 -74 -42 -84 -52 -18 -15 -28 -12
-170 47 -270 113 -391 145 -542 145 -92 0 -173 -18 -207 -45 -19 -16 -19 -16
10 -11 46 7 185 -12 251 -34 67 -23 344 -170 449 -238 l70 -46 -50 -8 c-27 -4
-84 -15 -127 -24 -100 -22 -145 -15 -221 34 -70 45 -356 202 -368 202 -4 0
-10 -19 -14 -41 -7 -41 -7 -42 63 -108 39 -36 89 -90 112 -120 40 -53 85 -130
78 -135 -2 -2 -18 -8 -37 -15 -57 -19 -111 -13 -179 19 -71 33 -244 147 -340
223 -62 49 -63 49 -56 21 24 -100 70 -197 130 -271 19 -23 34 -43 34 -46 0
-15 -270 -26 -460 -17 -72 3 -184 -22 -212 -47 -24 -21 -23 -48 2 -84 l21 -28
-23 -5 c-119 -23 -226 -54 -288 -84 -94 -46 -201 -149 -249 -240 l-33 -63 -56
32 c-169 95 -305 203 -594 475 -294 277 -481 437 -541 462 -27 12 -28 11 -21
-10 11 -36 43 -70 119 -129 108 -84 320 -299 452 -459 66 -80 182 -210 257
-290 76 -80 170 -184 208 -233 42 -52 93 -102 127 -125 78 -52 81 -65 45 -214
-24 -103 -29 -143 -28 -248 1 -195 25 -263 187 -521 169 -269 253 -467 360
-844 99 -349 107 -383 108 -467 l1 -78 30 0 c23 0 28 4 24 18 -3 9 -26 132
-51 272 -52 285 -72 373 -115 493 -16 45 -48 143 -70 217 -67 218 -91 279
-143 359 -94 143 -137 289 -137 465 0 127 -15 121 150 58 227 -87 350 -79 585
41 101 51 128 60 173 61 59 0 67 -7 77 -66 4 -21 12 -38 18 -38 7 0 53 42 102
94 119 124 150 140 160 83 4 -21 -2 -59 -19 -113 -31 -96 -42 -169 -29 -177
14 -9 63 56 96 123 19 41 61 89 160 187 103 100 141 144 161 187 35 74 88 131
147 162 48 24 197 69 205 62 2 -2 -6 -40 -17 -84 -35 -135 -35 -132 -3 -165
28 -30 29 -32 26 -132 l-3 -102 36 40 c62 69 83 116 126 280 22 88 49 176 59
195 48 94 173 163 283 158 l60 -3 55 -158 c62 -177 78 -199 131 -177 38 15 40
28 29 146 -10 104 -4 239 14 314 36 150 151 276 336 369 l44 22 78 -84 c44
-46 112 -109 152 -140 71 -53 168 -110 176 -103 9 9 -29 76 -52 91 -37 25 -65
75 -77 139 -5 31 -26 89 -45 129 -28 58 -34 83 -34 135 0 75 12 107 78 204 60
89 116 146 160 165 30 12 35 12 45 -1 7 -8 82 -98 167 -201 l155 -186 9 46 c8
44 7 48 -31 93 -57 67 -63 83 -63 157 0 59 -4 74 -35 123 -104 169 -41 338
197 533 128 104 105 102 279 29 158 -66 230 -90 305 -99 35 -4 64 -6 64 -4 0
2 -44 32 -97 66 -54 35 -111 80 -126 101 -16 20 -69 69 -118 107 -53 42 -91
80 -95 94 -3 14 3 50 14 83 34 102 94 182 192 257 93 72 101 74 152 33 24 -19
72 -54 108 -78 36 -24 91 -67 122 -97 42 -39 64 -53 86 -53 52 0 58 58 9 91
-17 12 -51 38 -75 57 l-43 34 26 28 27 29 -67 62 c-83 78 -109 126 -109 199 0
67 15 98 106 212 148 187 214 211 403 148 101 -34 659 -140 736 -140 36 0 51
4 56 15 3 9 3 18 0 22 -10 9 -161 42 -267 58 -54 8 -119 24 -145 35 -28 12
-69 20 -101 20 -67 0 -108 20 -130 63 -9 17 -42 59 -74 92 -32 33 -67 78 -79
99 l-20 39 45 89 c26 48 58 96 73 106 14 10 83 48 152 84 l126 65 69 -51 c108
-79 240 -153 338 -190 149 -57 146 -58 72 32 -60 73 -126 122 -163 122 -15 0
-193 284 -193 308 0 35 19 75 64 132 24 30 51 71 61 90 46 91 137 158 237 175
31 5 37 3 43 -16 4 -11 38 -54 76 -94 67 -70 99 -123 99 -164 0 -15 11 -21 57
-29 71 -12 123 0 123 30 0 11 -22 44 -49 74 -38 42 -56 74 -81 143 -18 50 -41
98 -51 107 -28 25 -52 109 -47 163 7 66 34 118 98 183 75 75 225 172 290 188
75 18 121 8 250 -53 63 -30 183 -79 265 -108 141 -49 156 -52 250 -53 86 -1
214 18 202 30 -2 2 -78 15 -168 28 -180 27 -233 43 -306 96 -26 19 -64 42 -83
51 -50 23 -89 67 -164 184 -91 141 -89 153 28 233 70 49 95 73 140 137 19 28
87 64 119 65 16 0 319 -191 442 -279 28 -19 90 -72 139 -118 50 -46 101 -85
117 -88 34 -8 69 2 69 18 0 14 -91 100 -304 284 -152 132 -161 142 -219 241
-70 121 -78 166 -37 206 19 19 374 186 395 186 2 0 19 -28 37 -61 25 -48 40
-65 68 -76 67 -27 83 -38 124 -90 22 -29 60 -67 83 -84 40 -28 253 -124 253
-114 0 20 -125 192 -184 254 -41 43 -83 96 -95 119 -29 57 -101 223 -101 234
0 25 353 158 421 158 47 0 61 -12 166 -138 134 -162 206 -230 310 -294 68 -43
96 -55 116 -51 15 3 27 8 27 11 0 2 -42 57 -93 121 -116 144 -151 195 -187
275 -27 59 -59 181 -49 190 5 5 322 36 370 36 43 0 79 -32 169 -150 84 -111
222 -254 296 -306 34 -24 91 -57 126 -73 67 -31 187 -66 195 -57 10 10 -108
92 -159 110 -67 24 -161 117 -195 196 -14 30 -40 68 -59 83 -34 28 -34 29 -34
112 0 61 -4 86 -15 95 -22 18 -18 47 9 65 20 13 45 14 177 7 172 -9 189 -15
280 -87 77 -61 149 -159 263 -356 92 -161 97 -173 147 -350 28 -101 53 -186
55 -188 2 -3 9 0 14 5 7 7 2 52 -15 135 -32 156 -50 220 -81 281 -13 26 -24
55 -24 65 0 10 -16 52 -37 93 -32 67 -38 92 -54 225 -9 83 -16 152 -14 153 5
6 408 -138 423 -150 26 -22 127 -256 203 -470 40 -114 53 -171 76 -323 15
-102 30 -185 34 -185 12 0 19 73 19 190 0 81 -8 158 -25 255 -46 254 -62 468
-36 499 20 23 66 20 162 -13 182 -61 267 -123 329 -239 18 -34 37 -62 41 -62
21 0 86 -72 155 -174 71 -103 331 -432 423 -536 32 -36 42 -43 52 -32 18 17
-52 159 -116 232 -55 65 -103 147 -151 262 -19 46 -44 99 -55 119 -10 20 -19
49 -19 63 0 31 26 86 40 86 5 0 53 -39 106 -87 96 -87 132 -139 163 -235 7
-22 71 -107 153 -205 174 -208 246 -301 308 -402 54 -87 128 -232 154 -302 19
-49 70 -119 87 -119 14 0 3 92 -22 193 -11 43 -59 176 -108 295 -77 191 -101
238 -200 396 -94 148 -112 182 -106 204 l7 26 34 -42 c20 -23 95 -83 167 -134
189 -132 242 -186 369 -378 143 -213 248 -427 397 -803 18 -43 40 -96 51 -118
20 -39 76 -78 90 -62 16 16 50 146 50 188 0 24 -12 106 -26 182 -14 76 -34
196 -45 267 -20 133 -32 167 -75 226 -23 30 -25 42 -21 88 l6 54 -100 134 -99
134 26 40 c15 22 30 40 35 40 4 0 44 -16 88 -35 44 -19 115 -42 158 -51 146
-30 218 -76 449 -292 71 -66 88 -120 82 -261 -6 -149 -39 -219 -129 -276 -20
-13 -39 -33 -42 -44 -3 -12 -4 -21 -2 -21 1 0 38 12 81 26 129 42 165 72 196
164 8 25 27 62 41 84 41 60 43 93 12 280 -41 252 -38 247 -216 416 -82 79
-164 155 -182 168 -49 37 -156 84 -316 137 -79 27 -158 58 -175 69 -18 12 -43
45 -59 79 -31 64 -56 86 -239 212 -198 136 -217 204 -87 311 136 113 419 204
634 204 155 0 220 -21 478 -156 49 -25 90 -44 92 -42 3 2 0 20 -6 40 -11 43
-70 99 -173 166 -190 124 -434 182 -637 153 -153 -23 -386 -112 -564 -216 -74
-43 -107 -44 -171 -4 -98 63 -194 93 -344 108 -115 12 -143 29 -244 142 -77
88 -85 105 -65 156 6 15 16 82 24 149 7 66 21 138 31 160 20 45 43 223 43 340
1 66 -3 89 -24 131 -29 58 -59 88 -76 77 -9 -5 -10 -38 -6 -125 6 -112 5 -122
-24 -216 -17 -54 -53 -183 -79 -288 l-48 -190 -43 -7 c-24 -3 -87 -7 -140 -8
-80 -2 -103 2 -136 19 -43 21 -125 85 -212 163 l-52 47 -2 88 c-1 99 8 125 74
204 21 26 65 89 98 140 87 136 110 166 153 196 50 34 61 55 47 87 -21 44 -37
39 -107 -36 -37 -39 -111 -114 -166 -167 -54 -53 -118 -122 -142 -153 -66 -85
-124 -198 -131 -256 l-5 -49 -185 -6 c-203 -6 -281 2 -358 37 -89 41 -110 66
-123 145 -16 93 -15 156 2 189 16 30 89 102 218 211 72 61 86 77 78 91 -23 43
-56 33 -140 -44 -157 -144 -201 -199 -315 -395 -60 -103 -62 -105 -110 -119
-58 -15 -267 -28 -318 -18 -19 4 -54 20 -78 36 -44 30 -44 30 -196 30 l-152 0
-24 33 c-72 95 -109 226 -100 351 5 78 4 89 -21 138 -14 29 -37 66 -51 82
l-24 30 5 -170z"/>
</g>
</svg>
