<?xml version="1.0" standalone="no"?>
<!DOCTYPE svg PUBLIC "-//W3C//DTD SVG 20010904//EN"
 "http://www.w3.org/TR/2001/REC-SVG-20010904/DTD/svg10.dtd">
<svg version="1.0" xmlns="http://www.w3.org/2000/svg"
 width="1460.000000pt" height="1210.000000pt" viewBox="0 0 1460.000000 1210.000000"
 preserveAspectRatio="xMidYMid meet">
<metadata>
Created by potrace 1.16, written by Peter Selinger 2001-2019
</metadata>
<g transform="translate(0.000000,1210.000000) scale(0.100000,-0.100000)"
fill="#000000" stroke="none">
<path d="M14367 12064 c-3 -3 -3 -12 0 -20 3 -8 -1 -14 -10 -14 -8 0 -38 -33
-68 -72 -63 -86 -73 -94 -120 -102 -52 -8 -101 -45 -129 -99 -14 -27 -49 -78
-78 -115 -100 -127 -154 -207 -187 -277 -39 -81 -85 -215 -85 -248 0 -12 -7
-35 -15 -50 -8 -15 -17 -44 -21 -63 -6 -32 -3 -39 40 -79 69 -67 63 -80 -32
-75 -43 2 -73 -12 -116 -52 -11 -10 -38 -23 -60 -29 -27 -7 -60 -30 -100 -70
-32 -32 -73 -65 -90 -73 -17 -8 -47 -30 -66 -48 -20 -18 -53 -46 -75 -63 -75
-56 -472 -463 -519 -531 -26 -38 -72 -103 -102 -144 -90 -123 -95 -132 -88
-162 5 -23 2 -28 -14 -28 -18 0 -61 -46 -74 -80 -3 -8 -29 -46 -58 -85 -66
-89 -80 -116 -84 -165 -2 -23 -7 -44 -10 -48 -4 -4 -25 4 -47 16 -39 23 -41
23 -67 6 -15 -10 -35 -25 -45 -35 -11 -10 -33 -23 -51 -30 -17 -7 -49 -27 -72
-45 -23 -18 -61 -48 -86 -67 -153 -117 -320 -296 -404 -435 -36 -59 -83 -131
-105 -161 -21 -30 -39 -63 -39 -73 0 -16 -6 -17 -55 -12 -51 6 -58 4 -123 -35
-37 -22 -73 -41 -80 -41 -43 0 -264 -208 -332 -313 -22 -34 -45 -78 -50 -98
-6 -20 -19 -44 -31 -55 -12 -10 -28 -32 -36 -48 -14 -27 -17 -28 -68 -21 -50
6 -59 3 -153 -44 -55 -27 -106 -56 -113 -63 -8 -7 -31 -26 -53 -42 -59 -44
-144 -132 -162 -168 -30 -61 -79 -126 -106 -142 -14 -9 -48 -16 -76 -16 -55 0
-82 -7 -82 -22 0 -29 -80 -83 -147 -99 -26 -6 -79 -29 -116 -52 -63 -37 -76
-41 -175 -49 -204 -17 -368 -29 -532 -38 -242 -13 -371 -26 -405 -40 -16 -7
-49 -21 -72 -31 -24 -11 -46 -19 -51 -19 -4 0 -48 -20 -97 -45 -50 -25 -96
-45 -103 -45 -17 0 -183 -85 -237 -121 -22 -15 -58 -32 -81 -38 -26 -7 -53
-25 -76 -50 -32 -36 -40 -40 -84 -39 -81 1 -143 -42 -331 -229 -166 -166 -191
-186 -248 -202 -22 -6 -68 -29 -102 -51 -34 -22 -65 -40 -68 -40 -22 0 -196
-140 -291 -236 -99 -99 -127 -118 -188 -130 l-39 -7 7 39 c8 41 92 220 135
289 14 22 32 51 39 65 47 87 334 387 440 459 32 22 71 53 88 68 40 39 172 136
214 159 128 71 151 100 158 209 4 65 2 73 -22 102 -46 54 -79 66 -203 71 -110
4 -271 -17 -298 -39 -6 -4 -51 -19 -100 -34 -50 -14 -101 -30 -115 -36 -37
-15 -78 -75 -85 -124 -4 -23 -18 -55 -32 -71 -14 -16 -37 -45 -52 -64 -14 -19
-76 -85 -137 -145 -107 -107 -116 -113 -257 -184 -80 -40 -153 -71 -163 -69
-18 3 -27 23 -38 79 -7 31 -72 101 -115 123 -16 9 -62 20 -101 26 -39 6 -81
15 -93 22 -37 20 -486 48 -541 34 -11 -3 -52 -26 -91 -51 -60 -39 -77 -45
-122 -45 -61 0 -69 -14 -20 -35 33 -13 33 -14 32 -81 0 -61 -2 -70 -23 -80
-13 -7 -41 -28 -61 -48 -23 -22 -47 -36 -62 -36 -32 0 -81 -45 -105 -97 -10
-21 -33 -53 -51 -71 -18 -18 -33 -38 -33 -45 0 -14 -76 -91 -132 -134 -151
-115 -187 -140 -213 -153 -16 -8 -54 -32 -83 -53 -76 -57 -108 -57 -163 0
l-44 44 -97 -6 -98 -7 0 31 c0 17 -4 31 -9 31 -16 0 -71 -70 -77 -98 -3 -15
-7 -33 -10 -39 -4 -14 24 -17 42 -5 6 4 13 15 17 25 4 11 17 17 36 17 24 0 33
-6 45 -33 8 -17 16 -43 18 -57 2 -18 10 -26 28 -28 53 -7 136 -40 162 -64 28
-27 77 -48 110 -48 36 0 89 42 144 116 34 46 48 58 90 78 32 16 103 100 124
147 l12 27 35 -24 c50 -33 95 -40 147 -20 55 21 72 40 96 106 11 29 32 71 47
93 24 34 28 50 27 104 0 60 1 64 20 59 12 -3 29 -6 38 -6 10 0 53 -35 95 -78
48 -48 98 -87 130 -102 29 -14 53 -30 53 -36 0 -19 49 -35 70 -24 19 10 150
14 150 5 0 -3 -13 -35 -30 -70 -16 -35 -30 -72 -30 -82 0 -10 -18 -54 -40 -98
-22 -44 -40 -85 -40 -91 0 -5 -9 -29 -20 -52 -11 -22 -20 -45 -20 -50 0 -4 -9
-27 -20 -50 -11 -22 -20 -45 -20 -51 0 -5 -13 -50 -30 -99 -21 -62 -30 -109
-30 -153 l0 -63 -57 -58 c-53 -54 -61 -58 -103 -58 -78 1 -82 8 -77 162 3 73
8 150 12 171 7 35 4 40 -38 82 -43 43 -47 45 -103 45 -45 -1 -73 -8 -119 -30
-33 -17 -74 -30 -92 -30 -59 0 -210 -60 -220 -87 -3 -7 -11 -13 -17 -13 -7 0
-21 -8 -32 -18 -10 -10 -45 -30 -76 -45 -59 -29 -98 -67 -98 -96 0 -11 -15
-21 -45 -30 -30 -9 -63 -30 -95 -62 -28 -27 -54 -49 -59 -49 -4 0 -22 -13 -39
-30 -31 -29 -52 -82 -52 -131 0 -34 -22 -53 -52 -44 -48 14 -78 30 -78 42 0
21 -127 139 -174 161 -25 12 -50 22 -56 22 -5 0 -29 11 -53 24 -26 15 -52 23
-65 19 -12 -3 -44 6 -78 23 -75 37 -152 45 -488 50 -324 6 -365 0 -506 -72
-57 -30 -97 -44 -123 -44 -32 0 -46 -7 -78 -40 -29 -29 -48 -40 -69 -40 -27 0
-30 -3 -30 -30 0 -28 -3 -30 -35 -30 -19 0 -55 10 -80 22 -44 22 -45 22 -120
4 -41 -10 -92 -26 -114 -37 -22 -10 -45 -19 -51 -19 -6 0 -42 -16 -81 -36 -53
-28 -99 -66 -192 -158 -67 -66 -136 -139 -152 -161 -17 -21 -50 -60 -73 -85
-44 -45 -82 -107 -82 -133 0 -8 -11 -31 -25 -51 -13 -20 -22 -43 -19 -51 4 -8
2 -15 -3 -15 -5 0 -9 -15 -10 -34 -1 -49 -27 -96 -89 -162 -31 -33 -59 -68
-64 -80 -9 -23 -128 -183 -175 -234 -17 -19 -39 -47 -48 -62 -9 -15 -37 -52
-62 -82 -38 -47 -45 -63 -45 -99 0 -57 -37 -232 -60 -282 -10 -22 -29 -56 -42
-75 -13 -19 -30 -55 -38 -80 -7 -25 -21 -63 -31 -85 -9 -22 -22 -55 -29 -73
-7 -18 -30 -48 -52 -66 l-39 -34 25 -49 c19 -36 26 -63 26 -106 0 -51 4 -62
29 -88 52 -51 110 -36 133 34 8 25 24 45 43 55 44 25 54 42 55 92 0 25 7 58
15 74 19 35 39 169 30 196 -10 30 13 91 49 130 18 19 52 62 77 95 48 65 164
184 219 226 19 15 49 39 65 53 17 14 44 33 60 41 17 8 48 31 70 50 22 20 51
38 65 41 14 2 39 9 55 15 17 6 50 18 75 27 25 8 63 30 86 48 22 18 92 58 155
90 63 32 130 70 149 85 19 15 60 39 90 55 30 16 57 32 58 37 2 4 10 7 18 7 15
0 125 107 151 146 8 12 30 30 50 39 25 12 32 20 24 28 -16 16 -13 41 8 69 11
13 24 49 30 80 13 71 45 121 95 149 35 20 55 22 185 24 98 1 154 5 170 14 25
14 66 11 162 -10 49 -11 64 -10 105 3 49 16 51 15 180 -8 12 -2 39 -21 61 -42
64 -62 83 -72 141 -72 34 0 67 -7 94 -21 34 -17 47 -19 81 -11 21 6 45 8 53 5
21 -8 71 -89 78 -128 4 -19 13 -47 21 -62 8 -15 15 -54 15 -85 0 -50 4 -62 31
-93 l32 -36 -14 -76 c-9 -49 -23 -90 -39 -113 -23 -32 -25 -44 -25 -136 0
-114 4 -125 79 -224 56 -73 215 -232 257 -257 14 -9 33 -27 42 -42 34 -56 92
-112 119 -115 33 -3 58 -23 58 -45 0 -13 14 -16 84 -18 85 -2 159 -24 183 -55
5 -7 19 -51 31 -97 20 -84 20 -85 2 -112 -16 -21 -18 -33 -10 -59 18 -63 91
-145 140 -157 14 -3 35 -13 48 -21 19 -12 25 -12 45 0 12 8 40 18 62 21 48 8
125 45 163 79 80 70 112 81 153 50 13 -10 49 -30 80 -45 77 -37 85 -48 65 -88
-31 -63 -14 -137 47 -200 64 -68 84 -79 148 -79 44 0 64 -6 94 -25 20 -15 38
-25 39 -23 30 58 46 106 46 134 0 50 20 124 42 156 10 14 18 32 18 40 0 8 20
20 46 27 54 16 100 6 174 -39 25 -15 62 -36 83 -45 25 -12 45 -31 57 -55 31
-61 64 -65 154 -18 33 18 70 33 81 33 11 0 53 -11 93 -24 l74 -23 102 21 c157
32 185 28 244 -38 35 -40 37 -64 9 -123 -29 -59 -57 -141 -57 -163 0 -11 -12
-15 -42 -15 -57 0 -132 -21 -193 -53 -57 -31 -84 -33 -128 -12 -18 8 -70 24
-117 35 -47 12 -89 25 -95 30 -5 4 -27 6 -49 5 -50 -4 -160 19 -193 40 -67 44
-139 37 -200 -18 -33 -30 -35 -38 -45 -122 -8 -69 -8 -93 2 -109 7 -11 16 -50
20 -87 4 -36 16 -85 25 -107 l18 -41 25 50 c14 28 57 83 96 123 123 125 153
137 265 100 42 -14 81 -29 86 -33 6 -4 37 -16 70 -26 42 -13 68 -28 90 -53 59
-68 89 -92 129 -103 95 -26 179 -120 130 -147 -8 -5 -45 -36 -82 -69 -37 -34
-88 -80 -114 -103 -26 -23 -64 -67 -84 -98 -21 -32 -56 -82 -78 -112 -23 -30
-48 -68 -56 -85 -34 -71 -82 -134 -114 -149 -18 -9 -50 -35 -70 -58 -21 -24
-50 -57 -66 -74 -31 -33 -154 -98 -207 -109 -18 -4 -54 -17 -80 -31 -27 -13
-58 -24 -70 -24 -13 0 -71 -16 -130 -36 -137 -46 -181 -53 -383 -63 -165 -9
-248 -24 -296 -56 -56 -36 -39 -69 45 -85 30 -5 61 -16 69 -23 21 -17 521 -17
615 1 37 6 96 16 131 22 34 5 70 12 78 15 16 6 48 -18 48 -36 0 -5 -8 -12 -17
-15 -10 -3 -35 -14 -55 -24 -20 -11 -54 -20 -75 -20 -21 0 -60 -7 -88 -16 -27
-8 -90 -20 -140 -26 -119 -15 -547 -15 -704 0 -130 12 -151 8 -151 -27 0 -20
32 -51 70 -68 40 -19 119 -43 139 -43 10 0 47 -9 81 -20 57 -18 90 -20 365
-20 264 0 313 3 395 20 51 11 131 20 176 20 46 0 103 6 126 14 24 8 86 26 138
40 52 13 129 34 170 46 154 44 320 80 368 80 12 0 54 16 93 36 49 25 88 38
132 41 81 7 165 50 227 115 42 44 48 55 45 87 -5 52 22 88 119 164 20 15 36
34 36 42 0 8 5 15 10 15 6 0 10 5 10 10 0 6 18 27 41 47 48 44 79 100 79 145
0 31 17 65 47 97 8 7 22 29 32 50 26 49 44 68 134 134 42 32 77 63 77 68 0 6
39 50 88 99 117 118 125 144 118 378 -6 224 -21 388 -40 437 -8 22 -16 51 -16
65 0 14 -7 43 -15 65 -9 22 -19 69 -25 105 -5 36 -21 88 -35 115 -29 58 -30
65 -10 65 8 0 56 20 107 44 51 25 113 51 138 59 89 29 132 48 168 72 31 21 48
25 110 25 83 0 119 -15 146 -62 19 -32 16 -66 -15 -133 -54 -119 -60 -178 -29
-275 30 -95 25 -136 -25 -185 -38 -39 -60 -45 -170 -46 -70 -1 -101 -4 -85 -9
14 -4 103 -8 198 -9 l172 -1 80 -40 c44 -22 85 -40 91 -40 6 0 25 -6 42 -14
59 -26 92 -36 147 -46 30 -6 62 -12 70 -15 10 -3 19 7 28 33 27 76 26 81 -4
93 -62 24 -91 41 -128 75 -32 30 -37 40 -34 67 3 18 8 39 12 47 4 11 -4 21
-27 33 -41 22 -77 82 -77 127 0 30 37 117 64 150 6 8 18 29 26 45 8 17 27 50
43 74 40 59 57 129 57 236 0 83 2 93 30 135 48 72 40 118 -31 193 -32 33 -59
87 -59 117 0 21 129 157 192 201 15 11 36 36 46 56 17 32 51 61 157 130 170
111 206 133 250 148 72 25 97 25 199 -1 71 -18 118 -24 214 -24 l124 0 30 -30
c24 -25 29 -36 24 -58 -4 -15 -9 -60 -13 -100 l-6 -73 62 -59 c51 -49 61 -64
61 -92 0 -32 -10 -80 -24 -126 l-8 -23 39 19 c21 11 73 54 115 95 91 89 115
107 146 107 39 0 79 31 107 82 28 51 49 75 109 121 54 42 46 77 -20 77 -20 0
-24 5 -24 30 0 17 -1 30 -2 30 -2 0 -37 -9 -78 -20 l-75 -19 -46 29 c-25 17
-57 30 -70 30 -14 0 -33 6 -43 13 -16 12 -16 20 -5 98 12 84 12 85 -21 184
-25 75 -42 108 -68 134 l-34 33 -121 -6 c-67 -3 -148 -9 -181 -12 l-58 -6 6
134 c6 164 17 244 38 283 8 17 19 46 23 65 11 52 42 102 78 126 53 34 73 38
96 15 17 -17 21 -34 21 -88 1 -71 13 -102 83 -210 15 -24 27 -45 27 -47 0 -3
13 -25 29 -48 16 -24 33 -57 37 -73 10 -44 49 -116 78 -147 53 -55 168 -62
276 -16 72 30 86 42 139 111 41 53 44 63 52 140 4 45 10 90 14 99 11 27 -29
58 -76 58 -33 0 -46 6 -72 34 -18 19 -46 41 -63 50 -18 8 -80 63 -139 121 -60
58 -113 105 -120 105 -29 0 -43 36 -49 125 -4 50 -10 151 -16 225 -5 74 -12
161 -16 192 -6 53 -4 61 24 105 27 44 30 58 35 154 4 83 10 113 27 144 15 26
25 66 29 120 4 44 14 90 22 103 14 22 109 92 126 92 15 0 73 60 89 93 9 18 34
47 55 65 24 20 42 48 49 70 12 48 62 102 130 142 30 18 68 49 85 69 61 74 82
89 144 107 54 16 74 30 140 94 42 41 90 93 106 115 17 22 41 51 55 65 14 14
42 46 63 72 22 27 59 57 90 72 29 14 72 44 97 67 24 22 58 48 75 56 115 60
357 280 449 408 20 28 50 70 68 95 48 67 132 147 189 180 51 31 184 159 236
227 15 21 87 96 159 168 72 73 144 149 160 171 16 21 41 52 57 68 15 16 30 40
32 53 3 13 7 34 10 48 3 16 19 32 43 44 20 10 48 29 62 41 14 12 41 30 62 41
20 10 47 33 59 51 13 18 110 119 215 223 105 105 198 204 207 220 8 17 40 58
70 91 29 34 67 79 83 100 16 22 55 64 88 94 32 30 69 75 81 100 13 26 37 61
54 79 17 18 31 39 31 47 0 8 5 14 10 14 6 0 10 6 10 13 0 8 12 24 26 38 28 26
64 89 64 112 0 8 13 32 28 53 15 21 34 53 41 70 7 17 30 51 52 75 59 65 76
141 38 175 -35 32 -40 49 -24 86 21 51 35 59 79 47 20 -6 46 -7 57 -4 23 8
209 192 209 207 0 5 13 28 29 51 44 65 90 167 101 225 5 30 17 74 25 98 11 32
15 87 15 195 l0 150 -46 77 c-26 42 -53 82 -60 90 -22 22 -30 43 -44 119 -8
43 -11 106 -8 157 l6 86 -32 0 c-18 0 -35 -3 -39 -6z m-7947 -5606 c53 -12
100 -46 100 -71 0 -8 -34 -50 -75 -92 -41 -42 -88 -93 -103 -113 -15 -20 -37
-47 -49 -59 -12 -12 -34 -39 -50 -60 -15 -21 -55 -65 -89 -99 -33 -34 -74 -79
-90 -100 -16 -21 -90 -100 -165 -174 -145 -146 -221 -238 -256 -310 -34 -73
-73 -179 -73 -201 0 -11 -9 -37 -20 -59 -11 -22 -20 -55 -20 -74 0 -32 -2 -35
-39 -41 -30 -5 -52 -20 -93 -61 -71 -72 -84 -71 -92 9 -19 177 -19 198 -1 237
14 32 15 45 6 71 -15 44 -14 95 4 128 17 33 70 81 91 81 7 0 21 11 30 25 14
21 14 32 4 74 -13 54 -5 80 49 166 14 22 46 81 71 130 44 86 161 267 201 311
11 11 19 23 19 27 0 4 12 26 27 50 15 23 41 67 56 97 58 108 79 114 179 46 33
-22 79 -16 143 16 32 17 143 53 177 57 3 1 30 -4 58 -11z m-1950 -1766 l0
-319 -25 -11 c-14 -7 -49 -12 -78 -12 -39 0 -62 -6 -89 -25 -20 -14 -42 -25
-49 -25 -6 0 -28 19 -49 43 -38 42 -38 42 -71 28 -19 -8 -57 -16 -85 -18 l-51
-5 -6 45 c-4 25 -18 62 -32 83 -14 21 -23 44 -20 52 16 42 16 96 0 165 -10 41
-16 81 -12 89 8 22 70 48 121 50 25 1 46 6 46 10 0 4 6 8 14 8 7 0 45 16 82
35 38 19 76 35 85 35 9 0 43 17 75 39 71 45 80 49 117 50 l27 1 0 -318z m444
-16 c24 -19 60 -38 79 -41 34 -7 34 -7 41 -73 6 -56 4 -70 -12 -91 -34 -46
-52 -89 -52 -123 0 -41 -5 -48 -60 -92 -54 -43 -69 -44 -110 -9 -36 30 -36 27
-10 248 5 50 13 118 16 153 6 60 7 62 34 62 17 0 47 -14 74 -34z m2087 -2807
c35 -33 75 -67 89 -76 37 -21 74 -83 73 -120 -1 -47 -40 -108 -85 -133 -34
-19 -48 -21 -106 -15 -96 9 -101 11 -107 53 -3 20 -10 45 -15 54 -5 9 -6 62
-3 118 5 85 10 107 32 140 14 22 33 40 42 40 9 0 46 -27 80 -61z"/>
<path d="M4480 6510 c0 -5 5 -10 10 -10 6 0 10 5 10 10 0 6 -4 10 -10 10 -5 0
-10 -4 -10 -10z"/>
</g>
</svg>
