<?xml version="1.0" encoding="UTF-8" standalone="no"?>
<!-- Created with Inkscape (http://www.inkscape.org/) -->

<svg
   xmlns:svg="http://www.w3.org/2000/svg"
   xmlns="http://www.w3.org/2000/svg"
   version="1.1"
   width="396.22113mm"
   height="169.46661mm"
   viewBox="0 0 1403.9331 600.47225"
   id="svg3349">
  <defs
     id="defs3351" />
  <g
     transform="translate(412.52363,-260.02591)"
     id="layer1">
    <path
       d="m 536.1906,855.6265 c -0.51875,-6.1513 1.92035,-13.77584 5.55675,-17.3702 8.33033,-8.23403 9.74863,-14.34709 1.89548,-8.1698 -4.21496,3.3155 -12.5637,5.026 -23.9594,4.90885 -7.64309,-0.0786 -10.30393,0.42465 -13.85718,2.62068 -4.21111,2.60261 -4.39769,2.61672 -4.39769,0.3325 0,-1.31198 2.52366,-5.1342 5.60812,-8.49382 3.84833,-4.19162 5.20404,-6.5125 4.32039,-7.39615 -1.39404,-1.39403 -11.31091,-1.6137 -15.86601,-0.35143 -1.58719,0.43983 -2.8125,0.22417 -2.8125,-0.495 0,-1.97723 7.33211,-8.83338 8.60519,-8.04658 0.62306,0.38507 1.42814,-0.0694 1.78903,-1.00984 0.63742,-1.66109 8.611,-3.96866 11.82548,-3.42232 0.87709,0.14907 3.26387,-0.91751 5.30396,-2.37019 2.0401,-1.45269 4.27561,-2.29122 4.96781,-1.86342 0.69219,0.4278 1.25853,0.0884 1.25853,-0.75429 0,-0.84266 0.343,-1.18911 0.76221,-0.76989 1.6588,1.6588 15.44084,-7.67517 22.24413,-15.06496 1.44026,-1.56443 6.58893,-6.90818 11.44148,-11.875 10.98535,-11.24404 21.04805,-23.08821 21.58133,-25.40201 0.22229,-0.96447 0.89902,-1.75358 1.50386,-1.75358 0.60483,0 2.04119,-1.98405 3.1919,-4.409 1.15071,-2.42495 3.50296,-5.5187 5.22723,-6.875 1.72425,-1.3563 2.73707,-2.466 2.25071,-2.466 -0.48636,0 0.28152,-1.48211 1.70642,-3.29357 3.2249,-4.0998 3.2832,-9.35719 0.20043,-18.07324 -2.88323,-8.15185 -8.49081,-19.80255 -10.77323,-22.38319 -0.91207,-1.03125 -1.77108,-2.4375 -1.9089,-3.125 -0.13779,-0.6875 -2.14663,-4.21405 -4.46406,-7.83677 -2.31744,-3.62273 -4.21351,-6.8486 -4.21351,-7.16863 0,-1.32562 -13.63581,-17.99905 -20.00684,-24.46369 -10.46136,-10.61508 -13.05517,-13.74211 -17.56931,-21.18106 -2.28616,-3.76743 -5.40851,-8.53735 -6.93855,-10.59985 -4.90745,-6.61524 -13.0918,-25.82175 -17.45064,-40.95201 -3.91405,-13.5863 -7.27304,-22.17299 -8.67376,-22.17299 -0.3162,0 -2.28764,3.3929 -4.38098,7.53977 l -3.80606,7.53978 4.29624,9.05347 c 7.24429,15.26589 8.70796,22.08438 8.50424,39.61698 -0.0999,8.59375 -0.85659,19.84375 -1.68161,25 -1.85213,11.57526 -1.7645,53.59614 0.13785,66.11654 0.7723,5.08285 2.48109,10.75396 3.79736,12.60247 1.872,2.62899 2.2218,4.5636 1.6062,8.88345 -0.43284,3.0374 -0.64724,11.43926 -0.47645,18.67083 l 0.31051,13.14828 -6.16236,9.4398 c -10.50186,16.08725 -18.75085,21.24552 -57.13084,35.72509 -2.75,1.0375 -5.67849,2.44714 -6.50775,3.13255 -0.82925,0.68543 -2.03114,0.92273 -2.67086,0.52736 -0.63972,-0.39536 -1.85823,0.11876 -2.70781,1.14239 -0.84958,1.02368 -2.76313,1.86124 -4.25233,1.86124 -1.48921,0 -4.91426,1.125 -7.61125,2.5 -2.69699,1.375 -6.05029,2.50346 -7.4518,2.5077 -1.40151,0.004 -4.1631,0.84991 -6.13686,1.8793 -7.56207,3.94384 -24.71473,4.32626 -31.91468,0.71156 -2.47316,-1.24165 -8.27682,-2.9573 -12.89704,-3.81257 -4.6202,-0.85529 -10.52645,-2.28775 -13.125,-3.18325 -3.28163,-1.13093 -5.20183,-1.23398 -6.28712,-0.33742 -1.99863,1.65108 -2.0527,-0.52512 -0.0625,-2.51532 2.17629,-2.17629 -5.75113,-1.98199 -13.43051,0.32916 -3.34282,1.00604 -6.27853,1.62846 -6.52383,1.38316 -1.14166,-1.14166 9.32199,-9.5924 13.32523,-10.76183 2.47726,-0.72367 11.81661,-1.5807 20.75411,-1.90453 22.2574,-0.80645 37.1787,-3.34045 47.5,-8.06664 8.98865,-4.11597 18.53186,-8.00928 25,-10.19917 19.19282,-6.49804 22.21987,-9.92353 22.44446,-25.39871 0.0799,-5.50354 -0.26811,-11.97534 -0.77329,-14.38178 -0.50517,-2.40644 -1.24991,-6.62519 -1.65496,-9.375 -1.0487,-7.11923 -1.34666,-8.36882 -2.83143,-11.87466 -4.04022,-9.53976 -20.30978,-58.06446 -20.30978,-60.57484 0,-1.05883 -0.5625,-1.92516 -1.25,-1.92516 -0.6875,0 -1.25,-1.125 -1.25,-2.5 0,-1.375 -0.50143,-2.5 -1.11428,-2.5 -0.61285,0 -2.06528,-2.39063 -3.22762,-5.3125 -1.16234,-2.92188 -2.90435,-7 -3.87113,-9.0625 -2.68915,-5.73695 -10.31457,-28.47358 -14.4633,-43.125 -3.78661,-13.37264 -5.45233,-25.23115 -6.86791,-48.8935 -0.75001,-12.53698 -0.61322,-13.66286 2.48115,-20.42188 1.80121,-3.93436 4.68976,-8.83482 6.41902,-10.88991 1.72923,-2.05508 3.14407,-4.49023 3.14407,-5.41145 0,-0.92121 0.48815,-1.86242 1.08478,-2.0916 0.59661,-0.22916 1.47827,-1.68228 1.95922,-3.22916 0.74232,-2.38751 0.41327,-2.8125 -2.17761,-2.8125 -1.67864,0 -5.23217,0.7609 -7.89673,1.69089 -2.66456,0.92999 -10.46966,2.39982 -17.34466,3.26629 -6.875,0.86647 -14.1875,2.0343 -16.25,2.59518 -2.0625,0.56089 -7.96875,1.64355 -13.125,2.40593 -5.15625,0.76236 -13.94914,2.23991 -19.53976,3.28344 -5.59061,1.04352 -11.77811,2.10852 -13.75,2.36667 -1.97188,0.25814 -3.58524,0.54654 -3.58524,0.64088 0,0.0944 -2.53125,0.36445 -5.625,0.60023 -3.09375,0.23579 -11.50035,1.0814 -18.68134,1.87917 -15.92941,1.76963 -37.66902,1.40932 -49.44366,-0.81947 -4.8125,-0.91095 -11.2278,-1.65692 -14.25624,-1.65773 l -5.50623,-10e-4 2.37382,2.62303 c 1.3056,1.44268 6.03341,4.80652 10.50624,7.47519 4.47282,2.66868 9.6313,6.2013 11.46327,7.85028 4.53217,4.07942 17.87432,24.07683 20.58658,30.85545 1.21177,3.02853 4.30207,8.96118 6.86732,13.18367 2.56524,4.22249 5.04758,9.7214 5.51628,12.21981 0.51129,2.72539 1.57211,4.54257 2.65186,4.54257 2.31996,0 5.7646,8.20168 4.76603,11.34791 -0.48508,1.52832 -0.0886,2.67447 1.08043,3.12306 2.00319,0.7687 4.94658,6.82494 4.33076,8.91088 -0.20907,0.70816 0.9622,2.38549 2.60283,3.7274 2.32817,1.90426 2.98282,3.65545 2.98236,7.97778 -4.4e-4,3.9864 0.65223,5.99559 2.32954,7.17134 2.4346,1.7066 3.06516,8.54489 1.22136,13.24535 -0.67594,1.72319 0.0324,3.36643 2.57036,5.96271 4.33102,4.43057 4.8836,6.57323 5.17853,20.0797 0.19736,9.03833 0.66102,11.22279 2.90119,13.66824 5.86158,6.39876 6.6824,9.71304 4.60188,18.58155 -1.39415,5.9428 -1.64707,10.72328 -0.95651,18.07907 1.68006,17.89616 1.18789,19.78647 -9.03592,34.7042 -3.65792,5.3373 -6.65074,9.96702 -6.65074,10.28823 0,0.32121 -1.96875,3.66169 -4.375,7.42326 -2.40625,3.76158 -4.375,7.3648 -4.375,8.00719 0,0.64238 -2.67188,4.01016 -5.9375,7.48395 -4.56525,4.85628 -9.02498,7.76749 -19.29656,12.5964 -11.56394,5.43649 -14.75535,6.38473 -23.75,7.05668 -5.71502,0.42693 -10.95344,0.74377 -11.64094,0.70408 -20.3485,-1.17478 -27.59011,-1.71953 -27.99063,-2.10562 -0.26985,-0.26013 0.19333,-1.29705 1.02927,-2.3043 1.27265,-1.53345 0.84412,-1.93795 -2.63438,-2.4867 -4.8075,-0.7584 -12.27224,-0.42549 -12.27641,0.5475 -0.001,0.36567 -1.4091,0.78125 -3.12785,0.9235 -3.8264,0.31669 -4.05215,-1.94753 -0.62818,-6.30042 l 2.49683,-3.17421 -4.99683,0.67023 c -3.28028,0.43975 -4.99682,0.18404 -4.99682,-0.7446 0,-0.77803 0.5957,-1.41459 1.32378,-1.41459 0.72807,0 1.03103,-0.47364 0.67326,-1.05254 -0.35778,-0.5789 1.78001,-2.2664 4.75065,-3.75 4.88047,-2.43742 7.43641,-2.70146 26.51422,-2.73896 22.2451,-0.0437 43.51545,-3.0167 45.58916,-6.37204 0.55715,-0.90149 1.39179,-1.26026 1.85477,-0.79729 3.62137,3.62138 12.4254,-21.04772 11.25585,-31.53917 -0.34488,-3.09375 -0.95273,-9.5625 -1.35078,-14.375 -1.351,-16.33383 -3.1078,-23.50699 -7.34741,-30 -6.14441,-9.41025 -12.68758,-21.74679 -15.2487,-28.75 -1.25711,-3.4375 -2.9853,-6.8125 -3.8404,-7.5 -0.85511,-0.6875 -5.00921,-9.6875 -9.23135,-20 -4.22214,-10.3125 -8.74906,-21.1345 -10.05984,-24.04888 -1.31076,-2.91438 -2.38321,-5.84103 -2.38321,-6.50368 0,-2.10645 -2.85956,-7.57244 -3.96156,-7.57244 -0.58315,0 -0.72749,2.95312 -0.32077,6.5625 0.88613,7.86346 -1.21268,13.60549 -6.96767,19.0625 -2.17512,2.0625 -4.69045,5.49846 -5.58964,7.63548 -0.89917,2.13701 -2.81893,4.9886 -4.26614,6.33687 -1.81482,1.69076 -2.82965,4.53528 -3.27062,9.16735 -0.3827,4.02006 -1.56735,7.74845 -2.95118,9.28813 -1.2715,1.41468 -3.35798,4.4003 -4.63662,6.63467 -1.27865,2.23438 -2.80651,4.0625 -3.39525,4.0625 -0.58875,0 -0.70675,2.95313 -0.26224,6.5625 0.77943,6.32875 0.64888,6.71611 -3.66495,10.87496 -2.7895,2.68928 -4.22867,5.08279 -3.82358,6.35908 0.35726,1.12564 -0.6531,3.96629 -2.24525,6.31254 -1.59214,2.34626 -3.66565,7.07842 -4.6078,10.51592 -1.76164,6.42753 -2.79935,7.67874 -16.03083,19.32909 -4.26575,3.756 -7.7559,7.34082 -7.7559,7.96626 0,0.62545 -2.55967,4.72423 -5.68816,9.10841 -3.12849,4.38418 -5.23786,7.97985 -4.6875,7.99038 0.55036,0.01 0.37009,0.4324 -0.40061,0.9375 -0.7707,0.5051 -3.23388,4.57461 -5.47373,9.04336 -2.23985,4.46875 -4.70302,8.53826 -5.47372,9.04336 -0.7707,0.5051 -0.9849,0.92698 -0.47602,0.9375 1.4512,0.03 -3.1961,5.01914 -4.67526,5.01914 -0.72567,0 -2.19637,0.98437 -3.26822,2.1875 -1.07186,1.20312 -4.63702,4.4375 -7.92257,7.1875 -3.28555,2.75 -6.89297,5.88544 -8.01647,6.96763 -2.7715,2.6696 -26.154369,10.62555 -40.167739,13.66696 -3.78125,0.82066 -12.78125,3.48378 -20,5.91805 -20.77505,7.00562 -28.21934,5.82568 -20.57344,-3.26095 2.07316,-2.46383 2.67485,-3.91645 1.62205,-3.91606 -3.39085,10e-4 -15.41584,5.27701 -19.7286596,8.65557 -5.44216,4.26325 -9.30511,6.3438 -11.77854,6.3438 -2.87527,0 -3.63945,-4.45112 -1.48082,-8.62545 2.53911,-4.9101 2.4888,-5.12455 -1.20255,-5.12455 -1.72808,0 -4.1257504,-0.61439 -5.3281704,-1.3653 -2.05693,-1.28459 -7.13728,-0.021 -18.23291,4.53475 -2.0901,0.85819 -2.23374,0.52655 -1.40538,-3.2449 1.23246,-5.61141 4.62317,-9.97546 10.63956,-13.69379 2.73287,-1.68901 4.96886,-3.57311 4.96886,-4.18688 0,-0.61875 -2.83016,-0.74052 -6.3522,-0.27331 -6.19829,0.82223 -6.331,0.77313 -5.47715,-2.02646 0.48128,-1.57801 1.77895,-3.89713 2.88373,-5.15362 2.25081,-2.5599 11.51714,-7.09049 14.50204,-7.09049 1.08766,0 1.9435804,-1.06386 1.9435804,-2.41576 0,-2.03368 1.77549,-3.31275 6.25,-4.50254 0.34375,-0.0914 2.20849,-0.82217 4.14387003,-1.62394 1.95791997,-0.8111 9.72088957,-1.46231 17.49999957,-1.46801 17.69666,-0.013 34.19247,-1.88203 44.60613,-5.05405 8.67634,-2.64284 11.45516,-4.5432 15.98706,-10.93309 3.79338,-5.34858 14.01086,-26.41802 14.02064,-28.91189 0.004,-1.08114 0.85805,-3.59628 1.89736,-5.5892 1.0393,-1.99291 1.64319,-3.86995 1.34195,-4.17118 -0.68941,-0.6894 2.34798,-11.13885 6.091179,-20.95534 1.57294,-4.125 4.1541,-11.71875 5.73592,-16.875 1.58183,-5.15625 3.33313,-10.21875 3.89178,-11.25 0.55865,-1.03125 1.80276,-4.125 2.76468,-6.875 3.3916,-9.6961 8.8797,-22.50497 9.81889,-22.91666 0.5228,-0.22918 0.95054,-1.4948 0.95054,-2.8125 0,-1.31772 0.65625,-2.39584 1.45834,-2.39584 0.80207,0 1.14877,-0.30955 0.77042,-0.6879 -0.37833,-0.37834 0.67036,-4.70258 2.33047,-9.6094 1.66009,-4.90683 3.24296,-11.62446 3.51747,-14.9281 0.27451,-3.30362 0.80725,-6.99503 1.18385,-8.2031 0.8261,-2.64997 -0.34186,-4.74423 -9.31764,-16.70729 -8.35817,-11.13991 -21.36366,-31.43054 -25.364059,-39.57197 -9.102,-18.52395 -15.89551,-27.19602 -25.93359,-33.10474 -4.37986,-2.57813 -9.04712,-4.6875 -10.3717,-4.6875 -5.97885,0 -29.75431,-15.45308 -41.85151,-27.20178 -7.88629,-7.65909 -10.00721,-10.41507 -15.6566096,-20.34451 -0.99238,-1.74421 -2.70114,-7.65046 -3.79725,-13.125 -1.83573997,-9.16861 -2.44515997,-10.37273 -7.72649,-15.26621 -3.15346,-2.92187 -6.7256504,-5.3125 -7.9382004,-5.3125 -1.21255,0 -4.27686,-1.40625 -6.80957,-3.125 -2.53273,-1.71875 -5.16488,-3.125 -5.84924,-3.125 -0.68435,0 -3.6125,-1.2374 -6.50699,-2.74977 -2.89449,-1.51238 -6.02182,-2.59985 -6.94965,-2.41663 -1.79062,0.35363 -9.69797,-3.03064 -10.64172,-4.55455 -0.52776,-0.85219 -5.11018,-0.97389 -18.37313,-0.48795 -3.72018,0.1363 -6.61972,1.06409 -8.34302,2.66958 -2.48839,2.31828 -3.00114,2.3538 -8.86055,0.61375 -6.54671,-1.94418 -11.67804,-1.8242 -12.3826,0.2895 -0.51432,1.54294 -12.837031,-0.64528 -12.837031,-2.27957 0,-0.5964 -1.125,-1.08436 -2.5,-1.08436 -1.375,0 -2.5,0.63995 -2.5,1.4221 0,1.01414 -2.0619,1.13455 -7.1875,0.41971 -3.95312,-0.55131 -10.05272,-0.88929 -13.55465,-0.75105 -4.6774,0.18464 -7.14932,-0.38202 -9.31441,-2.13521 -2.22726,-1.80353 -3.80061,-2.1418 -6.4404,-1.38473 -3.35437,0.96203 -5.92555,0.40048 -26.00304,-5.67906 -3.09375,-0.9368 -8.71875,-2.36777 -12.5,-3.17993 -3.78125,-0.81217 -8.84375,-2.12538 -11.25,-2.91824 -2.41557,-0.79594 -7.57536,-1.15135 -11.52077,-0.79358 -7.04276,0.63867 -80.22868,-0.67305 -98.47922,-1.76504 -36.4528,-2.18109 -41.3599,-2.62523 -51.2315,-4.63698 -6.7634,-1.37833 -19.2838,-8.30483 -22.0795,-12.21469 -0.7898,-1.10456 -2.8086,-3.59259 -4.4862,-5.52892 -1.6776,-1.93635 -4.969,-7.56135 -7.314,-12.5 -2.3451,-4.93867 -5.2514,-9.71665 -6.4584,-10.61775 -5.2457,-3.9161 -8.6221,-15.7424 -8.6326,-30.23663 0,-5.15625 0.5668,-10.86404 1.2679,-12.68397 0.7011,-1.81993 0.9955,-3.58813 0.6543,-3.92933 -0.8655,-0.86555 8.237,-9.54675 12.03,-11.47321 8.0378,-4.08231 19.9137,-5.97394 43.125,-6.86906 23.3065,-0.89879 23.9732,-1.00117 35.7042,-5.48232 6.5748,-2.51153 14.43604,-4.80548 17.46944,-5.09766 3.0334,-0.29218 5.69661,-1.07525 5.91825,-1.74015 0.22164,-0.6649 1.501,-0.92176 2.84304,-0.57081 1.34425,0.35152 2.44006,0.0112 2.44006,-0.7577 0,-0.76769 1.6543,-1.39579 3.67623,-1.39579 2.02192,0 4.04757,-0.60085 4.50143,-1.33521 0.45388,-0.73438 1.66283,-1.0138 2.68658,-0.62095 1.02375,0.39285 2.47741,0.33354 3.23036,-0.13181 0.75295,-0.46535 4.78031,-0.91443 8.9497,-0.99797 4.16939,-0.0835 10.67445,-0.84232 14.4557,-1.68621 3.78125,-0.84389 9.6875,-1.57614 13.125,-1.6272 3.4375,-0.0511 15.81248,-1.16345 27.49994,-2.47194 13.6851,-1.53215 21.39829,-1.93402 21.66666,-1.1289 0.57417,1.72248 4.38731,1.57128 6.20461,-0.24602 4.7409,-4.7409 54.114,-6.02134 115.253791,-2.98898 11.82862,0.58667 15.40008,1.24404 20.16184,3.71105 3.18275,1.64895 8.80775,3.3737 12.5,3.83276 7.79599,0.96929 19.62746,3.15841 22.33816,4.13312 1.03125,0.37082 5.4109504,0.7325 9.7326704,0.80373 5.23122003,0.0863 8.21554,0.70836 8.92833,1.86122 0.70997,1.1483 2.16864,1.45611 4.32984,0.91368 2.0301496,-0.50953 3.2591596,-0.30039 3.2591596,0.55462 0,0.9052 3.93731,1.33805 11.5625,1.27112 10.37527,-0.0911 15.70307,0.10513 34.87425,1.28403 3.04709,0.18737 6.08596,0.004 6.75306,-0.40893 0.6671,-0.41228 6.26916,-1.05915 12.44904,-1.43747 6.17989,-0.37833 13.2049,-1.27958 15.61115,-2.00278 2.40625,-0.72321 9.156249,-1.27799 14.999999,-1.23283 5.84375,0.0451 12.03125,-0.27282 13.75,-0.70659 1.71875,-0.43378 7.34375,-0.95663 12.5,-1.1619 10.02016,-0.3989 18.28656,-1.35888 27.76898,-3.22479 3.24168,-0.63789 6.70396,-0.84897 7.69393,-0.46907 0.98999,0.37988 5.93145,-0.54128 10.98103,-2.04703 5.04959,-1.50575 13.96231,-3.1879 19.80606,-3.73811 5.84375,-0.55021 14.15141,-1.62196 18.46146,-2.38167 5.39454,-0.95086 8.58251,-0.982 10.23065,-0.1 1.65588,0.88619 3.47952,0.85746 5.91355,-0.0932 3.02391,-1.18102 22.82303,-1.66781 42.89434,-1.0546 3.09375,0.0945 11.25456,-0.14075 18.13515,-0.52282 6.88057,-0.38207 13.22631,-0.25206 14.10164,0.28892 0.87532,0.54098 4.80826,0.48517 8.73986,-0.12403 8.0573,-1.24849 22.22157,-1.45185 24.01287,-0.34476 0.64974,0.40156 6.12103,0.99916 12.15842,1.32801 26.34806,1.43512 84.22908,7.21187 86.53407,8.63643 0.66051,0.40823 7.5554,1.08172 15.32196,1.49663 7.76657,0.41492 15.1054,1.26154 16.30853,1.88137 1.38605,0.71409 3.17347,0.59932 4.87865,-0.31327 1.86792,-0.99969 6.1696,-1.14679 14.0625,-0.48088 6.25424,0.52766 24.30885,1.16432 40.12135,1.4148 31.00999,0.49123 34.34269,0.66374 36.25,1.8764 1.27864,0.81295 7.35222,1.9253 16.25,2.97611 7.69647,0.90893 11.49206,1.78291 25,5.75655 6.875,2.02243 13.625,3.88139 15,4.13104 5.39996,0.98043 17.72442,4.54817 21.875,6.33247 2.40625,1.03444 7.1875,2.66075 10.625,3.61403 3.4375,0.95329 12.15625,3.39253 19.375,5.42053 7.21875,2.02801 15.09375,3.76531 17.5,3.86069 5.16987,0.20491 15.02285,2.62556 17.05912,4.19104 0.78878,0.60641 5.28878,1.4182 10,1.80397 4.71124,0.38579 10.53463,1.52585 12.94088,2.53348 2.40625,1.00762 7.0884,2.35186 10.40475,2.9872 3.31637,0.63533 7.81637,1.97666 10,2.98072 2.18362,1.00405 7.57487,2.73669 11.9805,3.8503 7.31637,1.8494 20.24987,7.8466 31.36475,14.5438 2.40625,1.44988 7.24025,3.62723 10.74225,4.83858 3.50187,1.21135 10.25187,4.1785 15,6.59367 9.85387,5.01237 26.92937,11.81156 40.1952,16.0051 4.9844,1.57563 9.0625,3.29108 9.0625,3.8121 0,0.52102 2.1094,1.3117 4.6875,1.75706 2.5782,0.44535 10.0965,2.72084 16.7075,5.05664 6.6109,2.3358 12.6639,4.2469 13.4512,4.2469 0.7871,0 3.8156,1.07181 6.73,2.3818 2.9143,1.30999 7.7485,2.73233 10.7426,3.16075 2.994,0.42843 7.2127,1.73828 9.375,2.91076 2.1621,1.1725 4.775,2.14079 5.8062,2.15175 1.8724,0.0199 14.9388,4.81878 19.0455,6.99483 1.1939,0.63256 3.022,1.15011 4.0625,1.15011 1.0407,0 1.892,0.5625 1.892,1.25 0,0.6875 1.0149,1.25 2.2553,1.25 5.9202,0 17.6659,10.64699 15.6005,14.14126 -0.3304,0.55895 0.2895,1.99991 1.3775,3.20215 2.0574,2.27334 6.9641,19.81155 6.9975,25.01157 0.025,3.91593 -2.514,12.62728 -4.5866,15.73566 -0.9043,1.35609 -1.6442,3.40642 -1.6442,4.5563 0,1.14986 -1.4762,3.41532 -3.2806,5.03436 -1.8044,1.61904 -4.6495,4.21638 -6.3225,5.77188 -3.1172,2.89827 -14.6548,9.28407 -17.7477,9.8229 -0.9493,0.16536 -2.3274,0.90215 -3.0625,1.6373 -0.7351,0.73513 -2.746,1.33662 -4.4687,1.33662 -2.7556,0 -17.0618,5.79835 -26.5608,10.76516 -1.8249,0.95416 -4.1635,1.73484 -5.1972,1.73484 -1.0336,0 -4.6031,1.36226 -7.9321,3.02724 -7.7597,3.88094 -13.1274,6.15771 -21.6779,9.19522 -5.8838,2.09019 -8.9788,2.868 -16.875,4.24091 -0.6875,0.1195 -4.625,1.55359 -8.75,3.18678 -4.125,1.63319 -10.87495,3.80775 -14.99995,4.83235 -4.125,1.0246 -8.625,2.15153 -10,2.50429 -1.375,0.35275 -3.65663,0.88504 -5.07038,1.18283 -1.41375,0.29782 -9.0075,2.28432 -16.875,4.41447 -7.8675,2.13015 -16.75412,4.38291 -19.74787,5.00613 -10.41063,2.16719 -29.60175,8.62074 -36.83475,12.38671 -4.00288,2.08416 -11.98638,5.73844 -17.74113,8.12063 -5.75475,2.38219 -14.35773,6.31603 -19.11772,8.74185 -4.76,2.42583 -8.99299,4.41059 -9.40663,4.41059 -0.41365,0 -5.35637,2.25 -10.98383,5 -5.62748,2.75 -10.76753,5 -11.42234,5 -0.65483,0 -3.24029,1.57159 -5.74548,3.4924 -6.85002,5.25219 -11.04405,6.81601 -11.9498,4.45569 -1.00966,-2.63117 -0.91593,-3.2105 0.38895,-2.40404 1.0737,0.66359 2.63037,-1.81812 3.35027,-5.34119 0.42585,-2.08404 4.48445,-6.66578 5.23756,-5.91267 0.30554,0.30554 1.82661,-0.81601 3.38017,-2.49234 1.55357,-1.67632 3.46328,-3.04786 4.24382,-3.04786 0.78054,0 1.41916,-0.5625 1.41916,-1.25 0,-0.6875 0.88165,-1.25 1.95924,-1.25 1.29191,0 1.72738,-0.74506 1.27853,-2.1875 -0.69811,-2.24343 0.89786,-5.86735 2.65414,-6.0267 2.28443,-0.20728 7.85809,-3.53723 7.85809,-4.69477 0,-0.69174 0.34821,-0.90948 0.77381,-0.48389 0.42559,0.4256 1.59594,-0.0484 2.60078,-1.05315 1.00482,-1.00483 2.2628,-1.5576 2.79547,-1.22839 1.3259,0.81945 11.32994,-7.88381 11.32994,-9.85674 0,-0.87248 1.125,-2.88347 2.5,-4.46886 1.375,-1.58539 2.5,-2.4915 2.5,-2.01357 0,0.47792 2.51443,-0.6046 5.58763,-2.4056 3.07318,-1.80102 6.16693,-2.91653 6.875,-2.47893 0.70805,0.4376 1.28737,0.13976 1.28737,-0.66186 0,-0.80163 0.84375,-1.13374 1.875,-0.738 1.03125,0.39572 1.875,0.21827 1.875,-0.39433 0,-0.61261 1.8425,-1.72192 4.0945,-2.46515 2.252,-0.74322 6.01038,-3.56946 8.35188,-6.28051 2.3415,-2.71105 4.78062,-4.60576 5.42025,-4.21047 0.63962,0.3953 1.56,0.0763 2.04525,-0.70905 0.9115,-1.47474 15.34487,-5.10825 21.96312,-5.52908 2.7745,-0.17643 3.8485,-0.92845 4.1285,-2.89085 0.5955,-4.17414 14.27912,-9.20184 25.0815,-9.21563 4.27825,-0.005 6.38438,-0.81858 9.731,-3.75697 2.88037,-2.52899 5.6,-3.75 8.3525,-3.75 2.24487,0 4.77025,-0.68881 5.61225,-1.53069 0.84188,-0.84189 4.42537,-1.82626 7.9635,-2.1875 3.53812,-0.36125 6.639,-1.28235 6.891,-2.04689 0.3255,-0.98753 -6.70438,-1.4053 -24.276,-1.44263 -13.60388,-0.0289 -29.5155,-0.72078 -35.35925,-1.53748 -5.84375,-0.81669 -19.34375,-1.95046 -30,-2.51949 -10.65625,-0.56902 -25.5625,-1.65372 -33.125,-2.41043 -23.19484,-2.32093 -25.78394,-2.36009 -36.81691,-0.55689 -5.8757,0.9603 -15.18309,1.98702 -20.68309,2.28159 -5.5,0.29457 -13.0299,1.13517 -16.73311,1.868 -3.70322,0.73282 -9.8287,1.33241 -13.6122,1.33241 -7.83457,0 -8.28877,0.37986 -14.19884,11.875 -3.84596,7.48044 -9.57909,15.66226 -19.26965,27.5 -5.92435,7.23704 -15.5612,21.64626 -15.5612,23.26744 0,0.60916 0.51663,1.10756 1.14805,1.10756 0.63142,0 2.42986,2.10937 3.99651,4.6875 1.56667,2.57812 3.15941,4.96875 3.53945,5.3125 1.78089,1.61082 5.2261,10.8192 5.90729,15.78901 0.41683,3.04109 1.2418,5.82833 1.83329,6.19389 0.59147,0.36555 1.07541,1.84765 1.07541,3.29355 0,1.4459 1.32762,4.92833 2.95026,7.73872 2.32289,4.02322 10.16095,27.56361 11.27405,33.85983 0.1215,0.6875 0.54928,1.8125 0.95051,2.5 0.40124,0.6875 1.1025,2.80976 1.55836,4.71614 0.45586,1.90637 3.06487,7.1194 5.79782,11.58451 3.82777,6.25384 4.969,9.3936 4.969,13.67078 0,4.21734 0.71677,6.24082 2.98102,8.41548 5.22295,5.01632 9.97663,13.91557 10.87729,20.36309 0.83561,5.98189 -1.19834,18.06844 -3.9282,23.34297 -0.59577,1.15113 -1.73152,5.93238 -2.5239,10.625 -1.79569,10.63458 -6.70535,23.339 -11.36025,29.39623 -1.95029,2.53781 -3.54992,5.35031 -3.55477,6.25 -0.005,0.89969 -6.4858,14.5733 -14.40212,30.3858 -7.91631,15.8125 -14.62597,30.02045 -14.91036,31.57323 -0.92602,5.05633 -2.07426,7.80177 -3.26295,7.80177 -0.64116,0 -1.16576,0.80357 -1.16576,1.78571 0,0.98215 -0.73451,2.52903 -1.63224,3.4375 -0.89774,0.90849 -2.97006,4.04241 -4.60519,6.96429 -1.63511,2.92187 -3.57247,5.33018 -4.30525,5.35178 -1.70646,0.0504 -4.62301,4.17346 -7.67546,10.85087 -1.94529,4.25543 -2.8863,5.12205 -4.90686,4.51901 -5.35235,-1.59738 -5.7695,-7.16538 -1.26221,-16.84753 3.44948,-7.40989 3.95788,-11.06163 1.54001,-11.06163 -1.8192,0 -5.02865,3.41904 -6.28656,6.69708 -0.46672,1.21626 -1.42899,1.85266 -2.13838,1.41423 -0.7094,-0.43842 -1.13524,-0.12553 -0.94634,0.69532 0.37492,1.62902 -6.7227,4.69625 -11.21902,4.84827 -1.54688,0.0522 -2.81634,0.51698 -2.82104,1.0326 -0.005,0.51563 -2.11116,2.34375 -4.68102,4.0625 -2.56985,1.71875 -6.18338,4.75465 -8.03003,6.74645 l -3.35756,3.62146 -0.41081,-4.87146 z"
       id="path3368"
       style="fill:#000000" />
  </g>
</svg>
