<?xml version="1.0" standalone="no"?>
<!DOCTYPE svg PUBLIC "-//W3C//DTD SVG 20010904//EN"
 "http://www.w3.org/TR/2001/REC-SVG-20010904/DTD/svg10.dtd">
<svg version="1.0" xmlns="http://www.w3.org/2000/svg"
 width="1536.000000pt" height="921.000000pt" viewBox="0 0 1536.000000 921.000000"
 preserveAspectRatio="xMidYMid meet">
<metadata>
Created by potrace 1.16, written by Peter Selinger 2001-2019
</metadata>
<g transform="translate(0.000000,921.000000) scale(0.100000,-0.100000)"
fill="#000000" stroke="none">
<path d="M12440 9200 c-112 -9 -150 -27 -236 -110 -40 -39 -77 -70 -83 -70
-22 0 -10 39 29 91 45 60 47 67 24 76 -19 7 -161 -22 -216 -44 -58 -23 -122
-104 -188 -238 -156 -318 -220 -705 -145 -880 15 -36 18 -38 25 -19 10 25 47
40 115 48 66 8 100 43 111 117 l8 54 8 -65 c9 -82 23 -94 97 -85 76 9 142 31
186 60 20 14 40 23 44 20 3 -4 7 -40 9 -81 6 -116 1 -121 -145 -126 -94 -3
-124 -7 -146 -22 -19 -13 -65 -23 -155 -33 -88 -9 -139 -20 -167 -35 -32 -16
-68 -22 -187 -29 -125 -7 -155 -12 -200 -33 -33 -15 -103 -33 -183 -45 -274
-44 -321 -54 -362 -71 -48 -21 -63 -44 -63 -97 0 -58 -14 -73 -34 -35 -8 16
-28 40 -43 52 -26 20 -35 21 -110 15 -75 -6 -82 -5 -92 14 -14 26 -14 67 0 94
15 28 28 37 56 37 47 0 104 32 129 72 l25 39 102 -7 c81 -5 110 -3 139 9 71
30 70 30 73 390 3 360 9 410 69 532 34 69 99 155 117 155 19 0 8 -33 -46 -135
-88 -168 -89 -179 -90 -550 0 -353 3 -373 53 -361 15 4 65 13 112 21 47 8 86
14 87 15 15 4 26 110 33 320 9 269 23 379 65 523 33 113 75 197 126 248 22 22
38 43 35 46 -12 13 -123 5 -170 -12 -26 -9 -70 -30 -96 -46 -47 -29 -90 -38
-90 -19 0 17 -77 11 -142 -11 -110 -37 -193 -110 -247 -216 -41 -83 -51 -123
-61 -260 -12 -158 -40 -229 -70 -174 -15 29 -12 187 6 282 8 46 31 118 50 160
58 131 48 151 -53 104 -86 -39 -130 -73 -174 -134 -54 -75 -79 -161 -89 -308
-8 -122 -29 -212 -55 -233 -22 -18 -28 21 -20 144 13 214 40 322 102 407 18
26 33 55 33 64 0 59 -243 -91 -314 -194 -36 -52 -52 -107 -70 -248 -17 -126
-40 -218 -57 -229 -23 -14 -30 24 -25 126 4 98 13 141 70 345 15 54 7 85 -21
85 -9 0 -54 -18 -99 -40 -153 -74 -223 -197 -244 -427 -10 -117 -30 -176 -57
-171 -55 10 15 388 92 502 14 21 23 42 20 47 -10 15 -114 10 -150 -7 -25 -11
-43 -35 -76 -97 -25 -47 -50 -82 -59 -82 -16 0 -17 11 -5 93 l8 52 -29 -1
c-16 0 -65 -8 -109 -18 -88 -19 -80 -11 -84 -98 -1 -12 -22 -45 -47 -75 -122
-140 -224 -485 -212 -714 3 -64 9 -91 25 -112 27 -37 51 -40 59 -8 8 34 40 42
110 28 59 -12 79 -9 88 15 4 9 9 79 12 157 3 78 8 152 10 166 5 24 6 24 19 7
26 -36 39 -159 40 -374 0 -116 -3 -214 -6 -217 -3 -3 -21 2 -40 11 -46 23
-216 31 -242 11 -25 -19 -36 -81 -37 -212 0 -60 -2 -107 -5 -105 -2 3 -11 74
-19 158 -8 84 -16 155 -19 157 -2 2 -52 -1 -112 -7 -60 -6 -149 -9 -198 -7
-78 3 -91 6 -107 26 -23 27 -32 28 -56 1 -52 -57 -129 -66 -176 -19 -32 33
-48 38 -48 16 0 -37 -81 -34 -337 9 l-33 6 -1 -103 c-1 -57 -4 -146 -8 -198
l-6 -95 -18 160 c-10 88 -21 174 -23 191 l-6 32 -158 3 c-148 4 -160 6 -191
28 -29 22 -39 23 -123 19 -85 -5 -115 -13 -198 -56 -5 -2 -8 3 -8 12 0 29 -41
40 -149 38 -130 -3 -141 4 -141 90 0 45 5 63 20 78 18 18 28 20 119 14 99 -7
99 -7 116 19 10 16 29 95 45 191 15 90 31 170 36 177 18 29 22 -61 12 -249 -5
-106 -7 -199 -5 -207 5 -10 14 -9 46 7 22 11 74 23 115 27 98 9 118 27 141
124 9 40 22 88 28 107 l11 35 7 -40 c4 -22 8 -75 8 -117 1 -78 13 -127 34
-140 18 -11 195 -10 216 2 30 15 47 74 77 260 l29 175 7 -85 c3 -47 6 -149 7
-228 l1 -144 28 6 c15 2 54 8 87 11 78 8 118 21 140 45 12 13 25 66 41 160 41
245 112 421 252 624 l75 109 -59 -7 c-241 -28 -315 -81 -444 -323 -87 -162
-110 -186 -110 -114 0 72 57 177 173 316 37 44 67 84 67 89 0 5 -51 6 -122 2
-204 -12 -217 -23 -353 -296 -48 -96 -96 -187 -107 -202 -66 -94 -40 68 37
228 25 51 69 125 100 165 30 41 55 79 55 85 0 15 -98 23 -162 13 -113 -18
-206 -94 -291 -237 -47 -81 -100 -137 -118 -126 -28 17 53 173 139 265 45 49
62 73 54 81 -16 16 -121 38 -184 38 -54 0 -60 -3 -109 -46 -28 -25 -58 -44
-67 -42 -27 5 -25 35 2 63 14 14 26 31 26 36 0 7 -41 10 -118 7 -112 -3 -122
-5 -167 -33 -27 -17 -102 -90 -169 -164 -121 -134 -161 -170 -173 -157 -16 16
63 120 205 268 46 47 79 88 75 91 -22 14 -232 39 -267 33 -56 -11 -121 -77
-229 -236 -51 -73 -98 -136 -104 -138 -25 -7 -13 51 23 117 20 36 66 106 102
154 49 67 62 91 52 97 -28 17 -180 43 -225 38 -35 -4 -60 -17 -106 -53 -33
-26 -62 -45 -64 -43 -2 2 1 23 7 46 14 56 6 63 -79 69 -132 10 -199 -27 -343
-189 -180 -202 -203 -262 -225 -595 l-7 -93 121 0 c66 0 142 5 170 11 44 9 51
14 60 42 12 38 34 153 57 297 23 148 57 249 94 285 16 16 33 25 37 21 8 -8
-13 -90 -47 -181 -35 -97 -50 -189 -57 -362 l-6 -163 165 0 166 0 6 31 c3 17
6 95 6 172 0 77 2 138 5 135 3 -2 12 -53 20 -113 31 -220 43 -235 193 -235 96
0 96 0 158 305 23 118 23 119 19 45 -9 -131 -6 -376 4 -403 13 -34 23 -34 58
3 28 30 72 44 167 56 63 7 99 43 117 116 11 47 14 50 20 28 9 -31 11 -302 3
-362 l-6 -44 -32 32 c-40 40 -99 57 -201 57 -90 1 -144 -18 -165 -58 -17 -32
-30 -32 -30 -1 0 13 -9 34 -19 47 -19 24 -22 24 -238 27 -231 4 -385 -8 -435
-34 -37 -19 -58 -12 -58 20 0 48 -20 55 -148 53 -105 -2 -121 0 -161 21 -54
28 -60 22 -62 -63 -1 -96 -11 -106 -38 -41 -35 86 -54 96 -177 96 -91 0 -107
3 -124 20 -25 25 -26 25 -33 2 -5 -22 -45 -32 -121 -32 -45 0 -91 9 -173 35
-16 5 -24 3 -28 -9 -17 -52 -14 -50 -33 -34 -37 33 -173 54 -269 42 -40 -5
-61 -13 -78 -32 -21 -22 -26 -24 -55 -13 -50 17 -90 13 -145 -14 -27 -14 -72
-28 -98 -31 -39 -6 -51 -12 -62 -35 -8 -15 -15 -39 -15 -54 0 -39 -16 -30 -35
19 -10 25 -28 54 -40 66 l-23 22 -47 -21 c-51 -22 -90 -28 -117 -17 -12 6 -18
0 -23 -23 -8 -39 -36 -41 -64 -5 -24 31 -26 43 -10 78 12 27 54 46 99 46 15 0
47 13 71 30 38 26 50 29 86 24 38 -6 44 -4 51 17 5 13 12 87 15 164 7 172 30
286 53 263 13 -13 2 -219 -22 -397 l-6 -43 73 61 c77 64 94 71 114 44 8 -11
25 -16 49 -15 79 3 101 37 109 172 7 101 21 185 37 210 9 13 11 13 20 0 11
-16 7 -83 -14 -287 -7 -62 -9 -113 -5 -113 4 0 50 11 101 25 108 29 143 31
152 9 3 -8 10 -13 16 -9 17 10 57 158 64 235 8 90 29 173 62 248 47 106 92
145 124 107 11 -13 8 -21 -18 -48 -86 -88 -160 -440 -104 -490 26 -24 178 -24
210 -1 34 23 40 48 62 237 33 286 14 257 375 591 l40 37 -150 -4 c-82 -2 -157
-7 -167 -11 -9 -4 -22 -22 -29 -39 -8 -18 -54 -74 -104 -125 -84 -86 -125
-112 -125 -78 0 21 62 100 144 184 l71 74 -115 -4 c-142 -5 -175 -19 -296
-127 -151 -133 -184 -153 -184 -112 0 29 83 115 173 178 l82 58 -54 3 c-59 3
-196 -12 -251 -28 -31 -9 -62 -26 -112 -62 -13 -10 -23 -8 -51 6 -28 16 -49
18 -128 14 -105 -6 -179 -31 -222 -76 -35 -37 -127 -191 -127 -213 0 -28 15
-31 93 -19 108 16 168 50 268 152 91 92 116 107 105 63 -11 -42 -88 -164 -139
-220 -55 -62 -99 -82 -211 -96 -135 -17 -201 -44 -264 -105 -30 -30 -58 -54
-63 -54 -5 0 -9 18 -9 40 0 53 -15 58 -103 32 -40 -12 -97 -26 -127 -32 -33
-7 -69 -22 -90 -39 -41 -33 -83 -47 -165 -56 -138 -14 -145 -16 -160 -46 -8
-15 -15 -46 -15 -68 0 -52 -14 -59 -39 -18 -11 18 -29 41 -40 51 -20 18 -22
17 -68 -10 -40 -23 -58 -28 -108 -26 -67 1 -75 -5 -75 -60 0 -57 -7 -67 -44
-61 -18 3 -61 -4 -103 -17 -56 -17 -76 -19 -92 -10 -12 6 -21 15 -21 20 0 6
-4 10 -9 10 -5 0 -12 -21 -16 -47 -8 -60 -26 -89 -60 -97 -39 -10 -92 -46
-171 -115 -77 -68 -101 -75 -106 -33 -5 43 -21 30 -53 -44 -39 -89 -55 -113
-61 -96 -12 26 -47 10 -107 -51 -34 -34 -84 -96 -112 -136 -27 -41 -55 -76
-60 -78 -6 -2 -15 7 -20 19 -9 20 -18 23 -64 23 -31 0 -56 5 -58 11 -4 11 23
36 81 77 27 18 46 71 46 124 0 39 11 47 36 28 35 -26 63 -17 121 38 65 61 115
132 168 237 66 132 92 230 61 230 -20 0 -133 -85 -197 -150 -75 -75 -100 -125
-113 -235 l-11 -89 -23 97 c-22 88 -25 96 -41 84 -10 -6 -80 -66 -155 -132
l-138 -120 6 -85 c14 -198 19 -457 9 -475 -10 -17 -11 -17 -23 4 -19 36 -38
173 -46 330 l-7 144 -102 -104 c-133 -135 -135 -140 -111 -332 9 -78 27 -198
40 -267 13 -69 22 -127 20 -129 -2 -2 -12 7 -23 20 -25 31 -56 135 -80 271
-21 117 -38 163 -61 163 -25 0 -96 -121 -130 -223 -25 -73 -34 -123 -39 -202
l-6 -105 -20 59 c-11 33 -26 61 -32 64 -14 4 -80 -93 -118 -174 -36 -76 -47
-142 -33 -208 11 -57 6 -92 -12 -81 -45 28 -100 -52 -108 -156 -4 -59 -1 -77
22 -128 35 -79 34 -85 -11 -78 -46 8 -55 2 -79 -43 -25 -48 -26 -191 -1 -237
23 -43 21 -62 -7 -73 -46 -17 -58 -111 -31 -245 20 -97 38 -138 91 -208 24
-33 44 -63 44 -68 0 -23 -43 -5 -79 32 l-40 42 -7 -37 c-8 -48 13 -419 31
-539 20 -130 32 -163 71 -207 34 -38 35 -39 15 -50 -31 -16 -28 -111 9 -254
58 -224 142 -408 228 -498 45 -48 56 -65 59 -100 6 -57 83 -244 141 -340 128
-217 353 -458 426 -458 40 0 50 -15 50 -78 1 -52 6 -67 41 -118 50 -75 487
-519 620 -631 113 -94 228 -157 320 -174 33 -6 109 -9 168 -7 130 5 121 -3
-30 -27 -62 -10 -113 -19 -113 -21 0 -14 450 -252 660 -349 603 -280 1229
-508 1468 -535 56 -6 96 -19 165 -53 132 -64 261 -92 552 -122 212 -21 287
-33 393 -61 163 -42 320 -49 1177 -48 1169 0 1416 14 1870 105 436 88 648 145
805 217 36 16 93 37 128 46 115 29 389 166 455 228 36 33 45 37 76 32 63 -10
352 108 599 244 148 81 172 97 277 181 50 40 202 147 340 239 355 236 730 544
985 809 199 206 283 394 311 692 21 225 -21 460 -87 485 -9 3 -30 -2 -48 -13
-39 -24 -92 -28 -228 -17 -175 14 -252 -15 -432 -158 -59 -48 -126 -96 -148
-109 l-40 -22 7 -73 6 -72 -33 2 c-30 3 -33 1 -38 -34 -8 -42 -23 -64 -51 -73
-31 -10 -22 -46 31 -114 27 -36 51 -73 53 -83 10 -35 -31 -19 -91 37 -63 58
-84 65 -120 39 -44 -31 -20 -103 84 -250 57 -81 124 -195 124 -213 0 -24 -74
54 -178 189 -99 128 -199 240 -214 240 -4 0 -8 -10 -8 -21 0 -12 -16 -36 -35
-55 -19 -18 -35 -37 -35 -43 0 -5 20 -33 45 -62 29 -34 45 -62 45 -79 0 -15
10 -35 21 -46 31 -27 79 -95 79 -111 0 -30 -33 -8 -121 82 -91 94 -129 115
-129 75 0 -26 -3 -25 -55 10 -24 17 -46 30 -49 30 -20 0 1 -58 45 -125 28 -43
55 -89 60 -102 18 -48 -25 -23 -101 59 -79 83 -100 92 -100 39 0 -42 -20 -54
-75 -45 -46 6 -47 6 -40 -16 4 -12 51 -95 104 -185 95 -160 131 -238 117 -253
-11 -10 -45 33 -136 173 -112 171 -166 237 -192 233 -12 -2 -36 -25 -56 -53
-45 -66 -41 -106 22 -214 73 -124 107 -238 58 -199 -18 16 -88 123 -157 243
-66 115 -76 120 -130 61 -47 -51 -85 -61 -85 -24 0 14 22 42 58 76 35 33 49
52 37 49 -11 -2 -49 -13 -84 -23 l-63 -18 5 -58 c3 -39 22 -95 57 -175 120
-272 158 -387 174 -523 5 -53 4 -51 -33 50 -21 58 -50 134 -65 170 -45 103
-183 372 -209 404 -31 38 -56 30 -109 -37 -39 -50 -40 -54 -35 -107 3 -30 20
-98 37 -150 59 -177 81 -273 86 -370 5 -111 1 -106 -51 65 -84 273 -177 505
-204 505 -9 0 -28 -24 -46 -58 -28 -53 -32 -57 -62 -54 -30 2 -33 0 -33 -28 0
-16 18 -106 39 -199 67 -284 85 -401 61 -386 -5 3 -30 72 -55 153 -94 300
-139 405 -182 425 -36 16 -39 1 -6 -36 33 -38 59 -94 48 -105 -4 -4 -19 8 -34
25 -15 18 -31 33 -34 33 -4 0 -7 -17 -8 -37 0 -21 -4 -47 -8 -57 -6 -16 -11
-12 -32 30 -34 70 -35 47 -5 -238 30 -293 33 -338 24 -338 -5 0 -8 2 -8 4 0 9
-113 429 -136 504 -13 45 -28 82 -33 82 -5 0 -11 -14 -15 -30 -10 -53 -79
-140 -110 -140 -3 0 -6 16 -6 36 0 27 7 43 30 64 17 15 30 31 30 34 0 3 -16 6
-35 6 -55 0 -58 -15 -51 -335 l5 -280 -43 211 c-57 278 -84 360 -109 335 -13
-13 -11 -80 3 -117 15 -38 15 -156 1 -182 -16 -30 -39 -28 -52 5 -7 18 -6 43
2 81 14 68 1 88 -34 54 -21 -21 -22 -31 -22 -160 0 -75 3 -180 7 -232 l7 -95
-39 180 c-45 214 -64 289 -91 361 -28 74 -43 70 -35 -7 l7 -61 -25 6 c-14 3
-37 9 -51 12 -44 11 -50 -23 -37 -219 21 -300 12 -521 -20 -489 -5 5 -14 90
-19 188 -13 263 -28 402 -51 469 -30 91 -37 98 -38 34 0 -65 -15 -115 -36
-123 -19 -7 -28 17 -21 59 7 41 -15 77 -34 58 -20 -20 -23 -114 -9 -318 9
-138 9 -198 1 -218 -26 -67 -59 16 -76 193 -14 132 -37 268 -54 313 -9 22 -9
22 -20 -5 -7 -19 -22 -30 -51 -39 -23 -7 -46 -21 -51 -31 -14 -27 -28 -195
-30 -363 0 -82 -4 -161 -8 -175 -7 -24 -8 -23 -14 11 -4 19 -16 121 -27 225
-31 295 -38 312 -123 299 -48 -8 -82 -27 -96 -54 -6 -10 -15 -81 -21 -157 -10
-132 -30 -248 -49 -282 -5 -9 -8 60 -7 169 1 171 -1 188 -23 246 -13 35 -27
60 -32 57 -5 -3 -9 -32 -9 -64 0 -69 -11 -83 -29 -34 -18 50 -41 58 -106 39
-30 -8 -56 -19 -59 -24 -3 -4 -10 -61 -15 -127 -5 -65 -17 -152 -26 -192 -27
-118 -44 -90 -45 73 -1 110 -14 252 -24 262 -3 4 -17 -4 -30 -17 -19 -17 -32
-21 -53 -17 -15 4 -43 9 -61 13 -73 15 -119 -60 -152 -251 -25 -141 -47 -225
-60 -225 -20 0 -22 52 -9 237 15 231 12 248 -46 248 l-40 0 0 -46 c0 -54 -11
-70 -66 -94 -52 -24 -69 -14 -88 51 -12 43 -15 46 -26 30 -14 -18 -32 -90 -62
-247 l-18 -94 -11 165 c-12 190 -25 243 -57 238 -18 -2 -22 -10 -23 -46 -4
-93 -28 -116 -120 -110 l-49 3 60 32 60 31 -37 7 c-50 9 -89 -5 -110 -41 -9
-16 -26 -81 -37 -144 -25 -139 -43 -202 -58 -207 -21 -7 -26 67 -14 242 6 96
7 183 3 196 -8 21 -10 20 -52 -25 -24 -25 -46 -46 -50 -46 -4 0 -12 11 -18 24
-13 28 -44 51 -85 60 -46 11 -71 -25 -91 -130 -22 -121 -61 -230 -103 -288
-19 -26 -36 -46 -39 -43 -2 2 3 24 11 48 25 71 46 225 48 355 1 67 -1 125 -5
129 -3 4 -18 -1 -32 -10 -23 -15 -41 -17 -126 -11 -114 9 -101 21 -120 -113
-12 -81 -49 -179 -60 -161 -4 7 -5 63 -2 126 4 96 2 117 -12 139 -12 18 -24
25 -39 23 -18 -2 -22 -9 -19 -36 5 -69 -56 -47 -67 25 -6 38 -7 38 -55 39 -34
1 -53 7 -62 18 -12 17 -13 17 -22 -1 -6 -10 -31 -79 -57 -153 -100 -288 -163
-340 -95 -80 37 144 38 177 6 190 -28 10 -37 23 -45 64 -9 41 -41 56 -119 56
-68 0 -76 -14 -14 -24 42 -6 92 -39 92 -61 0 -19 -25 -25 -75 -18 -40 5 -45 4
-45 -14 0 -26 19 -43 48 -43 32 0 24 -19 -19 -42 -26 -14 -45 -17 -81 -12 -47
6 -48 5 -98 -46 -28 -29 -53 -50 -55 -48 -6 6 31 176 49 226 8 23 27 57 41 76
46 61 29 84 -72 96 -67 8 -102 19 -135 42 -26 19 -53 -13 -89 -105 -59 -153
-148 -311 -165 -294 -13 13 13 94 82 252 36 83 66 154 67 159 3 15 -125 57
-153 50 -14 -3 -38 -17 -54 -32 -22 -21 -27 -23 -23 -9 15 40 19 95 8 101 -33
21 -126 -76 -196 -204 -48 -87 -107 -165 -125 -165 -33 0 -11 65 74 217 48 85
88 168 89 184 2 27 -4 32 -112 87 -72 37 -123 57 -140 55 -20 -2 -45 -28 -108
-113 -154 -205 -373 -426 -373 -376 0 14 73 116 173 243 140 177 197 281 175
321 -17 33 -38 31 -77 -7 -39 -39 -61 -45 -80 -22 -10 11 -9 24 0 55 7 23 9
44 6 48 -11 10 -80 -41 -232 -172 -171 -148 -270 -225 -291 -225 -25 0 11 50
124 173 220 237 268 329 176 333 -16 1 -34 2 -41 3 -7 0 -31 26 -53 56 -22 30
-48 55 -58 55 -18 0 -49 -23 -170 -128 -85 -73 -158 -122 -184 -122 -31 0 -29
2 100 161 31 38 42 59 39 76 -4 21 0 23 32 23 40 0 61 14 61 41 0 22 -20 29
-85 29 -47 0 -53 2 -59 24 -8 31 -26 37 -71 25 -50 -14 -52 -7 -10 25 115 88
-77 39 -228 -58 -208 -132 -455 -211 -700 -223 -80 -4 -127 -2 -127 4 0 5 60
19 133 31 307 51 550 160 844 379 110 82 177 122 188 111 2 -2 -7 -21 -20 -41
-29 -42 -32 -68 -7 -90 27 -24 183 -97 208 -97 13 0 52 -23 88 -50 77 -59 105
-72 129 -58 14 8 20 4 28 -21 11 -30 38 -47 114 -71 50 -16 85 -39 85 -55 0
-20 32 -42 72 -49 29 -5 48 -19 85 -61 26 -30 53 -55 60 -55 7 0 23 16 35 35
13 19 26 35 29 35 4 0 10 -16 13 -35 11 -59 120 -127 229 -142 35 -5 41 -2 82
41 25 25 46 46 49 46 2 0 7 -24 10 -53 11 -85 29 -105 136 -150 143 -59 151
-59 191 0 l34 48 3 -30 c12 -118 41 -140 173 -133 86 5 88 5 115 -23 29 -31
84 -52 178 -68 134 -24 150 -14 196 134 40 128 41 130 35 70 -3 -27 -8 -97
-12 -154 l-6 -104 24 5 c13 3 50 16 82 27 50 19 62 20 85 9 31 -15 51 -63 51
-125 1 -24 5 -43 10 -43 21 0 55 176 66 346 7 99 16 137 29 116 12 -19 26
-149 26 -243 0 -65 4 -101 14 -114 13 -19 16 -18 81 12 37 17 73 29 80 27 14
-6 25 -49 25 -95 0 -63 35 -19 64 82 9 30 22 109 29 174 l13 120 6 -141 c4
-89 12 -155 22 -177 16 -40 21 -42 164 -52 122 -9 131 2 162 220 l18 120 1
-80 c2 -119 17 -270 30 -293 10 -19 13 -19 52 -5 23 7 76 18 118 23 65 8 80
14 102 39 15 16 30 46 33 67 14 81 -68 304 -127 348 -24 18 -48 21 -225 27
-274 11 -420 30 -459 61 -7 6 -63 14 -125 19 -159 12 -185 17 -343 59 -187 50
-267 68 -348 76 -57 6 -70 4 -88 -11 -19 -18 -21 -18 -77 37 -65 64 -117 93
-183 103 -65 10 -75 -5 -61 -92 6 -37 10 -68 8 -70 -1 -1 -17 29 -34 67 -52
111 -165 190 -295 205 -68 8 -128 31 -190 73 -51 34 -105 57 -114 48 -4 -4 -6
-25 -4 -47 2 -38 -26 -139 -40 -139 -3 0 -9 33 -12 73 -6 85 -22 130 -66 179
-31 36 -51 46 -129 67 -29 8 -63 31 -110 75 -92 86 -150 126 -183 126 -38 0
-106 57 -387 323 -285 272 -399 366 -429 355 -5 -2 -13 35 -19 81 -10 76 -14
86 -42 110 -22 18 -66 93 -140 241 -118 234 -135 277 -152 390 -12 80 -23 121
-64 237 -49 138 -75 358 -97 808 l-11 250 92 165 c274 487 424 614 1164 985
176 88 322 166 324 173 2 7 -5 12 -18 12 -32 0 -60 18 -60 40 0 29 14 32 61
10 58 -26 100 -25 152 3 42 22 46 22 437 21 217 0 508 -6 645 -12 986 -46
2909 -65 4280 -42 568 10 722 18 875 46 109 19 333 85 630 184 129 43 285 88
345 100 61 12 148 35 195 52 412 142 604 201 1060 323 157 42 337 93 400 112
192 59 211 63 316 63 254 0 544 -102 614 -216 11 -17 20 -41 20 -54 0 -12 15
-35 36 -53 39 -35 64 -84 64 -127 0 -51 -59 -148 -149 -242 -100 -106 -189
-171 -295 -218 -42 -18 -76 -36 -76 -40 0 -3 49 -28 110 -55 60 -27 109 -50
107 -51 -1 -1 -55 5 -120 13 -152 21 -197 12 -298 -59 -164 -115 -514 -511
-706 -798 -164 -245 -178 -395 -52 -562 88 -117 282 -258 356 -258 20 0 23 4
21 28 l-3 27 160 0 c187 1 218 9 490 127 345 151 537 253 720 383 27 19 79 45
115 56 82 27 267 119 343 171 37 25 57 46 57 58 0 14 7 20 21 20 34 0 61 19
126 87 54 58 64 65 88 59 25 -6 27 -5 21 19 -20 82 -21 77 7 70 76 -19 306
190 343 311 17 57 37 84 143 193 52 53 92 105 111 145 41 83 87 272 101 414
22 217 -4 548 -57 730 -30 104 -55 147 -93 160 -26 9 -28 15 -33 75 -7 78 -33
130 -128 251 -208 265 -452 498 -672 643 -129 85 -201 116 -376 163 -82 22
-182 53 -223 70 -40 17 -98 40 -128 51 -192 68 -478 2 -711 -167 -56 -41 -76
-50 -78 -39 -5 21 26 66 67 101 19 16 80 52 135 81 l101 52 -315 -1 c-173 0
-353 -4 -400 -8z m30 -244 c0 -13 -14 -68 -31 -122 -16 -55 -33 -121 -36 -149
l-6 -50 45 48 c43 45 47 47 100 47 68 0 98 21 160 114 50 74 87 116 105 116
24 0 14 -39 -28 -106 -22 -37 -41 -79 -42 -93 -2 -27 -3 -27 68 -19 29 3 30 1
27 -31 -3 -34 -2 -35 18 -16 40 36 120 18 120 -27 0 -16 -6 -18 -37 -16 -32 3
-38 0 -38 -17 0 -42 114 -25 179 26 14 11 43 46 63 77 45 68 114 142 133 142
25 0 0 -60 -65 -156 -36 -52 -65 -102 -65 -111 0 -13 9 -14 56 -8 51 6 59 4
83 -18 34 -32 108 -57 171 -57 44 0 50 3 62 28 9 19 21 27 38 27 21 0 25 -5
26 -30 0 -16 8 -45 18 -64 19 -37 183 -211 198 -211 5 0 46 29 91 64 89 69
174 119 188 110 15 -9 -26 -58 -87 -105 -66 -50 -114 -112 -114 -144 0 -32 24
-49 60 -42 28 6 29 5 18 -18 -6 -13 -8 -31 -4 -41 11 -29 153 -13 385 45 112
28 222 51 245 51 l41 -1 -37 -19 c-20 -11 -108 -43 -195 -71 -320 -103 -399
-137 -362 -159 7 -5 24 -7 36 -4 18 5 21 2 16 -16 -7 -26 28 -67 75 -87 51
-22 205 -26 446 -14 120 6 221 10 222 8 2 -2 -89 -14 -204 -26 -261 -29 -421
-55 -439 -74 -13 -12 -12 -19 6 -48 l21 -34 -22 -17 c-22 -16 -22 -16 32 -32
77 -22 234 -46 305 -46 83 -1 215 -26 234 -44 14 -15 12 -16 -19 -17 -57 -3
-167 2 -300 11 -156 12 -194 5 -198 -34 -6 -47 7 -93 33 -124 27 -33 24 -42
-15 -42 -28 0 -52 -20 -64 -54 -10 -30 13 -97 55 -156 21 -31 39 -59 39 -63 0
-15 -41 -6 -105 24 -45 22 -70 28 -77 21 -13 -13 -7 -43 12 -52 47 -22 55 -29
58 -54 4 -32 -7 -33 -54 -1 -39 26 -69 32 -79 15 -10 -17 39 -91 112 -171 95
-102 123 -138 123 -155 0 -25 -46 6 -159 108 -151 136 -150 136 -127 39 8 -33
11 -61 8 -61 -4 0 -19 14 -34 32 -14 18 -30 30 -34 26 -4 -4 -9 -30 -12 -56
-6 -62 10 -95 93 -199 73 -91 85 -124 36 -98 -16 8 -60 41 -98 73 -81 69 -113
92 -130 92 -23 0 -14 -27 22 -70 19 -23 35 -46 35 -50 0 -9 -39 -18 -100 -22
-28 -2 -36 -8 -38 -27 -5 -30 29 -65 189 -196 129 -106 173 -150 163 -166 -8
-14 -50 12 -220 137 -87 64 -163 118 -169 120 -12 5 -90 -164 -81 -174 3 -3
18 0 32 6 23 11 25 10 19 -7 -9 -28 23 -85 94 -166 143 -165 3 -100 -161 74
-113 120 -258 350 -258 409 0 19 5 22 39 22 83 0 124 80 73 145 -12 15 -21 29
-20 30 2 2 26 -2 54 -8 43 -9 59 -8 95 6 59 23 159 103 159 128 0 11 19 41 43
67 52 56 77 92 77 109 0 7 -10 22 -22 33 -23 21 -23 22 -4 36 11 8 26 14 33
14 24 0 83 34 88 51 11 32 -14 58 -88 92 -114 53 -123 58 -105 53 37 -11 224
-17 236 -8 9 6 17 54 25 150 13 171 2 302 -30 348 -12 16 -24 51 -28 79 -9 66
-27 98 -94 168 -51 53 -354 306 -419 350 -19 12 -37 16 -64 11 -31 -5 -37 -2
-43 16 -6 20 -30 33 -133 76 -50 21 -72 47 -72 87 0 41 -19 32 -72 -33 -24
-30 -52 -56 -62 -58 -9 -2 -28 7 -42 21 -32 33 -94 47 -199 47 -77 0 -88 -3
-109 -23 l-23 -23 -31 27 c-61 55 -220 80 -242 39 -6 -11 -15 -20 -20 -20 -16
0 -52 81 -47 106 5 29 -6 39 -63 59 -55 20 -80 42 -80 72 0 29 18 30 70 3 78
-40 104 -23 170 110 56 111 80 137 80 86z m-375 -65 c-14 -133 -69 -311 -97
-311 -26 0 18 242 63 348 27 63 43 46 34 -37z m-2784 -562 c-30 -112 -95 -294
-106 -294 -17 0 -22 70 -9 132 15 75 68 202 95 232 34 36 41 12 20 -70z
m-2407 -68 c-22 -60 -101 -218 -126 -253 -58 -83 -47 30 15 156 52 104 120
192 125 162 2 -10 -4 -39 -14 -65z m5606 -173 c0 -34 -23 -98 -34 -98 -3 0
-11 -3 -20 -6 -12 -5 -16 1 -16 24 0 47 -16 47 -46 2 -30 -44 -43 -40 -44 15
l-1 30 -32 -38 c-18 -20 -35 -37 -39 -37 -5 0 -8 16 -8 35 0 51 25 71 101 79
70 8 109 27 109 54 1 37 30 -22 30 -60z m-2541 -288 c16 -75 29 -99 55 -106
60 -15 171 51 215 127 l28 50 7 -47 c8 -59 8 -272 0 -311 l-6 -30 -27 28 c-59
58 -241 69 -241 14 0 -17 -6 -18 -116 -19 -72 -1 -83 -4 -112 -28 -34 -29 -44
-28 -126 7 -39 16 -39 16 -60 -8 -16 -19 -41 -28 -111 -42 -173 -34 -175 -34
-175 37 0 73 109 156 190 145 48 -6 49 -5 60 137 5 60 11 110 13 112 2 2 11
-39 21 -90 10 -52 25 -104 33 -116 15 -21 21 -22 87 -17 99 9 173 32 192 62
17 26 32 161 35 320 l2 90 13 -134 c7 -74 18 -156 23 -181z m-6665 -149 c0
-243 -7 -341 -24 -341 -20 0 -25 62 -24 280 0 146 5 246 13 284 24 108 34 43
35 -223z m-370 -12 c23 -215 32 -439 18 -439 -24 0 -41 139 -48 395 -8 249 7
270 30 44z m-301 -149 c48 -96 121 -426 89 -406 -6 3 -20 32 -32 64 -32 85
-110 356 -110 382 0 36 23 18 53 -40z m11813 -214 c102 -31 237 -81 272 -101
26 -16 26 -16 -28 -11 -93 9 -347 97 -365 125 -10 18 36 13 121 -13z m-12114
-94 c38 -64 74 -252 49 -252 -20 0 -91 207 -91 268 0 22 25 13 42 -16z m12124
-222 c56 -28 112 -62 125 -77 l24 -26 -38 6 c-41 6 -221 89 -249 114 -10 9
-18 23 -18 31 0 22 40 9 156 -48z m-12875 -522 c59 -71 111 -155 107 -174 -3
-15 -10 -12 -46 21 -71 64 -162 201 -145 218 9 9 46 -19 84 -65z m11664 -13
c68 -28 55 -62 -37 -99 -36 -14 -57 -30 -66 -48 -8 -18 -39 -41 -90 -68 -89
-46 -166 -106 -345 -267 -144 -129 -202 -195 -267 -302 -129 -209 -151 -233
-165 -171 -24 111 85 268 440 626 186 187 320 304 380 330 40 18 108 17 150
-1z m-11878 -251 c84 -86 113 -127 100 -141 -10 -9 -91 54 -158 124 -71 73
-99 110 -99 130 0 27 65 -20 157 -113z m-334 -878 c116 -30 217 -66 217 -77 0
-36 -319 39 -370 87 -23 22 42 18 153 -10z m172 -947 c-22 -4 -78 -8 -125 -8
-47 0 -103 4 -125 8 -27 6 12 9 125 9 113 0 152 -3 125 -9z m-76 -279 c120
-13 160 -25 142 -43 -36 -35 -621 6 -621 44 0 12 353 12 479 -1z m171 -369
l45 -7 -32 -11 c-62 -23 -195 -36 -302 -30 -130 6 -317 37 -299 48 16 10 524
10 588 0z m158 -330 c23 -14 -96 -40 -238 -51 -142 -10 -457 -14 -448 -5 8 8
331 44 478 54 177 12 193 12 208 2z m411 -267 c-96 -102 -601 -231 -819 -208
l-75 7 75 14 c166 30 319 67 473 115 279 88 311 97 341 97 l29 1 -24 -26z
m281 -269 c0 -37 -228 -149 -485 -238 -163 -56 -266 -79 -336 -75 -50 3 -52 4
-29 15 14 6 104 37 200 67 96 31 249 88 340 127 156 67 286 118 303 119 4 0 7
-7 7 -15z m102 -178 c33 -66 56 -80 114 -66 60 13 64 12 64 -22 0 -43 28 -84
100 -148 70 -61 74 -82 21 -118 -35 -24 -91 -31 -91 -12 0 6 5 19 11 30 10 19
8 20 -25 13 l-36 -6 0 40 c0 23 -5 44 -11 48 -6 3 -26 -9 -46 -27 l-34 -34 10
28 c10 27 15 87 7 87 -1 0 -77 -35 -167 -79 -199 -96 -323 -145 -429 -172
-125 -32 -125 -18 0 36 160 69 320 148 388 191 62 39 122 92 122 107 0 6 -20
32 -45 58 -59 63 -62 114 -6 107 19 -2 31 -16 53 -61z m393 -947 c0 -23 -141
-88 -251 -115 -96 -25 -194 -33 -194 -16 0 5 59 26 131 47 72 21 159 52 193
70 64 34 121 41 121 14z"/>
<path d="M11745 9155 c-89 -19 -190 -60 -241 -97 -86 -62 -163 -209 -198 -379
-38 -184 -72 -665 -52 -744 l7 -28 22 20 c26 23 64 39 132 53 27 6 55 16 62
22 22 18 41 104 63 278 50 397 132 656 255 806 41 50 52 70 43 76 -16 10 -19
9 -93 -7z"/>
<path d="M5298 8580 c-49 -15 -122 -73 -244 -194 -204 -202 -243 -284 -251
-516 -7 -190 -11 -185 163 -185 102 0 126 3 140 17 13 12 18 46 25 142 13 206
78 355 236 545 40 47 79 100 87 116 15 28 14 31 -5 47 -21 18 -82 39 -109 37
-8 0 -27 -4 -42 -9z"/>
<path d="M8912 8490 c-63 -29 -107 -66 -159 -134 -91 -120 -168 -318 -192
-490 -12 -88 -14 -295 -3 -312 30 -46 191 -44 244 3 30 27 38 109 36 345 l-3
228 -64 -41 c-79 -50 -111 -63 -124 -50 -13 13 1 51 19 51 22 0 54 38 54 65 0
36 39 59 76 45 16 -6 37 -18 46 -27 15 -13 19 -11 47 27 30 42 122 223 136
269 13 44 -40 54 -113 21z"/>
<path d="M8602 8460 c-65 -15 -140 -111 -248 -315 -67 -127 -110 -237 -134
-339 -19 -83 -47 -302 -39 -310 2 -2 67 3 144 12 l140 17 17 195 c32 352 59
439 188 620 42 58 79 111 84 118 5 9 -8 12 -56 11 -35 -1 -78 -5 -96 -9z"/>
<path d="M3425 8446 c-40 -6 -83 -21 -100 -33 -63 -45 -156 -157 -194 -230
-26 -51 -27 -70 -3 -75 26 -6 108 11 157 32 l44 19 -29 30 c-22 22 -30 39 -30
65 0 20 5 36 10 36 6 0 24 -22 41 -50 17 -27 37 -50 44 -50 24 0 215 227 215
256 0 17 -53 17 -155 0z"/>
<path d="M3020 8342 c-95 -35 -137 -60 -189 -117 -50 -54 -111 -176 -111 -222
0 -45 16 -36 79 43 55 68 74 76 121 50 33 -19 64 -2 111 61 52 68 119 181 119
198 0 22 -44 18 -130 -13z"/>
<path d="M2653 8236 c-65 -16 -95 -36 -135 -89 -39 -53 -108 -198 -108 -227 0
-21 3 -22 60 -18 44 3 66 10 82 25 24 25 17 43 -18 43 -34 0 -42 27 -16 53 21
20 22 20 42 2 20 -18 21 -18 61 21 41 39 99 127 118 177 10 24 8 27 -12 26
-12 0 -45 -6 -74 -13z"/>
<path d="M2387 8145 c-71 -27 -174 -86 -214 -124 -35 -34 -42 -50 -66 -143
-29 -109 -28 -138 5 -138 75 0 230 184 309 366 26 63 28 61 -34 39z"/>
<path d="M1975 7945 c-124 -51 -187 -119 -225 -243 -25 -80 -45 -200 -36 -209
19 -20 179 115 270 229 53 66 97 249 59 248 -4 0 -35 -12 -68 -25z"/>
<path d="M11456 3424 c-101 -20 -191 -51 -286 -100 -83 -43 -101 -56 -244
-168 -38 -30 -123 -85 -189 -122 -139 -79 -210 -132 -232 -174 -13 -25 -21
-30 -53 -30 -40 0 -67 -14 -122 -66 -53 -48 -110 -84 -136 -84 -13 0 -28 -9
-34 -21 -16 -29 19 -97 85 -164 61 -63 116 -85 164 -65 31 12 34 18 46 77 l7
33 51 -6 c61 -6 113 16 136 57 20 36 9 68 -42 125 -97 108 -89 163 8 63 95
-98 179 -133 220 -92 17 17 17 54 -1 137 l-7 28 53 -36 c58 -40 98 -46 123
-18 25 27 21 61 -13 112 -32 49 -39 90 -15 90 8 0 33 -24 56 -52 49 -62 63
-72 94 -64 31 8 85 54 85 73 0 9 -10 31 -21 50 -12 19 -20 35 -18 37 2 1 33
16 69 33 36 16 115 61 175 100 201 128 234 138 490 147 167 6 215 11 215 26 0
12 -45 28 -123 44 -225 47 -408 57 -541 30z"/>
<path d="M9935 2528 c-22 -13 -40 -30 -40 -38 0 -8 22 -29 48 -46 61 -40 97
-74 97 -91 0 -23 -32 -14 -103 28 -94 56 -131 53 -292 -25 -178 -85 -207 -113
-170 -162 38 -50 -11 -61 -65 -14 -49 41 -81 38 -169 -15 -44 -27 -96 -48
-130 -55 -77 -15 -94 -23 -146 -71 -41 -38 -51 -42 -105 -45 -65 -4 -126 -27
-280 -104 -110 -55 -145 -66 -253 -75 -67 -6 -82 -11 -100 -32 -22 -25 -24
-25 -119 -19 l-96 7 -33 -32 c-30 -29 -36 -31 -78 -25 -25 4 -70 10 -98 13
-51 6 -53 5 -53 -19 0 -14 5 -39 11 -57 15 -43 8 -47 -29 -16 -41 34 -104 55
-169 55 -68 0 -74 -12 -39 -91 57 -125 42 -173 -21 -68 -72 120 -143 164 -223
140 -48 -14 -74 -50 -67 -88 26 -139 76 -353 86 -372 12 -21 18 -23 60 -18
161 20 211 66 211 195 0 53 11 46 29 -18 27 -96 54 -109 140 -65 66 33 74 59
59 181 -7 51 -9 96 -5 100 14 14 37 -21 56 -85 11 -36 28 -93 38 -126 22 -74
49 -89 109 -59 47 23 61 58 70 179 l7 80 17 -51 c42 -120 67 -144 152 -144 51
0 60 3 74 26 15 22 16 36 5 121 -6 53 -10 98 -7 100 2 2 22 -34 45 -80 22 -47
48 -87 56 -91 23 -8 49 8 127 77 77 68 98 70 98 7 0 -46 9 -49 52 -18 17 12
47 22 67 23 35 1 36 1 39 45 1 25 5 56 8 69 l5 24 33 -32 c17 -17 37 -31 44
-31 7 0 40 12 74 26 40 17 71 24 90 20 33 -7 35 3 13 84 -8 30 -12 56 -10 58
2 3 25 -10 51 -27 56 -36 85 -39 126 -10 23 17 39 20 70 16 l40 -5 -5 41 c-3
23 -26 81 -51 130 -25 48 -46 92 -46 97 0 6 9 10 19 10 21 0 51 -35 95 -112
39 -69 64 -79 149 -59 79 19 84 28 68 113 -12 66 -5 98 20 98 23 0 39 -29 39
-69 0 -40 25 -54 64 -34 16 8 58 39 94 69 57 47 70 53 106 52 50 -3 130 34
153 69 14 21 15 32 4 70 -6 25 -10 47 -9 49 2 1 23 -10 47 -27 24 -16 51 -29
59 -29 8 0 32 17 53 39 32 32 39 46 39 78 0 49 -38 105 -99 148 -60 41 -148
46 -206 13z"/>
<path d="M6516 1637 c-17 -13 -17 -16 3 -80 11 -37 30 -131 41 -209 13 -94 26
-148 37 -160 13 -15 32 -18 104 -18 100 0 135 10 149 42 6 13 14 82 18 153 l7
130 28 -100 c34 -121 59 -175 89 -194 14 -9 59 -17 116 -19 120 -6 126 -1 117
88 -9 85 -49 241 -75 296 -46 93 -171 111 -275 39 l-55 -38 -39 27 c-22 15
-60 34 -87 42 -59 18 -154 18 -178 1z"/>
</g>
</svg>
