<?xml version="1.0" standalone="no"?>
<!DOCTYPE svg PUBLIC "-//W3C//DTD SVG 20010904//EN"
 "http://www.w3.org/TR/2001/REC-SVG-20010904/DTD/svg10.dtd">
<svg version="1.0" xmlns="http://www.w3.org/2000/svg"
 width="1536.000000pt" height="394.000000pt" viewBox="0 0 1536.000000 394.000000"
 preserveAspectRatio="xMidYMid meet">
<metadata>
Created by potrace 1.16, written by Peter Selinger 2001-2019
</metadata>
<g transform="translate(0.000000,394.000000) scale(0.100000,-0.100000)"
fill="#000000" stroke="none">
<path d="M7240 3930 c-107 -3 -200 -9 -205 -12 -9 -6 -84 -13 -400 -38 -71 -6
-166 -20 -210 -30 -44 -11 -165 -26 -270 -35 -339 -28 -425 -44 -659 -130 -94
-34 -283 -85 -371 -100 -22 -4 -100 -34 -174 -67 -74 -33 -184 -72 -245 -88
-61 -16 -131 -36 -156 -45 -25 -9 -164 -45 -310 -80 -146 -35 -323 -82 -395
-105 -71 -24 -172 -48 -225 -55 -165 -23 -491 -84 -590 -110 -52 -14 -133 -43
-180 -65 -140 -65 -358 -115 -802 -185 -384 -61 -489 -75 -642 -86 -178 -12
-212 -22 -425 -128 -112 -57 -167 -90 -192 -118 -19 -21 -74 -108 -123 -193
-120 -211 -150 -246 -344 -402 -105 -85 -281 -309 -310 -397 -35 -101 8 -194
95 -207 66 -10 378 14 468 35 102 25 154 47 290 126 61 35 139 73 175 84 85
27 242 107 360 185 116 77 149 94 315 163 225 94 189 88 485 87 239 0 280 -3
415 -27 183 -31 301 -44 555 -57 242 -13 300 -18 370 -36 72 -17 289 -48 525
-74 105 -11 213 -28 240 -37 80 -25 197 -89 267 -147 35 -29 84 -66 109 -81
24 -15 80 -54 125 -86 102 -73 206 -129 311 -168 45 -16 108 -43 140 -59 32
-16 110 -49 173 -72 63 -24 183 -74 265 -113 320 -148 595 -217 1075 -267 213
-22 559 -75 795 -120 201 -39 310 -55 565 -80 118 -12 257 -28 309 -35 51 -8
226 -18 387 -21 l294 -7 0 -44 c0 -76 52 -148 145 -204 22 -13 70 -51 106 -85
85 -79 107 -90 214 -105 121 -16 178 -8 262 36 54 28 90 39 173 50 57 8 160
33 229 54 69 22 176 53 237 70 211 59 406 132 553 205 37 19 85 39 107 45 22
6 160 18 307 26 300 17 378 26 522 61 55 13 131 28 168 33 120 17 292 114 443
252 43 39 142 116 221 170 179 125 218 164 325 324 47 72 132 182 188 245 116
131 181 224 211 302 12 29 28 70 37 91 19 47 138 161 217 209 33 20 110 52
170 71 241 78 434 97 550 56 103 -36 220 -13 299 60 15 14 32 35 36 47 10 25
46 34 139 34 115 0 218 39 260 98 20 29 110 319 118 383 10 70 -20 124 -126
229 -126 124 -261 232 -336 269 -33 16 -98 37 -145 46 -128 26 -198 55 -307
128 -177 119 -287 142 -788 162 -192 8 -375 19 -405 24 -76 14 -299 28 -725
46 -452 19 -884 43 -995 56 -189 21 -465 29 -1310 39 -937 10 -2653 11 -2980
0z"/>
</g>
</svg>
