<?xml version="1.0" standalone="no"?>
<!DOCTYPE svg PUBLIC "-//W3C//DTD SVG 20010904//EN"
 "http://www.w3.org/TR/2001/REC-SVG-20010904/DTD/svg10.dtd">
<svg version="1.0" xmlns="http://www.w3.org/2000/svg"
 width="639.000000pt" height="371.000000pt" viewBox="0 0 639.000000 371.000000"
 preserveAspectRatio="xMidYMid meet">
<metadata>
Created by potrace 1.16, written by Peter Selinger 2001-2019
</metadata>
<g transform="translate(0.000000,371.000000) scale(0.100000,-0.100000)"
fill="#000000" stroke="none">
<path d="M1563 3597 c-62 -5 -113 -13 -113 -17 0 -4 -27 -13 -60 -20 -33 -7
-60 -17 -60 -21 0 -5 -6 -9 -14 -9 -7 0 -19 -7 -26 -14 -6 -8 -28 -20 -48 -27
-20 -7 -41 -17 -47 -23 -6 -6 -28 -22 -48 -36 -20 -14 -37 -28 -37 -32 0 -5
-13 -8 -30 -8 -17 0 -30 -5 -30 -12 0 -17 -47 -38 -86 -38 -19 0 -41 -9 -56
-24 -38 -34 -131 -39 -462 -26 -316 13 -381 12 -381 -9 0 -15 120 -80 149 -81
19 0 67 -13 115 -32 30 -11 249 -55 344 -68 94 -14 107 -18 100 -36 -5 -14 13
-19 47 -14 12 2 11 -3 -4 -19 -11 -13 -14 -21 -7 -21 19 0 69 28 74 42 4 8 6
7 6 -4 1 -10 -13 -25 -31 -35 -31 -17 -32 -18 -10 -21 13 -2 32 4 41 12 10 9
21 16 24 16 13 0 7 -23 -10 -37 -17 -13 -17 -14 2 -11 11 2 25 14 31 27 12 23
12 23 23 3 6 -11 12 -36 12 -54 2 -30 2 -31 6 -5 6 37 38 36 51 -2 6 -16 8
-32 5 -35 -4 -3 -1 -6 6 -6 9 0 11 8 7 25 -4 14 -4 25 -1 25 3 0 32 -27 65
-59 57 -57 75 -67 62 -33 -7 21 81 -52 163 -134 75 -75 168 -247 180 -333 4
-30 14 -69 21 -87 8 -18 14 -53 14 -76 0 -24 7 -56 15 -72 8 -15 15 -35 15
-43 0 -8 9 -33 20 -55 11 -23 20 -47 20 -54 0 -6 7 -17 15 -24 8 -7 15 -22 15
-34 0 -25 51 -117 100 -183 44 -58 156 -169 234 -231 32 -26 77 -63 100 -83
23 -20 57 -44 76 -54 19 -10 55 -32 80 -49 70 -48 258 -146 281 -146 5 0 9 -4
9 -10 0 -5 16 -10 35 -10 34 0 35 -1 35 -38 0 -25 7 -43 20 -55 20 -17 21 -16
27 14 l6 31 66 -4 c79 -5 161 -40 161 -69 0 -11 -7 -19 -16 -19 -9 0 -28 -8
-42 -19 -29 -20 -184 -35 -212 -20 -8 4 -36 16 -62 26 -27 10 -48 21 -48 26 0
4 -5 7 -11 7 -6 0 -17 6 -24 14 -11 10 -26 11 -67 4 -82 -14 -102 -25 -128
-73 -18 -33 -31 -45 -47 -45 -13 0 -23 -4 -23 -10 0 -5 -11 -10 -25 -10 -14 0
-25 -4 -25 -10 0 -5 -16 -10 -36 -10 -44 0 -105 -45 -124 -90 -7 -17 -10 -51
-8 -79 l5 -50 -39 -6 c-21 -4 -65 -4 -97 0 -48 5 -59 4 -64 -9 -4 -11 -19 -16
-46 -16 -31 0 -49 -7 -76 -31 -33 -29 -35 -35 -35 -89 0 -72 16 -87 26 -24 8
53 45 94 85 94 29 0 39 -19 39 -78 0 -34 15 -72 28 -72 4 0 6 20 4 44 -4 41
-1 46 27 60 34 18 166 22 176 6 3 -5 27 -10 53 -10 26 0 79 -7 119 -17 68 -15
76 -15 132 0 34 9 94 17 134 17 63 0 80 -4 112 -26 22 -14 60 -33 86 -41 25
-8 64 -32 85 -52 50 -48 85 -66 158 -82 32 -7 64 -19 71 -26 8 -7 36 -13 65
-13 62 0 85 -11 105 -50 18 -35 19 -71 3 -139 -9 -41 -9 -56 2 -76 l14 -26 25
53 c17 37 26 75 29 128 l4 76 -48 53 c-27 29 -53 60 -58 69 -27 52 -108 111
-166 123 -55 11 -135 33 -140 39 -3 3 -25 12 -49 19 -98 29 -120 72 -54 111
20 11 50 24 67 27 17 3 42 14 55 25 33 25 81 24 81 -2 0 -14 7 -20 24 -20 13
0 30 -7 37 -16 8 -9 30 -27 49 -41 19 -13 69 -48 110 -78 41 -30 85 -59 98
-65 12 -5 22 -16 22 -24 0 -17 14 -22 87 -31 57 -7 75 -24 88 -83 7 -34 -11
-132 -25 -132 -4 0 -11 -12 -14 -26 -4 -15 -23 -42 -42 -60 -19 -19 -29 -34
-22 -34 27 0 86 50 118 100 28 43 34 64 38 124 4 65 2 77 -25 128 -17 30 -33
77 -36 104 -6 55 -14 63 -93 87 -32 10 -70 25 -84 33 -14 7 -44 23 -66 34 -23
11 -47 27 -54 35 -7 8 -21 15 -30 15 -51 0 -64 28 -31 67 21 25 66 31 75 11 5
-10 7 -10 12 0 6 13 44 17 44 5 0 -10 146 -8 183 2 15 4 27 11 27 16 0 5 10 9
23 9 12 0 31 6 42 13 45 30 215 59 215 38 0 -16 38 -13 47 3 4 8 24 16 43 18
30 3 35 7 38 31 5 38 42 38 43 0 1 -19 3 -22 6 -10 3 12 12 17 26 15 12 -1 28
1 36 6 13 8 100 22 213 33 51 5 62 10 93 44 19 22 41 39 48 39 7 0 18 5 23 10
16 16 562 20 599 5 17 -7 50 -21 75 -31 25 -10 51 -25 59 -32 7 -7 26 -16 42
-19 16 -3 29 -9 29 -13 0 -4 21 -15 48 -25 26 -9 100 -44 165 -76 65 -33 126
-59 136 -59 10 0 29 -8 42 -19 13 -10 44 -28 69 -40 25 -12 70 -35 100 -51 30
-16 63 -30 72 -30 9 0 29 -6 45 -14 55 -28 243 -56 243 -37 0 7 26 11 68 11
43 0 75 5 89 15 25 17 39 63 24 78 -19 19 -13 65 9 77 22 12 28 60 8 60 -6 0
-21 9 -32 19 -12 11 -48 34 -81 52 -33 17 -69 39 -80 49 -11 10 -41 27 -67 38
-27 12 -48 25 -48 31 0 22 -55 72 -108 97 -31 14 -66 34 -77 44 -21 18 -37 27
-150 81 -38 19 -72 37 -75 40 -3 3 -21 11 -40 19 -19 8 -62 30 -96 51 -33 20
-71 40 -85 44 -13 4 -40 18 -59 31 -19 13 -38 24 -42 24 -8 0 -108 67 -118 79
-10 11 -65 38 -92 45 -16 3 -28 11 -28 16 0 6 -9 10 -20 10 -15 0 -20 7 -20
25 0 13 -8 29 -18 34 -10 5 -40 28 -67 50 -27 23 -55 41 -61 41 -7 0 -14 3
-16 8 -1 4 -28 24 -58 45 -30 21 -78 57 -107 80 -28 23 -69 51 -90 62 -21 10
-76 41 -123 67 -47 26 -101 53 -120 59 -40 14 -108 57 -193 121 -31 24 -83 57
-115 73 -31 16 -90 48 -130 72 -41 24 -77 43 -81 43 -5 0 -42 24 -83 53 -77
54 -105 71 -149 94 -14 7 -34 22 -44 33 -10 11 -24 20 -30 20 -7 0 -46 26 -87
59 -103 81 -146 107 -199 118 -33 7 -71 30 -140 85 -52 41 -113 87 -136 101
-24 15 -43 32 -43 37 0 6 -4 10 -10 10 -5 0 -37 21 -71 48 -33 26 -70 54 -82
62 -12 8 -34 26 -48 40 -30 28 -113 100 -177 154 -24 20 -49 36 -56 36 -6 0
-19 8 -28 18 -66 73 -110 91 -285 117 -113 16 -303 18 -480 2z m833 -2614 c26
-35 17 -43 -46 -43 -49 0 -60 3 -60 16 0 40 81 60 106 27z m-232 -138 c5 -20
13 -25 36 -25 17 0 30 5 30 10 0 6 9 10 19 10 10 0 21 7 25 15 3 8 15 15 27
15 19 0 21 -4 15 -31 -3 -17 -6 -49 -6 -70 l0 -39 -78 0 c-47 0 -91 -6 -108
-14 -16 -8 -48 -17 -71 -21 -43 -7 -43 -7 -43 25 0 43 14 68 63 112 50 45 82
49 91 13z m256 11 c0 -9 12 -16 28 -18 42 -5 41 -39 -3 -60 -20 -10 -42 -18
-50 -18 -8 0 -15 -7 -15 -15 0 -8 -9 -15 -20 -15 -16 0 -20 7 -20 31 0 17 7
37 15 45 8 9 15 26 15 40 0 19 5 24 25 24 15 0 25 -6 25 -14z"/>
</g>
</svg>
