<?xml version="1.0" standalone="no"?>
<!DOCTYPE svg PUBLIC "-//W3C//DTD SVG 20010904//EN"
 "http://www.w3.org/TR/2001/REC-SVG-20010904/DTD/svg10.dtd">
<svg version="1.0" xmlns="http://www.w3.org/2000/svg"
 width="1536.000000pt" height="895.000000pt" viewBox="0 0 1536.000000 895.000000"
 preserveAspectRatio="xMidYMid meet">
<metadata>
Created by potrace 1.16, written by Peter Selinger 2001-2019
</metadata>
<g transform="translate(0.000000,895.000000) scale(0.100000,-0.100000)"
fill="#000000" stroke="none">
<path d="M5465 8943 c-11 -2 -80 -22 -154 -45 l-133 -41 -112 26 c-300 70
-562 58 -795 -37 -148 -60 -308 -187 -410 -325 -44 -59 -130 -206 -131 -222 0
-3 27 -9 60 -12 36 -4 81 -18 113 -34 54 -29 71 -30 456 -33 13 0 45 13 70 30
108 69 187 77 329 34 76 -24 98 -26 196 -22 115 5 131 10 231 68 28 16 80 34
117 41 81 14 129 5 226 -47 65 -35 69 -36 147 -30 44 4 131 9 193 12 l112 7
32 40 c39 49 80 67 157 67 50 0 71 -6 135 -40 84 -44 115 -48 211 -26 39 10
67 23 81 39 42 49 72 61 148 60 40 0 88 -8 109 -17 34 -14 43 -14 73 -1 29 12
34 19 34 48 0 22 8 41 23 55 38 36 75 44 168 37 83 -7 87 -6 103 16 9 13 16
35 16 50 0 70 114 137 252 149 49 4 91 9 94 12 10 10 -70 67 -115 83 -69 23
-183 19 -297 -11 -158 -43 -181 -42 -271 3 l-78 38 -115 -2 c-63 -2 -302 -3
-530 -4 -386 -2 -423 0 -532 20 -111 20 -168 24 -213 14z"/>
<path d="M7825 8796 c-38 -8 -99 -21 -134 -30 -35 -10 -105 -21 -155 -25 -139
-12 -211 -53 -222 -127 -5 -32 -15 -51 -37 -70 -30 -25 -34 -26 -124 -19 -113
8 -143 -4 -143 -59 0 -38 -18 -57 -79 -83 -43 -19 -45 -19 -82 0 -23 11 -62
19 -103 20 -62 2 -67 0 -103 -34 -48 -47 -63 -54 -146 -69 -93 -17 -145 -9
-209 31 -48 31 -60 34 -126 34 l-73 0 -43 -50 -44 -50 -113 -7 c-63 -3 -157
-9 -209 -13 l-95 -7 -80 43 c-73 39 -86 43 -150 43 -72 0 -100 -10 -228 -81
-42 -23 -62 -26 -166 -31 -102 -4 -129 -2 -190 17 -158 48 -203 45 -311 -19
l-65 -38 -225 2 c-224 2 -225 2 -278 30 -69 35 -133 42 -239 26 -78 -13 -100
-12 -247 8 -139 20 -204 22 -486 22 -586 -1 -804 -26 -1115 -131 -801 -271
-1374 -803 -1640 -1523 -276 -748 -199 -1652 209 -2431 180 -344 367 -596 648
-870 188 -184 312 -285 533 -430 220 -145 289 -179 547 -269 117 -40 285 -107
373 -148 227 -106 294 -127 456 -138 165 -11 183 -17 259 -75 201 -155 492
-243 905 -275 77 -5 163 -12 191 -14 38 -3 71 -16 137 -55 401 -237 618 -260
831 -86 l55 44 67 -95 c82 -115 182 -212 260 -250 50 -25 71 -29 139 -29 70 0
87 4 142 33 75 38 176 131 244 223 l51 67 33 -19 c18 -11 64 -26 101 -32 l68
-13 13 -79 c17 -103 69 -212 124 -259 69 -59 165 -65 245 -15 56 34 138 132
179 212 38 77 39 78 74 75 l36 -3 6 -90 c13 -203 90 -350 217 -412 100 -49
237 -33 369 44 29 17 54 23 80 21 33 -3 42 -9 75 -59 43 -66 109 -117 193
-149 54 -21 82 -24 291 -29 l231 -6 57 -45 c31 -25 74 -57 94 -72 56 -41 135
-50 329 -37 l161 11 91 -76 c517 -430 1110 -674 1841 -758 148 -16 627 -16
780 0 1173 130 2193 683 2835 1537 363 483 569 1033 614 1640 49 650 -54 1232
-321 1820 -348 766 -992 1500 -1778 2025 -456 304 -735 420 -1388 575 -125 29
-297 74 -382 99 -361 105 -454 121 -679 118 -199 -2 -246 5 -469 75 -124 38
-163 46 -252 50 -96 4 -116 1 -233 -31 -70 -19 -139 -42 -153 -51 -24 -15 -25
-21 -20 -73 3 -31 8 -176 12 -322 7 -294 -5 -454 -52 -669 -87 -406 -325 -823
-734 -1286 -317 -358 -625 -593 -970 -740 -41 -17 -105 -52 -141 -77 -47 -32
-88 -50 -140 -63 -105 -26 -124 -35 -216 -108 -45 -36 -103 -73 -127 -82 -62
-24 -133 -16 -187 20 -42 27 -43 27 -111 15 -59 -10 -68 -15 -68 -33 0 -71
-120 -223 -225 -286 -49 -30 -66 -35 -119 -35 -100 1 -176 51 -238 162 -26 46
-34 52 -61 52 -18 0 -72 -18 -121 -38 l-89 -38 -13 -63 c-28 -134 -108 -262
-190 -301 -88 -43 -161 -14 -221 88 -14 23 -33 47 -43 52 -28 15 -97 12 -175
-8 l-70 -18 -6 -65 c-13 -144 -67 -223 -173 -254 -64 -19 -97 -15 -209 26
-127 47 -148 40 -186 -61 -25 -67 -78 -121 -176 -181 -101 -61 -129 -71 -234
-85 -111 -15 -116 -18 -180 -140 -43 -82 -50 -90 -101 -115 l-55 -27 -5 -73
c-4 -66 -7 -74 -25 -74 -18 0 -20 8 -23 74 -4 89 7 108 77 141 49 22 55 30 92
105 62 128 88 147 219 160 79 7 134 29 241 98 75 48 114 95 133 161 29 99 90
116 236 65 114 -39 161 -41 221 -8 61 33 89 92 98 204 3 46 9 86 11 88 14 12
186 47 229 47 69 0 97 -13 128 -61 16 -23 43 -58 61 -77 29 -31 37 -34 72 -29
22 3 52 15 67 27 71 55 143 209 143 305 0 41 2 44 33 51 17 3 66 22 109 40 53
24 91 34 126 34 54 0 62 -6 105 -81 77 -135 194 -170 309 -91 106 73 185 191
175 262 l-5 37 67 8 c118 15 152 12 198 -18 76 -48 140 -34 254 58 94 76 121
90 219 115 63 16 102 33 153 67 37 26 107 63 156 84 232 97 468 276 802 609
248 247 387 415 534 646 225 351 311 626 346 1103 17 243 8 491 -25 614 -44
171 -98 263 -242 416 -253 269 -616 473 -983 552 -125 27 -431 35 -536 15z
m3925 -2571 c761 -104 1423 -467 1870 -1025 723 -903 810 -2120 215 -3015
-409 -616 -1086 -981 -1995 -1077 -160 -17 -629 -17 -775 0 -719 83 -1289 330
-1722 746 -397 380 -638 843 -733 1407 -28 161 -38 478 -21 644 39 385 159
742 358 1070 200 327 521 646 858 850 366 222 829 372 1280 414 139 13 526 5
665 -14z"/>
</g>
</svg>
