<?xml version="1.0" standalone="no"?>
<!DOCTYPE svg PUBLIC "-//W3C//DTD SVG 20010904//EN"
 "http://www.w3.org/TR/2001/REC-SVG-20010904/DTD/svg10.dtd">
<svg version="1.0" xmlns="http://www.w3.org/2000/svg"
 width="535.000000pt" height="866.000000pt" viewBox="0 0 535.000000 866.000000"
 preserveAspectRatio="xMidYMid meet">
<metadata>
Created by potrace 1.16, written by Peter Selinger 2001-2019
</metadata>
<g transform="translate(0.000000,866.000000) scale(0.100000,-0.100000)"
fill="#000000" stroke="none">
<path d="M21 8636 c-10 -12 -9 -26 3 -69 9 -30 23 -60 31 -67 8 -7 15 -20 15
-29 0 -9 7 -25 15 -35 8 -11 15 -32 15 -47 0 -17 8 -32 24 -42 13 -9 26 -30
30 -48 3 -18 17 -47 31 -65 14 -18 25 -43 25 -56 0 -13 9 -36 20 -53 11 -16
20 -41 20 -53 0 -13 9 -35 20 -49 11 -14 20 -35 20 -45 0 -11 8 -32 18 -46 10
-15 33 -58 51 -97 18 -38 39 -81 47 -95 27 -52 92 -187 110 -230 10 -25 26
-56 36 -69 10 -13 18 -36 18 -51 0 -15 9 -35 20 -45 11 -10 20 -24 20 -32 0
-7 10 -30 23 -51 12 -20 29 -50 37 -66 18 -36 87 -108 155 -162 28 -21 75 -63
105 -91 30 -29 59 -53 65 -53 7 0 36 -25 66 -56 115 -119 227 -209 304 -245
28 -13 45 -29 49 -45 4 -13 19 -31 34 -41 78 -48 132 -84 137 -93 3 -5 26 -18
50 -29 85 -37 147 -129 100 -147 -8 -3 -17 -26 -21 -52 -7 -49 -21 -75 -34
-67 -14 9 -20 -24 -9 -52 12 -33 5 -53 -20 -53 -28 0 -33 -54 -8 -87 l20 -25
-20 -17 c-28 -22 -36 -52 -22 -87 l11 -29 9 23 c5 13 13 20 19 17 14 -9 10
-95 -6 -120 -15 -23 -8 -69 12 -86 8 -6 14 -20 14 -30 0 -34 35 -83 51 -73 4
2 17 -12 29 -31 12 -20 34 -42 49 -50 16 -8 36 -26 46 -41 26 -40 77 -84 97
-84 9 0 19 -4 22 -9 3 -4 28 -11 56 -15 70 -9 90 -32 90 -101 0 -30 -4 -55 -8
-55 -5 0 -22 16 -38 36 -45 55 -114 100 -163 107 -39 5 -55 16 -140 101 -53
53 -112 107 -131 121 -43 31 -195 188 -210 216 -9 15 -19 20 -43 17 -32 -3
-32 -3 -39 54 -4 32 -21 92 -38 134 -16 41 -30 87 -30 100 0 14 -7 41 -15 61
-8 19 -15 45 -15 56 0 21 -28 122 -57 207 -8 25 -19 66 -23 92 -5 25 -16 61
-25 79 -11 20 -15 44 -12 66 6 36 -5 42 -35 19 -15 -11 -18 -29 -17 -102 0
-49 5 -114 10 -144 6 -30 12 -75 15 -100 10 -99 112 -480 135 -504 5 -6 9 -20
9 -32 0 -46 33 -93 132 -187 57 -54 131 -125 165 -158 34 -32 69 -59 77 -59 9
0 16 -4 16 -9 0 -13 96 -82 143 -103 25 -12 41 -27 48 -47 11 -31 58 -73 97
-85 12 -4 27 -16 32 -27 6 -10 18 -19 28 -19 9 0 26 -7 36 -15 11 -8 30 -15
43 -15 20 0 23 -5 23 -39 0 -44 -21 -101 -45 -121 -36 -30 -55 -71 -71 -156
-21 -107 -33 -124 -89 -124 -65 0 -158 -21 -180 -41 -17 -15 -28 -16 -68 -9
-29 6 -57 6 -73 0 -14 -6 -45 -10 -69 -10 -24 0 -47 -4 -50 -10 -3 -6 -22 -10
-41 -10 -34 0 -75 -28 -85 -59 -4 -11 -9 -11 -24 -2 -16 10 -40 9 -120 -4 -55
-10 -121 -18 -147 -19 -33 -1 -52 -8 -61 -20 -8 -11 -31 -20 -60 -23 -26 -3
-47 -11 -47 -17 0 -6 -26 -22 -59 -36 -40 -17 -57 -29 -55 -40 2 -8 -9 -30
-25 -48 -25 -29 -41 -38 -74 -41 -4 -1 -17 -16 -28 -35 -13 -22 -35 -40 -61
-50 -38 -16 -40 -18 -24 -35 16 -17 15 -20 -14 -45 -17 -14 -40 -26 -51 -26
-15 0 -17 -5 -13 -29 6 -28 4 -30 -35 -41 -35 -9 -43 -16 -48 -41 -6 -33 -45
-69 -74 -69 -11 0 -19 -4 -19 -10 0 -5 5 -10 10 -10 24 0 6 -31 -54 -93 -35
-37 -72 -67 -82 -67 -26 0 -104 -31 -104 -41 0 -14 43 -10 64 6 11 8 26 15 34
15 25 0 6 -78 -29 -118 -36 -41 -27 -64 15 -37 14 10 26 21 26 27 0 11 116
123 205 198 37 30 76 69 88 85 12 17 51 59 87 94 36 35 81 86 100 112 93 127
124 159 160 164 52 8 125 29 225 65 50 18 108 36 130 41 22 4 78 21 125 38 74
27 89 29 117 19 27 -10 39 -9 68 5 20 9 48 17 63 17 25 0 136 33 175 52 32 15
19 -16 -24 -57 -22 -22 -53 -62 -67 -89 -30 -54 -31 -56 -83 -136 -62 -96
-119 -202 -119 -223 0 -11 -8 -29 -17 -39 -10 -11 -18 -37 -18 -61 -1 -27 -11
-56 -28 -81 -15 -21 -27 -47 -27 -57 0 -29 -54 -154 -71 -164 -5 -4 -9 -21 -9
-39 0 -23 -8 -41 -28 -60 -129 -123 -193 -176 -225 -190 -21 -8 -36 -20 -32
-26 9 -15 -26 -69 -50 -76 -28 -9 -55 -34 -55 -52 0 -15 -55 -90 -81 -109 -9
-7 -22 -34 -28 -60 -7 -26 -16 -62 -22 -80 -5 -17 -7 -43 -3 -57 6 -25 -14
-107 -57 -231 -12 -33 -24 -82 -29 -110 -9 -61 -27 -111 -53 -148 -12 -18 -16
-32 -10 -38 10 -10 1 -86 -24 -184 -8 -33 -19 -80 -24 -105 -13 -64 -33 -133
-43 -148 -4 -8 -10 -50 -11 -94 -2 -44 -8 -85 -14 -91 -6 -6 -11 -32 -11 -57
0 -25 -9 -69 -19 -97 -15 -40 -19 -78 -18 -159 0 -96 2 -109 23 -133 31 -36
40 -21 20 38 -9 27 -16 55 -16 60 0 19 38 12 45 -8 7 -22 35 -36 35 -18 0 7
-7 22 -15 33 -19 25 -19 78 -1 93 8 7 20 35 26 63 6 29 16 58 22 65 6 8 15 36
19 62 4 27 17 68 28 92 12 23 21 61 21 84 0 22 4 45 9 51 5 5 14 36 20 69 17
103 32 170 41 180 4 6 10 30 14 53 4 24 15 60 25 80 10 21 21 54 24 76 3 21
12 46 20 55 8 9 17 48 21 86 4 39 14 80 22 92 7 12 14 33 14 46 0 26 35 167
52 210 7 19 29 38 67 57 69 36 109 76 93 92 -15 15 -15 28 -2 28 22 0 61 -54
56 -75 -3 -11 -6 -28 -6 -39 0 -10 -48 -67 -110 -128 -61 -60 -110 -115 -110
-121 0 -6 7 -1 16 11 8 12 22 22 30 22 8 0 14 4 14 9 0 20 78 93 96 89 27 -5
27 -23 0 -56 -25 -28 -25 -31 -10 -61 15 -29 14 -34 -3 -59 -29 -43 -43 -81
-32 -87 5 -4 9 -24 9 -45 0 -30 -5 -42 -21 -51 -15 -8 -18 -14 -10 -22 16 -16
14 -22 -14 -55 l-24 -29 24 5 c20 3 25 0 25 -16 0 -39 -23 -77 -89 -145 -44
-45 -60 -67 -48 -67 9 0 17 6 17 13 0 13 90 107 103 107 12 0 8 -25 -14 -69
-16 -33 -18 -46 -8 -57 7 -9 9 -30 4 -60 -4 -31 -3 -44 4 -40 11 7 53 -10 116
-48 33 -20 41 -31 45 -62 5 -34 7 -36 13 -16 10 26 61 31 93 8 16 -13 17 -18
7 -35 -17 -27 -17 -64 0 -59 6 3 13 15 15 27 2 12 15 27 28 33 20 9 28 8 42
-5 14 -15 15 -21 3 -50 -21 -53 -24 -67 -13 -67 6 0 19 16 28 35 23 48 52 64
73 39 11 -13 26 -18 45 -16 64 8 90 -14 66 -56 -38 -69 -90 -188 -86 -199 7
-17 26 -17 26 0 0 13 21 55 59 117 11 19 25 45 31 58 6 13 16 22 23 20 21 -8
19 -45 -6 -95 -13 -26 -27 -68 -31 -92 -6 -39 -5 -42 8 -32 9 7 19 29 22 49
10 50 43 104 63 100 9 -2 24 -20 34 -40 10 -21 23 -38 28 -38 5 0 9 -6 9 -14
0 -7 10 -25 21 -40 16 -20 20 -35 15 -57 -3 -18 -2 -28 4 -24 20 12 67 -24 74
-55 3 -19 10 -29 17 -25 13 9 59 -33 59 -53 0 -7 10 -22 21 -31 18 -14 20 -21
10 -39 -6 -11 -11 -34 -11 -50 0 -16 -7 -43 -15 -58 -8 -16 -15 -37 -15 -46 0
-10 -17 -33 -37 -53 -25 -22 -33 -35 -22 -35 8 0 26 11 39 25 30 31 68 32 100
2 22 -20 28 -22 39 -10 21 23 41 -3 41 -52 0 -53 8 -75 26 -75 19 0 18 -6 -12
-45 l-26 -34 31 15 c19 10 28 20 24 29 -3 8 0 15 6 15 6 0 15 -10 20 -23 5
-13 16 -29 25 -36 9 -7 16 -19 16 -26 0 -8 11 -27 25 -43 14 -17 25 -37 25
-45 0 -8 7 -20 15 -27 8 -6 13 -16 12 -22 -2 -10 15 -23 47 -32 12 -4 17 -13
14 -24 -4 -14 0 -18 16 -18 18 1 21 -4 19 -37 l-2 -37 25 17 c25 16 26 16 49
-13 27 -32 29 -62 16 -179 -4 -38 -6 -76 -3 -82 7 -22 22 -14 22 12 0 30 19
161 29 195 6 23 11 25 66 26 33 1 66 -3 73 -9 9 -7 12 -3 12 16 0 22 16 37 41
37 5 0 15 -15 23 -33 19 -41 53 -84 61 -75 7 7 -37 82 -55 93 -5 3 -10 17 -10
31 0 33 26 31 44 -4 18 -35 42 -56 50 -44 3 5 -6 26 -20 47 -47 69 -6 91 47
25 34 -42 57 -54 39 -21 -14 27 -13 31 10 31 11 0 20 4 20 8 0 12 -44 52 -57
52 -6 0 -17 7 -24 16 -11 14 -10 19 9 34 12 10 22 25 22 34 0 8 8 20 18 25 28
15 112 102 112 116 0 7 7 19 16 26 9 7 20 23 25 36 11 31 27 29 39 -4 6 -16
17 -40 25 -55 8 -14 15 -33 15 -41 0 -8 6 -20 14 -26 7 -6 17 -26 21 -44 7
-29 8 -30 12 -8 3 13 0 28 -6 34 -6 6 -11 24 -11 39 0 16 -16 65 -36 108 -30
66 -34 82 -24 95 17 20 34 6 66 -54 14 -25 36 -66 49 -90 14 -24 25 -52 25
-62 0 -24 16 -33 24 -13 3 9 0 28 -8 42 -8 15 -20 47 -27 72 -6 25 -18 55 -26
67 -11 20 -11 23 1 23 17 0 92 -70 131 -123 15 -21 37 -43 47 -48 37 -20 -17
65 -87 135 -67 68 -77 89 -49 100 16 6 16 8 0 24 -9 10 -16 26 -16 35 0 10 -5
26 -12 37 -10 16 -9 23 7 40 18 20 20 20 32 4 7 -10 13 -28 13 -40 0 -25 24
-49 40 -39 15 9 12 31 -5 45 -8 7 -15 22 -15 34 0 12 -5 27 -11 33 -15 15 -7
89 9 85 7 -1 12 9 12 27 0 21 11 39 41 65 48 44 63 38 80 -30 6 -24 16 -44 21
-44 10 0 7 50 -7 117 -5 24 -2 41 15 68 12 19 26 35 31 35 13 0 48 -78 49
-106 0 -11 10 -29 21 -40 l22 -19 -7 45 c-4 25 -14 65 -22 90 -17 51 -12 85
15 100 27 14 44 -5 65 -77 21 -68 47 -123 59 -123 5 0 6 12 2 28 -3 15 -9 42
-12 60 -3 19 -18 58 -34 87 -29 54 -30 85 -2 85 8 0 23 -10 34 -22 15 -19 18
-20 19 -6 0 9 -4 20 -10 23 -20 12 -10 52 20 80 25 24 34 27 48 19 9 -6 19
-24 20 -40 2 -16 9 -36 16 -44 7 -8 16 -24 21 -35 5 -14 9 -16 12 -7 3 8 0 19
-6 25 -6 6 -11 22 -11 36 0 13 -6 32 -14 40 -28 33 -29 59 -1 87 19 19 30 23
37 16 8 -8 16 -5 28 10 10 13 23 19 32 15 16 -5 65 -99 78 -146 3 -14 11 -26
18 -29 21 -7 13 52 -13 102 -33 62 -33 96 -1 96 19 0 29 -9 42 -40 10 -22 21
-40 26 -40 12 0 10 14 -7 36 -8 10 -15 33 -15 50 0 28 5 33 45 48 24 10 53 15
64 11 13 -4 20 0 24 15 12 46 53 12 92 -78 10 -23 24 -47 32 -53 7 -6 13 -24
13 -38 0 -37 29 -121 42 -121 6 0 7 11 3 27 -4 16 -11 44 -15 63 -3 19 -12 45
-18 57 -7 12 -12 30 -12 40 -1 18 -21 62 -73 156 -17 29 -27 64 -27 88 0 43 6
48 26 21 12 -16 13 -15 14 5 0 12 -4 25 -10 28 -5 3 -10 16 -10 29 0 12 -4 26
-9 32 -13 13 -17 66 -7 83 5 7 3 30 -4 52 -15 45 -8 59 18 36 10 -10 22 -17
25 -17 15 0 5 18 -34 60 -34 36 -40 49 -35 72 3 15 1 39 -4 53 -14 36 13 45
45 15 47 -44 35 -13 -15 39 -27 28 -52 61 -54 74 -13 63 -14 96 -3 100 8 3 7
10 -5 24 -10 11 -18 24 -18 30 0 6 -7 16 -15 23 -8 7 -15 25 -15 41 0 15 -4
30 -9 33 -14 9 -25 86 -13 98 10 10 34 -12 127 -117 58 -65 62 -69 93 -93 20
-15 25 -31 33 -107 12 -121 35 -272 48 -315 6 -19 11 -56 11 -83 0 -27 7 -58
16 -72 11 -16 14 -36 11 -55 -4 -16 -2 -32 3 -35 6 -3 10 -28 10 -54 0 -26 5
-52 10 -57 6 -6 12 -26 14 -45 2 -19 10 -61 17 -94 7 -33 13 -88 13 -122 1
-33 4 -59 7 -57 14 8 27 -23 37 -86 19 -111 29 -154 42 -183 12 -24 11 -32 -3
-56 -15 -26 -15 -30 -1 -35 16 -6 12 -61 -8 -103 -17 -35 1 -41 28 -10 14 17
26 46 30 77 5 40 10 50 25 50 13 0 19 8 20 23 4 49 9 173 9 187 0 42 -18 161
-30 202 -11 35 -11 51 -3 59 8 8 8 21 -2 49 -11 32 -11 41 0 57 12 17 11 24
-6 52 -24 40 -26 70 -4 51 25 -20 29 -4 7 27 -41 59 -54 93 -41 109 9 11 9 18
1 26 -18 18 -14 28 8 28 24 0 26 13 5 30 -28 23 -47 78 -43 122 2 24 -2 58 -9
76 -11 25 -11 37 -3 47 9 11 8 20 -4 37 -10 13 -16 43 -16 73 0 28 -5 56 -11
62 -6 6 -12 26 -14 44 -1 19 -10 62 -20 97 -16 59 -16 64 1 89 16 26 16 27 -1
38 -10 5 -25 19 -34 29 -24 29 -46 49 -76 70 -15 10 -33 33 -41 52 -8 18 -27
41 -44 51 -16 9 -30 21 -30 27 0 5 -73 80 -161 168 -154 151 -161 160 -155
190 4 22 2 34 -10 42 -8 6 -19 27 -24 46 -14 58 -60 183 -81 218 -10 18 -19
41 -19 50 0 10 -19 58 -43 107 -24 50 -49 110 -57 135 -7 25 -20 52 -27 61 -7
8 -13 21 -13 28 0 7 -8 25 -19 39 -10 15 -26 45 -35 67 -10 22 -28 51 -40 65
-29 30 -50 70 -42 77 3 3 34 -3 70 -14 35 -12 75 -18 90 -16 14 3 36 -1 48 -9
13 -8 50 -20 83 -27 33 -7 80 -18 105 -26 25 -7 61 -18 80 -24 19 -5 87 -28
150 -51 63 -23 133 -45 155 -49 81 -15 162 -72 179 -129 4 -13 20 -36 34 -52
15 -15 50 -53 77 -84 28 -30 55 -56 60 -56 6 0 20 -18 33 -40 12 -22 28 -40
35 -40 7 0 38 -25 69 -55 31 -30 61 -55 67 -55 6 0 16 -10 23 -23 19 -33 102
-107 122 -107 9 0 16 -4 16 -8 0 -4 21 -25 47 -47 l46 -39 -7 30 c-4 16 -18
40 -30 54 -35 39 -56 77 -56 102 0 16 -11 30 -32 43 -18 10 -36 24 -41 31 -4
7 -31 41 -61 76 -29 35 -56 73 -60 85 -4 12 -27 38 -52 58 -24 20 -53 54 -64
76 -11 21 -34 48 -50 61 -16 12 -33 31 -36 42 -4 11 -29 40 -56 65 -27 24 -58
61 -69 82 -23 45 -72 74 -144 84 -53 8 -81 19 -104 42 -8 8 -23 12 -35 9 -24
-6 -91 11 -121 31 -11 7 -33 13 -50 13 -17 0 -36 5 -42 11 -7 7 -22 13 -35 15
-13 1 -45 6 -73 9 -31 5 -69 19 -100 40 -39 26 -65 35 -118 40 -37 4 -70 11
-73 16 -2 5 -29 7 -59 4 -46 -3 -59 0 -92 23 -31 22 -48 26 -92 25 -62 -2 -73
2 -122 49 -28 26 -38 46 -48 93 -15 69 -64 158 -98 176 -18 10 -23 21 -23 50
0 25 -6 41 -17 48 -26 14 -2 36 55 52 26 7 67 23 91 36 24 13 57 23 72 23 16
0 29 4 29 9 0 5 12 13 26 18 19 6 31 22 43 53 11 31 26 49 51 63 19 10 44 27
55 37 11 10 40 31 65 46 25 16 67 47 93 69 26 22 61 47 76 55 52 27 150 100
166 123 87 124 135 221 135 269 0 16 6 41 14 57 8 15 18 56 22 92 4 35 13 82
21 104 8 22 19 65 24 95 5 30 14 78 20 105 5 28 14 88 20 135 9 78 8 88 -11
128 -17 33 -19 46 -10 57 14 17 4 55 -16 55 -9 0 -14 -11 -14 -31 0 -25 -3
-29 -19 -24 -17 5 -18 2 -11 -37 5 -28 4 -50 -3 -63 -12 -20 -33 -94 -44 -150
-3 -16 -11 -38 -18 -48 -7 -10 -11 -27 -8 -37 3 -10 -5 -39 -16 -66 -15 -32
-19 -57 -15 -80 4 -25 1 -41 -15 -62 -11 -16 -20 -42 -19 -58 0 -16 -7 -54
-16 -84 -9 -30 -22 -74 -27 -97 -7 -28 -27 -60 -59 -94 -42 -45 -50 -50 -69
-40 -19 11 -22 8 -37 -29 -11 -26 -21 -39 -30 -36 -7 3 -38 -19 -69 -49 -31
-30 -63 -55 -71 -55 -8 0 -64 -49 -125 -110 -86 -86 -118 -111 -146 -116 -36
-7 -147 -75 -195 -121 -55 -52 -69 18 -14 73 23 23 43 34 63 34 17 0 38 9 47
19 10 11 32 23 49 27 37 8 259 211 285 260 10 18 30 53 46 79 16 25 36 74 44
108 27 109 16 355 -18 415 -6 9 -14 29 -20 45 -5 15 -16 27 -23 27 -14 0 -57
52 -57 69 0 10 24 21 46 21 8 0 14 -7 14 -15 0 -8 5 -15 10 -15 6 0 10 11 10
24 0 24 53 76 76 76 13 0 117 67 129 84 6 7 43 30 83 50 39 20 72 40 72 45 0
5 17 13 37 18 25 6 42 17 50 33 12 26 43 48 101 75 19 8 50 28 70 43 39 30 47
35 158 92 38 19 70 38 72 42 2 4 25 18 51 31 42 21 68 38 160 100 14 9 44 22
66 28 44 12 165 127 165 157 0 9 11 35 25 57 13 22 25 52 25 67 0 30 36 98 52
98 6 0 8 11 4 25 -5 18 1 33 24 58 16 19 30 44 30 56 0 13 11 37 25 55 14 18
25 42 25 53 0 10 14 32 30 48 22 21 30 38 30 64 0 20 8 43 19 55 11 12 35 59
54 106 45 110 70 165 103 220 62 107 164 324 164 350 0 48 -75 -3 -110 -74
-11 -24 -27 -47 -35 -50 -8 -3 -15 -17 -15 -32 0 -14 -11 -39 -25 -56 -14 -16
-25 -35 -25 -42 0 -7 -9 -21 -20 -31 -10 -9 -24 -34 -31 -54 -6 -20 -17 -47
-25 -61 -36 -71 -64 -136 -64 -150 0 -9 -9 -25 -20 -35 -11 -10 -20 -28 -20
-40 0 -11 -6 -30 -14 -41 -13 -16 -18 -17 -35 -6 -24 14 -25 10 -12 -36 16
-54 -7 -83 -35 -45 -17 24 -32 8 -16 -17 19 -31 14 -67 -13 -94 -16 -16 -25
-36 -25 -56 0 -20 -9 -40 -25 -56 -14 -14 -25 -31 -25 -38 0 -7 -9 -21 -20
-31 -11 -10 -23 -36 -26 -56 -4 -21 -12 -46 -18 -55 -11 -15 -14 -15 -28 0 -9
9 -18 16 -20 16 -2 0 -2 -28 0 -62 3 -71 -14 -98 -78 -130 -19 -10 -62 -34
-95 -53 -33 -20 -71 -41 -85 -47 -14 -7 -37 -22 -52 -34 -14 -12 -46 -27 -71
-34 -33 -10 -47 -20 -54 -41 -8 -21 -26 -35 -67 -53 -30 -14 -66 -34 -78 -46
-13 -12 -47 -33 -75 -46 -29 -14 -71 -41 -94 -60 -34 -28 -49 -34 -89 -34 -37
0 -55 -6 -77 -24 -16 -13 -74 -47 -128 -76 -55 -28 -114 -64 -130 -81 -17 -16
-39 -29 -48 -29 -19 0 -68 -28 -79 -46 -4 -6 -16 -22 -28 -35 -19 -23 -21 -23
-34 -6 -9 12 -16 14 -21 7 -4 -6 -30 10 -65 41 -33 28 -64 48 -70 44 -19 -12
-70 16 -76 41 -6 23 -24 34 -24 14 0 -21 -39 -9 -66 19 -15 17 -38 32 -50 35
-13 4 -32 20 -44 36 -15 21 -26 28 -34 21 -7 -6 -25 0 -53 20 -24 15 -49 26
-56 23 -8 -3 -31 5 -52 17 -67 40 -145 42 -209 4 -25 -14 -50 -24 -56 -20 -6
4 -19 0 -28 -8 -9 -8 -37 -24 -62 -35 -25 -11 -55 -32 -67 -46 -13 -15 -33
-26 -48 -26 -15 0 -25 -6 -25 -14 0 -20 -23 -35 -59 -38 -17 -1 -39 -10 -47
-20 -9 -9 -30 -20 -48 -24 -17 -3 -35 -10 -41 -14 -5 -4 -23 -10 -38 -14 -16
-4 -33 -17 -39 -31 -7 -16 -20 -25 -33 -25 -36 0 -85 21 -96 41 -5 10 -33 31
-62 45 -29 15 -68 39 -88 55 -19 15 -48 33 -65 40 -16 7 -40 21 -53 31 -13 10
-32 18 -41 18 -24 0 -157 109 -181 149 -10 17 -19 41 -19 54 0 12 -5 29 -11
37 -8 11 -9 4 -7 -27 2 -24 1 -43 -2 -43 -13 0 -116 93 -125 114 -13 28 -115
126 -131 126 -12 0 -39 27 -124 121 -28 32 -69 69 -90 84 -23 16 -40 36 -40
46 0 11 -7 19 -15 19 -8 0 -17 14 -21 35 -3 19 -14 45 -24 58 -9 12 -23 40
-30 62 -7 22 -19 46 -27 53 -7 7 -13 20 -13 27 0 8 -11 31 -25 51 -14 20 -25
42 -25 49 0 6 -9 20 -20 30 -11 10 -20 28 -20 40 0 11 -11 36 -25 55 -14 19
-25 40 -25 46 0 7 -18 47 -40 89 -22 42 -40 82 -40 89 0 8 -7 19 -15 26 -8 7
-15 25 -15 39 0 16 -10 37 -24 50 -15 14 -26 39 -30 66 -4 23 -16 51 -26 60
-11 10 -20 28 -20 40 0 12 -9 34 -20 48 -11 14 -20 34 -20 45 0 10 -9 27 -19
36 -11 10 -23 31 -26 47 -4 16 -14 35 -24 41 -9 7 -27 34 -39 59 -13 26 -31
54 -41 63 -16 14 -20 15 -30 2z"/>
<path d="M420 7981 c0 -11 5 -23 10 -26 6 -3 10 1 10 9 0 9 0 19 1 23 0 4 -4
9 -10 11 -6 2 -11 -5 -11 -17z"/>
<path d="M610 7615 c0 -8 2 -15 4 -15 2 0 6 7 10 15 3 8 1 15 -4 15 -6 0 -10
-7 -10 -15z"/>
<path d="M980 7153 c1 -44 2 -47 15 -29 16 21 18 36 9 60 -12 31 -24 15 -24
-31z"/>
<path d="M4450 7150 c0 -5 5 -10 10 -10 6 0 10 5 10 10 0 6 -4 10 -10 10 -5 0
-10 -4 -10 -10z"/>
<path d="M4040 6938 c0 -13 4 -29 9 -36 13 -21 23 15 11 39 -14 25 -20 24 -20
-3z"/>
<path d="M4290 6830 c0 -15 5 -20 18 -18 9 2 17 10 17 18 0 8 -8 16 -17 18
-13 2 -18 -3 -18 -18z"/>
<path d="M2370 6764 c0 -8 5 -12 10 -9 6 3 10 10 10 16 0 5 -4 9 -10 9 -5 0
-10 -7 -10 -16z"/>
<path d="M2800 6750 c0 -19 3 -21 12 -12 9 9 9 15 0 24 -9 9 -12 7 -12 -12z"/>
<path d="M4165 6750 c3 -5 11 -10 16 -10 6 0 7 5 4 10 -3 6 -11 10 -16 10 -6
0 -7 -4 -4 -10z"/>
<path d="M2900 6663 c0 -5 5 -15 10 -23 8 -12 10 -11 10 8 0 12 -4 22 -10 22
-5 0 -10 -3 -10 -7z"/>
<path d="M1968 6609 c-28 -39 -34 -60 -21 -72 10 -10 33 13 33 33 0 9 9 29 20
42 17 23 18 39 1 38 -3 -1 -18 -19 -33 -41z"/>
<path d="M1081 6614 c0 -11 3 -14 6 -6 3 7 2 16 -1 19 -3 4 -6 -2 -5 -13z"/>
<path d="M3220 6554 c0 -8 5 -12 10 -9 6 3 10 10 10 16 0 5 -4 9 -10 9 -5 0
-10 -7 -10 -16z"/>
<path d="M3820 6540 c0 -5 12 -10 26 -10 14 0 23 4 19 10 -3 6 -15 10 -26 10
-10 0 -19 -4 -19 -10z"/>
<path d="M3240 6466 c0 -8 5 -18 10 -21 6 -3 10 1 10 9 0 8 -4 18 -10 21 -5 3
-10 -1 -10 -9z"/>
<path d="M3627 5724 c-4 -4 -7 -14 -7 -23 0 -11 3 -12 11 -4 6 6 10 16 7 23
-2 6 -7 8 -11 4z"/>
<path d="M1338 4483 c7 -3 16 -2 19 1 4 3 -2 6 -13 5 -11 0 -14 -3 -6 -6z"/>
<path d="M915 4380 c-4 -6 6 -10 22 -10 22 0 25 2 13 10 -19 12 -27 12 -35 0z"/>
<path d="M800 4320 c0 -5 4 -10 9 -10 6 0 13 5 16 10 3 6 -1 10 -9 10 -9 0
-16 -4 -16 -10z"/>
<path d="M690 4250 c0 -5 5 -10 10 -10 6 0 10 5 10 10 0 6 -4 10 -10 10 -5 0
-10 -4 -10 -10z"/>
<path d="M4924 3545 c10 -8 23 -12 28 -9 14 9 -2 24 -25 24 -21 -1 -21 -1 -3
-15z"/>
<path d="M4047 2673 c10 -15 19 -21 26 -14 12 12 2 27 -22 34 -19 5 -19 4 -4
-20z"/>
<path d="M896 2409 c-39 -46 -71 -107 -61 -117 6 -7 21 9 88 89 26 33 36 69
18 69 -5 0 -25 -18 -45 -41z"/>
<path d="M893 2180 c-33 -20 -53 -48 -53 -74 0 -32 26 -14 57 39 17 30 31 55
30 55 -1 0 -16 -9 -34 -20z"/>
<path d="M4139 2161 c11 -20 41 -47 41 -37 0 15 -20 44 -35 50 -12 4 -13 2 -6
-13z"/>
<path d="M4112 2091 c13 -17 27 -30 32 -30 5 -1 2 7 -7 17 -10 10 -17 24 -17
30 0 7 -7 12 -16 12 -12 0 -11 -6 8 -29z"/>
<path d="M4180 2101 c0 -5 5 -13 10 -16 6 -3 10 -2 10 4 0 5 -4 13 -10 16 -5
3 -10 2 -10 -4z"/>
<path d="M4165 2030 c10 -11 20 -20 23 -20 3 0 -3 9 -13 20 -10 11 -20 20 -23
20 -3 0 3 -9 13 -20z"/>
<path d="M501 2026 c-16 -19 -11 -29 8 -17 7 5 12 14 9 21 -3 9 -8 7 -17 -4z"/>
<path d="M4210 1970 c0 -5 5 -10 11 -10 5 0 7 5 4 10 -3 6 -8 10 -11 10 -2 0
-4 -4 -4 -10z"/>
<path d="M445 1950 c-3 -5 -1 -10 4 -10 6 0 11 5 11 10 0 6 -2 10 -4 10 -3 0
-8 -4 -11 -10z"/>
<path d="M4120 1916 c0 -2 7 -9 15 -16 12 -10 15 -10 15 4 0 9 -7 16 -15 16
-8 0 -15 -2 -15 -4z"/>
<path d="M859 1733 l-34 -38 38 34 c20 19 37 36 37 38 0 8 -8 0 -41 -34z"/>
<path d="M4288 1718 c-5 -28 6 -57 18 -45 4 3 3 21 -3 39 l-9 33 -6 -27z"/>
<path d="M803 1683 c-7 -2 -13 -11 -13 -20 0 -20 34 -12 38 10 3 17 -3 20 -25
10z"/>
<path d="M421 1644 c0 -11 3 -14 6 -6 3 7 2 16 -1 19 -3 4 -6 -2 -5 -13z"/>
<path d="M3750 1603 c0 -5 5 -15 10 -23 8 -12 10 -11 10 8 0 12 -4 22 -10 22
-5 0 -10 -3 -10 -7z"/>
<path d="M3940 1581 c0 -5 5 -13 10 -16 6 -3 10 -2 10 4 0 5 -4 13 -10 16 -5
3 -10 2 -10 -4z"/>
<path d="M1170 1554 c0 -8 5 -12 10 -9 6 3 10 10 10 16 0 5 -4 9 -10 9 -5 0
-10 -7 -10 -16z"/>
<path d="M610 1505 c0 -8 5 -15 10 -15 6 0 10 7 10 15 0 8 -4 15 -10 15 -5 0
-10 -7 -10 -15z"/>
<path d="M1363 1505 c-3 -9 -3 -18 -1 -21 3 -3 8 4 11 16 6 23 -1 27 -10 5z"/>
<path d="M400 1465 c-7 -9 -10 -18 -7 -21 3 -3 10 4 17 15 13 25 8 27 -10 6z"/>
<path d="M4570 1359 c10 -35 17 -45 26 -37 5 6 -22 68 -31 68 -2 0 0 -14 5
-31z"/>
<path d="M1613 1359 c-7 -7 -13 -22 -13 -33 0 -19 1 -19 16 -4 9 8 14 23 12
32 -2 14 -5 15 -15 5z"/>
<path d="M1682 1190 c0 -14 2 -19 5 -12 2 6 2 18 0 25 -3 6 -5 1 -5 -13z"/>
<path d="M1744 1020 c-27 -11 -39 -39 -19 -46 19 -8 38 5 31 21 -2 7 1 18 7
24 13 13 10 13 -19 1z"/>
<path d="M3244 1014 c3 -8 6 -18 6 -20 0 -2 5 -4 10 -4 16 0 11 27 -6 34 -12
5 -15 2 -10 -10z"/>
<path d="M3130 980 c0 -5 5 -10 11 -10 5 0 7 5 4 10 -3 6 -8 10 -11 10 -2 0
-4 -4 -4 -10z"/>
<path d="M1724 876 c-29 -13 -79 -64 -71 -73 5 -4 39 10 73 30 74 43 72 75 -2
43z"/>
<path d="M3189 849 c13 -5 39 -23 58 -39 38 -34 56 -38 51 -13 -3 19 -83 63
-113 62 -17 0 -17 -1 4 -10z"/>
<path d="M1721 742 c-12 -18 -18 -32 -13 -32 15 0 44 38 40 51 -2 7 -14 -1
-27 -19z"/>
<path d="M1919 714 c-5 -15 -7 -29 -5 -32 5 -4 10 6 22 46 7 23 -7 12 -17 -14z"/>
<path d="M1895 647 c-4 -10 -5 -21 -1 -24 10 -10 18 4 13 24 -4 17 -4 17 -12
0z"/>
<path d="M2050 600 c-8 -5 -11 -12 -7 -16 4 -4 13 -2 19 4 15 15 7 24 -12 12z"/>
<path d="M2926 596 c3 -9 11 -16 16 -16 13 0 5 23 -10 28 -7 2 -10 -2 -6 -12z"/>
<path d="M1972 578 c-7 -7 -12 -17 -12 -23 0 -6 -16 -30 -35 -52 -43 -50 -46
-75 -5 -36 17 15 30 36 30 45 0 11 8 18 19 18 24 0 45 25 37 45 -7 18 -18 19
-34 3z"/>
<path d="M3166 519 c9 -60 24 -73 24 -22 0 24 -6 46 -15 53 -14 12 -15 8 -9
-31z"/>
<path d="M2078 516 c-20 -25 -24 -36 -15 -45 6 -6 14 -11 18 -11 12 0 50 71
44 81 -10 15 -19 11 -47 -25z"/>
<path d="M2835 520 c-7 -12 32 -75 65 -105 19 -17 19 -17 4 21 -21 52 -59 100
-69 84z"/>
<path d="M3090 460 c0 -19 3 -21 12 -12 9 9 9 15 0 24 -9 9 -12 7 -12 -12z"/>
<path d="M2025 457 c-4 -10 -5 -21 -1 -24 10 -10 18 4 13 24 -4 17 -4 17 -12
0z"/>
<path d="M2153 449 c-6 -8 -14 -24 -17 -36 -10 -33 12 -29 25 4 12 32 7 50 -8
32z"/>
<path d="M2930 363 c0 -13 5 -23 10 -23 13 0 13 11 0 30 -8 12 -10 11 -10 -7z"/>
<path d="M2580 188 c0 -26 5 -50 10 -53 17 -10 16 72 -1 90 -5 5 -9 -9 -9 -37z"/>
<path d="M2500 183 c0 -22 2 -25 10 -13 13 20 13 40 0 40 -5 0 -10 -12 -10
-27z"/>
<path d="M2312 163 c-14 -26 -16 -63 -2 -63 12 0 23 42 18 67 -4 16 -5 16 -16
-4z"/>
</g>
</svg>
