<?xml version="1.0" standalone="no"?>
<!DOCTYPE svg PUBLIC "-//W3C//DTD SVG 20010904//EN"
 "http://www.w3.org/TR/2001/REC-SVG-20010904/DTD/svg10.dtd">
<svg version="1.0" xmlns="http://www.w3.org/2000/svg"
 width="588.000000pt" height="225.000000pt" viewBox="0 0 588.000000 225.000000"
 preserveAspectRatio="xMidYMid meet">
<metadata>
Created by potrace 1.16, written by Peter Selinger 2001-2019
</metadata>
<g transform="translate(0.000000,225.000000) scale(0.100000,-0.100000)"
fill="#000000" stroke="none">
<path d="M5230 2244 c-68 -13 -747 -106 -900 -123 -214 -25 -591 -41 -965 -41
-270 0 -846 -18 -1276 -40 -141 -7 -248 -7 -340 0 -255 19 -436 8 -794 -50
-210 -34 -320 -61 -505 -126 -312 -108 -351 -144 -385 -356 -24 -155 -65 -511
-65 -570 0 -119 38 -184 164 -283 173 -134 366 -238 561 -303 144 -48 518
-141 705 -176 261 -49 580 -82 1005 -106 105 -6 429 -24 720 -41 556 -33 812
-34 1160 -9 276 20 525 66 633 115 114 52 316 243 455 430 65 87 207 364 305
595 34 80 77 182 97 226 37 84 75 260 75 344 0 62 -25 155 -57 210 -63 108
-222 240 -338 281 -59 21 -199 33 -255 23z"/>
</g>
</svg>
