<?xml version="1.0" encoding="UTF-8" standalone="no"?>
<!-- Created with Inkscape (http://www.inkscape.org/) -->

<svg
   xmlns:svg="http://www.w3.org/2000/svg"
   xmlns="http://www.w3.org/2000/svg"
   version="1.2"
   width="100%"
   height="100%"
   viewBox="0 0 221.4 219.1"
   id="Layer_1"
   xml:space="preserve"><defs
   id="defs15" />
<path
   d="m 72,70.7 c 0.5,-0.2 2.2,-0.3 2.7,-1.4 0.4,-0.8 -0.1,-1.7 -0.3,-2.2 C 71.7,61.2 70.6,64.9 71,62.3 71.5,59.4 68.2,54.5 69.8,53.9 71.3,53.4 68.3,51.4 69.6,48.2 71,45 68.7,45 70.3,44 c 2,-1.3 -0.1,-2.4 1.8,-5 1.7,-2.2 0.1,-3.1 0.9,-4.6 0.8,-1.7 -0.1,-2.3 3.1,-3.5 2.6,-1 0.3,-3.4 2.4,-4.7 1.4,-0.8 -0.7,-3.7 3.2,-3.6 1.2,0 1,-2.5 2.5,-2.1 2.6,0.6 0.8,-3.3 2.5,-3.9 1.8,-0.6 1.2,-2.5 3.9,-3 1.9,-0.3 -0.8,-1.8 2.2,-2.3 2.5,-0.4 1.2,-2.6 2.7,-2.6 0.8,0 0.6,-1.7 2.2,-1.7 1.3,0 -0.4,-1.5 2,-2.2 1.7,-0.4 3.3,-1.3 3.1,-1.7 -0.7,-1.9 2.2,-0.4 2.6,-1.1 1.3,-2.2 1.2,-0.9 3.4,0.1 1.6,0.7 2.5,2.1 4.9,2 1.4,-0.1 1.6,1.3 2.8,0.8 1.1,-0.4 2,1.6 2.9,1.3 1.6,-0.5 2,2 2.8,1.6 1.4,-0.6 1,2.3 2,2.4 1.1,0.1 0.9,1.4 2.7,1.3 0.2,0 1.5,2.1 4,2.6 1.9,0.4 1,2.4 3,3.2 2.1,0.8 1.2,2.2 3.1,2.6 1.9,0.4 0.9,3.2 2.8,4 3,1.2 1.6,3.8 3.7,4.3 1.9,0.4 -0.4,3.7 2.6,5.6 3.8,2.3 1.3,5.1 2.8,5.9 1,0.5 -1.6,2.4 0.5,5.6 2.5,3.9 -1.1,4.9 0.5,6.3 2.1,1.8 -1.4,5.3 -0.6,6.3 2.6,3.1 -3.3,6 -2,8 1.6,2.6 -1.4,5.4 -0.4,6.8 4.1,5.2 0.7,23.1 -2.2,29.6 -6.9,15.3 -52.9,20.9 -68.5,0.3 C 67.5,90.9 68.7,71.9 72,70.7 z"
   id="path3"
   style="stroke:#000000;stroke-miterlimit:10" />
<path
   d="m 59.3,143.1 c -0.1,-0.6 0.3,-2.2 -0.7,-3 -0.7,-0.5 -1.6,-0.4 -2.3,-0.3 -6.4,1.1 -3.1,3.1 -5.5,2 -2.7,-1.2 -8.3,0.6 -8.4,-1 -0.1,-1.6 -2.8,0.8 -5.5,-1.3 -2.7,-2.1 -3.3,0 -3.9,-1.7 -0.8,-2.2 -2.4,-0.5 -4.4,-3.1 -1.7,-2.2 -2.9,-0.9 -4.3,-2.1 -1.4,-1.3 -2.3,-0.5 -2.6,-3.9 -0.3,-2.8 -3.2,-1.2 -3.9,-3.5 -0.4,-1.6 -3.7,-0.3 -2.7,-4 0.3,-1.1 -2.2,-1.6 -1.4,-3 1.3,-2.4 -3,-1.7 -3.1,-3.4 -0.1,-1.9 -2.1,-1.8 -1.9,-4.5 0.2,-2 -1.9,0.4 -1.6,-2.7 0.3,-2.5 -2.2,-1.8 -1.8,-3.3 0.2,-0.8 -1.5,-1 -1.1,-2.6 0.3,-1.3 -1.6,0 -1.6,-2.5 0,-1.7 -0.4,-3.5 -0.8,-3.5 -2,0.2 0.2,-2.2 -0.4,-2.8 -1.8,-1.8 -0.6,-1.4 1,-3.3 1.1,-1.3 2.7,-1.9 3.2,-4.2 0.3,-1.4 1.6,-1.2 1.5,-2.5 -0.1,-1.2 2.1,-1.5 2,-2.5 0,-1.7 2.4,-1.4 2.3,-2.3 -0.2,-1.5 2.5,-0.4 2.9,-1.3 0.4,-1 1.5,-0.5 2,-2.3 0,-0.2 2.4,-1 3.5,-3.2 0.9,-1.7 2.6,-0.4 3.8,-2.1 1.3,-1.8 2.4,-0.6 3.3,-2.3 0.9,-1.7 3.3,0 4.6,-1.7 1.9,-2.5 4.1,-0.5 5.1,-2.5 0.9,-1.7 3.5,1.4 6.1,-1.1 3.2,-3.1 5.3,0 6.4,-1.2 0.7,-0.8 1.9,2.2 5.5,1 4.4,-1.4 4.5,2.3 6.2,1.2 2.3,-1.5 4.8,2.8 5.9,2.3 3.7,-1.7 4.9,4.7 7.2,4 3,-0.9 4.9,2.8 6.5,2.1 6.1,-2.6 22.4,5.3 28,9.8 13,10.6 6.5,56.5 -17.4,66.2 -13.4,5.7 -31.4,-0.4 -31.7,-3.9 z"
   id="path5"
   style="stroke:#000000;stroke-miterlimit:10" />
<path
   d="m 106.4,180.1 c 0.6,-0.2 1.9,-1.1 3,-0.5 0.8,0.4 1,1.4 1.1,2 1.3,6.4 -1.7,4 0.2,5.9 2.1,2.1 2.5,7.9 4,7.4 1.5,-0.5 0.3,2.9 3.3,4.7 3,1.8 1.2,3.1 3.1,3 2.4,-0.1 1.4,2 4.5,2.9 2.7,0.8 1.9,2.4 3.5,3.2 1.7,0.9 1.3,1.9 4.6,1 2.7,-0.8 2.3,2.6 4.7,2.3 1.6,-0.2 1.7,3.4 4.7,1 0.9,-0.7 2.3,1.4 3.3,0.2 1.7,-2.1 2.7,2.2 4.3,1.6 1.8,-0.6 2.5,1.3 4.9,0.1 1.8,-0.9 0.4,1.9 3.1,0.5 2.3,-1.2 2.5,1.4 3.8,0.5 0.6,-0.5 1.5,1 2.8,0.1 1.1,-0.8 0.6,1.5 2.9,0.5 1.6,-0.7 3.4,-0.9 3.5,-0.5 0.5,1.9 2,-1 2.7,-0.6 2.4,1 1.5,0 2.7,-2.2 0.8,-1.5 0.8,-3.2 2.7,-4.5 1.2,-0.8 0.5,-2 1.8,-2.3 1.1,-0.3 0.6,-2.5 1.5,-2.8 1.6,-0.6 0.4,-2.8 1.3,-3 1.5,-0.3 -0.5,-2.4 0.2,-3.2 0.8,-0.8 -0.1,-1.6 1.4,-2.7 0.2,-0.1 0,-2.6 1.6,-4.4 1.3,-1.4 -0.6,-2.5 0.5,-4.3 1.2,-1.9 -0.3,-2.5 0.9,-3.9 1.3,-1.4 -1.2,-3.1 -0.1,-4.9 1.6,-2.8 -1,-4 0.4,-5.7 1.3,-1.5 -2.6,-2.7 -1.2,-6.1 1.7,-4.1 -2,-4.9 -1.3,-6.4 0.5,-1 -2.7,-0.9 -3,-4.8 -0.3,-4.6 -3.8,-3.3 -3.4,-5.3 0.6,-2.7 -4.3,-3.4 -4.3,-4.6 0.2,-4 -6.2,-2.8 -6.4,-5.2 -0.2,-3.1 -4.4,-3.5 -4.4,-5.2 0.1,-6.6 -13.2,-18.9 -19.5,-22.4 -14.7,-8.1 -54.9,14.9 -55.1,40.7 0,14.4 12.3,28.8 15.7,27.9 z"
   id="path7"
   style="stroke:#000000;stroke-miterlimit:10" />
<path
   d="m 116.6,182.6 c -0.6,-0.2 -1.9,-1.1 -3,-0.5 -0.8,0.4 -1,1.4 -1.1,2 -1.4,6.4 1.7,4 -0.2,5.9 -2.1,2.1 -2.6,7.9 -4.1,7.4 -1.5,-0.5 -0.3,2.9 -3.3,4.6 -3,1.7 -1.2,3.1 -3.1,3 -2.4,-0.1 -1.4,2 -4.5,2.9 -2.7,0.8 -1.9,2.4 -3.5,3.2 -1.7,0.8 -1.3,1.9 -4.6,0.9 -2.6,-0.8 -2.4,2.5 -4.8,2.3 -1.6,-0.2 -1.7,3.3 -4.7,1 -0.9,-0.7 -2.3,1.4 -3.3,0.2 -1.7,-2.1 -2.7,2.1 -4.3,1.6 -1.8,-0.6 -2.5,1.3 -4.9,0 -1.7,-0.9 -0.4,1.9 -3.1,0.4 -2.3,-1.2 -2.5,1.3 -3.8,0.4 -0.6,-0.5 -1.5,1 -2.8,0.1 -1.1,-0.8 -0.6,1.5 -2.9,0.5 -1.6,-0.7 -3.4,-0.9 -3.5,-0.5 -0.5,1.9 -2,-1 -2.7,-0.7 -2.4,0.9 -1.5,0 -2.7,-2.2 -0.8,-1.5 -0.7,-3.2 -2.7,-4.6 -1.1,-0.8 -0.5,-2 -1.7,-2.4 -1.1,-0.3 -0.6,-2.5 -1.5,-2.8 -1.6,-0.6 -0.3,-2.8 -1.2,-3 -1.5,-0.3 0.6,-2.4 -0.2,-3.2 -0.8,-0.8 0.1,-1.6 -1.3,-2.7 -0.2,-0.1 0,-2.6 -1.6,-4.5 -1.3,-1.4 0.6,-2.5 -0.5,-4.4 -1.2,-1.9 0.3,-2.5 -0.9,-3.9 -1.3,-1.4 1.2,-3.1 0.2,-4.9 -1.6,-2.8 1.1,-4 -0.3,-5.7 -1.3,-1.5 2.6,-2.7 1.3,-6 -1.6,-4.1 2.1,-4.9 1.3,-6.4 -0.5,-1 2.7,-0.9 3,-4.8 0.3,-4.6 3.9,-3.3 3.5,-5.3 -0.5,-2.7 4.4,-3.4 4.3,-4.6 -0.1,-4 6.2,-2.8 6.4,-5.1 0.3,-3.1 4.4,-3.5 4.4,-5.2 -0.1,-6.6 13.4,-18.8 19.7,-22.2 14.8,-8 54.8,15.4 54.7,41.3 -0.1,14.5 -12.6,28.9 -16,27.9 z"
   id="path9"
   style="stroke:#000000;stroke-miterlimit:10" />
<path
   d="m 163.5,145.2 c 0,-0.6 -0.3,-2.2 0.6,-3 0.7,-0.6 1.6,-0.4 2.2,-0.3 6.4,0.9 3.2,3 5.6,1.9 2.7,-1.3 8.3,0.4 8.4,-1.2 0.1,-1.6 2.8,0.8 5.5,-1.5 2.7,-2.2 3.3,0 3.9,-1.8 0.7,-2.3 2.4,-0.6 4.3,-3.2 1.7,-2.2 2.9,-1 4.2,-2.2 1.4,-1.3 2.3,-0.6 2.5,-4 0.2,-2.8 3.2,-1.3 3.8,-3.6 0.4,-1.6 3.7,-0.4 2.6,-4.1 -0.3,-1.1 2.1,-1.7 1.3,-3 -1.4,-2.3 2.9,-1.7 3,-3.5 0.1,-1.9 2.1,-1.9 1.8,-4.6 -0.2,-2 1.9,0.3 1.5,-2.8 -0.3,-2.5 2.1,-1.9 1.7,-3.4 -0.2,-0.8 1.5,-1 1,-2.6 -0.3,-1.3 1.6,0 1.5,-2.5 -0.1,-1.7 0.3,-3.5 0.8,-3.5 2,0.2 -0.2,-2.2 0.3,-2.8 1.7,-1.9 0.6,-1.4 -1.1,-3.3 -1.2,-1.3 -2.8,-1.8 -3.3,-4.1 -0.3,-1.4 -1.7,-1.1 -1.6,-2.5 0.1,-1.2 -2.1,-1.4 -2.1,-2.4 0,-1.7 -2.5,-1.3 -2.4,-2.2 0.2,-1.5 -2.5,-0.3 -2.9,-1.3 -0.5,-1 -1.5,-0.4 -2,-2.2 -0.1,-0.2 -2.4,-0.9 -3.6,-3.1 -0.9,-1.7 -2.6,-0.3 -3.9,-2 -1.4,-1.8 -2.4,-0.6 -3.3,-2.2 -0.9,-1.7 -3.3,0 -4.6,-1.5 -2,-2.5 -4.1,-0.4 -5.2,-2.3 -1,-1.7 -3.5,1.5 -6.1,-0.9 -3.3,-3 -5.3,0.2 -6.5,-1 -0.7,-0.8 -1.8,2.2 -5.5,1.1 -4.4,-1.3 -4.4,2.5 -6.2,1.3 -2.3,-1.5 -4.7,2.9 -5.8,2.4 -3.7,-1.6 -4.8,4.8 -7,4.2 -3,-0.8 -4.8,2.9 -6.4,2.3 -6.2,-2.4 -22.3,5.9 -27.7,10.6 -12.7,11 -5,56.7 19.2,65.8 13.4,5.1 31.3,-1.5 31.5,-5 z"
   id="path11"
   style="stroke:#000000;stroke-miterlimit:10" />
</svg>