<?xml version="1.0" standalone="no"?>
<!DOCTYPE svg PUBLIC "-//W3C//DTD SVG 20010904//EN"
 "http://www.w3.org/TR/2001/REC-SVG-20010904/DTD/svg10.dtd">
<svg version="1.0" xmlns="http://www.w3.org/2000/svg"
 width="1536.000000pt" height="798.000000pt" viewBox="0 0 1536.000000 798.000000"
 preserveAspectRatio="xMidYMid meet">
<metadata>
Created by potrace 1.16, written by Peter Selinger 2001-2019
</metadata>
<g transform="translate(0.000000,798.000000) scale(0.100000,-0.100000)"
fill="#000000" stroke="none">
<path d="M7495 7957 c-37 -21 -208 -91 -281 -115 -21 -7 -35 -7 -42 0 -6 6
-23 3 -48 -10 -22 -11 -59 -23 -84 -27 -25 -4 -62 -16 -82 -26 -41 -21 -103
-25 -114 -8 -4 7 -34 9 -95 4 l-89 -7 0 36 c0 31 -3 36 -24 36 -13 0 -44 -10
-68 -21 -69 -35 -80 -38 -144 -48 -110 -17 -137 -28 -184 -77 -57 -58 -101
-80 -181 -94 -82 -13 -196 -13 -204 0 -4 6 -12 7 -18 3 -7 -4 -48 -8 -92 -9
-44 -1 -92 -5 -106 -9 -23 -6 -29 -2 -45 24 -21 36 -27 37 -62 12 -54 -38
-194 -55 -258 -31 -14 6 -60 12 -100 14 -41 2 -81 9 -89 16 -11 9 -34 10 -81
5 -63 -6 -66 -6 -59 12 16 38 17 73 2 78 -8 4 -52 -12 -98 -33 -46 -22 -108
-45 -137 -51 -70 -15 -162 -14 -162 0 0 8 -14 9 -47 4 -27 -4 -87 -8 -134 -10
-47 -1 -97 -5 -112 -9 -15 -3 -29 -1 -33 5 -4 6 -20 8 -40 4 l-34 -6 0 46 c0
25 -3 45 -7 45 -11 0 -55 -31 -84 -58 -38 -37 -76 -62 -83 -55 -3 3 -6 22 -6
40 0 43 -19 40 -34 -5 -15 -44 -142 -192 -164 -192 -10 0 -31 -13 -47 -30 -16
-16 -34 -30 -41 -30 -7 0 -34 -18 -59 -40 -48 -42 -60 -47 -70 -30 -12 19 -25
10 -45 -30 -12 -24 -27 -40 -38 -40 -22 0 -57 -36 -67 -67 -7 -24 -20 -30 -30
-13 -11 18 -23 10 -60 -41 -35 -49 -37 -50 -55 -34 -18 16 -20 15 -34 -20 -9
-21 -16 -41 -16 -46 0 -4 -18 -29 -41 -55 -22 -26 -59 -72 -81 -102 l-41 -55
-17 22 c-20 28 -27 21 -70 -72 -17 -37 -42 -74 -55 -83 -13 -9 -27 -25 -30
-35 -5 -14 -12 -18 -26 -14 -15 5 -22 0 -30 -23 -20 -57 -46 -97 -68 -102 -16
-4 -31 -24 -51 -71 -59 -139 -96 -174 -142 -132 -17 15 -19 15 -33 -3 -8 -10
-15 -27 -15 -36 0 -28 -20 -112 -30 -128 -7 -12 -12 -12 -29 4 -19 17 -20 17
-30 -21 -6 -21 -11 -51 -11 -66 0 -20 -6 -30 -20 -34 -11 -3 -20 -13 -20 -22
0 -9 -5 -23 -10 -31 -8 -12 -14 -10 -36 18 -34 43 -51 41 -59 -9 -7 -42 1
-170 14 -217 10 -38 -11 -116 -32 -120 -9 -2 -29 6 -43 17 -15 12 -37 21 -50
21 -22 0 -24 -4 -24 -55 l0 -55 -32 2 -33 3 3 -55 c2 -30 -1 -68 -7 -83 -11
-28 -14 -29 -68 -25 -53 3 -57 1 -64 -22 -4 -14 -7 -40 -8 -57 -1 -18 -10 -42
-21 -53 -14 -14 -20 -36 -22 -82 -2 -50 -6 -62 -18 -59 -8 2 -30 6 -47 9 -32
4 -33 3 -33 -30 0 -18 9 -58 20 -88 27 -73 27 -141 0 -158 -13 -8 -20 -23 -20
-42 l0 -29 -29 17 c-16 9 -33 13 -37 10 -3 -4 7 -56 25 -117 40 -140 41 -183
4 -209 -16 -10 -34 -17 -40 -15 -8 3 -13 -5 -13 -21 0 -28 -14 -35 -24 -11 -5
15 -46 22 -46 8 0 -5 9 -37 20 -71 30 -96 27 -170 -11 -248 -25 -51 -36 -64
-54 -64 -19 0 -23 -7 -29 -46 -3 -26 -6 -67 -6 -91 l0 -43 -25 16 c-23 15 -25
15 -31 0 -3 -9 -4 -25 -1 -36 3 -11 1 -20 -4 -20 -5 0 -9 -16 -9 -35 0 -19 -4
-35 -10 -35 -5 0 -10 -15 -10 -32 l-1 -33 -15 29 c-24 44 -39 19 -27 -43 8
-41 7 -51 -5 -56 -10 -4 -12 -14 -8 -40 8 -42 6 -42 -97 -19 -62 14 -81 24
-132 69 -196 171 -345 281 -457 337 -91 46 -244 94 -270 86 -6 -2 29 -14 78
-26 109 -26 249 -96 357 -177 44 -33 92 -69 107 -80 51 -38 210 -178 207 -181
-2 -2 -39 3 -83 10 -178 31 -397 49 -549 43 -82 -3 -161 -10 -175 -16 -20 -8
-12 -9 35 -3 146 18 443 3 685 -35 l105 -17 78 -75 c89 -86 105 -85 20 1 -32
32 -51 58 -43 57 28 -1 129 -24 136 -31 4 -4 -1 -18 -9 -32 -9 -14 -19 -55
-22 -92 -6 -74 -15 -93 -35 -69 -16 19 -49 20 -56 1 -4 -11 -24 -5 -90 25 -87
41 -413 154 -421 146 -2 -3 67 -28 154 -57 87 -29 204 -74 261 -101 99 -46
122 -69 86 -83 -12 -5 -15 -16 -12 -41 2 -19 1 -35 -3 -35 -4 0 -37 14 -73 31
-75 35 -129 51 -516 150 -385 99 -436 109 -560 107 l-105 -1 120 -7 c133 -8
157 -13 500 -100 359 -91 494 -129 560 -159 l60 -27 -2 -50 c-1 -27 -2 -52 -2
-56 -1 -5 -23 -8 -50 -8 -40 0 -50 -3 -53 -19 -3 -16 -15 -12 -113 35 -60 28
-157 69 -215 89 -103 36 -279 79 -288 71 -5 -6 67 -26 91 -26 42 0 302 -95
417 -153 121 -61 155 -87 110 -87 -21 0 -22 -3 -16 -45 7 -43 6 -45 -17 -45
-13 0 -62 13 -110 29 -112 38 -355 91 -410 90 -33 -1 -24 -4 38 -14 165 -26
449 -101 478 -125 15 -13 -4 -60 -25 -60 -12 0 -22 -9 -25 -21 -4 -15 -11 -19
-27 -15 -11 4 -120 8 -241 10 -159 3 -192 2 -120 -4 55 -4 150 -8 211 -9 61 0
126 -4 143 -7 33 -7 43 -34 12 -34 -27 0 -43 -24 -36 -53 6 -21 2 -25 -23 -30
-35 -7 -48 -41 -28 -72 7 -12 11 -36 8 -58 -5 -46 -9 -48 -152 -71 -57 -10
-111 -22 -120 -27 -12 -8 -11 -9 5 -5 59 14 227 37 232 32 4 -3 1 -17 -5 -31
-7 -14 -12 -37 -12 -50 0 -14 -4 -25 -9 -25 -5 0 -18 -15 -29 -32 -19 -30 -34
-37 -194 -87 -157 -50 -258 -87 -258 -95 0 -2 78 22 173 54 228 75 230 76 223
52 -4 -11 -2 -30 3 -44 7 -19 5 -27 -10 -36 -11 -7 -19 -24 -19 -40 -1 -15 -7
-38 -15 -52 -8 -14 -14 -33 -15 -43 0 -40 -55 -76 -152 -101 -97 -25 -181 -54
-162 -55 7 -1 40 8 75 19 35 10 92 26 126 34 l63 14 0 -53 0 -53 -88 -53 c-91
-55 -176 -119 -168 -127 3 -2 25 12 49 32 24 20 82 59 128 86 l84 50 10 -29
c5 -16 13 -32 16 -35 3 -3 4 -18 1 -33 -3 -23 -23 -41 -104 -93 -95 -62 -308
-250 -308 -272 0 -6 46 34 103 89 58 56 148 130 209 171 l107 72 55 -27 55
-27 -174 -170 c-96 -94 -175 -178 -175 -186 1 -9 12 -1 28 20 29 37 247 251
299 294 26 22 38 25 71 20 32 -5 46 -15 75 -54 l35 -47 -19 -31 c-40 -68 -225
-298 -308 -384 -25 -27 -41 -48 -35 -48 26 0 332 373 367 448 12 25 29 28 60
8 12 -8 43 -13 70 -12 26 1 47 2 47 1 0 -16 -45 -154 -55 -169 -8 -11 -15 -27
-15 -36 0 -34 43 58 65 141 26 99 31 109 50 109 7 0 30 23 51 50 21 28 39 50
40 50 0 0 -2 -21 -7 -47 -18 -109 -131 -410 -209 -556 -23 -44 -40 -81 -37
-83 2 -2 24 34 50 80 72 133 173 398 202 533 15 71 39 114 48 88 14 -35 57 4
57 51 0 9 6 14 13 11 23 -8 12 -169 -22 -336 -35 -170 -36 -216 -1 -69 28 121
49 267 50 345 0 71 6 93 26 93 8 0 23 14 34 32 l19 32 11 -30 c7 -17 12 -102
13 -206 1 -98 6 -178 11 -178 5 0 7 81 4 180 -3 120 -1 177 6 170 19 -19 65
-10 99 20 60 52 67 44 67 -68 0 -116 -19 -271 -55 -437 -14 -66 -39 -186 -56
-268 -33 -161 -114 -416 -173 -542 -21 -44 -31 -73 -23 -65 7 8 30 52 50 97
74 164 129 354 187 643 5 25 16 77 25 115 33 147 65 401 65 514 0 109 1 112
18 92 l17 -22 24 22 c28 27 36 18 51 -61 6 -30 17 -82 25 -115 16 -68 34 -202
38 -290 3 -47 4 -41 5 25 1 78 -12 170 -51 363 l-14 68 26 28 c14 16 33 39 42
52 14 20 19 22 33 10 9 -8 26 -11 40 -7 44 11 56 -22 57 -159 0 -66 5 -158 10
-205 16 -134 19 -501 4 -620 -24 -197 -68 -390 -116 -513 -10 -26 -15 -47 -10
-47 11 0 67 176 96 305 57 254 67 514 35 963 -17 243 -18 242 60 125 178 -269
206 -398 198 -903 -6 -314 -5 -313 13 20 10 186 9 232 -5 345 -33 264 -68 357
-212 569 -69 103 -74 114 -74 163 0 29 3 53 7 53 3 0 21 -11 39 -25 18 -14 40
-25 49 -25 14 0 16 7 10 51 -7 48 -6 50 13 38 27 -17 51 -5 58 31 4 16 10 28
14 25 4 -3 22 11 39 30 17 19 40 35 51 35 12 0 20 7 20 16 0 9 6 14 12 12 20
-7 60 -316 79 -608 5 -91 15 -208 20 -260 5 -52 13 -143 16 -202 3 -60 10
-108 14 -108 12 0 11 36 -6 180 -8 69 -19 204 -25 300 -5 96 -19 256 -30 355
-11 99 -23 206 -27 238 -3 31 -3 57 0 57 19 0 224 -330 280 -450 59 -126 110
-352 147 -650 6 -52 18 -131 26 -176 8 -44 14 -101 14 -127 0 -25 5 -49 11
-53 13 -8 8 56 -16 191 -8 44 -17 112 -20 150 -9 94 -61 408 -79 470 -44 157
-155 380 -267 538 -16 23 -41 58 -54 79 -13 20 -29 39 -35 43 -19 12 -11 26 9
15 32 -17 49 -12 56 18 3 15 17 40 30 56 l23 29 17 -33 c17 -32 18 -33 31 -15
8 10 14 25 14 32 0 7 7 13 15 13 8 0 15 5 15 10 0 6 11 15 25 20 14 5 25 14
25 19 0 6 20 -3 45 -20 36 -24 54 -30 89 -28 l44 3 112 -125 c137 -152 205
-242 253 -335 l36 -71 -21 -64 c-11 -35 -22 -88 -23 -117 l-3 -52 24 25 c23
25 63 45 89 45 7 0 36 -46 63 -102 l50 -103 -35 -20 c-58 -32 -75 -64 -82
-150 -4 -42 -3 -79 2 -82 5 -3 18 4 30 15 32 29 75 48 138 62 56 13 57 12 100
-19 75 -53 163 -52 250 4 36 23 91 94 103 132 12 36 63 78 119 97 32 11 75 34
97 53 48 41 98 63 145 63 40 0 39 2 22 -38 -10 -24 -30 -40 -82 -66 -101 -51
-158 -107 -188 -186 -23 -59 -31 -69 -94 -112 -76 -52 -109 -106 -98 -158 10
-44 29 -55 47 -27 9 12 41 35 72 51 51 26 59 27 89 15 17 -7 35 -17 39 -23 12
-18 147 12 212 47 49 27 65 43 87 85 14 28 39 61 54 74 15 13 40 35 54 50 14
16 32 28 40 28 8 0 36 18 63 41 40 34 53 39 77 34 19 -4 41 0 61 10 28 14 32
14 46 0 18 -18 24 -18 60 -5 22 9 29 8 36 -4 8 -14 13 -14 46 -1 20 9 43 23
50 33 11 14 14 15 21 3 7 -11 31 -13 123 -7 104 7 115 9 141 34 16 15 37 26
48 24 14 -2 19 3 19 20 0 42 15 50 34 18 23 -39 46 -39 46 -1 0 44 16 78 39
84 13 3 31 25 46 59 24 51 25 52 25 21 0 -26 4 -33 19 -33 22 0 117 100 138
145 13 28 14 25 8 -42 -8 -112 7 -108 84 19 53 88 71 100 71 51 0 -37 38 -111
65 -129 13 -8 29 -29 36 -47 21 -53 28 -59 52 -42 29 20 37 19 37 -5 0 -23 33
-60 53 -60 8 0 22 15 32 34 18 33 45 39 45 10 0 -19 68 -85 85 -82 8 2 34 -14
58 -34 24 -20 60 -43 80 -51 38 -16 47 -12 60 26 9 25 24 21 42 -13 19 -37 30
-38 52 -4 16 25 17 25 30 8 7 -10 13 -28 13 -41 0 -31 30 -30 60 2 13 14 31
25 40 25 9 0 21 5 28 12 9 9 15 8 26 -8 15 -19 15 -19 29 1 13 16 17 17 31 6
8 -7 18 -21 21 -32 9 -28 25 -23 25 7 0 25 0 25 34 -10 37 -40 91 -66 136 -66
29 0 30 2 30 43 0 24 5 48 12 55 17 17 58 15 80 -5 17 -15 18 -15 18 0 0 10 3
17 6 17 12 0 50 -24 61 -39 9 -13 10 -7 6 28 l-6 43 27 -17 c14 -9 26 -21 26
-25 0 -12 63 -71 94 -87 24 -12 30 -13 37 -1 5 7 9 9 9 3 0 -11 64 -85 73 -85
3 0 3 24 0 53 -3 38 -1 57 11 72 14 18 15 18 16 3 0 -21 13 -23 40 -6 17 11
24 8 49 -16 28 -27 29 -27 36 -7 3 12 12 21 20 21 12 0 45 -57 45 -79 0 -17
22 -13 46 10 l22 20 17 -45 c10 -25 15 -59 13 -76 -8 -50 19 -37 108 56 49 51
84 80 86 72 4 -11 11 -11 42 0 34 13 38 12 54 -9 22 -26 48 -21 85 16 l24 25
7 -31 c3 -17 6 -46 6 -65 0 -18 4 -36 10 -39 13 -8 86 30 138 73 23 19 44 33
46 31 2 -2 14 -32 26 -67 21 -57 25 -63 47 -57 16 4 23 1 23 -9 0 -24 20 -29
41 -10 19 17 19 16 19 -29 0 -26 4 -47 9 -47 11 0 63 50 77 75 10 17 15 18 33
8 11 -7 27 -13 35 -13 8 0 17 -7 20 -16 4 -10 12 -14 23 -10 11 5 23 -1 34
-16 l18 -23 20 48 c25 58 35 60 28 6 -10 -78 53 -52 69 29 6 31 7 32 20 14 7
-10 18 -40 25 -66 16 -66 34 -57 60 31 11 38 15 42 36 37 19 -5 25 -1 34 25
14 39 21 39 52 1 31 -36 72 -41 80 -9 4 15 11 19 25 15 16 -6 22 -1 27 24 8
36 29 39 61 9 16 -15 30 -20 46 -16 22 6 48 46 48 74 0 16 36 17 45 2 4 -6 13
-8 21 -5 17 6 17 2 4 -45 -16 -56 -74 -110 -170 -159 -25 -12 -63 -35 -86 -51
-45 -31 -118 -54 -214 -68 -170 -26 -235 -48 -296 -104 -34 -31 -61 -47 -78
-47 -65 0 -118 -23 -162 -69 -36 -38 -44 -52 -44 -84 0 -47 19 -56 58 -29 59
43 75 40 139 -27 62 -64 111 -91 164 -91 47 0 129 43 182 95 25 25 51 45 56
45 6 0 20 -18 31 -40 l20 -40 -36 -33 c-44 -38 -73 -98 -74 -148 0 -24 -7 -42
-21 -55 -33 -29 -59 -94 -59 -150 0 -103 49 -99 122 10 5 7 18 4 40 -8 44 -26
138 -24 183 4 51 32 93 85 100 127 4 21 17 63 31 94 13 31 24 60 24 64 0 16
52 75 66 75 17 0 18 -22 4 -70 -23 -77 -29 -162 -15 -195 11 -28 11 -41 -2
-87 -12 -44 -13 -64 -4 -109 15 -72 62 -131 100 -127 24 3 26 7 29 52 3 43 9
54 52 96 32 31 61 50 85 54 110 21 161 166 104 293 -24 54 -24 90 1 131 24 39
53 42 100 7 18 -14 49 -28 67 -31 49 -9 87 -58 79 -104 -8 -49 9 -104 46 -145
30 -35 67 -45 97 -26 10 7 20 0 35 -22 26 -38 51 -45 65 -18 8 14 5 47 -15
132 -20 89 -23 118 -14 142 20 59 12 118 -32 222 -35 85 -42 111 -42 170 0
123 57 268 128 328 54 45 91 115 107 201 12 65 12 67 -19 126 -30 59 -30 62
-16 102 9 26 14 80 14 152 0 99 2 115 20 134 12 12 20 30 18 40 -2 13 3 16 25
14 25 -3 26 -2 17 23 -14 37 -14 38 23 31 50 -9 63 5 34 40 -23 28 -41 64 -32
64 2 0 21 -9 41 -21 38 -21 94 -34 222 -49 41 -5 82 -12 91 -15 10 -3 34 1 54
10 22 9 68 15 117 15 44 0 80 4 80 9 0 13 58 31 101 31 40 0 50 15 27 38 -7 7
-8 12 -2 12 41 0 188 32 224 49 25 11 57 21 72 21 15 0 33 7 41 15 8 8 70 23
143 36 71 11 131 24 134 29 9 13 48 30 117 51 79 24 169 66 198 92 11 11 31
24 45 30 23 10 22 11 -25 17 l-50 6 85 42 c47 23 137 58 200 77 63 20 124 44
135 54 40 35 217 131 278 151 21 6 57 26 80 44 74 57 130 85 202 101 39 9 102
31 140 50 104 49 231 101 310 125 39 12 122 39 186 61 64 21 132 39 152 39 22
0 50 10 73 25 25 17 50 25 80 25 42 0 183 34 274 66 25 9 68 22 95 30 28 8 57
23 65 33 8 11 35 22 60 26 82 13 281 85 391 141 72 37 143 100 155 139 4 11
27 44 50 73 48 58 52 73 29 92 -23 19 -19 27 35 84 56 59 62 85 26 113 l-24
19 29 65 c31 68 33 96 30 327 -1 88 -5 111 -27 160 -19 41 -29 86 -35 157 -11
118 -17 140 -75 310 -30 87 -54 139 -73 160 -20 21 -30 44 -35 80 -5 40 -12
56 -40 80 -24 21 -39 47 -50 87 -11 37 -25 63 -40 73 -16 10 -27 32 -35 69 -7
31 -25 71 -42 92 -16 20 -29 41 -29 47 0 6 -13 40 -29 76 -16 36 -37 87 -46
113 -11 28 -39 69 -75 106 -31 33 -87 104 -123 158 -36 55 -93 126 -127 159
-55 55 -141 169 -156 208 -8 21 -22 21 -45 1 -17 -15 -19 -14 -34 22 -9 22
-26 64 -37 94 -37 101 -57 135 -125 208 -54 57 -74 72 -97 72 -20 0 -38 11
-60 35 -37 40 -51 43 -68 16 -11 -18 -15 -17 -62 24 -109 92 -196 143 -231
135 -24 -5 -40 -9 -47 -9 -4 -1 -9 -10 -13 -21 -5 -15 -12 -18 -35 -14 -26 6
-30 2 -49 -39 -26 -57 -26 -53 4 -120 14 -31 32 -88 40 -129 25 -137 54 -233
98 -333 24 -55 48 -111 52 -125 12 -40 73 -131 120 -180 40 -41 64 -78 145
-225 15 -27 39 -70 54 -95 14 -25 26 -53 26 -62 0 -39 88 -231 131 -285 16
-20 29 -47 29 -60 0 -32 156 -285 199 -323 14 -12 68 -110 94 -170 16 -36 46
-101 67 -145 71 -146 81 -177 90 -276 5 -53 12 -108 15 -122 9 -33 -17 -113
-63 -197 -69 -127 -242 -262 -408 -321 -49 -17 -97 -35 -106 -40 -10 -5 -100
-25 -200 -44 -243 -47 -291 -57 -303 -65 -5 -4 -23 -10 -40 -13 -16 -2 -57
-14 -90 -25 -108 -38 -191 -62 -214 -62 -12 0 -45 -10 -72 -21 -27 -12 -52
-19 -55 -16 -3 3 -26 -3 -51 -14 -24 -10 -52 -19 -62 -19 -9 0 -49 -16 -90
-35 -40 -19 -77 -35 -82 -35 -9 0 -140 -59 -191 -86 -14 -8 -32 -14 -40 -14
-8 0 -36 -14 -64 -31 -79 -51 -152 -85 -254 -119 -52 -17 -124 -46 -160 -65
-36 -18 -85 -41 -110 -50 -25 -9 -63 -25 -84 -36 -31 -15 -41 -17 -47 -7 -6
10 -14 9 -37 -4 -84 -50 -188 -66 -271 -42 -49 13 -65 14 -70 5 -6 -9 -20 -1
-49 25 -43 38 -54 58 -27 48 12 -5 15 4 15 44 0 65 7 81 31 75 17 -5 19 0 19
66 0 68 1 71 19 61 29 -15 30 -14 24 45 l-6 55 35 0 c45 0 51 18 30 97 -19 71
-13 89 27 98 36 8 40 28 11 65 -31 39 -25 50 24 50 25 0 47 4 50 8 2 4 -6 41
-20 82 -13 41 -24 91 -24 111 0 20 -5 50 -11 68 -8 23 -8 35 1 45 9 11 8 27
-4 67 -24 79 -21 117 9 131 33 15 32 31 -7 91 -33 51 -29 66 15 67 26 0 21 22
-24 95 -22 36 -39 74 -37 83 4 29 -12 74 -43 119 -54 81 -48 123 18 123 20 0
36 6 39 14 8 21 -18 66 -60 104 -42 38 -44 47 -13 63 12 6 23 13 25 14 1 1 -9
26 -22 55 -13 29 -22 58 -20 65 3 6 -20 40 -51 74 -36 40 -54 69 -51 79 7 23
-4 39 -37 51 -32 12 -35 31 -7 38 27 7 25 25 -6 54 -14 13 -40 41 -57 62 l-30
39 31 25 c36 27 41 49 15 57 -32 10 -83 66 -83 90 0 13 -9 31 -20 41 -13 12
-18 25 -14 37 4 13 -4 27 -25 45 -37 33 -40 53 -6 53 31 0 33 22 4 51 -27 27
-151 107 -195 125 -35 15 -38 34 -4 34 42 0 27 25 -67 115 -54 52 -101 95
-105 95 -3 0 -26 16 -50 36 -29 25 -43 45 -43 62 -1 19 -12 30 -55 51 -57 28
-72 47 -43 53 13 3 0 16 -47 47 -36 23 -65 47 -65 53 0 7 15 16 33 20 47 12
38 36 -23 58 -103 37 -107 39 -100 59 5 16 -1 19 -45 23 -58 6 -73 15 -47 30
18 9 18 10 0 23 -10 8 -44 17 -75 21 -32 4 -58 10 -58 15 0 5 25 27 55 49 30
22 55 45 55 49 0 5 -48 12 -107 16 -60 4 -124 11 -143 16 -19 5 -51 9 -70 9
-47 0 -66 12 -45 30 34 28 12 50 -51 50 -29 0 -34 4 -34 23 0 19 -11 26 -69
45 -38 12 -85 22 -103 22 -44 0 -50 7 -32 36 9 13 13 27 10 32 -3 5 -47 15
-98 22 -127 18 -164 33 -214 85 -25 27 -55 48 -73 51 -16 4 -38 15 -47 25 -10
11 -30 19 -51 19 -28 0 -33 4 -33 23 0 22 -5 24 -102 37 -57 7 -129 15 -161
17 -50 4 -60 8 -67 28 -7 19 -19 25 -57 30 -26 4 -63 11 -82 17 -18 6 -53 8
-76 5 -31 -5 -46 -2 -55 8 -18 21 -55 19 -148 -11 -98 -30 -134 -29 -142 5 -6
25 -7 25 -111 22 -94 -2 -107 0 -132 19 -21 17 -38 21 -75 18 -39 -2 -48 0
-56 17 -7 17 -20 20 -72 22 -58 3 -69 0 -118 -32 -30 -19 -57 -35 -60 -35 -2
0 -2 27 1 60 3 33 2 60 -3 60 -5 0 -27 -10 -49 -23z m-4245 -5427 c4 0 11 11
14 25 8 30 22 32 36 5 6 -11 16 -18 21 -14 6 3 19 -2 29 -11 14 -12 23 -14 36
-7 10 5 25 6 33 2 9 -4 32 -12 51 -18 31 -10 53 -12 154 -12 37 -1 46 -7 46
-30 0 -27 18 -35 39 -16 17 15 19 14 31 -25 18 -54 37 -60 69 -21 33 40 60 41
104 2 23 -20 45 -30 67 -30 23 0 33 -5 37 -20 3 -11 14 -20 24 -20 13 0 19 -7
19 -21 0 -11 5 -17 10 -14 6 4 10 -7 10 -25 l0 -31 34 26 c39 30 46 23 46 -50
0 -24 4 -47 10 -50 5 -3 26 19 46 50 20 30 40 55 43 55 3 0 6 -19 6 -43 1 -23
4 -55 8 -71 7 -26 11 -28 45 -23 20 3 47 8 60 12 17 6 22 3 22 -10 0 -13 6
-16 25 -11 21 5 25 3 25 -15 0 -22 0 -22 -157 -15 -87 4 -178 12 -203 17 -74
17 -210 -12 -210 -45 0 -6 15 -20 34 -30 19 -10 37 -25 40 -33 5 -12 -2 -13
-38 -8 -30 5 -63 1 -103 -11 -32 -9 -66 -16 -76 -15 -10 1 -34 -3 -55 -10 -20
-7 -53 -13 -72 -15 -38 -3 -80 -42 -80 -74 0 -14 -11 -22 -42 -30 -74 -19
-112 -32 -152 -52 -21 -11 -42 -16 -46 -11 -4 4 -21 33 -37 63 -60 113 -106
173 -317 410 -47 51 -86 104 -89 117 -5 28 0 29 29 2 26 -24 44 -18 44 15 0
17 5 23 17 22 12 -1 19 7 21 22 3 19 8 23 27 18 14 -4 29 0 39 9 8 8 22 15 31
15 9 0 23 7 31 15 21 21 26 19 51 -20 13 -19 29 -32 36 -29 24 9 123 -103 171
-194 25 -48 45 -81 46 -74 1 33 -76 158 -136 222 l-67 70 13 48 c18 65 22 70
33 39 5 -15 12 -27 17 -27z m226 -937 c30 -28 65 -34 119 -20 27 7 28 6 8 -5
-34 -20 -101 -101 -105 -128 -7 -48 -27 -29 -77 71 -28 57 -51 104 -51 106 0
2 17 3 39 3 27 0 46 -7 67 -27z"/>
</g>
</svg>
