<?xml version="1.0" standalone="no"?>
<!DOCTYPE svg PUBLIC "-//W3C//DTD SVG 20010904//EN"
 "http://www.w3.org/TR/2001/REC-SVG-20010904/DTD/svg10.dtd">
<svg version="1.0" xmlns="http://www.w3.org/2000/svg"
 width="1536.000000pt" height="1386.000000pt" viewBox="0 0 1536.000000 1386.000000"
 preserveAspectRatio="xMidYMid meet">
<metadata>
Created by potrace 1.16, written by Peter Selinger 2001-2019
</metadata>
<g transform="translate(0.000000,1386.000000) scale(0.100000,-0.100000)"
fill="#000000" stroke="none">
<path d="M7217 13827 c-100 -30 -115 -38 -219 -117 l-112 -85 -80 -140 -80
-140 -8 -205 c-7 -221 7 -406 53 -685 21 -123 21 -140 9 -315 -6 -102 -13
-187 -15 -189 -2 -2 -31 50 -63 115 -55 109 -66 124 -129 175 -45 37 -128 86
-238 142 l-170 84 -165 12 c-245 16 -491 14 -666 -8 l-150 -18 -150 -109 c-82
-60 -237 -176 -345 -258 l-196 -148 -23 -112 c-13 -61 -26 -117 -30 -124 -5
-10 -43 28 -118 116 l-112 131 -22 99 c-23 98 -24 101 -178 334 l-154 236 -94
46 -93 46 -191 -82 -191 -83 -53 -140 -54 -140 6 -120 6 -120 -82 -265 c-80
-259 -266 -796 -281 -814 -4 -4 -96 4 -206 18 l-199 27 -153 -40 c-85 -22
-158 -44 -162 -48 -3 -4 -75 -126 -158 -271 -134 -233 -160 -288 -239 -490
l-89 -227 -7 -147 -6 -146 -175 -654 -175 -653 -10 -340 c-6 -227 -22 -502
-49 -825 l-39 -485 -432 -1285 -431 -1285 65 -735 c67 -743 146 -1705 146
-1767 0 -18 -27 -102 -60 -186 l-60 -152 -195 -235 c-143 -172 -194 -240 -191
-255 2 -11 14 -80 26 -152 13 -73 27 -133 32 -133 16 0 461 170 481 183 18 12
277 531 277 556 0 8 -14 51 -31 95 l-31 82 62 192 61 191 -6 218 c-8 285 -53
1395 -61 1499 l-6 81 -104 124 c-57 68 -104 127 -104 130 0 3 45 71 99 151
l99 146 125 393 125 394 481 1149 c264 631 481 1154 481 1160 0 7 -18 27 -40
45 -22 17 -40 37 -40 44 0 7 20 42 44 79 38 59 53 102 141 415 54 191 101 352
105 357 5 4 55 0 113 -10 l106 -18 103 78 c57 43 162 138 233 211 l130 134
493 152 c271 83 494 150 496 148 1 -2 -15 -150 -37 -329 l-40 -325 17 -210 c9
-115 19 -220 22 -232 4 -21 10 -23 64 -23 33 0 60 -3 60 -8 0 -4 18 -183 40
-397 22 -215 74 -759 115 -1210 41 -451 93 -965 115 -1143 22 -178 40 -324 40
-325 0 -1 27 -23 60 -47 33 -25 64 -56 69 -70 5 -14 61 -171 124 -350 104
-294 148 -398 464 -1100 287 -636 372 -834 472 -1106 l123 -332 95 -121 94
-122 -59 -107 c-106 -188 -462 -884 -462 -901 0 -13 97 -314 125 -389 3 -8
105 54 288 177 l284 189 163 407 162 406 -132 392 c-120 356 -142 411 -236
598 l-103 206 -72 279 -72 279 -205 495 -205 495 -198 266 c-191 257 -199 270
-245 387 l-47 122 32 133 c17 72 31 145 31 161 0 15 -18 162 -40 325 -34 256
-46 395 -85 1031 -25 404 -57 843 -72 975 l-27 240 -82 179 -82 178 34 54 34
53 -41 272 -41 272 62 62 c58 59 62 66 95 175 19 62 38 116 42 120 54 46 306
233 447 330 l179 123 36 -13 c83 -30 101 -42 154 -101 l55 -62 56 -346 c31
-190 59 -358 62 -373 4 -19 23 -38 67 -66 l62 -40 182 -7 182 -7 -4 33 c-3 19
-9 88 -15 154 -11 131 -7 122 -91 181 -40 28 -51 46 -131 220 -73 158 -92 211
-118 322 -16 73 -30 140 -30 148 0 18 189 159 200 148 4 -5 38 -86 76 -181
l69 -171 88 -55 89 -54 121 24 c93 19 127 29 142 46 43 48 134 215 151 277 9
36 18 66 20 68 1 2 61 -43 134 -98 73 -56 139 -104 146 -107 7 -2 65 10 129
27 l116 33 90 178 89 179 0 167 0 168 198 85 c108 47 202 85 208 84 25 -3 164
-118 228 -189 l68 -76 -46 -178 c-25 -98 -46 -180 -46 -183 0 -8 122 -81 136
-81 5 0 53 17 105 37 l96 38 20 122 c18 105 20 143 13 286 -6 142 -12 180 -39
271 -34 116 -36 129 -21 129 5 0 114 38 242 84 575 208 1834 606 1915 606 6 0
72 -81 145 -180 l133 -180 73 -32 c51 -22 74 -38 77 -52 14 -72 10 -200 -15
-441 l-27 -270 83 -505 82 -505 42 -605 c38 -562 103 -1392 115 -1486 6 -39 7
-41 52 -50 l47 -9 56 -125 c31 -69 95 -190 143 -270 80 -135 97 -157 262 -327
l177 -183 64 0 c60 0 254 45 254 59 0 3 -67 126 -148 273 l-147 268 -155 141
c-85 77 -158 144 -162 147 -4 4 -19 73 -34 155 l-27 147 47 128 46 127 0 172
c0 163 -5 209 -95 850 -58 414 -106 806 -125 1008 -17 182 -53 503 -80 715
-27 212 -59 474 -70 582 l-21 198 -70 151 c-38 84 -68 153 -66 155 1 2 54 -52
117 -119 74 -78 132 -151 163 -203 39 -68 58 -89 108 -121 49 -33 69 -55 113
-127 53 -87 55 -88 197 -184 151 -100 529 -390 1079 -828 311 -247 338 -271
589 -529 145 -148 329 -344 409 -435 80 -91 152 -171 160 -177 9 -7 37 -13 63
-13 96 0 103 -4 123 -77 l19 -65 -47 -151 -47 -152 95 -610 95 -610 20 -729
21 -729 57 -121 c32 -67 121 -240 197 -386 135 -257 144 -271 293 -457 84
-106 158 -193 165 -193 6 0 65 14 130 31 l118 32 0 96 -1 96 -54 33 c-45 27
-95 84 -319 366 l-266 334 0 683 c0 600 -3 740 -25 1158 l-26 474 -75 516
c-41 284 -83 560 -94 613 l-19 97 -144 218 -143 218 -509 440 c-456 393 -855
743 -1382 1212 -95 85 -173 159 -173 164 0 6 -82 94 -182 196 l-183 185 -270
134 -270 134 -205 45 -205 46 -69 67 c-37 37 -292 312 -565 612 -428 470 -504
559 -554 643 -33 54 -57 100 -55 101 1 1 66 29 143 61 l139 59 266 8 c146 4
355 14 465 22 110 8 286 18 390 21 l190 6 205 -251 c161 -197 238 -301 358
-487 l153 -237 87 -46 c48 -25 146 -87 219 -138 126 -89 133 -95 190 -185 l58
-92 9 70 c8 65 0 128 -30 236 -2 9 -60 53 -129 99 -90 61 -128 92 -137 114
-20 49 -173 270 -482 697 l-286 394 0 68 c0 48 -6 79 -20 107 l-20 39 -413 -4
c-347 -3 -436 -7 -562 -25 -170 -23 -682 -50 -973 -50 -189 0 -194 1 -316 35
-68 19 -185 57 -261 85 -75 27 -144 50 -153 50 -9 0 -92 -23 -185 -52 l-169
-52 -48 -70 c-62 -94 -156 -268 -332 -621 l-145 -290 -96 -390 c-84 -343 -101
-428 -142 -710 l-46 -320 -50 -47 c-28 -27 -54 -48 -58 -48 -4 0 -33 41 -66
91 l-58 91 20 326 21 327 -28 275 c-15 151 -31 354 -35 451 -4 110 -19 262
-39 410 -19 129 -31 237 -27 240 3 3 99 36 213 73 188 60 214 66 291 66 l85 0
100 -97 c54 -54 112 -115 128 -137 l30 -38 47 115 47 116 -14 71 -13 72 -104
104 -104 104 -110 13 c-70 8 -149 11 -215 7 -73 -5 -121 -3 -160 6 -69 17 -56
18 -183 -19z m2267 -1469 c458 -530 553 -644 539 -651 -10 -4 -236 -65 -503
-136 -483 -129 -486 -129 -660 -211 -244 -115 -792 -352 -798 -345 -3 2 147
386 332 852 337 847 338 848 428 991 49 78 94 142 98 142 4 0 258 -289 564
-642z m-5534 -981 l270 -449 295 -313 c162 -172 296 -318 297 -323 2 -6 -30
-35 -70 -65 l-72 -55 -378 206 c-251 137 -489 257 -712 360 -184 84 -339 157
-343 162 -5 4 -3 61 4 126 12 117 14 125 155 494 78 206 148 388 154 405 l11
30 60 -65 c42 -47 135 -192 329 -513z m-1549 -917 l134 0 255 -99 c201 -78
1292 -554 1407 -615 l26 -13 -24 -6 c-13 -3 -115 -27 -226 -52 l-202 -47 -562
-244 -562 -244 -271 -268 c-235 -232 -669 -642 -679 -642 -2 0 29 111 70 248
99 333 336 1251 330 1282 -2 14 -10 46 -18 73 l-13 47 53 54 52 53 27 256 26
257 21 -20 c19 -18 35 -20 156 -20z"/>
</g>
</svg>
