<?xml version="1.0" standalone="no"?>
<!DOCTYPE svg PUBLIC "-//W3C//DTD SVG 20010904//EN"
 "http://www.w3.org/TR/2001/REC-SVG-20010904/DTD/svg10.dtd">
<svg version="1.0" xmlns="http://www.w3.org/2000/svg"
 width="1536.000000pt" height="954.000000pt" viewBox="0 0 1536.000000 954.000000"
 preserveAspectRatio="xMidYMid meet">
<metadata>
Created by potrace 1.16, written by Peter Selinger 2001-2019
</metadata>
<g transform="translate(0.000000,954.000000) scale(0.100000,-0.100000)"
fill="#000000" stroke="none">
<path d="M12693 9523 c-21 -60 -35 -85 -69 -123 -31 -34 -38 -50 -42 -94 -4
-44 3 -70 42 -171 26 -66 49 -137 53 -160 7 -53 -12 -121 -43 -152 -22 -22
-32 -25 -75 -21 -40 4 -61 15 -121 61 -40 31 -95 78 -123 106 -49 50 -75 63
-75 38 0 -7 11 -28 24 -46 14 -18 27 -55 31 -82 9 -67 33 -92 140 -148 81 -41
91 -50 103 -85 19 -59 6 -98 -60 -178 -147 -180 -185 -370 -108 -533 31 -65
34 -78 38 -196 5 -159 1 -169 -71 -169 -29 0 -106 7 -172 15 -258 32 -542 31
-1390 -5 -281 -12 -626 -35 -740 -50 -255 -33 -396 -56 -620 -100 -137 -27
-353 -70 -480 -94 -126 -25 -360 -76 -520 -115 -359 -86 -366 -87 -387 -64 -9
10 -31 68 -48 128 -18 61 -50 144 -71 186 -95 192 -249 369 -376 437 -111 58
-135 57 -611 -37 -228 -45 -426 -81 -440 -79 -41 5 -41 45 0 102 26 37 30 50
22 64 -23 35 -53 26 -107 -32 -43 -46 -58 -56 -85 -56 -48 0 -60 32 -38 108
22 81 20 120 -10 172 -19 33 -28 67 -34 128 -8 88 -11 97 -33 89 -8 -3 -18
-34 -24 -81 -9 -60 -17 -84 -42 -115 -22 -28 -35 -58 -41 -97 -12 -70 -21 -81
-55 -66 -63 29 -118 95 -171 208 -53 112 -72 135 -163 196 -22 15 -63 59 -92
98 -56 78 -85 101 -95 75 -4 -9 5 -30 20 -49 45 -60 50 -83 26 -139 -15 -34
-20 -60 -16 -83 11 -56 87 -146 186 -219 112 -83 146 -141 105 -175 -23 -19
-122 -13 -228 15 -129 33 -214 67 -325 126 -63 34 -113 53 -155 60 -34 6 -97
26 -140 46 -53 24 -85 33 -102 29 -33 -8 -32 -34 2 -46 99 -36 123 -59 123
-117 0 -17 13 -39 39 -63 47 -45 132 -74 281 -95 159 -23 226 -42 329 -92 73
-36 109 -62 163 -116 117 -116 119 -151 13 -237 -114 -92 -193 -138 -303 -174
-90 -31 -112 -43 -161 -88 -32 -29 -74 -66 -94 -81 -35 -26 -49 -57 -26 -57 5
0 30 5 54 11 36 9 53 8 95 -6 103 -34 164 -10 360 146 114 91 188 132 255 142
52 8 156 -8 252 -40 69 -22 100 -26 263 -30 116 -4 227 -1 298 7 104 11 114
11 132 -5 26 -23 28 -42 34 -303 l6 -223 -24 -22 c-13 -12 -183 -98 -377 -191
-611 -291 -1033 -512 -1604 -839 -883 -506 -969 -569 -1900 -1398 -392 -348
-645 -607 -905 -924 -63 -77 -182 -221 -265 -320 -244 -292 -340 -421 -572
-770 -283 -426 -278 -418 -568 -910 -236 -400 -443 -734 -543 -875 -26 -36
-81 -102 -124 -147 -98 -105 -112 -131 -112 -211 -1 -59 1 -66 32 -93 60 -54
137 -33 228 63 65 68 93 105 194 258 88 132 262 377 495 700 78 107 199 278
270 380 296 427 490 678 707 915 594 649 1034 1056 1476 1366 411 288 783 528
1030 664 146 79 256 129 697 317 577 245 825 340 1160 446 651 205 734 229
830 236 101 8 255 38 308 59 19 8 71 40 116 71 81 55 114 66 151 46 10 -5 56
-38 103 -74 118 -88 184 -123 394 -206 133 -52 184 -77 188 -91 6 -19 2 -27
-63 -124 -39 -60 -68 -133 -94 -245 -48 -204 -73 -263 -125 -297 -23 -15 -49
-18 -168 -18 -77 0 -178 2 -225 4 -98 5 -350 -16 -364 -30 -18 -16 8 -29 74
-36 62 -6 67 -8 114 -59 28 -31 63 -58 84 -65 45 -15 163 -7 297 21 55 11 152
23 216 27 157 8 200 -6 290 -96 36 -36 73 -82 82 -103 46 -98 -3 -295 -113
-458 -44 -65 -84 -144 -94 -183 -4 -15 -1 -47 5 -70 7 -23 15 -68 18 -100 l6
-59 46 44 c25 23 64 55 87 70 56 37 71 71 88 201 18 144 21 156 54 252 35 102
81 194 112 223 49 45 123 49 198 11 19 -9 78 -54 130 -99 52 -45 119 -99 149
-119 49 -33 60 -36 120 -35 36 0 87 4 112 9 40 6 53 4 91 -19 44 -26 78 -34
78 -18 0 13 -39 46 -101 84 -30 20 -70 54 -88 77 -40 50 -75 69 -206 111 -176
57 -265 118 -265 183 0 49 23 59 134 57 161 -3 152 -5 210 50 41 39 64 52 100
59 53 10 61 14 53 34 -7 19 -296 31 -388 15 -53 -8 -72 -8 -95 3 -58 28 -44
85 35 139 62 42 81 71 61 95 -19 23 -37 18 -87 -20 -46 -35 -63 -39 -70 -18
-2 6 49 55 114 109 152 126 409 379 434 425 10 20 21 68 25 105 4 38 11 77 16
88 11 20 15 20 158 -4 99 -16 352 -11 553 11 152 16 259 36 512 94 538 124
576 129 925 140 212 6 256 2 265 -25 3 -10 -9 -53 -27 -96 -28 -69 -32 -91
-32 -174 -1 -92 0 -97 41 -178 82 -161 148 -250 293 -392 76 -74 151 -155 167
-180 15 -25 54 -80 85 -123 70 -95 74 -125 27 -213 -17 -32 -40 -76 -51 -97
-23 -43 -19 -112 10 -147 l17 -21 35 23 c46 31 76 78 96 150 30 106 75 135
127 81 56 -60 81 -152 96 -355 11 -157 22 -181 104 -221 40 -19 65 -40 79 -63
11 -19 26 -33 32 -31 6 2 14 47 19 110 l9 107 -64 112 c-34 62 -70 130 -79
153 -40 98 -32 175 17 175 43 0 89 -36 184 -144 105 -122 137 -141 217 -131
51 6 58 4 99 -25 40 -28 64 -32 64 -10 0 4 -20 32 -44 62 -23 29 -52 71 -64
93 -30 59 -62 84 -185 145 -94 46 -118 63 -154 108 -45 55 -54 91 -28 112 12
10 33 8 108 -9 117 -27 143 -26 192 4 29 18 55 24 93 25 92 0 62 32 -66 67
-98 27 -167 39 -263 48 -84 8 -129 34 -129 73 0 23 14 42 70 91 51 45 70 69
70 87 0 40 -26 39 -111 -5 -95 -48 -144 -53 -183 -18 -14 12 -71 119 -128 237
-125 262 -125 264 -52 396 27 48 65 104 85 124 41 42 250 153 272 144 19 -7
27 -36 27 -95 0 -63 33 -187 71 -265 24 -52 60 -96 167 -206 191 -196 568
-536 817 -735 116 -93 269 -216 341 -274 137 -112 272 -197 396 -251 64 -29
84 -33 163 -33 79 0 96 4 143 28 70 37 129 91 141 130 5 18 12 230 16 472 7
494 6 488 81 602 55 85 68 129 61 219 -6 81 -22 117 -81 189 -23 28 -63 80
-89 116 -26 37 -78 96 -116 130 -65 60 -73 72 -126 194 -132 304 -210 399
-500 607 -83 59 -208 151 -280 204 -299 220 -436 300 -1100 634 -108 54 -113
62 -149 241 -19 94 -26 157 -26 246 0 106 3 129 30 208 17 49 36 130 42 179
16 121 26 131 120 131 54 0 88 -6 130 -24 56 -24 88 -23 88 2 0 24 -54 64
-118 87 -83 30 -112 54 -112 91 0 39 21 58 122 107 92 45 113 66 142 144 9 25
24 52 32 58 17 15 19 40 2 40 -7 0 -31 -9 -53 -20 -22 -11 -58 -24 -81 -30
-23 -6 -68 -32 -103 -60 -68 -54 -81 -59 -106 -33 -13 12 -16 28 -13 64 5 44
12 56 106 158 56 61 104 122 108 138 4 15 2 46 -4 70 -7 24 -12 68 -12 98 0
30 -3 55 -6 55 -3 0 -27 -21 -53 -47 -26 -27 -67 -62 -91 -78 -54 -37 -77 -75
-100 -166 -22 -84 -42 -117 -77 -125 -92 -23 -150 134 -109 292 22 85 20 103
-15 170 -18 34 -33 81 -36 112 -6 52 -18 67 -30 35z"/>
</g>
</svg>
