<?xml version="1.0" standalone="no"?>
<!DOCTYPE svg PUBLIC "-//W3C//DTD SVG 20010904//EN"
 "http://www.w3.org/TR/2001/REC-SVG-20010904/DTD/svg10.dtd">
<svg version="1.0" xmlns="http://www.w3.org/2000/svg"
 width="1536.000000pt" height="1283.000000pt" viewBox="0 0 1536.000000 1283.000000"
 preserveAspectRatio="xMidYMid meet">
<metadata>
Created by potrace 1.16, written by Peter Selinger 2001-2019
</metadata>
<g transform="translate(0.000000,1283.000000) scale(0.100000,-0.100000)"
fill="#000000" stroke="none">
<path d="M7108 12820 c-225 -22 -399 -82 -591 -206 -164 -106 -270 -198 -572
-494 -264 -259 -305 -292 -427 -350 -141 -66 -309 -109 -713 -185 -412 -77
-599 -157 -1210 -520 -165 -98 -357 -208 -427 -245 -69 -37 -145 -81 -169 -98
-60 -45 -844 -769 -966 -894 -307 -313 -495 -583 -981 -1413 -393 -670 -381
-647 -681 -1385 -184 -451 -204 -507 -265 -732 -84 -310 -96 -381 -103 -613
-10 -334 13 -523 123 -1015 121 -539 225 -861 384 -1185 368 -747 1020 -1465
1835 -2018 419 -284 929 -583 1328 -777 264 -129 367 -170 717 -285 146 -49
360 -121 475 -162 336 -119 489 -151 960 -203 448 -49 750 -50 1265 -5 850 73
1044 102 1815 269 816 176 1109 251 1606 410 129 41 412 129 629 195 833 253
1064 344 1669 653 827 422 1196 691 1548 1128 99 122 283 396 374 555 448 785
677 1776 619 2680 -36 553 -153 1237 -310 1812 -28 103 -92 312 -141 463 -50
151 -121 370 -159 485 -111 341 -186 497 -377 790 -182 277 -336 466 -476 582
-366 305 -821 596 -1541 988 -692 376 -1497 712 -2367 990 -545 174 -679 230
-1099 457 -432 234 -538 274 -820 313 -133 19 -806 29 -952 15z"/>
</g>
</svg>
