<?xml version="1.0" encoding="UTF-8" standalone="no"?>
<!-- Created with Inkscape (http://www.inkscape.org/) -->

<svg
   xmlns:svg="http://www.w3.org/2000/svg"
   xmlns="http://www.w3.org/2000/svg"
   version="1.0"
   width="666.23004"
   height="395.30338"
   id="svg2">
  <defs
     id="defs4">
    <linearGradient
       id="linearGradient3498">
      <stop
         id="stop3500"
         style="stop-color:#808080;stop-opacity:1"
         offset="0" />
      <stop
         id="stop3502"
         style="stop-color:#c1b9b9;stop-opacity:1"
         offset="1" />
    </linearGradient>
    <linearGradient
       id="linearGradient3438">
      <stop
         id="stop3440"
         style="stop-color:#6b6b6b;stop-opacity:1"
         offset="0" />
      <stop
         id="stop3442"
         style="stop-color:#000000;stop-opacity:0"
         offset="1" />
    </linearGradient>
    <linearGradient
       id="linearGradient3157">
      <stop
         id="stop3159"
         style="stop-color:#550000;stop-opacity:1"
         offset="0" />
      <stop
         id="stop3161"
         style="stop-color:#b3b3b3;stop-opacity:1"
         offset="1" />
    </linearGradient>
  </defs>
  <g
     transform="translate(-72.721588,-100.55156)"
     id="layer1">
    <path
       d="m 410.79705,100.5576 c -57.6705,23.25734 -86.94726,55.22556 -120.35042,103.32617 -3.86266,4.46131 -11.48048,25.33954 -21.94049,31.176 -40.44581,34.53255 -83.7523,63.27665 -92.21729,147.13957 -72.84234,14.29577 -101.49155,-42.13486 -103.56581,15.22614 -0.276226,7.63868 38.89289,19.19554 84.59556,25.60886 -27.49675,21.53917 -57.702056,44.10544 -62.851222,57.45291 -4.448547,11.53134 80.635412,-14.69577 113.569332,-45.40005 37.2827,14.78357 79.52848,5.77893 95.18752,-3.81349 49.93404,28.53721 117.47366,64.46012 121.9196,64.57885 13.71458,0.3662 -22.55642,-41.70269 -62.59903,-71.95532 48.15868,-1.23569 91.18482,-1.70783 92.72167,-8.93526 11.77494,-55.37519 -66.27852,-8.92107 -92.66563,-23.68819 100.89684,-33.23855 24.65891,1.70349 127.94413,-5.8455 0.30536,-0.29285 -42.35987,-40.5004 -34.35381,-44.70416 6.19834,-3.25457 20.66042,-9.06861 27.43261,-12.38689 9.57295,4.32134 48.84631,14.54912 53.38011,15.11479 3.3184,0.41402 -13.11393,-14.29653 -17.26097,-26.30475 -3.69671,-10.70416 5.93069,-17.97292 7.56568,-19.37365 6.44265,-5.51958 7.86077,-7.21404 13.02979,-10.9116 -1.21421,19.52208 130.24878,66.85226 123.09649,48.12794 -27.39749,-12.44069 -73.6218,-58.36541 -62.17871,-61.51692 32.52613,-63.70518 111.54155,-156.28084 133.21208,-155.79649 -44.9228,-20.676422 -140.88864,79.7349 -199.22969,113.90374 -14.47038,8.47496 -23.4429,15.35818 -47.63579,7.20945 -8.97138,-3.02176 15.99354,-46.90593 14.73908,-51.71875 -13.97734,2.20579 -39.39818,19.84659 -52.11916,28.36459 -23.36887,15.64784 -37.9709,12.23816 -72.74266,6.43005 -7.6922,-0.97924 -5.60872,-2.74378 -7.56568,-17.36949 9.36165,-36.30661 49.14647,-104.683592 40.88271,-103.93855 z m 323.67119,17.11896 c 1.55457,0.71551 3.05473,1.57544 4.48337,2.58873 -0.94112,-1.7206 -2.48642,-2.54409 -4.48337,-2.58873 z"
       id="path3278"
       style="fill:#000000;fill-opacity:1;fill-rule:nonzero;stroke:none" />
  </g>
</svg>
