<?xml version="1.0" standalone="no"?>
<!DOCTYPE svg PUBLIC "-//W3C//DTD SVG 20010904//EN"
 "http://www.w3.org/TR/2001/REC-SVG-20010904/DTD/svg10.dtd">
<svg version="1.0" xmlns="http://www.w3.org/2000/svg"
 width="1236.000000pt" height="1536.000000pt" viewBox="0 0 1236.000000 1536.000000"
 preserveAspectRatio="xMidYMid meet">
<metadata>
Created by potrace 1.16, written by Peter Selinger 2001-2019
</metadata>
<g transform="translate(0.000000,1536.000000) scale(0.100000,-0.100000)"
fill="#000000" stroke="none">
<path d="M7981 15322 c-20 -21 -55 -69 -78 -107 -28 -47 -99 -128 -211 -243
l-169 -174 -61 31 -61 31 2 88 c2 96 -8 122 -48 122 -14 0 -26 -9 -33 -25 -6
-14 -18 -25 -25 -25 -8 0 -39 -26 -70 -57 -56 -56 -57 -57 -90 -45 -45 16
-100 15 -142 -2 -50 -21 -73 -62 -105 -191 -8 -35 -17 -44 -67 -70 -90 -48
-96 -60 -105 -236 -4 -82 -13 -160 -20 -172 -15 -29 -124 -172 -140 -184 -7
-5 -52 -24 -99 -42 -79 -30 -95 -33 -177 -30 -73 3 -96 8 -119 25 -28 21 -28
22 -28 136 0 124 -5 137 -54 158 -25 10 -36 8 -91 -20 l-63 -32 -46 47 c-25
26 -66 58 -93 71 -26 13 -69 37 -95 54 -63 40 -114 40 -193 0 -63 -32 -94 -36
-150 -20 -19 6 -55 11 -80 11 -55 2 -81 17 -140 82 -79 88 -159 111 -305 87
-32 -5 -136 -17 -230 -25 -166 -16 -235 -29 -235 -45 0 -20 37 -31 177 -54 83
-13 161 -29 172 -35 41 -23 21 -69 -47 -107 -26 -15 -65 -38 -87 -52 -35 -23
-49 -26 -118 -24 -82 2 -143 -16 -155 -46 -8 -22 19 -37 95 -51 97 -18 103
-26 102 -130 0 -47 -6 -106 -12 -131 -14 -51 -39 -68 -142 -95 -57 -14 -63
-14 -129 6 -55 17 -82 20 -140 15 -88 -9 -292 -53 -328 -72 -31 -16 -36 -44
-13 -68 25 -25 17 -36 -52 -68 -72 -34 -56 -35 -194 5 -31 9 -43 7 -85 -14
-47 -23 -49 -26 -50 -67 -1 -53 -8 -60 -64 -64 -44 -3 -45 -3 -58 -53 -8 -27
-18 -55 -24 -61 -5 -7 -46 -14 -94 -15 -71 -3 -88 -7 -100 -23 -21 -29 -17
-60 11 -86 15 -14 25 -35 26 -54 2 -66 11 -78 79 -105 76 -30 84 -50 42 -98
l-27 -32 -80 34 c-101 43 -151 45 -196 8 -42 -36 -68 -97 -76 -178 -7 -80 2
-83 89 -25 33 22 71 40 85 40 60 0 143 -102 143 -175 0 -88 47 -168 108 -184
20 -6 49 -13 63 -15 41 -9 41 -30 3 -70 -23 -24 -34 -44 -32 -59 3 -19 11 -23
57 -29 29 -3 66 -15 80 -26 15 -11 50 -31 79 -46 29 -14 52 -31 52 -36 0 -27
-106 -83 -181 -95 -53 -9 -69 -20 -69 -50 0 -26 17 -35 67 -35 20 0 76 -10
126 -21 113 -27 173 -22 218 16 41 34 88 30 151 -13 62 -42 138 -79 181 -87
43 -8 48 -20 12 -29 -28 -7 -212 -187 -251 -245 l-24 -37 26 -71 26 -70 -27
-99 c-43 -154 -44 -162 -30 -174 15 -13 46 -2 100 34 76 52 93 24 80 -128 -6
-74 -4 -85 11 -94 9 -5 25 -7 35 -5 11 3 22 -3 29 -17 10 -19 8 -27 -11 -54
-22 -28 -24 -44 -29 -183 l-5 -153 -105 -65 c-57 -36 -111 -63 -120 -61 -50
15 -226 28 -313 24 -117 -6 -183 -29 -367 -128 -130 -71 -222 -112 -369 -165
l-113 -40 -27 -76 c-28 -79 -51 -118 -96 -159 -42 -39 -52 -68 -60 -175 l-8
-100 -39 -36 c-64 -58 -187 -128 -247 -139 -93 -17 -129 -57 -97 -105 24 -36
53 -39 150 -16 98 24 176 27 194 9 7 -7 12 -24 12 -38 0 -29 -33 -64 -117
-124 -29 -21 -53 -43 -53 -50 0 -20 55 -67 96 -81 21 -7 40 -18 42 -24 6 -17
-75 -49 -208 -81 -139 -34 -185 -59 -235 -129 -25 -36 -31 -55 -36 -122 -6
-91 -24 -124 -83 -152 -41 -20 -76 -69 -76 -108 0 -34 15 -45 70 -52 81 -10
155 -116 136 -193 -4 -14 -47 -68 -96 -119 -49 -52 -96 -108 -105 -125 -23
-45 -16 -74 18 -78 21 -3 37 6 69 39 53 53 111 79 198 86 81 7 95 -1 104 -55
8 -51 39 -98 77 -118 19 -9 66 -18 113 -21 45 -2 93 -9 109 -15 37 -14 216
-203 238 -253 10 -22 19 -51 19 -65 0 -14 11 -47 25 -75 13 -27 25 -59 25 -71
0 -31 54 -134 95 -182 45 -51 96 -70 148 -53 68 23 82 69 66 218 -15 132 -11
144 51 173 27 13 82 49 122 81 40 32 76 55 80 53 12 -8 9 -74 -6 -129 -8 -27
-34 -104 -57 -170 -42 -115 -43 -125 -44 -235 0 -125 14 -180 46 -180 22 0 28
10 54 80 18 50 23 55 52 58 28 3 35 -2 56 -35 14 -22 35 -62 47 -91 27 -62 38
-66 200 -82 137 -13 189 -24 240 -50 38 -20 50 -45 50 -110 0 -15 7 -33 15
-40 23 -19 77 17 88 60 12 46 32 68 78 82 60 17 84 -4 98 -89 25 -139 33 -164
73 -214 70 -89 82 -147 52 -248 -8 -28 -12 -61 -9 -71 3 -10 31 -31 61 -46 45
-22 61 -25 82 -18 23 8 27 16 25 43 -1 19 -11 47 -23 63 -25 34 -21 45 10 28
33 -18 52 -6 44 27 -10 44 -33 74 -65 85 -39 14 -35 42 6 43 45 0 43 28 -8 82
-51 55 -77 101 -77 138 0 29 18 32 99 14 43 -9 56 -8 97 10 83 37 96 26 34
-33 -45 -42 -50 -64 -20 -91 27 -24 82 -14 136 25 66 47 68 45 61 -75 -3 -57
-11 -113 -16 -124 -6 -10 -40 -40 -76 -65 -88 -63 -93 -75 -60 -138 l26 -50
-23 -26 c-13 -13 -54 -45 -93 -70 -109 -71 -111 -77 -65 -202 51 -139 36 -195
-76 -286 -27 -22 -73 -62 -104 -91 l-55 -52 0 -235 c-1 -129 -4 -238 -7 -241
-10 -10 -57 19 -133 79 -38 31 -116 80 -173 108 -84 42 -109 59 -133 94 -53
77 -141 79 -168 2 -20 -56 -5 -96 48 -128 88 -54 121 -80 121 -94 0 -10 -14
-18 -37 -22 -21 -4 -46 -11 -57 -16 -19 -10 -19 -27 0 -160 16 -111 -40 -149
-228 -156 l-117 -4 -31 33 c-17 19 -38 58 -47 89 -58 202 -187 348 -436 496
-61 37 -151 93 -199 125 -98 66 -150 82 -226 70 -60 -9 -82 -26 -129 -98 -42
-66 -62 -79 -142 -92 -36 -6 -68 -14 -71 -18 -11 -12 -40 -185 -40 -236 0 -31
25 -116 79 -269 71 -202 101 -306 116 -409 4 -25 27 -63 72 -120 74 -94 113
-168 113 -216 0 -27 -5 -34 -26 -39 -31 -8 -129 2 -154 16 -32 17 -75 11 -97
-12 -52 -58 -55 -99 -13 -191 39 -85 39 -132 1 -183 -15 -22 -42 -52 -60 -67
-43 -36 -149 -68 -243 -74 -73 -5 -78 -4 -120 26 -24 17 -60 34 -79 37 -65 11
-310 -67 -323 -103 -8 -20 10 -50 36 -58 11 -4 61 -4 110 0 l88 7 0 -30 c0
-22 -14 -42 -64 -90 -35 -34 -77 -67 -92 -73 -16 -6 -103 -14 -194 -19 -180
-10 -287 -33 -324 -69 -25 -26 -18 -33 61 -56 56 -16 83 -48 83 -98 0 -31 -14
-42 -67 -56 -58 -16 -103 -55 -103 -91 0 -57 35 -58 137 -6 68 34 85 33 119
-6 33 -39 74 -125 74 -154 0 -34 -110 -98 -308 -179 -90 -37 -112 -54 -163
-126 l-16 -23 -60 27 c-33 15 -74 27 -91 27 -59 0 -252 -114 -252 -150 0 -6
11 -16 25 -22 20 -9 34 -8 67 5 37 15 43 15 59 1 20 -18 49 -116 49 -166 0
-31 -7 -42 -46 -74 -54 -45 -245 -251 -326 -352 -65 -82 -71 -110 -33 -147 18
-19 35 -25 67 -25 31 0 60 -10 103 -35 185 -107 249 -128 449 -149 79 -9 157
-21 173 -28 44 -19 73 -49 73 -77 0 -56 12 -55 118 14 l100 66 75 -31 c41 -17
83 -40 93 -51 35 -39 76 -52 174 -57 114 -5 126 2 186 104 21 37 87 124 145
194 58 70 124 156 146 191 49 78 79 106 124 119 53 16 86 12 139 -15 68 -34
173 -49 315 -42 66 2 126 3 133 0 6 -3 12 -18 12 -34 0 -16 18 -73 40 -128 22
-54 40 -106 40 -114 0 -8 7 -21 16 -28 9 -7 31 -36 48 -64 18 -27 53 -65 77
-84 63 -48 82 -77 87 -131 3 -34 -1 -57 -16 -86 -27 -54 -113 -132 -199 -182
-40 -24 -77 -51 -83 -62 -14 -26 -13 -86 3 -98 6 -5 54 -21 104 -36 51 -14
133 -44 182 -66 128 -56 179 -68 329 -75 99 -5 152 -12 205 -30 79 -25 213
-55 249 -55 43 1 88 53 88 103 0 30 16 37 78 37 75 0 114 16 182 75 35 30 67
55 71 55 4 0 20 -7 35 -15 23 -12 48 -14 115 -9 85 6 86 6 121 -25 55 -48 68
-41 93 46 3 13 38 51 77 85 38 35 76 75 84 90 16 31 35 36 54 13 11 -13 9 -20
-13 -43 -15 -16 -27 -35 -27 -44 0 -21 30 -31 64 -22 34 8 33 -6 -4 -41 -16
-16 -30 -37 -30 -48 0 -25 52 -73 93 -86 18 -6 127 -15 242 -20 197 -8 213
-10 265 -34 48 -23 68 -27 160 -28 118 -1 148 -7 164 -31 14 -23 -12 -76 -70
-138 -51 -54 -67 -107 -40 -129 19 -16 216 -32 256 -21 17 4 26 14 28 31 11
102 41 133 265 268 l156 93 134 -7 c75 -4 144 -4 154 -1 11 3 40 35 66 70 66
90 95 100 269 94 150 -5 204 -22 251 -77 l27 -32 114 25 c120 28 225 33 291
15 22 -6 98 -38 169 -71 151 -72 201 -81 264 -49 51 26 92 80 122 160 25 69
41 85 69 76 11 -3 69 -36 128 -72 217 -131 325 -173 449 -173 73 0 74 0 90
-33 39 -77 84 -99 152 -72 38 16 46 16 105 1 35 -9 83 -16 108 -16 24 0 136
-13 249 -30 169 -25 207 -28 218 -17 18 19 3 55 -53 126 -62 79 -60 87 28 102
151 26 202 19 417 -54 107 -36 222 -69 255 -73 128 -13 150 -31 211 -177 42
-102 68 -127 130 -127 51 0 64 16 64 84 l0 44 94 -5 c93 -6 94 -6 111 21 10
15 15 35 12 49 -27 106 -37 138 -49 156 -23 32 -104 92 -233 171 -66 41 -146
99 -177 130 -57 55 -57 56 -56 111 3 98 -58 199 -170 281 -100 74 -99 153 2
179 119 30 144 60 156 191 5 51 10 96 10 100 0 19 68 82 110 103 82 41 157 58
260 57 134 -2 155 7 190 79 15 32 44 80 63 106 44 62 54 95 72 237 l15 118
-126 137 c-182 201 -190 214 -159 255 28 37 13 130 -27 173 -31 34 -56 30 -74
-12 -28 -68 -29 -68 -245 121 -74 64 -160 134 -192 155 l-57 37 40 32 c26 21
40 40 40 55 0 25 1 25 -110 40 -51 7 -119 35 -172 72 l-37 25 55 51 c44 40 54
55 52 76 -3 23 -8 26 -51 29 -45 3 -49 1 -101 -50 -93 -91 -251 -152 -348
-134 -56 10 -159 126 -233 261 -32 59 -73 125 -92 147 -18 22 -33 47 -33 56 0
29 83 157 146 224 47 50 65 77 69 105 19 112 29 145 56 183 16 22 40 45 52 50
12 4 44 27 70 49 82 68 183 78 272 27 40 -24 56 -49 69 -106 3 -14 20 -50 38
-80 27 -46 38 -56 64 -58 52 -5 67 19 59 95 -7 65 2 93 30 93 7 0 33 -18 58
-40 25 -22 52 -40 61 -40 20 0 70 77 92 142 14 42 36 68 59 68 4 0 26 -21 50
-46 32 -35 47 -45 62 -40 23 7 43 46 43 83 0 15 19 60 41 101 36 65 42 87 48
161 9 96 23 130 75 181 36 34 37 34 149 40 61 4 128 13 149 20 39 14 33 16
105 -36 35 -25 68 -11 93 41 27 55 21 90 -24 160 -96 147 -92 197 22 317 l55
58 -7 105 -7 106 39 52 c22 29 49 70 60 92 37 73 51 80 167 79 126 -2 159 -16
177 -75 6 -23 18 -44 26 -47 35 -13 56 73 31 121 -7 12 -27 39 -45 60 -39 42
-42 69 -15 114 16 26 29 33 78 43 162 34 283 85 283 120 0 36 -33 56 -101 64
-66 6 -188 56 -222 90 -21 22 -22 84 -3 131 14 33 38 46 50 26 3 -5 22 -12 43
-16 20 -4 54 -15 75 -26 20 -10 41 -19 46 -19 4 0 3 53 -4 118 -7 64 -11 118
-10 120 2 1 33 -14 70 -33 107 -55 146 -46 146 34 0 59 -9 71 -62 91 l-43 16
-3 71 c-3 70 -2 72 33 107 26 27 35 44 35 69 0 48 -18 61 -61 43 -19 -8 -70
-19 -114 -26 -44 -6 -105 -18 -136 -26 -91 -23 -107 -19 -154 30 -59 61 -75
115 -84 282 -8 132 -11 145 -41 202 l-32 60 27 89 c36 116 54 149 114 211 48
49 51 55 51 102 0 28 -7 66 -14 85 -14 33 -17 35 -64 35 -56 0 -63 6 -86 75
-9 27 -35 81 -59 120 -35 58 -42 79 -42 121 0 44 5 57 38 97 47 57 136 104
219 113 53 6 65 12 100 48 60 62 132 186 174 299 46 126 61 149 166 263 149
159 187 234 195 385 7 106 -12 179 -59 230 -18 19 -77 61 -131 93 -54 32 -127
82 -163 112 -132 112 -301 204 -424 230 -36 7 -112 14 -170 14 l-105 0 -65
-40 c-36 -22 -78 -40 -93 -40 -34 0 -355 47 -417 61 -76 18 -98 29 -125 69
-34 49 -95 189 -95 218 0 17 25 49 83 105 47 47 114 127 154 187 81 121 92
132 155 160 68 30 102 63 128 122 34 79 26 134 -37 239 -27 46 -60 110 -72
141 -26 64 -37 77 -101 110 -53 28 -69 65 -23 54 15 -4 47 -9 70 -13 40 -5 42
-4 61 33 31 61 44 118 33 147 -6 14 -40 49 -76 78 -36 30 -81 76 -99 104 -39
58 -62 80 -93 89 -34 11 -60 -9 -66 -50 -9 -52 -49 -100 -90 -108 -19 -3 -71
-31 -117 -62 -76 -52 -84 -55 -111 -44 -48 20 -53 34 -30 79 13 25 21 59 21
90 l0 50 48 21 c26 12 62 35 80 53 l34 32 -7 148 c-6 126 -5 151 9 172 32 49
15 83 -75 150 -57 42 -59 43 -163 50 -93 6 -111 10 -149 36 -56 37 -239 225
-262 268 -22 43 -16 65 46 173 144 251 238 532 227 679 -5 73 -36 109 -116
139 -64 24 -99 47 -164 106 -65 60 -85 63 -155 23 l-58 -34 -210 0 c-187 0
-214 -2 -249 -19 -38 -19 -75 -77 -76 -119 0 -32 -37 -92 -81 -131 -49 -45
-126 -82 -203 -98 -82 -18 -85 -12 -55 119 17 78 24 140 25 223 1 77 7 134 18
174 24 82 24 134 2 185 -21 46 -23 36 28 156 35 81 34 137 0 164 -15 12 -35
21 -46 21 -30 0 -57 17 -142 92 -78 70 -79 70 -125 63 -25 -3 -54 -8 -63 -11
-13 -4 -24 19 -59 126 l-43 130 -70 0 -69 0 -53 50 c-66 63 -93 65 -143 12z"/>
<path d="M11774 8689 c-10 -17 13 -36 27 -22 12 12 4 33 -11 33 -5 0 -12 -5
-16 -11z"/>
</g>
</svg>
