<?xml version="1.0" standalone="no"?>
<!DOCTYPE svg PUBLIC "-//W3C//DTD SVG 20010904//EN"
 "http://www.w3.org/TR/2001/REC-SVG-20010904/DTD/svg10.dtd">
<svg version="1.0" xmlns="http://www.w3.org/2000/svg"
 width="793.000000pt" height="1536.000000pt" viewBox="0 0 793.000000 1536.000000"
 preserveAspectRatio="xMidYMid meet">
<metadata>
Created by potrace 1.16, written by Peter Selinger 2001-2019
</metadata>
<g transform="translate(0.000000,1536.000000) scale(0.100000,-0.100000)"
fill="#000000" stroke="none">
<path d="M1190 15279 c30 -29 240 -224 465 -433 567 -527 538 -498 533 -526
-3 -22 -7 -20 -73 36 -38 33 -90 75 -115 94 -25 19 -96 78 -158 131 -62 54
-149 123 -195 154 -45 31 -127 88 -182 126 -55 39 -147 99 -205 134 -106 64
-309 169 -315 163 -2 -2 59 -45 136 -97 249 -167 549 -397 1257 -959 64 -51
127 -98 140 -104 12 -6 22 -17 22 -25 0 -18 37 -92 58 -116 8 -9 12 -20 9 -24
-4 -3 -8 -4 -10 -2 -26 38 -103 110 -187 175 -161 123 -184 137 -222 131 -37
-5 -51 4 -223 132 -55 41 -140 93 -190 117 -90 43 -265 99 -286 92 -10 -3 189
-103 281 -141 19 -8 67 -40 105 -72 85 -71 194 -142 238 -157 17 -6 52 -30 77
-53 25 -23 70 -59 100 -80 30 -22 87 -73 127 -116 40 -42 85 -81 100 -88 16
-6 34 -24 41 -40 7 -16 50 -64 95 -108 65 -61 106 -90 195 -136 l112 -58 0
-40 c0 -54 31 -130 81 -197 23 -31 116 -131 206 -221 89 -90 163 -170 163
-178 0 -19 196 -406 264 -520 30 -51 59 -115 65 -143 6 -27 18 -67 26 -86 9
-22 15 -68 15 -118 0 -44 5 -108 11 -141 5 -33 14 -130 18 -216 4 -85 13 -164
18 -174 8 -14 5 -26 -13 -53 -13 -19 -24 -41 -24 -48 0 -11 -18 -14 -75 -14
-88 0 -140 -18 -157 -55 -17 -38 2 -63 90 -123 57 -39 87 -67 115 -111 20 -32
46 -66 57 -76 20 -18 27 -69 12 -79 -15 -9 -115 78 -225 196 -59 63 -123 123
-143 134 -21 11 -37 29 -41 44 -3 14 -14 41 -23 60 -10 19 -26 60 -35 90 -33
109 -164 330 -271 456 -29 33 -59 74 -67 91 -28 53 -137 196 -193 253 -30 30
-72 78 -94 107 -22 29 -64 71 -92 93 -29 22 -136 105 -238 185 -102 79 -219
164 -260 189 -67 40 -210 103 -210 92 0 -3 48 -40 108 -82 59 -43 177 -132
262 -198 85 -67 180 -139 210 -161 30 -22 66 -53 80 -70 13 -16 56 -64 96
-105 39 -41 92 -111 119 -155 26 -44 69 -107 94 -140 81 -103 246 -357 269
-415 l23 -55 -51 50 c-29 28 -58 63 -67 79 -11 22 -17 26 -23 15 -6 -9 -16 3
-34 42 -23 48 -28 49 -9 2 14 -36 -48 22 -72 67 -33 63 -62 98 -35 43 33 -68
6 -50 -39 27 -23 38 -47 72 -54 76 -9 6 -9 4 -1 -7 7 -8 19 -31 27 -51 23 -56
-5 -39 -42 25 -55 96 -79 114 -46 32 l16 -37 -30 18 c-19 11 -39 38 -55 73
-27 60 -36 58 -11 -3 21 -49 4 -45 -30 7 -55 85 -103 121 -60 45 14 -24 25
-47 25 -51 0 -18 -20 6 -46 53 -31 57 -42 61 -19 7 17 -42 18 -47 7 -47 -5 0
-23 21 -40 48 -60 91 -74 100 -37 25 19 -40 33 -73 30 -73 -2 0 -22 26 -43 58
-22 31 -49 66 -61 77 l-22 19 11 -29 c6 -17 22 -49 36 -72 26 -46 29 -53 15
-53 -6 0 -31 28 -57 63 -26 34 -52 67 -57 72 -15 16 19 -45 52 -95 19 -27 26
-46 20 -49 -7 -2 -16 4 -21 13 -13 23 -127 164 -139 172 -23 14 -16 -6 25 -67
72 -108 83 -129 45 -84 -49 59 -129 141 -129 134 0 -3 29 -43 65 -89 36 -46
65 -88 65 -94 0 -6 -41 30 -90 80 -50 50 -90 86 -90 80 0 -6 35 -49 77 -96 42
-47 64 -74 47 -60 -66 57 -76 62 -31 14 26 -27 47 -59 47 -69 0 -60 52 -281
76 -326 30 -54 198 -213 272 -257 44 -25 342 -123 494 -162 42 -11 108 -20
146 -20 67 0 70 -1 76 -26 11 -44 84 -111 222 -205 74 -49 134 -92 134 -95 0
-14 -35 -64 -45 -64 -13 0 -49 25 -107 73 -37 30 -53 37 -89 37 -57 0 -134
-36 -180 -85 -75 -77 -95 -137 -209 -617 -23 -98 -45 -180 -50 -183 -10 -6
-42 76 -64 170 -10 39 -20 79 -23 90 -3 11 -28 40 -55 65 -45 42 -50 51 -58
107 -9 65 -31 117 -53 126 -9 3 -16 27 -20 62 -7 68 -28 105 -110 196 -53 60
-66 69 -90 66 -23 -3 -33 4 -63 44 -94 128 -224 173 -338 115 -44 -22 -49 -23
-89 -9 -58 21 -196 20 -277 -1 -119 -32 -204 -82 -313 -183 -56 -52 -178 -156
-272 -232 -93 -76 -242 -203 -330 -281 -171 -153 -281 -239 -377 -295 -32 -19
-60 -35 -62 -35 -1 0 4 28 11 63 8 34 16 71 18 83 10 50 70 114 212 224 97 76
154 127 165 149 21 43 16 53 -20 36 -89 -44 -186 -84 -191 -80 -8 9 28 71 58
98 33 31 336 224 425 271 37 20 65 36 61 36 -18 0 -140 -34 -238 -67 -60 -19
-110 -33 -113 -31 -12 12 65 94 124 132 111 72 187 105 347 151 103 30 252
105 207 105 -37 0 -199 -36 -309 -69 -157 -46 -166 -40 -71 50 80 78 205 160
298 198 83 32 256 70 453 97 70 9 127 20 127 24 0 15 -233 22 -324 10 -319
-40 -567 -118 -737 -232 -126 -84 -175 -132 -308 -304 -166 -212 -183 -240
-253 -409 -66 -162 -89 -204 -153 -280 -53 -64 -68 -90 -74 -140 -5 -35 -11
-42 -48 -60 -39 -18 -43 -23 -43 -55 0 -20 7 -45 15 -56 8 -10 15 -34 15 -52
0 -38 29 -99 59 -126 22 -20 44 -86 57 -166 9 -59 27 -94 64 -120 35 -25 61
-20 85 16 l16 25 49 -44 c56 -50 103 -67 189 -67 128 0 247 67 398 224 112
116 201 238 288 394 86 153 111 186 221 292 242 233 365 307 524 316 41 2 83
1 93 -2 15 -5 15 -7 2 -20 -16 -16 -20 -71 -7 -90 4 -6 17 -16 30 -23 12 -6
22 -20 22 -31 0 -11 11 -27 24 -36 14 -8 22 -22 19 -29 -2 -8 6 -25 19 -37 22
-23 23 -29 21 -156 -3 -146 -11 -189 -54 -275 -62 -121 -70 -214 -32 -332 14
-42 37 -70 139 -172 154 -153 179 -200 229 -423 19 -85 42 -171 51 -190 27
-58 73 -108 135 -146 36 -23 58 -43 55 -50 -3 -7 -19 -71 -37 -141 -50 -200
-42 -292 37 -423 93 -156 240 -225 426 -200 58 7 97 21 192 70 65 33 121 59
123 56 2 -2 -24 -35 -59 -73 -35 -37 -70 -77 -78 -87 -14 -18 -13 -19 23 -12
45 8 48 17 -31 -102 -54 -81 -124 -154 -215 -222 -25 -19 -47 -38 -47 -42 0
-11 65 -20 115 -16 25 2 45 2 45 1 0 -2 -14 -35 -32 -74 -34 -76 -33 -75 -101
-50 -39 15 -111 108 -164 211 -66 128 -258 457 -292 499 -15 19 -43 40 -63 47
-19 6 -66 31 -104 55 -58 37 -76 43 -126 45 -40 1 -64 7 -77 18 -33 30 -268
115 -429 156 -83 21 -172 50 -197 64 -25 13 -42 20 -39 14 5 -8 1 -9 -12 -3
-59 25 -97 35 -107 28 -7 -4 -22 -6 -34 -4 -17 2 -21 -1 -17 -13 9 -24 -10
-19 -36 9 -13 14 -29 25 -36 25 -16 0 -24 -46 -11 -59 18 -18 -3 -12 -39 10
-39 24 -44 16 -11 -20 l22 -25 -47 27 c-61 36 -95 37 -53 2 38 -31 31 -31 -39
0 -31 14 -56 20 -56 15 0 -6 -8 -10 -17 -10 -15 -1 -14 -4 6 -20 13 -11 19
-20 14 -20 -5 0 -14 5 -20 11 -7 7 -17 8 -29 1 -15 -8 -12 -14 27 -42 44 -32
53 -37 164 -83 106 -45 139 -49 274 -41 69 4 131 6 136 4 43 -14 190 -53 288
-75 131 -30 146 -46 51 -56 -67 -7 -176 5 -247 28 -26 8 -57 13 -68 10 -11 -3
-46 3 -77 13 -31 10 -79 20 -106 23 -50 5 -106 -8 -106 -24 0 -21 147 -69 212
-69 27 0 48 -5 50 -12 3 -7 33 -15 69 -19 35 -4 96 -12 134 -18 39 -6 136 -14
217 -17 117 -5 148 -9 148 -20 0 -9 12 -14 38 -14 20 0 68 -7 107 -15 38 -8
80 -15 92 -15 13 0 23 -5 23 -11 0 -7 20 -33 44 -59 24 -26 70 -98 105 -166
50 -97 177 -281 211 -304 4 -3 7 -20 8 -38 1 -46 33 -103 72 -129 26 -18 47
-23 97 -23 l63 0 -41 -81 c-22 -45 -38 -83 -35 -86 3 -3 25 0 50 6 25 6 57 11
71 11 31 0 31 -3 -12 -149 -35 -124 -37 -126 -67 -61 -14 30 -26 60 -26 65 0
20 -45 65 -68 68 -27 4 -86 96 -178 279 -57 114 -72 136 -151 213 -122 121
-146 135 -251 151 -48 7 -114 13 -146 14 -39 0 -81 8 -122 25 -113 45 -367
104 -506 116 -129 12 -131 13 -180 51 -27 22 -64 41 -81 43 -48 6 -59 9 -95
29 -23 12 -37 14 -46 7 -7 -6 -23 -7 -37 -4 -22 6 -23 5 -9 -12 14 -17 14 -17
-17 -2 -40 21 -49 21 -32 1 7 -9 -4 -5 -25 10 -56 37 -74 34 -39 -8 18 -21 18
-21 -4 -3 -12 11 -38 22 -57 27 -33 7 -35 6 -25 -11 9 -18 8 -18 -23 1 -39 24
-55 26 -38 5 17 -21 1 -19 -23 2 -15 13 -21 15 -24 6 -3 -7 -12 -13 -21 -13
-13 0 -14 -2 -4 -9 8 -4 19 -19 25 -32 8 -15 43 -39 93 -64 45 -22 99 -53 122
-68 61 -43 167 -67 297 -67 61 0 116 -5 121 -10 17 -17 199 -59 285 -66 44 -4
82 -10 84 -15 9 -14 -18 -23 -62 -20 -23 1 -48 -1 -54 -5 -6 -3 -39 -6 -73 -4
-33 1 -115 3 -181 4 -66 1 -140 8 -165 15 -178 50 -320 96 -347 112 -21 14
-34 16 -38 9 -9 -14 -15 -10 85 -63 124 -66 291 -124 396 -137 49 -7 98 -16
109 -21 11 -6 82 -7 165 -4 80 3 184 7 232 9 58 3 99 10 125 22 l38 19 15 -30
c14 -28 18 -30 67 -27 28 1 83 11 122 20 l71 18 0 -22 c0 -40 11 -53 80 -99
82 -55 168 -144 283 -295 48 -63 98 -130 113 -147 23 -29 25 -36 15 -64 -10
-30 -8 -37 26 -87 47 -68 96 -111 134 -119 30 -6 33 -12 23 -60 -6 -30 -7 -30
-47 -21 -23 5 -70 8 -104 5 l-62 -5 -71 94 c-73 98 -89 126 -114 210 -42 138
-114 249 -191 289 -34 19 -37 19 -49 3 -12 -16 -15 -16 -47 4 -19 11 -51 36
-72 54 -27 25 -46 34 -72 34 -20 0 -38 -6 -40 -12 -4 -10 -67 -13 -268 -13
-179 -1 -275 -5 -305 -13 -31 -10 -57 -10 -100 -2 -31 5 -87 12 -124 14 -37 2
-72 7 -77 10 -5 3 -11 1 -13 -6 -3 -8 -9 -8 -23 -1 -19 11 -62 -1 -76 -21 -4
-5 -12 -5 -18 -2 -6 4 -11 0 -11 -8 0 -20 -17 -20 -50 -1 -31 17 -44 19 -34 3
5 -8 -5 -9 -34 -5 -23 3 -40 1 -37 -3 6 -9 -51 -5 -77 5 -10 4 -18 3 -18 -3 0
-6 -12 -10 -27 -9 -52 4 -30 -27 47 -65 154 -77 190 -88 323 -95 112 -5 127
-4 172 16 27 12 64 33 83 48 29 22 46 26 110 28 43 1 107 -2 144 -8 37 -5 75
-6 85 -2 10 4 34 9 53 10 19 1 51 5 70 10 l35 8 -19 -21 c-11 -12 -29 -22 -40
-22 -12 0 -30 -7 -40 -15 -11 -8 -28 -15 -38 -15 -9 0 -22 -8 -27 -19 -20 -37
-207 -67 -530 -85 -51 -3 -86 0 -110 10 -58 24 -48 6 11 -20 94 -42 191 -57
335 -51 166 7 302 26 336 48 14 9 37 17 50 17 13 0 32 7 43 15 10 8 30 15 43
15 13 0 39 10 59 22 54 33 128 46 231 40 l91 -5 0 -41 c0 -38 4 -45 55 -84 42
-33 56 -51 61 -78 3 -19 21 -52 39 -74 23 -28 34 -53 39 -90 6 -42 11 -52 32
-60 16 -6 27 -20 30 -40 5 -20 30 -52 78 -96 39 -37 78 -78 87 -93 23 -39 56
-51 138 -51 65 0 73 -2 68 -17 -68 -241 -97 -355 -97 -391 l0 -44 26 17 c14 9
28 14 31 11 7 -7 -32 -215 -63 -341 -33 -127 -92 -418 -100 -490 -7 -61 -3
-65 46 -40 17 9 30 13 30 10 0 -3 -18 -77 -39 -163 -47 -190 -61 -275 -61
-382 0 -89 0 -89 63 -64 11 4 4 -31 -28 -143 -41 -144 -73 -345 -91 -572 l-7
-84 32 6 c26 5 32 4 28 -7 -3 -7 -17 -65 -31 -127 -31 -140 -50 -426 -47 -698
1 -51 2 -53 24 -46 12 3 32 9 44 12 l22 5 -30 -108 c-39 -147 -59 -271 -59
-379 0 -99 21 -247 44 -313 l15 -42 -42 -28 c-23 -16 -71 -44 -107 -63 -56
-30 -128 -88 -218 -179 -31 -31 -103 -141 -133 -203 -17 -34 -28 -46 -39 -42
-32 13 -107 16 -145 7 l-40 -10 40 -2 c22 -1 58 -7 80 -14 l40 -12 -70 -18
c-77 -19 -160 -54 -206 -87 -29 -20 -35 -40 -7 -23 7 5 22 9 33 10 11 0 43 4
70 8 49 8 49 8 27 -9 -13 -9 -64 -34 -113 -55 -111 -48 -143 -68 -194 -119
-45 -47 -43 -48 19 -21 25 11 66 29 91 40 44 19 45 19 35 1 -18 -34 -83 -80
-155 -110 -59 -24 -75 -36 -103 -77 -17 -27 -32 -52 -32 -56 0 -4 24 10 53 32
48 37 113 69 105 52 -15 -30 -48 -80 -71 -108 -33 -39 -107 -211 -107 -250 0
-34 11 -24 27 24 10 32 12 33 8 7 -3 -16 -5 -52 -6 -80 -1 -27 -11 -67 -21
-88 -10 -21 -16 -42 -12 -48 3 -6 -2 -49 -11 -95 -10 -46 -15 -87 -12 -90 13
-13 52 -9 59 6 5 11 7 9 7 -7 1 -33 21 -28 22 5 1 20 2 22 6 7 12 -50 26 -30
47 70 2 11 4 -1 5 -27 1 -54 21 -77 22 -26 l1 33 11 -35 c9 -30 11 -32 15 -12
5 30 26 28 39 -5 10 -26 11 -24 13 27 1 30 5 69 9 85 7 29 7 29 19 -17 7 -27
14 -48 16 -48 2 0 1 22 -2 49 -2 30 0 51 7 55 6 4 11 2 11 -4 0 -6 4 -8 10 -5
5 3 10 0 11 -7 1 -7 5 -2 9 12 7 20 8 16 9 -22 1 -68 18 -68 26 -1 8 69 13 88
14 51 1 -26 17 -46 27 -35 3 3 12 27 19 54 l13 48 2 -40 c1 -22 4 -31 7 -20 3
11 11 25 18 30 7 6 15 22 18 35 3 20 5 18 7 -10 2 -33 3 -32 11 14 11 71 29
82 30 21 1 -67 17 -31 20 45 l2 55 7 -45 7 -45 1 58 c2 61 18 78 25 25 3 -23
5 -16 6 22 2 40 5 49 11 35 7 -18 8 -18 15 8 4 15 5 36 2 47 -3 11 -1 23 4 26
5 3 9 -7 10 -23 0 -16 3 -22 6 -13 3 8 10 18 16 21 6 5 6 30 0 75 -10 65 -9
69 17 108 38 56 183 310 211 368 18 38 28 48 47 48 16 0 22 -4 19 -12 -3 -7
-26 -58 -50 -113 -67 -150 -121 -312 -161 -481 -20 -83 -36 -157 -36 -164 0
-25 17 3 44 70 32 79 75 145 86 134 5 -5 15 -61 23 -125 8 -64 22 -129 30
-145 8 -16 17 -42 21 -59 l8 -30 14 27 c8 15 21 53 28 85 11 44 15 51 16 28 1
-26 3 -27 10 -10 8 18 9 17 9 -7 1 -15 -4 -39 -10 -55 -41 -105 -41 -145 0
-124 26 14 26 14 1 -49 -11 -28 -18 -56 -15 -61 8 -12 45 -12 45 0 0 5 7 12
16 15 14 5 15 -2 9 -59 -6 -56 -5 -66 10 -71 12 -5 23 -1 31 11 17 23 24 16
33 -27 5 -24 12 -33 26 -33 16 0 21 9 26 45 3 25 7 40 7 33 3 -18 69 -28 87
-13 9 7 15 31 16 59 1 38 2 42 9 21 5 -16 8 -19 9 -8 1 23 21 34 32 17 5 -8 9
-9 9 -4 0 6 4 4 8 -3 7 -9 15 -6 36 13 22 21 30 23 46 13 25 -16 33 -7 20 26
-5 15 -9 39 -9 54 1 27 1 27 8 -3 7 -28 8 -26 18 25 6 33 11 44 12 28 1 -27
14 -37 26 -19 3 5 6 40 6 78 1 57 3 64 12 43 9 -23 10 -23 15 -5 5 22 -16 122
-27 129 -9 6 -2 76 8 76 4 0 15 -18 25 -40 17 -39 29 -49 40 -32 2 4 -8 38
-24 76 -22 52 -28 79 -24 110 3 22 5 54 4 70 0 23 3 27 16 22 11 -4 26 2 40
15 l22 21 6 -89 c13 -175 50 -334 75 -319 12 8 55 101 75 163 20 60 76 138 76
106 0 -42 46 -57 79 -24 12 12 27 17 45 14 21 -4 28 0 36 23 11 28 11 28 59
-58 27 -47 55 -96 64 -108 15 -21 15 -21 35 12 12 19 38 50 59 69 21 20 54 61
73 92 34 57 55 68 78 45 10 -10 17 -10 32 0 33 20 44 14 80 -45 19 -31 52 -72
73 -92 21 -19 47 -50 59 -69 20 -33 20 -33 35 -12 9 12 37 61 64 108 48 86 48
86 59 58 8 -23 15 -27 36 -23 18 3 33 -2 45 -14 33 -33 79 -18 79 24 0 32 56
-46 76 -106 20 -62 63 -155 75 -163 25 -15 62 144 75 319 l6 89 22 -21 c14
-13 29 -19 40 -15 13 5 16 1 16 -22 -1 -16 1 -48 4 -70 4 -31 -2 -58 -24 -110
-16 -38 -26 -72 -24 -76 11 -17 23 -7 40 32 10 22 21 40 25 40 10 0 17 -70 8
-76 -11 -7 -32 -107 -27 -129 5 -18 6 -18 15 5 9 21 11 14 12 -43 0 -38 3 -73
6 -78 12 -18 25 -8 26 19 1 16 6 5 12 -28 10 -51 11 -53 18 -25 7 30 7 30 8 3
0 -15 -4 -39 -9 -54 -13 -33 -5 -42 20 -26 16 10 24 8 46 -13 21 -19 29 -22
36 -13 4 7 8 9 8 3 0 -5 4 -4 9 4 11 17 31 6 32 -17 1 -11 4 -8 9 8 7 21 8 17
9 -21 1 -28 7 -52 16 -59 18 -15 84 -5 87 13 0 7 4 -8 7 -33 5 -36 10 -45 26
-45 14 0 21 9 26 33 9 43 16 50 33 27 8 -12 19 -16 31 -11 15 5 16 15 10 71
-6 57 -5 64 9 59 9 -3 16 -10 16 -15 0 -12 37 -12 45 0 3 5 -4 33 -15 61 -25
62 -25 63 -1 50 11 -5 22 -10 25 -10 12 0 5 53 -14 107 -20 58 -29 131 -10 88
7 -17 9 -16 10 10 1 23 5 16 16 -28 7 -32 20 -70 28 -85 l14 -27 8 30 c4 17
13 43 21 59 8 16 22 81 30 145 8 64 18 120 23 125 11 11 54 -55 86 -134 27
-67 44 -95 44 -70 0 7 -16 80 -35 162 -42 175 -97 338 -165 491 -28 61 -50
112 -50 114 0 2 10 3 23 3 18 0 30 -14 60 -72 44 -88 194 -347 212 -368 10
-12 10 -30 2 -84 -8 -53 -8 -71 1 -74 7 -2 13 -11 13 -20 1 -10 5 -3 9 13 7
27 8 25 9 -17 1 -48 16 -72 24 -41 3 10 6 -7 7 -37 2 -39 4 -45 7 -22 7 53 23
36 25 -25 l1 -58 7 45 7 45 2 -55 c3 -76 19 -112 20 -45 1 61 19 50 30 -21 8
-46 9 -47 11 -14 2 28 4 30 7 10 3 -13 11 -29 18 -35 7 -5 15 -19 18 -30 3
-11 6 -2 7 20 l2 40 13 -48 c7 -27 16 -51 19 -54 10 -11 26 9 27 35 1 37 6 18
14 -51 8 -67 25 -67 26 1 1 38 2 42 9 22 4 -14 8 -19 9 -12 1 7 6 10 11 7 6
-3 10 -1 10 5 0 6 5 8 11 4 7 -4 9 -25 7 -55 -3 -27 -4 -49 -2 -49 2 0 9 21
16 48 12 46 12 46 19 17 4 -16 8 -55 9 -85 2 -51 3 -53 13 -27 13 33 34 35 39
4 4 -19 6 -17 15 13 l11 35 1 -33 c1 -51 21 -28 22 26 1 26 3 38 5 27 21 -100
35 -120 47 -70 4 15 5 13 6 -7 1 -33 21 -38 22 -5 0 16 2 18 7 7 7 -15 46 -19
59 -6 3 3 -2 44 -12 90 -9 46 -14 89 -11 95 4 6 -2 27 -12 48 -10 21 -20 61
-21 88 -1 28 -3 64 -6 80 -4 26 -2 25 8 -7 16 -48 27 -58 27 -24 0 35 -78 223
-99 239 -18 13 -84 117 -78 123 5 6 79 -36 120 -67 46 -37 47 -28 5 35 -28 41
-44 53 -103 77 -72 30 -137 76 -155 110 -10 18 -9 18 35 -1 25 -11 66 -29 91
-40 62 -27 64 -26 19 21 -51 51 -83 71 -194 119 -49 21 -100 45 -113 55 -22
16 -22 16 27 9 28 -4 59 -8 70 -8 11 -1 26 -5 33 -10 28 -17 22 3 -7 23 -46
33 -129 68 -206 87 l-70 18 40 12 c22 7 58 13 80 14 l40 2 -40 10 c-36 8 -116
5 -148 -8 -8 -3 -22 14 -36 43 -30 63 -102 172 -133 203 -90 89 -149 140 -193
165 -42 23 -164 94 -173 100 -1 1 5 22 13 46 24 66 45 214 45 309 0 108 -21
245 -59 384 l-30 108 22 -5 c12 -3 32 -9 45 -12 l22 -7 0 140 c0 309 -28 582
-76 734 -4 15 -1 17 25 12 30 -6 31 -5 31 27 0 18 -12 132 -26 253 -21 176
-35 248 -69 368 -32 112 -39 148 -28 144 63 -25 63 -25 63 64 0 107 -14 192
-61 382 -21 86 -39 160 -39 163 0 3 13 -1 30 -10 40 -21 50 -19 50 11 0 36
-65 363 -105 524 -38 158 -70 328 -62 336 3 3 17 -2 31 -11 l26 -17 0 45 c0
24 -22 124 -50 221 -27 97 -50 178 -50 180 0 2 39 6 86 7 78 4 88 6 103 28 9
13 53 59 97 103 56 53 84 88 88 109 3 19 13 33 25 36 21 5 41 50 41 89 0 12
15 40 34 63 18 22 37 56 40 75 5 27 19 45 61 78 51 39 55 46 55 84 l0 41 90 5
c100 6 180 -8 233 -41 19 -12 45 -21 58 -21 13 0 33 -7 43 -15 11 -8 30 -15
43 -15 13 0 36 -8 50 -17 34 -22 170 -41 336 -48 144 -6 241 9 335 51 58 26
69 44 12 20 -86 -36 -614 26 -640 75 -6 10 -19 19 -28 19 -10 0 -27 7 -38 15
-10 8 -28 15 -40 15 -11 0 -29 10 -40 21 l-19 22 30 -9 c17 -4 48 -9 70 -10
22 0 48 -5 58 -9 10 -4 48 -3 85 2 37 6 101 9 144 8 64 -2 81 -6 110 -28 63
-48 117 -67 198 -66 147 0 209 14 337 76 72 36 118 64 118 73 0 10 -9 14 -27
13 -16 -1 -28 3 -28 9 0 6 -8 7 -17 3 -27 -10 -84 -14 -78 -5 3 4 -14 6 -37 3
-29 -4 -39 -3 -34 5 10 16 -3 14 -34 -3 -33 -19 -50 -19 -50 1 0 8 -5 12 -11
8 -6 -3 -14 -3 -18 2 -14 20 -57 32 -76 21 -14 -7 -20 -7 -23 1 -2 7 -8 9 -13
6 -5 -3 -40 -8 -77 -10 -37 -2 -93 -9 -124 -14 -43 -8 -69 -8 -100 2 -30 8
-126 12 -305 13 -201 0 -264 3 -268 13 -2 6 -20 12 -40 12 -26 0 -45 -9 -72
-34 -21 -18 -53 -43 -72 -54 -32 -20 -35 -20 -47 -4 -12 16 -15 16 -49 -3 -77
-40 -149 -151 -191 -289 -25 -84 -41 -112 -114 -210 l-71 -94 -62 5 c-34 3
-81 0 -104 -5 -40 -9 -41 -9 -47 21 -10 48 -7 54 23 60 38 8 87 51 134 119 34
50 36 57 26 87 -10 28 -8 35 15 64 15 17 65 84 113 147 115 151 201 240 283
295 69 46 80 59 80 99 l0 22 71 -18 c39 -9 94 -19 122 -20 49 -3 53 -1 67 27
l15 30 38 -19 c26 -12 67 -19 125 -22 48 -2 152 -6 232 -9 83 -3 154 -2 165 4
11 5 60 14 108 21 48 6 127 24 175 41 91 31 312 137 312 149 0 18 -16 18 -44
1 -26 -16 -169 -62 -346 -112 -72 -20 -498 -24 -529 -5 -23 15 0 23 78 30 86
7 268 49 285 66 5 5 60 10 121 10 130 0 236 24 297 67 23 15 77 46 122 68 50
25 85 49 93 64 6 13 17 28 25 32 10 7 9 9 -4 9 -9 0 -18 6 -21 13 -3 9 -9 7
-24 -5 -24 -22 -40 -24 -23 -3 17 21 1 19 -38 -5 -31 -19 -32 -19 -23 -1 10
17 8 18 -25 11 -19 -5 -45 -16 -57 -27 -22 -18 -22 -18 -4 3 35 42 17 45 -39
8 -21 -15 -32 -19 -25 -10 17 20 8 20 -32 -1 -31 -15 -31 -15 -17 2 14 17 13
18 -9 12 -14 -3 -30 -2 -37 4 -9 7 -23 5 -46 -7 -36 -20 -47 -23 -96 -29 -19
-2 -52 -20 -80 -43 l-47 -39 -132 -12 c-140 -12 -393 -70 -507 -116 -41 -17
-83 -25 -122 -25 -32 -1 -98 -7 -146 -14 -105 -16 -129 -30 -251 -151 -79 -78
-93 -98 -152 -216 -92 -183 -149 -272 -177 -276 -23 -3 -68 -48 -68 -68 0 -5
-12 -35 -26 -65 -30 -65 -32 -63 -67 61 -43 146 -43 149 -12 149 14 0 46 -5
71 -11 25 -6 47 -9 50 -6 3 3 -13 41 -35 86 l-41 81 63 0 c50 0 71 5 97 23 39
26 71 83 72 129 1 18 4 35 8 38 33 23 161 207 211 303 37 72 81 141 112 175
50 56 53 57 137 74 47 10 102 17 123 18 25 0 37 5 37 14 0 11 31 15 148 20 81
3 179 11 217 17 39 6 96 14 127 16 32 3 62 11 69 19 7 8 30 14 58 14 64 0 211
48 211 69 0 16 -56 29 -106 24 -27 -3 -75 -13 -106 -23 -31 -10 -66 -16 -77
-13 -11 3 -42 -2 -68 -10 -71 -23 -180 -35 -247 -28 -95 10 -80 26 51 56 97
22 243 60 288 75 6 2 69 0 140 -4 141 -9 144 -8 321 61 74 29 178 103 145 103
-6 0 -8 6 -5 13 3 8 -4 13 -18 14 -13 1 -24 7 -26 12 -2 6 -27 -1 -59 -14 -69
-31 -76 -31 -38 0 42 35 8 34 -53 -2 l-47 -27 23 25 c32 36 27 44 -12 20 -36
-22 -57 -28 -39 -10 13 13 5 59 -11 59 -7 0 -23 -11 -36 -25 -26 -28 -45 -33
-36 -9 4 12 0 15 -17 13 -12 -2 -27 0 -34 4 -10 7 -48 -3 -107 -28 -13 -6 -17
-5 -12 3 3 6 -14 -1 -39 -14 -25 -14 -114 -43 -197 -64 -161 -41 -396 -126
-429 -156 -13 -11 -37 -17 -77 -18 -50 -2 -68 -8 -126 -45 -38 -24 -85 -49
-104 -55 -20 -7 -48 -28 -63 -47 -35 -44 -261 -433 -305 -524 -38 -78 -114
-172 -151 -186 -68 -25 -67 -26 -101 50 -18 39 -32 72 -32 74 0 1 20 1 45 -1
50 -4 115 5 115 16 0 4 -22 23 -47 42 -91 68 -161 141 -215 222 -79 119 -76
110 -31 102 36 -7 37 -6 23 12 -8 10 -43 50 -78 87 -35 38 -61 71 -59 73 2 3
58 -23 123 -56 99 -51 132 -62 195 -70 189 -23 330 44 423 200 79 131 87 223
37 423 -18 70 -34 134 -37 141 -3 7 19 27 55 50 62 38 108 88 135 146 9 19 32
105 51 190 50 223 75 270 229 423 103 102 125 130 139 172 38 121 31 196 -32
334 -48 105 -53 128 -55 283 -1 116 0 123 22 145 13 13 21 30 19 38 -3 7 5 21
19 29 13 9 24 25 24 36 0 11 10 25 23 31 12 7 25 17 29 23 13 19 9 74 -7 90
-13 13 -13 15 2 20 36 11 170 -3 225 -24 108 -40 219 -122 392 -290 105 -101
147 -158 216 -285 123 -226 321 -462 467 -553 155 -98 321 -97 424 4 l36 35
16 -25 c24 -36 52 -41 87 -16 37 26 55 61 64 120 13 80 35 146 57 166 30 27
59 88 59 126 0 18 7 42 15 52 8 11 15 36 15 56 0 32 -4 37 -42 55 -38 18 -44
25 -49 60 -6 50 -21 76 -74 140 -65 77 -90 122 -154 281 -69 169 -89 201 -257
415 -135 172 -177 213 -304 298 -169 113 -417 191 -736 231 -91 12 -324 5
-324 -10 0 -4 39 -12 88 -19 370 -50 497 -87 649 -187 88 -58 203 -165 203
-188 0 -11 -31 -5 -132 25 -111 33 -273 69 -310 69 -5 0 -6 -5 -2 -11 11 -18
143 -76 235 -103 151 -44 217 -73 324 -141 49 -32 131 -122 121 -133 -3 -2
-53 12 -113 31 -98 33 -220 67 -238 67 -4 0 24 -16 61 -36 89 -47 392 -240
425 -271 30 -27 66 -89 58 -98 -3 -3 -51 16 -108 41 -56 25 -106 44 -111 42
-6 -2 -2 -18 8 -38 11 -23 66 -73 165 -150 142 -111 202 -174 212 -224 2 -12
10 -49 18 -83 7 -35 12 -63 11 -63 -2 0 -31 16 -66 37 -88 50 -207 145 -383
302 -82 73 -226 196 -320 272 -93 76 -216 180 -272 232 -109 101 -194 151
-313 183 -81 22 -219 22 -279 1 -41 -15 -45 -14 -89 9 -110 59 -242 14 -336
-115 -30 -40 -40 -47 -61 -44 -20 4 -35 -6 -85 -58 -81 -86 -110 -136 -117
-204 -4 -35 -11 -59 -20 -62 -22 -9 -44 -61 -53 -126 -8 -56 -13 -65 -58 -107
-27 -25 -52 -54 -55 -65 -3 -11 -13 -51 -23 -90 -22 -94 -54 -176 -64 -170 -5
3 -27 85 -50 183 -114 480 -134 540 -209 617 -46 49 -123 85 -180 85 -36 0
-52 -7 -89 -37 -58 -48 -94 -73 -107 -73 -10 0 -45 50 -45 64 0 3 60 46 134
95 138 94 211 161 222 205 6 25 9 26 78 26 44 0 106 9 161 24 172 46 420 128
467 153 73 40 250 205 282 262 24 45 76 266 76 326 0 11 24 44 53 74 l52 55
-60 -49 -60 -50 77 85 c43 47 78 90 78 96 0 6 -40 -30 -90 -80 -49 -50 -90
-86 -90 -80 0 6 29 48 65 94 36 46 65 86 65 89 0 7 -80 -75 -129 -134 -38 -45
-27 -24 45 84 41 61 48 81 25 67 -12 -8 -126 -149 -139 -172 -5 -9 -14 -15
-21 -13 -6 3 1 22 20 49 33 50 67 111 52 95 -5 -5 -31 -38 -57 -72 -26 -35
-51 -63 -57 -63 -14 0 -11 7 15 53 14 23 30 55 36 72 l11 29 -22 -19 c-12 -11
-39 -46 -61 -77 -21 -32 -41 -58 -43 -58 -3 0 11 33 30 73 37 75 23 66 -37
-25 -17 -27 -35 -48 -40 -48 -11 0 -10 5 7 47 23 54 12 50 -19 -7 -26 -47 -46
-71 -46 -53 0 4 11 27 25 51 43 76 -5 40 -60 -45 -34 -52 -51 -56 -30 -7 25
61 16 63 -11 3 -16 -35 -36 -62 -55 -73 l-30 -18 16 37 c33 82 9 64 -46 -32
-37 -64 -65 -81 -42 -25 8 20 18 42 22 47 3 6 -2 2 -13 -10 -10 -11 -32 -44
-48 -72 -36 -63 -57 -71 -28 -10 27 55 -2 20 -35 -43 -23 -42 -86 -103 -73
-69 19 46 15 46 -8 0 -18 -39 -28 -51 -34 -42 -6 11 -12 7 -23 -15 -9 -16 -38
-51 -67 -79 l-51 -50 23 55 c23 58 188 312 269 415 25 33 68 96 94 140 27 44
80 114 119 155 40 41 83 89 96 105 14 17 50 48 80 70 30 22 134 101 230 176
96 74 212 161 257 193 46 32 85 62 89 67 11 18 -128 -41 -205 -87 -42 -25
-159 -110 -261 -190 -102 -79 -209 -162 -238 -184 -28 -23 -70 -64 -92 -93
-22 -29 -64 -77 -94 -107 -56 -57 -165 -200 -193 -253 -8 -17 -38 -58 -67 -91
-107 -126 -238 -347 -271 -456 -9 -30 -25 -71 -35 -90 -9 -19 -20 -46 -23 -60
-4 -15 -20 -33 -41 -44 -20 -11 -84 -71 -143 -134 -110 -118 -210 -205 -225
-196 -14 9 -9 61 8 75 9 8 36 42 59 77 30 44 63 77 107 107 92 62 114 89 102
123 -14 42 -65 62 -156 62 -59 0 -78 3 -78 14 0 7 -11 29 -24 48 -18 27 -21
39 -13 53 5 10 13 92 18 181 4 90 10 168 14 174 4 6 10 70 15 143 10 168 37
263 108 382 69 117 262 499 262 520 0 9 57 71 127 138 231 223 323 353 323
457 l0 39 112 58 c90 46 129 73 195 136 45 43 88 92 95 108 7 16 25 34 41 40
15 7 60 46 100 88 40 43 97 94 127 116 30 21 75 57 100 80 25 23 60 47 77 53
44 15 153 86 238 157 39 32 86 64 105 72 92 38 291 138 281 141 -20 7 -193
-48 -279 -88 -47 -22 -139 -80 -206 -128 -183 -133 -177 -130 -214 -125 -38 6
-61 -8 -222 -131 -84 -65 -161 -137 -187 -175 -2 -2 -6 -1 -10 2 -3 4 1 15 9
24 21 24 58 98 58 116 0 8 10 19 23 25 12 6 75 53 139 104 65 51 209 165 320
252 112 88 285 224 385 303 193 152 396 300 580 422 62 41 111 76 109 79 -14
13 -361 -184 -521 -297 -55 -38 -137 -95 -182 -126 -45 -32 -124 -93 -175
-138 -83 -72 -301 -250 -349 -286 -17 -12 -19 -11 -19 12 0 20 39 61 187 199
406 375 790 733 828 771 l40 40 -55 -42 c-30 -24 -131 -109 -225 -190 -93 -81
-202 -173 -242 -204 -39 -31 -98 -80 -130 -110 -32 -29 -105 -94 -163 -144
-162 -140 -449 -428 -524 -525 -37 -49 -72 -88 -77 -88 -16 0 -108 -90 -164
-160 -69 -87 -195 -270 -195 -285 0 -6 -73 -85 -163 -176 -90 -90 -191 -202
-226 -249 -74 -100 -177 -272 -254 -425 -31 -60 -74 -146 -96 -190 -48 -93
-120 -299 -127 -365 -3 -25 -20 -74 -37 -109 -31 -62 -32 -70 -32 -190 -1 -70
-9 -209 -20 -311 l-19 -185 -37 -48 c-21 -26 -41 -48 -44 -48 -3 0 -23 22 -44
48 l-38 48 -18 180 c-10 99 -19 239 -19 311 -1 128 -2 133 -34 194 -17 35 -32
77 -32 94 0 50 -97 323 -148 416 -25 47 -65 125 -89 174 -61 125 -170 306
-244 406 -35 47 -136 159 -226 249 -90 91 -163 170 -163 176 0 15 -126 198
-195 285 -56 70 -148 160 -164 160 -5 0 -40 39 -77 88 -116 149 -583 593 -839
797 -28 21 -126 105 -220 186 -93 81 -195 166 -225 189 l-55 42 55 -53z m5640
-6994 c-7 -8 -17 -15 -23 -15 -6 0 -2 7 9 15 25 19 30 19 14 0z m-4251 -7657
c-4 -40 -12 -84 -18 -98 -9 -20 -10 -13 -6 40 8 86 16 130 24 130 4 0 4 -33 0
-72z m2784 40 c4 -18 9 -62 12 -98 4 -53 3 -60 -6 -40 -13 30 -28 170 -18 170
4 0 9 -15 12 -32z"/>
<path d="M3131 740 c14 -31 19 -36 19 -24 0 6 -7 19 -16 30 -14 18 -14 18 -3
-6z"/>
<path d="M4790 739 c-7 -11 -10 -23 -7 -25 2 -2 9 7 15 21 14 30 7 33 -8 4z"/>
<path d="M3121 686 c7 -15 15 -23 17 -16 3 7 -3 19 -13 28 -15 16 -16 15 -4
-12z"/>
<path d="M4803 698 c-12 -16 -24 -48 -18 -48 2 0 11 14 20 30 16 31 15 40 -2
18z"/>
<path d="M2891 114 c0 -11 3 -14 6 -6 3 7 2 16 -1 19 -3 4 -6 -2 -5 -13z"/>
<path d="M5031 114 c0 -11 3 -14 6 -6 3 7 2 16 -1 19 -3 4 -6 -2 -5 -13z"/>
</g>
</svg>
