<?xml version="1.0" standalone="no"?>
<!DOCTYPE svg PUBLIC "-//W3C//DTD SVG 20010904//EN"
 "http://www.w3.org/TR/2001/REC-SVG-20010904/DTD/svg10.dtd">
<svg version="1.0" xmlns="http://www.w3.org/2000/svg"
 width="1536.000000pt" height="1159.000000pt" viewBox="0 0 1536.000000 1159.000000"
 preserveAspectRatio="xMidYMid meet">
<metadata>
Created by potrace 1.16, written by Peter Selinger 2001-2019
</metadata>
<g transform="translate(0.000000,1159.000000) scale(0.100000,-0.100000)"
fill="#000000" stroke="none">
<path d="M6860 11579 c-1988 -49 -3109 -324 -4037 -992 -370 -266 -756 -653
-1079 -1082 -471 -625 -918 -1430 -1421 -2560 -207 -465 -245 -565 -282 -745
-58 -284 -51 -665 19 -1032 21 -109 30 -128 112 -250 79 -116 88 -149 88 -327
0 -187 7 -214 68 -251 70 -42 102 -70 102 -86 0 -8 -12 -38 -26 -66 -15 -30
-23 -59 -20 -72 3 -12 40 -71 82 -131 54 -77 105 -169 169 -305 257 -544 451
-856 715 -1146 553 -605 1295 -1168 1855 -1404 135 -57 310 -121 625 -228 513
-174 516 -175 685 -316 184 -154 275 -179 755 -206 321 -19 326 -19 830 -145
770 -191 1054 -230 1665 -229 368 0 543 8 880 39 1676 156 3256 738 4453 1642
1307 987 2086 2255 2237 3644 34 311 29 832 -11 1234 -150 1510 -767 2544
-2006 3359 -987 649 -2432 1170 -4363 1571 -263 55 -378 71 -580 85 -177 11
-1041 11 -1515 -1z"/>
</g>
</svg>
