<?xml version="1.0" encoding="UTF-8" standalone="no"?>
<!-- Created with Inkscape (http://www.inkscape.org/) -->

<svg
   xmlns:svg="http://www.w3.org/2000/svg"
   xmlns="http://www.w3.org/2000/svg"
   version="1.2"
   width="338.02802"
   height="297"
   viewBox="0 0 338.028 297"
   id="Layer_1"
   xml:space="preserve"
   style="overflow:inherit"><defs
   id="defs7" />
<path
   d="m 129.028,0 c 0,0.333 0,0.667 0,1 18.525,5.085 25.404,13.321 33,25 1.832,4.923 3.745,17.875 6,19 -1.16,13.296 1.145,21.949 3,35 2.267,-16.733 13.472,-24.528 20,-37 10.018,-1.649 12.82,-10.513 21,-14 10.545,-3.177 21.582,-2.568 29,-7 5.048,4.619 7.814,11.519 12,17 8.379,4.954 24.013,2.654 32,8 -1.864,16.802 -17.136,20.197 -28,28 1.811,7.474 -3.954,13.418 -3,19 9.224,-3.837 19.105,-3.186 32,-4 3.344,2.324 12.186,4.196 18,3 -0.762,3.761 5.31,0.69 4,5 3.984,-2.915 7.858,5.869 8,1 6.367,9.304 16.626,14.07 22,26 -22.886,27.8 -59.69,46.35 -112,49 -11.683,7.775 -29.542,3.849 -47,6 -2.215,0.785 0.19,6.19 -4,5 -4.092,1.092 0.135,-6.135 -5,-4 -7.413,2.916 -2.883,11.856 2,13 16.299,-11.476 41.626,-13.182 67,-6 -1.439,1.71 4.286,5.737 11,5 17.449,15.814 48.898,37.846 31,68 -13.986,6.014 -26.976,13.024 -43,17 -10.921,-5.079 -19.201,-12.799 -30,-18 -6.523,-12.516 -21.82,-16.186 -31,-26 -6.859,-7.334 -8.065,-16.953 -16,-24 -3.899,3.359 -5.019,9.271 -13,6 -2.738,11.146 6.986,9.052 6,16 4.377,-0.378 6.806,1.194 8,4 -2.148,2.699 -2.988,2.906 -7,2 1.846,6.513 -3.803,5.53 -5,9 12.472,4.006 42.703,-8.3 42,12 -0.183,5.266 -13.98,24.453 -21,25 -3.27,0.255 -7.091,-4.217 -12,-5 -12.335,-1.969 -24.862,-9.117 -32,-18 -17.48,6.187 -20.246,27.087 -35,36 -5.052,-10.951 10.811,-14.097 10,-27 8.384,0.6 11.412,-12.501 17,-18 -1.341,-5.83 -7.978,-9.984 -6,-16 7.985,-0.784 16.926,-2.146 15,-10 6.691,1.388 10.922,-3.993 9,-8 -3.435,-2.901 -3.982,4.084 -8,1 0.224,-4.283 -3.327,-4.077 -1,-8 -7.819,-3.252 -14.599,-6.212 -22,-10 -6.658,-3.408 -13.602,-10.014 -21,-11 -6.532,-0.871 -11.702,2.874 -18,4 -16.603,2.969 -32.972,1.337 -45,-9 1.528,-8.139 3.221,-16.112 8,-21 14.094,-6.473 31.965,-0.221 42,6 11.778,7.302 15.406,19.551 28,8 -3.964,-0.369 -9.583,0.916 -12,-1 0.019,-5.615 -2.634,-10.031 -1,-16 -52.644,-7.774 -94.163,-36.081 -86,-91 10.733,-2.602 22.08,-7.707 33,-7 1.906,0.123 3.581,2.62 6,3 2.877,0.452 5.934,-1.508 8,-1 5.678,1.396 9.475,6.989 16,5 23.325,19.008 46.697,37.97 66,61 9.709,-3.293 20.043,3.898 29,-1 2.217,-6.165 -1.435,-12.053 2,-17 -17.13,-9.039 -41.295,-5.817 -56,-18 -3.43,-6.57 -10.688,-9.312 -17,-13 -8.195,-11.472 -17.476,-21.857 -18,-41 19.572,-10.718 39.557,4.796 52,4 -0.892,-4.545 -2.326,-4.748 -4,-9 0.197,-5.71 -2.41,-18.364 2,-27 1.366,-4.366 -3.872,-2.128 -3,-6 1.273,-1.393 4.898,-0.435 5,-3 2.334,0 4.667,0 7,0 z m 33,104 c 5.674,-3.919 1.755,-13.754 -5,-14 1.336,4.997 1.862,10.805 5,14 z m -9,40 c 1.667,0 3.333,0 5,0 -2.644,-3.031 3.98,-6.95 -1,-9 -1.189,3.145 -3.375,5.291 -4,9 z m -49,34 c 14.575,-0.575 23.695,4.306 25,17 4.22,-1.683 5.709,-0.151 8,-3 -1.165,-0.168 -1.086,-1.581 -1,-3 -1.78,-0.553 -4.153,-0.514 -5,-2 2.897,-0.56 -1.534,-1.56 -1,-3 2.238,-0.867 4.123,-0.029 6,-3 -0.689,3.327 2.067,1.611 3,1 0,1 0,2 0,3 4.74,-1.428 3.099,1.745 9,2 2.162,-7.47 -2.293,-7.417 -3,-14 -2.246,1.087 -4.344,2.323 -7,3 -0.959,-5.041 -5.827,-6.173 -8,-10 -10.92,3.351 -17.862,7.865 -26,12 z m 47,-8 c 1.966,-0.299 1.983,1.351 3,2 0.798,-1.869 1.671,-3.662 2,-6 -2.932,0.067 -3.714,2.286 -5,4 z m 6,6 c 5.344,0.112 2.713,-1.957 4,-5 -1,0 -2,0 -3,0 0.41,2.409 -1.826,2.174 -1,5 z m -3,7 c 3.41,-0.359 5.295,4.709 6,-1 -6.97,1.902 -0.134,-3.798 -5,-4 0.826,2.826 -1.409,2.591 -1,5 z m -35,79 c 2.932,-0.067 3.714,-2.286 5,-4 -0.61,-0.057 -1.184,-0.149 -1,-1 -0.667,0 -1.333,0 -2,0 0.155,2.487 -1.57,3.096 -2,5 z"
   id="path3"
   style="fill-rule:evenodd" />
</svg>