<?xml version="1.0" encoding="UTF-8" standalone="no"?>
<!-- Created with Inkscape (http://www.inkscape.org/) -->

<svg
   xmlns:svg="http://www.w3.org/2000/svg"
   xmlns="http://www.w3.org/2000/svg"
   version="1.0"
   width="1500pt"
   height="527pt"
   viewBox="0 0 1500 527"
   id="svg2">
  <defs
     id="defs14" />
  <g
     transform="matrix(0.1,0,0,-0.1,0,527)"
     id="g6"
     style="fill:#000000;stroke:none">
    <path
       d="m 1765,4364 c -106,-16 -314,-88 -330,-114 -3,-5 -39,-27 -80,-50 l -74,-41 -20,-67 c -50,-170 -55,-286 -18,-394 35,-102 39,-122 33,-166 l -5,-47 17,48 c 14,38 20,45 30,35 6,-6 12,-15 12,-19 0,-10 61,-102 73,-110 12,-9 30,-88 29,-134 l -1,-40 10,31 c 14,47 36,50 56,9 12,-25 23,-35 39,-35 17,0 23,-7 26,-27 2,-20 9,-28 23,-28 15,0 21,-8 23,-33 3,-27 7,-33 25,-30 16,2 26,-5 37,-28 9,-17 21,-29 28,-26 6,2 19,-13 29,-33 11,-23 22,-34 31,-30 8,3 16,-3 19,-14 3,-12 11,-17 19,-14 8,3 21,-7 31,-26 10,-17 26,-31 36,-31 9,0 23,-11 29,-25 6,-14 19,-25 28,-25 21,0 42,-23 38,-41 -2,-9 6,-14 22,-14 19,0 26,-6 28,-26 2,-21 7,-25 26,-22 19,4 25,-1 30,-21 4,-18 13,-26 27,-26 12,0 23,-8 26,-20 3,-11 14,-20 24,-20 12,0 23,-10 29,-25 5,-14 15,-25 23,-25 7,0 28,-12 46,-27 65,-54 311,-300 311,-311 0,-7 6,-12 13,-12 12,0 117,-110 196,-205 22,-27 50,-53 61,-57 12,-5 17,-13 14,-23 -4,-9 -1,-15 8,-15 15,0 118,-105 118,-120 0,-5 18,-25 40,-46 21,-20 37,-41 34,-46 -3,-4 -2,-8 3,-8 4,0 22,-12 38,-26 17,-14 35,-29 40,-32 6,-4 18,-16 28,-28 17,-21 16,-22 -57,-73 -41,-28 -82,-54 -93,-58 -10,-4 -24,-15 -31,-25 -7,-10 -20,-18 -28,-18 -8,0 -14,-4 -14,-9 0,-5 -35,-26 -77,-46 -43,-20 -85,-40 -93,-46 -8,-5 -35,-18 -60,-30 -80,-37 -245,-121 -256,-130 -6,-5 -14,-6 -17,-2 -4,3 -7,1 -7,-5 0,-16 -67,-15 -74,1 -3,6 -4,0 -2,-15 3,-29 -4,-33 -51,-29 -15,1 -23,-4 -23,-14 0,-9 -9,-15 -25,-15 -14,0 -25,5 -25,10 0,6 -9,10 -21,10 -11,0 -18,-4 -15,-8 8,-14 -9,-31 -34,-34 -20,-3 -27,4 -40,39 -23,62 -30,62 -30,1 0,-47 -3,-56 -20,-61 -21,-5 -36,8 -41,37 -6,30 -24,19 -22,-13 3,-31 -9,-45 -45,-54 -18,-4 -25,0 -34,21 -6,15 -10,33 -9,40 1,6 -3,12 -9,12 -5,0 -10,-22 -10,-49 0,-42 -3,-49 -22,-55 -50,-13 -68,-8 -68,22 0,15 -4,33 -9,40 -11,18 -21,-7 -21,-53 0,-29 -4,-33 -31,-37 -25,-4 -32,-1 -40,19 -12,32 -29,29 -29,-7 0,-25 -4,-30 -35,-36 -20,-3 -38,-4 -42,-1 -12,13 -63,180 -63,210 0,24 -3,28 -10,17 -13,-20 -13,-105 1,-149 29,-97 29,-91 6,-96 -12,-3 -40,-6 -62,-7 l -40,-3 -21,85 c -16,66 -22,80 -28,63 -4,-12 -5,-38 -2,-58 4,-19 8,-51 11,-69 5,-28 2,-37 -14,-46 -28,-14 -165,-40 -172,-32 -22,23 -60,223 -61,322 -1,36 2,94 6,130 7,61 7,64 -8,43 -18,-24 -38,-148 -29,-181 3,-12 1,-22 -5,-22 -17,0 -25,141 -10,186 2,5 -1,11 -7,13 -5,2 -18,-29 -28,-70 -25,-103 -27,-285 -3,-361 9,-32 15,-62 11,-68 -3,-5 -30,-10 -60,-10 l -53,0 -7,40 c -7,43 -15,49 -34,26 -8,-10 -9,-16 -1,-21 22,-13 -1,-75 -28,-75 -8,0 -62,83 -79,122 -14,32 -38,126 -48,186 -10,62 -25,51 -25,-20 0,-70 -6,-71 -23,-3 -7,25 -17,45 -22,43 -30,-9 30,-249 67,-269 10,-6 16,-14 14,-18 -3,-4 -1,-23 4,-42 5,-19 14,-53 20,-77 9,-35 18,-46 45,-58 40,-16 159,-18 236,-4 30,6 77,11 104,12 28,0 60,4 73,9 12,5 70,11 130,14 59,2 161,12 227,20 66,9 158,20 204,26 47,5 103,14 125,19 23,5 115,23 206,40 91,17 188,37 215,45 28,8 66,17 85,21 19,3 46,12 60,19 14,7 41,16 60,19 49,10 140,36 170,49 14,5 99,36 190,67 91,32 210,74 265,94 55,20 129,46 165,56 36,11 81,25 100,31 59,18 332,157 383,195 26,19 51,43 54,52 15,43 124,112 177,112 12,0 26,4 32,9 16,15 84,33 178,46 89,13 91,13 106,-8 8,-12 23,-29 32,-38 9,-10 14,-19 12,-22 -5,-4 62,-138 114,-229 11,-20 48,-88 81,-151 32,-63 77,-143 98,-178 21,-35 45,-79 52,-96 7,-18 17,-33 22,-33 4,0 11,-9 14,-21 4,-11 9,-19 11,-16 2,2 -13,37 -34,78 -65,124 -143,270 -188,351 -23,43 -46,88 -49,99 -12,36 13,12 40,-39 14,-26 43,-76 65,-111 22,-34 40,-66 40,-69 0,-3 6,-13 14,-21 8,-9 29,-43 46,-76 58,-112 119,-209 127,-201 4,3 -1,14 -9,23 -8,10 -27,41 -42,68 -51,91 -108,199 -134,250 -13,27 -38,70 -56,95 -34,50 -87,152 -82,158 2,2 29,-34 60,-80 31,-46 74,-108 95,-138 22,-30 49,-72 61,-94 40,-72 171,-268 176,-264 5,5 -90,158 -248,401 -46,71 -87,136 -93,145 -5,9 -25,38 -42,65 -18,26 -33,50 -33,54 0,3 -6,14 -14,22 -29,34 -60,101 -50,111 5,5 41,14 79,19 39,6 104,20 145,30 41,10 131,27 200,36 230,31 414,55 480,61 36,3 72,8 80,11 8,4 18,6 21,5 5,-1 125,10 264,23 28,3 101,10 164,15 62,6 117,12 121,15 8,5 70,12 170,20 36,3 88,10 115,15 28,5 113,14 190,20 77,6 158,12 180,14 22,3 72,7 110,11 39,3 115,12 170,20 55,8 136,16 180,19 92,7 116,9 320,30 83,9 173,18 200,20 124,11 355,34 455,46 325,38 661,69 678,63 7,-3 20,-20 29,-37 9,-17 19,-33 23,-36 4,-3 26,-38 49,-77 23,-40 53,-84 66,-99 13,-14 37,-54 54,-89 17,-35 41,-76 54,-92 13,-15 34,-46 47,-68 13,-22 30,-46 37,-53 7,-7 13,-19 13,-26 0,-7 9,-21 21,-32 12,-10 30,-37 41,-58 21,-40 119,-188 146,-218 8,-10 19,-18 23,-18 8,0 -54,105 -192,325 -120,191 -180,289 -198,323 -8,15 -21,32 -29,38 -12,8 -12,15 -3,32 6,12 15,22 20,22 4,0 30,-23 57,-51 68,-70 74,-77 74,-83 0,-4 11,-19 24,-34 14,-15 39,-48 58,-74 18,-26 78,-101 133,-168 55,-67 116,-141 135,-164 103,-126 224,-266 229,-266 4,0 24,-22 46,-50 36,-45 65,-64 65,-42 0,5 -21,32 -47,59 -27,28 -59,65 -73,84 -28,36 -106,123 -132,148 -10,8 -18,21 -18,28 0,7 -9,17 -20,23 -11,6 -20,15 -20,21 0,6 -20,34 -45,62 -38,44 -74,90 -161,202 -8,11 -33,45 -55,75 -21,30 -47,66 -57,79 -9,14 -36,46 -60,72 -60,66 -82,95 -82,109 0,15 40,-15 115,-85 33,-32 77,-68 98,-82 20,-14 37,-29 37,-32 0,-11 265,-275 307,-307 21,-15 43,-33 48,-40 6,-6 55,-51 110,-99 55,-48 136,-121 180,-161 44,-40 94,-82 110,-95 17,-13 51,-42 77,-66 45,-41 68,-53 68,-34 0,10 -88,92 -150,141 -160,124 -923,861 -900,868 7,3 20,-4 29,-16 9,-11 32,-28 51,-37 19,-10 46,-26 60,-37 92,-68 204,-149 252,-181 48,-31 199,-146 412,-312 21,-16 51,-39 66,-50 15,-11 56,-41 89,-68 34,-26 65,-47 70,-47 5,0 11,-4 13,-8 4,-11 254,-201 273,-208 53,-21 -42,67 -215,197 -47,35 -122,93 -167,129 -142,114 -442,339 -648,487 -22,16 -76,56 -120,89 -44,32 -84,62 -90,66 -42,31 -69,57 -63,64 9,9 93,-32 124,-61 12,-11 39,-29 61,-39 21,-11 52,-30 70,-43 17,-13 34,-23 38,-23 3,0 34,-19 69,-43 71,-48 85,-57 144,-95 24,-15 53,-35 64,-45 12,-9 25,-17 30,-17 5,0 41,-21 81,-47 100,-66 110,-72 127,-80 8,-4 92,-56 185,-117 186,-122 197,-129 238,-154 16,-9 49,-30 74,-47 24,-16 75,-50 112,-75 38,-25 93,-62 122,-83 54,-37 69,-44 69,-29 0,9 -282,222 -320,242 -24,12 -221,135 -420,262 -52,33 -142,90 -200,126 -58,36 -161,102 -230,146 -69,45 -135,87 -145,94 -11,6 -31,18 -45,24 -14,7 -50,31 -80,53 -30,22 -69,49 -86,60 -77,48 -138,95 -124,95 8,0 65,5 125,10 61,5 171,12 245,16 176,8 973,8 999,-1 10,-3 22,-2 25,3 3,5 34,8 68,5 35,-2 90,-5 123,-6 33,-2 65,-6 71,-10 20,-12 145,-17 165,-6 13,6 19,6 19,-1 0,-5 23,-10 53,-10 99,-1 136,-14 178,-61 21,-24 38,-47 39,-51 0,-7 29,-44 58,-74 6,-7 12,-15 12,-18 0,-10 89,-123 141,-180 27,-29 49,-58 49,-64 0,-6 4,-12 8,-14 16,-6 152,-171 152,-183 0,-7 14,-19 30,-27 17,-7 30,-19 30,-25 0,-7 4,-13 10,-13 5,0 8,10 6,23 -3,12 -5,25 -5,28 -1,4 -12,10 -25,13 -13,3 -29,18 -36,36 -7,16 -18,35 -26,41 -8,6 -14,17 -14,25 0,19 107,-91 125,-129 19,-40 85,-87 85,-61 0,10 -17,34 -37,54 -55,53 -74,80 -67,91 3,5 22,-6 42,-26 20,-19 40,-35 45,-35 4,0 5,-5 2,-11 -8,-12 22,-49 40,-49 7,0 20,-10 28,-23 15,-21 16,-21 16,-2 1,11 -7,25 -18,32 -10,6 -37,39 -59,73 -30,44 -37,62 -28,66 15,6 65,-43 121,-118 20,-27 41,-48 47,-48 6,0 22,-12 35,-26 34,-37 39,-24 8,21 -14,21 -25,42 -25,46 0,16 25,9 37,-11 7,-10 21,-24 32,-29 16,-9 18,-8 14,10 -3,11 -12,23 -19,26 -8,3 -14,14 -14,24 0,11 -7,22 -15,25 -8,4 -15,11 -15,18 0,6 -9,18 -19,26 -15,10 -18,21 -14,44 3,17 7,33 9,35 2,2 21,-14 42,-37 22,-23 37,-44 34,-47 -3,-2 3,-7 12,-11 9,-3 16,-12 16,-18 0,-13 51,-66 63,-66 13,0 7,41 -6,46 -8,3 -24,19 -36,35 -19,25 -20,33 -10,46 11,12 11,17 -1,27 -19,15 -43,56 -32,56 8,0 72,-67 72,-75 0,-4 75,-87 114,-129 22,-22 37,-6 17,18 -6,7 -9,21 -5,30 4,10 1,16 -7,16 -21,1 -59,36 -59,54 0,9 -4,16 -10,16 -5,0 -10,9 -10,20 0,10 -6,23 -14,27 -8,5 -11,15 -7,27 7,17 8,16 23,-6 9,-14 23,-31 30,-39 8,-8 17,-21 20,-30 3,-8 21,-23 40,-32 18,-9 27,-17 21,-17 -7,0 -13,-3 -13,-7 1,-15 51,-64 62,-61 6,2 4,11 -7,22 -17,17 -17,18 3,38 19,19 21,19 43,4 32,-22 42,-20 29,4 -6,11 -8,24 -6,29 3,5 -1,12 -9,15 -8,3 -14,9 -13,13 3,14 -21,63 -31,63 -5,0 -16,15 -25,34 -8,18 -22,39 -31,46 -17,14 -20,30 -5,30 5,0 21,-17 34,-37 13,-21 56,-71 95,-112 39,-40 71,-78 71,-82 0,-5 4,-9 9,-9 5,0 8,19 6,43 -2,31 -8,45 -23,52 -11,5 -26,20 -31,33 -6,13 -15,21 -20,18 -4,-3 -8,8 -9,25 -1,27 1,29 16,17 9,-7 40,-37 69,-68 28,-30 54,-52 57,-49 4,3 3,20 0,37 -4,20 -11,29 -20,25 -17,-6 -19,13 -1,21 6,4 2,4 -10,2 -15,-3 -27,4 -37,19 -14,22 -12,35 6,35 4,0 8,-6 8,-14 0,-8 7,-16 15,-20 18,-6 19,-1 5,25 -8,14 -7,19 1,19 14,0 59,-47 59,-61 0,-8 7,-10 27,-8 3,0 12,-12 19,-28 10,-24 17,-22 13,3 0,4 5,11 13,15 11,7 11,9 -1,9 -8,0 -11,6 -7,16 4,10 1,14 -6,12 -17,-6 -39,17 -33,34 3,8 -11,32 -32,55 -30,32 -35,43 -25,52 8,8 12,8 12,1 0,-6 11,-16 25,-22 14,-6 25,-16 25,-23 0,-12 95,-105 108,-105 5,0 5,20 -1,45 -6,25 -14,45 -19,45 -4,0 -8,-5 -8,-10 0,-6 -9,-1 -20,10 -11,11 -20,26 -20,33 0,7 -9,20 -20,30 -20,17 -27,47 -11,47 9,0 95,-89 102,-106 7,-17 79,-67 87,-60 4,4 -6,19 -21,32 -15,13 -25,24 -21,24 3,0 1,6 -5,14 -8,10 -8,16 1,23 26,21 44,20 76,-4 18,-14 36,-23 39,-20 6,6 -78,117 -88,117 -4,0 -5,9 -2,20 6,22 33,28 33,7 0,-17 74,-71 78,-57 3,8 -47,81 -69,100 -3,3 -15,22 -28,43 -41,67 -16,62 59,-11 41,-39 75,-70 77,-68 2,2 -17,33 -42,70 -70,102 -56,132 22,50 51,-53 67,-51 31,3 -22,34 -25,47 -24,138 1,89 4,104 26,137 14,20 40,44 57,53 57,28 171,18 228,-19 17,-12 55,-86 99,-196 4,-8 17,-33 31,-55 13,-22 34,-58 46,-80 12,-22 24,-42 28,-45 3,-3 28,-39 56,-80 27,-41 54,-80 60,-87 5,-6 21,-26 35,-44 68,-90 98,-109 65,-42 -18,37 -10,66 15,58 16,-5 14,3 -11,51 -34,67 -33,65 -15,58 18,-7 10,33 -12,59 -14,15 -13,17 1,17 21,0 22,14 3,30 -8,6 -24,27 -36,46 l -20,35 21,-6 c 18,-6 20,-5 10,14 -7,12 -16,21 -21,21 -6,0 -10,7 -10,15 0,8 -4,15 -10,15 -5,0 -10,6 -10,13 0,8 -10,19 -22,26 -21,10 -20,11 13,7 l 35,-4 -53,51 c -43,43 -49,53 -35,58 9,4 25,2 35,-3 9,-5 17,-5 17,-1 -1,9 -37,37 -78,60 -26,14 -25,15 26,9 28,-3 52,-4 52,-2 0,1 -22,17 -50,35 -54,35 -67,57 -23,40 34,-13 54,4 25,22 -11,7 -18,19 -15,26 3,8 -2,13 -13,13 -12,1 -6,7 16,16 27,12 32,17 20,24 -8,5 -23,10 -34,10 -15,0 -16,3 -6,15 10,13 9,15 -11,16 -22,0 -23,1 -4,9 11,5 33,9 48,9 31,1 28,21 -4,21 -25,0 -24,14 4,33 18,13 19,16 5,16 -10,1 -18,3 -18,5 0,14 33,63 52,78 13,10 17,18 11,18 -14,0 -19,60 -5,60 4,0 23,14 42,31 22,20 27,27 12,19 -54,-27 -42,33 18,83 38,33 38,40 -1,32 l -31,-7 20,20 c 37,37 58,75 44,80 -20,6 -14,21 7,15 20,-5 39,26 21,37 -6,4 -2,14 10,28 11,12 20,24 19,28 -3,11 25,44 38,44 7,0 13,4 13,10 0,16 -53,-9 -84,-41 -30,-31 -41,-33 -31,-6 4,8 15,17 26,20 10,3 19,11 20,19 0,7 18,28 41,46 26,21 34,32 23,32 -28,0 -161,-120 -253,-228 -50,-61 -129,-186 -172,-277 -20,-42 -41,-70 -58,-79 -73,-37 -262,-48 -367,-21 -87,23 -151,58 -148,83 2,13 -5,22 -18,25 -19,5 -20,7 -4,36 9,18 11,31 5,31 -22,0 -8,26 33,62 23,21 36,38 28,38 -20,0 25,47 64,67 36,19 97,64 92,69 -2,2 -34,-12 -71,-32 -38,-19 -70,-34 -71,-32 -6,5 64,83 75,83 5,0 15,6 22,13 9,9 9,12 -3,12 -13,0 -78,-35 -89,-49 -9,-10 -109,-61 -121,-61 -15,0 54,55 111,88 25,15 50,30 55,34 6,5 21,17 35,27 14,11 22,22 18,26 -7,8 -18,2 -159,-78 -96,-55 -130,-66 -96,-33 8,8 33,25 56,37 23,11 44,25 47,30 3,5 14,9 24,9 12,0 17,5 14,13 -2,7 6,19 18,25 84,44 116,79 57,62 -17,-5 -39,-16 -48,-23 -24,-21 -92,-50 -99,-42 -7,6 22,32 112,100 32,25 53,45 48,45 -6,0 -14,-4 -17,-10 -3,-5 -13,-10 -21,-10 -9,0 -37,-14 -62,-32 -26,-17 -59,-40 -74,-50 -15,-10 -36,-18 -46,-18 -10,0 -29,-9 -42,-20 -13,-11 -32,-20 -43,-20 -24,0 -23,1 26,34 21,14 44,26 52,26 9,0 12,6 9,15 -4,8 -2,15 4,15 6,0 12,-5 14,-12 2,-6 10,-8 17,-4 7,5 10,14 7,22 -4,9 2,14 15,14 11,0 22,7 25,15 4,8 12,15 19,15 7,0 19,7 26,16 7,9 23,20 36,25 21,8 33,29 16,29 -18,0 -81,-27 -114,-47 -20,-13 -43,-23 -50,-23 -8,0 -25,-9 -39,-20 -14,-11 -31,-20 -37,-20 -7,0 -13,-4 -13,-10 0,-5 -7,-10 -15,-10 -8,0 -15,7 -15,15 0,8 6,15 14,15 7,0 24,10 38,23 14,13 31,21 38,19 6,-2 23,7 37,22 13,14 30,26 38,26 8,0 19,9 25,20 6,11 17,20 24,20 16,0 41,28 33,36 -2,3 -41,-13 -85,-35 -43,-23 -83,-41 -87,-41 -5,0 -16,-6 -24,-14 -9,-7 -27,-17 -39,-21 -22,-6 -23,-5 -13,14 7,12 18,21 25,21 7,0 42,22 77,49 36,26 74,51 87,55 12,4 22,12 22,17 0,5 8,9 18,10 11,0 12,2 4,6 -15,6 -102,-28 -190,-74 -35,-18 -69,-33 -75,-33 -7,0 -18,-9 -25,-20 -7,-11 -18,-20 -26,-20 -7,0 -27,-7 -45,-16 -18,-9 -35,-14 -38,-11 -2,3 9,13 26,22 17,8 31,20 31,26 0,8 5,7 15,-1 12,-10 15,-10 15,3 0,9 15,20 35,27 19,6 41,19 47,29 14,19 73,51 95,51 7,0 13,7 13,15 0,8 19,25 43,37 41,22 42,23 14,26 -15,2 -47,-6 -69,-18 -26,-13 -44,-18 -50,-12 -7,7 -2,12 11,17 29,9 97,72 88,81 -4,5 -32,-4 -62,-19 -30,-14 -56,-23 -59,-18 -6,9 22,37 64,64 56,38 -31,9 -168,-55 -34,-16 -68,-28 -75,-25 -6,2 8,14 33,26 71,35 153,98 135,104 -8,4 -17,2 -20,-3 -6,-9 -74,-42 -113,-54 -32,-11 -36,21 -4,38 58,32 -34,11 -114,-25 -23,-11 -47,-19 -54,-19 -6,0 -25,-9 -41,-21 -24,-17 -29,-18 -29,-5 0,19 -19,20 -45,3 -11,-7 -67,-29 -124,-47 -57,-19 -108,-39 -115,-45 -6,-6 -33,-19 -61,-29 -27,-11 -59,-25 -70,-33 -11,-7 -30,-13 -43,-13 -20,0 -22,3 -13,14 7,8 23,17 36,20 28,7 34,26 8,26 -9,0 -39,-11 -67,-24 -28,-13 -83,-35 -123,-49 -40,-14 -83,-31 -96,-39 -13,-7 -75,-39 -138,-72 l -114,-58 -125,6 c -69,3 -199,15 -290,25 -91,11 -185,21 -210,22 -25,2 -54,6 -65,10 -11,3 -81,10 -155,14 -74,5 -148,9 -165,11 -16,2 -63,6 -104,9 -41,3 -79,9 -84,12 -5,3 -70,9 -145,14 -76,5 -157,11 -182,14 -25,3 -70,8 -100,10 -79,5 -217,24 -243,34 -12,4 -45,9 -74,10 -28,1 -87,6 -130,11 -43,6 -132,15 -198,21 -141,13 -153,14 -265,27 -236,28 -637,73 -730,82 -58,5 -141,14 -185,20 -122,15 -283,30 -371,35 -43,2 -128,7 -189,10 -60,3 -126,8 -145,10 -19,3 -78,7 -130,10 -99,6 -139,9 -229,20 -58,7 -147,12 -326,19 -60,2 -121,7 -135,10 -14,3 -65,8 -115,11 -49,3 -106,8 -125,10 -19,3 -64,7 -100,10 -36,3 -168,14 -295,26 -232,20 -263,23 -435,34 -98,6 -176,12 -290,20 -36,3 -157,10 -270,15 -237,11 -373,20 -380,25 -3,2 -62,6 -130,10 -69,4 -127,9 -130,10 -3,2 -62,9 -130,15 -69,6 -170,17 -225,26 -181,26 -239,34 -290,39 -27,3 -65,8 -82,10 -18,3 -68,10 -110,15 -304,36 -516,62 -563,70 -30,6 -109,17 -175,26 -66,8 -167,22 -225,30 -140,20 -317,23 -415,8 z"
       id="path8" />
    <path
       d="m 12040,1615 c 0,-8 5,-15 10,-15 6,0 10,7 10,15 0,8 -4,15 -10,15 -5,0 -10,-7 -10,-15 z"
       id="path10" />
  </g>
</svg>
