<?xml version="1.0" encoding="UTF-8" standalone="no"?>
<!-- Created with Inkscape (http://www.inkscape.org/) -->

<svg
   xmlns:svg="http://www.w3.org/2000/svg"
   xmlns="http://www.w3.org/2000/svg"
   version="1.1"
   width="250.70811mm"
   height="121.78393mm"
   viewBox="0 0 888.33584 431.51785"
   id="svg3349">
  <defs
     id="defs3351" />
  <g
     transform="translate(-36.805521,-448.3614)"
     id="layer1">
    <path
       d="m 227.89312,879.1172 c -3.01506,-0.26772 -6.32196,-1.3268 -7.34867,-2.3535 -1.0267,-1.02671 -2.58253,-1.59206 -3.45739,-1.25635 -0.87486,0.33573 -1.88191,-0.50337 -2.2379,-1.86464 -0.45097,-1.72453 0.64006,-3.64646 3.59803,-6.33813 2.33488,-2.12472 4.60266,-5.05014 5.0395,-6.50098 0.43682,-1.45082 2.066,-4.04411 3.62038,-5.76286 1.55438,-1.71875 3.60594,-4.80791 4.55902,-6.8648 1.20003,-2.58984 2.87621,-3.93783 5.45116,-4.38385 3.16137,-0.54759 3.83219,-1.34482 4.4788,-5.32288 1.24935,-7.68617 4.96464,-13.42847 8.68826,-13.42847 1.76866,0 3.89075,0.675 4.71575,1.5 1.16666,1.16666 1.51156,0.81945 1.55204,-1.5625 0.0286,-1.68438 1.89517,-5.14737 4.1479,-7.69555 3.25359,-3.6803 5.10651,-4.69409 9.01046,-4.92987 4.58193,-0.27674 6.72461,-1.5263 6.77046,-3.94835 0.01,-0.5562 -0.54336,-0.66363 -1.23086,-0.23873 -0.6875,0.4249 -1.25,0.21703 -1.25,-0.46194 0,-2.47015 -4.01854,-5.16306 -7.70462,-5.16306 -2.07683,0 -5.20627,-1.125 -6.95429,-2.5 -1.74803,-1.375 -4.28143,-2.5 -5.62978,-2.5 -1.34835,0 -5.35061,-0.84101 -8.89392,-1.86892 -3.54331,-1.02792 -14.87989,-3.18894 -25.19239,-4.80229 -10.9851,-1.71856 -20.82064,-3.97638 -23.75,-5.45194 -2.75,-1.38522 -10.10967,-3.76406 -16.35482,-5.2863 -10.12288,-2.46741 -15.6804,-4.74574 -28.64518,-11.7432 -7.56394,-4.08248 -23.9261,-10.60896 -30.25944,-12.0698 -3.5802,-0.8258 -9.7677,-3.46684 -13.75,-5.86898 -3.98231,-2.40215 -10.140075,-5.74226 -13.683929,-7.42247 -3.543853,-1.68021 -10.012603,-6.14039 -14.375,-9.9115 -4.362396,-3.7711 -11.341988,-9.80249 -15.510204,-13.40308 -4.168215,-3.60058 -8.134255,-7.67152 -8.813422,-9.04652 -0.679166,-1.375 -3.220615,-6.4375 -5.647663,-11.25 -5.518929,-10.94327 -7.37299,-16.16675 -7.954701,-22.41094 -0.251628,-2.70101 -0.861029,-7.76351 -1.354224,-11.25 -0.493195,-3.48648 -1.044755,-8.87031 -1.225687,-11.96406 -0.180933,-3.09375 -0.728432,-12.375 -1.216664,-20.625 -0.961945,-16.25466 0.627813,-31.24704 3.831898,-36.13709 2.437656,-3.72034 8.227292,-18.51132 7.521969,-19.21665 -0.300253,-0.30025 0.790514,-2.66295 2.423927,-5.25045 1.633413,-2.58749 4.713872,-8.5509 6.845463,-13.25202 2.131593,-4.70114 4.478293,-8.91998 5.214889,-9.37523 0.736595,-0.45524 2.958296,-0.21659 4.937113,0.53033 3.242021,1.22374 4.005143,0.96327 7.716118,-2.63355 2.265049,-2.19537 5.930936,-4.35411 8.146414,-4.79722 2.399113,-0.47982 4.028144,-1.56742 4.028144,-2.68933 0,-5.372 9.627398,-14.5466 10.986376,-10.46967 0.792757,2.37828 5.448373,1.68719 5.198253,-0.77162 -0.40371,-3.96874 0.0361,-5.18789 2.80107,-7.7638 3.25477,-3.03229 8.81591,-3.31852 11.54043,-0.594 2.33235,2.33235 4.47387,1.34949 4.47387,-2.05331 0,-1.86194 4.26797,-10.17389 6.86428,-13.36831 0.85716,-1.05463 4.24352,1.53556 5.43961,4.16068 0.76588,1.68094 1.90689,3.05624 2.53558,3.05624 1.81912,0 2.82741,-3.91776 1.43888,-5.59085 -1.34943,-1.62595 0.13031,-3.93544 11.85703,-18.50572 8.90056,-11.05881 12.4115,-14.25858 19.0991,-17.40632 7.12418,-3.35323 15.61681,-3.6188 21.39507,-0.66903 2.34,1.19456 5.43375,2.16373 6.875,2.15373 3.06983,-0.0213 11.03615,-2.69649 16.37045,-5.49739 2.0625,-1.08296 4.94675,-1.97248 6.40945,-1.97672 1.46269,-0.004 3.35969,-0.85145 4.21555,-1.8827 0.85586,-1.03125 2.31388,-1.875 3.24004,-1.875 0.92615,0 3.77939,-1.17696 6.34052,-2.61545 2.56113,-1.43851 7.78137,-2.8914 11.60052,-3.22865 3.81916,-0.33726 7.78767,-0.93144 8.81892,-1.32041 1.03125,-0.38896 3.10344,-0.58819 4.60486,-0.44272 1.50143,0.14547 6.00143,-0.36112 10,-1.12575 3.99858,-0.76463 10.92639,-1.60048 15.39514,-1.85745 4.46875,-0.25697 14.03125,-0.97672 21.25,-1.59944 7.21875,-0.62273 15.9375,-0.90896 19.375,-0.63609 3.4375,0.27288 24.8125,0.71903 47.5,0.99146 22.6875,0.27242 47.71875,1.15072 55.625,1.95176 7.90625,0.80105 16.90625,1.58182 20,1.73504 17.88843,0.88596 33.39553,2.33701 35.23033,3.29661 1.15792,0.6056 4.31502,1.10109 7.01577,1.10109 2.70075,0 9.59823,1.16672 15.32774,2.59272 5.72951,1.42599 15.79116,3.60593 22.35922,4.84431 6.56807,1.23838 13.01859,2.6985 14.33449,3.24471 1.87234,0.77717 2.1599,0.60717 1.32256,-0.78182 -0.84921,-1.40866 -0.69807,-1.48224 0.73244,-0.35657 1.80758,1.42239 20.8075,6.80709 25.61558,7.25962 1.40971,0.13268 3.23896,0.65894 4.065,1.16945 0.82603,0.51052 5.53721,2.30072 10.46928,3.97823 4.93209,1.67751 10.16299,3.83338 11.62423,4.79082 6.76972,4.43569 14.88575,5.99386 30.51991,5.85942 8.52035,-0.0733 17.2391,0.40026 19.375,1.05229 2.1359,0.65203 6.4147,1.84204 9.50845,2.64447 3.09375,0.80242 7.98476,2.52621 10.86893,3.83065 2.88415,1.30444 6.2712,2.3717 7.52676,2.3717 1.25556,0 6.09325,2.77792 10.75041,6.17318 6.09315,4.44214 10.46709,6.58579 15.59824,7.64467 6.67297,1.37705 10.3963,2.98479 19.63066,8.47649 4.56088,2.71237 14.52229,5.64485 26.25,7.72759 4.8125,0.85466 9.3125,1.96631 10,2.47034 0.6875,0.50404 3.66519,1.28504 6.61709,1.73558 2.95191,0.45054 6.32691,1.3024 7.5,1.89305 7.76717,3.91067 13.13582,5.50149 20.25791,6.00271 4.46875,0.3145 9.8125,1.32582 11.875,2.24737 2.0625,0.92155 10.5,3.18782 18.75,5.03617 8.25,1.84835 18.00318,4.42539 21.67373,5.72675 3.67056,1.30135 8.17056,2.37934 10,2.39552 4.36427,0.0386 19.34128,4.09541 26.45127,7.16483 3.09375,1.33559 7.74189,2.8214 10.32921,3.30183 12.50962,2.32278 29.47705,13.89642 30.5349,20.82812 0.21974,1.43991 1.24022,3.4587 2.26772,4.4862 2.71563,2.71563 2.30853,7.54405 -1.36598,16.20115 -3.00345,7.0761 -3.77602,7.89211 -10.52687,11.11872 l -7.28555,3.48217 -37.28922,-0.71714 c -40.44445,-0.77782 -44.50798,-1.30375 -68.53921,-8.87072 -14.43011,-4.54378 -12.27227,-4.27538 -72.5,-9.01795 -30.72102,-2.41909 -69.0258,-2.67287 -76.875,-0.5093 -8.42439,2.32212 -19.7592,2.54242 -27.68042,0.53801 -12.25425,-3.10086 -18.75792,-2.36539 -38.5807,4.36295 -14.4016,4.88826 -20.54755,6.32616 -29.98888,7.01621 -6.53125,0.47735 -15.25,2.00856 -19.375,3.40269 -4.125,1.39412 -12,2.99492 -17.5,3.55735 -29.61661,3.0285 -30.54434,3.22818 -36.47842,7.85138 -6.92989,5.39903 -16.36993,7.09626 -22.27158,4.00422 -2.0625,-1.0806 -4.75202,-1.9682 -5.97672,-1.97244 -3.12342,-0.0113 -4.27574,-3.77462 -1.72638,-5.63876 2.63204,-1.9246 2.70688,-5.61894 0.11375,-5.61894 -1.08035,0 -2.82371,-0.85944 -3.87414,-1.90985 -2.48325,-2.48325 -0.17095,-5.59015 4.16047,-5.59015 2.59441,0 2.83507,-0.33792 1.72193,-2.41782 -2.11285,-3.94803 -1.51698,-5.08218 2.67017,-5.08218 2.18023,0 4.85211,-0.78979 5.9375,-1.75509 1.5258,-1.35698 3.5013,-1.50963 8.7092,-0.67294 4.6035,0.73959 8.26373,0.60529 11.5625,-0.42426 8.47167,-2.64398 5.66451,-4.11552 -7.98578,-4.18617 -17.17409,-0.0889 -46.91921,-2.60808 -65.3125,-5.53145 -8.25,-1.31124 -18.65625,-2.89041 -23.125,-3.50928 -15.36851,-2.12835 -33.14481,-5.25748 -43.81036,-7.71187 -11.97471,-2.75564 -25.43966,-3.14445 -29.51133,-0.85214 -1.48317,0.83501 -6.63798,5.9387 -11.45513,11.34152 -4.81715,5.40284 -10.6349,10.94323 -12.92832,12.31199 -2.29342,1.36876 -5.85736,4.03393 -7.91986,5.92258 -7.191,6.5849 -21.30157,10.58541 -44.50261,12.61703 -8.52356,0.74638 -16.90113,1.9351 -18.6168,2.6416 l -3.1194,1.28455 3.50161,3.01197 c 1.92589,1.65657 4.73586,3.01963 6.2444,3.02902 5.1693,0.0321 8.3678,1.49464 8.3678,3.82604 0,1.40602 2.18861,3.58412 5.625,5.59799 5.35374,3.1375 7.42231,6.66722 4.0625,6.93208 -0.85937,0.0678 -2.96875,0.20838 -4.6875,0.3125 -2.85992,0.17327 -3.15705,0.74598 -3.50282,6.75183 -0.3351,5.82039 -0.68983,6.5625 -3.13682,6.5625 -1.51745,0 -3.46157,-1.125 -4.32027,-2.5 -0.8587,-1.375 -2.6815,-2.5 -4.05068,-2.5 -1.99452,0 -2.48941,0.83932 -2.48941,4.22195 0,2.32206 -0.88261,4.95444 -1.96135,5.84971 -1.66615,1.38279 -2.38262,1.09948 -4.7602,-1.88229 -2.55819,-3.20827 -3.0412,-3.36195 -5.61757,-1.78722 -2.58557,1.58032 -3.07404,1.41264 -5.90485,-2.02715 -4.47942,-5.44304 -13.48437,-14.35286 -14.51814,-14.36478 -1.11801,-0.0129 -8.61815,-8.08596 -13.47484,-14.5042 -4.51239,-5.96321 -5.20406,-13.6302 -1.34027,-14.85651 1.33252,-0.42292 3.06363,-2.71084 3.84693,-5.08424 0.78329,-2.3734 1.87378,-4.31527 2.4233,-4.31527 0.54953,0 2.25118,-2.91045 3.78145,-6.46767 2.86938,-6.67005 5.19634,-9.78233 7.31398,-9.78233 0.66935,0 1.7944,-1.65633 2.50011,-3.68074 0.70571,-2.0244 2.72949,-4.93833 4.49728,-6.47541 3.85272,-3.3499 4.12308,-4.84749 0.71417,-3.95604 -1.39774,0.36552 -2.5,0.0384 -2.5,-0.74202 0,-1.93005 -5.67287,-1.75005 -9.74957,0.30936 -1.85649,0.93784 -6.75165,1.99685 -10.87815,2.35338 -5.30247,0.45812 -9.88467,1.92656 -15.625,5.00728 -4.46725,2.39748 -10.71624,5.046 -13.88665,5.8856 -4.904,1.2987 -7.92343,3.73167 -20.23005,16.30075 -13.04774,13.32603 -19.63058,22.18295 -19.63058,26.41211 0,0.83263 -0.78503,2.40192 -1.74451,3.4873 -2.399017,2.71382 -1.240577,15.09843 1.41228,15.09843 1.07283,0 1.56736,-0.73577 1.17746,-1.75182 -1.11758,-2.91239 3.68086,-3.16901 9.10214,-0.48677 3.24722,1.6066 5.05263,3.34648 5.05263,4.86922 0,1.30316 0.5625,2.36937 1.25,2.36937 0.6875,0 1.25,1.61863 1.25,3.59695 0,1.97831 0.88662,4.33276 1.97027,5.23211 2.05159,1.70268 2.20677,1.59649 5.4035,-3.69698 1.50442,-2.49119 7.25166,1.90788 8.26473,6.326 0.79976,3.48787 3.75231,5.53887 5.02024,3.48733 2.26193,-3.65988 8.09126,2.23309 8.09126,8.17959 0,3.48765 0.48895,4.375 2.41071,4.375 1.3259,0 3.29835,-0.88762 4.38323,-1.97251 1.36262,-1.36263 3.10767,-1.72319 5.64382,-1.16615 3.13012,0.68747 3.72778,1.47076 4.05428,5.31338 0.4567,5.37478 3.02899,6.74783 4.65067,2.48247 1.0317,-2.71358 1.6796,-2.96125 5.93634,-2.26934 4.08631,0.66421 4.87258,1.31685 5.42966,4.50691 0.60597,3.46992 1.04275,3.7371 6.25885,3.82865 3.95305,0.0694 5.61552,0.62256 5.63483,1.875 0.0394,2.55285 3.23481,9.90159 4.30552,9.90159 0.49754,0 1.90934,-1.11021 3.13734,-2.46712 1.31091,-1.44854 3.32621,-2.26102 4.88124,-1.96789 1.45669,0.27457 3.23864,0.54103 3.9599,0.59212 0.72126,0.0511 2.02019,2.05303 2.88649,4.44875 1.20737,3.33894 2.18273,4.26314 4.1778,3.95867 1.43148,-0.21845 3.30293,-1.35482 4.15876,-2.52524 4.10932,-5.61983 10.59056,-1.78783 10.59056,6.26161 0,8.98212 3.73799,10.71115 7.05128,3.2616 1.14666,-2.57812 1.98402,-5.15119 1.86081,-5.71791 -0.12325,-0.56673 0.29346,-0.71059 0.92596,-0.31968 0.63249,0.3909 1.4584,-0.093 1.83536,-1.07532 1.04587,-2.72549 5.40993,-4.76806 5.40993,-2.5321 0,2.93192 3.34041,12.39132 4.70709,13.32955 0.69863,0.47961 3.07532,-0.50477 5.28151,-2.1875 2.20619,-1.68275 4.28677,-3.05954 4.62351,-3.05954 0.33673,0 2.29974,1.6875 4.36224,3.75 2.87699,2.87699 4.87821,3.75 8.59616,3.75 2.66538,0 5.50858,-0.66242 6.31821,-1.47206 1.12942,-1.12942 2.07409,-0.111 4.05849,4.375 1.42254,3.21588 2.87914,5.84706 3.23689,5.84706 0.35774,0 2.54451,-2.0083 4.85947,-4.46287 4.92545,-5.2225 7.37413,-4.6916 11.86332,2.57206 3.22375,5.21612 4.46585,5.41945 7.7331,1.26581 1.35197,-1.71875 3.28972,-3.125 4.30612,-3.125 2.16956,0 10.45588,8.6608 10.46458,10.9375 0.007,1.89858 1.85505,1.99883 5.07541,0.27534 3.04027,-1.6271 8.68056,1.72377 8.68056,5.15711 0,2.35603 2.10395,3.24111 9.29983,3.91229 2.93163,0.27345 4.84263,1.98592 9.44937,8.46776 3.176,4.46875 7.29355,8.8615 9.1501,9.76166 4.02299,1.95058 6.72204,6.97824 11.95098,22.2617 4.05981,11.86627 5.45357,28.11877 2.56451,29.9043 -0.73438,0.45388 -1.03178,1.616 -0.66089,2.58252 0.99839,2.60173 -8.73407,20.56141 -13.36864,24.66968 -2.20565,1.95518 -6.22826,4.98393 -8.93916,6.73057 -8.82207,5.68411 -31.13817,16.58957 -33.94761,16.58957 -1.50673,0 -9.3803,1.40625 -17.49681,3.125 -13.71725,2.90476 -16.96393,3.10961 -46.06699,2.90661 -17.22033,-0.12012 -33.77656,-0.43742 -36.79163,-0.70515 z"
       id="path3407"
       style="fill:#000000" />
  </g>
</svg>
