<?xml version="1.0" standalone="no"?>
<!DOCTYPE svg PUBLIC "-//W3C//DTD SVG 20010904//EN"
 "http://www.w3.org/TR/2001/REC-SVG-20010904/DTD/svg10.dtd">
<svg version="1.0" xmlns="http://www.w3.org/2000/svg"
 width="1536.000000pt" height="891.000000pt" viewBox="0 0 1536.000000 891.000000"
 preserveAspectRatio="xMidYMid meet">
<metadata>
Created by potrace 1.16, written by Peter Selinger 2001-2019
</metadata>
<g transform="translate(0.000000,891.000000) scale(0.100000,-0.100000)"
fill="#000000" stroke="none">
<path d="M459 8891 c-95 -30 -197 -117 -277 -233 -55 -80 -121 -228 -149 -333
-23 -88 -26 -120 -27 -270 -1 -210 23 -333 94 -475 127 -254 423 -436 654
-401 40 6 81 14 91 17 15 6 17 4 11 -12 -16 -42 -75 -282 -81 -334 -8 -69 9
-213 36 -294 66 -200 250 -287 609 -287 175 -1 331 24 474 75 97 35 221 100
246 130 24 30 30 15 30 -80 0 -112 19 -194 63 -279 65 -122 214 -247 368 -308
309 -123 725 -68 992 132 l67 50 0 -28 c0 -42 29 -129 58 -175 72 -115 286
-266 474 -336 109 -39 182 -52 293 -53 100 0 128 5 310 52 110 28 207 53 216
56 13 4 30 -18 74 -96 173 -310 362 -545 510 -634 67 -40 177 -76 307 -100 72
-13 216 -51 225 -59 2 -1 16 -54 32 -117 134 -530 488 -835 935 -806 107 7
262 38 332 66 l51 19 -38 -71 c-50 -95 -71 -183 -73 -292 -1 -82 2 -95 29
-143 57 -104 173 -182 327 -222 105 -26 276 -44 368 -37 178 12 443 140 588
285 l63 63 37 -30 c20 -16 47 -40 60 -54 l23 -24 -98 -61 c-189 -116 -242
-188 -264 -355 -35 -277 91 -492 378 -640 259 -134 488 -158 784 -82 24 6 27
3 33 -29 10 -54 71 -166 121 -223 85 -96 221 -177 363 -214 147 -40 381 -27
537 28 159 57 303 168 364 282 38 72 71 195 71 266 0 55 -57 237 -105 336
l-24 51 27 14 c183 101 371 212 477 282 l131 87 -1 -150 c0 -142 1 -153 28
-215 123 -289 511 -510 872 -498 100 3 116 7 179 37 141 68 249 210 297 391
25 97 36 304 20 382 -36 171 -190 337 -419 452 -104 52 -163 74 -231 85 -54 9
-73 6 -208 -29 -207 -53 -312 -100 -419 -186 l-41 -33 -11 38 c-54 177 -407
495 -714 641 -150 71 -239 94 -373 95 -102 0 -114 -2 -170 -29 -74 -37 -194
-156 -248 -247 -58 -99 -89 -207 -89 -314 -1 -76 5 -108 36 -210 31 -98 65
-191 113 -303 9 -20 -404 -212 -457 -212 -43 0 -90 38 -283 229 -212 209 -247
249 -225 255 7 1 54 13 103 24 307 74 461 273 506 653 15 134 7 311 -20 414
-69 266 -315 572 -550 683 -202 97 -472 22 -672 -185 -151 -156 -229 -334
-229 -521 l0 -64 -27 5 c-135 29 -187 30 -271 9 -95 -24 -228 -76 -390 -152
-62 -29 -115 -50 -118 -47 -4 3 -17 61 -29 129 -50 272 -115 495 -190 655
-140 297 -261 358 -744 372 l-214 6 -28 107 c-54 205 -151 418 -235 511 -168
187 -421 276 -829 294 l-142 6 -22 75 c-92 311 -289 504 -577 563 -166 35
-350 12 -623 -76 -58 -19 -108 -32 -112 -30 -4 3 -10 21 -14 42 -13 73 -65
155 -149 238 -170 167 -426 275 -690 291 -136 9 -199 -8 -434 -120 -112 -53
-206 -96 -210 -96 -4 0 -6 31 -4 69 10 170 -96 300 -343 422 -152 75 -279 108
-435 116 -114 5 -127 3 -347 -44 -22 -5 -22 -5 8 78 92 253 110 541 48 800
-59 250 -213 414 -444 473 -150 38 -337 46 -426 17z"/>
<path d="M13715 2145 c-263 -49 -452 -222 -511 -470 -22 -94 -22 -277 0 -369
48 -201 194 -337 408 -380 105 -22 207 -20 376 5 78 12 146 19 149 15 4 -3 -8
-90 -27 -193 -30 -169 -32 -192 -22 -256 30 -197 200 -384 418 -459 104 -36
236 -46 384 -29 239 28 384 113 442 260 31 80 31 241 0 325 -35 96 -81 165
-172 257 -183 186 -387 272 -608 255 -50 -4 -90 -2 -102 4 -19 10 -19 11 1 44
28 48 74 178 105 297 24 93 25 108 15 174 -30 205 -136 337 -356 445 -170 84
-327 107 -500 75z"/>
</g>
</svg>
