<?xml version="1.0" standalone="no"?>
<!DOCTYPE svg PUBLIC "-//W3C//DTD SVG 20010904//EN"
 "http://www.w3.org/TR/2001/REC-SVG-20010904/DTD/svg10.dtd">
<svg version="1.0" xmlns="http://www.w3.org/2000/svg"
 width="231.000000pt" height="187.000000pt" viewBox="0 0 231.000000 187.000000"
 preserveAspectRatio="xMidYMid meet">
<metadata>
Created by potrace 1.16, written by Peter Selinger 2001-2019
</metadata>
<g transform="translate(0.000000,187.000000) scale(0.100000,-0.100000)"
fill="#000000" stroke="none">
<path d="M1761 1860 c-18 -5 -51 -16 -72 -25 -32 -15 -39 -23 -39 -47 0 -17
-5 -28 -14 -28 -13 0 -74 -116 -102 -192 -7 -21 -31 -65 -54 -98 -22 -33 -49
-80 -60 -105 -19 -44 -39 -62 -194 -170 -31 -22 -84 -63 -116 -91 -95 -82
-188 -99 -390 -70 -52 7 -140 28 -195 45 -55 17 -167 46 -250 65 -82 20 -166
40 -185 46 -49 14 -80 13 -80 -4 0 -27 48 -53 129 -70 87 -19 118 -38 49 -29
-79 10 -27 -17 93 -48 63 -16 147 -41 188 -54 40 -14 80 -25 87 -25 28 0 105
-43 152 -84 26 -23 66 -54 89 -69 24 -15 45 -38 49 -52 7 -30 -15 -91 -61
-165 -18 -30 -31 -58 -28 -63 10 -17 58 5 94 44 50 54 69 52 69 -7 0 -41 5
-51 36 -81 20 -18 58 -45 84 -58 33 -17 51 -34 60 -57 20 -50 110 -199 138
-230 14 -16 31 -28 38 -28 18 0 44 -46 44 -80 0 -35 -6 -34 75 -14 57 14 64
19 67 42 2 22 9 28 38 33 19 3 50 13 69 23 43 23 29 39 -35 38 -45 -1 -50 1
-121 71 -75 72 -100 104 -89 114 3 3 27 10 53 14 27 4 75 13 108 19 33 6 87
15 121 20 76 12 124 32 194 82 72 51 289 266 302 298 27 67 58 219 58 280 0
38 9 106 19 152 11 46 22 137 26 204 5 102 4 123 -9 134 -25 20 -20 25 33 39
64 16 84 37 44 47 l-28 7 35 15 35 15 -30 8 c-20 6 -44 4 -74 -6 -25 -8 -46
-15 -48 -15 -2 0 -32 29 -66 64 -74 76 -126 111 -192 130 -73 20 -106 24 -144
16z m-569 -1489 c13 -5 69 -59 126 -120 73 -80 102 -118 102 -136 0 -51 -29
-41 -111 41 -68 67 -169 197 -169 218 0 9 25 7 52 -3z"/>
</g>
</svg>
