<?xml version="1.0" standalone="no"?>
<!DOCTYPE svg PUBLIC "-//W3C//DTD SVG 20010904//EN"
 "http://www.w3.org/TR/2001/REC-SVG-20010904/DTD/svg10.dtd">
<svg version="1.0" xmlns="http://www.w3.org/2000/svg"
 width="1023.000000pt" height="1536.000000pt" viewBox="0 0 1023.000000 1536.000000"
 preserveAspectRatio="xMidYMid meet">
<metadata>
Created by potrace 1.16, written by Peter Selinger 2001-2019
</metadata>
<g transform="translate(0.000000,1536.000000) scale(0.100000,-0.100000)"
fill="#000000" stroke="none">
<path d="M1913 15349 c85 -204 126 -319 208 -591 70 -235 61 -207 306 -868
255 -688 343 -946 343 -1017 0 -20 -20 -16 -97 21 -76 36 -80 42 -85 116 -2
27 -9 38 -32 48 -25 12 -36 12 -92 -7 -79 -26 -117 -26 -172 -1 -30 14 -47 29
-57 53 -8 18 -21 39 -29 46 -21 18 -310 35 -337 21 -28 -16 -24 -61 12 -109
17 -24 28 -46 24 -49 -4 -4 -66 -7 -138 -8 -73 0 -159 -7 -192 -14 -66 -14
-272 -83 -317 -106 -38 -20 -58 -63 -58 -125 l0 -52 -41 64 c-86 132 -206 224
-330 250 -78 17 -252 7 -316 -19 -71 -27 -155 -89 -294 -215 -180 -164 -214
-230 -213 -422 1 -101 7 -146 38 -283 43 -186 54 -218 103 -285 65 -88 173
-152 433 -257 166 -67 239 -107 264 -145 12 -19 16 -52 16 -144 0 -176 27
-251 198 -556 52 -93 118 -212 145 -263 58 -110 95 -143 287 -258 222 -134
1218 -615 1460 -706 411 -155 901 -197 1350 -117 63 12 121 22 128 23 8 0 93
-190 221 -494 220 -524 290 -687 567 -1323 567 -1298 918 -2055 983 -2116 26
-25 201 -273 201 -285 0 -12 -23 -5 -150 44 -227 88 -346 90 -508 10 -110 -55
-225 -163 -242 -230 -14 -51 -8 -114 20 -202 11 -34 18 -64 16 -66 -10 -9
-185 138 -334 282 -199 191 -252 227 -353 234 -48 3 -73 10 -85 23 -31 34 -14
51 95 95 57 24 108 47 113 52 21 21 -3 58 -68 105 -63 46 -66 50 -60 80 15 75
79 131 198 172 28 10 56 28 67 44 18 25 19 33 7 129 -11 90 -10 112 6 190 22
108 23 168 2 229 -27 82 -81 188 -128 250 -25 33 -54 81 -65 106 -11 25 -28
50 -38 55 -25 13 -75 -3 -102 -32 -35 -37 -21 -71 86 -209 129 -166 157 -221
158 -314 0 -57 -4 -77 -21 -100 -23 -30 -69 -61 -79 -52 -3 3 -7 57 -8 120 -3
140 -15 171 -117 288 -121 139 -226 201 -268 159 -24 -24 -11 -47 73 -137 100
-107 200 -238 209 -276 7 -29 0 -44 -57 -110 l-35 -40 -129 0 c-110 0 -137 -3
-189 -23 -53 -21 -66 -22 -103 -12 -24 6 -48 21 -57 36 -15 23 -15 28 1 70 20
53 77 127 182 236 70 73 82 98 46 98 -58 0 -255 -155 -294 -233 -12 -23 -25
-77 -31 -131 -13 -115 -13 -116 -37 -116 -25 0 -55 64 -75 163 -24 113 -21
148 12 179 15 15 66 45 113 67 89 42 115 62 104 81 -9 14 -80 12 -142 -4 -82
-22 -118 -50 -150 -114 -27 -55 -28 -62 -29 -220 0 -144 -2 -165 -17 -174 -9
-5 -21 -7 -26 -3 -19 11 -33 119 -27 199 16 196 44 279 122 366 40 45 52 66
45 73 -21 21 -61 -8 -145 -106 -121 -140 -138 -187 -128 -343 4 -71 2 -84 -11
-84 -21 0 -27 22 -27 105 0 87 23 225 50 303 39 111 18 121 -64 30 -31 -34
-67 -85 -81 -112 l-24 -51 24 -94 c44 -164 26 -271 -46 -271 -5 0 -9 98 -9
233 l0 234 95 90 c78 75 95 96 95 121 0 39 -20 55 -53 43 -43 -17 -228 -201
-249 -249 -18 -40 -19 -59 -13 -225 5 -162 4 -179 -9 -157 -33 58 -50 179 -48
349 1 130 -3 182 -18 254 -20 92 -32 117 -57 117 -19 0 -65 -102 -63 -142 1
-18 2 -137 3 -263 2 -226 3 -232 28 -280 14 -29 43 -63 66 -80 38 -27 55 -55
34 -55 -14 0 -61 -48 -61 -63 0 -8 27 -52 61 -98 33 -46 85 -133 114 -194 62
-127 122 -219 210 -325 78 -94 281 -292 357 -349 31 -23 64 -54 73 -68 42 -64
5 -177 -101 -308 -134 -165 -230 -344 -302 -560 -60 -181 -76 -263 -68 -356
19 -229 141 -631 256 -846 45 -83 205 -318 324 -474 202 -266 407 -465 631
-612 116 -76 204 -120 395 -197 319 -129 458 -213 595 -359 197 -210 260 -261
320 -261 19 0 50 12 76 29 24 16 47 27 51 25 5 -3 20 -28 34 -56 37 -73 115
-152 177 -179 59 -25 141 -29 313 -15 114 10 194 2 194 -19 0 -21 -96 -121
-144 -149 -54 -31 -69 -50 -62 -74 6 -17 147 -145 205 -185 20 -14 38 -17 79
-13 63 6 142 46 284 147 185 132 241 144 643 144 307 -1 440 -14 529 -54 23
-10 131 -90 241 -177 110 -88 245 -195 301 -237 l101 -77 299 55 c164 31 385
72 489 91 105 19 195 37 202 39 7 2 -439 757 -1091 1847 l-1103 1843 -935
1805 -935 1805 -83 260 c-100 315 -212 632 -290 820 -82 200 -85 216 -82 449
2 184 0 207 -23 301 -33 134 -32 171 5 256 18 41 33 95 37 132 9 95 -9 124
-131 213 -149 110 -141 87 -141 414 l0 275 -52 110 c-29 61 -77 184 -108 274
-106 313 -209 477 -493 788 -59 65 -169 186 -245 270 -216 239 -360 341 -497
351 l-65 5 -279 701 c-153 385 -414 1039 -579 1453 l-299 752 -42 5 c-22 3
-192 12 -376 21 -184 8 -373 18 -419 21 -69 6 -83 4 -78 -7z"/>
</g>
</svg>
