<?xml version="1.0" standalone="no"?>
<!DOCTYPE svg PUBLIC "-//W3C//DTD SVG 20010904//EN"
 "http://www.w3.org/TR/2001/REC-SVG-20010904/DTD/svg10.dtd">
<svg version="1.0" xmlns="http://www.w3.org/2000/svg"
 width="755.000000pt" height="1024.000000pt" viewBox="0 0 755.000000 1024.000000"
 preserveAspectRatio="xMidYMid meet">
<metadata>
Created by potrace 1.16, written by Peter Selinger 2001-2019
</metadata>
<g transform="translate(0.000000,1024.000000) scale(0.100000,-0.100000)"
fill="#000000" stroke="none">
<path d="M3496 10222 c-3 -6 -3 -18 0 -27 6 -16 -9 -34 -28 -35 -4 0 -15 14
-23 30 -19 36 -37 31 -29 -8 4 -22 0 -29 -23 -40 -24 -11 -29 -10 -38 3 -24
39 -34 50 -41 43 -4 -5 -2 -20 5 -35 10 -21 9 -28 -1 -34 -23 -15 -49 -10 -68
14 -23 28 -38 15 -20 -17 14 -28 8 -56 -13 -56 -7 0 -24 11 -37 25 -12 13 -27
22 -32 19 -4 -3 -1 -12 7 -20 21 -21 19 -29 -11 -49 -24 -16 -27 -16 -45 1
-24 22 -35 13 -17 -16 11 -18 11 -23 -6 -36 -13 -9 -23 -11 -30 -4 -5 5 -19
10 -29 10 -18 0 -18 -2 -4 -23 14 -21 13 -24 -2 -34 -10 -6 -31 -8 -47 -6 -29
6 -29 6 -11 -15 18 -20 18 -21 0 -46 -13 -18 -27 -25 -51 -26 -29 0 -31 -2
-20 -19 14 -22 -3 -51 -30 -51 -12 0 -13 -3 -4 -12 17 -17 15 -38 -3 -38 -18
0 -19 -12 -2 -29 10 -11 9 -15 -4 -23 -14 -10 -14 -16 6 -57 16 -33 20 -48 11
-54 -8 -5 -6 -11 7 -18 20 -12 23 -38 5 -40 -18 -2 -21 -1 -42 7 -16 6 -17 4
-7 -14 11 -21 6 -52 -10 -52 -5 0 -17 9 -26 20 -16 19 -17 19 -47 -13 -17 -18
-37 -44 -45 -59 -8 -16 -18 -28 -23 -28 -14 0 -9 -22 10 -36 16 -13 16 -15 -1
-28 -10 -8 -26 -12 -35 -9 -22 5 -44 -62 -36 -106 4 -17 5 -31 2 -31 -2 0 -23
9 -46 20 -22 11 -52 20 -66 20 -14 0 -28 5 -31 10 -4 6 -12 7 -18 3 -7 -4 -31
-8 -54 -9 -31 -1 -40 2 -36 12 3 8 1 14 -5 14 -5 0 -13 -7 -16 -16 -5 -13 -9
-14 -21 -4 -8 7 -12 16 -9 21 3 5 0 9 -5 9 -6 0 -11 -4 -11 -10 0 -20 -41 -10
-50 13 l-9 22 -7 -22 c-7 -26 -44 -32 -44 -8 0 8 -4 15 -10 15 -5 0 -10 -7
-10 -15 0 -8 -9 -15 -20 -15 -11 0 -20 5 -20 10 0 6 -4 10 -10 10 -5 0 -10 -7
-10 -15 0 -20 -30 -19 -57 3 -19 14 -23 31 -29 100 -7 77 -9 84 -32 93 -20 8
-28 6 -35 -6 -7 -13 -11 -14 -24 -4 -12 10 -16 10 -23 -1 -4 -7 -15 -10 -24
-7 -11 4 -16 1 -16 -9 0 -12 -7 -15 -25 -12 -17 4 -25 1 -25 -8 0 -13 -4 -16
-32 -18 -7 -1 -21 -9 -31 -19 -11 -11 -25 -16 -38 -12 -14 5 -19 2 -19 -10 0
-13 -6 -16 -25 -13 -21 4 -24 2 -20 -13 4 -13 -2 -22 -24 -33 -16 -9 -33 -25
-36 -37 -5 -15 -13 -20 -29 -17 -17 4 -21 0 -21 -21 0 -17 -8 -29 -25 -38 -14
-7 -21 -13 -17 -13 20 0 -17 -40 -37 -40 -19 0 -23 -4 -19 -19 3 -11 -4 -25
-19 -37 -14 -11 -23 -25 -20 -32 2 -7 -5 -16 -15 -18 -15 -4 -19 -12 -15 -30
3 -20 0 -26 -17 -31 -16 -4 -19 -9 -11 -18 7 -9 8 -20 2 -32 -10 -19 -25 -53
-38 -88 -4 -11 -6 -26 -5 -32 1 -7 -3 -13 -9 -13 -5 0 -10 -5 -10 -11 0 -7 13
-9 38 -4 48 8 174 -11 215 -32 18 -9 26 -18 20 -20 -7 -3 -13 -11 -13 -19 0
-8 -9 -14 -20 -14 -11 0 -20 -4 -20 -10 0 -5 5 -10 10 -10 6 0 10 -7 10 -15 0
-9 -9 -15 -21 -15 -18 0 -19 -2 -9 -15 17 -21 -3 -44 -33 -38 -21 4 -21 4 -3
-11 25 -20 15 -63 -16 -68 -25 -4 -37 -28 -14 -28 30 0 14 -65 -17 -75 l-22
-6 23 -9 c12 -5 22 -14 22 -19 0 -24 -21 -60 -37 -64 -15 -3 -13 -6 10 -15 32
-14 34 -26 7 -49 -24 -21 -26 -33 -5 -33 8 0 15 -7 15 -15 0 -8 -4 -15 -10
-15 -5 0 -10 -4 -10 -10 0 -5 7 -10 15 -10 21 0 19 -30 -2 -46 -16 -12 -15
-13 10 -14 30 0 36 -20 11 -41 -14 -11 -14 -13 0 -21 9 -5 16 -16 16 -24 0
-11 8 -9 33 10 18 14 60 38 93 53 55 26 68 28 178 27 99 -1 120 -4 128 -17 5
-10 17 -17 26 -17 9 0 28 -7 42 -15 14 -8 44 -24 67 -35 54 -28 183 -150 183
-174 0 -10 6 -24 14 -30 35 -29 78 -246 49 -246 -33 0 -138 79 -148 111 -4 10
-12 19 -20 19 -7 0 -16 13 -20 29 -3 16 -17 42 -31 58 -26 30 -30 43 -14 43 6
0 9 12 9 28 -1 16 -3 20 -6 10 -6 -25 -22 -22 -33 5 -8 21 -9 21 -9 -5 -1 -31
-12 -36 -31 -13 -17 21 -30 19 -30 -5 0 -22 -34 -28 -46 -9 -4 8 -12 2 -21
-15 -14 -26 -46 -35 -58 -16 -12 19 -25 10 -20 -12 3 -13 -2 -32 -10 -42 -12
-16 -17 -17 -30 -6 -23 19 -29 6 -11 -23 15 -22 15 -25 -4 -42 -11 -10 -26
-15 -35 -11 -14 5 -15 1 -11 -22 4 -17 1 -35 -8 -47 -13 -17 -18 -18 -35 -7
-14 8 -21 8 -21 2 0 -6 -13 -16 -29 -21 -19 -7 -31 -19 -33 -32 -2 -14 -11
-23 -25 -25 -12 -2 -23 -13 -27 -26 -3 -12 -15 -33 -26 -46 -11 -13 -20 -31
-20 -40 0 -9 -6 -25 -14 -35 -7 -10 -11 -26 -9 -35 7 -25 -15 -70 -33 -70 -14
0 -14 -3 -4 -15 8 -10 10 -29 6 -54 -3 -23 -2 -42 4 -46 13 -8 13 -48 -1 -62
-8 -8 -8 -13 0 -17 19 -12 12 -47 -9 -53 -27 -7 -25 -23 3 -23 12 0 29 -5 37
-10 13 -9 11 -14 -12 -35 -32 -28 -35 -37 -10 -33 13 2 17 -4 16 -32 0 -19 6
-39 13 -43 7 -4 13 -17 13 -27 0 -13 9 -22 26 -26 24 -6 26 -10 20 -47 l-7
-40 31 6 c26 6 30 4 30 -16 0 -17 -8 -25 -32 -32 -28 -8 -33 -15 -33 -40 -1
-17 -4 -36 -8 -42 -6 -10 0 -11 23 -7 26 6 30 4 30 -16 0 -13 -8 -24 -18 -27
-17 -4 -18 -8 -6 -55 8 -28 18 -56 24 -63 6 -7 8 -19 4 -28 -3 -8 2 -27 11
-41 16 -24 16 -26 0 -32 -9 -4 -27 -2 -39 4 -13 6 -29 7 -37 2 -8 -6 -20 -3
-31 6 -9 9 -21 13 -27 10 -6 -4 -19 1 -30 11 -38 35 -50 43 -64 43 -8 0 -33
23 -56 50 -23 28 -51 50 -61 50 -26 0 -80 -56 -102 -107 -10 -23 -23 -45 -28
-48 -6 -3 -10 -14 -10 -24 0 -10 -7 -24 -16 -32 -11 -9 -14 -22 -10 -41 5 -23
2 -28 -14 -28 -11 0 -20 5 -20 10 0 6 -6 10 -14 10 -19 0 -43 144 -27 164 37
44 -51 63 -124 26 -22 -11 -47 -20 -57 -20 -10 0 -18 -4 -18 -10 0 -5 -5 -10
-12 -10 -7 0 -22 -11 -33 -24 -11 -12 -34 -30 -52 -39 -17 -9 -41 -33 -53 -53
-13 -19 -36 -50 -51 -67 -16 -17 -29 -41 -29 -53 0 -12 -7 -27 -15 -34 -8 -7
-15 -23 -15 -36 0 -12 -5 -35 -11 -51 -6 -15 -13 -66 -14 -112 -3 -75 -6 -86
-31 -112 -31 -32 -33 -30 45 -33 44 -1 47 -15 11 -44 -24 -19 -30 -20 -42 -8
-16 15 -84 16 -81 1 1 -6 11 -12 23 -15 12 -3 21 -8 21 -12 -1 -5 -1 -15 -1
-23 0 -8 -14 -17 -35 -21 -66 -12 -53 -28 18 -21 56 5 67 4 67 -9 0 -17 -57
-44 -95 -44 -14 0 -25 -4 -25 -10 0 -5 16 -10 35 -10 58 0 42 -32 -28 -54 -13
-4 -15 -10 -8 -23 14 -26 24 -56 25 -73 1 -8 9 -14 18 -12 20 3 24 -18 8 -34
-13 -13 40 -74 63 -74 8 0 17 -7 21 -15 3 -8 12 -12 21 -9 8 4 21 2 28 -4 15
-12 71 -9 89 5 19 16 108 23 108 9 0 -24 -143 -84 -242 -100 -114 -19 -145
-39 -143 -96 2 -49 24 -110 39 -110 7 0 26 -18 41 -40 45 -64 57 -66 395 -57
l55 2 0 -43 c0 -24 -3 -46 -8 -49 -4 -2 -7 -17 -7 -34 0 -24 -4 -29 -22 -29
-33 1 -106 23 -158 47 -80 37 -89 36 -173 -8 -32 -17 -91 26 -132 96 -36 62
-63 83 -83 63 -6 -6 -12 -6 -17 2 -5 8 -11 4 -19 -12 -9 -17 -19 -22 -39 -20
-19 3 -27 -1 -27 -12 0 -15 -4 -18 -32 -20 -7 -1 -15 -14 -18 -31 -4 -22 -11
-30 -25 -30 -13 0 -21 -8 -23 -24 -2 -13 -12 -26 -23 -28 -14 -4 -16 -9 -9
-23 15 -29 12 -40 -15 -50 -26 -10 -32 -24 -15 -35 17 -10 11 -35 -8 -35 -28
0 -33 -10 -17 -34 19 -26 19 -50 0 -66 -12 -10 -13 -16 -4 -26 6 -8 9 -27 6
-43 -5 -24 -2 -31 13 -36 24 -8 26 -28 5 -45 -14 -12 -13 -15 5 -32 23 -22 23
-23 10 -48 -8 -15 -6 -21 11 -31 17 -8 20 -17 15 -40 -5 -25 -3 -28 17 -26 17
1 23 -4 25 -23 5 -34 19 -49 41 -43 13 3 20 -2 24 -17 4 -17 10 -20 26 -15 17
5 23 1 31 -21 10 -25 12 -26 28 -10 14 12 21 13 30 4 9 -9 16 -8 29 4 10 8 24
13 30 11 7 -3 16 2 19 11 7 18 49 22 59 6 3 -5 13 -10 21 -10 9 0 29 -14 46
-30 16 -17 40 -30 54 -30 13 0 24 -3 24 -8 0 -4 16 -7 35 -7 28 0 43 8 70 37
19 20 35 43 35 51 0 16 37 67 49 67 19 0 39 -67 32 -106 -18 -95 -82 -167
-235 -264 -54 -34 -86 -60 -84 -70 1 -8 -1 -20 -5 -27 -4 -6 -3 -14 3 -18 15
-9 12 -45 -5 -51 -20 -8 -19 -24 1 -24 13 0 15 -7 12 -32 -3 -20 0 -38 9 -47
10 -9 13 -25 9 -43 -4 -22 -2 -28 13 -28 27 0 41 -40 23 -67 -15 -24 -4 -31
16 -11 10 9 16 8 29 -5 14 -13 15 -21 5 -42 -9 -20 -9 -25 1 -25 7 0 18 5 24
11 17 17 55 -8 53 -34 -3 -37 -1 -41 19 -23 15 14 24 15 40 6 12 -6 21 -20 21
-30 0 -24 13 -26 30 -5 14 17 50 3 50 -20 0 -20 10 -19 25 2 13 18 35 10 35
-13 0 -18 16 -18 23 0 6 16 47 10 60 -8 5 -7 12 -4 22 9 13 16 19 17 34 8 15
-9 21 -8 35 9 10 11 24 17 33 14 18 -7 63 19 63 36 0 6 -7 19 -15 28 -9 10
-19 34 -22 54 -5 32 -3 36 15 36 11 0 23 -4 26 -9 7 -11 76 -22 130 -21 21 0
44 -4 51 -10 9 -8 20 -8 32 -2 10 5 32 7 49 5 18 -3 35 0 38 6 4 6 15 11 25
11 24 0 81 29 81 41 0 5 9 9 20 9 12 0 25 10 32 25 6 14 17 25 23 25 11 0 21
19 39 74 9 27 -10 119 -42 196 -22 56 -26 79 -25 170 0 114 8 156 30 182 8 9
12 21 9 27 -6 10 19 59 36 71 9 7 56 89 64 113 4 9 12 17 18 17 6 0 34 16 61
35 85 59 189 129 215 143 77 43 201 102 214 102 9 0 24 4 34 9 92 46 431 92
507 68 11 -4 67 -13 125 -21 230 -32 385 -95 488 -196 101 -100 129 -152 201
-373 7 -21 13 -87 14 -145 1 -91 -2 -115 -21 -158 -35 -78 -101 -104 -176 -69
-51 24 -60 47 -41 110 15 54 44 90 123 156 18 15 32 31 32 37 0 6 -29 40 -65
76 -74 74 -206 146 -268 146 -20 0 -38 4 -41 9 -10 15 -165 3 -199 -16 -74
-41 -80 -56 -45 -106 30 -41 31 -135 4 -187 -24 -44 -34 -50 -63 -39 -107 41
-177 199 -174 393 2 74 -15 126 -40 126 -9 0 -19 -9 -22 -20 -9 -33 -39 -14
-32 20 7 33 3 35 -90 35 -69 0 -70 0 -75 -29 -7 -38 -26 -44 -34 -11 -8 32
-31 28 -31 -6 0 -30 -31 -38 -40 -10 -10 32 -39 27 -31 -4 8 -31 -21 -48 -36
-22 -14 26 -31 20 -24 -8 5 -18 1 -27 -15 -36 -19 -10 -25 -8 -39 11 -20 27
-34 13 -24 -23 8 -32 -12 -44 -37 -22 -18 17 -20 17 -40 -9 -11 -14 -29 -26
-40 -26 -23 0 -25 -13 -4 -30 8 -7 15 -18 15 -26 0 -19 -20 -28 -33 -15 -21
21 -47 12 -53 -19 -4 -16 -10 -30 -14 -30 -5 0 -13 -15 -18 -32 -8 -29 -9 -57
-4 -121 3 -28 92 -117 134 -134 34 -14 53 -43 28 -43 -15 0 1 -61 28 -105 56
-88 66 -181 28 -260 -31 -66 -53 -87 -129 -125 -76 -37 -154 -48 -227 -30 -49
12 -52 11 -73 -11 -12 -13 -21 -28 -19 -33 2 -6 -3 -15 -11 -21 -46 -33 -40
-235 8 -295 32 -38 28 -57 -19 -92 -25 -18 -45 -39 -46 -47 0 -8 -7 -19 -15
-25 -12 -9 -13 -19 -4 -56 6 -25 13 -52 16 -60 4 -8 5 -19 4 -24 -1 -4 4 -15
11 -23 7 -8 14 -27 16 -42 2 -14 10 -30 18 -34 8 -4 14 -15 14 -24 0 -16 73
-93 89 -93 14 0 20 -63 8 -82 -8 -12 -7 -21 2 -32 9 -11 10 -20 2 -35 -15 -26
-14 -28 10 -34 16 -4 19 -11 14 -26 -5 -16 -1 -23 19 -31 14 -5 28 -20 32 -34
3 -15 17 -29 35 -35 16 -5 29 -17 29 -25 0 -10 9 -16 24 -16 16 0 27 -7 31
-21 4 -12 12 -18 21 -15 17 6 84 -21 84 -34 0 -6 7 -10 15 -10 8 0 15 5 15 10
0 17 33 11 56 -11 21 -20 23 -20 49 -3 22 14 30 15 50 4 20 -11 26 -10 40 3
12 12 22 14 40 7 20 -8 27 -6 36 11 8 16 17 19 35 15 18 -5 24 -2 24 10 0 12
7 15 26 11 20 -3 27 1 34 18 5 13 18 26 29 30 11 3 23 15 26 26 4 10 15 19 26
19 10 0 19 5 19 10 0 6 11 23 25 38 14 15 25 30 25 34 0 11 -43 48 -56 48 -15
0 -68 60 -91 103 -27 51 -25 252 4 334 35 100 68 142 166 206 53 35 83 48 127
54 14 1 42 6 63 9 52 9 197 -22 277 -58 133 -61 152 -73 213 -137 143 -152
188 -325 157 -606 -12 -106 -44 -221 -66 -233 -11 -6 -13 -14 -6 -33 11 -28
-3 -67 -30 -87 -10 -7 -18 -20 -18 -28 0 -8 -7 -14 -15 -14 -21 0 -31 -30 -14
-41 19 -12 0 -43 -30 -47 -15 -3 -21 -10 -21 -29 0 -29 -72 -107 -92 -101 -8
3 -17 -8 -23 -26 -7 -21 -19 -33 -40 -40 -16 -5 -53 -19 -81 -32 -44 -21 -62
-23 -155 -20 -57 2 -147 12 -199 21 -129 23 -228 7 -279 -44 -21 -21 -79 -43
-92 -36 -4 3 -25 -10 -46 -28 -46 -41 -75 -57 -104 -57 -13 0 -42 -20 -73 -52
-43 -43 -58 -52 -91 -54 -22 -1 -66 -14 -98 -28 -43 -19 -72 -25 -113 -23 -30
2 -59 0 -65 -3 -18 -12 66 -169 148 -277 43 -57 60 -135 46 -211 -12 -63 -9
-70 42 -102 36 -23 122 -29 215 -16 67 10 162 -19 197 -59 14 -15 33 -25 50
-25 73 -1 153 -69 153 -131 0 -39 71 -104 162 -149 71 -35 88 -40 181 -45 56
-3 118 -11 138 -17 49 -14 157 4 222 37 42 23 58 26 101 20 113 -14 212 -16
236 -5 14 6 48 26 75 46 28 19 68 39 90 44 22 6 56 18 75 29 19 10 62 24 95
31 33 6 76 22 96 35 31 20 38 31 42 67 3 24 8 55 12 71 10 37 -9 57 -54 57
-58 0 -134 42 -175 95 -43 57 -59 109 -60 190 0 64 20 108 87 184 16 19 40 56
52 82 12 26 33 63 46 81 14 18 30 44 36 58 15 37 96 149 137 193 20 21 36 47
36 57 0 10 7 20 15 24 8 3 15 12 15 20 0 9 9 20 20 26 11 6 22 21 26 35 3 13
12 26 20 29 8 3 14 14 14 25 0 11 9 25 20 31 11 6 20 20 20 30 0 11 9 28 20
37 24 21 25 32 4 48 -16 11 -16 14 1 42 10 17 33 38 52 47 27 13 41 31 64 83
33 71 88 152 104 153 6 0 35 27 65 61 38 42 80 74 139 107 77 42 92 46 167 50
93 5 122 -7 148 -63 22 -45 20 -58 -9 -93 -14 -17 -25 -34 -24 -39 1 -4 -2
-17 -6 -27 -6 -13 -3 -22 7 -30 9 -7 18 -23 20 -36 2 -19 10 -26 31 -28 19 -2
31 -11 37 -28 10 -26 20 -30 36 -14 15 15 44 1 44 -21 0 -23 28 -26 36 -4 8
20 24 19 41 -2 13 -17 14 -17 29 5 20 27 41 28 49 2 9 -28 32 -25 39 5 8 33
33 43 50 20 18 -25 50 -13 41 15 -8 25 20 38 47 21 24 -15 38 -6 38 23 0 31
19 46 56 43 23 -2 29 2 29 18 0 32 35 75 60 75 26 0 39 22 23 38 -16 16 10 44
32 37 23 -7 48 21 32 37 -20 20 -14 46 11 50 18 2 22 9 22 36 0 18 7 37 15 42
12 7 11 12 -5 30 -16 18 -17 24 -7 41 14 22 8 39 -14 39 -16 0 -19 26 -4 35
14 9 -7 35 -26 35 -8 0 -14 7 -14 15 0 9 -8 19 -17 22 -10 4 -24 13 -31 20 -8
7 -17 11 -22 8 -5 -3 -11 -1 -15 5 -9 14 -99 2 -157 -21 -52 -20 -93 -17 -102
8 -8 19 5 41 46 79 95 89 260 80 319 -17 23 -37 39 -49 39 -29 0 6 7 10 15 10
8 0 15 9 15 20 0 13 5 18 15 14 10 -4 15 0 15 14 0 11 7 22 15 26 8 3 15 13
15 23 0 10 7 30 14 45 22 42 17 239 -6 265 -11 12 -14 23 -8 29 16 16 -1 86
-22 92 -13 3 -18 12 -16 31 2 17 -2 26 -12 26 -9 0 -14 9 -13 23 2 16 -3 22
-17 22 -15 0 -19 6 -17 23 2 19 -2 22 -25 19 -21 -2 -28 2 -28 14 0 11 -6 15
-20 11 -12 -3 -20 0 -20 8 0 16 -27 28 -35 15 -3 -4 -17 -5 -33 -1 -24 6 -27
13 -30 52 -2 24 -7 48 -13 53 -5 6 -9 17 -9 25 0 21 -40 101 -50 101 -5 0 -15
12 -22 27 -8 16 -23 29 -36 31 -13 2 -27 14 -32 28 -6 14 -18 24 -29 24 -10 0
-24 7 -31 15 -9 11 -22 14 -42 10 -16 -4 -34 -2 -41 3 -16 13 -62 13 -112 -1
-46 -13 -91 -55 -120 -113 -71 -145 -273 -248 -340 -174 -15 17 -16 28 -4 112
11 78 18 100 46 138 18 25 40 59 48 77 8 18 24 37 35 43 11 6 20 17 20 25 0 8
4 15 8 15 14 0 98 83 105 103 4 10 11 16 17 12 5 -3 27 10 48 30 22 19 44 35
49 35 6 0 21 8 34 18 13 10 40 24 59 31 19 7 44 17 55 22 84 35 219 39 289 8
78 -34 132 -76 166 -129 39 -62 87 -181 93 -235 7 -58 26 -125 37 -125 4 0 15
-3 24 -6 10 -4 17 2 22 20 8 34 22 33 26 -1 2 -17 10 -29 21 -31 14 -3 17 1
12 21 -5 19 -2 25 14 30 24 6 48 -11 53 -37 5 -33 28 -31 28 3 0 42 19 49 33
12 16 -42 37 -40 37 4 0 40 22 48 42 16 6 -10 18 -17 25 -14 16 6 17 -13 2
-56 -6 -17 -8 -39 -3 -49 4 -9 6 -23 5 -30 -1 -8 7 -16 18 -19 12 -3 21 -12
21 -19 0 -17 16 -19 25 -3 5 7 13 5 25 -6 14 -13 23 -14 39 -6 27 15 31 14 31
-9 0 -26 12 -25 28 1 l14 21 15 -21 c12 -18 18 -20 29 -10 11 9 19 8 34 -6 18
-16 20 -16 26 -1 8 22 64 22 64 0 0 -23 24 -11 28 14 4 24 12 28 29 11 19 -19
44 -3 37 25 -7 30 12 43 34 23 21 -18 42 -11 42 13 0 13 9 20 28 22 23 2 27 8
27 33 0 30 26 47 40 26 14 -23 26 -9 23 27 -3 36 -2 37 30 34 39 -3 53 20 28
47 -14 16 -15 20 -2 30 8 7 24 10 35 6 24 -7 37 25 21 55 -9 18 -8 20 15 20
30 0 32 19 5 43 -24 20 -18 37 11 37 21 0 27 35 7 43 -10 3 -10 9 -2 23 7 13
8 30 2 52 -8 28 -6 36 9 47 14 10 18 28 19 82 1 37 -2 73 -8 80 -6 7 -5 14 2
18 7 4 7 12 0 25 -5 10 -7 25 -4 33 3 8 1 18 -5 22 -6 3 -11 14 -11 25 0 10
-7 20 -15 24 -11 4 -14 13 -9 31 5 21 3 25 -15 25 -12 0 -21 6 -21 14 0 18
-32 15 -82 -7 -74 -33 -210 -10 -176 30 9 11 9 16 0 22 -7 4 -10 15 -6 24 3
10 1 17 -5 17 -6 0 -11 8 -11 18 0 13 -13 21 -45 30 -27 7 -45 18 -45 27 0 23
121 141 174 169 27 14 54 31 61 36 7 6 20 8 29 4 9 -4 18 0 21 8 5 12 17 13
68 5 74 -11 136 -38 169 -75 36 -39 69 -64 75 -58 3 3 14 1 24 -5 15 -8 21 -6
25 6 4 9 13 14 21 11 10 -4 13 1 11 17 -3 19 1 22 27 19 26 -4 27 -2 16 12 -7
9 -11 23 -7 31 5 13 10 14 26 5 20 -11 21 -9 14 26 -6 32 -4 36 9 31 18 -7 33
8 17 18 -16 10 -12 48 5 42 20 -8 29 10 10 21 -22 12 -8 42 19 42 l21 0 -22
18 c-17 13 -19 22 -12 40 5 13 13 21 18 17 5 -3 12 -1 16 5 3 6 -1 13 -9 16
-21 8 -20 50 2 64 12 8 13 13 5 16 -15 7 -17 44 -3 44 6 0 10 7 10 15 0 8 -7
15 -15 15 -20 0 -19 29 2 52 15 17 15 18 -5 18 -29 0 -37 18 -17 40 16 18 6
38 -14 25 -14 -8 -25 35 -12 48 17 17 13 26 -8 20 -26 -7 -48 32 -30 53 15 19
4 30 -15 15 -12 -10 -17 -8 -26 9 -6 11 -8 25 -5 30 11 18 -5 32 -21 19 -19
-16 -44 5 -44 37 0 21 -3 24 -26 18 -20 -5 -26 -2 -31 15 -4 16 -9 19 -18 11
-7 -6 -20 -7 -29 -4 -12 5 -19 0 -23 -15 -3 -11 -9 -21 -14 -21 -5 0 -21 -26
-36 -57 -43 -87 -91 -128 -225 -188 -24 -11 -48 -14 -68 -10 l-31 7 2 71 c2
50 -3 83 -14 109 -9 21 -17 45 -17 54 0 20 -30 74 -52 95 -10 9 -18 21 -18 28
0 14 -15 14 -42 0 -15 -8 -22 -8 -28 0 -7 13 -4 103 5 131 3 10 2 21 -4 24 -5
3 -7 15 -4 26 4 14 0 20 -12 20 -14 0 -16 6 -12 29 5 25 3 30 -16 33 -17 2
-22 10 -22 33 0 25 -4 30 -22 28 -26 -3 -32 24 -8 33 10 4 13 14 9 30 -5 20
-2 24 15 24 24 0 27 10 9 28 -9 9 -7 12 10 12 25 0 30 18 7 26 -23 9 -19 37 5
31 27 -7 25 7 -2 26 l-23 15 25 10 25 9 -23 7 c-29 10 -29 36 1 37 l22 0 -22
16 c-26 17 -31 53 -8 53 23 0 18 16 -10 28 -28 13 -32 30 -10 38 21 8 19 24
-4 24 -26 0 -48 27 -33 42 19 19 14 28 -13 28 -24 0 -30 9 -26 38 1 6 -3 12
-10 12 -6 0 -18 8 -25 18 -12 16 -16 14 -51 -20 -45 -43 -102 -59 -123 -34 -7
9 -10 19 -6 23 3 3 -7 14 -24 24 -16 10 -32 30 -36 44 -4 15 -13 25 -24 25
-10 0 -26 7 -34 16 -9 8 -21 12 -26 9 -30 -19 -116 38 -104 68 3 9 2 17 -3 17
-5 0 -9 18 -8 40 1 56 94 174 179 230 64 42 69 44 156 44 57 1 71 15 54 54 -4
9 -6 25 -5 35 1 9 -5 20 -13 23 -18 7 -22 34 -6 34 6 0 10 7 10 15 0 9 -9 15
-25 15 -31 0 -34 25 -4 33 12 3 18 10 14 16 -3 6 -17 8 -31 5 -30 -8 -47 23
-20 38 23 13 10 29 -19 22 -18 -4 -26 0 -35 17 -11 19 -10 24 4 35 20 14 6 27
-18 18 -22 -8 -57 24 -55 50 2 35 0 39 -16 26 -21 -18 -55 -3 -55 25 0 13 -4
27 -10 30 -5 3 -10 1 -10 -4 0 -20 -32 -11 -37 9 -6 21 -18 26 -28 10 -9 -15
-35 0 -35 21 0 21 -25 26 -34 7 -3 -10 -8 -8 -16 4 -6 10 -17 15 -26 11 -11
-4 -15 -20 -13 -67 2 -87 -26 -206 -49 -206 -7 0 -45 -69 -56 -102 -3 -10 -15
-18 -26 -18 -11 0 -20 -4 -20 -8 0 -5 -19 -19 -41 -32 -23 -12 -51 -32 -62
-43 -12 -12 -28 -22 -37 -23 -69 -11 -144 -16 -173 -10 -40 8 -94 55 -103 91
-3 14 -10 28 -15 30 -4 3 -6 18 -4 33 2 15 7 48 10 74 7 53 58 118 97 124 167
23 197 18 267 -41 29 -25 54 -45 56 -45 2 0 1 9 -2 20 -3 13 0 20 8 20 10 0
10 3 1 12 -17 17 -15 58 3 58 11 0 10 7 -6 35 -12 20 -16 35 -10 35 13 0 15
27 2 32 -14 5 -25 58 -12 58 6 0 11 7 11 15 0 8 -7 15 -15 15 -8 0 -15 9 -15
20 0 11 6 20 13 20 6 0 -1 11 -18 24 -24 20 -27 26 -17 39 10 12 9 15 -8 20
-20 5 -29 37 -10 37 6 0 10 5 10 10 0 6 -9 10 -20 10 -20 0 -22 4 -24 45 -1
12 -7 19 -16 18 -19 -3 -59 55 -57 82 2 16 -3 19 -24 17 -28 -3 -43 16 -32 44
4 12 0 14 -21 8 -19 -4 -27 -2 -31 10 -17 53 -14 51 -29 31 -14 -19 -36 -13
-36 11 0 8 -7 14 -15 14 -8 0 -15 -5 -15 -10 0 -6 -11 -8 -25 -4 -30 7 -44
-18 -24 -42 7 -9 12 -37 12 -64 -1 -88 -72 -150 -171 -150 -85 0 -162 76 -162
160 0 61 9 66 106 65 77 -2 87 0 92 17 3 11 13 18 29 18 20 0 23 4 18 20 -5
16 -2 20 15 20 17 0 19 4 14 25 -5 19 -2 25 11 25 14 0 16 6 12 29 -5 24 -2
30 15 34 15 4 19 11 15 28 -6 21 -4 21 54 16 91 -8 159 -70 159 -145 0 -38 22
-56 57 -47 40 9 117 48 126 62 4 7 13 13 20 13 14 0 67 63 67 79 0 6 9 16 20
23 11 7 20 23 20 35 0 12 4 25 10 28 15 10 50 95 50 124 0 15 5 32 10 37 11
11 22 134 22 245 0 74 -29 161 -68 204 -17 19 -36 35 -41 35 -6 0 -15 -17 -21
-37 -9 -28 -23 -45 -56 -66 -54 -34 -170 -57 -189 -38 -9 10 -8 15 6 26 16 11
16 15 3 28 -9 8 -12 23 -9 36 4 16 1 21 -15 21 -24 0 -37 27 -21 46 9 11 6 16
-15 24 -48 18 -28 38 67 67 30 9 95 16 152 17 l100 2 1 63 c0 50 -4 65 -18 75
-12 8 -16 19 -12 30 4 11 0 22 -11 30 -13 9 -15 15 -7 20 21 13 13 36 -12 36
-27 0 -43 28 -21 36 22 9 18 23 -9 34 -29 11 -51 46 -36 55 18 11 10 25 -14
25 -30 0 -47 20 -44 51 2 19 -2 23 -22 24 -20 0 -26 6 -28 27 -3 22 -8 26 -30
25 -23 -2 -28 3 -30 26 -3 23 -7 26 -27 21 -35 -9 -68 12 -59 39 6 19 5 20 -9
9 -22 -18 -54 -6 -71 26 -13 23 -15 25 -21 10 -10 -25 -34 -22 -44 5 -8 19
-10 20 -16 5 -10 -24 -23 -23 -46 5 l-18 22 -1 -22 c0 -25 -19 -30 -39 -10
-11 10 -14 10 -18 0 -3 -7 -15 -13 -28 -13 -13 0 -27 -5 -30 -10 -5 -8 -11 -8
-20 0 -9 8 -14 5 -18 -10 -3 -13 -11 -18 -20 -14 -22 8 -27 -40 -12 -100 18
-70 8 -182 -18 -198 -20 -12 -49 11 -41 34 5 17 3 20 -11 14 -20 -7 -57 25
-53 46 2 9 -10 13 -37 13 -33 0 -40 3 -40 20 -1 13 -6 18 -15 16 -33 -10 -65
-2 -82 21 -17 21 -19 22 -29 6 -12 -22 -32 -23 -49 -3 -11 14 -15 14 -32 -2
-16 -14 -23 -15 -39 -5 -16 10 -21 10 -26 -4 -4 -10 -13 -14 -28 -10 -15 4
-25 1 -29 -9 -3 -8 -15 -15 -26 -15 -13 0 -20 -7 -20 -20 0 -11 -7 -20 -15
-20 -8 0 -15 -7 -15 -15 0 -8 -4 -15 -9 -15 -5 0 -14 -30 -21 -67 -23 -131
-32 -178 -40 -198 -4 -11 -15 -38 -23 -60 -9 -22 -20 -56 -26 -75 -11 -43 -34
-103 -41 -110 -3 -3 -13 -21 -23 -40 -10 -19 -29 -48 -43 -63 -22 -26 -26 -27
-40 -13 -8 9 -20 16 -25 16 -21 0 -142 97 -169 136 -55 79 -70 107 -90 169
-12 39 -26 79 -32 91 -5 11 -8 24 -7 30 1 5 0 11 -1 14 -1 3 -3 55 -5 115 -5
165 37 328 116 449 39 59 48 86 28 86 -7 0 -9 10 -5 26 6 23 4 25 -15 19 -19
-6 -20 -4 -14 24 6 30 -6 43 -20 21 -14 -22 -26 -9 -20 20 6 28 -8 45 -17 19
-2 -5 -11 -7 -21 -3 -14 5 -17 13 -13 30 7 28 0 30 -26 7 -16 -14 -21 -15 -27
-4 -5 7 -6 22 -4 32 6 22 -10 25 -27 5 -18 -22 -43 -8 -36 20 5 17 2 24 -8 24
-7 0 -16 -9 -19 -20 -8 -30 -45 -26 -49 5 -4 32 -22 37 -26 8 -2 -16 -11 -23
-28 -24 -13 -1 -30 -2 -36 -3 -7 -1 -15 12 -18 28 -3 16 -11 31 -17 33 -9 3
-11 -4 -7 -25 5 -25 2 -30 -18 -35 -35 -10 -38 -9 -38 16 0 28 -15 53 -24 39z
m-697 -1248 c61 -65 101 -128 101 -159 0 -8 4 -15 10 -15 10 0 80 -141 110
-225 45 -122 70 -303 43 -312 -8 -3 -13 5 -13 20 0 23 -85 127 -104 127 -5 0
-24 11 -42 25 -41 31 -74 34 -67 5 4 -14 0 -20 -10 -20 -31 0 -47 13 -47 36 0
22 -4 24 -42 23 -83 -4 -107 0 -118 20 -15 30 -40 169 -40 228 0 69 19 206 31
218 5 5 9 20 9 33 0 21 19 64 43 99 12 16 54 -16 136 -103z m1694 -1179 c10
-1 22 -8 27 -15 5 -8 12 -11 16 -8 7 8 84 -46 125 -87 14 -15 31 -43 38 -63 7
-20 21 -55 31 -77 29 -61 34 -130 16 -214 -8 -40 -22 -84 -31 -97 -45 -69
-145 -103 -201 -68 -50 30 -114 106 -146 171 -53 110 -63 315 -20 415 22 50
42 60 97 50 17 -3 38 -6 48 -7z m-1432 -866 c21 -17 39 -36 39 -43 0 -7 9 -21
20 -31 11 -10 22 -26 25 -37 4 -10 19 -32 34 -48 25 -27 51 -93 66 -163 6 -31
-8 -93 -29 -120 -18 -23 -118 -59 -131 -46 -5 5 -20 9 -33 9 -30 0 -97 46
-165 113 -56 56 -65 71 -92 158 -17 51 -17 57 -1 90 27 57 91 120 138 134 65
21 87 18 129 -16z m1127 -701 c16 -14 15 -91 -2 -131 -16 -39 -51 -71 -91 -84
-68 -23 -195 21 -195 67 0 21 71 119 97 134 63 35 156 42 191 14z m1721 -107
c9 -5 39 -19 66 -32 28 -12 62 -31 77 -42 26 -19 26 -20 8 -51 -12 -21 -24
-30 -39 -29 -12 2 -21 -3 -21 -11 0 -8 -6 -16 -13 -19 -16 -6 -15 -66 2 -152
14 -67 10 -185 -8 -229 -9 -23 -14 -26 -26 -16 -8 7 -15 20 -15 29 0 10 -9 27
-20 39 -11 12 -20 30 -20 42 0 11 -7 23 -15 26 -8 3 -23 22 -35 41 -13 23 -26
33 -35 29 -9 -3 -24 5 -37 19 -16 18 -27 23 -48 19 -20 -5 -34 1 -55 20 -17
16 -35 24 -45 21 -13 -4 -19 2 -24 26 -3 17 -3 35 0 40 3 5 1 9 -5 9 -12 0
-41 57 -41 80 0 19 59 78 118 117 38 26 52 29 128 30 48 1 94 -2 103 -6z
m-3314 -407 c53 -26 60 -33 67 -68 5 -23 4 -43 -1 -50 -6 -7 -13 -32 -17 -56
-11 -72 -70 -150 -139 -186 -73 -38 -311 -8 -425 54 -71 38 -71 39 -49 77 35
59 199 195 287 238 51 25 65 27 137 24 62 -4 94 -11 140 -33z m2583 -327 c30
-79 45 -200 37 -292 -12 -138 -85 -328 -157 -411 -38 -43 -155 -134 -173 -134
-18 0 -93 158 -102 216 -12 73 -8 271 6 334 13 60 49 141 68 153 7 4 13 13 13
20 0 31 137 128 201 142 19 4 41 11 49 16 29 16 39 9 58 -44z"/>
<path d="M4477 1743 c-4 -3 -7 -11 -7 -17 0 -6 5 -5 12 2 6 6 9 14 7 17 -3 3
-9 2 -12 -2z"/>
</g>
</svg>
