<?xml version="1.0" standalone="no"?>
<!DOCTYPE svg PUBLIC "-//W3C//DTD SVG 20010904//EN"
 "http://www.w3.org/TR/2001/REC-SVG-20010904/DTD/svg10.dtd">
<svg version="1.0" xmlns="http://www.w3.org/2000/svg"
 width="1536.000000pt" height="649.000000pt" viewBox="0 0 1536.000000 649.000000"
 preserveAspectRatio="xMidYMid meet">
<metadata>
Created by potrace 1.16, written by Peter Selinger 2001-2019
</metadata>
<g transform="translate(0.000000,649.000000) scale(0.100000,-0.100000)"
fill="#000000" stroke="none">
<path d="M12058 6479 c-12 -7 -18 -22 -18 -48 0 -22 -6 -44 -15 -51 -8 -7 -20
-31 -26 -54 -6 -22 -24 -61 -40 -85 -16 -25 -29 -50 -29 -58 0 -15 -119 -95
-178 -120 -20 -8 -55 -28 -78 -44 -22 -17 -77 -43 -122 -59 -74 -26 -87 -28
-149 -20 -142 19 -254 51 -412 119 -52 23 -102 41 -111 41 -8 0 -26 7 -39 16
-13 10 -53 25 -90 35 -111 31 -193 64 -251 103 -30 20 -63 39 -72 42 -9 3 -19
13 -22 22 -3 9 -25 27 -49 40 -40 21 -47 22 -89 11 -35 -10 -56 -10 -85 -2
-68 20 -149 34 -164 28 -17 -8 -79 -102 -79 -120 0 -7 -13 -18 -28 -24 -21 -9
-36 -29 -58 -77 -15 -35 -32 -64 -37 -64 -4 0 -30 -24 -57 -52 -27 -29 -55
-59 -62 -66 -26 -27 -131 -102 -143 -102 -6 0 -20 -9 -30 -20 -10 -11 -25 -20
-34 -20 -9 0 -41 -23 -70 -50 -30 -28 -78 -64 -108 -81 -29 -17 -60 -43 -68
-59 -8 -16 -24 -32 -36 -35 -11 -4 -35 -20 -53 -36 -18 -16 -42 -32 -53 -36
-11 -5 -41 -33 -68 -63 -27 -30 -57 -61 -67 -68 -10 -7 -18 -19 -18 -26 0 -7
-25 -38 -55 -70 -30 -32 -57 -66 -60 -76 -3 -10 -12 -21 -20 -24 -8 -3 -15
-15 -15 -27 0 -11 -9 -32 -20 -46 -11 -14 -20 -32 -20 -40 0 -8 -11 -28 -25
-45 -14 -16 -25 -36 -25 -43 0 -8 -9 -19 -20 -25 -11 -6 -22 -26 -26 -48 -7
-37 -24 -74 -56 -122 -10 -14 -26 -63 -37 -108 -11 -46 -24 -89 -29 -95 -6 -7
-18 -47 -27 -90 -13 -57 -23 -82 -41 -96 -14 -11 -24 -29 -24 -43 0 -14 -9
-33 -21 -44 -14 -12 -18 -25 -14 -42 4 -15 -2 -33 -15 -52 -11 -15 -20 -36
-20 -45 0 -9 -11 -31 -25 -47 -16 -19 -24 -40 -23 -58 1 -15 -4 -35 -11 -44
-7 -9 -11 -27 -9 -41 3 -14 -1 -33 -8 -42 -7 -10 -14 -25 -14 -34 0 -9 -7 -22
-15 -29 -8 -7 -15 -21 -15 -31 0 -10 -13 -34 -30 -52 -16 -19 -30 -40 -30 -46
0 -15 -31 -64 -47 -74 -7 -4 -13 -13 -13 -19 0 -7 -9 -21 -19 -32 -19 -21 -72
-110 -91 -153 -5 -13 -14 -23 -19 -23 -19 0 -82 -63 -102 -102 -11 -21 -24
-38 -29 -38 -6 0 -16 -12 -22 -26 -8 -16 -30 -34 -56 -45 -25 -11 -46 -28 -49
-39 -3 -11 -13 -22 -23 -25 -9 -3 -22 -17 -28 -30 -7 -14 -15 -24 -19 -23 -5
2 -17 -6 -29 -18 -12 -12 -41 -24 -65 -28 -26 -4 -59 -19 -81 -36 -58 -47
-112 -62 -277 -80 -45 -5 -89 -14 -95 -19 -7 -6 -42 -13 -77 -16 -76 -7 -167
-20 -229 -34 -25 -5 -67 -15 -95 -21 -27 -5 -53 -17 -58 -25 -4 -8 -13 -15
-19 -15 -9 0 -33 -17 -87 -62 -9 -7 -12 -28 -9 -68 l4 -57 -140 -6 c-226 -10
-229 -12 -566 -183 -144 -74 -349 -154 -528 -206 l-110 -32 -233 15 c-335 20
-422 18 -487 -9 -76 -31 -153 -83 -225 -150 -46 -43 -84 -67 -142 -91 -545
-225 -565 -235 -712 -374 -46 -42 -95 -82 -110 -88 -16 -6 -71 -19 -123 -29
-297 -57 -412 -105 -546 -229 -134 -124 -280 -186 -647 -277 -180 -45 -280
-75 -319 -96 -74 -39 -202 -172 -246 -255 -55 -105 -95 -130 -247 -153 -38 -6
-171 -30 -295 -55 -124 -24 -261 -49 -305 -55 -140 -20 -249 -62 -375 -146
-81 -53 -183 -152 -200 -195 -13 -29 -12 -33 9 -50 49 -40 156 -11 207 57 92
121 149 142 524 190 395 50 525 79 655 148 75 39 197 158 258 251 75 114 178
165 456 225 239 52 288 65 379 104 88 36 155 79 222 142 112 103 214 147 402
174 168 25 251 45 293 70 17 11 64 53 105 95 82 83 151 133 335 243 120 71
184 99 430 189 119 44 132 52 160 90 36 50 59 59 195 73 120 13 222 7 332 -21
93 -23 253 -25 362 -5 133 26 217 56 397 142 97 46 219 100 270 119 175 67
492 155 559 155 16 0 20 -5 16 -17 -3 -10 -2 -23 2 -29 7 -11 107 -26 172 -25
19 0 68 -4 108 -9 47 -6 80 -7 91 0 12 6 21 6 28 -1 6 -6 25 -6 53 0 24 5 49
7 54 3 12 -7 150 -16 201 -13 11 1 112 0 225 0 256 -2 305 4 348 42 23 21 43
29 70 29 20 0 54 4 74 9 36 9 37 8 49 -26 6 -20 9 -60 7 -91 -4 -49 -9 -59
-45 -91 -22 -20 -67 -53 -101 -74 -95 -59 -167 -131 -238 -238 -38 -58 -80
-109 -102 -124 -81 -56 -276 -114 -507 -153 -127 -22 -125 -30 14 -56 114 -22
255 -20 370 4 160 34 193 24 240 -68 37 -73 103 -160 138 -184 74 -49 193 0
320 130 l82 85 46 -5 c54 -7 109 -46 132 -93 14 -29 14 -38 3 -66 -19 -44
-268 -261 -345 -299 -68 -34 -176 -60 -252 -60 -67 0 -103 -14 -103 -40 0 -49
156 -154 269 -180 74 -17 334 -8 701 25 378 34 481 58 884 205 75 27 100 31
154 28 61 -4 67 -7 101 -45 20 -22 47 -59 61 -82 32 -54 120 -144 185 -188 61
-41 160 -73 226 -73 77 0 332 39 407 62 168 51 315 162 468 351 106 130 206
209 332 260 78 32 86 34 275 52 87 9 218 25 290 36 170 26 473 36 586 20 46
-7 128 -26 182 -42 164 -48 222 -38 307 56 49 54 131 208 152 285 14 51 7 143
-13 192 -48 114 -120 143 -527 213 -244 42 -287 53 -365 100 -122 73 -151 119
-200 306 -19 73 -33 134 -31 136 2 2 23 1 47 -3 31 -5 56 -19 89 -49 25 -23
57 -45 73 -49 15 -3 27 -10 27 -15 0 -5 19 -23 42 -40 53 -39 95 -41 138 -5
41 35 110 139 110 167 0 12 13 41 29 64 22 33 30 59 36 117 7 81 17 94 60 74
21 -10 30 -7 69 25 24 20 47 49 51 64 3 16 15 35 24 44 24 23 26 127 5 235
l-16 80 40 80 c21 43 47 104 57 134 10 30 30 73 46 95 15 22 33 59 39 82 8 31
20 47 45 63 19 12 39 28 43 36 13 23 188 -1 220 -29 12 -11 31 -21 42 -22 11
-1 29 -14 40 -28 12 -15 28 -27 35 -27 23 0 85 60 92 89 3 14 14 42 25 61 10
19 18 55 18 80 0 78 8 92 49 90 83 -4 89 -2 122 47 21 30 32 57 31 77 -6 110
-11 145 -26 173 -9 18 -16 39 -16 48 0 27 80 154 113 178 16 12 47 40 68 62
l39 40 31 -17 c23 -13 43 -16 87 -12 39 4 71 1 101 -10 39 -14 46 -15 61 -1
22 20 43 106 35 147 -5 25 0 51 18 94 14 32 28 73 31 89 4 17 34 59 70 98 60
64 66 68 88 56 12 -7 50 -14 83 -15 33 -2 71 -5 85 -6 31 -4 51 42 32 72 -21
35 -15 94 13 120 20 19 25 33 25 71 0 57 25 82 71 72 67 -13 112 29 102 95 -6
39 8 58 78 103 37 23 49 37 49 55 0 14 9 42 20 63 15 31 27 40 54 45 20 4 40
15 46 26 6 11 26 22 48 26 52 9 72 22 72 44 0 38 -46 55 -139 53 -48 -2 -99 2
-119 9 -28 11 -38 10 -64 -5 -39 -22 -45 -22 -89 9 l-37 25 -58 -31 c-75 -40
-101 -35 -171 31 -71 67 -98 63 -154 -21 -13 -20 -26 -24 -82 -28 -37 -2 -78
-1 -92 2 -13 3 -63 35 -111 71 -108 82 -136 85 -194 23 -22 -24 -40 -47 -40
-53 0 -5 -17 -23 -38 -40 -35 -28 -42 -30 -124 -30 -84 0 -88 1 -192 54 -66
33 -115 65 -129 83 -12 17 -34 43 -49 58 -16 16 -28 39 -28 54 0 34 -37 57
-97 59 -47 2 -48 1 -51 -30 -2 -17 -10 -37 -18 -43 -8 -7 -14 -19 -14 -26 0
-19 -65 -103 -108 -139 -40 -33 -33 -32 -256 -35 -112 -2 -132 1 -155 17 -42
30 -110 63 -131 63 -11 0 -20 5 -20 10 0 6 -7 10 -15 10 -17 0 -90 43 -100 60
-3 5 -14 10 -23 10 -33 0 -155 134 -167 183 -8 32 -63 70 -140 99 -56 20 -73
22 -97 7z"/>
</g>
</svg>
