<?xml version="1.0" standalone="no"?>
<!DOCTYPE svg PUBLIC "-//W3C//DTD SVG 20010904//EN"
 "http://www.w3.org/TR/2001/REC-SVG-20010904/DTD/svg10.dtd">
<svg version="1.0" xmlns="http://www.w3.org/2000/svg"
 width="1984.000000pt" height="656.000000pt" viewBox="0 0 1984.000000 656.000000"
 preserveAspectRatio="xMidYMid meet">
<metadata>
Created by potrace 1.16, written by Peter Selinger 2001-2019
</metadata>
<g transform="translate(0.000000,656.000000) scale(0.100000,-0.100000)"
fill="#000000" stroke="none">
<path d="M13105 6551 c-105 -6 -136 -18 -153 -57 -7 -14 -26 -25 -55 -33 -35
-8 -56 -23 -94 -66 -40 -44 -58 -57 -94 -64 -124 -26 -201 -52 -243 -81 -26
-17 -68 -35 -94 -40 -26 -5 -67 -14 -92 -20 -25 -7 -74 -15 -110 -19 -36 -4
-103 -22 -150 -40 -92 -34 -221 -77 -285 -93 -22 -6 -65 -21 -95 -34 -31 -13
-114 -42 -185 -64 -72 -23 -164 -52 -205 -65 -41 -13 -100 -31 -130 -39 -96
-27 -192 -63 -219 -83 -24 -18 -40 -25 -134 -53 -43 -13 -859 -13 -901 -1
-166 51 -237 61 -422 61 -150 1 -190 4 -249 21 -38 11 -124 25 -190 30 -66 6
-165 14 -220 18 -55 5 -120 14 -145 21 -25 6 -97 18 -160 25 -63 7 -131 18
-150 23 -19 4 -84 10 -144 11 -65 1 -133 9 -165 19 -33 9 -120 19 -211 24
-262 13 -403 25 -440 37 -19 6 -69 11 -110 11 -41 0 -91 5 -110 12 -19 6 -98
15 -175 20 -109 7 -767 23 -1165 28 -61 1 -232 -13 -385 -30 -111 -12 -102
-12 -268 -4 -91 4 -134 2 -185 -10 -37 -9 -134 -21 -217 -26 -153 -9 -237 -20
-312 -39 -82 -21 -128 -31 -185 -41 -32 -6 -69 -15 -84 -20 -14 -6 -40 -10
-57 -10 -18 -1 -43 -7 -57 -15 -14 -8 -38 -14 -53 -15 -15 0 -40 -6 -55 -14
-39 -20 -146 -48 -217 -57 -33 -4 -91 -15 -130 -23 -38 -9 -88 -21 -110 -26
-22 -5 -60 -16 -84 -24 -24 -9 -58 -16 -75 -16 -31 0 -225 -43 -281 -62 -16
-6 -55 -14 -85 -18 -57 -8 -134 -28 -209 -54 -24 -9 -74 -16 -112 -16 -82 0
-146 -13 -214 -45 -88 -41 -280 -96 -400 -115 -33 -5 -80 -16 -104 -25 -24 -8
-59 -15 -79 -15 -20 0 -44 -8 -55 -17 -13 -12 -44 -20 -96 -25 -106 -9 -165
-23 -241 -60 -66 -31 -109 -42 -235 -58 -78 -9 -150 -28 -210 -55 -22 -10 -74
-21 -115 -26 -185 -20 -227 -37 -330 -134 -27 -26 -59 -46 -80 -50 -47 -10
-86 -35 -140 -89 l-44 -46 -4 -94 -4 -94 -47 -20 c-53 -22 -161 -108 -161
-128 0 -7 9 -18 21 -25 22 -11 22 -24 3 -131 -5 -29 -1 -45 16 -73 17 -28 21
-44 15 -73 -16 -93 -3 -168 35 -187 39 -20 70 -62 70 -94 0 -21 32 -58 159
-181 200 -194 296 -280 314 -280 26 0 140 -81 222 -158 45 -42 113 -102 150
-132 37 -30 91 -75 119 -100 54 -48 70 -57 151 -86 28 -10 85 -42 128 -71 43
-29 92 -59 110 -67 18 -7 51 -29 74 -49 24 -19 56 -38 71 -42 16 -3 48 -26 72
-50 31 -32 52 -45 71 -45 44 0 77 -17 137 -69 32 -27 102 -79 157 -116 55 -37
118 -84 140 -105 22 -21 51 -41 65 -45 14 -4 43 -24 66 -45 22 -21 58 -43 80
-50 21 -7 95 -41 164 -76 115 -59 285 -124 370 -144 19 -4 68 -18 107 -29 40
-12 85 -21 101 -21 15 0 37 -7 48 -15 10 -8 37 -15 59 -15 22 0 72 -9 110 -20
39 -11 93 -20 120 -20 28 -1 68 -7 90 -15 25 -9 59 -12 90 -9 56 6 215 -37
355 -96 76 -33 158 -63 219 -81 19 -6 50 -21 70 -34 41 -26 114 -50 286 -94
22 -6 65 -26 95 -46 34 -22 67 -35 87 -35 17 0 42 -4 55 -9 13 -6 40 -13 62
-16 30 -5 56 -23 117 -81 l78 -74 114 0 115 0 47 -39 c51 -42 79 -51 160 -51
65 0 231 -54 265 -86 15 -13 47 -28 74 -33 26 -5 57 -18 69 -29 13 -12 64 -32
122 -47 55 -14 114 -33 130 -43 21 -12 62 -19 141 -22 92 -5 116 -10 147 -29
28 -17 46 -22 71 -17 23 4 48 0 81 -15 41 -18 58 -20 109 -14 77 9 92 9 196
-5 47 -6 119 -14 160 -18 49 -4 86 -14 105 -27 27 -17 177 -64 215 -66 8 -1
47 6 85 16 39 10 86 17 105 16 19 -1 46 -3 60 -3 14 -1 48 5 75 12 53 14 256
17 336 5 35 -5 53 -3 71 9 21 14 27 14 44 1 26 -20 151 -19 219 1 49 14 56 14
79 -1 20 -13 40 -15 93 -11 205 17 527 37 588 37 122 0 239 -15 266 -34 104
-75 147 -89 334 -106 61 -5 127 -17 148 -26 20 -8 48 -13 61 -9 13 3 51 -4 87
-17 58 -20 84 -23 289 -24 124 -1 289 1 368 4 157 7 166 11 158 68 -5 32 -1
38 83 132 37 41 43 67 26 108 -24 57 -6 67 60 33 22 -11 48 -20 60 -20 11 0
33 -7 49 -15 15 -8 39 -15 53 -15 16 0 36 -13 56 -35 25 -29 38 -35 70 -35 33
0 48 -8 94 -50 30 -28 58 -50 62 -50 5 0 20 -17 34 -38 14 -22 40 -45 59 -52
18 -8 51 -26 74 -42 34 -25 54 -30 137 -37 105 -9 137 -23 207 -93 19 -19 54
-48 78 -65 53 -38 105 -82 180 -150 69 -62 103 -77 160 -68 37 6 42 4 42 -14
0 -11 4 -22 9 -25 17 -11 1154 -7 1164 3 6 6 34 8 68 4 l57 -6 21 41 c13 26
37 51 63 66 24 14 49 34 56 46 9 15 23 20 55 20 36 0 48 6 80 39 22 22 52 45
68 51 44 19 73 88 73 177 1 60 4 75 21 87 17 12 18 18 7 33 -26 38 -34 69 -27
108 21 127 21 156 -3 238 -12 45 -39 109 -59 142 -19 33 -38 77 -41 98 -4 34
-1 40 41 77 31 28 50 55 62 89 8 26 29 61 45 76 35 34 37 46 10 70 -11 10 -20
27 -20 38 0 10 -16 34 -35 52 -33 29 -36 38 -42 101 -7 83 -9 81 137 119 52
13 142 40 200 60 81 28 132 38 220 46 63 5 133 13 155 19 51 12 376 13 560 1
77 -5 196 -13 265 -16 69 -4 136 -13 150 -20 40 -21 164 -34 314 -34 140 0
267 -12 386 -36 36 -8 97 -16 135 -19 39 -4 122 -10 185 -16 92 -7 130 -15
189 -40 124 -51 191 -64 441 -85 41 -4 115 -13 163 -20 102 -16 224 -25 427
-29 104 -3 172 -10 240 -26 120 -28 200 -24 290 15 36 15 92 34 125 42 33 8
85 24 115 35 30 11 77 23 103 27 34 5 56 16 76 37 16 16 54 45 85 64 31 19 56
40 56 46 0 6 9 23 21 38 15 19 29 26 56 26 31 0 45 9 96 61 69 71 117 157 117
212 0 24 15 67 41 119 34 67 40 89 36 121 -3 22 1 57 9 80 16 45 43 176 51
247 3 25 9 50 13 55 5 6 14 42 20 80 6 39 21 103 33 143 17 60 19 78 9 105
-17 48 -18 460 -1 515 10 35 10 53 0 92 -9 33 -10 84 -5 167 5 96 3 130 -10
175 -9 31 -16 67 -16 80 0 13 -6 32 -14 43 -7 11 -17 36 -21 55 -4 19 -20 58
-36 85 -19 34 -41 109 -69 230 -45 198 -54 218 -191 433 -129 202 -227 330
-359 466 -168 174 -167 173 -197 181 -15 3 -40 17 -57 30 -81 64 -143 114
-193 158 -53 46 -57 49 -102 44 -25 -3 -62 -9 -81 -13 -35 -7 -154 -78 -200
-120 -14 -13 -61 -33 -105 -45 -44 -11 -108 -34 -142 -50 -34 -16 -69 -29 -77
-29 -9 0 -30 -13 -48 -28 -60 -51 -127 -89 -168 -96 -41 -6 -62 -16 -255 -121
-55 -30 -116 -62 -135 -70 -39 -18 -60 -28 -110 -56 -19 -10 -47 -19 -62 -19
-25 0 -150 -62 -210 -104 -12 -9 -32 -16 -43 -16 -11 0 -49 -18 -85 -40 -85
-51 -135 -75 -190 -91 -25 -7 -85 -32 -135 -55 -118 -57 -222 -94 -261 -94
-37 0 -177 -44 -207 -65 -12 -8 -34 -15 -49 -15 -16 0 -54 -15 -86 -32 l-57
-33 -340 -13 c-399 -16 -471 -16 -665 -5 -113 7 -159 14 -210 32 -37 14 -104
28 -155 32 -49 5 -121 13 -160 19 -38 6 -126 14 -195 19 -209 14 -238 32 -189
119 40 67 81 102 124 102 26 0 39 7 54 29 13 17 39 35 66 45 25 8 57 24 72 35
14 12 35 21 47 21 12 0 39 9 61 20 22 11 53 20 70 20 30 0 62 17 97 52 10 10
32 18 48 18 42 0 93 23 116 51 32 40 125 91 174 96 81 8 88 12 135 78 27 37
54 65 64 65 20 0 43 24 86 89 27 40 28 44 12 55 -15 12 -14 15 13 35 35 25 38
46 10 63 -11 7 -20 18 -20 24 0 34 -154 184 -236 230 -35 20 -91 55 -123 79
-74 55 -106 71 -167 86 -44 11 -116 58 -179 118 -11 10 -30 23 -41 29 -26 14
-279 55 -469 77 -77 9 -178 25 -225 35 -92 21 -385 31 -575 21z"/>
</g>
</svg>
