<?xml version="1.0" standalone="no"?>
<!DOCTYPE svg PUBLIC "-//W3C//DTD SVG 20010904//EN"
 "http://www.w3.org/TR/2001/REC-SVG-20010904/DTD/svg10.dtd">
<svg version="1.0" xmlns="http://www.w3.org/2000/svg"
 width="884.000000pt" height="383.000000pt" viewBox="0 0 884.000000 383.000000"
 preserveAspectRatio="xMidYMid meet">
<metadata>
Created by potrace 1.16, written by Peter Selinger 2001-2019
</metadata>
<g transform="translate(0.000000,383.000000) scale(0.100000,-0.100000)"
fill="#000000" stroke="none">
<path d="M4085 3814 c-286 -57 -336 -68 -341 -76 -3 -4 -16 -8 -28 -8 -13 0
-39 -6 -57 -14 -19 -8 -83 -19 -144 -26 -97 -11 -130 -19 -210 -50 -11 -4 -45
-17 -75 -28 -30 -11 -103 -39 -161 -62 -84 -33 -111 -40 -125 -32 -14 8 -26 6
-49 -7 -16 -10 -66 -24 -110 -31 -44 -6 -93 -20 -110 -30 -16 -9 -43 -21 -60
-24 -16 -4 -38 -14 -47 -23 -9 -8 -22 -12 -27 -8 -6 3 -31 -10 -55 -29 -23
-20 -50 -36 -59 -36 -9 0 -19 -4 -22 -10 -3 -5 -17 -10 -30 -10 -13 0 -27 -4
-30 -10 -3 -5 -17 -10 -30 -10 -13 0 -27 -4 -30 -10 -3 -5 -17 -10 -30 -10
-13 0 -27 -4 -30 -10 -3 -5 -21 -10 -40 -10 -19 0 -37 -4 -40 -10 -3 -5 -17
-10 -30 -10 -13 0 -27 -4 -30 -10 -3 -5 -17 -10 -30 -10 -13 0 -27 -4 -30 -10
-3 -5 -17 -10 -30 -10 -13 0 -27 -4 -30 -10 -3 -5 -17 -10 -30 -10 -13 0 -27
-4 -30 -10 -3 -5 -15 -10 -26 -10 -10 0 -27 -4 -37 -9 -9 -5 -37 -15 -62 -21
-85 -24 -175 -52 -192 -61 -10 -5 -27 -9 -38 -9 -12 0 -62 -17 -113 -38 -51
-21 -112 -45 -137 -52 -25 -8 -60 -22 -78 -32 -18 -10 -37 -18 -42 -18 -6 0
-29 -9 -53 -19 -23 -11 -76 -35 -117 -54 -41 -18 -89 -45 -105 -60 -31 -25
-85 -122 -85 -151 0 -8 -4 -18 -10 -21 -5 -3 -10 -15 -10 -25 0 -19 -47 -112
-82 -162 -10 -14 -18 -31 -18 -36 0 -6 -33 -44 -72 -85 -59 -60 -99 -89 -209
-150 -75 -43 -139 -77 -142 -77 -5 0 -47 -34 -112 -92 -23 -21 -53 -59 -65
-85 -13 -27 -27 -56 -32 -65 -4 -10 -8 -42 -8 -72 0 -48 -4 -58 -31 -85 -37
-38 -35 -56 17 -137 32 -50 70 -127 148 -294 91 -198 252 -405 448 -578 107
-94 118 -99 171 -84 39 10 45 9 87 -18 25 -16 83 -48 130 -70 125 -60 116 -57
320 -136 52 -20 118 -47 147 -60 28 -13 55 -24 58 -24 4 0 21 -6 38 -14 97
-44 177 -76 189 -76 8 0 18 -4 24 -8 12 -12 127 -52 147 -52 9 0 55 -13 104
-29 137 -44 174 -53 228 -49 37 2 51 7 53 20 6 29 -79 110 -159 153 -30 15
-22 25 19 25 28 0 45 -7 62 -25 30 -32 40 -32 40 0 0 14 2 25 5 25 8 0 168
-100 190 -119 11 -10 53 -32 93 -50 61 -28 78 -31 97 -23 19 9 32 7 65 -9 23
-11 72 -23 108 -26 76 -5 308 25 442 57 47 12 96 24 110 27 14 2 48 13 75 23
72 26 239 77 315 96 36 8 81 19 100 24 19 5 51 13 70 18 19 6 79 22 133 37 54
14 106 30 115 34 28 14 125 52 162 64 19 6 37 14 40 18 5 7 133 69 143 69 5 0
408 169 452 190 11 5 43 18 71 29 28 11 120 51 205 89 266 120 469 201 704
282 267 91 508 193 546 231 36 36 -2 69 -145 125 l-61 23 59 1 c78 0 246 -25
354 -54 89 -24 148 -45 447 -161 211 -81 288 -105 490 -150 249 -55 460 -78
730 -79 199 -1 237 1 283 17 31 11 59 29 69 43 14 22 14 29 -2 80 -19 61 -78
142 -128 177 -215 146 -285 180 -561 277 -121 42 -222 82 -224 88 -4 14 76 53
223 106 123 45 185 72 340 148 160 78 222 118 309 199 90 84 121 142 112 209
-7 57 -37 84 -107 99 -82 18 -313 24 -444 13 -168 -15 -472 -73 -725 -138
-613 -158 -563 -149 -874 -164 -356 -18 -701 15 -1181 112 -137 28 -268 54
-290 58 -175 34 -416 89 -481 110 -17 6 -40 10 -52 10 -11 0 -23 4 -26 9 -3 4
40 10 97 13 156 7 179 31 109 119 -7 9 -33 56 -59 104 -25 49 -62 114 -82 146
-20 31 -49 78 -66 105 -34 57 -135 278 -135 297 0 7 -5 18 -11 24 -21 21 -49
168 -60 313 -15 213 -19 233 -49 241 -43 12 -242 8 -315 -7z"/>
</g>
</svg>
