<?xml version="1.0" standalone="no"?>
<!DOCTYPE svg PUBLIC "-//W3C//DTD SVG 20010904//EN"
 "http://www.w3.org/TR/2001/REC-SVG-20010904/DTD/svg10.dtd">
<svg version="1.0" xmlns="http://www.w3.org/2000/svg"
 width="1536.000000pt" height="1184.000000pt" viewBox="0 0 1536.000000 1184.000000"
 preserveAspectRatio="xMidYMid meet">
<metadata>
Created by potrace 1.16, written by Peter Selinger 2001-2019
</metadata>
<g transform="translate(0.000000,1184.000000) scale(0.100000,-0.100000)"
fill="#000000" stroke="none">
<path d="M4616 11829 c-156 -23 -299 -80 -471 -188 -328 -207 -436 -234 -950
-235 -267 -1 -334 2 -485 22 -429 55 -832 76 -1053 53 -257 -27 -437 -113
-529 -252 -52 -79 -58 -108 -69 -288 -7 -127 -14 -174 -29 -209 -36 -80 -113
-148 -655 -572 -202 -157 -317 -265 -347 -325 -29 -55 -35 -158 -14 -222 32
-95 114 -152 325 -225 226 -78 446 -209 936 -560 372 -266 545 -406 545 -441
0 -34 -39 -65 -190 -152 -180 -104 -273 -167 -344 -234 -191 -182 -177 -303
54 -466 148 -104 173 -153 146 -287 -23 -117 -21 -148 12 -197 52 -77 129
-112 337 -151 272 -51 596 -155 811 -260 114 -55 149 -77 182 -116 39 -43 48
-65 42 -104 -3 -26 -62 -79 -105 -95 -38 -15 -47 -15 -140 6 -246 54 -685 31
-1260 -67 -331 -55 -427 -98 -521 -230 -90 -126 -116 -221 -90 -324 25 -96 80
-190 192 -324 156 -188 193 -250 174 -286 -5 -10 -33 -33 -62 -50 -131 -81
-268 -233 -344 -384 -39 -78 -44 -96 -44 -156 0 -80 13 -122 53 -173 36 -46
230 -192 482 -362 105 -70 232 -161 282 -201 51 -41 263 -242 471 -447 469
-462 601 -572 797 -667 110 -53 178 -74 417 -130 113 -27 224 -58 245 -68 38
-20 133 -112 133 -130 0 -5 -23 -19 -52 -33 -121 -56 -412 -211 -470 -250
-141 -95 -308 -294 -357 -425 -23 -60 -27 -136 -10 -181 43 -116 202 -224 407
-276 76 -19 112 -22 297 -22 245 1 319 11 730 105 531 120 607 129 1120 137
648 10 757 -12 1355 -272 353 -153 462 -192 747 -264 250 -63 380 -108 503
-172 177 -93 418 -270 451 -331 6 -11 15 -47 19 -80 11 -73 31 -98 115 -138
100 -49 521 -123 707 -124 93 -1 110 2 135 20 43 32 41 63 -13 162 -109 200
-136 274 -153 423 -13 110 -4 225 30 369 17 72 22 126 23 225 0 115 -3 138
-26 202 -33 91 -61 139 -136 231 -33 41 -72 96 -86 122 l-27 49 54 16 c71 20
169 82 330 207 159 123 354 256 437 298 165 83 298 125 700 220 542 129 634
180 1031 566 119 117 242 231 271 253 30 22 110 67 179 100 219 103 357 142
717 201 136 23 297 52 357 67 245 58 511 166 950 388 407 206 523 282 696 456
114 116 181 210 214 304 47 133 32 197 -72 306 -65 68 -73 80 -73 115 0 51 52
158 119 249 29 39 142 158 250 265 108 107 218 223 243 258 116 156 126 319
31 492 -43 79 -221 259 -306 309 -115 68 -172 85 -282 86 -90 0 -105 -3 -151
-27 -28 -15 -98 -66 -155 -113 -188 -156 -277 -195 -459 -202 l-115 -5 -83 42
c-114 58 -239 179 -392 380 -142 189 -197 245 -270 279 -51 24 -65 26 -195 26
-119 0 -151 -4 -215 -23 -204 -65 -354 -183 -575 -455 -105 -129 -124 -141
-238 -141 -85 -1 -90 0 -112 27 -26 29 -45 85 -45 130 0 15 -7 43 -15 63 -23
57 -62 67 -235 62 -80 -3 -153 -8 -164 -13 -10 -4 13 33 50 82 126 166 210
363 235 548 19 149 -8 498 -47 592 -39 92 -224 381 -331 515 -109 137 -324
251 -618 328 -66 17 -132 36 -147 42 -27 10 -27 11 -13 44 26 62 176 317 270
459 99 149 200 267 270 315 50 34 79 94 101 207 18 97 18 226 0 261 -24 47
-166 174 -271 244 -499 331 -1076 499 -1416 413 -87 -23 -169 -60 -550 -248
-196 -98 -360 -177 -363 -177 -4 0 -52 27 -107 60 -204 123 -344 185 -444 196
-97 12 -229 -31 -288 -94 -25 -26 -29 -40 -38 -133 -21 -231 -27 -257 -80
-376 -49 -108 -53 -114 -78 -109 -14 3 -46 8 -71 11 -82 12 -158 37 -180 60
-23 24 -20 -4 -49 536 -15 271 -42 341 -184 476 -205 194 -540 260 -962 190
-88 -14 -201 -30 -252 -35 l-92 -9 -128 127 c-75 74 -160 148 -206 177 -170
111 -452 165 -681 132z m6580 -4926 c-19 -38 -259 -270 -436 -423 -259 -225
-324 -285 -385 -360 -92 -114 -159 -180 -183 -180 -14 0 -27 11 -38 32 -22 43
-30 158 -14 198 17 41 261 276 346 332 38 25 157 95 264 156 108 60 254 146
325 191 72 44 131 81 133 81 1 0 -4 -12 -12 -27z m-1537 -1695 c25 -33 31 -52
31 -90 0 -57 -23 -106 -111 -240 -34 -51 -78 -127 -99 -168 -41 -81 -103 -157
-169 -205 l-41 -30 0 -122 c0 -67 -4 -133 -10 -147 -20 -54 -79 -15 -101 68
-7 25 -9 84 -6 151 9 188 74 387 169 514 43 58 287 311 299 311 4 0 21 -19 38
-42z m-3327 -1294 c264 -36 667 -131 782 -183 104 -47 102 -75 -16 -210 -122
-138 -153 -243 -108 -364 55 -145 117 -171 450 -183 l175 -7 170 -85 c257
-128 316 -175 367 -289 20 -46 21 -59 19 -448 -1 -337 2 -430 18 -590 32 -300
53 -596 48 -645 -7 -56 -45 -160 -59 -160 -6 0 -45 33 -87 73 -90 84 -246 205
-427 332 -197 138 -214 158 -326 380 -53 105 -112 231 -131 280 -49 123 -91
354 -137 754 -24 207 -39 271 -88 370 -26 54 -58 97 -117 157 -102 104 -161
136 -266 142 l-76 4 -57 -51 c-31 -28 -60 -51 -65 -51 -24 0 -130 245 -211
491 -70 209 -84 267 -69 285 15 18 71 18 211 -2z m2358 -2499 c156 -52 164
-59 211 -180 28 -71 30 -83 19 -117 -6 -21 -24 -53 -39 -71 -56 -64 -61 -85
-76 -306 -8 -115 -20 -220 -26 -235 -13 -27 -81 -66 -117 -66 -31 0 -74 18
-100 43 -23 21 -23 26 -17 119 8 116 -4 180 -46 238 -43 59 -63 146 -64 275 0
106 1 113 36 185 33 69 91 150 108 150 4 0 54 -16 111 -35z"/>
</g>
</svg>
