<?xml version="1.0" standalone="no"?>
<!DOCTYPE svg PUBLIC "-//W3C//DTD SVG 20010904//EN"
 "http://www.w3.org/TR/2001/REC-SVG-20010904/DTD/svg10.dtd">
<svg version="1.0" xmlns="http://www.w3.org/2000/svg"
 width="1548.000000pt" height="1067.000000pt" viewBox="0 0 1548.000000 1067.000000"
 preserveAspectRatio="xMidYMid meet">
<metadata>
Created by potrace 1.16, written by Peter Selinger 2001-2019
</metadata>
<g transform="translate(0.000000,1067.000000) scale(0.100000,-0.100000)"
fill="#000000" stroke="none">
<path d="M6045 10649 c-502 -59 -796 -107 -1155 -188 -281 -63 -381 -91 -445
-124 -57 -29 -386 -280 -606 -463 -132 -109 -1101 -834 -1303 -974 -257 -179
-407 -306 -877 -741 -372 -344 -408 -399 -842 -1265 -236 -470 -340 -703 -408
-909 -22 -67 -23 -84 -27 -470 -6 -608 18 -1137 60 -1340 36 -173 20 -332 -68
-690 -76 -306 -141 -508 -234 -725 -132 -308 -135 -320 -134 -530 2 -347 52
-582 191 -880 l44 -95 87 -37 c148 -62 244 -85 483 -112 123 -15 300 -35 392
-46 93 -11 237 -25 320 -31 144 -11 157 -11 236 9 90 23 245 94 371 168 71 43
79 50 83 83 7 54 -11 147 -38 200 -13 25 -47 73 -75 106 -61 71 -99 142 -133
250 -50 160 -74 104 220 527 142 205 292 433 333 505 41 73 77 133 80 133 13
0 140 -259 185 -375 25 -65 73 -173 106 -238 123 -244 188 -337 490 -699 315
-378 421 -510 484 -608 38 -58 44 -75 54 -156 14 -118 34 -181 74 -240 62 -94
137 -133 337 -178 62 -14 131 -34 154 -45 22 -11 102 -80 177 -154 82 -81 153
-142 180 -154 51 -25 175 -45 459 -73 255 -25 294 -25 560 4 l215 24 117 -59
117 -59 88 34 c119 46 182 63 283 76 47 6 124 24 172 40 98 33 480 221 578
285 65 42 250 225 348 343 78 95 111 167 134 296 10 61 30 155 44 208 13 54
36 151 51 215 l27 118 -3 475 c-2 456 -1 484 24 685 44 363 75 574 107 735 20
98 26 110 92 210 82 122 200 245 270 279 33 16 112 34 247 57 108 18 223 42
253 53 57 20 135 71 171 112 44 50 183 142 299 199 l124 60 105 0 106 0 21
-30 c28 -39 57 -123 65 -186 8 -62 -12 -156 -70 -336 -25 -75 -42 -144 -39
-153 9 -23 35 -34 68 -28 16 3 27 2 25 -3 -2 -5 -57 -114 -121 -241 -64 -127
-130 -273 -146 -324 -59 -184 -84 -369 -64 -465 40 -187 468 -1252 630 -1568
60 -116 75 -137 161 -223 53 -53 171 -161 264 -240 92 -80 167 -149 167 -153
0 -5 -10 -10 -21 -12 -12 -2 -28 -13 -36 -25 -13 -20 -12 -23 9 -37 68 -44
380 -60 899 -46 l186 5 54 -37 c30 -21 88 -64 129 -97 41 -34 78 -61 81 -61 4
0 19 29 34 65 32 75 27 74 196 52 l96 -13 16 28 c23 40 79 62 142 55 72 -7
233 -63 342 -118 l93 -46 24 24 c35 35 37 68 9 152 -26 79 -35 201 -19 268 15
60 -64 158 -199 248 -63 41 -168 80 -264 96 -126 22 -397 134 -505 209 -86 59
-96 76 -123 217 l-25 128 169 460 170 460 42 320 c41 317 98 811 126 1100 35
354 94 515 249 682 43 47 56 68 56 92 0 19 6 34 15 37 9 4 62 -1 118 -10 172
-27 318 -37 662 -45 l330 -8 155 -51 c254 -83 369 -97 545 -66 106 18 161 44
277 129 72 53 89 70 97 102 18 63 13 102 -25 185 -45 100 -47 98 150 134 120
22 141 42 165 149 27 121 40 155 81 210 52 70 59 86 66 148 6 51 10 58 50 87
57 41 64 54 70 147 5 76 4 80 -34 158 -22 44 -67 114 -101 154 -33 41 -77 107
-97 145 -21 39 -109 181 -197 316 -89 135 -169 266 -178 291 -10 26 -23 83
-28 128 -32 251 -207 878 -275 981 -13 19 -118 149 -234 289 -197 237 -210
255 -200 280 17 44 117 448 123 498 11 82 -62 255 -164 388 -127 165 -229 242
-375 281 -200 53 -324 21 -474 -121 -80 -75 -102 -108 -102 -152 0 -16 14 -84
30 -152 17 -68 28 -132 25 -142 -6 -17 -12 -15 -63 20 -145 98 -250 157 -552
311 -434 222 -717 398 -913 569 -169 147 -292 247 -328 266 -40 21 -219 55
-291 55 -94 0 -597 -73 -784 -114 -227 -50 -326 -60 -599 -60 -268 -1 -397 12
-702 70 -101 19 -314 54 -475 79 -327 51 -527 85 -698 120 -201 42 -759 108
-1268 150 -225 19 -275 18 -477 -6z m-651 -6816 c35 -172 170 -954 196 -1138
59 -416 114 -556 321 -805 105 -126 101 -115 109 -345 7 -200 7 -200 43 -292
41 -104 48 -149 20 -138 -10 3 -65 18 -123 31 -239 56 -242 58 -280 256 -34
173 -92 418 -166 708 -79 309 -118 435 -179 584 -91 224 -112 317 -139 612
-17 177 -38 526 -32 531 3 3 147 18 203 22 16 1 23 -6 27 -26z"/>
</g>
</svg>
