<?xml version="1.0" standalone="no"?>
<!DOCTYPE svg PUBLIC "-//W3C//DTD SVG 20010904//EN"
 "http://www.w3.org/TR/2001/REC-SVG-20010904/DTD/svg10.dtd">
<svg version="1.0" xmlns="http://www.w3.org/2000/svg"
 width="1536.000000pt" height="517.000000pt" viewBox="0 0 1536.000000 517.000000"
 preserveAspectRatio="xMidYMid meet">
<metadata>
Created by potrace 1.16, written by Peter Selinger 2001-2019
</metadata>
<g transform="translate(0.000000,517.000000) scale(0.100000,-0.100000)"
fill="#000000" stroke="none">
<path d="M13470 5163 c-19 -1 -82 -9 -140 -17 -58 -8 -148 -17 -200 -21 -377
-24 -1360 -214 -1872 -361 -486 -140 -970 -250 -1353 -309 -93 -14 -240 -42
-327 -61 -462 -101 -1000 -169 -1543 -195 -281 -13 -816 -7 -1040 13 -184 16
-1164 15 -1470 0 -647 -34 -1083 -76 -1650 -157 -363 -52 -469 -63 -1070 -110
-247 -19 -558 -46 -690 -60 -132 -13 -319 -26 -415 -29 -429 -11 -798 -138
-1091 -374 -104 -84 -298 -297 -375 -412 -272 -409 -308 -900 -95 -1295 197
-367 431 -579 814 -739 202 -85 380 -134 807 -221 308 -63 578 -124 1135 -256
892 -212 1250 -288 1690 -359 105 -17 273 -47 375 -65 491 -89 758 -117 1165
-121 176 -1 480 -6 675 -10 620 -12 1215 29 1805 126 99 16 264 41 367 55 843
114 1702 378 2618 805 85 40 224 103 307 141 424 191 761 378 1433 797 414
258 456 286 630 418 364 276 748 671 1081 1111 306 404 386 724 260 1048 -113
294 -377 482 -811 579 -266 59 -518 86 -775 84 -115 0 -226 -3 -245 -5z
m-11218 -1470 c26 -30 29 -59 12 -102 -42 -107 -192 -147 -223 -61 -19 56 30
145 93 170 38 16 102 11 118 -7z m-303 -2447 c130 -68 127 -246 -3 -222 -70
13 -126 82 -126 156 0 71 60 101 129 66z"/>
</g>
</svg>
