<?xml version="1.0" standalone="no"?>
<!DOCTYPE svg PUBLIC "-//W3C//DTD SVG 20010904//EN"
 "http://www.w3.org/TR/2001/REC-SVG-20010904/DTD/svg10.dtd">
<svg version="1.0" xmlns="http://www.w3.org/2000/svg"
 width="2296.000000pt" height="735.000000pt" viewBox="0 0 2296.000000 735.000000"
 preserveAspectRatio="xMidYMid meet">
<metadata>
Created by potrace 1.16, written by Peter Selinger 2001-2019
</metadata>
<g transform="translate(0.000000,735.000000) scale(0.100000,-0.100000)"
fill="#000000" stroke="none">
<path d="M22634 7286 c-95 -30 -423 -201 -734 -381 -598 -347 -1230 -779
-1965 -1343 -228 -176 -454 -358 -528 -427 -203 -189 -328 -290 -408 -331 -73
-37 -75 -37 -209 -40 -227 -5 -399 42 -760 206 -330 151 -628 276 -850 355
-162 58 -616 188 -825 235 -126 29 -282 64 -345 79 l-114 26 -11 56 c-6 30
-15 60 -19 67 -9 14 24 32 61 32 15 0 39 9 53 20 25 19 25 21 22 139 -3 127 6
182 53 306 12 33 28 105 35 160 7 55 24 147 38 205 32 133 35 229 8 259 -30
33 -67 26 -198 -40 -245 -123 -316 -187 -446 -402 -84 -137 -245 -376 -300
-445 -19 -23 -62 -64 -96 -91 -51 -41 -63 -57 -74 -96 -18 -67 -59 -105 -114
-105 -24 0 -117 -5 -208 -11 -422 -28 -2905 12 -4415 71 -143 6 -498 19 -790
30 -673 25 -1081 42 -2040 85 -1109 50 -1207 54 -1545 65 -168 6 -462 17 -655
25 -781 33 -2111 40 -2490 14 -152 -11 -300 -44 -401 -89 -22 -11 -64 -28 -92
-39 -79 -31 -210 -99 -282 -146 -116 -75 -290 -236 -402 -372 -63 -76 -123
-138 -145 -150 -21 -12 -99 -40 -173 -63 -144 -45 -263 -85 -295 -100 -387
-180 -487 -243 -497 -309 -2 -18 -13 -27 -43 -36 -61 -18 -113 -55 -197 -143
l-78 -80 0 -66 c0 -64 1 -66 25 -66 37 0 41 -24 12 -72 -14 -24 -46 -89 -71
-146 -59 -132 -60 -167 -7 -249 58 -90 270 -321 442 -484 85 -79 255 -246 379
-370 222 -224 227 -228 391 -332 263 -166 365 -206 864 -332 l410 -104 677
-93 677 -93 75 -220 c145 -430 209 -570 398 -860 135 -207 351 -454 525 -598
142 -118 525 -360 591 -373 71 -14 160 34 198 107 18 36 18 117 -1 149 -8 14
-15 41 -15 60 -1 55 -24 107 -65 148 -29 28 -54 76 -110 210 -40 95 -77 178
-84 185 -6 6 -11 31 -11 56 0 26 -7 71 -16 101 -29 104 -59 529 -42 584 21 65
31 124 35 214 l4 93 52 -6 c95 -10 969 -83 1132 -94 185 -12 335 -22 900 -56
226 -14 480 -29 565 -35 437 -28 646 -34 1280 -34 447 -1 744 3 855 11 94 7
260 17 370 23 267 15 593 39 627 46 24 5 28 2 34 -22 4 -16 28 -83 55 -149
107 -270 119 -286 312 -417 115 -77 126 -83 183 -86 53 -4 64 -1 86 19 27 25
58 113 58 167 0 22 -11 40 -44 70 l-44 40 10 53 c7 37 6 60 -2 77 -8 20 -8 28
5 42 8 9 15 33 15 54 0 20 7 51 16 68 17 33 14 122 -4 140 -16 16 -1 68 22 73
11 3 111 25 221 49 110 24 452 116 760 204 308 88 702 197 876 242 l316 83
102 -64 c159 -101 266 -196 505 -452 140 -150 309 -301 425 -379 83 -57 305
-167 397 -197 34 -11 94 -26 132 -32 62 -10 74 -10 97 5 18 12 25 25 25 47 0
37 -73 182 -113 226 -16 17 -27 36 -23 41 3 5 -11 34 -32 63 -21 30 -45 74
-55 99 -10 25 -31 63 -47 85 -15 22 -38 58 -49 80 -11 22 -39 64 -62 94 -23
30 -49 67 -58 82 -9 14 -42 68 -73 118 -32 50 -58 99 -58 108 0 10 -12 45 -25
78 -14 33 -25 70 -25 82 0 19 -50 73 -68 73 -49 2 -150 24 -164 37 -19 17 -23
49 -10 70 4 7 69 33 143 59 382 131 1238 420 1334 451 161 52 693 241 892 316
196 75 916 314 1073 357 162 44 234 52 347 39 218 -23 374 -72 502 -154 39
-25 73 -45 76 -45 8 0 328 -215 638 -428 425 -293 800 -522 1242 -757 237
-127 518 -287 715 -408 706 -435 756 -463 850 -474 45 -5 51 -3 79 25 29 28
31 36 31 102 0 69 -5 87 -51 171 -23 41 -146 150 -389 344 -124 98 -306 247
-405 330 -99 83 -234 195 -300 249 -73 60 -263 243 -485 469 -323 329 -397
398 -640 601 -151 126 -309 260 -350 296 -41 37 -95 80 -119 95 -49 33 -60 54
-53 107 3 25 10 39 23 43 10 4 58 44 105 91 47 46 90 84 96 84 5 0 44 30 86
68 63 55 202 171 415 344 212 174 518 483 967 978 417 459 600 626 1001 908
64 45 124 93 133 107 32 49 16 133 -34 172 -24 19 -128 14 -206 -11z"/>
</g>
</svg>
