<?xml version="1.0" standalone="no"?>
<!DOCTYPE svg PUBLIC "-//W3C//DTD SVG 20010904//EN"
 "http://www.w3.org/TR/2001/REC-SVG-20010904/DTD/svg10.dtd">
<svg version="1.0" xmlns="http://www.w3.org/2000/svg"
 width="735.000000pt" height="1536.000000pt" viewBox="0 0 735.000000 1536.000000"
 preserveAspectRatio="xMidYMid meet">
<metadata>
Created by potrace 1.16, written by Peter Selinger 2001-2019
</metadata>
<g transform="translate(0.000000,1536.000000) scale(0.100000,-0.100000)"
fill="#000000" stroke="none">
<path d="M5615 15342 c-16 -11 -36 -26 -44 -35 -7 -10 -23 -17 -35 -17 -39 0
-247 -193 -281 -260 -10 -19 -24 -39 -31 -43 -8 -4 -24 -27 -35 -50 -12 -23
-34 -56 -49 -74 -15 -17 -33 -47 -39 -66 -6 -19 -32 -55 -56 -81 -25 -25 -45
-55 -45 -66 0 -10 -6 -23 -14 -27 -19 -11 -56 -74 -56 -95 0 -9 -6 -21 -14
-25 -18 -11 -56 -74 -56 -95 0 -9 -4 -18 -9 -20 -15 -5 -61 -80 -61 -98 0 -10
-9 -20 -20 -23 -11 -3 -29 -26 -42 -53 -13 -27 -29 -53 -36 -57 -7 -5 -27 -35
-45 -68 -46 -87 -59 -109 -90 -154 -15 -22 -27 -45 -27 -51 0 -6 -7 -17 -15
-24 -8 -7 -29 -39 -46 -71 -24 -44 -38 -59 -59 -64 -22 -5 -33 -19 -58 -73
-39 -87 -139 -357 -164 -445 -11 -38 -27 -76 -37 -86 -40 -40 -156 -485 -169
-647 -3 -44 -6 -51 -22 -47 -12 3 -26 -7 -44 -30 -14 -18 -26 -38 -26 -43 0
-6 -16 -8 -35 -6 -52 6 -102 -48 -143 -155 l-32 -82 0 -210 0 -210 -25 -25
c-17 -18 -25 -36 -25 -61 0 -34 -2 -36 -27 -33 -21 2 -29 9 -31 28 -6 47 -62
69 -62 25 0 -40 -26 -41 -69 -2 -21 19 -45 38 -54 43 -9 5 -20 36 -27 74 -7
36 -18 79 -26 95 -7 17 -17 62 -23 101 -9 73 -42 164 -59 164 -5 0 -20 26 -32
58 -25 62 -79 135 -112 153 -18 10 -24 8 -39 -12 -24 -31 -24 -40 1 -46 22 -6
59 -65 85 -138 10 -27 22 -54 25 -60 14 -19 53 -181 55 -225 1 -25 5 -67 9
-95 l6 -50 -25 55 c-29 62 -57 95 -98 116 -24 13 -30 13 -55 -5 -36 -26 -102
-39 -102 -20 -1 24 -37 59 -84 79 -103 46 -364 88 -380 61 -8 -12 -84 7 -116
29 -37 25 -87 40 -134 40 -23 0 -61 7 -86 16 -32 12 -63 14 -110 10 -48 -4
-71 -2 -86 8 -73 52 -339 115 -484 116 -72 0 -197 -23 -213 -39 -6 -6 -25 -11
-42 -11 -16 0 -44 -8 -60 -18 -17 -10 -41 -21 -55 -25 -14 -3 -52 -15 -84 -26
-33 -12 -69 -21 -80 -21 -12 0 -38 -9 -58 -20 -20 -11 -57 -25 -83 -31 -25 -6
-48 -15 -51 -20 -3 -5 -27 -9 -53 -9 -31 0 -53 -5 -61 -15 -7 -8 -27 -15 -45
-15 -18 0 -60 -13 -92 -29 -33 -16 -71 -33 -86 -36 -15 -4 -30 -11 -32 -16 -3
-4 -32 -11 -65 -15 -33 -4 -65 -13 -71 -20 -6 -8 -25 -14 -42 -14 -27 0 -114
-41 -127 -61 -3 -4 -24 -12 -47 -19 -48 -15 -47 -14 -33 -41 6 -11 21 -19 36
-19 37 0 142 28 184 50 20 10 47 16 61 13 16 -3 43 4 66 16 29 14 51 18 77 14
29 -5 44 -1 68 17 23 17 32 19 38 10 10 -16 54 -6 93 22 21 15 31 18 40 9 17
-17 33 -13 66 15 28 23 32 24 47 10 21 -22 34 -20 72 13 29 25 38 28 64 20 23
-6 39 -4 67 10 20 11 57 21 81 24 25 3 57 10 71 15 19 8 33 7 52 -3 18 -9 37
-11 63 -5 76 17 259 -13 460 -75 80 -25 131 -35 178 -35 l66 0 0 -35 c0 -40 4
-42 113 -69 38 -9 113 -34 166 -55 78 -31 184 -61 220 -61 3 0 -10 -10 -29
-21 l-35 -22 105 -29 c74 -21 137 -31 215 -35 l110 -5 52 -51 c48 -47 51 -52
37 -68 -16 -17 -15 -35 2 -176 l5 -41 -54 -7 c-41 -5 -61 -3 -78 8 -13 9 -52
21 -87 27 -62 11 -101 7 -113 -13 -13 -19 -77 4 -148 54 -40 28 -88 53 -107
56 -19 3 -34 9 -34 14 0 4 -22 15 -49 24 -60 20 -191 128 -223 185 -13 22 -29
40 -35 40 -36 0 10 -102 77 -175 21 -22 56 -68 79 -102 52 -79 222 -213 351
-278 76 -38 97 -45 126 -39 31 6 40 2 72 -28 41 -39 87 -58 139 -58 26 0 35
-5 43 -24 5 -13 13 -27 18 -30 5 -3 10 -30 11 -60 1 -56 17 -188 27 -218 3
-11 -4 -22 -23 -32 -37 -19 -72 -59 -113 -126 l-32 -54 5 -111 c4 -85 13 -139
41 -240 46 -164 82 -241 142 -306 l48 -51 -69 7 c-60 5 -75 3 -102 -14 -63
-40 -68 -62 -65 -289 3 -169 6 -210 21 -245 10 -23 22 -73 25 -111 5 -53 16
-84 47 -141 41 -76 125 -164 156 -166 22 -1 -33 -28 -58 -29 -10 0 -55 58
-119 155 -105 160 -153 210 -212 222 -18 3 -51 20 -73 36 -80 58 -130 68 -405
82 -41 2 -95 9 -120 16 -25 7 -68 13 -97 14 -35 2 -61 10 -79 24 -32 25 -40
26 -124 5 -63 -15 -70 -14 -186 9 -161 33 -184 45 -184 100 0 20 5 27 20 27
23 0 25 9 8 32 -18 23 -65 12 -85 -18 -11 -18 -14 -41 -11 -84 l4 -59 95 -98
c85 -89 103 -102 189 -141 136 -62 166 -72 224 -72 29 0 61 -6 71 -14 11 -8
34 -11 59 -9 33 4 45 1 60 -16 16 -17 31 -21 85 -21 53 0 78 6 126 30 73 36
89 37 127 5 21 -18 41 -25 70 -25 l40 0 -6 -62 c-4 -35 -2 -90 4 -122 12 -73
43 -109 114 -132 84 -27 170 -70 193 -95 20 -22 22 -36 25 -169 3 -141 5 -148
43 -252 l40 -107 -22 -23 c-21 -22 -22 -28 -12 -87 13 -81 86 -197 132 -209
l31 -8 -38 -22 c-37 -22 -38 -22 -64 -3 -25 17 -77 71 -173 178 -30 33 -46 42
-95 51 -33 6 -79 16 -104 22 -25 6 -58 14 -73 17 -42 8 -281 -39 -370 -73 -21
-8 -73 -14 -120 -14 -66 0 -87 -4 -107 -20 -19 -15 -41 -20 -91 -20 -74 0
-189 -31 -210 -56 -10 -12 -29 -15 -88 -13 -42 2 -92 -1 -111 -5 -28 -6 -41
-3 -60 12 -27 22 -22 52 10 52 18 0 19 3 10 20 -15 29 -65 26 -95 -5 -51 -50
-23 -109 89 -195 44 -33 88 -60 99 -60 10 0 28 -5 39 -11 12 -6 42 -11 67 -10
25 1 76 -4 112 -10 51 -9 82 -9 135 1 95 17 192 29 297 35 61 3 107 12 151 30
65 26 106 32 106 15 0 -23 47 -8 81 26 48 47 108 58 133 23 19 -28 20 -39 3
-39 -26 0 -57 -45 -57 -84 0 -44 22 -91 47 -101 10 -4 53 -11 96 -15 81 -9
142 -36 181 -79 18 -20 18 -28 8 -144 -16 -174 7 -298 66 -350 17 -15 19 -24
11 -44 -14 -37 -11 -119 7 -161 26 -63 69 -98 143 -119 l66 -18 -73 -7 c-105
-11 -110 -15 -114 -95 -2 -49 1 -79 14 -108 27 -62 27 -63 -64 -63 -51 0 -99
-6 -123 -15 -22 -8 -67 -18 -100 -20 -70 -6 -155 -32 -172 -53 -8 -12 -32 -15
-100 -14 -48 1 -94 1 -101 1 -7 -1 -17 -12 -23 -25 -10 -21 -15 -23 -36 -15
-13 5 -64 9 -113 9 -80 0 -89 -2 -95 -20 -5 -16 -15 -20 -56 -20 -27 0 -49 -4
-49 -9 0 -4 -24 -11 -53 -14 -29 -3 -81 -17 -115 -31 -34 -14 -78 -26 -99 -26
-21 0 -69 -7 -108 -15 -78 -17 -173 -19 -194 -6 -11 7 -8 11 10 16 l24 8 -23
8 c-56 21 -110 -24 -75 -63 38 -43 164 -139 214 -164 52 -27 53 -27 213 -20
89 4 202 14 253 22 51 8 96 13 100 12 4 -1 31 3 58 10 28 6 99 14 158 17 70 3
128 12 165 25 74 26 112 26 112 0 0 -18 5 -19 68 -13 40 3 86 15 114 29 65 33
121 40 149 20 13 -9 33 -16 45 -16 20 0 21 -6 27 -100 7 -139 15 -150 110
-150 40 0 99 7 130 15 68 18 123 19 133 4 3 -6 20 -19 38 -30 26 -16 27 -19
10 -19 -11 0 -29 -7 -40 -15 -12 -9 -44 -15 -89 -15 -68 0 -123 -17 -168 -52
-18 -13 -18 -23 -7 -189 12 -169 14 -176 46 -229 18 -30 30 -58 28 -62 -3 -5
-20 -8 -37 -8 -18 0 -50 -11 -72 -25 -30 -18 -54 -24 -95 -25 -64 0 -100 -20
-100 -54 0 -20 -11 -27 -86 -51 -64 -21 -91 -35 -107 -56 -14 -20 -30 -29 -48
-29 -40 0 -70 -14 -106 -47 -20 -19 -43 -30 -62 -31 -19 0 -47 -14 -74 -35
-23 -18 -60 -39 -83 -45 -22 -7 -62 -23 -88 -37 -39 -21 -61 -25 -127 -25 -44
0 -88 -4 -97 -9 -11 -5 -37 -3 -70 7 -40 11 -56 21 -63 39 -11 30 -31 25 -43
-10 -8 -21 -3 -39 27 -99 33 -65 44 -77 100 -112 l62 -39 95 6 c52 3 124 14
160 26 196 61 231 71 247 71 10 0 31 7 47 15 15 8 39 15 52 15 13 0 62 20 108
45 51 27 99 45 118 45 23 0 56 16 108 51 70 48 77 51 120 45 25 -4 66 -9 93
-13 40 -5 47 -9 47 -27 0 -12 6 -31 14 -41 13 -18 15 -18 74 8 33 15 62 27 66
27 4 0 43 16 87 37 60 27 83 33 91 25 7 -7 25 -12 40 -12 42 0 34 -14 -20 -33
-71 -26 -199 -111 -223 -149 -31 -50 -22 -195 19 -300 17 -43 33 -96 37 -119
4 -23 16 -62 27 -87 12 -25 27 -71 34 -102 15 -66 22 -57 -138 -192 -59 -51
-104 -95 -98 -98 5 -3 -27 -42 -71 -85 -93 -93 -148 -170 -131 -187 8 -8 -10
-30 -64 -81 -41 -38 -77 -81 -81 -96 -3 -14 -26 -43 -49 -64 -24 -21 -54 -61
-68 -90 -18 -38 -37 -60 -70 -81 -25 -16 -48 -37 -51 -47 -12 -36 -104 -168
-130 -185 -14 -9 -33 -30 -41 -47 -25 -47 -4 -59 92 -58 120 2 184 38 279 159
27 35 62 71 78 79 17 8 65 49 107 91 43 43 108 106 145 142 36 36 76 82 88
102 11 21 28 38 37 38 27 0 60 30 84 78 27 53 37 63 121 129 33 25 82 67 109
92 l48 46 -6 -36 c-7 -38 12 -143 38 -218 31 -86 69 -162 76 -151 4 7 10 -6
14 -28 3 -22 19 -71 36 -110 16 -39 30 -78 30 -86 0 -9 11 -41 25 -72 20 -46
28 -54 39 -45 11 10 16 3 26 -37 15 -65 45 -112 70 -112 11 0 20 -6 20 -14 0
-8 65 -221 144 -473 164 -521 246 -827 246 -920 0 -50 12 -96 65 -247 36 -103
82 -216 102 -254 65 -122 134 -220 173 -247 51 -36 88 -93 115 -183 43 -138
105 -153 105 -25 0 151 89 277 285 406 106 69 294 121 486 133 87 5 117 3 184
-15 130 -33 195 -59 278 -109 65 -39 83 -55 103 -94 24 -47 59 -69 83 -53 19
11 11 144 -15 280 -27 141 -56 364 -74 570 -7 72 -25 193 -42 270 -25 121
-132 480 -213 715 -38 110 -175 597 -182 645 -4 33 -2 43 11 48 23 9 21 99 -3
176 -12 40 -15 61 -8 64 23 7 -18 196 -69 321 -6 15 -4 17 6 11 20 -13 7 49
-36 165 -20 56 -35 103 -33 105 3 2 36 -1 74 -6 39 -6 104 -13 145 -16 66 -5
81 -10 125 -43 55 -41 102 -60 148 -60 34 0 151 -39 212 -70 25 -12 59 -20 91
-20 29 0 65 -5 80 -10 56 -22 213 -49 314 -54 58 -3 123 -11 145 -17 57 -16
184 -5 235 21 23 12 59 37 81 57 44 40 40 52 -21 53 -48 1 -132 24 -128 36 2
5 -37 15 -87 22 -51 7 -155 34 -240 62 -150 50 -242 73 -258 63 -5 -3 -18 4
-30 14 -40 35 -72 51 -129 62 -40 9 -59 18 -63 31 -10 32 -213 111 -324 125
-46 6 -52 9 -38 20 14 10 15 14 2 32 -13 19 -29 21 -192 28 -98 4 -181 9 -185
12 -15 8 23 51 62 68 22 10 40 24 40 31 0 20 -39 38 -95 44 l-50 5 -18 55 c-9
30 -36 143 -58 250 -42 203 -60 256 -105 315 l-26 35 -99 0 c-88 0 -99 2 -99
18 0 13 9 17 43 18 23 1 81 8 128 15 l86 13 -5 68 -5 68 44 19 c24 11 86 29
138 42 83 20 92 24 76 35 -10 8 -15 17 -11 21 4 4 75 10 158 13 149 6 151 6
172 33 20 25 25 26 55 16 41 -15 158 -5 180 15 9 8 36 16 61 19 64 7 439 85
474 99 37 15 88 57 81 68 -3 5 3 13 13 19 34 18 152 138 152 154 0 25 -62 22
-150 -8 -40 -14 -96 -25 -124 -25 -28 0 -73 -7 -101 -16 -37 -12 -98 -16 -232
-18 -128 -1 -186 -6 -196 -15 -13 -10 -17 -9 -24 4 -8 13 -17 12 -73 -11 -66
-27 -81 -28 -255 -23 -53 1 -90 -5 -150 -25 -96 -31 -243 -37 -265 -11 -9 10
-32 15 -75 15 l-63 0 -7 64 c-4 35 -3 95 2 135 l9 71 -32 25 c-19 15 -47 25
-66 26 l-33 0 42 17 c23 9 44 20 47 23 9 9 -34 217 -63 305 l-28 83 26 3 c21
2 26 8 26 32 1 35 24 47 125 67 77 15 90 23 90 56 0 13 7 26 17 30 9 3 41 21
71 40 31 18 66 33 79 33 37 0 103 38 113 65 5 14 16 25 25 25 21 0 128 55 144
74 7 9 11 23 7 31 -4 11 1 15 18 15 30 0 74 34 225 172 168 153 182 171 190
250 5 44 14 75 31 98 22 30 25 48 28 137 l4 103 -32 0 c-30 0 -32 -2 -27 -27
9 -47 -88 -213 -124 -213 -10 0 -48 -23 -84 -51 -37 -28 -97 -64 -133 -81
-122 -54 -136 -63 -190 -114 -34 -33 -60 -50 -71 -47 -22 6 -113 -55 -126 -84
-10 -24 -57 -46 -78 -37 -8 3 -47 -17 -89 -45 -41 -27 -101 -56 -132 -65 -31
-9 -79 -30 -107 -46 -61 -36 -125 -53 -151 -39 -10 6 -24 7 -31 2 -6 -4 2 7
19 24 69 70 71 153 3 225 -21 23 -39 46 -39 50 0 4 13 8 29 8 49 0 55 17 47
153 -8 143 -26 237 -67 362 l-30 90 33 27 c68 56 78 70 78 108 0 20 -5 41 -12
48 -9 9 -7 12 9 12 11 0 41 18 66 40 l45 40 74 -34 c69 -31 119 -43 298 -67
133 -17 278 -28 397 -28 120 -1 123 -1 155 28 27 23 46 29 102 34 70 7 105 25
91 47 -13 21 -73 40 -125 40 -28 0 -72 9 -98 20 -26 10 -90 24 -142 30 -76 9
-109 18 -165 47 -55 28 -84 36 -135 38 -71 4 -173 27 -235 56 -22 10 -65 21
-95 25 -30 4 -68 17 -83 28 -25 18 -43 21 -132 21 -92 0 -107 -3 -134 -23 -22
-16 -31 -19 -31 -9 0 8 -15 19 -32 25 -18 5 -26 10 -16 11 30 2 35 152 10 303
-28 168 -61 263 -107 306 -30 28 -42 32 -87 32 -29 0 -69 -4 -87 -10 -45 -13
-49 -7 -12 16 38 25 90 93 130 172 30 59 31 67 29 169 -2 121 2 131 90 245 31
41 43 64 39 78 -5 18 2 25 40 41 26 11 47 27 50 39 3 11 14 22 24 25 26 8 105
107 136 169 14 28 34 60 44 72 11 11 26 50 34 85 8 35 20 83 25 107 14 58 13
97 -4 137 -19 45 -57 63 -92 45 -31 -17 -48 -46 -40 -67 5 -12 9 -13 22 -3 10
9 18 10 25 3 12 -12 -14 -83 -30 -83 -13 0 -66 -55 -97 -101 -17 -24 -42 -43
-79 -58 -61 -25 -120 -85 -130 -132 -8 -34 -9 -34 -57 -43 -31 -6 -37 -4 -43
14 -4 12 -20 37 -37 56 -25 28 -37 34 -70 34 -46 0 -89 -20 -114 -54 -14 -18
-32 -25 -69 -29 -48 -5 -49 -4 -23 9 29 15 67 66 125 167 29 50 39 81 49 157
37 265 -9 526 -113 649 -24 28 -36 34 -71 35 -30 0 -42 5 -42 16 0 18 -45 218
-55 241 -4 11 0 18 14 22 43 11 54 113 22 205 -15 44 -16 55 -5 70 7 9 14 28
14 42 0 14 9 45 20 69 11 24 20 52 20 62 0 11 20 54 44 97 71 122 87 214 77
421 -4 57 -7 67 -40 101 -20 21 -52 56 -73 78 -28 32 -46 42 -81 47 l-44 7 10
42 c14 61 1 136 -23 136 -17 0 -17 5 10 63 28 63 73 204 85 267 9 51 45 158
72 215 28 62 29 114 3 166 l-21 40 39 47 c25 29 42 62 47 87 3 22 27 92 53
155 38 97 46 127 48 191 2 70 6 85 52 175 28 55 63 126 79 159 16 33 39 76 51
95 12 19 22 44 22 54 0 11 6 27 13 35 7 9 22 36 33 61 10 25 34 67 52 94 17
26 32 57 32 68 0 11 13 36 30 54 16 19 33 47 36 62 4 15 15 37 25 50 10 13 25
46 34 73 9 28 27 60 40 73 23 23 60 86 51 86 -3 0 6 11 20 25 14 14 32 42 41
62 8 21 30 55 49 77 19 22 37 52 41 66 3 14 23 44 44 67 22 24 39 49 39 57 0
9 18 26 40 38 21 13 44 33 49 45 6 12 33 34 61 48 27 14 50 29 50 35 0 5 24
21 53 37 54 29 74 66 45 84 -19 13 -30 11 -63 -9z m-1784 -3134 c-24 -48 -26
-63 -25 -169 l1 -115 -30 -22 c-17 -12 -33 -19 -35 -17 -3 2 -4 48 -3 102 2
83 6 107 33 170 26 63 56 103 79 103 3 0 -6 -24 -20 -52z m529 -146 c54 -54
51 -84 -25 -250 -37 -81 -70 -162 -74 -181 -7 -40 -26 -51 -36 -22 -10 32 -32
25 -45 -14 -9 -28 -17 -35 -37 -35 -20 0 -24 4 -18 18 4 9 16 55 27 102 11 47
28 110 39 141 23 68 25 129 5 129 -10 0 -4 17 20 57 19 31 34 60 34 64 0 4 8
10 18 12 41 11 65 6 92 -21z m678 -6327 c-6 -14 -15 -25 -20 -25 -5 0 -1 11 8
25 9 14 18 25 20 25 2 0 -2 -11 -8 -25z m-1181 -3107 c-3 -8 -6 -5 -6 6 -1 11
2 17 5 13 3 -3 4 -12 1 -19z"/>
</g>
</svg>
