<?xml version="1.0" encoding="UTF-8" standalone="no"?>
<!-- Created with Inkscape (http://www.inkscape.org/) -->

<svg
   xmlns:svg="http://www.w3.org/2000/svg"
   xmlns="http://www.w3.org/2000/svg"
   version="1.2"
   width="124.643"
   height="115.974"
   viewBox="0 0 124.643 115.974"
   id="Layer_1"
   xml:space="preserve"
   style="overflow:inherit"><defs
   id="defs6" />
<path
   d="m 60.701,53.458 c -1.973,3.71 4.42,6.882 6.167,10.703 1.341,2.935 0.333,6.977 2.524,9.344 6.256,6.756 16.32,11.918 21.972,21.719 0.968,1.679 1.983,3.361 3.282,4.799 2.364,2.614 5.693,4.584 7.072,7.828 0.494,1.165 1.662,1.894 0.758,2.778 -1.387,1.354 -4.003,0.955 -5.809,0.252 -2.441,-0.949 -3.972,-3.471 -5.557,-5.556 -1.346,-1.771 -1.84,-4.116 -3.283,-5.809 C 81.96,92.633 73.071,88.93 66.614,82.596 60.214,76.316 50.532,61.809 49.442,61.888 c -1.266,0.091 -5.896,17.254 -3.536,25.507 1.627,5.688 7.128,9.506 11.364,13.637 1.845,1.799 4.234,2.98 6.061,4.798 1.146,1.141 0.603,3.172 1.767,4.294 1.735,1.669 5.48,1.781 6.314,4.04 0.389,1.054 1.509,1.012 0.504,1.515 -2.055,1.031 -4.54,-0.949 -6.818,-1.262 -2.358,-0.324 -4.695,0.841 -7.07,1.01 -3.107,0.221 -10.523,1.45 -8.461,-0.884 1.836,-2.077 5.393,-0.997 7.703,-3.157 0.633,-0.592 1.513,-1.442 1.263,-2.272 -0.739,-2.451 -3.77,-2.8 -5.935,-4.167 -3.303,-2.085 -6.938,-4.462 -9.597,-7.323 -2.261,-2.435 -3.946,-4.644 -5.159,-7.736 -1.258,-3.206 -2.371,-6.494 -2.67,-9.926 -0.393,-4.507 0.018,-9.132 0.885,-13.571 0.454,-2.333 1.803,-4.768 2.93,-6.859 0.494,-0.916 -1.227,-1.797 -1.732,-2.418 -1.775,-2.178 -4.15,-3.795 -6.01,-5.901 -2.119,-2.399 -5.039,-3.456 -6.081,-6.481 -1.313,-3.812 1.715,-8.141 0.901,-12.091 -0.296,-1.44 -1.428,-2.582 -2.32,-3.75 C 20.778,25.01 17.278,21.55 13.745,18.177 11.483,16.02 9.631,12.872 6.601,12.106 4.655,11.614 2.393,14.449 0.707,13.356 -0.008,12.892 -0.174,11.635 0.172,10.856 0.9,9.221 3.044,8.397 4.817,8.175 c 1.964,-0.246 3.85,0.948 5.715,1.607 2.137,0.755 3.826,2.458 5.871,3.436 2.979,1.425 6.021,4.999 9.129,3.885 0.729,-0.261 1.189,-1.428 0.893,-2.143 -0.418,-1.011 -2.17,-0.58 -3.035,-1.25 -1.177,-0.911 -2.728,-2.084 -2.68,-3.572 0.055,-1.646 2.436,-2.3 3.215,-3.75 0.821,-1.526 0.151,-3.828 1.429,-5 1.608,-1.476 4.266,-1.545 6.429,-1.25 2.373,0.325 4.905,1.365 6.428,3.214 1.414,1.717 1.594,4.213 1.787,6.429 0.212,2.442 -1.989,5.227 -0.715,7.321 1.166,1.917 4.438,1.177 6.25,2.5 2.869,2.094 5.225,5.024 6.785,8.214 2.279,4.657 1.582,10.321 3.393,15.178 0.615,1.647 0.81,4.164 2.5,4.643 1.258,0.356 2.225,-1.38 3.394,-1.964 2.72,-1.359 5.492,-2.66 8.394,-3.571 3.597,-1.13 7.326,-1.871 11.07,-2.321 5.44,-0.654 10.699,-0.626 16.176,-0.788 6.667,-0.198 13.278,1.083 19.748,-0.536 1.938,-0.484 3.9,-2.792 5.862,-2.426 0.87,0.162 1.87,1.083 1.786,1.964 -0.254,2.667 -3.867,4.042 -6.43,4.822 -3.25,0.989 -11.584,-0.596 -14.977,-0.41 -11.451,0.631 -23.693,0.914 -27.523,2.017 -5.773,1.664 -12.717,4.723 -15.01,9.034 l 0,0 z"
   id="path4787-2"
   style="fill:#010101" />
</svg>