<?xml version="1.0" standalone="no"?>
<!DOCTYPE svg PUBLIC "-//W3C//DTD SVG 20010904//EN"
 "http://www.w3.org/TR/2001/REC-SVG-20010904/DTD/svg10.dtd">
<svg version="1.0" xmlns="http://www.w3.org/2000/svg"
 width="1289.000000pt" height="1536.000000pt" viewBox="0 0 1289.000000 1536.000000"
 preserveAspectRatio="xMidYMid meet">
<metadata>
Created by potrace 1.16, written by Peter Selinger 2001-2019
</metadata>
<g transform="translate(0.000000,1536.000000) scale(0.100000,-0.100000)"
fill="#000000" stroke="none">
<path d="M5670 15349 c-552 -56 -1193 -330 -1765 -754 -433 -321 -788 -690
-1072 -1115 -678 -1015 -1119 -2353 -1372 -4160 -114 -811 -186 -1538 -286
-2875 -42 -560 -75 -926 -116 -1285 -170 -1497 -472 -2486 -959 -3138 -91
-122 -95 -129 -95 -179 0 -108 102 -176 203 -134 79 33 328 412 481 733 403
845 619 1927 756 3798 141 1915 258 2973 431 3880 277 1454 717 2551 1379
3439 202 272 440 514 730 746 435 348 969 615 1435 719 588 130 1057 34 1362
-282 257 -266 397 -650 438 -1201 6 -79 9 -145 8 -146 -2 -1 -78 -7 -171 -14
-600 -41 -1247 -269 -1772 -622 -664 -448 -1257 -1183 -1749 -2169 -499 -1002
-859 -2207 -1015 -3400 -115 -872 -88 -1759 79 -2600 360 -1817 1280 -3051
2591 -3475 331 -107 884 -213 1305 -250 217 -19 617 -19 797 0 429 45 751 150
1031 335 145 96 235 171 371 311 506 521 883 1319 1291 2739 443 1538 593
3246 423 4795 -97 892 -312 1788 -566 2365 -433 982 -1119 1654 -1928 1886
-65 19 -120 36 -121 37 -2 1 4 57 12 125 100 861 593 1378 1408 1478 175 22
479 15 655 -15 780 -133 1487 -573 1894 -1179 75 -111 197 -362 280 -572 202
-514 322 -1037 384 -1665 25 -258 25 -1051 0 -1345 -47 -539 -116 -1017 -233
-1595 -132 -652 -236 -1067 -663 -2634 -110 -403 -219 -812 -241 -909 -85
-368 -147 -776 -171 -1124 -15 -231 -7 -744 16 -933 126 -1071 564 -1958 1373
-2787 162 -166 192 -186 259 -175 50 9 100 50 114 96 23 77 12 94 -164 272
-731 735 -1149 1535 -1286 2459 -34 234 -45 396 -44 690 1 677 95 1213 401
2295 276 972 506 1870 637 2479 458 2132 401 3745 -180 5107 -171 400 -321
626 -604 910 -480 479 -1091 785 -1781 890 -116 18 -192 22 -375 23 -308 1
-500 -27 -750 -109 -541 -177 -922 -563 -1109 -1125 -46 -139 -92 -343 -103
-456 -3 -36 -7 -63 -9 -61 -2 1 -8 63 -14 137 -61 759 -332 1282 -805 1554
-268 154 -651 223 -1025 185z m95 -3310 c121 -57 192 -231 202 -499 10 -238
-16 -422 -112 -810 -237 -954 -528 -1719 -904 -2372 -161 -279 -303 -493 -658
-990 -269 -378 -404 -587 -534 -830 -181 -339 -231 -537 -319 -1268 -43 -357
-69 -528 -99 -655 -22 -90 -44 -114 -103 -115 -85 0 -122 81 -172 376 -48 289
-60 465 -60 894 0 219 5 464 12 550 76 961 263 1927 578 2982 180 604 550
1323 950 1849 268 351 600 678 831 817 149 90 292 116 388 71z m2899 -292
c248 -118 494 -397 671 -762 253 -519 382 -1163 460 -2300 66 -963 58 -1754
-25 -2409 -125 -985 -251 -1464 -417 -1579 -110 -76 -193 -48 -266 90 -85 161
-134 425 -177 938 -92 1110 -280 2281 -555 3455 -141 602 -193 948 -215 1435
-24 522 42 922 179 1087 81 97 203 113 345 45z m-2397 -4532 c432 -56 864
-244 1253 -545 129 -100 376 -349 484 -490 305 -394 503 -815 600 -1278 86
-406 72 -859 -37 -1237 -118 -407 -369 -828 -657 -1098 -214 -201 -485 -382
-722 -482 -223 -95 -359 -111 -843 -101 -181 3 -384 11 -450 16 -66 6 -248 15
-405 20 -198 6 -308 13 -360 25 -456 100 -827 408 -1072 891 -170 335 -287
772 -328 1234 -15 161 -15 559 0 720 66 734 302 1333 670 1700 311 312 855
570 1325 629 118 15 414 12 542 -4z"/>
<path d="M5810 6944 c-149 -15 -369 -66 -515 -121 -180 -68 -404 -191 -559
-308 -151 -113 -311 -306 -420 -505 -91 -167 -191 -443 -240 -662 -65 -288
-89 -511 -89 -818 0 -402 51 -745 163 -1081 169 -507 417 -843 753 -1020 186
-97 342 -130 604 -128 87 0 208 -4 268 -10 334 -32 844 -37 1043 -10 143 19
341 99 518 210 204 126 440 331 559 484 559 717 636 1668 206 2535 -260 522
-665 939 -1166 1196 -217 112 -424 181 -655 219 -94 16 -383 27 -470 19z m175
-708 c310 -81 556 -305 645 -591 34 -108 39 -285 11 -395 -62 -249 -231 -452
-475 -570 -142 -69 -239 -92 -411 -97 -114 -4 -158 -1 -235 15 -131 27 -244
73 -348 141 -462 306 -523 893 -131 1267 135 128 304 212 502 250 113 21 318
12 442 -20z"/>
</g>
</svg>
