<?xml version="1.0" standalone="no"?>
<!DOCTYPE svg PUBLIC "-//W3C//DTD SVG 20010904//EN"
 "http://www.w3.org/TR/2001/REC-SVG-20010904/DTD/svg10.dtd">
<svg version="1.0" xmlns="http://www.w3.org/2000/svg"
 width="1536.000000pt" height="934.000000pt" viewBox="0 0 1536.000000 934.000000"
 preserveAspectRatio="xMidYMid meet">
<metadata>
Created by potrace 1.16, written by Peter Selinger 2001-2019
</metadata>
<g transform="translate(0.000000,934.000000) scale(0.100000,-0.100000)"
fill="#000000" stroke="none">
<path d="M8539 9336 c-3 -3 -63 -10 -135 -15 -71 -6 -172 -19 -224 -31 -107
-22 -233 -25 -391 -10 -57 6 -115 12 -128 13 -36 3 -50 -27 -29 -63 l17 -30
-65 0 c-67 0 -117 -17 -127 -45 -4 -8 -13 -15 -21 -15 -8 0 -56 -16 -107 -36
-106 -41 -166 -92 -148 -125 12 -23 6 -25 -64 -34 -32 -4 -61 -13 -63 -20 -3
-7 -46 -26 -95 -41 -51 -17 -89 -34 -89 -42 0 -7 -13 -15 -30 -18 -16 -4 -40
-20 -54 -38 -18 -24 -42 -37 -102 -56 -44 -13 -81 -26 -84 -28 -3 -2 6 -12 20
-22 21 -16 26 -16 46 -3 13 8 25 10 28 5 8 -13 -49 -35 -102 -38 -37 -3 -51
-10 -93 -53 -53 -54 -57 -61 -34 -61 8 0 15 -4 15 -9 0 -9 -61 -34 -127 -51
-29 -7 -43 -16 -44 -28 0 -9 -14 -28 -32 -42 -17 -14 -27 -18 -22 -10 4 8 -3
3 -18 -12 -14 -16 -33 -28 -41 -28 -22 0 -50 -31 -36 -40 6 -4 -7 -15 -32 -26
-67 -30 -99 -61 -92 -90 4 -16 2 -24 -7 -24 -25 0 -109 -63 -115 -85 -4 -15
-11 -22 -20 -18 -8 3 -14 -1 -14 -11 0 -9 -12 -22 -27 -28 -16 -7 -43 -25 -61
-40 -18 -15 -39 -28 -47 -28 -7 0 -27 -11 -43 -25 -16 -13 -41 -29 -56 -34
-14 -6 -26 -17 -26 -25 0 -7 -7 -16 -15 -20 -18 -7 -20 -36 -2 -36 23 0 -17
-20 -41 -20 -31 0 -61 -37 -62 -76 0 -24 -8 -36 -41 -57 -22 -15 -45 -27 -51
-27 -5 0 -19 -5 -30 -11 -15 -8 -17 -13 -9 -19 10 -5 9 -15 -2 -43 -12 -28
-28 -42 -72 -63 -31 -16 -66 -39 -77 -53 -18 -23 -18 -26 -3 -37 15 -11 12
-15 -22 -32 -21 -11 -47 -29 -57 -41 -20 -22 -19 -22 26 -25 36 -2 20 -22 -40
-51 -77 -38 -90 -51 -74 -67 7 -7 12 -20 12 -29 0 -9 10 -20 23 -23 21 -6 21
-7 -13 -36 -19 -17 -40 -30 -46 -30 -7 0 -19 -6 -26 -13 -7 -8 -23 -19 -34
-25 -27 -14 -21 -72 7 -79 24 -7 24 -24 0 -55 -19 -23 -22 -82 -6 -107 3 -6 1
-20 -5 -31 -8 -15 -7 -24 7 -39 10 -11 23 -26 30 -34 7 -8 18 -17 25 -19 9 -3
5 -15 -15 -41 -15 -19 -27 -44 -27 -55 0 -30 29 -92 45 -99 22 -8 18 -35 -10
-77 -14 -21 -32 -52 -41 -69 -8 -18 -23 -45 -32 -62 -164 -287 -280 -527 -492
-1015 -134 -311 -182 -406 -555 -1120 -116 -223 -278 -534 -359 -693 -82 -158
-166 -314 -187 -347 -21 -34 -39 -66 -40 -73 0 -11 -7 -22 -53 -93 -84 -128
-108 -167 -140 -226 -31 -57 -147 -223 -166 -238 -3 -3 -19 -23 -36 -45 -27
-36 -98 -126 -235 -295 -217 -268 -892 -1002 -1048 -1139 -53 -46 -98 -87
-101 -90 -11 -14 -345 -201 -610 -343 -47 -25 -122 -67 -168 -92 -45 -25 -142
-76 -215 -112 -72 -37 -144 -75 -158 -85 -15 -10 -94 -53 -175 -95 -183 -94
-206 -110 -202 -138 3 -18 13 -22 63 -30 92 -14 187 8 498 113 792 269 1246
532 1744 1011 94 91 206 199 250 240 43 41 98 103 123 137 25 33 119 145 210
248 378 428 736 917 1157 1580 206 324 621 1019 754 1262 16 29 47 80 71 114
23 34 43 71 43 81 1 10 13 31 27 46 14 15 28 35 31 45 4 9 13 17 22 17 11 0
14 6 9 25 -5 20 2 34 30 65 20 22 36 46 36 53 0 7 13 31 29 53 16 21 34 59 41
84 15 56 50 119 161 290 62 95 97 162 120 225 17 50 42 112 55 138 31 59 97
127 125 127 19 0 20 -4 15 -32 -4 -18 -10 -58 -15 -88 -5 -30 -11 -69 -15 -85
-6 -29 -4 -32 39 -49 45 -19 49 -25 45 -80 -2 -34 30 -106 47 -106 19 0 26
-45 13 -84 -9 -27 -8 -39 2 -55 27 -43 -14 -66 -199 -111 -50 -12 -100 -19
-111 -16 -11 4 -23 2 -27 -4 -4 -6 11 -10 42 -10 54 1 228 17 283 26 52 9 27
-11 -45 -37 -37 -13 -103 -24 -170 -29 -140 -10 -275 -30 -275 -40 0 -12 280
-24 395 -17 55 4 144 2 198 -3 89 -9 101 -12 128 -39 34 -34 35 -42 12 -78
l-17 -26 32 17 c36 18 42 20 42 7 0 -5 -26 -26 -57 -45 -64 -40 -64 -41 27
-21 55 12 67 12 79 0 18 -18 8 -43 -22 -54 -14 -5 -66 -17 -116 -25 -51 -9
-106 -23 -122 -31 -35 -19 -84 -89 -73 -106 4 -7 10 -75 14 -153 6 -121 11
-150 34 -203 14 -34 31 -99 37 -145 6 -46 16 -92 22 -103 6 -11 12 -33 13 -50
4 -75 92 -366 150 -498 41 -94 49 -129 63 -272 6 -60 18 -173 27 -250 8 -77
21 -216 28 -310 13 -168 14 -171 61 -280 75 -176 82 -193 135 -340 28 -77 58
-150 66 -162 22 -34 237 -249 257 -256 24 -9 47 2 47 23 0 58 81 86 153 51 24
-11 50 -21 59 -21 9 0 59 -16 112 -35 53 -19 110 -35 126 -35 27 0 28 2 23 33
-5 31 -4 33 44 46 29 8 118 15 223 18 96 2 181 6 188 8 39 14 -10 71 -103 117
-33 17 -69 38 -80 47 -11 9 -45 25 -75 35 -134 44 -236 104 -342 202 -183 169
-245 249 -278 356 -27 91 -38 111 -98 190 -69 91 -88 140 -116 291 -13 74 -36
162 -50 196 -14 33 -37 87 -50 119 -14 31 -29 84 -35 117 -5 33 -25 113 -45
178 -20 66 -43 158 -51 205 -8 48 -20 110 -26 137 -8 35 -8 75 -1 130 9 75 14
86 71 172 34 51 78 105 97 119 35 27 229 84 285 84 26 0 27 -2 31 -63 6 -102
40 -158 159 -263 56 -49 143 -123 193 -164 51 -41 177 -160 282 -265 177 -177
286 -272 408 -354 28 -19 89 -68 136 -111 47 -42 117 -101 155 -132 39 -31 84
-70 100 -88 69 -73 67 -73 299 -81 203 -7 355 -28 496 -69 19 -5 45 -10 57
-10 22 0 22 0 6 35 -27 56 -21 58 220 74 5 1 7 11 5 23 -6 44 -321 190 -457
213 -24 4 -62 15 -85 25 -22 10 -82 28 -132 40 -105 24 -163 56 -323 175 -60
45 -169 117 -242 161 -206 122 -385 304 -483 488 -43 81 -14 129 78 131 39 0
69 9 114 32 44 23 81 34 129 39 37 3 86 12 108 21 22 8 65 17 95 19 89 7 246
43 405 94 171 54 259 72 367 72 105 1 139 -7 263 -62 55 -25 128 -32 350 -36
247 -5 261 -6 281 -25 13 -13 14 -21 5 -38 -8 -15 -9 -27 -1 -40 19 -36 11
-86 -21 -137 -94 -146 -123 -186 -154 -212 -25 -20 -45 -53 -70 -115 -37 -92
-42 -139 -24 -210 10 -36 8 -59 -11 -147 -15 -70 -24 -154 -27 -252 -5 -137
-4 -150 17 -192 28 -59 86 -109 196 -170 87 -48 92 -49 227 -64 160 -17 170
-14 165 52 -3 39 -8 45 -118 132 -160 129 -192 178 -193 304 -1 94 19 142 95
228 53 61 78 113 78 163 0 32 70 174 108 222 17 21 51 80 76 131 26 52 52 99
60 105 8 7 17 23 20 36 9 34 62 63 121 65 76 4 164 -19 199 -51 11 -11 32 -25
48 -31 15 -7 28 -16 28 -20 0 -5 9 -8 19 -8 11 0 22 -4 26 -10 3 -5 12 -7 20
-3 8 3 15 0 15 -7 0 -8 8 -10 21 -7 12 3 29 2 38 -3 9 -5 33 -12 54 -15 21 -3
41 -13 44 -21 7 -18 55 -44 82 -44 12 0 26 -9 33 -21 7 -11 30 -29 51 -40 20
-11 37 -23 37 -28 0 -4 11 -13 25 -19 14 -6 25 -18 25 -26 0 -8 15 -17 35 -20
19 -4 35 -10 35 -14 0 -5 21 -18 46 -30 25 -12 51 -27 57 -32 40 -34 91 -70
98 -70 4 0 43 -32 86 -72 71 -66 112 -122 113 -155 0 -7 4 -13 8 -13 4 0 16
-13 25 -30 10 -16 25 -30 33 -30 8 0 12 -5 9 -10 -3 -6 1 -13 10 -16 9 -4 22
-19 31 -35 8 -16 22 -29 30 -29 13 0 14 -3 4 -15 -10 -12 -9 -16 4 -21 9 -3
16 -12 16 -20 0 -8 4 -14 9 -14 5 0 11 -14 15 -30 4 -23 15 -35 42 -46 20 -8
38 -24 41 -35 3 -10 8 -19 12 -19 4 0 5 -17 3 -37 -3 -23 0 -40 9 -47 22 -17
42 -63 36 -80 -6 -16 27 -56 47 -56 6 0 21 -8 34 -18 l23 -18 -20 -26 c-31
-39 -25 -78 7 -46 8 8 15 8 27 -2 14 -12 14 -15 0 -30 -21 -23 -20 -90 1 -90
11 0 15 -6 11 -20 -3 -11 -1 -22 4 -25 4 -3 4 -16 -2 -28 -8 -18 -4 -33 19
-77 28 -54 108 -127 262 -242 30 -22 71 -56 90 -74 62 -58 126 -71 370 -78
118 -3 240 -8 270 -11 31 -3 77 0 105 7 45 12 50 16 53 43 2 26 -5 36 -56 76
-80 64 -113 79 -287 134 -215 68 -283 106 -414 230 -103 98 -136 185 -231 618
-26 115 -91 304 -126 364 -42 72 -94 179 -99 202 -2 11 -17 41 -34 65 -17 24
-32 59 -33 78 -3 32 -2 33 32 30 19 -2 49 -10 67 -19 30 -16 33 -16 52 1 18
17 27 17 88 7 37 -6 88 -15 113 -20 25 -6 69 -10 99 -11 52 0 131 -25 131 -41
0 -5 20 -17 45 -28 25 -11 52 -27 60 -35 18 -17 114 -40 168 -39 20 0 37 -3
37 -7 0 -16 63 -20 91 -6 18 9 29 10 32 3 2 -7 9 -7 22 0 23 13 74 0 119 -31
61 -41 95 -51 130 -37 48 19 95 21 111 4 9 -9 52 -18 112 -25 54 -6 112 -16
128 -23 17 -7 64 -23 105 -35 41 -11 84 -25 95 -30 33 -15 108 -38 148 -45 20
-4 54 -20 74 -36 20 -16 47 -32 60 -35 12 -4 23 -10 23 -15 0 -5 17 -16 37
-24 37 -16 109 -70 152 -114 25 -26 61 -49 121 -77 19 -9 47 -22 62 -30 14 -8
33 -14 42 -14 9 0 16 -4 16 -9 0 -5 42 -37 93 -71 50 -34 101 -70 112 -80 11
-10 30 -21 43 -25 12 -3 30 -18 40 -33 9 -14 32 -42 50 -62 18 -19 47 -53 65
-74 18 -22 47 -56 65 -76 17 -21 32 -41 32 -45 0 -5 7 -16 15 -25 8 -9 26 -48
40 -87 13 -39 33 -86 44 -105 25 -42 67 -169 87 -261 21 -100 24 -105 90 -109
55 -3 57 -2 96 41 l41 43 -7 77 c-32 367 -87 654 -156 806 -10 22 -37 85 -60
140 -23 55 -64 145 -91 200 -29 60 -55 131 -63 175 -15 73 -41 197 -66 309 -7
30 -25 84 -40 120 -15 36 -31 85 -35 108 -3 23 -27 81 -51 128 -53 103 -98
249 -124 401 -11 62 -26 127 -34 145 -7 19 -24 66 -36 104 -13 39 -26 75 -30
80 -4 6 -10 24 -13 41 -5 27 -72 180 -100 229 -6 11 -33 62 -59 114 -26 52
-54 101 -62 110 -7 9 -17 30 -20 46 -4 17 -33 66 -66 109 -33 44 -63 88 -66
99 -10 32 -111 181 -173 257 -55 66 -115 157 -155 236 -52 99 -110 169 -217
258 -67 56 -110 101 -149 160 -30 45 -90 117 -133 161 -54 56 -80 91 -88 118
-6 22 -22 50 -36 63 -34 32 -120 72 -173 80 -39 6 -44 11 -62 55 -12 27 -25
49 -29 49 -5 0 -9 9 -9 19 0 18 -34 51 -52 51 -4 0 -13 -12 -20 -27 -15 -32
-59 -43 -85 -22 -21 18 -50 35 -105 61 -26 13 -48 28 -48 35 0 7 -10 21 -22
32 -17 16 -30 19 -60 15 -30 -5 -38 -3 -38 8 0 16 -49 33 -87 29 -18 -1 -28
10 -50 55 -31 64 -73 90 -124 79 -26 -6 -37 1 -97 58 -76 73 -167 126 -186
107 -8 -8 -4 -24 17 -61 15 -27 27 -51 27 -54 0 -22 -180 39 -208 71 -12 14
-43 31 -70 38 -39 10 -235 120 -332 186 -14 9 -38 20 -55 24 -30 8 -137 100
-143 124 -2 6 -8 12 -13 12 -6 0 -99 86 -207 191 -108 105 -215 204 -238 219
-36 25 -41 27 -51 12 -8 -14 -14 -11 -39 25 -16 23 -37 42 -46 43 -9 0 -19 9
-23 20 -3 11 -25 40 -48 65 l-42 45 -89 6 c-81 7 -93 10 -134 42 -25 19 -59
40 -76 47 -17 8 -44 28 -61 45 -16 18 -50 44 -75 58 -25 14 -69 47 -98 74
-107 96 -236 157 -398 188 -60 12 -152 30 -204 42 -52 11 -142 30 -200 43 -58
12 -181 27 -275 34 -93 6 -201 18 -240 27 -38 8 -81 17 -95 20 -14 3 -28 3
-31 0z m-1034 -185 c3 -5 1 -13 -5 -16 -15 -9 -43 3 -35 15 8 13 32 13 40 1z"/>
<path d="M4940 6946 c0 -9 30 -14 35 -6 4 6 -3 10 -14 10 -12 0 -21 -2 -21 -4z"/>
</g>
</svg>
