<?xml version="1.0" standalone="no"?>
<!DOCTYPE svg PUBLIC "-//W3C//DTD SVG 20010904//EN"
 "http://www.w3.org/TR/2001/REC-SVG-20010904/DTD/svg10.dtd">
<svg version="1.0" xmlns="http://www.w3.org/2000/svg"
 width="2549.000000pt" height="1818.000000pt" viewBox="0 0 2549.000000 1818.000000"
 preserveAspectRatio="xMidYMid meet">
<metadata>
Created by potrace 1.16, written by Peter Selinger 2001-2019
</metadata>
<g transform="translate(0.000000,1818.000000) scale(0.100000,-0.100000)"
fill="#000000" stroke="none">
<path d="M24005 18171 c-95 -31 -158 -115 -248 -332 -27 -67 -76 -155 -131
-239 -106 -159 -185 -310 -301 -570 -111 -249 -148 -316 -255 -459 -193 -259
-305 -382 -505 -554 -77 -67 -180 -158 -230 -202 -111 -100 -132 -115 -167
-115 -30 0 -56 30 -103 117 -36 68 -123 154 -194 192 -32 17 -136 57 -232 89
-396 135 -480 182 -569 314 l-40 60 3 111 c2 105 0 116 -26 169 -18 37 -48 74
-87 108 -52 45 -60 58 -80 123 -69 228 -231 425 -436 529 -251 128 -417 150
-734 97 -169 -28 -264 -57 -585 -175 -160 -58 -310 -110 -334 -115 -24 -5
-100 -13 -169 -18 -121 -10 -129 -9 -390 35 -147 24 -283 49 -302 54 -19 6
-100 10 -180 10 -250 0 -321 -28 -466 -186 -61 -65 -113 -111 -147 -129 -113
-60 -149 -122 -122 -211 8 -27 15 -51 15 -53 0 -12 -181 13 -280 39 -83 22
-137 30 -198 30 -160 0 -211 -30 -231 -137 -13 -66 -41 -183 -64 -260 -18 -64
-146 -363 -194 -454 -68 -132 -183 -244 -318 -312 -27 -13 -108 -48 -180 -77
-166 -67 -241 -105 -444 -224 -91 -53 -189 -105 -218 -116 -132 -49 -323 -9
-709 150 -240 99 -508 230 -610 297 -44 28 -400 428 -657 737 -310 372 -419
512 -495 629 -74 113 -260 377 -348 492 -56 73 -86 101 -163 153 -90 61 -97
64 -143 60 -94 -9 -151 -73 -291 -324 -129 -231 -163 -357 -154 -574 4 -108
10 -143 45 -260 22 -74 52 -192 68 -261 l27 -126 -88 -213 c-187 -456 -179
-427 -225 -776 -43 -328 -90 -824 -90 -961 0 -70 7 -106 51 -250 53 -176 248
-744 292 -850 58 -141 595 -885 781 -1081 174 -184 554 -475 750 -574 77 -39
213 -90 312 -118 144 -41 139 -30 52 -118 l-75 -77 -316 -985 c-173 -542 -337
-1043 -364 -1115 l-48 -129 -130 -42 c-402 -131 -761 -244 -773 -244 -18 0
-63 100 -156 345 -73 191 -78 208 -101 375 -33 228 -149 748 -182 815 -71 141
-162 242 -258 286 -57 26 -173 26 -225 -1 -49 -25 -66 -48 -183 -245 -52 -88
-115 -183 -139 -210 -24 -28 -65 -77 -90 -110 -25 -33 -54 -67 -64 -76 -51
-45 -259 -134 -506 -218 -147 -50 -284 -99 -305 -110 -21 -10 -109 -68 -195
-128 -86 -59 -226 -146 -310 -193 -134 -75 -235 -138 -412 -260 -26 -18 -98
-51 -160 -72 -131 -46 -156 -61 -156 -91 1 -41 54 -87 101 -87 36 0 367 177
484 260 61 43 142 97 180 120 39 24 128 85 198 138 88 65 158 107 225 137 200
88 394 156 529 186 229 52 276 70 383 150 159 119 210 177 341 384 43 68 67
117 74 155 13 62 46 93 113 105 74 12 81 4 170 -199 77 -174 83 -193 102 -319
11 -73 54 -284 94 -468 63 -284 84 -362 143 -524 39 -104 73 -197 77 -205 5
-12 -19 -22 -121 -51 -71 -20 -346 -99 -613 -174 -267 -76 -564 -160 -660
-187 -202 -56 -296 -90 -342 -123 -18 -13 -51 -34 -73 -46 -22 -12 -75 -58
-117 -104 -49 -52 -103 -97 -148 -124 -38 -23 -78 -53 -87 -67 -12 -18 -18
-64 -25 -172 -10 -173 -55 -781 -67 -900 -5 -46 -12 -86 -16 -90 -22 -22 -316
356 -498 641 -59 93 -217 349 -351 570 -385 637 -392 648 -611 936 -114 150
-237 324 -274 385 -37 61 -155 246 -261 411 -106 165 -231 364 -277 443 l-84
143 428 437 c236 240 503 514 594 608 l164 172 133 224 c128 218 133 228 157
334 29 130 51 448 34 506 -5 20 -24 58 -42 84 -51 77 -142 97 -169 38 -12 -27
1 -63 42 -114 39 -48 41 -119 9 -275 -26 -128 -109 -398 -143 -464 -8 -15 -99
-119 -203 -232 -103 -113 -294 -322 -423 -464 -265 -294 -659 -697 -672 -689
-21 13 -58 109 -79 204 -20 95 -21 120 -15 284 7 175 6 180 -20 265 l-27 86
-112 110 c-164 161 -192 178 -350 209 -72 15 -182 44 -245 66 -128 44 -176 49
-211 21 -20 -16 -22 -23 -14 -47 13 -36 28 -44 296 -148 119 -46 242 -98 275
-114 72 -36 171 -136 209 -211 26 -53 27 -60 35 -300 8 -228 23 -367 48 -432
6 -14 27 -51 46 -82 20 -31 36 -60 36 -66 0 -5 -32 -47 -70 -93 -49 -57 -89
-120 -130 -203 l-60 -120 -11 -219 c-12 -235 -7 -295 33 -389 28 -65 76 -105
316 -264 114 -75 222 -155 246 -181 373 -403 394 -429 550 -684 159 -260 604
-961 758 -1195 75 -114 128 -179 278 -339 203 -217 402 -405 487 -462 63 -42
62 -13 8 -259 -48 -217 -197 -624 -334 -913 -124 -260 -91 -230 -341 -325
-195 -75 -234 -81 -480 -66 -298 18 -312 23 -730 274 -326 195 -344 207 -650
450 -173 137 -372 303 -442 368 -165 155 -379 416 -661 806 -293 405 -414 603
-602 988 -123 252 -205 399 -432 780 -154 259 -293 495 -309 525 -45 84 -93
130 -137 130 -30 0 -42 -7 -76 -46 -61 -69 -65 -97 -52 -319 14 -232 21 -305
32 -305 4 0 23 28 42 63 31 57 35 71 41 171 3 60 9 112 12 115 8 8 68 -63 101
-119 15 -25 87 -139 161 -255 155 -241 174 -275 422 -755 184 -356 307 -572
500 -880 190 -304 216 -338 679 -898 47 -56 510 -463 671 -589 123 -96 391
-290 540 -391 133 -89 569 -264 741 -297 174 -33 549 -12 733 40 99 29 138 48
233 119 55 40 68 57 109 138 26 51 88 190 139 309 75 173 109 272 178 510 48
161 93 335 102 384 9 50 18 95 20 102 2 7 107 -47 262 -134 390 -219 636 -337
803 -382 167 -46 529 -91 725 -91 45 0 144 11 220 26 126 23 144 29 207 69 38
25 124 76 191 113 325 182 398 234 755 540 293 252 355 310 462 434 68 79 131
152 141 162 17 18 19 18 81 -31 63 -50 342 -239 726 -492 122 -81 201 -139
198 -146 -6 -16 -112 -166 -190 -270 -33 -44 -105 -127 -160 -185 -236 -250
-935 -1041 -1023 -1158 -78 -103 -123 -194 -123 -245 0 -89 79 -144 330 -226
223 -74 345 -97 438 -84 81 12 102 24 102 60 0 20 -10 29 -57 49 -74 32 -124
57 -193 96 -50 29 -64 32 -165 36 -73 3 -118 9 -133 19 -26 16 -63 89 -55 109
2 7 48 50 101 96 53 45 149 133 212 193 112 107 354 313 475 406 100 76 144
120 241 240 83 104 415 544 472 626 l22 32 93 -62 c72 -49 126 -74 242 -116
83 -30 290 -110 460 -178 313 -126 429 -163 565 -182 253 -36 372 -41 947 -41
542 0 586 1 701 21 68 12 125 19 126 17 2 -1 31 -51 65 -110 34 -59 109 -179
166 -267 l106 -160 -16 -59 c-8 -33 -22 -77 -31 -98 -9 -21 -130 -377 -270
-790 -191 -568 -274 -800 -340 -950 -211 -484 -359 -788 -423 -868 -20 -25
-142 -172 -273 -328 -130 -156 -290 -348 -355 -428 -160 -196 -394 -395 -561
-479 -213 -106 -678 -271 -787 -279 -116 -7 -903 40 -1285 79 -256 25 -295 31
-625 94 -225 42 -393 84 -855 210 -316 86 -604 167 -640 180 -122 43 -595 232
-700 280 -288 130 -624 262 -905 355 -170 56 -429 148 -575 203 -146 55 -380
139 -520 187 -480 166 -792 280 -870 320 -65 33 -983 559 -1057 606 -677 426
-652 412 -1333 728 -247 115 -360 175 -595 315 -413 246 -661 421 -1190 835
-176 138 -390 298 -475 356 -85 59 -292 204 -460 324 -210 150 -389 268 -575
379 -148 89 -423 255 -610 370 -506 312 -524 320 -805 382 -63 13 -166 38
-228 54 l-113 30 -85 -37 -84 -36 37 -23 c21 -13 86 -48 144 -78 95 -48 120
-57 248 -80 79 -14 171 -37 205 -52 163 -68 604 -301 724 -382 48 -32 382
-244 742 -471 360 -226 674 -426 697 -443 23 -18 146 -118 275 -223 583 -476
927 -750 1002 -799 135 -88 488 -290 731 -420 127 -67 399 -213 605 -322 373
-200 893 -504 1143 -672 268 -178 625 -396 742 -452 151 -72 553 -231 750
-298 83 -27 314 -102 515 -166 321 -103 495 -168 1455 -544 600 -236 1149
-447 1220 -469 380 -119 1165 -333 1330 -362 61 -11 252 -49 425 -84 l315 -65
410 -31 c563 -42 654 -48 700 -43 163 17 694 101 779 124 22 6 175 102 350
220 l311 209 409 495 c225 273 410 494 412 492 5 -5 -300 -983 -386 -1237 -44
-129 -83 -261 -86 -293 l-7 -57 41 -39 c42 -41 87 -57 122 -46 41 13 79 124
219 651 98 368 125 453 200 631 44 104 101 286 224 709 241 832 285 990 302
1104 17 111 147 440 225 570 22 36 78 110 126 165 182 211 223 302 232 518 2
70 7 127 10 127 2 0 46 -22 96 -49 132 -71 298 -92 439 -55 90 23 127 45 193
116 58 62 60 67 107 218 27 90 94 368 156 658 60 277 111 505 113 507 2 1 107
58 233 125 293 157 274 144 472 311 511 433 579 495 852 789 261 280 275 298
722 890 302 401 562 759 769 1060 410 595 731 1058 795 1145 70 96 124 186
255 425 62 113 143 248 180 300 103 146 117 171 130 231 27 124 -3 143 -230
143 -102 0 -191 -5 -260 -17 -437 -73 -980 -172 -2607 -473 -1024 -189 -1865
-344 -1867 -344 -3 0 15 40 40 89 63 125 229 765 244 941 14 167 12 279 -6
370 -9 45 -15 82 -13 83 2 1 29 14 60 29 51 24 60 34 97 100 55 101 62 108
197 194 l120 76 125 -5 c229 -11 407 -53 563 -135 52 -27 146 -93 230 -160
239 -192 334 -253 526 -336 147 -64 201 -99 310 -201 133 -125 221 -194 337
-265 147 -90 202 -104 404 -104 199 1 280 15 505 88 159 52 164 54 311 156
245 170 375 270 454 350 132 133 631 754 695 865 42 72 215 586 341 1014 54
182 54 186 79 465 21 225 25 334 24 546 l-2 265 37 18 c22 11 68 21 115 24
l78 6 209 169 c438 355 432 349 570 558 67 102 131 205 143 230 30 66 136 344
194 510 50 140 51 149 51 250 -1 147 -48 358 -131 580 -39 107 -135 258 -266
423 -158 199 -204 235 -462 365 -210 106 -304 142 -398 152 -91 11 -192 11
-222 1z m-7361 -5883 c-117 -157 -260 -369 -293 -436 -12 -23 -49 -138 -82
-255 -34 -116 -68 -225 -76 -240 l-14 -28 -165 158 c-90 87 -237 233 -325 326
-88 92 -199 197 -245 234 l-84 67 85 17 c147 30 208 54 342 135 92 56 154 75
388 124 181 37 199 39 382 39 l193 1 -106 -142z m-1368 -480 c24 -22 79 -91
121 -152 110 -160 135 -191 232 -292 48 -50 127 -137 176 -194 50 -58 132
-148 183 -201 l92 -96 -22 -49 c-22 -47 -23 -60 -23 -317 l0 -267 -890 -296
c-489 -162 -1115 -373 -1390 -468 -275 -95 -510 -176 -522 -180 -19 -6 -26 0
-47 42 -25 49 -109 134 -178 180 -32 21 -46 24 -93 20 -30 -3 -55 -4 -55 -3 0
1 134 382 298 847 l298 844 48 45 c27 24 54 47 62 52 7 4 60 -2 116 -14 132
-27 222 -23 293 13 28 14 94 58 149 97 116 84 425 331 445 354 11 14 32 17
108 17 67 0 123 7 191 24 131 33 132 33 255 35 l107 1 46 -42z m7714 -814 c0
-15 -442 -711 -735 -1159 -403 -615 -733 -1063 -1333 -1812 l-440 -548 -353
-351 c-301 -298 -541 -519 -824 -760 -50 -43 -213 -140 -220 -132 -1 2 26 127
62 278 169 722 296 1285 319 1414 14 77 52 285 85 461 32 176 59 337 59 357 0
44 -33 88 -86 113 -21 10 -105 28 -189 41 -466 72 -835 148 -1038 216 -134 44
-191 71 -289 135 -62 41 -68 48 -87 105 -30 90 -28 98 35 153 31 26 72 73 92
104 19 31 50 71 69 89 28 28 33 40 33 78 0 60 -23 113 -67 150 -49 41 -38 54
46 54 52 0 220 35 717 151 558 129 1079 240 2894 615 892 184 1090 226 1145
238 66 16 105 19 105 10z m-16069 -1469 c278 -449 325 -519 563 -835 297 -394
269 -351 622 -951 367 -624 491 -822 608 -974 170 -221 212 -269 265 -300 28
-16 51 -32 51 -36 0 -7 -6 -36 -35 -167 -5 -20 -8 -21 -28 -11 -34 18 -192
176 -378 376 -202 218 -381 455 -579 763 -79 124 -189 293 -244 375 -55 83
-163 249 -241 370 -177 276 -398 567 -497 655 -185 165 -265 227 -461 355 -83
54 -89 60 -123 132 -24 48 -40 102 -47 147 -9 68 -8 76 36 226 24 85 48 171
52 190 8 38 43 111 82 173 23 36 26 38 37 21 7 -11 149 -239 317 -509z m9189
114 c16 -21 30 -41 30 -44 0 -3 -22 -28 -48 -54 -37 -37 -59 -73 -97 -161 -69
-160 -166 -279 -394 -482 -243 -216 -380 -329 -453 -372 -70 -41 -197 -135
-483 -356 -164 -127 -220 -164 -413 -269 l-223 -122 -28 23 c-16 13 -93 77
-171 143 -128 109 -149 131 -220 237 -73 109 -82 128 -139 300 -74 226 -145
488 -134 499 14 13 1607 518 2108 668 39 12 165 32 280 46 211 24 294 38 324
55 13 7 17 1 23 -32 4 -23 21 -59 38 -79z m-3210 -254 c65 -48 156 -142 147
-151 -5 -6 -322 -114 -333 -114 -8 0 103 317 112 320 0 0 34 -25 74 -55z
m3908 -567 c25 -27 58 -56 75 -64 58 -31 284 -13 339 26 l26 19 11 -62 c23
-135 85 -555 186 -1267 l105 -745 35 -565 c19 -311 35 -570 35 -576 0 -7 -46
-21 -107 -32 -89 -17 -110 -19 -118 -8 -5 8 -50 87 -100 176 -88 159 -94 167
-237 314 l-146 152 -194 83 c-106 46 -222 99 -258 118 -80 42 -321 156 -585
278 -295 135 -705 337 -705 346 0 5 87 118 193 251 106 134 218 277 249 318
63 84 305 383 792 979 l330 405 15 -48 c9 -29 34 -69 59 -98z m-3650 6 c19
-147 139 -496 206 -594 46 -68 154 -189 335 -373 90 -92 162 -169 160 -171
-34 -32 -276 -176 -396 -238 -197 -100 -289 -153 -296 -172 -3 -7 -50 -50
-104 -94 -138 -113 -164 -139 -218 -209 -39 -51 -51 -61 -65 -53 -18 10 -410
413 -478 492 -37 43 -146 211 -159 243 -4 12 379 1015 407 1064 5 10 116 51
292 108 156 50 288 92 293 92 6 1 16 -41 23 -95z m4827 26 c61 -18 135 -34
165 -36 79 -6 151 -21 270 -60 236 -75 255 -78 565 -76 154 1 307 -2 340 -6
103 -12 105 29 -35 -650 -127 -613 -414 -1901 -427 -1913 -13 -12 -564 -300
-640 -335 -40 -18 -104 -42 -143 -53 l-70 -19 0 226 c0 125 -9 502 -20 837
l-19 610 -75 738 c-42 405 -76 748 -76 762 0 21 3 23 28 16 15 -5 77 -23 137
-41z m-5688 -278 c-18 -49 -84 -231 -147 -405 -63 -174 -119 -315 -124 -314
-5 2 -58 93 -118 202 -169 309 -213 394 -206 400 5 5 603 202 620 204 4 1 -7
-39 -25 -87z m-591 -522 c92 -173 182 -341 199 -372 l30 -57 -159 -313 c-151
-296 -167 -324 -305 -512 -119 -162 -167 -219 -261 -306 -183 -171 -188 -174
-337 -249 -133 -66 -150 -72 -265 -90 -190 -30 -254 -34 -378 -21 -154 15
-285 44 -378 85 -348 150 -500 228 -631 321 -2 2 6 58 18 126 13 80 28 248 41
478 23 407 22 400 56 500 25 74 27 77 92 117 37 23 96 66 130 97 79 68 111 83
209 101 43 7 229 54 413 104 184 49 540 139 790 200 250 61 475 116 500 124
40 13 46 13 56 -2 6 -9 87 -158 180 -331z m3514 -72 c-278 -461 -327 -538
-418 -663 -36 -49 -67 -92 -69 -94 -2 -3 -67 39 -146 91 -145 99 -354 275
-340 289 5 5 88 51 186 104 126 68 260 152 455 289 492 342 567 394 571 390 2
-1 -106 -184 -239 -406z m-1014 -610 c156 -148 216 -191 344 -243 l88 -37
-292 -437 c-330 -492 -349 -520 -357 -521 -20 -1 -989 633 -989 648 0 4 42 54
91 112 50 58 111 135 135 172 50 78 53 79 374 222 107 48 251 116 320 151 69
35 130 64 136 65 7 0 74 -59 150 -132z m-2077 -28 c86 -120 81 -115 354 -347
119 -101 217 -188 217 -192 0 -17 -295 -350 -443 -500 -124 -126 -195 -188
-305 -267 -79 -57 -180 -135 -225 -172 -138 -115 -197 -157 -332 -234 -149
-85 -167 -91 -359 -124 -109 -18 -178 -24 -305 -24 l-165 0 -118 41 c-65 22
-187 57 -271 78 l-152 38 -350 188 c-347 187 -525 294 -525 318 0 6 7 56 17
109 l16 98 133 -70 c73 -39 186 -91 251 -116 65 -25 173 -67 239 -94 67 -27
175 -64 240 -82 116 -32 124 -33 299 -31 153 1 200 5 310 28 174 36 179 38
388 155 181 102 183 103 325 244 137 135 150 151 296 376 91 140 201 325 271
458 64 122 118 222 120 222 2 0 35 -45 74 -100z m3951 -957 c588 -266 607
-276 744 -391 l118 -100 104 -202 c57 -112 103 -204 102 -205 -12 -9 -208 -29
-483 -50 -255 -19 -405 -25 -658 -25 l-327 0 -193 50 c-339 87 -379 102 -747
270 -195 89 -374 171 -398 182 l-43 19 18 25 c10 13 180 226 378 472 l360 449
330 -165 c181 -90 494 -239 695 -329z m2706 -640 c-10 -32 -64 -284 -101 -466
-46 -229 -64 -282 -174 -512 l-90 -190 -123 -6 c-92 -5 -138 -3 -183 8 -69 16
-169 77 -162 97 49 127 51 143 56 440 l6 289 125 43 c90 30 196 80 380 177
140 75 259 136 263 136 5 1 6 -7 3 -16z m-1146 -505 c0 -24 3 -74 5 -113 l6
-70 -50 95 c-28 52 -50 100 -50 107 -1 13 20 20 62 22 25 1 27 -2 27 -41z"/>
</g>
</svg>
