<?xml version="1.0" standalone="no"?>
<!DOCTYPE svg PUBLIC "-//W3C//DTD SVG 20010904//EN"
 "http://www.w3.org/TR/2001/REC-SVG-20010904/DTD/svg10.dtd">
<svg version="1.0" xmlns="http://www.w3.org/2000/svg"
 width="556.000000pt" height="509.000000pt" viewBox="0 0 556.000000 509.000000"
 preserveAspectRatio="xMidYMid meet">
<metadata>
Created by potrace 1.16, written by Peter Selinger 2001-2019
</metadata>
<g transform="translate(0.000000,509.000000) scale(0.100000,-0.100000)"
fill="#000000" stroke="none">
<path d="M1256 5040 c-32 -28 -72 -58 -88 -66 -58 -30 -215 -38 -503 -25 -404
17 -564 12 -633 -21 -38 -18 -38 -44 -2 -160 31 -98 32 -120 15 -190 -9 -35 7
-42 135 -57 60 -8 117 -22 159 -40 40 -17 102 -34 156 -41 206 -27 329 -79
442 -187 81 -77 91 -95 99 -196 3 -40 14 -124 25 -187 10 -63 27 -178 38 -255
32 -231 86 -367 176 -442 25 -21 118 -87 208 -148 182 -124 190 -134 167 -213
-27 -97 -26 -110 29 -214 l51 -96 -3 -104 -2 -103 64 -160 c162 -409 204 -527
266 -744 93 -328 95 -332 158 -372 38 -25 60 -49 82 -90 40 -76 49 -84 114
-120 39 -21 71 -50 106 -94 85 -110 107 -157 112 -238 6 -97 16 -118 85 -182
82 -76 163 -130 282 -185 235 -111 332 -128 481 -86 114 33 230 60 368 86 60
12 130 31 155 43 66 30 169 138 203 212 47 100 56 245 21 311 -25 48 -236 156
-305 157 -23 0 -73 -7 -112 -16 -38 -9 -104 -17 -146 -17 -66 0 -81 4 -120 29
-85 55 -120 114 -168 283 -44 159 -52 235 -35 343 36 232 39 308 18 463 -5 31
0 60 16 103 32 88 28 130 -25 281 -26 73 -62 178 -79 233 -54 167 -78 200
-201 283 -33 22 -87 69 -120 104 -48 51 -66 81 -92 149 -77 202 -76 202 -74
449 1 124 6 259 11 300 5 41 14 124 20 184 11 125 36 192 93 248 36 36 49 41
139 53 34 4 62 17 96 44 65 52 71 54 212 91 172 44 193 52 373 137 95 45 175
77 200 79 137 13 672 35 970 41 259 5 372 3 446 -7 149 -20 206 -1 217 71 5
31 1 41 -26 73 -37 41 -102 83 -152 96 -88 23 -333 35 -1703 80 -500 17 -1233
41 -1629 55 -395 14 -721 25 -725 25 -3 0 -32 -23 -65 -50z"/>
</g>
</svg>
