<?xml version="1.0" standalone="no"?>
<!DOCTYPE svg PUBLIC "-//W3C//DTD SVG 20010904//EN"
 "http://www.w3.org/TR/2001/REC-SVG-20010904/DTD/svg10.dtd">
<svg version="1.0" xmlns="http://www.w3.org/2000/svg"
 width="586.000000pt" height="970.000000pt" viewBox="0 0 586.000000 970.000000"
 preserveAspectRatio="xMidYMid meet">
<metadata>
Created by potrace 1.16, written by Peter Selinger 2001-2019
</metadata>
<g transform="translate(0.000000,970.000000) scale(0.100000,-0.100000)"
fill="#000000" stroke="none">
<path d="M126 9681 c-47 -5 -63 -12 -83 -35 -31 -37 -28 -82 8 -108 23 -18 30
-18 68 -7 52 16 309 -3 364 -26 22 -9 68 -15 115 -15 88 0 168 -23 208 -60 22
-22 28 -23 56 -12 29 11 36 9 77 -17 25 -16 61 -32 79 -36 19 -4 56 -27 83
-51 27 -24 62 -47 77 -50 58 -14 148 -63 170 -93 13 -17 32 -31 43 -31 12 0
37 -13 56 -30 18 -16 39 -30 45 -30 6 0 84 -74 174 -165 89 -91 167 -165 173
-165 17 0 81 -60 97 -92 8 -16 37 -53 63 -82 27 -30 54 -71 61 -92 7 -22 24
-59 37 -83 12 -24 23 -51 23 -61 0 -9 14 -29 30 -45 37 -35 40 -82 9 -140 -41
-79 -69 -178 -69 -245 0 -78 30 -181 65 -222 14 -17 25 -42 25 -59 0 -16 7
-46 15 -66 8 -19 15 -54 15 -78 0 -46 -9 -57 -72 -89 -37 -19 -73 -64 -97
-123 -7 -17 -21 -39 -32 -49 -10 -9 -24 -34 -29 -55 -16 -57 -71 -170 -87
-176 -7 -3 -44 4 -81 15 -37 11 -78 23 -92 26 -14 3 -43 10 -65 15 -22 6 -52
13 -67 16 -32 6 -58 49 -58 94 0 20 -13 44 -40 76 -32 38 -40 54 -40 87 0 22
-7 61 -15 87 -8 25 -21 75 -30 111 -9 36 -22 88 -30 115 -33 124 -37 143 -44
195 -4 30 -12 71 -18 90 -14 45 -32 114 -42 165 -5 22 -20 66 -35 98 -19 41
-26 74 -26 116 0 68 -14 86 -65 83 -29 -2 -40 6 -98 68 -36 39 -69 84 -72 100
-7 31 -99 177 -140 220 -32 35 -76 126 -69 144 3 9 -4 21 -20 31 -34 23 -73
12 -94 -25 -9 -16 -35 -39 -57 -51 -54 -31 -95 -61 -95 -71 0 -5 15 -6 33 -3
17 3 37 2 42 -2 6 -5 32 -42 59 -83 27 -41 64 -92 83 -113 18 -20 33 -42 33
-48 0 -6 44 -57 98 -113 89 -92 99 -106 112 -159 13 -55 12 -58 -10 -82 -21
-23 -22 -26 -8 -42 32 -36 68 -130 68 -175 0 -35 7 -54 30 -83 17 -21 30 -48
30 -60 0 -12 14 -39 30 -60 17 -21 30 -44 30 -52 0 -22 39 -132 66 -184 13
-27 24 -61 24 -76 0 -16 8 -40 17 -53 10 -15 18 -45 19 -73 1 -37 8 -58 37
-100 21 -30 37 -65 37 -79 0 -14 7 -42 15 -61 8 -20 15 -49 15 -65 0 -19 11
-39 34 -61 18 -18 39 -51 47 -74 7 -24 40 -72 74 -112 34 -38 69 -82 78 -97 9
-14 27 -30 39 -34 13 -3 38 -20 56 -35 19 -17 44 -29 60 -29 15 0 44 -11 64
-25 24 -16 51 -25 76 -25 42 0 92 -30 92 -56 0 -37 103 -213 164 -282 64 -71
66 -74 52 -100 -8 -15 -31 -43 -51 -62 -20 -19 -52 -65 -72 -103 -41 -77 -87
-122 -141 -136 -21 -6 -53 -27 -72 -47 -39 -40 -250 -184 -270 -184 -16 0
-122 -86 -134 -108 -27 -51 -99 -151 -126 -177 -37 -35 -60 -75 -60 -105 0
-30 -38 -139 -62 -180 -24 -39 -67 -183 -74 -245 -8 -70 -14 -84 -45 -116 -24
-24 -29 -37 -24 -58 8 -36 -9 -79 -47 -118 -30 -31 -30 -33 -14 -57 21 -32 20
-43 -4 -91 -13 -26 -20 -59 -20 -96 0 -31 -7 -73 -15 -92 -8 -20 -15 -48 -15
-63 0 -15 -11 -42 -25 -60 -39 -50 -65 -114 -65 -158 0 -28 -7 -48 -24 -65
-35 -39 -61 -114 -47 -139 18 -34 13 -48 -44 -119 -30 -37 -55 -72 -55 -77 0
-4 14 -24 31 -44 26 -29 30 -41 26 -69 -3 -18 -15 -47 -27 -63 -12 -17 -25
-42 -30 -58 -20 -64 -50 -136 -64 -151 -20 -22 -86 -162 -86 -181 0 -9 -13
-29 -30 -45 l-30 -29 -24 23 c-26 25 -56 23 -56 -3 0 -28 41 -41 128 -38 58 2
68 -1 100 -28 41 -34 104 -41 138 -15 19 15 19 15 0 30 -11 8 -27 15 -37 15
-9 0 -22 7 -29 14 -12 15 -4 39 61 181 10 22 23 67 29 100 17 92 30 125 69
185 20 30 47 76 59 102 27 55 42 59 70 21 17 -23 22 -25 36 -14 12 10 16 31
16 80 0 54 5 73 25 103 14 21 25 51 25 70 0 18 13 76 29 128 45 145 53 178 61
270 4 47 12 99 18 115 21 59 34 121 41 195 4 42 11 82 17 90 5 8 12 53 15 100
6 82 15 126 45 220 8 25 14 61 14 81 0 20 7 53 15 72 8 20 15 50 15 66 0 49
39 71 124 71 39 0 78 4 85 9 9 6 22 6 34 -1 15 -8 18 -16 12 -41 -4 -18 -10
-75 -14 -127 -7 -94 -18 -149 -48 -243 -14 -45 -14 -52 7 -118 29 -90 55 -127
106 -153 76 -38 74 -34 74 -179 0 -109 -3 -133 -17 -149 -17 -19 -17 -21 0
-50 21 -37 22 -77 2 -125 -8 -19 -15 -61 -15 -92 0 -32 -6 -64 -12 -73 -7 -8
-51 -40 -98 -71 -81 -52 -270 -232 -270 -257 0 -5 -15 -27 -34 -47 -45 -51
-56 -75 -56 -121 0 -21 -9 -65 -21 -98 -11 -32 -24 -80 -29 -106 -5 -25 -15
-57 -24 -70 -8 -13 -21 -58 -29 -101 -9 -49 -24 -92 -41 -115 -21 -30 -26 -50
-26 -95 0 -32 -7 -74 -15 -94 -8 -19 -15 -47 -15 -62 0 -18 -12 -37 -41 -62
l-42 -35 13 -50 c11 -42 10 -54 -4 -88 -9 -21 -16 -49 -16 -63 0 -33 -34 -96
-77 -144 -34 -38 -36 -42 -25 -73 17 -46 16 -56 -17 -154 -16 -48 -34 -112
-41 -142 -8 -33 -24 -68 -41 -88 -22 -25 -29 -43 -29 -76 0 -49 -35 -124 -82
-173 -25 -26 -29 -37 -23 -60 4 -15 8 -53 9 -83 1 -30 10 -68 19 -85 24 -42
21 -76 -9 -121 -15 -21 -54 -93 -87 -159 -33 -66 -73 -139 -89 -162 -15 -23
-28 -46 -28 -51 0 -25 -44 -110 -72 -139 -41 -43 -27 -63 44 -63 45 0 54 -4
82 -35 18 -19 42 -35 54 -35 23 0 29 14 12 25 -16 10 -12 48 11 90 11 22 32
69 46 105 45 117 74 195 83 221 4 14 17 44 29 65 11 22 32 64 46 94 36 76 72
143 85 158 17 19 40 -3 40 -37 0 -35 14 -54 36 -49 25 4 31 73 11 120 -13 30
-13 39 -1 67 8 19 14 59 14 91 0 46 5 65 27 96 21 30 28 56 33 114 3 41 11 85
18 97 7 12 12 47 12 78 0 30 7 72 15 92 8 19 15 48 15 63 0 16 12 42 27 61 24
28 28 45 35 123 12 153 23 209 51 270 22 48 27 73 27 138 0 47 6 93 15 115 8
19 15 53 15 74 0 21 5 50 11 66 7 15 15 48 19 73 4 25 12 59 18 75 14 40 32
110 41 164 10 53 43 86 104 101 23 6 62 17 87 25 43 14 46 14 63 -7 16 -20 18
-38 14 -177 -4 -148 -9 -184 -43 -291 -9 -29 -14 -89 -14 -166 0 -86 -4 -132
-15 -157 -22 -52 -22 -429 0 -480 11 -26 15 -73 15 -160 0 -111 3 -131 30
-207 16 -47 30 -100 30 -118 0 -36 58 -219 86 -273 9 -19 21 -47 25 -64 16
-62 36 -106 67 -144 17 -21 40 -62 51 -90 11 -30 47 -83 88 -130 80 -92 120
-143 153 -191 13 -19 43 -56 67 -82 l43 -47 0 -81 c0 -54 -5 -91 -16 -111 -29
-57 5 -93 52 -56 52 40 159 108 180 113 12 3 57 -6 100 -19 168 -53 188 -57
315 -57 114 0 132 3 220 33 52 18 112 44 133 56 l38 24 21 -21 c11 -12 41 -52
66 -88 26 -37 53 -71 62 -77 27 -17 65 0 80 34 11 27 10 39 -4 79 -37 105 -12
196 65 232 20 10 49 34 65 55 15 21 40 52 56 68 45 46 119 161 164 255 23 47
58 100 77 119 19 19 38 48 42 65 4 17 26 72 50 123 24 50 44 97 44 102 0 6 14
40 30 74 17 35 30 75 30 89 0 14 7 42 15 61 8 20 15 53 15 74 0 21 14 76 30
123 21 58 30 103 30 146 0 34 7 81 15 104 8 24 15 77 15 120 0 46 6 92 15 113
22 53 22 608 0 660 -10 25 -15 71 -15 145 0 96 2 111 20 127 17 16 25 17 59 7
21 -7 52 -12 68 -12 44 0 60 -25 67 -105 9 -93 9 -112 1 -165 -6 -40 -4 -50
18 -75 39 -47 53 -99 39 -138 -18 -49 -15 -72 18 -147 17 -38 30 -84 30 -103
0 -19 7 -54 15 -77 22 -63 19 -118 -10 -165 -16 -26 -24 -55 -25 -83 0 -39 3
-44 34 -57 30 -13 34 -18 39 -68 3 -30 13 -77 23 -105 16 -45 17 -56 5 -94
-26 -86 -25 -109 8 -158 17 -25 31 -55 31 -68 0 -12 7 -39 15 -59 20 -47 19
-68 -5 -131 -28 -72 -26 -92 12 -124 30 -24 33 -33 38 -95 6 -83 27 -96 61
-38 29 49 58 45 79 -12 9 -24 32 -58 53 -77 24 -22 37 -43 37 -59 0 -14 5 -38
11 -54 6 -15 14 -55 19 -88 5 -39 17 -74 34 -99 23 -35 26 -48 26 -127 0 -89
-11 -119 -44 -119 -8 0 -19 -6 -25 -14 -9 -11 -8 -18 5 -31 22 -21 59 -15 109
20 30 20 50 25 97 25 90 0 157 44 144 95 -8 33 -24 32 -55 -6 -49 -58 -91 -6
-91 111 0 61 -5 80 -35 140 -76 151 -118 324 -84 345 16 10 10 38 -18 78 -25
35 -26 41 -14 74 12 33 12 36 -18 67 -25 25 -31 41 -31 74 0 32 -7 49 -30 76
-27 30 -30 39 -24 75 5 33 3 46 -12 62 -15 16 -20 43 -24 122 -4 68 -14 125
-30 171 -19 58 -21 75 -12 99 9 25 8 36 -10 70 -11 23 -29 53 -39 67 -14 19
-20 48 -23 121 -3 79 -8 104 -30 145 -19 36 -26 64 -26 105 0 31 -7 73 -15 92
-8 20 -15 48 -15 62 0 14 -13 54 -30 88 -19 40 -30 80 -30 106 0 23 -5 51 -11
62 -6 11 -14 41 -19 67 -4 26 -20 79 -34 117 -16 43 -26 91 -26 125 0 52 -5
63 -66 155 -79 120 -109 155 -162 190 -22 15 -52 44 -66 65 -13 20 -45 54 -70
75 -45 37 -46 39 -46 95 0 32 -7 74 -15 93 -8 20 -15 55 -15 77 0 24 -11 62
-27 93 -18 35 -29 77 -34 127 -4 41 -10 87 -14 102 -6 23 -1 33 39 70 36 33
52 59 71 113 29 83 34 204 10 262 -11 26 -15 74 -15 176 0 108 -4 152 -17 185
-16 42 -16 45 1 58 13 9 25 10 43 3 13 -5 41 -9 61 -10 20 0 64 -11 97 -23 87
-32 108 -74 135 -281 6 -38 19 -94 31 -123 19 -47 20 -59 10 -93 -9 -31 -9
-45 4 -75 8 -20 15 -47 15 -61 0 -13 7 -40 15 -61 15 -33 14 -41 -1 -80 -21
-57 -14 -116 20 -151 25 -26 26 -32 26 -152 1 -89 5 -131 15 -149 10 -18 14
-60 15 -146 0 -121 0 -122 33 -170 44 -66 57 -98 57 -143 0 -44 19 -66 50 -56
17 5 23 0 36 -32 9 -20 29 -56 44 -78 15 -22 33 -59 39 -83 6 -23 16 -60 21
-82 6 -21 22 -52 35 -68 14 -16 37 -67 51 -112 30 -91 26 -113 -19 -118 -30
-4 -52 -26 -42 -43 4 -6 26 -19 48 -29 37 -17 44 -17 77 -4 19 8 49 28 65 43
17 16 41 32 55 36 61 18 100 45 100 70 0 22 -4 24 -37 22 -30 -2 -39 2 -49 23
-51 99 -80 167 -105 242 -15 47 -42 106 -58 130 -31 45 -49 97 -35 99 5 1 20
3 33 4 51 5 49 49 -6 107 -29 30 -37 46 -41 90 -4 39 -12 61 -33 86 -28 32
-29 36 -29 143 0 116 -11 166 -64 279 -21 45 -26 70 -26 140 0 67 -6 100 -26
155 -45 123 -54 159 -54 225 0 44 -7 80 -21 110 -34 74 -69 176 -69 201 0 13
-7 35 -15 49 -44 77 -105 222 -105 251 0 37 -66 166 -96 186 -15 10 -77 65
-138 123 -61 58 -142 126 -181 150 -38 24 -87 59 -107 77 -20 17 -54 37 -75
42 -53 15 -115 81 -159 171 -20 41 -47 90 -61 108 -37 50 -64 117 -56 140 5
11 23 37 41 58 18 22 48 59 65 84 26 36 44 48 86 62 29 10 58 22 65 27 6 5 39
18 73 29 35 12 82 34 106 51 24 16 56 33 70 36 14 4 47 31 74 61 26 30 84 94
128 143 76 84 126 148 152 195 22 41 73 163 73 177 0 8 14 34 30 58 18 26 30
57 30 76 0 18 9 44 21 59 20 26 36 61 85 195 12 35 30 71 40 82 9 10 20 39 25
65 6 31 20 59 44 85 37 41 38 45 35 96 -1 21 10 53 29 86 17 30 28 61 25 72
-4 15 11 34 56 73 66 58 73 78 35 92 -33 13 -32 31 6 59 27 20 30 27 24 60 -8
49 5 81 57 137 73 80 134 177 168 271 13 34 38 48 81 44 28 -2 54 21 46 42 -3
8 -32 24 -65 36 -45 16 -69 32 -92 61 -37 47 -64 51 -102 15 -24 -22 -26 -28
-17 -59 10 -38 4 -55 -47 -126 -14 -19 -31 -55 -37 -78 -6 -24 -26 -60 -43
-80 -46 -55 -114 -164 -114 -183 0 -42 -86 -99 -105 -69 -10 16 -52 12 -59 -6
-3 -9 -6 -47 -6 -85 0 -56 -4 -73 -20 -89 -11 -11 -27 -20 -35 -20 -34 0 -39
-74 -6 -95 20 -12 11 -46 -21 -87 -31 -38 -33 -46 -39 -141 -7 -120 -44 -237
-87 -276 -25 -23 -27 -31 -32 -130 -4 -91 -8 -111 -27 -135 -13 -16 -23 -36
-23 -46 0 -19 -109 -189 -135 -210 -13 -11 -23 -11 -49 -2 -54 20 -109 14
-177 -18 -35 -16 -82 -32 -105 -36 -39 -6 -42 -4 -64 30 -12 20 -26 65 -30 99
-19 144 -81 267 -174 350 -36 31 -67 66 -71 76 -3 11 3 45 15 77 11 32 20 72
20 88 0 24 12 42 59 86 84 79 107 132 80 182 -6 12 -15 49 -19 84 -7 52 -14
71 -43 105 -20 23 -43 57 -52 76 -17 34 -16 37 6 87 13 28 41 71 64 96 22 25
56 67 75 94 52 72 288 303 338 330 9 5 34 24 54 42 20 18 50 40 66 48 16 8 44
30 63 48 84 81 261 208 290 208 19 0 80 40 132 86 23 22 47 34 65 34 17 0 38
10 51 24 13 14 55 34 94 47 40 13 82 32 95 43 34 30 178 67 277 70 25 1 51 9
69 24 16 12 40 22 53 22 13 0 37 7 52 15 22 11 36 12 64 3 27 -8 43 -8 62 0
14 6 31 9 38 6 8 -3 26 0 42 6 23 9 35 8 61 -6 17 -9 39 -14 48 -11 16 7 56
64 56 82 0 6 -23 35 -51 64 l-51 53 -91 -12 c-51 -6 -96 -10 -102 -8 -5 1 -28
-2 -50 -9 -42 -12 -113 -29 -180 -45 -22 -5 -60 -11 -85 -14 -25 -3 -67 -11
-95 -19 -27 -8 -79 -21 -115 -31 -36 -9 -88 -32 -116 -50 -28 -17 -73 -40 -99
-48 -26 -9 -61 -28 -77 -41 -16 -14 -34 -25 -39 -25 -5 0 -29 -20 -53 -45 -30
-30 -53 -45 -70 -45 -15 0 -42 -14 -63 -33 -45 -39 -132 -77 -178 -77 -27 0
-44 -12 -101 -70 -38 -39 -80 -73 -94 -77 -30 -7 -60 -31 -60 -48 0 -7 -6 -15
-14 -18 -8 -3 -33 -30 -56 -59 -23 -29 -54 -60 -70 -68 -15 -8 -47 -32 -71
-52 -24 -21 -64 -52 -88 -70 -25 -19 -48 -47 -55 -66 -10 -30 -204 -222 -224
-222 -25 0 -49 36 -71 108 -25 79 -28 82 -128 175 -116 109 -120 112 -264 161
-137 47 -233 50 -286 10 -18 -14 -56 -32 -85 -40 -87 -26 -203 -154 -282 -311
-14 -28 -30 -55 -36 -58 -26 -16 -170 171 -170 220 0 6 -12 22 -26 36 -15 13
-37 40 -49 59 -13 19 -61 74 -107 121 -62 63 -91 102 -107 142 -22 55 -27 59
-169 153 -81 53 -163 114 -183 135 -27 28 -45 39 -66 39 -19 0 -39 10 -58 30
-20 21 -38 30 -61 30 -17 0 -43 9 -57 20 -14 11 -35 20 -48 20 -12 0 -43 13
-68 29 -25 16 -107 59 -182 96 -109 53 -150 67 -210 75 -129 17 -175 28 -227
54 -49 25 -57 26 -214 25 -90 -1 -189 -5 -222 -8z"/>
</g>
</svg>
