<?xml version="1.0" standalone="no"?>
<!DOCTYPE svg PUBLIC "-//W3C//DTD SVG 20010904//EN"
 "http://www.w3.org/TR/2001/REC-SVG-20010904/DTD/svg10.dtd">
<svg version="1.0" xmlns="http://www.w3.org/2000/svg"
 width="1536.000000pt" height="744.000000pt" viewBox="0 0 1536.000000 744.000000"
 preserveAspectRatio="xMidYMid meet">
<metadata>
Created by potrace 1.16, written by Peter Selinger 2001-2019
</metadata>
<g transform="translate(0.000000,744.000000) scale(0.100000,-0.100000)"
fill="#000000" stroke="none">
<path d="M970 7423 c-25 -8 -58 -24 -73 -35 -31 -22 -91 -134 -131 -246 -38
-105 -75 -181 -94 -191 -9 -5 -42 -12 -72 -16 -116 -14 -207 -56 -294 -136
-44 -40 -59 -64 -93 -146 -94 -227 -133 -386 -133 -539 0 -57 -5 -124 -12
-149 -19 -70 3 -105 94 -151 62 -31 94 -58 215 -182 79 -81 143 -155 143 -164
0 -10 -11 -24 -24 -33 -19 -13 -39 -14 -132 -6 -60 6 -132 15 -161 21 -42 9
-64 8 -115 -5 -35 -9 -70 -22 -78 -31 -13 -13 -13 -18 0 -42 23 -40 73 -69
153 -87 87 -20 312 -31 422 -20 74 7 82 10 116 44 30 30 37 45 43 95 8 76 18
92 59 100 41 8 62 30 72 74 7 36 50 92 69 92 21 0 42 -32 61 -90 35 -109 108
-228 186 -302 55 -51 59 -73 34 -149 -9 -30 -17 -131 -25 -319 -6 -151 -13
-289 -16 -307 -5 -25 -2 -33 16 -43 61 -33 101 27 110 165 9 150 27 153 70 13
17 -57 36 -117 41 -135 6 -18 22 -49 36 -70 34 -49 35 -106 3 -234 -12 -53
-21 -103 -17 -111 3 -9 18 -19 33 -22 37 -10 52 8 100 124 l37 90 88 0 c95 0
127 -8 159 -40 27 -27 26 -76 -5 -245 l-25 -136 61 -69 c72 -81 132 -117 164
-97 29 19 82 129 104 217 18 71 20 75 47 75 21 0 36 -10 62 -44 41 -54 41 -55
-40 -219 -33 -68 -57 -126 -54 -129 3 -3 23 6 44 21 37 25 105 36 116 18 3 -5
-13 -37 -34 -73 -22 -35 -36 -65 -30 -67 14 -5 60 30 110 85 l45 47 70 -2
c122 -5 162 -30 134 -84 -26 -49 -104 -139 -153 -177 -76 -59 -102 -89 -89
-102 24 -24 159 56 284 166 27 25 59 45 70 45 27 0 115 -83 104 -99 -4 -7 -45
-31 -92 -52 -47 -22 -82 -43 -78 -49 9 -15 39 -12 103 10 89 32 142 41 149 23
14 -35 -141 -129 -308 -188 -150 -52 -148 -77 3 -45 126 27 263 76 368 130 74
39 80 41 107 27 55 -29 68 -53 67 -126 -1 -37 -11 -102 -23 -144 -23 -85 -26
-117 -11 -117 14 0 34 34 75 130 21 47 40 88 44 92 4 4 47 -26 96 -67 51 -43
98 -75 111 -75 12 0 38 7 58 15 20 9 42 13 49 9 31 -17 57 -49 57 -69 0 -12
-27 -79 -60 -148 -33 -70 -60 -129 -60 -132 0 -3 8 -5 18 -5 19 1 94 91 144
176 32 53 57 72 78 59 6 -4 22 -25 37 -48 14 -22 41 -55 59 -73 38 -35 38 -37
7 -222 -14 -89 -13 -116 6 -96 5 5 28 57 51 117 23 59 43 107 45 107 3 0 25
-13 50 -29 25 -16 66 -32 92 -36 26 -4 78 -25 117 -48 39 -22 118 -66 175 -96
58 -31 109 -63 115 -72 7 -13 3 -24 -17 -49 -31 -36 -35 -56 -9 -45 9 5 42 17
72 28 l55 20 46 -20 c49 -22 55 -34 83 -156 14 -61 36 -18 36 73 0 87 8 90 83
36 35 -25 70 -53 78 -62 9 -11 14 -59 16 -152 2 -75 7 -138 13 -140 10 -4 60
146 60 179 0 40 19 61 48 54 57 -14 68 -52 30 -100 -16 -20 -19 -32 -11 -43
18 -29 32 -24 88 29 l56 53 112 -59 c201 -104 197 -101 229 -174 37 -83 68
-123 113 -151 29 -18 38 -20 50 -10 21 17 20 21 -18 71 -23 30 -37 64 -46 108
-13 68 -10 82 17 63 9 -7 53 -30 97 -52 90 -46 105 -61 105 -104 0 -42 -9 -53
-55 -68 -21 -7 -40 -19 -43 -25 -5 -16 143 -18 182 -3 23 8 26 15 26 60 0 48
2 52 32 64 35 15 46 13 99 -20 19 -12 61 -27 92 -34 72 -15 82 -32 91 -159 11
-155 31 -158 42 -6 4 46 10 89 15 96 6 10 31 5 111 -20 57 -18 114 -36 128
-40 33 -10 46 -39 69 -153 47 -225 83 -184 44 49 -10 56 -14 105 -10 109 6 7
123 -40 141 -57 6 -5 12 -67 16 -138 3 -71 9 -133 13 -137 18 -18 28 20 33
127 3 63 7 120 10 127 2 7 32 -15 70 -53 37 -36 95 -83 128 -105 114 -74 104
-55 77 -156 -27 -103 -31 -135 -14 -141 15 -5 44 51 98 187 50 126 79 154 144
139 65 -14 134 -40 162 -59 34 -25 222 -100 248 -100 12 0 33 -11 47 -25 33
-34 38 -32 30 13 -4 26 -1 45 8 58 15 20 37 18 176 -21 30 -8 75 -15 100 -15
30 0 85 -15 153 -40 79 -30 120 -40 164 -40 59 0 59 0 91 -45 17 -25 36 -45
42 -45 14 0 14 1 -17 75 -30 72 -24 92 22 81 28 -7 105 -72 105 -89 0 -6 11
-20 24 -32 14 -11 49 -65 78 -120 48 -90 53 -97 56 -69 2 17 -6 54 -17 83 -25
62 -26 75 -6 94 12 13 20 13 59 -1 44 -16 44 -16 86 13 39 27 44 28 86 17 62
-17 102 -15 173 8 67 21 77 20 137 -21 52 -35 165 -63 269 -65 45 -1 99 -9
124 -18 24 -9 65 -16 92 -16 30 0 64 -8 86 -20 21 -11 43 -20 49 -20 17 0 54
-45 63 -76 l8 -29 22 43 c12 23 33 48 47 54 21 10 28 8 50 -13 14 -13 33 -36
42 -51 9 -15 22 -30 30 -33 11 -4 13 2 8 29 -4 20 -2 37 4 41 11 7 72 -4 193
-33 54 -13 72 -14 87 -4 28 17 58 15 88 -7 15 -10 47 -21 72 -24 25 -3 86 -11
135 -17 83 -11 200 -9 332 6 45 5 62 1 123 -27 42 -19 85 -48 106 -72 44 -48
122 -168 148 -225 18 -40 36 -55 36 -29 0 18 -56 191 -70 216 -15 29 0 47 49
62 33 10 43 8 90 -15 28 -15 93 -38 144 -51 243 -64 261 -73 302 -149 23 -43
15 -62 -32 -75 -21 -6 -99 -27 -173 -46 -166 -44 -191 -53 -169 -65 32 -18
389 34 450 66 38 19 49 43 49 106 0 45 -5 61 -31 96 -44 60 -37 75 39 86 58 8
65 7 119 -22 32 -16 105 -47 162 -67 181 -65 184 -66 226 -135 22 -36 40 -80
42 -104 5 -40 3 -43 -51 -89 -30 -27 -90 -64 -133 -84 -72 -33 -76 -37 -55
-46 29 -13 106 10 216 65 97 49 126 76 126 120 -1 71 -29 168 -69 234 -31 51
-38 70 -30 81 19 22 83 15 151 -17 34 -16 72 -30 84 -30 11 0 29 -6 39 -14 17
-12 17 -19 8 -78 -19 -114 -54 -226 -89 -284 -39 -65 -39 -64 -20 -64 22 0 53
49 101 162 62 148 95 217 106 224 6 3 36 -7 67 -23 71 -35 71 -45 1 -154 -52
-81 -113 -212 -107 -231 7 -20 135 130 177 208 23 43 50 87 59 97 20 22 36 19
147 -33 88 -40 125 -78 125 -128 0 -34 -50 -76 -114 -96 -62 -20 -73 -36 -23
-36 70 0 71 -25 3 -79 -41 -33 -92 -51 -143 -51 -34 0 -39 -5 -24 -29 7 -10
23 -12 72 -6 91 10 139 31 260 112 85 57 107 77 112 100 4 21 20 38 57 61 28
18 60 32 70 32 33 0 40 -59 15 -130 -8 -24 -13 -46 -9 -49 8 -8 44 38 44 56 0
8 14 57 32 110 26 76 40 101 71 130 42 38 74 39 109 5 17 -16 16 -23 -7 -137
-14 -66 -37 -148 -51 -183 -25 -60 -27 -81 -6 -68 6 3 31 38 57 77 55 84 180
235 200 242 7 3 18 0 23 -6 14 -18 23 -127 14 -162 -8 -27 -58 -76 -132 -128
-18 -13 -21 -20 -13 -28 9 -9 24 -4 61 20 27 17 59 31 71 31 20 0 22 -4 16
-30 -5 -23 -3 -30 8 -30 19 0 43 36 56 87 9 33 21 47 60 72 28 18 72 35 102
40 154 26 421 112 441 143 4 7 8 29 8 49 0 47 26 79 100 125 33 20 62 45 66
56 22 71 -86 250 -166 273 -30 9 -60 34 -60 50 0 20 -55 65 -91 75 -19 4 -58
11 -86 15 -33 4 -53 12 -53 20 0 12 9 17 105 50 80 28 113 53 148 112 29 49
39 58 102 85 87 38 100 49 136 120 37 72 33 83 -65 187 -41 44 -89 98 -107
121 -19 23 -63 63 -99 90 -36 27 -75 59 -85 71 -11 12 -56 49 -100 82 -44 33
-104 83 -134 109 -35 32 -98 70 -180 110 -69 34 -149 77 -176 95 -32 21 -82
40 -135 53 -127 30 -248 69 -316 101 -92 45 -285 89 -456 104 -48 5 -77 13
-100 30 -18 14 -42 31 -53 39 -21 15 -215 50 -340 61 -38 4 -97 17 -130 30
-80 30 -207 52 -390 65 -164 12 -178 14 -215 41 -30 21 -193 61 -349 84 -63
10 -151 31 -195 47 -123 45 -226 66 -401 82 -88 8 -172 19 -187 25 -15 6 -38
26 -50 46 -15 23 -35 38 -58 44 -48 13 -271 31 -383 31 -94 0 -115 6 -181 54
-24 17 -56 19 -324 26 -301 8 -330 11 -380 50 -20 16 -40 20 -102 20 -103 0
-312 17 -435 35 -92 13 -155 20 -437 45 -67 5 -108 14 -130 28 -18 11 -55 22
-83 25 -27 4 -106 15 -175 26 -69 10 -156 22 -195 26 -83 8 -170 29 -234 57
-54 23 -192 53 -318 68 -48 6 -97 17 -108 24 -81 53 -325 123 -467 135 -65 5
-104 13 -120 25 -109 80 -149 93 -377 126 -106 15 -142 25 -170 44 -72 49
-252 118 -375 143 -115 22 -159 39 -286 110 -30 17 -120 52 -200 79 -123 40
-149 53 -175 82 -50 57 -57 61 -186 118 -111 49 -176 71 -262 89 -16 3 -54 32
-89 66 -49 49 -84 71 -192 123 -72 35 -153 71 -181 81 -64 24 -70 29 -111 92
-42 65 -128 123 -298 199 -96 43 -129 63 -167 103 -56 58 -210 152 -338 205
-78 32 -96 44 -117 77 -33 53 -135 127 -276 198 -92 48 -130 74 -185 128 -53
53 -95 82 -188 131 -72 38 -140 83 -170 111 -78 75 -142 118 -198 136 -95 30
-109 38 -133 77 -20 31 -46 49 -147 99 -67 34 -157 88 -200 120 -98 74 -111
80 -222 115 -76 23 -96 34 -130 70 -57 61 -117 84 -254 98 -145 14 -143 11
-131 181 15 203 12 352 -6 386 -28 56 -115 74 -204 42z m103 -140 c14 -16 14
-26 2 -93 -8 -41 -21 -125 -29 -186 -16 -118 -35 -181 -60 -190 -8 -3 -49 13
-91 37 -67 38 -75 46 -75 73 0 29 44 117 128 256 73 121 93 137 125 103z m297
-2209 c6 -14 10 -56 10 -93 0 -67 -1 -69 -36 -96 -24 -18 -39 -24 -46 -17 -13
13 -5 127 12 172 7 19 14 41 16 48 6 21 34 13 44 -14z m216 -299 c15 -10 23
-30 28 -67 4 -29 18 -115 33 -191 24 -127 25 -139 10 -154 -15 -15 -17 -14
-27 11 -5 15 -10 32 -10 37 0 6 -18 42 -40 80 -23 38 -49 88 -58 111 -18 40
-18 44 -1 105 25 91 29 94 65 68z m439 -810 c0 -120 -31 -174 -84 -145 -47 24
-47 47 0 142 35 72 47 88 64 86 18 -3 20 -10 20 -83z m396 -147 c6 -66 -39
-138 -87 -138 -21 0 -17 33 5 47 10 7 27 32 36 57 16 43 44 62 46 34z m12463
-3074 c52 -8 61 -28 25 -60 -20 -18 -21 -18 -77 11 -92 49 -75 66 52 49z m240
-19 c27 -25 56 -82 56 -110 0 -22 -37 -55 -61 -55 -31 0 -139 70 -139 90 0 17
35 54 80 83 31 22 32 22 64 -8z m-315 -194 c26 -16 5 -75 -43 -119 -67 -62
-105 -65 -106 -9 0 25 -24 68 -49 89 -12 10 -21 25 -21 33 0 12 18 15 103 15
56 0 108 -4 116 -9z m-983 -22 c45 -17 59 -27 70 -55 20 -48 18 -68 -12 -103
-30 -37 -59 -40 -75 -8 -6 12 -34 53 -62 91 -48 65 -50 69 -32 82 26 19 45 18
111 -7z m1151 -94 c3 -9 -2 -22 -13 -31 -40 -30 -142 -84 -173 -90 -30 -6 -32
-5 -29 16 2 17 25 36 88 72 89 51 117 58 127 33z"/>
</g>
</svg>
