<?xml version="1.0" standalone="no"?>
<!DOCTYPE svg PUBLIC "-//W3C//DTD SVG 20010904//EN"
 "http://www.w3.org/TR/2001/REC-SVG-20010904/DTD/svg10.dtd">
<svg version="1.0" xmlns="http://www.w3.org/2000/svg"
 width="2245.000000pt" height="579.000000pt" viewBox="0 0 2245.000000 579.000000"
 preserveAspectRatio="xMidYMid meet">
<metadata>
Created by potrace 1.16, written by Peter Selinger 2001-2019
</metadata>
<g transform="translate(0.000000,579.000000) scale(0.100000,-0.100000)"
fill="#000000" stroke="none">
<path d="M21995 5773 c-185 -16 -470 -82 -680 -158 -280 -101 -516 -211 -1066
-498 -550 -286 -809 -406 -1089 -502 -268 -92 -485 -138 -737 -155 -87 -7
-444 -34 -793 -61 -1018 -78 -1220 -91 -1486 -93 -239 -1 -253 0 -274 19 -29
26 -22 83 18 139 16 23 54 77 86 120 31 43 54 81 52 83 -3 3 -53 26 -113 52
-417 180 -795 495 -1038 864 -21 31 -41 57 -44 57 -15 0 -161 -96 -226 -148
-196 -158 -434 -437 -655 -767 -102 -152 -106 -156 -230 -175 -194 -30 -1088
-22 -1670 15 -346 23 -360 26 -418 89 -60 65 -104 152 -206 408 -103 258 -130
316 -186 398 -20 30 -44 67 -54 83 -21 35 -50 35 -107 -1 -69 -45 -146 -135
-379 -447 -119 -159 -243 -318 -275 -353 -119 -128 -192 -143 -576 -119 -711
46 -1081 57 -2089 64 -847 6 -1990 -7 -2570 -27 -952 -35 -1937 -124 -2919
-266 -915 -132 -1851 -324 -2116 -435 -88 -36 -86 -30 -50 -169 30 -114 30
-120 7 -120 -29 0 -102 -53 -109 -79 -8 -31 12 -70 88 -170 172 -227 442 -466
744 -658 322 -204 577 -329 1610 -786 470 -208 457 -204 855 -261 1104 -158
4048 -379 5508 -412 l292 -7 6 -26 c130 -578 391 -1240 500 -1267 56 -14 115
37 185 161 76 132 155 330 205 511 33 121 38 279 10 384 -35 137 -122 270
-217 330 l-34 22 60 -6 c273 -26 393 -31 840 -31 318 0 543 5 640 13 398 34
686 73 1040 138 319 60 465 57 610 -10 109 -51 233 -139 924 -649 l643 -477
110 187 c424 719 711 1111 1060 1448 326 316 644 514 1023 640 320 106 1261
314 1744 387 130 19 156 20 240 10 192 -25 363 -102 700 -317 675 -430 1280
-746 1958 -1021 277 -113 690 -262 697 -253 1 2 -199 413 -445 912 -267 543
-460 947 -480 1005 -29 86 -33 109 -33 207 0 94 3 120 26 183 49 136 105 215
388 552 238 283 513 667 712 995 131 216 240 416 235 429 -3 8 -33 16 -74 19
-68 7 -303 7 -378 0z"/>
</g>
</svg>
