<?xml version="1.0" standalone="no"?>
<!DOCTYPE svg PUBLIC "-//W3C//DTD SVG 20010904//EN"
 "http://www.w3.org/TR/2001/REC-SVG-20010904/DTD/svg10.dtd">
<svg version="1.0" xmlns="http://www.w3.org/2000/svg"
 width="1536.000000pt" height="990.000000pt" viewBox="0 0 1536.000000 990.000000"
 preserveAspectRatio="xMidYMid meet">
<metadata>
Created by potrace 1.16, written by Peter Selinger 2001-2019
</metadata>
<g transform="translate(0.000000,990.000000) scale(0.100000,-0.100000)"
fill="#000000" stroke="none">
<path d="M9258 9894 c-9 -3 -44 -50 -78 -104 -102 -166 -272 -351 -400 -434
-157 -103 -431 -216 -524 -216 -63 0 -152 36 -201 82 -27 24 -63 77 -96 140
-94 179 -116 189 -379 186 l-165 -1 -180 48 c-220 59 -285 62 -420 22 -49 -15
-145 -38 -213 -51 -194 -38 -247 -68 -406 -229 -72 -73 -158 -150 -190 -172
-33 -21 -154 -81 -270 -132 -244 -109 -398 -188 -546 -282 -259 -164 -455
-261 -710 -352 -322 -113 -474 -194 -597 -315 -74 -72 -88 -93 -134 -190 -83
-178 -155 -264 -329 -393 -180 -133 -586 -348 -1060 -561 -769 -345 -820 -378
-871 -548 -16 -56 -34 -69 -224 -177 -236 -134 -289 -190 -347 -375 -34 -111
-32 -274 5 -385 35 -105 98 -209 199 -329 46 -54 96 -115 112 -137 l29 -39
-64 -63 c-74 -73 -120 -146 -157 -249 -24 -68 -26 -84 -26 -253 0 -207 14
-277 99 -491 26 -65 49 -135 52 -154 5 -40 29 -22 -252 -193 -224 -137 -332
-209 -414 -278 -140 -117 -230 -262 -291 -472 -29 -98 -82 -244 -173 -472
l-31 -80 -1 -200 0 -200 40 -75 c89 -168 258 -292 837 -613 408 -227 806 -425
1150 -573 341 -146 496 -177 698 -138 172 32 273 80 720 342 908 533 966 563
1464 762 308 123 470 180 510 180 28 0 48 -11 96 -53 93 -80 152 -128 213
-174 50 -38 58 -49 72 -100 29 -109 73 -182 165 -274 134 -133 204 -156 373
-125 296 56 489 143 851 385 220 147 277 178 395 214 l83 26 30 -22 c45 -33
106 -114 120 -158 9 -32 8 -52 -7 -115 -21 -89 -16 -245 10 -328 49 -160 180
-311 385 -446 99 -65 973 -503 1070 -536 40 -14 81 -19 150 -18 106 2 192 24
438 115 205 76 287 124 451 260 80 65 150 119 156 119 6 0 67 -32 136 -72 177
-102 318 -167 386 -178 76 -13 261 -12 343 0 83 13 233 87 355 175 50 35 148
119 218 186 l128 122 127 -12 c358 -32 502 -5 728 136 115 73 177 102 237 113
108 20 261 108 612 355 l160 112 145 11 c225 18 330 55 578 201 141 83 176 97
292 117 218 38 337 109 402 242 31 62 33 73 33 172 0 93 -3 112 -27 162 -36
78 -91 134 -214 219 -114 79 -171 139 -231 248 -76 134 -106 258 -162 656 -19
132 -43 228 -126 508 -68 231 -80 303 -80 507 0 165 3 194 24 270 33 115 89
254 211 515 254 549 276 651 169 800 -49 68 -93 85 -222 85 -140 0 -173 -11
-462 -160 -126 -65 -240 -121 -253 -125 -52 -15 -179 80 -313 235 -40 47 -118
132 -174 190 -160 168 -207 285 -154 388 23 45 24 54 23 257 -1 227 -8 284
-55 440 -39 127 -94 234 -211 415 -179 277 -265 381 -353 428 -46 25 -60 27
-165 27 -115 0 -115 0 -200 -42 -172 -84 -273 -154 -439 -301 -51 -46 -111
-95 -131 -108 -46 -30 -52 -28 -141 51 -80 71 -138 98 -219 103 -88 5 -149
-12 -424 -120 -127 -50 -319 -122 -426 -160 -107 -39 -213 -77 -235 -85 -22
-8 -70 -15 -107 -15 -173 0 -306 139 -331 348 -14 109 5 220 63 369 24 61 61
162 84 225 39 111 40 119 40 240 0 105 -4 141 -27 225 -34 125 -106 273 -188
390 -77 108 -398 436 -481 490 -56 36 -117 51 -160 39z"/>
</g>
</svg>
