<?xml version="1.0" standalone="no"?>
<!DOCTYPE svg PUBLIC "-//W3C//DTD SVG 20010904//EN"
 "http://www.w3.org/TR/2001/REC-SVG-20010904/DTD/svg10.dtd">
<svg version="1.0" xmlns="http://www.w3.org/2000/svg"
 width="1536.000000pt" height="1252.000000pt" viewBox="0 0 1536.000000 1252.000000"
 preserveAspectRatio="xMidYMid meet">
<metadata>
Created by potrace 1.16, written by Peter Selinger 2001-2019
</metadata>
<g transform="translate(0.000000,1252.000000) scale(0.100000,-0.100000)"
fill="#000000" stroke="none">
<path d="M13427 12510 c-253 -32 -503 -120 -716 -253 -68 -42 -576 -428 -7626
-5792 -4727 -3596 -4463 -3395 -4563 -3490 -443 -420 -624 -1080 -462 -1684
109 -406 383 -781 742 -1015 563 -367 1302 -366 1868 1 46 31 177 126 290 211
197 150 538 410 2320 1766 448 341 1002 762 1230 936 5666 4309 8247 6278
8311 6338 358 336 554 816 536 1307 -14 359 -116 659 -326 956 -252 355 -635
605 -1065 695 -135 28 -412 40 -539 24z m433 -225 c358 -58 679 -239 908 -510
178 -211 285 -426 344 -686 20 -90 23 -131 23 -309 0 -178 -3 -219 -23 -309
-69 -305 -214 -565 -433 -776 -65 -62 -1387 -1073 -4254 -3255 -2288 -1740
-4978 -3787 -5977 -4547 -999 -761 -1855 -1408 -1903 -1439 -232 -151 -462
-221 -755 -231 -245 -8 -409 20 -625 106 -398 160 -731 518 -870 934 -60 181
-70 249 -70 477 0 229 10 296 71 478 76 230 184 403 358 577 106 106 269 233
1326 1036 663 504 2780 2114 4705 3579 3691 2808 3946 3003 5674 4318 375 285
490 366 590 417 128 64 315 123 456 144 102 15 352 12 455 -4z"/>
<path d="M13449 12150 c-229 -36 -410 -118 -623 -280 -500 -380 -2504 -1904
-3866 -2939 -921 -701 -1681 -1279 -1688 -1286 -12 -10 4 -25 85 -83 167 -119
243 -254 243 -432 0 -277 -222 -500 -498 -500 -139 0 -244 39 -342 127 -73 65
-111 129 -151 251 -18 56 -36 101 -40 100 -3 -2 -1301 -988 -2885 -2193 -2096
-1594 -2902 -2213 -2964 -2275 -228 -227 -350 -524 -350 -853 0 -213 39 -379
132 -565 58 -114 294 -427 397 -525 380 -363 943 -441 1411 -196 69 36 222
146 550 396 763 581 1028 782 1187 903 83 63 234 178 335 254 101 77 1321
1006 2713 2065 1392 1059 2611 1986 2710 2061 99 75 295 224 435 331 140 108
1142 870 2225 1694 1084 824 2009 1529 2057 1567 304 241 468 578 468 961 0
215 -38 375 -133 562 -57 111 -247 372 -353 485 -166 176 -389 300 -639 356
-82 18 -335 27 -416 14z"/>
</g>
</svg>
