<?xml version="1.0" standalone="no"?>
<!DOCTYPE svg PUBLIC "-//W3C//DTD SVG 20010904//EN"
 "http://www.w3.org/TR/2001/REC-SVG-20010904/DTD/svg10.dtd">
<svg version="1.0" xmlns="http://www.w3.org/2000/svg"
 width="909.000000pt" height="1536.000000pt" viewBox="0 0 909.000000 1536.000000"
 preserveAspectRatio="xMidYMid meet">
<metadata>
Created by potrace 1.16, written by Peter Selinger 2001-2019
</metadata>
<g transform="translate(0.000000,1536.000000) scale(0.100000,-0.100000)"
fill="#000000" stroke="none">
<path d="M7810 15353 c-37 -7 -156 -64 -262 -125 -51 -30 -104 -60 -118 -67
-108 -53 -312 -247 -406 -386 -86 -127 -121 -190 -299 -535 -253 -492 -356
-675 -551 -987 -34 -54 -106 -170 -160 -258 -263 -431 -908 -1377 -924 -1358
-4 5 -19 42 -34 83 -44 125 -168 269 -222 258 -13 -2 -2 -18 44 -64 64 -65
122 -155 122 -190 0 -12 -6 -27 -14 -34 -12 -9 -19 -4 -37 32 -47 93 -200 208
-296 224 -28 4 -50 1 -74 -11 -56 -29 -129 -86 -129 -101 0 -8 -6 -14 -13 -14
-18 0 -91 -78 -111 -118 -10 -18 -22 -32 -28 -30 -5 2 -26 30 -46 62 l-36 58
29 55 c29 52 57 85 124 146 40 37 30 52 -18 28 -43 -23 -85 -60 -125 -113 -16
-21 -34 -38 -40 -38 -7 0 -69 80 -139 178 -69 97 -187 256 -262 352 -147 190
-457 598 -570 750 -38 52 -200 268 -359 480 -474 631 -611 797 -880 1065 -251
251 -403 376 -577 478 -204 120 -307 158 -423 156 -90 -1 -100 -18 -11 -18
104 -1 167 -19 287 -81 232 -118 401 -245 647 -484 111 -108 319 -337 452
-496 108 -129 604 -788 984 -1305 262 -357 467 -633 560 -750 103 -130 255
-364 255 -391 0 -15 -5 -44 -11 -64 l-11 -37 -68 -5 c-172 -13 -299 -136 -308
-302 -6 -90 11 -162 58 -261 48 -101 111 -163 196 -194 32 -12 78 -28 101 -37
64 -23 95 -51 91 -83 -2 -19 -9 -27 -28 -29 -51 -5 -69 -13 -99 -38 l-31 -26
0 -144 c0 -142 0 -145 -26 -171 l-26 -25 -146 6 c-221 11 -214 14 -549 -279
-59 -52 -106 -75 -120 -61 -4 4 5 44 19 89 l26 82 -9 260 c-4 143 -13 283 -19
310 -6 28 -10 77 -8 110 3 97 -110 534 -166 643 -33 65 -113 111 -255 148 -65
17 -198 18 -503 4 -227 -10 -308 -23 -406 -66 -35 -15 -83 -26 -135 -29 -205
-15 -380 -58 -612 -150 -293 -116 -539 -144 -977 -109 -74 6 -77 6 -102 -21
-14 -15 -26 -32 -26 -36 0 -4 63 -5 140 -2 l140 6 0 -29 0 -29 143 1 c209 2
352 14 439 35 85 21 124 24 133 9 7 -11 18 -8 125 41 265 119 520 203 566 185
10 -4 2 -28 -30 -98 -54 -115 -71 -186 -61 -263 9 -78 25 -58 32 41 3 44 9 81
14 84 4 3 19 25 33 50 l26 45 0 -42 c0 -52 14 -56 30 -9 15 46 66 116 85 116
14 0 14 -4 -1 -31 -13 -26 -13 -36 -4 -60 16 -37 24 -37 40 1 19 46 49 80 71
80 16 0 18 -5 13 -25 -8 -32 6 -32 37 1 29 31 76 57 89 49 6 -3 5 -16 -1 -32
-14 -38 -5 -38 38 0 26 23 48 34 71 35 36 1 37 -1 21 -30 -17 -33 -3 -32 44 2
49 35 94 39 89 8 -4 -27 8 -22 73 32 33 28 63 50 67 50 11 0 10 -18 -3 -42
-21 -38 2 -31 49 15 l48 48 12 -26 12 -26 45 37 c25 20 47 35 49 33 7 -9 29
-126 29 -156 0 -18 6 -35 14 -37 15 -6 18 -36 3 -36 -5 0 -10 -11 -10 -25 0
-24 -26 -102 -40 -118 -4 -4 -35 17 -69 48 -35 31 -65 54 -68 52 -2 -3 14 -41
36 -86 23 -45 41 -95 41 -113 0 -37 -53 -158 -69 -158 -10 0 -36 27 -94 95
-14 17 -28 27 -32 23 -4 -3 12 -52 34 -108 23 -56 41 -110 41 -120 0 -21 -55
-99 -75 -106 -8 -4 -44 15 -82 43 -38 28 -75 54 -83 59 -16 9 -11 1 57 -101
18 -27 33 -58 33 -68 0 -18 -2 -17 -35 3 l-35 22 0 -22 c0 -18 -3 -19 -22 -9
-59 30 -242 199 -377 347 -46 50 -88 92 -94 92 -15 0 -1 -64 27 -126 45 -98
156 -220 393 -432 54 -47 102 -102 139 -160 35 -52 103 -132 171 -201 l114
-113 -17 -44 c-24 -64 -15 -155 25 -240 64 -136 160 -244 219 -244 13 0 48
-12 79 -26 48 -23 64 -26 115 -20 77 8 248 65 363 121 64 31 114 65 174 119
46 42 91 76 101 76 21 0 82 64 169 178 36 45 68 82 72 82 18 0 42 -69 55 -155
8 -49 14 -166 14 -260 0 -133 3 -180 17 -217 l16 -46 -31 -49 c-18 -28 -43
-55 -56 -61 -42 -19 -97 -74 -120 -121 -27 -53 -144 -375 -204 -561 -55 -170
-124 -453 -157 -640 -15 -85 -30 -159 -34 -163 -15 -16 -39 8 -161 160 -236
295 -445 506 -1110 1119 -184 170 -352 323 -372 341 -44 37 -119 65 -126 45
-2 -7 -14 -12 -26 -12 -48 0 -143 -136 -169 -243 -48 -190 -51 -244 -54 -862
-2 -324 0 -648 5 -720 10 -147 12 -140 -98 -384 -29 -63 -78 -186 -111 -275
-32 -89 -74 -190 -92 -226 -117 -229 -146 -265 -421 -525 -86 -81 -156 -151
-156 -154 0 -4 11 -14 25 -21 25 -13 28 -11 107 74 73 78 83 86 109 81 24 -5
32 -1 61 38 18 25 45 52 59 61 15 9 40 32 55 51 16 20 56 66 89 103 36 40 80
105 110 162 26 52 60 106 75 120 36 33 44 50 81 166 17 54 39 115 49 134 52
99 184 432 198 501 l16 79 35 -33 34 -32 -26 49 -27 49 0 737 c0 406 3 745 6
754 4 12 11 13 24 6 31 -17 143 -160 250 -320 56 -85 115 -168 130 -185 14
-16 35 -43 45 -60 105 -168 626 -737 852 -930 83 -71 116 -85 281 -119 94 -19
107 -24 107 -42 0 -31 24 -54 56 -54 18 0 30 -6 34 -19 6 -19 -1 -150 -30
-585 -8 -121 -15 -340 -15 -487 l0 -268 -57 -11 c-117 -23 -186 -44 -553 -165
-206 -68 -512 -168 -680 -223 -417 -136 -739 -257 -766 -286 -12 -13 -31 -61
-44 -107 -31 -118 -25 -192 29 -334 24 -60 231 -492 461 -960 230 -467 484
-992 565 -1165 81 -173 155 -326 165 -340 9 -14 20 -34 24 -45 4 -10 19 -181
33 -380 19 -264 26 -443 27 -675 1 -310 1 -317 -28 -450 -36 -171 -78 -287
-127 -353 -22 -28 -39 -55 -39 -58 0 -11 -113 -161 -147 -194 -44 -45 -67 -93
-52 -111 20 -25 33 -15 71 54 58 107 95 152 122 152 19 0 27 8 36 35 7 20 28
57 48 83 20 26 50 81 68 123 18 42 42 95 53 117 12 23 21 54 21 71 0 52 39
257 60 319 20 56 20 70 11 199 -6 76 -17 289 -26 473 -8 184 -19 425 -24 535
-11 239 -17 258 -130 454 -112 195 -255 487 -491 1001 -79 173 -466 938 -500
990 -46 69 -46 70 -80 161 -18 50 -29 95 -26 106 8 24 19 30 181 92 211 80
272 94 1390 310 408 80 422 82 437 64 11 -13 33 -126 57 -293 39 -261 200
-706 354 -976 35 -61 88 -169 117 -240 65 -156 122 -275 180 -372 32 -55 45
-87 48 -126 l4 -52 -88 -79 c-186 -165 -434 -422 -434 -449 0 -4 -9 -20 -21
-35 -12 -16 -19 -36 -17 -46 2 -13 12 -4 38 31 100 141 518 519 551 499 16
-11 99 -325 114 -435 3 -25 26 -104 50 -177 25 -72 45 -139 45 -147 0 -9 5
-16 10 -16 6 0 10 8 10 19 0 10 18 41 40 69 50 63 94 156 155 332 57 164 103
281 117 297 8 10 15 10 32 1 37 -20 305 -289 393 -395 47 -57 87 -103 90 -103
6 0 -28 54 -67 105 -17 22 -50 67 -74 100 -25 33 -98 119 -164 191 -147 162
-164 186 -160 221 3 26 6 28 48 26 181 -9 194 -9 244 16 59 29 179 140 242
224 63 84 109 186 207 457 205 567 238 688 292 1070 14 96 30 199 36 229 10
50 12 53 37 48 67 -13 1110 -279 1217 -311 162 -48 213 -66 330 -118 55 -25
110 -48 122 -52 12 -4 31 -18 42 -32 19 -24 19 -28 5 -76 -14 -46 -113 -271
-135 -308 -5 -8 -19 -36 -31 -63 -11 -26 -25 -47 -29 -47 -5 0 -9 -5 -9 -12 0
-7 -49 -123 -109 -258 -201 -451 -411 -931 -411 -936 0 -28 -244 -547 -355
-754 -49 -93 -55 -110 -50 -145 9 -62 9 -91 -3 -210 -12 -116 -20 -224 -52
-673 -11 -152 -25 -313 -31 -357 -11 -75 -10 -85 14 -162 15 -45 36 -147 47
-225 33 -225 58 -342 92 -426 17 -42 34 -79 37 -82 17 -12 110 -198 116 -232
8 -45 22 -49 31 -11 6 22 -5 52 -54 148 -114 222 -130 278 -152 515 -6 63 -18
158 -27 210 -20 117 -14 364 16 695 11 121 27 326 35 456 l15 237 36 70 c19
38 76 171 126 293 165 404 185 452 279 664 51 116 153 343 228 505 74 162 160
354 192 425 32 72 96 211 142 310 170 361 195 455 163 595 -25 111 -37 133
-86 158 -71 36 -578 248 -675 282 -49 17 -280 107 -514 200 -234 92 -455 179
-491 191 l-66 23 -7 350 c-8 392 -20 690 -38 905 -9 110 -8 151 1 176 6 18 9
39 5 48 -5 15 10 21 161 64 84 24 151 79 307 251 229 253 321 364 464 555 34
45 71 91 83 103 11 12 21 24 21 28 0 4 33 53 74 109 40 56 83 121 95 144 11
23 25 45 31 48 6 4 17 21 25 38 23 52 156 260 208 327 26 34 53 60 60 57 9 -3
13 -181 17 -743 5 -708 5 -740 -13 -771 -20 -36 -14 -43 14 -17 23 21 45 13
53 -21 4 -14 45 -106 92 -203 124 -256 181 -384 204 -461 11 -37 32 -81 46
-96 27 -29 124 -218 124 -241 0 -7 16 -21 36 -30 20 -10 54 -40 76 -68 22 -28
48 -55 57 -60 22 -13 37 -33 61 -83 11 -24 26 -43 33 -43 24 0 65 -53 106
-137 23 -46 43 -83 46 -83 4 0 57 22 64 27 2 1 -5 10 -16 20 -11 10 -76 104
-143 208 -68 105 -145 216 -172 248 -52 60 -164 267 -216 397 -41 102 -84 194
-186 399 l-86 173 0 92 c-1 50 -6 125 -11 166 -6 41 -14 327 -18 635 -8 504
-11 572 -30 685 -24 141 -59 227 -120 290 -36 38 -73 51 -86 30 -9 -15 -25
-12 -25 5 0 8 -4 15 -9 15 -20 0 -98 -74 -213 -200 -152 -168 -280 -301 -668
-695 -315 -320 -387 -400 -533 -593 -47 -62 -89 -114 -93 -115 -4 -1 -14 30
-21 68 -79 399 -138 617 -246 915 -78 216 -107 271 -184 352 l-65 67 38 62
c51 81 49 109 -11 229 l-48 95 6 154 c3 85 11 159 17 165 7 7 10 6 10 -2 0 -7
6 -12 13 -12 8 0 36 -33 62 -72 72 -107 234 -264 333 -325 96 -59 247 -112
410 -144 l112 -23 31 23 c17 13 59 29 94 36 90 19 136 46 226 132 110 105 123
128 129 237 l5 88 127 82 c71 44 181 125 247 180 71 58 156 118 212 148 241
129 358 235 394 356 10 34 -10 27 -79 -27 -89 -70 -253 -176 -331 -212 -68
-32 -155 -50 -155 -32 0 14 46 81 78 115 36 39 23 44 -37 14 -91 -47 -115 -33
-128 74 -5 42 -2 50 47 115 91 122 91 138 3 76 -33 -23 -65 -41 -71 -41 -15 0
-45 66 -37 80 3 5 1 11 -5 15 -5 3 -10 26 -10 51 0 36 7 55 38 97 51 70 74
107 66 107 -3 0 -33 -17 -65 -37 -72 -44 -77 -41 -108 60 l-21 69 30 68 c17
38 30 75 30 84 0 18 15 21 25 6 13 -20 24 -10 15 14 -8 23 3 46 22 46 4 0 22
-28 40 -62 l33 -63 3 48 c3 43 5 46 23 37 11 -6 36 -35 56 -65 20 -30 37 -55
39 -55 2 0 0 22 -3 48 -4 41 -2 50 12 56 23 9 65 -19 65 -43 0 -10 9 -29 20
-42 l19 -24 1 33 c0 17 5 32 10 32 6 0 10 -4 10 -10 0 -5 5 -10 11 -10 6 0 9
9 6 20 -3 11 -1 20 3 20 11 0 65 -78 82 -117 12 -28 13 -28 16 20 3 43 5 47
28 47 18 0 30 -9 42 -31 9 -17 25 -41 34 -53 17 -21 17 -20 18 26 0 47 0 48
26 36 29 -14 59 -66 69 -122 10 -50 25 -28 25 37 0 26 4 47 10 47 27 0 61 -27
74 -61 23 -56 36 -58 36 -3 0 38 2 44 14 35 25 -21 56 -109 72 -208 9 -54 20
-102 24 -107 14 -14 23 81 16 157 -4 39 -20 110 -36 158 -17 47 -30 89 -30 93
0 11 66 6 121 -10 60 -18 368 -164 457 -217 31 -19 73 -40 93 -46 82 -26 266
-195 391 -359 30 -38 46 -51 58 -47 37 12 149 -159 135 -207 -6 -22 -5 -21 19
5 14 15 26 34 26 41 0 18 -54 100 -118 178 -31 38 -73 91 -92 117 -19 26 -71
89 -115 140 -44 50 -84 100 -88 110 -10 21 -187 131 -332 207 -198 103 -376
165 -532 184 -53 7 -113 22 -153 40 -165 71 -549 140 -791 140 -164 0 -311
-56 -352 -135 -49 -94 -98 -215 -174 -425 -115 -317 -146 -420 -189 -623 l-35
-172 17 -158 c9 -87 15 -160 12 -162 -2 -3 -28 -2 -58 2 -45 5 -60 13 -101 52
-27 25 -72 62 -101 81 -28 19 -78 61 -111 93 -32 31 -63 57 -68 57 -6 0 -31
19 -57 43 -129 116 -175 131 -355 119 -60 -4 -112 -5 -117 -2 -18 11 -29 62
-45 196 -9 75 -22 149 -30 164 -19 37 -7 47 71 61 110 21 146 38 210 103 133
135 182 343 111 481 -31 62 -112 139 -173 165 -25 11 -77 23 -115 26 -38 4
-69 10 -69 13 0 8 -2 5 362 546 252 375 730 1127 865 1360 90 156 213 385 351
655 347 680 438 797 779 999 228 135 298 161 436 161 51 0 87 4 87 10 0 10
-159 12 -210 3z m-3570 -3686 c0 -10 -39 1 -57 15 -14 12 -17 41 -6 52 8 8 63
-51 63 -67z m808 -32 c19 -42 15 -55 -18 -55 -33 0 -37 11 -20 54 12 33 24 33
38 1z"/>
</g>
</svg>
