<?xml version="1.0" standalone="no"?>
<!DOCTYPE svg PUBLIC "-//W3C//DTD SVG 20010904//EN"
 "http://www.w3.org/TR/2001/REC-SVG-20010904/DTD/svg10.dtd">
<svg version="1.0" xmlns="http://www.w3.org/2000/svg"
 width="1536.000000pt" height="1521.000000pt" viewBox="0 0 1536.000000 1521.000000"
 preserveAspectRatio="xMidYMid meet">
<metadata>
Created by potrace 1.16, written by Peter Selinger 2001-2019
</metadata>
<g transform="translate(0.000000,1521.000000) scale(0.100000,-0.100000)"
fill="#000000" stroke="none">
<path d="M11205 15200 c-1580 -115 -3204 -861 -4610 -2119 -71 -64 -233 -218
-360 -342 -1988 -1947 -3838 -3765 -3944 -3874 -404 -420 -806 -931 -1123
-1430 -966 -1518 -1360 -3188 -1078 -4560 276 -1343 1176 -2327 2473 -2704
227 -67 486 -116 767 -148 114 -12 240 -17 480 -17 316 -1 439 7 700 40 1488
189 3071 981 4360 2179 107 100 3322 3248 3844 3765 631 625 966 1020 1355
1599 1056 1572 1496 3312 1201 4746 -285 1383 -1233 2386 -2587 2736 -355 91
-653 129 -1068 134 -159 2 -344 0 -410 -5z m644 -1662 c20 -15 112 -148 257
-372 124 -192 231 -361 239 -377 8 -15 15 -44 15 -64 0 -48 -165 -624 -188
-655 -10 -14 -153 -141 -318 -283 -314 -270 -338 -286 -403 -267 -36 10 -719
447 -763 488 -15 14 -32 39 -37 56 -7 21 -3 168 13 466 24 464 26 480 79 514
12 8 238 127 502 265 422 220 486 251 526 251 32 0 56 -7 78 -22z m1722 -121
c27 -18 107 -146 366 -582 183 -308 340 -579 349 -602 l16 -41 -151 -564 c-84
-309 -160 -574 -169 -588 -12 -16 -130 -82 -347 -192 -182 -92 -349 -175 -372
-184 -87 -34 -84 -36 -432 309 -173 173 -319 326 -327 344 -11 27 -14 142 -14
640 0 395 4 621 11 646 9 33 65 85 465 428 251 215 465 394 477 399 40 16 93
11 128 -13z m-5430 -2643 c351 -200 364 -208 383 -248 24 -51 24 -691 0 -742
-21 -45 -706 -560 -758 -569 -27 -5 -115 17 -413 105 -409 120 -423 127 -443
200 -5 19 -19 189 -31 378 -20 332 -20 343 -2 379 15 30 80 80 358 275 541
379 539 378 589 378 37 0 80 -22 317 -156z m5207 -348 c15 -8 37 -25 48 -38
35 -38 444 -1031 444 -1077 0 -29 -51 -158 -189 -481 -104 -243 -197 -452
-205 -465 -23 -35 -39 -42 -414 -181 -362 -135 -379 -139 -439 -96 -36 25
-582 1029 -590 1083 -8 52 288 899 327 937 19 19 135 62 480 178 250 84 468
153 483 153 15 1 40 -5 55 -13z m-3107 -1182 c28 -6 111 -83 467 -438 239
-237 440 -443 448 -458 17 -32 18 -91 3 -121 -7 -12 -172 -249 -368 -526 -222
-314 -367 -511 -386 -522 -66 -41 -84 -35 -514 181 -275 137 -403 207 -414
224 -20 30 -187 692 -187 741 0 20 6 48 14 63 26 48 829 842 861 851 39 12 37
12 76 5z m-3588 -505 c11 -7 176 -138 365 -292 354 -288 373 -306 372 -374 -1
-34 -336 -831 -365 -867 -11 -14 -270 -163 -590 -339 -682 -376 -665 -367
-711 -367 -48 0 -925 456 -966 502 -34 39 -44 95 -25 139 9 19 242 309 520
644 l506 610 393 177 c406 182 446 196 501 167z m5237 -381 c47 -33 555 -964
554 -1017 0 -22 -64 -199 -168 -466 -224 -574 -223 -572 -254 -594 -53 -37
-625 -274 -664 -274 -72 0 -94 24 -231 249 -335 545 -357 584 -357 625 0 36
244 796 292 911 18 43 49 71 313 282 411 329 378 306 434 306 33 0 58 -7 81
-22z m-8287 -152 c18 -7 39 -22 48 -32 9 -11 123 -222 253 -470 188 -360 236
-459 236 -490 0 -30 -64 -157 -336 -668 -185 -347 -343 -640 -351 -652 -17
-27 -72 -54 -108 -54 -30 0 -957 334 -989 356 -32 22 -56 67 -56 106 0 58 288
1564 305 1598 9 16 26 37 40 46 28 18 868 273 903 274 12 0 37 -6 55 -14z
m6407 -1116 c542 -281 540 -280 540 -366 0 -29 -64 -229 -209 -649 -115 -333
-217 -617 -225 -630 -33 -51 -53 -54 -438 -75 -542 -30 -535 -30 -578 54 -11
23 -86 286 -166 586 -133 497 -145 548 -135 582 7 23 113 161 297 387 156 193
286 351 287 351 1 0 20 7 42 14 22 8 51 12 65 9 14 -3 248 -121 520 -263z
m-1915 -122 c29 -15 534 -518 551 -550 37 -70 41 -61 -362 -801 -207 -381
-388 -704 -402 -720 -15 -15 -42 -32 -62 -37 -19 -5 -253 -28 -520 -51 l-485
-41 -41 22 c-23 12 -49 36 -58 53 -28 55 -228 878 -222 914 3 21 137 228 371
571 278 410 374 544 398 556 36 19 744 107 787 98 14 -2 34 -9 45 -14z m-3249
-904 c41 -19 34 -8 318 -525 175 -319 206 -383 206 -418 0 -64 -497 -1506
-530 -1539 -14 -13 -189 -112 -390 -218 -318 -169 -371 -194 -410 -194 -42 0
-69 16 -359 203 -340 218 -354 231 -352 310 0 23 56 432 125 908 94 663 128
872 141 893 25 37 1133 595 1183 595 19 1 49 -6 68 -15z m-2881 -83 c49 -23
709 -682 724 -724 6 -16 11 -45 11 -66 0 -42 -1 -44 -200 -316 l-125 -170 -5
-422 -5 -422 -29 -30 c-17 -17 -44 -35 -61 -40 -19 -5 -202 0 -466 14 -484 24
-486 24 -521 95 -12 25 -40 236 -98 729 -45 382 -82 714 -82 738 0 24 8 55 16
69 16 24 675 524 726 551 34 18 68 16 115 -6z m6654 -1847 c22 -9 46 -26 54
-38 33 -50 476 -903 482 -928 16 -64 -3 -89 -339 -426 -176 -178 -332 -329
-346 -337 -21 -11 -242 -61 -938 -211 -77 -17 -124 -14 -160 12 -23 16 -142
190 -410 599 -141 215 -144 221 -139 265 4 34 48 126 176 364 171 320 196 359
235 373 51 17 1303 341 1323 342 13 0 40 -6 62 -15z m-3899 -1526 c40 -21 59
-48 247 -348 250 -398 247 -392 240 -444 -3 -28 -77 -178 -222 -454 -181 -341
-224 -416 -250 -432 -33 -20 -36 -21 -1409 -206 -104 -14 -203 -23 -222 -20
-18 4 -46 19 -61 35 -18 18 -89 165 -201 417 -193 436 -194 440 -140 515 70
98 673 876 702 907 17 18 44 37 61 41 16 5 296 10 620 10 l591 1 44 -22z"/>
</g>
</svg>
