<?xml version="1.0" standalone="no"?>
<!DOCTYPE svg PUBLIC "-//W3C//DTD SVG 20010904//EN"
 "http://www.w3.org/TR/2001/REC-SVG-20010904/DTD/svg10.dtd">
<svg version="1.0" xmlns="http://www.w3.org/2000/svg"
 width="1192.000000pt" height="1536.000000pt" viewBox="0 0 1192.000000 1536.000000"
 preserveAspectRatio="xMidYMid meet">
<metadata>
Created by potrace 1.16, written by Peter Selinger 2001-2019
</metadata>
<g transform="translate(0.000000,1536.000000) scale(0.100000,-0.100000)"
fill="#000000" stroke="none">
<path d="M5720 15284 c0 -111 -16 -199 -49 -269 l-28 -60 -32 105 c-18 58 -35
113 -38 123 -9 32 -28 12 -46 -52 l-19 -62 -27 17 c-14 10 -70 47 -124 82
-130 87 -142 76 -53 -51 108 -156 150 -269 131 -356 l-7 -31 -78 97 c-43 54
-91 107 -106 119 -35 25 -95 57 -99 52 -2 -2 16 -53 39 -113 84 -214 93 -308
37 -375 l-28 -34 -22 85 c-58 218 -65 239 -77 239 -13 0 -16 -5 -34 -87 -19
-82 -34 -67 -60 55 -12 59 -28 132 -35 162 l-12 55 -21 -35 c-12 -19 -32 -54
-44 -77 -13 -24 -25 -43 -28 -43 -3 0 -38 71 -77 157 -40 87 -77 159 -82 161
-7 2 -11 -45 -13 -130 l-3 -133 -77 100 c-42 56 -98 116 -124 135 l-47 34 6
-30 c3 -16 18 -81 33 -144 30 -128 38 -290 17 -325 -10 -16 -12 2 -13 102 l0
123 -37 -18 c-25 -12 -37 -14 -40 -5 -13 37 -130 198 -174 237 -46 41 -121 77
-134 64 -3 -3 6 -25 19 -49 42 -76 68 -169 64 -225 -4 -50 -35 -125 -54 -131
-5 -1 -58 72 -118 163 -60 90 -113 161 -117 157 -4 -4 1 -48 11 -98 11 -49 19
-99 20 -109 0 -18 -2 -17 -26 5 -14 13 -42 47 -62 74 -49 69 -92 114 -125 132
-16 8 -30 13 -32 11 -1 -2 1 -41 5 -88 3 -47 5 -87 4 -89 -2 -2 -36 17 -76 43
-93 57 -146 76 -217 76 l-56 0 68 -45 c96 -65 170 -145 212 -227 33 -67 42
-98 29 -98 -3 0 -47 29 -98 64 -50 35 -119 77 -153 95 -62 31 -159 58 -170 47
-3 -3 44 -57 105 -121 100 -105 180 -220 170 -244 -5 -14 -266 141 -325 194
-31 27 -69 69 -85 94 l-30 46 4 -76 c3 -67 9 -87 55 -182 29 -59 49 -107 46
-107 -4 0 -44 20 -90 45 -45 25 -85 45 -88 45 -15 0 1 -34 50 -105 81 -116 73
-136 -24 -61 -120 93 -225 231 -267 354 -10 28 -22 52 -26 52 -13 0 -30 -72
-29 -123 0 -29 10 -83 21 -122 11 -38 20 -71 20 -72 0 -11 -47 2 -97 27 -39
20 -86 57 -138 110 l-78 81 6 -61 c9 -105 68 -211 200 -360 41 -47 74 -86 73
-87 -2 -2 -36 8 -76 22 -40 14 -80 25 -87 25 -8 0 23 -48 68 -106 83 -107 92
-136 32 -108 -82 40 -148 121 -239 291 -27 51 -54 93 -61 93 -9 0 -13 -37 -15
-134 l-3 -134 -109 68 c-128 80 -189 102 -275 98 l-62 -3 52 -40 c68 -52 123
-122 149 -191 11 -31 19 -59 16 -61 -2 -2 -83 35 -180 84 -119 59 -179 84
-186 77 -7 -7 22 -44 90 -116 55 -58 100 -109 100 -113 0 -4 -33 -5 -73 -3
-88 6 -150 35 -231 109 -35 32 -61 48 -66 43 -6 -6 4 -44 24 -99 19 -50 33
-91 31 -93 -1 -2 -39 6 -83 17 -86 22 -112 25 -112 14 0 -5 52 -50 115 -102
96 -78 113 -96 105 -111 -13 -24 -32 -30 -91 -30 -61 0 -102 17 -202 82 -43
28 -80 48 -83 46 -3 -3 -2 -18 2 -34 7 -28 68 -93 174 -188 l55 -49 -40 -9
c-88 -20 -198 13 -325 98 -45 30 -84 54 -85 52 -1 -2 4 -24 12 -50 15 -51 96
-147 172 -203 22 -16 41 -38 41 -47 0 -10 -1 -18 -3 -18 -2 0 -66 11 -143 25
-191 34 -188 35 -130 -24 59 -60 127 -98 226 -127 l75 -22 -41 -11 c-23 -6
-124 -16 -225 -22 -184 -10 -276 -25 -346 -55 l-38 -16 140 -37 c95 -25 140
-42 140 -51 0 -9 -25 -21 -65 -32 -138 -40 -167 -50 -217 -84 -29 -19 -53 -38
-53 -43 0 -5 57 -11 128 -12 118 -4 130 -6 174 -32 27 -15 48 -32 48 -37 0 -6
-69 -9 -177 -8 -183 3 -256 -8 -307 -45 -17 -12 -7 -16 95 -36 201 -40 209
-42 209 -57 0 -8 -2 -14 -5 -14 -8 0 -438 -90 -457 -96 -10 -3 -18 -11 -18
-18 0 -9 32 -20 93 -31 50 -10 97 -20 104 -24 6 -3 -69 -40 -168 -81 -98 -41
-179 -80 -179 -87 0 -7 32 -14 88 -18 134 -10 134 -10 56 -63 -89 -59 -156
-127 -188 -190 -14 -28 -26 -56 -26 -61 0 -6 33 14 73 42 41 29 97 63 126 76
62 26 205 64 225 59 8 -2 -50 -46 -129 -98 -80 -52 -145 -99 -145 -104 0 -5
26 -6 57 -2 146 17 176 19 170 10 -3 -6 -92 -64 -198 -129 l-192 -120 116 -5
116 -5 -100 -115 c-86 -99 -168 -225 -155 -237 2 -2 54 21 116 52 118 59 160
78 160 70 0 -2 -36 -46 -80 -97 -95 -110 -141 -176 -164 -239 -32 -86 -19 -85
92 7 57 46 107 84 112 84 4 0 12 -6 18 -13 8 -10 -12 -74 -82 -253 -51 -131
-92 -240 -91 -242 1 -1 63 33 137 77 74 43 144 84 155 89 18 10 18 4 -10 -116
-39 -172 -42 -290 -8 -349 14 -24 28 -43 31 -43 3 0 14 33 24 74 22 94 74 202
122 256 37 40 122 106 129 98 2 -1 -25 -89 -60 -194 -91 -271 -99 -349 -49
-446 19 -36 26 -30 49 42 10 30 29 78 42 105 25 50 89 125 106 125 12 0 4
-125 -18 -260 -16 -104 -14 -176 7 -230 9 -23 13 -19 55 64 24 48 46 86 49 83
3 -2 16 -57 29 -121 32 -148 54 -212 96 -273 l34 -48 5 140 c5 125 9 146 33
199 15 33 31 55 36 50 4 -5 23 -47 41 -94 37 -96 72 -158 139 -245 25 -32 51
-66 57 -74 6 -8 16 -11 21 -8 7 4 -1 48 -23 124 -40 137 -64 258 -64 317 0 46
17 116 28 116 4 0 45 -86 91 -191 100 -224 114 -236 119 -96 1 48 4 87 6 87 1
0 37 -33 78 -73 45 -44 103 -87 144 -109 67 -36 160 -66 170 -55 3 2 -42 61
-99 129 -107 128 -144 189 -154 253 -6 36 -5 37 18 30 104 -33 235 -63 242
-56 6 6 -25 43 -75 93 -59 58 -95 104 -120 153 -36 70 -72 184 -66 211 2 10
31 -3 97 -46 51 -34 95 -59 98 -57 2 3 -14 49 -35 103 -22 55 -47 123 -56 153
-17 56 -20 186 -6 231 6 22 13 13 57 -80 l50 -105 12 60 c31 152 77 272 132
338 30 37 101 81 120 75 4 -2 -23 -70 -61 -153 -53 -115 -66 -151 -55 -153 8
-2 54 20 101 48 55 34 89 49 95 43 7 -7 -11 -43 -51 -104 -111 -171 -154 -286
-148 -399 l3 -60 90 104 90 104 7 -103 c7 -117 28 -199 65 -264 32 -54 38 -45
47 66 3 45 13 101 22 125 27 79 77 179 85 171 4 -4 17 -46 29 -93 22 -82 34
-109 45 -99 2 3 16 45 30 94 15 49 41 117 58 150 32 61 170 215 182 204 3 -4
-10 -70 -30 -147 -36 -145 -41 -182 -26 -182 5 0 40 29 79 65 49 45 75 63 87
59 11 -5 14 -14 11 -33 -23 -113 -57 -326 -54 -339 6 -27 101 75 137 146 17
34 44 107 60 162 16 56 32 104 35 107 12 12 45 -65 51 -116 13 -120 16 -131
35 -131 15 0 31 37 85 200 44 133 71 200 81 200 14 0 15 -3 39 -119 15 -74 21
-89 29 -80 3 2 34 55 69 118 38 66 68 108 72 101 19 -30 17 -131 -5 -236 -12
-60 -20 -122 -18 -136 3 -25 10 -19 97 78 51 57 97 104 101 104 5 0 11 -28 15
-62 7 -66 -3 -139 -34 -251 -22 -79 -14 -79 63 3 54 58 91 133 110 227 8 36
19 70 24 75 13 13 115 -74 219 -187 116 -124 211 -305 257 -487 101 -395 45
-769 -282 -1918 -499 -1748 -673 -2657 -772 -4045 -45 -632 -48 -868 -24
-1632 15 -469 15 -518 0 -583 -39 -174 -114 -257 -323 -357 -464 -220 -533
-260 -654 -382 -198 -199 -185 -403 37 -562 224 -161 594 -288 1024 -353 1072
-162 1945 -220 2820 -186 569 22 1297 69 1550 101 297 37 687 124 910 205 169
60 342 168 410 254 99 125 76 264 -69 410 -76 77 -225 168 -471 287 -85 41
-177 86 -205 101 -190 98 -342 254 -448 459 -99 193 -353 849 -512 1328 -361
1084 -539 1974 -585 2930 -21 449 -8 800 61 1570 34 386 71 607 154 930 201
778 446 1208 842 1474 116 77 272 146 400 175 l62 14 6 -31 c3 -18 14 -79 23
-136 10 -58 22 -106 28 -108 6 -2 16 9 23 24 7 16 33 66 58 112 53 98 62 95
70 -29 7 -98 -17 -184 -81 -287 -48 -77 -44 -88 17 -57 48 25 87 60 163 148
79 91 74 94 100 -57 9 -54 20 -95 24 -90 4 4 24 59 46 122 43 130 102 231 134
231 25 0 25 -4 -5 -140 -38 -168 -34 -168 118 4 18 21 18 20 13 -48 -8 -105
-63 -210 -165 -318 -40 -43 -36 -45 48 -19 103 32 180 91 264 203 50 67 61 45
32 -67 -13 -50 -59 -138 -133 -252 -32 -50 17 -33 148 51 73 48 135 84 138 82
2 -3 -3 -29 -12 -58 -18 -64 -78 -160 -143 -229 l-46 -49 35 0 c97 0 200 60
262 154 20 31 39 56 41 56 14 0 35 -66 35 -107 0 -36 -10 -67 -40 -126 -22
-42 -40 -81 -40 -87 0 -5 33 6 73 25 39 18 73 30 75 25 2 -5 -11 -30 -28 -55
-31 -45 -97 -100 -194 -161 -25 -16 -46 -32 -46 -36 0 -5 45 -8 99 -8 66 0
102 -4 107 -12 9 -13 -62 -81 -173 -164 -72 -54 -93 -79 -93 -107 0 -12 31 -6
148 29 207 61 209 56 35 -125 -146 -153 -149 -161 -67 -161 55 0 134 25 226
71 43 22 78 37 78 34 0 -3 -9 -38 -20 -77 -11 -39 -18 -73 -16 -75 8 -8 81 29
120 61 23 19 70 73 106 120 36 47 68 86 73 86 28 1 -13 -189 -68 -307 -19 -42
-33 -83 -30 -91 3 -9 44 17 131 82 69 53 127 96 130 96 2 0 4 -26 5 -57 0 -32
4 -67 8 -78 7 -17 12 -13 45 30 20 28 54 86 76 130 38 77 90 237 90 276 0 41
17 16 29 -43 34 -171 43 -199 58 -196 34 7 114 260 134 421 19 156 31 145 88
-75 25 -98 48 -178 52 -178 9 0 33 63 50 130 14 57 18 232 9 399 -3 65 -1 95
6 98 7 2 47 -79 94 -189 108 -252 98 -235 117 -208 12 18 61 313 63 378 0 7
25 -8 56 -34 56 -45 179 -113 188 -103 3 2 -11 44 -30 92 -40 100 -86 271 -82
305 2 18 19 2 86 -88 46 -61 89 -110 95 -107 22 7 18 41 -23 262 -55 289 -56
288 110 140 67 -59 123 -106 125 -104 7 8 -23 154 -44 213 -27 75 -75 162
-145 259 -63 88 -57 94 39 48 58 -27 130 -94 212 -196 l32 -40 0 46 c1 64 -23
140 -75 236 -27 49 -40 84 -34 88 6 3 47 -16 93 -44 45 -27 84 -45 86 -40 2 6
-11 38 -27 72 -23 46 -60 91 -145 176 -64 63 -121 125 -128 138 -27 50 6 41
130 -33 68 -41 125 -74 126 -72 7 7 -37 116 -67 165 -18 30 -62 86 -98 125
l-65 71 35 -6 c122 -25 213 -113 318 -306 45 -83 52 -78 52 44 0 90 -29 171
-103 293 -31 51 -57 95 -57 98 0 2 20 4 45 4 82 0 205 35 205 59 0 5 -18 11
-41 15 -62 10 -152 60 -208 116 -73 73 -181 300 -143 300 6 0 62 -31 124 -69
62 -39 114 -69 115 -67 9 9 -34 114 -68 164 -49 75 -104 122 -236 201 -57 35
-103 66 -103 70 0 4 57 8 128 7 129 0 190 12 251 51 23 15 21 15 -56 41 -43
15 -98 39 -123 54 -55 33 -180 135 -180 148 0 5 32 19 70 31 47 16 70 28 70
38 0 11 -45 32 -150 70 -83 30 -150 58 -150 62 0 5 57 9 126 9 95 0 125 3 122
12 -3 7 -59 37 -126 67 -67 31 -122 58 -122 62 0 4 33 25 74 48 87 48 131 83
151 122 8 15 15 30 15 32 0 3 -37 -6 -82 -20 -46 -13 -118 -29 -161 -34 -79
-11 -207 -4 -207 11 0 4 36 29 80 55 128 75 123 84 -35 60 -66 -10 -141 -15
-173 -12 -53 4 -168 44 -158 54 2 2 73 28 157 57 84 30 155 58 157 64 3 9 -77
31 -235 63 -39 8 -63 18 -63 26 0 10 41 13 191 13 l190 0 -3 22 c-3 20 -20 28
-145 63 -78 22 -145 43 -148 46 -3 3 28 31 69 62 41 31 87 72 102 90 27 34 60
101 46 95 -4 -2 -45 -22 -92 -46 -116 -58 -218 -82 -344 -82 -56 0 -118 3
-139 7 l-38 6 113 59 c62 33 133 75 158 93 45 33 91 98 78 110 -3 4 -64 -13
-135 -38 -200 -69 -303 -90 -425 -85 -67 3 -113 9 -132 20 -16 8 -25 17 -20
20 9 5 78 26 162 48 43 11 57 35 25 44 -10 2 -91 12 -180 22 -90 10 -163 21
-163 24 0 14 83 62 139 81 30 11 96 22 146 25 49 3 105 7 124 10 l34 5 -34 24
c-48 32 -113 52 -194 59 -168 15 -176 17 -173 33 2 8 68 49 147 91 80 42 146
82 148 87 10 33 -14 33 -202 4 -201 -31 -245 -34 -245 -20 0 4 41 43 90 87 85
73 102 96 82 108 -5 3 -123 -26 -263 -63 -140 -38 -255 -67 -257 -66 -2 1 22
36 53 76 62 82 95 159 95 220 l0 40 -55 -64 c-102 -121 -224 -215 -315 -242
-23 -7 -23 -6 8 31 64 77 95 128 124 202 41 106 26 111 -68 23 -98 -91 -218
-171 -318 -211 -43 -17 -79 -30 -81 -28 -1 2 26 43 61 92 35 49 61 93 58 97
-6 10 -36 -4 -258 -110 -237 -115 -255 -100 -64 53 100 82 146 134 163 184 8
28 23 35 -175 -82 -80 -47 -147 -81 -149 -75 -2 6 14 45 34 86 30 62 57 95
139 175 55 54 96 98 90 98 -18 0 -147 -46 -189 -68 -61 -31 -191 -127 -277
-204 l-77 -69 11 38 c20 75 71 165 159 284 50 67 88 123 86 125 -9 9 -115 -32
-172 -67 -31 -18 -101 -76 -156 -127 l-99 -94 0 70 c0 110 -14 102 -120 -64
-50 -79 -96 -144 -102 -144 -10 0 -9 15 9 133 l6 39 -49 -25 c-101 -51 -120
-42 -63 29 42 54 112 104 246 176 63 35 131 77 151 95 32 27 35 32 19 38 -15
6 -245 -17 -317 -32 -18 -3 3 22 81 96 97 91 164 175 182 225 7 17 4 16 -25
-3 -146 -96 -324 -190 -390 -206 -22 -6 -28 -4 -28 9 0 9 54 84 120 166 66 83
120 153 120 155 0 12 -73 -12 -141 -46 -103 -51 -212 -142 -279 -230 -92 -124
-190 -211 -190 -171 0 5 23 49 50 98 57 100 93 206 88 256 l-3 33 -169 -165
c-187 -184 -190 -184 -77 20 32 58 66 128 76 155 17 50 33 185 22 185 -4 0
-23 -26 -43 -57 -74 -116 -198 -225 -331 -292 -34 -17 -65 -31 -68 -31 -9 0
-5 47 10 122 23 107 21 195 -5 252 -12 25 -26 48 -29 51 -4 2 -13 -30 -19 -71
-16 -100 -46 -166 -95 -211 l-41 -37 -36 80 c-43 93 -40 98 -75 -112 -27 -161
-57 -242 -115 -307 -17 -20 -35 -37 -39 -37 -4 0 -1 46 6 103 7 56 12 148 13
203 0 151 -13 148 -101 -29 -66 -130 -72 -140 -82 -117 -16 41 -10 217 11 328
11 56 16 102 11 102 -17 0 -80 -72 -103 -118 -13 -27 -39 -92 -56 -145 -18
-56 -37 -97 -44 -97 -11 0 -65 173 -102 323 -3 15 -9 27 -13 27 -3 0 -21 -26
-40 -56 -18 -31 -37 -52 -41 -47 -5 4 -18 46 -29 93 -25 99 -51 157 -86 190
l-25 23 0 -79z"/>
</g>
</svg>
