<?xml version="1.0" encoding="UTF-8" standalone="no"?>
<!-- Created with Inkscape (http://www.inkscape.org/) -->

<svg
   xmlns:svg="http://www.w3.org/2000/svg"
   xmlns="http://www.w3.org/2000/svg"
   version="1.2"
   width="471.51099"
   height="296.62"
   viewBox="0 0 471.511 296.62"
   id="svg2"
   xml:space="preserve"
   style="overflow:inherit"><defs
   id="defs78" />
<g
   id="Layer_8">
	<path
   d="m 316.073,150.27 c 8.399,12.667 16.066,24.383 23,35.15 0.033,0.033 0.083,0.05 0.149,0.05 0.3,0.101 0.533,0.101 0.7,0 l -0.05,0.2 h -0.4 c -0.133,-0.033 -0.217,-0.066 -0.25,-0.1 0.334,0.733 0.767,1.434 1.3,2.1 0.2,0.2 0.517,0.3 0.95,0.3 -0.2,0.101 -0.434,0.15 -0.7,0.15 0.567,0.9 1.101,1.733 1.601,2.5 0.267,0.033 0.434,0.1 0.5,0.2 h 0.05 c -0.134,0.033 -0.267,0.033 -0.4,0 1.7,2.566 3.301,5.083 4.801,7.55 0.267,0.533 0.583,1.05 0.949,1.55 0.134,0.033 0.267,0.084 0.4,0.15 l 0.05,0.149 c -0.1,0 -0.217,-0.033 -0.35,-0.1 0.8,1.2 1.517,2.333 2.149,3.4 0.101,0.066 0.233,0.116 0.4,0.149 0,0.066 -0.033,0.117 -0.1,0.15 0,-0.033 -0.017,-0.05 -0.051,-0.05 0.067,0.166 0.117,0.316 0.15,0.449 0.167,0.034 0.35,0.101 0.55,0.2 l -0.35,0.05 c 0.233,0.4 0.5,0.767 0.8,1.101 l 0.6,0.2 0.101,0.05 c -0.101,0.133 -0.283,0.2 -0.55,0.2 0.267,0.433 0.517,0.85 0.75,1.25 0.5,0.1 0.85,0.166 1.05,0.199 0.233,-0.033 0.316,0.017 0.25,0.15 v 0.05 l -0.45,0.15 c -0.2,0 -0.384,-0.017 -0.55,-0.05 0.2,0.466 0.467,0.949 0.8,1.449 0.2,0 0.434,0.034 0.7,0.101 0.267,0.033 0.684,0.166 1.25,0.399 -0.066,0.167 -0.15,0.233 -0.25,0.2 -0.601,-0.166 -1.084,-0.333 -1.45,-0.5 1,1.667 1.967,3.3 2.9,4.9 0.6,0.133 0.949,0.184 1.05,0.149 l 0.2,0.2 c -0.2,0.101 -0.384,0.15 -0.551,0.15 -0.066,0.033 -0.216,0.017 -0.449,-0.05 1.267,2.1 2.483,4.1 3.649,6 0.434,0.133 0.783,0.133 1.05,0 l 0.101,0.1 c -0.367,0.134 -0.667,0.233 -0.9,0.3 0.367,0.634 0.733,1.25 1.101,1.851 0.233,0.066 0.466,0.199 0.699,0.399 0.7,0.334 1.184,0.4 1.45,0.2 l 0.101,0.25 c -0.167,0.066 -0.384,0.134 -0.65,0.2 -0.4,0 -0.816,-0.134 -1.25,-0.4 0.333,0.634 0.7,1.233 1.1,1.8 0.101,0.067 0.267,0.134 0.5,0.2 0.934,0.267 1.45,0.533 1.551,0.8 0,0.067 -0.034,0.134 -0.101,0.2 -0.6,-0.267 -1.149,-0.517 -1.649,-0.75 0.566,1.101 1.149,2.117 1.75,3.05 0.3,0.167 0.55,0.317 0.75,0.45 l 0.05,0.15 c -0.2,-0.101 -0.417,-0.167 -0.65,-0.2 1.101,1.866 2.134,3.7 3.101,5.5 0.366,0.066 0.6,0.233 0.699,0.5 -0.233,-0.1 -0.416,-0.217 -0.55,-0.35 0.334,0.6 0.684,1.216 1.05,1.85 0,-0.033 0.017,-0.033 0.051,0 0.066,-0.033 0.25,-0.116 0.55,-0.25 -0.134,0.267 -0.3,0.417 -0.5,0.45 0.233,0.5 0.467,0.983 0.7,1.45 0.566,0.133 1.183,0.333 1.85,0.6 l 0.05,0.15 c -0.133,0.066 -0.267,0.116 -0.399,0.149 -0.233,-0.033 -0.601,-0.116 -1.101,-0.25 0.267,0.434 0.533,0.867 0.8,1.3 0.2,0.034 0.384,0.117 0.551,0.25 0.5,0.233 1.233,0.567 2.199,1 l -0.05,0.101 c -0.5,-0.033 -1.184,-0.25 -2.05,-0.65 -0.167,-0.033 -0.3,-0.116 -0.4,-0.25 0.167,0.367 0.334,0.65 0.5,0.851 0.534,0.166 1.284,0.433 2.25,0.8 -0.033,0.133 -0.149,0.2 -0.35,0.2 -0.201,0 -0.634,-0.084 -1.3,-0.25 -0.167,-0.067 -0.3,-0.101 -0.4,-0.101 0.4,0.7 0.8,1.467 1.2,2.3 h 0.05 c 0.5,0.334 0.867,0.384 1.101,0.15 l 0.1,0.15 0.15,0.3 -0.4,0.05 c -0.134,-0.033 -0.366,-0.083 -0.7,-0.15 0.233,0.467 0.483,0.95 0.75,1.45 0.267,0.101 0.634,0.25 1.101,0.45 l -0.2,-0.15 0.149,-0.1 0.301,0.15 v 0.05 l -0.4,0.25 c -0.134,0 -0.35,-0.066 -0.65,-0.2 0.167,0.366 0.334,0.7 0.5,1 0.334,0.066 0.551,0.134 0.65,0.2 l 0.2,0.1 -0.4,0.15 c -0.066,-0.033 -0.116,-0.084 -0.149,-0.15 0.133,0.367 0.3,0.75 0.5,1.15 0.233,0.066 0.466,0.133 0.699,0.2 l 0.45,0.05 0.101,-0.351 -0.051,0.551 -0.399,0.05 c -0.233,0.033 -0.417,0.017 -0.55,-0.05 0.199,0.466 0.399,0.899 0.6,1.3 0.233,0.1 0.517,0.149 0.85,0.149 0.767,0.434 1.25,0.7 1.45,0.801 l -0.05,0.1 c -0.366,-0.033 -1.05,-0.25 -2.05,-0.65 0.434,0.7 0.816,1.367 1.149,2 0.4,0.134 0.65,0.217 0.75,0.25 h 0.601 l -0.15,-0.149 0.15,-0.05 0.2,0.05 0.05,0.3 -0.601,0.1 c -0.133,0 -0.416,-0.083 -0.85,-0.25 0.233,0.5 0.45,0.934 0.65,1.301 l 1.6,0.399 0.1,0.101 c -0.566,-0.034 -1.083,-0.15 -1.55,-0.351 0.533,1.2 1.084,2.25 1.65,3.15 0.733,0.166 1.233,0.333 1.5,0.5 0.033,0.1 0,0.149 -0.101,0.149 -0.566,-0.133 -1,-0.233 -1.3,-0.3 0.5,0.967 1,1.917 1.5,2.851 h 0.601 l 0.1,0.199 -0.55,0.101 c 0.633,1.166 1.217,2.267 1.75,3.3 0.066,0.033 0.166,0.066 0.3,0.1 0.467,0.101 0.733,0.184 0.8,0.25 l -0.05,0.15 h -0.8 c 0.333,0.6 0.633,1.167 0.899,1.7 0.267,0.066 0.584,0.133 0.95,0.2 l 0.05,0.25 -0.55,0.05 c -0.1,-0.033 -0.184,-0.05 -0.25,-0.05 0.2,0.333 0.351,0.616 0.45,0.85 l 0.75,0.05 h 0.05 l 0.101,0.25 c -0.101,0.066 -0.2,0.101 -0.301,0.101 -0.166,-0.067 -0.3,-0.117 -0.399,-0.15 0.934,1.8 1.7,3.366 2.3,4.7 0.267,0 0.6,0.05 1,0.149 l -0.05,0.101 -0.601,0.05 -0.05,0.1 c 0.2,0.367 0.4,0.733 0.601,1.101 l 0.6,0.1 h 0.15 l -0.051,0.351 h -0.5 c 0.834,1.6 1.301,2.517 1.4,2.75 0.333,1.1 0.717,2.199 1.15,3.3 0.252,0.56 0.444,1.06 0.574,1.5 0.889,0.548 1.646,1.048 2.275,1.5 1.5,1 2.483,1.866 2.95,2.6 0.3,-0.066 0.434,-0.066 0.399,0 0.134,0.101 1.617,0.601 4.45,1.5 1.2,0.4 2.25,0.934 3.15,1.601 1.033,0 1.8,0.033 2.3,0.1 0.134,0 1.267,0.267 3.4,0.8 1.733,-0.133 2.949,-0.05 3.649,0.25 0.267,-0.2 0.4,-0.333 0.4,-0.399 l 0.149,-0.101 c 0,0.167 -0.116,0.384 -0.35,0.65 v 0.1 c 0.134,0 0.25,0.101 0.35,0.3 4.301,-0.267 6.267,-0.199 5.9,0.2 -0.3,0.367 -0.45,0.634 -0.45,0.8 0.033,-0.1 0.134,-0.149 0.3,-0.149 0.567,-0.233 1.017,-0.367 1.351,-0.4 h 0.05 c -0.066,0.002 -0.1,0.036 -0.1,0.101 0,0.066 0.066,0.083 0.199,0.05 0.101,0 0.233,0.1 0.4,0.3 v 0.05 c -0.1,0.134 -0.217,0.267 -0.35,0.4 -0.067,0 -0.101,-0.017 -0.101,-0.05 -0.066,0.033 -0.083,0.083 -0.05,0.149 -0.066,0.134 -0.1,0.3 -0.1,0.5 0.3,0.267 0.566,0.733 0.8,1.4 0.133,0.267 0,0.533 -0.4,0.8 -0.1,0.033 -0.116,0.066 -0.05,0.1 -0.4,0.067 -0.717,0.117 -0.95,0.15 -0.033,-0.033 -0.066,-0.116 -0.1,-0.25 0.5,-0.833 0.75,-1.267 0.75,-1.3 -0.134,-0.2 -0.367,-0.45 -0.7,-0.75 -0.167,-0.167 -0.283,-0.3 -0.35,-0.4 -0.134,0 -0.233,0.033 -0.301,0.101 -0.1,0.166 -0.116,0.383 -0.05,0.649 0.033,0 0.084,-0.033 0.15,-0.1 l -0.3,0.6 c -0.301,-0.033 -0.517,-0.166 -0.65,-0.399 l -0.45,-0.9 c 0.033,0.033 0.117,-0.05 0.25,-0.25 -0.967,0.6 -1.85,0.733 -2.649,0.4 -0.801,-0.267 -1.317,-0.434 -1.551,-0.5 -0.199,-0.067 -0.399,-0.101 -0.6,-0.101 l 0.1,0.351 c -0.267,0.433 -1.716,0.283 -4.35,-0.45 l -0.2,1.25 c 0.033,-0.8 -2.083,-1.566 -6.35,-2.3 -0.134,-0.067 -0.8,-0.25 -2,-0.551 -0.634,-0.133 -1.384,-0.35 -2.25,-0.649 l -0.2,-0.05 -0.15,-0.101 c -0.433,-0.166 -0.966,-0.416 -1.6,-0.75 -0.033,0.101 -0.116,0.101 -0.25,0 l -0.05,-0.1 c -0.434,-0.233 -1,-0.483 -1.7,-0.75 -0.9,-0.101 -1.55,-0.283 -1.95,-0.55 -0.233,-0.167 -0.566,-0.367 -1,-0.601 0,0.033 -0.05,0.084 -0.149,0.15 -0.034,-0.033 -0.084,-0.167 -0.15,-0.4 -0.434,-0.333 -1.066,-0.75 -1.9,-1.25 0.034,0.2 0.084,0.316 0.15,0.351 h -0.2 v -0.5 c -0.451,-0.319 -0.859,-0.604 -1.225,-0.851 h -0.5 c -0.019,-0.129 -0.044,-0.263 -0.075,-0.399 -0.048,-0.032 -0.098,-0.065 -0.15,-0.101 l 0.075,-0.2 c -0.283,-0.95 -0.774,-2.217 -1.475,-3.8 -0.367,-1.1 -0.55,-1.916 -0.55,-2.45 -22.467,-44.133 -48.65,-86.283 -78.551,-126.45 -1.864,-5.601 0.069,-6.267 5.803,-2 z m -60.45,73.85 -2.7,-25.45 c 0.1,-0.133 0.217,-0.267 0.35,-0.399 0.267,-0.267 0.5,-0.517 0.7,-0.75 l 0.75,0.5 c 1.634,-0.733 2.566,7.916 2.8,25.949 l 3.601,42.551 c 0.166,0.233 0.333,0.533 0.5,0.899 0.233,0.667 0.35,1.167 0.35,1.5 -0.033,0.267 -0.116,0.517 -0.25,0.75 -0.1,0.134 -0.233,0.267 -0.399,0.4 l 0.149,0.149 3.8,2.75 c 4.434,1.767 6.534,3.317 6.301,4.65 4.566,2.1 6.949,3.55 7.149,4.35 l -0.5,0.65 c 4.367,1.533 6.134,2.917 5.3,4.15 4.667,2.199 7.25,3.949 7.75,5.25 -1.833,0.233 -1.883,1.267 -0.149,3.1 -1.967,-1.033 -4.851,-3.333 -8.65,-6.9 h -0.149 c -0.301,0.2 -2.084,-1.199 -5.351,-4.199 l -0.45,0.699 c -1,-0.267 -3.133,-2.133 -6.399,-5.6 l -0.25,0.3 c -0.733,-0.1 -2.767,-1.767 -6.101,-5 -1.333,-1 -2.683,-1.983 -4.05,-2.95 -0.566,-0.1 -0.85,-1.05 -0.85,-2.85 l 0.1,-2.6 c 0.033,-0.334 0.117,-0.634 0.25,-0.9 l -3.602,-40.999 z"
   id="path5"
   style="fill-rule:evenodd" />
</g>
<g
   id="Layer_9">
	<path
   d="m 43.822,240.77 -0.2,-0.5 c 0.667,-0.801 1.3,-1.634 1.9,-2.5 2.3,-3.067 4.8,-5.884 7.5,-8.45 0.167,-0.8 0.3,-1.55 0.4,-2.25 0.8,-4 1.6,-7.95 2.4,-11.851 0.733,-3.1 1.5,-6.116 2.3,-9.05 0.933,-3.5 1.867,-7.017 2.8,-10.55 0.933,-3.967 2.067,-7.884 3.4,-11.75 l 1.85,0.95 0.2,0.7 c -0.633,2.966 -1.333,5.949 -2.1,8.949 -0.533,2.434 -1.033,4.817 -1.5,7.15 -0.434,2.366 -1.117,4.917 -2.05,7.65 -1,2.633 -1.566,5.233 -1.7,7.8 -0.167,2.399 -0.483,4.75 -0.95,7.05 -0.6,2.233 -1.75,4.167 -3.45,5.8 -0.034,0.467 -0.2,1.066 -0.5,1.8 -0.367,0.7 -1.333,1.967 -2.9,3.801 -1.566,1.966 -3.3,4.199 -5.2,6.699 h -0.75 c -1.233,2.434 -2.65,4.684 -4.25,6.75 l -0.85,-0.149 c -0.4,2 -1.033,3.983 -1.9,5.95 l -0.5,-0.15 c -0.133,0.167 -0.233,0.4 -0.3,0.7 0.034,3.133 -0.233,4.934 -0.8,5.399 0.3,1.367 1.05,2.851 2.25,4.45 l -1.4,-1.25 v 2.45 c 0.1,0.2 0.217,0.4 0.35,0.6 0.066,0.334 0,0.551 -0.2,0.65 -0.367,0.1 -0.817,-0.267 -1.35,-1.1 l -0.55,-1.25 c -0.267,-0.7 -0.4,-1.567 -0.4,-2.601 0,-0.566 0.033,-1.017 0.1,-1.35 -0.1,-0.4 -0.167,-0.8 -0.2,-1.2 -0.167,-0.5 -0.283,-0.733 -0.35,-0.7 -0.1,-0.434 -0.183,-0.934 -0.25,-1.5 -0.1,-0.934 0.033,-1.467 0.4,-1.6 0.067,0 0.117,0 0.15,0 0,-0.4 0.034,-0.733 0.1,-1 0.3,-2.934 1.417,-5.5 3.35,-7.7 0.234,-0.964 1.951,-3.247 5.15,-6.847 z"
   id="path8"
   style="fill-rule:evenodd" />
</g>
<g
   id="Layer_7">
	<path
   d="m 305.722,154.87 c -16.267,3.5 -30.467,5.333 -42.6,5.5 -29.5,4.667 -56.634,9.733 -81.4,15.2 -0.233,0.133 -0.45,0.316 -0.649,0.55 -1.467,1.133 -3.101,1.567 -4.9,1.3 -1.033,-0.2 -1.884,-0.9 -2.55,-2.1 -0.566,-1.034 -0.834,-1.784 -0.8,-2.25 0.366,-1.633 2.25,-2.517 5.649,-2.65 0.267,-0.033 0.55,-0.05 0.851,-0.05 18.8,-5.1 46.5,-10.8 83.1,-17.1 14.8,-1.7 29.767,-4.167 44.9,-7.4 10.133,-0.867 9.599,2.133 -1.601,9 z m -218.45,18.15 16.6,-9.85 c 0.033,-0.833 0.6,-1.35 1.7,-1.55 1.434,-0.3 2.317,-0.017 2.65,0.85 0.3,0.867 0.417,1.667 0.35,2.4 -0.2,1.367 -0.85,2.05 -1.95,2.05 -1.2,0.034 -2.317,0.417 -3.35,1.15 -1,0.7 -3.8,2.8 -8.4,6.3 l -28.3,12.95 -3,-2.601 c -1.633,-1.199 6.267,-5.099 23.7,-11.699 z m 169,23.75 -0.649,2.199 c -22.967,-2.433 -56.483,-8.066 -100.55,-16.899 0.033,-0.267 0.033,-0.483 0,-0.65 -0.433,-0.033 -1.083,-0.233 -1.95,-0.6 -0.833,-0.367 -2.35,-0.684 -4.55,-0.95 -2.1,-0.2 -3.267,-0.75 -3.5,-1.65 -0.033,-0.267 0.05,-0.75 0.25,-1.45 0.3,-0.933 0.883,-1.683 1.75,-2.25 0.467,-0.333 0.934,-0.55 1.4,-0.65 0.367,0.133 0.717,0.233 1.05,0.3 0.9,0.167 1.7,0.267 2.4,0.3 3.6,0.633 5.233,1.55 4.9,2.75 0.067,-0.067 0.15,-0.1 0.25,-0.1 35.733,4.4 68.8,10.95 99.199,19.65 z"
   id="path11"
   style="fill-rule:evenodd" />
</g>
<g
   id="Layer_6">
	<path
   d="m 158.772,122.62 c -0.466,3.367 -1.7,6.617 -3.7,9.75 l -2.6,-1.25 -2.65,-1.2 c -2.133,-0.267 -3.7,-1.633 -4.7,-4.1 m 6.8,-6.3 1.15,1.3 c 0.934,-0.667 1.917,-1.467 2.95,-2.4 m -2.95,2.4 -3.25,9.1"
   id="path14"
   style="fill:none;stroke:#000000;stroke-linecap:round;stroke-linejoin:round;stroke-miterlimit:3" />
	
		<path
   d="m 260.172,6.82 c 5.634,3.167 2.6,20.8 -9.1,52.9 -1.601,2.933 -3.184,5.783 -4.75,8.55 m -21.449,-2.4 c 1.033,1.267 1.467,2.383 1.3,3.35 7.3,-3.6 14.017,-3.917 20.15,-0.95 m -66.051,39.6 c 4.267,0.733 8.601,1.017 13,0.85 4.767,-0.2 7.5,0.267 8.2,1.4 m -31.3,-3.85 c 3.934,-5.333 9.95,-12.583 18.05,-21.75 m -10.5,20.6 c 1.434,0.467 2.283,1.383 2.55,2.75"
   id="path16"
   style="fill:none;stroke:#000000;stroke-width:0.1;stroke-linecap:round;stroke-linejoin:round;stroke-miterlimit:3" />
	
		<path
   d="m 258.222,4.62 c 1.2,0.467 1.851,1.2 1.95,2.2 m -35.299,59.05 c 8.8,-8.167 20.566,-27.85 35.3,-59.05"
   id="path18"
   style="fill:none;stroke:#000000;stroke-width:0.2;stroke-linecap:round;stroke-linejoin:round;stroke-miterlimit:3" />
	
		<path
   d="m 207.472,78.82 c 1.3,-0.2 4.184,-2.35 8.65,-6.45 4.5,-4 7.416,-6.167 8.75,-6.5 m -44.6,42 c 11.634,-7.867 26.934,-20.75 45.9,-38.65 m -67.4,53.4 c 4.801,-2.667 11.967,-7.583 21.5,-14.75 m -21.399,12.45 c 13,-10.833 19.283,-15.9 18.85,-15.2 m 24.949,-29.25 c -11.934,13.833 -22.767,23.967 -32.5,30.4"
   id="path20"
   style="fill:none;stroke:#000000;stroke-width:0.30000001;stroke-linecap:round;stroke-linejoin:round;stroke-miterlimit:3" />
	
		<path
   d="m 162.222,123.37 c -1.2,-0.233 -2.35,-0.483 -3.45,-0.75 m 23.551,-42.15 c 11.899,-20.3 23.616,-36.95 35.149,-49.95 m -47.3,75.75 c -4,4.2 -7.75,7.317 -11.25,9.35 2.733,-2.933 5.75,-6.767 9.05,-11.5"
   id="path22"
   style="fill:none;stroke:#000000;stroke-width:0.5;stroke-linecap:round;stroke-linejoin:round;stroke-miterlimit:3" />
	
		<path
   d="m 145.123,125.82 c 2.2,0.2 4.466,-1.9 6.8,-6.3 m 6.95,0.8 c 0,0.767 -0.033,1.533 -0.101,2.3"
   id="path24"
   style="fill:none;stroke:#000000;stroke-width:0.80000001;stroke-linecap:round;stroke-linejoin:round;stroke-miterlimit:3" />
	
		<path
   d="m 217.472,30.52 c 16.033,-19.2 29.617,-27.833 40.75,-25.9 m -80.5,100.5 c 10.601,-10.2 20.517,-18.967 29.75,-26.3 -1.066,-2.133 -2.666,-3.117 -4.8,-2.95"
   id="path26"
   style="fill:none;stroke:#000000;stroke-width:0.40000001;stroke-linecap:round;stroke-linejoin:round;stroke-miterlimit:3" />
	
		<path
   d="m 246.323,68.27 c -13.767,23.833 -28.95,39.35 -45.551,46.55 -16.399,7.033 -29.25,9.883 -38.55,8.55 4.3,-3.033 9.134,-5.167 14.5,-6.4 5.434,-1.367 10.95,-4.117 16.55,-8.25 m 9.4,-32.85 c 2.667,-4.167 9.283,-13.783 19.85,-28.85 10.534,-15.133 22.434,-29.267 35.7,-42.4 m -90.25,99.5 c 4.334,-6.267 9.117,-14.15 14.351,-23.65 m 35.149,-49.95 c -6.5,17.667 -23,42.2 -49.5,73.6"
   id="path28"
   style="fill:none;stroke:#000000;stroke-width:0.25;stroke-linecap:round;stroke-linejoin:round;stroke-miterlimit:3" />
	
		<path
   d="m 158.922,115.62 c -0.833,0.9 -1.8,1.833 -2.9,2.8 1.167,1.233 -0.017,5.467 -3.55,12.7"
   id="path30"
   style="fill:none;stroke:#000000;stroke-width:0.69999999;stroke-linecap:round;stroke-linejoin:round;stroke-miterlimit:3" />
	
		<path
   d="m 151.922,119.52 c 5.4,-6.566 15.533,-19.583 30.4,-39.05 m -26.3,37.949 c 1.9,-0.2 2.85,0.434 2.85,1.9"
   id="path32"
   style="fill:none;stroke:#000000;stroke-width:0.64999998;stroke-linecap:round;stroke-linejoin:round;stroke-miterlimit:3" />
</g>
<g
   id="Layer_11">
	
		<path
   d="m 206.522,28.12 c 14.867,-19.833 27.983,-29.1 39.351,-27.8 m -75.201,104.9 c 10.4,-11.467 19.6,-20.75 27.6,-27.85 -0.399,-2.7 -2.1,-3.783 -5.1,-3.25"
   id="path35"
   style="fill:none;stroke:#000000;stroke-width:0.40000001;stroke-linecap:round;stroke-linejoin:round;stroke-miterlimit:3" />
	
		<path
   d="m 248.672,2.669 c 5.4,2.667 3.233,20.2 -6.5,52.6 -1.434,2.967 -2.85,5.867 -4.25,8.7 M 217.323,62.07 c 0.666,1.3 1.149,2.4 1.449,3.3 6.367,-3.567 12.75,-4.033 19.15,-1.4 m -65,42.75 h 14.75 c 4.434,-0.434 7.667,0.033 9.7,1.4 m -26.7,-2.9 c 1.866,-0.434 2.616,0.066 2.25,1.5 m -9.2,-1.2 c 3.634,-5.5 7.783,-11.183 12.45,-17.05"
   id="path37"
   style="fill:none;stroke:#000000;stroke-width:0.1;stroke-linecap:round;stroke-linejoin:round;stroke-miterlimit:3" />
	
		<path
   d="m 198.272,77.37 c 2.134,-0.933 5.317,-3.55 9.551,-7.85 4.267,-4.133 7.433,-6.617 9.5,-7.45 m -24.151,12.05 c -10.267,14.067 -20.083,24.533 -29.45,31.4 m -10.5,14.45 c 12.4,-11.4 18.217,-16.317 17.45,-14.75 m 2.25,1.5 c 11.934,-8.5 27.217,-22.283 45.85,-41.35 m -65.5,56.85 c 4.667,-2.9 11.216,-8.067 19.65,-15.5"
   id="path39"
   style="fill:none;stroke:#000000;stroke-width:0.30000001;stroke-linecap:round;stroke-linejoin:round;stroke-miterlimit:3" />
	
		<path
   d="m 245.873,0.32 c 1.2,0.4 2.133,1.183 2.8,2.35 m -31.35,59.4 c 7.566,-8.133 18.017,-27.934 31.35,-59.4"
   id="path41"
   style="fill:none;stroke:#000000;stroke-width:0.2;stroke-linecap:round;stroke-linejoin:round;stroke-miterlimit:3" />
	
		<path
   d="m 237.922,63.97 c -12.3,23.6 -26.533,39.25 -42.7,46.95 -16.166,7.667 -28.967,11.617 -38.4,11.85 4.167,-3.2 8.9,-5.55 14.2,-7.05 5.4,-1.633 10.95,-4.633 16.65,-9 m 5.5,-32.6 c 3.267,-4.5 9.767,-14.5 19.5,-30 9.566,-15.467 20.634,-30.067 33.2,-43.8 m -84.499,103.15 c 3.967,-6.434 8.283,-14.483 12.95,-24.15 m 32.199,-51.2 c -4.133,17.567 -19.183,42.683 -45.149,75.35"
   id="path43"
   style="fill:none;stroke:#000000;stroke-width:0.25;stroke-linecap:round;stroke-linejoin:round;stroke-miterlimit:3" />
	
		<path
   d="m 156.822,122.77 c -1.233,-0.167 -2.417,-0.35 -3.55,-0.55 m 21.051,-42.9 c 10.666,-20.7 21.399,-37.767 32.199,-51.2 m -42.8,77.4 c -3.767,4.3 -7.35,7.567 -10.75,9.8 2.6,-3.067 5.4,-7.017 8.4,-11.85"
   id="path45"
   style="fill:none;stroke:#000000;stroke-width:0.5;stroke-linecap:round;stroke-linejoin:round;stroke-miterlimit:3" />
	<path
   d="m 153.272,122.22 c -0.2,3.4 -1.2,6.7 -3,9.9 l -2.75,-1.15 -2.7,-1.05 c -2.167,-0.167 -3.833,-1.433 -5,-3.8 m 6.4,-6.6 1.25,1.25 2.85,-2.55 m -5.5,11.699 2.65,-9.15"
   id="path47"
   style="fill:none;stroke:#000000;stroke-linecap:round;stroke-linejoin:round;stroke-miterlimit:3" />
	
		<path
   d="m 152.972,115.32 c -0.733,0.933 -1.617,1.9 -2.65,2.9 1.233,1.167 0.3,5.417 -2.8,12.75"
   id="path49"
   style="fill:none;stroke:#000000;stroke-width:0.69999999;stroke-linecap:round;stroke-linejoin:round;stroke-miterlimit:3" />
	
		<path
   d="m 146.222,119.52 c 5,-6.767 14.367,-20.167 28.101,-40.2 m -24.001,38.9 2.9,1.75"
   id="path51"
   style="fill:none;stroke:#000000;stroke-width:0.64999998;stroke-linecap:round;stroke-linejoin:round;stroke-miterlimit:3" />
	
		<path
   d="m 139.822,126.12 c 2.2,0.1 4.333,-2.1 6.4,-6.6 m 7,0.45 c 0.067,0.767 0.083,1.517 0.05,2.25"
   id="path53"
   style="fill:none;stroke:#000000;stroke-width:0.80000001;stroke-linecap:round;stroke-linejoin:round;stroke-miterlimit:3" />
</g>
<g
   id="Layer_5">
	<path
   d="m 252.172,100.97 c 1,0.267 1.983,0.566 2.95,0.9 5.733,1.933 9.3,4.05 10.7,6.35 0.1,0.2 1.899,2.483 5.399,6.85 2.7,3.433 4.217,6 4.55,7.7 0.2,1.033 0.284,1.967 0.25,2.8 l 0.051,0.05 c 0.066,0.333 0.183,0.783 0.35,1.35 0.1,0.433 0.134,0.767 0.1,1 h -0.1 c -0.134,-0.633 -0.283,-1.15 -0.45,-1.55 -0.033,0.633 -0.083,1.5 -0.149,2.6 0,0.3 -0.067,0.6 -0.2,0.9 0.066,0.5 0.184,0.833 0.35,1 l 0.05,0.45 c 0,0.1 -0.017,0.2 -0.05,0.3 -0.233,-0.4 -0.434,-0.85 -0.6,-1.35 -0.2,0.133 -0.4,0.3 -0.601,0.5 0.601,3.333 0.684,7.216 0.25,11.65 -0.033,0.5 -0.083,0.983 -0.149,1.45 0.1,0.467 0.2,1 0.3,1.6 l -0.25,0.05 -0.2,-0.9 c -0.967,5.8 -3.166,9.1 -6.6,9.9 0,0.066 -0.101,0.5 -0.3,1.3 -0.167,0.8 -0.467,1.233 -0.9,1.3 -0.733,0.133 -1.333,-0.183 -1.8,-0.95 -0.334,-0.9 -0.5,-1.367 -0.5,-1.4 -0.2,-0.867 -0.101,-1.767 0.3,-2.7 0.434,-0.9 0.6,-1.533 0.5,-1.9 -0.033,-0.133 -0.366,-0.533 -1,-1.2 -0.6,-0.7 -0.934,-1.267 -1,-1.7 -0.066,-0.267 0.283,-2.85 1.05,-7.75 0.167,-1.067 0.334,-2.067 0.5,-3 -0.533,0.3 -1.133,0.583 -1.8,0.85 0,0.2 0.017,0.367 0.05,0.5 l -0.55,0.1 c -0.066,-0.066 -0.116,-0.167 -0.15,-0.3 l -0.05,0.05 c 0.033,0.333 0.017,0.733 -0.05,1.2 l -0.25,0.15 c -0.333,-0.2 -0.583,-0.517 -0.75,-0.95 -0.033,-0.033 -0.05,-0.066 -0.05,-0.1 -1.101,0.433 -1.934,0.767 -2.5,1 -0.9,0.466 -2.384,1.733 -4.45,3.8 -1.6,1.5 -6.884,4.033 -15.85,7.6 l -1.75,0.35 c -0.301,0 -0.567,-0.067 -0.801,-0.2 -0.733,0.467 -1.35,0.7 -1.85,0.7 l -7.4,1.4 c -3.199,0.3 -6.75,0.066 -10.649,-0.7 -1.2,-0.233 -2.283,-0.483 -3.25,-0.75 -2.533,1.5 -4.783,2.267 -6.75,2.3 l -7.601,1.45 c -3.233,-0.167 -5.583,-0.433 -7.05,-0.8 -1.166,0.667 -2.333,1.267 -3.5,1.8 l -8.1,1.5 c -0.467,-0.066 -0.917,-0.1 -1.351,-0.1 -0.166,0.1 -0.283,0.184 -0.35,0.25 l 0.45,0.6 c 0.033,0.067 0.033,0.1 0,0.1 0.033,0.033 -0.084,0.1 -0.351,0.2 -0.199,0 -0.416,-0.1 -0.649,-0.3 -0.3,0.233 -0.584,0.483 -0.851,0.75 0.101,0.133 0.2,0.267 0.301,0.4 0,0.133 -0.084,0.25 -0.25,0.35 -0.101,-0.2 -0.2,-0.4 -0.301,-0.6 -3.133,2.767 -6.033,4.383 -8.699,4.85 -3.834,0.733 -6.284,0.667 -7.351,-0.2 -0.3,-0.233 -0.583,-1.017 -0.85,-2.35 -0.467,-2.333 -0.634,-4.083 -0.5,-5.25 0.1,-1.167 0.483,-2.55 1.149,-4.15 l -0.05,-0.05 c -0.066,-0.1 -0.166,-0.5 -0.3,-1.2 -0.2,-0.967 0.467,-2.517 2,-4.65 1.533,-2.233 3.283,-4.083 5.25,-5.55 1.733,-1.333 3.267,-2.067 4.6,-2.2 0.134,-1.7 0.7,-3.167 1.7,-4.4 2.101,-2.733 6.601,-5.7 13.5,-8.9 l 4.25,-0.8 c 0.134,-0.167 0.283,-0.4 0.45,-0.7 1.866,-3.233 3.45,-5.517 4.75,-6.85 2.533,-2.7 6.983,-5.066 13.35,-7.1 2.2,-0.7 4.067,-1.117 5.601,-1.25 1.366,-1.133 3.05,-2.05 5.05,-2.75 0,-0.233 -0.033,-0.466 -0.1,-0.7 h 0.149 c 0.134,0.167 0.233,0.367 0.3,0.6 0.367,-0.133 0.75,-0.267 1.15,-0.4 0,-0.333 0,-0.6 0,-0.8 l 0.25,-0.05 c 0.066,0.033 0.116,0.05 0.15,0.05 l 0.05,0.4 c 0.033,0.1 0.066,0.184 0.1,0.25 0.233,-0.066 0.467,-0.15 0.7,-0.25 l 0.25,-0.65 c 0.033,0.067 0.083,0.117 0.15,0.15 0.033,0 0.066,0.117 0.1,0.35 l 0.05,0.1 c 2.733,-0.6 5.3,-0.767 7.7,-0.5 0.134,-0.2 0.316,-0.383 0.55,-0.55 0.2,-0.267 0.467,-0.533 0.8,-0.8 0.101,-0.033 0.2,-0.033 0.301,0 0.1,-0.067 0.233,-0.15 0.399,-0.25 1.601,-0.967 3.483,-1.717 5.65,-2.25 3.366,-0.967 5.816,-1.133 7.35,-0.5 1.134,0.133 2.334,0.333 3.601,0.6 0.1,-0.233 0.183,-0.467 0.25,-0.7 0.033,0.3 0.033,0.567 0,0.8 0.333,0.066 0.699,0.133 1.1,0.2 0.134,-0.167 0.4,-0.283 0.8,-0.35 v -0.1 c 0.033,-0.034 0.066,0.05 0.101,0.25 -0.032,0.166 -0.082,0.3 -0.149,0.4 z"
   id="path56"
   style="fill-rule:evenodd" />
</g>
<g
   id="Layer_4">
	<path
   d="m 101.772,140.57 c 1.5,-1.3 3.2,-0.733 5.1,1.7 2.6,7.567 3.8,12.783 3.6,15.65 0.467,1.133 0.4,2.117 -0.2,2.95 -0.5,0.8 -0.367,2.067 0.4,3.8 -0.167,0.233 -0.367,0.434 -0.6,0.6 -1.2,0.934 -2.117,1.217 -2.75,0.85 -0.667,-0.367 -1.433,-0.633 -2.3,-0.8 -0.8,-0.167 -1.483,-2.633 -2.05,-7.4 -0.566,-4.8 -0.9,-7.267 -1,-7.4 -1.8,-5.101 -1.867,-8.417 -0.2,-9.95 z m 39.851,34.45 c -0.167,-0.2 -1.817,-1.35 -4.95,-3.45 -3.167,-2.034 -5.233,-3.567 -6.2,-4.6 -1.533,-1.7 -2.333,-3.383 -2.4,-5.05 -0.1,-1.5 0.417,-2.667 1.55,-3.5 1.133,-0.9 2.55,-1.183 4.25,-0.85 1.867,0.333 3.733,1.367 5.6,3.1 1.1,0.8 3.317,2.667 6.65,5.6 3.3,2.767 5.167,4.417 5.6,4.95 0.9,0.967 1.467,1.8 1.7,2.5 0.433,1.4 -0.033,2.733 -1.4,4 -2.333,2.066 -4.067,3.133 -5.2,3.2 -0.7,0.066 -1.45,-0.333 -2.25,-1.2 -0.5,-0.5 -0.9,-1.184 -1.2,-2.05 -0.301,-0.834 -0.884,-1.717 -1.75,-2.65 z m 8.049,-18.15 c 2.233,-3.033 5.933,-2.75 11.1,0.85 1.167,1.033 3.067,2.6 5.7,4.7 2.634,2.1 4.533,3.667 5.7,4.7 1.233,1.167 2.017,2.067 2.35,2.7 0.233,0.633 1.101,1.65 2.601,3.05 1.5,1.333 1.316,3.017 -0.55,5.05 -0.601,0.7 -1.5,1.15 -2.7,1.35 -1.066,-0.033 -1.65,-0.05 -1.75,-0.05 -0.334,0.033 -0.934,0.35 -1.8,0.95 -0.801,0.5 -1.417,0.617 -1.851,0.351 -1.1,-0.667 -2.483,-1.767 -4.149,-3.3 -1.034,-0.967 -2.684,-2.333 -4.95,-4.1 -2.033,-1.6 -3.133,-2.467 -3.3,-2.6 -2.4,-2.433 -4.233,-4.217 -5.5,-5.35 -1.167,-1.1 -1.867,-2.466 -2.1,-4.1 -0.167,-1.668 0.233,-3.068 1.199,-4.201 z"
   id="path59"
   style="fill-rule:evenodd" />
</g>
<g
   id="Layer_12">
	<path
   d="m 102.172,139.57 c 1.9,-0.567 3.217,0.667 3.95,3.7 -0.867,7.934 -2,13.15 -3.4,15.65 -0.033,1.233 -0.517,2.1 -1.45,2.6 -0.767,0.533 -1.167,1.75 -1.2,3.65 -0.267,0.133 -0.533,0.233 -0.8,0.3 -1.467,0.333 -2.417,0.183 -2.85,-0.45 -0.433,-0.6 -1.017,-1.15 -1.75,-1.65 -0.667,-0.5 -0.25,-3.033 1.25,-7.6 1.533,-4.566 2.283,-6.95 2.25,-7.15 0.534,-5.334 1.867,-8.35 4,-9.05 z m 20.8,22.099 c 0,-1.5 0.6,-2.617 1.8,-3.35 1.167,-0.833 2.583,-1.034 4.25,-0.6 1.833,0.467 3.633,1.617 5.4,3.45 1.033,0.867 3.117,2.867 6.25,6 3.133,3 4.9,4.767 5.3,5.3 0.833,1.033 1.35,1.917 1.55,2.65 0.333,1.4 -0.217,2.7 -1.65,3.9 -2.467,1.9 -4.284,2.85 -5.45,2.85 -0.7,0.033 -1.417,-0.417 -2.15,-1.35 -0.467,-0.531 -0.825,-1.206 -1.075,-2.025 -0.25,-0.825 -0.617,-1.416 -1.1,-1.775 -0.483,-0.359 -2.216,-1.817 -5.2,-4.375 -2.983,-2.553 -4.925,-4.378 -5.825,-5.475 -1.433,-1.799 -2.133,-3.533 -2.1,-5.2 z m 21.5,-4.349 c 1.833,-3.3 5.534,-3.517 11.1,-0.65 1.3,0.833 3.4,2.117 6.3,3.85 2.866,1.733 4.967,3.033 6.3,3.9 1.366,1 2.267,1.784 2.7,2.35 0.3,0.6 1.283,1.5 2.95,2.7 1.666,1.133 1.716,2.816 0.149,5.05 -0.467,0.8 -1.3,1.367 -2.5,1.7 -1.066,0.133 -1.649,0.2 -1.75,0.2 -0.333,0.067 -0.866,0.467 -1.6,1.2 -0.733,0.567 -1.334,0.75 -1.8,0.55 -1.2,-0.5 -2.717,-1.4 -4.551,-2.7 -1.166,-0.833 -3,-1.967 -5.5,-3.4 -2.233,-1.3 -3.434,-2.017 -3.6,-2.15 -2.7,-2.066 -4.767,-3.583 -6.2,-4.55 -1.3,-0.9 -2.183,-2.15 -2.65,-3.75 -0.331,-1.667 -0.114,-3.1 0.652,-4.3 z"
   id="path62"
   style="fill-rule:evenodd" />
</g>
<g
   id="Layer_13">
	<path
   d="m 301.573,146.02 c -16.134,4.2 -30.25,6.65 -42.351,7.35 -29.7,3.133 -56.6,9.367 -80.7,18.7 -0.233,0.133 -0.416,0.333 -0.55,0.6 -1.467,1.2 -3.1,1.7 -4.899,1.5 -1,-0.167 -1.867,-0.833 -2.601,-2 -0.6,-1 -0.899,-1.733 -0.899,-2.2 0.3,-1.667 2.133,-2.633 5.5,-2.9 0.233,-0.067 0.517,-0.1 0.85,-0.1 18.467,-8.033 45.9,-14.917 82.3,-20.65 14.7,-2.367 29.55,-5.483 44.55,-9.35 10.1,-1.301 9.699,1.717 -1.2,9.05 z m -50.7,44.05 -0.5,2.3 c -23.066,-0.833 -56.867,-4.116 -101.4,-9.85 0.034,-0.267 0.017,-0.483 -0.05,-0.65 -0.433,0 -1.1,-0.167 -2,-0.5 -0.9,-0.233 -2.433,-0.434 -4.6,-0.6 -2.133,-0.034 -3.333,-0.483 -3.6,-1.351 -0.1,-0.267 -0.05,-0.767 0.15,-1.5 0.2,-0.933 0.716,-1.716 1.55,-2.35 0.433,-0.367 0.883,-0.617 1.35,-0.75 0.367,0.1 0.733,0.183 1.1,0.25 0.9,0.066 1.7,0.117 2.4,0.15 3.6,0.333 5.283,1.117 5.05,2.35 0.067,-0.067 0.15,-0.117 0.25,-0.15 35.966,1.901 69.399,6.118 100.3,12.651 z m -198.5,-13.2 -2.35,-3.15 c -1.367,-1.533 7.183,-3.633 25.65,-6.3 6.117,-2.932 12.233,-4.932 18.35,-6 0.233,-0.833 0.883,-1.233 1.95,-1.2 1.5,0.033 2.317,0.517 2.45,1.45 0.1,0.9 0.05,1.7 -0.15,2.4 -0.533,1.333 -1.333,1.883 -2.4,1.65 -1.167,-0.3 -2.333,-0.2 -3.5,0.3 -1.133,0.5 -4.333,1.967 -9.6,4.4 l -30.4,6.45 z"
   id="path65"
   style="fill-rule:evenodd" />
</g>
<g
   id="Layer_14">
	<path
   d="m 50.873,173.02 1.65,1.35 0.05,0.75 c -1.267,2.733 -2.6,5.483 -4,8.25 -1.033,2.267 -2.033,4.5 -3,6.7 -0.933,2.2 -2.15,4.533 -3.65,7 -1.567,2.333 -2.683,4.767 -3.35,7.3 -0.7,2.233 -1.517,4.45 -2.45,6.65 l -3.3,4.8 c -0.433,0.133 -0.883,0.233 -1.35,0.3 -0.333,0.4 -0.8,0.816 -1.4,1.25 -0.7,0.4 -2.2,0.95 -4.5,1.65 -2.367,0.833 -5.066,1.783 -8.1,2.85 l -0.55,-0.45 -7.25,3.4 -0.6,-0.601 c -0.309,0.323 -0.625,0.641 -0.95,0.95 -0.8,1.101 -1.75,2.117 -2.85,3.05 l -0.9,-0.149 c 0.015,0.057 -0.001,0.141 -0.05,0.25 -0.833,2.6 -1.583,3.934 -2.25,4 -0.033,1.333 0.35,3 1.15,5 l -1.85,-1.351 0.05,1.601 c 0.1,0.233 0.183,0.467 0.25,0.7 0,0.3 -0.133,0.416 -0.4,0.35 -0.333,-0.033 -0.684,-0.566 -1.05,-1.6 l -0.15,-1.301 c -0.133,-0.767 -0.083,-1.6 0.15,-2.5 0.133,-0.433 0.3,-0.783 0.5,-1.05 -0.033,-0.366 0,-0.733 0.1,-1.1 -0.033,-0.5 -0.1,-0.767 -0.2,-0.8 0.066,-0.367 0.133,-0.834 0.2,-1.4 0.1,-0.8 0.333,-1.167 0.7,-1.1 0.133,0.033 0.217,0.066 0.25,0.1 0.1,-0.333 0.217,-0.616 0.35,-0.85 0.333,-0.7 0.733,-1.317 1.2,-1.851 H 3.297 c 1.499,-1.285 3.208,-2.186 5.125,-2.7 0.8,-0.733 3.5,-1.75 8.1,-3.05 l 0.05,-0.55 c 1.033,-0.3 2.033,-0.65 3,-1.05 3.567,-1.334 7.167,-2.334 10.8,-3 0.633,-0.967 1.117,-2.134 1.45,-3.5 0.1,-0.4 0.184,-0.7 0.25,-0.9 h -0.05 c 1.267,-2.899 2.533,-5.767 3.8,-8.6 1.4,-2.867 2.8,-5.667 4.2,-8.4 1.667,-3.2 3.35,-6.416 5.05,-9.649 1.734,-3.666 3.667,-7.249 5.801,-10.749 z m 254.45,86.25 -0.2,0.8 c 4.6,0.233 6.783,1.066 6.55,2.5 5.134,0.833 8.283,2.083 9.45,3.75 -1.8,0.2 -2.101,1.05 -0.9,2.55 -1.1,-0.634 -4.1,-2.15 -9,-4.55 h -0.149 c -0.2,0.333 -2.4,-0.533 -6.601,-2.601 l -0.1,0.801 c -1,0.033 -3.684,-1.2 -8.05,-3.7 l -0.15,0.399 c -0.167,0.034 -0.467,0 -0.9,-0.1 -1.214,-0.187 -3.431,-0.887 -6.649,-2.1 -1.601,-0.4 -3.233,-0.767 -4.9,-1.101 -0.566,0.134 -1.2,-0.633 -1.899,-2.3 l -1,-2.4 c -0.067,-0.366 -0.084,-0.699 -0.051,-1 l -19.449,-36.25 -12.601,-22.35 c 0.033,-0.167 0.101,-0.3 0.2,-0.4 0.134,-0.433 0.25,-0.75 0.35,-0.949 l 0.801,0.1 c 1.267,-1.333 5.566,6.233 12.899,22.7 l 20.15,37.7 c 0.2,0.166 0.45,0.366 0.75,0.6 0.467,0.5 0.783,0.917 0.95,1.25 0.066,0.267 0.1,0.533 0.1,0.8 -0.066,0.167 -0.167,0.334 -0.3,0.5 l 0.25,0.101 4.55,1 c 2.621,-0.037 4.571,0.13 5.85,0.5 1.067,0.433 1.667,0.949 1.801,1.55 4.964,0.766 7.714,1.5 8.248,2.2 z m 63.524,-83.775 c 0.061,0.191 0.178,0.333 0.351,0.425 h -0.025 c 0.366,0.3 0.8,0.583 1.3,0.85 0.066,-0.011 0.133,-0.02 0.2,-0.025 0.044,0.123 0.11,0.223 0.2,0.3 0.095,-0.039 0.194,-0.081 0.3,-0.125 l 0.3,0.05 c -0.156,0.065 -0.306,0.123 -0.45,0.175 0.09,0.05 0.19,0.083 0.301,0.1 1.455,0.985 2.872,1.926 4.25,2.825 h 0.024 c 0.285,-0.167 0.477,-0.25 0.575,-0.25 -0.052,0.086 -0.168,0.203 -0.35,0.35 0.075,0.12 0.184,0.212 0.324,0.275 -0.067,0.006 -0.142,0.015 -0.225,0.024 0.273,0.18 0.548,0.354 0.825,0.525 0.334,-0.213 0.542,-0.371 0.625,-0.475 l 0.3,0.149 c -0.233,0 -0.35,0.15 -0.35,0.45 l -0.025,0.05 c 0.118,-0.098 0.243,-0.197 0.375,-0.3 0.533,-0.4 1.066,-0.8 1.6,-1.2 l 0.5,0.15 c -0.802,0.715 -1.502,1.315 -2.1,1.8 0.191,0.124 0.383,0.249 0.575,0.375 l 0.024,-0.025 c 0.567,-0.433 0.95,-0.666 1.15,-0.699 -0.332,0.346 -0.649,0.638 -0.95,0.875 0.384,0.249 0.768,0.499 1.15,0.75 0.202,-0.156 0.436,-0.331 0.7,-0.525 -0.189,0.243 -0.364,0.452 -0.525,0.625 0.679,0.447 1.354,0.889 2.025,1.325 0.466,-0.066 0.783,-0.217 0.949,-0.45 l 0.15,0.05 c -0.267,0.267 -0.5,0.483 -0.7,0.65 0.634,0.399 1.217,0.816 1.75,1.25 0.233,-0.033 0.483,-0.017 0.75,0.05 0.834,0 1.316,-0.134 1.45,-0.4 l 0.15,0.15 c -0.101,0.134 -0.25,0.3 -0.45,0.5 -0.367,0.167 -0.8,0.233 -1.3,0.2 0.152,0.114 0.311,0.223 0.475,0.325 0.229,-0.023 0.471,-0.099 0.725,-0.226 0.301,-0.133 0.483,-0.2 0.551,-0.2 l 0.05,0.15 c -0.033,0 -0.267,0.116 -0.7,0.35 -0.106,0.054 -0.224,0.096 -0.35,0.125 0.305,0.201 0.622,0.394 0.949,0.575 0.167,0.066 0.351,0.066 0.551,0 1,-0.166 1.583,-0.149 1.75,0.05 0.066,0.034 0.066,0.117 0,0.25 -0.667,-0.033 -1.284,-0.033 -1.851,0 1,0.767 1.983,1.45 2.95,2.051 0.366,0 0.65,0.017 0.85,0.05 l 0.101,0.149 c -0.2,0 -0.417,0.017 -0.65,0.051 1.8,1.233 3.5,2.466 5.101,3.699 0.333,-0.1 0.616,-0.05 0.85,0.15 -0.233,0.033 -0.45,0 -0.65,-0.1 0.567,0.433 1.134,0.833 1.7,1.199 0,-0.033 0.017,-0.033 0.05,0 0.067,-0.066 0.217,-0.216 0.45,-0.449 0,0.3 -0.083,0.5 -0.25,0.6 0.264,0.243 0.521,0.468 0.775,0.675 0.393,-0.304 0.868,-0.695 1.425,-1.175 l 0.1,0.2 c -0.431,0.535 -0.822,0.952 -1.175,1.25 0.039,0.033 0.08,0.066 0.125,0.1 0.566,-0.133 1.217,-0.217 1.95,-0.25 l 0.05,0.15 c -0.1,0.1 -0.184,0.2 -0.25,0.3 -0.233,0.033 -0.6,0.116 -1.1,0.25 0.399,0.267 0.816,0.55 1.25,0.85 0.18,-0.051 0.338,-0.076 0.475,-0.074 0.034,0.075 0.076,0.15 0.125,0.225 0.064,0.075 0.131,0.142 0.2,0.2 -0.147,-0.007 -0.28,-0.041 -0.4,-0.101 0.301,0.301 0.584,0.483 0.851,0.551 0.096,-0.007 0.204,-0.015 0.325,-0.025 0.032,0.196 0.132,0.371 0.3,0.525 -0.085,0.023 -0.16,0.057 -0.226,0.1 0.667,0.4 1.351,0.9 2.051,1.5 h 0.05 c 0.524,0.087 0.857,-0.004 1,-0.275 0.005,0.148 0.047,0.307 0.125,0.476 -0.163,0.036 -0.388,0.086 -0.675,0.149 0.399,0.367 0.833,0.684 1.3,0.95 0.07,-0.01 0.153,-0.019 0.25,-0.024 0.015,0.146 0.064,0.304 0.149,0.475 0.188,0.28 0.445,0.431 0.775,0.45 0.045,0.033 0.087,0.066 0.125,0.1 0.366,-0.1 0.6,-0.116 0.7,-0.05 l 0.25,-0.05 -0.351,0.3 c -0.03,0 -0.071,-0.025 -0.125,-0.075 0.291,0.289 0.599,0.563 0.926,0.825 0.267,-0.033 0.517,-0.066 0.75,-0.1 l 0.399,-0.15 0.101,0.25 -0.301,0.2 c -0.233,0.1 -0.416,0.149 -0.55,0.149 0.4,0.367 0.767,0.684 1.101,0.95 0.267,-0.033 0.566,-0.116 0.899,-0.25 0.834,0.033 1.367,0.066 1.601,0.101 l -0.051,0.149 c -0.366,0.101 -1.083,0.184 -2.149,0.25 0.175,0.117 0.35,0.233 0.524,0.351 0.466,-0.067 0.824,-0.101 1.075,-0.101 -0.332,0.166 -0.582,0.274 -0.75,0.325 0.384,0.251 0.751,0.492 1.101,0.725 0.261,0 0.46,-0.008 0.6,-0.024 0.072,0.071 0.147,0.13 0.225,0.175 -0.155,0.029 -0.363,0.062 -0.625,0.1 0.467,0.334 0.851,0.617 1.15,0.851 l 1.65,-0.3 h 0.149 c -0.566,0.267 -1.1,0.399 -1.6,0.399 1,0.834 1.95,1.517 2.85,2.05 0.085,-0.016 0.168,-0.032 0.25,-0.05 0.029,0.121 0.08,0.221 0.15,0.3 -0.057,0.021 -0.106,0.038 -0.15,0.051 0.129,0.107 0.254,0.216 0.375,0.324 0.244,-0.125 0.519,-0.216 0.825,-0.274 -0.108,0.258 -0.242,0.466 -0.4,0.625 0.578,0.453 1.162,0.895 1.75,1.325 l 0.551,-0.301 0.149,0.2 -0.45,0.351 c 1.034,0.733 2.017,1.483 2.95,2.25 0.033,0 0.134,-0.017 0.3,-0.051 h 0.025 c 0.062,0.117 0.153,0.209 0.275,0.275 l -0.15,0.075 c 0.082,0.062 0.165,0.12 0.25,0.175 0.486,-0.381 0.837,-0.556 1.05,-0.525 -0.311,0.288 -0.585,0.521 -0.825,0.7 0.145,0.118 0.286,0.234 0.426,0.351 0.198,-0.134 0.364,-0.2 0.5,-0.2 -0.123,0.122 -0.239,0.23 -0.351,0.325 0.074,0.062 0.149,0.12 0.226,0.175 0.196,-0.155 0.438,-0.322 0.725,-0.5 l 0.2,0.149 c -0.156,0.031 -0.397,0.206 -0.726,0.525 0.023,0.027 0.049,0.053 0.075,0.075 0.267,-0.066 0.584,-0.15 0.95,-0.25 l 0.15,0.2 -0.45,0.25 c -0.134,0.033 -0.233,0.05 -0.3,0.05 0.333,0.2 0.6,0.383 0.8,0.55 l 0.649,-0.2 0.051,-0.05 0.199,0.15 c -0.033,0.066 -0.083,0.133 -0.149,0.199 -0.233,0 -0.4,0 -0.5,0 1.438,1.115 2.671,2.09 3.7,2.926 0.229,-0.29 0.496,-0.565 0.8,-0.825 0.066,0.033 0.133,0.033 0.2,0 0.033,0.033 0.05,0.133 0.05,0.3 0,0.167 -0.167,0.467 -0.5,0.9 -0.015,0.019 -0.031,0.036 -0.05,0.05 0.081,0.087 0.182,0.154 0.3,0.2 v 0.05 c 0.253,0.177 0.503,0.36 0.75,0.55 0.4,-0.348 0.7,-0.564 0.899,-0.65 l 0.4,0.101 c -0.318,0.145 -0.677,0.386 -1.075,0.725 l 0.025,0.025 0.75,-0.25 0.1,0.35 -0.399,0.25 c 0.225,0.177 0.433,0.344 0.625,0.5 0.067,-0.084 0.143,-0.167 0.225,-0.25 0.134,-0.1 0.25,-0.2 0.35,-0.3 0.067,0.033 0.117,0.033 0.15,0 v 0.2 c -0.139,0.247 -0.28,0.446 -0.425,0.6 0.825,0.634 1.3,1 1.425,1.101 0.05,0.056 0.1,0.114 0.15,0.175 v 0.024 c 0.733,0.967 1.5,1.917 2.3,2.851 0.5,0.533 0.899,1 1.2,1.399 1,0.367 1.883,0.717 2.649,1.051 1.8,0.699 3.066,1.366 3.8,2 0.233,-0.101 0.367,-0.134 0.4,-0.101 0.134,0.066 1.684,0.283 4.65,0.65 1.233,0.166 2.399,0.467 3.5,0.899 0.933,-0.233 1.633,-0.35 2.1,-0.35 0.1,-0.1 1.25,-0.083 3.45,0.05 1.5,-0.467 2.633,-0.633 3.399,-0.5 0.167,-0.233 0.233,-0.383 0.2,-0.45 l 0.15,-0.1 c 0.033,0.167 0,0.4 -0.101,0.7 l 0.051,0.1 c 0.133,0 0.3,0.084 0.5,0.25 3.733,-1.2 5.517,-1.55 5.35,-1.05 -0.1,0.467 -0.116,0.767 -0.05,0.9 0,-0.134 0.083,-0.217 0.25,-0.25 0.104,-0.088 0.204,-0.171 0.3,-0.25 l 1.15,0.649 c 0.033,0.101 0.1,0.283 0.199,0.55 0.367,0.167 0.817,0.567 1.351,1.2 0.2,0.233 0.184,0.517 -0.05,0.851 -0.06,0.029 -0.093,0.054 -0.101,0.074 -0.575,-0.686 -0.934,-1.027 -1.075,-1.024 -0.146,0.002 -0.355,-0.173 -0.625,-0.525 -0.268,-0.351 -0.45,-0.575 -0.55,-0.675 -0.1,0.033 -0.184,0.083 -0.25,0.15 0,0.199 0.084,0.416 0.25,0.649 0.033,0 0.066,-0.017 0.101,-0.05 -0.301,0.434 -0.551,0.566 -0.75,0.4 l -0.801,-0.851 c 0.034,0 0.084,-0.116 0.15,-0.35 -0.634,0.833 -1.4,1.166 -2.3,1 -0.867,-0.134 -1.417,-0.217 -1.65,-0.25 -0.166,0 -0.333,0.017 -0.5,0.05 l 0.25,0.4 c -0.1,0.466 -1.483,0.6 -4.149,0.399 l 0.3,1.351 c -0.3,-0.834 -2.533,-1.184 -6.7,-1.051 -0.134,-0.033 -0.833,-0.083 -2.1,-0.149 -0.601,0 -1.384,-0.084 -2.351,-0.25 h -0.3 c -0.5,-0.066 -1.066,-0.184 -1.7,-0.351 -0.033,0.067 -0.116,0.051 -0.25,-0.05 l -0.1,-0.1 c -0.5,-0.134 -1.117,-0.267 -1.851,-0.4 -0.899,0.134 -1.6,0.084 -2.1,-0.149 -0.233,-0.101 -0.6,-0.233 -1.1,-0.4 0,0.033 -0.017,0.116 -0.051,0.25 -0.033,-0.066 -0.149,-0.2 -0.35,-0.4 -0.533,-0.3 -1.283,-0.6 -2.25,-0.899 0.1,0.233 0.2,0.333 0.3,0.3 l -0.149,0.1 -0.25,-0.55 c -0.601,-0.233 -1.084,-0.434 -1.45,-0.6 l -0.45,0.149 c -0.134,-0.166 -0.233,-0.3 -0.3,-0.399 -0.066,-0.066 -0.117,-0.101 -0.15,-0.101 v -0.199 c -0.366,-0.5 -0.833,-1.084 -1.399,-1.75 v -0.025 c -0.454,-0.43 -0.971,-0.905 -1.551,-1.425 -0.8,-0.8 -1.3,-1.434 -1.5,-1.9 -39,-30.566 -80.517,-57.767 -124.55,-81.6 -4.066,-4.267 -2.616,-5.667 4.351,-4.2 8.885,5.437 17.276,10.611 25.175,15.525 0.235,-0.162 0.444,-0.22 0.625,-0.175 -0.134,0.116 -0.259,0.225 -0.375,0.325 0.304,0.205 0.612,0.405 0.925,0.6 0.292,-0.217 0.509,-0.325 0.65,-0.325 v 0.15 c -0.111,0.133 -0.244,0.241 -0.4,0.325 3.133,1.951 6.183,3.859 9.15,5.725 0.066,0.033 0.133,0.033 0.199,0 0.267,0 0.467,-0.1 0.601,-0.3 l 0.05,0.2 -0.4,0.15 c -0.133,0.066 -0.233,0.083 -0.3,0.05 0.634,0.5 1.334,0.967 2.101,1.4 0.233,0.033 0.566,-0.033 1,-0.2 -0.167,0.2 -0.384,0.35 -0.65,0.45 0.934,0.6 1.8,1.117 2.6,1.55 0.233,-0.067 0.4,-0.067 0.5,0 -0.072,0.066 -0.189,0.1 -0.35,0.1 2.634,1.633 5.15,3.25 7.55,4.85 0.467,0.4 0.983,0.75 1.55,1.05 0.134,-0.034 0.267,-0.034 0.4,0 l 0.1,0.05 c -0.066,0.033 -0.199,0.05 -0.399,0.05 1.267,0.8 2.434,1.534 3.5,2.2 0.1,-0.033 0.233,-0.033 0.399,0 0.034,0.067 0.017,0.117 -0.05,0.15 -0.033,-0.033 -0.066,-0.05 -0.1,-0.05 0.153,0.123 0.278,0.231 0.375,0.325 0.233,-0.092 0.542,-0.117 0.925,-0.075 v -0.15 c 0.033,0.033 0.1,0.05 0.2,0.05 0.066,0 0.1,0.083 0.1,0.25 0,0.237 -0.092,0.404 -0.274,0.5 0.155,0.086 0.314,0.169 0.475,0.25 l 0.65,-0.1 h 0.1 c -0.033,0.167 -0.167,0.3 -0.4,0.4 0.4,0.3 0.801,0.583 1.2,0.85 0.041,-0.008 0.083,-0.016 0.127,-0.024 z"
   id="path68"
   style="fill-rule:evenodd" />
</g>
<g
   id="Layer_3">
	<path
   d="m 124.322,114.02 c 1,0.033 1.967,0.083 2.9,0.15 1.4,1.534 3.35,1.917 5.85,1.15 0.767,-0.233 1.317,-0.5 1.65,-0.8 1.8,-0.2 3.733,-0.017 5.8,0.55 2.4,0.733 5.333,2.333 8.8,4.8 0.5,0.3 1,0.633 1.5,1 0.7,1.967 1.733,3.333 3.1,4.1 0.867,0.5 2.25,0.816 4.15,0.95 1.899,0.167 3.25,0.45 4.05,0.85 0.267,0.133 0.533,0.283 0.8,0.45 0.566,0.667 1,1.483 1.3,2.45 0.066,0.233 0.117,0.434 0.15,0.6 0.133,0.067 0.233,0.233 0.3,0.5 0.667,2.133 0.233,3.434 -1.3,3.9 -0.4,0.1 -0.767,-0.033 -1.101,-0.4 -1.066,0.833 -1.533,1.467 -1.399,1.9 0.066,0.167 0.267,0.4 0.6,0.7 -0.1,0.033 -0.2,0.083 -0.3,0.15 0.167,0.133 0.366,0.35 0.6,0.65 1.233,1.534 2.101,3.117 2.601,4.75 0.233,0.8 0.467,3.184 0.7,7.15 0.267,3.9 0.3,6.15 0.1,6.75 -0.366,1.233 -0.4,2.633 -0.1,4.2 0.233,1.733 0.316,2.817 0.25,3.25 -0.2,1.133 -1.184,2.233 -2.95,3.3 0,0.233 -0.017,0.483 -0.05,0.75 -0.301,5.733 -2.15,9.133 -5.55,10.2 -3.7,1.1 -6.7,0.767 -9,-1 -1,-0.933 -1.7,-1.566 -2.1,-1.9 -0.7,-0.567 -1.317,-0.767 -1.85,-0.6 -0.367,0.1 -1.066,0.517 -2.1,1.25 -1.066,0.767 -2.083,1.283 -3.05,1.55 -7.2,2.2 -14.1,-1.784 -20.7,-11.95 -2.1,-3.233 -4.05,-6.883 -5.85,-10.95 -1.067,-2.533 -1.784,-4.417 -2.15,-5.65 -0.133,-0.4 -0.7,-1.283 -1.7,-2.65 -0.333,0 -0.684,0.017 -1.05,0.05 -2.267,0.167 -3.917,0.284 -4.95,0.35 -3.733,0.133 -6,-1.066 -6.8,-3.6 -0.333,-0.966 -1.933,-2.367 -4.8,-4.2 -2.867,-1.7 -4.3,-2.567 -4.3,-2.6 l -0.05,-0.1 c -0.533,-0.167 -1.233,-0.617 -2.1,-1.35 -1.066,-1.133 -1.617,-1.716 -1.65,-1.75 -0.4,-1.367 -0.15,-2.583 0.75,-3.65 1.667,-2.066 5.5,-3.95 11.5,-5.65 0.9,-3.5 3.8,-6.15 8.7,-7.95 3.967,-1.433 7.417,-1.917 10.35,-1.45 4.966,-0.2 8.449,-0.267 10.449,-0.2 z"
   id="path71"
   style="fill-rule:evenodd" />
</g>
<g
   id="Layer_2">
	<path
   d="m 86.972,123.12 c -0.5,0.4 -1.267,0.883 -2.3,1.45 0.567,0.5 1.033,0.983 1.4,1.45 1.167,1.467 1.733,2.6 1.7,3.4 -0.167,1.667 0.167,3.85 1,6.55 0.2,0.533 0.233,1.217 0.1,2.05 0.767,0.467 1.617,0.983 2.55,1.55 -0.867,-0.233 -1.733,-0.6 -2.6,-1.1 -0.1,0.4 -0.233,0.8 -0.4,1.2 0.833,0.633 1.8,1.333 2.9,2.1 l -0.05,0.15 c -0.333,-0.133 -1.317,-0.733 -2.95,-1.8 -0.167,0.333 -0.35,0.7 -0.55,1.1 0.7,0.566 1.483,1.167 2.35,1.8 l -0.05,0.15 c -0.4,-0.167 -1.217,-0.7 -2.45,-1.6 -0.034,0.1 -0.083,0.183 -0.15,0.25 -0.4,0.7 -0.767,1.383 -1.1,2.05 -0.034,0.033 -0.05,0.067 -0.05,0.1 0.3,0.633 0.717,1.6 1.25,2.9 0.067,0.267 -0.033,0.217 -0.3,-0.15 -0.4,-0.467 -0.817,-1.217 -1.25,-2.25 -0.167,0.2 -0.3,0.417 -0.4,0.65 0.267,0.567 0.433,1.083 0.5,1.55 0.133,0.3 0.066,0.284 -0.2,-0.05 -0.267,-0.267 -0.5,-0.533 -0.7,-0.8 -0.1,0.1 -0.167,0.233 -0.2,0.4 0.9,1.167 2,2.55 3.3,4.15 l -0.2,0.15 c -0.067,-0.066 -1.034,-1.267 -2.9,-3.6 -0.133,-0.167 -0.267,-0.316 -0.4,-0.45 -0.233,0.433 -0.467,0.867 -0.7,1.3 0.3,0.467 0.683,1.067 1.15,1.8 l -0.1,0.1 -0.75,-0.95 c -0.133,-0.233 -0.283,-0.467 -0.45,-0.7 -0.333,0.567 -0.633,1.083 -0.9,1.55 -0.566,1.033 -1.667,3.25 -3.3,6.65 -0.533,0.5 -0.95,1.05 -1.25,1.65 -0.934,1.9 -1.467,3.333 -1.6,4.3 -0.2,0.434 -0.417,0.883 -0.65,1.35 -0.067,0.567 -0.15,1.017 -0.25,1.35 -0.533,1.3 -1.05,2.4 -1.55,3.3 -0.167,0.7 -0.583,1.65 -1.25,2.85 -0.867,1.567 -1.733,2.817 -2.6,3.75 v 0.05 c -0.4,0.733 -0.667,1.15 -0.8,1.25 l -0.55,0.35 c -0.133,0.4 -0.317,0.7 -0.55,0.9 -1.633,1.3 -3.283,1.55 -4.95,0.75 -0.9,-0.4 -1.684,-1.034 -2.35,-1.9 -0.633,-0.8 -1.617,-2.333 -2.95,-4.6 -1.367,-2.4 -2.267,-3.883 -2.7,-4.45 -1.867,-2.433 -2.867,-4.867 -3,-7.3 0.133,-0.5 0.2,-0.95 0.2,-1.35 -0.167,-0.1 -0.316,-0.233 -0.45,-0.4 -0.967,-1.133 -1.5,-1.767 -1.6,-1.9 -0.767,-0.966 -1.2,-1.583 -1.3,-1.85 -0.233,-0.7 -0.117,-1.133 0.35,-1.3 0.367,-0.1 0.684,-0.066 0.95,0.1 0.2,0 0.4,0.067 0.6,0.2 0.967,0.633 1.55,1 1.75,1.1 l 0.1,-0.05 c -0.467,-0.4 -0.934,-1.033 -1.4,-1.9 -0.4,-0.733 -0.7,-1.417 -0.9,-2.05 -0.033,0.1 -0.066,0.2 -0.1,0.3 -0.633,0.5 -1.3,0.517 -2,0.05 l -0.5,-0.45 c -0.933,0 -1.466,-0.1 -1.6,-0.3 -0.133,-0.167 -0.233,-0.4 -0.3,-0.7 0.533,-0.434 0.617,-0.934 0.25,-1.5 0.067,-0.333 0.2,-0.684 0.4,-1.05 0.767,-1.6 1.817,-2.717 3.15,-3.35 -0.333,-0.5 -0.534,-1.333 -0.6,-2.5 -0.1,-0.933 -0.017,-1.6 0.25,-2 l -0.15,0.05 c 0,-0.1 0,-0.2 0,-0.3 0,-0.033 0.017,-0.066 0.05,-0.1 0.333,-0.833 0.767,-2.517 1.3,-5.05 0.567,-2.633 1.517,-4.816 2.85,-6.55 0.2,-0.2 0.434,-0.45 0.7,-0.75 -0.167,-0.267 -0.317,-0.483 -0.45,-0.65 l 0.15,-0.1 c 0.1,0.066 0.267,0.25 0.5,0.55 0.7,-0.633 1.667,-1.333 2.9,-2.1 -0.567,-1.167 -1,-1.95 -1.3,-2.35 l 0.1,-0.1 c 0.133,0.033 0.35,0.25 0.65,0.65 0.233,0.3 0.55,0.817 0.95,1.55 0.6,-0.4 1.183,-0.767 1.75,-1.1 -0.1,-0.167 -0.184,-0.383 -0.25,-0.65 -0.467,-1.7 -0.733,-2.883 -0.8,-3.55 l 0.25,0.1 c 0.3,0.967 0.7,2.267 1.2,3.9 0.467,-0.267 0.917,-0.483 1.35,-0.65 -0.467,-1.233 -0.867,-2.15 -1.2,-2.75 l 0.15,-0.15 c 0.034,0 0.133,0.1 0.3,0.3 0.267,0.333 0.6,1.15 1,2.45 0.133,0 0.267,-0.05 0.4,-0.15 0.133,0 1.2,-0.433 3.2,-1.3 1.767,-0.733 3.117,-1.183 4.05,-1.35 0,-0.333 0,-0.65 0,-0.95 0.233,-3 0.35,-4.9 0.35,-5.7 0.066,1.333 0.033,3.533 -0.1,6.6 0.567,-0.1 1.2,-0.083 1.9,0.05 0,-0.133 0.017,-0.283 0.05,-0.45 0.9,-3.833 1.767,-6.583 2.6,-8.25 -0.733,3.167 -1.3,5.6 -1.7,7.3 -0.133,0.533 -0.267,1.067 -0.4,1.6 0.667,0.133 1.4,0.383 2.2,0.75 0.533,0.267 1.017,0.467 1.45,0.6 0.467,-0.8 0.917,-1.717 1.35,-2.75 1.066,-2.534 1.683,-4.367 1.85,-5.5 0.1,1.367 -0.517,3.517 -1.85,6.45 -0.333,0.733 -0.633,1.417 -0.9,2.05 1.267,0.566 2.034,0.867 2.3,0.9 0.066,0 0.1,0.017 0.1,0.05 0.733,-0.8 1.517,-1.7 2.35,-2.7 1.534,-1.8 2.317,-2.717 2.35,-2.75 -0.233,0.333 -1.083,1.466 -2.55,3.4 -0.7,0.9 -1.283,1.617 -1.75,2.15 1.1,0.3 2.25,0.833 3.45,1.6 l 4.2,-3.6 c 0.033,0.167 -0.05,0.4 -0.25,0.7 -1.133,0.9 -2.233,1.783 -3.3,2.65 -0.167,0.133 -0.317,0.25 -0.45,0.35 l 0.05,0.05 c 0.467,0.3 0.9,0.6 1.3,0.9 l 4.15,-2.5 c 0,0.133 -0.483,0.583 -1.45,1.35 z m -32.8,29.049 c 0.233,0.8 0.167,1.617 -0.2,2.45 0.2,0.067 0.95,0.167 2.25,0.3 0.067,-0.066 0.1,-0.167 0.1,-0.3 0.133,-0.033 0.283,-0.117 0.45,-0.25 0.133,-0.1 0.033,-0.55 -0.3,-1.35 -0.3,-0.767 -0.533,-1.267 -0.7,-1.5 -0.267,-0.3 -0.617,-0.483 -1.05,-0.55 h -0.1 c -0.034,-0.067 -0.1,-0.1 -0.2,-0.1 -0.367,-0.3 -0.65,-0.467 -0.85,-0.5 0.267,0.734 0.467,1.334 0.6,1.8 z"
   id="path74"
   style="fill-rule:evenodd" />
</g>
</svg>