<?xml version="1.0" standalone="no"?>
<!DOCTYPE svg PUBLIC "-//W3C//DTD SVG 20010904//EN"
 "http://www.w3.org/TR/2001/REC-SVG-20010904/DTD/svg10.dtd">
<svg version="1.0" xmlns="http://www.w3.org/2000/svg"
 width="183.000000pt" height="63.000000pt" viewBox="0 0 183.000000 63.000000"
 preserveAspectRatio="xMidYMid meet">
<metadata>
Created by potrace 1.16, written by Peter Selinger 2001-2019
</metadata>
<g transform="translate(0.000000,63.000000) scale(0.100000,-0.100000)"
fill="#000000" stroke="none">
<path d="M809 588 c-20 -18 -51 -59 -68 -90 -18 -32 -35 -58 -37 -58 -2 0 -1
18 2 39 5 31 2 43 -14 59 -46 46 -156 52 -212 12 -15 -10 -41 -46 -58 -78
l-32 -59 -69 -7 c-126 -11 -281 -73 -281 -111 0 -8 -7 -18 -16 -23 -24 -13
-11 -56 22 -71 15 -6 79 -21 143 -32 149 -25 147 -24 162 -62 7 -18 21 -44 31
-60 18 -25 24 -27 89 -27 38 0 69 4 69 8 0 5 -38 29 -85 55 -92 52 -115 73
-69 64 16 -4 107 -9 201 -13 l173 -7 36 -43 c77 -95 131 -98 414 -26 107 28
209 55 225 62 l30 11 -35 29 -35 29 33 1 c34 0 101 -25 224 -85 82 -40 98 -42
123 -15 16 18 16 26 4 101 -13 80 -13 83 16 164 15 45 25 90 22 99 -11 29 -80
19 -203 -29 -92 -37 -125 -45 -176 -45 l-63 0 38 22 c20 12 36 27 34 32 -11
33 -406 162 -552 181 -47 6 -52 4 -86 -27z"/>
</g>
</svg>
