<?xml version="1.0" standalone="no"?>
<!DOCTYPE svg PUBLIC "-//W3C//DTD SVG 20010904//EN"
 "http://www.w3.org/TR/2001/REC-SVG-20010904/DTD/svg10.dtd">
<svg version="1.0" xmlns="http://www.w3.org/2000/svg"
 width="840.000000pt" height="1536.000000pt" viewBox="0 0 840.000000 1536.000000"
 preserveAspectRatio="xMidYMid meet">
<metadata>
Created by potrace 1.16, written by Peter Selinger 2001-2019
</metadata>
<g transform="translate(0.000000,1536.000000) scale(0.100000,-0.100000)"
fill="#000000" stroke="none">
<path d="M1353 15277 c117 -117 266 -309 441 -567 52 -77 134 -179 195 -244
74 -79 116 -133 140 -181 51 -102 128 -198 353 -443 339 -367 352 -382 394
-445 23 -34 61 -96 84 -137 50 -87 80 -133 114 -175 42 -52 193 -358 207 -419
12 -56 12 -60 -8 -76 -36 -29 -157 -63 -200 -56 -177 28 -244 12 -343 -83 -58
-55 -60 -58 -60 -109 0 -78 41 -118 195 -192 196 -94 224 -102 352 -105 61 -1
132 -8 156 -16 42 -12 45 -15 42 -43 -2 -17 -14 -58 -28 -91 -26 -63 -60 -235
-56 -289 1 -17 1 -42 0 -55 -1 -23 -1 -23 -36 8 -20 17 -43 31 -53 31 -20 0
-81 -40 -141 -91 l-42 -36 10 -69 c5 -38 10 -85 10 -104 0 -19 5 -91 10 -159
6 -78 6 -133 0 -149 -6 -16 -6 -36 0 -56 5 -17 12 -99 15 -183 l6 -152 -31 -3
-31 -3 25 -36 c19 -28 27 -59 37 -145 7 -60 11 -125 9 -144 -4 -33 -6 -35 -36
-32 -42 4 -42 -9 2 -62 30 -37 35 -52 41 -114 6 -63 5 -72 -10 -72 -21 0 -20
-16 4 -55 15 -25 25 -74 40 -201 10 -93 28 -230 40 -304 12 -74 28 -182 35
-240 8 -58 19 -139 24 -180 6 -41 18 -131 26 -200 30 -233 50 -301 135 -450
11 -19 20 -51 20 -72 0 -57 20 -138 47 -192 46 -91 164 -183 256 -200 20 -4
37 -10 37 -14 0 -4 -7 -45 -15 -92 -8 -47 -22 -160 -30 -252 -8 -92 -22 -207
-31 -255 -12 -68 -14 -95 -5 -123 17 -58 31 -214 31 -355 l0 -130 -50 57 c-28
31 -101 101 -163 155 -61 54 -272 249 -467 433 -584 550 -795 742 -911 831
-42 32 -96 81 -121 109 l-44 52 -39 -26 c-21 -15 -52 -50 -68 -79 l-30 -52 21
-85 c12 -47 37 -164 57 -260 42 -208 178 -728 269 -1033 84 -277 140 -476 156
-552 6 -33 25 -89 40 -125 31 -70 60 -176 85 -309 l15 -85 -35 -73 c-34 -73
-35 -74 -67 -68 -79 13 -716 107 -948 140 -140 20 -322 40 -405 46 -82 5 -199
14 -259 19 -70 6 -115 6 -126 0 -10 -6 -29 -10 -41 -10 -21 0 -21 -1 -5 -19
16 -18 15 -23 -23 -100 l-41 -81 0 -277 c0 -153 7 -451 15 -663 21 -558 54
-1287 66 -1495 6 -99 13 -366 14 -593 l4 -413 -79 -263 c-43 -144 -102 -325
-131 -401 l-53 -140 -94 -95 c-52 -52 -106 -113 -120 -135 -14 -22 -40 -57
-58 -78 -17 -21 -46 -73 -63 -116 -29 -73 -31 -82 -20 -132 19 -92 35 -134 58
-144 11 -5 21 -13 21 -17 0 -11 105 -76 126 -78 41 -5 114 0 114 8 0 4 -10 12
-23 17 -13 6 -21 17 -19 28 2 15 -6 17 -58 17 -54 0 -64 3 -90 30 -16 16 -32
46 -36 65 -14 75 24 208 76 269 20 22 45 55 55 72 11 18 56 71 100 118 68 74
84 86 112 86 45 0 59 25 77 140 16 97 71 297 125 450 16 47 48 139 71 205 22
65 44 123 49 128 5 5 18 4 31 -3 31 -16 35 -7 17 38 -47 118 -53 204 -92 1312
-34 985 -45 1390 -48 1702 -2 257 -1 267 19 295 17 23 30 29 69 31 93 6 799
-48 813 -63 11 -10 -10 -35 -45 -54 -21 -11 -31 -20 -22 -21 9 0 41 16 70 37
l53 36 115 -18 c162 -25 499 -90 507 -97 3 -3 -4 -36 -15 -73 -12 -37 -21 -79
-21 -94 0 -14 -7 -44 -15 -66 -20 -56 -18 -140 6 -258 20 -100 62 -205 85
-214 7 -2 24 2 39 9 l27 14 -38 33 -37 33 -8 139 c-7 114 -6 152 7 207 8 37
18 83 21 102 3 23 20 51 52 83 l46 49 70 -6 c39 -3 120 -17 180 -32 61 -14
177 -36 260 -50 82 -13 190 -35 240 -49 49 -13 142 -34 205 -45 63 -12 160
-33 215 -46 60 -16 119 -24 149 -22 l49 3 -9 -115 c-15 -198 -12 -332 9 -364
16 -24 17 -33 6 -84 -27 -130 25 -519 100 -742 16 -47 32 -119 36 -160 13
-148 103 -447 184 -615 26 -55 64 -149 83 -210 53 -164 124 -319 194 -421 35
-51 76 -119 93 -151 16 -33 54 -96 84 -139 29 -43 73 -112 97 -153 57 -96 115
-158 272 -292 103 -89 134 -121 158 -167 43 -85 121 -205 211 -324 53 -71 86
-134 126 -245 11 -32 20 -43 35 -43 19 0 20 4 14 62 -4 35 -12 82 -18 106 -6
23 -8 45 -5 48 2 3 13 -28 22 -68 10 -40 24 -90 33 -111 12 -31 17 -35 29 -25
13 10 14 33 8 139 -7 123 -6 131 28 270 45 182 64 290 72 404 4 51 19 135 36
194 16 57 34 145 39 195 6 50 18 111 26 135 8 25 24 108 36 185 26 176 29 508
5 648 l-15 88 29 29 c27 27 29 35 29 103 0 40 -5 92 -10 116 -6 23 -19 104
-30 178 -11 75 -22 139 -25 143 -2 4 -14 61 -25 127 -17 95 -19 123 -9 141 19
34 5 137 -31 238 -90 252 -111 320 -135 435 -26 117 -76 329 -90 376 -6 19 -2
22 57 28 119 12 1685 19 1868 8 164 -10 593 -58 760 -85 l74 -12 19 -60 c17
-57 17 -69 2 -260 -62 -794 -116 -1314 -225 -2184 -41 -329 -65 -543 -75 -671
-3 -41 -15 -101 -27 -133 -23 -63 -20 -74 11 -57 27 14 22 27 65 -200 65 -344
84 -465 91 -580 7 -130 18 -176 46 -190 22 -12 39 -49 79 -170 l29 -85 -58
-115 c-42 -84 -66 -121 -91 -138 -42 -28 -100 -29 -125 -2 -15 16 -31 20 -83
20 l-64 0 5 -29 c3 -15 1 -33 -5 -39 -18 -18 68 -35 137 -27 33 4 92 10 130
14 85 8 116 24 177 89 51 55 69 112 72 232 1 58 -4 77 -51 180 -59 131 -86
247 -168 724 l-46 270 11 245 c12 275 36 509 115 1101 102 765 195 1712 199
2015 1 71 -3 88 -32 149 -25 53 -30 72 -21 83 7 7 10 14 8 16 -45 26 -74 35
-119 40 -30 3 -104 13 -165 21 -276 37 -1025 66 -1959 74 l-720 7 -33 105
c-18 58 -49 162 -69 233 l-36 127 35 83 c83 195 332 865 461 1242 152 443 177
508 223 603 l45 93 -23 45 c-42 80 -107 117 -139 79 -7 -8 -15 -15 -19 -15 -6
0 -26 56 -48 129 -3 11 -7 11 -15 3 -11 -11 -11 -15 23 -126 14 -47 12 -50
-66 -116 -42 -35 -130 -122 -197 -194 -67 -72 -219 -234 -337 -359 l-216 -229
-13 59 c-72 306 -143 576 -202 768 -57 183 -73 250 -80 328 l-8 98 -76 79 -76
80 6 82 c6 75 4 91 -21 158 -31 84 -58 280 -69 500 -4 74 -21 225 -37 335 -17
110 -39 272 -49 360 -11 88 -27 201 -35 250 -28 169 -36 260 -45 515 -9 252
-13 282 -54 402 -8 26 -25 102 -36 170 -12 68 -30 161 -41 208 -18 79 -18 89
-4 123 23 54 20 77 -9 77 -27 0 -56 33 -56 62 0 25 -68 194 -101 249 -54 93
-136 209 -142 202 -4 -3 -7 -1 -7 5 0 14 18 18 136 31 112 12 201 47 309 119
147 100 195 160 195 245 0 75 -58 125 -194 166 -85 26 -159 27 -233 2 -61 -21
-160 -41 -201 -41 -22 0 -24 3 -18 33 16 85 39 143 83 210 52 79 424 467 563
588 47 40 130 114 185 164 55 50 145 123 200 162 108 76 126 93 283 256 57 59
107 107 111 107 5 0 28 25 52 56 24 30 96 99 159 153 63 54 189 170 280 257
182 176 417 376 525 447 101 67 124 86 103 87 -63 1 -363 -239 -663 -531 -71
-69 -184 -173 -250 -230 -66 -56 -152 -135 -191 -173 -39 -39 -76 -75 -82 -81
-6 -5 -65 -67 -132 -136 -74 -78 -155 -151 -212 -192 -51 -36 -147 -114 -213
-174 -66 -59 -138 -122 -160 -140 -63 -50 -532 -524 -561 -566 -14 -22 -43
-71 -63 -110 -50 -98 -87 -154 -108 -166 -11 -5 -41 -5 -78 1 -60 10 -237 5
-286 -7 -22 -6 -27 -2 -41 32 -9 21 -22 56 -29 78 -7 22 -39 92 -72 155 -33
63 -69 133 -80 155 -10 22 -34 58 -51 80 -18 22 -59 85 -91 140 -56 96 -124
205 -135 215 -3 3 -23 28 -45 55 -22 28 -52 61 -66 75 -15 14 -103 108 -196
210 -94 102 -178 192 -188 200 -42 34 -173 211 -215 290 -31 58 -72 113 -135
179 -88 93 -150 169 -204 251 -92 139 -166 243 -211 295 -28 33 -81 101 -119
150 -80 105 -162 185 -191 185 -15 0 0 -20 63 -83z m742 -7352 c44 -35 159
-131 255 -215 96 -84 183 -158 193 -164 10 -6 68 -67 129 -136 61 -68 217
-226 347 -351 130 -124 256 -249 279 -277 44 -52 160 -157 317 -287 141 -116
127 -84 136 -317 5 -112 14 -296 20 -410 11 -197 8 -294 -12 -345 -5 -14 -4
-42 3 -73 6 -27 9 -53 5 -56 -4 -4 -62 7 -129 24 -68 16 -150 33 -183 36 -33
3 -116 21 -185 41 -69 19 -161 40 -205 46 -121 16 -505 80 -521 86 -8 3 -14
10 -14 17 0 29 22 85 40 101 29 26 25 66 -14 154 -38 83 -51 144 -66 297 -7
79 -23 143 -70 290 -95 293 -203 674 -270 954 -34 140 -84 341 -111 447 -27
105 -49 196 -49 203 0 15 9 9 105 -65z m3685 -409 c0 -13 -165 -496 -326 -956
-42 -118 -109 -301 -149 -405 -41 -105 -77 -203 -80 -218 -9 -36 -25 -45 -25
-15 0 24 -72 387 -129 656 -24 112 -29 148 -20 164 33 62 562 655 661 741 56
49 68 55 68 33z m-340 -6378 c-1 -58 -2 -61 -15 -44 -17 23 -19 45 -5 80 15
40 20 31 20 -36z"/>
</g>
</svg>
