<?xml version="1.0" encoding="UTF-8" standalone="no"?>
<!-- Created with Inkscape (http://www.inkscape.org/) -->

<svg
   xmlns:svg="http://www.w3.org/2000/svg"
   xmlns="http://www.w3.org/2000/svg"
   version="1.1"
   width="486.06998"
   height="314.78403"
   viewBox="0 0 486.06998 314.78403"
   id="svg4829"
   xml:space="preserve"><defs
     id="defs4833" /><g
     transform="matrix(1.25,0,0,-1.25,-91.470034,332.6999)"
     id="g4837"><g
       transform="scale(0.1,0.1)"
       id="g4839"><path
         d="m 1138.08,2643.25 c -4.16,-10.63 -0.86,-54.32 7.45,-98.5 11.22,-59.69 11.81,-91.09 2.38,-126.55 -6.91,-26 -18.96,-127.74 -26.86,-226.83 -11.8,-148.05 -19.35,-189.77 -42.85,-236.99 -39.23,-78.79 -157.638,-184.93 -186.372,-167.04 -11.234,6.99 -69.008,-19.2 -81.84,-37.11 -4.261,-5.94 -20.238,-11.81 -35.758,-13.14 -15.519,-1.32 -32.855,-3.15 -38.8,-4.11 -15.008,-2.41 19.101,-39.53 46.562,-50.67 22.84,-9.26 22.684,-9.71 -3.582,-10.29 -42.66,-0.95 -29.848,-23.94 27.457,-49.26 74.024,-32.71 76.352,-44.67 9.555,-49.05 l -57.309,-3.76 74.617,-29.84 c 65.665,-26.27 72.184,-31.64 54.325,-44.77 -11.278,-8.3 -29.848,-14.93 -41.789,-14.93 -11.938,0 -21.489,-4.77 -21.489,-10.74 0,-17.91 47.504,-28.35 64.469,-14.17 8.359,6.98 18.828,9.67 22.684,5.81 3.929,-3.93 23.879,6.8 44.175,23.75 42.977,35.9 69.435,40.32 79.375,13.26 3.51,-9.55 10.48,-15.48 14.94,-12.71 18.38,11.44 154.01,-33.07 228.03,-74.83 42.98,-24.25 96.25,-51.78 119.39,-61.69 23.02,-9.87 105.06,-59.74 182.66,-111.04 77.14,-50.99 234.6,-140.93 348.02,-198.78 113.42,-57.852 231.71,-122.403 261.46,-142.665 29.84,-20.335 61.85,-37.011 71.04,-37.011 9.21,0 42.98,-13.403 75.21,-29.848 32.23,-16.445 62.25,-29.848 66.86,-29.848 25.87,0 368.91,-156.875 522.92,-239.14 22.84,-12.199 82.37,-34.11 131.32,-48.328 94.32,-27.403 151.72,-58.934 238.78,-131.176 29.59,-24.551 90.73,-67.012 136.1,-94.504 82.38,-49.926 114.61,-75.172 114.61,-89.762 0,-3.82 8.36,-15.519 17.91,-25.07 15.67,-15.668 18.83,-15.52 25.26,1.195 11.72,30.489 88.16,19.102 88.16,-13.133 0,-27.335 33.39,-19.101 43.57,10.747 4.89,14.324 7.6,30.875 5.98,36.41 -1.58,5.343 0.49,20.894 4.36,32.832 10.84,33.48 51.59,28.652 60.47,-7.164 4.14,-16.711 12.65,-29.844 19.33,-29.844 12.26,0 7.81,53.723 -8.69,105.059 -7.68,23.878 -5.53,27.957 12.87,24.476 12.37,-2.34 25.81,-17.312 30.54,-34.027 8.93,-31.571 9.92,-31.039 17.67,9.551 7.7,40.339 -22.54,89.406 -83.43,135.359 -58.5,44.152 -86.09,84.332 -72.67,105.805 4.58,7.332 19.55,9.703 33.87,5.375 23.88,-7.219 24.32,-6.344 6.26,12.535 -20.56,21.488 -59.39,26.086 -102.37,12.117 -22.94,-7.457 -27.92,-1.969 -39.39,43.398 -7.3,28.852 -25.87,99.688 -41.79,159.383 -15.92,59.692 -31.81,126.02 -35.75,149.235 -7.52,44.171 -15,77.603 -17.37,77.603 -0.96,0 -4.31,12.53 -7.17,26.86 -2.87,14.33 -0.91,26.86 4.18,26.86 8.87,0 151.62,-51.03 282.95,-101.159 87.15,-33.262 292.41,-125.446 358.16,-160.848 38.21,-20.57 58.5,-24.082 101.48,-17.547 87.16,13.254 158.8,7.809 170.33,-12.945 5.31,-9.551 17.47,-17.906 26.07,-17.906 8.59,0 19.31,-8.356 22.96,-17.911 13.33,-34.82 33.75,-17.906 28.83,23.879 -5.06,42.981 19.62,60.492 33.65,23.879 12.25,-31.972 41.7,2.387 32.75,38.203 -6.57,26.266 -4.55,29.848 13.13,23.282 17.68,-6.567 19.7,-2.985 13.14,23.281 -5.08,20.297 -3.43,28.355 4.77,23.281 7.16,-4.437 12.54,-2.644 12.54,4.176 0,7.164 -4.78,14.805 -11.94,19.101 -7.17,4.301 -9.32,11.704 -5.37,18.508 3.93,6.805 11.1,8.715 17.9,4.774 6.81,-3.938 11.35,-1.789 11.35,5.375 0,14.386 -27.46,29.836 -94.32,53.07 -56.72,19.707 -95.51,12.987 -165.95,-28.75 -101.28,-60.016 -177.29,-30.293 -313.32,122.527 -98.83,111.03 -102.41,114.6 -170.2,169.47 -33.43,27.07 -56.12,55.32 -56.12,69.9 0,23.06 5.38,24.06 92.53,17.31 51.34,-3.97 108.74,-10.61 128.94,-14.92 30.51,-6.5 43.58,-0.82 80.59,35.06 60.03,58.2 57.3,85.49 -15.52,155.38 -47.76,45.83 -58.31,62.78 -52.75,84.75 8.86,34.97 -20.08,91.26 -60.67,118.02 -16.72,11.02 -50.46,41.96 -73.1,67.03 -74.43,82.38 -147.77,114.38 -147.77,64.47 0,-9.55 -6.65,-17.13 -15.52,-17.68 -195.8,-12.19 -299.92,-10.31 -317.57,5.74 -17.3,15.72 -118.19,65.6 -150.43,74.36 -6.5,1.76 -54.92,14.12 -106.26,27.12 -51.33,13 -106.01,35.03 -119.98,48.35 -14.33,13.66 -34.11,24.48 -44.77,24.48 -10.75,0 -25.37,7.83 -33.43,17.91 -7.64,9.55 -21.29,17.9 -29.25,17.9 -8.25,0 -26.39,12.54 -40.59,28.06 -14.32,15.65 -53.13,40.04 -87.75,55.15 -97.9,42.71 -154.89,74.14 -207.74,114.56 -33.28,25.45 -68.05,39.72 -108.64,44.59 -32.38,3.88 -91.93,19.1 -130.13,33.25 -87.74,32.5 -181.47,54.4 -327.13,76.45 -250.71,37.95 -694.52,164.34 -832.13,236.99 -47.75,25.2 -73.59,25.43 -83.26,0.73"
         id="path4841"
         style="fill:#000000;fill-opacity:1;fill-rule:nonzero;stroke:none" /></g></g></svg>