<?xml version="1.0" standalone="no"?>
<!DOCTYPE svg PUBLIC "-//W3C//DTD SVG 20010904//EN"
 "http://www.w3.org/TR/2001/REC-SVG-20010904/DTD/svg10.dtd">
<svg version="1.0" xmlns="http://www.w3.org/2000/svg"
 width="777.000000pt" height="1536.000000pt" viewBox="0 0 777.000000 1536.000000"
 preserveAspectRatio="xMidYMid meet">
<metadata>
Created by potrace 1.16, written by Peter Selinger 2001-2019
</metadata>
<g transform="translate(0.000000,1536.000000) scale(0.100000,-0.100000)"
fill="#000000" stroke="none">
<path d="M2335 15346 c-164 -32 -410 -114 -562 -188 -56 -27 -106 -50 -110
-50 -4 -1 -13 -8 -20 -17 -10 -14 -48 -16 -295 -17 -426 -2 -599 -24 -843
-105 -327 -109 -473 -218 -500 -374 -7 -38 -6 -39 9 -19 8 12 37 32 63 45 45
22 58 24 208 23 161 -1 487 -31 645 -60 342 -61 583 -215 660 -421 35 -94 71
-331 72 -473 1 -144 -13 -217 -65 -330 -75 -166 -97 -283 -97 -524 0 -167 27
-545 50 -696 19 -122 56 -266 105 -410 224 -652 495 -1075 955 -1493 80 -72
273 -258 429 -412 689 -678 727 -719 911 -964 55 -72 107 -132 124 -140 38
-18 91 -2 130 38 71 74 34 188 -121 378 -25 30 -43 57 -40 59 6 6 123 -71 178
-117 86 -72 178 -208 227 -338 62 -162 84 -299 107 -661 30 -476 80 -784 196
-1220 53 -201 80 -342 143 -745 70 -449 89 -541 186 -885 101 -355 113 -407
195 -820 93 -473 242 -1100 274 -1158 10 -18 60 117 103 278 42 159 38 148 48
130 27 -49 69 -283 140 -778 60 -412 79 -571 74 -612 -8 -75 -26 -137 -95
-327 -160 -443 -127 -743 141 -1280 122 -246 244 -421 381 -547 78 -72 126
-95 200 -96 147 0 257 129 277 323 l7 71 82 -125 c115 -177 191 -241 323 -275
141 -36 255 0 364 116 87 93 132 162 156 239 48 154 15 266 -177 591 -130 221
-218 390 -471 900 -132 267 -259 513 -281 547 -23 34 -59 72 -79 84 -47 29
-47 29 -77 121 -51 160 -64 259 -75 564 -6 159 -13 312 -16 339 -5 45 -2 57
25 101 66 105 54 178 -70 431 -147 301 -236 537 -433 1157 -158 493 -161 506
-220 741 -56 225 -113 504 -171 845 -25 146 -106 568 -181 939 -74 370 -138
701 -141 735 -4 51 -2 71 16 112 31 69 40 47 48 -122 6 -134 7 -137 20 -99 16
47 66 244 83 329 l12 60 19 -25 c35 -43 62 -102 80 -169 l17 -65 22 49 c19 42
23 75 30 235 9 194 13 222 60 436 55 247 71 390 77 667 11 507 -47 856 -231
1409 -107 318 -130 427 -181 859 -68 572 -137 809 -312 1079 -92 141 -157 216
-428 491 -190 192 -286 298 -350 385 -111 151 -124 165 -215 232 -91 66 -102
79 -244 268 -63 83 -152 193 -199 246 -242 270 -536 442 -847 494 -133 22
-435 28 -525 11z m3725 -11701 c88 -204 156 -454 186 -679 13 -102 24 -146 24
-100 0 42 40 627 43 630 5 5 166 -431 182 -492 8 -33 19 -108 25 -169 12 -121
16 -141 60 -274 17 -51 30 -112 30 -140 0 -27 -19 -134 -42 -237 l-43 -189 2
-250 2 -250 -63 155 c-143 349 -223 509 -342 675 -47 66 -97 139 -110 162 -53
89 -85 214 -104 409 -16 167 -48 395 -76 538 -14 70 -23 130 -20 133 2 3 34
-54 69 -125 56 -114 112 -264 132 -356 11 -53 13 -22 4 69 -26 256 -69 705
-69 712 1 14 61 -106 110 -222z"/>
</g>
</svg>
