<?xml version="1.0" standalone="no"?>
<!DOCTYPE svg PUBLIC "-//W3C//DTD SVG 20010904//EN"
 "http://www.w3.org/TR/2001/REC-SVG-20010904/DTD/svg10.dtd">
<svg version="1.0" xmlns="http://www.w3.org/2000/svg"
 width="304.000000pt" height="636.000000pt" viewBox="0 0 304.000000 636.000000"
 preserveAspectRatio="xMidYMid meet">
<metadata>
Created by potrace 1.16, written by Peter Selinger 2001-2019
</metadata>
<g transform="translate(0.000000,636.000000) scale(0.100000,-0.100000)"
fill="#000000" stroke="none">
<path d="M2570 6350 c-14 -4 -39 -8 -56 -9 -18 -1 -39 -10 -53 -25 -25 -27
-51 -103 -51 -152 0 -38 -32 -94 -77 -137 -18 -17 -33 -36 -33 -42 0 -6 -13
-21 -30 -33 -16 -12 -33 -34 -36 -48 -4 -13 -19 -38 -35 -54 -16 -15 -29 -36
-29 -44 0 -9 -5 -16 -11 -16 -5 0 -19 -20 -30 -44 -10 -24 -26 -46 -34 -50 -8
-3 -20 -17 -27 -30 -16 -36 -93 -116 -111 -116 -16 0 -67 -54 -67 -71 0 -5
-11 -9 -24 -9 -14 0 -38 -11 -54 -25 -38 -32 -47 -31 -68 5 -22 36 -86 83
-138 100 -42 14 -164 8 -226 -12 -42 -12 -94 -60 -111 -99 -14 -35 -38 -37
-69 -5 -12 14 -35 28 -50 31 -17 4 -37 20 -51 43 -17 25 -33 38 -52 40 -15 2
-27 7 -27 12 0 5 -16 26 -36 47 -20 21 -42 50 -50 65 -8 16 -19 28 -24 28 -6
0 -19 20 -31 45 -12 25 -25 45 -30 45 -5 0 -15 16 -23 35 -8 19 -22 38 -30 41
-8 3 -17 17 -20 30 -6 24 -35 60 -104 128 -17 18 -32 37 -32 43 0 6 -8 21 -19
34 -10 13 -22 49 -26 79 -8 61 -34 128 -56 147 -9 7 -46 14 -84 15 l-69 3 -25
-47 c-23 -42 -24 -50 -12 -87 14 -47 61 -105 102 -127 19 -9 29 -23 29 -37 0
-26 26 -60 58 -76 12 -7 22 -18 22 -26 0 -8 13 -24 29 -36 16 -12 32 -32 35
-45 4 -13 17 -31 31 -40 14 -9 25 -26 25 -38 0 -13 11 -33 25 -46 14 -13 25
-29 25 -35 0 -6 14 -24 30 -40 16 -16 30 -35 30 -42 0 -8 18 -31 40 -53 22
-22 40 -43 40 -48 0 -5 16 -20 35 -33 19 -13 40 -38 46 -56 6 -18 24 -42 40
-54 16 -11 29 -29 29 -39 0 -25 43 -75 77 -89 25 -10 28 -17 27 -54 0 -23 -5
-53 -11 -67 -6 -14 -13 -45 -17 -70 -6 -37 -14 -50 -46 -72 -58 -40 -84 -98
-77 -171 3 -39 14 -71 30 -96 l26 -39 -31 -28 c-48 -47 -54 -65 -28 -86 24
-20 80 -24 96 -8 8 8 15 6 23 -4 20 -23 4 -36 -44 -36 -35 0 -52 -6 -80 -32
-59 -51 -78 -100 -73 -180 3 -37 4 -69 2 -71 -2 -2 -24 16 -49 40 l-45 43 39
102 c21 57 46 135 56 173 21 84 41 132 60 142 18 11 9 173 -10 173 -7 0 -18
13 -23 29 -6 15 -27 45 -47 65 l-37 38 7 84 c5 60 3 89 -5 99 -9 11 -8 21 8
47 14 24 17 39 11 56 -7 19 -16 22 -58 22 -42 0 -53 -4 -74 -30 -23 -27 -25
-38 -26 -130 0 -86 4 -115 30 -193 16 -51 36 -102 44 -114 13 -19 13 -26 0
-50 -61 -119 -73 -174 -117 -523 -17 -137 -15 -158 27 -240 37 -74 137 -207
162 -217 23 -9 42 -69 37 -115 -3 -24 -5 -72 -5 -108 2 -92 -4 -97 -73 -71
-73 27 -145 28 -179 1 -39 -31 -78 -114 -114 -245 -51 -181 -73 -284 -73 -348
0 -32 -3 -56 -8 -53 -4 2 -58 0 -120 -5 -101 -8 -147 -19 -192 -48 -8 -5 -28
-13 -43 -16 -41 -8 -77 -51 -77 -91 0 -88 62 -123 105 -58 10 16 25 24 44 24
16 0 55 16 87 35 60 37 92 43 112 23 13 -13 156 -17 190 -5 17 6 22 5 22 -7 0
-39 42 5 55 57 4 14 13 28 21 31 17 7 18 40 2 66 -10 15 -9 35 1 92 7 40 16
126 21 191 5 66 11 122 15 125 10 10 71 -28 115 -73 l43 -44 -31 -35 c-22 -25
-41 -67 -63 -139 -17 -56 -46 -144 -65 -195 -62 -169 -69 -231 -68 -652 l1
-376 -67 -37 c-91 -52 -186 -139 -200 -183 -14 -41 -6 -96 15 -114 8 -7 15
-24 15 -39 0 -81 55 -380 81 -440 10 -24 19 -47 19 -51 0 -12 -48 -27 -125
-41 -75 -12 -130 -31 -155 -53 -8 -8 -26 -17 -40 -21 -36 -11 -78 -53 -86 -87
-4 -20 0 -41 12 -64 29 -54 71 -56 97 -3 9 16 24 26 48 30 19 3 51 17 70 32
55 41 105 60 130 46 38 -20 136 8 186 53 16 15 25 17 41 9 18 -10 20 -6 25 72
4 60 3 85 -7 92 -23 18 -44 69 -61 145 -10 41 -34 120 -55 175 l-38 99 44 33
c23 18 45 33 48 33 3 0 6 -42 6 -92 0 -55 9 -130 20 -182 26 -117 134 -438
201 -600 52 -123 56 -130 94 -146 31 -14 53 -36 98 -103 122 -181 275 -327
376 -362 126 -43 239 -5 370 124 72 70 191 221 236 298 13 22 28 33 52 38 24
4 40 16 54 38 21 35 130 307 150 375 16 55 29 37 29 -40 0 -53 10 -72 25 -49
3 5 27 -5 54 -23 53 -36 119 -51 173 -41 41 8 79 -6 132 -48 25 -20 52 -32 70
-32 22 0 33 -7 46 -30 24 -43 61 -45 90 -5 17 24 21 40 17 68 -7 41 -55 92
-87 92 -10 0 -22 5 -25 10 -13 21 -84 49 -151 60 -71 12 -144 30 -144 37 0 2
7 20 16 41 23 53 41 126 53 217 24 165 44 271 57 290 18 26 18 89 -1 124 -17
34 -122 124 -185 159 l-45 25 3 361 c4 465 -3 545 -67 736 -27 80 -58 177 -70
215 -12 39 -33 86 -46 107 l-24 36 54 46 c53 46 122 83 133 71 3 -3 9 -54 13
-113 4 -59 13 -137 20 -174 10 -55 10 -75 -1 -108 -11 -34 -11 -42 2 -57 8
-10 25 -39 37 -66 21 -44 41 -54 41 -21 0 12 5 13 23 7 35 -13 174 -8 191 6
21 17 62 7 116 -29 25 -17 58 -30 75 -30 22 0 37 -9 56 -31 21 -26 31 -31 51
-26 28 7 48 44 48 88 0 36 -56 99 -88 99 -12 0 -36 9 -55 20 -40 24 -117 38
-221 41 l-73 3 -7 85 c-3 47 -15 118 -26 156 -11 39 -31 113 -45 165 -31 117
-67 208 -95 237 -37 39 -100 40 -204 5 -50 -17 -92 -29 -94 -27 -2 2 -5 50 -7
107 -2 57 -6 110 -10 119 -3 10 -2 20 4 24 6 3 11 17 11 31 0 17 18 44 56 82
58 59 120 155 150 231 18 46 19 28 -17 341 -6 52 -15 111 -19 130 -26 106 -35
138 -55 187 -13 30 -27 59 -33 65 -7 7 -4 20 8 42 10 17 31 67 45 110 22 65
27 99 28 188 1 106 0 109 -28 138 -23 24 -37 30 -70 30 -22 0 -46 -5 -53 -12
-17 -17 -15 -53 3 -68 18 -15 19 -42 3 -58 -8 -8 -8 -28 0 -81 14 -79 11 -89
-31 -134 -16 -17 -36 -47 -44 -65 -7 -18 -18 -30 -23 -27 -6 3 -10 1 -10 -4 0
-20 -16 -11 -34 19 -10 17 -33 41 -51 53 -27 18 -35 30 -40 67 -4 25 -13 55
-21 67 -7 12 -13 42 -12 68 2 42 5 47 44 70 25 15 46 37 54 57 8 18 29 50 47
71 18 20 33 42 33 49 0 6 18 26 40 45 22 19 40 39 40 44 0 5 16 23 35 40 19
17 35 36 35 43 0 7 16 27 35 46 19 19 35 40 35 47 0 6 11 23 25 37 14 14 25
34 25 45 0 11 9 25 19 31 11 5 23 20 26 32 4 13 21 38 39 55 17 18 40 42 51
53 11 12 28 29 38 38 10 9 21 29 24 44 3 17 18 35 38 47 41 24 80 76 93 122 8
30 6 44 -9 75 -18 39 -43 75 -50 73 -2 -1 -15 -5 -29 -9z m-487 -1673 c8 -29
24 -83 35 -122 11 -38 33 -105 49 -148 26 -73 27 -79 10 -88 -9 -6 -28 -22
-41 -36 l-24 -25 1 64 c1 113 -67 198 -159 198 -44 0 -64 14 -46 32 7 7 20 7
43 -1 27 -9 37 -8 63 7 43 25 43 44 1 91 l-37 40 21 30 c12 16 21 35 21 42 0
29 49 -36 63 -84z m367 -3298 c0 -4 -16 -49 -36 -100 -20 -52 -46 -133 -58
-180 -21 -82 -51 -147 -63 -136 -3 3 7 41 21 84 33 100 63 231 72 310 l7 63
28 -17 c16 -10 29 -20 29 -24z"/>
</g>
</svg>
