<?xml version="1.0" standalone="no"?>
<!DOCTYPE svg PUBLIC "-//W3C//DTD SVG 20010904//EN"
 "http://www.w3.org/TR/2001/REC-SVG-20010904/DTD/svg10.dtd">
<svg version="1.0" xmlns="http://www.w3.org/2000/svg"
 width="1536.000000pt" height="805.000000pt" viewBox="0 0 1536.000000 805.000000"
 preserveAspectRatio="xMidYMid meet">
<metadata>
Created by potrace 1.16, written by Peter Selinger 2001-2019
</metadata>
<g transform="translate(0.000000,805.000000) scale(0.100000,-0.100000)"
fill="#000000" stroke="none">
<path d="M13004 8028 c-5 -7 -29 -52 -54 -99 -37 -73 -46 -84 -56 -71 -10 14
-12 14 -22 -4 -5 -10 -17 -44 -26 -75 -10 -33 -36 -82 -66 -121 -27 -36 -60
-91 -74 -122 -14 -31 -29 -56 -34 -56 -20 0 -45 30 -80 94 -55 101 -88 98 -42
-3 21 -44 18 -70 -3 -39 -7 9 -18 25 -25 35 -11 16 -12 16 -6 -6 3 -13 2 -21
-3 -18 -5 3 -7 -9 -5 -27 4 -31 2 -33 -22 -29 -19 4 -26 1 -26 -11 0 -22 -69
-15 -103 10 -36 26 -34 31 13 39 22 4 38 10 35 15 -3 5 1 11 7 13 22 9 -65 7
-103 -2 -40 -9 -106 8 -120 31 -9 13 3 26 47 55 18 12 18 12 0 6 -13 -4 -17
-3 -12 5 10 16 7 15 -58 -9 -39 -15 -65 -19 -91 -15 -44 9 -44 18 1 40 26 12
34 20 26 28 -7 7 -30 6 -76 -5 -51 -12 -76 -13 -104 -5 l-37 11 33 14 c18 7
30 18 27 23 -4 6 1 7 11 3 12 -4 15 -3 10 5 -4 7 -32 12 -67 12 -44 0 -67 5
-87 20 -40 30 -195 86 -277 100 -44 8 -123 11 -210 8 -115 -4 -151 -9 -200
-28 -81 -31 -168 -93 -210 -149 -18 -25 -45 -57 -59 -70 l-26 -24 -117 56
c-158 74 -240 107 -193 77 13 -9 13 -10 0 -10 -8 -1 33 -26 93 -56 59 -30 107
-57 107 -59 0 -3 -8 -2 -17 4 -49 25 -274 63 -363 60 l-35 -1 30 -8 30 -8 -30
-2 c-16 -1 11 -8 60 -16 121 -17 209 -42 234 -65 27 -25 27 -39 0 -39 -17 0
-19 -3 -10 -14 10 -12 9 -13 -7 -9 -11 2 -23 0 -27 -6 -7 -13 88 -61 122 -61
12 0 25 -5 28 -10 9 -15 -64 4 -139 35 -15 6 -17 5 -11 -5 6 -10 4 -12 -8 -7
-40 15 -11 -6 51 -37 38 -19 74 -41 81 -50 12 -14 10 -16 -12 -16 -13 0 -44 7
-67 15 -56 20 -61 19 -26 -4 l29 -19 -29 -4 c-25 -3 -22 -6 28 -21 52 -16 91
-49 71 -60 -5 -2 -39 2 -78 8 -38 7 -71 11 -73 10 -2 -2 21 -11 50 -20 29 -10
59 -22 66 -28 25 -20 11 -26 -30 -11 -63 22 -57 9 11 -25 34 -17 61 -36 61
-41 0 -6 -17 -38 -38 -73 -71 -116 -64 -108 -84 -90 -10 9 -18 22 -18 29 0 7
-6 11 -14 8 -9 -3 -21 5 -30 19 -9 13 -28 29 -41 35 -15 7 -33 30 -45 57 -21
49 -36 60 -26 20 6 -25 6 -25 -61 12 -38 21 -95 57 -128 81 -33 24 -87 57
-120 73 -33 16 -49 21 -35 12 64 -45 116 -112 73 -96 -12 5 -14 3 -8 -8 9 -14
-18 7 -140 104 -33 26 -96 69 -139 94 -83 49 -253 113 -296 112 l-25 0 25 -11
c203 -89 334 -167 426 -255 54 -51 44 -48 -19 5 -49 41 -168 101 -280 141 -95
33 -111 37 -87 20 11 -8 8 -9 -15 -5 -36 7 -30 4 100 -52 101 -42 258 -139
249 -153 -10 -17 -59 -9 -122 21 -80 37 -84 37 -37 0 52 -41 37 -38 -59 15
-112 61 -213 101 -325 131 -83 21 -204 33 -189 18 3 -3 65 -20 138 -39 72 -19
164 -51 203 -71 85 -42 107 -60 51 -40 -56 21 -293 85 -335 92 -20 4 -39 2
-43 -4 -3 -5 44 -27 112 -50 64 -22 142 -52 172 -66 l55 -26 -40 3 c-22 2 -48
-1 -57 -7 -16 -10 -48 -5 -113 18 l-20 8 20 -13 c19 -13 19 -14 -10 -20 -62
-14 -108 -9 -173 20 -93 40 -142 48 -59 10 37 -18 67 -36 67 -40 0 -22 -84 -7
-151 27 -88 44 -266 104 -309 104 -61 0 -24 -24 92 -61 102 -32 188 -71 188
-86 0 -2 -14 -2 -31 2 -24 6 -30 4 -24 -6 6 -9 -7 -11 -64 -5 -48 4 -70 3 -66
-4 11 -18 -24 -23 -71 -11 -51 13 -71 7 -33 -9 20 -8 17 -10 -23 -8 -25 2 -44
0 -42 -4 10 -16 -81 -18 -189 -3 -65 8 -144 15 -175 14 l-57 -1 80 -13 c44 -7
100 -18 125 -25 l45 -13 -55 -14 c-50 -14 -68 -13 -215 7 -166 23 -341 24
-395 2 -20 -9 -3 -11 76 -11 92 -1 230 -19 309 -40 l30 -8 -41 -12 c-32 -9
-62 -8 -140 4 -55 8 -159 14 -234 14 l-135 -2 120 -13 c66 -7 149 -18 185 -25
l65 -12 -30 -13 c-16 -7 -42 -13 -56 -14 -14 0 -29 -3 -33 -7 -4 -4 -71 -28
-149 -53 l-142 -46 109 -8 c62 -4 118 -13 130 -21 12 -8 42 -19 68 -25 31 -8
45 -16 42 -25 -4 -10 -16 -8 -52 11 -62 31 -232 53 -477 61 -313 9 -513 -14
-785 -93 -103 -29 -150 -37 -270 -44 -156 -10 -335 -29 -550 -60 -147 -21
-375 -40 -483 -40 -48 0 -73 -5 -84 -15 -8 -9 -13 -19 -9 -22 3 -4 68 -1 143
5 76 6 183 14 238 17 55 4 132 13 170 20 123 25 517 65 643 65 37 0 86 8 119
20 61 21 87 26 63 10 -27 -17 -5 -19 90 -10 136 14 270 38 363 65 45 13 83 22
86 20 2 -3 -2 -12 -10 -21 -13 -16 -10 -17 39 -10 35 4 59 3 67 -4 18 -15 91
-28 275 -48 116 -13 145 -18 115 -23 -39 -5 -39 -5 -10 -11 17 -3 -15 -4 -70
-2 -110 4 -74 -8 65 -20 56 -5 71 -4 60 5 -12 8 -8 9 19 5 18 -3 38 -6 44 -6
5 0 -2 -9 -17 -21 -14 -11 -26 -29 -26 -40 0 -16 7 -19 48 -19 l47 0 -28 -15
c-16 -8 -43 -14 -60 -12 -29 2 -32 -1 -35 -28 -4 -30 -31 -59 -45 -46 -4 4
-11 21 -16 38 -8 26 -6 35 10 49 37 34 20 43 -30 16 -27 -15 -47 -30 -45 -34
10 -16 -18 -8 -43 12 -26 21 -48 27 -39 11 3 -5 -17 0 -45 10 -30 12 -56 16
-61 11 -5 -5 9 -14 34 -22 38 -12 40 -14 18 -18 -14 -2 -28 -8 -31 -13 -3 -5
-14 -1 -25 8 -15 14 -39 18 -119 20 -63 1 -91 -2 -75 -7 22 -7 21 -8 -12 -9
-28 -1 -38 3 -38 14 0 16 -21 20 -34 8 -4 -5 -38 -8 -74 -8 -53 0 -67 -3 -67
-15 0 -9 13 -17 35 -20 27 -4 30 -7 15 -11 -16 -5 -89 6 -293 40 -2 1 0 6 3
11 3 6 2 10 -4 10 -5 0 -12 -6 -14 -12 -4 -8 -6 -9 -6 -2 -1 8 -18 10 -48 8
-53 -4 -61 -8 101 50 91 32 101 34 112 19 10 -15 14 -13 29 17 l17 33 -24 -6
c-12 -4 -40 -7 -60 -7 -20 0 -43 -6 -50 -13 -21 -21 -50 -28 -64 -16 -8 6 -11
15 -8 20 8 14 -23 11 -63 -6 -19 -8 -37 -15 -39 -15 -2 0 -4 7 -4 15 0 19 -11
19 -36 0 -10 -8 -23 -14 -29 -15 -5 0 -3 5 5 10 13 8 12 10 -4 10 -17 0 -91
-39 -84 -45 2 -1 45 2 97 7 52 4 96 7 98 5 2 -2 -31 -17 -73 -32 -70 -26 -84
-27 -178 -22 -163 9 -306 29 -322 44 -12 12 -17 12 -36 -1 -15 -10 -44 -16
-85 -16 -82 0 -89 -16 -10 -25 34 -4 154 -17 267 -31 113 -13 222 -24 243 -24
21 0 36 -4 33 -9 -11 -16 -81 -24 -201 -22 -104 2 -148 -3 -330 -38 -115 -22
-262 -47 -325 -55 -213 -29 -224 -38 -35 -25 81 5 133 5 141 -2 7 -6 15 -4 24
6 8 10 30 15 61 15 27 0 119 16 205 35 139 31 172 35 300 35 112 0 150 3 168
15 36 24 131 28 237 11 161 -26 202 -37 190 -49 -6 -6 -95 -39 -198 -75 -140
-47 -175 -62 -138 -58 54 5 286 76 349 107 22 10 49 19 60 19 33 0 144 -34
146 -44 1 -5 -12 -17 -28 -25 -17 -9 -54 -30 -84 -48 -65 -38 -99 -36 -116 9
l-11 31 -61 -7 c-73 -8 -125 -26 -195 -66 -37 -21 -67 -30 -101 -31 -27 -1
-40 -4 -30 -6 14 -4 15 -7 6 -13 -7 -4 -9 -16 -5 -29 7 -24 25 -28 25 -6 0 8
10 17 23 20 37 8 181 24 185 20 3 -2 -8 -15 -23 -29 l-28 -26 28 0 c16 0 36 6
44 13 20 17 99 42 107 35 3 -4 -21 -24 -53 -46 -32 -22 -65 -47 -72 -56 -11
-13 -33 -16 -109 -16 -104 0 -104 0 -143 74 -19 35 -23 38 -52 31 -18 -3 -42
-6 -55 -7 -17 0 -21 -4 -17 -18 3 -10 1 -21 -5 -25 -5 -3 -10 -17 -10 -31 0
-19 5 -24 23 -24 13 0 31 8 40 18 24 26 21 36 -5 18 -12 -9 -29 -16 -37 -16
-8 0 6 13 30 29 24 16 47 27 51 25 4 -3 8 -22 8 -42 1 -33 2 -35 14 -20 14 18
26 14 26 -9 0 -9 -15 -13 -52 -13 -29 0 -116 -9 -193 -20 -143 -20 -207 -25
-123 -9 82 16 221 110 203 138 -4 7 16 21 51 37 56 25 72 44 19 24 -21 -8 -30
-8 -36 1 -5 9 -16 3 -37 -19 -17 -18 -37 -32 -45 -32 -8 0 -21 -7 -28 -17 -13
-15 -11 -16 15 -9 27 7 28 6 15 -10 -8 -9 -27 -22 -44 -29 -16 -7 -74 -29
-127 -50 -102 -39 -121 -54 -65 -48 17 1 -6 -6 -53 -17 -47 -11 -91 -19 -99
-18 -8 2 63 34 157 71 152 61 204 87 174 87 -23 0 -161 -48 -332 -115 -102
-40 -266 -98 -365 -129 -251 -79 -305 -98 -305 -108 0 -5 4 -7 8 -4 5 3 21 2
36 -2 25 -7 20 -10 -56 -41 -327 -133 -1003 -454 -1223 -580 -61 -35 -219
-135 -352 -222 -133 -88 -250 -159 -260 -159 -10 1 -51 41 -96 95 -84 102
-116 124 -353 251 -97 52 -105 59 -88 71 10 7 21 13 26 13 4 0 8 5 8 11 0 6
-9 8 -22 3 -49 -15 -52 -15 -23 2 76 43 307 126 743 264 107 34 192 64 189 66
-17 17 -557 -153 -913 -287 -116 -43 -217 -79 -224 -79 -34 0 -468 -153 -628
-221 -200 -86 -411 -191 -394 -197 5 -1 55 18 109 44 212 100 585 251 689 278
33 9 82 25 108 37 40 17 278 74 280 66 8 -24 33 -48 79 -72 30 -17 59 -34 64
-39 4 -5 -38 15 -94 45 -92 48 -126 58 -109 30 3 -5 88 -54 188 -108 191 -103
235 -138 356 -280 l52 -62 -101 -98 c-56 -54 -116 -121 -134 -149 -18 -28 -53
-68 -79 -89 -46 -38 -57 -59 -33 -67 18 -7 37 2 37 18 0 8 19 36 43 62 24 26
51 58 60 72 9 13 17 19 17 12 0 -21 20 -13 29 11 26 68 457 377 796 572 331
190 1016 516 1445 687 69 28 132 56 140 62 19 16 101 48 107 42 2 -2 -6 -13
-18 -24 -19 -19 -19 -20 -3 -17 95 19 165 25 324 29 l185 5 -55 -20 c-30 -10
-59 -24 -64 -29 -6 -6 -30 -10 -55 -10 -47 0 -168 -48 -144 -57 7 -2 9 -11 6
-18 -3 -11 24 -5 94 20 111 38 216 65 346 91 48 9 87 21 87 25 0 10 -9 10 -72
0 -35 -6 -45 -5 -41 5 7 20 41 24 193 22 80 -1 120 -3 90 -5 -102 -6 -139 -13
-134 -27 3 -9 -55 -54 -168 -129 -95 -63 -182 -125 -193 -137 -22 -26 -13 -22
50 20 22 15 72 46 110 70 82 51 82 50 174 114 80 55 117 65 239 66 93 0 136
-14 188 -60 19 -16 39 -30 43 -30 5 0 36 -20 69 -45 l61 -44 -35 -53 c-38 -56
-126 -132 -211 -180 -28 -16 -57 -36 -63 -43 -7 -8 -16 -15 -21 -15 -12 0
-102 -63 -112 -77 -4 -7 -12 -13 -17 -13 -5 0 -20 -10 -34 -22 -32 -30 -272
-161 -528 -289 -54 -27 -98 -50 -98 -52 0 -3 11 -2 25 1 15 2 25 0 23 -6 -2
-5 1 -9 7 -8 5 0 9 6 7 12 -1 6 73 48 165 94 l168 82 105 -11 c58 -6 177 -22
265 -36 88 -14 212 -32 275 -40 125 -16 326 -52 298 -54 -10 -1 -18 -5 -18
-11 0 -12 27 -13 34 -2 3 5 52 12 108 15 57 3 141 11 188 18 125 18 149 11
199 -60 49 -71 90 -107 131 -116 28 -6 65 -45 72 -75 2 -8 12 -22 23 -32 18
-16 18 -17 3 -18 -10 0 -18 -4 -18 -9 0 -5 9 -7 19 -4 15 4 30 -10 67 -66 26
-39 45 -73 43 -75 -2 -3 -31 2 -64 10 -33 7 -72 14 -86 14 -46 0 -127 -30
-171 -63 -27 -20 -246 -118 -573 -256 -291 -123 -1018 -431 -1615 -684 -1225
-519 -1625 -683 -1826 -750 -205 -69 -361 -129 -449 -172 -27 -13 -95 -41
-150 -61 -55 -20 -140 -51 -190 -69 -49 -18 -142 -52 -205 -75 -300 -109
-1107 -310 -1265 -316 -33 -1 -68 -5 -79 -9 -22 -10 -456 2 -485 13 -17 6 -6
16 66 57 47 28 110 65 140 83 31 17 50 25 43 17 -22 -27 0 -16 74 35 132 91
410 346 478 438 27 37 54 60 84 74 24 10 44 22 44 25 0 3 -19 3 -42 0 l-42 -6
60 38 c41 26 60 34 62 24 4 -17 16 -16 53 3 35 18 33 31 -3 14 -15 -8 -12 -1
12 19 91 80 321 164 640 235 185 42 195 45 188 51 -2 3 -51 -4 -109 -15 -57
-10 -120 -21 -139 -24 l-35 -6 32 10 c32 10 45 30 21 30 -25 0 -254 -61 -342
-91 -122 -42 -181 -73 -314 -166 -61 -43 -133 -91 -160 -108 -28 -18 -54 -44
-64 -65 -18 -38 -232 -255 -343 -347 -197 -163 -456 -323 -523 -323 -49 0
-104 29 -120 63 -12 25 -11 32 11 70 38 64 194 234 283 308 124 103 275 216
454 339 198 136 323 230 317 237 -8 7 -45 -15 -112 -67 -33 -26 -148 -108
-255 -182 -341 -237 -568 -429 -669 -567 -58 -79 -63 -94 -55 -138 5 -28 15
-38 55 -59 76 -38 182 -48 509 -48 l295 0 225 46 c216 45 588 135 640 156 14
5 50 15 80 22 223 50 459 137 1235 455 44 18 101 36 126 40 l46 7 35 -49 c53
-72 53 -79 8 -172 -22 -45 -37 -87 -34 -92 3 -6 30 11 59 36 87 74 97 60 31
-42 -94 -146 -124 -234 -38 -113 62 88 122 153 122 132 0 -7 5 -11 12 -10 6 2
18 -9 26 -23 15 -26 13 -31 -50 -145 -112 -202 -116 -222 -10 -48 51 83 72
108 116 137 53 36 56 36 90 22 l35 -15 -39 -95 c-21 -53 -53 -120 -70 -150
-31 -53 -29 -52 78 55 97 98 112 110 144 110 l35 0 -4 -58 -4 -57 18 35 c21
41 58 52 68 21 3 -12 3 -26 0 -33 -4 -7 4 -1 17 15 16 18 33 27 55 27 l30 0
-2 -82 c-2 -46 -8 -96 -14 -111 -13 -34 -13 -37 -2 -37 5 0 17 33 25 72 22
100 48 149 73 141 6 -2 14 1 18 6 10 16 29 13 52 -9 19 -17 22 -18 28 -2 5 14
7 14 15 2 8 -13 12 -12 24 5 15 20 15 20 16 -2 0 -11 -11 -43 -25 -70 -28 -55
-43 -123 -27 -123 6 0 14 15 17 33 4 17 23 67 42 109 27 59 39 75 52 71 9 -4
13 -3 9 2 -4 4 4 14 18 22 30 15 58 17 31 2 -9 -6 -15 -14 -12 -20 11 -16 42
-9 59 13 l17 23 -4 -28 c-4 -26 -3 -26 13 -12 24 21 30 19 31 -12 1 -22 3 -19
10 13 l10 42 99 12 c55 7 106 10 114 7 8 -3 16 -1 18 4 3 10 170 69 196 69 8
0 12 -17 13 -47 l1 -48 8 47 c5 26 11 51 14 57 4 5 43 22 89 37 45 15 89 29
97 32 12 5 13 3 4 -9 -6 -8 -14 -36 -17 -64 -6 -46 -5 -48 9 -30 8 11 22 44
30 73 9 28 21 52 27 52 7 0 99 34 206 75 107 41 195 75 197 75 2 0 0 -8 -3
-17 -4 -10 7 -3 24 15 17 17 35 32 39 32 4 0 -10 -18 -31 -40 -39 -40 -52 -50
-39 -28 4 7 3 8 -5 4 -6 -4 -9 -11 -6 -16 6 -10 -29 -54 -104 -132 -39 -41
-61 -56 -73 -52 -10 3 -34 -6 -55 -20 -35 -24 -33 -31 10 -27 11 2 17 -5 17
-16 0 -22 -29 -66 -30 -45 0 20 -65 11 -65 -8 0 -8 10 -16 22 -18 28 -4 30
-28 4 -42 -11 -5 -41 -37 -67 -70 -26 -33 -51 -60 -56 -60 -5 0 -6 5 -3 10 11
18 -12 10 -31 -11 -15 -16 -16 -22 -5 -29 18 -10 -109 -112 -245 -195 -53 -33
-99 -67 -102 -75 -4 -14 -52 -40 -195 -105 -31 -15 -57 -28 -57 -30 0 -2 18
-9 39 -15 77 -21 62 -71 -32 -108 -140 -55 -443 -206 -527 -262 -119 -79 -262
-192 -298 -235 -15 -18 -37 -38 -50 -44 -13 -7 -27 -23 -32 -36 -6 -16 -45
-45 -112 -83 -167 -97 -227 -135 -285 -179 -30 -23 -68 -45 -84 -48 -23 -5
-27 -10 -20 -19 8 -10 1 -16 -32 -26 -59 -17 -203 -88 -259 -127 -26 -18 -55
-33 -63 -33 -9 0 -26 -7 -40 -16 -13 -8 -69 -24 -126 -34 -56 -10 -105 -24
-109 -30 -6 -10 -34 -11 -111 -7 -57 3 -140 3 -184 -1 -77 -7 -80 -8 -83 -34
l-3 -27 -36 20 c-53 30 -143 8 -168 -42 -28 -53 -13 -66 29 -24 32 32 48 32
89 -5 19 -16 39 -30 44 -30 15 0 43 -35 43 -53 0 -9 7 -17 15 -17 8 0 19 -15
24 -33 l9 -32 7 42 c7 40 8 41 36 31 18 -6 26 -15 22 -24 -3 -9 2 -14 16 -14
16 0 21 6 21 25 0 20 6 25 37 30 21 4 57 10 80 14 33 7 40 5 36 -5 -6 -17 9
-18 26 -1 11 10 12 9 6 -3 -8 -13 -6 -13 8 -1 14 11 20 11 41 -2 33 -22 39
-54 13 -72 -12 -8 -30 -15 -40 -15 -9 0 -32 -6 -50 -14 -41 -17 -134 -96 -113
-96 21 0 20 -9 -1 -27 -13 -10 -14 -13 -3 -10 8 2 24 21 35 42 16 32 31 43 80
62 32 13 71 23 85 23 14 0 39 9 55 20 17 11 42 20 57 20 15 0 66 20 114 45 96
50 104 52 105 28 0 -14 2 -15 6 -3 7 17 33 39 47 40 4 0 5 -8 1 -17 -4 -11 6
-6 27 13 48 45 109 84 228 145 136 69 170 91 165 107 -2 6 0 12 6 12 5 0 15
11 21 25 6 14 16 25 22 25 6 0 42 25 79 55 60 47 73 53 100 48 30 -5 31 -4 13
9 -19 15 -15 19 63 77 68 50 90 61 121 61 46 0 90 18 90 37 0 7 7 13 15 13 8
0 19 9 25 20 6 11 17 20 25 20 8 0 15 5 15 11 0 6 9 8 20 4 14 -5 18 -2 15 7
-3 8 6 24 19 37 l25 23 -5 -23 c-2 -13 -2 -18 2 -11 3 6 11 12 18 12 7 0 20
16 29 35 16 33 37 47 37 25 0 -21 19 -8 29 20 5 16 13 30 16 30 3 0 3 -4 0
-10 -14 -22 26 -8 40 14 10 15 24 23 35 21 19 -4 36 11 55 49 6 11 20 22 32
24 17 3 20 -1 16 -17 -9 -34 3 -24 33 26 26 46 27 46 36 22 9 -24 9 -24 50 21
22 25 37 37 34 27 -14 -44 10 -34 70 29 51 53 68 65 86 61 13 -4 29 0 38 8 24
21 182 110 220 123 23 8 36 9 40 2 10 -16 69 29 117 90 24 30 58 73 76 94 18
22 39 53 48 69 14 26 17 27 23 11 6 -15 13 -8 38 36 17 30 39 65 50 76 11 12
31 48 44 80 18 42 24 49 20 27 -3 -18 -1 -35 4 -38 10 -6 26 25 54 106 9 25
29 58 45 73 l30 28 11 -43 c6 -24 13 -50 15 -56 5 -16 55 -17 55 -2 0 5 5 7
10 4 6 -3 10 -2 10 3 0 6 -7 12 -15 16 -19 7 -20 26 -1 26 8 0 17 13 21 30 7
31 9 32 120 45 135 16 137 35 4 35 l-89 0 0 30 c0 17 5 30 11 30 5 0 22 25 36
56 19 42 33 58 54 66 17 6 37 24 46 42 9 17 32 51 53 76 20 25 56 74 80 110
24 36 72 104 106 151 35 48 64 91 64 96 0 5 6 17 13 28 13 16 14 15 10 -16
l-4 -34 21 37 c22 40 84 93 98 84 5 -3 19 6 31 20 12 14 27 24 34 21 6 -2 20
7 32 19 11 13 26 25 34 26 7 2 25 13 40 26 14 13 38 26 53 29 15 3 25 9 23 13
-3 5 30 29 72 54 73 44 105 47 69 7 -9 -10 -16 -26 -16 -37 0 -14 12 -5 45 33
53 60 76 71 107 49 12 -9 36 -16 53 -16 16 0 37 -4 45 -10 11 -7 9 -11 -13
-19 -16 -6 -34 -11 -41 -11 -8 0 -16 -9 -19 -20 -6 -24 7 -25 83 -5 30 8 63
15 74 15 16 0 17 -2 5 -17 -13 -15 -12 -15 9 -4 13 7 28 10 35 8 7 -3 1 -9
-13 -15 l-25 -11 28 0 c16 -1 38 4 49 10 17 9 24 8 34 -6 11 -15 35 -18 154
-23 l140 -5 1 -31 c0 -26 2 -28 9 -11 8 18 9 18 10 -5 1 -23 2 -22 16 11 14
35 16 36 104 51 142 26 304 114 430 235 88 86 102 85 189 -8 62 -67 167 -149
190 -149 6 0 8 -7 5 -15 -4 -9 0 -15 10 -15 24 0 36 -33 45 -118 l7 -77 10 64
c5 35 14 66 20 68 6 2 35 -21 64 -51 30 -31 56 -53 59 -51 7 8 71 -69 71 -86
0 -8 7 -24 15 -35 14 -19 14 -19 15 3 0 33 17 36 33 6 8 -16 26 -50 40 -77 20
-37 27 -64 28 -110 1 -59 2 -60 10 -21 4 22 8 60 8 85 1 41 2 43 17 28 14 -14
17 -42 18 -166 1 -148 7 -170 21 -82 4 25 12 56 17 70 l10 25 16 -30 17 -30 5
59 5 59 114 -124 c63 -68 131 -138 150 -155 l36 -32 5 -108 c3 -65 9 -108 15
-107 6 1 17 37 25 80 9 49 20 78 28 77 6 -1 26 -2 44 -2 26 -2 44 -16 102 -79
39 -42 93 -99 119 -126 26 -27 59 -66 73 -87 14 -21 31 -37 38 -34 7 3 18 -6
25 -20 7 -13 24 -29 37 -35 13 -6 24 -18 24 -26 0 -18 38 -95 46 -95 4 0 4 9
1 20 -8 31 1 23 17 -14 8 -19 30 -49 48 -65 18 -17 27 -31 19 -31 -8 0 -20 8
-28 18 -13 16 -14 15 -8 -8 4 -14 9 -42 12 -63 7 -48 20 -56 35 -20 16 38 16
37 33 23 9 -8 15 -29 15 -56 0 -51 16 -98 30 -89 5 3 10 17 10 31 0 50 19 12
25 -51 7 -62 19 -82 31 -50 9 23 21 9 29 -32 9 -48 15 -59 26 -42 15 24 23 -1
29 -83 6 -93 22 -111 39 -43 14 54 34 59 59 14 9 -18 38 -58 65 -90 26 -32 47
-63 47 -69 0 -5 10 -20 23 -32 25 -25 45 -73 57 -133 4 -22 8 -31 9 -21 1 18
27 45 44 46 13 0 -4 -44 -22 -57 -9 -7 -12 -13 -7 -13 6 0 20 9 32 21 30 28
53 15 85 -48 13 -26 34 -61 47 -76 12 -16 22 -37 22 -48 0 -15 5 -17 29 -13
26 6 32 2 55 -35 15 -23 29 -61 32 -85 6 -41 7 -43 24 -27 10 9 13 20 9 25
-18 20 -7 26 49 26 38 0 70 7 94 20 21 11 44 17 53 14 8 -3 15 -1 15 5 0 6 7
11 15 11 8 0 15 5 15 10 0 6 -4 10 -10 10 -20 0 -5 52 18 63 12 6 21 15 19 20
-2 6 -38 31 -80 56 -59 36 -72 47 -56 49 18 3 15 8 -21 28 -23 13 -73 50 -111
82 -64 54 -67 58 -47 68 21 11 20 12 -13 29 -43 23 -184 143 -269 230 -62 64
-63 66 -27 49 27 -13 40 -15 48 -7 8 8 -2 20 -35 42 -25 18 -46 36 -46 41 0 5
-19 22 -42 38 -58 40 -241 227 -329 337 -40 50 -94 113 -120 140 -26 28 -77
88 -113 135 -36 47 -77 96 -90 110 -36 36 -94 125 -122 184 -23 50 -23 51 -4
54 11 2 55 -4 97 -12 43 -8 101 -18 128 -21 28 -4 65 -11 84 -17 26 -8 35 -7
42 3 12 19 -11 30 -191 84 -167 50 -241 87 -298 149 -19 22 -92 82 -161 135
-69 52 -155 118 -191 146 -36 29 -79 60 -97 69 -17 8 -53 37 -80 63 -27 27
-123 102 -214 168 -215 157 -369 305 -319 305 5 0 21 -18 35 -40 14 -23 30
-38 35 -35 5 3 13 -3 19 -12 17 -29 13 5 -5 38 -8 17 -14 33 -11 35 2 2 23 -3
47 -11 59 -21 123 -20 143 3 30 33 17 81 -28 105 l-25 12 48 75 c75 115 167
200 220 200 12 0 22 5 22 11 0 6 22 10 58 9 91 -3 114 -1 108 9 -3 5 4 11 17
15 34 9 67 7 67 -4 0 -5 7 -10 16 -10 8 0 13 4 10 9 -3 5 22 12 57 15 82 10
135 34 199 93 29 26 50 44 46 39 -4 -5 2 -25 14 -45 l22 -36 -24 20 -23 20 11
-22 c19 -35 42 -53 68 -53 13 0 24 3 24 6 0 4 -18 27 -41 51 l-41 45 38 39
c21 21 42 39 46 39 15 0 21 -32 8 -40 -17 -10 5 -50 27 -50 10 0 57 -41 106
-91 69 -71 88 -86 83 -65 -8 32 1 34 13 3 14 -36 117 -64 172 -48 26 8 43 20
46 32 3 10 9 19 14 19 5 0 32 16 59 36 40 29 57 35 80 31 26 -6 28 -4 24 17
-3 17 3 28 23 41 25 17 28 17 70 -4 59 -28 66 -27 20 6 -20 14 -37 31 -37 36
0 6 10 1 23 -11 29 -27 46 -29 22 -2 -20 22 -14 50 11 50 9 0 56 -25 105 -56
60 -38 92 -53 102 -47 11 6 -7 24 -73 73 -66 48 -86 68 -78 77 17 21 63 8 135
-37 102 -65 187 -112 175 -97 -7 8 -9 16 -6 19 3 4 -46 41 -110 85 -63 43
-114 83 -112 88 7 26 52 9 174 -65 154 -93 197 -116 188 -101 -4 6 -1 11 6 11
7 0 3 7 -9 15 -12 8 -27 13 -35 10 -7 -3 -22 2 -33 10 -19 15 -19 16 3 5 46
-23 31 -2 -25 35 -32 21 -88 60 -126 87 -54 41 -65 53 -56 64 6 8 16 14 22 14
6 0 81 -38 168 -85 150 -81 219 -112 134 -60 -49 30 -39 33 16 4 23 -11 42
-19 44 -17 2 2 -50 34 -116 71 -146 84 -179 110 -172 137 8 29 22 34 41 17 22
-19 372 -201 372 -193 0 4 -15 15 -32 26 -35 21 -31 28 4 9 11 -6 22 -9 24 -6
3 2 -62 41 -143 86 -81 45 -161 91 -177 104 l-28 23 27 18 c27 18 29 18 89 -7
319 -131 338 -138 364 -129 22 7 15 12 -69 47 -135 55 -295 131 -302 142 -4 6
11 26 33 45 l39 36 186 -54 c102 -29 202 -55 223 -58 20 -3 28 -3 18 0 -12 4
-15 9 -8 13 6 4 -74 35 -178 70 -105 34 -190 66 -190 70 0 4 9 16 19 25 18 17
26 17 113 2 157 -25 172 -27 203 -18 25 7 14 11 -80 30 -61 12 -127 27 -149
33 -39 11 -39 11 -19 30 18 19 25 19 108 9 73 -9 91 -9 102 3 12 12 4 16 -59
26 -84 13 -100 21 -89 40 6 9 56 19 145 30 107 13 134 19 127 29 -6 11 -31 12
-116 6 -123 -8 -132 2 -33 38 34 12 55 24 48 26 -8 3 -2 10 16 18 16 8 20 12
9 9 -84 -18 -83 -18 -40 7 23 14 39 31 37 39 -1 9 9 21 22 28 21 12 29 10 68
-17 25 -17 59 -47 76 -67 39 -44 134 -185 191 -284 24 -40 78 -127 121 -193
43 -65 93 -148 111 -183 23 -44 42 -67 63 -77 16 -7 32 -20 35 -28 4 -13 2
-13 -12 -1 -15 12 -17 11 -17 -3 0 -9 7 -16 15 -16 9 0 20 -17 27 -46 7 -26
18 -49 25 -51 7 -3 13 -20 13 -39 0 -40 21 -46 38 -11 10 20 11 18 11 -19 1
-43 26 -69 37 -39 12 30 19 14 15 -31 -2 -31 0 -44 8 -40 6 4 13 -11 17 -43 5
-41 10 -50 28 -53 15 -2 22 -11 24 -33 2 -16 12 -38 23 -48 10 -10 19 -24 19
-32 0 -7 12 -27 26 -45 l26 -31 -54 -82 c-30 -45 -61 -93 -68 -107 -12 -22
-11 -24 2 -13 8 7 17 10 20 7 4 -3 31 26 62 64 41 51 62 69 79 68 16 -1 22 4
20 19 -1 14 7 9 33 -20 27 -31 34 -35 29 -17 -4 12 -4 22 0 22 16 0 58 -36 71
-61 10 -20 22 -29 39 -29 14 0 25 -4 25 -10 0 -5 8 -10 18 -10 10 0 34 -15 54
-34 19 -18 65 -50 102 -71 54 -30 69 -35 81 -25 12 10 18 10 30 0 17 -14 21
-35 5 -25 -5 3 -10 -1 -10 -9 0 -21 21 -31 31 -15 6 11 14 8 38 -15 29 -28 51
-28 51 0 0 8 4 14 10 14 18 0 65 -24 96 -50 30 -24 58 -42 133 -86 20 -11 46
-38 58 -60 13 -23 23 -32 23 -21 0 25 20 21 21 -5 0 -22 1 -22 8 -3 l8 20 5
-20 c5 -18 6 -18 7 3 1 13 7 22 17 22 11 0 14 6 10 23 -3 12 -3 16 0 9 3 -6
10 -10 15 -6 5 3 40 -23 77 -58 70 -66 125 -108 141 -108 16 0 71 -70 71 -90
0 -11 5 -20 10 -20 6 0 10 5 10 11 0 5 5 7 10 4 6 -3 10 -1 10 5 0 7 6 8 19 0
11 -5 32 -10 46 -10 l27 0 -31 26 c-60 50 -2 62 61 13 30 -25 36 -34 26 -41
-10 -8 -9 -9 4 -5 9 3 42 -8 72 -24 31 -17 60 -28 65 -25 5 3 12 -1 15 -10 9
-24 7 -54 -4 -54 -17 0 -11 -21 13 -41 24 -20 42 -25 32 -9 -4 6 -1 17 5 25 7
8 10 24 7 35 -9 34 9 22 26 -17 12 -28 14 -31 10 -10 -3 19 -1 27 8 27 9 1 7
6 -5 15 -19 14 -18 15 13 15 19 0 49 -12 74 -29 59 -40 106 -63 120 -58 7 2
24 -2 39 -9 28 -14 58 -10 58 8 0 12 34 7 120 -17 30 -8 71 -15 90 -15 20 0
45 -7 56 -16 18 -14 14 -15 -46 -10 -36 3 -81 8 -100 11 -35 5 -35 5 10 -17
25 -11 65 -23 90 -26 49 -6 114 -50 123 -83 3 -10 12 -19 21 -19 14 0 30 23
75 109 7 14 28 42 45 61 17 19 23 28 13 21 -15 -12 -20 -11 -32 5 -16 21 -15
36 3 42 7 2 12 -3 12 -12 0 -9 5 -16 10 -16 6 0 10 4 10 8 0 5 9 13 21 18 l20
9 -22 29 c-21 27 -26 28 -77 23 -47 -5 -52 -4 -36 8 16 11 17 14 4 19 -15 5
-104 13 -245 22 -100 6 -133 13 -117 23 13 8 -97 36 -178 46 -102 13 -109 15
-103 30 3 10 -1 15 -15 15 -11 0 -25 6 -31 14 -10 12 -193 75 -266 92 -26 5
-28 7 -10 14 17 6 13 9 -20 20 -22 7 -49 21 -60 31 -12 10 -36 24 -55 30 -19
7 -42 17 -50 24 -8 6 -35 20 -60 30 -57 24 -148 74 -155 86 -3 4 -52 34 -108
65 -56 32 -111 65 -122 74 -76 62 -408 227 -495 245 -19 4 -60 17 -90 28 -51
19 -53 21 -30 29 23 9 24 10 7 22 -10 8 -15 20 -11 30 4 12 0 16 -16 16 -13 0
-19 4 -14 11 11 19 128 3 254 -34 80 -24 117 -31 122 -23 4 6 4 14 0 18 -12
12 -163 64 -254 88 -92 24 -106 40 -34 40 47 0 80 22 50 34 -8 3 -37 6 -62 6
-34 0 -43 3 -32 10 8 5 11 10 5 10 -5 0 -3 5 5 10 13 8 13 10 -1 10 -9 0 -36
8 -59 19 -36 16 -38 19 -20 24 30 8 17 24 -31 39 l-41 12 23 17 22 17 -21 11
c-11 6 -32 11 -46 11 -14 0 -28 5 -31 10 -3 6 -11 10 -16 10 -6 0 -7 -5 -3
-12 4 -7 3 -8 -5 -4 -8 5 -6 15 9 33 22 28 14 43 -21 43 -9 0 -24 9 -34 20
-18 20 -17 20 9 20 42 0 27 22 -29 42 -52 18 -100 55 -60 46 11 -3 26 1 33 8
9 10 1 16 -43 28 -53 16 -82 36 -51 36 9 0 16 5 16 11 0 5 6 7 13 3 9 -6 9 -4
-1 8 -7 9 -25 19 -40 23 -15 3 -38 14 -52 23 l-25 17 33 5 c49 8 43 23 -15 39
-50 13 -71 31 -38 31 31 0 8 26 -35 40 -36 12 -45 20 -45 38 0 14 -11 29 -31
41 -40 24 -50 40 -30 47 25 10 19 21 -16 28 -38 8 -69 33 -61 52 3 8 -5 16
-20 19 -28 7 -107 98 -271 308 l-38 50 17 36 c11 23 13 37 6 39 -6 2 -11 11
-11 21 0 10 -8 17 -20 17 -17 0 -20 -7 -20 -39 0 -23 4 -36 10 -32 6 3 10 -1
10 -9 0 -22 -13 -20 -35 4 -14 16 -15 22 -5 35 7 8 10 24 7 35 -6 22 2 25 89
34 59 5 94 -1 94 -18 0 -6 10 -22 23 -36 13 -14 32 -38 42 -53 10 -16 21 -25
24 -20 11 15 33 14 51 -2 22 -20 30 -10 20 26 -21 72 -77 126 -104 99 -13 -13
-46 -13 -46 -1 0 9 23 14 127 26 42 6 56 3 70 -10 14 -14 18 -15 21 -4 11 42
12 42 35 20 27 -25 57 -30 37 -7 -10 13 -7 13 20 3 18 -7 38 -23 45 -38 8 -14
25 -30 39 -37 14 -6 26 -18 26 -27 0 -22 -7 -19 -39 18 -24 25 -32 29 -42 20
-10 -10 -9 -20 4 -48 27 -56 20 -66 -20 -29 -26 24 -40 31 -52 24 -12 -6 -18
-1 -28 21 -7 16 -20 32 -30 35 -10 3 -26 10 -36 15 -20 11 -37 4 -37 -16 0
-19 49 -75 66 -75 7 0 18 -9 24 -20 6 -11 17 -20 24 -20 8 0 21 -11 29 -24 20
-31 118 -79 149 -74 25 5 15 12 -36 23 -19 4 -26 9 -19 16 7 7 24 4 52 -7 33
-13 58 -15 121 -10 55 5 80 4 80 -3 0 -6 15 -11 33 -12 17 0 41 -4 52 -9 17
-7 16 -9 -10 -10 -25 -1 -27 -2 -10 -9 47 -18 78 -22 73 -9 -6 15 -2 15 447 3
284 -7 306 -5 344 36 45 48 11 98 -66 100 l-48 1 49 10 c38 9 50 8 58 -3 8
-12 9 -11 5 1 -9 35 -211 17 -225 -20 -3 -8 -10 -18 -16 -22 -16 -11 -64 -10
-71 2 -3 6 -24 10 -46 10 -53 0 -50 -20 4 -22 36 -1 33 -2 -18 -7 -62 -6 -209
-2 -189 6 7 2 41 8 75 12 l64 8 -85 2 c-159 3 -393 54 -548 121 -29 13 -55 20
-58 17 -3 -3 2 -18 12 -33 18 -26 18 -27 -1 -16 -38 20 -98 90 -92 106 3 8 2
18 -3 21 -26 16 -7 26 36 19 44 -6 45 -6 33 14 -20 31 -3 39 31 13 23 -16 30
-18 30 -7 0 8 5 16 12 18 7 3 5 13 -7 31 -15 24 -15 28 -2 33 9 3 25 0 37 -6
18 -10 24 -9 31 1 4 8 3 19 -3 26 -6 8 -9 15 -7 16 2 2 16 11 31 20 16 10 27
23 25 30 -1 7 9 11 28 9 20 -2 26 0 17 6 -11 8 -11 12 1 23 7 8 12 20 9 27 -2
7 0 12 5 10 4 -1 27 10 50 25 24 15 48 27 54 27 7 0 9 11 6 30 -6 27 -3 32 31
50 34 18 34 19 8 14 -19 -5 -27 -3 -22 4 3 6 0 12 -6 15 -7 2 18 18 55 35 63
29 67 33 61 57 -3 14 -2 25 2 25 5 0 23 11 39 25 19 16 23 23 11 18 -15 -5
-17 -3 -11 7 6 10 4 12 -11 6 -42 -18 -50 -17 -51 2 -1 13 6 22 22 26 28 7
135 121 135 144 0 10 -9 35 -20 57 -26 50 -25 54 9 101 37 50 101 171 101 191
0 11 -7 13 -28 9 -17 -4 -35 -1 -47 9 -19 14 -19 15 8 5 15 -5 27 -7 27 -5 0
10 -72 42 -225 100 -87 33 -159 65 -159 70 0 6 19 14 42 19 40 8 49 6 138 -40
87 -45 102 -49 164 -49 54 0 75 4 97 21 36 27 58 70 47 94 -5 10 -84 79 -176
154 -93 75 -168 140 -168 145 0 8 113 24 162 23 15 -1 40 5 55 13 15 8 37 15
48 15 11 0 28 7 38 14 17 13 16 15 -12 21 -16 3 -47 2 -67 -4 -26 -7 -42 -7
-50 0 -9 7 -19 7 -32 0 -30 -16 -34 -1 -6 21 32 26 67 94 59 118 -11 36 -64
68 -192 118 -70 27 -145 55 -166 62 -21 7 -41 18 -44 26 -3 7 11 35 31 62 19
27 49 84 65 128 16 43 42 106 59 139 16 33 52 107 80 163 33 67 44 97 31 86
-18 -16 -19 -16 -13 -1 7 20 0 22 -12 5z m-8 -65 c-8 -15 -15 -25 -16 -21 0
12 23 58 27 54 3 -2 -2 -17 -11 -33z m-38 -73 c-5 -17 -14 -33 -19 -36 -8 -5
4 37 17 57 11 19 12 8 2 -21z m-1420 -49 c63 -15 68 -31 10 -32 -31 0 -37 -3
-23 -8 13 -5 -19 -14 -100 -27 -84 -14 -119 -23 -117 -32 1 -8 -7 -12 -25 -10
-16 2 -27 -2 -26 -8 1 -6 -12 -9 -32 -8 -23 2 -55 -8 -102 -33 -49 -25 -85
-36 -128 -40 -82 -6 -95 -11 -70 -26 18 -10 17 -12 -15 -18 -19 -4 -36 -6 -38
-4 -2 2 36 44 84 94 60 62 90 87 96 79 5 -9 17 -4 40 19 31 30 80 48 178 67
43 8 212 -1 268 -13z m1345 -80 c-6 -3 -13 -19 -17 -35 -4 -15 -10 -26 -13
-22 -3 3 0 26 7 52 11 37 15 43 23 29 6 -11 6 -20 0 -24z m-1153 4 c-7 -8 -16
-15 -21 -15 -5 0 -9 7 -9 15 0 9 9 15 21 15 18 0 19 -2 9 -15z m119 -31 c11
-11 -16 -20 -39 -13 -14 4 -18 8 -10 8 13 1 13 2 0 12 -11 8 -8 9 15 4 16 -4
32 -9 34 -11z m-639 -38 c0 -2 -15 -9 -32 -15 -30 -10 -31 -9 -14 4 18 14 46
20 46 11z m1511 -219 c-10 -9 -11 -8 -5 6 3 10 9 15 12 12 3 -3 0 -11 -7 -18z
m-3084 -43 c-3 -3 -12 -4 -19 -1 -8 3 -5 6 6 6 11 1 17 -2 13 -5z m1983 -294
c52 -6 129 -19 170 -31 160 -43 365 -177 481 -314 130 -152 272 -505 300 -747
10 -89 10 -117 -5 -202 -30 -175 -75 -268 -179 -367 -54 -52 -166 -115 -256
-144 -70 -23 -157 -16 -234 18 -64 29 -209 120 -275 175 -41 33 -136 151 -128
159 2 2 15 -2 30 -8 21 -10 29 -10 39 0 8 8 8 14 2 19 -6 4 -16 19 -22 34 -8
18 -21 28 -40 30 -20 2 -29 9 -31 25 -2 13 -17 32 -33 44 -36 25 -30 37 17 36
40 -1 51 -13 103 -112 18 -32 39 -67 48 -77 15 -17 15 -18 -1 -18 -10 0 -14
-5 -11 -11 4 -6 13 -8 21 -5 8 3 14 2 14 -3 0 -13 110 -104 117 -97 3 3 -14
28 -38 55 -62 69 -97 123 -145 224 -23 49 -49 96 -58 106 -9 10 -16 24 -16 33
0 8 -9 23 -21 34 -12 10 -28 36 -36 57 -10 24 -21 36 -29 33 -8 -3 -14 4 -16
17 -3 20 -9 22 -56 22 l-52 -1 -11 41 c-7 22 -17 54 -25 70 -7 17 -22 68 -34
114 -18 69 -20 89 -10 104 10 17 10 19 -4 14 -9 -4 -16 -2 -16 3 0 6 5 10 11
10 8 0 8 4 2 13 -13 16 -23 57 -14 57 4 0 8 11 9 26 1 14 -2 23 -7 20 -5 -3
-11 3 -14 14 -3 11 0 20 6 20 7 0 7 4 -2 9 -8 5 -12 18 -8 30 3 12 1 21 -5 21
-5 0 -8 10 -6 23 2 12 10 22 18 22 11 0 15 -11 15 -43 0 -25 5 -42 11 -42 7 0
14 -12 17 -27 10 -54 45 -165 56 -176 17 -17 15 -2 -25 155 -33 127 -37 157
-37 273 -1 97 -3 123 -11 103 -5 -15 -16 -29 -24 -30 -9 -2 -21 -19 -28 -38
-11 -31 -13 -32 -13 -10 -1 42 10 70 28 70 22 0 32 10 25 22 -3 5 -12 4 -20
-3 -8 -6 -14 -8 -14 -3 1 12 30 50 30 39 0 -5 12 2 26 16 26 24 26 24 15 2
-19 -36 5 -26 27 11 29 48 111 77 267 95 6 0 53 -4 105 -9z m-446 -247 c-10
-70 -33 -153 -33 -123 -1 14 -4 35 -7 48 -5 16 -2 22 9 22 8 0 14 6 14 13 -2
17 14 87 20 87 2 0 1 -21 -3 -47z m1491 6 c11 -12 62 -53 113 -91 50 -37 92
-70 92 -73 0 -3 -16 -5 -36 -5 -30 0 -34 2 -25 14 9 11 -2 21 -59 50 -40 20
-78 36 -85 36 -17 0 -29 21 -43 72 -9 34 -9 37 6 29 10 -5 26 -19 37 -32z
m-4694 -69 c11 0 19 -5 19 -11 0 -11 -10 -10 -100 12 -30 7 -29 8 14 4 27 -3
57 -5 67 -5z m4730 -36 c25 -11 27 -14 9 -10 -14 3 -36 6 -50 6 -20 0 -22 2
-10 10 18 12 12 13 51 -6z m-5383 -1 c-16 -2 -40 -2 -55 0 -16 2 -3 4 27 4 30
0 43 -2 28 -4z m492 -6 c36 -7 65 -17 65 -22 0 -21 17 -36 34 -30 27 8 44 -17
27 -41 -14 -19 -15 -18 -39 4 -18 17 -55 29 -143 47 -65 13 -111 24 -101 24 9
1 16 4 16 9 -1 4 -1 10 0 15 2 10 66 8 141 -6z m-775 -8 c-61 -15 -237 -40
-242 -35 -4 3 104 24 207 39 51 8 75 5 35 -4z m5725 -29 c0 -13 -20 -13 -40 0
-12 8 -9 10 13 10 15 0 27 -4 27 -10z m140 -30 c0 -5 -7 -10 -16 -10 -8 0 -12
5 -9 10 3 6 10 10 16 10 5 0 9 -4 9 -10z m-5021 -45 c14 -13 13 -15 -9 -15
-41 0 -64 10 -83 35 l-17 24 47 -14 c25 -8 53 -21 62 -30z m-14 -65 c17 0 17
-2 5 -10 -8 -5 -35 -10 -60 -10 -42 1 -44 2 -25 16 11 8 29 13 40 10 11 -3 29
-6 40 -6z m5105 -46 c105 -28 240 -81 240 -94 0 -12 -88 -130 -129 -173 -47
-50 -88 -73 -46 -26 63 70 69 79 58 90 -7 7 -19 3 -39 -14 -35 -29 -68 -47
-86 -47 -7 0 5 10 27 23 25 14 47 37 59 61 l19 39 -23 19 c-12 10 -33 18 -47
18 -27 0 -114 40 -153 70 -21 17 -23 21 -10 30 8 5 11 10 7 10 -13 0 3 20 16
20 7 0 55 -12 107 -26z m-5713 -30 c-3 -3 -12 -4 -19 -1 -8 3 -5 6 6 6 11 1
17 -2 13 -5z m18 -25 c49 -8 61 -14 62 -30 1 -14 -5 -19 -23 -19 -14 0 -27 -7
-31 -16 -4 -10 -13 -14 -29 -10 -13 4 -24 1 -27 -7 -6 -20 -95 -12 -177 17
-77 26 -73 27 45 10 39 -5 40 -5 15 10 -14 8 -35 15 -47 16 -28 0 -28 4 -5 30
15 17 26 19 87 14 39 -3 97 -10 130 -15z m221 1 c3 0 2 5 -1 10 -3 6 -4 10 -1
10 3 0 8 -5 11 -10 9 -15 -37 -30 -52 -18 -22 18 -14 28 13 18 14 -6 28 -10
30 -10z m266 -2 c-17 -8 -26 -8 -34 0 -9 9 -4 12 23 11 32 0 33 -1 11 -11z
m5103 -8 c3 -5 1 -10 -4 -10 -6 0 -11 5 -11 10 0 6 2 10 4 10 3 0 8 -4 11 -10z
m75 -46 c0 -2 -9 0 -20 6 -11 6 -20 13 -20 16 0 2 9 0 20 -6 11 -6 20 -13 20
-16z m-41 3 c12 -15 5 -27 -16 -27 -7 0 -13 9 -13 20 0 23 13 26 29 7z m-6011
-149 c-5 -15 -64 -27 -123 -26 l-40 0 55 18 c66 22 114 26 108 8z m30 -55
c-15 -2 -42 -2 -60 0 -18 2 -6 4 27 4 33 0 48 -2 33 -4z m4452 -163 c0 -5 -5
-10 -12 -10 -7 0 4 -16 25 -36 41 -41 45 -51 20 -57 -14 -3 -11 -8 14 -23 18
-10 33 -24 33 -30 0 -6 7 -17 15 -24 25 -21 17 -29 -17 -19 -41 11 -41 11 -33
-1 3 -5 2 -10 -4 -10 -12 0 -51 72 -51 94 0 7 -7 16 -15 20 -8 3 -15 11 -15
18 0 7 -6 25 -14 40 -10 19 -11 29 -3 37 14 14 57 14 57 1z m-4640 -26 c0 -14
-8 -16 -46 -10 -26 3 -104 7 -173 8 -101 1 -114 3 -66 8 33 4 111 7 173 8 98
2 112 0 112 -14z m-203 -50 c5 -15 7 -15 15 0 13 22 94 21 138 -2 32 -18 57
-63 44 -84 -3 -4 0 -8 5 -8 6 0 11 -4 11 -10 0 -6 -30 -9 -72 -8 -46 1 -58 3
-32 5 26 3 49 12 60 25 19 20 19 21 -4 13 -23 -7 -23 -6 -8 17 19 29 13 38
-25 38 -41 0 -81 -17 -104 -45 -23 -27 -34 -29 -184 -19 l-93 6 28 19 c19 12
23 19 13 19 -9 0 -33 -11 -54 -25 -20 -14 -42 -24 -47 -23 -6 2 16 18 48 35
33 18 68 39 79 47 29 22 173 22 182 0z m-291 -38 c-83 -41 -96 -45 -195 -51
-123 -7 -305 -24 -341 -31 -14 -2 -2 5 25 16 28 12 64 27 80 35 58 26 334 72
450 74 l70 1 -89 -44z m408 -17 c-14 -14 -31 -19 -50 -17 l-29 3 35 17 c50 25
70 24 44 -3z m-976 -39 c-32 -13 -58 -17 -85 -13 l-38 7 60 12 c95 18 118 16
63 -6z m7312 -40 c0 -5 -7 -10 -15 -10 -8 0 -15 5 -15 10 0 6 7 10 15 10 8 0
15 -4 15 -10z m-7496 -31 c-8 -13 -68 -39 -86 -38 -7 0 10 11 37 25 58 27 58
28 49 13z m5951 -39 c10 -11 14 -20 9 -20 -5 0 -15 9 -22 20 -7 11 -11 20 -9
20 2 0 12 -9 22 -20z m-6065 -10 c-8 -5 -19 -10 -25 -10 -5 0 -3 5 5 10 8 5
20 10 25 10 6 0 3 -5 -5 -10z m5820 -18 c0 -5 -14 -21 -30 -37 -17 -16 -28
-35 -26 -41 5 -14 -21 -40 -30 -31 -4 3 -3 18 0 33 10 39 86 106 86 76z m49
-68 c25 -31 27 -57 6 -74 -8 -7 -15 -16 -15 -21 0 -13 34 -11 48 3 17 17 42
-8 42 -43 0 -19 5 -29 15 -29 8 0 15 -7 15 -15 0 -8 6 -12 13 -9 8 3 20 -2 27
-11 11 -13 11 -23 2 -47 -11 -29 -10 -30 7 -14 23 20 35 7 26 -27 -6 -21 -6
-21 9 -3 16 19 16 19 41 -4 14 -13 25 -29 25 -36 0 -8 6 -11 13 -8 12 4 65
-42 56 -50 -2 -2 -38 -21 -79 -41 -41 -21 -98 -53 -126 -71 -54 -36 -74 -42
-74 -21 0 8 -4 7 -10 -3 -8 -12 -10 -12 -10 5 0 12 -10 -1 -24 -31 -25 -54
-110 -134 -125 -118 -5 5 -12 23 -16 41 -5 27 -1 37 31 73 41 45 54 77 26 60
-10 -5 -35 -23 -57 -40 -38 -28 -128 -80 -140 -80 -8 0 4 156 15 184 5 15 15
24 23 21 25 -10 59 54 68 129 4 39 8 76 9 82 0 6 9 21 20 34 22 26 25 36 10
45 -20 12 -9 37 41 91 29 30 55 54 60 54 4 0 17 -12 28 -26z m255 1 c-4 -8
-10 -12 -15 -9 -14 8 -10 24 6 24 9 0 12 -6 9 -15z m1373 -19 c-4 -9 -17 -16
-29 -16 -20 1 -21 2 -5 11 9 5 17 17 17 26 0 13 3 14 11 6 7 -7 9 -19 6 -27z
m-462 -336 c3 -5 -1 -10 -10 -10 -9 0 -13 5 -10 10 3 6 8 10 10 10 2 0 7 -4
10 -10z m1140 -210 c3 -5 -1 -10 -10 -10 -9 0 -13 5 -10 10 3 6 8 10 10 10 2
0 7 -4 10 -10z m-1085 -48 c-12 -4 -50 17 -50 28 0 5 13 1 30 -8 16 -9 25 -18
20 -20z m-9375 -55 c6 -6 -17 4 -50 22 -33 18 -64 38 -70 44 -5 5 17 -5 50
-23 33 -18 65 -38 70 -43z m9938 66 c-7 -2 -21 -2 -30 0 -10 3 -4 5 12 5 17 0
24 -2 18 -5z m-1945 -67 c3 -43 -1 -53 -38 -103 -26 -34 -46 -51 -51 -46 -10
10 -34 142 -27 147 22 18 95 55 103 53 6 -2 11 -25 13 -51z m-7913 -46 c3 -5
-10 -1 -29 11 -20 12 -36 23 -36 25 0 7 58 -25 65 -36z m7771 -66 c6 -76 5
-83 -14 -93 -34 -18 -47 -13 -65 28 l-17 38 35 53 c19 28 35 57 35 63 0 7 3 8
10 1 5 -5 12 -46 16 -90z m-7651 -55 c48 -54 93 -99 102 -99 13 0 13 -3 2 -16
-12 -14 -15 -13 -33 12 -12 16 -56 71 -99 122 -44 52 -74 91 -68 88 6 -4 49
-52 96 -107z m8290 -557 c-3 -3 -11 0 -18 7 -9 10 -8 11 6 5 10 -3 15 -9 12
-12z m795 -75 c0 -5 -7 -4 -15 3 -8 7 -15 20 -15 29 1 13 3 13 15 -3 8 -11 15
-24 15 -29z m-961 -3 c14 -12 -19 -1 -35 12 -18 14 -18 14 6 3 14 -6 27 -13
29 -15z m1044 -108 c4 -10 1 -13 -9 -9 -15 6 -19 23 -5 23 5 0 11 -7 14 -14z
m-1383 -63 c0 -7 -39 17 -46 28 -3 6 5 3 20 -6 14 -10 26 -19 26 -22z m-1030
17 c0 -5 -7 -10 -16 -10 -8 0 -12 5 -9 10 3 6 10 10 16 10 5 0 9 -4 9 -10z
m885 -45 l20 -16 -20 10 c-11 5 -29 17 -40 26 l-20 16 20 -10 c11 -5 29 -17
40 -26z m1955 -15 c0 -5 -4 -10 -10 -10 -5 0 -10 5 -10 10 0 6 5 10 10 10 6 0
10 -4 10 -10z m-267 -191 c-7 -7 -12 -3 -15 16 -5 25 -4 25 10 11 12 -11 13
-19 5 -27z m-4657 -64 c62 -31 130 -88 149 -126 12 -23 21 -88 13 -89 -271
-41 -301 -41 -380 -5 -32 15 -58 31 -58 36 0 16 90 127 137 168 25 23 56 41
67 41 12 0 45 -11 72 -25z m5059 -74 c-8 -8 -35 22 -35 38 0 12 5 10 20 -9 10
-14 17 -27 15 -29z m159 -297 c16 -6 23 -34 8 -34 -10 0 -32 22 -32 32 0 10 3
10 24 2z m-19 -44 c10 -11 15 -20 11 -20 -14 0 -46 21 -46 30 0 16 16 11 35
-10z m140 -30 c3 -5 -1 -10 -9 -10 -9 0 -16 5 -16 10 0 6 4 10 9 10 6 0 13 -4
16 -10z m-10838 -136 c-3 -3 -12 -4 -19 -1 -8 3 -5 6 6 6 11 1 17 -2 13 -5z
m11248 -102 c-3 -3 -11 0 -18 7 -9 10 -8 11 6 5 10 -3 15 -9 12 -12z m402
-224 c-3 -8 -6 -5 -6 6 -1 11 2 17 5 13 3 -3 4 -12 1 -19z m-12409 -35 c-8
-10 -20 -27 -26 -38 -6 -11 -12 -15 -12 -9 0 12 38 64 47 64 3 0 -1 -8 -9 -17z
m12842 -77 c0 -3 -4 -8 -10 -11 -5 -3 -10 -1 -10 4 0 6 5 11 10 11 6 0 10 -2
10 -4z m-8176 -95 c3 -4 -5 -18 -18 -30 -26 -25 -42 -15 -31 19 6 20 39 28 49
11z m8896 -40 c0 -5 -7 -14 -15 -21 -13 -10 -15 -9 -15 9 0 12 6 21 15 21 8 0
15 -4 15 -9z m-8990 -100 c0 -5 -7 -11 -14 -14 -11 -4 -14 -17 -10 -44 4 -34
3 -35 -6 -14 -6 14 -15 30 -21 37 -7 8 -5 17 6 28 18 17 45 22 45 7z m8940
-20 c0 -12 -20 -25 -27 -18 -7 7 6 27 18 27 5 0 9 -4 9 -9z m-9260 -101 c0 -5
-2 -10 -4 -10 -3 0 -8 5 -11 10 -3 6 -1 10 4 10 6 0 11 -4 11 -10z m-4740 -44
c0 -2 -8 -10 -17 -17 -16 -13 -17 -12 -4 4 13 16 21 21 21 13z m4960 -36 c0
-5 -5 -10 -11 -10 -5 0 -7 5 -4 10 3 6 8 10 11 10 2 0 4 -4 4 -10z m-91 -130
c13 -31 8 -80 -8 -80 -5 0 -11 17 -13 38 -3 20 -8 45 -12 55 -6 11 -4 17 5 17
8 0 20 -14 28 -30z m-369 -40 c0 -5 -5 -10 -11 -10 -5 0 -7 5 -4 10 3 6 8 10
11 10 2 0 4 -4 4 -10z m4960 -810 c0 -13 -5 -18 -15 -14 -16 7 -19 17 -8 27
12 13 23 7 23 -13z m240 -340 c0 -5 -4 -10 -10 -10 -5 0 -10 5 -10 10 0 6 5
10 10 10 6 0 10 -4 10 -10z"/>
<path d="M11650 7030 c0 -5 5 -10 11 -10 5 0 7 5 4 10 -3 6 -8 10 -11 10 -2 0
-4 -4 -4 -10z"/>
<path d="M11241 6424 c0 -11 3 -14 6 -6 3 7 2 16 -1 19 -3 4 -6 -2 -5 -13z"/>
<path d="M11285 6381 c15 -44 43 -101 50 -101 4 0 -16 68 -34 113 -17 43 -32
32 -16 -12z"/>
<path d="M11350 6226 c0 -9 5 -16 10 -16 6 0 10 4 10 9 0 6 -4 13 -10 16 -5 3
-10 -1 -10 -9z"/>
<path d="M11544 5635 c27 -21 53 -20 36 0 -7 8 -22 15 -34 15 -21 -1 -21 -1
-2 -15z"/>
<path d="M11880 5419 c0 -15 149 -64 171 -57 12 4 2 9 -91 40 -25 8 -53 19
-62 23 -12 5 -18 3 -18 -6z"/>
<path d="M10980 5040 c-13 -9 -13 -10 0 -11 8 -1 19 -1 23 0 4 1 18 -4 30 -9
21 -11 21 -10 -2 9 -26 24 -30 24 -51 11z"/>
<path d="M7054 6685 c-17 -13 -13 -14 44 -8 56 5 65 4 83 -16 21 -22 39 -28
39 -12 0 5 -15 19 -34 30 -39 25 -104 28 -132 6z"/>
<path d="M7260 6690 c0 -5 5 -10 10 -10 6 0 10 5 10 10 0 6 -4 10 -10 10 -5 0
-10 -4 -10 -10z"/>
<path d="M7518 6683 c12 -2 32 -2 45 0 12 2 2 4 -23 4 -25 0 -35 -2 -22 -4z"/>
<path d="M7125 6659 c-5 -5 -19 -16 -30 -24 -20 -15 -20 -15 -1 -30 31 -24
126 -18 126 7 0 7 -15 8 -37 5 -50 -8 -73 5 -38 21 14 7 23 17 20 22 -8 13
-27 12 -40 -1z"/>
<path d="M6315 6629 c-26 -16 -27 -19 -9 -19 11 0 29 9 39 20 23 25 9 25 -30
-1z"/>
<path d="M6830 6610 c0 -5 5 -10 10 -10 6 0 10 5 10 10 0 6 -4 10 -10 10 -5 0
-10 -4 -10 -10z"/>
<path d="M5698 6563 c6 -2 18 -2 25 0 6 3 1 5 -13 5 -14 0 -19 -2 -12 -5z"/>
<path d="M4940 6554 c-14 -1 -94 -8 -179 -14 -167 -13 -239 -28 -136 -29 117
-1 431 20 490 33 l60 14 -105 -1 c-58 0 -116 -1 -130 -3z"/>
<path d="M5305 6535 c-99 -13 -241 -29 -315 -35 -74 -6 -189 -15 -255 -21 -73
-7 -223 -8 -380 -4 -304 7 -412 -6 -165 -21 412 -24 958 3 1316 66 61 11 123
20 137 20 15 0 27 5 27 10 0 17 -173 10 -365 -15z"/>
<path d="M6868 6543 c7 -3 16 -2 19 1 4 3 -2 6 -13 5 -11 0 -14 -3 -6 -6z"/>
<path d="M6533 6453 c-45 -4 -60 -23 -19 -23 13 0 26 -4 28 -9 2 -5 17 1 33
15 17 13 23 23 15 22 -8 -1 -34 -3 -57 -5z"/>
<path d="M6077 6415 c-54 -13 -135 -35 -180 -49 -91 -28 -428 -108 -434 -103
-2 2 47 21 109 43 123 42 120 59 -4 25 -76 -21 -281 -67 -668 -151 -124 -27
-306 -60 -405 -74 -339 -49 -494 -75 -515 -87 -25 -14 8 -11 304 26 341 43
562 84 901 165 44 11 109 24 145 31 36 6 75 18 87 25 17 10 22 11 26 1 3 -9
-103 -37 -387 -100 -375 -84 -475 -114 -506 -152 -14 -17 -31 -95 -21 -95 3 1
18 18 33 40 54 78 72 84 495 176 598 130 929 210 978 236 11 6 71 11 140 10
79 -1 115 2 105 8 -8 5 -39 10 -69 10 -53 0 -54 0 -36 20 21 24 26 24 -98 -5z"/>
<path d="M6351 6408 c-56 -16 -22 -29 57 -22 73 7 90 17 50 28 -31 8 -66 6
-107 -6z"/>
<path d="M6490 6399 c0 -5 5 -7 10 -4 6 3 10 8 10 11 0 2 -4 4 -10 4 -5 0 -10
-5 -10 -11z"/>
<path d="M6555 6388 c-59 -15 -189 -60 -199 -70 -23 -20 57 -5 148 27 90 33
99 34 111 19 6 -9 17 -15 24 -13 9 3 7 11 -7 27 -21 24 -19 24 -77 10z"/>
<path d="M5778 6373 c7 -3 16 -2 19 1 4 3 -2 6 -13 5 -11 0 -14 -3 -6 -6z"/>
<path d="M5395 6360 c-8 -13 5 -13 25 0 13 8 13 10 -2 10 -9 0 -20 -4 -23 -10z"/>
<path d="M6916 6361 c14 -13 64 -23 64 -12 0 9 -33 21 -59 21 -9 0 -11 -3 -5
-9z"/>
<path d="M5231 6349 c-35 -4 -66 -11 -70 -15 -9 -10 180 5 198 16 20 12 -36
11 -128 -1z"/>
<path d="M4900 6310 c-12 -8 -11 -10 8 -10 12 0 22 5 22 10 0 13 -11 13 -30 0z"/>
<path d="M4800 6303 c-42 -8 -47 -23 -8 -23 19 0 41 7 48 15 14 16 11 17 -40
8z"/>
<path d="M4610 6270 c-11 -7 -8 -10 15 -9 17 0 39 4 50 9 16 7 14 9 -15 9 -19
0 -42 -4 -50 -9z"/>
<path d="M4410 6250 c-8 -5 -12 -12 -9 -15 8 -8 39 5 39 16 0 11 -11 11 -30
-1z"/>
<path d="M4508 6253 c7 -3 16 -2 19 1 4 3 -2 6 -13 5 -11 0 -14 -3 -6 -6z"/>
<path d="M3940 6200 c0 -5 4 -10 9 -10 6 0 13 5 16 10 3 6 -1 10 -9 10 -9 0
-16 -4 -16 -10z"/>
<path d="M4200 6020 c-167 -23 -601 -93 -735 -120 -55 -11 -172 -33 -259 -49
-88 -17 -164 -35 -170 -41 -18 -18 -14 -18 389 60 134 25 546 91 820 131 156
22 215 39 135 38 -25 -1 -106 -9 -180 -19z"/>
<path d="M3915 6015 c-5 -2 -51 -9 -102 -14 -51 -5 -105 -17 -120 -25 -24 -13
-25 -15 -7 -16 24 0 221 28 247 36 9 3 17 10 17 15 0 9 -16 11 -35 4z"/>
<path d="M3593 5960 c-36 -14 -28 -30 9 -19 39 11 60 29 33 28 -11 0 -30 -4
-42 -9z"/>
<path d="M3500 5950 c-80 -19 -197 -41 -392 -75 -205 -35 -264 -49 -282 -66
-15 -14 -4 -12 185 26 96 20 228 45 294 56 258 45 245 42 245 60 0 10 -1 10
-50 -1z"/>
<path d="M4468 5907 c-20 -41 -83 -77 -253 -143 -55 -21 -93 -40 -84 -42 20
-4 174 54 276 103 73 35 90 56 81 101 -2 12 -8 6 -20 -19z"/>
<path d="M4520 5896 c0 -16 21 -26 53 -26 19 0 17 3 -11 20 -39 24 -42 24 -42
6z"/>
<path d="M4635 5890 c-3 -5 1 -10 9 -10 9 0 16 5 16 10 0 6 -4 10 -9 10 -6 0
-13 -4 -16 -10z"/>
<path d="M6000 5860 c-12 -8 -12 -10 5 -9 11 0 29 4 40 9 18 8 18 9 -5 9 -14
0 -32 -4 -40 -9z"/>
<path d="M6527 5863 c-12 -12 -7 -22 8 -17 8 4 15 10 15 15 0 11 -14 12 -23 2z"/>
<path d="M4402 5801 c-93 -39 -109 -48 -101 -55 4 -4 228 80 237 89 18 17 -57
-1 -136 -34z"/>
<path d="M6474 5815 c-10 -8 -14 -15 -8 -15 6 0 17 7 24 15 16 19 9 19 -16 0z"/>
<path d="M2870 5789 c-47 -11 -114 -26 -150 -34 -36 -8 -85 -17 -110 -20 -25
-4 -70 -13 -100 -20 -30 -8 -95 -24 -145 -36 -49 -11 -94 -25 -99 -30 -14 -13
-13 -12 146 21 133 29 587 120 596 120 2 0 0 5 -3 10 -8 13 -35 11 -135 -11z"/>
<path d="M1095 5764 c-38 -20 -77 -42 -86 -50 -8 -8 -21 -14 -27 -14 -7 0 -12
-7 -12 -15 0 -17 19 -11 97 29 43 22 103 69 103 81 0 7 2 8 -75 -31z"/>
<path d="M2710 5790 c0 -5 9 -10 21 -10 11 0 17 5 14 10 -3 6 -13 10 -21 10
-8 0 -14 -4 -14 -10z"/>
<path d="M2638 5783 c-10 -2 -18 -8 -18 -12 0 -10 59 -1 66 10 5 9 -18 10 -48
2z"/>
<path d="M6198 5760 c-18 -16 -27 -30 -20 -30 18 0 72 38 72 51 0 17 -19 9
-52 -21z"/>
<path d="M6393 5755 c-15 -13 -23 -25 -17 -25 6 0 21 11 34 25 30 32 19 32
-17 0z"/>
<path d="M2540 5760 c-12 -8 -9 -10 12 -10 15 0 30 5 33 10 8 13 -25 13 -45 0z"/>
<path d="M2500 5750 c0 -5 5 -10 10 -10 6 0 10 5 10 10 0 6 -4 10 -10 10 -5 0
-10 -4 -10 -10z"/>
<path d="M2427 5744 c-4 -4 -4 -10 -2 -14 6 -10 55 0 55 11 0 10 -43 12 -53 3z"/>
<path d="M4270 5740 c0 -5 5 -10 11 -10 5 0 7 5 4 10 -3 6 -8 10 -11 10 -2 0
-4 -4 -4 -10z"/>
<path d="M6410 5735 c-7 -8 -8 -15 -2 -15 5 0 15 7 22 15 7 8 8 15 2 15 -5 0
-15 -7 -22 -15z"/>
<path d="M4230 5730 c-13 -8 -12 -10 3 -10 9 0 17 5 17 10 0 12 -1 12 -20 0z"/>
<path d="M2322 5715 c-30 -7 -59 -18 -65 -25 -9 -10 -8 -11 8 -6 11 3 45 10
75 16 30 6 59 15 64 20 13 13 -15 12 -82 -5z"/>
<path d="M5745 5710 c-3 -5 -2 -10 4 -10 5 0 13 5 16 10 3 6 2 10 -4 10 -5 0
-13 -4 -16 -10z"/>
<path d="M6086 5684 c-45 -30 -77 -64 -61 -64 11 0 115 82 115 91 0 11 4 13
-54 -27z"/>
<path d="M6252 5640 c-142 -121 -307 -278 -300 -285 3 -4 53 34 110 84 140
122 305 280 293 280 -5 0 -52 -35 -103 -79z"/>
<path d="M3933 5662 c-128 -46 -162 -62 -130 -62 21 0 279 90 292 101 19 19
-34 6 -162 -39z"/>
<path d="M1082 5686 c-29 -8 -56 -16 -59 -20 -14 -13 112 7 127 20 18 18 7 18
-68 0z"/>
<path d="M5716 5668 c-32 -18 -53 -34 -47 -36 13 -4 111 48 111 60 0 11 3 12
-64 -24z"/>
<path d="M6310 5650 c-30 -27 -52 -51 -49 -54 3 -4 32 19 65 49 32 30 55 54
49 54 -5 0 -35 -22 -65 -49z"/>
<path d="M876 5647 c-33 -22 -55 -42 -49 -44 15 -5 102 49 103 64 0 6 6 14 13
16 6 3 8 5 2 5 -5 0 -37 -19 -69 -41z"/>
<path d="M2150 5670 c0 -5 5 -10 10 -10 6 0 10 5 10 10 0 6 -4 10 -10 10 -5 0
-10 -4 -10 -10z"/>
<path d="M2088 5663 c-10 -2 -18 -9 -18 -15 0 -12 49 -2 65 13 9 9 -15 11 -47
2z"/>
<path d="M1995 5641 c-6 -11 9 -23 19 -14 9 9 7 23 -3 23 -6 0 -12 -4 -16 -9z"/>
<path d="M960 5629 c0 -5 5 -7 10 -4 6 3 10 8 10 11 0 2 -4 4 -10 4 -5 0 -10
-5 -10 -11z"/>
<path d="M2144 5625 c-24 -18 -12 -18 51 -1 l50 14 -41 1 c-22 1 -49 -6 -60
-14z"/>
<path d="M1851 5604 c-95 -25 -137 -42 -128 -51 7 -6 240 56 252 68 15 15 -23
10 -124 -17z"/>
<path d="M1965 5589 c-38 -11 -85 -24 -104 -29 -35 -9 -65 -30 -43 -30 18 0
274 68 280 75 12 12 -67 2 -133 -16z"/>
<path d="M5615 5600 c-3 -5 -1 -10 4 -10 6 0 11 5 11 10 0 6 -2 10 -4 10 -3 0
-8 -4 -11 -10z"/>
<path d="M5935 5590 c-28 -31 -8 -37 23 -7 19 20 22 27 11 27 -9 0 -24 -9 -34
-20z"/>
<path d="M775 5576 c-17 -13 -33 -22 -36 -20 -3 2 -33 -24 -67 -56 -33 -33
-66 -60 -72 -60 -6 0 -32 -21 -57 -47 -45 -45 -194 -178 -231 -205 -38 -29
-188 -235 -178 -245 12 -12 57 18 74 48 22 41 124 160 235 275 48 49 87 94 87
100 0 5 24 23 53 41 54 32 211 155 223 174 12 20 -2 18 -31 -5z"/>
<path d="M5499 5553 c-13 -16 -12 -17 4 -4 9 7 17 15 17 17 0 8 -8 3 -21 -13z"/>
<path d="M5890 5549 c0 -5 5 -7 10 -4 6 3 10 8 10 11 0 2 -4 4 -10 4 -5 0 -10
-5 -10 -11z"/>
<path d="M1605 5540 l-30 -8 32 -1 c17 0 35 4 38 9 7 11 3 11 -40 0z"/>
<path d="M1775 5530 c-3 -5 1 -10 9 -10 9 0 16 5 16 10 0 6 -4 10 -9 10 -6 0
-13 -4 -16 -10z"/>
<path d="M5394 5497 c-33 -23 -74 -52 -90 -65 -16 -13 -58 -42 -94 -64 -91
-57 -240 -178 -240 -194 0 -18 9 -18 32 3 25 22 23 13 -7 -27 -28 -39 -36 -81
-10 -60 8 7 15 17 15 22 0 21 61 86 144 152 47 39 86 74 86 80 1 6 26 29 58
50 149 103 203 148 175 145 -5 0 -35 -19 -69 -42z m-235 -200 c-2 -1 -13 -9
-24 -17 -19 -14 -19 -14 -6 3 7 9 18 17 24 17 6 0 8 -1 6 -3z"/>
<path d="M6123 5478 c-69 -71 -133 -154 -133 -171 0 -7 13 4 28 23 15 19 62
74 105 122 91 101 91 118 0 26z"/>
<path d="M1510 5520 c-8 -5 -11 -12 -8 -16 10 -9 38 3 38 16 0 12 -10 13 -30
0z"/>
<path d="M1643 5506 c-40 -11 -78 -27 -85 -35 -15 -15 -21 -16 102 19 75 22
112 41 75 39 -11 -1 -53 -11 -92 -23z"/>
<path d="M5843 5523 c-18 -7 -16 -23 2 -23 8 0 15 7 15 15 0 8 -1 15 -2 14 -2
0 -9 -3 -15 -6z"/>
<path d="M760 5489 c0 -5 5 -7 10 -4 6 3 10 8 10 11 0 2 -4 4 -10 4 -5 0 -10
-5 -10 -11z"/>
<path d="M1414 5485 c-26 -19 1 -20 36 0 23 13 23 14 4 15 -11 0 -29 -7 -40
-15z"/>
<path d="M720 5470 c0 -5 5 -10 10 -10 6 0 10 5 10 10 0 6 -4 10 -10 10 -5 0
-10 -4 -10 -10z"/>
<path d="M5955 5470 c-3 -5 -1 -10 4 -10 6 0 11 5 11 10 0 6 -2 10 -4 10 -3 0
-8 -4 -11 -10z"/>
<path d="M1320 5460 c-11 -7 -7 -10 18 -10 17 0 32 5 32 10 0 13 -30 13 -50 0z"/>
<path d="M1500 5460 c0 -5 7 -10 16 -10 8 0 12 5 9 10 -3 6 -10 10 -16 10 -5
0 -9 -4 -9 -10z"/>
<path d="M1190 5428 c-46 -16 -89 -33 -95 -40 -7 -8 -3 -9 15 -4 14 4 43 12
65 17 61 15 125 41 125 50 0 13 -14 10 -110 -23z"/>
<path d="M1410 5434 c-25 -15 -25 -15 10 -8 48 9 73 23 40 23 -14 0 -36 -6
-50 -15z"/>
<path d="M5720 5435 c-8 -9 -8 -15 -2 -15 12 0 26 19 19 26 -2 2 -10 -2 -17
-11z"/>
<path d="M649 5410 c-13 -10 -19 -19 -13 -20 6 0 19 9 29 20 23 26 14 26 -16
0z"/>
<path d="M1278 5407 c-72 -25 -86 -33 -74 -44 3 -4 12 -1 18 5 7 7 23 12 38
12 25 0 110 34 110 45 0 9 -24 5 -92 -18z"/>
<path d="M3250 5400 c-13 -8 -13 -10 2 -10 9 0 20 5 23 10 8 13 -5 13 -25 0z"/>
<path d="M5009 5380 l-24 -21 33 16 c31 15 41 25 23 25 -5 0 -19 -9 -32 -20z"/>
<path d="M1154 5364 c-17 -14 -17 -15 -1 -10 10 3 23 6 28 6 5 0 9 5 9 10 0
14 -13 12 -36 -6z"/>
<path d="M988 5363 c-10 -2 -18 -8 -18 -13 0 -8 57 4 68 15 6 6 -25 5 -50 -2z"/>
<path d="M1085 5347 c-16 -5 -39 -16 -50 -24 -18 -14 -17 -14 15 -8 43 9 86
30 74 37 -5 3 -22 1 -39 -5z"/>
<path d="M923 5343 c-14 -5 -18 -23 -5 -23 5 0 17 7 28 15 14 11 15 14 4 14
-8 0 -21 -3 -27 -6z"/>
<path d="M3065 5340 c-3 -5 -1 -10 4 -10 6 0 11 5 11 10 0 6 -2 10 -4 10 -3 0
-8 -4 -11 -10z"/>
<path d="M4956 5305 c-22 -19 -36 -38 -32 -42 4 -4 26 12 49 35 50 50 38 55
-17 7z"/>
<path d="M839 5300 l-24 -20 33 11 c35 12 52 29 29 29 -8 0 -25 -9 -38 -20z"/>
<path d="M4810 5285 c-10 -12 -10 -15 4 -15 9 0 16 7 16 15 0 8 -2 15 -4 15
-2 0 -9 -7 -16 -15z"/>
<path d="M761 5274 c-19 -8 -32 -16 -29 -19 6 -7 68 18 68 27 0 10 2 10 -39
-8z"/>
<path d="M893 5280 c-13 -5 -23 -12 -23 -15 0 -8 53 6 65 16 12 12 -13 11 -42
-1z"/>
<path d="M12430 5274 c0 -8 5 -12 10 -9 6 3 10 10 10 16 0 5 -4 9 -10 9 -5 0
-10 -7 -10 -16z"/>
<path d="M12056 5261 c-5 -8 29 -48 68 -79 32 -25 17 14 -19 51 -39 40 -41 41
-49 28z"/>
<path d="M830 5249 c0 -5 5 -7 10 -4 6 3 10 8 10 11 0 2 -4 4 -10 4 -5 0 -10
-5 -10 -11z"/>
<path d="M4796 5220 c-20 -22 -36 -46 -36 -53 1 -12 54 44 71 76 15 27 4 20
-35 -23z"/>
<path d="M5933 5248 c-18 -24 -24 -38 -16 -38 10 0 36 40 30 46 -2 3 -9 -1
-14 -8z"/>
<path d="M787 5243 c-4 -3 -7 -11 -7 -17 0 -6 5 -5 12 2 6 6 9 14 7 17 -3 3
-9 2 -12 -2z"/>
<path d="M5460 5240 c0 -5 5 -10 10 -10 6 0 10 5 10 10 0 6 -4 10 -10 10 -5 0
-10 -4 -10 -10z"/>
<path d="M670 5229 c0 -5 5 -7 10 -4 6 3 10 8 10 11 0 2 -4 4 -10 4 -5 0 -10
-5 -10 -11z"/>
<path d="M4940 5230 c0 -5 5 -10 10 -10 6 0 10 5 10 10 0 6 -4 10 -10 10 -5 0
-10 -4 -10 -10z"/>
<path d="M427 5223 c-4 -3 -7 -11 -7 -17 0 -6 5 -5 12 2 6 6 9 14 7 17 -3 3
-9 2 -12 -2z"/>
<path d="M724 5215 c-17 -13 -17 -14 -2 -15 9 0 20 5 23 11 11 17 0 20 -21 4z"/>
<path d="M5430 5205 c-8 -9 -8 -15 -2 -15 12 0 26 19 19 26 -2 2 -10 -2 -17
-11z"/>
<path d="M12013 5179 c6 -43 21 -68 34 -55 4 4 2 16 -5 26 -7 11 -12 31 -12
45 0 14 -5 25 -11 25 -8 0 -10 -14 -6 -41z"/>
<path d="M583 5200 c-13 -5 -23 -12 -23 -15 0 -10 27 -5 46 10 21 16 11 18
-23 5z"/>
<path d="M12050 5200 c0 -8 5 -22 10 -30 9 -13 10 -13 10 0 0 8 -5 22 -10 30
-9 13 -10 13 -10 0z"/>
<path d="M680 5190 c0 -5 5 -10 10 -10 6 0 10 5 10 10 0 6 -4 10 -10 10 -5 0
-10 -4 -10 -10z"/>
<path d="M600 5160 c-24 -15 -7 -19 25 -5 23 10 25 14 10 14 -11 0 -27 -3 -35
-9z"/>
<path d="M4795 5159 c-4 -6 -5 -13 -2 -16 7 -7 27 6 27 18 0 12 -17 12 -25 -2z"/>
<path d="M4894 5144 c-18 -15 -18 -15 11 -9 37 8 57 25 29 25 -11 0 -29 -7
-40 -16z"/>
<path d="M350 5139 c0 -5 5 -7 10 -4 6 3 10 8 10 11 0 2 -4 4 -10 4 -5 0 -10
-5 -10 -11z"/>
<path d="M5355 5140 c-3 -5 -1 -10 4 -10 6 0 11 5 11 10 0 6 -2 10 -4 10 -3 0
-8 -4 -11 -10z"/>
<path d="M12240 5140 c0 -5 5 -10 11 -10 5 0 7 5 4 10 -3 6 -8 10 -11 10 -2 0
-4 -4 -4 -10z"/>
<path d="M512 5124 c-37 -26 -25 -36 18 -14 22 11 40 23 40 25 0 11 -37 4 -58
-11z"/>
<path d="M12285 5120 c3 -5 8 -10 11 -10 2 0 4 5 4 10 0 6 -5 10 -11 10 -5 0
-7 -4 -4 -10z"/>
<path d="M4711 5042 c-79 -42 -146 -83 -149 -90 -2 -7 47 12 109 43 63 31 103
47 89 36 -43 -34 -14 -34 36 0 27 18 42 35 35 37 -9 3 -6 11 10 28 12 13 21
24 18 24 -2 0 -69 -35 -148 -78z"/>
<path d="M2375 5100 c-3 -5 1 -10 9 -10 9 0 16 5 16 10 0 6 -4 10 -9 10 -6 0
-13 -4 -16 -10z"/>
<path d="M5007 5104 c-4 -4 -7 -14 -7 -23 0 -11 3 -12 11 -4 6 6 10 16 7 23
-2 6 -7 8 -11 4z"/>
<path d="M360 5073 c-35 -9 -66 -25 -85 -45 -30 -30 -30 -30 -5 -23 14 4 36
15 50 24 14 10 44 23 68 31 24 7 45 17 48 22 7 10 -9 9 -76 -9z"/>
<path d="M4609 5073 c-13 -15 -12 -15 9 -4 23 12 28 21 13 21 -5 0 -15 -7 -22
-17z"/>
<path d="M4865 5080 c-3 -5 -2 -10 4 -10 5 0 13 5 16 10 3 6 2 10 -4 10 -5 0
-13 -4 -16 -10z"/>
<path d="M5345 5070 c-10 -11 -13 -20 -8 -20 13 0 38 29 31 35 -3 3 -13 -4
-23 -15z"/>
<path d="M2168 5032 c-64 -26 -123 -53 -130 -60 -16 -16 -14 -16 68 12 81 28
204 82 204 90 0 12 -27 3 -142 -42z"/>
<path d="M6153 5013 c9 -2 25 -2 35 0 9 3 1 5 -18 5 -19 0 -27 -2 -17 -5z"/>
<path d="M6528 5013 c7 -3 16 -2 19 1 4 3 -2 6 -13 5 -11 0 -14 -3 -6 -6z"/>
<path d="M6905 5010 c-3 -5 -2 -10 4 -10 5 0 13 5 16 10 3 6 2 10 -4 10 -5 0
-13 -4 -16 -10z"/>
<path d="M6940 5000 c0 -11 5 -20 10 -20 6 0 10 9 10 20 0 11 -4 20 -10 20 -5
0 -10 -9 -10 -20z"/>
<path d="M6288 4993 c6 -2 18 -2 25 0 6 3 1 5 -13 5 -14 0 -19 -2 -12 -5z"/>
<path d="M6505 4983 c-19 -10 -25 -18 -17 -21 16 -5 62 17 62 30 0 12 -11 9
-45 -9z"/>
<path d="M6803 4985 c-32 -13 -49 -43 -19 -32 8 3 17 1 19 -6 6 -17 61 13 65
36 4 21 -20 22 -65 2z"/>
<path d="M4650 4970 c-14 -10 -22 -21 -19 -24 2 -3 18 6 34 19 35 29 22 33
-15 5z"/>
<path d="M6157 4979 c8 -8 16 -8 30 0 16 9 14 10 -11 11 -22 0 -27 -3 -19 -11z"/>
<path d="M6374 4975 c-4 -8 -3 -22 0 -31 7 -19 62 -16 58 5 -1 7 3 19 9 27 9
12 5 14 -25 14 -23 0 -39 -5 -42 -15z"/>
<path d="M7370 4980 c0 -5 7 -10 15 -10 8 0 15 5 15 10 0 6 -7 10 -15 10 -8 0
-15 -4 -15 -10z"/>
<path d="M6020 4970 c-18 -11 -4 -42 17 -38 10 2 19 10 21 19 4 19 -19 31 -38
19z"/>
<path d="M6203 4967 c-38 -13 -41 -26 -14 -51 24 -22 60 -17 78 10 12 19 12
24 -2 38 -18 18 -17 18 -62 3z"/>
<path d="M6097 4963 c-12 -12 -7 -23 11 -23 13 0 14 -2 3 -9 -10 -7 -10 -10
-1 -16 7 -4 16 -1 21 6 13 21 11 36 -7 43 -19 7 -19 7 -27 -1z"/>
<path d="M6530 4961 c0 -6 5 -13 10 -16 6 -3 10 1 10 9 0 9 -4 16 -10 16 -5 0
-10 -4 -10 -9z"/>
<path d="M6678 4953 c-16 -2 -28 -9 -28 -14 0 -13 40 -10 75 6 29 13 29 13 5
13 -14 -1 -37 -3 -52 -5z"/>
<path d="M240 4940 c0 -5 4 -10 9 -10 6 0 13 5 16 10 3 6 -1 10 -9 10 -9 0
-16 -4 -16 -10z"/>
<path d="M1915 4925 c-67 -25 -269 -125 -300 -148 -28 -22 -12 -32 18 -12 14
9 96 50 183 91 86 40 159 76 162 79 15 14 -9 11 -63 -10z"/>
<path d="M5875 4940 c-3 -5 -1 -10 4 -10 6 0 11 5 11 10 0 6 -2 10 -4 10 -3 0
-8 -4 -11 -10z"/>
<path d="M6960 4940 c0 -5 9 -10 21 -10 11 0 17 5 14 10 -3 6 -13 10 -21 10
-8 0 -14 -4 -14 -10z"/>
<path d="M7320 4943 c-14 -2 -67 -13 -117 -24 -51 -10 -112 -19 -137 -19 -54
0 -66 -14 -59 -66 l5 -41 22 20 c18 16 39 20 131 22 96 2 125 7 224 39 156 51
134 67 -30 21 -134 -38 -268 -57 -255 -37 4 7 0 12 -11 13 -21 2 32 16 65 18
13 1 21 -3 17 -9 -4 -7 6 -10 25 -8 40 3 50 18 13 19 -15 1 -3 5 27 10 148 23
198 33 194 41 -5 8 -68 9 -114 1z m-253 -79 c-3 -3 -12 -4 -19 -1 -8 3 -5 6 6
6 11 1 17 -2 13 -5z"/>
<path d="M980 4936 c0 -8 91 -59 96 -54 2 3 -2 10 -9 16 -16 14 -87 44 -87 38z"/>
<path d="M7540 4925 c-14 -16 -10 -18 14 -9 9 3 16 10 16 15 0 14 -16 11 -30
-6z"/>
<path d="M5821 4903 c1 -18 3 -21 6 -10 2 9 9 15 14 12 5 -4 9 1 9 9 0 9 -7
16 -15 16 -10 0 -15 -9 -14 -27z"/>
<path d="M5952 4910 c-17 -28 -16 -30 17 -30 35 0 48 15 31 35 -17 20 -33 19
-48 -5z"/>
<path d="M5665 4885 c-55 -19 -101 -35 -102 -35 -2 0 -3 -5 -3 -11 0 -12 16
-8 125 33 74 28 112 48 90 48 -6 0 -55 -16 -110 -35z"/>
<path d="M4162 4868 c-7 -7 -12 -15 -12 -20 0 -12 28 2 34 18 7 17 -6 18 -22
2z"/>
<path d="M5840 4870 c0 -5 7 -10 16 -10 8 0 12 5 9 10 -3 6 -10 10 -16 10 -5
0 -9 -4 -9 -10z"/>
<path d="M5898 4873 c7 -3 16 -2 19 1 4 3 -2 6 -13 5 -11 0 -14 -3 -6 -6z"/>
<path d="M6710 4864 c-14 -7 -18 -13 -10 -13 24 1 54 15 44 21 -5 4 -20 0 -34
-8z"/>
<path d="M6872 4868 c-20 -25 -18 -53 4 -56 25 -4 59 31 51 53 -8 18 -41 20
-55 3z"/>
<path d="M1140 4863 c0 -8 74 -101 120 -152 20 -22 28 -23 93 -19 59 4 84 12
140 43 37 20 66 39 63 42 -2 3 -44 -11 -93 -31 -141 -56 -190 -50 -230 29 -25
48 -93 113 -93 88z"/>
<path d="M6950 4860 c0 -5 6 -10 14 -10 8 0 16 -6 19 -12 2 -7 8 -10 12 -6 4
4 2 14 -5 23 -14 17 -40 20 -40 5z"/>
<path d="M7567 4843 c-24 -6 -11 -23 18 -23 32 0 56 10 49 21 -5 9 -36 10 -67
2z"/>
<path d="M5505 4830 c-3 -5 -2 -10 4 -10 5 0 13 5 16 10 3 6 2 10 -4 10 -5 0
-13 -4 -16 -10z"/>
<path d="M7326 4769 c-321 -124 -437 -176 -444 -197 -3 -10 7 -8 34 6 22 11
84 36 139 57 209 77 452 175 470 190 20 14 20 14 0 14 -11 0 -101 -32 -199
-70z"/>
<path d="M6495 4820 c3 -5 0 -10 -7 -10 -10 0 -10 -2 1 -9 9 -6 0 -11 -30 -15
-77 -12 -99 -17 -104 -26 -3 -4 11 -4 30 0 19 4 37 4 40 -1 9 -14 -31 -29 -78
-29 -25 0 -64 -7 -87 -15 -27 -10 -74 -14 -129 -13 -124 2 -164 -17 -101 -49
l24 -12 -25 -5 c-68 -14 -79 -13 -84 5 -8 23 -27 24 -71 3 -46 -22 -62 -43
-43 -55 11 -7 10 -9 -5 -9 -11 0 -57 -12 -102 -27 -72 -23 -86 -25 -108 -14
-27 15 -50 6 -42 -15 3 -8 0 -14 -7 -14 -7 0 -25 -7 -41 -15 -16 -9 -46 -20
-65 -24 -153 -36 -359 -96 -373 -109 -21 -18 -23 -38 -5 -45 7 -3 5 -6 -5 -6
-10 -1 -18 5 -18 13 0 22 -26 26 -67 12 -68 -24 -94 -39 -89 -51 3 -8 -4 -10
-18 -8 -22 5 -56 -19 -56 -38 0 -13 45 -11 98 5 79 25 355 94 397 100 40 7
235 64 398 117 49 16 103 29 120 29 17 0 38 7 47 15 8 8 41 21 72 29 31 8 66
20 78 26 16 9 25 8 36 -1 10 -8 14 -8 14 0 0 6 7 11 16 11 8 0 63 16 121 35
58 19 135 40 172 46 36 7 75 17 86 24 11 7 61 18 110 25 149 20 215 52 215
102 0 17 -5 20 -32 15 -18 -2 -40 -1 -49 4 -10 5 -30 1 -56 -12 -22 -11 -64
-22 -94 -24 l-54 -5 59 15 c33 9 62 18 65 21 7 7 -104 -5 -126 -13 -9 -4 -11
0 -7 11 4 11 1 16 -11 16 -9 0 -13 -4 -10 -10z m213 -52 c-2 -18 -14 -24 -63
-34 -88 -19 -160 -18 -176 3 -13 15 -7 16 79 11 50 -3 92 -2 92 3 0 8 48 38
63 39 5 0 7 -10 5 -22z m42 2 c0 -5 -4 -10 -10 -10 -5 0 -10 5 -10 10 0 6 5
10 10 10 6 0 10 -4 10 -10z m-305 -70 c4 -6 -9 -11 -32 -12 -73 -3 -79 -4 -90
-11 -26 -16 -159 -67 -175 -67 -20 0 -24 15 -7 25 6 4 8 13 5 21 -4 10 2 14
19 14 15 0 25 -6 25 -15 0 -11 12 -8 53 13 64 33 189 53 202 32z m-335 -100
c0 -5 -4 -10 -9 -10 -6 0 -13 5 -16 10 -3 6 1 10 9 10 9 0 16 -4 16 -10z m-70
-5 c0 -2 -33 -14 -72 -26 -40 -12 -126 -39 -190 -60 -64 -22 -125 -39 -135
-38 -16 1 -16 2 2 8 11 4 34 13 50 20 143 59 345 116 345 96z m-445 -135 c-10
-12 -25 -18 -33 -15 -8 3 -42 -8 -76 -24 -56 -28 -156 -51 -156 -37 0 14 52
38 111 51 35 8 87 21 114 29 28 8 52 15 54 15 2 1 -4 -8 -14 -19z m-275 -68
c0 -13 -12 -22 -22 -16 -10 6 -1 24 13 24 5 0 9 -4 9 -8z m-75 -27 c-40 -19
-67 -18 -35 0 14 8 34 14 45 14 15 -1 13 -4 -10 -14z m-85 -19 c0 -2 -13 -9
-29 -14 -25 -9 -29 -8 -24 4 4 12 53 21 53 10z m-150 -46 c-8 -5 -19 -10 -25
-10 -5 0 -3 5 5 10 8 5 20 10 25 10 6 0 3 -5 -5 -10z"/>
<path d="M1142 4793 c14 -16 38 -48 53 -71 33 -55 44 -48 15 10 -27 53 -58 88
-79 88 -11 0 -8 -8 11 -27z"/>
<path d="M6430 4805 c0 -8 7 -15 15 -15 9 0 12 6 9 15 -4 8 -10 15 -15 15 -5
0 -9 -7 -9 -15z"/>
<path d="M6154 4795 c-10 -8 -14 -15 -8 -15 5 0 19 7 30 15 10 8 14 15 8 15
-5 0 -19 -7 -30 -15z"/>
<path d="M6307 4793 c-10 -9 -9 -41 1 -47 4 -2 13 4 20 14 8 14 8 21 -2 29 -7
6 -16 8 -19 4z"/>
<path d="M7060 4758 c-63 -23 -84 -38 -54 -38 20 0 124 45 124 55 0 8 -11 6
-70 -17z"/>
<path d="M1525 4734 c-27 -14 -62 -32 -78 -40 -44 -23 -25 -28 30 -8 59 22
118 60 105 68 -5 3 -31 -6 -57 -20z"/>
<path d="M6850 4752 c0 -11 22 -32 32 -32 5 0 4 9 -2 20 -11 20 -30 28 -30 12z"/>
<path d="M7474 4745 c-58 -13 -130 -42 -122 -50 2 -2 37 5 78 16 40 10 85 18
99 18 l26 -2 -25 -4 c-51 -9 -47 -26 4 -19 56 7 67 13 46 26 -13 9 -13 10 0
10 13 0 13 1 0 10 -19 12 -30 12 -106 -5z"/>
<path d="M5180 4740 c-12 -8 -11 -10 7 -10 12 0 25 5 28 10 8 13 -15 13 -35 0z"/>
<path d="M6790 4730 c0 -5 7 -10 16 -10 8 0 12 5 9 10 -3 6 -10 10 -16 10 -5
0 -9 -4 -9 -10z"/>
<path d="M3785 4720 c-3 -5 -1 -10 4 -10 6 0 11 5 11 10 0 6 -2 10 -4 10 -3 0
-8 -4 -11 -10z"/>
<path d="M5855 4720 c-3 -5 -2 -10 4 -10 5 0 13 5 16 10 3 6 2 10 -4 10 -5 0
-13 -4 -16 -10z"/>
<path d="M3900 4705 c-11 -13 -10 -14 4 -9 9 3 16 10 16 15 0 13 -6 11 -20 -6z"/>
<path d="M6900 4710 c0 -5 4 -10 9 -10 6 0 13 5 16 10 3 6 -1 10 -9 10 -9 0
-16 -4 -16 -10z"/>
<path d="M5060 4689 c0 -5 5 -7 10 -4 6 3 10 8 10 11 0 2 -4 4 -10 4 -5 0 -10
-5 -10 -11z"/>
<path d="M7505 4683 c-87 -23 -92 -24 -77 -30 18 -7 162 27 162 38 0 12 -12
11 -85 -8z"/>
<path d="M7880 4690 c0 -5 5 -10 10 -10 6 0 10 5 10 10 0 6 -4 10 -10 10 -5 0
-10 -4 -10 -10z"/>
<path d="M6673 4674 c-18 -8 -33 -19 -33 -24 0 -6 18 -1 40 10 59 30 54 41 -7
14z"/>
<path d="M7420 4680 c0 -5 7 -7 15 -4 8 4 15 8 15 10 0 2 -7 4 -15 4 -8 0 -15
-4 -15 -10z"/>
<path d="M4969 4676 c-2 -3 -58 -18 -123 -35 -95 -25 -122 -29 -133 -19 -12
10 -17 9 -24 -5 -13 -22 -32 -22 -53 2 -17 19 -17 19 6 15 22 -5 22 -5 4 10
-27 22 -33 20 -32 -10 1 -16 11 -34 26 -45 25 -19 27 -18 135 11 171 46 214
60 220 70 6 10 -17 14 -26 6z"/>
<path d="M1265 4660 c3 -5 15 -10 26 -10 11 0 17 5 14 10 -3 6 -15 10 -26 10
-11 0 -17 -4 -14 -10z"/>
<path d="M1330 4660 c0 -5 7 -10 15 -10 8 0 15 5 15 10 0 6 -7 10 -15 10 -8 0
-15 -4 -15 -10z"/>
<path d="M6570 4640 c-12 -8 -11 -10 8 -10 12 0 22 5 22 10 0 13 -11 13 -30 0z"/>
<path d="M7555 4640 c-18 -8 -17 -9 7 -9 15 -1 30 4 33 9 7 12 -12 12 -40 0z"/>
<path d="M6715 4620 c-3 -5 -1 -10 4 -10 6 0 11 5 11 10 0 6 -2 10 -4 10 -3 0
-8 -4 -11 -10z"/>
<path d="M3216 4525 c-33 -30 -56 -58 -52 -62 4 -4 35 21 69 55 76 77 64 82
-17 7z"/>
<path d="M6583 4567 c-22 -10 -31 -27 -15 -27 12 0 48 28 42 33 -3 2 -15 0
-27 -6z"/>
<path d="M7733 4569 c-25 -9 -30 -19 -10 -19 15 0 43 17 37 23 -3 3 -15 1 -27
-4z"/>
<path d="M4613 4563 c-18 -7 -16 -43 2 -43 18 0 31 28 19 39 -5 5 -15 6 -21 4z"/>
<path d="M6675 4555 c-23 -10 -25 -14 -10 -14 21 -1 52 15 45 23 -3 2 -18 -2
-35 -9z"/>
<path d="M6740 4560 c0 -13 18 -22 24 -11 3 5 -1 11 -9 15 -8 3 -15 1 -15 -4z"/>
<path d="M6823 4563 c-14 -5 -18 -23 -5 -23 5 0 17 7 28 15 14 11 15 14 4 14
-8 0 -21 -3 -27 -6z"/>
<path d="M4530 4550 c0 -5 5 -10 10 -10 6 0 10 5 10 10 0 6 -4 10 -10 10 -5 0
-10 -4 -10 -10z"/>
<path d="M4915 4550 c-3 -5 -1 -10 4 -10 6 0 11 5 11 10 0 6 -2 10 -4 10 -3 0
-8 -4 -11 -10z"/>
<path d="M7460 4521 c-95 -32 -278 -109 -298 -124 -18 -14 -105 -54 -177 -82
-70 -27 -445 -194 -513 -228 -26 -13 -72 -34 -102 -47 -129 -53 -340 -154
-340 -163 0 -5 8 -7 18 -4 23 7 248 106 458 202 561 256 756 342 912 404 73
30 135 57 138 62 8 14 -4 11 -96 -20z"/>
<path d="M4880 4530 c0 -5 7 -10 16 -10 8 0 12 5 9 10 -3 6 -10 10 -16 10 -5
0 -9 -4 -9 -10z"/>
<path d="M6210 4530 c-12 -8 -12 -10 5 -10 11 0 27 5 35 10 12 8 12 10 -5 10
-11 0 -27 -5 -35 -10z"/>
<path d="M4852 4510 c-10 -17 -10 -20 2 -20 19 0 31 19 19 31 -5 5 -14 0 -21
-11z"/>
<path d="M7565 4520 c-3 -5 -2 -10 4 -10 5 0 13 5 16 10 3 6 2 10 -4 10 -5 0
-13 -4 -16 -10z"/>
<path d="M6440 4505 c-8 -9 -8 -15 -2 -15 12 0 26 19 19 26 -2 2 -10 -2 -17
-11z"/>
<path d="M7614 4495 c-19 -14 -19 -14 2 -15 11 0 29 7 40 15 19 14 19 14 -2
15 -11 0 -29 -7 -40 -15z"/>
<path d="M4788 4483 c7 -3 16 -2 19 1 4 3 -2 6 -13 5 -11 0 -14 -3 -6 -6z"/>
<path d="M6342 4479 c-13 -5 -20 -13 -17 -19 9 -14 16 -12 45 10 27 21 13 26
-28 9z"/>
<path d="M7507 4473 c-4 -3 -7 -11 -7 -17 0 -6 5 -5 12 2 6 6 9 14 7 17 -3 3
-9 2 -12 -2z"/>
<path d="M6455 4434 c-63 -22 -127 -64 -98 -64 7 0 14 4 17 9 3 4 39 20 81 36
41 15 75 31 75 36 0 5 -1 9 -2 8 -2 0 -34 -11 -73 -25z"/>
<path d="M7045 4417 c-44 -22 -75 -42 -69 -44 12 -4 110 38 139 60 40 31 8 23
-70 -16z"/>
<path d="M7455 4450 c-3 -5 1 -10 9 -10 9 0 16 5 16 10 0 6 -4 10 -9 10 -6 0
-13 -4 -16 -10z"/>
<path d="M6210 4414 c0 -8 5 -12 10 -9 6 3 10 10 10 16 0 5 -4 9 -10 9 -5 0
-10 -7 -10 -16z"/>
<path d="M4978 4399 c-21 -12 -24 -33 -4 -26 8 3 17 1 19 -6 3 -9 8 -9 18 1
11 10 11 12 0 12 -11 0 -11 3 -1 15 10 12 10 15 -1 15 -8 0 -22 -5 -31 -11z"/>
<path d="M6273 4368 c-13 -6 -23 -15 -23 -19 0 -10 58 10 66 22 7 12 -16 10
-43 -3z"/>
<path d="M3445 4360 c-3 -5 -1 -10 4 -10 6 0 11 5 11 10 0 6 -2 10 -4 10 -3 0
-8 -4 -11 -10z"/>
<path d="M4680 4359 c0 -5 5 -7 10 -4 6 3 10 8 10 11 0 2 -4 4 -10 4 -5 0 -10
-5 -10 -11z"/>
<path d="M6385 4360 c-3 -5 1 -10 9 -10 8 0 18 5 21 10 3 6 -1 10 -9 10 -8 0
-18 -4 -21 -10z"/>
<path d="M4600 4350 c0 -5 7 -10 15 -10 8 0 15 5 15 10 0 6 -7 10 -15 10 -8 0
-15 -4 -15 -10z"/>
<path d="M2683 4343 c-22 -8 -14 -25 7 -18 14 5 20 2 20 -9 0 -19 16 -21 23
-3 2 6 8 8 13 4 5 -4 2 -12 -5 -16 -25 -16 -3 -27 55 -29 32 -1 63 -7 70 -13
8 -7 14 -7 19 1 3 5 0 10 -8 10 -7 0 -20 11 -27 26 -12 22 -18 24 -54 19 l-41
-6 33 15 c17 8 32 17 32 20 0 6 -121 5 -137 -1z"/>
<path d="M3100 4340 c0 -5 7 -10 16 -10 8 0 12 5 9 10 -3 6 -10 10 -16 10 -5
0 -9 -4 -9 -10z"/>
<path d="M3258 4343 c-10 -2 -18 -9 -18 -15 0 -13 69 -3 84 12 10 10 -31 12
-66 3z"/>
<path d="M3200 4329 c0 -5 5 -7 10 -4 6 3 10 8 10 11 0 2 -4 4 -10 4 -5 0 -10
-5 -10 -11z"/>
<path d="M4460 4319 c-52 -10 -131 -25 -175 -33 -44 -8 -120 -24 -169 -36 -49
-11 -97 -19 -106 -18 -9 2 -23 -2 -31 -8 -8 -7 -43 -17 -79 -23 -36 -6 -99
-20 -140 -31 -41 -11 -129 -27 -195 -36 -168 -23 -260 -45 -260 -64 0 -18 30
-18 192 1 62 7 115 10 119 7 12 -12 -140 -300 -202 -384 -35 -47 -67 -98 -70
-112 -18 -85 -52 -129 -125 -161 -72 -32 -373 -117 -520 -146 -135 -27 -188
-44 -140 -45 33 0 258 46 369 76 51 14 103 22 115 19 15 -4 18 -3 9 3 -11 7
-7 11 15 16 15 4 36 9 47 13 12 3 16 1 12 -6 -4 -6 -1 -11 8 -11 18 0 32 20
14 21 -7 0 14 10 48 23 102 38 156 88 171 158 l7 33 6 -35 c4 -28 9 -34 25
-32 46 6 65 13 65 23 0 7 -11 9 -30 6 -53 -11 -36 37 57 160 29 39 74 114 99
165 50 102 79 139 100 131 8 -3 14 0 14 6 0 6 -7 11 -16 11 -13 0 -15 6 -10
28 13 55 1 50 454 157 155 36 208 52 201 59 -2 3 -45 -4 -94 -14 -50 -11 -99
-19 -110 -19 -11 1 78 23 197 49 120 27 226 53 235 59 24 14 9 13 -107 -10z
m-353 -105 c-3 -3 -12 -4 -19 -1 -8 3 -5 6 6 6 11 1 17 -2 13 -5z m-421 -110
c-9 -8 -19 -27 -22 -42 -3 -15 -23 -56 -44 -92 -21 -36 -45 -78 -54 -95 -8
-16 -15 -25 -15 -20 0 6 13 35 29 65 55 101 72 142 67 166 -4 24 4 32 36 33
17 1 17 0 3 -15z"/>
<path d="M5480 4330 c-12 -8 -12 -10 5 -10 11 0 27 5 35 10 12 8 12 10 -5 10
-11 0 -27 -5 -35 -10z"/>
<path d="M3023 4310 c4 -17 0 -20 -28 -20 -19 0 -36 -4 -40 -9 -7 -12 31 -25
45 -16 6 4 16 2 23 -3 8 -6 23 -5 41 3 l30 13 -29 26 c-33 31 -49 33 -42 6z"/>
<path d="M6010 4309 c0 -5 5 -7 10 -4 6 3 10 8 10 11 0 2 -4 4 -10 4 -5 0 -10
-5 -10 -11z"/>
<path d="M3257 4282 c-28 -30 -20 -49 8 -22 25 24 32 40 17 40 -5 0 -16 -8
-25 -18z"/>
<path d="M7143 4293 c-23 -9 -14 -25 10 -18 31 10 45 25 22 24 -11 0 -26 -3
-32 -6z"/>
<path d="M2910 4270 c0 -5 5 -10 10 -10 6 0 10 5 10 10 0 6 -4 10 -10 10 -5 0
-10 -4 -10 -10z"/>
<path d="M4783 4245 c0 -30 22 -33 37 -5 6 11 9 20 8 21 -38 10 -45 7 -45 -16z"/>
<path d="M5858 4243 c7 -3 16 -2 19 1 4 3 -2 6 -13 5 -11 0 -14 -3 -6 -6z"/>
<path d="M4647 4234 c-4 -4 -7 -14 -7 -23 0 -11 3 -12 11 -4 6 6 10 16 7 23
-2 6 -7 8 -11 4z"/>
<path d="M6960 4230 c-13 -8 -13 -10 2 -10 9 0 20 5 23 10 8 13 -5 13 -25 0z"/>
<path d="M6077 4203 c-4 -3 -7 -11 -7 -17 0 -6 5 -5 12 2 6 6 9 14 7 17 -3 3
-9 2 -12 -2z"/>
<path d="M4875 4180 c-3 -5 -2 -10 4 -10 5 0 13 5 16 10 3 6 2 10 -4 10 -5 0
-13 -4 -16 -10z"/>
<path d="M6040 4179 c0 -5 5 -7 10 -4 6 3 10 8 10 11 0 2 -4 4 -10 4 -5 0 -10
-5 -10 -11z"/>
<path d="M5614 4155 c-10 -8 -14 -15 -8 -15 5 0 19 7 30 15 10 8 14 15 8 15
-5 0 -19 -7 -30 -15z"/>
<path d="M6169 4164 c-2 -5 -30 -25 -62 -43 -67 -38 -71 -51 -6 -21 58 26 82
46 77 62 -3 8 -6 9 -9 2z"/>
<path d="M6745 4150 c-3 -5 -1 -10 4 -10 6 0 11 5 11 10 0 6 -2 10 -4 10 -3 0
-8 -4 -11 -10z"/>
<path d="M5670 4140 c-13 -8 -13 -10 2 -10 9 0 20 5 23 10 8 13 -5 13 -25 0z"/>
<path d="M4134 4125 c-10 -8 -14 -14 -9 -15 15 0 40 18 34 24 -3 3 -14 -1 -25
-9z"/>
<path d="M5538 4128 c-23 -8 -40 -28 -23 -28 12 0 55 24 55 32 0 4 -1 8 -2 7
-2 0 -15 -5 -30 -11z"/>
<path d="M5820 4112 c0 -5 7 -13 16 -16 10 -4 14 -1 12 6 -5 15 -28 23 -28 10z"/>
<path d="M5878 4084 c-38 -19 -68 -39 -68 -44 0 -6 -8 -10 -17 -10 -20 -1 -53
-23 -54 -36 0 -5 -32 -25 -72 -44 -92 -45 -390 -240 -442 -289 -22 -21 -57
-51 -78 -66 -21 -15 -35 -30 -32 -33 6 -6 159 95 300 198 103 76 242 170 249
170 14 0 296 177 296 185 0 10 -15 4 -82 -31z"/>
<path d="M5375 4063 c-98 -38 -127 -56 -74 -44 64 15 209 82 174 81 -6 -1 -50
-17 -100 -37z"/>
<path d="M5500 4070 c-8 -5 -11 -12 -7 -16 4 -4 15 0 24 9 18 18 8 23 -17 7z"/>
<path d="M5985 4055 c-32 -31 -31 -37 6 -54 37 -16 61 -2 39 24 -10 12 -10 19
-2 27 7 7 12 16 12 20 0 17 -32 7 -55 -17z"/>
<path d="M4060 4030 c0 -5 4 -10 9 -10 6 0 13 5 16 10 3 6 -1 10 -9 10 -9 0
-16 -4 -16 -10z"/>
<path d="M6153 3998 c-13 -6 -23 -15 -23 -20 0 -11 2 -11 51 12 35 16 39 19
19 19 -14 0 -35 -5 -47 -11z"/>
<path d="M11006 3993 c-6 -14 -5 -15 5 -6 7 7 10 15 7 18 -3 3 -9 -2 -12 -12z"/>
<path d="M5590 3980 c0 -5 5 -10 10 -10 6 0 10 5 10 10 0 6 -4 10 -10 10 -5 0
-10 -4 -10 -10z"/>
<path d="M6090 3959 c0 -5 5 -7 10 -4 6 3 10 8 10 11 0 2 -4 4 -10 4 -5 0 -10
-5 -10 -11z"/>
<path d="M5112 3929 c-24 -17 -41 -33 -39 -36 5 -4 107 55 107 63 0 12 -30 0
-68 -27z"/>
<path d="M5410 3940 c-12 -8 -12 -10 2 -15 20 -8 41 2 33 16 -8 11 -16 11 -35
-1z"/>
<path d="M6030 3920 c0 -5 5 -10 10 -10 6 0 10 5 10 10 0 6 -4 10 -10 10 -5 0
-10 -4 -10 -10z"/>
<path d="M5721 3889 c-18 -11 -31 -22 -28 -25 6 -7 77 28 77 38 0 13 -12 10
-49 -13z"/>
<path d="M2599 3819 c-175 -106 -325 -215 -780 -568 -44 -35 -98 -94 -68 -76
8 5 113 86 234 179 412 318 429 330 618 447 85 53 148 98 136 99 -3 0 -66 -36
-140 -81z"/>
<path d="M4846 3800 c-141 -66 -181 -88 -173 -96 5 -5 328 143 341 156 23 23
-26 5 -168 -60z"/>
<path d="M5050 3849 c0 -5 5 -7 10 -4 6 3 10 8 10 11 0 2 -4 4 -10 4 -5 0 -10
-5 -10 -11z"/>
<path d="M5920 3845 c-7 -8 -8 -15 -2 -15 5 0 15 7 22 15 7 8 8 15 2 15 -5 0
-15 -7 -22 -15z"/>
<path d="M5597 3824 c-21 -14 -36 -28 -33 -31 6 -6 86 43 86 52 0 11 -17 4
-53 -21z"/>
<path d="M5840 3779 c0 -5 5 -7 10 -4 6 3 10 8 10 11 0 2 -4 4 -10 4 -5 0 -10
-5 -10 -11z"/>
<path d="M4838 3755 c-40 -21 -69 -45 -55 -45 9 0 127 61 127 65 0 11 -27 3
-72 -20z"/>
<path d="M5645 3734 l-30 -14 35 5 c19 3 39 10 44 15 15 15 -14 12 -49 -6z"/>
<path d="M4170 3720 c-9 -6 -10 -10 -3 -10 6 0 15 5 18 10 8 12 4 12 -15 0z"/>
<path d="M4610 3685 c-16 -19 -3 -19 30 0 24 13 24 14 4 15 -12 0 -27 -7 -34
-15z"/>
<path d="M4610 3648 c-58 -27 -100 -52 -93 -55 6 -2 44 11 85 30 40 19 88 40
106 47 18 7 35 17 38 21 12 21 -38 5 -136 -43z"/>
<path d="M3996 3681 c-4 -7 -5 -15 -2 -18 9 -9 19 4 14 18 -4 11 -6 11 -12 0z"/>
<path d="M4517 3651 c-44 -21 -68 -41 -49 -41 17 0 89 37 97 50 9 14 -3 11
-48 -9z"/>
<path d="M3955 3650 c-3 -5 1 -10 9 -10 9 0 16 5 16 10 0 6 -4 10 -9 10 -6 0
-13 -4 -16 -10z"/>
<path d="M3790 3604 c-52 -19 -140 -48 -194 -64 -99 -29 -157 -59 -86 -45 97
19 374 109 419 135 40 24 -51 6 -139 -26z"/>
<path d="M4380 3583 c-30 -14 -50 -27 -43 -30 11 -4 113 43 113 52 0 9 -14 4
-70 -22z"/>
<path d="M5061 3534 c-33 -31 -23 -39 14 -10 15 12 24 25 19 28 -5 3 -20 -5
-33 -18z"/>
<path d="M3764 3535 c-15 -11 -16 -14 -3 -15 8 0 24 7 35 15 15 11 16 14 3 15
-8 0 -24 -7 -35 -15z"/>
<path d="M4290 3540 c-8 -5 -11 -12 -7 -16 4 -4 13 -2 19 4 15 15 7 24 -12 12z"/>
<path d="M4370 3540 c0 -5 -5 -10 -11 -10 -11 0 -107 -41 -228 -97 -41 -19
-117 -52 -170 -75 -53 -22 -116 -49 -140 -59 -24 -11 -46 -18 -47 -16 -2 2 49
27 114 57 207 93 271 125 272 132 0 10 -52 -10 -200 -75 -510 -223 -742 -323
-1040 -447 -69 -29 -172 -72 -230 -97 -58 -25 -150 -63 -205 -83 -55 -21 -152
-59 -215 -85 -183 -76 -658 -253 -750 -280 -92 -28 -306 -107 -329 -122 -14
-9 -35 -13 -55 -10 -17 3 -25 3 -18 0 8 -3 5 -11 -10 -24 -27 -21 -14 -24 21
-5 14 8 31 12 38 9 7 -3 13 0 13 6 0 6 8 11 19 11 42 0 434 135 711 245 74 29
222 88 328 130 107 42 195 75 197 73 15 -15 -823 -335 -1099 -420 -72 -22
-153 -51 -181 -63 -27 -12 -65 -28 -82 -35 -42 -16 -42 -35 -2 -49 41 -14 151
-15 129 -1 -8 5 -32 10 -52 10 -108 0 -56 30 180 101 182 55 670 231 832 300
14 6 142 58 285 116 143 58 321 131 395 163 74 32 191 81 260 110 288 121 679
295 878 389 116 56 251 117 300 137 48 20 93 41 100 46 15 12 16 28 2 28 -5 0
-10 -4 -10 -10z m-631 -274 c-8 -9 -193 -86 -196 -82 -2 2 38 22 89 44 85 37
118 49 107 38z m-229 -101 c-14 -8 -29 -14 -35 -14 -5 0 1 6 15 14 14 8 30 14
35 14 6 0 -1 -6 -15 -14z m-70 -30 c-14 -8 -29 -14 -35 -14 -5 0 1 6 15 14 14
8 30 14 35 14 6 0 -1 -6 -15 -14z m-61 -25 c-32 -19 -272 -121 -275 -117 -4 4
266 125 281 126 6 0 3 -4 -6 -9z m-309 -135 c-14 -8 -29 -14 -35 -14 -5 0 1 6
15 14 14 8 30 14 35 14 6 0 -1 -6 -15 -14z m-95 -40 c-27 -13 -54 -24 -60 -24
-5 0 13 11 40 25 28 13 55 23 60 23 6 0 -12 -11 -40 -24z m-95 -40 c-14 -8
-29 -14 -35 -14 -5 0 1 6 15 14 14 8 30 14 35 14 6 0 -1 -6 -15 -14z m-130
-55 c-8 -5 -19 -10 -25 -10 -5 0 -3 5 5 10 8 5 20 10 25 10 6 0 3 -5 -5 -10z
m-60 -25 c-14 -8 -29 -14 -35 -14 -5 0 1 6 15 14 14 8 30 14 35 14 6 0 -1 -6
-15 -14z m-51 -19 c-6 -6 -178 -76 -186 -76 -15 0 9 13 88 45 76 31 110 42 98
31z"/>
<path d="M4221 3510 c-24 -11 -42 -23 -39 -26 8 -7 74 21 82 35 9 14 9 14 -43
-9z"/>
<path d="M4998 3494 c-26 -13 -38 -34 -20 -34 12 1 57 38 52 43 -3 3 -17 -1
-32 -9z"/>
<path d="M3360 3480 c0 -13 20 -13 40 0 12 8 9 10 -12 10 -16 0 -28 -4 -28
-10z"/>
<path d="M3450 3460 c0 -5 5 -10 10 -10 6 0 10 5 10 10 0 6 -4 10 -10 10 -5 0
-10 -4 -10 -10z"/>
<path d="M3505 3460 c-3 -5 1 -10 9 -10 9 0 16 5 16 10 0 6 -4 10 -9 10 -6 0
-13 -4 -16 -10z"/>
<path d="M4905 3446 c-16 -8 -39 -21 -50 -31 -19 -16 -19 -16 10 -10 28 6 95
42 95 51 0 8 -25 3 -55 -10z"/>
<path d="M3895 3419 c-4 -6 -5 -12 -2 -15 7 -7 37 7 37 17 0 13 -27 11 -35 -2z"/>
<path d="M3824 3390 c-41 -18 -65 -40 -44 -40 15 0 87 38 95 50 9 14 -3 12
-51 -10z"/>
<path d="M3337 3373 c-4 -3 -7 -11 -7 -17 0 -6 5 -5 12 2 6 6 9 14 7 17 -3 3
-9 2 -12 -2z"/>
<path d="M4710 3353 c-30 -14 -50 -27 -43 -30 11 -4 113 43 113 52 0 9 -14 4
-70 -22z"/>
<path d="M4600 3290 c0 -5 5 -10 10 -10 6 0 10 5 10 10 0 6 -4 10 -10 10 -5 0
-10 -4 -10 -10z"/>
<path d="M3552 3268 c-18 -11 -31 -22 -28 -25 5 -6 63 24 71 37 9 15 -6 11
-43 -12z"/>
<path d="M2790 3260 c-12 -8 -10 -10 10 -9 14 1 36 5 50 9 23 7 22 8 -10 9
-19 0 -42 -4 -50 -9z"/>
<path d="M4481 3239 c-18 -11 -31 -22 -28 -25 7 -8 67 25 67 36 0 13 0 13 -39
-11z"/>
<path d="M4395 3200 c-3 -5 1 -10 9 -10 8 0 18 5 21 10 3 6 -1 10 -9 10 -8 0
-18 -4 -21 -10z"/>
<path d="M4210 3169 c0 -5 5 -7 10 -4 6 3 10 8 10 11 0 2 -4 4 -10 4 -5 0 -10
-5 -10 -11z"/>
<path d="M3303 3163 c-14 -5 -18 -23 -5 -23 5 0 17 7 28 15 14 11 15 14 4 14
-8 0 -21 -3 -27 -6z"/>
<path d="M4304 3155 c-10 -8 -14 -15 -8 -15 5 0 19 7 30 15 10 8 14 15 8 15
-5 0 -19 -7 -30 -15z"/>
<path d="M7032 3137 c-26 -27 -28 -39 -7 -31 16 7 40 43 33 50 -3 2 -14 -6
-26 -19z"/>
<path d="M4130 3135 c-7 -8 -8 -15 -2 -15 5 0 15 7 22 15 7 8 8 15 2 15 -5 0
-15 -7 -22 -15z"/>
<path d="M3044 3045 c-10 -8 -14 -15 -7 -15 19 0 43 11 43 21 0 13 -14 11 -36
-6z"/>
<path d="M3905 3030 c-17 -11 -36 -20 -43 -20 -7 0 -85 -34 -175 -76 -187 -88
-301 -138 -372 -165 -27 -10 -138 -54 -245 -99 -107 -45 -260 -105 -340 -135
-154 -56 -774 -260 -825 -271 -59 -12 -95 -26 -95 -36 0 -6 10 -8 23 -4 12 4
54 13 93 20 38 8 140 38 225 66 85 29 165 54 179 55 14 1 45 11 70 22 47 21
190 67 245 79 17 3 41 13 54 21 13 8 20 10 17 4 -11 -18 9 -13 37 9 14 11 33
20 41 20 18 0 214 79 286 115 25 13 56 26 70 30 35 10 249 100 340 142 206 97
439 214 445 224 12 19 0 19 -30 -1z"/>
<path d="M1958 2928 c-33 -12 -38 -32 -5 -23 23 8 58 36 42 34 -6 0 -22 -5
-37 -11z"/>
<path d="M1874 2896 c-10 -8 -15 -18 -11 -22 4 -4 17 2 30 14 24 25 12 30 -19
8z"/>
<path d="M14105 2750 c-3 -5 1 -10 9 -10 8 0 18 5 21 10 3 6 -1 10 -9 10 -8 0
-18 -4 -21 -10z"/>
<path d="M5804 2278 l-19 -23 23 19 c21 18 27 26 19 26 -2 0 -12 -10 -23 -22z"/>
<path d="M1676 2214 c-50 -13 -144 -33 -210 -44 l-121 -19 95 5 c148 9 340 49
355 75 9 13 -18 9 -119 -17z"/>
<path d="M1023 2208 c-13 -6 -23 -15 -23 -20 0 -10 36 7 45 22 7 12 7 12 -22
-2z"/>
<path d="M1248 2143 c6 -2 18 -2 25 0 6 3 1 5 -13 5 -14 0 -19 -2 -12 -5z"/>
<path d="M5980 2069 c0 -5 5 -7 10 -4 6 3 10 8 10 11 0 2 -4 4 -10 4 -5 0 -10
-5 -10 -11z"/>
<path d="M5950 2050 c0 -5 5 -10 10 -10 6 0 10 5 10 10 0 6 -4 10 -10 10 -5 0
-10 -4 -10 -10z"/>
<path d="M10170 1894 l-25 -14 28 0 c17 0 27 5 27 15 0 8 -1 15 -2 14 -2 -1
-14 -7 -28 -15z"/>
</g>
</svg>
