<?xml version="1.0" standalone="no"?>
<!DOCTYPE svg PUBLIC "-//W3C//DTD SVG 20010904//EN"
 "http://www.w3.org/TR/2001/REC-SVG-20010904/DTD/svg10.dtd">
<svg version="1.0" xmlns="http://www.w3.org/2000/svg"
 width="1536.000000pt" height="1326.000000pt" viewBox="0 0 1536.000000 1326.000000"
 preserveAspectRatio="xMidYMid meet">
<metadata>
Created by potrace 1.16, written by Peter Selinger 2001-2019
</metadata>
<g transform="translate(0.000000,1326.000000) scale(0.100000,-0.100000)"
fill="#000000" stroke="none">
<path d="M2100 13201 c-13 -11 -28 -17 -32 -15 -4 3 -8 0 -8 -6 0 -6 -4 -8
-10 -5 -5 3 -10 1 -10 -6 0 -7 -3 -10 -6 -7 -3 3 -17 -5 -31 -18 -14 -13 -31
-24 -37 -24 -15 0 -146 -124 -146 -139 0 -6 -5 -10 -12 -8 -9 1 -12 -25 -13
-98 0 -114 -16 -153 -76 -192 -18 -13 -40 -28 -48 -35 -8 -7 -35 -25 -60 -40
-69 -40 -252 -213 -421 -398 -33 -36 -95 -103 -138 -150 -43 -47 -87 -98 -99
-115 -34 -50 -83 -151 -83 -174 0 -12 -8 -24 -17 -28 -10 -3 -29 -18 -43 -32
-36 -39 -127 -109 -169 -131 -20 -10 -73 -54 -118 -98 -78 -77 -120 -102 -175
-102 -10 0 -18 -4 -18 -9 0 -11 -71 -35 -149 -52 -34 -7 -72 -25 -102 -48
l-48 -36 0 -75 c-1 -66 2 -77 20 -88 11 -7 27 -29 36 -50 43 -103 167 -248
246 -289 27 -13 61 -36 76 -49 27 -25 80 -47 103 -43 7 1 33 -7 58 -19 25 -12
51 -22 58 -22 6 0 12 -5 12 -11 0 -11 64 -41 83 -38 7 1 26 -4 42 -11 17 -7
36 -12 44 -11 8 1 10 -2 6 -10 -6 -9 2 -10 31 -5 30 5 36 4 24 -4 -12 -9 -7
-11 21 -7 20 3 41 1 47 -5 5 -5 32 -10 58 -10 51 -1 125 -27 159 -57 59 -51
180 -64 544 -59 260 3 314 6 321 18 7 11 30 15 87 15 140 0 311 -10 306 -17
-4 -7 15 -12 44 -11 7 0 11 -4 10 -11 -1 -6 4 -10 11 -8 8 1 11 -2 7 -8 -3 -5
-1 -10 5 -10 6 0 9 -3 6 -8 -8 -13 50 -75 72 -77 12 -1 29 -8 39 -17 10 -9 38
-26 63 -39 25 -13 50 -30 56 -38 6 -8 18 -12 28 -8 11 5 15 3 10 -5 -5 -8 -2
-9 9 -5 10 3 17 2 17 -3 0 -5 18 -15 40 -21 22 -7 45 -18 51 -26 6 -7 22 -13
36 -13 28 0 83 -26 83 -40 0 -6 7 -10 15 -10 8 0 15 -4 15 -10 0 -5 10 -14 21
-21 17 -9 20 -8 14 3 -3 7 2 3 12 -8 11 -12 33 -29 51 -38 17 -9 42 -26 56
-38 13 -13 43 -40 66 -61 23 -20 44 -35 49 -33 4 3 52 -41 106 -96 55 -56 94
-98 87 -94 -12 7 -12 4 -2 -15 7 -13 19 -32 27 -41 8 -9 28 -43 44 -75 16 -32
36 -69 44 -83 41 -74 74 -270 44 -270 -6 0 -8 -9 -4 -20 4 -11 2 -20 -4 -20
-6 0 -8 -7 -5 -15 4 -8 2 -15 -3 -15 -16 0 -18 -81 -4 -155 7 -39 5 -51 -25
-105 -19 -33 -34 -70 -34 -81 0 -19 4 -20 36 -14 35 6 36 5 30 -17 -4 -13 -10
-44 -13 -71 -3 -26 -10 -50 -14 -53 -5 -3 -9 -20 -9 -37 0 -27 5 -35 30 -44
33 -13 37 -24 15 -47 -8 -8 -15 -22 -15 -30 0 -9 -6 -16 -13 -16 -10 0 -11
-14 -3 -68 15 -109 4 -153 -55 -209 l-49 -48 19 -98 c19 -95 19 -99 0 -172
-10 -41 -32 -108 -49 -149 -28 -67 -31 -82 -28 -167 3 -78 6 -94 19 -97 18 -3
75 51 85 81 3 9 9 17 14 17 16 0 24 -52 11 -71 -6 -10 -11 -36 -11 -58 0 -23
-8 -48 -20 -64 -11 -14 -20 -32 -20 -41 0 -9 -4 -16 -10 -16 -5 0 -10 -11 -10
-23 0 -13 -15 -44 -33 -68 -109 -145 -144 -199 -155 -237 -7 -23 -25 -57 -41
-75 -15 -17 -30 -40 -34 -49 -3 -9 -19 -25 -34 -35 -15 -10 -37 -28 -48 -39
-11 -12 -43 -31 -72 -43 -45 -18 -71 -21 -201 -21 -162 0 -274 8 -267 20 4 7
-76 29 -117 33 -9 1 -15 5 -12 8 2 4 -8 7 -24 7 -15 -1 -38 4 -49 11 -12 6
-64 14 -115 18 -81 5 -96 9 -116 30 -20 22 -28 24 -80 19 -127 -12 -210 -25
-262 -40 -30 -9 -74 -16 -97 -16 -24 0 -43 -4 -43 -10 0 -5 -24 -10 -54 -10
-30 0 -57 -4 -60 -9 -3 -4 -28 -11 -56 -15 -31 -4 -57 -14 -67 -26 -9 -10 -23
-16 -31 -12 -8 3 -13 1 -10 -4 3 -5 -10 -9 -29 -10 -23 0 -41 -8 -52 -21 -9
-11 -51 -44 -94 -73 -42 -29 -77 -56 -77 -60 0 -4 -8 -7 -17 -6 -14 1 -17 -6
-15 -34 4 -43 28 -117 48 -147 11 -18 24 -23 60 -23 32 0 43 3 38 12 -4 6 -3
8 3 5 13 -8 113 22 113 34 0 4 23 12 52 18 60 13 68 8 68 -55 0 -39 -5 -47
-87 -127 -78 -77 -86 -87 -73 -102 12 -14 24 -16 70 -10 30 3 88 10 128 14 44
4 76 12 82 20 6 11 30 13 106 9 94 -5 159 -22 149 -39 -18 -28 73 -85 153 -96
26 -3 56 -12 67 -19 34 -22 140 -45 219 -47 41 -1 69 -5 63 -9 -7 -4 7 -7 31
-6 30 1 46 -4 56 -17 10 -14 32 -19 109 -23 54 -2 97 -1 97 4 0 10 357 8 384
-2 28 -11 370 4 374 16 2 6 56 10 137 10 80 0 136 4 140 10 4 6 10 8 15 5 17
-11 159 72 160 92 0 12 37 25 108 39 18 4 32 10 32 15 0 5 14 9 30 9 74 0 250
83 284 134 8 13 30 27 48 31 18 4 36 12 39 17 7 11 119 37 163 38 16 0 35 8
43 18 8 9 12 12 9 5 -4 -6 11 -3 32 7 21 10 51 22 66 26 19 4 24 9 15 14 -7 5
11 7 39 6 28 -1 57 -8 66 -15 24 -20 59 -9 84 29 12 19 35 40 50 47 39 18 98
16 117 -3 24 -24 129 -12 206 22 l60 27 24 -23 c14 -13 27 -31 30 -40 3 -10
25 -25 50 -34 42 -17 45 -16 94 5 l50 21 39 -41 c21 -22 43 -41 48 -41 6 0 25
-11 44 -25 32 -23 42 -25 150 -25 72 0 135 -5 163 -14 26 -8 57 -12 69 -8 13
3 19 1 15 -5 -4 -7 22 -15 71 -22 75 -11 121 -13 229 -8 43 2 56 -2 77 -22 14
-14 26 -30 26 -36 0 -25 37 -43 100 -50 72 -8 112 -27 131 -62 7 -13 28 -35
46 -49 18 -14 33 -34 33 -45 0 -15 7 -19 35 -19 19 0 35 5 35 10 0 6 26 10 59
10 50 0 64 -4 87 -25 15 -14 30 -25 34 -25 4 0 23 -16 42 -36 28 -27 46 -36
77 -39 23 -1 47 -8 55 -14 7 -6 33 -17 57 -24 64 -20 133 -96 188 -209 12 -26
40 -62 62 -79 36 -28 45 -31 84 -26 l44 6 32 -65 c18 -36 40 -68 48 -71 44
-12 68 -33 91 -78 l25 -50 62 3 c51 3 66 0 91 -18 24 -18 38 -21 66 -16 20 4
36 11 36 16 0 6 20 10 45 10 51 0 85 -25 85 -64 0 -13 10 -36 22 -51 20 -25
25 -27 75 -22 29 3 51 2 49 -2 -3 -4 4 -22 14 -39 23 -37 65 -52 83 -30 20 25
44 28 63 7 24 -27 36 -24 80 17 l39 37 6 -34 c4 -18 17 -41 29 -51 17 -14 19
-21 11 -36 -11 -21 -35 -27 -164 -41 -58 -7 -85 -15 -101 -30 -12 -12 -32 -21
-44 -21 -12 0 -21 -5 -20 -12 2 -7 -18 -16 -47 -22 -28 -6 -61 -19 -75 -28
-13 -10 -30 -18 -37 -18 -21 0 -15 -38 8 -50 11 -6 33 -8 49 -5 32 7 90 -18
90 -38 0 -17 -25 -36 -93 -72 -59 -31 -107 -69 -107 -85 0 -5 -9 -12 -20 -15
-48 -15 -8 -20 169 -20 187 0 190 0 215 -24 19 -18 26 -35 26 -63 0 -37 -3
-40 -47 -60 -59 -25 -55 -22 -47 -42 3 -9 16 -16 28 -16 11 0 41 -7 66 -16 36
-13 108 -22 193 -24 4 0 7 -9 7 -20 0 -15 13 -26 44 -40 24 -10 48 -25 53 -32
8 -14 73 -48 91 -48 6 0 26 -15 45 -34 20 -19 38 -31 42 -28 4 4 5 1 3 -7 -5
-22 78 -64 157 -79 135 -26 181 -30 340 -32 88 -1 183 -5 210 -10 28 -5 70
-12 95 -15 110 -15 110 -15 110 -39 0 -48 28 -66 123 -76 65 -8 92 -15 107
-30 24 -24 56 -26 64 -5 10 27 106 20 151 -11 l38 -25 26 25 27 26 34 -35 c18
-19 38 -31 43 -28 6 3 7 1 3 -5 -12 -20 54 -53 99 -50 37 3 40 5 43 36 3 29
25 45 34 25 4 -10 75 -43 91 -43 8 0 27 -16 44 -35 30 -33 34 -35 97 -35 37 0
66 4 66 10 0 6 20 10 45 10 31 0 47 5 51 15 8 20 76 39 85 24 4 -6 13 -9 20
-7 8 3 27 -3 42 -13 16 -9 38 -14 50 -11 20 5 20 6 1 13 -16 6 -14 8 10 8 41
1 167 -64 212 -110 40 -41 53 -45 83 -29 16 8 17 15 8 55 -12 51 -12 50 28 59
23 5 27 4 15 -5 -12 -9 -11 -10 8 -6 14 3 20 1 15 -6 -4 -7 0 -8 11 -4 9 4 14
3 11 -2 -3 -5 5 -13 17 -17 12 -3 28 -13 35 -20 28 -28 90 -36 148 -20 64 19
75 19 112 4 15 -6 34 -10 42 -9 7 1 10 -2 7 -8 -9 -15 21 -20 108 -20 65 1 83
-3 107 -20 15 -12 33 -21 38 -21 5 0 23 -8 40 -17 28 -16 31 -23 31 -68 0 -27
6 -67 14 -90 33 -96 40 -152 38 -293 -3 -128 -6 -150 -32 -224 -17 -46 -34
-84 -40 -86 -6 -2 -10 -64 -10 -163 0 -87 -3 -159 -7 -159 -5 0 -6 -27 -5 -61
2 -36 -1 -66 -7 -72 -14 -14 -15 -114 -1 -122 12 -7 14 -285 2 -285 -5 0 -9
-15 -10 -32 -1 -18 -5 -75 -8 -127 -6 -109 5 -158 66 -281 20 -41 40 -88 44
-105 10 -42 29 -85 38 -85 5 0 8 -25 8 -56 0 -60 13 -94 35 -94 17 0 46 -49
75 -127 13 -37 27 -60 33 -56 6 4 8 -2 5 -15 -4 -14 2 -31 17 -48 l24 -28 12
47 c8 35 16 47 30 47 39 0 79 -62 79 -121 0 -16 5 -29 10 -29 6 0 10 -27 10
-60 0 -36 4 -60 11 -60 6 0 8 -11 4 -28 -9 -42 19 -63 81 -60 l49 3 8 -40 c25
-116 31 -130 73 -168 23 -21 51 -60 63 -86 26 -61 45 -78 67 -60 8 7 13 21 11
31 -3 10 -1 16 3 13 5 -3 11 1 13 7 4 8 6 7 6 -3 1 -18 67 -49 105 -49 18 0
27 9 38 35 l14 35 37 -31 c21 -17 47 -48 57 -70 22 -42 52 -56 98 -44 35 9 92
52 92 70 0 21 42 105 53 105 5 0 6 -17 3 -37 -4 -21 -2 -45 3 -52 20 -31 81
70 81 133 0 25 5 35 20 39 14 4 20 14 20 35 0 27 34 102 47 102 2 0 9 -13 14
-30 13 -36 39 -40 39 -6 0 14 5 28 10 31 6 3 10 13 10 21 0 7 16 34 35 60 26
34 35 55 35 84 0 32 4 39 25 44 31 8 65 60 65 100 0 15 14 57 30 92 41 86 70
203 70 286 0 39 4 68 10 68 6 0 10 -5 10 -11 0 -5 4 -7 10 -4 6 4 10 -12 10
-39 0 -25 4 -46 10 -46 17 0 30 37 30 85 0 30 11 71 30 115 17 38 30 79 30 92
0 13 5 39 11 58 9 31 22 113 35 225 2 22 7 120 11 217 5 161 8 178 24 183 20
7 27 63 10 80 -10 11 -20 155 -10 155 24 0 32 230 10 289 -5 14 -12 48 -15 75
-3 27 -15 63 -26 81 -24 39 -28 125 -6 125 7 0 16 -9 19 -20 3 -11 10 -20 16
-20 16 0 14 44 -4 87 -8 19 -15 46 -15 58 0 13 -11 46 -26 74 -14 28 -22 55
-19 61 8 12 -15 101 -25 95 -4 -3 -8 5 -8 18 0 24 -10 73 -19 97 -3 8 -5 26
-4 40 2 20 0 22 -9 10 -9 -12 -10 -11 -5 7 6 24 -12 107 -31 138 -6 11 -17 44
-24 73 -11 50 -11 55 9 76 11 12 21 31 21 41 0 17 2 17 23 -3 32 -30 54 -28
76 8 10 16 56 70 103 118 47 49 89 98 92 110 4 11 21 36 39 55 81 86 91 105
89 165 -1 17 3 32 8 32 6 0 10 23 10 51 0 38 -5 55 -17 64 -16 12 -16 17 -5
49 8 21 11 50 7 66 -4 17 -2 30 3 30 5 0 13 8 16 18 12 32 41 77 64 100 12 12
22 34 22 50 0 38 21 65 43 56 9 -3 17 -12 17 -19 0 -24 41 -65 66 -65 31 0 30
13 -7 80 -28 50 -31 62 -29 140 0 47 5 89 10 94 15 15 40 -14 41 -48 0 -17 5
-40 10 -51 6 -13 8 28 5 120 -2 77 -1 146 1 153 3 9 16 11 40 6 l36 -7 -7 39
c-16 92 -18 115 -11 132 4 9 7 29 6 44 -2 16 5 35 14 44 14 14 18 14 39 0 26
-16 36 -12 36 16 0 12 -7 18 -23 18 -31 0 -34 4 -29 40 3 20 10 30 22 30 30 0
43 26 36 75 -3 25 -9 65 -12 90 -8 52 1 56 44 20 39 -33 52 -32 52 5 0 23 -7
33 -30 45 -29 15 -30 17 -30 91 0 69 2 75 18 69 37 -15 72 -23 72 -17 0 16
-134 139 -160 147 -15 5 -18 26 -23 163 -4 86 -7 221 -7 299 0 122 -3 146 -19
175 -11 18 -23 57 -27 86 -6 49 -5 52 15 52 28 0 27 6 -12 54 -33 41 -78 161
-92 243 -4 23 -15 53 -26 67 -10 13 -19 39 -19 58 0 18 -11 56 -25 83 -13 28
-25 59 -25 70 0 11 -14 47 -30 79 -32 62 -37 92 -19 98 11 4 -49 125 -78 160
-8 9 -25 42 -38 74 -22 54 -22 59 -7 70 15 12 14 14 -14 24 -17 6 -46 30 -65
52 -18 23 -27 38 -20 33 9 -5 12 -3 9 6 -3 8 -10 13 -16 12 -7 -2 -9 4 -5 14
4 10 2 14 -4 10 -18 -11 -24 23 -11 59 6 18 9 36 5 40 -3 3 -28 9 -54 12 -44
5 -55 12 -138 93 -109 105 -162 150 -235 197 -30 19 -58 40 -62 46 -14 20 -8
46 10 47 9 1 1 5 -19 11 -21 5 -58 30 -85 56 -27 26 -47 46 -45 45 7 -4 41 18
41 27 0 9 -76 27 -93 22 -5 -1 -6 2 -3 7 3 5 -7 21 -24 34 -16 14 -30 33 -30
41 0 19 -36 40 -52 30 -7 -5 -8 -3 -3 6 6 10 4 12 -9 7 -10 -4 -15 -3 -11 3 3
6 0 10 -8 10 -8 0 -26 11 -41 25 -16 15 -39 25 -57 25 -22 0 -32 6 -39 24 -5
13 -13 27 -18 30 -15 9 -43 -5 -35 -17 8 -13 -37 18 -86 60 -18 16 -48 55 -65
88 -29 54 -35 60 -81 72 -43 12 -56 22 -83 61 -20 29 -32 60 -32 80 0 28 3 32
27 32 14 0 35 -7 45 -17 10 -9 18 -12 18 -7 0 17 -77 71 -107 76 -15 2 -58 32
-90 61 -20 19 -36 26 -45 22 -7 -5 -10 -5 -6 0 10 10 -73 86 -85 78 -6 -3 -7
-1 -3 5 3 6 -2 16 -13 21 -26 14 -34 14 -26 -1 4 -7 0 -5 -8 5 -8 9 -17 17
-21 17 -3 0 -15 9 -25 19 -10 10 -37 22 -60 26 -32 5 -50 17 -87 58 -48 54
-93 90 -65 51 8 -10 1 -6 -15 9 -39 38 -122 97 -135 97 -5 0 -8 4 -5 8 3 5 -6
21 -19 38 -17 19 -25 24 -26 14 -1 -8 -4 -2 -8 14 -5 26 -12 31 -61 42 -88 20
-145 49 -176 90 -16 20 -42 43 -59 51 -16 7 -37 17 -45 22 -8 5 -38 19 -67 32
-28 13 -51 29 -50 34 1 6 -8 10 -20 9 -12 0 -20 3 -18 7 3 4 -11 10 -30 13
-20 4 -33 11 -30 17 6 9 5 10 -32 14 -13 1 -28 7 -35 13 -7 5 -41 19 -76 31
-34 11 -76 29 -92 41 -16 11 -55 25 -87 31 -32 6 -72 18 -88 28 -17 10 -47 20
-68 24 -36 6 -56 18 -130 79 -40 32 -142 68 -196 68 -25 0 -41 5 -45 15 -3 8
-11 15 -18 15 -9 0 -8 -3 2 -10 10 -7 11 -10 2 -10 -7 0 -15 7 -18 15 -4 8
-10 12 -15 9 -5 -3 -12 2 -15 10 -4 10 -18 16 -38 16 -17 0 -52 11 -78 25 -26
14 -56 25 -68 25 -11 0 -50 16 -86 35 -36 20 -69 33 -75 30 -5 -4 -9 -1 -9 6
0 6 -8 9 -20 6 -11 -3 -18 -1 -15 3 7 11 -51 23 -66 14 -8 -5 -9 -3 -4 5 5 9
1 12 -11 10 -11 -2 -23 -1 -29 2 -5 3 -37 14 -70 23 -33 10 -80 27 -105 37
-25 10 -65 20 -89 23 -24 2 -47 10 -51 16 -4 6 -27 14 -51 17 -24 2 -51 7 -59
10 -8 4 -21 5 -29 4 -7 -1 -10 2 -7 7 3 5 -15 10 -42 10 -26 1 -48 6 -50 12
-2 6 -42 10 -98 10 -84 0 -96 2 -116 23 -27 26 -87 45 -186 58 -61 7 -76 6
-88 -6 -19 -19 -41 -19 -78 0 -15 8 -37 15 -47 15 -10 0 -42 9 -71 21 -33 13
-65 19 -85 16 -20 -4 -36 -1 -43 8 -7 8 -45 16 -98 20 -48 4 -98 13 -112 20
-14 7 -64 18 -112 24 -48 5 -101 17 -117 25 -17 9 -40 16 -53 16 -13 0 -37 9
-55 19 -31 19 -133 62 -183 77 -14 4 -36 14 -49 23 -28 18 -118 39 -173 40
-50 1 -68 10 -68 33 0 32 -19 58 -42 58 -12 0 -35 12 -51 27 -22 22 -41 29
-84 33 -42 4 -59 10 -67 25 -6 11 -14 22 -18 25 -11 8 -28 59 -28 83 0 16 -12
27 -38 39 -20 10 -59 40 -87 67 -27 27 -54 47 -59 44 -5 -4 -6 -1 -2 5 4 6 -4
16 -16 23 -22 12 -22 11 -8 -7 8 -10 -6 2 -31 29 -25 26 -54 47 -65 47 -10 0
-48 20 -83 44 -36 25 -71 41 -80 38 -10 -4 -12 -1 -6 8 6 10 4 12 -8 7 -10 -3
-17 -2 -17 4 0 6 -4 8 -8 5 -11 -6 -44 22 -77 67 -25 34 -32 37 -74 37 -26 0
-74 7 -106 17 -33 9 -70 16 -82 16 -13 -1 -21 3 -18 7 2 4 -23 13 -57 20 -34
6 -75 22 -92 35 -45 34 -157 86 -169 78 -6 -3 -7 -1 -3 5 7 11 2 13 -32 16 -7
1 -16 6 -20 12 -11 16 -48 34 -72 34 -12 0 -18 5 -15 10 3 6 0 11 -7 12 -7 0
-17 2 -23 2 -5 1 -31 14 -56 29 -25 15 -51 27 -57 27 -6 0 -32 11 -58 25 -26
14 -59 25 -73 25 -32 0 -113 30 -126 47 -8 10 -204 83 -223 83 -2 0 0 -5 4
-12 8 -13 -12 -3 -38 20 -11 9 -39 14 -83 14 -36 0 -65 3 -65 7 0 5 -11 9 -25
9 -14 0 -41 12 -61 28 -54 44 -95 63 -134 64 -19 0 -52 9 -73 20 -20 11 -46
20 -56 20 -11 0 -23 5 -26 10 -3 6 -30 10 -58 10 -32 0 -62 6 -75 16 -12 8
-48 18 -80 21 -31 3 -66 11 -77 18 -11 7 -36 15 -55 18 -132 21 -184 26 -248
27 -52 0 -78 4 -88 15 -11 10 -36 15 -84 15 -38 0 -70 4 -72 9 -1 5 -32 14
-68 19 -36 5 -132 21 -215 35 -82 14 -186 30 -229 37 -44 6 -86 18 -93 26 -9
9 -36 14 -76 14 -62 0 -191 19 -277 41 -25 7 -87 14 -137 16 -72 3 -93 8 -93
19 0 11 -26 14 -144 14 -85 0 -146 -4 -148 -10 -3 -8 -140 -17 -585 -37 -113
-5 -124 -4 -161 17 -43 24 -52 42 -52 102 0 28 -7 42 -31 62 -17 14 -36 26
-42 26 -7 0 -21 2 -32 5 -11 3 -31 -3 -45 -14z m-283 -323 c-3 -8 -6 -5 -6 6
-1 11 2 17 5 13 3 -3 4 -12 1 -19z m4148 -416 c-3 -3 -11 0 -18 7 -9 10 -8 11
6 5 10 -3 15 -9 12 -12z m-2447 -2867 c-3 -3 -9 2 -12 12 -6 14 -5 15 5 6 7
-7 10 -15 7 -18z m2745 -3382 c-7 -2 -19 -2 -25 0 -7 3 -2 5 12 5 14 0 19 -2
13 -5z m104 -9 c-3 -3 -12 -4 -19 -1 -8 3 -5 6 6 6 11 1 17 -2 13 -5z m1098
-484 c10 -11 16 -20 13 -20 -3 0 -13 9 -23 20 -10 11 -16 20 -13 20 3 0 13 -9
23 -20z m1225 -693 c0 -2 -10 -12 -22 -23 l-23 -19 19 23 c18 21 26 27 26 19z
m6293 -182 c-3 -9 -8 -14 -10 -11 -3 3 -2 9 2 15 9 16 15 13 8 -4z m-4352
-1132 c13 -16 12 -17 -3 -4 -17 13 -22 21 -14 21 2 0 10 -8 17 -17z m1342
-190 c-7 -2 -19 -2 -25 0 -7 3 -2 5 12 5 14 0 19 -2 13 -5z m264 -29 c-3 -3
-12 -4 -19 -1 -8 3 -5 6 6 6 11 1 17 -2 13 -5z m734 -2991 c13 -16 12 -17 -3
-4 -10 7 -18 15 -18 17 0 8 8 3 21 -13z m819 -277 c0 -2 -8 -10 -17 -17 -16
-13 -17 -12 -4 4 13 16 21 21 21 13z m-510 -60 c0 -2 -8 -10 -17 -17 -16 -13
-17 -12 -4 4 13 16 21 21 21 13z"/>
<path d="M15035 4580 c3 -5 10 -10 16 -10 5 0 9 5 9 10 0 6 -7 10 -16 10 -8 0
-12 -4 -9 -10z"/>
</g>
</svg>
