<?xml version="1.0" standalone="no"?>
<!DOCTYPE svg PUBLIC "-//W3C//DTD SVG 20010904//EN"
 "http://www.w3.org/TR/2001/REC-SVG-20010904/DTD/svg10.dtd">
<svg version="1.0" xmlns="http://www.w3.org/2000/svg"
 width="385.000000pt" height="1536.000000pt" viewBox="0 0 385.000000 1536.000000"
 preserveAspectRatio="xMidYMid meet">
<metadata>
Created by potrace 1.16, written by Peter Selinger 2001-2019
</metadata>
<g transform="translate(0.000000,1536.000000) scale(0.100000,-0.100000)"
fill="#000000" stroke="none">
<path d="M2387 15349 c-27 -16 -62 -78 -93 -163 -28 -80 -57 -126 -77 -126 -7
0 -21 16 -32 36 -10 19 -33 47 -49 61 -28 24 -36 25 -111 21 -99 -5 -144 -27
-162 -78 -7 -21 -12 -97 -13 -185 0 -82 -3 -160 -6 -172 -3 -12 -31 -43 -61
-68 l-55 -45 38 0 c47 0 88 -19 92 -43 2 -10 -19 -41 -53 -76 l-56 -58 75 -5
c119 -8 146 -36 146 -153 l0 -64 48 -38 c61 -50 71 -63 72 -95 0 -14 16 -76
34 -136 19 -61 44 -157 55 -214 17 -92 27 -167 61 -453 5 -44 18 -100 29 -125
20 -45 32 -151 46 -390 4 -58 18 -249 32 -425 29 -377 32 -569 10 -760 -9 -77
-23 -223 -31 -325 -9 -102 -22 -207 -31 -235 -9 -27 -19 -95 -22 -150 -4 -68
-12 -112 -24 -137 -21 -40 -31 -128 -49 -403 -6 -93 -15 -188 -20 -211 -5 -23
-14 -108 -20 -190 -11 -159 -14 -177 -60 -342 -19 -68 -43 -125 -64 -157 -52
-78 -55 -85 -70 -221 -13 -113 -20 -137 -50 -194 -82 -152 -196 -386 -196
-401 0 -10 -20 -36 -45 -60 -30 -29 -50 -59 -61 -93 -28 -87 -41 -102 -111
-142 -75 -42 -150 -113 -159 -151 -4 -16 4 -58 21 -113 35 -108 31 -144 -25
-220 -59 -82 -102 -170 -153 -316 -68 -197 -93 -250 -167 -359 -37 -55 -132
-215 -212 -355 -258 -454 -358 -609 -538 -835 -61 -76 -121 -157 -132 -180
-39 -75 -95 -249 -114 -350 -23 -122 -26 -398 -5 -489 34 -153 123 -371 176
-434 47 -56 55 -93 75 -355 48 -612 105 -832 284 -1102 64 -95 245 -314 306
-369 76 -68 385 -197 679 -283 180 -52 176 -49 223 -158 14 -33 49 -112 76
-175 28 -64 56 -137 62 -163 5 -27 19 -206 30 -400 23 -413 34 -539 60 -702
67 -415 147 -679 230 -748 42 -35 123 -77 150 -77 29 0 110 43 144 76 35 36
46 58 91 178 60 159 74 221 90 400 18 204 30 293 56 403 10 45 32 164 49 265
31 189 49 264 143 603 31 110 86 317 123 460 121 472 141 518 338 785 110 148
167 278 185 419 11 87 20 114 88 266 94 208 123 319 150 565 21 199 24 729 5
965 -24 288 -53 593 -87 920 -51 488 -55 547 -65 935 -5 195 -14 383 -20 418
-16 96 -42 151 -133 285 -103 151 -148 244 -186 384 -16 59 -43 142 -60 183
-51 130 -61 281 -41 625 12 200 20 235 66 294 33 43 43 71 25 71 -16 0 -21
126 -11 315 5 105 14 206 20 225 6 19 12 98 15 175 27 884 28 973 16 1135 -16
209 -16 210 4 300 10 48 18 148 22 275 5 189 4 207 -21 325 -30 144 -31 172
-11 230 16 45 18 139 6 280 -4 47 -3 109 2 139 12 68 -6 211 -37 305 -21 63
-22 72 -10 113 12 40 11 58 -10 167 -13 66 -26 166 -30 221 -8 127 -33 281
-51 319 -8 16 -15 42 -15 57 0 15 -15 76 -34 136 -18 59 -37 133 -41 163 -3
30 -15 87 -26 125 -10 39 -23 110 -28 159 -5 48 -14 93 -20 99 -6 6 -11 45
-11 89 0 72 -2 78 -21 78 -33 0 -58 18 -79 60 -11 22 -20 44 -20 49 0 6 23 36
50 66 55 60 63 81 28 71 -13 -4 -43 -9 -68 -12 -40 -5 -50 -2 -87 27 l-42 32
57 34 c31 19 61 39 66 44 17 16 -19 10 -70 -12 l-48 -22 -16 23 c-38 56 -59
70 -100 70 -22 0 -71 -11 -108 -24 l-69 -24 -54 24 c-62 26 -67 27 -92 13z"/>
</g>
</svg>
