<?xml version="1.0" encoding="UTF-8" standalone="no"?>
<!-- Created with Inkscape (http://www.inkscape.org/) -->

<svg
   xmlns:svg="http://www.w3.org/2000/svg"
   xmlns="http://www.w3.org/2000/svg"
   version="1.1"
   width="8in"
   height="6in"
   viewBox="0 0 8 6"
   id="svg2"
   xml:space="preserve"
   style="fill-rule:evenodd">
 <defs
   id="defs4">
  <style
   type="text/css"
   id="style6" />
 </defs>
 <g
   id="Capa_x0020_1">
  
  <g
   id="_104099608">
   <path
   d="m 2.79167,5.03124 0.010417,0.010417 -0.021701,0.01022 L 2.79167,5.03124 z M 6.09375,2.72916 c 0.01852,-0.018516 -0.01852,0.01852 0,0 z m -0.229165,-1.19792 -0.012154,-0.00173 0.012154,-0.00868 0,0.010413 z m -0.906252,-0.406248 0.012154,0.00174 -0.012154,0.00868 0,-0.010417 z M 5.833333,0.572909 5.802085,0.5833263 5.7812504,0.5937436 5.7604158,0.604157 5.7395851,0.6145743 5.7187505,0.6249916 5.6979159,0.6354089 5.6770852,0.6458262 5.6562506,0.6562396 5.6145852,0.6666569 5.5937506,0.6770742 5.572916,0.6874915 5.5520853,0.6979088 5.541668,0.7083261 5.5208334,0.7187434 5.4999988,0.7291568 5.4791681,0.7395741 5.4583335,0.7499914 5.4062508,0.7604087 5.3958335,0.770826 5.3749989,0.7812394 5.3333335,0.7916567 5.3229162,0.802074 5.3020855,0.8124913 5.2812509,0.8229086 5.2708336,0.8333259 5.249999,0.8437432 5.2291683,0.8541566 5.218751,0.8645739 l -0.020835,0.0104173 -0.020831,0.0104173 -0.010417,0 -0.020835,-0.0104173 -0.020835,-0.0104173 -0.041665,-0.0104173 -0.020835,0 -0.031248,0.0104173 -0.010417,0.0104173 -0.010417,0.0104173 -0.010417,0.0104173 -0.010413,0.0416654 0,0.0208346 0.010413,0.0416654 0.010417,0.0208346 0.010417,0.020831 -0.020835,0 -0.010413,0.010417 0,0.020835 -0.010417,0 -0.010417,0 -0.010417,0.041665 0,0.010417 -0.020835,0 0,0.020835 -0.010413,0.010413 0,0.020835 -0.020835,0 -0.020835,0.010417 -0.010417,0.010417 -0.010413,0.031248 -0.010417,0.010417 -0.010417,0.020835 -0.010417,0.010417 0,0.020831 -0.020835,0 -0.020831,0.010417 -0.010417,0.010417 -0.010417,0.020835 -0.010417,0.010417 -0.010417,0.010413 -0.010413,0 -0.010417,0 -0.010417,0.010417 -0.031252,0.010417 -0.010413,0.010417 -0.020835,0.010417 -0.020835,0.010413 -0.010417,0.010417 -0.020831,0.010417 -0.010417,0.020835 -0.010417,0.010417 0,0.010417 0,0.020831 -0.010417,0.041665 -0.020831,0.010417 -0.010417,0.010417 -0.010417,0.020835 -0.010417,0.020835 L 4.5,1.6041558 l -0.041665,0.010417 -0.031248,0 -0.010417,0 -0.031252,0.010417 -0.020831,0.010417 0,0.020831 -0.031252,0 0,-0.020831 -0.020835,0 -0.00469,0.043228 -0.00573,-0.022398 -0.010417,-0.010413 -0.010417,0 -0.010417,0.020831 -0.010417,-0.010417 -0.010417,0 -0.00469,0.032815 -0.00573,-0.022398 -0.020835,0 -0.020835,0.010417 -0.010417,0.010417 -0.010413,0 -0.00469,0.032811 -0.00573,-0.022394 -0.020835,0 -0.010417,0 -0.010417,0 -0.020827,0.010417 -0.010417,0.010417 -0.010417,0 -0.010417,0 -0.010417,0 -0.010413,0 -0.010417,0.010413 -0.020835,0 -0.031248,0.010417 -0.010417,0.010417 -0.020835,0 -0.010417,0 -0.010413,0 -0.010417,0.010417 -0.010417,0.010417 -0.010417,0 -0.010417,0.010413 -0.010417,0 -0.020831,0 0,0.020835 -0.031252,0 0,-0.020835 -0.010417,0 -0.010413,0.010417 -0.010417,0 -0.010417,0.010417 -0.010417,0 -0.010417,0 -0.010417,0.010417 -0.010413,0 -0.010417,0 -0.020835,0 -0.010417,0 -0.010417,0.010417 -0.010413,0 -0.010417,0.010417 -0.020835,0.010417 -0.010417,0 -0.020831,0 -0.010417,0.010413 -0.010417,0 -0.010417,0 -0.031248,0.010417 -0.020835,0.010417 -0.020835,0.010417 -0.020831,0.010417 0,0.020831 -0.041669,0 -0.020831,0.010417 -0.020835,0.010417 -0.020835,0.010417 -0.020831,0.010417 -0.031252,0.010417 -0.041665,0.010413 -0.010417,0.010417 -0.020835,0.010417 -0.020831,0.010417 -0.010417,0.010417 -0.010417,0.010413 -0.031252,0.010417 -0.010413,0.010417 -0.031252,0.010417 -0.031248,0.010417 -0.041669,0.010417 -0.010417,0.010417 -0.010413,0 -0.010417,0 -0.020835,0.010413 -0.010417,0.010417 -0.052083,0.010417 -0.010417,0.010417 -0.010417,0 -0.020831,0.010417 -0.020835,0.010413 0,0.020835 -0.031248,0 -0.020835,0.010417 -0.010417,0.010417 -0.010417,0.010417 -0.020831,0.010417 -0.010417,0.010413 -0.020835,0.010417 -0.010417,0.010417 -0.010417,0.010417 -0.010413,0.010417 -0.010417,0.020831 -0.020835,0.010417 -0.010417,0.010417 -0.020831,0.010417 -0.020835,0.010417 -0.010417,0.020831 -0.010417,0 -0.010417,0 -0.020831,0.010417 -0.010417,0.010417 -0.010417,0.010417 -0.052083,0.010417 -0.010417,0.010413 -0.020835,0.010417 -0.010413,0.010417 -0.020835,0.010417 -0.020835,0.010417 -0.020831,0.010417 -0.010417,0.010417 -0.020835,0.010413 -0.010417,0.010417 -0.020831,0.010417 -0.020835,0.010417 -0.010417,0.010417 -0.010417,0.010413 -0.020831,0.010417 -0.020835,0.010417 0,0.010417 0,0.010417 -0.010417,0.010417 -0.010417,0.020831 -0.041665,0.010417 -0.010417,0.020835 -0.010417,0.010417 -0.010417,0.010413 0,0.010417 -0.010413,0.010417 -0.010417,0.010417 -0.010417,0.020835 -0.010417,0 -0.010417,0 -0.010417,0.010417 -0.020831,0.010413 -0.010417,0.010417 -0.010417,0.010417 -0.010417,0.010417 -0.010417,0.010417 -0.010413,0.010413 -0.010417,0.010417 -0.010417,0.010417 -0.010417,0.020835 -0.010417,0.010417 -0.010417,0.010417 0,0.020831 -0.020831,0 -0.010417,0.020835 -0.010417,0.020831 -0.010417,0.010417 -0.010417,0.010417 -0.010413,0.010417 -0.010417,0.020835 -0.010417,0.031248 0,0.031252 0,0.010413 -0.010417,0.072917 -0.010417,0.020835 -0.010417,0 -0.010413,0.020835 0,0.010413 0,0.041669 0,0.020835 0,0.010413 -0.010417,0.020835 0,0.0625 0.010417,0.052079 0.010413,0.031252 0.010417,0.010413 0.010417,0.010417 -0.010417,0.020835 0,0.010417 0.010417,0.010417 0,0.010417 0.010417,0.010413 0,0.020835 0.010417,0.020835 0.010417,0.031248 0,0.010417 0,0.010417 0.010413,0.010417 0,0.010417 0.010417,0.020831 0,0.010417 0,0.010417 0.010417,0.020831 0,0.010417 0,0.010417 0.010417,0.020835 0.010417,0.010417 0.010417,0.010417 0,0.020831 0,0.010417 0,0.020835 0.010413,0.0625 0.020835,0 0,0.052083 0.010417,0.031248 0.010417,0.020835 0.010417,0.031252 0.010413,0 0.010417,0.031248 0.010417,0.010417 0.010417,0.010417 0,0.041665 -0.010417,0.010417 0,0.010417 0,0.010417 -0.010417,0.031248 0,0.010417 0,0.0625 0,0.020835 0,0.010413 0,0.031252 0,0.010417 -0.010417,0.072917 0,0.020831 0,0.010417 -0.010413,0.020835 -0.010417,0.083331 -0.010417,0.041669 -0.010417,0.010413 -0.010417,0.052087 -0.010417,0.031248 -0.010413,0.020835 -0.010417,0.010417 0,0.020831 -0.020835,0 0,0.010417 0.010417,0.020835 -0.031252,0 0,0.020835 0.020835,0.010413 -0.031248,0 0,0.020835 0,0.010417 0,0.010417 -0.010417,0.010413 -0.010417,0.020835 -0.020835,0.010417 -0.020831,0.010417 -0.010417,0.010417 -0.020835,0.010417 -0.020835,0.010413 -0.020831,0.010417 -0.020835,0.010417 -0.020835,0.010417 -0.020831,0.010417 -0.020835,0.010413 -0.020835,0.010417 -0.041665,0.010417 -0.031248,0.010417 -0.020835,0.010417 -0.031252,0.010417 -0.020831,0.010417 -0.010417,0.010413 -0.010417,0.010417 -0.010417,0.010417 -0.072917,0.010417 -0.010413,0.010417 -0.020835,0.010413 -0.031252,0.010417 -0.010413,0.010417 -0.010417,0.010417 -0.010417,0.041665 0,0.031252 0.010417,0.010417 0.010417,0.010413 0.010413,0.010417 0.020835,0.010417 0.010417,0.010417 0.020835,0.010417 0.093748,0 0.031252,0 0.083331,0 0.114583,-0.010417 0.093752,-0.010417 0.0625,-0.010417 0.052083,-0.010417 0.010417,-0.010413 0.020835,-0.010417 0.020831,0 0.020835,0 0,0.052083 0.010417,0.010417 0.010417,0.010417 0.010413,0.020831 0.010417,0.020835 0.010417,0.010417 0.010417,0.010417 0.020835,0.010413 0.020831,0.010417 0.010417,0.010417 0.052083,0.010417 0.020835,0.010417 0.010417,0.010417 0.031248,0.010417 0.031252,0.010413 0.020831,0.010417 0.020835,0 0,0.020835 0.020835,0.010417 0.072917,0.010413 0.114583,0 0.010417,0 0.020831,0.010417 0.010417,0 0.031252,0 0.020831,0.010417 0.0625,0.010417 0.052083,0 0,-0.052083 0,-0.020835 0.020835,0.010417 0.052083,0.010417 0.0625,0 0.010417,-0.010417 9.84e-5,-0.074228 0.062402,0.011728 0.020835,0.010417 0.020831,0 0.010417,-0.010417 0,-0.093748 -0.010417,-0.010417 -0.022394,-5.236e-4 0.01198,-0.020311 0.010413,-0.020835 0,-0.0625 -0.010413,-0.020831 -0.010417,-0.010417 -0.010417,-0.010417 -0.010417,0 -0.020835,0.010417 -0.020831,0.010417 0,-0.0625 -0.052083,0 -0.031252,0.010413 0,-0.031248 0.031252,0 0.010413,-0.010417 0.010417,0.010417 0.020835,0 0.010417,-0.041665 0.010417,0 0.010413,0.010417 0.010417,0 0.010417,-0.020835 0.010417,-0.083335 0.010417,0.010417 0.020831,0 0.010417,-0.010417 0,-0.031248 0.041669,0 0.010413,-0.010417 0.020835,0 0.010417,-0.0625 0.010417,-0.020835 0.010417,-0.052083 0,-0.020835 -0.00573,-0.064063 0.00573,0.022398 0.031248,0 0.010417,-0.020835 0.020835,0 0.010413,-0.031248 0.010417,-0.010417 0.020835,0 0.010417,-0.010417 0.010417,0.010417 0.010413,0 0.031252,-0.010417 0,0.020835 0,0.010417 -0.010417,0.010417 -0.010417,0.010413 0,0.093752 -0.010417,0.010417 -0.010413,0.010417 -0.010417,0.041665 -0.010417,0.010417 -0.010417,0.010413 -0.010417,0.031252 -0.010417,0.010417 -0.010413,0.010417 0,0.052083 -0.020835,0 0,0.072917 0,0.010417 0,0.010413 0.010417,0.041669 0.010417,0.020831 0.010413,0.010417 0.010417,0.010417 0.010417,0.010417 0.010417,0.010417 0.031248,0.010417 0.020835,0.010413 0.020835,0.010417 0.145831,0.010417 0.093752,0 0.041665,0 0.0625,0 0.010417,0 0.197917,0.010417 0.052083,0 0.010417,0 0.020835,0.010417 0.010413,0.020831 0.010417,0.010417 0.010417,0.010417 0.052083,0 0.010417,-0.010417 0.010417,-0.010417 0.010417,-0.020831 1.299e-4,-0.053457 0.051953,0.011787 0.020827,0.010417 0.010417,0.010417 0.020835,0.010417 0.010417,0.010417 0.010417,0.010413 0.010413,0.010417 0.010417,0.010417 0.010417,0.010417 0.020835,0.010417 0.020831,0.010417 0.020835,0 0.010417,-0.010417 0,-0.125 -0.010417,-0.052083 -0.010417,-0.010417 -0.010417,-0.010417 -0.010413,-0.020835 -0.010417,-0.010413 -0.010417,-0.010417 -0.020835,-0.010417 -0.010417,-0.010417 -0.010413,-0.010417 -0.020835,-0.010417 -0.010417,-0.010417 -0.020835,-0.010413 -0.020827,-0.010417 -0.020835,-0.010417 -0.010417,-0.010417 -0.041665,-0.010417 -0.041665,-0.010413 -0.041669,-0.010417 -0.031248,-0.010417 -0.031252,-0.010417 -0.020831,-0.010417 -0.020835,0 0,-0.020835 -0.010417,-0.031248 0,-0.041665 0.010417,-0.010417 0.010417,-0.010417 0.020835,-0.010417 0,-0.031248 0,-0.041669 0.010413,-0.010413 0.010417,-0.010417 0.010417,-0.020835 0,-0.010417 0,-0.010417 0.010417,-0.031248 0.010417,-0.020835 0.010417,-0.072917 0,-0.010417 0,-0.010413 0.010413,-0.010417 0.010417,-0.0625 0.010417,-0.010417 0,-0.010417 0,-0.020835 0,-0.114583 0,-0.052083 0.010417,-0.041665 0,-0.010417 0,-0.010417 0,-0.041665 0.031248,0 0.010417,-0.010417 0.010417,0.010417 0.020835,0 0.00469,-0.032815 0.00573,0.022398 0.052083,0 0.010413,-0.020835 0.010417,-0.020831 0.010417,0 0.020835,-0.010417 0.010417,-0.010417 0.010413,-0.020835 0.020835,0 0.031252,-0.010417 0.010413,-0.010413 0,-0.020835 0.020835,0 0,-0.031248 0.031252,0 5.197e-4,-0.05365 0.020311,0.01198 0.020835,0.010417 0.010417,0 0.010417,-0.020835 0.010413,-0.010417 0.020835,0 0.010417,-0.052083 0.00469,-0.032811 0.00573,0.022398 0.010417,0.010413 0.010413,0 0.010417,-0.010413 0.00469,-0.032815 0.00573,0.022398 0.010417,0 0.010417,-0.010417 0,-0.020835 0.020831,0 0.010417,-0.010417 5.236e-4,-0.032811 0.020311,0.01198 0.010417,0.010413 0.010417,0 0.010413,-0.010413 0.010417,-0.031252 0.010417,-0.020831 0,-0.010417 0,-0.020835 0.020835,0 0.010417,-0.041665 0.010413,0 0.020835,0 0.010417,-0.020835 0.010417,0 0.020831,0 0.010417,-0.010417 0,-0.020831 0.020835,0 0.010417,-0.031252 0.010417,-0.031252 0.020831,0 0,-0.020831 0.020835,0 0.010417,-0.020835 0.010417,0.020835 0.010413,0.010417 0.020835,0.010413 0.010417,0.010417 0.010417,0.010417 0.010417,0.010417 0.031248,0 0,0.020835 0.020835,0 0.010417,-0.010417 0.010413,0.0625 0.010417,0.020831 0.010417,0 0.010417,-0.010413 0.010417,0 0.010417,0.041665 0.031248,0 0.010417,0 0.010417,0.020835 0.031248,0 0,0.041665 0.010417,0.010417 0.010417,0 0.010417,-0.010417 0.010417,-0.020835 0.010413,-0.020831 0,0.041665 0,0.041665 0.010417,0.010417 0.020835,0 0,-0.020835 0.041665,0 0.010417,0.010417 0.020835,0 0,0.020835 0.010417,0.010417 0.010413,0 0.031252,-0.010417 0.020835,-0.010417 0,0.020835 0.010413,0.020835 0.010417,0 0.031252,0 0.020831,0 0.010417,0.010413 0.010417,0.020835 0.031252,0 0.010413,-0.020835 0,0.031252 0.020835,0 0,0.020831 0.010417,0.010417 0.031248,0 0.010417,0.010417 0.020835,0 0.031248,0 0.020835,0.010417 0.020835,0.010417 0.031248,0.010417 0.020835,0.010417 0.031248,0.010413 0.052087,0.010417 0.125,0 0.010413,-0.010417 0.010417,-0.010413 0,-0.031252 -0.010417,-0.020835 0.0625,0 0.020835,0.010417 0.031252,0.010417 0.031248,0.010417 0.031252,0 0,0.020835 0.020831,0 0,-0.062504 -0.010417,-0.052083 -0.010413,-0.020831 0.020831,0 0.031252,-0.010417 0.031248,-0.010417 0.052083,-0.010417 0.010417,0 0.052083,0.010417 0.031252,0.010417 0.010417,0.010417 0.020831,0.010417 0.020835,0 0.010417,-0.010417 0,-0.052087 -0.010417,-0.031248 -0.010417,-0.031248 -0.010417,-0.010417 -0.010413,-0.010417 -0.010417,-0.010417 -0.02065,-0.011843 0.04148,0.011843 0.031252,0 0,-0.0625 -0.010417,-0.010417 -0.010417,-0.010417 -0.020831,-0.010413 -0.010417,-0.010417 -0.031252,-0.010417 -0.020831,-0.010417 -0.020835,-0.010417 -0.031252,0 0,-0.031248 -0.010413,-0.020835 -0.052087,-0.010417 -0.156248,0 -0.020835,0.010417 -0.0625,0 L 5.8645874,3.3645657 5.8333354,3.3541484 5.8229181,3.343735 5.8020874,3.3333177 5.7916701,3.3229004 5.7812528,3.3020697 5.7708355,3.2916524 5.7604182,3.2812351 5.7500009,3.2708217 5.7395875,3.2604044 5.7291702,3.2499871 5.7187529,3.2395698 5.7083356,3.2291525 5.687501,3.2187391 5.6770876,3.2083218 5.6666703,3.1979045 5.6458357,3.1874872 5.6354184,3.1770699 5.6145877,3.1666526 5.6041704,3.1562353 5.5833358,3.1458219 5.5625012,3.1354046 5.5520878,3.1249873 5.5312532,3.11457 5.5208359,3.1041527 5.5000013,3.0937393 5.4687533,3.083322 5.4479187,3.0729047 5.427088,3.0624874 5.4166707,3.0520701 5.4062534,3.0416528 5.3958361,3.0312355 5.3854188,3.0104048 5.3750015,2.9999875 5.3645881,2.9895702 5.3541708,2.9791529 5.3437535,2.9583222 5.3333362,2.9479049 5.3229189,2.9270703 5.3125016,2.916653 5.3020882,2.9062357 5.2916709,2.8958223 5.2812536,2.854153 l -0.010417,-0.010413 0,-0.072917 0.010417,0.010413 0.031248,0.010417 0.020835,0 0.010417,0 0.041665,0.010417 0.010417,0 0.010417,0 0.010417,0.010417 0.020831,0 0.010417,-0.010417 0.010417,0 0.010417,-0.010417 0.010417,0 0.010417,0.020835 0.010413,0.020835 0.020835,0 0.010417,-0.010417 0.020835,0 0.010413,-0.010417 0.010417,-0.031252 0.010417,0 0.010417,0.020835 0.010417,0.010417 0.010417,0.010417 0.020831,0 0.010417,-0.010417 0.031252,0 0.010413,-0.020835 0.010417,0.010417 0.020835,0 0.010417,0 0.010417,0.010417 0.020831,0 0.010417,-0.010417 0.010417,0.010417 0.031248,0 0.010417,-0.020835 0,0.031252 0.031252,0 0.010417,-0.010417 0.010413,0 0.010417,-0.010417 0.010417,-0.031248 0.020835,0.010413 0.010417,0 0.010413,-0.010413 0.010417,0 0.031252,0 0,0.020831 0.010417,0.010417 0.010413,0 0.010417,-0.010417 0.010417,-0.020831 0.010417,0.010413 0.020835,0 0.010413,-0.010413 0.031252,-0.010417 0.020835,-0.010417 0,0.041665 0.010413,0.010417 0.020835,0 0,-0.041665 0.020835,0 0.010417,-0.010417 0.010413,-0.010417 0.010417,0 0,-0.031248 0.020835,0 5.197e-4,-0.032815 0.020315,0.01198 0.010413,0 0.010417,-0.031252 0.010417,-0.020831 0,0.031248 0.010417,0.020835 0.020835,0 0.010413,-0.020835 5.236e-4,-0.116146 0.020311,0.01198 0.010417,0 0.010417,-0.010417 0.010417,-0.020835 0.020831,-0.010413 0.010417,-0.0625 0.010417,-0.031252 0,-0.0625 0.031248,0 0.010417,-0.083335 0.020835,0 0,-0.052083 0,-0.020831 0.031248,0 0.010417,-0.072917 0.010417,0.010417 0.020835,0 0,-0.0625 -0.010417,-0.010417 0,-0.010417 0.010417,0.010417 0.010417,0.010417 0.020831,0 0,-0.041669 -0.010417,-0.041665 0.041669,0 0,-0.031248 0,-0.041669 0.010417,-0.020835 0.010413,-0.020831 0.010417,-0.031252 0.010417,-0.020831 0,-0.145835 -0.032724,-2.835e-4 0.01189,-0.030969 0,-0.052083 -0.010413,-0.010413 -0.010417,-0.010417 -0.052083,0 -0.02226,0.010228 0.011843,-0.04148 0.010417,-0.010417 0.010413,-0.010417 0.010417,-0.010413 0.010417,-0.010417 0.010417,-0.010417 0.010417,-0.010417 0.010417,-0.010417 0.031248,-0.010413 0,-0.052087 -0.010417,-0.020831 -0.010417,-0.010417 -0.020831,-0.010417 -0.104169,0 -0.031248,0.010417 -0.010417,0.010417 -0.020835,0.010413 -0.041665,0.010417 -0.010417,0.010417 -0.020831,0.010417 -0.031252,0.010417 -0.010417,0.010417 -0.020831,0.010417 -0.010417,0.010413 -0.010417,0.010417 -0.010417,0.010417 -0.010417,0.010417 -0.010417,0.010417 -0.010413,0.010413 -0.010417,0.010417 -0.010417,0.020835 -0.010417,0.010417 -0.010417,0.020835 -0.010417,0.135413 -0.010413,0.010417 -0.010417,0.010417 -0.020835,0.010417 -0.010417,0.010417 -0.010417,0.020831 -0.010413,0.010417 -0.010417,0.010417 -0.010417,0.010417 -0.010417,0.020835 -0.010417,0.010413 -0.010417,0.020835 -0.010413,0.010417 -0.010417,0.010417 -0.010417,0.010413 -0.010417,0.020835 -0.010417,0.010417 -0.010417,0.020835 -0.010413,0.010417 -0.010417,0.020831 -0.010417,0.031252 -0.010417,0.020831 -0.010417,0.020835 -0.010417,0.020835 -0.010413,0.010417 -0.010417,0.010413 -0.010417,0.020835 -0.010417,0.010417 -0.010417,0.010417 0,0.020831 -0.0625,0 -0.072917,0 -0.031248,-0.010417 -0.052083,-0.010413 -0.031252,-0.010417 -0.010417,-0.010417 -0.022256,-1.85e-4 0.011843,-0.04148 0.010413,-0.010417 0.010417,-0.031252 0.010417,-0.041665 0,-0.041665 0.020835,0 0,-0.010417 0,-0.010417 0.010417,-0.031252 0,-0.072913 0.020831,0 0.010417,-0.031252 0,-0.010417 0.010417,-0.010417 0,-0.031248 0.031248,0 0.010417,-0.010417 0.010417,-0.020831 0.010417,-0.020835 0.010417,-0.020835 0.010417,-0.052083 0.020831,-0.010417 0,-0.041665 0.020835,0 0,-0.020835 0.031248,0 0,-0.010417 -0.010413,-0.010417 0.020831,0 0,-0.020831 0,-0.010417 0,-0.020835 0.031252,0 0,-0.020831 0.031248,0 0,-0.010417 -0.010417,-0.010417 -0.010413,-0.020835 0.020831,0 0.010417,-0.020831 0,-0.031252 0.020835,0 0.010417,0 0.010413,0 0.010417,-0.010417 0,-0.020831 0.020835,0 0,-0.020835 0.010417,0 0.010417,0 0,-0.020835 0.010413,-0.010417 0.020835,-0.010413 0,-0.010417 -0.010417,-0.010417 0,-0.010417 0.020835,0 0,-0.020831 0.010417,0 0.010417,0 0,-0.031252 0.020831,0 0,-0.041665 0.020835,0 0,-0.010417 -0.010417,-0.031252 0.020835,0 0,-0.052083 0.031248,0 0,-0.020835 0,-0.010413 0.010417,-0.010417 0.010417,-0.0208346 0.010417,-0.0104173 0.010417,-0.0416654 0.010413,-0.0104173 0.010417,-0.0104173 0.010417,-0.0104173 0.010417,-0.0104134 0.010417,-0.031252 0.010417,-0.0625 0.010413,-0.0208346 0,-0.114583 -0.010413,-0.0208307 -0.010417,-0.0208346 -0.010417,-0.0104173 -0.010417,-0.0104173 -0.020835,-0.0104134 -0.031248,-0.0104173 -0.020835,-0.0104173 -0.114583,-0.0104173 -0.218748,0 -0.031252,0.0104173 z"
   id="_104065112"
   style="fill:#000000" />
   <polygon
   points="4.75,1.34375 4.73958,1.34375 4.73958,1.35417 4.75,1.35417 "
   id="_104383792"
   style="fill:#000000" />
  </g>
 </g>
</svg>