<?xml version="1.0" standalone="no"?>
<!DOCTYPE svg PUBLIC "-//W3C//DTD SVG 20010904//EN"
 "http://www.w3.org/TR/2001/REC-SVG-20010904/DTD/svg10.dtd">
<svg version="1.0" xmlns="http://www.w3.org/2000/svg"
 width="947.000000pt" height="478.000000pt" viewBox="0 0 947.000000 478.000000"
 preserveAspectRatio="xMidYMid meet">
<metadata>
Created by potrace 1.16, written by Peter Selinger 2001-2019
</metadata>
<g transform="translate(0.000000,478.000000) scale(0.100000,-0.100000)"
fill="#000000" stroke="none">
<path d="M9404 4770 c-11 -5 -49 -40 -84 -79 -78 -88 -138 -135 -265 -206 -55
-30 -117 -74 -137 -96 -35 -39 -53 -68 -144 -234 -93 -171 -93 -172 -286 -397
-65 -75 -165 -180 -223 -235 -97 -90 -120 -106 -298 -201 -171 -91 -216 -110
-407 -172 -118 -38 -282 -83 -365 -101 -82 -17 -215 -48 -295 -69 -147 -39
-358 -70 -481 -70 -41 0 -118 13 -210 35 -79 20 -187 45 -239 56 -127 28 -391
114 -465 152 -144 76 -252 150 -434 300 -62 51 -368 201 -461 226 -347 93
-1044 137 -1544 97 -234 -19 -296 -33 -626 -145 -337 -113 -558 -222 -741
-364 -158 -123 -215 -163 -369 -264 -63 -41 -142 -93 -175 -116 -90 -61 -355
-261 -393 -296 -18 -17 -37 -31 -43 -31 -5 0 -14 -9 -21 -19 -12 -19 -12 -19
-60 0 -71 28 -258 79 -290 79 -38 0 -61 -36 -49 -77 14 -49 30 -73 108 -165
l74 -86 -25 -74 c-13 -40 -66 -161 -117 -268 -101 -214 -156 -370 -229 -650
-27 -102 -62 -232 -79 -289 -38 -126 -38 -143 -5 -226 46 -114 101 -141 217
-104 40 12 77 26 84 31 6 5 53 68 104 140 137 193 275 343 464 510 118 103
401 300 511 356 22 11 75 31 119 45 70 21 105 25 286 30 240 7 224 12 344
-100 77 -70 78 -72 83 -127 5 -58 -5 -154 -39 -386 -11 -74 -26 -193 -34 -265
-8 -71 -22 -175 -32 -229 l-17 -99 -72 -61 c-65 -55 -86 -67 -200 -106 -71
-25 -142 -54 -158 -65 -61 -41 -106 -141 -106 -237 0 -41 26 -85 60 -103 33
-17 135 -19 215 -5 28 5 167 16 310 25 271 16 294 20 385 65 115 59 216 199
507 704 75 131 139 233 141 227 11 -32 -21 -232 -53 -336 -46 -145 -75 -189
-173 -263 -112 -86 -141 -138 -122 -225 14 -70 22 -79 61 -79 19 1 123 3 232
5 l198 4 73 37 c93 45 127 84 187 212 55 118 76 185 119 388 55 259 122 432
235 606 104 162 304 311 520 388 81 29 102 32 201 32 165 0 216 -20 298 -116
35 -41 94 -123 131 -183 79 -128 125 -172 281 -264 180 -107 283 -234 345
-427 25 -77 29 -105 24 -146 -3 -29 -12 -59 -18 -67 -7 -9 -62 -41 -123 -71
-154 -77 -195 -123 -180 -199 9 -44 51 -84 109 -103 72 -24 241 -14 360 21
126 36 286 114 320 155 90 106 169 376 169 570 -1 165 -59 415 -137 585 -7 17
-30 71 -50 120 -20 50 -92 196 -158 327 -67 130 -119 239 -115 243 3 4 55 1
115 -5 62 -7 182 -10 278 -8 152 4 188 8 335 42 217 49 433 123 600 205 106
52 171 93 305 194 132 100 198 142 295 189 510 245 550 268 687 393 199 182
258 252 328 388 32 62 83 154 113 206 30 51 81 150 114 220 43 91 85 158 149
243 109 142 223 362 217 415 -4 33 -36 54 -64 43z"/>
</g>
</svg>
