<?xml version="1.0" encoding="UTF-8" standalone="no"?>
<!-- Created with Inkscape (http://www.inkscape.org/) -->

<svg
   xmlns:svg="http://www.w3.org/2000/svg"
   xmlns="http://www.w3.org/2000/svg"
   version="1.1"
   width="476.14401"
   height="56.299"
   viewBox="171.982 279.121 476.144 56.299"
   id="Ebene_1"
   xml:space="preserve"><defs
   id="defs29" />
<g
   id="g3">
	<path
   d="m 493.96,335.271 c -5,0 -10.02,-0.277 -14.994,0.068 -6.436,0.447 -12.701,-1.127 -19.084,-1.08 -6.498,0.049 -13.076,0.641 -19.469,-0.18 -5.566,-0.711 -11.072,-0.563 -16.604,-0.848 -1.707,-0.088 -3.669,-0.195 -5.019,-1.064 -1.894,-1.221 -3.759,-0.771 -5.651,-0.883 -2.298,-0.137 -4.994,0.551 -6.796,-0.438 -1.976,-1.082 -4.435,0.637 -5.902,-1.553 -0.104,-0.154 -0.644,-0.072 -0.967,-0.018 -4.446,0.756 -8.658,-1.273 -13.085,-1.076 -1.843,0.084 -3.711,-0.656 -5.583,-0.914 -1.878,-0.258 -3.716,-0.297 -5.638,-0.797 -2.694,-0.699 -5.681,-0.504 -8.54,-1.158 -3.944,-0.902 -8.167,-0.506 -12.016,-1.309 -3.736,-0.779 -7.529,-0.584 -11.273,-1.541 -3.753,-0.961 -7.945,-0.139 -11.941,-0.252 -1.353,-0.039 -3.124,-1.217 -3.938,-0.689 -1.307,0.844 -2.619,1.002 -3.709,0.66 -5.814,-1.828 -11.748,-0.506 -17.602,-0.938 -1.251,-0.092 -2.703,0.516 -3.609,-0.934 -1.081,1.678 -2.055,-0.299 -3.155,-0.111 -1.295,0.223 -2.666,-0.049 -3.988,0.072 -2.867,0.266 -5.716,0.773 -8.587,0.943 -2.823,0.166 -5.882,-0.641 -8.444,0.193 -3.922,1.275 -7.768,0.607 -11.634,0.818 -7.521,0.412 -15.145,0.063 -22.553,1.18 -9.561,1.439 -19.08,0.348 -28.599,0.857 -1.405,0.076 -2.987,-0.57 -4.13,0.951 -0.181,0.238 -0.974,0.121 -1.45,0.018 -1.199,-0.262 -2.377,-0.611 -3.564,-0.926 -0.175,1.74 1.669,2.021 2.288,3.186 0.142,0.27 0.336,0.789 0.247,0.859 -2.326,1.809 1.06,3.816 -0.227,5.584 -0.191,0.262 -1.06,0.402 -1.286,0.211 -2.195,-1.855 -4.526,-3.613 -6.414,-5.754 -2.649,-3.006 -6.508,-3.92 -9.581,-6.143 -2.024,0.355 -4.131,-0.682 -6.141,0.928 -1.65,1.32 -3.767,2.102 -5.756,2.93 -0.648,0.271 -2.184,0.068 -2.228,-0.143 -0.263,-1.275 -1.101,-1.729 -2.164,-2.039 0.236,-0.354 0.392,-0.848 0.722,-1.033 1.07,-0.609 2.231,-1.057 3.309,-1.652 2.113,-1.17 3.147,-3.75 5.684,-4.381 -2.07,-1.344 -4.358,-0.34 -6.534,-0.572 -1.413,-0.15 -2.938,-0.346 -4.122,0.926 -0.112,0.119 -1.034,-0.203 -1.173,-0.506 -0.149,-0.324 0.049,-1.012 0.336,-1.287 0.39,-0.371 1.01,-0.506 1.531,-0.74 -0.607,-0.143 -1.219,-0.27 -1.821,-0.432 -1.282,-0.346 -1.426,-1.012 -0.645,-2 0.713,-0.902 1.575,-1.195 2.599,-0.982 3.312,0.689 6.395,-0.738 9.567,-1.15 2.342,-0.303 4.868,-1.439 6.703,-2.947 4.221,-3.471 9.69,-4.131 14.165,-6.914 3.542,-0.057 6.216,-2.659 9.734,-3.143 3.293,-0.452 6.409,-2.138 9.629,-3.202 1.912,-0.631 3.854,-1.199 5.818,-1.635 3.673,-0.817 7.557,-1.057 10.993,-2.436 2.126,-0.853 4.312,-0.069 6.447,-1.412 1.842,-1.159 4.614,-0.838 6.975,-1.171 2.362,-0.333 4.835,-0.331 7.059,-1.076 3.681,-1.234 7.397,-0.743 11.105,-0.965 1.376,-0.083 2.716,-0.672 4.089,-0.946 1.379,-0.275 3.027,0.628 4.113,-0.962 0.058,-0.084 0.308,-0.049 0.469,-0.049 1.666,-0.003 3.346,0.128 4.995,-0.04 1.546,-0.157 3.08,-0.984 4.584,-0.899 5.584,0.314 10.995,-1.754 16.583,-1.063 5.097,-1.832 10.382,-0.806 15.582,-0.965 5.16,-0.158 10.331,0.06 15.492,-0.082 2.049,-0.057 4.293,0.89 6.152,-0.791 1.052,2.016 3.08,-0.95 4.181,0.819 1.59,-1.887 3.722,-0.741 5.596,-0.94 1.813,-0.192 3.661,-0.042 5.493,-0.042 2,0 3.999,0 5.998,0 1.833,0 3.767,-0.384 5.48,0.067 6.824,1.799 13.798,0.116 20.58,1.053 6.213,0.858 12.51,0.095 18.56,1.098 5.432,0.9 10.82,0.018 16.103,0.862 9.52,1.521 19.139,-0.004 28.563,1.14 6.25,0.759 12.492,-0.063 18.584,0.924 5.229,0.847 10.5,0.138 15.572,1.033 4.41,0.778 8.74,0.604 13.109,0.855 0.73,0.042 1.432,0.54 2.158,0.794 0.615,0.215 0.773,-0.746 1.818,-0.38 1.703,0.596 3.842,0.569 5.615,0.108 1.014,-0.263 1.5,-0.212 2.482,0.034 2.008,0.503 4.201,0.269 6.318,0.337 0.877,-2.219 2.398,-0.357 3.475,-0.363 6.795,-0.037 13.596,0.456 20.389,0.375 6.07,-0.072 11.994,1.809 18.082,1.061 2.523,1.548 5.627,0.167 7.982,1.227 2.813,1.265 5.615,-0.032 8.158,0.848 4.656,1.611 9.678,1.11 14.305,2.849 1.314,0.494 2.984,-0.052 4.467,0.116 1.217,0.138 2.414,0.964 3.584,0.894 2.99,-0.181 5.514,1.138 8.174,2.063 2.914,1.013 5.783,2.21 8.766,2.962 6.988,1.76 12.947,5.313 18.416,9.879 1.436,1.201 3.025,2.285 4.697,3.123 2.795,1.398 3.967,4.217 5.617,6.488 0.879,1.209 0.309,3.518 0.277,5.328 -0.018,0.977 -1.459,2.488 -2.932,3.699 -2.502,2.059 -5.303,2.947 -8.496,3.717 -4.766,1.148 -9.434,0.607 -14.131,0.732 -2.352,0.063 -4.723,-0.58 -7.082,-0.938 -2.357,-0.354 -4.855,0.781 -7.139,-0.922 -0.641,-0.479 -1.943,-0.072 -2.943,-0.072 -5.83,0 -11.664,0.086 -17.492,-0.039 -2.539,-0.055 -5.244,0.805 -7.592,-0.949 -0.107,-0.08 -0.357,-0.07 -0.486,-0.002 -3.064,1.654 -6.309,-1.213 -9.127,0.092 -3.818,1.766 -7.932,0.047 -11.781,1.748 -1.951,0.863 -4.6,0.199 -6.93,0.141 -3.869,-0.098 -7.605,0.49 -11.225,1.877 -0.434,0.166 -0.971,0.182 -1.441,0.121 -5.098,-0.645 -10.135,0.465 -15.053,1.217 -5.076,0.775 -10.076,0.65 -15.111,0.77 -4.994,0.125 -9.994,0.033 -14.992,0.033 z m 43.76,-4.525 c 1.197,-0.406 1.98,0.51 2.982,-0.391 0.826,-0.742 2.326,-0.717 3.498,-1.115 0.193,-0.066 0.426,-0.73 0.33,-0.83 -0.6,-0.646 -0.428,-1.482 0.297,-1.047 1.598,0.961 3.461,0.504 4.959,1.322 0.775,0.426 1.254,0.869 2.104,0.186 0.848,-0.684 1.998,-1.043 2.713,-1.822 1.307,-1.426 2.146,0.992 3.291,0.232 0.248,-0.164 0.641,-0.141 0.854,-0.33 1.135,-1.014 2.088,-2.73 3.838,-0.814 1.662,-2.127 3.807,-0.932 5.811,-0.898 0.807,0.012 1.619,-0.553 2.428,-0.543 0.916,0.012 2.025,0.813 2.707,0.506 3.633,-1.639 7.418,-0.613 11.111,-0.939 1.244,-0.109 2.693,0.576 3.648,-0.832 1.156,1.148 2.648,0.969 4.014,0.809 2.369,-0.279 4.951,0.986 7.104,-0.926 0.938,2.053 2.574,-0.172 3.422,0.467 1.83,1.373 3.797,-0.877 5.484,0.496 0.936,-1.268 2.311,-1.037 3.582,-0.98 1.094,0.053 2.172,-0.262 3.279,0.574 0.723,0.545 1.969,-1.52 3.154,0.131 0.262,0.363 1.766,0.031 2.598,-0.264 1.158,-0.412 2.607,1.76 3.488,-0.438 0.117,0.102 0.289,0.178 0.344,0.307 0.906,2.086 2.51,-1.055 3.482,0.469 0.73,-1.012 3.08,-0.131 2.766,-2.367 0.313,0.082 0.754,0.066 0.904,0.27 0.264,0.355 0.35,0.846 0.508,1.277 0.174,-0.414 0.334,-0.836 0.523,-1.242 0.236,-0.5 0.809,-1.338 0.703,-1.43 -1.236,-1.096 -0.289,-2.607 -0.795,-3.699 -0.318,-0.693 -1.578,-0.898 -2.244,-1.51 -0.412,-0.375 -0.357,-1.33 -0.781,-1.602 -0.385,-0.244 -1.42,0.379 -1.684,0.121 -5.176,-5.049 -7.564,-6.326 -13.762,-7.67 -1.465,-0.314 -2.969,-1.061 -4.131,-2.008 -1.225,-0.996 -2.861,0.457 -3.797,-0.941 -1.166,-1.744 -2.842,-1.518 -4.604,-1.467 -0.912,0.027 -2.221,-0.297 -2.689,-0.941 -1.195,-1.641 -2.859,0.719 -3.064,-0.1 -0.59,-2.346 -1.395,-1.699 -2.543,-0.598 l -2.826,-1.609 c -0.568,0.047 -1.229,-0.057 -1.67,0.205 -0.232,0.139 -0.014,0.936 -0.135,1.4 -0.094,0.354 -0.396,0.656 -0.607,0.98 -0.123,-0.281 -0.328,-0.559 -0.352,-0.848 -0.053,-0.662 0.008,-1.334 -0.023,-1.998 -0.057,-1.267 -0.885,-1.218 -1.666,-0.802 -0.508,0.269 -0.654,0.841 -1.475,0.232 -0.955,-0.712 -2.203,-1.215 -3.387,-1.389 -1.137,-0.166 -2.086,-0.321 -3.129,-0.976 -0.979,-0.614 -2.508,0.372 -3.721,-0.761 -0.252,-0.234 -1.742,0.55 -2.369,-0.584 -0.98,-1.776 -2.604,0.469 -3.023,-0.182 -1.186,-1.833 -2.617,1.246 -3.57,-0.41 -1.074,0.604 -1.42,-1.48 -2.842,-0.666 -0.588,0.337 -1.973,-0.883 -3.055,-1.186 -0.916,-0.256 -2.424,-0.646 -2.789,-0.221 -1.348,1.569 -3.328,-1.243 -4.379,0.837 -1.506,-2.038 -4.184,0.163 -5.768,-1.596 -1.574,1.219 -3.545,-0.615 -5.158,0.633 -0.084,0.065 -0.686,-0.774 -1.086,-0.817 -0.443,-0.048 -0.936,0.335 -1.406,0.531 -0.117,-0.451 -0.104,-1.146 -0.383,-1.301 -0.521,-0.288 -1.268,-0.459 -1.828,-0.32 -0.932,0.229 -1.594,0.819 -2.75,0.059 -0.814,-0.535 -2.615,-0.56 -3.348,0.004 -1.066,0.823 -2.033,0.15 -3.018,0.424 -1.051,0.293 -2.408,-1.329 -3.445,0.361 -1.111,-1.525 -2.73,-0.723 -4.129,-0.875 -1.301,-0.141 -3.402,0.352 -3.785,-0.271 -1.252,-2.042 -2.496,0.747 -3.686,-0.306 -0.355,-0.313 -1.613,0.625 -2.332,0.457 -4.457,-1.046 -6.279,-1.14 -10.428,-0.474 -0.742,0.12 -1.576,-0.425 -2.354,-0.38 -0.832,0.048 -1.705,0.729 -2.449,0.58 -0.672,-0.134 -1.129,-1.331 -1.805,-1.473 -0.607,-0.129 -1.365,0.726 -2.092,0.798 -0.766,0.076 -1.848,-0.659 -2.309,-0.341 -1.199,0.826 -1.771,0.177 -2.465,-0.549 -1.244,1.755 -2.363,-0.594 -3.662,-0.1 -1.311,0.499 -2.996,-0.673 -4.162,0.81 -0.244,-0.244 -0.477,-0.501 -0.734,-0.728 -0.408,-0.357 -0.986,-1.077 -1.23,-0.98 -2.594,1.029 -5.117,-0.447 -7.701,-0.154 -0.77,0.087 -0.943,1.094 -2.346,0.565 -3.555,-1.341 -7.66,0.235 -11.34,-1.347 -0.525,1.705 -2.369,-1.099 -2.828,0.827 -0.865,-0.755 -1.568,-1.554 -2.846,-0.315 -0.443,0.429 -1.852,-0.313 -2.736,-0.131 -1.596,0.327 -2.941,-0.656 -4.494,-0.54 -1.986,0.148 -4.08,0.381 -5.961,-0.09 -1.174,-0.293 -1.529,2.024 -2.889,0.426 -0.527,-0.62 -2.342,0.022 -3.215,-0.501 -2.189,-1.312 -4.271,-1.039 -6.453,-0.253 -0.229,0.082 -0.664,0.221 -0.678,0.189 -0.951,-2.132 -2.548,0.796 -4.03,-0.581 -0.894,-0.831 -3.193,-0.221 -4.854,-0.135 -1.894,0.098 -3.78,-1.738 -5.669,-0.018 -1.052,-0.86 -1.845,-1.46 -3.309,-0.177 -0.607,0.532 -2.576,-0.673 -3.948,-0.769 -1.116,-0.078 -2.265,0.322 -3.399,0.51 -0.049,-3.251 -1.594,0.232 -2.392,-0.521 -0.979,-0.924 -2.438,-2.374 -2.816,0.569 -0.006,0.05 -0.442,0.044 -0.678,0.065 -0.107,-2.412 -2.308,-2.079 -3.142,-1.557 -1.738,1.087 -3.149,-0.841 -4.689,0.016 -1.764,0.982 -3.584,-0.059 -5.045,-0.587 -1.163,-0.42 -1.36,0.04 -1.818,0.5 -0.882,0.885 -1.492,1.44 -1.557,-0.473 -0.007,-0.21 -1.106,-0.613 -1.633,-0.526 -0.892,0.148 -1.728,0.863 -2.594,0.876 -0.792,0.012 -1.515,-1.743 -2.417,-0.612 -1.184,1.485 -1.453,-0.677 -2.35,-0.355 -0.879,0.315 -1.939,0.14 -2.805,0.476 -0.97,0.376 -1.945,-0.09 -3.012,0.393 -0.634,0.288 -1.899,-0.534 -3.152,0.039 -0.586,0.268 -2.194,-0.057 -2.857,-0.435 -2.522,-1.439 -5.084,0.918 -7.534,-0.376 -0.364,-0.192 -1.22,0.249 -1.685,0.608 -0.903,0.701 -1.484,0.321 -2.08,-0.363 -1.109,-1.271 -2.379,1.649 -3.472,-0.129 -0.212,1.322 -2.432,0.139 -2.366,1.95 0.032,0.862 -0.795,1.215 -0.881,0.166 -0.138,-1.685 -1.189,-1.348 -2.072,-1.242 -0.55,0.066 -1.046,0.582 -1.566,0.896 -0.877,-2.21 -2.454,0.324 -3.458,-0.492 -1.394,-1.132 -2.819,0.557 -3.718,0.123 -1.561,-0.753 -2.64,-0.791 -3.829,0.363 -1.27,-2.168 -2.768,0.554 -3.639,-0.022 -2.646,-1.749 -5.445,-0.587 -8.142,-0.875 -1.765,-0.188 -3.597,-0.32 -4.875,1.57 -0.369,0.546 -1.672,-0.846 -2.406,0.263 -1.287,-2.087 -3.098,0.344 -4.459,-0.495 -2.027,-1.25 -3.624,0.571 -5.431,0.569 -1.056,0 -2.003,1.529 -3.26,0.136 -0.257,-0.285 -1.695,0.431 -2.552,0.775 -0.51,0.205 -0.949,0.586 -1.42,0.889 -0.941,-2.141 -2.821,1.105 -3.827,-0.666 -1.094,0.999 -2.548,0.345 -3.831,0.797 -1.008,0.355 -2.276,1.6 -3.7,0.198 -0.449,-0.441 -1.617,-0.313 -2.015,1.221 -0.403,1.551 -1.468,-1.267 -2.557,-0.189 -0.455,0.45 -1.882,0.752 -1.938,0.644 -0.747,-1.451 -1.446,0.378 -2.219,-0.049 -2.168,-1.199 -4.286,-1.379 -6.128,0.721 -0.162,0.185 -0.832,0.213 -1.01,0.045 -1.065,-1.006 -1.612,0.045 -2.47,0.364 -1.078,0.401 -2.301,1.605 -3.657,0.22 -0.234,-0.239 -1.695,0.182 -1.704,0.344 -0.109,2.072 -0.93,1.201 -1.94,0.657 -0.478,-0.257 -1.285,-0.039 -1.899,0.125 -1.039,0.279 -2.423,0.386 -2.988,1.1 -1.311,1.652 -1.696,-1.007 -2.875,-0.347 -1.18,0.661 -2.675,0.753 -4.014,1.156 -0.052,0.016 0.146,0.668 0.117,1.015 -0.026,0.306 -0.206,0.599 -0.318,0.897 -1.556,-1.126 -3.112,-0.805 -4.668,0 -1.223,-1.83 -2.404,0.238 -3.68,0.118 -1.465,-0.138 -3.056,0.51 -4.504,1.053 -0.499,0.187 -0.729,1.086 -1.083,1.66 -1.344,-2.118 -2.464,0.466 -3.752,0.247 -0.146,-0.025 -0.41,1.424 -0.733,1.477 -0.596,0.096 -1.266,-0.396 -1.928,-0.525 -0.242,-0.047 -0.789,0.242 -0.789,0.381 -0.01,2.229 -0.952,0.949 -1.896,0.66 -0.646,-0.195 -1.5,0.271 -2.258,0.459 -0.904,0.227 -1.917,0.289 -2.67,0.762 -0.599,0.375 -0.943,1.229 -1.29,1.924 -0.925,1.854 -1.233,-0.879 -2.124,-0.252 -0.733,0.516 -1.696,0.707 -2.559,1.037 -0.432,0.164 -1.141,0.211 -1.249,0.494 -0.278,0.723 -0.289,1.549 -0.406,2.332 -0.354,-0.57 -0.619,-1.238 -1.098,-1.67 -0.229,-0.205 -1.073,-0.137 -1.281,0.109 -1.718,2.037 -4.485,2.139 -6.534,3.648 -1.516,1.115 0.46,1.207 0.175,1.604 -1.23,1.717 0.034,3.127 0.645,4.461 0.645,1.412 1.818,2.582 2.76,3.857 2.426,-1.689 1.633,1.48 2.803,1.893 1.584,0.559 3.178,1.379 4.451,2.459 1.511,1.283 1.382,0.293 1.458,-0.744 0.316,0.07 0.911,0.166 0.908,0.209 -0.149,1.684 1.076,1.432 1.984,1.299 0.56,-0.08 1.467,-0.945 1.521,-0.881 1.399,1.689 2.779,0.947 4.179,0.07 1.481,1.689 3.452,0.453 5.14,0.867 1.719,0.424 3.059,-0.674 4.586,-1.012 1.39,2.381 2.767,-0.186 4.174,-0.063 0.651,0.059 1.778,-0.973 1.974,-0.779 1.273,1.25 3.108,1.322 4.038,0.58 1.632,-1.303 2.668,1.572 3.784,0.23 1.374,-1.652 2.436,0.58 3.721,0.07 0.862,-0.342 2.011,-0.057 2.788,-0.488 0.987,-0.549 1.42,-1.879 3.044,-0.68 0.613,0.453 2.513,-1.096 3.436,-0.734 1.211,0.475 2.248,1.389 3.477,0.498 1.324,-0.961 2.083,0.639 3.343,0.447 3.002,-0.455 6.027,0.08 9.119,-0.928 2.41,-0.781 5.287,-0.025 7.942,-0.191 2.704,-0.17 5.391,-0.621 8.082,-0.969 1.258,-0.162 2.51,-0.521 3.764,-0.52 1.302,0.002 2.598,0.445 3.904,0.5 2.162,0.09 4.33,0.023 6.496,0.023 2.332,0 4.664,0 6.996,0 1.889,-2.547 3.738,1.313 5.697,0.045 0.469,-0.305 1.604,0.24 1.918,-0.094 1.504,-1.588 3.237,0.41 4.136,-0.1 1.909,-1.084 3.089,0.512 4.615,0.516 0.575,0.002 1.184,0.656 1.713,0.576 0.892,-0.131 1.739,-0.895 2.591,-0.871 1.036,0.027 2.076,0.912 3.082,0.855 1.716,-0.096 3.667,0.906 5.144,-0.791 1.664,1.428 3.665,0.693 5.525,0.863 1.026,0.094 1.951,-0.002 2.651,-0.938 0.063,-0.084 1.005,0.385 1.445,0.721 0.421,0.322 0.721,1.158 1.072,1.158 1.945,-0.01 3.89,-0.199 5.834,-0.338 0.355,-0.025 0.707,-0.1 1.061,-0.15 -0.12,2.383 1.704,1.531 2.769,1.498 2.269,-0.068 4.231,0.018 6.409,0.678 0.445,0.135 1.242,0.438 1.295,0.344 1.376,-2.496 2.922,0.756 4.15,-0.113 1.59,-1.125 2.735,0.73 4.145,0.363 l 5.18,0.373 c 0.354,-0.043 0.707,-0.088 1.06,-0.133 -0.238,1.988 1.222,1.578 2.274,1.518 3.915,-0.227 7.625,1.766 11.583,1.035 0.278,-0.051 0.727,0.033 0.883,0.225 1.439,1.777 2.233,0.27 3.136,-0.59 1.345,-1.281 0.993,0.061 1.181,0.709 0.074,0.254 0.572,0.641 0.613,0.609 1.331,-0.99 2.759,0.08 4.088,-0.234 0.456,-0.105 1.103,-1.273 1.205,-0.021 0.176,2.16 1.658,1.066 2.577,1.229 0.289,0.053 0.939,-0.895 1.016,-0.836 2.869,2.146 5.912,2.619 9.212,1.131 1.049,1.398 1.879,0.701 2.818,-0.184 0.132,-0.123 0.99,0.422 1.431,0.76 0.422,0.326 0.776,1.148 1.095,1.117 0.865,-0.09 1.786,-0.887 2.516,-0.709 0.843,0.205 1.432,1.299 2.273,1.721 0.475,0.236 1.707,0.053 1.795,-0.211 0.625,-1.881 1.922,1.385 2.678,-0.393 0.127,-0.303 1.973,1.559 3.102,-0.102 0.068,-0.102 1.777,0.816 2.643,1.385 0.822,0.539 1.445,0.686 1.908,-0.354 0.184,-0.412 0.346,-0.834 0.518,-1.252 0.162,0.432 0.205,1.002 0.514,1.266 0.422,0.361 1.111,0.773 1.564,0.664 1.262,-0.307 2.348,-0.51 3.719,-0.055 1.078,0.357 2.49,-0.197 3.73,-0.457 1.152,-0.24 2.563,1.695 3.477,-0.414 0.973,2.283 2.809,-0.344 4.391,0.807 1.199,0.871 3.541,0.24 5.369,0.148 1.262,-0.063 2.551,-0.617 3.76,-0.451 1.209,0.166 2.301,1.281 3.502,1.398 1.75,0.172 3.555,-0.156 5.33,-0.322 0.252,-0.023 0.67,-0.506 0.682,-0.492 2.016,2.336 4.713,-0.602 6.816,0.893 1.049,-1.957 3.258,1.471 4.217,-0.91 1.055,2.072 2.877,-0.492 4.402,0.775 0.887,0.736 3.406,0.729 4.258,-0.014 1.129,-0.986 2.295,0.65 2.99,-0.596 1.166,0.803 2.326,1 3.473,-0.041 0.986,1.377 2.813,0.164 3.598,0.869 1.746,1.57 2.039,-0.35 2.945,-0.813 0.158,-0.082 0.48,0.076 0.693,0.189 1.686,0.893 3.32,0.721 5.084,0.084 0.789,-0.285 2.23,0.516 2.666,0.094 1.303,-1.271 1.883,-0.129 2.896,0.271 1.01,0.398 2.459,0.443 3.426,0.004 1.418,-0.645 3.018,-0.039 4.287,-0.924 1.58,-1.098 3.154,0.156 4.664,-0.066 1.184,-0.178 2.184,-1.309 3.572,-0.979 0.896,-2.066 2.381,1.297 3.58,-0.398 0.348,-0.485 1.977,-0.069 2.637,-0.069 z m 36.629,-39.76 c -0.977,0.376 -1.641,0.633 -2.303,0.889 0.568,0.235 1.117,0.577 1.709,0.688 2.145,0.398 3.965,3.004 6.5,0.974 0.115,-0.092 0.693,0.35 1.025,0.584 0.521,0.367 1.016,1.1 1.521,1.102 3.066,0.011 5.756,1.498 8.67,2.045 2.021,0.379 4.094,0.533 6.07,1.052 1.777,0.465 3.797,2.227 5.107,1.752 2.377,-0.859 3.607,0.75 5.322,1.227 1.781,0.498 3.533,1.115 5.25,1.799 0.699,0.277 1.484,-1.549 1.59,-0.225 0.125,1.578 1.201,1.236 1.9,1.662 1.469,0.893 2.936,1.6 4.736,1.914 1.396,0.244 2.576,1.746 3.852,2.688 2.738,-1.789 1.41,2.369 3.205,2.203 0.658,-0.063 1.357,0.697 2.088,0.906 0.611,0.176 1.646,-0.16 1.893,0.174 1.576,2.143 3.043,4.377 4.404,6.662 0.266,0.443 0.152,1.457 -0.191,1.854 -1.311,1.504 -2.605,3.744 -4.238,4.076 -2.609,0.529 -5.453,2.377 -7.93,1.094 -1.678,-0.869 -3.123,-0.729 -4.672,-0.795 -2.994,-0.125 -5.998,-0.051 -8.996,-0.029 -1.766,0.012 -3.68,-0.469 -4.924,1.441 -0.104,0.16 -0.795,0.17 -1.008,-0.004 -1.531,-1.242 -2.66,0.063 -3.902,0.566 -0.342,0.139 -0.625,0.422 -0.936,0.639 0.285,0.117 0.568,0.33 0.855,0.334 1.832,0.031 3.811,0.451 5.457,-0.102 1.818,-0.609 3.107,2.535 4.805,0.348 2.723,0.992 5.436,1.545 8.135,-0.092 0.072,-0.043 0.574,0.332 0.566,0.496 -0.1,2.152 2.166,1.559 2.352,1.293 1.104,-1.576 1.891,0.195 2.775,0.064 0.965,-0.143 2.037,-0.693 2.859,-0.434 1.631,0.52 3.084,1.031 4.438,-0.457 1.771,2.012 2.719,0.232 3.83,-0.824 0.094,-0.09 0.285,-0.221 0.344,-0.188 2.26,1.352 3.844,-0.826 5.787,-1.137 1.533,-0.242 2.816,-2.533 2.783,-4.334 -0.006,-0.232 0.379,-0.453 0.428,-0.709 0.238,-1.229 -0.742,-4.918 -1.646,-5.441 -3.813,-2.203 -5.738,-7.006 -10.637,-7.684 -0.732,-2.639 -3.189,-2.436 -5.113,-3.133 -0.723,-0.262 -1.48,-0.576 -2.049,-1.064 -2.951,-2.551 -3.924,-3.182 -6.438,-3.57 -2.225,-0.348 -4.15,-2.07 -6.586,-1.418 -1.697,-2.44 -5.387,-1.002 -7.008,-3.597 -1.488,1.371 -2.354,0.23 -3.396,-0.716 -0.271,-0.248 -1.238,-0.079 -1.631,0.227 -0.793,0.617 -1.395,0.104 -2.094,0.09 -1.232,-0.024 -2.322,-0.411 -3.471,-0.616 -1.539,-0.274 -3.045,-0.784 -4.592,-0.96 -4.416,-0.502 -8.658,-2.035 -13.162,-2.089 -1.151,-0.013 -2.3,-0.825 -3.333,-1.225 z m -386.002,28.533 c 1.334,0.459 2.543,0.748 3.639,1.273 4.257,2.037 8.518,4.086 11.755,7.699 0.236,0.264 0.687,0.338 1.048,0.473 0.017,0.008 0.228,-0.291 0.191,-0.387 -0.862,-2.221 -1.393,-4.732 -3.938,-5.732 -5.02,-1.973 -8.07,-5.844 -10.438,-10.447 -1.165,-2.266 -1.195,-2.225 -3.458,-0.799 -0.509,0.32 -1.122,0.584 -1.711,0.646 -0.984,0.104 -2,-0.063 -2.979,0.064 -0.512,0.066 -1.321,0.443 -1.397,0.807 -0.253,1.213 0.705,1.252 1.546,1.145 1.714,-0.217 2.996,0.801 4.346,1.531 0.532,0.287 1.604,0.883 0.315,1.732 -0.407,0.268 -0.682,0.729 -1.072,1.031 -0.644,0.502 -1.331,0.947 -2,1.414 0.954,0.102 1.917,0.322 2.859,0.254 0.532,-0.036 1.03,-0.55 1.294,-0.704 z"
   id="path5" />
	<path
   d="m 537.72,330.746 c -0.66,0 -2.289,-0.416 -2.635,0.074 -1.197,1.695 -2.682,-1.668 -3.58,0.398 -1.389,-0.33 -2.389,0.801 -3.572,0.979 -1.51,0.225 -3.084,-1.029 -4.662,0.066 -1.271,0.885 -2.869,0.279 -4.287,0.924 -0.967,0.439 -2.416,0.396 -3.426,-0.004 -1.016,-0.4 -1.596,-1.543 -2.896,-0.271 -0.436,0.422 -1.877,-0.379 -2.668,-0.094 -1.764,0.637 -3.396,0.809 -5.084,-0.084 -0.211,-0.113 -0.533,-0.271 -0.691,-0.189 -0.908,0.465 -1.199,2.383 -2.947,0.813 -0.783,-0.705 -2.609,0.508 -3.596,-0.869 -1.146,1.041 -2.307,0.844 -3.473,0.041 -0.695,1.246 -1.863,-0.391 -2.992,0.596 -0.85,0.742 -3.369,0.75 -4.256,0.014 -1.527,-1.268 -3.35,1.297 -4.404,-0.775 -0.957,2.381 -3.168,-1.047 -4.217,0.91 -2.104,-1.494 -4.801,1.443 -6.816,-0.893 -0.012,-0.014 -0.43,0.469 -0.68,0.492 -1.777,0.166 -3.58,0.494 -5.332,0.322 -1.199,-0.117 -2.291,-1.232 -3.502,-1.398 -1.207,-0.166 -2.496,0.389 -3.758,0.451 -1.828,0.092 -4.172,0.723 -5.371,-0.148 -1.582,-1.148 -3.416,1.479 -4.389,-0.807 -0.914,2.109 -2.324,0.174 -3.479,0.414 -1.24,0.26 -2.652,0.813 -3.729,0.457 -1.371,-0.455 -2.457,-0.252 -3.721,0.055 -0.453,0.109 -1.143,-0.303 -1.564,-0.664 -0.307,-0.264 -0.352,-0.834 -0.512,-1.266 -0.172,0.418 -0.334,0.84 -0.52,1.252 -0.463,1.039 -1.084,0.895 -1.906,0.354 -0.865,-0.566 -2.574,-1.484 -2.643,-1.385 -1.131,1.66 -2.975,-0.201 -3.102,0.102 -0.756,1.777 -2.053,-1.488 -2.68,0.393 -0.088,0.264 -1.32,0.447 -1.793,0.211 -0.842,-0.422 -1.431,-1.516 -2.274,-1.721 -0.73,-0.178 -1.651,0.619 -2.516,0.709 -0.319,0.031 -0.673,-0.791 -1.095,-1.117 -0.441,-0.338 -1.299,-0.883 -1.431,-0.76 -0.939,0.885 -1.769,1.582 -2.818,0.184 -3.301,1.488 -6.344,1.016 -9.212,-1.131 -0.077,-0.059 -0.727,0.889 -1.016,0.836 -0.919,-0.162 -2.401,0.932 -2.577,-1.229 -0.102,-1.252 -0.75,-0.084 -1.205,0.021 -1.329,0.314 -2.757,-0.756 -4.088,0.234 -0.041,0.029 -0.539,-0.355 -0.613,-0.609 -0.188,-0.648 0.164,-1.99 -1.181,-0.709 -0.903,0.859 -1.697,2.367 -3.136,0.59 -0.157,-0.191 -0.605,-0.275 -0.883,-0.225 -3.958,0.73 -7.668,-1.262 -11.583,-1.035 -1.053,0.063 -2.512,0.471 -2.274,-1.518 -0.354,0.045 -0.707,0.09 -1.06,0.133 l -5.18,-0.373 c -1.41,0.367 -2.555,-1.488 -4.145,-0.363 -1.228,0.869 -2.774,-2.383 -4.15,0.113 -0.053,0.094 -0.85,-0.209 -1.295,-0.344 -2.177,-0.66 -4.14,-0.746 -6.409,-0.678 -1.065,0.033 -2.889,0.885 -2.769,-1.5 -0.354,0.053 -0.706,0.127 -1.061,0.152 -1.944,0.139 -3.889,0.328 -5.834,0.338 -0.351,0 -0.651,-0.836 -1.072,-1.158 -0.44,-0.336 -1.383,-0.805 -1.445,-0.721 -0.7,0.936 -1.625,1.031 -2.651,0.938 -1.86,-0.17 -3.861,0.563 -5.525,-0.863 -1.477,1.697 -3.428,0.695 -5.144,0.791 -1.006,0.057 -2.046,-0.828 -3.082,-0.855 -0.852,-0.021 -1.699,0.74 -2.591,0.871 -0.529,0.08 -1.139,-0.576 -1.713,-0.576 -1.526,-0.004 -2.707,-1.6 -4.615,-0.516 -0.899,0.51 -2.632,-1.488 -4.136,0.1 -0.314,0.332 -1.449,-0.211 -1.918,0.094 -1.959,1.268 -3.809,-2.592 -5.697,-0.045 -2.332,0 -4.665,0 -6.996,0 -2.166,0 -4.333,0.064 -6.496,-0.023 -1.306,-0.055 -2.603,-0.498 -3.904,-0.5 -1.254,-0.002 -2.506,0.357 -3.764,0.52 -2.691,0.348 -5.378,0.799 -8.082,0.969 -2.655,0.166 -5.532,-0.59 -7.942,0.191 -3.092,1.008 -6.117,0.473 -9.119,0.928 -1.26,0.191 -2.019,-1.408 -3.343,-0.447 -1.229,0.891 -2.266,-0.023 -3.477,-0.498 -0.922,-0.361 -2.822,1.188 -3.436,0.734 -1.624,-1.199 -2.057,0.131 -3.044,0.68 -0.777,0.432 -1.926,0.146 -2.788,0.488 -1.285,0.51 -2.347,-1.725 -3.721,-0.07 -1.116,1.342 -2.151,-1.533 -3.784,-0.23 -0.93,0.742 -2.765,0.67 -4.038,-0.58 -0.196,-0.191 -1.323,0.838 -1.974,0.779 -1.407,-0.123 -2.785,2.443 -4.174,0.063 -1.527,0.338 -2.867,1.436 -4.586,1.012 -1.688,-0.414 -3.659,0.822 -5.14,-0.867 -1.4,0.877 -2.78,1.619 -4.179,-0.07 -0.054,-0.064 -0.961,0.801 -1.521,0.881 -0.908,0.133 -2.133,0.385 -1.984,-1.299 0.003,-0.043 -0.592,-0.139 -0.908,-0.209 -0.076,1.037 0.054,2.027 -1.458,0.744 -1.273,-1.08 -2.867,-1.9 -4.451,-2.459 -1.17,-0.41 -0.377,-3.58 -2.803,-1.893 -0.942,-1.275 -2.115,-2.445 -2.76,-3.857 -0.61,-1.334 -1.875,-2.744 -0.645,-4.461 0.285,-0.396 -1.691,-0.488 -0.175,-1.604 2.049,-1.51 4.816,-1.611 6.534,-3.648 0.208,-0.246 1.052,-0.316 1.281,-0.109 0.479,0.432 0.745,1.1 1.098,1.67 0.118,-0.783 0.128,-1.609 0.406,-2.332 0.108,-0.283 0.817,-0.33 1.249,-0.494 0.863,-0.33 1.825,-0.521 2.559,-1.037 0.891,-0.627 1.199,2.105 2.124,0.252 0.347,-0.695 0.69,-1.549 1.29,-1.924 0.754,-0.473 1.766,-0.535 2.67,-0.762 0.757,-0.188 1.612,-0.654 2.258,-0.459 0.944,0.289 1.887,1.568 1.896,-0.66 0,-0.139 0.547,-0.428 0.789,-0.381 0.662,0.129 1.332,0.621 1.928,0.525 0.324,-0.053 0.587,-1.501 0.733,-1.477 1.288,0.22 2.408,-2.364 3.752,-0.247 0.354,-0.574 0.584,-1.473 1.083,-1.66 1.448,-0.543 3.039,-1.19 4.504,-1.053 1.276,0.12 2.457,-1.948 3.68,-0.118 1.556,-0.805 3.112,-1.126 4.668,0 0.112,-0.299 0.292,-0.592 0.318,-0.897 0.029,-0.347 -0.169,-1 -0.117,-1.015 1.339,-0.403 2.834,-0.495 4.014,-1.156 1.178,-0.66 1.564,2 2.875,0.347 0.565,-0.713 1.949,-0.821 2.988,-1.1 0.615,-0.165 1.422,-0.383 1.899,-0.125 1.011,0.544 1.831,1.415 1.94,-0.657 0.008,-0.163 1.469,-0.583 1.704,-0.344 1.355,1.385 2.579,0.182 3.657,-0.22 0.857,-0.319 1.404,-1.371 2.47,-0.364 0.179,0.168 0.849,0.14 1.01,-0.045 1.842,-2.101 3.96,-1.92 6.128,-0.721 0.773,0.428 1.472,-1.402 2.219,0.049 0.056,0.109 1.484,-0.193 1.938,-0.644 1.088,-1.078 2.154,1.741 2.557,0.189 0.397,-1.534 1.566,-1.663 2.015,-1.221 1.424,1.402 2.692,0.157 3.7,-0.198 1.283,-0.452 2.737,0.202 3.831,-0.797 1.006,1.771 2.885,-1.475 3.827,0.666 0.471,-0.302 0.91,-0.684 1.42,-0.889 0.857,-0.344 2.295,-1.061 2.552,-0.775 1.257,1.393 2.204,-0.136 3.26,-0.136 1.807,0.002 3.404,-1.819 5.431,-0.569 1.361,0.839 3.172,-1.593 4.459,0.495 0.734,-1.108 2.037,0.283 2.406,-0.263 1.278,-1.89 3.11,-1.758 4.875,-1.57 2.697,0.288 5.496,-0.875 8.142,0.875 0.871,0.576 2.369,-2.146 3.639,0.022 1.189,-1.153 2.268,-1.116 3.829,-0.363 0.899,0.435 2.324,-1.254 3.718,-0.123 1.004,0.815 2.581,-1.718 3.458,0.492 0.521,-0.314 1.016,-0.83 1.566,-0.896 0.882,-0.106 1.934,-0.443 2.072,1.242 0.086,1.05 0.913,0.697 0.881,-0.166 -0.066,-1.811 2.154,-0.627 2.366,-1.95 1.093,1.779 2.363,-1.142 3.472,0.129 0.596,0.684 1.177,1.063 2.08,0.363 0.464,-0.36 1.321,-0.8 1.685,-0.608 2.45,1.294 5.012,-1.063 7.534,0.376 0.663,0.378 2.271,0.703 2.857,0.435 1.253,-0.572 2.518,0.249 3.152,-0.039 1.067,-0.483 2.042,-0.017 3.012,-0.393 0.866,-0.336 1.926,-0.161 2.805,-0.476 0.897,-0.322 1.167,1.84 2.35,0.355 0.902,-1.131 1.625,0.624 2.417,0.612 0.867,-0.014 1.702,-0.729 2.594,-0.876 0.526,-0.087 1.625,0.315 1.633,0.526 0.064,1.913 0.675,1.358 1.557,0.473 0.458,-0.46 0.656,-0.921 1.818,-0.5 1.461,0.528 3.281,1.57 5.045,0.587 1.54,-0.857 2.951,1.072 4.689,-0.016 0.834,-0.522 3.035,-0.855 3.142,1.557 0.236,-0.021 0.672,-0.015 0.678,-0.065 0.378,-2.943 1.837,-1.494 2.816,-0.569 0.797,0.753 2.342,-2.73 2.392,0.521 1.134,-0.188 2.283,-0.587 3.399,-0.51 1.372,0.096 3.34,1.301 3.948,0.769 1.464,-1.283 2.256,-0.683 3.309,0.177 1.889,-1.72 3.775,0.116 5.669,0.018 1.661,-0.086 3.96,-0.696 4.854,0.135 1.481,1.377 3.08,-1.551 4.031,0.581 0.014,0.032 0.447,-0.107 0.678,-0.189 2.182,-0.786 4.264,-1.058 6.451,0.253 0.875,0.524 2.688,-0.118 3.217,0.501 1.357,1.598 1.715,-0.72 2.887,-0.426 1.881,0.472 3.977,0.239 5.963,0.09 1.553,-0.116 2.898,0.867 4.492,0.54 0.889,-0.182 2.295,0.56 2.736,0.131 1.279,-1.238 1.98,-0.44 2.848,0.315 0.459,-1.926 2.303,0.878 2.826,-0.827 3.682,1.582 7.785,0.006 11.34,1.347 1.402,0.529 1.576,-0.478 2.348,-0.565 2.584,-0.292 5.107,1.184 7.701,0.154 0.242,-0.097 0.82,0.623 1.229,0.98 0.26,0.227 0.492,0.484 0.734,0.728 1.168,-1.483 2.854,-0.311 4.164,-0.81 1.299,-0.495 2.418,1.854 3.66,0.1 0.693,0.726 1.268,1.375 2.467,0.549 0.461,-0.318 1.541,0.417 2.307,0.341 0.727,-0.072 1.484,-0.927 2.094,-0.798 0.676,0.143 1.133,1.339 1.803,1.473 0.746,0.148 1.617,-0.532 2.451,-0.58 0.775,-0.045 1.609,0.5 2.354,0.38 4.146,-0.666 5.969,-0.572 10.428,0.474 0.719,0.168 1.977,-0.77 2.33,-0.457 1.189,1.053 2.436,-1.735 3.688,0.306 0.383,0.624 2.482,0.13 3.783,0.271 1.398,0.151 3.02,-0.651 4.129,0.875 1.039,-1.689 2.396,-0.067 3.445,-0.361 0.984,-0.274 1.951,0.399 3.02,-0.424 0.73,-0.564 2.531,-0.54 3.348,-0.004 1.156,0.761 1.816,0.171 2.748,-0.059 0.563,-0.139 1.307,0.032 1.83,0.32 0.279,0.155 0.264,0.85 0.381,1.301 0.473,-0.196 0.963,-0.579 1.408,-0.531 0.4,0.043 1.002,0.883 1.086,0.817 1.613,-1.249 3.584,0.586 5.158,-0.633 1.582,1.759 4.262,-0.441 5.766,1.596 1.051,-2.081 3.033,0.731 4.381,-0.837 0.365,-0.425 1.873,-0.035 2.789,0.221 1.08,0.303 2.465,1.523 3.053,1.186 1.424,-0.814 1.77,1.269 2.842,0.666 0.953,1.656 2.387,-1.422 3.57,0.41 0.422,0.651 2.043,-1.594 3.025,0.182 0.627,1.134 2.117,0.35 2.367,0.584 1.215,1.133 2.742,0.147 3.723,0.761 1.043,0.655 1.992,0.81 3.129,0.976 1.182,0.174 2.43,0.677 3.387,1.389 0.818,0.609 0.967,0.037 1.475,-0.232 0.781,-0.416 1.607,-0.465 1.666,0.802 0.031,0.664 -0.029,1.334 0.021,1.998 0.023,0.289 0.23,0.564 0.354,0.848 0.211,-0.324 0.514,-0.627 0.605,-0.98 0.121,-0.465 -0.098,-1.262 0.137,-1.4 0.439,-0.262 1.102,-0.158 1.668,-0.205 l 2.828,1.609 c 1.146,-1.104 1.951,-1.75 2.541,0.598 0.205,0.816 1.869,-1.541 3.064,0.1 0.471,0.645 1.779,0.971 2.689,0.941 1.764,-0.051 3.438,-0.277 4.605,1.467 0.936,1.398 2.572,-0.055 3.797,0.941 1.16,0.947 2.664,1.691 4.129,2.008 6.197,1.344 8.588,2.621 13.764,7.67 0.264,0.258 1.299,-0.365 1.682,-0.123 0.426,0.271 0.371,1.229 0.783,1.604 0.666,0.611 1.924,0.816 2.244,1.51 0.506,1.092 -0.443,2.604 0.795,3.699 0.104,0.092 -0.469,0.93 -0.703,1.43 -0.191,0.406 -0.352,0.828 -0.523,1.242 -0.16,-0.434 -0.244,-0.922 -0.51,-1.277 -0.148,-0.203 -0.592,-0.188 -0.904,-0.27 0.316,2.236 -2.033,1.355 -2.766,2.367 -0.971,-1.523 -2.574,1.617 -3.48,-0.471 -0.055,-0.127 -0.229,-0.203 -0.346,-0.305 -0.879,2.197 -2.33,0.025 -3.486,0.438 -0.832,0.295 -2.338,0.627 -2.598,0.264 -1.188,-1.65 -2.434,0.414 -3.154,-0.131 -1.107,-0.836 -2.188,-0.521 -3.279,-0.574 -1.273,-0.059 -2.648,-0.287 -3.582,0.98 -1.689,-1.373 -3.654,0.877 -5.484,-0.496 -0.848,-0.639 -2.484,1.586 -3.424,-0.467 -2.15,1.912 -4.732,0.646 -7.102,0.926 -1.365,0.16 -2.857,0.34 -4.014,-0.809 -0.955,1.408 -2.404,0.723 -3.648,0.832 -3.695,0.326 -7.48,-0.699 -11.111,0.939 -0.682,0.307 -1.793,-0.494 -2.707,-0.506 -0.809,-0.01 -1.623,0.555 -2.428,0.543 -2.004,-0.033 -4.148,-1.229 -5.813,0.898 -1.748,-1.916 -2.703,-0.197 -3.836,0.814 -0.215,0.189 -0.605,0.166 -0.854,0.33 -1.146,0.76 -1.984,-1.658 -3.291,-0.232 -0.717,0.779 -1.865,1.139 -2.713,1.822 -0.852,0.684 -1.328,0.24 -2.105,-0.186 -1.496,-0.818 -3.359,-0.361 -4.959,-1.322 -0.723,-0.436 -0.895,0.4 -0.295,1.047 0.094,0.1 -0.137,0.764 -0.332,0.83 -1.172,0.398 -2.67,0.373 -3.496,1.115 -1.005,0.895 -1.789,-0.021 -2.986,0.386 z"
   id="path7" />
	<path
   d="m 574.349,290.986 c 1.033,0.4 2.182,1.212 3.338,1.226 4.504,0.055 8.746,1.587 13.162,2.089 1.547,0.176 3.053,0.686 4.592,0.96 1.146,0.205 2.238,0.591 3.471,0.616 0.699,0.014 1.301,0.527 2.094,-0.09 0.393,-0.306 1.357,-0.475 1.631,-0.227 1.043,0.946 1.908,2.086 3.396,0.716 1.621,2.595 5.311,1.156 7.008,3.597 2.436,-0.652 4.361,1.07 6.586,1.418 2.514,0.391 3.486,1.02 6.438,3.57 0.566,0.488 1.326,0.803 2.049,1.064 1.924,0.697 4.381,0.494 5.113,3.133 4.898,0.678 6.824,5.48 10.637,7.684 0.904,0.523 1.887,4.213 1.646,5.441 -0.049,0.256 -0.434,0.477 -0.428,0.709 0.033,1.801 -1.25,4.092 -2.783,4.334 -1.941,0.311 -3.527,2.488 -5.787,1.137 -0.059,-0.033 -0.25,0.098 -0.344,0.188 -1.111,1.059 -2.059,2.836 -3.83,0.824 -1.354,1.488 -2.807,0.977 -4.438,0.457 -0.822,-0.262 -1.895,0.291 -2.859,0.434 -0.887,0.133 -1.674,-1.643 -2.775,-0.064 -0.186,0.266 -2.449,0.859 -2.352,-1.293 0.008,-0.164 -0.494,-0.539 -0.566,-0.496 -2.699,1.637 -5.412,1.084 -8.135,0.092 -1.697,2.188 -2.986,-0.957 -4.805,-0.348 -1.646,0.553 -3.625,0.133 -5.457,0.102 -0.287,-0.004 -0.57,-0.217 -0.855,-0.334 0.311,-0.217 0.594,-0.5 0.936,-0.639 1.242,-0.506 2.371,-1.811 3.902,-0.566 0.213,0.174 0.902,0.164 1.008,0.004 1.244,-1.91 3.158,-1.43 4.924,-1.441 2.998,-0.021 6.002,-0.096 8.996,0.029 1.549,0.066 2.994,-0.074 4.672,0.795 2.477,1.283 5.318,-0.564 7.93,-1.094 1.633,-0.332 2.93,-2.572 4.238,-4.076 0.346,-0.396 0.457,-1.41 0.191,-1.854 -1.361,-2.285 -2.828,-4.52 -4.404,-6.662 -0.246,-0.334 -1.281,0.002 -1.893,-0.174 -0.73,-0.209 -1.43,-0.969 -2.088,-0.906 -1.795,0.166 -0.467,-3.992 -3.205,-2.203 -1.273,-0.941 -2.453,-2.441 -3.852,-2.688 -1.803,-0.314 -3.268,-1.021 -4.736,-1.914 -0.699,-0.426 -1.775,-0.084 -1.9,-1.662 -0.105,-1.324 -0.891,0.502 -1.59,0.225 -1.717,-0.684 -3.469,-1.301 -5.25,-1.799 -1.715,-0.477 -2.945,-2.086 -5.322,-1.227 -1.311,0.475 -3.33,-1.287 -5.107,-1.752 -1.979,-0.52 -4.051,-0.673 -6.07,-1.052 -2.914,-0.547 -5.604,-2.034 -8.67,-2.045 -0.508,-0.002 -1.002,-0.735 -1.521,-1.102 -0.332,-0.234 -0.91,-0.677 -1.025,-0.584 -2.535,2.03 -4.355,-0.576 -6.5,-0.974 -0.592,-0.11 -1.141,-0.452 -1.709,-0.688 0.657,-0.257 1.322,-0.514 2.298,-0.89 z"
   id="path9" />
	<path
   d="m 188.347,319.519 c -0.265,0.154 -0.762,0.67 -1.293,0.707 -0.942,0.068 -1.905,-0.152 -2.859,-0.254 0.669,-0.469 1.356,-0.912 2,-1.414 0.39,-0.303 0.665,-0.766 1.072,-1.033 1.289,-0.85 0.217,-1.443 -0.315,-1.732 -1.35,-0.729 -2.631,-1.746 -4.346,-1.529 -0.841,0.107 -1.8,0.068 -1.546,-1.146 0.076,-0.361 0.885,-0.738 1.397,-0.805 0.979,-0.129 1.995,0.039 2.979,-0.066 0.589,-0.063 1.203,-0.324 1.711,-0.646 2.263,-1.424 2.293,-1.467 3.458,0.801 2.368,4.604 5.417,8.475 10.438,10.445 2.544,1 3.075,3.514 3.938,5.734 0.037,0.096 -0.174,0.393 -0.191,0.387 -0.361,-0.135 -0.812,-0.211 -1.048,-0.475 -3.237,-3.611 -7.498,-5.66 -11.755,-7.699 -1.097,-0.527 -2.305,-0.816 -3.64,-1.275 z"
   id="path11" />
	<circle
   cx="314"
   cy="307.27301"
   r="1.5"
   id="circle13"
   style="fill:#ffffff" />
	<circle
   cx="321.06299"
   cy="306.52301"
   r="1.5"
   id="circle15"
   style="fill:#ffffff" />
	<circle
   cx="327.43799"
   cy="306.08499"
   r="1.5"
   id="circle17"
   style="fill:#ffffff" />
	<circle
   cx="334.06299"
   cy="306.95999"
   r="1.5"
   id="circle19"
   style="fill:#ffffff" />
	<circle
   cx="341.25"
   cy="307.27301"
   r="1.5"
   id="circle21"
   style="fill:#ffffff" />
	<circle
   cx="348.125"
   cy="308.02301"
   r="1.5"
   id="circle23"
   style="fill:#ffffff" />
	<circle
   cx="357.18799"
   cy="308.02301"
   r="1.5"
   id="circle25"
   style="fill:#ffffff" />
</g>
</svg>