<?xml version="1.0" encoding="UTF-8" standalone="no"?>
<!-- Created with Inkscape (http://www.inkscape.org/) -->

<svg
   xmlns:svg="http://www.w3.org/2000/svg"
   xmlns="http://www.w3.org/2000/svg"
   version="1.2"
   width="319.19"
   height="534.27197"
   viewBox="0 0 319.19 534.272"
   id="svg2"
   xml:space="preserve"
   style="overflow:inherit"><defs
   id="defs24" />
<g
   id="Layer_4">
	<path
   d="m 62.775,43.123 c 0.133,-0.067 0.45,-0.1 0.95,-0.1 0.133,0.233 -0.117,0.467 -0.75,0.7 0.133,0.5 0.2,1.317 0.2,2.45 0.067,0.233 0.217,0.433 0.45,0.6 0.333,-0.633 1.167,-0.95 2.5,-0.95 1.7,-0.066 2.6,0.667 2.7,2.2 0.367,-0.1 0.817,-0.1 1.35,0 1.133,0.1 1.867,0.45 2.2,1.05 0.367,-0.133 0.816,-0.167 1.35,-0.1 1.4,0.167 2.167,0.9 2.3,2.2 0.467,-0.2 1.083,-0.3 1.85,-0.3 1.667,0.066 2.55,0.767 2.65,2.1 0.2,0.034 0.433,0.1 0.7,0.2 0.667,0.267 1.133,0.517 1.4,0.75 0.566,0.033 1.167,0.15 1.8,0.35 1.433,0.5 2.15,1.1 2.15,1.8 0,0.133 0,0.3 0,0.5 1.7,-0.8 3.567,0.4 5.6,3.6 0.967,1.3 1.75,2.8 2.35,4.5 0.066,0.133 0.5,1.65 1.3,4.55 0.333,1.367 2.483,7.867 6.45,19.5 0.2,1.167 0.45,2.467 0.75,3.9 0.367,2.033 0.683,3.683 0.95,4.95 0.534,-0.1 1.133,-0.133 1.8,-0.1 4,0.2 10.1,2.284 18.3,6.25 3.533,2.233 8.917,5.083 16.15,8.55 1.4,0.7 2.3,1.367 2.7,2 0.4,0.667 0.6,1.833 0.6,3.5 -0.033,1.933 -0.567,3.617 -1.6,5.05 -1.8,2.567 -4.9,3.817 -9.3,3.75 -6.034,-0.066 -13.333,-4.066 -21.9,-12 -2.7,-2.5 -5.35,-5.233 -7.95,-8.2 -2.067,-2.4 -3.1,-3.667 -3.1,-3.8 0.033,-1.4 0.367,-2.5 1,-3.3 -1.233,-2.067 -2.783,-5.217 -4.65,-9.45 l -0.55,0.1 c -3.5,-10.1 -5.3,-15.25 -5.4,-15.45 l -5.8,-14.2 c 0,-0.467 0.05,-0.9 0.15,-1.3 -1.467,-0.133 -2.5,-0.833 -3.1,-2.1 -0.066,-0.233 -0.117,-0.45 -0.15,-0.65 -0.767,-0.033 -1.417,-0.466 -1.95,-1.3 -0.5,0.033 -1,0.033 -1.5,0 -1.1,0 -1.9,-0.433 -2.4,-1.3 -0.1,-0.4 -0.167,-0.684 -0.2,-0.85 -0.4,0.066 -0.85,0.083 -1.35,0.05 -0.533,0 -1.067,-0.033 -1.6,-0.1 l -0.65,-0.15 c -0.067,-0.367 -0.1,-0.783 -0.1,-1.25 -0.267,0.033 -0.567,0.05 -0.9,0.05 -1.167,-0.034 -2,-0.383 -2.5,-1.05 -0.1,-0.167 -0.184,-0.316 -0.25,-0.45 -0.467,0.3 -0.883,0.45 -1.25,0.45 -1.2,-0.033 -2.083,-0.5 -2.65,-1.4 -0.067,-0.233 -0.117,-0.433 -0.15,-0.6 -1.466,0.067 -2.383,0.383 -2.75,0.95 -0.7,1.167 -1.183,1.816 -1.45,1.95 l -0.25,-0.25 c 0.133,-0.133 0.6,-0.816 1.4,-2.05 0.7,-1 1.167,-1.567 1.4,-1.7 l 1.4,0.1 c -0.033,-0.033 -0.033,-0.066 0,-0.1 -0.3,-0.267 -0.566,-0.667 -0.8,-1.2 -0.333,-0.8 -0.483,-1.434 -0.45,-1.9 0,-0.534 0.183,-0.867 0.55,-1 z"
   id="path5"
   style="fill-rule:evenodd" />
</g>
<g
   id="Layer_5">
	<path
   d="m 228.274,160.822 c -1,2.1 -3.033,4.533 -6.1,7.3 -7.9,7.133 -15.116,11.816 -21.65,14.05 -5.3,1.867 -8.75,1.9 -10.35,0.1 -1.9,-2.1 -1.517,-5.217 1.15,-9.35 2.399,-3.767 6.083,-7.483 11.05,-11.15 5,-3.767 9.733,-6.333 14.2,-7.7 5.066,-1.467 8.666,-1.033 10.8,1.3 0.366,0.367 0.666,0.75 0.899,1.15 3.034,-0.567 7.184,-0.4 12.45,0.5 0.4,0.066 15.517,4.333 45.351,12.8 2.133,0.367 4.033,0.767 5.699,1.2 0.334,0.133 0.7,0.25 1.101,0.35 l 0.35,-0.05 c 1.2,2.367 1.834,4.317 1.9,5.85 1.399,0.267 2.2,1.017 2.399,2.25 0.934,-0.2 1.733,-0.333 2.4,-0.4 0.634,0.033 1.116,0.217 1.45,0.55 2.267,-0.233 3.649,0.017 4.149,0.75 0,-0.033 -0.017,-0.066 -0.05,-0.1 0.066,-0.533 0.117,-0.816 0.15,-0.85 0.066,0.1 0.184,0.033 0.35,-0.2 1.134,-0.233 2.084,0.017 2.851,0.75 0,0.033 0.033,0.083 0.1,0.15 1.134,-0.333 2.116,-0.417 2.95,-0.25 0.267,-0.733 1.017,-1.017 2.25,-0.85 0.467,0.067 0.816,0.167 1.05,0.3 0.533,-0.233 0.884,-0.417 1.05,-0.55 0.167,-0.167 0.267,-0.533 0.3,-1.1 -0.033,-0.4 -0.1,-0.75 -0.199,-1.05 -0.067,-0.167 -0.101,-0.3 -0.101,-0.4 0.7,0.767 1.033,1.7 1,2.8 -0.033,0.867 -0.149,1.133 -0.35,0.8 l -1,-0.1 c 0.233,0.133 0.333,0.3 0.3,0.5 0.7,0.2 1.316,0.5 1.85,0.9 0.867,0.767 1.25,1.633 1.15,2.6 0,0.833 -0.083,0.983 -0.25,0.45 -0.233,-0.333 -0.45,-1 -0.65,-2 -0.366,-0.733 -1.033,-1.2 -2,-1.4 0.034,0 0.051,0.067 0.051,0.2 -0.034,0.467 -0.2,0.867 -0.5,1.2 -0.334,0.367 -0.534,0.617 -0.601,0.75 -0.233,-0.233 -0.733,-0.5 -1.5,-0.8 -0.533,-0.167 -1.033,-0.316 -1.5,-0.45 -0.066,0.133 -0.116,0.216 -0.149,0.25 -0.134,0.533 -0.601,0.75 -1.4,0.65 -0.667,0 -1.3,-0.083 -1.9,-0.25 -0.199,0.133 -0.583,0.183 -1.149,0.15 -0.634,-0.033 -1.134,-0.283 -1.5,-0.75 -0.2,-0.233 -0.334,-0.433 -0.4,-0.6 0,0.833 -0.083,1.067 -0.25,0.7 -0.333,0.133 -0.899,0.316 -1.7,0.55 -0.6,0.2 -1.166,0.3 -1.699,0.3 -0.067,0.267 -0.134,0.267 -0.2,0 l -2.75,-0.05 c -1.066,-0.066 -1.884,-0.467 -2.45,-1.2 -0.033,0 -0.066,-0.017 -0.1,-0.05 l -3.5,-0.25 c -0.2,-0.033 -0.434,-0.1 -0.7,-0.2 -0.134,-0.067 -0.217,-0.217 -0.25,-0.45 l -0.05,-0.05 h -0.2 c -2.8,-0.167 -6.233,-1.05 -10.3,-2.65 -1,-0.367 -2,-0.783 -3,-1.25 -31.2,-9.2 -47.733,-14.25 -49.601,-15.15 -0.201,-0.166 -0.434,-0.333 -0.701,-0.5 z m -127.999,21.551 c -0.1,0.267 -0.2,0.533 -0.3,0.8 -0.7,1.933 -9.6,16.767 -26.7,44.5 -0.434,0.967 -0.883,1.917 -1.35,2.85 -4,8 -8,12 -12,12 h -0.05 c -0.034,0.233 -0.1,0.384 -0.2,0.45 -0.3,0.066 -0.55,0.134 -0.75,0.2 h -3.5 c -0.033,0 -0.067,0 -0.1,0 -0.6,0.733 -1.45,1.1 -2.55,1.1 l -2.75,-0.1 c -0.1,0.3 -0.167,0.3 -0.2,0 -0.5,-0.033 -1.083,-0.167 -1.75,-0.4 -0.733,-0.3 -1.25,-0.5 -1.55,-0.6 -0.167,0.333 -0.25,0.083 -0.25,-0.75 -0.1,0.167 -0.233,0.333 -0.4,0.5 -0.434,0.5 -0.95,0.75 -1.55,0.75 -0.533,0 -0.933,-0.083 -1.2,-0.25 -0.567,0.167 -1.167,0.25 -1.8,0.25 -0.8,0 -1.283,-0.25 -1.45,-0.75 -0.034,-0.066 -0.067,-0.134 -0.1,-0.2 -0.467,0.066 -0.983,0.184 -1.55,0.351 -0.8,0.233 -1.316,0.466 -1.55,0.699 -0.033,-0.166 -0.217,-0.449 -0.55,-0.85 -0.3,-0.333 -0.45,-0.733 -0.45,-1.2 0,-0.066 0,-0.116 0,-0.149 -0.967,0.133 -1.617,0.55 -1.95,1.25 -0.267,1.033 -0.533,1.683 -0.8,1.949 -0.167,0.534 -0.25,0.384 -0.25,-0.449 0,-0.967 0.45,-1.801 1.35,-2.5 0.566,-0.434 1.167,-0.7 1.8,-0.801 0.067,-0.199 0.184,-0.366 0.35,-0.5 h -1 c -0.167,0.334 -0.25,0.084 -0.25,-0.75 0,-1.1 0.367,-2.017 1.1,-2.75 0.033,0.101 0,0.25 -0.1,0.45 -0.167,0.233 -0.25,0.584 -0.25,1.05 0,0.534 0.083,0.884 0.25,1.051 0.133,0.133 0.45,0.316 0.95,0.55 0.3,-0.101 0.667,-0.167 1.1,-0.2 1.3,-0.1 2.05,0.217 2.25,0.95 0.833,-0.134 1.817,0 2.95,0.399 0.033,-0.033 0.067,-0.066 0.1,-0.1 0.8,-0.733 1.767,-0.9 2.9,-0.5 0.133,0.134 0.233,0.167 0.3,0.1 0.034,0.034 0.05,0.301 0.05,0.801 0,0.033 0,0.066 0,0.1 0.533,-0.7 1.917,-0.884 4.15,-0.55 0.367,-0.267 0.867,-0.384 1.5,-0.351 0.633,0.034 1.417,0.184 2.35,0.45 0.267,-1.233 1.117,-1.934 2.55,-2.1 0.2,-2.634 2.267,-6.45 6.2,-11.45 16.533,-26.267 24.917,-39.55 25.15,-39.85 3.333,-4.167 6.317,-7.066 8.95,-8.7 -0.067,-0.434 -0.1,-0.917 -0.1,-1.45 0,-3.167 2.383,-5.883 7.15,-8.15 4.233,-2 9.467,-3.283 15.7,-3.85 6.133,-0.567 11.35,-0.267 15.65,0.9 4.767,1.3 7.15,3.367 7.15,6.2 0,2.433 -2.583,4.733 -7.75,6.9 -6.367,2.667 -14.867,4 -25.5,4 -4.167,-0.001 -7.3,-0.434 -9.4,-1.3 z"
   id="path8"
   style="fill-rule:evenodd" />
</g>
<g
   id="Layer_6">
	<path
   d="m 226.024,289.672 c 2.7,5.866 3.717,9.65 3.051,11.35 -0.034,0.067 -0.101,0.4 -0.2,1 -0.233,0.634 -0.634,1.15 -1.2,1.551 -0.3,0.233 -0.65,0.399 -1.05,0.5 0.399,0.966 0.816,2.1 1.25,3.399 3.133,11.9 5.6,20.517 7.399,25.851 2.601,6.699 4.784,12.733 6.551,18.1 3.166,9.6 4.399,15.884 3.699,18.85 0.434,0.167 0.934,0.483 1.5,0.95 1.167,0.934 1.834,1.816 2,2.65 0.867,-0.167 1.784,-0.134 2.75,0.1 1.134,0.3 1.851,0.816 2.15,1.55 l 0.05,-0.05 3.101,1.101 c 0,0.033 0.1,0.083 0.3,0.149 0.066,0.066 0.1,0.167 0.1,0.3 0.566,-0.1 1.066,-0.066 1.5,0.101 1.233,0.467 1.917,0.95 2.05,1.45 0.534,-0.233 1.217,-0.267 2.051,-0.101 0.399,0.101 0.75,0.217 1.05,0.351 0.033,-0.067 0.066,-0.134 0.1,-0.2 0.167,-0.066 0.351,-0.117 0.55,-0.15 l 0.15,-0.35 c 0.134,0.1 0.267,0.166 0.4,0.2 0.267,-0.067 0.5,-0.067 0.699,0 0.267,0.1 0.534,0.199 0.801,0.3 0.5,-0.267 0.916,-0.667 1.25,-1.2 0.833,-1.767 1.383,-2.866 1.649,-3.3 l 0.351,0.1 c -0.233,0.533 -0.551,1.483 -0.95,2.851 -0.033,0.033 -0.434,0.6 -1.2,1.699 -0.134,0.134 -0.267,0.233 -0.4,0.301 0.934,0.267 1.851,0.533 2.75,0.8 0.233,0.7 0.767,3.267 1.601,7.7 -0.4,-0.601 -0.65,-1.334 -0.75,-2.2 -0.167,-1.233 -0.283,-1.983 -0.351,-2.25 -0.399,-1.3 -1.583,-2.417 -3.55,-3.351 -0.1,0.367 -0.233,0.801 -0.399,1.301 -0.301,0.8 -0.567,0.816 -0.801,0.05 -0.466,-0.2 -0.85,-0.384 -1.149,-0.55 l -0.4,0.6 c -0.566,0.434 -1.633,0.35 -3.2,-0.25 -0.399,-0.167 -0.716,-0.316 -0.949,-0.45 h -0.351 c -0.434,-0.033 -0.899,-0.149 -1.399,-0.35 -0.733,-0.267 -1.584,-0.717 -2.551,-1.351 -0.666,0.134 -1.466,0.034 -2.399,-0.3 -0.533,-0.233 -0.816,-0.483 -0.851,-0.75 0,-0.133 0.017,-0.3 0.051,-0.5 -0.301,0 -0.684,-0.033 -1.15,-0.1 -1.434,-0.2 -2.733,-0.517 -3.9,-0.95 -0.399,0.267 -0.833,0.3 -1.3,0.1 -0.934,-0.366 -1.717,-1.116 -2.35,-2.25 -0.2,-0.3 -0.334,-0.55 -0.4,-0.75 -1,0.667 -2.233,0.717 -3.7,0.15 -4.466,-1.733 -9.1,-13.684 -13.899,-35.85 -1.634,-7.4 -3.066,-15.034 -4.3,-22.9 -1.034,-6.8 -1.483,-10.384 -1.351,-10.75 0.033,-0.134 0.084,-0.267 0.15,-0.4 -0.533,-0.166 -1.084,-0.35 -1.65,-0.55 -10.267,-4 -17.366,-11.1 -21.3,-21.3 -1.333,-3.533 -2.167,-7.116 -2.5,-10.75 -0.267,-2.934 -0.184,-4.95 0.25,-6.05 1.833,-4.7 4.816,-6 8.95,-3.9 3.5,1.8 7.434,5.75 11.8,11.851 3.897,5.364 7.18,10.981 9.846,16.847 z m -214.099,0.201 c -0.121,0.538 -0.454,1.963 -1,4.274 -0.078,0.889 0.031,1.588 0.325,2.101 0.312,0.056 0.67,0.114 1.075,0.175 0.188,0.059 0.388,0.217 0.6,0.475 0.09,0.006 0.24,-0.003 0.45,-0.024 l -0.05,0.375 c 0.053,0.192 0.169,0.409 0.35,0.649 -0.031,0.009 -0.056,0.067 -0.075,0.176 0.311,0.005 0.694,0.097 1.15,0.274 0.845,0.23 1.453,0.589 1.825,1.075 0.374,-0.33 1.224,-0.354 2.55,-0.075 0.472,0.011 0.914,0.21 1.325,0.601 0.088,-0.119 0.196,-0.202 0.325,-0.25 l 3.5,0.649 0.05,0.075 c 0.755,-0.46 1.656,-0.568 2.7,-0.325 0.84,0.281 1.506,0.73 2,1.351 0.686,-0.635 1.744,-1.102 3.175,-1.4 0.706,-0.178 1.281,-0.22 1.725,-0.125 1.026,-2.009 3.71,-4.934 8.05,-8.775 1.067,-0.683 2.133,-1.375 3.2,-2.074 8.667,-5.567 17.933,-9.884 27.8,-12.95 5.007,-1.996 11.507,-4.779 19.5,-8.351 1.267,-0.433 2.4,-0.783 3.4,-1.05 -0.167,-0.399 -0.267,-0.816 -0.3,-1.25 -0.033,-0.633 0.133,-1.25 0.5,-1.85 0.4,-0.467 0.6,-0.733 0.6,-0.8 0.9,-1.567 4.483,-3.134 10.75,-4.7 6.3,-1.601 12.75,-2.566 19.35,-2.9 7.5,-0.366 13.05,0.233 16.65,1.8 4.2,1.934 5.05,5.084 2.55,9.45 -0.6,1.066 -2.117,2.4 -4.55,4 -3.067,2 -6.383,3.584 -9.95,4.75 -10.433,3.3 -20.417,2.184 -29.95,-3.35 -0.5,-0.267 -0.983,-0.55 -1.45,-0.851 -0.066,0.101 -0.133,0.2 -0.2,0.301 -0.2,0.399 -3.3,2.3 -9.3,5.699 -5.879,3.368 -11.745,6.526 -17.6,9.476 l -31,16.149 c -1.41,0.891 -2.635,1.558 -3.675,2 -1.271,0.504 -2.254,0.704 -2.95,0.601 -1.335,-0.175 -2.11,-0.766 -2.325,-1.775 -0.191,0.131 -0.441,0.256 -0.75,0.375 -1.158,0.708 -2.175,1.016 -3.05,0.925 -0.485,-0.06 -0.776,-0.293 -0.875,-0.699 -1.15,-0.222 -2.317,-0.58 -3.5,-1.075 -0.362,-0.156 -0.653,-0.322 -0.875,-0.5 -0.087,0.226 -0.162,0.384 -0.225,0.475 -0.288,0.302 -0.696,0.377 -1.225,0.226 -0.999,-0.115 -1.691,-0.407 -2.075,-0.875 -1.204,0.081 -2.196,0.064 -2.975,-0.051 -0.611,-0.068 -1.086,-0.21 -1.425,-0.425 l -0.25,-0.175 c -0.371,-0.032 -0.754,-0.049 -1.15,-0.05 -1.864,-0.263 -2.897,-0.729 -3.1,-1.4 l 0.075,-0.899 c -0.333,-0.053 -0.809,-0.086 -1.425,-0.101 -0.721,0.613 -0.954,0.455 -0.7,-0.475 0.22,-0.569 0.395,-1.045 0.525,-1.425 -2.544,-0.378 -4.452,0.006 -5.725,1.149 -0.306,0.241 -0.973,0.967 -2,2.175 -0.766,0.842 -1.533,1.442 -2.3,1.801 3.96,-4.086 6.318,-6.411 7.075,-6.976 1.02,0.196 2.062,0.479 3.125,0.851 -0.058,-0.213 -0.083,-0.396 -0.075,-0.551 l 0.175,-2.55 c 0.528,-1.68 0.895,-2.838 1.1,-3.475 l 0.525,0.124 z"
   id="path11"
   style="fill-rule:evenodd" />
</g>
<g
   id="Layer_2">
	<path
   d="m 226.774,68.772 c 0,7.833 -1.017,14.217 -3.05,19.15 -2.934,7.033 -8.166,12.917 -15.7,17.65 3.334,0.667 6.517,1.467 9.551,2.4 10.166,3.167 18.666,7.867 25.5,14.1 5.066,4.633 8.883,9.85 11.449,15.65 0.5,1.167 0.95,2.317 1.351,3.45 1.267,3.667 1.899,7.25 1.899,10.75 0,4.399 -2.274,16.999 -6.824,37.8 -0.983,7.667 -2.275,15.15 -3.875,22.45 -2.134,9.7 -4.634,19.267 -7.5,28.7 0.133,0.333 0.267,0.666 0.399,1 0.066,0.233 0.117,0.483 0.15,0.75 0.033,0.434 0.05,0.866 0.05,1.3 0,0.267 -0.05,0.533 -0.15,0.8 -0.066,0.267 -0.183,0.483 -0.35,0.65 -0.333,0.434 -0.684,0.833 -1.05,1.2 0,1.733 0.05,3.466 0.149,5.199 0.034,0.534 0,1.084 -0.1,1.65 -0.033,0.3 -0.116,0.6 -0.25,0.9 -0.066,0.166 -0.15,0.316 -0.25,0.449 -0.267,0.233 -0.517,0.483 -0.75,0.75 l -0.55,4.7 c 0.767,1.533 0.733,3.101 -0.101,4.7 -0.366,0.767 -0.75,1.55 -1.149,2.35 -0.2,0.4 -0.351,0.834 -0.45,1.301 -0.2,0.933 -0.35,1.883 -0.45,2.85 0.867,2.833 0.55,5.733 -0.95,8.7 -0.433,0.833 -0.666,1.75 -0.699,2.75 0,0.666 0.017,1.333 0.05,2 0,0.3 -0.017,0.6 -0.05,0.899 l -0.65,0.851 c 0,2.767 0.033,5.583 0.1,8.45 0,0.566 -0.1,1.116 -0.3,1.649 -0.133,0.3 -0.283,0.566 -0.45,0.8 -0.366,0.534 -0.75,1.051 -1.149,1.551 -1.566,5.8 -1.983,11.699 -1.25,17.699 0.1,0.967 -0.351,1.601 -1.351,1.9 l -0.3,1.1 1,1.75 c -0.666,4.233 -1.316,8.467 -1.95,12.7 l 0.95,0.8 -1.1,12.2 -0.75,0.8 v 3.25 c 0.066,1.901 0.1,4.035 0.1,6.4 0,10.482 -0.684,20.366 -2.05,29.65 -0.216,4.821 -1.35,13.071 -3.4,24.75 -1.966,11.1 -3.483,18.716 -4.55,22.85 -1.467,5.6 -5.05,14.8 -10.75,27.6 -0.92,2.071 -1.787,3.987 -2.6,5.75 -0.054,0.198 -0.104,0.398 -0.15,0.601 -2.6,11.233 -4.35,18.6 -5.25,22.1 -0.899,3.5 -2.533,12.017 -4.899,25.55 -2.567,11.834 -5.367,17.75 -8.4,17.75 -0.64,0 -1.273,-0.033 -1.9,-0.1 -3.731,-2.691 -6.348,-5.275 -7.85,-7.75 -3.866,-6.3 -6.617,-11.3 -8.25,-15 -0.412,-0.926 -0.821,-1.909 -1.225,-2.95 -1.566,-3.37 -2.941,-6.787 -4.125,-10.25 -1.4,-4.233 -3.017,-9.533 -4.85,-15.899 -1.677,-5.872 -2.994,-10.472 -3.95,-13.801 -0.256,-0.571 -0.523,-1.155 -0.8,-1.75 -0.292,-0.609 -0.801,-1.643 -1.525,-3.1 -0.282,-1.23 -0.516,-2.264 -0.7,-3.1 -1.446,-2.896 -3.421,-6.247 -5.925,-10.051 -6,-9.133 -9.417,-14.483 -10.25,-16.05 -0.77,-1.416 -1.511,-3.024 -2.225,-4.825 -0.617,-0.734 -1.192,-1.359 -1.725,-1.875 -0.236,-0.714 -0.411,-1.28 -0.525,-1.699 -2.125,-4.29 -3.899,-8.307 -5.325,-12.051 -5.367,-13.966 -9.283,-28.949 -11.75,-44.949 -0.21,-1.767 -0.418,-3.492 -0.625,-5.176 -0.009,-0.026 -0.017,-0.051 -0.025,-0.074 -0.377,-0.686 -0.661,-1.452 -0.85,-2.301 -0.096,-0.436 -0.162,-0.894 -0.2,-1.375 -0.211,-0.812 -0.395,-1.604 -0.55,-2.375 -0.086,-0.419 -0.17,-0.836 -0.25,-1.25 -0.277,-1.267 -0.543,-2.533 -0.8,-3.8 -0.035,-0.016 -0.068,-0.032 -0.1,-0.05 -0.633,-0.3 -0.95,-0.833 -0.95,-1.6 0,-0.56 0.142,-1.067 0.425,-1.525 -0.151,-0.853 -0.301,-1.702 -0.45,-2.55 -0.483,-0.534 -0.725,-0.843 -0.725,-0.925 0,-0.631 0.092,-1.239 0.275,-1.825 -0.515,-3.242 -0.957,-6.484 -1.325,-9.726 -0.034,-0.166 -0.05,-0.333 -0.05,-0.5 l 0.45,-0.75 0.5,-0.05 0.05,-4.35 c -0.167,-0.367 -0.283,-0.733 -0.35,-1.101 -0.066,-0.5 -0.066,-0.983 0,-1.449 0.034,-0.233 0.1,-0.467 0.2,-0.7 l -1.85,-5.101 1,-1.75 c -0.109,-0.368 -0.218,-0.735 -0.325,-1.1 -0.463,-0.3 -0.788,-0.516 -0.975,-0.65 -0.633,-0.466 -0.95,-1.1 -0.95,-1.899 0,-0.832 0.258,-1.674 0.775,-2.525 -0.435,-2.45 -0.693,-4.883 -0.775,-7.3 -0.167,-0.251 -0.25,-0.442 -0.25,-0.575 -0.066,-0.899 -0.033,-1.75 0.1,-2.55 0.018,-0.093 0.034,-0.185 0.05,-0.275 l -0.55,-3.824 c -0.467,-0.534 -0.85,-1.084 -1.15,-1.65 -0.9,-1.7 -1.167,-3.45 -0.8,-5.25 0.367,-1.8 0.417,-3.65 0.15,-5.55 -0.667,-0.432 -0.858,-1.64 -0.575,-3.625 0.283,-1.99 -0.175,-4.099 -1.375,-6.325 -1.2,-2.225 -1.317,-3.975 -0.35,-5.25 l -0.675,-4.275 c -0.021,-0.021 -0.046,-0.046 -0.075,-0.074 -0.167,-0.167 -0.517,-0.801 -1.05,-1.9 -0.633,-1.233 -0.95,-2.05 -0.95,-2.45 0,-0.899 0.2,-1.684 0.6,-2.35 0.089,-0.146 0.206,-0.312 0.35,-0.5 l -0.65,-4.175 c -0.201,-0.15 -0.334,-0.259 -0.4,-0.325 -0.8,-0.733 -1.2,-1.533 -1.2,-2.4 0,-0.562 0.217,-1.654 0.65,-3.274 v -0.025 l -0.5,-3.1 c -1.633,-1.233 -2.083,-2.801 -1.35,-4.7 0.133,-0.334 0.267,-0.667 0.4,-1 l -1.5,-6.75 c -0.297,-0.347 -0.597,-0.83 -0.9,-1.45 l -0.85,-2.2 c 0,-0.694 0.108,-1.636 0.325,-2.825 l -1.3,-5.824 c -0.178,-0.289 -0.353,-0.639 -0.525,-1.051 -0.433,-1.466 -0.65,-2.216 -0.65,-2.25 0,-0.36 0.042,-0.835 0.125,-1.425 l -1.55,-6.975 c -0.358,-0.413 -0.633,-0.796 -0.825,-1.15 -0.433,-0.733 -0.65,-1.617 -0.65,-2.65 0,-0.441 0.083,-1.032 0.25,-1.775 -0.071,-0.272 -0.138,-0.547 -0.2,-0.825 -0.43,-1.938 -0.88,-3.955 -1.35,-6.05 -5.733,-25.567 -8.6,-40.817 -8.6,-45.75 0,-3.486 0.633,-7.069 1.9,-10.75 0.387,-1.141 0.837,-2.291 1.35,-3.45 2.566,-5.8 6.383,-11.017 11.45,-15.65 6.823,-6.245 15.323,-10.945 25.5,-14.1 3.027,-0.949 6.202,-1.757 9.525,-2.425 -7.529,-4.715 -12.754,-10.59 -15.675,-17.625 -2.033,-4.933 -3.05,-11.317 -3.05,-19.15 0,-6.667 0.816,-11.333 2.45,-14 3,-4.8 8.517,-3.417 16.55,4.15 0.299,-0.088 0.975,-0.472 2.025,-1.15 -0.683,-3.084 -1.025,-7.284 -1.025,-12.6 0,-4 1.2,-7.483 3.6,-10.45 2.267,-2.8 4.9,-4.333 7.9,-4.6 1.302,-0.123 2.511,0.028 3.625,0.45 2.604,-2.117 5.062,-3.517 7.375,-4.2 0.527,-0.152 1.027,-0.252 1.5,-0.3 0.017,-4.421 1.066,-7.955 3.15,-10.6 3.667,-4.6 10.283,-6.367 19.85,-5.3 1.231,0.807 2.34,1.891 3.325,3.25 1.379,0.815 2.554,1.832 3.525,3.05 2.066,2.633 3.116,6.167 3.149,10.6 0.467,0.033 0.967,0.133 1.5,0.3 2.301,0.7 4.75,2.1 7.351,4.2 1.133,-0.433 2.35,-0.583 3.649,-0.45 3,0.267 5.634,1.8 7.9,4.6 2.4,2.967 3.6,6.45 3.6,10.45 0,5.3 -0.35,9.5 -1.05,12.6 1.066,0.667 1.75,1.05 2.05,1.15 8.034,-7.567 13.551,-8.95 16.551,-4.15 1.633,2.667 2.449,7.333 2.449,14 z"
   id="path14"
   style="fill-rule:evenodd" />
</g>
<g
   id="Layer_7">
	<path
   d="m 290.125,117.322 c -0.267,-0.233 -0.483,-0.45 -0.65,-0.65 -0.333,0.367 -0.649,0.633 -0.95,0.8 l -0.55,-0.35 c -0.467,-0.3 -0.866,-0.633 -1.2,-1 -0.366,-0.4 -0.666,-0.767 -0.899,-1.1 -0.167,0.066 -0.417,0.233 -0.75,0.5 -0.934,0.233 -1.8,-0.033 -2.601,-0.8 -0.366,-0.4 -0.733,-0.767 -1.1,-1.1 -0.967,0.2 -1.733,0.05 -2.3,-0.45 -0.167,0.1 -0.334,0.217 -0.5,0.35 -1.334,0.4 -2.566,0.133 -3.7,-0.8 -0.233,0.367 -0.517,0.717 -0.85,1.05 l -14.15,5.7 c -0.233,0.067 -5.2,2.383 -14.9,6.95 l -0.35,-0.5 c -4.3,1.633 -7.634,2.733 -10,3.3 -0.134,1 -0.684,2 -1.65,3 -0.1,0.1 -1.716,0.25 -4.85,0.45 -3.934,0.167 -7.733,0.167 -11.4,0 -11.699,-0.6 -19.666,-3.017 -23.899,-7.25 -3.134,-3.133 -4.4,-6.233 -3.8,-9.3 0.3,-1.767 1.133,-3.317 2.5,-4.65 1.166,-1.167 2.149,-1.833 2.949,-2 0.733,-0.167 1.817,0.017 3.25,0.55 7.534,2.767 13.351,4.633 17.45,5.6 8.566,3.066 14.316,5.966 17.25,8.7 0.467,0.467 0.867,0.934 1.2,1.4 1.1,-0.733 2.5,-1.667 4.2,-2.8 1.233,-0.8 2.35,-1.55 3.35,-2.25 11.033,-5.233 17.167,-8.217 18.4,-8.95 2.666,-1.433 4.066,-2.183 4.2,-2.25 1.6,-0.767 3.216,-1.233 4.85,-1.4 3.7,-0.8 5.866,-0.333 6.5,1.4 0.134,-0.133 0.25,-0.233 0.35,-0.3 0.5,-0.533 1.417,-0.433 2.75,0.3 0.567,0.3 1.067,0.633 1.5,1 0.367,0 0.867,0.167 1.5,0.5 0.267,0.1 0.5,0.217 0.7,0.35 1,-0.833 2.084,-0.667 3.25,0.5 0.566,0.5 0.934,0.983 1.101,1.45 1.066,-0.833 2.133,-0.8 3.199,0.1 0.434,0.333 0.733,0.7 0.9,1.1 0.7,-0.2 1.483,0.067 2.35,0.8 0.367,0.3 0.667,0.633 0.9,1 1.1,-1.067 2.25,-0.967 3.45,0.3 0.866,1 1.217,1.85 1.05,2.55 0.267,0 0.517,-0.05 0.75,-0.15 0.8,-0.767 1.434,-1.267 1.9,-1.5 -0.301,-0.633 -0.317,-0.983 -0.051,-1.05 0.367,0.367 0.584,0.617 0.65,0.75 0.134,0.333 0.017,0.683 -0.35,1.05 -0.334,0.367 -0.9,0.7 -1.7,1 -0.566,0.233 -1.017,0.333 -1.351,0.3 -0.033,0.066 -0.066,0.083 -0.1,0.05 l 1.05,0.9 c 0.066,0.333 -0.033,1.083 -0.3,2.25 -0.333,1.434 -0.5,2.233 -0.5,2.4 h -0.3 c -0.101,-0.3 0.017,-1.083 0.35,-2.35 0.167,-0.667 -0.25,-1.55 -1.25,-2.65 -0.133,0.1 -0.316,0.2 -0.55,0.3 -1.033,0.2 -1.967,-0.117 -2.8,-0.95 -0.267,-0.267 -0.467,-0.667 -0.601,-1.2 -0.166,0.066 -0.316,0.1 -0.449,0.1 -0.832,0.134 -1.648,-0.216 -2.448,-1.05 z"
   id="path17"
   style="fill-rule:evenodd" />
</g>
<g
   id="Layer_3">
	<path
   d="m 106.375,5.222 c 0.167,-0.1 0.267,-0.167 0.3,-0.2 1.1,-1.333 2.367,-1.184 3.8,0.45 0.034,0.034 0.067,0.05 0.1,0.05 l 0.85,-0.85 c 1.233,-1.467 2.717,-1.633 4.45,-0.5 0.6,0 1.133,-0.183 1.6,-0.55 0.5,-0.4 0.9,-0.684 1.2,-0.85 0.433,-0.3 1.017,-0.434 1.75,-0.4 1.233,0.133 2.167,0.367 2.8,0.7 0.333,-0.2 0.65,-0.383 0.95,-0.55 1.933,-1.133 3.117,-1.684 3.55,-1.65 1.534,0 2.65,0.233 3.35,0.7 1.7,-1.733 3.817,-2.033 6.35,-0.9 0.8,0.333 1.4,0.783 1.8,1.35 0.833,-0.267 1.817,-0.35 2.95,-0.25 3.433,0.3 6.7,3.033 9.8,8.2 l 3.4,2.85 c 0.267,0.1 0.566,0.083 0.9,-0.05 0.1,-0.1 0.233,-0.083 0.4,0.05 0.6,-0.267 1.05,0.083 1.35,1.05 0.467,1.367 0.217,2.617 -0.75,3.75 -0.533,0.633 -1.184,1.15 -1.95,1.55 -1.033,0.533 -1.917,0.5 -2.65,-0.1 -0.067,0 -0.1,-0.017 -0.1,-0.05 -0.2,-0.1 -0.483,-0.367 -0.85,-0.8 l -4.9,-4.1 c -2.833,-2 -4.7,-2.983 -5.6,-2.95 -0.7,0.1 -1.75,-0.45 -3.15,-1.65 -1.267,-1.067 -2.05,-2.067 -2.35,-3 -0.033,-0.033 -0.1,-0.033 -0.2,0 -1.633,-0.033 -3.067,-0.533 -4.3,-1.5 -0.367,0.6 -0.9,1.316 -1.6,2.15 -0.567,0.633 -1.6,1.117 -3.1,1.45 -1.533,0.3 -2.9,0.117 -4.1,-0.55 -0.6,0.267 -1.35,0.5 -2.25,0.7 -1.467,0.3 -2.733,0.2 -3.8,-0.3 -0.1,0.133 -0.2,0.267 -0.3,0.4 -0.467,0.533 -1.066,0.917 -1.8,1.15 -1.033,0.333 -2.067,0.133 -3.1,-0.6 -0.167,0.3 -0.383,0.6 -0.65,0.9 -0.533,0.667 -1.35,0.934 -2.45,0.8 -0.867,-0.133 -1.767,-0.5 -2.7,-1.1 -0.434,0.3 -0.983,0.533 -1.65,0.7 -1.5,0.4 -2.783,0.15 -3.85,-0.75 -0.133,0.7 -0.534,1.45 -1.2,2.25 -0.333,0.367 -1.217,0.684 -2.65,0.95 -0.8,0.133 -1.517,0.15 -2.15,0.05 -0.3,0.567 -0.733,1.184 -1.3,1.85 -0.8,0.967 -1.617,1.684 -2.45,2.15 -1,0.667 -1.934,0.883 -2.8,0.65 -0.2,0.6 -0.55,1.2 -1.05,1.8 -1.067,1.267 -2.233,2.267 -3.5,3 -1.9,1.1 -3.567,1.317 -5,0.65 -0.133,0.833 -0.55,1.667 -1.25,2.5 -0.967,1.133 -1.783,1.883 -2.45,2.25 -1.233,0.7 -2.45,0.8 -3.65,0.3 -0.167,0.667 -0.483,1.267 -0.95,1.8 -0.667,0.8 -1.75,1.367 -3.25,1.7 -2.133,0.533 -4.133,0.05 -6,-1.45 -0.066,0.167 -0.133,0.3 -0.2,0.4 -2.133,2.2 -3.7,3.2 -4.7,3 -0.167,0 -0.333,-0.066 -0.5,-0.2 -0.267,-0.233 -0.583,-0.567 -0.95,-1 -0.667,-0.833 -1.45,-2.034 -2.35,-3.6 -1.3,-2.167 -1.9,-3.317 -1.8,-3.45 0.333,-0.367 1.45,-0.816 3.35,-1.35 1.6,-0.433 2.667,-0.683 3.2,-0.75 0.933,-0.033 1.717,0.2 2.35,0.7 0.033,-0.133 0.1,-0.283 0.2,-0.45 0.467,-0.833 0.717,-1.267 0.75,-1.3 0.233,-0.233 1.35,-0.533 3.35,-0.9 2.233,-0.434 3.717,-0.317 4.45,0.35 0.033,0.033 0.083,0.083 0.15,0.15 0.233,-1.6 0.783,-2.917 1.65,-3.95 0.767,-0.9 1.8,-1.267 3.1,-1.1 1.233,0.167 2.35,0.717 3.35,1.65 0.1,0.1 0.183,0.2 0.25,0.3 0.1,-0.467 0.283,-0.967 0.55,-1.5 0.633,-1.433 1.383,-2.683 2.25,-3.75 1.1,-1.267 2.333,-1.933 3.7,-2 1.233,-0.1 2.367,0.283 3.4,1.15 0.2,0.167 0.383,0.35 0.55,0.55 0.1,-0.3 0.25,-0.684 0.45,-1.15 0.533,-1.133 0.917,-1.833 1.15,-2.1 0.633,-0.733 1.467,-1.184 2.5,-1.35 0.967,-0.133 1.8,0 2.5,0.4 0.667,-1.2 1.183,-2 1.55,-2.4 0.967,-1.167 2.317,-1.017 4.05,0.45 0.1,0.067 0.183,0.133 0.25,0.2 0.066,-0.2 0.15,-0.367 0.25,-0.5 2.1,-2.5 4.267,-3.267 6.5,-2.3 0.367,0.2 0.65,0.4 0.85,0.6 z m 119.5,23.901 c 0.033,0 0.066,-0.017 0.1,-0.05 1.934,-0.933 3.15,-0.566 3.65,1.1 0,0.033 0.05,0.15 0.149,0.35 0.334,-0.133 0.684,-0.2 1.051,-0.2 2.433,0 4.116,1.567 5.05,4.7 0.033,0.167 0.033,0.333 0,0.5 0.1,0 0.217,-0.033 0.35,-0.1 2.167,-0.633 3.467,-0.217 3.9,1.25 0.166,0.5 0.316,1.433 0.45,2.8 0.833,-0.066 1.649,0.15 2.449,0.65 0.9,0.566 1.483,1.3 1.75,2.2 0.101,0.333 0.167,1.15 0.2,2.45 0,0.467 0,0.867 0,1.2 0.2,-0.1 0.434,-0.2 0.7,-0.3 1.267,-0.367 2.45,-0.267 3.55,0.3 1.267,0.633 2.134,1.733 2.601,3.3 0.399,1.333 0.6,2.783 0.6,4.35 0.033,0.6 0,1.133 -0.1,1.6 0.1,-0.033 0.216,-0.083 0.35,-0.15 1.333,-0.467 2.583,-0.533 3.75,-0.2 1.233,0.367 2.033,1.117 2.4,2.25 0.366,1.3 0.333,2.716 -0.101,4.25 0.066,0 0.134,-0.017 0.2,-0.05 0.934,-0.3 2.35,0.184 4.25,1.45 1.7,1.133 2.583,1.85 2.65,2.15 0.033,0.033 0.116,0.533 0.25,1.5 0,0.2 0,0.367 0,0.5 0.767,-0.2 1.566,-0.1 2.399,0.3 0.467,0.233 1.334,0.883 2.601,1.95 1.566,1.233 2.433,2.083 2.6,2.55 0.033,0.167 -0.983,1 -3.05,2.5 -1.434,1.067 -2.65,1.85 -3.65,2.35 -0.467,0.267 -0.883,0.45 -1.25,0.55 -0.166,0.033 -0.35,0.033 -0.55,0 -0.967,-0.267 -1.983,-1.817 -3.05,-4.65 -0.033,-0.133 -0.066,-0.267 -0.101,-0.4 -2.267,0.6 -4.283,0.233 -6.05,-1.1 -1.233,-0.933 -2,-1.883 -2.3,-2.85 -0.2,-0.7 -0.233,-1.383 -0.1,-2.05 -1.334,0 -2.417,-0.566 -3.25,-1.7 -0.467,-0.6 -0.917,-1.633 -1.351,-3.1 -0.3,-1.033 -0.333,-1.95 -0.1,-2.75 -1.634,0 -3.084,-0.85 -4.351,-2.55 -0.866,-1.2 -1.55,-2.6 -2.05,-4.2 -0.2,-0.733 -0.283,-1.434 -0.25,-2.1 -0.866,-0.1 -1.649,-0.667 -2.35,-1.7 -0.533,-0.733 -0.983,-1.716 -1.351,-2.95 -0.233,-0.833 -0.383,-1.567 -0.449,-2.2 -0.601,-0.2 -1.25,-0.5 -1.95,-0.9 -1.2,-0.8 -1.884,-1.45 -2.05,-1.95 -0.301,-0.966 -0.367,-1.8 -0.2,-2.5 -1.334,0.367 -2.617,0.067 -3.851,-0.9 -0.5,-0.4 -0.899,-0.833 -1.199,-1.3 -1.101,0.2 -2.084,0.183 -2.95,-0.05 -1.033,-0.3 -1.667,-0.867 -1.9,-1.7 -0.1,-0.4 -0.166,-0.767 -0.2,-1.1 -1.267,0.233 -2.3,0 -3.1,-0.7 -0.6,-0.466 -1,-1.033 -1.2,-1.7 -0.033,-0.167 -0.083,-0.333 -0.149,-0.5 -1.134,0.033 -2.334,-0.4 -3.601,-1.3 -0.733,-0.533 -1.316,-1.033 -1.75,-1.5 -1.366,0.1 -2.7,-0.283 -4,-1.15 -1.233,-0.9 -1.983,-1.767 -2.25,-2.6 -0.3,-1 -0.5,-1.85 -0.6,-2.55 -1.5,0.367 -3.017,0.233 -4.55,-0.4 -0.067,-0.033 -0.134,-0.067 -0.2,-0.1 -0.634,0.767 -1.75,1.4 -3.351,1.9 -1.767,0.533 -2.949,0.617 -3.55,0.25 -0.8,-0.433 -2.899,-0.3 -6.3,0.4 l -6.15,1.85 c -0.5,0.267 -0.866,0.4 -1.1,0.4 -0.033,0 -0.05,-0.017 -0.05,-0.05 -0.9,0.267 -1.75,-0.05 -2.55,-0.95 -0.5,-0.633 -0.884,-1.35 -1.15,-2.15 -0.4,-1.4 -0.134,-2.633 0.8,-3.7 0.7,-0.8 1.267,-0.934 1.7,-0.4 0.167,-0.066 0.3,-0.05 0.4,0.05 0.199,0.2 0.466,0.333 0.8,0.4 l 4.2,-1.3 c 4.933,-3.467 9.033,-4.65 12.3,-3.55 1.033,0.333 1.899,0.8 2.6,1.4 0.601,-0.367 1.351,-0.533 2.25,-0.5 2.733,-0.033 4.517,1.083 5.351,3.35 0.833,-0.167 1.966,0.033 3.399,0.6 0.4,0.167 1.267,1.167 2.601,3 0.233,0.267 0.449,0.567 0.649,0.9 0.733,-0.1 1.7,0.067 2.9,0.5 0.633,0.267 1.116,0.6 1.45,1 0.199,0.3 0.416,0.733 0.649,1.3 0.3,0.466 0.733,0.833 1.3,1.1 2.034,-0.3 3.334,0.45 3.9,2.25 l 0.456,1.15 z"
   id="path20"
   style="fill-rule:evenodd" />
</g>
</svg>