<?xml version="1.0" standalone="no"?>
<!DOCTYPE svg PUBLIC "-//W3C//DTD SVG 20010904//EN"
 "http://www.w3.org/TR/2001/REC-SVG-20010904/DTD/svg10.dtd">
<svg version="1.0" xmlns="http://www.w3.org/2000/svg"
 width="1536.000000pt" height="1130.000000pt" viewBox="0 0 1536.000000 1130.000000"
 preserveAspectRatio="xMidYMid meet">
<metadata>
Created by potrace 1.16, written by Peter Selinger 2001-2019
</metadata>
<g transform="translate(0.000000,1130.000000) scale(0.100000,-0.100000)"
fill="#000000" stroke="none">
<path d="M6655 11285 c-60 -7 -184 -16 -275 -20 -94 -5 -182 -14 -204 -21 -21
-8 -62 -14 -90 -14 -28 0 -84 -9 -125 -20 -41 -11 -95 -20 -120 -20 -85 0
-235 -29 -306 -59 -38 -16 -115 -41 -170 -55 -56 -14 -119 -33 -140 -42 -22
-9 -66 -20 -99 -25 -57 -8 -95 -28 -186 -100 -14 -10 -51 -23 -83 -29 -34 -5
-70 -19 -90 -34 -19 -15 -60 -35 -91 -46 -34 -11 -81 -39 -114 -67 -32 -27
-82 -65 -113 -86 -31 -21 -64 -46 -74 -57 -9 -10 -52 -33 -94 -50 -51 -20 -98
-48 -132 -79 -30 -26 -92 -72 -139 -101 -47 -29 -102 -66 -123 -82 -22 -18
-66 -37 -105 -47 -106 -28 -115 -34 -252 -199 -31 -38 -65 -68 -84 -75 -17 -6
-69 -30 -116 -54 -57 -30 -111 -49 -165 -59 -121 -22 -470 -72 -560 -80 -120
-10 -155 -34 -155 -106 0 -75 -45 -94 -305 -128 -184 -24 -247 -41 -275 -77
-40 -51 -14 -133 43 -133 13 0 32 -6 42 -14 18 -13 18 -14 -3 -25 -11 -6 -35
-11 -52 -11 -47 0 -90 -47 -90 -99 0 -22 -5 -43 -12 -47 -7 -4 -76 -13 -154
-20 -110 -9 -157 -18 -207 -38 -36 -14 -96 -33 -133 -42 -45 -10 -91 -30 -134
-58 -36 -24 -122 -73 -192 -110 -103 -54 -133 -75 -155 -108 -42 -61 -69 -77
-176 -98 -108 -22 -135 -33 -223 -96 -64 -45 -113 -109 -139 -183 -20 -58 -20
-192 2 -361 l17 -136 -42 -70 c-23 -38 -52 -101 -65 -139 -31 -90 -69 -165
-97 -190 -36 -32 -68 -96 -84 -165 -19 -77 -22 -344 -5 -405 15 -56 78 -112
186 -168 l91 -47 249 0 c286 0 347 8 598 75 94 25 215 57 270 70 56 13 132 35
169 49 38 15 96 33 130 42 34 8 115 39 181 69 142 64 369 129 750 215 99 23
216 50 260 62 44 11 112 26 150 33 142 25 282 112 458 284 l128 125 72 8 c40
4 97 7 127 7 77 1 126 17 168 55 35 31 43 34 132 40 52 4 141 16 198 27 122
23 152 24 177 5 18 -13 15 -19 -55 -117 -41 -57 -95 -135 -120 -172 -38 -58
-54 -72 -105 -97 -33 -15 -75 -31 -93 -35 -99 -21 -407 -170 -492 -239 -37
-30 -144 -105 -236 -166 -109 -72 -192 -136 -234 -178 -36 -37 -89 -86 -118
-110 -40 -33 -52 -50 -52 -71 0 -26 15 -51 32 -51 4 0 45 34 90 75 91 83 220
157 343 195 39 13 117 38 175 57 85 27 131 36 240 44 74 5 189 16 255 25 66 8
182 19 258 24 150 11 166 16 242 80 70 58 90 67 177 75 62 5 84 12 112 33 19
15 72 56 117 91 119 92 283 236 369 327 42 44 114 112 162 152 102 85 198 211
222 291 9 29 19 83 22 120 10 97 17 109 76 135 89 39 328 114 419 131 48 9
118 25 155 36 38 10 116 26 174 34 58 8 147 25 198 37 l93 22 357 -17 c196
-10 488 -23 647 -28 160 -5 326 -13 370 -17 71 -6 80 -9 83 -28 2 -17 -24 -42
-131 -122 -218 -164 -249 -211 -250 -371 0 -82 5 -114 37 -220 20 -69 41 -156
47 -195 5 -39 23 -106 39 -149 17 -44 32 -102 34 -135 1 -31 9 -68 16 -82 7
-13 30 -76 50 -140 58 -177 117 -321 149 -365 121 -163 201 -311 201 -371 0
-14 -11 -51 -25 -84 -14 -33 -25 -69 -25 -80 0 -12 -9 -66 -21 -122 -27 -131
-30 -225 -7 -260 9 -14 59 -57 110 -95 132 -100 191 -172 266 -328 36 -74 109
-145 150 -145 16 0 42 12 62 30 19 16 42 29 51 30 27 0 133 -84 187 -148 65
-79 105 -150 137 -247 24 -70 27 -90 22 -163 -6 -89 0 -119 33 -152 27 -27 52
-25 90 6 45 38 62 79 61 143 -1 77 -95 408 -132 464 -34 51 -144 166 -218 226
-29 24 -62 58 -72 75 -34 56 -18 126 30 126 45 0 417 -334 537 -482 47 -59 65
-72 142 -109 193 -91 329 -200 385 -307 36 -69 64 -92 110 -92 31 0 62 24 77
60 18 43 -7 103 -80 193 -112 138 -196 212 -299 262 -129 63 -199 113 -267
191 -117 133 -209 226 -269 269 -82 60 -254 247 -266 287 -16 56 -11 123 11
151 45 57 311 183 490 232 163 45 211 107 128 166 -65 47 -196 29 -450 -61
-32 -11 -66 -20 -77 -20 -50 0 -133 154 -251 470 -36 96 -226 486 -242 496 -5
3 -29 47 -53 98 -24 50 -59 110 -77 134 -50 66 -31 83 176 162 67 25 150 66
186 90 36 24 144 83 241 131 163 81 345 199 389 254 41 50 152 135 177 135 15
0 58 -19 97 -42 l70 -43 111 0 c61 0 136 6 168 14 48 12 72 12 156 1 118 -15
314 -9 475 15 86 13 151 16 305 11 342 -9 404 -21 590 -108 58 -27 144 -66
190 -85 47 -19 94 -41 105 -48 12 -8 49 -22 84 -31 47 -13 77 -30 118 -66 72
-63 146 -110 266 -170 53 -26 125 -69 160 -96 35 -26 87 -62 116 -78 59 -34
213 -160 342 -279 47 -44 114 -104 149 -134 35 -30 106 -108 159 -175 53 -67
121 -148 152 -181 72 -77 193 -224 208 -251 6 -12 39 -55 73 -95 65 -78 96
-123 131 -192 12 -23 36 -64 53 -92 70 -112 156 -288 204 -420 29 -77 63 -167
77 -200 14 -33 34 -96 44 -140 10 -44 30 -107 44 -141 14 -33 32 -101 41 -150
8 -49 26 -129 40 -179 18 -65 25 -115 25 -180 0 -49 5 -133 12 -186 17 -141
-16 -698 -51 -864 -11 -49 -22 -111 -26 -138 -3 -26 -18 -73 -32 -105 -14 -31
-38 -98 -54 -149 -16 -51 -43 -120 -59 -155 -17 -35 -30 -72 -30 -83 0 -11
-12 -45 -26 -75 -14 -30 -37 -86 -51 -125 -14 -38 -57 -128 -95 -199 -38 -72
-85 -176 -105 -233 -19 -57 -50 -127 -69 -155 -18 -29 -43 -73 -54 -98 -43
-90 -114 -226 -146 -282 -19 -32 -50 -84 -69 -116 -19 -32 -48 -98 -65 -145
-18 -47 -45 -103 -61 -123 -15 -20 -50 -73 -75 -117 -26 -45 -69 -111 -96
-146 -27 -35 -65 -95 -84 -133 -19 -38 -56 -95 -81 -126 -26 -31 -62 -91 -81
-132 -18 -41 -51 -97 -72 -125 -47 -61 -172 -261 -256 -410 -180 -320 -181
-321 -144 -368 28 -35 55 -34 111 3 131 87 226 179 297 288 20 32 77 100 127
152 59 62 111 130 149 195 43 73 88 130 166 210 105 109 140 156 214 288 20
37 59 96 85 130 27 34 56 78 66 97 9 19 43 67 75 106 54 66 160 225 160 240 0
10 206 365 278 479 39 63 83 149 102 200 18 50 55 128 82 175 27 47 97 180
154 296 90 182 107 222 115 285 7 50 25 105 54 169 95 209 136 354 189 671 57
336 64 526 35 1009 -13 228 -27 308 -119 685 -42 175 -165 498 -258 681 -29
56 -63 131 -77 167 -13 37 -40 88 -59 114 -18 26 -68 112 -109 191 -42 78 -89
161 -105 185 -15 23 -41 65 -57 92 -15 28 -47 73 -69 100 -57 68 -197 249
-286 370 -141 189 -284 358 -338 399 -30 23 -77 60 -104 84 -27 23 -53 42 -58
42 -5 0 -85 76 -177 169 -164 164 -308 282 -429 352 -32 18 -98 70 -146 115
-102 93 -194 162 -368 270 -41 26 -93 64 -115 85 -22 20 -67 51 -101 67 -34
17 -75 42 -92 57 -16 14 -48 32 -71 40 -22 7 -63 32 -90 53 -29 23 -80 50
-118 63 -153 50 -361 173 -510 300 -17 15 -55 35 -85 44 -29 10 -71 30 -93 45
-61 42 -156 87 -237 114 -100 33 -317 120 -389 157 -33 16 -82 34 -110 39 -28
5 -76 25 -107 45 -31 19 -76 41 -98 49 -70 24 -186 95 -245 149 -141 132 -175
157 -310 234 -189 108 -339 179 -416 198 -35 9 -118 20 -185 25 -68 5 -139 13
-158 19 -19 6 -73 11 -120 11 -100 0 -186 19 -282 61 -39 17 -110 41 -159 53
-48 12 -106 35 -129 50 -25 16 -91 40 -173 61 -143 37 -347 104 -407 135 -21
11 -85 26 -143 35 -59 9 -128 23 -154 32 -46 15 -138 21 -603 37 -63 2 -164
-2 -225 -9z"/>
</g>
</svg>
