<?xml version="1.0" encoding="UTF-8" standalone="no"?>
<!-- Created with Inkscape (http://www.inkscape.org/) -->

<svg
   xmlns:svg="http://www.w3.org/2000/svg"
   xmlns="http://www.w3.org/2000/svg"
   version="1.1"
   width="100%"
   height="100%"
   viewBox="0 0 424.7 175"
   id="svg2"
   xml:space="preserve"><defs
   id="defs10" />
<g
   id="Layer_1">
</g>
<g
   id="Layer_2">
	<path
   d="m 8.3,118.3 c 0,0.5 3.6,1 5.9,1.2 3,0.2 5.5,-0.1 7.1,-0.4 0,0 0.1,0 0.1,0 8.1,-1.5 16.5,-1.7 24.7,-2.9 4.6,-0.7 16.8,-2.6 31.5,-3.5 9.3,-0.6 18.9,-0.8 30.1,0.6 4.4,0.5 10.4,1.5 10.4,2 0,0.3 -3.4,0.2 -9.8,0.2 -10.8,0.1 -16.3,0.1 -19.6,1.6 -2.3,1 -4.4,2.4 -8.8,3.7 -2.7,0.8 -4.5,1.1 -4.5,1.4 0,0.5 5.1,0.2 11.9,0.2 7.4,0 11.7,0 17,0.8 2.5,0.4 6.5,1.3 14.5,3.3 11.3,2.8 10.9,3 14.3,3.5 2.3,0.4 7.2,0.6 17,1.2 8.7,0.5 11.1,0.4 13.9,-0.2 0.8,-0.2 2.7,-0.7 5.5,-1 1.6,-0.2 3.7,-0.4 6.5,-0.2 0.9,0.1 3.5,0.3 6.1,1.2 3.7,1.3 5.4,3.2 8.6,5.9 1.8,1.5 4.8,3.5 11,7.6 5.7,3.8 4.6,2.7 12.7,7.8 5,3.2 10.6,5.2 15.8,7.8 0.5,0.2 1.7,0.9 2.3,0.4 0.5,-0.4 0.3,-1.6 0.2,-2 -0.7,-3 -6.6,-9 -10.7,-12.8 -1.2,-1.1 -2,-1.8 -3.8,-3.4 -1.7,-1.6 -1.2,-1.3 -3.3,-3.3 -2.5,-2.4 -4.1,-3.1 -3.9,-3.7 0.3,-1 5.2,-0.1 10.4,0.6 8.9,1.1 15.8,1.3 15.8,1.2 0,0 -1,-0.2 -10.9,-1.4 -2.9,-0.4 -5.8,-0.9 -8.7,-1.2 -1.4,-0.1 -3.7,-0.3 -6.7,-1.3 -0.9,-0.3 -1.6,-0.6 -2.2,-0.9 -3.3,-1.5 -7.4,-4.1 -7.1,-5 0.2,-0.4 1.2,-0.2 2.6,-0.1 3.5,0.2 5.1,-0.7 9.4,-1.2 1.8,-0.2 6.4,-0.7 11.2,-1 11.5,-0.7 12.6,0.7 21.5,-0.4 6.6,-0.8 9.4,-1.9 11,-2.7 3,-1.5 3.2,-2.4 6.3,-3.5 1.8,-0.7 6.9,-2.6 11,-0.2 1,0.6 1.6,1.3 2.9,2.7 2.3,2.5 3.3,4.7 4.1,6.1 1.4,2.5 1.6,1.8 8.4,9.2 3.9,4.2 5.8,6.4 7.2,8.4 2.3,3.3 3,5.3 3.7,5.1 1.2,-0.3 1.4,-5.4 0.4,-10 -0.7,-3 -1.3,-3.1 -2.5,-7.6 -1,-3.6 -1.1,-5.7 -1.2,-6.8 -0.1,-2.8 -0.2,-4.5 0.8,-6.3 0.8,-1.4 2.1,-2.3 5.5,-3.7 5.2,-2.1 9.2,-2.5 13.1,-3.3 4.2,-0.8 6.4,-2.4 10.6,-2.7 2.8,-0.3 4.5,0.1 5.7,1 0.3,0.3 1,0.9 2.3,2 1.2,0.9 1.2,1.1 1.6,1.2 1.1,0.2 3.2,-0.7 5.3,-2.3 2.2,-1.7 5.1,-3.3 5.9,-4.9 0.6,-1.2 -3.2,-0.2 -2.5,-1.2 0.9,-1.4 2.4,-0.6 5.5,-2.2 0.5,-0.3 1.6,-0.9 3.1,-0.8 0,0 0.3,0 0.6,0 2.4,0.4 3.8,2.7 4.5,3.9 4.4,7.3 6.7,13.1 6.7,13.1 0.4,0.9 3.1,7.9 6.1,14.1 2.8,5.8 5.4,10.1 6.5,11.7 6.2,9.9 11.2,14.5 15.5,17.2 1,0.6 4.9,3.1 5.9,2.2 0.5,-0.5 0.1,-1.8 0,-2.2 -0.6,-1.9 -2.2,-2.9 -2.5,-3.1 -3.6,-2.4 -5.7,-13.5 -9.6,-24.5 -3,-8.5 -6.1,-14.7 -6.1,-14.7 -3.2,-6.5 -5.6,-10 -4.7,-14.7 0.1,-0.5 0.1,-0.1 2,-6.5 1.4,-4.6 1.7,-5.7 1.6,-7.2 -0.2,-2.7 -1.2,-3.2 -1.4,-5.7 -0.2,-3 1.1,-5.3 2,-6.8 8.2,-14.9 5.6,-12.5 12.9,-23.7 5.3,-8 7.9,-11.9 10.4,-14.7 1.3,-1.4 7.7,-8.4 9.2,-11.7 0.2,-0.5 0.7,-1.9 2,-3.3 0.9,-1.1 1.7,-1.6 1.6,-1.8 -0.2,-0.4 -4.3,1.2 -6.3,2.2 -7.8,3.6 -14.1,9.7 -19.8,16.2 -6.8,7.8 -4.4,6.6 -13.9,18.2 -7.4,9.1 -10,11.2 -11.5,15.5 -0.2,0.5 -1.3,3.6 -3.9,6.7 -2,2.3 -3.5,2.9 -3.9,3.1 -0.8,0.3 -1.4,0.3 -6.5,0 -2.7,-0.2 -4.1,-0.2 -4.1,-0.6 -0.1,-0.5 2.8,-0.7 2.9,-1.8 0.1,-0.7 -1,-1.2 -4.1,-3.1 -3.9,-2.4 -4.8,-3.2 -6.3,-2.9 -0.6,0.1 -1.2,0.5 -2.3,1.4 -2.2,1.5 -2.6,2.6 -4.5,3.5 -0.3,0.2 -0.7,0.3 -0.7,0.3 0,0 -0.7,0.3 -1.5,0.5 -2.7,0.6 -61.6,-6.5 -61.6,-6.5 -0.4,-0.1 -1.6,-0.2 -3.2,-0.5 -6.8,-1.2 -11.7,-3.3 -13.4,-3.8 -17.3,-5 -26,-7.5 -32.5,-8.8 -3,-0.6 -6.4,-1.2 -10.2,-3.7 -5.2,-3.5 -7.7,-8.4 -8.8,-10.6 -1.6,-3.2 -3.2,-6.5 -2.7,-10.6 0.2,-2.3 0.9,-2.9 1.4,-6.7 0.2,-1.9 0.5,-4.2 0,-7 -0.3,-1.7 -0.7,-2.1 -2.7,-7.4 -0.8,-2.1 -0.7,-2.3 -1.6,-4.1 -0.8,-1.8 -1.5,-3.1 -2.3,-3.1 -0.7,0 -1.1,1.1 -2.2,2.7 -1.2,2 -1.7,2.2 -3.5,4.5 -7.6,9.7 -13.9,20 -13.9,20 -2.1,4.2 -7.8,12.7 -11.9,22.3 -1.8,4.3 -4.8,8.1 -6.3,12.5 -0.3,0.9 -1.1,3.3 -3.3,5.3 -1.2,1.1 -2.4,1.5 -2.8,1.7 -3.2,1.3 -29.7,12.9 -39.7,20.6 0,0 -4.2,3.3 -9.7,5.7 -1.7,0.7 -3.4,1.2 -3.4,1.2 l 0,0 c -34.1,4.7 -49.6,6.7 -57.3,7.6 -8.7,1 -17.2,2.9 -26,3.5 -1.9,-0.1 -5.4,0.1 -5.4,0.6 z"
   id="path6" />
</g>
</svg>