<?xml version="1.0" encoding="UTF-8" standalone="no"?>
<!-- Created with Inkscape (http://www.inkscape.org/) -->

<svg
   xmlns:svg="http://www.w3.org/2000/svg"
   xmlns="http://www.w3.org/2000/svg"
   version="1.2"
   width="83.336998"
   height="134.35001"
   viewBox="0 0 83.337 134.35"
   id="Layer_2"
   xml:space="preserve"
   style="overflow:inherit"><defs
   id="defs7" />
<path
   d="m 2.418,34.25 c 1.267,-7.6 3.517,-13.85 6.75,-18.75 0.967,-1.5 2.033,-2.883 3.2,-4.15 0.534,-0.8 1.133,-1.567 1.8,-2.3 C 19.636,3.016 28.503,0 40.769,0 c 13.966,0.004 24.033,3.913 30.2,11.725 4.951,5.733 8.268,13.608 9.949,23.625 2.733,8.933 3.15,14.55 1.25,16.85 -0.583,0.568 -1.166,0.077 -1.75,-1.475 -1.955,-1.244 -4.455,-1.702 -7.5,-1.375 -5.166,1.633 -7.833,1.633 -8,0 -1.5,0.367 -2.899,0.433 -4.199,0.2 0.699,1.133 0.699,2.1 0,2.9 2.733,-0.367 4.583,0.033 5.55,1.2 1.814,-0.053 3.298,0.38 4.45,1.3 5.733,-0.2 8.75,3.05 9.05,9.75 -1.267,0.6 -2.75,0.683 -4.45,0.25 1.566,1.833 2.233,3.633 2,5.399 -0.819,0.322 -1.752,0.222 -2.8,-0.3 0.74,0.719 0.707,2.635 -0.101,5.75 -0.284,0.044 -1.034,-0.223 -2.25,-0.8 0.509,1.844 0.775,3.186 0.801,4.025 0.027,0.834 0.035,1.309 0.024,1.425 -0.427,0.13 -1.168,-0.12 -2.225,-0.75 0.467,1.633 0.467,2.934 0,3.899 -1.033,0.367 -1.884,0.15 -2.55,-0.649 0.6,1.6 0.666,3.033 0.199,4.3 -0.8,0.1 -1.6,-0.116 -2.399,-0.65 0.142,1.4 -0.158,2.384 -0.9,2.95 l -0.2,-0.149 c -0.292,-0.198 -0.775,-0.348 -1.449,-0.45 -0.856,-0.133 -1.923,-0.717 -3.2,-1.75 -0.733,0.3 -1.65,0.3 -2.75,0 0.326,0.89 0.601,1.739 0.825,2.55 h 0.024 c 0.434,1.934 0.584,3.634 0.45,5.1 -1.366,-1.199 -2.533,-1.866 -3.5,-2 0.967,2.967 1.384,4.884 1.25,5.75 -1.4,-0.833 -2.917,-1.3 -4.55,-1.399 0.467,2.166 0.666,4.366 0.6,6.6 -1.467,-2.733 -3.017,-4.35 -4.649,-4.85 1.066,5 0.449,9.733 -1.851,14.2 l -2.55,7.75 c -1,2.6 -1.817,5.383 -2.45,8.35 -0.267,3.267 -0.583,4.967 -0.95,5.1 -0.367,-0.133 -0.583,-1.833 -0.65,-5.1 -0.434,-2.967 -1.05,-5.75 -1.85,-8.35 l -2.05,-7.75 c -1.566,-4.367 -1.85,-9.101 -0.85,-14.2 -1.7,0.5 -3.467,1.95 -5.3,4.35 0.3,-1.899 0.75,-3.934 1.35,-6.1 -1.633,0.1 -3.167,0.283 -4.6,0.55 -0.1,-0.3 0.434,-1.934 1.6,-4.9 -0.967,0.134 -2.117,0.551 -3.45,1.25 -0.133,-1.1 0.083,-2.55 0.65,-4.35 h -0.025 c 0.215,-0.785 0.49,-1.635 0.825,-2.55 -1.1,0.3 -2.017,0.3 -2.75,0 -1.267,1.033 -2.333,1.616 -3.2,1.75 -0.667,0.1 -1.017,0.2 -1.05,0.3 -1.133,-0.366 -1.633,-1.25 -1.5,-2.65 l -2.4,0.65 c -0.467,-1.267 -0.6,-2.616 -0.4,-4.05 0.062,-0.551 -0.588,-0.418 -1.95,0.399 -0.467,-0.966 -0.467,-2.267 0,-3.899 -1.067,0.633 -1.617,0.85 -1.65,0.649 -0.4,-0.033 -0.583,-0.466 -0.55,-1.3 0.034,-0.866 0.3,-2.217 0.8,-4.05 -1.2,0.566 -1.95,0.616 -2.25,0.15 -0.8,-2.667 -0.833,-4.367 -0.1,-5.101 -1.033,-0.362 -1.85,-0.379 -2.45,-0.05 -0.466,-1.533 -0.2,-3.3 0.8,-5.3 h -3.6 c 0.04,-0.835 0.531,-2.635 1.475,-5.4 0.94,-2.771 4.049,-4.22 9.325,-4.35 0.793,-0.934 2.143,-1.367 4.05,-1.3 0.041,-0.445 0.608,-0.812 1.7,-1.1 1.084,-0.291 1.917,-0.324 2.5,-0.1 -0.7,-0.8 -0.816,-1.767 -0.35,-2.9 -1.023,0.226 -2.257,0.167 -3.7,-0.175 V 49.4 c -0.249,-0.199 -0.541,0.001 -0.875,0.6 -0.338,0.599 -1.563,0.583 -3.675,-0.05 -2.104,-0.633 -3.304,-1.017 -3.6,-1.15 -3.033,-0.533 -5.533,-0.233 -7.5,0.9 -0.6,1.5 -1.184,1.95 -1.75,1.35 -1.899,-2.433 -1.483,-8.033 1.25,-16.8 z"
   id="path3"
   style="fill-rule:evenodd" />
</svg>