<?xml version="1.0" standalone="no"?>
<!DOCTYPE svg PUBLIC "-//W3C//DTD SVG 20010904//EN"
 "http://www.w3.org/TR/2001/REC-SVG-20010904/DTD/svg10.dtd">
<svg version="1.0" xmlns="http://www.w3.org/2000/svg"
 width="1236.000000pt" height="1536.000000pt" viewBox="0 0 1236.000000 1536.000000"
 preserveAspectRatio="xMidYMid meet">
<metadata>
Created by potrace 1.16, written by Peter Selinger 2001-2019
</metadata>
<g transform="translate(0.000000,1536.000000) scale(0.100000,-0.100000)"
fill="#000000" stroke="none">
<path d="M85 15295 c-5 -47 -18 -89 -46 -144 -37 -75 -39 -83 -39 -176 0 -93
1 -100 35 -154 71 -118 120 -247 200 -532 98 -350 115 -392 243 -579 129 -189
156 -257 217 -552 67 -323 101 -404 300 -724 137 -219 223 -381 293 -549 28
-66 85 -203 127 -305 95 -228 179 -399 253 -510 72 -109 211 -253 300 -310 67
-43 70 -47 76 -94 10 -71 35 -130 100 -231 52 -83 96 -190 96 -236 0 -10 35
-61 78 -111 100 -120 189 -253 347 -518 71 -118 184 -300 251 -405 67 -104
144 -231 173 -281 52 -93 124 -263 136 -321 6 -29 4 -33 -22 -40 -29 -8 -215
-9 -583 -2 -240 4 -276 -1 -459 -77 -291 -121 -481 -246 -536 -354 -54 -107
-58 -133 -64 -485 l-6 -330 -88 -130 c-156 -229 -209 -369 -209 -550 1 -122
10 -157 43 -166 13 -4 68 -7 122 -8 127 -1 215 21 413 105 247 105 367 124
542 88 285 -59 530 -240 937 -694 368 -410 542 -564 726 -642 96 -40 158 -48
279 -37 132 12 186 2 320 -61 157 -74 341 -105 965 -160 414 -38 595 -60 790
-99 228 -46 206 -34 237 -127 78 -231 50 -438 -86 -628 -59 -82 -190 -206
-376 -355 -225 -180 -358 -319 -524 -548 -135 -186 -232 -297 -308 -348 -29
-20 -40 -36 -53 -82 -57 -199 -169 -424 -400 -809 -204 -339 -269 -457 -328
-594 -68 -160 -67 -152 -6 -122 51 26 55 26 261 24 l209 -3 104 213 c112 230
219 479 267 623 16 50 49 171 73 270 122 503 158 555 711 1032 77 67 214 202
305 300 265 288 380 394 518 477 l61 37 77 -40 c419 -220 490 -564 227 -1093
-73 -146 -173 -304 -464 -733 -267 -395 -690 -1029 -930 -1395 -63 -96 -182
-265 -264 -375 -278 -371 -351 -506 -332 -608 l7 -37 90 0 90 0 97 98 c186
187 373 443 545 747 46 83 188 353 314 600 126 248 257 492 292 544 126 189
373 497 664 829 323 369 410 521 411 717 0 154 -34 251 -168 484 -47 82 -98
176 -112 208 -35 77 -64 195 -64 255 l0 48 98 0 98 0 28 66 c58 132 150 224
291 293 100 49 189 77 435 137 201 48 219 56 440 177 111 61 274 94 685 142
121 14 299 39 395 55 608 104 762 103 1525 -10 363 -54 542 -75 713 -86 l112
-7 0 61 0 60 -65 61 c-83 77 -189 129 -432 212 -181 61 -183 62 -207 103 -33
57 -122 139 -187 171 -82 42 -147 62 -331 100 -396 84 -468 130 -628 409 -122
213 -201 284 -348 315 -94 20 -153 14 -287 -29 -163 -52 -236 -53 -450 -8
-126 26 -173 31 -296 32 l-146 1 -38 34 c-58 50 -140 101 -235 142 -98 44
-104 54 -96 154 8 94 45 166 145 285 98 116 130 179 138 269 l6 67 48 18 c80
28 162 113 254 266 84 139 144 205 232 255 26 15 131 64 232 109 101 44 188
88 192 96 4 8 24 51 45 95 30 65 52 95 118 160 44 44 129 111 187 150 l106 69
98 236 c54 129 120 294 146 366 59 160 230 762 266 934 33 162 38 347 10 428
-24 67 -104 155 -198 217 -266 177 -856 356 -1309 396 -644 57 -1553 -161
-2317 -555 -211 -109 -333 -192 -468 -316 -136 -125 -216 -186 -370 -280 -239
-145 -276 -174 -490 -379 -174 -166 -250 -230 -323 -269 -128 -69 -215 -65
-321 13 -78 58 -132 132 -166 230 -40 117 -124 299 -218 475 -46 85 -118 218
-159 295 -141 263 -232 493 -279 705 l-23 105 -76 76 c-122 120 -199 249 -330
544 -74 167 -142 304 -187 373 -19 30 -91 111 -162 180 -138 137 -135 133
-349 487 -380 630 -508 762 -1132 1165 -316 203 -407 267 -595 416 -432 341
-595 444 -840 530 -73 26 -95 28 -256 32 l-177 4 -7 -67z"/>
</g>
</svg>
