<?xml version="1.0" standalone="no"?>
<!DOCTYPE svg PUBLIC "-//W3C//DTD SVG 20010904//EN"
 "http://www.w3.org/TR/2001/REC-SVG-20010904/DTD/svg10.dtd">
<svg version="1.0" xmlns="http://www.w3.org/2000/svg"
 width="2887.000000pt" height="1908.000000pt" viewBox="0 0 2887.000000 1908.000000"
 preserveAspectRatio="xMidYMid meet">
<metadata>
Created by potrace 1.16, written by Peter Selinger 2001-2019
</metadata>
<g transform="translate(0.000000,1908.000000) scale(0.100000,-0.100000)"
fill="#000000" stroke="none">
<path d="M12605 19051 c-446 -79 -607 -124 -735 -202 -239 -146 -331 -201
-505 -301 -218 -125 -441 -240 -568 -292 -48 -20 -201 -89 -340 -153 -357
-164 -384 -175 -662 -275 -663 -238 -1097 -383 -1355 -449 -124 -32 -164 -39
-625 -99 -335 -44 -1421 -194 -1522 -210 -188 -30 -404 -83 -756 -184 -161
-47 -339 -96 -397 -111 -107 -27 -451 -138 -706 -227 l-141 -49 -57 -90 c-56
-87 -59 -93 -76 -207 -10 -64 -23 -178 -29 -252 -20 -236 -32 -321 -67 -485
-61 -288 -91 -376 -257 -745 -262 -584 -540 -1179 -663 -1420 l-74 -145 -571
-450 c-314 -247 -682 -542 -817 -655 -135 -113 -315 -263 -401 -335 -85 -71
-177 -157 -204 -190 -27 -33 -164 -217 -305 -410 -339 -463 -423 -575 -505
-669 -118 -137 -194 -321 -238 -575 -39 -229 -35 -377 12 -508 17 -48 37 -74
113 -148 50 -49 147 -133 214 -185 157 -121 822 -599 967 -694 238 -157 550
-316 753 -382 57 -19 293 -86 525 -149 232 -63 483 -135 557 -160 273 -92 510
-150 710 -175 47 -5 195 -17 330 -25 135 -8 378 -24 540 -36 265 -19 318 -20
520 -9 379 19 1037 72 1852 150 l417 40 663 164 c757 188 1626 408 1963 498
l229 62 396 196 c306 153 457 235 668 364 l274 167 401 -247 c281 -173 507
-303 752 -432 832 -439 933 -498 1212 -719 83 -66 178 -137 212 -157 97 -59
241 -124 328 -147 76 -20 85 -21 166 -7 l85 14 93 -53 c133 -74 319 -157 424
-187 117 -34 455 -103 570 -116 149 -17 224 -13 275 13 70 35 83 68 88 215 4
114 3 126 -17 152 -11 16 -21 32 -21 36 0 3 82 4 183 2 170 -4 195 -7 372 -47
548 -123 965 -244 1210 -353 137 -61 294 -162 976 -624 l255 -174 161 -182
c313 -357 368 -426 654 -818 219 -300 310 -438 350 -529 62 -145 167 -479 174
-556 10 -112 -13 -954 -35 -1249 -10 -148 -22 -327 -26 -398 l-7 -129 -66 -31
c-443 -204 -484 -218 -791 -263 -270 -39 -394 -66 -422 -91 -46 -42 -2 -106
97 -143 33 -12 74 -31 90 -41 17 -10 65 -30 107 -44 91 -31 183 -34 270 -10
56 16 64 16 138 -1 73 -17 82 -17 143 -2 41 11 105 17 174 16 74 0 133 6 188
20 44 11 82 18 84 16 2 -3 27 -98 56 -212 50 -199 120 -447 152 -543 18 -54
269 -557 344 -691 42 -74 77 -119 168 -212 123 -125 143 -135 181 -95 44 47
49 143 10 198 -40 57 -169 335 -243 525 l-32 80 0 250 c0 138 4 404 9 592 l9
343 23 0 c33 0 130 112 155 180 l20 55 72 0 c67 0 76 3 114 32 22 18 48 50 56
72 18 43 35 51 112 51 59 0 107 26 129 68 8 16 21 59 29 97 13 69 14 70 63 95
37 19 59 41 92 90 62 94 82 156 82 249 l0 78 40 7 c51 8 61 24 100 166 27 100
31 124 25 185 -6 55 -13 76 -37 105 -37 47 -30 66 29 73 57 6 80 29 99 98 31
109 16 245 -31 289 -14 13 -25 27 -25 30 0 4 27 24 60 44 74 46 95 81 86 145
-7 48 -56 164 -83 193 -14 16 -14 24 -4 60 l13 41 22 -39 c12 -21 147 -286
300 -589 153 -302 291 -568 306 -590 34 -50 342 -419 555 -665 263 -305 281
-321 615 -542 466 -308 535 -345 618 -334 70 9 122 51 122 97 0 18 -122 140
-390 389 -256 238 -545 527 -631 630 -87 104 -266 386 -319 502 -15 35 -110
223 -210 418 l-182 355 -129 430 c-71 237 -163 565 -204 730 -41 165 -90 347
-109 405 -20 57 -35 105 -33 106 1 1 106 -98 233 -220 580 -557 1141 -1063
1359 -1226 78 -58 257 -151 533 -276 199 -90 204 -93 337 -214 50 -45 113 -97
140 -116 116 -78 830 -311 1020 -333 88 -10 314 2 431 24 148 27 369 151 390
218 3 12 20 36 36 53 44 46 47 95 11 164 -115 218 -152 279 -203 330 -103 105
-296 182 -605 244 -194 39 -386 66 -511 73 -96 5 -126 2 -230 -20 -197 -43
-406 -59 -486 -37 -56 16 -129 69 -439 317 -579 465 -753 615 -1114 963 -444
428 -643 632 -680 695 -49 87 -141 200 -222 275 -43 40 -71 70 -63 68 8 -3
202 -60 430 -128 228 -67 498 -149 600 -182 317 -101 538 -162 1055 -288 1240
-302 1714 -413 1840 -429 281 -37 909 -48 1094 -19 111 18 149 36 165 80 12
33 1 75 -24 88 -11 6 -84 15 -162 20 -79 5 -161 14 -183 20 -22 5 -64 10 -94
10 -40 0 -66 7 -99 26 -40 24 -49 25 -77 15 -43 -15 -42 -16 -64 27 -17 33
-26 40 -71 50 -79 18 -95 15 -145 -28 -44 -38 -49 -40 -116 -40 -38 0 -69 4
-69 9 0 5 8 36 19 70 l19 60 -47 27 c-25 15 -60 35 -77 45 l-31 19 -39 -30
c-35 -26 -47 -29 -112 -30 -46 0 -84 6 -103 15 -26 14 -29 20 -27 62 2 55 -17
75 -95 98 -73 22 -85 19 -132 -24 -25 -23 -62 -45 -86 -51 -38 -10 -44 -10
-56 6 -7 10 -13 28 -13 41 0 37 -79 124 -145 160 -69 37 -132 42 -237 19 -35
-8 -84 -17 -109 -20 l-46 -7 -12 45 c-12 47 -53 91 -97 102 -13 3 -59 -3 -102
-15 -101 -27 -134 -27 -168 2 -25 22 -26 25 -16 71 28 134 -49 167 -329 140
-159 -16 -170 -16 -195 1 -22 14 -25 22 -19 48 17 83 16 103 -5 160 l-21 57
-54 0 c-30 0 -91 -9 -137 -20 -46 -11 -114 -23 -153 -26 -69 -6 -71 -6 -108
27 -38 34 -38 34 -23 64 23 43 19 74 -12 119 -66 95 -131 104 -278 37 -51 -22
-97 -41 -104 -41 -7 0 -42 16 -77 36 l-63 35 35 46 c20 26 38 57 41 70 8 30
-35 96 -79 123 -57 35 -90 35 -188 0 l-90 -32 -67 17 c-37 9 -73 19 -79 23 -7
4 -15 47 -19 100 -11 144 -24 152 -258 152 -116 0 -148 4 -182 19 -41 19 -41
19 -46 80 -4 50 -9 66 -34 92 -50 54 -106 73 -214 73 l-94 1 -8 39 c-17 81
-51 96 -238 107 -107 6 -160 13 -200 28 -59 22 -125 59 -118 66 6 7 255 -22
398 -46 69 -12 197 -38 285 -59 237 -57 573 -127 747 -155 234 -37 444 -49
903 -49 444 -1 433 -2 930 59 110 14 268 34 350 44 83 11 221 27 309 36 l159
16 46 -39 c66 -56 82 -62 159 -62 l69 0 43 -51 c52 -62 106 -88 197 -95 104
-8 107 -9 190 -87 104 -97 129 -113 210 -138 129 -40 127 -38 238 -236 54 -98
140 -257 190 -354 50 -96 108 -201 129 -232 59 -89 447 -454 681 -641 167
-134 395 -212 728 -249 199 -23 244 -2 234 108 -7 77 -76 346 -128 500 -111
325 -289 725 -365 814 -55 65 -325 242 -513 336 -59 29 -181 80 -273 113 -91
34 -191 73 -221 89 -48 24 -643 521 -634 529 1 2 93 34 202 72 237 83 412 150
483 186 28 14 161 117 294 228 233 194 302 248 466 367 123 90 152 136 183
299 6 34 9 65 5 69 -5 6 -71 -6 -157 -28 -22 -5 -93 -55 -185 -129 l-149 -119
-540 -218 c-550 -221 -756 -298 -893 -332 -42 -11 -201 -34 -352 -52 -221 -25
-283 -29 -315 -21 -41 11 -658 245 -895 340 -131 52 -396 149 -515 187 -38 13
-70 27 -70 32 1 28 31 129 39 135 15 10 77 0 156 -24 75 -23 179 -27 231 -9
20 6 48 25 62 41 27 30 106 60 158 60 14 0 46 -7 69 -15 54 -19 113 -19 150 0
15 8 45 36 66 62 21 27 45 54 53 61 21 17 102 15 129 -4 68 -48 126 -33 195
48 23 28 54 56 70 64 26 14 31 13 62 -6 47 -29 132 -37 172 -16 29 14 42 28
92 95 l17 24 40 -26 c56 -37 127 -50 189 -35 48 12 51 16 80 76 17 35 38 68
47 73 11 6 35 -2 84 -28 82 -43 133 -57 169 -43 14 5 55 32 91 60 84 64 102
64 223 0 51 -28 101 -50 110 -50 9 0 49 20 88 45 l72 44 67 -25 c89 -33 131
-34 173 -4 33 23 34 23 100 7 42 -10 71 -12 83 -6 27 14 62 11 113 -12 41 -18
58 -20 109 -13 68 8 246 11 463 5 121 -3 147 -1 168 13 37 25 48 60 31 101
-13 29 -31 42 -123 88 -128 64 -319 142 -385 156 -58 13 -440 61 -768 96 -241
26 -253 26 -825 22 -568 -3 -584 -4 -750 -30 -177 -28 -703 -120 -777 -136
-62 -14 -661 -106 -878 -135 -125 -17 -320 -32 -600 -45 -228 -12 -518 -26
-645 -32 -126 -6 -371 -11 -543 -10 l-312 1 -408 76 -407 76 -550 180 -550
180 -469 229 c-458 225 -781 399 -817 442 -10 12 -32 55 -50 96 -17 41 -96
175 -176 299 -215 334 -258 388 -367 471 -190 144 -459 167 -871 75 -153 -34
-157 -33 -214 25 -49 50 -52 56 -91 178 l-23 72 -406 358 c-223 197 -421 372
-441 389 -19 17 -52 34 -72 38 -21 4 -51 18 -68 32 l-30 26 0 754 0 755 -39
192 c-22 106 -54 271 -71 367 -17 96 -40 204 -52 240 -27 87 -284 785 -396
1080 -50 129 -116 309 -147 400 -82 237 -173 476 -206 541 -33 67 -139 211
-277 376 -56 68 -102 125 -102 128 0 3 7 5 15 5 13 0 15 60 15 480 l0 480 -35
0 -35 0 0 -461 c0 -451 0 -461 -19 -448 -10 8 -88 79 -172 158 -167 156 -407
369 -479 424 -192 146 -714 311 -1020 323 -95 3 -142 -1 -275 -25z m8178
-12783 c146 -117 260 -222 291 -267 15 -21 90 -184 167 -362 77 -178 169 -379
205 -446 35 -67 75 -151 89 -187 34 -89 121 -442 134 -541 22 -169 42 -415 43
-545 1 -133 1 -138 -45 -292 -25 -86 -60 -190 -77 -232 -46 -110 -239 -428
-282 -463 -10 -9 0 54 34 210 53 246 98 501 98 552 0 19 13 130 30 247 16 117
34 265 40 328 l11 115 -61 245 c-94 378 -114 436 -240 725 -250 571 -242 556
-508 933 -24 34 -41 62 -37 62 4 0 53 -37 108 -82z"/>
</g>
</svg>
