<?xml version="1.0" standalone="no"?>
<!DOCTYPE svg PUBLIC "-//W3C//DTD SVG 20010904//EN"
 "http://www.w3.org/TR/2001/REC-SVG-20010904/DTD/svg10.dtd">
<svg version="1.0" xmlns="http://www.w3.org/2000/svg"
 width="1536.000000pt" height="1442.000000pt" viewBox="0 0 1536.000000 1442.000000"
 preserveAspectRatio="xMidYMid meet">
<metadata>
Created by potrace 1.16, written by Peter Selinger 2001-2019
</metadata>
<g transform="translate(0.000000,1442.000000) scale(0.100000,-0.100000)"
fill="#000000" stroke="none">
<path d="M9330 14340 c-611 -285 -1518 -739 -2260 -1133 -2028 -1075 -3759
-2144 -5070 -3131 -457 -344 -983 -778 -1193 -985 -645 -633 -914 -1563 -766
-2644 38 -282 97 -533 194 -822 105 -316 211 -547 396 -860 61 -104 180 -305
262 -445 346 -586 814 -1349 1167 -1900 319 -498 855 -1288 980 -1445 61 -76
227 -237 305 -297 441 -334 1068 -545 1875 -632 759 -82 1731 -47 2545 90 371
62 547 109 835 220 1453 558 2965 1729 4856 3759 201 217 550 600 1089 1200
248 275 515 569 595 653 80 84 159 170 177 190 l31 37 -201 1 c-293 1 -525 29
-1517 184 -1015 159 -1585 230 -2220 277 -294 22 -1196 25 -1410 5 -609 -57
-1021 -149 -1485 -334 -187 -74 -546 -251 -729 -358 -464 -273 -952 -648
-1333 -1025 l-141 -140 -168 -315 c-215 -405 -510 -987 -614 -1209 -101 -218
-202 -473 -226 -571 -20 -84 -37 -110 -70 -110 -40 0 -57 28 -51 84 21 204
344 897 881 1895 l137 253 -21 112 c-109 574 -404 1207 -714 1534 l-69 72
-586 0 c-997 0 -1583 28 -1896 91 -55 11 -110 27 -122 34 -28 18 -37 49 -23
75 15 29 49 34 111 16 218 -62 725 -92 1749 -103 701 -7 649 -10 1035 73 611
132 1171 314 1755 570 224 98 644 312 745 379 572 380 982 1359 1194 2850 138
965 196 2198 160 3400 -6 198 -13 387 -17 421 l-7 61 -165 -77z m-4253 -8379
c102 -68 223 -182 308 -290 125 -159 215 -453 215 -706 l0 -91 -431 -45 -431
-44 -62 -135 c-151 -327 -336 -592 -597 -851 -114 -113 -149 -142 -212 -173
-276 -136 -794 -134 -1381 6 l-128 30 6 37 c3 20 24 104 47 186 182 668 431
1173 634 1290 101 58 453 150 675 176 110 13 376 17 545 9 l99 -5 254 362 255
362 56 -29 c32 -16 98 -56 148 -89z"/>
</g>
</svg>
