<?xml version="1.0" standalone="no"?>
<!DOCTYPE svg PUBLIC "-//W3C//DTD SVG 20010904//EN"
 "http://www.w3.org/TR/2001/REC-SVG-20010904/DTD/svg10.dtd">
<svg version="1.0" xmlns="http://www.w3.org/2000/svg"
 width="1385.000000pt" height="1536.000000pt" viewBox="0 0 1385.000000 1536.000000"
 preserveAspectRatio="xMidYMid meet">
<metadata>
Created by potrace 1.16, written by Peter Selinger 2001-2019
</metadata>
<g transform="translate(0.000000,1536.000000) scale(0.100000,-0.100000)"
fill="#000000" stroke="none">
<path d="M6746 15349 c-106 -12 -258 -47 -369 -85 -233 -79 -538 -255 -782
-450 -142 -114 -491 -462 -629 -629 -382 -460 -708 -975 -1030 -1625 -193
-388 -311 -691 -385 -988 -62 -249 -76 -362 -76 -627 0 -242 7 -312 53 -520
l26 -119 -68 -131 c-113 -219 -194 -313 -279 -322 -37 -4 -65 6 -236 86 -219
103 -353 177 -456 249 -174 122 -262 262 -222 353 36 81 118 148 451 366 363
239 484 339 521 428 37 87 2 145 -85 145 -75 0 -173 -37 -454 -169 -290 -137
-387 -175 -478 -191 -102 -18 -158 4 -199 80 -18 32 -18 228 0 330 7 41 32
179 57 305 56 293 74 413 74 498 0 143 -35 203 -118 201 -141 -2 -235 -129
-358 -484 -73 -212 -103 -278 -149 -328 -64 -71 -128 -69 -176 6 -69 109 -117
277 -238 832 -127 583 -178 767 -248 903 -52 99 -108 136 -158 103 -60 -40
-85 -156 -85 -405 0 -195 6 -292 51 -771 34 -360 42 -621 21 -657 -39 -69
-115 2 -304 280 -150 223 -260 350 -312 363 -36 9 -75 -11 -94 -46 -21 -41 -8
-146 36 -277 22 -65 101 -261 176 -436 161 -375 221 -546 236 -678 25 -201 64
-353 145 -559 126 -319 358 -752 516 -967 210 -284 698 -762 1119 -1097 332
-264 558 -409 704 -451 52 -15 64 -15 130 -2 126 26 313 130 531 295 51 38 81
55 83 47 6 -24 -94 -303 -203 -570 -256 -626 -300 -740 -355 -905 -155 -466
-160 -817 -20 -1288 57 -192 209 -554 311 -739 l40 -73 -193 0 c-228 0 -477
-15 -603 -35 -152 -25 -293 -114 -374 -236 -60 -89 -72 -140 -79 -324 -8 -178
-19 -215 -68 -215 -32 0 -97 33 -154 78 -195 157 -352 315 -890 902 -301 328
-336 362 -399 393 -102 50 -151 29 -151 -64 0 -118 45 -205 486 -940 319 -534
454 -778 454 -826 0 -74 -44 -143 -99 -156 -31 -8 -161 27 -241 64 -36 17 -97
55 -136 84 -76 59 -128 85 -168 85 -27 0 -66 -42 -66 -71 0 -49 46 -132 131
-239 127 -159 230 -304 484 -675 418 -612 609 -876 840 -1165 449 -562 851
-918 1193 -1059 179 -74 698 -170 1147 -213 198 -19 634 -16 775 5 228 34 377
92 450 174 37 41 54 79 122 268 44 121 94 273 112 337 17 65 34 118 38 118 4
0 33 -17 65 -37 206 -131 569 -244 788 -244 220 0 581 112 788 244 32 20 61
37 65 37 5 0 16 -35 26 -78 17 -70 50 -169 162 -486 61 -170 132 -234 327
-290 162 -47 295 -60 597 -60 365 1 703 36 1104 115 381 75 485 114 709 265
140 95 248 185 406 339 359 349 683 762 1246 1586 373 545 448 649 606 846 64
80 109 168 109 212 0 29 -39 71 -66 71 -40 0 -92 -26 -168 -85 -39 -29 -100
-67 -136 -84 -80 -37 -210 -72 -241 -64 -54 13 -99 80 -99 148 0 57 118 273
467 855 428 714 473 802 473 920 0 91 -47 112 -149 65 -64 -30 -84 -50 -461
-460 -435 -475 -550 -593 -696 -722 -203 -178 -285 -221 -329 -173 -16 18 -20
46 -26 188 -5 104 -14 187 -23 218 -36 116 -147 236 -280 303 -105 53 -366 81
-752 81 l-191 0 82 168 c183 369 285 656 341 962 23 120 26 467 6 580 -50 276
-114 459 -419 1200 -152 369 -251 643 -241 670 2 4 54 -29 115 -75 221 -164
386 -253 510 -275 80 -14 139 1 259 65 426 224 1252 946 1639 1430 169 212
420 671 558 1020 82 209 123 368 146 565 16 131 75 299 238 679 74 174 153
368 174 431 43 130 58 240 37 280 -19 35 -58 55 -94 46 -52 -13 -162 -140
-304 -351 -193 -286 -273 -361 -312 -292 -22 38 -12 303 27 717 69 734 58
1052 -39 1115 -51 34 -106 -2 -159 -102 -71 -136 -129 -350 -252 -918 -112
-520 -161 -693 -228 -807 -49 -83 -116 -89 -182 -16 -47 51 -77 118 -149 328
-123 354 -217 482 -358 484 -92 2 -125 -70 -115 -248 5 -91 27 -220 102 -611
86 -450 42 -593 -173 -555 -92 16 -188 54 -478 191 -283 133 -379 169 -454
169 -41 0 -56 -5 -75 -25 -48 -47 -27 -122 57 -211 74 -78 164 -145 453 -336
276 -182 362 -246 417 -313 43 -54 53 -89 39 -142 -44 -161 -246 -311 -702
-524 -152 -71 -179 -80 -216 -76 -85 9 -166 103 -279 322 l-68 131 27 124 c41
191 47 241 54 430 17 517 -112 989 -467 1705 -323 653 -631 1140 -1018 1610
-137 167 -495 526 -637 639 -512 409 -1027 591 -1509 535z"/>
</g>
</svg>
