<?xml version="1.0" standalone="no"?>
<!DOCTYPE svg PUBLIC "-//W3C//DTD SVG 20010904//EN"
 "http://www.w3.org/TR/2001/REC-SVG-20010904/DTD/svg10.dtd">
<svg version="1.0" xmlns="http://www.w3.org/2000/svg"
 width="1536.000000pt" height="709.000000pt" viewBox="0 0 1536.000000 709.000000"
 preserveAspectRatio="xMidYMid meet">
<metadata>
Created by potrace 1.16, written by Peter Selinger 2001-2019
</metadata>
<g transform="translate(0.000000,709.000000) scale(0.100000,-0.100000)"
fill="#000000" stroke="none">
<path d="M11541 7079 c-45 -18 -101 -70 -172 -162 -141 -182 -448 -472 -886
-839 -111 -93 -261 -224 -333 -291 -284 -264 -343 -315 -555 -485 -121 -96
-247 -199 -281 -228 l-61 -53 -219 -11 c-243 -12 -406 -26 -474 -41 -24 -6
-182 -14 -350 -19 -312 -10 -339 -12 -755 -55 -473 -48 -661 -57 -920 -41
-128 7 -154 6 -300 -19 -88 -14 -241 -43 -340 -63 l-180 -37 -270 5 c-480 8
-497 8 -619 -24 -100 -26 -119 -28 -240 -23 -214 8 -396 64 -872 273 -154 67
-305 130 -335 140 -30 9 -119 43 -199 74 -239 95 -797 277 -1190 388 -523 149
-1449 394 -1938 512 -40 10 -52 -7 -52 -74 0 -55 9 -61 101 -69 86 -8 915
-221 1459 -376 579 -164 1380 -438 1380 -472 0 -11 -12 -9 -375 71 -530 118
-1353 277 -1875 364 -354 59 -672 106 -681 100 -14 -8 -10 -80 4 -93 21 -17
116 -36 507 -101 935 -155 1640 -302 2275 -471 205 -55 322 -95 713 -243 334
-127 454 -189 630 -326 96 -74 107 -91 88 -128 -24 -47 -52 -66 -83 -56 -15 4
-82 8 -148 8 -154 -1 -178 -11 -247 -108 -68 -97 -104 -170 -133 -273 -23 -81
-65 -356 -65 -424 0 -17 25 -80 56 -142 77 -155 118 -194 156 -149 27 31 27
63 2 191 -22 109 -25 146 -22 271 3 123 7 152 26 194 43 95 170 246 207 246
28 0 16 -282 -17 -412 -11 -47 -11 -48 21 -89 35 -42 36 -53 15 -141 -8 -35
27 -72 59 -63 12 4 76 33 143 66 124 60 163 70 183 45 10 -11 9 -21 -4 -45
-22 -43 -50 -59 -167 -92 -148 -43 -233 -105 -206 -152 17 -31 71 -20 175 35
54 29 134 70 178 91 44 22 113 62 153 89 88 59 152 88 198 88 60 0 46 -30
-106 -230 -107 -142 -182 -263 -287 -463 -111 -211 -189 -353 -306 -551 -48
-81 -71 -132 -75 -161 -4 -41 -3 -44 29 -61 55 -29 214 -25 374 9 205 44 283
88 536 300 113 94 282 240 375 323 421 374 760 628 887 665 27 8 34 4 69 -34
79 -86 89 -95 114 -100 91 -17 264 94 380 244 57 74 91 94 140 80 40 -11 62
-27 188 -135 158 -135 421 -287 546 -316 132 -30 290 -100 396 -175 72 -51
167 -151 194 -205 20 -40 48 -210 75 -465 16 -154 29 -221 47 -243 17 -20 53
-14 81 16 25 26 27 35 27 110 0 95 -23 328 -50 522 -25 171 -25 166 9 201 26
25 37 29 88 29 74 0 133 -17 254 -74 118 -55 147 -63 289 -76 63 -6 139 -18
168 -26 94 -26 160 -105 287 -344 53 -101 81 -141 144 -205 43 -44 107 -118
143 -165 36 -47 80 -98 96 -114 l31 -29 7 27 c20 81 -12 165 -164 429 -93 161
-129 245 -118 274 7 18 -13 18 391 -12 453 -33 1057 -43 1460 -24 269 12 289
9 305 -52 7 -26 9 -103 4 -222 -7 -205 1 -272 44 -356 31 -63 53 -81 80 -65
33 21 41 80 52 356 10 280 17 365 31 373 15 10 118 26 383 60 448 59 481 69
660 204 71 54 155 101 180 101 8 0 23 -11 34 -25 42 -54 204 -458 292 -731
103 -319 135 -396 315 -764 197 -403 214 -445 302 -735 70 -233 78 -303 40
-367 -14 -24 -44 -61 -66 -82 -22 -22 -46 -55 -52 -75 -11 -32 -10 -36 15 -58
47 -40 164 -26 229 28 55 45 83 115 112 282 14 81 25 165 25 186 0 54 -23 113
-79 200 -94 148 -222 411 -237 490 -7 36 19 85 65 119 17 12 31 29 31 37 0 8
-31 30 -68 49 -38 19 -82 46 -98 60 -50 41 -83 115 -95 208 -7 58 -18 95 -35
123 -14 22 -40 64 -59 93 -21 33 -36 73 -40 105 -8 61 -17 80 -58 126 -32 38
-62 100 -109 226 -16 44 -42 106 -58 138 -16 32 -32 79 -36 105 -3 26 -21 81
-39 122 -38 85 -52 162 -36 202 6 17 28 36 58 52 57 28 370 142 498 181 152
45 367 132 655 263 323 147 398 176 502 192 92 15 129 35 152 83 16 36 35 184
36 285 l0 52 -132 105 c-252 200 -438 313 -634 384 -49 18 -273 80 -499 137
-225 57 -533 135 -684 174 -150 39 -323 79 -385 90 -204 37 -308 73 -352 122
-27 29 -99 160 -191 348 -133 270 -206 359 -399 486 -64 42 -119 86 -124 98
-8 23 -23 193 -40 476 -12 199 -26 327 -41 385 -46 170 -215 293 -338 244z
m167 -404 c22 -18 34 -41 42 -78 18 -81 25 -548 10 -659 -15 -117 -51 -231
-90 -290 -55 -82 -268 -274 -480 -429 -303 -223 -374 -245 -636 -194 -166 32
-194 44 -194 86 0 51 78 184 316 537 254 376 370 518 664 813 236 237 298 273
368 214z m517 -1201 c42 -45 105 -200 125 -303 18 -100 -10 -133 -115 -133
-84 1 -167 25 -208 62 -32 28 -32 29 -32 122 0 82 3 100 28 151 16 31 43 73
61 92 28 29 40 35 75 35 32 0 47 -6 66 -26z m-6606 -1786 l94 -30 76 25 c42
14 125 31 185 37 132 15 145 8 130 -62 -12 -56 -36 -68 -145 -68 -145 0 -545
38 -593 56 -34 13 -8 65 39 77 35 9 117 -4 214 -35z m-372 -313 c178 -31 421
-83 446 -96 39 -22 -20 -85 -293 -311 -96 -80 -238 -205 -315 -279 -246 -236
-383 -348 -538 -441 -102 -61 -196 -90 -296 -92 l-76 -1 2 28 c1 15 19 53 41
85 205 302 383 573 456 697 136 231 203 329 261 384 51 49 56 51 109 51 30 0
121 -11 203 -25z"/>
</g>
</svg>
