<?xml version="1.0" standalone="no"?>
<!DOCTYPE svg PUBLIC "-//W3C//DTD SVG 20010904//EN"
 "http://www.w3.org/TR/2001/REC-SVG-20010904/DTD/svg10.dtd">
<svg version="1.0" xmlns="http://www.w3.org/2000/svg"
 width="1136.000000pt" height="1536.000000pt" viewBox="0 0 1136.000000 1536.000000"
 preserveAspectRatio="xMidYMid meet">
<metadata>
Created by potrace 1.16, written by Peter Selinger 2001-2019
</metadata>
<g transform="translate(0.000000,1536.000000) scale(0.100000,-0.100000)"
fill="#000000" stroke="none">
<path d="M4221 15346 c-14 -17 -5 -43 38 -113 37 -59 37 -59 11 -66 -31 -8
-24 -23 28 -56 75 -48 92 -61 92 -72 0 -5 -13 0 -29 12 -35 26 -68 20 -52 -9
11 -21 84 -89 120 -113 29 -18 23 -49 -9 -49 -32 0 -24 -23 30 -84 49 -56 80
-105 80 -126 0 -6 -11 -15 -25 -20 -33 -13 -23 -35 26 -60 32 -17 41 -28 54
-72 8 -28 15 -53 15 -55 0 -2 -11 4 -25 13 -27 18 -55 13 -55 -10 0 -8 23 -41
50 -73 57 -65 62 -96 18 -101 -39 -5 -35 -24 17 -89 54 -66 64 -96 40 -123
-17 -18 -16 -21 9 -65 22 -38 26 -53 21 -88 -5 -34 -1 -54 24 -107 l31 -65
-35 -3 c-22 -2 -35 -8 -35 -17 0 -8 20 -43 45 -79 47 -69 55 -96 30 -96 -23 0
-18 -34 15 -98 32 -64 42 -134 15 -112 -16 13 -35 6 -35 -15 0 -7 16 -44 35
-81 19 -37 35 -71 35 -75 0 -5 -13 -9 -28 -9 -16 0 -31 -3 -35 -6 -3 -4 11
-39 33 -78 36 -66 70 -161 70 -194 0 -8 -24 17 -53 54 -90 118 -121 91 -40
-35 35 -55 47 -85 51 -125 3 -28 15 -66 27 -86 44 -68 39 -132 -5 -70 -21 29
-58 56 -66 47 -8 -8 26 -100 52 -140 21 -33 24 -44 15 -59 -15 -25 -14 -39 10
-92 22 -50 21 -88 -1 -46 -14 28 -29 40 -47 40 -20 0 -15 -30 13 -90 14 -30
30 -66 35 -79 l9 -23 -31 26 c-54 46 -72 24 -40 -50 35 -78 25 -96 -24 -44
-16 17 -33 26 -37 22 -5 -5 4 -51 21 -103 44 -140 47 -163 22 -188 -28 -28
-26 -43 5 -81 20 -23 29 -48 34 -93 4 -34 13 -76 20 -93 7 -17 10 -39 7 -48
-6 -15 -9 -15 -37 -1 -31 16 -50 13 -50 -8 0 -6 16 -38 36 -69 22 -37 34 -68
32 -84 l-3 -27 -45 38 c-42 36 -45 36 -48 16 -2 -12 10 -43 26 -69 40 -66 50
-99 58 -196 9 -111 2 -136 -36 -136 -42 0 -46 -16 -15 -60 32 -46 46 -120 23
-120 -9 0 -21 7 -28 15 -37 44 -39 -3 -5 -87 29 -72 51 -178 41 -203 -6 -16
-8 -16 -31 -1 -13 9 -26 12 -30 7 -3 -5 6 -44 19 -85 13 -42 22 -76 19 -76 -2
0 -13 5 -24 10 -16 9 -19 7 -19 -11 0 -11 12 -59 26 -104 l26 -84 -29 -53
c-25 -48 -32 -53 -65 -56 -21 -2 -38 -6 -38 -9 0 -3 25 -58 55 -122 70 -149
71 -162 11 -116 -31 24 -56 32 -56 19 0 -4 19 -41 42 -83 26 -47 45 -95 49
-126 3 -27 10 -59 14 -70 5 -10 -12 2 -36 28 -39 40 -79 61 -79 42 0 -10 29
-63 60 -109 27 -40 60 -115 60 -137 0 -5 -60 -9 -133 -9 -147 0 -184 -7 -228
-44 -31 -26 -40 -29 -181 -44 -115 -12 -199 -52 -248 -118 -43 -58 -140 -118
-235 -145 -134 -38 -221 -92 -245 -149 -9 -22 -19 -30 -36 -30 -16 0 -28 -8
-36 -25 -6 -14 -16 -24 -22 -22 -16 5 -104 116 -119 149 -14 32 -43 37 -52 8
-7 -21 7 -53 38 -87 11 -13 18 -26 14 -29 -10 -10 -53 22 -84 62 -55 73 -90
107 -101 100 -6 -4 -14 -22 -18 -41 -3 -19 -10 -35 -15 -35 -9 0 -72 79 -104
132 -36 59 -77 38 -44 -24 15 -28 6 -32 -35 -13 -23 11 -55 44 -88 89 -59 81
-98 126 -110 126 -15 0 -8 -43 13 -76 16 -26 17 -34 6 -34 -22 0 -84 59 -140
135 -61 82 -87 94 -87 41 0 -19 5 -38 10 -41 26 -16 6 -24 -26 -10 -63 26 -91
53 -122 120 -33 68 -56 82 -66 40 -7 -28 -13 -29 -51 -15 -36 14 -72 55 -101
116 -27 57 -47 79 -64 69 -16 -10 -12 -56 7 -77 29 -32 -4 -19 -55 22 -52 40
-141 145 -181 213 -23 37 -51 50 -51 22 0 -8 -6 -15 -13 -15 -25 0 -58 32 -88
86 -36 64 -63 73 -57 19 2 -19 1 -35 -3 -35 -4 0 -25 21 -46 47 -21 26 -57 65
-80 88 -23 23 -57 74 -78 118 -31 65 -42 79 -66 84 -34 7 -44 32 -59 158 -13
108 -19 135 -31 135 -14 0 -29 -36 -29 -69 0 -43 -15 -46 -43 -9 -42 56 -73
127 -91 210 -4 17 -18 34 -36 43 -41 21 -70 84 -84 179 -6 44 -16 81 -23 83
-6 2 -19 -10 -28 -28 -26 -50 -38 -23 -46 108 -9 139 -16 183 -29 183 -6 0
-13 -18 -16 -40 -4 -22 -10 -43 -14 -45 -15 -9 -40 77 -51 173 -16 140 -19
144 -54 93 -11 -17 -21 -29 -22 -27 -13 13 -45 239 -45 313 1 93 -7 115 -33
93 -12 -10 -13 -4 -8 42 3 29 14 78 25 108 25 68 33 126 20 134 -6 3 -26 -12
-45 -34 -18 -22 -37 -40 -40 -40 -4 0 -7 23 -7 50 0 45 12 91 51 186 7 17 9
39 5 49 -6 16 -10 15 -38 -11 l-31 -29 6 53 c4 29 23 119 43 199 34 138 35
147 19 159 -25 19 -15 93 24 179 37 80 37 85 11 85 -13 0 -32 -17 -53 -46
l-32 -46 -3 32 c-2 18 4 42 15 58 16 25 53 135 70 206 6 31 1 32 -49 11 -35
-14 -17 16 52 89 38 40 70 76 70 80 0 3 -18 6 -40 6 l-41 0 6 38 c5 29 21 50
73 99 l67 63 -25 19 c-21 17 -23 22 -13 44 6 13 26 41 43 61 26 30 31 41 25
66 -6 28 -1 37 47 88 72 75 85 100 63 116 -16 11 -16 15 -2 43 17 31 71 83 88
83 5 0 9 17 9 38 0 28 9 51 33 82 17 24 38 51 45 60 7 10 17 45 23 80 5 34 19
81 31 103 44 87 45 141 5 190 -33 39 -48 37 -62 -8 l-13 -40 -1 52 c-1 54 -17
80 -25 41 -3 -13 -10 -70 -15 -127 -8 -84 -14 -108 -30 -125 l-21 -20 0 51 c0
46 -12 74 -26 60 -3 -3 -9 -35 -15 -72 -10 -73 -34 -131 -43 -105 -2 8 -6 24
-8 35 -2 12 -11 20 -23 20 -17 0 -21 -9 -27 -60 -6 -61 -40 -171 -57 -188 -17
-17 -31 4 -31 46 0 23 -4 48 -9 56 -15 24 -30 -19 -41 -120 -12 -104 -23 -126
-41 -86 -7 15 -18 27 -25 27 -15 0 -20 -17 -29 -95 -4 -33 -18 -85 -32 -115
l-26 -55 -8 44 c-15 80 -33 65 -43 -38 -12 -118 -22 -135 -44 -78 -12 31 -13
31 -27 13 -9 -12 -15 -42 -15 -72 0 -57 -15 -140 -30 -163 -7 -12 -13 -13 -36
-3 -14 7 -29 10 -32 7 -3 -3 2 -27 11 -53 9 -26 17 -68 17 -93 0 -55 -18 -156
-32 -183 -10 -17 -13 -15 -32 25 -12 25 -29 46 -40 48 -21 3 -21 3 9 -163 9
-48 15 -107 13 -130 l-3 -41 -23 63 c-23 62 -44 84 -62 66 -6 -6 1 -42 15 -89
14 -44 25 -97 25 -118 l0 -38 -26 20 c-57 45 -100 10 -45 -37 22 -20 35 -43
46 -87 27 -108 13 -149 -30 -85 -25 37 -61 58 -76 43 -8 -8 1 -32 30 -85 34
-63 41 -84 41 -132 0 -69 -22 -126 -51 -133 -20 -6 -21 -11 -16 -67 3 -34 13
-80 21 -102 18 -51 8 -64 -46 -64 -21 0 -38 -4 -38 -10 0 -5 14 -39 32 -74
l32 -65 -19 -35 -19 -35 28 -39 c15 -22 28 -52 29 -68 2 -26 -1 -29 -30 -32
-42 -4 -41 -18 0 -73 51 -66 67 -103 67 -154 0 -39 -4 -47 -25 -57 -28 -13
-32 -30 -10 -48 8 -7 15 -25 15 -41 0 -18 5 -29 13 -29 17 0 42 -28 49 -55 3
-11 9 -27 12 -36 6 -13 2 -16 -17 -12 -42 8 -39 -12 13 -82 52 -71 56 -80 40
-90 -20 -12 -9 -43 45 -120 30 -44 55 -85 55 -91 0 -15 -23 -24 -47 -18 -25 6
-42 -7 -45 -35 -2 -19 6 -30 42 -50 34 -20 62 -52 112 -126 37 -55 67 -103 67
-108 1 -4 -17 4 -38 19 -48 32 -94 30 -99 -3 -3 -19 6 -27 53 -49 42 -20 71
-45 121 -105 36 -44 75 -86 86 -93 19 -14 19 -16 4 -37 -23 -33 -21 -42 25
-95 23 -26 46 -59 52 -73 6 -14 36 -55 67 -91 31 -36 77 -96 102 -135 25 -38
116 -146 203 -240 86 -93 165 -186 175 -206 21 -41 81 -86 128 -95 29 -6 47
-34 22 -34 -19 0 -10 -19 22 -49 41 -38 152 -95 172 -88 8 3 17 0 20 -8 6 -17
132 -103 204 -139 30 -15 73 -44 95 -65 55 -50 71 -58 142 -66 76 -9 93 -18
97 -52 l3 -28 105 3 c73 2 111 -1 126 -10 12 -7 41 -24 65 -37 l43 -23 -37
-30 c-20 -17 -37 -38 -37 -48 0 -15 9 -18 68 -16 37 0 89 -5 116 -13 l49 -15
-33 -27 c-46 -39 -36 -63 23 -54 60 9 237 -25 237 -45 0 -5 -18 -14 -39 -20
-36 -9 -57 -30 -44 -43 3 -3 44 -3 93 0 48 3 105 2 126 -2 l39 -8 -26 -11
c-35 -15 -60 -36 -54 -46 3 -5 44 -8 90 -8 54 1 90 -3 97 -10 9 -9 8 -12 -4
-12 -28 0 -42 -27 -29 -57 11 -23 8 -33 -34 -102 -49 -81 -109 -201 -120 -238
-8 -30 11 -30 42 -1 30 28 29 13 -2 -54 -29 -62 -34 -150 -10 -174 12 -13 15
-50 15 -207 0 -106 -3 -209 -6 -229 l-7 -38 -116 0 c-73 0 -125 -5 -141 -13
-31 -15 -39 -56 -14 -74 23 -17 12 -20 -104 -28 -109 -7 -145 -18 -140 -43 2
-13 18 -19 62 -24 32 -4 61 -10 63 -12 6 -6 -61 -14 -181 -21 -123 -8 -170
-22 -174 -52 -3 -18 -15 -26 -60 -39 -102 -28 -108 -31 -160 -83 -47 -47 -175
-121 -209 -121 -6 0 -25 -17 -40 -37 -35 -48 -42 -53 -75 -53 -15 0 -30 -5
-33 -11 -4 -6 -21 -9 -38 -7 -25 2 -32 -1 -37 -19 -3 -12 -24 -36 -48 -52 -29
-22 -42 -38 -42 -55 0 -32 -33 -57 -117 -91 -38 -15 -84 -39 -103 -53 l-35
-27 39 -5 40 -5 -60 -24 c-32 -13 -87 -37 -121 -53 -63 -29 -63 -29 -63 -72 0
-23 -6 -48 -12 -54 -10 -10 -10 -15 1 -21 18 -12 7 -27 -26 -36 -35 -9 -117
-69 -143 -105 -11 -15 -20 -38 -20 -50 0 -20 4 -22 36 -17 19 3 34 2 32 -2 -2
-4 -48 -47 -103 -95 -101 -88 -135 -129 -122 -143 5 -4 18 -1 30 6 12 8 33 21
47 30 24 15 25 15 10 -4 -8 -11 -60 -74 -116 -140 -55 -66 -109 -132 -118
-147 -34 -52 -10 -50 56 6 36 31 68 56 72 56 21 0 -6 -34 -99 -122 -112 -108
-145 -150 -145 -191 0 -29 10 -37 54 -46 22 -5 32 -13 34 -30 4 -29 -58 -161
-107 -226 -75 -99 -78 -126 -25 -185 32 -36 36 -45 31 -79 -3 -22 -19 -67 -36
-100 -39 -78 -41 -118 -5 -131 18 -7 24 -15 20 -28 -27 -87 -53 -263 -41 -282
5 -8 13 -6 26 6 18 16 19 16 19 -9 0 -14 -16 -76 -35 -138 -21 -67 -32 -116
-27 -121 6 -6 24 3 46 23 l37 32 -6 -29 c-4 -16 -25 -84 -47 -151 -22 -67 -37
-127 -33 -133 3 -5 15 -10 26 -10 10 0 19 -4 19 -9 0 -18 -41 -105 -70 -148
-32 -46 -38 -77 -18 -89 15 -9 48 32 93 116 34 64 34 64 35 30 0 -47 -20 -119
-59 -209 -35 -82 -38 -101 -16 -101 17 0 55 35 55 50 0 6 5 10 11 10 25 0 -43
-176 -91 -237 -15 -20 -18 -34 -14 -63 5 -32 -1 -50 -40 -122 -25 -47 -46 -88
-46 -93 0 -4 16 -5 35 -3 24 3 35 0 35 -9 0 -15 -68 -196 -98 -263 -13 -27
-17 -49 -12 -54 17 -17 58 22 86 81 22 48 28 55 34 38 7 -19 -2 -58 -19 -80
-14 -17 -99 -248 -106 -288 -7 -35 -5 -39 11 -35 18 3 50 55 69 110 7 19 9 16
12 -20 3 -28 -5 -67 -22 -118 -32 -93 -48 -259 -22 -234 9 8 25 48 36 89 11
41 22 76 24 78 3 2 7 -14 11 -36 4 -28 0 -58 -14 -98 -25 -74 -63 -262 -56
-279 3 -8 16 -14 30 -14 42 0 47 -55 16 -165 -31 -109 -25 -140 20 -95 11 11
20 31 20 44 0 24 16 43 26 33 3 -3 -2 -62 -12 -131 -15 -106 -15 -128 -4 -142
13 -15 16 -14 36 11 l22 28 3 -121 c3 -104 7 -123 23 -135 15 -11 20 -33 26
-119 4 -58 11 -111 14 -117 14 -21 26 0 26 44 0 71 9 80 34 32 18 -33 31 -45
64 -55 32 -11 42 -19 47 -43 4 -16 20 -43 37 -60 46 -45 56 -26 35 63 -22 92
-22 90 8 82 36 -9 33 17 -15 126 -48 108 -50 124 -15 118 14 -3 28 -1 31 4 4
6 -12 49 -34 96 -23 48 -44 110 -47 137 l-6 50 31 -38 c18 -20 36 -37 41 -37
18 0 8 56 -26 155 -19 55 -35 109 -35 119 0 19 1 18 23 -2 20 -19 57 -30 57
-18 0 3 -13 44 -29 93 -49 149 -50 236 -1 205 47 -29 51 0 20 123 -11 43 -20
101 -20 128 0 49 0 50 20 32 19 -17 50 -15 50 4 0 5 -11 52 -25 103 -14 51
-25 109 -25 128 l1 35 18 -22 c37 -45 44 -30 38 75 -4 62 -3 111 5 137 l11 40
10 -33 c19 -63 32 -29 37 99 5 120 6 124 28 127 29 4 37 27 46 126 3 44 8 82
11 84 3 3 14 -3 25 -13 18 -17 20 -17 26 -1 4 10 3 65 -1 124 l-7 107 24 -22
c14 -13 28 -23 32 -23 5 0 6 60 2 133 -7 118 -6 135 9 147 15 12 16 27 10 112
l-7 98 26 10 c14 5 26 11 26 14 0 2 -7 40 -15 83 -20 102 -19 113 4 113 11 0
22 4 25 8 3 5 -6 53 -19 108 -28 112 -33 204 -11 204 7 0 19 -13 26 -29 6 -16
19 -32 28 -36 32 -12 34 13 8 87 -14 41 -28 110 -32 155 -6 76 -5 82 15 92 21
11 21 17 15 102 -7 87 -6 89 15 89 30 0 38 28 18 62 -10 18 -17 51 -17 84 0
47 4 59 26 79 26 24 27 28 20 99 -8 94 3 128 41 124 23 -2 28 1 26 17 -5 45
-5 137 1 142 3 4 15 -2 27 -12 29 -27 41 -5 36 72 -3 68 2 76 26 40 26 -36 37
-4 37 110 0 56 4 104 8 107 5 3 16 -4 26 -15 30 -35 48 -20 67 57 10 39 25 88
33 109 16 37 17 37 36 20 27 -25 50 -5 50 44 0 44 20 75 63 97 29 16 32 16 48
-5 24 -29 35 -26 48 12 20 54 66 140 78 144 7 3 13 -10 15 -29 4 -46 19 -40
48 19 14 28 34 61 44 72 17 19 21 20 36 6 24 -22 38 -19 54 14 14 25 157 164
163 157 1 -1 -6 -26 -17 -54 -44 -116 -10 -141 45 -33 35 71 102 151 125 151
9 0 11 -12 6 -49 -4 -28 -2 -52 3 -55 5 -4 25 13 43 36 74 95 177 182 194 166
3 -4 -2 -28 -12 -55 -10 -27 -15 -57 -11 -66 8 -20 34 -12 42 12 13 42 67 112
105 136 49 31 61 25 37 -16 -21 -37 -22 -65 -3 -72 18 -7 74 53 118 124 16 27
33 48 36 45 3 -3 9 -29 13 -57 5 -28 10 -54 13 -56 9 -10 26 9 26 29 0 39 98
153 117 135 2 -3 -3 -46 -13 -97 -10 -57 -13 -95 -7 -101 14 -14 38 18 57 78
18 54 64 126 100 155 39 32 45 24 39 -58 -8 -96 6 -96 58 0 69 127 128 162 88
51 -15 -41 -5 -85 19 -85 13 0 22 13 31 48 16 61 54 138 66 135 5 -1 16 -25
24 -53 9 -33 26 -62 47 -83 19 -17 34 -36 34 -42 0 -6 31 -41 69 -79 42 -41
71 -80 75 -97 8 -41 72 -107 115 -119 20 -5 52 -21 71 -35 40 -29 56 -31 68
-9 7 12 17 15 34 11 30 -8 80 -46 73 -56 -2 -4 57 -8 133 -7 75 0 243 -4 372
-8 208 -8 242 -7 293 8 42 12 62 14 72 6 7 -6 34 -77 59 -158 55 -170 72 -212
86 -212 17 0 11 94 -11 165 -11 37 -18 69 -16 72 8 7 51 -73 87 -159 37 -87
65 -122 81 -98 5 8 8 28 6 43 -2 15 0 30 5 33 12 7 87 -113 93 -150 3 -17 8
-53 13 -81 10 -63 35 -70 40 -10 2 22 7 44 12 49 9 9 40 -46 60 -109 17 -53
48 -115 59 -115 4 0 13 15 18 33 l10 32 37 -77 c20 -43 39 -91 42 -107 7 -35
40 -69 53 -55 5 5 11 18 13 29 7 41 24 25 58 -58 13 -32 31 -54 54 -68 41 -24
98 -106 116 -166 9 -31 19 -43 32 -43 25 0 24 48 -3 111 -12 27 -19 52 -16 55
8 9 65 -115 100 -217 27 -78 36 -95 55 -97 31 -5 37 20 18 68 -19 47 -20 53
-6 45 18 -11 69 -122 85 -182 8 -31 19 -61 25 -67 14 -14 36 9 45 47 l7 32 30
-64 c18 -37 35 -95 42 -140 13 -89 21 -107 42 -90 9 7 14 30 14 60 0 28 5 49
11 49 24 0 84 -193 97 -315 6 -51 10 -60 27 -60 12 0 21 9 26 25 l6 25 12 -28
c6 -16 18 -66 25 -110 8 -45 18 -90 21 -99 10 -25 25 -12 25 22 0 16 4 31 9
35 14 8 27 -21 41 -90 6 -33 19 -71 27 -83 14 -23 15 -23 34 -6 10 9 22 14 27
10 4 -4 9 -61 12 -126 5 -115 6 -119 33 -140 25 -20 27 -26 25 -88 -3 -63 -2
-66 22 -72 33 -8 46 -55 55 -208 l7 -122 32 -8 31 -8 -4 -92 c-3 -89 -2 -93
23 -117 24 -22 26 -30 26 -114 0 -91 0 -91 45 -130 21 -17 14 -60 -31 -194
-19 -56 -34 -107 -34 -114 0 -8 12 -13 31 -13 30 0 31 -1 25 -32 -4 -18 -9
-66 -13 -106 -6 -70 -5 -72 17 -72 19 0 21 -4 15 -27 -3 -16 -22 -64 -41 -107
-37 -86 -43 -126 -19 -126 23 0 18 -25 -20 -110 -19 -43 -38 -93 -42 -111 -3
-19 -11 -37 -16 -40 -18 -13 4 -29 39 -29 l36 0 -41 -76 c-23 -41 -41 -80 -41
-85 0 -17 44 -9 67 13 37 35 28 4 -32 -108 -51 -96 -67 -144 -47 -144 5 0 17
9 27 20 19 21 35 26 35 11 0 -6 -24 -36 -53 -68 -81 -87 -93 -120 -41 -107 28
7 29 3 10 -34 -19 -37 -63 -76 -109 -97 -43 -20 -61 -50 -71 -115 -15 -96 -36
-151 -64 -161 -44 -17 -55 -30 -36 -44 22 -15 12 -31 -34 -53 -44 -20 -102
-102 -102 -142 0 -29 15 -40 55 -40 14 0 31 -11 43 -27 20 -27 42 -25 42 6 0
24 20 48 48 56 19 5 22 3 22 -19 0 -68 50 -28 76 60 8 30 17 54 20 54 2 0 10
-16 19 -36 8 -20 20 -34 27 -32 7 3 18 34 24 70 16 87 40 134 59 118 21 -17
45 -5 45 23 0 27 30 120 53 163 l15 29 11 -30 c33 -90 45 -79 49 42 1 57 5
103 8 103 3 0 15 -5 26 -11 16 -8 24 -8 35 4 13 13 13 20 2 51 -10 28 -10 43
-2 68 7 18 15 54 18 81 7 46 27 63 39 32 3 -8 11 -15 17 -15 8 0 10 28 8 93
-4 98 -6 94 44 80 22 -7 22 15 2 82 -14 45 -12 105 3 105 3 0 19 -12 34 -27
27 -25 28 -26 28 -6 0 12 -7 49 -16 83 -11 45 -14 82 -9 129 7 68 25 120 25
73 0 -32 27 -92 41 -92 9 0 10 27 6 107 -4 60 -9 117 -13 129 -5 18 -2 20 25
16 36 -5 38 4 16 68 -20 56 -19 60 10 60 21 0 25 4 20 23 -19 86 -25 116 -25
146 l0 33 26 -17 c22 -14 28 -15 35 -4 9 15 5 37 -17 87 -8 17 -18 55 -21 82
-5 41 -3 50 9 50 9 0 21 -7 28 -15 7 -8 16 -15 21 -15 14 0 10 58 -6 89 -19
37 -50 195 -42 215 5 13 12 14 33 6 15 -6 29 -8 32 -5 3 2 -5 37 -17 77 -11
40 -21 77 -21 82 0 4 16 5 35 2 47 -9 46 9 -4 75 -21 28 -41 65 -44 83 -3 17
-9 39 -13 49 -6 16 -2 18 27 15 29 -3 34 0 37 20 2 15 -6 32 -23 48 -14 13
-36 48 -49 77 -24 55 -50 147 -43 153 2 3 17 -2 33 -11 35 -18 64 -19 64 -3 0
6 -32 44 -71 84 -74 77 -80 100 -24 90 19 -4 36 -2 40 3 3 6 -15 35 -40 66
-47 59 -95 143 -95 170 0 9 9 15 25 15 33 0 33 26 1 59 -21 23 -96 145 -96
157 0 3 20 -7 43 -21 42 -24 77 -32 90 -19 3 4 -38 50 -91 103 -53 53 -111
121 -129 151 -48 82 -49 88 -19 96 31 8 34 29 5 44 -33 18 -99 81 -99 95 0 7
10 20 23 28 22 16 22 16 -55 90 -43 40 -78 77 -78 80 0 4 11 7 24 7 32 0 56
10 56 22 0 6 -36 45 -80 87 -44 43 -80 83 -80 89 0 6 23 0 55 -14 53 -25 85
-26 85 -4 0 5 -29 32 -63 59 -76 60 -115 114 -133 183 -8 28 -15 51 -16 52
-58 22 -168 98 -168 116 0 5 10 10 22 12 40 5 33 35 -14 59 -52 26 -108 68
-108 80 0 5 9 9 19 9 67 0 70 42 4 64 -56 19 -113 52 -113 65 0 5 17 11 37 13
62 5 51 26 -34 64 -93 43 -171 100 -196 143 -18 30 -18 31 1 31 11 0 25 6 31
14 20 24 -2 49 -88 99 -81 47 -96 68 -69 95 17 17 -7 40 -49 48 -38 7 -168
119 -157 135 3 5 18 9 35 9 22 0 29 5 29 19 0 24 -15 35 -65 51 -46 14 -124
61 -150 90 -17 19 -17 21 -2 38 10 10 17 26 17 34 0 31 13 48 62 84 27 20 68
61 90 91 22 30 55 64 74 75 19 11 41 34 48 52 7 17 59 91 114 165 64 86 126
183 173 273 51 98 79 142 95 149 14 5 26 20 29 36 15 67 15 67 93 -2 40 -35
81 -69 92 -75 29 -15 34 6 16 58 -8 23 -13 42 -11 42 16 0 119 -71 162 -111
35 -33 60 -49 78 -49 37 0 42 26 11 59 -37 39 -33 51 15 51 62 0 111 -18 169
-62 51 -38 79 -45 87 -21 3 7 -21 39 -52 72 l-56 59 43 -5 c59 -7 145 -31 190
-54 53 -27 62 -25 53 14 -4 17 -10 43 -12 56 -5 22 -4 23 28 16 19 -4 65 -18
103 -31 38 -13 73 -21 78 -18 16 10 8 33 -19 54 -23 17 -25 23 -13 31 20 12
76 3 177 -32 71 -24 85 -26 90 -13 6 17 -23 54 -44 54 -18 0 -16 17 3 24 41
16 141 -1 226 -38 48 -21 50 -20 46 5 -4 29 -43 57 -109 79 l-54 18 29 11 c52
21 109 23 174 7 57 -13 64 -13 69 1 4 11 -4 24 -22 39 l-29 23 30 8 c38 10
180 10 222 0 28 -8 32 -6 32 12 0 11 -10 27 -23 36 -21 15 -21 16 -3 30 10 8
44 17 75 20 116 13 138 34 69 64 l-43 20 95 0 c100 1 134 11 113 32 -6 6 -33
17 -60 24 l-48 12 53 12 c29 6 72 11 95 11 56 0 87 9 87 26 0 8 -16 16 -39 20
-55 9 -65 17 -52 42 25 47 78 74 159 83 42 4 86 8 96 8 17 1 16 5 -12 34 -18
18 -32 36 -32 40 0 19 68 47 113 47 67 0 88 13 81 49 -8 37 15 53 111 78 73
19 97 45 55 58 -29 9 -17 21 37 35 80 20 97 50 41 74 l-33 13 45 12 c149 40
167 59 59 63 l-73 3 81 53 c44 29 103 61 129 72 59 22 64 44 11 48 -46 4 -41
15 19 41 60 27 106 60 98 72 -3 6 -29 8 -62 4 l-57 -6 33 29 c19 17 68 43 110
60 86 34 102 56 50 71 -18 5 -26 10 -17 10 9 1 24 10 34 21 17 19 17 20 -16
34 l-34 14 41 39 c22 21 72 56 112 77 49 27 72 45 72 58 0 23 -48 25 -91 2
-17 -8 -33 -14 -35 -12 -6 7 109 77 164 100 36 15 52 27 52 40 0 27 -40 23
-117 -12 -36 -16 -70 -30 -75 -30 -14 0 30 59 89 118 28 29 71 61 95 71 70 30
89 71 32 71 -13 0 -24 6 -24 13 0 19 69 83 119 109 58 31 58 43 -3 63 -17 5
-13 12 32 51 29 25 52 50 52 55 0 5 -17 9 -37 9 l-38 0 40 35 c22 19 64 51 93
71 28 21 52 41 52 45 0 17 -49 20 -85 5 -43 -18 -51 -16 -37 11 12 21 108 112
137 129 17 10 18 15 7 33 -17 29 -8 43 75 121 l68 65 -39 5 -40 5 38 33 c21
18 54 41 72 50 48 22 46 52 -2 52 -32 0 -35 2 -23 16 7 9 40 29 73 46 69 34
98 57 90 69 -9 15 -67 9 -114 -11 l-45 -20 49 46 c27 25 85 62 128 82 43 20
76 42 74 47 -2 6 -32 9 -67 8 l-64 -1 49 44 c26 24 74 57 105 72 64 31 73 55
24 60 -18 2 -33 7 -33 13 0 17 95 78 130 85 80 14 92 27 40 45 -16 6 -30 15
-30 20 0 11 39 37 104 69 41 20 52 31 54 53 3 20 12 31 38 42 19 8 49 25 66
38 18 14 42 27 53 29 12 2 31 23 45 50 14 25 33 55 43 66 23 25 14 44 -43 95
-43 40 -58 45 -66 23 -3 -8 -29 -24 -57 -36 -29 -12 -83 -43 -122 -69 -38 -26
-91 -59 -117 -74 -25 -15 -68 -52 -93 -82 -37 -43 -54 -55 -76 -55 -40 0 -110
-66 -160 -151 -42 -72 -67 -99 -54 -58 25 78 -5 71 -80 -21 -34 -41 -78 -83
-100 -95 -35 -18 -45 -31 -78 -109 -21 -49 -46 -118 -56 -154 -17 -64 -41 -95
-41 -53 0 12 -6 21 -13 21 -17 0 -44 -47 -77 -134 -15 -38 -35 -74 -44 -78 -9
-4 -24 -12 -33 -16 -10 -5 -29 -31 -43 -58 -14 -27 -39 -69 -57 -92 -18 -24
-39 -65 -47 -90 -9 -26 -35 -70 -57 -97 -46 -55 -79 -119 -129 -243 -38 -98
-63 -132 -95 -132 -31 0 -42 -29 -90 -235 -3 -11 -14 -31 -25 -45 l-21 -25 7
46 c3 28 2 49 -4 53 -22 14 -92 -125 -92 -182 0 -29 -57 -129 -67 -118 -3 3 2
33 11 67 22 75 10 96 -27 47 -13 -18 -34 -52 -45 -74 -12 -23 -35 -54 -52 -70
-17 -16 -35 -45 -40 -65 -13 -47 -50 -101 -78 -115 -29 -14 -47 -39 -84 -118
-37 -77 -87 -156 -99 -156 -5 0 -9 22 -9 49 0 28 -5 53 -10 56 -15 9 -40 -14
-40 -37 0 -36 -78 -168 -100 -168 -5 0 -10 8 -13 18 -3 13 -27 -7 -100 -81
-53 -54 -112 -104 -131 -112 -20 -8 -82 -50 -138 -93 -139 -106 -168 -125
-175 -119 -3 3 11 32 31 64 66 107 45 110 -63 10 -43 -41 -94 -85 -112 -98
l-33 -24 22 36 c39 64 20 95 -28 44 -13 -14 -57 -48 -97 -76 l-74 -51 6 36
c11 56 -14 56 -71 -1 -69 -67 -264 -168 -279 -143 -3 4 18 27 47 50 55 43 84
77 74 87 -3 3 -37 -8 -76 -26 -40 -19 -81 -31 -97 -29 -24 3 -28 7 -25 31 1
15 0 27 -3 27 -4 0 -66 -30 -138 -67 -159 -82 -156 -81 -138 -59 8 10 31 26
50 36 47 23 75 55 67 75 -5 13 -18 9 -79 -25 -71 -39 -203 -80 -256 -80 -21 0
-15 6 33 33 114 64 108 115 -7 59 -65 -31 -195 -68 -205 -57 -3 3 3 8 13 11
87 23 182 80 164 99 -3 3 -73 -8 -155 -24 -165 -32 -224 -41 -224 -36 0 2 16
22 35 45 19 23 35 49 35 58 0 8 -10 51 -21 94 -16 58 -29 86 -51 106 -41 38
-82 123 -102 212 -21 90 -53 165 -102 231 -50 68 -288 282 -392 353 -48 32
-112 82 -142 111 -66 65 -91 75 -179 75 -69 0 -70 1 -193 69 l-58 33 0 56 c0
49 3 59 22 67 12 6 26 24 30 40 13 45 2 148 -23 202 -20 45 -21 57 -15 183 4
74 9 149 12 167 5 28 3 32 -20 35 l-26 3 29 61 c51 109 75 184 63 196 -18 18
-49 -17 -73 -83 -22 -61 -32 -67 -43 -24 -4 17 4 44 29 90 19 37 35 75 35 85
0 10 9 39 20 65 21 49 26 85 11 85 -5 0 -32 -21 -60 -46 -29 -26 -53 -45 -55
-43 -2 2 13 49 34 104 40 103 50 160 28 153 -7 -2 -20 -18 -28 -36 -28 -58
-35 -43 -51 105 -14 131 -6 272 21 373 24 92 24 90 0 90 -25 0 -25 -2 1 115
12 53 19 99 15 102 -11 11 -35 -19 -52 -65 -10 -26 -22 -51 -27 -57 -15 -15
-1 124 16 165 22 52 32 146 16 155 -7 5 -19 0 -31 -14 -40 -50 -36 36 8 145
13 33 24 70 24 83 0 26 -25 38 -45 21 -27 -22 -28 -4 -6 92 12 51 26 151 32
223 5 71 14 159 19 195 10 69 2 92 -24 71 -7 -6 -20 -26 -27 -43 -11 -27 -13
-29 -20 -11 -4 11 -13 63 -19 117 -12 89 -10 182 6 294 7 46 0 50 -34 26 -21
-14 -22 -14 -22 10 0 13 15 70 34 125 19 55 31 102 28 105 -12 12 -40 5 -57
-14 -14 -16 -20 -17 -27 -8 -12 21 -9 50 8 69 15 17 40 113 51 197 7 56 -17
57 -48 2 -13 -22 -27 -40 -32 -40 -20 0 0 147 28 209 15 33 24 64 21 69 -10
17 -45 1 -72 -32 l-26 -31 7 50 c3 28 15 87 26 131 12 45 19 92 17 105 -5 42
-32 27 -49 -26 -9 -27 -20 -50 -25 -50 -16 0 -16 98 1 208 9 60 14 111 11 114
-11 12 -46 -31 -58 -71 -11 -37 -13 -38 -19 -15 -13 46 -9 111 12 179 22 74
22 105 0 105 -14 0 -25 -15 -36 -50 -6 -19 -7 -19 -17 -1 -7 12 -8 62 -3 146
4 83 3 130 -3 134 -15 9 -22 -7 -29 -64 -11 -92 -26 -37 -32 119 -3 82 -10
153 -14 157 -11 12 -27 -16 -27 -48 0 -31 -18 -47 -31 -27 -5 8 -9 58 -9 112
0 78 -3 99 -15 103 -8 4 -21 1 -29 -5 -11 -9 -15 3 -24 70 -6 47 -17 88 -25
97 -14 13 -16 11 -22 -24 -4 -21 -8 -43 -9 -49 -4 -16 -43 66 -50 107 -7 37
-54 88 -81 88 -19 0 -55 49 -55 75 0 13 -8 33 -18 45 -17 21 -19 21 -34 6 -9
-8 -18 -21 -20 -28 -10 -28 -36 13 -40 64 -4 34 -12 56 -24 65 -23 17 -78 17
-93 -1z m6169 -4690 c0 -35 -41 -98 -55 -84 -7 7 39 118 49 118 4 0 6 -15 6
-34z m-7414 -3063 c-10 -10 -19 5 -10 18 6 11 8 11 12 0 2 -7 1 -15 -2 -18z"/>
</g>
</svg>
