<?xml version="1.0" standalone="no"?>
<!DOCTYPE svg PUBLIC "-//W3C//DTD SVG 20010904//EN"
 "http://www.w3.org/TR/2001/REC-SVG-20010904/DTD/svg10.dtd">
<svg version="1.0" xmlns="http://www.w3.org/2000/svg"
 width="693.000000pt" height="1536.000000pt" viewBox="0 0 693.000000 1536.000000"
 preserveAspectRatio="xMidYMid meet">
<metadata>
Created by potrace 1.16, written by Peter Selinger 2001-2019
</metadata>
<g transform="translate(0.000000,1536.000000) scale(0.100000,-0.100000)"
fill="#000000" stroke="none">
<path d="M5098 15338 c-42 -64 -58 -110 -58 -164 0 -47 -3 -57 -20 -61 -11 -3
-20 -8 -20 -12 0 -4 18 -30 40 -60 47 -63 53 -96 15 -87 -42 11 -30 -20 24
-61 27 -21 56 -51 66 -66 16 -27 16 -29 -4 -51 -28 -30 -27 -41 9 -66 32 -23
56 -58 46 -67 -3 -4 -17 -1 -31 5 -14 6 -25 9 -25 6 0 -3 22 -32 48 -65 74
-90 138 -205 235 -419 48 -107 102 -224 119 -259 l32 -63 -25 -177 c-20 -147
-24 -216 -24 -421 0 -256 17 -505 41 -601 17 -70 17 -97 1 -129 -11 -22 -10
-30 18 -74 28 -46 30 -56 31 -151 1 -108 5 -125 31 -125 15 0 14 -2 0 -18 -24
-27 -21 -47 14 -86 24 -28 33 -50 41 -103 13 -96 23 -138 52 -220 35 -102 50
-218 43 -342 -3 -58 -2 -178 3 -266 5 -88 7 -324 3 -525 -6 -362 -6 -364 -29
-387 -15 -15 -35 -23 -58 -23 -25 0 -38 -6 -46 -20 -6 -10 -30 -33 -54 -50
-49 -33 -156 -141 -170 -170 -5 -11 -50 -55 -101 -99 -51 -44 -105 -100 -121
-125 -28 -45 -55 -62 -104 -68 -19 -2 -28 -13 -40 -47 -12 -36 -21 -46 -47
-53 -21 -6 -40 -22 -59 -52 -16 -26 -54 -62 -92 -87 -35 -24 -73 -55 -84 -69
-11 -13 -31 -32 -46 -42 -14 -9 -31 -27 -38 -39 -6 -12 -26 -27 -44 -33 -26
-9 -36 -20 -49 -56 -15 -41 -20 -45 -53 -48 -34 -3 -37 -6 -59 -65 -19 -52
-38 -77 -114 -152 -143 -142 -197 -233 -334 -567 -96 -234 -148 -341 -164
-335 -6 2 -33 59 -59 128 -26 68 -77 183 -113 256 -70 137 -91 159 -147 151
-52 -7 -44 -140 16 -262 l24 -48 -36 6 c-21 3 -53 6 -73 6 -19 0 -43 6 -52 13
-16 11 -15 16 8 72 17 41 25 79 25 120 0 76 -18 105 -65 105 -46 0 -61 -27
-130 -238 -66 -200 -103 -265 -151 -270 -17 -2 -35 3 -41 10 -5 7 -27 63 -47
123 -50 143 -140 332 -211 442 -110 168 -194 261 -487 539 -170 160 -246 226
-268 231 -22 4 -32 12 -36 32 -9 42 -20 56 -45 56 -35 0 -49 12 -71 61 -21 49
-20 49 -49 32 -14 -8 -23 -9 -25 -3 -18 44 -55 93 -82 106 -18 9 -46 35 -62
58 -16 22 -42 47 -58 55 -15 8 -48 36 -71 61 -24 26 -60 58 -80 72 -21 14 -38
35 -41 51 -4 20 -13 28 -42 35 -26 6 -39 16 -47 35 -6 15 -24 33 -40 40 -16 7
-54 40 -86 73 l-58 61 7 161 c5 89 9 187 10 217 1 30 10 69 19 86 15 30 15 33
-3 54 -24 28 -24 22 1 65 20 33 20 37 5 60 -23 34 -20 54 15 100 l30 40 -31 8
c-36 9 -36 15 -9 96 19 54 20 69 10 100 -7 20 -15 83 -18 141 -3 58 -10 110
-15 117 -6 8 -3 41 10 95 11 46 30 127 42 182 13 57 37 126 56 164 32 61 33
68 18 79 -15 11 -15 18 4 90 12 43 28 119 37 169 8 50 24 117 35 149 11 33 20
85 20 119 0 34 5 79 10 101 14 61 48 307 60 435 20 229 39 625 30 665 -4 22
-11 54 -15 71 -6 25 3 51 50 145 72 142 142 268 165 294 10 11 20 40 24 64 4
25 30 86 61 141 107 188 197 413 229 572 27 131 18 221 -28 275 -23 27 -53 25
-42 -4 3 -8 -3 -40 -14 -71 -11 -31 -20 -72 -20 -90 0 -24 -8 -41 -29 -61 -22
-20 -30 -39 -35 -83 -6 -45 -14 -64 -37 -85 -24 -23 -29 -36 -29 -75 0 -59
-13 -94 -38 -100 -15 -4 -20 -17 -25 -59 -3 -36 -22 -88 -54 -154 -26 -55 -56
-124 -66 -152 -10 -29 -33 -69 -52 -89 -24 -25 -35 -46 -35 -66 0 -40 -26 -93
-56 -113 -18 -12 -24 -24 -24 -52 0 -20 -18 -78 -41 -132 -23 -53 -45 -108
-49 -122 -4 -15 -11 -171 -15 -348 -6 -311 -12 -368 -35 -396 -8 -10 -8 -24
-1 -52 17 -60 13 -116 -19 -278 -17 -82 -30 -171 -30 -197 0 -40 -4 -50 -25
-64 -20 -13 -23 -19 -14 -36 7 -14 7 -23 -1 -33 -9 -11 -9 -27 0 -66 22 -93
-7 -219 -55 -241 -22 -10 -22 -11 -4 -29 23 -23 24 -44 5 -112 -8 -29 -17 -69
-21 -89 -3 -21 -17 -51 -30 -67 -22 -26 -24 -35 -19 -88 7 -68 -8 -152 -43
-238 -21 -52 -25 -81 -29 -215 -2 -85 -9 -184 -15 -220 -9 -54 -8 -84 6 -168
14 -83 16 -152 13 -369 -3 -267 -3 -268 23 -339 51 -140 137 -242 362 -430 83
-70 204 -177 267 -238 105 -101 147 -136 248 -204 18 -13 41 -36 50 -52 9 -16
28 -31 43 -34 16 -3 29 -13 32 -26 3 -11 21 -27 40 -35 19 -8 45 -30 57 -49
29 -48 99 -109 223 -194 98 -68 188 -148 209 -187 13 -23 2 -45 -22 -45 -28 0
-36 -25 -16 -55 22 -33 20 -55 -3 -55 -35 0 -33 -19 3 -41 38 -22 46 -46 21
-55 -22 -9 -18 -32 10 -50 32 -21 40 -50 24 -82 -10 -18 -11 -26 -3 -29 6 -2
20 -10 30 -17 17 -13 17 -16 4 -41 -14 -26 -13 -29 4 -39 10 -6 31 -21 45 -33
26 -21 26 -22 9 -51 -22 -36 -22 -42 -4 -42 40 0 136 -136 136 -194 0 -36 10
-56 29 -56 38 0 56 -55 26 -80 -12 -10 -29 3 -102 78 -105 107 -188 163 -297
199 -69 22 -99 26 -201 27 -134 0 -222 -16 -375 -70 -52 -18 -146 -47 -208
-64 -63 -17 -140 -44 -173 -60 -32 -17 -70 -30 -84 -30 -23 0 -237 118 -401
221 l-60 38 -47 148 c-59 182 -77 267 -77 360 l0 72 -42 23 c-51 28 -83 74
-104 147 -9 31 -38 104 -65 162 -28 59 -55 137 -63 176 -7 39 -23 85 -35 101
-11 17 -21 37 -21 46 0 8 -13 25 -30 37 -20 15 -32 34 -36 58 -3 20 -17 91
-30 157 -27 137 -29 174 -12 254 10 50 9 67 -10 136 -25 96 -42 189 -42 233 0
23 -10 45 -35 74 -24 28 -35 51 -35 72 0 40 -7 47 -31 32 -14 -9 -21 -9 -31 1
-35 35 -37 -4 -4 -74 l23 -50 -19 -38 c-16 -30 -20 -66 -25 -199 -8 -241 -9
-233 37 -330 31 -65 46 -116 60 -200 26 -152 65 -277 177 -572 61 -160 98
-272 103 -312 4 -34 17 -77 28 -95 11 -19 22 -59 25 -96 3 -34 12 -74 21 -87
9 -13 13 -31 10 -40 -4 -10 5 -33 23 -58 17 -23 42 -75 57 -115 14 -40 33 -86
41 -102 20 -38 19 -69 -2 -92 -15 -17 -15 -18 7 -18 14 0 41 -19 71 -50 27
-28 56 -50 65 -50 9 0 36 -18 59 -39 25 -23 58 -42 78 -46 24 -5 37 -14 41
-27 4 -17 10 -20 37 -14 25 5 41 1 70 -19 42 -27 103 -44 164 -45 22 0 62 -7
89 -15 65 -20 115 -19 173 4 26 10 75 21 108 25 33 4 69 13 80 20 11 7 45 16
76 19 31 4 89 20 129 37 41 17 117 44 170 59 52 16 109 35 127 42 25 10 37 10
58 1 32 -15 72 -98 81 -168 9 -69 23 -86 98 -122 36 -17 72 -43 82 -57 15 -24
15 -28 0 -68 -8 -23 -21 -69 -27 -102 -6 -32 -17 -76 -26 -96 -13 -34 -22 -40
-81 -60 -135 -45 -408 -160 -452 -191 -25 -17 -61 -46 -80 -63 -50 -47 -107
-80 -207 -121 -129 -53 -202 -92 -257 -135 -56 -45 -82 -54 -132 -46 -38 6
-57 -14 -35 -36 19 -19 12 -35 -26 -54 -25 -12 -44 -31 -55 -55 -10 -20 -27
-42 -39 -48 -11 -7 -38 -27 -59 -46 -20 -19 -54 -41 -74 -49 -20 -8 -36 -22
-36 -31 0 -9 -21 -38 -47 -64 -27 -27 -67 -73 -90 -104 -56 -73 -346 -535
-429 -683 -96 -172 -203 -399 -219 -466 -7 -32 -18 -64 -24 -71 -21 -25 -42
-102 -62 -225 -21 -133 -39 -186 -90 -256 -32 -44 -34 -75 -4 -75 24 0 18 -22
-25 -79 -38 -51 -39 -54 -25 -81 20 -39 20 -41 -15 -120 -17 -39 -30 -86 -30
-109 0 -22 -5 -52 -10 -67 -8 -21 -7 -29 5 -38 11 -8 15 -36 17 -106 l3 -94
33 -7 c32 -6 37 -2 33 29 -3 18 39 165 50 176 6 6 13 6 21 -2 32 -32 33 -19
12 161 -6 54 -5 61 25 101 19 28 36 69 45 110 7 36 21 77 30 90 11 18 16 48
16 103 0 131 32 233 99 317 17 21 31 47 31 58 0 10 13 42 30 71 16 29 39 80
50 113 11 32 35 84 54 114 18 30 36 70 40 88 3 19 16 47 27 64 12 17 25 44 29
62 5 26 10 31 32 28 21 -2 27 3 31 25 3 16 45 98 93 183 48 85 109 201 136
257 27 57 53 105 57 107 4 3 13 1 21 -4 10 -6 26 4 57 35 24 24 43 48 43 53 0
4 21 23 46 41 25 17 48 41 51 52 4 14 11 18 24 14 14 -5 22 1 30 22 20 51 26
58 48 58 16 0 28 12 45 45 16 33 39 56 86 87 36 23 110 75 164 115 376 277
399 291 521 312 91 16 86 15 221 72 56 23 124 47 151 52 108 19 98 -8 -39
-111 -176 -131 -282 -244 -358 -382 -19 -33 -57 -91 -85 -130 -271 -366 -441
-725 -519 -1094 -31 -146 -50 -329 -42 -401 5 -39 2 -69 -9 -99 -12 -34 -12
-47 -3 -58 6 -8 12 -59 14 -123 2 -80 7 -116 18 -132 28 -39 20 -108 -25 -220
-22 -57 -52 -146 -65 -198 -14 -52 -36 -109 -49 -126 -13 -17 -29 -53 -36 -80
-7 -27 -16 -57 -21 -67 -5 -10 -5 -25 2 -36 8 -15 6 -29 -7 -55 -15 -33 -15
-37 0 -54 30 -33 11 -198 -26 -240 -9 -10 -19 -38 -23 -62 -4 -25 -12 -54 -18
-65 -6 -11 -11 -33 -12 -50 -4 -112 -16 -204 -39 -297 -17 -71 -25 -130 -24
-175 2 -55 -2 -75 -21 -106 -20 -33 -21 -41 -10 -68 12 -27 11 -32 -13 -57
l-27 -28 28 -38 c23 -34 27 -47 25 -105 -1 -36 -9 -88 -17 -116 -10 -30 -31
-208 -52 -440 -35 -376 -36 -392 -20 -452 20 -76 20 -155 1 -218 -16 -55 -13
-65 19 -65 23 0 23 -2 28 -132 7 -166 55 -527 74 -549 19 -21 17 -39 -6 -74
-28 -42 -25 -54 16 -71 43 -18 59 -14 67 18 3 13 17 52 32 88 24 57 27 73 22
137 -3 45 -2 75 5 79 6 4 8 25 4 55 -5 38 -3 50 9 57 14 7 11 21 -24 115 -34
90 -41 119 -41 180 0 39 -7 107 -15 150 -23 120 -20 193 10 249 28 53 31 91
10 128 -20 35 -18 47 10 72 29 25 31 35 8 60 -15 17 -15 20 12 48 l29 30 -22
30 c-30 39 -28 56 8 69 17 5 30 13 30 17 0 5 -12 26 -27 47 l-27 39 27 20 c30
22 34 45 12 74 -22 29 -18 41 15 53 36 12 37 15 5 57 l-26 33 15 93 c18 111
35 132 97 122 54 -9 64 17 20 56 -38 35 -39 53 -6 68 30 14 32 33 5 57 -32 29
-26 53 15 61 19 3 35 11 35 16 0 6 -14 26 -31 45 -39 45 -38 86 4 91 32 4 32
3 7 44 -26 43 -25 72 2 90 21 14 22 17 8 57 -15 47 -7 61 38 61 29 0 28 11 -3
40 -32 31 -32 58 1 70 21 8 25 15 19 33 -20 64 -19 67 13 67 37 0 49 15 29 38
-8 9 -20 28 -27 41 -10 20 -8 26 16 53 28 29 29 29 11 59 -20 36 -21 58 -5 93
13 31 43 42 64 25 8 -6 16 -10 18 -8 1 2 13 49 25 104 12 55 26 115 31 132 4
18 6 51 3 74 -5 36 -3 44 22 63 l27 22 -21 42 c-27 53 -27 58 10 91 l30 28
-23 38 c-28 49 -28 134 1 262 19 85 20 110 14 315 -11 342 -9 594 6 678 37
210 107 346 248 481 59 56 110 122 195 250 111 166 200 280 211 269 3 -3 -5
-57 -18 -122 -49 -251 -60 -376 -60 -683 0 -348 18 -494 96 -768 60 -213 142
-393 253 -557 85 -126 176 -225 271 -295 112 -83 155 -134 215 -251 42 -83 63
-113 89 -128 45 -26 109 -25 171 4 l50 24 39 -22 c23 -13 56 -22 83 -22 38 0
46 4 61 30 10 17 36 40 57 53 28 15 44 34 55 64 20 52 70 109 193 220 106 95
233 241 299 343 77 118 204 446 272 700 41 154 77 357 92 514 22 235 -2 591
-50 753 -11 39 6 64 39 56 26 -7 85 -75 133 -151 20 -33 100 -131 177 -218
217 -244 267 -330 291 -511 13 -99 7 -280 -16 -493 -22 -205 -20 -348 9 -493
29 -144 43 -287 51 -527 5 -138 11 -189 27 -240 12 -36 23 -71 24 -78 2 -7 17
-18 34 -23 35 -13 38 -23 44 -134 2 -44 11 -145 21 -225 17 -153 25 -249 28
-341 1 -31 8 -63 16 -72 12 -15 21 -117 20 -241 0 -22 7 -46 16 -57 13 -14 14
-22 5 -39 -16 -29 -5 -54 40 -90 50 -39 62 -74 44 -126 -17 -50 -17 -69 0 -83
12 -10 21 -67 33 -196 1 -22 4 -56 6 -75 2 -19 12 -52 22 -73 19 -37 19 -40 1
-88 l-17 -50 25 -24 c25 -23 25 -25 11 -66 -20 -55 -19 -76 4 -84 40 -13 46
-33 21 -77 l-23 -41 33 -27 33 -27 -10 -107 c-9 -97 -13 -109 -39 -137 -28
-29 -28 -30 -11 -58 24 -41 22 -60 -18 -142 -40 -84 -43 -109 -14 -116 17 -5
19 -10 12 -37 -4 -17 -8 -94 -8 -171 0 -131 2 -144 27 -197 15 -32 31 -58 37
-58 12 0 81 40 81 47 0 3 -9 20 -19 37 l-20 32 36 94 c25 69 37 117 40 175 4
59 10 85 24 100 30 33 34 77 10 99 -25 23 -27 76 -6 156 8 30 15 96 15 145 0
111 11 153 50 190 l30 29 -32 33 -32 33 30 31 29 30 -33 27 c-26 22 -30 30
-20 40 6 6 17 12 24 12 24 0 21 25 -7 58 -33 37 -37 67 -12 80 15 9 14 16 -15
70 -38 71 -38 74 -10 87 36 16 33 40 -8 64 l-37 22 24 25 24 25 -29 52 c-24
45 -26 56 -16 78 10 22 8 33 -15 79 -15 30 -24 61 -21 73 3 11 0 41 -6 67 -7
31 -8 61 -1 86 7 32 14 40 38 44 39 7 41 24 5 50 -38 27 -38 35 2 49 l33 12
-33 25 c-53 42 -58 61 -26 95 l28 29 -37 34 c-40 36 -47 69 -22 102 22 29 18
53 -15 81 -34 28 -36 42 -15 84 15 29 15 31 -9 60 -25 29 -25 31 -9 63 15 32
15 36 -4 63 -31 44 -33 60 -12 79 26 23 24 46 -7 75 -56 51 -71 152 -33 223
19 35 19 41 5 84 -8 26 -15 58 -15 72 1 40 -28 140 -46 160 -13 14 -14 23 -6
39 18 34 12 56 -25 92 -29 28 -35 39 -31 65 4 20 -1 38 -14 55 -10 13 -28 56
-39 94 -12 39 -30 92 -41 119 -23 54 -19 90 11 106 16 8 20 21 20 58 0 27 5
53 10 58 7 7 8 19 1 36 -5 14 -8 101 -6 198 3 109 0 180 -6 193 -8 13 -8 22 0
30 16 16 14 53 -5 89 -13 24 -15 46 -10 94 14 135 -22 260 -144 499 -48 94
-93 188 -100 210 -25 78 -79 172 -185 320 -59 83 -124 185 -146 227 -25 51
-49 83 -69 94 -51 31 -68 86 -44 147 3 10 -3 17 -21 21 -14 4 -54 33 -89 65
-34 32 -89 75 -122 96 -79 50 -134 94 -134 107 0 19 103 0 246 -46 77 -25 170
-52 208 -61 75 -17 151 -54 235 -115 52 -37 54 -40 32 -48 -22 -8 -20 -10 27
-30 28 -12 59 -22 69 -22 29 -1 76 -31 155 -97 40 -35 98 -77 128 -95 41 -25
83 -68 170 -174 63 -77 146 -170 184 -205 75 -70 106 -112 126 -174 22 -68
117 -242 175 -322 30 -41 55 -79 55 -84 0 -4 9 -11 20 -14 24 -8 50 -54 50
-88 0 -30 37 -122 104 -256 29 -58 61 -139 71 -180 13 -54 27 -84 50 -110 55
-62 75 -113 91 -239 11 -92 18 -120 35 -138 19 -21 21 -31 17 -94 -5 -66 -4
-74 21 -103 21 -25 27 -44 32 -109 4 -54 11 -83 23 -97 10 -11 32 -66 50 -123
27 -86 36 -104 54 -106 12 -2 27 -13 33 -24 22 -41 29 6 23 167 -5 133 -10
166 -26 194 -19 34 -17 42 16 54 5 2 -5 28 -22 59 -27 47 -31 63 -26 96 5 35
2 47 -26 85 -27 38 -34 59 -41 129 -17 153 -49 261 -174 595 -83 221 -76 205
-131 282 -33 47 -44 70 -39 85 4 12 9 35 12 53 4 25 1 32 -16 38 -16 5 -21 15
-21 42 0 29 -4 36 -30 46 -29 11 -40 39 -20 52 20 12 9 27 -30 42 -32 13 -39
20 -34 35 7 24 -18 64 -46 73 -15 5 -19 12 -15 26 9 28 -67 116 -108 127 -30
8 -32 12 -37 59 -6 54 -42 113 -112 184 -21 21 -38 45 -38 53 0 9 -26 29 -60
46 -34 17 -83 52 -110 78 -40 39 -50 55 -50 81 0 40 -69 126 -108 136 -15 3
-56 23 -92 44 -92 55 -429 221 -446 221 -8 0 -21 15 -29 34 -11 26 -24 37 -52
46 -21 7 -67 30 -103 50 -36 21 -82 43 -102 50 -29 9 -38 17 -38 34 0 34 -28
53 -90 60 -141 17 -215 42 -253 83 -18 21 -61 122 -72 172 -9 40 22 71 70 71
47 0 91 23 99 52 3 13 6 44 6 69 0 104 57 219 107 219 8 0 88 -27 176 -59 339
-123 451 -151 611 -151 124 0 212 17 344 66 145 54 345 157 375 194 15 17 36
62 47 100 13 42 34 85 55 110 32 38 35 48 35 105 0 48 5 68 21 89 23 29 51
116 51 155 0 13 11 33 26 46 26 23 26 23 8 44 -18 20 -18 21 13 50 36 34 36
34 14 72 -20 33 -24 21 50 143 21 33 39 78 43 105 3 25 12 56 20 68 8 12 14
43 14 69 0 28 16 93 39 163 50 147 91 308 135 534 19 98 39 183 43 190 4 7 9
50 9 97 1 47 5 134 10 194 8 98 7 112 -8 132 -10 12 -18 36 -18 52 0 45 -10
62 -34 62 -37 0 -43 -13 -49 -109 -6 -101 -16 -123 -43 -100 -15 12 -16 6 -9
-85 7 -96 7 -99 -16 -117 l-23 -17 17 -54 c18 -56 18 -55 -28 -83 -16 -10 -16
-14 1 -62 20 -57 19 -65 -25 -271 -15 -73 -29 -108 -65 -164 -25 -39 -46 -78
-46 -85 0 -28 -165 -404 -242 -552 -111 -213 -136 -295 -158 -508 -16 -156
-38 -196 -76 -138 -21 32 -30 31 -48 -3 -10 -19 -37 -39 -80 -60 -36 -17 -70
-40 -76 -51 -6 -12 -20 -21 -31 -21 -12 0 -39 -21 -65 -49 -48 -54 -96 -76
-140 -65 -16 3 -74 27 -129 52 -72 33 -114 47 -152 48 -28 2 -64 9 -80 17 -15
8 -53 17 -83 21 -30 4 -124 22 -210 41 -85 18 -178 36 -206 40 -111 14 -243
-51 -401 -199 -93 -87 -107 -81 -45 18 21 34 56 102 77 151 21 50 50 115 65
145 16 30 35 96 45 145 9 50 26 106 37 126 15 28 18 41 10 56 -6 10 -9 63 -7
121 3 88 7 108 29 146 14 24 43 55 63 67 20 13 73 56 118 97 44 41 99 83 122
94 22 12 46 31 52 44 6 13 28 35 51 49 22 14 46 35 52 46 7 11 30 30 52 41 22
11 43 31 49 46 9 26 43 53 150 120 29 18 84 65 122 105 39 39 96 90 129 112
32 22 123 103 201 181 79 78 171 165 205 195 73 63 105 121 124 222 48 246 49
256 32 273 -20 19 -20 25 -1 50 18 24 19 53 1 95 -10 26 -12 59 -7 142 6 89
11 112 30 138 21 28 22 34 11 102 -6 39 -8 95 -4 125 5 45 3 56 -14 75 -17 19
-20 35 -20 122 0 113 -14 191 -79 445 -26 103 -47 208 -50 255 -3 58 -11 93
-29 127 -19 37 -26 70 -33 161 -5 62 -14 125 -22 138 -7 13 -16 49 -20 79 -4
30 -17 127 -29 215 -32 238 -37 451 -15 569 17 89 17 97 1 137 -21 51 -23 127
-6 233 16 104 8 151 -47 271 -66 145 -93 230 -100 313 -6 72 -6 73 -49 103
-54 37 -87 104 -110 222 -11 56 -26 103 -42 125 -14 20 -36 66 -49 101 -13 36
-35 78 -49 94 -24 28 -25 34 -18 108 3 44 4 79 0 79 -4 0 -14 -17 -22 -37
l-16 -36 -20 44 c-37 84 -50 149 -37 201 9 38 8 51 -5 77 -9 17 -18 31 -20 31
-2 0 -10 -10 -18 -22z"/>
</g>
</svg>
