<?xml version="1.0" standalone="no"?>
<!DOCTYPE svg PUBLIC "-//W3C//DTD SVG 20010904//EN"
 "http://www.w3.org/TR/2001/REC-SVG-20010904/DTD/svg10.dtd">
<svg version="1.0" xmlns="http://www.w3.org/2000/svg"
 width="619.000000pt" height="145.000000pt" viewBox="0 0 619.000000 145.000000"
 preserveAspectRatio="xMidYMid meet">
<metadata>
Created by potrace 1.16, written by Peter Selinger 2001-2019
</metadata>
<g transform="translate(0.000000,145.000000) scale(0.100000,-0.100000)"
fill="#000000" stroke="none">
<path d="M4210 1413 c-19 -9 -62 -17 -95 -18 -87 -4 -162 -30 -400 -140 -133
-62 -175 -76 -207 -70 -63 11 -625 54 -848 66 -350 18 -737 16 -925 -5 -387
-42 -483 -58 -665 -111 -63 -18 -149 -36 -190 -40 -164 -13 -230 -45 -364
-180 -69 -69 -131 -119 -196 -160 -52 -32 -125 -78 -161 -102 -41 -26 -78 -43
-97 -43 -16 0 -35 -7 -42 -15 -18 -21 13 -82 52 -104 17 -9 46 -31 64 -48 22
-22 43 -33 62 -33 35 0 187 -73 265 -127 95 -67 331 -153 517 -188 47 -9 124
-25 172 -36 78 -17 109 -19 320 -12 252 7 265 7 963 3 291 -2 518 1 595 8 69
6 199 16 290 23 l166 13 59 -37 c33 -20 76 -39 95 -42 29 -4 30 -3 10 4 -33
11 -70 34 -70 43 0 4 15 5 33 2 l32 -5 -32 15 c-18 8 -33 19 -33 24 0 6 51 13
113 17 112 7 212 20 384 50 89 16 93 16 120 -2 47 -33 124 -56 187 -57 39 -1
70 -8 87 -19 18 -12 36 -16 54 -11 15 4 30 2 34 -3 20 -30 257 -64 298 -42 35
19 30 60 -13 108 -33 35 -45 41 -108 51 -39 6 -96 18 -126 26 -30 7 -74 18
-97 24 -24 6 -43 14 -43 19 0 8 231 86 350 118 93 25 411 26 455 1 30 -16 61
-29 80 -33 6 -1 12 -3 15 -4 19 -9 123 -16 145 -10 21 6 121 -25 200 -62 46
-22 85 -39 88 -39 2 0 7 10 10 21 5 17 11 20 29 15 13 -3 54 -12 92 -18 61
-11 69 -11 81 5 7 9 19 17 28 17 9 0 18 12 22 30 6 26 11 30 41 30 27 0 34 4
34 20 0 11 -4 20 -10 20 -5 0 -10 6 -10 13 0 7 -12 20 -27 29 -58 34 -99 83
-116 137 -9 29 -17 62 -17 72 0 11 -4 19 -10 19 -22 0 -5 123 26 198 8 18 14
45 14 60 0 16 12 42 30 62 16 19 29 41 30 47 0 7 15 19 33 27 49 23 64 38 75
79 14 52 -1 94 -36 102 -50 10 -151 9 -164 -3 -8 -6 -57 -16 -109 -22 -97 -11
-156 -27 -174 -46 -5 -6 -39 -21 -75 -34 -36 -13 -82 -32 -103 -42 -22 -11
-46 -17 -54 -14 -8 3 -24 -1 -36 -9 -25 -17 -41 -20 -32 -5 9 14 0 13 -43 -6
-20 -9 -50 -20 -67 -24 -16 -5 -50 -16 -75 -26 -66 -25 -238 -24 -367 1 -57
11 -103 22 -103 26 0 10 55 46 90 57 19 7 59 13 87 14 29 2 53 8 53 13 -1 14
-81 81 -108 89 -28 9 -78 -20 -123 -72 -43 -50 -97 -82 -137 -82 -48 0 -566
58 -634 72 -32 6 -58 14 -58 17 0 14 141 60 266 86 116 25 131 31 126 47 -3
13 1 18 16 18 15 0 19 5 15 20 -4 14 0 20 11 20 10 0 13 6 10 15 -4 8 -15 15
-25 15 -10 0 -19 7 -19 15 0 8 5 15 10 15 12 0 13 20 2 36 -13 20 -56 23 -92
7z"/>
</g>
</svg>
