<?xml version="1.0" standalone="no"?>
<!DOCTYPE svg PUBLIC "-//W3C//DTD SVG 20010904//EN"
 "http://www.w3.org/TR/2001/REC-SVG-20010904/DTD/svg10.dtd">
<svg version="1.0" xmlns="http://www.w3.org/2000/svg"
 width="285.000000pt" height="1536.000000pt" viewBox="0 0 285.000000 1536.000000"
 preserveAspectRatio="xMidYMid meet">
<metadata>
Created by potrace 1.16, written by Peter Selinger 2001-2019
</metadata>
<g transform="translate(0.000000,1536.000000) scale(0.100000,-0.100000)"
fill="#000000" stroke="none">
<path d="M1200 15299 c0 -35 7 -147 15 -249 8 -102 15 -193 15 -202 0 -34 -17
-17 -40 39 -28 67 -37 57 -17 -19 13 -50 13 -56 -3 -76 -17 -21 -18 -20 -34
46 -18 68 -86 231 -98 232 -3 0 1 -21 8 -47 21 -67 74 -285 74 -301 0 -9 -22
4 -52 30 -29 24 -60 48 -68 53 -13 8 -13 6 -1 -11 8 -10 34 -39 58 -64 40 -42
42 -47 29 -65 -14 -19 -22 -13 -157 120 -78 77 -138 133 -133 125 4 -8 57 -76
118 -150 60 -74 114 -140 119 -147 8 -11 -2 -53 -69 -299 -16 -61 -43 -89 -76
-79 -28 8 -322 140 -543 243 -159 74 -314 136 -322 129 -2 -2 101 -56 229
-120 128 -63 319 -162 423 -219 168 -92 190 -107 193 -131 2 -18 -2 -29 -12
-33 -9 -3 -16 -12 -16 -20 0 -8 -7 -14 -15 -14 -8 0 -15 -9 -15 -19 0 -11 -4
-23 -10 -26 -5 -3 -10 -21 -10 -39 0 -19 -7 -39 -15 -46 -9 -8 -13 -21 -9 -35
3 -13 -2 -39 -11 -59 -10 -20 -14 -43 -11 -52 3 -9 3 -21 -1 -27 -4 -7 -9 -36
-10 -65 -2 -41 2 -57 18 -73 19 -19 19 -20 -6 -152 -13 -72 -38 -215 -54 -317
-38 -232 -68 -384 -136 -675 -96 -412 -175 -884 -269 -1625 -171 -1336 -244
-2326 -277 -3750 -12 -532 -7 -1493 11 -1770 37 -604 111 -1239 175 -1510 43
-180 122 -605 155 -828 39 -271 72 -437 115 -582 22 -76 35 -143 38 -198 4
-79 3 -82 -18 -82 -32 0 -47 -23 -43 -67 3 -35 6 -38 36 -41 24 -2 32 -8 32
-22 0 -12 -5 -17 -13 -14 -20 7 -35 -16 -43 -63 -5 -34 -3 -43 16 -56 12 -8
30 -13 41 -10 16 4 19 0 19 -25 0 -21 -6 -31 -20 -35 -21 -5 -27 -46 -13 -95
5 -20 11 -23 34 -18 24 4 29 1 38 -26 10 -27 8 -35 -9 -53 -26 -27 -25 -65 1
-99 14 -18 27 -25 40 -21 14 5 20 0 25 -22 3 -15 12 -48 20 -73 7 -25 25 -99
39 -165 14 -66 32 -139 40 -162 l14 -43 -28 0 c-15 0 -32 -5 -39 -12 -15 -15
-16 -57 -2 -93 9 -25 13 -26 50 -20 32 5 40 4 40 -8 0 -9 3 -22 6 -30 4 -12
-3 -16 -28 -19 -32 -3 -33 -4 -33 -48 l0 -45 37 1 c29 1 38 -4 47 -23 17 -36
14 -41 -22 -45 -31 -3 -32 -4 -30 -47 2 -53 6 -57 40 -42 22 10 29 9 42 -4 14
-14 14 -16 -6 -21 -30 -8 -37 -32 -18 -61 12 -17 24 -23 42 -21 15 2 28 -3 30
-9 3 -8 -4 -13 -17 -13 -26 0 -60 -17 -60 -30 0 -6 9 -19 20 -30 14 -14 27
-18 50 -14 38 8 40 -10 3 -28 -35 -17 -47 -39 -39 -72 9 -35 51 -52 86 -34 14
7 28 14 32 16 3 2 15 -17 26 -41 14 -31 41 -61 88 -99 210 -169 414 -181 580
-35 53 47 123 136 153 195 21 41 23 42 44 27 48 -34 100 -7 95 49 -2 24 -10
34 -35 46 -41 19 -37 36 9 32 67 -6 81 56 15 71 -43 11 -51 32 -8 24 50 -10
88 63 41 78 -11 3 -20 11 -20 16 0 17 32 23 53 10 25 -16 37 -1 37 52 0 34 -2
37 -29 37 -37 0 -45 11 -30 44 10 21 19 26 50 26 42 0 52 14 42 60 -4 25 -10
30 -34 30 -23 0 -29 4 -29 23 0 39 13 49 46 37 38 -15 56 9 52 70 -3 43 -4 45
-36 48 -30 3 -33 6 -28 25 4 12 25 99 46 192 66 283 60 265 85 259 46 -11 79
65 46 108 -24 30 -25 37 -11 73 8 21 13 24 28 16 28 -15 42 5 42 62 0 40 -3
50 -20 54 -20 5 -25 19 -14 46 3 9 13 13 25 10 42 -11 62 41 39 101 -6 16 -17
26 -30 26 -22 0 -25 7 -11 29 5 8 18 12 30 8 28 -7 41 19 32 63 -5 28 -12 36
-36 41 -20 3 -29 10 -26 20 2 8 6 50 8 94 3 47 17 119 34 176 67 221 81 342
134 1109 19 282 31 389 50 475 59 265 97 560 155 1192 22 243 42 448 45 455
11 34 129 1809 154 2328 18 377 22 1503 6 1768 -28 457 -55 748 -101 1067 -85
603 -196 1294 -254 1584 -82 408 -96 501 -110 721 -11 177 -39 366 -70 474
-10 37 -15 68 -9 71 11 8 10 123 -2 131 -6 3 -7 15 -4 25 4 11 -1 36 -10 55
-10 22 -14 46 -10 63 4 21 2 30 -9 34 -10 4 -16 19 -16 41 0 19 -5 38 -11 41
-6 4 -8 14 -5 22 4 9 -1 17 -14 20 -11 3 -20 11 -20 18 0 8 -9 17 -20 20 -15
5 -20 15 -20 44 l0 38 198 106 c108 58 261 136 340 173 318 150 70 71 -388
-125 l-164 -70 -48 52 c-45 50 -47 54 -48 114 0 34 -3 68 -6 76 -3 10 15 31
56 62 34 26 59 49 56 52 -2 3 -34 -11 -70 -30 -44 -23 -66 -30 -70 -22 -2 7
50 66 116 131 65 65 124 128 130 139 12 23 13 24 -153 -128 -59 -53 -109 -97
-112 -97 -4 0 -13 13 -21 29 -15 28 -14 30 65 137 43 59 79 112 79 116 0 5
-41 -37 -91 -92 -51 -55 -94 -98 -97 -95 -3 2 6 18 19 34 103 128 149 191 140
191 -6 0 -50 -45 -97 -100 -48 -55 -90 -100 -93 -100 -3 0 -16 8 -28 18 l-22
17 28 86 c15 47 62 152 104 234 43 81 77 151 77 154 0 3 -23 -26 -51 -64 -62
-86 -135 -227 -165 -320 -12 -38 -27 -71 -33 -73 -6 -2 1 27 16 65 36 96 84
246 79 251 -7 7 -66 -116 -102 -212 -18 -48 -34 -89 -36 -91 -2 -2 -16 -1 -31
2 -28 6 -29 7 -27 67 1 33 1 75 0 91 -1 29 -2 28 -14 -12 -8 -23 -17 -63 -21
-89 l-7 -46 -44 5 c-25 2 -48 7 -51 11 -3 3 -1 37 6 75 6 39 11 96 11 128 l-1
58 -24 -75 c-14 -41 -28 -96 -31 -121 -3 -26 -9 -51 -13 -56 -3 -6 -32 -14
-65 -18 l-59 -7 8 39 c17 91 17 99 5 80 -6 -9 -20 -43 -31 -74 -20 -58 -32
-73 -60 -73 -12 0 -19 24 -33 118 -19 130 -63 352 -71 360 -3 3 -5 -24 -5 -59z
m463 -1604 c50 -51 56 -166 10 -208 -25 -22 -106 -40 -146 -33 -55 10 -97 68
-97 131 0 81 62 134 156 135 42 0 56 -5 77 -25z"/>
</g>
</svg>
