<?xml version="1.0" standalone="no"?>
<!DOCTYPE svg PUBLIC "-//W3C//DTD SVG 20010904//EN"
 "http://www.w3.org/TR/2001/REC-SVG-20010904/DTD/svg10.dtd">
<svg version="1.0" xmlns="http://www.w3.org/2000/svg"
 width="480.000000pt" height="285.000000pt" viewBox="0 0 480.000000 285.000000"
 preserveAspectRatio="xMidYMid meet">
<metadata>
Created by potrace 1.16, written by Peter Selinger 2001-2019
</metadata>
<g transform="translate(0.000000,285.000000) scale(0.100000,-0.100000)"
fill="#000000" stroke="none">
<path d="M4398 2735 c-3 -4 -17 -8 -30 -11 -70 -12 -88 -17 -88 -26 0 -5 -5
-6 -10 -3 -7 4 -9 -2 -4 -19 6 -27 -9 -37 -20 -13 -3 6 -5 -2 -3 -20 3 -28 0
-33 -23 -38 -15 -3 -33 -5 -40 -3 -8 2 -16 -5 -18 -14 -2 -11 2 -18 11 -18 11
0 13 -7 9 -22 -5 -19 -2 -21 26 -15 25 5 32 3 32 -8 0 -11 7 -14 24 -11 25 4
52 -15 39 -27 -3 -4 -2 -7 3 -7 6 0 10 -31 10 -70 0 -38 -2 -70 -4 -70 -2 0
-10 7 -18 15 -9 8 -19 15 -24 15 -12 0 0 -37 16 -51 19 -15 20 -129 1 -129 -7
0 -18 5 -25 12 -8 8 -12 8 -12 1 0 -6 9 -17 20 -24 20 -14 20 -16 4 -99 -9
-47 -22 -105 -30 -129 -8 -24 -12 -47 -9 -51 5 -8 -42 -168 -65 -225 -4 -11
-22 -66 -39 -121 -17 -56 -39 -112 -49 -125 -9 -13 -26 -40 -36 -59 -18 -32
-61 -89 -87 -115 -5 -5 -51 -52 -101 -103 -82 -83 -104 -98 -205 -148 -112
-55 -114 -56 -216 -59 -56 -2 -115 -6 -132 -9 -76 -14 -178 -51 -199 -71 -18
-19 -325 -162 -334 -157 -2 2 -8 0 -11 -5 -5 -7 -34 -18 -101 -38 -3 -1 -18
-7 -35 -14 -57 -23 -130 -34 -247 -36 -65 -2 -144 -6 -175 -10 -32 -4 -71 -9
-88 -11 -16 -2 -48 -5 -70 -8 -22 -2 -85 -14 -140 -26 -55 -12 -118 -24 -140
-26 -22 -3 -53 -12 -70 -20 -54 -25 -208 -58 -290 -60 -50 -1 -102 -10 -139
-23 -33 -12 -69 -21 -82 -21 -13 0 -25 -4 -29 -9 -5 -9 -25 -12 -170 -26 -177
-18 -325 -2 -430 45 -11 5 -36 12 -55 15 -38 8 -114 54 -169 104 -19 17 -38
31 -42 31 -5 0 -27 27 -49 61 -45 65 -71 82 -110 67 -40 -15 -57 -36 -64 -79
-11 -69 9 -117 77 -187 34 -34 66 -62 72 -62 5 0 30 -14 55 -30 25 -16 52 -30
60 -30 8 0 33 -14 54 -30 22 -17 47 -30 57 -30 9 0 22 -6 28 -14 6 -8 22 -16
34 -19 12 -3 67 -17 122 -32 55 -15 123 -29 150 -31 28 -1 94 -8 147 -15 73
-9 103 -9 125 -1 84 34 283 56 305 34 7 -7 17 -8 28 -2 17 9 34 13 114 26 22
3 50 10 63 15 40 15 153 39 184 39 16 0 61 9 101 19 97 26 135 32 253 37 55 3
118 9 141 14 23 5 100 7 172 5 151 -6 234 8 327 53 68 32 151 81 170 100 8 6
19 12 25 12 6 0 26 11 44 25 29 22 118 67 131 65 3 0 20 7 37 16 22 11 65 18
133 20 64 2 143 13 211 30 60 14 116 27 124 29 161 35 221 63 315 149 33 31
63 56 66 56 10 0 60 51 114 115 48 57 96 131 144 220 12 22 26 47 31 55 15 24
46 101 64 160 10 30 21 64 26 75 25 57 53 155 81 285 7 30 17 63 22 72 8 12 7
21 -2 31 -12 15 -11 38 5 198 5 45 12 63 35 84 29 28 30 57 2 33 -12 -9 -10
-1 5 28 12 23 28 44 37 48 12 4 14 14 9 45 -12 76 58 184 139 212 33 12 50 29
29 29 -4 0 -9 12 -10 26 -3 36 -24 53 -68 56 -24 1 -49 11 -63 24 -25 23 -54
22 -45 -1 11 -27 -19 -27 -42 0 -13 16 -24 23 -24 17 0 -6 6 -17 13 -24 8 -7
12 -21 9 -30 -4 -15 -7 -16 -19 -6 -11 9 -16 9 -23 -2 -4 -7 -6 -19 -3 -27 3
-7 -1 -20 -8 -29 -12 -14 -14 -14 -26 1 -10 14 -9 24 2 53 19 44 19 62 1 62
-8 0 -16 12 -18 26 -2 14 -6 23 -10 19z m195 -170 c-27 -34 -43 -44 -43 -27 0
5 15 27 33 51 21 28 33 37 35 27 2 -9 -9 -31 -25 -51z"/>
</g>
</svg>
