<?xml version="1.0" standalone="no"?>
<!DOCTYPE svg PUBLIC "-//W3C//DTD SVG 20010904//EN"
 "http://www.w3.org/TR/2001/REC-SVG-20010904/DTD/svg10.dtd">
<svg version="1.0" xmlns="http://www.w3.org/2000/svg"
 width="662.000000pt" height="224.000000pt" viewBox="0 0 662.000000 224.000000"
 preserveAspectRatio="xMidYMid meet">
<metadata>
Created by potrace 1.16, written by Peter Selinger 2001-2019
</metadata>
<g transform="translate(0.000000,224.000000) scale(0.100000,-0.100000)"
fill="#000000" stroke="none">
<path d="M2221 2207 c-11 -19 -40 -76 -64 -128 -24 -52 -52 -101 -62 -109 -15
-13 -20 -12 -41 13 l-24 28 -16 -38 c-68 -158 -103 -298 -104 -405 0 -90 -20
-113 -89 -104 -25 3 -287 8 -581 12 l-535 7 -100 -43 c-222 -94 -275 -119
-354 -166 -161 -95 -241 -175 -241 -240 0 -29 10 -40 113 -121 135 -108 163
-125 246 -153 95 -32 527 -133 746 -175 317 -60 378 -74 387 -87 4 -7 38 -85
75 -172 78 -183 75 -180 223 -226 180 -56 375 -93 490 -93 104 0 192 18 192
38 1 6 -60 41 -133 79 -416 213 -649 342 -649 358 0 13 93 9 365 -18 307 -31
773 -43 895 -24 41 6 94 14 117 17 l41 5 28 -53 c40 -80 131 -215 160 -238 14
-11 60 -28 102 -38 68 -16 128 -18 507 -18 429 0 498 4 755 41 102 15 180 40
194 63 8 13 -71 64 -299 192 -88 50 -168 99 -179 109 -18 17 -18 18 10 24 69
15 447 36 641 36 l211 0 179 -88 c412 -203 681 -233 925 -105 90 47 159 122
209 228 66 136 64 270 -4 400 -48 90 -203 242 -292 286 -68 33 -72 34 -183 32
-163 -3 -281 -33 -671 -173 l-204 -73 -241 6 c-226 5 -373 18 -405 37 -19 10
65 41 259 94 221 61 230 68 163 127 -63 55 -220 121 -626 263 -542 190 -660
222 -877 233 l-115 6 -55 -60 c-70 -76 -142 -180 -231 -335 -38 -68 -78 -129
-87 -136 -11 -8 -30 -11 -52 -7 -79 14 -112 63 -86 129 15 37 15 40 -9 68 -14
16 -25 39 -25 50 0 11 -16 38 -35 60 -20 21 -38 52 -42 68 -3 17 -11 30 -18
30 -22 0 -77 52 -92 87 -7 19 -18 31 -24 28 -17 -11 -58 23 -79 65 -16 32 -26
40 -48 40 -41 0 -89 34 -103 74 -12 34 -13 34 -40 20 -66 -34 -93 1 -94 123 0
45 -1 83 -2 83 -1 0 -11 -15 -22 -33z"/>
</g>
</svg>
