<?xml version="1.0" standalone="no"?>
<!DOCTYPE svg PUBLIC "-//W3C//DTD SVG 20010904//EN"
 "http://www.w3.org/TR/2001/REC-SVG-20010904/DTD/svg10.dtd">
<svg version="1.0" xmlns="http://www.w3.org/2000/svg"
 width="4130.000000pt" height="1803.000000pt" viewBox="0 0 4130.000000 1803.000000"
 preserveAspectRatio="xMidYMid meet">
<metadata>
Created by potrace 1.16, written by Peter Selinger 2001-2019
</metadata>
<g transform="translate(0.000000,1803.000000) scale(0.100000,-0.100000)"
fill="#000000" stroke="none">
<path d="M15055 17985 c-113 -59 -354 -237 -596 -441 -46 -38 -110 -89 -141
-112 -31 -23 -70 -61 -87 -85 -37 -54 -365 -386 -526 -533 -66 -60 -149 -136
-185 -170 -36 -34 -99 -90 -140 -126 -149 -128 -399 -425 -477 -566 -39 -71
-72 -82 -94 -30 -17 41 -102 133 -142 153 -45 22 -110 19 -165 -9 -73 -38
-248 -225 -417 -446 -22 -29 -76 -96 -120 -149 -102 -122 -155 -188 -180 -222
-11 -14 -60 -80 -109 -145 -49 -66 -106 -141 -126 -169 -20 -27 -95 -129 -166
-225 -71 -96 -141 -191 -154 -210 -43 -62 -165 -213 -214 -265 -47 -49 -122
-132 -221 -246 -27 -31 -78 -89 -113 -127 -35 -39 -79 -91 -99 -114 -19 -24
-70 -81 -113 -128 -79 -86 -274 -312 -432 -501 -48 -57 -97 -115 -110 -129
-13 -14 -86 -99 -163 -190 -198 -234 -408 -474 -481 -550 -34 -36 -84 -89
-110 -119 -132 -148 -575 -598 -735 -747 -53 -49 -138 -128 -190 -177 -90 -84
-179 -151 -358 -274 -114 -78 -131 -90 -164 -108 -15 -9 -60 -37 -99 -63 -39
-26 -82 -55 -97 -64 -14 -10 -33 -21 -41 -25 -8 -4 -46 -27 -85 -52 -72 -46
-216 -137 -250 -158 -33 -20 -92 -56 -265 -157 -178 -105 -221 -129 -445 -251
-27 -15 -54 -31 -59 -36 -6 -5 -15 -9 -21 -9 -6 0 -66 -31 -134 -70 -67 -38
-124 -70 -126 -70 -3 0 -28 -15 -57 -33 -51 -32 -346 -180 -498 -250 -41 -19
-109 -51 -150 -70 -203 -95 -273 -127 -276 -127 -2 0 -32 -13 -66 -29 -35 -16
-103 -45 -153 -66 -99 -40 -126 -52 -198 -84 -26 -12 -67 -29 -90 -37 -58 -22
-72 -28 -237 -99 -58 -26 -123 -53 -145 -62 -22 -8 -64 -26 -93 -39 -29 -13
-55 -24 -57 -24 -2 0 -34 -14 -70 -30 -36 -16 -68 -30 -71 -30 -3 0 -24 -8
-47 -19 -23 -10 -91 -40 -152 -66 -60 -26 -147 -65 -192 -86 -45 -22 -87 -39
-93 -39 -6 0 -56 -22 -113 -49 -56 -26 -118 -54 -137 -61 -19 -7 -39 -17 -45
-22 -5 -4 -19 -8 -32 -8 -13 0 -31 -4 -41 -10 -9 -5 -80 -40 -157 -78 -131
-65 -223 -112 -305 -159 -19 -11 -62 -35 -95 -53 -33 -18 -64 -36 -70 -40 -5
-5 -37 -23 -70 -40 -33 -18 -67 -39 -76 -46 -8 -8 -18 -14 -21 -14 -4 0 -41
-20 -82 -45 -42 -25 -81 -45 -86 -45 -5 0 -13 -6 -17 -13 -4 -7 -24 -21 -43
-30 -19 -10 -62 -33 -95 -53 -33 -19 -68 -38 -78 -41 -9 -3 -17 -9 -17 -13 0
-4 -24 -20 -52 -35 -29 -15 -84 -48 -122 -74 -66 -44 -85 -56 -202 -125 -27
-16 -58 -37 -69 -47 -11 -9 -36 -25 -55 -36 -20 -10 -42 -24 -50 -31 -25 -21
-180 -122 -188 -122 -4 0 -18 -9 -32 -20 -14 -11 -68 -50 -120 -86 -109 -75
-133 -92 -214 -154 -32 -25 -68 -50 -79 -57 -48 -27 -279 -225 -372 -318 -175
-175 -273 -330 -301 -471 -14 -76 -13 -101 8 -199 29 -134 122 -240 278 -319
50 -25 95 -46 100 -46 5 0 33 -11 62 -24 29 -13 67 -28 83 -34 64 -22 181 -64
200 -72 11 -4 35 -14 53 -20 21 -8 38 -25 49 -48 27 -56 127 -90 378 -127 22
-3 83 -13 135 -21 200 -31 227 -35 300 -44 41 -5 136 -16 210 -25 138 -17 240
-29 390 -45 47 -6 114 -14 150 -19 193 -28 321 -44 560 -71 41 -4 176 -20 300
-35 124 -14 261 -30 305 -35 255 -27 507 -51 625 -60 74 -6 160 -15 191 -20
30 -6 81 -10 113 -10 31 0 87 -4 124 -9 139 -20 549 -43 887 -50 356 -8 792
-7 1990 4 375 4 687 3 710 -2 34 -8 46 -19 92 -83 28 -41 59 -88 69 -105 15
-27 82 -129 279 -430 91 -139 366 -552 417 -625 21 -30 58 -84 82 -120 113
-165 195 -282 256 -365 36 -49 88 -121 115 -160 27 -38 68 -95 90 -125 23 -30
95 -127 160 -215 66 -88 154 -205 197 -260 43 -55 91 -118 108 -140 40 -53
190 -245 290 -370 242 -303 300 -378 354 -450 80 -108 204 -264 361 -454 72
-86 162 -197 200 -246 39 -48 124 -151 190 -228 66 -77 132 -153 146 -170 32
-37 45 -35 159 33 47 27 87 50 91 50 3 0 18 -18 35 -41 16 -23 63 -81 104
-131 41 -49 81 -101 89 -115 32 -61 38 17 46 607 6 438 37 973 61 1051 10 35
6 160 -7 175 -7 8 -20 61 -31 117 -10 56 -21 114 -24 129 -5 21 -2 27 15 33
14 4 21 15 21 31 0 14 6 27 13 30 10 4 13 22 10 70 -2 47 1 71 12 87 8 12 15
36 15 53 0 18 9 42 19 55 14 18 17 29 9 42 -12 23 -1 74 18 81 19 7 18 36 -3
51 -15 11 -15 18 -5 53 7 22 19 43 28 46 10 4 15 16 14 33 -1 16 -1 33 0 38 1
6 3 30 5 55 3 50 13 154 17 167 2 8 -11 107 -18 133 -19 71 -27 138 -34 280
-4 91 -15 199 -23 241 -33 164 -107 340 -198 474 -42 62 -60 100 -78 168 -13
48 -21 90 -18 93 6 6 87 -45 87 -55 0 -4 15 -15 33 -25 41 -24 77 -62 102
-109 18 -35 35 -48 35 -28 0 4 -16 39 -35 77 -28 53 -35 76 -30 102 5 25 11
32 28 32 13 0 27 -4 33 -8 14 -12 335 -112 424 -132 19 -4 62 -16 95 -25 59
-17 81 -22 180 -44 28 -6 82 -17 120 -26 80 -17 163 -32 250 -45 33 -5 141
-20 240 -35 99 -15 212 -31 250 -35 39 -5 129 -16 200 -25 72 -9 177 -20 235
-25 58 -6 132 -12 165 -15 33 -3 105 -10 160 -15 335 -33 704 -56 1105 -70
407 -14 2023 -20 2545 -9 1231 25 1924 50 2205 79 52 5 147 14 210 20 63 6
174 18 245 26 122 13 159 18 345 43 41 6 127 17 190 25 63 8 135 17 160 21 25
3 79 10 120 15 95 12 202 25 360 45 69 9 161 20 205 25 213 25 382 47 505 66
52 8 122 19 155 24 78 11 169 27 225 39 25 5 70 14 100 20 56 11 262 54 338
71 23 6 61 14 85 20 89 20 436 102 552 131 157 39 353 91 553 145 214 58 229
61 437 94 199 32 305 16 425 -64 69 -46 567 -454 851 -696 25 -22 102 -83 170
-135 68 -53 131 -101 139 -108 91 -75 297 -199 415 -249 289 -122 627 -192
813 -168 290 38 489 146 743 399 137 138 209 230 305 391 15 25 42 68 59 95
18 28 45 73 60 100 15 28 41 73 57 100 54 95 194 380 230 470 67 167 104 276
143 421 38 140 47 187 95 490 6 33 10 114 10 180 0 160 -30 260 -101 338 -76
84 -127 90 -424 53 -159 -20 -319 -24 -572 -13 -175 8 -193 10 -193 26 0 10
10 20 23 23 12 2 94 23 182 45 88 22 210 51 270 65 61 14 164 37 230 52 66 15
165 38 219 52 54 13 171 40 260 59 541 119 674 142 1105 194 206 25 559 34
825 22 143 -7 304 -17 356 -22 360 -38 532 -60 545 -70 6 -5 44 -17 85 -28
137 -36 183 -59 375 -184 102 -66 272 -168 280 -168 3 0 26 -13 52 -29 27 -15
98 -57 158 -93 213 -125 413 -243 680 -403 149 -89 290 -172 315 -186 25 -13
59 -34 76 -46 17 -13 34 -23 38 -23 4 0 32 -16 62 -35 30 -19 56 -35 59 -35 2
0 65 -36 141 -80 75 -44 138 -80 140 -80 3 0 21 -10 42 -23 92 -58 479 -261
602 -315 25 -11 68 -30 95 -43 28 -12 61 -25 75 -30 14 -4 77 -26 140 -49 187
-67 195 -69 313 -100 426 -108 811 -36 1137 212 49 37 163 154 214 218 92 116
150 217 224 390 33 77 122 360 122 387 0 9 4 30 10 47 10 33 50 210 70 311 6
33 15 76 20 95 10 40 32 140 50 220 6 30 16 69 20 85 5 17 16 57 25 90 46 167
154 422 223 523 11 15 61 90 112 167 52 77 139 205 195 285 469 668 819 1269
995 1705 39 99 106 260 147 358 41 98 78 190 83 205 26 90 108 278 148 341 48
78 164 200 337 356 187 167 349 379 519 674 111 193 144 269 202 456 54 175
66 257 73 505 l7 235 33 70 c82 173 145 324 157 372 10 45 10 56 -5 84 -36 72
-110 93 -221 64 -93 -23 -387 -171 -521 -260 -24 -16 -53 -35 -64 -42 -140
-83 -183 -109 -200 -118 -41 -23 -211 -129 -240 -150 -16 -12 -37 -25 -45 -29
-8 -4 -56 -32 -106 -64 -51 -31 -127 -79 -170 -106 -44 -27 -104 -66 -136 -87
-31 -22 -59 -39 -62 -39 -3 0 -28 -16 -55 -35 -26 -19 -52 -35 -56 -35 -4 0
-25 -13 -48 -28 -70 -48 -132 -87 -359 -227 -9 -5 -82 -54 -162 -107 -80 -54
-147 -98 -150 -98 -2 0 -58 -36 -124 -80 -66 -44 -123 -80 -126 -80 -4 0 -29
-16 -56 -35 -27 -19 -52 -35 -56 -35 -3 0 -34 -20 -68 -45 -35 -25 -66 -45
-69 -45 -4 0 -80 -47 -169 -103 -90 -57 -235 -148 -323 -202 -88 -53 -171
-105 -185 -114 -14 -8 -34 -21 -45 -27 -11 -6 -34 -19 -52 -30 -17 -10 -78
-47 -135 -80 -57 -34 -173 -103 -258 -154 -178 -107 -300 -179 -350 -207 -19
-11 -104 -63 -188 -114 -84 -52 -169 -104 -190 -115 -59 -34 -315 -183 -332
-194 -8 -5 -53 -31 -100 -58 -286 -164 -395 -229 -480 -282 -52 -33 -102 -63
-110 -67 -8 -4 -67 -41 -130 -82 -63 -42 -119 -78 -125 -80 -5 -2 -37 -23 -70
-46 -33 -23 -105 -72 -160 -110 -55 -38 -123 -86 -152 -107 -29 -21 -55 -38
-59 -38 -4 0 -23 -12 -43 -27 -20 -16 -77 -55 -127 -88 -226 -148 -286 -190
-539 -374 -54 -39 -112 -49 -420 -71 -342 -26 -1227 -37 -1665 -21 -536 18
-732 35 -1105 92 -163 24 -369 80 -428 115 -32 19 -63 34 -67 34 -18 0 -196
188 -266 281 -122 161 -185 273 -264 464 -53 126 -66 172 -85 275 -32 183 -13
479 46 719 43 173 146 479 219 651 68 160 371 760 434 860 39 61 138 212 195
298 149 221 184 311 149 387 -16 35 -97 83 -171 100 -74 17 -341 20 -522 5
-403 -34 -892 -127 -1205 -229 -69 -23 -134 -45 -145 -50 -11 -5 -57 -26 -102
-46 -53 -24 -90 -36 -104 -32 -22 6 -99 -6 -149 -23 -14 -4 -59 -18 -100 -30
-153 -44 -181 -56 -475 -201 -121 -61 -260 -135 -310 -165 -49 -31 -103 -64
-120 -74 -16 -10 -70 -42 -120 -72 -49 -30 -142 -81 -205 -114 -63 -32 -131
-70 -150 -85 -19 -14 -51 -32 -70 -40 -19 -7 -75 -34 -125 -60 -210 -108 -392
-203 -420 -219 -37 -22 -118 -66 -210 -114 -38 -21 -88 -48 -110 -62 -22 -13
-47 -27 -55 -31 -8 -4 -103 -59 -210 -123 -267 -159 -475 -275 -605 -337 -27
-13 -58 -28 -67 -33 -9 -5 -75 -32 -145 -60 -70 -28 -138 -55 -150 -61 -75
-31 -146 -56 -190 -68 -95 -25 -121 -31 -188 -46 -220 -50 -316 -58 -590 -52
-126 3 -259 10 -295 15 -118 18 -194 31 -265 48 -38 8 -88 19 -110 24 -22 5
-83 21 -135 35 -52 15 -111 30 -130 35 -19 4 -73 20 -120 35 -47 15 -98 31
-115 35 -16 5 -57 16 -90 25 -33 9 -89 25 -125 37 -36 11 -82 24 -102 29 -91
21 -116 28 -158 44 -24 9 -63 20 -85 25 -22 4 -67 16 -100 25 -113 32 -243 64
-340 85 -22 4 -53 13 -70 18 -27 10 -69 22 -150 42 -16 5 -68 19 -115 33 -47
14 -134 37 -195 52 -60 14 -126 30 -145 36 -58 15 -395 94 -550 129 -80 18
-174 45 -210 59 -36 15 -85 33 -110 40 -25 7 -54 17 -65 21 -43 16 -249 68
-365 92 -50 10 -73 21 -98 45 -38 38 -52 41 -52 13 0 -24 0 -24 -115 -4 -49 8
-121 19 -160 24 -38 6 -97 14 -130 20 -33 6 -112 17 -175 26 -63 8 -146 20
-185 25 -84 12 -168 22 -380 43 -88 9 -165 18 -171 21 -8 2 -14 45 -17 117 -9
191 -27 280 -92 453 -13 33 -36 94 -51 135 -15 41 -42 108 -61 148 -18 41 -33
75 -33 78 0 7 -39 91 -121 261 -73 151 -133 251 -226 379 -21 29 -74 102 -118
163 -44 62 -89 124 -100 139 -40 54 -134 179 -208 277 -161 213 -228 312 -366
545 -82 139 -76 128 -157 254 -39 61 -80 127 -90 146 -31 56 -127 195 -320
462 -34 47 -67 96 -74 109 -7 13 -20 33 -30 44 -16 18 -44 67 -101 175 -10 19
-32 67 -49 105 -18 39 -42 93 -55 120 -12 28 -35 82 -50 120 -15 39 -31 79
-35 90 -16 39 -52 141 -60 170 -4 17 -18 59 -29 95 -35 105 -54 184 -81 335
-48 264 -71 432 -80 568 -14 206 -31 296 -67 349 -39 57 -74 80 -130 85 -40 3
-59 -2 -118 -32z m-3072 -17536 c-17 -17 -37 -1 -22 17 8 10 15 12 23 4 7 -7
7 -13 -1 -21z"/>
<path d="M12230 4346 c0 -9 5 -16 10 -16 6 0 10 4 10 9 0 6 -4 13 -10 16 -5 3
-10 -1 -10 -9z"/>
</g>
</svg>
