<?xml version="1.0" standalone="no"?>
<!DOCTYPE svg PUBLIC "-//W3C//DTD SVG 20010904//EN"
 "http://www.w3.org/TR/2001/REC-SVG-20010904/DTD/svg10.dtd">
<svg version="1.0" xmlns="http://www.w3.org/2000/svg"
 width="1536.000000pt" height="599.000000pt" viewBox="0 0 1536.000000 599.000000"
 preserveAspectRatio="xMidYMid meet">
<metadata>
Created by potrace 1.16, written by Peter Selinger 2001-2019
</metadata>
<g transform="translate(0.000000,599.000000) scale(0.100000,-0.100000)"
fill="#000000" stroke="none">
<path d="M2655 5984 c-165 -18 -415 -58 -485 -79 -101 -29 -344 -127 -460
-185 -108 -54 -224 -130 -390 -253 -590 -439 -874 -751 -986 -1084 -14 -43
-66 -172 -114 -288 -136 -326 -144 -355 -185 -635 -35 -245 -41 -424 -21 -640
34 -355 83 -613 163 -855 89 -271 217 -479 438 -713 85 -90 114 -113 230 -181
252 -151 352 -192 531 -221 71 -12 197 -25 279 -30 83 -5 202 -12 265 -16 86
-5 136 -3 200 9 47 9 150 21 230 27 128 11 170 9 360 -9 118 -11 274 -26 345
-32 187 -15 465 -74 805 -170 173 -49 231 -77 286 -135 43 -45 103 -72 91 -40
-13 34 23 26 179 -37 186 -76 214 -88 439 -195 188 -89 281 -117 425 -128 52
-3 136 -17 185 -29 50 -13 119 -26 155 -30 36 -3 122 -13 192 -22 111 -15 151
-15 333 -5 157 10 212 16 231 29 19 12 38 14 80 9 46 -5 65 -2 112 18 32 14
100 31 152 40 52 8 228 51 390 96 289 78 299 82 500 179 219 107 611 278 724
317 37 13 89 37 114 54 55 36 92 47 226 65 56 7 141 25 189 40 86 27 93 28
230 20 208 -11 238 -10 274 8 31 16 38 16 135 -5 100 -21 228 -25 448 -16 41
2 72 -4 125 -26 100 -41 168 -44 226 -13 l46 25 84 -20 c244 -57 353 -70 589
-69 221 2 322 10 377 33 16 6 75 14 133 18 58 4 165 22 240 40 74 17 178 35
230 39 52 4 105 13 118 20 12 7 105 39 205 72 109 35 205 74 240 95 38 24 84
41 130 50 88 17 325 132 537 259 174 105 204 128 295 219 40 41 145 123 247
194 97 68 218 158 270 200 139 115 162 132 299 215 160 97 219 124 311 142 97
18 283 88 358 134 33 20 86 60 119 88 50 45 69 72 124 180 138 271 139 342 6
510 -98 123 -146 149 -263 141 -100 -7 -183 -44 -308 -138 -135 -101 -169
-141 -243 -281 -140 -265 -357 -494 -630 -666 -166 -105 -265 -175 -329 -234
-38 -34 -71 -55 -108 -65 -69 -21 -289 -137 -351 -186 -27 -21 -67 -43 -90
-50 -55 -15 -73 -31 -93 -85 l-17 -44 -36 35 c-20 20 -44 36 -52 36 -9 0 -40
-17 -70 -38 -41 -29 -65 -39 -97 -40 -24 -1 -82 -13 -130 -27 -48 -13 -172
-38 -277 -54 -104 -17 -224 -41 -265 -55 -89 -30 -212 -40 -660 -57 -412 -15
-691 -7 -1005 30 -137 17 -277 38 -311 47 -57 17 -63 17 -115 -1 -72 -24 -101
-21 -189 15 -163 68 -327 90 -659 90 -191 0 -235 -3 -357 -26 -384 -70 -633
-147 -1599 -492 -312 -112 -386 -133 -566 -161 -222 -35 -361 -43 -694 -39
l-320 3 -195 64 c-230 75 -333 118 -469 196 -56 31 -161 81 -233 110 -73 29
-164 67 -203 85 -165 76 -420 159 -600 195 -66 13 -226 36 -355 51 l-235 27
-161 -17 c-236 -25 -839 -32 -976 -11 -448 67 -834 477 -868 925 -5 64 -20
174 -34 245 -49 256 -48 236 -25 389 58 403 131 661 236 841 49 84 275 357
364 440 234 217 542 370 969 480 143 37 146 37 240 26 67 -7 108 -7 140 0 25
6 90 9 145 6 89 -4 121 -12 284 -66 270 -89 330 -128 535 -343 126 -133 148
-166 184 -274 55 -164 77 -583 39 -729 -23 -86 -108 -263 -178 -370 -85 -128
-157 -194 -279 -253 -212 -103 -254 -108 -422 -52 -104 35 -149 62 -202 120
-62 69 -90 141 -90 235 0 137 44 205 182 283 96 54 146 67 219 56 56 -8 101
-49 147 -135 26 -48 28 -56 22 -132 -6 -72 -4 -86 13 -114 31 -49 71 -46 123
10 63 68 117 157 140 231 47 153 -1 487 -98 677 -59 118 -207 263 -329 323
-166 82 -391 86 -645 9 -211 -63 -422 -210 -555 -387 -56 -76 -113 -197 -121
-257 -3 -30 -19 -92 -34 -139 -40 -120 -54 -225 -46 -349 12 -180 56 -367 126
-526 79 -181 294 -409 528 -560 108 -69 283 -150 401 -185 128 -37 414 -80
537 -80 249 0 494 87 726 257 123 91 376 337 461 448 88 117 165 285 237 520
123 399 133 505 85 841 -47 327 -121 568 -231 754 -31 52 -69 120 -84 151
-104 204 -311 436 -545 612 -176 132 -286 191 -425 227 -119 31 -238 71 -356
119 -87 35 -123 43 -265 61 -156 20 -503 34 -594 24z"/>
</g>
</svg>
