<?xml version="1.0" standalone="no"?>
<!DOCTYPE svg PUBLIC "-//W3C//DTD SVG 20010904//EN"
 "http://www.w3.org/TR/2001/REC-SVG-20010904/DTD/svg10.dtd">
<svg version="1.0" xmlns="http://www.w3.org/2000/svg"
 width="964.000000pt" height="1536.000000pt" viewBox="0 0 964.000000 1536.000000"
 preserveAspectRatio="xMidYMid meet">
<metadata>
Created by potrace 1.16, written by Peter Selinger 2001-2019
</metadata>
<g transform="translate(0.000000,1536.000000) scale(0.100000,-0.100000)"
fill="#000000" stroke="none">
<path d="M7866 15308 c-28 -29 -91 -105 -141 -168 -107 -137 -122 -144 -153
-70 -18 44 -24 50 -50 50 -38 0 -75 -30 -109 -88 -24 -40 -28 -59 -31 -142 -1
-52 -5 -105 -7 -117 -6 -27 -99 -129 -135 -148 -24 -12 -30 -12 -58 5 -47 29
-55 51 -47 134 8 82 -2 111 -41 126 -41 16 -70 -4 -104 -69 -16 -34 -39 -98
-49 -143 -33 -139 -33 -140 -61 -77 -16 37 -24 73 -24 114 -1 52 5 70 42 137
23 42 42 89 42 103 0 22 -4 25 -36 25 -43 0 -72 -19 -178 -119 l-80 -74 -24
29 c-67 81 -71 84 -100 84 -73 0 -123 -116 -148 -345 -9 -77 -21 -151 -27
-165 -17 -36 -60 -39 -90 -6 -33 36 -48 93 -61 236 l-11 125 -49 3 c-80 5 -99
-23 -123 -196 l-8 -52 -45 39 -45 39 1 88 c1 59 12 135 33 225 34 149 38 222
17 272 -17 42 -70 87 -102 87 -28 0 -36 -15 -84 -169 -44 -140 -69 -168 -165
-182 -75 -10 -97 -25 -87 -62 3 -12 29 -67 58 -122 66 -125 79 -192 71 -365
-6 -126 -23 -210 -44 -217 -6 -2 -24 13 -40 33 -87 114 -129 143 -235 163 -74
13 -127 36 -160 68 -35 33 -36 69 -8 238 20 118 24 230 11 290 -8 37 -41 45
-87 20 -43 -23 -67 -71 -102 -206 -48 -183 -113 -305 -221 -416 -67 -70 -70
-67 -120 130 -47 184 -95 258 -155 243 -46 -11 -58 -45 -67 -187 -14 -207 -49
-309 -133 -387 -38 -35 -52 -42 -86 -42 -58 0 -98 24 -269 160 -84 66 -157
120 -162 120 -17 0 -10 -104 10 -140 11 -19 27 -51 36 -70 10 -19 23 -46 31
-60 41 -76 42 -68 -6 -109 l-45 -38 -2 -109 c-1 -69 -8 -125 -17 -153 -20 -54
-20 -116 -1 -206 32 -145 39 -265 15 -265 -12 0 -142 190 -151 222 -5 18 -2
113 7 241 23 305 15 374 -49 421 l-27 20 -25 -24 c-13 -14 -40 -68 -61 -120
-36 -94 -37 -98 -44 -282 -6 -148 -12 -202 -29 -258 -14 -44 -27 -70 -34 -67
-15 4 -35 89 -82 347 -20 113 -57 284 -81 380 -36 147 -47 179 -70 198 -21 18
-33 22 -58 16 -17 -3 -37 -11 -43 -16 -22 -18 -15 -144 17 -298 48 -238 69
-302 179 -551 92 -208 99 -328 19 -329 -43 0 -84 74 -158 285 -75 216 -157
391 -198 423 -9 6 -37 12 -64 12 l-48 0 0 -73 0 -74 -55 10 c-68 11 -99 -5
-114 -59 -13 -47 -1 -69 42 -83 61 -21 111 -94 88 -130 -6 -10 -25 -14 -58
-13 -57 2 -83 26 -83 76 0 46 -47 134 -81 151 -39 21 -62 19 -87 -7 -33 -36
-43 -75 -51 -200 -4 -65 -10 -120 -13 -124 -13 -12 -27 7 -48 64 -12 31 -26
62 -32 69 -14 17 -98 17 -98 1 0 -7 7 -80 15 -163 25 -258 24 -265 -56 -298
-28 -11 -40 -24 -49 -52 -6 -20 -9 -46 -6 -58 3 -12 48 -60 100 -106 114 -100
128 -126 120 -210 -4 -34 -10 -61 -13 -61 -16 0 -100 60 -135 96 -100 102
-241 362 -418 769 -185 427 -340 636 -411 557 -48 -52 -1 -202 127 -412 29
-47 92 -155 141 -240 49 -85 117 -199 152 -253 104 -162 106 -167 100 -272 -6
-111 -31 -198 -54 -193 -10 2 -27 28 -40 63 -13 32 -29 66 -37 74 -19 19 -46
7 -46 -21 0 -50 -15 -51 -58 -6 -26 26 -42 37 -42 28 0 -9 20 -60 44 -115 24
-55 54 -133 67 -173 l23 -72 -36 -38 c-54 -57 -68 -83 -68 -127 0 -62 43 -120
155 -210 108 -87 145 -133 119 -148 -29 -17 -73 13 -115 78 -45 70 -58 77
-169 100 -102 21 -135 46 -194 145 -73 123 -93 142 -204 190 -53 23 -170 78
-259 122 -191 93 -211 109 -569 460 -309 302 -343 327 -378 276 -21 -30 -20
-57 4 -125 48 -136 166 -284 325 -408 69 -54 572 -380 706 -458 64 -37 81 -59
86 -111 5 -41 2 -47 -31 -80 -31 -32 -36 -43 -36 -84 0 -27 7 -57 16 -70 13
-19 13 -28 4 -58 -18 -53 -6 -77 55 -119 30 -21 55 -42 55 -47 0 -18 -29 -6
-81 32 -73 55 -93 51 -97 -18 -2 -40 2 -61 18 -88 42 -66 -7 -90 -58 -28 -16
19 -60 93 -96 164 -37 70 -76 137 -87 149 -25 27 -83 30 -75 4 22 -71 56 -235
56 -269 0 -27 -7 -51 -21 -68 -17 -22 -28 -26 -72 -26 -32 0 -75 10 -112 25
-74 31 -85 31 -85 3 0 -33 10 -44 53 -61 46 -20 47 -42 2 -57 -38 -13 -49 -35
-43 -91 2 -20 8 -33 15 -32 15 3 93 -27 93 -35 0 -3 -15 -21 -32 -40 -31 -31
-33 -37 -31 -97 l3 -64 -33 -5 c-17 -2 -81 -11 -142 -20 -194 -27 -274 -63
-260 -118 22 -86 130 -97 329 -35 134 42 167 45 213 20 30 -17 203 -215 203
-232 0 -5 16 -29 35 -54 40 -52 43 -67 16 -67 -38 0 -140 87 -186 160 -53 82
-117 130 -175 130 -31 0 -42 -7 -82 -54 -26 -29 -63 -61 -83 -70 -20 -10 -39
-24 -42 -32 -3 -8 9 -35 26 -59 17 -24 31 -46 31 -49 0 -3 -20 -19 -44 -35
-57 -40 -106 -89 -106 -107 0 -8 10 -18 23 -23 12 -5 34 -23 50 -40 l27 -31
95 6 c78 6 98 4 113 -8 9 -9 32 -19 50 -23 23 -5 36 -15 43 -32 13 -36 -3 -51
-59 -55 -25 -2 -47 -8 -49 -14 -2 -6 21 -39 52 -73 30 -34 65 -81 76 -104 34
-66 98 -144 197 -239 114 -109 170 -138 392 -203 52 -15 132 -45 178 -66 68
-33 90 -50 127 -96 24 -32 43 -58 42 -59 -9 -9 -123 28 -227 74 -243 106 -291
123 -497 171 -115 27 -237 60 -270 74 -34 14 -135 70 -226 124 -161 98 -262
140 -314 131 -20 -3 -19 -7 23 -98 53 -111 79 -142 156 -181 169 -86 1073
-411 1251 -450 31 -7 62 -18 68 -26 6 -7 21 -13 33 -13 12 0 31 -6 42 -14 19
-14 78 -26 198 -41 l48 -7 -27 -28 c-27 -28 -58 -44 -155 -80 -75 -27 -160
-97 -160 -131 0 -73 75 -84 171 -24 31 19 61 35 66 35 4 0 31 16 58 36 60 43
185 104 215 104 14 0 24 -9 31 -30 12 -32 64 -70 97 -70 11 0 28 -8 38 -17 15
-16 35 -18 157 -15 168 3 277 18 536 76 336 75 376 81 581 80 165 0 199 -3
310 -28 684 -152 1158 -527 1607 -1271 139 -230 406 -765 540 -1079 230 -540
396 -1159 473 -1761 52 -403 44 -1082 -15 -1440 -63 -373 -229 -645 -460 -750
-38 -18 -131 -48 -205 -68 -74 -20 -151 -42 -171 -51 -86 -36 -200 -215 -264
-416 -10 -30 -18 -56 -19 -57 -1 -1 -42 -7 -91 -13 -175 -23 -294 -65 -428
-153 -341 -223 -606 -616 -707 -1047 -13 -58 -27 -171 -36 -290 -7 -107 -17
-212 -20 -232 -6 -34 -3 -39 24 -55 17 -10 41 -36 53 -58 31 -54 125 -152 175
-181 83 -49 246 -66 410 -43 229 32 486 166 688 359 118 113 203 214 419 495
89 116 206 266 261 335 132 165 380 412 476 475 105 69 246 140 330 166 69 21
71 21 92 3 11 -11 36 -50 55 -89 106 -211 182 -318 245 -351 66 -34 407 -26
434 10 11 16 23 109 44 360 14 161 34 241 78 316 43 73 100 115 170 126 66 10
184 -23 363 -101 180 -79 229 -87 360 -61 208 42 442 186 661 409 199 201 288
370 288 545 0 84 -17 132 -60 173 -45 43 -99 59 -225 65 -143 8 -150 10 -216
69 -71 63 -103 71 -236 61 -112 -9 -201 -36 -495 -150 -344 -133 -404 -151
-458 -136 -61 16 -124 79 -167 167 l-37 75 -4 196 c-6 265 10 470 57 757 117
717 193 1748 194 2640 1 682 -12 804 -204 1928 -116 684 -161 983 -183 1227
-16 175 -36 541 -36 657 l0 61 63 45 c133 95 189 173 242 337 40 123 78 192
137 252 72 73 121 96 375 182 295 99 328 117 321 173 -3 26 -7 28 -49 31 -27
2 -80 -7 -133 -23 -49 -14 -98 -25 -111 -25 -12 0 -28 -7 -35 -15 -14 -17 -46
-20 -54 -6 -3 5 32 47 78 93 66 67 92 103 127 172 42 86 43 91 42 182 -1 57 3
98 10 107 7 8 64 52 127 97 183 132 217 164 296 285 40 60 88 129 105 152 31
41 32 45 20 83 -14 46 -34 60 -90 60 -45 0 -61 -16 -121 -125 -129 -232 -278
-400 -339 -380 -48 15 -33 80 42 179 63 83 76 107 106 198 28 83 59 112 138
128 182 36 434 234 514 404 32 68 27 86 -25 86 -47 0 -85 -25 -207 -140 -61
-58 -134 -122 -163 -142 -106 -77 -228 -128 -304 -128 -35 0 -35 0 -29 39 16
124 103 204 282 260 89 29 168 73 281 157 179 135 264 229 264 293 0 81 -39
116 -100 91 -17 -7 -65 -51 -108 -98 -95 -106 -137 -145 -216 -201 -108 -76
-216 -115 -216 -77 0 19 99 110 143 131 65 30 231 236 283 349 22 50 24 59 12
83 -9 19 -22 29 -40 31 -32 4 -58 -20 -503 -458 -159 -157 -312 -300 -339
-318 -47 -30 -106 -43 -106 -23 0 5 27 44 60 85 116 147 122 168 60 242 -23
27 -43 60 -47 73 -20 78 39 349 126 584 60 162 75 224 68 283 -6 54 -21 74
-56 74 -49 0 -109 -84 -157 -218 -23 -67 -47 -92 -85 -92 -38 0 -76 -20 -114
-59 -29 -31 -29 -34 -36 -174 -8 -159 -24 -217 -58 -217 -20 0 -21 6 -21 135
0 156 -13 206 -60 225 -42 17 -88 4 -110 -32 -28 -46 -32 -104 -15 -223 8 -61
18 -160 22 -220 6 -120 -2 -155 -37 -155 -24 0 -35 21 -44 83 -5 33 -17 59
-38 83 l-31 35 6 102 c4 56 16 215 27 352 21 263 20 311 -8 300 -111 -45 -150
-17 -122 87 17 62 34 92 101 171 69 82 171 233 228 338 44 80 53 136 25 163
-27 28 -55 18 -108 -36z m-3302 -1164 c3 -9 6 -49 6 -90 0 -54 6 -88 20 -120
21 -44 20 -107 -1 -119 -14 -9 -87 64 -109 110 -22 46 -20 89 6 99 8 3 14 16
14 28 0 29 36 108 48 108 6 0 13 -7 16 -16z m-396 -221 c59 -44 54 -82 -14
-96 -91 -19 -89 -18 -92 -76 -3 -47 1 -59 32 -105 35 -50 43 -84 30 -133 -4
-13 -10 -23 -14 -23 -10 0 -73 141 -98 220 -43 134 -38 184 20 221 39 24 98
21 136 -8z m-1429 -965 c28 -71 51 -137 51 -146 0 -9 -18 -37 -39 -62 -45 -51
-60 -49 -96 11 -17 29 -20 51 -20 164 1 140 14 197 40 175 8 -6 37 -70 64
-142z m5831 -172 c0 -13 -66 -79 -87 -87 -6 -2 -19 -22 -29 -43 -28 -59 -49
-60 -41 -2 4 25 14 60 22 76 25 48 135 94 135 56z m-790 -457 c6 -10 10 -44
10 -76 -1 -104 -66 -248 -126 -275 -29 -14 -71 11 -80 46 -8 34 23 234 40 261
18 28 112 76 132 68 8 -3 19 -14 24 -24z m700 -140 c0 -28 -267 -339 -291
-339 -18 0 -8 62 17 113 33 63 153 184 214 214 51 26 60 27 60 12z m-6905
-1415 c88 -62 163 -131 171 -156 5 -16 0 -27 -16 -40 -32 -26 -64 -22 -129 12
-64 35 -101 65 -126 104 -17 26 -17 27 3 42 17 11 20 21 15 49 -8 47 4 45 82
-11z m-251 -148 c146 -111 231 -164 272 -172 42 -8 51 -21 31 -41 -14 -14 -19
-13 -46 10 -17 14 -68 37 -113 52 -46 15 -108 41 -138 58 -74 42 -150 119
-150 152 0 41 26 31 144 -59z m338 -912 c54 -38 60 -59 18 -67 -20 -4 -37 -17
-48 -37 -23 -40 -38 -38 -53 7 -6 20 -33 59 -58 86 l-46 50 72 -5 c60 -3 79
-9 115 -34z"/>
</g>
</svg>
