<?xml version="1.0" standalone="no"?>
<!DOCTYPE svg PUBLIC "-//W3C//DTD SVG 20010904//EN"
 "http://www.w3.org/TR/2001/REC-SVG-20010904/DTD/svg10.dtd">
<svg version="1.0" xmlns="http://www.w3.org/2000/svg"
 width="1536.000000pt" height="1262.000000pt" viewBox="0 0 1536.000000 1262.000000"
 preserveAspectRatio="xMidYMid meet">
<metadata>
Created by potrace 1.16, written by Peter Selinger 2001-2019
</metadata>
<g transform="translate(0.000000,1262.000000) scale(0.100000,-0.100000)"
fill="#000000" stroke="none">
<path d="M8400 12606 c-19 -7 -152 -61 -295 -121 -729 -302 -866 -371 -1253
-628 l-194 -129 -81 16 c-222 45 -494 45 -1007 1 -380 -33 -624 -41 -760 -26
-57 7 -192 35 -300 63 -231 59 -293 61 -354 15 -47 -36 -76 -94 -76 -152 0
-60 19 -103 63 -142 35 -30 56 -39 152 -60 l40 -9 -95 -50 c-52 -28 -300 -152
-550 -276 -474 -235 -686 -351 -886 -486 -358 -239 -549 -425 -1058 -1026
-307 -362 -409 -473 -554 -598 -154 -133 -298 -236 -567 -409 -313 -201 -352
-231 -376 -283 -60 -131 28 -266 174 -266 53 0 61 4 248 126 533 347 632 419
839 608 125 114 248 248 499 546 524 623 735 822 1121 1062 118 73 280 163
418 232 l92 46 0 -55 c0 -65 26 -124 67 -153 36 -25 347 -127 480 -157 56 -13
231 -40 388 -60 l285 -37 54 26 c83 41 119 116 102 211 -8 40 -55 99 -98 121
-16 8 -146 30 -291 49 -278 37 -423 63 -410 75 16 15 1005 254 1408 340 267
57 299 71 335 144 32 67 21 155 -26 207 -13 15 -8 17 62 23 42 3 105 6 140 6
l62 0 -15 -31 c-53 -106 3 -238 114 -268 80 -23 112 -10 281 107 73 51 141 92
150 92 9 0 39 -10 65 -23 l48 -22 -388 -153 c-214 -84 -521 -202 -683 -263
-162 -61 -309 -119 -325 -129 -68 -42 -100 -163 -62 -237 35 -67 117 -110 191
-99 58 8 618 220 1384 525 l345 138 59 -18 c109 -34 174 -40 257 -23 42 8 93
26 113 40 48 31 80 93 80 155 0 44 3 49 31 58 16 6 31 11 33 11 2 0 3 -24 3
-52 -1 -29 4 -66 11 -83 15 -41 67 -92 104 -105 57 -18 229 -50 621 -116 215
-36 461 -81 548 -100 457 -101 782 -265 1176 -594 110 -91 273 -238 278 -250
2 -3 -36 -13 -85 -22 -319 -62 -640 -205 -1362 -608 -600 -334 -681 -374
-2025 -997 -398 -185 -712 -336 -728 -351 -37 -35 -48 -56 -62 -116 l-11 -49
-135 -52 c-73 -28 -226 -91 -339 -139 -113 -49 -234 -100 -270 -114 -81 -32
-113 -54 -139 -95 -59 -97 -21 -221 84 -268 78 -36 80 -36 494 141 372 158
519 208 701 240 36 7 227 15 425 20 230 5 371 12 390 20 17 6 42 23 57 37 l28
27 25 -24 c13 -12 22 -26 20 -31 -9 -13 -432 -350 -560 -445 -161 -120 -198
-140 -300 -164 -129 -30 -172 -56 -206 -122 -22 -44 -25 -115 -5 -161 18 -43
76 -93 126 -108 36 -11 55 -9 158 15 218 52 309 111 887 573 389 311 399 322
399 413 -1 51 -32 120 -66 145 l-23 16 67 62 c387 360 475 436 653 563 208
149 466 294 875 489 124 59 352 170 507 246 254 124 284 141 308 177 46 70 46
149 -1 217 -14 21 -24 39 -22 40 2 2 48 13 103 25 65 14 152 24 247 27 l146 6
56 -53 c66 -62 164 -184 213 -266 98 -163 154 -396 138 -579 -7 -93 -25 -128
-180 -356 -51 -74 -96 -146 -100 -159 -12 -38 -7 -107 10 -140 9 -17 15 -35
13 -39 -2 -4 -36 -38 -76 -76 -64 -60 -79 -69 -124 -76 -28 -5 -67 -19 -85
-32 -19 -14 -156 -141 -305 -283 -513 -492 -604 -576 -743 -700 -425 -375
-910 -691 -1264 -823 -323 -120 -762 -216 -1141 -250 -125 -12 -528 -15 -579
-5 l-31 6 0 167 c0 186 -10 224 -69 274 -30 25 -87 47 -121 47 -34 0 -91 -22
-120 -47 -59 -50 -70 -86 -70 -243 0 -133 -1 -140 -20 -140 -25 0 -302 71
-433 111 -56 17 -275 86 -487 154 -212 68 -449 143 -528 166 -163 47 -204 47
-269 0 -93 -67 -104 -213 -21 -287 35 -32 49 -38 218 -87 85 -25 324 -100 530
-167 439 -142 625 -196 850 -248 l165 -39 -2 -159 c-4 -246 -27 -386 -85 -529
-41 -100 -103 -194 -250 -382 -209 -267 -248 -334 -234 -406 23 -116 128 -186
234 -157 56 15 89 45 167 153 36 50 109 146 161 212 165 209 257 363 305 513
18 58 26 71 39 65 8 -3 38 -8 67 -11 53 -4 261 55 793 225 209 66 762 263 811
288 31 16 77 69 90 102 l8 23 35 -24 c45 -30 96 -40 145 -26 22 6 94 49 161
96 217 152 249 165 573 228 97 19 193 43 213 52 100 48 130 187 59 279 -53 71
-113 84 -249 55 -54 -11 -103 -20 -108 -20 -6 0 54 46 133 101 224 157 352
256 509 392 l145 125 25 -24 25 -24 -92 -88 c-65 -62 -95 -98 -103 -126 -27
-85 13 -187 90 -226 51 -26 128 -26 178 -1 20 11 181 158 356 328 726 702 879
828 1091 896 78 26 300 85 303 82 2 -2 -15 -36 -38 -76 -65 -114 -96 -198
-161 -423 -151 -526 -233 -654 -1037 -1623 -400 -483 -449 -546 -462 -594 -31
-115 62 -232 184 -232 93 0 86 -6 359 328 86 105 251 305 367 445 447 538 654
825 770 1065 70 145 112 259 176 482 85 301 124 381 263 547 155 185 171 212
171 281 0 49 -25 108 -59 139 l-21 19 64 76 c88 106 177 230 356 491 84 124
182 263 216 310 34 47 67 104 73 127 14 50 2 113 -28 154 -12 16 -21 30 -21
33 0 2 37 35 83 72 349 287 512 491 752 944 48 91 110 199 136 240 62 97 82
145 77 187 -2 18 -3 33 -1 33 2 0 54 -15 116 -34 220 -67 386 -82 532 -50 39
8 104 22 145 31 104 22 144 44 176 98 23 40 26 54 22 108 -3 34 -8 70 -13 80
-5 12 -3 17 9 17 34 0 97 42 122 80 73 110 17 255 -112 289 -34 9 -59 7 -135
-8 -52 -11 -177 -29 -279 -41 -259 -30 -390 -61 -585 -140 -28 -12 -48 -6
-250 68 -559 204 -711 233 -1123 213 -125 -7 -242 -14 -260 -17 -40 -6 -100
-58 -118 -101 -17 -39 -18 -111 -3 -150 15 -39 67 -91 105 -103 20 -7 141 -10
335 -8 284 2 311 1 407 -20 90 -20 385 -112 420 -131 8 -4 -72 -63 -215 -158
-658 -434 -1339 -956 -1676 -1282 -59 -57 -109 -102 -110 -100 -2 2 -16 43
-31 91 -14 48 -48 131 -75 185 -27 54 -48 99 -46 101 2 2 41 -1 86 -7 45 -6
104 -11 131 -11 137 0 233 136 183 258 -36 85 -81 110 -234 128 -64 7 -217 33
-341 57 l-225 44 -155 153 c-601 593 -1038 877 -1577 1025 -176 48 -353 83
-813 161 -217 37 -407 69 -422 72 -16 2 -28 8 -28 12 0 12 321 115 484 155
185 45 297 62 489 74 141 9 163 13 201 35 88 51 114 143 71 249 -7 16 11 17
281 17 385 0 676 -14 1039 -50 380 -38 602 -53 1152 -81 434 -23 442 -23 483
-4 23 10 54 34 69 52 l27 32 19 -35 c10 -20 38 -47 61 -60 47 -28 55 -29 419
-79 554 -76 608 -93 984 -310 135 -78 161 -89 211 -93 121 -9 207 77 198 199
-5 72 -35 117 -103 157 -563 329 -587 337 -1395 447 -102 14 -203 25 -223 25
-48 0 -110 -31 -138 -70 l-22 -29 -27 43 c-28 44 -77 74 -133 82 -18 2 -210
13 -427 24 -504 26 -751 43 -1130 80 -402 39 -650 50 -1146 50 -386 0 -894
-12 -1029 -25 l-60 -6 37 27 c53 38 82 101 76 169 -6 70 -39 118 -102 150 -55
28 -94 31 -146 11z m-690 -750 c0 -82 39 -142 115 -177 39 -17 39 -18 15 -28
-14 -6 -136 -54 -272 -106 l-247 -96 -110 56 c-61 30 -111 57 -111 59 0 4 125
85 211 137 82 49 372 198 387 199 8 0 12 -15 12 -44z m725 -1 c-5 -3 -86 -29
-179 -59 l-169 -55 38 39 c39 40 72 52 190 69 62 9 138 12 120 6z m-3370 -520
c138 0 241 -1 230 -3 -29 -5 -635 -151 -657 -158 -18 -5 -17 -4 2 28 14 23 20
50 20 91 l0 59 78 -9 c42 -4 190 -8 327 -8z m-1066 -537 c6 -17 19 -40 28 -50
9 -10 12 -18 8 -18 -17 0 -145 44 -145 50 0 6 78 48 92 49 3 1 11 -13 17 -31z
m9631 -702 c0 -11 -100 -181 -151 -258 -212 -315 -441 -506 -1300 -1086 -490
-329 -444 -301 -428 -271 51 98 197 286 319 413 212 220 720 623 1310 1039
214 151 250 175 250 163z m-1006 -1507 c-4 -7 -47 -71 -97 -143 -247 -360
-404 -533 -551 -605 -55 -27 -345 -114 -354 -106 -4 4 27 185 34 196 12 19
955 669 971 669 2 0 1 -5 -3 -11z m-4354 -171 c-19 -17 -136 -124 -260 -238
-124 -114 -250 -228 -280 -255 -30 -26 -61 -54 -68 -63 -11 -14 -16 -12 -45
15 -17 18 -45 37 -60 42 -16 6 -104 11 -200 11 l-172 0 135 63 c74 34 323 151
555 259 231 108 422 197 425 197 3 0 -11 -14 -30 -31z m2987 -845 c2 -6 -36
-41 -84 -79 -94 -72 -94 -65 1 34 58 59 75 69 83 45z m-2782 -2005 c-11 -35
-18 -38 -44 -17 l-23 19 23 9 c40 16 51 13 44 -11z m-607 -133 c-19 -19 -1074
-352 -1084 -342 -3 2 -1 67 2 143 l7 139 296 1 c295 0 469 13 661 48 82 15
126 19 118 11z"/>
<path d="M7486 10728 c-53 -14 -109 -73 -125 -130 -14 -49 -9 -93 16 -141 8
-16 13 -30 11 -32 -8 -8 -251 62 -457 131 -355 118 -387 127 -448 122 -131
-11 -208 -161 -142 -278 30 -53 78 -80 196 -114 51 -14 157 -49 235 -77 198
-69 427 -135 566 -161 96 -18 153 -22 322 -23 182 0 231 4 444 35 l238 34 94
-32 c143 -49 219 -88 302 -158 92 -77 144 -104 200 -104 59 0 101 20 144 68
46 51 59 115 35 182 -9 24 -15 45 -14 46 4 4 289 -72 517 -138 264 -77 295
-83 348 -68 79 21 142 101 142 180 0 48 -31 110 -69 143 -18 15 -62 36 -99 46
-542 157 -707 201 -852 225 -122 21 -329 36 -400 31 -30 -3 -114 -10 -185 -16
l-131 -11 -393 122 c-217 67 -408 123 -425 125 -17 2 -48 -1 -70 -7z"/>
<path d="M5435 8847 c-50 -21 -1035 -517 -1254 -631 -501 -263 -793 -453
-1095 -715 -158 -136 -799 -769 -820 -809 -25 -49 -18 -128 17 -180 56 -85
180 -107 267 -47 23 16 193 178 379 359 665 652 780 730 2016 1350 347 174
646 329 665 345 51 41 73 84 73 144 1 103 -70 183 -169 192 -27 3 -62 -1 -79
-8z"/>
<path d="M450 6190 c-25 -5 -109 -20 -188 -34 -79 -14 -156 -33 -172 -43 -90
-53 -114 -182 -51 -270 58 -80 135 -92 332 -54 298 59 373 49 718 -96 339
-142 394 -163 431 -163 36 0 38 -2 44 -37 14 -92 60 -125 346 -248 251 -108
357 -167 649 -363 455 -305 570 -392 736 -557 266 -265 390 -485 596 -1064
l58 -164 -67 -72 c-37 -39 -106 -116 -153 -170 -181 -212 -386 -450 -421 -492
-21 -25 -40 -60 -44 -79 -24 -131 57 -234 186 -234 94 0 98 4 435 399 l207
243 57 -138 c114 -275 183 -403 299 -552 230 -297 532 -498 854 -568 87 -19
303 -22 365 -5 79 22 142 101 143 179 0 72 -62 161 -127 183 -22 7 -66 9 -121
4 -166 -12 -337 38 -503 147 -105 69 -256 214 -338 323 -68 91 -182 326 -266
545 l-67 175 49 43 c26 24 107 83 178 131 128 87 225 144 604 357 219 122 282
174 301 242 31 118 -61 235 -185 235 -48 0 -68 -10 -286 -133 -503 -286 -618
-356 -755 -459 l-40 -30 -33 92 c-195 543 -343 802 -619 1089 -217 225 -294
283 -1002 759 -140 94 -293 175 -507 268 -89 38 -189 84 -223 101 -34 17 -84
34 -111 37 -44 5 -49 8 -49 31 0 14 -11 44 -25 67 -29 51 -48 61 -357 190
-260 108 -400 157 -510 179 -82 17 -288 20 -368 6z"/>
<path d="M10057 4305 c-22 -7 -50 -23 -63 -36 -13 -12 -94 -144 -180 -293 -86
-149 -158 -273 -160 -275 -1 -2 -16 6 -32 18 -89 63 -213 37 -273 -57 -16 -25
-156 -298 -310 -606 -369 -734 -438 -860 -623 -1136 -208 -309 -362 -484 -956
-1086 -267 -271 -498 -510 -514 -532 -30 -45 -42 -101 -32 -157 13 -69 108
-145 181 -144 74 0 91 15 541 470 627 633 757 774 969 1060 l101 136 33 -38
c43 -51 84 -72 146 -72 57 0 97 18 137 60 36 37 51 76 93 239 68 259 156 426
930 1759 109 187 213 368 231 403 65 122 34 230 -81 283 -47 22 -86 23 -138 4z"/>
</g>
</svg>
