<?xml version="1.0" encoding="UTF-8" standalone="no"?>
<!-- Created with Inkscape (http://www.inkscape.org/) -->

<svg
   xmlns:svg="http://www.w3.org/2000/svg"
   xmlns="http://www.w3.org/2000/svg"
   version="1.1"
   width="613.68201"
   height="307.92099"
   viewBox="0 0 613.682 307.921"
   id="Layer_1"
   xml:space="preserve"><defs
   id="defs21" />
    
    <g
   id="g3">
        
        <g
   id="g5">
            
            <path
   d="m 170.16,0 c -9.849,1.058 -17.889,5.443 -24.96,10.08 -2.475,1.623 -5.222,3.618 -7.68,5.52 -2.372,1.834 -5.183,5.013 -7.44,5.76 -2.656,0.879 -6.35,0.591 -9.6,0.96 -9.003,1.022 -18.903,1.867 -27.84,3.6 -12.064,2.34 -24.574,2.878 -35.52,6.48 -1.935,0.637 -4.457,3.104 -5.76,4.8 -1.316,1.713 -1.846,4.25 -3.6,6.24 -2.943,3.338 -9.029,5.481 -13.2,8.16 -4.12,2.646 -8.085,6.263 -11.76,9.6 -3.385,3.074 -7.246,6.762 -11.04,10.32 C 7.694,75.333 1.5,79.911 0,86.16 0,57.44 0,28.72 0,0 56.719,0 113.442,0 170.16,0 z"
   id="path7"
   style="fill:#ffffff;fill-rule:evenodd" />
            
            <path
   d="m 170.16,0 c 4.4,0 8.8,0 13.2,0 7.076,-0.021 10.703,4.433 14.64,8.88 5.194,5.867 12.207,12.103 8.88,24 11.741,1.348 21.558,-3.635 30.96,-7.68 9.274,-3.99 18.994,-6.823 29.04,-9.84 19.974,-5.998 41.357,-11.093 67.201,-9.36 24.333,1.631 48.752,3.58 71.279,6.72 11.662,1.625 22.371,3.572 32.16,6.72 9.714,3.124 18.76,7.077 28.32,10.56 9.567,3.486 18.797,6.916 27.84,11.28 8.775,4.235 17.388,8.34 25.92,12.96 8.694,4.707 17.049,9.242 25.2,13.92 16.091,9.234 31.064,21.591 42,36 5.546,7.307 9.229,16.423 12.96,25.92 7.206,18.339 11.216,39.99 13.921,63.84 0,4.961 0,9.921 0,14.881 -1.475,20.752 -9.913,36.216 -17.521,51.6 -3.639,7.358 -7.336,15.832 -12.479,22.08 -5.258,6.386 -12.716,10.852 -24.48,10.08 -1.053,4.371 -4.338,5.657 -7.68,8.64 -3.468,3.095 -6.714,6.406 -12.721,6.721 -1.76,0 -3.52,0 -5.279,0 -4.229,0.182 -8.424,-1.86 -12.961,-2.4 -5.188,-0.617 -11.116,0.48 -17.039,0.48 -11.114,0 -22.469,-0.96 -33.601,-0.96 -2.913,0 -5.729,0.098 -8.4,-0.24 -2.351,-0.298 -4.616,-1.537 -6.96,-1.681 -3.569,-0.218 -7.581,1.264 -11.279,0.721 -3.074,-0.451 -6.399,-3.373 -9.12,-3.36 -2.561,0.013 -4.478,2.442 -6.721,2.4 -1.054,-0.021 -1.633,-0.875 -2.88,-1.44 -1.116,-0.506 -2.404,-0.56 -3.359,-0.96 -1.694,-0.709 -2.871,-2.748 -4.561,-3.12 -2.312,-0.509 -4.342,0.806 -7.439,0.24 -1.024,-0.152 0.063,-1.896 0,-2.64 -5.615,0.623 -9.887,0.871 -14.641,-0.24 -6.633,-1.551 -11.33,-5.434 -18,-2.4 -0.555,-1.069 -0.007,-3.61 -0.24,-4.319 -4.989,-0.425 -8.399,0.288 -12,1.68 0.595,-6.867 6.155,-9.063 11.521,-11.76 4.717,-2.372 10.677,-7.077 17.52,-6.721 2.052,0.107 4.088,1.254 6,1.681 6.735,1.5 12.955,1.611 20.641,0.479 9.402,-1.384 18.302,-0.994 27.12,-3.6 -3.145,-4.586 -7.567,-8.928 -11.76,-13.44 -1.726,-1.856 -3.95,-4.189 -6.24,-6.479 -2.223,-2.223 -4.162,-5.069 -6.48,-6.24 -2.483,-1.254 -5.989,-1.538 -9.12,-2.4 -20.476,-5.638 -42.979,-11.607 -62.399,-18.24 -4.591,6.9 -5.943,15.664 -7.681,24.961 -0.681,3.642 -0.944,7.798 -2.399,10.56 -1.238,2.35 -3.711,4.35 -5.521,6.96 -1.626,2.346 -3.288,5.062 -4.8,7.44 -3.418,5.374 -7.844,12.732 -13.92,15.359 -5.199,2.248 -15.132,4.431 -21.36,3.12 -2.864,-0.603 -3.808,-2.729 -7.2,-3.12 -4.33,-0.498 -11.73,0.81 -16.32,0.24 -1.732,-0.215 -4.044,-0.878 -5.04,-0.72 -2.634,0.419 -7.126,6.33 -9.12,8.399 -3.121,3.24 -6.306,7.869 -9.12,9.12 -3.078,1.369 -8.384,2.512 -13.2,1.92 -1.889,-0.231 -3.522,-1.784 -5.28,-2.159 -3.001,-0.642 -7.453,0.326 -11.28,-0.48 -1.658,-0.35 -3.104,-1.314 -4.56,-1.44 -2.129,-0.184 -4.253,0.577 -6.24,0.24 -1.744,-0.295 -3.185,-1.779 -5.04,-1.68 -1.326,-0.813 -0.662,-2.081 -1.68,-2.88 -2.344,-1.838 -6.236,0.503 -9.6,0.24 3.067,-6.05 6.663,-9.097 12.96,-10.801 1.998,-0.54 4.266,-0.336 6.72,-0.96 1.849,-0.47 4.051,-2.358 6,-2.64 4.476,-0.646 8.738,1.279 12.96,0.24 3.276,-0.807 6.435,-7.095 8.4,-10.32 2.496,-4.096 5.167,-8.192 6.24,-12.48 1.055,-4.214 0.472,-9.841 0.24,-15.6 -0.48,-11.917 -0.773,-19.592 -1.92,-31.2 -0.436,-4.416 -0.506,-11.667 -2.16,-14.399 -1.456,-2.406 -8.701,-4.557 -11.76,-5.761 -12.059,-4.746 -23.815,-12.282 -33.84,-18.72 -14.548,-9.342 -27.13,-19.51 -40.56,-29.28 -7.798,-5.673 -13.993,-10.282 -21.84,-13.2 -8.248,-3.067 -19.652,-2.57 -31.2,-3.12 -5.539,-0.264 -11.148,-0.334 -16.8,-0.72 -5.496,-0.375 -11.141,-1.007 -16.56,-0.96 -11.294,0.098 -22.173,2.541 -33.36,1.44 -6.106,-0.601 -8.984,-4.632 -12.48,-8.64 -11.123,-1.271 -16.123,-7.253 -17.04,-18.48 -0.106,-1.306 0.199,-3.358 -0.24,-4.56 C 5.074,97.653 2.432,96.534 1.442,94.802 0.546,93.236 0.505,92.486 0,90.72 0,89.2 0,87.68 0,86.16 1.5,79.911 7.694,75.333 11.76,71.52 15.553,67.962 19.415,64.274 22.8,61.2 c 3.675,-3.337 7.64,-6.954 11.76,-9.6 4.171,-2.679 10.257,-4.822 13.2,-8.16 1.754,-1.99 2.284,-4.527 3.6,-6.24 1.303,-1.697 3.825,-4.164 5.76,-4.8 10.946,-3.602 23.456,-4.14 35.52,-6.48 8.937,-1.733 18.837,-2.578 27.84,-3.6 3.25,-0.369 6.944,-0.081 9.6,-0.96 2.258,-0.747 5.069,-3.925 7.44,-5.76 2.458,-1.902 5.205,-3.897 7.68,-5.52 C 152.271,5.443 160.311,1.058 170.16,0 z m 131.041,269.28 c 2.005,-1.543 3.655,-4.424 4.32,-6.96 1.425,-5.433 -3.945,-10.451 -6,-14.16 -5.011,7.149 -10.247,14.073 -14.88,21.601 6.515,0.331 12.58,2.582 16.56,-0.481 z"
   id="path9"
   style="fill-rule:evenodd" />
            
            <path
   d="m 183.36,0 c 143.44,0 286.885,0 430.322,0 0,64.641 0,129.278 0,193.92 -2.705,-23.85 -6.715,-45.5 -13.921,-63.84 -3.731,-9.497 -7.414,-18.613 -12.96,-25.92 -10.936,-14.409 -25.909,-26.766 -42,-36 -8.151,-4.678 -16.506,-9.213 -25.2,-13.92 -8.532,-4.62 -17.145,-8.725 -25.92,-12.96 C 484.638,36.915 475.409,33.486 465.841,30 456.28,26.517 447.235,22.563 437.521,19.44 427.732,16.292 417.023,14.345 405.361,12.72 382.833,9.58 358.414,7.631 334.081,6 308.237,4.267 286.853,9.362 266.88,15.36 c -10.046,3.017 -19.766,5.85 -29.04,9.84 -9.402,4.045 -19.219,9.028 -30.96,7.68 C 210.207,20.983 203.194,14.747 198,8.88 194.063,4.433 190.437,-0.021 183.36,0 z"
   id="path11"
   style="fill:#ffffff;fill-rule:evenodd" />
            
            <path
   d="m 0,90.72 c 0.505,1.766 0.546,2.516 1.44,4.08 0.99,1.732 3.632,2.851 4.08,4.08 0.438,1.202 0.133,3.254 0.24,4.56 0.917,11.227 5.917,17.209 17.04,18.48 3.496,4.007 6.374,8.039 12.48,8.64 11.187,1.101 22.065,-1.342 33.36,-1.44 5.419,-0.047 11.064,0.585 16.56,0.96 5.652,0.386 11.261,0.457 16.8,0.72 11.548,0.55 22.953,0.053 31.2,3.12 7.847,2.918 14.042,7.527 21.84,13.2 13.43,9.771 26.012,19.938 40.56,29.28 10.025,6.438 21.781,13.974 33.84,18.72 3.059,1.204 10.304,3.354 11.76,5.761 1.654,2.732 1.724,9.983 2.16,14.399 1.147,11.608 1.439,19.283 1.92,31.2 0.232,5.759 0.815,11.386 -0.24,15.6 -1.073,4.288 -3.744,8.385 -6.24,12.48 -1.965,3.226 -5.124,9.514 -8.4,10.32 -4.222,1.039 -8.484,-0.886 -12.96,-0.24 -1.949,0.281 -4.151,2.17 -6,2.64 -2.454,0.624 -4.723,0.42 -6.72,0.96 -6.297,1.704 -9.893,4.751 -12.96,10.801 3.364,0.263 7.256,-2.078 9.6,-0.24 1.019,0.799 0.354,2.066 1.68,2.88 1.855,-0.1 3.296,1.385 5.04,1.68 1.987,0.337 4.11,-0.424 6.24,-0.24 1.457,0.126 2.902,1.091 4.56,1.44 3.828,0.807 8.279,-0.161 11.28,0.48 1.757,0.375 3.391,1.928 5.28,2.159 4.816,0.592 10.123,-0.551 13.2,-1.92 2.814,-1.251 6,-5.88 9.12,-9.12 1.993,-2.069 6.486,-7.98 9.12,-8.399 0.996,-0.158 3.308,0.505 5.04,0.72 4.59,0.569 11.991,-0.738 16.32,-0.24 3.392,0.391 4.336,2.518 7.2,3.12 6.228,1.311 16.161,-0.872 21.36,-3.12 6.076,-2.627 10.502,-9.985 13.92,-15.359 1.512,-2.379 3.174,-5.095 4.8,-7.44 1.81,-2.61 4.282,-4.61 5.521,-6.96 1.455,-2.762 1.719,-6.918 2.399,-10.56 1.737,-9.297 3.09,-18.061 7.681,-24.961 19.421,6.633 41.924,12.603 62.399,18.24 3.131,0.862 6.637,1.146 9.12,2.4 2.318,1.171 4.258,4.018 6.48,6.24 2.29,2.29 4.515,4.623 6.24,6.479 4.192,4.513 8.615,8.854 11.76,13.44 -8.818,2.605 -17.718,2.216 -27.12,3.6 -7.686,1.132 -13.905,1.021 -20.641,-0.479 -1.912,-0.427 -3.948,-1.573 -6,-1.681 -6.843,-0.356 -12.803,4.349 -17.52,6.721 -5.365,2.697 -10.926,4.893 -11.521,11.76 3.601,-1.392 7.011,-2.104 12,-1.68 0.233,0.709 -0.314,3.25 0.24,4.319 6.67,-3.033 11.367,0.85 18,2.4 4.754,1.111 9.025,0.863 14.641,0.24 0.063,0.744 -1.024,2.487 0,2.64 3.098,0.565 5.128,-0.749 7.439,-0.24 1.689,0.372 2.866,2.411 4.561,3.12 0.955,0.4 2.243,0.454 3.359,0.96 1.247,0.565 1.826,1.42 2.88,1.44 2.243,0.042 4.16,-2.388 6.721,-2.4 2.721,-0.013 6.046,2.909 9.12,3.36 3.698,0.543 7.71,-0.938 11.279,-0.721 2.344,0.144 4.609,1.383 6.96,1.681 2.672,0.338 5.487,0.24 8.4,0.24 11.132,0 22.486,0.96 33.601,0.96 5.923,0 11.851,-1.098 17.039,-0.48 4.537,0.54 8.732,2.582 12.961,2.4 -177.837,0 -355.694,0 -533.521,0 C 0,235.522 0,163.118 0,90.72 z"
   id="path13"
   style="fill:#ffffff;fill-rule:evenodd" />
            
            <path
   d="m 613.682,208.801 c 0,33.04 0,66.079 0,99.12 -24.96,0 -49.921,0 -74.881,0 6.007,-0.314 9.253,-3.626 12.721,-6.721 3.342,-2.982 6.627,-4.269 7.68,-8.64 11.765,0.771 19.223,-3.694 24.48,-10.08 5.144,-6.248 8.841,-14.722 12.479,-22.08 7.608,-15.383 16.046,-30.847 17.521,-51.599 z"
   id="path15"
   style="fill:#ffffff;fill-rule:evenodd" />
            
            <path
   d="m 284.641,269.761 c 4.633,-7.527 9.869,-14.451 14.88,-21.601 2.055,3.709 7.425,8.728 6,14.16 -0.665,2.536 -2.314,5.417 -4.32,6.96 -3.98,3.063 -10.045,0.812 -16.56,0.481 z"
   id="path17"
   style="fill:#ffffff;fill-rule:evenodd" />
            
        </g>
        
    </g>
    
</svg>