<?xml version="1.0" standalone="no"?>
<!DOCTYPE svg PUBLIC "-//W3C//DTD SVG 20010904//EN"
 "http://www.w3.org/TR/2001/REC-SVG-20010904/DTD/svg10.dtd">
<svg version="1.0" xmlns="http://www.w3.org/2000/svg"
 width="1000.000000pt" height="1536.000000pt" viewBox="0 0 1000.000000 1536.000000"
 preserveAspectRatio="xMidYMid meet">
<metadata>
Created by potrace 1.16, written by Peter Selinger 2001-2019
</metadata>
<g transform="translate(0.000000,1536.000000) scale(0.100000,-0.100000)"
fill="#000000" stroke="none">
<path d="M772 15350 c-29 -12 -39 -38 -20 -57 28 -28 263 -69 511 -89 66 -5
76 -8 66 -20 -6 -8 -10 -16 -8 -18 19 -17 229 -113 297 -135 62 -20 80 -30 66
-35 -16 -6 -14 -10 16 -28 19 -12 80 -51 135 -86 55 -36 126 -77 158 -93 49
-23 56 -29 41 -37 -15 -9 -4 -25 85 -120 101 -108 169 -171 224 -206 32 -21
35 -36 7 -36 -11 0 -20 -5 -20 -11 0 -19 151 -201 248 -298 51 -51 91 -95 89
-97 -1 -2 -18 -10 -36 -17 l-33 -14 34 -39 c19 -22 56 -68 83 -104 69 -91 132
-157 185 -193 l45 -31 -37 -11 -37 -10 142 -136 c142 -135 222 -200 268 -217
23 -9 23 -10 -15 -26 l-40 -17 70 -51 c184 -136 331 -221 403 -234 32 -6 33
-8 16 -20 -10 -8 -27 -14 -37 -14 -10 0 -18 -3 -18 -7 1 -14 343 -210 398
-230 30 -10 58 -26 63 -35 11 -20 60 -48 84 -48 9 0 30 -10 48 -22 18 -13 34
-24 36 -25 2 -1 -1 -9 -8 -16 -9 -12 15 -31 129 -106 136 -90 140 -93 170
-155 33 -70 38 -111 16 -142 -8 -11 -16 -31 -18 -44 -3 -24 -7 -25 -83 -30
-95 -6 -154 -35 -208 -103 -150 -186 -139 -386 36 -620 65 -87 91 -126 86
-131 -2 -2 -33 -18 -69 -36 -181 -90 -386 -270 -492 -430 -33 -50 -95 -172
-149 -295 -51 -116 -94 -212 -96 -215 -3 -3 -23 6 -46 19 -184 103 -357 172
-381 151 -8 -6 -17 -7 -19 -3 -3 5 -29 78 -57 163 -77 232 -133 504 -180 879
-12 90 -25 172 -31 182 -11 22 -41 39 -67 39 -15 0 -26 19 -51 83 -18 46 -43
97 -56 113 -19 24 -25 27 -39 15 -13 -11 -16 -11 -20 0 -3 8 -10 31 -16 52 -7
21 -20 43 -31 50 -11 7 -19 23 -19 40 0 35 -25 96 -43 102 -9 4 -12 22 -9 69
7 110 -33 206 -109 262 -42 31 -80 31 -116 0 -23 -20 -28 -32 -27 -70 0 -25
-1 -46 -2 -46 -6 0 -44 78 -44 90 0 5 8 10 18 10 15 1 15 2 1 10 -21 12 -58 5
-73 -14 -6 -8 -24 -16 -41 -18 -27 -3 -30 -7 -33 -43 -3 -39 -3 -39 17 -21 29
26 69 10 109 -47 l34 -47 -44 20 c-66 30 -145 24 -170 -14 -13 -18 -9 -75 6
-104 35 -66 140 -138 241 -163 26 -7 59 -23 73 -36 14 -12 42 -28 63 -35 21
-6 36 -15 33 -19 -7 -12 24 -67 46 -82 24 -14 26 -27 5 -27 -8 0 -15 -2 -15
-5 0 -20 36 -68 89 -118 l61 -58 -30 -25 c-32 -28 -32 -23 -9 -214 39 -313
182 -703 387 -1054 l40 -69 -20 -28 c-20 -26 -20 -29 -5 -53 9 -14 28 -33 42
-43 14 -10 47 -35 73 -56 68 -55 120 -83 224 -123 51 -20 96 -38 100 -40 3 -2
-5 -37 -18 -76 -112 -329 -122 -582 -31 -773 52 -107 59 -113 157 -130 163
-28 316 -46 463 -52 101 -4 147 -10 144 -17 -2 -6 -21 -82 -42 -170 l-38 -159
-91 9 c-50 5 -127 9 -172 9 -75 0 -87 -3 -158 -39 -55 -28 -105 -66 -172 -129
-98 -93 -104 -102 -155 -247 -16 -46 -32 -86 -34 -88 -1 -2 -74 28 -162 66
-191 84 -265 109 -363 123 -41 6 -90 13 -108 16 -59 10 -107 -48 -70 -85 16
-16 10 -17 -172 -37 -424 -47 -811 -144 -1140 -286 -185 -80 -234 -109 -238
-141 -4 -33 -5 -33 -135 -17 -101 12 -152 3 -141 -26 5 -12 -3 -15 -46 -15
-28 0 -60 -5 -70 -10 -14 -8 -30 -4 -66 15 -26 14 -57 25 -69 25 -13 0 -49 18
-81 39 -102 68 -236 99 -307 72 -35 -14 -67 -51 -67 -78 0 -55 61 -123 125
-139 l30 -8 -25 -7 c-78 -22 -150 0 -150 47 0 31 -10 30 -40 -1 -20 -21 -22
-28 -12 -50 6 -14 16 -25 22 -25 6 0 8 -10 4 -26 -5 -18 0 -32 17 -50 24 -26
50 -34 29 -9 -18 22 -4 32 55 40 l50 7 -32 -21 c-91 -57 -65 -161 45 -181 92
-17 185 15 269 93 37 34 52 41 87 42 29 0 56 9 83 27 26 17 48 24 65 21 14 -3
46 4 71 15 l46 20 3 -21 c3 -19 9 -22 43 -20 22 1 83 15 135 32 52 17 94 29
95 28 4 -21 29 -44 57 -51 32 -8 51 -1 199 66 438 201 722 311 999 386 246 66
228 63 235 42 8 -26 180 -99 430 -182 115 -39 212 -72 213 -74 2 -1 -5 -56
-17 -121 -43 -247 -63 -509 -81 -1038 -11 -317 -21 -495 -41 -690 -8 -79 -8
-161 0 -294 6 -102 11 -248 11 -326 l0 -142 -47 -33 c-199 -141 -333 -249
-432 -349 -63 -63 -125 -130 -138 -149 -29 -44 -30 -82 -3 -89 17 -5 -18 -45
-212 -242 -232 -235 -365 -386 -509 -576 -138 -183 -295 -429 -373 -583 -35
-70 -35 -94 -1 -132 13 -14 5 -25 -62 -90 -42 -41 -87 -92 -101 -113 -24 -36
-25 -40 -9 -49 16 -8 14 -14 -18 -51 -20 -23 -39 -54 -42 -69 -4 -20 -16 -30
-49 -43 -24 -9 -54 -29 -67 -44 -13 -15 -36 -31 -53 -35 -62 -15 -175 -78
-228 -127 -96 -87 -126 -161 -86 -212 18 -23 29 -27 73 -27 34 0 70 9 105 25
l53 24 -18 -30 c-49 -82 -107 -116 -143 -84 -20 18 -20 17 -20 -28 0 -37 4
-47 20 -52 10 -3 28 -1 40 5 16 8 20 8 20 -4 0 -8 5 -18 12 -22 17 -11 71 -6
83 8 7 8 5 9 -7 5 -32 -11 -30 13 7 78 20 36 38 65 40 65 1 0 -3 -19 -10 -43
-16 -55 -9 -92 23 -117 43 -35 83 -26 145 30 77 70 110 146 115 268 4 81 8 97
27 116 22 22 45 82 45 117 0 9 13 32 29 52 15 20 34 56 41 81 11 41 14 44 32
33 17 -10 23 -8 44 18 13 17 41 70 61 118 34 80 41 90 78 106 52 23 58 31 145
186 115 203 262 444 383 630 139 212 158 239 337 468 124 159 148 185 167 180
36 -8 217 123 430 314 l70 62 6 -607 c8 -759 24 -1049 83 -1461 108 -757 350
-1409 726 -1958 72 -105 236 -269 318 -316 171 -99 373 -109 519 -25 18 10 34
18 35 16 63 -98 160 -194 237 -234 46 -24 66 -29 134 -29 70 0 87 4 134 30 61
34 157 134 192 200 16 31 29 44 39 41 8 -3 49 -17 90 -32 66 -23 86 -26 170
-22 164 8 272 60 416 203 119 117 230 288 372 571 268 534 408 1079 474 1839
16 187 16 1097 0 1405 -6 118 -10 215 -8 217 1 2 34 -22 72 -52 119 -96 233
-167 257 -161 11 3 25 -1 31 -9 257 -328 357 -463 457 -615 121 -185 316 -506
422 -696 62 -108 86 -136 131 -151 25 -8 35 -23 68 -99 21 -49 49 -102 62
-119 21 -26 27 -28 44 -18 17 10 20 6 35 -41 9 -29 28 -63 42 -76 14 -13 25
-33 25 -44 0 -40 22 -99 45 -122 19 -19 23 -35 27 -116 5 -122 38 -198 115
-268 62 -57 102 -65 147 -29 21 16 26 29 26 64 0 24 -4 55 -10 69 -16 44 -2
29 35 -39 37 -65 39 -89 7 -78 -12 4 -14 3 -7 -5 12 -14 66 -19 83 -8 7 4 12
14 12 22 0 12 4 12 20 4 12 -6 30 -8 40 -5 16 5 20 15 20 52 0 45 0 46 -20 28
-36 -32 -94 2 -143 84 l-18 30 53 -24 c35 -16 71 -25 105 -25 44 0 55 4 73 27
37 48 12 118 -72 200 -55 53 -147 108 -218 131 -32 10 -64 28 -78 44 -12 15
-42 34 -66 43 -33 13 -45 23 -49 43 -3 15 -22 46 -41 69 -40 46 -43 53 -21 53
8 0 15 4 15 8 0 18 -59 90 -128 157 -63 61 -70 71 -57 85 34 38 34 62 -1 132
-78 155 -236 402 -373 583 -146 193 -278 342 -509 576 -194 197 -230 237 -212
242 26 7 26 42 0 85 -42 69 -244 256 -356 330 l-111 73 -7 299 c-4 165 -4 355
-1 422 6 99 3 151 -14 268 -25 172 -43 364 -71 745 -33 462 -60 686 -110 930
-16 76 -28 141 -26 142 2 2 84 21 183 43 280 60 436 112 448 150 7 21 -11 24
235 -42 277 -75 561 -185 999 -386 148 -67 167 -74 199 -66 28 7 49 26 58 52
0 1 27 -7 60 -18 152 -53 214 -58 214 -20 0 18 2 18 46 -2 26 -11 58 -18 72
-15 17 3 39 -4 65 -21 27 -18 54 -27 84 -27 35 -1 50 -8 81 -37 58 -55 95 -77
159 -93 114 -29 213 11 213 86 0 41 -15 66 -53 90 l-32 21 50 -7 c59 -8 73
-18 55 -40 -21 -25 5 -17 29 9 17 18 22 32 17 50 -4 16 -2 26 4 26 6 0 16 11
22 25 10 22 8 29 -12 50 -30 31 -40 32 -40 1 0 -47 -72 -69 -150 -47 l-25 7
30 8 c87 22 152 125 112 177 -57 75 -223 60 -361 -32 -32 -21 -68 -39 -81 -39
-12 0 -43 -11 -69 -25 -36 -19 -52 -23 -66 -15 -10 5 -42 10 -70 10 -43 0 -51
3 -46 15 11 29 -40 38 -141 26 -130 -16 -131 -16 -135 17 -4 32 -53 61 -238
141 -329 142 -717 239 -1140 286 -182 20 -188 21 -172 37 39 39 -11 95 -75 84
-21 -3 -77 -10 -125 -16 -109 -12 -164 -26 -352 -90 -81 -28 -149 -50 -150
-48 -1 2 -24 58 -50 124 -41 105 -54 128 -99 171 -119 115 -237 188 -331 203
-37 6 -86 3 -181 -12 -116 -18 -136 -19 -185 -7 l-55 14 -52 125 c-28 69 -52
130 -52 136 -1 8 89 13 312 17 171 3 332 10 357 15 91 20 115 88 115 317 -1
178 -21 313 -80 547 -18 73 -30 137 -26 141 5 4 50 24 102 43 124 47 203 87
267 138 134 105 144 118 112 159 -18 23 -18 24 32 113 88 155 195 381 243 512
82 222 145 513 145 667 0 46 -4 56 -26 72 l-26 19 62 60 c53 51 90 99 90 119
0 3 -7 5 -15 5 -8 0 -15 5 -15 10 0 6 4 10 10 10 14 0 63 77 56 88 -3 5 11 14
32 20 20 6 48 22 62 35 14 13 47 29 74 36 99 25 209 98 242 162 54 105 -42
174 -164 119 l-44 -20 34 47 c40 57 80 73 109 47 20 -18 20 -18 17 21 -3 38
-5 40 -40 43 -25 2 -38 8 -38 18 0 8 -3 14 -7 15 -5 0 -17 2 -27 4 -11 2 -27
0 -35 -5 -14 -8 -14 -9 2 -10 24 0 21 -18 -13 -75 -24 -40 -29 -44 -23 -20 18
75 -15 135 -76 135 -42 0 -102 -49 -136 -111 -24 -45 -30 -68 -33 -144 -4 -67
-9 -96 -24 -115 -10 -14 -21 -44 -25 -65 -3 -22 -14 -49 -24 -61 -11 -11 -26
-41 -35 -67 -13 -39 -19 -46 -30 -36 -24 19 -50 -14 -90 -117 -32 -80 -41 -94
-60 -94 -13 0 -34 -10 -48 -22 -24 -21 -28 -37 -51 -223 -30 -240 -45 -330
-90 -540 -43 -200 -136 -482 -156 -476 -47 14 -179 -34 -339 -124 -52 -29
-101 -55 -108 -57 -9 -2 -32 41 -66 120 -78 179 -137 271 -241 376 -50 50
-138 147 -197 216 -113 133 -179 193 -266 243 l-54 30 60 61 c63 65 131 152
172 219 22 37 25 53 25 142 0 118 -12 158 -71 241 -68 96 -131 137 -240 154
-38 6 -73 15 -78 20 -5 5 -10 30 -11 56 -2 31 -8 50 -19 56 -24 14 -20 53 15
125 30 63 33 66 165 151 110 71 134 91 130 107 -3 15 5 26 30 43 20 12 42 22
50 22 24 0 73 29 83 49 6 10 33 26 60 35 28 9 88 38 133 65 235 137 267 157
268 164 0 4 -8 7 -18 7 -10 0 -27 6 -37 14 -17 12 -16 14 16 20 72 13 219 98
403 234 l68 50 -38 21 c-22 11 -32 20 -23 21 30 0 138 86 278 221 l142 137
-38 7 -38 7 29 22 c63 45 109 92 178 180 40 50 87 108 106 130 l34 39 -33 14
c-18 7 -35 15 -37 18 -2 2 36 43 85 92 92 91 253 284 253 302 0 6 -9 11 -20
11 -31 0 -24 15 23 45 42 28 307 293 307 307 0 5 -7 8 -15 8 -28 0 -15 15 28
33 23 9 92 49 152 88 61 38 127 80 148 92 34 19 36 23 21 34 -15 11 -13 13 12
18 61 13 153 49 249 98 120 60 111 53 96 71 -10 12 0 15 66 20 248 20 483 61
511 89 8 9 12 23 9 31 -22 56 -227 46 -505 -25 -135 -34 -132 -34 -132 -9 0
25 0 25 -57 -9 -26 -15 -80 -47 -119 -69 -39 -23 -98 -61 -130 -86 -54 -41
-60 -43 -69 -26 -9 17 -12 17 -40 -7 -16 -13 -72 -56 -123 -94 -95 -71 -182
-154 -182 -173 0 -6 -11 2 -24 18 l-23 30 -12 -22 c-7 -12 -60 -80 -118 -150
-62 -74 -118 -153 -136 -189 -16 -35 -31 -63 -35 -63 -3 0 -14 8 -25 18 -19
16 -20 16 -31 -1 -6 -11 -51 -80 -100 -155 -48 -76 -102 -165 -118 -199 -30
-63 -30 -63 -48 -41 l-17 22 -13 -25 c-7 -13 -46 -67 -85 -119 -94 -123 -120
-166 -143 -234 l-19 -55 -20 20 -20 20 -99 -118 c-91 -108 -194 -251 -206
-284 -4 -11 -9 -12 -26 -2 -20 12 -35 2 -171 -112 -82 -68 -164 -145 -182
-170 -18 -25 -35 -45 -37 -45 -3 0 -13 7 -23 16 -16 14 -21 14 -56 -4 -100
-52 -313 -227 -313 -257 0 -8 -10 -17 -22 -21 -13 -4 -39 -21 -59 -38 -64 -55
-79 -66 -79 -56 0 20 -27 8 -92 -41 -83 -62 -131 -116 -169 -191 -16 -32 -31
-58 -34 -58 -2 0 -20 16 -40 35 -24 25 -35 45 -35 65 0 35 -12 38 -47 10 -36
-28 -77 -26 -101 5 -11 14 -29 25 -40 25 -11 0 -34 -11 -50 -25 -38 -32 -102
-34 -151 -4 -38 23 -51 15 -51 -33 0 -21 -5 -28 -20 -28 -14 0 -20 -7 -20 -22
0 -17 -8 -10 -29 28 -45 82 -69 112 -137 168 -80 66 -113 84 -122 69 -5 -8
-26 5 -62 36 -30 27 -65 51 -77 55 -13 4 -23 13 -23 21 0 30 -213 205 -313
257 -35 18 -40 18 -56 4 -10 -9 -20 -16 -22 -16 -3 0 -21 21 -40 46 -19 25
-100 102 -182 170 -135 113 -149 123 -168 111 -14 -7 -23 -8 -25 -2 -14 36
-105 163 -198 275 l-108 131 -24 -22 c-23 -21 -24 -21 -24 -3 0 38 -63 151
-144 259 -46 61 -89 121 -96 134 l-13 25 -17 -22 c-18 -21 -18 -21 -48 41 -17
34 -71 123 -119 198 -48 75 -93 145 -99 155 -10 17 -12 17 -34 1 -30 -21 -40
-21 -40 -2 0 33 -53 116 -152 235 -57 69 -110 137 -119 150 l-16 24 -17 -26
-17 -26 -52 55 c-29 31 -102 93 -164 140 -62 46 -115 89 -119 95 -4 7 -11 3
-18 -10 -11 -20 -13 -18 -75 28 -35 26 -116 77 -180 113 -103 58 -116 63 -119
46 -2 -10 -7 -19 -12 -19 -5 0 -62 14 -127 31 -203 52 -409 74 -471 49z m-555
-7936 c-3 -3 -12 -4 -19 -1 -8 3 -5 6 6 6 11 1 17 -2 13 -5z m9590 0 c-3 -3
-12 -4 -19 -1 -8 3 -5 6 6 6 11 1 17 -2 13 -5z"/>
</g>
</svg>
