<?xml version="1.0" standalone="no"?>
<!DOCTYPE svg PUBLIC "-//W3C//DTD SVG 20010904//EN"
 "http://www.w3.org/TR/2001/REC-SVG-20010904/DTD/svg10.dtd">
<svg version="1.0" xmlns="http://www.w3.org/2000/svg"
 width="1536.000000pt" height="815.000000pt" viewBox="0 0 1536.000000 815.000000"
 preserveAspectRatio="xMidYMid meet">
<metadata>
Created by potrace 1.16, written by Peter Selinger 2001-2019
</metadata>
<g transform="translate(0.000000,815.000000) scale(0.100000,-0.100000)"
fill="#000000" stroke="none">
<path d="M7035 8126 c-86 -40 -171 -113 -268 -229 -362 -436 -455 -565 -687
-962 -215 -369 -272 -458 -281 -443 -19 29 -9 128 21 215 17 47 30 97 30 110
l0 24 -46 -33 c-65 -46 -134 -149 -189 -281 -64 -153 -126 -286 -140 -297 -25
-21 -47 25 -52 108 -3 44 -9 85 -13 91 -11 19 -39 1 -64 -43 -33 -55 -43 -97
-61 -257 -24 -208 -9 -186 -164 -231 -182 -53 -353 -118 -716 -272 -170 -73
-348 -148 -395 -166 -47 -18 -94 -41 -105 -50 -11 -10 -58 -37 -105 -60 -47
-23 -94 -50 -105 -59 -11 -10 -42 -26 -70 -36 -141 -51 -411 -195 -703 -376
-152 -95 -272 -158 -337 -179 -24 -7 -65 -36 -101 -70 -80 -77 -177 -138 -504
-320 -393 -219 -484 -259 -760 -337 -91 -25 -246 -76 -346 -114 -99 -37 -215
-77 -258 -88 -44 -12 -90 -31 -107 -45 -16 -14 -66 -44 -110 -67 -93 -49 -154
-110 -201 -206 -42 -85 -48 -157 -18 -196 28 -36 61 -52 157 -78 43 -11 101
-32 128 -46 56 -28 207 -134 201 -141 -7 -6 -184 18 -250 35 -73 18 -122 42
-203 100 -108 77 -155 76 -194 -4 -27 -55 -21 -78 36 -145 25 -29 61 -74 80
-99 57 -76 194 -156 505 -297 96 -44 222 -103 280 -132 78 -39 136 -61 225
-81 126 -30 280 -61 380 -77 33 -5 112 -29 175 -52 129 -47 308 -92 450 -114
52 -8 138 -25 190 -39 52 -14 212 -41 355 -62 333 -46 411 -64 512 -114 113
-56 304 -118 587 -192 228 -59 240 -63 276 -99 36 -36 40 -38 121 -42 141 -8
199 -53 199 -154 0 -39 14 -73 83 -208 46 -88 114 -210 152 -271 89 -143 283
-421 315 -452 68 -65 133 -113 155 -113 22 0 23 3 18 35 -7 42 5 44 38 9 13
-15 70 -62 126 -106 56 -43 125 -104 153 -136 36 -40 63 -60 93 -69 97 -30
366 -94 443 -105 78 -11 89 -10 151 10 38 12 106 43 152 69 76 43 87 53 108
100 38 82 56 202 50 318 -6 108 -24 172 -81 300 -20 44 -36 88 -36 98 0 10
-20 46 -44 80 -24 34 -46 71 -50 82 -13 43 -177 141 -331 198 -38 14 -133 45
-210 67 -325 95 -427 131 -414 146 15 18 86 18 166 -1 95 -22 400 -72 578 -94
259 -32 405 -42 627 -43 161 -1 210 -4 216 -14 5 -9 49 -17 127 -25 136 -13
375 -7 645 16 96 9 290 18 430 21 179 4 289 11 370 24 63 11 196 26 295 35
250 22 430 43 497 59 l57 13 63 -74 c65 -77 128 -135 188 -172 47 -28 60 -27
60 7 0 15 4 33 9 41 14 23 76 -10 216 -113 133 -97 153 -110 233 -137 61 -21
112 -25 112 -9 0 6 -29 42 -65 80 -64 68 -65 70 -65 126 0 68 23 120 61 139
42 22 63 19 145 -25 46 -24 89 -40 110 -40 l35 0 -3 47 c-3 41 0 48 22 60 34
17 131 16 209 -2 35 -9 127 -42 205 -74 192 -81 245 -95 346 -95 102 0 153 15
395 121 220 96 289 134 350 193 28 26 67 58 88 71 30 19 46 42 79 112 46 101
53 161 23 217 -9 19 -56 74 -104 121 -81 81 -96 90 -244 162 -87 42 -177 82
-200 88 -54 15 -184 16 -422 5 -226 -11 -295 -1 -295 40 0 18 10 31 35 45 19
12 35 27 35 34 0 17 41 22 290 36 263 14 855 6 1055 -15 77 -9 184 -15 238
-16 79 0 97 -3 97 -15 0 -25 39 -43 279 -125 285 -98 336 -112 543 -145 211
-34 343 -61 415 -86 40 -13 116 -24 243 -34 237 -19 352 -19 446 0 80 17 109
36 392 251 92 70 107 85 105 108 -1 19 3 26 16 26 24 0 33 13 56 75 10 28 48
97 85 155 37 58 76 123 87 145 26 50 46 145 38 177 -4 17 0 29 16 43 34 32 41
61 50 210 5 77 11 152 15 167 5 23 2 29 -20 39 -19 9 -25 17 -20 28 4 9 9 44
12 77 4 64 -8 104 -33 104 -11 0 -10 6 3 33 31 59 13 323 -27 417 -6 14 -20
37 -32 52 -13 15 -28 57 -36 99 -19 105 -80 197 -219 335 -89 89 -127 119
-186 148 -157 77 -317 101 -663 100 -214 -1 -286 -5 -405 -23 -260 -39 -594
-125 -766 -196 -45 -19 -110 -39 -143 -44 -34 -6 -138 -43 -239 -85 -307 -130
-402 -155 -677 -177 -305 -24 -930 13 -1125 67 -56 16 -130 57 -130 73 0 18
82 41 145 41 35 0 129 11 208 25 489 84 852 243 1088 476 99 99 133 149 127
189 -3 23 2 36 24 57 39 38 38 77 -6 117 -34 32 -255 156 -278 156 -7 0 -60
14 -117 30 -57 17 -123 30 -147 30 -23 0 -46 5 -49 10 -10 16 -94 56 -166 78
-36 11 -142 37 -235 57 -93 19 -203 46 -244 59 -56 18 -107 26 -205 30 -71 3
-229 17 -350 31 -285 33 -481 34 -615 3 -79 -18 -126 -21 -280 -21 -102 0
-214 1 -250 3 -55 2 -79 -3 -160 -35 -114 -46 -183 -51 -227 -19 -40 30 -36
53 16 84 99 57 43 75 -116 35 -131 -32 -218 -31 -296 3 -105 46 -133 135 -52
162 33 11 52 40 40 60 -10 17 -62 11 -163 -16 -158 -43 -202 -28 -257 86 -32
67 -34 59 31 168 15 24 23 46 20 50 -4 3 -32 0 -64 -7 -31 -7 -77 -18 -102
-24 -25 -5 -62 -7 -83 -3 -128 24 -225 222 -170 347 11 24 42 71 69 104 71 86
88 115 75 128 -21 21 -67 10 -130 -31 -56 -36 -71 -42 -119 -42 -93 0 -176 56
-254 171 -28 40 -30 49 -25 108 4 54 16 86 65 185 72 146 81 176 52 176 -34 0
-79 -28 -164 -101 -100 -88 -151 -104 -224 -74 -50 21 -79 50 -110 110 -24 45
-27 61 -27 155 0 98 2 110 36 190 108 253 130 311 127 340 l-3 30 -50 -24z"/>
</g>
</svg>
