<?xml version="1.0" standalone="no"?>
<!DOCTYPE svg PUBLIC "-//W3C//DTD SVG 20010904//EN"
 "http://www.w3.org/TR/2001/REC-SVG-20010904/DTD/svg10.dtd">
<svg version="1.0" xmlns="http://www.w3.org/2000/svg"
 width="1536.000000pt" height="864.000000pt" viewBox="0 0 1536.000000 864.000000"
 preserveAspectRatio="xMidYMid meet">
<metadata>
Created by potrace 1.16, written by Peter Selinger 2001-2019
</metadata>
<g transform="translate(0.000000,864.000000) scale(0.100000,-0.100000)"
fill="#000000" stroke="none">
<path d="M13400 8630 c-89 -11 -162 -37 -227 -79 -70 -45 -103 -85 -128 -156
-21 -58 -38 -75 -77 -75 -15 0 -44 -9 -65 -19 -40 -21 -125 -33 -366 -55 -143
-13 -150 -15 -245 -60 -149 -73 -200 -108 -287 -196 -44 -44 -90 -83 -102 -86
-21 -6 -89 -74 -169 -170 -42 -50 -75 -108 -89 -154 -4 -14 -21 -40 -36 -58
-26 -30 -29 -39 -26 -98 l2 -66 -46 -42 c-25 -22 -57 -57 -71 -76 -22 -30 -34
-37 -89 -47 -76 -14 -103 -40 -113 -105 -14 -92 -57 -128 -195 -164 -66 -16
-135 -15 -266 5 -90 14 -110 22 -307 127 -205 110 -314 164 -332 164 -7 0 -38
11 -67 24 -54 24 -328 93 -469 117 -41 7 -149 16 -240 21 -91 4 -262 12 -380
18 -276 14 -304 14 -332 -1 -13 -7 -66 -14 -120 -15 -54 -1 -119 -7 -145 -12
-26 -6 -114 -13 -195 -16 -130 -5 -158 -9 -232 -35 -46 -16 -119 -35 -162 -41
-99 -13 -230 -53 -309 -93 -33 -16 -98 -40 -144 -53 -69 -19 -89 -30 -115 -59
-25 -30 -50 -43 -134 -71 -57 -19 -147 -57 -200 -85 -203 -107 -249 -128 -291
-135 -26 -4 -66 -24 -104 -50 -34 -24 -89 -57 -122 -75 -33 -17 -104 -67 -158
-110 -53 -43 -116 -88 -140 -100 -23 -12 -64 -38 -92 -58 -27 -21 -68 -47 -90
-60 -22 -12 -51 -38 -64 -57 -61 -89 -212 -195 -458 -321 -107 -55 -185 -88
-228 -97 -77 -16 -80 -18 -322 -234 -229 -204 -511 -422 -548 -422 -4 0 -27
-18 -51 -40 -25 -23 -54 -40 -67 -40 -13 0 -32 -9 -42 -20 -9 -10 -34 -24 -54
-31 -20 -6 -65 -28 -101 -49 -199 -115 -308 -174 -425 -230 -71 -34 -179 -86
-240 -116 -60 -29 -175 -83 -255 -120 -80 -37 -161 -78 -180 -91 -20 -12 -59
-30 -87 -38 -75 -22 -589 -284 -738 -376 -71 -44 -191 -114 -265 -156 -74 -41
-166 -96 -205 -122 -38 -26 -113 -76 -165 -111 -52 -35 -117 -82 -145 -104
-27 -23 -68 -55 -90 -71 -49 -36 -328 -297 -490 -460 -226 -226 -435 -519
-541 -759 -42 -93 -118 -324 -133 -400 -14 -69 -31 -234 -31 -292 0 -42 8
-104 41 -334 7 -49 23 -102 49 -155 21 -44 50 -106 63 -137 14 -31 43 -83 65
-115 21 -32 48 -76 60 -98 27 -54 274 -293 392 -382 55 -40 157 -101 240 -143
159 -80 173 -85 340 -137 255 -79 330 -90 350 -54 16 30 -40 70 -176 126 -206
83 -271 113 -346 156 -40 23 -93 53 -118 67 -161 91 -359 280 -461 442 -113
178 -156 273 -175 392 -27 158 -23 325 10 481 30 139 81 277 131 347 17 25 46
72 64 105 19 33 59 96 91 140 31 44 87 124 124 178 37 53 76 102 87 107 10 6
103 83 206 172 104 88 222 185 263 215 41 30 102 77 135 105 33 28 92 65 130
84 39 18 111 59 160 91 123 80 173 109 235 133 29 12 66 30 81 40 15 11 75 40
134 65 60 25 113 49 119 53 6 5 38 19 71 32 33 13 85 36 115 51 30 16 100 44
155 63 144 49 236 84 265 100 14 8 59 19 99 25 41 7 107 22 145 35 39 14 123
36 186 51 63 15 144 35 180 45 36 10 106 26 155 35 50 9 133 27 185 40 52 13
176 41 275 62 l180 38 300 -2 c165 -1 350 -3 410 -4 101 -2 114 -1 158 23 57
31 67 29 184 -31 88 -45 135 -55 306 -66 101 -7 110 -9 155 -41 126 -90 161
-103 293 -104 49 0 82 -5 95 -15 19 -14 19 -15 -5 -57 -101 -185 -146 -293
-206 -503 -38 -131 -49 -184 -57 -295 -7 -86 -21 -176 -39 -247 -43 -166 -34
-339 23 -465 27 -57 122 -161 178 -193 54 -31 72 -76 65 -160 -12 -140 -11
-271 4 -288 21 -26 44 -6 88 80 39 76 55 130 68 241 9 73 26 82 130 71 102
-12 198 -3 304 27 118 35 186 40 253 20 85 -24 217 -88 306 -148 44 -29 115
-74 159 -101 43 -26 139 -94 213 -152 87 -67 178 -127 255 -167 143 -75 227
-150 245 -220 19 -74 21 -79 33 -75 33 11 31 207 -3 261 -45 73 -139 140 -238
171 -26 8 -158 111 -237 185 -28 26 -69 59 -92 73 -91 58 -59 68 84 28 59 -16
140 -37 178 -46 63 -14 76 -22 128 -73 42 -41 61 -69 69 -99 14 -56 34 -74 47
-42 23 62 22 104 -4 186 -38 122 -75 149 -241 172 -38 6 -90 19 -115 30 -24
11 -89 33 -144 49 -67 19 -100 33 -100 43 0 23 100 16 168 -11 42 -17 61 -20
69 -12 34 34 -87 161 -177 187 -45 13 -64 14 -121 4 -79 -14 -270 -7 -303 10
-27 15 -24 48 4 42 63 -11 128 -12 139 -1 8 9 -3 25 -49 67 -113 103 -147 112
-259 67 -70 -28 -45 -27 -349 -6 -72 5 -132 13 -139 20 -15 15 12 104 57 187
59 108 255 754 255 840 0 17 11 63 23 101 13 38 30 92 36 121 20 83 23 83 174
34 73 -24 148 -51 167 -61 19 -10 55 -21 80 -25 25 -4 88 -18 141 -31 132 -33
392 -57 809 -76 366 -16 401 -14 800 37 355 45 508 60 945 91 121 8 252 20
290 25 39 6 113 14 165 19 52 4 135 20 184 34 55 16 113 26 155 26 36 0 107 7
156 15 111 18 154 19 160 3 3 -7 9 -69 14 -138 12 -153 26 -200 107 -362 50
-100 78 -143 130 -198 94 -100 272 -224 378 -265 34 -13 87 -33 118 -45 32
-13 75 -38 97 -57 52 -44 91 -59 175 -68 52 -6 87 -17 141 -46 56 -31 105 -46
216 -70 252 -53 282 -58 382 -64 90 -6 101 -10 132 -36 24 -21 35 -42 40 -72
14 -85 37 -100 56 -36 18 59 0 215 -29 256 -50 70 -33 74 182 43 121 -18 153
-20 255 -10 64 6 159 22 211 36 125 35 234 30 310 -13 37 -21 52 -25 61 -16
18 18 -17 66 -88 118 -73 54 -93 61 -205 70 -72 6 -92 4 -148 -16 -115 -40
-383 -27 -550 28 -67 22 -75 47 -15 51 220 14 359 59 561 182 149 91 149 91
208 87 66 -4 81 10 50 44 -38 42 -93 62 -153 56 -81 -9 -178 -44 -241 -88 -98
-68 -262 -109 -435 -109 -139 0 -158 15 -82 65 44 29 271 247 287 277 12 21 3
45 -20 58 -24 13 -204 -75 -275 -135 -27 -23 -102 -68 -165 -100 -114 -59
-115 -60 -202 -60 -70 0 -91 3 -105 18 -17 17 -17 20 5 80 34 97 24 179 -27
206 -34 19 -121 -65 -121 -118 0 -28 -25 -62 -44 -59 -49 7 -366 452 -366 513
0 4 33 41 73 83 96 102 153 171 217 262 29 41 72 95 96 120 29 31 51 67 69
115 14 39 34 90 45 115 11 25 39 97 64 160 102 262 102 262 207 258 l73 -3 63
95 c74 111 133 196 151 215 7 8 45 24 85 35 171 49 245 74 295 97 54 26 253
206 367 334 56 62 74 87 228 309 65 95 79 109 151 152 105 65 192 133 323 253
60 55 136 119 169 142 91 65 409 401 439 465 14 29 46 85 71 123 24 39 74 128
111 200 64 128 66 131 76 242 9 97 8 120 -7 164 -9 28 -16 62 -16 74 0 75 -46
122 -186 191 -64 31 -134 74 -166 102 -51 45 -61 49 -119 55 -77 8 -218 44
-354 91 -55 19 -125 38 -155 42 -30 3 -69 15 -86 25 -17 11 -42 19 -55 19 -13
0 -43 14 -67 30 -24 16 -87 46 -140 66 -53 20 -126 49 -161 65 -35 16 -75 29
-90 29 -14 0 -66 9 -115 20 -93 21 -141 23 -236 10z m-444 -5852 c13 -21 -28
-38 -92 -38 -67 0 -89 14 -59 37 23 16 141 18 151 1z"/>
</g>
</svg>
