<?xml version="1.0" encoding="UTF-8" standalone="no"?>
<!-- Created with Inkscape (http://www.inkscape.org/) -->

<svg
   xmlns:svg="http://www.w3.org/2000/svg"
   xmlns="http://www.w3.org/2000/svg"
   version="1.1"
   width="12.2163mm"
   height="22.395201mm"
   viewBox="0 0 570 1044"
   id="svg2"
   xml:space="preserve"
   style="fill-rule:evenodd">
 <defs
   id="defs4">
  <style
   type="text/css"
   id="style6" />
 </defs>
 <g
   id="Layer_x0020_1">
  
  <path
   d="m 272,0 40,0 13,3 c 16,1 19,4 34,7 -2,-3 0,-1 -2,-3 0,0 -1,-1 -1,-1 -3,-3 -1,0 -2,-3 9,5 19,14 29,17 -2,-3 -7,-6 -10,-9 6,3 12,9 17,13 6,4 10,8 15,12 -2,-8 -6,-8 -9,-15 6,3 14,16 18,21 3,5 5,6 9,10 4,5 4,7 9,10 -1,-6 -2,-5 -4,-9 7,2 22,42 29,50 l -7,-22 c 3,9 7,12 9,25 l 1,-4 c 4,4 5,23 8,28 1,3 -1,-3 1,3 0,1 0,6 0,7 -1,27 -2,45 -8,68 3,-3 4,-6 6,-10 1,4 -2,8 -4,12 -4,11 4,1 -2,10 -11,14 -20,27 -33,39 -6,6 -13,11 -19,18 l 14,-7 c -4,4 -15,10 -20,13 -13,8 3,1 -6,6 l -24,11 c -8,3 -20,3 -26,9 -3,3 -1,4 -10,6 -4,1 -11,2 -14,3 -3,2 -2,2 -3,3 -6,3 -33,6 -39,7 -12,2 -19,2 -30,5 -7,2 -21,5 -28,6 l 6,1 c -9,1 -11,2 -20,3 -10,0 -35,2 -42,8 -4,4 -8,4 -14,5 -3,3 2,1 -3,3 -6,3 -14,4 -20,6 -8,3 -16,5 -22,10 l 18,-6 c -2,2 -19,10 -24,12 l 7,1 c -9,3 -12,6 -19,10 -8,4 -9,7 -13,15 2,2 2,-1 5,0 -10,8 -5,9 -5,11 -1,8 -17,19 -11,48 5,22 13,39 27,52 8,7 14,13 27,9 56,-20 109,-3 158,22 16,8 48,27 62,37 9,7 23,20 33,26 15,9 42,23 57,5 1,-3 0,-36 -2,-42 l -4,-7 c 0,0 2,-2 -4,-4 0,-1 0,-1 1,-1 0,0 0,0 0,0 l 4,-1 c -10,-9 16,-7 22,-5 7,1 20,9 26,8 9,-2 17,-6 28,-6 13,-1 20,5 30,5 6,-7 21,-19 32,-18 15,2 1,19 -1,26 -2,5 -2,8 -5,13 -3,6 -4,4 -7,9 1,13 6,9 3,27 -1,8 -4,5 -1,12 2,3 4,5 5,10 6,31 -28,23 -34,26 -8,6 -14,17 -18,28 -11,26 2,83 -6,124 l -8,59 c -2,23 -22,87 -2,96 10,3 14,-4 22,-5 l 26,21 c -2,5 -3,2 -4,5 -2,3 0,4 -1,5 -5,5 -16,2 -19,-2 -6,-7 -5,-12 -18,-13 4,11 12,10 14,17 -2,2 -8,4 -12,3 -3,0 -3,0 -5,-2 -11,-10 -8,-8 -25,-11 -11,-2 -12,-6 -25,-1 -6,3 -14,6 -18,-2 5,-5 24,-7 25,-32 2,-45 -6,-63 -9,-102 -1,-14 -1,-37 -12,-43 -4,2 -3,1 -5,6 -8,14 -18,28 -23,43 -4,10 5,52 7,66 1,14 4,55 12,64 10,11 22,2 39,17 5,5 7,4 12,7 1,18 -19,2 -25,0 3,9 13,12 8,22 -12,3 -23,-25 -35,-27 2,10 12,24 12,30 -13,9 -19,-9 -23,-18 -3,-5 -1,-5 -6,-9 -14,6 -4,26 -20,21 -1,-7 -1,-9 2,-14 4,-8 2,-6 1,-14 -1,-8 2,-9 3,-14 1,-16 -17,-48 -24,-62 -7,-15 -16,-29 -23,-45 -9,-20 -3,-38 -4,-62 -25,-2 -29,0 -49,-9 -8,-4 -12,-6 -19,-11 -6,-4 -10,-11 -18,-12 -2,5 -3,20 -4,26 -2,8 -4,15 -6,22 -3,8 -5,16 -7,23 l -8,20 c -6,13 -23,43 -31,56 -3,7 -9,10 -11,17 0,1 1,1 1,1 l 3,1 c 1,1 2,1 3,1 3,1 5,1 7,1 6,1 11,1 17,1 45,0 21,-3 39,9 10,7 24,11 34,16 -3,12 -13,8 -22,6 3,5 2,4 0,10 -16,1 -25,-15 -36,-21 -8,1 -8,3 -19,3 l 18,19 c 7,4 8,0 13,6 l 4,5 c 4,9 -5,9 -9,12 -4,3 -1,0 -4,5 -1,2 -1,2 -2,4 -9,0 -16,-4 -23,-7 -8,-3 -13,-8 -20,-10 3,8 9,10 13,16 -10,18 -34,-14 -48,-24 -20,-14 -41,-12 -41,-45 0,-15 2,-27 2,-42 1,-14 1,-28 1,-41 0,-14 -1,-29 -1,-43 0,-18 -1,-20 -9,-34 C 94,786 83,769 72,752 60,735 47,716 41,696 30,661 28,619 40,583 c 3,-10 11,-26 11,-32 -6,-4 -7,-7 -13,-13 -5,-4 -8,-7 -12,-13 -8,-9 -14,-18 -21,-29 3,4 1,2 5,4 C 9,489 4,484 2,473 0,466 0,453 0,446 c 0,0 1,3 1,3 1,2 1,2 1,3 l 1,2 C 3,438 0,422 3,406 l 3,8 3,-14 c 2,5 -1,9 3,4 l 4,-7 c 2,-1 1,0 2,-2 l 3,-9 c 3,-9 7,-22 13,-29 -1,5 -3,5 -3,11 l 28,-36 -1,5 c 6,-5 28,-26 34,-27 12,-3 28,-18 40,-21 -5,4 -11,7 -16,11 -2,1 -1,1 -2,2 12,-3 32,-21 45,-21 -1,0 -2,1 -3,2 l -4,3 c 10,-2 18,-7 29,-11 6,-1 25,-9 29,-9 l -24,10 c 17,-1 32,-10 48,-12 -4,3 -12,4 -17,6 8,3 44,-14 47,-12 -2,2 -1,1 -3,2 l -4,2 c 8,0 23,-9 28,-7 0,0 -2,2 4,0 8,-1 12,-6 20,-8 l -10,7 c 8,0 28,-12 34,-16 2,3 0,-3 0,2 l 0,2 c 21,-13 20,-17 27,-21 -3,5 -5,5 -7,10 6,-2 10,-8 13,-12 4,-5 6,-10 11,-13 -3,8 -10,9 -12,18 8,-3 26,-32 27,-40 3,-14 0,-20 -5,-29 -3,-6 5,1 -2,-9 -3,-3 -5,-4 -8,-9 5,2 4,2 6,4 -3,-12 -19,-27 -37,-27 l 2,-1 c 0,0 1,-1 1,-1 l 4,-1 c -6,-3 -16,-6 -23,-7 -10,-2 -17,2 -25,1 l 6,-3 c -14,-2 -17,6 -27,8 l 10,-7 c -9,0 -16,8 -24,12 -8,4 -10,14 -17,18 3,-4 11,-10 9,-15 -1,-1 -1,-1 -1,-1 l -2,1 c -3,2 -5,6 -6,9 l -1,-5 c -2,4 -5,9 -8,12 l 5,-12 -8,5 c -5,4 -9,11 -14,16 -2,2 -4,5 -7,6 3,-3 4,-3 5,-8 -4,2 -4,2 -7,6 -1,-4 0,-2 0,-3 -1,-3 1,0 -1,-3 -4,5 -11,10 -15,12 4,-5 5,-2 8,-9 -7,2 -11,8 -16,9 3,-1 8,-9 10,-12 -6,3 -8,3 -11,7 -4,4 -5,3 -6,2 -1,0 0,0 -4,-1 -2,4 -1,3 -5,5 1,-12 10,-9 12,-19 -7,3 -9,9 -14,14 -2,-2 0,-2 1,-6 l -7,7 c 0,-1 4,-7 6,-10 2,-3 5,-7 6,-10 -3,3 -3,4 -6,6 -4,3 -4,4 -7,6 l 6,-10 c 0,0 0,0 0,0 -3,-1 -2,3 -3,-1 0,0 0,0 0,0 -1,-4 0,-8 -1,-10 -1,-7 -1,1 -3,-3 l 0,-3 c -1,-4 2,-6 2,-11 l -4,0 c 7,-7 -2,-5 6,-13 l -3,-4 c 5,-3 9,-7 11,-13 -5,1 -3,1 -7,3 l 12,-12 c -1,0 -1,0 -1,0 l -5,0 6,-5 c -5,2 -8,5 -13,6 6,-3 11,-7 16,-11 3,-3 8,-5 11,-9 3,-4 -3,-2 8,-8 7,-4 5,-7 12,-11 l 8,-4 -12,0 c 2,0 20,-7 26,-8 6,-2 24,-6 28,-8 -8,0 -20,3 -25,1 l 27,-4 c 1,-1 1,-2 1,-4 z"
   id="path10"
   style="fill:#000000" />
 </g>
</svg>