<?xml version="1.0" encoding="UTF-8" standalone="no"?>
<!-- Created with Inkscape (http://www.inkscape.org/) -->

<svg
   xmlns:svg="http://www.w3.org/2000/svg"
   xmlns="http://www.w3.org/2000/svg"
   version="1.1"
   width="111.10889mm"
   height="232.11499mm"
   viewBox="0 0 393.69293 822.45469"
   id="svg6867">
  <defs
     id="defs6869" />
  <g
     transform="translate(-188.9318,-85.351273)"
     id="layer1">
    <g
       id="g5330"
       style="fill:#000000;fill-opacity:1;stroke:#000000;stroke-opacity:1">
      <path
         d="m 386.38335,349.80111 5.05076,38.3858 4.04061,55.05331 4.54569,59.09392 7.07107,61.11423 7.57614,45.96194 9.59645,39.39595 6.06091,30.30458 3.53554,10.6066 3.53553,13.63706 5.05077,14.14214 -8.87539,-13.70586 -4.64286,-12.85715 -2.85714,-9.64285 -10.35714,-31.78572 -11.07143,-41.07143 -8.21429,-45.35714 -7.14286,-61.07143 -5.35714,-56.42857 -2.14286,-55.71429 2.14286,-32.5 z"
         id="path8486"
         style="fill:#000000;fill-opacity:1;fill-rule:evenodd;stroke:#000000;stroke-width:1px;stroke-linecap:butt;stroke-linejoin:miter;stroke-opacity:1" />
      <path
         d="m 386.78571,350.21935 0.35715,6.78571 4.28571,30.71429 3.92857,55.71428 4.64286,58.57143 6.78571,61.07143 7.5,45.35714 10,40.71429 6.07143,30.71428 2.85715,8.92858 3.92857,13.57142 5.35714,13.92858 -2.85714,-15 -2.5,-13.57143 -3.21429,-8.57143 -6.42857,-30.71429 -8.92857,-42.14285 -7.14286,-44.64286 -5.71428,-60 -2.85715,-59.28572 -6.07143,-55.35714 -5.71428,-30.35714 z"
         id="path8488"
         style="fill:#000000;fill-opacity:1;fill-rule:evenodd;stroke:#000000;stroke-width:1px;stroke-linecap:butt;stroke-linejoin:miter;stroke-opacity:1" />
      <path
         d="m 418.64553,319.62513 1.10658,0.95993 1.27683,-0.61084 0.93635,-2.18155 0.17024,-3.66497 -0.85121,-3.49043 -1.27684,-3.22869 -1.44707,-2.18154 -1.70244,-0.17455 -1.61733,1.48343 -0.4256,5.41023 1.53219,4.014 z"
         id="path4310"
         style="fill:#000000;fill-opacity:1;fill-rule:evenodd;stroke:#000000;stroke-width:0.72740239px;stroke-linecap:butt;stroke-linejoin:miter;stroke-opacity:1" />
      <path
         d="m 345.10006,315.61113 -1.61731,2.44329 -0.17025,2.87966 -0.25536,4.62485 0.76609,2.61784 1.61732,2.18154 0.76611,0.34902 1.53219,-1.22161 1.27683,-4.45036 0.42561,-5.41023 -1.44707,-2.96687 -2.38342,-1.48343 z"
         id="path4312"
         style="fill:#000000;fill-opacity:1;fill-rule:evenodd;stroke:#000000;stroke-width:0.72740239px;stroke-linecap:butt;stroke-linejoin:miter;stroke-opacity:1" />
      <path
         d="m 444.26727,414.91465 2.04293,-3.92676 2.12805,-2.61784 1.95781,-2.53058 0.93634,-0.95988 -0.93634,-2.2688 -1.78757,-2.35606 -3.23463,-2.35605 -1.27684,0.0873 0.0851,5.23568 -0.25536,9.07519 z"
         id="path4606"
         style="fill:#000000;fill-opacity:1;fill-rule:evenodd;stroke:#000000;stroke-width:0.72740239px;stroke-linecap:butt;stroke-linejoin:miter;stroke-opacity:1" />
      <path
         d="m 450.22582,402.61079 1.78756,-0.78535 2.72391,-1.04714 1.36194,-1.1344 -0.59585,-1.74522 -2.21317,-3.83951 -2.89415,-2.44332 -3.14952,0 -2.7239,-0.17453 -1.10659,0.43631 -0.68097,1.04714 0.68097,1.83249 0.68097,3.4032 1.27684,-0.17452 1.70244,1.04713 1.95781,1.65797 z"
         id="path4608"
         style="fill:#000000;fill-opacity:1;fill-rule:evenodd;stroke:#000000;stroke-width:0.72740239px;stroke-linecap:butt;stroke-linejoin:miter;stroke-opacity:1" />
      <path
         d="m 455.84387,398.42224 1.87269,-0.78535 2.29829,-2.2688 2.46854,-2.96689 1.61732,-2.87962 1.53219,-3.14141 1.36196,-1.65797 1.02147,-1.30893 0.34048,-1.22166 -0.4256,-1.65796 -1.44708,-1.83249 -1.78756,-2.35606 -1.10659,-1.65797 -0.68098,-0.52357 -1.44707,1.57071 -1.87269,2.00701 -2.21317,3.4032 -2.55367,0.69809 -2.80902,1.48345 -2.55367,2.53057 -1.53219,2.35607 -0.68098,1.83248 -0.17024,1.57071 3.06439,-0.0873 3.06439,2.53058 z"
         id="path4610"
         style="fill:#000000;fill-opacity:1;fill-rule:evenodd;stroke:#000000;stroke-width:0.72740239px;stroke-linecap:butt;stroke-linejoin:miter;stroke-opacity:1" />
      <path
         d="m 468.18657,380.70817 0.68097,-0.61083 0.25537,-1.48345 0.42561,-3.14141 0.68098,-2.53058 -0.17025,-3.92676 -1.02146,-2.35607 -1.44708,-1.22165 -2.04293,0 -1.9578,1.39618 -0.59586,1.5707 0.42561,0.78536 0.85122,-0.95987 0.93635,0.0873 0.85122,0.78535 -0.25537,2.35606 -1.10658,1.65797 -1.27684,0.78535 -0.51073,0.52357 0.93634,0.52357 1.61733,2.53058 z"
         id="path4612"
         style="fill:#000000;fill-opacity:1;fill-rule:evenodd;stroke:#000000;stroke-width:0.72740239px;stroke-linecap:butt;stroke-linejoin:miter;stroke-opacity:1" />
      <g
         transform="matrix(0,-0.73648656,0.71843021,0,59.175057,1077.9271)"
         id="g4548"
         style="fill:#000000;fill-opacity:1;stroke:#000000;stroke-opacity:1">
        <g
           id="g4478"
           style="fill:#000000;fill-opacity:1;stroke:#000000;stroke-opacity:1">
          <g
             id="g4416"
             style="fill:#000000;fill-opacity:1;stroke:#000000;stroke-opacity:1">
            <g
               id="g4362"
               style="fill:#000000;fill-opacity:1;stroke:#000000;stroke-opacity:1">
              <g
                 id="g4314"
                 style="fill:#000000;fill-opacity:1;stroke:#000000;stroke-opacity:1">
                <path
                   d="m 231.51659,542.41706 1.89573,-1.89573 5.21327,-1.65877 6.39811,-2.1327 5.21327,-3.55451 4.73933,-6.16113 9.00474,-6.39811 12.08531,-6.3981 17.53555,-6.39811 8.5308,-2.8436 9.24171,-0.23696 14.21801,-3.79147 15.63981,-4.02844 20.37914,-6.63507 19.19432,-6.16114 23.45971,-7.58294 3.79147,-1.18483 2.60664,2.60663 5.92417,2.13271 9.95261,2.60663 7.8199,3.31754 4.73934,3.31753 5.6872,3.31754 6.16114,2.8436 2.36967,0.7109 -9.47868,-4.2654 -9.2417,-5.92417 -8.29384,-3.55451 -8.53081,-1.89573 -7.8199,-3.08057 -0.47394,-2.8436 0.23697,-2.36967 4.02844,-2.36967 5.92417,-1.65877 10.6635,1.89574 18.48342,3.08057 5.6872,2.60663 5.45024,3.08057 6.3981,1.65877 5.45024,2.60663 5.21327,4.73934 7.109,5.68721 7.10901,8.05687 3.5545,5.92417 3.5545,4.2654 4.97631,4.73934 4.73933,4.2654 2.8436,5.21327 0.71091,5.45024 -0.94787,9.00474 -3.5545,6.16113 -1.89574,6.87204 -3.08057,12.79621 -4.50237,9.00474 -7.34597,8.29384 -12.79621,12.32227 -12.55924,9.95261 -8.05687,5.6872 -8.05687,2.36967 -7.34597,0 -1.18484,-2.60663 4.2654,-2.60664 10.18958,-6.3981 4.73933,-5.21327 6.87204,-9.00474 4.50237,-7.10901 1.18484,-4.2654 -0.94787,4.02844 -16.11375,21.32701 -14.21801,9.00474 -7.8199,1.65877 -34.36019,9.9526 -23.22275,7.81991 -27.96208,9.00474 -20.14218,4.2654 -18.48342,1.65877 -18.48341,2.1327 -15.40284,3.08057 -10.66351,1.65877 -6.87204,-0.23697 -0.7109,-2.1327 1.4218,-2.36967 6.16114,-3.31753 7.109,-11.84835 3.55451,-10.6635 2.36967,-9.71564 -0.47394,-15.16588 -2.36967,-12.08531 -4.2654,-13.50711 -6.87204,-10.6635 -6.16113,-6.87204 -8.29384,-6.16114 -7.81991,-2.1327 -6.87204,0.23697 -2.36967,-1.4218 z"
                   id="path4248"
                   style="fill:#000000;fill-opacity:1;fill-rule:evenodd;stroke:#000000;stroke-width:1px;stroke-linecap:butt;stroke-linejoin:miter;stroke-opacity:1" />
                <path
                   d="m 436.74735,471.21179 -7.20511,-2.34585 -8.29427,-1.92695 -1.2567,-1.25671 2.68097,-1.34049 4.44036,-1.84317 4.18903,-1.00536 6.95377,-3.09988 5.36195,-1.59183 4.77548,1.17293 9.21585,3.0161 8.88072,2.01073 4.52415,-0.16756 3.51877,2.34585 4.69171,3.18365 4.85926,1.50805 8.37805,2.68097 9.21584,4.85927 8.88073,6.86999 6.36731,7.54024 3.68634,5.36195 2.51341,6.53487 2.68097,7.7078 2.51342,8.88073 2.17829,6.70243 0.33512,5.52951 0.16756,7.54024 -0.33512,11.22657 -1.67561,5.52951 -4.85926,9.71853 -5.36195,6.70243 -7.87536,7.87536 -7.03756,8.54561 -5.86463,5.36194 -9.21584,5.86463 -5.86463,5.36195 -4.69171,1.84317 -6.19975,2.34585 -8.37804,1.67561 -5.19439,0.33512 0.50269,-1.84317 9.21584,-7.03755 10.55634,-8.71317 9.3834,-8.88072 9.21585,-10.22121 4.85926,-9.21585 5.02683,-19.77218 3.35122,-6.19975 1.17292,-9.21585 -0.8378,-5.36194 -2.68098,-5.02683 -9.55096,-9.04829 -3.8539,-4.52414 -4.02146,-6.19975 -7.20512,-8.04292 -11.39414,-9.55097 -5.69707,-3.18366 -6.19975,-1.50804 -11.22657,-5.69707 z"
                   id="path4250"
                   style="fill:#000000;fill-opacity:1;fill-rule:evenodd;stroke:#000000;stroke-width:1px;stroke-linecap:butt;stroke-linejoin:miter;stroke-opacity:1" />
                <path
                   d="m 466.58768,462.91469 -9.24171,-3.08057 -9.2417,-3.08057 -3.31754,-1.4218 4.62085,-2.1327 4.38389,-1.89573 6.16114,-2.1327 8.29384,-1.65877 5.92417,0.35545 5.09478,2.96208 2.72512,1.65877 4.14692,-0.47393 5.33176,2.01422 9.71564,4.2654 4.85782,3.08057 4.85782,4.38388 6.04265,4.26541 5.6872,3.31753 5.21327,6.04266 4.38389,7.34597 3.08057,6.99052 2.1327,12.79621 1.65877,7.109 1.54028,6.27962 3.19905,7.34597 3.08057,9.95261 0.94787,10.07109 -1.54028,8.53081 -4.14692,5.09478 -5.09479,7.10901 -4.73934,7.34597 -6.04265,8.53081 -12.20379,10.6635 -4.97631,3.43602 -7.70142,4.02844 -6.63507,2.36967 -6.51659,2.48815 -5.56872,1.4218 1.30332,-2.48815 4.62085,-4.85782 9.71564,-6.16114 6.04266,-5.56872 6.75355,-8.29384 7.81991,-7.93839 5.09478,-6.3981 4.97631,-9.83413 1.65876,-5.45023 0,-24.05214 -10.07109,-30.09478 -4.14691,-5.92417 -5.80569,-6.75356 -8.76777,-6.99052 -9.47868,-5.09479 -13.15166,-4.14692 -8.41232,-5.56872 z"
                   id="path4252"
                   style="fill:#000000;fill-opacity:1;fill-rule:evenodd;stroke:#000000;stroke-width:1px;stroke-linecap:butt;stroke-linejoin:miter;stroke-opacity:1" />
                <path
                   d="m 518.12796,470.26066 -3.31753,-2.8436 -3.67299,-3.08057 -2.72512,-3.67298 -0.11848,-1.4218 2.8436,-1.06636 4.62085,-2.25118 6.51659,-4.14692 4.38389,-4.02844 2.48815,-3.19905 4.62085,-3.31753 5.56872,-2.84361 5.56872,-1.18483 5.33176,-0.47393 2.8436,0.59241 1.18483,2.96209 1.30332,3.5545 2.01422,3.31754 1.54028,2.96208 3.67299,2.96209 4.02844,4.02843 2.72511,2.84361 3.67299,6.16113 1.65877,4.97631 2.60663,6.3981 1.54029,4.14692 0.82938,4.9763 0.47393,5.68721 0.23697,4.85782 1.18484,5.6872 0.23696,4.38389 1.30332,5.09478 3.43602,6.99053 2.01422,4.85782 0.47393,4.02843 0.47393,4.50237 0.11849,5.09479 -0.23697,6.63507 -1.4218,6.3981 -2.72512,3.90996 -1.06635,6.27962 -0.11848,6.27962 -2.25119,4.02843 -7.34597,3.31754 -11.49289,0.47393 -7.34597,-2.01422 -6.51659,0.11849 -8.29384,-0.11849 -1.4218,-1.54028 0,-2.72512 0,-1.77725 1.18483,-3.79147 5.45024,-7.34597 1.65877,-8.88626 -0.94787,-9.9526 -3.31753,-10.07109 -3.08057,-6.99052 -2.60664,-11.13744 -2.60663,-15.40285 -3.19905,-6.87204 -4.02844,-7.22748 -5.45024,-6.27963 z"
                   id="path4266"
                   style="fill:#000000;fill-opacity:1;fill-rule:evenodd;stroke:#000000;stroke-width:1px;stroke-linecap:butt;stroke-linejoin:miter;stroke-opacity:1" />
                <path
                   d="m 508.64929,461.61137 -3.19905,-3.08057 -9.71564,-7.109 -9.00474,-5.33175 -8.17536,-4.73934 1.89574,-1.65877 5.80569,-1.89573 9.00473,-3.19905 8.76778,-1.89574 6.75355,-3.19905 6.04266,-0.94787 5.21327,-2.1327 5.80568,-2.1327 6.99052,-1.18484 6.75356,0.35545 3.67298,1.89574 2.48816,3.19905 2.36966,3.5545 0.82939,2.13271 2.25118,3.19905 -3.31753,-0.94787 -4.85782,0.7109 -5.80569,1.06635 -5.33175,2.96209 -4.73934,3.31753 -2.48815,3.31754 -4.14692,3.79147 -6.3981,4.02843 -6.16114,2.96209 -1.65877,0.59242 0,1.54028 z"
                   id="path4268"
                   style="fill:#000000;fill-opacity:1;fill-rule:evenodd;stroke:#000000;stroke-width:1px;stroke-linecap:butt;stroke-linejoin:miter;stroke-opacity:1" />
                <path
                   d="m 539.81043,565.16588 -2.1327,4.73933 -1.30332,3.67299 -2.25119,3.5545 -2.8436,4.14692 -3.79147,5.6872 -2.48815,4.26541 -2.48815,3.19905 -2.01422,2.96208 -0.23697,0.82939 0.94787,0.47393 3.08057,0.35545 5.80569,-1.18483 9.2417,-2.8436 9.24171,-2.72512 7.93839,-1.54029 6.87204,-1.4218 8.5308,-1.89573 5.56872,-1.77725 3.43602,-2.1327 3.31754,-2.84361 0.7109,-3.31753 -0.11849,-5.21327 -0.35545,-5.45024 -2.48815,4.62085 L 575,574.40758 563.15166,575 l -7.34597,-1.89574 -14.69194,-0.11848 -1.65877,-1.4218 0.23696,-4.62085 z"
                   id="path4270"
                   style="fill:#000000;fill-opacity:1;fill-rule:evenodd;stroke:#000000;stroke-width:1px;stroke-linecap:butt;stroke-linejoin:miter;stroke-opacity:1" />
                <path
                   d="m 585.42654,554.85782 -1.06635,9.36019 1.30332,1.4218 2.48815,0.11848 2.96209,-2.01421 4.50237,-0.47394 8.17535,-0.23697 9.36019,-0.7109 5.21327,-0.59241 3.5545,1.4218 5.92417,0 6.99052,-0.59242 6.87204,-2.48815 3.5545,-2.8436 0.94787,-1.18484 -1.4218,-4.62085 -0.47393,-2.96209 0.11848,-5.21327 1.30332,-3.90995 1.30332,-3.31753 -0.11849,-6.16114 -1.06635,-9.47867 -2.1327,-7.81991 -2.96208,-10.30806 -2.84361,-6.63507 -0.94786,-8.41232 0.23696,-9.24171 -2.01422,-20.26066 -1.89573,-8.17535 -3.67299,-5.68721 -2.96208,-4.85782 L 625,433.5308 l -0.7109,-5.21327 -2.36967,-3.5545 -4.38388,-2.8436 -6.63507,-1.65877 -8.53081,1.4218 -8.17536,3.67299 -4.62085,2.8436 -4.14692,5.45024 -3.5545,3.67298 -3.43602,0.23697 -7.109,0 -6.51659,0.23697 -5.33176,0.82938 -1.65876,2.72512 -0.23697,3.67299 0.23697,2.01421 1.30331,2.84361 5.80569,5.21327 4.38389,4.50237 4.02843,6.63507 5.33176,14.57346 1.30331,6.27962 0.59242,9.00474 0.82939,4.73933 0.47393,2.48815 0.11848,3.79147 1.30332,4.62086 4.38389,10.07109 1.06635,2.1327 0.7109,5.33175 0.47393,5.92417 -0.23697,6.04266 -0.11848,3.67298 -1.54028,6.04266 z"
                   id="path4272"
                   style="fill:#000000;fill-opacity:1;fill-rule:evenodd;stroke:#000000;stroke-width:1px;stroke-linecap:butt;stroke-linejoin:miter;stroke-opacity:1" />
                <path
                   d="m 621.91943,424.64455 0.82939,-2.25119 0,-3.19905 -0.82939,-5.09478 -1.77725,-4.14692 -2.1327,-2.84361 -5.33175,0.23697 -6.99052,0.23697 -6.87204,1.06635 -6.39811,0.23696 -3.67298,2.36967 -4.73934,2.72512 -5.56872,0.47394 -4.02844,-1.89574 -4.2654,0.59242 -3.19905,2.1327 -2.8436,0.59242 -4.02844,-1.06635 -4.62085,0.11848 -4.14692,0.94787 -0.59242,1.77725 2.1327,4.14692 1.89574,5.80568 3.19905,7.22749 1.65877,3.67299 4.2654,-0.7109 17.65403,-0.47394 4.50237,-4.02843 3.67298,-5.21327 4.62086,-2.8436 8.05687,-3.55451 8.64929,-1.54028 6.3981,1.54028 z"
                   id="path4274"
                   style="fill:#000000;fill-opacity:1;fill-rule:evenodd;stroke:#000000;stroke-width:1px;stroke-linecap:butt;stroke-linejoin:miter;stroke-opacity:1" />
                <path
                   d="m 646.80095,556.04265 3.31753,1.65877 1.77726,3.08057 1.06635,6.63507 -0.11849,3.79147 -3.08057,4.50237 -8.05687,-1.06635 -7.58294,0.23697 -9.36019,1.89573 -8.64928,2.60664 -13.27015,3.79146 -4.85782,1.30332 -4.85782,0 -3.08057,0.23697 -0.35545,-3.5545 -0.23696,-4.02844 -0.7109,-3.19905 -0.94787,-2.72512 -0.11848,-2.72512 0.47393,-1.54028 1.06635,-1.65877 1.89574,-1.30332 4.9763,-0.59242 8.41232,-0.47393 13.62559,-1.30332 3.43602,1.30332 4.02844,0.35545 8.64929,-0.82938 7.109,-2.36967 3.79147,-2.8436 z"
                   id="path4276"
                   style="fill:#000000;fill-opacity:1;fill-rule:evenodd;stroke:#000000;stroke-width:1px;stroke-linecap:butt;stroke-linejoin:miter;stroke-opacity:1" />
                <path
                   d="m 625.35545,434.95261 0.7109,-4.50237 1.65877,-2.36967 2.25118,-2.60664 0.23697,-3.67298 -0.11848,-2.84361 2.25118,-1.18483 4.50237,0.94787 4.73934,-0.11849 5.33175,-0.23696 3.67299,0.47393 1.06635,1.18484 1.65877,1.77725 3.08057,0.7109 2.48815,-0.82939 2.1327,-2.72512 1.65877,-3.79146 3.08057,-1.18484 4.50236,-1.54028 5.68721,-0.82939 6.99052,0 4.2654,0.47394 3.08057,1.4218 1.30332,0.35545 2.96208,10.42654 0.94787,7.8199 3.08057,16.11375 0.7109,9.47867 0.35545,9.00474 -1.18483,12.32228 2.01422,10.6635 1.54028,5.68721 2.36967,9.2417 0.47393,9.12323 2.36967,5.80568 0.23697,2.72512 -0.11849,8.76777 0,8.41233 -0.23696,5.6872 -5.92417,3.67299 -7.58294,1.4218 -6.16114,-0.82939 -4.85782,-2.48815 -6.16114,0.82938 -4.14692,4.38389 -7.22749,2.72512 -4.14691,2.01422 -5.21327,0.82938 -4.38389,-1.06635 -3.5545,-1.65877 -2.01422,-3.31753 -0.7109,-2.48815 -0.59242,-5.80569 2.60664,-6.99052 -1.06635,-15.87678 -5.21327,-18.48341 -2.84361,-6.39811 -1.06635,-8.76777 0.35545,-9.00474 -2.01422,-19.90521 -1.89573,-8.29384 -6.04265,-9.83412 -0.82939,-1.18484 z"
                   id="path4278"
                   style="fill:#000000;fill-opacity:1;fill-rule:evenodd;stroke:#000000;stroke-width:1px;stroke-linecap:butt;stroke-linejoin:miter;stroke-opacity:1" />
                <path
                   d="m 650.23697,556.3981 1.89573,3.79147 1.30332,4.14692 1.65877,4.97631 1.65877,3.67298 4.73933,-0.94787 8.17536,-1.54028 8.17535,-2.25119 10.07109,-3.79146 12.08531,-4.02844 8.17536,-2.36967 3.79147,-0.94787 0.35545,-1.65876 -1.65877,-3.55451 -2.25119,-4.73933 -0.59241,-6.51659 -0.35545,-0.7109 -0.23697,4.50237 -6.04265,4.14692 -7.34598,1.54028 -6.27962,-0.82938 -4.9763,-2.48815 -6.16114,0.82938 -4.02843,4.50237 -11.01896,4.50237 -5.56872,1.06635 z"
                   id="path4280"
                   style="fill:#000000;fill-opacity:1;fill-rule:evenodd;stroke:#000000;stroke-width:1px;stroke-linecap:butt;stroke-linejoin:miter;stroke-opacity:1" />
                <path
                   d="m 691.58768,413.98104 0.7109,-3.31753 0,-5.45024 -1.54028,-7.46446 -2.25119,-0.35545 -5.45024,0 -2.36966,-0.7109 -2.13271,1.54029 -3.79147,1.18483 -4.02843,0.23697 -3.08057,-0.47393 -2.96209,-0.11849 -4.02843,0.7109 -1.54029,-0.7109 -3.08056,0 -5.45024,-0.23697 -3.5545,0.23697 -6.04266,0.11849 -6.16114,0 -4.14691,0.47393 -2.48816,1.30332 -0.59241,3.67298 0,5.09479 0.7109,5.09479 1.65876,5.56872 0.35545,-1.65877 2.01422,-1.06635 4.38389,1.06635 8.05687,-0.23697 5.68721,0.23697 2.25118,2.36967 2.8436,1.30331 3.19905,-0.59241 2.25119,-2.60664 1.77725,-4.02843 7.46445,-2.84361 5.21328,-0.82938 5.80568,-0.11848 5.33176,0.59241 2.25118,0.82939 z"
                   id="path4282"
                   style="fill:#000000;fill-opacity:1;fill-rule:evenodd;stroke:#000000;stroke-width:1px;stroke-linecap:butt;stroke-linejoin:miter;stroke-opacity:1" />
                <path
                   d="m 769.85832,407.70623 -3.8539,-3.0161 -4.18902,-2.17829 -6.53487,-1.17293 -6.53488,0.41891 -7.20511,1.17292 -7.45646,1.59183 -7.45646,-0.33512 -5.1106,-2.17829 -1.84317,-2.01073 -3.18366,-4.35659 -5.27817,-1.6756 -5.27816,0.4189 -5.02683,2.01073 -4.60792,4.6917 -1.08915,3.435 -1.08914,4.52414 -1.08915,2.76476 -0.8378,2.42963 2.26207,9.55097 0.92158,8.21048 3.18366,15.66694 0.67024,7.87536 0.50269,10.97523 -1.25671,12.14817 1.92695,10.72389 3.68634,14.32645 0.75402,9.80231 2.42963,6.11597 0.0838,8.79695 -0.0838,11.14279 1.17293,3.93768 1.00536,3.435 2.84854,6.11597 2.93231,3.51878 3.35122,2.34585 3.26744,1.08915 4.85926,-1.25671 3.26744,-2.26207 2.42963,-2.93232 5.86463,-3.09987 3.0161,-4.6917 5.02682,-0.67025 9.04829,0 9.71853,0.33512 11.72926,-1.6756 4.35658,-2.68098 4.35658,-4.02146 1.67561,-5.69707 -1.06343,-1.62679 -1.54028,-4.73934 0.23696,-6.87204 0.35546,-5.6872 0,-9.47868 0.47393,-4.2654 -2.01422,-11.01896 -1.89573,-10.07109 -0.7109,-6.27962 0.35545,-18.95734 -1.06635,-17.65403 -2.48816,-4.14692 -2.96208,-2.8436 -1.06635,-7.22749 -1.18484,-7.58294 -1.77725,-4.38389 z"
                   id="path4286"
                   style="fill:#000000;fill-opacity:1;fill-rule:evenodd;stroke:#000000;stroke-width:1px;stroke-linecap:butt;stroke-linejoin:miter;stroke-opacity:1" />
                <path
                   d="m 737.08531,551.18483 -1.65877,1.18484 -0.11848,1.65877 0,3.19905 0.82938,1.18483 2.01422,0.82939 6.3981,-0.47394 5.33176,-0.59242 7.8199,-0.59241 6.39811,-1.54029 4.73933,-1.18483 4.85782,-1.65877 3.79147,-1.77725 3.55451,-1.65877 4.14692,-2.25118 2.1327,-2.8436 1.54028,-3.31754 0.59242,-3.43602 -0.23697,-3.31753 -1.77725,-3.31754 -1.89573,5.56872 -4.14692,4.2654 -4.50237,2.60664 -11.84835,1.77725 -18.72037,-0.47393 -4.97631,0.59241 -3.08057,4.97631 z"
                   id="path4288"
                   style="fill:#000000;fill-opacity:1;fill-rule:evenodd;stroke:#000000;stroke-width:1px;stroke-linecap:butt;stroke-linejoin:miter;stroke-opacity:1" />
                <path
                   d="m 716.94313,395.61611 3.08057,-3.31753 3.79147,-1.77725 5.09478,-1.30332 6.27963,-0.7109 8.5308,0.82938 8.05687,0.7109 8.64929,0 5.68721,0.59242 3.79146,1.54028 2.96209,1.77725 2.60664,3.08057 2.72511,4.26541 0.94787,3.08057 -0.7109,5.6872 -2.48815,6.27962 -0.35545,2.96209 -0.7109,2.72511 -0.7109,2.01422 -1.4218,-11.37441 -1.77725,-4.50237 -5.33176,-3.79146 -4.02843,-1.89574 -6.39811,-1.30332 -6.51659,0.47394 -14.45497,2.8436 -7.70142,-0.35545 -5.21327,-2.36967 z"
                   id="path4290"
                   style="fill:#000000;fill-opacity:1;fill-rule:evenodd;stroke:#000000;stroke-width:1px;stroke-linecap:butt;stroke-linejoin:miter;stroke-opacity:1" />
                <path
                   d="m 775,427.60663 -0.82938,-4.50237 1.4218,-3.90995 0.23697,-2.36967 1.65876,-3.67298 0.94787,-3.90995 0.59242,-3.79147 1.06635,-1.77726 0.11848,-3.31753 1.89574,-2.1327 4.62085,-3.19905 3.67299,-2.60664 5.80568,-1.30332 3.90996,-0.23696 2.1327,2.1327 0.82938,1.54028 1.65877,2.48815 2.01422,3.08057 2.1327,0.7109 2.25118,-1.4218 3.20829,-0.41452 8.37804,-0.16756 6.36731,0.16756 6.70243,0.16756 5.36195,0.83781 4.85927,0.16756 4.18902,2.84853 0.8378,1.50805 0.67025,3.01609 3.01609,1.67561 2.01073,1.17293 0.50268,2.51341 -2.17829,2.51341 -1.00536,3.35122 0,4.52414 1.84317,3.8539 1.34048,5.02683 1.17293,5.86463 0.33512,6.86999 0.50268,5.36195 1.00537,5.02683 0.33512,5.5295 0.16756,6.36732 2.01073,11.72926 0.33512,10.72389 -0.16756,9.04829 -0.8378,12.06438 0.33512,5.69707 -0.67024,7.7078 -2.01073,6.03219 -5.52951,3.51877 -5.36195,2.01073 -8.04292,0.33513 -8.37804,1.17292 -8.21048,-0.33512 -2.84854,2.17829 -1.50805,3.8539 -1.00536,1.50805 -0.83781,3.8539 -3.18365,0.67024 -9.38341,-0.50268 -5.02682,-2.34585 -4.52415,-3.68634 -4.02146,-4.69171 -2.84853,-4.02146 -3.18366,-4.52414 -1.34049,-4.35658 0.67025,-12.73463 0,-10.22121 0.67024,-3.01609 -4.02146,-21.11267 -0.8378,-6.86999 0.33512,-19.2695 -1.17293,-16.75609 -2.51341,-4.6917 z"
                   id="path4292"
                   style="fill:#000000;fill-opacity:1;fill-rule:evenodd;stroke:#000000;stroke-width:1px;stroke-linecap:butt;stroke-linejoin:miter;stroke-opacity:1" />
                <path
                   d="m 857.58294,411.72986 1.65877,-3.31754 -1.18484,-2.48815 -0.94786,-2.01422 -0.59242,-2.72512 -0.47393,-3.31753 -1.06635,-3.19905 -4.38389,-3.90996 -5.21327,-1.77725 -5.68721,-0.94787 -15.28436,-0.7109 -4.85782,0.59242 -2.72511,1.30332 -2.96209,0.94787 -3.19905,1.06635 -3.5545,1.54028 -2.72512,0.82938 -1.65877,0.35545 3.67299,5.92418 2.01421,0.94786 2.72512,-1.54028 3.19905,-0.35545 21.20854,0.23697 5.09478,0.82938 5.09479,0 4.2654,2.72512 0.94787,1.65877 0.7109,3.19905 4.85782,2.60663 z"
                   id="path4294"
                   style="fill:#000000;fill-opacity:1;fill-rule:evenodd;stroke:#000000;stroke-width:1px;stroke-linecap:butt;stroke-linejoin:miter;stroke-opacity:1" />
                <path
                   d="m 820.0237,542.65403 0.35545,3.43602 4.62085,0.35545 5.80569,0.7109 6.27962,-0.7109 8.53081,-1.4218 8.64928,-2.01422 6.75356,-2.60664 3.5545,-3.08057 1.54029,-3.43601 0,-5.21328 -1.06635,-4.50236 -0.94787,-3.67299 -1.77725,-8.17536 0.11848,5.45024 -0.59242,6.51659 -2.25118,5.80569 -5.45024,3.79147 -5.21327,1.77725 -8.41232,0.35545 -8.41232,1.18483 -8.05688,-0.47393 -2.36966,2.1327 z"
                   id="path4296"
                   style="fill:#000000;fill-opacity:1;fill-rule:evenodd;stroke:#000000;stroke-width:1px;stroke-linecap:butt;stroke-linejoin:miter;stroke-opacity:1" />
                <path
                   d="m 857.10901,412.67772 2.1327,-3.5545 0.47393,-4.62085 2.60664,-2.96209 4.50237,-4.73933 10.07109,-5.45024 7.58293,-0.82938 1.06636,2.96208 0,3.43602 2.36966,2.01422 4.50237,-0.47394 6.04266,-0.47393 8.17535,0 3.31754,-0.23697 8.78352,2.7523 3.18366,1.50805 2.01073,3.18365 1.50805,3.51878 0.8378,3.0161 -3.01609,4.52414 -0.50268,3.8539 0.33512,3.01609 2.01073,3.8539 3.01609,6.03219 2.51341,5.19439 2.84854,5.69707 2.01073,8.37804 1.71157,11.70363 0.7109,10.90048 -0.23696,9.47867 -0.7109,7.58294 -2.13271,5.92417 -0.94786,5.21327 -0.73989,2.64875 0.16756,7.37268 -0.16756,5.69707 -2.84854,3.68634 -6.03219,3.18365 -7.54024,1.34049 -3.8539,0.33512 -7.70779,0.83781 -6.19976,3.18365 -4.35658,3.68634 -4.52414,1.00537 -6.70243,-0.50269 -7.54024,-3.8539 -7.03756,-5.5295 -3.51878,-5.36195 -2.51341,-5.36195 -0.8378,-3.51878 0.67024,-7.37267 0.50268,-11.89682 -0.50268,-13.90755 -1.84317,-11.39414 -0.50268,-12.23194 -1.17293,-5.52951 -0.67024,-10.38877 0,-1.67561 -2.17829,-9.55097 -2.34585,-5.19439 0,-4.02146 1.17292,-3.8539 z"
                   id="path4298"
                   style="fill:#000000;fill-opacity:1;fill-rule:evenodd;stroke:#000000;stroke-width:1px;stroke-linecap:butt;stroke-linejoin:miter;stroke-opacity:1" />
                <path
                   d="m 896.91943,533.64929 -0.59241,1.54028 2.48815,0.47394 6.51659,0 8.88625,0.23696 9.59716,-0.23696 5.80569,-1.54029 5.09478,-2.25118 4.97631,-4.62086 -0.23697,-4.62085 -1.77725,-3.67298 -2.60664,-2.60664 -1.65877,-0.94787 -0.23696,3.08057 -2.60664,3.90995 -6.3981,3.43602 -7.70142,1.06635 -11.37441,1.18484 -6.27962,3.08057 z"
                   id="path4300"
                   style="fill:#000000;fill-opacity:1;fill-rule:evenodd;stroke:#000000;stroke-width:1px;stroke-linecap:butt;stroke-linejoin:miter;stroke-opacity:1" />
                <path
                   d="m 928.45466,404.85769 0,-3.68634 1.17293,-4.52414 -1.34049,-4.18902 -1.84317,-2.51341 -4.52414,-2.51342 -6.70243,-0.8378 -9.04829,1.00536 -9.88609,-0.33512 -4.18902,0.67025 -3.8539,1.84317 -3.51878,1.50804 0.67025,1.50805 0.0838,4.18902 2.51341,2.01073 9.80231,-1.08914 8.37804,0.0838 3.68634,-0.41891 8.71316,2.68098 3.35122,1.75939 1.84317,2.93231 1.59183,3.8539 0.8378,2.68097 1.67561,-3.51877 0.83781,-2.17829 z"
                   id="path4304"
                   style="fill:#000000;fill-opacity:1;fill-rule:evenodd;stroke:#000000;stroke-width:1px;stroke-linecap:butt;stroke-linejoin:miter;stroke-opacity:1" />
                <path
                   d="m 933.48149,505.05908 1.67561,4.85926 2.34585,2.34586 8.04292,5.5295 6.87,3.68634 8.5456,0.83781 5.19438,0.8378 10.38878,-0.33512 10.72389,-1.34049 8.21048,-1.84317 5.5295,-2.84853 5.6971,-4.52414 1.1729,-4.69171 -0.8378,-0.8378 -7.37268,-1.34049 -9.71852,-3.01609 -5.86463,-5.36195 -3.35122,-5.69707 -1.17293,-4.18902 -0.16756,-7.03756 0,-11.22657 -0.16756,-11.22658 -1.67561,-9.55097 -3.18365,-11.89682 -1.67561,-8.88072 0.67024,-7.54024 2.68098,-4.35659 3.68633,-4.6917 4.85927,-3.35122 6.53487,-4.52414 2.84854,-2.68097 -1.50805,-3.18366 -4.02146,-4.35658 -7.54024,-4.6917 -5.02683,-0.67025 -7.37267,0.33512 -10.7239,2.51342 -9.71853,2.84853 -5.69707,2.01073 -5.86463,3.18366 -6.03219,5.36194 -1.6756,2.84854 -2.72344,5.71957 -2.8436,4.2654 -0.35545,3.43602 0.23697,3.19905 10.18957,20.49763 2.1327,8.64929 1.89574,12.44076 0.59241,8.76777 -0.23696,8.17536 -0.59242,10.18957 -2.25118,6.3981 z"
                   id="path4306"
                   style="fill:#000000;fill-opacity:1;fill-rule:evenodd;stroke:#000000;stroke-width:1px;stroke-linecap:butt;stroke-linejoin:miter;stroke-opacity:1" />
                <path
                   d="m 1004.1922,505.89688 5.0268,-0.67024 7.2051,-1.50805 6.5349,-1.50805 6.0322,-1.84316 5.1944,-3.18366 5.8646,-2.01073 7.3727,0.67024 1.8431,2.01073 3.1837,-0.67024 7.029,-0.97519 7.109,-1.4218 4.2654,-2.60664 0,-4.50237 -4.9763,-3.31753 -8.2939,-8.53081 -1.6587,-8.05687 0,-9.00474 -0.474,-12.32227 -1.8957,-7.58294 -2.3697,-9.71564 -0.4739,-9.00474 2.8436,-7.10901 2.8436,-9.00473 1.4218,-4.26541 -2.1327,-2.36967 -6.3981,0.47394 -6.3981,0.7109 -7.109,-0.47394 -2.3697,4.02844 -4.0284,1.89574 -7.109,-0.71091 -6.1612,-1.65876 -1.8957,-3.08057 -0.9479,-0.94787 -5.4502,0.47393 -7.8199,0.94787 -6.3981,1.4218 -2.60664,2.48815 -11.25592,7.58294 -3.67299,4.85782 -2.60663,3.90996 -0.59242,7.93838 1.30332,8.41233 2.96208,10.90047 2.01422,10.90047 0.35545,29.38389 1.18484,4.73934 3.19905,5.21327 6.16114,5.6872 9.71564,2.8436 z"
                   id="path4308"
                   style="fill:#000000;fill-opacity:1;fill-rule:evenodd;stroke:#000000;stroke-width:1px;stroke-linecap:butt;stroke-linejoin:miter;stroke-opacity:1" />
              </g>
              <g
                 id="g4353"
                 style="fill:#000000;fill-opacity:1;stroke:#000000;stroke-opacity:1">
                <path
                   d="m 516.75766,592.86096 6.19975,1.00537 2.17829,-2.51341 3.18366,-5.36195 6.03219,-9.55097 1.67561,-2.68097 2.34585,-5.19439 1.50805,-3.8539 -2.51342,2.68097 -3.35121,5.19439 -3.0161,4.6917 -4.6917,6.53488 -9.21585,7.7078 z"
                   id="path4339"
                   style="fill:#000000;fill-opacity:1;fill-rule:evenodd;stroke:#000000;stroke-width:1px;stroke-linecap:butt;stroke-linejoin:miter;stroke-opacity:1" />
                <path
                   d="m 527.98423,598.72559 3.18366,2.68098 0.50268,1.84317 1.84317,3.35121 1.67561,-0.67024 1.34049,-3.68634 0.50268,-6.53487 z"
                   id="path4341"
                   style="fill:#000000;fill-opacity:1;fill-rule:evenodd;stroke:#000000;stroke-width:1px;stroke-linecap:butt;stroke-linejoin:miter;stroke-opacity:1" />
                <path
                   d="m 502.51499,601.90925 -0.50269,7.87536 -1.84317,9.04829 0.33513,4.6917 3.68633,-1.34049 5.02683,-3.68634 5.02683,-2.51341 3.35121,0.50268 2.34585,4.18902 1.00537,4.69171 1.34049,2.68097 2.34585,-1.84317 0.50268,-9.71853 0.8378,-11.22657 0,-6.36732 -3.01609,0 -2.34585,-0.8378 0.67024,-2.01073 1.50805,-2.01073 -0.83781,-0.50268 -5.5295,-1.17293 -2.68098,2.68097 -4.85926,3.0161 z"
                   id="path4343"
                   style="fill:#000000;fill-opacity:1;fill-rule:evenodd;stroke:#000000;stroke-width:1px;stroke-linecap:butt;stroke-linejoin:miter;stroke-opacity:1" />
                <path
                   d="m 501.50962,623.18948 -3.01609,3.8539 -3.35122,4.85926 -2.17829,6.03219 0,3.68634 1.34048,3.18366 3.0161,3.35121 3.01609,3.18366 3.0161,2.68097 3.8539,0.33513 4.35658,-0.50269 1.50805,-2.68097 2.51341,-6.36731 2.68098,-8.04292 1.17292,-5.69707 0.67025,-6.53488 -0.16757,-4.02146 -2.34585,-4.18902 -3.35121,-0.67024 -5.52951,3.01609 -4.69171,3.68634 z"
                   id="path4345"
                   style="fill:#000000;fill-opacity:1;fill-rule:evenodd;stroke:#000000;stroke-width:1px;stroke-linecap:butt;stroke-linejoin:miter;stroke-opacity:1" />
                <path
                   d="m 493.13158,642.7941 -1.84317,3.8539 -1.50805,5.86463 -2.51341,4.02146 -0.83781,5.02682 0,4.02146 2.1783,0.83781 4.6917,0 5.19439,1.17292 2.01073,1.67561 2.84853,0 1.67561,-2.01073 2.51341,-4.6917 0.67024,-3.0161 0.50269,-3.35122 -0.16756,-2.17829 -5.02683,0 -9.21585,-9.55096 z"
                   id="path4347"
                   style="fill:#000000;fill-opacity:1;fill-rule:evenodd;stroke:#000000;stroke-width:1px;stroke-linecap:butt;stroke-linejoin:miter;stroke-opacity:1" />
                <path
                   d="m 486.76427,666.25262 -1.67561,3.68633 -1.34049,6.87 -1.50805,7.37268 0,7.54023 -0.67024,7.54024 -1.50805,6.03219 0,4.35659 0.16756,1.84316 2.01073,-1.50804 4.52415,-0.83781 2.51341,1.34049 2.01073,3.0161 1.17293,1.17292 0.67024,-2.84853 0.50268,-4.52415 0.83781,-6.53487 4.02146,-12.06438 2.84853,-8.21048 1.50805,-7.87536 -0.16756,-3.35122 -1.84317,-0.16756 -2.17829,-1.67561 -4.69171,-1.34049 -5.36194,0.16757 z"
                   id="path4349"
                   style="fill:#000000;fill-opacity:1;fill-rule:evenodd;stroke:#000000;stroke-width:1px;stroke-linecap:butt;stroke-linejoin:miter;stroke-opacity:1" />
                <path
                   d="m 480.39695,711.99673 0.50269,3.18365 0.33512,1.84317 1.34048,2.84854 2.51342,4.52414 3.68634,3.35122 0.67024,-1.67561 0,-4.52414 1.17293,-4.35659 0.67024,-4.18902 -1.84317,-2.34585 -2.84853,-1.67561 -4.35659,1.17293 z"
                   id="path4351"
                   style="fill:#000000;fill-opacity:1;fill-rule:evenodd;stroke:#000000;stroke-width:1px;stroke-linecap:butt;stroke-linejoin:miter;stroke-opacity:1" />
              </g>
            </g>
            <g
               id="g4408"
               style="fill:#000000;fill-opacity:1;stroke:#000000;stroke-opacity:1">
              <path
                 d="m 600.23697,584.59716 2.1327,4.73933 1.65877,6.39811 1.18483,5.21327 0.7109,3.31753 1.65877,-2.8436 1.4218,-3.5545 1.89573,-3.5545 3.79147,-1.65877 4.73934,0 1.89574,1.89573 1.4218,2.36967 2.8436,2.1327 2.1327,0.47394 -0.47393,-4.26541 0.47393,-3.5545 0,-4.02844 -0.23697,-4.2654 -1.4218,-2.1327 -2.36967,-2.1327 -2.8436,-1.18484 -20.61611,5.68721 z"
                 id="path4396"
                 style="fill:#000000;fill-opacity:1;fill-rule:evenodd;stroke:#000000;stroke-width:1px;stroke-linecap:butt;stroke-linejoin:miter;stroke-opacity:1" />
              <path
                 d="m 621.4455,578.19905 2.96208,1.54029 0.94787,0.94786 1.77725,2.01422 0.7109,0.94787 0.7109,2.36967 1.06635,-0.94787 0.23697,-2.72512 -0.59242,-6.27962 -5.33175,1.06635 z"
                 id="path4398"
                 style="fill:#000000;fill-opacity:1;fill-rule:evenodd;stroke:#000000;stroke-width:1px;stroke-linecap:butt;stroke-linejoin:miter;stroke-opacity:1" />
              <path
                 d="m 608.05687,601.18483 1.06635,3.67299 0.59242,5.21327 -0.35545,4.73934 -0.11848,5.21327 1.06635,5.6872 1.4218,1.89573 2.8436,0.47394 2.48815,0.94787 5.33176,-0.59242 3.19905,-1.54029 3.79147,-2.36966 1.54028,-1.77726 0.7109,-4.02843 -0.11848,-4.14692 -1.18484,-5.21327 -1.30331,-4.73934 -1.65877,-4.9763 -2.25119,-1.06635 -2.36966,-1.65877 -3.19906,-4.2654 -4.85782,0 -3.31753,1.4218 -2.25119,3.31753 z"
                 id="path4400"
                 style="fill:#000000;fill-opacity:1;fill-rule:evenodd;stroke:#000000;stroke-width:1px;stroke-linecap:butt;stroke-linejoin:miter;stroke-opacity:1" />
              <path
                 d="m 614.33649,628.19905 -0.7109,2.01422 -0.82938,2.60663 -0.11848,4.14692 0.23696,5.09479 0.35545,2.1327 2.01422,1.65877 2.01422,-2.01422 2.8436,-0.82938 5.33175,-0.23697 5.33176,0 2.36967,-0.94787 1.4218,-1.18483 -1.77725,-4.62085 -1.30332,-3.55451 -0.94787,-3.90995 -0.47393,-2.8436 -0.11849,-1.77725 -4.2654,2.96208 -3.08057,1.65877 -5.6872,0.47394 z"
                 id="path4402"
                 style="fill:#000000;fill-opacity:1;fill-rule:evenodd;stroke:#000000;stroke-width:1px;stroke-linecap:butt;stroke-linejoin:miter;stroke-opacity:1" />
              <path
                 d="m 615.40284,645.85308 0,5.6872 1.30332,4.14692 1.54029,6.87204 1.06635,6.27962 0.47393,3.08057 1.54029,6.51659 0.94786,4.9763 1.65877,3.90995 2.72512,3.19906 1.4218,-0.94787 0,-2.36967 0.47393,-2.72512 1.18484,-1.18483 2.48815,0.47393 2.8436,1.18484 1.77725,2.1327 0.11849,-6.16114 -0.35545,-2.60663 -1.30332,-4.50237 -0.82939,-4.02844 -0.23696,-11.61138 0.35545,-5.80568 -0.11849,-4.38389 -0.59241,-3.5545 -1.77725,-2.36967 -1.18484,0.7109 -9.12322,0.23697 -2.8436,0.11848 -1.4218,0.7109 z"
                 id="path4404"
                 style="fill:#000000;fill-opacity:1;fill-rule:evenodd;stroke:#000000;stroke-width:1px;stroke-linecap:butt;stroke-linejoin:miter;stroke-opacity:1" />
              <path
                 d="m 628.31754,685.90047 -0.35545,2.1327 0.47393,2.13271 1.54028,3.43602 2.60664,2.1327 4.14692,4.73933 1.77725,2.1327 2.36967,-0.11848 -0.11848,-3.90995 -1.30332,-4.38389 -2.36967,-6.87204 -2.25119,-2.60663 -3.08056,-1.30332 -2.01422,-0.23697 -1.30332,1.42181 -0.11848,1.77725 z"
                 id="path4406"
                 style="fill:#000000;fill-opacity:1;fill-rule:evenodd;stroke:#000000;stroke-width:1px;stroke-linecap:butt;stroke-linejoin:miter;stroke-opacity:1" />
            </g>
          </g>
          <g
             id="g4470"
             style="fill:#000000;fill-opacity:1;stroke:#000000;stroke-opacity:1">
            <path
               d="m 685.15631,565.21342 0.33512,4.35659 2.01073,0.67024 1.84317,-1.00537 5.52951,-2.34585 6.03219,-3.01609 4.18902,-2.51342 4.52415,-1.00536 2.17829,0.16756 -0.83781,-3.18366 -8.5456,2.01073 -7.54024,2.68098 z"
               id="path4458"
               style="fill:#000000;fill-opacity:1;fill-rule:evenodd;stroke:#000000;stroke-width:1px;stroke-linecap:butt;stroke-linejoin:miter;stroke-opacity:1" />
            <path
               d="m 689.51289,569.57001 1.84317,4.35658 1.67561,6.70243 0.33512,4.02146 2.01073,1.34049 2.68098,-0.50268 0,-4.52415 1.17292,-2.84853 2.84854,-2.17829 2.68097,0.33512 3.8539,2.17829 2.84853,1.67561 4.35659,0.50268 1.84317,-2.51341 0.50268,-2.01073 -1.34049,-4.02146 -4.18902,-7.37268 -1.34049,-4.18902 -1.84317,-0.50268 -4.18902,1.17292 -3.68634,2.17829 -6.53487,3.35122 z"
               id="path4460"
               style="fill:#000000;fill-opacity:1;fill-rule:evenodd;stroke:#000000;stroke-width:1px;stroke-linecap:butt;stroke-linejoin:miter;stroke-opacity:1" />
            <path
               d="m 698.22606,584.9856 1.00536,3.8539 2.51342,3.68634 2.34585,4.52415 0.16756,3.68633 1.50805,3.35122 2.17829,2.51341 2.68097,-0.67024 3.8539,-0.8378 5.36195,-3.8539 3.01609,-3.35122 2.68098,-2.51341 0.67024,-3.8539 -3.35122,-5.19439 -3.68634,-6.03219 -1.00536,-3.18366 -2.34585,3.51878 -4.35659,-0.50268 -6.53487,-3.8539 -2.68097,-0.50268 -2.84854,2.17829 -1.17292,3.01609 z"
               id="path4462"
               style="fill:#000000;fill-opacity:1;fill-rule:evenodd;stroke:#000000;stroke-width:1px;stroke-linecap:butt;stroke-linejoin:miter;stroke-opacity:1" />
            <path
               d="m 709.95532,606.26583 0.67024,3.51878 1.67561,3.68634 1.84317,4.02146 2.68097,2.51341 3.51878,-1.34049 4.18902,-4.02146 4.35658,-2.51341 4.85927,-2.34585 1.50805,-2.34585 -2.1783,-4.02146 -3.01609,-4.35658 -2.68097,-0.67025 -1.34049,-3.8539 -0.33512,0.50268 -4.18902,4.18903 -1.84317,2.34585 -4.85927,3.51878 z"
               id="path4464"
               style="fill:#000000;fill-opacity:1;fill-rule:evenodd;stroke:#000000;stroke-width:1px;stroke-linecap:butt;stroke-linejoin:miter;stroke-opacity:1" />
            <path
               d="m 719.17116,619.50314 0.50269,3.68634 2.17829,3.8539 2.84853,2.68097 5.19439,6.19975 6.36731,7.20512 4.85926,4.85926 1.17293,1.67561 2.34585,-2.34585 2.68098,-2.01073 5.19438,-0.50268 3.35122,0.16756 0.33512,-2.17829 -2.01073,-3.18366 -5.52951,-7.20512 -2.84853,-5.86463 -2.01073,-6.03219 -4.02146,-6.19975 -3.8539,-3.68634 -2.34585,-0.67024 -8.88073,4.35658 -4.35658,4.35658 z"
               id="path4466"
               style="fill:#000000;fill-opacity:1;fill-rule:evenodd;stroke:#000000;stroke-width:1px;stroke-linecap:butt;stroke-linejoin:miter;stroke-opacity:1" />
            <path
               d="m 742.9648,649.49653 1.67561,1.84317 3.68634,0.67024 5.86463,0.33513 2.84854,2.17829 2.68097,1.50804 6.36731,0.67025 5.52951,0 2.34585,-0.33512 0,-3.51878 -4.02146,0.8378 -7.37268,-3.68634 -4.85926,-3.8539 -2.01073,-1.00536 -4.52414,-0.33512 -3.68634,0.50268 -3.0161,2.34585 z"
               id="path4468"
               style="fill:#000000;fill-opacity:1;fill-rule:evenodd;stroke:#000000;stroke-width:1px;stroke-linecap:butt;stroke-linejoin:miter;stroke-opacity:1" />
          </g>
        </g>
        <g
           id="g4540"
           style="fill:#000000;fill-opacity:1;stroke:#000000;stroke-opacity:1">
          <path
             d="m 778.4877,551.13831 3.51878,3.0161 1.67561,3.35121 2.01073,1.67561 5.19439,0.83781 2.17829,-2.68098 1.34048,-2.17829 3.0161,-1.67561 2.17829,0 2.68097,1.00537 4.52415,-0.16756 1.17292,-2.68097 0,-2.84854 -3.35121,-0.67024 -4.35659,-1.84317 -4.35658,-4.02146 -6.03219,-7.20512 -1.00536,-0.8378 0.67024,3.18365 -0.16756,3.51878 -2.01073,4.02146 -2.17829,2.84854 -5.02683,2.51341 z"
             id="path4528"
             style="fill:#000000;fill-opacity:1;fill-rule:evenodd;stroke:#000000;stroke-width:1px;stroke-linecap:butt;stroke-linejoin:miter;stroke-opacity:1" />
          <path
             d="m 793.56818,557.67319 -0.16756,2.84853 2.01073,3.18366 3.18366,3.18365 2.01073,-1.67561 2.01073,-0.67024 2.51341,1.34049 2.01073,2.17829 2.68097,2.01073 2.84854,1.17292 2.84853,0.67025 2.01073,-0.50268 1.34049,-2.51342 0.8378,-6.70243 -0.33512,-6.03219 -1.34049,-4.18902 -1.84316,-2.34586 -1.17293,-0.67024 -6.87,-0.33512 -0.16756,2.51341 -1.00536,3.0161 -4.85927,0.33512 -2.51341,-1.00537 -2.34585,0 -2.51341,1.67561 -1.17293,1.67561 z"
             id="path4530"
             style="fill:#000000;fill-opacity:1;fill-rule:evenodd;stroke:#000000;stroke-width:1px;stroke-linecap:butt;stroke-linejoin:miter;stroke-opacity:1" />
          <path
             d="m 799.43281,566.55391 0,2.17829 -1.67561,2.84854 -2.34585,5.69706 -1.34049,3.18366 -0.16756,3.51878 1.34049,2.17829 2.34585,0.8378 4.85927,0.33513 4.52414,-0.16756 2.84853,-0.83781 3.18366,-1.00536 1.34049,-2.51342 0.8378,-3.18365 0.67024,-4.18902 0.33513,-3.68634 -4.85927,-1.17293 -2.17829,-1.17292 -2.34585,-1.67561 -1.84317,-2.01073 -2.34585,-1.17293 -2.17829,0.50268 z"
             id="path4532"
             style="fill:#000000;fill-opacity:1;fill-rule:evenodd;stroke:#000000;stroke-width:1px;stroke-linecap:butt;stroke-linejoin:miter;stroke-opacity:1" />
          <path
             d="m 793.73574,584.48292 -0.50268,4.18902 -1.17293,4.35658 0,3.18366 0.83781,2.01073 2.51341,0.83781 4.18902,-0.16757 4.6917,0 3.68634,0 1.50805,-1.17292 0.67024,-1.67561 1.00537,-3.18366 0.8378,-3.35121 -0.16756,-3.51878 -4.85926,1.17293 -6.19975,0.16756 -3.35122,-0.50269 -2.01073,-0.8378 z"
             id="path4534"
             style="fill:#000000;fill-opacity:1;fill-rule:evenodd;stroke:#000000;stroke-width:1px;stroke-linecap:butt;stroke-linejoin:miter;stroke-opacity:1" />
          <path
             d="m 792.06013,598.05535 -1.34048,5.52951 -0.33513,3.68634 0,3.8539 -0.16756,3.8539 -0.16756,5.86463 -0.33512,6.86999 0.50268,1.67561 2.01073,0 3.68634,-0.50268 2.51342,0 0.8378,1.6756 0.8378,2.1783 1.34049,1.84317 1.34049,-3.18366 0.33512,-4.52414 0.33512,-4.85927 1.00537,-5.02682 1.6756,-4.35659 1.67561,-2.84853 1.17293,-2.34585 0.67024,-3.35122 0,-3.51878 -0.50268,-2.68097 -1.17293,0.8378 -9.04828,0 -3.18366,0.33513 z"
             id="path4536"
             style="fill:#000000;fill-opacity:1;fill-rule:evenodd;stroke:#000000;stroke-width:1px;stroke-linecap:butt;stroke-linejoin:miter;stroke-opacity:1" />
          <path
             d="m 790.21696,629.55679 -0.50268,3.35122 0.67024,2.51341 1.84317,2.17829 1.67561,1.00537 0,2.84853 0.33512,3.51878 1.17293,5.19438 1.17293,1.00537 1.6756,-1.34049 1.17293,-3.35121 0.33512,-3.68634 0.67025,-9.21585 -1.84317,-4.18902 -3.0161,-0.83781 -3.8539,0.83781 z"
             id="path4538"
             style="fill:#000000;fill-opacity:1;fill-rule:evenodd;stroke:#000000;stroke-width:1px;stroke-linecap:butt;stroke-linejoin:miter;stroke-opacity:1" />
        </g>
      </g>
      <g
         transform="matrix(0,-0.73648656,0.71843021,0,59.175057,1077.9271)"
         id="g4622"
         style="fill:#000000;fill-opacity:1;stroke:#000000;stroke-opacity:1">
        <path
           d="m 1046.7526,502.37811 2.5134,1.6756 5.8647,1.17293 4.6917,2.34585 2.1783,0 0.5026,-2.68097 1.6757,-2.84854 3.1836,-2.51341 4.0215,-1.67561 1.8431,-2.01073 2.681,-1.00536 0.1676,-1.17293 -3.6864,-1.50805 -2.0107,0.16756 -4.189,2.68098 -9.8861,1.67561 -5.0268,0.67024 -2.0108,0.33512 0.1676,2.34585 z"
           id="path4614"
           style="fill:#000000;fill-opacity:1;fill-rule:evenodd;stroke:#000000;stroke-width:1px;stroke-linecap:butt;stroke-linejoin:miter;stroke-opacity:1" />
        <path
           d="m 1062.1682,507.40493 5.8647,3.51878 4.5241,2.68097 7.2051,2.17829 6.1998,1.00537 7.2051,0 5.5295,-0.83781 1.8432,-3.01609 -0.3352,-3.51878 -7.0375,-3.51878 -9.8861,-4.35658 -4.6917,-2.68097 -3.6864,0.16756 -1.508,-1.84317 -1.0054,-0.50268 -1.3405,1.50804 -3.8539,1.50805 -3.016,2.51341 -1.8432,3.68634 z"
           id="path4616"
           style="fill:#000000;fill-opacity:1;fill-rule:evenodd;stroke:#000000;stroke-width:1px;stroke-linecap:butt;stroke-linejoin:miter;stroke-opacity:1" />
        <path
           d="m 1099.0316,515.28029 2.1783,1.34049 2.5134,-1.17293 2.0107,-3.01609 3.3513,-2.17829 2.6809,-2.34586 1.8432,-2.68097 1.3405,-4.85926 -0.3351,-1.84317 -2.5134,-0.83781 -2.1783,0 0.5026,3.35122 -0.3351,2.84853 -1.3405,2.01073 -2.0107,1.67561 -2.681,1.17293 -2.8485,0.33512 -1.3405,0.33512 0.6703,3.35122 z"
           id="path4618"
           style="fill:#000000;fill-opacity:1;fill-rule:evenodd;stroke:#000000;stroke-width:1px;stroke-linecap:butt;stroke-linejoin:miter;stroke-opacity:1" />
      </g>
      <path
         d="m 388.5589,287.87985 -0.84266,-7.03411 -0.36115,-5.42989 0.24077,-2.22132 1.80571,-1.23406 2.16685,-1.23406 3.25028,-2.71498 2.76876,-1.85108 3.25028,-2.96171 1.08343,1.60429 0.84266,2.46811 1.32419,4.3192 2.76876,3.94904 2.40762,0.61703 1.32418,-1.48093 0,-2.71491 0.36115,-1.85108 0.96304,-1.60429 2.28723,-0.37023 -0.12038,3.5788 -1.92609,5.05967 -1.08342,6.04692 -1.32419,4.19576 -0.84266,1.97452 -3.61143,-1.48085 -3.85219,0 -2.52799,0.98719 -3.00952,-0.98719 -4.45409,1.23406 z"
         id="path4692"
         style="fill:#000000;fill-opacity:1;fill-rule:evenodd;stroke:#000000;stroke-width:0.72740239px;stroke-linecap:butt;stroke-linejoin:miter;stroke-opacity:1" />
      <path
         d="m 393.49451,268.87533 -0.48152,-3.57881 -0.24076,-6.29372 1.20381,-4.0724 2.04647,-3.57881 1.56495,-3.57874 0.24076,-1.97452 1.56495,-2.34475 1.44457,-0.98719 1.44457,1.48086 2.76876,2.22131 3.1299,1.11063 2.52799,1.23405 2.64838,0 4.09295,-1.35741 0.48152,0 0.48152,5.42982 -0.96304,3.8256 -0.84267,2.59155 -0.24076,1.97452 -1.80571,3.82561 -2.40762,3.45537 -1.2038,1.60429 -0.48153,2.46811 0,2.46812 -1.32418,1.48085 -2.28724,-0.61703 -2.88914,-4.19576 -2.04647,-6.54059 -1.20381,-1.72765 -3.37066,3.20858 z"
         id="path4694"
         style="fill:#000000;fill-opacity:1;fill-rule:evenodd;stroke:#000000;stroke-width:0.72740239px;stroke-linecap:butt;stroke-linejoin:miter;stroke-opacity:1" />
      <path
         d="m 415.04267,248.01965 2.76876,-5.42989 1.92609,-5.30646 1.56495,-5.55326 1.20381,-5.67669 1.56495,-4.68951 2.04648,-4.44256 0.84266,-2.22131 0.12038,-2.83835 -1.20381,-2.83834 -1.32418,-2.22132 -2.64838,-0.49367 -2.64838,0.37023 -3.25028,-0.24679 -2.28724,-0.98726 -2.04647,-0.37023 -0.72228,0.98726 -1.68533,4.31919 -2.16686,7.52778 -2.16685,8.26824 -0.96305,6.29372 -1.44457,5.55333 0,3.57874 0,2.46811 2.16686,1.85116 4.69485,1.85108 1.2038,0.61703 2.76876,0.12336 z"
         id="path4696"
         style="fill:#000000;fill-opacity:1;fill-rule:evenodd;stroke:#000000;stroke-width:0.72740239px;stroke-linecap:butt;stroke-linejoin:miter;stroke-opacity:1" />
      <path
         d="m 412.39429,205.19767 0.96305,-3.94904 1.68533,-5.42982 2.76876,-7.28098 2.76876,-7.65121 1.92609,-4.56607 1.44457,-2.83835 2.40762,-0.61703 2.76875,0.24687 0.96305,1.60422 1.2038,2.46819 1.80572,0.98726 2.04647,0.61703 -0.12038,4.19576 -1.80571,5.55333 -2.64838,6.29372 -1.20381,4.44263 -0.6019,2.71491 -2.28723,2.71491 -1.92609,2.09796 -2.88914,-0.61703 -2.528,0.49359 -3.1299,-0.37023 -1.32419,-0.37023 -1.56495,-0.61703 z"
         id="path4698"
         style="fill:#000000;fill-opacity:1;fill-rule:evenodd;stroke:#000000;stroke-width:0.72740239px;stroke-linecap:butt;stroke-linejoin:miter;stroke-opacity:1" />
      <path
         d="m 434.18321,178.29507 1.32419,-3.20858 2.28724,-4.56599 -1.20381,-3.45538 -2.28723,-1.85108 -2.16686,-0.61703 -1.80571,1.85108 -2.528,4.68943 -1.2038,1.85109 2.52799,0 1.92609,3.94897 2.28724,1.35749 z"
         id="path4700"
         style="fill:#000000;fill-opacity:1;fill-rule:evenodd;stroke:#000000;stroke-width:0.72740239px;stroke-linecap:butt;stroke-linejoin:miter;stroke-opacity:1" />
      <path
         d="m 437.91502,170.02683 1.14362,-0.98726 0.54171,-1.48086 0.6621,-2.03616 -0.78248,-2.28303 -1.264,-1.60429 -1.92609,-0.67875 -1.80571,-0.30851 -1.08343,0.92554 -1.02324,1.85108 -0.36114,1.04898 1.98628,0.55531 1.62514,1.17234 0.96305,0.92562 0.90286,1.91273 z"
         id="path4702"
         style="fill:#000000;fill-opacity:1;fill-rule:evenodd;stroke:#000000;stroke-width:0.72740239px;stroke-linecap:butt;stroke-linejoin:miter;stroke-opacity:1" />
      <path
         d="m 434.78512,160.46289 0.6019,-2.09796 1.08343,-1.72765 0.84267,-1.04898 0.90285,-0.30851 1.44457,0.80218 1.56495,1.23406 1.32419,1.35742 0.42133,0.98726 -0.54171,2.09795 -1.08342,1.9128 -0.84267,1.11063 -0.30095,0.12343 -0.96305,-2.03624 -1.02324,-1.41913 z"
         id="path4704"
         style="fill:#000000;fill-opacity:1;fill-rule:evenodd;stroke:#000000;stroke-width:0.72740239px;stroke-linecap:butt;stroke-linejoin:miter;stroke-opacity:1" />
      <path
         d="m 443.15158,159.29047 0.96305,-0.86382 1.2038,-1.97452 0.42134,-1.66593 -0.48153,-1.41921 -1.32418,-1.3575 -2.04647,-1.66593 -1.08343,-0.37023 -1.38438,1.29577 -1.264,2.59155 -0.36114,1.41914 1.32419,0.30851 1.44457,1.23406 2.16685,1.9128 z"
         id="path4706"
         style="fill:#000000;fill-opacity:1;fill-rule:evenodd;stroke:#000000;stroke-width:0.72740239px;stroke-linecap:butt;stroke-linejoin:miter;stroke-opacity:1" />
      <path
         d="m 445.92034,153.6755 0.96304,-1.29577 0.90286,-1.97445 0.96305,-2.22132 -0.30095,-1.54257 -1.20381,-1.23413 -1.32419,-1.35742 -1.56495,0.18508 -1.08343,0.92554 -0.72228,1.60429 -0.90285,1.72773 -0.42134,1.60429 0.60191,0.24679 3.37065,2.90007 0.42134,0.74039 z"
         id="path4708"
         style="fill:#000000;fill-opacity:1;fill-rule:evenodd;stroke:#000000;stroke-width:0.72740239px;stroke-linecap:butt;stroke-linejoin:miter;stroke-opacity:1" />
      <path
         d="m 448.92986,147.13498 1.32419,-1.29577 1.44457,-2.46811 0.6019,-1.3575 -0.12038,-1.72765 -0.6019,-1.41921 -1.50476,-1.0489 -1.32419,-0.0619 -1.74552,1.97444 -0.90286,2.15968 -0.36114,2.09788 2.76876,2.59155 z"
         id="path4710"
         style="fill:#000000;fill-opacity:1;fill-rule:evenodd;stroke:#000000;stroke-width:0.72740239px;stroke-linecap:butt;stroke-linejoin:miter;stroke-opacity:1" />
      <path
         d="m 449.41138,137.50933 0.30095,-1.97452 0.78248,-1.54258 1.32419,-2.15959 1.14362,-0.37024 1.50476,0.4936 1.44457,1.35749 0.48152,1.60429 -1.08343,1.78937 -1.14361,1.78936 -1.38438,1.48093 -0.48153,0.30851 -0.78247,-1.60428 -1.32419,-0.86383 z"
         id="path4712"
         style="fill:#000000;fill-opacity:1;fill-rule:evenodd;stroke:#000000;stroke-width:0.72740239px;stroke-linecap:butt;stroke-linejoin:miter;stroke-opacity:1" />
      <path
         d="m 453.14319,131.27725 0.24076,-2.09788 1.02324,-1.72773 1.14362,-2.03616 1.2038,-0.61703 1.50476,0.0619 1.50476,0.74039 -0.12038,1.72772 -0.90285,2.59155 -1.20381,2.4064 -1.32419,1.29577 -0.78248,-0.92554 -1.08342,-0.92554 z"
         id="path4714"
         style="fill:#000000;fill-opacity:1;fill-rule:evenodd;stroke:#000000;stroke-width:0.72740239px;stroke-linecap:butt;stroke-linejoin:miter;stroke-opacity:1" />
      <path
         d="m 457.41671,124.48994 -0.0602,-1.97452 1.38438,-1.91281 1.80571,-1.9128 1.08343,-0.30851 1.20381,0.92554 1.14361,1.04898 -0.48152,1.23405 -1.32419,2.09789 -1.20381,1.23405 -1.08342,0.74047 -1.02324,-0.55531 z"
         id="path4716"
         style="fill:#000000;fill-opacity:1;fill-rule:evenodd;stroke:#000000;stroke-width:0.72740239px;stroke-linecap:butt;stroke-linejoin:miter;stroke-opacity:1" />
      <path
         d="m 463.6765,119.73879 1.86591,-1.35749 1.80571,-2.83835 0.6019,-1.97452 -0.90285,-1.0489 -1.56495,-0.98726 -1.38438,1.04897 -1.32419,2.09789 -0.60191,1.72765 -0.48152,1.97452 z"
         id="path4718"
         style="fill:#000000;fill-opacity:1;fill-rule:evenodd;stroke:#000000;stroke-width:0.72740239px;stroke-linecap:butt;stroke-linejoin:miter;stroke-opacity:1" />
      <path
         d="m 465.54241,111.40883 0.96304,-1.85108 1.08343,-2.34468 1.32419,-1.48093 1.62514,-0.30851 1.08343,0.43195 0.66209,1.35749 -0.54171,1.60429 -1.62514,2.22124 -1.38438,1.72772 -0.84267,0.67875 -0.90285,-1.04898 z"
         id="path4720"
         style="fill:#000000;fill-opacity:1;fill-rule:evenodd;stroke:#000000;stroke-width:0.72740239px;stroke-linecap:butt;stroke-linejoin:miter;stroke-opacity:1" />
      <path
         d="m 472.22354,106.53432 1.32419,-1.35749 1.98628,-2.03616 0.96305,-1.41921 -0.30095,-1.41914 -0.90286,-1.110695 -1.56495,-0.185079 -1.74552,1.789364 -1.68533,3.45538 -0.72229,1.29577 1.08343,-0.24679 0.96305,0.61702 z"
         id="path4722"
         style="fill:#000000;fill-opacity:1;fill-rule:evenodd;stroke:#000000;stroke-width:0.72740239px;stroke-linecap:butt;stroke-linejoin:miter;stroke-opacity:1" />
      <path
         d="m 474.81173,98.821393 1.08343,-1.789368 1.86589,-2.097882 1.50476,-1.048978 0.78248,-0.123435 0.6019,1.234057 0.90286,0.863899 -0.72229,1.665932 -1.98628,1.234057 -1.74552,1.110696 -0.66209,0.678749 -0.90286,-1.172416 z"
         id="path4724"
         style="fill:#000000;fill-opacity:1;fill-rule:evenodd;stroke:#000000;stroke-width:0.72740239px;stroke-linecap:butt;stroke-linejoin:miter;stroke-opacity:1" />
      <path
         d="m 481.79381,95.674533 1.74552,-1.357418 2.22705,-0.925617 1.50476,-0.863825 0.12038,-1.172339 -0.6019,-2.097882 -1.9261,0.185079 -2.34742,1.542571 -2.528,2.591549 0.66209,1.357492 z"
         id="path4726"
         style="fill:#000000;fill-opacity:1;fill-rule:evenodd;stroke:#000000;stroke-width:0.72740239px;stroke-linecap:butt;stroke-linejoin:miter;stroke-opacity:1" />
      <path
         d="m 487.75266,91.170255 1.38438,-0.555385 1.9261,-1.048904 2.16685,-1.357492 0.18057,-1.172339 -0.30095,-0.863899 -1.44457,-0.431876 -2.40762,1.17234 -2.40761,2.344752 0.48152,2.036164 z"
         id="path4728"
         style="fill:#000000;fill-opacity:1;fill-rule:evenodd;stroke:#000000;stroke-width:0.72740239px;stroke-linecap:butt;stroke-linejoin:miter;stroke-opacity:1" />
      <path
         d="m 388.79966,300.22049 -3.00952,-1.23405 -2.28723,-3.20858 -1.20381,-4.0724 0,-3.20858 4.45409,0 2.04647,-0.4936 3.00953,0.86383 4.21332,-1.35742 2.64837,0.86383 2.28724,-0.86383 4.45409,-0.12343 3.97257,1.72772 -1.56495,2.46811 -6.86171,7.52778 -6.01904,1.35749 z"
         id="path4837"
         style="fill:#000000;fill-opacity:1;fill-rule:evenodd;stroke:#000000;stroke-width:0.72740239px;stroke-linecap:butt;stroke-linejoin:miter;stroke-opacity:1" />
      <path
         d="m 382.17872,299.9737 -1.44457,-3.57881 -0.60191,-4.93623 0.36115,-3.20858 1.68533,0.8639 0.36114,2.71491 0.84267,3.57881 2.40761,3.33194 2.76876,1.23406 -3.97256,0.61702 z"
         id="path4946"
         style="fill:#000000;fill-opacity:1;fill-rule:evenodd;stroke:#000000;stroke-width:0.72740239px;stroke-linecap:butt;stroke-linejoin:miter;stroke-opacity:1" />
      <path
         d="m 383.74367,288.37352 0.12038,-3.57881 1.08343,-1.85109 2.16685,-0.61703 0.84267,0.49367 0.36114,3.08514 0.24076,1.97445 -1.80571,0.61703 z"
         id="path4948"
         style="fill:#000000;fill-opacity:1;fill-rule:evenodd;stroke:#000000;stroke-width:0.72740239px;stroke-linecap:butt;stroke-linejoin:miter;stroke-opacity:1" />
      <path
         d="m 386.27167,282.45003 0.36114,-10.48956 1.08343,-1.11069 1.20381,0.24687 0.12038,0.98726 -1.56495,1.23405 0.24076,3.94897 0.24076,5.05966 0,0.49367 -0.84267,-0.24687 z"
         id="path4950"
         style="fill:#000000;fill-opacity:1;fill-rule:evenodd;stroke:#000000;stroke-width:0.72740239px;stroke-linecap:butt;stroke-linejoin:miter;stroke-opacity:1" />
      <path
         d="m 386.39205,271.46688 0.12038,-6.04692 -0.24076,-5.55333 2.40761,-6.54052 1.80572,-3.82561 2.16685,-1.85108 2.40761,-1.11062 1.92609,0.74039 -0.24076,2.09795 -1.20381,1.35742 -2.76875,1.35749 -1.92609,3.82561 -2.04648,5.05966 0,5.80005 -0.24076,4.19584 -0.96304,0 z"
         id="path4952"
         style="fill:#000000;fill-opacity:1;fill-rule:evenodd;stroke:#000000;stroke-width:0.72740239px;stroke-linecap:butt;stroke-linejoin:miter;stroke-opacity:1" />
      <path
         d="m 375.4374,301.45455 1.32419,-5.80005 -0.48153,-5.1831 -1.68533,-3.45538 -4.21333,-3.57873 -4.93561,-0.74046 -3.1299,-0.61703 -1.20381,1.97452 -0.12038,6.66388 -2.28723,5.30653 -2.16685,3.94897 -3.1299,0.61702 -3.12991,-0.37023 5.41714,1.60429 5.05599,2.22132 6.74132,-0.2468 z"
         id="path5051"
         style="fill:#000000;fill-opacity:1;fill-rule:evenodd;stroke:#000000;stroke-width:0.72740239px;stroke-linecap:butt;stroke-linejoin:miter;stroke-opacity:1" />
      <path
         d="m 350.63896,300.34393 -4.45409,-1.97452 -2.16685,-2.22132 -2.64838,-2.34468 -1.08343,-1.23406 1.32419,-1.48092 1.44457,-0.61703 1.80571,-2.22132 0.12038,-2.96171 0.6019,-4.9363 0.84267,-4.81279 3.25028,-0.37023 3.1299,-0.86383 2.04648,-1.85116 2.88914,1.3575 2.52799,3.08514 2.16685,5.05966 -1.32419,1.97452 0,6.54052 -2.40761,5.80012 -2.16685,3.57874 -2.64838,0.98726 z"
         id="path5053"
         style="fill:#000000;fill-opacity:1;fill-rule:evenodd;stroke:#000000;stroke-width:0.72740239px;stroke-linecap:butt;stroke-linejoin:miter;stroke-opacity:1" />
      <path
         d="m 340.40659,292.32248 -4.33371,0.61703 -4.09295,-0.24679 -4.69484,-0.86383 -5.89866,-1.72772 -3.25028,-0.74039 3.37066,-2.09796 4.21333,-1.97445 4.09294,-2.09795 1.92609,-2.83835 -0.36114,-3.8256 -3.97256,-4.68943 -4.33371,-4.07241 0.36114,-0.98726 6.2598,0 5.6579,1.23406 5.6579,1.23413 4.81522,2.22132 1.80571,2.46811 0.36115,1.23406 -1.56495,0.37023 -1.56495,9.25543 0,3.33201 -1.68533,2.22132 -1.80571,0.86382 z"
         id="path5055"
         style="fill:#000000;fill-opacity:1;fill-rule:evenodd;stroke:#000000;stroke-width:0.72740239px;stroke-linecap:butt;stroke-linejoin:miter;stroke-opacity:1" />
      <path
         d="m 322.46986,286.64579 -4.09295,-0.12336 -5.53752,-1.23406 -4.57446,-2.09795 -4.69486,-1.72765 -4.21333,-1.23406 -4.21332,-0.74046 -0.96304,-1.11062 0.36114,-2.59155 -0.84267,-3.33202 -0.36114,-2.71491 1.08343,-1.35749 1.68532,-1.72765 0.84267,-2.09795 -0.36114,-1.85109 1.56495,-0.61703 2.88914,-0.37023 4.21333,0.61703 1.92609,1.11069 4.09294,-0.12343 3.97257,1.23406 3.00952,1.97452 3.61142,0.86382 1.56495,0.61703 4.21333,4.07248 3.49104,4.0724 0.48152,3.94897 -1.80571,3.20857 z"
         id="path5057"
         style="fill:#000000;fill-opacity:1;fill-rule:evenodd;stroke:#000000;stroke-width:0.72740239px;stroke-linecap:butt;stroke-linejoin:miter;stroke-opacity:1" />
      <path
         d="m 294.05999,274.92225 -3.1299,0.37016 -4.81523,-0.49359 -5.05599,-1.60429 -6.62094,-1.97452 -5.77828,-1.35742 -2.76876,0 1.20381,-2.46819 1.32419,-3.33194 -1.44457,-3.57881 -2.76876,-2.71491 0.24076,-2.59155 6.86171,0 6.13942,1.23406 8.06551,1.23406 8.18589,3.33201 2.64838,1.72765 0,0 0.36114,2.71499 -0.60191,1.35741 -2.88913,3.20858 0.84266,3.94904 z"
         id="path5059"
         style="fill:#000000;fill-opacity:1;fill-rule:evenodd;stroke:#000000;stroke-width:0.72740239px;stroke-linecap:butt;stroke-linejoin:miter;stroke-opacity:1" />
      <path
         d="m 265.89089,269.12213 -6.13942,-0.2468 -1.44457,-0.74046 0.48153,-1.48086 0,-2.96178 -1.32419,-4.0724 -0.96305,-1.23406 1.20381,-1.11062 2.28724,-0.8639 4.21332,-0.24679 0,1.97452 2.64837,1.97452 1.32419,3.94896 -1.56495,4.19584 z"
         id="path5061"
         style="fill:#000000;fill-opacity:1;fill-rule:evenodd;stroke:#000000;stroke-width:0.72740239px;stroke-linecap:butt;stroke-linejoin:miter;stroke-opacity:1" />
      <path
         d="m 257.82538,268.5051 -1.68533,0.61703 -2.28724,0.24679 -0.24076,-2.09788 0.36114,-2.09795 -0.24076,-3.08515 -1.08343,-1.85108 -0.96304,-0.98726 1.56495,-0.86383 2.76876,-0.12343 1.08343,0.74046 1.68533,4.68943 0,2.83835 z"
         id="path5063"
         style="fill:#000000;fill-opacity:1;fill-rule:evenodd;stroke:#000000;stroke-width:0.72740239px;stroke-linecap:butt;stroke-linejoin:miter;stroke-opacity:1" />
      <path
         d="m 251.4452,259.74326 -1.9261,0.74039 0,2.22132 0.96305,3.94904 0.84267,1.48086 1.92609,0.49366 0.24076,-1.35749 0.36114,-2.09795 -0.24076,-3.20851 -0.96305,-1.72772 z"
         id="path5065"
         style="fill:#000000;fill-opacity:1;fill-rule:evenodd;stroke:#000000;stroke-width:0.72740239px;stroke-linecap:butt;stroke-linejoin:miter;stroke-opacity:1" />
      <path
         d="m 250.60253,268.2583 -2.40762,1.11062 -0.96304,-1.35749 -0.12038,-4.44256 -0.6019,-2.34475 1.92608,-0.86383 1.32419,0 -0.24076,2.83835 0.96305,3.57873 0.84267,1.23406 z"
         id="path5067"
         style="fill:#000000;fill-opacity:1;fill-rule:evenodd;stroke:#000000;stroke-width:0.72740239px;stroke-linecap:butt;stroke-linejoin:miter;stroke-opacity:1" />
      <path
         d="m 246.02806,261.59435 -3.25027,0.74039 0.12038,1.48093 0.48152,3.20857 0.96304,2.59148 0.84267,0.24687 1.08342,-0.37023 0.72229,-0.98726 0.12038,-1.60429 -0.12038,-2.59155 0,-1.48085 z"
         id="path5069"
         style="fill:#000000;fill-opacity:1;fill-rule:evenodd;stroke:#000000;stroke-width:0.72740239px;stroke-linecap:butt;stroke-linejoin:miter;stroke-opacity:1" />
      <path
         d="m 243.50007,269.61572 -1.80571,1.23406 -2.04648,0.74046 -2.16685,-0.61703 -0.48153,-1.60429 -0.6019,-3.08514 0.96305,-2.46811 2.64838,-0.86383 2.16685,-0.24687 0.48152,0 0.36115,2.71499 0.36114,1.97444 0.72228,1.97452 z"
         id="path5071"
         style="fill:#000000;fill-opacity:1;fill-rule:evenodd;stroke:#000000;stroke-width:0.72740239px;stroke-linecap:butt;stroke-linejoin:miter;stroke-opacity:1" />
      <path
         d="m 236.75874,270.60298 -2.64838,2.09796 -1.2038,1.23405 -1.56495,-0.61703 -0.72229,-1.23405 -0.84266,-3.70225 0.36114,-1.85108 2.04647,-0.74039 3.1299,-0.74047 1.68533,-0.61702 -0.72228,2.22131 z"
         id="path5073"
         style="fill:#000000;fill-opacity:1;fill-rule:evenodd;stroke:#000000;stroke-width:0.72740239px;stroke-linecap:butt;stroke-linejoin:miter;stroke-opacity:1" />
      <path
         d="m 230.1378,272.08391 -2.16685,1.97444 -1.68533,0.8639 -1.20381,-0.49366 -0.24076,-2.22132 -0.48152,-2.96171 -0.60191,-1.23413 0.72229,-0.49359 1.56495,-0.2468 1.80571,0 1.92609,0.2468 0,1.11069 0.48152,2.09788 z"
         id="path5075"
         style="fill:#000000;fill-opacity:1;fill-rule:evenodd;stroke:#000000;stroke-width:0.72740239px;stroke-linecap:butt;stroke-linejoin:miter;stroke-opacity:1" />
      <path
         d="m 224.60029,273.44133 -3.00952,2.22131 -3.12991,1.1107 -0.72228,-1.48093 -0.12038,-2.96171 -0.12038,-2.46811 1.56495,-0.74046 1.80571,-0.2468 3.00952,-0.2468 0.60191,0.98719 0.12038,2.46819 z"
         id="path5077"
         style="fill:#000000;fill-opacity:1;fill-rule:evenodd;stroke:#000000;stroke-width:0.72740239px;stroke-linecap:butt;stroke-linejoin:miter;stroke-opacity:1" />
      <path
         d="m 217.13667,275.41585 -3.00951,2.34475 -2.40762,-0.12344 -0.96304,-1.35749 -0.60191,-3.20858 2.28724,-0.86382 2.04647,-0.74039 2.04647,-1.1107 0.96305,0.2468 0,2.83835 z"
         id="path5079"
         style="fill:#000000;fill-opacity:1;fill-rule:evenodd;stroke:#000000;stroke-width:0.72740239px;stroke-linecap:butt;stroke-linejoin:miter;stroke-opacity:1" />
      <path
         d="m 210.7565,276.77334 -4.57447,2.22131 -2.28724,0 -0.6019,-1.48092 -0.48153,-1.97445 0.84267,-1.23406 2.528,-0.24687 2.88914,-0.24679 1.08342,0.12343 z"
         id="path5081"
         style="fill:#000000;fill-opacity:1;fill-rule:evenodd;stroke:#000000;stroke-width:0.72740239px;stroke-linecap:butt;stroke-linejoin:miter;stroke-opacity:1" />
      <path
         d="m 203.05212,278.87122 -4.93561,2.22132 -2.76875,0.49359 -1.68533,-1.72765 0.6019,-1.23406 1.68533,-0.98726 1.92609,-1.35749 2.40762,-0.49359 2.16685,-0.12344 0.48152,1.1107 z"
         id="path5083"
         style="fill:#000000;fill-opacity:1;fill-rule:evenodd;stroke:#000000;stroke-width:0.72740239px;stroke-linecap:butt;stroke-linejoin:miter;stroke-opacity:1" />
      <path
         d="m 192.81976,279.61168 -3.37066,1.23406 0.72228,1.35742 1.9261,0.37023 1.68533,-0.49359 1.80571,-0.49367 -2.04647,-1.85109 z"
         id="path5085"
         style="fill:#000000;fill-opacity:1;fill-rule:evenodd;stroke:#000000;stroke-width:0.72740239px;stroke-linecap:butt;stroke-linejoin:miter;stroke-opacity:1" />
      <path
         d="m 375.4374,287.75649 1.32419,-0.37023 0.36114,-1.23406 0.36114,-1.72772 1.08343,0.12343 1.32418,0.86383 0,1.60428 0.24076,1.85109 0,2.83835 0.48153,3.94904 0.96304,2.9617 0.60191,1.3575 0.12038,0.37023 -1.92609,0.24679 -4.93561,1.1107 0.36114,-1.97452 0.96305,-4.56607 -0.48153,-4.68943 z"
         id="path5218"
         style="fill:#000000;fill-opacity:1;fill-rule:evenodd;stroke:#000000;stroke-width:0.72740239px;stroke-linecap:butt;stroke-linejoin:miter;stroke-opacity:1" />
      <path
         d="m 363.64008,282.0798 -1.08343,-6.17036 0,-2.59148 1.68533,-0.74046 2.28724,0.37023 1.20381,1.85109 0.72228,4.93622 1.08343,3.57881 z"
         id="path5220"
         style="fill:#000000;fill-opacity:1;fill-rule:evenodd;stroke:#000000;stroke-width:0.72740239px;stroke-linecap:butt;stroke-linejoin:miter;stroke-opacity:1" />
      <path
         d="m 362.79741,272.94773 -2.64837,-9.37886 -0.48152,-1.72772 1.68533,-0.98726 1.8057,-0.61703 1.32419,2.22131 1.44457,4.56607 0.36115,5.80006 -2.16686,-0.12336 z"
         id="path5222"
         style="fill:#000000;fill-opacity:1;fill-rule:evenodd;stroke:#000000;stroke-width:0.72740239px;stroke-linecap:butt;stroke-linejoin:miter;stroke-opacity:1" />
      <path
         d="m 359.30638,261.71771 -2.16686,-5.92349 -2.40762,-3.94896 -2.28723,-0.74047 1.80571,-2.59155 1.80571,0.74047 3.49105,4.0724 1.80571,4.44263 1.08342,2.59155 z"
         id="path5224"
         style="fill:#000000;fill-opacity:1;fill-rule:evenodd;stroke:#000000;stroke-width:0.72740239px;stroke-linecap:butt;stroke-linejoin:miter;stroke-opacity:1" />
      <path
         d="m 344.58933,315.69842 -2.04293,-2.53057 -1.36195,-1.04713 2.04293,-0.3491 2.12805,0 -0.17025,3.66498 z"
         id="path5349"
         style="fill:#000000;fill-opacity:1;fill-rule:evenodd;stroke:#000000;stroke-width:0.72740239px;stroke-linecap:butt;stroke-linejoin:miter;stroke-opacity:1" />
      <path
         d="m 342.71665,326.51881 -2.12805,0.0873 -2.46854,-0.43629 -2.63878,-1.04714 -2.12806,-1.83253 -1.36195,-1.48343 0.25537,-1.04713 1.27683,-0.52357 0.4256,-1.48343 -0.34048,-1.91973 -1.95781,-3.05414 -2.21318,-1.22168 -0.85121,-1.48343 -0.42562,-1.13441 2.55366,-0.34902 3.40489,0.43629 3.23464,0.87259 2.04293,1.30896 1.70244,0 1.87269,1.5707 1.70243,1.83246 0.0851,0.69811 -1.44708,1.83245 0,4.45037 -0.17024,3.49043 0,0.4363 z"
         id="path5351"
         style="fill:#000000;fill-opacity:1;fill-rule:evenodd;stroke:#000000;stroke-width:0.72740239px;stroke-linecap:butt;stroke-linejoin:miter;stroke-opacity:1" />
      <path
         d="m 331.65078,321.54494 -4.00074,0.52357 -3.83049,-1.74525 -5.87342,-3.05414 -3.91561,-3.22868 -4.25611,-3.14141 -0.34049,-1.04714 0.17025,-2.61784 1.27683,-2.007 2.63878,-0.61084 2.55366,0.69812 2.63878,2.007 2.89416,1.91972 2.63878,1.57071 3.23463,0.0873 1.19172,0.17455 0.59585,1.39616 2.38342,1.39615 1.87269,2.79239 0.51073,1.91973 -0.42561,1.65798 -1.27683,0.52357 z"
         id="path5353"
         style="fill:#000000;fill-opacity:1;fill-rule:evenodd;stroke:#000000;stroke-width:0.72740239px;stroke-linecap:butt;stroke-linejoin:miter;stroke-opacity:1" />
      <path
         d="m 309.17855,310.28819 -1.53219,-0.87259 -2.63879,-3.22868 -3.06439,-4.62484 -3.74537,-4.10128 -2.55366,-4.45036 -0.34049,-2.007 0.68097,-0.52357 0.93635,2.18154 2.80902,3.31589 4.76684,4.10134 2.55367,2.007 2.21316,0.69805 1.70245,0.34909 0.76609,0.69804 0.42562,1.04714 -1.36195,0.43637 -1.27684,1.83245 0.0851,3.14141 z"
         id="path5355"
         style="fill:#000000;fill-opacity:1;fill-rule:evenodd;stroke:#000000;stroke-width:0.72740239px;stroke-linecap:butt;stroke-linejoin:miter;stroke-opacity:1" />
      <path
         d="m 337.75821,459.41466 -2.52799,-2.83834 -2.88914,-1.60429 -4.33371,-1.60428 -3.85218,-1.23406 -2.40762,-1.60429 -0.84266,-1.60428 1.80571,-0.74043 2.04647,-1.11066 1.9261,-1.48088 0.6019,-2.71494 -0.84267,-3.08516 -2.04647,-1.97449 -0.84267,-2.96176 0.24077,-2.96175 1.32419,-3.20857 1.68533,-1.85109 2.04647,-0.37022 3.12989,1.23407 3.85219,3.20856 2.64838,4.44263 3.1299,4.56603 3.49104,5.18307 1.08343,2.0979 -3.37066,0.86385 -3.00952,3.45537 -1.44457,4.44263 z"
         id="path5486"
         style="fill:#000000;fill-opacity:1;fill-rule:evenodd;stroke:#000000;stroke-width:0.72740239px;stroke-linecap:butt;stroke-linejoin:miter;stroke-opacity:1" />
      <path
         d="m 320.66414,448.92512 -0.84266,-2.83835 -0.24076,-4.56603 0.36114,-4.56603 0.36114,-1.85109 1.56495,0 1.56495,-0.37022 0.84267,2.59153 2.16685,2.34472 0.72229,2.59153 -0.48152,2.83835 -1.80572,1.9745 -3.7318,1.72768 z"
         id="path5488"
         style="fill:#000000;fill-opacity:1;fill-rule:evenodd;stroke:#000000;stroke-width:0.72740239px;stroke-linecap:butt;stroke-linejoin:miter;stroke-opacity:1" />
      <path
         d="m 323.19214,434.7334 -2.28723,0.49362 -3.37067,0.49362 -2.528,-0.37021 -3.00951,-2.71494 -1.20381,-1.9745 -1.44457,-3.08516 -0.36114,-3.949 0.84267,-2.22132 3.97256,-0.1234 4.09294,0 4.69486,1.72768 4.09295,2.59154 0.72228,1.23406 -1.32419,0.61704 -1.08343,1.35746 -1.44457,3.20857 z"
         id="path5490"
         style="fill:#000000;fill-opacity:1;fill-rule:evenodd;stroke:#000000;stroke-width:0.72740239px;stroke-linecap:butt;stroke-linejoin:miter;stroke-opacity:1" />
      <path
         d="m 311.75597,432.8823 -3.25028,0.74044 -1.9261,1.23406 -1.92609,0.98725 -2.04647,0.24681 -2.64838,0.12341 -2.88914,0 -1.56495,-1.48087 -0.24076,-0.24682 -1.32419,-2.0979 0.48153,-1.9745 0.96304,-1.11066 0.48152,-2.09791 0.72229,-2.34472 1.92609,-2.46813 2.16685,-1.72768 2.64838,-0.37022 4.09295,0.12341 2.16686,1.11065 -0.72229,2.22131 0.24076,3.20857 1.32419,2.71494 1.08343,1.97449 z"
         id="path5492"
         style="fill:#000000;fill-opacity:1;fill-rule:evenodd;stroke:#000000;stroke-width:0.72740239px;stroke-linecap:butt;stroke-linejoin:miter;stroke-opacity:1" />
      <path
         d="m 294.18038,434.23977 -3.97257,0.1234 -1.32419,-1.11065 -2.64838,-0.86384 -2.28723,-1.8511 -0.72229,-3.70219 0.6019,-3.20856 1.9261,-1.85109 3.1299,-2.09792 2.40762,-1.11065 4.09294,0.49363 0.96305,0.74043 2.04647,0.12341 1.80571,0.74044 -2.04647,1.85109 -1.80571,2.59153 -1.08343,4.19582 -0.84266,1.11066 -0.48153,2.0979 1.08343,1.72769 z"
         id="path5494"
         style="fill:#000000;fill-opacity:1;fill-rule:evenodd;stroke:#000000;stroke-width:0.72740239px;stroke-linecap:butt;stroke-linejoin:miter;stroke-opacity:1" />
      <path
         d="m 287.19829,432.8823 -3.25028,0.24681 -2.64838,-0.61703 -3.97256,-1.60428 -3.00952,-1.60428 -3.37067,-1.35747 -3.1299,-1.35747 -0.48152,-1.35747 0.12038,-1.9745 0,-2.09791 0,-2.71494 -0.36114,-2.34472 1.08342,0 2.04648,0.61703 3.00952,0.37022 3.49104,0.98725 2.76876,-0.1234 3.49104,-0.74044 2.04647,-0.86384 1.56495,0.24681 1.56496,0.98725 1.08342,1.48088 -0.24076,0.61702 -3.37066,2.09792 -1.80572,1.85109 -0.72228,3.45537 0.84267,3.33198 2.16685,2.0979 z"
         id="path5496"
         style="fill:#000000;fill-opacity:1;fill-rule:evenodd;stroke:#000000;stroke-width:0.72740239px;stroke-linecap:butt;stroke-linejoin:miter;stroke-opacity:1" />
      <path
         d="m 267.21508,424.86089 -1.44457,-1.11066 -2.16686,-2.22131 -3.00951,-3.20857 -1.56495,-1.35747 -0.84267,-2.59152 0,-3.08517 0.72229,-1.9745 1.20381,-1.23406 2.64837,-0.49362 0.84266,1.60428 -1.8057,0.1234 -0.36115,1.48088 -0.12038,1.9745 0.96305,1.35747 2.40761,1.35747 2.16685,0.86385 0.48153,1.85109 0,3.949 z"
         id="path5498"
         style="fill:#000000;fill-opacity:1;fill-rule:evenodd;stroke:#000000;stroke-width:0.72740239px;stroke-linecap:butt;stroke-linejoin:miter;stroke-opacity:1" />
      <path
         d="m 338.96202,522.8455 -3.85218,-2.96175 -2.40762,-1.11066 -1.92609,-0.37021 -2.40762,-0.24682 -3.12989,-0.24681 -2.40762,-0.74044 -1.32419,-1.9745 -0.36114,-1.72768 0.6019,0.49362 1.56495,0.74044 1.68533,0 1.44457,-0.61704 0.96305,-1.35747 0.12038,-1.48087 0,-2.96175 -1.80571,-5.67669 -0.84267,-3.949 -0.12038,-2.83835 1.32419,-1.60428 1.32419,-0.98725 2.04647,0.24681 2.40761,0.49362 1.80572,1.48088 2.28723,2.96175 3.97257,4.19582 3.00952,2.83834 1.56495,0.98725 -2.40761,2.09791 -1.32419,2.09791 -1.32419,3.33197 -0.12038,4.31922 z"
         id="path5641"
         style="fill:#000000;fill-opacity:1;fill-rule:evenodd;stroke:#000000;stroke-width:0.72740239px;stroke-linecap:butt;stroke-linejoin:miter;stroke-opacity:1" />
      <path
         d="m 321.02529,513.96025 -0.24076,-2.71494 0.6019,-1.48088 2.04647,-1.60428 1.32419,-0.37022 0.36115,-0.49363 1.32418,1.11066 1.20381,0.49363 -0.12038,1.35747 -0.48152,2.71494 -1.80571,1.60428 -2.04648,0.12341 z"
         id="path5643"
         style="fill:#000000;fill-opacity:1;fill-rule:evenodd;stroke:#000000;stroke-width:0.72740239px;stroke-linecap:butt;stroke-linejoin:miter;stroke-opacity:1" />
      <path
         d="m 325.11824,507.1729 -2.04648,-2.71493 -1.68533,-0.37023 -2.04648,0.37023 -2.28723,1.11065 -2.04648,2.59153 -2.28723,0.49362 -0.36114,-1.23405 1.44457,-0.24682 1.2038,-1.72769 -0.36114,-2.22131 -1.92609,-0.74044 -1.56495,-2.71494 -2.16685,-2.96175 -0.12038,-2.0979 1.32419,-1.97451 1.92609,-0.61703 2.04647,-0.61703 3.25028,-0.37022 2.64838,0 1.68533,0.86385 1.80571,0 2.40762,0.74043 0.84267,0.86385 -0.96305,0.61703 -1.20381,1.9745 0.24076,3.08516 0.84267,3.45537 1.92609,5.9235 -0.72228,0.12341 -0.60191,-0.37022 z"
         id="path5645"
         style="fill:#000000;fill-opacity:1;fill-rule:evenodd;stroke:#000000;stroke-width:0.72740239px;stroke-linecap:butt;stroke-linejoin:miter;stroke-opacity:1" />
      <path
         d="m 312.23749,507.1729 -2.16685,0 -3.00952,1.35747 -2.04648,0.86385 -2.88914,0.74043 -3.61142,0.24682 -2.16685,0.1234 -1.08343,-0.24681 0.12038,-4.19581 0.36114,-2.22132 0.72229,-1.85109 0.24076,-2.09791 -0.36114,-1.9745 0.36114,-1.35747 1.56495,-0.98725 3.1299,-1.23406 3.97257,-0.98725 3.1299,-0.98726 1.92609,0.12341 -1.32419,1.9745 -0.36114,2.34472 2.64837,2.71494 1.20381,2.71494 1.92609,0.74043 0.48152,1.97451 -1.2038,2.0979 -1.08343,0.24681 z"
         id="path5649"
         style="fill:#000000;fill-opacity:1;fill-rule:evenodd;stroke:#000000;stroke-width:0.72740239px;stroke-linecap:butt;stroke-linejoin:miter;stroke-opacity:1" />
      <path
         d="m 295.14342,509.76443 -1.92609,1.11066 -2.40762,0.49362 -2.28723,-0.37021 -0.60191,-0.74044 -0.6019,-3.08516 0,-3.82559 -0.24076,-3.57879 -0.36115,-1.85109 0.72229,-0.98726 1.44457,-0.86383 1.92609,0 2.64838,-0.24682 3.25028,0.12341 -0.12038,0.86384 -0.48153,1.11066 0.72229,1.85109 -0.36114,1.97451 -0.84267,2.59152 -0.36114,2.09791 z"
         id="path5651"
         style="fill:#000000;fill-opacity:1;fill-rule:evenodd;stroke:#000000;stroke-width:0.72740239px;stroke-linecap:butt;stroke-linejoin:miter;stroke-opacity:1" />
      <path
         d="m 288.16134,511.24531 -2.64838,0.49363 -3.73181,0.74043 -4.21332,0.24681 -4.45409,-0.86384 -4.81524,0.12341 -2.40761,-0.61704 -1.08343,-0.86384 0,-1.8511 -0.84266,-2.46812 -1.20381,-1.9745 -0.6019,-2.09791 0.84266,-0.86384 2.528,0.24681 4.09294,0.12341 1.32419,-0.12341 2.04648,-1.72769 3.49104,-0.98724 3.25028,-0.86385 4.09294,0 2.88914,0.24681 0.36115,3.70219 0.12038,4.44263 0.24076,2.46812 0.72229,1.72769 z"
         id="path5653"
         style="fill:#000000;fill-opacity:1;fill-rule:evenodd;stroke:#000000;stroke-width:0.72740239px;stroke-linecap:butt;stroke-linejoin:miter;stroke-opacity:1" />
      <path
         d="m 264.44632,510.38147 -1.92609,0.24681 -1.32419,-0.98725 -1.44457,-1.23407 -3.61142,-2.59153 -2.04648,-1.85109 -1.2038,-1.9745 -0.48153,-2.09791 0.48153,-1.48088 1.2038,-1.35747 1.68534,-0.74043 1.92609,-0.12341 0.84267,1.48088 -1.68534,0.24681 -0.84266,1.23406 0.36114,1.23407 0.84267,1.23406 1.80571,0.49362 1.92609,-0.1234 1.20381,0 0.48152,2.22131 1.44457,2.22131 0.72228,2.09791 z"
         id="path5655"
         style="fill:#000000;fill-opacity:1;fill-rule:evenodd;stroke:#000000;stroke-width:0.72740239px;stroke-linecap:butt;stroke-linejoin:miter;stroke-opacity:1" />
      <path
         d="m 345.70334,582.82097 -4.69484,-0.61703 -4.57447,0.49362 -3.61143,1.48088 -4.57447,0.1234 -4.69485,1.23407 -3.00952,1.23406 1.9261,1.35747 3.00952,1.72769 3.85218,2.71494 1.80571,2.96175 -1.08343,3.20856 -2.64837,2.83835 -2.88914,1.35747 -0.12038,1.35747 4.33371,-0.49362 2.88913,-0.24682 3.25028,-1.8511 3.25029,-0.98724 2.88914,0.1234 1.56495,1.11066 2.04647,0.49363 0.96304,-0.98726 0,-4.31922 0.12038,-4.56603 0.72229,-1.72769 -0.84267,-2.71494 0.60191,-4.31922 0,-0.98725 z"
         id="path5807"
         style="fill:#000000;fill-opacity:1;fill-rule:evenodd;stroke:#000000;stroke-width:0.72740239px;stroke-linecap:butt;stroke-linejoin:miter;stroke-opacity:1" />
      <path
         d="m 324.27557,602.44258 -3.1299,-0.37022 -4.33371,1.60428 -3.73181,0.98725 -2.04647,-0.37022 -1.80571,-1.9745 -1.44457,-3.08516 -0.24076,-3.949 0.36114,-4.56603 0.96305,-2.59154 1.32419,-0.49362 2.04647,0.24681 3.61142,0.24681 3.61143,-0.37021 1.92609,-0.24682 3.37066,1.8511 4.33371,2.96175 1.92609,3.20856 -1.08343,3.20856 -2.52799,2.83835 -3.1299,1.48087 z"
         id="path5809"
         style="fill:#000000;fill-opacity:1;fill-rule:evenodd;stroke:#000000;stroke-width:0.72740239px;stroke-linecap:butt;stroke-linejoin:miter;stroke-opacity:1" />
      <path
         d="m 310.67254,604.41707 -2.40761,0.24682 -3.00952,0 -2.76876,0.37022 -1.9261,0.37022 -2.528,0.86384 -0.12038,-2.96175 0.24077,-2.34472 -0.48153,-1.23406 -0.84266,-1.35747 -0.84267,-2.83835 -0.6019,-2.71494 0,-1.9745 0.72228,-1.48087 2.88914,0 2.64838,0.1234 3.37066,0.12341 1.68534,0.49362 1.2038,0.98725 -0.36114,3.08516 0.24076,4.81285 1.44457,3.33197 z"
         id="path5811"
         style="fill:#000000;fill-opacity:1;fill-rule:evenodd;stroke:#000000;stroke-width:0.72740239px;stroke-linecap:butt;stroke-linejoin:miter;stroke-opacity:1" />
      <path
         d="m 268.90041,607.50223 -1.80571,-0.61703 -2.88914,-1.72768 -3.25028,-2.59154 -3.37066,-2.83834 -2.16686,-1.8511 0,-1.35747 0.84267,-0.98725 1.56495,-0.49362 2.28724,0.24681 -2.04648,0.86385 0.24076,0.86384 2.64838,0.61703 2.64837,0.12341 3.00952,0.1234 1.68533,1.11066 1.32419,1.85109 0.24077,4.68944 z"
         id="path5815"
         style="fill:#000000;fill-opacity:1;fill-rule:evenodd;stroke:#000000;stroke-width:0.72740239px;stroke-linecap:butt;stroke-linejoin:miter;stroke-opacity:1" />
      <path
         d="m 297.67141,605.89795 -3.00951,0.49363 -4.09295,0.49362 -1.44457,-1.35747 0.48153,-3.45537 -0.36115,-3.70219 -0.36114,-3.94901 1.08343,-2.59152 2.28723,-0.12341 2.528,0.12341 0.6019,0.37021 0.72228,3.20856 0.60191,2.34473 1.32418,3.08515 -0.12038,2.34472 z"
         id="path5972"
         style="fill:#000000;fill-opacity:1;fill-rule:evenodd;stroke:#000000;stroke-width:0.72740239px;stroke-linecap:butt;stroke-linejoin:miter;stroke-opacity:1" />
      <path
         d="m 289.72629,606.8852 -2.40762,0.86385 -2.40762,0 -2.88914,-0.37022 -2.88913,0.49363 -3.1299,0.24681 -3.00952,0.1234 -2.76876,-0.24681 -1.56495,-0.37022 1.08343,-1.48088 0,-2.0979 0,-3.8256 -1.9261,-1.72769 -1.32419,-0.74043 1.80571,-0.86385 2.528,-0.24681 3.37067,-0.74044 3.61142,-0.12341 2.76875,-1.11065 3.00952,-1.35747 3.61143,-0.61704 2.16685,0.24682 -0.6019,1.48087 0.72228,7.40438 -0.48152,3.70219 z"
         id="path5974"
         style="fill:#000000;fill-opacity:1;fill-rule:evenodd;stroke:#000000;stroke-width:0.72740239px;stroke-linecap:butt;stroke-linejoin:miter;stroke-opacity:1" />
      <path
         d="m 356.33618,667.88559 -2.89415,0.17452 -2.46854,-0.78535 -2.97927,-0.61083 1.10658,-1.04714 0.25537,-2.18153 -0.51073,-3.31594 -2.21318,-2.70511 -2.80903,-0.52357 -2.89415,-1.13439 -1.10658,-1.22166 0,-1.65797 1.70244,-1.48344 2.89415,-0.52357 3.23463,0.17452 2.04294,-1.1344 1.9578,-1.13439 2.55367,-0.43631 2.38341,-0.26179 0.51073,3.66498 -1.44707,3.31594 0.42561,2.96689 1.5322,2.53058 0.51073,2.09427 -0.7661,2.53059 -0.17024,2.79236 z"
         id="path6135"
         style="fill:#000000;fill-opacity:1;fill-rule:evenodd;stroke:#000000;stroke-width:0.72740239px;stroke-linecap:butt;stroke-linejoin:miter;stroke-opacity:1" />
      <path
         d="m 347.39836,667.01297 -2.38342,1.1344 -2.12805,1.57071 -3.49,2.35606 -1.95781,0.34904 -1.87268,-0.43631 -2.72391,-1.04713 -2.55366,-2.35606 -0.85123,-1.65796 -0.59585,-3.40321 -0.25536,-2.35605 0.42561,-1.22166 1.61731,-1.57071 1.5322,-0.69809 1.87269,-0.69809 3.40488,-1.1344 2.97927,-0.61083 0.42561,0.52357 2.89415,1.13439 2.89415,0.43631 2.29829,2.87963 0.25537,3.05415 -0.17024,2.61785 z"
         id="path6137"
         style="fill:#000000;fill-opacity:1;fill-rule:evenodd;stroke:#000000;stroke-width:0.72740239px;stroke-linecap:butt;stroke-linejoin:miter;stroke-opacity:1" />
      <path
         d="m 335.39615,672.33592 -2.72391,1.48345 -2.97927,1.83249 -2.72391,1.22166 -2.55366,0.4363 -1.87268,-0.61082 -0.7661,-2.18154 -0.93634,-2.53059 -1.10659,-2.18153 -1.27683,-1.5707 0.42561,-1.83249 1.61732,-2.18154 1.44707,-1.22166 1.70244,-1.22166 1.27683,-0.34905 1.36196,-0.0873 1.78756,0 0.42562,0.26179 0.93633,5.23568 0.85123,1.74523 2.46854,2.35606 z"
         id="path6139"
         style="fill:#000000;fill-opacity:1;fill-rule:evenodd;stroke:#000000;stroke-width:0.72740239px;stroke-linecap:butt;stroke-linejoin:miter;stroke-opacity:1" />
      <path
         d="m 323.47906,677.22256 -1.27683,0.95988 -1.61732,0.4363 -2.12805,0.26179 -1.70245,0.87262 -1.27683,0 0.59586,-1.83249 -0.76609,-2.18154 -1.44708,-2.00702 -2.12806,-3.14141 -0.17024,-1.48344 0.85122,-0.78535 1.5322,-0.87262 0.85122,-1.04713 1.36195,-0.87262 1.5322,-0.26179 1.70244,0.17453 -0.34048,0.69809 -0.68098,2.18154 1.36195,1.30892 1.10659,1.91975 1.61731,5.06117 z"
         id="path6141"
         style="fill:#000000;fill-opacity:1;fill-rule:evenodd;stroke:#000000;stroke-width:0.72740239px;stroke-linecap:butt;stroke-linejoin:miter;stroke-opacity:1" />
      <path
         d="m 315.05198,680.01493 -2.21317,0.95988 -3.57514,0.61083 -3.57512,1.30892 -2.29829,0.61083 -3.14952,0.4363 -3.0644,0.43631 -2.7239,0 -1.61732,-0.34904 -3.0644,-2.09428 -2.46854,-1.39618 2.21318,-0.52357 2.29829,-1.65797 0.0851,-1.83249 -0.25537,-2.44332 1.36195,-0.78535 2.80903,-0.17452 4.08586,-0.0873 2.97927,-0.26179 1.70245,-1.30893 2.7239,-1.04713 2.7239,-0.95987 1.70244,-0.0873 -0.17024,1.22166 3.74538,5.32295 0.59585,1.65797 -0.42562,2.00701 z"
         id="path6145"
         style="fill:#000000;fill-opacity:1;fill-rule:evenodd;stroke:#000000;stroke-width:0.72740239px;stroke-linecap:butt;stroke-linejoin:miter;stroke-opacity:1" />
      <path
         d="m 286.87658,680.36397 -1.10659,-1.83249 -1.5322,-2.96689 -0.93634,-2.007 -0.25537,-2.18154 1.02146,-1.39618 1.02147,0.26178 -0.17024,1.57071 2.12805,0.87261 4.51146,1.39618 0.25537,4.01402 -2.21317,1.8325 z"
         id="path6147"
         style="fill:#000000;fill-opacity:1;fill-rule:evenodd;stroke:#000000;stroke-width:0.72740239px;stroke-linecap:butt;stroke-linejoin:miter;stroke-opacity:1" />
      <path
         d="m 395.32208,698.33984 -2.63878,3.22866 -2.97927,2.61785 -1.95781,2.61784 -4.59659,6.45735 -6.80977,12.04208 -0.68097,-0.34905 -0.7661,-0.87261 -1.5322,-5.41021 -2.12805,-5.672 -3.23464,3.05416 -5.53293,4.79938 -4.76684,3.92676 1.87269,0.43631 4.00073,-0.0873 2.55366,0.0873 1.95781,1.74522 0.7661,4.36308 0,5.32294 0.25536,1.65797 2.97928,-2.35605 3.0644,-2.44333 2.29829,-2.09427 2.29829,-2.2688 1.36195,-1.22166 1.95781,-3.14141 1.27683,-1.83249 -0.4256,-2.96689 1.53219,-4.45033 2.04293,-4.5376 0.93635,-2.2688 2.12804,-3.49046 2.38343,-2.53057 1.10658,-1.39619 1.10659,-1.83249 z"
         id="path6314"
         style="fill:#000000;fill-opacity:1;fill-rule:evenodd;stroke:#000000;stroke-width:0.72740239px;stroke-linecap:butt;stroke-linejoin:miter;stroke-opacity:1" />
      <path
         d="m 368.59375,738.21831 -1.95781,2.53058 -2.29829,4.5376 -1.87268,1.22166 -1.78756,0.26178 -3.91562,0 -4.17098,-0.17452 -3.23464,-0.43631 -0.34049,-2.61784 -0.93634,-2.53059 -1.27683,-1.91974 1.10658,-1.91976 2.63879,-3.75224 3.49,-3.31593 2.89416,-2.79237 2.04292,-1.74523 1.10659,-0.52357 3.91561,0 2.55366,0.34905 1.5322,1.65797 1.02146,5.32295 z"
         id="path6316"
         style="fill:#000000;fill-opacity:1;fill-rule:evenodd;stroke:#000000;stroke-width:0.72740239px;stroke-linecap:butt;stroke-linejoin:miter;stroke-opacity:1" />
      <path
         d="m 360.42204,746.94446 -2.46854,3.8395 -4.85196,5.41021 -3.66025,2.7051 -0.68097,0.34905 -1.95781,-1.83249 -2.2983,-3.31593 -2.97927,-2.00702 -2.38342,-1.91975 0.68098,-1.83249 3.14952,-3.4032 2.63878,-2.61784 2.38342,-1.48344 0.85122,2.00701 0.42561,3.22867 3.66024,0.52357 z"
         id="path6318"
         style="fill:#000000;fill-opacity:1;fill-rule:evenodd;stroke:#000000;stroke-width:0.72740239px;stroke-linecap:butt;stroke-linejoin:miter;stroke-opacity:1" />
      <path
         d="m 348.50495,759.5101 -2.12806,2.53059 -3.06439,3.40319 -2.04293,1.39618 -2.55366,1.30893 -1.70244,-1.48345 -0.93634,-2.70511 -1.78757,-3.05415 -1.87268,-1.13439 0.68097,-2.53058 1.5322,-2.09428 1.70244,-2.00701 3.14952,-2.61784 4.68171,3.05415 1.36196,2.09427 1.44707,1.91975 z"
         id="path6320"
         style="fill:#000000;fill-opacity:1;fill-rule:evenodd;stroke:#000000;stroke-width:0.72740239px;stroke-linecap:butt;stroke-linejoin:miter;stroke-opacity:1" />
      <path
         d="m 332.07639,760.12093 -1.70244,1.30892 -3.23464,2.09427 -1.87268,3.75225 -2.04294,3.05415 -1.9578,2.70511 1.1917,0.69808 0.7661,1.22167 -0.34048,2.26879 0.59585,1.83249 2.2983,0.43631 2.97927,-1.1344 2.7239,-1.74522 2.63879,-2.09428 1.44708,-1.91975 1.27683,-1.65797 1.27683,-1.48344 0.93634,-1.22166 -2.21317,-1.74523 -0.85122,-2.44333 -1.87269,-3.22867 z"
         id="path6322"
         style="fill:#000000;fill-opacity:1;fill-rule:evenodd;stroke:#000000;stroke-width:0.72740239px;stroke-linecap:butt;stroke-linejoin:miter;stroke-opacity:1" />
      <path
         d="m 320.75515,773.5592 -2.89414,2.26879 -1.1066,2.70511 1.02148,0.87261 2.80902,0.34905 2.80903,-0.61083 -0.68098,-1.8325 0.51073,-2.35605 -0.85122,-1.30892 -0.93634,-0.6981 z"
         id="path6324"
         style="fill:#000000;fill-opacity:1;fill-rule:evenodd;stroke:#000000;stroke-width:0.72740239px;stroke-linecap:butt;stroke-linejoin:miter;stroke-opacity:1" />
      <path
         d="m 434.34585,178.23477 1.32419,-3.20858 2.28724,-4.56599 -1.20381,-3.45538 -2.28723,-1.85108 -2.16686,-0.61703 -1.80571,1.85108 -2.528,4.68943 -1.2038,1.85109 2.52799,0 1.92609,3.94897 2.28724,1.35749 z"
         id="path4700-5"
         style="fill:#000000;fill-opacity:1;fill-rule:evenodd;stroke:#000000;stroke-width:0.72740239px;stroke-linecap:butt;stroke-linejoin:miter;stroke-opacity:1" />
      <path
         d="m 438.07766,169.96653 1.14362,-0.98726 0.54171,-1.48086 0.6621,-2.03616 -0.78248,-2.28303 -1.264,-1.60429 -1.92609,-0.67875 -1.80571,-0.30851 -1.08343,0.92554 -1.02324,1.85108 -0.36114,1.04898 1.98628,0.55531 1.62514,1.17234 0.96305,0.92562 0.90286,1.91273 z"
         id="path4702-4"
         style="fill:#000000;fill-opacity:1;fill-rule:evenodd;stroke:#000000;stroke-width:0.72740239px;stroke-linecap:butt;stroke-linejoin:miter;stroke-opacity:1" />
      <path
         d="m 434.94776,160.40259 0.6019,-2.09796 1.08343,-1.72765 0.84267,-1.04898 0.90285,-0.30851 1.44457,0.80218 1.56495,1.23406 1.32419,1.35742 0.42133,0.98726 -0.54171,2.09795 -1.08342,1.9128 -0.84267,1.11063 -0.30095,0.12343 -0.96305,-2.03624 -1.02324,-1.41913 z"
         id="path4704-9"
         style="fill:#000000;fill-opacity:1;fill-rule:evenodd;stroke:#000000;stroke-width:0.72740239px;stroke-linecap:butt;stroke-linejoin:miter;stroke-opacity:1" />
      <path
         d="m 443.31422,159.23017 0.96305,-0.86382 1.2038,-1.97452 0.42134,-1.66593 -0.48153,-1.41921 -1.32418,-1.3575 -2.04647,-1.66593 -1.08343,-0.37023 -1.38438,1.29577 -1.264,2.59155 -0.36114,1.41914 1.32419,0.30851 1.44457,1.23406 2.16685,1.9128 z"
         id="path4706-6"
         style="fill:#000000;fill-opacity:1;fill-rule:evenodd;stroke:#000000;stroke-width:0.72740239px;stroke-linecap:butt;stroke-linejoin:miter;stroke-opacity:1" />
      <path
         d="m 446.08298,153.6152 0.96304,-1.29577 0.90286,-1.97445 0.96305,-2.22132 -0.30095,-1.54257 -1.20381,-1.23413 -1.32419,-1.35742 -1.56495,0.18508 -1.08343,0.92554 -0.72228,1.60429 -0.90285,1.72773 -0.42134,1.60429 0.60191,0.24679 3.37065,2.90007 0.42134,0.74039 z"
         id="path4708-2"
         style="fill:#000000;fill-opacity:1;fill-rule:evenodd;stroke:#000000;stroke-width:0.72740239px;stroke-linecap:butt;stroke-linejoin:miter;stroke-opacity:1" />
      <path
         d="m 449.0925,147.07468 1.32419,-1.29577 1.44457,-2.46811 0.6019,-1.3575 -0.12038,-1.72765 -0.6019,-1.41921 -1.50476,-1.0489 -1.32419,-0.0619 -1.74552,1.97444 -0.90286,2.15968 -0.36114,2.09788 2.76876,2.59155 z"
         id="path4710-1"
         style="fill:#000000;fill-opacity:1;fill-rule:evenodd;stroke:#000000;stroke-width:0.72740239px;stroke-linecap:butt;stroke-linejoin:miter;stroke-opacity:1" />
      <path
         d="m 449.57402,137.44903 0.30095,-1.97452 0.78248,-1.54258 1.32419,-2.15959 1.14362,-0.37024 1.50476,0.4936 1.44457,1.35749 0.48152,1.60429 -1.08343,1.78937 -1.14361,1.78936 -1.38438,1.48093 -0.48153,0.30851 -0.78247,-1.60428 -1.32419,-0.86383 z"
         id="path4712-9"
         style="fill:#000000;fill-opacity:1;fill-rule:evenodd;stroke:#000000;stroke-width:0.72740239px;stroke-linecap:butt;stroke-linejoin:miter;stroke-opacity:1" />
      <path
         d="m 453.30583,131.21695 0.24076,-2.09788 1.02324,-1.72773 1.14362,-2.03616 1.2038,-0.61703 1.50476,0.0619 1.50476,0.74039 -0.12038,1.72772 -0.90285,2.59155 -1.20381,2.4064 -1.32419,1.29577 -0.78248,-0.92554 -1.08342,-0.92554 z"
         id="path4714-8"
         style="fill:#000000;fill-opacity:1;fill-rule:evenodd;stroke:#000000;stroke-width:0.72740239px;stroke-linecap:butt;stroke-linejoin:miter;stroke-opacity:1" />
      <path
         d="m 457.57935,124.42964 -0.0602,-1.97452 1.38438,-1.91281 1.80571,-1.9128 1.08343,-0.30851 1.20381,0.92554 1.14361,1.04898 -0.48152,1.23405 -1.32419,2.09789 -1.20381,1.23405 -1.08342,0.74047 -1.02324,-0.55531 z"
         id="path4716-1"
         style="fill:#000000;fill-opacity:1;fill-rule:evenodd;stroke:#000000;stroke-width:0.72740239px;stroke-linecap:butt;stroke-linejoin:miter;stroke-opacity:1" />
      <path
         d="m 463.83914,119.67849 1.86591,-1.35749 1.80571,-2.83835 0.6019,-1.97452 -0.90285,-1.0489 -1.56495,-0.98726 -1.38438,1.04897 -1.32419,2.09789 -0.60191,1.72765 -0.48152,1.97452 z"
         id="path4718-6"
         style="fill:#000000;fill-opacity:1;fill-rule:evenodd;stroke:#000000;stroke-width:0.72740239px;stroke-linecap:butt;stroke-linejoin:miter;stroke-opacity:1" />
      <path
         d="m 465.70505,111.34853 0.96304,-1.85108 1.08343,-2.34468 1.32419,-1.48093 1.62514,-0.30851 1.08343,0.43195 0.66209,1.35749 -0.54171,1.60429 -1.62514,2.22124 -1.38438,1.72772 -0.84267,0.67875 -0.90285,-1.04898 z"
         id="path4720-5"
         style="fill:#000000;fill-opacity:1;fill-rule:evenodd;stroke:#000000;stroke-width:0.72740239px;stroke-linecap:butt;stroke-linejoin:miter;stroke-opacity:1" />
      <path
         d="m 472.38618,106.47402 1.32419,-1.35749 1.98628,-2.03616 0.96305,-1.41921 -0.30095,-1.41914 -0.90286,-1.110689 -1.56495,-0.18508 -1.74552,1.789359 -1.68533,3.45538 -0.72229,1.29577 1.08343,-0.24679 0.96305,0.61702 z"
         id="path4722-6"
         style="fill:#000000;fill-opacity:1;fill-rule:evenodd;stroke:#000000;stroke-width:0.72740239px;stroke-linecap:butt;stroke-linejoin:miter;stroke-opacity:1" />
      <path
         d="m 474.97437,98.761101 1.08343,-1.789372 1.86589,-2.097882 1.50476,-1.048978 0.78248,-0.123435 0.6019,1.234057 0.90286,0.863899 -0.72229,1.665931 -1.98628,1.23406 -1.74552,1.11069 -0.66209,0.678749 -0.90286,-1.172409 z"
         id="path4724-2"
         style="fill:#000000;fill-opacity:1;fill-rule:evenodd;stroke:#000000;stroke-width:0.72740239px;stroke-linecap:butt;stroke-linejoin:miter;stroke-opacity:1" />
      <path
         d="m 481.95645,95.614237 1.74552,-1.357418 2.22705,-0.925617 1.50476,-0.863825 0.12038,-1.172339 -0.6019,-2.097882 -1.9261,0.185079 -2.34742,1.542571 -2.528,2.591549 0.66209,1.357492 z"
         id="path4726-7"
         style="fill:#000000;fill-opacity:1;fill-rule:evenodd;stroke:#000000;stroke-width:0.72740239px;stroke-linecap:butt;stroke-linejoin:miter;stroke-opacity:1" />
      <path
         d="m 487.9153,91.109959 1.38438,-0.555385 1.9261,-1.048904 2.16685,-1.357492 0.18057,-1.172339 -0.30095,-0.863899 -1.44457,-0.431876 -2.40762,1.17234 -2.40761,2.344752 0.48152,2.036164 z"
         id="path4728-7"
         style="fill:#000000;fill-opacity:1;fill-rule:evenodd;stroke:#000000;stroke-width:0.72740239px;stroke-linecap:butt;stroke-linejoin:miter;stroke-opacity:1" />
      <path
         d="m 415.29897,306.61709 -0.44195,5.3033 1.32583,4.04061 2.14657,3.4724 1.4521,1.19955 1.07329,-0.56821 1.01015,-2.20971 0.25254,-3.8512 -0.88389,-3.53554 -1.57836,-3.8512 -1.32583,-1.6415 -1.32582,0.0631 z"
         id="path16600"
         style="fill:#000000;fill-opacity:1;fill-rule:evenodd;stroke:#000000;stroke-width:1px;stroke-linecap:butt;stroke-linejoin:miter;stroke-opacity:1" />
      <path
         d="m 345.21963,315.07711 1.51523,0.75762 1.26269,0.88388 1.51523,2.90419 -0.44194,5.36644 -1.32583,4.67195 -1.57836,1.01015 -0.69448,-0.1894 -1.70463,-2.14657 -0.75762,-2.33598 0.25254,-7.82868 1.4521,-1.95717 0.44194,-0.94702 z"
         id="path16602"
         style="fill:#000000;fill-opacity:1;fill-rule:evenodd;stroke:#000000;stroke-width:1px;stroke-linecap:butt;stroke-linejoin:miter;stroke-opacity:1" />
      <path
         d="m 265.92458,269.1484 -6.13942,-0.2468 -1.44457,-0.74046 0.48153,-1.48086 0,-2.96178 -1.32419,-4.0724 -0.96305,-1.23406 1.20381,-1.11062 2.28724,-0.8639 4.21332,-0.24679 0,1.97452 2.64837,1.97452 1.32419,3.94896 -1.56495,4.19584 z"
         id="path5061-3"
         style="fill:#000000;fill-opacity:1;fill-rule:evenodd;stroke:#000000;stroke-width:0.72740239px;stroke-linecap:butt;stroke-linejoin:miter;stroke-opacity:1" />
      <path
         d="m 257.85907,268.53137 -1.68533,0.61703 -2.28724,0.24679 -0.24076,-2.09788 0.36114,-2.09795 -0.24076,-3.08515 -1.08343,-1.85108 -0.96304,-0.98726 1.56495,-0.86383 2.76876,-0.12343 1.08343,0.74046 1.68533,4.68943 0,2.83835 z"
         id="path5063-5"
         style="fill:#000000;fill-opacity:1;fill-rule:evenodd;stroke:#000000;stroke-width:0.72740239px;stroke-linecap:butt;stroke-linejoin:miter;stroke-opacity:1" />
      <path
         d="m 251.47889,259.76953 -1.9261,0.74039 0,2.22132 0.96305,3.94904 0.84267,1.48086 1.92609,0.49366 0.24076,-1.35749 0.36114,-2.09795 -0.24076,-3.20851 -0.96305,-1.72772 z"
         id="path5065-5"
         style="fill:#000000;fill-opacity:1;fill-rule:evenodd;stroke:#000000;stroke-width:0.72740239px;stroke-linecap:butt;stroke-linejoin:miter;stroke-opacity:1" />
      <path
         d="m 250.63622,268.28457 -2.40762,1.11062 -0.96304,-1.35749 -0.12038,-4.44256 -0.6019,-2.34475 1.92608,-0.86383 1.32419,0 -0.24076,2.83835 0.96305,3.57873 0.84267,1.23406 z"
         id="path5067-4"
         style="fill:#000000;fill-opacity:1;fill-rule:evenodd;stroke:#000000;stroke-width:0.72740239px;stroke-linecap:butt;stroke-linejoin:miter;stroke-opacity:1" />
      <path
         d="m 246.06175,261.62062 -3.25027,0.74039 0.12038,1.48093 0.48152,3.20857 0.96304,2.59148 0.84267,0.24687 1.08342,-0.37023 0.72229,-0.98726 0.12038,-1.60429 -0.12038,-2.59155 0,-1.48085 z"
         id="path5069-6"
         style="fill:#000000;fill-opacity:1;fill-rule:evenodd;stroke:#000000;stroke-width:0.72740239px;stroke-linecap:butt;stroke-linejoin:miter;stroke-opacity:1" />
      <path
         d="m 243.53376,269.64199 -1.80571,1.23406 -2.04648,0.74046 -2.16685,-0.61703 -0.48153,-1.60429 -0.6019,-3.08514 0.96305,-2.46811 2.64838,-0.86383 2.16685,-0.24687 0.48152,0 0.36115,2.71499 0.36114,1.97444 0.72228,1.97452 z"
         id="path5071-0"
         style="fill:#000000;fill-opacity:1;fill-rule:evenodd;stroke:#000000;stroke-width:0.72740239px;stroke-linecap:butt;stroke-linejoin:miter;stroke-opacity:1" />
      <path
         d="m 236.79243,270.62925 -2.64838,2.09796 -1.2038,1.23405 -1.56495,-0.61703 -0.72229,-1.23405 -0.84266,-3.70225 0.36114,-1.85108 2.04647,-0.74039 3.1299,-0.74047 1.68533,-0.61702 -0.72228,2.22131 z"
         id="path5073-9"
         style="fill:#000000;fill-opacity:1;fill-rule:evenodd;stroke:#000000;stroke-width:0.72740239px;stroke-linecap:butt;stroke-linejoin:miter;stroke-opacity:1" />
      <path
         d="m 230.17149,272.11018 -2.16685,1.97444 -1.68533,0.8639 -1.20381,-0.49366 -0.24076,-2.22132 -0.48152,-2.96171 -0.60191,-1.23413 0.72229,-0.49359 1.56495,-0.2468 1.80571,0 1.92609,0.2468 0,1.11069 0.48152,2.09788 z"
         id="path5075-5"
         style="fill:#000000;fill-opacity:1;fill-rule:evenodd;stroke:#000000;stroke-width:0.72740239px;stroke-linecap:butt;stroke-linejoin:miter;stroke-opacity:1" />
      <path
         d="m 224.63398,273.4676 -3.00952,2.22131 -3.12991,1.1107 -0.72228,-1.48093 -0.12038,-2.96171 -0.12038,-2.46811 1.56495,-0.74046 1.80571,-0.2468 3.00952,-0.2468 0.60191,0.98719 0.12038,2.46819 z"
         id="path5077-6"
         style="fill:#000000;fill-opacity:1;fill-rule:evenodd;stroke:#000000;stroke-width:0.72740239px;stroke-linecap:butt;stroke-linejoin:miter;stroke-opacity:1" />
      <path
         d="m 217.17036,275.44212 -3.00951,2.34475 -2.40762,-0.12344 -0.96304,-1.35749 -0.60191,-3.20858 2.28724,-0.86382 2.04647,-0.74039 2.04647,-1.1107 0.96305,0.2468 0,2.83835 z"
         id="path5079-0"
         style="fill:#000000;fill-opacity:1;fill-rule:evenodd;stroke:#000000;stroke-width:0.72740239px;stroke-linecap:butt;stroke-linejoin:miter;stroke-opacity:1" />
      <path
         d="m 210.79019,276.79961 -4.57447,2.22131 -2.28724,0 -0.6019,-1.48092 -0.48153,-1.97445 0.84267,-1.23406 2.528,-0.24687 2.88914,-0.24679 1.08342,0.12343 z"
         id="path5081-4"
         style="fill:#000000;fill-opacity:1;fill-rule:evenodd;stroke:#000000;stroke-width:0.72740239px;stroke-linecap:butt;stroke-linejoin:miter;stroke-opacity:1" />
      <path
         d="m 203.08581,278.89749 -4.93561,2.22132 -2.76875,0.49359 -1.68533,-1.72765 0.6019,-1.23406 1.68533,-0.98726 1.92609,-1.35749 2.40762,-0.49359 2.16685,-0.12344 0.48152,1.1107 z"
         id="path5083-1"
         style="fill:#000000;fill-opacity:1;fill-rule:evenodd;stroke:#000000;stroke-width:0.72740239px;stroke-linecap:butt;stroke-linejoin:miter;stroke-opacity:1" />
      <path
         d="m 192.85345,279.63795 -3.37066,1.23406 0.72228,1.35742 1.9261,0.37023 1.68533,-0.49359 1.80571,-0.49367 -2.04647,-1.85109 z"
         id="path5085-3"
         style="fill:#000000;fill-opacity:1;fill-rule:evenodd;stroke:#000000;stroke-width:0.72740239px;stroke-linecap:butt;stroke-linejoin:miter;stroke-opacity:1" />
    </g>
  </g>
</svg>
