<?xml version="1.0" standalone="no"?>
<!DOCTYPE svg PUBLIC "-//W3C//DTD SVG 20010904//EN"
 "http://www.w3.org/TR/2001/REC-SVG-20010904/DTD/svg10.dtd">
<svg version="1.0" xmlns="http://www.w3.org/2000/svg"
 width="1536.000000pt" height="573.000000pt" viewBox="0 0 1536.000000 573.000000"
 preserveAspectRatio="xMidYMid meet">
<metadata>
Created by potrace 1.16, written by Peter Selinger 2001-2019
</metadata>
<g transform="translate(0.000000,573.000000) scale(0.100000,-0.100000)"
fill="#000000" stroke="none">
<path d="M13757 5720 c-135 -14 -559 -86 -777 -131 -219 -45 -343 -76 -637
-155 -111 -30 -294 -74 -407 -99 -335 -72 -548 -124 -786 -190 -1467 -411
-1686 -475 -2315 -681 -740 -243 -1313 -444 -2072 -730 -298 -112 -584 -215
-634 -229 -88 -25 -364 -132 -594 -230 -60 -26 -238 -110 -395 -187 -157 -77
-337 -159 -400 -183 -168 -63 -197 -77 -285 -134 -44 -29 -123 -73 -175 -98
-52 -25 -205 -105 -340 -178 -135 -73 -398 -211 -585 -307 -187 -97 -460 -241
-608 -322 -393 -214 -969 -502 -1152 -576 -229 -92 -276 -117 -805 -429 -135
-79 -240 -161 -318 -247 -37 -41 -85 -86 -107 -99 -57 -34 -138 -121 -248
-266 -120 -160 -123 -165 -106 -196 32 -60 90 -65 349 -28 96 14 270 34 385
45 116 12 239 25 275 31 134 21 509 113 615 151 61 22 209 68 330 104 377 111
508 160 743 278 113 57 350 162 722 321 112 48 326 131 475 185 303 109 381
142 710 298 127 60 246 114 265 120 19 6 82 16 139 22 169 18 278 51 446 135
106 53 206 93 340 136 315 101 663 206 780 233 60 14 438 127 840 250 401 124
888 273 1080 331 193 58 404 124 470 145 247 80 1026 349 1170 405 215 82 271
101 449 151 88 25 257 77 375 115 812 264 1637 505 1806 527 39 5 120 29 180
52 61 23 193 70 295 105 249 85 326 116 449 182 57 30 192 93 300 139 108 47
261 121 340 167 135 78 146 86 195 153 l51 71 89 8 c234 18 401 105 554 285
70 84 132 197 132 243 0 96 -112 198 -275 250 -95 31 -181 38 -325 25 -122
-10 -153 -9 -330 11 -217 25 -535 35 -673 21z"/>
</g>
</svg>
