<?xml version="1.0" encoding="UTF-8" standalone="no"?>
<!-- Created with Inkscape (http://www.inkscape.org/) -->

<svg
   xmlns:svg="http://www.w3.org/2000/svg"
   xmlns="http://www.w3.org/2000/svg"
   version="1.0"
   width="1600pt"
   height="600pt"
   viewBox="0 0 1600 600"
   id="svg2">
  <defs
     id="defs12" />
  <g
     transform="matrix(0.1,0,0,-0.1,0,600)"
     id="g6"
     style="fill:#000000;stroke:none">
    <path
       d="m 2087,5566 c -91,-33 -171,-126 -255,-298 -53,-109 -60,-118 -97,-132 -77,-28 -280,-113 -315,-131 -19,-10 -111,-63 -205,-118 -202,-119 -185,-109 -185,-103 0,8 121,160 142,179 12,10 18,20 15,23 -8,8 -70,-51 -132,-126 -32,-39 -59,-69 -61,-67 -5,4 151,350 172,382 26,39 10,41 -20,2 -25,-33 -196,-377 -211,-425 -4,-13 -9,-22 -11,-20 -5,6 82,339 100,383 8,19 11,35 5,35 -17,0 -48,-86 -95,-264 -28,-102 -53,-176 -62,-184 -15,-12 -18,-6 -23,60 -4,40 -7,109 -8,152 0,44 -4,76 -8,72 -5,-5 -8,-76 -8,-159 0,-105 -3,-151 -12,-154 -6,-2 -15,6 -18,19 -20,64 -47,128 -55,128 -4,0 3,-37 16,-82 28,-97 19,-116 -33,-66 -40,39 -53,32 -18,-10 l 26,-31 -48,-21 C 657,4598 597,4577 550,4564 205,4464 80,4398 80,4316 c 0,-31 36,-84 71,-105 60,-37 115,-36 529,4 85,8 159,15 163,15 4,0 5,-16 1,-36 -8,-45 11,-39 21,6 10,45 23,36 42,-30 10,-33 22,-60 26,-60 8,0 0,60 -14,98 -21,55 -3,43 86,-58 44,-49 85,-90 92,-90 8,0 -20,42 -61,93 -69,86 -73,92 -51,95 17,2 46,-15 100,-57 79,-63 114,-86 121,-78 2,2 -32,33 -77,68 -91,72 -87,89 11,45 72,-33 100,-33 40,-1 -43,23 -43,24 -17,25 38,0 95,-27 108,-53 16,-28 5,-81 -25,-120 -33,-43 -83,-153 -96,-212 -12,-52 -4,-95 16,-95 8,0 14,-9 14,-20 0,-31 44,-70 78,-70 17,0 55,17 90,40 112,72 120,74 217,75 117,0 257,-44 380,-119 104,-63 318,-229 403,-314 67,-65 236,-184 309,-216 l 43,-19 -43,-46 c -51,-55 -75,-113 -117,-281 -36,-145 -49,-314 -31,-399 22,-104 158,-302 255,-373 53,-38 122,-38 84,1 -7,6 13,1 45,-13 88,-40 82,-45 104,92 4,24 9,31 22,28 9,-3 38,-8 65,-12 55,-8 68,3 55,45 -5,14 -11,42 -14,62 -3,20 -23,65 -44,100 -29,49 -41,82 -49,141 -7,42 -18,96 -26,120 -12,33 -13,52 -4,85 13,52 48,85 138,126 78,37 151,80 202,120 23,17 45,26 55,23 10,-3 94,-10 187,-16 145,-9 212,-7 465,11 163,11 324,26 358,33 l 62,12 62,-104 c 120,-204 262,-373 623,-742 116,-119 237,-249 268,-291 56,-73 58,-78 73,-175 22,-147 19,-254 -10,-368 -28,-111 -45,-143 -112,-207 -49,-47 -143,-109 -166,-109 -6,0 -35,-13 -63,-29 -55,-32 -109,-93 -149,-166 -38,-73 -31,-157 11,-115 14,14 71,-41 76,-72 3,-26 36,-37 49,-16 6,9 32,13 83,14 73,0 75,-1 78,-25 4,-31 38,-40 58,-16 9,10 31,15 75,15 46,0 90,9 162,34 54,19 126,41 160,50 70,17 135,54 157,88 8,13 24,48 36,78 12,30 38,89 59,130 41,81 74,181 90,270 5,30 19,87 30,125 30,99 48,194 61,315 6,58 18,151 26,208 34,219 19,341 -47,396 -16,14 -29,30 -29,37 0,7 -27,58 -59,113 -33,56 -78,153 -101,216 -23,63 -58,150 -78,192 l -38,77 49,33 c 134,91 254,149 338,163 31,5 66,15 191,50 25,7 105,24 178,36 121,21 139,22 238,10 291,-34 425,-66 656,-158 178,-70 549,-250 703,-341 493,-290 741,-423 968,-517 214,-88 349,-141 475,-185 74,-26 194,-68 265,-94 230,-81 725,-194 1010,-231 72,-9 191,-25 265,-36 224,-32 374,-47 865,-83 259,-20 526,-40 595,-46 231,-19 423,-31 655,-41 127,-5 277,-14 335,-19 58,-5 344,-14 635,-20 545,-11 671,-8 960,25 72,9 170,20 218,26 109,12 188,41 238,86 42,38 51,79 24,106 -38,38 -99,42 -765,42 -418,1 -694,5 -785,13 -227,20 -618,60 -945,98 -168,19 -381,43 -475,54 -93,11 -222,26 -285,35 -63,8 -200,26 -305,40 -233,31 -295,43 -555,106 -218,54 -1187,367 -1360,440 -110,47 -421,206 -547,280 -143,85 -508,333 -591,402 -82,68 -411,288 -752,503 -113,70 -288,184 -390,252 -238,160 -677,442 -803,516 -120,70 -342,177 -417,201 -30,9 -93,32 -140,50 -186,73 -620,192 -910,249 -431,85 -683,114 -1120,127 -406,13 -595,7 -765,-21 -120,-19 -708,-146 -819,-176 -58,-16 -58,-16 -85,8 -40,38 -167,127 -207,145 -24,12 -33,22 -29,32 37,95 47,278 20,369 -48,160 -229,188 -409,62 -51,-36 -56,-37 -56,-19 0,34 -32,78 -63,89 -17,5 -30,10 -31,10 -1,-1 -18,-7 -39,-14 z"
       id="path8" />
  </g>
</svg>
