<?xml version="1.0" standalone="no"?>
<!DOCTYPE svg PUBLIC "-//W3C//DTD SVG 20010904//EN"
 "http://www.w3.org/TR/2001/REC-SVG-20010904/DTD/svg10.dtd">
<svg version="1.0" xmlns="http://www.w3.org/2000/svg"
 width="622.000000pt" height="1536.000000pt" viewBox="0 0 622.000000 1536.000000"
 preserveAspectRatio="xMidYMid meet">
<metadata>
Created by potrace 1.16, written by Peter Selinger 2001-2019
</metadata>
<g transform="translate(0.000000,1536.000000) scale(0.100000,-0.100000)"
fill="#000000" stroke="none">
<path d="M2335 15347 c-27 -6 -55 -18 -62 -26 -99 -130 -202 -282 -233 -346
-22 -46 -90 -247 -159 -470 -66 -214 -140 -446 -164 -515 -74 -211 -120 -551
-97 -720 6 -47 15 -116 20 -155 11 -91 57 -333 71 -374 8 -22 26 -41 63 -61
28 -17 59 -30 69 -30 10 0 68 -21 129 -47 101 -43 114 -51 140 -92 26 -42 27
-46 11 -63 -10 -11 -30 -18 -54 -18 -35 0 -42 -6 -112 -89 -188 -224 -241
-341 -258 -573 -9 -125 -8 -148 11 -252 16 -83 21 -141 18 -208 -4 -87 -8
-104 -70 -258 -36 -91 -70 -186 -76 -211 -25 -100 -33 -293 -30 -644 l4 -360
37 -105 c50 -141 60 -211 45 -331 -14 -117 4 -701 26 -819 8 -41 35 -140 61
-220 26 -79 53 -186 61 -238 14 -103 36 -141 131 -234 72 -71 127 -91 248 -93
162 -3 165 -11 68 -146 -94 -131 -207 -319 -243 -405 -36 -88 -60 -224 -57
-324 3 -104 -11 -124 -168 -242 -177 -133 -226 -192 -256 -314 -7 -27 -37 -94
-67 -149 -118 -218 -182 -357 -221 -481 -21 -71 -60 -174 -86 -229 -31 -68
-55 -141 -75 -230 -18 -80 -37 -139 -50 -155 -46 -57 -53 -75 -75 -202 -13
-73 -35 -200 -50 -283 -37 -210 -98 -599 -125 -795 -21 -152 -26 -169 -55
-210 -96 -133 -122 -229 -141 -505 -20 -304 -39 -462 -73 -622 -17 -76 -35
-169 -42 -208 -15 -91 -42 -163 -84 -223 -39 -57 -58 -109 -79 -218 -33 -168
-96 -428 -132 -544 -36 -116 -37 -124 -26 -179 17 -80 15 -97 -14 -224 -14
-62 -28 -142 -30 -179 -2 -46 -11 -83 -28 -116 -123 -243 -30 -473 227 -561
258 -89 471 -12 584 212 23 47 51 136 84 271 66 267 83 323 134 441 30 70 60
171 99 340 32 132 66 263 76 290 23 58 94 293 105 345 4 19 49 175 100 345 97
320 156 530 196 695 20 85 23 121 24 330 1 179 5 252 17 305 9 39 19 97 23
130 3 33 26 150 51 260 25 110 55 247 66 305 30 157 290 1080 340 1210 20 51
86 155 94 148 2 -2 -1 -82 -7 -178 -5 -96 -11 -256 -13 -356 -3 -131 -9 -211
-25 -290 -11 -60 -36 -199 -55 -310 -20 -110 -56 -299 -82 -420 -25 -120 -50
-266 -54 -324 -8 -100 -75 -378 -155 -639 -14 -46 -25 -92 -25 -102 0 -11 -11
-42 -25 -69 -14 -27 -25 -65 -25 -85 0 -19 -14 -76 -31 -127 -36 -108 -36
-100 37 -421 49 -211 77 -277 118 -277 47 0 96 -21 96 -40 0 -29 14 -25 52 14
18 18 80 73 138 122 58 49 153 138 213 197 129 129 130 131 302 553 70 170
178 414 241 543 99 201 119 251 144 355 16 67 55 213 85 326 66 243 135 527
177 735 27 136 31 176 38 435 11 382 28 596 51 634 15 24 16 32 5 40 -11 9
-12 34 -6 116 4 58 8 93 8 79 3 -38 39 -153 72 -226 18 -40 25 -65 18 -69 -7
-4 -6 -9 2 -14 24 -15 283 -733 294 -815 11 -79 17 -106 25 -101 9 6 55 -180
47 -192 -3 -5 21 -88 53 -185 45 -134 59 -189 59 -234 0 -89 49 -383 88 -528
21 -75 50 -229 70 -365 58 -398 137 -755 203 -918 21 -53 67 -205 101 -337 73
-282 106 -386 205 -635 192 -485 363 -832 500 -1017 35 -48 75 -109 88 -137
13 -28 45 -94 71 -147 74 -152 154 -220 303 -255 85 -20 182 -14 246 14 98 44
252 223 284 331 19 68 14 152 -17 241 -23 66 -103 236 -357 765 -80 165 -146
310 -148 322 -4 27 -211 528 -232 561 -8 13 -32 99 -53 190 -22 92 -44 182
-49 201 -6 18 -20 99 -31 180 -12 80 -35 196 -51 256 -40 150 -109 490 -109
535 0 24 -10 51 -26 76 -15 21 -37 67 -51 102 -20 55 -22 69 -12 104 14 55 3
127 -34 218 -28 68 -31 88 -37 225 -5 130 -11 167 -42 280 -20 72 -41 175 -46
231 -11 117 -104 439 -155 539 -31 61 -56 166 -56 240 -1 25 -22 94 -56 178
-30 75 -55 144 -55 152 0 8 -48 111 -106 228 -114 226 -236 414 -338 519 -30
31 -94 80 -141 109 -47 29 -89 57 -92 62 -3 5 -7 27 -8 50 -2 23 -7 77 -10
120 -4 57 -19 117 -54 216 -89 252 -148 359 -263 474 -102 102 -94 124 62 165
164 44 253 99 312 191 59 93 159 472 178 675 9 100 1 252 -15 307 -5 14 -8 67
-19 315 -2 43 -10 73 -29 105 -59 102 -57 161 8 239 19 23 31 47 29 57 -3 10
4 65 15 122 l21 104 -21 225 c-20 230 -85 653 -115 752 -24 81 -66 159 -124
231 -29 35 -60 81 -71 101 -25 49 -24 117 3 175 17 37 22 65 22 142 1 127 -22
199 -130 415 -135 268 -199 349 -324 408 -64 31 -69 35 -69 66 -1 17 4 32 10
32 7 0 9 12 7 32 l-5 32 28 -33 27 -33 45 31 c37 25 56 31 99 31 94 0 126 15
203 93 39 40 85 99 102 132 69 131 87 452 45 790 -12 94 -24 226 -28 295 -3
69 -14 197 -24 285 -10 88 -26 234 -34 325 -18 187 -27 241 -63 393 -21 90
-33 120 -73 181 -27 39 -61 78 -75 86 -15 8 -37 26 -49 40 -15 18 -50 35 -111
54 -86 27 -100 29 -315 31 -125 2 -247 8 -275 15 -68 15 -426 21 -490 7z
m1164 -8839 c0 -13 -6 -50 -14 -83 l-13 -60 -1 83 c-1 67 2 82 14 82 9 0 15
-9 14 -22z"/>
</g>
</svg>
