<?xml version="1.0" standalone="no"?>
<!DOCTYPE svg PUBLIC "-//W3C//DTD SVG 20010904//EN"
 "http://www.w3.org/TR/2001/REC-SVG-20010904/DTD/svg10.dtd">
<svg version="1.0" xmlns="http://www.w3.org/2000/svg"
 width="1536.000000pt" height="940.000000pt" viewBox="0 0 1536.000000 940.000000"
 preserveAspectRatio="xMidYMid meet">
<metadata>
Created by potrace 1.16, written by Peter Selinger 2001-2019
</metadata>
<g transform="translate(0.000000,940.000000) scale(0.100000,-0.100000)"
fill="#000000" stroke="none">
<path d="M7199 9389 c-93 -10 -200 -34 -239 -54 -70 -36 -119 -113 -121 -187
0 -39 -2 -36 -20 36 l-19 80 32 34 33 34 -95 -7 c-301 -22 -692 -103 -922
-191 -160 -61 -192 -84 -226 -164 -17 -41 -20 -43 -30 -24 -9 17 -6 27 15 57
15 21 24 40 21 43 -14 13 -376 -99 -558 -173 -234 -94 -482 -237 -520 -298
-11 -19 -24 -52 -28 -75 l-7 -41 -17 28 c-16 27 -16 31 2 71 14 31 16 42 6 42
-23 0 -194 -88 -304 -156 -259 -162 -638 -476 -662 -549 -6 -19 -18 -35 -26
-35 -19 0 -18 14 6 60 13 25 16 40 9 40 -22 0 -274 -127 -364 -183 -49 -31
-121 -81 -160 -112 -120 -96 -277 -247 -291 -282 -18 -42 -17 -113 1 -137 13
-17 7 -24 -88 -89 -184 -126 -351 -318 -515 -590 -103 -171 -318 -611 -338
-691 -6 -26 -5 -28 12 -22 10 4 -46 -58 -126 -139 -125 -125 -157 -152 -230
-190 -90 -47 -200 -128 -200 -146 0 -7 8 -6 23 3 47 30 166 98 172 98 4 0 -35
-44 -86 -97 -51 -54 -111 -123 -134 -155 -47 -63 -126 -212 -145 -273 -9 -27
-40 -69 -99 -130 -48 -49 -98 -105 -110 -123 -44 -63 -12 -44 65 37 114 121
155 145 71 42 -119 -145 -291 -417 -376 -592 -99 -206 -130 -301 -82 -256 8 6
0 -8 -16 -33 -85 -126 -242 -501 -243 -578 0 -12 -6 -25 -13 -28 -17 -6 -91
-94 -84 -100 2 -3 19 8 38 23 28 23 32 25 25 8 -4 -11 -10 -36 -13 -55 -4 -19
-21 -57 -40 -85 -38 -58 -44 -84 -8 -40 23 28 22 23 -10 -55 -19 -47 -35 -93
-35 -103 0 -10 -13 -38 -30 -62 -38 -56 -38 -67 0 -30 l30 29 -17 -50 c-9 -27
-27 -65 -40 -84 -29 -43 -30 -59 -2 -34 22 19 22 19 14 -6 -4 -14 -20 -44 -36
-67 -36 -51 -37 -64 -3 -32 l25 24 -7 -55 c-4 -30 -15 -67 -25 -82 -25 -34
-24 -46 1 -23 19 17 19 16 13 -21 -3 -22 -12 -51 -19 -66 -19 -36 -18 -58 1
-34 14 18 15 18 15 2 0 -9 -7 -30 -15 -46 -8 -16 -12 -35 -9 -43 3 -9 -2 -29
-10 -46 -22 -41 -20 -51 5 -21 l20 25 -4 -50 c-3 -27 -8 -61 -11 -75 -7 -24
-7 -24 9 3 20 34 29 34 44 1 15 -34 25 -25 11 10 -5 15 -10 44 -10 64 1 35 2
36 15 18 18 -24 19 -14 4 29 -7 19 -9 44 -4 61 7 29 7 29 18 7 17 -38 28 -26
12 13 -17 41 -20 100 -5 109 5 3 10 17 10 31 0 16 4 23 11 18 8 -4 9 0 4 15
-3 11 -3 42 1 67 7 46 7 46 21 23 14 -23 14 -23 8 11 -8 51 -8 60 8 115 l15
50 12 -28 c20 -42 32 -32 14 12 -14 35 -14 43 4 95 10 31 22 59 25 62 3 4 14
-10 23 -30 23 -48 39 -47 18 2 -10 20 -17 49 -16 64 1 31 61 188 72 188 3 0
17 -23 30 -50 31 -66 46 -64 19 2 -11 29 -23 60 -25 68 -3 8 6 44 20 80 23 61
25 63 34 40 5 -14 13 -41 17 -60 4 -19 11 -42 16 -50 14 -25 10 39 -6 99 -9
34 -11 59 -5 66 5 6 23 47 41 90 49 125 167 404 196 465 24 51 26 53 36 33 27
-59 55 -34 151 138 101 179 332 565 420 702 67 103 79 117 103 117 16 0 43 9
61 20 59 36 650 549 792 686 l137 133 28 -29 29 -30 -24 -33 c-67 -89 -92
-136 -120 -223 -35 -109 -35 -111 -15 -116 12 -2 5 -21 -31 -82 -36 -62 -50
-99 -65 -175 -11 -53 -38 -163 -61 -246 -48 -170 -51 -213 -30 -442 13 -136
12 -145 -8 -210 -11 -37 -23 -95 -26 -128 -4 -59 -4 -59 19 33 14 51 26 95 29
97 2 3 16 -59 29 -138 24 -137 24 -144 8 -197 -20 -66 -34 -156 -20 -125 6 11
18 47 27 80 11 38 19 53 21 40 14 -66 46 -157 67 -188 24 -34 24 -38 10 -89
-7 -29 -14 -60 -14 -67 0 -27 17 3 30 52 7 26 15 47 19 47 4 0 28 -44 55 -98
26 -53 61 -116 77 -140 l29 -42 -16 -60 c-23 -92 -11 -106 16 -17 13 43 27 80
31 82 4 3 22 -30 39 -72 18 -43 38 -85 46 -94 9 -10 14 -40 14 -82 0 -38 4
-67 10 -67 6 0 10 30 10 70 0 76 10 87 36 38 36 -70 53 -136 43 -170 -11 -41
-11 -51 0 -44 5 3 12 18 16 33 15 61 26 58 77 -22 27 -42 48 -87 48 -103 0
-15 4 -38 8 -52 6 -22 8 -19 12 19 5 42 6 44 22 27 10 -9 22 -25 27 -34 5 -9
13 -14 16 -10 4 4 -2 23 -14 43 -11 20 -21 42 -21 49 0 7 -22 45 -49 84 -28
40 -47 72 -43 72 4 0 25 -12 45 -26 51 -34 59 -24 11 13 -47 35 -77 65 -134
134 l-45 54 40 -25 c22 -13 50 -30 63 -38 12 -8 25 -12 28 -10 6 7 -81 71
-118 88 -25 12 -34 25 -65 100 l-15 35 41 -39 c22 -22 44 -36 48 -33 4 4 -21
34 -55 67 -34 32 -62 67 -62 77 0 10 -29 76 -65 147 -35 71 -63 131 -61 133 5
5 54 -58 101 -129 21 -32 42 -58 47 -58 9 0 -18 55 -56 113 -20 30 -12 36 16
10 10 -9 21 -14 24 -11 7 8 -75 86 -96 93 -13 4 -20 29 -29 108 -25 212 -42
290 -100 467 -34 100 -64 198 -67 218 -6 32 -5 34 12 28 10 -5 38 -10 60 -13
39 -5 42 -4 53 27 6 18 11 65 11 104 l0 70 45 -44 c25 -24 45 -41 45 -36 0 10
-36 63 -66 96 -21 24 -22 29 -13 120 4 52 11 112 15 133 l6 39 30 -29 c16 -15
39 -43 50 -61 11 -18 22 -31 25 -28 7 7 -35 83 -67 120 l-30 34 25 76 c14 42
25 97 25 121 0 44 0 45 34 45 32 0 35 2 45 48 7 27 28 67 49 93 49 61 216 209
235 209 40 0 44 -9 39 -84 -3 -46 2 -103 12 -155 l17 -81 -27 -46 c-33 -57
-26 -68 10 -14 33 50 40 51 20 4 -21 -51 -12 -65 10 -15 25 54 35 52 28 -5 -3
-34 -2 -45 7 -40 6 4 11 18 11 32 0 32 17 64 33 64 25 0 119 73 248 194 l133
124 82 22 c45 11 187 54 315 95 129 40 235 72 237 71 7 -7 -229 -198 -308
-249 -202 -130 -306 -271 -346 -467 -16 -79 -15 -214 1 -241 4 -5 27 32 52 82
57 114 104 162 223 229 203 113 454 284 592 402 65 57 67 57 56 26 -7 -20 -92
-114 -222 -247 -356 -361 -553 -531 -619 -531 -22 0 -28 -4 -23 -16 3 -9 6
-17 6 -20 0 -12 66 -34 105 -34 129 0 426 151 590 300 127 115 175 137 378
170 94 15 208 33 252 38 132 18 365 93 521 169 129 63 214 157 214 237 l0 34
58 -15 c76 -20 173 -14 209 13 19 14 40 51 65 114 21 51 39 94 40 96 2 1 62
-47 133 -107 79 -66 158 -123 200 -144 81 -39 104 -71 181 -243 25 -53 58
-116 74 -138 16 -23 27 -44 23 -47 -3 -4 -26 11 -50 33 -47 41 -121 64 -187
59 -27 -3 -42 5 -81 39 -110 97 -218 104 -445 29 -315 -104 -595 -236 -827
-390 -354 -234 -801 -601 -959 -787 -60 -70 -150 -241 -180 -339 -16 -54 -20
-60 -50 -66 -40 -7 -108 -34 -102 -41 3 -2 28 3 57 12 74 22 84 13 23 -22 -66
-37 -68 -53 -2 -19 28 14 50 23 50 19 0 -3 -25 -32 -57 -65 -31 -32 -52 -59
-46 -59 5 0 22 13 38 30 57 59 57 22 1 -65 -18 -27 -41 -62 -50 -77 -33 -50 0
-29 37 23 l36 51 5 -33 c3 -19 10 -77 16 -128 14 -120 39 -168 145 -280 204
-214 466 -354 788 -423 152 -32 447 -31 447 1 0 5 -17 15 -37 22 -122 39 -497
200 -608 260 -274 149 -464 295 -478 368 -9 43 -9 219 -1 261 7 31 8 32 48 26
59 -10 72 -26 52 -64 -22 -42 -21 -66 2 -57 9 4 42 9 73 12 53 5 56 4 82 -27
15 -17 27 -36 27 -43 0 -6 10 -1 23 11 12 11 35 25 50 31 43 17 195 13 393 -9
279 -31 400 -23 519 34 27 13 65 29 84 35 71 23 181 125 346 321 43 52 148
166 232 252 171 177 281 309 319 383 25 48 26 48 20 15 -15 -89 -76 -174 -340
-475 -143 -162 -263 -295 -267 -295 -12 0 -116 -162 -144 -224 -14 -31 -25
-70 -25 -86 0 -62 34 -38 255 178 116 114 284 277 371 362 312 303 563 616
614 764 l16 49 42 -38 c52 -46 55 -33 6 24 -33 38 -35 45 -25 67 16 36 13 95
-6 116 -10 12 -13 22 -7 28 6 6 26 -12 54 -52 43 -59 156 -168 174 -168 5 0
-25 35 -66 79 -42 43 -88 99 -103 124 l-27 46 34 40 c18 22 35 38 39 35 4 -2
9 -23 13 -46 11 -66 39 -155 44 -136 2 10 -4 53 -13 95 -19 94 -32 263 -19
263 5 0 24 -22 41 -48 35 -51 123 -145 130 -138 2 2 -28 46 -68 97 -85 111
-103 149 -179 379 -31 96 -74 208 -94 248 -38 76 -104 157 -136 167 -10 3 -24
21 -30 39 -6 18 -27 52 -46 75 l-35 41 23 8 c199 72 210 75 219 61 5 -8 9 -25
9 -39 0 -14 13 -91 30 -171 21 -107 46 -189 94 -312 36 -92 74 -184 85 -206
30 -58 78 -72 167 -46 20 6 22 2 26 -57 8 -87 46 -198 127 -363 l69 -140 5
-130 c8 -165 28 -269 66 -342 17 -32 31 -63 31 -69 0 -6 17 -18 38 -27 20 -9
60 -35 87 -57 28 -23 140 -86 250 -140 l200 -99 125 -137 124 -136 130 -64
c71 -35 137 -64 147 -64 24 0 37 -19 78 -120 21 -49 40 -87 44 -84 7 7 -18 92
-43 151 -11 24 -16 43 -12 43 4 0 45 -7 92 -15 47 -9 137 -18 200 -22 104 -6
114 -5 102 10 -26 30 -183 88 -379 137 -26 6 -43 17 -43 25 0 8 -13 29 -29 47
l-29 33 112 -2 c61 -1 113 -2 116 -2 3 -1 41 -30 85 -66 43 -35 81 -62 84 -59
7 7 -88 102 -136 135 l-42 29 105 55 c58 30 142 80 186 111 44 30 81 54 82 52
2 -2 15 -24 30 -50 l27 -47 -68 -93 c-82 -111 -87 -118 -75 -118 5 0 42 41 83
90 85 105 71 108 150 -38 l51 -93 -57 -75 c-31 -41 -55 -79 -53 -85 2 -5 28
20 58 56 30 35 58 65 62 65 10 0 28 -58 48 -160 l20 -95 -30 -40 c-65 -88 -83
-116 -78 -120 3 -3 30 24 59 59 30 36 57 65 60 65 3 1 13 -25 23 -56 11 -33
30 -68 46 -83 27 -25 28 -29 19 -71 -13 -55 -24 -73 -106 -159 -36 -39 -63
-73 -60 -76 16 -16 62 -3 113 32 69 47 96 79 135 155 16 33 33 59 38 59 8 0
48 -59 107 -156 7 -11 14 -16 18 -13 3 3 -14 45 -38 92 -28 55 -41 89 -34 93
18 11 0 183 -31 307 -38 150 -81 256 -211 522 -145 296 -248 457 -390 608 -45
49 -56 66 -45 71 22 8 18 26 -5 26 -28 0 -96 71 -123 128 -18 39 -38 57 -114
108 -50 34 -149 106 -220 160 -70 55 -144 111 -164 126 -60 45 -112 204 -126
390 -7 93 8 105 31 24 17 -58 31 -75 48 -58 8 8 22 -7 47 -48 20 -33 60 -87
90 -121 l54 -61 -44 -44 c-51 -52 -44 -56 22 -13 l48 31 93 -84 c51 -46 111
-98 133 -115 l39 -33 -34 -35 c-44 -45 -34 -53 19 -15 l42 30 149 -116 150
-117 -43 -38 c-50 -45 -39 -50 24 -10 l45 28 105 -88 c58 -48 139 -119 180
-158 l74 -71 -40 -34 c-51 -45 -41 -54 18 -16 l46 29 74 -88 c40 -48 95 -119
122 -157 104 -147 164 -204 201 -190 18 7 18 8 -11 -59 -14 -32 -24 -60 -21
-62 6 -7 60 69 76 107 7 16 16 30 20 30 4 0 17 -46 29 -102 12 -56 31 -122 42
-147 l20 -45 -53 -53 c-28 -29 -50 -55 -47 -57 2 -3 31 14 64 36 35 24 61 36
63 30 2 -7 32 -54 67 -106 l63 -95 -51 -42 c-61 -52 -45 -64 21 -16 l49 35 69
-91 c98 -128 95 -114 33 -169 -63 -56 -49 -64 22 -13 27 19 51 35 53 35 3 0
10 -26 16 -57 13 -65 33 -103 55 -103 16 0 21 -17 30 -107 l6 -61 -58 -21
c-92 -34 -91 -33 -71 -38 10 -2 45 3 78 11 34 9 63 16 65 16 1 0 15 -30 30
-67 14 -38 40 -92 56 -122 16 -30 26 -58 22 -62 -5 -3 -32 -14 -60 -25 -29
-10 -53 -22 -53 -27 0 -4 8 -6 18 -3 18 5 101 20 115 21 9 0 166 -248 161
-256 -2 -3 -24 -12 -49 -19 -25 -7 -45 -17 -45 -21 0 -12 8 -11 70 2 60 13 49
23 141 -129 36 -60 58 -106 53 -111 -5 -5 -26 -14 -46 -21 -51 -16 -48 -29 5
-19 69 13 71 12 100 -46 47 -95 99 -142 179 -159 23 -5 27 -10 23 -34 -2 -15
-7 -67 -10 -117 -8 -135 -38 -257 -94 -385 -50 -114 -60 -150 -41 -150 25 0
168 249 215 375 19 50 30 106 38 198 7 70 17 128 22 129 6 1 32 -36 60 -82 60
-101 71 -90 17 17 -31 61 -37 82 -29 95 9 13 3 25 -31 62 -66 72 -460 671
-507 771 -58 123 -89 213 -114 330 -28 128 -52 181 -91 203 -24 13 -29 22 -24
37 15 47 15 93 0 130 -9 21 -15 39 -14 40 2 1 23 14 46 29 56 35 49 42 -14 17
l-49 -19 -62 72 c-35 39 -92 123 -128 186 l-65 115 22 17 c13 10 31 20 41 24
9 3 17 10 17 15 0 5 -22 0 -49 -10 l-50 -19 -54 92 c-49 81 -107 190 -107 199
0 2 41 -2 90 -7 l91 -11 25 -54 25 -54 -32 -41 c-18 -23 -37 -47 -42 -53 -19
-26 10 -12 52 24 l43 36 26 -34 c15 -19 50 -59 79 -90 29 -31 53 -59 53 -63 0
-5 -11 -21 -25 -38 -38 -45 -30 -57 12 -16 l36 37 94 -86 c51 -48 93 -92 93
-99 0 -7 -12 -27 -26 -44 -31 -37 -24 -53 10 -21 l23 22 13 -78 c7 -43 23
-116 37 -163 16 -57 21 -86 13 -88 -7 -3 -5 -8 4 -16 9 -6 38 -76 65 -156 128
-376 359 -945 392 -966 22 -13 20 9 -9 113 -17 59 -29 109 -28 110 1 2 29 6
62 9 l59 5 40 -72 c42 -75 61 -88 59 -39 -2 27 0 28 35 23 20 -3 39 -8 43 -12
11 -10 59 -199 74 -289 9 -59 11 -127 7 -228 -9 -214 23 -183 63 61 25 151 22
281 -8 388 -14 48 -21 88 -16 89 4 0 13 1 19 2 6 1 35 -62 64 -139 55 -143
252 -615 260 -624 3 -2 8 -1 11 2 9 9 -13 85 -126 432 -139 426 -227 722 -217
731 7 7 98 -193 203 -446 56 -134 107 -246 113 -248 25 -8 -130 373 -267 658
-70 146 -96 210 -86 210 7 0 157 -305 234 -475 69 -154 90 -193 90 -167 0 36
-172 413 -273 599 -45 83 -69 138 -76 179 -18 109 -43 324 -38 337 3 6 6 1 6
-13 2 -38 58 -306 77 -364 49 -150 187 -429 307 -621 85 -136 447 -669 472
-694 14 -14 27 -22 31 -18 11 11 -29 94 -199 417 -174 331 -262 510 -337 690
-55 131 -132 351 -126 357 4 4 109 -124 201 -245 22 -29 41 -48 43 -43 5 15
-95 162 -193 284 -79 98 -83 105 -104 196 -12 51 -20 95 -18 98 3 2 31 -25 63
-61 55 -63 85 -85 65 -48 -5 9 -40 53 -77 96 -67 78 -68 82 -80 160 -6 45 -10
82 -9 84 2 2 27 -31 55 -73 28 -42 54 -74 57 -72 7 8 -42 99 -82 152 -36 46
-38 53 -46 158 -5 61 -7 112 -5 114 2 2 51 -2 110 -9 58 -8 106 -11 106 -7 0
10 -132 39 -178 39 l-40 0 -7 56 c-8 68 -6 70 102 136 128 79 105 86 -40 12
-38 -18 -71 -34 -74 -34 -3 0 -3 27 -1 60 3 42 0 64 -9 72 -7 6 -13 21 -13 34
0 28 85 300 168 537 l58 168 44 -68 c95 -148 305 -323 483 -404 l74 -33 6
-160 c11 -301 85 -675 172 -866 19 -41 50 -118 71 -170 82 -213 274 -623 374
-801 59 -106 468 -683 593 -837 45 -56 143 -172 217 -258 74 -86 145 -168 157
-183 11 -14 25 -23 29 -19 9 10 -31 70 -235 353 -215 297 -262 365 -356 509
l-77 120 218 -222 c121 -123 225 -222 233 -222 8 0 -64 80 -160 178 -322 328
-339 349 -446 571 -52 106 -93 195 -91 197 2 2 26 -38 54 -88 97 -181 162
-271 309 -427 92 -98 306 -289 433 -386 l101 -77 16 -70 c34 -151 174 -495
425 -1049 193 -424 250 -520 250 -419 0 45 -85 393 -125 509 -13 39 -22 71
-21 71 2 0 38 -63 79 -139 93 -173 144 -251 164 -251 13 0 15 8 10 43 -14 97
-135 436 -274 760 -80 188 -163 387 -185 442 -22 55 -71 165 -109 245 -53 109
-72 161 -80 214 -12 85 -56 182 -177 384 -51 85 -92 156 -92 158 0 2 -37 97
-81 211 -76 194 -189 506 -189 521 0 4 12 -11 27 -33 35 -51 75 -148 153 -365
106 -299 271 -601 339 -622 7 -2 31 -58 52 -123 41 -126 164 -386 326 -690
110 -207 140 -255 159 -255 19 0 19 4 -22 137 -37 124 -73 219 -148 398 -26
60 -43 105 -38 100 5 -6 62 -93 127 -195 138 -218 161 -250 181 -250 19 0 16
9 -43 155 -41 101 -283 583 -370 735 l-37 65 44 -39 c29 -26 59 -70 87 -125
58 -115 293 -465 316 -469 16 -3 16 0 -4 50 -21 55 -72 158 -116 237 -29 53
-28 52 91 -97 76 -96 116 -132 116 -106 0 19 -99 182 -212 350 -89 132 -128
199 -128 218 0 19 -20 57 -60 112 -73 103 -97 147 -81 152 7 2 11 35 11 92 l0
88 58 -23 c78 -31 102 -38 102 -28 0 4 -33 22 -73 40 -39 17 -73 38 -74 45 -2
7 19 29 44 48 122 91 151 136 122 193 -8 15 1 10 27 -15 109 -104 153 -139
261 -207 65 -41 180 -115 256 -164 76 -49 140 -87 143 -84 8 7 -50 70 -306
332 -243 249 -362 408 -391 525 -10 38 -26 85 -37 107 -11 21 -17 44 -15 50 3
7 0 37 -7 65 -6 29 -15 105 -21 168 -11 138 -36 239 -77 312 -36 63 -82 211
-82 262 0 25 -11 51 -36 86 -37 51 -168 359 -199 465 -9 33 -28 81 -42 107
-14 25 -23 52 -21 59 2 7 21 -17 42 -54 44 -79 66 -86 89 -29 47 119 15 407
-62 561 -100 197 -351 562 -536 781 -79 93 -254 266 -298 295 -24 15 -26 20
-13 27 27 15 18 34 -58 125 -267 319 -809 743 -1106 864 -71 29 -99 49 -70 49
6 0 10 7 10 15 0 35 -211 209 -438 359 -368 244 -686 397 -967 465 -65 16 -73
20 -42 20 21 1 36 5 33 10 -3 5 -55 38 -114 74 -352 212 -858 407 -1094 424
-61 4 -85 9 -82 18 3 8 -46 26 -148 53 -319 86 -570 128 -823 138 -178 7 -225
0 -276 -43 l-32 -27 8 25 c11 35 35 60 75 77 l35 15 -50 13 c-70 19 -318 52
-469 64 -148 11 -425 11 -537 -1z m2161 -354 c-7 -9 -15 -13 -19 -10 -3 3 1
10 9 15 21 14 24 12 10 -5z m754 -3060 c82 -80 214 -175 358 -256 l78 -44 0
-180 c1 -390 27 -723 65 -825 8 -19 19 -80 25 -135 7 -55 25 -179 40 -275 16
-96 28 -176 26 -177 -4 -4 -116 123 -116 131 0 3 11 6 24 6 14 0 27 4 31 9 3
6 -72 88 -168 183 -145 146 -188 195 -267 313 -105 156 -209 267 -380 407
-111 90 -408 309 -499 367 -52 34 -53 35 -30 44 13 5 74 33 134 62 239 115
381 268 480 519 l37 94 41 -82 c31 -62 59 -100 121 -161z m-4515 143 c22 -60
22 -62 -20 -107 l-40 -45 -19 32 c-22 36 -54 59 -107 77 l-38 13 45 11 c25 6
65 17 90 25 64 20 79 19 89 -6z m-3555 -67 c4 -5 -24 -31 -61 -57 -38 -26 -93
-68 -123 -93 -48 -39 -42 -32 39 57 67 73 100 102 117 102 12 0 25 -4 28 -9z
m6673 -451 l22 -51 -32 20 c-18 10 -47 28 -65 39 l-34 20 29 10 c50 18 58 14
80 -38z m-757 -264 c19 -77 41 -116 64 -116 6 0 12 -11 12 -24 1 -13 17 -45
37 -70 37 -48 374 -414 442 -479 86 -83 192 -137 266 -137 35 0 43 -15 98
-174 22 -64 59 -148 81 -187 l42 -70 -38 -54 c-20 -30 -44 -61 -53 -69 -9 -8
-73 -37 -142 -65 l-126 -52 -57 28 c-31 15 -56 30 -56 34 0 4 10 10 23 13 35
9 133 69 120 73 -6 2 -37 -7 -70 -20 -111 -47 -128 -49 -193 -20 l-59 25 70
35 c38 19 69 39 69 44 0 13 -3 12 -72 -16 -60 -24 -128 -31 -175 -19 -13 4
-23 10 -23 14 0 4 10 11 23 14 34 9 124 69 110 73 -6 2 -25 -3 -42 -11 -35
-18 -45 -20 -36 -6 4 6 -19 10 -62 10 l-68 0 48 27 c45 25 67 53 30 38 -137
-55 -145 -57 -166 -37 -19 20 -19 20 44 27 35 4 73 11 84 15 18 7 19 9 2 15
-9 4 -31 5 -47 3 -28 -4 -29 -4 -13 14 20 22 13 23 -34 3 -57 -24 -123 -16
-123 16 0 10 50 27 99 32 24 3 48 10 54 16 8 8 -19 11 -95 11 -89 0 -110 3
-129 19 -21 17 -22 21 -9 37 14 16 13 17 -7 12 -12 -3 -26 -1 -32 6 -6 8 6 11
47 13 150 4 166 33 19 33 l-104 0 -27 38 -26 37 84 7 c120 9 146 27 41 28
-126 0 -151 7 -167 44 -7 17 -13 36 -13 41 0 6 -5 19 -11 30 -13 23 -26 85
-18 85 3 0 14 -5 25 -10 23 -13 25 -3 3 21 -16 17 -15 18 17 9 43 -13 96 -13
84 -1 -6 5 -33 16 -62 25 -28 10 -57 24 -65 33 -12 15 -10 16 12 9 14 -4 50
-10 81 -13 79 -7 113 13 147 85 24 51 27 71 30 194 3 102 -2 174 -18 287 -13
88 -18 160 -14 173 6 17 10 6 16 -47 4 -38 16 -106 28 -149z m3175 4 c55 -69
160 -163 242 -218 29 -19 53 -36 53 -39 0 -2 -9 -43 -19 -91 -55 -244 -89
-614 -72 -766 6 -55 16 -162 21 -236 20 -273 72 -678 116 -902 14 -73 67 -260
124 -440 55 -172 103 -322 106 -333 16 -52 -34 29 -184 295 -88 157 -173 313
-190 345 -46 91 -100 274 -118 399 -10 68 -25 131 -41 164 -27 58 -26 78 1 36
33 -50 28 -15 -7 48 -31 56 -76 212 -65 223 2 3 40 -47 83 -110 43 -63 82
-115 87 -115 12 0 1 19 -101 178 -83 129 -107 172 -96 172 3 0 26 -32 52 -71
26 -39 49 -66 51 -60 4 13 -36 85 -86 154 -27 38 -38 68 -52 140 -10 51 -16
94 -14 96 3 4 96 -61 131 -92 13 -11 26 -17 30 -13 9 9 -61 72 -128 116 l-45
30 -24 122 c-13 68 -25 158 -26 201 -1 42 -7 83 -13 91 -30 36 9 431 69 713
l12 53 26 -14 c15 -8 50 -42 77 -76z m1996 -973 c46 -45 100 -107 120 -137
l36 -55 6 -200 c8 -254 20 -343 67 -474 21 -58 68 -236 105 -396 110 -477 152
-604 290 -891 111 -232 181 -330 261 -366 21 -10 44 -53 44 -82 0 -13 -144
129 -264 260 -115 127 -226 264 -300 374 l-58 85 60 -65 c103 -112 77 -61 -50
95 -104 129 -130 169 -185 282 -34 73 -63 134 -63 136 0 2 26 0 58 -4 31 -4
73 -7 92 -8 33 0 33 1 10 10 -13 5 -58 16 -98 22 l-75 13 -38 99 c-21 54 -37
100 -35 102 2 2 30 -16 62 -41 33 -24 61 -42 64 -39 6 6 -95 98 -133 121 -22
13 -33 33 -50 89 -14 46 -28 75 -39 79 -28 9 -31 77 -24 479 9 509 14 595 36
595 9 0 55 -37 101 -83z m-5551 19 c0 -5 -7 -3 -15 4 -8 7 -12 17 -9 22 7 10
24 -9 24 -26z m3297 -273 c-3 -10 -5 -4 -5 12 0 17 2 24 5 18 2 -7 2 -21 0
-30z m-2666 -43 c-44 -16 -57 -17 -75 -7 -19 11 -16 13 34 18 92 10 97 8 41
-11z m2718 -225 c1 -17 -1 -17 -13 -5 -13 15 -37 167 -35 226 1 28 47 -182 48
-221z m-1886 165 l18 -30 -25 0 c-13 0 -36 -4 -50 -10 -14 -5 -26 -7 -26 -4 0
9 52 74 59 74 4 0 15 -13 24 -30z m2574 -722 c-3 -7 -5 -2 -5 12 0 14 2 19 5
13 2 -7 2 -19 0 -25z m-517 -373 c0 -5 -5 -3 -10 5 -5 8 -10 20 -10 25 0 6 5
3 10 -5 5 -8 10 -19 10 -25z m38 -67 c11 -18 43 -78 72 -132 45 -86 49 -101
36 -108 -9 -5 -26 -8 -38 -6 -22 3 -27 14 -92 231 -17 54 -6 61 22 15z m196
-400 l63 -133 -36 -12 c-75 -24 -73 -26 -116 115 -21 70 -40 132 -43 139 -3
10 16 17 56 22 8 0 40 -55 76 -131z"/>
</g>
</svg>
