<?xml version="1.0" standalone="no"?>
<!DOCTYPE svg PUBLIC "-//W3C//DTD SVG 20010904//EN"
 "http://www.w3.org/TR/2001/REC-SVG-20010904/DTD/svg10.dtd">
<svg version="1.0" xmlns="http://www.w3.org/2000/svg"
 width="1536.000000pt" height="1216.000000pt" viewBox="0 0 1536.000000 1216.000000"
 preserveAspectRatio="xMidYMid meet">
<metadata>
Created by potrace 1.16, written by Peter Selinger 2001-2019
</metadata>
<g transform="translate(0.000000,1216.000000) scale(0.100000,-0.100000)"
fill="#000000" stroke="none">
<path d="M9255 12153 c-11 -3 -60 -22 -110 -43 -49 -21 -128 -48 -174 -60 -96
-24 -144 -47 -216 -100 -62 -47 -101 -63 -236 -100 -156 -43 -209 -65 -301
-127 -262 -176 -776 -359 -913 -324 -142 36 -773 40 -1045 6 -727 -88 -1298
-367 -2015 -983 -151 -130 -366 -342 -457 -450 -71 -85 -125 -122 -176 -122
-40 0 -92 -19 -92 -34 0 -50 -237 -154 -324 -143 -33 5 -48 1 -76 -18 -19 -13
-82 -40 -140 -60 -202 -70 -625 -252 -869 -374 -339 -170 -607 -366 -877 -642
-387 -397 -538 -678 -780 -1454 -36 -115 -94 -281 -129 -370 -105 -264 -113
-297 -200 -845 -103 -643 -119 -806 -119 -1230 -1 -1048 180 -1732 627 -2363
198 -280 562 -675 852 -926 27 -23 92 -68 145 -98 52 -31 149 -93 215 -138
332 -227 1044 -619 1315 -722 332 -127 1121 -300 1730 -379 293 -38 620 -46
1845 -48 849 -1 1117 2 1173 12 151 26 259 88 397 227 164 167 295 381 339
557 54 210 91 504 101 798 3 96 11 207 17 245 9 63 14 74 53 110 46 45 63 54
355 190 597 279 2003 1036 2615 1407 276 167 681 421 760 476 554 385 1337
1144 1880 1822 166 207 262 340 331 456 113 192 364 716 428 894 52 143 118
443 152 690 22 157 25 494 5 630 -50 348 -184 669 -410 980 -133 184 -372 450
-475 529 -151 117 -392 210 -1186 461 -620 195 -720 222 -925 246 -230 27
-625 121 -818 196 -76 29 -89 39 -182 133 -110 111 -184 167 -318 239 -48 26
-107 67 -130 90 -89 91 -265 186 -427 231 -109 30 -157 55 -237 126 -67 59
-208 130 -363 184 -58 20 -187 77 -287 127 -162 80 -190 91 -245 94 -35 1 -72
0 -83 -3z m120 -142 c319 -59 415 -94 415 -152 0 -40 -39 -41 -258 -4 -351 60
-432 85 -432 136 0 10 10 29 21 40 24 24 11 25 254 -20z m-140 -202 c393 -74
675 -119 803 -128 159 -12 164 -13 160 -60 -2 -30 -9 -39 -38 -54 -67 -35
-300 -11 -800 84 -433 81 -575 130 -530 184 28 33 120 28 405 -26z m-653 -173
c282 -81 398 -106 668 -150 525 -85 1071 -146 1365 -151 94 -1 178 -6 188 -10
19 -8 32 -47 24 -69 -21 -53 -126 -71 -307 -51 -74 8 -283 28 -465 45 -545 50
-851 93 -1176 165 -276 62 -495 143 -533 197 -23 32 -20 88 4 88 3 0 108 -29
232 -64z m-806 -297 c157 -54 365 -86 1010 -154 236 -25 605 -65 819 -90 486
-55 902 -97 1290 -130 423 -36 478 -47 491 -102 11 -42 -15 -53 -131 -53 -227
0 -610 32 -1125 95 -201 25 -518 61 -705 80 -1182 123 -1517 170 -1659 229
-40 17 -116 83 -116 101 0 19 28 45 49 45 10 0 44 -9 77 -21z m-4103 -1595
c18 -9 62 -38 98 -65 170 -125 537 -251 915 -313 167 -28 256 -56 279 -89 22
-31 19 -37 -16 -37 -46 0 -833 -214 -1002 -272 -119 -41 -153 -57 -174 -82
-25 -30 -26 -32 -20 -146 18 -335 135 -750 297 -1056 151 -285 401 -593 609
-749 155 -117 416 -234 823 -369 269 -90 454 -141 658 -182 222 -44 452 -99
754 -181 301 -81 430 -112 683 -163 723 -145 1219 -297 1608 -493 264 -134
411 -249 474 -376 21 -41 40 -65 58 -72 21 -8 25 -14 20 -38 -5 -25 -2 -30 18
-35 123 -31 208 -829 129 -1214 -43 -212 -198 -581 -330 -788 -65 -102 -162
-212 -397 -453 -384 -395 -432 -441 -461 -441 -19 0 -26 6 -30 27 -5 26 -17
221 -31 513 -27 548 -58 1665 -53 1935 l3 200 50 12 c60 15 73 7 87 -59 5 -23
14 -362 20 -753 13 -785 4 -1233 -28 -1350 -29 -110 -2 -186 71 -201 53 -10
118 52 391 371 66 77 143 161 171 186 43 38 50 49 46 72 -3 16 -1 27 5 27 20
0 83 62 123 121 42 63 49 85 22 75 -9 -4 5 16 30 43 26 28 47 57 47 66 0 8 25
71 55 140 91 206 90 196 90 620 0 396 -7 486 -51 625 -13 41 -39 101 -58 132
-75 124 -315 391 -347 386 -11 -2 -30 11 -46 30 -21 24 -49 40 -109 61 -99 34
-207 92 -254 137 -32 31 -39 33 -69 24 -32 -9 -33 -8 -26 17 6 25 5 26 -32 19
-21 -3 -49 -9 -62 -12 -22 -7 -23 -5 -16 26 6 29 5 32 -11 26 -10 -4 -38 -10
-62 -13 -44 -6 -44 -6 -32 17 16 30 2 41 -40 31 -41 -9 -60 -5 -60 14 0 18
-55 32 -160 39 -52 3 -130 19 -201 40 -138 41 -484 123 -699 166 -163 33 -358
82 -625 157 -205 57 -439 113 -635 152 -376 74 -1069 302 -1385 456 -255 124
-375 214 -488 364 -106 141 -282 428 -348 566 -148 313 -265 702 -304 1005
-19 149 -21 158 -48 188 -31 34 -107 29 -294 -18 -288 -74 -518 -162 -838
-322 -481 -240 -722 -394 -1030 -655 -211 -178 -323 -314 -572 -691 -187 -283
-249 -435 -458 -1129 -52 -172 -108 -347 -125 -390 -61 -157 -112 -222 -163
-209 -34 8 -41 35 -23 82 59 157 85 231 137 394 89 275 188 604 210 700 35
148 162 389 374 710 165 250 334 447 540 633 211 190 360 292 810 554 219 127
288 163 365 188 30 10 123 46 206 80 183 75 270 102 664 200 167 42 379 100
470 130 91 29 209 66 264 80 122 33 184 59 193 81 5 14 16 16 65 10 68 -7 69
4 3 30 -30 11 -61 15 -96 12 -45 -5 -52 -3 -57 14 -6 25 -35 39 -177 83 -281
87 -465 214 -465 320 0 50 18 57 73 29z m5207 -4727 c54 -49 236 -143 344
-177 84 -27 153 -23 204 14 38 27 58 25 67 -5 13 -39 -57 -108 -128 -127 -46
-13 -108 1 -235 54 -107 44 -291 138 -327 166 -38 30 -49 65 -30 94 23 35 51
30 105 -19z m84 -511 c64 -127 347 -306 485 -306 24 0 50 9 72 25 54 39 89 56
99 50 15 -9 12 -52 -5 -84 -42 -83 -300 -92 -431 -16 -130 76 -334 288 -334
347 0 26 30 49 59 46 21 -2 32 -15 55 -62z m171 -590 c36 -54 70 -93 85 -98
16 -6 66 -5 136 3 121 13 144 10 144 -20 0 -63 -209 -116 -296 -75 -71 34
-155 125 -188 205 -13 32 -13 38 0 58 28 39 54 23 119 -73z m-5849 -604 c34
-82 245 -297 397 -406 187 -132 564 -281 867 -341 133 -27 204 -63 184 -96 -9
-16 -132 -10 -236 11 -185 38 -477 137 -662 225 -206 97 -490 336 -593 497
-59 92 -63 121 -19 145 28 15 45 6 62 -35z m-796 -242 c11 -6 24 -29 30 -53
33 -124 300 -488 475 -647 67 -60 199 -160 262 -196 196 -116 993 -392 1453
-504 347 -84 1262 -171 2001 -190 387 -10 442 -14 460 -36 68 -82 -331 -94
-1091 -34 -1091 87 -1481 158 -2148 389 -622 217 -804 313 -1048 556 -188 187
-413 499 -460 639 -17 49 -17 50 6 68 26 21 34 22 60 8z m-677 -342 c14 -18
46 -76 72 -128 72 -144 138 -235 254 -350 117 -116 276 -240 494 -384 502
-332 1096 -574 1850 -756 512 -123 1103 -177 2182 -200 572 -12 757 -27 655
-53 -58 -15 -1032 -20 -1428 -8 -440 14 -608 25 -807 52 -665 91 -1641 389
-2105 643 -339 185 -749 474 -925 651 -132 133 -272 358 -297 479 -19 88 9
115 55 54z"/>
</g>
</svg>
