<?xml version="1.0" encoding="UTF-8" standalone="no"?>
<!-- Created with Inkscape (http://www.inkscape.org/) -->

<svg
   xmlns:svg="http://www.w3.org/2000/svg"
   xmlns="http://www.w3.org/2000/svg"
   version="1.1"
   width="744.09448"
   height="1052.3622"
   id="svg6564">
  <defs
     id="defs6566" />
  <g
     id="layer8">
    <path
       d="m 41.695561,467.94338 c 0,0 17.251278,-10.29815 23.524468,-11.23433 6.273185,-0.93621 11.718402,-2.32934 17.25127,-0.93621 3.041473,0.76584 3.318716,0.662 4.102859,3.47059 0.784153,2.80858 -1.750399,3.08278 -0.966256,6.82755 0.784143,3.74479 4.661233,7.08289 29.758238,6.32621 24.77582,-0.74698 65.78636,-2.60377 79.61085,9.33439 0,0 -12.13461,-32.5121 -10.56633,-57.78934 1.56831,-25.27727 1.56831,-42.12876 9.4098,-61.78885 7.84148,-19.66008 26.66107,-65.53362 50.18552,-80.51272 23.52448,-14.9791 36.07086,-24.34106 71.35756,-25.27727 35.28672,-0.93617 68.22097,8.42577 73.71001,10.29817 5.48904,1.87238 50.18553,34.63918 63.51606,62.72501 13.33053,28.08584 13.86931,26.60616 20.38787,47.74592 4.93278,15.99701 7.09676,38.32719 7.09676,38.32719 0,0 0.30847,22.07281 14.85941,1.92918 2.98617,-4.1339 47.04894,-27.14965 46.26478,-38.38397 -0.78413,-11.23434 -44.69647,-147.91873 -44.69647,-147.91873 0,0 -7.05735,-0.93621 -3.92076,-6.55337 3.1366,-5.61716 9.4098,-7.48956 11.76224,-1.87238 2.35245,5.61717 -1.5683,7.48954 -1.5683,7.48954 0,0 60.76932,129.88618 63.51607,136.68441 2.71666,6.72372 8.62564,11.23433 14.89883,9.36195 6.27319,-1.87241 136.44191,-58.98025 136.44191,-58.98025 0,0 0.0563,-5.94219 2.35245,-6.55337 1.2435,-0.33099 0,-3.69773 5.0297,-1.65497 3.78536,1.5374 9.08498,10.08072 3.59594,13.8255 -5.48904,3.74477 -7.84149,1.87238 -7.84149,1.87238 l -135.65777,76.76795 c 0,0 -8.62564,8.42575 -8.62564,16.8515 0,8.42575 -3.13659,28.08583 -5.48904,33.70301 -2.35245,5.61716 -36.855,56.17166 -35.28671,62.72503 1.56831,6.55337 -21.17202,24.34106 -36.07085,27.14965 -14.89882,2.80857 -32.93425,3.74477 -42.34404,7.48954 -9.40979,3.74479 -44.69648,22.46868 -58.81117,22.46868 -14.11469,0 -19.60373,0 -32.1501,3.74477 -12.54639,3.74479 -54.89043,7.48957 -65.08436,7.48957 -10.19395,0 -75.2783,3.74477 -79.19906,0 -3.92074,-3.74478 -53.32212,-0.9362 -71.35754,-1.8724 C 132.65684,580.28672 95.801843,573.73335 88.744505,563.43522 81.687156,553.13708 81.687156,550.3285 71.493214,549.39229 61.299284,548.4561 51.889498,539.09416 38.558966,527.85982 25.228433,516.62548 8.7613042,515.6893 12.68205,496.02921 16.602795,476.36913 41.695561,467.94338 41.695561,467.94338 z"
       id="path6592"
       style="fill:#000000;fill-opacity:1;stroke:#000000;stroke-width:4.19834757;stroke-linecap:butt;stroke-linejoin:miter;stroke-miterlimit:4;stroke-opacity:1;stroke-dasharray:none" />
  </g>
</svg>
