<?xml version="1.0" encoding="UTF-8" standalone="no"?>
<!-- Created with Inkscape (http://www.inkscape.org/) -->

<svg
   xmlns:svg="http://www.w3.org/2000/svg"
   xmlns="http://www.w3.org/2000/svg"
   version="1.1"
   width="727"
   height="238"
   viewBox="0 0 727 238"
   id="limnephilus_xA0_Bild_1_"
   xml:space="preserve"><defs
   id="defs9" />
<path
   d="M 98.688,132.656 C 89.587,126.432 82.944,123.285 74.221,116.571 64.921,109.412 56.061,101.642 47.359,93.755 31.159,79.07 24.683,63.149 29.388,40.412 c 1.154,-5.579 5.58,-9.049 8.865,-13.212 0.522,0.232 1.044,0.466 1.566,0.698 -0.405,1.534 -0.536,3.213 -1.257,4.581 -12.305,23.379 -3.928,49.232 19.824,60.888 6.118,3.003 12.087,6.491 18.495,8.665 5.409,1.834 11.38,3.027 17.059,2.872 21.291,-0.58 42.564,-1.813 63.843,-2.833 28.528,-1.368 56.879,-0.517 84.806,6.305 14.75,3.603 29.689,5.188 44.896,3.901 2.948,-0.249 5.969,0.362 8.956,0.576 4.548,0.327 8.722,0.201 12.508,-3.378 1.501,-1.42 4.976,-1.13 7.511,-0.968 2.245,0.144 4.432,1.189 7.135,1.98 0.454,0.997 1.048,2.304 1.898,4.174 2.113,-1.522 4.194,-3.023 6.275,-4.523 0.114,0.186 0.229,0.37 0.343,0.556 2.187,-1.278 4.31,-2.686 6.575,-3.805 3.49,-1.724 7.05,-3.311 10.628,-4.846 7.491,-3.212 14.856,-6.824 22.564,-9.4 8.996,-3.006 18.336,-4.961 27.465,-7.589 12.117,-3.488 24.049,-7.705 36.287,-10.674 18.418,-4.468 37.052,-8.042 55.56,-12.149 17.364,-3.854 35.06,-6.743 51.919,-12.193 17.5,-5.656 34.254,-13.686 51.167,-21.063 7.31,-3.188 14.068,-7.226 22.543,-7.214 12.931,0.018 22.162,6.305 30.667,15.229 6.101,6.402 11.699,13.309 19.392,18.307 6.303,4.095 11.822,9.643 16.947,15.227 4.424,4.819 5.829,10.772 6.237,17.778 0.576,9.89 -4.392,15.438 -10.736,21.045 -1.271,1.123 -2.188,2.646 -3.27,3.983 0.139,0.532 0.277,1.064 0.415,1.598 4.624,0.405 9.248,0.812 14.232,1.249 2.712,3.657 -1.374,5.476 -2.293,8.129 -4.748,-0.436 -8.982,-1.116 -13.224,-1.16 -13.849,-0.141 -27.376,2.016 -40.124,7.502 -14.634,6.298 -29.973,9.927 -45.412,13.444 -14.26,3.248 -28.395,7.053 -42.555,10.73 -2.018,0.523 -3.864,1.712 -5.757,1.908 -2.194,0 -4.4,-0.148 -6.58,0.023 -13.596,1.074 -27.2,2.077 -40.768,3.435 -3.626,0.362 -7.137,1.878 -10.7,2.863 0.04,0.491 0.079,0.982 0.118,1.475 0.952,0.409 1.877,0.91 2.861,1.213 4.429,1.364 8.809,3.016 13.337,3.882 3.125,0.599 6.471,0.212 9.703,0.021 2.035,-0.12 4.343,-1.619 5.515,2.805 -4.748,1.202 -9.477,2.4 -14.82,3.753 -1.056,-0.585 -2.647,-1.468 -3.786,-2.1 -6.153,1.353 -10.064,-3.054 -15.023,-4.876 -0.081,1.207 -0.141,2.112 -0.214,3.206 -0.558,-0.184 -1.008,-0.275 -1.406,-0.471 -5.683,-2.79 -10.701,-6.94 -18.06,-5.107 -3.127,0.778 -6.985,-1.381 -11.319,-2.394 -1.586,2.303 -3.425,4.973 -4.523,6.567 -10.807,0.349 -20.929,0.938 -31.051,0.933 -12.298,-0.006 -24.594,-0.614 -36.893,-0.763 -6.756,-0.081 -13.622,1.061 -20.249,0.197 -8.993,-1.172 -17.804,-3.739 -26.694,-5.702 -6.47,-1.43 -12.908,-3.052 -19.435,-4.146 -1.858,-0.312 -4.297,0.446 -5.917,1.536 -5.37,3.61 -10.948,7.12 -15.558,11.586 -3.708,3.593 -9.435,5.707 -10.498,12.653 -2.493,0.566 -5.474,0.866 -8.143,1.94 -3.622,1.457 -7.732,2.79 -10.347,5.444 -6.543,6.64 -15.128,8.814 -23.269,11.922 -5.505,2.103 -11.463,2.999 -17.022,4.984 -5.748,2.054 -11.259,4.771 -17.317,7.389 -0.594,-0.789 -1.445,-1.919 -2.184,-2.9 0.954,-4.15 4.241,-4.741 7.133,-5.922 13.057,-5.332 26.092,-10.718 39.135,-16.086 1.535,-0.632 3.021,-1.435 4.607,-1.885 11.129,-3.153 20.308,-9.605 29.203,-16.71 4.914,-3.925 10.27,-7.313 15.546,-10.76 2.421,-1.582 4.552,-3.029 3.019,-6.172 1.241,-1.146 2.362,-1.93 3.158,-2.963 2.882,-3.743 2.153,-7.035 -1.753,-9.638 -2.143,-1.429 -4.043,-3.222 -5.987,-4.798 0.48,-2.085 0.803,-3.485 1.232,-5.349 -5.676,-7.533 -14.313,-8.388 -23.5,-9.829 -1.557,-0.775 -3.777,-1.881 -6.383,-3.179 -0.675,-1.049 -1.564,-2.432 -2.814,-4.373 -1.802,-0.375 -4.024,-1.084 -6.289,-1.269 -12.742,-1.034 -25.495,-2.697 -38.241,-2.674 -11.918,0.021 -23.96,1.123 -35.72,3.101 -17.707,2.977 -35.191,7.256 -52.821,10.726 -7.821,1.539 -15.778,2.377 -23.642,3.715 -1.625,0.276 -2.732,0.745 -4.669,1.12 -2.185,-0.059 -2.622,-0.215 -3.622,-0.497 z M 68.293,104.903 c 8.35,10.348 18.589,18.39 31.304,22.609 4.042,1.342 8.951,1.402 13.188,0.598 17.617,-3.347 35.1,-7.396 52.69,-10.893 12.229,-2.432 24.524,-4.584 36.851,-6.456 5.618,-0.854 11.385,-0.729 17.084,-1.048 -0.795,-1.103 -1.665,-1.48 -2.552,-1.526 -15.086,-0.782 -30.179,-2.201 -45.263,-2.111 -21.288,0.127 -42.599,0.933 -63.844,2.309 -13.384,0.867 -26.353,0.017 -39.458,-3.482 z"
   id="path3"
   style="fill-rule:evenodd" />
<path
   d="m 68.293,104.903 c 13.105,3.499 26.074,4.349 39.458,3.481 21.245,-1.376 42.556,-2.182 63.844,-2.309 15.083,-0.09 30.176,1.329 45.263,2.111 0.887,0.046 1.757,0.424 2.552,1.526 -5.699,0.319 -11.466,0.194 -17.084,1.048 -12.327,1.872 -24.621,4.024 -36.851,6.456 -17.59,3.496 -35.073,7.546 -52.69,10.893 -4.236,0.805 -9.145,0.744 -13.188,-0.598 -12.715,-4.218 -22.954,-12.26 -31.304,-22.608 z"
   id="path5"
   style="fill:#ffffff;fill-rule:evenodd" />
</svg>