<?xml version="1.0" standalone="no"?>
<!DOCTYPE svg PUBLIC "-//W3C//DTD SVG 20010904//EN"
 "http://www.w3.org/TR/2001/REC-SVG-20010904/DTD/svg10.dtd">
<svg version="1.0" xmlns="http://www.w3.org/2000/svg"
 width="1536.000000pt" height="1079.000000pt" viewBox="0 0 1536.000000 1079.000000"
 preserveAspectRatio="xMidYMid meet">
<metadata>
Created by potrace 1.16, written by Peter Selinger 2001-2019
</metadata>
<g transform="translate(0.000000,1079.000000) scale(0.100000,-0.100000)"
fill="#000000" stroke="none">
<path d="M12181 10744 c-35 -46 -108 -232 -234 -599 l-62 -180 -1 -140 -1
-140 -77 -214 c-89 -247 -110 -328 -132 -501 -8 -69 -26 -165 -39 -215 -33
-121 -45 -238 -45 -438 0 -188 11 -257 67 -432 61 -190 278 -642 348 -725 25
-30 72 -91 103 -135 69 -98 124 -158 168 -185 18 -12 42 -40 54 -66 24 -49 66
-85 122 -105 33 -11 40 -19 53 -63 18 -62 57 -111 138 -173 34 -25 92 -75 129
-110 36 -35 74 -63 85 -63 41 0 119 -63 265 -215 85 -88 168 -181 185 -208 19
-31 51 -62 93 -90 63 -41 87 -68 153 -172 23 -36 46 -57 80 -74 53 -26 199
-179 337 -352 171 -214 431 -626 477 -754 27 -75 144 -480 169 -580 58 -239
77 -574 41 -720 -36 -143 -119 -382 -161 -461 -188 -353 -454 -666 -734 -866
-229 -162 -645 -411 -809 -483 -147 -64 -528 -192 -642 -215 -124 -24 -545
-76 -726 -89 -77 -6 -203 -21 -280 -35 -194 -34 -313 -46 -590 -58 -461 -20
-462 -20 -693 69 -160 61 -265 78 -407 64 -265 -26 -402 -10 -640 73 -230 80
-399 165 -645 325 -225 146 -209 137 -331 191 -126 56 -231 123 -379 244 -263
215 -339 265 -545 356 -355 157 -508 210 -825 285 -249 58 -344 73 -550 85
-96 6 -263 21 -370 35 -546 68 -737 61 -1180 -46 -367 -88 -447 -121 -688
-285 -342 -233 -473 -338 -722 -578 -210 -202 -552 -500 -658 -574 -296 -205
-676 -285 -998 -210 -61 15 -147 36 -191 48 l-80 21 -22 54 c-13 30 -40 82
-62 115 -51 79 -72 122 -100 200 -21 60 -23 86 -27 328 -5 326 -2 341 114 572
127 252 199 332 411 451 235 133 283 163 335 208 29 26 79 62 111 81 32 19
119 91 194 160 271 251 406 354 581 443 116 59 180 82 340 122 137 34 248 79
414 169 190 103 255 127 355 134 69 4 87 9 108 28 14 13 44 28 68 33 70 17
199 62 252 88 99 49 248 155 334 239 77 73 97 100 145 193 64 122 124 195 238
287 114 91 186 124 295 134 80 7 102 14 243 79 456 211 622 309 876 517 60 49
136 110 168 134 33 25 114 96 179 158 66 63 153 136 194 163 81 55 123 118
123 183 0 54 -32 79 -97 74 -78 -7 -290 -147 -443 -293 -187 -179 -261 -220
-477 -265 -76 -15 -181 -42 -233 -58 -130 -42 -203 -59 -285 -67 -38 -4 -89
-15 -112 -25 -41 -18 -295 -92 -361 -105 -17 -4 -74 -10 -125 -15 -63 -5 -138
-22 -240 -54 -96 -29 -192 -51 -268 -61 -66 -9 -147 -24 -179 -34 -122 -38
-456 -240 -626 -377 -166 -134 -264 -252 -355 -423 -35 -66 -75 -101 -118
-101 -26 0 -136 -30 -221 -61 -165 -60 -442 -227 -652 -392 -78 -62 -188 -143
-244 -182 -162 -111 -289 -224 -599 -531 -301 -298 -435 -421 -667 -612 -279
-229 -336 -373 -370 -944 -17 -293 3 -438 88 -642 75 -180 229 -394 332 -463
91 -61 600 -312 667 -329 48 -12 121 -15 354 -14 162 0 315 5 340 11 25 5 96
34 157 65 106 54 114 56 225 65 81 7 125 16 154 31 22 11 106 54 186 94 89 45
166 91 196 119 28 24 81 58 117 75 85 38 380 228 445 286 28 25 73 76 100 114
28 38 75 87 106 110 54 40 95 100 95 138 0 13 37 42 126 97 79 49 160 110 220
165 99 93 163 130 333 195 102 38 315 164 348 203 l21 27 229 0 c174 0 247 -4
308 -17 44 -9 125 -22 179 -28 81 -8 125 -21 240 -66 217 -85 220 -86 264
-151 36 -54 62 -76 146 -128 16 -9 126 -63 245 -119 176 -83 231 -114 298
-169 134 -108 398 -280 514 -334 70 -33 121 -74 359 -292 174 -160 309 -256
438 -311 48 -20 179 -65 292 -99 113 -34 329 -102 482 -151 510 -164 779 -214
1163 -215 218 0 260 8 435 82 174 74 226 84 442 84 152 -1 231 5 423 29 179
23 275 30 404 30 197 0 318 14 602 70 297 59 553 130 924 257 350 121 637 254
860 402 121 80 447 337 573 451 89 81 244 249 349 380 98 121 270 377 336 500
142 265 221 554 233 850 5 108 1 181 -20 365 -32 277 -47 361 -91 514 -90 313
-264 656 -502 990 -206 288 -532 671 -807 947 -94 94 -214 216 -266 271 -52
54 -160 153 -240 219 -177 148 -381 355 -520 529 -58 72 -133 161 -168 199
-86 94 -136 166 -240 348 -50 86 -104 177 -121 202 -24 34 -40 81 -66 188 -66
277 -69 307 -70 613 0 259 2 286 22 355 47 161 65 281 73 480 8 215 17 253 75
340 43 63 110 266 129 392 8 51 20 147 26 213 7 66 16 142 21 169 19 104 7
195 -35 242 -21 25 -24 26 -61 14 -70 -23 -159 -5 -275 57 -3 1 -20 -18 -39
-43z"/>
</g>
</svg>
