<?xml version="1.0" standalone="no"?>
<!DOCTYPE svg PUBLIC "-//W3C//DTD SVG 20010904//EN"
 "http://www.w3.org/TR/2001/REC-SVG-20010904/DTD/svg10.dtd">
<svg version="1.0" xmlns="http://www.w3.org/2000/svg"
 width="1254.000000pt" height="1536.000000pt" viewBox="0 0 1254.000000 1536.000000"
 preserveAspectRatio="xMidYMid meet">
<metadata>
Created by potrace 1.16, written by Peter Selinger 2001-2019
</metadata>
<g transform="translate(0.000000,1536.000000) scale(0.100000,-0.100000)"
fill="#000000" stroke="none">
<path d="M7480 14450 c0 -28 11 -78 25 -116 14 -36 25 -75 25 -85 0 -18 -2
-19 -30 -4 -66 34 -69 -23 -5 -95 62 -69 59 -120 -7 -120 -15 0 -28 -2 -28 -4
0 -2 9 -32 19 -67 42 -139 50 -209 27 -232 -13 -13 -9 -26 29 -103 35 -70 51
-121 75 -233 16 -80 28 -147 25 -149 -2 -2 -18 8 -36 22 -17 15 -33 25 -35 23
-2 -2 14 -43 36 -90 63 -138 73 -203 36 -240 -13 -12 -11 -23 9 -80 14 -37 30
-76 37 -87 17 -27 -4 -42 -39 -29 -30 11 -29 8 32 -130 73 -165 88 -239 64
-323 -8 -30 -15 -38 -33 -38 -14 0 -30 10 -41 26 -13 20 -19 23 -31 13 -22
-18 -17 -32 26 -74 31 -30 40 -47 40 -72 0 -65 -65 -30 -77 40 -5 32 -8 35
-25 26 -33 -18 -32 -37 6 -92 63 -92 57 -159 -11 -128 -14 6 -27 10 -29 8 -2
-2 14 -39 36 -83 37 -73 50 -124 33 -124 -5 0 -17 7 -27 15 -53 40 -56 4 -5
-76 38 -60 53 -104 45 -134 -5 -21 -12 -25 -41 -25 -19 0 -35 -1 -35 -3 0 -1
9 -20 20 -42 27 -52 25 -69 -11 -145 -25 -52 -30 -74 -26 -112 4 -52 4 -53
-24 -38 -12 7 -19 21 -19 41 0 20 -4 29 -12 27 -20 -7 -21 -55 -4 -99 23 -58
21 -79 -8 -79 -34 0 -56 26 -56 66 0 37 -10 43 -34 18 -14 -14 -14 -19 1 -52
24 -56 40 -122 35 -148 -2 -13 -68 -84 -153 -164 -83 -79 -168 -170 -191 -203
l-41 -60 -20 24 c-38 47 -67 120 -79 194 -29 185 52 492 179 678 29 43 51 83
48 88 -4 5 -26 9 -50 9 -67 0 -69 35 -5 68 63 32 51 43 -48 41 -101 -3 -137
11 -148 56 -8 32 -29 32 -50 -1 -12 -18 -24 -24 -43 -22 -41 5 -39 35 3 52 35
15 47 38 25 51 -23 15 -57 -7 -87 -55 -29 -46 -34 -50 -71 -50 -50 0 -57 11
-26 40 32 30 34 73 4 68 -24 -3 -30 -12 -53 -70 -13 -33 -19 -38 -47 -38 -28
0 -31 2 -24 23 4 12 9 36 11 52 l5 30 -31 -35 c-17 -19 -49 -71 -70 -115 -70
-145 -107 -303 -150 -655 -12 -96 -24 -177 -26 -179 -7 -7 -36 71 -50 138 -19
84 -29 298 -16 331 8 22 6 27 -19 42 -23 14 -28 25 -31 65 -3 45 -5 49 -36 58
-33 9 -33 11 -29 55 3 25 6 54 8 65 3 13 -2 20 -16 23 -39 8 -55 32 -55 84 0
41 -3 48 -19 48 -12 0 -23 -11 -30 -30 -14 -42 -51 -42 -51 -1 0 46 -17 83
-38 79 -18 -4 -20 -28 -7 -79 6 -22 3 -27 -17 -31 -40 -8 -48 1 -48 52 0 53
-9 65 -41 55 -23 -8 -22 -22 2 -83 12 -28 12 -34 -1 -42 -40 -26 -70 -6 -70
45 0 13 -5 27 -10 30 -21 13 -40 -17 -40 -61 0 -37 -3 -44 -19 -44 -20 0 -56
38 -66 71 -8 24 -50 35 -71 19 -13 -12 -11 -17 16 -45 37 -39 41 -75 6 -75
-14 0 -30 10 -40 26 -13 18 -24 24 -43 22 -38 -4 -39 -24 -3 -58 29 -27 29
-30 12 -39 -13 -7 -30 -4 -61 10 -55 24 -84 25 -79 2 3 -15 58 -54 92 -66 5
-2 10 -50 11 -108 1 -118 6 -134 123 -410 60 -141 80 -199 118 -331 7 -25 -61
-68 -109 -68 -21 0 -53 -6 -72 -14 -37 -16 -41 -14 -69 41 -10 20 -16 57 -16
98 0 88 -23 85 -30 -4 l-5 -62 -86 83 c-104 100 -129 144 -129 228 0 69 -14
78 -55 34 -13 -14 -29 -23 -34 -19 -15 9 -13 55 4 105 17 48 20 100 6 100 -5
0 -16 -19 -23 -42 -14 -42 -34 -56 -63 -44 -11 4 -7 21 20 83 18 43 36 98 40
123 7 40 6 43 -8 31 -9 -7 -28 -37 -41 -67 -22 -48 -28 -54 -55 -54 -25 0 -28
3 -24 23 4 12 19 39 35 59 35 45 49 88 36 111 -14 26 -26 20 -33 -15 -9 -41
-31 -78 -48 -78 -9 0 -12 33 -12 133 0 72 -4 177 -9 233 -10 112 1 166 50 237
24 35 25 57 3 57 -6 0 -17 -16 -25 -36 -10 -24 -20 -34 -32 -32 -9 3 -15 11
-12 19 2 8 3 41 1 74 -5 100 -5 109 3 137 7 24 4 29 -33 47 -64 33 -78 79 -41
139 13 21 31 35 51 39 23 4 28 10 24 22 -27 65 -12 123 54 205 37 46 36 46 12
39 -13 -3 -25 3 -36 21 -23 35 -16 143 12 208 l21 46 -22 21 c-19 19 -21 33
-21 124 0 85 4 109 22 142 l21 41 -21 59 c-32 92 -29 242 12 485 29 175 32
211 29 345 -3 83 -8 158 -12 168 -6 12 -20 17 -52 17 -42 0 -43 1 -55 42 -10
40 -12 41 -26 23 -10 -14 -12 -30 -7 -55 14 -63 11 -114 -7 -118 -23 -4 -49
25 -49 56 0 25 -1 25 -17 9 -18 -18 -18 -17 14 -154 4 -17 1 -23 -11 -23 -32
0 -66 -46 -66 -90 0 -22 -3 -40 -6 -40 -16 0 -44 23 -44 36 0 24 -25 11 -28
-15 -2 -12 4 -43 12 -68 9 -26 16 -55 16 -65 0 -25 -35 -23 -54 4 -25 36 -31
-2 -11 -76 14 -50 15 -68 5 -85 -6 -12 -17 -21 -23 -19 -19 6 -47 70 -47 105
0 43 -15 49 -30 12 -12 -27 -10 -38 19 -107 17 -42 31 -94 31 -115 0 -34 -3
-38 -22 -35 -15 2 -29 16 -41 41 -17 37 -37 49 -37 23 0 -8 16 -48 36 -90 32
-68 36 -83 32 -136 -5 -69 -16 -85 -52 -76 -21 5 -29 16 -38 51 -9 35 -15 42
-25 33 -22 -18 -15 -44 27 -99 43 -58 54 -83 48 -120 -2 -19 -9 -24 -32 -24
-24 0 -34 8 -56 44 -29 50 -50 63 -50 31 0 -29 16 -58 61 -107 30 -33 39 -51
39 -78 0 -29 -4 -35 -21 -35 -15 0 -25 11 -36 40 -16 40 -43 55 -43 23 0 -10
18 -54 40 -97 45 -90 54 -153 20 -142 -11 3 -29 9 -40 12 -30 9 -25 -19 10
-59 44 -51 65 -117 37 -117 -7 0 -28 16 -47 35 -40 41 -50 43 -50 11 0 -22 64
-115 90 -131 18 -11 11 -53 -12 -70 -26 -17 -28 -11 43 -124 38 -61 43 -111
15 -153 -27 -41 -61 -38 -76 7 -8 24 -18 35 -31 35 -28 0 -23 -26 15 -76 44
-57 53 -97 32 -129 -19 -29 -38 -32 -56 -9 -8 8 -22 20 -32 25 -35 19 -20 -31
22 -72 48 -48 61 -86 35 -105 -22 -16 -33 -10 -45 22 -9 23 -36 42 -46 32 -2
-3 14 -43 35 -89 66 -140 73 -237 28 -358 l-20 -54 57 -55 c64 -61 76 -80 76
-116 0 -31 -11 -33 -35 -6 -25 28 -48 26 -40 -2 9 -30 31 -52 90 -91 45 -29
78 -77 63 -92 -3 -3 -18 -1 -33 5 -61 23 -39 -20 36 -71 61 -41 79 -64 79 -98
0 -26 -12 -27 -35 -1 -23 26 -45 26 -38 1 7 -28 41 -55 93 -75 55 -22 70 -33
70 -56 0 -9 16 -49 35 -87 43 -87 130 -171 300 -294 66 -48 142 -109 169 -135
55 -56 106 -153 106 -203 l0 -34 -22 20 c-35 32 -113 67 -237 107 -63 20 -137
49 -164 63 -61 34 -112 90 -128 141 -11 38 -13 40 -40 30 -39 -14 -64 3 -95
65 -36 72 -52 87 -91 87 l-33 0 0 73 c0 75 -16 117 -38 103 -7 -4 -12 -23 -12
-42 0 -30 -3 -34 -25 -34 -25 0 -25 0 -25 94 0 102 -11 146 -35 146 -24 0 -28
-25 -11 -59 9 -16 16 -32 16 -36 0 -12 -73 -4 -88 11 -14 15 -14 20 12 66 20
35 29 65 29 99 1 55 -3 62 -28 53 -14 -6 -16 -15 -12 -55 4 -34 2 -51 -8 -59
-18 -15 -42 23 -70 105 l-19 55 32 28 c28 23 33 35 39 90 6 63 6 64 -18 60
-22 -3 -25 -9 -30 -68 -3 -36 -6 -58 -7 -49 -1 9 -41 81 -89 160 -47 79 -100
176 -117 214 -27 62 -30 81 -31 172 0 100 0 102 -22 97 -45 -12 -103 77 -103
156 0 14 4 40 9 58 9 31 8 33 -12 30 -17 -2 -23 -11 -25 -36 -7 -71 -59 -1
-85 114 -26 114 -24 110 -47 89 -24 -22 -45 -14 -70 27 -13 22 -20 51 -20 88
l-1 55 -28 -34 c-55 -67 -101 -11 -101 126 0 94 -6 106 -51 101 l-33 -3 -12
67 c-7 36 -18 77 -25 90 -22 43 -77 105 -128 144 l-51 38 0 94 c0 70 -3 93
-12 90 -7 -3 -14 -21 -16 -41 -3 -31 -7 -37 -26 -37 -19 0 -25 9 -39 60 -10
33 -17 77 -17 97 l-1 38 -22 -27 c-26 -32 -55 -36 -64 -10 -11 30 -59 95 -138
187 -96 111 -136 191 -143 286 -4 65 -6 69 -29 69 -20 0 -24 -4 -18 -17 16
-39 18 -56 7 -49 -20 12 -97 118 -143 196 -27 46 -86 119 -154 190 -61 63
-140 148 -175 189 -39 43 -83 82 -111 96 -44 23 -56 40 -74 102 -5 19 -10 21
-28 12 -17 -8 -38 -4 -90 16 -37 14 -81 25 -97 25 -28 0 -30 -3 -30 -37 1
-144 122 -344 269 -444 38 -26 51 -40 51 -59 1 -101 69 -245 225 -479 165
-246 205 -334 205 -447 0 -52 0 -53 57 -96 81 -62 101 -127 31 -100 -18 6 -33
10 -35 8 -9 -9 43 -58 91 -85 52 -29 75 -59 61 -81 -3 -5 -13 -10 -21 -10 -22
0 -17 -11 27 -65 23 -28 95 -120 160 -205 64 -85 152 -193 195 -240 76 -85 76
-85 48 -90 l-28 -5 37 -25 c20 -13 41 -35 46 -48 9 -20 7 -25 -20 -41 -28 -17
-29 -20 -13 -35 9 -9 37 -27 63 -40 87 -45 107 -96 36 -96 -19 0 -35 -4 -35
-8 0 -20 28 -32 72 -32 35 0 54 -6 68 -20 28 -28 26 -66 -5 -86 -31 -20 -36
-50 -6 -34 11 5 31 10 44 10 28 0 120 -66 114 -83 -2 -6 -17 -15 -35 -19 -39
-10 -46 -22 -26 -43 14 -13 28 -15 79 -10 86 10 95 -3 95 -142 0 -57 -2 -103
-5 -103 -3 0 -21 7 -40 14 -69 29 -30 -22 58 -75 45 -27 47 -31 47 -74 0 -39
-3 -45 -21 -45 -11 0 -29 5 -40 11 -11 5 -28 9 -37 7 -12 -2 5 -21 54 -60 38
-32 76 -68 83 -81 17 -32 6 -67 -21 -67 -30 0 -17 -20 41 -65 61 -47 78 -72
62 -88 -8 -8 -19 -8 -41 0 -17 6 -30 9 -30 7 0 -22 38 -67 83 -98 30 -21 61
-49 68 -63 13 -23 11 -27 -15 -48 l-28 -22 58 -39 c66 -45 91 -75 100 -123 l7
-33 -31 16 c-17 9 -44 16 -59 16 l-28 -1 27 -24 c16 -13 52 -29 85 -35 72 -15
92 -25 102 -53 12 -29 -4 -47 -42 -47 -27 0 -20 -6 56 -54 47 -30 144 -94 214
-144 326 -228 477 -305 688 -351 51 -11 81 -23 83 -32 1 -8 -11 -35 -27 -60
-22 -35 -44 -54 -88 -75 -54 -27 -66 -29 -183 -29 -105 0 -136 4 -193 23 -82
29 -155 76 -182 119 -18 28 -25 32 -65 33 -101 1 -168 43 -191 121 -7 21 -15
39 -18 39 -3 0 -15 -12 -27 -27 -20 -24 -25 -26 -41 -15 -10 6 -29 17 -43 24
-52 25 -61 38 -55 87 3 26 1 53 -5 61 -9 13 -15 10 -38 -18 -15 -18 -32 -32
-38 -32 -20 0 -104 133 -111 173 -8 50 -17 53 -43 17 -12 -16 -25 -30 -29 -30
-18 0 -74 85 -74 111 0 24 -4 29 -26 29 -13 0 -44 9 -68 21 -46 22 -84 69
-153 188 -55 96 -104 144 -163 160 -41 12 -47 17 -47 41 0 14 -8 43 -18 63
-17 36 -18 36 -35 17 -21 -25 -38 -25 -70 0 -28 22 -87 132 -87 162 0 42 -25
9 -28 -36 -3 -40 -6 -47 -20 -41 -9 4 -98 36 -198 70 -209 71 -270 102 -335
168 -27 26 -57 47 -67 47 -53 0 -206 35 -365 84 -97 30 -211 60 -252 67 -72
12 -76 12 -98 -9 -29 -27 -57 -28 -90 -2 l-25 20 -17 -26 c-16 -24 -21 -26
-71 -22 -34 3 -79 17 -124 39 -73 37 -121 37 -59 0 49 -29 59 -39 53 -55 -5
-13 -11 -13 -46 0 -28 10 -75 13 -148 12 -102 -3 -109 -2 -145 24 l-38 27 -19
-24 c-26 -33 -146 -91 -243 -116 -59 -16 -116 -22 -215 -24 -109 -2 -134 -5
-131 -16 17 -62 17 -63 -30 -55 -186 28 -199 23 -199 -75 0 -64 2 -70 24 -81
19 -8 39 -7 90 7 37 10 69 15 73 11 4 -4 1 -21 -6 -39 -25 -63 -26 -71 -5 -63
58 23 214 58 319 73 201 28 862 20 852 -11 -1 -6 -20 -19 -40 -29 -62 -31 -41
-35 51 -10 101 28 222 34 269 14 32 -13 63 -49 63 -74 0 -10 18 -13 68 -13 61
0 77 -5 171 -52 57 -28 120 -54 140 -58 64 -10 65 -11 47 -39 -16 -24 -16 -24
22 -30 153 -25 379 -101 389 -132 3 -7 -13 -16 -36 -23 -23 -6 -41 -15 -41
-20 0 -5 44 -23 98 -39 95 -30 147 -61 139 -84 -2 -7 -30 -14 -63 -17 l-59 -6
55 -16 c30 -9 80 -22 110 -28 31 -6 70 -19 88 -30 60 -37 29 -77 -35 -46 -41
19 -49 16 -33 -13 12 -24 15 -24 130 -21 85 2 85 2 67 -18 -39 -43 -18 -60
117 -97 69 -19 119 -62 114 -97 -3 -20 -10 -24 -58 -28 l-55 -5 28 -22 c15
-12 50 -24 80 -28 72 -10 115 -29 128 -59 24 -52 -8 -69 -84 -42 -25 9 -37 10
-34 3 8 -25 57 -48 131 -62 87 -16 129 -37 124 -63 -4 -21 -61 -21 -125 -1
-47 14 -69 5 -38 -17 25 -19 70 -29 178 -41 68 -8 94 -15 110 -31 20 -21 20
-22 2 -42 -13 -15 -31 -20 -67 -20 -35 0 -48 -4 -46 -12 3 -9 36 -14 105 -16
l101 -3 12 -30 c29 -68 96 -112 292 -190 115 -45 192 -90 215 -126 19 -29 31
-29 84 2 58 32 92 33 107 0 6 -14 9 -32 6 -40 -5 -13 -2 -14 21 -5 73 28 134
33 402 34 156 1 283 -3 283 -7 0 -13 -31 -70 -58 -104 -48 -64 -132 -94 -162
-58 -21 26 -30 17 -28 -26 3 -40 2 -42 -37 -56 -22 -8 -84 -17 -137 -20 -166
-10 -317 26 -493 116 -49 25 -93 47 -96 49 -4 1 -9 -6 -12 -18 -12 -47 -118
-12 -179 60 -39 45 -52 50 -46 18 l4 -23 -278 -3 c-382 -4 -530 13 -675 78
-53 24 -64 26 -74 14 -48 -59 -375 -58 -516 1 -30 13 -33 12 -33 -4 0 -31 22
-41 96 -41 86 0 105 -13 74 -53 -32 -40 -71 -46 -199 -30 -63 8 -125 12 -140
8 -25 -6 -26 -7 -6 -21 16 -12 37 -14 97 -9 75 7 78 6 78 -14 0 -47 -82 -89
-178 -92 -26 0 -26 -1 -5 -11 67 -32 5 -112 -99 -125 -39 -6 -39 -6 -18 -25
11 -10 20 -25 20 -32 0 -8 -21 -46 -47 -85 l-48 -70 -99 -3 c-80 -2 -101 -6
-110 -20 -16 -27 1 -33 38 -13 44 24 70 14 61 -23 -12 -51 -35 -63 -145 -77
-106 -14 -134 -25 -112 -47 9 -9 20 -8 47 5 38 18 105 23 105 8 0 -45 -43 -68
-146 -77 -102 -9 -131 -19 -114 -39 16 -19 48 -19 93 0 20 8 41 15 47 15 20 0
10 -40 -18 -71 -22 -24 -38 -32 -82 -38 l-55 -7 28 -18 c36 -24 34 -48 -5 -78
-54 -41 -95 -58 -139 -58 -36 0 -40 -2 -29 -15 7 -9 29 -15 51 -15 22 0 39 -4
39 -8 0 -24 -100 -92 -136 -92 -15 0 -15 -3 4 -20 25 -23 27 -46 11 -120 -10
-47 -12 -50 -42 -50 -18 0 -54 -8 -81 -19 -46 -17 -48 -19 -28 -30 11 -6 37
-11 56 -11 l36 0 -20 -51 c-24 -64 -43 -85 -88 -100 l-36 -12 31 -27 c39 -35
30 -53 -41 -84 -54 -24 -79 -46 -53 -46 24 0 40 -27 32 -57 -8 -34 -85 -110
-120 -119 -14 -3 -25 -12 -25 -19 0 -23 15 -25 46 -4 37 24 54 24 54 -1 0 -56
-73 -140 -122 -140 -24 0 -22 -9 7 -32 14 -11 25 -29 25 -40 0 -34 -38 -85
-80 -106 -38 -19 -39 -19 -23 -42 39 -55 8 -176 -60 -241 l-36 -34 21 -23 c21
-21 21 -23 5 -55 -9 -17 -37 -56 -62 -85 -48 -57 -56 -82 -26 -82 12 0 23 11
30 30 7 21 17 30 32 30 16 0 19 -4 14 -17 -61 -145 -72 -232 -40 -298 11 -22
19 -50 17 -63 -2 -12 -32 -51 -68 -86 -35 -35 -64 -68 -64 -74 0 -6 20 -28 45
-50 76 -67 192 -84 279 -42 25 12 46 26 46 30 0 5 -16 18 -35 30 -88 54 -96
109 -34 227 52 101 79 181 79 238 0 45 0 45 35 45 40 0 39 -3 24 73 -15 71 0
157 41 238 32 63 114 158 163 188 25 15 36 32 45 68 7 26 42 109 77 184 36 75
65 143 65 153 0 9 4 16 10 16 18 0 27 -33 22 -82 -3 -35 -1 -49 6 -44 17 10
30 63 47 181 16 118 34 156 76 165 20 4 24 12 25 40 1 19 10 59 20 87 18 50
21 53 55 53 41 0 63 20 80 71 32 100 43 108 90 64 l26 -26 7 56 c7 62 33 119
78 177 45 58 80 23 43 -42 -22 -39 -19 -57 6 -34 36 32 66 87 98 180 18 49 34
95 36 102 4 10 11 9 31 -7 37 -29 57 -15 100 72 54 107 64 120 80 106 8 -6 14
-21 14 -33 1 -13 8 -3 19 26 50 127 110 169 172 119 l24 -19 102 98 c122 118
224 175 336 189 62 7 69 6 78 -12 6 -10 8 -28 6 -39 -4 -15 -2 -18 11 -13 9 3
35 9 59 12 36 5 47 2 73 -20 35 -30 84 -42 129 -32 28 6 31 4 31 -19 0 -16 -7
-27 -20 -31 -11 -3 -20 -10 -20 -15 0 -19 21 -19 69 0 l51 20 11 -21 c6 -12 9
-31 7 -43 -4 -19 -1 -21 23 -18 31 5 179 -25 179 -36 0 -3 -12 -16 -28 -29
l-27 -22 57 -1 c72 0 173 -21 316 -66 71 -22 112 -40 110 -47 -3 -7 -20 -20
-39 -29 l-34 -18 30 0 c64 0 266 22 385 41 244 40 558 133 789 233 56 24 101
40 101 35 0 -4 -33 -33 -74 -63 -84 -62 -103 -97 -86 -156 12 -43 13 -40 -3
-40 -7 0 -52 -22 -100 -50 -108 -62 -158 -75 -232 -63 -40 7 -55 7 -52 -1 2
-6 27 -13 55 -16 78 -8 82 -21 20 -63 -67 -46 -127 -67 -190 -67 -66 0 -60
-23 7 -30 l49 -5 -39 -33 c-42 -38 -81 -56 -202 -96 -46 -15 -83 -32 -83 -37
0 -13 17 -11 52 7 46 24 58 4 24 -41 -32 -41 -62 -62 -114 -80 -30 -10 -39
-20 -50 -51 -18 -58 -63 -94 -114 -94 -39 0 -40 -1 -25 -18 26 -29 20 -58 -19
-102 -30 -33 -140 -99 -205 -122 -11 -5 -12 -8 -1 -19 10 -11 17 -10 42 4 l30
18 0 -35 c0 -49 -37 -88 -115 -121 -47 -20 -65 -33 -65 -47 0 -22 19 -23 46
-3 19 15 54 20 54 8 0 -3 -14 -28 -31 -54 -36 -57 -96 -113 -144 -136 -33 -16
-45 -36 -27 -47 5 -3 23 4 40 15 41 24 52 24 52 -1 0 -37 -39 -98 -87 -137
-74 -60 -143 -125 -143 -134 0 -29 65 6 88 47 15 26 32 7 32 -36 0 -30 -12
-56 -51 -115 -28 -42 -49 -79 -46 -82 3 -3 20 0 38 6 18 6 34 9 37 6 3 -2 -9
-34 -27 -70 -25 -50 -42 -70 -75 -90 -24 -14 -50 -25 -60 -25 -15 0 -14 -3 5
-29 26 -36 19 -51 -52 -115 -49 -44 -51 -48 -35 -65 9 -9 16 -27 16 -38 0 -29
-54 -98 -101 -130 -32 -21 -39 -31 -34 -47 28 -94 10 -145 -91 -259 -38 -43
-69 -86 -69 -95 0 -29 29 -23 50 11 13 21 30 33 48 35 24 3 27 0 27 -28 0 -24
-10 -42 -40 -71 -22 -22 -40 -49 -40 -59 0 -25 12 -25 35 0 40 44 75 15 75
-61 0 -39 -5 -48 -57 -97 -41 -38 -52 -53 -36 -49 38 9 57 -14 49 -58 -8 -41
-45 -121 -78 -167 -30 -43 -12 -53 29 -18 43 38 63 28 39 -18 -20 -39 -20 -75
0 -164 20 -89 15 -165 -14 -206 -27 -37 -10 -58 19 -24 15 20 18 20 30 5 8 -9
14 -35 14 -58 0 -33 -10 -57 -54 -123 -34 -52 -51 -88 -47 -98 9 -23 31 -2 62
58 13 26 28 48 32 48 8 0 36 -137 47 -235 8 -67 -10 -178 -40 -244 -23 -50
-25 -71 -6 -71 5 0 14 15 21 33 33 90 39 98 60 87 25 -14 25 -42 0 -115 -26
-75 -26 -89 0 -81 11 3 29 9 40 12 18 6 20 2 20 -42 0 -36 -11 -72 -40 -134
-22 -47 -40 -98 -40 -114 0 -39 15 -25 49 46 21 43 31 54 54 56 24 3 27 0 27
-28 0 -18 -7 -59 -15 -92 -18 -69 -12 -85 38 -90 28 -3 32 -7 35 -36 2 -18 -4
-57 -12 -86 -18 -60 -21 -116 -7 -116 11 0 21 25 21 53 1 54 39 58 60 6 15
-34 15 -126 0 -164 -13 -34 -14 -33 14 -28 41 8 61 -36 59 -132 -1 -67 -26
-199 -49 -259 -8 -20 19 -22 35 -2 6 7 15 44 20 81 7 64 25 95 53 95 29 0 36
-114 13 -200 -19 -72 -19 -74 7 -56 27 19 54 21 64 4 13 -20 6 -103 -16 -194
-11 -48 -18 -89 -15 -92 9 -9 22 10 35 51 12 40 45 66 62 49 15 -15 -8 -141
-42 -227 -36 -89 -36 -95 -10 -95 22 0 33 19 50 88 6 23 15 43 20 43 6 1 15 2
21 3 6 1 11 -23 13 -59 1 -41 10 -79 30 -122 28 -62 31 -99 11 -162 -7 -22 -6
-23 22 -17 47 11 56 -10 51 -107 -3 -45 -8 -89 -12 -98 -6 -13 -1 -16 20 -16
33 0 63 -34 66 -72 2 -43 -3 -85 -14 -104 -8 -16 -7 -18 12 -12 49 16 78 -65
50 -139 l-9 -25 35 16 c48 23 56 9 48 -82 l-6 -70 20 18 c11 11 25 16 31 13
18 -11 22 -64 10 -126 -6 -33 -10 -63 -7 -66 11 -11 37 10 47 38 6 16 15 27
21 23 15 -9 12 -75 -6 -129 -13 -37 -14 -50 -4 -59 9 -9 16 -6 31 12 10 13 19
29 19 37 0 17 12 18 28 2 17 -17 15 -40 -7 -103 l-20 -55 26 20 c35 27 40 25
48 -13 11 -49 32 -77 60 -77 l25 0 0 -120 c0 -73 4 -120 10 -120 6 0 10 37 10
90 0 74 3 90 15 90 8 0 24 -14 34 -30 l18 -31 17 26 c16 24 17 24 42 9 13 -9
27 -15 29 -12 2 2 -21 76 -51 164 -30 87 -104 328 -164 534 -102 353 -176 585
-214 674 -16 39 -16 40 10 67 29 30 29 29 -23 97 -34 45 -44 92 -19 92 8 0 18
-4 21 -10 3 -5 16 -10 27 -10 20 0 20 1 -4 19 -44 35 -76 110 -88 206 -12 100
-30 165 -59 208 -23 35 -17 71 10 64 11 -3 19 -4 19 -2 0 1 -18 40 -39 86 -67
142 -94 234 -96 324 -1 68 -6 89 -33 142 -43 83 -75 202 -112 408 -17 94 -38
196 -46 229 -18 71 -14 86 27 86 17 0 29 3 27 8 -2 4 -24 48 -49 97 -58 113
-53 145 13 90 69 -58 64 -13 -7 65 -51 56 -55 63 -55 109 0 28 4 52 10 56 5 3
23 -10 41 -30 45 -49 54 -44 18 13 -54 85 -82 192 -83 315 -1 99 1 110 20 126
l21 17 -28 84 c-27 80 -40 210 -22 210 4 0 17 -12 29 -27 l21 -27 -13 64 c-22
106 -12 326 16 354 13 13 50 -22 50 -47 0 -16 3 -17 15 -7 23 19 18 61 -11
104 -15 22 -29 59 -32 84 -5 49 -6 49 66 27 31 -10 29 15 -8 93 -17 35 -30 77
-30 93 0 40 38 91 62 83 23 -7 24 28 3 79 -17 41 -20 83 -5 92 17 10 50 -34
51 -67 0 -32 1 -32 11 -10 9 17 8 46 -1 113 -14 98 -9 138 19 164 25 23 55 12
71 -26 11 -27 13 -29 22 -14 5 10 13 60 17 112 4 51 12 99 17 104 15 15 50 -5
58 -32 4 -11 9 -19 11 -17 2 3 12 47 23 100 11 53 25 106 31 119 12 21 13 22
26 5 22 -30 40 -12 58 60 30 123 66 126 67 6 1 -73 1 -76 14 -47 9 18 14 66
15 122 0 134 27 185 54 103 17 -53 30 -38 37 43 4 40 12 83 18 96 13 23 56 45
72 35 5 -3 9 -35 10 -72 1 -94 15 -52 24 71 9 118 35 182 75 182 23 0 25 -5
30 -50 l5 -50 13 34 c6 19 12 52 12 75 0 53 16 110 35 126 20 17 43 -2 47 -38
l3 -27 16 30 c9 17 24 66 33 110 9 44 20 83 25 88 16 16 65 3 77 -22 12 -23
12 -23 23 -3 6 11 11 50 11 85 0 78 15 99 55 73 16 -11 25 -26 25 -43 0 -21 3
-24 12 -15 7 7 14 45 15 84 2 40 7 76 12 81 15 15 57 0 94 -33 19 -16 45 -34
58 -38 23 -9 20 -13 -69 -101 -86 -85 -92 -94 -92 -131 0 -63 -33 -146 -132
-336 -90 -174 -90 -176 -69 -190 38 -27 23 -79 -65 -225 -34 -56 -43 -89 -25
-89 16 0 41 31 41 51 0 21 20 25 38 7 20 -20 13 -54 -23 -108 -43 -64 -45 -85
-9 -76 74 19 74 -70 -1 -180 -24 -36 -34 -94 -16 -94 5 0 15 16 21 35 15 46
27 44 40 -6 18 -67 -4 -153 -52 -206 -35 -37 1 -57 57 -31 39 17 51 -3 70
-112 22 -136 53 -226 89 -264 17 -18 37 -35 44 -37 18 -6 30 -101 20 -163 -8
-57 -7 -60 21 -51 11 3 22 18 26 35 8 35 20 38 35 11 14 -28 12 -70 -6 -125
-15 -45 -15 -51 0 -83 16 -34 17 -35 37 -17 10 9 22 34 25 54 9 53 19 68 41
54 37 -23 56 -61 57 -118 0 -31 3 -56 7 -56 4 0 14 11 23 25 9 14 24 25 33 25
13 0 14 -7 9 -38 -13 -74 -19 -172 -10 -172 28 1 38 22 42 89 l4 69 29 -10
c18 -6 37 -26 51 -51 17 -30 31 -43 49 -45 l26 -3 -21 -42 c-32 -64 -34 -173
-6 -232 12 -25 26 -45 31 -45 5 0 9 57 9 126 0 69 5 134 10 145 14 25 76 26
110 2 42 -29 58 -55 86 -138 15 -44 28 -81 30 -83 1 -2 12 1 23 8 27 14 27 46
0 89 -28 46 -19 61 34 61 l44 0 -7 -32 c-9 -46 5 -81 49 -116 21 -17 47 -50
58 -73 19 -41 21 -42 32 -21 10 18 7 31 -19 82 -41 82 -40 107 7 126 20 9 71
18 112 20 42 3 100 6 129 9 l52 4 0 -33 c0 -18 -7 -55 -15 -82 -8 -27 -15 -59
-15 -72 0 -20 3 -21 21 -12 30 17 59 87 59 147 l0 51 47 16 c26 9 62 16 80 16
l33 0 0 -54 c0 -30 -5 -77 -12 -105 -6 -28 -9 -53 -6 -56 3 -3 17 -1 30 4 39
15 50 60 42 169 -6 87 -6 92 13 92 10 0 28 7 39 15 10 8 34 15 51 15 28 0 35
-6 53 -41 17 -33 20 -51 14 -95 -3 -30 -2 -54 2 -54 55 1 66 115 18 185 l-23
34 33 20 c17 11 88 78 156 150 101 104 133 131 168 142 40 12 42 14 42 50 0
76 45 148 83 133 12 -4 15 9 18 73 5 91 25 135 59 126 13 -4 23 -17 27 -36 6
-30 6 -30 15 -7 5 15 4 60 -3 115 -8 69 -8 101 1 134 12 45 20 48 74 26 17 -7
17 -6 3 21 -26 52 -28 85 -11 168 10 50 14 105 11 144 -4 57 -3 62 15 62 14 0
24 -12 35 -39 15 -37 43 -63 43 -40 0 6 -13 41 -30 78 -44 101 -57 156 -41
175 8 9 20 16 27 16 20 0 18 10 -22 94 -20 42 -39 97 -42 121 -4 39 -1 47 26
75 l31 31 -24 35 c-36 53 -61 128 -90 270 -15 70 -37 150 -49 178 -20 46 -85
117 -114 127 -7 2 -19 31 -27 63 -20 77 -53 135 -126 227 -161 200 -203 258
-229 309 -28 55 -27 55 124 -94 122 -121 159 -164 184 -216 l33 -64 40 3 c37
2 45 -2 84 -42 28 -29 50 -67 66 -109 l23 -65 27 16 c26 15 30 14 56 -5 39
-29 74 -106 80 -175 3 -33 9 -59 13 -59 14 0 19 29 13 80 -3 29 -2 50 4 50 19
0 94 -73 113 -111 12 -23 20 -59 20 -91 l1 -53 16 27 c49 79 89 23 137 -194 4
-16 11 -28 16 -28 12 0 12 2 0 36 -12 31 -5 64 14 64 31 0 58 -48 67 -121 5
-40 10 -74 12 -75 2 -2 17 2 34 8 41 15 50 7 108 -93 47 -82 66 -99 109 -99
26 0 26 0 26 -90 0 -53 4 -90 10 -90 6 0 10 12 10 26 0 29 16 64 30 64 6 0 19
-9 30 -20 17 -17 20 -33 20 -125 0 -87 3 -105 15 -105 10 0 15 10 15 34 0 35
21 63 40 51 5 -3 10 -15 10 -26 0 -10 14 -31 31 -46 28 -25 31 -32 26 -73 -3
-25 -15 -65 -26 -90 -26 -58 -26 -78 1 -100 19 -15 23 -30 26 -92 3 -52 -1
-85 -12 -112 -9 -21 -16 -41 -16 -43 0 -3 17 -2 39 2 35 6 39 4 45 -18 3 -14
1 -47 -4 -73 -28 -137 -31 -156 -25 -162 11 -11 35 30 35 59 0 36 16 45 41 23
25 -23 25 -79 -1 -164 -25 -83 -25 -92 3 -88 19 3 22 10 25 56 2 28 5 52 8 52
16 0 64 -33 96 -67 56 -58 82 -124 82 -208 0 -53 -5 -80 -22 -112 -24 -46 -27
-63 -12 -63 6 0 10 6 10 14 0 21 28 46 45 40 19 -8 20 -78 1 -131 -7 -21 -37
-74 -65 -117 -52 -80 -61 -106 -38 -106 22 0 46 32 64 85 15 44 17 47 29 30
25 -34 16 -87 -31 -184 -25 -51 -48 -111 -52 -134 -6 -40 -5 -41 12 -27 10 8
24 28 32 45 12 27 13 14 10 -115 -4 -159 -17 -211 -77 -300 -33 -50 -38 -70
-15 -70 9 0 22 15 30 32 l13 33 11 -27 c13 -34 2 -74 -37 -130 -41 -60 -62
-103 -62 -128 0 -28 30 -23 46 8 27 54 33 -28 8 -122 -10 -39 -14 -83 -11
-123 3 -45 1 -63 -7 -63 -31 0 -125 -137 -111 -160 14 -22 32 -7 57 50 21 47
31 60 48 60 20 0 22 -3 15 -37 -10 -56 -55 -133 -92 -157 -40 -26 -37 -40 9
-44 l35 -3 -19 -38 c-10 -21 -28 -87 -40 -147 -23 -122 -53 -191 -97 -226 -21
-16 -28 -27 -22 -37 13 -21 39 -6 58 33 13 28 19 33 30 25 24 -21 16 -78 -16
-108 -26 -24 -27 -28 -14 -48 21 -32 9 -73 -43 -144 -42 -56 -44 -63 -35 -91
28 -80 5 -165 -79 -288 l-41 -60 12 -82 c24 -163 -1 -290 -113 -583 -78 -202
-101 -294 -97 -391 l3 -71 -48 -57 c-45 -52 -48 -58 -33 -74 28 -31 29 -64 2
-135 -14 -37 -25 -72 -25 -77 0 -6 25 -22 55 -37 51 -25 58 -26 101 -15 25 7
61 19 79 27 l34 14 -15 38 c-26 62 -20 144 21 263 19 58 38 128 41 156 5 42
11 54 30 63 13 6 31 8 39 5 12 -5 15 2 15 34 0 52 10 102 21 102 5 0 9 -16 9
-36 0 -23 4 -34 12 -32 27 9 32 36 18 106 -13 70 -10 102 10 102 5 0 10 -8 10
-17 1 -30 17 6 25 56 4 25 33 135 65 245 32 111 61 224 64 251 15 115 16 116
39 113 19 -3 23 -11 29 -57 7 -58 23 -86 34 -58 8 22 2 63 -25 162 -21 76 -22
145 -2 145 22 0 43 -42 43 -86 1 -42 3 -45 15 -28 17 23 16 65 -2 134 -16 59
-20 170 -7 170 20 0 42 -28 50 -65 l9 -40 12 30 c10 24 9 43 -8 110 -30 117
-27 157 11 147 23 -6 48 -57 48 -99 0 -38 15 -61 24 -38 12 31 6 80 -19 158
-30 92 -33 165 -9 174 24 9 44 -23 44 -71 0 -23 4 -48 9 -55 8 -12 12 -9 22
12 10 23 10 36 -4 75 -9 26 -26 75 -38 110 -19 55 -20 68 -10 103 12 38 14 40
30 25 10 -9 21 -16 25 -16 4 0 4 48 1 108 -7 128 2 153 40 109 17 -19 25 -40
25 -64 0 -30 2 -34 15 -23 22 18 19 49 -15 140 -33 91 -37 128 -15 136 23 9
43 -13 52 -59 6 -27 15 -43 26 -45 28 -6 21 52 -18 138 -35 77 -41 104 -29
134 14 35 44 11 44 -35 0 -12 4 -17 11 -13 7 4 9 24 5 58 -4 28 -9 72 -13 98
-9 79 34 103 57 32 14 -41 40 -46 40 -7 0 15 -12 62 -27 104 l-28 78 22 23
c12 13 32 46 45 73 20 45 22 65 21 192 l-1 143 34 -27 c19 -14 37 -24 39 -21
3 2 -9 41 -25 87 -20 53 -30 101 -30 136 0 84 31 87 44 4 5 -33 10 -39 31 -39
39 0 33 46 -16 114 -22 31 -43 72 -46 91 -5 31 -3 35 16 35 14 0 26 -11 38
-37 10 -21 26 -39 36 -41 25 -5 14 35 -34 124 -29 54 -39 83 -39 118 0 51 12
58 36 21 18 -28 44 -33 44 -9 0 20 -16 50 -57 103 -37 49 -58 111 -49 147 9
34 23 30 40 -10 8 -18 19 -37 26 -41 38 -24 13 53 -40 125 -47 62 -62 109 -54
162 7 43 20 40 40 -8 16 -38 44 -46 44 -13 0 31 -17 59 -71 115 -50 51 -70
102 -55 140 6 15 14 11 51 -26 37 -36 45 -41 45 -24 0 11 -22 47 -48 80 -94
117 -100 137 -57 180 l25 25 -41 47 c-51 57 -66 89 -52 103 7 7 22 5 46 -7 77
-37 53 8 -41 78 -58 43 -92 90 -92 127 0 18 4 22 17 16 12 -4 9 3 -9 22 -34
35 -48 73 -48 126 0 37 -7 50 -61 112 -71 82 -92 120 -108 194 -13 60 -9 71
19 53 11 -7 28 -12 37 -12 12 1 -11 28 -65 78 -57 54 -87 90 -97 117 -15 45
-9 52 35 36 28 -9 30 -9 19 10 -6 11 -31 35 -57 52 -100 69 -142 119 -142 167
0 24 3 24 40 5 17 -9 30 -12 30 -7 0 13 -39 46 -100 85 -101 64 -128 116 -66
127 29 5 28 6 -32 43 -67 41 -222 165 -222 177 0 4 6 13 14 19 11 9 26 7 67
-9 l54 -20 -37 32 c-20 18 -80 52 -135 75 -54 24 -111 54 -128 67 -28 23 -29
26 -14 41 15 15 20 15 52 1 26 -10 34 -11 31 -2 -7 18 -48 40 -141 76 -74 28
-83 34 -83 57 0 16 7 27 20 30 30 8 24 17 -17 32 -80 28 -187 106 -325 238
-147 139 -219 199 -298 247 l-45 27 55 -6 c228 -26 573 -100 789 -171 116 -38
131 -40 131 -19 0 18 -31 35 -67 35 -27 1 -27 1 -9 15 29 22 60 18 136 -15 73
-32 152 -42 131 -16 -7 8 -28 17 -49 21 -48 9 -55 14 -42 30 24 29 66 27 139
-4 75 -33 153 -43 131 -17 -6 8 -37 21 -67 27 l-56 13 38 34 37 34 156 -6
c145 -6 155 -6 137 9 -16 13 -33 15 -82 9 -72 -7 -82 5 -38 46 29 27 51 29
183 15 55 -5 82 -4 82 2 0 13 -24 23 -55 23 -30 0 -39 14 -25 40 18 33 54 35
131 6 38 -14 86 -26 105 -26 29 0 34 3 34 24 0 32 -25 40 -101 31 l-61 -7 4
28 c3 28 5 29 65 32 l62 3 -5 29 c-8 38 29 76 82 86 52 10 156 -9 213 -38 39
-21 81 -65 93 -98 5 -15 47 1 53 20 5 16 13 13 68 -24 34 -23 116 -66 182 -95
150 -67 287 -137 320 -163 29 -23 33 -60 11 -113 -8 -18 -12 -36 -8 -39 14
-15 33 -3 46 29 8 19 22 35 30 35 37 0 92 -119 79 -170 -7 -28 12 -25 31 5 22
34 39 31 69 -9 46 -60 62 -102 49 -130 -7 -17 -8 -27 -1 -32 14 -8 36 12 43
41 4 15 14 25 24 25 21 0 52 -80 52 -134 0 -27 3 -34 15 -30 25 10 120 -43
168 -95 63 -67 90 -124 92 -191 1 -58 5 -61 51 -46 48 15 72 -64 39 -127 -13
-25 -11 -57 3 -57 3 0 21 5 39 12 44 16 53 3 53 -73 0 -61 11 -79 51 -79 24 0
27 -4 33 -50 4 -28 4 -66 0 -85 -8 -42 8 -46 43 -13 32 30 53 16 69 -44 30
-119 103 -226 169 -248 31 -10 32 -11 22 -48 -9 -33 -7 -46 16 -96 31 -67 33
-83 13 -112 -14 -19 -12 -21 19 -33 38 -13 45 -26 54 -101 6 -53 17 -66 69
-86 1 -1 -7 -21 -18 -45 -38 -85 -18 -138 30 -79 16 19 32 30 38 26 21 -13 12
-58 -18 -93 -37 -42 -40 -73 -6 -73 18 0 27 8 35 30 13 38 46 41 55 6 7 -28
-5 -64 -33 -104 -11 -15 -23 -39 -26 -53 -20 -82 142 -78 163 4 8 29 9 30 19
12 6 -11 16 -44 23 -73 20 -86 77 -113 110 -51 21 37 8 81 -30 107 -57 37 -70
51 -70 72 0 26 22 26 45 0 27 -29 35 -25 35 19 0 102 -38 229 -139 459 -49
110 -51 132 -15 132 l25 0 -19 25 c-21 26 -33 67 -56 190 -13 69 -20 85 -49
112 l-35 31 21 20 c27 28 18 54 -42 127 -57 68 -68 115 -31 135 20 10 18 14
-36 73 -45 50 -75 101 -154 262 -54 110 -118 228 -144 263 -50 67 -58 101 -26
109 31 8 24 21 -27 53 -128 77 -143 96 -118 144 14 26 13 27 -73 78 -95 58
-162 116 -162 141 0 8 8 23 17 32 14 15 14 19 2 26 -8 5 -65 40 -128 77 -63
37 -116 73 -119 80 -2 6 6 16 19 20 l22 9 -24 17 c-13 9 -54 26 -91 37 -72 21
-84 37 -46 63 12 9 20 17 17 19 -2 2 -38 16 -79 30 -87 32 -188 90 -245 141
-39 35 -39 36 -21 51 11 8 29 15 40 15 12 1 -7 12 -40 25 -86 33 -254 126
-254 141 0 7 13 15 30 19 35 8 47 22 32 37 -8 8 -33 6 -87 -7 -60 -14 -82 -15
-101 -6 -44 19 -27 45 33 51 60 6 71 13 53 35 -17 21 -40 19 -102 -10 -83 -39
-130 -27 -78 20 46 41 5 48 -61 10 -64 -36 -128 -32 -83 5 8 8 19 21 24 31 8
14 -7 11 -83 -16 -168 -60 -266 -65 -282 -14 -4 10 -12 19 -18 19 -7 0 -50
-25 -95 -56 -98 -65 -138 -76 -166 -45 l-19 21 -38 -35 c-21 -19 -60 -45 -86
-59 -53 -26 -143 -45 -143 -29 0 5 18 26 40 47 47 44 52 61 13 51 -37 -9 -49
-20 -88 -81 -39 -60 -59 -74 -110 -74 -31 0 -36 3 -30 18 26 62 14 68 -36 16
-43 -45 -103 -80 -151 -88 l-38 -7 0 40 0 40 -49 -34 c-138 -92 -360 -111
-465 -40 -39 27 -56 18 -56 -28 0 -22 -4 -27 -17 -23 -10 3 -35 8 -56 12 -45
8 -87 39 -87 65 0 24 15 24 49 0 34 -24 81 -37 81 -23 0 18 -62 59 -115 75
-27 9 -83 24 -122 32 -40 9 -73 20 -73 25 0 12 78 47 135 61 61 14 280 14 435
0 164 -15 313 -14 307 2 -2 7 -24 12 -60 12 -31 0 -58 5 -59 10 -2 6 13 18 32
28 30 15 51 17 145 12 111 -6 149 1 123 22 -7 6 -26 13 -43 15 l-30 3 30 20
c25 17 43 20 135 17 58 -1 111 2 119 7 28 18 -1 31 -70 31 -130 0 -64 43 86
55 49 4 100 11 113 16 21 8 22 12 11 25 -10 13 -25 15 -66 10 -42 -5 -53 -3
-53 8 0 26 30 38 112 43 90 6 118 15 118 39 0 12 -5 14 -17 9 -10 -4 -28 -10
-40 -12 -19 -5 -23 -1 -23 20 0 16 7 28 18 31 9 2 59 15 110 28 95 23 113 41
49 46 -20 2 -37 8 -37 14 0 21 67 76 105 87 22 6 73 11 113 11 58 0 72 3 72
15 0 23 -25 29 -72 17 -23 -6 -45 -9 -49 -6 -12 7 2 42 27 68 21 20 38 25 114
31 67 5 90 11 90 21 0 11 -16 14 -65 14 -67 0 -78 8 -52 40 25 32 62 50 104
50 24 0 43 4 43 9 0 12 -25 38 -42 43 -19 7 40 103 103 167 32 32 119 100 194
151 159 108 238 183 280 262 l29 56 112 37 c92 30 120 36 156 30 35 -6 41 -5
31 6 -21 21 -15 38 20 59 35 22 106 27 138 10 15 -8 19 -7 19 4 0 7 16 28 35
45 80 70 195 104 261 76 35 -15 38 -14 57 6 71 76 278 89 357 23 36 -31 50
-24 50 21 l0 34 38 -16 c29 -12 52 -14 107 -7 107 12 167 9 216 -9 31 -13 39
-13 26 -3 -16 13 -16 14 -1 20 44 17 144 17 311 1 245 -23 360 -19 436 19 71
34 107 82 107 143 0 42 -1 43 -34 43 -18 0 -53 -7 -76 -15 -44 -16 -92 -20
-103 -9 -13 13 14 44 46 52 l32 9 -29 12 c-25 10 -37 8 -94 -19 -35 -16 -68
-30 -74 -30 -5 0 -22 10 -38 22 -23 17 -27 25 -19 40 8 15 6 18 -14 18 -14 0
-41 -7 -60 -15 -20 -8 -50 -15 -68 -15 -24 0 -30 4 -25 15 4 13 -7 15 -69 15
-63 0 -514 26 -569 33 -17 2 -17 5 7 33 15 18 27 35 27 38 0 14 -58 -9 -103
-41 -53 -39 -123 -55 -132 -31 -3 8 -1 27 5 42 9 25 8 28 -7 22 -58 -23 -129
-28 -273 -22 -85 4 -157 9 -159 12 -3 3 14 23 37 44 23 22 42 44 42 49 0 22
-65 -15 -125 -70 -56 -53 -64 -57 -81 -44 -18 13 -18 15 14 47 29 31 43 68 24
68 -4 0 -46 -35 -94 -79 -95 -85 -141 -112 -161 -92 -8 8 -8 16 -2 25 52 71
55 84 16 71 -12 -3 -35 -27 -52 -53 -69 -102 -144 -155 -193 -136 -21 8 -20
11 9 59 27 44 32 75 12 75 -23 0 -55 -43 -77 -105 -24 -67 -59 -105 -96 -105
-28 0 -28 -2 -9 43 17 42 18 47 7 47 -5 0 -26 -25 -46 -55 -45 -64 -179 -195
-201 -195 -9 0 -20 11 -25 25 -5 14 -13 25 -17 25 -5 0 -21 -22 -36 -50 -44
-78 -77 -113 -93 -99 -8 6 -14 23 -14 37 0 18 -18 -5 -66 -85 -89 -149 -159
-235 -187 -231 -19 3 -22 9 -20 51 4 77 -20 58 -40 -33 -23 -103 -85 -225
-148 -294 -50 -54 -190 -139 -205 -123 -4 4 0 26 9 49 39 98 -22 40 -78 -75
-32 -66 -47 -86 -77 -102 -44 -24 -56 -15 -39 28 27 69 27 75 -4 47 -15 -14
-45 -62 -66 -107 l-38 -82 -53 6 -53 5 -51 -55 c-45 -50 -95 -79 -110 -64 -3
3 6 25 20 50 14 24 26 51 26 61 0 33 -38 -2 -80 -74 -52 -89 -84 -113 -120
-90 -12 8 -10 14 14 39 15 16 26 37 24 46 -5 27 -62 -18 -131 -103 l-60 -74
-181 4 c-203 5 -243 15 -295 73 -30 34 -48 107 -36 145 6 19 12 20 68 14 86
-8 159 7 305 67 86 34 141 51 174 51 48 1 50 3 128 89 86 93 147 133 228 145
49 8 69 32 52 63 -27 52 -4 72 128 107 71 19 83 29 47 38 -15 4 -27 16 -31 32
-8 33 24 69 91 100 28 13 45 24 38 24 -7 0 -17 9 -23 20 -18 34 12 75 71 98
l52 19 -32 22 c-50 36 -34 80 34 97 17 4 38 11 48 16 18 9 18 10 -2 24 -51 36
0 148 86 189 44 21 52 42 13 37 -22 -2 -22 -1 -15 80 27 317 121 522 287 625
l60 37 -27 22 c-20 16 -26 28 -23 50 3 30 20 41 127 88 45 19 57 35 47 63 -6
15 -11 13 -32 -15 -27 -33 -64 -43 -64 -17 0 30 29 71 104 145 72 70 100 122
59 105 -47 -19 -53 -18 -53 10 0 42 48 120 100 164 53 45 95 119 88 156 -4 19
0 25 20 30 14 3 38 15 52 25 14 10 38 22 53 25 15 4 27 11 27 15 0 9 -36 20
-69 20 -23 0 -23 1 9 37 18 20 57 87 87 148 51 107 91 163 141 196 20 14 21
19 11 48 -28 81 22 244 99 325 20 21 58 48 84 60 35 17 44 26 37 37 -14 23
-10 79 8 109 9 15 33 38 53 51 35 22 36 25 23 46 -30 45 23 127 93 145 42 12
45 15 39 38 -18 73 -18 75 17 101 18 14 72 50 121 80 62 39 85 58 81 69 -13
32 -34 147 -34 185 0 22 9 54 20 72 18 29 18 32 2 36 -9 3 -46 4 -80 2 l-64
-2 -18 -41 c-14 -31 -30 -47 -69 -66 -52 -27 -66 -48 -56 -88 5 -20 1 -25 -28
-36 -43 -15 -47 -15 -47 4 0 31 -17 4 -35 -56 -23 -76 -40 -93 -63 -62 -17 22
-17 21 -36 -26 -36 -90 -58 -112 -71 -71 -9 27 -20 12 -36 -46 -6 -22 -20 -64
-31 -93 -16 -42 -22 -51 -33 -42 -8 6 -15 26 -17 43 l-4 32 -11 -40 c-7 -22
-15 -62 -18 -88 -7 -52 -25 -68 -56 -49 -16 10 -20 4 -40 -56 -59 -180 -128
-284 -203 -303 -41 -10 -41 -11 -42 -58 -1 -52 -38 -131 -61 -131 -21 0 -28
30 -15 63 14 37 8 47 -15 24 -12 -12 -18 -45 -24 -121 -4 -58 -10 -110 -14
-116 -12 -19 -26 -10 -42 27 -14 35 -16 36 -29 18 -8 -10 -14 -26 -14 -34 -1
-56 -22 -168 -35 -188 -17 -26 -47 -30 -68 -9 -12 12 -17 0 -37 -83 -42 -176
-97 -278 -171 -316 -37 -20 -42 -19 -29 6 13 23 6 54 -10 44 -5 -3 -10 -16
-10 -28 0 -52 -145 -293 -167 -279 -6 4 -17 22 -25 41 -14 34 -14 33 -57 -145
-24 -98 -49 -212 -55 -251 -5 -40 -13 -73 -16 -73 -17 0 -41 41 -49 81 l-8 44
-13 -28 c-12 -24 -11 -39 9 -117 13 -48 21 -94 19 -101 -2 -7 -20 -18 -39 -24
-24 -8 -37 -20 -44 -41 -13 -40 -12 -40 -35 -19 -11 10 -20 28 -20 39 -1 20
-1 20 -14 3 -7 -9 -17 -53 -20 -97 -8 -86 -29 -129 -59 -117 -12 5 -17 19 -17
49 0 81 -22 23 -35 -92 -14 -117 -21 -134 -51 -128 -15 2 -20 15 -24 53 l-6
50 -11 -55 c-6 -30 -15 -86 -21 -124 -12 -80 -37 -115 -69 -97 -18 9 -21 5
-33 -47 -21 -96 -53 -143 -69 -101 -6 19 -17 -6 -57 -131 -43 -135 -52 -155
-72 -158 -19 -3 -22 1 -22 32 0 20 -4 36 -10 36 -5 0 -10 -8 -10 -18 0 -44
-35 -116 -82 -167 -97 -107 -221 -154 -422 -162 -73 -3 -127 -2 -125 3 11 25
297 289 357 329 67 44 186 94 227 95 16 0 13 4 -12 20 -45 27 -44 59 3 99 20
18 49 34 65 38 33 6 34 10 14 37 -21 28 -19 51 8 82 17 20 34 28 59 28 l35 1
-18 24 c-41 51 -9 139 63 174 37 18 37 18 17 38 -41 41 -9 109 60 130 l39 11
-24 35 c-33 49 -39 109 -19 179 13 45 28 68 71 111 30 29 50 53 45 53 -21 0
-51 45 -51 75 0 32 34 75 59 75 8 0 5 13 -11 38 -20 32 -23 50 -23 132 0 52 4
126 9 164 l9 68 -30 -6 c-54 -12 -58 3 -58 233 0 200 1 208 28 285 29 82 28
98 -2 79 -17 -11 -19 -5 -25 75 -9 119 -37 251 -101 473 -85 291 -89 312 -89
502 -1 109 -5 167 -11 167 -19 0 -35 -23 -35 -49 0 -20 -10 -12 -55 49 -60 80
-75 115 -78 183 -2 41 -4 44 -18 31 -8 -8 -20 -14 -26 -14 -13 0 -36 55 -53
128 -10 43 -15 51 -26 41 -8 -6 -14 -25 -14 -41 0 -25 -4 -29 -22 -26 -23 3
-34 19 -69 106 -17 42 -26 52 -45 52 -22 0 -24 -4 -24 -50z m-1996 -6972 c-13
-43 -33 -76 -61 -99 -35 -30 -111 -64 -120 -55 -4 3 2 27 13 53 17 41 28 51
89 85 82 44 89 45 79 16z"/>
</g>
</svg>
