<?xml version="1.0" standalone="no"?>
<!DOCTYPE svg PUBLIC "-//W3C//DTD SVG 20010904//EN"
 "http://www.w3.org/TR/2001/REC-SVG-20010904/DTD/svg10.dtd">
<svg version="1.0" xmlns="http://www.w3.org/2000/svg"
 width="1536.000000pt" height="1233.000000pt" viewBox="0 0 1536.000000 1233.000000"
 preserveAspectRatio="xMidYMid meet">
<metadata>
Created by potrace 1.16, written by Peter Selinger 2001-2019
</metadata>
<g transform="translate(0.000000,1233.000000) scale(0.100000,-0.100000)"
fill="#000000" stroke="none">
<path d="M9140 12323 c-565 -33 -1132 -146 -2232 -447 -940 -257 -1152 -321
-2148 -651 -1361 -451 -1869 -602 -2520 -749 -744 -168 -1514 -266 -2094 -266
-162 0 -163 -2 -29 -72 330 -173 828 -231 1688 -198 1781 69 2133 130 3347
578 592 219 634 233 953 301 127 27 334 79 460 115 799 226 1352 318 1910 318
572 0 953 -85 1440 -322 205 -99 254 -134 313 -222 102 -152 261 -439 285
-513 9 -27 34 -121 56 -207 21 -86 60 -208 86 -270 106 -256 109 -266 109
-363 0 -150 -36 -241 -209 -520 -58 -93 -115 -196 -127 -228 -21 -52 -26 -58
-58 -63 -277 -43 -519 -117 -805 -244 -109 -48 -555 -262 -884 -422 -232 -114
-355 -232 -427 -412 -24 -60 -29 -67 -63 -75 -61 -16 -109 -21 -301 -31 -240
-12 -330 -32 -397 -87 -21 -17 -21 -20 -7 -50 21 -43 68 -63 188 -79 56 -8
116 -19 134 -25 31 -10 32 -13 26 -47 -15 -84 -52 -139 -188 -274 -112 -112
-136 -142 -154 -188 -11 -30 -18 -58 -15 -62 2 -5 32 -8 67 -8 81 0 146 32
276 135 113 90 183 125 261 132 l58 6 7 -38 c12 -65 -3 -167 -41 -285 -29 -89
-38 -132 -39 -190 -1 -79 20 -140 49 -140 8 0 36 22 63 49 37 37 70 90 131
208 86 170 127 227 185 258 35 19 36 19 63 -1 29 -22 52 -70 79 -167 8 -32 26
-69 38 -83 21 -25 23 -26 58 -11 69 29 107 110 123 264 5 47 11 62 25 66 36 9
72 -6 103 -46 37 -46 75 -65 117 -59 28 4 30 7 30 46 0 44 -19 87 -75 175 -19
30 -38 71 -41 90 -7 34 -4 38 60 98 91 84 220 146 466 223 107 34 221 70 253
81 32 12 60 19 63 17 2 -2 -29 -53 -68 -112 -149 -224 -385 -477 -663 -710
-72 -60 -323 -254 -560 -431 -236 -177 -475 -360 -530 -406 -55 -46 -262 -244
-460 -439 -198 -196 -405 -396 -460 -444 -421 -373 -891 -640 -1443 -821 -79
-26 -145 -45 -147 -43 -3 2 5 51 16 109 23 111 30 306 16 392 -18 102 -124
152 -487 227 -227 47 -332 79 -398 123 -56 38 -102 104 -124 178 -66 224 -67
226 -114 278 -25 28 -50 51 -55 51 -6 0 -17 -17 -26 -37 -22 -53 -12 -155 26
-277 33 -105 41 -199 19 -229 -11 -14 -20 -15 -56 -6 -76 17 -124 49 -227 153
-111 112 -150 139 -165 116 -14 -22 -12 -96 4 -133 8 -18 37 -59 65 -91 52
-62 86 -130 79 -162 -2 -12 -19 -24 -43 -32 -41 -14 -42 -14 -244 20 -37 6
-76 8 -85 5 -15 -6 -15 -10 -1 -44 30 -71 71 -97 237 -152 53 -18 112 -42 130
-55 28 -19 33 -28 32 -59 -2 -46 -20 -68 -107 -124 -79 -50 -94 -77 -72 -128
10 -26 20 -35 38 -35 39 0 129 35 215 84 125 71 177 89 257 90 57 0 78 -4 115
-25 l45 -25 -2 -66 c-1 -84 -26 -141 -134 -305 -43 -66 -86 -136 -93 -155
l-15 -34 -133 -23 c-223 -38 -569 -108 -742 -150 -343 -83 -588 -168 -844
-291 -333 -161 -461 -255 -907 -664 -121 -111 -290 -263 -375 -338 -313 -274
-458 -445 -536 -633 -26 -63 -29 -81 -29 -180 0 -105 2 -113 34 -179 73 -149
234 -268 439 -324 91 -24 112 -26 317 -26 231 -1 359 12 710 70 236 39 286 49
700 150 924 225 945 231 1110 323 128 72 144 77 290 97 205 28 260 41 440 112
99 38 213 78 252 87 92 22 201 17 258 -13 68 -34 162 -151 180 -223 7 -28 -73
-256 -130 -370 -38 -74 -13 -61 -263 -134 -164 -48 -252 -87 -252 -110 0 -8
10 -25 21 -36 23 -23 55 -23 269 -4 73 7 132 -14 139 -49 8 -45 -34 -150 -110
-278 -89 -149 -115 -209 -125 -296 l-6 -60 43 9 c93 21 139 70 223 237 71 142
134 200 233 217 l42 7 11 -43 c8 -30 10 -101 5 -229 -6 -181 -6 -186 17 -225
28 -48 51 -55 85 -23 47 42 63 97 77 260 7 84 20 169 28 188 16 37 70 90 92
90 24 0 105 -80 169 -168 95 -130 149 -172 219 -172 l31 0 -6 68 c-7 85 -31
141 -116 266 -110 163 -116 177 -116 282 l0 92 67 98 c84 123 97 156 104 252
6 87 -4 144 -60 325 -20 65 -39 142 -42 172 -6 51 -5 54 17 59 13 3 141 26
284 50 1838 319 2974 769 3940 1561 640 525 1301 1296 1578 1843 147 290 224
503 412 1142 162 550 202 670 223 670 9 0 116 -34 237 -76 244 -84 449 -140
548 -150 36 -4 69 -9 74 -13 4 -3 25 -40 46 -82 20 -42 70 -126 110 -185 41
-60 103 -152 139 -205 67 -99 148 -255 148 -283 0 -28 -79 -74 -193 -112 -96
-32 -119 -43 -157 -81 -43 -43 -44 -46 -25 -59 10 -8 42 -14 69 -14 64 0 125
-17 133 -36 9 -23 -23 -95 -84 -191 -31 -48 -72 -117 -91 -152 -34 -62 -68
-168 -58 -178 12 -12 78 10 122 40 27 18 89 78 138 135 122 138 150 157 234
157 63 0 67 -1 88 -33 35 -51 39 -111 21 -267 -10 -77 -17 -158 -17 -181 0
-64 26 -137 61 -169 l31 -30 29 34 c33 40 59 115 88 253 27 125 47 184 81 233
41 59 68 71 114 50 50 -24 87 -69 141 -174 48 -93 104 -155 150 -167 38 -10
49 8 53 85 5 88 -11 138 -100 307 -75 144 -75 140 -5 169 55 23 116 18 281
-21 120 -28 166 -35 223 -32 116 6 122 33 22 99 -74 50 -156 80 -344 129 -245
63 -217 45 -253 158 -31 95 -51 173 -131 503 -71 289 -144 471 -242 602 -42
55 -75 84 -182 157 -73 49 -220 158 -327 242 -107 85 -251 194 -320 243 -69
50 -170 133 -226 186 -86 84 -114 104 -200 144 -236 112 -268 129 -319 180
-29 28 -62 70 -75 94 -20 40 -21 49 -11 125 34 260 33 656 -4 943 -136 1065
-695 1965 -1461 2355 -164 84 -577 272 -685 312 -341 128 -716 189 -1138 184
-97 -1 -201 -3 -231 -5z"/>
</g>
</svg>
