<?xml version="1.0" standalone="no"?>
<!DOCTYPE svg PUBLIC "-//W3C//DTD SVG 20010904//EN"
 "http://www.w3.org/TR/2001/REC-SVG-20010904/DTD/svg10.dtd">
<svg version="1.0" xmlns="http://www.w3.org/2000/svg"
 width="1536.000000pt" height="1251.000000pt" viewBox="0 0 1536.000000 1251.000000"
 preserveAspectRatio="xMidYMid meet">
<metadata>
Created by potrace 1.16, written by Peter Selinger 2001-2019
</metadata>
<g transform="translate(0.000000,1251.000000) scale(0.100000,-0.100000)"
fill="#000000" stroke="none">
<path d="M13188 12493 c-27 -31 -45 -75 -108 -257 -33 -97 -78 -220 -100 -273
-23 -53 -54 -152 -70 -220 -41 -172 -74 -266 -125 -353 -50 -87 -108 -223
-130 -306 -16 -62 -36 -96 -125 -214 -93 -122 -178 -255 -218 -337 -32 -68
-57 -99 -192 -237 -182 -185 -312 -300 -430 -379 -47 -31 -143 -107 -215 -168
-155 -134 -244 -201 -345 -259 -41 -24 -90 -55 -108 -69 -43 -33 -112 -125
-169 -223 -50 -87 -93 -138 -117 -138 -9 0 -16 8 -16 18 0 10 47 115 105 232
142 289 150 311 292 750 141 437 186 589 202 675 57 322 75 682 37 740 l-19
29 -27 -30 c-61 -69 -133 -359 -175 -700 -41 -336 -51 -376 -117 -481 -50 -80
-75 -144 -94 -246 -30 -157 -103 -351 -197 -522 -91 -167 -341 -592 -369 -627
-35 -45 -104 -91 -177 -119 -59 -22 -131 -36 -131 -25 0 3 34 74 75 156 42 83
82 179 90 213 20 87 32 255 50 672 23 554 40 769 69 900 31 136 31 245 0 245
-44 0 -166 -411 -208 -700 -8 -58 -22 -238 -31 -401 -18 -357 -39 -539 -82
-724 -21 -93 -42 -131 -102 -193 -63 -64 -103 -142 -137 -269 -24 -84 -33
-104 -68 -139 -48 -47 -175 -104 -240 -107 l-41 -2 1 40 c0 28 21 85 63 177
l64 137 -17 588 c-20 687 -30 901 -43 914 -14 14 -49 -71 -67 -158 -44 -211
-59 -514 -45 -863 16 -385 13 -402 -96 -640 -72 -157 -84 -191 -95 -264 -6
-41 -18 -70 -38 -95 -33 -41 -125 -93 -148 -84 -28 11 -36 56 -44 269 -9 226
-29 410 -61 564 -31 146 -38 214 -40 355 -1 72 -4 159 -8 195 -5 56 -9 65 -26
65 -28 0 -59 -83 -85 -225 -24 -134 -25 -202 -5 -370 28 -245 46 -488 51 -695
6 -246 2 -264 -77 -303 -58 -29 -178 -41 -214 -22 -27 14 -49 63 -60 130 -4
25 -29 146 -56 271 -60 278 -85 429 -104 629 -23 241 -42 311 -77 298 -23 -9
-28 -75 -28 -332 1 -263 9 -350 42 -421 22 -48 23 -59 23 -325 0 -351 -1 -355
-115 -374 -19 -4 -74 -31 -121 -61 -143 -91 -160 -79 -173 120 -3 44 -19 144
-36 223 -16 79 -41 220 -55 315 -37 251 -76 469 -86 490 -6 9 -18 17 -28 17
-48 0 -62 -211 -32 -460 11 -96 26 -222 31 -280 6 -58 18 -139 27 -180 27
-131 5 -299 -49 -381 -35 -52 -208 -126 -320 -136 l-58 -6 0 150 c0 168 -12
313 -40 483 -26 157 -40 328 -40 496 0 158 -7 182 -51 165 -30 -11 -62 -72
-86 -164 -18 -69 -15 -186 12 -492 22 -255 30 -571 16 -623 -14 -49 -25 -56
-125 -72 -79 -13 -146 -44 -229 -106 -63 -47 -100 -55 -116 -26 -5 10 -15 90
-21 177 -21 295 -96 835 -118 857 -17 17 -50 -10 -63 -49 -9 -29 -11 -135 -6
-449 7 -437 0 -561 -31 -604 -18 -25 -36 -35 -142 -84 -30 -14 -87 -55 -127
-90 -40 -35 -81 -67 -93 -71 -27 -9 -58 2 -64 23 -3 9 -10 105 -16 212 -21
383 -70 670 -127 732 -42 47 -45 17 -28 -328 17 -354 19 -594 4 -684 -11 -74
-71 -189 -124 -240 -25 -24 -42 -32 -70 -32 -69 0 -88 33 -139 238 -35 138
-75 250 -148 407 -33 73 -71 160 -84 195 -55 143 -149 302 -179 302 -47 0 39
-334 151 -582 81 -179 154 -466 154 -601 l0 -62 -108 -107 c-108 -106 -148
-131 -181 -111 -9 5 -38 43 -65 84 -75 115 -177 248 -311 408 -167 199 -278
301 -302 277 -8 -7 77 -182 133 -275 59 -97 128 -188 257 -344 122 -145 140
-175 141 -234 1 -64 -49 -109 -186 -166 l-36 -15 -114 91 c-62 50 -165 124
-228 166 -174 112 -223 155 -305 262 -99 128 -219 229 -274 229 -33 0 -26 -22
36 -106 31 -44 89 -128 128 -189 105 -160 302 -352 450 -437 89 -52 155 -118
155 -156 0 -39 -46 -108 -110 -166 -49 -43 -58 -48 -91 -43 -50 7 -154 69
-307 184 -70 52 -163 113 -207 135 -44 22 -123 71 -175 108 -110 78 -176 114
-196 106 -21 -8 -9 -31 84 -154 98 -129 145 -171 287 -249 241 -134 295 -176
295 -227 0 -51 -65 -126 -109 -126 -8 0 -49 20 -91 44 -94 54 -242 122 -375
170 -133 48 -226 94 -332 162 -112 73 -150 89 -169 73 -38 -31 7 -91 150 -198
116 -87 188 -127 252 -141 30 -6 85 -32 129 -60 42 -27 112 -63 155 -80 44
-18 84 -38 91 -46 29 -36 -25 -69 -138 -85 -245 -34 -319 -60 -448 -157 -183
-136 -267 -239 -294 -357 -11 -53 -32 -247 -27 -252 2 -2 34 28 72 67 38 40
100 96 139 125 77 60 198 121 216 109 25 -15 -21 -215 -61 -267 -11 -14 -72
-51 -136 -83 l-116 -59 -284 -3 -284 -3 -63 47 c-176 134 -217 174 -291 288
-99 151 -193 318 -264 468 -94 199 -351 599 -501 780 -93 113 -162 173 -346
305 -77 54 -247 177 -378 272 -344 249 -429 303 -486 309 -36 3 -50 0 -61 -13
-25 -30 12 -78 114 -147 50 -34 147 -103 216 -153 69 -50 238 -172 375 -270
300 -214 364 -264 433 -340 138 -151 319 -446 606 -988 183 -346 234 -427 325
-517 61 -60 101 -89 201 -142 l125 -68 311 0 c171 0 335 5 365 10 29 6 89 30
132 55 44 25 83 45 88 45 9 0 179 -214 179 -226 0 -5 -40 -103 -89 -219 -164
-387 -186 -472 -169 -670 18 -220 63 -377 160 -555 61 -112 132 -214 372 -535
288 -386 338 -485 366 -730 5 -49 10 -140 10 -201 0 -134 -16 -202 -95 -411
-101 -264 -136 -367 -151 -438 -18 -87 -30 -378 -17 -425 21 -81 67 -17 82
115 6 50 15 140 21 200 14 140 40 215 150 445 49 102 96 210 104 240 28 98 46
262 46 420 0 227 -15 297 -111 515 -59 135 -121 235 -218 349 -159 188 -360
472 -433 612 -55 104 -80 222 -81 374 -1 190 33 340 102 458 l27 47 200 5
c196 6 200 6 278 38 101 42 202 109 260 173 98 109 221 333 252 459 15 66 48
110 80 110 31 0 72 -55 79 -106 36 -268 79 -436 170 -662 90 -220 117 -272
147 -272 19 0 20 4 15 48 -8 66 -78 325 -132 487 l-45 136 1 187 c1 169 -1
192 -20 240 -11 29 -21 57 -21 61 0 13 77 114 94 123 23 13 130 -64 161 -115
14 -25 61 -130 104 -234 99 -240 183 -407 246 -491 71 -95 165 -142 165 -83 0
12 -27 73 -60 136 -34 64 -81 170 -106 238 -54 146 -223 494 -288 592 -25 39
-46 73 -46 77 0 3 48 39 107 79 l107 73 82 -87 c97 -104 192 -235 254 -352 55
-105 207 -321 275 -390 57 -59 151 -125 177 -125 29 0 21 24 -27 86 -86 114
-163 230 -235 359 -98 175 -219 357 -329 492 -50 62 -91 114 -91 117 0 9 110
109 146 134 47 32 67 25 149 -48 97 -89 181 -185 318 -365 212 -278 302 -358
531 -471 130 -64 176 -77 176 -49 0 8 -131 144 -291 302 -245 242 -309 312
-403 438 -62 83 -156 201 -210 264 l-97 113 22 24 c34 36 165 124 185 124 23
0 193 -176 307 -318 190 -237 455 -445 752 -592 156 -77 173 -82 188 -59 17
27 -18 65 -162 171 -212 158 -353 278 -527 452 -151 151 -244 267 -244 305 0
9 -20 41 -45 71 -25 30 -57 72 -72 94 l-27 38 23 19 c26 21 112 49 151 49 15
0 52 14 83 30 88 47 91 46 202 -90 38 -47 103 -123 145 -170 41 -47 116 -132
165 -189 259 -301 665 -575 665 -448 0 37 -47 90 -160 180 -133 107 -333 311
-435 447 -43 58 -114 149 -157 203 -77 97 -118 163 -118 190 0 23 33 45 85 57
27 6 64 20 82 31 63 39 76 29 423 -320 312 -314 408 -398 552 -482 116 -68
274 -139 324 -146 41 -5 46 -4 42 13 -4 23 -97 102 -294 249 -117 88 -183 147
-295 266 -79 84 -196 207 -260 273 -181 190 -208 237 -154 272 19 12 60 17
174 22 l149 5 55 -32 c31 -17 87 -42 125 -55 116 -40 170 -80 463 -346 64 -58
136 -118 160 -133 24 -16 71 -48 103 -71 33 -24 81 -51 106 -60 26 -9 109 -51
185 -92 145 -80 229 -117 239 -107 14 14 4 53 -19 81 -14 17 -74 63 -133 103
-159 109 -280 196 -342 249 -30 26 -107 85 -170 133 -63 47 -182 147 -265 222
-82 75 -187 164 -232 197 -46 33 -83 64 -83 68 0 30 87 68 187 80 41 5 116 22
164 37 l89 26 43 -31 c23 -17 92 -63 152 -101 61 -38 146 -99 190 -135 44 -36
116 -95 160 -131 283 -232 771 -527 875 -529 53 -1 61 15 23 50 -33 31 -373
260 -488 329 -85 51 -148 103 -340 281 -134 124 -222 200 -307 262 -96 71
-117 101 -80 121 9 5 63 14 120 19 90 9 111 15 170 48 84 48 130 49 222 7 36
-16 102 -42 147 -57 151 -50 341 -158 553 -314 271 -199 642 -382 774 -382 82
0 67 25 -53 85 -166 83 -336 200 -505 348 -198 174 -447 347 -621 432 -61 30
-121 65 -134 79 -22 23 -22 25 -4 34 10 5 59 15 108 21 121 16 197 36 268 73
l60 30 66 -31 c90 -41 178 -71 211 -71 70 0 201 -64 419 -203 168 -107 272
-167 415 -239 66 -33 137 -71 159 -85 60 -38 137 -61 292 -88 146 -26 205 -31
205 -17 0 20 -42 44 -158 91 -209 86 -344 160 -592 323 -80 52 -212 136 -295
185 -82 49 -179 110 -215 134 -71 49 -199 104 -282 123 -71 15 -75 38 -14 94
95 87 198 117 386 109 233 -9 344 -57 750 -321 189 -123 470 -273 639 -340
138 -55 286 -62 311 -16 8 15 6 23 -11 39 -32 30 -144 85 -239 119 -214 75
-425 194 -807 455 -130 88 -237 144 -377 197 -54 21 -103 45 -107 53 -11 18
21 62 59 81 122 63 449 114 652 103 97 -5 105 -7 346 -95 347 -127 898 -202
1594 -218 273 -6 297 -2 245 41 -16 14 -55 35 -85 46 -107 41 -133 44 -780
104 -361 34 -508 56 -660 100 -117 34 -365 116 -490 163 -30 11 -119 30 -198
42 -79 12 -150 24 -158 27 -73 28 146 132 333 159 85 11 127 23 203 58 108 50
171 61 380 71 181 8 302 23 375 46 103 32 347 19 585 -32 52 -11 127 -25 165
-30 106 -15 175 -35 319 -91 329 -127 659 -206 756 -181 86 22 36 50 -348 194
-494 186 -649 231 -1013 293 -292 50 -397 51 -684 7 -262 -40 -525 -53 -561
-27 -22 17 -15 21 51 30 22 3 72 21 110 40 69 35 108 64 254 190 40 35 109 85
152 111 103 61 210 140 334 248 127 111 209 167 365 252 69 37 153 88 188 114
35 25 80 56 100 67 33 19 545 177 711 219 169 43 372 69 726 95 175 12 270 28
420 70 l108 31 121 -35 c220 -64 416 -103 450 -90 40 15 -1 73 -81 113 -67 33
-300 108 -408 130 -168 34 -309 44 -548 38 -262 -6 -305 -13 -677 -108 -338
-87 -445 -121 -675 -214 -99 -39 -218 -87 -265 -105 -47 -18 -137 -61 -200
-95 -132 -72 -218 -109 -274 -120 -45 -8 -108 -38 -211 -100 -38 -23 -86 -48
-106 -55 -33 -12 -40 -11 -72 9 -42 26 -121 111 -143 154 -26 48 -5 78 115
164 188 135 336 264 445 389 102 116 462 657 530 795 30 63 85 170 121 238 80
152 121 276 219 672 41 167 82 324 92 349 28 76 33 400 5 400 -4 0 -15 -8 -23
-17z m-9232 -8317 c16 -41 -101 -187 -180 -225 -45 -23 -115 -27 -147 -11 -28
15 -23 48 16 110 19 30 35 61 35 70 0 33 29 59 73 63 111 10 198 7 203 -7z"/>
</g>
</svg>
