<?xml version="1.0" standalone="no"?>
<!DOCTYPE svg PUBLIC "-//W3C//DTD SVG 20010904//EN"
 "http://www.w3.org/TR/2001/REC-SVG-20010904/DTD/svg10.dtd">
<svg version="1.0" xmlns="http://www.w3.org/2000/svg"
 width="1215.000000pt" height="1536.000000pt" viewBox="0 0 1215.000000 1536.000000"
 preserveAspectRatio="xMidYMid meet">
<metadata>
Created by potrace 1.16, written by Peter Selinger 2001-2019
</metadata>
<g transform="translate(0.000000,1536.000000) scale(0.100000,-0.100000)"
fill="#000000" stroke="none">
<path d="M3130 15349 c-457 -34 -1104 -148 -1735 -305 -530 -133 -929 -217
-1115 -234 -169 -16 -261 -46 -275 -91 -17 -52 64 -71 251 -57 239 17 535 77
1289 262 632 154 688 165 701 132 3 -8 -13 -47 -35 -88 -47 -87 -61 -145 -37
-154 22 -9 74 27 124 86 24 28 65 61 90 74 234 117 833 192 1042 130 57 -17
94 -56 111 -117 19 -72 4 -371 -37 -732 -33 -293 -37 -359 -38 -590 l-1 -260
28 -75 c63 -166 82 -252 106 -486 15 -142 68 -232 172 -289 43 -23 69 -30 134
-33 71 -3 91 0 187 32 136 46 194 47 286 7 90 -40 196 -59 387 -70 158 -9 215
-20 215 -41 0 -18 -114 -202 -298 -480 -376 -570 -473 -687 -541 -650 -17 9
-340 446 -450 608 -61 91 -121 112 -207 73 -80 -36 -114 -138 -114 -344 0
-222 36 -462 144 -964 l65 -303 -206 -372 c-113 -205 -246 -443 -295 -528
-152 -260 -326 -511 -368 -530 -88 -40 -114 -58 -149 -104 -77 -99 -112 -211
-90 -284 10 -36 9 -50 -15 -125 -14 -47 -64 -158 -110 -248 -251 -491 -362
-715 -450 -909 -315 -687 -631 -1452 -773 -1867 -54 -158 -57 -175 -61 -282
-7 -186 -11 -195 268 519 278 711 426 1062 635 1510 251 536 476 930 531 930
18 0 25 -19 58 -154 44 -177 100 -455 191 -945 121 -655 187 -960 326 -1514
129 -515 262 -970 414 -1417 157 -460 239 -584 629 -952 343 -325 541 -476
609 -466 82 12 -40 147 -528 589 -393 356 -462 464 -626 982 -177 558 -328
1156 -453 1792 -68 345 -94 494 -225 1280 -66 396 -139 823 -162 948 -22 125
-38 239 -35 252 11 42 48 57 149 63 222 11 685 -93 1127 -253 413 -150 622
-257 780 -399 186 -167 370 -253 316 -147 -20 38 -55 73 -174 175 -51 43 -91
80 -89 82 6 7 485 -96 542 -117 81 -29 123 -63 148 -118 19 -42 21 -73 28
-371 23 -971 83 -1835 144 -2068 19 -73 35 -84 116 -79 56 3 83 12 166 54 54
28 133 63 174 79 70 27 81 28 219 27 168 -3 200 7 269 82 119 129 167 326 181
745 5 146 12 294 16 330 9 99 34 199 51 208 26 15 35 163 23 402 -15 312 -41
514 -86 688 -19 69 176 145 440 172 289 30 572 -42 647 -163 40 -67 23 -123
-76 -245 -34 -42 -52 -98 -41 -127 8 -22 51 -39 81 -31 38 10 98 76 140 158
44 84 87 143 118 160 12 7 56 13 97 14 104 2 214 33 428 121 101 41 185 73
188 71 6 -7 -196 -461 -291 -653 -183 -372 -360 -639 -559 -843 -127 -130
-235 -213 -353 -269 -123 -59 -209 -76 -348 -70 -181 7 -192 20 -205 226 -9
143 -29 228 -62 258 -33 29 -43 3 -46 -120 -6 -196 43 -429 98 -469 40 -29
153 -48 290 -48 241 0 323 42 580 300 154 154 250 274 413 515 142 211 221
346 352 595 162 308 254 459 363 588 106 127 217 208 310 227 29 6 32 5 32
-19 0 -103 -294 -1065 -608 -1991 -569 -1675 -1011 -2736 -1374 -3295 -142
-219 -219 -376 -205 -415 20 -52 109 24 212 180 260 395 682 1305 1130 2435
314 793 529 1396 810 2269 144 449 200 604 270 748 69 142 128 204 276 292
194 115 304 227 426 433 69 117 93 148 199 253 131 131 180 198 254 350 65
134 91 215 97 305 7 99 -16 150 -112 246 -176 177 -408 276 -688 295 -212 14
-227 23 -227 123 0 117 39 182 134 227 44 20 135 43 321 79 1126 219 1416 284
1627 360 196 71 251 152 198 292 -43 115 -162 238 -269 278 -144 55 -474 69
-1636 70 -1132 1 -1398 12 -1478 65 -28 18 -41 46 -56 123 -16 78 -56 155
-113 217 -84 92 -145 110 -176 54 -58 -106 -85 -121 -168 -95 -108 34 -324
206 -340 270 -15 63 29 86 189 97 189 13 240 46 314 205 37 81 111 360 137
514 29 175 39 356 33 590 -7 298 -32 452 -93 573 -53 104 -104 403 -104 608 0
134 7 168 35 181 41 18 489 -22 738 -67 256 -46 370 -99 461 -213 27 -34 55
-62 63 -62 16 0 17 -10 -7 105 -25 121 -25 137 0 160 17 15 31 17 102 12 90
-7 252 -35 381 -66 76 -18 131 -36 277 -89 153 -56 685 -109 1170 -118 285 -6
369 -1 377 23 11 32 -176 68 -441 83 -294 16 -706 82 -1256 200 -369 79 -554
113 -810 149 -423 59 -811 82 -1035 62 -208 -19 -263 -38 -294 -99 -52 -102
-60 -271 -68 -1434 -6 -916 -8 -1008 -22 -1008 -71 0 -503 64 -576 85 -249 72
-435 198 -501 340 -32 68 -31 128 6 223 93 244 103 424 32 570 -63 129 -251
228 -477 251 -112 11 -141 24 -155 67 -13 39 -63 85 -128 118 -68 34 -177 66
-228 66 -36 0 -49 -6 -79 -36 -36 -35 -37 -36 -95 -29 -69 8 -85 1 -157 -67
-75 -70 -159 -106 -274 -119 -113 -13 -144 -25 -204 -80 -83 -76 -125 -190
-126 -335 0 -103 13 -167 49 -239 56 -113 113 -159 247 -200 177 -54 203 -116
93 -226 -97 -97 -193 -145 -387 -194 -273 -69 -752 -84 -913 -30 -82 29 -78
13 -147 490 -90 626 -120 889 -146 1272 -24 358 -48 463 -123 536 -93 90 -255
113 -622 86z m3455 -2024 c144 -37 264 -124 336 -246 69 -116 55 -124 -209
-117 -143 3 -174 7 -214 25 -41 19 -48 26 -53 60 -3 21 -17 75 -31 119 -29 97
-30 126 -6 146 36 32 88 36 177 13z m-946 -177 c43 -135 25 -268 -38 -268 -73
0 -86 92 -31 223 17 42 38 77 45 77 7 0 18 -15 24 -32z m-64 -589 c65 -16 86
-44 96 -131 12 -103 50 -955 49 -1121 0 -142 -14 -302 -31 -372 -6 -22 -32
-89 -59 -150 -125 -286 -178 -549 -189 -940 -5 -171 -11 -247 -20 -264 l-14
-25 -24 30 c-27 33 -104 161 -188 314 -112 205 -279 445 -504 725 -330 410
-401 503 -401 525 0 21 140 243 391 620 406 609 517 743 653 786 51 16 183 18
241 3z m1460 -35 c250 -28 409 -74 606 -175 113 -58 366 -219 507 -323 73 -54
73 -52 20 -169 -20 -42 -48 -83 -76 -108 -54 -51 -166 -104 -264 -125 -330
-73 -525 -139 -793 -269 -230 -112 -344 -193 -359 -258 -14 -58 -124 -89 -165
-48 -46 46 -53 106 -58 444 -8 510 23 799 103 959 26 51 55 76 107 89 39 10
199 3 372 -17z m-3099 -1434 c42 -62 36 -114 -25 -235 -65 -128 -102 -174
-128 -159 -52 31 -98 247 -108 509 l-6 170 121 -123 c66 -68 132 -141 146
-162z m251 -445 c41 -55 136 -192 210 -305 353 -535 463 -674 767 -975 220
-217 235 -237 262 -366 13 -61 15 -123 11 -344 -3 -148 -9 -283 -13 -298 -9
-36 -14 -35 -202 33 -169 61 -322 101 -502 130 -457 73 -435 67 -471 134 -80
148 -294 907 -390 1381 -28 138 -33 182 -33 315 l-1 156 37 74 c40 81 113 171
162 201 30 18 30 18 59 -9 16 -15 63 -72 104 -127z m5452 -96 c111 -20 155
-89 91 -143 -70 -58 -250 -80 -675 -80 -324 -1 -378 3 -425 33 -23 15 12 46
73 64 160 49 472 118 567 126 157 12 295 12 369 0z m-1262 -202 c70 -15 84
-24 63 -38 -59 -37 -281 -62 -553 -63 -229 -1 -229 -1 -248 23 -36 44 -16 78
56 91 77 14 608 4 682 -13z m-1363 -97 c14 -5 26 -16 26 -24 0 -25 -79 -115
-120 -136 -96 -49 -168 -2 -128 85 26 58 154 101 222 75z m-3373 -145 c10 -17
51 -147 93 -290 41 -143 107 -361 147 -485 148 -462 173 -564 155 -633 -8 -35
-54 -51 -119 -43 -263 34 -971 218 -1007 262 -16 19 52 158 284 576 280 504
376 653 415 646 8 -2 23 -17 32 -33z m3239 -1485 c24 -24 25 -34 1 -85 -31
-70 -114 -128 -157 -111 -41 16 17 159 79 197 40 24 52 24 77 -1z"/>
<path d="M763 140 c-443 -14 -723 -36 -747 -60 -48 -48 419 -69 1694 -77 1433
-8 2401 17 2489 67 40 22 -104 43 -419 61 -229 13 -2638 20 -3017 9z"/>
</g>
</svg>
