<?xml version="1.0" standalone="no"?>
<!DOCTYPE svg PUBLIC "-//W3C//DTD SVG 20010904//EN"
 "http://www.w3.org/TR/2001/REC-SVG-20010904/DTD/svg10.dtd">
<svg version="1.0" xmlns="http://www.w3.org/2000/svg"
 width="907.000000pt" height="1536.000000pt" viewBox="0 0 907.000000 1536.000000"
 preserveAspectRatio="xMidYMid meet">
<metadata>
Created by potrace 1.16, written by Peter Selinger 2001-2019
</metadata>
<g transform="translate(0.000000,1536.000000) scale(0.100000,-0.100000)"
fill="#000000" stroke="none">
<path d="M5605 15351 c-11 -5 -35 -24 -53 -42 -37 -38 -57 -99 -68 -204 -9
-98 -17 -115 -52 -115 -27 0 -57 16 -132 71 -16 13 -32 20 -35 17 -3 -3 35
-35 84 -71 122 -90 125 -95 129 -292 4 -187 -4 -316 -23 -341 -12 -16 -16 -17
-39 -5 -14 8 -80 61 -147 118 -66 58 -122 103 -125 101 -2 -2 57 -65 132 -138
75 -74 142 -146 150 -161 21 -41 35 -154 32 -249 -3 -83 -4 -85 -27 -82 -31 3
-153 84 -186 124 -30 35 -46 31 -21 -7 20 -31 84 -78 151 -112 28 -14 58 -32
68 -41 25 -22 22 -101 -7 -198 -13 -43 -31 -116 -40 -162 -24 -116 -63 -224
-178 -482 -55 -124 -118 -280 -140 -347 -38 -120 -59 -153 -96 -153 -31 0
-126 57 -163 98 -71 76 -94 150 -129 417 -23 174 -44 266 -91 402 -41 117
-173 389 -240 494 l-54 84 1 110 c2 96 1 103 -7 55 -15 -94 -31 -150 -41 -150
-18 0 -137 90 -242 182 l-101 88 -1 147 c-1 90 -8 169 -16 203 l-15 55 -6 -34
c-4 -18 -7 -71 -7 -118 0 -86 -10 -123 -34 -123 -7 0 -62 36 -122 80 -181 132
-317 188 -435 177 -63 -5 -130 -36 -153 -69 -34 -49 -4 -155 70 -244 18 -23
34 -45 34 -48 0 -13 -116 -2 -195 20 -19 5 -19 4 -2 -10 10 -8 51 -20 90 -27
40 -6 89 -18 110 -25 62 -22 348 -218 408 -281 102 -105 229 -277 229 -310 0
-17 -148 -18 -250 -2 -88 13 -134 8 -75 -8 22 -6 72 -17 110 -23 39 -6 109
-20 157 -31 l87 -21 65 -111 c84 -145 120 -225 145 -323 58 -231 63 -523 11
-580 -31 -32 -101 -57 -161 -58 -44 -1 -52 3 -94 44 -56 55 -133 182 -242 398
-80 161 -173 378 -173 406 0 17 33 22 190 31 149 9 152 25 4 25 -152 0 -207
15 -267 73 -75 73 -72 118 19 299 30 59 50 108 45 108 -14 0 -75 -78 -99 -126
-12 -23 -29 -49 -38 -58 -15 -16 -18 -16 -35 0 -10 9 -42 60 -70 113 -28 53
-90 155 -137 226 l-86 130 3 150 c1 103 -2 160 -10 180 l-12 30 -9 -55 c-5
-30 -13 -84 -19 -120 -5 -36 -13 -71 -18 -78 -5 -9 -27 5 -75 48 -112 98 -221
150 -316 150 -59 0 -85 -25 -101 -98 -16 -79 -6 -113 65 -206 35 -45 69 -92
75 -105 21 -38 -7 -65 -99 -96 -44 -15 -83 -31 -86 -37 -8 -12 -7 -12 140 33
l109 33 23 -29 c55 -68 107 -269 76 -289 -6 -4 -39 -2 -74 4 -35 5 -129 13
-209 16 -141 7 -219 1 -219 -15 0 -4 46 -13 103 -20 208 -25 463 -85 499 -118
38 -34 173 -352 156 -368 -2 -3 -51 11 -109 31 -62 21 -132 37 -174 40 -87 7
-76 -2 71 -54 134 -48 201 -82 236 -119 35 -36 68 -109 68 -150 0 -28 -4 -33
-22 -33 -38 0 -141 35 -192 65 -26 15 -49 25 -52 22 -7 -7 82 -67 207 -140
131 -76 141 -104 53 -143 -91 -40 -210 -130 -236 -177 -10 -19 -9 -19 13 -3
13 9 29 16 36 16 7 0 44 21 83 46 39 25 95 56 125 69 64 29 52 43 123 -135 72
-178 85 -231 86 -335 1 -108 -20 -177 -67 -223 -62 -60 -183 -95 -251 -72 -48
15 -52 26 -19 44 37 19 118 94 110 102 -3 4 -25 -9 -47 -29 -72 -61 -119 -55
-152 20 -35 78 -30 120 20 192 24 34 42 66 40 72 -2 6 -15 -6 -29 -27 -14 -22
-38 -45 -53 -53 -33 -18 -39 -13 -151 136 -81 110 -130 153 -171 153 -12 0
-46 -20 -76 -44 l-54 -44 -85 99 c-46 55 -97 123 -113 152 l-28 52 5 208 c2
115 1 205 -4 200 -6 -6 -69 -315 -69 -339 0 -13 -30 0 -52 24 -38 39 -48 73
-48 165 0 98 -10 137 -46 180 l-27 32 6 -30 c18 -88 29 -184 24 -199 -4 -9
-17 -16 -29 -16 -40 0 -171 81 -235 145 -56 56 -63 67 -69 116 l-7 54 -16 -50
c-15 -45 -20 -51 -61 -65 -55 -19 -80 -62 -87 -154 -5 -55 -2 -69 26 -123 36
-72 151 -227 247 -333 l68 -75 -120 -7 c-192 -12 -192 -20 5 -53 77 -14 161
-34 186 -46 40 -19 105 -81 105 -100 0 -4 -75 -7 -167 -6 -100 0 -178 -4 -193
-10 l-25 -11 25 -5 c14 -3 90 -8 170 -11 152 -5 210 -18 281 -62 80 -50 132
-150 230 -444 60 -181 67 -218 45 -226 -9 -4 -99 21 -199 54 -331 110 -596
146 -919 124 -286 -19 -588 -76 -751 -142 -42 -16 -84 -30 -94 -30 -10 0 -48
-15 -85 -34 -228 -114 -331 -263 -268 -385 33 -66 61 -81 150 -81 101 0 107
-7 79 -91 -19 -61 -39 -274 -21 -239 4 8 32 89 62 180 30 91 59 165 64 165 6
0 38 -38 73 -85 35 -47 76 -101 93 -120 l29 -35 0 35 c1 37 -27 92 -92 184
-54 75 -48 87 66 142 152 73 382 121 539 112 43 -3 80 -7 83 -9 2 -3 9 -76 15
-163 5 -86 14 -165 20 -174 12 -21 9 -36 24 157 14 185 20 197 86 185 86 -15
327 -115 345 -143 4 -7 1 -20 -7 -31 -84 -118 -170 -252 -165 -256 3 -4 21 18
40 47 72 113 211 209 277 192 26 -7 22 -17 -29 -86 -44 -59 -128 -208 -137
-244 -13 -49 18 -19 86 84 39 59 85 136 102 170 l31 63 29 -18 c44 -25 174
-164 197 -211 26 -50 27 -87 3 -100 -28 -15 -200 -174 -219 -202 l-16 -24 24
20 c13 12 46 40 72 63 26 24 67 51 90 61 23 10 59 33 81 50 21 17 42 28 47 25
25 -15 2 -71 -110 -264 -105 -182 -24 -125 118 84 l71 105 43 -15 c95 -33 228
-105 239 -129 16 -36 6 -50 -71 -99 -38 -25 -95 -70 -125 -102 -55 -55 -66
-74 -46 -74 6 0 10 4 10 9 0 14 126 95 193 125 87 38 133 49 157 36 31 -17 25
-26 -37 -60 -61 -32 -197 -143 -215 -174 -17 -31 21 -4 79 57 60 62 174 124
245 133 43 6 50 4 76 -23 20 -20 34 -48 43 -86 11 -53 11 -60 -8 -85 -11 -15
-81 -65 -157 -111 -75 -46 -135 -85 -133 -87 2 -3 48 18 101 46 53 27 106 50
119 50 12 0 31 7 41 15 46 35 49 24 40 -107 -16 -215 -11 -502 9 -596 27 -127
72 -250 154 -427 l74 -161 -49 -104 c-79 -169 -105 -262 -123 -431 -12 -116 0
-229 30 -287 37 -71 132 -141 296 -218 146 -68 246 -96 364 -102 135 -6 194 7
277 64 71 49 84 52 107 26 26 -29 44 -81 85 -249 42 -172 72 -241 164 -383 74
-113 119 -205 163 -330 94 -270 153 -601 191 -1070 21 -266 30 -1080 15 -1455
-35 -887 -104 -1270 -312 -1735 -104 -233 -145 -296 -284 -436 -179 -181 -313
-260 -457 -271 -97 -8 -124 0 -239 74 -57 37 -125 73 -152 79 -33 9 -98 11
-220 7 l-172 -5 -77 31 c-143 58 -278 31 -278 -56 0 -61 180 -351 315 -508 94
-109 146 -187 215 -324 168 -336 553 -970 646 -1063 85 -87 175 -111 231 -64
36 31 49 71 63 206 20 183 32 216 125 350 75 107 102 165 120 261 24 129 44
187 76 224 16 18 87 71 157 118 273 180 476 387 681 695 217 325 439 862 576
1397 77 299 96 431 135 950 11 149 32 385 45 525 27 281 40 482 55 850 27 649
63 1081 125 1506 45 308 71 377 227 610 167 250 224 381 308 714 28 113 60
234 70 270 l20 65 82 35 c46 19 119 44 164 55 104 27 194 87 319 209 139 137
216 265 250 419 14 65 17 110 12 255 -7 247 -33 328 -142 437 -115 115 -223
152 -416 141 l-116 -7 -38 83 c-58 126 -87 216 -92 290 -6 66 -5 68 21 78 15
5 122 11 239 11 225 2 204 9 -65 24 -125 6 -140 9 -163 31 -32 30 -32 66 0
130 49 99 298 354 360 370 14 3 37 3 51 0 38 -10 130 -75 213 -150 39 -36 74
-66 79 -66 8 0 -77 82 -196 188 -45 40 -82 77 -82 82 0 5 10 12 21 15 12 4 72
56 134 116 62 60 117 109 122 109 6 0 59 -30 119 -66 177 -107 193 -110 44 -9
-100 69 -140 104 -140 123 0 33 87 134 140 162 19 10 82 62 140 114 113 104
167 138 257 161 70 18 163 19 186 3 17 -14 36 -105 58 -290 6 -54 15 -98 20
-98 21 0 23 203 3 352 -6 45 -5 48 27 67 63 39 161 18 222 -47 16 -16 64 -101
108 -188 88 -178 93 -164 17 51 -27 77 -52 148 -55 158 -4 14 1 17 28 17 19 0
56 -6 83 -13 l48 -13 24 -74 c13 -41 45 -158 70 -260 25 -102 50 -192 55 -200
15 -27 9 101 -10 210 -58 323 -57 309 -40 325 8 8 51 22 95 29 l79 14 50 -47
c115 -109 153 -102 62 11 -32 40 -32 39 -11 215 5 43 2 61 -20 109 -15 33 -37
70 -49 82 -78 84 -298 122 -702 122 -305 0 -492 -30 -723 -116 -129 -48 -455
-207 -562 -274 -217 -136 -242 -148 -286 -128 -25 11 -44 59 -44 109 0 51 39
178 81 260 150 301 453 619 776 815 153 94 160 101 178 206 8 50 36 81 174
196 63 53 109 98 103 100 -16 5 -164 -94 -230 -153 -27 -25 -57 -45 -67 -45
-21 0 -54 17 -82 43 -31 28 -30 99 2 286 26 148 32 235 15 196 -5 -11 -26 -92
-46 -180 -60 -265 -60 -264 -224 -310 -114 -33 -273 -108 -355 -170 -270 -203
-466 -437 -575 -685 -56 -128 -89 -187 -132 -235 -49 -57 -55 -49 -63 78 -11
181 -2 708 12 734 11 18 22 21 65 21 33 0 78 10 118 25 l65 26 -106 -2 c-131
-2 -150 6 -180 80 -32 79 -84 112 -200 128 l-46 7 -6 126 c-11 231 9 296 105
345 45 23 75 30 160 37 58 5 121 15 140 23 32 14 68 50 68 69 0 15 -32 8 -57
-11 -40 -32 -125 -44 -257 -37 -66 4 -123 9 -129 13 -16 10 -2 146 19 188 10
22 38 53 61 70 23 16 68 53 101 81 33 29 66 54 74 57 7 2 10 8 6 12 -4 4 -29
-6 -55 -23 -68 -45 -146 -82 -187 -89 -33 -5 -34 -4 -40 33 -3 22 -13 122 -21
224 -17 202 -34 300 -69 395 -57 157 -128 219 -211 186z m119 -2582 c8 -40 8
-117 0 -146 -13 -47 -24 -8 -24 83 0 93 12 124 24 63z"/>
</g>
</svg>
