<?xml version="1.0" standalone="no"?>
<!DOCTYPE svg PUBLIC "-//W3C//DTD SVG 20010904//EN"
 "http://www.w3.org/TR/2001/REC-SVG-20010904/DTD/svg10.dtd">
<svg version="1.0" xmlns="http://www.w3.org/2000/svg"
 width="1536.000000pt" height="1013.000000pt" viewBox="0 0 1536.000000 1013.000000"
 preserveAspectRatio="xMidYMid meet">
<metadata>
Created by potrace 1.16, written by Peter Selinger 2001-2019
</metadata>
<g transform="translate(0.000000,1013.000000) scale(0.100000,-0.100000)"
fill="#000000" stroke="none">
<path d="M2423 10115 c-79 -22 -150 -61 -208 -116 -52 -49 -52 -49 -70 -29
-33 36 -120 88 -183 109 -108 37 -258 24 -630 -54 -337 -71 -443 -109 -529
-193 l-44 -42 -63 6 c-45 5 -79 2 -122 -11 -84 -24 -432 -195 -476 -234 -21
-18 -50 -58 -65 -89 -23 -47 -28 -70 -28 -132 1 -124 58 -214 169 -266 70 -33
154 -31 375 6 186 31 241 46 298 81 l34 21 52 -23 c46 -21 67 -24 177 -24 69
1 215 11 325 22 110 12 250 25 310 28 195 12 302 50 395 141 l36 34 34 -36
c44 -44 113 -89 170 -109 25 -9 106 -23 180 -31 231 -24 351 -49 530 -106 86
-27 104 -29 195 -25 55 2 107 7 116 11 12 5 19 -5 32 -46 24 -77 62 -132 170
-246 101 -107 199 -246 282 -401 61 -114 138 -195 230 -242 55 -29 65 -37 60
-54 -51 -164 -46 -231 35 -470 33 -99 90 -277 126 -395 36 -118 78 -237 92
-265 27 -50 126 -158 171 -186 23 -14 23 -16 8 -40 -28 -42 -57 -139 -63 -208
-5 -54 2 -103 35 -266 23 -110 57 -257 76 -326 41 -147 127 -365 174 -438 58
-90 160 -167 270 -205 l34 -12 1 -130 c3 -188 25 -237 221 -469 153 -181 413
-423 547 -508 106 -67 255 -86 413 -52 28 6 32 3 58 -49 64 -124 211 -230 362
-261 337 -68 887 -25 1096 86 77 41 186 156 219 229 l24 56 126 -1 c209 0 283
37 495 250 213 213 423 473 490 604 52 103 66 244 39 386 -5 28 -1 32 50 63
66 39 148 119 184 181 43 74 69 161 122 408 28 131 64 285 79 343 53 192 61
287 31 391 -8 28 -6 31 39 54 78 39 154 117 236 243 95 144 170 243 292 389
116 138 157 205 180 294 17 67 18 69 50 69 69 0 144 24 282 92 199 97 312 139
472 173 101 22 173 52 240 102 61 45 63 45 88 29 74 -49 155 -77 293 -100 186
-32 254 -54 420 -133 88 -41 160 -69 201 -76 l64 -11 17 -70 c16 -69 35 -109
129 -270 63 -108 111 -227 153 -375 39 -138 56 -176 108 -245 l36 -46 -25 -38
c-38 -57 -72 -150 -85 -232 -23 -149 -62 -244 -166 -400 -37 -56 -73 -126 -88
-170 l-25 -75 -76 -13 c-105 -18 -154 -38 -303 -124 -70 -41 -232 -133 -361
-204 -155 -85 -253 -146 -290 -179 -62 -57 -124 -146 -148 -216 l-17 -47 -100
-4 c-173 -9 -258 -53 -473 -247 -190 -171 -420 -444 -498 -592 -48 -92 -68
-184 -62 -284 3 -44 9 -89 12 -100 4 -16 -3 -24 -33 -38 -117 -53 -216 -159
-270 -289 -128 -309 -224 -878 -178 -1058 22 -87 55 -153 113 -225 l49 -60
-34 -65 c-49 -96 -69 -211 -54 -311 40 -277 317 -796 528 -988 90 -83 228
-140 335 -141 l36 0 17 -67 c31 -129 100 -233 204 -309 176 -130 508 -277 810
-360 184 -51 344 -32 478 56 l57 37 73 -53 c103 -73 182 -99 309 -98 313 0
886 214 1071 398 70 70 127 175 145 267 l12 59 51 0 c119 0 252 58 343 149
122 122 455 604 529 766 13 28 29 85 35 127 12 73 8 120 -17 229 -5 23 0 28
63 59 84 42 161 117 202 198 88 174 215 796 197 966 -7 68 -41 150 -87 207
l-32 40 26 27 c13 15 35 47 48 72 37 69 33 219 -10 405 -48 206 -78 262 -163
306 -95 49 -199 30 -271 -51 -50 -56 -50 -56 -97 -315 -35 -201 -37 -247 -10
-317 l20 -53 -22 -18 c-122 -95 -143 -124 -203 -297 -66 -189 -129 -347 -187
-470 -28 -58 -56 -127 -64 -155 -16 -55 -19 -157 -9 -227 l7 -46 -39 -12 c-72
-23 -150 -71 -200 -123 -27 -29 -103 -126 -169 -217 -65 -91 -155 -209 -199
-264 -162 -199 -204 -271 -221 -375 l-6 -38 -74 -7 c-95 -9 -127 -20 -309
-111 -160 -80 -285 -120 -410 -131 -83 -8 -177 -41 -241 -84 -50 -35 -41 -37
-117 27 -47 38 -118 68 -292 122 -132 41 -277 106 -395 178 -92 55 -154 79
-240 92 -41 7 -76 13 -78 15 -2 2 -10 31 -18 65 -16 71 -58 159 -106 222 -102
134 -192 296 -223 404 -32 111 -66 182 -117 245 l-51 63 31 56 c35 65 57 147
67 246 15 168 49 324 111 510 40 121 54 246 36 322 l-10 43 60 32 c83 44 138
95 232 217 86 112 216 248 357 373 94 84 146 154 175 235 l18 52 86 0 c118 0
180 22 405 142 427 227 544 298 626 379 80 79 129 161 153 256 l12 49 67 7
c82 8 123 21 209 65 195 101 410 452 518 843 35 125 60 265 60 329 -1 112 -51
254 -123 345 -27 34 -29 40 -17 60 135 209 133 383 -6 762 -57 153 -177 395
-257 516 -104 156 -235 250 -389 280 l-66 12 -12 58 c-19 98 -74 194 -160 279
-67 67 -93 84 -221 147 -164 82 -293 130 -459 173 -131 34 -341 69 -415 69
-116 0 -262 -52 -350 -125 l-41 -33 -52 33 c-143 90 -297 102 -522 42 -314
-83 -674 -242 -818 -360 -91 -75 -157 -182 -184 -295 l-12 -51 -51 -6 c-136
-17 -246 -69 -339 -159 -118 -116 -393 -481 -507 -674 -76 -127 -93 -186 -93
-317 0 -60 5 -122 12 -136 10 -26 8 -28 -50 -64 -135 -84 -213 -197 -266 -390
-45 -162 -151 -647 -167 -761 -5 -44 3 -123 21 -200 4 -17 -4 -27 -44 -52 -78
-48 -119 -89 -193 -194 -99 -139 -153 -203 -314 -369 -115 -118 -148 -159
-176 -216 l-34 -70 -100 4 c-78 4 -119 0 -187 -16 -158 -38 -267 -46 -418 -31
-162 16 -240 15 -301 -3 l-45 -14 -27 51 c-34 65 -94 128 -198 207 -108 82
-201 170 -291 277 -161 190 -212 234 -319 272 l-54 18 3 99 c4 115 -3 150 -63
293 -49 119 -68 181 -125 430 -22 96 -54 203 -70 238 -31 66 -119 168 -177
203 l-33 20 19 37 c63 123 68 254 16 429 -77 264 -226 684 -270 758 -41 71
-124 147 -201 185 -38 19 -70 35 -71 35 -1 1 7 30 18 65 26 83 22 227 -9 307
-48 125 -281 479 -407 620 -218 243 -345 314 -540 300 -44 -3 -89 -9 -101 -12
-18 -6 -23 0 -34 40 -28 99 -131 220 -230 270 -138 69 -494 148 -790 175 -149
13 -213 12 -277 -5z"/>
</g>
</svg>
