<?xml version="1.0" standalone="no"?>
<!DOCTYPE svg PUBLIC "-//W3C//DTD SVG 20010904//EN"
 "http://www.w3.org/TR/2001/REC-SVG-20010904/DTD/svg10.dtd">
<svg version="1.0" xmlns="http://www.w3.org/2000/svg"
 width="690.000000pt" height="335.000000pt" viewBox="0 0 690.000000 335.000000"
 preserveAspectRatio="xMidYMid meet">
<metadata>
Created by potrace 1.16, written by Peter Selinger 2001-2019
</metadata>
<g transform="translate(0.000000,335.000000) scale(0.100000,-0.100000)"
fill="#000000" stroke="none">
<path d="M2592 3235 c-35 -58 -64 -105 -66 -105 -1 0 -17 21 -33 48 -17 26
-42 57 -56 70 l-24 22 -31 -67 c-17 -38 -39 -99 -48 -138 -28 -118 -24 -114
-72 -70 -28 25 -46 52 -55 83 l-13 45 -24 -54 c-12 -30 -34 -101 -48 -159 -14
-58 -27 -107 -29 -109 -1 -2 -19 9 -39 24 l-36 27 7 -111 8 -111 -30 0 c-59 0
-206 -31 -313 -65 -248 -81 -514 -252 -870 -559 -58 -50 -226 -197 -375 -326
-149 -129 -292 -253 -318 -274 -27 -22 -55 -53 -64 -70 -8 -17 -25 -41 -36
-54 -18 -20 -19 -24 -7 -32 8 -5 22 -10 30 -10 8 0 29 -8 45 -18 17 -10 68
-31 115 -47 91 -30 175 -68 185 -85 8 -13 11 -13 -76 5 -93 19 -250 34 -284
28 -28 -6 -32 -27 -13 -68 23 -51 285 -159 478 -199 82 -16 457 -46 640 -51
63 -1 149 -7 190 -13 41 -6 224 -18 405 -27 182 -9 343 -19 358 -23 23 -6 34
-20 59 -77 81 -184 200 -360 337 -496 175 -174 259 -201 310 -101 11 21 24 65
30 98 15 87 54 465 48 470 -3 3 -60 20 -127 39 -67 19 -124 36 -126 38 -2 2
191 9 429 15 237 7 533 17 657 23 269 14 276 12 334 -75 20 -31 39 -56 42 -56
2 0 13 5 23 12 21 13 35 3 172 -112 30 -25 48 -37 41 -28 -13 16 -11 16 20 7
80 -23 224 -39 358 -39 160 0 232 9 331 40 224 72 282 280 125 448 -71 76
-190 120 -336 123 -42 1 -38 3 70 39 160 53 246 70 385 77 152 6 237 -11 361
-72 116 -58 191 -109 350 -237 188 -152 362 -262 539 -341 89 -40 270 -102
327 -112 l37 -7 -30 88 c-108 319 -160 664 -160 1064 0 389 51 761 157 1129
19 68 33 125 31 128 -14 14 -367 -163 -530 -265 -166 -104 -301 -209 -461
-357 -169 -157 -239 -205 -350 -242 -75 -25 -93 -27 -236 -26 -159 1 -290 21
-245 37 11 5 33 13 49 19 43 16 94 64 118 111 30 57 36 174 13 252 -55 190
-234 372 -448 454 -159 62 -233 74 -437 74 -195 0 -313 -15 -553 -69 -60 -14
-113 -25 -117 -25 -4 0 -25 22 -45 49 l-38 49 -53 -5 c-50 -5 -55 -4 -87 28
-31 31 -39 34 -79 31 -57 -5 -101 17 -118 58 -8 20 -20 30 -34 30 -55 1 -156
77 -156 118 0 27 -21 19 -41 -17 -21 -39 -23 -40 -49 -26 -36 18 -89 80 -107
123 l-15 35 -30 -54 c-17 -30 -33 -56 -35 -59 -9 -9 -80 79 -109 135 -16 30
-31 55 -34 55 -3 0 -33 -47 -68 -105z"/>
</g>
</svg>
