<?xml version="1.0" standalone="no"?>
<!DOCTYPE svg PUBLIC "-//W3C//DTD SVG 20010904//EN"
 "http://www.w3.org/TR/2001/REC-SVG-20010904/DTD/svg10.dtd">
<svg version="1.0" xmlns="http://www.w3.org/2000/svg"
 width="919.000000pt" height="1536.000000pt" viewBox="0 0 919.000000 1536.000000"
 preserveAspectRatio="xMidYMid meet">
<metadata>
Created by potrace 1.16, written by Peter Selinger 2001-2019
</metadata>
<g transform="translate(0.000000,1536.000000) scale(0.100000,-0.100000)"
fill="#000000" stroke="none">
<path d="M3158 15336 c-198 -70 -568 -314 -782 -517 -163 -154 -253 -277 -280
-383 -18 -70 -42 -99 -95 -114 -56 -17 -74 -43 -82 -118 -3 -36 -9 -68 -13
-71 -3 -3 -24 7 -46 22 -22 15 -43 25 -47 21 -4 -3 -7 -60 -7 -126 -1 -128
-11 -151 -36 -82 -9 22 -19 44 -23 48 -4 4 -7 -40 -7 -99 0 -102 -10 -157 -28
-157 -5 0 -13 27 -16 61 -5 39 -11 59 -19 56 -19 -6 -25 -45 -26 -159 -1 -65
-5 -108 -11 -108 -5 0 -10 6 -10 14 0 8 -9 24 -20 37 -20 24 -20 24 -36 4 -13
-17 -15 -39 -11 -133 l5 -113 -22 33 c-31 47 -48 42 -71 -22 -15 -44 -19 -82
-20 -192 -1 -159 -10 -182 -52 -134 l-25 30 8 -100 c11 -127 9 -257 -6 -283
-14 -27 -28 -26 -57 1 l-23 21 0 -25 c0 -14 5 -62 11 -107 6 -45 8 -85 5 -89
-4 -3 -17 7 -30 23 -16 20 -25 25 -30 16 -14 -22 5 -84 35 -119 25 -28 29 -41
29 -88 0 -50 -2 -56 -30 -72 l-29 -17 25 -20 c24 -19 25 -24 15 -60 -6 -22
-15 -94 -21 -160 -13 -157 -34 -239 -68 -266 l-26 -20 29 -24 30 -23 -1 -139
c-1 -146 -23 -286 -48 -311 -12 -12 -17 -12 -37 2 -13 9 -30 16 -38 16 -22 0
-7 -139 23 -203 15 -33 32 -104 46 -192 14 -89 35 -175 57 -235 28 -76 33
-104 29 -140 -5 -39 -3 -47 19 -65 17 -14 28 -36 35 -74 6 -30 17 -64 25 -75
8 -12 23 -32 32 -45 17 -23 17 -24 -21 -56 -43 -36 -43 -37 39 -70 l50 -20 3
-55 c4 -62 9 -70 54 -84 26 -9 39 -24 63 -71 26 -52 36 -62 70 -73 22 -7 60
-33 85 -56 25 -24 61 -52 80 -61 43 -21 70 -44 70 -59 0 -25 -21 -40 -61 -45
l-43 -6 59 -35 c34 -20 71 -52 86 -75 33 -48 66 -64 139 -65 84 -1 180 -17
199 -34 20 -18 140 -67 356 -146 195 -71 341 -135 436 -190 71 -42 120 -63
187 -80 24 -6 42 -17 42 -25 0 -20 47 -53 94 -66 67 -18 86 -34 86 -77 0 -45
-31 -99 -62 -107 -23 -6 -505 71 -628 100 -36 9 -82 27 -102 41 -39 28 -75 29
-70 2 1 -9 -2 -19 -7 -22 -28 -18 -143 -29 -376 -36 -198 -6 -274 -12 -320
-25 -33 -10 -87 -18 -120 -19 -54 -1 -73 5 -190 62 -72 34 -138 62 -148 62
-27 0 -20 -24 18 -71 72 -85 68 -109 -17 -109 -67 0 -103 21 -119 67 -21 66
-47 110 -69 116 -20 5 -21 11 -18 74 l3 68 -32 3 c-52 5 -58 21 -44 112 16 96
12 112 -26 104 -40 -8 -64 22 -113 141 -23 55 -62 138 -88 184 -41 76 -46 92
-51 170 l-6 86 -30 0 -30 0 4 96 c3 103 -12 159 -49 179 -34 18 -32 41 7 74
43 38 41 66 -5 66 -38 0 -48 13 -56 73 -4 27 -18 69 -31 93 -14 27 -26 70 -30
111 -15 172 -25 225 -46 251 -18 24 -20 35 -14 103 8 85 1 119 -21 119 -8 0
-22 17 -31 37 -21 51 -13 134 16 174 23 30 22 54 -1 31 -7 -7 -20 -12 -29 -12
-15 0 -13 13 18 106 19 59 31 114 28 122 -9 25 -54 -26 -62 -70 -8 -52 -24
-43 -45 23 -19 62 -25 220 -6 182 6 -13 15 -23 19 -23 14 0 21 83 17 204 -3
120 -11 142 -48 131 -59 -17 -70 -17 -76 0 -4 10 4 40 19 71 33 66 34 86 5 99
-55 24 -58 143 -8 289 35 102 37 120 10 153 -25 32 -26 121 -5 331 41 401 95
756 136 895 16 56 32 129 35 162 7 66 -1 80 -46 87 -17 2 -30 14 -39 36 -8 18
-22 32 -32 32 -31 0 -77 -66 -102 -147 -70 -219 -163 -754 -182 -1038 -13
-194 -27 -318 -41 -357 -8 -22 -14 -54 -14 -70 0 -37 -15 -67 -48 -94 l-25
-21 28 -49 c78 -134 94 -185 63 -192 -10 -2 -30 6 -44 17 -62 49 -58 13 9 -86
29 -43 61 -97 70 -121 18 -45 23 -122 8 -122 -5 0 -26 21 -47 47 -65 79 -75
88 -85 71 -15 -27 12 -88 63 -145 74 -82 100 -162 62 -193 -21 -18 -47 9 -71
74 -19 52 -43 72 -43 36 0 -26 25 -76 90 -176 27 -44 57 -101 66 -128 15 -44
15 -49 0 -64 -14 -14 -17 -14 -35 2 -11 10 -28 39 -37 65 -10 25 -23 52 -30
60 -27 30 -27 -19 0 -87 31 -81 33 -108 6 -122 -11 -6 -20 -17 -20 -24 0 -15
79 -90 87 -83 2 3 0 22 -6 42 -26 93 29 86 77 -11 11 -22 32 -52 46 -65 14
-13 26 -27 26 -30 0 -4 -17 -10 -37 -14 -71 -13 -81 -41 -33 -90 33 -34 47
-86 36 -130 -6 -23 -10 -26 -36 -20 -26 6 -30 4 -30 -15 0 -11 19 -39 43 -63
52 -51 66 -93 102 -322 25 -157 51 -250 87 -310 25 -42 23 -47 -17 -39 -21 4
-35 2 -35 -4 0 -5 23 -60 51 -122 53 -115 71 -191 50 -205 -21 -12 -57 4 -71
32 l-14 28 -4 -25 c-3 -20 10 -37 71 -95 49 -45 83 -86 95 -115 24 -55 87
-328 78 -337 -4 -4 -36 7 -71 25 -36 17 -65 27 -65 22 0 -24 79 -87 123 -99
37 -9 54 -20 77 -53 58 -79 26 -119 -45 -57 -20 18 -38 29 -42 25 -12 -12 67
-74 136 -106 39 -19 71 -37 71 -41 0 -4 -20 -15 -45 -25 -25 -9 -45 -20 -45
-25 0 -4 42 -21 93 -38 105 -36 143 -60 134 -85 -6 -15 -17 -17 -87 -10 -44 3
-80 4 -80 1 0 -12 57 -36 144 -60 95 -27 126 -48 126 -84 0 -40 18 -62 58 -69
51 -9 60 -15 80 -54 22 -45 65 -73 162 -105 97 -32 111 -46 87 -87 -9 -16 -17
-34 -17 -39 0 -17 36 -9 71 17 l34 26 198 -6 c109 -3 205 -9 213 -14 12 -6 5
-18 -33 -52 -44 -41 -46 -45 -25 -48 13 -2 51 12 87 33 75 42 167 67 326 90
63 9 161 25 217 36 57 11 106 18 109 15 3 -3 -9 -24 -26 -48 -17 -24 -27 -44
-22 -46 17 -6 69 27 90 57 18 24 31 31 74 36 108 14 441 -48 487 -90 14 -12
20 -31 20 -59 0 -40 -24 -193 -35 -225 -3 -9 -49 -36 -102 -61 -126 -59 -182
-104 -222 -179 -18 -34 -41 -66 -52 -71 -14 -8 -49 -5 -134 11 l-115 22 -109
-22 c-121 -24 -151 -21 -183 18 -14 17 -22 22 -25 13 -13 -35 -194 -90 -320
-96 -78 -3 -93 -9 -93 -36 0 -32 -15 -30 -44 6 l-28 36 -32 -35 c-27 -30 -39
-35 -96 -41 -99 -11 -145 -35 -171 -90 -14 -31 -42 -63 -84 -96 -73 -58 -203
-140 -223 -140 -35 0 -91 -41 -219 -162 -76 -71 -157 -142 -180 -156 -41 -26
-42 -28 -43 -83 0 -65 -13 -81 -83 -105 -26 -9 -47 -19 -47 -23 0 -4 14 -17
30 -29 39 -29 38 -47 -5 -100 -42 -54 -71 -128 -89 -234 -8 -44 -20 -86 -28
-93 -7 -6 -35 -20 -61 -29 -53 -20 -88 -59 -69 -78 9 -9 18 -8 38 1 15 6 29
10 31 7 10 -10 -38 -73 -111 -146 -42 -41 -76 -78 -76 -83 0 -5 16 -6 35 -3
52 10 45 -10 -30 -84 -36 -35 -65 -72 -65 -81 0 -9 9 -24 20 -34 26 -23 19
-46 -30 -105 -52 -63 -60 -82 -60 -140 0 -41 -5 -58 -26 -82 -33 -40 -31 -101
3 -106 39 -6 21 -75 -42 -161 -26 -35 -33 -85 -15 -96 6 -4 26 5 45 20 20 14
40 23 45 20 13 -8 13 -81 -1 -106 -5 -11 -21 -24 -35 -29 -14 -6 -24 -18 -24
-29 0 -26 15 -34 40 -21 52 28 33 -58 -56 -245 -58 -124 -74 -175 -55 -175 6
0 25 21 41 47 16 27 36 57 44 68 14 19 15 18 16 -16 0 -46 -28 -128 -91 -262
-52 -109 -56 -137 -20 -137 22 0 41 27 41 60 0 27 27 37 46 18 14 -13 14 -21
0 -69 -8 -30 -20 -101 -26 -159 -6 -58 -19 -141 -29 -185 -20 -92 -19 -105 14
-105 31 0 43 -22 60 -114 61 -320 160 -630 271 -846 65 -128 109 -180 152
-180 106 0 88 179 -21 205 -37 10 -41 20 -21 50 15 23 16 36 6 105 -6 44 -34
173 -61 287 -78 324 -104 504 -87 616 8 49 47 107 73 107 8 0 31 -18 50 -40
67 -74 67 -32 3 215 -56 218 -58 243 -25 306 l26 52 -31 32 c-46 47 -38 70 22
68 32 -1 48 3 52 13 3 8 -5 79 -19 157 -53 311 -54 350 -10 367 29 11 29 7 29
184 1 94 5 140 12 143 14 5 34 -48 34 -87 0 -35 24 -68 35 -50 5 7 14 97 21
199 7 102 13 187 13 188 1 0 17 20 36 43 25 30 36 55 41 90 4 28 17 64 31 82
13 18 44 97 69 175 59 186 68 197 209 268 78 40 114 73 87 82 -33 12 -44 36
-37 82 20 142 93 326 130 326 12 0 21 -9 25 -24 7 -31 23 -36 45 -15 14 15 16
29 11 81 -6 60 -5 64 17 72 26 10 87 0 150 -24 72 -28 109 -21 173 35 40 35
66 50 85 50 23 0 34 9 54 40 14 22 31 40 39 40 23 0 40 -30 38 -66 -2 -26 1
-34 14 -34 16 0 66 45 95 85 45 63 112 84 129 39 12 -31 29 -27 110 22 60 36
71 30 51 -26 -5 -17 -8 -30 -5 -30 3 0 31 23 62 51 66 58 105 82 133 77 17 -3
15 -8 -17 -47 -41 -52 -42 -86 -4 -86 20 0 30 10 52 55 33 70 51 79 128 67 57
-9 62 -8 132 26 81 39 347 136 463 168 87 23 105 18 134 -39 27 -54 71 -180
71 -204 0 -13 -32 -51 -84 -102 -128 -125 -206 -260 -210 -368 -2 -31 -8 -64
-15 -72 -7 -9 -73 -45 -147 -81 -83 -40 -140 -75 -150 -90 -13 -20 -20 -23
-34 -15 -27 15 -29 13 -24 -22 10 -65 -60 -130 -256 -238 -52 -28 -102 -59
-110 -67 -13 -13 -12 -14 15 -12 53 4 75 -1 75 -15 0 -19 -16 -28 -59 -35 -25
-4 -39 -14 -51 -36 -10 -18 -27 -32 -46 -35 -50 -11 -73 -29 -104 -83 -34 -60
-40 -103 -13 -92 56 23 65 17 37 -23 -8 -12 -24 -22 -35 -22 -24 0 -129 -100
-129 -123 0 -23 10 -21 50 8 43 32 52 31 48 -2 -2 -21 -13 -33 -46 -50 -76
-38 -88 -50 -120 -118 -18 -36 -44 -77 -58 -90 -55 -51 1 -81 66 -35 17 12 30
19 30 15 0 -34 -121 -183 -160 -197 -29 -10 -45 -32 -34 -49 8 -14 30 -11 79
13 24 12 47 20 49 17 3 -3 -6 -32 -19 -65 -66 -163 -135 -667 -135 -983 0
-138 2 -159 22 -200 l21 -44 -22 -40 c-33 -56 -48 -192 -34 -302 8 -71 15 -91
37 -114 15 -15 29 -44 33 -64 6 -41 -12 -126 -38 -179 -29 -57 -22 -58 26 -3
24 27 46 47 50 44 7 -8 -20 -141 -47 -231 -21 -71 -19 -88 12 -88 22 0 31 12
40 54 l7 31 17 -39 c29 -64 37 -144 30 -276 -6 -110 -5 -123 8 -112 12 10 18
10 26 -1 21 -25 44 -152 52 -292 9 -153 13 -171 40 -180 22 -7 36 -47 44 -126
27 -257 497 -1138 846 -1583 142 -181 295 -311 345 -292 14 5 16 14 10 56 -7
49 -6 50 18 50 38 0 57 10 57 30 0 22 -17 36 -53 45 -36 10 -115 97 -156 176
-32 60 -87 155 -406 705 -134 230 -230 412 -222 420 2 3 21 -18 41 -45 38 -51
90 -101 107 -101 36 0 -26 139 -101 224 -62 71 -84 113 -111 213 -11 43 -34
102 -50 130 -31 56 -38 103 -16 103 16 0 54 -40 95 -101 17 -25 38 -51 46 -59
52 -42 19 55 -95 283 -95 192 -105 221 -65 211 51 -12 39 35 -29 116 -57 69
-83 125 -109 243 -5 19 -2 27 8 27 23 0 84 -76 91 -114 8 -41 28 -61 51 -52
24 9 12 68 -42 200 -25 61 -68 165 -95 232 -50 123 -72 214 -50 214 6 0 27
-17 47 -38 l36 -37 -5 110 c-4 71 -12 132 -25 168 -10 31 -16 57 -12 57 3 0
24 -13 46 -30 21 -16 42 -30 46 -30 4 0 0 19 -8 43 -41 114 -89 380 -104 578
-7 99 -14 132 -34 170 -25 50 -25 59 5 59 25 0 32 35 19 94 -12 54 -6 86 16
86 22 0 32 38 22 89 -24 120 37 281 107 281 30 0 79 55 108 120 13 30 33 62
43 72 69 61 83 78 94 119 30 115 74 238 110 314 66 134 99 147 74 30 -16 -74
-17 -115 -4 -115 15 0 39 66 61 170 24 107 43 160 59 160 6 0 18 -16 27 -35
22 -46 33 -36 33 30 0 30 5 77 11 105 10 46 15 52 49 66 38 16 50 33 87 124
10 24 11 24 37 -28 15 -29 30 -50 35 -48 12 8 33 89 31 117 -4 43 -1 50 52
105 60 64 96 88 84 58 -21 -52 -58 -220 -75 -342 -47 -329 -72 -721 -72 -1137
0 -400 11 -512 76 -760 78 -300 180 -537 321 -742 78 -114 123 -163 408 -449
417 -416 476 -460 562 -416 42 22 75 55 117 117 31 47 99 101 173 138 178 89
447 366 626 642 148 227 244 430 303 635 71 248 95 447 102 865 8 479 -17 829
-87 1200 -15 83 -25 154 -21 158 8 8 140 -126 247 -251 68 -79 114 -160 115
-201 0 -15 4 -34 8 -44 6 -17 8 -17 20 -3 20 24 37 20 80 -20 56 -50 91 -124
91 -193 l0 -56 24 30 c24 29 25 29 43 12 15 -15 18 -33 17 -114 -1 -87 0 -93
11 -66 18 41 35 50 52 27 12 -15 14 -38 9 -101 l-5 -83 24 28 c19 22 27 25 42
16 10 -6 21 -26 24 -45 5 -20 20 -44 39 -59 l32 -26 -7 -146 c-5 -110 -4 -147
5 -153 19 -12 41 18 47 63 3 23 9 40 13 37 3 -2 12 -30 19 -62 19 -86 27 -95
41 -44 22 83 62 20 68 -110 5 -107 -10 -185 -44 -220 -33 -34 -29 -65 8 -61
21 2 26 -3 31 -27 12 -60 -37 -306 -107 -540 -14 -46 -23 -87 -20 -92 3 -5 23
-6 44 -3 36 6 40 4 50 -20 11 -30 2 -56 -32 -99 -21 -26 -23 -39 -24 -158 l0
-130 -42 -81 c-24 -44 -41 -83 -38 -85 3 -3 21 0 41 7 20 7 39 10 41 7 3 -3
-6 -32 -20 -64 -33 -80 -82 -246 -91 -311 -7 -50 -5 -54 24 -81 38 -36 39 -57
4 -121 l-28 -51 29 -23 c32 -27 30 -34 -28 -111 -18 -23 -38 -64 -45 -91 -7
-27 -17 -66 -22 -86 -5 -20 -39 -94 -74 -163 -36 -69 -65 -137 -65 -151 0 -24
1 -24 28 -10 15 8 36 23 46 35 11 12 25 21 33 21 37 0 -8 -119 -93 -247 -35
-52 -64 -103 -64 -113 0 -9 11 -27 25 -40 l25 -23 -28 -17 c-39 -24 -69 -68
-152 -220 -198 -366 -435 -768 -505 -855 -46 -58 -49 -72 -20 -91 31 -20 31
-34 0 -80 -42 -62 -30 -83 26 -42 71 52 304 347 507 641 56 81 148 213 204
294 142 206 254 343 293 359 38 15 44 27 52 106 6 60 12 68 33 43 7 -8 21 -15
31 -15 30 0 41 34 33 108 -6 64 -4 72 27 133 32 61 34 69 34 167 -1 104 0 105
32 55 10 -15 12 -7 12 47 0 36 -4 106 -9 155 -4 50 -4 94 0 98 4 5 27 -19 50
-53 23 -34 43 -60 45 -58 2 2 -10 71 -26 153 -35 181 -36 207 -4 137 32 -70
63 -112 82 -112 13 0 15 9 9 56 -8 66 -29 120 -60 154 -28 30 -37 71 -25 115
17 60 56 51 50 -11 -1 -22 3 -33 14 -38 26 -10 35 2 35 48 0 47 -17 69 -63 80
-34 8 -51 45 -37 82 13 34 48 29 70 -11 19 -34 50 -46 50 -20 0 10 -14 34 -30
55 -48 60 -76 140 -49 140 6 0 31 -23 56 -50 25 -28 50 -47 55 -44 15 9 3 183
-17 259 -9 33 -27 77 -41 97 -13 21 -24 40 -24 42 0 3 15 2 34 -1 49 -8 60 18
53 124 -3 59 -11 93 -26 118 -28 48 -27 73 5 87 39 18 73 -6 109 -77 22 -43
36 -60 50 -60 31 0 29 33 -5 121 -44 110 -59 190 -53 278 l6 74 -40 25 c-42
27 -63 66 -63 118 0 40 13 43 39 9 12 -17 31 -30 43 -30 18 0 20 4 15 34 -3
19 -24 65 -46 102 -35 58 -51 104 -37 104 2 0 23 -7 46 -15 24 -8 45 -13 48
-10 3 2 -11 31 -32 64 -47 77 -64 125 -64 186 0 28 -8 70 -18 94 -16 41 -16
45 -1 56 25 18 21 45 -18 134 -21 46 -39 109 -44 148 -5 40 -22 95 -40 133
-17 36 -31 79 -31 95 0 17 -16 64 -35 104 -20 41 -34 75 -32 78 2 2 29 -8 61
-22 31 -14 59 -25 62 -25 3 0 -29 39 -71 86 -109 122 -122 159 -48 136 22 -7
41 -8 46 -3 12 12 -27 49 -60 57 -62 15 -117 78 -192 218 -34 65 -30 83 14 66
49 -19 38 -4 -43 56 -78 57 -109 90 -97 102 6 6 38 -4 122 -39 18 -7 35 -10
39 -6 18 17 -16 42 -136 100 -71 34 -130 68 -130 75 0 7 16 20 35 28 20 8 33
19 30 23 -3 5 -40 17 -82 26 -117 26 -125 32 -118 75 6 35 4 37 -32 53 -21 9
-76 26 -123 38 -113 28 -273 106 -329 160 -43 42 -71 92 -71 127 0 32 -72 132
-170 237 -116 125 -150 171 -150 204 0 14 17 69 38 121 29 73 42 96 58 98 12
2 95 -16 185 -38 184 -46 323 -76 418 -90 75 -10 130 -43 167 -100 32 -48 44
-50 44 -7 0 17 5 39 10 47 9 13 13 12 29 -7 90 -107 97 -113 117 -85 20 28 70
29 156 2 61 -19 177 -85 192 -109 4 -6 16 -16 27 -22 19 -10 20 -8 13 40 -6
46 -5 51 13 51 11 0 32 -14 49 -31 48 -51 94 -69 176 -69 65 -1 96 -8 162 -35
16 -7 18 -5 11 26 -12 54 -11 63 8 67 11 2 36 -13 63 -37 47 -44 80 -61 120
-61 29 0 32 16 4 25 -53 17 0 77 69 79 47 1 68 -15 81 -63 5 -20 27 -57 47
-81 38 -44 38 -45 38 -130 l0 -85 28 -3 c33 -4 49 -32 73 -128 l18 -69 9 35 9
35 29 -35 c40 -47 109 -186 109 -219 0 -14 5 -33 10 -41 10 -16 7 -17 70 22
10 7 22 10 25 7 3 -3 8 -35 12 -70 5 -53 11 -69 35 -91 27 -25 28 -30 28 -112
0 -69 3 -88 15 -93 40 -15 88 -173 89 -291 1 -82 1 -83 25 -77 23 6 23 5 21
-62 -3 -85 -2 -96 10 -88 16 10 50 -33 50 -64 0 -15 -9 -40 -21 -55 -12 -16
-23 -48 -26 -81 -7 -65 8 -74 26 -14 12 41 35 59 52 42 12 -12 14 -66 5 -143
l-8 -65 30 29 31 29 12 -27 c10 -21 10 -54 0 -159 -7 -73 -17 -170 -21 -217
-9 -89 2 -146 15 -77 5 26 12 37 25 37 24 0 40 -73 40 -178 -1 -106 -14 -164
-39 -181 l-22 -14 23 -24 c29 -31 29 -79 -1 -215 -22 -101 -27 -178 -13 -178
5 0 23 18 41 40 18 22 37 37 43 34 15 -9 4 -466 -16 -651 -31 -290 -65 -461
-108 -547 -37 -73 -26 -88 32 -44 23 18 51 39 61 47 10 7 26 10 35 7 20 -8 13
-40 -27 -119 -35 -70 -22 -64 56 23 101 115 116 159 140 432 24 259 45 351 90
388 22 18 45 64 45 90 0 27 -8 25 -32 -6 -31 -38 -38 -16 -37 111 1 141 7 161
42 157 34 -4 34 -1 -3 115 -31 96 -39 186 -18 199 7 5 25 -8 44 -30 l33 -38 7
26 c10 41 -4 94 -37 130 -46 52 -75 155 -49 171 15 9 55 -35 87 -96 l28 -54 3
52 c4 63 -20 123 -71 179 -42 48 -67 95 -67 128 0 28 33 56 65 56 21 0 45 17
45 31 0 16 -33 39 -55 39 -35 0 -55 36 -55 96 0 60 18 84 44 59 9 -9 19 -28
22 -43 12 -56 23 -72 50 -72 24 0 26 3 21 32 -14 87 -76 208 -105 208 -10 0
-24 11 -30 24 -13 30 -27 116 -17 116 3 0 21 -11 39 -25 70 -53 76 -15 11 65
-56 67 -70 110 -57 168 13 55 6 79 -35 125 -43 48 -73 117 -80 182 l-5 50 26
-28 c33 -33 36 -34 36 -1 0 16 -12 37 -30 54 -71 66 -126 179 -82 166 9 -2 28
-8 42 -11 20 -6 13 5 -36 56 -73 77 -93 125 -123 297 -31 171 -55 245 -92 279
-17 15 -41 38 -55 50 -13 12 -24 32 -24 45 0 47 -21 97 -60 141 -24 27 -47 67
-56 98 -13 43 -31 66 -118 153 -111 109 -142 149 -131 166 7 11 26 9 78 -6 9
-3 17 -1 17 5 0 15 -100 63 -195 95 -44 14 -95 35 -113 46 -31 19 -33 24 -31
68 1 27 -1 53 -4 59 -4 6 -39 14 -78 18 l-72 7 32 25 c17 13 31 29 31 34 0 14
-79 11 -134 -6 -68 -21 -94 -19 -128 10 -33 28 -96 33 -177 14 -58 -13 -73 -1
-59 47 13 47 5 52 -32 21 -44 -38 -108 -53 -140 -35 -22 12 -25 20 -22 56 5
55 -12 55 -98 2 -97 -60 -131 -50 -70 20 16 19 29 41 30 49 0 24 -75 6 -141
-33 -77 -46 -128 -60 -165 -45 -16 5 -54 13 -84 17 -50 7 -55 9 -54 32 0 14 4
35 8 48 6 19 4 22 -16 22 -13 0 -48 -7 -78 -15 -81 -22 -188 -19 -257 6 -32
12 -103 51 -158 87 -117 76 -189 112 -227 112 -51 0 -68 30 -70 125 -1 47 -2
97 -2 112 -1 29 6 34 94 70 25 10 73 39 107 66 35 26 74 52 89 57 33 13 171
13 254 0 154 -24 169 -30 223 -78 29 -26 67 -58 86 -71 l34 -24 -7 35 c-5 26
-2 39 9 48 17 14 269 31 300 20 17 -6 12 -12 -33 -41 -28 -19 -52 -36 -52 -39
0 -3 26 -5 58 -5 44 0 65 -5 90 -23 24 -17 33 -20 36 -10 14 46 16 48 48 48
18 0 48 -4 66 -9 43 -13 40 -2 -8 33 -22 17 -40 34 -40 38 0 29 178 58 187 31
3 -8 -5 -13 -21 -13 -15 0 -30 -8 -36 -19 -26 -49 92 -71 134 -26 25 27 49 31
90 15 14 -5 26 -7 26 -5 0 3 -16 29 -35 57 -20 28 -34 52 -32 54 1 2 63 8 137
14 343 27 467 66 485 153 13 58 35 87 88 117 63 35 92 65 101 102 3 15 45 84
92 154 47 70 88 139 90 154 3 14 26 48 50 74 42 46 64 95 64 143 0 23 4 28 52
63 28 21 55 80 37 80 -6 0 -25 -11 -43 -25 -42 -32 -46 -31 -46 6 0 30 52 119
70 119 4 0 18 15 29 34 16 25 21 50 21 102 0 75 12 107 74 208 31 52 36 68 36
123 0 100 32 143 94 127 l25 -6 -20 39 c-17 32 -19 49 -14 105 9 101 91 497
115 557 11 29 29 114 40 189 29 200 45 245 112 321 21 24 38 48 38 53 0 5 -19
6 -45 3 -42 -7 -45 -6 -56 21 -13 36 1 91 36 132 32 38 31 50 -2 54 -23 2 -29
8 -31 35 -3 27 5 41 42 81 49 52 54 62 33 62 -8 0 -22 9 -31 19 -27 29 -12 74
45 137 27 30 49 64 49 75 0 20 -4 21 -45 16 -55 -8 -56 -5 -15 98 35 88 38
124 10 148 -38 32 -17 177 25 177 23 0 18 16 -10 34 -40 26 -55 69 -70 200
-36 307 -117 584 -299 1016 -32 74 -64 144 -71 154 -14 19 -15 19 -35 1 -15
-14 -29 -16 -65 -12 -44 6 -45 6 -45 -20 0 -14 15 -71 34 -127 95 -277 257
-948 259 -1071 2 -66 0 -74 -31 -112 -44 -56 -48 -86 -22 -179 36 -129 32
-159 -34 -260 -67 -104 -68 -120 -31 -299 27 -128 31 -198 15 -239 -11 -30
-26 -33 -52 -9 -30 27 -32 8 -8 -82 21 -80 22 -91 11 -192 -18 -161 -50 -299
-79 -341 -17 -26 -27 -59 -33 -110 -14 -128 -78 -319 -115 -347 -18 -13 -33
-78 -34 -147 0 -58 -11 -88 -44 -121 -24 -24 -26 -33 -26 -117 0 -94 -8 -108
-36 -65 -9 14 -19 25 -23 25 -4 0 -6 -46 -6 -103 0 -97 -2 -106 -34 -172 -46
-93 -113 -159 -181 -179 -63 -19 -90 -41 -90 -73 0 -29 21 -39 49 -23 28 15
28 3 -8 -102 -47 -139 -58 -150 -85 -85 -12 28 -13 16 -9 -103 3 -115 1 -141
-14 -174 -21 -43 -20 -44 -77 24 -15 18 -29 30 -32 27 -3 -2 7 -34 21 -70 15
-36 25 -74 23 -84 -5 -26 -82 -61 -166 -74 -89 -13 -134 -6 -185 28 l-38 27
-68 -22 c-86 -28 -99 -28 -111 3 l-9 25 -46 -32 c-36 -26 -57 -32 -107 -35
l-63 -4 54 49 c86 77 43 77 -94 0 -43 -25 -61 -26 -260 -13 -125 8 -173 2
-715 -90 -287 -48 -347 -62 -418 -92 -45 -19 -89 -32 -97 -29 -22 8 -20 95 3
123 9 12 55 43 102 69 78 43 115 69 248 177 72 58 177 105 282 127 52 11 123
30 158 41 50 17 82 20 150 17 l87 -3 -3 43 c-1 23 2 51 8 62 14 26 47 26 55 1
8 -27 67 -44 120 -37 80 12 83 54 5 73 -19 5 -35 16 -35 23 0 21 60 31 144 24
77 -7 88 2 31 26 -39 16 -38 32 7 69 44 37 53 38 60 10 3 -11 17 -25 30 -30
30 -11 143 -12 143 -1 0 5 -27 23 -60 42 -33 19 -60 37 -60 41 0 13 45 19 145
20 142 1 158 11 51 33 -47 10 -86 22 -86 27 0 5 32 25 71 44 39 19 88 49 107
66 36 32 36 32 122 25 96 -7 174 5 230 36 l35 19 -96 -6 c-107 -7 -163 5 -138
30 8 7 52 23 98 35 105 26 143 45 139 68 -3 12 -12 16 -36 14 -40 -3 -83 18
-111 54 -29 36 -27 50 13 90 23 23 43 34 64 34 31 0 42 17 42 68 0 32 35 62
73 62 38 0 97 33 97 54 0 12 -10 14 -50 9 -74 -9 -62 21 27 66 50 25 59 37 41
58 -18 22 -15 173 7 293 26 142 61 245 98 287 l32 36 -40 -7 c-22 -4 -47 -9
-55 -11 -26 -8 -42 11 -47 57 -7 57 18 118 46 118 27 0 27 17 1 25 -27 9 -53
61 -46 91 4 14 16 26 31 30 29 7 47 34 36 53 -5 8 -18 10 -34 6 -22 -6 -27 -3
-32 18 -7 26 9 67 25 67 6 0 19 9 31 21 16 16 18 23 9 34 -9 11 -17 12 -31 4
-11 -5 -24 -7 -29 -4 -18 11 -11 34 22 71 28 31 33 46 36 100 3 35 2 64 -1 64
-4 0 -15 -21 -26 -46 -11 -25 -25 -43 -31 -39 -23 14 -42 118 -38 210 4 88 6
95 36 130 40 45 39 70 -3 70 -28 0 -30 3 -33 39 -5 55 3 78 38 114 31 33 39
61 18 63 -7 1 -26 2 -43 3 -25 1 -31 5 -33 30 -6 49 7 93 43 147 39 58 41 61
21 53 -28 -11 -35 32 -33 187 1 109 -2 161 -11 177 -18 31 -31 28 -47 -12 -19
-44 -35 -54 -51 -31 -16 21 -11 46 22 127 13 32 24 69 24 84 0 38 -24 25 -31
-17 -3 -19 -9 -40 -13 -47 -9 -15 -33 -16 -42 -1 -14 23 -3 131 22 210 26 83
26 109 0 109 -20 0 -36 -31 -36 -67 0 -16 -6 -38 -14 -49 -14 -18 -15 -18 -33
-1 -15 15 -18 31 -15 99 3 79 2 82 -25 104 -27 22 -28 25 -31 138 -2 64 -7
116 -11 116 -4 0 -16 -9 -26 -20 -34 -37 -56 -22 -76 52 -10 36 -30 92 -45
125 -57 129 -85 207 -93 268 -8 54 -15 69 -48 102 -21 22 -69 92 -108 158 -38
65 -85 130 -103 144 -22 18 -34 37 -39 64 -6 41 -12 47 -63 62 -28 9 -37 18
-51 57 -23 65 -74 124 -191 220 -185 153 -428 307 -590 373 -105 44 -141 45
-178 5 -18 -20 -38 -30 -57 -30 -75 -1 -67 -40 14 -76 105 -46 124 -58 227
-144 56 -47 158 -126 226 -175 141 -101 324 -276 387 -372 40 -61 52 -87 89
-207 20 -64 70 -142 145 -224 54 -59 61 -91 27 -114 l-23 -15 32 -27 c22 -18
34 -39 38 -64 12 -73 16 -81 43 -94 23 -12 27 -19 24 -49 -4 -50 26 -135 128
-354 92 -197 118 -280 144 -450 56 -358 60 -550 11 -456 -28 54 -95 72 -95 25
0 -46 104 -236 148 -270 12 -9 14 -37 10 -148 -2 -75 -9 -141 -14 -146 -6 -6
-27 8 -59 40 -27 28 -56 50 -63 50 -24 0 -7 -63 33 -129 44 -70 64 -124 65
-169 0 -42 24 -89 50 -97 26 -8 25 -24 -2 -77 -20 -38 -23 -63 -28 -223 -5
-147 -9 -185 -23 -206 -16 -24 -16 -29 8 -110 24 -79 31 -181 12 -169 -19 11
-29 -39 -36 -183 -5 -85 -13 -163 -20 -175 -6 -11 -23 -27 -39 -34 -24 -12
-27 -19 -26 -58 1 -32 7 -48 22 -61 56 -45 0 -116 -105 -134 -27 -4 -51 -16
-65 -32 -13 -14 -32 -36 -44 -48 -12 -13 -39 -26 -65 -30 -47 -8 -88 -26 -111
-48 -27 -28 -68 -49 -83 -43 -23 8 -18 48 10 86 14 19 25 35 25 37 0 14 -32
-11 -126 -97 -125 -115 -172 -142 -226 -134 -33 6 -40 3 -63 -24 -16 -19 -74
-54 -153 -93 -70 -34 -168 -88 -219 -121 -78 -50 -105 -62 -155 -67 -3 -1 -18
-33 -33 -71 -21 -55 -32 -71 -51 -76 -14 -4 -27 -4 -30 -1 -12 11 -95 -22
-143 -57 -27 -20 -74 -47 -105 -61 -31 -14 -82 -49 -114 -79 -33 -29 -76 -59
-97 -66 -36 -12 -40 -11 -57 10 -22 27 -18 47 29 155 19 44 41 100 49 125 25
76 35 272 29 525 -15 616 -46 781 -212 1117 -95 193 -176 325 -221 356 -43 31
-95 29 -121 -4 -43 -54 -19 -150 85 -352 80 -157 130 -299 163 -467 57 -286
84 -748 45 -784 -23 -22 -52 -21 -77 1 -37 34 -48 80 -54 213 -2 66 -7 126 -9
134 -3 10 -14 5 -39 -19 -35 -34 -35 -34 -78 -20 -23 8 -82 14 -132 14 -106 0
-160 -22 -198 -79 -41 -65 -81 -57 -214 44 -99 75 -159 141 -175 193 -13 43
-28 34 -28 -16 0 -43 -30 -84 -123 -168 -46 -42 -103 -105 -127 -141 -51 -76
-93 -107 -142 -107 -59 0 -59 0 -11 265 58 327 108 472 311 900 94 201 126
278 142 351 9 38 7 52 -9 90 -11 24 -25 44 -32 44 -7 0 -37 -19 -67 -42 -88
-68 -156 -171 -197 -298 -25 -76 -60 -145 -89 -172 -55 -51 -176 -358 -241
-613 -46 -179 -58 -308 -53 -570 4 -239 7 -255 66 -329 38 -46 49 -95 33 -147
-10 -32 -16 -39 -37 -39 -39 0 -108 40 -259 150 -77 56 -198 137 -270 179
-192 114 -514 283 -645 337 -127 53 -538 256 -667 330 l-81 46 -11 62 c-20
119 -22 135 -22 226 l0 93 45 42 c41 38 46 46 46 86 l0 44 -43 -49 c-24 -27
-48 -46 -54 -43 -18 11 -36 105 -31 157 3 32 17 70 41 110 36 60 55 110 43
110 -4 0 -24 -12 -46 -26 -64 -42 -76 -11 -20 51 15 17 31 40 35 53 11 37 -19
26 -74 -28 -28 -27 -60 -50 -71 -50 -11 0 -20 2 -20 5 0 16 34 68 75 116 25
29 45 60 45 68 0 8 -12 28 -27 43 -20 21 -24 31 -15 37 9 5 5 14 -13 31 -40
37 -32 70 55 250 44 90 80 170 80 176 0 18 -20 22 -68 11 -59 -12 -72 -5 -72
40 0 116 44 271 100 356 23 35 42 76 46 103 4 30 18 59 41 86 18 22 32 46 30
52 -2 6 -25 11 -50 11 -25 1 -49 4 -53 7 -15 16 8 55 46 77 69 39 75 91 10 91
-15 0 -38 9 -51 19 -65 52 19 281 102 281 24 0 25 17 1 25 -11 3 -24 17 -30
30 -16 34 0 72 39 93 57 32 79 53 79 78 0 40 23 75 96 144 96 91 144 151 144
178 0 21 -4 23 -25 18 -14 -4 -47 -20 -74 -36 -59 -37 -81 -38 -81 -6 0 25 50
76 74 76 25 0 66 41 66 66 0 30 -3 30 -46 -2 -42 -33 -69 -26 -59 14 9 38 21
49 61 57 51 9 107 66 170 170 60 101 68 131 32 119 -59 -19 -64 -6 -28 87 33
90 143 223 369 450 326 325 596 539 744 588 37 13 81 36 98 52 29 27 30 31 17
52 -18 26 -97 56 -153 56 -22 0 -70 -10 -107 -23z m4030 -1678 c14 -14 15 -28
2 -48 -7 -12 -12 -12 -29 4 -26 24 -28 56 -3 56 10 0 23 -5 30 -12z m-5654
-361 c16 -22 18 -32 10 -45 -17 -27 -41 -26 -60 3 -14 21 -15 30 -5 51 13 30
27 28 55 -9z m6280 -530 c11 -18 0 -47 -21 -54 -12 -4 -43 23 -43 37 0 14 31
41 43 37 6 -2 15 -11 21 -20z m-526 -5738 c26 -24 21 -39 -13 -39 -25 0 -46
26 -38 48 7 18 26 15 51 -9z m-35 -3547 c21 -19 22 -28 1 -36 -22 -8 -54 11
-54 33 0 34 15 35 53 3z m0 -370 c22 -19 22 -28 -2 -35 -25 -6 -51 10 -51 32
0 34 15 35 53 3z m-6675 -494 c14 -14 15 -28 2 -48 -7 -12 -12 -12 -29 4 -26
24 -28 56 -3 56 10 0 23 -5 30 -12z"/>
<path d="M1726 12969 c-28 -33 -31 -44 -16 -54 14 -9 79 24 91 47 25 47 -37
53 -75 7z"/>
<path d="M1685 11056 c-28 -28 -34 -66 -10 -66 21 0 55 36 55 59 0 31 -18 34
-45 7z"/>
<path d="M8095 10983 c-45 -24 -95 -64 -106 -85 -16 -30 11 -22 79 21 87 57
109 108 27 64z"/>
<path d="M8045 10791 c-67 -41 -92 -91 -46 -91 20 0 89 43 109 68 32 42 -9 57
-63 23z"/>
<path d="M8007 10622 c-20 -22 -22 -52 -3 -52 20 0 66 39 66 56 0 20 -44 18
-63 -4z"/>
<path d="M4787 10339 c-22 -55 -25 -74 -16 -85 18 -22 38 -17 49 12 12 30 13
144 2 144 -4 0 -20 -32 -35 -71z"/>
<path d="M4660 10315 c0 -48 4 -74 10 -70 6 3 10 35 10 70 0 35 -4 67 -10 70
-6 4 -10 -22 -10 -70z"/>
<path d="M270 10332 c0 -25 31 -52 58 -52 29 0 29 34 0 54 -31 22 -58 20 -58
-2z"/>
<path d="M4037 10303 c-13 -13 -7 -51 13 -74 17 -21 21 -22 30 -9 11 17 13 51
4 74 -6 16 -35 22 -47 9z"/>
<path d="M4436 10235 c-9 -36 3 -93 15 -74 11 18 11 70 0 87 -6 10 -10 7 -15
-13z"/>
<path d="M3910 10214 c0 -19 19 -56 34 -66 38 -26 49 13 15 56 -23 29 -49 35
-49 10z"/>
<path d="M7312 9664 c-47 -33 -14 -61 58 -49 40 7 76 37 65 54 -10 17 -98 13
-123 -5z"/>
<path d="M2305 9260 c-4 -6 12 -10 39 -10 25 0 46 5 46 10 0 6 -18 10 -39 10
-22 0 -43 -4 -46 -10z"/>
<path d="M2113 8198 c-23 -11 -38 -41 -29 -57 16 -25 83 25 73 54 -7 17 -13
18 -44 3z"/>
<path d="M6690 7675 c-18 -22 -1 -50 31 -50 20 0 24 5 24 30 0 23 -5 31 -21
33 -11 2 -27 -4 -34 -13z"/>
<path d="M6617 4886 c-10 -25 -8 -68 2 -85 14 -21 26 54 14 82 -9 19 -10 19
-16 3z"/>
<path d="M65 4735 c-19 -40 -17 -70 5 -70 22 0 44 47 36 78 -9 36 -20 34 -41
-8z"/>
</g>
</svg>
