<?xml version="1.0" standalone="no"?>
<!DOCTYPE svg PUBLIC "-//W3C//DTD SVG 20010904//EN"
 "http://www.w3.org/TR/2001/REC-SVG-20010904/DTD/svg10.dtd">
<svg version="1.0" xmlns="http://www.w3.org/2000/svg"
 width="1536.000000pt" height="286.000000pt" viewBox="0 0 1536.000000 286.000000"
 preserveAspectRatio="xMidYMid meet">
<metadata>
Created by potrace 1.16, written by Peter Selinger 2001-2019
</metadata>
<g transform="translate(0.000000,286.000000) scale(0.100000,-0.100000)"
fill="#000000" stroke="none">
<path d="M7600 2853 c-604 -31 -1036 -87 -1685 -219 -693 -142 -1450 -333
-2215 -560 -179 -53 -453 -134 -610 -180 -496 -147 -881 -252 -1380 -374 -449
-111 -814 -203 -1266 -319 -165 -43 -186 -50 -246 -93 -87 -62 -143 -127 -168
-196 -76 -203 10 -343 260 -420 139 -43 390 -82 875 -136 1327 -150 2781 -243
4995 -321 1593 -56 1892 -49 3520 80 1175 94 1305 104 1680 130 1243 87 1794
134 2385 205 673 81 1080 153 1305 232 102 36 159 67 218 122 179 165 84 428
-203 562 -165 76 -394 138 -1025 274 -753 163 -969 213 -1735 404 -1454 362
-2686 632 -3360 735 -423 65 -956 95 -1345 74z m785 -204 c372 -26 793 -95
1535 -250 776 -163 1421 -312 2265 -524 734 -185 916 -228 1390 -331 1070
-232 1247 -276 1413 -356 122 -58 203 -160 173 -216 -56 -104 -392 -192 -1100
-287 -689 -92 -1195 -139 -2411 -225 -663 -47 -1004 -73 -2180 -165 -1334
-104 -1812 -113 -3235 -65 -1973 67 -3404 151 -4600 270 -1043 104 -1370 162
-1430 254 -30 46 10 130 91 188 60 43 297 106 1515 402 418 102 930 244 1579
437 901 270 1357 393 2010 543 965 222 1518 305 2280 340 116 5 549 -4 705
-15z"/>
<path d="M7714 2564 c-20 -29 -11 -69 19 -88 22 -14 49 2 61 37 11 31 -15 77
-44 77 -11 0 -27 -12 -36 -26z"/>
<path d="M7897 2532 c-32 -36 -10 -102 34 -102 43 0 55 78 17 104 -28 20 -31
20 -51 -2z"/>
<path d="M7536 2524 c-22 -21 -20 -67 2 -87 24 -22 35 -21 55 1 31 34 12 102
-28 102 -7 0 -21 -7 -29 -16z"/>
<path d="M8110 2520 c-11 -11 -20 -28 -20 -38 0 -26 28 -62 49 -62 24 0 51 31
51 58 0 22 -32 62 -50 62 -5 0 -19 -9 -30 -20z"/>
<path d="M7310 2501 c-24 -45 -6 -91 35 -91 30 0 45 19 45 55 0 17 -5 36 -12
43 -18 18 -56 14 -68 -7z"/>
<path d="M8386 2505 c-24 -25 -20 -72 8 -90 28 -19 50 -12 65 21 24 53 -34
108 -73 69z"/>
<path d="M7052 2493 c-38 -15 -32 -95 8 -108 51 -16 83 68 38 99 -24 17 -26
17 -46 9z"/>
<path d="M8640 2481 c-14 -28 -12 -67 4 -81 23 -18 59 -8 75 21 13 24 13 29
-2 53 -21 31 -62 35 -77 7z"/>
<path d="M8916 2465 c-36 -37 1 -118 44 -95 32 17 43 46 28 78 -15 32 -49 40
-72 17z"/>
<path d="M6769 2446 c-14 -29 -4 -75 16 -83 28 -10 64 6 71 33 10 41 -10 74
-46 74 -23 0 -33 -6 -41 -24z"/>
<path d="M6524 2440 c-59 -23 -24 -124 36 -105 23 7 34 38 26 70 -8 30 -34 45
-62 35z"/>
<path d="M9164 2424 c-20 -29 -11 -69 19 -88 22 -14 49 2 61 37 11 31 -15 77
-44 77 -11 0 -27 -12 -36 -26z"/>
<path d="M9420 2414 c-8 -8 -13 -28 -13 -44 0 -57 48 -80 77 -38 21 30 20 61
-2 81 -23 21 -46 22 -62 1z"/>
<path d="M6260 2390 c-11 -11 -20 -28 -20 -38 0 -22 35 -62 55 -62 21 0 45 29
45 56 0 24 -31 64 -50 64 -5 0 -19 -9 -30 -20z"/>
<path d="M9686 2384 c-31 -31 -11 -104 29 -104 24 0 45 30 45 64 0 52 -40 74
-74 40z"/>
<path d="M6003 2354 c-15 -24 -15 -29 -2 -53 8 -14 26 -28 39 -29 45 -7 68 59
32 91 -26 24 -49 21 -69 -9z"/>
<path d="M5742 2328 c-18 -18 -14 -63 7 -82 46 -42 102 16 67 69 -18 27 -54
33 -74 13z"/>
<path d="M9944 2332 c-13 -8 -34 -46 -34 -61 0 -14 37 -51 50 -51 20 0 50 41
50 68 0 43 -34 66 -66 44z"/>
<path d="M10168 2293 c-25 -30 -29 -54 -13 -79 19 -29 46 -31 68 -6 24 26 21
68 -5 86 -28 20 -32 20 -50 -1z"/>
<path d="M5501 2264 c-27 -19 -27 -58 -1 -84 24 -24 43 -25 64 -4 45 44 -12
123 -63 88z"/>
<path d="M10394 2235 c-21 -32 -11 -72 21 -87 51 -23 89 57 47 95 -26 24 -49
21 -68 -8z"/>
<path d="M5270 2220 c-11 -11 -20 -26 -20 -34 0 -19 39 -66 55 -66 21 0 45 29
45 56 0 24 -31 64 -50 64 -5 0 -19 -9 -30 -20z"/>
<path d="M10627 2182 c-31 -34 -14 -92 27 -92 26 0 56 28 56 54 0 51 -50 74
-83 38z"/>
<path d="M5024 2154 c-15 -58 32 -106 72 -74 34 29 9 100 -36 100 -24 0 -31
-5 -36 -26z"/>
<path d="M10890 2132 c-40 -14 -52 -68 -22 -95 24 -22 45 -21 65 1 37 40 4
110 -43 94z"/>
<path d="M4802 2108 c-7 -7 -12 -26 -12 -43 0 -36 15 -55 45 -55 41 0 59 46
35 91 -12 21 -50 25 -68 7z"/>
<path d="M11083 2044 c-15 -24 -15 -29 -2 -53 21 -37 70 -37 83 1 23 65 -44
108 -81 52z"/>
<path d="M4566 2028 c-9 -12 -16 -29 -16 -38 0 -25 29 -60 50 -60 21 0 50 36
50 62 0 22 -34 58 -54 58 -8 0 -22 -10 -30 -22z"/>
<path d="M11325 2016 c-35 -26 -17 -106 25 -106 44 0 66 72 32 103 -22 21 -33
21 -57 3z"/>
<path d="M11546 1968 c-9 -12 -16 -29 -16 -38 0 -25 29 -60 50 -60 23 0 50 36
50 66 0 24 -29 54 -53 54 -9 0 -23 -10 -31 -22z"/>
<path d="M4347 1962 c-23 -25 -21 -58 3 -82 26 -26 46 -25 65 4 19 29 11 72
-15 86 -26 14 -35 13 -53 -8z"/>
<path d="M4114 1905 c-35 -53 29 -123 68 -75 22 27 23 49 2 78 -20 29 -50 28
-70 -3z"/>
<path d="M11789 1920 c-41 -24 -25 -110 20 -110 45 0 68 72 33 103 -21 19 -30
20 -53 7z"/>
<path d="M3886 1864 c-10 -26 -7 -69 6 -82 7 -7 21 -12 33 -12 41 0 59 46 35
91 -13 24 -65 26 -74 3z"/>
<path d="M12012 1858 c-7 -7 -12 -26 -12 -43 0 -36 15 -55 46 -55 27 0 47 23
47 55 0 47 -50 74 -81 43z"/>
<path d="M7930 1811 c-17 -32 -12 -69 12 -85 26 -18 54 -7 70 29 23 52 -55
105 -82 56z"/>
<path d="M3666 1804 c-33 -33 -10 -104 33 -104 44 0 58 77 19 104 -28 20 -33
20 -52 0z"/>
<path d="M7500 1801 c-26 -50 -3 -95 46 -89 37 4 53 48 30 83 -20 30 -61 33
-76 6z"/>
<path d="M7720 1801 c-24 -45 -6 -91 35 -91 30 0 45 19 45 55 0 17 -5 36 -12
43 -18 18 -56 14 -68 -7z"/>
<path d="M12254 1794 c-36 -53 20 -110 67 -68 21 19 25 64 7 82 -20 20 -56 14
-74 -14z"/>
<path d="M8107 1782 c-20 -22 -22 -63 -5 -80 21 -21 56 -14 75 14 15 24 15 29
2 53 -18 32 -50 38 -72 13z"/>
<path d="M7342 1774 c-41 -28 -18 -104 31 -104 44 0 57 88 17 110 -24 13 -22
13 -48 -6z"/>
<path d="M8362 1774 c-38 -26 -21 -104 23 -104 44 0 59 80 20 106 -18 12 -24
11 -43 -2z"/>
<path d="M8596 1748 c-21 -30 -20 -61 3 -82 26 -23 56 -13 71 24 24 59 -39
108 -74 58z"/>
<path d="M3430 1740 c-11 -11 -20 -28 -20 -38 0 -26 28 -62 49 -62 24 0 51 31
51 58 0 22 -32 62 -50 62 -5 0 -19 -9 -30 -20z"/>
<path d="M7092 1748 c-18 -18 -14 -63 6 -81 36 -33 72 -14 72 38 0 36 -15 55
-45 55 -12 0 -26 -5 -33 -12z"/>
<path d="M12466 1744 c-23 -23 -21 -81 4 -94 36 -19 70 12 70 64 0 43 -44 61
-74 30z"/>
<path d="M8847 1732 c-10 -10 -17 -28 -17 -40 0 -22 32 -62 50 -62 16 0 50 39
50 58 0 26 -28 62 -49 62 -10 0 -25 -8 -34 -18z"/>
<path d="M6840 1721 c-18 -34 -12 -69 14 -86 31 -21 61 -7 70 31 14 56 -58
103 -84 55z"/>
<path d="M9101 1701 c-25 -25 -27 -49 -5 -79 21 -30 54 -25 74 11 13 24 13 30
0 54 -20 35 -43 40 -69 14z"/>
<path d="M6589 1686 c-23 -50 36 -109 77 -76 16 14 18 53 4 81 -16 29 -67 26
-81 -5z"/>
<path d="M3182 1688 c-22 -22 -15 -76 12 -93 36 -24 66 -5 66 39 0 51 -48 84
-78 54z"/>
<path d="M9360 1682 c-41 -33 -23 -102 26 -102 46 0 59 79 18 107 -19 12 -24
11 -44 -5z"/>
<path d="M6350 1660 c-24 -24 -25 -48 -4 -78 35 -51 102 -5 76 52 -18 40 -48
50 -72 26z"/>
<path d="M9612 1664 c-15 -10 -22 -25 -22 -48 0 -38 15 -56 47 -56 44 0 58 80
18 106 -18 12 -24 11 -43 -2z"/>
<path d="M12686 1664 c-20 -19 -21 -68 -2 -84 24 -19 59 -8 74 23 25 53 -32
101 -72 61z"/>
<path d="M10086 1639 c-31 -24 -34 -59 -7 -83 37 -33 90 8 77 60 -10 38 -39
47 -70 23z"/>
<path d="M6096 1634 c-22 -21 -20 -60 4 -84 25 -25 42 -25 63 -2 23 25 21 58
-3 82 -24 24 -43 25 -64 4z"/>
<path d="M9834 1624 c-25 -37 -9 -78 31 -82 34 -4 55 18 55 58 0 53 -57 69
-86 24z"/>
<path d="M10567 1632 c-21 -23 -22 -65 -3 -82 23 -18 59 -8 75 22 32 56 -30
107 -72 60z"/>
<path d="M10327 1622 c-22 -25 -21 -55 2 -76 26 -23 52 -17 70 16 32 56 -30
107 -72 60z"/>
<path d="M10810 1620 c-22 -22 -27 -69 -8 -88 30 -30 88 3 88 50 0 19 -34 58
-50 58 -5 0 -19 -9 -30 -20z"/>
<path d="M12897 1622 c-9 -10 -17 -26 -17 -36 0 -57 56 -76 87 -30 15 24 15
29 2 53 -18 32 -50 38 -72 13z"/>
<path d="M2982 1618 c-18 -18 -14 -63 7 -82 25 -23 52 -17 70 15 13 24 13 29
-2 53 -19 28 -54 35 -75 14z"/>
<path d="M5842 1608 c-22 -22 -15 -76 12 -93 36 -24 66 -5 66 40 0 53 -46 85
-78 53z"/>
<path d="M11042 1604 c-26 -18 -30 -75 -7 -94 22 -18 64 -4 75 26 14 35 13 41
-10 64 -24 24 -29 24 -58 4z"/>
<path d="M11264 1574 c-24 -35 -9 -78 27 -82 33 -4 59 21 59 57 0 54 -57 71
-86 25z"/>
<path d="M11507 1582 c-21 -23 -22 -75 -2 -92 23 -19 64 -4 72 28 9 35 5 54
-15 70 -22 17 -36 15 -55 -6z"/>
<path d="M5366 1568 c-9 -12 -16 -29 -16 -38 0 -24 29 -60 49 -60 24 0 51 31
51 58 0 25 -33 62 -54 62 -8 0 -22 -10 -30 -22z"/>
<path d="M5598 1564 c-10 -21 -9 -31 3 -52 28 -51 89 -34 89 24 0 53 -71 75
-92 28z"/>
<path d="M13127 1572 c-10 -10 -17 -28 -17 -40 0 -22 32 -62 50 -62 16 0 50
39 50 58 0 26 -28 62 -49 62 -10 0 -25 -8 -34 -18z"/>
<path d="M11742 1568 c-44 -56 -2 -130 54 -93 27 17 34 71 12 93 -16 16 -53
15 -66 0z"/>
<path d="M4882 1558 c-7 -7 -12 -26 -12 -43 0 -36 15 -55 45 -55 29 0 45 19
45 51 0 47 -49 76 -78 47z"/>
<path d="M5114 1545 c-19 -30 -9 -66 24 -84 28 -15 62 12 62 49 0 57 -56 80
-86 35z"/>
<path d="M11982 1558 c-44 -56 -2 -130 54 -93 27 17 34 71 12 93 -16 16 -53
15 -66 0z"/>
<path d="M2765 1536 c-37 -27 -15 -106 31 -106 41 0 59 74 26 103 -22 21 -33
21 -57 3z"/>
<path d="M4637 1532 c-21 -23 -21 -41 -1 -70 17 -24 53 -29 72 -10 18 18 14
63 -6 81 -24 22 -45 21 -65 -1z"/>
<path d="M12217 1532 c-29 -32 -20 -82 16 -95 21 -8 67 32 67 58 0 51 -51 73
-83 37z"/>
<path d="M4416 1514 c-33 -33 -8 -104 37 -104 17 0 47 36 47 58 0 15 -44 62
-59 62 -5 0 -17 -7 -25 -16z"/>
<path d="M12435 1506 c-29 -29 -31 -43 -9 -74 20 -29 50 -28 70 2 20 32 15 65
-13 83 -20 14 -24 13 -48 -11z"/>
<path d="M13376 1504 c-17 -17 -21 -51 -7 -73 5 -8 3 -23 -4 -38 -21 -40 1
-83 41 -83 29 0 46 30 43 73 -2 18 1 44 5 60 16 55 -40 99 -78 61z"/>
<path d="M4180 1490 c-11 -11 -20 -28 -20 -38 0 -22 35 -62 55 -62 21 0 45 29
45 56 0 24 -31 64 -50 64 -5 0 -19 -9 -30 -20z"/>
<path d="M2552 1488 c-29 -29 -2 -108 36 -108 20 0 42 31 42 60 0 48 -48 78
-78 48z"/>
<path d="M3942 1478 c-18 -18 -14 -63 8 -83 26 -24 68 -13 76 20 13 52 -49 98
-84 63z"/>
<path d="M12667 1468 c-28 -22 -32 -63 -8 -87 26 -26 36 -26 61 -1 49 49 1
128 -53 88z"/>
<path d="M3703 1444 c-15 -24 -15 -29 -2 -53 16 -29 52 -39 75 -21 20 17 18
64 -4 83 -26 24 -49 21 -69 -9z"/>
<path d="M13686 1454 c-10 -10 -16 -33 -16 -64 0 -69 37 -102 74 -64 19 19 22
114 4 132 -17 17 -44 15 -62 -4z"/>
<path d="M3467 1442 c-23 -25 -21 -58 3 -82 25 -25 42 -25 63 -2 23 25 21 58
-3 82 -25 25 -42 25 -63 2z"/>
<path d="M12876 1438 c-21 -30 -20 -61 2 -81 25 -23 48 -21 66 5 21 30 20 54
-4 78 -26 26 -45 25 -64 -2z"/>
<path d="M3232 1418 c-18 -18 -14 -63 7 -82 47 -42 103 15 67 68 -18 28 -54
34 -74 14z"/>
<path d="M13110 1410 c-24 -24 -26 -63 -4 -84 44 -45 105 25 69 80 -19 29 -39
30 -65 4z"/>
<path d="M2302 1398 c-17 -17 -15 -64 4 -83 23 -22 56 -15 73 16 13 24 13 29
-2 53 -19 28 -54 35 -75 14z"/>
<path d="M3022 1388 c-24 -31 -23 -57 3 -84 24 -24 28 -25 48 -11 12 8 23 27
25 42 6 47 -49 85 -76 53z"/>
<path d="M2071 1346 c-14 -16 -13 -98 1 -138 13 -35 44 -45 69 -22 17 15 19
26 13 78 -4 34 -13 69 -22 79 -18 21 -45 22 -61 3z"/>
<path d="M2792 1328 c-17 -17 -15 -64 4 -82 33 -34 74 -12 74 39 0 36 -15 55
-45 55 -12 0 -26 -5 -33 -12z"/>
<path d="M1886 1314 c-24 -23 -21 -106 3 -128 44 -40 82 4 71 80 -9 61 -41 82
-74 48z"/>
<path d="M2582 1304 c-43 -30 -13 -115 36 -100 43 14 48 94 7 110 -21 8 -17 9
-43 -10z"/>
<path d="M8791 1300 c-302 -9 -611 -25 -854 -44 -142 -12 -160 -15 -182 -36
-33 -31 -32 -65 1 -87 40 -26 144 -20 345 21 269 54 525 61 2044 60 1194 -2
1774 -8 3360 -39 455 -9 716 -10 727 -4 22 12 23 52 2 70 -17 14 -16 14 -1914
49 -779 14 -3173 21 -3529 10z"/>
<path d="M2310 1254 c-20 -53 36 -107 76 -74 17 15 19 71 2 88 -7 7 -25 12
-40 12 -21 0 -31 -6 -38 -26z"/>
<path d="M6400 1245 c-1571 -37 -1889 -45 -2415 -60 -685 -21 -1441 -51 -1755
-70 -936 -58 -914 -56 -934 -75 -17 -16 -18 -23 -8 -45 14 -31 -15 -31 475 0
1039 65 1871 94 4152 145 259 6 655 15 881 21 l412 10 128 -26 c213 -44 309
-36 334 25 12 30 5 53 -26 84 -19 20 8 20 -1244 -9z"/>
<path d="M11888 1104 c-16 -33 7 -77 42 -82 45 -7 68 59 32 91 -28 25 -60 21
-74 -9z"/>
<path d="M13028 1119 c-18 -10 -24 -54 -10 -75 17 -26 48 -34 70 -18 29 20 28
55 -1 82 -26 24 -34 26 -59 11z"/>
<path d="M11659 1097 c-15 -33 4 -75 37 -83 31 -8 54 15 54 52 0 51 -71 75
-91 31z"/>
<path d="M12122 1108 c-28 -28 3 -98 42 -98 22 0 46 29 46 54 0 43 -59 73 -88
44z"/>
<path d="M12342 1108 c-29 -29 1 -98 42 -98 45 0 60 45 30 88 -17 24 -53 29
-72 10z"/>
<path d="M12802 1108 c-22 -22 -15 -76 12 -93 55 -36 94 36 49 88 -19 20 -44
22 -61 5z"/>
<path d="M13235 1096 c-17 -26 -9 -62 19 -85 13 -11 22 -11 41 -3 34 16 35 74
3 96 -31 22 -45 20 -63 -8z"/>
<path d="M14454 1096 c-29 -46 12 -108 60 -90 24 9 32 53 15 83 -20 36 -53 39
-75 7z"/>
<path d="M11428 1099 c-28 -16 -24 -75 6 -94 19 -13 29 -14 45 -5 30 15 29 73
-1 94 -26 19 -27 19 -50 5z"/>
<path d="M12568 1085 c-10 -22 -8 -30 9 -53 27 -36 57 -40 78 -8 14 20 14 29
4 48 -24 46 -73 53 -91 13z"/>
<path d="M13454 1086 c-13 -22 -14 -29 -2 -53 15 -31 65 -45 79 -21 15 22 10
64 -9 81 -26 24 -49 21 -68 -7z"/>
<path d="M13672 1098 c-19 -19 -14 -66 8 -88 25 -25 35 -25 61 1 15 15 19 28
14 47 -10 45 -56 67 -83 40z"/>
<path d="M13867 1092 c-10 -10 -17 -28 -17 -40 0 -22 32 -62 50 -62 16 0 50
39 50 58 0 26 -28 62 -49 62 -10 0 -25 -8 -34 -18z"/>
<path d="M14072 1098 c-7 -7 -12 -26 -12 -43 0 -36 15 -55 45 -55 41 0 59 46
35 91 -12 21 -50 25 -68 7z"/>
<path d="M14266 1094 c-35 -34 -4 -111 41 -102 26 5 43 46 32 77 -17 42 -46
53 -73 25z"/>
<path d="M14652 1094 c-27 -19 -29 -65 -4 -87 26 -24 49 -21 68 8 31 48 -20
110 -64 79z"/>
<path d="M11192 1088 c-17 -17 -15 -64 4 -82 21 -22 61 -20 74 3 15 29 12 49
-10 71 -23 23 -50 26 -68 8z"/>
<path d="M10716 1074 c-34 -33 -12 -94 34 -94 35 0 53 28 44 65 -10 41 -51 57
-78 29z"/>
<path d="M10962 1078 c-22 -22 -15 -76 12 -93 45 -30 91 18 65 67 -20 39 -53
50 -77 26z"/>
<path d="M14846 1079 c-16 -10 -17 -19 -12 -73 4 -33 14 -71 22 -83 34 -54
102 -6 76 52 -7 14 -12 39 -12 54 0 27 -26 61 -46 61 -5 0 -17 -5 -28 -11z"/>
<path d="M9802 1068 c-18 -18 -14 -63 7 -82 47 -42 103 15 67 68 -18 28 -54
34 -74 14z"/>
<path d="M10022 1068 c-22 -22 -15 -76 12 -93 45 -30 91 18 65 67 -20 39 -53
50 -77 26z"/>
<path d="M10476 1064 c-33 -33 -7 -94 40 -94 45 0 59 55 24 90 -24 24 -43 25
-64 4z"/>
<path d="M9290 1051 c-17 -32 -11 -58 17 -80 23 -19 29 -20 47 -8 27 18 32 52
12 83 -20 29 -61 32 -76 5z"/>
<path d="M9552 1058 c-27 -27 -9 -88 31 -101 27 -10 60 29 52 61 -10 45 -56
67 -83 40z"/>
<path d="M10252 1058 c-15 -15 -16 -70 0 -86 7 -7 25 -12 40 -12 22 0 31 6 39
27 18 48 -45 105 -79 71z"/>
<path d="M9048 1015 c-15 -33 3 -72 37 -81 46 -11 71 37 45 87 -16 29 -67 26
-82 -6z"/>
<path d="M5667 992 c-24 -26 -21 -68 5 -86 44 -31 95 31 64 79 -19 29 -46 32
-69 7z"/>
<path d="M6170 994 c-28 -33 -6 -104 32 -104 17 0 48 41 48 64 0 47 -53 74
-80 40z"/>
<path d="M8824 986 c-13 -21 -14 -29 -2 -52 29 -60 80 -56 86 5 6 62 -52 94
-84 47z"/>
<path d="M3567 982 c-21 -23 -22 -65 -3 -82 23 -18 59 -8 75 22 32 56 -30 107
-72 60z"/>
<path d="M3800 980 c-25 -25 -26 -62 -2 -83 24 -22 38 -21 62 3 25 25 26 62 2
83 -24 22 -38 21 -62 -3z"/>
<path d="M5446 984 c-19 -18 -21 -65 -4 -82 7 -7 21 -12 33 -12 30 0 45 19 45
55 0 51 -41 73 -74 39z"/>
<path d="M5912 988 c-7 -7 -12 -27 -12 -45 0 -26 6 -36 25 -45 44 -20 80 32
59 86 -7 19 -55 21 -72 4z"/>
<path d="M3341 964 c-25 -32 -26 -43 -5 -72 19 -27 38 -28 64 -2 24 24 26 63
4 84 -22 23 -40 20 -63 -10z"/>
<path d="M4047 972 c-21 -23 -22 -66 -1 -86 20 -21 37 -20 56 2 25 29 29 53
13 78 -19 29 -46 31 -68 6z"/>
<path d="M4277 973 c-45 -52 -6 -124 49 -88 17 11 24 25 24 48 0 54 -40 76
-73 40z"/>
<path d="M4530 982 c-41 -13 -53 -68 -21 -96 37 -33 90 8 77 60 -7 26 -33 44
-56 36z"/>
<path d="M4756 974 c-26 -25 -31 -62 -11 -84 23 -25 40 -25 65 0 24 24 26 63
4 84 -20 20 -38 20 -58 0z"/>
<path d="M4996 969 c-29 -23 -34 -60 -10 -83 21 -21 40 -20 64 4 25 25 26 62
2 83 -23 21 -24 21 -56 -4z"/>
<path d="M6404 964 c-13 -19 -15 -32 -8 -52 13 -38 62 -38 83 0 34 60 -37 110
-75 52z"/>
<path d="M3116 958 c-30 -43 -15 -88 30 -88 41 0 71 69 42 98 -19 19 -55 14
-72 -10z"/>
<path d="M5216 964 c-20 -20 -21 -68 -1 -84 39 -33 95 23 75 75 -11 29 -50 34
-74 9z"/>
<path d="M8592 968 c-17 -17 -15 -64 4 -83 25 -24 67 -15 78 17 18 52 -45 103
-82 66z"/>
<path d="M14672 968 c-17 -17 -15 -74 4 -92 34 -34 74 -9 74 47 0 43 -51 72
-78 45z"/>
<path d="M2445 950 c-30 -33 -16 -100 21 -100 45 0 73 89 35 110 -27 14 -35
13 -56 -10z"/>
<path d="M8342 958 c-22 -22 -15 -76 12 -93 36 -24 66 -5 66 40 0 53 -46 85
-78 53z"/>
<path d="M2674 952 c-41 -27 -35 -102 8 -102 29 0 42 9 56 37 18 34 -2 73 -38
73 -8 0 -20 -4 -26 -8z"/>
<path d="M2887 942 c-21 -23 -22 -65 -3 -82 23 -18 59 -8 75 22 32 56 -30 107
-72 60z"/>
<path d="M6652 948 c-7 -7 -12 -26 -12 -43 0 -17 5 -36 12 -43 29 -29 78 0 78
47 0 32 -16 51 -45 51 -12 0 -26 -5 -33 -12z"/>
<path d="M2226 931 c-11 -12 -16 -31 -14 -53 3 -30 6 -33 38 -33 28 0 37 5 48
28 12 24 11 31 -2 53 -20 29 -47 31 -70 5z"/>
<path d="M2010 920 c-36 -36 -21 -100 22 -100 25 0 58 36 58 63 0 25 -28 57
-48 57 -7 0 -21 -9 -32 -20z"/>
<path d="M6897 922 c-20 -22 -22 -63 -5 -80 21 -21 56 -14 75 14 15 24 15 29
2 53 -18 32 -50 38 -72 13z"/>
<path d="M8106 918 c-22 -31 -20 -45 9 -73 28 -29 38 -31 59 -9 22 21 20 67
-2 87 -25 23 -48 21 -66 -5z"/>
<path d="M1600 910 c-24 -24 -26 -63 -4 -84 19 -19 35 -20 57 -3 28 21 32 62
8 86 -26 26 -36 26 -61 1z"/>
<path d="M1797 912 c-43 -48 -3 -121 48 -88 32 21 40 52 21 81 -19 30 -47 32
-69 7z"/>
<path d="M7130 911 c-14 -28 -12 -67 4 -81 41 -33 101 24 78 74 -15 33 -66 37
-82 7z"/>
<path d="M14488 905 c-13 -30 0 -68 30 -84 27 -15 62 12 62 48 0 56 -70 84
-92 36z"/>
<path d="M1010 900 c-11 -11 -20 -31 -20 -43 0 -25 28 -57 48 -57 19 0 52 38
52 60 0 21 -33 60 -50 60 -5 0 -19 -9 -30 -20z"/>
<path d="M1392 908 c-7 -7 -12 -26 -12 -43 0 -53 41 -73 73 -37 33 36 16 92
-28 92 -12 0 -26 -5 -33 -12z"/>
<path d="M1200 891 c-14 -28 -12 -67 4 -81 24 -19 59 -8 74 23 12 24 11 31 -2
53 -20 29 -61 32 -76 5z"/>
<path d="M7368 898 c-29 -23 -27 -82 3 -98 29 -16 69 11 69 46 0 55 -35 80
-72 52z"/>
<path d="M823 888 c-18 -24 -23 -48 -13 -73 14 -36 66 -35 82 0 17 37 0 79
-33 83 -14 2 -30 -3 -36 -10z"/>
<path d="M14302 888 c-29 -29 -1 -98 40 -98 18 0 48 31 48 51 0 44 -59 76 -88
47z"/>
<path d="M7920 870 c-24 -24 -25 -48 -4 -78 28 -40 84 -18 84 34 0 24 -31 64
-50 64 -5 0 -19 -9 -30 -20z"/>
<path d="M636 867 c-17 -12 -39 -89 -38 -130 2 -69 92 -56 92 13 0 16 5 32 10
35 17 10 11 54 -10 75 -24 24 -30 24 -54 7z"/>
<path d="M14128 859 c-28 -16 -24 -75 6 -94 57 -38 97 43 44 88 -23 20 -27 20
-50 6z"/>
<path d="M7560 841 c-14 -28 -12 -67 4 -81 24 -19 59 -8 74 23 12 24 11 31 -2
53 -20 29 -61 32 -76 5z"/>
<path d="M7742 848 c-19 -19 -14 -73 8 -93 45 -40 100 28 66 80 -18 27 -54 33
-74 13z"/>
<path d="M13922 828 c-24 -31 -23 -57 2 -83 14 -14 29 -25 35 -25 19 0 41 32
41 59 0 46 -53 79 -78 49z"/>
<path d="M13732 808 c-24 -29 -18 -74 12 -93 36 -24 66 -5 66 39 0 51 -51 86
-78 54z"/>
<path d="M13530 780 c-25 -25 -26 -54 0 -80 25 -25 42 -25 63 -2 30 33 18 68
-30 96 -7 4 -21 -2 -33 -14z"/>
<path d="M794 746 c-13 -22 -14 -29 -2 -53 26 -55 88 -36 88 27 0 52 -57 69
-86 26z"/>
<path d="M13324 762 c-33 -22 -18 -88 23 -98 44 -12 69 38 43 87 -11 19 -45
25 -66 11z"/>
<path d="M13120 730 c-11 -11 -20 -26 -20 -34 0 -19 39 -66 55 -66 44 0 61 78
23 104 -29 20 -34 20 -58 -4z"/>
<path d="M970 711 c-24 -45 -6 -91 35 -91 30 0 45 19 45 55 0 17 -5 36 -12 43
-18 18 -56 14 -68 -7z"/>
<path d="M12900 701 c-15 -29 -12 -56 8 -74 24 -22 45 -21 65 1 21 23 21 41 1
70 -19 27 -60 29 -74 3z"/>
<path d="M1171 691 c-25 -25 -27 -63 -5 -86 24 -23 57 -15 73 19 12 26 12 33
0 55 -19 33 -43 37 -68 12z"/>
<path d="M12692 688 c-29 -29 -6 -98 32 -98 29 0 49 22 49 55 0 47 -50 74 -81
43z"/>
<path d="M1357 662 c-21 -23 -22 -66 -1 -86 32 -33 77 -7 77 44 0 52 -45 77
-76 42z"/>
<path d="M12472 668 c-7 -7 -12 -26 -12 -43 0 -36 15 -55 45 -55 30 0 45 19
45 55 0 36 -15 55 -45 55 -12 0 -26 -5 -33 -12z"/>
<path d="M12261 641 c-17 -31 -13 -69 10 -84 45 -32 92 18 67 71 -17 35 -62
42 -77 13z"/>
<path d="M1555 634 c-21 -22 -16 -73 10 -90 31 -20 65 6 65 50 0 53 -40 74
-75 40z"/>
<path d="M12062 634 c-25 -17 -30 -72 -10 -92 16 -16 53 -15 67 2 18 22 9 77
-14 92 -18 12 -24 11 -43 -2z"/>
<path d="M1747 622 c-27 -29 -22 -80 8 -94 34 -15 65 12 65 57 0 53 -40 73
-73 37z"/>
<path d="M11832 624 c-41 -28 -20 -104 28 -104 30 0 55 45 42 75 -16 36 -44
47 -70 29z"/>
<path d="M1946 598 c-9 -12 -16 -29 -16 -38 0 -22 29 -60 46 -60 22 0 54 37
54 63 0 27 -28 57 -53 57 -9 0 -23 -10 -31 -22z"/>
<path d="M11610 600 c-24 -24 -25 -48 -4 -78 28 -40 84 -18 84 34 0 24 -31 64
-50 64 -5 0 -19 -9 -30 -20z"/>
<path d="M11385 596 c-21 -15 -23 -69 -4 -92 17 -20 57 -17 69 5 16 30 12 59
-10 81 -24 24 -30 24 -55 6z"/>
<path d="M2148 575 c-18 -40 0 -80 37 -80 40 0 65 41 47 79 -16 36 -68 37 -84
1z"/>
<path d="M2354 554 c-13 -19 -15 -32 -8 -52 13 -38 62 -38 83 0 34 60 -37 110
-75 52z"/>
<path d="M11156 558 c-9 -12 -16 -29 -16 -38 0 -25 29 -60 50 -60 26 0 54 43
45 69 -8 27 -32 51 -50 51 -8 0 -21 -10 -29 -22z"/>
<path d="M2583 562 c-6 -4 -17 -20 -23 -36 -21 -56 35 -100 73 -58 22 24 21
65 -1 85 -20 19 -31 21 -49 9z"/>
<path d="M10929 536 c-23 -51 17 -109 60 -87 10 6 22 22 25 37 15 60 -61 104
-85 50z"/>
<path d="M2786 534 c-19 -18 -21 -65 -4 -82 7 -7 21 -12 33 -12 30 0 45 19 45
55 0 51 -41 73 -74 39z"/>
<path d="M3006 521 c-23 -25 -17 -70 11 -88 20 -14 24 -13 48 11 28 28 27 60
-3 84 -22 17 -36 15 -56 -7z"/>
<path d="M10702 528 c-7 -7 -12 -26 -12 -43 0 -36 15 -55 45 -55 30 0 45 19
45 55 0 36 -15 55 -45 55 -12 0 -26 -5 -33 -12z"/>
<path d="M10472 518 c-7 -7 -12 -26 -12 -43 0 -36 15 -55 46 -55 27 0 47 23
47 55 0 47 -50 74 -81 43z"/>
<path d="M3210 501 c-24 -45 -6 -91 35 -91 30 0 45 19 45 55 0 17 -5 36 -12
43 -18 18 -56 14 -68 -7z"/>
<path d="M10018 495 c-8 -18 -9 -35 -2 -53 13 -38 62 -38 83 -1 13 24 13 29
-2 53 -23 35 -63 35 -79 1z"/>
<path d="M10246 504 c-22 -21 -20 -60 4 -84 42 -42 100 23 66 75 -19 29 -47
32 -70 9z"/>
<path d="M3420 491 c-14 -28 -12 -67 4 -81 24 -19 59 -8 74 23 12 24 11 31 -2
53 -20 29 -61 32 -76 5z"/>
<path d="M3656 491 c-22 -25 -17 -70 9 -87 18 -12 24 -11 43 2 29 20 31 79 3
94 -27 14 -35 13 -55 -9z"/>
<path d="M9522 498 c-24 -31 -23 -57 3 -84 24 -24 28 -25 48 -11 42 28 29 107
-17 107 -13 0 -28 -6 -34 -12z"/>
<path d="M9777 492 c-34 -37 -13 -92 33 -92 47 0 68 61 32 93 -24 22 -45 21
-65 -1z"/>
<path d="M3872 478 c-20 -20 -15 -75 10 -92 19 -13 25 -14 43 -2 23 15 32 70
14 92 -14 17 -51 18 -67 2z"/>
<path d="M4112 483 c-21 -8 -33 -50 -22 -77 20 -54 90 -35 90 25 0 43 -31 67
-68 52z"/>
<path d="M9292 474 c-25 -17 -30 -72 -10 -92 16 -16 53 -15 67 2 18 22 9 77
-14 92 -18 12 -24 11 -43 -2z"/>
<path d="M4327 452 c-31 -34 -12 -102 27 -102 42 0 63 90 27 110 -27 14 -35
13 -54 -8z"/>
<path d="M4550 440 c-11 -11 -20 -28 -20 -38 0 -26 29 -62 50 -62 21 0 50 36
50 62 0 19 -34 58 -50 58 -5 0 -19 -9 -30 -20z"/>
<path d="M4786 435 c-25 -25 -29 -54 -12 -80 20 -31 50 -32 70 -3 21 30 20 54
-4 78 -24 24 -34 25 -54 5z"/>
<path d="M5972 434 c-28 -19 -29 -65 -2 -89 17 -15 24 -16 46 -7 21 10 25 18
22 48 -4 49 -34 71 -66 48z"/>
<path d="M9056 435 c-22 -22 -20 -68 3 -89 42 -38 95 18 69 72 -16 32 -49 40
-72 17z"/>
<path d="M4998 415 c-8 -18 -9 -35 -2 -53 13 -38 62 -38 83 -1 13 24 13 29 -2
53 -23 35 -63 35 -79 1z"/>
<path d="M5240 420 c-11 -11 -20 -28 -20 -38 0 -26 29 -62 50 -62 21 0 50 35
50 60 0 18 -35 60 -50 60 -6 0 -19 -9 -30 -20z"/>
<path d="M5448 414 c-16 -33 7 -77 42 -82 45 -7 68 59 32 91 -28 25 -60 21
-74 -9z"/>
<path d="M5707 422 c-23 -25 -21 -58 3 -82 25 -25 35 -25 61 1 24 24 20 65 -8
87 -23 17 -37 15 -56 -6z"/>
<path d="M6207 412 c-23 -25 -21 -65 3 -87 17 -15 24 -16 45 -7 34 16 35 74 3
96 -28 20 -31 20 -51 -2z"/>
<path d="M8808 395 c-17 -37 0 -79 33 -83 30 -4 52 18 52 53 0 55 -63 77 -85
30z"/>
<path d="M6447 382 c-23 -25 -22 -65 2 -86 45 -41 100 24 63 73 -24 33 -44 37
-65 13z"/>
<path d="M8537 382 c-34 -38 -6 -109 40 -100 26 5 43 46 32 77 -17 44 -45 53
-72 23z"/>
<path d="M8223 364 c-15 -24 -15 -29 -2 -53 8 -14 23 -27 33 -29 22 -5 56 25
56 50 0 58 -56 79 -87 32z"/>
<path d="M7990 365 c-20 -24 -15 -67 10 -87 20 -16 25 -17 44 -5 12 8 22 27
24 44 5 51 -48 84 -78 48z"/>
<path d="M6679 343 c-13 -33 6 -76 35 -81 24 -5 56 26 56 54 0 54 -72 75 -91
27z"/>
<path d="M7822 358 c-22 -22 -15 -76 12 -93 55 -36 94 36 49 88 -19 20 -44 22
-61 5z"/>
<path d="M6968 349 c-38 -22 -11 -109 33 -109 40 0 54 73 21 103 -21 19 -30
20 -54 6z"/>
<path d="M7256 344 c-23 -23 -20 -51 9 -80 24 -24 28 -25 48 -11 28 18 33 51
13 83 -19 28 -47 31 -70 8z"/>
<path d="M7510 340 c-11 -11 -20 -29 -20 -40 0 -23 33 -60 53 -60 20 0 47 33
47 56 0 26 -27 64 -46 64 -8 0 -23 -9 -34 -20z"/>
<path d="M7692 348 c-20 -20 -15 -75 10 -92 19 -13 25 -14 43 -2 23 16 31 56
15 86 -12 22 -49 27 -68 8z"/>
</g>
</svg>
