<?xml version="1.0" standalone="no"?>
<!DOCTYPE svg PUBLIC "-//W3C//DTD SVG 20010904//EN"
 "http://www.w3.org/TR/2001/REC-SVG-20010904/DTD/svg10.dtd">
<svg version="1.0" xmlns="http://www.w3.org/2000/svg"
 width="1536.000000pt" height="1193.000000pt" viewBox="0 0 1536.000000 1193.000000"
 preserveAspectRatio="xMidYMid meet">
<metadata>
Created by potrace 1.16, written by Peter Selinger 2001-2019
</metadata>
<g transform="translate(0.000000,1193.000000) scale(0.100000,-0.100000)"
fill="#000000" stroke="none">
<path d="M8542 11923 c-23 -9 -51 -78 -66 -166 -8 -47 -22 -99 -31 -116 -34
-66 -119 -99 -366 -140 -322 -55 -478 -46 -934 50 -294 62 -385 108 -425 217
-38 101 -109 152 -185 131 -46 -13 -72 -49 -80 -112 -9 -66 -26 -99 -68 -131
-49 -38 -111 -56 -189 -56 -86 0 -127 17 -195 81 -105 99 -203 107 -248 19 -8
-16 -15 -42 -15 -57 0 -96 -47 -156 -130 -167 -78 -10 -146 -28 -385 -101
-296 -91 -371 -98 -453 -42 -86 60 -156 71 -228 37 -51 -25 -68 -60 -59 -123
7 -43 5 -47 -35 -91 -134 -145 -617 -364 -899 -407 -64 -10 -100 -10 -179 1
-134 17 -148 10 -136 -69 12 -81 9 -134 -10 -181 -75 -188 -337 -427 -520
-474 -48 -13 -70 -14 -125 -4 -118 20 -141 1 -141 -115 0 -73 23 -126 62 -145
15 -7 30 -22 33 -33 10 -31 -31 -146 -73 -209 -53 -78 -107 -108 -216 -120
-102 -12 -120 -20 -146 -63 -36 -58 -21 -179 25 -215 18 -14 25 -30 25 -53 -1
-127 -158 -530 -261 -667 -46 -60 -93 -94 -164 -117 -90 -30 -145 -88 -145
-152 1 -36 31 -98 72 -146 l33 -39 0 -111 c-1 -128 -21 -196 -78 -261 -27 -31
-41 -38 -89 -46 -65 -10 -92 -25 -107 -57 -23 -51 -6 -110 50 -168 90 -96 111
-306 53 -533 -35 -141 -83 -230 -170 -321 -87 -92 -110 -137 -94 -186 23 -69
98 -88 240 -60 103 20 133 14 150 -31 34 -88 -16 -202 -110 -249 -61 -31 -90
-67 -90 -112 0 -82 66 -150 192 -198 131 -51 197 -125 268 -302 57 -143 111
-338 117 -419 5 -69 5 -71 -25 -95 -16 -13 -43 -31 -59 -40 -97 -53 -77 -226
32 -279 85 -41 93 -65 46 -134 -40 -58 -47 -90 -27 -121 23 -35 62 -53 137
-61 110 -12 200 -69 385 -245 122 -116 180 -157 259 -184 71 -25 90 -52 104
-147 10 -69 36 -132 67 -159 11 -9 43 -29 72 -43 28 -14 52 -31 52 -36 0 -5
-42 -29 -94 -54 -72 -35 -101 -55 -124 -86 -63 -86 -64 -174 -1 -187 52 -10
63 -39 56 -156 -9 -175 -67 -353 -131 -402 -63 -48 -221 -94 -461 -136 -100
-18 -170 -23 -305 -23 l-175 -1 -42 29 c-57 38 -103 37 -185 -6 -134 -70 -305
-51 -1008 112 -222 52 -274 61 -320 56 -60 -7 -146 -43 -197 -82 -40 -30 -77
-98 -69 -128 7 -29 127 -106 316 -205 307 -159 551 -260 692 -287 76 -14 158
-44 359 -128 117 -49 207 -66 394 -75 165 -8 557 0 845 19 416 27 526 61 815
250 260 171 411 295 443 364 24 50 55 76 90 76 33 0 126 51 192 105 230 186
372 269 713 416 271 116 377 199 431 336 31 79 76 148 117 181 17 14 58 30 95
38 115 24 208 83 369 236 47 44 85 77 85 74 0 -3 -26 -70 -59 -148 -85 -208
-106 -282 -130 -458 -7 -47 -14 -96 -16 -110 -3 -14 -9 -176 -15 -360 -15
-502 -33 -645 -95 -735 -20 -28 -35 -63 -35 -78 0 -16 18 -57 39 -93 47 -78
59 -147 42 -240 -23 -124 -13 -159 49 -169 86 -14 141 -128 251 -518 85 -300
98 -329 154 -343 35 -9 99 20 132 60 31 37 49 78 75 170 36 131 71 156 229
167 148 10 208 44 209 117 0 44 -21 81 -87 160 -77 91 -97 139 -97 232 1 123
41 189 173 290 39 29 75 65 81 81 14 32 -1 72 -66 179 -84 137 -118 263 -118
435 1 179 42 294 128 349 48 31 65 32 116 6 111 -57 508 -532 600 -718 111
-226 221 -810 189 -1008 -6 -38 -13 -98 -16 -134 -6 -81 1 -89 90 -100 35 -4
77 -15 93 -23 57 -29 111 -103 188 -253 139 -275 199 -362 284 -411 60 -35
146 -39 188 -7 66 49 73 89 94 510 16 304 4 418 -46 450 -52 35 -62 138 -22
226 18 39 47 73 102 123 99 89 100 98 7 219 -82 108 -134 211 -157 313 -19 87
-14 146 15 177 30 32 41 108 41 296 0 252 -81 1544 -118 1885 -25 234 -22 303
22 475 40 158 87 318 173 590 96 305 125 430 130 565 5 114 4 129 -30 265 -61
248 -60 284 17 387 81 108 115 195 142 362 23 145 50 180 151 199 61 12 463
46 469 39 2 -2 -32 -109 -76 -238 -92 -269 -106 -346 -90 -488 33 -295 198
-909 321 -1200 64 -151 102 -208 156 -231 34 -15 44 -26 52 -57 6 -21 11 -45
11 -54 0 -42 98 -159 320 -379 255 -254 388 -401 547 -605 274 -352 376 -436
658 -535 265 -94 311 -137 409 -381 69 -170 176 -387 273 -554 140 -240 206
-390 223 -506 16 -108 27 -135 76 -191 52 -58 52 -63 -7 -152 -29 -45 -39 -69
-39 -100 0 -86 66 -139 172 -139 135 0 238 133 298 385 44 185 55 293 55 538
-1 219 -2 244 -28 363 -31 141 -117 447 -170 602 -126 369 -287 672 -479 900
-107 128 -246 259 -448 422 -199 160 -356 316 -394 391 -47 93 -142 173 -316
263 -55 29 -107 66 -151 109 -183 179 -224 443 -201 1282 14 482 25 646 50
722 16 48 19 51 54 54 21 2 54 -5 75 -14 58 -26 228 -206 322 -339 215 -306
328 -440 450 -537 100 -80 157 -107 261 -124 110 -17 279 -68 429 -129 222
-89 266 -131 282 -272 9 -86 29 -127 72 -154 67 -42 148 -3 189 91 25 57 65
100 95 100 41 0 94 -59 138 -155 32 -69 54 -102 93 -136 99 -89 202 -84 202
11 0 36 44 70 89 70 22 0 42 -4 45 -9 4 -5 -10 -29 -29 -53 -46 -58 -75 -113
-91 -173 -25 -91 -13 -195 21 -195 20 0 167 74 334 168 157 88 215 112 275
112 51 0 83 -12 191 -74 105 -60 258 -120 392 -152 189 -46 365 -36 387 21 21
56 -16 148 -103 255 -38 47 -68 87 -65 89 2 2 27 -14 56 -36 75 -57 111 -73
160 -73 56 0 85 21 98 70 14 51 -1 117 -45 196 -71 126 -102 332 -85 554 17
223 50 336 133 457 65 96 87 154 94 254 7 96 -7 140 -63 200 -51 56 -64 95
-71 220 -6 107 14 234 47 300 20 39 64 79 86 79 7 0 31 17 54 38 48 47 53 85
15 130 -39 46 -96 65 -200 67 -109 2 -133 9 -141 42 -13 50 14 103 96 188 57
60 81 93 90 124 14 54 4 107 -30 144 -30 33 -56 37 -151 22 -41 -7 -48 -5 -63
16 -21 30 -22 141 -1 199 8 24 35 64 58 89 49 53 73 120 63 176 -6 30 -14 39
-43 51 -30 13 -49 14 -122 4 -209 -29 -271 50 -292 370 -6 85 -17 169 -24 187
-18 44 -50 54 -139 46 -41 -3 -85 -3 -100 1 -35 9 -66 44 -66 76 0 56 -51 131
-171 249 -149 146 -176 198 -188 351 -7 91 -11 104 -35 128 l-26 27 -169 -3
c-165 -3 -169 -3 -196 21 -26 22 -28 31 -36 133 -5 60 -11 125 -15 144 -9 51
-43 107 -74 120 -57 23 -106 -12 -174 -127 -66 -111 -90 -115 -238 -41 -128
64 -230 159 -278 259 -16 35 -30 70 -30 77 0 25 -39 90 -70 116 -53 44 -108
32 -145 -32 -4 -8 -13 -63 -20 -123 -9 -77 -17 -115 -30 -129 -29 -32 -81 -43
-174 -37 -149 9 -335 92 -439 196 -53 53 -67 81 -77 153 -8 58 -43 104 -91
117 -56 16 -95 -2 -162 -74 -33 -36 -69 -65 -79 -65 -24 0 -54 33 -126 135
-64 92 -120 149 -161 165 -59 22 -83 -7 -96 -117 -11 -101 -33 -125 -122 -131
-94 -6 -108 -23 -108 -130 0 -47 -5 -103 -12 -126 -16 -53 -92 -129 -184 -183
-111 -66 -195 -133 -210 -169 -27 -66 -91 -80 -207 -47 -61 17 -89 39 -166
132 -34 41 -74 59 -171 75 -72 12 -193 132 -258 254 -52 98 -74 178 -74 267 0
44 -4 94 -9 111 -30 96 -134 102 -236 14 -69 -61 -206 -59 -339 5 -81 39 -141
99 -194 195 -44 79 -92 112 -138 93z"/>
</g>
</svg>
