<?xml version="1.0" standalone="no"?>
<!DOCTYPE svg PUBLIC "-//W3C//DTD SVG 20010904//EN"
 "http://www.w3.org/TR/2001/REC-SVG-20010904/DTD/svg10.dtd">
<svg version="1.0" xmlns="http://www.w3.org/2000/svg"
 width="1536.000000pt" height="380.000000pt" viewBox="0 0 1536.000000 380.000000"
 preserveAspectRatio="xMidYMid meet">
<metadata>
Created by potrace 1.16, written by Peter Selinger 2001-2019
</metadata>
<g transform="translate(0.000000,380.000000) scale(0.100000,-0.100000)"
fill="#000000" stroke="none">
<path d="M10505 3778 c-92 -17 -134 -18 -525 -13 -471 5 -590 0 -935 -46 -205
-27 -247 -30 -380 -24 -124 5 -193 2 -395 -19 -135 -14 -339 -31 -455 -36
-115 -6 -320 -17 -455 -25 -813 -49 -1073 -56 -1850 -53 -521 2 -718 -1 -910
-14 -170 -11 -321 -14 -495 -10 -371 8 -963 4 -1185 -8 -234 -13 -504 -42
-695 -76 -152 -26 -217 -41 -460 -102 -88 -22 -196 -49 -240 -60 -181 -46
-502 -164 -715 -262 -58 -27 -187 -74 -287 -105 -281 -86 -381 -132 -447 -205
-43 -47 -76 -110 -76 -144 0 -40 39 -76 88 -83 42 -6 44 -7 38 -34 -3 -16 -9
-42 -12 -58 -14 -65 100 -138 406 -259 69 -28 168 -69 220 -92 52 -23 131 -55
175 -70 44 -15 112 -42 150 -60 96 -44 366 -143 630 -230 195 -65 309 -109
640 -250 50 -21 108 -43 130 -49 40 -11 41 -12 69 -98 16 -49 41 -113 57 -143
36 -66 219 -270 286 -317 140 -99 224 -147 498 -282 328 -163 420 -201 754
-316 206 -70 314 -117 446 -194 28 -16 72 -33 99 -37 l49 -7 -7 29 c-36 151
-349 585 -580 804 -63 60 -125 145 -114 156 9 8 60 -15 123 -56 52 -33 80 -43
210 -69 277 -56 490 -82 549 -67 53 13 7 40 -200 117 -168 62 -260 108 -294
144 l-25 27 190 -5 c105 -2 300 -16 435 -31 545 -57 477 -55 1145 -34 336 10
675 23 755 29 80 6 345 15 590 20 310 5 481 12 565 24 66 8 255 20 420 25 165
5 345 14 400 20 188 22 269 4 440 -100 110 -67 140 -78 259 -101 84 -16 122
-30 228 -84 171 -88 247 -107 408 -104 69 1 175 2 235 1 61 -1 220 -1 355 0
524 3 639 2 738 -11 57 -7 105 -11 108 -8 11 11 -62 79 -144 133 -107 70 -202
142 -202 153 0 5 89 11 198 14 223 5 358 26 615 97 192 53 319 102 612 240
320 149 365 164 600 190 210 24 281 43 424 114 93 47 272 118 456 181 115 39
225 91 385 181 52 29 132 65 177 79 154 48 492 234 561 308 34 36 24 54 -71
142 -147 137 -282 215 -527 305 -63 24 -173 74 -245 111 -71 37 -150 73 -175
79 -25 7 -112 16 -195 20 -148 7 -152 8 -265 54 -144 58 -216 72 -405 81 -234
10 -325 34 -620 163 -295 129 -365 144 -730 162 -239 12 -318 22 -425 55 -41
13 -122 31 -180 40 -58 10 -154 35 -215 57 -199 72 -255 87 -384 102 -162 20
-270 19 -396 -6z"/>
</g>
</svg>
