<?xml version="1.0" standalone="no"?>
<!DOCTYPE svg PUBLIC "-//W3C//DTD SVG 20010904//EN"
 "http://www.w3.org/TR/2001/REC-SVG-20010904/DTD/svg10.dtd">
<svg version="1.0" xmlns="http://www.w3.org/2000/svg"
 width="201.000000pt" height="1536.000000pt" viewBox="0 0 201.000000 1536.000000"
 preserveAspectRatio="xMidYMid meet">
<metadata>
Created by potrace 1.16, written by Peter Selinger 2001-2019
</metadata>
<g transform="translate(0.000000,1536.000000) scale(0.100000,-0.100000)"
fill="#000000" stroke="none">
<path d="M698 15355 c-3 -3 -3 -65 -1 -138 5 -142 -11 -286 -44 -387 -17 -51
-22 -57 -75 -85 -122 -64 -297 -235 -348 -339 -16 -34 -61 -164 -100 -291 -82
-265 -92 -339 -80 -555 14 -228 46 -340 159 -555 82 -155 85 -166 72 -288 -10
-100 -15 -173 -66 -952 -14 -214 -39 -565 -55 -780 -42 -567 -71 -1133 -105
-2110 -42 -1205 -59 -2030 -51 -2405 4 -168 11 -559 16 -870 5 -338 12 -581
19 -606 18 -70 39 -326 61 -729 25 -478 44 -712 120 -1480 81 -817 127 -1331
175 -1955 35 -453 44 -525 70 -585 7 -16 16 -64 20 -105 7 -82 22 -140 35
-140 13 0 22 19 41 85 10 33 18 52 18 43 2 -38 21 -15 40 47 23 75 214 1028
321 1600 106 574 164 936 225 1410 73 577 95 696 185 1025 24 87 23 95 -31
308 -56 218 -55 224 38 237 90 12 121 65 143 243 14 108 8 135 -40 173 -47 38
-51 51 -34 114 24 90 53 267 68 415 87 842 147 3650 123 5740 -9 859 -6 1193
18 1505 25 341 38 400 149 705 40 113 95 273 122 355 26 83 60 179 76 213 15
35 28 70 28 78 0 20 -42 34 -101 34 -120 0 -284 53 -415 135 -152 95 -204 192
-279 527 -38 165 -69 252 -98 277 -18 14 -23 6 -45 -64 l-9 -30 -12 43 c-26
92 -84 108 -155 42 -47 -44 -56 -48 -56 -25 0 20 -67 93 -101 111 -31 16 -33
16 -41 9z m-138 -715 c0 -10 -20 -88 -44 -172 -66 -228 -73 -259 -112 -485
-59 -344 -71 -431 -83 -583 -17 -218 -32 -353 -41 -369 -19 -36 -111 160 -152
327 -19 75 -22 116 -23 287 l0 200 69 225 c74 241 108 328 153 386 31 42 210
204 224 204 5 0 9 -9 9 -20z m961 -270 c129 -62 224 -90 309 -90 88 0 112 -29
69 -84 -12 -16 -24 -52 -30 -92 -5 -36 -22 -96 -38 -133 -36 -82 -124 -331
-182 -511 -23 -74 -44 -137 -46 -140 -10 -11 -23 33 -53 179 -17 86 -52 244
-76 351 -74 331 -111 580 -86 580 5 0 65 -27 133 -60z m-71 -9319 c0 -94 -62
-246 -98 -239 -33 6 -25 54 29 173 29 63 56 115 61 115 4 0 8 -22 8 -49z
m-1010 -2984 c6 -45 10 -147 8 -227 l-3 -145 -28 255 c-15 140 -27 262 -27
270 1 40 41 -81 50 -153z m90 -967 c0 -10 -4 -22 -10 -25 -6 -4 -10 7 -10 25
0 18 4 29 10 25 6 -3 10 -15 10 -25z m-46 -752 c-13 -24 -19 -28 -22 -16 -2 9
5 32 14 50 13 24 19 28 22 16 2 -9 -5 -32 -14 -50z"/>
</g>
</svg>
