<?xml version="1.0" encoding="UTF-8" standalone="no"?>
<!-- Created with Inkscape (http://www.inkscape.org/) -->

<svg
   xmlns:svg="http://www.w3.org/2000/svg"
   xmlns="http://www.w3.org/2000/svg"
   version="1.1"
   width="319.89633"
   height="800.80835"
   id="svg3118">
  <defs
     id="defs3120" />
  <g
     transform="translate(-197.63968,-151.95802)"
     id="layer1">
    <path
       d="m 233.56709,465.46818 c -3.34742,1.07583 3.15928,35.75061 -5.98615,44.89604 -0.69522,0.69525 2.95459,48.77135 3.99077,51.87989 7.94086,23.82263 -19.06815,132.80477 -28.93301,142.66963 -5.46592,5.46592 -4.98846,44.3311 -4.98846,55.87062 0,12.68827 8.05325,27.0811 12.96997,36.91454 7.90582,15.81162 6.90239,39.74471 14.96535,55.87062 12.6193,25.23861 41.91081,56.87617 60.85908,75.82447 15.1797,15.1797 47.47662,11.2672 64.84982,19.9537 14.07361,7.0369 42.59225,2.304 50.88219,-5.9861 16.03012,-16.0301 29.67519,-36.659 44.89607,-51.8798 21.69643,-28.05499 12.51009,-43.836 10.97458,-71.83373 0,-18.87012 -12.7396,-50.42143 -21.94921,-68.84059 -3.48248,-6.96495 0.67759,-17.60091 -2.99308,-24.94223 -7.26502,-14.53007 -6.5971,-27.16188 -12.96996,-39.90761 -7.93332,-15.86663 -5.79711,-43.52032 -8.9792,-49.88448 -2.9271,-5.85422 -14.94497,-28.97376 -10.97458,-36.91453 16.48715,-32.9743 22.86065,-74.74053 47.88912,-99.76898 6.63433,-6.6343 3.80091,-20.76162 9.97691,-26.93762 3.52731,-3.52733 8.35986,-7.36219 11.97227,-10.97458 4.58286,-4.58286 2.61713,-14.58942 6.98384,-18.95611 6.51252,-6.51252 14.45361,-32.43783 9.97689,-36.91454 -1.00078,-1.00078 -15.66768,6.83615 -17.95842,7.98153 -23.36033,11.68015 -50.36012,20.1916 -73.82907,31.92608 -46.46301,23.2315 -116.65939,1.96725 -161.62572,19.95378 z"
       id="path3065-8"
       style="fill:#000000" />
    <path
       d="m 405.1697,716.88601 c 8.49031,25.47093 15.96304,61.78114 15.96304,92.78516 0,7.60976 -3.74105,43.89835 4.98846,43.89835 7.30247,0 8.9792,-22.07316 8.9792,-29.93069 0,-42.3522 -24.90153,-74.95893 -28.93301,-114.73432 -5.41892,-19.92695 -2.61435,-43.75993 -7.9815,-59.86139"
       id="path3067-9"
       style="fill:#ffffff;stroke:#000000;stroke-width:2.45253563px;stroke-linecap:butt;stroke-linejoin:miter;stroke-opacity:1" />
    <path
       d="m 441.93488,374.73906 c -5.00553,1.6685 -14.05774,-0.0172 -17.45681,-1.71707 -1.9089,-0.95446 -6.19802,1.76599 -8.01295,0.85853 -0.66637,-0.3332 -0.97201,-1.43088 -1.71704,-1.43088 -0.52823,0 -2.92019,1.83094 -3.7203,1.43088 -0.37494,-0.18762 -0.41909,-1.71707 -0.57237,-1.71707 -2.95013,0 -7.24693,0.69858 -10.30237,1.71707 -1.89819,0.63273 -16.10506,-0.77934 -16.31206,-0.57235 -1.91786,1.91784 -25.51255,2.88315 -30.62094,5.43735 -1.09069,0.54534 -4.96162,-1.20788 -6.86822,-0.57235 -2.01047,0.67015 -4.29984,1.1483 -6.00972,2.00323 -2.12586,1.06293 -1.11939,-2.8871 -5.43737,1.43088 -0.0694,0.0694 -4.98105,0.20111 -5.72353,0.57235 -0.87011,0.43506 -2.17388,-1.26023 -2.86177,-0.57235 -1.56594,1.56595 -2.53707,3.10945 -4.00648,4.57884 -2.05964,2.05964 -17.40477,0.11723 -17.74297,0.28618 -1.57215,0.78607 -2.68894,1.77373 -4.29265,2.57558 -0.7284,0.36418 -2.70416,-0.79423 -4.865,0.28619 -1.17895,0.58947 -0.992,2.1367 -1.71706,2.86177 -0.23594,0.23593 -3.29955,-0.63965 -4.00649,-0.28619 -3.07367,1.53686 -9.8535,2.41295 -12.30557,4.86502 -0.92402,0.92414 -0.12729,1.55824 -0.85854,2.28942 -1.6043,1.60427 -7.67244,-0.34051 -9.44383,1.43088 -0.66859,0.66856 1.07446,1.21496 0.57235,1.71705 -0.92608,0.9262 -3.41391,0.56224 -4.57881,1.14472 -3.44478,1.72236 -5.56456,4.99218 -7.72679,7.15441 -1.34686,1.34686 -4.61393,1.466 -5.72353,2.5756 -3.64035,3.64033 -9.46289,7.17345 -12.87797,10.58853 -2.77899,2.77899 -5.45586,11.1794 -7.15441,12.87797 -1.4457,1.4457 -3.60945,3.09572 -2.86177,5.15119 -4.53422,6.68786 -4.24262,21.51329 0.85853,26.61445 1.84637,1.84636 4.35868,-1.4639 5.43735,-2.00326 0.28935,-0.1447 1.33499,1.62117 1.43088,1.71707 1.297,1.297 3.87265,0.72467 5.15119,2.00323 1.82228,1.82228 -3.16265,5.99503 3.43413,12.59178 0.75877,0.75877 4.98608,-0.69343 5.43735,-1.14469 2.22158,-2.22158 6.20658,-2.81713 9.15767,-4.29268 1.96078,-0.98037 2.67101,2.19402 3.14795,1.71707 0.5374,-0.5374 3.18248,-1.55669 4.57881,-0.85853 0.89358,0.4468 1.51895,1.80511 2.00326,2.28942 0.90927,0.9093 4.16425,-1.20891 5.43734,-0.57235 0.90859,0.45428 1.54696,1.83315 2.00326,2.28942 0.21239,0.21238 6.0491,2.02292 7.15441,2.57557 2.50029,1.25016 7.5959,-2.70642 9.15762,-1.14469 1.036,1.036 0.54218,2.83157 1.43091,3.7203 0.58721,0.58723 7.04645,6.97621 8.87148,5.15118 2.90162,-2.90162 2.36231,-8.37205 5.43735,-11.44709 0.77252,-0.7725 2.32799,1.30711 3.14795,1.71707 0.9286,0.46432 7.24172,-2.33307 8.29913,-2.86176 1.27858,-0.6393 2.15988,2.49727 3.7203,1.71707 1.41173,-0.70587 2.40511,-1.18328 4.00647,-1.71707 1.57058,-0.52352 3.46469,1.25028 4.86499,1.71707 2.78716,0.92904 6.29269,-2.19512 9.44386,-1.14472 2.98346,0.9945 7.10713,3.64066 11.1609,2.28941 2.33099,-0.77701 3.1649,-4.02343 4.865,-5.72353 0.11845,-0.11846 2.34075,0.5467 2.86176,0.28616 1.49514,-0.74755 2.41506,-2.4953 3.7203,-3.14792 0.97346,-0.48673 3.31625,1.37477 4.865,0.85853 1.10151,-0.36717 5.43222,-3.14538 6.58207,-3.7203 5.71251,-2.85627 12.632,14.00256 20.60473,10.01618 5.48034,-2.74017 7.67501,-9.62647 10.0162,-14.30885 0.55207,-1.10413 2.42603,-3.28456 3.43412,-4.29265 0.0527,-0.0527 1.15178,1.70292 1.71707,0.57237 0.89608,-1.79216 2.2126,-3.9297 3.7203,-5.43737 0.33724,-0.33727 0.66775,0.85854 1.14469,0.85854 0.85802,0 3.30131,-2.44278 3.7203,-2.86177 0.70214,-0.70213 1.25305,0.37509 2.00323,0 1.52217,-0.76109 2.50669,-2.39806 4.00649,-3.14795 0.57787,-0.28893 1.06146,0.61399 1.71707,0.28619 1.4495,-0.72478 4.20436,-4.20436 5.15118,-5.15121 0.35228,-0.35238 2.36037,-0.0356 2.86177,-0.28616 2.93431,-1.46716 7.08611,-4.40159 10.30239,-6.00972 2.29059,-1.14529 9.51405,-8.49487 12.3056,-10.58855 1.36385,-1.02288 8.10143,-3.7203 10.30236,-3.7203 0.68355,0 1.28422,2.14275 1.71707,2.5756 3.12522,3.12522 12.75174,0.84728 15.73971,-1.1447 -1.16245,-1.81551 -1.71704,-6.43094 -1.71704,-8.01297 0,-0.16775 1.9554,-1.62137 2.28941,-2.28939 0.41161,-0.82322 -0.78547,-2.14938 -0.28618,-3.14795 0.6533,-1.30662 2.65158,-2.15522 3.43411,-3.72031 0.77177,-1.5435 -2.06891,-5.0855 -0.85851,-6.2959 1.35817,-1.35816 2.78645,-2.50029 4.00646,-3.7203 1.58093,-1.58093 -2.14542,-7.01222 -0.85853,-8.29911 1.44729,-1.44729 1.81387,-6.96505 2.28942,-7.4406 1.27031,-1.27032 2.34685,-2.69046 3.14795,-4.29265 0.51219,-1.0244 -0.21901,-2.71003 0.28619,-3.7203 0.63182,-1.26367 6.02624,-6.04283 6.86822,-7.72679 1.26975,-2.53947 -0.79982,-10.99214 -0.57234,-11.44706 0.6032,-1.20643 1.25008,-2.96715 2.00323,-3.7203 0.47912,-0.47913 0.29992,-14.89493 1.71707,-16.31208 0.78108,-0.78111 9.82694,-12.49484 8.29913,-14.02267 -2.86966,-2.86964 -9.50949,1.36525 -12.01943,-1.1447 -2.3809,-2.38092 -1.60982,-5.90249 -3.72031,-8.01297 -1.22673,-1.22671 -5.66057,0.27044 -6.86825,0.57237 -1.61283,0.4032 -6.95428,0.65839 -8.01295,1.71705 -0.88288,0.88289 -5.43138,5.44333 -3.43411,7.4406 0.69088,0.6909 1.29442,2.56236 0.57235,4.00649 -0.96689,1.93375 -7.60156,4.08695 -9.73002,5.15118 -1.87249,0.93625 -2.49214,3.63684 -3.7203,4.865 -1.87283,1.87285 -10.15055,3.85467 -13.73648,7.4406 -0.87688,0.87688 3.7203,-1.2401 3.7203,0 0,0.87813 -6.68061,4.77589 -8.01295,7.4406 -1.32922,2.65845 4.09694,0.39142 3.43412,1.71707 -1.12631,2.25263 -3.73855,4.04298 -4.865,6.29588 -0.61559,1.23119 0.28616,2.14025 0.28616,2.5756 0,1.75727 -2.28765,2.28591 -2.86177,3.43411 -0.42114,0.84233 1.7714,1.37656 1.71707,1.43089 -0.97091,0.97091 -2.42528,1.98883 -3.14795,3.43411 -0.5773,1.15463 1.75835,1.67579 1.14472,2.28942 -0.20969,0.20969 -1.71815,1.71491 -1.43088,2.28941 0.15426,0.30851 2.6224,1.09788 2.28942,1.43089 -3.1909,3.19089 1.54419,12.32264 -0.98558,14.85241 -3.43056,3.43053 -11.35261,10.61494 -16.68801,13.28263 -5.4057,2.70287 -10.40799,3.79177 -15.80914,6.49236 -3.74875,1.87437 -8.16518,3.58634 -10.87471,6.2959 -3.03843,3.0384 -9.30456,2.21977 -12.30563,3.7203 -3.19222,1.59611 -6.11196,3.91452 -9.72999,5.72353 -0.76777,0.38387 -5.42903,2.28942 -6.00972,2.28942 -0.22072,0 -0.0903,-1.24265 -0.85853,-0.85854 -0.38277,0.1913 -2.26565,2.02703 -2.28942,2.00324 -0.59753,-0.59754 -5.52581,-2.77331 -6.58206,-1.71707 -0.75283,0.75283 -2.06239,2.34859 -2.86177,3.14795 -0.43405,0.43405 -6.70572,2.12689 -6.86825,2.28942 -2.08326,2.08325 -6.15692,0.14715 -8.01295,2.00323 -0.52901,0.52903 -0.88183,1.74037 -1.43088,2.28941 -1.24356,1.24356 -2.14869,-3.86102 -3.43412,-2.57558 -2.0268,2.0268 -19.8262,4.865 -22.3218,4.865 -1.71005,0 -6.49699,-0.75798 -7.4406,-0.28618 -0.65333,0.32667 -3.0849,0.22318 -3.14795,0.28618 -0.13783,0.13783 -2.83114,1.74768 -3.14793,1.43088 -0.52467,-0.52464 0.52465,-2.62328 0,-3.14795 -0.78057,-0.78054 -5.61547,2.23539 -6.2959,2.57561 -1.60146,0.80072 -3.33923,-1.19216 -5.72353,0 -1.63827,0.81912 -1.90288,3.14795 -4.57884,3.14795 -1.58605,0 -0.26966,-2.86177 -2.57555,-2.86177 -3.02947,0 -14.59502,-0.65112 -14.59502,-4.57883 0,-0.76909 1.45941,0.60087 2.00323,1.14469 1.5373,1.5373 4.91537,1.1951 6.86823,3.14796 1.60234,1.60231 4.43823,1.86262 6.00972,3.43411 0.0341,0.0341 5.75953,-2.87977 6.29588,-3.14793 1.43444,-0.71724 6.44882,0.13318 7.4406,-0.85853 1.46821,-1.46824 2.9518,-2.66564 4.29265,-4.00649 0.35728,-0.35728 3.10022,0.31005 3.7203,0 1.97083,-0.9854 1.94805,-3.5496 3.43411,-4.29265 0.01,-0.005 1.18345,1.6977 2.28942,1.1447 2.68258,-1.34129 3.70377,-3.56893 6.29588,-4.865 0.69529,-0.34764 2.37788,0.81432 3.43414,0.28619 0.66694,-0.3335 3.39435,-2.00326 3.7203,-2.00326 0.60442,0 1.03013,2.20361 2.00323,1.71707 3.27104,-1.63552 7.04304,-2.75039 8.87148,-4.57883 0.0836,-0.0836 1.22914,1.81794 2.00323,1.43088 1.47648,-0.73821 2.54245,-2.41592 4.00649,-3.14793 0.62738,-0.3137 2.33273,1.55231 3.7203,0.85851 2.18572,-1.09285 5.89526,-2.57558 7.72676,-2.57558 1.25388,0 1.01864,2.63864 2.86177,1.71707 1.59544,-0.79773 3.00899,-2.07685 4.57883,-2.86179 0.2428,-0.1214 2.50956,2.06928 4.00649,0.57238 0.55226,-0.55227 0.9299,-1.89584 1.71704,-2.28942 0.65424,-0.32712 1.08118,1.89191 2.57561,1.14469 1.0593,-0.52964 2.40875,-1.83638 3.14795,-2.57557 0.45671,-0.45674 1.27821,0.79177 1.71704,0.57234 6.388,-3.19398 11.52915,-3.14795 19.17385,-3.14795 1.3526,0 2.3199,-1.43088 3.43414,-1.43088 10.19073,0 23.00044,-1.82336 31.47945,-10.30237 1.0423,-1.04228 3.72403,-1.86201 5.15118,-2.57558 3.88999,-1.945 6.88066,-6.02838 9.15767,-9.44385 3.70559,-5.55836 1.01707,-14.08646 -3.90826,-16.54912 -1.67003,-0.83502 1.84769,-1.41132 -0.67057,-0.90766"
       id="path3069-2"
       style="fill:#000000;stroke:#ffffff;stroke-width:4.90507126;stroke-linecap:butt;stroke-linejoin:miter;stroke-opacity:1" />
    <path
       d="m 491.15732,401.63967 c -0.4109,1.00061 4.26407,10.30236 9.44383,10.30236 2.37508,0 3.99577,-11.99802 4.86499,-13.73648 0.50508,-1.01012 -0.21876,-2.71017 0.28619,-3.7203 4.82235,-9.64469 2.00316,-22.32163 6.86825,-32.05182 0.75337,-1.50674 -1.63969,-3.2253 1.1447,-6.00971 0.51231,-0.51229 -1.13842,-2.84919 -1.43088,-3.43412 -0.2454,-0.49078 0.88389,-1.7424 1.14472,-2.00323 0.61855,-0.61858 -1.81929,-3.33192 -0.28619,-4.86502 1.37256,-1.37254 -0.85853,-2.94317 -0.85853,-4.29265 0,-1.35007 1.55961,-3.59157 0.85853,-4.29265 -0.80217,-0.80215 3.93944,-9.76352 -0.57235,-12.01943 -2.85284,-1.42642 -8.7893,13.85829 -10.0162,16.31208 -2.09903,4.1981 -3.10346,8.4519 -4.57881,12.87797 -0.41892,1.25668 -8.4986,10.85451 -10.01621,12.87795 -7.23164,9.64219 -2.97853,26.39693 3.14796,34.05505 z"
       id="path3071-7"
       style="fill:#000000" />
    <path
       d="m 281.45621,152.19357 c -6.32144,-1.6895 -11.94481,5.95866 -20.9515,14.96535 -5.13399,5.13399 -11.70816,11.70816 -15.96304,15.96304 -16.19414,16.19417 5.42587,97.99231 26.93762,108.7482 21.88692,10.94346 73.47649,4.81219 95.77821,15.96304 7.71671,3.85835 20.11283,-0.91818 27.93531,2.99307 10.17226,5.08612 27.73224,-4.0923 37.9122,0.99769 9.25597,4.62796 33.57541,-1.34379 40.90533,5.98613 1.72953,1.72953 19.76246,9.17054 22.94685,5.98615 1.77449,-1.77449 3.48226,0.40827 3.48226,-0.29208 0,-1.52802 3.26869,-7.45646 4.49928,-8.68715 2.8842,-2.8842 6.52541,-17.87753 3.99074,-22.94685 -11.85862,-23.71727 -32.17722,-37.04011 -57.86601,-49.8845 -9.86621,-4.9331 -23.0066,-4.02061 -32.92379,-8.9792 -15.40315,-7.70157 -33.0904,-19.9538 -49.88448,-19.9538 -4.7267,0 -13.14942,-4.17022 -15.96304,-6.98382 -3.77582,-3.77585 -18.06074,-10.02805 -23.94454,-12.96996 -20.67466,-10.33734 -15.02161,-34.53134 -46.8914,-40.90531 z"
       id="path3061-6"
       style="fill:#000000" />
  </g>
</svg>
