<?xml version="1.0" encoding="UTF-8" standalone="no"?>
<svg
   width="456"
   height="859.92468"
   viewBox="0 0 456 859.92468"
   version="1.1"
   id="svg4"
   xmlns="http://www.w3.org/2000/svg"
   xmlns:svg="http://www.w3.org/2000/svg">
  <defs
     id="defs8" />
  <path
     d="m 207.196,3.2382952 c -6.21,10.2599998 -12.583,27.7419998 -15.72,43.1169998 -1.561,7.651 -1.89,8.67 -4.32,13.369 -0.636,1.23 -1.156,3.198 -1.156,4.372 0,1.174 -1.333,7.817 -2.961,14.763 -5.963,25.430005 -9.084,62.388005 -7.184,85.064005 1.259,15.031 5.553,52.051 7.141,61.565 0.55,3.3 1.65,10.5 2.444,16 5.693,39.468 9.428,57.313 25.635,122.5 5.504,22.135 8.925,39.425 8.925,45.102 0,0.361 -1.368,1.222 -3.04,1.914 -4.157,1.722 -5.96,4.645 -5.96,9.659 0,7.935 -3.815,12.002 -7.958,8.482 -2.382,-2.024 -11.624,-19.956 -12.589,-24.425 -0.383,-1.778 -1.556,-4.928 -2.605,-7.001 -1.655,-3.27 -2.169,-3.63 -3.878,-2.715 -1.084,0.58 -1.97,2.081 -1.97,3.335 0,2.857 6.612,23.407 8.417,26.163 2.46,3.754 7.556,17.535 7.685,20.78 0.07,1.763 0.638,4.292 1.263,5.62 0.875,1.86 0.848,2.509 -0.115,2.833 -1.809,0.608 -1.497,5.113 0.689,9.928 1.699,3.741 1.731,4.238 0.311,4.782 -2.064,0.793 -2.478,0.26 -5.8,-7.457 -1.539,-3.575 -3.131,-6.889 -3.538,-7.364 -1.127,-1.317 -2.181,9.367 -1.755,17.8 l 0.379,7.504 -7.523,-14.72 c -8.468,-16.567 -11.016,-20.732 -17.96,-29.349 -2.673,-3.317 -5.916,-8.121 -7.207,-10.676 -1.29,-2.554 -2.908,-5.25 -3.596,-5.991 -0.687,-0.741 -1.25,-1.957 -1.25,-2.703 0,-1.967 -4.88,-5.501 -7.598,-5.501 -1.726,0 -3.383,-1.555 -6.415,-6.019 -2.248,-3.311 -5.865,-7.141 -8.037,-8.513 -2.173,-1.371 -3.95,-2.881 -3.95,-3.354 0,-0.474 -2.532,-3.699 -5.626,-7.166 -3.094,-3.468 -6.289,-7.912 -7.099,-9.877 -0.811,-1.964 -2.195,-4.381 -3.075,-5.371 -1.471,-1.654 -1.454,-2.073 0.211,-5.165 0.997,-1.851 1.498,-3.873 1.115,-4.494 -0.384,-0.621 -0.101,-1.848 0.628,-2.727 0.73,-0.879 1.402,-3.672 1.494,-6.206 0.146,-4.05 3.084,-23.746 6.952,-46.608 0.279,-1.65 0.757,-5.25 1.061,-8 0.305,-2.75 0.963,-5.505 1.464,-6.123 0.5,-0.618 0.644,-1.815 0.32,-2.66 -0.324,-0.844 0.568,-5.2 1.983,-9.678 1.415,-4.478 2.572,-9.892 2.572,-12.032 0,-2.139 0.426,-4.152 0.946,-4.474 0.52,-0.321 0.873,-2.42 0.783,-4.664 -0.117,-2.94 0.352,-4.455 1.68,-5.426 1.162,-0.85 1.6,-1.977 1.187,-3.053 -0.593,-1.544 0.586,-6.158 4.97,-19.463 1.377,-4.176 1.143,-7.645 -0.6,-8.927 -1.309,-0.962 0.835,-21.497 2.871,-27.5 1.119,-3.3 3.904,-12.075 6.19,-19.5 2.285,-7.425 6.772,-19.8 9.97,-27.5 6.166,-14.842 8.654,-22.182 7.806,-23.03 -1.384,-1.385 -3.915,1.471 -10.05,11.34 -3.681,5.922 -7.325,12.55 -8.099,14.728 -0.773,2.179 -2.379,5.604 -3.569,7.61 -1.189,2.006 -3.029,6.056 -4.088,9 -1.058,2.944 -1.944,4.677 -1.966,3.852 -0.064,-2.288 6.943,-20.086 9.841,-25 0.487,-0.825 1.647,-3.3 2.578,-5.5 0.931,-2.2 3.41,-6.925 5.509,-10.5 2.099,-3.575 4.114,-7.792 4.478,-9.371 l 0.662,-2.871 -3.296,1.925 c -1.813,1.059 -4.261,3.476 -5.441,5.371 -1.18,1.895 -3.327,4.639 -4.771,6.097 -1.444,1.458 -3.124,4.158 -3.732,6 -0.608,1.842 -2.401,5.01 -3.983,7.04 -1.582,2.031 -2.876,3.975 -2.876,4.32 0,0.346 -1.437,2.717 -3.194,5.27 -4.009,5.828 -13.795,27.339 -13.838,30.418 -0.017,1.266 -0.692,3.175 -1.5,4.242 -0.807,1.068 -1.471,3.093 -1.474,4.5 -0.004,1.408 -0.679,3.848 -1.5,5.423 -0.822,1.576 -1.494,3.713 -1.494,4.75 0,1.037 -0.48,1.886 -1.067,1.886 -0.59,0 -0.801,0.842 -0.471,1.882 0.382,1.201 0.029,2.099 -0.975,2.485 -1.179,0.452 -1.329,1.06 -0.6,2.422 0.596,1.113 0.618,2.38 0.059,3.265 -0.504,0.795 -0.922,2.657 -0.931,4.137 -0.008,1.48 -0.465,2.969 -1.015,3.309 -0.55,0.34 -1,2.477 -1,4.749 0,4.848 -1.835,15.508 -3.091,17.961 -0.482,0.941 -0.61,2.405 -0.285,3.253 0.694,1.809 -1.56,14.483 -2.889,16.246 -0.502,0.665 -0.629,2.499 -0.282,4.076 0.346,1.577 0.198,4.003 -0.33,5.391 -0.528,1.388 -1.724,10.129 -2.659,19.424 -0.934,9.295 -2.12,17.425 -2.635,18.068 -0.515,0.642 -0.851,4.747 -0.745,9.122 0.105,4.375 -0.186,8.565 -0.646,9.311 -0.461,0.745 -0.931,3.39 -1.044,5.877 -0.114,2.487 -0.754,8.347 -1.423,13.022 -0.67,4.675 -1.228,12.325 -1.242,17 -0.021,7.179 0.375,9.287 2.546,13.565 1.651,3.252 2.266,5.56 1.718,6.446 -0.492,0.797 -0.414,2.203 0.186,3.323 1.554,2.904 12.533,15.776 14.825,17.381 2.463,1.726 2.58,3.283 0.246,3.29 -1.33,0.004 -1.03,0.595 1.25,2.464 1.65,1.352 3.314,2.475 3.698,2.495 0.385,0.02 1.826,1.081 3.204,2.357 1.722,1.596 2.331,2.984 1.95,4.442 -0.417,1.594 0.402,2.942 3.296,5.429 7.332,6.298 26.877,27.055 32.641,34.665 3.185,4.204 10.602,15.291 16.483,24.639 5.881,9.348 12.831,19.698 15.445,23 2.614,3.302 5.322,7.354 6.018,9.004 1.38,3.274 1.249,24.5 -0.151,24.5 -2.34,0 -8.033,-5.341 -12.258,-11.5 -2.641,-3.85 -10.095,-17.555 -16.564,-30.455 -10.67,-21.278 -12.346,-24.031 -18.054,-29.657 -10.38,-10.231 -14.728,-12.578 -36.708,-19.815 -26.011,-8.565 -25.247,-8.338 -30.651,-9.108 -4.642,-0.661 -8.849,0.009 -8.849,1.41 0,0.407 3.262,1.614 7.25,2.682 l 7.25,1.943 -6.5,0.539 -6.5,0.539 3.5,1.61 c 1.925,0.886 8,2.327 13.5,3.202 5.5,0.875 15.492,3.335 22.204,5.466 10.306,3.273 13.028,4.589 17.5,8.458 7.341,6.352 7.595,6.624 10.9,11.686 1.616,2.475 5.299,7.511 8.184,11.191 2.886,3.679 8.542,12.904 12.57,20.5 8.31,15.668 18.968,32.052 22.359,34.37 1.256,0.858 3.858,2.171 5.783,2.917 5.82,2.257 6,2.605 6,11.644 0,8.128 -0.07,8.378 -2.351,8.378 -5.79,0 -8.047,-1.874 -14.771,-12.266 -8.108,-12.53 -11.64,-18.77 -19.375,-34.234 -5.298,-10.591 -6.489,-12.266 -10.145,-14.265 -5.079,-2.778 -20.741,-6.233 -28.287,-6.24 -3.064,-0.003 -11.871,-0.978 -19.571,-2.167 -16.411,-2.533 -33.746,-2.878 -37.5,-0.747 -2.438,1.384 -2.376,1.427 2.5,1.729 5.623,0.349 8.802,2.19 3.782,2.19 -3.58,0 -6.282,0.859 -6.282,1.998 0,1.332 7.139,1.733 15,0.843 8.09,-0.916 25.438,0.213 40.5,2.636 4.95,0.796 11.479,1.709 14.509,2.027 3.029,0.319 5.991,0.898 6.58,1.288 1.894,1.251 10.92,15.333 18.401,28.708 3.999,7.15 9.997,16.99 13.329,21.867 6.556,9.593 9.702,11.764 19.089,13.171 l 4.592,0.689 v 10.251 10.25 l -4.64,0.636 c -10.36,1.42 -12.999,0.916 -20.263,-3.869 -7.285,-4.8 -26.189,-20.706 -32.241,-27.128 -2.004,-2.127 -5.905,-6.342 -8.668,-9.367 -3.787,-4.145 -6.584,-6.116 -11.356,-8 -6.067,-2.395 -7.191,-2.496 -26.832,-2.394 -11.275,0.058 -31.551,0.996 -45.058,2.083 -23.405,1.884 -24.809,2.114 -29.92,4.894 C 8.104,554.7903 0,562.3233 0,564.6043 c 0,0.986 1.962,0.126 6.053,-2.652 8.696,-5.905 12.062,-7.062 24.947,-8.575 28.661,-3.366 44.416,-4.372 53,-3.383 4.675,0.538 12.212,0.982 16.75,0.986 6.746,0.007 8.594,0.352 10.137,1.895 1.038,1.038 2.567,2.276 3.398,2.75 0.831,0.475 9.544,8.1 19.363,16.945 9.819,8.845 19.652,17.289 21.852,18.763 2.2,1.475 6.925,4.76 10.5,7.3 l 6.5,4.62 9.666,-0.586 c 11.141,-0.674 11.506,-0.472 12.471,6.922 0.352,2.694 1.091,5.472 1.644,6.173 1.668,2.116 -0.029,2.673 -8.088,2.654 -6.36,-0.015 -9.772,-0.729 -19.693,-4.12 -6.6,-2.257 -15.825,-5.755 -20.5,-7.776 -11.02,-4.762 -17.489,-5.425 -25.718,-2.638 -3.421,1.158 -6.942,2.106 -7.825,2.106 -0.883,0 -4.16,2.377 -7.281,5.283 -3.122,2.905 -7.701,7.015 -10.176,9.133 -2.475,2.119 -10.194,9.275 -17.153,15.902 l -12.653,12.051 -8.764,2.067 c -9.047,2.134 -12.428,4.584 -6.263,4.54 1.833,-0.013 5.133,-0.449 7.333,-0.969 5.779,-1.366 7.563,-0.571 6.839,3.049 -1.15,5.748 3.068,2.296 8.661,-7.088 4.07,-6.83 32.379,-32.127 40.561,-36.246 13.429,-6.761 12.354,-6.788 33.939,0.851 27.415,9.701 35.071,11.526 43,10.249 1.94,-0.312 2,0.237 2,18.178 0,10.175 0.569,22.448 1.263,27.274 1.06,7.356 1.039,9.214 -0.129,11.5 -2.512,4.915 -2.905,8.977 -1.2,12.394 0.874,1.752 1.352,3.93 1.063,4.841 -0.289,0.911 0.835,4.206 2.499,7.324 1.663,3.117 2.638,5.667 2.166,5.667 -1.029,0 -3.681,5.966 -5.101,11.477 -0.937,3.634 -0.814,4.151 1.417,6 2.099,1.739 3.886,5.414 6.198,12.748 0.318,1.009 -0.491,2.954 -1.948,4.686 -2.427,2.885 -5.34,14.29 -4.143,16.226 0.293,0.475 1.534,0.863 2.758,0.863 1.482,0 3.385,1.551 5.698,4.643 l 3.473,4.643 -3.393,3.393 c -3.246,3.246 -3.368,3.635 -2.819,8.961 l 0.575,5.569 -4.688,-0.855 c -8.272,-1.507 -19.232,-0.819 -31.309,1.966 -6.392,1.474 -13.479,2.68 -15.75,2.68 -4.257,0 -5.01,0.72 -2.93,2.8 0.933,0.933 0.274,1.2 -2.965,1.2 -3.656,0 -4.715,0.573 -8.656,4.687 -5.803,6.056 -7.6,10.093 -5.256,11.807 0.922,0.675 1.677,1.771 1.677,2.437 0,2.167 8.472,17.976 9.48,17.691 0.54,-0.151 2.11,0.771 3.49,2.051 1.38,1.28 3.302,2.327 4.27,2.327 1.101,0 1.76,0.759 1.76,2.026 0,1.921 0.152,1.947 2.95,0.5 3.811,-1.971 4.05,-1.935 4.05,0.602 0,1.941 0.37,2.068 4.224,1.452 2.323,-0.371 5.023,-1.399 6,-2.283 2.138,-1.934 2.294,-0.565 0.244,2.144 -2.155,2.85 -1.793,5.485 0.896,6.507 1.3,0.494 2.654,1.657 3.01,2.584 0.482,1.256 1.533,1.581 4.136,1.277 2.431,-0.284 3.49,-0.006 3.49,0.913 0,0.727 1.135,1.838 2.523,2.47 2.136,0.974 2.979,0.813 5.5,-1.051 l 2.977,-2.201 v 2.53 c 0,2.959 0.666,3.142 3.171,0.875 1.702,-1.54 1.829,-1.54 1.829,0 0,2.295 2.929,2.07 5.591,-0.431 l 2.22,-2.085 0.662,2.085 c 0.948,2.987 3.224,2.573 5.027,-0.914 1.501,-2.902 3.5,-4.045 3.5,-2 0,0.55 0.45,1 1,1 0.55,0 1,-0.9 1,-2 0,-2.782 1.223,-2.501 4.342,1 2.627,2.948 2.844,3 12.416,2.985 5.694,-0.009 11.401,-0.593 13.736,-1.405 2.57,-0.894 4.596,-1.067 5.684,-0.485 2.393,1.281 3.822,1.122 3.822,-0.424 0,-0.736 1.005,-1.294 2.25,-1.25 1.756,0.062 2.198,-0.415 2.012,-2.171 -0.343,-3.235 1.859,-2.826 6.738,1.25 2.304,1.925 4.548,3.5 4.986,3.5 0.439,0 1.094,-1.182 1.456,-2.627 l 0.66,-2.626 2.263,2.126 c 3.038,2.855 6.635,2.839 6.635,-0.028 0,-2.024 0.111,-2.055 1.829,-0.5 2.239,2.027 3.171,2.098 3.171,0.242 0,-1.147 0.551,-1.205 2.92,-0.311 3.896,1.47 6.489,-0.483 5.578,-4.202 -0.607,-2.479 -0.575,-2.5 0.87,-0.574 1.458,1.943 1.58,1.949 4.316,0.202 1.549,-0.989 4.053,-2.271 5.566,-2.848 3.158,-1.206 3.381,-2.815 1.231,-8.909 -1.785,-5.058 -0.651,-7.313 2.324,-4.621 2.443,2.211 4.844,2.128 5.449,-0.188 0.318,-1.216 1.798,-2.111 4.25,-2.571 2.679,-0.502 5.168,-2.148 8.64,-5.713 4.401,-4.518 5.183,-4.939 8.016,-4.317 2.632,0.578 3.04,0.429 2.522,-0.923 -0.341,-0.886 -0.135,-1.612 0.456,-1.612 0.592,0 0.837,-0.624 0.544,-1.387 -0.384,-0.999 0.053,-1.234 1.561,-0.839 1.646,0.43 1.958,0.192 1.457,-1.113 -0.35,-0.914 -0.201,-1.661 0.331,-1.661 1.5,0 1.146,-2.147 -0.686,-4.171 -1.555,-1.718 -1.524,-1.829 0.5,-1.829 1.185,0 2.155,-0.45 2.155,-1 0,-0.55 -0.562,-1.007 -1.25,-1.015 -0.905,-0.011 -0.87,-0.256 0.128,-0.889 1.584,-1.003 1.201,-1.821 -3.685,-7.855 -2.669,-3.297 -4.341,-4.401 -7.402,-4.89 -2.581,-0.413 -3.501,-0.912 -2.651,-1.437 2.346,-1.45 0.144,-2.087 -8.312,-2.406 -4.581,-0.172 -12.102,-0.868 -16.715,-1.546 -9.554,-1.404 -21.336,-0.731 -26.737,1.525 -1.991,0.832 -3.841,1.513 -4.112,1.513 -0.27,0 -0.188,-2.022 0.183,-4.494 0.512,-3.416 0.248,-5.214 -1.102,-7.5 -0.977,-1.653 -2.017,-3.013 -2.311,-3.021 -0.294,-0.009 -1.144,-0.402 -1.889,-0.875 -1.115,-0.706 -1.037,-1.37 0.434,-3.734 2.979,-4.786 5.668,-7.376 7.657,-7.376 1.678,0 1.812,-0.524 1.214,-4.75 -0.722,-5.108 -3.597,-12.605 -5.218,-13.607 -1.182,-0.73 3.143,-13.289 5.46,-15.853 1.84,-2.036 1.25,-6.407 -1.795,-13.29 -1.909,-4.315 -1.938,-4.866 -0.489,-9.293 0.847,-2.589 2.024,-7.894 2.617,-11.79 0.966,-6.354 0.863,-7.627 -1.003,-12.361 -2.027,-5.142 -2.038,-5.493 -0.427,-13.604 1.385,-6.973 1.511,-10.936 0.779,-24.39 l -0.874,-16.064 4.892,10e-4 c 6.224,10e-4 17.045,-4.244 38.007,-14.909 18.546,-9.436 21.037,-9.858 30.101,-5.09 3.137,1.65 6.289,3 7.005,3 1.519,0 10.274,4.849 22.995,12.736 9.334,5.786 19.059,14.299 20.106,17.599 0.536,1.688 1.258,1.826 6.47,1.236 3.385,-0.383 7.591,-0.199 9.944,0.434 4.528,1.22 9.486,0.417 6.78,-1.097 -0.839,-0.47 -5.185,-2.01 -9.658,-3.423 -5.8,-1.832 -10.001,-4.002 -14.652,-7.566 -7.723,-5.92 -23.567,-16.289 -31.99,-20.936 -3.3,-1.821 -6.95,-4.157 -8.111,-5.191 -1.161,-1.033 -6.786,-3.033 -12.5,-4.443 -10.107,-2.494 -10.541,-2.52 -15.976,-0.933 -3.072,0.897 -6.447,2.412 -7.5,3.367 -1.052,0.955 -8.663,5.056 -16.913,9.115 -8.25,4.059 -15.781,7.767 -16.736,8.241 -0.955,0.473 -3.938,0.861 -6.628,0.861 -5.901,0 -7.642,-1.539 -6.157,-5.443 0.561,-1.478 1.021,-4.686 1.021,-7.128 v -4.441 l 8.25,0.63 c 6.232,0.475 9.106,0.263 11.75,-0.868 4.84,-2.071 17.753,-13.244 28.5,-24.66 4.95,-5.258 13.275,-13.968 18.5,-19.354 l 9.5,-9.794 12.491,-1.146 c 14.848,-1.362 30.397,-0.22 56.178,4.126 16.397,2.764 16.777,2.885 23.298,7.444 6.706,4.688 8.533,5.463 8.533,3.617 0,-1.736 -8.821,-9.569 -13.78,-12.237 -3.923,-2.11 -8.265,-2.98 -25.72,-5.151 -11.55,-1.437 -24.375,-2.611 -28.5,-2.61 -4.39,0.002 -8.583,-0.562 -10.11,-1.359 -2.154,-1.124 -4.428,-1.154 -13,-0.167 -13.437,1.545 -17.889,3.631 -23.356,10.94 -12.325,16.478 -29.014,33.249 -37.305,37.488 -2.051,1.049 -5.018,3.105 -6.594,4.569 -2.746,2.551 -3.181,2.634 -10.5,1.996 l -7.635,-0.665 0.199,-10.613 0.199,-10.613 4.986,-1.122 c 2.742,-0.618 6.101,-1.854 7.465,-2.748 4.141,-2.714 11.442,-13.498 22.905,-33.836 5.999,-10.645 12.04,-20.844 13.424,-22.665 4.185,-5.507 8.184,-6.77 32.822,-10.369 4.058,-0.593 13.514,-0.758 22.5,-0.394 20.144,0.818 21.171,0.802 22.309,-0.336 0.618,-0.618 -0.253,-1.313 -2.423,-1.937 l -3.386,-0.974 3.464,-0.09 c 3.174,-0.082 3.331,-0.224 1.867,-1.688 -2.792,-2.792 -16.565,-3.688 -30.328,-1.974 -6.601,0.822 -15.828,1.761 -20.503,2.087 -10.679,0.744 -21.93,2.562 -22.604,3.653 -0.283,0.458 -1.543,0.832 -2.8,0.832 -1.257,0 -2.995,0.788 -3.86,1.75 -0.866,0.962 -6.129,10.462 -11.695,21.11 -16.027,30.659 -21.473,38.256 -28.735,40.084 -2.425,0.611 -4.836,0.847 -5.357,0.524 -0.522,-0.322 -0.949,-3.949 -0.949,-8.058 0,-6.254 0.285,-7.557 1.75,-7.988 9.993,-2.94 16.18,-9.883 28.312,-31.772 9.59,-17.301 14.968,-25.643 20.169,-31.281 2.348,-2.545 5.169,-6.358 6.269,-8.473 1.1,-2.116 5.646,-7.57 10.102,-12.121 7.079,-7.23 9.795,-9.17 21.5,-15.36 7.369,-3.897 15.875,-8.067 18.902,-9.266 3.027,-1.2 6.852,-3.33 8.5,-4.734 l 2.996,-2.553 -4,0.524 c -4.321,0.565 -4.317,0.557 1.959,-3.958 1.401,-1.007 1.652,-1.717 0.882,-2.487 -1.493,-1.493 -5.976,0.512 -20.705,9.259 -15.406,9.149 -27.66,15.8 -29.111,15.8 -0.621,0 -6.083,5.288 -12.138,11.75 -10.46,11.164 -11.599,12.822 -22.846,33.25 -6.511,11.825 -14.57,25.888 -17.909,31.251 -5.34,8.577 -6.59,9.95 -10.374,11.395 -2.367,0.903 -4.63,1.316 -5.03,0.916 -0.401,-0.4 -0.728,-7.337 -0.728,-15.415 v -14.688 l 3.799,-4.642 c 2.089,-2.553 8.329,-13.119 13.865,-23.48 11.958,-22.375 16.927,-30.251 24.037,-38.092 2.914,-3.214 6.977,-7.893 9.029,-10.396 2.051,-2.504 6.681,-6.982 10.29,-9.951 5.741,-4.724 6.497,-5.738 6.051,-8.121 -0.439,-2.341 0.116,-3.154 3.959,-5.798 3.406,-2.343 4.477,-3.719 4.499,-5.777 0.029,-2.685 3.229,-7.204 9.826,-13.874 2.903,-2.935 3.27,-3.849 2.72,-6.782 -0.56,-2.981 -0.198,-3.816 2.996,-6.918 2.79,-2.709 3.677,-4.412 3.827,-7.344 0.107,-2.099 0.55,-4.391 0.984,-5.094 0.435,-0.703 0.364,-1.82 -0.156,-2.484 -0.56,-0.713 -0.637,-4.067 -0.188,-8.206 0.418,-3.85 0.371,-7.728 -0.104,-8.619 -0.475,-0.89 -0.564,-1.918 -0.198,-2.284 0.777,-0.777 1.176,-25.654 0.434,-27.02 -0.631,-1.16 -1.206,-13.096 -1.474,-30.577 -0.114,-7.425 -0.513,-13.973 -0.887,-14.55 -0.729,-1.127 -2.185,-21.495 -1.979,-27.7 0.068,-2.062 -0.253,-3.75 -0.714,-3.75 -0.461,0 -0.645,-1.012 -0.409,-2.25 0.424,-2.217 -4.275,-21.449 -7.147,-29.25 -0.81,-2.2 -1.506,-4.675 -1.547,-5.5 -0.042,-0.825 -1.182,-3.75 -2.535,-6.5 -1.353,-2.75 -2.464,-5.554 -2.469,-6.231 -0.009,-1.266 -6.78,-18.649 -10.038,-25.769 -1.006,-2.2 -3.001,-7.13 -4.433,-10.956 -3.233,-8.639 -10.601,-21.515 -12.319,-21.532 -2.588,-0.025 -2.519,3.355 0.167,8.132 2.488,4.427 8.118,18.556 9.306,23.356 0.272,1.1 1.315,4.7 2.318,8 1.85,6.09 3.781,16.948 3.824,21.5 0.013,1.375 1.186,7.225 2.607,13 1.42,5.775 2.465,11.85 2.321,13.5 -0.191,2.187 -0.852,0.695 -2.439,-5.5 -9.175,-35.825 -8.296,-33.09 -17.351,-54 -3.654,-8.437 -11.51,-22.372 -13.583,-24.092 -3.077,-2.554 -2.459,2.452 1.461,11.846 12.205,29.245 16.452,45.249 18.77,70.746 0.851,9.35 1.906,17.374 2.345,17.832 0.44,0.458 0.328,2.082 -0.249,3.609 -0.829,2.198 -0.563,4.455 1.279,10.829 2.168,7.503 2.213,8.165 0.666,9.712 -2.024,2.024 -2.089,3.462 -0.274,6.053 1.347,1.923 2.246,7.276 3.08,18.327 0.223,2.949 0.745,6.099 1.16,7 0.815,1.766 1.125,4.298 1.671,13.638 0.193,3.3 0.706,6.794 1.139,7.765 0.434,0.971 0.569,2.603 0.301,3.628 -0.268,1.025 -0.047,6.08 0.49,11.235 0.538,5.155 0.959,10.272 0.937,11.372 -0.082,4.073 2.053,21.077 2.923,23.285 1.851,4.695 -7.515,20.373 -12.784,21.398 -0.895,0.174 -2.153,1.892 -2.797,3.817 -0.683,2.043 -2.593,4.465 -4.588,5.817 -1.881,1.275 -3.718,3.123 -4.084,4.107 -1.115,3.001 -5.449,7.076 -7.525,7.076 -2.79,0 -5.787,3.572 -8.812,10.503 -1.44,3.298 -2.929,6.48 -3.308,7.07 -5.036,7.835 -7.355,11.191 -8.643,12.511 -0.851,0.871 -1.547,2.285 -1.547,3.143 0,0.857 -0.675,1.818 -1.5,2.135 -0.825,0.316 -1.5,1.177 -1.5,1.912 0,0.736 -1.125,2.862 -2.5,4.726 -1.375,1.864 -2.5,4.261 -2.5,5.326 0,1.066 -0.849,3.341 -1.887,5.056 -1.039,1.715 -2.609,5.593 -3.491,8.618 -2.798,9.597 -3.583,9.383 -3.677,-1 -0.047,-5.225 -0.454,-10.4 -0.905,-11.5 -0.898,-2.19 -0.619,-2.676 -4.699,8.201 -1.67,4.454 -4.874,8.099 -6.069,6.904 -0.394,-0.394 0.093,-2.829 1.081,-5.41 3.345,-8.736 3.769,-12.96 2.153,-21.478 l -1.502,-7.917 3.128,-10.069 c 1.953,-6.287 3.11,-12.106 3.079,-15.496 -0.095,-10.656 -6.035,-19.17 -9.22,-13.218 -0.826,1.543 -0.717,2.536 0.464,4.223 2.06,2.94 1.92,9.335 -0.311,14.26 -0.996,2.2 -2.128,5.269 -2.515,6.821 -1.017,4.081 -2.661,2.879 -4.993,-3.653 l -2.044,-5.726 2.126,-12.221 c 1.17,-6.721 3.753,-21.671 5.742,-33.221 l 3.616,-21 3.712,-3.504 c 2.042,-1.927 5.729,-5.159 8.195,-7.183 2.466,-2.024 4.179,-3.984 3.808,-4.356 -0.819,-0.819 -5.988,2.626 -10.9,7.265 l -3.609,3.408 2.785,-13.815 c 9.264,-45.95 14.933,-75.282 14.933,-77.269 0,-1.252 0.675,-4.363 1.501,-6.912 2.472,-7.634 13.146,-58.031 17.396,-82.134 4.139,-23.475 5.568,-33.42 6.611,-46 0.342,-4.125 1.037,-9.975 1.546,-13 0.508,-3.025005 1.61,-20.510005 2.448,-38.856005 0.921,-20.14 2.136,-36.318 3.069,-40.832 1.722,-8.336 1.623,-10.694 -0.395,-9.431 -2.851,1.784 -4.661,18.702 -6.168,57.657 -0.555,14.321 -1.65,31.196005 -2.435,37.500005 -1.797,14.433 -7.456,48.521 -8.523,51.341 -0.441,1.166 -1.129,5.046 -1.527,8.621 -1.031,9.246 -10.909,55.968 -17.548,83 -0.473,1.925 -5.131,24.207 -10.35,49.517 -8.843,42.879 -9.733,46.42 -13.057,51.939 -4.479,7.439 -7.323,14.99 -9.043,24.01 -0.737,3.869 -2.133,11.084 -3.101,16.034 -0.968,4.95 -2.066,11.7 -2.44,15 l -0.679,6 -0.153,-6.625 c -0.18,-7.862 -1.067,-12.875 -2.277,-12.875 -0.481,0 -0.928,1.913 -0.993,4.25 -0.065,2.337 -0.411,5.6 -0.767,7.25 l -0.649,3 -1.407,-3.376 c -1.42,-3.409 -1.366,-3.868 1.669,-14.374 1.058,-3.663 -1.561,-1.547 -3.43,2.771 -1.952,4.51 -1.961,4.515 -3.106,2 -0.632,-1.386 -1.772,-2.521 -2.533,-2.521 -0.979,0 -2.149,-3.886 -3.991,-13.25 -1.434,-7.288 -4.177,-18.962 -6.095,-25.944 -1.918,-6.981 -4.463,-16.881 -5.656,-22 -2.269,-9.732 -4.672,-15.528 -7.368,-17.765 -2.675,-2.22 -2.789,-0.484 -0.218,3.305 1.337,1.97 3.334,7.085 4.439,11.368 1.105,4.282 4.071,15.661 6.591,25.286 5.114,19.536 10.915,48.053 10.445,51.35 -0.292,2.054 -11.714,-37.47 -19.265,-66.667 -9.284,-35.895 -18.464,-84.31 -26.202,-138.183 -3.558,-24.771 -3.737,-27.276 -3.787,-53 -0.056,-29.002 0.539,-35.336 5.544,-59.000005 4.123,-19.493 10.021,-40.291 18.114,-63.877 3.797,-11.068 7.156,-20.9099998 7.464,-21.8729998 0.943,-2.951 -1.395,-1.94199996 -3.478,1.5 M 257.672,359.7833 c -1.44,3.211 -3.293,8.508 -4.117,11.771 -1.906,7.547 -5.555,31.157 -5.555,35.939 0,3.234 0.167,3.471 1.5,2.138 0.825,-0.825 1.503,-2.77 1.507,-4.322 0.004,-1.551 0.862,-6.421 1.908,-10.821 3.087,-12.992 8.275,-39.644 7.808,-40.11 -0.237,-0.238 -1.61,2.195 -3.051,5.405 m -26.928,41.804 c 0.581,7.442 2.619,12.225 3.846,9.026 1.036,-2.698 -0.205,-9.328 -2.393,-12.782 l -1.991,-3.145 0.538,6.901"
     stroke="none"
     fill="#000000"
     fill-rule="evenodd"
     id="path2" />
</svg>
