<?xml version="1.0" standalone="no"?>
<!DOCTYPE svg PUBLIC "-//W3C//DTD SVG 20010904//EN"
 "http://www.w3.org/TR/2001/REC-SVG-20010904/DTD/svg10.dtd">
<svg version="1.0" xmlns="http://www.w3.org/2000/svg"
 width="1536.000000pt" height="898.000000pt" viewBox="0 0 1536.000000 898.000000"
 preserveAspectRatio="xMidYMid meet">
<metadata>
Created by potrace 1.16, written by Peter Selinger 2001-2019
</metadata>
<g transform="translate(0.000000,898.000000) scale(0.100000,-0.100000)"
fill="#000000" stroke="none">
<path d="M9680 8973 c-13 -3 -46 -14 -73 -24 -58 -23 -163 -40 -442 -74 -382
-45 -405 -51 -962 -276 -150 -60 -326 -129 -392 -154 -289 -107 -533 -235
-861 -450 -264 -174 -361 -246 -605 -453 -99 -85 -271 -228 -382 -318 -111
-90 -262 -220 -335 -288 -145 -134 -567 -574 -674 -702 -67 -80 -324 -420
-382 -505 -63 -93 -184 -178 -320 -224 -44 -15 -112 -27 -197 -34 -287 -23
-661 -128 -920 -258 -60 -31 -139 -66 -175 -80 -108 -40 -341 -188 -585 -370
-149 -111 -217 -156 -325 -218 -47 -26 -131 -78 -188 -116 -131 -86 -218 -122
-415 -170 -87 -22 -184 -50 -215 -63 -31 -13 -136 -49 -232 -81 -96 -32 -229
-78 -294 -102 -187 -69 -248 -83 -406 -93 -163 -11 -224 -27 -266 -71 -25 -26
-29 -38 -29 -87 1 -40 8 -72 25 -107 30 -62 92 -125 123 -125 26 0 88 -37 184
-111 86 -66 175 -110 303 -150 58 -17 147 -50 198 -71 140 -58 200 -69 421
-74 218 -5 250 -11 308 -53 81 -59 165 -89 288 -106 75 -10 129 -39 160 -88
41 -63 75 -96 125 -122 120 -61 287 -80 615 -71 557 16 791 52 1185 180 107
35 230 70 273 76 105 17 271 7 472 -27 l160 -28 -3 -65 c-5 -94 -38 -280 -63
-347 -16 -45 -22 -90 -26 -196 -7 -172 2 -200 96 -300 56 -60 334 -317 382
-355 13 -10 55 -8 210 8 314 31 354 43 497 138 48 33 132 83 186 113 200 109
273 227 306 492 13 103 4 135 -33 116 -12 -7 -44 -30 -71 -51 -47 -37 -51 -39
-63 -22 -30 40 -41 121 -22 156 27 51 186 81 315 59 135 -24 224 -86 272 -190
52 -113 38 -347 -28 -486 -15 -33 -31 -87 -35 -120 -10 -82 -44 -168 -125
-315 -91 -164 -108 -205 -126 -296 -19 -99 -54 -162 -130 -234 -95 -89 -240
-150 -355 -150 -130 0 -234 -71 -257 -177 -12 -52 -25 -68 -179 -226 -135
-138 -181 -212 -168 -265 17 -69 94 -129 201 -156 89 -23 143 -20 198 9 54 29
96 31 157 10 82 -29 227 -40 382 -28 183 15 270 35 338 78 29 19 69 37 89 40
61 10 141 57 220 130 128 120 189 167 253 200 51 25 66 39 85 76 45 90 106
458 122 735 11 198 22 242 91 355 85 140 117 211 130 283 13 79 76 212 139
296 62 82 90 143 99 220 5 38 12 74 16 80 12 20 55 30 200 50 158 21 242 46
295 88 54 44 93 61 175 77 166 32 265 168 330 456 16 71 43 151 72 214 164
356 199 418 367 640 124 165 169 250 195 369 10 48 25 95 34 103 11 12 46 19
119 24 110 8 196 25 321 64 102 33 121 32 181 -10 28 -19 82 -46 119 -60 92
-34 314 -91 414 -105 45 -7 90 -18 99 -24 35 -26 -22 -79 -166 -151 -166 -83
-239 -144 -333 -274 -33 -47 -95 -129 -137 -181 -102 -127 -128 -167 -141
-215 -6 -22 -49 -119 -94 -216 -109 -229 -136 -310 -143 -425 -6 -112 10 -168
73 -254 58 -78 87 -93 140 -73 79 30 114 28 241 -16 65 -23 126 -41 137 -41
10 0 37 20 59 45 71 78 151 84 246 19 48 -33 55 -36 68 -22 9 8 19 45 24 82 6
46 16 79 34 105 29 42 32 76 15 197 -16 115 -9 136 74 222 83 87 239 220 272
232 30 11 227 161 395 300 355 292 439 359 519 415 112 77 237 191 366 333
173 190 190 240 206 597 5 132 15 263 20 291 12 61 38 89 129 135 59 30 73 33
145 32 93 -1 281 -41 399 -85 216 -79 177 -73 446 -72 414 2 780 33 925 79 44
14 105 30 136 35 65 13 169 77 267 165 67 61 106 119 116 173 3 19 18 48 32
65 23 27 26 38 21 79 -14 112 -79 198 -194 256 -122 62 -222 78 -261 42 -48
-45 -15 -129 73 -185 57 -37 118 -101 112 -118 -22 -67 -395 -157 -648 -157
-74 0 -93 4 -135 26 -30 16 -82 31 -135 39 -47 7 -104 22 -127 34 -132 68
-663 525 -770 664 -69 88 -105 157 -212 399 -212 477 -327 679 -505 886 -183
213 -504 500 -630 564 -91 46 -147 91 -209 168 -47 58 -69 75 -130 105 -95 46
-418 128 -588 149 -235 30 -501 55 -693 66 -229 13 -311 24 -334 44 -9 8 -36
19 -61 25 -45 10 -182 13 -230 4z m-1466 -5249 c20 -53 -79 -264 -124 -264
-23 0 -50 36 -50 69 0 53 26 107 75 159 52 53 87 66 99 36z m-2106 -1030 c35
-24 46 -62 27 -90 -22 -34 -86 -34 -120 1 -30 29 -34 79 -7 94 26 16 75 13
100 -5z"/>
</g>
</svg>
