<?xml version="1.0" standalone="no"?>
<!DOCTYPE svg PUBLIC "-//W3C//DTD SVG 20010904//EN"
 "http://www.w3.org/TR/2001/REC-SVG-20010904/DTD/svg10.dtd">
<svg version="1.0" xmlns="http://www.w3.org/2000/svg"
 width="1536.000000pt" height="1246.000000pt" viewBox="0 0 1536.000000 1246.000000"
 preserveAspectRatio="xMidYMid meet">
<metadata>
Created by potrace 1.16, written by Peter Selinger 2001-2019
</metadata>
<g transform="translate(0.000000,1246.000000) scale(0.100000,-0.100000)"
fill="#000000" stroke="none">
<path d="M13160 12449 c-901 -78 -1927 -579 -2774 -1355 -155 -141 -1754
-1718 -1905 -1878 -564 -598 -994 -1296 -1222 -1986 l-47 -145 -238 -2 c-258
-2 -411 -13 -628 -44 -624 -90 -1295 -320 -1886 -646 -142 -78 -2007 -1172
-2185 -1281 -1120 -687 -1949 -1690 -2195 -2655 -50 -197 -69 -326 -77 -517
-12 -325 44 -596 182 -875 305 -615 951 -985 1839 -1055 760 -59 1656 137
2502 550 253 123 294 146 1114 628 333 195 769 452 970 570 615 361 888 553
1262 889 495 444 941 1043 1145 1541 l22 52 63 0 c98 0 268 18 434 45 814 135
1695 589 2449 1260 159 141 1906 1864 2031 2002 1034 1145 1524 2492 1283
3526 -133 569 -502 1011 -1023 1226 -319 132 -712 185 -1116 150z m615 -74
c299 -46 550 -141 780 -293 131 -87 337 -291 424 -420 152 -225 250 -486 298
-792 22 -142 25 -512 5 -670 -109 -875 -572 -1797 -1312 -2614 -110 -121
-1656 -1652 -1899 -1880 -854 -802 -1871 -1310 -2796 -1396 -60 -5 -144 -10
-185 -10 -41 0 -80 -4 -86 -8 -6 -4 -26 -41 -43 -83 -110 -264 -320 -611 -535
-884 -363 -460 -867 -911 -1385 -1239 -64 -41 -593 -354 -1176 -697 -1341
-788 -1524 -882 -2085 -1069 -1034 -345 -2015 -347 -2730 -4 -654 314 -1011
899 -987 1614 19 534 228 1089 619 1643 381 538 951 1067 1563 1449 118 74
234 143 1115 660 239 140 586 344 770 453 729 429 1268 651 1912 789 334 71
590 98 958 100 l255 1 65 195 c78 232 144 388 252 605 235 467 538 902 920
1315 99 108 1739 1729 1918 1896 127 119 307 268 475 394 757 567 1550 896
2325 964 97 9 469 -4 565 -19z"/>
<path d="M13166 12299 c-857 -88 -1753 -516 -2586 -1233 -205 -177 -1884
-1832 -2081 -2052 -407 -455 -739 -966 -964 -1484 -64 -149 -187 -497 -200
-570 l-6 -35 -347 0 c-374 0 -508 -12 -817 -71 -523 -101 -1091 -304 -1585
-568 -172 -92 -2085 -1212 -2270 -1329 -220 -139 -445 -304 -670 -491 -183
-152 -512 -480 -658 -656 -610 -734 -904 -1515 -817 -2172 103 -781 702 -1314
1635 -1453 388 -57 867 -38 1325 55 482 97 943 259 1415 495 242 121 178 84
2005 1158 502 295 745 461 1060 723 163 135 531 502 657 654 273 329 480 660
624 995 l52 120 168 6 c266 10 498 49 783 129 695 197 1448 635 2071 1206 156
142 1792 1757 1904 1879 703 763 1169 1640 1305 2457 182 1094 -263 1923
-1167 2174 -167 47 -312 65 -537 69 -115 2 -250 -1 -299 -6z m519 -64 c416
-48 735 -194 996 -454 311 -312 469 -731 469 -1249 0 -917 -504 -1999 -1356
-2915 -169 -180 -1784 -1767 -1934 -1900 -803 -707 -1666 -1136 -2510 -1248
-47 -6 -168 -14 -269 -18 l-183 -6 -67 -156 c-324 -756 -984 -1493 -1836
-2051 -145 -95 -2016 -1200 -2280 -1346 -61 -34 -185 -97 -275 -141 -1180
-569 -2407 -697 -3244 -338 -964 414 -1250 1398 -727 2502 255 537 685 1067
1241 1530 276 230 540 411 950 652 1947 1145 2046 1201 2386 1346 503 216 985
346 1504 409 105 12 580 18 735 8 l80 -5 18 60 c122 400 184 560 328 845 226
449 505 852 872 1258 115 127 1724 1718 1922 1899 568 523 1246 937 1881 1149
468 156 913 214 1299 169z"/>
<path d="M13174 12149 c-819 -79 -1751 -537 -2569 -1263 -173 -152 -1835
-1796 -1968 -1946 -584 -654 -989 -1370 -1167 -2063 l-33 -127 -31 5 c-155 26
-537 33 -746 15 -693 -62 -1444 -302 -2120 -677 -176 -97 -1925 -1125 -2093
-1229 -376 -234 -698 -487 -1011 -793 -624 -614 -997 -1245 -1112 -1886 -25
-140 -30 -407 -10 -543 98 -662 577 -1118 1346 -1280 196 -42 344 -55 605 -56
325 0 579 28 908 100 454 100 878 253 1337 484 209 104 234 118 1195 683 956
561 1107 652 1270 761 869 584 1528 1344 1816 2094 l43 112 171 0 c274 0 533
38 825 120 690 195 1429 626 2045 1193 198 182 1760 1725 1878 1855 291 321
513 618 717 957 594 989 752 2007 418 2680 -229 459 -659 741 -1230 804 -109
12 -361 12 -484 0z m610 -78 c618 -110 1045 -516 1175 -1116 60 -276 53 -629
-19 -979 -159 -773 -657 -1641 -1344 -2345 -136 -139 -1415 -1403 -1631 -1611
-760 -734 -1664 -1235 -2485 -1379 -183 -32 -302 -42 -499 -41 -101 1 -187 -2
-191 -7 -4 -4 -13 -26 -20 -48 -7 -22 -32 -88 -56 -146 -310 -765 -1013 -1539
-1919 -2110 -143 -91 -1887 -1116 -2093 -1231 -654 -365 -1338 -592 -2032
-675 -200 -23 -607 -23 -780 1 -521 72 -893 240 -1165 528 -231 244 -348 534
-362 893 -9 255 20 444 113 725 229 690 789 1398 1572 1988 197 149 399 280
717 467 77 45 437 257 800 470 974 572 1004 589 1206 691 575 288 1141 468
1724 546 133 18 210 22 455 23 194 0 334 -5 408 -14 68 -8 117 -10 122 -5 5 5
25 73 45 152 154 614 497 1258 984 1852 146 178 346 393 544 586 95 92 467
458 827 813 776 765 907 884 1250 1132 688 499 1390 790 2085 863 22 2 132 3
245 1 155 -2 234 -8 324 -24z"/>
<path d="M13165 11999 c-763 -87 -1626 -508 -2390 -1165 -265 -228 -1914
-1858 -2091 -2068 -585 -690 -951 -1376 -1101 -2062 l-27 -126 -31 7 c-155 32
-263 40 -545 40 -314 0 -431 -10 -710 -61 -517 -95 -1085 -298 -1600 -572
-172 -92 -1993 -1159 -2160 -1265 -653 -418 -1213 -944 -1567 -1472 -265 -394
-427 -781 -478 -1136 -19 -134 -19 -359 0 -474 75 -459 356 -809 812 -1010
706 -310 1773 -220 2848 240 303 130 472 221 1102 591 241 141 618 363 838
492 220 129 456 268 525 310 892 538 1586 1237 1950 1962 66 131 136 303 166
406 l18 61 212 -5 c284 -6 471 15 749 84 612 154 1304 526 1895 1020 185 154
282 246 950 904 892 878 1038 1024 1169 1175 680 774 1100 1608 1197 2375 23
184 15 510 -16 653 -63 293 -170 505 -350 691 -214 222 -484 352 -832 401
-111 16 -412 18 -533 4z m619 -78 c290 -60 508 -172 691 -356 178 -179 291
-398 347 -677 20 -100 23 -142 23 -363 0 -216 -3 -267 -23 -378 -58 -320 -152
-613 -294 -918 -262 -560 -614 -1059 -1099 -1554 -291 -296 -1615 -1595 -1739
-1705 -726 -643 -1533 -1064 -2285 -1192 -108 -18 -170 -22 -365 -22 -129 -1
-262 1 -295 4 l-59 5 -41 -125 c-258 -780 -925 -1563 -1855 -2175 -135 -89
-1673 -999 -2085 -1233 -660 -376 -1376 -620 -2052 -698 -180 -21 -580 -24
-728 -5 -801 101 -1298 499 -1401 1120 -22 137 -15 409 15 555 162 790 807
1635 1766 2313 198 140 261 178 1614 973 322 188 650 379 730 423 473 260
1045 473 1549 576 446 92 918 107 1287 41 55 -9 105 -15 111 -13 6 2 22 57 34
121 55 290 164 599 325 927 238 486 553 934 951 1356 145 154 1605 1592 1767
1741 737 678 1630 1150 2387 1262 164 24 162 24 400 21 178 -3 246 -8 324 -24z"/>
<path d="M13315 11864 c-322 -24 -631 -98 -965 -231 -525 -209 -1056 -544
-1552 -981 -67 -59 -386 -366 -707 -682 -1174 -1153 -1268 -1251 -1532 -1602
-372 -495 -631 -987 -775 -1475 -37 -127 -94 -389 -94 -438 -1 -56 -6 -57
-126 -30 -199 45 -360 58 -649 52 -257 -6 -360 -16 -595 -57 -484 -86 -1020
-274 -1525 -534 -191 -98 -1801 -1037 -2142 -1249 -578 -359 -1100 -822 -1464
-1297 -557 -727 -734 -1458 -480 -1985 198 -410 593 -652 1201 -736 122 -17
548 -17 695 -1 639 73 1303 287 1934 626 176 94 1846 1072 2066 1209 597 373
1131 855 1496 1350 233 316 411 663 485 947 15 58 30 109 34 113 4 4 49 1 101
-7 284 -45 595 -23 944 69 657 172 1359 575 2002 1148 129 114 1493 1455 1743
1713 403 415 756 912 995 1399 337 686 442 1319 300 1810 -133 457 -483 762
-970 845 -110 18 -326 31 -420 24z m-1536 -2929 c125 -30 254 -120 322 -226
215 -336 11 -779 -383 -829 -283 -35 -537 150 -595 435 -13 67 -14 94 -5 164
43 319 348 529 661 456z m-7532 -4948 c250 -87 403 -352 349 -606 -43 -202
-177 -351 -376 -417 -71 -23 -224 -24 -298 -1 -276 85 -441 363 -377 636 50
212 219 373 435 415 61 11 196 -2 267 -27z"/>
</g>
</svg>
