<?xml version="1.0" standalone="no"?>
<!DOCTYPE svg PUBLIC "-//W3C//DTD SVG 20010904//EN"
 "http://www.w3.org/TR/2001/REC-SVG-20010904/DTD/svg10.dtd">
<svg version="1.0" xmlns="http://www.w3.org/2000/svg"
 width="1536.000000pt" height="795.000000pt" viewBox="0 0 1536.000000 795.000000"
 preserveAspectRatio="xMidYMid meet">
<metadata>
Created by potrace 1.16, written by Peter Selinger 2001-2019
</metadata>
<g transform="translate(0.000000,795.000000) scale(0.100000,-0.100000)"
fill="#000000" stroke="none">
<path d="M4323 7903 c-230 -278 -452 -618 -623 -953 l-89 -176 -173 -12 c-191
-13 -263 -24 -719 -111 -871 -166 -1284 -283 -1738 -490 -363 -167 -623 -312
-732 -409 -86 -77 -169 -279 -233 -570 -16 -72 -16 -72 14 -195 41 -165 72
-223 178 -339 73 -80 107 -109 198 -163 60 -37 183 -120 274 -184 516 -368
587 -408 991 -557 568 -208 818 -280 1108 -315 l104 -13 22 -51 c26 -59 59
-166 74 -245 28 -141 33 -241 36 -685 2 -504 9 -603 61 -895 33 -186 65 -329
114 -510 126 -466 231 -673 461 -902 65 -65 123 -118 128 -118 7 0 11 28 11
73 0 49 6 85 19 113 17 38 24 43 73 54 89 19 145 23 176 12 l29 -10 6 49 c6
52 33 107 102 208 37 54 45 61 99 76 33 9 83 18 112 19 l53 1 0 72 c-1 114 46
198 136 246 31 17 57 22 117 22 l76 -1 -13 26 c-7 14 -18 54 -25 89 -26 147
51 281 163 281 36 0 39 2 32 23 -4 12 -9 56 -12 97 -4 65 -1 81 20 120 31 58
93 98 178 112 l65 10 -19 57 c-45 131 18 302 141 381 20 14 21 18 11 55 -15
53 -7 151 16 200 26 54 87 110 141 131 30 11 43 22 40 31 -3 7 -11 42 -17 76
-20 108 13 204 83 243 16 9 16 13 -7 57 -47 95 -42 172 14 205 l30 17 -80 77
c-102 99 -140 174 -147 289 l-4 77 48 25 c102 51 185 56 311 16 115 -35 560
-225 799 -339 93 -45 210 -99 260 -120 192 -83 353 -112 421 -76 47 24 185
129 301 229 526 455 967 761 1479 1027 131 68 183 100 183 113 0 11 -17 25
-45 39 -69 34 -58 46 33 36 218 -23 505 -84 1202 -258 960 -239 1180 -285
1975 -420 546 -92 1012 -152 1425 -185 107 -8 299 -24 425 -35 457 -38 658
-35 870 10 98 22 205 58 205 70 0 19 -72 69 -122 85 -29 10 -113 39 -185 66
-163 60 -388 126 -633 185 -102 25 -513 130 -915 234 -401 103 -838 214 -970
245 -412 99 -654 188 -743 274 -45 44 -92 112 -92 134 0 19 86 98 152 140 76
49 240 130 379 187 328 135 709 228 2034 495 925 187 1146 233 1153 239 12 13
-188 78 -325 105 -176 36 -283 45 -533 45 -809 -1 -2123 -128 -3195 -309 -578
-97 -961 -195 -1423 -361 -315 -114 -433 -144 -592 -151 -150 -7 -286 11 -256
33 10 7 44 16 75 20 31 4 67 11 81 16 l25 9 -35 30 c-67 57 -148 109 -306 194
-178 97 -163 88 -379 245 -627 458 -1168 843 -1364 972 l-134 88 -86 0 c-148
0 -354 -55 -812 -217 -391 -137 -399 -136 -554 69 -44 58 -96 124 -116 146
-21 22 -40 54 -44 71 -4 20 -15 35 -29 41 -22 8 -65 53 -120 125 -16 20 -43
46 -61 57 -18 10 -36 30 -39 44 -8 30 -89 121 -116 129 -18 6 -60 90 -60 120
0 9 -16 23 -35 31 -61 25 -112 79 -126 134 -11 43 -16 49 -44 54 -49 10 -85
48 -85 91 0 32 -2 35 -31 35 -37 0 -68 15 -94 47 -18 22 -23 23 -53 12 -31
-11 -66 -9 -103 6 -11 4 -28 -9 -56 -42z"/>
</g>
</svg>
