<?xml version="1.0" standalone="no"?>
<!DOCTYPE svg PUBLIC "-//W3C//DTD SVG 20010904//EN"
 "http://www.w3.org/TR/2001/REC-SVG-20010904/DTD/svg10.dtd">
<svg version="1.0" xmlns="http://www.w3.org/2000/svg"
 width="1231.000000pt" height="1536.000000pt" viewBox="0 0 1231.000000 1536.000000"
 preserveAspectRatio="xMidYMid meet">
<metadata>
Created by potrace 1.16, written by Peter Selinger 2001-2019
</metadata>
<g transform="translate(0.000000,1536.000000) scale(0.100000,-0.100000)"
fill="#000000" stroke="none">
<path d="M2510 15354 c-170 -29 -196 -38 -385 -134 -359 -183 -674 -376 -865
-530 -52 -42 -185 -148 -295 -236 -232 -184 -375 -320 -404 -384 -12 -26 -21
-67 -21 -97 0 -44 -4 -55 -29 -75 -15 -14 -41 -30 -57 -36 -16 -6 -60 -23 -99
-38 -149 -58 -287 -168 -334 -267 -26 -53 -25 -131 0 -149 25 -16 92 -2 192
42 144 61 225 75 367 64 l115 -9 -120 -88 c-143 -106 -216 -145 -299 -158 -70
-11 -96 -28 -72 -48 35 -29 347 -71 535 -71 89 0 198 -39 331 -119 129 -76
201 -98 355 -110 70 -5 136 -16 159 -26 65 -28 129 -97 169 -182 106 -227 87
-368 -81 -600 -122 -168 -178 -355 -213 -703 -6 -63 -14 -371 -18 -685 l-7
-570 89 -260 c91 -266 186 -513 240 -620 16 -33 82 -148 147 -255 226 -375
439 -778 540 -1020 95 -226 164 -361 380 -740 374 -659 457 -790 616 -980 128
-152 318 -320 516 -454 126 -85 178 -111 275 -136 43 -12 157 -55 253 -97 464
-200 686 -282 945 -347 185 -46 241 -57 567 -111 305 -50 460 -85 498 -113 31
-23 35 -44 54 -272 27 -327 38 -587 38 -940 1 -667 -51 -1056 -248 -1860 -36
-146 -79 -307 -96 -359 -37 -111 -59 -136 -203 -228 l-100 -65 -125 6 c-205 9
-804 110 -917 155 -83 32 -283 73 -390 78 -82 5 -112 2 -147 -11 -74 -28 -70
-86 6 -86 38 0 69 -17 153 -84 126 -102 147 -108 546 -171 482 -76 619 -108
619 -145 0 -21 -52 -53 -239 -148 -239 -122 -419 -202 -571 -254 -292 -101
-535 -269 -605 -420 -46 -98 -26 -222 33 -204 11 4 44 36 72 72 28 36 58 68
66 71 8 3 31 -6 52 -20 86 -58 186 -42 385 62 72 38 196 95 275 126 167 65
425 180 747 330 293 137 367 166 421 168 76 3 92 -32 128 -268 18 -122 55
-244 107 -351 81 -167 169 -207 169 -77 0 49 17 108 36 127 30 31 54 106 88
277 57 288 131 511 189 573 26 27 47 36 111 51 44 9 112 35 154 56 57 31 73
36 67 22 -4 -10 -29 -82 -56 -160 -56 -162 -95 -252 -131 -305 -14 -20 -28
-59 -32 -86 -7 -57 -26 -77 -80 -85 -77 -12 -123 -87 -158 -256 -10 -52 -20
-133 -21 -180 -2 -81 -1 -86 20 -89 27 -4 65 45 88 115 9 29 22 56 28 60 7 5
65 10 129 13 110 6 120 8 160 36 84 59 200 242 323 511 140 309 214 521 311
893 l73 285 -3 -480 c-3 -516 -8 -569 -61 -772 -14 -54 -28 -125 -31 -158 -10
-98 33 -241 89 -303 28 -31 44 -28 51 11 3 18 38 87 78 152 177 295 211 500
228 1395 11 572 29 777 96 1110 73 366 215 782 426 1245 140 307 369 795 387
827 33 55 60 61 171 44 52 -9 219 -27 370 -41 365 -34 607 -63 644 -79 124
-52 444 -387 587 -612 117 -185 217 -322 280 -385 140 -141 550 -379 667 -387
47 -3 63 0 92 20 136 92 191 408 206 1188 7 333 -2 573 -37 1015 -33 428 -109
1245 -125 1355 -70 485 -248 1049 -485 1538 -248 513 -435 757 -1044 1367
-131 132 -256 248 -290 270 -87 56 -163 116 -296 231 -265 230 -498 383 -844
557 -293 146 -518 223 -1290 439 -238 66 -519 111 -905 145 -258 22 -1167 26
-1430 5 -391 -31 -753 -100 -905 -173 -83 -39 -269 -87 -390 -99 -209 -21
-476 33 -641 131 -75 44 -262 230 -339 337 -80 111 -161 253 -220 387 -58 133
-152 324 -169 345 -37 45 -59 172 -81 465 -40 555 -73 659 -278 872 -93 97
-170 151 -229 161 -23 4 -43 12 -45 18 -5 15 50 89 160 212 176 198 270 333
347 496 100 212 130 368 85 446 -33 58 -98 83 -219 86 -55 1 -112 1 -126 -2z
m6280 -10229 c50 -61 -135 -520 -568 -1410 -387 -796 -442 -919 -496 -1096
-19 -64 -70 -205 -112 -315 -42 -109 -94 -255 -116 -324 -76 -240 -116 -312
-262 -479 l-79 -90 -38 42 c-47 51 -93 141 -114 221 -33 130 -38 224 -32 601
8 470 30 828 82 1325 44 421 48 499 45 760 -6 456 -6 449 20 508 30 69 76 109
136 118 26 4 169 3 318 -2 445 -15 868 -11 953 8 96 22 143 45 162 81 34 64
74 84 101 52z"/>
</g>
</svg>
