<?xml version="1.0" standalone="no"?>
<!DOCTYPE svg PUBLIC "-//W3C//DTD SVG 20010904//EN"
 "http://www.w3.org/TR/2001/REC-SVG-20010904/DTD/svg10.dtd">
<svg version="1.0" xmlns="http://www.w3.org/2000/svg"
 width="630.000000pt" height="827.000000pt" viewBox="0 0 630.000000 827.000000"
 preserveAspectRatio="xMidYMid meet">
<metadata>
Created by potrace 1.16, written by Peter Selinger 2001-2019
</metadata>
<g transform="translate(0.000000,827.000000) scale(0.100000,-0.100000)"
fill="#000000" stroke="none">
<path d="M4696 8259 c3 -6 19 -19 35 -28 29 -18 29 -18 -114 -30 -105 -9 -160
-10 -212 -2 -38 6 -90 13 -115 16 -39 5 -42 4 -22 -6 44 -23 20 -29 -95 -22
-106 6 -116 5 -110 -10 8 -20 -10 -22 -82 -6 -27 6 -67 9 -88 7 l-38 -3 35
-19 35 -19 -30 -10 c-16 -5 -39 -17 -50 -27 -31 -27 -56 -37 -108 -45 -57 -9
-72 -25 -23 -25 53 0 44 -13 -22 -32 -32 -10 -85 -35 -118 -56 -32 -22 -75
-45 -94 -51 -19 -6 -46 -20 -60 -31 l-25 -20 25 0 25 -1 -26 -14 c-15 -8 -29
-21 -32 -29 -5 -12 0 -14 26 -9 30 6 31 5 15 -10 -9 -10 -19 -26 -23 -36 -3
-10 -20 -25 -37 -32 -16 -7 -39 -26 -49 -42 -13 -22 -41 -40 -106 -68 -78 -34
-84 -38 -53 -39 19 0 52 5 73 11 22 6 41 9 43 6 5 -4 -157 -122 -212 -154 -37
-22 -38 -23 -9 -17 17 3 60 20 98 38 64 31 82 29 55 -7 -14 -17 -165 -97 -185
-97 -6 0 -14 -4 -17 -9 -7 -10 81 5 135 24 94 33 92 5 -3 -89 -40 -40 -82 -87
-92 -106 l-19 -34 39 24 c21 13 49 30 62 38 20 13 22 13 22 -5 0 -10 -13 -30
-30 -45 -33 -29 -41 -55 -12 -43 9 4 27 10 40 12 19 5 22 1 22 -24 0 -30 -33
-201 -65 -336 -9 -38 -26 -85 -39 -105 -42 -67 -270 -308 -351 -373 -44 -34
-123 -101 -175 -148 -52 -48 -117 -104 -144 -126 -98 -80 -267 -314 -345 -479
-33 -68 -54 -131 -66 -191 -31 -161 -170 -497 -362 -875 -120 -236 -150 -305
-213 -490 -40 -118 -91 -255 -113 -305 -62 -141 -133 -364 -141 -441 -13 -122
-28 -197 -52 -248 -19 -41 -24 -68 -24 -138 0 -81 -3 -95 -56 -229 -30 -79
-66 -161 -79 -183 -47 -81 -142 -335 -221 -591 -13 -44 -46 -116 -73 -160 -90
-148 -357 -711 -391 -825 -26 -89 -64 -184 -80 -202 -6 -7 -31 -49 -56 -93
-34 -60 -53 -114 -79 -217 -51 -202 -44 -282 26 -307 80 -28 149 2 184 79 14
31 30 46 69 65 28 13 70 27 93 31 23 3 50 15 59 25 14 16 27 18 88 13 63 -5
81 -3 155 25 47 17 86 31 88 31 2 0 3 -8 3 -18 0 -28 32 -42 60 -27 20 11 28
10 44 -1 12 -7 40 -17 64 -22 62 -14 108 2 158 54 52 53 76 55 121 12 l33 -32
46 44 c25 25 66 72 91 105 77 100 134 155 163 155 40 0 110 50 176 125 32 38
87 98 121 135 72 79 92 115 127 231 14 47 40 106 56 132 17 26 37 64 45 83 8
20 28 53 45 74 16 21 30 46 30 56 1 57 33 161 69 221 22 38 47 92 55 122 9 30
40 98 70 150 75 133 91 169 105 224 6 27 22 65 35 85 43 69 104 216 151 367
l47 149 132 143 c72 79 165 185 206 236 139 173 211 252 333 365 66 62 139
139 161 171 72 104 349 414 356 399 13 -24 20 -202 10 -240 -6 -21 -23 -52
-37 -69 -26 -31 -27 -32 -10 -62 10 -16 16 -31 15 -31 -2 -1 -16 -12 -32 -24
-18 -14 -43 -22 -67 -22 -45 0 -50 -12 -14 -28 62 -28 163 -6 190 42 10 17 29
44 42 59 22 28 23 35 23 213 l0 184 43 27 c80 51 210 55 263 9 l26 -22 -42
-38 c-23 -20 -39 -43 -37 -51 8 -19 -40 -134 -74 -177 -16 -20 -29 -39 -29
-42 0 -22 91 16 141 59 45 37 99 178 99 256 0 36 -37 94 -74 113 -34 18 -47
36 -26 36 5 0 24 15 42 33 18 19 89 69 158 112 68 42 154 101 190 130 80 64
176 196 236 324 24 52 54 109 65 128 19 31 22 32 34 17 11 -15 14 -12 28 27
28 78 94 233 124 294 17 33 36 78 43 100 7 22 31 78 52 125 34 74 59 163 83
304 4 26 20 53 50 85 l44 47 7 112 c7 107 8 112 25 96 25 -22 39 -10 39 34 0
22 4 32 8 25 6 -9 21 0 51 31 44 45 77 128 64 161 -3 9 -2 31 1 50 6 31 9 34
35 29 25 -5 30 -2 39 24 6 17 27 48 47 71 31 34 39 52 49 113 12 69 13 71 23
43 6 -17 20 -41 31 -55 l20 -25 -20 87 c-19 82 -18 146 1 134 5 -3 12 -23 16
-43 10 -54 21 -25 29 74 8 104 13 116 40 109 11 -3 31 -9 43 -12 29 -8 34 20
12 70 -23 51 -16 69 24 60 28 -6 29 -5 25 23 -4 26 -2 29 23 25 22 -3 29 2 46
35 19 35 23 38 59 34 21 -2 51 -9 67 -17 26 -14 27 -14 27 15 0 72 -92 203
-151 216 -34 8 -33 -2 -13 110 5 30 4 35 -13 35 -36 0 -32 12 25 66 l57 54
-45 -16 c-25 -10 -64 -32 -87 -51 -23 -18 -53 -33 -68 -33 -24 0 -25 2 -19 35
6 33 5 35 -21 35 -28 0 -28 0 -10 21 19 20 19 20 -5 11 -109 -41 -362 -9 -432
55 -21 19 -24 43 -5 43 6 0 35 11 62 25 l50 25 -95 -5 -95 -6 -47 41 c-43 37
-46 43 -41 76 6 34 5 36 -17 29 -19 -6 -39 9 -136 106 l-114 113 -67 4 c-38 2
-95 -1 -128 -6 -54 -9 -66 -7 -117 14 -63 26 -83 30 -72 13z"/>
</g>
</svg>
