<?xml version="1.0" standalone="no"?>
<!DOCTYPE svg PUBLIC "-//W3C//DTD SVG 20010904//EN"
 "http://www.w3.org/TR/2001/REC-SVG-20010904/DTD/svg10.dtd">
<svg version="1.0" xmlns="http://www.w3.org/2000/svg"
 width="672.000000pt" height="1828.000000pt" viewBox="0 0 672.000000 1828.000000"
 preserveAspectRatio="xMidYMid meet">
<metadata>
Created by potrace 1.16, written by Peter Selinger 2001-2019
</metadata>
<g transform="translate(0.000000,1828.000000) scale(0.100000,-0.100000)"
fill="#000000" stroke="none">
<path d="M3195 18244 c-16 -3 -100 -18 -185 -34 -90 -17 -221 -34 -312 -40
-638 -40 -1227 -259 -1731 -642 -173 -132 -427 -403 -554 -593 -65 -98 -188
-315 -221 -390 -71 -163 -100 -279 -132 -521 -35 -275 -26 -354 58 -536 135
-291 335 -554 722 -953 187 -192 191 -200 167 -402 -29 -247 -41 -559 -42
-1068 0 -414 3 -528 18 -665 23 -210 41 -384 67 -635 36 -343 81 -578 180
-940 148 -543 253 -826 436 -1185 91 -179 160 -290 285 -461 122 -168 130
-181 153 -261 24 -83 21 -95 -33 -154 -97 -106 -134 -235 -112 -393 15 -110
44 -182 100 -243 l48 -53 12 -171 c11 -178 26 -281 63 -447 l22 -99 -22 -91
c-31 -131 -50 -253 -62 -402 -6 -71 -13 -137 -16 -145 -3 -8 -5 -182 -5 -385
0 -516 7 -568 155 -1161 42 -169 79 -345 85 -400 31 -285 42 -433 51 -669 5
-143 14 -368 20 -500 12 -257 6 -700 -11 -880 -14 -150 -76 -602 -95 -700 -42
-210 -115 -412 -253 -697 -125 -258 -202 -377 -332 -515 -71 -75 -86 -105 -75
-149 9 -35 66 -58 124 -50 62 8 196 78 299 155 148 111 332 311 444 481 9 14
21 21 25 17 5 -5 8 -91 7 -190 -3 -296 -54 -646 -120 -817 -39 -100 -40 -133
-8 -159 38 -29 69 -27 134 10 167 94 270 213 400 460 71 134 71 134 78 -114 4
-144 2 -195 -12 -271 -20 -107 -16 -141 19 -150 70 -18 160 84 248 279 19 44
41 97 47 118 7 20 16 37 19 37 4 0 24 -44 44 -98 67 -175 168 -320 234 -336
17 -5 35 -1 51 9 27 18 27 21 3 159 -15 88 -10 440 7 457 8 8 22 -11 57 -82
103 -207 237 -369 368 -447 105 -62 152 -66 185 -15 17 25 16 29 -15 117 -46
132 -79 279 -102 461 -24 186 -39 558 -22 569 6 3 53 -51 110 -126 285 -380
683 -627 778 -484 24 38 12 66 -67 153 -116 128 -201 257 -297 448 -202 406
-269 603 -318 944 -70 493 -83 651 -84 1016 0 364 34 1166 60 1400 5 50 14
131 20 180 5 50 41 214 79 365 150 596 152 616 157 1094 5 461 -16 727 -79
1001 l-24 99 23 106 c33 154 54 308 63 457 l7 131 61 65 c70 75 98 138 115
259 22 154 -15 286 -110 389 -59 65 -61 77 -32 172 15 49 44 98 110 189 197
273 273 400 410 696 135 291 215 519 337 957 97 350 145 580 178 850 24 203
84 795 95 945 23 312 2 1247 -36 1570 l-17 146 26 57 c20 44 64 96 193 229
358 370 541 613 679 900 77 160 89 214 82 368 -7 163 -39 382 -72 495 -62 213
-218 505 -385 721 -150 193 -363 400 -545 530 -486 348 -1045 546 -1648 584
-115 8 -222 22 -322 42 -126 26 -177 31 -315 34 -91 1 -178 0 -195 -2z"/>
</g>
</svg>
