<?xml version="1.0" standalone="no"?>
<!DOCTYPE svg PUBLIC "-//W3C//DTD SVG 20010904//EN"
 "http://www.w3.org/TR/2001/REC-SVG-20010904/DTD/svg10.dtd">
<svg version="1.0" xmlns="http://www.w3.org/2000/svg"
 width="1536.000000pt" height="1421.000000pt" viewBox="0 0 1536.000000 1421.000000"
 preserveAspectRatio="xMidYMid meet">
<metadata>
Created by potrace 1.16, written by Peter Selinger 2001-2019
</metadata>
<g transform="translate(0.000000,1421.000000) scale(0.100000,-0.100000)"
fill="#000000" stroke="none">
<path d="M9010 14142 c0 -108 -19 -233 -44 -288 -27 -58 -72 -97 -131 -113
-45 -12 -221 -15 -228 -3 -3 4 -1 56 5 117 10 126 1 210 -33 282 l-23 48 -12
-218 c-7 -120 -14 -221 -17 -223 -6 -7 -310 16 -348 26 -91 25 -139 86 -148
188 l-6 65 -85 -112 -85 -112 -155 6 c-85 4 -160 8 -166 10 -6 2 -22 36 -35
77 l-23 73 -11 -60 -11 -60 -265 -3 -265 -2 -20 77 -19 78 -5 -90 c-4 -81 -7
-90 -25 -92 -61 -8 -549 -52 -551 -50 -1 1 3 89 10 195 10 174 10 192 -5 192
-8 0 -26 -11 -39 -25 -21 -22 -24 -39 -32 -147 -6 -86 -13 -132 -26 -157 -37
-70 -138 -99 -366 -103 l-119 -3 -33 128 c-17 71 -34 130 -37 133 -2 2 -7 -18
-10 -47 -14 -117 -90 -216 -212 -274 -85 -41 -150 -58 -364 -96 -90 -17 -168
-32 -172 -34 -9 -6 -17 56 -25 203 -4 68 -10 119 -14 115 -3 -4 -26 -72 -50
-149 l-43 -142 -116 -66 c-114 -64 -119 -66 -207 -72 l-90 -7 -68 159 -67 159
5 -97 c4 -54 9 -141 12 -193 8 -108 -4 -124 -43 -57 l-22 37 -1 -51 0 -52
-134 -45 c-160 -55 -186 -62 -186 -51 0 5 -14 33 -31 63 l-32 55 -16 -55 c-10
-30 -26 -67 -36 -82 -22 -34 -85 -72 -145 -87 -29 -7 -56 -23 -75 -44 -45 -50
-131 -114 -199 -148 -61 -31 -179 -78 -195 -78 -4 0 -34 57 -66 128 -31 70
-58 128 -60 130 -2 2 -18 -3 -37 -11 l-35 -15 8 -53 c11 -78 11 -249 -1 -288
-33 -116 -161 -118 -238 -3 -20 30 -47 62 -59 70 -23 14 -23 14 -23 -39 -1
-175 -88 -305 -219 -325 -41 -6 -129 4 -186 21 -19 6 -20 1 -20 -97 0 -94 -2
-107 -27 -148 -14 -25 -48 -66 -75 -92 l-48 -47 -89 100 c-49 54 -91 98 -93
96 -2 -2 3 -33 12 -68 19 -80 19 -189 1 -233 -7 -18 -26 -43 -42 -55 -25 -20
-37 -22 -85 -18 -30 3 -88 18 -127 35 -40 16 -72 29 -72 27 0 -2 13 -43 29
-92 66 -202 45 -293 -66 -293 l-42 0 35 -76 c19 -42 33 -78 32 -79 -2 -1 -61
20 -133 46 -71 27 -133 49 -137 49 -4 0 8 -26 26 -57 52 -89 70 -153 63 -227
-5 -47 -37 -165 -51 -183 -1 -1 -62 9 -136 22 -73 14 -137 25 -142 25 -5 0 28
-46 73 -102 45 -57 87 -109 93 -116 5 -8 -20 3 -57 23 -37 20 -67 34 -67 32 0
-3 20 -49 45 -103 25 -53 44 -98 43 -99 -2 -1 -70 4 -152 11 -82 8 -150 13
-152 11 -1 -1 40 -60 92 -131 72 -99 91 -133 83 -143 -12 -14 -14 -13 -77 30
-24 16 -46 27 -48 24 -3 -3 4 -54 15 -113 12 -60 21 -115 21 -123 0 -14 -76
-12 -213 6 -49 6 -49 6 -45 -22 3 -25 13 -32 93 -66 101 -41 103 -44 86 -134
-20 -109 -60 -158 -141 -171 -48 -8 -203 -76 -207 -91 -3 -7 17 -23 44 -36 99
-51 173 -128 173 -180 0 -44 -31 -78 -129 -146 -81 -55 -131 -101 -131 -121 0
-9 99 -55 105 -49 2 3 1 20 -5 37 -10 36 -8 35 47 -5 42 -32 47 -45 48 -133 1
-41 5 -91 9 -112 l8 -36 -88 -7 c-49 -4 -111 -11 -139 -14 l-50 -6 125 -43
c69 -23 137 -48 152 -54 l28 -10 0 -104 c0 -57 -2 -104 -4 -104 -2 0 -63 -11
-136 -25 -73 -14 -135 -25 -139 -25 -3 0 20 -11 52 -24 105 -43 163 -102 197
-200 11 -30 20 -72 20 -91 0 -36 -1 -36 -101 -84 l-100 -49 53 -7 c75 -9 150
-48 181 -93 23 -32 67 -140 67 -162 0 -4 -58 -25 -130 -46 -71 -21 -130 -43
-130 -50 0 -6 28 -17 62 -24 124 -24 228 -91 244 -157 10 -37 -19 -88 -66
-119 -49 -32 -48 -33 75 -63 l90 -22 46 -117 c26 -64 45 -120 43 -123 -1 -3
-50 -34 -109 -70 -58 -35 -104 -68 -102 -73 2 -5 43 -26 93 -45 203 -82 349
-220 375 -356 11 -58 -6 -122 -57 -210 -24 -43 -43 -80 -41 -81 2 -2 28 6 58
18 80 31 153 29 211 -5 40 -23 98 -82 98 -99 0 -3 -19 -12 -43 -21 -132 -49
-246 -59 -463 -41 -178 14 -326 18 -359 8 -11 -3 -76 -85 -146 -182 l-125
-177 -94 -250 c-51 -137 -101 -271 -111 -296 l-18 -47 145 -92 c79 -50 144
-98 144 -105 0 -13 -32 -22 -189 -56 -33 -7 -51 -16 -51 -25 0 -10 7 -13 23
-9 32 7 835 125 853 125 8 0 14 -10 14 -24 0 -21 -17 -31 -153 -91 -83 -37
-164 -72 -179 -77 -25 -9 -40 -38 -20 -38 5 0 80 16 168 36 137 31 172 35 254
32 99 -4 190 -33 190 -60 0 -7 -64 -78 -142 -157 l-143 -144 135 71 c185 96
270 118 379 96 64 -13 38 -35 -163 -139 -107 -55 -193 -101 -192 -102 1 -1
154 31 339 72 186 41 342 75 348 75 5 0 -45 -66 -113 -147 -168 -202 -160
-191 -113 -161 22 14 128 80 235 148 107 67 200 124 206 127 10 4 -44 -147
-162 -452 l-15 -40 43 41 c24 22 115 105 203 185 l159 144 -33 -60 c-19 -33
-45 -80 -59 -105 -21 -37 -22 -42 -6 -29 18 15 586 480 681 556 l42 34 -24
-78 c-14 -43 -67 -213 -119 -378 -52 -165 -91 -301 -87 -303 4 -1 25 3 47 10
l39 13 72 245 c39 135 76 264 82 288 11 41 13 42 51 42 l40 0 0 -187 c0 -129
3 -184 10 -177 6 6 26 136 45 289 19 152 36 280 39 283 10 10 137 -60 176 -97
55 -52 55 -87 -2 -135 -25 -22 -38 -40 -32 -45 5 -4 58 -13 118 -20 60 -6 111
-13 113 -15 5 -5 -97 -186 -104 -186 -5 0 3 59 13 93 3 10 0 17 -8 17 -7 0
-28 -29 -46 -64 -40 -78 -117 -153 -198 -194 -32 -16 -119 -48 -192 -71 -85
-27 -132 -47 -129 -54 2 -8 43 -14 121 -17 l118 -5 -61 -58 c-77 -74 -157
-111 -307 -143 -288 -62 -348 -82 -456 -153 -40 -26 -109 -86 -153 -133 -122
-129 -208 -290 -256 -476 -19 -74 -47 -307 -38 -316 3 -3 21 -1 42 4 90 20
100 -20 33 -123 -51 -78 -58 -75 104 -47 63 11 124 20 134 20 18 0 18 -2 -4
-24 -12 -14 -20 -31 -17 -38 2 -8 46 -31 97 -51 88 -36 95 -38 140 -26 l47 12
16 106 c40 270 124 370 295 353 32 -3 42 -8 38 -18 -3 -8 -92 -137 -199 -287
-220 -310 -215 -303 -196 -292 37 21 118 93 265 236 220 212 328 281 462 295
l57 5 -59 -54 c-32 -30 -57 -59 -55 -65 2 -6 44 14 94 44 50 31 94 58 99 62 5
3 6 -1 1 -9 -7 -11 -224 -270 -309 -368 -28 -33 -34 -36 327 211 174 119 323
220 329 224 6 4 -3 -19 -21 -50 -18 -31 -31 -59 -29 -61 2 -2 101 59 221 135
119 77 217 135 217 129 0 -8 -79 -331 -106 -434 -3 -11 64 105 149 257 84 153
156 281 160 284 3 4 -19 -56 -49 -132 -86 -214 -94 -234 -90 -234 2 0 84 105
182 234 99 129 180 231 182 227 1 -4 -22 -124 -53 -266 -31 -142 -54 -259 -53
-261 2 -1 66 13 142 32 76 19 140 33 142 31 2 -2 -59 -41 -136 -87 -207 -124
-280 -197 -326 -327 -15 -43 -26 -56 -78 -89 l-61 -39 47 -3 46 -3 -81 -162
c-91 -179 -141 -313 -162 -433 -18 -101 -19 -194 -3 -194 7 0 60 48 119 106
l106 106 6 -84 c10 -136 65 -301 111 -334 49 -34 111 2 154 92 24 52 42 44 42
-18 l0 -53 21 30 c42 61 88 164 134 295 65 187 100 255 165 321 52 53 183 129
197 115 4 -3 -8 -58 -25 -121 -18 -64 -32 -120 -32 -125 0 -5 83 31 185 80
187 90 207 93 128 19 -61 -58 -96 -78 -231 -134 -75 -31 -128 -58 -130 -67 -3
-13 15 -12 118 9 67 14 124 22 127 20 2 -3 -52 -90 -121 -194 l-126 -188 55
-3 c30 -2 55 -5 55 -8 0 -3 -9 -19 -21 -35 -33 -46 -105 -206 -140 -309 -23
-69 -33 -120 -37 -187 l-5 -92 31 -30 c25 -25 39 -31 75 -31 104 0 180 50 307
202 110 131 164 173 244 190 l60 13 175 219 176 220 5 -48 5 -49 185 167 c168
152 185 164 188 141 5 -38 23 -30 20 9 -3 32 4 41 122 146 l125 112 12 -103
c6 -57 12 -110 12 -116 1 -7 5 -13 10 -13 5 0 12 39 16 88 12 166 53 245 146
287 45 21 45 20 14 120 -19 60 -24 65 115 -105 57 -69 109 -131 116 -139 8 -9
6 11 -7 60 -27 98 -35 257 -19 356 27 170 87 298 275 591 63 99 142 229 175
289 32 59 63 115 68 123 7 11 19 0 55 -45 111 -141 174 -319 208 -585 17 -129
17 -500 0 -1010 -13 -392 -13 -429 3 -482 17 -59 58 -118 82 -118 25 0 80 59
113 119 51 96 98 233 142 411 62 256 90 350 105 350 14 0 13 6 94 -415 59
-305 64 -322 93 -355 67 -75 122 -130 128 -130 4 0 92 106 195 235 140 173
190 229 192 214 2 -11 -6 -173 -18 -360 -12 -186 -20 -344 -18 -350 2 -6 46
57 98 139 52 83 96 150 97 148 1 -1 -20 -60 -48 -132 -28 -71 -57 -146 -65
-167 l-13 -37 95 51 95 51 -6 -38 c-4 -22 -15 -91 -25 -154 -10 -63 -16 -117
-15 -118 2 -2 24 8 49 23 l46 27 0 -29 c0 -15 5 -122 11 -238 l11 -210 84
-173 83 -173 38 16 c115 48 163 137 198 368 l6 38 39 -43 c25 -28 42 -39 48
-33 5 6 19 161 32 345 12 184 23 336 24 337 1 1 43 -27 94 -62 51 -35 92 -63
92 -60 0 2 -45 103 -100 224 -55 121 -100 223 -100 226 0 3 28 -26 63 -64 34
-37 63 -68 64 -67 2 1 -29 99 -67 216 -38 118 -67 216 -65 218 1 2 48 -20 104
-47 76 -39 101 -47 101 -36 0 12 -119 179 -223 313 -5 7 71 -26 169 -74 218
-105 204 -99 204 -83 0 8 -17 25 -38 39 -52 35 -207 185 -247 240 -122 167
-175 394 -175 760 0 293 -45 497 -138 632 -29 42 -30 49 -51 296 -13 140 -20
256 -17 259 7 7 269 32 275 27 3 -2 -6 -38 -19 -79 l-23 -74 37 -41 c89 -99
154 -221 194 -365 22 -79 22 -366 0 -472 -24 -117 2 -91 67 67 32 77 60 138
64 136 3 -3 69 -131 146 -285 77 -155 145 -281 152 -281 6 0 13 17 15 38 l3
37 43 -63 c59 -86 90 -159 106 -250 l13 -77 23 38 c12 21 24 37 25 35 1 -2 39
-67 85 -145 99 -173 117 -185 84 -61 -8 33 -14 62 -12 63 2 2 21 -30 42 -71
22 -41 45 -74 52 -74 8 0 14 17 16 46 l3 46 90 -176 c50 -98 96 -176 104 -176
14 0 13 37 -5 198 -4 34 -3 52 4 52 18 0 99 -121 138 -206 98 -212 135 -283
172 -324 118 -134 315 -148 432 -30 90 89 103 211 41 385 -79 221 -89 255
-100 347 -15 129 -14 128 -70 128 -43 0 -48 3 -65 35 -10 19 -22 32 -26 30 -4
-3 -16 5 -26 17 -19 21 -19 21 5 8 l24 -13 -25 44 c-14 24 -64 114 -111 199
-47 85 -122 206 -166 269 -45 63 -79 117 -77 119 3 2 37 -1 76 -8 39 -7 74
-10 76 -7 3 3 11 56 17 118 l12 114 22 -37 c22 -37 43 -50 43 -25 0 6 -9 46
-20 87 -10 41 -18 76 -16 78 10 10 132 -120 170 -181 52 -85 71 -129 134 -307
55 -157 78 -181 68 -71 -3 39 -9 104 -12 144 l-6 72 122 -185 c67 -102 138
-209 156 -238 31 -47 54 -66 54 -43 0 4 -9 54 -21 110 -11 57 -18 105 -16 108
8 8 80 -33 125 -72 53 -46 107 -117 205 -270 42 -66 86 -131 96 -145 19 -24
19 -23 0 55 -26 107 -29 243 -6 279 54 82 182 -12 454 -334 114 -135 226 -255
211 -225 -3 6 -44 76 -90 156 -47 80 -91 157 -98 170 -7 13 34 -21 91 -76 57
-56 122 -109 144 -120 22 -11 70 -21 107 -23 64 -4 69 -3 97 25 36 37 51 88
51 176 0 120 -57 350 -131 532 -39 98 -39 96 6 109 22 7 39 18 37 24 -1 7 -28
51 -60 99 l-57 86 -205 135 c-249 164 -348 240 -430 329 -53 58 -170 220 -170
235 0 3 27 11 60 17 40 8 60 17 60 27 0 9 -11 14 -33 14 -94 0 -201 76 -277
196 -55 88 -192 376 -183 385 8 6 282 99 294 99 4 0 9 -48 13 -108 15 -247 16
-252 42 -252 19 0 24 5 24 24 0 38 38 246 55 303 33 109 76 120 119 30 30 -64
43 -134 56 -298 9 -123 36 -235 63 -273 13 -17 15 -11 20 60 4 43 10 152 13
241 4 90 10 163 13 163 4 0 23 -14 44 -31 20 -17 37 -26 37 -22 0 5 -11 38
-25 73 -14 35 -21 60 -17 55 5 -6 82 -145 171 -310 165 -305 176 -323 186
-313 5 5 -37 244 -60 346 -4 14 -1 22 8 22 8 0 51 -72 98 -164 46 -90 85 -163
87 -162 1 2 -20 68 -48 146 -27 79 -48 145 -46 147 6 7 101 -73 145 -123 57
-65 148 -203 191 -292 49 -100 73 -95 44 10 -6 21 0 19 199 -76 65 -31 120
-56 123 -56 2 0 4 6 4 13 0 6 -33 33 -73 59 -40 26 -101 72 -135 103 -61 56
-162 193 -162 222 0 9 78 -39 201 -122 110 -75 202 -135 204 -133 2 2 -28 47
-66 101 -38 54 -69 100 -69 103 0 4 293 -244 384 -325 32 -29 27 -18 -104 216
-27 48 -46 89 -41 91 4 1 95 -25 203 -58 107 -33 200 -60 207 -60 6 0 31 41
57 91 41 83 47 90 62 76 9 -8 127 -103 262 -212 l245 -197 60 6 c33 3 91 14
128 26 122 38 174 113 212 310 39 195 38 183 15 176 -11 -3 -28 -8 -37 -11
-15 -4 -48 52 -180 304 -90 170 -163 313 -163 318 0 5 14 14 30 20 17 6 30 19
30 28 0 9 -26 51 -59 93 l-58 77 -184 52 c-158 45 -875 279 -889 290 -2 2 72
80 165 173 l170 170 -110 0 -110 0 46 30 c67 44 140 57 241 42 45 -6 83 -10
85 -8 2 2 -37 40 -87 86 -49 45 -90 90 -90 100 0 12 41 42 130 95 72 43 130
79 130 80 0 2 -16 13 -36 25 l-35 23 33 34 c47 50 101 73 173 73 l60 0 -60 54
c-58 51 -59 54 -46 79 47 88 122 137 212 137 l54 1 -69 63 -69 63 22 36 c49
80 115 112 217 105 35 -2 64 -3 64 -2 0 2 -146 123 -168 140 -12 9 -11 26 9
118 l23 108 35 -6 c20 -3 72 -8 116 -12 l80 -6 -52 36 c-29 20 -53 41 -53 47
0 5 9 28 20 50 12 22 25 51 31 66 l10 26 -28 -18 c-16 -10 -44 -31 -64 -47
-20 -15 -39 -28 -41 -28 -5 0 39 251 45 256 1 2 45 -8 97 -21 52 -14 99 -25
103 -25 5 0 -32 34 -83 76 -102 86 -103 88 -55 169 48 82 97 115 186 124 l55
6 -113 175 c-62 96 -113 178 -113 181 0 3 51 -1 112 -8 62 -7 116 -9 119 -5 4
4 10 28 14 53 l7 47 -39 12 c-58 19 -118 65 -137 104 -20 42 -20 50 -1 85 18
37 79 61 150 61 39 0 55 4 55 13 0 7 -40 39 -90 71 -175 113 -195 178 -99 327
l41 63 -33 28 c-18 15 -37 28 -41 28 -5 0 -31 -12 -59 -26 -28 -14 -53 -24
-54 -22 -2 2 -7 33 -11 69 -9 91 8 160 71 286 30 59 53 108 51 110 -1 1 -44
-2 -95 -8 -51 -6 -99 -9 -108 -7 -10 2 17 31 77 83 51 44 98 83 104 87 7 4 0
19 -19 38 l-30 31 27 50 c16 27 24 49 18 49 -5 0 -28 -10 -50 -21 -51 -27
-120 -35 -149 -19 -64 34 -80 191 -36 345 14 48 24 88 23 90 -20 12 -113 23
-134 15 -85 -33 -92 38 -28 275 13 50 24 93 24 97 0 4 -42 -22 -94 -58 -52
-35 -101 -64 -109 -64 -17 0 -47 98 -47 151 1 70 14 109 98 283 3 5 -34 -12
-82 -38 -48 -26 -89 -46 -92 -43 -2 2 5 33 16 68 11 35 20 67 20 72 0 21 -25
0 -70 -59 -27 -37 -50 -64 -50 -61 0 3 23 44 50 92 28 48 50 93 50 100 0 10
-24 2 -82 -25 -45 -22 -82 -39 -84 -37 -1 1 2 27 7 57 4 30 8 69 8 86 l1 32
-70 4 c-56 3 -74 8 -96 28 -47 44 -57 83 -63 244 -4 99 -10 151 -18 153 -6 2
-24 -35 -43 -94 -18 -54 -36 -102 -40 -106 -11 -12 -60 50 -88 112 -27 59 -33
144 -18 276 l8 70 -68 -98 c-78 -112 -75 -113 -89 27 -5 59 -10 76 -20 72 -8
-3 -30 -8 -49 -12 l-36 -6 11 31 c6 18 10 34 8 36 -2 2 -26 -6 -52 -17 -26
-11 -50 -18 -53 -15 -4 4 13 84 33 151 4 15 -1 14 -42 -10 -131 -76 -215 -1
-215 193 0 40 -3 73 -7 73 -3 0 -21 -11 -39 -25 -34 -26 -54 -74 -54 -128 l0
-28 -59 40 c-77 53 -136 121 -161 187 -24 65 -26 182 -6 287 7 37 11 67 9 67
-2 0 -22 -9 -44 -20 -63 -33 -81 -70 -77 -163 l3 -78 -25 6 c-14 3 -33 8 -42
11 -23 7 -23 -8 3 -58 l21 -41 -43 34 c-24 19 -84 67 -134 106 -49 40 -94 73
-101 73 -7 0 15 83 57 213 38 116 69 217 69 222 -1 21 -52 -50 -120 -164 -38
-65 -83 -131 -100 -145 -36 -30 -89 -34 -130 -11 -17 10 -58 14 -131 15 l-106
0 -6 148 c-3 95 -11 166 -22 200 -16 53 -77 133 -90 120 -4 -3 3 -83 15 -177
12 -94 20 -179 18 -189 -3 -17 -19 -13 -173 44 l-170 62 -5 53 c-6 63 -26 76
-36 22 -3 -21 -10 -44 -13 -51 -4 -7 -51 73 -111 190 l-105 203 -3 -153 c-2
-140 -4 -153 -20 -148 -9 3 -144 44 -299 92 l-283 88 0 77 c0 101 -22 214 -55
279 -14 29 -29 50 -31 47 -3 -3 -1 -71 5 -150 6 -80 11 -153 11 -163 0 -15
-10 -16 -102 -11 -271 18 -382 109 -397 327 l-6 85 -54 -145 c-30 -80 -57
-148 -61 -153 -3 -4 -68 27 -142 68 -75 41 -141 75 -147 75 -5 0 -22 -16 -37
-35 -15 -20 -30 -33 -33 -30 -3 4 -26 79 -51 168 -43 153 -47 162 -70 162 -24
0 -25 -3 -36 -115 -7 -63 -12 -121 -13 -127 -1 -10 -46 -13 -192 -13 l-192 0
7 143 c3 78 9 202 13 275 l6 132 -37 0 -36 0 0 -68z m-7947 -7063 c21 -10 64
-66 55 -73 -1 -1 -39 9 -83 22 l-80 25 40 18 c48 22 39 21 68 8z m555 -933
c15 -8 38 -26 52 -41 l25 -28 -30 6 c-16 3 -76 13 -132 23 -57 10 -103 21
-103 24 0 26 146 38 188 16z m12421 -441 c-6 -6 -223 -84 -226 -81 -1 1 48 25
110 53 62 28 114 47 116 41 1 -5 1 -11 0 -13z m-10391 -922 c15 -3 22 -13 22
-29 0 -13 -2 -24 -4 -24 -2 0 -37 16 -78 36 l-73 36 55 -7 c30 -3 65 -9 78
-12z m-1507 -427 c-6 -14 -15 -26 -21 -26 -6 0 -4 13 5 31 19 36 30 33 16 -5z
m8619 -146 c0 -6 -23 -9 -52 -9 -45 1 -49 2 -23 9 44 11 75 11 75 0z m-5687
-148 c40 -37 67 -94 74 -154 l6 -51 -39 6 c-21 4 -54 9 -71 13 -40 8 -42 -3
-13 -94 25 -80 25 -82 -3 -82 -24 0 -26 4 -73 128 -37 97 -29 208 19 253 27
25 60 19 100 -19z m5698 5 c40 -26 69 -79 69 -125 0 -46 -50 -192 -66 -192
-14 0 -18 15 -39 170 -8 63 -17 127 -20 143 -6 34 10 35 56 4z m-4302 -46 c21
-6 19 -10 -33 -44 -31 -20 -58 -37 -61 -37 -3 0 -5 23 -5 50 l0 51 38 -7 c20
-4 48 -10 61 -13z m-1687 -479 c6 2 26 56 43 119 18 64 34 122 37 129 8 26 58
-75 74 -150 22 -108 5 -201 -63 -331 -67 -130 -232 -277 -368 -328 -31 -12
-59 -21 -64 -21 -10 0 110 464 149 575 37 103 86 205 138 287 l37 57 3 -170
c2 -124 6 -169 14 -167z m1592 211 c-38 -54 -86 -124 -108 -155 -22 -32 -41
-56 -43 -54 -7 7 59 141 98 196 32 46 100 110 117 110 2 0 -27 -44 -64 -97z
m4636 -40 c67 -137 94 -210 114 -306 18 -86 22 -287 6 -287 -26 0 -88 34 -123
68 -54 51 -85 117 -118 250 -39 154 -39 154 21 192 28 18 49 34 48 35 -2 2
-25 -1 -53 -5 -103 -18 -102 -19 -29 75 37 47 70 85 74 85 4 0 31 -48 60 -107z
m-5196 8 c-5 -5 -37 -23 -71 -42 -52 -28 -65 -31 -75 -20 -9 9 -9 15 -2 17 6
3 42 19 80 38 38 18 71 29 73 24 2 -6 -1 -13 -5 -17z m1820 -196 l7 -140 -36
50 c-54 73 -75 123 -75 182 0 48 3 56 42 95 l42 43 7 -45 c3 -25 10 -108 13
-185z m792 210 c6 -14 -22 -113 -36 -128 -3 -4 -11 26 -16 68 l-10 75 28 0
c16 0 31 -7 34 -15z m40 -252 c3 -16 23 -84 42 -153 30 -104 36 -141 37 -222
0 -136 -11 -140 -68 -21 -25 54 -53 121 -62 148 -22 65 -40 212 -32 248 6 23
13 27 42 27 30 0 36 -4 41 -27z m-5911 -303 c4 -6 -4 -19 -17 -30 -33 -28 -40
-24 -20 10 18 32 27 36 37 20z m5953 -230 l71 -125 -11 -138 c-10 -121 -9
-144 5 -191 29 -92 21 -150 -45 -307 -43 -101 -62 -120 -72 -71 -9 46 -45 310
-61 447 -22 194 -17 437 11 528 6 18 6 18 18 0 7 -10 45 -74 84 -143z m-2788
-132 c0 -17 -47 -118 -55 -118 -4 0 -4 12 -1 28 2 15 7 44 11 65 4 28 11 37
25 37 11 0 20 -6 20 -12z m6500 -68 c0 -11 -2 -20 -3 -20 -2 0 -12 9 -22 20
-18 19 -17 20 3 20 15 0 22 -6 22 -20z m415 -92 c20 -17 44 -47 55 -67 23 -46
38 -135 21 -130 -15 5 -133 229 -121 229 5 0 25 -14 45 -32z m-7025 -23 c0 -7
-73 -55 -84 -55 -6 0 10 13 34 29 50 33 50 33 50 26z m-70 -139 c0 -2 -11 -11
-25 -20 -21 -14 -25 -14 -25 -2 0 8 8 17 18 19 25 7 32 7 32 3z m-120 -173
c-58 -65 -132 -122 -219 -167 -94 -48 -211 -98 -211 -89 0 18 71 133 106 172
38 42 159 120 169 109 3 -2 -9 -33 -26 -68 -16 -35 -28 -67 -27 -71 2 -4 53
28 113 71 61 44 114 79 119 80 4 0 -6 -17 -24 -37z m3235 0 c-45 -69 -48 -71
-40 -28 9 50 12 55 37 55 20 0 20 -1 3 -27z m12 -140 c-23 -44 -171 -283 -175
-283 -2 0 -2 21 2 46 12 92 67 179 141 225 33 21 38 23 32 12z m97 -290 c-14
-63 -57 -137 -111 -194 -32 -34 -66 -65 -76 -71 -17 -9 -18 -7 -12 24 14 65
67 153 127 210 33 32 64 58 69 58 5 0 7 -12 3 -27z m123 -435 c-4 -13 -9 -42
-13 -65 -4 -27 -12 -43 -20 -43 -10 0 -14 17 -14 65 0 63 1 65 26 65 22 0 25
-3 21 -22z"/>
<path d="M4550 3160 c0 -12 49 -12 105 -1 36 8 33 9 -32 10 -43 1 -73 -3 -73
-9z"/>
<path d="M8517 2466 c-4 -15 -6 -31 -2 -34 10 -10 16 6 13 35 l-3 28 -8 -29z"/>
<path d="M3790 13384 c0 -14 4 -23 9 -20 5 3 7 15 4 26 -7 28 -13 25 -13 -6z"/>
<path d="M11514 13288 c16 -73 36 -75 36 -4 0 52 -2 56 -24 56 -24 0 -24 -1
-12 -52z"/>
<path d="M12890 12683 c0 -18 5 -33 10 -33 13 0 13 30 0 50 -7 11 -10 7 -10
-17z"/>
<path d="M12510 12690 c-39 -6 -33 -7 38 -8 49 -1 82 2 82 8 0 11 -50 11 -120
0z"/>
<path d="M13483 12295 c3 -11 11 -41 18 -67 6 -27 17 -48 24 -48 10 0 7 17
-12 63 -25 62 -40 89 -30 52z"/>
<path d="M13970 11754 c0 -27 14 -25 30 7 9 16 7 19 -10 19 -15 0 -20 -7 -20
-26z"/>
<path d="M14416 11254 c-9 -22 -8 -24 9 -24 8 0 15 6 15 14 0 22 -17 28 -24
10z"/>
<path d="M15127 8240 c-3 -11 -1 -23 4 -26 5 -3 9 6 9 20 0 31 -6 34 -13 6z"/>
<path d="M0 5240 c0 -5 15 -10 33 -9 27 0 29 2 12 9 -28 12 -45 12 -45 0z"/>
<path d="M14942 5180 c-7 -19 -6 -26 5 -28 22 -5 27 5 16 30 l-11 23 -10 -25z"/>
<path d="M1549 4273 c-13 -16 -12 -17 4 -4 9 7 17 15 17 17 0 8 -8 3 -21 -13z"/>
<path d="M1448 4204 c-43 -30 -78 -59 -78 -65 0 -13 12 -6 93 59 58 47 75 63
65 62 -2 0 -38 -25 -80 -56z"/>
<path d="M13116 3274 c-9 -23 -8 -24 14 -24 11 0 20 2 20 4 0 12 -13 36 -20
36 -4 0 -11 -7 -14 -16z"/>
<path d="M3619 2806 c-80 -61 -159 -122 -175 -134 l-29 -23 40 16 c122 48 245
142 313 237 25 34 -3 16 -149 -96z"/>
<path d="M11290 2782 c0 -5 16 -13 35 -19 43 -14 45 -9 5 12 -33 17 -40 18
-40 7z"/>
<path d="M3645 2613 c-69 -16 -95 -25 -95 -33 0 -15 19 -11 85 15 55 22 59 29
10 18z"/>
<path d="M3164 2445 c-12 -30 2 -35 25 -11 l24 26 -22 0 c-12 0 -24 -7 -27
-15z"/>
<path d="M11586 2405 c-8 -22 -3 -28 19 -23 14 3 14 5 2 22 -13 18 -14 18 -21
1z"/>
<path d="M6010 1670 c0 -20 5 -30 14 -30 12 0 13 6 5 30 -6 17 -13 30 -15 30
-2 0 -4 -13 -4 -30z"/>
<path d="M9092 198 c-9 -9 -4 -17 20 -35 18 -13 33 -23 35 -23 1 0 -7 16 -18
35 -24 40 -21 39 -37 23z"/>
</g>
</svg>
