<?xml version="1.0" encoding="UTF-8" standalone="no"?>
<!-- Created with Inkscape (http://www.inkscape.org/) -->

<svg
   xmlns:svg="http://www.w3.org/2000/svg"
   xmlns="http://www.w3.org/2000/svg"
   version="1.1"
   width="210mm"
   height="297mm"
   viewBox="0 0 210 297"
   id="svg8">
  <defs
     id="defs2" />
  <g
     id="layer1">
    <path
       d="m 67.560027,138.35294 c 0,0 -1.202799,-0.20045 -1.3698,-0.36748 -0.167,-0.16706 -3.8754,-4.97789 -4.1594,-5.31198 -0.2839,-0.33409 -2.121399,-1.26953 -2.4388,-1.21942 -0.3174,0.0501 -1.3029,0.48443 -1.5535,0.60135 -0.2506,0.11695 -0.6348,0.28398 -1.1192,0.60137 -0.4844,0.31737 -0.8853,0.61804 -1.2361,0.91874 -0.3508,0.30067 -0.6181,0.60134 -0.7851,0.85191 -0.1671,0.25056 -0.4009,0.45103 -0.4677,0.66817 -0.067,0.21717 -0.034,0.45101 -0.117,0.50112 -0.083,0.0501 -1.2027,0.55126 -1.2027,0.55126 0,0 -3.116,2.31175 -3.2105,2.52437 -0.094,0.21259 -2.2206,2.50407 -2.6458,2.95293 -0.4253,0.44884 -0.850499,0.59058 -1.2757,1.29929 -0.4252,0.70871 -0.7087,1.32292 -0.614199,1.51191 0.094,0.18899 -1.086701,2.14974 -1.275701,2.40959 -0.189,0.25987 -0.6614,1.46465 -0.8032,1.77175 -0.1417,0.30713 -0.1181,-0.0235 -0.4961,1.18118 -0.3779,1.20481 -0.5197,1.34655 -0.2835,1.65365 0.2363,0.3071 0.071,0.42524 0.4489,0.18899 0.378,-0.23622 0.6378,-1.18118 0.8741,-1.60639 0.2362,-0.42524 1.1811,-1.79538 1.3938,-2.36236 0.2126,-0.56695 0.7087,-1.20481 0.8268,-1.4174 0.1181,-0.21262 0.4252,-0.14174 0.7323,-0.16536 0.3071,-0.0236 0.378,-0.189 0.779601,-0.51972 0.401599,-0.33073 2.574899,-2.24425 2.858399,-2.59858 0.2835,-0.35436 0.5197,-0.68509 0.850501,-0.92134 0.330699,-0.23622 0.496099,-0.33072 0.496099,-0.33072 0,0 -0.212599,0.25987 -0.1182,0.85045 0.095,0.59057 -0.047,0.6142 0.212701,0.96856 0.2598,0.35435 0.307099,0.16536 0.330699,0.49609 0.024,0.33073 0.4016,1.58279 0.4488,1.84264 0.047,0.25984 0.5434,3.82701 0.5906,4.11048 0.047,0.28348 0.2126,1.01582 0.5434,1.53554 0.3307,0.51972 0.6142,0.92131 0.9921,1.4174 0.378,0.49609 0.6379,0.87408 0.8269,0.99219 0.189,0.11813 0.5197,0.0473 0.5197,-0.0945 0,-0.14173 -0.1181,-0.56696 -0.2835,-1.08669 -0.1654,-0.5197 -1.3229,-4.25223 -1.3465,-4.46484 -0.024,-0.21259 -0.047,-1.55914 -0.1418,-2.19697 -0.094,-0.63783 -0.094,-0.8032 -0.189,-1.32292 -0.094,-0.51971 -0.1181,-0.82682 0.071,-0.99219 0.189,-0.16536 0.4016,0.0945 0.8032,-0.44886 0.4016,-0.54333 0.5197,-0.70869 0.9213,-1.53551 0.4016,-0.82683 1.2521,-2.197 1.2521,-2.197 0,0 1.2048,0.77957 1.5355,0.99219 0.3307,0.21262 0.6142,0.44884 0.945,0.6142 0.3307,0.16537 1.819,0.42524 1.819,0.42524 0,0 0.4488,0.18899 0.9449,0.40159 0.496101,0.21262 0.9686,0.33073 1.370201,0.44886 0.401499,0.11811 0.850399,0.23622 1.157499,0.0236 0.307101,-0.21259 0.5433,-0.42521 0.5433,-0.42521 0,0 1.1576,0.23625 1.535601,0.21262 0.377999,-0.0236 1.015799,-0.0236 1.133899,-0.0236 0.1181,0 1.110302,-0.37798 1.110302,-0.37798 0,0 0.342598,0.17719 0.543298,0.20079 0.2008,0.0236 0.6497,0.12994 0.756002,-0.0354 0.106299,-0.16536 0.566999,-0.41341 0.566999,-0.41341 0,0 0.566899,0.17719 0.732301,0.12994 0.165399,-0.0473 1.015798,-0.1772 1.015798,-0.1772 l -0.088,0.40468 c 0,0 0.117001,0.53454 0.2506,0.66816 0.133602,0.13364 1.486702,1.23613 1.486702,1.23613 0,0 1.704898,1.71887 1.9294,1.99051 0.224398,0.27168 0.436999,0.4961 0.578699,0.60241 0.141801,0.10632 0.673298,0.30711 0.673298,0.30711 0,0 0.024,0.27166 0.153602,0.42523 0.1299,0.15354 1.9436,1.76956 2.277599,2.00342 0.3341,0.23387 1.319699,0.85194 1.5703,0.98558 0.250502,0.13361 0.467701,0.31736 0.735002,0.4009 0.2672,0.0835 0.567899,0.35079 0.651398,0.0334 0.083,-0.3174 0.2506,-0.33409 0.033,-0.56796 -0.217101,-0.23386 -2.572401,-2.33862 -2.973401,-2.7061 -0.400899,-0.36751 -0.651401,-0.51784 -0.785101,-0.73499 -0.133598,-0.21717 -0.333999,-0.50114 -0.417499,-0.58465 -0.084,-0.0835 -0.618101,-0.3007 -0.618101,-0.3007 l -0.200497,-0.71827 c 0,0 -1.553501,-1.26955 -1.904301,-1.72056 -0.350801,-0.45101 -1.553498,-1.72056 -1.6036,-1.78737 -0.05,-0.0668 0.046,-0.6102 0.046,-0.6102 0,0 0.968599,0.11811 1.063,0.11811 0.095,0 1.0395,-0.189 1.275699,-0.25985 0.2363,-0.0709 1.275699,-0.18899 1.511901,-0.33073 0.236299,-0.14174 0.9213,-0.28348 1.1103,-0.37798 0.189,-0.0945 0.330801,-0.14174 0.330801,-0.14174 0,0 0.968499,0.8977 1.1811,1.20481 0.212598,0.3071 3.945199,3.16555 4.417599,3.47265 0.472499,0.3071 1.370201,1.01582 1.842699,1.37015 0.4724,0.35435 0.4724,0.54334 0.968502,0.70871 0.496099,0.16536 1.063098,0.11811 1.181198,-0.0473 0.118102,-0.16536 0.354401,-0.80319 0,-1.18115 -0.354298,-0.37798 -0.944899,-1.27569 -1.181198,-1.7009 -0.236202,-0.42524 -0.425201,-0.75597 -0.4724,-1.1103 -0.047,-0.35435 -0.307102,-0.56697 0.212598,-0.66145 0.519699,-0.0945 0.614201,-0.0236 0.8504,-0.21262 0.236302,-0.189 0.6615,-0.16537 0.6615,-0.16537 0,0 0.307102,0.75594 0.5197,0.99219 0.212601,0.23622 0.496102,0.70871 0.732301,1.15755 0.236201,0.44884 0.543401,0.94493 0.5198,1.39377 -0.024,0.44887 -0.024,0.66146 -0.141801,1.18118 -0.118099,0.51972 -0.118099,0.70872 -0.118099,0.70872 0,0 0.4016,-0.189 0.448799,-0.28348 0.047,-0.0945 0.496102,-1.01581 0.567,-1.27569 0.071,-0.25984 0.071,-0.89768 0.1417,-1.34652 0.071,-0.44886 0.095,-1.41742 -0.024,-1.77178 -0.118099,-0.35435 -0.614198,-1.63002 -0.708699,-1.86624 -0.094,-0.23624 -0.921301,-1.44105 -0.921301,-1.44105 0,0 -0.947798,-1.6996 -1.031298,-1.81655 -0.083,-0.11692 -0.183801,-0.86863 -0.183801,-0.86863 0,0 0.751801,0.13365 0.8353,0.0501 0.083,-0.0835 0.283901,-0.36748 0.367501,-0.4176 0.084,-0.0501 0.4009,-0.0668 0.517801,-0.0334 0.116898,0.0334 0.5847,-0.18376 0.5847,-0.18376 0,0 -0.3341,0.16706 0.333999,0.25056 0.6682,0.0835 1.119198,0.10023 1.119198,0.10023 l 0.902002,-0.25056 c 0,0 0.034,0.16706 0.034,0.41762 0,0.25056 -0.05,0.63476 0.150302,0.90204 0.200398,0.26726 0.684897,0.81849 0.801798,1.00224 0.116901,0.18376 0.6515,0 0.183801,0.41762 -0.467799,0.41762 -1.186,1.01896 -1.3364,1.1693 -0.150302,0.15034 -0.551201,0.50112 -0.651499,0.58465 -0.100201,0.0835 -0.350801,0.18375 -0.384101,0.33409 -0.034,0.15034 -0.084,0.35078 0.083,0.41762 0.166999,0.0668 0.801798,-0.0167 1.002199,-0.0668 0.200501,-0.0501 0.801801,-0.20044 1.286301,-0.50112 0.484399,-0.30067 1.085699,-0.98554 1.169299,-1.10249 0.083,-0.11692 0.428901,-0.62955 0.428901,-0.7004 0,-0.0709 -0.200901,-0.34256 -0.200901,-0.34256 0,0 0.354401,0.0236 0.401701,-0.0709 0.047,-0.0945 0.083,-0.18899 0.083,-0.44886 0,-0.25985 -0.035,-1.19298 -0.035,-1.45283 0,-0.25987 -0.083,-1.11032 -0.083,-1.11032 l 0.1299,-0.18899 c 0,0 0.3898,-0.18897 0.531598,-0.27165 0.1417,-0.0827 0.7323,-0.34256 0.7323,-0.34256 l 2.238203,-1.25158 c 0,0 1.7873,-1.08577 1.8541,-1.1693 0.067,-0.0835 0.3675,-0.33409 0.3675,-0.33409 l 0.2005,0.96885 c 0,0 -0.2172,0.55126 -0.3341,0.73501 -0.1169,0.18373 -0.3842,0.53454 -0.5011,0.76838 -0.1169,0.23386 -0.3508,0.60137 -0.4176,0.91874 -0.067,0.31739 -0.083,0.78512 -0.083,1.01896 0,0.23387 -0.1348,0.86093 -0.088,1.52239 0.047,0.66146 0.2126,1.84263 0.2363,2.17336 0.024,0.33073 -0.8032,2.55135 -0.8977,2.90571 -0.094,0.35436 -0.6851,1.79538 -0.8032,2.07886 -0.1182,0.28347 -0.448901,0.80319 -0.472502,0.99219 -0.024,0.18899 0.401602,0.54334 0.401602,0.54334 0,0 1.9371,-1.84263 2.0552,-2.03163 0.1182,-0.18899 2.008,-3.2364 2.008,-3.2364 0,0 0.6379,-0.59061 0.8269,-0.82683 0.1889,-0.23624 0.4724,-0.80319 0.5906,-1.06307 0.1181,-0.25984 0.4252,-0.66146 0.4724,-0.75594 0.047,-0.0945 0.2599,0.23622 0.2126,0.51972 -0.047,0.28348 -0.047,0.44884 -0.071,0.70869 -0.024,0.25987 0.1417,0.35436 0.2834,0.16536 0.1418,-0.18899 0.3071,-0.33073 0.3544,-0.68508 0.047,-0.35433 0.3307,-2.26785 0.3307,-2.48047 0,-0.21259 -0.071,-1.13393 -0.1181,-1.4174 -0.047,-0.28347 0.047,-0.49609 -0.071,-0.96856 -0.1181,-0.47247 -0.2598,-0.6142 -0.2598,-0.96856 0,-0.35436 -0.071,-1.34654 -0.071,-1.34654 0,0 1.01579,1.60639 1.4174,1.96074 0.4016,0.35436 1.3938,0.99219 1.7954,1.29929 0.40159,0.3071 0.5434,0.54335 1.0867,0.82683 0.5433,0.28347 0.8268,0.47246 1.1339,0.56697 0.3071,0.0945 0.3544,0.14174 0.7087,0.14174 0.3544,0 0.4961,-0.0236 0.4961,-0.0236 0,0 0,0.68509 -0.024,0.96856 -0.024,0.28348 -0.1418,0.63783 0.024,1.29929 0.1654,0.66146 -0.2835,2.57498 -0.3071,2.78757 -0.024,0.21262 -0.1654,0.61423 -0.189,0.94496 -0.024,0.33073 -0.1653,0.42521 0.047,0.49609 0.2126,0.0709 0.4016,0.0709 0.5905,-0.35435 0.189,-0.42524 0.9922,-2.43322 1.0631,-2.71672 0.071,-0.28347 0.1418,-0.6142 0.1418,-1.06304 0,-0.44887 0.1889,-1.41743 0.1653,-1.65365 -0.024,-0.23624 -0.1417,-0.61423 -0.1417,-0.82682 0,-0.21262 0.047,-0.54335 -0.1418,-0.68508 -0.1889,-0.14174 -0.3543,-0.23625 -0.3543,-0.23625 0,0 0.047,-0.21259 0.047,-0.56695 0,-0.35436 0.024,-0.42524 -0.189,-0.70871 -0.2126,-0.28348 -1.441,-1.51191 -1.9607,-1.93712 -0.5197,-0.42524 -2.5041,-2.12612 -2.6931,-2.29148 -0.189,-0.16537 -0.095,-0.37798 -0.8977,-0.85045 -0.8032,-0.47247 -1.0158,-0.5906 -1.0158,-0.5906 l -0.8032,-0.0945 c 0,0 -0.5906,-0.68508 -0.6615,-0.87407 -0.071,-0.189 -2.1024,-2.17337 -2.1024,-2.17337 0,0 -0.3544,-0.35436 -0.6615,-0.35436 -0.3071,0 -1.252,0.0709 -1.252,0.0709 0,0 0.7795,-0.33072 0.5433,-0.49609 -0.2362,-0.16536 -0.8032,-0.33073 -1.0158,-0.35436 -0.2126,-0.0235 -1.771804,0.33073 -1.771804,0.33073 0,0 -0.685098,0.4961 -0.992198,0.56698 -0.307102,0.0709 -0.897702,0.37796 -1.1812,0.63783 -0.283401,0.25985 -0.803101,0.49609 -1.133901,0.94493 -0.3307,0.44884 -0.566899,1.0867 -0.7087,1.32292 -0.1417,0.23625 -0.283498,-0.0473 -0.283498,-0.0473 l -0.283401,-1.1103 c 0,0 0.283401,-1.96075 0.354298,-2.17337 0.071,-0.21259 0.259901,-0.77957 0.307102,-1.01581 0.047,-0.23622 0.189,-0.44884 0.212598,-0.8032 0.024,-0.35436 -0.047,-1.1103 -0.047,-1.1103 0,0 0.1181,0.40161 0.2598,0.75594 0.141798,0.35436 0.755999,1.27569 1.086699,1.60642 0.330801,0.33073 1.181201,1.58277 1.181201,1.58277 l 2.693094,-1.1103 c 0,0 -0.54339,-1.1103 -0.66149,-1.29929 -0.11811,-0.18899 -1.937105,-1.86627 -2.149703,-1.98438 C 98.209631,121.498 97.14653,121.0019 97.14653,121.0019 l -0.9686,-0.21259 -0.5906,0.14174 -0.5196,-0.23625 c 0,0 -0.354399,0.0709 -0.6615,0.11814 -0.3071,0.0472 -1.015799,0.18896 -1.015799,0.18896 0,0 -0.661501,0.4725 -0.803201,0.68509 -0.141798,0.21262 -0.9686,1.32292 -0.9686,1.32292 0,0 -0.165399,-1.39378 -0.283499,-1.65365 -0.118102,-0.25985 -0.307101,-0.89768 -0.425201,-1.13392 -0.118099,-0.23622 -0.566999,-0.4961 -0.566999,-0.4961 0,0 -0.6614,-0.23622 -0.755902,-0.23622 -0.094,0 -1.252098,0.0236 -1.252098,0.0236 0,0 -0.046,-0.18696 0,-0.3206 0.05,-0.13361 0.200499,-0.23386 0.2339,-0.31736 0.033,-0.0835 0.1002,-0.20045 0.05,-0.43432 -0.05,-0.23386 -0.183701,-0.70159 -0.284001,-0.88535 -0.100201,-0.18372 -0.200401,-0.36748 -0.367501,-0.53453 -0.167,-0.16704 -0.517801,-0.38421 -0.6681,-0.38421 -0.1504,0 -0.6014,0.0668 -0.734999,0.18376 -0.133702,0.11694 -0.267301,0.31739 -0.300702,0.48442 -0.033,0.16706 -0.083,0.26729 -0.083,0.60138 0,0.33408 0.01701,0.55123 0.05,0.73498 0.033,0.18375 0.1503,0.41762 -0.05,0.68487 -0.200499,0.26729 -0.367499,0.45101 -0.367499,0.45101 l -0.384201,-0.0668 -0.467799,0.10022 c 0,0 -0.300602,-0.23386 -0.634701,-0.25056 -0.3341,-0.0167 -1.186001,0.0668 -1.6036,0.16703 -0.4176,0.10023 -0.684901,0.21717 -0.9188,0.3007 -0.233799,0.0835 -0.6515,0.13362 -0.851901,0.21714 -0.200398,0.0835 -0.651499,-0.0668 -0.651499,-0.0668 l -0.317399,0.0501 c 0,0 -0.2505,-0.21717 -0.2672,-0.45104 -0.01699,-0.23384 -0.083,-0.30067 -0.2339,-0.55123 -0.150302,-0.25056 -0.217101,-0.4009 -0.400902,-0.50112 -0.183698,-0.10022 -0.617998,-0.18375 -0.684898,-0.18375 -0.067,0 -0.3508,0.0334 -0.484402,0.20045 -0.133598,0.16703 -0.3508,0.40089 -0.384198,0.58464 -0.033,0.18376 -0.05,0.45101 -0.01701,0.68488 0.034,0.23386 0.100298,0.65148 0.100298,0.65148 0,0 -0.517898,-0.13364 -1.0858,0.10023 -0.567999,0.23386 -0.6014,0.33409 -1.169299,0.56792 -0.568,0.23387 -1.223,0.87554 -1.411999,0.87554 -0.189,0 -1.015802,0.21262 -1.511901,0.33073 -0.496099,0.11811 -2.480501,0.66145 -2.834799,1.08669 -0.354401,0.42522 -1.582801,1.37015 -1.913501,1.7245 -0.3307,0.35436 -0.8977,0.92134 -1.0867,1.22844 -0.189,0.3071 -0.3543,1.55914 -0.3543,1.55914 0,0 0.1417,2.76396 0.3071,3.54353 0.1653,0.77957 0.189,0.54335 0.3543,0.92131 0.1654,0.37798 0.1654,0.5906 0.1654,0.80319 0,0.21262 -0.189,0.25988 -0.1654,0.59061 0.024,0.33073 0.2362,0.75594 0.2362,0.75594 0,0 -0.1181,0.16536 -0.1889,0.77959 -0.071,0.61421 -0.189,1.15756 0,1.46466 0.1889,0.3071 0.4016,0.68508 0.4961,0.9213 0.094,0.23625 0.1074,0.43657 0.1074,0.43657 z"
       id="path4313"
       style="fill:#000000;stroke:#000000;stroke-width:0.26458299px;stroke-linecap:butt;stroke-linejoin:miter;stroke-opacity:1" />
  </g>
</svg>
