<?xml version="1.0" standalone="no"?>
<!DOCTYPE svg PUBLIC "-//W3C//DTD SVG 20010904//EN"
 "http://www.w3.org/TR/2001/REC-SVG-20010904/DTD/svg10.dtd">
<svg version="1.0" xmlns="http://www.w3.org/2000/svg"
 width="420.000000pt" height="449.000000pt" viewBox="0 0 420.000000 449.000000"
 preserveAspectRatio="xMidYMid meet">
<metadata>
Created by potrace 1.16, written by Peter Selinger 2001-2019
</metadata>
<g transform="translate(0.000000,449.000000) scale(0.100000,-0.100000)"
fill="#000000" stroke="none">
<path d="M2515 4483 c-162 -21 -356 -79 -630 -188 -115 -46 -268 -101 -340
-120 -399 -112 -555 -182 -761 -341 -218 -169 -452 -481 -645 -858 -92 -179
-92 -178 -1 -190 26 -4 63 -9 83 -12 l37 -5 -72 -108 c-103 -153 -186 -352
-186 -444 0 -42 24 -81 65 -103 l36 -19 61 33 c33 18 61 32 62 30 13 -22 26
-65 26 -87 0 -51 -27 -120 -58 -146 -45 -38 -86 -177 -79 -270 7 -92 36 -205
52 -205 7 0 25 14 38 30 14 17 28 27 31 22 2 -4 9 -111 15 -237 13 -267 27
-378 50 -406 16 -20 18 -20 78 -5 135 35 125 50 203 -319 26 -126 53 -242 59
-258 15 -38 51 -53 90 -37 46 18 60 41 80 123 22 93 38 119 96 153 57 33 88
34 122 3 14 -13 93 -125 175 -249 222 -333 220 -332 232 -139 5 84 27 164 61
215 13 20 24 24 63 24 45 0 109 -24 142 -52 9 -7 50 -54 92 -104 120 -143 190
-194 263 -194 34 0 35 2 35 36 0 19 -5 67 -11 106 -10 64 -9 73 8 96 25 33 80
62 120 62 35 0 157 -59 217 -105 21 -16 60 -62 87 -102 38 -55 55 -73 73 -73
28 0 60 33 81 83 14 35 14 46 -5 158 -19 110 -19 123 -6 145 39 58 135 38 377
-77 93 -44 177 -79 187 -77 33 6 38 70 12 156 -44 147 -46 160 -25 197 26 50
64 59 209 51 67 -4 148 -13 181 -21 81 -19 131 -19 139 1 19 49 -6 157 -43
184 -52 39 -53 42 -48 77 11 65 26 76 158 117 196 61 289 110 289 153 0 9 -27
42 -60 74 -54 51 -60 62 -60 98 0 36 4 43 42 68 78 52 200 229 185 267 -3 8
-23 18 -44 21 -98 16 -104 33 -72 193 22 106 28 121 67 168 43 53 52 81 30 89
-7 2 -44 7 -83 10 -65 7 -73 10 -110 49 -22 23 -56 72 -75 108 -34 66 -34 67
-22 128 10 47 10 65 1 76 -19 23 -62 16 -107 -17 -50 -36 -75 -34 -124 10 -29
26 -32 34 -30 80 2 46 0 52 -22 61 -26 9 -117 -8 -193 -37 -58 -21 -73 -13
-73 40 0 74 44 97 98 52 16 -14 40 -29 53 -33 31 -12 132 8 193 37 89 44 223
186 266 284 42 96 48 307 14 482 -40 209 -150 411 -314 576 -135 136 -257 201
-580 309 -275 92 -426 120 -555 103z"/>
</g>
</svg>
