<?xml version="1.0" encoding="UTF-8" standalone="no"?>
<!-- Created with Inkscape (http://www.inkscape.org/) -->

<svg
   xmlns:svg="http://www.w3.org/2000/svg"
   xmlns="http://www.w3.org/2000/svg"
   version="1.1"
   width="386.104"
   height="182.37399"
   viewBox="0.206 13.69 386.104 182.374"
   id="Layer_1"
   xml:space="preserve"><defs
   id="defs6" />
<path
   d="m 32.614,38.382 c 0.637,-0.195 1.274,-0.39 1.912,-0.585 0.155,1.82 1.285,1.464 2.498,1.328 7.066,-0.79 11.462,-2.423 18.091,-2.395 6.518,0.029 13.367,1.268 19.552,2.389 6.406,1.162 12.791,3.532 18.596,2.68 4.791,-0.703 8.764,-3.655 14.052,-5.342 4.568,-1.456 10.294,-2.071 14.637,-3.43 15.296,-4.785 26.267,-12.705 44.069,-16.609 12.873,-2.825 29.148,-3.088 42.131,-2.424 11.64,0.594 24.947,3.269 37.192,5.359 4.034,0.688 8.224,1.635 12.274,2.521 16.201,3.549 29.23,11.535 43.781,20.077 6.877,4.035 14.244,7.244 22.186,10.994 0.938,0.443 1.833,1.974 2.789,2.284 1.83,0.593 3.65,-0.029 5.658,1.407 0.627,0.447 1.115,2.175 1.834,2.576 7.666,4.275 14.506,7.479 20.562,12.536 11.139,9.296 20.245,21.249 27.58,35.487 0.976,3.188 1.949,6.376 2.925,9.562 -0.318,0.098 -0.639,0.195 -0.956,0.293 1.498,4.289 0.887,9.005 1.225,14.266 0.477,7.445 1.931,12.516 0.479,18.676 -0.829,3.526 -3.874,8.408 -5.682,12.193 -2.277,4.764 -3.914,8.397 -6.934,11.531 -5.654,5.869 -13.768,9.34 -22.816,14.295 -4.144,1.269 -8.288,2.534 -12.432,3.801 -8.909,0.725 -18.593,2.18 -27.867,1.2 -6.097,-0.644 -12.703,-1.748 -21.173,-0.847 -2.412,0.257 -5.094,1.091 -7.942,1.383 -4.047,0.413 -8.746,-0.185 -14.93,2.473 -1.769,-3.043 2.851,-2.522 4.196,-3.374 2.935,-1.852 5.6,-4.539 11.848,-5.714 2.267,-0.425 4.518,0.392 7.279,-0.134 3.351,-0.637 6.646,-2.707 9.562,-2.924 4.261,-0.316 9.396,2.241 14.188,1.938 6.946,-0.441 13.641,-4.878 19.339,-1.729 3.645,-4.351 9.339,-4.014 13.761,-6.298 1.677,-0.866 2.615,-2.276 4.197,-3.375 1.683,-1.169 4.125,-1.624 5.443,-2.71 0.417,-0.343 1.822,-2.999 2.948,-4.038 1.521,-1.405 3.26,-2.246 4.197,-3.375 3.477,-4.188 4.825,-9.474 8.552,-13.071 -0.455,-11.985 1.48,-21.451 -4.788,-36.182 -4.375,-10.283 -12.865,-19.471 -20.539,-26.138 -11.206,-9.735 -26.656,-12.564 -37.832,-17.713 -2.474,3.395 -1.074,7.467 -1.564,11.981 -1.096,10.078 -7.405,20.878 -11.524,30.711 -1.822,4.351 -2.617,9.301 -5.391,13.151 2.371,5.386 1.229,11.38 2.102,17.134 1.298,8.562 4.896,18.09 4.732,25.741 -7.26,10.9 -30.935,17.08 -47.018,20.647 0.389,-2.463 4.182,-3.115 4.568,-5.579 -6.432,0.35 -9.088,5.97 -13.098,5.049 0.037,-5.053 8.342,-5.708 8.182,-10.865 -6.393,1.14 -8.994,4.294 -13.76,6.298 0.322,-3.298 4.617,-4.486 4.938,-7.784 -3.993,0.545 -3.069,3.707 -7.065,4.252 -0.555,-2.361 1.802,-2.628 2.949,-4.038 2.346,-2.885 5.287,-7.608 10.678,-9.539 9.481,-3.396 21.662,4.617 25.449,-5.688 -1.084,-6.499 -4.158,-9.252 -6.3,-13.761 -4.19,2.577 -2.735,8.155 -5.976,11.238 -9.414,3.268 -16.729,4.606 -24.784,4.44 -0.419,-0.01 -1.562,0.771 -1.913,0.585 -0.221,-0.118 -0.375,-1.917 -0.584,-1.913 -3.689,0.077 -7.204,2.662 -11.104,1.304 -3.045,1.318 -4.097,3.696 -5.524,5.872 -4.224,-1.529 1.452,-4.504 -0.134,-7.279 -5.783,0.396 -3.338,5.167 -7.438,6.457 -2.247,-3.863 0.636,-5.002 0.821,-7.57 -2.123,0.982 -3.719,0.968 -5.073,0.506 6.888,-13.433 26.106,-5.118 39.58,-14.192 -3.146,-4.297 -3.776,-8.993 -6.298,-13.761 -2.021,-3.824 -5.826,-7.278 -7.626,-11.262 -3.315,-7.335 -3.315,-15.489 -6.353,-24.2 -6.474,-0.87 -14.211,0.646 -21.838,0.401 -1.967,-0.062 -4.332,-1.261 -6.615,-1.114 -2.901,0.187 -6.496,1.643 -9.854,1.968 -2.935,0.282 -6.174,-0.666 -10.44,0.055 -7.407,1.25 -16.653,2.92 -23.828,4.148 -8.738,1.495 -9.21,1.076 -13.175,8.21 -1.25,2.25 -3.351,5.646 -3.983,7.492 -0.782,2.279 0.079,5.315 -0.822,7.57 -2.054,5.142 -5.659,8.43 -8.552,13.071 3.448,13.046 2.939,23.987 -2.705,32.198 -11.206,3.501 -17.138,-2.912 -27.496,-1.005 0.428,-1.107 1.296,-1.98 2.284,-2.79 -4.729,-2.149 -10.703,-1.962 -17.719,0.188 -0.673,-3.284 3.047,-3.35 4.86,-4.623 1.767,-1.239 3.48,-3.185 5.153,-3.667 4.321,-1.244 11.132,1.944 16.763,0.104 3.855,-3.377 4.572,-9.399 2.309,-16.392 -5.583,-2.693 -12.006,0.309 -18.675,0.481 -0.55,0.014 -2.105,-1.33 -2.498,-1.328 -2.003,0.006 -5.039,0.027 -7.279,0.134 -3.456,0.165 -8.181,0.326 -11.104,1.304 -6.912,2.313 -11.38,9.066 -18.328,11.878 -1.687,1.238 -1.77,3.329 -1.407,5.658 -3.706,-1.256 -0.312,-5.44 -1.383,-7.942 -6.12,0.217 -3.907,4.863 -8.686,5.793 -1.404,-3.149 1.986,-3.749 2.363,-5.951 -5.14,0.737 -5.658,3.932 -9.934,5.129 2.419,-13.93 21.917,-18.778 29.535,-29.943 14.505,-1.403 28.111,-9.39 43.034,-13.156 1.492,-5.5 -0.7,-10.78 -3.722,-15.594 C 98.75,99.467 96.473,98.353 95.363,96.576 93.882,94.204 93.695,91.221 92.068,89.218 87.352,83.414 78.221,79.533 70.547,76.975 69.315,76.564 68.41,76.205 67.093,75.94 60.183,74.549 54.397,67.58 44.751,71.268 c -1.566,1.129 2.874,3.49 4.995,2.656 -2.518,3.656 -6.566,-2.655 -10.732,-0.901 -1.292,0.853 0.751,1.108 0.877,2.869 -4.558,-2.695 -8.675,1.596 -15.222,1.518 -1.292,0.851 0.751,1.107 0.877,2.869 -1.516,-0.62 -6.778,-2.67 -3.161,-0.079 0.832,2.73 -6.48,-2.563 -3.161,-0.079 -0.063,2.056 -1.481,-0.213 -2.205,-0.372 C 14.943,79.294 13.519,79.55 11.36,78.342 10.681,77.963 9.263,76.146 8.57,76.058 8.165,76.006 6.98,76.85 6.657,76.643 4.654,75.363 3.928,71.145 1.078,72.075 0.785,71.119 0.493,70.163 0.201,69.206 8.268,58.539 18.8,49.19 32.534,41.543 c -0.742,-1.461 0.401,-1.922 0.08,-3.161 z"
   id="path13" />
</svg>