<?xml version="1.0" standalone="no"?>
<!DOCTYPE svg PUBLIC "-//W3C//DTD SVG 20010904//EN"
 "http://www.w3.org/TR/2001/REC-SVG-20010904/DTD/svg10.dtd">
<svg version="1.0" xmlns="http://www.w3.org/2000/svg"
 width="1536.000000pt" height="1090.000000pt" viewBox="0 0 1536.000000 1090.000000"
 preserveAspectRatio="xMidYMid meet">
<metadata>
Created by potrace 1.16, written by Peter Selinger 2001-2019
</metadata>
<g transform="translate(0.000000,1090.000000) scale(0.100000,-0.100000)"
fill="#000000" stroke="none">
<path d="M7710 10893 c-94 -6 -854 -102 -1060 -133 -571 -88 -909 -165 -1260
-285 -266 -92 -448 -174 -720 -324 l-184 -103 -336 -53 c-388 -63 -648 -111
-845 -159 -118 -29 -1308 -398 -1371 -425 -12 -5 -161 -164 -330 -354 l-309
-344 -92 -264 c-135 -385 -187 -569 -247 -874 -66 -333 -95 -576 -166 -1359
l-31 -339 60 -286 c77 -365 102 -496 146 -761 38 -229 60 -330 80 -370 28 -53
159 -163 394 -330 l134 -95 -6 -155 c-6 -177 -24 -254 -104 -445 -71 -167
-244 -508 -313 -614 -153 -236 -319 -393 -770 -731 -206 -155 -258 -198 -289
-244 -34 -49 -58 -124 -48 -150 6 -14 13 -13 62 15 44 25 62 30 88 24 17 -4
58 -9 90 -12 50 -4 63 -1 105 23 84 49 188 122 292 205 56 44 104 79 106 76 6
-5 -114 -175 -186 -262 -85 -103 -141 -160 -278 -286 -196 -178 -218 -215
-287 -493 -40 -161 -42 -200 -9 -276 l20 -44 23 62 c29 77 55 112 84 112 38 0
89 39 218 169 156 157 243 265 338 422 73 120 181 272 188 265 4 -4 -49 -179
-132 -434 -114 -352 -131 -450 -121 -717 3 -93 9 -180 12 -193 17 -63 79 31
95 144 11 81 26 106 138 233 116 132 120 141 162 396 26 159 43 207 119 325
33 52 60 99 60 107 0 19 67 182 91 222 19 31 22 33 36 18 13 -13 18 -53 25
-204 4 -103 13 -208 19 -233 6 -25 30 -79 54 -120 24 -41 48 -94 54 -117 6
-24 16 -62 22 -85 14 -56 110 -239 183 -352 l59 -90 13 26 c31 59 44 139 34
202 -5 34 -10 151 -10 261 -1 261 -9 323 -51 410 -33 69 -34 72 -37 233 -8
297 28 772 58 772 15 0 40 -94 51 -189 12 -112 43 -194 111 -297 65 -101 133
-166 167 -162 37 4 37 28 2 241 -17 100 -36 234 -42 297 -18 168 -15 424 4
560 10 63 21 178 27 255 11 160 35 266 85 370 35 73 91 135 123 135 15 0 65
-21 317 -133 44 -20 123 -48 175 -62 208 -57 271 -80 420 -150 85 -40 173 -78
195 -85 22 -7 56 -21 76 -31 34 -17 129 -111 183 -182 l27 -35 -10 -199 c-12
-237 -3 -379 38 -612 53 -295 66 -442 51 -566 -19 -154 -66 -234 -188 -320
-145 -101 -226 -207 -257 -336 -10 -38 -15 -73 -11 -76 15 -16 362 64 446 103
36 17 75 47 115 90 l61 66 -8 -99 c-12 -151 -36 -279 -64 -347 -67 -160 -109
-323 -120 -459 -5 -68 -3 -76 29 -142 20 -38 47 -83 61 -100 l26 -30 31 35
c40 46 134 185 189 280 24 41 63 104 87 139 41 59 45 72 54 150 5 47 9 117 9
154 l0 69 78 -42 c140 -75 178 -129 251 -352 23 -70 50 -136 59 -148 10 -13
42 -26 81 -36 80 -18 118 -41 167 -101 l39 -47 12 39 c16 56 15 247 -2 328
-10 47 -27 88 -54 129 -23 33 -63 105 -90 161 -63 131 -97 177 -168 224 -31
21 -56 43 -55 48 3 17 119 17 182 1 35 -9 78 -30 107 -52 48 -37 138 -81 183
-90 19 -4 33 3 59 30 19 20 39 36 44 36 5 0 35 -16 67 -35 74 -45 90 -45 90 0
0 40 -36 81 -127 144 -66 44 -110 89 -143 144 -47 79 -174 159 -293 183 -153
32 -181 77 -136 216 21 63 24 93 24 218 0 128 2 149 21 180 11 20 29 36 42 38
12 2 68 -15 125 -37 338 -132 594 -134 1172 -7 248 54 304 60 520 60 145 0
225 -4 290 -17 172 -32 666 -49 813 -28 34 5 93 24 131 41 79 37 127 41 165
17 15 -10 51 -50 80 -90 122 -163 173 -179 241 -73 47 74 65 83 97 48 61 -64
182 -286 258 -472 28 -69 63 -137 77 -152 28 -30 91 -57 193 -83 81 -21 90
-14 90 74 0 79 -16 156 -64 315 -41 133 -41 131 32 142 58 9 120 -9 232 -66
108 -56 204 -129 237 -180 71 -110 80 -114 283 -113 176 0 200 5 200 37 0 30
-37 70 -200 214 -149 132 -237 219 -229 227 3 2 70 -9 150 -25 214 -44 246
-40 258 36 l6 39 65 3 c36 2 79 1 96 -3 l30 -5 98 -463 c131 -623 219 -1023
223 -1011 2 6 -35 223 -82 484 -103 572 -142 802 -151 903 l-7 76 29 11 c24
10 85 20 260 44 l31 4 83 -176 c152 -322 298 -622 304 -622 9 0 -24 79 -163
395 -71 160 -137 312 -147 339 l-18 49 39 34 c21 18 63 45 93 60 l55 27 34
-40 c19 -21 65 -82 103 -134 71 -100 116 -150 90 -100 -7 14 -43 72 -80 130
-82 128 -86 139 -60 173 11 14 123 87 248 162 274 166 387 248 512 375 111
112 188 224 232 335 41 106 45 152 19 252 -76 296 -183 468 -511 823 -243 262
-330 374 -442 564 -127 215 -275 429 -465 673 -60 76 -140 188 -178 248 -129
203 -191 291 -312 441 -66 82 -181 232 -255 334 -73 102 -171 232 -216 290
-146 187 -170 252 -145 395 13 76 13 110 4 218 -13 143 -40 302 -71 420 -54
205 -82 258 -205 382 -262 266 -483 351 -610 234 -83 -76 -115 -202 -115 -450
l0 -160 -47 7 c-212 30 -729 310 -963 521 -150 136 -368 488 -525 848 -141
322 -300 517 -540 661 -145 87 -279 132 -550 183 -201 38 -212 45 -140 86 119
66 343 136 640 200 116 25 311 72 435 105 508 134 851 196 1294 235 394 34
1169 37 1542 5 299 -25 987 -129 1289 -195 62 -13 163 -39 226 -58 121 -36
158 -45 417 -102 183 -40 394 -105 553 -171 150 -61 246 -87 554 -150 537
-108 946 -205 1124 -264 197 -66 317 -128 681 -348 454 -275 825 -416 1044
-396 l73 7 -79 76 c-133 126 -256 199 -751 441 -672 329 -862 402 -1402 541
-343 89 -552 156 -975 312 -374 138 -624 210 -1105 316 -621 137 -1613 310
-1948 341 -254 23 -1153 38 -1387 23z"/>
<path d="M10360 330 c0 -16 5 -30 10 -30 6 0 10 14 10 30 0 17 -4 30 -10 30
-5 0 -10 -13 -10 -30z"/>
</g>
</svg>
