<?xml version="1.0" encoding="UTF-8" standalone="no"?>
<svg
   width="478.06476"
   height="490.14005"
   viewBox="0 0 478.06476 490.14005"
   version="1.1"
   id="svg4"
   xmlns="http://www.w3.org/2000/svg"
   xmlns:svg="http://www.w3.org/2000/svg">
  <defs
     id="defs8" />
  <path
     d="m 417.05692,2.1560421 c -2.696,2.12 -2.741,2.333 -2.328,10.9799999 0.359,7.495 0.768,9.186 2.731,11.275 2.26,2.406 2.295,2.756 1.648,16.77 -3.456,74.965998 -9.056,121.101998 -30.565,251.811998 -16.587,100.799 -21.25,131.916 -26.034,173.747 -2.58,22.563 -2.571,23.479 0.223,23.073 2.09,-0.305 2.305,-1.301 4.493,-20.82 4.581,-40.883 9.305,-72.356 27.239,-181.5 20.634,-125.58 26.609,-175.58 29.589,-247.633998 l 0.646,-15.635 -2.631,-2.439 c -2.425,-2.249 -2.607,-2.98 -2.331,-9.366 l 0.3,-6.9259999 4.566,-0.297 c 3.841,-0.25 4.993,0.129 7.25,2.386 3.796,3.7959999 3.657,8.5919999 -0.366,12.6149999 l -3.05,3.05 -0.938,22.623 c -2.897,69.873998 -8.758,117.008998 -32.473,261.122998 -12.897,78.368 -19.907,125.332 -23.435,157 -1.133,10.175 -2.29,20.188 -2.569,22.25 -0.47,3.466 -0.32,3.75 1.984,3.75 1.77,0 2.638,-0.653 2.995,-2.25 0.276,-1.238 1.197,-5.4 2.048,-9.25 5.371,-24.302 17.801,-62.87 32.229,-100 10.793,-27.778 11.968,-30.5 13.164,-30.5 2.254,0 1.806,2.305 -2.549,13.111 -16.174,40.132 -29.266,78.503 -36.3,106.389 -5.617,22.268 -5.646,22.5 -2.755,22.5 2.245,0 2.591,-0.834 5.666,-13.668 6.953,-29.013 18.88,-64.892 35.605,-107.109 5.183,-13.083 7.198,-17.142 8.299,-16.719 0.8,0.307 4.561,1.091 8.358,1.742 23.475,4.026 43.991,-16.874 39.736,-40.478 -2.282,-12.655 -10.078,-22.804 -21.841,-28.434 -10.755,-5.147 -28.177,-4.175 -37.993,2.119 -9.792,6.28 -15.288,16.002 -15.937,28.195 -0.386,7.241 -0.136,8.799 2.243,14 1.588,3.471 4.644,7.699 7.509,10.391 l 4.832,4.539 -4.423,10.961 c -10.297,25.52 -18.049,46.39 -25.431,68.461 -4.322,12.925 -7.873,23.132 -7.891,22.682 -0.17,-4.251 11.197,-78.063 21.972,-142.682 21.828,-130.908 29.823,-195.605 31.682,-256.400998 l 0.639,-20.901 2.989,-3.404 c 6.109,-6.958 4.224,-17.9119999 -3.732,-21.6879999 -4.919,-2.33400001 -11.707,-2.08300001 -15.063,0.557 M 86.170923,12.392042 c -3.777,1.369 -8.603,3.638 -10.725,5.042 -4.643,3.073 -11.504,11.482 -14.084,17.259 -8.823,19.765 0.813,44.842 20.873,54.32 3.466,1.638 6.302,3.316 6.302,3.729 0,0.413 -1.095,10.425998 -2.432,22.250998 -8.532,75.406 -23.746,139.143 -52.037,218 -14.162,39.473 -17.828,50.861 -22.165,68.851 -5.8259999,24.164 -9.8079999,51.856 -11.70299985,81.399 -0.417,6.513 -0.351,6.75 1.87999995,6.75 2.606,0 2.12,2.763 4.928,-28 3.7149999,-40.718 10.6749999,-69.061 30.1079999,-122.626 19.477,-53.683 34.683,-106.608 41.54,-144.581 0.666,-3.689 1.536,-6.506 1.933,-6.261 2.311,1.428 1.672,8.161 -2.559,26.968 -9.379,41.688 -19.066,73.891 -38.504,128 -12.335,34.337 -15.729,44.996 -19.899,62.502 -5.145,21.6 -8.641,46.248 -10.6029999,74.748 l -0.637,9.25 h 2.5749999 c 2.038,0 2.575,-0.491 2.575,-2.355 0,-1.295 0.461,-8.157 1.023,-15.25 3.4,-42.829 10.036,-72.62 26.111,-117.217 22.872,-63.455 33.69,-99.127 42.817,-141.178 1.134,-5.225 2.294,-10.517 2.577,-11.759 0.489,-2.147 0.634,-2.181 2.935,-0.674 1.991,1.305 2.896,3.655 5.109,13.26 6.841997,29.693 20.278997,72.236 34.352997,108.765 l 6.2,16.092 -10.424,16.908 c -12.091,19.614 -15.271,25.178 -49.841997,87.219 -25.533,45.824 -25.773,46.308 -22.754,46 2.92,-0.297 4.224,-2.414 30.067,-48.811 28.451997,-51.08 41.804997,-74.349 50.157997,-87.401 4.4,-6.875 5.171,-7.643 5.944,-5.912 0.709,1.591 -0.998,5.072 -8.535,17.401 -11.071,18.11 -37.548997,64.444 -54.237997,94.912 -6.477,11.825 -12.902,23.446 -14.277,25.824 l -2.5,4.323 3.205,-0.323 c 3.068,-0.31 3.718,-1.262 15.243,-22.324 25.273997,-46.186 60.572997,-107.541 63.745997,-110.798 0.427,-0.438 4.7,8.285 9.496,19.384 4.795,11.1 8.351,20.512 7.902,20.915 -0.449,0.404 -5.316,4.695 -10.816,9.535 -18.294,16.101 -34.34,31.648 -48.391997,46.886 -14.26,15.464 -31.108,34.96 -31.108,35.996 0,0.32 1.26,0.582 2.8,0.582 2.343,0 4.423,-1.916 12.749,-11.75 18.597997,-21.967 73.781997,-76.25 77.513997,-76.25 3.087,0 -0.904,4.783 -13.063,15.658 -16.43,14.694 -46.022,44.719 -59.471997,60.342 -9.826,11.414 -9.878,11.503 -6.989,11.838 2.279,0.265 3.569,-0.397 5.936,-3.046 19.772997,-22.122 28.730997,-31.643 42.178997,-44.833 20.659,-20.26 34.342,-32.366 35.385,-31.308 0.46,0.467 8.667,18.399 18.238,39.849 16.192,36.289 17.586,39.022 20.062,39.316 1.464,0.174 2.661,0.047 2.661,-0.283 0,-0.33 -6.795,-15.773 -15.1,-34.317 -36.182,-80.793 -48.423,-109.623 -61.87,-145.716 -13.16,-35.324 -23.081,-67.62 -29.489997,-96 -3.375,-14.945 -3.901,-16.268 -6.633,-16.673 -1.214,-0.18 -3.141,-1.584 -4.284,-3.12 -6.286,-8.45 2.393,-20.234 11.958997,-16.237 8.892,3.715 11.215,16.621 3.278,18.208 -1.668,0.334 -3.243,1.158 -3.501997,1.831 -1.312,3.419 11.859997,52.204 22.946997,84.991 14.606,43.197 26.662,72.356 70.184,169.75 l 16.869,37.75 h 3.352 c 1.844,0 3.512,-0.563 3.707,-1.25 5.336,-18.834 18.402,-50.75 20.776,-50.75 2.294,0 1.457,3.475 -3.169,13.161 -4.001,8.375 -14.024,35.828 -14.024,38.411 0,0.309 1.141,0.418 2.535,0.244 2.3,-0.287 2.94,-1.529 6.917,-13.427 2.41,-7.211 6.566,-17.755 9.236,-23.431 l 4.854,-10.319 8.979,-0.07 c 10.061,-0.077 14.502,-1.659 19.946,-7.102 5.17,-5.171 6.998,-9.983 7.017,-18.467 0.014,-6.385 -0.39,-8.19 -2.714,-12.145 -5.249,-8.928 -13.458,-13.797 -23.324,-13.833 -11,-0.04 -21.612,7.581 -24.99,17.947 -1.289,3.957 -1.413,4.087 -0.978,1.031 5.05,-35.494 9.353,-71.99 12.173,-103.25 1.471,-16.304 2.05,-19.75 3.316,-19.751 3.372,-0.002 14.396,-6.229 19.393,-10.955 2.915,-2.757 6.611,-7.607 8.213,-10.778 2.637,-5.219 2.914,-6.715 2.92,-15.766 0.006,-9.033 -0.275,-10.575 -2.912,-15.946 -5.478,-11.156 -14.465,-17.831 -26.034,-19.336 l -5.521,-0.718 9.845,-13.876 9.846,-13.876 12.391,-0.126 c 10.957,-0.112 12.959,-0.408 17.288,-2.553 7.078,-3.508 12.093,-8.753 15.662,-16.38 6.17,-13.185 6.241,-27.956 0.194,-40.526 -3.31,-6.881 -13.077,-16.979 -19.317,-19.973 -18.622,-8.931998 -41.448,-1.193 -50.353,17.071 -3.351,6.874 -4.386,13.065 -4.219,25.239 0.119,8.699 0.491,10.722 2.862,15.548 1.498,3.051 5.039,7.85 7.867,10.664 l 5.143,5.115 -16.239,22.587 c -8.931,12.422 -16.634,22.586 -17.117,22.586 -0.484,0 -0.879,-0.603 -0.879,-1.34 0,-3.485 -6.505,-13.92 -11.552,-18.533 -13.713,-12.533 -32.811,-15.497 -47.686,-7.401 -7.225,3.933 -14.982,12.88 -19.97,23.036 -4.191,8.533 -4.292,8.973 -4.282,18.738 0.009,8.871 0.321,10.635 2.763,15.624 4.29,8.765 9.799,14.308 18.488,18.604 7.154,3.537 8.204,3.772 16.834,3.772 5.868,0 8.987,0.362 8.606,1 -0.844,1.413 -31.299,45.932 -31.685,46.318 -0.852,0.852 -16.663,-43.074 -23.532,-65.376 -5.651,-18.349 -14.963,-53.87 -14.976,-57.125 -0.005,-1.333 0.797,-2.438 2.061,-2.839 2.76,-0.876 5.923,-6.238 5.927,-10.049 0.002,-1.689 -1.233,-5.483 -2.746,-8.432 -3.242,-6.32 -7.492,-8.997 -14.287997,-8.997 h -4.569 l 2.778,-18.25 c 1.528,-10.037 3.813,-27.69 5.079,-39.227 l 2.300997,-20.975998 4.315,-0.737 c 2.374,-0.405 7.464,-2.188 11.313,-3.962 8.096,-3.732 15.26,-10.98 19.618,-19.848 2.44,-4.965 2.703,-6.57 2.703,-16.5 0,-10.249 -0.212,-11.444 -3.11,-17.5 -4.663,-9.744 -10.117,-15.272 -19.804,-20.072 -7.022,-3.48 -9.452,-4.164 -16.175,-4.557 -6.670997,-0.3889999 -8.986997,-0.071 -14.776997,2.028 m 9.727,3.351 c 0.088,1.107 -0.686,1.866 -2.111,2.069 -1.237,0.176 -2.24,0.626 -2.228,1.001 0.043,1.31 3.934,5.668 3.956,4.43 0.033,-1.875 3.022,-1.507 3.022,0.372 0,1.341 0.265,1.403 1.523997,0.358 2.077,-1.724 2.729,-0.775 1.567,2.281 -0.827,2.176 -0.658,2.619 1.185,3.101 1.184,0.31 2.841,-0.06 3.687,-0.822 0.845,-0.761 2.823,-1.705 4.395,-2.098 2.721,-0.679 2.8,-0.605 1.65,1.542 -0.663,1.24 -2.02,2.468 -3.015,2.728 -0.994,0.26 -2.033,1.331 -2.307,2.38 -0.619,2.368 0.878,2.509 2.168,0.205 0.8,-1.431 1.206,-1.492 2.539,-0.386 1.424,1.182 1.331,1.519 -0.903,3.276 -3.007,2.365 -3.193,3.813 -0.49,3.813 2.549,0 2.617,2.669 0.089,3.472 -2.23,0.707 -5.73,5.528 -4.013,5.528 0.617,0 2.448,-1.42 4.068,-3.154 2.264,-2.423 3.221,-2.881 4.126,-1.976 0.906,0.906 0.888,1.647 -0.079,3.196 -0.692,1.108 -0.95,2.515 -0.572,3.126 0.378,0.611 0.055,1.606 -0.716,2.21 -0.772,0.604 -1.403,1.773 -1.403,2.598 0,0.825 -0.675,1.355 -1.5,1.179 -1.27,-0.272 -1.289,-0.119 -0.125,1 1.082,1.04 1.473,1.055 1.833,0.071 0.659,-1.797 2.72,-1.539 4.637,0.579 2.31,2.553 2.062,4.191 -0.592,3.909 -1.658,-0.176 -2.331,0.351 -2.569,2.012 -0.178,1.237 -1.019,2.25 -1.87,2.25 -1.096,0 -1.413,-0.703 -1.086,-2.41 0.351,-1.836 -0.127,-2.678 -2.003,-3.534 -1.97,-0.897 -2.362,-0.856 -1.956,0.203 0.664,1.729 -1.834,5.128 -3.165,4.305 -1.238,-0.765 -3.147,5.685 -1.924,6.504 0.467,0.312 0.167,1.933 -0.665,3.602 -1.204997,2.415 -1.285997,3.687 -0.399,6.233 0.613,1.76 0.817,3.498 0.452,3.863 -1.054,1.053 -4.081997,-1.378 -3.928997,-3.154 0.13,-1.507 -0.645,-1.952 -2.37,-1.362 -0.402,0.138 -0.739,0.924 -0.75,1.747 -0.01,0.824 -0.657,1.499 -1.436,1.5 -0.779,0.002 -1.588,0.519 -1.799,1.15 -0.21,0.631 0.203,1.123 0.917,1.093 4.361,-0.184 5.982,0.341 5.437,1.76 -0.443,1.156 0.221,1.5 2.892997,1.5 2.051,0 3.367,-0.46 3.219,-1.125 -0.137,-0.619 0.313,-1.331 1,-1.583 0.688,-0.253 1.25,0.302 1.25,1.233 0,2.173 2.664,1.548 11.612,-2.727 9.817,-4.689 17.631,-15.249 19.356,-26.158 1.956,-12.374 -2.864,-25.689 -12.481,-34.478 -5.614,-5.131 -7.487,-6.151 -7.487,-4.079 0,0.596 -0.562,0.887 -1.25,0.647 -0.687,-0.241 -1.127,-1.14 -0.976,-1.999 0.285,-1.62 -4.858,-3.415 -6.636,-2.316 -0.501,0.31 -1.467,-0.107 -2.147,-0.926 -1.452,-1.75 -4.14,-1.94 -5.677997,-0.402 -0.783,0.783 -1.275,0.783 -1.759,0 -1.039,-1.68 -2.347,-1.285 -2.193,0.663 m -8.619,0.375 c -0.958,0.536 -1.742,1.402 -1.742,1.925 0,1.563 3.015,1.073 3.655,-0.593 0.797,-2.077 0.183,-2.505 -1.913,-1.332 m 12.258,2.375 c 0,0.917 0.483997,1.505 1.074997,1.308 0.591,-0.197 1.075,-0.785 1.075,-1.308 0,-0.523 -0.484,-1.111 -1.075,-1.308 -0.591,-0.197 -1.074997,0.391 -1.074997,1.308 m 3.999997,0.417 c 0,1.228 0.646,2.083 1.573,2.083 0.932,0 1.442,-0.68 1.25,-1.667 -0.486,-2.509 -2.823,-2.853 -2.823,-0.416 m -7.530997,0.133 c -0.95,1.538 0.351,2.53 1.635,1.246 0.718,-0.718 0.735,-1.277 0.052,-1.699 -0.56,-0.346 -1.319,-0.142 -1.687,0.453 m -15.719,1.053 c 0.688,0.713 1.25,2.387 1.25,3.719 0,1.996 0.254,2.212 1.441,1.227 1.876,-1.557 0.53,-5.421 -2.054,-5.896 -1.525,-0.28 -1.647,-0.098 -0.637,0.95 m -3.291,0.964 c -0.363,0.586 -0.445,1.281 -0.183,1.543 0.262,0.262 0.743,-0.218 1.069,-1.067 0.676,-1.762 0.1,-2.072 -0.886,-0.476 m 29.620997,1.027 c -1.623,0.649 -2.088,1.298 -1.412,1.974 1.2,1.2 6.332,-0.456 6.332,-2.043 0,-1.246 -1.69,-1.222 -4.92,0.069 m -17.079997,0.751 c 0,1.333 3.939,4.549 4.673,3.816 0.363,-0.364 0.166,-0.661 -0.439,-0.661 -0.605,0 -1.385,-0.9 -1.734,-2 -0.621,-1.958 -2.5,-2.825 -2.5,-1.155 m 26.638997,-0.151 c -1.236,1.236 -0.622,4.306 0.861,4.306 0.825,0 1.5,-0.873 1.5,-1.941 0,-2.087 -1.318,-3.408 -2.361,-2.365 m -12.17,3.356 c -0.95,1.538 0.351,2.53 1.635,1.246 0.718,-0.718 0.735,-1.277 0.052,-1.699 -0.56,-0.346 -1.319,-0.142 -1.687,0.453 m -28.468997,0.95 c 0,0.55 0.477,1 1.059,1 0.582,0 0.781,-0.45 0.441,-1 -0.34,-0.55 -0.816,-1 -1.059,-1 -0.243,0 -0.441,0.45 -0.441,1 m 3.5,0 c 0.34,0.55 0.816,1 1.059,1 0.243,0 0.441,-0.45 0.441,-1 0,-0.55 -0.477,-1 -1.059,-1 -0.582,0 -0.781,0.45 -0.441,1 m 7.5,2 c -1.282,0.828 -1.246,0.972 0.25,0.985 0.963,0.008 1.75,-0.435 1.75,-0.985 0,-1.22 -0.113,-1.22 -2,0 m 34.999997,1 c 0,1.111 0.667,2 1.5,2 0.833,0 1.5,-0.889 1.5,-2 0,-1.111 -0.667,-2 -1.5,-2 -0.833,0 -1.5,0.889 -1.5,2 m -24.999997,1.5 c 0,0.825 0.257,1.5 0.571,1.5 0.315,0 1.247,-0.675 2.072,-1.5 1.332997,-1.333 1.269997,-1.5 -0.572,-1.5 -1.174,0 -2.071,0.649 -2.071,1.5 m 16.582997,-0.634 c -0.641,1.036 3.173,4.712 4.014,3.87 0.322,-0.322 0.289,-1.519 -0.073,-2.661 -0.666,-2.099 -2.957,-2.801 -3.941,-1.209 m -10.293,0.934 c -0.88,0.559 -0.705,1.084 0.641,1.925 1.594,0.995 1.78,0.886 1.343,-0.785 -0.279,-1.067 -0.567,-1.933 -0.641,-1.925 -0.073,0.009 -0.678,0.362 -1.343,0.785 m -22.779997,2.216 c 0.346,0.559 1.047,0.758 1.559,0.441 1.387,-0.857 1.129,-1.457 -0.628,-1.457 -0.857,0 -1.276,0.457 -0.931,1.016 m 39.489997,4.567 c 0,5.841 2.159,5.533 2.71,-0.386 0.307,-3.293 0.058,-4.197 -1.159,-4.197 -1.176,0 -1.551,1.109 -1.551,4.583 m 7.583,-1.717 c -0.431,0.697 -0.513,1.537 -0.183,1.867 0.895,0.895 1.871,-0.421 1.387,-1.871 -0.338,-1.016 -0.574,-1.016 -1.204,0.004 m -14.908,0.792 c -0.901,0.901 1.251,3.342 2.947,3.342 1.899,0 1.74,-2.647 -0.204,-3.393 -1.956,-0.751 -1.941,-0.751 -2.743,0.051 m -17.997997,2.469 c -0.376,1.437 -0.079,1.904 1.069,1.681 2.123,-0.412 2.701,-2.423 0.895,-3.116 -0.89,-0.341 -1.644,0.21 -1.964,1.435 m 6.938997,1.623 c -0.34,0.962 -0.879,2.313 -1.199997,3 -0.326,0.699 0.069,1.25 0.893997,1.25 0.812,0 1.735,-0.675 2.052,-1.5 0.316,-0.825 1.25,-1.5 2.075,-1.5 0.923,0 1.279,-0.578 0.925,-1.5 -0.791,-2.06 -3.991,-1.891 -4.746,0.25 m 29.384,1.75 c 0,0.917 0.484,1.505 1.075,1.308 0.591,-0.197 1.075,-0.785 1.075,-1.308 0,-0.523 -0.484,-1.111 -1.075,-1.308 -0.591,-0.197 -1.075,0.391 -1.075,1.308 m -7.85,0.45 c 0.22,0.66 0.726,1.166 1.125,1.125 1.196,-0.124 0.964,-1.495 -0.325,-1.925 -0.66,-0.22 -1.02,0.14 -0.8,0.8 m -5.65,2.05 c -1.077,1.742 0.519,3.229 2.078,1.935 0.77,-0.639 1.153,-1.561 0.852,-2.048 -0.73,-1.181 -2.165,-1.125 -2.93,0.113 m -25.499997,2 c -0.901,0.582 -1.025,0.975 -0.309,0.985 0.655,0.008 1.469,-0.435 1.809,-0.985 0.767,-1.242 0.421,-1.242 -1.5,0 m 7,1.5 c 0,0.825 0.436,1.5 0.969,1.5 0.531997,0 0.708997,-0.675 0.393,-1.5 -0.317,-0.825 -0.753,-1.5 -0.969,-1.5 -0.216,0 -0.393,0.675 -0.393,1.5 m 25.596997,-0.656 c -0.346,0.56 -0.142,1.319 0.453,1.687 1.538,0.95 2.53,-0.351 1.246,-1.635 -0.718,-0.718 -1.277,-0.735 -1.699,-0.052 m -5.447,2.106 c 0.43,1.289 1.801,1.521 1.925,0.325 0.041,-0.399 -0.465,-0.905 -1.125,-1.125 -0.66,-0.22 -1.02,0.14 -0.8,0.8 m -9.65,2.05 c 0.34,0.55 0.816,1 1.059,1 0.243,0 0.441,-0.45 0.441,-1 0,-0.55 -0.477,-1 -1.059,-1 -0.582,0 -0.781,0.45 -0.441,1 m 6.043,-0.069 c -0.74,1.197 1.141,2.382 2.473,1.559 1.119,-0.691 0.384,-2.49 -1.016,-2.49 -0.485,0 -1.141,0.419 -1.457,0.931 m 15.151,-0.292 c -0.799,0.799 0.104,2.361 1.365,2.361 0.518,0 0.941,-0.675 0.941,-1.5 0,-1.546 -1.18,-1.987 -2.306,-0.861 m -8.694,2.892 c 0,1.612 2.662,3.141 3.686,2.117 0.712,-0.713 -1.548,-3.648 -2.808,-3.648 -0.483,0 -0.878,0.689 -0.878,1.531 m -24.356997,1.21 c 0.277,1.059 1.252,1.926 2.168,1.926 2.051997,0 4.538997,-2.333 3.300997,-3.097 -0.496,-0.307 -1.184,0.175 -1.528,1.072 -0.572,1.491 -0.788,1.483 -2.534997,-0.098 -1.819,-1.646 -1.886,-1.637 -1.406,0.197 m 31.356997,3.259 c 0,0.55 0.45,1 1,1 0.55,0 1,-0.45 1,-1 0,-0.55 -0.45,-1 -1,-1 -0.55,0 -1,0.45 -1,1 m -9.5,3 c -0.34,0.55 -0.352,1.43 -0.027,1.956 0.823,1.331 3.527,0.133 3.527,-1.563 0,-1.599 -2.576,-1.888 -3.5,-0.393 m -13.3,2.2 c -1.621,1.621 -1.519,3.8 0.178,3.8 1.845,0 3.956,-2.651 3.149,-3.956 -0.845,-1.367 -1.851,-1.32 -3.327,0.156 m 22.439,-0.506 c -1.126,1.126 -0.685,2.306 0.861,2.306 0.825,0 1.5,-0.423 1.5,-0.941 0,-1.261 -1.562,-2.164 -2.361,-1.365 m -34.433997,1.559 c -0.725,0.874 -0.682,1.922 0.144,3.465 1.151,2.15 1.214,2.115 2.268,-1.253 1.142,-3.649 -0.199,-4.879 -2.412,-2.212 m 21.391997,-0.409 c -0.346,0.56 -0.142,1.319 0.453,1.687 1.538,0.95 2.53,-0.351 1.246,-1.635 -0.718,-0.718 -1.277,-0.735 -1.699,-0.052 m -4.124,3.2 c -0.325,0.526 -0.313,1.406 0.027,1.956 0.924,1.495 3.5,1.206 3.5,-0.393 0,-1.696 -2.704,-2.894 -3.527,-1.563 m 11.067,0.303 c -1.398,1.023 -1.538,1.536 -0.58,2.128 0.712,0.441 1.591,0.252 2.014,-0.432 0.412,-0.668 1.138,-1.142 1.613,-1.053 0.475,0.088 1.024,-0.324 1.221,-0.915 0.502,-1.505 -2.062,-1.341 -4.268,0.272 m -18.47,2.522 c -0.55,1.027 -0.682,2.186 -0.293,2.575 0.388,0.388 -0.077,1.145 -1.035,1.681 -0.958,0.536 -1.742,1.402 -1.742,1.925 0,1.433 5.977,1.142 6.152,-0.3 0.084,-0.687 0.201,-1.831 0.259,-2.542 0.059,-0.71 0.778,-1.723 1.598,-2.25 1.32,-0.848 1.319,-1.071 -0.009,-1.943 -2.265,-1.487 -3.821,-1.218 -4.93,0.854 m 11.93,3.256 c 0,2.015 1.482,2.522 2.51,0.859 0.346,-0.559 1.047,-0.758 1.559,-0.441 0.512,0.316 0.931,-0.07 0.931,-0.859 0,-0.863 -0.996,-1.434 -2.5,-1.434 -1.778,0 -2.5,0.542 -2.5,1.875 m -23.434997,0.77 c -0.305,0.493 0.096,1.145 0.89,1.449 0.963,0.37 1.258,0.072 0.887,-0.895 -0.645,-1.68 -1.011,-1.794 -1.777,-0.554 m 17.584997,0.055 c 0.22,0.66 0.726,1.166 1.125,1.125 1.196,-0.124 0.964,-1.495 -0.325,-1.925 -0.66,-0.22 -1.02,0.14 -0.8,0.8 m -22.149997,2.019 c 0,0.532 0.675,0.709 1.5,0.393 0.825,-0.317 1.5,-0.753 1.5,-0.969 0,-0.216 -0.675,-0.393 -1.5,-0.393 -0.825,0 -1.5,0.436 -1.5,0.969 m 28.693997,1.67 c -0.799,0.799 0.104,2.361 1.365,2.361 0.518,0 0.941,-0.675 0.941,-1.5 0,-1.546 -1.18,-1.987 -2.306,-0.861 m -12.502,1.436 c 0.197,0.591 0.785,1.075 1.308,1.075 0.523,0 1.111,-0.484 1.308,-1.075 0.197,-0.591 -0.391,-1.075 -1.308,-1.075 -0.917,0 -1.505,0.484 -1.308,1.075 m 4.405,1.769 c -0.346,0.56 -0.142,1.319 0.453,1.687 1.538,0.95 2.53,-0.351 1.246,-1.635 -0.718,-0.718 -1.277,-0.735 -1.699,-0.052 m -15.096997,5.156 c -0.34,0.55 0.11,1 1,1 0.89,0 1.34,-0.45 1,-1 -0.34,-0.55 -0.79,-1 -1,-1 -0.21,0 -0.66,0.45 -1,1 m 0.066,9.25 c -0.306,2.338 -1.26,10.774998 -2.12,18.749998 -1.718,15.929 -5.771,44.255 -8.014,56 -1.879,9.845 -1.843,10.069 0.966,5.935 1.856,-2.73 2.984,-7.142 4.983,-19.482 3.113,-19.212 6.284,-43.973 7.221,-56.376 0.596,-7.899998 0.48,-9.076998 -0.897,-9.076998 -1.108,0 -1.749,1.275 -2.139,4.25 M 262.89392,107.50604 c -0.936,2.437 1.455,4.621 3.596,3.284 3.229,-2.016 4.936,-0.385 4.329,4.138 -0.312,2.322 -0.131,4.065 0.42,4.065 1.717,0 2.308,-1.283 1.203,-2.614 -1.156,-1.394 -0.306,-3.752 1.051,-2.913 1.52,0.939 2.222,7.607 0.961,9.127 -1.422,1.714 -0.887,2.617 0.897,1.515 1.953,-1.207 2.769,-8.135 1.083,-9.185 -1.139,-0.708 -1.166,-1.241 -0.147,-2.886 1.697,-2.738 1.574,-5.044 -0.269,-5.044 -1.121,0 -1.355,0.655 -0.892,2.5 0.454,1.808 0.225,2.5 -0.826,2.5 -1.688,0 -4.763,-3.117 -4.763,-4.829 0,-1.659 -1.075,-1.451 -2.488,0.482 -1.225,1.675 -4.029,0.993 -2.969,-0.722 0.316,-0.512 0.309,-0.931 -0.015,-0.931 -0.325,0 -0.852,0.681 -1.171,1.513 m 18.006,2.336 c 1.212,1.339 1.417,2.169 0.654,2.641 -0.746,0.46 -0.786,1.083 -0.123,1.883 0.619,0.745 0.643,1.745 0.064,2.661 -0.51,0.806 -0.934,2.029 -0.943,2.716 -0.017,1.435 3.649,1.721 4.152,0.324 0.183,-0.509 1.51,-1.218 2.947,-1.574 1.884,-0.467 2.784,-0.209 3.219,0.926 1.146,2.986 -0.288,4.533 -3.591,3.872 -2.637,-0.527 -2.982,-0.366 -2.41,1.125 0.367,0.957 0.668,2.329 0.668,3.048 0,0.719 0.788,1.244 1.75,1.168 1.106,-0.088 1.651,0.465 1.481,1.503 -0.166,1.012 0.368,1.588 1.392,1.5 2.448,-0.209 2.8,2.014 0.418,2.637 -2.06,0.539 -2.894,2.721 -1.041,2.721 0.55,0 1,0.675 1,1.5 0,0.825 -0.661,1.5 -1.469,1.5 -0.842,0 -1.241,0.592 -0.935,1.39 0.413,1.076 1.034,0.889 2.748,-0.825 1.724,-1.724 3.05,-2.117 5.981,-1.775 4.722,0.551 4.331,2.599 -0.576,3.016 -1.978,0.168 -4.117,0.933 -4.753,1.699 -0.947,1.141 -0.643,1.357 1.674,1.194 1.937,-0.136 2.83,0.274 2.83,1.301 0,0.868 -0.976,1.549 -2.317,1.617 -2.624,0.132 -4.919,1.981 -3.821,3.078 0.401,0.401 1.551,0.216 2.555,-0.411 1.999,-1.248 4.083,-0.015 4.083,2.416 0,1.56 -1.622,1.721 -2.53,0.251 -0.443,-0.717 -1.092,-0.68 -2.054,0.118 -0.773,0.642 -2.24,0.949 -3.261,0.682 -1.021,-0.267 -2.895,0.299 -4.165,1.257 l -2.31,1.742 h 2.886 c 1.587,0 3.909,-0.671 5.16,-1.49 2.165,-1.419 2.274,-1.365 2.274,1.125 0,1.948 0.51,2.615 2,2.615 1.111,0 2,0.667 2,1.5 0,0.833 -0.889,1.5 -2,1.5 -1.111,0 -2,-0.667 -2,-1.5 0,-2.233 -3.105,-1.815 -3.71,0.5 -0.569,2.176 -2.2,2.575 -4.09,1 -0.873,-0.727 -0.927,-0.673 -0.2,0.2 1.61,1.932 1.156,3.074 -1,2.51 -2.363,-0.618 -2.614,0.535 -0.5,2.29 1.149,0.954 1.5,0.963 1.5,0.039 0,-2.195 2.378,-0.457 3.108,2.271 0.802,3.001 -0.505,4.435 -2.519,2.764 -0.984,-0.817 -1.646,-0.71 -2.579,0.414 -0.69,0.831 -1.875,1.512 -2.632,1.512 -1.659,0 -1.811,-2.167 -0.262,-3.716 0.821,-0.821 0.714,-1.689 -0.405,-3.287 l -1.521,-2.171 -0.662,2.087 c -0.365,1.148 -1.168,2.087 -1.787,2.087 -0.618,0 -0.294,0.607 0.721,1.348 2.129,1.558 1.291,3.652 -1.462,3.652 -2.437,0 -3.652,-1.979 -1.886,-3.07 0.967,-0.598 1.057,-1.159 0.306,-1.91 -1.24,-1.24 -5.967,2.286 -5.051,3.768 0.304,0.492 -0.719,1.834 -2.273,2.983 -1.555,1.149 -3.07,3.021 -3.368,4.159 -0.444,1.701 -0.078,2.07 2.057,2.07 2.424,0 2.474,-0.09 0.753,-1.348 -2.001,-1.463 -1.316,-3.888 0.863,-3.052 0.775,0.298 1.562,-0.351 1.874,-1.543 0.628,-2.401 3.907,-2.747 5.689,-0.601 1.393,1.679 0.557,3.681 -1.248,2.988 -1.738,-0.666 -4.064,3.223 -2.505,4.187 0.644,0.398 1.347,0.194 1.563,-0.453 0.259,-0.776 1.69,-0.968 4.212,-0.564 5.991,0.958 13.402,-2.018 19.383,-7.783 3.872,-3.732 4.775,-5.124 3.74,-5.764 -0.751,-0.464 -1.051,-1.351 -0.668,-1.972 0.383,-0.62 1.166,-0.838 1.74,-0.483 0.573,0.354 1.435,0.024 1.915,-0.734 1.305,-2.059 1.085,-2.885 -0.596,-2.24 -0.965,0.371 -1.5,-0.021 -1.5,-1.098 0,-1.185 0.551,-1.5 1.884,-1.077 2.273,0.722 3.059,-1.728 3.757,-11.713 0.395,-5.644 0.217,-6.75 -1.085,-6.75 -1.808,0 -2.015,-1.141 -0.483,-2.673 1.422,-1.422 -0.627,-9.219 -2.625,-9.985 -0.797,-0.306 -1.448,-1.57 -1.448,-2.808 0,-4.467 -10.333,-14.809 -17.528,-17.545 -2.811,-1.068 -2.836,-1.049 -1.109,0.86 m -23.039,2.019 c -0.473,1.811 -1.083,2.158 -2.96,1.687 -1.327,-0.333 -2.364,-0.146 -2.364,0.426 0,1.933 4.904,1.068 6.046,-1.067 0.614,-1.147 0.837,-2.365 0.495,-2.706 -0.341,-0.341 -0.889,0.406 -1.217,1.66 m 28.676,2.632 c 0,0.917 0.484,1.505 1.075,1.308 0.591,-0.197 1.075,-0.785 1.075,-1.308 0,-0.523 -0.484,-1.111 -1.075,-1.308 -0.591,-0.197 -1.075,0.391 -1.075,1.308 m 6.639,7.194 c -1.126,1.126 -0.685,2.306 0.861,2.306 0.825,0 1.5,-0.423 1.5,-0.941 0,-1.261 -1.562,-2.164 -2.361,-1.365 m -23.139,2.306 c 0.34,0.55 0.816,1 1.059,1 0.243,0 0.441,-0.45 0.441,-1 0,-0.55 -0.477,-1 -1.059,-1 -0.582,0 -0.781,0.45 -0.441,1 m 10.23,2.407 c -1.631,1.237 -1.572,1.343 0.75,1.343 1.471,0 2.52,-0.572 2.52,-1.375 0,-1.712 -0.984,-1.703 -3.27,0.032 m 7.964,-0.768 c -0.799,0.799 0.104,2.361 1.365,2.361 0.518,0 0.941,-0.675 0.941,-1.5 0,-1.546 -1.18,-1.987 -2.306,-0.861 m 4.306,0.861 c 0,0.825 0.45,1.5 1,1.5 0.55,0 1,-0.675 1,-1.5 0,-0.825 -0.45,-1.5 -1,-1.5 -0.55,0 -1,0.675 -1,1.5 m -25,3.302 c 0,1.537 0.443,1.965 1.584,1.527 0.871,-0.334 1.208,-0.887 0.75,-1.23 -0.459,-0.342 -1.171,-1.03 -1.584,-1.527 -0.413,-0.498 -0.75,0.056 -0.75,1.23 m 27.676,-0.4 c -0.628,1.636 0.11,2.598 1.991,2.598 0.733,0 1.333,-0.9 1.333,-2 0,-2.274 -2.508,-2.725 -3.324,-0.598 m -19.676,0.598 c 0,0.55 0.45,1 1,1 0.55,0 1,-0.45 1,-1 0,-0.55 -0.45,-1 -1,-1 -0.55,0 -1,0.45 -1,1 m 19.324,4.597 c -0.269,0.702 -1.127,1.032 -1.907,0.733 -0.86,-0.33 -1.417,0.087 -1.417,1.063 0,2.008 0.459,2.007 3.535,-0.008 1.514,-0.992 2.465,-1.185 2.465,-0.5 0,0.613 0.708,1.115 1.573,1.115 0.932,0 1.442,-0.68 1.25,-1.668 -0.384,-1.982 -4.794,-2.571 -5.499,-0.735 m -11.657,1.07 c -0.367,0.366 -0.667,1.321 -0.667,2.122 0,1.105 0.324,1.187 1.342,0.342 0.738,-0.612 1.736,-0.78 2.217,-0.372 0.481,0.407 0.272,-0.046 -0.464,-1.009 -1.521,-1.986 -1.524,-1.988 -2.428,-1.083 m -6.639,7.8 c -1.09,1.313 -0.885,1.533 1.433,1.533 1.644,0 2.55,-0.466 2.31,-1.187 -0.621,-1.864 -2.351,-2.024 -3.743,-0.346 m 21.445,3.281 c 0.824,3.282 1.106,3.63 2.326,2.876 1.44,-0.89 0.157,-5.624 -1.524,-5.624 -1.128,0 -1.324,0.67 -0.802,2.748 m -17.433,2.187 -2.461,1.891 4.205,-0.163 c 4.201,-0.163 5.686,-1.885 2.634,-3.056 -1.959,-0.752 -1.484,-0.896 -4.378,1.328 m -10.227,-0.252 c 0.721,0.289 1.584,0.253 1.916,-0.079 0.332,-0.332 -0.258,-0.568 -1.312,-0.525 -1.165,0.048 -1.402,0.285 -0.604,0.604 m 29.13,5.067 c -0.759,1.512 -1.543,3.088 -1.744,3.5 -0.201,0.412 0.182,0.75 0.85,0.75 1.551,0 4.951,-3.883 4.951,-5.653 0,-2.358 -2.628,-1.449 -4.057,1.403 m -23.4,-0.819 c -0.317,0.512 -0.118,1.213 0.441,1.559 0.559,0.345 1.016,-0.074 1.016,-0.931 0,-1.757 -0.6,-2.015 -1.457,-0.628 m -5.126,4.319 c -0.007,1.238 0.538,2.811 1.211,3.497 1.56,1.591 4.381,0.548 4.342,-1.604 -0.027,-1.445 -0.155,-1.43 -1.062,0.128 -1.332,2.288 -2.908,1.296 -2.908,-1.83 0,-1.343 -0.354,-2.441 -0.786,-2.441 -0.432,0 -0.791,1.012 -0.797,2.25 m -7.667,7.499 c -1.088,0.247 -1.75,1.333 -1.75,2.871 0,2.448 0.025,2.455 2.469,0.677 3.517,-2.561 3.14,-4.424 -0.719,-3.548 m 24.647,0.418 c -0.624,1.009 -0.681,0.986 3.353,1.326 2.035,0.171 3.25,-0.182 3.25,-0.943 0,-1.364 -5.79,-1.699 -6.603,-0.383 m 4.769,5.972 c 0.184,1.298 0.784,2.248 1.334,2.111 1.476,-0.369 1.216,-3.511 -0.334,-4.028 -0.915,-0.305 -1.229,0.298 -1,1.917 m -41.166,0.794 c 0,0.587 1.035,1.067 2.3,1.067 1.265,0 2.84,0.54 3.5,1.2 0.933,0.933 1.2,0.859 1.2,-0.333 0,-0.844 -0.562,-1.538 -1.25,-1.543 -0.687,-0.005 -2.262,-0.336 -3.5,-0.734 -1.381,-0.445 -2.25,-0.312 -2.25,0.343 m 30,4.567 c 0,0.825 0.45,1.5 1,1.5 0.55,0 1,-0.675 1,-1.5 0,-0.825 -0.45,-1.5 -1,-1.5 -0.55,0 -1,0.675 -1,1.5 m 4.222,-0.334 c 0.517,1.55 3.659,1.81 4.028,0.334 0.137,-0.55 -0.813,-1.15 -2.111,-1.334 -1.619,-0.229 -2.222,0.085 -1.917,1 m -29.222,0.727 c 0,0.491 0.739,1.176 1.641,1.523 1.373,0.527 1.435,0.38 0.378,-0.893 -1.44,-1.735 -2.019,-1.916 -2.019,-0.63 m 19.625,-0.095 c -0.271,0.439 -0.091,1.447 0.399,2.241 0.675,1.092 1.175,1.162 2.047,0.29 0.635,-0.635 0.852,-1.644 0.483,-2.242 -0.79,-1.278 -2.23,-1.42 -2.929,-0.289 m 64.284,2.098 c -11.123,3.559 -20.488,12.463 -25.086,23.852 -2.039,5.048 -2.315,7.366 -2.258,18.95 0.062,12.574 0.204,13.468 3,18.902 3.887,7.553 8.464,11.032 19.653,14.937 l 9.282,3.24 -0.26,12.861 c -0.143,7.074 -0.691,31.987 -1.217,55.362 -0.527,23.375 -1.256,69.613 -1.62,102.75 l -0.663,60.25 h 2.468 2.468 l 0.675,-63.75 c 0.719,-67.924 2.254,-142.732 3.243,-158.055 0.494,-7.649 0.875,-9.25 2.143,-9 1.758,0.348 1.75,-1.493 0.244,56.185 -0.515,19.734 -1.245,67.097 -1.622,105.25 l -0.685,69.37 h 2.663 2.663 v -41.35 c 0,-39.925 1.428,-124.912 2.823,-168.075 l 0.677,-20.924 8.427,-1.811 c 9.67,-2.078 17.777,-6.464 22.188,-12.004 12.893,-16.194 12.265,-42.509 -1.34,-56.113 -10.636,-10.637 -32.795,-15.648 -47.866,-10.827 m -88.508,2.92 c -0.551,0.376 -9.188,12.05 -19.191,25.943 -14.644,20.335 -18.314,26.085 -18.829,29.5 -0.577,3.832 1.351,1.463 19.99,-24.549 11.346,-15.835 20.629,-29.196 20.629,-29.691 0,-1.322 -1.444,-1.99 -2.599,-1.203 m 110.599,1.184 c 0,0.55 -0.9,1 -2,1 -2.109,0 -2.691,1.455 -1,2.5 0.55,0.34 1,0.194 1,-0.324 0,-0.843 1.587,-1.554 4.5,-2.017 0.55,-0.087 1.056,0.291 1.125,0.841 0.287,2.293 0.557,2.396 1.309,0.5 0.482,-1.217 0.357,-2.288 -0.32,-2.735 -1.632,-1.076 -4.614,-0.924 -4.614,0.235 m -13,1.566 c 0,1.875 2.601,2.446 4.574,1.004 1.6,-1.17 1.467,-1.337 -1.403,-1.758 -2.083,-0.306 -3.171,-0.047 -3.171,0.754 m 20.882,0.684 c -0.066,0.688 -0.05,1.635 0.035,2.105 0.084,0.471 -0.339,1.448 -0.94,2.173 -0.845,1.018 -0.569,1.392 1.215,1.645 2.82,0.4 3.973,4.827 1.256,4.827 -1.227,0 -0.422,1.485 2.931,5.409 2.541,2.976 4.621,5.676 4.621,6 0,0.325 -0.9,0.591 -2,0.591 -1.1,0 -1.99,0.338 -1.978,0.75 0.04,1.353 3.933,5.782 3.956,4.5 0.032,-1.81 3.022,-1.542 3.022,0.271 0,0.837 -1.238,2.053 -2.75,2.703 -3.633,1.56 -3.552,1.479 -2.761,2.758 0.505,0.818 1.052,0.814 2.053,-0.017 1.047,-0.869 1.875,-0.655 3.568,0.923 1.944,1.811 2.01,2.129 0.555,2.687 -1.196,0.459 -1.476,1.33 -1.017,3.16 0.943,3.756 -1.881,2.421 -3.18,-1.504 -0.797,-2.407 -1.367,-2.903 -2.5,-2.175 -1.287,0.828 -1.284,1.062 0.026,1.904 2.61,1.676 0.74,10.04 -2.245,10.04 -0.63,0 -0.758,-1.873 -0.343,-5 0.691,-5.209 0.181,-5.881 -2.805,-3.697 -1.62,1.184 -1.637,1.422 -0.191,2.622 0.874,0.726 1.59,1.715 1.59,2.197 0,1.594 -3.88,0.912 -4.964,-0.872 -0.844,-1.388 -0.929,-1.13 -0.415,1.25 0.357,1.65 1.786,3.938 3.175,5.084 3.343,2.758 2.131,5.069 -1.433,2.734 -2.028,-1.328 -2.694,-1.4 -3.337,-0.361 -0.46,0.745 -1.341,0.966 -2.066,0.518 -0.999,-0.617 -0.971,-1.009 0.139,-1.878 0.77,-0.603 1.499,-2.447 1.62,-4.097 0.163,-2.235 -0.025,-2.617 -0.735,-1.5 -0.524,0.825 -0.96,2.302 -0.969,3.281 -0.008,0.98 -0.803,2.083 -1.765,2.452 -2.394,0.916 -5.176,4.393 -5.217,6.517 -0.035,1.878 -2.033,2.5 -2.033,0.633 0,-0.658 -0.903,-0.88 -2.199,-0.541 -3.231,0.845 -8.751,-2.816 -8.085,-5.362 0.286,-1.095 0.021,-1.98 -0.593,-1.98 -1.178,0 -1.071,2.69 0.188,4.706 0.462,0.74 -0.222,1.845 -1.771,2.859 -2.539,1.664 -2.558,3.726 -0.03,3.212 0.747,-0.153 1.501,0.173 1.674,0.723 0.174,0.55 -0.922,1.142 -2.434,1.316 -1.964,0.226 -2.75,-0.131 -2.75,-1.25 0,-1.865 -1.655,-2.097 -2.254,-0.316 -0.545,1.62 -3.746,-0.834 -3.746,-2.872 0,-1.623 1.602,-1.832 2.53,-0.329 0.443,0.716 1.094,0.678 2.059,-0.123 0.776,-0.644 1.418,-0.778 1.426,-0.298 0.018,0.99 1.946,-1.76 1.97,-2.808 0.008,-0.374 -1.329,-0.295 -2.972,0.176 -3.026,0.868 -4.696,-0.081 -3.513,-1.996 0.351,-0.567 -0.49,-1 -1.941,-1 -2.161,0 -2.559,-0.454 -2.559,-2.918 0,-4.118 -1.045,-6.627 -2.069,-4.97 -0.435,0.704 -0.338,2.127 0.216,3.162 1.2,2.242 0.418,4.85 -1.345,4.485 -0.69,-0.142 -1.409,0.753 -1.598,1.991 -0.383,2.513 1.262,3.085 2.158,0.75 0.822,-2.142 2.638,-1.855 2.638,0.417 0,1.054 0.476,2.075 1.057,2.269 0.582,0.194 0.751,1.15 0.377,2.125 -0.876,2.282 -3.041,1.564 -2.595,-0.861 0.282,-1.534 0.088,-1.634 -1.161,-0.598 -1.015,0.842 -1.71,0.906 -2.148,0.197 -0.356,-0.577 -1.184,-1.042 -1.839,-1.033 -1.799,0.024 4.844,5.549 8.487,7.058 2.437,1.009 3.284,1.039 3.589,0.124 0.22,-0.659 0.86,-1.198 1.423,-1.198 0.563,0 0.77,0.663 0.459,1.474 -0.416,1.082 0.797,1.878 4.574,3 5.7,1.692 20.777,2.092 20.777,0.551 0,-0.536 1.241,-0.727 2.758,-0.423 4.761,0.952 14.061,-3.291 19.807,-9.037 7.124,-7.124 9.751,-14.147 9.751,-26.065 0,-6.996 -0.51,-10.318 -2.293,-14.919 -2.751,-7.1 -9.63,-15.152 -11.57,-13.542 -1.413,1.173 -2.999,-0.346 -2.019,-1.933 0.304,-0.492 -1.253,-1.617 -3.461,-2.5 -4.825,-1.931 -4.941,-1.939 -5.091,-0.356 m 2.785,1.417 c -1.038,1.037 -0.784,4.333 0.333,4.333 0.55,0 1,-1.125 1,-2.5 0,-2.618 -0.231,-2.936 -1.333,-1.833 m -12.667,2.215 c 0,0.55 0.45,1.278 1,1.618 0.55,0.34 1,0.168 1,-0.382 0,-0.55 -0.45,-1.278 -1,-1.618 -0.55,-0.34 -1,-0.168 -1,0.382 m 17,4.118 c 0,0.55 0.45,1 1,1 0.55,0 1,-0.45 1,-1 0,-0.55 -0.45,-1 -1,-1 -0.55,0 -1,0.45 -1,1 m -3.457,2.93 c -0.933,1.51 0.623,4.185 2.25,3.869 0.848,-0.164 1.692,-0.753 1.877,-1.307 0.44,-1.323 -3.414,-3.716 -4.127,-2.562 m 8,1.001 c -0.683,1.105 0.894,2.299 1.818,1.375 0.95,-0.951 0.773,-2.306 -0.302,-2.306 -0.518,0 -1.2,0.419 -1.516,0.931 m -217.672,0.941 c -0.754,0.249 -1.87,1.129 -2.479,1.957 -0.61,0.827 -2.483,1.504 -4.161,1.504 -2.588,0 -3.116,0.432 -3.469,2.834 -0.348,2.37 -0.06,2.833 1.76,2.833 1.622,0 2.589,1.055 3.805,4.151 1.563,3.979 1.548,4.223 -0.369,5.885 -1.644,1.426 -1.737,1.835 -0.525,2.3 1.013,0.389 1.863,-0.512 2.721,-2.885 0.93,-2.572 1.833,-3.451 3.547,-3.451 2.696,0 3.158,2.687 0.549,3.192 -1.238,0.24 -0.652,0.86 2,2.12 3.819,1.814 4.962,3.688 2.25,3.688 -2.24,0 -1.81,1.686 0.59,2.313 1.474,0.386 1.919,1.083 1.512,2.367 -0.485,1.528 -0.005,1.82 2.989,1.82 2.242,0 4.043,-0.65 4.848,-1.75 2.831,-3.867 4.865,-1.057 2.096,2.896 -0.805,1.15 -1.183,2.373 -0.839,2.717 0.984,0.984 -2.923,4.764 -4.356,4.214 -0.708,-0.272 -1.716,0.273 -2.241,1.211 -0.824,1.472 -1.409,1.543 -4.277,0.518 -2.572,-0.919 -2.893,-0.919 -1.419,0.003 1.046,0.655 2.609,1.978 3.472,2.941 1.842,2.054 3.122,2.258 3.133,0.5 0.008,-1.262 4.377,-3.75 6.584,-3.75 1.763,0 2.683,3.209 1.192,4.155 -0.706,0.448 -2.104,0.821 -3.107,0.83 -1.19,0.01 -1.707,0.619 -1.489,1.754 0.431,2.236 3.812,2.976 3.812,0.834 0,-0.865 0.675,-1.573 1.5,-1.573 0.825,0 1.5,0.464 1.5,1.031 0,0.568 -0.675,1.291 -1.5,1.607 -0.828,0.318 -1.5,1.803 -1.5,3.314 0,2.937 -2.678,6.048 -5.206,6.048 -1.993,0 -4.331,2.654 -2.791,3.168 0.597,0.199 1.154,1.266 1.237,2.371 0.108,1.434 0.855,2.002 2.608,1.985 3.627,-0.036 3.729,2.127 0.186,3.958 -3.49,1.805 -5.823,1.174 -3.96,-1.071 0.92,-1.108 0.848,-1.411 -0.335,-1.411 -0.828,0 -1.725,0.84 -1.994,1.866 -0.403,1.544 -1.372,1.837 -5.616,1.703 -4.903,-0.156 -6.361,0.552 -4.063,1.972 1.782,1.101 7.894,0.737 9.461,-0.563 1.162,-0.965 1.79,-0.96 2.973,0.022 0.825,0.685 1.514,0.852 1.532,0.372 0.017,-0.479 0.692,0.002 1.5,1.069 0.886,1.172 1.468,1.423 1.468,0.633 0,-0.814 0.753,-1.11 1.995,-0.785 1.717,0.448 1.905,0.163 1.351,-2.048 -0.561,-2.235 -0.398,-2.468 1.254,-1.792 4.94,2.023 5.4,1.909 5.4,-1.332 0,-1.715 0.45,-3.117 1,-3.117 0.55,0 1,0.675 1,1.5 0,0.825 0.45,1.5 1,1.5 0.55,0 1,-0.464 1,-1.031 0,-0.568 0.787,-1.31 1.75,-1.649 2.719,-0.96 6.154,-4.406 5.664,-5.683 -0.243,-0.633 0.577,-1.598 1.822,-2.144 3.777,-1.657 7.143,-11.501 7.178,-20.993 0.025,-6.631 -0.433,-8.999 -2.676,-13.836 -5.31,-11.451 -12.822,-18.033 -24.862,-21.78 -5.542,-1.724 -14.347,-2.22 -18.005,-1.012 m 202.129,1.187 c 0,0.582 0.45,0.781 1,0.441 0.55,-0.34 1,-0.816 1,-1.059 0,-0.243 -0.45,-0.441 -1,-0.441 -0.55,0 -1,0.477 -1,1.059 m -44,2.5 c 0,0.857 0.457,1.276 1.016,0.931 0.559,-0.346 0.758,-1.047 0.441,-1.559 -0.857,-1.387 -1.457,-1.129 -1.457,0.628 m 55.469,-0.509 c -0.833,1.349 -0.639,1.508 2.879,2.353 2.102,0.505 2.735,0.345 2.417,-0.609 -0.238,-0.712 -0.844,-1.301 -1.348,-1.309 -0.504,-0.009 -1.448,-0.354 -2.098,-0.767 -0.649,-0.413 -1.482,-0.263 -1.85,0.332 m -218.087,3.142 c -0.534,0.863 2.281,3.702 3.746,3.776 1.147,0.058 3.053,-2.866 2.476,-3.799 -0.744,-1.205 -5.475,-1.187 -6.222,0.023 m 9.618,1.808 c 0,1.111 0.667,2 1.5,2 0.833,0 1.5,-0.889 1.5,-2 0,-1.111 -0.667,-2 -1.5,-2 -0.833,0 -1.5,0.889 -1.5,2 m 6.446,-0.913 c -1.03,1.668 1.287,3.58 2.667,2.2 1.154,-1.154 0.432,-3.287 -1.113,-3.287 -0.485,0 -1.184,0.489 -1.554,1.087 m 196.054,-0.087 c 0.34,0.55 0.816,1 1.059,1 0.243,0 0.441,-0.45 0.441,-1 0,-0.55 -0.477,-1 -1.059,-1 -0.582,0 -0.781,0.45 -0.441,1 m 12.5,2 c 0,0.55 0.45,1 1,1 0.55,0 1,-0.45 1,-1 0,-0.55 -0.45,-1 -1,-1 -0.55,0 -1,0.45 -1,1 m -218.39,0.822 c -0.279,0.452 0.407,1.604 1.525,2.561 1.118,0.958 1.777,2.404 1.465,3.216 -0.311,0.812 0.101,1.733 0.917,2.046 0.816,0.313 1.483,1.229 1.483,2.035 0,0.859 0.726,1.327 1.75,1.13 0.963,-0.186 1.637,-0.669 1.5,-1.074 -0.137,-0.405 -0.25,-1.656 -0.25,-2.78 0,-1.392 -0.558,-1.95 -1.75,-1.75 -1.222,0.205 -1.655,-0.262 -1.435,-1.548 0.446,-2.611 -3.957,-5.856 -5.205,-3.836 m 214.933,0.109 c -0.683,1.105 0.894,2.299 1.818,1.375 0.95,-0.951 0.773,-2.306 -0.302,-2.306 -0.518,0 -1.2,0.419 -1.516,0.931 m -235.543,2.014 c 0,0.493 1.463,1.209 3.25,1.591 1.787,0.382 3.793,1.132 4.456,1.666 1.623,1.306 3.351,0.111 2.615,-1.808 -0.398,-1.036 -1.346,-1.353 -2.887,-0.967 -1.262,0.317 -3.451,0.137 -4.865,-0.401 -1.453,-0.552 -2.569,-0.587 -2.569,-0.081 m 28,0.555 c 0,0.917 0.484,1.505 1.075,1.308 0.591,-0.197 1.075,-0.786 1.075,-1.308 0,-0.522 -0.484,-1.111 -1.075,-1.308 -0.591,-0.197 -1.075,0.391 -1.075,1.308 m 210,1.465 c 0,1.348 3.83,3.258 5.037,2.512 1.447,-0.894 0.014,-2.711 -1.638,-2.077 -0.77,0.296 -1.399,0.101 -1.399,-0.431 0,-0.533 -0.45,-0.969 -1,-0.969 -0.55,0 -1,0.434 -1,0.965 m -10.643,1.535 c 0.825,0.825 2.014,1.5 2.643,1.5 0.698,0 0.56,-0.583 -0.357,-1.5 -0.825,-0.825 -2.014,-1.5 -2.643,-1.5 -0.698,0 -0.56,0.583 0.357,1.5 m -189.718,0.194 c -1.195,1.195 -0.645,3.306 0.861,3.306 0.825,0 1.5,-0.648 1.5,-1.441 0,-1.671 -1.427,-2.798 -2.361,-1.865 m 187.861,4.306 c 0.34,0.55 0.816,1 1.059,1 0.243,0 0.441,-0.45 0.441,-1 0,-0.55 -0.477,-1 -1.059,-1 -0.582,0 -0.781,0.45 -0.441,1 m 15.083,-0.134 c -0.431,0.697 -0.513,1.537 -0.183,1.867 0.895,0.895 1.871,-0.421 1.387,-1.871 -0.338,-1.016 -0.574,-1.016 -1.204,0.004 m -209.906,0.884 c -2.156,3.662 -1.178,10.45 1.012,7.021 0.446,-0.699 1.374,-1.271 2.061,-1.271 0.688,0 1.151,-0.45 1.03,-1 -0.122,-0.55 -0.797,-0.868 -1.5,-0.706 -1.831,0.42 -1.586,-1.463 0.283,-2.18 0.86,-0.33 1.284,-1.053 0.941,-1.607 -0.727,-1.178 -3.188,-1.343 -3.827,-0.257 m 141.136,-0.067 c 0.721,0.289 1.584,0.253 1.916,-0.079 0.332,-0.332 -0.258,-0.568 -1.312,-0.525 -1.165,0.048 -1.402,0.285 -0.604,0.604 m -135.27,1.248 c -0.683,1.105 0.894,2.299 1.818,1.375 0.95,-0.951 0.773,-2.306 -0.302,-2.306 -0.518,0 -1.2,0.419 -1.516,0.931 m -19.543,2.397 c 0,0.865 -0.787,2.031 -1.75,2.592 -2.607,1.519 -0.885,1.291 2.151,-0.284 2.289,-1.188 2.433,-1.529 1.115,-2.623 -1.245,-1.033 -1.516,-0.977 -1.516,0.315 m 24.682,4.731 c -2.124,2.481 -1.404,3.941 1.944,3.941 2.136,0 2.408,-0.334 1.829,-2.25 -1.062,-3.514 -1.893,-3.887 -3.773,-1.691 m 69.318,-1.059 c 0,0.55 0.423,1 0.941,1 0.518,0 1.219,-0.45 1.559,-1 0.34,-0.55 -0.084,-1 -0.941,-1 -0.857,0 -1.559,0.45 -1.559,1 m 63.272,2.079 c 0.86,1.389 0.907,2.197 0.155,2.702 -2.1,1.407 -2.384,4.383 -0.767,8.025 1.233,2.775 1.749,3.247 2.073,1.896 0.238,-0.989 -0.092,-2.43 -0.733,-3.202 -1.25,-1.506 -0.475,-5.5 1.067,-5.5 0.513,0 0.933,-0.9 0.933,-2 0,-1.467 0.667,-2 2.5,-2 4.399,0 2.658,-1.492 -1.985,-1.702 -4.225,-0.191 -4.404,-0.092 -3.243,1.781 m -154.243,-0.118 c -0.809,0.512 -1.136,1.265 -0.726,1.675 0.409,0.41 1.505,-0.016 2.435,-0.946 1.807,-1.807 0.726,-2.269 -1.709,-0.729 m 96.998,3.134 c 0.535,1.865 0.973,3.507 0.973,3.648 0,0.142 -0.838,0.257 -1.861,0.257 -1.42,0 -1.754,0.563 -1.408,2.371 0.392,2.051 -0.028,2.462 -3.104,3.039 -1.956,0.367 -3.824,1.1 -4.151,1.629 -0.877,1.419 2.915,1.169 4.378,-0.289 1.004,-1.001 1.617,-0.77 3.072,1.156 1.17,1.549 2.398,2.184 3.446,1.781 2.044,-0.784 2.135,-2.687 0.128,-2.687 -0.825,0 -1.5,-0.675 -1.5,-1.5 0,-0.825 0.675,-1.5 1.5,-1.5 0.825,0 1.5,-0.45 1.5,-1 0,-0.55 0.788,-1.029 1.75,-1.063 1.284,-0.047 1.121,-0.316 -0.614,-1.01 -1.819,-0.729 -2.11,-1.253 -1.263,-2.274 0.838,-1.009 0.512,-1.882 -1.358,-3.639 l -2.461,-2.312 0.973,3.393 m -92.991,0.361 c -1.647,1.985 -0.349,4.049 1.553,2.47 1.558,-1.293 1.915,-3.926 0.533,-3.926 -0.482,0 -1.421,0.655 -2.086,1.456 m 82.964,-0.456 c 0,0.55 0.477,1 1.059,1 0.582,0 0.781,-0.45 0.441,-1 -0.34,-0.55 -0.816,-1 -1.059,-1 -0.243,0 -0.441,0.45 -0.441,1 m 4,0.5 c 0,0.825 0.177,1.5 0.393,1.5 0.216,0 0.652,-0.675 0.969,-1.5 0.316,-0.825 0.139,-1.5 -0.393,-1.5 -0.533,0 -0.969,0.675 -0.969,1.5 m 76.03,1.05 c 0.027,2.586 0.163,2.722 1.104,1.104 0.769,-1.324 0.761,-2.159 -0.03,-2.95 -0.805,-0.805 -1.096,-0.305 -1.074,1.846 m 48.162,-1.475 c 0.197,0.591 0.786,1.075 1.308,1.075 0.522,0 1.111,-0.484 1.308,-1.075 0.197,-0.591 -0.391,-1.075 -1.308,-1.075 -0.917,0 -1.505,0.484 -1.308,1.075 m -42.682,0.941 c 0.346,0.559 1.047,0.758 1.559,0.441 1.387,-0.857 1.129,-1.457 -0.628,-1.457 -0.857,0 -1.276,0.457 -0.931,1.016 m -0.935,2.863 c -0.31,0.501 0.109,1.169 0.931,1.485 0.822,0.315 1.494,0.164 1.494,-0.336 0,-1.356 -1.777,-2.198 -2.425,-1.149 m -153.978,0.965 c -0.346,0.56 -0.142,1.319 0.453,1.687 1.538,0.95 2.53,-0.351 1.246,-1.635 -0.718,-0.718 -1.277,-0.735 -1.699,-0.052 m 6.862,0.223 c -0.605,0.979 2.119,3.827 3.732,3.901 1.68,0.078 1.539,-1.754 -0.254,-3.29 -2.303,-1.972 -2.605,-2.025 -3.478,-0.611 m 6.77,0.121 c 0.618,1.854 2.771,2.161 2.771,0.395 0,-0.87 -0.713,-1.583 -1.583,-1.583 -0.871,0 -1.406,0.534 -1.188,1.188 m 156.021,0.153 c -4.451,1.092 -5.38,2.288 -2.605,3.353 0.974,0.374 2.14,-0.047 2.86,-1.032 0.668,-0.914 1.702,-1.662 2.296,-1.662 0.595,0 1.359,-0.45 1.699,-1 0.34,-0.55 0.479,-0.933 0.309,-0.851 -0.17,0.082 -2.222,0.619 -4.559,1.192 m -100.378,1.409 c -1.193,1.522 -1.177,1.601 0.128,0.608 0.825,-0.629 2.4,-1.364 3.5,-1.634 1.9,-0.467 1.893,-0.498 -0.128,-0.608 -1.17,-0.064 -2.745,0.671 -3.5,1.634 m 123.725,0.094 c -0.346,0.56 -0.142,1.319 0.453,1.687 1.538,0.95 2.53,-0.351 1.246,-1.635 -0.718,-0.718 -1.277,-0.735 -1.699,-0.052 m -189.209,2.337 c -0.337,0.546 -0.143,1.464 0.432,2.039 1.153,1.153 4.18,0.376 4.18,-1.072 0,-1.326 -3.886,-2.141 -4.612,-0.967 m 79.917,0.93 c 1.515,0.881 1.596,1.304 0.5,2.623 -0.718,0.866 -1.164,1.786 -0.992,2.046 0.284,0.428 -2.047,1.999 -5.695,3.839 -0.761,0.383 -2.217,0.176 -3.237,-0.461 -1.02,-0.637 -2.76,-1.158 -3.867,-1.158 -1.482,0 -2.014,-0.661 -2.014,-2.5 0,-1.375 -0.349,-2.5 -0.776,-2.5 -0.427,0 -0.604,1.815 -0.392,4.033 0.323,3.394 0.678,3.94 2.238,3.445 1.02,-0.324 2.884,-0.003 4.142,0.712 1.259,0.715 2.847,1.308 3.529,1.316 0.683,0.008 1.133,0.46 1,1.005 -0.132,0.544 -0.803,0.927 -1.491,0.85 -0.687,-0.076 -1.25,0.304 -1.25,0.846 0,0.541 -1.006,2.397 -2.236,4.124 -1.23,1.728 -2.102,3.935 -1.937,4.905 0.164,0.97 -0.18,1.764 -0.764,1.764 -1.099,0 -1.422,-1.231 -1.115,-4.25 0.098,-0.962 -0.301,-1.75 -0.885,-1.75 -0.585,0 -1.063,0.45 -1.063,1 0,0.55 -1.323,1 -2.941,1 -1.618,0 -3.219,-0.45 -3.559,-1 -0.964,-1.559 -3.5,-1.174 -3.5,0.531 0,0.843 -0.668,1.788 -1.486,2.102 -1.208,0.463 -1.085,0.894 0.66,2.306 3.008,2.436 1.642,4.242 -2.196,2.903 -3.129,-1.09 -3.831,-2.363 -1.728,-3.134 1,-0.366 1,-0.723 0,-1.783 -0.903,-0.957 -1.25,-0.992 -1.25,-0.125 0,0.66 -0.675,1.2 -1.5,1.2 -0.825,0 -1.5,-0.398 -1.5,-0.883 0,-0.486 -0.9,-1.119 -2,-1.407 -1.267,-0.331 -2,-1.364 -2,-2.816 0,-1.781 -0.268,-2.026 -1.197,-1.097 -1.584,1.584 1.999,6.569 5.047,7.023 1.33,0.197 2.15,1.041 2.15,2.211 0,1.04 0.968,2.793 2.151,3.895 1.817,1.693 1.947,2.25 0.839,3.587 -0.98,1.18 -1.503,1.275 -2.059,0.375 -0.41,-0.664 -0.514,-1.81 -0.231,-2.547 0.301,-0.786 -0.166,-1.341 -1.128,-1.341 -2.267,0 -6.572,-2.953 -6.572,-4.508 0,-1.429 -2.704,-2.8 -3.35,-1.698 -0.228,0.388 -0.735,2.2 -1.127,4.027 -0.51,2.377 -1.135,3.158 -2.2,2.75 -0.817,-0.314 -1.675,-0.571 -1.905,-0.571 -0.23,0 -0.418,-0.927 -0.418,-2.059 0,-1.132 -0.419,-1.8 -0.931,-1.484 -1.058,0.655 -2.574,-1.285 -1.693,-2.166 0.316,-0.317 1.242,-0.023 2.056,0.653 1.539,1.277 3.568,0.674 3.568,-1.062 0,-0.55 -0.419,-0.741 -0.931,-0.425 -0.512,0.317 -1.225,0.1 -1.584,-0.481 -0.359,-0.582 -1.515,-0.784 -2.569,-0.449 -1.195,0.379 -1.916,0.134 -1.916,-0.651 0,-0.698 -0.647,-0.394 -1.454,0.683 -1.287,1.719 -1.259,2.09 0.25,3.247 0.937,0.718 1.558,2.016 1.379,2.885 -0.231,1.125 0.163,1.393 1.371,0.93 1.318,-0.506 1.581,-0.215 1.183,1.307 -0.556,2.127 1.294,4.258 5.273,6.072 1.374,0.626 4.073,2.007 5.998,3.068 4.402,2.426 10.147,2.453 17.76,0.084 10.895,-3.391 19.472,-11.365 23.579,-21.922 2.023,-5.201 2.067,-6.23 0.268,-6.23 -1.338,0 -2.607,-2.039 -2.607,-4.189 0,-0.564 0.661,-0.771 1.468,-0.462 2.14,0.822 2.785,-0.893 2.026,-5.386 -0.541,-3.203 -1.084,-3.957 -2.832,-3.933 -1.992,0.028 -2.02,0.113 -0.357,1.081 m 100.292,-0.267 c -0.346,0.56 -0.142,1.319 0.453,1.687 1.538,0.95 2.53,-0.351 1.246,-1.635 -0.718,-0.718 -1.277,-0.735 -1.699,-0.052 m -6.597,0.991 c 0,0.551 -0.273,1.713 -0.607,2.583 -0.439,1.144 -0.004,1.582 1.57,1.582 1.665,0 2.101,-0.51 1.857,-2.172 -0.317,-2.151 -2.82,-3.92 -2.82,-1.993 m -157.306,2.804 c -0.799,0.799 0.104,2.361 1.365,2.361 0.518,0 0.941,-0.675 0.941,-1.5 0,-1.546 -1.18,-1.987 -2.306,-0.861 m 165.849,0.292 c -0.683,1.105 0.894,2.299 1.818,1.375 0.95,-0.951 0.773,-2.306 -0.302,-2.306 -0.518,0 -1.2,0.419 -1.516,0.931 m -198.543,2.128 c 0,0.582 0.45,0.781 1,0.441 0.55,-0.34 1,-0.816 1,-1.059 0,-0.243 -0.45,-0.441 -1,-0.441 -0.55,0 -1,0.477 -1,1.059 m 21.173,1.036 c -0.721,1.155 -1.094,2.317 -0.828,2.583 0.852,0.853 4.791,-1.771 4.403,-2.933 -0.655,-1.967 -2.224,-1.814 -3.575,0.35 m 153.827,-0.262 c 0,2.645 0.95,3.215 3.108,1.868 2.679,-1.674 2.346,-3.701 -0.608,-3.701 -1.758,0 -2.5,0.544 -2.5,1.833 m 10.5,-0.833 c -0.351,0.568 -1.057,0.774 -1.569,0.457 -0.512,-0.316 -0.931,0.1 -0.931,0.925 0,0.825 0.45,1.778 1,2.118 0.55,0.34 1,0.141 1,-0.441 0,-0.582 0.675,-1.059 1.5,-1.059 0.825,0 1.5,-0.423 1.5,-0.941 0,-1.457 -1.786,-2.214 -2.5,-1.059 m -169.861,2.694 c -1.126,1.126 -0.685,2.306 0.861,2.306 0.825,0 1.5,-0.423 1.5,-0.941 0,-1.261 -1.562,-2.164 -2.361,-1.365 m -15.639,1.4 c 0,0.498 0.413,0.906 0.918,0.906 0.505,0 1.704,0.301 2.664,0.67 1.098,0.421 1.505,0.28 1.098,-0.379 -0.855,-1.383 -4.68,-2.361 -4.68,-1.197 m 54.5,-0.094 c -0.34,0.55 0.11,1 1,1 0.89,0 1.34,-0.45 1,-1 -0.34,-0.55 -0.79,-1 -1,-1 -0.21,0 -0.66,0.45 -1,1 m 115.65,-0.05 c 0.22,0.66 0.726,1.166 1.125,1.125 1.196,-0.124 0.964,-1.495 -0.325,-1.925 -0.66,-0.22 -1.02,0.14 -0.8,0.8 m 10.544,-0.311 c -0.799,0.799 0.104,2.361 1.365,2.361 0.518,0 0.941,-0.675 0.941,-1.5 0,-1.546 -1.18,-1.987 -2.306,-0.861 m -107.651,1.809 c -0.9,1.085 -0.919,1.899 -0.074,3.25 1.009,1.615 1.065,1.576 0.535,-0.374 -0.403,-1.482 -0.02,-2.508 1.202,-3.219 0.987,-0.574 1.287,-1.058 0.666,-1.075 -0.62,-0.016 -1.668,0.621 -2.329,1.418 m -58.043,2.611 c 0,0.582 -0.419,0.8 -0.931,0.484 -1.349,-0.834 -2.478,1.448 -1.3,2.626 0.66,0.66 1.708,0.55 3.113,-0.327 2.446,-1.528 2.818,-3.842 0.618,-3.842 -0.825,0 -1.5,0.477 -1.5,1.059 m 66,0.382 c 0,2.312 1.724,2.724 2.293,0.548 0.337,-1.289 0.025,-1.989 -0.887,-1.989 -0.773,0 -1.406,0.648 -1.406,1.441 m -61.403,0.403 c -0.346,0.56 -0.142,1.319 0.453,1.687 1.538,0.95 2.53,-0.351 1.246,-1.635 -0.718,-0.718 -1.277,-0.735 -1.699,-0.052 m 21.009,1.74 c -0.373,0.973 -0.15,1.431 0.581,1.187 1.495,-0.498 2.318,-2.771 1.003,-2.771 -0.537,0 -1.249,0.713 -1.584,1.584 m -34.008,0.151 c -1.208,1.208 -0.527,2.251 2.492,3.812 3.049,1.576 5.91,1.383 5.91,-0.399 0,-0.503 -0.787,-1.185 -1.75,-1.515 -0.963,-0.33 -2.718,-1.027 -3.902,-1.548 -1.183,-0.521 -2.421,-0.679 -2.75,-0.35 m 81.952,0.184 c -0.313,0.506 0.172,1.66 1.077,2.565 2.139,2.139 4.329,0.373 2.408,-1.942 -1.453,-1.751 -2.655,-1.965 -3.485,-0.623 m 5.45,1.581 c 0,1.375 0.45,2.5 1,2.5 0.55,0 1,-1.125 1,-2.5 0,-1.375 -0.45,-2.5 -1,-2.5 -0.55,0 -1,1.125 -1,2.5 m -77.531,1.55 c -0.95,1.538 0.351,2.53 1.635,1.246 0.718,-0.718 0.735,-1.277 0.052,-1.699 -0.56,-0.346 -1.319,-0.142 -1.687,0.453 m 32.791,0.496 c -0.845,0.919 -0.904,1.556 -0.184,2.001 1.378,0.852 2.188,-0.008 1.762,-1.87 -0.282,-1.237 -0.541,-1.259 -1.578,-0.131 m 11.74,-0.546 c 0,0.55 0.45,1 1,1 0.55,0 1,-0.45 1,-1 0,-0.55 -0.45,-1 -1,-1 -0.55,0 -1,0.45 -1,1 m -77,2.622 c 0,1.329 0.271,1.398 1.5,0.378 0.825,-0.685 1.5,-1.415 1.5,-1.622 0,-0.208 -0.675,-0.378 -1.5,-0.378 -0.825,0 -1.5,0.73 -1.5,1.622 m 7.731,0.298 c -0.435,1.663 -0.305,2.054 0.437,1.312 0.582,-0.582 0.86,-1.647 0.62,-2.369 -0.25,-0.749 -0.703,-0.295 -1.057,1.057 m 24.807,23.222 c -22.003,31.027 -36.538,52.608 -36.538,54.251 0,0.684 3.633,9.763 8.073,20.175 4.441,10.413 8.713,20.443 9.494,22.29 l 1.421,3.358 7.256,-6.342 c 20.65,-18.048 33.288,-33.106 42.739,-50.924 l 5.839,-11.008 1.116,-12.721 c 0.613,-6.997 1.345,-14.164 1.626,-15.927 0.485,-3.05 0.264,-3.312 -4.547,-5.382 -6.58,-2.83 -14.28,-11.178 -16.513,-17.9 -0.916,-2.757 -1.771,-5.012 -1.9,-5.012 -0.13,0 -8.259,11.314 -18.066,25.142 m 54.462,-22.694 c 0,1.347 1.125,3.663 2.5,5.147 2.923,3.154 3.024,3.725 0.958,5.44 -1.029,0.854 -1.209,1.614 -0.543,2.28 1.589,1.589 3.974,-1.074 3.654,-4.078 -0.155,-1.452 -0.796,-2.813 -1.425,-3.022 -0.629,-0.21 -1.144,-1.008 -1.144,-1.773 0,-1.013 0.816,-1.229 3,-0.792 2.247,0.449 3,0.23 3,-0.873 0,-0.969 -1.086,-1.504 -3.176,-1.563 -1.761,-0.05 -3.565,-0.786 -4.049,-1.652 -1.314,-2.347 -2.775,-1.88 -2.775,0.886 m -75,0.945 c 0,0.949 2.993,1.427 3.527,0.563 0.325,-0.526 -0.336,-0.956 -1.468,-0.956 -1.132,0 -2.059,0.177 -2.059,0.393 m 89,1.107 c 0,0.933 0.944,1.5 2.5,1.5 1.556,0 2.5,-0.567 2.5,-1.5 0,-0.933 -0.944,-1.5 -2.5,-1.5 -1.556,0 -2.5,0.567 -2.5,1.5 m -4.403,3.344 c -0.346,0.56 -0.142,1.319 0.453,1.687 1.538,0.95 2.53,-0.351 1.246,-1.635 -0.718,-0.718 -1.277,-0.735 -1.699,-0.052 m -95.597,1.156 c 0,0.55 0.45,1 1,1 0.55,0 1,-0.45 1,-1 0,-0.55 -0.45,-1 -1,-1 -0.55,0 -1,0.45 -1,1 m 83.168,3.918 c 0.097,2.488 0.642,4.082 1.396,4.082 1.645,0 1.357,-7.197 -0.31,-7.75 -0.875,-0.291 -1.198,0.803 -1.086,3.668 m -15.474,-2.279 c -0.799,0.799 0.104,2.361 1.365,2.361 0.518,0 0.941,-0.675 0.941,-1.5 0,-1.546 -1.18,-1.987 -2.306,-0.861 m -36.537,1.623 c -2.51,1.207 -8.794,9.765 -28.022,38.158 -6.674,9.856 -12.135,18.717 -12.135,19.691 0,4.044 2.065,2.344 7.755,-6.383 3.31,-5.075 12.636,-18.678 20.726,-30.228 8.09,-11.55 14.918,-21.337 15.173,-21.75 0.636,-1.028 -0.7,-0.833 -3.497,0.512 m 39.927,2.054 c -0.596,0.596 -1.084,1.642 -1.084,2.325 0,2.322 1.703,2.304 3.907,-0.042 2.142,-2.28 2.147,-2.352 0.229,-2.853 -1.082,-0.283 -2.455,-0.027 -3.052,0.57 m 21.916,1.684 c 0,0.55 0.423,1 0.941,1 0.518,0 1.219,-0.45 1.559,-1 0.34,-0.55 -0.084,-1 -0.941,-1 -0.857,0 -1.559,0.45 -1.559,1 m -14,4 c 0,0.55 0.45,1 1,1 0.55,0 1,-0.45 1,-1 0,-0.55 -0.45,-1 -1,-1 -0.55,0 -1,0.45 -1,1 m 193.237,5.351 c -2.986,0.979 -4.103,3.523 -1.257,2.864 0.677,-0.157 1.858,0.236 2.625,0.872 1.601,1.329 1.889,4.913 0.395,4.913 -0.55,0 -1,-0.45 -1,-1 0,-0.55 -0.675,-1 -1.5,-1 -2.198,0 -1.831,1.68 0.5,2.29 2.439,0.637 6,-0.197 6,-1.407 0,-0.485 0.708,-0.883 1.573,-0.883 2.318,0 1.336,3.315 -1.329,4.487 -1.234,0.543 -2.244,1.331 -2.244,1.75 0,0.42 -0.648,0.763 -1.441,0.763 -2.257,0 -2.704,1.638 -0.856,3.137 1.161,0.941 1.448,0.976 0.929,0.111 -0.491,-0.817 0.16,-1.599 1.873,-2.25 3.433,-1.305 3.49,-1.293 3.527,0.752 0.03,1.667 0.095,1.667 1.36,0 2.034,-2.68 2.868,-2.1 2.425,1.688 -0.298,2.56 0.014,3.546 1.226,3.863 1.227,0.321 1.522,-0.127 1.198,-1.821 -0.236,-1.235 0.043,-2.538 0.621,-2.895 0.578,-0.357 0.797,-1.31 0.487,-2.117 -0.309,-0.807 -0.091,-1.468 0.485,-1.468 1.376,0 2.295,1.537 1.435,2.398 -0.373,0.373 -0.728,1.673 -0.789,2.89 -0.344,6.85 -0.565,7.712 -1.98,7.712 -2.02,0 -1.896,1.59 0.25,3.198 1.76,1.318 6.25,7.254 6.25,8.262 0,0.297 -0.637,0.54 -1.417,0.54 -2.243,0 -2.385,2.198 -0.277,4.306 1.561,1.561 2.091,1.67 2.77,0.57 0.693,-1.12 1.068,-1.129 2.132,-0.05 1.058,1.071 0.94,1.569 -0.649,2.741 -1.068,0.788 -2.53,1.433 -3.25,1.433 -1.534,0 -1.764,2.601 -0.309,3.5 0.55,0.34 1,-0.084 1,-0.941 0,-0.857 0.45,-1.559 1,-1.559 0.55,0 1,0.45 1,1 0,0.55 0.675,1 1.5,1 1.739,0 1.998,1.574 0.419,2.55 -0.595,0.368 -0.811,1.744 -0.481,3.059 0.884,3.524 -1.909,3.083 -3.408,-0.537 -1.205,-2.909 -4.468,-5.378 -3.388,-2.563 0.349,0.909 -0.363,1.634 -2.01,2.047 -3.417,0.858 -5.207,3.009 -3.158,3.796 1.414,0.542 2.231,3.648 0.96,3.648 -1.571,0 -4.415,-2.222 -3.903,-3.05 0.323,-0.523 0.219,-0.95 -0.231,-0.95 -0.451,0 -1.35,0.851 -2,1.891 -1.025,1.641 -0.924,1.823 0.76,1.383 1.329,-0.348 1.94,0.002 1.94,1.109 0,1.058 0.864,1.617 2.5,1.617 1.375,0 2.557,-0.337 2.628,-0.75 0.07,-0.413 0.231,-1.723 0.359,-2.912 0.382,-3.566 1.363,-5.338 2.957,-5.338 1.423,0 1.424,3.096 10e-4,7.75 -0.419,1.371 0.538,1.578 2.973,0.643 0.87,-0.334 1.582,-1.234 1.582,-2 0,-1.732 1.674,-1.837 2.282,-0.143 0.691,1.924 9.088,-2.811 13.348,-7.526 7.78,-8.612 10.027,-20.792 5.998,-32.52 -2.462,-7.167 -10.86,-16.197 -17.867,-19.212 -5.139,-2.21 -20.076,-3.937 -19.516,-2.256 0.14,0.42 -0.195,0.831 -0.745,0.914 -0.55,0.083 -0.887,-0.255 -0.75,-0.75 0.303,-1.089 -1.186,-0.968 -5.513,0.451 m -194.681,2.899 c -0.21,0.688 -0.889,7.325 -1.509,14.75 -3.266,39.105 -11.399,101.811 -19.048,146.844 -3.466,20.41 -3.796,23.666 -2.624,25.902 1.255,2.395 1.481,1.803 3.538,-9.234 5.834,-31.303 13.724,-85.839 18.015,-124.512 2.347,-21.145 5.063,-49.423 5.069,-52.75 0.003,-2.397 -2.769,-3.202 -3.441,-1 m 210.997,-0.335 c -0.322,0.521 -0.159,1.21 0.362,1.532 0.521,0.322 1.21,0.159 1.532,-0.362 0.322,-0.521 0.159,-1.21 -0.362,-1.532 -0.521,-0.322 -1.21,-0.159 -1.532,0.362 m -23.053,2.085 c 0.503,1.584 0.18,2 -1.555,2 -1.833,0 -1.987,0.244 -0.945,1.5 0.685,0.825 2.042,1.5 3.015,1.5 0.974,0 2.03,-0.675 2.347,-1.5 0.316,-0.825 0.139,-1.5 -0.393,-1.5 -0.533,0 -0.969,-0.9 -0.969,-2 0,-1.1 -0.48,-2 -1.067,-2 -0.613,0 -0.797,0.853 -0.433,2 m 10.053,-1.085 c -0.322,0.521 -0.159,1.21 0.362,1.532 0.521,0.322 1.21,0.159 1.532,-0.362 0.322,-0.521 0.159,-1.21 -0.362,-1.532 -0.521,-0.322 -1.21,-0.159 -1.532,0.362 m 5.916,0.135 c -0.95,1.538 0.351,2.53 1.635,1.246 0.718,-0.718 0.735,-1.277 0.052,-1.699 -0.56,-0.346 -1.319,-0.142 -1.687,0.453 m 3.17,2.644 c -1.126,1.126 -0.685,2.306 0.861,2.306 0.825,0 1.5,-0.423 1.5,-0.941 0,-1.261 -1.562,-2.164 -2.361,-1.365 m -28.929,6.306 c -0.327,1.25 -0.03,2 0.79,2 0.82,0 1.117,-0.75 0.79,-2 -0.288,-1.1 -0.643,-2 -0.79,-2 -0.147,0 -0.502,0.9 -0.79,2 m 26.29,-1 c 0,0.55 0.45,1 1,1 0.55,0 1,-0.45 1,-1 0,-0.55 -0.45,-1 -1,-1 -0.55,0 -1,0.45 -1,1 m 9,1 c 0,0.55 0.45,1 1,1 0.55,0 1,-0.45 1,-1 0,-0.55 -0.45,-1 -1,-1 -0.55,0 -1,0.45 -1,1 m -28,1.933 c 0,1.231 2.745,2.102 4.5,1.429 2.404,-0.923 1.736,-1.845 -1.502,-2.072 -1.649,-0.115 -2.998,0.174 -2.998,0.643 m 29.553,3.982 c -0.322,0.521 -0.159,1.21 0.362,1.532 0.521,0.322 1.21,0.159 1.532,-0.362 0.322,-0.521 0.159,-1.21 -0.362,-1.532 -0.521,-0.322 -1.21,-0.159 -1.532,0.362 m -17.553,1.085 c 0,0.55 0.477,1 1.059,1 0.582,0 0.781,-0.45 0.441,-1 -0.34,-0.55 -0.816,-1 -1.059,-1 -0.243,0 -0.441,0.45 -0.441,1 m 16.543,2.931 c -0.683,1.105 0.894,2.299 1.818,1.375 0.95,-0.951 0.773,-2.306 -0.302,-2.306 -0.518,0 -1.2,0.419 -1.516,0.931 m -3.543,4.6 c 0,1.826 2.417,2.947 4.104,1.905 0.866,-0.536 0.688,-1.115 -0.644,-2.089 -2.406,-1.759 -3.46,-1.703 -3.46,0.184 m 8.469,-0.481 c -0.95,1.538 0.351,2.53 1.635,1.246 0.718,-0.718 0.735,-1.277 0.052,-1.699 -0.56,-0.346 -1.319,-0.142 -1.687,0.453 m -15.969,1.95 c -0.34,0.55 -0.168,1 0.382,1 0.55,0 1.278,-0.45 1.618,-1 0.34,-0.55 0.168,-1 -0.382,-1 -0.55,0 -1.278,0.45 -1.618,1 m 11.5,2.816 c 0,1.022 4.109,2.408 4.873,1.644 0.636,-0.636 0.002,-1.096 -2.623,-1.903 -1.241,-0.382 -2.25,-0.265 -2.25,0.259 m -6,3.184 c 0,0.55 0.477,1 1.059,1 0.582,0 0.781,-0.45 0.441,-1 -0.34,-0.55 -0.816,-1 -1.059,-1 -0.243,0 -0.441,0.45 -0.441,1 m 12.527,1.956 c -0.325,0.526 -1.252,0.703 -2.059,0.393 -0.915,-0.351 -1.468,0.042 -1.468,1.044 0,1.699 1.163,2.111 2.417,0.857 0.412,-0.413 1.237,-0.75 1.833,-0.75 0.596,0 1.271,-0.562 1.5,-1.25 0.486,-1.459 -1.353,-1.702 -2.223,-0.294 m -0.974,4.959 c -0.322,0.521 -0.159,1.21 0.362,1.532 0.521,0.322 1.21,0.159 1.532,-0.362 0.322,-0.521 0.159,-1.21 -0.362,-1.532 -0.521,-0.322 -1.21,-0.159 -1.532,0.362 m -11.383,1.985 c 0.652,1.045 1.793,1.668 2.534,1.383 1.678,-0.644 -0.199,-3.283 -2.335,-3.283 -1.111,0 -1.151,0.376 -0.199,1.9 m 14.299,-0.85 c -0.95,1.538 0.351,2.53 1.635,1.246 0.718,-0.718 0.735,-1.277 0.052,-1.699 -0.56,-0.346 -1.319,-0.142 -1.687,0.453 m -236.243,9.818 c -7.702,13.252 -21.213,28.503 -40.488,45.705 -5.859,5.229 -7.534,7.276 -6.833,8.352 0.731,1.121 3.428,-0.792 12.638,-8.963 22.352,-19.832 39.044,-40.677 38.274,-47.796 -0.306,-2.826 -0.433,-2.731 -3.591,2.702 m 220.274,-4.868 c -0.34,0.55 0.084,1 0.941,1 0.857,0 1.559,-0.45 1.559,-1 0,-0.55 -0.423,-1 -0.941,-1 -0.518,0 -1.219,0.45 -1.559,1 m 14.5,1 c 0,0.55 0.675,1 1.5,1 0.825,0 1.5,-0.45 1.5,-1 0,-0.55 -0.675,-1 -1.5,-1 -0.825,0 -1.5,0.45 -1.5,1 m -16,3.583 c -1.395,0.774 -1.837,1.38 -1,1.37 0.825,-0.009 2.374,-0.677 3.441,-1.485 2.407,-1.82 0.921,-1.75 -2.441,0.115 m -224.391,23.035 c -5.897,7.284 -17.415,18.662 -34.415,33.997 l -4.307,3.885 13.971,31.185 c 7.684,17.152 14.387,31.93 14.895,32.838 1.011,1.807 0.94,2.17 6.72,-34.023 3.835,-24.011 10.838,-75.523 10.335,-76.025 -0.184,-0.185 -3.424,3.48 -7.199,8.143 m 37.391,33.349 c 0,0.542 -1.25,0.733 -2.787,0.426 -1.94,-0.388 -3.536,0.059 -5.25,1.473 -2.325,1.917 -2.342,2 -0.299,1.488 2.395,-0.6 4.991,2.778 3.718,4.837 -0.449,0.727 -0.191,0.938 0.704,0.575 0.778,-0.316 2.202,-0.89 3.164,-1.277 1.196,-0.481 1.75,-0.233 1.75,0.782 0,1.779 -2.412,3.983 -3.342,3.054 -0.362,-0.362 -0.658,0.14 -0.658,1.115 0,1.186 0.51,1.578 1.538,1.184 1,-0.384 1.84,0.191 2.4,1.643 0.664,1.72 0.992,1.889 1.43,0.733 0.313,-0.825 0.471,-2.175 0.351,-3 -0.121,-0.825 0.231,-1.614 0.781,-1.754 1.313,-0.334 1.521,6.891 0.244,8.504 -0.726,0.918 -0.425,1.25 1.134,1.25 1.597,0 2.122,-0.619 2.122,-2.5 0,-1.375 0.45,-2.5 1,-2.5 1.155,0 1.215,1.063 0.358,6.25 -0.393,2.379 -1.165,3.75 -2.11,3.75 -0.935,0 0.232,2.016 3.131,5.409 2.541,2.976 4.621,5.676 4.621,6 0,0.325 -0.9,0.591 -2,0.591 -2.429,0 -2.645,1.815 -0.322,2.707 1.1,0.422 2.174,-0.105 3.122,-1.532 0.794,-1.196 1.899,-2.175 2.456,-2.175 1.621,0 5.65,-5.205 6.862,-8.867 1.565,-4.728 0.612,-12.237 -2.267,-17.855 -3.124,-6.096 -10.536,-10.866 -17.281,-11.121 -2.514,-0.095 -4.57,0.269 -4.57,0.81 m 9,3.033 c 0,0.55 0.45,1 1,1 0.55,0 1,-0.45 1,-1 0,-0.55 -0.45,-1 -1,-1 -0.55,0 -1,0.45 -1,1 m -13,1 c 0,0.55 0.702,1 1.559,1 0.857,0 1.281,-0.45 0.941,-1 -0.34,-0.55 -1.041,-1 -1.559,-1 -0.518,0 -0.941,0.45 -0.941,1 m 5.5,0 c -0.34,0.55 0.084,1 0.941,1 0.857,0 1.559,-0.45 1.559,-1 0,-0.55 -0.423,-1 -0.941,-1 -0.518,0 -1.219,0.45 -1.559,1 m -16.549,3.559 c -0.764,0.921 0.173,1.193 3.918,1.136 3.035,-0.045 4.765,-0.481 4.513,-1.134 -0.572,-1.476 -7.206,-1.478 -8.431,-0.002 m 19.743,-0.92 c -0.799,0.799 0.104,2.361 1.365,2.361 0.518,0 0.941,-0.675 0.941,-1.5 0,-1.546 -1.18,-1.987 -2.306,-0.861 m 6.859,5.276 c -0.322,0.521 -0.159,1.21 0.362,1.532 0.521,0.322 1.21,0.159 1.532,-0.362 0.322,-0.521 0.159,-1.21 -0.362,-1.532 -0.521,-0.322 -1.21,-0.159 -1.532,0.362 m -27.553,2.136 c 0,1.843 2.573,2.735 4.283,1.484 1.618,-1.183 1.506,-1.339 -1.253,-1.744 -1.667,-0.245 -3.03,-0.128 -3.03,0.26 m 24,-0.051 c 0,0.55 0.45,1 1,1 0.55,0 1,-0.45 1,-1 0,-0.55 -0.45,-1 -1,-1 -0.55,0 -1,0.45 -1,1 m -15,0.941 c 0,0.518 0.45,1.219 1,1.559 0.55,0.34 1,-0.084 1,-0.941 0,-0.857 -0.45,-1.559 -1,-1.559 -0.55,0 -1,0.423 -1,0.941 m 2,4.059 c 0,0.55 0.477,1 1.059,1 0.582,0 0.781,-0.45 0.441,-1 -0.34,-0.55 -0.816,-1 -1.059,-1 -0.243,0 -0.441,0.45 -0.441,1 m 18,0 c 0,0.55 0.702,1 1.559,1 0.857,0 1.281,-0.45 0.941,-1 -0.34,-0.55 -1.041,-1 -1.559,-1 -0.518,0 -0.941,0.45 -0.941,1 m -40.868,22.692 c -1.849,11.809 -3.564,22.446 -3.812,23.639 -0.247,1.193 1.31,-1.881 3.46,-6.831 2.151,-4.95 5.284,-11.709 6.964,-15.02 2.928,-5.775 2.988,-6.142 1.466,-9 -0.873,-1.639 -2.291,-5.518 -3.152,-8.619 l -1.565,-5.639 -3.361,21.47 m 40.451,-19.826 c -0.431,0.697 -0.513,1.537 -0.183,1.867 0.895,0.895 1.871,-0.421 1.387,-1.871 -0.338,-1.016 -0.574,-1.016 -1.204,0.004 m -4.201,4.324 c -0.917,1.484 2.214,4.179 4.04,3.478 2.255,-0.865 1.94,-1.993 -0.929,-3.324 -1.633,-0.757 -2.705,-0.81 -3.111,-0.154 m 8.161,0.741 c -0.683,1.105 0.894,2.299 1.818,1.375 0.95,-0.951 0.773,-2.306 -0.302,-2.306 -0.518,0 -1.2,0.419 -1.516,0.931 m -16.033,2.085 c 0.346,0.559 1.047,0.758 1.559,0.441 1.387,-0.857 1.129,-1.457 -0.628,-1.457 -0.857,0 -1.276,0.457 -0.931,1.016 m 11.985,1.992 c -0.343,0.555 0.418,1.402 1.691,1.883 2.561,0.968 4.166,0.487 3.261,-0.976 -0.322,-0.521 -1.004,-0.689 -1.516,-0.372 -0.512,0.316 -0.931,0.098 -0.931,-0.484 0,-1.345 -1.684,-1.379 -2.505,-0.051 m -5.995,3.992 c 0.34,0.55 0.816,1 1.059,1 0.243,0 0.441,-0.45 0.441,-1 0,-0.55 -0.477,-1 -1.059,-1 -0.582,0 -0.781,0.45 -0.441,1 m 0.313,7.683 c 0.721,0.289 1.584,0.253 1.916,-0.079 0.332,-0.332 -0.258,-0.568 -1.312,-0.525 -1.165,0.048 -1.402,0.285 -0.604,0.604"
     stroke="none"
     fill="#000000"
     fill-rule="evenodd"
     id="path2" />
</svg>
