<?xml version="1.0" standalone="no"?>
<!DOCTYPE svg PUBLIC "-//W3C//DTD SVG 20010904//EN"
 "http://www.w3.org/TR/2001/REC-SVG-20010904/DTD/svg10.dtd">
<svg version="1.0" xmlns="http://www.w3.org/2000/svg"
 width="1536.000000pt" height="894.000000pt" viewBox="0 0 1536.000000 894.000000"
 preserveAspectRatio="xMidYMid meet">
<metadata>
Created by potrace 1.16, written by Peter Selinger 2001-2019
</metadata>
<g transform="translate(0.000000,894.000000) scale(0.100000,-0.100000)"
fill="#000000" stroke="none">
<path d="M11395 8930 c-22 -3 -89 -28 -148 -53 -59 -26 -113 -47 -118 -47 -6
0 -68 -26 -137 -59 -70 -32 -143 -64 -162 -70 -19 -6 -107 -64 -195 -129 -139
-103 -201 -159 -476 -433 -173 -172 -334 -339 -356 -369 -69 -93 -234 -407
-269 -510 -17 -52 -60 -167 -94 -255 l-63 -159 6 -296 c9 -361 21 -534 53
-754 27 -191 35 -225 69 -312 13 -34 29 -93 36 -130 6 -38 27 -99 45 -136 20
-39 38 -94 43 -131 5 -35 23 -99 41 -143 17 -43 36 -103 40 -132 10 -58 42
-117 128 -230 30 -40 53 -74 51 -76 -2 -2 -44 -16 -94 -31 -101 -31 -382 -133
-550 -199 -60 -25 -121 -47 -135 -51 -14 -4 -64 -27 -113 -51 -103 -52 -189
-87 -393 -160 -84 -30 -189 -70 -234 -89 -45 -19 -86 -35 -91 -35 -6 0 -76
-32 -157 -71 -81 -39 -187 -86 -237 -104 -49 -19 -117 -44 -150 -57 -94 -37
-357 -169 -520 -263 -82 -47 -161 -88 -175 -91 -14 -3 -72 -26 -130 -51 -209
-91 -683 -295 -1045 -448 -203 -87 -534 -232 -735 -323 -483 -217 -763 -329
-1170 -467 -186 -63 -383 -132 -439 -155 -167 -66 -221 -73 -691 -94 -184 -9
-381 -18 -438 -21 l-102 -6 -158 -86 c-86 -47 -188 -103 -227 -124 -74 -40
-133 -54 -275 -64 -164 -12 -232 -24 -279 -52 -25 -14 -68 -38 -96 -53 -27
-15 -91 -52 -141 -82 -96 -60 -158 -88 -310 -143 -192 -70 -630 -281 -697
-336 -56 -46 -86 -114 -98 -221 l-10 -91 73 -74 c95 -97 145 -131 209 -143 29
-6 63 -17 76 -25 57 -38 205 -57 583 -75 226 -11 266 -18 341 -55 25 -13 84
-31 130 -40 46 -9 113 -22 149 -30 100 -21 354 -34 820 -41 458 -7 532 -3 716
41 274 66 332 91 444 190 125 110 212 154 440 220 178 51 560 178 728 241 78
30 197 70 263 89 67 20 138 44 158 54 20 10 61 26 91 36 30 10 84 32 120 50
36 18 110 49 165 69 55 21 156 59 225 86 69 27 177 63 240 80 63 18 127 38
142 46 15 8 67 28 115 45 48 18 93 36 99 40 6 5 55 25 110 44 54 20 103 40
109 45 5 4 50 22 98 39 48 17 98 36 110 43 12 6 87 35 167 64 80 29 181 66
225 83 345 132 489 182 865 301 454 144 601 185 990 281 179 44 460 113 625
154 165 40 334 76 375 79 46 4 93 15 125 30 55 26 167 56 207 56 14 0 84 18
155 40 133 42 459 112 693 150 82 14 171 36 227 56 50 19 115 39 143 44 73 14
130 41 240 115 239 160 451 393 524 575 59 146 82 314 67 486 -18 195 -43 290
-121 449 -33 66 -67 147 -76 179 -25 85 -224 382 -351 522 -55 61 -110 126
-122 143 -13 18 -65 63 -116 102 -69 51 -101 83 -123 122 -31 52 -66 94 -246
293 -103 113 -135 166 -136 222 0 18 -17 81 -37 140 l-37 107 -4 275 -4 275
74 70 73 71 210 -8 c266 -9 387 -21 566 -58 181 -36 296 -52 684 -92 285 -29
338 -32 660 -32 428 0 642 22 825 85 82 29 128 43 228 73 85 26 296 111 342
139 25 14 65 36 90 47 115 52 141 71 246 175 169 169 252 286 320 455 23 59
26 82 31 246 7 213 0 288 -28 312 -11 9 -29 36 -40 60 -29 58 -115 123 -177
133 -26 4 -66 14 -89 23 -41 15 -154 28 -548 61 -382 32 -527 56 -686 115
-203 75 -435 121 -749 150 -88 8 -150 20 -210 40 -63 22 -119 32 -215 40 -313
25 -1118 39 -1220 20z"/>
</g>
</svg>
