<?xml version="1.0" standalone="no"?>
<!DOCTYPE svg PUBLIC "-//W3C//DTD SVG 20010904//EN"
 "http://www.w3.org/TR/2001/REC-SVG-20010904/DTD/svg10.dtd">
<svg version="1.0" xmlns="http://www.w3.org/2000/svg"
 width="1536.000000pt" height="1501.000000pt" viewBox="0 0 1536.000000 1501.000000"
 preserveAspectRatio="xMidYMid meet">
<metadata>
Created by potrace 1.16, written by Peter Selinger 2001-2019
</metadata>
<g transform="translate(0.000000,1501.000000) scale(0.100000,-0.100000)"
fill="#000000" stroke="none">
<path d="M8845 15003 c-1094 -51 -2288 -275 -3349 -627 -602 -200 -1379 -540
-1991 -871 -1475 -798 -2376 -1770 -2945 -3175 -457 -1130 -640 -2443 -524
-3755 108 -1225 456 -2390 993 -3328 743 -1296 2023 -2303 3586 -2822 952
-316 1957 -456 2988 -417 583 23 1041 75 1552 177 1581 317 2747 946 3850
2076 725 743 1342 1671 1752 2635 328 770 507 1546 580 2509 20 273 23 965 5
1235 -63 922 -223 1703 -497 2435 -456 1216 -1191 2215 -2155 2927 -706 521
-1401 789 -2401 923 -531 71 -1030 98 -1444 78z m960 -302 c937 -93 1500 -233
2059 -513 660 -330 1334 -909 1830 -1572 653 -872 1081 -1914 1270 -3091 152
-943 153 -1977 5 -2885 -123 -749 -322 -1367 -659 -2050 -695 -1404 -1757
-2585 -2975 -3310 -1113 -663 -2637 -1024 -4200 -997 -535 10 -948 50 -1404
138 -1644 317 -2984 1069 -3937 2209 -822 983 -1349 2417 -1491 4060 -22 258
-25 1010 -5 1250 87 1033 314 1901 707 2705 626 1279 1604 2160 3246 2924 823
383 1424 600 2209 796 781 196 1510 308 2335 359 33 2 227 2 430 1 283 -3 420
-8 580 -24z"/>
<path d="M7960 14260 c-717 -44 -1361 -177 -1925 -397 -174 -68 -574 -264
-760 -374 -287 -168 -582 -374 -830 -580 -150 -124 -498 -477 -613 -621 -202
-253 -374 -541 -475 -794 -154 -384 -183 -682 -98 -1018 61 -238 156 -448 391
-861 335 -588 422 -800 452 -1096 21 -219 -16 -398 -131 -634 -118 -241 -243
-415 -716 -1002 -363 -449 -526 -704 -609 -953 -78 -236 -79 -468 -3 -671 107
-285 298 -492 584 -633 185 -92 367 -146 818 -246 511 -113 739 -188 970 -318
249 -140 415 -310 799 -817 261 -344 385 -494 536 -645 389 -391 805 -605
1320 -680 272 -39 491 -36 800 11 872 133 2059 647 3110 1346 906 604 1543
1222 1801 1748 191 389 238 783 133 1116 -60 192 -162 357 -385 625 -203 243
-245 310 -269 421 -20 92 31 246 112 338 53 60 115 105 253 185 293 169 432
295 542 490 205 361 275 1097 178 1866 -88 695 -304 1349 -605 1829 -559 892
-1612 1638 -2905 2058 -493 160 -908 243 -1465 292 -208 19 -802 27 -1010 15z"/>
</g>
</svg>
