<?xml version="1.0" standalone="no"?>
<!DOCTYPE svg PUBLIC "-//W3C//DTD SVG 20010904//EN"
 "http://www.w3.org/TR/2001/REC-SVG-20010904/DTD/svg10.dtd">
<svg version="1.0" xmlns="http://www.w3.org/2000/svg"
 width="855.000000pt" height="1536.000000pt" viewBox="0 0 855.000000 1536.000000"
 preserveAspectRatio="xMidYMid meet">
<metadata>
Created by potrace 1.16, written by Peter Selinger 2001-2019
</metadata>
<g transform="translate(0.000000,1536.000000) scale(0.100000,-0.100000)"
fill="#000000" stroke="none">
<path d="M710 15346 c0 -10 12 -38 27 -64 l28 -47 -32 23 c-18 13 -35 27 -38
32 -10 16 -65 52 -65 42 0 -4 16 -27 35 -49 43 -50 45 -61 5 -32 -42 32 -48
17 -11 -29 17 -22 31 -47 31 -55 0 -15 35 -51 115 -121 l30 -26 -32 6 c-18 4
-33 4 -33 1 0 -3 28 -29 63 -57 34 -29 63 -61 63 -72 1 -11 28 -47 60 -79 48
-49 56 -61 44 -69 -12 -8 -4 -21 45 -70 49 -49 57 -62 45 -70 -12 -8 -8 -16
24 -49 45 -46 125 -155 164 -225 15 -26 45 -76 68 -110 89 -134 269 -479 328
-628 30 -76 35 -158 10 -158 -18 0 -111 62 -189 126 -30 24 -58 44 -61 44 -11
0 -91 60 -144 107 -26 24 -50 40 -53 36 -4 -3 -27 13 -52 36 -24 22 -51 41
-60 41 -8 0 -33 16 -55 36 -31 28 -40 32 -40 19 0 -13 -9 -9 -40 19 -42 37
-60 45 -60 24 0 -7 -22 10 -49 36 -34 33 -55 47 -66 42 -9 -3 -31 4 -53 19
-45 30 -55 31 -47 4 l7 -20 -40 20 c-47 24 -61 17 -31 -15 l22 -23 -34 9 c-54
16 -65 13 -45 -9 9 -10 14 -25 11 -33 -4 -9 4 -20 20 -28 15 -8 36 -27 47 -43
12 -16 37 -36 57 -44 34 -15 57 -31 139 -99 20 -17 60 -43 88 -57 28 -14 54
-33 57 -41 3 -8 25 -25 49 -37 24 -12 47 -28 51 -35 4 -8 40 -36 80 -63 40
-27 82 -60 95 -74 l23 -24 -25 -37 c-15 -23 -27 -57 -30 -89 -3 -29 -13 -128
-21 -221 -18 -189 -64 -522 -96 -694 -20 -104 -23 -114 -50 -127 l-28 -15 24
43 c30 51 31 60 5 52 -19 -6 -19 -5 -5 29 9 20 12 47 9 65 -4 16 -2 44 4 60
12 34 5 104 -10 95 -5 -3 -23 -24 -39 -46 -35 -50 -36 -48 -4 30 27 66 32 108
14 114 -8 3 -8 16 1 47 14 52 5 65 -21 32 l-19 -23 0 51 c0 62 -15 66 -32 9
-11 -39 -13 -40 -19 -17 -4 13 -8 47 -8 74 -3 108 -31 127 -31 21 0 -35 -7
-102 -15 -149 -8 -48 -24 -207 -35 -354 -23 -300 -54 -571 -74 -637 -14 -45
-54 -111 -63 -103 -2 3 5 23 16 46 12 22 21 50 21 62 l0 22 -24 -22 -25 -23
15 47 c8 27 14 77 14 113 0 59 -1 63 -17 51 -15 -12 -16 -12 -10 3 3 9 9 33
13 54 9 47 -8 39 -37 -18 -11 -22 -22 -38 -24 -36 -1 1 2 32 8 67 8 50 7 68
-3 85 -8 11 -17 39 -20 61 -6 39 -7 39 -18 15 -6 -14 -18 -47 -25 -75 l-15
-50 -1 98 c-1 106 -15 129 -25 43 -15 -113 -21 -115 -34 -9 -12 109 -25 153
-43 153 -8 0 -9 -13 -5 -42 26 -163 35 -691 15 -925 -20 -243 -89 -590 -89
-450 0 27 -4 35 -14 31 -9 -3 -19 8 -28 32 -14 35 -16 36 -22 16 -11 -33 -23
-27 -30 16 -4 20 -10 46 -13 57 l-6 20 -8 -20 c-4 -11 -8 -33 -9 -50 0 -27 -4
-24 -35 35 -67 124 -85 118 -35 -12 16 -42 34 -110 40 -150 6 -40 19 -113 30
-163 16 -78 54 -325 75 -492 7 -56 -5 -71 -25 -32 -7 12 -18 18 -26 15 -10 -4
-14 4 -14 30 0 21 -9 47 -20 61 -11 14 -20 36 -20 49 0 52 -26 74 -32 27 -3
-25 -6 -23 -28 26 -20 45 -26 52 -34 38 -9 -15 -16 -11 -47 26 -20 23 -40 39
-44 35 -3 -3 7 -35 24 -70 17 -35 40 -106 51 -158 11 -52 38 -156 59 -230 72
-246 140 -563 146 -680 4 -75 4 -75 -8 -30 -7 25 -20 61 -29 80 -9 19 -20 44
-24 55 -6 17 -8 15 -14 -13 -11 -49 -17 -48 -24 5 -8 62 -20 81 -39 65 -11
-10 -16 -5 -25 27 -7 21 -20 45 -29 52 -15 13 -15 11 -9 -23 4 -21 5 -38 2
-38 -2 0 -19 25 -36 55 -17 30 -36 55 -41 55 -12 0 -12 -5 7 -48 35 -83 35
-89 1 -48 -66 81 -86 101 -92 94 -4 -4 8 -35 28 -70 19 -35 40 -81 47 -103 7
-22 32 -76 56 -120 58 -108 264 -561 271 -597 6 -31 -13 -40 -24 -10 -7 17
-35 56 -77 104 -13 14 -27 36 -31 49 l-7 22 -13 -23 c-12 -23 -13 -23 -19 -3
-4 11 -15 28 -26 38 -20 18 -20 18 -14 -16 6 -32 4 -30 -31 24 -20 31 -41 57
-46 57 -12 0 -15 12 30 -120 57 -170 88 -228 318 -593 80 -126 142 -232 138
-235 -3 -3 -16 0 -28 8 -12 7 -42 25 -67 38 -25 14 -55 34 -67 45 -15 14 -23
16 -23 8 0 -14 0 -14 -71 38 -25 19 -31 21 -26 8 8 -22 6 -21 -38 4 -49 29
-56 16 -14 -27 l34 -35 -65 30 c-116 55 -132 33 -22 -30 31 -17 79 -55 107
-83 65 -66 541 -482 664 -581 227 -180 508 -347 708 -420 57 -20 100 -41 97
-46 -21 -34 -342 54 -408 112 -22 18 -40 27 -50 23 -10 -4 -25 1 -37 12 -11
10 -27 19 -36 20 -9 2 -25 12 -36 23 -16 15 -23 17 -38 8 -14 -9 -22 -7 -38 7
-16 14 -30 17 -61 13 -30 -4 -46 0 -64 14 -30 23 -50 25 -42 3 6 -15 4 -15
-18 0 -14 9 -39 16 -55 16 -16 0 -33 5 -36 10 -3 6 -18 10 -33 10 -20 0 -23
-3 -14 -12 22 -22 12 -26 -33 -13 -73 23 -68 -1 10 -43 16 -9 -1 -11 -75 -12
-97 0 -112 -11 -35 -28 l40 -8 -45 -8 c-144 -23 -155 -48 -17 -39 l92 5 27
-30 c14 -16 41 -33 60 -37 18 -4 137 -47 263 -95 368 -141 466 -167 706 -190
70 -7 131 -15 137 -19 6 -3 35 -61 66 -128 273 -596 861 -1159 1400 -1338 342
-114 759 -124 1496 -34 426 51 1091 180 1415 274 325 94 508 190 676 352 141
136 206 231 254 372 l21 65 34 -49 c42 -61 96 -211 120 -335 44 -221 16 -557
-67 -800 -8 -25 -21 -65 -28 -90 -7 -25 -33 -83 -58 -130 -25 -47 -59 -112
-76 -146 -16 -33 -37 -66 -45 -73 -9 -7 -21 -31 -26 -52 -6 -22 -24 -54 -39
-72 -16 -17 -36 -47 -45 -65 -10 -18 -32 -50 -50 -70 -18 -20 -37 -45 -43 -56
-11 -20 -94 -111 -292 -320 -68 -72 -126 -134 -130 -138 -3 -4 -34 -31 -68
-60 -35 -29 -126 -111 -203 -183 -76 -71 -185 -170 -241 -220 -180 -159 -313
-287 -350 -336 -55 -74 -108 -135 -175 -203 -34 -33 -73 -79 -87 -102 -14 -22
-49 -67 -77 -100 -29 -32 -59 -72 -67 -89 -9 -16 -35 -56 -59 -87 -23 -32 -48
-75 -55 -95 -6 -21 -26 -54 -44 -74 -18 -20 -40 -61 -50 -90 -10 -30 -28 -74
-41 -99 -25 -49 -62 -144 -99 -255 -13 -38 -32 -92 -43 -120 -11 -27 -23 -79
-27 -115 -4 -36 -12 -76 -17 -90 -13 -32 -28 -213 -35 -398 -3 -103 0 -170 11
-235 8 -51 18 -147 21 -214 3 -67 10 -135 16 -152 8 -22 8 -40 0 -63 -10 -30
-118 -149 -196 -219 -17 -15 -43 -52 -59 -83 -27 -56 -28 -58 -10 -78 64 -71
383 -136 714 -145 540 -15 1030 91 1030 222 0 34 -67 89 -188 155 -62 34 -134
80 -160 102 -53 45 -122 163 -122 208 0 15 -8 47 -17 71 -14 38 -17 89 -17
354 -1 223 2 320 11 345 7 19 19 69 27 110 17 92 57 198 95 253 16 23 60 102
100 175 69 129 110 194 208 335 53 76 48 71 120 129 28 24 174 153 324 287
149 134 309 272 353 306 45 35 88 74 95 88 7 14 24 31 38 38 33 17 311 316
330 354 8 17 26 41 38 55 32 34 177 257 335 514 27 43 52 92 56 109 3 16 19
50 35 75 16 25 29 50 29 56 0 6 22 58 49 116 90 196 111 247 111 269 0 13 13
56 29 96 17 41 33 91 37 112 4 21 15 55 25 75 21 41 64 227 84 360 7 48 16 92
20 97 3 6 10 86 15 179 9 143 8 176 -5 212 -8 23 -15 64 -15 90 0 26 -6 65
-14 86 -7 22 -16 71 -20 109 -5 49 -14 80 -31 105 -13 19 -29 57 -35 83 -6 27
-22 72 -37 100 -15 29 -30 76 -34 105 -5 37 -20 73 -48 116 -22 34 -50 88 -60
119 -11 32 -29 70 -40 85 -11 16 -37 58 -59 95 -41 72 -131 154 -263 241 -74
49 -128 108 -158 172 -39 81 -34 92 86 190 206 167 485 470 621 674 129 194
187 324 203 451 6 52 24 134 40 183 32 97 33 106 20 106 -5 0 -33 -54 -61
-120 -29 -66 -55 -118 -57 -116 -2 2 3 30 11 62 21 79 5 88 -29 17 -15 -32
-30 -52 -32 -45 -8 22 -22 13 -31 -20 -5 -23 -15 -34 -29 -36 -18 -3 -25 -16
-39 -78 -16 -66 -20 -73 -31 -58 -11 16 -13 15 -22 -7 -25 -65 -39 -93 -40
-76 -2 31 -25 13 -42 -33 -10 -26 -25 -47 -38 -51 -12 -5 -26 -21 -32 -36 -5
-15 -19 -33 -30 -41 -10 -7 -28 -30 -38 -50 -11 -20 -31 -48 -45 -61 -14 -14
-26 -30 -26 -37 0 -8 -12 -20 -28 -28 -17 -9 -38 -36 -57 -75 -19 -41 -31 -57
-37 -49 -6 10 -12 8 -23 -6 -8 -11 -15 -26 -15 -33 0 -7 -11 -18 -25 -23 -14
-5 -35 -26 -47 -47 l-22 -37 -11 28 -11 27 -14 -27 c-8 -14 -28 -35 -45 -47
-55 -39 -140 -110 -148 -123 -4 -8 -16 -14 -25 -14 -10 0 -28 -7 -40 -16 -13
-9 -26 -13 -29 -10 -11 11 30 59 230 263 291 299 429 464 573 683 137 208 247
464 274 635 14 87 7 128 -26 153 l-26 18 17 78 c23 105 7 120 -29 27 -9 -24
-25 -55 -36 -68 -10 -13 -24 -46 -30 -74 -9 -36 -15 -47 -21 -38 -14 22 -26
-5 -34 -73 -6 -47 -10 -57 -20 -48 -17 14 -21 6 -30 -60 -10 -74 -21 -93 -30
-52 -10 47 -23 30 -31 -39 -5 -43 -10 -57 -17 -50 -20 20 -26 12 -52 -74 -14
-46 -29 -87 -34 -90 -5 -3 -7 3 -4 14 3 10 0 22 -6 26 -13 7 -35 -40 -47 -99
-6 -36 -8 -38 -20 -21 -13 17 -15 16 -29 -18 -8 -20 -15 -43 -15 -52 0 -9 -8
-14 -22 -12 -17 1 -24 -4 -26 -21 -2 -12 -12 -27 -23 -32 -10 -6 -26 -25 -35
-43 -10 -18 -25 -38 -36 -45 -10 -7 -28 -32 -40 -55 -18 -37 -22 -39 -28 -22
-6 18 -9 17 -29 -15 -11 -19 -21 -38 -21 -42 0 -4 -9 -7 -21 -5 -17 2 -26 -10
-47 -62 -25 -61 -27 -63 -33 -35 l-5 29 -29 -47 c-22 -36 -34 -46 -48 -42 -13
4 -22 -5 -38 -40 -20 -46 -33 -57 -42 -33 -5 15 -2 18 -61 -65 -26 -38 -51
-68 -56 -68 -5 0 -25 -13 -43 -30 -19 -16 -41 -30 -48 -30 -7 0 -23 -10 -36
-22 -13 -12 -26 -18 -30 -15 -3 4 151 166 344 359 192 194 378 389 413 433
241 304 447 753 505 1101 12 71 15 129 11 199 -4 55 -10 156 -14 225 -7 125
-18 144 -29 50 -4 -39 -9 -48 -19 -40 -18 16 -25 -1 -31 -71 -5 -48 -8 -57
-19 -48 -12 9 -14 3 -14 -33 0 -24 -6 -52 -14 -63 -7 -11 -16 -37 -20 -57 -4
-21 -12 -38 -18 -38 -7 0 -9 -20 -6 -55 5 -58 -7 -84 -18 -40 -11 45 -24 16
-24 -55 0 -63 -1 -68 -20 -63 -13 3 -20 0 -20 -8 0 -8 -9 -31 -20 -52 -11 -20
-20 -46 -20 -57 0 -12 -11 -31 -25 -44 -21 -19 -27 -38 -36 -107 -12 -97 -29
-128 -29 -54 -1 70 -19 36 -32 -58 -13 -95 -27 -119 -28 -47 -1 50 -2 53 -15
36 -8 -10 -17 -46 -21 -79 -5 -43 -9 -55 -16 -43 -16 28 -25 18 -43 -46 -10
-35 -20 -55 -23 -45 -8 37 -32 9 -32 -38 0 -13 -5 -27 -10 -30 -6 -3 -10 1
-10 9 0 40 -21 8 -47 -71 -32 -99 -53 -119 -53 -51 -1 52 -13 37 -34 -44 -10
-38 -16 -48 -21 -35 -4 9 -10 17 -14 17 -4 0 -25 -36 -46 -80 -41 -83 -55 -98
-55 -55 0 43 -16 28 -41 -37 -22 -60 -23 -61 -29 -33 l-6 30 -16 -25 c-9 -14
-23 -38 -31 -55 -13 -25 -17 -27 -22 -13 -10 26 -21 14 -40 -42 -18 -54 -32
-64 -37 -27 -3 20 -6 17 -32 -20 -16 -24 -33 -43 -38 -43 -4 0 -23 -20 -40
-45 -22 -32 -34 -41 -40 -32 -6 9 -15 4 -33 -18 -14 -16 -25 -34 -25 -38 0 -5
-8 -6 -18 -3 -12 4 -29 -5 -53 -30 -18 -19 -47 -42 -64 -50 -16 -7 -38 -19
-47 -26 -22 -16 -36 -3 -22 20 6 9 102 101 214 203 304 277 434 433 564 680
156 294 211 480 311 1044 25 143 69 359 96 480 35 152 53 257 59 340 5 66 16
145 24 175 39 136 9 113 -39 -31 -20 -61 -39 -108 -41 -106 -2 2 2 36 11 76 8
40 15 80 15 89 -1 26 -28 -13 -42 -60 -11 -38 -28 -51 -28 -22 0 39 -21 -5
-36 -77 -14 -62 -20 -76 -26 -60 -11 31 -28 26 -28 -8 0 -16 -6 -36 -14 -43
-7 -8 -17 -33 -21 -56 -3 -22 -13 -46 -21 -53 -8 -6 -14 -20 -14 -31 0 -10 -7
-30 -16 -44 -13 -19 -15 -38 -10 -88 6 -57 4 -64 -11 -62 -15 1 -19 -9 -21
-52 -3 -44 -6 -51 -17 -42 -11 9 -15 -1 -20 -53 -6 -51 -10 -64 -24 -63 -13 1
-15 -7 -13 -46 3 -40 1 -48 -13 -48 -15 0 -16 -8 -10 -60 7 -56 6 -60 -14 -60
-17 0 -21 -6 -21 -34 0 -19 -4 -38 -10 -41 -6 -3 -10 -38 -10 -78 0 -55 -3
-68 -12 -59 -23 23 -28 11 -28 -68 0 -62 -3 -80 -14 -80 -17 0 -26 -21 -26
-60 0 -15 -7 -33 -15 -40 -10 -8 -15 -30 -15 -61 0 -41 -3 -49 -19 -49 -21 0
-31 -19 -31 -55 0 -13 -11 -36 -23 -52 -13 -15 -29 -43 -35 -62 -7 -18 -19
-39 -27 -45 -8 -6 -19 -33 -24 -59 -10 -55 -18 -67 -32 -47 -8 13 -10 13 -19
0 -5 -8 -10 -24 -10 -35 0 -25 -10 -40 -31 -48 -10 -3 -24 -28 -34 -56 -15
-45 -35 -69 -35 -41 0 27 -17 4 -38 -50 -22 -57 -42 -78 -42 -45 0 8 -4 15 -9
15 -8 0 -19 -22 -35 -74 -4 -11 -12 -16 -21 -12 -10 4 -21 -7 -35 -34 -11 -22
-31 -47 -44 -55 -13 -9 -36 -34 -50 -55 -15 -22 -32 -40 -39 -40 -8 0 -24 -11
-36 -24 -12 -13 -30 -22 -39 -19 -12 3 -23 -7 -36 -31 -14 -27 -22 -33 -32
-26 -9 8 -19 0 -41 -32 -16 -23 -39 -48 -51 -54 -12 -6 -31 -19 -42 -29 -16
-14 -20 -15 -20 -3 0 18 79 113 212 255 151 160 237 259 289 333 147 207 253
464 311 753 21 104 23 137 22 457 0 313 -3 373 -32 650 -17 168 -36 377 -42
465 -6 87 -16 177 -22 200 -6 22 -14 74 -17 115 -7 82 -18 78 -30 -13 l-8 -52
-12 30 c-10 23 -14 26 -21 15 -6 -8 -10 -32 -10 -52 0 -26 -4 -36 -13 -32 -18
7 -60 -428 -46 -480 5 -20 7 -42 2 -49 -13 -21 -11 -140 2 -189 13 -43 12 -47
-5 -50 -18 -3 -18 -4 0 -55 17 -50 17 -51 -1 -56 -18 -5 -18 -7 -3 -42 12 -30
13 -43 4 -65 -7 -17 -9 -46 -5 -73 4 -27 3 -47 -3 -51 -7 -4 -7 -17 -1 -39 13
-47 12 -60 -7 -53 -14 5 -16 1 -10 -24 3 -16 9 -43 12 -60 6 -26 4 -30 -16
-30 -17 0 -21 -4 -15 -17 4 -10 9 -33 12 -51 5 -27 3 -31 -11 -26 -19 7 -21
-13 -5 -71 8 -29 8 -40 0 -43 -6 -2 -11 -30 -11 -68 0 -46 -4 -63 -12 -62 -10
2 -14 -21 -16 -84 -2 -70 -5 -86 -17 -82 -16 7 -22 -13 -28 -95 -2 -29 -9 -56
-16 -60 -6 -4 -18 -31 -26 -59 -9 -29 -19 -52 -24 -52 -5 0 -16 -20 -25 -44
-9 -24 -23 -47 -31 -50 -8 -3 -19 -23 -26 -46 -7 -23 -22 -49 -34 -58 -25 -20
-85 -106 -85 -122 0 -6 -11 -15 -25 -20 -14 -5 -25 -15 -25 -21 0 -7 -37 -49
-82 -95 -46 -46 -101 -104 -123 -129 -45 -51 -155 -132 -155 -114 0 16 32 58
151 199 283 336 400 614 453 1080 33 280 20 516 -54 1029 -59 410 -73 578 -68
836 4 190 8 240 33 363 15 78 25 145 21 149 -3 3 -14 -1 -25 -11 -18 -16 -18
-16 -14 29 6 46 -10 64 -22 25 -3 -11 -19 -29 -35 -40 -24 -17 -30 -30 -36
-77 -5 -41 -9 -52 -16 -39 -15 27 -25 18 -31 -30 -2 -26 -9 -49 -15 -53 -5 -3
-13 -22 -17 -41 -4 -19 -12 -41 -18 -48 -10 -12 -5 -103 9 -152 l7 -25 -21 25
-21 25 -1 -50 c0 -27 -4 -56 -9 -64 -5 -8 -3 -38 5 -74 10 -41 11 -64 4 -71
-15 -15 -12 -193 10 -561 32 -522 35 -726 16 -890 -9 -77 -23 -167 -32 -200
-8 -33 -20 -82 -25 -110 -9 -47 -20 -77 -55 -148 -8 -16 -14 -34 -14 -42 0 -7
-7 -18 -15 -25 -9 -7 -15 -29 -15 -51 0 -32 -4 -41 -24 -49 -18 -6 -27 -21
-36 -60 -7 -29 -20 -54 -30 -60 -10 -5 -26 -33 -35 -62 -23 -69 -24 -71 -40
-58 -11 9 -18 3 -35 -29 -11 -23 -26 -41 -33 -41 -7 0 -20 -15 -29 -33 -14
-29 -60 -83 -156 -185 -24 -25 -36 -32 -44 -24 -17 17 3 60 87 189 320 492
389 1001 239 1752 -54 267 -173 729 -334 1296 -38 133 -71 259 -75 280 -4 22
-15 54 -25 70 -10 17 -21 48 -24 70 -11 64 -17 77 -32 71 -9 -3 -16 4 -20 22
-12 56 -26 92 -35 92 -5 0 -9 -4 -9 -10 0 -24 -18 -7 -35 33 l-19 42 -4 -42
c-2 -29 -8 -43 -18 -43 -16 0 -13 -19 18 -109 22 -65 18 -77 -7 -21 -10 22
-24 40 -32 40 -19 0 -19 1 31 -115 14 -33 20 -51 13 -41 -6 10 -22 31 -34 45
-22 26 -22 26 -23 3 0 -12 13 -49 30 -82 32 -64 37 -81 18 -62 -7 7 -16 12
-20 12 -15 0 -8 -23 22 -72 36 -59 37 -63 5 -42 -33 22 -34 2 -2 -46 13 -19
32 -48 43 -65 l18 -30 -22 19 c-22 19 -22 19 -22 0 0 -10 11 -37 25 -59 28
-46 32 -63 10 -45 -32 27 -26 -1 14 -64 47 -75 49 -81 21 -66 -29 15 -26 -10
5 -60 14 -22 25 -53 25 -69 0 -16 5 -33 10 -36 6 -4 10 -22 8 -40 -1 -19 7
-55 19 -82 34 -77 169 -725 197 -943 37 -288 43 -743 11 -815 -15 -34 -24 -78
-32 -152 -2 -29 -11 -57 -19 -64 -8 -6 -14 -24 -14 -40 0 -19 -9 -37 -25 -51
-14 -12 -25 -30 -25 -40 0 -11 -11 -34 -24 -51 -13 -18 -26 -43 -29 -57 l-4
-25 -2 25 c0 14 10 64 23 110 53 183 61 242 61 465 0 246 -14 352 -80 610 -88
347 -207 677 -695 1930 -84 215 -164 422 -177 460 -14 39 -36 83 -49 98 -13
16 -24 41 -24 56 0 15 -7 36 -15 47 -14 18 -14 17 -15 -16 l-1 -35 -23 44
c-24 47 -36 43 -36 -11 0 -18 0 -42 -1 -53 -1 -11 4 -42 12 -68 12 -41 11 -49
-1 -57 -12 -8 -12 -16 4 -59 10 -27 15 -59 11 -70 -4 -12 6 -42 25 -81 27 -54
29 -60 10 -50 -27 15 -25 3 10 -50 35 -53 37 -60 10 -53 -30 8 -24 -9 20 -63
43 -52 49 -67 25 -58 -23 9 -18 -14 15 -68 24 -38 28 -53 20 -63 -9 -11 -6
-24 13 -57 14 -24 33 -70 42 -103 9 -33 20 -64 25 -70 4 -5 13 -28 20 -50 7
-22 81 -229 165 -460 304 -836 349 -1014 362 -1415 5 -182 4 -199 -16 -255
-11 -32 -21 -71 -21 -85 0 -14 -7 -34 -15 -44 -8 -11 -15 -41 -15 -67 0 -50
-13 -72 -24 -42 -6 15 -8 15 -16 3 -6 -8 -10 -27 -10 -42 0 -14 -7 -39 -15
-55 -9 -15 -20 -41 -25 -57 -22 -63 -19 -13 5 95 37 160 48 325 42 614 -5 279
-10 309 -102 622 -94 316 -189 549 -458 1118 -233 495 -414 914 -447 1035 -7
24 -18 53 -26 64 -8 11 -14 38 -14 59 0 27 -7 45 -25 63 -21 20 -25 35 -25 79
0 44 -3 53 -15 49 -12 -5 -15 5 -15 56 0 51 -2 60 -13 51 -22 -17 -27 -3 -27
72 0 57 -3 68 -15 63 -20 -7 -19 3 5 58 10 25 17 52 14 60 -3 8 2 28 10 45 9
17 14 41 11 53 -3 13 4 55 15 93 36 119 36 119 12 106 l-21 -11 19 55 c21 61
12 79 -19 38 l-20 -28 -1 33 c0 42 -12 41 -33 -3 -9 -19 -23 -35 -31 -35 -14
0 -36 -49 -36 -81 0 -11 -4 -19 -10 -19 -5 0 -10 9 -10 20 0 11 -4 20 -10 20
-9 0 -19 -28 -39 -115 -5 -22 -9 -32 -10 -22 -1 10 -7 17 -13 15 -7 -3 -17
-33 -22 -69 -4 -35 -13 -67 -19 -71 -6 -3 -13 -37 -16 -75 -4 -40 -9 -63 -14
-55 -5 6 -13 12 -19 12 -7 0 -9 -24 -5 -75 l7 -75 -26 6 -26 7 8 -82 c6 -76 5
-81 -11 -75 -17 7 -18 2 -12 -47 4 -30 10 -64 13 -76 5 -19 2 -23 -16 -23 -20
0 -22 -4 -16 -32 3 -18 12 -109 20 -203 29 -330 67 -484 311 -1255 210 -664
260 -845 289 -1047 29 -202 40 -393 23 -393 -6 0 -7 -20 -4 -50 3 -27 2 -52
-4 -55 -5 -4 -9 -5 -9 -3 0 2 -5 96 -10 210 -23 482 -81 686 -415 1458 -264
609 -337 832 -380 1163 -18 142 -19 187 -3 239 9 29 9 41 0 50 -14 14 -15 128
-2 203 4 29 4 51 -1 53 -12 5 -11 50 2 112 10 45 9 53 -6 64 -14 10 -16 20
-10 42 8 30 17 157 15 232 0 24 7 67 15 95 20 67 19 74 -6 51 l-22 -19 7 50
c4 28 10 61 13 74 10 42 -20 18 -36 -30 l-16 -44 -3 45 c-2 25 -7 49 -12 54
-9 9 -15 -8 -26 -79 -5 -31 -9 -41 -12 -27 -8 52 -32 9 -32 -59 0 -58 -11
-103 -21 -87 -17 26 -28 -14 -22 -84 5 -63 5 -68 -12 -62 -17 7 -18 1 -13 -74
5 -67 4 -80 -8 -75 -11 4 -14 -9 -14 -66 0 -45 -4 -71 -11 -71 -8 0 -9 -21 -4
-70 6 -60 5 -70 -9 -70 -19 0 -21 -37 -4 -75 9 -21 9 -28 -1 -35 -8 -4 -11
-12 -8 -17 4 -6 13 -129 22 -274 33 -575 63 -697 335 -1399 160 -412 185 -486
200 -601 6 -46 16 -101 21 -123 13 -48 17 -245 6 -249 -5 -1 -3 -22 3 -45 10
-32 10 -45 1 -55 -7 -10 -8 -23 -3 -38 23 -61 23 -79 2 -79 -24 0 -24 2 0 -60
24 -60 25 -72 5 -46 -24 32 -30 9 -12 -48 21 -66 21 -72 0 -55 -15 13 -16 10
-10 -26 4 -22 10 -51 14 -65 6 -22 5 -23 -9 -12 -23 19 -31 0 -19 -45 6 -20 8
-39 6 -42 -17 -16 -31 40 -57 221 -76 531 -155 802 -340 1173 -193 386 -458
777 -1018 1505 -130 168 -245 319 -258 337 -22 31 -28 63 -15 77 4 3 8 12 9
19 1 7 5 20 9 30 5 12 2 17 -10 17 -17 0 -17 1 1 21 10 12 19 31 20 43 1 11 5
29 9 39 5 12 3 17 -10 17 -13 0 -11 7 14 35 17 20 31 44 31 55 0 10 5 22 10
25 15 9 12 25 -5 25 -21 0 -19 7 15 50 34 43 36 50 14 50 -15 0 -15 2 0 25 21
32 20 46 -1 38 -11 -3 -4 9 17 31 30 32 33 39 22 57 -11 17 -10 24 8 46 24 30
26 55 5 47 -23 -9 -18 10 10 36 28 27 32 40 10 40 -21 0 -19 11 10 50 24 33
43 95 32 107 -4 3 -18 -2 -33 -12 -29 -19 -28 -15 23 56 37 52 42 72 16 62
-19 -7 -15 1 34 72 19 28 16 37 -9 29 -20 -6 -21 -5 -9 9 7 9 16 31 20 49 5
18 11 44 16 57 6 21 5 23 -15 18 -24 -6 -26 -13 26 68 13 20 14 28 4 40 -10
12 -10 21 -1 41 9 22 9 24 -7 22 -18 -3 -19 0 -8 45 3 15 2 27 -3 27 -5 0 -19
-12 -30 -27 l-21 -28 6 53 c4 28 4 52 0 52 -3 0 -17 -21 -30 -47 -13 -27 -37
-65 -54 -85 -21 -27 -38 -71 -61 -160 -100 -378 -220 -801 -264 -926 -13 -38
-27 -37 -40 4 -6 16 -21 42 -33 57 -13 16 -24 40 -24 53 0 39 -18 66 -39 59
-15 -5 -22 4 -37 45 -24 67 -44 85 -44 39 l0 -34 -25 38 c-14 20 -30 37 -35
37 -13 0 -13 0 5 -51 l16 -43 -27 25 -27 24 8 -30 c4 -16 8 -48 9 -70 2 -55
34 -154 60 -190 36 -48 39 -55 22 -49 -27 10 -18 -11 30 -72 64 -83 77 -109
68 -147 -14 -66 -130 -337 -144 -337 -15 0 -52 108 -57 168 -4 45 -1 72 9 95
9 18 20 48 26 67 13 46 8 263 -7 268 -6 2 -11 28 -11 62 0 88 -16 115 -38 65
-8 -17 -20 -25 -36 -25 -25 0 -40 -33 -89 -190 l-14 -45 -28 50 c-185 327
-486 776 -586 875 -19 19 -51 58 -69 85 -18 28 -40 58 -49 68 -15 18 -16 18
-21 -4 -5 -20 -9 -17 -39 32 -73 116 -82 129 -92 129 -6 0 -8 -9 -3 -22 6 -20
5 -21 -10 -9 -9 7 -16 19 -16 25 0 6 -10 27 -21 46 -20 32 -23 33 -29 15 -6
-16 -14 -7 -44 53 -20 39 -41 72 -46 72 -14 0 -13 -9 6 -64 9 -26 14 -49 11
-52 -3 -3 -21 22 -41 54 -42 69 -66 94 -66 68z m3687 -1348 c-3 -8 -6 -5 -6 6
-1 11 2 17 5 13 3 -3 4 -12 1 -19z m-1879 -643 c268 -401 547 -846 667 -1060
186 -331 396 -769 381 -793 -3 -5 8 -37 24 -71 33 -68 34 -72 23 -70 -21 3
-22 -4 -7 -38 24 -57 44 -184 32 -203 -7 -11 -3 -33 16 -79 21 -53 23 -61 8
-47 -10 9 -21 16 -25 16 -6 0 9 -46 38 -115 l17 -40 -24 23 c-33 30 -38 28
-27 -10 5 -18 7 -44 4 -58 -4 -16 4 -48 20 -83 30 -70 30 -71 4 -56 -20 10
-21 9 -15 -12 26 -94 47 -196 44 -222 -2 -23 -31 52 -107 278 -207 621 -367
992 -576 1341 -164 273 -269 404 -579 721 l-217 222 26 17 c14 9 33 31 42 47
14 28 14 32 0 42 -14 10 -14 14 4 41 10 16 19 38 19 48 0 11 8 28 17 38 12 14
14 21 6 26 -8 5 -9 13 -3 22 14 22 12 30 -7 30 -13 0 -9 8 15 33 22 23 31 39
26 51 -4 11 2 29 15 46 25 34 27 44 6 37 -16 -7 -29 6 -18 17 4 4 19 6 33 4
20 -2 44 -31 118 -143z m1961 -266 c105 -297 138 -386 344 -909 258 -657 329
-873 362 -1112 8 -62 20 -140 25 -173 9 -55 15 -229 10 -265 -1 -8 1 -35 5
-59 7 -39 6 -44 -8 -38 -25 9 -27 -4 -13 -66 7 -31 12 -58 10 -58 -2 -1 -10
-2 -16 -3 -8 -1 -13 -19 -14 -49 0 -26 -6 -53 -12 -59 -7 -7 -12 -28 -12 -47
-1 -20 -7 -47 -15 -61 -8 -14 -14 -42 -15 -62 0 -49 -42 -82 -77 -60 -10 6 -6
28 17 92 25 67 33 110 42 224 12 164 4 631 -12 721 -45 243 -106 428 -330
1000 -259 663 -295 773 -354 1085 -9 47 -19 96 -22 110 -13 59 11 0 85 -211z
m-2963 148 c57 -56 74 -79 74 -101 0 -15 -31 -143 -70 -283 -38 -141 -70 -259
-70 -264 0 -4 -5 -20 -10 -35 -8 -20 -14 -24 -22 -16 -8 8 -8 63 1 214 6 112
13 269 14 351 2 134 0 147 -15 147 -11 0 -18 8 -18 18 0 19 18 42 33 42 5 0
42 -33 83 -73z m324 -327 c0 -19 -20 -27 -33 -13 -8 7 11 33 24 33 5 0 9 -9 9
-20z m-23 -85 c-4 -8 -11 -15 -17 -15 -14 0 -13 27 3 33 16 6 21 1 14 -18z
m-36 -102 c-8 -15 -10 -15 -11 -2 0 17 10 32 18 25 2 -3 -1 -13 -7 -23z m5026
-165 c-3 -8 -6 -5 -6 6 -1 11 2 17 5 13 3 -3 4 -12 1 -19z m-5385 -80 c-15
-15 -26 -4 -18 18 5 13 9 15 18 6 9 -9 9 -15 0 -24z m-358 -103 c-4 -8 -10
-15 -15 -15 -4 0 -6 7 -3 15 4 8 10 15 15 15 4 0 6 -7 3 -15z m1012 -90 c-3
-8 -12 -15 -21 -15 -18 0 -20 32 -3 63 11 22 11 22 21 -6 5 -15 6 -34 3 -42z
m24 -75 c10 -38 106 -436 184 -765 33 -137 51 -202 70 -247 6 -13 3 -15 -15
-11 -23 6 -23 6 6 -43 15 -27 35 -60 44 -73 14 -23 14 -23 -8 -16 l-22 7 21
-42 c15 -29 18 -45 11 -54 -7 -9 0 -27 26 -66 23 -34 30 -51 19 -47 -26 10
-19 -19 14 -56 34 -39 36 -47 15 -47 -21 0 -19 -7 16 -51 23 -29 27 -39 15
-39 -24 0 -20 -11 27 -58 l42 -43 -30 7 -30 7 40 -42 c37 -39 38 -41 15 -41
-23 0 -23 0 -4 -21 10 -12 31 -27 46 -35 33 -17 37 -34 8 -34 -32 0 -23 -15
28 -49 34 -22 41 -31 27 -31 -17 -1 -13 -7 19 -35 27 -24 34 -35 23 -35 -23 0
-21 -7 8 -42 37 -44 25 -52 -74 -45 -94 6 -166 27 -188 55 -38 47 -76 139 -77
184 -1 27 -2 48 -4 48 -2 0 -12 -5 -23 -11 -19 -10 -20 -8 -13 25 5 32 4 36
-15 36 -16 0 -21 6 -21 24 0 16 -7 27 -21 31 -21 7 -22 29 -4 78 6 13 2 17
-14 17 -15 0 -21 6 -21 23 0 30 -29 110 -43 119 -6 4 -13 40 -15 82 -4 72 -5
76 -28 76 -26 0 -29 9 -15 58 8 27 7 34 -8 42 -13 6 -17 17 -13 35 2 15 -1 37
-8 50 -10 18 -10 34 -2 64 9 37 8 41 -9 41 -16 0 -17 4 -8 27 7 18 6 30 -1 37
-5 5 -10 28 -10 51 0 23 -4 45 -9 50 -13 15 -22 103 -11 110 16 10 11 45 -6
45 -14 0 -13 5 5 36 26 44 26 54 1 54 -26 0 -25 3 6 56 23 38 24 44 9 44 -14
0 -17 6 -12 35 5 32 4 34 -13 25 -18 -10 -18 -8 -6 22 8 18 17 44 21 56 6 21
5 23 -15 17 -21 -7 -22 -5 -14 21 4 16 7 49 6 74 -1 25 5 54 13 67 20 30 19
36 -4 30 -19 -5 -19 -4 0 27 23 37 24 46 4 46 -20 0 -19 24 1 55 23 34 32 31
44 -15z m-1000 -18 c0 -5 -7 -17 -15 -28 -14 -18 -14 -17 -4 9 12 27 19 34 19
19z m1500 -221 c39 -62 70 -119 70 -125 0 -6 11 -29 25 -51 13 -22 25 -50 25
-61 0 -12 18 -46 40 -75 33 -44 37 -55 24 -59 -13 -5 -9 -14 20 -48 19 -24 33
-49 30 -56 -3 -8 8 -30 25 -49 35 -39 38 -47 16 -47 -21 0 -19 -7 16 -51 18
-23 24 -37 15 -33 -26 10 -19 -8 29 -68 30 -39 40 -58 30 -58 -20 0 -19 -6 4
-38 10 -15 27 -48 39 -73 11 -26 25 -50 31 -53 6 -4 8 -18 5 -30 -3 -14 2 -36
15 -57 12 -19 21 -44 21 -57 0 -13 5 -32 11 -43 6 -11 14 -41 19 -67 5 -26 14
-67 20 -92 26 -97 42 -156 50 -180 5 -14 11 -45 14 -70 l6 -45 -28 32 c-108
125 -349 632 -473 993 -56 161 -203 645 -213 700 l-7 35 26 -30 c14 -16 57
-81 95 -144z m-1812 -371 c-7 -10 -14 -17 -17 -15 -4 4 18 35 25 35 2 0 -1 -9
-8 -20z m-24 -185 c-6 -16 -24 -21 -24 -7 0 11 11 22 21 22 5 0 6 -7 3 -15z
m7233 -337 c-3 -8 -6 -5 -6 6 -1 11 2 17 5 13 3 -3 4 -12 1 -19z m-6777 -138
c0 -5 -4 -10 -10 -10 -5 0 -10 5 -10 10 0 6 5 10 10 10 6 0 10 -4 10 -10z m40
-356 c0 -8 -4 -14 -10 -14 -5 0 -10 9 -10 21 0 11 5 17 10 14 6 -3 10 -13 10
-21z m3440 -84 c0 -16 -4 -30 -10 -30 -11 0 -14 43 -3 53 11 12 13 8 13 -23z
m-3410 -21 c0 -11 -4 -17 -10 -14 -5 3 -10 15 -10 26 0 11 5 17 10 14 6 -3 10
-15 10 -26z m2893 -84 c1 -15 -4 -30 -10 -32 -9 -3 -13 8 -13 38 0 48 19 43
23 -6z m503 -13 c-12 -12 -18 8 -10 35 l8 28 4 -28 c2 -16 1 -31 -2 -35z
m-3366 7 c0 -10 -4 -19 -10 -19 -5 0 -10 12 -10 26 0 14 4 23 10 19 6 -3 10
-15 10 -26z m3341 -126 c-9 -16 -10 -15 -11 9 0 14 3 35 8 45 6 15 8 14 10 -9
2 -15 -1 -35 -7 -45z m-3306 36 c8 -23 1 -34 -14 -24 -13 8 -15 45 -2 45 5 0
13 -9 16 -21z m-380 -179 c-3 -5 -11 -10 -16 -10 -6 0 -7 5 -4 10 3 6 11 10
16 10 6 0 7 -4 4 -10z m35 -94 c0 -3 -4 -8 -10 -11 -5 -3 -10 -1 -10 4 0 6 5
11 10 11 6 0 10 -2 10 -4z m40 -107 c0 -6 -4 -7 -10 -4 -5 3 -10 11 -10 16 0
6 5 7 10 4 6 -3 10 -11 10 -16z m4460 -11 c0 -19 -18 -43 -25 -36 -4 3 -2 16
5 27 12 24 20 27 20 9z m2565 -348 c-4 -12 -9 -19 -12 -17 -3 3 -2 15 2 27 4
12 9 19 12 17 3 -3 2 -15 -2 -27z m-6737 -115 c-3 -3 -9 2 -12 12 -6 14 -5 15
5 6 7 -7 10 -15 7 -18z m62 -60 c20 -24 6 -28 -15 -5 -10 11 -13 20 -8 20 6 0
16 -7 23 -15z m54 -61 c3 -8 2 -12 -4 -9 -6 3 -10 10 -10 16 0 14 7 11 14 -7z
m116 -88 c0 -11 -19 -15 -25 -6 -3 5 1 10 9 10 9 0 16 -2 16 -4z"/>
</g>
</svg>
