<?xml version="1.0" standalone="no"?>
<!DOCTYPE svg PUBLIC "-//W3C//DTD SVG 20010904//EN"
 "http://www.w3.org/TR/2001/REC-SVG-20010904/DTD/svg10.dtd">
<svg version="1.0" xmlns="http://www.w3.org/2000/svg"
 width="870.000000pt" height="392.000000pt" viewBox="0 0 870.000000 392.000000"
 preserveAspectRatio="xMidYMid meet">
<metadata>
Created by potrace 1.16, written by Peter Selinger 2001-2019
</metadata>
<g transform="translate(0.000000,392.000000) scale(0.100000,-0.100000)"
fill="#000000" stroke="none">
<path d="M3986 3825 c-23 -18 -67 -20 -83 -4 -8 8 -21 6 -46 -6 -21 -10 -45
-14 -57 -10 -13 4 -31 0 -46 -10 -14 -9 -40 -15 -57 -14 -18 1 -41 -1 -53 -4
-11 -4 -68 -9 -126 -11 -58 -2 -115 -9 -126 -15 -12 -6 -35 -10 -51 -9 -18 1
-38 -5 -50 -16 -18 -16 -24 -17 -51 -6 -24 10 -36 10 -59 0 -17 -6 -34 -9 -39
-6 -5 3 -24 -1 -41 -10 -17 -8 -35 -13 -41 -9 -5 3 -20 -1 -32 -9 -26 -18 -59
-21 -74 -6 -8 8 -19 8 -38 0 -15 -5 -42 -10 -59 -10 -18 0 -41 -6 -52 -14 -11
-7 -36 -16 -55 -19 -19 -3 -55 -11 -80 -17 -25 -6 -62 -14 -83 -17 -20 -3 -40
-9 -43 -14 -3 -5 -13 -9 -22 -9 -10 0 -34 -9 -55 -20 -20 -11 -42 -20 -47 -20
-6 0 -30 -9 -52 -20 -23 -11 -50 -20 -60 -20 -10 0 -18 -4 -18 -10 0 -5 -9
-10 -19 -10 -11 0 -23 -4 -26 -10 -3 -5 -17 -10 -30 -10 -13 0 -27 -4 -30 -10
-3 -5 -13 -10 -22 -10 -15 0 -67 -21 -115 -46 -14 -8 -36 -14 -47 -14 -12 0
-21 -4 -21 -9 0 -12 -57 -34 -69 -27 -5 3 -23 -5 -39 -19 -16 -14 -36 -25 -44
-25 -8 0 -26 -9 -39 -21 -15 -13 -31 -18 -46 -14 -13 3 -25 0 -30 -8 -12 -19
-75 -54 -114 -62 -19 -4 -44 -14 -56 -22 -12 -8 -27 -12 -32 -9 -5 4 -16 -2
-23 -12 -7 -11 -23 -22 -35 -26 -11 -4 -28 -18 -37 -31 -10 -16 -26 -25 -41
-25 -14 0 -30 -9 -37 -20 -7 -11 -23 -20 -35 -20 -13 0 -24 -8 -28 -20 -4 -13
-15 -20 -31 -20 -16 0 -27 -7 -33 -22 -5 -15 -17 -23 -32 -23 -18 0 -28 -10
-42 -38 -14 -31 -21 -36 -41 -31 -19 4 -25 0 -36 -26 -11 -26 -18 -31 -38 -27
-19 4 -26 -1 -34 -24 -10 -30 -22 -37 -33 -19 -10 17 -32 -6 -39 -41 -5 -24
-10 -29 -25 -24 -12 4 -21 0 -25 -11 -5 -13 -9 -15 -18 -6 -18 18 -28 14 -28
-9 0 -16 -4 -19 -19 -14 -15 5 -24 -1 -35 -24 -9 -17 -16 -39 -16 -51 0 -11
-7 -20 -15 -20 -8 0 -14 5 -12 11 4 21 -21 21 -28 0 -3 -11 -16 -21 -28 -23
-20 -3 -23 -11 -28 -73 -4 -38 -7 -104 -8 -146 l-1 -75 -108 -72 c-59 -39
-116 -74 -127 -78 -36 -14 -189 -119 -263 -179 l-72 -60 6 -45 c8 -54 14 -66
24 -50 12 19 40 4 40 -20 0 -16 4 -20 19 -15 13 4 34 -8 70 -41 54 -49 62 -73
11 -36 -16 12 -34 22 -40 22 -5 0 -10 10 -10 21 0 17 -3 19 -14 10 -19 -16
-46 -3 -46 22 0 16 -3 18 -12 9 -7 -7 -21 -12 -31 -12 -18 0 -58 -35 -57 -49
1 -3 7 -17 15 -31 8 -14 14 -38 15 -54 0 -22 13 -42 58 -82 59 -56 132 -110
192 -143 19 -11 89 -72 155 -136 66 -63 128 -118 138 -121 9 -3 17 -9 17 -13
0 -4 23 -20 52 -36 28 -15 58 -34 67 -42 69 -58 147 -106 231 -141 55 -23 106
-42 114 -42 8 0 68 -20 133 -44 118 -44 216 -73 262 -78 29 -4 47 -48 96 -246
40 -159 70 -226 103 -230 14 -2 29 4 36 14 8 10 20 15 29 11 13 -5 15 0 10 29
-4 25 -2 34 8 34 15 0 39 44 39 71 0 9 7 22 15 29 20 16 19 32 -3 72 -10 18
-24 53 -32 78 -7 25 -22 57 -33 73 -10 15 -17 27 -15 27 2 0 35 -11 73 -25 39
-13 78 -25 88 -25 49 0 72 -27 101 -114 16 -47 37 -93 46 -101 17 -15 19 -15
29 2 10 16 15 14 53 -30 47 -52 58 -57 58 -27 0 33 45 26 80 -12 25 -27 31
-30 39 -18 8 12 16 8 47 -23 36 -36 38 -36 51 -17 20 29 38 25 70 -15 l27 -34
23 21 22 21 37 -42 c43 -47 52 -49 78 -19 l19 22 18 -22 c21 -26 27 -27 51 -5
18 16 20 15 44 -10 27 -29 50 -35 57 -14 3 9 9 8 23 -4 32 -25 74 -39 100 -33
17 4 31 1 44 -11 11 -10 26 -15 35 -11 9 3 29 -4 45 -16 24 -17 32 -19 44 -9
8 7 21 9 28 5 7 -5 31 -9 54 -9 22 -1 56 -9 74 -18 18 -10 43 -17 55 -17 13 0
38 -7 58 -15 24 -10 44 -12 64 -6 20 6 37 4 53 -4 19 -10 28 -10 51 4 26 15
29 15 52 -7 22 -21 28 -22 46 -10 17 11 25 10 52 -6 22 -13 34 -15 42 -7 16
16 52 14 67 -4 9 -11 16 -13 24 -5 14 14 46 12 76 -3 21 -11 29 -10 52 2 22
13 30 13 51 2 18 -9 30 -10 44 -3 12 7 25 7 34 1 20 -12 56 -11 79 3 16 10 24
10 41 0 16 -10 28 -11 54 -2 25 8 40 8 55 0 16 -9 25 -8 35 0 10 8 19 8 35 0
16 -9 21 -8 27 5 4 12 13 15 29 11 17 -5 24 -2 24 9 0 10 10 15 29 15 16 0 34
7 42 16 7 9 25 14 44 13 17 -2 41 4 54 13 18 13 29 14 43 7 15 -8 25 -5 49 15
33 28 44 31 54 16 10 -16 19 -12 30 13 8 17 17 21 42 20 25 -2 33 2 38 18 6
18 13 21 46 16 28 -4 39 -1 39 8 0 16 25 26 46 18 8 -3 25 4 39 17 14 13 32
20 47 18 13 -2 31 5 41 15 11 11 25 16 38 12 11 -4 19 -2 19 4 0 6 9 11 21 11
12 0 30 11 41 25 11 14 26 25 35 25 9 0 27 12 40 26 19 21 30 25 53 21 22 -5
29 -2 33 14 3 11 23 27 46 37 22 9 41 22 41 29 0 18 39 41 59 36 11 -3 24 5
35 21 9 14 25 26 36 26 11 0 20 5 20 10 0 18 48 60 62 55 7 -2 22 10 33 28 11
18 30 33 42 35 12 2 24 11 27 20 3 9 20 26 37 37 17 11 37 32 45 48 10 18 22
27 39 27 15 0 25 6 25 15 0 8 13 21 29 29 31 16 65 43 118 93 18 18 38 33 43
33 6 0 10 6 10 13 0 18 32 47 51 47 8 0 20 9 27 20 7 11 19 20 27 20 8 0 22
11 31 25 9 14 24 25 34 25 11 0 22 12 28 29 6 16 19 32 30 35 10 4 24 17 30
30 6 15 23 27 41 31 17 4 33 15 36 26 4 10 11 19 16 19 5 0 14 11 19 25 5 14
18 29 27 32 20 8 34 19 63 47 15 15 17 23 9 39 -13 23 -6 31 41 46 77 24 345
8 487 -30 40 -10 83 -19 97 -19 26 0 75 -14 236 -65 154 -50 188 -63 223 -88
18 -12 34 -25 37 -28 8 -9 60 -36 135 -69 39 -17 99 -46 135 -65 36 -18 106
-50 155 -70 50 -20 100 -43 112 -50 12 -8 29 -15 38 -15 17 0 96 -23 158 -46
43 -16 99 -10 118 13 14 16 -1 89 -28 145 -22 43 -44 203 -37 268 3 30 6 105
5 165 0 83 5 127 20 180 20 67 20 71 4 140 -17 73 -16 196 3 244 9 25 -17 151
-37 175 -13 16 -33 183 -26 207 4 11 -1 42 -11 69 -15 43 -16 53 -4 77 15 29
50 228 53 300 2 25 11 54 25 72 49 67 14 103 -77 78 -31 -9 -78 -21 -106 -28
-27 -7 -79 -28 -115 -46 -36 -18 -69 -33 -74 -33 -13 0 -262 -127 -346 -177
-80 -47 -103 -60 -135 -77 -11 -6 -60 -38 -109 -71 -48 -33 -96 -64 -105 -70
-9 -5 -36 -23 -60 -38 -210 -135 -389 -194 -618 -204 -117 -5 -153 -3 -205 11
-111 30 -120 35 -112 65 13 48 10 66 -13 76 -13 5 -23 15 -23 22 0 7 -7 10
-15 7 -8 -4 -15 -2 -15 3 0 16 -84 100 -107 107 -14 4 -23 15 -23 27 0 12 -7
19 -20 19 -13 0 -20 7 -20 20 0 13 -10 24 -25 30 -15 6 -25 17 -25 29 0 15
-10 23 -32 29 -28 7 -33 13 -31 35 1 23 -2 27 -23 27 -16 0 -28 8 -36 25 -6
14 -18 25 -27 25 -9 0 -22 9 -29 20 -7 11 -23 20 -37 20 -20 0 -25 5 -25 24 0
15 -7 26 -20 29 -13 3 -22 17 -26 36 -5 25 -12 30 -38 33 -24 2 -32 8 -34 26
-2 13 -11 26 -20 29 -9 3 -25 13 -35 22 -10 8 -31 14 -48 13 -22 -2 -29 2 -29
16 0 26 -11 34 -26 21 -17 -14 -44 -4 -44 16 0 9 -9 15 -25 15 -15 0 -31 9
-40 24 -9 13 -29 26 -45 30 -18 3 -30 12 -30 21 0 10 -10 15 -30 15 -16 0 -30
5 -30 10 0 6 -13 10 -30 10 -20 0 -30 5 -30 15 0 10 -11 15 -35 15 -24 0 -35
5 -35 15 0 11 -11 15 -40 15 -36 0 -40 3 -40 25 0 18 -5 25 -19 25 -11 0 -23
5 -27 11 -3 6 -17 8 -30 5 -20 -5 -26 -1 -34 19 -8 20 -15 25 -30 20 -15 -5
-22 0 -30 20 -8 20 -15 25 -30 20 -13 -4 -23 0 -31 13 -7 12 -19 17 -30 15
-11 -3 -21 1 -25 11 -4 10 -13 14 -24 11 -18 -6 -50 18 -50 36 0 5 -11 7 -24
3 -18 -4 -28 0 -37 14 -10 16 -17 18 -37 11 -24 -9 -41 1 -42 24 0 4 -7 7 -15
7 -8 0 -15 7 -15 15 0 10 -10 15 -29 15 -16 0 -34 7 -41 15 -7 8 -18 15 -25
15 -7 0 -18 7 -25 15 -9 11 -22 14 -46 9 -21 -4 -34 -2 -34 4 0 16 -139 31
-300 33 -41 0 -80 5 -87 11 -7 6 -26 5 -52 -3 -31 -9 -47 -9 -67 -1 -31 15
-35 15 -58 -3z"/>
</g>
</svg>
