<?xml version="1.0" standalone="no"?>
<!DOCTYPE svg PUBLIC "-//W3C//DTD SVG 20010904//EN"
 "http://www.w3.org/TR/2001/REC-SVG-20010904/DTD/svg10.dtd">
<svg version="1.0" xmlns="http://www.w3.org/2000/svg"
 width="1536.000000pt" height="948.000000pt" viewBox="0 0 1536.000000 948.000000"
 preserveAspectRatio="xMidYMid meet">
<metadata>
Created by potrace 1.16, written by Peter Selinger 2001-2019
</metadata>
<g transform="translate(0.000000,948.000000) scale(0.100000,-0.100000)"
fill="#000000" stroke="none">
<path d="M3495 9469 c-139 -20 -323 -86 -516 -185 -126 -64 -444 -255 -538
-322 -98 -69 -214 -184 -303 -299 -138 -179 -253 -269 -503 -395 l-140 -70
-170 5 c-93 2 -361 10 -595 17 -387 12 -433 12 -514 -3 -143 -26 -227 -77
-211 -127 15 -49 193 -99 420 -120 202 -18 509 -59 612 -81 114 -24 214 -68
298 -132 83 -61 491 -420 598 -525 49 -48 150 -157 225 -242 75 -85 224 -252
332 -370 503 -554 513 -567 925 -1197 445 -679 1001 -1376 1676 -2098 396
-424 451 -466 814 -625 66 -28 244 -112 395 -185 401 -194 521 -237 822 -296
334 -66 596 -88 1143 -96 l419 -6 -54 -46 c-30 -25 -144 -126 -255 -224 -110
-98 -263 -224 -340 -279 -113 -82 -179 -141 -345 -308 -190 -191 -250 -243
-370 -313 -25 -14 -108 -76 -185 -137 -147 -117 -282 -192 -490 -273 -96 -37
-461 -131 -581 -148 -102 -16 -148 -3 -336 92 -146 74 -238 131 -425 263 -124
88 -247 109 -378 66 -36 -12 -67 -25 -70 -30 -3 -5 16 -12 42 -15 112 -16 201
-38 239 -60 44 -26 75 -81 89 -160 14 -79 64 -146 123 -166 22 -7 69 -9 136
-4 120 8 165 -5 190 -54 9 -16 16 -32 16 -34 0 -3 -62 -8 -137 -11 -125 -7
-144 -5 -208 15 -99 30 -172 69 -310 164 -195 134 -318 185 -444 185 -89 0
-149 -22 -202 -73 l-44 -42 85 -3 c47 -1 95 -4 107 -7 37 -8 82 -54 123 -125
63 -108 97 -122 305 -124 l140 -2 80 -37 c43 -21 122 -69 175 -107 120 -86
172 -110 258 -117 90 -7 196 15 375 78 78 28 217 77 308 109 189 67 406 123
559 144 58 9 215 25 350 36 453 38 671 82 731 146 19 20 21 27 10 34 -22 13
31 94 87 135 80 58 156 77 332 84 l155 6 -60 31 c-112 59 -210 86 -325 91
-100 4 -108 3 -160 -24 -42 -21 -64 -42 -93 -86 -21 -32 -57 -76 -79 -98 -80
-78 -232 -128 -390 -129 -63 0 -203 15 -241 26 -13 4 16 34 115 121 430 375
920 728 1343 969 251 142 280 161 353 229 41 38 131 134 199 212 167 191 220
237 418 360 212 132 263 170 346 253 109 111 148 187 310 612 139 366 171 442
197 470 13 15 88 59 166 99 77 40 164 86 191 102 112 66 249 110 445 143 260
43 969 190 1251 259 191 47 395 138 466 207 l52 51 62 -7 c160 -16 516 -98
1054 -243 809 -216 1020 -255 1130 -204 64 29 80 54 80 121 -1 33 -6 65 -14
74 -23 27 -128 72 -327 140 -104 35 -261 89 -349 119 -165 57 -717 225 -1120
342 -340 98 -467 141 -601 204 -220 105 -345 205 -460 368 -125 178 -336 370
-554 501 -126 77 -1228 540 -2460 1035 -1215 488 -1861 761 -2150 909 -158 81
-204 99 -315 127 -198 51 -646 206 -757 263 -54 27 -166 95 -250 150 -652 430
-985 636 -1193 738 -243 121 -368 144 -852 160 -348 11 -375 11 -458 -1z"/>
</g>
</svg>
