<?xml version="1.0" standalone="no"?>
<!DOCTYPE svg PUBLIC "-//W3C//DTD SVG 20010904//EN"
 "http://www.w3.org/TR/2001/REC-SVG-20010904/DTD/svg10.dtd">
<svg version="1.0" xmlns="http://www.w3.org/2000/svg"
 width="1536.000000pt" height="1180.000000pt" viewBox="0 0 1536.000000 1180.000000"
 preserveAspectRatio="xMidYMid meet">
<metadata>
Created by potrace 1.16, written by Peter Selinger 2001-2019
</metadata>
<g transform="translate(0.000000,1180.000000) scale(0.100000,-0.100000)"
fill="#000000" stroke="none">
<path d="M12000 11789 c-292 -34 -535 -105 -739 -216 -135 -74 -309 -195 -411
-287 -52 -47 -98 -86 -101 -86 -4 0 -33 -33 -65 -72 -32 -40 -117 -138 -189
-218 -239 -264 -268 -311 -509 -790 -152 -305 -219 -449 -261 -563 -22 -62
-29 -66 -456 -293 -546 -289 -668 -357 -1004 -559 -176 -105 -372 -220 -435
-255 -165 -90 -305 -174 -557 -337 -356 -228 -540 -323 -758 -389 -82 -25
-104 -28 -245 -27 -259 1 -312 9 -935 155 -340 79 -515 126 -955 256 -130 39
-362 105 -515 147 -246 67 -423 117 -1110 312 -88 25 -310 94 -492 154 -408
133 -524 165 -968 267 -754 174 -1003 218 -1187 210 -53 -2 -100 -7 -104 -11
-10 -10 33 -104 82 -178 61 -93 131 -154 269 -236 147 -88 194 -109 394 -177
86 -30 248 -85 361 -124 113 -39 358 -120 545 -182 389 -126 681 -231 993
-356 374 -149 432 -186 618 -389 135 -147 274 -280 414 -396 146 -121 179
-154 185 -187 9 -45 55 -129 121 -221 41 -57 146 -171 295 -318 l231 -230
-208 -108 c-115 -59 -279 -147 -364 -195 -85 -48 -227 -127 -315 -175 -450
-246 -544 -303 -593 -359 -36 -41 -40 -61 -14 -75 60 -32 297 -18 434 25 45
14 168 70 272 123 105 54 220 109 256 123 67 27 571 138 715 157 44 6 96 14
115 16 l35 6 -28 -26 c-18 -16 -82 -42 -190 -75 -329 -104 -524 -171 -619
-214 -294 -132 -737 -393 -829 -488 -45 -47 -69 -109 -50 -132 29 -35 80 -41
356 -41 245 1 285 3 436 28 91 15 246 38 345 52 98 13 230 33 293 45 344 62
695 73 1237 41 194 -11 359 -24 369 -27 9 -4 20 -16 25 -28 8 -22 26 -34 93
-60 21 -9 41 -25 46 -38 10 -28 35 -50 78 -72 17 -9 34 -25 38 -36 4 -11 23
-31 42 -45 32 -21 34 -25 17 -30 -41 -13 -49 -23 -49 -56 0 -33 2 -35 64 -54
46 -15 67 -27 77 -47 16 -31 24 -34 97 -43 69 -9 86 -25 63 -60 -38 -58 -9
-83 115 -96 136 -14 268 -47 282 -71 32 -53 166 -84 320 -75 l99 6 -6 -25 c-9
-34 10 -64 39 -64 14 0 63 15 108 33 l83 34 64 -24 c161 -59 240 -92 455 -195
126 -60 231 -111 233 -112 1 -2 -13 -39 -33 -82 -74 -163 -96 -295 -76 -473
10 -96 15 -110 65 -205 62 -114 213 -479 310 -744 35 -97 87 -237 115 -310 47
-124 164 -492 210 -662 25 -94 81 -392 81 -434 0 -62 -20 -75 -244 -161 -65
-26 -202 -71 -305 -102 -102 -31 -203 -64 -225 -75 -21 -11 -65 -24 -98 -29
-65 -11 -123 -36 -150 -66 -26 -28 -61 -114 -51 -124 4 -4 28 5 51 21 44 29
121 48 142 35 6 -4 15 -17 20 -30 10 -27 69 -48 109 -38 14 3 47 21 72 39 61
45 154 79 309 114 69 15 171 42 225 59 153 48 212 55 312 36 104 -20 200 -53
323 -115 103 -51 150 -65 250 -75 36 -4 94 -17 130 -30 71 -25 224 -61 309
-72 49 -7 55 -11 65 -40 18 -52 40 -68 96 -68 l50 0 0 -52 c0 -38 4 -53 14
-53 20 0 64 45 72 73 10 42 -6 173 -31 254 -6 18 -2 25 20 33 45 17 153 30
319 39 156 8 160 8 183 35 18 21 23 39 23 84 0 31 4 63 9 71 13 20 59 8 120
-29 56 -35 84 -36 89 -3 5 32 -23 78 -65 110 -33 26 -44 28 -137 31 -56 1
-119 3 -141 4 -22 0 -87 -12 -145 -27 -158 -42 -225 -54 -340 -61 -98 -6 -352
8 -445 25 l-40 7 36 16 c36 16 79 64 79 90 0 7 14 19 30 25 42 16 42 63 0 105
-28 28 -35 30 -83 26 -35 -3 -87 -20 -152 -50 -162 -75 -254 -93 -345 -68 -43
12 -69 51 -164 250 -145 303 -227 540 -346 1000 -44 168 -84 321 -90 340 -23
78 -20 81 202 160 90 32 199 78 243 104 85 50 159 75 292 99 45 8 107 27 138
41 l55 25 65 -18 c37 -10 78 -29 92 -42 42 -40 105 -133 233 -349 174 -291
201 -320 303 -320 53 0 67 13 67 60 0 40 -72 198 -136 297 -41 65 -106 195
-100 201 3 2 59 -29 127 -69 111 -66 158 -99 342 -242 34 -26 86 -61 115 -77
77 -44 125 -92 177 -175 62 -100 91 -120 177 -120 53 0 72 -4 97 -22 43 -33
80 -101 102 -191 36 -144 39 -152 59 -152 25 0 35 51 26 138 -12 119 -70 259
-142 345 -13 16 -24 37 -24 48 0 37 -28 75 -102 136 -40 33 -138 120 -218 192
-80 72 -163 144 -185 159 -22 15 -58 41 -81 58 -22 16 -79 52 -125 78 -111 62
-200 135 -271 223 -32 39 -79 84 -103 100 -25 15 -101 64 -169 109 -149 97
-533 293 -711 363 -182 72 -460 212 -459 232 2 22 122 213 167 264 31 37 55
51 145 85 59 23 184 62 277 86 350 92 462 139 1030 428 352 180 433 225 626
348 165 105 264 177 359 263 41 37 89 73 105 80 110 49 463 394 605 592 197
275 378 595 541 960 187 418 211 483 282 768 65 260 81 372 74 530 -7 161 -32
279 -107 510 -65 200 -137 460 -146 528 -4 24 -1 84 5 133 21 157 58 216 337
544 72 85 160 191 196 234 44 55 90 98 148 138 121 84 124 85 256 102 283 38
389 47 739 61 377 15 452 24 516 61 110 64 -12 139 -501 305 -187 64 -369 118
-570 169 -69 18 -139 40 -157 49 -18 9 -56 44 -85 78 -62 72 -197 199 -283
264 -63 49 -275 179 -360 221 -197 99 -567 193 -860 218 -140 12 -398 11 -505
-1z m-3290 -7723 c0 -8 -8 -24 -18 -36 l-18 -22 -42 21 c-23 12 -42 25 -42 30
0 10 99 30 113 24 4 -2 7 -10 7 -17z m456 -597 c206 -129 448 -305 498 -360
65 -73 63 -95 -16 -159 -91 -72 -301 -175 -422 -205 -123 -31 -251 -35 -259
-7 -2 9 -23 88 -46 174 l-42 158 46 162 c60 213 95 318 104 318 5 0 66 -36
137 -81z"/>
</g>
</svg>
