<?xml version="1.0" encoding="UTF-8" standalone="no"?>
<svg
   version="1.2"
   viewBox="0 0 307.59113 371.97303"
   id="svg7"
   width="307.59113"
   height="371.97302"
   xmlns="http://www.w3.org/2000/svg"
   xmlns:svg="http://www.w3.org/2000/svg">
  <defs
     id="defs11" />
  <!-- Generator: Adobe Illustrator 28.7.1, SVG Export Plug-In . SVG Version: 1.2.0 Build 142)  -->
  <g
     id="g5"
     transform="translate(-17.980742,-12.538447)">
    <g
       id="Layer_1">
      <path
         d="m 126.1,38.4 c 13.8,0.2 24.7,-5.5 33.7,-15.5 5.3,-5.9 9.1,-6.9 16.5,-4.1 9.7,3.6 19.1,2.4 28.2,-1.9 1.7,-0.8 3.3,-1.7 5,-2.5 7.3,-3.5 12.9,-2.1 17.7,4.5 4.8,6.7 11,11.9 18.7,14.7 3.7,1.3 7.7,1.8 11.5,2.2 2.7,0.3 5.5,0 8.2,0 5,0.1 8.6,2.8 10.2,7.5 0.7,2 1.1,4 1.5,6.1 2.6,13 10.2,22.1 21.8,28.1 2.3,1.2 4.7,2.3 6.8,3.8 4.4,3.1 6.1,7.5 5.5,12.8 -0.2,1.6 -0.6,3.2 -1,4.8 -2.5,10.9 -2.4,21.4 3.9,31.2 1.5,2.4 3.5,4.5 5.3,6.8 0.8,1 1.5,1.9 2.3,2.8 4.5,5.5 4.9,11.2 1,17.3 -3.2,5 -5.9,10.2 -7.1,16.1 -2.2,10.7 -0.4,21 3.6,31 1.2,3 2,6.3 2.1,9.6 0.1,4.4 -2.1,8 -5.3,11 -7.1,6.7 -12.7,14.4 -16.9,23.2 -4.5,9.6 -6.2,19.5 -5.3,30 0.6,6.8 -1.5,12.3 -7.5,16.3 -6,3.9 -11.9,8 -17.6,12.4 -6.9,5.5 -12.1,12.7 -16.4,20.4 -2.4,4.3 -4.4,8.7 -6.4,13.2 -3.1,7.1 -8.3,11.5 -16.1,12.5 -9.4,1.2 -18.6,3.2 -27.2,7.3 -8.9,4.2 -17,9.6 -23.8,16.8 -1.3,1.4 -2.8,2.7 -4.3,4 -4.6,3.9 -10,4.4 -15.6,3 -3,-0.8 -5.9,-2.1 -8.8,-3.4 -13.9,-6.2 -28.1,-7.1 -42.7,-2.9 -2.1,0.6 -4.3,1.3 -6.4,1.8 -8.9,2.2 -14.2,0 -18.9,-7.8 -2.4,-4 -4.7,-8.1 -7.1,-12.1 -5.5,-9 -13.4,-15.2 -22.6,-20.1 -2.3,-1.2 -4.7,-2.4 -7,-3.8 -5.2,-3.1 -8.1,-7.6 -8,-13.8 0,-3.9 0.2,-7.9 0,-11.8 -0.2,-3 -1.1,-5.9 -1.8,-8.8 -2.1,-9.1 -6.6,-17.1 -12.1,-24.6 -0.6,-0.8 -1.2,-1.6 -1.8,-2.4 -3.9,-5.4 -5,-11.1 -2.8,-17.5 1.8,-5.2 3.6,-10.5 4.9,-15.8 1.1,-4.2 1.7,-8.6 2.2,-12.9 0.2,-1.6 -0.4,-3.4 -0.6,-5 0,-0.3 -0.2,-0.5 -0.3,-0.8 -1.5,-6.3 -2.9,-12.6 -4.4,-18.9 -1.3,-5.7 0.5,-10.3 4,-14.8 3.2,-4.2 6.3,-8.6 8.9,-13.2 3.6,-6.5 5.5,-13.6 6.3,-20.9 0.4,-4 0.6,-8.1 0.5,-12.2 -0.2,-6 2.3,-10.4 6.9,-13.8 5,-3.7 9.5,-7.8 13.3,-12.8 5.3,-6.9 8.5,-14.6 9.6,-23.2 0.7,-5 2.1,-9.6 6.5,-12.6 1.6,-1.1 3.6,-1.9 5.4,-2.6 11.9,-4.3 20.8,-11.9 26.2,-23.6 0.5,-1.1 0.9,-2.3 1.2,-3.5 1.5,-6.2 5.9,-11.9 14.6,-11.2 0.6,0 1.1,0 1.7,0 z m 9.9,158.7 0.8,7.6 c 0,0.1 0,0.3 0,0.4 -1.1,2.8 0,5.7 0,8.5 0,5.4 -0.1,10.9 -0.2,16.3 0,0.6 0,1.3 0.2,1.9 0.3,2 0.7,4 0.8,6 0.2,7.5 0.4,29.1 0.6,32.3 0.3,5 0.9,9.9 1.2,14.9 0.4,6.2 0.6,12.3 1,18.5 0.8,10.8 3.3,41.6 3.8,46.3 0.6,-2.6 0.8,-5.1 0.9,-7.7 0.2,-3.5 0.3,-7 0.5,-10.5 0.1,-1.5 1,-3 0.7,-4.4 -0.4,-2.6 -0.5,-5 0.6,-7.4 0.3,-0.7 0.3,-1.6 0.3,-2.3 0,-3.7 -0.4,-7.4 -0.3,-11.1 0,-3.1 0.7,-6.2 1,-9.3 0,-0.8 0.2,-1.6 0,-2.3 -1.1,-4.5 -0.6,-9 0.4,-13.4 0.2,-1 0.3,-2.2 0,-3.2 -0.9,-3.7 -0.7,-7.2 0,-10.9 0.4,-1.8 0.4,-3.7 0.4,-5.5 0,-2.3 -0.5,-4.5 -0.6,-6.8 -0.3,-6.2 1,-12.4 0.6,-18.6 -0.6,-8.9 -0.1,-17.8 -0.2,-26.7 0,-4.6 -0.3,-9.2 -0.3,-13.8 0,-0.8 0.7,-1.7 1.1,-2.5 0.6,0.6 1.4,1.1 1.7,1.8 1.3,3 2.4,6.2 3.8,9.2 10.3,21.5 20.4,43.2 31,64.5 9.1,18.2 18.8,36.1 28.3,54.1 0.3,0.6 0.7,1.2 1.1,1.8 0.2,-0.7 0.1,-1.2 0,-1.6 -7.1,-19.2 -13.8,-38.6 -21.4,-57.6 -9.1,-22.8 -19,-45.4 -28.6,-68 -1.6,-3.7 -3.4,-7.3 -5.2,-10.9 -0.9,-1.9 0.3,-3 1.5,-4 1.3,-1.2 1.9,0.2 2.6,0.8 8.9,7.7 17.6,15.4 26.6,23 23.9,20.3 48.6,39.6 73.8,58.3 0.5,0.4 1.1,0.7 1.7,1.1 0,-0.7 -0.3,-1.1 -0.7,-1.5 -7.5,-8.2 -14.8,-16.6 -22.6,-24.6 -10.9,-11 -22.1,-21.6 -33.2,-32.4 -4.6,-4.4 -9.3,-8.7 -14,-13.1 -8.1,-7.5 -16.3,-15 -24.5,-22.4 -1.5,-1.4 -1.5,-2.6 -0.6,-4.2 0.9,-1.7 2.2,-0.8 3.4,-0.5 10.6,3.2 21.1,6.8 31.8,9.7 26.6,7.2 53.2,14.2 79.8,21.3 0.3,0 0.7,0 1.6,0 C 250.8,181 214.3,165.8 176.6,153.3 v -0.9 c 0.1,0 113.9,-19.1 113.9,-19.1 v -0.5 c -2.2,-0.1 -4.3,-0.3 -6.5,-0.4 -5.1,-0.3 -10.2,-0.8 -15.2,-0.7 -7.7,0.1 -15.4,0.4 -23,1 -6,0.5 -12.1,-0.5 -18,1.1 -0.5,0.1 -1.1,0 -1.7,0 -2.6,0 -5.2,-0.1 -7.8,0.1 -4.4,0.4 -8.9,1.1 -13.3,1.6 -2.1,0.2 -4.2,0 -6.2,0.3 -4.4,0.5 -8.8,1.2 -13.2,1.8 -1.9,0.2 -3.9,0.3 -5.9,0.4 32.5,-16.1 64.3,-33.3 95.6,-51.5 0.6,-0.3 1.1,-0.7 1.6,-1.1 0,0 0,-0.1 0,-0.2 0,0 0,-0.1 -0.2,-0.3 -33.7,10.7 -65.9,25.2 -98.7,38.6 24.2,-23.6 47.4,-48.2 69.4,-73.9 -27.1,18.9 -51.9,40.7 -77.4,61.7 13.5,-25.7 25,-52.2 36.4,-78.7 -18,22.5 -32.5,47.4 -48.3,72 0,-0.9 0,-1.1 0,-1.3 1,-8.1 2.2,-16.1 3.1,-24.2 0.9,-8 2,-16 2.4,-24.1 0.2,-3.7 0.5,-7.4 0.7,-11.1 0,-1.3 0.1,-2.6 0.2,-3.9 h -0.6 c -6.6,21.9 -13.2,43.9 -18,66.4 -4.8,-17.3 -9.6,-34.4 -16.6,-50.9 0.5,20.2 1.7,40.3 4.3,60.3 -3.5,-3.7 -6.7,-7.6 -9.9,-11.4 -3.3,-3.8 -6.5,-7.7 -10,-11.3 -3.4,-3.5 -7.2,-6.7 -10.8,-10.1 h -0.3 c 0,0.1 26.4,47.7 26.4,47.7 -16.7,-6.4 -32.9,-12.7 -49.9,-16.5 0.3,0.6 0.7,1 1.2,1.3 8.2,5.8 35.1,24.8 40.3,28.6 0.6,0.5 0.9,1.5 1.3,2.2 -0.9,0.2 -1.8,0.5 -2.7,0.6 -0.7,0 -1.4,-0.3 -2.1,-0.2 -4.6,0.4 -9.1,1.1 -13.7,1.4 -14.9,1.2 -29.7,3.3 -44.3,6.5 -0.7,0.2 -1.5,0.4 -2.2,0.6 0.5,0.5 1.1,0.7 1.6,0.7 2.5,0.2 30.5,2.6 34.9,3 0.4,0 0.9,0 1.3,0 2.4,0 4.7,-0.1 7.1,0 1.8,0 3.6,0.4 5.3,0.5 3,0 6,-0.1 9,0 0.9,0 1.8,0.8 2.7,1.2 -0.6,1 -0.9,2.3 -1.8,2.9 -1.8,1.3 -3.9,2.2 -5.8,3.3 -22.7,12.7 -44.6,26.8 -65.6,42.3 -0.8,0.6 -1.6,1.1 -2.3,1.7 0.8,0.2 1.4,0 2,-0.2 8.9,-4.1 17.8,-8.1 26.6,-12.4 14.7,-7.2 29.4,-14.5 44.1,-21.8 0.8,-0.4 1.8,-0.5 2.8,-0.7 0.2,1.2 0.6,2.5 0.4,3.7 -0.1,0.8 -0.9,1.6 -1.6,2.2 -4.3,4.8 -8.8,9.5 -12.9,14.5 -9.6,11.6 -19.1,23.2 -28.4,35 -10.9,14 -21.6,28.2 -30.9,43.4 -0.4,0.6 -0.7,1.2 -1,1.8 3.3,-3.3 6.8,-6.2 9.9,-9.5 12.5,-13.3 65.8,-72.3 68.7,-75.3 0.6,-0.6 1.6,-0.7 2.4,-1 0,0.9 0.2,1.8 0,2.5 -4.7,13.7 -9.5,27.3 -14.2,41 -9.6,28 -19,56.1 -26.9,84.7 -1.2,4.3 -2.3,8.7 -3.4,13.1 l 0.6,0.2 c 19.2,-44.7 37.9,-89.6 54.9,-134.7 z"
         id="path2" />
    </g>
  </g>
</svg>
