<?xml version="1.0" standalone="no"?>
<!DOCTYPE svg PUBLIC "-//W3C//DTD SVG 20010904//EN"
 "http://www.w3.org/TR/2001/REC-SVG-20010904/DTD/svg10.dtd">
<svg version="1.0" xmlns="http://www.w3.org/2000/svg"
 width="1115.000000pt" height="1536.000000pt" viewBox="0 0 1115.000000 1536.000000"
 preserveAspectRatio="xMidYMid meet">
<metadata>
Created by potrace 1.16, written by Peter Selinger 2001-2019
</metadata>
<g transform="translate(0.000000,1536.000000) scale(0.100000,-0.100000)"
fill="#000000" stroke="none">
<path d="M3393 15335 c-119 -72 -126 -275 -13 -398 45 -49 49 -57 41 -84 -20
-70 52 -164 176 -230 54 -29 60 -36 55 -58 -7 -38 24 -109 66 -149 20 -20 73
-59 117 -88 74 -49 80 -56 91 -100 23 -94 55 -132 252 -306 65 -57 72 -67 72
-101 0 -64 29 -138 89 -229 l59 -87 -23 -85 c-13 -47 -34 -123 -46 -169 -13
-51 -35 -103 -56 -134 l-35 -52 35 -30 c32 -28 34 -34 39 -108 7 -111 49 -191
176 -334 55 -61 107 -122 116 -135 l16 -22 -103 -33 c-149 -48 -211 -44 -241
16 -13 24 -23 29 -63 33 -26 3 -86 22 -132 42 -88 40 -130 48 -338 65 -127 10
-195 31 -240 72 -16 16 -29 19 -52 14 -19 -4 -70 2 -132 15 -100 22 -102 22
-237 5 -159 -20 -184 -17 -340 37 -110 38 -122 40 -202 35 -60 -4 -92 -1 -111
8 -38 20 -165 50 -330 79 -327 57 -403 105 -507 319 -69 143 -122 339 -122
455 0 59 -87 202 -177 288 -44 42 -155 114 -177 114 -12 0 -6 -38 18 -107 34
-99 39 -143 22 -175 -12 -24 -12 -29 0 -39 9 -7 21 -27 29 -45 13 -31 12 -39
-11 -95 -38 -93 -45 -101 -77 -95 -53 11 -182 77 -221 114 -49 47 -76 104 -76
165 l0 47 -42 0 c-54 0 -74 20 -94 89 -24 82 -41 111 -90 157 l-44 42 2 83 c3
84 2 84 -50 183 -50 95 -52 101 -52 180 0 131 25 200 151 431 42 77 80 150 84
163 6 22 4 21 -47 -10 -68 -42 -193 -166 -245 -243 -57 -85 -106 -186 -138
-285 -24 -72 -28 -103 -29 -200 -1 -106 2 -124 34 -220 34 -106 36 -118 30
-280 l-4 -85 78 -175 c115 -261 130 -292 171 -355 44 -69 125 -157 171 -186
20 -12 55 -56 89 -112 161 -260 336 -437 545 -550 60 -33 208 -88 272 -101 21
-5 35 -22 63 -75 95 -180 291 -318 548 -386 219 -58 424 -59 650 -4 76 19 97
29 164 81 43 32 110 80 151 105 62 39 75 44 86 32 52 -58 119 -145 157 -204
24 -38 80 -122 123 -185 44 -63 97 -148 118 -188 33 -64 38 -81 38 -142 l0
-69 -42 -30 c-58 -39 -105 -90 -173 -186 -41 -57 -73 -90 -117 -119 -130 -84
-221 -210 -248 -341 -10 -47 -16 -58 -43 -72 -18 -8 -67 -38 -109 -65 l-78
-50 -92 86 c-250 236 -457 300 -733 226 -208 -56 -430 -202 -533 -352 -23 -33
-43 -49 -79 -63 -179 -66 -369 -209 -525 -396 -68 -80 -203 -285 -278 -423
-44 -81 -88 -144 -139 -200 -189 -209 -274 -383 -301 -621 -10 -95 -12 -99
-51 -138 -50 -50 -102 -158 -126 -262 -26 -116 -24 -351 5 -457 21 -79 56
-154 91 -198 l20 -25 -6 175 c-6 197 3 283 44 403 24 69 32 82 74 112 61 44
91 84 130 175 39 93 43 98 84 106 31 6 35 10 54 74 23 75 37 92 56 67 15 -21
31 -22 39 -2 3 8 13 15 22 15 14 0 16 7 11 42 -7 49 6 78 32 78 11 0 61 31
112 69 52 39 102 72 112 75 30 7 31 -19 3 -80 -41 -90 -32 -135 17 -77 74 88
85 80 63 -46 -19 -110 -20 -178 -2 -210 l13 -24 16 24 c9 14 32 67 51 118 19
52 47 106 61 121 21 22 31 54 56 171 52 252 88 347 162 426 24 26 50 66 57 88
36 114 132 238 244 314 l48 33 157 3 c86 1 230 12 321 23 214 27 332 34 399
25 53 -8 54 -9 67 -51 13 -46 39 -82 59 -82 7 0 43 24 80 53 67 51 70 52 139
53 78 1 123 13 206 54 71 36 183 70 227 70 l36 0 -6 -65 c-9 -93 -61 -240
-166 -468 -50 -108 -106 -241 -124 -295 l-34 -97 19 -40 c35 -74 -3 -197 -82
-269 -50 -45 -90 -48 -123 -10 -33 39 -64 51 -190 78 -64 13 -125 29 -136 36
-17 9 -21 8 -21 -4 0 -18 -30 -36 -58 -36 -39 0 -199 -52 -277 -90 -209 -101
-413 -280 -591 -517 -37 -48 -44 -65 -44 -103 0 -44 -2 -46 -52 -77 -135 -80
-282 -236 -394 -417 -91 -145 -221 -395 -270 -516 -64 -160 -88 -202 -123
-223 -56 -33 -189 -308 -238 -495 -20 -78 -26 -123 -27 -227 -2 -116 -4 -134
-24 -165 -62 -99 -87 -223 -79 -404 10 -226 74 -414 177 -517 28 -28 53 -49
56 -46 3 2 -4 40 -15 83 -39 156 -54 259 -54 369 0 140 14 197 59 248 40 44
57 80 103 219 18 54 37 101 43 104 6 4 23 7 37 8 24 1 26 5 29 46 1 25 5 60 7
78 6 31 8 32 53 32 l48 0 22 73 c11 41 36 96 55 123 35 50 124 127 139 118 16
-10 8 -75 -17 -136 -39 -95 -31 -125 18 -72 14 15 32 24 43 22 16 -3 21 -18
30 -96 12 -92 32 -142 59 -142 14 0 20 16 85 245 17 61 40 135 52 165 16 42
20 74 19 136 -2 73 3 96 43 220 25 76 46 143 46 149 0 6 14 24 31 41 37 35 54
67 108 202 35 89 49 112 100 163 33 32 64 59 70 59 6 0 27 24 46 54 33 48 41
54 89 65 29 6 88 33 132 58 61 37 89 48 125 48 37 1 55 8 90 37 51 41 97 65
203 108 115 45 192 87 235 125 21 19 48 35 61 35 12 0 47 7 77 16 44 13 63 14
99 5 41 -11 49 -9 135 30 50 23 109 44 130 46 l39 6 0 -137 c0 -132 -1 -139
-30 -196 -49 -97 -109 -256 -137 -364 -23 -86 -27 -122 -27 -241 -1 -153 12
-205 73 -295 l28 -42 -54 -54 c-29 -30 -73 -89 -97 -130 -113 -193 -205 -629
-157 -743 8 -19 50 -81 93 -138 122 -163 126 -213 29 -311 -108 -107 -172
-275 -192 -504 -17 -196 14 -403 81 -544 27 -57 37 -67 83 -90 62 -31 97 -61
97 -84 0 -14 9 -17 46 -16 38 1 50 -4 70 -27 37 -43 32 -79 -18 -121 -23 -20
-56 -41 -74 -48 -37 -13 -60 -57 -88 -166 -94 -363 45 -840 320 -1101 53 -51
85 -73 116 -81 120 -31 152 -44 184 -72 76 -67 89 -133 45 -242 -50 -126 -42
-183 54 -354 30 -54 60 -121 68 -149 10 -42 16 -50 25 -41 10 10 28 -3 85 -59
39 -39 115 -104 168 -146 53 -41 109 -90 124 -109 64 -75 95 -188 95 -344 0
-45 5 -128 11 -185 10 -100 10 -104 -11 -121 -23 -19 -23 -55 1 -49 80 22 92
6 87 -115 -1 -46 0 -84 3 -84 3 0 14 7 25 15 10 8 24 15 31 15 17 0 120 -145
128 -179 4 -20 14 -31 31 -35 35 -9 93 -71 138 -149 27 -46 43 -64 50 -57 20
20 77 11 124 -22 57 -39 62 -45 62 -85 0 -40 8 -41 36 -6 l21 27 57 -24 c32
-13 63 -31 69 -41 8 -13 15 -15 29 -8 13 7 23 4 38 -11 11 -11 26 -18 31 -14
6 3 43 14 82 24 l70 18 46 -29 c38 -25 46 -27 54 -14 4 9 22 15 40 15 18 0 38
5 45 12 8 8 14 5 21 -15 16 -41 24 -32 17 17 l-7 45 93 74 c96 76 182 137 193
137 4 0 4 -11 1 -25 -4 -14 -2 -25 4 -25 5 0 10 17 10 39 0 21 3 53 6 70 5 25
10 30 25 26 12 -4 19 -2 19 6 0 7 10 23 22 37 13 13 66 110 118 215 l95 192
54 -3 54 -4 -26 32 c-32 37 -32 45 -10 96 13 31 18 83 22 251 3 116 9 215 13
219 4 4 15 1 24 -7 16 -13 17 -10 11 44 -7 55 -6 57 17 57 27 0 38 27 29 71
-4 21 0 30 16 38 46 25 146 118 250 231 95 105 111 128 122 173 6 29 26 84 42
122 37 86 57 159 57 205 0 19 -14 73 -31 120 -17 47 -37 108 -45 135 -18 61
-10 134 14 141 69 21 145 67 204 122 78 74 108 117 224 324 l86 153 1 280 c1
260 0 285 -21 358 -39 140 -83 197 -150 197 -9 0 -24 7 -34 17 -17 15 -15 18
51 49 215 104 315 352 289 716 -15 206 -73 382 -163 493 l-43 52 53 40 c93 72
143 166 165 308 37 240 -69 577 -240 768 -49 54 -53 62 -57 120 -3 38 3 110
16 187 25 149 26 192 6 297 -18 92 -50 191 -129 391 -75 189 -96 273 -96 389
0 51 3 93 7 93 29 0 127 -37 136 -51 8 -13 19 -16 43 -12 25 4 45 -2 80 -22
45 -27 48 -27 163 -20 104 6 122 5 172 -14 32 -12 86 -40 120 -63 54 -35 80
-44 167 -60 56 -10 169 -39 250 -65 171 -53 316 -93 343 -93 20 0 127 -119
185 -207 45 -68 83 -160 91 -221 4 -32 16 -58 35 -81 67 -77 120 -264 123
-436 2 -90 11 -159 35 -275 18 -85 38 -195 44 -244 l12 -90 22 24 c23 25 41
68 67 163 8 31 21 57 27 57 7 0 25 -12 40 -27 l28 -27 0 35 c0 20 -7 59 -16
88 -16 56 -16 122 1 128 17 5 161 -132 175 -167 8 -19 11 -51 7 -86 l-6 -55
42 -18 c59 -25 70 -43 72 -112 1 -61 18 -98 31 -66 8 22 41 22 48 -1 3 -9 5
-51 5 -92 -1 -65 4 -88 37 -170 34 -83 38 -105 38 -175 -1 -108 -21 -170 -121
-378 -47 -97 -83 -180 -80 -184 4 -3 28 2 54 12 71 27 178 139 230 240 87 170
129 347 120 510 -3 66 -12 118 -25 153 -19 50 -20 56 -5 95 25 67 23 242 -5
344 -36 133 -141 404 -179 461 -49 75 -85 158 -169 392 -41 113 -99 255 -129
315 -101 200 -251 386 -404 501 -83 61 -89 69 -96 109 -16 112 -103 220 -245
307 -547 334 -692 383 -907 307 -101 -36 -162 -65 -251 -122 l-64 -40 -64 64
c-82 81 -91 106 -64 184 11 32 20 72 20 90 0 80 -47 181 -170 365 -95 142
-124 210 -155 369 -21 102 -19 104 85 98 60 -4 102 -15 195 -52 100 -39 129
-46 178 -44 42 2 61 -2 70 -13 10 -13 25 -14 97 -6 162 18 408 -7 655 -66 90
-22 109 -24 180 -14 44 5 141 8 215 5 238 -10 416 -73 533 -188 52 -53 58 -56
67 -38 6 10 17 19 24 19 8 0 54 -41 102 -91 49 -50 101 -97 115 -104 18 -10
30 -28 39 -59 9 -32 23 -53 49 -73 20 -15 86 -75 146 -134 102 -99 189 -159
230 -159 20 0 20 0 -15 77 -38 84 -40 134 -4 162 l27 21 -37 53 c-44 64 -42
90 7 75 18 -5 66 -13 107 -16 l75 -7 25 -53 25 -53 74 5 74 6 33 -39 c31 -36
38 -39 97 -43 54 -3 74 -10 138 -50 91 -56 139 -72 193 -65 97 14 227 -105
380 -347 54 -86 100 -155 102 -153 3 2 0 37 -6 78 -50 357 -226 585 -527 683
-48 16 -57 24 -100 89 -124 190 -326 338 -606 446 -46 17 -116 58 -182 106
-179 129 -303 205 -440 271 -155 75 -294 118 -459 141 -98 14 -124 21 -135 38
-8 11 -42 47 -76 81 -76 76 -207 143 -350 180 -123 32 -364 44 -496 24 -72
-10 -89 -17 -129 -49 -116 -96 -252 -192 -265 -187 -31 12 -144 103 -165 133
-13 19 -25 57 -30 96 -12 100 -53 151 -254 317 -99 82 -157 155 -216 272 -75
150 -52 220 137 415 98 100 120 129 132 170 11 36 30 64 77 111 34 34 66 62
71 62 4 0 40 -27 78 -61 144 -125 288 -203 442 -240 78 -19 108 -21 253 -16
239 8 421 51 602 141 80 40 84 43 99 90 8 28 25 56 38 64 14 10 72 21 144 28
142 15 240 44 382 115 118 58 180 100 482 329 32 24 65 61 84 95 23 42 49 67
107 108 269 189 443 442 521 758 25 102 28 108 70 140 57 44 113 139 142 242
22 74 24 101 23 267 -1 165 -4 195 -26 281 -36 131 -84 243 -124 285 -30 33
-62 42 -57 17 1 -6 12 -57 24 -114 33 -153 33 -381 0 -497 -21 -75 -27 -85
-65 -113 -56 -40 -109 -109 -177 -233 -54 -97 -57 -101 -90 -101 -33 0 -35 -3
-79 -92 -25 -50 -49 -95 -53 -100 -5 -4 -34 -8 -64 -8 l-56 0 -12 -42 c-19
-64 -51 -109 -102 -143 -50 -32 -167 -73 -244 -85 l-46 -7 -17 85 -18 85 26
65 c14 36 33 97 41 137 16 76 20 207 7 228 -6 9 -32 -9 -90 -63 -168 -157
-277 -343 -348 -598 -25 -85 -31 -96 -88 -155 -180 -187 -389 -265 -573 -217
-62 17 -97 15 -243 -12 -58 -11 -153 -17 -300 -18 -193 -1 -222 -4 -283 -24
-59 -19 -73 -21 -100 -10 -21 8 -115 14 -275 17 -230 4 -246 3 -292 -17 -74
-32 -168 -48 -375 -66 -210 -19 -310 -40 -393 -85 -72 -39 -108 -38 -191 5
-37 19 -75 35 -84 35 -54 0 16 82 128 149 72 43 85 55 126 124 67 110 132 263
137 322 3 39 -5 76 -37 172 -59 174 -56 205 25 315 56 77 82 126 104 198 l17
55 122 65 c152 82 238 145 281 207 33 48 35 49 107 61 132 21 242 93 263 172
10 36 12 37 66 44 69 8 120 29 158 64 35 33 65 97 66 139 0 25 5 33 29 41 38
14 95 74 122 130 26 57 36 156 20 205 -14 42 -67 97 -94 97 -50 0 -181 -126
-234 -227 -28 -51 -38 -61 -73 -72 -53 -16 -97 -62 -143 -149 l-38 -72 -48 0
c-69 0 -149 -44 -260 -145 -51 -47 -96 -85 -99 -85 -3 0 -13 7 -23 16 -10 9
-26 13 -37 10 -33 -11 -182 -105 -272 -171 -69 -51 -96 -65 -144 -74 -36 -7
-98 -32 -161 -65 l-102 -55 -30 123 c-53 215 -147 377 -265 456 -79 52 -152
74 -255 73 -82 0 -83 0 -139 -44 -155 -119 -295 -297 -353 -448 -17 -44 -31
-85 -31 -91 0 -20 -17 -9 -75 51 -70 71 -119 99 -173 99 -35 0 -43 5 -84 58
-25 31 -89 107 -144 167 -90 100 -101 110 -131 108 -36 -3 -62 24 -103 107
-40 80 -108 175 -138 193 -17 9 -43 17 -59 17 -28 0 -31 4 -57 80 -15 44 -40
109 -56 145 -27 60 -31 64 -66 67 -37 3 -37 3 -50 64 -7 34 -22 80 -33 103
-22 42 -136 181 -149 181 -4 0 -26 -11 -49 -25z"/>
</g>
</svg>
