<?xml version="1.0" standalone="no"?>
<!DOCTYPE svg PUBLIC "-//W3C//DTD SVG 20010904//EN"
 "http://www.w3.org/TR/2001/REC-SVG-20010904/DTD/svg10.dtd">
<svg version="1.0" xmlns="http://www.w3.org/2000/svg"
 width="1536.000000pt" height="425.000000pt" viewBox="0 0 1536.000000 425.000000"
 preserveAspectRatio="xMidYMid meet">
<metadata>
Created by potrace 1.16, written by Peter Selinger 2001-2019
</metadata>
<g transform="translate(0.000000,425.000000) scale(0.100000,-0.100000)"
fill="#000000" stroke="none">
<path d="M998 4191 c-64 -69 -143 -215 -184 -341 -25 -78 -28 -102 -32 -274
-7 -285 18 -431 110 -646 182 -430 536 -745 1118 -997 63 -28 205 -83 315
-123 349 -127 518 -207 597 -284 20 -19 39 -44 43 -55 13 -41 -49 -116 -125
-150 -28 -12 -71 -15 -225 -13 -188 1 -887 30 -893 36 -2 2 -8 33 -13 70 -19
122 8 192 120 309 80 83 66 87 -76 17 -76 -37 -106 -58 -121 -82 -29 -47 -52
-133 -52 -194 0 -28 -3 -66 -6 -83 l-6 -31 -212 0 c-300 1 -636 16 -738 35
-171 30 -283 89 -395 208 -138 148 -158 289 -61 439 55 86 148 176 249 241 96
63 243 137 272 137 11 0 15 4 11 11 -8 14 -181 5 -310 -16 -104 -17 -153 -44
-227 -126 -173 -190 -203 -435 -86 -678 73 -149 197 -252 404 -334 167 -66
376 -106 555 -107 218 -1 427 -32 517 -78 49 -26 233 -159 463 -337 362 -280
520 -368 764 -425 45 -11 252 -42 461 -70 209 -27 445 -59 525 -69 520 -70
852 -74 1215 -15 234 38 438 42 875 15 195 -12 377 -25 404 -29 46 -7 49 -9
65 -52 21 -57 45 -63 61 -16 15 46 42 47 90 6 19 -16 38 -29 41 -30 4 0 9 19
13 41 8 49 46 89 102 107 68 21 216 36 249 25 28 -9 30 -14 33 -63 2 -30 7
-59 12 -65 5 -6 7 -20 4 -32 -7 -25 11 -63 29 -63 7 0 37 15 67 34 l54 34 44
-39 c45 -39 62 -47 62 -30 0 16 102 121 133 138 31 15 31 15 66 -24 20 -21 41
-47 47 -58 9 -17 12 -15 32 19 18 31 27 37 45 32 12 -3 55 -11 96 -18 69 -12
75 -11 85 6 19 32 47 57 59 53 7 -2 20 -19 29 -39 18 -38 86 -78 133 -78 23 0
25 4 25 43 0 80 51 102 85 36 17 -31 32 -36 57 -17 25 20 58 80 58 106 0 30
39 49 69 33 14 -8 21 -21 21 -42 0 -41 28 -86 59 -98 14 -5 80 -14 145 -21
l119 -11 42 41 c52 51 74 51 149 0 83 -56 117 -52 81 10 -31 54 -9 62 94 34
55 -16 62 -16 102 0 101 40 454 29 689 -22 117 -25 140 -27 375 -27 213 1 269
4 380 23 72 13 301 48 510 78 655 94 846 133 1145 234 80 27 204 74 275 105
358 156 433 187 577 239 86 30 327 107 536 170 499 151 751 241 1052 376 231
103 560 291 716 408 95 73 116 100 68 88 -44 -11 -226 -85 -564 -229 -404
-172 -666 -276 -866 -343 -184 -62 -220 -66 -151 -16 95 68 251 234 320 342
42 65 83 116 107 133 21 15 97 50 169 77 253 95 342 149 491 299 156 156 250
324 295 525 24 110 18 291 -13 360 -34 75 -85 131 -150 163 -52 25 -66 28
-157 27 -104 -2 -318 -42 -339 -65 -8 -9 -3 -10 19 -5 17 3 78 11 137 17 125
14 174 5 231 -42 76 -63 117 -210 97 -346 -33 -214 -149 -413 -315 -540 -78
-60 -335 -193 -372 -193 -27 0 -37 20 -47 99 -11 87 -36 121 -87 121 -26 0
-33 -35 -25 -140 8 -102 1 -124 -46 -139 -54 -17 -274 -49 -418 -61 -215 -17
-1080 -26 -1080 -11 0 6 23 46 51 87 129 191 169 350 139 544 -16 99 -47 184
-84 226 -29 33 -39 39 -75 39 -75 0 -76 -5 -62 -232 18 -278 -1 -397 -80 -517
-55 -82 -170 -160 -252 -170 -23 -3 -152 -10 -287 -16 -139 -6 -275 -17 -315
-25 -233 -50 -358 -33 -450 62 -55 57 -68 87 -63 153 14 197 248 396 710 604
294 132 367 175 454 267 61 65 96 123 123 206 37 111 26 111 -94 -6 -79 -76
-108 -97 -196 -139 -57 -28 -156 -67 -219 -87 -309 -97 -445 -162 -747 -352
-260 -164 -291 -183 -428 -251 -116 -58 -273 -124 -328 -138 -27 -6 -27 -6
-27 49 0 84 -59 254 -107 309 -19 21 -107 40 -169 36 l-47 -3 58 -70 c83 -101
100 -141 100 -246 0 -130 -4 -133 -280 -204 -393 -100 -584 -102 -735 -5 -70
45 -134 119 -177 208 -36 71 -38 82 -38 166 0 88 2 96 67 261 113 289 185 555
209 780 21 197 -6 309 -91 389 l-49 46 -78 0 c-44 0 -105 -7 -138 -15 -105
-28 -154 -62 -392 -279 -54 -49 -156 -137 -228 -195 -264 -214 -317 -280 -520
-651 -130 -238 -217 -376 -293 -462 -78 -89 -179 -174 -251 -212 -190 -99
-326 -63 -696 182 -233 154 -348 220 -400 228 -23 3 -109 4 -191 2 l-149 -3
-79 -39 c-87 -44 -161 -110 -191 -171 -15 -31 -20 -60 -20 -125 1 -105 18
-141 106 -226 122 -116 161 -125 94 -21 -59 93 -78 152 -73 235 3 51 9 75 28
100 75 101 259 103 372 3 104 -91 107 -261 6 -362 -62 -62 -187 -108 -378
-139 -84 -14 -287 -17 -368 -5 l-54 7 -80 122 c-45 66 -92 146 -106 176 -50
107 -26 247 48 285 18 9 56 15 98 15 82 0 108 14 98 54 -11 45 -60 68 -137 63
-52 -3 -81 -12 -146 -46 -142 -74 -182 -133 -169 -253 7 -73 59 -234 103 -321
l34 -69 -28 6 c-51 11 -546 85 -703 106 -347 45 -465 62 -486 70 -40 16 -181
323 -210 460 -16 75 -18 307 -4 393 15 91 115 224 251 333 49 39 69 62 69 77
0 91 -136 42 -275 -99 -87 -88 -138 -165 -167 -251 -31 -91 -43 -265 -30 -432
13 -166 37 -263 89 -369 28 -55 34 -75 25 -84 -14 -14 -179 3 -557 57 -514 74
-805 152 -1100 296 -194 94 -322 184 -466 328 -276 277 -404 563 -416 936 -8
219 16 330 122 583 15 35 29 79 32 98 8 51 -16 44 -79 -25z m12920 -2573 c-70
-105 -191 -192 -484 -346 -232 -123 -279 -142 -348 -142 -98 0 -216 53 -216
98 0 50 106 146 201 181 110 40 731 224 824 243 30 7 40 -8 23 -34z m-11897
-528 c449 -81 1072 -227 1325 -311 108 -35 134 -56 134 -106 0 -51 -66 -115
-140 -137 -113 -32 -360 -45 -492 -26 -192 28 -585 191 -762 318 -105 74 -276
243 -276 271 0 28 12 27 211 -9z"/>
</g>
</svg>
