<?xml version="1.0" standalone="no"?>
<!DOCTYPE svg PUBLIC "-//W3C//DTD SVG 20010904//EN"
 "http://www.w3.org/TR/2001/REC-SVG-20010904/DTD/svg10.dtd">
<svg version="1.0" xmlns="http://www.w3.org/2000/svg"
 width="639.000000pt" height="1536.000000pt" viewBox="0 0 639.000000 1536.000000"
 preserveAspectRatio="xMidYMid meet">
<metadata>
Created by potrace 1.16, written by Peter Selinger 2001-2019
</metadata>
<g transform="translate(0.000000,1536.000000) scale(0.100000,-0.100000)"
fill="#000000" stroke="none">
<path d="M3251 15319 l-54 -40 -78 7 c-70 6 -80 4 -105 -15 -26 -20 -28 -21
-53 -4 -54 35 -74 42 -93 32 -10 -5 -18 -21 -18 -35 0 -35 -26 -93 -45 -100
-9 -4 -25 2 -38 13 -34 32 -62 43 -105 43 -48 0 -56 -9 -86 -98 -33 -95 -52
-122 -87 -122 -15 0 -31 5 -34 10 -11 18 -63 40 -80 34 -22 -9 -51 -69 -71
-148 -9 -37 -24 -76 -33 -87 -16 -20 -17 -20 -83 11 -37 17 -75 30 -85 28 -29
-5 -60 -63 -83 -158 -38 -155 -77 -187 -167 -134 l-47 27 -22 -28 c-24 -31
-25 -31 -122 10 -35 15 -70 24 -78 21 -19 -7 -18 -48 5 -127 17 -61 31 -137
46 -251 l6 -48 -93 0 c-51 0 -126 5 -167 10 -41 6 -77 8 -79 5 -3 -3 9 -62 26
-132 42 -172 46 -275 13 -293 -29 -15 -319 -50 -416 -50 -48 0 -87 -5 -90 -10
-4 -6 18 -48 48 -93 52 -79 101 -184 113 -245 6 -29 5 -30 -83 -62 -99 -37
-193 -48 -272 -31 -50 11 -81 7 -81 -10 0 -4 30 -42 66 -84 36 -41 90 -114
120 -162 l55 -88 -38 -34 c-75 -66 -181 -106 -367 -138 -27 -4 -51 -13 -53
-20 -3 -7 24 -26 59 -44 80 -40 194 -118 237 -163 43 -44 37 -72 -21 -116
l-43 -32 -100 5 c-55 3 -112 10 -127 16 -17 6 -29 7 -33 1 -7 -11 289 -317
341 -352 19 -13 32 -27 31 -33 -6 -17 -94 -55 -153 -66 -31 -6 -92 -26 -136
-45 -58 -26 -103 -38 -165 -44 -47 -5 -90 -13 -96 -19 -6 -6 55 -73 174 -190
100 -99 181 -182 178 -184 -2 -2 -24 -14 -49 -26 -24 -13 -77 -49 -117 -81
-39 -32 -90 -68 -112 -81 -22 -12 -43 -29 -46 -37 -8 -21 31 -60 147 -148 53
-41 99 -78 103 -83 3 -6 -5 -17 -18 -25 -30 -20 -169 -56 -216 -56 -48 0 -83
-10 -79 -22 2 -6 37 -23 78 -38 114 -42 333 -138 348 -153 11 -12 4 -17 -45
-34 -143 -50 -272 -103 -323 -132 -30 -17 -76 -38 -102 -47 -26 -8 -51 -20
-54 -26 -11 -17 32 -49 142 -108 144 -77 208 -115 311 -188 74 -53 90 -69 83
-82 -14 -27 -197 -199 -315 -295 -142 -117 -160 -134 -148 -146 5 -5 42 -18
82 -29 115 -32 292 -129 346 -190 19 -22 20 -23 1 -34 -47 -28 -78 -62 -107
-117 -46 -85 -69 -106 -139 -126 l-62 -17 44 -22 c23 -12 78 -31 121 -43 116
-32 282 -123 306 -170 23 -42 -26 -133 -99 -185 -36 -26 -58 -53 -81 -97 -17
-34 -51 -84 -76 -110 -25 -27 -43 -52 -40 -55 3 -4 49 -1 101 5 182 21 327 11
353 -26 18 -24 13 -33 -38 -68 -34 -24 -56 -53 -95 -126 -49 -92 -58 -101
-159 -173 -11 -8 -17 -17 -13 -21 17 -17 91 -24 155 -15 38 6 84 13 103 16 40
7 88 -9 96 -31 11 -29 -6 -61 -76 -138 -105 -116 -127 -175 -54 -146 43 17
257 23 344 10 170 -26 170 -106 -1 -192 -44 -21 -79 -44 -79 -50 0 -16 62 -38
137 -49 37 -5 117 -26 178 -46 60 -20 134 -38 163 -41 70 -8 76 -25 25 -71
-22 -21 -55 -62 -75 -92 -19 -30 -63 -85 -97 -122 -33 -36 -61 -73 -61 -82 0
-23 47 -21 220 9 80 14 184 28 232 32 113 8 120 -3 51 -84 -78 -91 -124 -159
-117 -176 8 -21 46 -34 144 -47 91 -12 198 -36 219 -50 11 -6 9 -19 -9 -66
-12 -33 -24 -90 -27 -128 l-6 -69 28 7 c41 10 182 26 235 26 71 0 80 -11 51
-64 -30 -53 -21 -70 43 -87 22 -6 53 -16 68 -21 35 -13 146 -130 164 -173 41
-99 44 -432 5 -578 -11 -43 -33 -102 -48 -130 -29 -56 -172 -203 -426 -441
-81 -76 -161 -158 -178 -183 -66 -95 -148 -333 -173 -504 -21 -142 -30 -450
-17 -629 14 -210 35 -280 148 -505 90 -180 180 -283 438 -504 271 -232 343
-314 405 -459 58 -137 65 -209 85 -822 17 -542 26 -671 56 -779 24 -88 94
-235 147 -304 40 -53 296 -253 337 -263 33 -8 99 41 208 156 188 197 240 309
267 570 5 58 19 251 30 430 23 370 55 769 71 880 22 156 74 227 328 445 248
213 328 321 422 573 65 173 71 229 73 717 l1 430 -29 110 c-35 134 -85 276
-132 371 -52 106 -148 219 -312 366 -373 335 -387 361 -387 713 l0 200 28 47
c35 60 80 96 159 128 68 27 85 53 52 77 -19 14 -19 15 0 28 25 19 104 35 201
41 179 11 199 21 125 63 -70 39 -46 76 65 99 28 6 112 14 187 18 143 7 165 15
154 51 -3 10 -19 24 -36 30 -60 22 -46 64 34 102 22 11 102 36 176 55 188 49
231 84 131 103 -76 14 -171 57 -171 77 0 27 184 106 344 147 44 11 93 27 109
36 37 19 31 26 -83 88 -156 86 -172 106 -127 166 29 40 139 129 272 219 189
129 188 150 -7 149 -72 0 -133 2 -136 5 -9 10 29 46 158 146 69 54 133 107
143 118 19 20 18 21 -20 31 -21 5 -54 12 -73 16 -79 15 -87 26 -47 62 56 52
169 90 306 103 86 8 135 25 105 37 -21 7 -292 176 -321 199 l-28 22 40 36 c57
51 185 136 290 192 122 64 177 103 173 120 -2 8 -48 34 -103 58 -161 69 -265
125 -265 141 0 29 202 150 383 229 73 32 75 57 7 69 -85 16 -165 39 -217 64
-52 24 -53 25 -53 69 0 56 27 111 76 154 43 37 76 52 154 70 67 16 113 37 108
52 -2 6 -35 28 -72 47 -38 20 -106 70 -152 111 l-83 75 45 41 c42 38 77 62
286 194 84 53 118 92 102 118 -6 9 -40 23 -76 32 -38 9 -80 28 -100 43 -18 15
-67 52 -108 81 -92 67 -120 93 -120 111 0 31 246 211 395 290 90 47 93 50 69
76 -26 29 -66 48 -261 125 -222 87 -255 114 -222 175 5 11 65 63 132 116 198
156 211 172 134 173 -58 0 -373 141 -371 165 0 6 46 33 102 62 126 64 224 131
220 151 -2 9 -39 28 -93 46 -120 41 -330 147 -330 166 0 43 253 186 387 219
79 19 98 27 98 40 0 10 -60 38 -155 72 -44 15 -132 51 -195 80 -141 63 -215
89 -251 89 -42 0 -43 14 0 67 49 62 256 263 271 263 6 0 16 11 22 25 10 22 9
29 -8 44 -26 25 -244 90 -324 97 -83 7 -110 12 -110 22 0 5 44 55 97 113 133
144 224 251 218 258 -6 5 -138 45 -290 86 -49 14 -104 25 -121 25 -17 0 -33 3
-37 6 -3 3 33 65 80 137 113 174 163 255 163 267 0 16 -82 32 -170 32 -51 1
-88 5 -92 12 -4 6 -8 30 -8 54 0 23 -2 42 -5 42 -3 0 -23 -9 -44 -19 -55 -29
-95 -31 -99 -6 -6 45 130 234 214 296 61 45 67 70 19 80 -17 4 -124 7 -240 8
l-210 1 111 113 c133 134 164 172 164 198 0 26 -23 24 -98 -6 -81 -33 -92 -33
-190 -5 -82 24 -83 24 -136 6 -87 -30 -92 -13 -35 116 68 156 23 185 -273 173
-195 -8 -185 -16 -142 102 36 99 32 103 -100 103 -113 0 -214 -18 -275 -49
l-41 -21 7 32 c23 109 2 124 -102 75 -86 -41 -109 -44 -163 -21 -43 18 -229
54 -281 54 -27 0 -51 -11 -90 -41z"/>
</g>
</svg>
