<?xml version="1.0" encoding="UTF-8" standalone="no"?>
<!-- Created with Inkscape (http://www.inkscape.org/) -->

<svg
   xmlns:svg="http://www.w3.org/2000/svg"
   xmlns="http://www.w3.org/2000/svg"
   version="1.1"
   width="283.59824mm"
   height="113.66961mm"
   viewBox="0 0 1004.8756 402.76633"
   id="svg2">
  <defs
     id="defs4" />
  <g
     transform="translate(210.38483,-124.31405)"
     id="layer1">
    <path
       d="m 455.09512,526.2334 c -14.31642,-4.58018 -20.33848,-35.73819 -10.62597,-54.97857 1.65218,-3.27293 5.64101,-8.78401 8.86407,-12.24683 6.85213,-7.36184 8.15758,-9.56306 8.15758,-13.75506 0,-2.43297 -0.5711,-3.30762 -2.68429,-4.11106 -2.94565,-1.11993 -63.68242,-1.46634 -71.91365,-0.41015 -2.74906,0.35274 -13.62602,-0.27727 -24.76524,-1.43446 -10.92475,-1.1349 -20.20826,-1.85019 -20.63002,-1.58953 -1.20282,0.74339 -15.51171,-1.08509 -26.5068,-3.38719 -6.00193,-1.25666 -19.39546,-2.7108 -33.5,-3.6371 -29.99848,-1.97012 -42.47001,-3.11121 -48.04452,-4.39585 -8.12422,-1.87222 -16.51398,-1.31472 -23.78492,1.5805 -3.66881,1.46088 -7.79556,3.35066 -9.17056,4.19952 -4.22807,2.61019 -19.07556,15.14095 -27.5,23.20902 -14.64952,14.02982 -39.0887,27.93531 -49.09687,27.93531 -3.32373,0 -11.96703,-4.15613 -16.56273,-7.96418 -4.23862,-3.51218 -18.331419,-24.08931 -23.4239,-34.20163 -1.91716,-3.80696 -5.42163,-9.94194 -7.78772,-13.63328 -5.2584,-8.20364 -8.96357,-17.73087 -8.15244,-20.96268 0.37011,-1.47461 1.92016,-2.92378 4.10276,-3.83573 6.18942,-2.5861 5.55496,-5.76298 -1.9117,-9.57218 -4.06401,-2.0733 -10.45809,-3.23862 -23.667399,-4.31336 -13.8913,-1.13023 -24.46169,-2.36071 -31,-3.60867 -3.575,-0.68235 -13.0249996,-1.21704 -20.9999996,-1.18819 -16.7890804,0.0607 -18.8533604,0.59543 -45.5000004,11.78612 -8.8,3.69571 -18.7,7.58367 -22,8.63992 -3.3,1.05625 -8.49885,3.45333 -11.553,5.32684 -3.05415,1.87351 -11.60415,6.0901 -19.000001,9.3702 -7.39585,3.2801 -18.622,8.27071 -24.947,11.09025 -6.325,2.81954 -13.975,5.77949 -17,6.57767 -3.025,0.79818 -7.90876,2.37545 -10.8528,3.50505 -4.00564,1.53693 -9.53119,2.31502 -21.95514,3.09164 -18.59331,1.16228 -21.97193,0.84063 -24.9271,-2.3731 -6.46822,-7.03416 -0.68256,-34.09633 12.07203,-56.46637 3.06325,-5.37258 6.74878,-12.46832 8.19008,-15.76832 1.44129,-3.3 3.71428,-8.25857 5.05109,-11.01904 1.3368,-2.76048 2.95634,-7.52577 3.59897,-10.58955 1.52725,-7.28117 0.70184,-9.31747 -13.12969,-32.39141 -9.8977,-16.51146 -16.94073,-30.99413 -20.66808,-42.5 -0.80178,-2.475 -1.7286,-9.46213 -2.05959,-15.52696 -0.66842,-12.24743 0.20032,-15.37503 5.41025,-19.47776 2.40356,-1.89276 3.76679,-2.13594 10.30541,-1.8383 6.71612,0.30572 8.7276,0.92348 18.5,5.68167 6.03052,2.93625 14.56457,6.47599 18.96457,7.86609 8.62873,2.72609 20.84191,8.85323 31.96944,16.03851 3.83319,2.47517 8.70042,5.11104 10.81607,5.85748 2.11565,0.74645 5.0544,2.21428 6.53056,3.26186 1.47616,1.04758 11.233931,6.14749 21.683931,11.33315 10.45,5.18565 20.94506,10.66421 23.32236,12.17458 5.37359,3.414 17.77825,9.11854 25.52952,11.74028 3.21853,1.08861 12.66853,2.85226 21,3.91921 22.9454104,2.93847 57.82371,1.61999 82.648119,-3.12427 3.025,-0.57812 9.325,-1.47783 14,-1.99936 9.603771,-1.07137 13.000001,-2.20146 13.000001,-4.32572 0,-2.28008 -1.48989,-2.74535 -11.839121,-3.69713 -13.63996,-1.25441 -21.03331,-2.53257 -22.71301,-3.92659 -0.79633,-0.6609 -1.44787,-2.59235 -1.44787,-4.29212 0,-2.43714 1.1265,-4.15536 5.32859,-8.12755 2.93073,-2.77039 7.76823,-6.35085 10.75,-7.95658 2.98178,-1.60573 7.89641,-4.7817 10.92141,-7.05771 3.025,-2.27602 7.750001,-5.41842 10.500001,-6.98312 11.582209,-6.59006 19.766689,-13.07895 26.000549,-20.61395 12.00679,-14.51287 33.44741,-35.12313 40.3399,-38.77759 8.97527,-4.75877 14.31124,-4.79646 20.96791,-0.14812 13.93661,9.73192 33.83452,29.53024 47.23337,46.99694 3.16562,4.12668 7.38366,9.25521 9.37342,11.39672 l 3.61776,3.89366 7.07961,-0.59353 c 3.89379,-0.32645 10.63071,-1.77616 14.97094,-3.22159 9.11924,-3.03698 11.06321,-5.08246 13.3999,-14.09955 1.66773,-6.43563 3.44652,-8.37265 7.68872,-8.37265 3.26895,0 4.38625,-2.80067 3.56373,-8.933 -0.68473,-5.10504 0.32078,-6.50568 4.12428,-5.74498 5.234,1.0468 6.51623,-1.28606 5.80146,-10.555 -0.53423,-6.9278 -0.37741,-8.05116 1.36751,-9.79608 1.08402,-1.08402 2.36064,-1.97094 2.83695,-1.97094 0.4763,0 1.87609,-2.77023 3.11063,-6.15607 2.54266,-6.97349 5.84611,-10.84392 9.2554,-10.84392 3.7331,0 6.49039,-2.64823 8.23915,-7.91327 1.83378,-5.52099 2.88092,-6.22841 7.99183,-5.39902 3.3305,0.54047 3.95633,0.19044 9.03538,-5.05351 3.00137,-3.09881 6.29732,-5.63421 7.32433,-5.63421 2.35382,0 4.82683,-2.69629 6.26996,-6.83604 1.68534,-4.83456 3.96685,-5.57113 8.0121,-2.58664 5.09323,3.75766 7.12662,2.95803 8.52341,-3.35182 2.50991,-11.33831 7.08714,-10.86567 14.76372,1.5245 4.84583,7.82129 7.27374,5.37021 8.04546,-8.12227 0.61823,-10.80868 0.86241,-11.62773 3.46665,-11.62773 2.18177,0 4.22399,2.22852 6.87305,7.5 2.49177,4.95851 5.45643,7.73136 7.44874,6.96684 0.86469,-0.33181 2.20435,-3.37457 3.12079,-7.08823 2.06414,-8.36448 3.72728,-11.76915 5.95904,-12.19895 2.73574,-0.52686 4.51164,1.50135 8.82334,10.0769 3.59601,7.1521 4.19951,7.83967 6.63196,7.55577 2.7261,-0.31818 4.18637,-2.36923 5.91114,-8.30261 0.97132,-3.34146 3.59431,-4.3584 6.04149,-2.34229 0.88962,0.73292 3.14911,3.72208 5.02108,6.64259 4.84989,7.56644 7.33783,6.44633 10.24586,-4.61288 2.06876,-7.86748 4.68068,-6.76284 11.35635,4.80286 3.733,6.46748 6.3874,7.4373 9.5057,3.47301 2.96626,-3.77098 5.23338,-2.82023 8.41029,3.52699 4.152,8.2954 11.41159,27.78116 12.67642,34.02532 1.39361,6.87988 4.38089,11.97469 7.02123,11.97469 1.08894,0 3.57177,-1.39768 5.51739,-3.10596 3.9776,-3.49238 6.05,-3.29227 7.58,0.73195 1.06329,2.79666 4.96764,20.15521 7.61907,33.874 2.46039,12.73031 4.24614,18.3864 6.104,19.33353 0.95097,0.48479 5.31507,1.44418 9.69801,2.13196 4.38294,0.68779 9.01552,1.64842 10.29463,2.13473 1.2791,0.48632 6.48177,1.75212 11.56148,2.81289 5.07971,1.06077 13.49713,3.57594 18.70537,5.58927 5.20825,2.01333 11.65176,4.50148 14.31892,5.52922 2.66716,1.02774 5.90604,2.56096 7.19751,3.40717 1.29147,0.8462 5.85925,2.49725 10.15062,3.66899 4.29137,1.17175 9.54607,3.0146 11.67711,4.09524 2.13104,1.08064 8.20604,3.2304 13.5,4.77724 10.42041,3.04473 18.92794,6.31084 29.12538,11.18146 3.575,1.70754 10.775,4.58897 16,6.40319 5.225,1.81421 15.8,5.60204 23.5,8.4174 7.7,2.81536 18.275,6.62587 23.5,8.46781 17.08582,6.02318 23.30129,8.62354 35.1182,14.69243 18.8148,9.66283 19.7669,12.21472 7.0293,18.84154 -4.2512,2.21174 -9.28608,5.35184 -11.18852,6.978 l -3.45898,2.95665 2.7191,0.0406 c 1.49551,0.0224 6.1655,-1.08436 10.3776,-2.45936 12.3237,-4.02284 15.4033,-3.12314 15.4033,4.5 0,4.74459 -1.4127,6.54495 -9.2795,11.82632 -15.10261,10.13899 -41.67575,21.86276 -54.42563,24.01196 -3.41282,0.57528 -9.03782,2.23502 -12.5,3.68831 -7.0739,2.96938 -24.46057,7.47345 -28.84896,7.47345 -1.58293,0 -4.35582,0.63634 -6.16198,1.41408 -11.56771,4.98113 -23.23603,8.58592 -27.79171,8.58592 -3.01878,0 -9.35711,1.39912 -15.85578,3.5 -5.95462,1.925 -12.06742,3.5 -13.584,3.5 -1.51659,0 -6.84398,1.36912 -11.83864,3.04248 -10.16954,3.40711 -24.90573,6.48472 -35.90164,7.49795 -13.37725,1.23267 -31.58718,4.29176 -34.4683,5.79034 -5.02025,2.61123 -7.31741,6.12332 -11.2922,17.2645 -8.12007,22.76021 -14.9301,39.3677 -17.9324,43.73139 -4.85983,7.06352 -9.45899,11.47936 -12.67289,12.16775 -1.6205,0.34709 -3.90458,0.82279 -5.07573,1.05711 -1.17115,0.23431 -4.38285,2.45211 -7.13711,4.92843 -9.55689,8.59246 -25.52634,13.45373 -34.62921,10.5415 z"
       id="path4184"
       style="fill:#000000" />
  </g>
</svg>
