<?xml version="1.0" encoding="UTF-8" standalone="no"?>
<!-- Created with Inkscape (http://www.inkscape.org/) -->

<svg
   xmlns:svg="http://www.w3.org/2000/svg"
   xmlns="http://www.w3.org/2000/svg"
   version="1.1"
   width="372"
   height="335"
   viewBox="0 0 372 335"
   id="Layer_1"
   xml:space="preserve"><defs
   id="defs7" />
<path
   d="m 171.333,24.667 3.667,2 4.667,3.667 4.666,2.666 2.667,2.75 3,2.75 3.5,2 5.75,1.75 13.5,1.25 13.5,1.25 h 14.25 8.75 3.5 V 43 l 2,-2.5 3.25,-1.5 4.75,-0.25 3,-4.042 3.75,-4.458 2.5,-4 3.25,-4.5 1.645,-1.279 L 277.5,20 h 1.75 l -2,3 0.25,2 3.5,-1.75 4,-3.25 2.5,-2 h 3.75 v 1 1 l -1.5,1.5 v 2.25 l 1.5,2.25 v 2 l -1.5,1.5 -1,1.875 -0.25,5.875 -0.75,5 -1.5,6 -0.5,6.5 -0.75,8.5 0.25,8.25 0.75,9.5 1,8.5 2.75,12.75 1.5,9 4,11.5 2.75,5.75 2.5,8 4,9.75 4.25,8.5 1.75,6.75 3.25,6.25 5.5,8.5 2,3.75 1.5,1.75 v -2 h 1.75 l 1.5,0.5 1.75,1.5 1.25,1.75 v 2.5 1.25 l 2.5,1.5 3.5,2 3.75,2.25 5.25,1.25 h 3.25 l 2,2 h 3.25 4 l 3,1.25 v 1.5 l 3.5,1.25 2.5,2 1.25,1.5 H 365 l -2.75,-1.5 h -1.75 l -1.5,1.5 2,1.25 2.75,2.25 3,2.75 -1.5,1.25 -1,1.25 h -2.5 c 0,0 -2,-0.25 -2.75,0 -0.75,0.25 -2,0 -2,0 l -2.75,-2.25 -2.5,-0.5 -1.75,0.75 -9.25,-1.25 -11,-1.5 -6.75,-3 -4.25,-2.5 -0.5,2 -8,0.25 -5.5,-0.5 -4,0.25 -3.75,-2.25 -3.75,3.25 h -3.5 l -0.75,-1.5 -2.5,1.5 -3,-2.25 -3.25,-0.5 -2.5,2 -3,-1.75 -2,-0.5 -2.5,1.5 -2.25,0.5 -1,-1.25 -2.25,1 H 259 l -5.75,-1.75 -1.5,2 1.5,5.5 1.25,6.5 0.25,9.25 V 240 l -1,12.75 -0.5,13 -1.5,11 -2,11.75 -1,6.5 -3.75,6.25 -0.75,6 -3,3.5 -1.75,3.75 -5,4.25 -5.75,4.75 -8.25,5.25 -9.25,1.5 H 204 l -1.5,-1.25 -5.75,-1 -1.75,-1 -4,-1.25 -4,-1.5 -7.75,-4.5 -4,-1.75 v -3.25 l -1.25,-4.5 2.5,-1 v -1.5 l 1,-2.25 2.25,-2 h 5 l 4,-0.25 7.5,-1.25 4.5,1 3,-1.25 2.5,-4.25 1.25,-4.75 1.75,-2 v -3 l 1,-3 1,-1.75 0.75,-4.75 v -6 l 1,-3 -1.75,-1.75 c 0,0 1.25,-6.75 1.5,-7.5 0.25,-0.75 -0.5,-5 -0.5,-5 l -0.25,-3.5 -1.5,-6.75 0.25,-4.25 -0.75,-3 -1,-4.75 0.5,-4.75 -1.25,-2.25 1.5,-5.5 -1.5,-0.75 -0.5,-4 0.5,-6 -2.25,-0.5 -6,4.75 -9.25,6 -3.75,0.5 -2.5,1.75 -5.25,3.5 h -4 l -9.5,5.25 -3.25,1.5 -3.25,4.25 -4.25,0.25 -4,2 -5.5,3.25 -2.5,1.75 -4.5,-0.25 -2.25,1 -2.75,0.25 -4.75,4 -3,0.25 -2.5,2 v -1.75 H 120 v -2 l 2.75,-2 2,-2 4,-4.25 -1.75,-0.25 -4.5,2.5 -2.5,0.5 2.5,-2.75 0.25,-2 -0.5,-2.5 1.5,-2 4.75,-0.25 3,-2.75 4.75,-3 1.25,-3 1.5,-3.25 -0.75,-3.5 -5.25,-8.5 -5.5,-7 -3.25,-3.75 -5.5,-8.5 -7.5,-8.75 -6.75,-8.25 -5,-6 -6,-7 -8,-5.75 -10,-7.25 -9,-7 -9,-4.5 -8.75,-4.75 -7.5,-4.25 -8.25,-4 -6,-1.5 -2.75,-1.75 v -2 l -5,-0.75 -4.5,-1 v -1.75 l -4,-0.25 L 9,111 5.25,110.75 8,108.25 l 3.5,-1.75 3.5,0.25 3.75,1 3.75,0.75 3.75,1.5 4.5,1.25 8.5,0.75 5.75,-1.75 8.5,-5.25 12.25,-9.25 9.5,-7 5.75,-5.25 8.25,-5.5 4.25,-6 3,-3.75 1.5,-3.5 1,-5.5 1,-6.5 V 48 46.5 l -1.5,-0.75 -1.5,-2 -6.25,-0.5 -4.5,-2.5 L 82,38.5 79.25,37 79,34.75 c 0,0 2.5,-0.5 3.25,0 0.75,0.5 3.5,1.25 3.5,1.25 l 5.5,-0.25 h 3.5 L 97.25,35 102,34.25 104.75,32 109,31.5 l 3.25,-2.25 7.25,-2.5 11.5,-2.5 5.25,-1 7,-1.25 3.25,-0.25 2,0.5 4,-2.75 3.25,-4.75 3.25,-3.5 4.75,-2.25 h 3 l 2.75,2.75 0.5,4.25 0.75,4 -0.5,3 -0.75,2.25 1.833,-0.583 z"
   id="path3" />
</svg>