<?xml version="1.0" standalone="no"?>
<!DOCTYPE svg PUBLIC "-//W3C//DTD SVG 20010904//EN"
 "http://www.w3.org/TR/2001/REC-SVG-20010904/DTD/svg10.dtd">
<svg version="1.0" xmlns="http://www.w3.org/2000/svg"
 width="1261.000000pt" height="1536.000000pt" viewBox="0 0 1261.000000 1536.000000"
 preserveAspectRatio="xMidYMid meet">
<metadata>
Created by potrace 1.16, written by Peter Selinger 2001-2019
</metadata>
<g transform="translate(0.000000,1536.000000) scale(0.100000,-0.100000)"
fill="#000000" stroke="none">
<path d="M9040 15348 c-174 -15 -331 -52 -536 -126 -707 -258 -1095 -480
-1415 -808 -204 -210 -324 -394 -646 -993 -96 -179 -205 -378 -241 -441 -204
-357 -409 -629 -591 -787 -349 -301 -551 -518 -826 -888 -176 -236 -681 -989
-737 -1100 -46 -89 -70 -169 -123 -395 -50 -217 -87 -333 -131 -409 -15 -25
-112 -172 -214 -326 -232 -348 -318 -490 -421 -696 -290 -582 -456 -1161 -669
-2334 -117 -642 -271 -1070 -797 -2210 -99 -214 -222 -481 -272 -593 -192
-427 -309 -643 -749 -1387 -309 -522 -413 -705 -498 -879 -146 -298 -198 -529
-163 -722 22 -122 97 -208 207 -240 129 -38 246 12 320 137 21 35 57 59 90 59
9 0 90 -37 180 -82 152 -77 167 -83 225 -83 76 0 137 32 193 100 21 26 175
324 369 712 487 976 684 1326 1081 1924 755 1139 1485 1781 2206 1940 189 42
537 36 646 -12 205 -89 792 -784 958 -1133 44 -93 58 -166 37 -187 -18 -18
-117 -27 -193 -19 -89 10 -172 28 -357 74 -457 115 -636 81 -697 -135 -16 -59
-25 -155 -13 -152 4 1 44 14 90 28 196 62 430 69 817 24 244 -29 651 -31 1010
-6 270 20 544 22 692 6 114 -12 279 -53 528 -130 405 -125 486 -125 1165 -5
110 20 262 42 338 49 l138 12 -149 133 c-228 204 -334 275 -487 329 -76 26
-89 28 -245 27 l-165 -1 -205 -52 c-257 -66 -379 -76 -481 -42 -136 45 -298
162 -495 356 -186 185 -386 422 -714 850 -84 110 -193 250 -242 312 -50 61
-90 115 -89 119 0 4 51 22 113 39 235 67 416 138 657 260 410 208 767 472
1142 845 414 413 659 736 1139 1505 106 171 273 429 371 575 231 344 298 480
384 779 51 178 116 515 236 1213 82 484 129 1036 148 1753 17 593 24 702 66
911 46 229 133 440 232 559 125 151 272 232 653 360 389 130 711 297 698 361
-9 50 -169 99 -318 97 -47 0 -175 -11 -285 -24 -251 -29 -493 -32 -575 -7
-125 38 -226 128 -396 350 -171 223 -247 289 -438 378 -382 180 -1024 274
-1556 228z m-2829 -10324 c118 -22 256 -68 312 -104 26 -16 89 -69 139 -117
96 -93 343 -368 417 -466 24 -31 47 -57 51 -57 9 0 263 -285 377 -423 183
-222 261 -376 224 -445 -30 -56 -166 -51 -367 13 -137 44 -195 77 -291 168
-103 98 -194 222 -366 499 -81 129 -168 264 -193 299 -26 35 -131 150 -234
254 -149 152 -193 203 -218 254 -67 134 -36 160 149 125z"/>
</g>
</svg>
