<?xml version="1.0" standalone="no"?>
<!DOCTYPE svg PUBLIC "-//W3C//DTD SVG 20010904//EN"
 "http://www.w3.org/TR/2001/REC-SVG-20010904/DTD/svg10.dtd">
<svg version="1.0" xmlns="http://www.w3.org/2000/svg"
 width="1536.000000pt" height="182.000000pt" viewBox="0 0 1536.000000 182.000000"
 preserveAspectRatio="xMidYMid meet">
<metadata>
Created by potrace 1.16, written by Peter Selinger 2001-2019
</metadata>
<g transform="translate(0.000000,182.000000) scale(0.100000,-0.100000)"
fill="#000000" stroke="none">
<path d="M11572 1804 c-138 -37 -287 -116 -443 -235 -279 -213 -333 -253 -396
-289 -80 -47 -193 -96 -244 -105 -35 -7 -37 -5 -49 29 -53 161 -557 368 -985
405 -163 14 -236 3 -555 -88 -157 -44 -319 -86 -360 -93 -47 -8 -156 -13 -295
-12 -305 1 -441 19 -1095 149 -689 136 -1091 174 -1955 182 -517 5 -853 -2
-1310 -28 -163 -9 -265 -7 -720 14 -291 14 -548 23 -570 21 -22 -2 -123 -11
-225 -20 -388 -33 -891 -108 -1380 -204 -125 -25 -196 -33 -370 -40 -296 -12
-368 -34 -461 -138 -57 -63 -161 -245 -153 -267 4 -9 47 -36 96 -61 49 -25
174 -94 278 -153 300 -172 405 -210 607 -218 l132 -6 20 34 c11 18 23 45 26
60 4 16 15 30 28 34 44 14 336 17 447 6 62 -7 230 -32 374 -56 143 -24 312
-49 375 -56 123 -13 347 -8 606 12 183 14 456 6 543 -15 34 -9 81 -26 105 -37
88 -46 428 -135 638 -168 109 -18 196 -21 709 -26 l585 -6 410 -50 c226 -27
826 -101 1335 -164 509 -63 984 -122 1055 -130 72 -8 292 -19 490 -25 198 -5
412 -16 475 -24 641 -81 1586 -22 2318 145 144 33 155 33 255 -8 49 -20 85
-27 172 -31 187 -8 378 29 691 134 324 108 507 185 1014 426 593 283 616 291
992 338 267 34 377 57 489 104 48 20 56 32 74 107 18 77 19 128 3 237 l-11 84
-51 38 c-115 87 -292 161 -349 146 -14 -3 -108 -56 -208 -117 -302 -184 -329
-199 -449 -259 -112 -57 -316 -132 -394 -146 l-39 -7 7 36 c4 19 3 38 -2 41
-13 8 -196 43 -312 60 -58 9 -256 29 -440 46 -400 36 -536 53 -693 85 -145 30
-197 53 -357 159 -238 158 -335 189 -478 150z"/>
</g>
</svg>
