<?xml version="1.0" encoding="UTF-8" standalone="no"?>
<!-- Created with Inkscape (http://www.inkscape.org/) -->

<svg
   xmlns:svg="http://www.w3.org/2000/svg"
   xmlns="http://www.w3.org/2000/svg"
   version="1.2"
   width="88.462997"
   height="63.167"
   viewBox="0 0 88.463 63.167"
   id="Layer_1"
   xml:space="preserve"
   style="overflow:inherit"><defs
   id="defs7" />
<path
   d="m 56.188,0.8 c -0.353,0.058 -0.3,-0.291 -0.296,-0.59 -0.855,0.62 -1.473,1.479 -2.066,2.362 -2.767,3.465 -6.575,5.889 -10.824,7.872 -0.308,0.643 -0.984,0.917 -1.476,1.377 -0.265,1.557 -1.528,2.415 -2.559,3.444 -0.75,0.75 -1.657,1.842 -2.656,2.263 -2.208,0.93 -6.775,0.894 -9.841,1.181 -2.74,0.256 -5.678,1.78 -6.593,3.936 -2.332,0.653 -4.235,1.734 -5.412,3.542 1.426,0.833 3.343,-0.347 5.313,-0.394 1.939,-0.046 3.967,0.208 5.609,0.689 0.913,0.268 2.039,0.38 2.46,1.083 -0.8,1.627 -2.18,2.675 -3.149,4.133 -3.693,3.724 -7.76,6.935 -10.627,11.611 -1.822,2.973 -3.965,5.874 -5.806,8.954 -0.086,0.148 -0.147,-0.026 -0.394,0.099 0.016,0.312 -0.262,0.329 -0.197,0.688 -1.009,0.772 -1.72,2.669 -2.854,3.642 -0.03,0.229 -0.192,0.406 0,0.59 -0.921,0.873 -1.557,1.97 -2.361,2.952 -0.787,0.963 -1.85,1.723 -2.459,2.854 0.43,0.437 1.275,-1.118 1.968,-0.196 0.672,-0.28 1.165,-0.738 1.771,-1.083 0.469,-0.107 0.136,0.587 0.492,0.591 0.745,-0.074 0.989,-0.65 1.574,-0.886 1.503,0.492 2.332,-0.703 3.148,-1.476 1.621,0.909 2.381,-0.921 3.346,-1.575 1.989,0.496 2.295,-1.32 3.346,-2.066 2.003,0.102 2.138,-1.667 3.149,-2.558 0.451,-0.091 0.476,0.246 0.886,0.196 1.039,-0.535 1.297,-1.852 1.771,-2.952 0.164,-0.263 0.68,-0.174 0.886,-0.394 0.764,-0.54 0.62,-1.61 0.984,-2.361 0.161,-0.333 0.526,-0.428 0.787,-0.787 0.518,-0.715 0.54,-1.847 1.476,-2.165 1.453,-2.789 3.9,-4.683 6.396,-6.593 1.451,-1.111 3.261,-2.147 4.625,-3.444 1.433,-1.361 2.569,-2.801 4.034,-4.133 2.993,0.252 5.572,0.996 8.856,0.689 1.476,0.362 2.882,0.792 4.034,1.476 0.543,-0.126 0.902,-0.057 1.378,0.099 0.372,-0.022 0.478,-0.31 0.787,-0.394 1.029,0.25 1.945,0.612 3.247,0.59 0.226,-0.037 0.131,-0.394 0.295,-0.492 0.591,0 1.182,0 1.771,0 4.426,1.357 9.156,3.454 13.481,5.019 3.491,1.264 6.964,2.438 10.036,3.642 1.162,0.454 2.398,0.863 3.937,1.082 -0.974,-0.765 -2.828,-0.648 -3.641,-1.574 -0.196,0 -0.394,0 -0.591,0 -2.504,-1.235 -5.568,-1.91 -8.068,-3.149 -4.68,-1.52 -9.024,-3.374 -13.284,-5.313 -0.411,0.022 -0.465,-0.16 -0.788,0 -0.256,-0.4 -0.746,-0.566 -0.885,-1.083 0.197,-0.426 0.391,-0.856 0.492,-1.377 -1.114,-0.428 -2.352,-0.733 -3.641,-0.984 0,-0.82 0,-1.64 0,-2.46 -0.808,-0.381 -1.592,-0.625 -2.756,-0.492 -0.628,0.072 -1.211,0.458 -1.771,0.394 -0.443,-0.051 -0.879,-0.621 -1.476,-0.984 -0.374,-0.228 -0.956,-0.304 -1.181,-0.492 -0.363,-0.304 -0.908,-1.232 -1.182,-1.673 -0.357,-0.578 -0.793,-1.591 -0.688,-2.165 0.095,-0.521 0.962,-1.314 1.378,-1.87 0.482,-0.644 0.877,-1.303 1.476,-1.672 0.772,-1.21 0.899,-2.759 1.575,-3.937 0.743,-1.298 2.141,-1.933 3.443,-2.657 0.055,-0.175 0.051,-0.409 0.197,-0.492 0.393,-0.23 0.99,-0.256 1.377,-0.492 C 58.602,9.517 59.515,9.349 60.021,8.772 60.376,8.321 59.688,8.233 59.628,7.886 59.837,7.505 60.227,7.304 60.12,6.607 60.096,6.336 59.634,6.503 59.529,6.312 59.532,5.757 59.831,5.499 59.725,4.836 59.615,4.619 59.291,4.613 59.037,4.541 59.105,3.186 58.823,2.271 58.938,0.999 58.245,1.158 57.958,1.724 57.265,1.885 56.996,1.292 57.671,0.869 57.462,0.015 57.017,-0.113 56.755,0.723 56.188,0.8 z"
   id="path3"
   style="fill-rule:evenodd" />
</svg>