<?xml version="1.0" encoding="UTF-8" standalone="no"?>
<!-- Created with Inkscape (http://www.inkscape.org/) -->

<svg
   xmlns:svg="http://www.w3.org/2000/svg"
   xmlns="http://www.w3.org/2000/svg"
   version="1.1"
   width="536.15997"
   height="173.52"
   viewBox="0 0 536.16 173.52"
   id="Layer_1"
   xml:space="preserve"><defs
   id="defs50" />
    
    <g
   id="XMLID_2_">
        
        <g
   id="g4">
            
            <path
   d="m 526.08,30.48 c 0.57,1.83 -4.29,3.29 -6.24,4.08 l 0.09,-0.94 -0.81,-0.5 c 0,-0.16 0,-0.32 0,-0.48 l 0.6,-0.74 -0.12,-0.94 c 1.99,0.25 5.93,-2.25 6.48,-0.48 z"
   id="path6" />
            
            <path
   d="m 366.72,106.32 -0.72,0.96 c 3.42,0.41 7.31,0.37 10.32,1.2 l -0.12,-1.12 c 7.47,2.359 10.97,2.529 17.109,4.8 6.221,2.3 17.061,5.75 20.921,12.41 3.55,6.12 -8.011,6.34 -10.24,6.229 -5.75,-0.27 -11.601,-1 -18.8,-0.68 -6.33,0.29 -13.12,0.01 -19.4,-0.51 -11.04,-0.92 -16.86,-4.391 -26.67,-4.57 l 0.72,-0.96 c -1.26,-0.43 -3.53,-1.11 -4.56,-0.96 l 0.239,1.08 -0.72,0.84 c 0.69,1.07 2.67,0.85 3.601,1.68 l 0.63,-0.84 c 17.859,9.89 36.12,20.13 51.779,33.601 l -1.05,-0.12 c 0,0.159 0,0.319 0,0.479 l 0.36,0.93 c -5.73,-0.699 -11.99,-0.279 -18.33,-0.46 -2.98,-0.079 -5.96,-0.72 -8.79,-0.649 -3.69,0.08 -7.28,-0.46 -10.15,-1.101 -8.05,-1.77 -16.869,-3.489 -24.58,-7.149 -2.67,-1.271 -5.529,-2.141 -7.789,-3.5 -8.87,-5.29 -16.181,-10.07 -24.16,-16.59 -1.29,-1.051 -2.391,-1.851 -3.471,-2.66 -5.67,-4.26 -8.359,-5.09 -15.29,-4.9 -16.689,0.471 -37.609,4.38 -52.8,4.26 -6.86,-0.05 -13.66,-1.039 -20.61,0.721 7.32,5.3 16.6,8.45 24.77,12.58 l -1.16,0.279 c 0,0.16 0,0.32 0,0.48 l 0.57,0.75 c -5.52,0.56 -15.14,-1.44 -21.5,-0.35 -9.07,1.56 -17.14,0.399 -25.76,0.649 -15.82,0.47 -33.37,-5.28 -49.39,-12.33 -3,-1.319 -6.48,-2.979 -9.34,-3.87 -3.52,-1.109 -10.76,-1.069 -16.13,-1.81 -6.3,-0.88 -14.54,-2.04 -21.12,-3.13 -7.49,-1.23 -15.63,-3.24 -21.54,-3.42 -10.14,-0.32 -19.3,-2.271 -28.81,-4.73 -3.91,-1.02 -6.74,-2.79 -10.31,-4.56 -2.08,-1.021 -3.76,-1.25 -6.14,-3.351 -4.34,-3.81 -4.49,-6.819 -3.85,-13.1 0.35,-3.35 6.63,-5.7 8.68,-7.13 9.5,-6.62 16.35,-11.89 27.57,-16.5 2.13,-0.87 4.29,-1.75 6.48,-2.64 14.39,-5.89 30.72,-10.19 44.99,-14.26 1.73,-0.49 3.58,-0.89 5.18,-1.25 l -0.06,1.03 c 3.13,-0.39 5.56,-1.48 7.92,-2.64 l -0.12,-1.08 c 9.51,-2.57 18.1,-4.21 27.07,-7.35 2.34,-0.82 4.43,-1.79 6.92,-2.52 1.35,-0.4 2.86,-0.84 4.36,-1.12 6.92,-1.27 14.84,-3.36 21.1,-4.17 5.67,-0.74 10.57,-0.51 15.6,-1.07 9.73,-1.08 19.25,-1.92 28.26,-2.06 4.62,-0.07 12.29,-0.64 14.21,3.64 0.97,2.17 -2.68,7.29 1.76,7.18 3.12,-0.07 8.55,-2.08 10.26,-2.56 l -0.06,1.03 c 6.88,-2.4 12.11,-6.45 17.28,-10.56 l -0.75,-0.81 c 9.08,-6.68 19.72,-10.56 30.33,-14.1 6.21,-2.08 10.28,-3.72 15.24,-3.54 10.54,0.38 20.68,2.49 31.79,4.21 5.729,0.89 10.54,3.52 16.56,5.28 4.351,1.27 8.57,2.57 12.82,3.98 6.22,2.08 12.56,4.71 18.99,5.85 1.25,0.22 2.729,-0.03 3.979,0.26 5.28,1.22 10.17,3.43 15.74,6.24 5.46,2.76 12.71,4.88 17.47,8.98 2.12,1.83 2.181,3.78 1.5,5.54 -2.95,7.62 -17.49,10.42 -23.24,16.45 L 402,66 c -1.84,0.99 -3.29,1.51 -5.52,2.88 -0.83,0.51 -4.891,2.63 -4.08,3.84 0.729,1.09 1.909,-0.45 2.88,-0.72 2.26,-0.64 6.67,-0.79 8.16,-2.64 l -0.721,-0.84 c 4.54,0.1 8.761,-2.87 13.971,-4.36 3.68,-1.05 7.1,-1.61 10.67,-3.27 3.729,-1.75 10.38,-3.54 15.25,-5.37 12.25,-4.6 24.05,-9.9 36.479,-13.44 4.84,-1.38 10.45,-3.54 14.88,-4.32 8.09,-1.43 16.391,-4.39 22.33,-5.4 1.36,-0.23 2.08,-0.77 3.42,-0.46 l -0.6,0.74 c 0,0.16 0,0.32 0,0.48 l 0.81,0.5 c -2.479,1.29 -4.979,1.43 -7.279,2.25 -11.07,3.93 -20.71,7.42 -28.561,13.94 -4.54,3.77 -9.41,8.05 -13.84,12.94 -6.25,6.89 -12.29,10.59 -18.28,16.06 -2.25,2.05 -4.51,3.91 -6.95,5.75 -5.689,4.27 -10.739,9.86 -17.739,12.64 -0.101,0.04 -0.221,0.01 -0.3,0.05 -4.7,2.46 -8.421,3.93 -13.171,5.31 -11.359,3.29 -24.64,2.891 -36.89,3.32 l 0.12,-0.76 c -3.21,-0.71 -6.89,0.13 -10.32,0 v 1.2 z"
   id="path8" />
            
            <path
   d="m 403.44,67.2 c 0,0.16 0,0.32 0,0.48 l -0.721,0.84 0.721,0.84 c -1.49,1.85 -5.9,2 -8.16,2.64 -0.971,0.27 -2.15,1.81 -2.88,0.72 -0.811,-1.21 3.25,-3.33 4.08,-3.84 2.229,-1.37 3.68,-1.89 5.52,-2.88 l 0.27,1.14 1.17,0.06 z"
   id="path10" />
            
            <path
   d="m 393.84,160.56 -0.96,0.721 -0.72,0.96 c -0.891,0.01 -1.521,-0.24 -2.16,-0.48 l 0.12,-0.99 -0.36,-0.93 c 0,-0.16 0,-0.32 0,-0.479 l 1.05,0.12 0.631,-0.841 c 0.919,0.519 1.869,1.009 2.399,1.919 z"
   id="path12" />
            
            <path
   d="m 377.28,106.56 c 0,0.16 0,0.32 0,0.48 l -1.08,0.32 0.12,1.12 c -3.011,-0.83 -6.9,-0.79 -10.32,-1.2 l 0.72,-0.96 v -1.2 c 3.431,0.13 7.11,-0.71 10.32,0 l -0.12,0.76 0.36,0.68 z"
   id="path14" />
            
            <path
   d="m 340.08,125.76 c 0,0.08 0,0.16 0,0.24 l -1.05,-0.12 -0.63,0.84 c -0.931,-0.83 -2.91,-0.609 -3.601,-1.68 l 0.72,-0.84 -0.239,-1.08 c 1.029,-0.15 3.3,0.53 4.56,0.96 l -0.72,0.96 0.96,0.72 z"
   id="path16" />
            
            <path
   d="m 261.09,27.99 0.75,0.81 c -5.17,4.11 -10.4,8.16 -17.28,10.56 l 0.06,-1.03 -0.54,-0.89 c 5.66,-3.54 10.38,-8.02 17.04,-10.56 l -0.03,1.11 z"
   id="path18" />
            
            <path
   d="m 229.2,140.16 c 3.47,1.27 3.44,4.03 -0.96,3.6 l 0.09,-0.93 -0.57,-0.75 c 0,-0.16 0,-0.32 0,-0.48 l 1.16,-0.279 0.28,-1.161 z"
   id="path20" />
            
            <path
   d="m 115.08,48.36 0.12,1.08 c -2.36,1.16 -4.79,2.25 -7.92,2.64 l 0.06,-1.03 -0.54,-0.89 c 1.87,-1.81 5.06,-2.3 8.16,-2.88 l 0.12,1.08 z"
   id="path22" />
            
        </g>
        
        <g
   id="g24">
            
            <path
   d="m 402.72,68.52 c 4.54,0.1 8.761,-2.87 13.971,-4.36 3.68,-1.05 7.1,-1.61 10.67,-3.27 3.729,-1.75 10.38,-3.54 15.25,-5.37 12.25,-4.6 24.05,-9.9 36.479,-13.44 4.84,-1.38 10.45,-3.54 14.88,-4.32 8.09,-1.43 16.391,-4.39 22.33,-5.4 1.36,-0.23 2.08,-0.77 3.42,-0.46"
   id="path26"
   style="fill:none;stroke:#000000;stroke-width:1.49039996;stroke-linecap:round" />
            
            <path
   d="m 396.24,162.84 c -0.971,-0.75 -2.3,-0.93 -3.36,-1.56"
   id="path28"
   style="fill:none;stroke:#000000;stroke-width:2.11030006;stroke-linecap:round" />
            
            <path
   d="m 376.92,105.88 c 12.25,-0.43 25.53,-0.03 36.89,-3.32 4.75,-1.38 8.471,-2.85 13.171,-5.31 0.079,-0.04 0.199,-0.01 0.3,-0.05 7,-2.78 12.05,-8.37 17.739,-12.64 2.44,-1.84 4.7,-3.7 6.95,-5.75 5.99,-5.47 12.03,-9.17 18.28,-16.06 4.43,-4.89 9.3,-9.17 13.84,-12.94 7.851,-6.52 17.49,-10.01 28.561,-13.94 2.3,-0.82 4.8,-0.96 7.279,-2.25"
   id="path30"
   style="fill:none;stroke:#000000;stroke-width:1.54990005;stroke-linecap:round" />
            
            <path
   d="m 366.72,106.32 c -7.58,-1.11 -15.27,-1.391 -22.92,-1.561"
   id="path32"
   style="fill:none;stroke:#000000;stroke-width:1.9016;stroke-linecap:round" />
            
            <path
   d="M 390.81,159.48 C 375.151,146.009 356.89,135.769 339.031,125.879"
   id="path34"
   style="fill:none;stroke:#000000;stroke-width:1.53050005;stroke-linecap:round" />
            
            <path
   d="m 339.12,125.04 c 9.81,0.18 15.63,3.65 26.67,4.57 6.28,0.52 13.07,0.8 19.4,0.51 7.199,-0.32 13.05,0.41 18.8,0.68 2.229,0.11 13.79,-0.109 10.24,-6.229 -3.86,-6.66 -14.7,-10.11 -20.921,-12.41 -6.14,-2.271 -9.64,-2.44 -17.109,-4.8"
   id="path36"
   style="fill:none;stroke:#000000;stroke-width:1.57000005;stroke-linecap:round" />
            
            <path
   d="m 329.88,122.36 c 1.76,0.85 3.82,1.029 5.64,1.84"
   id="path38"
   style="fill:none;stroke:#000000;stroke-width:1.63139999;stroke-linecap:round" />
            
            <path
   d="m 261.09,27.99 c 9.08,-6.68 19.72,-10.56 30.33,-14.1 6.21,-2.08 10.28,-3.72 15.24,-3.54 10.54,0.38 20.68,2.49 31.79,4.21 5.729,0.89 10.54,3.52 16.56,5.28 4.351,1.27 8.57,2.57 12.82,3.98 6.22,2.08 12.56,4.71 18.99,5.85 1.25,0.22 2.729,-0.03 3.979,0.26 5.28,1.22 10.17,3.43 15.74,6.24 5.46,2.76 12.71,4.88 17.47,8.98 2.12,1.83 2.181,3.78 1.5,5.54 -2.95,7.62 -17.49,10.42 -23.24,16.45"
   id="path40"
   style="fill:none;stroke:#000000;stroke-width:1.71029997;stroke-linecap:round" />
            
            <path
   d="m 228.92,141.32 c -8.17,-4.13 -17.45,-7.28 -24.77,-12.58 6.95,-1.76 13.75,-0.771 20.61,-0.721 15.19,0.12 36.11,-3.789 52.8,-4.26 6.931,-0.189 9.62,0.641 15.29,4.9 1.08,0.81 2.181,1.609 3.471,2.66 7.979,6.52 15.29,11.3 24.16,16.59 2.26,1.359 5.119,2.229 7.789,3.5 7.711,3.66 16.53,5.38 24.58,7.149 2.87,0.641 6.46,1.181 10.15,1.101 2.83,-0.07 5.81,0.57 8.79,0.649 6.34,0.181 12.6,-0.239 18.33,0.46"
   id="path42"
   style="fill:none;stroke:#000000;stroke-width:1.71969998;stroke-linecap:round" />
            
            <path
   d="m 115.08,48.36 c 9.51,-2.57 18.1,-4.21 27.07,-7.35 2.34,-0.82 4.43,-1.79 6.92,-2.52 1.35,-0.4 2.86,-0.84 4.36,-1.12 6.92,-1.27 14.84,-3.36 21.1,-4.17 5.67,-0.74 10.57,-0.51 15.6,-1.07 9.73,-1.08 19.25,-1.92 28.26,-2.06 4.62,-0.07 12.29,-0.64 14.21,3.64 0.97,2.17 -2.68,7.29 1.76,7.18 3.12,-0.07 8.55,-2.08 10.26,-2.56"
   id="path44"
   style="fill:none;stroke:#000000;stroke-width:1.65840006;stroke-linecap:round" />
            
            <path
   d="m 228.33,142.83 c -5.52,0.56 -15.14,-1.44 -21.5,-0.35 -9.07,1.56 -17.14,0.399 -25.76,0.649 -15.82,0.47 -33.37,-5.28 -49.39,-12.33 -3,-1.319 -6.48,-2.979 -9.34,-3.87 -3.52,-1.109 -10.76,-1.069 -16.13,-1.81 -6.3,-0.88 -14.54,-2.04 -21.12,-3.13 -7.49,-1.23 -15.63,-3.24 -21.54,-3.42 -10.14,-0.32 -19.3,-2.271 -28.81,-4.73 -3.91,-1.02 -6.74,-2.79 -10.31,-4.56 -2.08,-1.021 -3.76,-1.25 -6.14,-3.351 -4.34,-3.81 -4.49,-6.819 -3.85,-13.1 0.35,-3.35 6.63,-5.7 8.68,-7.13 9.5,-6.62 16.35,-11.89 27.57,-16.5 2.13,-0.87 4.29,-1.75 6.48,-2.64 14.39,-5.89 30.72,-10.19 44.99,-14.26 1.73,-0.49 3.58,-0.89 5.18,-1.25"
   id="path46"
   style="fill:none;stroke:#000000;stroke-width:1.66480005;stroke-linecap:round" />
            
        </g>
        
    </g>
    
</svg>