<?xml version="1.0" standalone="no"?>
<!DOCTYPE svg PUBLIC "-//W3C//DTD SVG 20010904//EN"
 "http://www.w3.org/TR/2001/REC-SVG-20010904/DTD/svg10.dtd">
<svg version="1.0" xmlns="http://www.w3.org/2000/svg"
 width="1442.000000pt" height="1536.000000pt" viewBox="0 0 1442.000000 1536.000000"
 preserveAspectRatio="xMidYMid meet">
<metadata>
Created by potrace 1.16, written by Peter Selinger 2001-2019
</metadata>
<g transform="translate(0.000000,1536.000000) scale(0.100000,-0.100000)"
fill="#000000" stroke="none">
<path d="M6047 15338 c-8 -13 -22 -52 -32 -88 -20 -76 -59 -157 -107 -220
l-33 -45 -5 165 -5 165 -27 3 c-33 4 -71 -35 -95 -96 -14 -38 -14 -48 -2 -85
8 -23 14 -82 14 -132 0 -86 -2 -92 -33 -135 -31 -44 -35 -57 -58 -207 -3 -19
-24 -55 -49 -85 -56 -64 -58 -88 -11 -88 43 0 60 -21 52 -61 -7 -35 -30 -71
-99 -152 -61 -71 -73 -78 -162 -88 -51 -5 -91 -17 -134 -40 -60 -32 -63 -32
-123 -21 -34 6 -66 16 -71 21 -5 5 0 46 13 102 12 52 24 104 26 117 3 12 20
40 39 61 71 78 26 129 -47 54 -54 -57 -96 -130 -120 -208 -24 -82 -42 -119
-69 -146 -26 -26 -48 -24 -59 7 -9 22 -15 25 -47 22 -35 -3 -38 -6 -43 -38
l-5 -35 -18 46 c-21 55 -50 72 -98 59 -85 -25 -89 -68 -14 -143 48 -48 55 -60
55 -95 0 -54 23 -105 72 -158 l40 -44 -21 -127 c-12 -71 -26 -145 -31 -165
-15 -54 -104 -183 -175 -254 -58 -59 -77 -69 -173 -94 -39 -10 -46 -16 -68
-65 -20 -43 -23 -58 -14 -75 9 -17 8 -20 -9 -20 -32 0 -33 14 -7 84 32 89 47
109 113 154 88 60 91 65 90 157 0 100 22 150 88 195 46 31 46 32 43 83 l-3 52
-43 -1 c-83 -2 -163 -101 -181 -226 -11 -80 -29 -109 -84 -138 -73 -39 -114
-22 -203 83 -31 37 -71 49 -78 25 -2 -7 -19 -59 -36 -116 l-33 -103 22 -43
c22 -46 28 -86 11 -86 -5 0 -10 6 -10 13 0 18 -43 57 -63 57 -41 0 -46 -82
-11 -180 16 -46 16 -46 -15 -108 -27 -54 -31 -71 -31 -146 l0 -85 -37 -3 -38
-3 2 -47 c2 -25 12 -70 23 -99 59 -148 112 -538 81 -588 -13 -19 -18 -7 -62
147 -36 121 -42 157 -51 307 -13 196 -17 215 -53 215 -15 0 -36 11 -52 28 -37
40 -83 123 -83 152 0 38 -27 70 -59 70 -36 0 -51 -17 -51 -57 0 -27 -7 -37
-40 -58 -64 -40 -85 -102 -46 -134 11 -9 24 -8 55 5 52 20 85 9 135 -47 40
-44 49 -71 81 -263 14 -77 35 -175 49 -216 13 -41 22 -78 20 -82 -2 -3 -19 -2
-37 3 -17 5 -48 9 -68 9 -23 0 -42 7 -54 20 -10 11 -30 20 -45 20 -32 0 -50
17 -50 48 0 31 -16 59 -40 72 -30 16 -60 -19 -60 -70 0 -95 -52 -144 -106
-101 -33 26 -48 19 -102 -51 -43 -56 -75 -83 -130 -112 -24 -13 -40 -33 -58
-72 -17 -39 -36 -62 -65 -82 -23 -15 -55 -40 -72 -55 -29 -28 -30 -30 -24
-106 2 -43 12 -92 21 -109 22 -43 20 -73 -9 -112 -38 -51 -94 -76 -78 -35 3 9
0 21 -6 28 -8 10 -6 23 9 52 10 20 22 58 26 82 8 55 -8 75 -61 77 -36 1 -38
-1 -50 -42 -16 -52 -31 -72 -57 -72 -11 0 -33 -13 -49 -30 -36 -36 -35 -43 27
-154 49 -87 63 -152 64 -286 1 -41 5 -93 10 -115 14 -65 56 -172 78 -200 12
-15 28 -52 37 -83 9 -31 34 -89 56 -130 37 -70 39 -78 39 -167 0 -64 6 -113
20 -156 10 -35 18 -65 15 -67 -9 -10 -56 90 -61 134 -9 71 -54 147 -149 253
-132 148 -161 216 -190 456 -27 222 -51 275 -123 275 -28 0 -45 -7 -63 -26
-21 -22 -24 -35 -24 -97 0 -68 3 -78 52 -168 29 -53 50 -99 46 -102 -11 -11
-63 23 -77 51 -7 15 -21 53 -30 85 -15 53 -19 57 -47 57 -22 0 -32 6 -39 24
-14 38 -46 51 -76 31 -36 -23 -31 -59 20 -126 44 -58 71 -118 64 -140 -2 -7
-38 23 -81 65 -82 82 -117 95 -150 58 -34 -37 -20 -56 108 -149 87 -64 129
-108 189 -200 28 -42 84 -106 140 -157 86 -80 94 -90 118 -158 14 -40 37 -100
51 -134 15 -33 33 -105 41 -160 9 -54 23 -121 32 -148 15 -43 175 -292 266
-413 17 -24 29 -46 26 -49 -4 -3 -25 5 -48 18 l-41 23 -20 -24 c-26 -31 -24
-51 10 -119 40 -81 45 -98 26 -106 -41 -15 -127 46 -172 121 -48 82 -89 107
-218 129 l-50 9 1 55 c1 40 9 70 30 110 28 54 29 58 29 210 0 153 -1 156 -32
225 -17 39 -40 98 -51 131 -30 92 -43 111 -97 147 -35 22 -59 48 -78 85 -33
61 -129 168 -160 178 -15 5 -27 0 -44 -20 -13 -15 -23 -33 -23 -39 0 -23 37
-82 158 -252 67 -94 141 -204 164 -245 l43 -75 0 -121 c0 -115 -1 -123 -27
-160 -15 -21 -29 -57 -33 -79 -3 -22 -8 -50 -11 -62 -2 -13 -30 -53 -62 -90
-31 -38 -74 -89 -94 -114 -20 -25 -66 -65 -103 -89 -49 -32 -76 -59 -107 -107
-35 -53 -45 -63 -62 -58 -12 3 -36 10 -55 15 -19 5 -43 18 -55 29 l-21 21 24
46 c27 50 85 105 142 134 90 47 117 134 60 191 -16 16 -38 29 -49 29 -21 0
-72 -53 -72 -74 0 -7 -9 -21 -20 -31 -19 -18 -20 -17 -20 5 0 13 5 52 11 87
12 68 40 103 83 103 24 0 103 47 126 75 13 16 11 21 -34 61 l-49 43 -56 -36
c-31 -19 -69 -47 -84 -62 -62 -57 -101 -173 -121 -355 -6 -65 -16 -111 -23
-113 -7 -3 -13 8 -15 24 -2 23 -8 29 -35 31 -36 4 -53 37 -53 107 0 81 -74
185 -132 185 -10 0 -25 -11 -34 -25 -15 -24 -15 -27 11 -76 15 -29 37 -102 50
-166 15 -72 34 -132 51 -161 24 -41 28 -61 35 -177 4 -71 8 -188 8 -260 l-1
-130 -63 129 c-83 170 -125 295 -134 397 -7 78 -9 83 -43 113 -41 35 -46 55
-50 172 l-2 82 50 58 c28 33 79 97 112 142 68 92 73 112 47 198 -32 104 -15
144 83 193 64 32 54 60 -29 84 -51 15 -58 35 -36 100 17 51 8 84 -27 93 -36 9
-64 -11 -75 -54 -6 -21 -18 -133 -26 -250 -21 -293 -23 -301 -93 -384 -110
-132 -132 -177 -132 -278 l-1 -55 -29 35 c-17 19 -33 49 -36 67 -7 37 -64 93
-94 93 -45 0 -47 -64 -3 -128 12 -19 23 -40 23 -46 -1 -52 -117 -196 -157
-196 -12 0 -30 -11 -41 -25 -25 -32 -39 -26 -80 33 -70 98 -59 91 -87 59 -31
-35 -31 -53 0 -100 l26 -37 -64 35 c-83 46 -116 46 -162 -2 -19 -20 -40 -53
-45 -74 -7 -26 -20 -43 -45 -58 -53 -31 -47 -60 18 -100 45 -27 67 -57 67 -89
0 -28 -5 -27 -86 8 -84 37 -114 19 -114 -71 0 -61 23 -73 147 -74 l105 0 46
-53 c37 -41 58 -55 99 -67 29 -9 65 -26 80 -39 l27 -23 -27 -18 c-33 -21 -34
-35 -5 -62 32 -29 65 -45 123 -59 l50 -12 -82 -1 c-79 -1 -83 -2 -89 -25 -11
-45 8 -60 98 -76 80 -15 82 -16 58 -30 -19 -12 -60 -15 -175 -14 -163 1 -257
14 -318 45 -48 25 -73 18 -94 -27 -24 -50 -54 -46 -119 16 -45 42 -59 50 -92
50 -40 0 -72 -23 -72 -52 0 -29 97 -154 130 -168 40 -17 175 -7 282 19 70 18
82 18 130 5 102 -27 314 -13 486 32 150 39 211 19 316 -100 40 -46 85 -83 149
-121 51 -31 120 -75 153 -99 34 -24 68 -46 75 -48 26 -10 2 -18 -82 -29 -46
-6 -102 -17 -125 -25 -61 -21 -218 -117 -222 -136 -2 -9 4 -32 12 -52 20 -49
40 -47 167 13 125 60 246 93 347 94 71 1 75 0 100 -30 21 -24 40 -34 85 -43
l58 -12 -25 -33 c-37 -48 -48 -82 -36 -106 6 -10 19 -19 30 -19 26 0 75 44
102 91 18 33 26 39 48 35 14 -3 56 -8 93 -11 37 -4 98 -15 135 -26 47 -13 98
-19 173 -19 69 0 111 -4 121 -12 10 -9 17 -36 21 -80 3 -39 13 -85 26 -110 11
-23 19 -43 18 -44 -1 -2 -20 1 -42 6 -22 5 -44 5 -48 1 -5 -5 -7 -30 -5 -57 2
-38 8 -51 25 -60 l23 -11 -28 -25 c-51 -49 -91 -62 -172 -60 -94 3 -297 -23
-351 -44 -33 -14 -45 -15 -67 -4 -15 7 -61 21 -103 31 -77 18 -199 63 -268 99
-43 21 -51 38 -82 163 -12 48 -30 99 -41 112 -30 39 -79 32 -103 -15 -13 -26
-13 -30 11 -55 20 -21 24 -36 22 -68 -3 -38 -6 -41 -43 -51 -29 -9 -42 -19
-49 -39 -14 -40 -1 -55 69 -82 33 -12 93 -39 133 -59 71 -36 73 -37 67 -69
-10 -52 50 -101 94 -78 11 6 35 11 55 11 29 0 45 -10 96 -60 35 -34 60 -67 57
-74 -12 -30 -250 -62 -377 -52 -82 7 -97 16 -323 181 -49 36 -93 65 -98 65
-12 0 -11 -45 3 -91 9 -31 20 -43 55 -60 52 -25 55 -39 7 -39 -48 0 -66 11
-108 70 -34 47 -39 50 -79 50 -66 0 -81 16 -74 78 11 97 80 268 131 330 31 36
33 68 6 77 -28 9 -72 -17 -120 -72 -57 -64 -90 -136 -90 -195 0 -40 -3 -48
-19 -48 -11 0 -28 14 -40 33 -11 17 -35 51 -52 75 -32 41 -33 45 -31 133 2 69
8 109 27 160 14 38 36 101 50 139 28 78 24 103 -19 114 -42 10 -76 -9 -76 -43
0 -24 -7 -34 -30 -46 -42 -22 -50 -48 -61 -214 -5 -80 -12 -147 -15 -150 -3
-4 -31 -6 -62 -6 -47 0 -58 -3 -67 -21 -5 -11 -18 -28 -28 -38 -22 -22 -22
-38 2 -68 29 -36 106 -74 216 -106 95 -27 101 -30 117 -65 27 -56 246 -226
376 -291 28 -14 52 -31 52 -36 0 -6 -22 -10 -49 -10 -49 0 -50 -1 -53 -32 -2
-27 -10 -36 -40 -50 -27 -13 -39 -27 -48 -55 -18 -53 -27 -62 -74 -70 -30 -5
-54 -19 -92 -55 -28 -26 -57 -48 -64 -48 -7 0 -36 14 -63 32 -38 24 -53 29
-66 21 -28 -18 -25 -51 8 -80 27 -24 30 -31 24 -68 -4 -36 -2 -45 17 -58 19
-13 27 -14 60 -2 51 18 117 60 161 102 20 19 65 51 100 71 37 22 69 49 77 64
21 45 92 97 209 154 121 59 136 61 320 45 l73 -6 -46 -65 c-26 -36 -53 -80
-61 -99 -13 -30 -13 -36 0 -49 19 -19 29 -12 76 52 30 41 48 55 82 65 77 23
274 129 330 179 64 55 247 142 361 171 47 11 94 32 127 55 43 29 62 36 101 36
51 0 63 -9 74 -52 3 -15 14 -29 24 -32 34 -11 334 -46 392 -46 33 0 60 -4 60
-8 0 -19 -40 -44 -90 -57 -65 -17 -77 -27 -105 -90 -41 -93 -80 -113 -230
-122 -117 -7 -145 -15 -145 -42 0 -34 -11 -51 -34 -51 -12 0 -32 -7 -44 -16
-18 -12 -22 -24 -20 -52 2 -31 9 -40 37 -54 30 -15 32 -18 15 -23 -104 -33
-278 -116 -316 -153 -47 -44 -31 -124 21 -107 11 3 32 20 46 36 l25 31 0 -44
c0 -47 13 -68 41 -68 9 0 27 -15 38 -32 12 -18 32 -48 46 -67 36 -49 33 -92
-10 -140 -19 -21 -35 -45 -35 -53 0 -24 42 -55 85 -63 21 -3 57 -16 78 -27
l39 -20 -58 -35 c-33 -20 -86 -49 -119 -65 -57 -28 -64 -29 -152 -23 -84 6
-93 5 -112 -14 -12 -12 -21 -28 -21 -36 0 -44 98 -80 215 -79 69 0 103 15 238
106 l88 59 22 -28 c12 -15 31 -37 42 -50 l20 -22 129 60 c71 32 151 66 178 74
l48 14 0 -37 c0 -39 -35 -119 -71 -164 -17 -20 -24 -47 -30 -120 -9 -101 -22
-174 -45 -255 -11 -40 -19 -53 -33 -53 -11 0 -66 32 -123 70 -118 81 -186 107
-227 87 -36 -17 -57 -63 -41 -91 23 -41 104 -96 182 -122 43 -14 78 -29 78
-34 0 -4 -23 -10 -51 -14 -29 -4 -98 -23 -155 -42 -57 -18 -114 -34 -128 -34
-24 0 -26 -4 -26 -40 0 -48 27 -80 67 -79 29 0 91 16 251 64 l93 27 52 -26
c58 -28 188 -125 195 -144 9 -27 -69 -46 -188 -46 -108 -1 -119 -3 -182 -33
-70 -33 -87 -57 -68 -93 15 -28 49 -34 114 -20 51 10 59 10 90 -9 48 -30 79
-26 179 21 l88 42 52 -19 c90 -31 125 -53 154 -97 16 -24 43 -52 61 -63 99
-60 127 -81 127 -95 0 -9 -7 -14 -19 -12 -45 8 -64 -7 -80 -61 -31 -105 -132
-159 -204 -108 -56 40 -194 47 -236 11 -17 -13 -21 -57 -7 -78 5 -8 38 -16 84
-19 108 -8 125 -38 48 -81 -59 -33 -65 -45 -49 -88 13 -36 13 -36 -30 -74 -51
-45 -172 -99 -244 -107 -36 -4 -60 -14 -84 -35 l-32 -29 -21 30 c-26 36 -26
39 1 122 29 90 19 136 -32 161 -48 24 -74 14 -96 -35 -25 -55 -61 -59 -85 -8
-19 41 -45 62 -67 54 -10 -3 -35 -23 -58 -45 -22 -21 -53 -42 -69 -46 -37 -10
-65 -49 -72 -99 -8 -59 21 -85 88 -82 57 3 67 -4 69 -51 3 -56 2 -57 -50 -64
-79 -11 -110 -54 -74 -104 14 -21 22 -22 159 -22 109 0 165 -5 232 -20 94 -22
111 -30 197 -98 30 -24 63 -44 75 -45 38 -3 2 -26 -81 -52 -100 -32 -138 -32
-193 1 -52 30 -98 30 -103 -1 -1 -11 -19 -55 -39 -98 -35 -72 -36 -78 -20 -94
14 -14 20 -15 43 -4 22 9 29 9 35 0 5 -9 28 -4 90 20 86 34 98 35 239 16 39
-6 51 -2 93 25 26 18 61 52 78 76 16 24 43 50 58 58 41 22 137 36 299 44 l142
7 40 -49 c56 -68 53 -76 -25 -76 -59 0 -66 -2 -82 -27 -10 -14 -18 -47 -18
-72 -1 -45 -2 -46 -49 -63 -27 -9 -56 -24 -66 -33 -51 -46 -183 -57 -328 -29
-82 17 -83 17 -106 -5 -13 -12 -52 -29 -86 -37 -71 -16 -190 -72 -198 -93 -16
-41 86 -54 163 -21 32 14 69 20 118 20 81 0 186 -15 199 -28 5 -5 -37 -58 -99
-124 -111 -118 -150 -174 -140 -201 3 -8 28 -22 55 -31 27 -9 58 -26 67 -36
24 -26 80 -41 110 -30 43 16 45 39 14 115 -16 39 -29 84 -29 100 0 66 90 158
210 213 48 23 69 26 160 26 158 0 186 -20 256 -190 25 -60 56 -127 69 -149 22
-39 113 -131 167 -170 20 -15 25 -24 18 -35 -7 -12 -16 -12 -62 3 -74 23 -171
89 -249 169 -39 40 -75 68 -87 68 -11 0 -32 -14 -46 -31 -52 -62 -21 -130 66
-143 52 -8 111 -43 116 -68 6 -30 -34 -42 -79 -24 -22 9 -58 16 -82 16 -23 0
-59 3 -79 6 -33 6 -39 11 -48 44 -13 48 -51 68 -87 45 -35 -23 -38 -40 -13
-79 37 -60 150 -136 203 -136 35 0 48 -20 33 -48 -15 -27 -64 -62 -88 -62 -25
0 -34 -45 -15 -74 45 -68 165 -12 183 86 4 18 12 43 20 54 26 43 180 98 234
84 33 -8 36 -38 11 -96 -23 -50 -27 -89 -11 -99 6 -3 10 -18 10 -32 0 -28 -48
-79 -118 -125 -47 -31 -63 -71 -39 -95 9 -10 44 -18 93 -22 l79 -6 -3 -52 c-2
-32 2 -62 11 -80 17 -31 96 -82 184 -119 66 -27 96 -30 112 -10 16 20 -17 57
-109 122 -43 30 -81 61 -84 70 -3 9 -6 75 -6 148 0 150 22 240 67 275 38 31
117 42 274 39 139 -3 146 -2 199 24 30 15 82 30 115 34 33 3 70 13 83 21 33
21 154 45 166 33 6 -6 2 -21 -12 -40 -12 -16 -22 -40 -22 -53 0 -28 36 -64 69
-69 30 -4 50 -33 34 -49 -17 -17 -98 -12 -158 10 -66 25 -103 26 -133 5 -18
-12 -22 -25 -22 -70 0 -53 -1 -56 -34 -69 -19 -8 -53 -17 -75 -21 -53 -8 -142
-70 -160 -111 -8 -17 -24 -34 -36 -37 -32 -8 -125 -94 -125 -115 0 -10 11 -23
25 -29 49 -22 78 -14 140 38 138 115 167 129 195 95 25 -30 75 -18 132 31 62
53 179 114 218 114 39 0 65 -33 64 -81 -1 -35 -10 -48 -68 -108 -60 -63 -66
-73 -66 -110 0 -23 9 -60 21 -82 11 -23 19 -55 17 -72 -2 -27 0 -32 17 -30 11
1 56 7 100 12 44 6 106 13 137 17 46 4 72 15 132 55 83 54 123 75 131 67 3 -3
-18 -42 -46 -87 -59 -92 -61 -73 23 -168 21 -24 38 -48 38 -54 0 -6 12 -25 26
-42 21 -25 25 -38 20 -66 -8 -49 -61 -100 -111 -107 -82 -12 -115 -39 -115
-95 0 -64 46 -79 130 -44 32 14 62 25 65 25 11 0 4 -27 -20 -74 -32 -62 -34
-137 -5 -173 18 -23 18 -27 5 -54 -32 -61 -13 -78 65 -59 43 10 54 10 75 -4
20 -13 41 -15 117 -9 51 3 96 11 100 17 4 6 8 32 8 58 0 26 10 73 21 104 17
44 20 69 15 113 -24 221 -18 277 23 210 26 -43 44 -152 44 -269 0 -84 -3 -101
-28 -148 -24 -46 -26 -56 -15 -81 25 -61 66 -46 130 49 47 69 77 91 86 63 22
-72 100 -157 138 -151 45 7 38 99 -11 150 l-27 28 22 39 c12 21 22 51 22 66 0
14 15 53 33 86 l32 60 -52 49 c-34 31 -74 56 -110 69 -80 29 -88 34 -91 65 -5
37 15 41 89 16 85 -29 163 -24 215 13 34 23 39 24 58 11 11 -7 33 -14 47 -14
22 0 29 -6 34 -29 12 -56 30 -60 140 -28 l50 14 -1 54 c-1 30 -5 143 -9 252
l-8 198 39 -7 c47 -7 123 11 131 31 3 8 -9 34 -26 57 -34 46 -40 88 -15 112
21 22 29 21 82 -16 64 -44 146 -51 178 -16 12 13 27 49 33 83 7 33 15 72 18
87 6 32 -44 119 -83 144 -30 20 -47 11 -112 -65 -32 -36 -61 -61 -73 -61 -49
0 -117 59 -145 125 -9 22 -36 66 -60 98 -48 65 -50 71 -29 107 20 35 19 43
-10 74 -19 21 -33 26 -70 26 -37 0 -45 3 -45 18 0 10 7 27 15 38 8 10 15 30
15 44 1 61 46 65 124 11 53 -37 84 -45 119 -32 45 17 33 44 -63 148 -102 111
-149 190 -157 266 -4 45 -1 59 26 107 17 30 39 72 48 92 14 29 25 38 48 40
l30 3 -1 105 c0 126 -18 173 -92 253 -69 73 -73 83 -55 131 20 58 10 94 -47
161 -57 68 -92 156 -115 287 -19 115 -24 135 -48 191 -11 26 -18 50 -15 52 3
3 19 0 37 -6 48 -17 78 -4 109 46 15 25 32 45 37 45 13 0 139 -128 153 -156 9
-16 2 -40 -39 -127 -52 -114 -63 -179 -33 -191 58 -22 114 11 114 68 0 27 28
85 56 115 2 2 19 -10 39 -28 64 -56 105 -34 105 55 0 53 15 74 54 74 33 0 122
-26 142 -42 6 -4 17 -66 23 -136 6 -70 14 -156 18 -191 6 -71 29 -105 77 -117
32 -8 52 7 60 46 6 33 21 38 47 14 29 -26 95 -36 156 -24 60 13 103 44 139
102 17 27 31 38 48 38 34 0 56 -10 56 -24 0 -15 -42 -56 -57 -56 -6 0 -16 -7
-24 -16 -11 -13 -5 -23 44 -70 31 -30 57 -58 57 -63 0 -4 -11 -18 -25 -31 -24
-22 -25 -29 -25 -132 l0 -109 -73 -97 c-114 -150 -197 -274 -197 -292 0 -9 11
-27 24 -39 37 -35 64 -22 135 64 33 41 68 75 76 75 50 0 140 141 164 257 8 35
18 60 22 57 5 -3 9 -46 9 -95 0 -50 4 -98 10 -108 13 -25 52 -38 132 -45 60
-6 68 -4 78 13 27 52 11 94 -88 231 -12 16 -2 30 87 128 55 60 107 124 115
140 36 69 10 112 -67 112 -54 0 -63 10 -46 53 21 54 136 222 177 259 33 30 49
36 103 42 79 9 111 -2 132 -45 14 -30 14 -36 0 -69 -52 -117 -63 -149 -63
-188 0 -32 6 -49 25 -67 32 -33 40 -32 86 10 26 23 49 35 68 35 30 0 61 22 61
43 0 7 -5 50 -10 95 -15 115 -43 184 -102 249 l-49 54 60 65 c34 36 70 82 81
104 50 97 81 285 77 470 -2 96 0 110 25 160 15 30 43 70 62 89 l35 34 6 -29
c4 -16 15 -49 25 -74 44 -111 54 -264 20 -315 -26 -39 -26 -100 0 -165 36 -92
25 -136 -62 -236 -67 -78 -108 -143 -108 -170 0 -79 42 -73 122 18 94 108 128
141 135 134 4 -3 14 -52 24 -109 20 -115 38 -140 93 -135 28 3 31 6 34 43 6
92 15 100 76 64 63 -37 99 -12 82 57 -9 36 -74 93 -115 100 -64 12 -65 16 -23
70 35 43 136 138 169 157 20 12 43 -4 76 -52 28 -41 31 -53 30 -109 -3 -93
-21 -168 -50 -203 -14 -16 -52 -48 -84 -70 -56 -37 -59 -42 -59 -80 0 -31 -9
-53 -39 -95 -46 -64 -65 -134 -59 -211 5 -59 19 -76 56 -68 44 11 99 -33 150
-118 26 -44 71 -106 101 -139 61 -67 89 -73 124 -26 19 26 20 30 5 60 -8 18
-47 70 -86 115 l-70 82 5 178 c6 199 5 196 88 314 49 70 50 72 50 146 l0 75
40 14 c45 15 65 37 65 71 0 17 -7 24 -27 29 -53 11 -63 15 -63 24 0 5 12 7 28
4 19 -4 38 2 64 20 l38 25 16 -30 c8 -17 19 -69 24 -115 10 -93 30 -133 81
-159 26 -14 32 -14 59 0 57 30 59 52 12 188 -22 67 -40 121 -39 122 1 0 24 12
51 26 64 33 128 120 130 175 2 55 -26 57 -70 6 -38 -45 -123 -92 -166 -92 -36
0 -73 35 -62 58 26 55 -27 216 -96 295 l-39 44 117 0 c119 -1 162 9 162 38 0
39 -99 75 -207 75 l-55 0 -102 97 c-56 54 -138 130 -182 169 -43 40 -76 75
-72 79 11 11 63 -30 188 -149 119 -112 148 -133 174 -123 22 9 20 40 -5 88
-11 23 -19 43 -17 45 2 2 44 -24 92 -57 114 -80 185 -92 186 -31 0 7 -19 33
-41 57 -23 25 -38 45 -33 45 5 0 74 -14 153 -30 216 -44 226 -55 226 -233 0
-136 5 -145 69 -133 64 12 75 32 69 125 -3 45 -3 81 0 81 3 0 41 -15 84 -34
115 -49 137 -52 163 -24 21 23 23 59 5 101 -5 13 -2 17 12 17 36 0 89 76 78
110 -8 26 -47 26 -102 -1 -28 -13 -72 -23 -123 -26 -77 -6 -80 -5 -80 16 0 12
14 49 31 82 17 35 29 72 27 87 -3 24 -8 27 -45 30 -57 4 -99 -33 -116 -103
-15 -64 -37 -68 -99 -20 -56 42 -87 55 -136 55 -20 0 -65 13 -100 30 -67 32
-144 43 -392 56 l-125 6 -194 127 -194 126 49 6 c66 9 103 28 110 56 11 42 -9
50 -129 57 -167 10 -216 22 -228 54 -14 36 -3 72 21 72 19 0 24 11 32 65 5 29
100 64 195 71 84 7 113 17 113 39 0 21 -87 92 -137 111 -44 17 -46 17 -96 -6
-81 -35 -102 -36 -142 -6 -19 15 -35 33 -35 41 0 25 48 47 121 55 70 8 109 28
109 57 0 8 -11 31 -25 51 -31 46 -31 52 -1 52 34 0 82 -44 111 -99 13 -25 58
-86 100 -136 151 -177 206 -251 215 -286 14 -51 74 -115 195 -208 57 -44 106
-90 110 -101 3 -11 1 -36 -6 -55 -12 -32 -11 -37 10 -59 45 -48 104 -41 153
17 26 31 27 32 72 19 26 -6 58 -12 71 -12 38 0 140 55 164 89 29 40 60 45 123
21 94 -35 139 -21 167 53 25 65 4 157 -36 157 -8 0 -40 -14 -69 -31 -30 -17
-58 -28 -64 -24 -16 10 -12 81 5 95 23 19 15 54 -14 58 -41 6 -118 -89 -135
-168 -7 -35 -69 -105 -105 -120 -69 -28 -211 51 -211 118 0 16 18 55 40 89 21
33 42 73 46 87 3 15 19 33 35 42 47 24 48 70 2 133 l-18 24 87 -7 c104 -8 128
0 128 45 0 22 -9 40 -30 59 -17 16 -27 30 -23 33 5 2 37 8 73 11 86 10 100 19
100 62 0 44 -26 56 -130 58 -61 0 -83 -4 -118 -22 l-44 -23 6 28 c16 82 45
278 51 350 8 105 -9 224 -47 330 -17 46 -28 86 -25 89 16 17 54 -17 101 -90
59 -92 98 -126 154 -133 47 -6 64 11 87 92 20 69 47 126 69 144 27 23 20 -28
-15 -104 -37 -82 -35 -98 22 -191 23 -38 57 -101 76 -142 45 -94 91 -142 138
-142 19 0 50 -9 69 -21 23 -13 62 -23 118 -27 l83 -8 -32 -17 c-18 -9 -56 -23
-85 -31 -38 -9 -54 -18 -56 -32 -1 -11 -16 -27 -32 -36 -56 -32 -33 -100 38
-114 24 -5 33 -2 38 10 3 8 30 29 58 46 29 16 94 68 145 114 182 168 194 161
53 -33 -93 -129 -101 -137 -180 -184 -112 -66 -175 -126 -170 -164 3 -25 7
-28 44 -31 33 -2 49 3 90 32 105 75 129 86 228 101 102 15 171 44 229 95 19
16 37 30 40 30 3 0 8 -14 12 -30 4 -17 22 -66 41 -109 47 -110 46 -128 -17
-180 -43 -37 -50 -47 -47 -75 2 -26 8 -32 31 -34 26 -3 28 -6 21 -30 -8 -25
-9 -62 -5 -152 1 -19 0 -46 -1 -59 -2 -16 6 -30 24 -44 26 -19 28 -19 78 -3
29 9 54 16 55 14 2 -2 -12 -25 -32 -52 l-35 -49 -152 7 c-83 4 -164 3 -181 -2
-43 -12 -43 -40 0 -82 40 -38 43 -55 16 -69 -22 -12 -43 -65 -35 -86 10 -25
51 -17 139 25 46 22 86 40 88 40 2 0 -4 -34 -14 -77 -10 -42 -16 -80 -13 -85
3 -4 17 -8 31 -8 34 0 77 48 93 106 14 50 146 255 204 316 40 43 62 50 52 16
-4 -13 -13 -72 -21 -133 -12 -91 -19 -113 -36 -125 -12 -8 -41 -33 -64 -55
-23 -22 -56 -52 -73 -67 -33 -27 -39 -49 -22 -92 17 -46 81 -27 156 46 l42 40
7 -51 c6 -42 11 -52 30 -57 31 -8 64 11 76 43 5 14 8 105 7 202 -3 235 -3 235
157 292 47 17 57 47 25 79 -19 19 -28 20 -93 14 -69 -6 -74 -5 -105 21 -55 46
-64 75 -53 158 19 140 24 371 11 548 -9 130 -9 181 -1 203 11 28 12 28 32 10
12 -11 29 -35 39 -54 10 -19 53 -73 95 -120 148 -163 151 -169 251 -453 42
-121 30 -214 -40 -307 -15 -19 -29 -52 -33 -72 -4 -28 -11 -39 -27 -42 -11 -2
-52 -9 -90 -16 -85 -14 -126 -34 -126 -61 0 -11 19 -51 42 -89 53 -90 72 -91
167 -8 24 21 48 38 52 38 24 0 3 -38 -48 -91 -63 -63 -70 -80 -72 -150 -1 -37
-8 -53 -38 -88 -64 -75 -130 -121 -173 -121 -21 0 -91 -14 -155 -30 -64 -17
-223 -45 -353 -64 -237 -34 -237 -34 -274 -15 -46 23 -84 24 -202 3 -155 -28
-175 -51 -114 -133 24 -33 28 -45 18 -51 -7 -4 -56 -13 -109 -20 -53 -7 -111
-18 -128 -25 -30 -13 -33 -18 -33 -55 0 -35 4 -42 27 -51 32 -12 211 4 244 21
10 6 28 28 39 49 12 25 30 43 49 49 16 6 46 26 68 45 50 45 79 60 103 52 18
-6 19 -12 14 -60 -5 -43 -4 -56 8 -60 8 -3 75 24 150 60 74 36 152 68 172 72
32 5 36 3 36 -16 0 -13 -13 -35 -28 -49 -28 -27 -156 -134 -201 -170 -23 -18
-23 -20 -10 -70 l13 -52 -44 -83 c-121 -230 -234 -393 -303 -436 -45 -28 -50
-27 -95 13 -34 31 -76 50 -202 92 -25 8 -73 16 -108 17 -61 2 -64 1 -92 -33
-16 -19 -33 -44 -36 -55 -4 -11 -22 -37 -40 -58 -41 -45 -44 -84 -11 -115 29
-27 54 -28 82 -2 19 18 23 18 64 4 39 -13 49 -13 96 1 67 19 135 19 161 1 19
-15 18 -16 -9 -66 -18 -32 -34 -82 -42 -135 -8 -46 -21 -97 -29 -114 -9 -16
-16 -37 -16 -45 0 -23 29 -46 60 -46 37 0 96 65 106 117 12 69 56 133 90 133
15 0 16 -11 10 -96 l-6 -95 29 -30 c57 -56 99 -26 125 91 23 98 21 133 -9 168
-51 61 -58 126 -21 200 24 47 111 152 125 152 5 0 30 -33 56 -74 31 -49 76
-100 132 -148 110 -95 171 -128 238 -128 76 0 101 36 75 105 -10 26 -13 27
-56 20 -37 -5 -52 -2 -87 19 -58 33 -194 178 -217 229 -21 45 -11 60 20 32 17
-15 20 -15 43 -1 41 27 49 62 56 231 4 90 12 169 18 181 22 39 183 180 183
160 0 -2 -11 -28 -25 -58 -14 -29 -25 -60 -25 -68 0 -8 22 -36 50 -61 46 -42
50 -50 50 -91 0 -25 -7 -62 -15 -81 -14 -34 -14 -37 8 -63 32 -36 68 -27 103
26 39 59 42 113 9 191 -49 116 -50 127 -27 205 24 79 74 164 97 164 12 0 15
-13 15 -58 0 -45 5 -65 25 -95 52 -76 129 -309 142 -429 l6 -56 -50 -26 c-73
-36 -78 -83 -15 -115 104 -53 105 -138 1 -191 -42 -22 -77 -25 -128 -10 -54
15 -71 0 -71 -64 0 -35 5 -58 15 -66 25 -21 97 -24 139 -6 22 9 42 13 45 10 9
-10 -34 -36 -123 -74 -79 -34 -81 -36 -84 -73 -3 -40 -4 -39 66 -57 35 -9 42
-15 42 -36 0 -32 -67 -100 -142 -142 -73 -42 -104 -79 -118 -144 -14 -61 -10
-130 7 -135 18 -6 82 67 93 108 7 26 21 44 45 59 19 12 43 32 54 46 10 13 36
29 57 36 47 16 77 64 94 151 15 76 52 151 85 173 16 11 40 15 70 12 l46 -3 -5
35 c-28 185 -38 559 -16 624 6 20 26 47 43 60 l31 25 -29 23 c-17 12 -50 42
-75 65 -57 54 -45 65 57 56 61 -5 74 -3 79 10 13 36 -66 117 -115 117 -43 0
-77 28 -110 89 -30 57 -42 115 -28 138 4 6 51 40 104 76 150 101 152 103 167
177 l13 65 51 -105 c88 -183 127 -219 239 -221 76 -1 86 -5 124 -59 87 -124
156 -169 235 -152 32 7 39 12 39 32 0 29 -55 70 -94 70 -39 0 -53 13 -54 51
l-2 34 72 5 c79 5 89 11 102 58 12 41 -2 52 -65 51 -27 -1 -118 3 -202 9 -135
9 -157 13 -196 36 -52 30 -97 97 -122 181 -20 67 -25 266 -9 390 l8 70 9 -55
c24 -162 18 -155 185 -213 161 -56 172 -64 256 -179 181 -247 248 -297 312
-233 29 28 34 85 9 109 -8 9 -41 28 -72 43 -57 27 -160 118 -147 131 4 4 23
12 43 17 26 8 39 18 46 38 16 43 -17 69 -91 73 -40 2 -79 12 -126 34 -60 29
-92 37 -147 39 -23 1 -127 72 -146 100 -22 31 -65 213 -54 225 6 6 12 3 16 -7
7 -20 141 -130 185 -152 52 -27 87 12 59 66 -6 11 -29 31 -50 44 -22 14 -46
40 -53 58 -8 18 -39 52 -71 76 -62 48 -106 112 -106 154 0 15 -11 56 -25 93
-14 36 -25 73 -25 81 0 28 189 -146 225 -208 19 -32 24 -34 90 -40 77 -6 111
-19 120 -48 3 -10 5 -66 4 -123 -1 -58 1 -110 5 -117 24 -38 99 18 136 101 17
38 17 38 35 18 24 -26 76 -26 100 0 29 32 74 26 138 -21 105 -74 134 -83 302
-87 173 -5 213 5 240 58 25 48 31 132 12 149 -14 11 -24 6 -69 -37 -80 -75
-107 -86 -202 -79 -49 3 -107 15 -147 29 -68 25 -196 109 -206 134 -3 8 5 34
18 58 20 38 21 48 11 70 -10 22 -18 26 -52 26 -22 0 -40 5 -40 10 0 31 87 87
258 166 101 46 189 84 196 84 7 0 43 -18 80 -41 101 -61 127 -70 157 -56 29
15 38 56 14 73 -15 11 -10 20 42 83 94 111 104 185 35 248 l-36 33 23 55 c35
85 28 175 -15 175 -21 0 -59 -60 -89 -140 -37 -100 -100 -222 -129 -249 -14
-13 -56 -30 -99 -41 -41 -10 -104 -32 -140 -48 l-65 -30 -7 49 c-9 62 -41 91
-137 120 -64 20 -79 30 -170 116 -55 52 -125 111 -155 130 l-55 35 35 24 c42
28 51 51 37 88 -22 58 -9 60 62 11 52 -36 97 -43 105 -18 7 19 -80 105 -204
204 -125 100 -146 132 -179 266 -29 114 -42 109 295 105 272 -4 280 -3 300 17
57 57 -12 141 -103 126 -67 -11 -944 -15 -1034 -5 -68 8 -103 19 -188 59
l-103 49 -30 62 c-41 84 -44 87 -136 130 -89 41 -230 138 -289 199 l-38 39 72
51 c54 37 76 48 86 40 16 -13 61 -125 75 -186 12 -56 33 -83 64 -83 36 0 47
23 44 92 l-4 63 36 -1 c50 -1 135 -43 198 -97 30 -26 61 -47 68 -47 8 0 32 17
55 38 l41 39 126 -59 c125 -59 127 -60 237 -175 117 -122 146 -137 152 -80 5
39 -33 116 -128 256 l-82 123 79 -4 c69 -3 85 -8 138 -40 49 -30 72 -37 130
-41 39 -3 90 -13 113 -22 40 -17 44 -17 62 0 70 63 -3 122 -177 144 -56 7 -85
17 -132 46 l-61 38 -106 -7 -107 -7 -43 45 c-65 68 -79 93 -64 111 14 17 72
20 99 5 10 -5 52 -13 94 -19 55 -6 91 -17 124 -38 75 -44 80 -45 223 -45 74 1
155 -2 179 -6 44 -7 46 -9 86 -84 23 -43 44 -80 47 -84 4 -3 21 0 40 6 30 11
39 9 92 -19 32 -17 67 -31 78 -31 19 0 19 -5 12 -180 -7 -198 -1 -235 43 -246
31 -8 69 9 78 35 3 11 -1 44 -9 72 -35 117 -4 227 40 144 15 -29 111 -75 156
-75 75 0 64 30 -68 176 -45 50 -94 111 -109 135 -34 54 -41 59 -85 59 -19 0
-50 9 -69 21 -29 18 -32 24 -27 52 19 102 19 106 1 113 -11 5 -36 -3 -67 -20
-54 -31 -112 -36 -135 -13 -13 12 -12 16 2 30 34 34 89 39 291 26 l192 -12 21
-57 c15 -40 39 -76 85 -124 111 -116 186 -253 186 -341 0 -69 37 -108 79 -86
33 18 39 13 47 -34 3 -25 11 -48 16 -51 6 -4 43 -12 82 -19 40 -7 97 -24 128
-39 58 -28 98 -31 221 -19 l67 6 0 48 c0 57 2 56 -126 62 -70 3 -89 8 -130 34
-27 17 -66 36 -86 42 -20 7 -44 24 -54 39 -10 15 -48 59 -86 99 l-68 72 0 66
0 66 28 -19 c15 -11 44 -38 65 -60 33 -34 40 -48 47 -103 4 -35 11 -72 15 -82
10 -23 43 -30 107 -23 29 4 95 9 145 12 l93 6 -14 -34 c-7 -18 -11 -40 -9 -48
14 -42 75 -54 94 -19 20 39 15 134 -11 190 l-24 50 42 41 c65 63 55 82 -47 91
-54 5 -73 12 -120 44 -30 22 -59 46 -64 55 -15 23 0 64 38 107 40 44 46 88 16
115 -22 20 -60 18 -72 -4 -5 -8 -19 -42 -31 -75 -28 -73 -69 -105 -135 -105
-43 0 -83 13 -83 28 0 4 25 40 55 80 63 84 70 118 30 158 -41 41 -73 30 -96
-32 -11 -29 -38 -73 -61 -99 l-42 -47 -54 5 c-39 4 -85 21 -156 58 -100 51
-102 52 -219 58 -66 4 -122 12 -129 19 -8 8 -2 19 25 43 42 37 46 60 21 132
-9 26 -17 47 -17 47 -1 0 -27 9 -57 19 l-55 18 43 27 c48 30 168 87 248 117
28 11 62 29 75 40 22 19 32 21 117 15 115 -8 231 -30 273 -51 17 -9 92 -32
166 -51 74 -18 147 -42 162 -53 16 -11 45 -52 65 -91 35 -66 58 -91 73 -77 13
14 3 150 -14 178 -37 63 -168 133 -278 148 -39 6 -97 21 -130 35 -78 31 -191
52 -332 61 -62 4 -113 10 -113 14 0 3 16 16 35 28 27 18 38 35 54 87 31 99 44
212 28 245 -12 27 -52 40 -68 24 -5 -5 -16 -53 -24 -107 -8 -55 -25 -118 -38
-144 -22 -45 -34 -54 -116 -92 -8 -3 -23 -32 -33 -62 -20 -58 -68 -123 -75
-101 -3 7 7 29 21 50 32 47 33 90 6 239 -28 159 -72 276 -119 318 -25 23 -79
26 -92 5 -16 -23 -2 -78 34 -138 43 -73 55 -107 72 -216 24 -145 21 -164 -28
-231 -73 -99 -356 -349 -374 -330 -4 3 -2 33 4 65 12 62 6 107 -22 173 -23 57
-19 96 14 133 30 35 56 121 44 151 -3 9 -25 24 -49 35 -24 10 -44 22 -44 27 0
5 11 22 25 38 25 29 33 78 15 89 -17 11 -11 31 15 45 27 14 58 71 50 92 -3 7
-15 18 -28 23 -18 8 -23 21 -28 70 -8 73 -15 93 -39 100 -40 13 -50 -3 -50
-84 l-1 -76 -30 60 c-54 108 -101 132 -129 66 -10 -25 -8 -35 18 -82 17 -30
33 -73 37 -96 4 -23 16 -54 26 -68 13 -16 19 -36 17 -57 -2 -28 -7 -33 -28
-33 -20 0 -28 9 -43 50 -11 28 -22 57 -26 65 -10 21 -93 61 -141 67 -49 7 -70
-8 -70 -50 0 -24 11 -41 51 -78 55 -50 59 -74 17 -83 -13 -3 -58 -12 -101 -20
-103 -20 -126 -40 -105 -95 8 -24 9 -24 146 -19 75 3 158 11 185 18 45 12 49
11 86 -15 22 -14 47 -35 57 -46 17 -19 17 -22 -9 -73 -33 -66 -33 -78 -1 -165
32 -86 28 -117 -24 -186 -88 -117 -199 -162 -414 -168 l-137 -4 -6 26 c-4 14
-22 50 -40 81 -56 90 -55 101 4 161 41 41 51 58 51 85 0 48 -31 76 -78 72 -35
-3 -38 -5 -57 -62 -21 -63 -27 -68 -91 -85 -100 -26 -181 -175 -124 -226 20
-18 23 -18 68 -2 26 9 57 17 69 17 28 0 63 -45 63 -82 0 -50 -38 -58 -271 -58
l-202 0 -110 72 c-128 83 -227 124 -337 140 l-79 12 6 60 c3 34 15 99 25 146
32 143 33 164 7 189 -20 19 -21 22 -7 38 27 31 55 95 78 178 36 132 92 205
158 205 30 0 122 87 153 145 21 39 22 46 9 69 -7 14 -34 39 -59 56 l-46 30
-42 -47 c-24 -27 -54 -61 -68 -76 -30 -34 -40 -30 -50 20 -21 115 -92 223
-145 223 -72 0 -79 -72 -20 -185 33 -63 40 -86 40 -132 0 -43 -5 -62 -20 -78
-11 -12 -25 -48 -31 -81 -12 -65 -66 -203 -107 -274 -14 -25 -54 -80 -88 -122
-75 -92 -75 -93 -114 -201 -36 -97 -99 -183 -110 -151 -11 30 -22 163 -15 184
4 12 21 24 45 30 69 19 107 62 124 142 4 18 26 42 61 69 45 34 62 56 91 117
20 41 44 87 55 101 21 29 35 125 25 166 -6 24 -10 26 -54 23 -41 -3 -47 -6
-44 -24 1 -12 -4 -27 -13 -34 -22 -18 -37 -1 -65 75 -25 70 -45 95 -75 95 -27
0 -65 -35 -65 -60 0 -11 18 -68 41 -127 30 -79 42 -124 43 -168 1 -56 -1 -60
-23 -63 -22 -4 -23 -1 -18 32 7 43 -13 72 -81 118 -26 17 -57 40 -69 51 l-22
20 24 42 c27 45 31 75 15 106 -20 36 -49 22 -129 -61 -85 -89 -114 -99 -165
-59 -53 41 -19 116 78 173 90 53 166 166 166 247 0 75 -18 118 -69 168 -50 49
-222 171 -240 171 -6 0 -13 -12 -17 -27 -9 -45 -23 -74 -55 -114 -34 -44 -35
-57 -9 -126 20 -52 20 -52 -1 -118 -11 -36 -28 -74 -39 -85 -24 -24 -199 -64
-247 -57 -20 4 -43 13 -52 22 -13 13 -13 18 7 42 39 49 74 113 115 207 35 83
38 96 33 148 -6 53 -5 62 22 100 16 24 46 77 66 118 19 41 54 94 76 118 l41
42 178 0 c205 0 205 0 266 -95 19 -30 46 -62 60 -71 43 -28 58 -68 51 -138 -7
-79 9 -127 48 -141 25 -8 31 -6 52 18 18 21 24 40 24 73 0 37 4 46 23 53 39
15 247 21 417 12 195 -10 222 -19 313 -114 101 -104 113 -147 77 -272 -25 -87
-25 -88 3 -121 28 -32 63 -26 73 11 3 13 12 29 19 35 19 16 45 -25 45 -70 0
-58 18 -74 73 -67 64 9 117 33 117 52 0 20 -62 113 -124 185 -25 29 -51 69
-57 89 -6 20 -22 47 -34 61 -13 14 -26 44 -30 68 -10 60 -55 115 -160 195
-104 79 -113 91 -91 116 23 25 21 78 -3 91 -35 18 -101 -24 -101 -66 0 -12 -6
-26 -12 -32 -29 -23 -346 -59 -434 -48 -73 8 -81 13 -88 52 -8 38 -30 54 -75
54 -33 0 -42 8 -94 80 -18 25 -53 58 -77 75 l-45 30 32 3 c36 4 96 63 91 90
-8 44 -122 31 -285 -34 -171 -68 -253 -69 -253 -4 0 19 44 60 65 60 6 0 43 27
81 60 74 65 230 150 348 191 78 27 101 52 91 99 -10 45 -44 49 -103 11 -27
-17 -64 -34 -83 -37 -19 -4 -45 -13 -57 -21 -34 -21 -38 -10 -12 34 35 59 90
112 143 139 45 23 54 24 170 18 142 -7 172 -15 186 -54 17 -51 111 -80 119
-37 2 10 -4 27 -13 38 -17 17 -17 19 -1 25 22 9 47 -15 113 -108 30 -43 76
-102 104 -132 39 -43 49 -61 49 -89 0 -56 -8 -67 -47 -67 -51 0 -110 -20 -138
-46 -54 -50 -14 -110 56 -85 17 6 38 11 45 11 19 0 18 -29 -1 -36 -20 -8 -20
-63 1 -71 25 -9 91 27 156 87 l61 56 -16 49 c-21 61 -21 93 -1 134 18 36 13
92 -15 156 -21 48 -35 60 -81 73 -19 5 -70 34 -112 65 -93 66 -138 84 -238 92
-102 8 -180 31 -180 52 0 9 12 29 26 44 15 16 32 49 39 76 18 70 32 74 105 29
34 -21 64 -35 67 -32 9 9 -19 68 -50 103 -57 65 -79 72 -203 65 -92 -6 -116
-11 -134 -27 -11 -11 -58 -38 -103 -60 l-82 -40 -46 -133 c-49 -141 -88 -232
-99 -232 -4 0 -5 20 -3 44 9 75 -4 114 -56 170 -93 100 -96 116 -56 261 37
135 30 191 -25 183 -65 -9 -142 -319 -99 -399 7 -13 29 -47 50 -75 65 -85 85
-171 54 -230 -8 -16 -15 -51 -15 -79 -1 -68 -29 -144 -62 -169 -15 -11 -31
-16 -35 -12 -4 3 -10 36 -14 71 -5 47 -13 72 -32 94 -36 44 -40 84 -27 323 12
227 31 391 55 475 16 55 43 79 115 102 19 6 58 29 87 50 l51 39 93 -29 c51
-16 110 -29 131 -29 32 0 39 4 44 25 8 32 -8 51 -54 66 -20 6 -56 22 -79 35
-23 13 -57 24 -75 24 -40 -1 -103 -22 -127 -44 -25 -23 -78 -31 -97 -15 -20
17 -50 75 -59 117 -6 29 -3 36 25 60 107 91 103 87 96 116 -9 37 -46 53 -85
36 -44 -18 -57 -8 -75 54 -18 60 -39 79 -84 74 -23 -3 -28 -8 -32 -43 l-5 -40
-16 25 c-9 14 -27 45 -41 70 -38 67 -80 97 -109 80 -14 -9 -13 -13 16 -82 10
-25 -14 -23 -64 3 -81 42 -110 -3 -41 -65 44 -40 63 -50 125 -66 22 -5 56 -20
75 -32 l35 -22 -89 -12 c-80 -11 -105 -22 -106 -46 0 -20 38 -37 114 -51 162
-30 190 -57 191 -184 0 -62 -3 -76 -22 -95 -30 -29 -38 -24 -198 118 -151 134
-340 279 -405 311 -172 84 -169 83 -342 93 -242 15 -292 23 -333 54 -19 15
-37 39 -40 54 -20 91 -29 122 -56 176 -47 95 -77 118 -99 77 -15 -30 -12 -59
15 -141 13 -41 27 -86 29 -100 3 -14 23 -47 46 -74 73 -88 44 -107 -111 -71
-57 13 -114 22 -126 19 -31 -8 -30 -44 3 -83 20 -24 34 -31 60 -31 19 0 52 -9
74 -20 50 -26 68 -25 170 4 105 31 170 38 237 29 l53 -8 -54 -80 c-67 -99 -75
-126 -47 -154 34 -34 59 -26 132 44 74 72 103 85 70 31 -12 -18 -21 -46 -21
-62 0 -61 52 -95 89 -59 9 9 35 29 59 46 29 20 51 47 66 79 29 62 44 80 66 80
23 0 141 -61 187 -96 l34 -25 -31 -29 c-33 -31 -36 -39 -17 -63 8 -12 33 -19
79 -24 65 -6 70 -8 102 -48 23 -27 51 -48 83 -60 86 -32 110 -51 122 -100 15
-62 14 -190 -5 -401 -15 -166 -16 -188 -1 -267 9 -48 14 -94 11 -102 -4 -11
-21 -15 -59 -15 -47 0 -56 -3 -80 -32 -23 -27 -26 -39 -22 -77 2 -25 17 -75
33 -111 27 -64 28 -70 32 -283 4 -200 3 -222 -16 -275 -11 -31 -23 -86 -26
-120 -7 -71 -37 -149 -61 -158 -20 -8 -52 21 -78 71 -22 44 -87 267 -87 301 0
37 -59 72 -100 59 -11 -4 -23 -20 -28 -37 -8 -33 -21 -43 -64 -52 -27 -6 -32
-14 -43 -79 l-6 -38 -42 31 c-46 33 -63 36 -91 15 -11 -8 -28 -15 -38 -15 -33
0 -20 44 32 105 55 65 83 135 84 207 0 54 -16 78 -51 78 -22 0 -24 2 -12 16
24 29 71 46 149 53 64 7 86 14 122 40 24 17 79 47 123 66 104 45 117 57 113
103 -3 33 -6 37 -34 40 -21 2 -84 -18 -184 -59 -172 -69 -217 -79 -251 -55
-13 9 -31 16 -39 16 -29 0 -42 22 -24 41 13 14 15 41 12 152 -3 123 -5 138
-26 167 -15 19 -24 48 -26 79 -2 26 -11 62 -20 79 -14 28 -22 32 -57 32 -26 0
-42 -5 -46 -15 -3 -9 2 -70 12 -137 11 -79 15 -143 10 -184 -6 -55 -3 -69 15
-103 22 -38 22 -40 5 -91 -9 -28 -15 -62 -12 -76 2 -13 -2 -29 -9 -35 -8 -6
-14 -26 -15 -43 0 -31 0 -31 -11 -6 -5 14 -10 66 -10 115 0 50 -5 98 -10 108
-16 30 -75 48 -174 54 -87 6 -96 4 -145 -22 -63 -33 -87 -30 -164 21 -49 33
-61 36 -115 35 -52 -1 -64 2 -85 23 -28 28 -29 39 -13 133 8 49 8 104 1 197
-9 123 -11 130 -37 153 -15 12 -35 23 -45 23 -10 0 -24 7 -31 15 -17 20 -53
19 -80 -3 -34 -28 -31 -88 8 -147 17 -26 34 -67 38 -92 11 -72 -20 -243 -43
-243 -31 0 -81 53 -146 152 -75 113 -192 239 -237 253 -46 15 -65 -46 -36
-116 15 -35 14 -41 -25 -136 -12 -30 -11 -34 11 -58 36 -38 156 -110 217 -130
71 -22 113 -63 113 -108 0 -39 -11 -52 -58 -62 -44 -9 -62 -30 -62 -70 0 -46
20 -62 87 -70 32 -3 65 -7 73 -8 12 -2 65 -93 130 -225 14 -27 34 -49 57 -61
l36 -18 -46 -18 -46 -17 -56 27 c-46 23 -64 27 -102 21 -84 -11 -112 -45 -77
-94 17 -24 44 -28 76 -11 17 9 25 6 49 -17 16 -15 29 -30 29 -34 0 -9 -144 6
-184 20 -43 14 -87 63 -121 133 -27 58 -54 77 -110 77 -24 0 -39 -7 -49 -22
-14 -20 -14 -25 5 -56 11 -19 17 -37 14 -40 -2 -3 -22 0 -44 6 -86 26 -176 6
-233 -53 -32 -31 -34 -43 -14 -70 13 -18 11 -21 -15 -37 -23 -14 -29 -25 -29
-50 0 -47 12 -60 62 -65 60 -7 117 19 197 90 79 71 113 79 173 44 76 -45 168
-157 168 -204 0 -23 -3 -25 -37 -19 -21 3 -85 9 -143 12 -95 6 -109 5 -145
-15 -22 -11 -53 -21 -70 -21 -49 0 -139 -27 -285 -85 -147 -58 -265 -92 -360
-102 -72 -7 -76 3 -25 54 28 28 40 34 58 28 12 -5 52 -10 88 -12 77 -5 92 6
87 63 -3 39 -8 42 -80 58 -16 4 -28 13 -28 20 0 19 71 46 119 46 22 0 46 3 55
6 22 8 20 52 -3 78 -11 11 -35 39 -54 61 -43 48 -47 47 -165 -54 -46 -39 -89
-72 -95 -72 -7 -1 -43 -3 -82 -4 -50 -2 -98 -14 -168 -39 -111 -41 -143 -45
-132 -18 20 45 18 75 -6 93 l-23 17 37 48 c74 95 57 144 -52 144 -47 0 -67
-16 -78 -59 -12 -47 -36 -61 -62 -37 -40 37 -19 82 56 120 18 9 57 36 88 61
30 25 59 45 63 45 5 0 38 15 73 34 35 19 88 41 118 50 30 9 63 23 73 33 20 18
24 63 6 81 -27 27 -150 3 -270 -53 -76 -36 -78 -35 -78 38 0 76 13 124 45 168
49 68 64 109 84 220 23 134 31 157 75 218 48 66 82 138 117 247 34 105 63 147
118 170 38 17 130 22 171 10 20 -6 34 -1 64 23 21 17 50 31 63 31 13 0 39 6
58 14 52 22 77 80 83 192 7 144 -18 163 -132 99 -97 -54 -125 -45 -61 19 41
41 42 45 15 79 -11 14 -20 32 -20 40 0 9 23 42 51 74 28 32 62 79 75 104 28
56 80 102 133 118 21 6 62 33 92 61 30 27 63 50 74 50 12 0 61 -9 111 -20 131
-29 194 -26 194 9 0 21 -53 73 -97 95 -18 9 -33 20 -33 25 0 10 47 33 105 51
56 18 115 49 115 60 0 18 48 22 107 10 90 -19 168 -66 267 -162 49 -49 95 -88
103 -88 22 0 63 47 63 73 0 15 -8 28 -22 34 -13 6 -73 58 -134 116 -128 120
-138 127 -193 127 -77 0 -86 16 -51 91 21 47 27 143 10 154 -5 3 -10 32 -10
63 0 47 -6 67 -35 115 -19 32 -35 62 -35 66 0 20 -43 61 -64 61 -49 0 -60 -53
-27 -119 25 -47 59 -181 67 -260 6 -53 4 -65 -20 -106 -41 -70 -129 -127 -301
-195 -123 -49 -185 -85 -268 -154 -43 -36 -86 -66 -96 -66 -10 0 -28 11 -40
24 -19 20 -22 32 -17 58 21 110 20 118 -33 258 -95 250 -80 225 -133 228 -43
3 -48 1 -54 -22 -7 -31 5 -70 69 -211 l49 -110 -6 -115 c-9 -161 -24 -268 -45
-315 -21 -48 -86 -108 -109 -101 -9 3 -37 10 -62 16 -86 23 -85 17 -23 138 47
92 56 116 57 167 l1 58 -35 9 c-19 5 -45 20 -58 34 -13 13 -25 24 -27 24 -3 0
-23 -16 -45 -36 l-39 -36 -71 18 c-55 13 -95 16 -180 11 l-110 -6 0 49 c0 34
9 64 30 105 37 70 38 99 5 121 -31 20 -58 11 -90 -30 -40 -52 -57 -114 -64
-230 l-6 -110 -45 -26 c-43 -25 -45 -28 -50 -81 -5 -53 -6 -54 -35 -52 -73 5
-91 14 -162 82 -45 43 -98 82 -139 102 -65 32 -67 32 -126 20 -73 -15 -151
-48 -213 -91 -26 -18 -49 -30 -52 -27 -3 3 22 43 55 89 33 46 74 112 92 147
17 35 62 96 98 136 37 39 93 99 124 133 68 73 71 74 213 32 129 -38 162 -39
176 -3 16 43 2 83 -37 99 -18 8 -46 14 -61 15 -15 0 -50 8 -78 18 l-50 18 55
20 c30 11 87 24 125 28 82 8 118 22 247 99 132 77 175 77 282 -4 29 -22 58
-40 64 -40 24 0 54 54 50 92 -3 30 0 37 12 33 90 -26 141 -17 224 40 l63 43
129 -55 c90 -38 147 -56 189 -60 69 -6 115 8 115 34 -1 41 -81 103 -135 103
-16 0 -50 9 -74 20 -26 12 -65 20 -99 20 -61 0 -115 21 -172 69 l-35 30 33 33
c33 35 41 72 22 109 -19 35 -50 22 -119 -51 -79 -82 -156 -122 -279 -143 -66
-11 -93 -22 -154 -61 -40 -26 -116 -75 -168 -109 -129 -83 -277 -122 -310 -82
-11 13 -1 27 63 90 41 40 114 99 161 130 67 45 96 72 137 128 28 40 58 78 67
84 11 9 49 12 116 11 74 -1 111 3 138 14 45 20 65 52 46 75 -10 13 -31 15
-120 11 -59 -2 -108 -1 -108 3 0 11 109 326 142 409 16 41 45 104 63 140 19
36 37 82 40 103 5 32 12 40 55 62 27 14 54 34 60 44 41 78 -41 100 -127 35
-19 -14 -37 -23 -41 -19 -4 4 -7 52 -7 108 0 91 3 108 26 152 15 28 43 81 63
120 28 53 36 79 34 110 -6 78 -73 47 -104 -49 -9 -28 -39 -90 -66 -137 -27
-47 -51 -102 -55 -122 -8 -49 -24 -61 -74 -54 -53 7 -69 0 -69 -28 0 -37 31
-63 90 -77 55 -13 55 -13 73 -68 10 -30 21 -76 24 -102 5 -44 2 -53 -40 -117
-53 -78 -81 -138 -91 -196 -8 -42 -30 -90 -46 -100 -5 -3 -26 10 -47 28 -46
41 -75 57 -103 57 -11 0 -23 6 -26 14 -8 20 24 84 47 97 11 5 26 21 35 34 15
22 15 27 2 48 -9 12 -27 28 -41 36 -23 12 -28 11 -61 -14 -44 -34 -72 -91 -87
-180 -9 -59 -52 -192 -78 -245 -4 -8 -30 -29 -57 -47 -27 -17 -76 -51 -109
-76 -33 -25 -76 -54 -95 -65 -49 -29 -243 -61 -440 -72 -91 -6 -180 -14 -198
-19 -37 -11 -38 -9 -16 24 10 16 14 34 10 50 -10 40 -48 33 -91 -17 -34 -41
-108 -98 -126 -98 -18 0 57 103 105 145 28 24 73 64 99 87 27 24 58 60 69 82
20 38 20 39 1 58 -29 28 -64 15 -133 -48 -32 -30 -64 -54 -73 -54 -46 0 -32
157 25 277 35 76 49 85 108 72 25 -6 76 -11 115 -11 60 -1 79 3 135 30 36 18
79 32 95 32 53 0 108 21 178 67 l67 45 59 -51 c32 -28 64 -51 70 -51 21 0 44
65 37 103 -8 42 -56 87 -91 87 -41 0 -38 19 9 70 25 26 48 59 51 72 4 14 2 81
-4 149 l-10 124 25 35 c14 19 49 68 77 108 l51 72 94 0 c96 0 123 -8 187 -55
43 -32 60 -35 84 -19 24 17 27 51 7 80 -20 29 -144 84 -205 91 -29 3 -54 9
-56 13 -2 4 18 50 45 104 40 76 50 107 50 145 0 72 -52 109 -83 59z m153
-1520 c23 -25 50 -106 50 -149 0 -15 -12 -42 -27 -60 -16 -18 -41 -53 -58 -78
-16 -24 -46 -53 -65 -64 -19 -11 -71 -50 -114 -88 -44 -38 -86 -69 -95 -69
-39 0 -93 -23 -107 -45 -9 -14 -20 -59 -25 -101 -5 -47 -17 -90 -30 -113 -30
-51 -163 -230 -171 -231 -4 0 -8 17 -10 38 l-3 37 -95 -1 c-52 0 -109 -5 -127
-11 -37 -13 -43 -5 -43 60 0 47 -2 51 -79 166 -63 94 -112 132 -213 162 -37
11 -68 24 -68 29 0 22 239 64 277 49 39 -15 145 -205 173 -309 17 -62 25 -70
81 -70 42 0 49 3 54 23 8 29 -15 95 -76 226 -27 57 -49 106 -49 108 0 3 14 -7
30 -21 17 -14 47 -30 68 -36 47 -13 163 -13 197 0 23 9 26 15 23 47 -3 36 -5
38 -45 44 -44 6 -61 14 -50 26 4 3 39 -1 78 -10 80 -17 104 -13 122 23 10 20
23 26 65 31 63 8 82 22 82 60 0 26 -3 29 -32 29 l-33 1 30 16 c17 8 46 30 65
47 19 18 52 45 72 60 37 26 41 34 53 107 6 41 39 89 60 89 8 0 24 -10 35 -22z
m600 -528 c0 -18 -134 -28 -145 -11 -5 9 14 14 85 25 23 3 60 -5 60 -14z
m-2691 -82 c-1 -69 -2 -71 -10 -28 -11 64 -11 100 1 100 6 0 9 -30 9 -72z
m876 -64 c47 -24 72 -46 117 -105 31 -41 57 -84 57 -95 1 -30 -57 -166 -77
-181 -22 -17 -23 -17 -73 17 -24 16 -52 30 -61 30 -30 0 -58 -37 -58 -75 0
-29 6 -38 44 -64 24 -17 55 -44 70 -61 25 -30 26 -37 26 -149 0 -65 -3 -139
-6 -165 l-7 -46 -66 0 c-108 0 -133 8 -186 56 -26 24 -59 47 -74 50 -14 3 -36
7 -48 10 -12 2 -34 14 -49 27 l-26 23 73 55 c78 57 97 91 64 115 -17 13 -65 3
-127 -26 -54 -25 -118 14 -118 74 0 18 6 38 13 44 6 5 47 9 89 9 61 -1 82 2
95 15 44 45 -59 116 -183 126 l-64 5 31 51 c16 28 42 75 55 104 22 44 34 57
77 78 29 15 75 43 102 63 67 51 68 51 165 48 71 -3 95 -8 145 -33z m-962 -401
c-3 -7 -9 -13 -14 -13 -11 0 -12 21 -2 46 6 16 7 16 13 -2 4 -10 5 -25 3 -31z
m1497 23 c0 -15 -72 -66 -94 -66 -23 0 -65 -57 -71 -98 -11 -62 -15 -71 -73
-155 -31 -45 -71 -106 -89 -136 l-33 -55 0 132 c0 148 8 179 60 227 18 17 43
46 55 66 26 40 94 77 165 89 69 12 80 11 80 -4z m-1410 -157 c0 -11 -4 -17
-10 -14 -5 3 -10 13 -10 21 0 8 5 14 10 14 6 0 10 -9 10 -21z m222 -39 c9 -49
3 -90 -18 -131 -26 -51 -64 -44 -90 16 -10 25 -10 35 3 59 11 21 12 31 4 34
-24 8 -11 43 22 57 53 24 70 16 79 -35z m-328 -111 c8 -68 0 -139 -14 -139
-12 0 -23 142 -15 191 9 55 20 35 29 -52z m155 -113 c18 -21 4 -60 -51 -142
-27 -41 -51 -74 -53 -74 -2 0 5 21 16 46 11 25 23 71 26 102 2 31 6 63 9 70 5
16 39 15 53 -2z m2320 -63 c29 -17 33 -17 78 0 26 10 59 21 72 24 23 6 24 4
19 -34 -7 -53 -49 -114 -96 -141 -44 -25 -140 -42 -233 -42 -83 0 -175 -28
-254 -76 -74 -44 -118 -61 -215 -79 -41 -8 -118 -30 -170 -49 -52 -19 -141
-49 -196 -66 -63 -19 -130 -49 -175 -77 -41 -25 -88 -52 -106 -59 -19 -8 -55
-44 -90 -89 -51 -67 -58 -73 -61 -52 -6 50 80 334 131 430 45 86 127 154 280
231 70 36 138 66 150 66 36 -1 67 -24 121 -91 77 -95 116 -113 251 -117 l110
-3 35 53 c46 70 117 146 155 166 68 35 137 37 194 5z m-2032 -56 c20 -67 17
-74 -37 -102 -83 -42 -109 -31 -95 42 4 25 21 52 51 82 51 50 60 48 81 -22z
m154 28 c0 -5 -9 -11 -21 -13 -20 -3 -27 8 -13 22 10 9 34 3 34 -9z m274 -141
c44 -14 99 -26 123 -28 71 -4 71 -11 6 -225 -19 -64 -42 -159 -50 -212 -8 -53
-21 -116 -29 -139 -8 -23 -17 -71 -21 -108 -4 -45 -17 -90 -39 -137 -18 -38
-42 -101 -55 -140 -34 -107 -169 -380 -182 -367 -13 13 3 55 44 121 35 56 35
69 1 82 -22 9 -38 8 -74 -5 -44 -15 -195 -35 -266 -36 -24 0 -33 4 -33 17 0
21 39 63 58 63 8 0 28 10 45 22 53 36 207 191 207 207 0 27 -32 51 -67 51 -46
0 -68 -13 -130 -73 l-52 -51 6 40 c8 51 16 60 72 79 28 9 63 32 87 56 48 50
61 57 123 69 32 6 74 26 116 55 36 25 71 45 77 45 19 0 58 42 58 62 0 9 -11
25 -25 34 -35 23 -100 11 -178 -32 -34 -18 -91 -48 -127 -65 -35 -17 -87 -51
-114 -75 -28 -24 -55 -44 -60 -44 -12 0 3 148 20 189 8 18 47 68 88 110 l75
77 -34 43 c-41 51 -45 88 -14 137 26 43 60 52 120 31 59 -21 108 -22 137 -1
30 21 28 38 -14 84 -28 31 -35 45 -30 65 8 32 28 32 131 -1z m-810 -200 c-3
-24 -10 -46 -16 -49 -13 -9 -11 66 3 106 12 31 13 32 16 10 2 -13 1 -44 -3
-67z m2245 44 c8 0 49 4 90 7 71 7 76 6 98 -18 18 -19 25 -42 31 -103 12 -117
37 -157 81 -134 34 18 41 45 34 135 -8 97 0 105 59 61 18 -13 43 -26 57 -28
36 -5 36 -38 -1 -143 -40 -115 -47 -127 -55 -97 -15 53 -104 10 -104 -51 0
-23 -11 -40 -46 -71 -26 -22 -74 -75 -108 -116 l-61 -75 -6 120 c-3 66 -9 132
-13 148 -8 25 -6 27 22 27 45 0 62 10 62 35 0 28 -48 71 -90 80 -37 8 -38 18
-5 47 14 12 25 27 25 34 0 23 -40 51 -88 64 -26 7 -71 19 -101 27 l-54 14 49
24 c34 17 58 22 79 18 17 -3 37 -5 45 -5z m-2562 -115 c16 -13 25 -43 37 -113
9 -52 25 -112 35 -133 25 -47 25 -79 3 -105 -15 -18 -38 -22 -147 -32 -139
-12 -146 -10 -146 37 0 33 -19 75 -46 104 -30 31 -53 154 -36 185 7 13 43 27
119 46 129 32 154 33 181 11z m510 -46 c2 -11 -15 -27 -52 -47 -67 -38 -106
-82 -106 -119 0 -16 -11 -43 -25 -62 -13 -19 -38 -57 -55 -85 -32 -54 -66 -91
-76 -82 -7 8 14 121 33 175 18 53 110 149 195 204 64 41 81 44 86 16z m1856 4
c50 -12 63 -25 46 -46 -22 -26 -82 -19 -126 16 -22 17 -41 33 -43 35 -8 8 84
4 123 -5z m-2824 -81 c0 -26 -9 -36 -72 -77 -40 -25 -101 -70 -136 -100 -65
-54 -91 -64 -111 -39 -9 11 -8 18 4 30 9 9 20 16 25 16 5 0 44 35 87 78 58 58
92 83 133 99 71 28 70 28 70 -7z m2395 -24 c28 -8 67 -21 89 -31 38 -16 39
-16 77 11 28 19 45 25 64 20 34 -9 123 -83 163 -136 55 -75 73 -90 113 -96 21
-4 43 -12 47 -18 5 -6 12 -45 15 -86 4 -41 9 -85 13 -97 6 -21 3 -23 -28 -23
-46 0 -103 42 -168 124 -60 74 -66 76 -214 76 -179 0 -295 -29 -428 -106 -101
-60 -158 -111 -192 -175 -37 -69 -78 -130 -133 -197 -52 -65 -66 -51 -29 27
24 53 25 81 2 81 -22 1 20 18 61 25 53 8 65 23 61 76 -3 37 -7 44 -28 49 -14
3 -25 11 -24 18 1 7 2 18 3 26 0 8 24 41 52 73 49 55 51 60 45 103 -3 25 -8
57 -12 72 -5 23 -2 29 22 40 16 6 66 38 111 70 116 83 209 104 318 74z m1368
-63 c-7 -2 -19 -2 -25 0 -7 3 -2 5 12 5 14 0 19 -2 13 -5z m-3688 -118 c43
-45 75 -113 75 -158 0 -31 -6 -40 -37 -62 -49 -33 -69 -32 -88 5 -8 16 -25 32
-38 35 -12 3 -69 -3 -127 -15 -121 -23 -140 -24 -140 -9 0 16 118 129 198 189
82 61 111 64 157 15z m1735 -115 c0 -15 -31 -60 -41 -60 -15 0 -10 32 8 52 18
20 33 24 33 8z m-1340 -80 c22 -11 48 -20 59 -20 16 0 21 -9 27 -45 9 -66 -5
-193 -28 -247 -11 -26 -18 -54 -15 -62 10 -25 -22 -55 -84 -77 -36 -13 -77
-38 -101 -61 -22 -21 -60 -50 -84 -64 l-43 -26 -63 31 c-102 50 -221 51 -247
2 -19 -34 15 -55 131 -80 45 -9 84 -23 86 -29 2 -7 -43 -58 -100 -115 -94 -92
-109 -113 -159 -212 -31 -60 -66 -145 -79 -187 -12 -43 -27 -75 -31 -72 -5 3
-9 62 -9 132 0 97 5 144 20 197 11 38 27 119 35 180 21 153 37 201 94 286 143
212 282 363 415 450 69 45 115 50 176 19z m449 -66 c-22 -24 -49 -32 -49 -15
0 5 14 24 32 42 28 29 33 31 36 16 2 -11 -6 -30 -19 -43z m6491 27 c0 -38 -35
-81 -65 -81 -14 0 -29 -8 -34 -19 -11 -19 -104 -71 -128 -71 -21 0 -15 47 10
74 25 29 183 126 204 126 8 0 13 -11 13 -29z m-4675 -44 c8 -12 35 -51 60 -87
25 -36 55 -84 67 -108 22 -42 22 -44 5 -73 -10 -19 -17 -52 -17 -83 0 -78 -48
-281 -84 -361 -37 -79 -74 -121 -116 -130 -16 -4 -41 -16 -56 -27 -21 -17 -27
-19 -35 -7 -5 8 -9 19 -9 25 0 20 -36 45 -56 38 -10 -4 -49 -36 -85 -71 l-66
-65 -22 23 c-21 22 -24 29 -35 82 -9 39 -73 107 -101 107 -13 0 -36 -11 -52
-24 -54 -45 -65 -47 -155 -31 -116 21 -158 34 -158 50 0 19 109 114 140 122
13 4 61 1 105 -5 45 -7 97 -12 116 -12 45 0 72 27 67 67 -3 27 -7 29 -83 44
-44 9 -97 20 -117 23 -20 4 -47 15 -59 25 l-23 18 21 11 c11 6 91 23 178 37
86 14 162 28 167 31 5 3 9 22 8 43 -3 58 -2 60 48 85 72 37 97 79 65 111 -38
39 -249 -7 -328 -71 -47 -38 -138 -95 -143 -90 -7 8 69 152 99 189 36 44 128
100 209 127 61 20 85 18 145 -14 42 -22 72 -20 106 9 16 13 46 27 67 30 20 4
42 8 47 9 16 5 63 -22 80 -47z m-2807 -88 c-3 -65 -6 -69 -63 -85 -25 -8 -31
-16 -38 -54 -4 -25 -10 -52 -13 -60 -13 -37 -56 71 -70 178 l-7 52 44 1 c24 0
60 6 79 13 67 26 71 23 68 -45z m883 13 c-13 -25 -40 -46 -48 -38 -12 12 16
56 37 56 17 0 19 -3 11 -18z m2309 5 c0 -19 -27 -53 -36 -45 -9 10 12 58 26
58 5 0 10 -6 10 -13z m-3477 -121 l16 -59 -30 29 c-35 34 -46 68 -29 90 17 20
24 11 43 -60z m-40 -194 c9 -20 29 -55 43 -77 24 -38 25 -45 21 -153 -3 -68
-9 -118 -16 -125 -17 -17 -27 4 -46 93 -9 41 -23 102 -32 135 -26 100 -30 132
-21 149 14 26 32 18 51 -22z m1544 -84 c14 -11 38 -106 29 -115 -7 -7 -137 79
-157 103 -10 13 -10 17 2 25 16 10 108 1 126 -13z m-684 -113 c4 -33 12 -93
18 -133 10 -68 9 -76 -9 -95 -28 -31 -40 -57 -78 -166 -18 -53 -39 -114 -47
-136 -8 -22 -18 -87 -21 -145 -9 -138 -21 -191 -63 -272 -57 -109 -214 -281
-236 -259 -22 22 72 144 166 214 42 32 47 59 15 81 -31 22 -59 20 -129 -10
-34 -14 -71 -24 -83 -22 -54 8 -78 167 -35 238 26 43 208 223 312 309 85 70
125 136 148 243 16 74 9 88 -39 88 -46 0 -57 -11 -76 -73 -20 -66 -72 -132
-168 -212 -45 -39 -122 -105 -170 -148 -49 -43 -88 -75 -88 -71 0 4 9 37 20
73 27 89 116 206 272 356 85 82 139 125 175 141 29 13 57 33 63 44 21 40 44
20 53 -45z m4380 26 c20 -10 62 -22 93 -26 44 -5 63 -13 83 -35 33 -35 97 -75
162 -100 56 -22 66 -20 129 32 70 57 130 18 130 -85 0 -34 9 -66 29 -105 116
-225 130 -270 131 -396 0 -69 -2 -77 -15 -66 -8 7 -29 39 -47 72 -43 80 -87
118 -139 118 -56 0 -75 13 -104 69 -27 53 -33 58 -120 76 -87 19 -119 -6 -79
-63 14 -21 14 -22 -5 -22 -51 0 -283 328 -325 460 -18 54 -18 54 4 72 27 22
28 22 73 -1z m-3843 -29 c19 -10 59 -33 88 -52 29 -19 72 -36 95 -39 31 -5 45
-12 54 -31 18 -35 17 -178 -2 -214 -8 -15 -15 -50 -15 -76 0 -57 -10 -86 -39
-117 -17 -18 -26 -20 -53 -12 -114 32 -251 -18 -488 -178 -112 -77 -190 -123
-205 -123 -3 0 -5 45 -5 100 0 86 3 107 24 148 13 26 36 92 50 147 15 54 33
106 40 115 8 8 34 58 59 110 54 113 140 213 202 236 50 18 145 11 195 -14z
m-1880 -155 c-1 -13 -26 16 -41 48 -7 13 -1 10 15 -8 14 -15 26 -33 26 -40z
m113 -123 c36 -35 55 -60 48 -62 -13 -4 -124 98 -143 132 -9 18 -9 18 12 3 12
-9 50 -42 83 -73z m2577 -47 c25 -15 74 -48 109 -73 74 -53 108 -55 129 -11
15 30 79 66 119 67 13 0 24 -8 28 -20 3 -11 26 -43 51 -72 24 -28 44 -56 44
-62 0 -5 14 -31 31 -58 31 -49 32 -50 26 -145 -3 -52 -8 -97 -10 -100 -3 -2
-23 5 -46 16 -22 12 -47 21 -55 21 -16 0 -17 -10 -37 -230 -6 -69 -14 -129
-19 -134 -6 -6 -9 47 -8 130 1 151 -13 228 -53 277 -27 35 -74 37 -83 4 -3
-13 -45 -80 -94 -150 -85 -121 -95 -142 -119 -252 -11 -51 -24 -50 -95 4 -55
41 -94 51 -116 29 -15 -15 -16 -63 -1 -90 9 -17 6 -25 -25 -53 -20 -18 -36
-42 -36 -55 0 -12 16 -58 35 -103 19 -45 39 -104 45 -132 6 -27 16 -55 22 -62
8 -10 2 -13 -30 -13 l-40 0 -7 53 c-4 28 -23 99 -42 157 -25 76 -37 135 -44
214 -9 108 -9 111 16 148 53 79 39 123 -40 130 l-40 3 -6 118 c-4 65 -12 131
-19 147 -11 26 -18 30 -51 30 -22 0 -39 4 -39 9 0 18 89 127 157 193 52 49 81
69 114 78 24 6 49 13 54 15 6 3 37 3 70 2 46 -2 72 -10 105 -30z m716 -112
c-13 -53 -27 -99 -30 -102 -13 -14 -9 89 6 137 10 34 37 74 45 66 2 -2 -7 -47
-21 -101z m330 76 c-10 -16 -36 -13 -36 3 0 17 21 27 34 16 4 -5 5 -13 2 -19z
m-146 -77 c12 -36 5 -57 -36 -107 -13 -16 -24 -36 -24 -46 0 -19 -58 -116 -65
-109 -8 7 24 117 40 142 9 13 18 54 21 92 8 96 10 101 34 79 11 -10 24 -32 30
-51z m-3322 -32 c2 -13 -3 -25 -13 -28 -23 -9 -34 7 -24 34 11 28 33 24 37 -6z
m1748 -189 c-17 -69 -18 -143 -2 -189 22 -66 20 -94 -11 -126 -31 -33 -34 -77
-9 -126 20 -39 20 -62 1 -62 -8 0 -17 12 -21 28 -3 15 -7 33 -10 40 -6 20 -51
14 -81 -12 -24 -20 -28 -31 -27 -73 0 -26 4 -57 8 -68 5 -14 -3 -35 -25 -70
l-33 -50 -18 75 c-14 58 -17 95 -12 161 6 92 2 109 -42 162 -13 15 -26 48 -30
75 -8 55 -28 82 -61 82 -12 0 -23 3 -23 8 0 24 175 109 301 146 105 31 103 31
95 -1z m4021 2 c20 -9 52 -27 70 -41 40 -31 42 -57 12 -170 -12 -43 -27 -133
-34 -199 -8 -78 -15 -114 -20 -102 -4 11 -38 50 -75 88 -49 50 -75 69 -93 69
-46 0 -81 20 -143 81 -34 34 -72 66 -85 73 -32 16 -35 53 -9 114 32 74 60 96
133 104 87 9 200 1 244 -17z m-3878 -77 c-14 -55 -19 -44 -12 27 5 47 8 54 15
36 5 -14 4 -39 -3 -63z m-1731 -33 c55 -49 73 -82 89 -157 16 -80 12 -88 -42
-88 -23 0 -41 10 -67 38 -48 48 -56 74 -50 150 3 41 0 67 -8 77 -7 8 -9 22 -6
31 7 18 11 16 84 -51z m6285 -21 c23 -31 58 -75 77 -97 l35 -40 0 -111 c0 -86
-4 -118 -18 -143 -10 -18 -20 -54 -24 -80 -7 -56 -20 -86 -34 -78 -12 8 -12
61 2 144 14 86 -3 129 -65 163 -33 19 -44 33 -59 73 -28 81 -11 225 28 225 8
0 34 -25 58 -56z m-336 -102 c29 -59 26 -73 -12 -48 -57 38 -104 134 -78 160
11 11 59 -50 90 -112z m-4797 33 c-7 -21 -10 -54 -7 -75 l5 -38 -35 24 c-43
29 -57 30 -83 4 -29 -29 -25 -45 20 -94 22 -24 40 -48 40 -53 0 -22 -31 -34
-128 -53 -54 -10 -117 -28 -138 -39 -21 -12 -46 -21 -56 -21 -9 0 -54 -34 -98
-76 -45 -42 -84 -74 -86 -71 -8 8 23 63 58 103 17 19 57 51 87 71 70 44 109
80 177 165 38 47 82 86 151 132 54 35 99 63 101 61 2 -2 -1 -20 -8 -40z m5407
-7 c-2 -13 -4 -5 -4 17 -1 22 1 32 4 23 2 -10 2 -28 0 -40z m850 -36 c18 -24
33 -54 33 -66 0 -22 -85 -136 -107 -143 -23 -8 -29 213 -6 250 11 19 49 -1 80
-41z m-7143 -136 c9 -76 22 -151 30 -165 7 -14 27 -51 44 -81 68 -124 89 -251
57 -357 -14 -48 -39 -82 -51 -70 -3 3 -16 52 -29 109 -12 57 -32 129 -44 160
-11 31 -28 101 -37 155 -27 158 -22 454 6 403 4 -8 15 -78 24 -154z m4652 76
c6 -4 20 -27 31 -53 12 -25 38 -59 61 -77 25 -20 47 -49 57 -76 15 -39 30 -53
127 -118 60 -40 131 -85 158 -100 l50 -26 -63 -7 c-86 -10 -119 -26 -175 -85
-82 -86 -116 -154 -141 -284 -33 -166 -84 -332 -102 -327 -8 2 -21 5 -30 8
-27 8 -77 -53 -95 -115 -16 -55 -16 -59 5 -117 25 -70 26 -94 7 -121 -14 -19
-15 -18 -70 9 -62 30 -86 33 -104 15 -27 -27 -13 -60 53 -123 42 -39 65 -70
65 -84 0 -30 -46 -75 -68 -66 -40 16 -90 17 -120 1 l-32 -17 2 -102 c2 -91 0
-107 -22 -151 -27 -53 -159 -184 -270 -267 l-65 -49 -85 6 c-47 4 -95 13 -109
21 -21 13 -22 20 -16 61 3 26 20 103 36 172 39 160 96 280 181 380 116 136
164 169 287 200 58 15 91 49 91 95 0 54 -31 79 -87 71 -45 -6 -45 -6 -39 22 4
15 9 56 12 92 7 86 -13 126 -79 159 -44 22 -50 22 -85 9 -24 -9 -51 -33 -80
-70 -44 -59 -62 -65 -83 -26 -18 33 18 89 74 116 53 25 60 49 26 83 -17 17
-28 19 -75 13 -59 -7 -59 -7 -44 32 14 36 4 61 -30 79 -54 28 -140 11 -191
-36 -39 -36 -39 -81 1 -140 16 -24 30 -47 30 -51 0 -5 -25 -8 -55 -8 -46 0
-59 -4 -88 -30 -19 -16 -37 -30 -39 -30 -3 0 -24 56 -48 125 -37 110 -45 126
-68 132 -15 3 -36 0 -51 -8 -41 -23 -39 -78 5 -194 13 -32 -12 -8 -31 31 -15
31 -20 35 -43 30 -30 -7 -82 -58 -82 -81 0 -8 9 -38 20 -68 31 -83 98 -137
170 -137 42 0 44 -14 9 -54 l-31 -36 16 -40 c14 -36 14 -44 1 -76 -8 -19 -24
-48 -35 -63 l-20 -29 50 -46 c27 -25 54 -46 60 -46 5 0 10 -20 10 -45 0 -30
10 -68 30 -109 38 -82 53 -176 40 -246 -11 -59 -134 -301 -217 -427 -80 -122
-137 -161 -164 -112 -6 12 -15 69 -20 128 -28 323 -31 348 -61 438 l-30 93 20
67 c35 118 35 135 7 177 -14 20 -25 41 -25 47 0 6 18 58 40 116 22 59 40 111
40 117 0 12 -63 56 -80 56 -5 0 -25 -13 -43 -30 -19 -16 -37 -30 -40 -30 -2 0
1 17 9 38 18 51 17 102 -3 124 -18 20 -48 24 -58 8 -3 -5 -13 -10 -22 -10 -13
0 -14 14 -8 108 8 125 22 165 63 186 17 9 50 42 74 73 63 85 103 101 285 120
89 9 162 21 183 31 32 16 35 21 38 65 2 34 10 54 27 71 13 13 35 47 50 76 25
49 25 53 9 71 -9 10 -32 21 -50 25 -18 3 -40 15 -50 25 -9 10 -24 19 -31 19
-29 0 -6 25 30 32 21 4 59 19 87 33 27 14 56 25 64 25 8 0 21 7 30 15 31 32
73 -15 152 -170 50 -98 52 -100 92 -107 22 -4 52 -14 66 -23 38 -25 74 -12 92
31 14 33 13 39 -7 81 -16 32 -37 55 -75 79 -30 19 -54 40 -54 46 0 20 64 -1
185 -62 l120 -60 33 36 c20 23 32 48 32 65 0 22 -7 32 -32 45 -47 24 -160 105
-155 111 10 9 132 -28 175 -53 25 -15 54 -24 70 -22 23 2 28 8 30 36 3 29 -4
41 -51 88 -35 35 -62 54 -78 54 -13 0 -30 4 -38 9 -20 13 10 27 87 41 34 6 92
22 128 36 57 21 77 24 133 19 51 -5 70 -3 86 9 23 18 26 18 41 8z m289 -82 c9
-41 56 -77 119 -90 60 -12 146 -62 146 -84 0 -23 -37 -38 -73 -31 -91 19 -227
160 -227 236 0 17 3 19 14 10 8 -7 18 -25 21 -41z m1469 21 c17 -19 16 -22
-33 -94 -29 -41 -67 -92 -86 -113 -30 -34 -34 -36 -35 -18 0 12 20 49 44 81
55 76 66 96 66 126 0 41 17 48 44 18z m-794 -37 c0 -10 -30 -3 -44 12 -27 27
-17 36 14 14 17 -12 30 -23 30 -26z m-3397 -44 c8 -84 2 -227 -14 -310 -13
-63 -55 -160 -71 -160 -14 0 -6 68 29 261 l27 147 -27 32 c-29 34 -33 59 -16
91 7 14 19 19 37 17 26 -3 27 -6 35 -78z m507 45 c0 -2 -24 -31 -54 -64 -51
-58 -55 -68 -119 -263 -36 -112 -79 -246 -95 -298 l-29 -95 -71 71 c-83 82
-90 107 -44 170 40 56 131 134 154 134 11 0 36 16 55 35 28 28 34 41 31 67
l-3 33 -75 -3 c-67 -4 -73 -2 -61 12 7 9 27 16 44 16 24 0 44 14 96 67 76 76
171 142 171 118z m595 -50 l30 -24 -30 -1 c-16 0 -48 5 -70 11 -37 10 -38 12
-20 25 28 20 56 17 90 -11z m-175 -40 c-7 -8 -16 -12 -21 -9 -13 8 -1 24 18
24 13 0 13 -3 3 -15z m-1655 -134 c14 -44 51 -121 82 -171 31 -53 56 -105 57
-122 1 -28 -3 -32 -43 -42 -125 -31 -110 -186 25 -271 43 -27 103 -109 90
-122 -3 -3 -27 12 -54 34 -60 51 -115 79 -172 88 -56 9 -88 28 -92 56 -4 30
-50 63 -77 54 -11 -3 -26 -18 -33 -33 -23 -48 -55 -36 -105 37 -40 58 -43 67
-33 92 13 30 38 56 73 73 20 11 22 18 22 102 0 85 2 92 30 126 40 49 76 75
121 90 39 14 49 26 59 71 8 41 20 26 50 -62z m4237 60 c40 -15 89 -31 109 -35
47 -8 55 -18 68 -90 17 -91 14 -112 -28 -205 -22 -48 -44 -105 -50 -128 -6
-22 -21 -53 -33 -68 -15 -19 -23 -46 -26 -86 -2 -32 -8 -56 -13 -53 -5 3 -27
63 -50 134 -40 128 -42 130 -116 211 -69 75 -74 84 -68 113 4 17 10 73 14 124
5 63 12 97 22 103 27 17 99 9 171 -20z m1213 -11 c-10 -11 -25 -20 -34 -20
-11 1 -7 8 14 25 34 28 47 25 20 -5z m-5981 -58 c8 -37 6 -49 -14 -83 -17 -31
-24 -67 -31 -152 -15 -175 -26 -258 -37 -269 -7 -7 -25 15 -54 67 -64 115 -80
132 -139 144 -28 6 -60 16 -71 22 -12 6 -41 12 -66 13 -25 0 -47 6 -49 12 -11
33 151 187 209 200 24 5 39 0 73 -25 24 -17 51 -31 61 -31 46 0 71 72 39 114
-20 27 -9 38 33 34 35 -3 38 -6 46 -46z m2086 34 c0 -7 -7 -19 -15 -26 -12
-10 -15 -9 -15 7 0 11 3 23 7 26 11 12 23 8 23 -7z m3486 -11 c10 -8 34 -15
52 -15 27 0 32 -4 32 -24 0 -37 -36 -64 -165 -122 -123 -54 -145 -61 -145 -44
0 19 126 175 159 197 40 27 42 27 67 8z m-3296 -4 c0 -13 -37 -24 -50 -16 -6
4 -8 11 -5 16 8 12 55 12 55 0z m-559 -144 c-8 -8 -11 -7 -11 4 0 9 3 19 7 23
4 4 9 2 11 -4 3 -7 -1 -17 -7 -23z m4271 -26 c41 -82 79 -98 259 -110 120 -8
158 -21 227 -80 l22 -19 -21 -56 c-29 -76 -72 -112 -141 -121 -92 -11 -139 7
-267 101 -160 117 -181 134 -181 143 0 4 13 28 30 52 21 32 30 56 30 87 0 52
16 53 42 3z m-5886 -29 c-15 -15 -16 -15 -16 4 0 28 24 52 28 28 2 -9 -3 -24
-12 -32z m2098 -23 c27 -6 76 -9 108 -6 66 6 66 3 3 -68 -30 -34 -36 -38 -45
-24 -21 36 -47 59 -71 64 -28 7 -31 4 -70 -48 -11 -15 -46 -45 -77 -66 -32
-22 -96 -76 -145 -120 -48 -45 -90 -81 -92 -81 -3 0 2 11 11 25 16 24 15 26
-19 60 -38 38 -70 44 -98 19 -9 -8 -28 -14 -41 -12 -22 3 -22 4 7 20 17 9 67
24 110 32 161 33 269 84 281 132 8 31 -5 46 -58 70 l-42 19 49 11 c39 8 60 8
95 -3 25 -7 67 -18 94 -24z m3581 -9 c4 -6 -8 -10 -29 -10 -19 0 -38 -4 -41
-10 -8 -13 -52 -13 -60 0 -3 6 4 14 17 19 31 13 105 13 113 1z m-6385 -8 c0
-5 -13 -26 -30 -48 -16 -21 -39 -70 -51 -109 -22 -72 -66 -165 -80 -165 -22 0
70 236 116 296 25 32 45 44 45 26z m2518 -14 c-3 -7 -12 -14 -21 -16 -12 -2
-15 1 -11 12 7 19 38 22 32 4z m-3400 -20 c18 -16 15 -69 -8 -108 -56 -98 -64
-118 -50 -134 15 -19 70 -21 94 -3 10 8 21 31 25 53 6 35 10 39 38 42 23 2 40
-4 65 -27 l33 -29 -37 -7 c-26 -5 -45 -18 -63 -41 -14 -19 -43 -41 -63 -50
-40 -16 -82 -51 -82 -68 0 -6 -4 -17 -9 -25 -8 -12 -13 -12 -36 3 -14 9 -34
31 -44 48 -19 29 -19 31 1 74 11 26 18 60 16 82 -3 35 -5 37 -39 40 -57 5 -85
-24 -92 -98 -4 -33 -14 -74 -22 -90 -14 -28 -20 -30 -70 -30 -30 0 -66 -5 -80
-12 -22 -10 -29 -8 -55 17 -35 34 -36 43 -10 95 23 46 151 201 201 246 35 30
36 30 155 31 67 1 124 -4 132 -9z m5887 -17 c75 -43 105 -75 105 -111 0 -19
16 -58 40 -97 22 -36 37 -70 34 -74 -2 -5 4 -26 16 -48 11 -22 20 -45 20 -50
0 -25 -59 -74 -144 -120 -99 -53 -117 -71 -210 -200 l-58 -83 -32 30 c-42 40
-88 62 -129 62 -63 0 -79 -53 -27 -92 27 -19 30 -28 30 -73 0 -82 -86 -242
-151 -281 -8 -5 -42 -40 -74 -79 -32 -38 -62 -71 -67 -73 -4 -2 -15 13 -25 33
-16 33 -16 37 0 64 9 16 17 39 17 51 0 12 15 36 34 54 18 17 36 43 39 57 4 14
25 46 47 71 59 68 51 108 -22 108 -42 0 -50 16 -15 29 42 16 148 137 188 214
21 41 15 68 -21 87 -30 16 -47 12 -85 -21 -20 -18 -37 -30 -39 -28 -1 2 3 60
10 129 24 227 85 379 173 428 52 29 105 40 211 41 76 1 90 -2 135 -28z m1167
-92 c35 -12 74 -23 88 -23 29 -1 46 -30 60 -107 8 -43 19 -63 55 -99 25 -25
45 -49 45 -52 0 -4 -14 -29 -31 -57 -25 -39 -33 -67 -40 -133 -13 -126 -11
-121 -84 -151 -108 -44 -115 -40 -115 72 0 82 -14 107 -55 97 -39 -10 -85 -59
-85 -90 0 -36 -20 -33 -70 9 -50 42 -65 43 -133 8 -43 -22 -68 -27 -152 -31
-97 -4 -216 9 -245 29 -33 21 13 30 118 23 129 -8 146 -1 194 77 l37 60 -35
39 c-35 39 -38 40 -100 40 -74 0 -82 8 -68 73 9 39 12 42 69 64 40 15 85 45
135 89 41 36 89 72 105 80 44 22 224 11 307 -17z m-8524 -21 c29 -37 32 -46
26 -82 -18 -109 -74 -223 -74 -152 0 15 -11 54 -25 88 -14 34 -25 70 -25 80 0
21 48 108 58 107 4 0 22 -19 40 -41z m2570 -100 c-5 -109 -14 -136 -66 -197
-19 -23 -34 -32 -45 -28 -13 5 -14 11 -6 36 6 16 19 37 30 47 13 12 19 30 19
61 0 48 -11 75 -43 111 l-20 22 30 0 c16 0 45 11 64 24 19 13 36 25 38 25 2 1
2 -45 -1 -101z m1374 -156 c17 -40 46 -97 66 -125 49 -71 76 -145 61 -163 -20
-25 -67 -17 -85 14 -10 15 -39 61 -66 102 -75 116 -84 146 -69 243 25 168 21
161 43 77 11 -41 33 -108 50 -148z m4868 162 c0 -8 -4 -12 -10 -9 -5 3 -10 10
-10 16 0 5 5 9 10 9 6 0 10 -7 10 -16z m-4531 -51 c32 -40 35 -66 13 -109 -26
-50 -77 -98 -95 -91 -33 13 -27 169 8 224 18 27 40 20 74 -24z m-2352 13 c34
-16 60 -38 78 -64 26 -40 115 -234 115 -252 0 -6 -18 -10 -39 -10 -47 0 -71
-26 -71 -77 0 -18 -2 -33 -5 -33 -2 0 -21 11 -41 25 -54 37 -90 33 -116 -11
-17 -28 -25 -34 -42 -29 -12 4 -35 7 -52 9 -18 1 -39 7 -47 15 -26 21 -57 95
-57 134 0 49 -15 79 -51 99 -26 15 -29 22 -29 66 0 58 11 66 77 56 63 -9 85 0
121 51 28 40 36 45 69 45 21 0 61 -11 90 -24z m801 -1 c14 -29 -2 -44 -17 -16
-6 11 -11 24 -11 30 0 20 17 11 28 -14z m-388 -96 c-7 -32 -17 -59 -21 -59
-15 0 -10 68 7 108 22 50 29 24 14 -49z m710 57 c0 -18 -8 -27 -30 -35 -25 -8
-30 -15 -30 -44 0 -18 6 -42 14 -52 13 -18 19 -19 81 -8 106 18 142 -5 132
-85 -5 -33 -2 -53 8 -66 8 -11 15 -32 15 -47 0 -14 12 -52 26 -83 23 -51 26
-71 31 -233 3 -98 3 -200 -1 -226 -7 -43 -9 -47 -30 -41 -14 3 -31 -2 -46 -14
l-24 -19 27 -74 c15 -41 27 -82 27 -91 0 -40 -120 -34 -169 8 -48 40 -56 82
-31 152 31 85 25 111 -31 142 l-45 25 28 65 c18 42 27 79 25 105 -2 36 -6 42
-45 64 -41 22 -45 22 -60 7 -9 -9 -19 -39 -22 -68 l-5 -51 -23 46 -23 47 23
47 c13 25 42 67 65 93 34 37 53 50 101 63 62 17 102 52 102 88 0 29 -41 33
-139 15 -124 -22 -140 -22 -134 7 10 42 100 222 127 255 33 38 56 42 56 8z
m990 8 c0 -8 -5 -12 -10 -9 -6 4 -8 11 -5 16 9 14 15 11 15 -7z m674 -49 c-7
-19 -14 -49 -14 -67 l-1 -33 -28 32 c-61 67 -88 64 -141 -12 -17 -25 -36 -45
-42 -45 -14 0 -1 50 20 74 26 28 92 56 138 56 22 0 49 7 60 15 10 8 20 15 21
15 1 0 -5 -16 -13 -35z m-4525 -41 c16 -24 34 -65 41 -91 15 -52 14 -57 -55
-211 -20 -46 -39 -101 -42 -123 -3 -21 -9 -36 -14 -34 -4 3 -22 30 -39 61 -35
60 -35 72 -7 179 9 33 20 106 26 162 5 57 12 107 16 113 11 17 44 -8 74 -56z
m-621 -21 c16 -21 44 -65 63 -98 18 -33 57 -97 87 -143 30 -45 53 -85 50 -87
-7 -7 -188 106 -223 140 -33 31 -37 44 -60 213 l-5 43 29 -15 c16 -9 42 -32
59 -53z m1152 12 c40 -14 79 -30 87 -37 22 -18 65 -108 59 -124 -9 -23 -63
-16 -138 17 -50 22 -82 30 -113 28 -25 -2 -47 0 -50 3 -6 6 37 101 57 126 14
16 13 16 98 -13z m8449 -29 c45 -29 48 -43 9 -33 -32 8 -118 64 -118 77 0 13
51 -8 109 -44z m551 22 c0 -63 -58 -142 -79 -109 -11 17 -1 45 34 101 31 48
45 51 45 8z m-7008 -110 l23 -18 -29 -25 c-49 -44 -71 -1 -44 90 l11 40 8 -34
c4 -19 18 -43 31 -53z m6201 35 c23 -27 28 -32 84 -78 34 -27 96 -132 89 -150
-6 -17 -175 -102 -258 -129 -104 -35 -122 -34 -75 5 48 39 67 77 67 131 0 99
37 248 62 248 4 0 18 -12 31 -27z m-7803 -99 c19 -13 58 -44 85 -68 40 -36 47
-46 34 -51 -26 -10 -91 12 -138 45 -38 28 -81 82 -81 103 0 15 64 -4 100 -29z
m3239 -7 c6 -8 8 -16 5 -20 -10 -9 -34 4 -34 19 0 18 14 18 29 1z m-1726 -108
c103 -109 114 -143 27 -84 -28 19 -56 35 -60 35 -14 0 -28 -24 -32 -54 -3 -28
-14 -39 -50 -50 -13 -4 -18 -16 -18 -40 0 -49 33 -72 115 -81 69 -7 84 -19 36
-28 -35 -7 -61 -32 -61 -57 0 -23 45 -60 73 -60 47 0 157 -109 157 -154 0 -21
-24 -20 -56 1 -14 9 -47 22 -72 28 -35 9 -48 17 -50 33 -4 25 -39 61 -109 113
-66 49 -94 90 -101 145 -6 54 13 156 39 206 23 45 77 108 92 108 6 0 38 -28
70 -61z m-1879 17 c22 -9 69 -21 105 -26 48 -7 96 -25 178 -66 110 -56 112
-56 233 -65 121 -9 228 -39 237 -65 4 -13 -62 -40 -130 -53 -54 -10 -99 -45
-95 -75 6 -39 30 -42 176 -17 92 15 153 21 180 16 27 -4 79 -31 146 -76 98
-65 106 -73 121 -119 18 -55 14 -53 170 -91 119 -29 184 -58 239 -109 26 -24
75 -54 113 -69 62 -26 68 -31 74 -62 3 -19 13 -46 23 -60 11 -18 15 -36 10
-53 -8 -32 -18 -26 -44 24 -23 45 -52 58 -84 36 -32 -21 -40 -58 -21 -103 l16
-38 -41 40 c-33 32 -46 56 -67 125 -14 47 -32 95 -40 107 -20 30 -146 123
-166 123 -22 0 -50 -45 -50 -81 0 -16 8 -38 18 -49 22 -25 6 -26 -38 -4 -47
25 -90 63 -136 122 -49 62 -88 71 -117 26 -17 -25 -16 -28 14 -90 18 -35 32
-67 32 -69 0 -3 -11 -5 -24 -5 -15 0 -33 -11 -46 -27 -23 -29 -23 -44 -4 -160
6 -42 6 -43 -20 -43 -35 0 -107 72 -134 134 -30 68 -119 192 -168 235 -42 37
-149 81 -196 81 -27 0 -58 -27 -58 -52 0 -53 39 -88 116 -103 52 -10 110 -69
148 -148 19 -40 46 -83 60 -96 30 -28 35 -54 9 -44 -10 3 -36 20 -58 38 -63
51 -115 80 -192 109 -80 30 -107 55 -209 197 -34 46 -119 151 -190 233 -178
205 -212 251 -219 294 -4 20 -13 66 -20 101 -9 42 -11 71 -4 82 16 31 73 29
153 -5z m2662 13 c10 -17 -13 -36 -27 -22 -12 12 -4 33 11 33 5 0 12 -5 16
-11z m8524 -39 c0 -69 -276 -188 -318 -137 -15 18 -3 29 53 47 54 17 119 50
184 94 42 28 57 34 67 25 8 -6 14 -19 14 -29z m-10484 -5 c18 -13 16 -14 -21
-15 -55 0 -91 10 -73 21 21 14 72 10 94 -6z m-1071 -99 c59 -104 142 -213 183
-238 17 -11 32 -23 32 -27 0 -5 22 -37 49 -72 53 -69 110 -202 131 -304 14
-70 23 -83 70 -103 61 -25 168 -107 156 -120 -3 -3 -32 11 -63 30 -32 20 -74
41 -94 47 -20 6 -75 47 -125 92 -49 45 -138 119 -199 164 -120 91 -256 213
-305 275 l-31 39 26 60 c14 33 25 66 25 73 0 7 19 53 42 102 29 61 45 84 51
75 4 -8 28 -50 52 -93z m3208 74 c24 -21 54 -33 107 -44 85 -18 140 -51 174
-104 32 -52 45 -60 105 -72 55 -10 111 -43 111 -64 0 -14 -27 -53 -32 -46 -2
3 -8 14 -14 24 -25 46 -85 46 -106 1 -6 -14 -18 -25 -25 -25 -27 0 -101 59
-139 111 -52 71 -160 159 -196 159 -40 0 -60 -35 -56 -102 3 -52 4 -54 49 -78
25 -14 60 -37 78 -53 18 -15 58 -40 88 -55 60 -29 84 -63 75 -109 -7 -36 -25
-38 -74 -9 l-43 26 -65 -70 c-137 -146 -180 -95 -180 216 0 164 6 193 53 256
13 18 27 41 30 51 9 24 21 21 60 -13z m-1418 -2 c14 -6 25 -14 26 -17 1 -3 2
-20 4 -36 1 -17 23 -76 49 -131 25 -56 46 -106 46 -113 0 -6 15 -28 33 -48 19
-21 46 -56 60 -78 15 -22 45 -51 69 -65 25 -15 50 -42 63 -65 16 -31 30 -43
70 -58 96 -36 152 -68 195 -112 24 -25 40 -45 34 -45 -5 0 -35 9 -67 20 -31
11 -72 20 -91 20 -24 0 -46 10 -76 35 -23 19 -46 35 -50 35 -5 0 -53 39 -106
86 -78 70 -100 84 -118 79 -11 -4 -34 -8 -50 -9 -27 -1 -31 4 -58 68 -32 79
-93 281 -103 341 -4 22 -15 52 -26 67 -10 15 -19 30 -19 33 0 10 89 5 115 -7z
m2512 -40 c-3 -7 -5 -2 -5 12 0 14 2 19 5 13 2 -7 2 -19 0 -25z m5177 12 c102
-10 174 -41 276 -116 47 -34 61 -50 58 -67 -3 -23 -95 -93 -135 -103 -18 -5
-65 26 -225 145 l-202 151 70 0 c38 0 109 -5 158 -10z m-5490 -52 c35 -41 87
-171 73 -184 -13 -13 -59 28 -76 69 -10 23 -25 48 -34 55 -21 17 -41 68 -33
87 9 26 33 17 70 -27z m1527 -41 c-11 -29 -31 -36 -31 -11 0 8 5 25 11 36 16
29 32 8 20 -25z m-1211 8 c0 -14 -4 -25 -10 -25 -11 0 -14 33 -3 43 11 11 13
8 13 -18z m-2817 -23 c70 -31 110 -74 103 -111 -3 -14 -8 -45 -11 -68 l-7 -43
-46 32 c-111 75 -162 132 -162 183 0 17 3 35 6 38 10 9 50 -1 117 -31z m5677
4 c47 -13 102 -27 123 -31 24 -4 82 -36 156 -86 121 -82 170 -101 210 -80 17
10 21 21 21 66 0 55 0 55 31 55 65 0 257 -95 312 -154 35 -39 91 -125 85 -131
-3 -3 -20 0 -38 7 -26 9 -47 8 -93 -1 l-58 -12 -39 35 c-44 39 -62 43 -249 54
l-125 7 -25 50 -26 50 -80 0 -79 0 -7 33 c-4 19 -12 39 -18 45 -21 21 -178 14
-253 -12 -69 -23 -129 -25 -135 -4 -5 15 53 80 88 99 23 11 64 24 109 33 3 1
43 -10 90 -23z m1684 -19 c34 -13 83 -32 109 -42 43 -15 54 -26 101 -99 29
-45 87 -121 129 -169 42 -49 90 -107 106 -131 49 -71 111 -202 128 -272 15
-59 15 -70 2 -93 -20 -36 -112 -89 -168 -97 -90 -13 -134 -62 -95 -105 16 -18
27 -20 71 -15 53 6 182 50 250 85 67 34 76 51 71 131 -3 38 -2 70 2 70 10 0
28 -92 45 -236 l15 -118 -53 -84 c-97 -156 -201 -241 -275 -227 -81 15 -110
51 -127 157 l-6 36 57 12 c33 7 72 9 93 5 68 -15 133 -11 144 7 15 24 -1 66
-36 92 -23 17 -49 22 -155 27 -232 13 -257 22 -423 145 -128 96 -227 189 -245
231 -8 18 -14 60 -14 93 0 78 18 88 66 36 l33 -36 98 2 c85 3 103 0 134 -18
19 -12 62 -31 95 -43 62 -24 94 -46 94 -66 0 -18 126 -133 167 -153 34 -16 35
-16 54 7 10 13 19 31 19 41 0 24 -103 154 -161 204 -24 21 -94 62 -155 91 -61
30 -116 61 -123 69 -21 25 -8 50 42 76 58 31 96 82 76 106 -28 33 -46 35 -126
9 -43 -14 -85 -25 -94 -25 -9 0 -59 22 -110 48 -64 33 -101 59 -116 81 -13 19
-21 37 -18 41 3 4 33 2 67 -6 35 -7 99 -16 143 -20 76 -7 82 -9 115 -46 41
-45 72 -49 96 -13 15 24 15 28 -1 71 -9 24 -28 58 -42 74 -23 28 -28 30 -97
28 -40 0 -80 4 -90 9 -17 9 -16 12 9 31 15 12 30 22 33 22 3 0 33 -11 66 -23z
m389 -48 c78 -51 153 -133 185 -201 43 -89 73 -184 80 -248 5 -50 4 -54 -11
-42 -26 22 -57 95 -57 135 0 32 -9 46 -64 102 -58 59 -128 153 -185 248 -29
47 -13 49 52 6z m-4057 -40 c3 -6 1 -16 -5 -22 -9 -9 -14 -8 -21 3 -9 15 -4
30 10 30 5 0 12 -5 16 -11z m3082 -18 c47 -24 150 -104 169 -131 13 -18 13
-24 -1 -45 -30 -46 -58 -34 -172 77 -57 55 -104 105 -104 110 0 15 70 8 108
-11z m-1438 1 c0 -5 -9 -17 -20 -27 -16 -14 -20 -15 -20 -4 0 16 19 39 32 39
4 0 8 -4 8 -8z m3506 -37 c89 -8 169 -18 178 -21 9 -4 30 -26 47 -50 16 -24
34 -44 39 -44 6 0 10 -5 10 -11 0 -16 -147 -1 -256 26 -89 23 -220 77 -266
110 -22 16 -21 16 32 11 30 -4 128 -13 216 -21z m1848 -15 c22 -8 38 -40 20
-40 -9 0 -74 41 -74 46 0 7 28 4 54 -6z m-5058 -91 c54 -14 59 -33 7 -25 -21
3 -62 8 -90 12 -29 3 -53 10 -53 15 0 13 82 11 136 -2z m1539 -109 c56 -21 40
-25 -52 -14 -35 5 -53 11 -53 20 0 19 44 17 105 -6z m-5259 -45 c9 -23 61 -33
189 -38 112 -4 125 -6 180 -35 33 -17 73 -34 88 -37 24 -5 123 -83 115 -91 -7
-6 -177 25 -208 38 -19 8 -64 34 -99 57 -35 22 -70 41 -78 41 -15 0 -33 -40
-33 -75 0 -13 -5 -27 -11 -30 -18 -12 -49 26 -49 60 0 42 -21 58 -73 59 l-42
1 -5 -60 -5 -60 -14 61 c-12 54 -11 65 3 92 18 34 33 41 42 17z m4306 -30
c171 -39 220 -76 272 -204 14 -35 42 -84 63 -109 l37 -45 12 -336 c8 -214 8
-343 2 -354 -10 -19 -15 -18 -86 6 -25 9 -40 8 -65 -2 -40 -17 -236 -70 -259
-70 -13 -1 -18 7 -18 27 0 15 -7 38 -16 50 -21 31 -10 42 41 42 36 0 48 5 69
31 50 59 31 88 -59 89 -47 0 -61 8 -67 35 -3 17 -11 20 -52 20 l-49 0 -14 47
c-15 54 -71 118 -101 118 -12 0 -33 -10 -47 -23 l-27 -22 18 -66 c17 -65 17
-67 -3 -95 -33 -46 -36 -68 -13 -97 11 -14 20 -30 20 -35 0 -16 -41 -38 -103
-56 l-58 -17 -66 61 c-61 56 -69 60 -113 60 -41 0 -49 3 -54 23 -12 44 -6 84
14 102 43 39 8 105 -55 105 -30 0 -35 3 -35 24 0 13 17 56 37 96 31 60 34 73
22 81 -19 13 -93 3 -124 -17 -29 -19 -52 -7 -57 29 -5 34 -54 36 -69 4 -6 -14
-22 -30 -36 -36 -30 -14 -128 -14 -154 -1 -41 23 -12 69 53 85 19 5 30 17 38
41 14 42 1 64 -39 64 -33 0 -91 35 -91 55 0 17 48 42 144 76 40 14 85 39 110
60 37 33 41 42 46 95 5 55 7 59 32 62 35 4 65 -29 84 -95 8 -28 28 -68 44 -87
21 -28 30 -52 35 -99 3 -34 9 -70 11 -79 7 -25 66 -58 103 -58 34 0 71 30 71
58 0 9 18 -19 39 -63 59 -124 104 -168 139 -133 18 18 15 49 -18 152 -35 107
-55 138 -113 168 l-42 21 27 8 c15 4 55 24 89 45 52 32 71 39 117 39 74 0 82
-13 59 -99 -23 -89 -22 -100 18 -145 19 -21 35 -43 35 -48 0 -6 9 -22 21 -37
30 -38 73 -36 89 4 7 17 21 35 31 41 14 7 19 21 19 49 0 38 1 40 32 40 18 0
51 -13 79 -31 26 -17 62 -31 78 -31 34 -1 71 26 71 51 0 50 -89 121 -150 121
-34 0 -37 3 -47 43 -10 34 -20 47 -53 66 -60 34 -110 80 -110 102 0 24 9 24
142 -6z m528 3 c24 -26 25 -38 3 -38 -20 0 -53 28 -53 47 0 20 27 16 50 -9z
m4497 -10 c-3 -7 -5 -2 -5 12 0 14 2 19 5 13 2 -7 2 -19 0 -25z m-5587 -33 c0
-19 -11 -19 -36 0 -18 14 -18 14 9 15 17 0 27 -5 27 -15z m-600 -30 c0 -2 -15
-12 -32 -20 l-33 -16 24 21 c22 19 41 26 41 15z m3139 -82 c5 -10 12 -45 16
-78 3 -33 12 -78 20 -100 7 -22 18 -78 25 -124 6 -46 25 -140 41 -210 16 -69
34 -180 39 -246 6 -66 15 -133 21 -149 5 -16 9 -41 9 -56 0 -28 -71 -183 -98
-214 -46 -50 -218 -106 -327 -106 -72 0 -167 36 -185 70 -14 27 -4 91 22 145
22 44 96 125 114 125 16 0 103 102 228 268 l108 144 -4 146 c-4 128 -8 161
-36 256 -18 60 -32 118 -32 128 0 23 26 24 39 1z m371 -89 c17 -15 40 -45 52
-68 11 -22 33 -56 49 -76 16 -19 44 -77 63 -128 19 -51 46 -108 60 -127 35
-45 34 -59 -4 -40 -21 11 -40 37 -66 93 -21 42 -48 88 -60 101 -20 20 -144
249 -144 265 0 13 20 5 50 -20z m-6683 -16 c-3 -7 -5 -2 -5 12 0 14 2 19 5 13
2 -7 2 -19 0 -25z m6567 -127 c79 -154 88 -191 93 -406 6 -209 -9 -493 -31
-597 -22 -102 -62 -174 -141 -254 -69 -70 -185 -154 -212 -154 -9 0 2 19 27
48 61 68 139 191 151 236 6 22 33 83 60 135 38 74 53 116 64 185 17 100 19
222 5 281 -5 22 -12 83 -16 135 -5 75 -12 108 -35 156 -19 39 -29 77 -29 106
0 40 -21 180 -37 248 l-6 25 32 -29 c17 -16 51 -68 75 -115z m-6165 95 c8 -10
9 -16 2 -21 -14 -8 -53 13 -46 26 9 13 31 11 44 -5z m-2177 -26 c18 -11 47
-20 64 -20 21 0 48 -14 87 -44 32 -24 77 -57 102 -73 25 -15 45 -30 45 -33 0
-3 -16 -15 -36 -28 -52 -34 -69 -100 -29 -116 8 -3 65 0 127 6 111 10 115 10
223 -20 61 -16 103 -32 95 -36 -8 -3 -41 -15 -74 -27 -38 -14 -76 -38 -108
-69 -65 -63 -62 -82 17 -111 30 -11 30 -11 -45 -38 l-75 -26 -5 -67 c-3 -36
-8 -70 -12 -73 -4 -4 -29 6 -55 23 -26 17 -67 35 -90 41 -56 15 -152 119 -198
215 -18 39 -52 89 -75 111 -56 54 -74 118 -75 258 0 102 1 110 24 128 30 24
52 24 93 -1z m863 -14 c295 -39 346 -51 331 -75 -25 -39 -397 19 -518 80 -42
21 -50 35 -15 25 12 -4 103 -17 202 -30z m1040 -6 c0 -23 -29 -23 -56 0 l-24
20 40 -2 c28 -2 40 -8 40 -18z m5070 -83 c108 -86 294 -273 301 -304 13 -50
-25 -283 -46 -283 -5 0 -25 28 -46 63 -21 34 -76 118 -123 187 -98 146 -171
290 -178 355 -3 25 -2 45 3 45 5 0 45 -28 89 -63z m-189 -43 c5 -43 4 -56 -5
-49 -6 6 -13 40 -17 75 -7 83 13 59 22 -26z m-6186 8 c0 -12 -6 -10 -25 8 -13
12 -22 27 -19 32 8 12 44 -21 44 -40z m358 -68 c12 -4 22 -14 22 -23 0 -10 7
-26 15 -37 8 -10 15 -22 15 -26 0 -9 -100 20 -127 38 -34 22 -49 17 -60 -18
-7 -21 -12 -28 -15 -18 -3 8 -10 29 -15 47 -6 17 -8 34 -5 37 7 8 141 7 170 0z
m732 -14 c0 -6 -7 -25 -16 -42 -13 -26 -14 -35 -4 -51 9 -16 9 -21 -1 -28 -20
-12 -137 -30 -210 -32 -85 -3 -86 18 -4 53 33 14 78 36 100 50 97 60 135 74
135 50z m7637 -5 c21 -14 43 -102 43 -168 0 -55 -50 -33 -232 100 -108 79
-106 81 57 82 82 1 116 -3 132 -14z m-8057 -49 c0 -31 -14 -40 -30 -21 -15 18
-6 45 15 45 9 0 15 -9 15 -24z m583 17 c-7 -2 -19 -2 -25 0 -7 3 -2 5 12 5 14
0 19 -2 13 -5z m7066 -70 c39 -9 98 -40 181 -96 l74 -50 -84 -29 c-116 -39
-122 -38 -170 27 -22 30 -45 55 -51 55 -11 0 -79 136 -79 157 0 8 21 -1 51
-22 29 -19 63 -38 78 -42z m-2081 5 c4 -22 -25 -24 -50 -4 -27 20 -22 28 14
24 22 -2 34 -9 36 -20z m-5700 -34 c-10 -10 -28 6 -28 24 0 15 1 15 17 -1 9
-9 14 -19 11 -23z m1272 22 c0 -19 -75 -101 -116 -126 -33 -21 -72 -21 -59 0
4 6 23 19 43 29 21 10 52 40 70 65 32 45 62 60 62 32z m4348 -120 c34 -31 74
-94 86 -133 10 -33 -41 -56 -123 -55 -35 1 -66 4 -69 6 -2 3 -8 45 -13 94 -4
48 -13 108 -18 132 -6 25 -11 48 -11 53 0 10 109 -61 148 -97z m-4753 14 c-5
-8 -68 -30 -87 -30 -22 0 -4 21 25 29 43 12 69 13 62 1z m6620 -22 l16 -33
-21 24 c-11 13 -20 27 -20 32 0 18 10 8 25 -23z m-4933 -25 c82 -62 102 -103
102 -203 0 -60 -5 -86 -27 -134 -15 -32 -27 -70 -27 -83 0 -14 -14 -50 -31
-79 -35 -62 -35 -93 1 -111 30 -15 178 -17 215 -3 26 10 29 14 39 63 l7 28
125 -7 c121 -7 125 -6 149 16 14 13 25 29 25 37 0 21 28 15 44 -9 8 -13 19
-42 24 -65 6 -24 25 -66 43 -94 l32 -51 -26 -113 c-15 -62 -27 -117 -27 -123
0 -6 14 -27 32 -47 l31 -36 49 48 c40 39 50 45 58 33 28 -44 -19 -90 -126
-123 -92 -29 -107 -47 -98 -117 9 -60 30 -100 53 -100 11 0 51 29 89 64 39 35
79 67 90 71 45 14 122 -57 122 -112 0 -58 -126 -146 -230 -160 -51 -8 -55 -10
-61 -42 -4 -18 -13 -37 -20 -42 -24 -14 2 -62 45 -83 l39 -19 -46 -24 c-60
-30 -74 -55 -52 -90 16 -23 16 -28 0 -69 -9 -24 -31 -55 -48 -69 -30 -23 -32
-29 -31 -82 0 -41 7 -68 22 -93 46 -73 22 -227 -48 -306 -45 -52 -55 -82 -34
-105 33 -37 103 -16 149 45 34 45 65 127 65 172 0 41 15 38 23 -6 13 -65 49
-129 82 -149 42 -24 61 -61 74 -139 19 -116 52 -147 105 -97 21 20 26 33 26
75 0 63 14 70 73 36 24 -14 58 -26 76 -26 18 0 31 -4 29 -8 -6 -16 -183 -172
-194 -172 -26 0 -33 -74 -10 -105 19 -26 80 -14 125 25 20 17 56 40 81 52 34
15 54 34 79 73 22 35 50 62 85 82 63 38 184 88 192 80 12 -12 -19 -48 -64 -73
-26 -15 -58 -37 -72 -49 -14 -12 -38 -30 -55 -40 -46 -29 -122 -103 -178 -175
-28 -36 -54 -69 -58 -73 -3 -5 -30 3 -59 18 -29 15 -80 31 -113 36 -34 6 -77
20 -96 31 -28 18 -55 22 -142 26 l-109 5 -97 85 c-117 103 -179 134 -266 133
-69 0 -97 13 -139 64 -44 53 -51 76 -50 152 l2 73 -56 42 c-92 69 -142 117
-148 143 -4 16 -19 30 -42 40 -20 8 -54 29 -76 47 -22 17 -63 43 -90 57 -43
23 -52 32 -67 78 l-17 52 48 -25 48 -25 25 28 c13 15 30 41 36 57 11 25 10 34
-8 65 -11 20 -34 45 -51 56 -49 31 -34 40 62 37 75 -2 92 0 122 19 19 12 36
20 38 18 1 -2 14 -29 29 -59 15 -30 39 -68 53 -84 l25 -29 30 28 c38 38 43 58
23 96 -35 68 -72 340 -46 339 4 -1 18 -7 32 -14 21 -12 26 -12 35 1 6 8 31 17
55 20 103 13 135 55 135 178 0 69 -4 88 -30 140 -24 49 -38 64 -75 83 -24 12
-59 38 -78 56 -21 22 -52 40 -86 50 -41 12 -64 28 -105 71 -29 30 -61 74 -71
97 -17 40 -18 48 -4 118 18 96 18 154 -1 216 -8 27 -15 74 -15 105 0 46 6 65
36 115 36 59 81 114 95 114 4 0 36 -21 71 -47z m-2926 6 c9 -16 -46 -69 -72
-69 -26 0 -57 27 -48 42 17 28 107 48 120 27z m184 -39 c0 -5 -15 -37 -34 -71
-38 -69 -41 -68 -69 29 l-16 52 60 0 c32 0 59 -4 59 -10z m3455 -50 c25 -28
16 -32 -45 -19 l-54 11 30 13 c40 18 48 18 69 -5z m5045 -10 c36 -18 77 -57
69 -64 -10 -10 -179 -54 -269 -71 -75 -14 -103 -15 -135 -6 -60 16 -83 35 -69
58 33 55 232 119 329 106 22 -3 56 -13 75 -23z m-4543 -12 c29 -32 45 -67 39
-84 -8 -22 -23 -17 -64 21 -21 19 -52 39 -68 46 l-29 11 35 13 c50 19 64 18
87 -7z m-3097 -8 c0 -43 -281 -201 -416 -234 -73 -18 -195 -18 -200 -1 -4 14
108 85 191 120 39 17 91 42 115 56 25 15 61 31 80 37 80 26 230 40 230 22z
m-661 -26 c2 -2 -4 -13 -14 -24 -13 -14 -31 -20 -62 -20 -48 0 -53 10 -23 40
17 17 28 19 58 14 20 -4 39 -8 41 -10z m7596 -23 c8 -16 46 -63 84 -104 38
-41 71 -83 75 -93 5 -19 36 -260 36 -286 0 -8 -47 32 -105 89 l-105 103 0 71
c0 39 -9 106 -20 150 -12 44 -18 84 -15 89 12 19 35 10 50 -19z m-6441 -32
c15 -11 36 -39 47 -60 11 -22 31 -45 44 -51 30 -13 47 0 107 80 21 28 45 52
53 52 23 0 18 -13 -29 -78 -92 -124 -94 -154 -18 -202 l47 -30 25 28 c14 15
44 49 68 76 l42 49 51 -51 c49 -50 51 -54 47 -96 -4 -32 -22 -69 -67 -136 -33
-51 -61 -97 -61 -103 0 -18 43 -57 62 -57 39 0 58 -19 58 -57 0 -29 -8 -44
-45 -80 l-44 -45 -49 36 c-27 20 -60 37 -73 38 -22 3 -24 -1 -27 -47 -4 -56
13 -132 33 -155 33 -36 34 -64 8 -139 -27 -78 -25 -101 7 -101 16 0 20 -7 20
-30 0 -23 7 -33 30 -45 48 -25 65 -19 123 47 l55 62 52 -12 c28 -7 78 -12 111
-12 l60 0 -3 -47 c-3 -52 5 -45 -132 -125 -59 -35 -72 -39 -93 -29 -39 18 -50
14 -108 -44 -30 -30 -64 -55 -75 -55 -26 0 -47 33 -61 100 -15 73 -25 90 -54
90 -26 0 -65 -42 -65 -70 0 -23 -27 -29 -100 -23 l-60 6 0 66 c0 87 -7 110
-36 117 -29 7 -74 -19 -74 -43 0 -9 -12 -41 -26 -70 -18 -40 -25 -68 -22 -101
2 -43 0 -47 -21 -50 -18 -3 -37 10 -81 58 -48 52 -62 61 -86 58 -27 -3 -29 -6
-27 -44 2 -49 43 -154 78 -200 15 -19 40 -37 58 -42 45 -11 45 -33 2 -158
l-36 -105 20 -40 c12 -22 21 -41 21 -43 0 -3 -16 -14 -35 -26 -24 -15 -38 -32
-42 -52 -12 -61 -56 -41 -99 44 -39 78 -42 122 -9 183 37 67 30 85 -29 85 -52
0 -59 6 -128 109 -112 166 -240 340 -306 415 -39 44 -73 89 -76 102 -4 13 -19
44 -36 71 -30 49 -60 146 -60 194 0 25 62 162 93 203 12 16 15 6 25 -88 15
-135 56 -241 93 -241 52 0 78 120 38 175 -32 43 -19 84 68 212 66 97 116 188
137 252 6 17 10 14 41 -20 28 -32 34 -47 35 -84 0 -52 22 -90 51 -90 24 0 91
33 108 54 10 11 10 27 0 76 -12 64 -7 198 10 228 7 13 11 8 16 -23 3 -22 17
-74 31 -115 16 -52 24 -98 24 -148 0 -68 2 -76 30 -103 23 -24 37 -30 62 -27
28 2 34 8 36 31 4 31 27 36 42 8 5 -11 14 -52 20 -91 12 -84 45 -167 70 -175
20 -6 71 11 81 27 4 6 0 33 -7 62 -8 28 -17 80 -20 116 -8 79 -17 94 -106 178
-122 116 -134 169 -63 278 25 37 45 74 45 81 0 15 29 32 56 33 12 0 33 -9 48
-21z m2366 1 c22 -11 40 -22 40 -25 0 -6 -83 20 -106 33 -36 22 23 14 66 -8z
m-1621 -90 c67 -49 121 -94 121 -99 0 -14 -63 -31 -135 -38 -51 -4 -64 -2 -86
16 -48 37 -71 211 -28 211 4 0 62 -40 128 -90z m4502 49 c16 -11 29 -30 29
-41 0 -27 -40 -98 -56 -98 -20 0 -39 59 -26 81 7 10 12 32 12 49 0 36 3 36 41
9z m-3333 -57 c18 -24 27 -50 30 -89 4 -53 4 -55 -15 -44 -25 13 -53 55 -53
79 0 11 -11 40 -25 66 -14 26 -25 49 -25 52 0 13 65 -35 88 -64z m-3539 23
c83 -27 119 -44 152 -73 63 -56 51 -65 -83 -60 -100 4 -112 7 -149 34 -48 34
-104 107 -95 123 12 19 63 12 175 -24z m-679 3 c33 -21 33 -23 12 -26 -25 -4
-92 16 -92 27 0 28 35 27 80 -1z m6898 -15 c46 -91 55 -141 49 -259 -8 -145
-24 -239 -47 -267 -18 -22 -23 -22 -237 -22 -205 0 -223 2 -295 25 -43 13 -78
28 -78 33 0 4 23 32 51 62 88 93 152 97 246 14 73 -64 98 -75 129 -54 18 12
24 25 24 54 0 23 8 48 20 64 27 34 25 51 -6 76 -38 30 -99 44 -172 39 l-64 -4
26 19 c37 27 55 67 62 136 4 32 9 64 13 69 5 8 190 46 248 51 7 1 21 -16 31
-36z m-2067 -39 c13 -26 32 -51 42 -55 9 -5 25 -13 35 -18 10 -5 19 -25 23
-53 4 -25 12 -55 18 -66 14 -27 14 -39 -1 -24 -7 7 -29 12 -50 12 l-38 0 6 38
c5 34 3 42 -21 60 -15 12 -41 22 -58 22 -30 0 -30 0 -23 46 3 26 6 55 6 65 0
37 36 21 61 -27z m3748 -364 c0 -425 -8 -553 -37 -583 -26 -26 -42 -14 -35 26
3 22 -5 56 -28 112 -47 117 -45 172 17 430 13 55 24 114 24 130 0 17 7 43 15
59 10 19 15 56 14 110 0 44 3 90 7 100 7 19 8 19 15 0 4 -10 8 -183 8 -384z
m948 368 c17 -18 36 -43 42 -55 10 -21 9 -23 -11 -23 -12 0 -32 -10 -44 -21
-22 -20 -25 -21 -56 -7 -18 9 -49 19 -69 22 -37 7 -89 40 -89 56 0 12 66 30
111 30 19 0 44 7 55 15 26 20 26 20 61 -17z m-3572 -8 c-3 -5 -12 -7 -20 -3
-21 7 -19 13 6 13 11 0 18 -4 14 -10z m-6735 -24 c-30 -37 -200 -69 -226 -43
-14 13 18 27 66 28 25 0 68 7 95 14 71 18 80 18 65 1z m10017 -66 c47 -42 103
-78 180 -116 81 -39 120 -65 139 -90 39 -51 55 -57 109 -38 31 10 50 12 58 5
7 -5 35 -31 64 -58 29 -26 85 -66 125 -87 98 -52 108 -62 108 -106 0 -39 -18
-62 -57 -74 -12 -4 -61 -50 -109 -102 -92 -100 -120 -116 -163 -92 -14 9 -37
18 -51 21 -33 8 -87 64 -119 124 -21 38 -33 49 -61 55 -20 4 -65 21 -100 37
-36 17 -74 31 -86 31 -29 0 -88 45 -156 119 -71 76 -77 111 -25 137 83 42 86
74 21 186 -25 43 -43 85 -40 93 4 10 20 15 50 15 41 0 51 -6 113 -60z m-2817
21 c0 -22 -26 -58 -89 -123 -50 -53 -61 -58 -61 -28 0 23 -34 95 -50 105 -37
23 56 62 153 64 40 1 47 -2 47 -18z m-760 -58 c27 -34 12 -50 -28 -29 -30 15
-46 39 -35 50 14 14 43 4 63 -21z m220 -58 c63 -39 76 -41 149 -19 73 21 102
8 135 -59 19 -38 23 -54 15 -64 -17 -19 -69 -16 -129 9 -47 19 -57 20 -98 9
-49 -13 -62 -6 -62 32 0 11 -20 39 -46 63 -25 24 -42 49 -39 54 9 15 17 13 75
-25z m-5126 -56 c-57 -61 -68 -63 -319 -69 -126 -3 -237 -9 -245 -14 -8 -6
-21 -18 -28 -28 -16 -21 -42 -24 -42 -4 0 26 56 62 141 91 73 24 105 29 241
34 86 3 160 9 164 14 4 4 32 7 63 7 l55 0 -30 -31z m522 -16 c-11 -11 -19 6
-11 24 8 17 8 17 12 0 3 -10 2 -21 -1 -24z m1831 -29 c2 -10 10 -59 19 -109
l17 -90 -27 -52 c-14 -29 -26 -61 -26 -71 0 -25 -34 -55 -56 -50 -27 5 -96
131 -102 185 -7 61 15 100 92 163 63 52 79 57 83 24z m-1969 -9 c1 -11 -2 -27
-8 -35 -9 -13 -14 -11 -35 13 -33 38 -31 49 8 45 23 -2 33 -8 35 -23z m-268
-51 c0 -18 -45 -154 -61 -186 -27 -52 -24 -85 11 -124 19 -22 27 -40 23 -51
-12 -35 -55 -84 -96 -110 -23 -15 -48 -34 -54 -42 -33 -39 4 -171 54 -194 22
-10 28 -8 49 16 13 16 24 40 24 55 l0 27 26 -27 c29 -28 27 -48 -7 -92 -12
-15 -31 -26 -45 -26 -14 0 -43 -9 -65 -21 -57 -29 -155 -34 -265 -15 -69 12
-98 13 -122 5 -27 -9 -40 -7 -87 15 -66 30 -77 51 -94 171 -6 44 -14 96 -16
115 l-5 35 32 -37 c49 -54 97 -139 111 -194 15 -62 43 -70 87 -25 28 28 30 35
29 98 -1 55 4 78 24 118 14 28 33 92 43 143 9 52 25 103 35 116 23 29 114 56
215 63 81 6 75 1 89 84 6 37 38 89 56 89 5 0 9 -3 9 -6z m4060 -19 c0 -8 -6
-15 -14 -15 -17 0 -28 14 -19 24 12 12 33 6 33 -9z m603 -51 c2 -13 1 -27 -4
-30 -11 -6 -42 54 -34 67 10 15 32 -7 38 -37z m-178 -15 c25 -46 22 -144 -5
-207 -12 -28 -20 -58 -17 -66 12 -31 -19 -4 -46 40 -25 42 -29 44 -60 39 -24
-5 -39 -1 -56 12 l-23 19 26 48 c14 27 26 55 26 62 0 8 16 14 43 16 37 3 44 7
56 36 18 40 36 41 56 1z m-4226 2 c22 -14 5 -40 -41 -61 -24 -11 -68 -33 -98
-50 -51 -28 -55 -29 -58 -11 -4 26 32 96 60 115 24 17 114 22 137 7z m3941
-24 c-1 -46 -53 -82 -102 -72 l-30 7 29 18 c15 9 41 31 57 48 31 34 46 33 46
-1z m-4665 -36 c0 -7 -25 -32 -55 -55 -51 -39 -56 -46 -65 -100 l-10 -57 -40
41 -39 40 19 36 c22 41 35 49 92 59 29 4 47 14 58 31 16 26 40 28 40 5z m3019
-77 c8 -20 -25 -79 -43 -79 -8 0 -19 8 -25 17 -8 14 -5 23 19 48 33 34 40 36
49 14z m-3358 -30 c14 -77 -5 -141 -69 -231 -18 -27 -30 -59 -35 -99 l-7 -59
-57 -5 c-31 -3 -62 -10 -69 -17 -25 -25 24 -113 63 -113 25 0 108 47 108 60 0
24 32 6 59 -33 40 -59 104 -115 158 -139 25 -11 43 -21 41 -23 -4 -5 -227 21
-297 35 -29 5 -71 10 -92 10 -31 0 -59 14 -146 73 -59 40 -109 79 -111 87 -3
17 258 369 327 441 40 41 53 49 84 49 33 0 37 -3 43 -36z m6389 -123 c124 -91
339 -271 343 -287 4 -18 -53 -100 -84 -120 -34 -23 -71 -11 -116 37 -35 36
-88 126 -88 147 0 4 15 16 34 24 37 18 51 51 31 72 -8 7 -47 22 -87 31 -95 23
-107 30 -124 70 -7 18 -23 36 -34 40 -14 4 -20 15 -20 34 0 54 9 51 145 -48z
m-889 7 c-8 -78 -24 -140 -35 -133 -13 8 -44 142 -36 155 6 10 59 38 74 40 2
0 1 -28 -3 -62z m184 21 c6 -11 10 -25 8 -31 -5 -14 -38 19 -38 38 0 21 18 17
30 -7z m-2906 -43 l21 -28 -24 -19 c-24 -20 -59 -23 -126 -10 l-40 7 64 42
c36 23 69 41 75 39 5 -2 19 -16 30 -31z m-3115 0 c-2 -2 -42 -23 -89 -47 -47
-24 -104 -63 -127 -86 -48 -50 -59 -54 -38 -14 15 31 78 86 130 115 46 26 147
52 124 32z m1416 -71 c3 -25 22 -76 41 -112 50 -94 35 -121 -33 -59 -33 30
-37 39 -41 94 -5 68 4 135 17 127 5 -2 12 -25 16 -50z m2249 -12 c8 -31 -9
-212 -21 -224 -9 -9 -20 -4 -47 24 -40 39 -43 52 -21 93 8 16 15 37 15 47 0
54 61 103 74 60z m1801 -27 c28 -13 64 -39 81 -57 17 -19 43 -42 58 -52 32
-22 73 -85 99 -152 42 -110 -23 -186 -102 -119 -28 23 -31 32 -31 80 0 45 -5
59 -29 86 -16 18 -34 52 -40 74 -8 29 -29 59 -73 102 -57 56 -61 62 -38 62 14
0 48 -11 75 -24z m570 -117 c17 -21 25 -41 23 -58 -4 -32 -36 -41 -55 -15 -15
20 -18 104 -4 104 5 0 21 -14 36 -31z m-2195 -36 c0 -69 -12 -96 -29 -65 -14
26 -14 77 -1 103 19 34 30 20 30 -38z m-2296 -66 c52 -68 74 -233 37 -278
l-19 -24 -11 42 c-12 44 -34 63 -70 63 -12 0 -38 16 -60 35 -21 19 -45 35 -54
35 -21 0 -57 -47 -57 -74 0 -23 -35 -86 -48 -86 -17 0 -19 11 -10 73 12 93 15
97 52 97 41 0 70 29 64 65 -5 24 -3 25 46 25 47 0 53 3 69 30 10 17 22 30 27
30 5 0 20 -15 34 -33z m7222 -146 c-23 -23 -26 -23 -26 -6 0 10 10 30 23 43
19 21 22 21 25 7 2 -10 -8 -29 -22 -44z m-5077 36 c-2 -2 -22 -14 -44 -26
l-40 -23 28 26 c15 14 35 26 44 26 9 0 14 -1 12 -3z m-2579 -110 c-18 -28 -43
-67 -57 -85 l-24 -33 -25 36 c-13 20 -24 42 -24 50 0 17 63 69 115 95 34 17
40 18 43 5 2 -8 -11 -39 -28 -68z m3814 11 c-22 -38 -69 -98 -76 -98 -12 0 16
50 47 83 27 28 41 36 29 15z m334 4 c19 -13 25 -71 17 -158 -7 -75 -8 -78 -51
-117 -44 -40 -64 -83 -64 -142 -1 -22 -3 -26 -9 -15 -5 8 -11 74 -15 145 -4
72 -10 146 -15 167 -10 44 7 86 47 111 29 18 69 22 90 9z m919 -68 c3 -8 4
-17 1 -19 -8 -8 -79 46 -73 55 8 13 64 -16 72 -36z m-6167 16 c0 -5 -7 -10
-15 -10 -8 0 -15 5 -15 10 0 6 7 10 15 10 8 0 15 -4 15 -10z m3290 -7 c0 -31
-49 -100 -80 -113 -39 -16 -126 -8 -171 16 l-34 18 62 12 c35 8 95 29 135 48
86 40 88 41 88 19z m-1520 -180 c0 -43 -8 -96 -20 -135 -37 -119 -20 -161 67
-162 l45 -1 2 65 c1 78 18 93 30 28 7 -37 5 -62 -7 -108 -25 -87 -22 -136 8
-165 42 -43 69 -31 85 39 23 104 48 135 74 93 8 -12 2 -31 -24 -82 -42 -79
-38 -84 65 -86 92 -1 119 -10 123 -37 5 -33 -24 -38 -74 -13 -61 29 -87 27
-117 -9 -14 -16 -32 -30 -40 -30 -16 0 -79 43 -149 101 -47 39 -94 59 -141 59
-22 0 -39 11 -67 41 -43 48 -72 49 -104 6 l-21 -28 20 -37 c27 -50 86 -88 169
-109 61 -16 71 -22 77 -45 12 -47 -5 -52 -158 -43 -75 4 -142 9 -149 12 -8 3
-14 15 -14 28 0 12 -18 45 -41 74 -31 39 -42 63 -48 104 -9 65 -16 77 -45 77
-36 0 -58 22 -54 55 3 27 7 30 40 33 24 2 60 -7 100 -24 94 -40 123 -42 143
-10 12 18 15 36 11 58 -7 41 -1 50 50 76 85 43 117 112 89 191 -16 47 -11 79
23 146 l15 30 19 -60 c10 -34 18 -92 18 -132z m4140 168 c5 -11 10 -30 10 -43
l-1 -23 -19 24 c-21 24 -27 61 -10 61 5 0 14 -9 20 -19z m-910 -51 c0 -11 -4
-20 -10 -20 -5 0 -10 9 -10 20 0 11 5 20 10 20 6 0 10 -9 10 -20z m524 -30
c82 -76 133 -197 147 -348 5 -57 14 -112 19 -123 15 -26 -8 -77 -56 -123 -58
-56 -80 -58 -126 -7 -20 24 -51 64 -68 89 -31 45 -31 50 -25 124 5 61 3 83
-10 108 -15 29 -15 37 -1 100 9 38 16 95 16 126 0 59 18 94 47 94 7 0 33 -18
57 -40z m564 -288 c14 -41 13 -45 -7 -72 -11 -16 -23 -46 -26 -67 -3 -26 -28
-72 -76 -142 -111 -160 -127 -224 -92 -356 16 -59 16 -67 -1 -127 -9 -35 -21
-69 -25 -77 -6 -9 -39 -15 -100 -19 l-91 -5 0 38 c0 21 -7 101 -16 179 -18
159 -27 135 71 200 65 43 162 158 176 208 5 22 24 73 40 114 l30 75 -21 138
c-31 214 -31 215 52 76 39 -66 77 -140 86 -163z m-3286 238 c-27 -25 -82 -42
-82 -25 0 6 92 54 105 54 6 0 -5 -13 -23 -29z m-1602 -34 c0 -8 -4 -17 -9 -21
-12 -7 -24 12 -16 25 9 15 25 12 25 -4z m316 -61 c-3 -8 -14 -19 -25 -25 -18
-9 -21 -8 -21 7 0 10 10 34 22 53 l23 35 3 -28 c2 -16 1 -35 -2 -42z m4778
-70 c18 -37 22 -190 6 -215 -10 -17 -11 -15 -30 65 -13 58 -83 210 -109 240
-42 47 -30 45 42 -4 48 -33 81 -64 91 -86z m-3299 79 l40 -25 -57 4 c-56 3
-93 21 -82 38 10 17 59 9 99 -17z m2021 -118 c-1 -157 4 -166 105 -166 62 0
71 -3 105 -32 42 -37 41 -50 -3 -147 l-28 -60 -135 44 c-159 53 -207 78 -233
123 -28 48 -24 75 20 129 22 26 55 74 74 106 30 52 86 127 93 127 2 0 3 -56 2
-124z m-1711 40 c-5 -35 -3 -56 4 -60 24 -15 2 -186 -24 -186 -8 0 -19 9 -25
19 -15 30 -34 153 -27 181 6 23 62 100 73 100 3 0 2 -24 -1 -54z m-2687 5 c8
-5 24 -37 36 -71 25 -75 40 -83 115 -64 30 8 56 12 59 9 9 -8 -58 -73 -108
-105 -25 -16 -65 -36 -90 -46 -25 -9 -66 -32 -92 -51 l-46 -33 -8 32 c-10 46
-6 182 7 246 6 30 19 62 30 73 20 20 73 25 97 10z m2146 -22 c34 -27 21 -42
-24 -29 -47 13 -64 25 -56 39 11 18 51 13 80 -10z m216 -102 c0 -20 -62 -89
-109 -121 -23 -16 -57 -30 -77 -32 -43 -3 -64 -19 -64 -50 0 -31 14 -38 76
-35 29 1 55 -2 58 -8 7 -11 -38 -72 -131 -178 -35 -40 -63 -77 -63 -83 0 -13
60 -50 81 -50 9 0 24 12 34 26 11 18 20 23 27 16 9 -9 37 -184 38 -233 0 -9 8
-27 18 -39 17 -21 21 -22 55 -9 30 11 43 11 72 0 19 -7 45 -9 56 -6 19 6 21
12 15 49 -4 22 -9 75 -12 116 -6 89 5 117 56 134 41 14 117 64 172 114 21 19
40 33 43 30 6 -5 -42 -325 -60 -406 -8 -34 -23 -79 -34 -100 -35 -68 -192
-262 -212 -262 -4 0 -36 26 -71 58 -84 76 -114 89 -180 74 -77 -18 -113 -15
-147 14 -32 27 -101 154 -101 186 0 11 -18 73 -40 138 l-39 119 19 77 c41 160
141 309 247 366 27 15 85 39 128 53 44 14 91 32 105 40 31 18 40 18 40 2z
m3578 -71 c23 -22 42 -46 42 -54 0 -8 30 -45 66 -82 l65 -68 -11 -139 c-6 -76
-16 -152 -21 -170 -14 -43 -98 -117 -157 -138 -26 -10 -59 -22 -74 -27 -18 -7
-37 -30 -61 -76 -20 -37 -47 -78 -61 -91 l-26 -24 0 52 c0 28 -7 66 -16 83
-12 24 -15 48 -11 97 10 120 36 284 46 294 15 15 38 -8 47 -46 17 -82 102
-193 140 -185 33 6 40 50 16 106 -12 27 -26 85 -30 129 -9 76 -17 96 -65 173
-26 42 -28 111 -3 194 l17 58 27 -23 c15 -13 46 -41 70 -63z m-3434 -101 c1
-86 -30 -159 -96 -229 -71 -73 -87 -59 -43 37 15 32 29 88 34 131 7 64 14 83
47 127 37 50 38 51 47 28 5 -13 10 -55 11 -94z m-684 -31 c-56 -57 -126 -114
-142 -114 -39 0 45 90 112 118 25 11 51 27 59 36 7 9 16 16 19 16 4 0 -18 -25
-48 -56z m1151 24 c-4 -12 -14 -24 -21 -26 -9 -3 -11 1 -7 12 4 10 7 22 7 27
0 5 7 9 15 9 11 0 12 -6 6 -22z m-2725 -64 l28 -36 -17 -48 c-25 -70 -22 -170
8 -254 13 -39 23 -72 20 -74 -2 -2 -26 11 -52 30 -26 19 -56 38 -66 41 -23 8
-56 -24 -64 -63 -6 -34 -10 -36 -41 -14 -22 15 -23 22 -20 120 2 103 2 104
-28 135 l-29 31 40 35 c43 38 175 132 187 132 4 1 19 -15 34 -35z m335 0 c9
-8 19 -28 23 -44 3 -20 22 -42 55 -67 28 -21 49 -44 48 -52 -3 -18 -64 -50
-110 -58 -30 -5 -37 -2 -52 23 -9 16 -41 47 -71 68 -61 45 -70 77 -31 114 45
43 101 49 138 16z m2536 -125 c43 -113 43 -121 -4 -117 l-38 3 -7 60 c-5 33
-12 73 -18 89 -11 31 3 60 24 53 6 -2 25 -42 43 -88z m-219 4 c11 -16 27 -52
36 -81 18 -52 34 -69 160 -175 21 -17 31 -36 35 -68 5 -35 11 -46 34 -57 46
-22 60 -9 90 80 34 102 34 111 0 138 l-27 21 23 46 22 46 30 -64 c17 -35 41
-78 55 -96 16 -22 24 -45 24 -73 0 -22 7 -52 17 -66 13 -21 203 -170 251 -198
9 -5 24 2 43 20 33 32 36 58 14 149 -18 74 -5 95 31 50 44 -54 57 -65 80 -65
13 0 32 -14 49 -36 15 -20 51 -51 81 -70 65 -42 99 -85 114 -146 24 -94 -29
-138 -165 -138 -95 0 -111 9 -89 52 14 27 14 32 -1 48 -9 10 -37 20 -68 23
-51 6 -87 31 -87 62 0 6 -9 20 -19 30 -19 16 -22 16 -68 -22 -112 -91 -148
-87 -338 40 -158 105 -248 188 -288 265 -43 83 -64 150 -73 242 -7 77 2 89 34
43z m-1238 -108 c-6 -8 -36 -23 -66 -35 -63 -23 -64 -23 -64 -11 0 12 99 61
123 61 16 0 17 -3 7 -15z m-313 -10 c34 -24 62 -78 71 -136 l8 -54 59 1 c41 1
78 10 119 28 88 39 102 36 132 -29 14 -31 32 -93 41 -138 18 -102 39 -149 93
-210 67 -75 118 -100 217 -105 90 -5 113 -19 113 -69 0 -33 -40 -46 -125 -40
-76 4 -138 31 -250 106 -64 43 -99 50 -164 31 -42 -12 -51 -24 -51 -72 0 -51
39 -96 91 -104 42 -7 60 -34 38 -60 -22 -26 -120 1 -221 62 -32 19 -96 48
-143 64 -99 33 -182 81 -255 147 -61 55 -78 84 -86 156 -8 66 5 93 48 102 80
17 160 90 137 126 -19 30 -8 67 41 137 28 40 54 72 58 72 4 0 17 -7 29 -15z
m-925 -22 c8 -10 18 -30 22 -45 11 -46 40 -56 187 -67 188 -14 310 -43 323
-76 3 -9 -9 -31 -27 -52 l-32 -37 3 -124 c3 -133 -2 -152 -44 -152 -18 0 -27
9 -38 34 -19 45 -53 66 -109 68 -59 1 -67 -6 -67 -53 0 -72 -29 -43 -48 47 -6
28 -40 109 -76 180 -71 143 -126 267 -126 283 0 16 15 13 32 -6z m5816 1 c22
-15 31 -64 11 -64 -27 0 -49 22 -49 50 0 34 6 36 38 14z m-1333 -198 c4 -36
10 -109 14 -163 l7 -98 -54 -109 c-76 -154 -124 -226 -192 -289 -92 -86 -144
-93 -205 -30 -59 62 -97 183 -57 183 24 0 45 -23 74 -85 26 -56 55 -75 114
-75 47 0 64 14 64 51 0 30 -15 52 -120 169 -112 125 -120 137 -120 182 0 32 4
41 21 45 11 3 25 16 29 29 6 16 15 22 25 18 34 -13 110 29 185 102 69 67 167
133 197 134 7 0 14 -26 18 -64z m1303 12 c6 -24 13 -72 17 -108 l6 -65 -30 55
c-29 53 -39 117 -25 154 9 24 20 11 32 -36z m-5961 -92 c155 -117 188 -156
137 -164 -33 -5 -207 154 -248 226 -16 27 18 8 111 -62z m3323 65 c0 -14 -18
-23 -30 -16 -6 4 -8 11 -5 16 8 12 35 12 35 0z m696 -188 c7 -2 20 -26 28 -51
40 -128 67 -225 64 -234 -2 -5 -23 5 -47 23 -31 25 -57 59 -91 125 -26 50 -51
105 -55 123 l-7 34 47 -8 c26 -3 54 -9 61 -12z m-1463 -33 c18 -21 28 -47 32
-87 4 -32 16 -93 26 -137 22 -86 26 -177 11 -216 -6 -14 -31 -52 -57 -84 -38
-50 -45 -66 -43 -95 3 -32 8 -39 48 -57 50 -24 70 -40 70 -55 0 -5 -27 -39
-61 -75 -33 -36 -70 -85 -80 -110 -14 -31 -31 -50 -58 -64 -21 -10 -55 -42
-75 -70 -45 -63 -66 -63 -83 0 -16 62 -15 119 2 225 8 50 12 110 9 135 -6 51
-4 55 93 173 90 111 102 150 106 355 5 206 11 221 60 162z m296 -25 c24 -19
41 -35 37 -35 -9 0 -96 59 -96 65 0 12 18 2 59 -30z m2076 1 c-18 -27 -42 -40
-49 -27 -9 14 24 51 45 51 18 0 19 -1 4 -24z m-4632 -210 c21 -9 79 -21 130
-26 122 -13 159 -19 176 -33 8 -7 57 -15 110 -18 84 -5 105 -10 158 -38 33
-18 76 -45 94 -61 l34 -29 -37 -1 c-21 0 -88 7 -149 16 -61 8 -118 13 -125 10
-17 -6 -54 -79 -54 -105 0 -42 30 -46 283 -43 130 1 237 0 237 -3 0 -2 -17
-12 -37 -20 -21 -9 -45 -23 -55 -32 -10 -9 -68 -29 -130 -45 -108 -28 -115
-29 -158 -15 -25 9 -75 17 -111 20 -52 4 -82 13 -140 43 -95 50 -352 221 -403
268 -34 32 -37 39 -25 51 18 18 149 86 157 82 4 -2 24 -11 45 -21z m3606 -75
c11 -7 13 -32 9 -122 -6 -119 -20 -169 -48 -169 -25 0 -43 19 -98 101 -28 42
-64 86 -79 97 -35 26 -24 40 43 51 27 4 65 17 84 29 37 23 66 27 89 13z
m-3892 -91 c21 -42 36 -91 42 -139 7 -50 16 -80 30 -95 11 -12 35 -55 54 -96
19 -41 51 -98 70 -127 20 -28 39 -64 43 -80 14 -62 55 -112 147 -182 114 -86
209 -179 205 -200 -5 -24 -54 -25 -86 -2 -15 10 -59 29 -97 41 -81 26 -106 43
-235 160 -210 189 -338 290 -372 290 -12 0 -24 -12 -32 -31 -15 -35 -11 -62
10 -80 17 -14 18 -53 2 -66 -7 -5 -83 -18 -170 -27 -153 -17 -157 -17 -200 2
-49 22 -168 107 -168 121 0 27 223 110 322 119 32 2 62 10 67 16 4 6 20 49 35
96 35 110 63 149 166 233 47 38 92 80 100 93 8 13 19 23 25 21 5 -1 24 -32 42
-67z m2153 -85 c-7 -8 -17 -12 -22 -9 -5 3 -1 15 9 26 20 22 32 6 13 -17z
m-826 -118 c-7 -19 -64 -51 -64 -36 0 7 7 21 17 31 19 21 55 25 47 5z m474
-24 c2 -8 -5 -13 -17 -13 -11 0 -26 -9 -33 -20 -7 -11 -23 -20 -35 -20 -29 0
-63 -33 -63 -62 0 -12 10 -33 23 -46 20 -23 20 -24 3 -18 -11 4 -46 9 -78 13
-50 5 -58 9 -58 27 0 37 36 84 71 91 17 4 53 20 78 37 47 30 100 35 109 11z
m-1523 -23 c26 -11 56 -20 68 -20 12 0 47 -17 77 -37 32 -22 82 -44 119 -53
61 -15 65 -18 78 -55 14 -41 39 -75 56 -75 5 0 29 18 53 40 30 28 53 40 73 40
38 0 156 25 242 51 115 35 118 -1 5 -55 -83 -40 -191 -134 -234 -205 l-30 -48
46 -45 c92 -88 133 -99 183 -49 38 38 37 54 -6 92 -41 38 -43 45 -12 55 12 4
39 22 60 40 22 18 69 48 105 68 50 26 72 44 87 72 21 40 95 103 157 135 21 11
38 18 39 17 0 -2 1 -38 2 -80 2 -90 20 -122 85 -153 23 -11 42 -25 42 -31 0
-19 -56 -49 -146 -80 l-81 -28 -60 27 c-76 34 -157 37 -173 8 -20 -38 -11 -74
27 -113 l36 -37 -46 -20 c-70 -30 -146 -51 -187 -51 -137 0 -523 187 -564 274
-9 19 -16 41 -16 50 0 29 -39 114 -85 187 -48 74 -61 99 -52 99 3 0 26 -9 52
-20z m1595 -135 c-7 -8 -37 -27 -67 -41 -50 -25 -56 -26 -70 -11 -14 14 -14
17 -2 22 65 24 126 44 138 44 11 1 11 -2 1 -14z m889 -109 c17 -160 23 -176
75 -208 25 -14 51 -40 60 -56 13 -26 13 -35 0 -77 -7 -27 -14 -61 -14 -76 0
-16 -14 -46 -34 -72 -19 -24 -43 -65 -54 -91 -23 -50 -72 -87 -167 -126 -75
-30 -85 -25 -78 43 5 48 3 56 -18 76 -13 12 -43 27 -65 33 -31 9 -45 19 -55
42 -20 42 -61 70 -93 62 -29 -7 -82 -89 -92 -144 -8 -40 2 -63 50 -120 20 -24
36 -48 36 -53 0 -5 -12 -11 -27 -15 -55 -11 -74 -25 -89 -61 -12 -27 -13 -42
-5 -60 13 -28 11 -28 96 2 39 13 84 25 102 25 63 0 134 -22 169 -52 33 -30 37
-30 103 -24 88 9 92 4 75 -94 -8 -41 -17 -95 -21 -119 -5 -37 -16 -54 -68
-105 -33 -34 -101 -113 -150 -176 -154 -199 -177 -223 -263 -269 -44 -23 -89
-56 -101 -72 -12 -16 -35 -36 -51 -44 l-30 -16 0 40 c0 35 -6 45 -52 86 -71
62 -138 92 -222 101 -66 6 -68 7 -39 19 36 15 100 87 137 154 33 62 33 64 -73
133 -72 47 -93 54 -125 42 -25 -10 -20 -72 9 -110 14 -18 25 -38 25 -44 0 -11
-95 -60 -117 -60 -18 0 -28 25 -48 114 -10 47 -14 92 -10 114 10 56 56 137
140 252 109 147 127 189 126 294 0 65 5 103 25 163 14 43 41 152 60 242 50
239 69 274 194 355 70 46 83 47 65 3 -8 -18 -21 -75 -30 -126 -18 -102 -36
-155 -74 -216 -13 -22 -26 -60 -28 -85 -5 -53 30 -304 48 -342 17 -38 64 -56
98 -37 33 19 37 51 21 195 -16 136 -8 159 62 188 l47 19 47 -36 c53 -42 65
-44 86 -19 31 35 42 69 48 147 l5 80 44 6 c51 7 75 31 92 92 6 23 18 56 27 72
15 30 92 124 103 125 3 0 11 -51 18 -114z m1488 -68 c-3 -7 -5 -2 -5 12 0 14
2 19 5 13 2 -7 2 -19 0 -25z m-2521 -194 c11 -59 -3 -134 -40 -224 -20 -47
-36 -98 -36 -115 0 -33 -32 -110 -56 -137 -9 -9 -40 -28 -70 -43 -32 -16 -95
-65 -154 -121 -84 -79 -105 -94 -132 -94 -40 0 -106 -30 -131 -57 -17 -20 -17
-21 8 -51 14 -16 25 -36 25 -44 0 -20 -58 -105 -83 -123 -33 -23 -44 -18 -61
28 -10 23 -33 68 -52 99 -39 64 -63 160 -67 267 -3 92 15 113 87 109 l51 -3
16 -63 c18 -71 41 -102 75 -102 34 0 43 26 37 102 -7 81 9 113 59 123 56 11
78 27 133 101 67 89 105 159 105 194 0 15 10 36 24 49 26 25 224 139 243 140
7 1 15 -15 19 -35z m-560 -235 c50 -13 64 -30 43 -55 -22 -27 -66 -44 -192
-75 -67 -16 -160 -42 -207 -56 -57 -18 -118 -29 -185 -32 l-100 -6 -6 -30 c-5
-24 -7 -19 -8 22 -1 73 34 113 127 144 37 12 90 35 118 51 29 16 71 33 95 37
65 13 264 13 315 0z m-742 -572 c15 -32 25 -61 22 -64 -3 -3 -20 9 -37 28 -65
68 -149 289 -149 389 0 40 5 50 38 81 20 19 48 42 62 51 l25 15 5 -221 c6
-217 6 -222 34 -279z m2393 211 c-3 -7 -5 -2 -5 12 0 14 2 19 5 13 2 -7 2 -19
0 -25z m-2192 -29 l60 0 -40 -32 c-22 -18 -52 -44 -68 -59 l-28 -28 -19 43
c-21 44 -24 65 -14 91 5 14 8 14 27 1 13 -9 45 -15 82 -16z m184 -272 c22 -59
43 -124 47 -144 l7 -36 -39 8 c-66 12 -103 32 -115 62 -30 75 -41 95 -75 133
-20 22 -35 42 -33 45 11 10 155 51 161 46 4 -4 25 -55 47 -114z m2022 -207
c10 -6 32 -38 49 -72 17 -33 44 -79 60 -101 35 -47 38 -77 11 -101 -16 -14
-30 -16 -79 -10 -57 6 -61 5 -77 -19 -27 -42 -16 -78 31 -101 l41 -19 -25 -45
c-31 -56 -35 -121 -8 -151 15 -16 31 -21 69 -21 l50 0 -6 -39 c-8 -63 -35
-107 -110 -177 -83 -79 -161 -119 -201 -105 -26 10 -31 22 -44 101 -8 49 -33
70 -86 70 -43 0 -277 137 -317 186 -18 22 38 67 129 104 94 39 108 51 117 98
l7 37 15 -30 c39 -77 112 -115 218 -115 60 0 95 21 95 56 0 34 -30 60 -95 80
-31 10 -67 28 -81 41 -31 28 -32 78 -2 110 26 27 35 28 59 7 39 -35 74 16 89
128 11 90 38 116 91 88z m-2497 -415 c3 -9 0 -15 -9 -15 -8 0 -15 7 -15 15 0
8 4 15 9 15 5 0 11 -7 15 -15z m1481 -26 c28 -16 67 -37 87 -47 21 -9 38 -20
38 -24 0 -18 -317 -24 -335 -6 -12 11 4 43 40 82 33 36 37 38 78 32 23 -4 65
-20 92 -37z m286 -848 c14 -47 7 -81 -24 -117 -35 -40 -62 -27 -52 24 9 47 45
132 56 132 4 0 13 -18 20 -39z"/>
</g>
</svg>
