<?xml version="1.0" encoding="UTF-8" standalone="no"?>
<!-- Created with Inkscape (http://www.inkscape.org/) -->

<svg
   xmlns:svg="http://www.w3.org/2000/svg"
   xmlns="http://www.w3.org/2000/svg"
   version="1.1"
   width="100%"
   height="100%"
   viewBox="0 0 40 40"
   id="Layer_1"
   xml:space="preserve"><defs
   id="defs41" />
<g
   id="g3">
	<polyline
   fill="none"
   stroke="#000000"
   stroke-miterlimit="10"
   points="14.7,38 15,34.8 17.5,31.4 16.9,27.2  "
   id="polyline5"
   style="fill:none;stroke:#000000;stroke-miterlimit:10" />
	<path
   d="m 20.8,30.3 c -0.2,-0.5 -0.4,-1.1 -0.8,-1.7 -0.1,-0.3 -0.3,-0.5 -0.4,-0.7 0.2,-0.2 0.5,-0.4 0.7,-0.8 0.2,-0.3 0.3,-0.6 0.3,-0.8 -0.6,-0.6 -1.1,-1.2 -1.7,-1.8"
   id="path7"
   style="fill:none;stroke:#000000;stroke-miterlimit:10" />
	<path
   d="m 17.5,31.4 c 0.2,-0.5 0.3,-1.2 0.4,-2 0,-1.2 -0.3,-2.1 -0.5,-2.6"
   id="path9"
   style="fill:none;stroke:#000000;stroke-miterlimit:10" />
	<path
   d="M 23.1,25.2"
   id="path11"
   style="fill:none;stroke:#000000;stroke-miterlimit:10" />
	<line
   fill="none"
   stroke="#000000"
   stroke-miterlimit="10"
   x1="20.6"
   y1="26.299999"
   x2="19.299999"
   y2="24.1"
   id="line13"
   style="fill:none;stroke:#000000;stroke-miterlimit:10" />
	<polyline
   stroke="#000000"
   stroke-miterlimit="10"
   points="21.7,21 23.8,21.8 28.5,22.1 30.3,22.5  "
   id="polyline15"
   style="stroke:#000000;stroke-miterlimit:10" />
	<g
   id="g17">
		<polyline
   fill="none"
   stroke="#000000"
   stroke-miterlimit="10"
   points="1.5,30.3 5.5,28 8.6,25.4 12.8,24.2   "
   id="polyline19"
   style="fill:none;stroke:#000000;stroke-miterlimit:10" />
		<path
   d="m 8.6,25.4 c 0.4,-0.3 1.1,-0.8 2,-1.1 1.1,-0.3 1.9,-0.7 2.5,-0.6"
   id="path21"
   style="fill:none;stroke:#000000;stroke-miterlimit:10" />
	</g>
	<line
   fill="none"
   stroke="#000000"
   stroke-miterlimit="10"
   x1="12.8"
   y1="19.200001"
   x2="14.4"
   y2="21"
   id="line23"
   style="fill:none;stroke:#000000;stroke-miterlimit:10" />
	<polyline
   fill="none"
   stroke="#000000"
   stroke-miterlimit="10"
   points="8.7,20.6 11,21.4 13.1,19  "
   id="polyline25"
   style="fill:none;stroke:#000000;stroke-miterlimit:10" />
	<path
   d="M 14.9,20.7 C 14.6,20.4 14.2,19.9 13.5,19.5 13.2,19.4 13,19.3 12.8,19.2"
   id="path27"
   style="fill:none;stroke:#000000;stroke-miterlimit:10" />
	<path
   d="M 6.8,36.1"
   id="path29"
   style="fill:none;stroke:#000000;stroke-miterlimit:10" />
	<path
   d="M 18.5,17.7 C 18.1,16.8 17.7,16 17.3,15.1 l 0.3,-3.4 c -0.2,-0.4 -0.3,-0.9 -0.5,-1.3"
   id="path31"
   style="fill:none;stroke:#000000;stroke-miterlimit:10" />
	<path
   d="m 7.1,36.2 -1,-0.8 c 1,-2.1 2.1,-4.2 3.4,-6.4 1.7,-3 3.5,-5.6 5.2,-8 0.5,-0.2 1.2,-0.9 2,-1.6 0.8,-0.7 1.4,-1.2 1.6,-1.7 0.8,-0.5 1.5,-0.9 2.3,-1.4 0.6,-0.2 1.2,-0.4 1.7,-0.6 0.4,0.3 0.7,0.6 1.1,0.9 -0.1,0.6 -0.2,1.2 -0.3,1.8 -0.5,0.9 -0.9,1.8 -1.4,2.7 -0.4,0.2 -0.9,0.6 -1.3,1.2 -0.3,0.4 -0.4,0.6 -0.6,1.1 -0.3,0.4 -0.7,1 -1.2,1.7 -0.8,0.9 -1.6,1.8 -2.4,2.7 -0.3,0.4 -0.7,0.8 -1,1.2 -2.5,3 -5.4,5.3 -8.1,7.2 z"
   id="path33"
   style="stroke:#000000;stroke-miterlimit:10" />
	<path
   d="m 22.5,15.7 c 1.3,-1.7 2.8,-4 4.1,-7 1.1,-2.6 1.7,-5 2.1,-6.9"
   id="path35"
   style="fill:none;stroke:#000000;stroke-miterlimit:10" />
	<path
   d="m 37.5,10.8 c -2.3,0.6 -5,1.4 -7.9,2.6 -2.3,1 -4.3,2.1 -6.1,3.1"
   id="path37"
   style="fill:none;stroke:#000000;stroke-miterlimit:10" />
</g>
</svg>