<?xml version="1.0" encoding="UTF-8" standalone="no"?>
<!-- Created with Inkscape (http://www.inkscape.org/) -->

<svg
   xmlns:svg="http://www.w3.org/2000/svg"
   xmlns="http://www.w3.org/2000/svg"
   version="1.2"
   width="612"
   height="792"
   viewBox="0 0 612 792"
   id="Layer_1"
   xml:space="preserve"><defs
   id="defs7" />
    
    <path
   d="m 261.3,403.9 5.55,-0.7 1.55,-1.351 c 0.434,-0.399 0.867,-0.783 1.3,-1.149 0.467,-0.4 0.95,-0.783 1.45,-1.15 0.5,-0.366 1,-0.733 1.5,-1.1 0.533,-0.367 1.084,-0.733 1.65,-1.101 0.566,-0.366 1.133,-0.717 1.7,-1.05 0.6,-0.366 1.199,-0.717 1.8,-1.05 l 5.899,-2.95 8,-3.149 7.301,-2.05 c 0.633,-0.166 1.233,-0.333 1.8,-0.5 0.566,-0.199 1.066,-0.383 1.5,-0.55 0.467,-0.166 0.883,-0.333 1.25,-0.5 0.399,-0.2 0.733,-0.399 1,-0.6 0.6,-0.4 1.05,-0.816 1.35,-1.25 0.134,-0.267 0.25,-0.517 0.351,-0.75 0.1,-0.267 0.166,-0.55 0.199,-0.851 0.167,-1.233 0.567,-1.983 1.2,-2.25 0.2,-0.1 0.417,-0.133 0.65,-0.1 0.3,-0.033 0.616,0.017 0.95,0.15 0.333,0.1 0.699,0.267 1.1,0.5 0.566,0.3 1.1,0.583 1.6,0.85 0.534,0.267 1.034,0.517 1.5,0.75 0.467,0.2 0.934,0.384 1.4,0.55 0.5,0.167 1,0.316 1.5,0.45 0.5,0.134 1.033,0.25 1.6,0.35 0.601,0.134 1.233,0.25 1.9,0.351 l 4.95,0.55 c 1.333,0.1 2.566,0.233 3.7,0.4 1.166,0.133 2.25,0.283 3.25,0.449 1,0.167 1.933,0.351 2.8,0.551 0.934,0.199 1.8,0.433 2.6,0.699 0.8,0.233 1.584,0.517 2.351,0.851 0.8,0.3 1.566,0.633 2.3,1 0.733,0.366 1.483,0.767 2.25,1.2 0.767,0.433 1.55,0.916 2.35,1.449 l 3.5,2.4 c 0.467,0.333 0.884,0.65 1.25,0.95 0.367,0.267 0.667,0.533 0.9,0.8 0.533,0.5 0.899,1 1.1,1.5 0.134,0.233 0.233,0.5 0.3,0.8 0.101,0.233 0.15,0.5 0.15,0.8 0.066,0.334 0.083,0.617 0.05,0.851 0.033,0.233 0.017,0.45 -0.05,0.649 -0.033,0.167 -0.083,0.317 -0.15,0.45 -0.233,0.434 -0.767,0.833 -1.6,1.2 -0.4,0.167 -0.85,0.333 -1.35,0.5 -0.5,0.133 -1.051,0.25 -1.65,0.35 l -2.35,0.45 -0.351,0.101 c -0.267,0.1 -0.666,0.217 -1.2,0.35 l -0.85,0.15 -8,0.75 -1.4,1.35 c -0.233,0.233 -0.483,0.45 -0.75,0.65 -0.233,0.199 -0.5,0.399 -0.8,0.6 -0.3,0.201 -0.6,0.383 -0.899,0.55 -0.334,0.167 -0.667,0.351 -1,0.55 -0.334,0.134 -0.7,0.283 -1.101,0.45 l -1.2,0.45 c -0.399,0.133 -0.733,0.25 -1,0.35 -0.3,0.067 -0.55,0.101 -0.75,0.101 -0.166,0 -0.3,-0.033 -0.399,-0.101 -0.101,-0.1 -0.167,-0.217 -0.2,-0.35 0,-0.066 -0.033,-0.117 -0.1,-0.15 H 326.4 l -0.25,0.051 c -0.133,0.033 -0.366,0.133 -0.7,0.3 l -2.5,1.2 c -0.333,0.166 -0.633,0.3 -0.899,0.399 -0.267,0.067 -0.533,0.117 -0.8,0.15 -0.267,0 -0.584,0.017 -0.95,0.05 h -0.2 c -0.467,-0.033 -0.833,-0.066 -1.1,-0.1 -0.301,-0.033 -0.483,-0.101 -0.551,-0.2 v -0.1 l 0.051,-0.1 0.149,-0.15 c 0.101,-0.166 0.25,-0.366 0.45,-0.6 l 4,-4.05 -0.95,0.149 -9.7,0.551 -11.149,-0.65 c -1.434,-0.167 -2.834,-0.283 -4.2,-0.35 -1.366,-0.101 -2.7,-0.15 -4,-0.15 h -0.5 c -1.366,0 -2.667,0.066 -3.9,0.2 -1.267,0.066 -2.449,0.2 -3.55,0.399 L 280,406.2 l -8.5,0.45 -0.4,1.1 c -0.2,0.5 -0.434,0.983 -0.7,1.45 -0.233,0.433 -0.483,0.85 -0.75,1.25 -0.267,0.399 -0.566,0.75 -0.899,1.05 -0.301,0.3 -0.617,0.55 -0.95,0.75 l -0.351,0.25 -0.3,0.15 -0.2,0.05 h -0.05 l -0.05,-0.15 -0.05,-1 c 0.033,-0.267 0.033,-0.483 0,-0.649 -0.033,-0.2 -0.084,-0.367 -0.15,-0.5 -0.033,-0.167 -0.133,-0.334 -0.3,-0.5 -0.134,-0.2 -0.316,-0.417 -0.55,-0.65 -0.233,-0.267 -0.45,-0.483 -0.65,-0.65 -0.2,-0.199 -0.383,-0.333 -0.55,-0.399 -0.134,-0.101 -0.283,-0.15 -0.45,-0.15 l -0.45,-0.05 -5.7,-1.552 c -0.233,-0.033 -0.417,-0.05 -0.551,-0.05 L 257,406.35 c -0.134,-0.033 -0.25,-0.05 -0.351,-0.05 -0.066,-0.066 -0.116,-0.133 -0.149,-0.2 0.033,-0.066 0.116,-0.149 0.25,-0.25 0.166,-0.133 0.383,-0.25 0.649,-0.35 l 0.851,-0.45 2.1,-0.85 c 0.333,-0.134 0.65,-0.233 0.95,-0.3 z"
   id="path3"
   style="fill:#010101;fill-rule:evenodd" />
    
</svg>