<?xml version="1.0" standalone="no"?>
<!DOCTYPE svg PUBLIC "-//W3C//DTD SVG 20010904//EN"
 "http://www.w3.org/TR/2001/REC-SVG-20010904/DTD/svg10.dtd">
<svg version="1.0" xmlns="http://www.w3.org/2000/svg"
 width="1536.000000pt" height="641.000000pt" viewBox="0 0 1536.000000 641.000000"
 preserveAspectRatio="xMidYMid meet">
<metadata>
Created by potrace 1.16, written by Peter Selinger 2001-2019
</metadata>
<g transform="translate(0.000000,641.000000) scale(0.100000,-0.100000)"
fill="#000000" stroke="none">
<path d="M13410 6399 c-177 -14 -271 -44 -500 -160 -156 -78 -197 -95 -575
-234 -348 -127 -484 -182 -700 -280 -115 -52 -322 -129 -640 -237 -1073 -367
-1481 -484 -1757 -509 -317 -27 -1101 -296 -1618 -554 -387 -193 -769 -438
-1125 -722 -415 -331 -751 -665 -1255 -1248 -227 -263 -479 -515 -550 -550
-30 -15 -82 -48 -115 -73 -344 -262 -390 -294 -610 -419 -279 -159 -512 -263
-825 -368 -118 -40 -298 -103 -400 -140 -214 -78 -415 -130 -690 -180 -600
-110 -1535 -204 -1887 -192 -94 4 -163 2 -163 -3 0 -30 170 -104 305 -131 231
-46 636 -69 1235 -69 634 0 795 11 1224 86 776 135 1037 222 1761 589 452 230
579 312 1060 690 272 213 345 263 415 287 25 8 95 46 156 84 61 39 172 101
246 139 l136 70 129 -134 c196 -205 242 -271 262 -378 14 -69 -1 -150 -48
-276 -102 -275 -231 -857 -234 -1062 -1 -96 12 -141 56 -183 81 -78 168 -90
722 -102 629 -13 675 -17 724 -64 34 -32 42 -32 71 -1 13 14 27 25 32 25 5 0
31 -24 59 -52 l51 -53 22 28 c27 33 32 33 78 2 20 -14 44 -25 52 -25 24 0 28
40 11 100 -9 30 -19 78 -22 107 -9 82 -8 82 297 54 58 -6 242 -17 410 -26 295
-15 393 -25 448 -46 14 -6 50 -33 80 -61 44 -41 57 -49 78 -44 18 5 38 0 61
-14 24 -14 39 -18 46 -11 16 16 21 162 8 236 -16 92 -49 152 -118 216 -76 69
-177 126 -364 205 -83 35 -158 69 -166 76 -37 30 -43 72 -43 278 0 249 9 337
65 615 50 248 69 374 89 588 7 81 15 149 17 150 2 2 51 17 109 35 132 39 339
80 640 127 129 20 257 40 285 45 l49 8 266 -213 c458 -367 727 -563 883 -642
38 -19 119 -47 180 -63 135 -36 161 -52 165 -107 4 -53 -25 -88 -101 -123
l-58 -26 59 -17 c32 -9 70 -25 83 -36 l24 -19 -20 -22 c-11 -12 -39 -36 -63
-52 -30 -20 -50 -46 -66 -81 -13 -29 -40 -68 -60 -86 -20 -19 -36 -39 -36 -44
0 -5 42 -8 98 -5 83 3 106 8 162 35 133 65 263 216 311 364 18 57 23 96 23
169 0 111 -15 155 -139 420 -148 317 -186 401 -192 430 -9 45 -68 57 682 -135
72 -18 178 -41 237 -51 97 -15 117 -16 195 -3 107 17 313 18 370 1 83 -24 136
-94 107 -143 -38 -67 -38 -69 -20 -87 9 -9 31 -22 49 -28 41 -14 36 -25 -22
-46 -25 -10 -54 -28 -65 -40 -18 -22 -18 -23 14 -49 41 -35 36 -53 -34 -116
-29 -27 -61 -61 -70 -76 -18 -27 -18 -27 5 -27 93 1 338 171 388 270 31 61 45
141 45 260 -1 128 -19 218 -59 286 -73 125 -363 396 -780 731 -225 180 -286
240 -321 317 -35 76 -43 167 -44 466 0 574 36 695 270 906 206 185 343 262
651 365 217 73 440 160 854 334 246 104 471 182 600 210 243 52 280 67 291
112 10 39 -12 73 -59 91 -23 9 -69 32 -102 50 -289 159 -633 245 -1130 282
-159 11 -513 11 -655 -1z m-5262 -5511 c28 -294 29 -338 3 -338 -39 0 -417
104 -434 119 -22 21 353 451 393 451 14 0 19 -32 38 -232z"/>
</g>
</svg>
