<?xml version="1.0" encoding="UTF-8" standalone="no"?>
<!-- Created with Inkscape (http://www.inkscape.org/) -->

<svg
   xmlns:svg="http://www.w3.org/2000/svg"
   xmlns="http://www.w3.org/2000/svg"
   version="1.2"
   width="743.14801"
   height="394.09399"
   viewBox="36.484 20.829 743.148 394.094"
   id="svg2"
   xml:space="preserve"
   style="overflow:inherit"><defs
   id="defs231" />

<g
   transform="matrix(1.390883,0,0,1.390883,-178.4371,-86.4318)"
   id="Layer_x0020_2">
	<g
   id="_145746688">
		<g
   id="g64">
			<path
   d="m 436.661,308.106 c 4.714,3.127 3.245,1.255 9.521,4.069 2.321,0.735 13.57,4.666 16.191,5.678 0.189,0.03 -9.31,-2.689 -12.653,-3.992 -0.722,-0.286 -6.462,-2.005 -6.811,-2.19 -2.788,-1.043 -6.912,-1.38 -6.248,-3.565 l 0,0 z"
   id="_145260488"
   style="stroke:#000000;stroke-width:0.95029998" />
			<path
   d="m 437.018,307.192 c 6.795,3.161 4.463,1.026 13.186,3.503 3.153,0.524 18.523,3.538 22.127,4.364 0.25,0.005 -12.585,-1.771 -17.185,-2.839 -0.994,-0.237 -8.769,-1.407 -9.26,-1.581 -3.826,-0.836 -9.196,-0.524 -8.868,-3.447 z"
   id="_145260296"
   style="stroke:#000000;stroke-width:0.95029998" />
			<path
   d="m 393.238,292.645 c 3.312,2.453 15.48,5.843 19.698,7.121 l 22.709,6.747 c 3.847,1.162 1.861,0.58 1.812,2.424 -0.037,1.41 -10.455,-1.945 -12.455,-1.985 -7.125,-0.142 -15.749,-5.089 -22.843,-6.424 -3.486,-0.613 -20.044,-8.213 -8.921,-7.883 l 0,0 z"
   id="_145259672"
   style="stroke:#000000;stroke-width:0.95029998" />
		</g>
		<g
   id="g69">
			<path
   d="m 475.231,295.769 c 4.09,3.127 2.815,1.256 8.26,4.069 2.014,0.735 11.772,4.666 14.047,5.679 0.164,0.03 -8.077,-2.689 -10.978,-3.992 -0.626,-0.286 -5.606,-2.005 -5.908,-2.191 -2.419,-1.042 -5.997,-1.379 -5.421,-3.565 l 0,0 z"
   id="_145258632"
   style="stroke:#000000;stroke-width:0.95029998" />
			<path
   d="m 475.541,294.856 c 5.895,3.161 3.872,1.025 11.44,3.502 2.735,0.524 16.069,3.539 19.197,4.364 0.216,0.004 -10.919,-1.771 -14.909,-2.839 -0.863,-0.237 -7.608,-1.407 -8.034,-1.581 -3.321,-0.835 -7.979,-0.524 -7.694,-3.446 l 0,0 z"
   id="_145258320"
   style="stroke:#000000;stroke-width:0.95029998" />
			<path
   d="m 437.559,280.309 c 2.873,2.453 13.429,5.843 17.089,7.121 l 19.702,6.747 c 3.337,1.162 1.615,0.579 1.572,2.423 -0.032,1.411 -9.07,-1.945 -10.806,-1.984 -6.181,-0.143 -13.663,-5.089 -19.818,-6.424 -3.024,-0.613 -17.389,-8.214 -7.739,-7.883 l 0,0 z"
   id="_145257696"
   style="stroke:#000000;stroke-width:0.95029998" />
		</g>
		<g
   id="g74">
			<path
   d="m 454.434,305.267 c 4.089,3.127 2.815,1.255 8.259,4.069 2.014,0.735 11.773,4.666 14.047,5.678 0.164,0.03 -8.077,-2.689 -10.977,-3.992 -0.626,-0.286 -5.606,-2.005 -5.908,-2.19 -2.42,-1.043 -5.997,-1.381 -5.421,-3.565 l 0,0 z"
   id="_145984840"
   style="stroke:#000000;stroke-width:0.95029998" />
			<path
   d="m 454.743,304.351 c 5.896,3.162 3.873,1.026 11.44,3.504 2.736,0.524 16.069,3.538 19.197,4.364 0.217,0.005 -10.919,-1.771 -14.909,-2.839 -0.863,-0.237 -7.608,-1.407 -8.034,-1.582 -3.32,-0.835 -7.978,-0.523 -7.694,-3.447 l 0,0 z"
   id="_145984528"
   style="stroke:#000000;stroke-width:0.95029998" />
			<path
   d="m 416.761,289.805 c 2.873,2.453 13.429,5.843 17.09,7.121 l 19.702,6.747 c 3.337,1.162 1.614,0.58 1.572,2.424 -0.033,1.41 -9.07,-1.945 -10.806,-1.985 -6.182,-0.143 -13.664,-5.089 -19.818,-6.424 -3.024,-0.612 -17.39,-8.214 -7.74,-7.883 l 0,0 z"
   id="_145983904"
   style="stroke:#000000;stroke-width:0.95029998" />
		</g>
		<g
   id="g79">
			<path
   d="m 398.631,289.667 c 7.786,2.844 32.608,7.977 37.254,10.727 2.655,1.571 8.949,4.341 11.383,5.782 3.097,1.833 22.692,9.523 13.588,7.421 -2.087,-0.482 -29.3,-12.477 -37.012,-12.604 -6.875,-0.115 -16.524,-3.234 -23.515,-3.188 -9.12,0.06 -5.752,-7.112 -1.698,-8.138 l 0,0 z"
   id="_145982736"
   style="stroke:#000000;stroke-width:0.95029998" />
			<path
   d="m 403.614,294.003 c 0.134,-0.345 0.736,-1.795 0.937,-2.011 0.401,-0.432 0.869,-1.538 1.203,-1.898 0.334,-0.36 1.604,-2.463 1.604,-2.864 0,-0.067 0.2,-0.35 0.268,-0.422 0.201,-0.216 0.267,-0.489 0.267,0.113 0,1.203 -1.076,3.19 -1.564,4.038 -0.548,0.951 -0.774,2.026 -1.11,2.987 -0.265,0.757 -1.671,0.865 -1.605,0.057 l 0,0 z"
   id="_145655512"
   style="stroke:#000000;stroke-width:0.95029998" />
			<path
   d="m 408.56,295.386 c 0.19,-0.32 1.024,-1.664 1.257,-1.844 0.464,-0.362 1.11,-1.384 1.497,-1.685 0.387,-0.301 1.985,-2.18 2.054,-2.58 0.012,-0.067 0.256,-0.315 0.333,-0.375 0.232,-0.18 0.344,-0.441 0.24,0.159 -0.208,1.201 -1.596,2.999 -2.217,3.759 -0.697,0.854 -1.102,1.888 -1.595,2.789 -0.388,0.709 -1.774,0.572 -1.569,-0.223 l 0,0 z"
   id="_145654800"
   style="stroke:#000000;stroke-width:0.95029998" />
			<path
   d="m 415.566,295.822 c 0.31,-0.29 1.656,-1.49 1.963,-1.61 0.615,-0.24 1.649,-1.15 2.162,-1.35 0.513,-0.199 2.848,-1.729 3.059,-2.15 0.035,-0.07 0.378,-0.26 0.48,-0.3 0.308,-0.12 0.516,-0.37 0.199,0.26 -0.633,1.26 -2.719,2.771 -3.637,3.4 -1.031,0.706 -1.814,1.712 -2.646,2.54 -0.654,0.652 -2.069,0.02 -1.58,-0.79 l 0,0 z"
   id="_145654088"
   style="stroke:#000000;stroke-width:0.95029998" />
			<path
   d="m 423.435,297.347 c 0.244,-0.283 1.309,-1.461 1.567,-1.597 0.518,-0.271 1.338,-1.165 1.769,-1.392 0.432,-0.226 2.335,-1.792 2.478,-2.177 0.024,-0.065 0.307,-0.265 0.393,-0.31 0.259,-0.136 0.417,-0.374 0.202,0.205 -0.43,1.157 -2.115,2.681 -2.861,3.32 -0.838,0.717 -1.425,1.67 -2.075,2.472 -0.508,0.634 -1.822,0.231 -1.473,-0.521 l 0,0 z"
   id="_145653392"
   style="stroke:#000000;stroke-width:0.95029998" />
			<path
   d="m 431.337,299.168 c 0.338,-0.275 1.801,-1.408 2.123,-1.508 0.645,-0.199 1.769,-1.058 2.306,-1.224 0.538,-0.166 3.034,-1.563 3.281,-1.98 0.041,-0.069 0.405,-0.239 0.513,-0.272 0.323,-0.1 0.554,-0.342 0.183,0.284 -0.741,1.25 -2.983,2.646 -3.966,3.223 -1.104,0.647 -1.98,1.625 -2.891,2.414 -0.716,0.621 -2.111,-0.14 -1.549,-0.937 l 0,0 z"
   id="_145704576"
   style="stroke:#000000;stroke-width:0.95029998" />
			<path
   d="m 437.366,301.236 c 0.557,-0.093 2.933,-0.447 3.375,-0.406 0.885,0.083 2.703,-0.18 3.441,-0.11 0.737,0.07 4.501,-0.107 5.024,-0.347 0.087,-0.04 0.617,-0.039 0.765,-0.025 0.442,0.042 0.852,-0.065 0.066,0.296 -1.572,0.72 -5.028,0.992 -6.525,1.083 -1.681,0.101 -3.265,0.553 -4.789,0.84 -1.2,0.228 -2.465,-0.905 -1.357,-1.331 l 0,0 z"
   id="_145703864"
   style="stroke:#000000;stroke-width:0.95029998" />
			<path
   d="m 441.987,303.734 c 0.622,-0.065 3.284,-0.316 3.809,-0.286 1.049,0.057 3.089,-0.128 3.963,-0.081 0.874,0.048 5.194,-0.079 5.739,-0.248 0.09,-0.028 0.706,-0.027 0.88,-0.018 0.524,0.029 0.971,-0.046 0.154,0.207 -1.635,0.506 -5.572,0.699 -7.285,0.765 -1.923,0.073 -3.643,0.39 -5.335,0.593 -1.331,0.16 -3.098,-0.632 -1.925,-0.932 l 0,0 z"
   id="_145703152"
   style="stroke:#000000;stroke-width:0.95029998" />
			<path
   d="m 446.675,306.299 c 0.622,-0.06 3.285,-0.299 3.809,-0.289 1.048,0.022 3.089,-0.157 3.963,-0.138 0.873,0.018 5.194,-0.162 5.738,-0.298 0.091,-0.022 0.706,-0.034 0.881,-0.031 0.524,0.011 0.971,-0.053 0.154,0.15 -1.635,0.407 -5.572,0.629 -7.285,0.712 -1.923,0.092 -3.643,0.362 -5.335,0.546 -1.331,0.145 -3.098,-0.407 -1.925,-0.652 l 0,0 z"
   id="_145760352"
   style="stroke:#000000;stroke-width:0.95029998" />
		</g>
		<path
   d="m 423.154,285.791 c 7.787,3.966 29.724,9.052 34.369,12.631 2.655,2.045 8.949,5.792 11.383,7.667 3.097,2.386 22.692,12.979 13.588,9.751 -2.086,-0.74 -29.3,-16.965 -37.012,-17.796 -6.875,-0.741 -16.175,-3.805 -23.515,-5.753 -9,-2.388 -2.867,-5.676 1.187,-6.5 l 0,0 z"
   id="_145759336"
   style="stroke:#000000;stroke-width:0.95029998" />
		<path
   d="m 425.254,289.083 c 0.133,-0.334 0.735,-1.738 0.935,-1.939 0.402,-0.401 0.869,-1.47 1.203,-1.804 0.335,-0.334 1.605,-2.34 1.605,-2.741 0,-0.067 0.201,-0.335 0.268,-0.402 0.2,-0.201 0.267,-0.468 0.267,0.133 0,1.203 -1.076,3.108 -1.564,3.918 -0.548,0.909 -0.774,1.967 -1.11,2.902 -0.265,0.736 -1.672,0.735 -1.604,-0.067 l 0,0 z"
   id="_145758504"
   style="stroke:#000000;stroke-width:0.95029998" />
		<path
   d="m 431.281,290.126 c 0.19,-0.307 1.024,-1.585 1.257,-1.748 0.464,-0.326 1.11,-1.299 1.497,-1.57 0.387,-0.272 1.985,-2.028 2.054,-2.423 0.012,-0.066 0.256,-0.295 0.333,-0.349 0.232,-0.163 0.344,-0.415 0.24,0.178 -0.208,1.185 -1.596,2.875 -2.217,3.589 -0.697,0.8 -1.102,1.803 -1.595,2.667 -0.388,0.678 -1.774,0.434 -1.569,-0.344 l 0,0 z"
   id="_26994328"
   style="stroke:#000000;stroke-width:0.95029998" />
		<path
   d="m 437.297,291.744 c 0.351,-0.21 1.862,-1.064 2.181,-1.107 0.639,-0.086 1.799,-0.73 2.331,-0.802 0.532,-0.072 3.061,-1.009 3.338,-1.371 0.046,-0.06 0.411,-0.164 0.517,-0.178 0.32,-0.044 0.565,-0.239 0.15,0.305 -0.829,1.088 -3.113,2.067 -4.112,2.462 -1.122,0.444 -2.054,1.244 -3.002,1.857 -0.746,0.482 -2.016,-0.488 -1.403,-1.166 l 0,0 z"
   id="_26993736"
   style="stroke:#000000;stroke-width:0.95029998" />
		<path
   d="m 445.261,293.659 c 0.31,-0.183 1.642,-0.93 1.924,-0.966 0.562,-0.074 1.585,-0.636 2.054,-0.698 0.469,-0.06 2.698,-0.876 2.943,-1.194 0.041,-0.053 0.363,-0.143 0.457,-0.155 0.281,-0.036 0.497,-0.208 0.13,0.269 -0.733,0.954 -2.747,1.808 -3.628,2.152 -0.989,0.387 -1.811,1.088 -2.649,1.624 -0.658,0.421 -1.773,-0.436 -1.231,-1.032 l 0,0 z"
   id="_26993024"
   style="stroke:#000000;stroke-width:0.95029998" />
		<path
   d="m 453.069,296.323 c 0.378,-0.183 2.002,-0.921 2.332,-0.937 0.662,-0.03 1.907,-0.585 2.458,-0.611 0.551,-0.025 3.225,-0.756 3.541,-1.102 0.053,-0.058 0.436,-0.131 0.546,-0.135 0.331,-0.015 0.599,-0.193 0.126,0.326 -0.947,1.038 -3.373,1.835 -4.431,2.149 -1.189,0.352 -2.214,1.088 -3.241,1.63 -0.807,0.426 -2.019,-0.681 -1.331,-1.32 l 0,0 z"
   id="_145387616"
   style="stroke:#000000;stroke-width:0.95029998" />
		<path
   d="m 458.163,299.391 c 0.557,-0.049 2.932,-0.222 3.374,-0.146 0.885,0.152 2.703,0.028 3.441,0.154 0.737,0.126 4.501,0.239 5.024,0.039 0.088,-0.034 0.617,0.008 0.765,0.034 0.442,0.076 0.852,0.001 0.066,0.3 -1.572,0.599 -5.027,0.606 -6.525,0.581 -1.681,-0.027 -3.265,0.302 -4.789,0.473 -1.199,0.137 -2.464,-1.094 -1.356,-1.435 l 0,0 z"
   id="_145387424"
   style="stroke:#000000;stroke-width:0.95029998" />
		<path
   d="m 465.309,304.408 c 0.622,-0.018 3.285,-0.063 3.809,0.006 1.048,0.138 3.089,0.109 3.963,0.224 0.874,0.115 5.194,0.32 5.738,0.194 0.091,-0.021 0.706,0.027 0.88,0.049 0.524,0.069 0.972,0.029 0.154,0.219 -1.634,0.38 -5.572,0.271 -7.285,0.204 -1.923,-0.075 -3.642,0.11 -5.335,0.183 -1.332,0.058 -3.098,-0.87 -1.924,-1.079 l 0,0 z"
   id="_145386712"
   style="stroke:#000000;stroke-width:0.95029998" />
		<path
   d="m 472.991,309.256 c 0.409,-0.013 2.155,-0.047 2.5,0.004 0.687,0.103 2.026,0.081 2.599,0.166 0.574,0.086 3.407,0.237 3.765,0.144 0.06,-0.016 0.463,0.02 0.578,0.037 0.344,0.051 0.638,0.022 0.101,0.162 -1.072,0.282 -3.655,0.201 -4.779,0.152 -1.261,-0.055 -2.389,0.081 -3.5,0.136 -0.875,0.041 -2.034,-0.646 -1.264,-0.801 l 0,0 z"
   id="_145770800"
   style="stroke:#000000;stroke-width:0.95029998" />
		<g
   id="g99">
			<path
   d="m 443.23,280.018 c 7.786,3.442 29.723,7.857 34.369,10.965 2.655,1.775 8.949,5.029 11.383,6.656 3.097,2.071 22.692,11.267 13.588,8.465 -2.087,-0.642 -29.3,-14.728 -37.012,-15.449 -6.875,-0.642 -16.175,-3.303 -23.516,-4.994 -8.998,-2.074 -2.866,-4.929 1.188,-5.643 l 0,0 z"
   id="_145770696"
   style="stroke:#000000;stroke-width:0.95029998" />
			<path
   d="m 445.329,282.111 c 0.134,-0.334 0.736,-1.738 0.936,-1.939 0.402,-0.401 0.869,-1.47 1.203,-1.804 0.334,-0.335 1.605,-2.341 1.605,-2.742 0,-0.067 0.2,-0.334 0.267,-0.401 0.201,-0.201 0.267,-0.468 0.267,0.133 0,1.203 -1.076,3.108 -1.564,3.918 -0.548,0.909 -0.774,1.967 -1.111,2.902 -0.263,0.736 -1.669,0.735 -1.603,-0.067 l 0,0 z"
   id="_145770384"
   style="stroke:#000000;stroke-width:0.95029998" />
			<path
   d="m 450.274,283.874 c 0.19,-0.306 1.025,-1.585 1.257,-1.748 0.465,-0.326 1.111,-1.299 1.498,-1.57 0.387,-0.272 1.984,-2.028 2.054,-2.423 0.011,-0.066 0.256,-0.294 0.333,-0.349 0.232,-0.163 0.344,-0.414 0.24,0.178 -0.208,1.185 -1.596,2.875 -2.217,3.588 -0.697,0.801 -1.102,1.804 -1.594,2.667 -0.39,0.68 -1.775,0.435 -1.571,-0.343 l 0,0 z"
   id="_145769536"
   style="stroke:#000000;stroke-width:0.95029998" />
			<path
   d="m 457.28,284.848 c 0.31,-0.267 1.656,-1.364 1.963,-1.459 0.615,-0.193 1.649,-1.024 2.162,-1.184 0.513,-0.161 2.848,-1.512 3.058,-1.915 0.036,-0.067 0.378,-0.231 0.481,-0.263 0.308,-0.097 0.515,-0.331 0.199,0.275 -0.634,1.211 -2.719,2.563 -3.638,3.12 -1.031,0.626 -1.814,1.573 -2.646,2.337 -0.653,0.602 -2.069,-0.139 -1.579,-0.911 l 0,0 z"
   id="_145701472"
   style="stroke:#000000;stroke-width:0.95029998" />
			<path
   d="m 465.15,286.978 c 0.244,-0.265 1.308,-1.361 1.567,-1.476 0.518,-0.232 1.338,-1.064 1.769,-1.256 0.432,-0.193 2.335,-1.612 2.478,-1.986 0.024,-0.063 0.307,-0.241 0.393,-0.279 0.259,-0.115 0.417,-0.341 0.202,0.22 -0.43,1.124 -2.115,2.518 -2.86,3.1 -0.838,0.653 -1.426,1.56 -2.075,2.313 -0.51,0.592 -1.823,0.089 -1.474,-0.636 l 0,0 z"
   id="_145701280"
   style="stroke:#000000;stroke-width:0.95029998" />
			<path
   d="m 473.052,289.406 c 0.338,-0.249 1.801,-1.269 2.123,-1.345 0.645,-0.15 1.769,-0.922 2.306,-1.047 0.538,-0.126 3.034,-1.331 3.281,-1.728 0.041,-0.067 0.405,-0.207 0.513,-0.232 0.322,-0.076 0.554,-0.299 0.182,0.297 -0.742,1.193 -2.983,2.417 -3.966,2.919 -1.104,0.563 -1.98,1.473 -2.891,2.192 -0.716,0.566 -2.11,-0.302 -1.548,-1.056 l 0,0 z"
   id="_145700568"
   style="stroke:#000000;stroke-width:0.95029998" />
			<path
   d="m 479.081,291.938 c 0.557,-0.049 2.933,-0.222 3.375,-0.146 0.885,0.152 2.703,0.028 3.441,0.154 0.737,0.126 4.5,0.239 5.024,0.039 0.087,-0.034 0.616,0.009 0.765,0.034 0.442,0.075 0.852,10e-4 0.065,0.3 -1.571,0.6 -5.027,0.607 -6.524,0.582 -1.681,-0.027 -3.265,0.302 -4.79,0.473 -1.199,0.135 -2.464,-1.095 -1.356,-1.436 l 0,0 z"
   id="_145699856"
   style="stroke:#000000;stroke-width:0.95029998" />
			<path
   d="m 483.701,294.792 c 0.622,-0.018 3.284,-0.064 3.809,0.005 1.048,0.138 3.089,0.109 3.963,0.225 0.874,0.115 5.194,0.32 5.738,0.193 0.091,-0.021 0.706,0.027 0.88,0.05 0.524,0.069 0.972,0.029 0.154,0.219 -1.634,0.379 -5.572,0.271 -7.284,0.204 -1.924,-0.075 -3.643,0.11 -5.335,0.183 -1.332,0.057 -3.098,-0.871 -1.925,-1.079 l 0,0 z"
   id="_145699144"
   style="stroke:#000000;stroke-width:0.95029998" />
			<path
   d="m 488.39,297.716 c 0.622,-0.013 3.284,-0.047 3.809,0.004 1.048,0.103 3.089,0.081 3.963,0.166 0.874,0.086 5.194,0.237 5.738,0.143 0.091,-0.015 0.706,0.02 0.881,0.037 0.524,0.051 0.971,0.022 0.154,0.162 -1.634,0.281 -5.571,0.201 -7.284,0.152 -1.923,-0.055 -3.643,0.081 -5.335,0.136 -1.333,0.042 -3.099,-0.645 -1.926,-0.8 l 0,0 z"
   id="_145747232"
   style="stroke:#000000;stroke-width:0.95029998" />
		</g>
	</g>
	<g
   id="_145273840">
		<g
   id="g111">
			<path
   d="m 325.196,284.637 c 5.564,7.329 23.59,23.675 26.442,28.905 1.63,2.988 5.917,9.295 7.412,12.034 1.901,3.485 15.667,22.361 8.617,14.787 -1.616,-1.736 -20.149,-29.018 -26.855,-34.09 -5.979,-4.52 -13.27,-12.092 -19.207,-17.737 -7.278,-6.918 -0.42,-5.675 3.591,-3.899 l 0,0 z"
   id="_145677240"
   style="stroke:#000000;stroke-width:0.95029998" />
			<path
   d="m 326.179,287.561 c 0.271,-0.194 1.443,-0.987 1.715,-1.033 0.544,-0.093 1.446,-0.692 1.9,-0.769 0.453,-0.078 2.503,-0.971 2.681,-1.298 0.03,-0.054 0.331,-0.155 0.422,-0.171 0.272,-0.047 0.451,-0.225 0.184,0.265 -0.535,0.979 -2.363,1.903 -3.168,2.277 -0.904,0.421 -1.58,1.151 -2.303,1.715 -0.567,0.446 -1.849,-0.373 -1.431,-0.986 l 0,0 z"
   id="_145676336"
   style="stroke:#000000;stroke-width:0.95029998" />
			<path
   d="m 329.901,291.871 c 0.309,-0.138 1.638,-0.694 1.923,-0.691 0.568,0.005 1.589,-0.411 2.062,-0.407 0.474,0.004 2.711,-0.496 2.949,-0.777 0.04,-0.046 0.364,-0.091 0.458,-0.09 0.284,0.003 0.498,-0.138 0.14,0.284 -0.716,0.843 -2.734,1.411 -3.617,1.63 -0.991,0.246 -1.806,0.826 -2.639,1.242 -0.655,0.328 -1.809,-0.677 -1.276,-1.191 l 0,0 z"
   id="_145675552"
   style="stroke:#000000;stroke-width:0.95029998" />
			<path
   d="m 335.851,296.737 c 0.402,-0.036 2.115,-0.146 2.438,-0.046 0.647,0.201 1.959,0.126 2.497,0.294 0.539,0.167 3.267,0.426 3.639,0.22 0.062,-0.034 0.447,0.032 0.555,0.065 0.323,0.1 0.617,0.031 0.059,0.34 -1.116,0.617 -3.618,0.503 -4.703,0.424 -1.217,-0.09 -2.353,0.225 -3.45,0.362 -0.864,0.111 -1.825,-1.316 -1.035,-1.659 l 0,0 z"
   id="_145689232"
   style="stroke:#000000;stroke-width:0.95029998" />
			<path
   d="m 342.075,303.045 c 0.34,-0.073 1.797,-0.346 2.085,-0.289 0.575,0.112 1.691,-0.088 2.171,0.007 0.479,0.094 2.844,0.046 3.142,-0.176 0.049,-0.036 0.386,-0.017 0.482,0.001 0.287,0.057 0.531,-0.035 0.086,0.297 -0.892,0.664 -3.047,0.819 -3.986,0.859 -1.053,0.044 -1.993,0.44 -2.919,0.675 -0.729,0.186 -1.702,-0.986 -1.061,-1.374 l 0,0 z"
   id="_145688520"
   style="stroke:#000000;stroke-width:0.95029998" />
			<path
   d="m 348.195,309.615 c 0.419,-0.006 2.206,0.015 2.534,0.141 0.654,0.253 2.021,0.278 2.567,0.489 0.546,0.211 3.356,0.682 3.758,0.503 0.067,-0.03 0.462,0.067 0.571,0.109 0.327,0.126 0.638,0.079 0.034,0.348 -1.208,0.539 -3.794,0.232 -4.913,0.068 -1.257,-0.185 -2.459,0.046 -3.608,0.102 -0.905,0.045 -1.789,-1.472 -0.943,-1.76 l 0,0 z"
   id="_145687808"
   style="stroke:#000000;stroke-width:0.95029998" />
			<path
   d="m 352.564,315.181 c 0.529,0.284 2.771,1.524 3.141,1.843 0.739,0.638 2.451,1.595 3.067,2.126 0.616,0.532 3.994,2.811 4.561,2.954 0.094,0.024 0.558,0.366 0.682,0.472 0.369,0.319 0.775,0.496 -0.074,0.283 -1.699,-0.427 -4.851,-2.431 -6.205,-3.32 -1.519,-1 -3.11,-1.653 -4.574,-2.401 -1.155,-0.587 -1.76,-2.324 -0.598,-1.957 l 0,0 z"
   id="_145687096"
   style="stroke:#000000;stroke-width:0.95029998" />
			<path
   d="m 355.505,320.189 c 0.574,0.348 3.021,1.858 3.468,2.219 0.894,0.722 2.766,1.885 3.511,2.487 0.746,0.602 4.59,3.28 5.143,3.494 0.092,0.036 0.632,0.432 0.781,0.553 0.447,0.361 0.873,0.588 0.044,0.268 -1.658,-0.641 -5.198,-3.019 -6.73,-4.069 -1.719,-1.18 -3.368,-2.028 -4.943,-2.953 -1.24,-0.729 -2.436,-2.511 -1.274,-1.999 l 0,0 z"
   id="_145686384"
   style="stroke:#000000;stroke-width:0.95029998" />
			<path
   d="m 358.476,325.294 c 0.572,0.351 3.014,1.871 3.469,2.218 0.91,0.693 2.779,1.862 3.537,2.44 0.758,0.578 4.627,3.212 5.165,3.453 0.089,0.04 0.634,0.426 0.786,0.542 0.455,0.346 0.876,0.582 0.069,0.221 -1.614,-0.72 -5.167,-3.075 -6.706,-4.112 -1.728,-1.164 -3.355,-2.052 -4.923,-2.992 -1.232,-0.739 -2.535,-2.326 -1.397,-1.77 l 0,0 z"
   id="_145276632"
   style="stroke:#000000;stroke-width:0.95029998" />
		</g>
		<g
   id="g122">
			<path
   d="m 344.366,316.632 c 1.307,4.251 1.408,2.18 3.913,6.716 1.1,1.422 6.22,8.629 7.358,10.388 0.107,0.091 -4.557,-5.494 -6.002,-7.748 -0.31,-0.49 -3.085,-3.929 -3.208,-4.205 -1.23,-1.842 -3.732,-3.564 -2.061,-5.151 l 0,0 z"
   id="_145275592"
   style="stroke:#000000;stroke-width:0.95029998" />
			<path
   d="m 345.118,315.996 c 2.647,5.008 2.334,2.415 6.628,7.527 1.763,1.539 10.094,9.422 11.98,11.371 0.161,0.092 -7.218,-5.876 -9.616,-8.373 -0.515,-0.545 -4.932,-4.238 -5.153,-4.555 -2.027,-2.034 -5.71,-3.653 -3.839,-5.97 l 0,0 z"
   id="_145275280"
   style="stroke:#000000;stroke-width:0.95029998" />
			<path
   d="m 324.763,288.577 c 0.773,3.2 6.8,10.278 8.832,12.816 l 11.011,13.558 c 1.854,2.312 0.887,1.133 -0.19,2.65 -0.824,1.16 -5.727,-5.276 -7.011,-6.009 -4.574,-2.61 -7.404,-9.743 -11.281,-13.336 -1.931,-1.727 -8.44,-13.844 -1.361,-9.679 l 0,0 z"
   id="_145274520"
   style="stroke:#000000;stroke-width:0.95029998" />
		</g>
	</g>
	<g
   id="_145711408">
		<path
   d="m 481.224,227.244 c 1.3,-1.893 7.149,-3.815 10.707,-4.409 0.695,-0.115 3.209,-0.339 3.939,0.032 l 0.468,-0.334 c 0.641,-0.457 1.472,-0.646 2.113,-1.103 0.213,-0.153 0.767,-0.279 1.052,-0.482 0.213,-0.152 0.902,-0.24 1.045,-0.342 0.071,-0.051 0.697,-0.227 0.482,-0.075 -0.213,0.152 -0.307,0.622 -0.521,0.774 -0.854,0.609 -1.922,1.37 -2.776,1.979 2.172,1.649 1.275,1.208 -0.395,0.341 0.128,-0.125 0.256,-0.24 0.381,-0.331 0.223,0.218 1.293,1.167 2.213,2.031 l 0.013,-0.005 c 0.828,-0.35 1.925,-0.504 2.753,-0.854 0.275,-0.117 1.008,-0.219 1.375,-0.375 0.276,-0.117 1.19,-0.192 1.374,-0.27 0.092,-0.039 0.916,-0.18 0.64,-0.063 -0.276,0.117 -0.373,0.469 -0.648,0.586 -1.104,0.467 -2.483,1.051 -3.586,1.519 -0.291,0.124 -0.585,0.305 -0.877,0.484 0.138,0.145 0.244,0.267 0.307,0.355 0.879,1.233 1.708,1.919 -0.407,1.777 -4.727,-0.316 -14.393,2.843 -18.146,4.011 -1.022,0.318 -2.657,-0.337 -3.518,-1.024 -1.635,-1.251 -2.269,-0.055 -1.986,-1.744 0.161,-0.951 1.881,0.606 3.998,-2.478 l 0,0 z"
   id="_145369920"
   style="stroke:#000000;stroke-width:0.95029998" />
		<path
   d="m 525.748,206.245 0.393,-0.382 c 0.564,-0.548 1.356,-0.861 1.921,-1.41 0.188,-0.183 0.717,-0.391 0.967,-0.636 0.189,-0.182 0.856,-0.374 0.982,-0.496 0.062,-0.061 0.654,-0.33 0.465,-0.147 -0.188,0.183 -0.209,0.661 -0.398,0.844 -0.753,0.732 -1.693,1.645 -2.445,2.376 -0.291,0.284 -0.567,0.733 -0.851,1.092 -0.186,0.479 -0.8,1.049 -1.941,1.65 0.031,0.012 0.061,0.025 0.091,0.036 0.698,0.25 1.571,0.563 2.269,0.813 0.175,0.062 0.282,0.252 0.457,0.315 0.174,0.062 -0.316,-0.013 -0.374,-0.034 -0.116,-0.041 -0.649,-0.082 -0.824,-0.145 -0.232,-0.083 -0.665,-0.138 -0.84,-0.2 -0.477,-0.171 -1.057,-0.255 -1.552,-0.41 -2.267,1.019 -6.051,2.095 -11.807,2.958 -5.449,0.908 -9.688,1.665 -15.59,1.665 -3.028,0 -6.85,-4.658 -2.12,-3.784 3.112,0.575 9.059,-0.924 5.62,-0.265 -1.231,0.236 2.01,0.041 6.726,-0.598 0.09,-0.099 0.177,-0.198 0.26,-0.298 0.154,-0.186 0.563,-0.562 0.769,-0.812 0.155,-0.186 0.663,-0.626 0.767,-0.749 0.051,-0.061 0.51,-0.502 0.355,-0.316 -0.155,0.186 -0.216,0.429 -0.371,0.615 -0.378,0.454 -0.813,0.976 -1.236,1.484 0.938,-0.131 1.927,-0.279 2.946,-0.444 0.459,-0.541 1.046,-1.088 1.498,-1.63 0.155,-0.186 0.563,-0.562 0.77,-0.812 0.155,-0.186 0.663,-0.626 0.766,-0.749 0.052,-0.061 0.511,-0.502 0.356,-0.316 -0.155,0.186 -0.216,0.429 -0.37,0.615 -0.622,0.745 -1.397,1.676 -2.017,2.421 -0.09,0.109 -0.18,0.227 -0.271,0.349 2.527,-0.423 5.198,-0.948 7.693,-1.577 -0.137,-0.335 -0.241,-0.713 -0.403,-1.016 -0.411,-0.772 -0.925,-1.736 -1.336,-2.508 -0.103,-0.193 0.004,-0.437 -0.099,-0.63 -0.103,-0.193 0.3,0.265 0.334,0.33 0.069,0.128 0.553,0.591 0.655,0.784 0.138,0.257 0.506,0.651 0.609,0.844 0.308,0.579 0.86,1.17 1.169,1.748 l 0.097,0.18 c 0.406,-0.109 0.805,-0.221 1.198,-0.337 0.282,-0.083 0.559,-0.157 0.827,-0.221 0.172,-0.437 0.383,-0.877 0.515,-1.31 0.059,-0.193 0.27,-0.587 0.349,-0.844 0.06,-0.193 0.337,-0.655 0.376,-0.784 0.02,-0.064 0.251,-0.522 0.192,-0.33 -0.059,0.193 0.003,0.438 -0.056,0.63 -0.236,0.771 -0.531,1.736 -0.767,2.507 1.373,-0.26 2.508,-0.258 3.276,-0.066 l 0,0 z"
   id="_145369624"
   style="stroke:#000000;stroke-width:0.95029998" />
		<path
   d="m 480.497,178.791 c 4.916,-0.956 34.293,-18.064 33.392,-17.139 -2.602,3.528 17.189,21.831 18.325,24.804 -0.835,4.39 -27.383,21.627 -35.029,23.57 -1.51,-2.373 -1.212,-3.02 -1.734,-5.559 -1.872,-7.773 -9.89,-17.941 -14.954,-25.676 l 0,0 z"
   id="_145643256"
   style="stroke:#000000;stroke-width:0.95029998" />
		<path
   d="m 495.695,222.849 c -0.049,0.098 -0.196,0.245 -0.196,0.343 l -0.049,0.098 -0.048,0.098 -0.049,0.049 -0.048,0.049 v 0.049 0.049 0.049 0.049 0.049 0.049 0.098 h 0.098 c 0.048,0 0.147,0.049 0.196,0.049 0.048,0 0.195,0 0.244,0 0.048,0 0.146,0 0.195,0 0.098,0 0.244,0 0.294,0 l 0.244,-0.049 0.049,-0.049 0.146,-0.049 c 0.098,0 0.196,-0.098 0.293,-0.098"
   id="_145642320"
   style="stroke:#000000;stroke-width:0.95029998" />
		<path
   d="m 499.655,225.496 c -0.048,0.098 -0.196,0.246 -0.196,0.343 l -0.048,0.098 -0.049,0.098 -0.048,0.049 -0.049,0.049 v 0.049 0.049 0.049 0.049 0.049 0.048 0.098 h 0.098 c 0.049,0 0.147,0.049 0.196,0.049 0.049,0 0.195,0 0.244,0 0.049,0 0.147,0 0.195,0 0.098,0 0.245,0 0.293,0 l 0.244,-0.049 0.049,-0.048 0.147,-0.049 c 0.098,0 0.196,-0.098 0.294,-0.098"
   id="_145642008"
   style="stroke:#000000;stroke-width:0.95029998" />
		<path
   d="m 525.989,206.253 c 0,0.153 0.077,0.69 0.077,0.844 v 0.23 h 0.153 l 0.077,0.077 h 0.077 0.153 c 0.077,-0.077 0,-0.077 0.154,-0.077"
   id="_145712224"
   style="stroke:#000000;stroke-width:0.95029998" />
		<path
   d="m 518.548,207.327 c 0.23,0.077 0.69,0.537 0.92,0.537 l 0.154,-0.077 0.077,-0.077 0.077,-0.077 v -0.077 h 0.077 c 0.154,-0.077 0.077,-0.537 0.077,-0.614"
   id="_145711584"
   style="stroke:#000000;stroke-width:0.95029998" />
	</g>
	<path
   d="m 219.965,203.621 c 0,4.428 11.198,37.747 12.809,38.969 32.422,24.587 79.659,38.591 135.405,35.425 27.401,-1.555 38.427,-39.854 21.958,-59.338 -10.063,-12.399 -36.596,-16.827 -51.235,-21.255 -35.682,-11.513 -56.724,-11.513 -88.746,-5.314 -5.49,0.886 -30.192,7.971 -30.191,11.513 l 0,0 z"
   id="path135"
   style="stroke:#000000;stroke-width:0.95029998" />
	<g
   id="_146021616">
		<path
   d="m 286.327,259.597 c 0.923,-0.725 1.845,-1.451 2.768,-2.176 0.666,-0.079 1.208,1.333 1.688,1.65 0.472,0.31 0.654,0.835 0.814,1.076 -0.923,0.725 -1.845,1.451 -2.768,2.176 -0.477,-0.041 -1.05,-0.297 -1.396,-0.728 -0.349,-0.454 -1.058,-1.528 -1.106,-1.998 l 0,0 z"
   id="_146039568"
   style="stroke:#000000;stroke-width:0.95029998" />
		<path
   d="m 288.377,262.665 c 0.9,-0.715 1.799,-1.43 2.699,-2.145 0.662,-0.066 1.206,1.3 1.688,1.614 0.476,0.307 0.674,0.821 0.849,1.063 -0.899,0.715 -1.799,1.431 -2.699,2.146 -0.48,-0.049 -1.053,-0.305 -1.408,-0.729 -0.357,-0.447 -1.06,-1.487 -1.129,-1.949 l 0,0 z"
   id="_146038848"
   style="stroke:#000000;stroke-width:0.95029998" />
		<path
   d="m 290.501,265.683 c 0.877,-0.705 1.753,-1.41 2.629,-2.115 0.658,-0.053 1.203,1.267 1.689,1.578 0.48,0.305 0.693,0.808 0.885,1.05 -0.877,0.705 -1.753,1.411 -2.629,2.115 -0.484,-0.058 -1.057,-0.313 -1.42,-0.73 -0.367,-0.438 -1.064,-1.446 -1.154,-1.898 z"
   id="_146038128"
   style="stroke:#000000;stroke-width:0.95029998" />
		<path
   d="m 292.691,268.653 c 0.853,-0.694 1.707,-1.389 2.56,-2.085 0.654,-0.039 1.199,1.234 1.689,1.543 0.484,0.302 0.712,0.794 0.92,1.038 -0.853,0.694 -1.706,1.39 -2.56,2.084 -0.488,-0.066 -1.06,-0.322 -1.432,-0.731 -0.374,-0.43 -1.067,-1.405 -1.177,-1.849 l 0,0 z"
   id="_146037408"
   style="stroke:#000000;stroke-width:0.95029998" />
		<path
   d="m 294.942,271.578 c 0.831,-0.685 1.661,-1.369 2.491,-2.054 0.65,-0.026 1.196,1.2 1.689,1.507 0.488,0.3 0.731,0.781 0.956,1.025 -0.83,0.685 -1.66,1.369 -2.491,2.054 -0.491,-0.074 -1.063,-0.33 -1.444,-0.732 -0.383,-0.423 -1.069,-1.365 -1.201,-1.8 l 0,0 z"
   id="_146036688"
   style="stroke:#000000;stroke-width:0.95029998" />
		<path
   d="m 297.249,274.459 c 0.807,-0.674 1.615,-1.349 2.422,-2.023 0.646,-0.013 1.193,1.168 1.69,1.472 0.492,0.298 0.751,0.768 0.991,1.012 -0.807,0.675 -1.615,1.349 -2.422,2.023 -0.495,-0.083 -1.067,-0.339 -1.457,-0.734 -0.391,-0.415 -1.072,-1.323 -1.224,-1.75 l 0,0 z"
   id="_146035968"
   style="stroke:#000000;stroke-width:0.95029998" />
		<path
   d="m 299.609,277.298 c 0.784,-0.664 1.569,-1.328 2.352,-1.993 0.642,0 1.19,1.134 1.691,1.435 0.495,0.296 0.77,0.755 1.026,1 -0.784,0.664 -1.568,1.328 -2.353,1.993 -0.498,-0.092 -1.07,-0.348 -1.468,-0.735 -0.4,-0.406 -1.075,-1.282 -1.248,-1.7 l 0,0 z"
   id="_146035248"
   style="stroke:#000000;stroke-width:0.95029998" />
		<path
   d="m 302.018,280.096 c 0.761,-0.654 1.522,-1.309 2.283,-1.962 0.638,0.013 1.187,1.101 1.691,1.399 0.499,0.293 0.789,0.742 1.062,0.987 -0.761,0.654 -1.522,1.308 -2.283,1.962 -0.502,-0.1 -1.073,-0.355 -1.481,-0.736 -0.41,-0.398 -1.079,-1.242 -1.272,-1.65 l 0,0 z"
   id="_145742768"
   style="stroke:#000000;stroke-width:0.95029998" />
		<path
   d="m 304.475,282.851 c 0.738,-0.644 1.476,-1.288 2.214,-1.932 0.634,0.027 1.184,1.067 1.691,1.363 0.503,0.291 0.808,0.728 1.097,0.973 -0.738,0.645 -1.476,1.288 -2.214,1.932 -0.505,-0.109 -1.077,-0.364 -1.493,-0.737 -0.417,-0.388 -1.081,-1.199 -1.295,-1.599 z"
   id="_145742504"
   style="stroke:#000000;stroke-width:0.95029998" />
		<path
   d="m 306.976,285.566 c 0.715,-0.634 1.43,-1.267 2.145,-1.901 0.631,0.04 1.181,1.034 1.692,1.328 0.507,0.289 0.827,0.715 1.133,0.961 -0.715,0.634 -1.43,1.267 -2.145,1.901 -0.509,-0.117 -1.08,-0.372 -1.505,-0.738 -0.427,-0.382 -1.085,-1.16 -1.32,-1.551 l 0,0 z"
   id="_145741648"
   style="stroke:#000000;stroke-width:0.95029998" />
		<path
   d="m 309.524,288.237 c 0.692,-0.623 1.384,-1.248 2.076,-1.871 0.626,0.053 1.178,1.001 1.693,1.293 0.51,0.286 0.846,0.701 1.168,0.948 -0.692,0.623 -1.384,1.247 -2.076,1.87 -0.512,-0.125 -1.083,-0.38 -1.517,-0.739 -0.436,-0.373 -1.088,-1.119 -1.344,-1.501 l 0,0 z"
   id="_145740944"
   style="stroke:#000000;stroke-width:0.95029998" />
		<path
   d="m 312.119,290.863 c 0.669,-0.614 1.338,-1.227 2.007,-1.841 0.622,0.067 1.175,0.969 1.693,1.257 0.514,0.284 0.865,0.69 1.203,0.935 -0.668,0.614 -1.338,1.227 -2.006,1.841 -0.516,-0.135 -1.087,-0.389 -1.53,-0.741 -0.444,-0.365 -1.09,-1.077 -1.367,-1.451 l 0,0 z"
   id="_145739744"
   style="stroke:#000000;stroke-width:0.95029998" />
		<path
   d="m 314.761,293.444 c 0.646,-0.603 1.291,-1.206 1.937,-1.809 0.619,0.08 1.173,0.935 1.694,1.22 0.517,0.282 0.884,0.675 1.239,0.923 -0.646,0.604 -1.292,1.206 -1.938,1.81 -0.52,-0.143 -1.09,-0.397 -1.542,-0.741 -0.452,-0.359 -1.093,-1.038 -1.39,-1.403 l 0,0 z"
   id="_145739360"
   style="stroke:#000000;stroke-width:0.95029998" />
		<path
   d="m 317.448,295.976 c 0.623,-0.593 1.246,-1.187 1.868,-1.779 0.614,0.093 1.169,0.901 1.694,1.185 0.521,0.279 0.903,0.662 1.274,0.91 -0.623,0.593 -1.246,1.185 -1.868,1.778 -0.523,-0.151 -1.093,-0.405 -1.554,-0.743 -0.461,-0.348 -1.096,-0.994 -1.414,-1.351 l 0,0 z"
   id="_146029944"
   style="stroke:#000000;stroke-width:0.95029998" />
		<path
   d="m 320.182,298.457 c 0.6,-0.583 1.199,-1.166 1.799,-1.749 0.611,0.106 1.167,0.868 1.695,1.149 0.525,0.277 0.922,0.649 1.309,0.897 -0.6,0.583 -1.199,1.166 -1.799,1.748 -0.527,-0.159 -1.096,-0.413 -1.566,-0.744 -0.47,-0.34 -1.099,-0.953 -1.438,-1.301 l 0,0 z"
   id="_146029224"
   style="stroke:#000000;stroke-width:0.95029998" />
		<path
   d="m 322.965,300.884 c 0.577,-0.573 1.153,-1.146 1.73,-1.719 0.606,0.12 1.163,0.836 1.695,1.114 0.529,0.275 0.942,0.636 1.345,0.885 -0.576,0.572 -1.153,1.145 -1.73,1.718 -0.53,-0.168 -1.1,-0.422 -1.578,-0.745 -0.479,-0.334 -1.102,-0.915 -1.462,-1.253 l 0,0 z"
   id="_146028504"
   style="stroke:#000000;stroke-width:0.95029998" />
		<path
   d="m 325.801,303.248 c 0.554,-0.562 1.107,-1.125 1.661,-1.688 0.603,0.133 1.161,0.802 1.696,1.078 0.533,0.272 0.961,0.624 1.381,0.871 -0.554,0.562 -1.107,1.125 -1.66,1.688 -0.534,-0.176 -1.103,-0.43 -1.59,-0.746 -0.49,-0.325 -1.108,-0.872 -1.488,-1.203 l 0,0 z"
   id="_146027784"
   style="stroke:#000000;stroke-width:0.95029998" />
		<path
   d="m 328.692,305.545 c 0.53,-0.553 1.061,-1.104 1.591,-1.657 0.599,0.146 1.158,0.769 1.696,1.042 0.536,0.27 0.979,0.61 1.415,0.859 -0.53,0.552 -1.061,1.105 -1.591,1.657 -0.538,-0.185 -1.106,-0.438 -1.602,-0.747 -0.496,-0.318 -1.108,-0.832 -1.509,-1.154 l 0,0 z"
   id="_146027064"
   style="stroke:#000000;stroke-width:0.95029998" />
		<path
   d="m 331.645,307.762 c 0.508,-0.542 1.015,-1.084 1.522,-1.627 0.595,0.159 1.154,0.736 1.697,1.006 0.54,0.268 0.999,0.597 1.451,0.846 -0.508,0.542 -1.015,1.084 -1.523,1.626 -0.541,-0.193 -1.109,-0.446 -1.614,-0.748 -0.505,-0.308 -1.111,-0.79 -1.533,-1.103 l 0,0 z"
   id="_146026344"
   style="stroke:#000000;stroke-width:0.95029998" />
		<path
   d="m 334.667,309.883 c 0.484,-0.532 0.969,-1.064 1.453,-1.596 0.591,0.172 1.151,0.702 1.697,0.97 0.544,0.265 1.018,0.583 1.487,0.833 -0.484,0.532 -0.968,1.064 -1.453,1.596 -0.545,-0.202 -1.113,-0.454 -1.626,-0.749 -0.514,-0.301 -1.115,-0.75 -1.558,-1.054 l 0,0 z"
   id="_146025488"
   style="stroke:#000000;stroke-width:0.95029998" />
		<path
   d="m 337.765,311.892 c 0.461,-0.522 0.923,-1.044 1.384,-1.566 0.587,0.185 1.148,0.669 1.697,0.935 0.548,0.263 1.037,0.57 1.522,0.82 -0.461,0.522 -0.923,1.043 -1.384,1.566 -0.548,-0.21 -1.116,-0.463 -1.639,-0.751 -0.522,-0.292 -1.117,-0.708 -1.58,-1.004 l 0,0 z"
   id="_146024768"
   style="stroke:#000000;stroke-width:0.95029998" />
		<path
   d="m 340.945,313.766 c 0.438,-0.512 0.876,-1.023 1.314,-1.535 0.583,0.199 1.146,0.637 1.698,0.899 0.552,0.261 1.057,0.557 1.558,0.807 -0.438,0.512 -0.876,1.023 -1.314,1.535 -0.552,-0.218 -1.12,-0.471 -1.651,-0.752 -0.532,-0.284 -1.121,-0.667 -1.605,-0.954 l 0,0 z"
   id="_146024048"
   style="stroke:#000000;stroke-width:0.95029998" />
		<path
   d="m 344.218,315.473 c 0.415,-0.502 0.83,-1.003 1.245,-1.505 0.579,0.212 1.142,0.603 1.698,0.863 0.555,0.259 1.076,0.543 1.593,0.794 -0.415,0.502 -0.83,1.003 -1.246,1.505 -0.555,-0.227 -1.123,-0.48 -1.663,-0.753 -0.539,-0.275 -1.123,-0.626 -1.627,-0.904 l 0,0 z"
   id="_146023328"
   style="stroke:#000000;stroke-width:0.95029998" />
		<path
   d="m 347.616,316.908 c 0.392,-0.491 0.784,-0.983 1.176,-1.474 0.575,0.226 1.14,0.57 1.699,0.827 0.559,0.257 1.095,0.531 1.628,0.782 -0.392,0.491 -0.784,0.982 -1.176,1.474 -0.56,-0.235 -1.126,-0.487 -1.675,-0.754 -0.549,-0.269 -1.126,-0.586 -1.652,-0.855 l 0,0 z"
   id="_146022608"
   style="stroke:#000000;stroke-width:0.95029998" />
		<path
   d="m 351.134,318.009 c 0.369,-0.481 0.738,-0.963 1.107,-1.444 0.571,0.239 1.136,0.537 1.699,0.791 0.562,0.254 1.114,0.517 1.664,0.769 -0.369,0.48 -0.738,0.962 -1.107,1.443 -0.563,-0.244 -1.129,-0.496 -1.687,-0.755 -0.558,-0.259 -1.13,-0.543 -1.676,-0.804 l 0,0 z"
   id="_146021888"
   style="stroke:#000000;stroke-width:0.95029998" />
	</g>
	<g
   id="_145266240">
		<path
   d="m 216.222,198.622 c 1.638,-1.041 3.275,-2.081 4.913,-3.122 0.79,-0.489 1.302,2.362 1.673,2.759 0.355,0.38 0.061,1.243 -0.284,1.473 -1.638,1.041 -3.275,2.082 -4.913,3.122 -0.365,0.22 -0.947,-0.041 -1.019,-0.693 -0.078,-0.706 -0.964,-2.799 -0.37,-3.539 l 0,0 z"
   id="_146020896"
   style="stroke:#000000;stroke-width:0.95029998" />
		<path
   d="m 217.76,201.972 c 1.615,-1.031 3.229,-2.061 4.844,-3.092 0.786,-0.476 1.299,2.329 1.673,2.724 0.359,0.378 0.081,1.23 -0.248,1.46 -1.615,1.031 -3.229,2.061 -4.844,3.092 -0.369,0.212 -0.951,-0.049 -1.032,-0.694 -0.086,-0.698 -0.966,-2.758 -0.393,-3.49 l 0,0 z"
   id="_146020176"
   style="stroke:#000000;stroke-width:0.95029998" />
		<path
   d="m 219.291,205.325 c 1.591,-1.02 3.183,-2.041 4.774,-3.061 0.781,-0.463 1.295,2.295 1.674,2.688 0.363,0.376 0.1,1.217 -0.213,1.447 -1.592,1.02 -3.183,2.041 -4.774,3.061 -0.372,0.204 -0.954,-0.058 -1.044,-0.695 -0.095,-0.689 -0.97,-2.716 -0.417,-3.44 l 0,0 z"
   id="_146019456"
   style="stroke:#000000;stroke-width:0.95029998" />
		<path
   d="m 220.818,208.682 c 1.569,-1.01 3.137,-2.021 4.705,-3.031 0.778,-0.449 1.293,2.262 1.675,2.652 0.367,0.374 0.119,1.204 -0.178,1.434 -1.569,1.01 -3.137,2.021 -4.706,3.031 -0.376,0.195 -0.957,-0.066 -1.056,-0.697 -0.103,-0.681 -0.972,-2.675 -0.44,-3.389 l 0,0 z"
   id="_146018736"
   style="stroke:#000000;stroke-width:0.95029998" />
		<path
   d="m 222.343,212.037 c 1.545,-1 3.091,-2 4.636,-3 0.773,-0.436 1.289,2.229 1.675,2.616 0.37,0.371 0.138,1.191 -0.143,1.422 -1.545,1 -3.09,2 -4.636,3 -0.379,0.187 -0.961,-0.074 -1.068,-0.697 -0.112,-0.673 -0.976,-2.635 -0.464,-3.341 l 0,0 z"
   id="_146017880"
   style="stroke:#000000;stroke-width:0.95029998" />
		<path
   d="m 223.868,215.394 c 1.522,-0.99 3.045,-1.98 4.567,-2.97 0.77,-0.423 1.287,2.195 1.675,2.58 0.375,0.369 0.157,1.177 -0.107,1.409 -1.522,0.99 -3.045,1.98 -4.567,2.97 -0.383,0.178 -0.964,-0.082 -1.081,-0.699 -0.119,-0.665 -0.977,-2.593 -0.487,-3.29 l 0,0 z"
   id="_146017160"
   style="stroke:#000000;stroke-width:0.95029998" />
		<path
   d="m 225.396,218.75 c 1.499,-0.979 2.999,-1.96 4.498,-2.939 0.766,-0.41 1.283,2.163 1.676,2.544 0.378,0.367 0.177,1.164 -0.071,1.396 -1.499,0.98 -2.998,1.96 -4.498,2.939 -0.387,0.17 -0.967,-0.091 -1.093,-0.7 -0.129,-0.657 -0.981,-2.552 -0.512,-3.24 l 0,0 z"
   id="_146016440"
   style="stroke:#000000;stroke-width:0.95029998" />
		<path
   d="m 226.93,222.103 c 1.476,-0.969 2.952,-1.939 4.429,-2.909 0.761,-0.397 1.28,2.129 1.676,2.509 0.382,0.364 0.196,1.151 -0.036,1.383 -1.476,0.97 -2.952,1.939 -4.429,2.909 -0.39,0.161 -0.971,-0.099 -1.104,-0.701 -0.139,-0.649 -0.985,-2.512 -0.536,-3.191 l 0,0 z"
   id="_146015720"
   style="stroke:#000000;stroke-width:0.95029998" />
		<path
   d="m 228.471,225.452 c 1.453,-0.96 2.906,-1.919 4.359,-2.878 0.758,-0.383 1.277,2.096 1.677,2.473 0.385,0.362 0.214,1.137 0,1.371 -1.453,0.959 -2.906,1.919 -4.359,2.878 -0.394,0.153 -0.974,-0.107 -1.117,-0.702 -0.149,-0.642 -0.989,-2.472 -0.56,-3.142 l 0,0 z"
   id="_146015000"
   style="stroke:#000000;stroke-width:0.95029998" />
		<path
   d="m 230.022,228.796 c 1.43,-0.949 2.86,-1.898 4.29,-2.848 0.754,-0.37 1.275,2.063 1.677,2.438 0.389,0.359 0.234,1.124 0.035,1.357 -1.43,0.949 -2.86,1.899 -4.29,2.848 -0.398,0.144 -0.977,-0.116 -1.129,-0.703 -0.156,-0.633 -0.991,-2.43 -0.583,-3.092 l 0,0 z"
   id="_146014280"
   style="stroke:#000000;stroke-width:0.95029998" />
		<path
   d="m 231.588,232.133 c 1.407,-0.939 2.814,-1.878 4.221,-2.817 0.75,-0.357 1.271,2.03 1.678,2.401 0.393,0.357 0.253,1.111 0.07,1.345 -1.407,0.939 -2.814,1.879 -4.221,2.818 -0.401,0.136 -0.981,-0.124 -1.141,-0.704 -0.165,-0.625 -0.993,-2.389 -0.607,-3.043 l 0,0 z"
   id="_146013560"
   style="stroke:#000000;stroke-width:0.95029998" />
		<path
   d="m 233.169,235.465 c 1.384,-0.928 2.768,-1.858 4.152,-2.786 0.746,-0.344 1.269,1.996 1.678,2.365 0.397,0.355 0.272,1.098 0.106,1.332 -1.384,0.929 -2.768,1.858 -4.152,2.787 -0.405,0.127 -0.984,-0.132 -1.153,-0.706 -0.174,-0.616 -0.997,-2.348 -0.631,-2.992 l 0,0 z"
   id="_146012840"
   style="stroke:#000000;stroke-width:0.95029998" />
		<path
   d="m 234.768,238.787 c 1.361,-0.918 2.722,-1.837 4.082,-2.756 0.742,-0.331 1.266,1.964 1.679,2.33 0.401,0.353 0.291,1.085 0.141,1.319 -1.361,0.918 -2.722,1.837 -4.082,2.757 -0.409,0.119 -0.987,-0.14 -1.166,-0.707 -0.182,-0.609 -0.999,-2.307 -0.654,-2.943 l 0,0 z"
   id="_146012120"
   style="stroke:#000000;stroke-width:0.95029998" />
		<path
   d="m 236.386,242.101 c 1.338,-0.908 2.676,-1.817 4.013,-2.725 0.738,-0.317 1.262,1.93 1.679,2.293 0.404,0.351 0.31,1.072 0.177,1.307 -1.338,0.909 -2.675,1.816 -4.013,2.725 -0.412,0.111 -0.99,-0.148 -1.177,-0.708 -0.192,-0.6 -1.004,-2.265 -0.679,-2.892 l 0,0 z"
   id="_146011400"
   style="stroke:#000000;stroke-width:0.95029998" />
		<path
   d="m 238.028,245.403 c 1.315,-0.899 2.63,-1.797 3.944,-2.695 0.734,-0.303 1.26,1.898 1.68,2.259 0.408,0.348 0.329,1.059 0.212,1.293 -1.315,0.899 -2.63,1.797 -3.945,2.695 -0.416,0.103 -0.993,-0.156 -1.189,-0.708 -0.2,-0.594 -1.006,-2.226 -0.702,-2.844 l 0,0 z"
   id="_146010544"
   style="stroke:#000000;stroke-width:0.95029998" />
		<path
   d="m 239.693,248.693 c 1.292,-0.888 2.583,-1.776 3.875,-2.665 0.73,-0.29 1.256,1.865 1.68,2.223 0.412,0.346 0.348,1.045 0.247,1.281 -1.292,0.889 -2.583,1.776 -3.875,2.665 -0.419,0.093 -0.997,-0.166 -1.202,-0.711 -0.208,-0.584 -1.008,-2.184 -0.725,-2.793 l 0,0 z"
   id="_146009824"
   style="stroke:#000000;stroke-width:0.95029998" />
		<path
   d="m 241.383,251.971 c 1.268,-0.878 2.537,-1.756 3.805,-2.634 0.726,-0.278 1.254,1.83 1.681,2.186 0.416,0.344 0.368,1.032 0.283,1.268 -1.268,0.878 -2.537,1.757 -3.805,2.634 -0.423,0.085 -1.001,-0.173 -1.214,-0.711 -0.218,-0.576 -1.013,-2.142 -0.75,-2.743 l 0,0 z"
   id="_146009104"
   style="stroke:#000000;stroke-width:0.95029998" />
		<path
   d="m 243.097,255.236 c 1.246,-0.868 2.491,-1.736 3.737,-2.603 0.722,-0.264 1.25,1.797 1.681,2.151 0.42,0.342 0.387,1.019 0.318,1.255 -1.246,0.868 -2.491,1.736 -3.737,2.603 -0.427,0.077 -1.004,-0.181 -1.226,-0.712 -0.225,-0.568 -1.014,-2.102 -0.773,-2.694 l 0,0 z"
   id="_146008384"
   style="stroke:#000000;stroke-width:0.95029998" />
		<path
   d="m 244.838,258.487 c 1.223,-0.858 2.445,-1.715 3.667,-2.573 0.718,-0.251 1.247,1.764 1.681,2.115 0.424,0.339 0.406,1.005 0.354,1.243 -1.222,0.857 -2.445,1.715 -3.667,2.573 -0.43,0.069 -1.007,-0.19 -1.238,-0.713 -0.235,-0.56 -1.018,-2.061 -0.797,-2.645 l 0,0 z"
   id="_146007664"
   style="stroke:#000000;stroke-width:0.95029998" />
		<path
   d="m 246.606,261.724 c 1.2,-0.847 2.399,-1.695 3.598,-2.542 0.714,-0.238 1.245,1.731 1.682,2.08 0.427,0.336 0.425,0.992 0.389,1.229 -1.199,0.847 -2.398,1.695 -3.598,2.542 -0.434,0.06 -1.01,-0.198 -1.25,-0.714 -0.244,-0.552 -1.022,-2.02 -0.821,-2.595 l 0,0 z"
   id="_146006944"
   style="stroke:#000000;stroke-width:0.95029998" />
		<path
   d="m 248.403,264.945 c 1.176,-0.838 2.353,-1.675 3.529,-2.512 0.71,-0.224 1.242,1.698 1.683,2.044 0.431,0.334 0.444,0.979 0.424,1.217 -1.176,0.838 -2.352,1.674 -3.529,2.512 -0.437,0.051 -1.014,-0.206 -1.262,-0.715 -0.252,-0.545 -1.024,-1.98 -0.845,-2.546 l 0,0 z"
   id="_146006224"
   style="stroke:#000000;stroke-width:0.95029998" />
		<path
   d="m 250.228,268.151 c 1.153,-0.827 2.307,-1.654 3.46,-2.481 0.706,-0.211 1.239,1.665 1.683,2.008 0.435,0.332 0.463,0.966 0.46,1.203 -1.153,0.828 -2.306,1.655 -3.46,2.482 -0.441,0.043 -1.017,-0.215 -1.275,-0.717 -0.261,-0.535 -1.027,-1.937 -0.868,-2.495 l 0,0 z"
   id="_146005504"
   style="stroke:#000000;stroke-width:0.95029998" />
		<path
   d="m 252.078,271.342 c 1.13,-0.817 2.26,-1.634 3.391,-2.451 0.702,-0.198 1.235,1.632 1.683,1.972 0.438,0.33 0.482,0.953 0.495,1.192 -1.13,0.817 -2.26,1.634 -3.391,2.45 -0.444,0.035 -1.02,-0.223 -1.287,-0.718 -0.268,-0.527 -1.029,-1.896 -0.891,-2.445 l 0,0 z"
   id="_146004784"
   style="stroke:#000000;stroke-width:0.95029998" />
		<path
   d="m 253.955,274.518 c 1.107,-0.807 2.214,-1.613 3.321,-2.42 0.698,-0.185 1.233,1.599 1.684,1.936 0.442,0.328 0.502,0.94 0.531,1.179 -1.107,0.807 -2.214,1.613 -3.321,2.42 -0.448,0.027 -1.024,-0.231 -1.299,-0.719 -0.279,-0.52 -1.034,-1.856 -0.916,-2.396 l 0,0 z"
   id="_146004064"
   style="stroke:#000000;stroke-width:0.95029998" />
		<path
   d="m 255.857,277.679 c 1.084,-0.797 2.168,-1.594 3.252,-2.39 0.694,-0.171 1.229,1.566 1.684,1.901 0.446,0.325 0.521,0.926 0.566,1.165 -1.084,0.797 -2.168,1.593 -3.252,2.39 -0.451,0.018 -1.027,-0.239 -1.311,-0.72 -0.286,-0.511 -1.035,-1.815 -0.939,-2.346 l 0,0 z"
   id="_146003208"
   style="stroke:#000000;stroke-width:0.95029998" />
		<path
   d="m 257.786,280.823 c 1.061,-0.786 2.122,-1.573 3.183,-2.359 0.69,-0.158 1.227,1.532 1.685,1.865 0.45,0.323 0.54,0.913 0.601,1.153 -1.061,0.786 -2.122,1.573 -3.183,2.359 -0.455,0.01 -1.03,-0.247 -1.323,-0.721 -0.295,-0.504 -1.039,-1.775 -0.963,-2.297 l 0,0 z"
   id="_146002488"
   style="stroke:#000000;stroke-width:0.95029998" />
		<path
   d="m 259.739,283.953 c 1.038,-0.777 2.076,-1.552 3.114,-2.328 0.686,-0.145 1.223,1.498 1.685,1.828 0.454,0.321 0.559,0.9 0.637,1.14 -1.038,0.777 -2.076,1.553 -3.114,2.329 -0.458,10e-4 -1.034,-0.256 -1.335,-0.722 -0.304,-0.495 -1.042,-1.733 -0.987,-2.247 l 0,0 z"
   id="_146001768"
   style="stroke:#000000;stroke-width:0.95029998" />
		<path
   d="m 261.488,287.19 c 1.015,-0.765 2.029,-1.532 3.044,-2.298 0.682,-0.131 1.22,1.466 1.686,1.793 0.457,0.318 0.578,0.887 0.672,1.128 -1.015,0.766 -2.029,1.532 -3.045,2.298 -0.462,-0.008 -1.036,-0.264 -1.347,-0.724 -0.313,-0.487 -1.045,-1.692 -1.01,-2.197 l 0,0 z"
   id="_146001048"
   style="stroke:#000000;stroke-width:0.95029998" />
		<path
   d="m 263.081,290.514 c 0.992,-0.755 1.983,-1.512 2.975,-2.267 0.678,-0.119 1.217,1.432 1.686,1.757 0.461,0.316 0.597,0.873 0.708,1.114 -0.992,0.756 -1.984,1.512 -2.976,2.267 -0.466,-0.016 -1.04,-0.272 -1.36,-0.724 -0.321,-0.479 -1.047,-1.651 -1.033,-2.147 l 0,0 z"
   id="_146000328"
   style="stroke:#000000;stroke-width:0.95029998" />
		<path
   d="m 264.822,293.765 c 0.969,-0.746 1.938,-1.491 2.906,-2.237 0.675,-0.106 1.215,1.399 1.687,1.722 0.465,0.314 0.616,0.86 0.743,1.102 -0.968,0.746 -1.937,1.491 -2.906,2.237 -0.469,-0.024 -1.043,-0.281 -1.372,-0.726 -0.331,-0.471 -1.052,-1.61 -1.058,-2.098 l 0,0 z"
   id="_145999608"
   style="stroke:#000000;stroke-width:0.95029998" />
		<path
   d="m 266.69,296.946 c 0.946,-0.735 1.891,-1.471 2.837,-2.207 0.671,-0.092 1.212,1.366 1.688,1.687 0.469,0.311 0.635,0.847 0.779,1.088 -0.946,0.736 -1.891,1.472 -2.837,2.207 -0.473,-0.033 -1.047,-0.289 -1.384,-0.727 -0.34,-0.463 -1.055,-1.569 -1.083,-2.048 l 0,0 z"
   id="_145998888"
   style="stroke:#000000;stroke-width:0.95029998" />
		<path
   d="m 268.657,300.067 c 0.923,-0.725 1.845,-1.451 2.767,-2.176 0.666,-0.079 1.209,1.333 1.688,1.65 0.472,0.309 0.655,0.834 0.814,1.076 -0.923,0.726 -1.845,1.451 -2.768,2.177 -0.477,-0.041 -1.05,-0.298 -1.396,-0.728 -0.347,-0.455 -1.057,-1.529 -1.105,-1.999 l 0,0 z"
   id="_145998168"
   style="stroke:#000000;stroke-width:0.95029998" />
		<path
   d="m 270.707,303.135 c 0.9,-0.715 1.799,-1.43 2.698,-2.146 0.662,-0.065 1.206,1.3 1.689,1.615 0.476,0.306 0.674,0.821 0.849,1.063 -0.899,0.715 -1.799,1.43 -2.699,2.146 -0.48,-0.05 -1.053,-0.306 -1.408,-0.729 -0.356,-0.447 -1.06,-1.488 -1.129,-1.949 l 0,0 z"
   id="_145997448"
   style="stroke:#000000;stroke-width:0.95029998" />
		<path
   d="m 272.83,306.153 c 0.877,-0.705 1.753,-1.41 2.629,-2.115 0.658,-0.053 1.202,1.267 1.689,1.578 0.48,0.305 0.693,0.807 0.885,1.05 -0.876,0.705 -1.753,1.41 -2.629,2.115 -0.484,-0.058 -1.057,-0.314 -1.42,-0.73 -0.366,-0.438 -1.064,-1.446 -1.154,-1.898 l 0,0 z"
   id="_145996728"
   style="stroke:#000000;stroke-width:0.95029998" />
		<path
   d="m 275.021,309.123 c 0.853,-0.694 1.706,-1.389 2.56,-2.084 0.654,-0.039 1.2,1.234 1.689,1.543 0.483,0.303 0.712,0.795 0.92,1.038 -0.853,0.694 -1.706,1.389 -2.56,2.085 -0.488,-0.067 -1.06,-0.322 -1.432,-0.732 -0.374,-0.431 -1.066,-1.406 -1.177,-1.85 l 0,0 z"
   id="_145995872"
   style="stroke:#000000;stroke-width:0.95029998" />
		<path
   d="m 277.273,312.048 c 0.83,-0.685 1.661,-1.37 2.491,-2.054 0.651,-0.026 1.196,1.201 1.69,1.507 0.488,0.301 0.731,0.782 0.956,1.025 -0.83,0.685 -1.661,1.369 -2.491,2.054 -0.491,-0.075 -1.063,-0.331 -1.444,-0.733 -0.385,-0.423 -1.071,-1.365 -1.202,-1.799 l 0,0 z"
   id="_145995152"
   style="stroke:#000000;stroke-width:0.95029998" />
		<path
   d="m 279.58,314.929 c 0.807,-0.675 1.614,-1.349 2.422,-2.023 0.646,-0.013 1.193,1.167 1.69,1.471 0.491,0.298 0.75,0.768 0.991,1.012 -0.807,0.675 -1.615,1.349 -2.422,2.023 -0.495,-0.083 -1.067,-0.338 -1.457,-0.733 -0.391,-0.415 -1.072,-1.324 -1.224,-1.75 l 0,0 z"
   id="_145994432"
   style="stroke:#000000;stroke-width:0.95029998" />
		<path
   d="m 281.939,317.768 c 0.784,-0.664 1.568,-1.329 2.352,-1.993 0.642,0.001 1.19,1.134 1.691,1.436 0.495,0.295 0.769,0.754 1.026,0.999 -0.784,0.664 -1.569,1.328 -2.353,1.993 -0.498,-0.092 -1.07,-0.347 -1.469,-0.735 -0.399,-0.406 -1.074,-1.283 -1.247,-1.7 l 0,0 z"
   id="_145993704"
   style="stroke:#000000;stroke-width:0.95029998" />
		<path
   d="m 284.347,320.566 c 0.761,-0.654 1.522,-1.309 2.283,-1.963 0.638,0.014 1.187,1.101 1.691,1.4 0.499,0.293 0.789,0.741 1.062,0.986 -0.761,0.654 -1.522,1.308 -2.284,1.962 -0.502,-0.1 -1.073,-0.355 -1.48,-0.736 -0.409,-0.397 -1.078,-1.241 -1.272,-1.649 l 0,0 z"
   id="_145992984"
   style="stroke:#000000;stroke-width:0.95029998" />
		<path
   d="m 286.804,323.321 c 0.738,-0.644 1.476,-1.288 2.214,-1.932 0.634,0.027 1.184,1.068 1.692,1.364 0.502,0.291 0.807,0.729 1.097,0.974 -0.738,0.644 -1.477,1.288 -2.214,1.932 -0.505,-0.11 -1.076,-0.364 -1.493,-0.737 -0.418,-0.391 -1.082,-1.201 -1.296,-1.601 z"
   id="_145992264"
   style="stroke:#000000;stroke-width:0.95029998" />
		<path
   d="m 289.306,326.035 c 0.715,-0.633 1.43,-1.267 2.145,-1.901 0.631,0.041 1.181,1.035 1.692,1.328 0.506,0.289 0.827,0.715 1.133,0.96 -0.715,0.634 -1.43,1.268 -2.145,1.901 -0.509,-0.117 -1.08,-0.371 -1.505,-0.738 -0.427,-0.38 -1.085,-1.158 -1.32,-1.55 l 0,0 z"
   id="_145991544"
   style="stroke:#000000;stroke-width:0.95029998" />
		<path
   d="m 291.854,328.707 c 0.692,-0.623 1.384,-1.247 2.076,-1.87 0.626,0.053 1.178,1.001 1.692,1.292 0.51,0.286 0.846,0.702 1.168,0.948 -0.692,0.623 -1.384,1.248 -2.076,1.871 -0.513,-0.126 -1.083,-0.38 -1.517,-0.739 -0.435,-0.374 -1.087,-1.119 -1.343,-1.502 l 0,0 z"
   id="_145990824"
   style="stroke:#000000;stroke-width:0.95029998" />
		<path
   d="m 294.45,331.333 c 0.669,-0.614 1.338,-1.227 2.006,-1.84 0.622,0.067 1.175,0.968 1.693,1.257 0.514,0.284 0.865,0.689 1.203,0.935 -0.669,0.613 -1.338,1.227 -2.007,1.84 -0.516,-0.134 -1.086,-0.388 -1.529,-0.74 -0.443,-0.366 -1.09,-1.077 -1.366,-1.452 l 0,0 z"
   id="_145990104"
   style="stroke:#000000;stroke-width:0.95029998" />
		<path
   d="m 297.091,333.914 c 0.646,-0.603 1.292,-1.207 1.938,-1.81 0.618,0.08 1.172,0.935 1.693,1.221 0.517,0.282 0.884,0.675 1.239,0.923 -0.646,0.603 -1.292,1.206 -1.937,1.81 -0.52,-0.143 -1.09,-0.397 -1.542,-0.742 -0.453,-0.358 -1.094,-1.037 -1.391,-1.402 l 0,0 z"
   id="_145989384"
   style="stroke:#000000;stroke-width:0.95029998" />
		<path
   d="m 299.778,336.446 c 0.623,-0.594 1.245,-1.187 1.868,-1.78 0.614,0.093 1.169,0.902 1.694,1.185 0.521,0.279 0.904,0.662 1.274,0.91 -0.623,0.593 -1.245,1.186 -1.868,1.779 -0.523,-0.15 -1.093,-0.404 -1.554,-0.742 -0.462,-0.349 -1.096,-0.996 -1.414,-1.352 l 0,0 z"
   id="_145988528"
   style="stroke:#000000;stroke-width:0.95029998" />
		<path
   d="m 302.512,338.927 c 0.6,-0.583 1.199,-1.166 1.799,-1.75 0.611,0.107 1.167,0.869 1.695,1.15 0.525,0.277 0.923,0.649 1.31,0.897 -0.6,0.583 -1.199,1.165 -1.799,1.749 -0.527,-0.16 -1.096,-0.414 -1.566,-0.744 -0.471,-0.341 -1.101,-0.955 -1.439,-1.302 l 0,0 z"
   id="_145987808"
   style="stroke:#000000;stroke-width:0.95029998" />
		<path
   d="m 305.295,341.353 c 0.577,-0.572 1.153,-1.145 1.73,-1.718 0.606,0.119 1.163,0.836 1.695,1.114 0.529,0.275 0.942,0.636 1.345,0.884 -0.577,0.572 -1.153,1.145 -1.73,1.718 -0.53,-0.168 -1.099,-0.421 -1.578,-0.744 -0.478,-0.334 -1.102,-0.915 -1.462,-1.254 l 0,0 z"
   id="_145987088"
   style="stroke:#000000;stroke-width:0.95029998" />
		<path
   d="m 308.131,343.719 c 0.554,-0.563 1.107,-1.125 1.661,-1.688 0.603,0.133 1.161,0.802 1.695,1.078 0.533,0.272 0.961,0.623 1.381,0.871 -0.553,0.562 -1.107,1.125 -1.661,1.688 -0.534,-0.177 -1.103,-0.43 -1.59,-0.746 -0.487,-0.326 -1.105,-0.873 -1.486,-1.203 l 0,0 z"
   id="_145986368"
   style="stroke:#000000;stroke-width:0.95029998" />
		<path
   d="m 311.022,346.015 c 0.53,-0.553 1.061,-1.105 1.591,-1.658 0.599,0.146 1.157,0.77 1.696,1.042 0.536,0.271 0.98,0.61 1.416,0.859 -0.53,0.552 -1.061,1.104 -1.591,1.657 -0.537,-0.185 -1.106,-0.438 -1.602,-0.748 -0.497,-0.315 -1.109,-0.83 -1.51,-1.152 l 0,0 z"
   id="_145985664"
   style="stroke:#000000;stroke-width:0.95029998" />
		<path
   d="m 313.976,348.232 c 0.507,-0.543 1.015,-1.085 1.522,-1.627 0.595,0.159 1.155,0.736 1.697,1.006 0.54,0.267 0.999,0.596 1.451,0.845 -0.507,0.542 -1.015,1.085 -1.522,1.627 -0.541,-0.193 -1.11,-0.447 -1.614,-0.748 -0.506,-0.308 -1.113,-0.791 -1.534,-1.103 l 0,0 z"
   id="_145272224"
   style="stroke:#000000;stroke-width:0.95029998" />
		<path
   d="m 316.998,350.352 c 0.484,-0.532 0.969,-1.064 1.453,-1.596 0.591,0.173 1.151,0.703 1.697,0.97 0.544,0.266 1.018,0.583 1.487,0.833 -0.484,0.532 -0.969,1.064 -1.453,1.596 -0.545,-0.201 -1.113,-0.454 -1.626,-0.749 -0.515,-0.3 -1.116,-0.75 -1.558,-1.054 l 0,0 z"
   id="_145271504"
   style="stroke:#000000;stroke-width:0.95029998" />
		<path
   d="m 320.095,352.362 c 0.461,-0.522 0.922,-1.043 1.384,-1.566 0.587,0.186 1.148,0.67 1.697,0.935 0.548,0.263 1.037,0.569 1.522,0.82 -0.461,0.522 -0.923,1.043 -1.384,1.565 -0.548,-0.21 -1.116,-0.463 -1.639,-0.751 -0.522,-0.291 -1.117,-0.708 -1.58,-1.003 l 0,0 z"
   id="_145270784"
   style="stroke:#000000;stroke-width:0.95029998" />
		<path
   d="m 323.275,354.236 c 0.438,-0.512 0.876,-1.024 1.314,-1.536 0.582,0.199 1.145,0.637 1.698,0.899 0.552,0.261 1.056,0.557 1.558,0.807 -0.438,0.512 -0.876,1.024 -1.314,1.536 -0.552,-0.219 -1.12,-0.471 -1.651,-0.752 -0.532,-0.285 -1.121,-0.668 -1.605,-0.954 l 0,0 z"
   id="_145270064"
   style="stroke:#000000;stroke-width:0.95029998" />
		<path
   d="m 326.547,355.943 c 0.415,-0.501 0.83,-1.003 1.246,-1.505 0.578,0.213 1.142,0.604 1.698,0.864 0.555,0.258 1.076,0.543 1.593,0.794 -0.415,0.501 -0.83,1.003 -1.245,1.505 -0.556,-0.227 -1.123,-0.48 -1.663,-0.753 -0.54,-0.276 -1.124,-0.627 -1.629,-0.905 l 0,0 z"
   id="_145269360"
   style="stroke:#000000;stroke-width:0.95029998" />
		<path
   d="m 329.946,357.377 c 0.392,-0.492 0.784,-0.983 1.176,-1.474 0.575,0.225 1.14,0.57 1.699,0.827 0.559,0.256 1.095,0.53 1.629,0.781 -0.392,0.492 -0.784,0.983 -1.176,1.474 -0.559,-0.235 -1.126,-0.487 -1.675,-0.753 -0.55,-0.268 -1.128,-0.586 -1.653,-0.855 l 0,0 z"
   id="_145266920"
   style="stroke:#000000;stroke-width:0.95029998" />
		<path
   d="m 333.464,358.479 c 0.369,-0.481 0.738,-0.962 1.107,-1.444 0.571,0.239 1.136,0.537 1.699,0.792 0.563,0.254 1.114,0.517 1.664,0.769 -0.369,0.481 -0.738,0.962 -1.107,1.443 -0.563,-0.243 -1.13,-0.496 -1.687,-0.755 -0.558,-0.26 -1.13,-0.545 -1.676,-0.805 l 0,0 z"
   id="_145266536"
   style="stroke:#000000;stroke-width:0.95029998" />
	</g>
	<path
   d="m 217.872,195.701 c 14.244,31.26 23.918,55.932 44.997,89.475 11.177,27.245 52.747,69.538 73.379,72.293 h 1.388 c 0,0.347 0.347,1.041 0.694,1.041"
   id="path220"
   style="stroke:#000000;stroke-miterlimit:10" />
	<path
   d="m 194.222,182.216 2.086,3.755 c 3.755,5.424 7.927,12.099 7.927,18.775 0,0.834 0,6.258 0.417,6.258 0.834,0 2.503,1.252 2.92,1.252 2.086,0.834 3.337,-2.921 3.337,-3.338 0.834,-2.086 0.834,-8.762 -0.417,-10.013 -0.417,-0.417 -1.669,-5.841 -1.669,-6.675 0,-0.834 -1.669,-4.172 -1.669,-5.424 0,-1.669 -2.92,-6.258 -4.589,-6.258 -1.252,0 -3.755,0 -5.006,0 -0.834,-0.001 -3.337,1.668 -3.337,1.668 l 0,0 z"
   id="path222"
   style="stroke:#000000;stroke-width:0.95029998" />
	<path
   d="m 210.911,168.866 c -3.338,0 -7.093,0 -10.013,1.252 l -6.675,3.338 -2.503,3.338 c 0,2.086 -1.669,7.51 1.669,7.51 2.503,0 5.424,0.834 7.927,0 1.252,-0.417 3.338,-0.417 3.755,-1.669 0.417,-0.834 1.252,-1.252 1.669,-2.92 0.417,-1.252 1.669,-3.338 2.503,-4.172 0.417,-0.417 1.669,-1.669 2.086,-2.086 -0.001,-0.002 -0.001,-2.923 -0.418,-4.591 l 0,0 z"
   id="path224"
   style="stroke:#000000;stroke-width:0.95029998" />
	<path
   d="m 366.348,246.06 c 2.634,8.74 5.873,25.681 16.477,43.165 1.856,3.945 3.249,8.123 6.498,11.372 5.278,4.112 2.493,1.559 5.802,0 2.537,-1.562 5.575,-14.531 6.292,-15.741 -7.901,-7.901 -14.919,-32.953 -18.824,-43.205 -0.928,-2.32 -5.569,-4.409 -7.89,-3.249 -0.93,0.464 -8.355,7.194 -8.355,7.658 l 0,0 z"
   id="path226"
   style="stroke:#000000;stroke-width:0.95029998" />
	<path
   d="m 391.764,236.239 c 2.153,8.32 4.491,24.752 14.304,43.933 1.658,4.033 2.84,8.275 5.923,11.682 4.3,2.888 1.866,0.856 5.795,0.289 2.612,-1.433 7.355,-8.978 9.622,-10.303 -7.916,-13.643 -15.877,-33.955 -19.199,-49.195 -0.812,-2.364 -5.343,-4.681 -7.718,-3.638 -0.951,0.417 -8.704,6.768 -8.727,7.232 l 0,0 z"
   id="path228"
   style="stroke:#000000;stroke-width:0.95029998" />
	<path
   d="m 422.973,233.992 c 0,12.532 1.321,25.443 3.9,37.197 0.359,1.905 2.033,6.003 3.181,8.058 2.527,4.521 7.525,6.047 13.109,0.463 0.696,-0.697 0.697,-6.266 1.856,-6.266 12.532,0 -0.928,-16.71 -0.928,-21.815 0,-4.178 -3.249,-10.212 -5.802,-12.764 -1.625,-1.624 -3.945,-2.785 -5.338,-4.177 -2.784,-2.784 -7.426,-0.696 -9.978,-0.696 l 0,0 z"
   id="path230"
   style="stroke:#000000;stroke-width:0.95029998" />
	<path
   d="m 180.871,178.461 c 0,1.252 -0.417,2.503 -0.417,3.755 0,1.669 0.834,5.006 1.669,5.841 v 0.834 c 0,0 1.252,1.252 1.252,1.669 0,0.417 0.417,1.669 0.834,1.669 l 2.503,1.669 c 1.669,0 2.086,0.834 2.086,-0.834 0,-1.252 0,-5.006 0.417,-5.424 0,0 0.417,-5.424 0.417,-6.258 0,-1.252 -1.252,-4.589 -2.503,-4.589 -0.834,0 -2.503,0 -3.337,0 -0.418,-0.001 -2.086,1.251 -2.921,1.668 l 0,0 z"
   id="path232"
   style="stroke:#000000;stroke-width:0.95029998" />
	<g
   id="_145640440">
		<path
   d="m 181.363,187.104 7.222,6.517 c 0.179,0.161 0.047,0.55 -0.293,0.865 l -1.98,1.828 c -0.341,0.314 -0.765,0.44 -0.944,0.278 l -7.222,-6.516 c -0.179,-0.161 -0.047,-0.551 0.294,-0.865 l 1.98,-1.828 c 0.339,-0.315 0.764,-0.44 0.943,-0.279 l 0,0 z"
   id="_145693512"
   style="stroke:#000000;stroke-width:0.95029998" />
		<path
   d="m 178.551,190.401 c 2.111,1.857 4.223,3.715 6.335,5.572 0.157,0.138 0.036,0.495 -0.269,0.793 -0.59,0.579 -1.18,1.156 -1.771,1.735 -0.305,0.298 -0.682,0.429 -0.839,0.291 -2.111,-1.858 -4.223,-3.715 -6.335,-5.573 -0.157,-0.138 -0.036,-0.495 0.268,-0.793 0.59,-0.578 1.181,-1.156 1.771,-1.735 0.305,-0.298 0.683,-0.429 0.84,-0.29 l 0,0 z"
   id="_145692600"
   style="stroke:#000000;stroke-width:0.95029998" />
		<path
   d="m 175.865,193.299 c 1.956,1.67 3.912,3.339 5.868,5.009 0.145,0.124 0.028,0.471 -0.26,0.772 -0.559,0.582 -1.118,1.165 -1.677,1.747 -0.289,0.301 -0.643,0.445 -0.788,0.321 -1.956,-1.67 -3.912,-3.339 -5.868,-5.009 -0.146,-0.124 -0.028,-0.471 0.259,-0.772 0.559,-0.582 1.118,-1.165 1.677,-1.747 0.289,-0.301 0.644,-0.446 0.789,-0.321 l 0,0 z"
   id="_145691824"
   style="stroke:#000000;stroke-width:0.95029998" />
		<path
   d="m 173.349,196.047 c 1.801,1.481 3.601,2.963 5.401,4.444 0.134,0.11 0.021,0.447 -0.252,0.751 -0.528,0.586 -1.055,1.173 -1.583,1.76 -0.272,0.303 -0.604,0.46 -0.738,0.35 -1.8,-1.481 -3.601,-2.963 -5.401,-4.444 -0.134,-0.11 -0.021,-0.448 0.251,-0.751 0.528,-0.587 1.055,-1.173 1.583,-1.76 0.273,-0.302 0.605,-0.46 0.739,-0.35 l 0,0 z"
   id="_145691048"
   style="stroke:#000000;stroke-width:0.95029998" />
		<path
   d="m 170.818,198.703 c 1.645,1.294 3.29,2.587 4.935,3.88 0.122,0.096 0.013,0.424 -0.243,0.729 -0.496,0.591 -0.992,1.182 -1.488,1.773 -0.256,0.305 -0.565,0.475 -0.688,0.379 -1.645,-1.293 -3.29,-2.587 -4.935,-3.88 -0.122,-0.096 -0.013,-0.424 0.243,-0.729 0.496,-0.591 0.992,-1.182 1.489,-1.773 0.256,-0.305 0.565,-0.475 0.687,-0.379 l 0,0 z"
   id="_145690272"
   style="stroke:#000000;stroke-width:0.95029998" />
		<path
   d="m 168.618,201.396 c 1.49,1.106 2.979,2.211 4.469,3.316 0.111,0.082 0.005,0.4 -0.234,0.707 -0.465,0.595 -0.93,1.191 -1.395,1.786 -0.24,0.307 -0.527,0.491 -0.637,0.409 -1.49,-1.106 -2.979,-2.211 -4.469,-3.316 -0.111,-0.082 -0.005,-0.4 0.235,-0.707 0.465,-0.595 0.93,-1.19 1.395,-1.786 0.239,-0.307 0.526,-0.491 0.636,-0.409 l 0,0 z"
   id="_145743760"
   style="stroke:#000000;stroke-width:0.95029998" />
		<path
   d="m 166.381,203.952 c 1.334,0.917 2.668,1.835 4.002,2.752 0.099,0.068 -0.003,0.377 -0.226,0.686 -0.434,0.599 -0.867,1.199 -1.301,1.798 -0.224,0.309 -0.488,0.507 -0.587,0.438 -1.334,-0.917 -2.668,-1.835 -4.002,-2.752 -0.099,-0.068 0.003,-0.377 0.226,-0.686 0.433,-0.599 0.867,-1.199 1.301,-1.798 0.223,-0.309 0.487,-0.506 0.587,-0.438 l 0,0 z"
   id="_145738640"
   style="stroke:#000000;stroke-width:0.95029998" />
		<path
   d="m 163.776,206.679 c 1.179,0.729 2.357,1.458 3.536,2.188 0.088,0.054 -0.011,0.353 -0.218,0.664 -0.402,0.604 -0.804,1.208 -1.206,1.811 -0.208,0.312 -0.449,0.522 -0.536,0.468 -1.178,-0.729 -2.357,-1.458 -3.536,-2.188 -0.087,-0.054 0.011,-0.353 0.218,-0.665 0.402,-0.604 0.805,-1.207 1.207,-1.811 0.206,-0.311 0.448,-0.521 0.535,-0.467 l 0,0 z"
   id="_145737864"
   style="stroke:#000000;stroke-width:0.95029998" />
		<path
   d="m 161.569,209.371 c 1.023,0.541 2.046,1.083 3.069,1.624 0.077,0.04 -0.018,0.329 -0.209,0.643 -0.371,0.608 -0.742,1.216 -1.113,1.824 -0.191,0.313 -0.41,0.537 -0.486,0.497 -1.023,-0.541 -2.046,-1.082 -3.069,-1.624 -0.076,-0.04 0.018,-0.329 0.21,-0.643 0.371,-0.608 0.742,-1.216 1.113,-1.824 0.19,-0.314 0.409,-0.537 0.485,-0.497 l 0,0 z"
   id="_145737088"
   style="stroke:#000000;stroke-width:0.95029998" />
		<path
   d="m 159.441,212.201 c 0.868,0.354 1.735,0.706 2.602,1.06 0.065,0.026 -0.026,0.306 -0.201,0.622 -0.339,0.613 -0.679,1.225 -1.018,1.837 -0.175,0.316 -0.371,0.553 -0.436,0.526 -0.867,-0.353 -1.735,-0.706 -2.602,-1.059 -0.064,-0.026 0.026,-0.306 0.201,-0.621 0.34,-0.613 0.679,-1.225 1.019,-1.837 0.174,-0.317 0.37,-0.554 0.435,-0.528 l 0,0 z"
   id="_145736312"
   style="stroke:#000000;stroke-width:0.95029998" />
		<path
   d="m 157.633,215.178 c 0.712,0.165 1.424,0.33 2.135,0.495 0.053,0.012 -0.034,0.282 -0.193,0.6 -0.308,0.616 -0.616,1.233 -0.924,1.85 -0.159,0.318 -0.332,0.568 -0.385,0.556 -0.712,-0.165 -1.424,-0.33 -2.136,-0.495 -0.053,-0.013 0.034,-0.283 0.193,-0.601 0.308,-0.616 0.616,-1.233 0.924,-1.849 0.16,-0.319 0.333,-0.569 0.386,-0.556 l 0,0 z"
   id="_145735928"
   style="stroke:#000000;stroke-width:0.95029998" />
		<path
   d="m 156.223,218.403 1.669,-0.069 c 0.041,-0.002 -0.041,0.258 -0.184,0.579 l -0.831,1.863 c -0.143,0.32 -0.293,0.583 -0.335,0.585 l -1.669,0.069 c -0.041,0.001 0.041,-0.259 0.184,-0.579 l 0.83,-1.862 c 0.144,-0.321 0.294,-0.584 0.336,-0.586 l 0,0 z"
   id="_145640592"
   style="stroke:#000000;stroke-width:0.95029998" />
	</g>
	<g
   id="_145719376">
		<path
   d="m 204.789,210.295 10.036,-3.449 c 0.249,-0.085 0.285,0.29 0.081,0.834 l -1.185,3.166 c -0.204,0.544 -0.574,1.059 -0.823,1.144 l -10.036,3.448 c -0.249,0.086 -0.285,-0.29 -0.082,-0.834 l 1.186,-3.166 c 0.204,-0.543 0.574,-1.058 0.823,-1.143 l 0,0 z"
   id="_145639744"
   style="stroke:#000000;stroke-width:0.95029998" />
		<path
   d="m 203.409,215.22 c 2.914,-1.037 5.828,-2.075 8.741,-3.113 0.217,-0.077 0.251,0.266 0.076,0.764 -0.339,0.964 -0.678,1.928 -1.017,2.892 -0.175,0.497 -0.495,0.967 -0.712,1.044 -2.913,1.037 -5.827,2.075 -8.741,3.112 -0.216,0.077 -0.25,-0.266 -0.076,-0.763 0.339,-0.964 0.678,-1.928 1.017,-2.893 0.175,-0.496 0.495,-0.966 0.712,-1.043 l 0,0 z"
   id="_145639304"
   style="stroke:#000000;stroke-width:0.95029998" />
		<path
   d="m 201.982,219.771 c 2.677,-0.993 5.354,-1.985 8.03,-2.978 0.199,-0.074 0.232,0.26 0.075,0.742 -0.306,0.935 -0.612,1.869 -0.918,2.803 -0.158,0.482 -0.45,0.937 -0.649,1.01 -2.676,0.993 -5.353,1.985 -8.03,2.978 -0.199,0.074 -0.233,-0.26 -0.075,-0.742 0.306,-0.935 0.612,-1.869 0.917,-2.803 0.159,-0.482 0.451,-0.937 0.65,-1.01 l 0,0 z"
   id="_145638520"
   style="stroke:#000000;stroke-width:0.95029998" />
		<path
   d="m 200.661,224.054 c 2.441,-0.948 4.88,-1.895 7.32,-2.843 0.181,-0.07 0.215,0.253 0.074,0.721 -0.273,0.904 -0.546,1.809 -0.818,2.714 -0.141,0.466 -0.404,0.906 -0.586,0.976 -2.44,0.948 -4.88,1.896 -7.32,2.843 -0.181,0.071 -0.214,-0.253 -0.074,-0.72 0.273,-0.905 0.546,-1.809 0.818,-2.714 0.141,-0.467 0.405,-0.907 0.586,-0.977 l 0,0 z"
   id="_145637736"
   style="stroke:#000000;stroke-width:0.95029998" />
		<path
   d="m 199.284,228.295 c 2.204,-0.902 4.406,-1.805 6.61,-2.708 0.164,-0.067 0.197,0.247 0.073,0.699 -0.239,0.875 -0.479,1.75 -0.719,2.625 -0.124,0.451 -0.358,0.875 -0.522,0.942 -2.203,0.903 -4.406,1.806 -6.61,2.709 -0.164,0.067 -0.197,-0.247 -0.073,-0.699 0.24,-0.875 0.479,-1.75 0.719,-2.625 0.123,-0.452 0.358,-0.876 0.522,-0.943 l 0,0 z"
   id="_145636952"
   style="stroke:#000000;stroke-width:0.95029998" />
		<path
   d="m 198.254,232.22 c 1.967,-0.858 3.933,-1.716 5.9,-2.574 0.146,-0.064 0.179,0.24 0.072,0.677 -0.206,0.845 -0.413,1.691 -0.619,2.535 -0.107,0.436 -0.313,0.845 -0.459,0.909 -1.967,0.857 -3.933,1.715 -5.9,2.573 -0.146,0.064 -0.178,-0.241 -0.072,-0.677 0.206,-0.845 0.413,-1.69 0.619,-2.535 0.107,-0.437 0.313,-0.845 0.459,-0.908 z"
   id="_145636168"
   style="stroke:#000000;stroke-width:0.95029998" />
		<path
   d="m 197.126,236.097 c 1.73,-0.812 3.459,-1.625 5.189,-2.438 0.128,-0.06 0.161,0.234 0.071,0.654 -0.173,0.816 -0.346,1.632 -0.52,2.447 -0.09,0.421 -0.268,0.814 -0.396,0.874 -1.729,0.813 -3.459,1.626 -5.189,2.439 -0.129,0.06 -0.161,-0.234 -0.071,-0.656 0.173,-0.814 0.346,-1.63 0.519,-2.445 0.091,-0.42 0.269,-0.814 0.397,-0.875 l 0,0 z"
   id="_145724088"
   style="stroke:#000000;stroke-width:0.95029998" />
		<path
   d="m 195.708,240.458 c 1.493,-0.767 2.986,-1.536 4.478,-2.303 0.111,-0.058 0.143,0.227 0.071,0.633 -0.14,0.786 -0.28,1.571 -0.42,2.357 -0.072,0.406 -0.222,0.784 -0.333,0.84 -1.493,0.768 -2.986,1.536 -4.478,2.304 -0.111,0.058 -0.143,-0.227 -0.071,-0.633 0.14,-0.786 0.281,-1.572 0.42,-2.357 0.072,-0.405 0.222,-0.783 0.333,-0.841 l 0,0 z"
   id="_145723304"
   style="stroke:#000000;stroke-width:0.95029998" />
		<path
   d="m 194.669,244.389 c 1.256,-0.723 2.512,-1.446 3.768,-2.169 0.093,-0.054 0.125,0.221 0.07,0.611 -0.107,0.756 -0.214,1.512 -0.321,2.268 -0.055,0.39 -0.177,0.753 -0.27,0.807 -1.256,0.723 -2.512,1.446 -3.768,2.169 -0.094,0.054 -0.125,-0.221 -0.069,-0.611 0.107,-0.756 0.214,-1.512 0.32,-2.268 0.056,-0.39 0.177,-0.752 0.27,-0.807 l 0,0 z"
   id="_145722520"
   style="stroke:#000000;stroke-width:0.95029998" />
		<path
   d="m 193.771,248.323 c 1.019,-0.678 2.039,-1.356 3.058,-2.034 0.076,-0.051 0.107,0.215 0.068,0.59 -0.073,0.726 -0.147,1.452 -0.221,2.178 -0.038,0.375 -0.131,0.722 -0.207,0.774 -1.019,0.678 -2.039,1.355 -3.058,2.033 -0.076,0.051 -0.106,-0.215 -0.068,-0.59 0.074,-0.726 0.147,-1.452 0.221,-2.179 0.038,-0.374 0.131,-0.722 0.207,-0.772 l 0,0 z"
   id="_145721600"
   style="stroke:#000000;stroke-width:0.95029998" />
		<path
   d="m 193.255,252.015 c 0.783,-0.633 1.565,-1.266 2.347,-1.898 0.058,-0.048 0.089,0.208 0.068,0.567 -0.04,0.696 -0.081,1.393 -0.121,2.089 -0.021,0.359 -0.086,0.692 -0.144,0.739 -0.783,0.633 -1.565,1.267 -2.348,1.899 -0.058,0.047 -0.088,-0.209 -0.067,-0.568 0.04,-0.696 0.081,-1.393 0.121,-2.089 0.021,-0.36 0.086,-0.691 0.144,-0.739 l 0,0 z"
   id="_145720816"
   style="stroke:#000000;stroke-width:0.95029998" />
		<path
   d="m 193.245,255.451 1.637,-1.764 c 0.041,-0.044 0.071,0.201 0.067,0.545 l -0.022,2.001 c -0.004,0.344 -0.04,0.661 -0.081,0.705 l -1.637,1.764 c -0.041,0.044 -0.071,-0.201 -0.067,-0.546 l 0.022,-2 c 0.004,-0.344 0.04,-0.661 0.081,-0.705 z"
   id="_145719784"
   style="stroke:#000000;stroke-width:0.95029998" />
	</g>
	<path
   d="m 206.739,160.104 c -3.755,0 -12.099,0 -14.185,2.086 -0.417,0.417 -3.338,0.834 -3.755,1.252 -0.417,0.417 -2.086,1.669 -2.503,2.086 h -0.834 c 0,0.417 -0.417,0.834 -0.834,0.834 -0.834,0.417 -4.172,4.172 -4.589,4.589 -0.834,0.835 -2.086,4.172 -1.252,5.007 0,0 0.417,1.669 0.835,2.086 l 0.834,0.834 c 0.834,0.417 2.921,2.503 3.755,2.503 2.503,0.834 5.007,-2.921 5.841,-3.338 1.669,-0.834 2.503,-3.338 5.006,-4.589 0.834,-0.417 3.755,-1.669 4.589,-1.669 1.252,0 3.338,-0.834 3.755,-0.834 2.503,-0.417 2.503,-1.669 2.503,-4.172 0,-1.668 0,-4.171 0.834,-6.675 l 0,0 z"
   id="path260"
   style="stroke:#000000;stroke-width:0.95029998" />
	<path
   d="m 217.169,178.461 c -1.669,-0.417 -4.589,-1.252 -5.423,-1.669 -1.252,-0.417 -5.841,-4.59 -6.258,-5.841 0,-0.834 -0.834,-2.503 -0.834,-3.337 -1.252,-3.755 0,-8.762 2.503,-10.013 0.834,-0.417 2.086,0.834 2.92,0.834 0.834,0 3.755,1.669 4.172,2.086 0.834,0.834 2.086,2.503 2.92,3.338 1.252,1.252 3.755,2.92 6.258,3.755 2.503,0.834 3.755,1.669 3.755,4.172 0,2.503 -0.417,5.841 -2.086,6.675 -1.669,0.834 -4.589,0.834 -7.927,0 l 0,0 z"
   id="path262"
   style="stroke:#000000;stroke-width:0.95029998" />
	<path
   d="m 192.981,181.256 c -2.288,-0.046 -1.142,4.164 -1.734,5.685 -0.356,0.915 -1.554,6.237 -1.393,7.055 0.341,1.37 0.762,3.149 2.292,3.313 0.874,0.093 2.265,0.642 2.001,-1.787 -0.264,-2.429 0.899,-6.308 1.727,-8.62 1.104,-3.085 -0.605,-5.601 -2.893,-5.646 l 0,0 z"
   id="path264"
   style="stroke:#000000;stroke-width:0.95029998" />
	<path
   d="m 650.208,98.052 c 5.344,-2.686 12.18,-6.906 17.584,-9.209 4.953,-2.11 16.809,-8.633 21.03,-8.633 m -40.245,18.57 c 9.455,-5.268 28.139,-20.948 37.374,-21.47"
   id="path266"
   style="stroke:#000000;stroke-width:0.53869998" />
	<path
   d="m 651.939,106.732 c 8.498,-2.51 24.477,-10.55 35.908,-12.544 m -37.497,13.111 c 4.976,-2.507 11.07,-6.606 16.243,-8.67 4.743,-1.891 15.586,-8.094 20.25,-7.658"
   id="path268"
   style="stroke:#000000;stroke-width:0.53869998" />
	<path
   d="m 335.256,241.377 c -4.126,6.636 -13.476,18.447 -17.872,34.72 -1.38,3.371 -3.256,6.617 -3.148,10.36 0.185,6.417 -0.067,3.346 4.198,3.263 2.914,0.507 18.225,-7.875 15.418,-5.743 -0.054,-1.872 2.478,-9.023 5.714,-13.477 -1.398,-2.916 8.467,-18.669 10.488,-22.587 0.93,-1.89 -0.987,-5.732 -3.467,-6.353 -0.992,-0.247 -11.01,-0.456 -11.331,-0.183 l 0,0 z"
   id="path270"
   style="stroke:#000000;stroke-width:0.95029998" />
</g>
<g
   transform="matrix(1.390883,0,0,1.390883,-178.4371,-86.4318)"
   id="Layer_x0020_1">
	<g
   id="_145369016">
		<path
   d="m 563.614,146.564 c 0.101,0.426 0.606,2.181 0.839,2.383 0.47,0.409 0.874,1.729 1.26,2.071 0.385,0.341 1.687,2.656 1.588,3.231 -0.016,0.093 0.205,0.395 0.277,0.458 0.233,0.205 0.268,0.549 0.412,-0.306 0.143,-0.856 -0.05,-1.845 -0.334,-2.739 -0.285,-0.896 -0.663,-1.698 -0.908,-2.171 -0.55,-1.064 -0.595,-2.474 -0.841,-3.659 -0.194,-0.93 -2.197,-0.371 -2.293,0.732 l 0,0 z"
   id="_145745920"
   style="stroke:#000000;stroke-width:0.95029998" />
		<path
   d="m 569.683,142.843 c 0.195,0.343 1.042,1.772 1.328,1.893 0.571,0.241 1.232,1.309 1.705,1.509 0.465,0.196 2.245,1.892 2.245,2.419 0,0.086 0.286,0.285 0.38,0.322 0.282,0.11 0.376,0.411 0.379,-0.377 0.003,-0.787 -0.382,-1.596 -0.84,-2.305 -0.458,-0.71 -1.014,-1.307 -1.355,-1.661 -0.768,-0.794 -1.081,-2.014 -1.555,-2.995 -0.372,-0.775 -2.377,0.19 -2.287,1.195 l 0,0 z"
   id="_145766112"
   style="stroke:#000000;stroke-width:0.95029998" />
		<path
   d="m 575.745,139.007 c 0.303,0.29 1.606,1.48 1.989,1.548 0.765,0.136 1.775,1.017 2.416,1.12 0.64,0.103 3.228,1.364 3.297,1.844 0.012,0.081 0.402,0.216 0.535,0.235 0.383,0.055 0.555,0.317 0.44,-0.4 -0.116,-0.716 -0.733,-1.399 -1.439,-1.974 -0.707,-0.576 -1.508,-1.05 -2.001,-1.322 -1.12,-0.618 -1.712,-1.696 -2.469,-2.548 -0.594,-0.668 -3.033,0.56 -2.768,1.497 l 0,0 z"
   id="_145763032"
   style="stroke:#000000;stroke-width:0.95029998" />
		<path
   d="m 582.26,135.197 c 0.27,0.232 1.449,1.174 1.771,1.204 0.66,0.062 1.578,0.755 2.123,0.813 0.551,0.059 2.814,1.03 2.915,1.446 0.017,0.068 0.36,0.168 0.47,0.178 0.331,0.031 0.488,0.254 0.346,-0.367 -0.284,-1.247 -2.247,-2.292 -3.129,-2.711 -0.987,-0.469 -1.557,-1.386 -2.251,-2.073 -0.548,-0.54 -2.535,0.723 -2.245,1.51 l 0,0 z"
   id="_145762248"
   style="stroke:#000000;stroke-width:0.95029998" />
		<path
   d="m 600.517,124 c 0.354,0.16 1.89,0.822 2.267,0.812 0.763,-0.02 1.959,0.494 2.596,0.5 0.638,0.007 3.447,0.718 3.654,1.068 0.035,0.06 0.459,0.135 0.585,0.142 0.385,0.021 0.623,0.203 0.314,-0.33 -0.308,-0.53 -1.092,-1.003 -1.929,-1.377 -0.836,-0.372 -1.724,-0.639 -2.269,-0.781 -1.231,-0.322 -2.076,-1.046 -3.015,-1.547 -0.737,-0.394 -2.701,0.896 -2.203,1.513 l 0,0 z"
   id="_145788312"
   style="stroke:#000000;stroke-width:0.95029998" />
		<path
   d="m 614.002,117.354 c 0.373,0.078 1.974,0.43 2.304,0.388 0.663,-0.085 1.889,0.263 2.443,0.218 0.553,-0.045 3.203,0.44 3.504,0.763 0.052,0.056 0.432,0.102 0.541,0.1 0.336,-0.006 0.596,0.153 0.145,-0.337 -0.902,-0.981 -3.308,-1.544 -4.355,-1.702 -1.177,-0.179 -2.179,-0.701 -3.186,-0.995 -0.791,-0.232 -2.063,1.151 -1.396,1.565 l 0,0 z"
   id="_145787528"
   style="stroke:#000000;stroke-width:0.95029998" />
		<path
   d="m 620.602,113.112 c 0.31,0.101 1.64,0.539 1.957,0.559 0.638,0.04 1.632,0.427 2.153,0.476 0.518,0.048 2.803,0.656 2.97,0.883 0.029,0.04 0.373,0.102 0.476,0.108 0.32,0.021 0.506,0.145 0.252,-0.192 -0.507,-0.671 -2.528,-1.294 -3.433,-1.533 -1.015,-0.269 -1.736,-0.732 -2.546,-1.051 -0.636,-0.252 -2.283,0.406 -1.829,0.75 l 0,0 z"
   id="_145414056"
   style="stroke:#000000;stroke-width:0.95029998" />
		<path
   d="m 627.373,109.77 c 0.291,0.097 1.55,0.497 1.83,0.512 0.553,0.029 1.514,0.355 1.981,0.376 0.462,0.022 2.635,0.358 2.852,0.524 0.034,0.026 0.355,0.036 0.453,0.03 0.284,-0.017 0.489,0.06 0.163,-0.184 -0.655,-0.49 -2.61,-0.849 -3.457,-1.023 -0.951,-0.196 -1.702,-0.605 -2.485,-0.893 -0.617,-0.228 -1.828,0.34 -1.337,0.658 l 0,0 z"
   id="_145413272"
   style="stroke:#000000;stroke-width:0.95029998" />
		<path
   d="m 588.431,131.453 c 0.27,0.232 1.449,1.174 1.771,1.204 0.66,0.062 1.578,0.755 2.123,0.813 0.552,0.06 2.814,1.031 2.916,1.446 0.016,0.068 0.359,0.168 0.469,0.178 0.331,0.031 0.488,0.254 0.347,-0.367 -0.285,-1.247 -2.247,-2.292 -3.13,-2.711 -0.987,-0.469 -1.557,-1.386 -2.251,-2.073 -0.547,-0.539 -2.535,0.723 -2.245,1.51 l 0,0 z"
   id="_145412088"
   style="stroke:#000000;stroke-width:0.95029998" />
		<path
   d="m 595.058,127.704 c 0.27,0.232 1.45,1.174 1.771,1.204 0.659,0.062 1.578,0.755 2.122,0.814 0.552,0.059 2.814,1.03 2.915,1.446 0.017,0.068 0.36,0.168 0.47,0.178 0.331,0.031 0.488,0.254 0.346,-0.367 -0.284,-1.247 -2.247,-2.292 -3.129,-2.71 -0.987,-0.469 -1.557,-1.386 -2.252,-2.073 -0.545,-0.541 -2.532,0.722 -2.243,1.508 l 0,0 z"
   id="_145312088"
   style="stroke:#000000;stroke-width:0.95029998" />
		<path
   d="m 607.713,120.117 c 0.354,0.16 1.89,0.822 2.266,0.812 0.762,-0.02 1.959,0.494 2.596,0.5 0.638,0.007 3.447,0.718 3.654,1.068 0.036,0.06 0.46,0.135 0.586,0.142 0.385,0.021 0.623,0.202 0.314,-0.329 -0.308,-0.53 -1.092,-1.003 -1.93,-1.378 -0.836,-0.373 -1.723,-0.639 -2.268,-0.781 -1.231,-0.322 -2.076,-1.046 -3.015,-1.547 -0.737,-0.395 -2.702,0.895 -2.203,1.513 l 0,0 z"
   id="_145311968"
   style="stroke:#000000;stroke-width:0.95029998" />
		<path
   d="m 633.222,106.986 c 0.301,0.073 1.6,0.372 1.883,0.366 0.56,-0.013 1.552,0.235 2.024,0.221 0.468,-0.014 2.681,0.152 2.913,0.299 0.036,0.023 0.361,0.009 0.458,-0.005 0.286,-0.038 0.498,0.021 0.15,-0.194 -0.697,-0.433 -2.694,-0.639 -3.56,-0.746 -0.973,-0.121 -1.761,-0.468 -2.572,-0.693 -0.639,-0.178 -1.815,0.476 -1.296,0.752 l 0,0 z"
   id="_145311104"
   style="stroke:#000000;stroke-width:0.95029998" />
	</g>
	<path
   d="m 555.988,154.909 c 5.686,-4.343 16.342,-10.902 26.454,-17.698 10.127,-6.807 20.004,-12.486 23.649,-15.005 4.172,-2.883 14.361,-8.096 18.374,-10.412 5.146,-2.971 36.784,-18.658 22.57,-12.707 -1.641,0.687 -13.721,6.318 -26.775,12.511 -13.001,6.168 -26.375,14.282 -31.685,16.52 -4.572,1.928 -10.057,4.83 -15.709,7.699 -5.624,2.855 -11.462,5.706 -16.656,7.699 -6.443,2.471 -7.752,4.864 -6.914,7.082 0.835,2.206 3.932,3.914 6.692,4.311 l 0,0 z"
   id="path287"
   style="stroke:#000000;stroke-width:0.95029998" />
	<path
   d="m 558.647,161.196 c 5.917,-3.554 16.421,-10.396 26.304,-16.927 9.688,-6.403 19.545,-11.034 23.283,-13.748 4.222,-3.065 14.358,-8.33 18.41,-10.651 5.114,-2.93 36.387,-18 22.263,-12.259 -1.631,0.663 -13.604,5.95 -26.41,12.007 -12.756,6.032 -25.87,14.036 -31.611,15.957 -5.163,1.727 -11.268,4.331 -17.536,6.904 -6.302,2.587 -12.959,4.697 -18.992,5.96 -7.448,1.56 -8.206,4.148 -6.191,6.653 2.016,2.505 6.837,4.963 10.48,6.104 l 0,0 z"
   id="path289"
   style="stroke:#000000;stroke-width:0.95029998" />
	<g
   id="_145771448">
		<path
   d="m 564.858,155.823 c 0.125,0.396 0.721,2.025 0.953,2.208 0.47,0.372 0.941,1.596 1.327,1.907 0.385,0.31 1.766,2.444 1.714,2.984 -0.008,0.087 0.22,0.364 0.292,0.422 0.232,0.186 0.289,0.507 0.364,-0.296 0.075,-0.803 -0.176,-1.723 -0.505,-2.552 -0.33,-0.83 -0.741,-1.572 -1.003,-2.009 -0.59,-0.981 -0.732,-2.298 -1.045,-3.4 -0.246,-0.864 -2.084,-0.296 -2.097,0.736 l 0,0 z"
   id="_145614928"
   style="stroke:#000000;stroke-width:0.95029998" />
		<path
   d="m 569.393,152.748 c 0.206,0.316 1.1,1.632 1.377,1.739 0.552,0.212 1.247,1.196 1.703,1.371 0.45,0.173 2.237,1.717 2.274,2.21 0.006,0.08 0.288,0.26 0.378,0.292 0.272,0.096 0.381,0.376 0.329,-0.361 -0.053,-0.735 -0.47,-1.482 -0.949,-2.135 -0.479,-0.653 -1.042,-1.199 -1.387,-1.521 -0.776,-0.725 -1.155,-1.858 -1.666,-2.763 -0.404,-0.716 -2.215,0.231 -2.059,1.168 l 0,0 z"
   id="_145698520"
   style="stroke:#000000;stroke-width:0.95029998" />
		<path
   d="m 574.957,149.368 c 0.305,0.264 1.61,1.347 1.972,1.402 0.727,0.11 1.735,0.91 2.343,0.992 0.607,0.081 3.12,1.201 3.219,1.648 0.017,0.075 0.392,0.192 0.518,0.207 0.363,0.043 0.542,0.284 0.383,-0.384 -0.158,-0.666 -0.785,-1.29 -1.486,-1.812 -0.703,-0.522 -1.487,-0.947 -1.968,-1.19 -1.092,-0.552 -1.724,-1.546 -2.492,-2.325 -0.605,-0.611 -2.803,0.592 -2.489,1.462 l 0,0 z"
   id="_145698056"
   style="stroke:#000000;stroke-width:0.95029998" />
		<path
   d="m 580.102,145.675 c 0.27,0.211 1.441,1.064 1.744,1.085 0.623,0.043 1.532,0.67 2.046,0.712 0.521,0.043 2.709,0.899 2.834,1.285 0.02,0.063 0.349,0.149 0.452,0.156 0.312,0.021 0.475,0.226 0.299,-0.351 -0.355,-1.159 -2.267,-2.091 -3.123,-2.462 -0.958,-0.416 -1.557,-1.26 -2.255,-1.887 -0.55,-0.491 -2.323,0.734 -1.997,1.462 l 0,0 z"
   id="_145696872"
   style="stroke:#000000;stroke-width:0.95029998" />
		<path
   d="m 598.105,135.621 c 0.343,0.141 1.829,0.726 2.181,0.708 0.713,-0.036 1.87,0.416 2.469,0.408 0.597,-0.009 3.28,0.592 3.499,0.914 0.037,0.055 0.44,0.115 0.558,0.119 0.362,0.011 0.598,0.175 0.271,-0.315 -0.326,-0.489 -1.094,-0.913 -1.905,-1.244 -0.81,-0.329 -1.66,-0.558 -2.181,-0.679 -1.176,-0.273 -2.019,-0.931 -2.934,-1.378 -0.718,-0.349 -2.468,0.901 -1.958,1.467 l 0,0 z"
   id="_145616456"
   style="stroke:#000000;stroke-width:0.95029998" />
		<path
   d="m 610.275,129.104 c 0.355,0.064 1.88,0.357 2.187,0.31 0.615,-0.094 1.789,0.203 2.304,0.148 0.515,-0.054 3.032,0.338 3.337,0.633 0.053,0.051 0.413,0.086 0.514,0.081 0.315,-0.014 0.569,0.13 0.112,-0.318 -0.915,-0.896 -3.209,-1.367 -4.2,-1.492 -1.116,-0.14 -2.091,-0.607 -3.056,-0.858 -0.758,-0.198 -1.853,1.123 -1.198,1.496 l 0,0 z"
   id="_145299112"
   style="stroke:#000000;stroke-width:0.95029998" />
		<path
   d="m 616.163,124.99 c 0.297,0.087 1.575,0.466 1.873,0.477 0.601,0.023 1.559,0.362 2.052,0.396 0.489,0.033 2.672,0.549 2.845,0.758 0.03,0.036 0.357,0.086 0.454,0.09 0.302,0.013 0.484,0.124 0.223,-0.185 -0.522,-0.616 -2.46,-1.152 -3.324,-1.355 -0.97,-0.228 -1.678,-0.645 -2.459,-0.925 -0.617,-0.219 -2.114,0.433 -1.664,0.744 l 0,0 z"
   id="_145298064"
   style="stroke:#000000;stroke-width:0.95029998" />
		<path
   d="m 622.272,121.713 c 0.279,0.084 1.488,0.429 1.751,0.437 0.52,0.015 1.444,0.297 1.883,0.307 0.435,0.01 2.494,0.275 2.709,0.425 0.033,0.023 0.336,0.026 0.426,0.018 0.265,-0.022 0.463,0.045 0.14,-0.176 -0.648,-0.443 -2.504,-0.734 -3.311,-0.878 -0.905,-0.161 -1.637,-0.527 -2.391,-0.779 -0.595,-0.199 -1.69,0.36 -1.207,0.646 l 0,0 z"
   id="_145586288"
   style="stroke:#000000;stroke-width:0.95029998" />
		<path
   d="m 585.958,142.201 c 0.27,0.211 1.441,1.064 1.745,1.086 0.622,0.043 1.532,0.669 2.046,0.712 0.521,0.043 2.709,0.899 2.833,1.285 0.02,0.063 0.35,0.149 0.453,0.157 0.312,0.021 0.475,0.226 0.299,-0.351 -0.355,-1.159 -2.267,-2.091 -3.123,-2.462 -0.958,-0.416 -1.557,-1.26 -2.255,-1.886 -0.551,-0.494 -2.325,0.731 -1.998,1.459 l 0,0 z"
   id="_145585104"
   style="stroke:#000000;stroke-width:0.95029998" />
		<path
   d="m 592.414,138.708 c 0.27,0.211 1.441,1.064 1.745,1.085 0.622,0.043 1.532,0.67 2.046,0.712 0.521,0.043 2.709,0.899 2.833,1.285 0.02,0.064 0.349,0.15 0.453,0.157 0.312,0.021 0.475,0.226 0.298,-0.351 -0.354,-1.159 -2.267,-2.091 -3.122,-2.462 -0.958,-0.416 -1.557,-1.26 -2.256,-1.886 -0.55,-0.493 -2.323,0.731 -1.997,1.46 l 0,0 z"
   id="_145293744"
   style="stroke:#000000;stroke-width:0.95029998" />
		<path
   d="m 604.576,131.829 c 0.343,0.141 1.829,0.726 2.181,0.707 0.713,-0.036 1.87,0.417 2.469,0.409 0.598,-0.008 3.28,0.592 3.499,0.915 0.036,0.055 0.44,0.115 0.557,0.119 0.362,0.011 0.598,0.175 0.271,-0.315 -0.326,-0.489 -1.093,-0.913 -1.905,-1.243 -0.81,-0.33 -1.66,-0.558 -2.18,-0.679 -1.176,-0.273 -2.019,-0.931 -2.934,-1.378 -0.718,-0.352 -2.469,0.899 -1.958,1.465 l 0,0 z"
   id="_145292576"
   style="stroke:#000000;stroke-width:0.95029998" />
		<path
   d="m 627.557,118.979 c 0.287,0.062 1.525,0.312 1.79,0.299 0.524,-0.025 1.471,0.184 1.913,0.16 0.437,-0.024 2.523,0.082 2.751,0.214 0.035,0.02 0.338,0 0.429,-0.014 0.265,-0.042 0.468,0.008 0.126,-0.185 -0.684,-0.389 -2.569,-0.536 -3.388,-0.617 -0.921,-0.091 -1.683,-0.397 -2.459,-0.589 -0.612,-0.152 -1.668,0.485 -1.162,0.732 l 0,0 z"
   id="_145771840"
   style="stroke:#000000;stroke-width:0.95029998" />
	</g>
	<path
   d="m 221.303,150.351 c -4.054,0.604 -8.461,1.892 -10.138,5.246 -2.382,5.038 0.295,9.844 3.419,9.675 6.579,2.451 6.837,0.645 8.191,-0.71 2.258,-2.257 6.192,-5.676 6.837,-9.094 1.19,-6.013 -3.952,-5.501 -8.309,-5.117 l 0,0 z"
   id="path304"
   style="stroke:#000000;stroke-width:0.95029998" />
	<path
   d="m 433.49,198.532 c 5.282,-1.981 2.891,-3.625 9.737,-7.876 1.224,0.465 4.709,2.601 5.878,4.201 -0.276,6.742 40.853,32.349 22.045,38.272 -2.144,0 -9.492,3.062 -14.084,3.062 -2.449,0 -10.716,4.899 -10.716,0.919 0,0 -10.103,-17.759 -11.022,-18.677 0,0 -1.838,-21.739 -1.838,-19.901 l 0,0 z"
   id="path306"
   style="stroke:#000000;stroke-width:0.95029998" />
	<path
   d="m 222.758,147.947 c 1.186,0.217 1.465,1.071 2.771,1.606 3.98,0 4.826,2.849 6.12,6.502 0,-1.225 13.345,-16.55 14.57,-16.856 -3.573,-0.389 -7.341,-0.347 -11.337,-0.143 -3.56,0.181 -7.307,0.357 -11.217,1.17 -0.48,0.1 -0.936,0.576 -1.421,0.697 l 0.108,1.481 0.135,1.848 0.135,1.848 0.136,1.847 0,0 z m 0,0 c -1.976,-0.362 -4.799,0.175 -6.832,0.531 -8.028,1.119 -9.073,2.722 -18.656,6.025 -0.897,-0.398 -21.043,9.958 -18.576,4.443 6.371,-7.684 17.207,-10.955 24.334,-14.398 3.516,-1.06 6.837,-1.823 10.016,-2.439 2.385,-0.462 4.69,-0.841 6.94,-1.199 0.75,-0.119 1.52,0.13 2.258,0.013 l 0.109,1.48 0.135,1.848 0.135,1.848 0.137,1.848 0,0 z"
   id="path308"
   style="stroke:#000000;stroke-width:0.95029998" />
	<path
   d="m 401.341,184.448 c 19.289,-2.144 18.983,11.023 18.983,26.331 0,3.674 0.613,7.042 0.613,10.716 1.54,3.437 3.358,19.488 -4.593,22.045 -2.755,0.918 -5.511,-2.45 -7.348,-2.45 -0.612,0 -0.179,1.473 -0.179,-3.426 4.767,-21.03 3.411,-38.152 -7.476,-53.216 l 0,0 z"
   id="path310"
   style="stroke:#000000;stroke-width:0.95029998" />
	<path
   d="m 449.106,194.857 c 4.899,-0.918 2.755,-5.205 7.961,-5.205 2.755,0 18.704,-10.998 20.541,-12.835 0.97,-1.27 19.82,24.469 18.037,28.757 0,2.143 4.286,8.267 0.918,8.267 -5.817,0 -10.104,7.961 -13.471,11.329 -0.613,0.612 -9.518,10.482 -9.415,6.196 10.851,-7.53 -21.433,-26.656 -24.571,-36.509 l 0,0 z"
   id="path312"
   style="stroke:#000000;stroke-width:0.95029998" />
	<path
   d="m 513.889,161.652 c 1.842,3.885 12.11,-1.57 18.192,-6.292 4.592,-1.837 12.101,-7.408 14.857,-10.164 8.503,-8.507 6.162,2.913 11.066,6.467 4.119,1.607 7.414,4.482 5.571,9.359 -0.118,1.184 -9.756,4.748 -9.756,8.728 0,3.674 -20.496,13.139 -23.558,14.058 0.112,-1.195 -17.34,-16.719 -16.372,-22.156 l 0,0 z"
   id="path314"
   style="stroke:#000000;stroke-width:0.95029998" />
	<path
   d="m 434.807,214.89 -0.014,-0.321 c 3.031,4.533 5.787,7.867 11.251,10.599 1.837,0.919 7.961,3.063 7.961,5.818 0,0.612 -5.511,4.593 -5.817,5.205 -1.531,2.45 -5.512,6.124 -7.961,6.736 -0.372,0 -4.365,1.017 -7.439,1.748 -1.185,2.728 -2.847,4.682 -5.115,4.682 -2.755,0 -11.329,-3.368 -11.329,-5.817 5.321,-9.436 4.861,-25.169 3.98,-41.947 0.498,-1.457 -1.514,-9.283 -1.629,-8.985 0,3.062 0.711,-1.731 2.242,-1.731 8.573,0 7.042,2.143 12.553,7.654 0.475,0.475 0.949,8.151 1.298,15.921 l 0.005,0.117 0.014,0.321 0,0 z"
   id="path316"
   style="stroke:#000000;stroke-width:0.95029998" />
	<path
   d="m 246.219,139.199 c -66.691,62.987 -31,114.769 57.145,127.61 32.908,-3.636 60.432,24.012 104.713,-26.025 10.113,-35.143 6.271,-53.79 -24.495,-77.77 -28.425,-25.905 -105.343,-40.897 -137.363,-23.815 l 0,0 z"
   id="path318"
   style="stroke:#000000;stroke-width:0.95029998" />
	<path
   d="m 180.175,171.931 c -1.128,1.128 -3.759,2.255 -5.262,3.007 -0.94,0.376 -5.45,3.571 -5.826,4.322 -0.564,1.316 -1.315,3.007 0,4.322 0.752,0.752 1.691,2.255 3.007,0.188 1.316,-2.067 4.886,-4.134 7.141,-5.262 3.007,-1.503 2.632,-3.007 0.94,-6.577 l 0,0 z"
   id="path404"
   style="stroke:#000000;stroke-width:0.95029998" />
</g>
</svg>