<?xml version="1.0" standalone="no"?>
<!DOCTYPE svg PUBLIC "-//W3C//DTD SVG 20010904//EN"
 "http://www.w3.org/TR/2001/REC-SVG-20010904/DTD/svg10.dtd">
<svg version="1.0" xmlns="http://www.w3.org/2000/svg"
 width="1536.000000pt" height="1439.000000pt" viewBox="0 0 1536.000000 1439.000000"
 preserveAspectRatio="xMidYMid meet">
<metadata>
Created by potrace 1.16, written by Peter Selinger 2001-2019
</metadata>
<g transform="translate(0.000000,1439.000000) scale(0.100000,-0.100000)"
fill="#000000" stroke="none">
<path d="M3702 14383 c-49 -6 -66 -40 -58 -111 5 -41 16 -70 41 -107 46 -66
59 -134 52 -265 -4 -81 -12 -120 -32 -172 -23 -59 -50 -99 -58 -87 -25 36
-116 195 -151 264 -44 87 -46 93 -46 178 0 49 -4 96 -10 106 -14 28 -85 53
-128 45 -64 -10 -106 -26 -149 -56 -38 -26 -43 -33 -43 -67 0 -33 7 -44 54
-87 29 -27 82 -69 116 -94 34 -25 68 -58 75 -75 41 -92 115 -298 115 -318 0
-24 -27 -57 -48 -57 -6 0 -69 30 -141 66 -124 62 -132 68 -181 134 -78 105
-121 140 -173 140 -41 0 -48 -5 -110 -69 -67 -69 -67 -69 -67 -126 0 -53 3
-60 37 -91 37 -34 38 -34 137 -35 191 -1 194 -2 302 -110 73 -73 94 -100 94
-121 0 -53 -45 -58 -220 -22 -157 32 -268 17 -286 -38 -12 -40 6 -186 28 -213
31 -39 96 -35 157 9 26 19 71 44 101 56 52 21 62 21 185 12 72 -6 150 -18 173
-26 32 -11 80 -50 170 -137 70 -67 145 -130 169 -141 50 -23 201 -178 226
-231 27 -56 22 -190 -13 -337 -5 -19 -13 -59 -19 -88 -6 -28 -24 -80 -40 -115
-16 -34 -32 -76 -35 -93 -12 -54 -29 -61 -136 -55 l-95 6 -38 78 c-36 74 -39
78 -83 89 -35 10 -56 24 -86 60 -36 44 -44 48 -84 48 -54 0 -70 20 -79 105 -6
54 -12 65 -55 110 -27 28 -65 82 -84 120 -30 59 -52 85 -128 150 -51 44 -116
101 -145 128 -30 26 -63 47 -76 47 -12 0 -38 10 -57 22 -19 13 -51 32 -71 43
-20 11 -64 39 -99 62 -40 27 -78 44 -108 49 -26 4 -67 16 -92 27 -25 11 -75
23 -113 27 -39 4 -75 14 -85 23 -10 9 -23 42 -30 74 -27 130 -101 222 -235
294 -59 31 -62 32 -155 26 -51 -4 -118 -14 -149 -24 -47 -15 -58 -15 -86 -4
-48 20 -73 16 -112 -18 -20 -17 -46 -31 -59 -31 -33 0 -126 29 -161 50 -38 23
-172 66 -247 79 -32 6 -69 18 -84 27 -55 36 -299 58 -493 44 l-135 -10 -67
-44 c-47 -31 -80 -64 -113 -112 -70 -100 -78 -124 -78 -266 -1 -143 11 -237
41 -328 12 -36 28 -98 36 -138 8 -41 25 -97 39 -125 13 -29 31 -69 39 -89 9
-21 29 -55 46 -75 16 -21 46 -75 65 -120 19 -45 41 -92 49 -105 8 -13 18 -33
22 -45 12 -42 76 -128 153 -204 72 -72 102 -110 187 -234 50 -72 66 -111 76
-183 5 -35 15 -75 23 -90 7 -15 16 -40 19 -57 11 -56 47 -124 95 -177 26 -29
63 -72 81 -96 18 -23 47 -50 65 -59 17 -9 47 -29 66 -44 19 -16 39 -29 45 -29
6 0 44 -29 83 -65 125 -112 163 -137 337 -216 22 -10 55 -20 73 -23 18 -3 60
-24 93 -47 33 -22 82 -50 107 -61 26 -12 67 -38 92 -58 25 -20 60 -45 79 -54
36 -19 163 -107 196 -136 11 -10 40 -23 65 -30 25 -6 60 -20 78 -31 46 -26
144 -50 179 -43 36 7 247 -73 302 -114 40 -30 319 -172 338 -172 7 0 72 -31
144 -70 72 -38 134 -70 137 -70 4 0 34 -16 67 -36 139 -85 167 -97 246 -104
74 -6 92 -13 204 -74 27 -16 70 -32 95 -36 25 -5 70 -16 100 -24 30 -9 73 -16
95 -16 47 0 97 -27 121 -67 10 -15 59 -71 109 -123 96 -100 156 -173 211 -255
19 -27 50 -72 69 -99 20 -27 32 -52 28 -56 -4 -4 -39 -15 -76 -24 -54 -13
-110 -16 -258 -15 -234 3 -229 5 -229 -115 1 -103 13 -156 42 -180 19 -15 35
-17 90 -14 73 6 114 25 127 61 20 53 84 83 226 107 70 12 102 14 107 6 11 -17
-12 -36 -60 -48 -50 -12 -122 -70 -122 -97 0 -25 -20 -41 -53 -41 -31 0 -136
-28 -152 -40 -24 -19 -105 -60 -118 -60 -16 0 -49 -34 -67 -68 -18 -36 21
-131 79 -194 l47 -50 51 7 c44 6 58 13 91 49 28 30 42 56 47 87 9 55 58 104
118 119 82 20 91 25 117 70 23 39 33 47 78 59 41 11 58 11 78 2 25 -11 25 -13
18 -79 -3 -37 -19 -103 -34 -147 -45 -134 -88 -189 -292 -375 -55 -50 -58 -55
-58 -101 0 -44 3 -49 42 -78 23 -17 51 -31 62 -31 11 0 30 -10 43 -22 20 -18
39 -23 97 -26 l72 -4 33 37 32 37 -1 112 c-1 61 -2 121 -1 133 1 13 23 47 50
77 41 45 91 141 91 175 0 33 94 201 125 223 18 13 24 9 64 -45 46 -63 70 -144
78 -268 5 -78 4 -90 -16 -117 -17 -24 -21 -45 -21 -99 0 -96 12 -106 117 -100
99 6 197 22 248 40 39 14 40 15 43 65 2 42 -3 60 -29 107 -18 32 -44 62 -61
71 -16 8 -34 27 -41 42 -7 15 -26 49 -43 75 -18 28 -37 74 -44 110 -6 34 -18
73 -26 87 -12 21 -63 288 -65 340 -1 8 2 76 6 151 9 147 8 148 -55 341 -15 48
-25 89 -22 92 12 13 84 5 130 -13 27 -11 82 -23 123 -26 41 -4 117 -18 169
-31 52 -13 111 -24 130 -24 20 0 85 -9 146 -20 260 -49 574 -88 716 -89 37 -1
79 -6 94 -12 49 -18 372 -50 599 -59 121 -5 237 -12 258 -15 35 -7 37 -9 37
-44 1 -20 6 -83 12 -141 6 -58 12 -150 13 -205 4 -136 27 -305 47 -335 15 -22
57 -169 77 -271 4 -19 11 -40 14 -46 14 -22 -20 -30 -106 -25 l-88 5 -45 44
c-25 25 -53 62 -64 82 -36 71 -106 121 -170 121 -39 0 -128 -77 -156 -136 -12
-25 -34 -58 -48 -73 -14 -15 -26 -36 -26 -47 0 -25 34 -80 57 -92 10 -6 73
-15 141 -21 101 -9 133 -16 187 -42 36 -17 65 -37 65 -45 0 -21 -112 -73 -198
-90 -117 -24 -244 -28 -305 -10 -29 8 -64 17 -79 21 -15 3 -43 19 -62 35 -44
39 -95 60 -145 60 -32 0 -43 -5 -61 -29 -67 -95 -95 -285 -47 -328 43 -40 63
-45 136 -34 38 5 79 16 93 25 60 39 149 57 303 60 83 2 176 7 208 11 69 9 70
7 29 -108 -27 -75 -33 -82 -133 -175 -57 -53 -133 -116 -169 -139 -99 -63
-229 -110 -329 -117 -91 -7 -128 -22 -161 -63 -23 -30 -21 -62 11 -125 14 -26
30 -41 62 -53 38 -14 45 -21 55 -60 9 -36 20 -50 54 -71 37 -24 48 -26 107
-21 63 5 68 7 104 49 21 23 40 54 43 68 9 42 55 143 80 176 12 17 38 39 56 48
68 36 115 68 195 136 144 121 356 250 412 250 51 0 68 -23 76 -102 3 -40 13
-116 20 -168 8 -52 19 -153 25 -225 9 -119 8 -136 -10 -199 -14 -49 -30 -81
-54 -105 -43 -45 -66 -100 -66 -158 0 -58 22 -100 57 -107 98 -19 101 -19 128
8 32 32 35 32 81 1 44 -30 75 -31 130 -6 58 26 84 63 84 120 -1 75 -16 121
-54 160 -19 20 -50 68 -68 106 l-33 70 -7 239 -8 240 27 78 c14 43 30 78 34
78 4 0 29 23 55 50 55 58 103 76 173 65 53 -8 398 -19 549 -17 102 2 103 2
160 -34 31 -20 82 -56 112 -79 61 -47 105 -65 160 -65 78 0 120 33 120 94 0
12 13 40 30 62 26 35 29 47 30 109 0 81 -12 104 -66 130 -30 14 -51 16 -108
10 -39 -4 -86 -13 -106 -21 -19 -8 -48 -14 -65 -12 -16 1 -57 -1 -91 -6 -60
-7 -247 13 -319 34 -16 5 -61 17 -100 25 -129 29 -153 37 -177 62 -20 22 -23
36 -26 129 -2 58 1 118 7 135 6 17 13 101 17 187 5 131 3 180 -15 297 -11 77
-21 159 -21 181 l0 42 46 7 c26 3 73 15 105 25 32 11 123 28 201 40 79 11 188
32 243 45 55 14 122 28 150 32 27 3 72 15 100 26 27 10 68 23 90 27 67 13 247
70 269 86 11 8 33 14 49 14 34 0 168 63 287 136 70 42 96 52 147 57 77 8 90 3
98 -35 5 -21 16 -33 36 -40 16 -5 29 -16 29 -24 0 -7 14 -20 30 -29 17 -9 30
-20 30 -25 0 -5 17 -25 38 -44 30 -29 45 -36 77 -36 37 0 46 -6 114 -77 40
-43 83 -94 96 -113 12 -19 75 -84 139 -145 65 -60 173 -163 240 -227 67 -65
127 -118 132 -118 6 0 19 -10 30 -21 10 -12 37 -33 59 -47 22 -13 63 -48 90
-76 28 -28 89 -82 135 -121 46 -38 111 -99 144 -135 34 -35 95 -100 137 -145
103 -110 170 -190 212 -255 20 -30 63 -89 96 -130 34 -41 66 -86 72 -100 6
-14 20 -38 33 -55 12 -16 35 -52 51 -80 16 -27 48 -73 72 -102 36 -46 183
-327 183 -352 0 -5 7 -15 16 -22 9 -7 28 -40 44 -74 39 -85 100 -231 100 -239
0 -4 23 -54 50 -112 27 -58 50 -114 50 -126 0 -25 42 -150 65 -194 8 -16 15
-37 15 -48 0 -10 16 -58 35 -106 19 -48 40 -111 45 -140 6 -29 15 -58 20 -65
6 -7 14 -32 19 -56 12 -55 28 -116 52 -199 10 -36 25 -96 34 -135 8 -38 26
-113 40 -164 14 -52 25 -108 25 -125 0 -16 9 -55 19 -85 10 -31 21 -78 24
-106 3 -27 17 -75 31 -105 14 -30 26 -68 26 -83 0 -15 7 -44 15 -63 19 -45 37
-139 42 -224 3 -43 11 -72 24 -88 14 -19 19 -41 19 -90 0 -102 20 -344 30
-372 6 -14 14 -74 20 -135 5 -60 16 -132 25 -159 8 -27 15 -70 15 -97 0 -32 5
-49 15 -53 11 -4 15 -21 15 -63 1 -32 7 -69 15 -83 8 -14 14 -47 15 -73 0 -27
9 -64 20 -87 11 -22 20 -49 20 -60 0 -12 5 -31 12 -43 11 -21 33 -118 47 -207
4 -25 13 -55 19 -67 7 -12 12 -33 12 -46 0 -41 125 -426 170 -522 15 -33 33
-82 39 -110 7 -27 25 -70 41 -94 16 -23 32 -64 36 -90 3 -25 10 -50 14 -56 22
-28 110 -209 110 -227 0 -11 13 -37 29 -57 16 -20 35 -52 44 -71 8 -19 44 -68
80 -109 36 -41 69 -86 72 -100 4 -14 17 -39 29 -56 13 -16 30 -46 40 -65 9
-20 37 -59 62 -88 25 -29 50 -68 56 -88 7 -26 54 -81 175 -207 91 -94 207
-225 259 -291 60 -78 108 -130 136 -147 94 -57 143 -61 174 -14 20 31 9 69
-47 155 -21 33 -39 63 -39 66 0 3 -35 43 -77 90 -42 46 -81 92 -87 101 -5 10
-25 37 -45 60 -59 69 -87 106 -101 133 -7 14 -41 69 -76 122 -35 53 -64 105
-64 115 0 17 -11 37 -53 96 -10 14 -25 62 -33 107 -15 89 -27 118 -57 139 -23
16 -61 100 -71 156 -4 22 -18 58 -30 80 -13 22 -26 53 -30 70 -4 16 -23 55
-42 85 -20 33 -38 78 -43 108 -4 28 -13 57 -18 64 -6 7 -14 38 -18 68 -4 30
-13 74 -21 98 -8 23 -14 62 -14 85 0 23 -10 96 -21 162 -12 66 -27 176 -35
245 -7 69 -18 166 -25 215 -7 60 -12 317 -13 765 -2 371 -6 683 -10 692 -4 10
-3 64 3 120 6 57 13 225 15 373 4 249 2 273 -15 307 -17 33 -19 62 -20 275 0
131 -7 306 -15 388 -8 83 -16 170 -18 195 -7 94 -47 427 -56 467 -5 22 -14 76
-20 120 -5 43 -14 101 -20 128 -5 28 -13 73 -18 100 -4 28 -14 60 -20 72 -7
12 -12 37 -12 55 0 18 -9 55 -19 83 -33 85 -61 180 -61 206 0 14 -11 54 -25
89 -14 35 -25 72 -25 82 0 10 -11 39 -25 65 -32 62 -75 176 -75 200 0 10 -6
27 -14 38 -7 11 -17 31 -21 45 -4 14 -27 66 -50 115 -24 50 -46 104 -50 121
-3 18 -22 50 -41 72 -26 31 -34 49 -34 80 0 23 -4 43 -9 47 -16 9 -102 136
-128 187 -13 26 -28 50 -33 53 -6 3 -10 17 -10 31 0 15 -16 42 -42 70 -51 56
-102 127 -124 174 -21 45 -156 233 -204 285 -21 22 -45 54 -53 70 -8 17 -49
68 -91 114 -42 46 -76 90 -76 97 0 8 -42 58 -92 112 -51 54 -135 148 -187 209
-51 62 -163 178 -248 259 -85 81 -159 158 -164 171 -5 13 -17 26 -26 30 -10 4
-34 19 -53 35 -19 15 -44 28 -56 28 -12 0 -29 11 -38 25 -9 14 -22 25 -30 25
-7 0 -28 17 -47 38 -19 21 -55 47 -81 57 -37 16 -48 25 -48 43 0 19 -5 22 -38
22 -22 0 -59 11 -83 23 -35 19 -44 29 -44 50 -1 36 -9 41 -73 47 -57 5 -57 5
-54 36 3 28 0 32 -29 38 -17 3 -42 6 -55 6 -13 0 -28 9 -34 19 -17 33 -12 113
10 146 38 56 60 117 60 167 0 26 9 74 20 105 11 32 20 70 20 85 0 14 5 39 11
55 6 15 14 64 19 108 5 44 13 100 18 125 46 216 75 342 88 380 9 25 19 70 24
100 9 62 35 139 53 156 7 7 90 16 197 23 102 7 221 19 265 27 44 8 117 19 163
25 45 5 115 21 155 34 153 50 244 85 306 116 52 26 81 33 140 37 75 4 77 4
136 -36 33 -23 88 -69 122 -105 52 -54 62 -71 68 -111 12 -76 0 -153 -29 -191
-23 -30 -26 -43 -26 -118 0 -75 2 -86 24 -106 26 -24 79 -40 134 -41 24 0 45
10 73 34 35 30 44 33 87 28 47 -4 131 17 159 40 19 16 16 76 -8 125 -11 23
-46 66 -77 94 -66 60 -142 163 -142 193 -2 64 -71 170 -232 357 -42 48 -68 87
-68 101 0 15 27 50 81 106 45 45 85 82 90 82 5 0 40 19 77 41 37 23 90 53 117
67 158 78 194 97 230 121 70 47 86 50 171 40 144 -19 227 -21 268 -7 74 25 73
53 -6 173 -84 127 -109 155 -140 155 -55 0 -126 -38 -230 -123 -134 -109 -252
-172 -341 -181 -48 -5 -88 -18 -153 -51 -87 -44 -164 -60 -164 -34 0 28 73
112 220 256 87 86 171 164 186 173 14 10 54 21 87 24 34 4 78 12 97 18 49 15
100 65 100 99 0 27 -39 60 -185 159 -27 19 -74 52 -102 73 -45 33 -58 38 -86
33 -35 -7 -69 -36 -81 -71 -4 -11 -11 -76 -15 -144 l-9 -124 -168 -164 c-154
-149 -177 -167 -262 -209 -87 -43 -94 -45 -116 -31 -22 15 -57 105 -70 182 -3
17 -10 59 -17 94 -8 48 -8 79 0 120 6 30 11 80 11 112 0 52 -3 61 -32 88 -44
41 -90 42 -144 3 -29 -21 -57 -31 -104 -36 -109 -13 -170 -47 -170 -97 0 -22
14 -39 66 -83 39 -34 75 -56 89 -56 16 0 41 -19 79 -62 l56 -61 0 -114 c0
-129 -10 -165 -60 -207 -40 -33 -70 -31 -202 16 -91 31 -109 45 -136 100 -19
37 -84 65 -126 54 -42 -10 -118 -87 -143 -145 -32 -71 -25 -95 29 -113 23 -7
43 -18 45 -25 5 -15 -131 -46 -168 -38 -21 5 -35 -1 -62 -24 -27 -24 -44 -31
-76 -31 -23 0 -51 5 -62 11 -17 9 -28 6 -61 -16 -28 -19 -47 -25 -64 -21 -17
5 -39 -2 -71 -20 -36 -22 -57 -27 -100 -26 -30 1 -67 -5 -82 -12 -16 -9 -43
-12 -71 -9 -39 4 -56 0 -115 -33 -86 -46 -188 -126 -244 -191 -201 -234 -379
-472 -430 -578 -23 -49 -47 -98 -52 -108 -10 -18 -29 -76 -48 -143 -13 -47
-24 -58 -66 -68 -69 -17 -77 -14 -89 29 l-12 40 -80 5 c-79 5 -114 19 -114 45
0 19 -80 45 -138 45 -44 0 -57 4 -77 26 -14 15 -25 31 -25 35 0 13 -95 11
-125 -3 -24 -11 -29 -9 -60 25 -20 22 -44 37 -57 37 -13 0 -32 7 -42 15 -26
20 -77 19 -121 -2 l-35 -17 -44 43 c-41 41 -47 43 -83 36 -21 -4 -43 -11 -50
-17 -17 -14 -48 -2 -89 34 -32 29 -59 38 -156 56 -22 4 -45 18 -58 35 -19 23
-29 27 -74 27 -40 0 -57 5 -71 20 -10 11 -28 20 -39 20 -12 0 -39 9 -62 19
-24 11 -79 22 -133 26 -83 7 -94 10 -109 32 -16 25 -17 26 -120 20 -60 -3
-117 -1 -134 5 -19 7 -42 7 -70 0 -45 -12 -68 -7 -68 14 0 17 -24 18 -53 3
-11 -7 -51 -11 -87 -10 -36 1 -78 -3 -92 -8 -21 -8 -32 -6 -51 10 -31 24 -56
24 -96 2 -27 -16 -34 -16 -63 -4 -40 18 -193 19 -262 3 -45 -11 -52 -10 -72 9
-21 19 -24 20 -53 5 -29 -15 -32 -15 -52 5 -19 19 -22 19 -44 5 -28 -19 -103
-21 -139 -5 -18 9 -44 9 -97 1 -65 -10 -74 -9 -99 9 l-27 20 -35 -21 -36 -21
-30 26 c-28 24 -31 24 -65 10 -45 -19 -183 -10 -209 13 -22 18 -69 10 -105
-18 -31 -24 -71 -26 -116 -4 -31 15 -40 15 -96 1 -53 -14 -66 -14 -95 -2 -18
8 -36 11 -40 8 -3 -3 -22 -6 -42 -5 -20 1 -44 -3 -54 -8 -11 -6 -29 -5 -50 3
-29 11 -34 10 -44 -7 -38 -65 -94 -75 -141 -26 l-28 30 -33 -25 c-36 -28 -76
-31 -114 -11 -22 13 -27 12 -53 -10 -27 -23 -35 -24 -111 -20 -44 3 -137 8
-206 12 -72 3 -139 11 -158 20 l-35 14 7 78 c3 42 13 104 21 137 8 33 15 89
15 125 0 36 8 97 16 135 40 184 46 394 14 497 -23 76 -92 158 -184 220 -33 23
-88 60 -121 82 -34 23 -88 62 -122 89 -62 48 -180 107 -213 107 -10 0 -23 7
-30 15 -7 8 -30 20 -52 27 -65 19 -78 45 -78 154 0 152 46 228 193 316 34 20
79 47 99 59 44 27 52 52 31 97 -27 56 -92 89 -191 98 -107 8 -118 -1 -134
-107 -11 -75 -48 -150 -96 -192 -20 -18 -20 -18 -27 13 -8 37 11 221 27 263 6
15 37 51 70 80 53 48 59 57 64 102 7 56 -1 68 -71 103 -41 20 -173 34 -243 25z"/>
</g>
</svg>
