<?xml version="1.0" standalone="no"?>
<!DOCTYPE svg PUBLIC "-//W3C//DTD SVG 20010904//EN"
 "http://www.w3.org/TR/2001/REC-SVG-20010904/DTD/svg10.dtd">
<svg version="1.0" xmlns="http://www.w3.org/2000/svg"
 width="1536.000000pt" height="1033.000000pt" viewBox="0 0 1536.000000 1033.000000"
 preserveAspectRatio="xMidYMid meet">
<metadata>
Created by potrace 1.16, written by Peter Selinger 2001-2019
</metadata>
<g transform="translate(0.000000,1033.000000) scale(0.100000,-0.100000)"
fill="#000000" stroke="none">
<path d="M1235 10324 c-16 -2 -79 -9 -140 -15 -138 -13 -197 -28 -338 -83
-249 -97 -459 -218 -556 -321 -78 -83 -147 -232 -166 -360 -31 -214 -37 -383
-32 -850 7 -595 31 -840 118 -1229 144 -641 324 -1068 552 -1313 40 -43 98
-117 130 -164 151 -230 403 -382 768 -463 218 -48 383 -67 819 -92 234 -14
297 -21 288 -30 -7 -7 -101 -72 -208 -145 -449 -305 -682 -508 -913 -794 -264
-327 -427 -681 -498 -1080 -20 -113 -23 -163 -24 -380 0 -380 45 -622 202
-1079 251 -731 605 -1161 1201 -1460 411 -206 880 -348 1307 -396 361 -40 818
-10 1056 70 241 80 410 203 768 555 322 316 541 571 776 900 243 342 396 608
700 1220 250 504 291 579 306 554 36 -66 71 -513 104 -1359 31 -792 49 -905
153 -971 62 -39 119 -39 189 1 28 16 61 43 73 60 46 64 51 107 61 465 11 440
26 721 45 865 25 193 151 698 205 820 l20 45 19 -25 c28 -37 197 -336 360
-640 297 -551 510 -898 742 -1207 292 -390 709 -814 1021 -1040 225 -162 503
-281 792 -337 115 -22 318 -46 397 -46 242 0 784 133 1019 249 249 124 736
535 920 776 321 420 552 1000 615 1540 22 191 15 531 -15 695 -101 559 -362
987 -1022 1675 -147 154 -303 327 -327 363 -9 14 -11 27 -6 32 12 12 212 34
589 65 455 38 588 60 745 125 163 67 312 160 506 316 162 130 226 196 300 309
176 271 292 643 339 1090 9 83 34 292 55 465 21 173 41 347 45 385 4 39 16 95
27 125 19 49 22 91 30 375 26 880 -35 1116 -338 1315 -89 59 -336 181 -464
230 -82 32 -97 34 -410 58 l-325 25 -254 -67 c-312 -83 -446 -127 -666 -221
-93 -40 -264 -107 -378 -149 -451 -166 -540 -207 -713 -322 -48 -33 -271 -206
-496 -387 -225 -180 -444 -351 -486 -379 -204 -136 -337 -249 -348 -295 -4
-13 -94 -94 -221 -198 -649 -534 -1014 -869 -1489 -1368 -168 -176 -169 -177
-212 -177 -32 0 -49 6 -67 24 -24 24 -24 28 -18 118 5 89 4 98 -22 156 -32 71
-75 113 -148 146 -29 12 -58 30 -65 39 -44 53 -12 186 76 325 264 414 377 653
456 971 75 300 79 423 25 808 -62 444 -104 611 -159 628 -27 8 -74 -26 -90
-66 -15 -36 -14 -40 89 -339 86 -251 121 -441 121 -655 -1 -289 -69 -531 -260
-920 -99 -201 -169 -317 -255 -425 l-59 -72 -49 99 c-55 109 -86 149 -135 170
-70 29 -125 -13 -221 -170 l-54 -88 -145 283 c-414 805 -553 1164 -582 1503
-13 151 -2 290 41 497 34 166 31 188 -22 188 -95 0 -146 -224 -120 -534 35
-427 115 -647 569 -1570 179 -365 236 -491 240 -526 l4 -48 -65 -21 c-75 -25
-109 -58 -151 -142 -34 -72 -50 -159 -41 -241 7 -77 -3 -103 -58 -157 -29 -27
-41 -32 -62 -27 -76 19 -816 626 -1139 935 -151 144 -321 288 -622 526 -326
258 -603 494 -703 598 -34 35 -96 89 -139 119 -42 31 -311 223 -597 429 -743
533 -1010 706 -1300 845 -334 159 -657 233 -1160 264 -151 9 -364 11 -430 4z"/>
</g>
</svg>
