<?xml version="1.0" encoding="UTF-8" standalone="no"?>
<!-- Created with Inkscape (http://www.inkscape.org/) -->

<svg
   xmlns:svg="http://www.w3.org/2000/svg"
   xmlns="http://www.w3.org/2000/svg"
   version="1.1"
   width="100%"
   height="100%"
   viewBox="0 0 624 569.5"
   id="Layer_1"
   xml:space="preserve"><defs
   id="defs7" />
<path
   d="m 38.7,151.9 c 0,-0.3 -0.1,-0.5 -0.1,-1.1 2.4,0.8 3.7,2.6 4.7,4.4 1.1,1.8 1.8,3.9 3.5,5.4 0.3,0.3 0.4,0.7 0.6,1 1.2,2.7 2.5,5.3 3.7,8 0.1,0.1 0.3,0.1 0.6,0.3 0.4,-1.1 -0.1,-2.2 -0.4,-3.1 -0.5,-1.8 -1.3,-3.6 -1.9,-5.4 -0.2,-0.7 -0.2,-1.4 -0.3,-2.1 -0.1,-0.9 0,-2 -0.4,-2.8 -1.1,-1.9 -2.4,-3.7 -3.8,-5.5 -0.6,-0.9 -1.6,-1.6 -1.1,-2.9 0.3,0 0.6,-0.1 0.8,0 2.4,2.1 4.7,4.4 5.5,7.4 0.7,2.3 2,4.3 2.7,6.6 0.3,0.8 0.7,1.6 1.1,2.4 0.3,0.7 0.7,1.4 1.9,1.8 -0.4,-1.5 -0.7,-2.7 -0.9,-3.9 -0.3,-1.6 -0.4,-3.3 -0.7,-4.9 -0.3,-1.2 -0.8,-2.4 -1.5,-3.4 -1.5,-2.1 -3.2,-4.1 -4.8,-6.3 -0.3,-0.4 -0.3,-1 -0.4,-1.5 1.2,-0.8 1.8,-0.1 2.3,0.6 1.7,2.3 3.3,4.7 5,7 0.3,0.4 0.5,0.9 1,1.8 0.3,-1.6 -0.1,-2.5 -0.6,-3.3 -1.5,-2.1 -2.1,-4.9 -4.3,-6.5 -0.3,-0.2 -0.1,-1 -0.1,-1.5 0.4,0 1,-0.2 1.3,0 0.8,0.6 1.6,1.2 2,2 1.3,2.2 2.4,4.5 3.5,6.8 0.6,1.3 1.2,2.6 2.6,3.3 0.6,0.3 1,1 1.3,1.6 1.8,3.3 3.4,6.6 4.4,10.3 1.2,4.2 2.9,8.3 5.7,11.8 0.6,0.7 1,1.4 2.3,1 -0.3,-0.6 -0.6,-1.2 -0.9,-1.7 -2.5,-4.1 -4.7,-8.3 -6.1,-12.9 -1.3,-4.4 -2.5,-8.8 -4.1,-13 -1,-2.6 -2.7,-5 -4.1,-7.5 -0.2,-0.3 -0.6,-0.6 -0.7,-0.9 -0.4,-0.8 -1.1,-1.7 -0.9,-2.3 0.2,-0.7 1.2,-1.3 2,-1.7 0.4,-0.2 1.3,0.2 1.6,0.6 1.3,1.6 2.6,3.2 3.8,4.9 0.8,1.2 1.4,2.7 2.1,4 0.1,0.2 0.5,0.3 1.1,0.2 -0.4,-0.8 -0.8,-1.6 -1.1,-2.4 -0.5,-1.1 -1,-2.3 -1.6,-3.4 -0.4,-0.8 -0.8,-1.7 -1.4,-2.5 -0.6,-0.9 -1.2,-1.7 -0.8,-2.8 1,-0.2 1.9,-0.4 2.8,-0.5 0.4,0 1,0.2 1.3,0.4 0.7,0.7 1.4,1.4 1.8,2.2 2.1,4.3 4.3,8.5 6.2,12.8 1.2,2.5 2,5.2 3.1,7.8 0.2,0.4 0.4,0.8 0.8,1.6 0.3,-0.6 0.6,-1 0.5,-1.4 -0.3,-2 -0.6,-3.9 -1.1,-5.8 -0.4,-1.3 -1.1,-2.5 -1.7,-3.7 -0.7,-1.2 -0.8,-2.5 -1,-3.8 -0.3,-1.7 -1.1,-3.3 -2,-4.7 -1.1,-1.8 -2.6,-3.4 -3.9,-5.1 -0.5,-0.6 -1.1,-1.2 -0.3,-2.3 0.4,0.2 1,0.4 1.3,0.7 2.5,3.3 4.8,6.7 7.3,10 1,1.3 2.2,2.5 3.4,3.6 1,0.9 2.2,1.8 3.6,2.9 -0.2,-1 -0.2,-2 -0.6,-2.6 -1.7,-2.1 -1.6,-5 -2.8,-7.3 -0.4,-0.7 -0.6,-1.5 -1,-2.1 -1.7,-2.3 -3.4,-4.5 -5.2,-6.9 0.5,-1 1.1,-1.2 1.9,-0.4 0.6,0.6 1.3,1.2 1.7,2 0.7,1.5 1.2,3.1 3.2,3.4 0.3,0 0.6,0.5 0.7,0.9 0.6,1.2 1.2,2.4 1.7,3.7 0.2,0.5 0.6,1.2 0.4,1.6 -0.7,1.7 0.4,3.2 0.4,4.8 0,0.4 0.2,0.9 0.5,1.3 3.1,4.3 4.6,9.2 6.3,14.1 1.3,3.8 2.7,7.5 5.3,10.6 0.3,0.4 0.9,0.7 1.3,1 0.1,-0.1 0.3,-0.2 0.4,-0.4 -0.2,-0.4 -0.4,-0.9 -0.7,-1.3 -3.1,-5.2 -5.4,-10.6 -7,-16.4 -1.1,-3.7 -2.6,-7.3 -3.9,-11 -0.3,-0.9 -0.5,-1.8 -0.7,-2.7 -0.2,-0.8 -0.4,-1.6 -0.8,-2.3 -1.6,-3.1 -3.3,-6 -5.9,-8.4 -0.3,-0.3 -0.5,-0.6 -0.7,-0.9 0,-0.1 0,-0.2 0,-0.4 0.7,-0.5 1.4,-1.1 2.2,-1.8 0.2,0.1 0.5,0.1 0.6,0.2 1.7,2 3.4,4 5,6.1 1.2,1.5 2.4,3.1 3.1,4.8 0.8,2.2 2.1,3.6 4.4,4.5 0.2,-1.9 -0.4,-3.6 -1.2,-5.2 -0.8,-1.7 -1.6,-3.4 -2.7,-5 -1,-1.5 -2.2,-2.7 -3.4,-4.2 1.2,-0.9 1.9,-0.3 2.7,0.2 0.7,0.4 1.2,0.7 2.1,0.4 0.8,-0.2 1.9,0.2 2.6,0.7 3.4,2.2 5.6,5.6 7.5,9.1 0.6,1.1 0.9,2.4 1.4,3.5 0.3,0.8 0.5,1.7 1.7,1.9 0.5,-1.6 0.1,-3 -0.4,-4.4 -0.8,-2 -1.5,-4 -2.5,-5.9 -0.6,-1.2 -1.5,-2.2 -2.3,-3.3 -1,-1.4 -1.9,-2.9 -2.8,-4.4 -0.2,-0.3 0,-0.7 0,-1.5 0.6,0.5 0.9,0.8 1.1,1.1 1,1.4 2.1,2.7 3.5,3.8 1.4,1.1 2.6,2.6 3.6,4.1 1.9,2.8 3.9,5.6 4.8,9 0.4,1.6 1.1,3.1 1.9,4.6 0.4,0.7 1.2,1.2 1.7,1.8 0.2,-0.1 0.3,-0.2 0.5,-0.3 -0.5,-1.7 -1.1,-3.4 -1.5,-5.1 -0.4,-1.9 -1.6,-3.4 -2.5,-5.1 -1.8,-3.4 -3.6,-6.7 -5.5,-10.1 0.3,-0.1 0.6,-0.5 0.8,-0.4 2.2,1.1 4.8,1 6.7,2.9 1.7,1.6 3.3,3.2 4.3,5.4 1.7,3.7 3.3,7.4 5,11 0.4,0.9 1,1.7 1.4,2.5 0.4,0.7 0.9,0.8 1.7,0.3 -0.5,-1 -1.6,-1.9 -0.4,-3.1 0.1,-0.1 0,-0.3 0,-0.5 -1,-3.1 -1.8,-6.3 -3,-9.3 -0.5,-1.2 -1.5,-2.2 -2.5,-3.2 -0.9,-0.8 -1,-1.7 -0.6,-3 2.2,1.5 4.2,2.9 6,4.5 0.7,0.6 1.5,1.1 2.2,1.7 0.1,0.5 0.2,1 0.3,1.5 0.9,2.6 1.8,5.1 2.6,7.7 0.6,1.9 1.2,3.9 1.8,5.9 0.5,0 1,-0.1 1.6,-0.1 -0.5,-1.5 -1,-2.7 -1.5,-4 -0.5,-1.3 -0.8,-2.6 -1.4,-3.8 -1.3,-2.4 -1.5,-5.2 -3.6,-7.2 -0.8,-1.4 -1.7,-2.8 -2.6,-4.5 0.6,0.1 0.9,0 1,0.1 1.9,1.8 4.1,3.4 5.2,6 1.6,3.6 3.6,7.1 5.3,10.7 0.6,1.2 1.3,1.7 2.7,1.7 0,-0.5 0,-1 -0.1,-1.4 -0.9,-4 -2,-8 -4,-11.7 -0.6,-1.1 -1.3,-1.5 -2.3,-1.8 -0.6,-0.1 -1.2,-0.2 -2.1,-0.3 0.4,-0.5 0.6,-1 0.8,-1 2.3,-0.7 4.6,0.3 6,2.3 0.5,0.8 3.3,2.2 4.2,2 1.7,-0.3 3.3,0 4.7,1.1 0.7,0.6 1.4,0.7 2.4,0.4 1.8,-0.5 3.6,-0.1 5.2,1 4.1,2.6 8.1,5.3 12.3,7.8 2.9,1.7 5.9,3.4 9.4,3.9 2.1,0.3 3.8,1.5 5.1,3.2 1.7,2.2 3.9,4 5,6.6 0.8,2 1.7,4 2.5,5.9 0.3,0.7 0.7,1.4 1.1,2 -0.1,-2.2 -0.7,-4.2 -1.8,-6.1 -0.5,-0.9 -1,-1.8 -1.3,-2.8 -0.1,-0.3 0.1,-0.8 0.4,-1 0.2,-0.1 0.8,0.1 1,0.3 1.6,3.1 4.4,5.3 6.7,7.8 0.6,0.6 1.3,1 2.5,0.5 0.9,-0.4 2.4,0.4 3.5,0.9 2,0.9 4,1.8 5.4,3.7 0.3,0.5 1,0.7 1.7,0.7 -0.6,-0.7 -1.2,-1.4 -1.9,-2.2 0.5,-0.4 1,-0.7 1.5,-1.1 -0.1,-0.2 -0.1,-0.5 -0.3,-0.6 -5.2,-4.2 -10.2,-8.4 -15.5,-12.4 -5.9,-4.5 -11.8,-8.9 -17.9,-13.1 -7.7,-5.3 -15.9,-9.6 -24.4,-13.5 -4.9,-2.3 -9.7,-4.6 -14.8,-6.5 -4,-1.5 -8.2,-2.4 -12.3,-3.4 -1.9,-0.5 -3.9,-0.5 -5.9,-0.6 -6.5,-0.2 -13.1,-0.1 -19.6,-0.7 -6.1,-0.5 -12,0.2 -17.9,1.5 -3.8,0.9 -7.8,0.6 -11.6,0.6 C 59,129 52.5,128 46,126.3 c -6.1,-1.6 -12.3,-2.9 -18.4,-4.5 -2.7,-0.7 -5.4,-1.9 -8,-2.9 -2.9,-1.1 -5.8,-2.2 -8.6,-3.3 -0.8,-0.3 -1.5,-0.7 -2.5,-1.1 0.6,-0.9 1,-1.7 1.7,-2.7 -1.1,-1.4 -2.3,-3 -3.5,-4.5 -1.8,-2.2 -3.3,-4.6 -4.2,-7.4 -0.7,-2 -1.6,-4 -2.4,-5.9 0,-0.5 0,-1 0,-1.4 0.6,0 1.3,0.1 1.9,0.1 0.2,0.4 0.4,0.6 0.4,0.9 0.6,2.5 1.4,4.9 3.5,6.6 0.5,0.4 0.7,1.1 1,1.6 1.5,2.5 2.9,5 4.5,7.3 0.7,1 1.6,1.8 2.5,2.7 0.1,-0.1 0.3,-0.2 0.4,-0.3 -0.1,-0.3 -0.1,-0.7 -0.3,-1 C 11.7,106.2 10.8,101.1 6.9,97.7 6.8,97.6 6.8,97.4 6.7,97.3 6.2,95.6 5.6,94 5.2,92.3 4.8,92 4.8,91 4.7,90.1 4.8,90 5,89.9 5.2,89.8 c 0.5,0.3 1,0.5 1.3,1 0.3,0.4 0.4,1 0.6,1.6 2.2,7.3 5.9,13.7 10.2,19.8 0.4,0.6 1,1.1 1.4,1.7 0.2,-0.1 0.4,-0.2 0.6,-0.3 -0.3,-0.8 -0.5,-1.7 -1,-2.5 -2.8,-4.8 -5,-9.7 -7,-14.9 C 10.5,94 9.8,91.7 9,89.4 8.9,89.1 8.6,88.8 8.7,88.5 8.8,88 9.1,87.6 9.3,87.1 c 0.3,0.3 0.7,0.6 0.8,0.9 0.4,1 0.5,2 0.9,2.9 0.4,0.8 0.5,1.8 1.7,2.1 0.3,-1 0.6,-1.8 0.9,-3 0.8,0.7 1.4,1.2 2.3,2 -0.6,-2.3 -1.1,-4 -1.6,-6 1.4,0.3 1.5,0.3 1.7,1.2 1.2,5.4 3.9,10.1 6.6,14.8 0.4,0.7 0.8,1.6 2.1,1.4 -1.9,-6.3 -4.5,-12.3 -7,-18.3 1.1,-0.5 1.7,-0.5 2.1,0.6 0.9,2.3 1.9,4.6 2.8,6.8 0.6,1.5 1.4,2.9 2.1,4.3 0.2,-0.1 0.3,-0.1 0.5,-0.2 -0.2,-0.8 -0.5,-1.5 -0.7,-2.3 -0.6,-2.8 -1,-5.6 -1.7,-8.4 -0.3,-1 0,-1.6 0.9,-1.8 0.9,-0.3 1.4,0.3 1.6,1 0.4,1.1 0.7,2.3 1,3.4 0.5,1.5 1,2.9 1.5,4.3 1.5,-0.3 1.8,-1 1.5,-2.2 -0.4,-1.9 -0.7,-3.8 -1,-5.6 -0.1,-0.6 -0.1,-1.5 0.8,-1.4 0.5,0.1 1.2,0.7 1.5,1.3 0.3,0.5 0.1,1.3 0.3,1.9 0.2,0.9 0.1,2.1 1.4,3.2 -0.3,-1.6 -0.5,-2.7 -0.8,-3.8 -0.2,-0.8 -0.3,-1.5 0.6,-1.8 0.9,-0.3 1.3,0.3 1.6,1.1 0.4,1.2 0.7,2.4 1.2,3.6 0.3,0.8 0.6,1.8 1.9,1.4 0,-0.2 0.1,-0.4 0.1,-0.7 0,-0.2 -0.1,-0.5 0,-0.7 0.3,-0.4 0.6,-1.1 0.9,-1.2 0.4,-0.1 1,0.4 1.2,0.9 0.5,1 0.9,2.1 1.3,3.2 0.2,-0.1 0.4,-0.1 0.6,-0.2 -0.2,-0.7 -0.5,-1.4 -0.7,-2.2 -0.5,-1.4 -1,-2.9 -1.3,-4.3 -0.1,-0.4 0.4,-0.9 0.6,-1.4 0.5,0.3 1.1,0.5 1.5,0.8 0.2,0.2 0.2,0.6 0.3,0.9 0.9,2.1 1.8,4.3 2.7,6.4 0.4,0.9 1.1,1.8 2.3,1.3 0,-0.3 0.1,-0.5 0,-0.6 -1,-2.3 -2,-4.6 -3.2,-6.9 -0.6,-1.2 -0.8,-2.3 -0.2,-2.5 1.1,-0.4 1.6,0.3 2.1,1.1 0.5,0.9 1.1,1.7 1.7,2.6 0,-1.2 -0.4,-2.2 -0.6,-3.3 -0.1,-0.4 0.4,-1.3 0.6,-1.3 0.5,0 1.1,0.3 1.5,0.7 0.2,0.2 0.1,0.8 0.3,1.1 0.5,1.2 1.1,2.4 1.6,3.5 0.1,-0.1 0.3,-0.1 0.4,-0.2 -0.3,-1.1 -0.6,-2.3 -0.8,-3.4 -0.1,-0.6 0.2,-1.2 0.4,-1.7 0.6,0.2 1.4,0.2 1.8,0.6 0.9,1 1.7,2.1 2.4,3.2 1.7,2.5 3.4,5 5.1,7.5 0.2,0.3 0.7,0.5 1.3,1 -0.3,-4.8 -1.5,-8.7 -5.6,-11.6 0.7,-0.6 1.3,-1.1 1.9,-1.6 -0.6,-1.7 -1.2,-3.3 -1.7,-5 -0.1,-0.4 0.3,-1 0.4,-1.5 0.6,0.2 1.3,0.2 1.6,0.6 0.5,0.5 0.7,1.2 1,1.9 0.6,1.2 1.6,1.8 3.4,2.4 -0.9,-1.9 -1.6,-3.5 -2.4,-5 -0.4,-0.9 -1.6,-1.9 -0.2,-2.6 1.3,-0.6 1.7,0.8 2.2,1.6 1.6,2.7 2.8,5.5 4.5,8.1 1.4,2.1 2.6,4.2 4,6.3 0.3,0.4 0.8,0.6 1.4,1.2 0,-0.7 0.1,-1.1 0,-1.5 -0.9,-2.9 -1.9,-5.7 -3.6,-8.3 -1.6,-2.4 -2.7,-5 -4,-7.5 -0.1,-0.3 0.1,-1 0.4,-1.2 0.3,-0.2 0.9,0 1.3,0.2 0.3,0.1 0.4,0.4 0.6,0.7 1.4,2.5 3.2,4.8 4.2,7.4 1.3,3.2 3.5,5.7 5.2,8.6 0.2,0.3 0.6,0.3 1.3,0.8 -0.5,-1.5 -0.7,-2.5 -1.1,-3.5 -1,-2.5 -2.1,-5 -3.2,-7.4 -0.1,-0.3 -0.4,-0.5 -0.6,-0.7 -0.8,-1 -1.7,-1.9 -2.5,-2.9 -0.5,-0.6 -0.6,-1.5 -0.9,-2.2 0.1,-0.1 0.3,-0.2 0.4,-0.3 0.4,0.2 0.9,0.4 1.3,0.7 0.7,0.5 1.4,1.2 2.2,1.8 0.5,1.4 0.5,1.4 1.9,1.6 -0.6,-0.5 -1.3,-1 -1.9,-1.5 0,-0.2 0,-0.3 0,-0.5 0.1,-0.6 0.3,-1.1 0.4,-1.7 0.6,0.2 1.2,0.3 1.7,0.7 0.7,0.6 1.4,1.3 2.3,2.2 0,-0.9 0,-1.5 0,-2.2 0.6,0 1.1,-0.1 1.3,0.1 1.4,1.1 3.2,2.1 4.2,3.5 2.5,3.5 4.8,7.1 6.4,11.1 1.7,4.2 3.6,8.4 6,12.2 0.2,0.3 0.6,0.6 0.9,0.9 0.1,-0.1 0.3,-0.1 0.4,-0.2 -0.4,-1.5 -0.7,-3.1 -1.1,-4.6 -0.9,-3 -1.6,-6 -2.8,-8.9 -1,-2.4 -2.9,-4.5 -3.1,-7.3 0,-0.5 -0.6,-0.9 -0.9,-1.4 -1.1,-1.3 -2.2,-2.5 -3.3,-3.8 -0.5,-0.7 -1.4,-1.4 -0.6,-2.6 0.5,0.1 1,0 1.3,0.3 1.8,1.2 3.5,2.4 4.7,4.3 1.5,2.4 3,4.9 4.6,7.2 1.5,2.2 3.1,4.4 4.7,6.7 0.4,0.5 0.7,1.1 1.3,1.4 1.2,0.7 1.6,1.7 1.9,2.9 0.2,0.9 0.5,1.7 0.8,2.6 0.2,0 0.3,-0.1 0.5,-0.1 0.3,-3.2 -0.9,-6.1 -2,-9.1 -3.6,-4 -4.4,-9.3 -6.6,-13.9 0,-0.1 -0.1,-0.2 0,-0.2 0.2,-0.6 0.4,-1.1 0.6,-1.7 0.5,0.2 1.1,0.3 1.3,0.7 0.6,0.8 1.1,1.6 2.2,1.7 0.2,0 0.5,0.3 0.5,0.4 0.4,2.3 2.4,3.6 3.4,5.4 0.6,1.2 1.3,2.3 2,3.4 0.2,0 0.4,-0.1 0.5,-0.1 0,-0.6 0.2,-1.4 0,-1.9 -0.7,-1.3 -1.5,-2.6 -2.4,-3.8 -0.4,-0.6 -0.7,-1.1 0,-1.8 1.9,0 2.8,1.5 3.7,2.8 2.2,3.2 4.2,6.8 8.4,8 0.4,-1.2 -0.4,-2.2 -1,-3.2 -0.5,-0.8 -1.1,-1.6 -1.5,-2.5 -1.8,-4 -3.5,-8 -6.7,-11.2 -0.7,-0.6 -0.7,-1.3 -0.1,-2.1 1.7,0 2.5,1.2 3.3,2.1 0.9,0.9 1.6,2 2.3,3 0.5,0.6 1.1,1 1.7,0.2 1,-1.2 1.8,-0.7 2.5,0.2 0.7,0.9 1.3,2 2,3 0.1,0.2 0.3,0.3 0.4,0.4 0.8,-0.1 1.5,-0.1 2.1,-0.1 2.2,5.3 4.3,10.5 6.6,15.5 0.4,0.9 1.3,1.6 2.1,2.1 0.9,0.6 1.7,0 1.5,-1 -0.9,-3.9 -2,-7.8 -4.4,-11.1 -1.6,-2.3 -3.4,-4.4 -5.1,-6.5 -0.2,-0.2 -0.3,-0.5 -0.4,-0.7 0.1,-0.1 0.2,-0.2 0.2,-0.3 0.7,0.3 1.4,0.6 2.1,0.9 0.1,-0.5 0.1,-0.9 0.2,-1.3 2.4,0.7 3.3,1.4 4.5,3.5 0.6,1 1.1,2.1 1.7,3.1 1.7,2.6 3,5.4 3.9,8.4 0.5,1.8 1.3,3.5 2,5.3 1.9,-0.8 1.9,-0.8 1.4,-2.4 -1.5,-4.7 -3.6,-9 -6.6,-12.9 -0.2,-0.3 -0.3,-0.8 -0.6,-1.8 1,0.5 1.6,0.6 1.9,1 1.1,1.2 2,2.5 3.1,3.7 2.6,3 4.6,6.3 5.9,10 0.7,2.2 1.4,4.4 2.1,6.6 0.5,1.6 0.9,3.4 3,4 0,-0.5 0.2,-1.1 0.1,-1.3 -1.1,-1.5 -0.8,-3.3 -1.3,-5 -1.1,-4.2 -3.2,-7.8 -5.8,-11.2 -0.3,-0.4 -0.4,-1 -0.6,-1.5 0.9,0 1.4,0.2 1.8,0.5 2.9,2.1 4.7,5.1 6.3,8.3 0.7,1.3 1.6,2.7 1.7,4.1 0.1,1.4 0.5,2.5 1.2,3.5 0.8,1.2 1.7,2.6 3.7,2.5 -0.3,-3.1 -1.1,-5.7 -2.8,-8.2 -1.8,-2.6 -3.2,-5.5 -4.7,-8.2 0.6,-1.1 1.4,-1 2,-0.2 0.8,0.9 1.4,1.9 2.1,2.9 0.4,0.6 0.7,1.4 1.2,1.7 1.8,1.1 2.7,2.9 3.7,4.6 2.3,3.7 2.9,7.9 3.5,12 2,0.7 2.3,0.6 1.9,-1.2 -0.7,-4 -1.8,-7.8 -4.4,-11 -0.8,-1 -1.5,-2 -2.2,-3.1 -0.2,-0.4 -0.2,-1 -0.2,-1.4 1.3,-0.5 1.9,0.3 2.4,1 1,1.4 2,2.9 3,4.3 0.8,1.1 1.5,2.2 3.2,1.9 0.4,-0.1 1.1,0.4 1.3,0.8 0.9,1.5 1.8,3 2.6,4.6 1.5,3.1 2.9,6.2 3.5,9.6 0.1,0.9 0.7,1.4 1.8,0.9 0,-0.4 0.1,-0.8 0,-1.1 -1.2,-3.1 -2.4,-6.2 -3.6,-9.4 -0.3,-0.9 -1,-1.9 -0.8,-2.6 0.2,-0.6 1.5,-0.7 2.3,-1.2 0.8,-0.5 1.6,-0.3 2.2,0.3 0.5,0.4 0.8,1 1.2,1.5 1.6,-1 2.2,-1 3.2,0.4 0.6,1 1,2.2 1.4,3.3 0.6,1.6 1.1,3.4 1.8,4.9 1.9,3.9 4,7.6 4.1,12.1 0,1.5 1.1,2.3 2.5,3 0.1,-0.5 0.2,-0.8 0.1,-1.1 -0.6,-5.3 -1.3,-10.6 -4.7,-15.1 -0.4,-0.6 -0.7,-1.2 -0.1,-1.7 0.6,-0.5 1.3,-0.5 1.9,0.2 0.3,0.3 0.7,0.7 1.1,0.9 2.1,1.3 3.8,3.1 4.7,5.4 1.3,3.1 2.4,6.4 3.9,9.5 1.7,3.7 2.5,7.5 2.9,11.5 0.1,0.8 0.3,1.6 0.6,2.3 0.1,0.3 0.7,0.4 1.2,0.6 0.4,-2.3 -0.1,-4.3 -0.5,-6.4 -0.3,-1.4 -0.8,-2.8 -0.8,-4.2 0,-1.4 -0.4,-2.6 -0.9,-3.9 -1,-2.2 -1.9,-4.3 -2.9,-6.5 1.3,-1.1 2,-0.2 2.4,0.6 0.9,1.7 1.7,3.4 2.5,5 2,-0.9 2.2,-0.9 3.1,0.7 0.6,1 1.2,2 1.9,3 1.3,-1 2.1,-1.1 3.1,0.1 0.7,0.8 1.3,1.5 1.7,2.5 0.8,1.8 1.8,3.5 2.8,5.3 1.6,-1.3 1.6,-1.3 2.6,0.1 0.4,0.6 0.9,1.1 1.1,1.5 0.9,0.2 1.9,0.1 2.3,0.5 1.4,1.4 3,2.9 3.6,4.6 1.2,3.5 1.9,7.2 2.6,10.9 0.5,2.5 0.6,5.1 0.8,7.6 0.1,0.8 0,1.8 1.4,1.9 0.2,-0.5 0.5,-1 0.5,-1.5 0.3,-4.4 0.5,-8.8 -1.6,-12.9 -0.6,-1.2 -1.3,-2.4 -1.8,-3.7 -0.2,-0.6 -0.2,-1.2 -0.4,-2.3 1.6,0.5 3,0.5 3.9,1.2 2,1.7 3.8,3.6 5.5,5.6 0.4,0.4 0.4,1.2 0.4,1.8 0.2,1.2 0.2,2.5 1.3,4 0,-1.5 0,-2.4 0,-3.3 1.3,-0.3 1.8,0.2 1.9,1.3 0.1,0.8 0,1.6 0.3,2.4 0.9,2.8 1,5.6 1.2,8.5 0.2,2.9 0.2,5.9 0.3,8.9 0,0.6 0.2,1.1 0.3,1.7 0.7,-0.3 1.2,-0.7 1.2,-1.1 0.2,-3.2 0.5,-6.4 0.4,-9.6 0,-1.8 -0.5,-3.6 -1.5,-5.2 -0.8,-1.4 -1.7,-2.9 -1.1,-4.7 1.3,-0.4 1.5,0.6 1.9,1.4 0.9,1.9 1.7,3.7 2.6,5.7 0.9,-0.9 1.6,-1.1 2.4,-0.3 0.8,0.9 1.6,1.8 2.3,2.7 0.3,0.4 0.5,1.1 0.8,1.1 1.5,0 1.4,1.1 1.7,2 0.7,2 1.7,3.7 3.4,5.1 0.9,0.7 1.6,1.7 2.3,2.7 0.2,0.3 0.4,0.7 0.5,1 0.1,0 0.2,-0.1 0.3,-0.1 0,-0.7 -0.1,-1.3 -0.1,-2.2 0.6,0.3 1.2,0.3 1.4,0.6 1.1,1.5 2.3,2.9 3.1,4.5 1.7,3.7 2.2,7.6 1.9,11.7 -0.1,1 -0.1,1.9 -0.2,2.9 -0.1,0.8 0.2,1.4 1.1,1.6 1,0.2 1.2,-0.6 1.3,-1.3 0.2,-1.6 0.4,-3.2 0.5,-4.8 0.1,-2.1 0,-4.1 -1.5,-5.9 -0.3,-0.3 -0.3,-1 -0.4,-1.6 1.8,0 2.5,0.9 3,2.2 0.4,1.1 0.8,2.2 1.4,3.2 1.4,2.2 3.2,4.1 6,4.7 0.3,0.6 0.6,1.2 0.9,1.9 2,0.2 3.3,1.1 3.5,3.2 0.1,0.4 0.3,1 0.6,1.2 1.1,0.4 1.2,1.4 1.4,2.3 0.7,2.6 1.5,5.2 2.3,7.8 0.1,0 0.2,0 0.3,0 0.1,-1.2 0.2,-2.3 0.4,-3.5 1.6,2 0.6,4.3 1.6,6.5 0.4,-1.3 0.7,-2.6 1.1,-3.9 0.1,0 0.2,0 0.3,0.1 0.3,1.8 0.7,3.5 1.1,5.8 0.3,-1.3 0.5,-2 0.7,-2.7 1.3,0.3 1.8,0.8 1.3,2.2 -0.5,1.5 -1.1,3 -0.6,5 0.3,-0.5 0.5,-0.6 0.5,-0.8 0.3,-1.4 0.6,-2.8 1,-4.1 0.1,-0.3 0.4,-0.6 0.7,-0.7 0.2,-0.1 0.6,0.3 0.7,0.5 0.1,0.4 0.1,0.9 0.1,1.4 0.1,0.8 0.2,1.7 0.3,2.3 1.8,-0.4 0.1,-2.9 2.4,-3.3 0,1.4 0,2.7 0,4 0.2,0 0.3,0.1 0.5,0.1 0.3,-1.1 0.6,-2.2 0.9,-3.5 0.3,0.4 0.3,0.5 0.3,0.5 0.4,1.8 -0.6,3.9 1.4,5.3 0.2,0.1 0.1,0.8 0.1,1.2 -0.2,1.3 -0.4,2.5 -0.6,3.8 -0.4,2.3 -1,4.6 -0.5,7.1 1.4,-1.9 2.4,-3.5 1.8,-5.9 -0.3,-1 -0.1,-2.2 0,-3.3 0.1,-0.6 0.4,-1.2 0.6,-1.8 0.2,0 0.3,0.1 0.5,0.1 0,1.5 0,3 0,4.7 1.5,-1.3 0.9,-3.9 3.4,-4.2 -0.4,1.2 -1.2,2.2 -1.1,3.1 0.1,2.4 0.6,4.8 0.9,7.3 0.9,-1.2 1.2,-2.5 1.2,-4 0,-1 0.4,-1.6 1.9,-1.3 -0.8,2.6 -1.6,5.2 -2.5,8.2 3.2,-1.6 2.8,-4.1 2.7,-6.5 0.6,-0.1 1.2,-0.2 1.7,-0.2 0.2,0.7 0.4,1.9 0.6,1.9 1.4,0 1.1,0.9 1.1,1.7 0,1.7 -0.1,3.5 -0.2,5.7 0.7,-1.9 1.1,-3.4 1.8,-5.3 0.7,2.5 0.9,3.1 -0.2,5.1 -1.4,2.4 -0.9,5 -1.8,7.5 1.8,-1.3 2.5,-3.2 3,-5.2 0.5,-1.9 -0.1,-4.1 1.2,-6.4 1.4,2.6 -0.2,4.7 -0.3,6.7 -0.1,2.3 -1.5,4.2 -2.7,6.1 2.5,-0.6 2.6,-3 3.3,-4.7 0.8,-1.9 1,-4 1.5,-6.1 1.5,1 -0.1,2.2 0.5,3.2 1.4,-1.3 1.5,-1.3 0.7,-2.9 -1.5,-3.1 -2.9,-6.2 -4.5,-9.3 -5,-9.9 -9.8,-19.9 -15.5,-29.4 -2.4,-4 -4.5,-8.3 -6.8,-12.4 -4.3,-7.8 -8.7,-15.6 -13.8,-22.9 -3,-4.3 -5.9,-8.7 -9,-12.9 -3.2,-4.4 -6.4,-8.9 -10.4,-12.8 -3,-3 -6.1,-6.1 -9.1,-9.1 -3.1,-3 -6.8,-5.1 -9.5,-8.5 0,-0.1 -0.1,-0.1 -0.2,-0.2 -1.7,-1.5 -3.4,-3.1 -5.2,-4.6 -4,-3.4 -8,-6.8 -12.2,-10 -2.1,-1.6 -4.3,-3 -6.5,-4.4 -2.9,-1.9 -5.7,-3.9 -8.7,-5.4 -3.3,-1.7 -6.8,-2.9 -10.3,-4.2 -7.4,-2.8 -14.9,-5.4 -22.3,-8.2 -1,-0.4 -2,-1.1 -2.6,-2 -0.8,-1.2 -1.8,-1.6 -3.1,-1.9 -2,-0.5 -3.9,-1.2 -5.9,-1.9 -0.8,-0.3 -1.6,-0.9 -1.2,-2.2 3.5,0.5 7,1 11.1,1.5 -1.1,-1.9 -1.9,-3.2 -2.7,-4.6 -1.3,-2.4 -2.8,-4.8 -3.9,-7.3 -1.3,-2.7 -1.1,-3 1,-5.1 0.3,-0.3 0.3,-0.7 0.7,-1.6 0.9,1.2 1.3,1.8 1.8,2.3 0.5,0.5 0.9,1.4 2.3,1 -0.3,-1.3 -0.6,-2.6 -0.9,-3.9 -0.2,-0.7 -0.4,-1.4 -0.5,-2.1 -0.1,-0.7 0,-1.4 0.9,-1.4 0.4,0 1,0.5 1.2,0.9 0.5,0.8 0.8,1.7 1.2,2.5 2.1,-0.8 2.7,-1.8 2.2,-3.6 -0.5,-1.9 0,-3.3 1.3,-4.9 2,1.7 2,4 2.8,5.9 0.8,1.9 1.7,3.8 2.7,5.9 0.9,-1.4 0.4,-2.6 0,-3.8 -0.8,-3 -1.7,-5.9 -2.5,-8.9 -0.1,-0.2 0.1,-0.4 0.2,-0.7 1.1,-0.2 2,0.1 2.5,0.9 0.6,0.9 0.9,1.8 1.4,2.8 0.7,1.6 1.4,3.2 2.2,5 0.6,-1.2 0.9,-2.4 1.6,-3.1 0.9,-0.9 0.8,-1.6 0.4,-2.6 -0.6,-1.3 -0.7,-2.5 0.7,-3.4 1.8,0.2 3.6,0.8 5,-1.4 1.4,1 2.7,1.8 4,2.7 -0.1,0.1 -0.1,0.2 -0.2,0.2 1.1,0.2 2.1,0.4 3.1,0.5 0.8,-1.5 -0.4,-3.2 0.7,-5.1 0.6,0.9 1.1,1.5 1.4,2.1 0.7,2.2 1.3,4.5 2,6.8 0.1,0.2 0.4,0.4 0.9,0.9 0.8,-2.9 0.1,-5.8 0.6,-8.3 1.1,-0.4 1.5,0.3 1.7,1 0.5,1.7 1,3.3 1.4,5 0.3,1.5 0.4,3 0.5,4.5 0.1,1.1 0.6,2 2,2.3 0.1,-0.7 0.3,-1.3 0.3,-1.9 0,-1.5 -0.2,-3 -0.2,-4.5 0,-1 -0.1,-2 1.2,-2.4 0.6,0.4 1.2,0.8 1.9,1.3 0.5,-0.8 0.9,-1.4 1.3,-2.1 1.8,0.2 3.5,0.3 5.1,0.5 0.4,0 0.9,0.3 1,0.5 0.5,1.1 1.4,1.3 2.5,1.5 0.8,0.2 1.5,1.1 2.1,1.8 0.5,0.6 0.7,1.4 1,2.2 0.4,1.2 0.8,2.5 2.6,1.6 0.3,-0.1 0.7,0.2 1.1,0.3 2,0.7 3.3,2.1 4.2,4 0.3,0.7 1,1.6 1.7,1.7 2.5,0.7 3.9,2.3 4.5,4.7 0.2,0.7 0.2,1.4 1.3,1.6 0,-1.5 -0.8,-3 0.5,-4.3 0.3,0.3 0.8,0.5 1,0.9 1.4,1.9 2.7,3.9 4,5.9 1.3,1.9 3.9,2.7 4.7,5.2 0.1,0.3 0.6,0.6 0.9,0.5 1.1,-0.1 1.6,0.7 2,1.4 0.5,0.7 0.8,1.4 1.2,2.2 0.5,-0.8 0.8,-1.4 1.2,-2.1 1.4,0.5 2.1,1.5 2.5,2.6 0.3,0.9 0.7,1.8 1,2.7 1,2.6 1.7,5.3 1.7,8.1 -0.1,4.8 -0.3,9.6 -0.5,14.4 0,1 0,2.1 0,3.1 0.6,-0.3 0.8,-0.7 0.9,-1.1 0.5,-3.2 1.1,-6.3 1.4,-9.5 0.4,-4.5 0.4,-8.9 -1.8,-13.1 -0.1,-0.1 0.1,-0.4 0.3,-0.9 0.6,0.6 1,1.1 1.4,1.5 0.7,0.7 1.3,1.4 2.1,1.9 2,1.5 2.9,3.8 4.7,5.4 0.1,0.1 0.1,0.3 0.1,0.5 0.4,0.8 0.8,1.5 1.2,2.3 0.4,0.7 0.9,1.3 1.2,2.1 1.3,3.3 2.2,6.6 2.1,10.2 0,1.4 0.2,2.8 0.3,4.4 0.3,-0.3 0.4,-0.4 0.5,-0.6 0.1,-0.2 0.1,-0.5 0.2,-0.7 0.7,-3 0.4,-6.1 -0.6,-8.9 -0.5,-1.3 0.1,-1.7 1.3,-2.2 0.4,1.2 0.9,2.3 1.2,3.5 0.5,2.6 1,5.2 1.4,7.8 0.1,0.4 0.3,0.7 0.6,1.5 0.6,-3.9 0.1,-7.2 -0.9,-10.4 -0.2,-0.7 -0.5,-1.4 0.3,-2.2 2.5,4 4.4,8.1 5.8,12.5 0,-1.1 0,-2.3 0,-3.4 0.8,0.7 1.2,1.7 1.7,2.5 0.2,0.5 0.7,1.3 1,1.2 1.8,-0.5 1.6,1.1 2,2 0.4,1 0.6,2.2 1.3,3.1 2.9,4.1 3.3,8.8 3.2,13.5 0,2.8 -0.5,5.6 -1.1,8.3 -0.8,4.3 -1.8,8.5 -2.8,12.8 -0.5,2.1 -1.1,4.1 -0.9,6.3 0.3,-0.4 0.4,-0.8 0.5,-1.2 1.1,-4.2 2.1,-8.5 3.2,-12.7 1.9,-6.9 2.9,-13.8 1.5,-21 0,-0.1 0.2,-0.3 0.5,-0.7 0.5,1.4 1,2.5 1.3,3.7 0.2,1.1 0.7,1.8 1.6,2.5 1.3,1 2.8,2 3.3,3.9 0.4,1.5 1.2,2.9 1.8,4.4 0.4,1 0.9,2 1.3,3.1 0.6,2 1.1,4.1 1.8,6.2 0.2,0.5 0.6,1.1 1,1.2 1.9,0.8 2.6,2.4 2.8,4.1 0.3,2.5 1,4.5 3.4,5.6 0.1,0.1 0.2,0.2 0.3,0.4 1.4,2.7 3.8,4.7 4.6,7.7 0.3,1.2 1,2.3 1.6,3.5 0.6,1.2 1.5,2.2 2.1,3.4 1.5,3 1.8,6.2 2.2,9.5 0.2,1.6 0.3,3.1 -0.4,4.7 -0.2,0.5 -0.1,1.2 -0.1,1.9 0,0.5 0.2,1.1 0.2,1.6 -0.7,6 -2,11.9 -4.5,17.5 -0.7,1.5 -1.2,3.2 -1.8,4.8 3,-4.7 5.2,-9.7 6.9,-14.9 1,-3.1 2.2,-6.1 0.9,-9.4 -0.1,-0.2 0.3,-0.6 0.4,-1 2.1,1.1 1.1,2.9 1.4,4.4 1.1,0.1 1.4,0.9 1.4,2 0.1,2.7 -0.3,5.2 -1.2,7.7 -0.7,1.8 -1.1,3.7 -1.7,5.6 1,-1.1 1.5,-2.3 2.2,-3.4 1.2,-1.8 2.4,-3.6 2.2,-5.9 -0.1,-1.1 0.6,-1.5 1.8,-1.1 0.1,2 0,3.8 -1,5.6 -0.9,1.7 -1.5,3.7 -2.2,5.5 -0.8,1.9 -1.7,3.7 -2.5,5.7 -1.4,3.5 -1.9,7.2 -3.8,10.5 -0.4,0.6 -0.3,1.5 -0.5,2.3 -0.1,0 -0.4,0 -0.4,0.1 -1.2,1.8 -2.5,3.7 -3.7,5.6 -0.4,0.7 -0.1,1.1 0.7,1.6 0.8,-1.5 1.6,-2.9 2.3,-4.4 0.4,-0.9 0.7,-1.9 1.1,-2.8 1.5,-2.7 3.1,-5.3 4.3,-8.1 2,-4.6 3.8,-9.3 5.5,-14 0.7,-2 2,-4 0.6,-6.5 0.8,-0.3 1.4,-0.5 2.4,-0.8 0.1,2.3 0,4.3 1.2,6.1 0.2,0.3 0.1,0.8 0,1.2 -0.2,1.2 -0.3,2.4 -0.5,3.5 -0.2,1 -0.4,1.9 -0.5,2.8 0.7,-0.8 1.1,-1.6 1.4,-2.5 0.3,-0.9 0.4,-1.9 1.9,-1.7 0.4,5.1 -2.6,9.3 -3.2,14.2 0.6,-0.5 1,-1 1.3,-1.6 0.3,-0.7 0.5,-1.5 0.8,-2.2 0.4,-0.9 1.3,-1.2 2,-0.7 1.3,0.8 3.1,1 3.7,2.7 0.1,0.3 0.5,0.5 0.8,0.7 0,-1.2 -0.3,-2.1 -0.7,-3 -1.3,-2.8 -2.6,-5.6 -3.8,-8.5 -0.2,-0.4 0,-1 0,-1.5 0.5,0.2 1.2,0.3 1.6,0.6 0.4,0.3 0.4,1 0.7,1.5 0.3,0.6 0.5,1.2 0.8,1.7 -0.2,-1.9 -0.7,-3.6 -1.3,-5.3 -0.3,-0.7 -0.5,-1.6 -1,-2.1 -1.5,-1.4 -1.8,-3.3 -2.7,-5 -0.3,-0.6 -0.4,-1.4 0.7,-1.7 0.9,1.5 1.8,2.9 2.6,4.3 0.1,-0.1 0.3,-0.1 0.4,-0.2 -1.2,-2.9 -2.4,-5.8 -3.6,-8.7 0.9,-0.3 1.4,-0.5 2.1,-0.8 -0.4,-1.6 -0.3,-3.2 -1.7,-4.4 -0.7,-0.6 -1.1,-1.7 -1.5,-2.7 -0.6,-1.7 -1,-3.5 -1.5,-5.2 -0.2,-0.9 -0.5,-1.8 -0.7,-2.8 -0.2,-2 -0.4,-4.1 -0.5,-6.2 0,-0.5 0.1,-1.1 0.2,-2.2 1.3,1.2 2.2,2 3.4,3.1 -0.4,-2.8 -1.7,-4.7 -2.4,-6.9 -0.3,-0.9 -0.5,-2 -0.5,-3 0,-2.1 0.7,-4.3 0,-6.4 -0.1,-0.3 -0.1,-0.9 0.2,-1.1 0.9,-0.9 0.4,-1.8 0.1,-2.7 -0.8,-2.4 -1.5,-4.9 -2.3,-7.3 -0.3,-1 -0.6,-2 -0.9,-3 -0.5,-2 -1,-4 -1.6,-6 -0.3,-0.9 -0.7,-1.8 -0.9,-2.7 -0.1,-0.5 0.1,-1.1 0.2,-2 0.9,0.7 1.6,1.1 2.7,1.9 -0.6,-2.5 -1,-4.4 -1.5,-6.3 -0.5,-1.6 -1.1,-3.2 -1.7,-4.7 -2.1,-5.5 -5.4,-10.3 -8.5,-15.2 -2,-3.3 -4.3,-6.3 -7.6,-8.5 -3.5,-2.3 -6.5,-5.2 -8.8,-8.7 -0.5,-0.7 -1.2,-1.3 -1.9,-1.8 -2.3,-1.7 -4.6,-3.4 -7,-5 -6.2,-4 -11.7,-8.9 -17,-13.9 C 269,57.9 264,52.7 259.2,47.4 254,41.6 249.5,35.2 246.8,27.7 c -1,-2.7 -0.6,-3.9 2.2,-5.3 0,-2 0,-4 0,-6.1 0,-1.2 0.1,-2.2 1.7,-2.7 1.1,2.7 2.2,5.4 3.4,8 0.2,-0.1 0.3,-0.1 0.5,-0.2 -0.1,-0.8 -0.6,-1.7 -0.3,-2.4 0.5,-1.6 0,-3 -0.3,-4.4 -0.2,-1.2 -0.4,-2.4 -0.6,-3.6 -0.1,-1.2 0.1,-2.3 1.5,-2.6 1.1,0.5 1.5,1.3 1.8,2.4 0.4,1.5 0.9,3.1 1.4,4.6 0.3,0.9 0.8,1.7 1.9,1.3 0.9,-0.3 0.7,-1.1 0.5,-1.8 -0.1,-0.5 -0.3,-1.1 -0.4,-1.6 -0.4,-1.5 -0.9,-2.9 -1.2,-4.4 -0.1,-0.5 0.1,-1.3 0.5,-1.6 0.4,-0.3 1.2,-0.3 1.7,-0.1 0.6,0.2 1.2,0.7 1.7,1.2 0.6,0.5 1.1,1.1 1.6,1.7 2.4,-0.7 2.4,-0.7 5.8,0.5 2,-2.6 2,-2.6 5.9,-1.6 1.2,-1.3 2.4,-2.6 3.5,-3.9 0.6,-0.7 1.4,-1 2.1,-0.5 0.5,0.3 0.9,1.2 0.9,1.8 0.1,1.4 0,2.9 -0.2,4.3 -0.1,1.3 0,2.3 1.1,3.5 0.4,-0.4 1,-0.8 1.1,-1.3 0.3,-1.3 0.6,-2.6 0.7,-3.9 0.1,-1.7 0.5,-3.3 2.2,-4.4 0.7,0.9 1.4,1.7 2.4,2.8 0.4,-1.7 0.8,-3 1.1,-4.3 0.2,-1.1 0.8,-1.5 2,-1.1 0.4,2.5 0.7,5.1 1.1,7.8 0.9,-1.6 1.1,-2.9 0.9,-4.4 -0.1,-1 -0.2,-2.1 -0.2,-3.1 0.1,-1.2 0.6,-1.5 1.8,-1.1 0.3,0.1 0.6,0.3 1.1,0.6 0,-0.6 0.1,-0.9 0.1,-1.2 0.6,0 1.3,0 1.9,0 0.2,0.5 0.3,1 0.6,1.5 1.1,2 1.4,4.2 1.1,6.5 -0.1,0.8 -0.3,1.6 -0.2,2.4 0.1,0.4 0.5,1 0.9,1.1 0.2,0.1 0.8,-0.3 1.1,-0.7 0.6,-0.9 1.2,-1.8 1.9,-3.1 0.6,0.9 1.2,1.3 1.3,1.8 0.3,1.5 0.6,3 0.4,4.4 -0.8,5.8 -1.8,11.6 -2.7,17.4 -0.1,0.9 0,1.9 0,2.9 0.8,-0.8 1.1,-1.7 1.3,-2.6 0.9,-3.8 1.6,-7.6 2.6,-11.4 0.4,-1.7 0.6,-3.3 0.1,-4.3 0.8,-1.9 1.4,-3.3 2,-4.8 0.7,-2 0.7,-2.1 3.4,-2.1 0.2,1.1 0.5,2.2 0.5,3.4 0,1.2 -0.5,2.5 0.5,3.9 0.6,-1.5 1,-2.7 1.5,-3.9 0.5,-1.3 1.2,-2.4 2.8,-2.5 0.1,0.1 0.3,0.2 0.4,0.3 1.9,1.9 3.2,1.6 4,-0.9 0.4,-1.1 1,-2.2 1.6,-3.2 0.9,-1.5 2,-1.4 2.8,0.3 0.6,1.3 1.5,2.2 2.8,3 2.6,1.5 2.5,1.6 3.4,4.9 0.1,0.5 0.3,1.1 0.6,1.6 1.7,2.5 2.8,5.3 3.7,8.1 0.1,0.4 0.3,0.9 0.5,1.5 0.9,-0.6 1.7,-1.1 2.5,-1.7 1.8,1.6 1.8,3.5 1.6,5.6 -0.2,2 -0.1,4 0.4,6.1 1,-0.4 1.9,-0.8 2.8,-1.2 0.4,0.8 0.6,1.5 1.1,2 1.6,1.8 1.9,3.9 1.8,6.2 -0.1,1.7 0.4,3.4 0.6,4.9 1,0.4 1.6,0.7 2.3,0.9 0.5,0.2 1,0.4 1.6,0.4 2,0 2.4,0.3 2.1,2.1 -0.1,0.5 -0.3,0.9 -0.4,1.4 -0.4,1.7 -1.1,3.3 0.2,5 0.3,0.4 0.2,1.2 0.2,1.9 0,2.4 0,4.8 -0.1,7.2 0,1.9 1,3.8 2.8,3.8 1.9,0.1 1.8,1.1 1.9,2.3 0.2,1.7 0.5,3.5 0.9,5.1 1,3.5 1.3,7 0.9,10.6 -0.2,1.6 0.3,3.3 0.7,4.9 0.3,1.3 0.9,2.5 1.2,3.8 0.2,1.2 0.4,2.3 1.4,3.2 0.4,0.4 0.6,1.4 0.4,2 -0.9,3 0.5,5.6 1.3,8.2 0.6,2 0.9,4.4 2.7,5.9 0.3,0.3 0.3,1.1 0.3,1.6 -0.1,1.1 -0.1,2 0.9,3 0.6,0.6 0.9,1.9 0.8,2.9 -0.1,3 -0.5,6 -0.7,9 -0.1,0.8 -0.1,1.6 -0.3,2.4 -1.4,4.7 -2.8,9.5 -4.2,14.2 -0.2,0.6 -0.3,1.3 -0.5,2 1.5,-0.9 2.1,-2.2 2.7,-3.6 1,-2.8 2,-5.6 3.1,-8.3 0.8,-2 1.9,-3.8 1.6,-6.1 -0.1,-1 0.7,-1.1 1.4,-0.7 0.4,3.3 0.4,3.6 -0.8,6.3 -0.6,1.5 -1.3,2.9 -1.8,4.4 -1.6,4.7 -2.9,9.6 -6,13.7 -0.1,0.2 -0.3,0.5 -0.2,0.7 0.6,1.4 -0.2,2.5 -0.5,3.7 -0.1,0.4 0.1,0.8 0.2,1.3 2,-1.8 2.8,-3.9 3.2,-6.3 0.3,-2.1 1,-4.1 1.7,-6.1 0.3,-1 1.1,-1.5 2.2,-0.7 -0.2,0.6 -0.4,1.1 -0.5,1.6 -0.4,1.9 -0.8,3.9 -1,5.8 -0.2,1.6 -0.2,3.3 -0.5,5 -0.1,1.1 -0.5,2.1 -0.8,3.6 1.6,-1.4 1.4,-3.7 3.5,-4.4 -0.2,0.8 -0.4,1.5 -0.5,2.2 -0.1,0.6 -0.3,1.3 -0.1,1.8 0.8,2.2 0.3,4.2 -0.4,6.3 -0.2,0.7 -0.4,1.4 -0.6,2 0.6,-0.2 0.8,-0.5 1,-0.9 1.1,-2.3 2.2,-4.6 3.3,-6.9 0.4,-0.8 0.8,-1.4 1.9,-0.6 -0.1,0.3 -0.2,0.7 -0.4,1.1 -1.8,3.1 -2.1,6.5 -2.4,9.9 0,0.4 -0.2,0.9 0.1,1.2 1.1,1.2 0.5,2.3 -0.1,3.4 -0.5,0.9 -0.7,1.8 0.6,2.1 0.7,-0.7 1.3,-1.4 2,-2.1 1.1,1 2,2 3,2.7 2.9,2.1 5.5,4.5 7.2,7.7 1.6,3 3.3,5.9 4.9,8.9 0.4,0.7 0.8,1.5 0.7,2.2 -0.1,1.8 0.6,3.4 1.2,5 0.4,1.1 0.4,2.3 0.7,3.5 0.1,0.6 0.2,1.3 0.5,1.8 0.7,0.9 0.7,1.8 0.4,2.9 -0.5,1.7 -0.6,3.4 0.1,5.2 0.3,0.9 0.7,1.9 0.6,2.9 -0.1,1.2 0.1,2.1 1,3 0.5,0.5 0.8,1.2 1.2,1.8 2.4,-0.5 3.2,-3.2 5.7,-3.9 0.3,1.3 0.6,2.7 1,4 0.8,2.6 1.9,5.1 2.5,7.7 1.5,6.3 4.1,12.2 6.9,18 0.1,0.3 0.6,0.4 1.1,0.7 -0.9,-2.6 -1.5,-5 -2.4,-7.2 -1.4,-3.5 -3.2,-6.8 -4.4,-10.3 -1.7,-5.5 -3,-11.1 -4.5,-16.6 -0.1,-0.2 0.2,-0.5 0.3,-1 0.4,0.2 0.8,0.3 0.9,0.5 1,2.8 2.1,5.6 3,8.5 1.1,3.5 1.8,7.1 3,10.6 1.5,4.4 3.3,8.8 5,13.1 0.1,0.2 0.4,0.2 0.7,0.4 0.2,-1.9 -0.5,-3.4 -1.2,-4.8 -2.6,-5.2 -4.4,-10.7 -5.9,-16.4 -0.2,-0.6 -0.5,-1.2 -0.4,-1.8 0.4,-3.1 -0.8,-5.8 -2,-8.5 -1.4,-3 -0.4,-5.4 0.8,-8.1 0.7,0.7 1.1,1.6 1.5,2.4 0.4,0.8 -0.3,1.9 0.9,2.6 0.4,-1.9 0.3,-3.4 -0.4,-5 -0.7,-1.7 -0.4,-3.2 1,-4.6 2,5.7 3.7,11.4 5.9,16.8 2.2,5.4 3.2,11.3 6.8,16.2 -0.1,-0.9 -0.4,-1.8 -0.7,-2.6 -0.5,-1.1 -1.1,-2.1 -1.5,-3.2 -1.7,-4.7 -3.5,-9.3 -4.4,-14.2 -0.7,-3.8 -1.9,-7.4 -2.8,-11.2 -0.6,-2.5 -1,-5 0.2,-7.5 0.1,-0.3 0,-0.6 0.1,-0.9 0.1,-1 0.2,-1.9 0.2,-3 1.4,0.4 1.7,1.2 1.8,2.3 0,1.6 -0.1,3.2 0.2,4.7 0.4,2.4 0.9,4.9 1.5,7.3 0.4,1.8 1,3.6 3,5.2 -0.3,-0.9 -0.4,-1.3 -0.6,-1.7 -1.2,-2 -1.7,-4.1 -2,-6.4 -0.1,-0.6 -0.2,-1.1 -0.3,-1.6 -0.4,-3.1 -0.8,-6.2 -1.2,-9.3 -0.2,-1.8 0.3,-3.4 1.3,-5 1,-1.6 2.8,-2.7 2.7,-4.9 0,0 0.9,-0.3 1.2,-0.1 0.3,0.2 0.6,0.8 0.6,1.2 0.2,1.4 0.3,2.8 0.5,4.3 0.5,4.1 2.4,7.7 3.6,11.6 0.1,0.2 0.3,0.3 0.6,0.7 -0.3,-2.3 0.5,-4.4 -0.7,-6.5 -0.9,-1.6 -0.9,-3.7 -1.3,-5.5 -0.4,-1.9 -1,-3.7 -1.3,-5.6 -0.4,-2.5 0.3,-4.9 1.1,-7.3 0.7,-2.1 1.6,-4.1 1.3,-6.4 0,-0.3 0.3,-0.7 0.6,-1.2 1.4,1.4 0,3.4 1.4,4.9 0.1,-0.6 0.2,-0.9 0.2,-1.2 0,-2 -1,-4.4 1.7,-5.6 0.3,-0.1 0.3,-0.9 0.4,-1.3 0.3,-1.5 0.5,-3 0.8,-4.5 0.2,-0.9 0.7,-1 1.5,-0.6 0.1,0.3 0.2,0.7 0.2,1.1 -0.4,2.6 -0.3,5.1 0.3,7.6 1.1,4.9 2.2,9.8 3.4,14.7 0.5,2.1 1.1,4.1 1.7,6.2 0.2,0.6 0.4,1.2 0.6,1.8 0.2,0 0.3,-0.1 0.5,-0.1 0.1,-0.3 0.2,-0.7 0.2,-1 -0.4,-2 -0.9,-4 -1.4,-6 -0.2,-0.8 -0.4,-1.7 -0.6,-2.5 -0.2,-1.4 -0.3,-2.9 -0.6,-4.2 -1,-3.7 -2.2,-7.3 -2.2,-11.2 0,-2.7 -0.2,-5.4 -0.3,-8.1 0,-0.4 0.1,-1 0.4,-1 1.2,-0.4 1,-1.4 1,-2.4 0,-0.5 0.1,-1.1 0.4,-1.3 0.3,-0.3 0.9,-0.3 1.4,-0.4 0.3,-1.8 0.5,-3.4 0.9,-5 0.1,-0.4 0.7,-1.1 1,-1 1,0.1 0.9,1 0.8,1.7 0,0.4 -0.5,0.8 -0.6,1.2 -0.1,3 0.1,6.1 -0.1,9.1 -0.2,3.1 1.5,5.9 1.6,8.9 0,0 0.3,0.1 0.6,0.2 0,-0.9 0,-1.7 0,-2.5 -0.3,-4.5 -0.6,-9.1 -0.8,-13.6 0,-1.4 0.4,-2.8 0.7,-4.2 0.1,-0.5 0.5,-1.2 0.9,-1.3 1.8,-0.3 1.6,-1.6 1.7,-2.9 0.1,-1 0.2,-2.4 0.8,-2.9 1.4,-0.9 1.4,-2.2 1.8,-3.5 0.1,-0.3 0.3,-0.9 0.5,-0.9 1.2,-0.1 1.1,-1 1.2,-1.7 0.2,-0.9 0.1,-1.8 0.4,-2.6 0.1,-0.5 0.7,-0.8 1,-1.2 0.2,0.1 0.4,0.1 0.5,0.2 0.1,0.7 0.3,1.4 0.3,2 -0.1,2.2 -0.2,4.5 -0.3,6.7 -0.1,3.4 0.5,6.6 1.2,9.9 0.7,3.1 0.9,6.3 1.5,9.4 0.5,2.8 1,5.6 1.6,8.4 0.2,0.8 0.6,1.5 1.2,2.7 0.1,-0.7 0.2,-0.9 0.2,-1.1 -0.3,-2.4 -0.6,-4.7 -1,-7.1 -0.5,-3.1 -1,-6.1 -1.6,-9.2 -0.7,-4.1 -2,-8 -1.8,-12.3 0.2,-3.3 0.2,-6.5 0.3,-9.8 0,-0.5 0.2,-1 0.1,-1.4 -0.1,-1.2 0.6,-1.7 1.6,-1.9 1,0.4 0.8,1.3 0.8,2.1 0,2.9 -0.2,5.9 0.2,8.8 0.5,4.1 1.5,8.1 2.3,12.2 0.2,1.1 0.6,2.1 0.8,3.2 0.5,3.7 1,7.4 1.6,11.1 0.1,0.6 0.5,1.2 0.8,1.8 1.2,-0.8 1,-1.7 0.8,-2.6 -0.7,-3.7 -1.5,-7.3 -2.2,-11 -0.6,-3.4 -1.1,-6.9 -1.8,-10.3 -0.9,-4.6 -0.9,-9.3 -0.7,-14 0,-1.1 0.4,-1.9 1.6,-2.5 0,8 0.8,15.7 3.1,23.2 0.1,-0.6 0.2,-1.1 0.1,-1.6 -0.7,-5.4 -1.5,-10.8 -2.3,-16.3 -0.1,-0.9 0,-1.8 0.1,-2.6 0.2,-1.2 0.5,-2.5 0.8,-3.7 0.2,-0.9 0.5,-1.7 1.5,-1.8 1,0.9 0.5,1.8 0.4,2.7 -0.5,4 -0.8,8.1 -0.2,12.2 0.3,1.7 0.9,3.4 1.1,5.1 0.5,4.3 0.7,8.6 1.1,12.9 0.1,0.9 0,1.9 1.2,2.7 0.1,-0.6 0.4,-1.1 0.3,-1.5 -0.1,-1.3 -0.2,-2.5 -0.4,-3.8 -0.6,-3.8 -1.5,-7.7 -1.3,-11.6 0.1,-1.4 -0.3,-2.9 -0.6,-4.3 -0.1,-0.7 -0.7,-1.3 -0.7,-1.9 0,-2.7 -0.4,-5.5 0.3,-8.1 1,-3.8 1.4,-8.2 5.4,-10.6 0.2,-0.1 0.2,-0.4 0.4,-0.6 0.7,-1.3 1.4,-2.7 2.1,-4 0.9,-1.6 1.9,-3.2 2.9,-4.8 0.2,0 0.4,0.1 0.5,0.1 0.1,0.6 0.3,1.2 0.2,1.7 -0.3,2 -0.7,3.9 -1.1,5.9 -0.5,2.2 -0.2,4.4 0,6.6 0.3,3.1 0.6,6.2 0.9,9.3 0.3,2.7 0.5,5.3 0.7,8.2 1.5,-1 1,-2 0.9,-3 -0.2,-1.3 -0.4,-2.7 -0.5,-4 -0.1,-1.5 0.1,-3 -0.1,-4.5 -0.5,-4.1 -0.7,-8.2 -0.4,-12.3 0.3,-3.9 1.2,-7.6 3.2,-10.9 0.2,-0.3 0.6,-0.5 1.2,-1 0,1.7 0.1,3 0,4.3 -0.1,2.1 -0.3,4.3 -0.4,6.4 -0.1,2.1 0.8,4.2 0,6.3 1,3.9 0.8,7.9 0.8,11.9 0,0.5 0.1,1.1 0.2,1.6 0.2,0 0.4,0 0.6,0 0.1,-0.8 0.2,-1.6 0.3,-2.4 0.4,-5 -0.7,-10 -0.2,-15 0.4,-4 0.5,-8.1 0.8,-12.2 0.2,-2.3 0.6,-4.6 1,-6.9 0.8,-0.2 1.4,-0.3 1.8,-0.4 1.2,-1.6 0.5,-4.5 3.5,-4.3 0.1,0 0.1,-0.1 0.2,-0.2 1.6,-1.6 3.2,-3.2 4.9,-4.8 0.3,-0.3 0.7,-0.4 1.3,-0.8 0.5,3.3 -1.4,6 -0.8,9 0.3,-0.2 0.4,-0.5 0.4,-0.7 0.6,-4.2 2.4,-7.9 4.2,-11.7 0.3,-0.6 0.7,-1.4 1.3,-1.6 1.4,-0.6 1.8,-1.7 2.3,-2.9 0.7,-1.5 1.2,-3.2 2.8,-4.3 -0.5,4.2 -1.4,8.2 -1.8,12.3 -0.4,4.2 -0.1,8.4 1,12.5 0.2,-0.4 0.3,-0.7 0.3,-1.1 0.3,-3.2 0.5,-6.4 0.8,-9.6 0.5,-5.8 2,-11.3 4.6,-16.5 0.6,-1.3 1.6,-2.4 3.4,-2 0,0.4 0.1,0.7 0.1,1 -0.5,3.9 -1.1,7.7 -1.6,11.6 -0.1,0.5 -0.3,1.2 0.5,1.5 0.1,-0.1 0.2,-0.2 0.2,-0.2 0.1,-0.5 0.2,-1.1 0.2,-1.6 0.3,-4.8 1.4,-9.5 3.3,-13.9 0.4,-0.8 0.9,-1.5 1.4,-2.3 0.2,0.1 0.4,0.1 0.6,0.2 0.6,1.7 -0.6,3.4 -0.1,5.3 1.7,-3.4 3.3,-6.8 4.9,-10.3 0.6,0.3 1.3,0.6 2,1 0.4,-0.7 0.8,-1.2 1.2,-1.9 1.4,0.9 3.3,0.8 4,2.6 0,0.1 0.6,0 0.8,0.1 1.7,0.4 2,1 1.6,2.7 -0.1,0.3 -0.1,0.6 -0.2,0.9 -1.7,5.7 -1.8,11.5 -1.7,17.3 0,0.8 0.4,1.6 0.7,2.4 2.1,-0.8 2.5,-2.3 2.6,-4 0.3,-5.6 0.6,-11.2 1,-16.7 0.2,-2.3 0,-4.8 1.3,-7 1,-1.7 1.7,-3.4 2.5,-5.2 0.5,-1 1,-2 2.3,-2.2 0.2,2.8 -0.2,5.3 -1.8,7.6 -0.7,1 -1.3,2.3 -1.3,3.5 -0.1,2.5 -1,5.1 -0.1,7.4 0.9,-3.9 1.9,-8 2.8,-12 0.5,-1.9 0.9,-3.9 1.4,-5.8 0.1,-0.3 0.5,-0.7 0.8,-0.7 0.3,0 0.8,0.4 0.8,0.7 0,0.9 -0.1,1.9 -0.4,2.8 -1.4,3.6 -1.9,7.3 -2.3,11.7 1.5,-3.8 2.7,-7.1 4,-10.3 0.4,-1 0.9,-2.1 1.4,-3 0.2,-0.4 0.8,-0.5 1.3,-0.8 1,1.8 -0.6,3.1 -0.3,4.6 0.6,-1 1.1,-2.1 1.5,-3.3 0.5,-1.2 0.7,-2.7 2.4,-2.9 0.7,0.6 1.2,1.3 0.8,2.3 -0.4,1.4 -0.8,2.8 -1.3,4.1 -1.9,4.4 -3.5,8.9 -3.7,13.7 0,0.4 0.3,0.8 0.6,1.7 0.4,-0.8 0.6,-1.2 0.7,-1.5 1.6,-5.6 3.2,-11.2 4.7,-16.8 0.3,-0.9 0.4,-1.9 0.8,-2.8 0.2,-0.7 0.8,-1 1.7,-0.5 0.4,1.8 0.8,3.6 0.2,5.5 -1.2,4 -2.3,8.1 -3.4,12.1 -0.2,0.6 -0.3,1.3 -0.4,2 0.8,-0.5 1.2,-1.2 1.4,-1.9 1.3,-3.4 2.5,-6.9 3.7,-10.3 1.4,-4.1 3.4,-7.8 6.6,-10.8 1.1,0.4 2.2,0.6 3.1,1 0.9,0.5 1.7,1.2 2.6,1.9 -0.1,0 0.1,0 0.2,-0.1 1.5,-0.8 1.8,-0.7 1.9,0.9 0.1,1.1 -0.1,2.2 -0.2,3.3 -0.3,2.1 -0.8,4.3 -1.1,6.4 0.1,0.1 0.2,0.1 0.4,0.2 2.4,-2.9 4.9,-5.8 7.3,-8.6 1.1,0.2 1.6,0.7 1.2,1.7 -0.3,0.8 -0.8,1.5 -1.1,2.3 -0.2,0.4 -0.2,0.8 -0.3,1.1 0.1,0 0.2,0.1 0.3,0.1 0.5,-0.7 1.1,-1.3 1.6,-2 0.2,0.1 0.3,0.1 0.5,0.2 -1.1,4.5 -2.8,8.9 -2.5,13.6 2,-3.2 4,-6.3 6,-9.4 0.1,-0.2 0.1,-0.5 0.2,-0.7 1.3,-3.9 2.6,-7.8 4,-11.7 0.1,-0.4 0.3,-0.8 0.5,-1 0.3,-0.3 0.8,-0.6 1.2,-0.5 0.4,0.1 0.8,0.6 0.9,1 0,1 0,2.1 -0.3,3.1 -0.7,2.1 -1.4,4.2 -2.3,6.3 -0.8,1.9 -1.3,3.7 0.4,5.6 0.7,-2.2 1.4,-4.3 1.8,-6.5 0.7,-3.6 1.6,-7.1 2.4,-10.7 0.2,-0.9 0.9,-1.6 1.9,-1.2 0.9,0.3 1,1.1 0.8,2 -0.5,2.3 -1,4.7 -1.5,7 -0.5,2.3 -1.1,4.6 -1.7,6.9 -0.2,1 -0.4,1.9 -0.7,2.9 1.1,0.2 1.5,-0.1 1.7,-1.1 0.8,-4.7 1.5,-9.4 2.5,-14.1 0.4,-1.7 1.3,-3.2 2.2,-4.7 0.2,-0.3 1.1,-0.6 1.4,-0.4 0.5,0.2 0.9,0.9 1,1.4 0.1,0.7 -0.1,1.4 -0.2,2.1 -0.3,1.8 -0.5,3.5 -0.8,5.3 0.8,-1.9 1.3,-3.9 1.8,-5.9 0.2,-0.9 0.7,-1.7 1.8,-1.6 0.8,0 1.4,1.2 1.3,2.3 0,0.4 -0.1,0.8 -0.2,1.2 -0.3,2 -0.6,3.9 -0.9,5.9 -0.8,5.2 -1.6,10.4 -2.4,15.6 -0.1,0.4 0.1,0.8 0.1,1.1 0.5,-0.4 0.7,-0.8 0.8,-1.3 0.7,-4.2 1.3,-8.3 2,-12.5 0.6,-3.3 1.2,-6.6 1.9,-9.8 0.2,-0.8 0.3,-2.5 1.8,-2 1.2,0.4 0.6,1.6 0.4,2.5 -1,6 -2,12.1 -3,18.1 -0.2,1.2 -0.4,2.5 -0.6,3.7 2,-2.1 2.9,-4.7 3.6,-7.2 0.8,-3 1,-6.2 1.6,-9.4 0.3,-1.6 0.6,-3.3 1,-4.9 0.2,-0.8 0.3,-1.9 1.5,-1.7 1.1,0.2 1.1,1.3 1,2.2 0,0.3 -0.1,0.6 -0.2,0.9 -0.7,2.9 -1.4,5.9 -2.1,8.8 -0.4,1.9 -0.8,3.7 -1.3,6.1 0.6,-0.7 0.8,-0.9 0.9,-1.1 1.5,-2.7 2.9,-5.4 4.4,-8.2 0.7,-1.3 1.1,-2.7 1.8,-3.9 0.3,-0.5 1.1,-1 1.7,-1 0.8,0 1.1,0.9 0.9,1.7 -0.2,1.1 -0.6,2.1 -0.9,3.2 -0.3,0.9 -0.7,1.8 -1,2.7 1.6,-1.1 2.9,-2.4 4.2,-3.6 0.6,-0.6 1.4,-1 2.1,-1.4 0,0.3 0,0.6 0,1 -1.4,2.1 -2.8,4.2 -4.3,6.2 -2.1,2.7 -4.4,5.2 -6.4,8 -2,2.9 -3.7,6 -5.4,9.2 3.4,-2.3 5.8,-6.1 10.2,-7 -1.1,1.6 -2.2,3.1 -3.3,4.7 -0.7,0.9 -1.6,1.8 -2.3,2.7 -1.7,2 -4,3.1 -6.2,4.4 -2.8,1.6 -5.8,2.9 -8.1,5.3 -0.2,0.3 -0.7,0.4 -1,0.5 -2.3,0.5 -4.3,1.6 -6.1,3 -2.3,1.7 -4.5,3.6 -7,5 -2.3,1.2 -4.9,1.8 -7.4,2.6 -2.2,0.7 -4.6,0.9 -6.5,2 -1.6,0.9 -3.1,2.1 -4.8,2.8 -5,2 -10,4 -15,5.9 -4.4,1.7 -8.3,4.4 -12.2,7 -5.4,3.6 -10.8,7.1 -16,10.9 -8,5.9 -15.2,12.6 -22.3,19.5 -4.3,4.2 -8.9,8.2 -13.3,12.3 -2.4,2.2 -4.7,4.6 -7,6.8 -1.3,1.2 -2.7,2.2 -4.1,3.3 -1.1,0.8 -1.8,1.9 -2.5,3.1 -1.2,2.2 -2.9,4.2 -4.3,6.3 -0.3,0.4 -0.9,0.8 -0.9,1.1 0.3,2.3 -1.6,3.1 -2.7,4.5 -1.4,1.7 -2.6,3.4 -4,5.1 -3.1,3.9 -5.7,8.2 -8.4,12.4 -1.1,1.7 -2.1,3.5 -2.4,5.6 1,0.7 1.5,0.4 2.1,-0.6 0.9,-1.6 0.9,-1.6 2.8,-1.1 0.7,-1.2 0.7,-1.2 1.8,-0.8 0.2,-1.6 0.5,-3.1 0.7,-5.1 0.6,0.5 0.9,0.8 1.2,1.1 0.5,-1.2 1.9,-2 1.8,-3.7 -0.1,-1.3 1.1,-1.4 2.5,-0.1 0.5,-0.4 1,-0.7 1.5,-1.1 0.1,-0.9 0.2,-1.7 0.3,-2.7 1.2,-0.3 2.3,-0.6 3.7,-1 -0.1,0.2 0,-0.1 0.1,-0.4 0.3,-0.3 0.6,-0.6 0.9,-0.9 0.3,0.3 0.8,0.6 0.8,1 0.2,1.4 0.2,2.9 0.5,4.3 1,-3.3 -0.3,-7 1.5,-10.3 1.3,0.5 1.1,1.4 1,2.2 -0.1,2.1 -0.3,4.3 -0.4,6.4 -0.1,1.6 0.4,3.1 1.1,5 0.7,-1.2 0.5,-2 0.4,-2.8 -0.1,-1.2 -0.3,-2.4 -0.4,-3.6 -0.1,-1.1 0.1,-2.1 0.7,-3.2 0.6,-1.3 0.7,-2.9 0.9,-4.4 0.1,-0.7 0,-1.5 0.9,-1.7 0.7,-0.2 1.1,0.3 1.4,0.9 0.2,0.4 0.9,0.6 1.3,0.9 1,-1.5 -0.2,-3.5 1.8,-4.4 1.6,1.6 -0.2,3.5 0.5,5.4 0.4,-0.3 0.9,-0.6 0.9,-0.9 0.2,-2.3 1.6,-4 3.1,-5.5 0.7,-0.7 1.8,-1.1 2.8,-1.6 2.2,2.6 0,4.7 -0.5,6.9 2.1,-1.3 2.1,-1.4 2.4,-3.4 0.2,-1.2 0.2,-2.4 0.6,-3.5 0.3,-1 1,-1.2 1.7,-0.2 0.5,-0.9 1,-1.7 1.6,-2.7 1.3,1.9 0,3.7 0.6,5.4 0.1,-0.9 0.3,-1.7 0.4,-2.6 0.1,-0.9 0.2,-1.9 0.4,-2.8 0.4,-1.5 0.9,-1.5 2.4,0 0.4,-0.6 0.7,-1.2 1.1,-1.8 0.2,0.1 0.4,0.2 0.5,0.3 0,0.9 0,1.9 0,2.8 1.6,-1.2 0.2,-4 2.7,-4.7 0.9,1.2 0,2.3 0,3.3 -0.1,1.1 -0.4,2.1 -0.6,3.3 1.1,-0.5 1.5,-1.3 1.9,-2.3 0.6,-1.6 1.2,-3.1 2,-4.6 1.1,-1.8 2.7,-3.1 4.8,-3.7 1.8,-0.5 1.9,-0.5 3.1,1.4 0.7,-0.8 1.3,-1.6 1.9,-2.3 1.5,-0.3 3,0.6 4.3,-0.4 0.5,-0.4 1,-0.7 1.5,-1.1 0.8,-0.6 1.6,-1.2 2.8,-0.5 0.4,0.3 1.2,-0.1 2.1,-0.2 -0.1,0.7 -0.1,1.3 -0.2,2 1.1,0 1.9,-2.1 3,-0.4 1.5,-0.9 2.8,-1.8 4.5,-2.9 -0.7,2.3 -1.2,4.2 -2,6.7 2.3,-2.2 4.2,-3.9 6.2,-5.7 0,0.4 0,0.9 0,1.6 0.5,-0.3 0.9,-0.5 1.3,-0.7 0.1,0.2 0.3,0.4 0.3,0.5 -0.5,1.3 -1,2.5 -1.5,3.7 -0.2,0.5 -0.4,1 -0.4,1.5 0,1.6 -0.5,2.8 -2,3.5 -1.3,0.7 -2.7,1.4 -4,2.1 -1.1,3.5 -2.2,7.1 -3.3,10.7 1.2,-1.3 1.8,-3 2.3,-4.7 0.4,-1.3 0.3,-2.8 1.7,-3.7 0.3,-0.2 0.2,-1.1 0.4,-1.5 0.1,-0.3 0.6,-0.5 1.3,-1 -0.1,1.7 -0.2,2.8 -0.4,4.3 1.3,-0.7 1.3,-1.9 1.7,-2.7 0.4,-0.8 0.7,-1.5 1.9,-0.9 -0.5,1.3 -1,2.5 -1.4,3.8 0.1,0.1 0.3,0.1 0.4,0.2 0.3,-0.4 0.5,-0.7 0.8,-1.1 0.8,-1.1 1.4,-1.1 2,0.1 0.2,0.3 0.3,0.7 0.4,1.1 1.1,-0.6 0.5,-3 2.8,-2.3 -0.3,1 -0.6,1.9 -1,3.1 0.8,-0.2 1.4,-0.4 2.1,-0.5 0.3,0.6 0.6,1.1 0.9,1.7 0.9,-0.1 0.4,-2.1 2.2,-1.4 0.1,0.6 0.2,1.3 0.2,2.2 0.9,-0.9 1.8,-1.7 3,-2.8 0.4,2.8 -0.2,5 -1.3,7.1 -1,1.9 -0.9,3.8 -0.3,5.8 0.4,-0.9 0.9,-1.8 1.3,-2.7 1.2,-2.8 2.3,-5.6 3.6,-8.4 0.3,-0.8 0.8,-1.4 2,-0.8 0.7,1.5 -0.5,2.8 -0.7,4.5 0.6,-0.2 1.1,-0.5 2,-0.8 -0.1,2.3 -1.8,3.5 -2.7,5 -1,1.6 -2.1,3.1 -3.2,4.8 0.7,0.1 1.2,0.2 1.9,0.3 2,-2.9 2.8,-6.5 5.5,-9.3 0.5,0.8 0.8,1.3 1.2,1.9 0.9,-0.5 1.8,-1 2.7,-1.5 0.1,0.2 0.3,0.3 0.4,0.5 -3.8,4.5 -7.6,9 -10.8,14.2 0.5,0.2 0.9,0.3 1.2,0.4 2.3,0.5 2.4,0.5 2.7,2.7 0.3,2.4 0.6,4.9 0.7,7.4 0.1,0.9 -0.3,1.9 -0.4,2.8 -0.1,0.4 -0.1,0.8 0.1,1.3 2.2,-4.4 1.7,-9 1.3,-13.5 1.1,-0.5 1.4,0.1 1.6,0.7 1.3,4.2 2.2,8.3 0.6,12.6 -0.4,1 -0.9,2 0.8,2.8 0.4,-3.2 0.6,-6.2 1.2,-9.2 0.6,-3.1 -1.1,-5.9 -1,-8.9 1.2,-0.4 1.4,0.2 1.6,1 0.6,2.5 1.3,4.9 1.9,7.4 0.1,0.3 0.2,0.5 0.5,0.7 0.3,-1.4 -0.4,-3 1.2,-4.5 0.3,1.4 0.6,2.5 0.9,3.7 0.3,1.6 0.6,3.1 0.8,4.7 0.2,1.7 0.3,3.4 0.4,5.1 0,0.4 -0.1,0.8 -0.3,1.2 -0.3,0.6 -1.1,1.4 -1,1.6 0.6,0.7 1.4,1.1 2.4,1.9 0.7,-3.7 2,-7 1.5,-10.6 -0.5,-3 -0.8,-6 -1.1,-9 -0.1,-0.9 0,-1.9 0,-3.3 2.3,1.6 1,4.1 2.2,5.6 0.7,-0.8 -0.8,-2.6 1.6,-2.8 0.1,2.7 0.3,5.3 0.4,7.8 0.1,2.6 0,5.2 0,7.9 1.1,-2.2 2,-4.4 2,-6.9 0,-1.8 0,-3.5 0,-5.3 0,-0.5 0.2,-1 0.3,-1.8 1.3,0.9 0.6,2.1 1.1,3.1 1.3,-0.8 1.1,-3 3.2,-3.6 -1.6,5.1 -3,9.8 -4.5,14.8 1.2,0.1 2,0.2 2.9,0.3 -0.7,2.1 -2.5,3 -4.1,4.8 1.4,-0.4 2.4,-0.6 3.8,-1 -3,3.1 -5.2,3.6 -8.6,2.2 -4.1,-1.7 -8.1,-3.5 -12,-5.8 -1.7,-1 -3.5,-1.9 -5.2,-2.9 -1.3,-0.7 -2.9,-1 -4.3,-1.2 -2.9,-0.2 -5.8,0 -8.7,0.8 -7,1.8 -14,3.5 -21.1,5 -4,0.9 -8.2,1.2 -12.3,1.9 -4.1,0.6 -8.1,1.4 -12.2,2 -3.7,0.5 -6.7,2.3 -9.9,4 -0.6,0.3 -1.2,0.9 -1.9,1 -2.2,0.4 -3.2,2.1 -3.8,3.9 -1.9,5.2 -4.5,10 -7.3,14.8 -1.3,2.2 -2.7,4.3 -4,6.5 -0.2,0.4 -0.4,0.7 -0.5,1.2 1.9,-0.9 3.7,-1.8 4.6,-4 0.6,-1.5 1.7,-2.9 2.3,-4.4 1.9,-4.4 3.8,-8.8 5.7,-13.1 0.4,-0.9 0.6,-2 2.3,-2.2 -2.9,8.4 -6.1,16.4 -10.3,23.9 2.6,-2.1 3.9,-5.1 5.5,-7.9 3.1,-5.2 6.1,-10.5 9.2,-15.7 0.5,-0.9 1.1,-1.8 2.5,-1.2 -1.8,3.6 -4.4,7 -4.3,11.8 0.8,-1.3 1.4,-2.3 1.9,-3.2 0.2,0.1 0.4,0.2 0.6,0.3 -0.8,1.9 -1.4,3.9 -2.4,5.8 -1.9,3.8 -4,7.6 -6,11.4 -0.8,0.3 -1.1,0.9 -1,1.8 0.4,-0.6 0.7,-1.1 1.1,-1.7 1.4,-0.9 2.3,-2.1 2.9,-3.6 0.4,-1.1 1,-2.1 1.6,-3.2 1.1,-2 2.2,-4 3.3,-6.1 1.5,-2.8 1.6,-6 2.3,-9 0.1,-0.4 0.1,-0.7 0.4,-1.1 1,2.7 0,5.3 0.1,8.1 1,-1.6 1.8,-3.3 2.9,-4.8 1.1,-1.4 2.4,-2.7 3.8,-3.9 0,1.9 -1.5,2.9 -2.4,4.3 -1,1.5 -1.2,3.2 -1.6,5 1.9,-2 3.2,-4.2 5.5,-5.6 -1,1.7 -2.1,3.4 -2.9,5.2 -0.8,1.8 -1.4,3.7 -2.2,5.5 0.1,0.1 0.3,0.1 0.4,0.2 1.4,-2.3 2.8,-4.6 4.3,-6.9 1.1,-1.7 2.2,-3.3 3.4,-4.9 0.3,-0.5 0.8,-0.8 1,-1.3 1.3,-3.2 4.2,-3.4 7,-3.5 -1.5,1.7 -4.2,1.8 -5.3,4.2 0.4,0.3 0.8,0.7 1.2,1 -0.3,1.3 -0.6,2.5 -0.9,3.8 0.1,0 0.2,0 0.3,0.1 0.5,-1.2 1,-2.4 1.5,-3.6 0.7,-1.8 1.7,-2.4 4.2,-2.7 -0.8,0.8 -1.4,1.5 -2.1,2.1 3.4,-1.1 5.8,-3.7 9.2,-4.6 -0.2,0.3 -0.4,0.5 -0.7,0.8 -2.4,2.2 -4.8,4.4 -7.1,6.8 -0.8,0.8 -1.2,2 -1.7,3.1 -2.7,5.9 -5.4,11.7 -7.9,17.8 0.3,-0.3 0.8,-0.5 1,-0.9 1.7,-2.9 3.3,-5.8 4.9,-8.8 1.2,-2.3 2.2,-4.6 3.4,-6.8 0.7,-1.3 1.7,-2.5 2.7,-3.6 2.2,-2.4 4.6,-4.7 6.9,-6.9 0.9,-0.9 2.1,-1.6 3.5,-2.6 0.1,1.5 -0.6,1.9 -1.2,2.5 -1.8,1.7 -3.6,3.5 -5.3,5.2 -0.2,0.2 -0.3,0.5 -0.2,1 1.1,-0.8 2.1,-1.5 3.2,-2.3 0.1,0.1 0.2,0.2 0.3,0.3 -0.1,0.3 -0.2,0.7 -0.5,1 -1.4,1.8 -2.8,3.6 -4.2,5.5 -0.2,0.2 -0.4,0.5 -0.4,0.8 -0.5,1.9 -0.9,3.8 -1.1,6 0.5,-0.4 1,-0.8 1.4,-1.3 2.1,-2.7 3.9,-5.6 5.1,-8.9 0.5,-1.3 1.5,-1.7 2.8,-1.6 1.1,1.6 -1.2,2.5 -0.8,4.1 0.5,-0.4 0.9,-0.8 1.5,-1.3 0.1,0.4 0.2,0.8 0.1,1 -0.8,1.4 -1.7,2.7 -2.5,4 -1.5,2.6 -3.1,5.2 -4.4,7.9 -0.7,1.3 -0.9,2.8 -1.3,4.2 0.1,0.1 0.3,0.1 0.4,0.2 0.6,-1.5 1.2,-2.9 1.7,-4.4 0.9,1.4 -0.2,2.3 -0.3,3.5 0,1.2 -0.4,2.4 -0.4,3.6 2.6,-3.8 2.7,-8.7 5.1,-12.6 1.9,-3 6.7,-9.8 8.1,-10.7 -0.5,1.3 -0.9,2.5 -1.3,3.7 -1.4,1.3 -2.3,2.8 -2.4,4.8 0.8,-1.6 1.7,-3.2 2.5,-4.7 0.4,-0.4 0.7,-0.8 1.1,-1.2 0.6,-0.8 1.4,-1.2 2.6,-1.1 -0.3,0.7 -0.4,1.3 -0.8,1.8 -1.1,1.4 -0.4,3.1 -0.6,4.6 -0.2,1.8 -1,3.1 -1.7,4.6 -1.2,2.4 -2.6,4.7 -2.8,7.7 1.7,-0.7 2.6,-2 3.2,-3.6 0.9,-2.5 2.5,-4.5 5.1,-6.4 -1,3.1 -3.5,5 -3.6,8.6 2.2,-2.6 3.9,-5.2 6.7,-6.3 2.7,-1 5.4,-1.6 8.7,-1.6 0.1,-0.1 0.5,-0.5 0.9,-0.8 0.2,-0.2 0.7,-0.5 0.8,-0.5 1.7,1.1 3.3,-0.2 5.6,-0.3 -1.5,1.1 -2.6,1.7 -3.5,2.6 -0.9,0.9 -1.7,1.9 -2.5,2.8 0.2,0.2 0.8,0.5 1.3,0.9 2.7,-1.5 3.8,-5 7,-5.9 0.2,0 0.4,0.2 0.6,0.2 -1.2,1.3 -2.1,2.8 -3.5,3.8 -2.2,1.5 -2,3.8 -2.2,5.9 -0.1,0.6 0.8,1.3 1.4,2.2 0.1,-1.7 0.2,-3 0.3,-4.3 0.1,-1.2 0.4,-2.1 1.8,-2.4 0.5,-0.1 1,-0.7 1.3,-1.2 0.4,-0.6 0.6,-1.3 1,-1.9 0.8,-1.1 1.3,-1 2.2,0.5 0.7,-0.4 1.6,-1.3 2.4,-0.3 0.5,0.7 0.8,1.6 1.3,2.8 1.7,-2.3 3.4,-4.6 5.2,-6.9 1.2,0.3 1.6,2.4 3.7,0.8 -0.3,1.3 -0.3,1.8 -0.6,2.2 -2.4,4 -4.8,7.9 -7.2,11.8 -0.3,0.5 -0.4,1.1 -0.5,1.7 2.1,-3.1 4.3,-6.1 6.5,-9.2 0.1,-0.1 0.6,0 1,0 0.3,2.6 -2.1,4 -2.6,6.1 2.3,-0.6 2.1,-3.8 4.6,-4.5 -0.1,2.5 -1.9,3.8 -2.8,5.5 1,1.5 2.4,-0.2 3.7,0.3 -0.6,2.3 -2.6,3.3 -3.9,5.1 2,1.5 3.4,-1.5 5.3,-0.5 -2.6,2.5 -5.2,4.8 -8.7,5.6 -1,0.2 -2.1,-0.2 -3.2,-0.3 -1.2,-0.1 -2.4,-0.5 -3.5,-0.3 -5.5,1 -10.9,2.2 -16.3,3.3 -2.6,0.5 -5.2,0.9 -7.7,1.4 -4.8,0.9 -9.5,1.8 -14.3,2.6 -1.3,0.2 -2.7,0.3 -4,0.3 -0.4,0 -1,-0.1 -1.3,-0.4 -1.3,-1.2 -2.9,-1.5 -4.5,-2.1 -1.3,-0.4 -2.5,-1.1 -3.7,-1.7 -2.7,-1.4 -5.3,-2.8 -8,-4.1 -0.9,-0.5 -1.9,-0.8 -2.9,-1 -3.4,-0.8 -6.8,-1.4 -10.4,-1.4 -2.5,0 -5,-0.8 -7.5,-1.2 -3.6,-0.6 -7.2,-1 -10.8,-1.8 -3.2,-0.7 -6.4,-0.9 -9.7,-1 -1.9,-0.1 -3.8,-0.6 -5.5,-1.4 -1.5,-0.7 -2.9,-0.7 -4.4,-0.4 -2.4,0.6 -4.7,0.2 -7.7,-0.4 -0.3,0.4 -0.7,1.1 -1.2,1.7 -1,1 -2.1,2 -3.1,2.9 -0.6,0.6 -1.1,1.1 -1.6,1.8 -2.4,3 -4.6,6.2 -7.3,8.8 -3.3,3.3 -5.9,7.1 -9.2,10.3 -1.3,1.2 -2.5,2.5 -3.7,3.8 -0.6,0.7 -1.5,1.3 -1,2.6 0.9,-0.9 1.9,-1.8 2.8,-2.8 0.8,-0.9 1.6,-1.8 2.5,-2.7 0.2,0.1 0.3,0.3 0.5,0.4 -1.3,1.7 -2.7,3.5 -4.1,5.3 0.6,0.2 0.9,0.3 1.3,0.5 -2.2,3 -4.3,5.8 -6.5,8.8 1.1,0.7 2.1,0.4 3.1,-0.1 1.5,-0.9 3.2,-1.6 4.5,-2.7 1.9,-1.5 4.1,-2.9 4.5,-5.8 0.2,-1.7 1.6,-2.9 2.9,-3.9 0.2,0.1 0.3,0.2 0.5,0.3 -0.9,2 -1.9,4.1 -3,6.5 2.4,-0.6 4.7,-0.3 6.2,-2.7 0.9,-1.5 2.2,-2.7 3.4,-4 0.5,-0.6 1.1,-0.9 1.8,0 -1.3,1.8 -3.2,3.3 -3.9,5.9 2.9,-1.4 4.6,-3.8 6.8,-5.4 0.6,-0.5 1.2,-1 1.9,-1.4 0.3,-0.2 0.8,0 1.5,0.4 -1.9,1.6 -3.9,3.1 -5.8,4.7 -1.9,1.6 -4.4,2.4 -5.4,5.1 2,-0.7 4,-1.4 6,-2.1 0.3,-0.1 0.5,-0.4 0.7,-0.7 2.7,-3.6 6.7,-5.1 10.4,-7.3 -1.4,2.3 -3.8,3.5 -5.9,5.7 2.3,-0.3 4.2,-0.6 6.1,-0.8 0,0.2 0.1,0.4 0.1,0.6 -1.9,1.7 -4.7,1.1 -6.9,2.1 -2.2,1.1 -4.5,1.9 -6.7,3.1 4.4,0.3 9,-1.2 13.2,1 0,0.2 0,0.4 0,0.6 -1.7,0.3 -3.3,0.9 -5,0.9 -1.7,0.1 -2.8,0.8 -4.1,2.1 1.7,0.5 3.4,1 5,1.4 0,0.2 0,0.3 0,0.5 -2.4,0 -4.9,0 -7.7,0 2.1,1.8 4.6,1.5 6.5,2.7 -2.3,0.4 -4.6,0.3 -6.7,-0.9 -0.7,-0.4 -1.5,-0.3 -2.2,-0.5 -3.6,-0.9 -6.9,0.4 -10.2,1.2 -0.5,0.1 -0.9,0.3 -1.9,0.7 1.5,0.5 2.5,0.8 3.9,1.3 -0.7,0.2 -1,0.3 -1.4,0.4 -0.8,0.1 -1.9,-0.4 -2.2,1 -0.1,0.3 -1.5,0.5 -2.2,0.2 -2.3,-0.8 -5,-0.9 -6.6,-3.3 0.3,0.8 0.6,1.5 0.9,2.4 -1.6,0 -2.4,-1.3 -3,-2.3 -1.6,-2.8 -3.5,-5.1 -6.9,-5.7 -2.6,2.1 -2.8,5.7 -5.2,8.3 2.7,1.1 5.1,2.2 7.3,3.1 1,-0.5 1.7,-0.9 2.7,-1.5 0.3,2.2 0.6,4.1 0.8,5.4 -2,1.8 -3.6,3.2 -5.1,4.7 -0.7,0.6 -1.1,1.6 -0.3,2.3 0.4,0.3 1.5,0.2 2.2,-0.1 2,-1 3.9,-2.2 5.8,-3.3 0.6,-0.3 1.3,-0.5 2,-0.8 0.3,1.5 0.6,2.7 0.8,3.9 0.2,1.1 -0.3,2 -1.2,2.7 -0.7,0.4 -1.3,0.8 -2,1.2 0.9,0.9 1.7,1.7 2.6,2.7 1.6,-0.7 3.4,-1.8 4.3,0.4 2,0 3.6,0 5.3,0 0.9,0 1.7,-0.1 2.6,-0.3 5.8,-1.4 11.7,-1.4 17.6,-0.8 2.5,0.3 5.1,0.3 7.6,0.5 0.4,0 0.8,0.4 1,1 -2.7,-0.1 -5.5,-0.3 -8.2,-0.3 -3.5,0 -7,0 -10.5,0 -4,0 -7.8,1.5 -11.6,2.5 -0.5,0.1 -1.1,0.2 -1.3,0.5 -0.7,1.7 -2.1,2.4 -3.9,2.6 0,0.2 0.1,0.3 0.1,0.5 0.4,0 0.9,0.3 1.3,0.1 2.1,-1 4.2,-0.8 6.3,-0.3 1.7,0.5 3.4,1.4 5,2.1 2,0.9 4.1,1.7 6.1,2.6 1.4,0.6 2.9,1.1 3.9,2.1 1.2,1 2.3,1.5 3.8,1.4 0.7,-0.1 1.4,0.1 2.4,0.2 -1.2,1.4 -2.6,2 -3.7,1.7 -1.9,-0.5 -3.8,-0.3 -5.7,-0.5 -1.1,-0.1 -2.2,-0.4 -3.3,-0.6 -1.2,-0.2 -2.5,-0.4 -3.8,-0.4 -1.7,-0.1 -3.3,0 -5,0 0.2,1.5 0.2,2.8 0.6,4 0.3,1 1,2.1 1.8,2.7 0.8,0.6 1.2,1.6 2.6,1.7 1.8,0.1 3.5,1 5.2,1.6 0.3,0.1 0.4,0.8 0.7,1.5 -0.8,0 -1.3,0.1 -1.7,0 -2.7,-0.8 -5.4,-1.8 -8.2,-2.6 -0.4,-0.1 -0.9,0.1 -1.3,0.2 0.1,0.4 0.1,1 0.3,1.3 1.1,0.9 2.3,1.6 3.5,2.3 0.7,0.7 -0.7,1.6 0.2,2.5 1.2,1.1 2.1,2.5 4,2.8 1.4,0.2 2.9,0.4 3.5,2.1 0.1,0.3 0.8,0.5 1.2,0.6 0.5,0.2 1,0.4 1.4,0.8 -2.5,1 -4.2,-1.3 -6.7,-1.7 0.2,0.5 0.3,0.8 0.5,1.1 0.6,0.9 1,1.7 1,2.8 0.1,1.1 0.6,2.1 1.1,3.1 2.3,4.7 5.5,8.8 9.1,12.5 2.2,2.2 3.6,4.8 4.1,7.9 -0.8,0.4 -1.6,0.6 -1.8,-0.3 -1.1,-4.7 -4.9,-7.5 -7.7,-11.1 -1.3,-1.7 -2.5,-3.5 -3.7,-5.3 -0.4,-0.7 -0.8,-1.4 -1.3,-2 -1.4,-1.6 -2.5,-3.2 -2.8,-5.4 0,-0.4 -0.5,-0.7 -1,-1.4 0.2,1.8 0.4,2.9 0.6,4.1 0.1,0.4 0.1,0.8 0.3,1.1 1,1.7 2.1,3.4 3.2,5 0.5,0.7 1.2,1.3 1.7,2 0.2,0.3 0.2,0.9 0.4,1.6 -2.4,-0.5 -3,-2.5 -4.7,-4.1 0.2,1.2 0.5,1.9 0.5,2.5 0.1,0.8 0,1.6 0,2.4 3.2,3.3 5.8,7.1 8.2,11 -0.1,0.1 -0.3,0.3 -0.4,0.4 -1.3,-0.9 -2.6,-1.9 -3.9,-2.8 -0.8,0.3 -1.6,0.6 -2.4,0.9 0.8,1.4 1.4,2.9 2.3,4.2 0.7,1.1 1.6,2 2.3,3 1.1,1.7 2,3.4 3,5.1 0,0.1 0,0.2 0,0.2 1,3.5 1,3.5 -2.6,4.8 2.8,1.1 5.5,2.1 8.2,3.1 0,1.1 0,2.1 0,3 -0.1,2.2 -1.5,3.1 -3.6,2.4 -0.9,-0.3 -1.8,-0.5 -2.7,-0.9 -0.8,-0.3 -1.6,-0.7 -2.7,-1.2 0.5,1.8 0.9,3.3 1.3,4.8 0.3,1.2 0.4,2.5 0.9,3.6 0.6,1.7 1.8,3.1 3.3,3.9 0.9,0.5 1.4,1 0.9,2.2 -1.8,0.7 -2.8,-1.5 -4.3,-1.5 0,0.8 -0.1,1.6 -0.2,2.8 1.8,1.1 3.9,-1 6.1,-0.3 -1.2,1.8 -3.4,0.8 -5,2.2 -0.1,1.1 -0.1,2.4 -0.2,3.8 -0.1,0 -0.3,0.1 -0.4,0.1 -0.3,-0.7 -0.7,-1.3 -0.8,-2 -0.1,-1.9 -1.2,-3 -3,-3.7 -0.3,0.3 -0.6,0.7 -1.1,1.2 -1.2,-2.2 -2.8,-1.2 -4.4,-0.7 0.2,1.8 3.1,2.2 2.1,4.5 0.7,0.2 1.2,0.4 1.9,0.6 -1.4,1.9 -1.5,2 -1.5,3.1 0.6,0.1 1.1,0.2 1.8,0.3 0,1.9 -1.3,2.7 -2.7,3.6 1.2,1 2.3,2 3.7,3.1 -1.2,0.9 -2,1.5 -3.1,2.4 -0.1,0.5 -0.2,1.3 -0.4,2.4 0.7,0.1 1.4,0.2 2.2,0.3 0,0.2 0.2,0.6 0.1,0.8 -0.6,0.9 -1.3,1.7 -2,2.6 2.1,1.8 2.5,1.7 6.4,-2.2 0.9,1.1 -0.4,2.1 0,3.3 0.4,0.1 0.9,0.3 1.4,0.4 0,1.3 -1.3,2.3 -1.1,3.8 0.1,0.6 -0.8,1.4 -1.4,2.3 0.4,0.7 1,1.8 1.7,3 1.1,0.6 3,0 3.5,2.3 -1,-0.3 -1.8,-0.5 -2.8,-0.8 -2.2,1.8 -4.4,3.6 -6.6,5.4 0.1,1.4 0.9,1.7 1.9,2.1 2.8,1 2.8,1.1 3.5,4.1 2.2,-0.8 2.2,1.6 3.4,2.4 1,-1.8 -1,-3.3 -0.6,-5.6 0.8,1.6 1.4,2.7 2.1,3.9 0.1,0 0.1,0 0.2,-0.1 -0.2,-0.9 -0.4,-1.9 -0.6,-2.9 1.4,0 1.6,1 1.8,1.8 0.6,2.4 1.1,4.8 1.6,7.2 0.4,1.7 0.9,3.2 2.5,4.3 1.5,1 2.3,2.8 2.7,4.6 0.6,2.3 1.1,4.6 1.6,7.1 1.6,-0.4 3.3,-0.7 4.7,-1.3 0.8,-0.3 1.4,-1.3 2,-2 1.8,-1.9 3.5,-4 5.3,-5.8 1.9,-1.9 3.5,-4.1 4.7,-6.6 0.3,-0.7 0.3,-1.8 1.8,-1.7 -1,4.1 -1.6,8.2 -4.6,11.4 0.6,0.5 1.4,0.7 1.6,1.2 0.3,0.6 0.2,1.4 0.1,2.1 -0.4,2.3 -1,4.7 -1.4,7 -0.2,0.9 -0.3,1.7 -0.3,2.6 0,2.6 -0.5,5 -1.3,7.4 -0.6,1.8 -0.4,3.8 -1,5.6 -0.7,2 -0.4,3.9 0.1,5.8 0,0.1 0.2,0.3 0.3,0.5 2,-4 2.7,-8.3 3.2,-12.6 0.2,0 0.3,0 0.5,0 0.1,0.3 0.3,0.6 0.3,0.9 -0.8,3.7 -1.5,7.5 -2.3,11.2 -0.1,0.6 -0.5,1.1 -0.9,1.7 -0.7,1.3 -1,2.6 -0.7,4.4 2,-2.3 3.4,-4.6 4,-7.2 0.7,-2.9 1.2,-5.9 1.9,-8.9 0.3,-1.3 0.2,-2.7 1.7,-3.8 0.1,0.7 0.3,1.1 0.2,1.5 -0.7,3.7 -1.3,7.4 -2.1,11 -0.7,3.1 -2,5.9 -4.3,8.2 -0.4,0.4 -0.6,0.9 -0.9,1.3 0.7,0.7 1.2,0.6 1.7,0 1.1,-1.5 2.4,-3 3.4,-4.6 1.2,-1.9 2.3,-3.8 3.2,-5.9 0.8,-1.7 1.3,-3.6 1.8,-5.4 0.4,-1.3 0.6,-2.6 1.6,-3.6 0.6,1.4 -0.2,6.1 -1.7,9.1 -1.4,2.9 -3,5.6 -4.6,8.6 1.4,-0.9 2.9,-2.5 3.9,-4.7 1.5,-3.1 2.8,-6.2 4.2,-9.3 0.4,-0.9 0.6,-2 2,-2.5 -1.1,8.8 -6.4,15.2 -11.3,21.8 0.1,0.1 0.3,0.2 0.4,0.3 0.3,-0.3 0.6,-0.5 0.9,-0.8 4.5,-4.9 8,-10.5 11.4,-16.1 0.4,-0.8 0.9,-1.5 1.5,-2.2 0.2,-0.3 0.8,-0.4 1.5,-0.2 -0.3,0.7 -0.5,1.4 -0.8,2 -2.6,4.3 -5.3,8.5 -8,12.8 1.3,-0.5 3.5,-2.5 4.5,-4.1 1.1,-1.7 2.3,-3.2 3.3,-4.9 1,-1.7 2.7,-1.6 4.5,-2.2 0.1,2.1 -1.5,3.1 -2.2,4.4 -0.8,1.4 -1.8,2.6 -2.8,3.9 -1,1.3 -2,2.6 -3.2,4 0.9,-0.1 1.7,-0.2 2.6,-0.3 -0.2,0.9 -0.3,1.5 -0.5,2.2 0.8,-0.1 1.7,-0.2 2.9,-0.3 -1.1,4 -4.3,6.3 -5.8,9.7 0.2,0.2 0.5,0.5 1,0.9 -0.8,1.3 -1.7,2.6 -2.6,4 0.7,0.2 1.2,0.3 2,0.5 -0.3,0.5 -0.4,1 -0.7,1.3 -0.6,0.7 -1.5,1.3 -1.9,2.2 -1.1,2.4 -2.9,2.7 -5.2,2.7 -32.2,-0.1 -64.3,0 -96.5,-0.1 -0.9,0 -2.1,0 -2.7,-0.5 -1.1,-0.9 -2,-2.2 -2.9,-3.5 -0.2,-0.3 0.1,-0.9 0.3,-1.3 0.6,-1.2 1.2,-2.4 1.9,-3.8 -0.8,-1 -1.6,-1.9 -2.4,-2.9 -0.3,-0.5 -0.5,-1.1 -0.6,-1.7 -0.1,-1.4 -0.1,-2.7 0,-4.1 0,-1.3 -0.5,-2.1 -1.6,-2.6 -2.3,-1.1 -2.5,-1.7 -1.9,-4.1 0.2,-0.8 0.4,-1.7 0.6,-2.2 -1,-1.5 -2.1,-2.7 -2.6,-4.2 -0.5,-1.5 -0.6,-3.2 1.2,-4.2 -0.7,-1.3 -1.4,-2.5 -2.1,-3.7 -0.2,-0.3 -0.2,-0.8 -0.3,-1.1 -0.2,-1.3 -0.2,-2.7 -0.5,-4 -0.4,-1.5 -0.9,-3 -1.5,-4.4 -0.3,-0.6 -0.9,-1 -1.4,-1.7 1.2,-1.4 1.4,-2.8 0.5,-4.6 -0.5,-0.9 -0.2,-2.2 -0.3,-3.3 -1.3,-0.9 -2.6,-1.8 -3.9,-2.7 -0.7,-0.5 -1.6,-0.9 -1.2,-1.8 0.2,-0.6 1.1,-1 1.6,-1.5 0.2,-0.2 0.5,-0.3 0.9,-0.5 -2,-1 -3.7,-1.9 -5.5,-2.9 0,-0.1 -0.2,-0.5 -0.2,-0.8 0.3,-3 -0.9,-4.9 -3.9,-5.6 -0.8,-0.2 -1,-0.7 -0.8,-1.5 1.4,-0.7 2.8,-1.3 4.2,-2 0.5,-4.7 -0.8,-6.3 -5.5,-6.7 -0.7,-1.6 0.7,-2 1.6,-2.6 0.9,-0.6 1.9,-1 3.4,-1.8 -1.7,-0.7 -2.8,-1.2 -4.1,-1.7 0.9,-2.7 -1.3,-3.5 -3,-4.6 -1,-0.6 -2,-1.1 -1.3,-2.7 0.8,-0.1 1.6,-0.2 2.7,-0.4 -1.5,-2.7 1.4,-2.4 2.4,-3.5 -0.2,-0.5 -0.3,-1 -0.5,-1.6 -0.2,0 -0.4,0.1 -0.6,0.1 -0.5,0.1 -1.2,0.4 -1.5,0.2 -0.6,-0.5 -0.3,-1.1 0.1,-1.6 0.2,-0.2 0.4,-0.5 0.7,-1 -0.7,-0.8 -1.5,-1.7 -2.4,-2.8 -1,2.7 0.2,5.1 0.1,7.9 -1.5,-2.1 -1.9,-4 -1.7,-6 0.3,-2.6 0.4,-5.3 0.9,-7.8 0.7,-2.8 -0.1,-4.8 -2.7,-6.5 0,2.3 -0.1,4.4 -0.1,6.5 0,2 0,4 -0.2,6 -1.8,-5.4 -0.6,-11 -1.3,-16.7 -0.7,-0.2 -1.4,-0.2 -2.3,0.3 -1.8,1 -4.8,-1 -4.9,-3 -0.1,-1.6 1.3,-1.6 2.6,-2.1 -1.2,-0.7 -2.1,-1.2 -3.4,-1.9 0.9,-0.5 1.5,-0.9 2.3,-1.4 -0.1,-1.6 -0.3,-3.2 -0.4,-5.4 0.3,-0.2 0.9,-0.6 1.6,-1.1 -0.9,-1.5 -1.9,-2.8 -2.4,-4.2 -0.5,-1.6 -0.3,-3.4 -0.9,-5 -0.1,-0.1 0.7,-0.5 0.9,-0.8 0.2,-0.3 0.3,-0.7 0.2,-1.2 -1.8,0.9 -3.4,2.1 -4.2,3.7 -0.6,1.2 -0.2,3 -0.1,4.4 0.2,1.9 0.6,3.8 0.8,5.7 0.1,0.7 0,1.4 0,2.1 -0.2,0 -0.3,0 -0.5,0.1 -0.3,-2.1 -0.6,-4.2 -1,-6.2 -0.2,-1 -0.3,-2.1 -0.6,-3 -0.2,-0.6 -0.7,-1.1 -1.1,-1.7 0.2,-0.5 0.5,-1.3 0.8,-2 -0.2,-0.1 -0.4,-0.2 -0.5,-0.3 -1.4,2.5 -2.9,4.9 -4.3,7.4 -0.1,0 -0.2,0 -0.4,-0.1 -0.1,-2.2 -0.2,-4.3 -0.3,-6.5 0,-0.6 0,-1.3 -0.1,-1.9 -0.7,-3.2 0.3,-5.9 2,-8.5 0.7,-1 1.4,-1.9 2.2,-3.1 -0.4,-0.3 -0.6,-0.6 -1,-0.9 -0.6,0.9 -1.2,1.7 -1.7,2.5 -0.2,-0.1 -0.3,-0.1 -0.5,-0.2 0,-1.2 0.2,-2.4 -0.1,-3.5 -0.3,-1.1 -1.1,-2 -1.7,-3.2 -1.6,1.1 -1.2,3.9 -3.7,5.1 0.2,-0.8 0.3,-1.2 0.5,-1.5 0.7,-1.5 1.5,-3 2.3,-4.5 0.1,-0.2 0.3,-0.5 0.2,-0.7 -0.8,-1.7 0.3,-2.6 1.4,-3.6 1.2,-1.1 1.4,-2.8 1.4,-4.6 -0.7,0 -1.4,0.1 -2.1,0.1 0.1,-1.9 0.2,-3.6 0.3,-5.5 0.3,0.1 0.7,0.3 1.2,0.4 0,-0.4 0,-0.7 0.1,-1.1 -0.3,-0.1 -0.6,-0.2 -0.8,-0.1 -2.4,0.9 -4.1,2.4 -5,4.8 -0.8,2.2 -1.7,4.3 -2.5,6.5 -0.2,0.6 -0.6,1.1 -1,1.8 -0.4,-2.5 2.1,-9.4 4.7,-13 -7.4,-1.5 -14.9,-0.2 -22.3,-1.4 0.5,-1.2 1.4,-0.9 2.1,-0.9 4.1,0.5 8.3,0.3 12.4,0 2.6,-0.2 5.2,0.2 7.8,0.6 3.3,0.5 5.1,-0.4 5.8,-3.7 0.4,-1.9 1.3,-3.4 2.2,-4.9 2.4,-3.9 1.7,-8 -2.3,-10.2 -2.1,-1.1 -4,-2.7 -5.9,-4.3 2,-0.1 3.3,1.5 5.3,1.8 -0.6,-0.5 -1.2,-1 -1.8,-1.5 -2,-1.6 -4,-3.2 -5.9,-4.8 -0.6,-0.5 -1,-1.3 -1.1,-2.3 3.2,2.5 6.4,5.1 9.6,7.5 1.3,-0.3 2.5,-0.5 3.7,-0.7 0.2,-1.5 0.3,-3 0.5,-4.5 0.6,-0.2 1.2,-0.5 1.9,-0.8 -0.5,-0.7 -1,-1.3 -1.3,-2 -1,-1.9 -1.7,-3.8 -0.7,-5.9 0.5,-1 0.6,-2.1 0,-3.2 -0.2,-0.3 0,-0.7 0,-1.3 1.6,0.2 3.1,0.1 4.3,1.3 0.5,0.5 1.6,0.6 2.6,0.9 0.1,-0.8 0.3,-1.4 0.2,-2 -0.6,-3.1 -0.6,-6.4 -3.1,-9 -3.3,-3.5 -6.4,-7.1 -9.4,-10.9 -5.3,-6.5 -10.4,-13.2 -15.6,-19.7 -4.8,-6.1 -9.5,-12.4 -14.6,-18.4 -2.4,-2.8 -5.4,-5.1 -8.3,-7.6 -3.7,-3.2 -7.5,-6.4 -11.3,-9.6 -2.4,-2 -5,-3.7 -7.2,-5.9 -5,-4.9 -11.2,-8.4 -16.2,-13.3 -3.2,-3.1 -6.7,-6.1 -10.7,-8.4 -3.6,-2.1 -6.8,-4.9 -10.3,-7.4 -0.9,-0.6 -2,-1.1 -2.9,-1.7 -1.7,-1.1 -3.4,-2.3 -5.1,-3.5 -1.6,-1.2 -3.4,-1.6 -5.4,-1.1 -0.7,0.2 -1.5,0 -2.3,0 -4,-0.4 -7.8,0.7 -11.7,1.6 -0.6,0.1 -1.2,0.3 -2.1,0.6 -1.5,-2 -3,-4 -4.5,-6 -0.3,-0.4 -0.5,-1 -0.5,-1.6 0,-1.3 -0.5,-2.2 -1.5,-3.1 -0.7,-0.6 -1.3,-1.3 -0.5,-2.3 0.2,-0.2 0.1,-0.6 0.1,-0.9 -0.2,-2 -0.5,-3.9 -0.7,-6 -1.3,-0.8 -2.8,-1.8 -4.4,-2.4 -0.8,-0.3 -2,-0.3 -2.8,0 -5.2,1.8 -10.5,1.4 -15.8,0.9 -2.3,-0.2 -4.6,0.1 -6.9,0.2 -1,0 -1.9,0.2 -2.9,0.1 -2,-0.1 -4.1,0.2 -5.9,-0.5 -2.9,-1.1 -5.6,-2.8 -6.8,-6 -0.4,-1 -0.9,-1.9 -1.2,-2.8 -0.2,-0.5 -0.3,-1.1 -0.3,-1.6 0.1,-1.2 0.7,-2.3 -0.6,-3.3 -0.1,-0.1 0.1,-0.7 0.1,-1.1 1.4,0.3 1.7,-1.9 2.9,-1.3 1.3,0.5 1.9,1.8 2.1,3.2 0.4,2.6 0.4,2.6 3.2,4.5 -0.1,-0.8 0,-1.4 -0.2,-1.9 -1.4,-2.6 -2.1,-5.7 -4.6,-7.7 -0.4,-0.3 -0.3,-1.2 -0.6,-2.2 -3.4,-1 -7.1,-2.2 -10.8,-3.1 -4.5,-1.2 -9.1,-2.2 -13.6,-3.1 -6.6,-1.4 -13.2,-1.7 -19.9,-0.9 -1.9,0.2 -3.8,0.3 -5.7,0.5 -3.6,0.3 -7.3,0.5 -10.9,1.1 -3.8,0.6 -7.5,1.3 -11.2,2.3 -3.3,0.9 -6.4,2.3 -9.6,3.4 -2.2,0.8 -4.5,1.6 -6.7,2.4 -2.4,0.9 -4.7,2 -7,3 -3.2,1.3 -6.4,2.4 -9.6,3.6 -3.5,1.4 -7.3,2.1 -11,2.9 -0.6,0.1 -1.5,0.2 -2,-0.1 -1.1,-0.6 -1.9,-0.4 -2.9,0.1 -4.4,2.5 -8.8,2 -13.2,-0.2 -1.5,-0.8 -3.3,-1.2 -4.4,-2.7 -0.4,-0.6 -0.8,-1.3 -1.3,-2.1 2.9,-0.5 3.7,2.9 6.4,2.5 -0.7,-0.9 -1.2,-2 -2,-2.6 -2.3,-1.5 -3.5,-3.8 -4.9,-5.5 -0.1,-1.3 -0.1,-2.2 -0.3,-3 -0.2,-0.8 -0.7,-1.5 -1.1,-2.3 1.3,-0.8 1.8,-0.1 2.4,0.6 1.6,1.9 3,4 4.3,6.2 0.8,1.3 1.7,2.8 3.4,3.2 0.1,-0.2 0.2,-0.4 0.2,-0.4 -1.3,-2.1 -2.5,-4.3 -4.1,-6.2 -1.6,-1.9 -3,-4.1 -4.4,-6.1 -0.1,-0.2 -0.2,-0.5 -0.2,-0.7 0.1,-0.6 0.1,-1.7 0.5,-1.8 0.9,-0.4 1,0.6 1.3,1.2 1,1.9 2.1,3.7 3.2,5.5 0.4,0.6 1,0.9 1.8,1.7 0.2,-2.4 0.2,-4.4 -1.3,-6 -1,-1.1 -2.1,-2.1 -3.2,-3.3 -0.6,-0.7 -1.2,-1.5 -1.6,-2.3 -0.2,-0.3 0.1,-0.8 0.2,-1.2 0.4,0.1 1,0.1 1.2,0.4 1.9,2.8 5.3,4.4 6.6,7.7 0.1,0.2 0.3,0.3 0.5,0.5 0.2,-1.9 -0.1,-2.9 -2,-4.7 -1.4,-1.3 -2.6,-2.8 -3.2,-4.7 -0.1,-0.4 -0.1,-0.9 -0.2,-1.6 1.6,0.8 2.4,2 3.3,3.1 0.3,0.4 0.5,0.8 0.8,1.2 0.7,0.9 1.3,0.7 2,-0.2 -0.9,-2.4 -2.3,-4.7 -3,-7.3 1,-0.6 1.6,-0.3 2,0.4 0.5,0.9 0.9,1.9 1.3,2.8 0.7,1.3 1.2,2.7 2,4 0.7,1.3 1.3,1.3 2.4,0.3 0.4,-0.3 0.7,-0.7 1,-1 -0.8,-3 -3.1,-5.4 -3.5,-8.5 1.1,-0.8 1.6,-0.3 1.9,0.5 0.8,1.9 1.7,3.8 2.5,5.7 0.3,0.6 0.5,1.1 1,1.9 0.7,-1.3 0.7,-2.2 0.3,-3.3 -0.9,-2.1 -1.7,-4.3 -2.5,-6.5 -0.2,-0.4 -0.1,-0.9 -0.2,-1.3 1.1,-0.6 1.5,-0.1 1.9,0.8 1,2.3 2.1,4.6 3.2,6.9 0.8,1.6 1.7,2.2 3.2,2.5 0.1,-2.4 -1.3,-4.2 -2.3,-6.1 -0.7,-1.3 -1.5,-2.5 -2.2,-3.7 -0.2,-0.3 -0.6,-0.7 -0.6,-1 0,-0.5 0.3,-1 0.4,-1.4 0.4,0.2 1,0.3 1.2,0.6 1.7,3.1 3.3,6.3 5,9.5 0.2,0.4 0.6,0.7 1.2,1.3 0.3,-2.1 -0.3,-3.6 -1,-5 -1.1,-2.2 -2.4,-4.3 -3.7,-6.4 -0.2,-0.3 -0.6,-0.6 -0.7,-1 0,-0.6 0.2,-1.1 0.3,-1.7 0.4,0.2 1.1,0.4 1.3,0.7 1.8,3.5 4.4,6.6 5.4,10.6 0.3,1.1 1.3,2 2,2.9 -0.8,-5.7 -3.8,-10.3 -6.8,-15 0.8,-1 1.6,-1.1 2.2,-0.2 2,3.3 5,6.1 5.5,10.2 0,0.2 0,0.4 0.1,0.5 2.2,1.7 2.4,4.6 3.9,6.8 0.3,0.5 0.8,0.8 1.6,0.9 0,-0.4 0,-0.7 -0.1,-1.1 -1.3,-4.8 -2.7,-9.5 -5.3,-13.8 -1.1,-1.8 -2.4,-3.6 -3.5,-5.4 -0.3,-0.5 -0.9,-1.2 0.1,-2.2 0.7,1.1 1.3,2.1 2,3.1 2.8,3.4 4.5,7.5 6.5,11.3 0.8,1.5 1.3,3.1 2,4.6 0.1,0.2 0.3,0.4 0.6,0.7 0.8,-0.9 0.3,-1.5 0,-2.1 -0.5,-1.3 -1,-2.5 -1.4,-3.8 -1.5,-3.9 -3.3,-7.8 -5.6,-11.3 -0.8,-1.2 -1.4,-2.4 -0.8,-4 0.4,0.5 0.8,1 1.3,1.5 2.3,2.6 4.3,5.5 5.6,8.8 0.7,1.8 1.8,3.4 2.7,5.1 0.2,0 0.3,-0.1 0.5,-0.1 -0.1,-0.7 0,-1.5 -0.2,-2.1 -0.6,-2.1 -1.3,-4.2 -1.9,-6.3 -0.5,-1.9 -1.8,-3.3 -2.9,-4.9 -0.9,-1.2 -1.7,-2.6 -2.7,-4.1 3.3,-0.3 4.1,-0.3 4.8,-0.3 -0.1,1.8 1,3.6 3,4.9 -0.2,-2.2 -1.8,-3.4 -3,-4.9 z m 454.9,118 c 1.5,-0.9 1.7,-1.3 1.4,-3.1 -0.4,1 -0.9,2.1 -1.4,3.1 -0.2,0.8 -0.4,1.7 -0.7,2.9 1.3,-1.1 1.1,-2 0.7,-2.9 z M 128.1,106.2 c -0.1,-0.8 -0.1,-1.7 -0.3,-2.5 -0.2,-0.8 0.4,-2 -1.2,-2.2 -0.1,1.8 0.3,3.4 1.5,4.7 0,0.4 -0.2,0.9 -0.1,1.3 0.9,3.1 1.9,6.2 2.9,9.4 0.4,-1.7 -0.3,-3.1 -0.8,-4.5 -0.7,-2.1 -1.3,-4.1 -2,-6.2 z m 11,47.1 c -0.1,-0.9 -0.2,-1.8 -0.3,-2.7 -0.2,0 -0.4,0.1 -0.5,0.1 0.2,0.9 0.5,1.7 0.8,2.6 0.6,2.8 0.6,5.9 3.2,7.8 -0.6,-2.8 -1.5,-5.4 -3.2,-7.8 z m 183,42.6 c -0.3,0.4 -0.6,0.7 -0.8,1.1 -0.7,2.2 -1.4,4.4 -2.1,6.6 -0.3,1.1 -0.7,2.2 -1,3.3 0.7,-0.4 1.3,-0.8 1.4,-1.4 0.9,-3.2 1.7,-6.5 2.5,-9.6 1.2,-1.5 1.6,-3.1 1,-5 -0.3,1.6 -0.6,3.3 -1,5 z m 14.2,18 c 0.1,-0.6 0.5,-1.3 -0.5,-1.6 -1.6,1.4 -2.9,5 -2.2,7.3 0.7,-2.1 1.2,-3.7 1.8,-5.3 0.2,-0.4 0.2,-1.1 0.9,-0.4 0.2,0.9 0.3,1.9 0.4,3 0.3,0.1 0.7,0.3 1.2,0.5 -0.3,1 -0.5,1.9 -0.7,2.7 1.1,0.6 2.2,1.2 3.3,1.8 0.7,-0.5 1.1,-1.1 0.5,-2 -1.3,-2 -2.6,-3.9 -4,-5.9 -0.1,-0.2 -0.5,-0.1 -0.7,-0.1 z M 96.5,139.7 c -0.1,-1 -0.7,-1.5 -1.7,-1.6 0.5,0.5 1.1,1.1 1.7,1.6 2.2,4 3.8,8.3 4.9,12.8 0.3,1.1 0.9,2 2.3,2.4 -0.5,-1.5 -1,-2.9 -1.5,-4.3 -0.6,-1.8 -0.9,-3.7 -1.7,-5.4 -1,-2.1 -2.1,-4.1 -4,-5.5 z m 119.1,2.3 c 0.9,-1 0.7,-1.8 -0.4,-2.6 0.1,0.9 0.3,1.7 0.4,2.6 1.1,1 1.1,2.4 1,3.7 -0.1,2.2 -0.2,4.3 -0.3,6.5 -0.1,1.2 0.4,2.2 1.3,2.8 1.6,-0.3 1.8,-1.4 1.6,-2.6 -0.5,-3 -1.2,-5.9 -1.8,-8.9 -0.2,-0.9 -0.9,-1.4 -1.8,-1.5 z m 231.5,23.4 c 0.1,-0.9 0.2,-1.9 0.2,-2.8 -0.2,0 -0.3,0 -0.5,0 0.2,1 0.2,1.9 0.3,2.8 0.6,4.5 2.5,8.7 2.4,13.4 -0.1,3.6 1.8,7.1 3.2,10.5 -0.1,-2.1 -0.3,-4.2 -0.7,-6.2 -0.6,-2.9 -1.3,-5.7 -2,-8.6 -0.6,-2.5 -1.2,-5.1 -1.8,-7.6 -0.3,-0.5 -0.8,-1 -1.1,-1.5 z m -151,113.2 c 1.4,3.2 2.5,6.5 4.1,9.6 1.1,2.1 2.2,4.2 2.6,6.6 0.3,2.2 1.5,3.9 3,5.6 -0.1,-1.3 -0.2,-2.7 -0.3,-4 1,0.8 1.7,1.8 2.2,2.8 0.8,1.4 1.2,3 2.3,4.2 1.1,1.2 1.7,2.4 1.8,4 0,0.7 0.3,1.4 0.4,2.1 0.4,-0.2 0.8,-0.4 1.4,-0.7 0.4,1.6 0.7,3 1.1,4.6 0.5,0.1 1.1,0.2 1.6,0.2 0.9,1.4 0.9,3.4 3,3.8 0.2,0 0.2,0.4 0.4,0.5 1,1.3 1.8,2.8 3,3.9 1.1,1.1 2.6,1.8 4.4,1.8 -1.6,-1.6 -2.8,-3.4 -3.5,-5.6 -0.4,-1.2 -1.3,-2.1 -2.1,-3.2 -2.3,-3 -4,-6.3 -5.7,-9.7 -0.7,-1.4 -1.4,-2.8 -2.2,-4.2 -0.7,-1.2 -1.6,-2.2 -2.2,-3.4 -2.4,-5 -5.6,-9.4 -9.3,-13.6 -0.6,-0.7 -1.4,-1.4 -1.8,-2.1 -1,-1.4 -2.3,-2.5 -4.2,-3.2 z m 244,-72.7 c -0.2,3.5 -0.4,6.6 -0.6,9.8 0,0.2 0.1,0.4 0.2,0.6 0.4,-0.6 0.7,-1.2 1,-1.7 0.1,0 0.2,0.1 0.3,0.1 0,1.3 0,2.5 0,4 1.2,-2.3 1,-4.9 2.6,-7.3 0.4,3.4 -0.2,6.5 2.2,9 0.2,-3.1 0.4,-6.1 1.3,-9 0.2,0 0.4,0 0.5,0 0,3 0,6 0,9.1 1.5,0.2 2.7,0.4 4,0.5 0.6,-2.3 -0.2,-4.2 -0.4,-6.1 -0.2,-1.9 0,-3.9 0,-5.7 -3.8,-0.5 -7.2,-2.7 -11.1,-3.3 z m -77,49.7 c 0.6,0.7 1.1,1.2 1.8,0.6 0.5,-0.4 1,-1.2 1.4,-1.2 1.1,0.1 1.2,-0.6 1.5,-1.2 0.3,-0.6 0.6,-1.3 0.8,-2 1.2,-3.5 3.1,-6.9 2.7,-11 -3.2,1.2 -5.8,3.8 -9.5,3.6 0,1.6 0.1,3.2 0,4.7 -0.1,1.6 0.7,3 0.5,4.4 -0.2,1.4 -0.4,2.8 -0.3,4.2 0.2,0 0.3,0.1 0.5,0.1 0.1,-0.5 0.3,-1.2 0.6,-2.2 z M 152.4,150.2 c -0.1,0.1 -0.3,0.2 -0.4,0.4 0.2,0.4 0.3,0.9 0.5,1.3 1.2,2.2 2.5,4.3 3.5,6.5 2.2,4.6 3.2,9.5 4.4,14.3 0.6,2.4 1.1,4.8 1.8,7.2 0.2,0.9 0.4,2 2,1.5 0.4,-2.8 -1,-5.2 -1.5,-7.8 -0.4,-1.7 -0.8,-3.4 -1.3,-5 -0.9,-3.3 -1.9,-6.6 -2.9,-9.8 -0.3,-1 -0.8,-1.9 -1,-2.9 -0.8,-2.9 -2.7,-4.5 -5.1,-5.7 z m 166,23.9 c -0.2,0 -0.4,0 -0.6,-0.1 -0.1,0.2 -0.3,0.4 -0.3,0.5 -0.5,5.1 -2.9,9.7 -4,14.7 -0.1,0.3 -0.2,0.6 -0.3,0.9 -0.3,0.8 -0.6,1.6 -1.6,1.9 -1.1,0.4 -1.3,1.4 -1.5,2.5 -0.5,3.3 -1.2,6.5 -1.8,9.8 -0.1,0.3 0,0.7 0.1,1 0.5,-0.5 0.7,-1.1 0.9,-1.7 0.3,-0.6 0.5,-1.4 0.9,-1.6 1.2,-0.6 1.5,-1.6 1.8,-2.6 0.3,-1.2 0.8,-2.4 1.1,-3.6 0.7,-2.5 1.3,-4.9 2.8,-7.1 0.5,-0.7 0.7,-1.8 0.9,-2.7 0.4,-2.6 0.7,-5.2 1.4,-7.8 0.1,-1.2 0.1,-2.7 0.2,-4.1 z m 153.7,60 c 0.1,0.1 0.1,0.2 0.2,0.3 -0.7,0.7 -1.5,1.4 -2.3,2.2 2.2,0.1 3.1,-0.3 3.6,-1.9 0.8,-2.5 1.4,-5.1 2,-7.6 0.3,-1.2 0.4,-2.5 0.6,-4.3 -3.3,1.6 -5.5,3.8 -7.8,5.6 0.3,2.2 0.5,4.2 0.8,6.3 1.1,-0.2 2,-0.4 2.9,-0.6 z m -21.4,-88.7 c -1.4,4.1 -0.3,8.2 0.3,12.2 0.8,5.1 1.8,10.2 2.6,15.3 0.7,4.4 1.7,8.8 3.7,13.2 0.3,-2.2 0.2,-4 -0.3,-5.9 -1,-3.9 -1.8,-7.9 -2.7,-11.9 -1,-4.3 -2,-8.7 -2.9,-13 -0.1,-0.6 -0.3,-1.2 -0.3,-1.9 -0.1,-2.7 -0.2,-5.4 -0.4,-8 z m -89.9,4.8 c 1.7,0 1.9,-1 2.2,-1.7 2.9,-5.4 4.9,-11.2 6.3,-17.2 0.5,-2 0.5,-4.1 -0.2,-6.5 -0.7,2.3 -1.2,4.2 -1.9,6.1 -1.9,5.3 -3.8,10.6 -5.7,16 -0.2,1 -0.4,2.1 -0.7,3.3 z m 40.4,83.7 c -1.6,0.9 -1.5,2.2 -1.2,3.3 0.6,2.1 1.1,4.3 2,6.4 1.6,3.7 3.4,7.3 5.2,11 0.3,0.6 0.8,1 1.4,1.7 0.2,-0.6 0.5,-0.8 0.4,-1 -2.6,-7.1 -5.2,-14.2 -7.8,-21.4 z M 101.2,95 c -0.2,0.1 -0.4,0.2 -0.7,0.3 0.1,0.5 0.1,1.1 0.3,1.6 0.8,2.3 1.5,4.7 2.4,7 1.9,4.7 3.8,9.3 5.8,13.9 0.5,1.2 1.3,2.4 2.6,3 -0.6,-2.3 -1.2,-4.5 -2.1,-6.6 -0.9,-2.2 -1.9,-4.4 -2.8,-6.6 -0.9,-2.1 -1.7,-4.3 -2.6,-6.4 -0.8,-2.1 -1.9,-4.1 -2.9,-6.2 z m -3.5,58.1 c 0.3,1 0.3,1.8 0.7,2.5 1.8,2.9 2.6,6.1 3.9,9.2 1.6,4.2 3.6,8.3 5.5,12.4 0.3,0.6 0.6,1.4 1.9,1.1 -0.4,-0.8 -0.7,-1.6 -1,-2.3 -0.3,-0.6 -0.7,-1.2 -0.9,-1.9 -2.1,-5.9 -4.2,-11.8 -6.3,-17.8 -0.7,-1.5 -1.4,-2.9 -3.8,-3.2 z m 141.9,6.8 c 0,0.5 0,0.8 0,1.1 0.6,4.9 0.9,9.8 0.6,14.8 -0.1,1 0,1.9 0,2.9 0,0.7 0.3,1.2 1.2,1.2 1.4,-5.2 1.8,-10.4 1,-15.6 -0.4,-1.7 -0.8,-3.5 -2.8,-4.4 z M 76.1,90.6 c -0.6,3.1 5.2,18.7 7.6,20.7 0.5,-3.1 -4.2,-15.9 -7.6,-20.7 z m 31.4,5.6 c -0.2,0.5 -0.4,0.6 -0.4,0.7 1.3,6.1 2.9,12 5.1,17.9 0.8,2 1.5,4 3.5,5.8 -0.1,-1.1 0.1,-1.8 -0.2,-2.4 -2.9,-7.1 -4.5,-14.7 -8,-22 z m 202.4,149 c 0.7,-1.9 1.3,-3.5 2.1,-5.6 1,2.5 -0.2,4.1 -0.9,5.6 -0.7,1.4 -0.4,2.3 0.6,3.7 1.2,-2.6 2.2,-4.8 3.1,-7 0.1,-0.3 0.2,-0.9 0,-1.1 -1.1,-1 -0.4,-2 -0.1,-2.9 -0.8,-0.7 -1.5,-1.4 -2.3,-2 -1,1.9 -1.9,3.8 -3,5.5 -0.9,1.7 -1,1.7 0.5,3.8 z M 197.4,124.4 c 0.2,0.6 0.2,1 0.4,1.3 1.3,2.6 2.1,5.3 2.5,8.2 0.4,2.4 0.8,4.7 1.1,7.1 0.2,1.1 0.4,2 1.8,2 1.6,-5.5 -1.7,-14.7 -5.8,-18.6 z m 336.3,79.5 c 0,2.4 -0.1,4.5 0.1,6.5 0.1,0.9 0.7,1.8 1.1,2.7 -1.1,1 -0.7,2.3 -0.5,3.6 0.3,-0.2 0.7,-0.3 0.7,-0.4 0.5,-3.3 0.9,-6.6 1.4,-10.2 1.2,1.9 0.5,4 1.3,5.8 0.4,-2.1 0.7,-4.2 1.1,-6.5 -1.8,-0.4 -3.5,-0.9 -5.2,-1.5 z M 207.6,147.3 c 1.2,-6.5 -0.7,-14.8 -4.6,-19.5 0.2,1 0.7,2 1,3 0.4,1 0.8,2.1 1,3.2 0.3,1.6 0.3,3.3 0.5,4.9 0.2,2.1 0.3,4.3 0.6,6.4 0.1,0.9 -0.2,2.2 1.5,2 z m -89,-44 c -0.6,3.9 3.5,16 6.2,18.7 -1,-6.7 -3.2,-12.5 -6.2,-18.7 z m 48.3,57.6 c 2.3,1.8 4.4,3.4 6.6,5.1 1,-1.6 1.3,-1.7 2.4,-0.8 1,0.8 1.9,1.7 2.8,2.6 0.4,-0.4 0.8,-0.7 1.2,-1 -0.5,-0.5 -0.9,-1 -1.3,-1.5 -0.5,-0.5 -0.9,-1.1 -1.4,-1.6 -0.9,-0.9 -1.8,-1.8 -3.3,-1.1 -0.7,0.4 -1.2,-0.2 -1.7,-0.8 -1.2,-1.7 -3.1,-1.9 -5.3,-0.9 z m 353,52.5 c 0.7,-0.6 1.1,-0.7 1.2,-1 1,-2.7 2.1,-5.3 3,-8 0.2,-0.6 0.3,-1.1 0.9,-1.1 0.9,0 1,0.6 1,1.3 0,0.5 -0.1,1 -0.2,1.4 -0.3,1.1 -0.8,2.1 -1.1,3.2 -0.1,0.4 0.2,1 0.3,1.5 0.1,0 0.3,0 0.4,-0.1 0.4,-0.9 0.8,-1.9 1.2,-2.8 0.1,0 0.2,0.1 0.4,0.1 0,0.5 0.1,1 0.1,1.5 0.5,-1.8 1,-3.4 1.5,-5.1 0.2,0 0.3,0.1 0.5,0.1 0,0.5 0.1,1.1 0.1,1.6 0.1,0 0.2,0.1 0.4,0.1 0.4,-0.8 0.7,-1.6 1.1,-2.6 -2.3,-1 -4.5,-1.4 -6.7,-0.9 -1.3,3.6 -2.6,6.9 -4.1,10.8 z M 252.4,75.9 c -0.1,0.2 -0.2,0.4 -0.2,0.5 1,6.1 0.5,12.2 0,18.3 -0.1,0.7 -0.3,1.5 0.5,2.3 0.2,-0.5 0.3,-0.7 0.3,-1 0.5,-3.9 1.1,-7.9 1.4,-11.8 0.1,-2.3 -0.3,-4.6 -0.5,-6.9 -0.1,-0.9 -0.4,-1.6 -1.5,-1.4 z m 32.4,34.9 c -0.2,3.4 -0.4,6.8 -0.7,10.2 -0.3,3.5 -0.8,7 -1.4,10.4 -0.5,3.3 -1.2,6.6 -1.8,10 0.9,-1.8 1.5,-3.7 1.9,-5.6 0.6,-3.1 1,-6.3 1.6,-9.4 1,-5.2 1.6,-10.3 0.4,-15.6 z m 35,313.9 c 1.2,-2.4 3.8,-4.2 2.9,-7.5 -0.4,-1.4 -0.3,-2.9 -0.4,-4.5 -3.8,3.5 -3.4,7.7 -2.5,12 z M 143.1,179.3 c 0.1,-0.4 0.2,-0.7 0.2,-1.1 -0.5,-2.9 -0.7,-5.9 -1.7,-8.6 -0.7,-1.9 -1.1,-3.7 -1.3,-5.7 -0.2,-2.1 -1.4,-3.2 -3.6,-4.2 1.8,2.5 2.1,4.9 2.5,7.3 0.8,4.2 2.2,8.3 3.9,12.3 z M 352.9,88 c 0.2,0 0.4,0 0.6,0 2.1,-5.1 4.1,-10.3 2.2,-16.3 -0.4,0.5 -0.8,0.7 -0.8,0.9 -0.7,5.1 -1.3,10.3 -2,15.4 z m 110.7,474.8 c 1.3,0.7 1.3,0.8 2.1,-0.2 3,-3.4 5.9,-6.9 8.8,-10.3 0.5,-0.6 0.9,-1.3 1.3,-2 0.4,-0.6 0.8,-1.1 1.2,-1.7 -4.7,4.5 -9.7,8.6 -13.4,14.2 z M 393,328.2 c 3.4,0.3 6.5,-1.2 7.8,-3.5 -1.4,-0.3 -2.8,-0.5 -4.2,-0.9 -1.8,-0.6 -3.2,0 -4.5,1.3 0.3,1 0.6,2 0.9,3.1 z M 106.4,84.6 c 1.2,4.8 4.5,8.5 6.5,13 1.4,-3.7 -2.4,-11.1 -6.5,-13 z M 572.8,75 c -4.6,3.4 -4.1,8.1 -3.7,12.8 0.9,0.3 1.4,0.1 1.5,-0.8 0.7,-3.9 1.5,-7.8 2.2,-12 z m -55.5,137.9 c 1.8,-3.1 3.1,-6.2 4,-9.8 -0.8,0 -1.5,0 -2.1,0 -2.2,3 -3.9,6 -1.9,9.8 z M 121.9,99.3 c 0.3,1 0.5,1.9 0.7,2.7 0.6,1.8 1.5,3.6 2,5.5 0.5,1.9 1.1,3.8 1.1,5.8 0,2.5 0.9,4.7 1.7,6.9 0.2,0.4 0.7,0.7 1.3,1.3 0,-2.3 -0.7,-4.1 -1.4,-5.9 -0.4,-1 -0.8,-1.9 -0.9,-2.9 -0.3,-4.1 -1.4,-7.9 -2.7,-11.7 -0.3,-0.6 -0.4,-1.5 -1.8,-1.7 z m -7.9,5.5 c 0.4,4.9 2.1,9.2 5.1,13.1 -0.7,-4.7 -1.7,-9.4 -5.1,-13.1 z m 216.7,94.1 c -2.6,5.3 -4,10.7 -5,16.1 3,-4.8 5.4,-9.8 5,-16.1 z M 134.7,181 c -1.4,-5.8 -2.9,-11.6 -4.3,-17.5 -0.7,0.1 -1.2,0.2 -1.9,0.3 1.5,6.1 3.5,11.8 6.2,17.2 z M 68.3,161.8 c 0.3,-3.9 -4.9,-14.4 -9.1,-18.5 0.2,0.7 0.6,1.4 1,2 1.9,2.9 3.9,5.8 4.7,9.3 0.4,1.8 1.2,3.4 2,5.1 0.2,0.6 0.7,1.2 1.4,2.1 z m 8.9,19.5 c 0.2,-0.1 0.3,-0.2 0.5,-0.3 -0.8,-1.2 -1.6,-2.4 -2.3,-3.7 -0.7,-1.3 -1.5,-2.6 -2.1,-4 -0.7,-1.4 -1.1,-3 -1.9,-4.4 -0.7,-1.3 -0.7,-3 -2.1,-3.9 0,4.7 4.7,14.3 7.9,16.3 z M 72.7,95.5 c -0.5,2.9 3.8,12.9 6,14.2 -1.9,-6.5 -3,-10.7 -6,-14.2 z m 435.8,157.8 c -2.1,3.8 -4.4,7.5 -6.3,11.4 -1.7,3.5 -1.6,3.6 -1.2,5.7 2.5,-2.4 5.5,-11.4 7.5,-17.1 z m -23.4,18.5 c 4.2,-3.1 9.2,-10.6 9.5,-14.5 -1,1.1 -2,1.8 -2.6,2.7 -2.1,3.3 -4,6.7 -5.9,10 -0.3,0.5 -0.5,1 -1,1.8 z m -8.4,-32.7 c -3.2,0.2 -3.9,0.7 -4.2,3.1 -0.3,2.7 -0.6,5.3 -1,8.5 2.2,-3.9 3.9,-7.6 5.2,-11.6 z M 65.8,142.8 c 0.6,1.4 1.2,2.8 1.8,4.2 0.4,0.9 1,1.7 1.3,2.5 1.3,3.3 2.4,6.7 3.7,10 0.1,0.4 0.4,0.8 0.6,1.4 1,-3.2 -3.9,-14.7 -7.4,-18.1 z m 44.5,-3.8 c -0.2,2 0.8,3.1 1.6,4.2 1.8,2.4 2.9,5 3.4,8 0.2,1.4 0.5,1.5 2.5,1.1 -1.3,-3.2 -2.5,-6.3 -3.9,-9.4 -0.8,-1.5 -2.1,-2.6 -3.6,-3.9 z m 14.6,20.9 c -0.2,0.1 -0.5,0.1 -0.7,0.2 0.1,0.5 0.1,1 0.4,1.5 1.3,2.3 2,4.8 2.6,7.4 0.5,2.2 1.2,4.5 2,6.6 0.7,1.8 1.6,3.5 2.4,5.2 -1.9,-7.1 -3.5,-14.3 -6.7,-20.9 z m 324.7,30.3 c 0.2,-0.1 0.5,-0.1 0.7,-0.2 -1.3,-6.4 -2.7,-12.8 -4,-19.5 -0.3,0.4 -0.4,0.6 -0.4,0.7 -0.1,2.9 -0.1,5.9 1.3,8.6 0.3,0.5 0.3,1.2 0.4,1.8 0.4,2.2 0.8,4.4 1.2,6.5 0.2,0.7 0.6,1.4 0.8,2.1 z M 225.3,146.1 c 0.7,2.8 1.6,5.6 1.9,8.5 0.4,2.9 0.3,5.9 0.4,9.4 2.5,-4.2 0.8,-15 -2.3,-17.9 z m 69,-19.7 c -0.2,0 -0.4,0.1 -0.6,0.1 0.2,5.9 -0.8,11.6 -2.3,17.3 0.4,-0.4 0.7,-0.9 0.9,-1.3 0.7,-2 1.2,-4.1 2,-6.1 1,-2.6 1.1,-5.3 0.9,-8 -0.1,-0.7 -0.6,-1.3 -0.9,-2 z m 85.9,83.2 c 1.2,-1.9 1.2,-2.5 -0.8,-4.3 -1,2.4 -2,4.7 -3,7.1 -0.5,1.3 -1.1,2.5 -1.6,3.8 0.2,0.1 0.4,0.2 0.5,0.3 1.3,-1.9 1.3,-4.8 4.1,-5.6 0.6,1.8 0.6,1.8 2.4,1.3 -0.6,-0.9 -1.1,-1.7 -1.6,-2.6 z M 93.3,139.4 c 1.6,3 2.4,6.2 3.2,9.4 0.4,1.6 1.5,2.4 3.3,2.7 -1.4,-4.7 -3.4,-8.7 -6.5,-12.1 z m 285.8,59.8 c -0.4,0.3 -0.7,0.4 -0.8,0.7 -2.1,4.5 -4.3,9 -6.4,13.6 -0.1,0.2 0,0.4 0.1,0.6 0.2,-0.1 0.4,-0.1 0.5,-0.2 2.3,-4 4.5,-8 6.8,-12 0.4,-0.9 0.7,-1.7 -0.2,-2.7 z M 152.5,166.1 c -0.5,-4.1 -1.6,-7.9 -3,-11.6 -0.3,-0.7 -1.2,-1.3 -2,-2.2 0.7,2.8 1.2,5.1 1.9,7.4 0.6,2.4 1.5,4.6 3.1,6.4 z M 210.7,136 c -0.2,0.1 -0.4,0.2 -0.6,0.2 0.5,1.7 1.1,3.4 1.5,5.1 0.4,1.7 0.7,3.4 1.1,5.1 0.4,1.7 -0.1,3.5 1.1,5 0.2,-1.4 0,-2.8 0.3,-4.1 0.7,-2.6 -0.4,-4.8 -1.3,-7.1 -0.5,-1.4 -1.3,-2.8 -2.1,-4.2 z m -88.9,24.3 c -0.1,0.1 -0.3,0.3 -0.4,0.4 0.5,1.1 1.1,2.1 1.4,3.2 0.8,2.4 1.4,4.8 2.1,7.3 0.5,1.7 1,3.5 1.6,5.2 0.4,1.4 0.9,2.7 1.5,4 0.1,0.3 0.7,0.5 1.2,0.7 -0.8,-2.5 -1.5,-4.6 -2.2,-6.8 -0.1,-0.3 -0.2,-0.6 -0.3,-0.9 -1,-3.3 -2,-6.6 -3,-9.9 -0.3,-0.9 -0.6,-1.8 -1,-2.7 -0.2,-0.2 -0.6,-0.3 -0.9,-0.5 z M 135,121.6 c 0.2,0 0.4,-0.1 0.6,-0.1 -0.1,-0.5 -0.2,-1.1 -0.3,-1.6 -0.3,-1 -0.5,-2 -0.9,-2.9 -0.8,-2.2 -0.5,-4.4 -0.4,-6.6 0.1,-2.5 -1.6,-6 -3.6,-7.4 0.1,0.8 0,1.7 0.4,2.2 1.7,2.7 2.4,5.6 2.3,8.7 0,2.6 0.8,5.2 1.9,7.7 z m -38.9,43.5 c -0.2,0.1 -0.5,0.2 -0.7,0.2 0.2,0.8 0.3,1.7 0.6,2.5 0.4,1.1 0.9,2.2 1.4,3.3 1,2.2 2,4.3 3,6.5 0.4,0.9 1,1.3 2.3,0.5 -3.4,-3.7 -4,-8.9 -6.6,-13 z m 457.2,45 c -0.2,0 -0.5,0.1 -0.7,0.1 0,2.3 0,4.5 0,6.8 0,1.2 0,2.4 0.1,3.6 0,0.3 0.4,0.7 0.7,0.8 0.3,0 0.8,-0.3 0.9,-0.5 0.3,-0.7 0.5,-1.4 0.4,-2.1 -0.4,-2.9 -0.9,-5.8 -1.4,-8.7 z M 595.6,80.6 c 2.1,-3.4 4.7,-16.7 4.1,-20.3 -1.3,6.7 -2.7,13.3 -4.1,20.3 z M 32.3,113.1 c 0.3,-2 -3.9,-11.4 -6.4,-14.6 1.3,5.3 3.4,10 6.4,14.6 z m 157.5,17.6 c 1.5,-2.9 0.1,-9.1 -2.8,-11.6 1.3,3.9 1,7.9 2.8,11.6 z m 125.6,119.4 c -3,1.8 -2.2,4.9 -3,7.4 -0.1,0.3 0.5,0.9 0.9,1.5 1.8,-2.9 3.3,-5.5 2.1,-8.9 z M 517,203.3 c -1.9,0.5 -3.4,0.8 -4.8,1.2 -0.4,1.3 -0.7,2.4 -1.1,3.5 0.2,-0.2 0.5,-0.4 0.7,-0.6 0.6,0.5 1.2,1 1.8,1.5 0.7,-1.1 1.9,-3.1 3.4,-5.6 z M 438.7,167 c -0.2,0 -0.3,0 -0.5,0 0.2,5.5 0.5,11 2.5,16.3 0.2,0 0.3,-0.1 0.5,-0.1 -0.8,-5.3 -1.7,-10.8 -2.5,-16.2 z m -349.3,2 c -0.2,3.4 1.5,5.9 3.3,8.5 0.5,0.8 1.1,1.4 2.4,0.8 -2.1,-3 -3.4,-6.4 -5.7,-9.3 z m 359.5,344.5 c 0.1,-0.9 0.2,-1.3 0.2,-1.6 -0.3,-1.8 -0.6,-3.6 -1,-5.4 -0.4,-1.8 -1,-3.4 -2.6,-4.7 0.1,3.9 1.5,8.9 3.4,11.7 z M 434.5,188.4 c -0.3,-4.3 -1.2,-8.5 -2,-12.9 -1.6,4.8 -0.3,9 2,12.9 z m -185.4,-16 c 0,2.3 -0.1,4.2 0,6.1 0.1,1.9 -0.9,3.8 -0.1,6.2 0.6,-0.5 1.1,-0.8 1.2,-1.2 0.2,-1.2 0.3,-2.5 0.3,-3.8 0,-1.2 -0.3,-2.4 -0.2,-3.5 0.3,-1.5 -0.4,-2.5 -1.2,-3.8 z m 82.6,34 c -0.5,0.5 -0.7,0.7 -0.8,0.9 -1.6,3.2 -3.3,6.3 -4.9,9.5 -0.3,0.6 -0.5,1.2 -0.6,1.8 0,0.3 0.2,0.6 0.4,0.9 0.2,0 0.3,0 0.5,0.1 1.3,-4.5 5,-7.9 5.4,-13.2 z m 102.6,149.3 c 0.1,-0.2 0.2,-0.4 0.3,-0.5 -1,-0.5 -1.9,-1 -2.9,-1.3 -1.1,-0.4 -2.4,-0.5 -3.3,-1.1 -1.7,-1 -3.2,-0.8 -5,-0.1 1,1.1 2,1.6 3.3,1.8 2,0.3 4,0.7 6,1.1 0.6,0 1.1,0 1.6,0.1 z m -6,46.8 c -0.1,4.4 4,9.4 6.6,10 -2.1,-3.2 -4.2,-6.4 -6.6,-10 z M 154.8,119.2 c 0.4,-4.1 -0.7,-7.6 -3.1,-8.8 0.7,3 1.4,5.8 2.1,8.5 0.1,0.1 0.6,0.1 1,0.3 z m 165.7,139.4 c -1,1.8 -1.9,3.6 -2.8,5.3 -0.7,1.1 -0.8,2.2 -0.1,3.5 1.2,-1.9 2.3,-3.8 3.5,-5.7 0.7,-1.1 0.5,-2.1 -0.6,-3.1 z m 173.6,-2.8 c 1.7,-0.5 2.7,-1 3.3,-2.4 0.9,-2.1 2,-4.2 3,-6.2 0.2,-0.4 0.2,-0.9 0.3,-1.3 -2.7,2.9 -4.7,6.2 -6.6,9.9 z M 472.9,138.2 c -0.2,0 -0.5,0 -0.7,-0.1 0.8,4.4 -0.4,9 0.7,13.9 0.4,-0.8 0.8,-1.2 0.8,-1.6 -0.2,-4 -0.5,-8.1 -0.8,-12.2 z m 6,84.9 c -0.9,2.9 -1.2,9.7 -0.7,11.1 0.9,0 1.4,-0.5 1.4,-1.5 -0.2,-3 -0.4,-6.1 -0.7,-9.6 z m -226.4,-48 c -0.7,3 -0.6,9.7 0.2,11.2 1.1,-4.5 1.1,-8.6 -0.2,-11.2 z M 225.3,64.2 c 0.9,-4.1 0.6,-8 -1.1,-11.8 -0.2,0 -0.4,0 -0.5,0.1 0.5,3.9 1.1,7.8 1.6,11.7 z m -93.1,99.7 c 0.9,5 2.4,9.8 4.3,14.4 0.2,-0.4 0.1,-0.8 0.1,-1.1 -0.8,-3.5 -1.8,-6.9 -2.5,-10.4 -0.3,-1.1 -0.8,-2.1 -1.9,-2.9 z m 437.7,66.5 c 2,-4.7 2.4,-8.3 1.4,-12.7 -0.3,2.6 -0.4,4.6 -0.7,6.6 -0.3,2.1 -1.4,4 -0.7,6.1 z M 119.6,88.8 c 0.2,-0.1 0.3,-0.1 0.5,-0.2 -0.2,-0.7 -0.3,-1.5 -0.6,-2.1 -1.1,-2.8 -2.3,-5.6 -3.6,-8.3 -0.3,-0.7 -0.9,-1.2 -1.4,-1.8 -0.2,0.1 -0.3,0.2 -0.5,0.3 1.9,4.1 3.7,8.1 5.6,12.1 z m 4.4,55.6 c 1,3.3 0.9,6.9 3.5,9.6 -0.5,-3.5 -1.3,-6.8 -3.5,-9.6 z m 254.3,170 c 1,-0.2 2.2,-0.4 3.6,-0.7 -1.3,-1.3 -2.3,-2.4 -3.4,-3.6 -0.8,0.7 -1.5,1.4 -2.1,1.9 0.7,0.8 1.3,1.5 1.9,2.4 z m -66.2,-93 c 2.8,-2.5 4,-5.8 4.4,-9.4 -1.5,3.2 -3.7,6 -4.4,9.4 z M 173.4,109.2 c -0.2,0 -0.4,0.1 -0.6,0.1 -0.5,2.8 2,5 2,7.8 0,1.1 0.6,2.2 0.9,3.3 0.6,-0.5 0.9,-0.9 0.8,-1.3 -1,-3.4 -2.1,-6.7 -3.1,-9.9 z m 150.7,138.9 c 1.7,-3.9 3.6,-7.1 4.5,-10.8 -1.9,2.8 -3.5,5.8 -5,8.8 -0.1,0.3 0.3,0.9 0.5,2 z m 132.1,8.6 c 1.7,-1.6 0.9,-3.6 1.1,-5.6 -1.4,1.5 -2.6,3 -3.7,4.6 -0.2,0.3 0,0.9 0,1.8 0.8,-1.3 1.3,-2.2 1.9,-3.1 0.1,0 0.3,0.1 0.4,0.1 0.1,0.7 0.2,1.5 0.3,2.2 z M 303.8,147.9 c -0.2,0 -0.4,-0.1 -0.6,-0.1 -0.2,1.3 -0.4,2.7 -0.7,4 -0.3,1.3 -0.7,2.6 -1.1,3.9 -0.6,1.9 -0.7,2.9 -0.1,4.4 0.3,-4.6 3,-8.1 2.5,-12.2 z m 160.1,409.9 c 0.2,0.2 0.3,0.3 0.5,0.5 3.2,-3.1 6.3,-6.2 9.5,-9.3 -0.2,-0.2 -0.3,-0.3 -0.5,-0.5 -3.4,2.8 -6.7,5.8 -9.5,9.3 z M 304.5,227 c -1.8,2.7 -1.4,5.9 -2.5,8.8 2.2,-2.4 3,-5.1 2.5,-8.8 z m 69.8,-42.1 c -2.3,1.9 -2.8,4.3 -3.3,7 1.9,-1.8 3.8,-4.8 3.9,-6.1 0,-0.3 -0.3,-0.5 -0.6,-0.9 z m -56.8,32.7 c -1.5,2.2 -3,4.3 -4.5,6.4 0.2,0.5 0.5,1 0.7,1.4 0,0 0.1,0 0.2,-0.1 2.7,-3.4 2.7,-3.4 3.6,-7.7 z M 142.7,153.7 c -0.9,2.9 1.8,4.7 1.5,7.2 0,0.3 0.4,0.7 0.7,1.2 0.9,-1.9 -0.1,-5.4 -2.2,-8.4 z m -49.2,0.9 c 0.1,2.8 1.3,4.6 2.8,6.5 1,-2.5 0.2,-4.3 -2.8,-6.5 z m 18.1,9.6 c 0.2,-0.1 0.4,-0.1 0.5,-0.2 0.6,-4 -0.1,-5.7 -2.8,-6.4 0.8,2.3 1.5,4.5 2.3,6.6 z m 373.1,59.3 c 0.8,-2.1 0.5,-4.2 0.4,-6.8 -0.8,0.6 -1.6,0.9 -1.8,1.4 -0.3,0.6 -0.3,1.8 0,2 1.2,1 0.8,2.3 1.4,3.4 z M 313.4,166.2 c -0.2,-0.1 -0.4,-0.1 -0.6,-0.2 -0.2,0.4 -0.5,0.8 -0.6,1.2 -0.4,2.3 -0.7,4.7 -1.9,6.8 -0.3,0.6 -0.5,1.5 -0.1,2.7 1.4,-3.6 3.1,-6.8 3.2,-10.5 z m -138.3,0.7 c 1.3,2.7 2.3,5.1 3.5,7.5 0.1,0.2 0.8,0.2 1.4,0.3 -1,-3.1 -2.2,-5.7 -4.9,-7.8 z M 102,109.4 c -0.1,0.2 -0.2,0.4 -0.3,0.5 1.4,2.8 2.7,5.7 4.2,8.8 0.3,-0.5 0.4,-0.7 0.4,-0.8 -1,-2.7 -2,-5.3 -3.1,-7.9 -0.1,-0.3 -0.8,-0.4 -1.2,-0.6 z m -17.4,50.8 c 0.8,-2.8 -1.8,-3.8 -2.9,-6.1 -0.1,3.9 1,5.9 2.9,6.1 z m 256.8,146 c -0.3,-0.9 -0.7,-1.8 -1.1,-3 -1.1,1.3 -2,2.4 -3,3.5 0.3,0.5 0.7,1 1.1,1.6 1,-0.7 1.9,-1.3 3,-2.1 z m -8,2.7 c 0.4,-0.9 0.8,-1.3 0.7,-1.6 -0.8,-1.6 -1.7,-3.2 -2.5,-4.7 -1,0.3 -1.7,0.4 -1.1,1.5 0.9,1.5 1.8,2.9 2.9,4.8 z M 330,256.6 c 0.2,0.1 0.4,0.1 0.6,0.2 0.9,-1.3 1.8,-2.5 2.7,-3.8 -0.4,-0.9 -0.9,-1.8 -1.6,-3.2 -0.7,2.6 -1.2,4.7 -1.7,6.8 z M 26.6,187 c 1.3,3.7 1.9,4.6 3.9,5.8 0.1,-2 -1,-3.8 -3.9,-5.8 z m 372.6,67.6 c 0.8,1.4 0.9,2.9 2.5,3.5 -0.1,1.6 0.7,2.8 1.9,3.8 -0.6,-2.7 -2.1,-5.1 -3,-7.8 -0.4,0.1 -0.8,0.2 -1.4,0.5 z M 137.1,99.9 c 0,2.4 1,3.9 2.8,5.1 0.2,-3.2 -0.5,-4.6 -2.8,-5.1 z m 425.3,118 c -0.5,2.2 -1,4.3 -1.4,6.4 -0.1,0.3 0.5,0.8 0.9,1.4 1.2,-2.8 1.8,-5.2 0.5,-7.8 z M 58.7,180.5 c 1.4,2.2 2.6,3.8 4.7,4.8 0.2,-0.3 0.4,-0.6 0.4,-0.7 -0.3,-0.6 -0.6,-1.3 -1.1,-1.7 -1,-0.9 -1.8,-2.2 -4,-2.4 z m 254.6,100.9 c -1,1.8 -3.3,3 -1.5,5.6 0.8,-1.6 1.6,-2.9 2.1,-4.3 0.1,-0.3 -0.4,-0.9 -0.6,-1.3 z M 71.6,105.4 c 0.2,-0.1 0.3,-0.2 0.5,-0.2 -0.7,-4 -2.3,-7.7 -3.9,-8.7 1.2,3.2 2.3,6 3.4,8.9 z m 249.9,135.9 c 2.3,-1.2 2.2,-3.6 2.9,-5.5 0.2,-0.5 0.5,-1.3 -0.6,-1.6 -0.8,2.3 -1.5,4.7 -2.3,7.1 z m 74.5,1.6 c -0.7,1.3 -1.3,2.4 -0.6,3.8 0.4,0.7 0.8,1.4 1.8,0.9 0.8,-0.4 0.9,-1.4 0.3,-2.2 -0.5,-0.8 -0.9,-1.6 -1.5,-2.5 z m -142.9,-6.1 c -0.4,3.5 0.3,7 0.9,10.4 0.1,-3.5 -0.2,-7 -0.9,-10.4 z m 9.6,-43.2 c 0.5,-0.3 1.2,-0.5 1.2,-0.7 0.2,-1.6 0.9,-3.3 -0.4,-5.3 -1,2.1 -1,3.9 -0.8,6 z m 269.6,10 c -0.2,0 -0.5,0 -0.7,0 -0.5,1.8 -0.9,3.6 -1.4,5.4 0.2,0.1 0.3,0.2 0.5,0.3 0.5,-0.4 1.3,-0.7 1.4,-1.2 0.1,-1.4 1.1,-3 0.2,-4.5 z m -73.6,51.7 c 0.3,0 0.6,0 0.8,-0.1 0,-2.5 0,-5 -0.8,-8 -0.4,0.7 -0.8,1.1 -0.8,1.4 0.1,1 0.3,2 0.4,3 0.2,1.3 0.3,2.5 0.4,3.7 z M 296,229.3 c 2.2,-2.3 2.3,-2.9 1.2,-6.5 -1.4,1.9 -0.7,4.1 -1.2,6.5 z M 50.3,189.4 c -2,-2.6 -4.1,-4.6 -5.2,-4.9 0.4,2.5 2.7,4.6 5.2,4.9 z m 260.8,87.4 c -0.6,-0.7 -1.1,-1.3 -1.6,-1.9 -1.8,3.4 -1.8,3.4 -0.6,4.9 0.7,-0.9 1.3,-1.9 2.2,-3 z m 10.3,18.4 c -0.5,1.3 -0.8,2.4 -1.3,3.5 -0.4,0.9 -0.3,1.5 0.9,1.8 0.6,-0.9 1.2,-1.9 1.8,-2.9 -0.4,-0.8 -0.9,-1.5 -1.4,-2.4 z m 0.9,-18.1 c 0.1,0.1 0.3,0.1 0.4,0.2 3.6,-3.7 4.7,-5.6 4,-7.2 -1.4,2.3 -2.9,4.6 -4.4,7 z M 48.9,183.4 c -0.1,0.1 -0.3,0.3 -0.4,0.4 0.7,0.9 1.3,1.9 2.1,2.8 0.7,0.8 1.5,1.7 3.1,1.3 -1.2,-2.1 -3.2,-3.1 -4.8,-4.5 z m 285.3,116.8 c 0.6,-0.9 1.2,-1.7 1.8,-2.4 0.8,-1 0.8,-1.8 -0.3,-2.5 -2.7,2.5 -2.7,2.7 -1.5,4.9 z M 113.5,160.9 c 1.2,2 1,4.3 2.8,6 0.6,-3.2 0.2,-4.2 -2.8,-6 z m 196.6,0.2 c -0.1,1.4 -0.3,2.9 -0.4,4.3 -0.1,1.1 0,2.3 0,3.5 0,0.7 -0.2,1.5 -0.3,2.2 2,-3.2 1.3,-6.6 0.7,-10 z M 82.7,96 c 0.2,3.3 1.6,7.1 3,8.5 -0.7,-3 -1.4,-5.7 -3,-8.5 z m 455.8,167.3 c 1.7,-1.9 3.5,-3 4.5,-5.2 -2.3,0.4 -3.3,2.3 -4.8,3.3 -0.2,0.1 0.1,0.9 0.3,1.9 z m -27.9,-86.2 c -2.7,1.6 -2.8,1.7 -2,4.9 1.7,-1.2 1.7,-3 2,-4.9 z M 438.4,237 c 0.5,-0.2 0.8,-0.3 1.3,-0.4 -0.5,-1.8 -1.1,-3.6 -1.6,-5.4 -1.3,2 -0.1,3.7 0.3,5.8 z M 272.3,200.9 c 1.3,-2.1 1.9,-4.2 0,-6.5 0,2.3 0,4.4 0,6.5 z m 65.8,69.2 c -1.4,1.3 -2.4,2.7 -3,4.5 2.4,-0.5 3.4,-2.1 3,-4.5 z m -19.5,134.8 c 0.2,0 0.4,0.1 0.5,0.1 0.3,-2 2.8,-3.3 1.7,-6 -0.5,0.4 -1.1,0.5 -1.2,0.9 -0.3,1.7 -0.7,3.4 -1,5 z m 19.3,-107.1 c -1,1.3 -1.7,2.2 -2.5,2.9 -1.1,1 -0.6,1.7 0.5,2.7 0.1,-2 3.1,-2.6 2,-5.6 z m -8.4,-50.9 c 1.7,0.3 2.4,-0.3 2.9,-1.5 0.5,-1.1 0,-1.7 -0.9,-2.6 -0.7,1.5 -1.3,2.7 -2,4.1 z M 26.1,191.7 c 0.2,-0.1 0.4,-0.3 0.6,-0.4 -1.2,-1.8 -2.4,-3.6 -3.6,-5.4 0,0 -0.3,0 -0.8,0.1 1.1,2.1 1.6,4.4 3.8,5.7 z m 124.1,2.9 c -0.8,-2.5 -2.5,-3.7 -4.9,-4 0.9,2.4 3.4,2.5 4.9,4 z M 83.8,172.9 c 0.2,3.7 1.9,6.2 3.7,6.4 -1.2,-2.1 -2.4,-4.3 -3.7,-6.4 z m 461.6,27.5 c -1,1.2 -1.8,2 -2.7,3 1.1,0.4 2,0.8 3.1,1.2 -0.1,-1.5 -0.2,-2.7 -0.4,-4.2 z m -362,-24 c -0.3,-2.6 -1.8,-4.8 -3.1,-7 0,2.8 2.2,4.7 3.1,7 z m 142.2,127.1 c -1.2,1.3 -1.8,2.4 -0.7,3.7 0.1,0.2 0.4,0.2 0.7,0.4 0.5,-0.4 0.9,-0.8 1.3,-1.2 -0.4,-1 -0.8,-1.9 -1.3,-2.9 z m -8.2,-8.2 c 0.8,-1.2 1.5,-2.2 2.3,-3.3 -0.3,-0.4 -0.5,-0.7 -0.8,-1.1 -2.6,2.6 -2.6,2.6 -1.5,4.4 z M 148.7,165.6 c 0.2,-0.1 0.4,-0.2 0.6,-0.2 -0.7,-2.1 -1.3,-4.2 -2,-6.4 0,2.4 -0.2,4.7 1.4,6.6 z M 316,285.7 c -0.4,-0.7 -0.8,-1.3 -1.2,-2.1 -0.2,0.5 -0.4,0.7 -0.4,0.9 -0.4,1.5 -0.7,3 -1.1,4.5 0.1,0 0.2,0.1 0.3,0.1 0.7,-1.1 1.4,-2.2 2.4,-3.4 z m 114.2,154.4 c -1.7,-3.3 -1.8,-3.4 -3.5,-3 0.3,0.6 0.7,1.1 1,1.6 0.3,0.5 0.6,1.1 0.9,1.7 0.5,-0.1 1,-0.2 1.6,-0.3 z m 59.6,-168.3 c 0.1,0.1 0.3,0.2 0.4,0.3 1.3,-1.3 2.8,-4.5 2.7,-6.6 -1.1,2.1 -2.1,4.2 -3.1,6.3 z M 334.6,261.7 c -1.1,1.4 -1.9,2.6 -1.6,4.3 1,-0.7 1.8,-1.2 2.7,-1.8 -0.3,-0.8 -0.7,-1.5 -1.1,-2.5 z m -0.3,11.1 c 1.3,-1.8 2.6,-3.2 3.1,-5.1 -2.6,1.9 -3.4,3.3 -3.1,5.1 z M 486.4,219 c 2,-1.7 2,-1.8 1.2,-3.4 -2,0.9 -2.1,1.3 -1.2,3.4 z m -278,-38.8 c 0.2,2 1.2,3.4 3.4,4.3 -0.3,-2.3 -2.2,-3.1 -3.4,-4.3 z M 404,267.1 c -0.4,2.2 0.8,4.1 3.3,5.5 -1.2,-2.1 -2.3,-3.8 -3.3,-5.5 z M 138.7,172.2 c -0.2,0 -0.3,0.1 -0.5,0.1 0.6,2.5 0.5,5.2 1.5,7.6 0.2,0 0.4,-0.1 0.6,-0.1 -0.5,-2.6 -1,-5.1 -1.6,-7.6 z M 306.4,268 c -1.3,3 -1.6,4.2 -1.2,5.4 0.4,-1.7 2.5,-3 1.2,-5.4 z m 23.1,-25.6 c -1.7,1.4 -2.2,3.4 -2.9,5.3 1.5,-1.5 2.8,-3 2.9,-5.3 z M 140,111 c -0.3,2.2 0,3.1 1.5,4.1 0.4,-2.2 0.1,-2.9 -1.5,-4.1 z m 383.1,83.9 c 1.1,-1.7 1.4,-3.4 0.8,-5.4 -0.8,1.3 -1.1,3 -0.8,5.4 z m -215.4,-25 c 1.4,-2.6 0.6,-5 0,-7.3 0,2.4 0,4.7 0,7.3 z m 17,251.4 c 1.2,-1.1 2.1,-2 3.2,-3 -0.7,-0.2 -1.3,-0.3 -2,-0.5 -0.3,1.1 -2,1.6 -1.2,3.5 z m -92,-258.8 c 0.2,0 0.4,-0.1 0.6,-0.1 -0.4,-2 0.4,-4.2 -1.5,-5.8 0.3,1.9 0.6,3.9 0.9,5.9 z m 91,59.1 c -0.4,1 -0.8,1.9 -1.3,2.8 0.6,0.3 1.1,0.5 1.5,0.7 1.3,-1.9 1.3,-1.9 -0.2,-3.5 z M 68.4,114.3 c -1.1,-1.7 -1.9,-3 -3,-4.7 0,2.9 0.8,4.4 3,4.7 z m 94.1,-2.9 c 0.2,0 0.4,-0.1 0.6,-0.1 0.4,-1.7 0,-3.2 -1.6,-4.9 0.4,1.9 0.7,3.4 1,5 z M 327.1,254 c 0.8,-2.1 1.5,-3.9 2.2,-5.7 -0.2,-0.1 -0.3,-0.1 -0.5,-0.2 -0.1,2 -3,3.1 -1.7,5.9 z m 77,19.2 c -0.4,1.6 -0.2,1.9 1.6,3.2 0.7,-1.4 0.7,-1.4 -1.6,-3.2 z m -80.2,145.1 c 0.7,-1 1.2,-1.6 1.7,-2.3 -0.5,-0.8 -0.8,-1.6 -2.1,-1.8 0.1,1.3 0.2,2.5 0.4,4.1 z M 428.5,276.2 c -0.5,-0.7 -1,-1.3 -1.5,-1.9 -1.3,1.3 -0.5,2.5 -0.1,3.9 0.6,-0.7 1.1,-1.3 1.6,-2 z M 317,287.4 c -0.8,1.4 -1.5,2.7 -2.2,4.1 3.1,-2.2 3.2,-2.3 2.2,-4.1 z m -5.3,-9.3 c -0.9,1.7 -1.5,2.9 -2.2,4.2 0.2,0.2 0.4,0.3 0.6,0.5 0.8,-0.9 1.6,-1.8 2.4,-2.8 -0.2,-0.6 -0.4,-1.1 -0.8,-1.9 z M 161.3,124.2 c -0.2,0 -0.4,0 -0.6,0 0.3,2 0.7,3.9 1,5.9 1,-2.2 -0.2,-4 -0.4,-5.9 z m 31.8,54.7 c 0.4,3.5 0.8,3.9 2.8,3 -0.8,-0.9 -1.7,-1.8 -2.8,-3 z m 237.8,133.7 c -1.7,-0.4 -3.3,-0.7 -5.3,-1.1 3.5,2.5 3.5,2.5 5.3,1.1 z m -385,-148 c 0,-1.2 -0.5,-1.9 -1.1,-2.8 -0.6,-0.8 -0.8,-1.8 -1.2,-2.7 -0.1,2.6 0.9,4.7 2.3,5.5 z m 482.2,19.8 c 0,1.4 0,2.7 0,4 0.1,0 0.2,0 0.3,0.1 0.4,-1.4 0.9,-2.9 1.4,-4.7 -0.9,0.3 -1.3,0.5 -1.7,0.6 z m -192.2,121 c 1.6,-0.8 3.2,-2.9 3.5,-4.4 -1.6,1.1 -2.7,2.3 -3.5,4.4 z m 168.2,-88.9 c 0.2,-0.1 0.4,-0.1 0.6,-0.2 -0.3,-1.4 -0.6,-2.8 -1,-4.2 0,-0.2 -0.6,-0.2 -1,-0.3 0.6,1.8 1,3.2 1.4,4.7 z m -236.6,37 c 0.9,-3.2 0.8,-3.9 -0.5,-4.2 0.2,1.4 0.4,2.8 0.5,4.2 z m 117.2,52.4 c -1.2,0.9 -1.5,1.6 -0.9,2.6 0.1,0.2 0.4,0.4 0.7,0.7 0.5,-0.5 0.9,-1 1.3,-1.4 -0.4,-0.6 -0.7,-1.1 -1.1,-1.9 z m 77.2,-96.2 c -0.5,2 -0.9,4 0,6.1 0,-2.2 0,-4.2 0,-6.1 z M 88.3,144.4 c -0.3,3.1 0.1,4.1 1.6,4.7 -0.5,-1.6 -1,-3.2 -1.6,-4.7 z m 425,48.3 c -2.1,0.6 -1.4,2.2 -1.6,3.6 1.7,-1.8 1.7,-1.8 1.6,-3.6 z M 12.8,191.1 c 0.1,1.5 1,2.6 2.4,3.5 0.3,-2.1 -1.2,-2.7 -2.4,-3.5 z m 17.8,-6.7 c 0.4,-0.9 0.8,-1.3 0.7,-1.5 -0.5,-1.1 -1.1,-2.2 -2.9,-2.4 0.7,1.3 1.3,2.3 2.2,3.9 z m 133,-64.1 c 1.7,-2.3 1.7,-2.3 0,-3.8 0,1.4 0,2.6 0,3.8 z m -7.8,51 c 0,-2.3 -0.4,-3.9 -1.5,-5.3 0.4,2 0.4,3.7 1.5,5.3 z m 284.6,72.1 c 0.2,0 0.3,-0.1 0.5,-0.1 0,-0.8 0,-1.7 0,-2.5 0,-1.3 -0.6,-1.4 -1.7,-1 0.4,1.2 0.8,2.4 1.2,3.6 z M 342,456.2 c -0.5,1.3 -1.2,2.4 -0.4,3.7 1.4,-0.7 1.5,-1.3 0.4,-3.7 z M 150.2,152.4 c -0.5,-3 -0.8,-3.3 -3.4,-2.9 1.1,1 2.1,1.8 3.4,2.9 z m 172.6,91.7 c 1.1,-1.7 3,-2.7 3.1,-5.2 -0.8,1.1 -1.4,1.9 -2,2.7 -0.6,0.7 -2.3,0.7 -1.1,2.5 z m 3.4,110.9 c 0.3,-2.2 0.1,-2.8 -0.9,-4.1 -0.6,1.8 -0.4,2.6 0.9,4.1 z M 66.5,183.9 c 0.1,-0.1 0.3,-0.2 0.4,-0.3 -0.4,-1.8 -1.5,-2.8 -3.4,-2.9 1.2,1.2 2.1,2.2 3,3.2 z m 399.6,73.2 c -1.4,0.9 -2.8,1.9 -2,4.3 0.8,-1.6 1.4,-2.9 2,-4.3 z M 527,186 c -0.2,0 -0.4,-0.1 -0.7,-0.1 -0.3,1.6 -0.6,3.3 -0.8,4.9 0.2,0 0.4,0.1 0.6,0.1 0.3,-1.7 0.6,-3.3 0.9,-4.9 z M 322.5,399.5 c 0.8,-0.8 2.5,-0.1 2.8,-1.8 -2.4,0 -2.6,0.1 -2.8,1.8 z m 6.3,-87.6 c 0.5,0.4 1,0.8 1.5,1.2 0.4,-0.6 0.7,-1 1.1,-1.5 -0.6,-0.6 -1.1,-1 -1.6,-1.6 -0.4,0.7 -0.7,1.2 -1,1.9 z m 12.3,-0.7 c 0.8,0.7 1.5,1.3 2.3,2 -0.1,-1.3 -0.1,-2.4 -0.2,-3.7 -0.8,0.7 -1.3,1.1 -2.1,1.7 z m 223.3,-87.3 c -1.7,2.3 -1.7,2.3 -0.4,3.2 0.2,-1.1 0.3,-2.2 0.4,-3.2 z m -48.8,-3.1 c -1.4,0.7 -2.1,1.4 -1.6,2.8 1.6,-0.2 1.5,-1.4 1.6,-2.8 z M 146.1,110 c -0.1,1.6 0.2,2.8 1.2,4 0.9,-1.8 -0.1,-2.8 -1.2,-4 z m 196,133.7 c 1.6,0.6 1.7,-0.6 2,-1.6 -2.1,-0.3 -2.1,-0.3 -2,1.6 z m 89.7,-1.9 c -0.6,1.2 0.2,3 2.1,4.1 -0.6,-1.3 -1.3,-2.7 -2.1,-4.1 z m -97.3,51.5 c -2,1.8 -2,1.8 -1.5,3.6 0.6,-1.3 2.1,-1.9 1.5,-3.6 z m 208,-25.1 c 1.1,-0.7 2.4,-1.1 1.9,-3 -1.1,0.7 -2.4,1.1 -1.9,3 z M 516,175.6 c -0.1,-0.1 -0.3,-0.3 -0.4,-0.4 -0.7,1.3 -1.3,2.7 -2,4 0.2,0.1 0.4,0.2 0.6,0.3 1,-1.1 1.4,-2.5 1.8,-3.9 z m -6.6,30.2 c -0.1,-0.1 -0.2,-0.2 -0.3,-0.3 -0.5,0.3 -1,0.6 -1.6,0.9 0.2,0.9 0.4,1.7 0.7,3 0.4,-1.6 0.8,-2.6 1.2,-3.6 z M 412,255.5 c -0.2,3 0,3.4 1.6,3.4 -0.6,-1.1 -1.1,-2.2 -1.6,-3.4 z m 5.3,55.6 c 0.1,0.1 0.2,0.3 0.2,0.4 0.7,0 1.3,-0.1 2.4,-0.1 -2,-1.5 0.7,-1.8 0.2,-3 -0.9,0.9 -1.9,1.8 -2.8,2.7 z M 45.4,189.1 c -1,-0.8 -2,-1.6 -3.4,-2.8 0.3,2.4 1.6,2.9 3.4,2.8 z m 378.5,92.2 c 2,-1.2 0.8,-2.3 0.7,-3.4 -1.8,0.9 -0.6,2.1 -0.7,3.4 z M 291.4,248.1 c 0.2,-1 0.4,-1.9 0.6,-2.9 -1.8,0.2 -1.5,1.4 -2.2,2.3 0.5,0.2 0.9,0.4 1.6,0.6 z M 521.3,192 c -0.9,2.8 -0.9,2.8 -0.3,3.9 0.6,-1.3 0.8,-2.5 0.3,-3.9 z m -202.2,43.2 c 0.6,-1 1.3,-2.1 2,-3.2 -1.5,-0.3 -1.5,-0.3 -2,3.2 z m 1.3,3.3 c 0.3,-1 0.6,-1.7 0.9,-2.4 0.2,-0.6 0.5,-1.3 0.7,-1.9 -0.9,1.1 -2.9,2 -1.6,4.3 z m 2.3,166.3 c -1.1,1.6 -1.1,1.6 0.1,3 0.4,-0.5 0.8,-1 1.1,-1.3 -0.4,-0.6 -0.8,-1.1 -1.2,-1.7 z m -1.6,-137.6 c -2.9,2.4 -2.9,2.4 -2.3,3.8 0.9,-1.3 1.6,-2.6 2.3,-3.8 z M 90,151.3 c -0.1,0.1 -0.3,0.2 -0.4,0.3 0.6,1.1 1.1,2.2 1.8,3.6 0.7,-2 0.1,-3.1 -1.4,-3.9 z m 80.5,17 c 0.8,1.2 0,3.1 1.8,3.9 -0.2,-1.4 -0.7,-2.8 -1.8,-3.9 z m 284.2,347.5 c -1.7,0.9 -2.2,2.2 -2.8,3.4 1.5,-0.5 2.3,-1.6 2.8,-3.4 z m 32.2,-293.7 c 1.9,-0.6 1.9,-0.6 1.5,-2.2 -2,0.8 -2,0.8 -1.5,2.2 z m -379,-73.7 c 0.5,3.4 0.5,3.4 1.8,4.1 -0.7,-1.5 -1.3,-2.8 -1.8,-4.1 z M 346,298.1 c 0.1,-0.1 0.2,-0.3 0.3,-0.4 -0.2,-0.4 -0.4,-0.7 -0.7,-1.1 -1.2,0.6 -2.4,1 -1.6,2.6 0,0.1 0.3,0.1 0.5,0.1 0.1,-0.5 0.1,-1 0.2,-1.6 0.5,0.2 0.9,0.3 1.3,0.4 z M 171.2,125.5 c 0.3,1.9 0.5,3.4 0.8,5.1 0.8,-1.8 1,-3.3 -0.8,-5.1 z m 386.4,98.1 c 0.4,-1.5 0.8,-3 1.2,-4.5 -0.2,1.5 -2.1,2.7 -1.2,4.5 z m -423,-64.3 c 0.4,3.4 0.4,3.4 2,4.2 -0.7,-1.5 -1.3,-2.7 -2,-4.2 z m 110.8,9 c -0.2,0 -0.3,0 -0.5,0 0.2,1 -0.3,2.1 0.5,3.4 0,-1.3 0,-2.3 0,-3.4 z m 0,4.6 c -0.2,0 -0.4,0 -0.6,0 0,0.8 0,1.7 0,2.5 -0.1,0.9 -0.2,1.8 -0.3,2.7 0.2,0 0.3,0 0.5,0.1 0.1,-1.7 0.2,-3.5 0.4,-5.3 z m 195.7,0.2 c 0.1,0.9 0.3,1.8 0.4,2.8 0.1,0.9 -0.1,1.8 0.8,2.4 -0.3,-1.8 0.4,-3.7 -1.2,-5.2 z M 168.8,129.2 c 0.4,-1.5 0.3,-2.5 -0.7,-3.6 -0.8,1.5 -0.3,2.5 0.7,3.6 z m 345.6,86.9 c 1,-1.1 0.6,-2.1 0.5,-3.4 -1.5,1.1 -1.3,2.1 -0.5,3.4 z m -83.6,195.1 c -0.8,1.1 -0.7,1.1 -0.5,1.6 0.5,0.9 1.1,1.2 2.3,0.6 -0.6,-0.8 -1.2,-1.4 -1.8,-2.2 z m 56.6,-185.4 c 2,-0.5 1.1,-1.8 1.2,-3 -1.5,0.7 -1.7,1.6 -1.2,3 z m -104.9,85.6 c 0.2,-0.1 0.4,-0.3 0.6,-0.4 -0.3,-1.1 -0.7,-2 -1.8,-2.6 -0.1,0 -0.4,0.3 -0.7,0.6 0.6,0.9 1.2,1.6 1.9,2.4 z m 61.6,-53.3 c 0.7,-1.4 0.2,-2.3 -1.7,-4.1 0.7,1.6 1.2,2.8 1.7,4.1 z M 321.6,395.8 c 0.1,0.2 0.2,0.4 0.3,0.6 0.7,-0.2 1.5,-0.3 2.6,-0.6 -0.7,-0.8 -1,-1.3 -1.5,-1.9 -0.7,0.8 -1,1.3 -1.4,1.9 z M 466.3,232.2 c 0.1,-0.7 0.2,-1.4 0.3,-2.4 -1.2,0.6 -2.2,0.9 -1.9,2.4 0.5,0 1,0 1.6,0 z m -195.9,26.7 c 0.2,0 0.4,-0.1 0.7,-0.1 -0.3,-1.4 -0.6,-2.7 -0.9,-4.1 -0.2,0 -0.3,0.1 -0.5,0.1 0.2,1.4 0.5,2.7 0.7,4.1 z m 127.6,8.3 c -1.5,1.2 -1.5,1.3 0.1,2.5 1.2,-0.7 0.7,-1.5 -0.1,-2.5 z M 286.3,243.6 c -0.3,0 -0.5,-0.1 -0.8,-0.1 -0.2,1.3 -0.4,2.6 -0.6,3.9 0.2,0 0.3,0.1 0.5,0.1 0.2,-1.3 0.5,-2.6 0.9,-3.9 z M 166.1,112.7 c 0.3,-0.1 0.6,-0.1 0.8,-0.2 -0.4,-1.4 -0.9,-2.7 -1.3,-4.1 -0.1,0 -0.2,0.1 -0.3,0.1 0.2,1.5 0.5,2.8 0.8,4.2 z m 166.2,148.9 c 1.9,-1.4 1.9,-1.4 1.4,-3.4 -0.6,1.3 -1,2.4 -1.4,3.4 z m 130.8,258.1 c -1.4,1.3 -1.6,1.5 -1.4,2.3 0.1,0.3 0.5,0.5 0.9,0.8 0.2,-1.1 0.3,-2 0.5,-3.1 z m -112,-208.3 c -0.6,-0.4 -0.9,-0.9 -1.2,-0.9 -0.7,0 -1.2,0.6 -0.9,1.3 0.1,0.3 0.7,0.7 0.9,0.7 0.4,-0.1 0.7,-0.6 1.2,-1.1 z M 509.9,210.5 c -0.5,1.3 -0.8,2.3 -1.3,3.5 0.8,-0.6 1.4,-0.9 2,-1.4 -0.1,-0.6 -0.3,-1.1 -0.7,-2.1 z m -186.2,89.9 c -0.6,1.1 -2.1,1.6 -0.7,3.1 0.3,-1.1 1.7,-1.4 0.7,-3.1 z M 522,217.6 c -1.1,0.5 -1.4,1.3 -0.9,2.4 1.4,-0.5 1.4,-0.5 0.9,-2.4 z m -190.2,76.2 c 0.7,-0.8 1.2,-1.3 1.7,-2 -0.2,-0.3 -0.4,-0.6 -0.8,-1.1 -0.3,1.1 -2.2,1.3 -0.9,3.1 z M 519,198.9 c -0.1,-0.7 -0.1,-1.1 -0.2,-2 -0.9,0.6 -1.4,1.1 -2.4,1.7 1.1,0.1 1.7,0.2 2.6,0.3 z M 68,179.5 c -0.2,0.2 -0.3,0.3 -0.5,0.5 0.8,0.8 0.8,2.3 2.9,2.3 -0.9,-1.1 -1.6,-2 -2.4,-2.8 z m 224.6,95 c -0.2,0 -0.4,0 -0.7,0 0.1,1.1 0.3,2.1 0.4,3.2 0.2,0 0.3,0 0.5,-0.1 -0.1,-1 -0.1,-2.1 -0.2,-3.1 z m 213.7,-65.1 c -1.3,1.2 -0.2,2.1 -0.1,3.2 0.2,0 0.3,0 0.5,-0.1 -0.2,-1 -0.3,-2.1 -0.4,-3.1 z M 338.4,445.7 c -0.3,1.8 0.8,2.8 2.1,3.7 -0.8,-1.2 -1.4,-2.5 -2.1,-3.7 z M 248.5,236.2 c 0.1,0 0.3,0 0.4,0 0,-0.9 0,-1.9 0,-2.8 -0.1,0 -0.3,0 -0.4,0 0,0.9 0,1.9 0,2.8 z m -90.6,-66.7 c -0.2,0.1 -0.3,0.1 -0.5,0.2 0.4,1.4 0.8,2.8 1.2,4.1 0.1,0 0.2,-0.1 0.4,-0.1 -0.5,-1.4 -0.8,-2.8 -1.1,-4.2 z m 189.7,133.2 c -0.8,-1.3 -1.6,-0.7 -2.3,-0.1 -0.2,0.2 0,0.9 0.1,1.6 1,-0.6 1.6,-1 2.2,-1.5 z M 434,471.4 c -1.9,-0.7 -1.9,-0.7 -3.4,1.1 1.4,-0.4 2.4,-0.7 3.4,-1.1 z M 261,245 c -0.2,0 -0.5,0 -0.7,0 0.2,1.4 0.3,2.8 0.5,4.3 0.1,0 0.3,0 0.4,0 -0.1,-1.5 -0.2,-2.9 -0.2,-4.3 z m 173,243.5 c 0.1,-0.2 0.1,-0.3 0.2,-0.5 -0.9,-0.8 -1.8,-1.4 -3.5,-0.4 1.4,0.4 2.3,0.7 3.3,0.9 z M 395.2,266 c 1.9,-0.7 2,-0.9 1,-2.3 -0.6,0.5 -1.5,1 -1,2.3 z m -71.3,14 c 1.7,-2 1.7,-2 1.5,-3.1 -0.2,1.1 -2.1,1.1 -1.5,3.1 z m 182.6,-16.3 c 0.2,0.1 0.4,0.1 0.6,0.2 0.4,-1.2 0.8,-2.4 1.2,-3.5 -0.1,0 -0.3,-0.1 -0.4,-0.1 -0.5,1.1 -1,2.3 -1.4,3.4 z m -45,1.3 c 0.2,0 0.3,0 0.5,0 0.1,-1.3 0.1,-2.6 0.2,-4 -0.1,0 -0.3,0 -0.4,0 -0.1,1.4 -0.2,2.7 -0.3,4 z m -34.1,180.6 c -0.7,-0.6 -1.2,-1.1 -2,-1.7 -0.1,2.6 0,2.6 2,1.7 z m 24.5,-182.7 c 1.8,-0.2 1.8,-0.2 1.7,-2.2 -0.7,0.9 -1.2,1.6 -1.7,2.2 z M 80,180.4 c 0,-2.4 0,-2.4 -2,-3.2 0.6,1.1 1.1,1.9 2,3.2 z m 201.5,82.8 c -0.2,0 -0.4,0.1 -0.6,0.1 0.3,1 0.5,2.1 0.8,3.1 0,0.1 0.2,0.2 0.7,0.5 -0.4,-1.4 -0.6,-2.5 -0.9,-3.7 z M 460.9,246 c -1.2,1.1 -1.2,1.1 -0.7,3.3 0.3,-1.3 0.5,-2.3 0.7,-3.3 z m 110.5,-14.6 c 1.1,-1.3 1.1,-1.3 0.7,-2.6 -1,0.7 -0.7,1.7 -0.7,2.6 z m -234.8,46.2 c 0.7,-0.8 1.3,-1.5 1.8,-2.1 -0.1,-0.2 -0.3,-0.3 -0.4,-0.5 -0.7,0.4 -1.4,0.9 -2.2,1.3 0.4,0.5 0.5,0.8 0.8,1.3 z m -29.9,-2.2 c 0.1,0.1 0.3,0.2 0.3,0.1 0.7,-0.9 1.7,-1.8 0.9,-3.3 -0.4,1.2 -0.8,2.2 -1.2,3.2 z m -27.5,-10.8 c 0.5,-2 0.5,-2 -0.4,-3.1 0.2,1 0.3,1.8 0.4,3.1 z m 47.2,15.3 c -1.5,1.3 -1.5,1.3 -1.1,2.4 1,-1 1,-1 1.1,-2.4 z m 204.8,-9.2 c -0.1,-0.1 -0.3,-0.2 -0.4,-0.3 -0.5,0.8 -1.3,1.5 -0.2,3.1 0.2,-1.2 0.4,-2 0.6,-2.8 z m -195.9,17.7 c -0.9,0.3 -1.6,0.8 -1,2 1.1,-0.3 1.3,-1.1 1,-2 z m 53,-12.6 c -1.6,-0.6 -1.9,-0.3 -1.6,1.9 0.6,-0.8 1.1,-1.3 1.6,-1.9 z m 36.2,29.9 c -0.7,0.4 -1.5,0.7 -2.4,1.1 1.9,0.9 1.9,0.9 2.4,-1.1 z M 163.6,170.8 c 0.4,0.7 0.9,1.3 1.3,2 0.1,0 0.1,-0.1 0.2,-0.1 -0.2,-1 -0.4,-2.1 -0.6,-3.2 -0.4,0.5 -0.6,0.8 -0.9,1.3 z M 92.8,150.3 c 0.7,2.1 0.7,2.1 2.5,2.4 -0.8,-0.8 -1.5,-1.5 -2.5,-2.4 z m 322.7,165.4 c -0.7,-1.7 -0.7,-1.7 -2.3,-1.4 0.9,0.5 1.6,1 2.3,1.4 z m -6.9,-50.9 c -0.2,0.1 -0.3,0.3 -0.5,0.4 -0.1,1.1 0.9,1.3 1.5,1.7 0.1,-0.1 0.3,-0.2 0.4,-0.3 -0.5,-0.6 -1,-1.2 -1.4,-1.8 z m 153.1,0.1 c -0.2,-0.1 -0.4,-0.2 -0.6,-0.3 -0.2,1 -1.7,1.4 -1.1,3.1 0.7,-1.1 1.2,-1.9 1.7,-2.8 z M 407,268.2 c 0.5,0.7 0.9,1.5 1.6,2.5 0.8,-2 -0.6,-2.1 -1.6,-2.5 z m -72.4,40 c -0.1,0.9 -0.4,1.5 -0.2,1.8 0.3,0.6 0.9,0.8 1.6,0.1 -0.4,-0.5 -0.7,-1 -1.4,-1.9 z m -9.3,103.2 c -0.1,0.2 -0.1,0.3 -0.2,0.5 0.5,0.5 1,0.9 1.6,1.5 0.1,-0.8 0.1,-1.3 0.1,-2 -0.5,0 -1,0 -1.5,0 z m 6.6,-153.2 c 1.7,-1.3 1.7,-1.3 1.7,-2.8 -0.6,1 -1,1.7 -1.7,2.8 z m 68.2,-6.3 c -0.3,-0.1 -0.5,-0.3 -0.8,-0.4 -0.3,0.4 -0.6,0.9 -0.9,1.3 0.4,0.2 0.7,0.3 1.1,0.5 0.2,-0.4 0.4,-0.9 0.6,-1.4 z M 478.4,148 c -1.3,0.7 -0.8,1.4 0,2 0,-0.7 0,-1.3 0,-2 z m -143,71.9 c -0.8,0.5 -1.7,1.2 -1,2.5 0.4,-0.8 0.7,-1.7 1,-2.5 z m 114.5,-56.5 c 0.4,-2.1 0.4,-2.1 -0.8,-3 0.2,1.2 0.5,2.1 0.8,3 z m -52.8,86.2 c 0,0.2 0,0.5 0,0.7 0.5,0 1.2,0.3 1.6,0.1 0.3,-0.1 0.2,-0.9 0.3,-1.8 -0.9,0.5 -1.4,0.8 -1.9,1 z m 125,-49.8 c 1.2,-1.8 1.2,-1.8 0.2,-3 -0.1,1 -0.1,1.9 -0.2,3 z m -19.3,8.5 c -0.2,0 -0.5,0.1 -0.7,0.1 -0.5,0.9 -0.4,1.5 1.1,2 -0.2,-0.9 -0.3,-1.5 -0.4,-2.1 z m -36.9,26.2 c -0.2,-0.1 -0.4,-0.1 -0.6,-0.2 -0.2,0.5 -0.3,1 -0.5,1.5 0.3,0.1 0.7,0.2 1,0.3 0.1,-0.7 0.1,-1.1 0.1,-1.6 z M 519,190 c -1.5,0.5 -0.9,1.5 -1.1,2.3 0.2,0 0.3,0.1 0.5,0.1 0.2,-0.8 0.4,-1.6 0.6,-2.4 z m 22.2,9.5 c 0.6,-1.2 0.9,-1.9 1.3,-2.6 -0.9,0.5 -1.8,0.9 -1.3,2.6 z m -137.1,78.3 c -0.5,-0.7 -0.8,-1.1 -1.1,-1.6 -0.7,1.5 -0.7,1.5 1.1,1.6 z M 241.2,231.6 c -0.7,1.4 -0.7,1.8 0,1.8 0,-0.5 0,-1.1 0,-1.8 z m 200.1,-1.4 c 0.1,0 0.2,-0.1 0.4,-0.1 -0.2,-0.9 -0.5,-1.8 -0.7,-2.7 -0.1,0 -0.2,0 -0.3,0.1 0.2,0.9 0.4,1.8 0.6,2.7 z M 68.5,115.3 c -0.2,0.1 -0.4,0.1 -0.6,0.2 0.3,0.8 0.6,1.7 0.9,2.5 0.2,-0.1 0.3,-0.1 0.5,-0.2 -0.2,-0.8 -0.5,-1.6 -0.8,-2.5 z m 227,166.2 c -0.2,0 -0.4,0.1 -0.6,0.1 0.2,0.8 0.3,1.6 0.5,2.4 0.2,0 0.4,-0.1 0.6,-0.1 -0.2,-0.8 -0.3,-1.6 -0.5,-2.4 z M 189.9,183.2 c 0.9,-1.2 0.3,-1.7 -1,-2.2 0.4,1 0.7,1.6 1,2.2 z m 151.8,125.2 c -1.2,0.2 -2.1,0.6 -2.1,2.1 0.7,-0.7 1.4,-1.4 2.1,-2.1 z m 50.6,-40.1 c -0.2,-0.1 -0.4,-0.3 -0.5,-0.4 -0.7,0.4 -1.4,0.8 -0.9,2.2 0.6,-0.7 1,-1.2 1.4,-1.8 z M 169,183.7 c 0.7,-1.6 0.7,-1.6 -0.7,-2.3 0.3,0.9 0.5,1.6 0.7,2.3 z m 240.5,78 c -0.3,0.1 -0.6,0.1 -0.9,0.2 0.2,0.7 0.5,1.4 0.7,2 0.2,-0.1 0.4,-0.1 0.7,-0.2 -0.1,-0.7 -0.3,-1.3 -0.5,-2 z m -78.2,-45 c -0.2,-0.1 -0.3,-0.2 -0.5,-0.2 -0.4,0.8 -0.8,1.5 -1.2,2.3 0.2,0.1 0.4,0.2 0.5,0.2 0.4,-0.7 0.8,-1.5 1.2,-2.3 z M 545.7,70.3 c 0.2,0.1 0.3,0.1 0.5,0.2 0.4,-0.9 0.7,-1.9 1.1,-2.8 -0.1,-0.1 -0.3,-0.1 -0.4,-0.2 -0.4,0.9 -0.8,1.8 -1.2,2.8 z M 343.4,296.8 c 0.7,-0.7 1.6,-0.9 1.1,-2 -0.1,-0.2 -0.4,-0.4 -0.6,-0.3 -1,0.4 -0.8,1.1 -0.5,2.3 z m 121.7,251.6 c 0.2,0.2 0.4,0.3 0.6,0.5 0.8,-0.7 1.5,-1.4 1.5,-2.7 -0.7,0.7 -1.4,1.5 -2.1,2.2 z m -28.7,-331 c 0.2,-0.1 0.4,-0.2 0.6,-0.3 -0.3,-0.8 -0.6,-1.5 -0.9,-2.3 -0.2,0.1 -0.4,0.1 -0.6,0.2 0.3,0.8 0.6,1.6 0.9,2.4 z M 166.7,182.3 c -0.3,0 -0.5,0 -0.8,0.1 0.1,0.7 0.2,1.3 0.3,2 0.2,0 0.4,-0.1 0.7,-0.1 0,-0.8 -0.1,-1.4 -0.2,-2 z m 163.2,108.8 c 1.4,-0.5 1.4,-0.5 1.5,-2.3 -0.7,0.9 -1.1,1.6 -1.5,2.3 z M 513.7,182.5 c -1.4,0.7 -1.4,0.7 -1.1,2.4 0.4,-0.9 0.7,-1.6 1.1,-2.4 z m -186.1,99.6 c -1.5,1 -1.5,1 -1.3,2.4 0.6,-1 1,-1.7 1.3,-2.4 z M 122.8,87.2 c -0.2,0.1 -0.3,0.1 -0.5,0.2 0.4,0.8 0.8,1.6 1.1,2.4 0.1,-0.1 0.3,-0.1 0.4,-0.2 -0.3,-0.8 -0.7,-1.6 -1,-2.4 z M 493.2,213 c 0.1,0.1 0.3,0.3 0.4,0.4 0.7,-0.3 1.9,-0.4 0.6,-1.9 -0.4,0.6 -0.7,1.1 -1,1.5 z M 39.1,188 c -0.1,0.2 -0.2,0.3 -0.4,0.5 0.4,0.8 0.9,1.4 2.3,0.9 -0.8,-0.6 -1.3,-1 -1.9,-1.4 z m 310.2,120 c -0.2,0 -0.3,-0.1 -0.5,-0.1 -0.3,0.5 -0.6,0.9 -1.1,1.7 0.8,0 1.2,-0.1 1.7,-0.1 0,-0.6 0,-1 -0.1,-1.5 z m -29.1,83.3 c 1.1,-1 0.8,-1.5 -0.4,-2.3 0.2,1 0.3,1.5 0.4,2.3 z M 238.5,78.1 c -0.2,0 -0.4,-0.1 -0.6,-0.1 -0.1,0.7 -0.2,1.4 -0.3,2.1 0.2,0 0.3,0.1 0.5,0.1 0.2,-0.8 0.3,-1.5 0.4,-2.1 z m 16.5,-53 c 1.3,-0.8 0.8,-1.4 0.4,-1.9 -0.1,-0.1 -0.3,-0.1 -0.6,-0.1 0.1,0.6 0.2,1.1 0.2,2 z m 232.3,240.5 c 0.4,-0.8 0.8,-1.6 1.2,-2.4 -1.2,0.5 -1.3,1.4 -1.2,2.4 z m -98,-2.1 c -0.1,0.5 -0.3,1.1 -0.5,1.8 1.2,-0.4 1.7,-0.8 0.5,-1.8 z M 202.5,146.9 c -0.2,0.1 -0.4,0.1 -0.6,0.2 0,0.7 -0.2,1.5 1.3,1.8 -0.3,-0.9 -0.5,-1.4 -0.7,-2 z m -83.4,17.7 c 0.2,-0.1 0.4,-0.1 0.6,-0.2 -0.2,-0.8 -0.5,-1.5 -0.7,-2.3 -0.2,0 -0.3,0.1 -0.5,0.1 0.3,0.8 0.4,1.6 0.6,2.4 z m 220.7,87.6 c -0.2,0 -0.5,0 -0.7,0 0,0.6 0.1,1.2 0.1,1.7 0.2,0 0.3,0 0.5,0 0,-0.6 0,-1.2 0.1,-1.7 z M 503,270.8 c 0.2,0.1 0.3,0.3 0.5,0.4 0.5,-0.8 1,-1.5 1.4,-2.3 -0.1,-0.1 -0.3,-0.2 -0.4,-0.2 -0.5,0.6 -1,1.4 -1.5,2.1 z M 263.2,252.6 c 0.1,0 0.2,0 0.3,0 0,-1.2 0,-2.4 0,-3.5 -0.1,0 -0.2,0 -0.3,0 0,1.1 0,2.3 0,3.5 z m 65.7,56.1 c -0.1,-0.1 -0.3,-0.3 -0.4,-0.4 -0.5,0.5 -1.1,1 -1.7,1.5 0.4,0.3 0.6,0.5 0.9,0.8 0.4,-0.7 0.8,-1.3 1.2,-1.9 z m 121,-142.2 c 0.8,-0.8 0.6,-1.5 -0.2,-2.1 0.1,0.7 0.2,1.4 0.2,2.1 z M 187,62.3 c 0.2,0 0.5,-0.1 0.7,-0.1 -0.1,-0.6 -0.3,-1.1 -0.4,-1.7 -0.2,0 -0.4,0.1 -0.5,0.1 0,0.6 0.1,1.2 0.2,1.7 z m 266.5,159.3 c 0,-1 0,-1.9 0,-2.8 -0.2,0.8 -0.3,1.6 -0.3,2.3 -0.1,0.1 0.1,0.2 0.3,0.5 z m -163,51 c -0.2,0 -0.4,0.1 -0.6,0.1 0.2,0.7 0.4,1.4 0.5,2 0.2,0 0.3,-0.1 0.5,-0.1 -0.1,-0.6 -0.2,-1.3 -0.4,-2 z m 236.3,-57.9 c -0.2,1 -0.3,1.6 -0.5,2.6 1.1,-0.8 1.2,-1.4 0.5,-2.6 z m -250.6,45.2 c 0.2,0 0.3,0 0.5,0 0,-0.4 0,-0.9 0,-1.3 -0.1,0 -0.2,0 -0.4,0 0,0.4 -0.1,0.8 -0.1,1.3 z M 173,102.3 c -0.3,1.5 0.1,2.1 1.2,2.4 -0.4,-0.7 -0.7,-1.3 -1.2,-2.4 z m 349.3,155.6 c -1.1,1 -1.1,1 -1.1,2.4 0.5,-1 0.8,-1.7 1.1,-2.4 z m -187.8,10.2 c 0.2,0 0.4,0 0.7,0 0,-0.5 0.1,-1 0,-1.5 0,0 -0.4,0 -0.6,-0.1 0,0.5 0,1.1 -0.1,1.6 z m 0.9,23.9 c 1.3,-0.5 1.3,-0.5 1.2,-1.7 -0.4,0.7 -0.8,1.2 -1.2,1.7 z m 7.6,-2.5 c -0.1,0 -0.3,-0.1 -0.4,-0.1 -0.1,0.2 -0.3,0.5 -0.3,0.7 0,0.3 0.1,0.6 0.2,0.9 0.1,0 0.3,0 0.4,0 0,-0.5 0,-1 0.1,-1.5 z m 54,-33.7 c 0.4,0.9 0.4,1.7 1.8,2 -0.4,-0.9 -0.4,-1.8 -1.8,-2 z m -68,33.4 c 0.2,0.1 0.4,0.2 0.5,0.3 0.3,-0.6 0.6,-1.1 0.9,-1.7 -0.2,-0.1 -0.3,-0.2 -0.5,-0.3 -0.2,0.6 -0.5,1.2 -0.9,1.7 z M 181.1,132.8 c -0.2,0.1 -0.5,0.2 -0.7,0.3 0.2,0.6 0.4,1.1 0.6,1.7 0.2,-0.1 0.4,-0.1 0.6,-0.2 -0.2,-0.6 -0.3,-1.2 -0.5,-1.8 z m 260.2,364.6 c -0.1,0 -0.2,0.1 -0.4,0.1 0.3,0.8 0.5,1.5 0.8,2.3 0.1,0 0.3,-0.1 0.4,-0.1 -0.3,-0.8 -0.6,-1.5 -0.8,-2.3 z M 337.7,439.7 c 0,-0.2 0.1,-0.4 0.1,-0.6 -0.8,-0.2 -1.5,-0.3 -2.3,-0.5 0,0.2 -0.1,0.4 -0.1,0.6 0.8,0.2 1.6,0.4 2.3,0.5 z M 495.4,213.2 c 0.3,0.5 0.5,0.9 0.8,1.4 0.6,-1.2 0.6,-1.2 -0.8,-1.4 z M 286.2,271 c 0.2,0 0.4,0 0.6,0 -0.2,-0.7 -0.4,-1.4 -0.5,-2.1 -0.2,0 -0.4,0.1 -0.6,0.1 0.1,0.6 0.3,1.3 0.5,2 z m 232.6,-76.5 c -0.2,0 -0.4,-0.1 -0.6,-0.1 -0.1,0.5 -0.2,1 -0.2,1.5 0.1,0 0.4,0.1 0.4,0 0.2,-0.5 0.3,-1 0.4,-1.4 z m -96.8,89 c 0.9,-1 0.9,-1 0,-2.2 0,0.8 0,1.5 0,2.2 z M 318.7,212.4 c -0.2,0 -0.3,-0.1 -0.5,-0.1 -0.2,0.9 -0.4,1.7 -0.5,2.6 0.1,0 0.3,0.1 0.4,0.1 0.2,-0.9 0.4,-1.8 0.6,-2.6 z m -29.8,58.3 c -0.1,0 -0.2,0 -0.3,0 0,1 0,2 0,2.9 0.1,0 0.2,0 0.3,0 0,-0.9 0,-1.9 0,-2.9 z m -43,-37.6 c 0.1,0 0.3,0 0.4,0 -0.1,-0.8 -0.1,-1.5 -0.2,-2.3 -0.2,0 -0.4,0 -0.6,0.1 0.1,0.6 0.2,1.4 0.4,2.2 z m 284.7,-20.6 c 0.2,0 0.4,0.1 0.6,0.1 0.1,-0.4 0.2,-0.8 0.3,-1.2 -0.2,0 -0.6,-0.1 -0.6,-0.1 -0.1,0.4 -0.2,0.8 -0.3,1.2 z M 346.7,307 c 1,-1.2 0.4,-1.6 -0.7,-2.2 0.2,0.8 0.4,1.3 0.7,2.2 z m 91.1,197.9 c -0.2,0.1 -0.3,0.2 -0.5,0.2 0.3,0.5 0.6,1.1 0.9,1.6 0.1,-0.1 0.2,-0.1 0.4,-0.2 -0.2,-0.5 -0.5,-1.1 -0.8,-1.6 z m 85.8,-232.4 c 0.1,0 0.3,0.1 0.4,0.1 0.2,-0.5 0.3,-1.1 0.5,-1.6 -0.1,0 -0.2,-0.1 -0.4,-0.1 -0.1,0.5 -0.3,1 -0.5,1.6 z M 473.8,155 c 0.2,-0.1 0.3,-0.1 0.5,-0.2 -0.2,-0.5 -0.3,-1 -0.5,-1.5 -0.2,0 -0.3,0.1 -0.5,0.1 0.2,0.5 0.3,1 0.5,1.6 z M 395,254.8 c -0.1,-0.1 -0.3,-0.3 -0.4,-0.4 -0.3,0.3 -0.5,0.6 -0.8,0.9 0.2,0.1 0.4,0.4 0.5,0.4 0.2,-0.3 0.5,-0.6 0.7,-0.9 z m 132.8,11.7 c -0.1,-0.1 -0.2,-0.1 -0.3,-0.2 -0.2,0.2 -0.4,0.4 -0.5,0.6 -0.1,0.2 -0.1,0.4 -0.2,0.7 0.1,0 0.2,0.1 0.3,0.1 0.3,-0.4 0.5,-0.8 0.7,-1.2 z M 426.2,440.3 c 0.2,-0.2 0.4,-0.4 0.6,-0.6 -0.3,-0.3 -0.6,-0.6 -0.9,-0.8 -0.2,0.2 -0.4,0.4 -0.5,0.5 0.2,0.3 0.5,0.6 0.8,0.9 z M 105.5,178.6 c 0.1,-0.2 0.3,-0.4 0.4,-0.6 -0.4,-0.2 -0.7,-0.5 -1.1,-0.7 -0.1,0.1 -0.2,0.3 -0.3,0.4 0.3,0.3 0.6,0.6 1,0.9 z m 298.9,52.7 c 0.2,-0.1 0.3,-0.2 0.5,-0.2 -0.2,-0.4 -0.5,-0.8 -0.7,-1.2 -0.1,0.1 -0.2,0.1 -0.3,0.2 0.1,0.4 0.3,0.8 0.5,1.2 z M 339.9,228 c -0.2,0 -0.3,-0.1 -0.5,-0.1 -0.2,0.6 -0.4,1.1 -0.6,1.7 0.2,0.1 0.4,0.1 0.6,0.2 0.2,-0.6 0.4,-1.2 0.5,-1.8 z m 104.8,-1.4 c -0.1,0 -0.1,0 -0.2,0 0,0.5 0.1,1.1 0.1,1.6 0,0 0.1,0 0.1,0 0,-0.6 0,-1.1 0,-1.6 z m 40.6,-1.1 c -0.2,0 -0.4,0 -0.6,0 0.1,0.6 0.1,1.1 0.2,1.7 0.2,0 0.4,0 0.5,-0.1 0,-0.5 0,-1 -0.1,-1.6 z M 107,120.6 c 0.2,-0.1 0.3,-0.2 0.5,-0.4 -0.3,-0.4 -0.6,-0.8 -0.9,-1.3 -0.2,0.1 -0.3,0.3 -0.5,0.4 0.3,0.4 0.6,0.8 0.9,1.3 z m 410.1,101.5 c 0.7,-0.6 1,-1.1 0,-1.6 0,0.5 0,0.9 0,1.6 z m -172.5,70.2 c -0.2,-0.2 -0.3,-0.4 -0.5,-0.5 -0.4,0.4 -0.8,0.8 -1.2,1.2 0.1,0.1 0.3,0.3 0.4,0.4 0.4,-0.4 0.8,-0.8 1.3,-1.1 z m 61.2,-27.2 c -0.1,0.1 -0.2,0.2 -0.4,0.2 0.2,0.4 0.4,0.7 0.7,1.1 0.1,-0.1 0.2,-0.2 0.4,-0.2 -0.2,-0.4 -0.5,-0.7 -0.7,-1.1 z m 50.7,-5.1 c -0.2,0 -0.3,-0.1 -0.5,-0.1 -0.2,0.6 -0.3,1.1 -0.5,1.7 0.2,0.1 0.4,0.1 0.5,0.2 0.2,-0.7 0.4,-1.3 0.5,-1.8 z M 214,153.2 c -0.1,0.1 -0.3,0.1 -0.4,0.2 0.1,0.4 0.3,0.7 0.4,1.1 0.2,-0.1 0.5,-0.3 0.5,-0.3 -0.2,-0.4 -0.4,-0.7 -0.5,-1 z m -48,23.6 c -0.1,0 -0.2,0 -0.3,0 0,0.6 0,1.2 0,1.9 0.1,0 0.2,0 0.3,0 0,-0.7 0,-1.3 0,-1.9 z m 349.9,16.4 c -0.1,0 -0.3,0.1 -0.4,0.1 0,0.4 0.1,0.8 0.1,1.2 0.1,0 0.2,0 0.3,0 0,-0.4 0,-0.8 0,-1.3 z M 164,184.3 c 0.2,-0.5 0.3,-0.9 0.5,-1.4 -1.7,0.2 -1.1,0.7 -0.5,1.4 z m 379.3,78.3 c 1.4,0.5 1.6,0.1 1.2,-1.3 -0.5,0.6 -0.8,0.9 -1.2,1.3 z m -104.7,0.5 c -0.1,0.1 -0.3,0.1 -0.4,0.2 0.1,0.3 0.2,0.7 0.3,1 0.1,-0.1 0.4,-0.1 0.4,-0.2 -0.1,-0.4 -0.2,-0.7 -0.3,-1 z m -162.2,-1.6 c -0.1,0 -0.3,0.1 -0.4,0.1 0.1,0.4 0.2,0.7 0.4,1.1 0.1,0 0.3,-0.1 0.4,-0.1 -0.1,-0.3 -0.2,-0.7 -0.4,-1.1 z M 118.3,102.6 c -0.1,-0.2 -0.1,-0.3 -0.2,-0.4 -0.1,0.1 -0.3,0.1 -0.4,0.2 0.1,0.2 0.2,0.4 0.2,0.6 0.3,-0.3 0.4,-0.4 0.4,-0.4 z m 278.5,150.6 c -0.1,0 -0.3,0 -0.4,0 -0.1,0.4 -0.2,0.7 -0.2,1.1 0.3,0 0.6,0 0.8,0.1 0,-0.5 -0.1,-0.9 -0.2,-1.2 z m -103.5,-2.4 c -0.1,0 -0.2,-0.1 -0.4,-0.1 -0.1,0.5 -0.3,1 -0.4,1.5 0.1,0 0.3,0.1 0.4,0.1 0.2,-0.5 0.3,-1 0.4,-1.5 z m 109.3,19.8 c -0.5,1 -0.4,1.6 0.9,2.1 -0.4,-0.9 -0.6,-1.4 -0.9,-2.1 z M 392,272 c 0.2,0.2 0.3,0.3 0.5,0.5 0.9,-0.4 0.9,-0.4 0.8,-1.6 -0.6,0.5 -1,0.8 -1.3,1.1 z m 31.3,-29.9 c -0.2,0.1 -0.3,0.2 -0.5,0.2 0.2,0.4 0.4,0.9 0.6,1.3 0.1,-0.1 0.3,-0.1 0.4,-0.2 -0.1,-0.4 -0.3,-0.8 -0.5,-1.3 z M 544,272.6 c -0.2,-0.1 -0.3,-0.1 -0.5,-0.2 -0.2,0.5 -0.4,0.9 -0.6,1.4 0.2,0.1 0.3,0.1 0.5,0.2 0.2,-0.5 0.4,-1 0.6,-1.4 z m -221.6,0.7 c -0.1,-0.1 -0.3,-0.2 -0.4,-0.3 -0.3,0.4 -0.5,0.8 -0.8,1.1 0.1,0.1 0.2,0.1 0.2,0.2 0.3,-0.3 0.7,-0.6 1,-1 z m 211.2,0.6 c 0.2,0 0.4,-0.1 0.5,-0.1 -0.1,-0.3 -0.2,-0.6 -0.3,-0.9 -0.1,0 -0.2,0.1 -0.3,0.1 0,0.3 0,0.6 0.1,0.9 z M 252.8,234.2 c -0.3,0.4 -0.6,0.5 -0.6,0.7 0,0.2 0.1,0.5 0.2,0.7 0.1,0 0.2,0 0.4,-0.1 -0.1,-0.4 -0.1,-0.7 0,-1.3 z m -2.5,-0.7 c 0.2,0 0.3,0 0.5,-0.1 -0.1,-0.4 -0.2,-0.7 -0.4,-1.1 -0.1,0 -0.3,0.1 -0.4,0.1 0.2,0.4 0.3,0.7 0.3,1.1 z m -1.7,-1.8 c 0.1,-0.1 0.3,-0.2 0.4,-0.2 -0.2,-0.3 -0.4,-0.6 -0.6,-1 -0.1,0.1 -0.3,0.2 -0.3,0.3 0.1,0.3 0.3,0.6 0.5,0.9 z m 283.6,43.5 c -0.6,0.5 -1,0.8 -1.4,1.1 0.8,0.2 1.6,0.4 1.4,-1.1 z m -190.3,9.9 c -0.1,-0.1 -0.2,-0.2 -0.4,-0.4 -0.3,0.4 -0.6,0.8 -0.9,1.2 0.1,0.1 0.2,0.2 0.3,0.3 0.4,-0.4 0.7,-0.8 1,-1.1 z m -0.1,3.2 c 0.2,-0.1 0.4,-0.1 0.6,-0.2 -0.1,-0.4 -0.1,-0.7 -0.3,-1.1 0,0 -0.4,0 -0.6,0.1 0.1,0.5 0.2,0.9 0.3,1.2 z M 131.6,120.9 c 0.1,0 0.2,-0.1 0.4,-0.1 0,-0.3 0.1,-0.6 0,-0.8 -0.1,-0.3 -0.4,-0.5 -0.6,-0.7 -0.1,0.1 -0.2,0.1 -0.3,0.2 0.1,0.5 0.3,0.9 0.5,1.4 z m 251.7,169 c -0.6,0.7 -0.9,1 -0.8,1 0.1,0.2 0.4,0.4 0.5,0.6 0.2,-0.2 0.5,-0.4 0.5,-0.6 0.1,-0.2 -0.1,-0.5 -0.2,-1 z m 123.1,-69.2 c 0.2,0 0.4,0.1 0.7,0.1 0.1,-0.4 0.1,-0.9 0.2,-1.3 -0.2,0 -0.4,-0.1 -0.5,-0.1 -0.2,0.4 -0.3,0.8 -0.4,1.3 z m -185.7,72.9 c -0.2,0 -0.4,-0.1 -0.5,-0.1 -0.2,0.6 -0.3,1.3 -0.5,1.9 0.1,0 0.2,0.1 0.3,0.1 0.3,-0.7 0.5,-1.3 0.7,-1.9 z m 214.4,-75.1 c -0.2,-0.2 -0.3,-0.5 -0.5,-0.5 -0.2,0 -0.4,0.1 -0.6,0.2 0.1,0.2 0.3,0.5 0.5,0.6 0.1,0.1 0.3,-0.2 0.6,-0.3 z m -189.6,74.7 c -0.1,0.2 -0.1,0.3 -0.2,0.5 0.5,0.2 0.9,0.4 1.4,0.6 0.1,-0.2 0.1,-0.3 0.2,-0.5 -0.5,-0.2 -0.9,-0.4 -1.4,-0.6 z M 192.2,215.5 c -0.2,0.1 -0.5,0.1 -0.7,0.2 0.2,0.4 0.3,0.9 0.5,1.3 0.1,0 0.3,-0.1 0.4,-0.1 0,-0.5 -0.1,-1 -0.2,-1.4 z M 345.1,300 c -0.3,0.5 -0.5,0.8 -0.5,1 0.1,0.2 0.4,0.3 0.6,0.4 0.1,0 0.3,-0.3 0.3,-0.5 0,-0.2 -0.2,-0.4 -0.4,-0.9 z m 179.2,-86.9 c -0.7,0.4 -1,0.6 -1.5,0.9 0.9,0.4 0.9,0.4 1.5,-0.9 z m 3.2,-0.9 c -0.2,0 -0.3,0 -0.5,-0.1 -0.1,0.4 -0.1,0.8 -0.2,1.1 0.2,0 0.3,0 0.5,0.1 0.1,-0.3 0.1,-0.7 0.2,-1.1 z M 440,208.5 c -0.2,0 -0.4,0.1 -0.5,0.1 0.1,0.5 0.2,1 0.4,1.5 0.1,0 0.3,0 0.4,-0.1 -0.2,-0.5 -0.3,-1 -0.3,-1.5 z m 72.3,-9.1 c -0.2,0 -0.4,0 -0.6,0 0,0.6 0,1.1 0,1.7 0.1,0 0.3,0 0.4,0 0.1,-0.6 0.1,-1.2 0.2,-1.7 z m 7.5,-1.1 c 0.2,0.1 0.4,0.2 0.6,0.3 0.2,-0.4 0.3,-0.8 0.5,-1.3 -0.1,0 -0.4,-0.2 -0.4,-0.1 -0.4,0.4 -0.5,0.8 -0.7,1.1 z"
   id="path3" />
</svg>