<?xml version="1.0" standalone="no"?>
<!DOCTYPE svg PUBLIC "-//W3C//DTD SVG 20010904//EN"
 "http://www.w3.org/TR/2001/REC-SVG-20010904/DTD/svg10.dtd">
<svg version="1.0" xmlns="http://www.w3.org/2000/svg"
 width="806.000000pt" height="661.000000pt" viewBox="0 0 806.000000 661.000000"
 preserveAspectRatio="xMidYMid meet">
<metadata>
Created by potrace 1.16, written by Peter Selinger 2001-2019
</metadata>
<g transform="translate(0.000000,661.000000) scale(0.100000,-0.100000)"
fill="#000000" stroke="none">
<path d="M5485 6603 c-167 -14 -313 -36 -362 -53 -79 -28 -144 -73 -253 -177
-186 -176 -410 -452 -895 -1103 -503 -675 -564 -749 -895 -1085 -369 -374
-418 -435 -1205 -1495 -153 -206 -416 -555 -585 -775 -859 -1121 -1140 -1494
-1219 -1615 -68 -104 -80 -143 -57 -188 24 -47 85 -101 120 -108 40 -7 229 28
322 60 38 13 195 81 348 151 153 70 441 192 640 272 199 80 456 185 571 233
552 232 671 271 1014 335 262 49 372 78 719 189 163 52 405 122 537 155 343
86 396 106 645 241 161 87 676 331 985 465 239 104 320 144 443 219 168 102
185 108 291 111 137 5 271 47 271 87 0 4 -16 26 -37 48 -22 25 -33 44 -27 50
5 5 54 19 109 30 121 25 233 61 300 98 38 20 58 41 81 82 79 137 84 143 174
187 47 24 123 53 170 64 156 40 168 58 105 162 -19 32 -35 66 -35 77 0 10 15
28 35 40 44 27 79 92 71 131 -3 15 -21 50 -40 76 -38 54 -50 97 -40 138 8 30
-5 30 170 9 49 -6 53 -5 70 21 14 21 18 48 19 109 0 106 -7 129 -59 182 -38
38 -44 50 -50 101 -10 95 9 229 37 266 40 52 41 70 12 185 -23 90 -27 118 -21
185 10 124 33 224 67 298 35 76 35 122 1 169 -16 22 -29 26 -90 30 -61 4 -75
9 -102 35 -40 37 -152 205 -180 267 -18 42 -19 48 -5 82 21 49 20 51 -25 100
-61 66 -83 72 -190 51 l-89 -17 -45 26 c-46 27 -182 166 -206 211 -12 22 -12
32 -1 58 57 142 57 159 -2 190 -42 21 -67 23 -205 12 l-102 -8 -75 37 c-41 20
-83 48 -94 62 -19 25 -20 28 -5 62 36 83 31 88 -72 74 -62 -9 -80 -7 -179 20
-168 44 -295 65 -463 77 -144 10 -326 12 -417 4z"/>
</g>
</svg>
