<?xml version="1.0" standalone="no"?>
<!DOCTYPE svg PUBLIC "-//W3C//DTD SVG 20010904//EN"
 "http://www.w3.org/TR/2001/REC-SVG-20010904/DTD/svg10.dtd">
<svg version="1.0" xmlns="http://www.w3.org/2000/svg"
 width="1536.000000pt" height="1032.000000pt" viewBox="0 0 1536.000000 1032.000000"
 preserveAspectRatio="xMidYMid meet">
<metadata>
Created by potrace 1.16, written by Peter Selinger 2001-2019
</metadata>
<g transform="translate(0.000000,1032.000000) scale(0.100000,-0.100000)"
fill="#000000" stroke="none">
<path d="M10803 10290 c-107 -54 -203 -180 -203 -267 0 -60 57 -163 151 -273
137 -162 192 -268 214 -415 16 -104 24 -126 64 -168 28 -31 26 -6 21 -272 -2
-119 20 -236 81 -435 36 -114 42 -149 43 -225 1 -86 -1 -95 -36 -165 -20 -41
-76 -127 -124 -190 -49 -63 -111 -146 -139 -183 -67 -88 -141 -229 -156 -295
-6 -29 -15 -54 -20 -58 -24 -14 -121 68 -368 310 -357 350 -566 532 -811 708
-292 210 -580 354 -841 422 -450 116 -1254 145 -1703 60 -88 -17 -237 -69
-501 -174 -602 -241 -883 -411 -1470 -890 -233 -190 -281 -222 -345 -228 -40
-4 -60 1 -105 23 -74 36 -125 85 -125 119 0 49 31 89 214 276 240 245 354 407
440 619 54 135 68 224 61 366 -6 105 -5 127 13 176 23 65 70 137 170 261 124
153 190 285 213 426 29 174 -60 298 -221 310 -55 4 -58 3 -121 -48 -135 -109
-360 -321 -804 -760 -253 -250 -555 -547 -671 -660 -136 -131 -235 -237 -277
-294 -127 -174 -215 -376 -237 -548 -11 -80 -10 -98 14 -221 14 -74 26 -137
26 -140 0 -4 -133 -7 -294 -7 -207 0 -330 -5 -413 -15 -460 -60 -1004 -242
-1298 -435 -265 -174 -403 -443 -326 -638 25 -63 27 -112 5 -158 -28 -59 -153
-192 -380 -404 -346 -323 -479 -457 -509 -512 -35 -65 -41 -142 -21 -275 30
-201 92 -331 188 -400 81 -58 146 -76 299 -81 192 -6 289 21 325 90 37 72 -15
156 -208 337 l-107 100 527 394 c558 418 802 591 996 706 157 93 215 115 285
107 202 -24 660 -263 818 -428 95 -100 196 -260 485 -773 111 -198 199 -332
266 -409 63 -72 92 -144 92 -229 0 -75 -22 -116 -73 -141 -20 -9 -98 -32 -174
-51 -443 -109 -959 -354 -1308 -618 -44 -34 -170 -152 -281 -262 -278 -277
-334 -365 -419 -655 -65 -224 -163 -430 -333 -698 -224 -357 -296 -531 -308
-752 -10 -166 39 -394 122 -567 104 -219 431 -377 490 -238 18 43 9 84 -45
229 -59 154 -75 244 -68 395 6 151 29 247 91 375 46 95 154 260 171 260 6 1
13 -37 17 -84 9 -100 31 -156 69 -176 39 -20 66 -18 124 10 65 31 113 77 219
208 270 335 969 1043 1218 1234 112 86 256 120 583 134 246 11 434 31 635 66
250 44 272 46 365 42 89 -4 92 -5 260 -85 94 -44 220 -97 280 -117 339 -110
827 -199 1380 -251 229 -22 828 -31 1055 -16 610 41 1202 216 1890 560 303
151 451 250 463 309 16 81 199 63 303 -30 84 -75 130 -86 459 -103 247 -13
337 -23 352 -39 4 -3 2 -16 -4 -29 -16 -35 -255 -288 -404 -428 -347 -327
-501 -432 -855 -585 -116 -50 -239 -108 -272 -128 -56 -34 -112 -87 -112 -105
0 -14 34 -38 70 -50 56 -19 283 -33 430 -26 528 24 854 145 1192 442 158 138
360 380 424 505 65 128 116 369 118 553 1 124 -4 138 -81 237 -26 33 -42 62
-38 68 15 24 295 -17 470 -69 266 -79 556 -226 685 -347 36 -34 55 -63 74
-112 89 -237 149 -575 177 -992 16 -251 6 -776 -21 -1065 -33 -357 -36 -449
-15 -481 16 -25 20 -26 76 -20 86 8 145 40 224 120 51 52 83 95 117 161 82
160 113 284 150 600 l13 110 9 -180 c17 -352 -25 -619 -129 -825 -55 -108
-131 -206 -275 -354 -138 -142 -170 -185 -170 -229 0 -64 94 -137 175 -137
125 0 307 99 525 285 248 211 326 393 360 845 23 296 9 1749 -20 2175 -40 587
-131 866 -352 1083 -164 161 -364 277 -838 487 -714 316 -1378 492 -1630 431
-52 -12 -69 -13 -90 -3 -22 11 -25 18 -25 69 1 94 55 187 200 337 201 209 581
551 1175 1059 l245 209 225 -57 c287 -73 476 -136 748 -251 119 -50 291 -120
382 -154 252 -95 365 -157 496 -271 83 -72 140 -149 199 -267 79 -160 129
-176 183 -59 38 80 37 216 -2 347 -80 265 -260 523 -456 654 -309 207 -1230
591 -1535 641 -208 34 -452 -9 -667 -116 -182 -91 -299 -183 -663 -519 -364
-336 -594 -545 -599 -545 -3 0 -1 12 4 28 5 15 37 119 70 232 168 566 219 685
363 855 192 225 256 462 244 904 -18 699 -195 1116 -677 1601 -215 215 -354
307 -482 317 -56 4 -70 1 -125 -27z m-7810 -3415 c32 -8 76 -24 98 -36 59 -30
127 -96 138 -133 12 -46 0 -110 -22 -114 -23 -5 -102 40 -247 139 -131 89
-184 134 -175 149 9 15 143 12 208 -5z m10717 -3277 c57 -94 202 -650 176
-676 -21 -20 -107 162 -182 384 -46 140 -61 227 -50 288 9 45 30 47 56 4z
m-10792 -459 c2 -9 -34 -47 -90 -96 -129 -111 -305 -251 -340 -269 -26 -13
-28 -13 -28 3 0 22 74 160 131 248 46 69 84 96 170 119 70 20 153 17 157 -5z"/>
</g>
</svg>
