<?xml version="1.0" standalone="no"?>
<!DOCTYPE svg PUBLIC "-//W3C//DTD SVG 20010904//EN"
 "http://www.w3.org/TR/2001/REC-SVG-20010904/DTD/svg10.dtd">
<svg version="1.0" xmlns="http://www.w3.org/2000/svg"
 width="1174.000000pt" height="926.000000pt" viewBox="0 0 1174.000000 926.000000"
 preserveAspectRatio="xMidYMid meet">
<metadata>
Created by potrace 1.16, written by Peter Selinger 2001-2019
</metadata>
<g transform="translate(0.000000,926.000000) scale(0.100000,-0.100000)"
fill="#000000" stroke="none">
<path d="M5594 9246 c-15 -11 -93 -16 -339 -24 -176 -5 -342 -10 -370 -10
-142 -2 -331 -16 -336 -25 -4 -5 -51 -16 -105 -23 -239 -32 -460 -73 -640
-119 -58 -15 -127 -25 -169 -25 -102 0 -188 -24 -257 -70 -33 -22 -75 -42 -94
-46 -22 -4 -43 -17 -57 -35 -11 -16 -63 -52 -113 -79 -162 -87 -274 -169 -390
-285 -116 -114 -212 -246 -254 -350 l-21 -53 -112 -27 c-540 -131 -999 -329
-1321 -568 -44 -34 -138 -119 -208 -189 -119 -120 -131 -129 -178 -138 -56
-11 -80 -22 -197 -92 -45 -27 -85 -57 -88 -68 -3 -10 -12 -21 -20 -24 -8 -3
-25 -27 -39 -54 -14 -27 -36 -53 -50 -60 -24 -10 -25 -15 -20 -56 6 -42 5 -45
-20 -52 -28 -7 -38 -44 -11 -44 8 0 15 -2 15 -4 0 -14 -27 -76 -42 -95 -10
-13 -16 -32 -13 -42 3 -9 2 -20 -3 -23 -6 -3 -13 -21 -16 -40 -4 -19 -13 -39
-21 -46 -8 -7 -15 -17 -15 -22 0 -5 -13 -21 -30 -35 -17 -14 -30 -35 -30 -48
0 -12 -7 -28 -15 -35 -19 -16 -19 -39 0 -46 8 -4 15 -11 15 -16 0 -6 13 -27
29 -47 28 -35 29 -38 24 -128 -4 -61 -2 -97 5 -106 7 -8 29 -45 50 -84 45 -81
44 -99 -2 -228 -20 -55 -26 -89 -26 -161 l0 -91 40 -45 c22 -25 63 -61 92 -79
29 -18 70 -48 90 -66 48 -42 105 -70 168 -84 45 -10 55 -8 92 11 30 15 51 20
75 15 24 -4 35 -2 39 9 8 21 64 28 123 15 43 -9 51 -14 45 -27 -14 -31 -6 -80
20 -125 37 -62 85 -82 197 -82 81 0 90 2 170 42 46 23 117 69 158 102 41 34
79 61 86 61 7 0 18 7 25 15 7 8 25 15 41 15 47 0 114 38 127 72 10 26 14 29
41 23 25 -5 32 -2 46 19 10 14 25 26 35 26 11 0 20 10 24 25 5 21 12 25 34 23
24 -3 27 1 32 32 4 29 10 35 36 41 44 8 56 18 49 39 -4 12 3 23 20 34 14 9 25
22 25 29 0 8 11 23 24 34 16 14 23 28 19 41 -3 14 3 25 21 37 16 11 26 27 26
41 0 17 6 24 19 24 29 0 35 17 17 45 -9 13 -12 26 -7 30 5 3 12 1 16 -5 11
-19 22 -10 38 30 14 37 19 40 52 40 22 0 48 -8 63 -21 15 -11 55 -38 90 -59
42 -27 62 -46 62 -60 0 -11 11 -27 25 -36 27 -17 37 -68 12 -58 -8 3 -25 -12
-42 -37 l-28 -43 23 -18 c12 -10 28 -18 36 -18 8 0 14 -10 14 -25 0 -17 6 -25
18 -25 11 0 6 -7 -16 -20 -18 -11 -46 -20 -62 -20 -33 0 -38 -11 -14 -31 17
-14 11 -58 -9 -72 -9 -5 -6 -12 9 -25 11 -10 19 -23 16 -30 -2 -7 27 -27 72
-48 42 -20 76 -39 76 -43 -1 -3 -15 -15 -33 -26 -41 -26 -46 -57 -12 -79 20
-13 24 -20 15 -30 -16 -21 -1 -44 46 -72 l45 -26 -28 -26 -28 -26 32 -13 c43
-17 50 -33 23 -53 -28 -21 -23 -52 10 -60 14 -4 24 -13 22 -20 -2 -8 2 -24 9
-36 20 -39 7 -52 -49 -46 -58 5 -69 -6 -42 -41 28 -36 26 -41 -24 -55 -37 -9
-44 -16 -49 -42 -5 -20 -15 -34 -32 -40 -14 -5 -25 -17 -25 -28 0 -10 -11 -29
-25 -42 -18 -17 -23 -30 -19 -47 6 -21 3 -23 -30 -23 -42 0 -56 -21 -37 -52
11 -17 9 -22 -8 -35 -12 -8 -21 -25 -21 -38 0 -15 -9 -29 -22 -36 -29 -15 -39
-30 -33 -48 3 -7 0 -19 -5 -27 -6 -7 -10 -18 -9 -26 2 -7 -2 -23 -9 -35 -7
-12 -12 -26 -11 -30 4 -22 -3 -31 -27 -37 -16 -4 -29 -17 -36 -36 -5 -17 -16
-30 -24 -30 -22 0 -30 -31 -11 -45 14 -10 2 -15 -66 -29 -45 -10 -115 -29
-155 -42 -82 -27 -238 -34 -260 -12 -8 8 -64 13 -170 16 l-157 4 -47 -30 c-78
-51 -242 -288 -297 -430 -47 -123 -49 -173 -12 -291 28 -90 35 -101 68 -121
l36 -21 28 27 c23 22 32 25 41 16 29 -29 91 -10 116 35 9 15 11 15 33 -1 34
-24 57 -20 73 13 12 22 20 27 39 24 31 -6 57 28 57 73 0 18 8 41 18 53 17 21
164 112 170 106 2 -2 -6 -17 -18 -33 -15 -20 -20 -40 -18 -63 l3 -34 61 -3
c59 -3 65 -1 152 52 49 30 134 84 188 120 100 67 128 76 164 54 17 -11 22 -10
30 2 7 12 12 12 29 -4 14 -13 28 -16 46 -12 14 4 34 2 45 -4 14 -8 26 -8 40 0
20 11 76 1 125 -22 11 -5 46 -10 78 -12 31 -1 58 -4 60 -7 2 -2 16 -21 32 -43
l29 -38 60 7 c86 10 135 10 181 1 43 -8 43 -8 87 87 10 22 19 27 50 27 32 0
40 4 48 26 8 19 15 24 28 19 44 -18 53 -17 83 16 17 19 46 38 63 44 20 6 37
22 48 45 15 30 24 36 63 42 51 7 105 41 105 66 0 24 106 89 167 102 39 9 60
20 82 45 16 18 43 41 60 49 22 12 31 24 31 42 0 24 2 25 38 20 20 -4 42 -3 48
1 18 13 36 53 30 69 -3 7 3 18 14 24 11 6 20 19 20 28 0 27 70 90 105 94 27 3
30 6 29 35 -2 26 3 34 27 43 22 10 29 19 29 40 0 15 8 35 19 44 18 16 19 16
25 -10 4 -14 16 -39 27 -54 17 -22 19 -32 10 -48 -17 -31 -14 -53 20 -159 25
-78 29 -101 20 -115 -13 -21 -11 -26 35 -83 19 -24 41 -71 54 -117 l22 -76
-21 -23 c-30 -32 -26 -50 14 -78 70 -48 215 -219 215 -254 0 -18 -18 -33 -51
-40 -43 -11 -71 -40 -134 -141 -60 -98 -73 -111 -225 -223 -52 -39 -67 -56
-74 -86 -20 -79 25 -96 112 -43 105 65 103 54 -15 -116 -56 -79 -85 -112 -113
-126 -39 -19 -39 -19 -42 2 -4 24 -62 66 -93 66 -28 0 -45 -37 -45 -95 0 -38
6 -52 38 -87 62 -69 109 -98 159 -98 34 0 59 -9 104 -36 52 -33 64 -36 104
-31 41 6 46 4 67 -23 24 -32 43 -37 83 -18 22 10 29 8 54 -16 l30 -28 29 20
c16 12 44 38 63 59 19 21 54 50 77 66 23 15 42 33 42 41 0 19 117 210 175 286
27 36 84 101 127 145 70 73 79 87 96 152 l20 70 -25 44 -25 44 20 41 c17 34
27 43 56 48 20 4 36 13 36 20 0 7 34 28 75 46 83 36 92 44 75 65 -16 19 -4 35
27 35 20 0 24 4 20 19 -6 23 24 54 74 79 28 14 35 24 39 57 9 67 36 115 65
115 31 0 33 23 5 43 -18 13 -19 16 -5 27 8 7 15 21 15 31 0 13 9 19 32 21 48
4 50 35 4 44 -20 3 -36 8 -36 11 0 3 11 14 25 25 16 13 25 29 25 49 0 19 5 29
15 29 20 0 19 17 -1 28 -14 8 -15 14 -5 45 7 19 9 46 6 60 -5 19 -2 27 13 31
23 8 32 33 32 98 0 51 11 68 58 87 18 8 33 23 36 37 5 17 16 26 36 31 42 8 45
18 14 47 -23 21 -28 34 -31 98 -6 87 22 214 65 295 27 52 27 52 8 87 -10 18
-26 38 -36 42 -17 9 -16 17 11 154 42 216 38 212 69 58 16 -77 37 -153 49
-173 13 -22 23 -63 27 -106 4 -38 11 -72 15 -75 13 -8 11 -48 -3 -62 -21 -21
6 -60 44 -64 29 -3 33 -6 30 -30 -4 -39 25 -146 55 -198 14 -25 33 -65 43 -90
l17 -44 16 29 15 30 12 -30 c7 -17 24 -51 37 -77 13 -27 32 -72 42 -100 16
-46 22 -53 43 -51 22 1 29 -8 57 -77 26 -63 36 -77 51 -73 11 3 33 -8 58 -31
22 -20 50 -36 63 -36 47 -1 126 -53 161 -105 26 -39 51 -60 118 -97 57 -32 94
-47 112 -45 24 3 29 -1 39 -30 6 -18 8 -36 5 -41 -2 -4 -87 -2 -188 5 -162 11
-194 11 -273 -4 -49 -9 -111 -15 -136 -14 -58 2 -96 -12 -135 -52 -16 -18 -59
-48 -94 -67 -132 -73 -257 -225 -267 -326 -8 -71 4 -84 72 -84 42 0 55 -4 67
-21 11 -17 26 -22 80 -26 40 -2 69 0 73 7 3 5 24 10 46 10 34 0 41 4 56 34 35
67 104 141 141 152 32 10 43 8 77 -9 86 -43 273 -96 476 -134 83 -16 90 -19
84 -38 -16 -50 -15 -62 5 -88 31 -40 82 -57 165 -57 53 0 87 6 122 21 60 26
257 53 378 51 117 -1 220 24 351 88 82 40 111 60 160 113 103 110 130 192 121
382 -7 166 -51 298 -143 428 -19 26 -34 49 -34 52 0 2 17 -7 37 -21 20 -13 44
-23 52 -22 31 6 22 35 -19 62 -22 14 -40 31 -40 36 0 16 12 12 59 -20 78 -53
111 -32 44 28 l-38 33 42 -21 c55 -26 93 -26 100 0 7 26 8 25 73 -12 30 -17
100 -54 155 -81 96 -49 104 -51 210 -58 170 -12 247 -24 292 -48 49 -25 73
-27 73 -7 0 33 20 23 55 -25 20 -28 54 -70 76 -94 l40 -43 -29 -34 c-58 -66
-63 -98 -17 -98 l24 0 -25 -55 c-14 -31 -23 -63 -20 -72 4 -9 -3 -32 -15 -51
-17 -30 -20 -45 -14 -90 4 -30 12 -55 20 -58 22 -9 8 -115 -18 -135 l-21 -17
23 -85 c21 -80 21 -87 6 -117 -23 -44 -12 -113 22 -135 33 -22 28 -59 -9 -63
-20 -2 -28 -9 -28 -22 0 -10 4 -21 10 -25 5 -3 7 -11 4 -19 -3 -7 15 -28 41
-48 25 -20 55 -47 66 -62 20 -26 20 -26 0 -26 -23 0 -36 -16 -21 -25 5 -3 14
-15 20 -25 8 -16 5 -21 -17 -32 -16 -7 -29 -23 -31 -36 -3 -20 -8 -22 -77 -22
-82 0 -99 -11 -67 -43 19 -18 19 -23 7 -47 -10 -20 -28 -30 -73 -43 -82 -23
-93 -39 -56 -79 19 -20 25 -32 17 -35 -7 -3 -13 -13 -13 -23 0 -12 -17 -25
-55 -40 -105 -43 -128 -76 -77 -116 l27 -22 -25 -10 c-173 -67 -196 -86 -141
-118 24 -14 29 -22 24 -45 -4 -22 0 -30 25 -44 34 -21 32 -45 -3 -45 -36 0
-41 -21 -12 -46 35 -30 34 -34 -9 -34 -100 0 -95 -60 9 -102 28 -12 16 -41
-21 -50 -34 -9 -40 -25 -21 -59 9 -17 7 -21 -10 -26 -27 -7 -27 -21 0 -49 l21
-22 -21 -7 c-29 -9 -26 -40 6 -63 26 -19 26 -20 6 -26 -34 -11 -38 -38 -9 -61
21 -17 26 -29 26 -66 0 -55 20 -85 63 -94 41 -9 57 -22 57 -47 0 -30 28 -76
50 -83 14 -4 20 -15 20 -36 0 -24 8 -35 47 -59 25 -16 61 -34 79 -40 l33 -11
-17 -35 c-18 -39 -13 -55 31 -88 25 -18 29 -18 66 -4 l39 16 9 -47 c8 -43 11
-46 37 -44 16 1 41 -6 55 -16 14 -10 43 -26 64 -34 24 -10 37 -23 37 -34 0
-28 20 -43 58 -43 49 0 72 -16 72 -50 0 -15 3 -35 6 -44 8 -21 44 -20 59 1 11
15 13 15 24 -5 17 -31 51 -48 62 -31 8 11 11 11 19 -3 6 -9 31 -24 58 -33 26
-10 61 -24 77 -32 28 -13 36 -12 115 16 65 22 115 32 210 40 83 6 143 16 178
30 29 12 62 21 73 21 12 0 33 14 47 30 21 24 35 30 65 30 52 0 70 11 109 71
60 94 66 101 96 120 21 12 44 45 72 101 23 46 59 115 81 153 21 39 46 93 55
120 30 89 90 199 115 210 21 9 25 18 29 85 3 42 16 102 28 136 19 49 27 60 45
60 20 -1 22 4 22 55 0 41 5 62 19 78 14 15 17 30 13 60 -3 27 3 61 19 108 13
37 24 76 24 86 0 10 7 20 15 22 53 17 52 15 24 39 -21 18 -26 30 -22 50 7 33
-22 352 -43 490 -9 54 -12 102 -7 106 4 5 17 10 28 12 12 2 20 12 21 23 1 11
8 34 17 51 19 37 38 130 77 370 17 101 37 213 45 249 11 46 15 112 13 232 -1
152 1 175 21 237 21 61 23 79 16 160 -4 50 -7 152 -6 227 4 221 -23 357 -77
399 -20 16 -31 44 -53 132 -16 61 -42 152 -59 202 -29 87 -30 95 -21 187 8 78
14 102 36 135 25 36 27 44 22 119 -3 44 -15 107 -27 140 -12 33 -30 114 -41
180 -24 154 -60 292 -104 406 -19 50 -35 105 -35 123 0 33 -42 109 -74 136
-32 25 -160 200 -196 267 -52 94 -90 133 -130 133 -36 0 -72 26 -176 126 -86
84 -165 136 -211 140 -21 1 -90 27 -153 57 -63 30 -133 61 -154 68 -28 10 -59
37 -112 99 -39 47 -102 114 -138 149 -38 38 -68 76 -71 93 -9 40 -42 68 -82
68 -21 0 -53 13 -86 34 -28 18 -67 42 -85 52 -29 16 -38 32 -63 108 -68 203
-206 421 -374 591 -488 492 -1395 875 -2645 1116 -359 69 -373 71 -639 76
-198 4 -258 9 -269 19 -18 18 -92 18 -118 0z"/>
</g>
</svg>
