<?xml version="1.0" standalone="no"?>
<!DOCTYPE svg PUBLIC "-//W3C//DTD SVG 20010904//EN"
 "http://www.w3.org/TR/2001/REC-SVG-20010904/DTD/svg10.dtd">
<svg version="1.0" xmlns="http://www.w3.org/2000/svg"
 width="595.000000pt" height="573.000000pt" viewBox="0 0 595.000000 573.000000"
 preserveAspectRatio="xMidYMid meet">
<metadata>
Created by potrace 1.16, written by Peter Selinger 2001-2019
</metadata>
<g transform="translate(0.000000,573.000000) scale(0.100000,-0.100000)"
fill="#000000" stroke="none">
<path d="M4025 5716 c-88 -20 -182 -58 -255 -103 -129 -78 -127 -78 -400 -79
-195 0 -262 -4 -329 -18 -102 -22 -129 -19 -356 36 -141 35 -187 42 -270 42
-121 0 -226 -22 -315 -67 -84 -42 -106 -75 -114 -169 -12 -134 -16 -148 -55
-191 -20 -22 -146 -113 -281 -202 -187 -124 -275 -190 -370 -276 -511 -464
-934 -1003 -1083 -1379 -89 -224 -196 -702 -197 -872 0 -77 17 -192 46 -318
14 -58 51 -231 84 -385 151 -723 230 -895 491 -1072 68 -47 223 -122 434 -211
105 -44 246 -105 314 -136 379 -173 615 -254 841 -292 291 -48 756 -16 1152
80 231 56 372 119 590 265 275 185 755 572 981 791 298 288 497 575 735 1058
164 332 254 578 274 755 21 181 -25 461 -122 742 -68 198 -321 665 -495 915
-165 237 -385 478 -517 566 -37 25 -142 81 -235 125 -264 126 -275 136 -323
282 -31 94 -54 119 -116 123 -27 2 -76 -3 -109 -10z"/>
</g>
</svg>
