<?xml version="1.0" standalone="no"?>
<!DOCTYPE svg PUBLIC "-//W3C//DTD SVG 20010904//EN"
 "http://www.w3.org/TR/2001/REC-SVG-20010904/DTD/svg10.dtd">
<svg version="1.0" xmlns="http://www.w3.org/2000/svg"
 width="1536.000000pt" height="343.000000pt" viewBox="0 0 1536.000000 343.000000"
 preserveAspectRatio="xMidYMid meet">
<metadata>
Created by potrace 1.16, written by Peter Selinger 2001-2019
</metadata>
<g transform="translate(0.000000,343.000000) scale(0.100000,-0.100000)"
fill="#000000" stroke="none">
<path d="M4805 3419 c-404 -16 -694 -72 -907 -173 -138 -65 -227 -132 -366
-273 l-134 -135 -61 -8 c-241 -33 -893 -53 -1234 -38 l-242 10 -103 -26 c-181
-45 -381 -55 -561 -26 -34 5 -67 3 -109 -8 -53 -13 -81 -13 -217 -2 -177 14
-227 7 -255 -35 -15 -23 -22 -25 -104 -25 -64 0 -98 -6 -129 -19 -23 -11 -80
-31 -128 -46 -113 -34 -127 -48 -124 -127 2 -57 1 -62 -27 -81 -16 -12 -46
-38 -67 -58 -30 -30 -37 -44 -37 -76 0 -64 25 -79 145 -87 55 -3 141 -13 190
-21 129 -21 224 -19 332 9 91 23 92 23 145 5 89 -31 180 -20 285 34 28 15 33
15 73 -5 l43 -22 111 23 c61 12 152 30 201 41 57 12 168 23 300 30 152 7 307
24 560 60 372 52 486 65 686 75 l125 7 0 -119 c-1 -138 12 -199 64 -308 130
-269 461 -470 1044 -636 776 -220 1693 -252 2966 -103 654 76 1214 200 1855
410 499 164 917 344 1310 565 l140 78 70 -10 c87 -12 142 -30 275 -89 58 -26
128 -55 155 -63 43 -14 194 -37 247 -37 11 0 18 -10 20 -27 3 -24 -15 -47
-120 -156 -67 -71 -144 -157 -170 -191 -27 -36 -118 -204 -212 -392 l-165
-329 -77 4 c-62 2 -79 0 -83 -12 -9 -21 -89 -30 -128 -14 -86 36 -115 27 -51
-16 l35 -25 -53 -13 c-50 -12 -52 -13 -24 -20 28 -8 88 0 168 22 27 7 43 7 52
0 15 -13 173 3 216 22 15 6 45 32 65 57 56 67 170 187 162 170 -3 -8 -36 -85
-72 -170 -91 -214 -85 -205 -137 -203 -262 9 -329 12 -365 18 -30 5 -43 4 -43
-4 0 -6 3 -11 8 -11 4 0 18 -9 32 -20 l25 -19 -48 -20 c-30 -13 -46 -25 -41
-32 9 -15 69 -5 125 21 47 21 157 28 174 11 6 -5 65 -11 132 -13 140 -3 123
-14 200 117 32 54 91 125 181 220 158 165 213 246 381 554 148 271 169 303
190 296 9 -2 60 -14 115 -25 84 -17 137 -20 357 -20 l259 0 0 -57 c0 -32 -5
-120 -12 -196 -29 -330 57 -606 309 -991 72 -110 69 -95 59 -289 -4 -83 -4
-83 -81 -165 -29 -31 -55 -47 -94 -59 -41 -11 -50 -18 -39 -24 9 -5 36 -5 62
0 50 9 55 4 30 -35 -27 -41 -6 -40 37 2 50 48 118 143 150 209 20 42 24 64 23
140 -1 78 -7 109 -47 232 -27 84 -53 189 -62 255 -37 254 -109 520 -206 756
l-39 96 57 50 c96 86 97 87 175 93 l73 5 -52 -36 c-87 -60 -100 -94 -63 -167
12 -22 32 -77 45 -122 71 -246 246 -576 420 -792 39 -49 91 -118 114 -153 38
-57 43 -71 52 -155 5 -50 14 -105 19 -122 5 -16 14 -67 19 -113 11 -89 13 -95
44 -129 13 -14 18 -30 14 -45 -22 -86 -22 -85 1 -64 12 10 27 34 34 52 7 19
19 34 28 34 26 0 85 19 105 34 17 12 10 13 -52 9 l-72 -6 -11 44 c-6 24 -17
67 -25 95 -10 33 -13 73 -9 115 10 107 -26 272 -117 539 -114 333 -222 537
-369 693 -34 37 -61 69 -58 72 13 13 515 195 538 195 5 0 6 -18 3 -41 -3 -22
-1 -57 5 -77 6 -20 19 -71 28 -112 30 -131 111 -365 159 -462 26 -51 95 -167
153 -258 58 -91 118 -186 134 -211 16 -25 36 -72 44 -105 9 -34 28 -72 45 -92
16 -18 29 -39 29 -47 0 -26 52 -75 117 -111 51 -29 69 -45 86 -80 26 -55 52
-60 44 -10 -5 34 -5 35 34 38 57 4 50 20 -18 41 -132 41 -145 49 -183 113 -64
104 -118 250 -145 389 -14 72 -35 161 -46 199 -28 94 -106 243 -218 416 -52
80 -111 176 -132 214 l-37 69 51 61 c29 34 61 73 72 88 15 22 33 30 78 39 88
16 91 13 52 -53 -47 -80 -70 -147 -61 -183 5 -18 34 -53 74 -90 36 -33 108
-100 160 -148 123 -115 186 -162 334 -253 146 -90 283 -192 355 -266 28 -29
77 -93 108 -143 31 -49 65 -93 75 -97 11 -4 29 -26 40 -48 26 -50 104 -127
184 -181 87 -58 113 -51 55 16 l-31 35 47 0 c25 0 44 4 41 9 -3 4 -40 18 -83
30 l-78 23 -55 89 c-30 50 -75 117 -100 151 -25 33 -65 88 -90 123 -64 89
-251 306 -343 398 -75 73 -128 111 -402 285 -63 41 -115 77 -115 82 0 18 95
134 210 255 133 140 132 139 172 149 24 5 28 1 49 -41 31 -64 98 -129 166
-160 112 -51 228 -16 354 107 88 87 132 176 137 277 4 63 1 78 -22 119 -29 53
-32 67 -13 83 17 14 134 30 285 40 111 7 116 8 87 22 -22 10 -67 14 -172 13
-78 -1 -152 -4 -165 -7 -23 -6 -24 -3 -35 77 -6 46 -18 97 -27 113 -15 30 -15
30 46 89 88 87 281 324 263 324 -4 0 -81 -73 -171 -161 -91 -89 -167 -159
-170 -156 -3 3 2 26 10 51 9 26 16 77 16 115 0 63 -3 72 -39 122 -46 64 -103
112 -169 142 -37 17 -67 21 -137 22 -108 0 -163 -22 -236 -96 -57 -56 -77 -92
-90 -165 -13 -72 1 -132 46 -199 31 -46 33 -51 18 -67 -15 -16 -18 -14 -60 32
-82 91 -250 151 -378 135 -28 -4 -71 -2 -96 4 -107 28 -373 111 -599 189 -607
208 -564 195 -685 200 -92 3 -120 0 -169 -17 -71 -25 -118 -59 -152 -111 -24
-35 -31 -39 -92 -50 -224 -37 -314 -32 -777 45 l-320 53 -640 12 c-483 10
-685 10 -825 1 -748 -45 -1254 -39 -2140 29 -421 32 -690 47 -1500 85 -545 25
-738 28 -1075 14z m6980 -1289 c33 -8 33 -8 -60 -40 -32 -11 -64 -26 -71 -32
-6 -7 -67 -80 -137 -163 -137 -164 -271 -309 -263 -285 11 34 144 347 158 375
14 26 36 39 135 78 65 26 129 54 143 62 27 15 48 17 95 5z"/>
</g>
</svg>
