<?xml version="1.0" encoding="UTF-8" standalone="no"?>
<!-- Created with Inkscape (http://www.inkscape.org/) -->

<svg
   xmlns:svg="http://www.w3.org/2000/svg"
   xmlns="http://www.w3.org/2000/svg"
   version="1.2"
   width="612"
   height="792"
   viewBox="0 0 612 792"
   id="Layer_1"
   xml:space="preserve"><defs
   id="defs7" />
    
    <path
   d="m 286.5,379.35 4.649,-0.35 22.851,0.35 10.05,-1.1 7.399,-0.2 3.101,0.3 0.75,0.15 c 0.533,0.1 1.033,0.217 1.5,0.35 0.466,0.133 0.899,0.267 1.3,0.4 0.434,0.133 0.816,0.283 1.15,0.45 0.366,0.167 0.699,0.35 1,0.55 0.6,0.333 1.1,0.733 1.5,1.2 0.399,0.433 0.717,0.917 0.949,1.45 0.134,0.3 0.283,0.6 0.45,0.9 0.167,0.267 0.351,0.5 0.55,0.7 0.234,0.2 0.5,0.4 0.801,0.6 0.333,0.167 0.699,0.316 1.1,0.45 0.434,0.133 0.934,0.267 1.5,0.4 0.566,0.133 1.217,0.25 1.95,0.35 0.733,0.1 1.566,0.2 2.5,0.3 l 9.95,1.1 0.8,0.15 c 0.267,0.066 0.483,0.133 0.649,0.2 0.367,0.133 0.717,0.3 1.051,0.5 0.666,0.367 1.05,0.767 1.149,1.2 0.067,0.367 -0.033,0.75 -0.3,1.15 -0.2,0.3 -0.45,0.567 -0.75,0.8 -0.3,0.2 -0.717,0.35 -1.25,0.45 -0.267,0.033 -0.6,0.067 -1,0.1 l -19.9,0.15 -2.05,0.4 c -1.134,0.233 -2.3,0.534 -3.5,0.9 -1.167,0.367 -2.384,0.783 -3.649,1.25 -1.234,0.466 -2.518,1.017 -3.851,1.65 -1.3,0.566 -2.649,1.216 -4.05,1.95 l -1.8,1 c -0.467,0.267 -0.817,0.517 -1.05,0.75 -0.268,0.2 -0.434,0.366 -0.5,0.5 -0.101,0.3 -0.367,0.717 -0.801,1.25 l -3.25,3.5 c -0.566,0.567 -1.1,1.034 -1.6,1.4 -0.434,0.3 -0.883,0.6 -1.35,0.899 -0.434,0.301 -0.884,0.584 -1.351,0.851 -0.433,0.233 -0.866,0.466 -1.3,0.7 -0.434,0.232 -0.867,0.434 -1.3,0.6 -0.4,0.2 -0.784,0.367 -1.15,0.5 -0.366,0.1 -0.716,0.2 -1.05,0.3 -0.367,0.067 -0.684,0.101 -0.95,0.101 -0.2,0 -0.384,-0.018 -0.55,-0.051 -0.333,-0.133 -0.617,-0.3 -0.85,-0.5 -0.2,-0.199 -0.35,-0.449 -0.45,-0.75 -0.1,-0.3 -0.134,-0.666 -0.1,-1.1 0.033,-0.434 0.117,-0.916 0.25,-1.45 0.133,-0.5 0.183,-0.866 0.15,-1.1 -0.033,-0.267 -0.267,-0.45 -0.7,-0.55 -0.2,-0.066 -0.483,-0.117 -0.85,-0.15 -0.367,-0.033 -0.817,-0.05 -1.351,-0.05 l -9.649,-0.15 c -0.634,-0.033 -1.184,-0.066 -1.65,-0.1 -0.433,-0.067 -0.767,-0.116 -1,-0.15 L 279.8,402.4 H 276 c -0.234,0 -0.484,0.033 -0.75,0.1 -0.234,0.033 -0.467,0.084 -0.7,0.15 -0.233,0.066 -0.483,0.149 -0.75,0.25 l -6.9,3.25 c -0.399,0.166 -0.783,0.3 -1.149,0.399 l -2.351,0.75 -0.25,1.2 c -0.1,0.434 -0.233,0.85 -0.399,1.25 -0.134,0.4 -0.316,0.8 -0.551,1.2 -0.199,0.366 -0.434,0.716 -0.699,1.05 -0.234,0.3 -0.484,0.584 -0.75,0.85 -0.268,0.268 -0.5,0.467 -0.7,0.601 -0.2,0.1 -0.384,0.167 -0.55,0.2 -0.134,0 -0.25,-0.051 -0.351,-0.15 -0.1,-0.133 -0.216,-0.3 -0.35,-0.5 -0.067,-0.1 -0.167,-0.2 -0.3,-0.3 -0.101,-0.134 -0.234,-0.267 -0.4,-0.4 l -2.15,-1.35 -0.35,-0.3 c -0.1,-0.101 -0.184,-0.184 -0.25,-0.25 -0.066,-0.134 -0.133,-0.217 -0.2,-0.25 -0.033,-0.066 -0.1,-0.084 -0.2,-0.051 -0.066,0 -0.166,0.033 -0.3,0.101 -0.066,0.033 -0.167,0.066 -0.3,0.1 l -0.45,0.101 h -0.55 l -4.7,-0.45 h -0.35 c -0.333,0 -0.634,0.017 -0.9,0.05 -0.333,0.033 -0.634,0.084 -0.899,0.15 l -0.45,0.149 -0.7,0.101 -0.15,-0.051 c -0.066,-0.066 -0.066,-0.184 0,-0.35 0.066,-0.166 0.15,-0.367 0.25,-0.6 0.167,-0.234 0.334,-0.484 0.5,-0.75 0.2,-0.268 0.417,-0.551 0.65,-0.851 0.267,-0.3 0.533,-0.583 0.8,-0.85 2.333,-2.434 5.601,-3.784 9.8,-4.05 l 2.301,-0.2 1.1,-1.9 c 0.267,-0.433 0.6,-0.933 1,-1.5 l 2.25,-2.8 4.4,-4.45 c 0.533,-0.5 1.033,-0.9 1.5,-1.2 0.3,-0.233 0.649,-0.483 1.05,-0.75 l 7.149,-3.9 c 0.4,-0.233 0.768,-0.45 1.101,-0.65 0.333,-0.2 0.634,-0.4 0.899,-0.6 0.533,-0.4 0.967,-0.8 1.301,-1.2 0.366,-0.4 0.717,-0.867 1.05,-1.4 l 1.35,-1.9 c 0.134,-0.133 0.233,-0.233 0.3,-0.3 0.234,-0.167 0.566,-0.316 1,-0.45 0.431,-0.166 0.947,-0.282 1.548,-0.349 z"
   id="path3"
   style="fill:#010101;fill-rule:evenodd" />
    
</svg>