<?xml version="1.0" standalone="no"?>
<!DOCTYPE svg PUBLIC "-//W3C//DTD SVG 20010904//EN"
 "http://www.w3.org/TR/2001/REC-SVG-20010904/DTD/svg10.dtd">
<svg version="1.0" xmlns="http://www.w3.org/2000/svg"
 width="796.000000pt" height="1536.000000pt" viewBox="0 0 796.000000 1536.000000"
 preserveAspectRatio="xMidYMid meet">
<metadata>
Created by potrace 1.16, written by Peter Selinger 2001-2019
</metadata>
<g transform="translate(0.000000,1536.000000) scale(0.100000,-0.100000)"
fill="#000000" stroke="none">
<path d="M6291 15285 c-34 -36 -75 -93 -91 -126 -19 -38 -40 -63 -55 -69 -25
-9 -202 -30 -260 -30 l-33 0 6 46 c3 34 2 45 -7 40 -6 -4 -11 -20 -11 -35 0
-15 -6 -35 -12 -44 -13 -16 -133 -47 -185 -47 l-25 0 22 38 c18 31 13 27 -33
-23 l-54 -59 -13 24 c-10 19 -10 40 0 107 7 46 10 86 7 89 -6 6 -22 -72 -32
-154 -8 -60 -21 -77 -72 -91 -39 -11 -63 -1 -63 26 0 16 -42 100 -64 128 -10
11 -5 -6 10 -40 52 -119 53 -125 28 -149 -25 -26 -49 -19 -62 18 -22 60 -38
63 -63 14 -32 -63 -90 -146 -142 -203 l-45 -50 -7 79 c-10 104 -1 182 30 257
32 79 24 91 -11 15 -30 -65 -44 -148 -44 -262 0 -88 -13 -139 -37 -148 -16 -7
-16 -5 2 80 5 24 4 26 -5 11 -6 -10 -17 -45 -24 -78 -20 -98 -31 -70 -30 74 1
94 6 145 18 177 13 38 13 42 1 25 -34 -44 -42 -113 -45 -396 0 -14 -6 -34 -14
-45 -19 -25 -33 -11 -57 58 -23 66 -25 29 -3 -50 16 -56 15 -59 -6 -105 -12
-26 -26 -47 -30 -47 -4 0 -31 25 -60 56 -110 121 -134 214 -160 614 -19 284
-28 280 -29 -15 -1 -376 7 -447 58 -549 22 -45 61 -105 87 -135 l48 -54 -33
-29 c-30 -27 -40 -30 -80 -26 -25 3 -79 19 -119 37 -150 66 -242 65 -467 -5
-165 -51 -203 -50 -289 5 -50 33 -65 48 -60 60 53 130 77 253 94 476 10 136
14 473 6 464 -2 -2 -18 -114 -35 -249 -34 -267 -60 -413 -91 -511 -20 -66 -57
-135 -66 -126 -3 3 6 42 20 86 25 79 82 428 72 439 -10 10 -23 -44 -30 -126
-13 -166 -63 -362 -92 -362 -9 0 -41 22 -72 49 -31 27 -69 60 -84 73 -25 21
-29 34 -43 147 -9 69 -21 132 -26 140 -7 11 -7 -2 -2 -39 4 -30 8 -91 8 -135
0 -76 -1 -80 -24 -83 -35 -5 -68 6 -76 25 -4 10 -13 72 -21 137 -8 75 -18 125
-27 134 -13 12 -13 7 -1 -44 18 -75 18 -208 2 -222 -37 -30 -130 66 -144 147
-11 66 -47 181 -60 192 -9 7 -4 -16 11 -62 48 -140 18 -146 -64 -14 -17 28
-31 43 -31 35 0 -8 25 -51 56 -96 38 -56 57 -94 61 -124 l6 -43 -59 8 c-32 4
-65 12 -71 17 -8 6 -13 34 -13 67 0 31 -4 74 -8 96 -6 33 -8 22 -12 -60 -5
-95 -6 -100 -28 -103 -36 -5 -49 13 -67 90 -16 70 -40 138 -49 138 -2 0 2 -23
9 -51 8 -29 17 -77 20 -108 l6 -56 -24 38 c-13 21 -35 49 -48 63 -27 29 -98
69 -107 60 -3 -3 16 -15 41 -26 46 -20 78 -55 96 -103 12 -31 -5 -41 -56 -31
-26 5 -42 17 -63 48 -64 91 -92 127 -96 123 -3 -2 14 -32 37 -65 51 -74 48
-92 -15 -92 -69 0 -89 13 -152 94 -32 42 -60 74 -62 72 -2 -2 22 -39 53 -82
l57 -79 -67 -3 c-72 -3 -95 7 -96 42 0 17 -3 16 -16 -11 -19 -37 -46 -51 -117
-59 -49 -6 -55 -4 -92 27 -63 54 -74 58 -20 7 l50 -46 -36 -15 c-20 -8 -61
-21 -91 -27 -52 -12 -58 -11 -123 18 -80 36 -120 46 -129 33 -3 -5 19 -14 48
-21 55 -11 117 -43 117 -60 0 -5 -19 -19 -43 -31 -23 -12 -114 -62 -201 -112
-133 -76 -166 -92 -203 -92 -23 0 -43 -1 -43 -2 0 -1 14 -10 32 -19 31 -16 31
-16 11 -33 -265 -209 -351 -264 -448 -286 -38 -9 -76 -21 -85 -26 -15 -10 -6
-9 93 7 28 5 37 3 37 -7 0 -32 -314 -413 -431 -523 -102 -96 -173 -139 -295
-177 -155 -48 -230 -78 -250 -101 -18 -19 -15 -19 31 5 91 45 265 93 265 72 0
-21 -39 -70 -105 -135 -126 -123 -152 -166 -39 -64 114 103 141 121 157 105 8
-8 2 -23 -20 -53 -45 -64 -50 -78 -12 -33 19 22 46 53 61 70 l27 30 -38 -120
c-39 -119 -58 -195 -48 -185 3 3 24 62 47 132 l41 127 93 103 c167 185 458
462 577 551 63 46 218 152 344 234 510 333 609 373 880 359 247 -12 607 -72
744 -124 29 -12 108 -51 175 -88 66 -37 149 -82 184 -101 35 -19 62 -41 62
-49 0 -9 -10 -30 -22 -47 -29 -42 -179 -197 -191 -197 -5 0 -28 16 -51 35 -59
48 -93 60 -252 90 -76 14 -161 31 -189 39 -124 34 -236 25 -366 -29 -116 -49
-190 -106 -286 -217 -167 -195 -337 -433 -386 -540 -14 -31 -68 -124 -121
-205 -105 -164 -156 -257 -156 -282 0 -9 22 25 48 74 57 107 179 290 216 324
23 21 29 23 52 12 24 -11 26 -15 20 -53 -10 -63 -38 -118 -82 -162 l-39 -39
39 23 39 24 -7 -30 c-4 -16 -29 -78 -56 -139 -56 -129 -80 -197 -80 -228 1
-12 13 14 29 58 15 44 39 103 53 130 14 28 37 83 52 122 36 101 59 145 130
243 58 82 61 84 64 55 8 -62 -36 -461 -68 -625 -24 -126 -31 -179 -21 -160 9
16 42 177 61 295 6 39 22 175 35 304 26 248 35 279 90 315 30 20 30 31 10
-159 -16 -160 -18 -194 -5 -151 5 16 16 99 25 184 9 86 22 170 29 187 8 17 39
58 70 91 l57 59 -5 -135 c-5 -149 7 -120 19 45 7 102 25 165 46 165 13 0 6
-210 -10 -311 -4 -27 -6 -49 -4 -49 9 0 26 62 38 145 l14 90 -4 -130 c-3 -98
-10 -153 -29 -225 -29 -109 -29 -107 -17 -94 15 15 49 143 62 232 11 78 8 221
-7 345 -6 47 -4 51 32 88 33 34 39 37 46 22 10 -28 9 -265 -2 -408 -6 -70 -9
-129 -7 -132 12 -11 30 184 36 367 l6 205 37 3 c42 4 44 -1 23 -51 -20 -48
-45 -249 -44 -350 1 -114 17 -61 18 63 1 109 16 211 36 249 l13 26 6 -35 c4
-19 10 -84 15 -145 l8 -110 2 150 c1 134 3 148 16 131 19 -25 74 -167 86 -220
8 -37 8 -36 4 17 -4 60 -45 164 -85 214 -25 32 -26 53 0 53 46 0 368 -189 393
-231 8 -12 -7 -54 -58 -165 -37 -82 -77 -173 -88 -202 -33 -86 -120 -172 -175
-172 -48 0 -233 -136 -289 -212 -40 -55 -66 -71 -141 -87 -29 -6 -70 -20 -91
-31 -38 -19 -143 -126 -163 -165 -5 -11 20 12 56 52 37 39 81 81 100 92 30 19
182 58 191 49 7 -7 -73 -197 -107 -254 -49 -81 -110 -205 -104 -211 2 -3 26
36 53 87 60 113 124 213 140 218 18 5 26 -22 19 -62 -7 -39 -132 -257 -253
-440 -46 -70 -82 -130 -80 -133 11 -11 251 366 320 502 19 39 44 81 55 95 18
21 21 23 27 9 4 -10 -14 -61 -43 -125 -28 -60 -60 -143 -72 -184 -13 -41 -36
-104 -51 -139 -16 -35 -27 -66 -25 -69 11 -10 48 69 77 163 35 112 107 281
141 330 12 18 36 41 53 51 16 9 53 39 82 66 28 26 61 48 73 48 18 0 20 -4 15
-32 -25 -148 -89 -552 -106 -678 -30 -221 -39 -925 -15 -1152 25 -237 37 -541
42 -1060 l4 -477 33 -52 32 -52 7 -301 c7 -350 21 -459 84 -676 13 -47 29
-114 34 -150 15 -94 119 -470 138 -502 9 -14 31 -46 49 -70 17 -24 71 -120
120 -214 136 -258 191 -330 286 -374 33 -16 71 -49 124 -109 119 -134 208
-204 311 -244 55 -22 167 -21 255 2 37 9 69 15 72 13 3 -3 5 -35 5 -71 0 -82
14 -134 50 -186 l28 -40 -23 -135 c-36 -200 -47 -425 -43 -853 l3 -382 -24
-45 c-13 -25 -76 -99 -141 -165 -94 -98 -127 -139 -174 -224 -114 -202 -230
-465 -241 -546 -9 -63 6 -51 30 25 26 82 169 358 245 473 37 56 114 151 171
211 124 130 120 133 123 -94 1 -179 -6 -212 -81 -349 -65 -120 -138 -268 -178
-367 -125 -300 -220 -668 -230 -884 l-4 -95 19 95 c72 353 120 515 222 755 58
138 172 364 210 418 11 15 25 27 32 27 55 0 45 -243 -23 -555 -51 -233 -89
-515 -155 -1155 -65 -623 -80 -832 -116 -1590 -12 -239 -25 -474 -29 -522 -4
-48 -4 -84 1 -80 17 17 39 281 68 832 26 476 62 848 161 1650 41 337 71 523
128 810 48 239 63 327 77 460 7 77 18 100 44 100 29 0 31 -13 20 -102 -5 -46
-21 -193 -35 -328 -14 -135 -41 -366 -60 -515 -47 -372 -59 -493 -99 -1015
-83 -1072 -112 -1675 -87 -1845 7 -49 7 -49 14 35 3 47 11 220 17 385 24 655
116 1729 200 2315 22 151 53 394 70 540 51 450 67 560 80 560 4 0 19 -42 34
-94 56 -199 58 -211 63 -681 3 -242 8 -444 13 -448 15 -16 35 324 35 603 0
311 -3 340 -71 630 -19 80 -34 162 -34 184 0 23 15 72 39 125 49 110 75 217
101 416 27 204 35 235 61 235 24 0 33 -21 54 -125 29 -140 106 -417 138 -495
38 -95 39 -162 3 -355 -52 -283 -67 -525 -69 -1100 -2 -404 -2 -413 25 -570
41 -243 56 -582 74 -1650 7 -430 14 -539 38 -563 14 -14 14 -12 4 24 -7 26 -9
133 -5 334 8 385 29 677 92 1270 62 581 75 851 75 1540 -1 440 -4 533 -26 667
-6 36 -4 43 10 43 35 0 111 -205 157 -423 42 -196 35 -903 -11 -1067 -11 -41
-27 -104 -35 -140 -55 -243 -94 -1229 -65 -1610 11 -136 30 -283 37 -277 2 2
-2 137 -9 300 -9 232 -9 364 0 614 23 590 47 810 119 1092 l45 176 5 255 c6
276 -9 621 -31 735 -8 39 -32 132 -54 207 -71 239 -66 283 19 189 61 -65 107
-161 125 -259 38 -199 76 -381 113 -537 74 -316 83 -377 88 -637 6 -266 -7
-484 -38 -622 -11 -50 -19 -115 -17 -145 3 -50 6 -40 36 112 44 220 55 390 49
732 -7 309 -12 353 -87 665 -23 96 -52 248 -65 337 -36 240 -45 262 -195 472
-33 46 -65 103 -72 125 -13 48 -17 285 -4 304 11 18 35 -4 108 -101 108 -146
149 -236 308 -682 73 -204 120 -321 106 -260 -58 242 -229 750 -291 863 -44
78 -103 160 -170 232 -28 30 -56 62 -63 71 -6 8 -23 94 -37 190 -14 96 -38
224 -52 284 -27 113 -32 218 -23 465 3 80 -2 125 -34 280 -39 192 -40 218 -17
360 5 30 10 87 10 125 2 92 8 102 59 87 63 -19 76 -15 169 47 159 107 366 319
485 496 70 104 326 612 385 765 43 109 55 162 73 315 5 50 21 122 35 162 43
123 58 254 51 458 -3 99 -13 218 -21 265 -19 109 -19 194 0 256 30 98 38 302
32 804 -8 709 -22 881 -128 1605 -77 528 -119 796 -149 953 -11 57 -20 117
-20 135 l0 32 18 -26 c9 -15 41 -55 71 -90 109 -128 208 -296 375 -636 50
-101 92 -181 94 -178 14 14 -251 529 -354 688 -36 54 -62 102 -59 108 4 5 19
9 35 9 45 0 110 -99 195 -298 26 -62 50 -111 51 -109 7 7 -37 122 -86 225 -28
58 -50 106 -50 108 0 35 142 -149 277 -360 47 -72 114 -191 150 -263 35 -73
66 -133 68 -133 2 0 -3 20 -12 45 -53 156 -291 528 -463 725 -31 36 -62 75
-69 87 -15 29 -14 73 2 73 29 0 200 -197 393 -450 168 -222 198 -264 246 -355
21 -38 38 -65 38 -58 0 23 -50 125 -87 177 -79 109 -338 443 -376 486 -150
167 -444 471 -504 521 -40 33 -84 79 -97 102 -42 73 -196 435 -196 461 0 30
25 48 103 75 57 20 58 20 77 1 10 -10 34 -70 54 -133 20 -63 43 -130 51 -148
l16 -34 -7 35 c-3 19 -26 97 -51 172 -25 75 -42 142 -38 148 3 5 42 10 90 10
l84 0 6 -32 c3 -18 12 -92 20 -165 18 -158 39 -264 61 -301 l15 -27 -5 25
c-45 198 -73 410 -62 455 16 61 54 -32 76 -185 15 -99 39 -187 56 -201 16 -13
18 -5 5 20 -17 31 -82 374 -73 383 5 5 28 -8 54 -28 l46 -37 7 -111 c10 -158
28 -252 80 -415 52 -161 85 -242 92 -223 3 7 -11 49 -30 95 -64 148 -117 385
-117 518 0 37 5 71 10 74 10 6 15 -14 11 -53 -1 -13 2 -29 8 -36 11 -14 32
-99 61 -250 12 -61 26 -117 31 -125 8 -12 9 -6 4 19 -3 19 -13 71 -21 115 -18
101 -19 168 -1 163 6 -2 31 -40 54 -84 23 -43 42 -73 43 -66 0 17 -46 107 -81
159 -34 49 -119 221 -119 240 0 37 153 -75 374 -273 l48 -44 29 -155 c43 -238
91 -426 105 -413 2 3 0 18 -6 33 -12 31 -100 467 -100 493 0 13 5 12 20 -8 10
-14 27 -25 37 -25 12 0 19 -9 21 -25 2 -14 16 -59 32 -100 67 -173 79 -210
104 -313 26 -107 55 -179 77 -192 6 -4 2 10 -9 31 -27 54 -52 141 -52 183 0
20 -9 79 -20 131 -11 52 -20 116 -20 142 0 53 15 102 29 93 9 -5 52 -112 106
-258 35 -97 24 -37 -20 107 -25 82 -45 156 -45 165 2 47 201 -242 289 -418 32
-64 86 -185 121 -268 35 -84 65 -151 67 -149 10 9 -156 411 -207 502 -16 29
-67 105 -113 170 -119 170 -504 681 -550 731 -55 60 -152 129 -293 210 -127
73 -213 105 -329 123 -120 19 -179 6 -409 -95 -126 -55 -183 -66 -221 -41 -41
27 -85 95 -85 132 0 72 91 276 187 422 84 127 144 183 229 214 107 40 347 96
454 107 358 37 945 15 1156 -43 186 -51 246 -70 300 -96 74 -36 109 -39 42 -4
-27 13 -48 29 -48 34 0 13 -22 10 190 24 179 13 182 13 80 15 -119 3 -184 19
-85 21 33 1 80 5 105 10 33 6 8 8 -92 7 -76 -2 -138 -1 -138 0 0 2 26 16 58
32 74 38 138 85 153 113 8 15 -3 9 -36 -20 -65 -57 -146 -94 -220 -99 -66 -5
-141 9 -299 58 l-99 31 60 38 c33 21 64 44 69 51 4 7 -8 3 -27 -9 -18 -13 -58
-35 -87 -49 l-54 -25 -104 28 c-84 22 -104 31 -101 43 3 9 16 56 31 105 14 48
26 96 26 105 0 18 28 48 65 70 18 11 17 12 -10 6 -16 -4 -34 -7 -40 -8 -6 -1
-9 14 -7 36 5 51 -3 47 -23 -12 -11 -35 -26 -56 -53 -75 -20 -14 -71 -59 -112
-101 -69 -69 -78 -75 -115 -74 -80 1 -82 8 -29 74 l48 60 -56 -52 c-55 -51
-59 -53 -113 -53 -42 0 -54 3 -48 13 4 6 24 36 45 66 21 30 36 57 32 60 -3 3
-8 1 -12 -5 -4 -5 -26 -38 -50 -72 -46 -66 -67 -75 -97 -42 -10 11 -14 20 -9
20 5 0 23 12 39 25 l30 26 -42 -21 c-23 -11 -46 -27 -51 -37 -7 -11 -27 -18
-66 -21 -31 -2 -56 -1 -56 3 0 27 69 141 119 198 57 63 67 77 57 77 -2 0 -31
-29 -65 -65z m599 -97 c0 -31 -26 -125 -46 -170 -12 -27 -23 -38 -39 -38 -32
0 -125 29 -125 40 0 14 111 130 154 162 47 34 56 35 56 6z m-1610 -268 c0 -32
-80 -113 -97 -97 -7 8 26 69 55 99 27 29 42 28 42 -2z m-2210 -303 c0 -20 -25
1 -28 24 -2 23 -2 23 13 5 8 -11 15 -24 15 -29z m3710 -1457 c16 -16 20 -33
19 -82 l0 -63 -20 45 c-11 25 -23 57 -26 73 -3 15 -12 27 -20 27 -8 0 -11 5
-8 10 10 16 33 12 55 -10z m-4955 -141 c7 -10 -38 -84 -58 -96 -10 -6 -2 43
14 85 9 23 33 30 44 11z m3064 -9125 c41 -160 64 -763 50 -1314 -8 -374 -19
-551 -49 -845 -11 -104 -29 -316 -40 -470 -25 -353 -31 -417 -38 -410 -4 3 -9
295 -13 648 -6 510 -11 658 -23 722 -8 44 -21 174 -27 289 -29 507 52 1474
120 1431 5 -2 14 -25 20 -51z"/>
<path d="M3487 15153 c-14 -13 -6 -68 29 -221 33 -143 35 -166 30 -252 -4 -52
-13 -126 -20 -165 -8 -38 -12 -72 -11 -73 9 -10 36 112 47 207 11 106 11 106
-26 273 -21 93 -38 184 -39 203 -1 38 -1 38 -10 28z"/>
<path d="M7734 14574 c70 -36 130 -63 133 -61 6 6 -232 127 -249 126 -7 0 45
-29 116 -65z"/>
<path d="M1424 14531 c3 -4 32 -11 65 -14 32 -4 82 -16 111 -27 58 -23 79 -20
31 4 -58 31 -221 60 -207 37z"/>
<path d="M1280 14330 c0 -5 7 -10 15 -10 8 0 15 5 15 10 0 6 -7 10 -15 10 -8
0 -15 -4 -15 -10z"/>
<path d="M1073 14253 c9 -2 23 -2 30 0 6 3 -1 5 -18 5 -16 0 -22 -2 -12 -5z"/>
<path d="M1155 14240 c9 -14 106 -63 112 -56 3 2 -23 19 -57 36 -34 17 -59 26
-55 20z"/>
<path d="M930 14111 c0 -11 152 -23 176 -14 17 6 16 8 -6 14 -36 10 -170 10
-170 0z"/>
<path d="M2128 12327 c-29 -29 -82 -95 -117 -147 -36 -52 -105 -149 -155 -215
-82 -109 -145 -208 -146 -227 0 -23 19 -2 42 45 14 29 66 106 115 172 49 66
121 165 160 220 39 55 92 124 118 153 61 67 51 67 -17 -1z"/>
<path d="M5071 344 c0 -11 3 -14 6 -6 3 7 2 16 -1 19 -3 4 -6 -2 -5 -13z"/>
</g>
</svg>
