<?xml version="1.0" standalone="no"?>
<!DOCTYPE svg PUBLIC "-//W3C//DTD SVG 20010904//EN"
 "http://www.w3.org/TR/2001/REC-SVG-20010904/DTD/svg10.dtd">
<svg version="1.0" xmlns="http://www.w3.org/2000/svg"
 width="1536.000000pt" height="1365.000000pt" viewBox="0 0 1536.000000 1365.000000"
 preserveAspectRatio="xMidYMid meet">
<metadata>
Created by potrace 1.16, written by Peter Selinger 2001-2019
</metadata>
<g transform="translate(0.000000,1365.000000) scale(0.100000,-0.100000)"
fill="#000000" stroke="none">
<path d="M8460 13624 c0 -40 -28 -90 -66 -119 -52 -40 -111 -63 -261 -101
-317 -81 -630 -239 -938 -473 -117 -89 -392 -359 -489 -481 -94 -118 -249
-353 -323 -490 -352 -650 -521 -1508 -483 -2453 24 -615 74 -842 280 -1275
l61 -129 -76 -74 c-178 -171 -298 -406 -573 -1114 -299 -773 -324 -906 -337
-1805 -7 -479 -21 -947 -35 -1170 -48 -738 -152 -1264 -329 -1660 -134 -300
-324 -517 -546 -625 -121 -59 -225 -85 -365 -92 -98 -5 -126 -3 -193 16 -87
24 -135 46 -155 70 -22 28 -65 115 -84 171 -13 40 -17 45 -13 20 2 -19 22 -70
43 -112 21 -43 35 -78 31 -78 -22 0 -196 129 -260 193 -197 195 -286 316 -519
701 -84 138 -84 139 -83 205 l0 66 -6 -55 -6 -55 -98 145 c-53 80 -112 166
-131 192 -39 54 -114 237 -146 357 -12 46 -26 132 -30 190 l-9 106 4 -105 c4
-136 34 -253 110 -435 16 -36 6 -29 -106 79 -68 66 -132 127 -143 137 -10 9
-26 45 -36 80 -10 35 -19 57 -19 48 -1 -9 5 -37 13 -62 9 -29 10 -44 3 -40 -5
3 -42 29 -82 58 -40 28 -109 73 -154 100 -46 26 -85 54 -88 61 -3 8 -9 11 -14
9 -13 -9 -107 43 -122 65 -6 12 -49 52 -94 91 -94 81 -136 141 -158 225 -13
51 -14 53 -10 14 11 -84 40 -130 148 -233 l102 -98 -90 42 c-89 40 -309 130
-352 144 -20 6 -23 14 -25 68 l-2 62 -3 -58 c-2 -31 -6 -57 -8 -57 -3 0 -68
18 -145 40 -151 42 -284 70 -334 70 -47 -1 -17 -13 114 -46 l115 -29 -50 -6
c-47 -6 -46 -6 21 -7 77 -2 223 -46 380 -116 l79 -35 -75 -3 -75 -4 88 -2 c98
-2 104 -5 309 -120 64 -36 115 -69 112 -74 -3 -4 2 -8 11 -8 17 0 185 -110
205 -135 9 -11 2 -19 -34 -40 -25 -15 -46 -29 -46 -32 0 -2 24 9 53 26 l52 30
70 -58 c95 -78 212 -200 290 -301 36 -47 65 -88 65 -92 0 -10 -114 25 -229 71
-139 56 -208 71 -321 69 l-95 -1 110 -8 c113 -7 133 -13 375 -102 52 -19 113
-38 136 -41 39 -7 43 -11 127 -144 l87 -137 -32 -6 -33 -6 36 -2 c35 -1 38 -4
107 -118 38 -65 69 -119 68 -120 -1 -1 -36 8 -77 22 -76 24 -206 46 -262 44
-18 -1 11 -7 63 -14 53 -7 141 -28 195 -47 l100 -33 54 -80 c30 -44 85 -122
123 -173 45 -60 63 -92 51 -88 -61 19 -206 47 -257 51 -34 2 -50 2 -36 -1 14
-2 90 -18 170 -35 l145 -31 105 -103 c58 -57 120 -116 139 -132 l34 -30 -54 8
c-30 4 -70 7 -89 7 -19 0 10 -6 64 -14 82 -11 110 -20 155 -48 67 -40 147 -81
181 -91 14 -4 39 -13 55 -20 79 -34 312 -67 453 -65 l103 1 -7 -28 c-4 -15
-44 -127 -89 -248 -46 -121 -91 -256 -101 -300 -26 -117 -24 -239 6 -360 33
-135 34 -242 2 -284 -29 -39 -12 -41 21 -2 44 53 44 117 -5 345 -16 79 -19
120 -15 195 7 119 28 194 116 413 38 95 75 192 82 216 15 53 22 58 87 65 39 5
52 3 52 -7 0 -7 -25 -82 -56 -167 -73 -199 -78 -262 -39 -429 68 -293 78 -372
79 -590 0 -181 -3 -213 -21 -275 -22 -72 -21 -94 2 -61 33 44 50 166 49 346 0
189 -12 276 -66 510 -25 105 -32 159 -32 245 l-1 110 60 167 60 166 55 15 c30
9 82 28 115 44 33 15 64 29 69 32 15 6 -1 -117 -40 -311 -44 -220 -48 -325
-21 -623 23 -260 56 -405 92 -405 13 0 13 5 0 36 -43 103 -81 435 -79 699 0
120 6 165 37 315 20 96 39 205 43 243 l7 67 66 49 c36 27 95 79 130 116 71 74
70 74 99 -15 12 -40 17 -88 17 -180 0 -119 -3 -134 -52 -315 -66 -245 -76
-299 -76 -420 1 -82 6 -115 28 -182 17 -50 33 -83 41 -83 18 0 18 -3 -13 87
-24 70 -27 92 -26 203 0 120 3 135 63 365 58 223 63 248 64 355 1 101 -2 125
-27 200 l-28 85 53 81 c30 44 62 99 72 122 11 23 22 42 25 42 4 0 12 -36 19
-79 21 -133 51 -232 103 -339 45 -93 61 -114 182 -240 158 -164 190 -218 237
-399 6 -26 17 -43 25 -43 19 0 20 -8 -11 96 -42 147 -82 210 -230 364 -116
122 -138 149 -178 232 -52 105 -89 234 -107 371 l-12 93 50 130 c27 71 61 166
73 212 15 51 27 77 31 69 5 -7 22 -107 39 -222 49 -331 69 -415 135 -544 45
-91 101 -159 176 -215 89 -67 199 -121 199 -98 0 6 -10 12 -22 16 -44 10 -176
106 -232 166 -115 125 -170 285 -225 655 -16 110 -35 232 -42 270 -11 65 -10
79 19 210 17 77 34 163 38 192 6 47 8 51 25 43 27 -15 77 -93 102 -158 19 -52
21 -74 19 -255 -2 -121 2 -214 8 -240 14 -50 72 -172 99 -207 38 -48 34 -9 -6
68 -74 141 -88 214 -73 382 17 193 -21 325 -115 408 l-44 39 17 116 c19 132
11 126 107 82 70 -32 119 -78 239 -223 141 -173 231 -253 281 -251 19 0 19 1
1 12 -76 48 -142 109 -211 193 -168 207 -248 276 -354 304 l-43 11 7 87 c4 48
10 104 14 126 l6 39 33 -52 c19 -28 49 -63 67 -77 39 -30 125 -64 158 -63 14
0 7 5 -20 13 -84 27 -153 86 -208 181 l-28 47 12 181 c6 100 11 210 11 245 0
34 2 62 5 62 3 0 21 -18 41 -39 19 -22 81 -75 137 -117 172 -131 252 -201 297
-259 23 -30 49 -55 57 -55 44 0 -97 145 -266 274 -75 57 -164 133 -198 169
l-63 65 0 156 c0 86 3 156 6 156 7 0 367 -342 453 -430 76 -77 147 -174 238
-324 72 -118 103 -156 103 -127 0 19 -140 241 -211 336 -37 50 -109 130 -161
180 -51 49 -166 161 -255 249 l-163 159 0 155 0 155 91 -144 c201 -317 337
-447 528 -503 87 -25 93 -17 11 12 -106 39 -164 75 -249 156 -95 92 -142 153
-273 359 l-108 170 0 111 c0 61 3 128 6 148 l6 37 50 -54 c67 -74 134 -115
263 -164 61 -22 129 -54 151 -70 25 -17 46 -26 54 -21 18 11 -61 55 -171 96
-136 50 -182 80 -269 171 l-80 83 0 146 c0 93 4 144 10 142 6 -2 49 -50 98
-107 101 -122 142 -148 324 -211 129 -44 132 -44 123 -31 -3 6 -56 26 -118 46
-61 21 -125 44 -141 52 -44 23 -126 104 -211 208 l-75 93 1 68 c1 38 4 93 7
122 l7 54 43 -32 c24 -17 71 -70 105 -117 133 -185 183 -248 219 -277 58 -45
58 -23 0 34 -27 28 -83 99 -123 158 -78 114 -196 242 -223 242 -11 0 -16 9
-16 26 0 30 34 198 52 263 l13 43 77 -123 c42 -68 97 -150 122 -181 51 -64
150 -143 166 -133 6 4 -5 18 -27 34 -21 15 -63 55 -93 89 -61 67 -230 331
-230 359 0 22 131 416 136 410 2 -2 15 -61 29 -132 13 -70 32 -153 41 -184 19
-66 78 -182 104 -206 33 -29 42 -12 14 25 -64 84 -104 208 -145 442 l-22 127
49 127 48 127 22 -70 c23 -77 39 -103 127 -208 71 -84 91 -122 107 -197 13
-66 30 -77 30 -20 0 55 -38 127 -133 251 -135 178 -148 260 -72 441 24 58 45
98 45 90 4 -89 23 -230 39 -290 26 -102 68 -197 82 -183 7 7 2 30 -15 74 -51
131 -76 267 -76 418 0 64 5 86 41 169 50 118 107 232 116 232 3 0 3 -78 0
-172 -4 -125 -11 -194 -25 -248 -11 -41 -18 -77 -16 -79 10 -11 25 21 45 94
17 66 21 115 24 277 2 187 3 198 26 235 l24 38 6 -95 c4 -52 12 -115 19 -140
20 -75 76 -170 156 -265 42 -49 85 -101 95 -114 13 -16 23 -21 29 -15 7 7 -24
50 -85 125 -148 177 -185 271 -185 469 0 84 1 86 38 129 l37 43 54 -89 c221
-371 550 -718 847 -893 386 -228 800 -250 1174 -62 l75 38 100 -47 c100 -47
248 -97 360 -121 93 -20 381 -17 485 5 198 42 405 129 590 248 309 200 638
550 863 918 28 46 57 86 64 88 12 5 127 -60 138 -77 3 -5 -2 -51 -11 -102 -12
-72 -14 -126 -10 -238 4 -87 3 -158 -3 -178 -8 -25 -7 -32 2 -29 28 9 36 71
30 222 -6 146 8 295 27 295 12 0 75 -73 116 -135 l37 -56 -11 -77 c-21 -137
-16 -237 19 -348 40 -130 51 -197 39 -248 -10 -47 -4 -59 17 -31 24 33 12 161
-27 280 -30 90 -33 111 -32 210 0 61 5 124 10 140 9 30 9 30 31 -30 98 -260
100 -601 6 -911 -78 -255 -181 -411 -422 -635 -165 -154 -317 -268 -855 -644
-453 -316 -627 -483 -1047 -1005 -363 -451 -513 -682 -616 -950 -154 -397
-130 -812 71 -1228 30 -62 54 -120 54 -130 0 -9 9 -36 20 -60 15 -33 29 -47
62 -62 24 -10 57 -33 73 -50 44 -47 180 -147 239 -177 28 -14 70 -45 93 -69
35 -36 49 -44 75 -43 22 1 26 3 12 6 -12 2 -32 15 -44 28 l-22 24 70 -24 c73
-25 206 -55 241 -55 14 0 22 -8 26 -27 12 -53 35 -94 61 -103 42 -16 51 -11
21 13 -21 17 -62 96 -54 103 1 1 63 -1 139 -3 l136 -6 -26 -22 c-15 -12 -43
-32 -62 -44 -19 -11 -30 -21 -25 -21 12 0 80 44 111 72 20 18 154 40 331 55
35 3 60 9 57 14 -3 5 1 9 10 9 8 0 69 16 137 35 67 20 124 33 126 31 3 -2 -13
-23 -34 -47 -25 -28 -31 -38 -16 -31 12 7 39 32 60 56 33 38 55 51 163 94 69
28 184 77 254 111 71 34 139 61 150 61 12 0 79 -20 149 -45 71 -25 138 -45
150 -45 22 0 -131 58 -236 89 l-59 17 64 34 c34 18 166 94 292 168 268 157
224 150 471 73 205 -63 295 -81 392 -79 l78 1 -95 7 c-112 8 -104 7 -335 76
-99 29 -198 57 -220 62 l-40 8 95 56 c165 97 376 208 395 208 10 0 15 3 12 6
-4 4 79 54 184 112 167 91 196 103 226 99 70 -12 128 -51 265 -183 162 -156
226 -195 317 -193 l56 2 -55 7 c-83 11 -132 41 -259 164 -152 146 -192 177
-268 202 l-64 22 151 87 c83 48 158 88 167 89 10 0 44 -33 81 -79 121 -152
207 -225 261 -225 22 0 19 4 -17 20 -52 23 -143 114 -229 227 l-63 82 103 55
c155 84 170 89 220 75 68 -18 148 -65 253 -150 115 -93 220 -149 273 -148 l36
1 -38 9 c-61 14 -127 53 -222 130 -117 94 -179 133 -249 157 -31 10 -59 21
-61 24 -6 6 180 79 260 103 64 19 95 11 252 -66 66 -33 138 -62 160 -65 l38
-4 -35 13 c-19 8 -73 34 -120 57 -47 24 -114 53 -149 66 l-64 22 39 11 c21 6
104 22 182 36 201 37 221 26 263 -140 22 -89 63 -155 95 -155 18 0 18 16 -1
23 -22 9 -52 77 -71 158 -13 60 -24 81 -53 110 l-37 37 66 6 c135 14 251 -63
326 -217 15 -31 34 -57 41 -57 18 0 17 4 -18 76 -37 74 -118 156 -185 185 -25
12 -44 23 -41 25 2 2 80 4 172 5 l169 0 25 -33 c40 -53 97 -103 151 -132 73
-40 83 -27 13 16 -59 37 -143 118 -143 138 0 6 16 8 43 4 77 -11 162 -25 180
-30 21 -7 47 -55 77 -149 24 -73 81 -145 114 -145 12 0 5 12 -22 38 -29 27
-45 56 -62 107 -12 39 -29 83 -37 98 -8 16 -13 31 -10 33 6 7 109 -31 189 -70
83 -40 118 -44 144 -19 16 16 15 19 -17 46 -21 19 -26 27 -14 22 11 -4 58 -8
105 -10 47 -1 67 -1 45 1 -92 9 -226 39 -307 70 -47 18 -130 43 -183 56 l-97
23 38 34 c42 36 30 33 -24 -6 l-33 -25 -132 13 c-79 7 -195 10 -289 6 -87 -3
-158 -4 -158 -2 0 2 24 20 53 41 68 49 79 60 42 41 -17 -8 -52 -33 -78 -54
-43 -36 -52 -39 -149 -51 -57 -7 -120 -15 -141 -18 l-37 -7 15 43 c19 54 34
147 28 171 -10 35 -20 19 -26 -38 -4 -32 -14 -85 -24 -118 -21 -68 -3 -58
-198 -100 -66 -14 -128 -28 -139 -31 -55 -17 107 180 195 237 60 39 64 49 7
17 -62 -34 -163 -132 -209 -203 l-41 -63 -106 -37 c-139 -48 -323 -132 -492
-226 -74 -41 -138 -75 -142 -77 -21 -9 29 93 65 134 26 30 34 43 20 36 -36
-19 -93 -94 -105 -137 -15 -54 -24 -62 -165 -143 -111 -64 -123 -68 -123 -49
1 35 33 95 109 200 65 91 114 197 98 213 -10 11 -27 -7 -27 -29 0 -36 -54
-137 -119 -222 -56 -74 -91 -145 -91 -185 0 -12 -91 -66 -302 -180 -167 -90
-381 -208 -477 -262 -95 -55 -175 -97 -178 -95 -7 8 178 166 253 215 110 73
113 75 49 41 -84 -45 -191 -127 -293 -226 -66 -64 -122 -105 -232 -171 -203
-121 -570 -304 -570 -285 0 15 87 152 132 210 42 53 98 101 228 196 14 10 7 8
-15 -4 -145 -82 -247 -185 -338 -344 l-46 -81 -118 -42 c-181 -64 -406 -122
-474 -122 -14 0 3 27 71 114 117 148 224 248 396 370 132 94 179 130 144 111
-8 -5 -51 -33 -95 -64 -229 -158 -368 -282 -469 -421 -35 -47 -72 -93 -84
-103 -28 -25 -229 -34 -371 -17 l-104 13 24 18 c20 15 169 117 245 167 10 7
-3 1 -31 -12 -27 -14 -95 -56 -150 -95 -55 -39 -105 -71 -110 -71 -25 0 -162
43 -221 70 -291 132 -512 450 -587 845 -30 156 -30 155 -9 155 62 0 256 -72
605 -224 221 -97 408 -137 547 -119 63 9 62 9 -45 10 -178 2 -286 33 -635 185
-209 91 -319 131 -421 152 -63 12 -64 13 -72 52 -18 80 9 318 52 462 l22 73
31 -18 c18 -10 120 -104 227 -209 183 -178 209 -199 391 -320 196 -130 366
-224 404 -224 12 1 -24 23 -79 51 -55 28 -191 111 -302 185 -192 127 -211 143
-370 303 -93 92 -195 186 -228 207 -33 21 -62 39 -64 41 -7 4 41 116 100 233
57 114 206 351 228 364 17 11 75 -36 111 -89 52 -75 86 -153 150 -341 34 -98
75 -203 91 -232 60 -107 315 -447 399 -532 85 -86 186 -156 263 -180 57 -18
67 -6 11 14 -79 30 -175 99 -260 188 -83 87 -322 407 -386 518 -20 36 -67 153
-103 260 -37 107 -78 218 -93 245 -15 28 -57 81 -95 118 -61 61 -67 71 -55 85
8 10 81 101 163 204 82 103 150 186 152 185 2 -2 18 -60 37 -128 148 -534 358
-930 596 -1122 84 -68 213 -133 281 -142 42 -6 41 -5 -21 18 -134 49 -224 111
-329 223 -201 215 -375 577 -507 1056 -35 128 -35 130 -17 152 11 11 70 81
133 154 62 73 116 130 120 125 4 -4 52 -89 105 -188 119 -220 187 -330 257
-415 29 -36 109 -135 178 -220 169 -210 232 -270 308 -294 35 -11 26 9 -13 27
-56 26 -119 91 -243 247 -64 80 -138 169 -164 199 -99 109 -166 214 -312 489
l-97 182 32 40 c18 22 62 67 99 99 l67 60 43 -112 c79 -206 175 -378 298 -532
75 -95 222 -245 240 -245 7 0 -27 44 -77 97 -216 234 -340 434 -446 717 -20
54 -33 102 -28 106 106 91 303 244 307 239 1 -2 20 -71 41 -154 87 -346 177
-558 315 -744 40 -54 64 -79 74 -75 11 4 5 18 -28 58 -100 123 -190 299 -259
507 -35 105 -121 429 -115 433 2 1 50 35 107 75 57 40 105 70 107 68 2 -2 8
-48 14 -103 30 -293 105 -567 197 -723 35 -59 57 -81 69 -68 3 2 -13 33 -35
67 -94 146 -185 483 -206 765 l-7 90 166 117 c131 92 166 113 170 100 9 -31
35 -185 56 -337 39 -270 69 -369 157 -502 20 -31 40 -50 47 -47 10 4 1 24 -30
71 -79 121 -112 238 -159 568 -14 99 -32 203 -39 232 l-14 51 47 33 c25 19 89
69 143 111 53 43 98 78 101 78 3 0 7 -109 9 -242 5 -259 13 -310 63 -413 31
-63 77 -119 94 -114 10 4 6 14 -13 36 -38 45 -84 149 -102 229 -9 44 -17 151
-21 299 l-6 230 85 77 85 77 7 -52 c3 -29 6 -113 6 -187 0 -148 7 -210 23
-210 7 0 8 80 3 246 l-6 246 43 51 c57 67 97 128 146 217 l38 72 7 -47 c18
-116 66 -245 92 -245 18 0 18 3 -6 50 -26 50 -46 130 -59 228 -10 73 -9 81 18
156 l28 79 12 -48 c26 -104 156 -335 188 -335 19 0 17 3 -31 75 -78 113 -147
281 -149 360 -1 22 6 88 16 146 9 59 17 155 17 215 1 101 2 108 16 89 31 -38
72 -141 88 -215 8 -41 18 -146 22 -232 4 -87 11 -155 15 -152 15 9 10 275 -6
370 -17 98 -64 209 -112 265 -21 23 -32 49 -37 83 -3 27 -4 48 -2 45 2 -2 36
-57 74 -122 72 -120 120 -237 142 -339 8 -39 16 -58 26 -58 19 0 12 44 -28
167 -30 90 -84 196 -186 361 -28 46 -61 113 -73 150 -46 142 -148 305 -246
392 -58 51 -172 127 -213 142 -17 5 -30 14 -30 19 0 5 23 55 51 112 131 261
184 453 275 992 35 204 36 222 46 610 17 697 0 999 -78 1385 -161 790 -568
1407 -1181 1792 -249 157 -587 289 -903 352 -217 44 -264 66 -332 154 -27 36
-48 74 -48 88 l0 24 -170 0 -170 0 0 -26z m-683 -756 c11 -13 30 -42 42 -66
12 -24 37 -60 56 -81 l35 -38 -26 -12 c-37 -17 -83 15 -119 81 -16 29 -39 67
-52 85 -23 30 -23 32 -6 42 28 16 48 13 70 -11z m1953 -22 c0 -2 -7 -7 -16
-10 -8 -3 -12 -2 -9 4 6 10 25 14 25 6z m-100 -55 c-8 -5 -26 -12 -40 -15
l-25 -7 25 15 c14 9 32 15 40 15 13 0 13 -1 0 -8z m250 -36 c17 -18 19 -25 9
-25 -9 0 -55 -20 -103 -45 -49 -25 -95 -45 -102 -45 -7 0 -25 11 -40 23 l-27
24 29 7 c16 4 49 20 74 35 90 55 127 61 160 26z m-2245 -5 c10 -11 14 -20 8
-20 -5 0 -18 9 -28 20 -10 11 -14 20 -8 20 5 0 18 -9 28 -20z m83 -105 c14
-27 14 -29 -1 -17 -9 8 -26 30 -38 50 l-21 37 22 -20 c12 -11 29 -33 38 -50z
m1422 21 c0 -2 -8 -10 -17 -17 -16 -13 -17 -12 -4 4 13 16 21 21 21 13z
m-1603 -38 c11 -13 31 -43 43 -68 12 -25 31 -55 42 -67 l21 -22 -27 -12 c-40
-19 -70 3 -108 78 -18 36 -41 69 -52 75 -19 10 -19 11 5 24 34 19 53 17 76 -8z
m2463 7 c0 -7 -61 -37 -66 -32 -3 2 10 12 28 20 37 19 38 19 38 12z m-813 -96
c-53 -49 -75 -56 -92 -33 -11 16 -10 20 8 33 12 8 37 28 56 43 31 28 34 28 52
12 18 -16 17 -18 -24 -55z m-1406 35 c22 -25 22 -26 3 -16 -12 6 -24 18 -28
27 -8 21 -3 19 25 -11z m2129 12 c0 -2 -7 -7 -16 -10 -8 -3 -12 -2 -9 4 6 10
25 14 25 6z m-61 -30 c-2 -2 -15 -9 -29 -15 -24 -11 -24 -11 -6 3 16 13 49 24
35 12z m-1610 -73 c11 -32 28 -71 36 -86 24 -45 -7 -69 -33 -27 -20 32 -61
153 -56 162 14 22 35 3 53 -49z m-833 -4 c24 -26 25 -30 7 -20 -13 6 -27 20
-33 31 -15 28 -8 25 26 -11z m2644 6 c13 -14 22 -26 19 -27 -41 -25 -169 -87
-186 -90 -12 -2 -32 7 -46 20 l-25 23 83 44 c72 37 97 48 126 54 3 0 16 -10
29 -24z m-1896 -61 c3 -8 2 -12 -4 -9 -6 3 -10 10 -10 16 0 14 7 11 14 -7z
m-664 -57 c0 -16 -20 5 -36 36 l-15 32 25 -30 c14 -16 26 -34 26 -38z m-153
-15 c12 -7 36 -37 54 -65 18 -29 42 -62 53 -74 25 -29 13 -29 -31 -2 -18 12
-55 54 -82 94 -46 70 -45 80 6 47z m1972 0 c7 -14 0 -25 -42 -61 l-51 -43 -18
22 c-17 21 -17 22 28 61 50 43 69 48 83 21z m801 8 c17 -11 19 -9 -50 -48 -68
-38 -127 -52 -160 -39 -24 9 -24 9 15 22 22 7 65 27 95 44 58 32 76 36 100 21z
m-1910 -35 c0 -5 -5 -3 -10 5 -5 8 -10 20 -10 25 0 6 5 3 10 -5 5 -8 10 -19
10 -25z m-640 -38 c0 -6 -11 0 -25 13 -14 13 -25 28 -25 33 0 6 11 0 25 -13
14 -13 25 -28 25 -33z m554 19 c9 -19 16 -40 16 -48 0 -7 7 -26 15 -42 13 -24
13 -31 3 -38 -23 -14 -33 -3 -55 61 -12 35 -24 65 -27 68 -7 7 13 33 24 33 4
0 15 -15 24 -34z m114 -41 c-3 -3 -9 2 -12 12 -6 14 -5 15 5 6 7 -7 10 -15 7
-18z m-950 -47 c20 -23 58 -63 83 -89 l47 -47 -25 -11 c-21 -10 -32 -8 -68 14
-24 13 -52 39 -63 57 -12 18 -35 47 -52 63 l-31 30 28 12 c40 17 39 17 81 -29z
m2031 -14 c-41 -34 -72 -43 -84 -24 -3 6 -2 10 3 10 6 0 29 16 52 35 33 27 45
33 56 24 11 -9 6 -18 -27 -45z m841 16 c-8 -5 -19 -10 -25 -10 -5 0 -3 5 5 10
8 5 20 10 25 10 6 0 3 -5 -5 -10z m-2106 -26 c3 -8 2 -12 -4 -9 -6 3 -10 10
-10 16 0 14 7 11 14 -7z m2010 -13 c-22 -10 -56 -22 -75 -26 -57 -12 -19 16
43 30 72 18 80 17 32 -4z m-1974 -66 c0 -5 -5 -3 -10 5 -5 8 -10 20 -10 25 0
6 5 3 10 -5 5 -8 10 -19 10 -25z m-947 -37 c15 -11 27 -24 27 -29 0 -16 -58
19 -71 42 -12 24 -8 22 44 -13z m2182 21 c-8 -13 -56 -31 -63 -24 -3 2 10 11
29 19 42 18 42 19 34 5z m975 -23 c10 -13 10 -16 -1 -16 -8 0 -52 -18 -99 -40
-96 -45 -119 -48 -144 -21 -16 18 -14 20 51 51 127 61 160 65 193 26z m-2245
-65 c22 -58 23 -62 5 -46 -17 15 -60 111 -60 133 0 20 33 -32 55 -87z m64 39
c11 -24 11 -24 -3 -6 -9 11 -16 24 -16 30 0 12 5 7 19 -24z m1322 -37 c11 -13
11 -17 1 -21 -7 -2 -25 -14 -40 -26 -44 -37 -67 -47 -80 -34 -14 14 -16 38 -3
38 4 0 25 14 46 30 43 34 57 37 76 13z m-1426 -85 c22 -46 32 -75 25 -82 -6
-6 -15 -4 -25 4 -21 17 -76 131 -69 142 14 22 37 1 69 -64z m-715 17 c27 -32
0 -25 -37 10 -37 35 -37 36 -7 21 17 -8 36 -22 44 -31z m3031 -25 c-13 -11
-31 -20 -41 -20 -10 0 -42 -11 -72 -25 -65 -31 -93 -33 -59 -5 13 11 31 20 40
20 9 1 41 12 71 25 68 30 94 32 61 5z m-3233 -9 c20 -11 43 -29 50 -40 7 -12
27 -30 44 -41 l31 -19 -26 -12 c-36 -16 -71 -5 -114 40 -21 21 -49 44 -62 51
l-24 13 29 12 c16 8 30 14 32 14 1 1 19 -8 40 -18z m2372 -25 c0 -3 -19 -17
-42 -33 -72 -48 -71 -48 -59 -24 7 11 17 21 24 21 7 0 23 9 37 20 24 19 40 25
40 16z m-1540 -48 c0 -6 -7 -5 -15 2 -8 7 -15 17 -15 22 0 6 7 5 15 -2 8 -7
15 -17 15 -22z m2489 -52 l22 -23 -23 -5 c-13 -3 -60 -15 -106 -27 l-82 -22
-29 24 -29 24 46 12 c26 6 70 18 97 25 69 20 78 19 104 -8z m-3420 -55 c31
-32 66 -61 79 -65 12 -4 29 -21 37 -37 24 -46 -2 -36 -57 21 -26 27 -65 61
-86 74 -37 23 -63 66 -40 66 6 0 36 -26 67 -59z m992 17 c8 -15 8 -18 0 -14
-6 4 -16 16 -22 28 -8 15 -8 18 0 14 6 -4 16 -16 22 -28z m1518 13 c9 -15 3
-21 -40 -42 -37 -17 -55 -20 -67 -13 -28 18 -23 28 26 51 59 27 69 27 81 4z
m-1584 -89 c16 -28 22 -49 16 -55 -13 -13 -25 -3 -59 47 -21 30 -27 47 -20 54
17 17 36 3 63 -46z m2559 -11 c9 -15 -106 -53 -174 -57 l-65 -5 83 30 c46 16
86 32 89 35 10 9 61 7 67 -3z m-943 -15 c-17 -20 -75 -46 -103 -46 -18 0 -13
6 27 30 55 32 96 41 76 16z m-2652 -47 c18 -11 31 -22 28 -25 -3 -3 -23 6 -44
20 -45 31 -33 35 16 5z m957 -32 c9 -18 27 -45 40 -60 13 -16 24 -36 24 -45 0
-13 -5 -11 -20 8 -11 14 -20 30 -20 35 0 6 -14 28 -30 49 -30 40 -39 63 -20
51 6 -3 17 -21 26 -38z m1689 -43 c-32 -25 -96 -56 -103 -50 -9 10 10 22 50
36 21 6 40 16 43 21 4 5 12 9 18 9 7 0 3 -8 -8 -16z m969 6 c-17 -17 -154 -70
-202 -79 -41 -8 -42 -8 -27 9 9 10 42 23 73 28 31 6 80 19 107 31 59 24 62 24
49 11z m-3624 -95 c32 -20 76 -41 97 -49 37 -13 37 -13 14 -25 -35 -19 -95 -6
-168 38 l-65 39 23 16 c31 21 33 21 99 -19z m921 8 c13 -16 12 -17 -3 -4 -10
7 -18 15 -18 17 0 8 8 3 21 -13z m1772 -41 c15 -17 13 -19 -44 -42 -56 -22
-61 -22 -76 -7 -20 19 -21 18 42 45 61 26 58 26 78 4z m962 -28 c32 -21 31
-31 -2 -37 -16 -2 -65 -14 -110 -26 -77 -21 -83 -21 -107 -5 -35 22 -33 30 12
38 20 3 69 15 107 25 39 11 71 20 73 20 1 1 14 -6 27 -15z m-2722 -83 c16 -17
33 -31 38 -31 6 0 7 -4 4 -10 -13 -21 -52 -9 -88 28 -28 29 -34 41 -26 49 15
15 34 5 72 -36z m-992 -36 c41 -19 81 -35 89 -35 9 0 27 -11 40 -25 33 -35 10
-32 -77 10 -40 19 -79 35 -87 35 -8 0 -28 11 -43 25 -41 36 -10 32 78 -10z
m2773 11 c-9 -23 -104 -38 -104 -16 0 9 17 15 70 23 14 3 28 5 32 6 4 0 5 -5
2 -13z m981 -65 c-20 -12 -59 -21 -117 -25 -49 -4 -88 -5 -88 -2 0 21 88 40
200 44 l35 2 -30 -19z m-2800 -52 c48 -36 67 -59 50 -59 -9 0 -100 72 -108 86
-13 22 -2 17 58 -27z m1825 0 c7 -11 10 -22 8 -23 -2 -2 -29 -6 -60 -10 -50
-5 -59 -4 -68 13 -15 28 -14 29 28 34 76 8 81 7 92 -14z m-2767 -77 c57 -31
57 -31 34 -46 -28 -19 -56 -12 -140 32 l-57 31 27 14 c32 17 55 12 136 -31z
m3760 -6 l16 -23 -67 -7 c-126 -11 -156 -8 -181 18 l-23 25 53 4 c158 11 186
8 202 -17z m-990 -3 c11 -10 -51 -33 -87 -32 l-31 0 40 19 c43 20 68 24 78 13z
m-1841 -56 c29 -26 35 -36 26 -45 -17 -17 -23 -15 -62 21 -27 26 -33 36 -24
45 17 17 19 16 60 -21z m1828 -21 c-18 -16 -75 -36 -103 -36 -34 0 1 30 37 31
17 0 40 4 51 9 29 12 31 12 15 -4z m-2843 -49 c26 -13 65 -30 85 -36 53 -18
61 -36 12 -26 -72 13 -159 47 -176 69 -35 43 -17 41 79 -7z m3846 33 c24 0
-10 -18 -55 -29 -55 -13 -137 -14 -156 -2 -9 5 4 10 40 14 29 4 71 10 93 15
22 6 46 8 53 6 8 -2 19 -4 25 -4z m-2867 -80 c58 -45 66 -52 61 -57 -13 -13
-107 55 -107 77 0 14 3 13 46 -20z m2844 -15 c-33 -18 -146 -38 -190 -33 -35
4 -35 4 -10 15 21 10 135 27 205 31 17 1 16 -1 -5 -13z m-960 -20 c18 -21 11
-25 -55 -32 -43 -5 -59 -3 -66 8 -15 23 -11 28 29 32 73 7 80 7 92 -8z m-2877
-67 c38 -20 7 -19 -35 1 -35 16 -37 19 -13 14 17 -3 38 -10 48 -15z m993 -36
c-4 -3 -14 2 -24 12 -16 18 -16 18 6 6 13 -6 21 -14 18 -18z m-903 11 c-7 -2
-21 -2 -30 0 -10 3 -4 5 12 5 17 0 24 -2 18 -5z m942 -23 c3 -6 -1 -7 -9 -4
-18 7 -21 14 -7 14 6 0 13 -4 16 -10z m-1037 -25 c39 -14 86 -25 104 -25 l33
-1 -25 -20 c-20 -17 -33 -20 -75 -15 -27 4 -76 16 -109 28 l-58 21 23 18 c30
23 22 24 107 -6z m3884 8 c10 -9 18 -19 18 -23 0 -4 -50 -10 -111 -14 -107 -7
-112 -6 -136 16 l-25 23 64 6 c128 11 171 10 190 -8z m-992 -7 c-8 -8 -37 -17
-64 -21 -44 -6 -48 -5 -37 8 13 17 36 23 86 26 25 1 27 -1 15 -13z m-1905 -16
c17 -11 38 -20 48 -20 20 0 22 -13 5 -27 -27 -21 -116 23 -105 52 8 20 16 19
52 -5z m1925 -111 c7 -11 10 -22 8 -23 -2 -2 -28 -6 -59 -10 -52 -5 -57 -4
-67 19 -11 23 -9 24 26 28 76 8 81 7 92 -14z m1005 -18 c-9 -15 -65 -29 -145
-35 -72 -6 -74 -6 -57 11 23 23 216 46 202 24z m-2928 -28 c23 -8 44 -21 47
-29 7 -18 1 -18 -58 5 -27 10 -53 26 -59 36 -8 15 -7 17 9 11 10 -5 38 -15 61
-23z m-1042 -3 c44 -11 89 -20 101 -20 11 0 31 -12 45 -26 l24 -26 -30 7 c-16
4 -55 13 -86 21 -31 8 -67 14 -79 14 -12 0 -35 11 -52 25 -36 30 -27 31 77 5z
m2970 -50 c3 -5 3 -10 -2 -10 -4 -1 -28 -5 -52 -9 -62 -12 -86 0 -30 14 58 16
77 17 84 5z m1025 -77 l22 -28 -112 -9 c-112 -8 -112 -8 -137 17 l-26 25 79 7
c44 3 86 8 94 9 41 9 60 4 80 -21z m-2972 -11 c32 -14 38 -21 31 -34 -9 -16
-13 -16 -54 -1 -37 14 -42 19 -34 35 12 22 8 22 57 0z m-1007 -38 c30 -9 61
-18 69 -21 12 -4 11 -7 -5 -20 -22 -16 -77 -13 -159 10 l-49 14 24 16 c29 21
53 21 120 1z m2874 -62 c62 -22 75 -30 75 -47 0 -20 -101 17 -119 44 -16 25
-17 25 44 3z m1109 -1 c33 -13 -62 -31 -151 -30 l-78 1 50 10 c28 5 66 13 85
18 44 10 70 11 94 1z m-2982 -31 c32 -12 56 -36 45 -46 -6 -6 -91 29 -99 41
-12 16 -9 28 5 22 6 -2 29 -10 49 -17z m-1059 -54 c29 -8 68 -17 87 -20 20 -4
42 -17 52 -30 l17 -23 -42 8 c-23 5 -58 13 -77 19 -19 5 -46 10 -61 10 -14 0
-36 11 -49 25 l-23 25 22 0 c13 0 46 -6 74 -14z m3860 -13 c-7 -2 -19 -2 -25
0 -7 3 -2 5 12 5 14 0 19 -2 13 -5z m-893 -39 c33 -13 38 -19 29 -30 -15 -18
-28 -18 -74 1 -30 13 -35 18 -25 30 16 19 21 19 70 -1z m1025 6 c13 -6 15 -9
5 -9 -8 0 -22 4 -30 9 -18 12 -2 12 25 0z m-105 -95 c30 -8 67 -15 81 -15 30
0 78 -34 66 -46 -4 -4 -40 0 -80 9 -39 10 -81 17 -93 17 -11 0 -31 11 -44 25
-22 23 -22 25 -4 25 10 0 44 -7 74 -15z m-3910 -5 c8 -5 11 -10 5 -10 -5 0
-17 5 -25 10 -8 5 -10 10 -5 10 6 0 17 -5 25 -10z m1109 -10 c-26 -15 -99 -24
-99 -12 0 13 23 19 75 21 29 0 36 -2 24 -9z m-976 -27 c-7 -2 -21 -2 -30 0
-10 3 -4 5 12 5 17 0 24 -2 18 -5z m2871 -43 c19 -19 -3 -21 -50 -5 -50 17
-74 32 -74 46 0 9 110 -27 124 -41z m-1875 -29 c9 -16 6 -19 -27 -25 -59 -9
-79 -7 -86 11 -9 22 10 33 61 33 31 0 45 -5 52 -19z m-979 -1 c11 -7 -1 -10
-40 -10 -30 0 -72 -5 -94 -11 -22 -6 -55 -7 -75 -3 l-36 7 40 13 c48 15 184
18 205 4z m3843 -49 l69 -18 -28 -18 c-25 -16 -34 -17 -84 -6 -30 7 -71 16
-90 20 l-35 6 25 18 c31 21 57 21 143 -2z m-1020 -48 c30 -15 33 -23 16 -40
-9 -9 -21 -7 -50 8 -21 10 -45 19 -54 19 -18 0 -19 12 -3 28 13 13 47 7 91
-15z m-2819 -15 c21 -30 12 -34 -106 -41 l-97 -6 -21 29 -21 29 73 4 c40 1 92
4 115 5 33 2 45 -3 57 -20z m962 -24 c-22 -16 -86 -19 -86 -4 0 9 21 16 70 23
34 4 39 -2 16 -19z m1795 -42 c-7 -2 -18 1 -23 6 -8 8 -4 9 13 5 13 -4 18 -8
10 -11z m50 -19 c13 -15 12 -15 -8 -4 -24 12 -29 21 -14 21 5 0 15 -7 22 -17z
m909 -18 c30 -8 67 -15 81 -15 14 0 40 -11 59 -25 41 -30 41 -30 -90 -4 -64
14 -113 29 -125 41 -19 18 -19 18 0 18 11 0 45 -7 75 -15z m-2713 -44 c11 -17
8 -19 -45 -26 -48 -6 -58 -4 -69 12 -13 16 -11 19 14 24 56 13 88 10 100 -10z
m-1002 -10 c-16 -15 -42 -21 -115 -26 -89 -6 -94 -6 -79 10 12 12 43 19 110
24 52 5 96 9 99 10 2 0 -4 -8 -15 -18z m2764 -16 c42 -21 69 -50 58 -62 -2 -2
-21 10 -42 27 -21 16 -43 30 -50 30 -7 0 -15 7 -19 15 -7 20 -4 19 53 -10z
m-1751 -97 c-3 -7 -25 -16 -51 -20 -25 -3 -52 -10 -59 -14 -11 -6 -11 -4 0 7
27 29 118 51 110 27z m2699 2 c34 -6 81 -18 104 -28 l43 -19 -27 -18 c-27 -17
-29 -17 -107 9 -44 14 -92 26 -107 26 l-28 0 25 20 c30 23 20 22 97 10z m-924
-43 c25 -21 26 -25 13 -36 -13 -11 -20 -11 -38 2 -58 41 -62 46 -48 61 13 17
25 13 73 -27z m-2724 -1 l22 -23 -77 -7 c-133 -11 -169 -8 -189 14 -23 25 -14
28 80 33 39 2 86 4 106 5 26 1 41 -4 58 -22z m926 -35 c-17 -15 -75 -30 -91
-24 -13 5 -10 9 12 19 33 14 93 19 79 5z m2690 -31 c7 -12 -12 -12 -40 0 -18
8 -17 9 7 9 15 1 30 -3 33 -9z m95 -25 c32 -18 5 -19 -35 0 -23 10 -25 13 -10
14 11 0 31 -6 45 -14z m-1033 -52 c28 -14 49 -40 41 -49 -4 -3 -83 47 -105 66
-23 19 -14 33 10 16 12 -9 36 -24 54 -33z m-1737 16 c7 -11 10 -22 8 -24 -2
-1 -26 -5 -55 -9 -45 -6 -53 -4 -62 13 -17 32 -22 29 81 39 10 1 22 -7 28 -19z
m-924 -24 c-22 -17 -50 -22 -155 -29 -49 -3 -71 -2 -64 5 14 14 129 37 188 38
46 0 48 -1 31 -14z m3624 -47 c70 -22 86 -32 101 -59 8 -16 6 -17 -19 -10 -15
5 -50 20 -77 33 -28 14 -64 29 -82 32 -17 4 -37 14 -45 23 -11 14 -9 15 22 9
19 -4 64 -17 100 -28z m-3660 -38 l25 -8 -26 -1 c-15 -1 -58 -8 -95 -17 -48
-10 -77 -12 -94 -6 -24 9 -23 10 20 21 25 7 50 14 55 16 18 6 89 3 115 -5z
m960 6 c0 -17 -38 -36 -72 -36 -34 0 -39 2 -28 14 6 8 30 17 53 19 23 2 43 4
45 5 1 1 2 0 2 -2z m1723 -52 c37 -29 45 -40 36 -50 -17 -20 -25 -18 -68 21
-21 19 -44 35 -51 35 -10 0 -10 3 0 15 18 22 32 19 83 -21z m967 -56 c19 -12
50 -27 69 -34 l35 -12 -31 -15 c-36 -19 -61 -14 -144 30 -46 25 -53 32 -40 41
26 18 74 13 111 -10z m-3621 -12 l22 -23 -53 -6 c-29 -4 -82 -7 -116 -7 -54 0
-67 3 -82 23 l-18 22 56 6 c131 13 167 11 191 -15z m959 -6 c1 -9 -13 -21 -40
-32 -51 -21 -60 -22 -76 -6 -10 10 -3 17 30 35 47 25 81 26 86 3z m1683 -107
c13 -16 12 -17 -3 -4 -10 7 -18 15 -18 17 0 8 8 3 21 -13z m-2670 -23 c-13
-12 -38 -20 -60 -20 -20 0 -61 -3 -91 -6 -53 -6 -54 -6 -38 12 13 13 39 20 95
24 130 11 122 12 94 -10z m1002 9 c-13 -13 -113 -60 -113 -53 0 9 94 64 109
64 11 0 12 -3 4 -11z m1563 -21 c9 -18 30 -47 46 -64 18 -19 28 -40 26 -50 -3
-15 -8 -12 -22 16 -10 19 -31 49 -46 65 -30 33 -45 65 -30 65 5 0 17 -15 26
-32z m995 -13 c18 -10 50 -22 72 -29 22 -6 46 -21 55 -34 l14 -22 -40 14 c-22
8 -54 22 -73 31 -18 10 -50 22 -72 29 -22 6 -46 21 -55 34 l-14 22 40 -14 c22
-8 54 -22 73 -31z m-3478 -103 c16 -17 11 -19 -94 -46 -103 -26 -112 -26 -135
-12 -13 9 -24 20 -24 24 0 10 156 49 201 51 23 1 42 -5 52 -17z m884 -12 c-28
-17 -53 -27 -63 -23 -13 5 -8 11 22 29 22 13 50 24 63 24 21 0 18 -4 -22 -30z
m1598 -50 c22 -30 29 -49 23 -57 -15 -18 -35 -5 -68 44 -52 76 -9 89 45 13z
m1023 -17 c39 -20 72 -40 72 -43 0 -4 -12 -13 -26 -20 -24 -13 -32 -11 -107
27 -45 23 -91 45 -101 48 -19 5 -19 6 0 20 27 22 76 12 162 -32z m-2549 -20
c8 -15 1 -21 -42 -40 -48 -20 -53 -21 -64 -6 -18 24 -17 26 25 45 49 21 69 22
81 1z m-936 -52 c-12 -10 -45 -21 -72 -25 -28 -4 -72 -16 -97 -27 -53 -22 -72
-19 -26 5 43 22 173 66 197 65 19 0 19 0 -2 -18z m2368 -14 c12 -22 12 -22
-10 -3 -11 11 -21 23 -21 28 0 14 19 -1 31 -25z m-1416 -45 c-34 -32 -96 -66
-89 -49 3 8 18 21 34 27 16 7 35 18 41 26 6 8 16 14 22 14 6 0 3 -8 -8 -18z
m1495 -54 c0 -14 -19 1 -31 25 -12 22 -12 22 10 3 11 -11 21 -23 21 -28z m-79
-60 c32 -59 35 -69 22 -80 -18 -14 -30 -1 -69 74 -13 26 -28 49 -34 53 -17 10
0 26 23 23 15 -2 33 -24 58 -70z m1114 19 c6 -5 -9 0 -32 12 -23 11 -45 26
-49 33 -7 12 61 -26 81 -45z m-3465 13 c12 -8 11 -10 -7 -10 -12 0 -57 -13
-100 -28 -73 -27 -113 -31 -113 -12 0 4 26 17 58 28 84 31 137 38 162 22z
m3261 -59 c32 -33 68 -62 79 -66 22 -7 58 -65 40 -65 -5 0 -39 29 -75 65 -36
36 -72 65 -80 65 -13 0 -45 36 -45 52 0 20 27 3 81 -51z m-2314 -22 c-28 -22
-54 -39 -57 -39 -3 0 -10 8 -16 18 -10 15 -4 23 39 55 47 35 51 36 68 21 17
-15 15 -18 -34 -55z m1358 -84 l24 -57 -24 22 c-14 13 -30 39 -36 59 -6 20
-18 47 -26 61 l-15 25 27 -26 c15 -15 38 -52 50 -84z m-2235 30 l23 -25 -24 0
c-13 0 -53 -9 -87 -20 -85 -27 -113 -25 -142 5 l-23 25 24 0 c13 0 51 9 84 20
83 26 116 25 145 -5z m946 -40 c-11 -8 -25 -15 -30 -15 -6 0 -2 7 8 15 11 8
25 15 30 15 6 0 2 -7 -8 -15z m1194 -6 c0 -6 -4 -7 -10 -4 -5 3 -10 11 -10 16
0 6 5 7 10 4 6 -3 10 -11 10 -16z m980 -24 c16 -8 34 -24 40 -36 6 -11 25 -29
42 -39 l31 -19 -26 -12 c-37 -17 -70 -5 -113 41 -21 22 -47 43 -58 46 -19 6
-19 7 -1 20 24 18 49 18 85 -1z m-952 -40 c-3 -3 -9 2 -12 12 -6 14 -5 15 5 6
7 -7 10 -15 7 -18z m-2133 -21 c-11 -8 -31 -17 -45 -20 -14 -3 -41 -12 -60
-21 -19 -8 -48 -19 -64 -24 -28 -8 -28 -8 -11 11 10 11 25 20 34 20 9 0 41 11
71 24 30 13 64 24 75 25 l20 0 -20 -15z m955 -1 c-1 -17 -90 -75 -106 -69 -12
5 -7 14 26 41 38 32 80 46 80 28z m1134 -45 c9 -12 16 -29 16 -38 0 -9 9 -33
19 -53 18 -36 18 -38 1 -47 -14 -8 -21 -4 -34 15 -9 13 -16 30 -16 38 0 7 -9
30 -20 52 -15 30 -17 41 -7 47 19 12 25 10 41 -14z m86 -13 c0 -5 -5 -3 -10 5
-5 8 -10 20 -10 25 0 6 5 3 10 -5 5 -8 10 -19 10 -25z m768 -31 c36 -34 36
-35 7 -21 -34 17 -74 57 -56 57 6 0 28 -16 49 -36z m-1961 -6 c9 -20 4 -27
-36 -60 -25 -21 -49 -38 -53 -38 -8 0 -32 40 -26 44 2 1 22 18 46 39 49 43 56
45 69 15z m-883 -35 l23 -17 -56 -24 c-31 -14 -81 -34 -112 -45 l-56 -21 -28
22 c-27 21 -27 23 -9 28 11 3 54 21 95 39 84 39 110 42 143 18z m1874 -8 c-3
-3 -9 2 -12 12 -6 14 -5 15 5 6 7 -7 10 -15 7 -18z m41 -67 c6 -18 7 -28 2
-23 -10 12 -25 55 -18 55 3 0 10 -15 16 -32z m1091 -19 c10 -18 9 -19 -7 -11
-10 6 -29 22 -43 37 l-25 28 32 -17 c18 -9 37 -26 43 -37z m-232 12 c20 -10
59 -46 85 -80 26 -34 51 -61 57 -61 21 0 8 -16 -22 -28 l-33 -12 -85 89 c-79
83 -84 91 -65 100 11 5 21 10 23 10 1 1 20 -8 40 -18z m-920 -23 c11 -18 25
-51 32 -73 7 -22 17 -46 23 -53 7 -9 7 -16 -1 -24 -20 -20 -40 0 -67 71 -15
39 -31 74 -36 77 -11 6 7 34 21 34 5 0 17 -15 28 -32z m-1773 -62 c-20 -13
-115 -33 -103 -21 10 11 81 34 103 35 19 0 19 0 0 -14z m893 -33 c8 -13 0 -24
-36 -55 -53 -43 -67 -46 -82 -18 -6 11 -7 20 -3 20 4 0 26 16 47 35 44 39 61
43 74 18z m1730 -30 c17 -13 39 -38 48 -56 9 -18 28 -44 42 -59 22 -24 23 -28
8 -28 -21 0 -85 64 -133 133 -35 50 -24 53 35 10z m-2543 -54 c5 -5 1 -9 -11
-9 -11 0 -57 -18 -102 -40 -70 -33 -86 -38 -109 -29 l-27 10 55 31 c88 51 163
65 194 37z m2425 -52 c0 -13 -29 12 -42 37 -10 19 -8 18 16 -3 14 -14 26 -29
26 -34z m-1585 33 c-3 -5 -12 -10 -18 -10 -7 0 -6 4 3 10 19 12 23 12 15 0z
m-790 -90 c21 -22 24 -30 13 -30 -9 0 -42 -14 -74 -31 -33 -17 -75 -37 -94
-44 -33 -12 -37 -11 -62 13 l-27 25 76 38 c69 35 118 56 134 58 3 1 18 -12 34
-29z m2439 -22 c13 -21 14 -29 5 -21 -8 6 -23 26 -33 45 -13 21 -14 29 -5 21
8 -6 23 -26 33 -45z m-104 -58 c15 -11 35 -37 43 -58 9 -21 27 -53 42 -70 l27
-32 -27 -12 c-39 -17 -73 5 -104 69 -14 28 -35 61 -45 72 -19 21 -19 22 0 36
25 19 31 19 64 -5z m180 -33 c0 -13 -29 12 -42 37 -10 19 -8 18 16 -3 14 -14
26 -29 26 -34z m-2500 -42 c-14 -8 -29 -14 -35 -14 -5 0 1 6 15 14 14 8 30 14
35 14 6 0 -1 -6 -15 -14z m2110 -30 c20 -24 6 -28 -15 -5 -10 11 -13 20 -8 20
6 0 16 -7 23 -15z m-2250 -40 c-14 -8 -29 -14 -35 -14 -5 0 1 6 15 14 14 8 30
14 35 14 6 0 -1 -6 -15 -14z m2350 -88 c0 -16 -28 13 -50 51 l-20 37 35 -39
c19 -22 35 -44 35 -49z m-2049 42 l29 -21 -85 -44 c-115 -58 -143 -63 -174
-30 -19 20 -21 26 -9 26 9 0 47 16 85 36 56 30 91 46 121 53 2 1 17 -8 33 -20z
m1899 -29 c16 -11 44 -49 64 -84 19 -34 42 -69 51 -76 22 -18 19 -26 -16 -41
-30 -12 -33 -11 -56 17 -13 16 -35 50 -48 75 -13 25 -39 60 -58 76 -34 30 -35
31 -14 41 32 16 46 14 77 -8z m200 -65 c13 -14 21 -25 18 -25 -2 0 -15 11 -28
25 -13 14 -21 25 -18 25 2 0 15 -11 28 -25z m-2034 -30 c-11 -8 -27 -15 -35
-14 -9 0 -2 7 14 14 39 18 45 18 21 0z m-96 -40 c0 -2 -10 -9 -22 -15 -22 -11
-22 -10 -4 4 21 17 26 19 26 11z m1083 -5327 c15 -21 22 -35 14 -33 -13 6 -47
56 -47 71 0 4 1 5 3 3 2 -2 15 -21 30 -41z"/>
<path d="M1403 4415 c0 -22 2 -30 4 -17 2 12 2 30 0 40 -3 9 -5 -1 -4 -23z"/>
<path d="M2582 4425 c0 -16 2 -22 5 -12 2 9 2 23 0 30 -3 6 -5 -1 -5 -18z"/>
<path d="M920 4416 c0 -23 59 -105 146 -204 59 -67 102 -125 115 -157 11 -29
17 -37 14 -20 -10 48 -48 103 -136 200 -45 50 -94 113 -110 140 -16 28 -29 46
-29 41z"/>
<path d="M2572 4365 c0 -16 2 -22 5 -12 2 9 2 23 0 30 -3 6 -5 -1 -5 -18z"/>
<path d="M1414 4220 c0 -80 2 -112 3 -72 2 39 2 105 0 145 -1 39 -3 7 -3 -73z"/>
<path d="M2551 4284 c0 -11 3 -14 6 -6 3 7 2 16 -1 19 -3 4 -6 -2 -5 -13z"/>
<path d="M2536 4245 c-9 -26 -7 -32 5 -12 6 10 9 21 6 23 -2 3 -7 -2 -11 -11z"/>
<path d="M1961 4099 c53 -50 93 -123 113 -207 8 -31 15 -47 15 -34 1 28 -34
135 -56 171 -23 36 -74 91 -98 103 -11 6 1 -9 26 -33z"/>
<path d="M1743 4000 c0 -25 2 -35 4 -22 2 12 2 32 0 45 -2 12 -4 2 -4 -23z"/>
<path d="M2895 4014 c4 -10 16 -41 26 -69 10 -27 18 -43 19 -34 0 24 -31 108
-43 116 -7 4 -8 0 -2 -13z"/>
<path d="M1753 3910 c0 -25 2 -35 4 -22 2 12 2 32 0 45 -2 12 -4 2 -4 -23z"/>
<path d="M2944 3785 c0 -60 1 -84 3 -52 2 32 2 81 0 110 -2 29 -3 3 -3 -58z"/>
<path d="M1762 3835 c0 -16 2 -22 5 -12 2 9 2 23 0 30 -3 6 -5 -1 -5 -18z"/>
<path d="M383 3814 c-24 -14 -43 -27 -43 -30 0 -6 67 33 85 48 17 15 1 8 -42
-18z"/>
<path d="M2092 3800 c0 -19 2 -27 5 -17 2 9 2 25 0 35 -3 9 -5 1 -5 -18z"/>
<path d="M1771 3787 c-1 -22 30 -149 35 -144 3 2 -4 40 -15 83 -11 43 -20 71
-20 61z"/>
<path d="M923 3783 c26 -2 68 -2 95 0 26 2 4 3 -48 3 -52 0 -74 -1 -47 -3z"/>
<path d="M2341 3774 c0 -11 3 -14 6 -6 3 7 2 16 -1 19 -3 4 -6 -2 -5 -13z"/>
<path d="M14870 3742 c-42 -42 -43 -44 -12 -26 41 24 91 75 71 72 -8 0 -34
-21 -59 -46z"/>
<path d="M1110 3769 c25 -4 61 -7 80 -7 29 1 26 2 -15 8 -69 11 -126 10 -65
-1z"/>
<path d="M2103 3720 c0 -25 2 -35 4 -22 2 12 2 32 0 45 -2 12 -4 2 -4 -23z"/>
<path d="M2332 3730 c0 -14 2 -19 5 -12 2 6 2 18 0 25 -3 6 -5 1 -5 -13z"/>
<path d="M14408 3713 c12 -2 32 -2 45 0 12 2 2 4 -23 4 -25 0 -35 -2 -22 -4z"/>
<path d="M14800 3690 c-9 -6 -10 -10 -3 -10 6 0 15 5 18 10 8 12 4 12 -15 0z"/>
<path d="M555 3670 c-3 -6 1 -7 9 -4 18 7 21 14 7 14 -6 0 -13 -4 -16 -10z"/>
<path d="M2113 3620 c0 -25 2 -35 4 -22 2 12 2 32 0 45 -2 12 -4 2 -4 -23z"/>
<path d="M2932 3640 c0 -14 2 -19 5 -12 2 6 2 18 0 25 -3 6 -5 1 -5 -13z"/>
<path d="M458 3619 c-21 -11 -38 -22 -38 -24 0 -3 18 4 40 15 22 11 40 23 40
25 0 7 0 7 -42 -16z"/>
<path d="M2921 3584 c0 -11 3 -14 6 -6 3 7 2 16 -1 19 -3 4 -6 -2 -5 -13z"/>
<path d="M378 3574 c-38 -20 -36 -28 2 -9 17 9 30 18 30 20 0 7 -1 6 -32 -11z"/>
<path d="M13066 3525 c-27 -52 -48 -76 -106 -118 l-25 -18 25 12 c65 31 150
125 150 166 0 27 -16 11 -44 -42z"/>
<path d="M2122 3545 c0 -16 2 -22 5 -12 2 9 2 23 0 30 -3 6 -5 -1 -5 -18z"/>
<path d="M2911 3544 c0 -11 3 -14 6 -6 3 7 2 16 -1 19 -3 4 -6 -2 -5 -13z"/>
<path d="M1503 3543 c15 -2 37 -2 50 0 12 2 0 4 -28 4 -27 0 -38 -2 -22 -4z"/>
<path d="M2901 3504 c0 -11 3 -14 6 -6 3 7 2 16 -1 19 -3 4 -6 -2 -5 -13z"/>
<path d="M12 3495 c4 -5 28 -11 53 -15 25 -4 42 -4 38 0 -11 11 -100 24 -91
15z"/>
<path d="M158 3483 c6 -2 18 -2 25 0 6 3 1 5 -13 5 -14 0 -19 -2 -12 -5z"/>
<path d="M2891 3464 c0 -11 3 -14 6 -6 3 7 2 16 -1 19 -3 4 -6 -2 -5 -13z"/>
<path d="M15305 3454 c-16 -14 -21 -21 -10 -15 30 14 61 40 50 41 -5 0 -23
-12 -40 -26z"/>
<path d="M960 3414 c-68 -42 -120 -80 -80 -59 36 19 160 97 160 101 0 7 -4 5
-80 -42z"/>
<path d="M5698 3453 c12 -2 30 -2 40 0 9 3 -1 5 -23 4 -22 0 -30 -2 -17 -4z"/>
<path d="M5815 3439 c33 -5 82 -16 109 -24 52 -17 77 -13 30 5 -42 16 -121 30
-163 29 -27 -1 -21 -4 24 -10z"/>
<path d="M2881 3424 c0 -11 3 -14 6 -6 3 7 2 16 -1 19 -3 4 -6 -2 -5 -13z"/>
<path d="M2861 3354 c0 -11 3 -14 6 -6 3 7 2 16 -1 19 -3 4 -6 -2 -5 -13z"/>
<path d="M2851 3314 c0 -11 3 -14 6 -6 3 7 2 16 -1 19 -3 4 -6 -2 -5 -13z"/>
<path d="M2821 3204 c0 -11 3 -14 6 -6 3 7 2 16 -1 19 -3 4 -6 -2 -5 -13z"/>
<path d="M1388 3193 c7 -3 16 -2 19 1 4 3 -2 6 -13 5 -11 0 -14 -3 -6 -6z"/>
<path d="M1293 3183 c9 -2 25 -2 35 0 9 3 1 5 -18 5 -19 0 -27 -2 -17 -5z"/>
<path d="M828 3173 c7 -3 16 -2 19 1 4 3 -2 6 -13 5 -11 0 -14 -3 -6 -6z"/>
<path d="M1003 3173 c26 -2 68 -2 95 0 26 2 4 3 -48 3 -52 0 -74 -1 -47 -3z"/>
<path d="M1158 3173 c7 -3 16 -2 19 1 4 3 -2 6 -13 5 -11 0 -14 -3 -6 -6z"/>
<path d="M2811 3164 c0 -11 3 -14 6 -6 3 7 2 16 -1 19 -3 4 -6 -2 -5 -13z"/>
<path d="M2801 3124 c0 -11 3 -14 6 -6 3 7 2 16 -1 19 -3 4 -6 -2 -5 -13z"/>
<path d="M562 3083 c-23 -15 -40 -29 -38 -31 4 -4 86 48 86 54 0 7 -6 4 -48
-23z"/>
<path d="M2791 3084 c0 -11 3 -14 6 -6 3 7 2 16 -1 19 -3 4 -6 -2 -5 -13z"/>
<path d="M2781 3034 c0 -11 3 -14 6 -6 3 7 2 16 -1 19 -3 4 -6 -2 -5 -13z"/>
<path d="M2772 2990 c0 -14 2 -19 5 -12 2 6 2 18 0 25 -3 6 -5 1 -5 -13z"/>
<path d="M3031 2944 c0 -11 3 -14 6 -6 3 7 2 16 -1 19 -3 4 -6 -2 -5 -13z"/>
<path d="M1228 2924 c-27 -13 -48 -27 -48 -29 0 -3 23 6 50 20 28 14 50 28 50
30 0 7 1 7 -52 -21z"/>
<path d="M2762 2930 c0 -14 2 -19 5 -12 2 6 2 18 0 25 -3 6 -5 1 -5 -13z"/>
<path d="M11838 2882 c-24 -51 -74 -111 -133 -158 -31 -24 5 -4 52 29 47 33
108 116 119 160 11 46 -10 30 -38 -31z"/>
<path d="M3021 2904 c0 -11 3 -14 6 -6 3 7 2 16 -1 19 -3 4 -6 -2 -5 -13z"/>
<path d="M2752 2860 c0 -19 2 -27 5 -17 2 9 2 25 0 35 -3 9 -5 1 -5 -18z"/>
<path d="M1098 2854 c-27 -13 -48 -27 -48 -29 0 -3 23 6 50 20 28 14 50 28 50
30 0 7 1 7 -52 -21z"/>
<path d="M3012 2855 c0 -16 2 -22 5 -12 2 9 2 23 0 30 -3 6 -5 -1 -5 -18z"/>
<path d="M13230 2872 c0 -5 -17 -28 -37 -52 -26 -30 -31 -40 -15 -31 21 11 72
71 72 84 0 4 -4 7 -10 7 -5 0 -10 -4 -10 -8z"/>
<path d="M3003 2735 c0 -44 2 -61 4 -37 2 23 2 59 0 80 -2 20 -4 1 -4 -43z"/>
<path d="M1404 2710 c44 -5 170 -28 280 -51 170 -35 222 -42 341 -44 l140 -3
-140 8 c-102 6 -192 19 -335 49 -107 23 -233 44 -280 46 l-85 4 79 -9z"/>
<path d="M3011 2629 c-2 -67 56 -306 103 -427 23 -58 57 -124 40 -77 -4 11
-20 56 -36 100 -40 110 -68 212 -89 330 -9 55 -18 88 -18 74z"/>
<path d="M12065 2631 c99 -27 164 -57 337 -159 190 -111 215 -124 236 -120 10
2 -11 18 -53 40 -38 20 -128 71 -200 112 -146 86 -263 135 -339 142 -51 5 -51
5 19 -15z"/>
<path d="M3376 2560 c4 -8 16 -28 27 -44 12 -16 31 -57 44 -90 13 -34 21 -47
18 -31 -9 43 -48 126 -74 155 -13 14 -19 18 -15 10z"/>
<path d="M13100 2530 c-19 -11 -31 -19 -27 -20 11 0 67 29 67 35 0 7 -1 7 -40
-15z"/>
<path d="M9658 2503 c7 -3 16 -2 19 1 4 3 -2 6 -13 5 -11 0 -14 -3 -6 -6z"/>
<path d="M9895 2447 c-22 -24 -51 -51 -65 -60 l-25 -18 25 12 c38 18 87 58
104 85 25 38 5 28 -39 -19z"/>
<path d="M10133 2428 c-6 -7 -27 -46 -48 -85 -43 -84 -135 -189 -206 -234 -60
-40 -64 -48 -6 -17 74 40 197 173 245 266 24 45 39 82 34 82 -5 0 -14 -6 -19
-12z"/>
<path d="M8928 2403 c28 -2 76 -2 105 0 28 2 5 3 -53 3 -58 0 -81 -1 -52 -3z"/>
<path d="M9130 2393 c19 -2 105 -15 191 -29 184 -28 250 -31 99 -3 -162 30
-231 39 -280 37 -40 -1 -41 -2 -10 -5z"/>
<path d="M10025 2362 c-5 -4 -23 -33 -39 -65 -17 -34 -51 -78 -85 -109 -42
-39 -48 -47 -23 -32 45 26 115 102 142 153 21 43 24 67 5 53z"/>
<path d="M3477 2315 c3 -27 7 -52 9 -54 7 -8 2 54 -6 79 -6 17 -7 9 -3 -25z"/>
<path d="M9563 2333 c15 -2 37 -2 50 0 12 2 0 4 -28 4 -27 0 -38 -2 -22 -4z"/>
<path d="M1850 2273 c-97 -64 -355 -282 -345 -291 4 -4 16 5 171 142 49 43
118 99 154 124 70 49 87 62 79 62 -2 0 -29 -17 -59 -37z"/>
<path d="M3493 2210 c0 -25 2 -35 4 -22 2 12 2 32 0 45 -2 12 -4 2 -4 -23z"/>
<path d="M9558 2233 c7 -3 16 -2 19 1 4 3 -2 6 -13 5 -11 0 -14 -3 -6 -6z"/>
<path d="M9493 2223 c9 -2 23 -2 30 0 6 3 -1 5 -18 5 -16 0 -22 -2 -12 -5z"/>
<path d="M9393 2213 c15 -2 37 -2 50 0 12 2 0 4 -28 4 -27 0 -38 -2 -22 -4z"/>
<path d="M9207 2203 c18 -2 50 -2 70 0 21 2 7 4 -32 4 -38 0 -55 -2 -38 -4z"/>
<path d="M3503 2090 c0 -36 2 -50 4 -32 2 17 2 47 0 65 -2 17 -4 3 -4 -33z"/>
<path d="M9820 2130 c-9 -6 -10 -10 -3 -10 6 0 15 5 18 10 8 12 4 12 -15 0z"/>
<path d="M8798 2099 c-32 -16 -58 -32 -58 -34 0 -3 27 8 60 25 33 17 60 32 60
35 0 7 2 8 -62 -26z"/>
<path d="M2618 2093 c6 -2 18 -2 25 0 6 3 1 5 -13 5 -14 0 -19 -2 -12 -5z"/>
<path d="M9368 2023 c7 -3 16 -2 19 1 4 3 -2 6 -13 5 -11 0 -14 -3 -6 -6z"/>
<path d="M3210 2000 c6 -11 13 -20 16 -20 2 0 0 9 -6 20 -6 11 -13 20 -16 20
-2 0 0 -9 6 -20z"/>
<path d="M9138 2013 c29 -2 74 -2 100 0 26 2 2 3 -53 3 -55 0 -76 -1 -47 -3z"/>
<path d="M3513 1975 c0 -22 2 -30 4 -17 2 12 2 30 0 40 -3 9 -5 -1 -4 -23z"/>
<path d="M8858 2003 c17 -2 47 -2 65 0 17 2 3 4 -33 4 -36 0 -50 -2 -32 -4z"/>
<path d="M9570 1960 c-8 -5 -10 -10 -5 -10 6 0 17 5 25 10 8 5 11 10 5 10 -5
0 -17 -5 -25 -10z"/>
<path d="M11603 1950 c42 -11 108 -43 150 -72 16 -11 31 -17 35 -13 18 17
-117 85 -181 91 l-42 4 38 -10z"/>
<path d="M3522 1905 c0 -16 2 -22 5 -12 2 9 2 23 0 30 -3 6 -5 -1 -5 -18z"/>
<path d="M11218 1923 c12 -2 32 -2 45 0 12 2 2 4 -23 4 -25 0 -35 -2 -22 -4z"/>
<path d="M3018 1773 c18 -2 45 -2 60 0 15 2 0 4 -33 4 -33 0 -45 -2 -27 -4z"/>
<path d="M10065 1681 c30 -9 122 -14 114 -7 -2 2 -35 6 -74 9 -44 4 -59 3 -40
-2z"/>
<path d="M2204 1534 c-18 -14 -18 -15 4 -4 12 6 22 13 22 15 0 8 -5 6 -26 -11z"/>
<path d="M3753 1501 c-58 -42 -103 -99 -181 -229 -85 -142 -123 -187 -199
-238 -72 -47 -87 -61 -48 -41 59 30 154 107 192 156 21 27 67 98 103 157 36
60 91 135 122 166 31 32 55 58 54 58 -2 0 -21 -13 -43 -29z"/>
<path d="M2143 1499 c-35 -22 -46 -37 -15 -20 22 13 58 40 52 41 -3 0 -20 -10
-37 -21z"/>
<path d="M3369 1476 c-31 -25 -106 -100 -167 -169 -113 -126 -151 -160 -225
-203 -23 -13 -37 -24 -32 -24 34 0 130 73 215 163 52 56 134 141 182 189 48
48 87 88 85 88 -1 0 -27 -20 -58 -44z"/>
<path d="M3903 1484 c-80 -67 -182 -247 -236 -419 -14 -44 -39 -154 -57 -245
-35 -181 -64 -268 -110 -336 -16 -24 -24 -44 -18 -44 15 0 33 25 67 90 41 80
57 134 96 334 53 269 147 485 262 603 59 61 57 69 -4 17z"/>
<path d="M2000 1409 c-52 -34 -99 -66 -105 -72 -5 -6 2 -3 16 6 145 89 201
128 187 127 -2 0 -46 -28 -98 -61z"/>
<path d="M3010 1460 c-8 -5 -10 -10 -5 -10 6 0 17 5 25 10 8 5 11 10 5 10 -5
0 -17 -5 -25 -10z"/>
<path d="M2910 1415 c-14 -8 -20 -14 -15 -14 6 0 21 6 35 14 14 8 21 14 15 14
-5 0 -21 -6 -35 -14z"/>
<path d="M1843 1309 c-35 -22 -46 -37 -15 -20 22 13 58 40 52 41 -3 0 -20 -10
-37 -21z"/>
<path d="M1774 1264 c-18 -14 -18 -15 4 -4 12 6 22 13 22 15 0 8 -5 6 -26 -11z"/>
<path d="M2183 1263 c15 -2 37 -2 50 0 12 2 0 4 -28 4 -27 0 -38 -2 -22 -4z"/>
<path d="M1724 1234 c-18 -14 -18 -15 4 -4 12 6 22 13 22 15 0 8 -5 6 -26 -11z"/>
<path d="M1258 1073 c7 -3 16 -2 19 1 4 3 -2 6 -13 5 -11 0 -14 -3 -6 -6z"/>
<path d="M2153 963 c9 -2 23 -2 30 0 6 3 -1 5 -18 5 -16 0 -22 -2 -12 -5z"/>
<path d="M1868 953 c12 -2 32 -2 45 0 12 2 2 4 -23 4 -25 0 -35 -2 -22 -4z"/>
<path d="M1711 909 c-18 -11 -31 -22 -28 -25 2 -3 22 6 42 21 45 30 34 34 -14
4z"/>
<path d="M2343 903 c9 -2 23 -2 30 0 6 3 -1 5 -18 5 -16 0 -22 -2 -12 -5z"/>
<path d="M2423 893 c20 -2 54 -2 75 0 20 2 3 4 -38 4 -41 0 -58 -2 -37 -4z"/>
<path d="M2598 883 c23 -2 61 -2 85 0 23 2 4 4 -43 4 -47 0 -66 -2 -42 -4z"/>
</g>
</svg>
