<?xml version="1.0" standalone="no"?>
<!DOCTYPE svg PUBLIC "-//W3C//DTD SVG 20010904//EN"
 "http://www.w3.org/TR/2001/REC-SVG-20010904/DTD/svg10.dtd">
<svg version="1.0" xmlns="http://www.w3.org/2000/svg"
 width="545.000000pt" height="1536.000000pt" viewBox="0 0 545.000000 1536.000000"
 preserveAspectRatio="xMidYMid meet">
<metadata>
Created by potrace 1.16, written by Peter Selinger 2001-2019
</metadata>
<g transform="translate(0.000000,1536.000000) scale(0.100000,-0.100000)"
fill="#000000" stroke="none">
<path d="M3317 15350 c-444 -33 -1139 -251 -1766 -556 -492 -239 -1005 -582
-1244 -833 -98 -103 -254 -330 -286 -417 -12 -30 -21 -71 -21 -92 0 -77 83
-179 323 -404 338 -314 605 -515 1049 -786 57 -35 159 -104 226 -153 67 -49
177 -121 245 -160 235 -136 635 -322 952 -444 280 -107 397 -178 499 -301 110
-133 197 -347 281 -689 83 -336 133 -653 251 -1580 156 -1238 258 -1935 339
-2340 139 -693 155 -935 136 -1975 -26 -1429 -43 -1698 -156 -2465 -24 -165
-62 -444 -85 -620 -55 -433 -77 -564 -111 -671 -45 -140 -125 -254 -300 -424
-98 -95 -128 -148 -129 -225 0 -61 23 -103 81 -145 57 -41 126 -60 239 -67
208 -12 339 66 444 267 85 161 116 342 186 1055 53 548 69 733 95 1065 14 179
31 411 40 515 38 494 61 1514 45 2066 -21 791 -66 1344 -216 2659 -111 983
-276 2021 -494 3110 -43 217 -84 440 -90 495 -20 164 4 301 79 460 63 132 125
204 424 489 240 227 548 586 792 921 154 211 250 421 286 625 18 101 18 414 0
505 -31 159 -104 335 -239 579 -107 193 -134 219 -297 284 -240 94 -612 208
-775 238 -101 19 -618 27 -803 14z"/>
</g>
</svg>
