<?xml version="1.0" standalone="no"?>
<!DOCTYPE svg PUBLIC "-//W3C//DTD SVG 20010904//EN"
 "http://www.w3.org/TR/2001/REC-SVG-20010904/DTD/svg10.dtd">
<svg version="1.0" xmlns="http://www.w3.org/2000/svg"
 width="1022.000000pt" height="1536.000000pt" viewBox="0 0 1022.000000 1536.000000"
 preserveAspectRatio="xMidYMid meet">
<metadata>
Created by potrace 1.16, written by Peter Selinger 2001-2019
</metadata>
<g transform="translate(0.000000,1536.000000) scale(0.100000,-0.100000)"
fill="#000000" stroke="none">
<path d="M2212 15351 c-18 -5 -74 -34 -125 -64 -179 -108 -224 -115 -419 -66
-159 40 -325 50 -413 24 -118 -34 -213 -95 -348 -224 -202 -193 -277 -362
-278 -621 0 -236 101 -452 331 -705 210 -232 298 -381 366 -618 25 -90 26
-102 35 -507 4 -228 13 -503 18 -610 16 -288 14 -406 -5 -435 -8 -13 -63 -59
-121 -102 -181 -133 -272 -276 -318 -493 -58 -282 12 -645 169 -863 179 -252
373 -392 620 -452 60 -14 131 -35 158 -47 59 -25 112 -82 146 -157 l26 -56
-12 -175 c-21 -304 5 -435 147 -762 28 -64 51 -124 51 -132 0 -24 -38 -43
-124 -60 -208 -41 -341 -164 -381 -353 -19 -89 -19 -303 0 -421 29 -180 70
-261 208 -407 92 -98 98 -114 71 -166 -22 -43 -81 -66 -189 -74 -224 -16 -437
-105 -528 -220 -47 -59 -105 -176 -144 -290 -35 -104 -37 -117 -37 -235 1
-106 5 -138 27 -215 37 -123 124 -295 192 -380 75 -94 98 -131 91 -153 -4 -10
-26 -49 -51 -86 -28 -42 -47 -84 -51 -113 -12 -82 42 -226 116 -311 42 -47 70
-99 70 -130 0 -27 -57 -101 -100 -130 -41 -28 -54 -26 -214 25 -83 27 -130 36
-186 37 -70 1 -82 -2 -175 -46 -55 -26 -154 -66 -220 -88 -222 -77 -354 -151
-462 -259 -109 -108 -140 -199 -149 -436 -6 -146 -2 -198 35 -430 40 -251 58
-315 119 -438 111 -221 221 -352 368 -438 92 -54 190 -121 594 -407 118 -83
203 -129 302 -161 131 -43 202 -107 681 -603 195 -202 269 -272 302 -287 25
-11 60 -31 78 -45 49 -38 191 -101 282 -127 64 -19 106 -23 210 -24 72 0 153
4 180 8 57 9 53 12 244 -144 98 -80 187 -131 369 -214 200 -91 287 -119 467
-150 209 -35 311 -69 535 -175 217 -103 256 -117 364 -132 128 -17 243 -6 368
36 129 43 175 45 323 11 135 -31 327 -43 434 -26 287 45 537 236 674 516 55
110 92 226 106 329 14 98 14 445 1 556 -25 206 -120 381 -322 599 -156 168
-169 206 -171 517 -2 225 -1 231 77 308 51 52 111 81 207 103 62 14 137 17
459 17 l385 1 84 29 c46 16 113 49 148 74 178 121 232 121 397 -3 150 -113
243 -155 385 -175 122 -17 280 12 361 66 64 43 291 278 340 352 60 88 92 185
115 347 36 244 19 489 -46 655 -68 177 -254 347 -464 426 -126 48 -162 93
-132 166 34 81 93 103 322 119 268 19 398 69 550 211 223 209 408 549 450 825
39 259 0 690 -85 950 -84 256 -143 412 -174 463 -20 32 -36 62 -36 67 0 4 21
35 47 68 45 57 47 63 54 145 16 186 13 229 -32 352 -74 206 -90 260 -115 407
-13 80 -36 181 -50 223 -29 88 -102 199 -162 247 -77 61 -123 74 -282 81 -160
7 -192 17 -233 72 -55 73 -95 178 -177 466 -22 79 -65 213 -95 299 -30 86 -55
171 -55 189 0 37 5 40 145 79 208 60 313 152 441 387 78 145 172 282 254 372
39 42 70 85 70 96 0 11 28 51 63 88 121 133 249 330 312 479 44 106 98 286
120 403 21 108 31 504 17 652 -9 95 -15 116 -49 180 -69 131 -214 252 -353
297 -120 38 -269 32 -426 -19 -152 -49 -234 -38 -386 52 -92 54 -144 68 -259
68 -75 0 -110 -5 -149 -20 -28 -11 -56 -20 -61 -20 -19 0 0 50 56 150 57 101
95 201 95 248 0 38 -92 284 -125 334 -33 50 -102 94 -173 110 -47 10 -73 9
-176 -7 -136 -21 -304 -31 -317 -18 -5 5 18 46 51 93 65 91 85 143 75 199 -16
93 -188 365 -299 477 -90 89 -138 112 -267 124 -55 5 -188 24 -297 41 -163 27
-226 32 -367 33 -196 1 -255 -11 -441 -90 -155 -65 -260 -100 -377 -124 -169
-35 -221 -68 -349 -218 l-36 -43 -107 79 c-124 92 -256 165 -340 187 -71 18
-378 21 -471 4 -66 -12 -152 -51 -209 -95 -93 -73 -188 -237 -285 -494 -67
-175 -120 -285 -163 -335 -84 -98 -211 -127 -381 -86 -118 28 -171 53 -189 88
-8 15 -22 67 -31 116 -19 102 -63 231 -114 336 -26 53 -58 96 -109 149 -86 87
-88 90 -142 253 -68 206 -122 277 -341 453 -213 171 -261 197 -375 202 -44 2
-95 -1 -113 -5z"/>
</g>
</svg>
