<?xml version="1.0" standalone="no"?>
<!DOCTYPE svg PUBLIC "-//W3C//DTD SVG 20010904//EN"
 "http://www.w3.org/TR/2001/REC-SVG-20010904/DTD/svg10.dtd">
<svg version="1.0" xmlns="http://www.w3.org/2000/svg"
 width="1536.000000pt" height="1116.000000pt" viewBox="0 0 1536.000000 1116.000000"
 preserveAspectRatio="xMidYMid meet">
<metadata>
Created by potrace 1.16, written by Peter Selinger 2001-2019
</metadata>
<g transform="translate(0.000000,1116.000000) scale(0.100000,-0.100000)"
fill="#000000" stroke="none">
<path d="M8680 11144 c-320 -34 -514 -79 -664 -153 -137 -68 -235 -152 -282
-244 l-15 -28 53 7 c52 6 190 33 393 77 143 31 425 30 571 -1 297 -64 567
-179 822 -350 73 -48 81 -57 65 -66 -19 -11 -243 -14 -548 -6 -207 5 -263 -4
-373 -57 -55 -27 -75 -33 -86 -24 -7 6 -40 16 -72 22 -33 6 -63 14 -67 19 -18
17 -157 -75 -169 -111 -2 -6 -18 -4 -42 6 -53 22 -91 13 -168 -39 -60 -40
-115 -66 -144 -66 -7 0 -27 30 -45 67 -61 127 -222 257 -419 337 -188 77 -367
114 -590 123 -290 11 -503 -34 -1010 -215 -382 -136 -407 -143 -496 -135 -63
5 -74 3 -80 -11 -7 -19 -58 -21 -149 -5 l-62 11 -189 -108 c-744 -423 -883
-514 -1091 -715 -45 -43 -90 -79 -100 -79 -10 0 -43 7 -73 15 -30 8 -56 15
-58 15 -1 0 -18 -33 -36 -74 -36 -78 -64 -106 -108 -106 -24 0 -28 -6 -43 -57
-41 -143 -117 -213 -297 -272 -37 -12 -78 -31 -92 -42 -38 -30 -72 -94 -110
-206 -44 -130 -55 -150 -117 -202 l-52 -44 5 -86 c6 -106 63 -284 143 -446 63
-128 96 -170 211 -266 106 -88 136 -133 179 -264 19 -58 41 -119 50 -134 14
-29 63 -75 86 -83 7 -2 9 -10 5 -17 -6 -9 -13 -9 -31 3 -15 10 -26 12 -30 6
-8 -14 116 -142 228 -236 48 -41 192 -152 320 -248 237 -177 417 -328 417
-349 -1 -36 -17 -39 -68 -13 -28 14 -54 26 -57 26 -12 0 -3 -61 15 -103 18
-41 19 -77 0 -77 -11 0 -446 160 -605 223 -182 71 -409 169 -563 242 l-123 59
-100 -20 -100 -20 -47 50 c-27 28 -127 150 -224 272 -97 122 -203 250 -236
286 -47 50 -63 75 -73 114 -48 202 -114 382 -254 689 -140 310 -229 557 -250
697 -4 26 -12 51 -19 56 -6 4 -43 18 -82 30 -70 22 -175 82 -203 115 -18 23
-8 75 75 369 36 128 74 272 85 322 27 124 35 333 16 406 -15 53 -14 57 10 115
37 87 117 245 226 443 52 94 92 172 89 172 -3 0 -35 -16 -71 -36 -277 -152
-490 -474 -621 -935 -75 -264 -130 -582 -130 -749 0 -97 -2 -110 -31 -170 -38
-79 -46 -153 -30 -275 39 -293 229 -790 401 -1045 103 -153 108 -168 140 -388
12 -86 39 -142 112 -240 180 -239 511 -526 713 -619 53 -24 75 -27 190 -31 83
-3 133 -8 137 -16 4 -6 8 -44 8 -83 l0 -73 42 -27 c89 -57 592 -303 808 -395
579 -246 804 -310 1100 -313 l145 -1 2 -25 c0 -13 1 -30 2 -36 2 -21 21 -15
58 17 18 17 40 30 48 30 18 0 276 -231 354 -317 96 -105 168 -218 201 -313 17
-49 26 -88 20 -94 -16 -16 -193 -8 -295 14 -359 77 -383 81 -480 81 -68 1
-113 -4 -142 -14 -39 -15 -47 -15 -85 -1 -146 52 -370 82 -668 91 -226 6 -468
-3 -1047 -41 -378 -24 -363 -21 -379 -91 -12 -58 -27 -65 -133 -65 -241 0
-535 -77 -786 -206 -117 -59 -303 -183 -310 -205 -3 -9 -6 -38 -7 -63 l-1 -47
-71 -41 c-368 -213 -661 -482 -858 -788 l-55 -85 -12 -140 c-7 -77 -27 -249
-46 -381 -19 -133 -39 -299 -46 -369 -29 -311 36 -819 131 -1023 32 -69 93
-159 98 -144 1 5 -9 120 -23 255 -14 135 -25 295 -25 354 1 176 36 320 92 380
20 21 21 27 10 74 -28 118 -8 282 64 544 l36 132 77 22 c156 46 259 108 511
306 85 67 265 204 400 305 202 151 277 215 425 361 185 181 289 261 382 294
74 26 206 31 297 11 42 -10 76 -19 76 -20 0 -2 -11 -28 -24 -57 -14 -30 -28
-75 -31 -101 -6 -43 -10 -47 -40 -52 -101 -19 -249 -127 -329 -239 -133 -188
-188 -378 -191 -663 l-2 -181 -86 -184 c-213 -456 -288 -756 -258 -1029 15
-145 31 -193 93 -281 95 -136 358 -381 618 -573 319 -237 751 -448 964 -471
51 -6 51 -6 26 12 -537 393 -791 602 -984 811 l-78 85 37 12 c45 16 49 20 42
40 -5 12 -11 13 -31 4 -19 -9 -37 -7 -90 11 l-65 21 5 43 c7 50 -1 58 -70 77
-27 8 -53 21 -58 29 -7 11 29 101 131 331 168 378 235 543 296 726 95 283 146
531 167 803 l12 162 35 -6 c20 -4 293 -11 606 -15 587 -9 662 -14 805 -57 61
-18 190 -82 190 -94 0 -20 -79 -73 -184 -124 -129 -62 -165 -99 -207 -206 -28
-71 -37 -225 -19 -324 11 -60 49 -188 75 -248 6 -16 -1 -18 -80 -18 -89 0
-125 -10 -125 -35 0 -19 4 -19 41 0 26 14 30 14 35 1 3 -9 -3 -30 -14 -48 -53
-88 -112 -312 -151 -583 -28 -187 -28 -195 5 -195 14 0 39 11 56 25 16 14 34
25 39 25 5 0 26 -16 48 -35 56 -51 82 -118 88 -232 l6 -95 126 -115 c140 -129
234 -199 331 -248 90 -45 132 -57 224 -64 79 -6 79 -6 83 -36 8 -60 29 -71
223 -114 264 -59 314 -65 515 -65 164 -1 202 2 277 21 95 24 218 76 218 92 0
25 54 71 91 77 27 5 39 12 39 23 0 10 18 54 40 100 22 45 40 86 40 91 0 5 -12
10 -27 12 -37 4 -45 38 -9 38 35 0 42 18 12 32 -30 13 -31 19 -10 59 8 17 14
32 12 33 -2 2 -30 7 -63 12 -44 7 -61 14 -63 26 -2 12 8 20 37 28 23 6 41 15
41 21 0 6 -5 7 -11 4 -5 -4 -21 -4 -34 -1 -21 5 -24 13 -27 59 l-3 52 -45 1
c-25 1 -51 2 -57 3 -8 1 -13 15 -13 36 0 67 -75 122 -225 165 -52 15 -60 20
-66 46 -15 75 -67 130 -150 159 -24 9 -100 25 -169 36 -156 25 -205 37 -253
61 -35 17 -37 20 -31 56 3 20 1 66 -6 102 -25 142 -128 296 -334 500 -64 63
-116 119 -116 123 0 13 92 1 420 -56 282 -48 303 -51 485 -51 174 -1 196 1
255 22 36 13 89 39 118 58 50 33 54 34 98 23 63 -16 146 -5 212 28 72 36 171
135 247 246 l60 88 50 -5 c74 -8 167 9 311 54 162 52 188 50 173 -10 -3 -11
11 -16 61 -21 359 -37 1131 -37 1510 0 362 35 864 118 882 145 4 6 8 26 8 44
0 17 2 32 4 32 2 0 32 -13 67 -29 114 -51 238 -67 369 -48 l56 8 47 -75 c62
-97 166 -193 266 -245 87 -45 97 -47 120 -27 9 9 42 15 78 17 57 2 64 0 99
-31 131 -114 323 -128 739 -51 121 22 263 45 315 52 88 10 265 7 278 -5 2 -3
-35 -49 -84 -102 -241 -260 -305 -341 -366 -463 -34 -69 -42 -96 -46 -157 l-5
-75 30 17 c63 37 87 -17 28 -62 -26 -19 -35 -34 -35 -55 0 -34 7 -35 55 -12
49 24 66 6 35 -37 -42 -60 -43 -112 -5 -262 5 -21 3 -28 -7 -28 -24 0 -162
-86 -218 -136 l-54 -49 45 -5 c31 -4 45 -10 47 -22 3 -16 -6 -18 -76 -18 -65
0 -81 -3 -86 -17 -8 -19 9 -33 41 -33 12 0 24 -4 27 -9 10 -16 -19 -30 -69
-33 -69 -4 -67 -28 4 -44 84 -19 83 -35 -5 -62 -57 -17 -85 -33 -119 -66 -25
-23 -45 -47 -45 -53 0 -6 18 -13 40 -17 45 -7 52 -21 15 -30 -14 -4 -43 -24
-64 -45 -42 -42 -156 -255 -147 -276 2 -7 17 -15 33 -17 20 -2 29 -9 31 -25 3
-18 -8 -28 -67 -58 -41 -20 -71 -42 -71 -50 0 -12 4 -13 19 -5 24 12 41 13 60
1 12 -8 9 -21 -18 -80 -18 -38 -33 -83 -34 -98 -2 -25 1 -28 26 -25 40 5 48
-25 13 -51 -82 -60 -32 -147 86 -147 52 0 71 -11 62 -34 -6 -15 -1 -16 35 -10
37 6 41 5 41 -15 0 -20 5 -21 79 -21 44 0 93 6 112 14 19 8 90 25 159 39 69
14 151 35 183 47 68 26 141 81 180 137 22 32 32 39 52 35 17 -3 25 -11 25 -25
0 -16 9 -11 53 30 28 27 86 72 128 100 120 81 160 140 182 267 10 62 15 73 27
66 58 -37 130 18 150 113 6 29 9 60 6 68 -2 8 -7 26 -10 41 -6 26 -5 27 23 17
89 -31 121 14 129 184 5 126 12 147 47 147 14 0 25 2 25 3 0 2 -9 39 -20 83
-24 91 -29 209 -11 241 26 49 124 69 185 38 16 -9 30 -14 32 -13 1 2 -4 20
-11 42 -15 43 -74 109 -118 132 -30 16 -31 31 -5 47 11 8 33 2 81 -21 76 -37
92 -40 82 -14 -33 77 -46 122 -64 214 -22 118 -36 151 -88 209 l-35 39 46 0
c26 0 56 -5 67 -11 18 -9 19 -7 13 18 -10 47 -57 116 -102 150 -54 41 -111 57
-183 50 l-56 -5 43 72 c73 121 97 196 98 301 0 76 -4 100 -28 158 -35 83 -30
112 21 134 45 18 32 29 -47 39 -91 11 -98 28 -50 119 17 32 29 59 27 61 -2 2
-25 -8 -52 -22 -43 -22 -59 -25 -108 -20 -92 9 -187 70 -187 119 0 18 5 19 53
14 135 -16 407 -38 657 -52 351 -19 673 -45 682 -53 4 -4 14 -50 23 -102 38
-227 117 -464 225 -680 130 -262 282 -483 572 -837 l108 -133 -98 -162 c-53
-90 -240 -379 -415 -643 l-319 -480 38 -3 c82 -7 229 92 369 248 111 123 406
486 498 612 216 297 280 445 281 658 1 151 -17 221 -106 402 -39 79 -81 171
-94 206 l-24 64 66 101 c37 56 160 231 275 389 250 343 341 481 425 642 94
183 117 263 118 416 1 104 -3 137 -23 200 -68 218 -206 394 -536 685 -146 128
-150 133 -162 186 -49 213 -258 411 -532 504 -114 38 -221 55 -360 55 l-126 0
-44 65 c-43 64 -45 65 -80 59 -821 -141 -1781 -420 -2641 -769 -91 -37 -171
-70 -179 -73 -18 -7 -10 26 30 128 60 150 162 290 359 495 69 72 144 151 167
177 36 40 48 47 95 53 29 4 112 18 183 32 99 19 147 24 202 19 l72 -6 7 34 c3
19 3 43 0 53 -5 15 21 33 162 107 319 170 628 362 837 519 121 92 289 233 323
271 33 38 33 57 0 111 -26 44 -23 59 23 84 57 33 164 135 209 201 168 248 250
657 221 1099 -7 95 -14 178 -17 186 -3 7 -23 21 -45 29 l-39 16 0 197 c0 566
-100 1008 -285 1268 -24 33 -71 87 -106 121 l-64 61 -110 6 c-60 4 -236 23
-390 43 -210 27 -320 36 -440 37 -153 1 -165 0 -279 -32 -186 -51 -222 -44
-426 86 -121 77 -225 125 -380 173 -165 52 -201 70 -315 155 -141 106 -168
116 -353 126 -195 12 -247 24 -616 151 -320 110 -496 158 -657 182 -124 19
-188 19 -359 0z m-1230 -870 c107 -16 172 -33 278 -70 67 -24 72 -28 72 -55 0
-126 126 -191 413 -214 74 -6 77 -8 77 -32 0 -58 46 -241 105 -423 75 -227
101 -334 111 -446 l6 -80 -59 4 c-55 4 -61 2 -103 -32 -25 -20 -62 -48 -84
-63 -54 -38 -45 -56 -143 267 l-29 95 -43 3 c-74 5 -98 -36 -108 -183 l-6 -95
-78 0 c-51 0 -81 4 -86 13 -4 6 -8 55 -8 107 l0 94 -34 23 c-30 20 -36 21 -60
9 -39 -21 -67 -79 -90 -191 -25 -119 -48 -185 -65 -185 -6 0 -45 27 -86 60
-41 33 -82 60 -91 60 -36 0 -143 -101 -162 -153 -3 -7 -17 0 -38 19 -56 51
-124 93 -247 151 -224 105 -397 192 -421 212 l-25 19 70 7 c148 15 984 151
1054 171 110 32 198 91 239 159 l20 35 -20 11 c-11 6 -71 14 -134 19 -147 11
-195 36 -195 99 0 12 -1 21 -2 21 -2 0 -32 -9 -67 -20 l-65 -19 -60 45 c-107
79 -185 88 -262 29 l-34 -26 -31 22 c-17 12 -67 36 -112 54 -45 18 -94 38
-110 45 -33 16 -46 7 -56 -42 -10 -51 -43 -50 -76 1 -28 45 -40 48 -106 26
-24 -8 -105 -19 -179 -24 -138 -9 -221 -31 -261 -67 -17 -15 -20 -15 -45 5
-15 12 -35 21 -45 21 -25 0 -24 4 10 53 168 244 575 434 1017 476 122 12 327
5 454 -15z m5054 -335 c81 -16 152 -26 157 -23 5 3 9 18 9 35 0 24 4 29 24 29
14 0 38 -11 54 -25 17 -14 40 -25 52 -25 13 0 20 -5 16 -12 -9 -23 -43 -141
-61 -211 -19 -74 -55 -127 -86 -127 -30 0 -24 -48 20 -142 22 -45 42 -95 45
-110 6 -24 3 -28 -17 -28 -47 0 -89 41 -133 131 l-43 86 -46 5 c-123 14 -274
135 -340 272 l-36 76 -50 0 c-27 0 -49 4 -49 8 0 4 15 22 33 39 73 70 179 75
451 22z m-3859 -55 c463 -52 904 -174 1440 -399 83 -35 334 -147 558 -249 225
-102 412 -186 417 -186 4 0 46 -37 92 -82 67 -67 108 -97 208 -152 214 -119
301 -189 349 -284 23 -45 22 -46 -31 -56 -34 -6 -70 -27 -202 -119 -48 -33
-109 -36 -166 -7 -22 11 -45 20 -53 20 -28 0 -97 -73 -141 -150 -51 -87 -108
-150 -139 -150 -26 0 -76 54 -109 118 -16 29 -32 52 -37 52 -5 0 -24 -36 -42
-80 -38 -92 -70 -128 -118 -132 l-33 -3 -19 75 c-37 144 -91 230 -265 415
l-102 109 -27 -18 c-14 -9 -35 -38 -46 -64 -11 -26 -22 -48 -24 -51 -2 -2 -85
73 -184 167 -277 263 -319 291 -361 240 -11 -13 -29 -35 -42 -50 -13 -15 -35
-30 -51 -34 -23 -5 -29 -2 -40 25 l-13 31 -29 -30 c-95 -100 -254 -72 -430 76
-91 77 -136 100 -164 84 -30 -16 -58 -57 -76 -109 -15 -46 -17 -48 -52 -46
l-37 3 -58 143 c-104 254 -210 587 -272 858 l-15 63 92 -7 c51 -3 150 -13 222
-21z m-2223 -779 c37 -3 98 -15 135 -26 69 -21 198 -84 242 -117 l23 -19 -21
-40 c-29 -58 -96 -113 -213 -174 -151 -79 -228 -164 -228 -253 0 -33 -101 11
-129 55 -7 13 -36 66 -62 120 -27 53 -55 102 -63 108 -10 9 -33 -3 -101 -51
-173 -123 -303 -269 -350 -392 -10 -25 -22 -46 -26 -46 -19 0 -87 80 -94 109
-4 17 -10 31 -14 31 -3 0 -37 -25 -73 -55 -156 -129 -269 -319 -308 -517 l-11
-56 -37 10 c-48 13 -98 61 -118 115 -9 24 -20 43 -24 43 -13 0 -69 -68 -89
-108 -10 -20 -33 -81 -51 -135 -29 -90 -34 -97 -53 -91 -49 15 -143 68 -259
147 -116 79 -235 147 -258 147 -5 0 -19 -9 -30 -20 -27 -27 -73 -25 -154 5
-37 14 -80 25 -97 25 l-30 0 33 46 c56 79 208 216 292 263 90 51 210 93 316
111 85 15 100 23 100 54 0 19 10 25 76 40 106 25 245 100 491 263 386 257 704
391 978 412 50 4 101 6 115 5 14 -2 55 -6 92 -9z m6308 -672 c109 -124 140
-248 160 -643 5 -113 13 -235 16 -271 l6 -66 -247 -142 c-554 -320 -1138 -632
-1153 -616 -11 11 -15 151 -4 171 6 11 38 30 71 43 51 20 66 22 86 13 21 -10
27 -9 32 3 3 9 -2 24 -11 34 -9 10 -16 21 -16 25 0 4 78 85 173 179 167 166
307 330 434 507 58 81 61 89 68 160 13 140 48 216 180 389 67 89 123 184 140
239 3 12 10 22 15 22 4 0 27 -21 50 -47z m1073 -3280 c167 -327 422 -621 940
-1083 232 -207 217 -183 191 -321 -38 -202 -109 -369 -299 -705 -101 -178
-164 -301 -201 -392 l-9 -23 -40 30 c-22 16 -71 65 -109 110 -38 44 -84 91
-102 103 -32 22 -34 25 -28 68 3 25 1 88 -6 140 -40 334 -248 603 -520 676
-36 9 -71 24 -77 33 -7 8 -13 36 -13 62 0 47 0 47 -54 73 -30 15 -101 61 -158
102 -201 148 -297 181 -588 204 -239 19 -374 48 -447 95 -20 14 -38 14 -131 4
-127 -14 -258 -6 -345 21 -63 20 -121 62 -114 83 2 7 23 16 48 20 70 14 77 47
10 47 -28 0 -60 -14 -122 -51 -111 -68 -121 -71 -175 -58 -44 11 -48 10 -137
-36 -112 -59 -187 -87 -315 -120 -55 -13 -152 -45 -215 -70 -132 -51 -187 -57
-251 -25 -89 45 -95 53 -115 190 -10 67 -15 137 -12 154 l7 30 129 -3 c437 -9
969 88 1800 327 878 254 964 278 1245 342 91 21 168 39 172 39 4 1 22 -29 41
-66z m-8123 -923 c27 -27 27 -118 1 -176 -59 -130 -261 -135 -504 -13 -83 42
-96 62 -53 79 13 5 28 15 33 23 7 13 16 13 73 1 114 -25 249 1 360 70 66 41
65 41 90 16z m4583 -441 c20 -11 79 -47 130 -80 162 -108 229 -127 360 -104
45 8 97 15 115 15 58 0 112 -40 112 -83 0 -8 -49 -39 -110 -71 -60 -32 -124
-69 -140 -83 l-31 -26 -109 34 c-104 32 -109 35 -129 74 -11 22 -32 60 -45 84
l-25 44 -11 -29 c-7 -16 -17 -68 -23 -116 -12 -95 -16 -99 -67 -73 -40 21 -57
57 -85 185 -28 126 -43 160 -85 190 -34 24 -31 36 14 56 35 15 74 10 129 -17z
m-4261 -205 c42 -6 45 -8 44 -35 -1 -16 -7 -29 -13 -29 -24 0 -44 -63 -66
-208 -19 -123 -25 -147 -40 -150 -33 -7 -50 18 -44 66 7 62 -13 53 -42 -20 -6
-17 -18 -28 -30 -28 -16 0 -20 8 -23 37 -4 52 -25 53 -33 1 -10 -59 -22 -78
-48 -78 -12 -1 -33 -7 -47 -15 -35 -20 -64 -18 -86 6 -30 33 -86 58 -202 88
-59 16 -123 35 -142 43 -38 17 -84 56 -92 78 -8 24 -28 0 -28 -34 l0 -33 -52
13 c-29 8 -64 14 -79 14 -68 0 -129 30 -129 64 0 21 44 26 340 35 151 5 300
14 330 21 83 18 173 65 232 120 l53 49 76 1 c42 0 96 -3 121 -6z"/>
</g>
</svg>
