<?xml version="1.0" encoding="UTF-8" standalone="no"?>
<!-- Created with Inkscape (http://www.inkscape.org/) -->

<svg
   xmlns:svg="http://www.w3.org/2000/svg"
   xmlns="http://www.w3.org/2000/svg"
   version="1.0"
   width="100%"
   height="100%"
   viewBox="0 0 344 274.6"
   id="Layer_1"
   xml:space="preserve"><defs
   id="defs7" />
<path
   d="m 72.3,241.2 c -14.6,5.5 -43.3,23.5 -45.5,25.3 -2.2,1.8 -11,7.7 -16,8 -5,0.3 -6.5,-2.5 -7.8,-4 -1.3,-1.5 -3.5,-5 -2.8,-8.3 0.7,-3.3 7.2,-12 14.3,-18.3 7.1,-6.3 26.2,-20.8 35.8,-26.7 9.7,-5.8 44.3,-22.5 52.7,-29.5 8.4,-7 29.7,-28.5 34.7,-57.5 5,-29 2.6,-40.1 7.3,-51.2 0.5,-1.1 1.3,-17.2 14.2,-31.8 0,0 12.5,-16.2 16.8,-20 4.3,-3.8 19.7,-14.2 29.5,-18.5 9.8,-4.3 24.3,-8.2 33.5,-8.3 9.2,-0.2 27.7,-2.5 49.7,7.2 22,9.7 33.2,22.8 38.5,30 5.3,7.2 12.8,19.1 14.7,30.8 2.5,15.8 3.5,52.2 0,73.3 -3.5,21.1 -14.8,38.7 -24.3,49.2 -9.5,10.5 -22.2,15.5 -29.5,17.8 -7.3,2.3 -20.7,5.7 -36.3,-0.7 -15.7,-6.3 -25.2,-14 -32.7,-35.8 -7.5,-21.8 5,-39 8.7,-44.3 3.7,-5.3 25.5,-30 27.5,-32.8 2,-2.8 3.8,-7.2 5,-10.5 1.2,-3.3 6.8,-11.7 8.3,-12.2 1.5,-0.5 4.3,4.7 3.7,9.3 -0.7,4.7 -0.8,10 -3.2,16.3 -2.3,6.3 -18.3,36.3 -20.7,39.2 -2.3,2.9 -7,10.3 -6.3,18.3 0.7,8 0.8,13.5 9.3,21.2 8.5,7.7 20.3,7.3 26.7,5 6.3,-2.3 18.3,-7.5 24.8,-19.5 6.5,-12 7.7,-15.7 8.3,-27.2 0.7,-11.5 0.8,-41.7 -0.8,-49.3 -1.7,-7.7 -2.5,-22.7 -13.5,-32 -11,-9.3 -26.3,-19 -45.5,-18.5 -19.2,0.5 -33.7,0 -50.3,17.5 -16.6,17.5 -21.6,27.2 -22.8,37.3 -1.2,10.1 -4,38 -4.5,43.3 -0.5,5.3 -12,37.5 -16.5,42.8 -4.5,5.3 -24.4,32 -33.1,37.4 -8.7,5.4 -42.1,24 -51.9,27.7 z"
   id="path3" />
</svg>