<?xml version="1.0" standalone="no"?>
<!DOCTYPE svg PUBLIC "-//W3C//DTD SVG 20010904//EN"
 "http://www.w3.org/TR/2001/REC-SVG-20010904/DTD/svg10.dtd">
<svg version="1.0" xmlns="http://www.w3.org/2000/svg"
 width="1536.000000pt" height="347.000000pt" viewBox="0 0 1536.000000 347.000000"
 preserveAspectRatio="xMidYMid meet">
<metadata>
Created by potrace 1.16, written by Peter Selinger 2001-2019
</metadata>
<g transform="translate(0.000000,347.000000) scale(0.100000,-0.100000)"
fill="#000000" stroke="none">
<path d="M11075 3459 c-93 -4 -350 -20 -570 -33 -220 -14 -528 -32 -685 -41
-912 -50 -3689 -304 -6595 -604 -319 -33 -800 -82 -1070 -108 l-490 -47 -395
-1 c-448 0 -488 5 -628 75 -80 41 -232 151 -341 248 -89 79 -111 92 -153 92
-29 0 -42 -7 -63 -32 -24 -28 -27 -39 -23 -88 3 -47 16 -78 77 -188 84 -152
105 -210 95 -267 -6 -41 -72 -203 -143 -357 -81 -173 -106 -340 -77 -504 29
-171 67 -264 213 -528 43 -77 24 -148 -96 -357 -112 -194 -129 -253 -95 -325
44 -93 126 -86 245 21 46 41 198 144 259 175 77 39 255 99 362 121 142 29 287
28 498 -5 192 -31 232 -34 1260 -120 1059 -89 1162 -96 2910 -201 516 -31
1503 -96 1960 -130 483 -36 738 -60 1241 -115 624 -69 853 -87 1419 -110 1107
-45 1732 -35 2260 35 253 34 836 129 1025 166 545 108 913 249 1216 465 118
84 318 281 411 404 147 196 243 429 255 620 21 339 -188 697 -587 1007 -387
300 -910 487 -1671 598 -186 26 -856 107 -1044 125 -150 15 -771 20 -980 9z
m-9281 -1303 c37 -15 66 -50 66 -78 0 -24 -54 -56 -108 -64 -74 -11 -162 28
-162 71 0 24 46 62 88 73 53 14 78 14 116 -2z m-66 -895 c-57 -8 -77 -24 -62
-48 16 -25 69 -36 110 -23 38 13 42 25 17 52 -20 22 -3 24 37 3 34 -18 40 -31
28 -67 -14 -39 -53 -61 -112 -61 -108 0 -182 72 -126 121 27 22 55 30 110 30
l45 -1 -47 -6z"/>
<path d="M1673 2090 c-28 -12 -30 -46 -4 -60 31 -16 87 -12 112 9 22 18 23 21
8 36 -20 20 -85 28 -116 15z"/>
</g>
</svg>
