<?xml version="1.0" standalone="no"?>
<!DOCTYPE svg PUBLIC "-//W3C//DTD SVG 20010904//EN"
 "http://www.w3.org/TR/2001/REC-SVG-20010904/DTD/svg10.dtd">
<svg version="1.0" xmlns="http://www.w3.org/2000/svg"
 width="1536.000000pt" height="1200.000000pt" viewBox="0 0 1536.000000 1200.000000"
 preserveAspectRatio="xMidYMid meet">
<metadata>
Created by potrace 1.16, written by Peter Selinger 2001-2019
</metadata>
<g transform="translate(0.000000,1200.000000) scale(0.100000,-0.100000)"
fill="#000000" stroke="none">
<path d="M93 11980 c-128 -65 -118 -218 42 -696 36 -105 94 -262 131 -350 153
-372 175 -425 189 -481 15 -58 59 -129 155 -253 44 -57 73 -108 128 -227 25
-54 175 -215 428 -459 704 -679 913 -848 1249 -1010 170 -82 318 -136 791
-288 396 -127 599 -196 823 -281 69 -26 163 -53 210 -61 121 -21 267 -62 551
-156 595 -196 981 -348 1034 -407 31 -35 162 -114 296 -179 120 -58 249 -139
410 -258 41 -30 127 -84 190 -121 242 -138 275 -160 356 -235 89 -83 167 -143
338 -258 137 -93 288 -215 498 -402 295 -262 648 -610 760 -748 20 -25 47 -70
61 -100 16 -36 54 -88 111 -149 156 -167 276 -321 491 -631 230 -331 476 -644
684 -869 344 -371 462 -541 795 -1140 175 -316 184 -350 231 -946 40 -512 66
-705 130 -986 60 -262 88 -306 181 -281 64 17 165 78 281 169 174 137 365 243
718 398 311 136 463 219 674 369 264 186 691 559 887 774 301 329 525 664 942
1410 151 269 210 355 344 499 95 102 158 185 158 208 0 52 -244 158 -512 224
-177 43 -295 60 -496 71 -325 17 -618 82 -936 207 -298 117 -495 262 -891 658
-609 608 -1268 1424 -1835 2275 -244 366 -434 625 -570 780 -89 101 -200 245
-279 363 -113 168 -300 384 -586 675 -303 309 -505 482 -564 482 -41 0 -140
52 -211 111 -348 287 -1272 717 -2210 1029 -627 209 -741 232 -1334 270 -543
35 -714 50 -1036 95 -135 19 -366 50 -515 70 -572 75 -864 119 -1603 241 -221
36 -372 66 -449 90 -313 95 -672 259 -921 420 -119 78 -159 96 -221 101 -44 3
-65 0 -98 -17z"/>
</g>
</svg>
