<?xml version="1.0" standalone="no"?>
<!DOCTYPE svg PUBLIC "-//W3C//DTD SVG 20010904//EN"
 "http://www.w3.org/TR/2001/REC-SVG-20010904/DTD/svg10.dtd">
<svg version="1.0" xmlns="http://www.w3.org/2000/svg"
 width="1536.000000pt" height="387.000000pt" viewBox="0 0 1536.000000 387.000000"
 preserveAspectRatio="xMidYMid meet">
<metadata>
Created by potrace 1.16, written by Peter Selinger 2001-2019
</metadata>
<g transform="translate(0.000000,387.000000) scale(0.100000,-0.100000)"
fill="#000000" stroke="none">
<path d="M6835 3863 c-44 -3 -168 -23 -340 -53 -60 -11 -141 -22 -180 -25
-135 -11 -380 -56 -435 -79 -30 -13 -91 -34 -135 -46 -44 -12 -107 -31 -140
-42 -206 -70 -428 -139 -470 -147 -22 -5 -89 -22 -150 -40 -60 -17 -193 -53
-295 -81 -102 -27 -203 -59 -225 -70 -22 -11 -213 -75 -425 -144 -395 -127
-881 -285 -1515 -491 -198 -65 -481 -157 -630 -205 -148 -48 -358 -117 -465
-155 -107 -37 -265 -91 -351 -121 -229 -78 -642 -252 -817 -343 -43 -22 -107
-54 -143 -70 -95 -44 -119 -65 -119 -107 0 -25 9 -44 36 -73 37 -41 95 -68
275 -126 l84 -28 330 0 c313 0 338 2 480 27 83 15 227 49 320 76 94 27 190 52
215 56 25 3 169 37 320 76 309 77 650 133 915 148 83 5 188 15 235 22 53 7
176 12 325 11 302 -2 318 -6 426 -121 40 -42 144 -152 231 -244 l158 -167 0
-218 c0 -227 6 -266 48 -349 11 -22 32 -50 46 -63 14 -14 26 -29 26 -35 0 -5
21 -41 46 -79 53 -78 94 -180 119 -295 23 -101 63 -165 138 -213 42 -27 72
-39 117 -44 79 -9 120 6 170 62 39 45 40 47 40 123 0 87 -35 241 -70 311 -13
24 -41 71 -64 104 -54 78 -112 182 -120 219 -6 26 2 37 96 135 101 104 129
140 181 233 25 44 29 46 64 42 34 -3 196 -11 593 -29 128 -6 872 -63 2085
-161 l690 -55 1034 1 1034 1 -15 -23 c-8 -13 -46 -77 -85 -143 -54 -93 -72
-135 -81 -186 -11 -62 -10 -70 14 -130 16 -41 43 -82 72 -112 l47 -48 5 -102
5 -101 34 -23 c25 -17 48 -23 88 -23 47 0 58 -4 81 -29 40 -42 63 -51 136 -51
54 0 69 4 94 25 27 23 38 25 123 25 74 0 98 4 114 18 44 36 48 50 55 191 6
138 7 140 38 175 42 48 47 75 34 176 -7 47 -17 128 -24 180 l-12 96 33 71 c29
61 39 74 71 87 33 13 505 108 1435 290 210 41 321 58 444 66 130 9 236 26 520
81 648 128 580 118 755 106 145 -10 155 -10 187 9 19 11 43 36 54 56 16 28 24
34 40 27 36 -14 227 -10 279 6 62 19 73 29 137 126 l52 80 5 99 c6 127 -18
201 -83 258 -23 20 -56 58 -73 83 -62 92 -155 151 -256 163 -55 6 -62 10 -115
65 -44 45 -68 62 -102 70 -140 35 -2734 754 -2901 805 -65 20 -130 36 -146 36
-15 0 -55 9 -88 19 -32 11 -105 27 -161 36 -57 8 -114 20 -128 25 -15 6 -41
10 -58 10 -18 0 -81 9 -142 19 -187 34 -297 51 -380 61 -76 8 -111 15 -235 46
-30 7 -82 16 -115 19 -33 3 -98 12 -145 20 -75 13 -196 29 -420 55 -36 4 -90
12 -120 18 -30 6 -167 13 -305 17 -137 4 -401 12 -585 17 -317 10 -1879 19
-1965 11z"/>
</g>
</svg>
