<?xml version="1.0" standalone="no"?>
<!DOCTYPE svg PUBLIC "-//W3C//DTD SVG 20010904//EN"
 "http://www.w3.org/TR/2001/REC-SVG-20010904/DTD/svg10.dtd">
<svg version="1.0" xmlns="http://www.w3.org/2000/svg"
 width="1536.000000pt" height="775.000000pt" viewBox="0 0 1536.000000 775.000000"
 preserveAspectRatio="xMidYMid meet">
<metadata>
Created by potrace 1.16, written by Peter Selinger 2001-2019
</metadata>
<g transform="translate(0.000000,775.000000) scale(0.100000,-0.100000)"
fill="#000000" stroke="none">
<path d="M11372 7739 c-58 -11 -91 -33 -141 -94 -61 -73 -75 -127 -67 -248 7
-103 34 -205 81 -296 33 -66 111 -150 214 -229 47 -36 105 -83 129 -103 24
-21 141 -93 260 -160 272 -154 275 -155 343 -179 31 -11 98 -48 150 -81 121
-78 193 -114 419 -211 102 -44 250 -114 330 -157 80 -43 205 -108 278 -145
173 -87 241 -128 370 -228 59 -45 177 -125 262 -176 85 -51 177 -114 203 -140
27 -26 115 -144 195 -262 80 -118 169 -240 198 -270 28 -30 61 -74 73 -97 36
-72 61 -283 61 -517 0 -277 -4 -297 -134 -648 -26 -70 -167 -268 -264 -369
-169 -178 -414 -363 -472 -357 -19 2 -34 20 -66 77 -40 70 -42 78 -49 185 -8
122 -17 148 -69 193 -27 24 -50 33 -108 43 -40 6 -79 13 -87 16 -8 2 -24 -3
-37 -11 -38 -25 -30 -57 25 -110 62 -59 66 -86 39 -223 l-20 -106 32 -113 c28
-99 30 -116 18 -140 -18 -37 -70 -70 -218 -138 -342 -157 -652 -249 -1007
-300 -237 -34 -251 -35 -563 -35 -278 0 -332 3 -408 19 -48 11 -120 25 -160
31 -41 7 -128 30 -195 52 -67 21 -169 54 -227 73 -325 104 -579 217 -799 357
-53 34 -130 81 -171 106 -147 87 -354 233 -485 341 -101 84 -235 187 -300 231
-27 19 -93 75 -146 124 -192 182 -434 403 -524 481 -51 44 -150 132 -221 196
-215 192 -402 336 -655 502 -526 346 -1034 558 -1524 636 -265 42 -764 56
-922 26 -43 -8 -132 -22 -198 -30 -132 -17 -315 -63 -415 -106 -36 -15 -101
-37 -145 -49 -44 -12 -96 -31 -116 -41 -20 -10 -118 -52 -217 -93 -100 -41
-219 -96 -265 -122 -158 -91 -187 -104 -208 -93 -23 12 -23 20 -4 103 18 76
59 186 115 306 66 140 86 251 55 309 -8 16 -29 41 -46 56 -29 24 -39 26 -93
22 -61 -4 -69 -7 -326 -122 -120 -54 -156 -60 -212 -39 -77 29 -104 29 -123 1
-15 -23 -15 -28 -1 -56 9 -16 20 -33 26 -36 5 -3 10 -19 10 -36 0 -24 -11 -37
-75 -84 -81 -60 -98 -82 -93 -122 4 -38 35 -45 99 -21 87 33 115 34 132 6 8
-12 18 -42 22 -66 15 -94 64 -95 111 -2 53 104 165 192 164 128 -1 -37 -53
-158 -98 -226 -23 -35 -54 -95 -69 -133 -31 -78 -81 -148 -133 -191 l-36 -28
-114 60 c-63 33 -127 60 -141 60 -38 0 -59 -29 -59 -84 l0 -46 -27 17 c-22 14
-48 18 -129 18 -94 -1 -104 -2 -141 -28 -22 -15 -72 -61 -110 -101 -65 -68
-76 -75 -153 -101 -125 -41 -218 -111 -435 -324 -104 -102 -233 -221 -285
-263 -126 -101 -195 -174 -272 -286 -66 -95 -201 -249 -413 -471 -66 -70 -165
-178 -221 -241 -55 -63 -147 -167 -203 -230 -163 -183 -202 -291 -147 -404 32
-65 195 -226 336 -333 145 -108 165 -118 235 -117 96 1 141 29 290 181 113
116 151 147 290 238 99 66 180 111 214 121 48 15 215 96 431 211 42 23 174 78
295 123 121 45 245 94 275 108 30 14 132 58 227 97 106 45 197 91 238 119 61
44 81 66 156 174 50 72 116 88 211 52 122 -46 229 -10 228 77 -1 38 -19 59
-61 71 l-34 10 31 1 c17 1 37 7 43 15 10 12 7 17 -16 29 -26 14 -25 15 37 10
41 -3 80 0 105 9 l40 13 0 59 c0 52 3 59 25 71 175 91 808 197 933 156 45 -15
49 -32 45 -191 l-3 -114 -32 -21 c-18 -11 -47 -29 -64 -40 -47 -29 -53 -55
-22 -100 l25 -37 -21 -50 c-25 -61 -26 -81 -5 -99 14 -11 25 -9 76 20 33 18
66 30 73 27 8 -3 25 -27 39 -54 16 -32 35 -53 55 -61 51 -22 90 15 76 72 -4
15 10 74 39 163 55 168 71 242 85 399 18 191 17 285 -2 322 -42 80 -180 109
-372 79 -55 -9 -116 -18 -135 -21 -77 -12 -78 40 -1 73 98 43 363 66 686 60
219 -4 244 -6 290 -26 28 -12 106 -33 175 -48 116 -24 173 -41 450 -138 191
-67 513 -221 721 -346 248 -149 665 -443 934 -660 39 -31 99 -77 135 -102 36
-25 101 -77 145 -115 44 -38 166 -134 270 -213 105 -79 255 -194 335 -255 478
-369 976 -662 1370 -808 325 -120 392 -143 630 -211 208 -60 291 -79 450 -102
190 -28 206 -28 585 -27 451 2 459 3 1002 109 362 70 496 108 793 224 96 38
261 96 365 130 105 35 219 75 254 91 105 48 109 47 242 -90 74 -76 141 -157
184 -223 38 -57 97 -146 132 -200 45 -67 120 -155 251 -291 234 -243 241 -253
249 -348 3 -41 12 -87 20 -103 9 -17 17 -72 21 -129 4 -79 9 -104 24 -119 42
-42 84 -10 97 73 5 30 24 90 42 134 28 67 34 95 37 177 5 130 -9 169 -116 321
-47 67 -106 154 -130 192 -62 97 -107 150 -252 300 -203 210 -303 359 -330
490 -18 84 -16 229 3 296 23 78 78 158 193 279 128 135 246 276 302 364 65
100 223 432 270 566 150 432 162 873 38 1363 -24 95 -49 213 -56 262 -26 202
-125 551 -191 675 -59 108 -158 255 -222 327 -31 35 -74 89 -95 121 -49 72
-241 268 -345 351 -43 35 -146 105 -229 157 -83 52 -205 132 -272 178 -66 46
-139 93 -161 104 -22 11 -64 41 -94 66 -142 123 -429 285 -611 347 -52 17
-203 83 -335 147 -132 63 -394 182 -583 264 -291 127 -357 152 -430 164 -95
15 -212 17 -280 3z"/>
</g>
</svg>
