<?xml version="1.0" standalone="no"?>
<!DOCTYPE svg PUBLIC "-//W3C//DTD SVG 20010904//EN"
 "http://www.w3.org/TR/2001/REC-SVG-20010904/DTD/svg10.dtd">
<svg version="1.0" xmlns="http://www.w3.org/2000/svg"
 width="1536.000000pt" height="748.000000pt" viewBox="0 0 1536.000000 748.000000"
 preserveAspectRatio="xMidYMid meet">
<metadata>
Created by potrace 1.16, written by Peter Selinger 2001-2019
</metadata>
<g transform="translate(0.000000,748.000000) scale(0.100000,-0.100000)"
fill="#000000" stroke="none">
<path d="M5820 5170 c-467 -15 -457 -13 -805 -130 -169 -57 -354 -111 -424
-126 -68 -14 -135 -30 -150 -36 -59 -22 -432 -109 -511 -118 -337 -40 -445
-51 -595 -60 -93 -5 -197 -13 -230 -16 -51 -5 -63 -3 -77 12 -16 18 -48 149
-48 197 0 32 -53 110 -100 147 -66 53 -117 69 -220 72 l-94 2 -40 -49 c-23
-27 -68 -78 -101 -113 l-60 -64 -88 5 -88 5 -72 69 c-128 123 -271 203 -364
203 -51 0 -53 -1 -73 -39 -15 -30 -21 -69 -26 -166 -7 -118 -9 -129 -36 -166
l-28 -39 0 -252 c0 -139 -3 -262 -6 -273 -3 -11 -20 -27 -37 -35 -68 -32 -105
-137 -93 -267 l7 -72 -45 -50 c-69 -78 -73 -89 -68 -226 l2 -60 70 -38 c79
-43 272 -112 340 -122 25 -3 137 -10 250 -14 170 -6 211 -10 240 -26 54 -28
104 -72 140 -122 32 -45 120 -244 120 -273 0 -8 9 -44 20 -80 11 -36 25 -95
30 -133 6 -37 25 -107 44 -155 19 -48 39 -116 46 -152 30 -170 42 -216 74
-298 58 -145 146 -493 146 -578 0 -50 -11 -76 -57 -125 -57 -61 0 -112 125
-112 151 0 237 35 268 110 8 19 14 69 14 121 0 88 1 92 60 223 34 74 77 166
95 205 28 57 35 83 35 132 0 33 4 63 9 67 12 7 41 -34 41 -57 0 -28 42 -50 74
-38 24 9 26 13 20 50 l-7 40 42 -15 c41 -14 43 -14 68 11 24 24 25 29 18 102
-10 117 15 175 114 270 88 83 142 113 261 143 80 21 101 21 332 16 247 -6 248
-6 470 29 123 19 282 46 353 60 72 14 164 28 206 31 74 6 76 5 113 -27 43 -38
86 -117 110 -205 10 -33 28 -77 41 -97 45 -69 44 -78 -28 -141 -82 -72 -97
-103 -97 -201 0 -74 1 -77 26 -87 15 -5 76 -12 135 -16 60 -3 109 -7 109 -8 0
-2 -7 -19 -15 -38 -20 -47 -20 -131 0 -147 8 -6 41 -14 73 -17 67 -6 126 14
192 67 43 34 136 80 163 80 10 0 37 11 60 25 24 13 66 29 95 36 64 13 99 41
168 135 55 75 78 118 142 269 49 117 101 194 187 279 87 86 164 124 433 212
225 74 300 114 384 202 64 68 40 59 323 113 228 43 427 93 557 140 62 23 151
51 198 64 294 79 539 138 700 170 268 52 445 93 525 121 117 42 176 61 270 89
50 15 187 65 305 112 118 47 260 99 315 115 55 16 143 42 195 59 162 52 403
107 588 135 146 21 216 26 397 28 l220 1 145 -39 c80 -21 210 -64 290 -96 80
-31 163 -63 185 -70 127 -39 235 -90 353 -167 101 -65 254 -143 282 -143 51 0
1 82 -103 167 -39 32 -117 99 -175 148 -57 50 -116 100 -132 113 -37 30 -343
148 -450 173 -47 11 -112 29 -145 39 -33 11 -152 36 -265 57 -195 36 -214 37
-395 36 -222 -2 -754 -37 -899 -59 -212 -31 -709 -115 -764 -128 -31 -8 -145
-37 -252 -65 -236 -61 -462 -108 -755 -156 -121 -20 -249 -43 -285 -50 -115
-25 -218 -35 -364 -35 -174 0 -291 19 -446 71 -63 22 -164 53 -225 70 -61 16
-161 54 -224 85 -125 61 -150 83 -321 277 -123 141 -492 467 -605 535 -63 38
-219 96 -327 122 -107 26 -244 30 -598 20z"/>
</g>
</svg>
