<?xml version="1.0" standalone="no"?>
<!DOCTYPE svg PUBLIC "-//W3C//DTD SVG 20010904//EN"
 "http://www.w3.org/TR/2001/REC-SVG-20010904/DTD/svg10.dtd">
<svg version="1.0" xmlns="http://www.w3.org/2000/svg"
 width="1536.000000pt" height="845.000000pt" viewBox="0 0 1536.000000 845.000000"
 preserveAspectRatio="xMidYMid meet">
<metadata>
Created by potrace 1.16, written by Peter Selinger 2001-2019
</metadata>
<g transform="translate(0.000000,845.000000) scale(0.100000,-0.100000)"
fill="#000000" stroke="none">
<path d="M15100 8364 c-102 -47 -264 -119 -360 -159 -612 -257 -909 -420
-1430 -780 -707 -488 -1201 -806 -1440 -925 -92 -46 -272 -146 -440 -245 -212
-125 -322 -177 -509 -240 -258 -87 -415 -151 -593 -241 -84 -42 -175 -83 -203
-90 -27 -7 -71 -21 -96 -30 l-47 -18 -53 49 c-109 98 -297 199 -411 220 -35 7
-35 7 -40 69 -7 82 -49 176 -101 222 -62 57 -118 77 -224 82 -111 5 -158 -8
-246 -71 l-62 -44 -50 14 c-298 80 -682 -73 -798 -318 -31 -65 -35 -69 -98
-98 -36 -17 -71 -31 -77 -31 -6 0 -12 22 -14 51 -4 70 -34 94 -119 94 -34 -1
-59 4 -59 10 1 5 7 37 15 70 19 78 19 121 -1 178 -19 57 -61 95 -157 144 -137
68 -188 83 -292 83 -92 0 -95 1 -95 23 0 43 -39 87 -127 144 -157 101 -294
139 -395 109 l-52 -15 -35 41 c-42 49 -84 68 -151 68 -53 0 -86 -13 -159 -63
-36 -25 -43 -27 -37 -11 44 113 44 242 1 329 -36 73 -69 105 -205 194 -150 97
-246 170 -350 267 -234 218 -474 375 -615 404 -33 7 -121 35 -195 62 -202 75
-328 104 -520 118 -156 12 -171 11 -278 -9 -62 -12 -148 -24 -192 -28 -76 -6
-84 -4 -151 27 -54 25 -79 31 -106 27 -39 -7 -77 -37 -99 -79 -8 -16 -28 -31
-51 -38 -21 -7 -84 -32 -139 -56 l-102 -45 -98 42 c-116 49 -177 55 -239 23
-57 -29 -84 -87 -91 -195 -3 -46 -7 -94 -10 -106 -2 -13 -38 -48 -87 -85 -129
-98 -330 -300 -425 -428 -83 -110 -145 -205 -318 -483 -49 -80 -123 -178 -196
-262 -162 -186 -212 -276 -289 -520 -51 -161 -113 -284 -236 -466 -108 -161
-184 -301 -242 -444 -57 -145 -75 -241 -75 -420 -1 -279 34 -337 259 -426 47
-18 78 -42 145 -109 182 -181 244 -222 563 -366 379 -173 412 -186 670 -265
249 -77 559 -148 656 -150 90 -1 73 -15 -86 -66 -661 -214 -765 -246 -1173
-353 -289 -76 -344 -96 -398 -145 l-45 -41 -116 29 c-102 26 -139 30 -307 34
-150 4 -206 2 -267 -11 l-77 -16 -118 45 c-140 52 -229 69 -329 63 -63 -4 -79
-9 -111 -35 -53 -42 -93 -103 -99 -150 -8 -62 11 -61 70 0 45 47 59 56 100 62
89 12 229 -11 310 -52 26 -13 27 -14 11 -38 -9 -14 -14 -31 -11 -39 9 -23 79
-38 129 -27 119 26 247 24 808 -10 l185 -12 135 37 c74 21 200 61 280 90 182
66 471 159 592 191 51 13 197 60 323 105 623 220 888 310 958 324 105 22 169
21 219 -5 55 -28 121 -28 175 -1 34 18 60 22 128 22 127 0 356 27 466 55 136
35 464 148 589 204 139 62 289 157 408 259 214 182 67 -7 -265 -344 -318 -321
-1009 -994 -1148 -1119 -397 -355 -425 -382 -468 -457 -16 -27 -35 -42 -77
-58 -112 -46 -309 -185 -379 -268 -34 -40 -50 -51 -92 -60 -118 -28 -272 -119
-304 -182 -26 -50 -19 -82 28 -127 56 -56 127 -85 127 -53 0 3 -13 22 -30 40
-17 18 -30 39 -30 45 0 17 90 81 155 111 34 16 79 28 105 28 53 2 53 2 157 91
97 82 388 261 452 278 41 11 78 43 331 291 157 154 411 399 565 545 154 146
423 410 598 586 278 279 320 318 335 307 32 -23 81 -42 110 -42 162 0 517 212
694 415 56 65 149 192 232 316 l77 115 62 -61 c34 -33 72 -67 85 -75 21 -14
22 -18 12 -45 -47 -125 -56 -312 -19 -420 21 -63 23 -76 12 -120 -25 -112 -12
-182 49 -251 41 -47 99 -73 161 -74 63 0 92 13 228 104 88 59 122 76 149 76
19 0 40 -4 47 -8 7 -4 33 -84 58 -177 54 -198 138 -458 205 -635 322 -844 365
-961 440 -1205 124 -404 162 -501 210 -535 17 -12 81 -92 144 -178 63 -86 139
-187 169 -223 53 -63 58 -67 118 -78 35 -7 78 -19 95 -26 55 -23 116 -86 146
-152 15 -35 32 -63 38 -63 15 0 24 23 21 56 -3 35 12 51 53 56 44 5 42 24 -3
48 -23 11 -58 43 -81 75 -46 62 -95 94 -194 126 -66 22 -71 26 -105 82 -20 32
-74 113 -120 180 -71 102 -86 131 -93 177 -5 30 -24 82 -43 115 -43 77 -91
196 -159 387 -30 84 -82 225 -116 313 -34 88 -72 192 -85 230 -13 39 -76 230
-140 425 -64 195 -168 535 -231 755 -119 414 -153 506 -207 564 -30 31 -156
101 -184 101 -26 0 -22 21 11 72 20 30 43 83 52 121 15 60 22 72 65 108 26 22
54 55 60 74 l13 34 115 -5 c64 -3 122 -7 129 -10 8 -2 12 -30 12 -91 1 -145
17 -285 41 -349 27 -74 83 -130 144 -145 41 -10 46 -16 92 -97 72 -128 177
-235 291 -295 146 -77 188 -88 347 -94 l140 -5 143 -65 c78 -36 142 -68 142
-71 0 -4 -17 -23 -37 -44 -48 -50 -51 -98 -8 -135 23 -20 36 -24 66 -20 91 12
212 104 224 171 16 85 -7 123 -154 246 l-53 45 86 67 c47 37 111 99 143 138
l58 71 3 -72 c2 -40 -1 -93 -7 -118 -21 -98 -24 -194 -8 -234 27 -64 93 -74
142 -21 32 34 55 140 62 284 7 149 -7 247 -47 322 l-31 59 32 97 c17 53 33
121 36 150 3 28 9 52 14 52 4 0 43 -16 86 -36 43 -20 146 -65 228 -101 181
-79 256 -116 313 -155 24 -17 60 -34 79 -40 143 -39 828 -394 1058 -548 55
-37 174 -113 265 -170 91 -57 197 -124 235 -150 269 -179 986 -541 1383 -699
139 -56 315 -115 382 -130 60 -14 292 -69 545 -131 207 -50 328 -68 350 -50
45 37 -1 65 -156 96 -67 13 -141 31 -164 38 -22 8 -70 20 -105 26 -197 35
-494 113 -680 179 -226 81 -651 259 -755 316 -33 18 -103 54 -155 80 -280 140
-487 263 -765 455 -370 256 -764 482 -1157 666 -109 51 -220 109 -247 128 -27
20 -161 91 -298 157 -136 66 -296 143 -356 172 l-107 52 49 68 c58 79 118 225
159 384 24 98 27 124 27 288 0 165 -3 189 -29 290 -32 126 -74 222 -141 326
-25 39 -43 75 -38 78 60 45 145 91 269 146 213 96 523 217 634 249 57 16 155
57 245 102 160 81 205 107 580 329 132 78 283 164 335 191 93 48 704 451 1195
789 477 329 818 522 1235 699 644 274 770 336 770 380 0 19 -33 46 -56 45 -10
0 -102 -39 -204 -85z"/>
</g>
</svg>
