<?xml version="1.0" standalone="no"?>
<!DOCTYPE svg PUBLIC "-//W3C//DTD SVG 20010904//EN"
 "http://www.w3.org/TR/2001/REC-SVG-20010904/DTD/svg10.dtd">
<svg version="1.0" xmlns="http://www.w3.org/2000/svg"
 width="1536.000000pt" height="542.000000pt" viewBox="0 0 1536.000000 542.000000"
 preserveAspectRatio="xMidYMid meet">
<metadata>
Created by potrace 1.16, written by Peter Selinger 2001-2019
</metadata>
<g transform="translate(0.000000,542.000000) scale(0.100000,-0.100000)"
fill="#000000" stroke="none">
<path d="M6365 5398 c-22 -12 -78 -36 -125 -55 -47 -19 -146 -66 -220 -106
-74 -39 -197 -102 -273 -139 -143 -70 -219 -117 -322 -199 -33 -26 -130 -89
-215 -139 -85 -51 -174 -108 -198 -128 -61 -48 -199 -209 -285 -329 -40 -56
-94 -124 -120 -152 l-48 -51 -97 0 c-118 0 -300 -15 -442 -35 -58 -8 -202 -22
-320 -30 -118 -9 -260 -22 -315 -31 -334 -50 -468 -66 -615 -75 -91 -5 -196
-16 -235 -24 -38 -8 -89 -14 -112 -15 -23 0 -79 -12 -125 -26 -55 -18 -119
-29 -189 -34 l-106 -7 -259 -123 c-142 -67 -303 -142 -357 -166 -94 -41 -273
-140 -384 -211 -29 -18 -108 -60 -175 -92 -158 -75 -308 -192 -540 -423 -132
-131 -189 -221 -262 -407 -22 -57 -23 -67 -11 -90 23 -46 49 -60 131 -75 87
-15 149 -43 255 -113 38 -25 106 -61 151 -79 72 -29 79 -34 48 -34 -52 0 -150
26 -206 54 -61 30 -208 74 -279 82 -60 7 -91 -5 -106 -43 -25 -66 29 -123 231
-241 52 -30 120 -72 150 -92 30 -21 99 -52 154 -69 106 -35 247 -105 311 -156
53 -43 85 -58 183 -89 145 -45 262 -67 557 -100 128 -15 217 -32 325 -61 90
-25 355 -50 505 -48 105 1 159 6 217 22 100 26 125 43 139 95 26 96 20 95 73
10 27 -42 75 -105 107 -139 32 -34 69 -80 81 -102 36 -63 154 -158 283 -228
39 -21 97 -57 130 -80 74 -52 132 -81 256 -129 61 -23 141 -66 220 -118 68
-44 177 -111 242 -149 144 -84 235 -145 352 -238 50 -39 119 -86 155 -105 80
-42 170 -70 183 -57 13 13 -11 44 -189 239 -185 203 -200 223 -359 483 -72
116 -150 234 -173 262 -24 28 -75 114 -113 191 l-69 141 31 3 c16 2 92 -4 167
-13 260 -30 339 -34 797 -40 465 -6 625 0 830 29 148 21 545 55 576 49 14 -2
102 5 195 16 93 11 241 26 328 32 151 11 160 10 169 -7 6 -11 49 -57 97 -104
48 -47 104 -107 126 -135 21 -27 58 -72 81 -99 24 -26 41 -51 38 -55 -8 -14
331 -323 432 -392 67 -46 161 -87 231 -99 34 -6 103 -27 152 -45 49 -19 94
-35 100 -35 13 0 13 91 0 256 -8 94 -19 152 -39 214 -41 120 -142 340 -178
386 -17 21 -36 56 -43 78 -7 21 -30 69 -52 108 -22 38 -38 71 -36 74 11 10
129 24 346 39 125 9 259 20 297 26 39 5 232 14 430 19 198 5 401 10 452 12
l92 3 53 -46 c32 -28 67 -71 86 -106 17 -32 39 -66 49 -75 40 -35 191 -117
243 -132 30 -8 101 -45 158 -80 155 -98 203 -124 305 -165 51 -21 124 -57 162
-80 38 -22 75 -41 82 -41 26 0 51 84 72 243 28 206 56 343 76 374 9 14 37 34
61 45 76 33 82 86 18 157 l-35 39 63 6 c98 10 1007 48 1163 50 l140 1 70 -54
c63 -49 235 -141 263 -141 28 0 116 -37 207 -88 55 -30 165 -90 245 -132 80
-42 177 -97 215 -122 39 -25 100 -59 136 -76 37 -16 93 -47 125 -69 33 -22
102 -63 154 -93 52 -29 167 -99 255 -155 88 -56 209 -128 270 -161 88 -47 130
-78 210 -154 55 -53 137 -124 183 -158 45 -35 106 -87 135 -116 67 -68 324
-288 368 -315 41 -25 77 -27 86 -5 15 40 -55 411 -106 558 -34 97 -206 385
-279 468 -35 40 -108 132 -162 203 -82 111 -113 144 -211 222 -165 132 -302
276 -391 413 -60 91 -99 136 -188 219 -119 111 -180 189 -180 232 0 21 13 38
53 70 28 24 80 69 115 101 79 73 183 143 297 201 77 39 323 219 424 311 37 34
308 399 316 426 9 31 71 138 144 250 52 78 224 429 257 523 16 47 76 328 71
334 -8 8 -144 -40 -172 -62 -49 -36 -127 -72 -175 -80 -67 -11 -127 -37 -266
-116 -69 -39 -192 -102 -272 -140 -208 -98 -296 -144 -387 -207 -44 -30 -165
-114 -270 -185 -104 -71 -242 -171 -305 -222 -63 -51 -140 -108 -170 -127
-106 -67 -340 -190 -465 -245 l-126 -54 -152 11 c-278 20 -391 31 -517 50 -69
11 -195 26 -280 35 -193 19 -333 39 -452 64 -159 34 -207 40 -418 51 -201 11
-311 24 -820 95 -140 20 -336 45 -435 55 -99 11 -238 29 -310 39 -71 11 -191
27 -265 36 -84 9 -207 34 -326 65 -142 37 -245 56 -395 75 -140 18 -266 41
-404 75 -182 45 -363 80 -550 109 -38 6 -164 26 -280 45 -115 20 -282 44 -370
56 -88 11 -190 25 -226 31 l-67 10 -7 146 c-10 195 0 741 16 880 11 100 11
119 -5 175 -23 85 -67 208 -75 208 -3 -1 -24 -10 -46 -22z"/>
</g>
</svg>
