<?xml version="1.0" standalone="no"?>
<!DOCTYPE svg PUBLIC "-//W3C//DTD SVG 20010904//EN"
 "http://www.w3.org/TR/2001/REC-SVG-20010904/DTD/svg10.dtd">
<svg version="1.0" xmlns="http://www.w3.org/2000/svg"
 width="1536.000000pt" height="1468.000000pt" viewBox="0 0 1536.000000 1468.000000"
 preserveAspectRatio="xMidYMid meet">
<metadata>
Created by potrace 1.16, written by Peter Selinger 2001-2019
</metadata>
<g transform="translate(0.000000,1468.000000) scale(0.100000,-0.100000)"
fill="#000000" stroke="none">
<path d="M7265 14635 c-273 -50 -437 -65 -463 -41 -10 8 -40 25 -67 38 -76 35
-248 33 -408 -5 -108 -25 -119 -26 -141 -12 -13 9 -60 20 -105 25 -45 5 -86
12 -91 15 -6 3 -76 -21 -157 -53 -187 -76 -424 -152 -573 -186 -126 -28 -280
-49 -289 -40 -6 6 30 39 65 60 15 9 16 15 7 24 -9 10 -32 -1 -104 -50 -122
-81 -247 -143 -376 -186 -192 -65 -433 -97 -433 -58 0 8 15 21 34 29 42 18 61
41 25 30 -54 -16 -111 -46 -184 -95 -112 -76 -148 -90 -232 -90 l-73 0 0 30
c0 47 4 48 -376 -89 -306 -109 -377 -128 -539 -141 -69 -6 -149 -15 -178 -20
-69 -14 -940 -322 -1043 -370 -309 -143 -698 -513 -899 -854 -138 -236 -205
-462 -205 -699 0 -178 23 -290 96 -462 27 -62 43 -86 71 -105 20 -14 50 -36
65 -48 28 -24 28 -24 10 -50 -37 -53 -42 -90 -42 -318 0 -195 2 -224 15 -224
9 0 25 16 36 35 24 41 46 45 55 11 9 -37 -3 -62 -62 -128 -56 -63 -78 -112
-72 -163 4 -38 41 -47 58 -16 6 12 20 21 30 21 18 0 20 -7 20 -59 0 -62 -12
-82 -53 -88 -85 -13 -137 -123 -59 -123 35 0 59 25 68 69 4 17 16 37 27 42 19
11 20 9 15 -192 -3 -112 -10 -215 -16 -229 -6 -14 -11 -18 -12 -10 -5 92 -22
197 -36 218 l-17 26 -9 -23 c-4 -13 -7 -106 -6 -207 l3 -184 28 -9 c15 -6 27
-12 27 -14 0 -3 -11 -34 -25 -70 -36 -97 -19 -171 28 -119 21 23 22 56 1 76
-13 13 -14 22 -4 51 6 19 16 35 21 35 6 0 19 -21 30 -47 11 -27 26 -61 33 -78
l14 -30 12 30 c42 109 58 272 70 722 8 348 21 537 39 585 3 10 28 -289 55
-665 26 -375 49 -683 51 -685 2 -2 6 52 10 120 8 137 -3 372 -39 828 -31 384
-40 588 -28 619 8 24 10 23 25 -20 9 -24 42 -123 73 -219 60 -186 126 -329
173 -374 l29 -28 0 154 c1 159 8 227 43 416 15 80 25 112 35 112 31 0 81 -29
111 -63 51 -58 57 -96 47 -317 -15 -345 -6 -401 99 -627 35 -76 67 -150 70
-164 4 -15 -2 -65 -12 -112 l-18 -86 28 -42 c41 -63 83 -204 119 -399 17 -96
34 -178 36 -182 3 -4 14 -8 25 -8 33 0 40 -40 28 -155 -11 -102 -7 -161 10
-150 5 3 12 28 16 55 4 28 14 58 23 67 15 15 18 13 31 -18 12 -27 16 -104 21
-364 6 -312 7 -333 29 -387 12 -32 26 -60 30 -63 5 -2 6 23 4 58 -6 69 8 134
36 168 l18 23 34 -20 c44 -26 76 -75 84 -129 4 -26 -1 -96 -14 -178 -21 -139
-26 -266 -11 -302 7 -19 8 -18 13 5 3 14 8 70 12 125 3 54 8 110 12 123 9 38
43 24 80 -33 18 -27 38 -51 43 -53 16 -6 13 -14 -51 -185 -43 -116 -62 -181
-66 -229 -3 -39 -2 -68 3 -68 5 0 29 64 54 141 41 132 83 239 94 239 2 0 30
-37 62 -82 32 -46 128 -171 214 -278 85 -107 173 -219 195 -249 37 -51 38 -55
21 -65 -70 -41 -143 -96 -164 -123 l-25 -33 26 0 c16 0 48 19 84 49 67 55 94
71 122 71 22 0 22 8 1 -137 -5 -39 -10 -88 -10 -108 l0 -36 -142 7 c-92 4
-297 -2 -575 -15 -238 -12 -451 -21 -475 -22 l-43 0 33 -17 c45 -22 37 -43
-23 -64 -64 -22 -158 -22 -338 -2 -192 21 -349 12 -407 -25 -29 -19 5 -26 155
-31 210 -7 225 -28 53 -75 -54 -14 -90 -46 -73 -63 3 -3 58 2 123 11 64 9 142
17 173 17 58 0 119 -16 119 -30 0 -15 -84 -40 -253 -74 -170 -35 -297 -81
-297 -108 0 -8 -15 -38 -34 -68 -19 -30 -31 -59 -27 -63 4 -4 28 -1 52 9 53
20 109 29 109 18 0 -4 -56 -62 -124 -128 -111 -109 -128 -130 -166 -209 -37
-77 -50 -94 -115 -147 -71 -58 -101 -103 -89 -135 8 -19 18 -19 35 2 47 56
129 88 166 65 15 -10 -9 -51 -132 -222 -99 -138 -152 -232 -171 -302 -22 -83
-17 -85 36 -15 27 36 62 75 79 86 30 22 91 29 91 11 0 -5 -4 -10 -9 -10 -17 0
-79 -105 -126 -213 -26 -59 -60 -125 -76 -147 l-29 -40 26 0 c14 0 43 10 64
21 21 12 45 19 54 16 33 -13 10 -115 -37 -166 -12 -13 -56 -49 -98 -81 -65
-50 -109 -96 -109 -115 0 -16 60 -1 102 26 39 26 51 29 63 19 36 -30 5 -81
-83 -134 -63 -38 -109 -82 -98 -93 3 -4 36 7 72 25 35 18 71 32 78 32 17 0 46
-27 46 -42 0 -5 -45 -54 -100 -108 -55 -54 -100 -103 -100 -109 0 -24 43 -9
85 30 55 51 81 48 72 -7 -8 -49 -30 -80 -85 -117 -68 -47 -120 -96 -128 -119
-4 -15 -9 -17 -17 -9 -6 6 -19 11 -29 11 -29 0 -78 -29 -78 -45 0 -18 5 -19
30 -3 32 20 44 -1 30 -51 -6 -23 -10 -69 -9 -101 1 -33 -1 -63 -4 -67 -4 -3
-30 8 -58 26 -50 31 -88 37 -91 16 -3 -18 118 -92 204 -125 82 -32 296 -81
415 -95 l62 -7 21 34 c24 39 25 90 5 173 -19 79 -20 75 18 75 45 0 57 15 57
71 0 26 5 51 10 54 13 8 54 -36 94 -100 36 -58 58 -66 74 -30 16 34 4 61 -53
115 -63 61 -77 89 -65 131 17 59 11 189 -15 319 -14 69 -28 166 -31 217 l-7
91 29 4 c25 3 30 9 38 44 7 33 4 52 -18 105 -31 78 -31 79 -6 121 44 75 53
149 44 343 -11 234 -9 363 5 400 19 45 31 14 31 -80 0 -77 13 -125 36 -132 6
-2 15 28 22 72 18 113 55 235 136 441 40 101 75 187 78 189 10 10 98 -34 98
-50 0 -8 3 -15 6 -15 3 0 41 26 84 58 69 53 162 93 177 78 9 -8 -18 -47 -78
-113 -86 -94 -97 -152 -17 -94 55 40 83 42 73 4 -14 -57 -41 -99 -116 -178
-42 -45 -82 -92 -89 -105 -12 -22 -11 -22 16 -16 37 9 100 50 137 90 16 17 61
81 101 141 73 111 126 171 174 196 20 11 26 12 30 1 2 -7 15 -26 29 -43 18
-20 24 -37 20 -55 -4 -24 -2 -24 37 14 110 105 190 158 284 185 50 15 52 15
52 -4 0 -10 -16 -36 -35 -58 -44 -48 -46 -67 -5 -46 37 19 63 19 100 0 28 -15
29 -14 40 20 7 20 29 49 52 68 23 17 54 44 69 58 24 23 34 26 74 21 50 -5 51
-11 19 -74 -20 -38 -17 -50 8 -46 16 2 36 26 69 82 26 44 57 88 69 98 28 23
72 23 100 0 l22 -18 -22 -37 c-30 -50 -53 -128 -41 -140 5 -5 21 17 40 57 17
36 44 95 61 130 32 68 93 132 135 141 14 3 36 7 50 10 18 4 27 15 35 44 10 39
76 123 112 142 24 13 38 -1 38 -38 0 -45 51 -20 81 40 28 55 48 77 70 77 47 0
37 -189 -20 -383 -23 -76 -41 -147 -41 -159 0 -21 2 -20 31 8 44 42 97 157
114 249 9 43 20 174 25 290 10 235 26 337 65 420 l27 56 -101 456 -102 457
-77 72 c-81 75 -123 138 -142 215 l-12 46 -131 54 c-127 51 -136 53 -232 54
-55 1 -109 7 -121 13 -31 17 -110 105 -132 148 -51 101 -66 228 -36 304 9 22
19 40 23 40 17 0 55 -36 93 -88 23 -31 43 -51 46 -44 7 23 -20 82 -69 149 -27
37 -49 73 -49 79 0 16 129 204 140 204 10 0 62 -63 118 -145 55 -80 101 -133
102 -116 0 17 -53 123 -89 175 -48 70 -70 120 -60 138 5 8 20 70 34 137 41
192 62 221 120 161 44 -45 41 -28 -5 40 -23 34 -56 91 -73 128 -29 61 -32 76
-32 164 0 53 3 99 7 103 4 4 33 -11 65 -33 31 -23 59 -39 63 -35 3 3 -4 10
-15 17 -11 6 -46 36 -77 68 -49 49 -70 83 -157 261 -109 224 -153 282 -245
327 l-46 22 0 58 c0 58 0 58 39 73 63 26 146 44 341 77 199 33 266 50 347 85
58 26 137 94 160 139 20 38 28 24 43 -68 17 -105 -1 -208 -77 -444 -65 -202
-67 -210 -67 -317 -1 -97 2 -115 22 -153 29 -55 96 -129 135 -148 27 -15 31
-14 68 12 56 39 65 21 23 -46 -86 -136 -109 -252 -108 -535 0 -185 6 -271 37
-535 19 -173 39 -361 42 -417 7 -97 8 -103 29 -103 36 0 46 -20 46 -87 0 -65
20 -103 54 -103 13 0 13 -5 0 -35 -8 -20 -26 -83 -40 -141 -29 -120 -25 -134
35 -134 20 0 42 -5 49 -12 8 -8 12 -67 12 -197 0 -182 11 -268 31 -255 6 4 9
32 7 67 -3 53 0 62 15 65 24 5 106 -64 122 -102 11 -25 11 -35 -1 -58 -28 -54
-56 -200 -52 -270 6 -111 48 -120 48 -10 0 28 4 52 9 52 5 0 34 -38 65 -84
143 -216 330 -409 696 -721 135 -115 246 -210 248 -211 2 -1 -4 -17 -14 -36
-20 -38 -45 -138 -38 -149 11 -18 35 6 45 46 6 24 17 46 25 49 17 7 134 -54
134 -70 0 -7 -9 -41 -20 -76 -21 -68 -25 -124 -10 -148 7 -11 11 -9 19 13 6
16 11 37 11 47 0 24 21 70 31 70 12 0 49 -60 97 -156 22 -44 56 -101 75 -126
l35 -46 -161 -159 c-89 -87 -220 -212 -291 -278 -150 -140 -310 -313 -403
-438 -36 -48 -73 -87 -82 -87 -9 0 -29 -9 -46 -20 -16 -11 -38 -20 -47 -20
-10 0 -18 -5 -18 -10 0 -6 -16 -45 -36 -87 -47 -99 -119 -173 -192 -197 -45
-15 -52 -21 -52 -43 0 -14 14 -50 30 -79 l31 -53 -21 -42 c-33 -65 -103 -132
-251 -245 -154 -117 -201 -164 -235 -238 -46 -99 -30 -95 89 21 101 99 191
163 227 163 15 0 -3 -32 -35 -64 -27 -27 -33 -66 -11 -66 30 0 48 15 85 69 43
63 56 75 88 85 18 6 20 3 16 -13 -3 -13 3 -25 21 -36 14 -10 26 -24 26 -33 0
-8 -80 -121 -177 -249 -98 -129 -187 -246 -197 -260 l-20 -26 30 6 c16 3 40 9
53 13 27 8 27 1 -3 -68 -14 -33 -14 -38 0 -52 22 -23 30 -20 45 15 19 46 58
89 81 89 15 0 18 -4 13 -17 -10 -27 -24 -154 -34 -317 l-9 -149 28 -27 c41
-38 45 -69 25 -182 l-18 -98 31 -33 c43 -45 58 -85 77 -217 9 -63 19 -124 22
-135 6 -19 6 -19 14 3 6 17 16 22 42 22 29 0 35 -4 46 -36 14 -38 13 -41 -21
-58 -22 -11 -22 -16 -23 -165 l0 -153 30 -23 c79 -62 75 -52 75 -187 0 -100 4
-131 20 -166 33 -73 41 -54 38 101 -4 177 1 197 45 197 49 0 55 -11 44 -82
-17 -103 28 -300 107 -468 l26 -55 -6 112 c-6 97 -4 116 11 139 16 25 17 25
30 7 29 -41 37 -103 25 -187 -16 -112 -15 -177 3 -212 16 -29 16 -29 17 41 0
84 16 120 50 120 40 0 47 -46 25 -178 -17 -105 -17 -114 -1 -145 35 -67 61
-19 44 83 -10 61 -10 68 9 87 14 13 27 18 41 14 31 -10 43 -60 32 -136 -13
-88 -12 -144 2 -175 19 -43 32 -23 43 68 6 47 13 89 17 93 12 12 37 -4 58 -38
26 -43 26 -125 0 -238 -21 -91 -27 -230 -10 -230 6 0 10 6 10 13 0 6 7 66 15
131 14 110 32 166 54 166 5 0 11 -42 13 -94 1 -52 6 -97 9 -101 4 -3 33 12 64
34 65 46 95 51 125 21 20 -20 20 -22 3 -51 -27 -47 -79 -87 -212 -163 -66 -38
-131 -80 -143 -94 l-23 -24 55 7 c82 11 193 49 250 85 71 45 145 131 183 210
l32 68 45 -5 c56 -6 155 18 220 53 95 52 200 184 200 252 0 20 -12 11 -82 -60
-122 -122 -208 -161 -322 -144 -57 9 -51 26 10 26 50 0 64 16 46 55 -20 45
-52 56 -163 58 -90 2 -108 5 -136 25 -32 23 -86 119 -99 177 l-7 30 34 -31
c19 -17 69 -54 111 -83 42 -28 81 -59 87 -68 9 -16 11 -16 31 2 20 18 34 20
131 17 119 -4 132 3 86 46 -38 36 -91 51 -214 62 -155 14 -239 53 -220 104 5
12 20 16 70 16 45 0 68 5 77 15 20 24 -32 38 -116 31 -80 -7 -117 3 -135 35
-15 28 3 44 62 53 23 4 51 12 62 18 20 10 20 11 2 24 -13 10 -50 14 -120 14
-86 0 -104 3 -118 18 -27 30 -20 42 22 42 49 0 101 18 101 35 0 21 -48 54
-100 69 -76 23 -109 44 -116 74 -24 107 -37 126 -121 183 -103 69 -147 128
-106 143 23 9 72 -27 223 -170 73 -68 135 -122 138 -120 14 14 -16 65 -79 133
-70 76 -71 76 -67 127 l3 51 -105 77 c-174 129 -213 161 -247 206 -40 53 -57
112 -46 160 l8 35 45 -59 c45 -61 197 -214 212 -214 26 0 -34 96 -86 139 -31
26 -45 65 -39 108 8 59 -14 114 -97 243 -83 130 -120 205 -128 262 l-5 41 36
-7 c22 -4 37 -3 37 3 0 5 -22 38 -49 73 -60 79 -78 114 -83 158 -3 31 -1 34
30 41 19 4 37 11 42 15 15 18 90 548 90 642 0 76 3 92 15 92 9 0 20 11 25 25
5 14 16 25 25 25 12 0 14 -10 10 -52 -27 -269 -31 -363 -16 -372 16 -10 30 47
41 157 9 98 26 157 49 172 16 9 21 -10 30 -103 5 -55 3 -151 -4 -254 -6 -90
-9 -184 -5 -209 8 -51 13 -40 28 56 6 39 20 97 30 130 l18 60 20 -35 c16 -30
18 -50 15 -140 -9 -224 -7 -344 8 -370 l15 -25 8 35 c4 19 11 94 14 165 5 105
0 191 -25 448 -36 367 -36 377 -16 377 8 0 21 14 30 30 9 17 22 30 30 30 12 0
15 -15 15 -72 0 -67 34 -208 50 -208 9 0 26 39 40 90 6 23 15 135 20 248 10
235 21 286 76 351 51 59 59 46 58 -92 0 -100 -4 -123 -35 -214 -35 -102 -35
-103 -13 -103 24 0 34 17 34 60 0 41 10 60 30 60 42 0 42 -115 0 -280 -20 -74
-30 -138 -28 -167 l3 -48 33 45 c72 98 89 185 101 517 7 162 15 257 26 298 17
64 64 156 83 163 17 5 15 -57 -3 -108 -8 -23 -15 -44 -15 -45 0 -1 11 0 24 2
28 6 40 -12 51 -72 4 -22 15 -53 24 -70 15 -28 16 -12 22 295 6 341 12 385 59
495 l22 50 30 -35 c36 -43 74 -116 123 -240 21 -52 49 -117 64 -145 l26 -50 3
57 c3 64 -8 112 -67 278 -29 82 -41 131 -41 171 0 56 15 119 29 119 12 0 49
-39 92 -96 56 -76 67 -63 45 54 -9 50 -16 93 -16 97 0 4 15 4 34 1 52 -10 57
5 63 166 8 206 -8 277 -105 471 -2 4 2 7 10 7 7 0 19 4 27 9 12 8 10 15 -12
40 -44 53 -60 141 -33 192 12 24 11 27 -25 57 -44 37 -59 79 -59 163 0 63 -25
114 -194 398 -114 191 -196 345 -230 431 -26 64 -28 66 -103 105 -90 48 -200
146 -234 209 -23 44 -26 46 -69 46 -32 0 -61 10 -100 32 -130 74 -163 88 -210
88 -46 0 -47 1 -59 40 -9 32 -25 50 -73 85 -87 63 -92 73 -85 162 6 77 20 106
58 118 13 4 52 -20 132 -83 107 -83 202 -141 213 -129 3 2 -30 36 -72 73 -167
149 -193 176 -199 206 -4 16 -5 32 -2 35 9 8 46 -16 103 -67 50 -47 97 -70
111 -56 3 3 -6 16 -22 27 -15 12 -61 62 -101 111 -67 80 -73 91 -62 111 6 12
70 105 143 207 72 102 140 199 152 215 18 27 19 38 12 105 -5 41 -18 226 -29
410 -35 575 -74 789 -181 1003 -25 48 -33 57 -57 57 -30 0 -105 40 -105 55 1
14 91 44 134 45 43 0 94 -32 126 -80 13 -18 39 -86 59 -149 71 -234 91 -272
164 -308 59 -30 94 -29 183 7 76 30 137 39 137 19 0 -38 -67 -136 -170 -247
-127 -137 -173 -202 -195 -276 -21 -69 -19 -80 15 -93 25 -9 30 -17 30 -43 0
-22 -8 -40 -25 -55 -20 -20 -23 -28 -15 -52 59 -185 93 -309 165 -598 93 -378
98 -395 120 -395 25 0 92 -75 123 -137 16 -32 44 -102 62 -157 29 -83 36 -95
44 -77 13 30 26 27 85 -24 29 -25 57 -45 62 -45 5 0 9 -21 9 -47 0 -56 25
-195 40 -224 6 -10 15 -19 20 -19 13 0 13 0 -5 49 -24 70 1 93 47 44 39 -43
78 -106 158 -253 40 -74 90 -157 112 -185 68 -86 147 -126 219 -111 27 5 32 2
45 -29 8 -19 28 -101 45 -182 18 -82 40 -166 51 -188 21 -42 56 -85 69 -85 5
0 -9 50 -31 111 -39 109 -47 152 -32 176 8 13 64 -54 95 -113 11 -21 28 -34
56 -42 82 -25 124 -78 196 -250 53 -127 89 -186 122 -201 13 -6 23 -9 23 -7 0
3 -16 37 -35 77 -19 41 -35 84 -35 96 0 21 6 19 73 -30 110 -81 185 -124 267
-153 68 -24 92 -27 255 -31 154 -4 223 0 475 27 317 34 574 47 684 36 67 -8
68 -8 94 -54 31 -53 98 -130 106 -121 3 3 -6 32 -19 65 -34 83 -34 84 30 84
31 0 72 7 92 15 20 8 37 14 38 13 1 -2 41 -73 89 -159 77 -139 161 -258 173
-246 2 3 -18 39 -45 80 -64 98 -156 316 -134 317 4 1 27 5 52 10 114 23 251
-31 368 -143 58 -57 72 -66 72 -49 0 26 25 43 102 72 43 16 62 19 77 11 33
-18 97 -99 134 -169 47 -91 69 -165 117 -387 56 -261 84 -352 206 -672 221
-578 247 -695 196 -890 -35 -130 -27 -198 27 -247 18 -16 21 -17 26 -4 4 9 5
28 3 44 -5 46 26 42 62 -7 52 -73 61 -121 70 -384 5 -132 13 -264 19 -292 12
-59 39 -118 49 -108 4 4 10 104 13 223 7 286 14 300 84 172 31 -57 48 -77 73
-87 27 -11 32 -11 32 1 0 22 -34 122 -74 216 -43 102 -48 179 -15 220 17 22
19 22 15 5 -9 -32 34 -106 74 -127 l35 -18 8 24 c6 17 0 47 -17 98 -28 79 -31
105 -17 127 6 9 16 -3 35 -45 15 -33 60 -117 101 -189 102 -178 145 -317 145
-466 0 -33 3 -39 21 -39 36 0 56 18 78 71 l22 51 26 -23 c41 -39 62 -92 88
-220 21 -104 43 -175 45 -144 0 6 4 16 9 24 7 10 16 9 49 -10 22 -13 44 -20
48 -16 4 4 0 24 -10 44 -21 44 -10 62 28 45 37 -17 71 -75 111 -192 20 -58 48
-123 62 -144 l26 -40 14 27 c19 36 36 34 56 -8 19 -40 63 -73 78 -58 16 16 1
56 -47 129 -45 69 -49 80 -36 101 13 20 105 -29 168 -89 31 -29 84 -87 117
-128 33 -41 83 -99 111 -128 54 -57 134 -118 143 -109 11 12 -12 54 -59 103
-27 28 -53 66 -58 83 -8 29 -7 31 19 31 15 0 77 -24 137 -54 60 -29 122 -56
138 -60 l30 -7 -26 33 c-28 37 -134 110 -259 178 -96 52 -182 127 -210 182
-11 21 -18 38 -16 38 2 0 32 -12 67 -26 114 -46 235 -111 481 -259 133 -80
252 -145 264 -145 14 0 25 8 28 20 9 35 37 22 112 -49 42 -39 88 -74 110 -81
36 -12 38 -11 60 15 20 27 25 28 79 21 48 -5 58 -4 63 11 4 11 0 21 -12 27
-81 48 -83 87 -4 66 24 -6 107 -41 184 -77 198 -93 234 -104 353 -110 l102 -6
0 41 c0 30 5 44 18 51 23 12 43 -2 168 -113 127 -112 204 -144 281 -115 l27
10 -54 30 c-30 16 -68 43 -85 60 -25 25 -28 31 -15 39 8 5 30 10 48 10 27 0
46 -13 113 -75 71 -67 84 -75 119 -75 58 0 57 17 -3 44 -60 26 -78 53 -50 74
23 16 52 10 128 -30 44 -23 72 -30 103 -29 55 3 122 -28 224 -101 42 -31 98
-63 124 -72 61 -20 124 -21 124 -2 0 24 -26 43 -82 61 -66 22 -78 31 -78 61 0
30 18 31 64 3 22 -13 43 -18 56 -14 34 11 23 22 -42 40 -67 18 -118 48 -118
69 0 9 54 15 208 24 233 13 394 38 513 82 77 28 175 78 167 85 -2 2 -87 -9
-189 -25 -249 -38 -330 -44 -414 -30 -82 13 -163 46 -149 60 18 18 162 41 453
71 162 16 297 32 300 34 2 3 -18 15 -45 27 -67 30 -260 36 -431 14 -154 -20
-153 -20 -153 5 0 11 -4 29 -10 39 -9 17 -14 17 -82 4 -74 -15 -132 -12 -144
7 -9 15 15 38 70 66 28 14 59 33 70 42 17 15 17 16 -10 22 -30 5 -31 7 -20 52
5 23 3 27 -14 27 -29 0 -87 -31 -149 -80 -29 -23 -73 -51 -97 -61 -43 -20 -45
-20 -87 -1 -47 21 -76 16 -112 -18 -39 -36 -145 -67 -145 -42 0 12 41 47 75
65 17 8 39 24 49 36 19 21 19 21 -16 21 -20 0 -60 -13 -91 -30 -51 -27 -87
-38 -87 -26 0 3 4 16 10 30 9 24 8 26 -20 26 -16 0 -50 -10 -75 -22 -49 -24
-63 -21 -44 11 40 63 -63 21 -171 -70 -46 -39 -94 -75 -107 -80 -36 -13 -85
-10 -107 6 -19 14 -19 15 -1 35 10 11 38 25 62 31 42 11 42 12 29 38 -61 116
-194 137 -523 80 -210 -36 -337 -47 -347 -30 -8 13 34 34 117 57 32 8 70 26
84 38 l27 23 -22 12 c-47 25 -26 38 187 118 81 30 164 65 186 78 45 27 99 75
92 82 -10 9 -131 -28 -285 -88 -178 -70 -240 -89 -295 -89 -53 0 -45 15 35 70
114 77 147 118 86 105 -50 -11 -121 -49 -211 -114 -107 -77 -158 -101 -223
-108 -44 -5 -54 -3 -54 9 0 9 7 21 15 28 44 37 -44 45 -161 15 -99 -26 -169
-32 -179 -15 -3 5 13 32 36 58 41 48 42 49 83 41 55 -11 176 -11 176 -1 0 9
-36 44 -60 58 -8 4 -84 11 -170 14 -122 4 -160 9 -179 22 l-23 16 28 15 c16 8
74 20 128 27 55 6 111 16 125 22 33 12 72 48 65 59 -7 13 -113 11 -176 -2 -29
-6 -106 -26 -171 -45 -123 -35 -200 -42 -256 -23 -38 13 -42 44 -6 53 50 13
26 46 -65 91 -58 29 -90 52 -90 67 0 4 47 8 105 8 66 0 105 4 105 10 0 21 -49
60 -77 62 -15 0 -81 0 -145 -2 -96 -2 -123 1 -143 14 -30 20 -25 36 11 36 27
0 44 28 24 40 -7 4 -65 18 -130 30 -64 12 -131 30 -148 40 -33 20 -69 67 -59
76 3 4 29 -2 57 -12 47 -17 51 -17 67 -1 16 15 14 18 -23 33 -21 9 -73 19
-115 22 l-77 4 -111 112 -111 111 25 38 c14 20 32 37 39 37 7 0 32 -14 56 -31
54 -39 98 -55 112 -41 7 7 0 20 -23 40 -26 23 -31 33 -22 42 20 21 71 0 186
-76 117 -78 163 -98 212 -92 29 3 29 3 -30 48 -33 25 -133 89 -222 143 -145
88 -271 182 -259 194 13 13 215 -71 379 -158 212 -112 315 -152 385 -147 l47
3 -72 43 c-40 24 -175 90 -300 147 -261 117 -334 158 -414 233 -51 47 -106
129 -94 140 6 6 50 -23 118 -80 79 -65 95 -64 72 7 -17 49 -73 101 -157 144
-161 84 -185 102 -197 141 -7 23 -45 77 -97 135 -81 93 -124 155 -107 155 29
0 99 -29 175 -71 85 -47 171 -79 183 -67 3 3 1 17 -5 32 -7 18 -25 34 -57 48
-58 25 -93 55 -93 80 0 16 6 17 43 12 23 -4 89 -24 147 -46 227 -86 244 -91
328 -96 50 -3 82 -1 82 5 0 20 -201 104 -425 178 -374 124 -512 201 -623 349
-12 16 -22 33 -22 37 0 12 28 11 67 -3 18 -6 36 -9 40 -5 13 14 -38 52 -129
97 -50 25 -100 57 -111 72 l-19 26 25 34 c13 18 28 44 32 57 7 23 9 23 82 17
41 -4 145 -25 231 -47 95 -24 191 -42 242 -45 l85 -5 -45 29 c-73 47 -171 81
-369 127 -218 51 -327 85 -396 123 -49 26 -50 28 -53 78 l-3 51 -92 42 c-51
23 -157 76 -236 119 l-143 77 43 12 c27 8 61 30 89 58 25 25 52 45 61 45 44 0
128 -33 213 -84 66 -41 109 -60 141 -63 57 -7 58 5 3 52 -62 53 -124 86 -293
155 -159 66 -238 109 -295 161 l-35 33 50 13 c28 7 71 12 98 11 26 -2 47 -2
47 -1 0 2 -11 10 -24 18 -14 9 -74 22 -144 30 -121 14 -172 32 -172 61 0 8 11
19 25 24 87 34 87 34 -60 41 -151 7 -204 21 -264 67 l-36 27 68 5 c37 3 68 10
70 15 1 6 -64 12 -173 15 -151 4 -180 8 -209 25 -47 27 -44 39 9 43 25 1 52 5
60 8 13 5 13 7 -2 15 -10 6 -62 5 -139 -1 -134 -12 -194 -4 -239 30 -21 17
-23 21 -10 30 8 5 25 10 38 10 25 0 31 27 7 36 -8 4 -67 -6 -131 -20 -126 -29
-173 -25 -194 14 -15 29 -13 30 39 30 31 0 53 5 61 15 7 9 11 17 9 19 -2 2
-74 -9 -159 -25 -85 -16 -158 -29 -162 -29 -5 0 -8 13 -8 28 l0 28 -167 13
c-398 31 -479 27 -591 -27 l-53 -26 -15 22 c-15 21 -16 20 -90 -53 -75 -74
-124 -110 -194 -139 -35 -14 -37 -13 -80 16 -25 16 -80 47 -122 69 -43 22 -78
45 -78 53 0 7 7 33 15 56 8 23 15 60 15 81 l0 39 49 0 c28 0 52 4 55 8 3 5 -8
19 -24 31 -38 27 -41 66 -6 75 13 3 43 -1 67 -9 72 -26 81 -8 14 29 -61 33
-105 83 -105 119 0 17 5 19 43 13 23 -4 71 -24 107 -46 74 -44 111 -56 135
-42 15 8 14 11 -11 29 -16 11 -85 46 -154 77 -69 31 -138 66 -153 79 l-29 23
17 134 c19 158 30 204 56 247 l20 31 107 -107 c102 -102 234 -204 368 -284 49
-30 72 -37 112 -37 45 0 58 -5 116 -49 90 -68 181 -118 316 -172 213 -86 393
-129 895 -215 176 -30 374 -66 440 -80 66 -14 132 -28 148 -31 16 -3 27 -1 27
5 0 17 -49 39 -102 47 -26 4 -54 15 -63 25 -15 17 -10 18 122 25 206 10 282
26 335 72 14 13 57 16 230 18 219 2 321 14 538 65 115 28 632 182 626 187 -2
3 -39 -2 -82 -11 -62 -13 -85 -14 -113 -5 l-35 12 36 18 c19 10 82 37 139 59
57 23 126 56 153 73 56 36 106 107 106 151 0 31 2 31 112 66 227 71 442 193
840 476 220 157 341 235 448 289 108 55 67 56 -47 1 -137 -66 -185 -60 -131
17 12 18 57 70 100 116 92 99 121 152 122 230 2 54 4 59 69 136 259 308 448
677 551 1078 l33 127 64 49 c86 64 204 193 235 254 14 27 23 51 21 53 -2 3
-34 -30 -71 -72 -37 -42 -80 -87 -96 -101 -30 -25 -97 -49 -107 -39 -3 3 2 65
12 138 23 177 32 452 16 463 -7 4 -40 14 -74 21 -64 15 -82 25 -98 56 -8 15
-5 20 15 29 31 14 52 64 71 164 8 44 20 92 26 108 12 29 45 43 82 33 21 -5 22
-3 19 34 -3 33 0 41 25 56 15 10 30 20 33 22 3 2 -3 8 -13 14 -16 9 -18 18
-12 70 7 55 6 60 -10 55 -9 -4 -29 -7 -44 -7 -28 0 -28 -1 -23 -50 4 -41 -1
-60 -23 -105 -32 -62 -54 -70 -98 -35 -40 32 -79 36 -102 10 -18 -20 -20 -36
-19 -131 1 -103 0 -110 -20 -114 -29 -6 -63 -8 -111 -7 -40 2 -40 2 -59 62
l-19 60 65 63 c70 68 107 134 133 232 16 58 40 486 33 572 l-3 38 -24 -48
c-22 -45 -23 -59 -22 -202 2 -182 -11 -252 -69 -370 -39 -79 -120 -193 -143
-199 -7 -2 -49 -11 -94 -19 -45 -8 -108 -27 -139 -41 l-56 -26 -75 46 c-71 45
-123 97 -123 124 0 8 -6 9 -17 4 -35 -15 -74 -7 -103 21 -26 25 -30 36 -30 81
0 132 69 248 234 393 104 91 159 156 184 215 7 16 10 31 8 34 -13 12 -138 -64
-221 -134 -49 -42 -103 -82 -118 -90 -27 -15 -28 -15 -21 13 12 58 65 150 111
195 92 89 231 152 456 204 42 10 74 21 70 24 -5 4 -57 24 -117 44 l-108 37
-62 -29 c-33 -16 -116 -70 -183 -119 -124 -92 -182 -123 -232 -123 -21 0 -35
-10 -61 -46 -41 -58 -133 -126 -208 -154 -179 -69 -408 -13 -556 135 -162 162
-199 379 -107 626 19 50 27 59 83 92 34 20 126 62 205 94 79 31 142 57 140 59
-1 1 -45 -9 -97 -23 -52 -13 -136 -27 -185 -30 -168 -11 -322 49 -447 172 -54
51 -58 59 -58 101 0 43 -2 45 -57 81 -62 39 -131 70 -343 153 -140 55 -176 75
-297 171 -91 72 -144 97 -321 148 -170 49 -246 85 -310 149 l-48 48 -130 23
c-344 62 -397 77 -485 138 -43 29 -65 37 -127 44 -88 10 -126 21 -208 62 -62
30 -62 30 -110 13 -26 -9 -75 -16 -109 -16 -62 0 -93 7 -250 55 -62 19 -112
27 -162 27 l-72 0 -7 32 c-4 17 -7 34 -6 39 3 10 3 10 -253 -38z m-6485 -3737
c0 -24 -5 -60 -11 -80 -12 -45 -35 -50 -68 -14 -21 23 -22 24 -5 65 16 41 46
71 71 71 9 0 13 -15 13 -42z m3769 -10032 c12 -19 29 -37 38 -41 15 -5 15 -7
3 -15 -27 -17 -49 -10 -65 20 -17 32 -20 70 -6 70 5 0 19 -15 30 -34z m153
-183 c35 -42 96 -153 85 -153 -19 0 -60 47 -96 113 -23 41 -28 57 -18 57 8 0
21 -8 29 -17z"/>
</g>
</svg>
