<?xml version="1.0" standalone="no"?>
<!DOCTYPE svg PUBLIC "-//W3C//DTD SVG 20010904//EN"
 "http://www.w3.org/TR/2001/REC-SVG-20010904/DTD/svg10.dtd">
<svg version="1.0" xmlns="http://www.w3.org/2000/svg"
 width="685.000000pt" height="1536.000000pt" viewBox="0 0 685.000000 1536.000000"
 preserveAspectRatio="xMidYMid meet">
<metadata>
Created by potrace 1.16, written by Peter Selinger 2001-2019
</metadata>
<g transform="translate(0.000000,1536.000000) scale(0.100000,-0.100000)"
fill="#000000" stroke="none">
<path d="M4365 15327 c-64 -44 -118 -103 -149 -165 l-25 -49 -143 -5 c-124 -4
-152 -9 -213 -32 -62 -24 -75 -26 -118 -16 -53 11 -97 31 -142 66 -43 32 -76
43 -194 65 -194 35 -249 23 -296 -64 -33 -61 -106 -167 -129 -186 -12 -10 -22
-6 -58 27 -72 65 -129 102 -160 102 -33 0 -81 -23 -177 -84 -37 -24 -101 -62
-142 -85 l-76 -41 -6 50 c-8 64 -38 125 -91 186 -37 42 -45 46 -71 40 -39 -10
-183 -157 -222 -226 -57 -103 -53 -123 28 -126 29 -2 62 -5 74 -8 26 -7 157
-142 179 -184 15 -29 14 -33 -20 -97 -24 -45 -39 -92 -49 -149 -15 -96 -12
-90 -115 -256 -42 -69 -87 -145 -100 -170 -13 -25 -41 -65 -62 -90 -22 -25
-48 -61 -58 -81 -56 -108 -221 -187 -433 -208 -60 -6 -109 -16 -124 -26 -25
-17 -62 -86 -63 -117 0 -29 31 -96 47 -102 9 -4 39 5 67 20 108 56 207 79 234
52 16 -16 15 -73 0 -86 -7 -6 -42 -15 -77 -22 -108 -19 -171 -61 -342 -227
-106 -103 -136 -152 -120 -195 13 -35 60 -48 176 -48 109 0 150 -10 195 -50
l35 -30 -41 -38 c-25 -23 -64 -45 -98 -55 -34 -11 -56 -23 -53 -30 2 -7 23
-25 48 -42 60 -40 150 -46 228 -15 33 13 58 17 63 12 5 -5 12 -37 15 -69 4
-46 2 -66 -11 -85 -9 -14 -19 -50 -23 -79 -8 -75 -17 -89 -113 -172 -47 -40
-118 -114 -159 -165 l-74 -92 -111 0 c-61 -1 -170 -5 -243 -9 -108 -7 -142
-13 -187 -34 -71 -33 -146 -84 -146 -101 0 -7 21 -44 46 -83 l45 -70 42 8 c23
4 89 10 147 14 95 6 108 4 137 -14 46 -29 67 -64 53 -90 -14 -28 -35 -37 -99
-45 -30 -4 -69 -13 -88 -21 -32 -14 -33 -15 -33 -75 0 -34 5 -71 11 -82 17
-31 -5 -43 -119 -62 -277 -48 -348 -71 -404 -135 -37 -42 -131 -234 -126 -257
2 -13 13 -9 56 20 28 20 75 52 104 71 63 44 97 44 111 0 25 -77 84 -101 292
-116 76 -5 184 -21 240 -34 55 -13 109 -25 120 -27 15 -2 9 -11 -32 -40 -29
-21 -59 -51 -68 -67 -18 -35 -97 -99 -134 -108 -36 -8 -105 -43 -211 -108
-119 -72 -139 -80 -309 -121 -201 -48 -226 -60 -256 -126 -31 -67 -50 -148
-41 -181 11 -46 28 -54 138 -61 125 -8 201 -19 336 -49 l103 -22 -7 -61 c-7
-71 -1 -100 27 -115 15 -8 26 -5 49 11 16 12 78 44 136 72 l107 51 44 -23 c90
-48 114 -110 74 -189 -46 -89 -146 -145 -261 -145 -79 -1 -76 -2 -189 70 -30
18 -70 37 -89 40 -47 9 -62 -13 -62 -86 0 -55 2 -59 65 -133 74 -87 148 -147
181 -147 24 0 41 -16 29 -28 -3 -4 -60 -12 -125 -18 -66 -6 -126 -17 -135 -24
-43 -36 5 -93 90 -109 26 -5 59 -18 74 -30 14 -12 42 -32 63 -46 33 -22 37
-30 45 -87 l8 -63 100 -3 c55 -1 104 -7 109 -12 20 -20 -6 -60 -67 -102 -34
-23 -80 -59 -102 -79 -22 -20 -74 -53 -116 -73 -88 -42 -145 -88 -188 -153
-26 -39 -31 -56 -31 -105 0 -50 3 -58 19 -58 10 0 48 -13 83 -30 35 -16 102
-39 148 -51 47 -12 89 -24 93 -28 12 -12 -14 -29 -126 -85 l-102 -52 -3 -41
c-5 -72 16 -96 102 -122 42 -12 122 -28 178 -36 74 -10 106 -19 115 -32 15
-20 10 -60 -18 -150 -22 -66 -44 -90 -153 -167 -65 -46 -218 -196 -291 -286
-63 -77 -108 -164 -130 -245 -22 -87 -20 -105 10 -105 34 0 59 -29 125 -145
30 -54 65 -108 77 -121 31 -34 86 -31 185 8 l81 32 18 -23 c11 -13 19 -34 19
-48 0 -14 10 -43 22 -64 l21 -38 -41 -54 c-22 -29 -91 -112 -152 -183 -62 -71
-119 -143 -126 -161 -13 -31 -20 -133 -9 -133 3 0 31 11 63 24 31 13 82 31
112 40 l55 16 -100 -93 c-73 -69 -113 -116 -146 -173 -84 -141 -94 -187 -44
-200 13 -3 32 -1 43 5 24 13 72 15 72 3 0 -5 -49 -61 -109 -125 -119 -128
-189 -243 -198 -330 -7 -63 6 -66 122 -32 52 15 101 25 110 22 23 -10 18 -41
-19 -109 -44 -79 -77 -198 -81 -291 -2 -40 -10 -90 -18 -112 -37 -104 -30
-184 29 -314 l35 -75 68 105 c76 118 136 189 159 189 23 0 9 -103 -28 -195
-17 -43 -48 -135 -69 -205 -21 -70 -55 -163 -75 -207 -59 -130 -43 -203 39
-190 20 3 43 3 51 0 23 -9 16 -63 -17 -133 -31 -66 -62 -181 -74 -278 -10 -75
9 -147 46 -173 53 -37 88 -36 186 10 50 22 94 41 100 41 15 0 65 -118 70 -164
5 -48 -32 -118 -124 -232 -87 -108 -122 -204 -123 -336 0 -43 -7 -40 135 -57
50 -6 101 -13 113 -17 21 -6 23 -4 20 22 -2 22 3 31 22 41 39 20 103 16 134
-8 31 -25 33 -42 6 -79 -12 -16 -32 -55 -46 -86 -32 -73 -106 -195 -155 -257
-57 -72 -82 -147 -76 -227 2 -36 12 -82 21 -104 16 -38 16 -39 61 -33 46 7 94
29 154 72 42 31 97 33 149 6 96 -49 100 -102 22 -301 -96 -246 -108 -314 -64
-349 43 -34 63 -35 88 -8 12 13 49 34 82 47 53 20 64 21 112 10 33 -7 79 -30
125 -61 l72 -50 67 7 67 6 30 -98 c47 -151 48 -144 -3 -293 -51 -148 -63 -213
-47 -253 12 -32 55 -56 114 -64 39 -6 46 -3 74 25 18 17 55 73 84 124 82 143
127 206 154 213 42 10 76 -16 112 -87 36 -72 97 -149 118 -149 7 0 26 26 41
57 37 73 57 78 114 27 71 -65 89 -105 99 -235 11 -129 21 -164 51 -174 46 -15
132 20 153 63 8 15 29 90 47 166 24 104 38 145 56 163 27 27 63 29 107 7 28
-15 46 -16 162 -5 71 6 158 11 193 11 60 0 64 -1 80 -32 35 -64 131 -204 157
-228 l27 -25 22 30 c34 48 77 85 127 110 l47 24 32 -62 c84 -158 122 -194 169
-160 14 11 36 41 49 69 53 114 68 139 83 142 28 5 82 -43 122 -110 47 -79 60
-83 115 -34 53 48 90 121 111 218 16 75 20 83 42 86 58 7 76 18 165 104 52 50
96 89 98 87 2 -2 13 -23 25 -46 12 -24 38 -54 59 -68 35 -22 129 -51 139 -41
2 2 22 64 43 138 48 167 103 305 138 347 l27 32 35 -23 c34 -23 35 -26 33 -83
-11 -427 -13 -410 58 -410 54 0 64 17 79 118 9 72 8 97 -9 197 -25 139 -26
174 -5 253 26 100 99 247 123 247 11 0 68 -137 85 -204 18 -68 31 -93 56 -106
49 -26 76 34 67 151 -4 43 -27 171 -52 285 -43 194 -75 372 -75 420 0 11 6 28
13 38 12 17 15 17 51 -8 45 -30 91 -33 159 -10 56 19 97 58 97 92 0 41 -35
102 -105 180 -69 77 -77 100 -50 151 15 29 37 41 140 76 57 19 60 22 63 55 4
41 -9 90 -50 183 -16 38 -28 70 -26 71 2 2 37 13 78 27 89 28 93 37 55 115
-42 86 -69 111 -179 163 -133 63 -137 68 -138 174 0 47 2 90 6 96 12 20 56 12
197 -34 76 -25 156 -45 179 -45 52 0 82 29 125 119 44 93 42 95 -202 216 -111
56 -211 109 -222 119 -28 25 -27 76 1 111 12 15 45 43 75 62 37 23 51 38 46
47 -5 7 -35 36 -68 63 -86 71 -92 79 -71 102 9 10 52 33 94 51 72 30 122 63
122 81 0 5 -37 30 -82 55 -58 33 -110 75 -173 138 -108 109 -189 211 -181 231
14 37 119 31 296 -15 137 -35 160 -37 160 -11 0 10 10 31 22 46 31 39 40 201
13 241 -20 31 -153 96 -235 114 -76 18 -117 62 -153 165 -15 44 -27 99 -27
122 0 47 31 127 52 136 17 6 88 -6 161 -28 109 -32 181 -15 255 62 29 31 62
73 73 94 l19 39 -40 20 c-22 11 -74 34 -116 50 -106 41 -156 72 -203 129 -48
57 -47 66 14 120 29 25 44 31 81 31 39 0 51 5 76 32 46 50 131 231 136 293 5
66 -6 87 -71 128 -88 57 -195 189 -167 207 6 4 58 10 115 12 125 7 178 27 183
71 5 41 -77 158 -262 371 -27 31 -46 60 -42 64 4 4 109 8 232 10 l224 3 0 30
c0 50 -27 88 -149 213 -143 146 -227 214 -371 301 -125 75 -220 159 -285 250
-85 119 -82 136 47 231 l88 66 128 -7 c112 -6 273 -24 370 -41 19 -4 32 -2 32
4 0 19 -177 202 -302 312 -168 147 -218 214 -242 322 -3 14 -29 52 -57 83 -40
42 -52 63 -51 86 1 32 26 118 49 161 27 55 131 88 278 88 106 0 162 -12 274
-55 l69 -27 76 36 c42 20 76 43 76 50 0 19 -37 64 -60 71 -12 4 -24 24 -34 58
-8 29 -33 91 -54 137 l-40 85 39 42 c57 62 53 81 -34 172 -62 65 -76 86 -89
136 -20 74 -33 185 -21 185 4 0 27 -7 50 -15 51 -18 188 -30 236 -21 48 9 52
29 20 88 -30 56 -62 80 -207 159 -54 30 -119 71 -143 93 -40 35 -133 147 -133
160 0 3 19 10 43 16 110 28 177 66 177 100 0 24 -84 99 -263 235 l-145 110 48
17 c136 46 393 58 508 23 12 -4 22 -3 22 2 0 18 -339 330 -382 351 -24 12 -90
40 -148 62 -58 22 -118 50 -134 63 -27 22 -29 28 -27 85 1 45 -4 77 -23 124
-24 62 -30 82 -27 104 0 6 32 14 74 17 40 3 146 28 243 56 111 32 205 53 270
59 54 6 125 19 158 31 65 23 129 67 123 84 -11 34 -248 174 -367 216 l-35 12
69 64 c112 103 146 111 317 75 117 -24 228 -26 275 -4 19 9 33 22 31 28 -2 6
-30 26 -63 44 -32 18 -85 59 -116 91 -41 41 -87 73 -165 113 -129 67 -228 108
-260 108 -13 0 -98 25 -188 56 -112 37 -177 54 -203 52 l-37 -3 3 -57 c1 -35
-2 -58 -8 -58 -22 0 -157 71 -194 101 -51 43 -96 115 -96 154 0 36 22 59 95
100 83 47 105 72 105 121 0 51 -55 209 -81 235 -14 14 -34 19 -69 19 -108 0
-134 27 -167 176 l-17 78 70 64 c91 85 164 141 266 203 45 28 94 61 107 74
l23 23 -24 16 c-14 9 -59 24 -99 32 -96 21 -360 13 -502 -14 l-99 -19 -14 21
c-154 219 -178 239 -400 347 l-161 78 -33 113 c-33 112 -33 114 -35 348 -2
129 -7 249 -12 265 -13 43 -47 43 -108 2z"/>
</g>
</svg>
