<?xml version="1.0" standalone="no"?>
<!DOCTYPE svg PUBLIC "-//W3C//DTD SVG 20010904//EN"
 "http://www.w3.org/TR/2001/REC-SVG-20010904/DTD/svg10.dtd">
<svg version="1.0" xmlns="http://www.w3.org/2000/svg"
 width="1536.000000pt" height="1069.000000pt" viewBox="0 0 1536.000000 1069.000000"
 preserveAspectRatio="xMidYMid meet">
<metadata>
Created by potrace 1.16, written by Peter Selinger 2001-2019
</metadata>
<g transform="translate(0.000000,1069.000000) scale(0.100000,-0.100000)"
fill="#000000" stroke="none">
<path d="M12215 10683 c-54 -14 -311 -205 -357 -265 -14 -18 -42 -66 -62 -105
-44 -84 -146 -200 -193 -219 -47 -20 -134 -17 -188 6 -60 26 -135 26 -217 0
-53 -17 -92 -20 -239 -20 -187 0 -237 -8 -332 -56 -31 -16 -92 -31 -180 -45
-72 -11 -168 -31 -212 -45 -73 -24 -89 -25 -175 -19 -52 5 -112 7 -133 7 -41
-2 -158 -47 -252 -98 -62 -34 -159 -57 -290 -69 -38 -3 -128 -18 -200 -32
-129 -25 -148 -26 -305 -7 -45 5 -72 1 -136 -19 -44 -14 -115 -33 -159 -42
-64 -12 -94 -25 -148 -62 l-68 -47 -232 -7 c-128 -4 -252 -10 -277 -14 -25 -5
-93 -34 -153 -67 -132 -72 -212 -97 -432 -133 -145 -24 -182 -26 -255 -19
-141 14 -555 4 -892 -22 -174 -13 -357 -24 -405 -25 -88 0 -103 -2 -263 -33
-140 -26 -435 -64 -595 -76 -186 -14 -199 -17 -277 -73 -87 -62 -131 -82 -229
-107 -131 -33 -291 -81 -324 -97 -16 -9 -44 -29 -62 -46 -25 -23 -50 -34 -119
-48 -47 -10 -123 -35 -168 -55 -44 -20 -130 -53 -191 -74 -174 -59 -227 -90
-340 -200 -55 -53 -144 -131 -198 -174 -154 -122 -195 -192 -203 -351 -3 -49
-7 -100 -10 -113 -6 -28 -48 -47 -127 -57 -87 -10 -120 -43 -142 -141 -9 -42
-25 -84 -35 -94 -11 -11 -59 -31 -107 -46 -118 -36 -155 -76 -256 -277 -19
-39 -41 -65 -66 -81 -21 -13 -59 -42 -84 -64 -36 -31 -58 -42 -94 -47 -100
-13 -116 -17 -138 -39 -13 -13 -33 -51 -46 -86 -31 -85 -70 -124 -138 -139
-79 -17 -109 -39 -142 -103 -37 -72 -55 -83 -120 -69 -28 6 -114 11 -193 11
l-143 0 -99 -47 c-106 -50 -229 -126 -282 -177 -19 -17 -57 -69 -85 -116 -44
-74 -157 -200 -178 -200 -4 0 -25 -27 -47 -60 -33 -49 -42 -72 -47 -127 -4
-38 -18 -110 -31 -162 -13 -51 -24 -101 -24 -111 0 -9 -13 -57 -29 -106 -17
-52 -34 -135 -41 -199 -7 -60 -20 -157 -31 -215 -22 -125 -24 -282 -4 -365 9
-35 15 -110 15 -177 0 -95 4 -131 24 -195 14 -43 29 -97 35 -119 6 -23 33 -75
60 -115 26 -41 58 -104 70 -142 13 -37 43 -94 68 -129 47 -64 159 -251 208
-347 15 -30 38 -100 52 -155 29 -121 95 -251 192 -381 37 -49 84 -116 104
-148 26 -40 54 -68 94 -94 153 -96 430 -326 487 -402 120 -163 486 -452 646
-510 51 -19 79 -39 149 -106 55 -54 106 -92 141 -108 60 -27 229 -164 355
-288 52 -50 98 -85 130 -99 73 -31 181 -116 264 -208 103 -115 158 -135 248
-91 75 36 106 104 84 186 -9 32 -25 54 -68 90 -56 48 -154 163 -166 195 -3 10
1 24 10 34 14 13 39 15 178 12 l161 -3 65 -42 c36 -24 89 -51 119 -62 87 -30
132 -51 183 -83 36 -23 69 -33 145 -44 53 -8 149 -31 212 -51 133 -41 259 -53
374 -34 59 10 83 10 141 -3 39 -8 114 -22 169 -31 58 -9 128 -28 168 -46 67
-29 74 -30 166 -24 l97 7 90 -46 c50 -25 133 -71 185 -102 186 -110 237 -124
300 -82 50 34 72 71 78 126 9 93 -31 162 -118 207 -25 13 -76 46 -115 75 -111
83 -287 162 -655 297 -52 19 -129 41 -170 50 -41 8 -83 23 -94 32 -10 9 -40
61 -66 116 -61 126 -132 212 -251 302 -70 53 -116 80 -179 103 -128 46 -164
69 -168 107 -3 28 7 42 90 125 107 108 172 148 257 155 74 7 117 -7 206 -67
91 -61 142 -87 190 -96 22 -3 60 -17 85 -29 25 -13 83 -36 130 -53 47 -17 105
-39 130 -50 85 -37 230 -72 321 -79 74 -5 104 -12 160 -39 38 -18 113 -44 167
-58 53 -13 133 -38 178 -54 50 -19 119 -35 180 -41 191 -22 250 -32 349 -60
224 -64 239 -66 533 -54 206 9 289 16 362 32 323 73 377 84 418 85 39 1 48 -3
73 -34 17 -19 53 -80 81 -135 28 -55 72 -136 98 -180 26 -44 70 -120 99 -170
29 -49 70 -112 91 -140 21 -27 52 -75 70 -105 18 -30 78 -102 134 -160 85 -88
110 -121 153 -205 74 -143 99 -174 215 -257 220 -158 347 -230 493 -281 55
-19 127 -47 160 -62 97 -44 162 -64 259 -80 50 -9 117 -23 149 -31 85 -22 754
-21 957 1 293 31 299 31 370 -1 88 -39 118 -36 239 26 l102 53 142 -13 c78 -7
214 -16 302 -20 171 -8 181 -10 294 -60 57 -25 83 -31 114 -27 89 12 145 124
103 206 -51 98 -262 192 -586 261 -171 37 -351 89 -395 114 -52 31 -92 74
-100 108 -9 37 20 64 156 147 74 45 139 75 231 106 124 42 132 43 226 38 81
-4 103 -1 132 14 103 53 90 252 -21 329 -79 54 -133 48 -499 -59 -486 -141
-498 -143 -680 -123 -157 18 -164 22 -175 113 -9 76 -32 126 -86 190 -50 58
-175 298 -215 413 -15 41 -80 188 -145 325 -175 366 -317 620 -415 742 -101
125 -122 208 -73 278 31 42 319 301 429 385 113 86 224 158 267 174 39 15 245
74 367 106 37 10 76 16 85 13 9 -3 43 -34 76 -69 59 -62 62 -64 112 -64 107 0
133 29 143 159 4 49 13 97 19 109 6 11 78 69 161 129 158 114 218 153 236 153
7 0 38 -17 70 -39 171 -112 284 -180 327 -196 87 -33 258 -134 379 -225 158
-119 215 -134 274 -75 37 37 32 83 -15 142 -72 90 -225 229 -299 272 -72 42
-290 189 -324 219 -22 18 -23 51 -3 58 8 3 43 -4 77 -16 49 -17 102 -24 233
-31 94 -5 206 -14 251 -19 44 -6 103 -10 132 -10 44 0 54 4 68 25 23 35 6 71
-44 92 -53 22 -203 57 -372 87 -172 30 -270 58 -306 89 -25 22 -26 24 -11 58
8 19 46 64 84 99 63 58 205 214 333 366 25 30 79 79 120 109 91 68 172 147
428 419 308 329 530 552 617 622 44 36 166 120 270 187 272 174 347 238 552
471 125 142 174 215 204 304 42 127 74 177 178 278 144 139 185 227 197 424
17 267 -73 423 -449 782 -307 294 -361 350 -409 425 -30 46 -70 90 -114 125
-84 67 -101 76 -184 99 -134 36 -378 126 -412 152 -19 15 -66 40 -105 56 -84
34 -201 101 -224 128 -24 26 -55 91 -69 143 -14 52 -51 128 -91 186 -15 23
-42 76 -59 119 -50 125 -66 151 -158 244 -71 73 -102 96 -172 130 -95 46 -166
66 -284 81 -81 10 -374 12 -411 3z"/>
</g>
</svg>
