<?xml version="1.0" encoding="UTF-8" standalone="no"?>
<!-- Created with Inkscape (http://www.inkscape.org/) -->

<svg
   xmlns:svg="http://www.w3.org/2000/svg"
   xmlns="http://www.w3.org/2000/svg"
   version="1.1"
   width="10.0889mm"
   height="11.4002mm"
   viewBox="0 0 240 271"
   id="svg2"
   xml:space="preserve"
   style="fill-rule:evenodd">
 <defs
   id="defs4">
  <style
   type="text/css"
   id="style6" />
 </defs>
 <g
   id="Capa_x0020_1">
  
  <g
   id="_830041696">
   <path
   d="M 78,42 C 77,41 73,39 69,39 63,37 57,37 50,36 38,33 28,31 16,31 13,31 9,32 6,33 5,33 3,34 2,35 1,35 1,35 0,36 0,35 -1,29 3,23 11,11 24,5 37,2 49,-2 71,1 83,7 c 1,0 1,0 3,1 4,1 9,-1 13,0 9,2 14,5 20,12 3,3 5,8 8,12 2,2 3,5 4,7 2,4 2,5 1,10 0,2 3,14 7,17 4,4 9,6 12,9 6,4 11,9 15,14 9,11 14,25 18,31 5,7 8,10 12,20 2,6 6,14 8,25 0,2 1,9 1,15 0,1 8,0 15,-2 7,-2 11,-5 13,-3 3,3 8,7 7,19 0,0 -8,3 -16,5 -8,2 -18,3 -18,3 2,6 4,14 7,22 4,16 8,29 12,45 -1,2 -4,3 -6,2 -5,-1 -10,-8 -15,-12 -6,-15 -12,-36 -14,-54 -9,1 -37,-1 -40,-1 0,1 -2,1 -3,2 -3,1 -6,0 -10,-4 -1,-1 -1,1 -8,2 -2,0 -4,-1 -5,-2 -1,1 -5,1 -5,0 -5,-3 -5,-5 -5,-7 -1,-1 -8,-3 -9,-3 -3,-1 -5,-8 -6,-11 -2,-4 -8,-9 5,-7 3,1 10,2 13,4 1,0 3,-5 9,-5 3,0 7,0 10,0 3,0 9,1 10,0 2,-1 -2,-4 -3,-5 -2,-1 -4,0 -7,-1 -1,0 -3,-1 -5,-2 0,-1 -2,-3 -2,-3 -1,-1 0,2 -2,1 -1,0 -5,-7 -7,-8 -1,0 0,4 -1,3 -1,-1 -2,-6 -4,-7 0,0 -1,2 -1,2 -3,-3 -5,-6 -8,-10 C 99,132 90,110 88,100 86,92 85,78 84,70 84,65 82,63 80,59 79,54 78,47 78,42 z"
   id="path11"
   style="fill:#201e1e" />
   <path
   d="m 147,184 c 1,1 2,2 3,2 1,2 3,2 4,1 4,0 10,1 15,1 1,0 5,0 6,-1 -1,-1 -1,-2 -1,-4 0,-2 0,-2 -1,-3 0,-1 -2,-1 -3,-2 -1,0 -3,1 -3,2 -1,2 -1,3 -3,3 0,0 -1,0 -2,0 -2,0 -3,0 -5,1 -4,0 -10,0 -10,0 z"
   id="path13"
   style="fill:#fefefe" />
  </g>
 </g>
</svg>