<?xml version="1.0" standalone="no"?>
<!DOCTYPE svg PUBLIC "-//W3C//DTD SVG 20010904//EN"
 "http://www.w3.org/TR/2001/REC-SVG-20010904/DTD/svg10.dtd">
<svg version="1.0" xmlns="http://www.w3.org/2000/svg"
 width="1536.000000pt" height="948.000000pt" viewBox="0 0 1536.000000 948.000000"
 preserveAspectRatio="xMidYMid meet">
<metadata>
Created by potrace 1.16, written by Peter Selinger 2001-2019
</metadata>
<g transform="translate(0.000000,948.000000) scale(0.100000,-0.100000)"
fill="#000000" stroke="none">
<path d="M5920 9474 c-153 -61 -269 -87 -560 -129 -102 -15 -212 -33 -245 -41
-67 -15 -557 -179 -1175 -392 -835 -288 -928 -308 -1500 -337 -427 -21 -529
-37 -635 -99 -45 -27 -109 -103 -163 -195 -65 -112 -26 -402 79 -576 19 -33
73 -93 122 -139 49 -44 97 -95 108 -112 47 -77 0 -204 -76 -204 -57 0 -345 91
-625 198 -58 23 -140 45 -183 51 -207 29 -508 -1 -646 -65 -133 -60 -335 -335
-398 -539 -25 -82 -25 -370 0 -535 43 -282 109 -558 222 -935 36 -121 89 -314
117 -430 222 -924 236 -972 293 -1034 22 -24 81 -78 130 -120 120 -101 315
-276 559 -501 111 -102 323 -293 471 -425 362 -321 476 -433 541 -531 74 -112
227 -289 419 -484 171 -174 201 -215 229 -326 15 -61 31 -185 41 -334 9 -125
33 -320 45 -359 11 -39 25 -51 60 -51 64 1 192 95 230 170 58 114 64 274 15
410 -15 41 -81 186 -147 323 -107 219 -121 254 -126 312 -4 58 -2 69 22 106
45 67 143 90 210 50 17 -10 51 -22 76 -26 136 -22 325 -183 470 -400 145 -218
171 -236 366 -260 468 -58 648 -107 948 -257 240 -120 306 -173 401 -327 167
-270 182 -285 281 -279 72 4 179 53 218 98 43 52 44 183 2 284 -36 86 -128
185 -361 388 -314 274 -380 398 -251 473 55 32 136 45 275 45 l115 0 -49 51
c-64 65 -151 127 -245 174 -77 39 -486 198 -1040 405 -382 142 -472 180 -468
194 2 6 71 45 154 86 82 41 172 90 199 109 77 53 234 216 412 426 88 105 178
207 200 227 l39 38 123 -30 c67 -17 272 -71 454 -120 752 -205 736 -195 896
-580 66 -157 113 -245 212 -390 144 -213 281 -368 773 -870 127 -130 258 -265
292 -300 69 -75 158 -130 310 -195 154 -66 300 -108 581 -165 736 -152 973
-247 1234 -498 103 -98 125 -133 180 -279 33 -91 80 -166 120 -196 34 -25 102
-32 159 -17 65 17 106 68 190 231 58 114 69 143 60 155 -16 18 -171 130 -365
264 -359 246 -562 420 -667 570 -50 73 -61 97 -48 105 5 3 71 12 147 20 175
19 438 19 518 1 33 -8 101 -24 150 -35 50 -12 148 -26 220 -31 225 -18 330
-54 383 -132 16 -24 50 -85 76 -135 56 -109 91 -143 146 -143 66 0 171 100
189 181 10 43 -10 143 -42 212 -46 102 -186 237 -271 262 -27 8 -133 22 -235
30 -420 35 -731 82 -1023 156 -278 70 -603 215 -701 315 -24 24 -28 35 -24 65
7 52 67 141 152 223 100 97 123 158 94 247 -13 38 -55 99 -69 99 -5 0 -18 -26
-29 -57 -12 -32 -29 -78 -38 -103 -30 -82 -92 -119 -157 -94 -25 9 -19 27 24
82 40 50 49 72 30 72 -15 0 -88 -38 -135 -70 -154 -105 -231 -105 -317 1 -82
101 -368 563 -461 746 -38 76 -49 105 -41 113 7 7 88 27 180 45 308 62 1102
264 1360 346 129 40 264 100 624 274 554 268 631 294 1225 415 434 88 483 103
635 196 103 62 152 87 224 115 64 23 176 108 224 168 39 48 147 137 218 179
93 54 226 100 469 161 272 68 409 112 610 195 214 89 633 297 743 369 53 35
144 91 202 123 86 48 125 79 216 169 167 166 229 277 240 434 16 207 -100 416
-391 706 -200 200 -278 255 -540 385 -121 59 -276 131 -345 160 -259 107 -547
260 -575 305 -7 11 -29 103 -49 204 -42 215 -79 329 -149 463 -146 283 -374
456 -753 573 -163 51 -208 50 -344 -4 -249 -101 -399 -191 -524 -317 -117
-116 -250 -301 -269 -373 -17 -65 -286 -97 -902 -108 l-330 -5 -107 26 c-61
15 -160 31 -235 36 -70 5 -152 16 -180 25 -29 8 -75 21 -101 29 -91 26 -364
49 -1036 86 l-180 10 -142 94 c-78 51 -166 105 -196 119 -90 44 -294 96 -745
191 -248 53 -345 80 -664 187 -130 44 -285 91 -345 104 -105 24 -303 41 -334
29z"/>
</g>
</svg>
