<?xml version="1.0" encoding="UTF-8" standalone="no"?>
<!-- Created with Inkscape (http://www.inkscape.org/) -->

<svg
   xmlns:svg="http://www.w3.org/2000/svg"
   xmlns="http://www.w3.org/2000/svg"
   version="1.1"
   width="100%"
   height="100%"
   viewBox="0 0 227 226.2"
   id="Layer_1"
   xml:space="preserve"><defs
   id="defs7" />
<path
   d="m 184.1,36.1 c -2.6,-7.4 -10.5,2.5 -12.4,5.2 -3.5,4.9 -7.2,9.6 -10.7,14.5 -3.5,4.9 -6.9,9.9 -10.5,14.8 -1.7,2.3 -3.5,4.6 -5.7,6.4 -2.4,2 -4.2,1.6 -7.1,0.8 C 126.5,75 115.2,68.5 104.9,63.4 93.9,58 89.8,45.6 79.4,39.4 74,36.2 66,34.9 60.3,38 c -1.3,0.7 -2.4,1.8 -3.8,2.2 -1.5,0.4 -3.5,0 -5.2,0.1 -2.6,0.2 -6.2,0.5 -8,2.6 2.8,0.6 6.3,1.6 9,2.6 4,1.4 5.8,5.4 7.1,9.2 2.5,7.5 2.6,15.2 4.5,22.8 4,15.8 16.6,29.8 29.5,39.2 3.6,2.6 7.4,4.9 11.5,6.7 4.2,1.9 6.3,4.5 8.6,8.4 -2.7,1.3 -5.1,4.2 -7.5,6 -1.9,1.5 -2,1.7 -4.1,1.8 -1.5,0.1 -3,-1.3 -4,0.7 1.5,-0.1 2.9,-0.3 4.2,0.6 -2.3,1.9 -3.8,3.7 -6.6,4.1 -3,0.4 -4.9,-0.2 -7.5,1.7 2.3,0.1 4.9,-1 7.2,0.1 -2.6,1.8 -5.7,4.7 -8.8,5.9 -3.4,1.4 -7.2,-0.3 -10.5,-1.2 -4.5,-1.1 -16,-7 -19.6,-2 1.6,0.4 3.6,-0.4 5.5,-0.2 0.9,0.1 1.8,0.1 2.6,0.5 1.2,0.7 0.9,1.6 1.7,2.1 2.7,1.7 8.7,2.1 12,2.7 -4.7,1.4 -9.5,1.1 -14.3,0.7 -3.8,-0.3 -11.6,-1.7 -13.5,2.9 2.5,-0.1 4.6,-1.8 7.2,-1.5 1.4,0.2 2,1.2 3.1,1.4 1.4,0.2 2.2,-0.3 3.5,-0.4 4.8,-0.3 9.6,0 14.4,-0.4 -3.1,1.6 -8,2.7 -11.4,3.1 -3.1,0.4 -9.3,-0.4 -10.3,3.8 2.4,-0.8 4.7,-2.4 7.3,-2.1 1.4,0.1 1.4,1 3.4,0.9 1.4,-0.1 2.7,-0.8 4.1,-1.2 5.4,-1.5 12,-4.4 17.6,-4.2 5.6,0.2 12,3.8 17.4,2.9 0.6,-0.1 1.4,-0.9 2.7,-1.1 1.2,-0.2 2.6,0 3.8,0.2 2.6,0.6 4.8,3.6 7.2,3.8 0,-4.6 -7.4,-6.5 -10.9,-6.7 -5,-0.2 -8.8,0.8 -13.7,-0.9 -3.2,-1.1 -3.5,-1.6 -0.8,-3.8 1.1,-0.9 4,-3.6 5.3,-3.9 1.4,-0.3 4.4,0.7 5.9,0.9 2.5,0.3 5,0.4 7.5,0.5 -3.5,0.9 -6.7,1.5 -10.4,1.4 -3,-0.1 -7.4,-0.5 -8.8,2.9 1.7,-0.4 3.4,-1.3 5.3,-1.5 3,-0.2 2,1.5 4.8,1.6 1.7,0 4.4,-1 6.2,-1.2 2.3,-0.3 4.6,-0.7 6.9,-1.1 2.4,-0.4 4.9,-0.9 7.4,-0.7 2.6,0.2 4.2,1.3 6.6,2.3 1.9,0.9 4.1,2.3 6,3 2.7,0.9 2,-0.2 3.8,-0.5 1.7,-0.3 4.4,1 5.8,1.9 0.8,0.6 4,4.6 4.5,4.4 1,-0.5 -1.4,-4.1 -2,-4.9 -1.6,-1.8 -3.8,-2.6 -6.1,-3.2 -4.1,-1 -9.8,-1.9 -13,-4.8 -3.1,-2.8 1.6,-8.2 3.4,-11.3 1.5,-2.5 3.1,-5 4.6,-7.5 0.6,-1 2.5,-6.2 3.5,-6.7 1.8,-0.8 5.2,2.4 7.5,1.4 2.4,-1.1 2.2,-4.1 2,-6.3 3.7,1.5 3,-1.1 3.6,-3.4 0.5,-2.2 3.3,-5 4.6,-7.3 3.1,-5.7 5.1,-11.5 7.1,-17.7 1.9,-5.7 4.4,-11.2 6,-17.1 0.8,-3.1 1.3,-6.5 2.3,-9.5 0.9,-2.8 2.8,-5.4 4.3,-8 1.8,-3.2 4.1,-6.5 5,-10.1 0.4,-2 1.2,-7.7 -0.4,-9.5 z m -69,111.2 c -4.2,0 -8.3,-0.7 -12.5,-0.7 2.9,-2.1 3.3,-2.6 6.6,-1.5 2.2,0.7 4.5,1.2 6.7,2 -0.3,0 -0.6,0.1 -0.8,0.2 z m 18.6,-18 c -2.3,4.5 -5.6,11.8 -9.5,15.1 -4.4,3.7 -11.7,-0.5 -16.3,-2.1 3.3,-2.6 7.5,-4.7 10.5,-7.6 3.2,-3 2.3,-5.1 -1,-7.9 3.2,0.1 6.4,0.2 9.7,0.2 3,0 6,-1.1 8.9,-0.9 -0.8,1 -1.5,2.1 -2.3,3.2 z"
   id="path3" />
</svg>