<?xml version="1.0" encoding="UTF-8" standalone="no"?>
<!-- Created with Inkscape (http://www.inkscape.org/) -->

<svg
   xmlns:svg="http://www.w3.org/2000/svg"
   xmlns="http://www.w3.org/2000/svg"
   version="1.1"
   width="184.21059mm"
   height="122.66792mm"
   viewBox="0 0 652.71468 434.65012"
   id="svg2">
  <defs
     id="defs4" />
  <g
     transform="translate(85.408673,-394.76092)"
     id="layer1">
    <path
       d="m 310.44641,827.43146 c -2.1275,-2.05617 -3.82036,-2.33184 -11.36161,-1.85015 -12.03464,0.76869 -14.26339,-0.53544 -14.26339,-8.34608 0,-7.45238 3.89833,-13.73497 9.73288,-15.68565 2.25934,-0.75537 7.0876,-3.67893 10.72947,-6.4968 5.7072,-4.4159 7.17827,-6.50437 10.65267,-15.12357 2.2171,-5.50008 4.35606,-13.30985 4.75326,-17.35501 0.3972,-4.04516 1.19122,-8.27075 1.76449,-9.39017 0.63306,-1.23618 0.13668,-5.40792 -1.26423,-10.625 -4.12235,-15.35192 -7.41909,-30.86674 -8.86392,-41.71468 -0.77834,-5.84375 -2.58088,-14.34336 -4.00565,-18.88801 l -2.5905,-8.26303 -15.14174,-0.71936 c -8.32795,-0.39565 -18.11013,-1.52074 -21.73818,-2.50019 -3.62805,-0.97943 -6.87606,-1.3284 -7.2178,-0.77546 -0.34173,0.55295 -1.97805,12.99014 -3.63623,27.6382 -1.74645,15.4276 -4.02175,29.52537 -5.40798,33.50785 -5.13455,14.75094 -5.84319,22.24284 -4.2848,45.29995 1.57715,23.33479 1.6245,23.06357 -5.21267,29.85985 -3.29382,3.27411 -7.99263,4.8402 -14.52227,4.8402 -1.89237,0 -4.1832,0.89467 -5.09072,1.98818 -2.25808,2.72082 -14.46095,1.28241 -18.15596,-2.14013 -2.33707,-2.16473 -2.79932,-2.22116 -4.21555,-0.51469 -2.43844,2.93814 -16.34207,2.57581 -22.54257,-0.58745 -2.69962,-1.37723 -5.4898,-3.59041 -6.20038,-4.91815 -2.42774,-4.53627 2.34851,-11.42217 10.5702,-15.23902 2.22048,-1.03084 4.9172,-3.98894 6.64571,-7.28986 1.5999,-3.0553 4.86769,-7.72324 7.26176,-10.37319 10.04525,-11.11888 12.39868,-16.54599 14.22381,-32.80069 2.09588,-18.6658 2.08269,-19.72121 -0.43587,-34.89109 -1.45805,-8.78212 -2.05723,-20.15664 -2.05723,-39.0535 l 0,-26.66241 -12.26631,-12.40432 c -9.94774,-10.05965 -14.14161,-13.32993 -22.1875,-17.30126 -5.45665,-2.69331 -12.45244,-6.25605 -15.54619,-7.91717 -5.57356,-2.99264 -5.95271,-3.02025 -41.46165,-3.02025 l -35.836653,0 -5.86746,4.13656 c -3.2271,2.2751 -8.75686,5.26394 -12.28835,6.64184 -7.01279,2.73624 -12.27609,6.035 -24.29869,15.22912 -10.98527,8.40087 -15.20543,9.61748 -33.3607799,9.61748 -13.40652,0 -15.6924601,-0.30929 -18.4775001,-2.5 -3.7384,-2.94062 -5.90892,-3.20354 -5.90892,-0.71573 0,0.98135 -1.4821,2.9501 -3.29357,4.375 -2.82649,2.22332 -5.04237,2.59073 -15.625,2.59073 -10.8379,0 -12.59637,-0.30716 -14.51893,-2.53614 -4.85778,-5.63202 -9.87939,-10.34968 -13.32035,-12.5141 -2.08134,-1.3092 -4.34215,-4.32221 -5.29368,-7.05495 -2.19227,-6.29607 -2.10372,-20.15165 0.19824,-31.01935 2.46405,-11.63294 2.33886,-17.16526 -0.46996,-20.76938 -9.2348,-11.84959 -12.38089,-34.12871 -13.48312,-95.48108 l -0.67371,-37.5 4.60886,-13.75 c 5.00616,-14.93528 6.07787,-16.875 9.32363,-16.875 3.01723,0 5.04759,5.22269 5.04759,12.98386 0,3.63893 1.18155,11.06559 2.62566,16.50369 1.44412,5.4381 3.10926,12.24933 3.70032,15.13607 1.17685,5.74779 4.85627,21.43664 8.82446,37.62707 2.96869,12.11243 6.96663,21.6244 12.65524,30.10958 2.23813,3.33842 5.00865,7.79642 6.15672,9.90667 2.00835,3.69152 2.26871,3.78718 6.875,2.52615 6.7628,-1.85143 6.66716,-1.649 4.04265,-8.55614 -1.38354,-3.64116 -2.38005,-9.41676 -2.38005,-13.79434 0,-12.47775 4.51546,-16.27193 14.1860901,-11.92007 8.85492004,3.98479 16.18801,6.97746 17.0972,6.97746 0.53102,0 3.8598799,-1.94778 7.3974799,-4.32841 3.53759,-2.38062 9.84816,-5.57401 14.0235,-7.09641 l 7.59152,-2.768 -0.70594,-5.96054 c -0.38827,-3.2783 -2.14232,-9.55092 -3.8979,-13.93916 -2.70989,-6.77369 -3.19195,-9.95116 -3.19195,-21.03992 0,-20.04682 4.30028,-23.78555 13.99315,-12.16588 9.00209,10.79156 16.2903,18.54832 17.4279,18.54832 0.59343,0 1.07895,-2.44518 1.07895,-5.43374 0,-3.7178 0.82425,-6.3823 2.61012,-8.4375 1.43556,-1.65207 3.45485,-4.41001 4.48732,-6.12876 3.48501,-5.80152 10.15734,-9.73737 20.18255,-11.90524 26.037143,-5.63033 25.385583,-5.3887 32.387943,-12.01125 5.13639,-4.85778 7.3587,-6.15957 9.99155,-5.8529 2.60966,0.30397 3.6531,1.33144 4.55112,4.48149 0.81365,2.85409 1.76843,3.92345 3.16479,3.54462 11.13093,-3.01975 24.23961,-4.40224 46.99961,-4.95676 24.55145,-0.59817 33.6408,-1.57907 44.375,-4.78881 2.40625,-0.71951 14.31915,-1.58451 26.47312,-1.92221 32.24798,-0.89602 43.26976,1.35537 73.5993,15.03392 8.54812,3.85518 19.78857,5.48644 44.92758,6.52009 l 23.92045,3.82694 11.70455,3.2832 c 9.23203,2.58964 21.03125,7.98559 26.875,10.02926 5.84375,2.04366 11.46875,4.4461 12.5,5.33873 1.03125,0.89264 6.28308,3.17705 11.67073,5.07646 15.80832,5.57322 45.3646,26.59532 63.47321,45.14577 13.46505,13.79358 29.49299,35.06903 32.62081,43.3008 1.30609,3.43734 3.25799,7.95779 4.33757,10.04546 4.60391,8.90299 7.09057,49.86807 4.03778,66.51836 -1.81953,9.92397 -8.60536,22.51298 -17.29033,32.0769 -3.91582,4.3121 -7.83237,9.60538 -8.70345,11.76287 -1.5629,3.87094 -1.38232,26.01915 0.57443,70.4523 0.37845,8.59375 0.36417,17.35425 -0.0317,19.46778 -0.39591,2.11352 -3.16638,6.70897 -6.1566,10.21211 -4.66663,5.4671 -5.5569,7.43115 -6.28485,13.86532 -0.84963,7.50982 0.90322,22.20124 3.24595,27.20574 3.9364,8.40888 -3.02693,13.23056 -18.8901,13.08023 -5.90062,-0.0559 -13.45455,0.24513 -16.7865,0.66903 -5.64302,0.7179 -10.16288,-0.37246 -18.23336,-4.39858 -6.28362,-3.13472 -4.68561,-10.08822 3.16665,-13.77922 3.176,-1.4929 5.53351,-2.95537 5.23894,-3.24995 -0.29458,-0.29457 -3.69256,0.12659 -7.55109,0.93593 -8.98442,1.8845 -12.4876,0.40635 -15.7134,-6.63016 -3.04597,-6.64428 -2.28676,-9.41285 3.37343,-12.30173 2.48981,-1.27076 5.65061,-3.55292 7.02398,-5.07146 1.37338,-1.51854 4.0297,-3.55355 5.90293,-4.52224 2.05752,-1.06399 5.39249,-5.34339 8.42392,-10.80953 5.46164,-9.84812 6.64843,-18.48569 3.3901,-24.67327 -4.0062,-7.60778 -6.01605,-10.2177 -19.71088,-25.59604 -8.80565,-9.88811 -15.90613,-19.15774 -18.08653,-23.61185 -3.56984,-7.29246 -9.60742,-13.29211 -13.37617,-13.29211 -1.08548,0 -3.66464,1.42291 -5.73147,3.16204 -2.06682,1.73912 -7.03186,4.32205 -11.03341,5.73986 -6.65109,2.35656 -9.27011,2.5233 -30.5145,1.94257 l -23.23896,-0.63523 -0.82111,34.58287 c -1.3354,56.24301 -1.09839,72.01103 1.20133,79.92179 2.36898,8.14899 1.78858,17.12181 -1.61118,24.90867 -3.69049,8.45272 -15.5833,15.76017 -25.33735,15.56835 -3.05044,-0.06 -6.15364,0.39504 -6.89602,1.01116 -0.74237,0.61611 -6.12156,1.49843 -11.95376,1.96071 -9.45941,0.74977 -10.87384,0.5797 -13.10399,-1.57568 z"
       id="path3347"
       style="fill:#000000" />
  </g>
</svg>
