<?xml version="1.0" standalone="no"?>
<!DOCTYPE svg PUBLIC "-//W3C//DTD SVG 20010904//EN"
 "http://www.w3.org/TR/2001/REC-SVG-20010904/DTD/svg10.dtd">
<svg version="1.0" xmlns="http://www.w3.org/2000/svg"
 width="920.000000pt" height="384.000000pt" viewBox="0 0 920.000000 384.000000"
 preserveAspectRatio="xMidYMid meet">
<metadata>
Created by potrace 1.16, written by Peter Selinger 2001-2019
</metadata>
<g transform="translate(0.000000,384.000000) scale(0.100000,-0.100000)"
fill="#000000" stroke="none">
<path d="M3051 3759 c-125 -28 -169 -44 -357 -130 -93 -44 -173 -79 -177 -79
-5 0 -95 -44 -275 -133 -39 -20 -109 -51 -154 -68 -93 -36 -120 -51 -233 -127
-44 -30 -111 -70 -150 -90 -38 -19 -90 -48 -114 -65 -24 -16 -76 -46 -116 -67
-39 -20 -105 -58 -146 -85 -41 -26 -112 -70 -159 -97 -172 -100 -208 -124
-288 -192 -45 -38 -82 -72 -82 -75 0 -10 -140 -151 -213 -216 -89 -79 -90 -80
-181 -155 -43 -36 -87 -73 -99 -84 -12 -10 -51 -38 -87 -62 -127 -84 -164
-117 -184 -167 l-20 -48 26 -53 c23 -46 120 -146 141 -146 10 0 195 -127 259
-178 33 -26 73 -57 91 -70 18 -13 43 -34 57 -46 14 -13 52 -38 85 -56 33 -19
81 -45 107 -59 94 -52 224 -129 278 -165 30 -20 129 -73 220 -117 91 -45 208
-109 260 -144 52 -34 124 -77 160 -95 36 -18 86 -48 113 -67 26 -19 84 -51
129 -70 45 -19 98 -43 118 -53 44 -24 242 -110 252 -110 10 0 68 -29 198 -97
52 -27 109 -53 125 -57 17 -4 46 -17 65 -30 33 -22 46 -26 131 -45 20 -4 59
-21 85 -37 27 -16 95 -44 150 -63 101 -33 102 -33 151 -17 98 32 219 139 703
617 224 220 242 241 275 312 40 86 54 162 35 196 -23 45 3 46 91 5 105 -49
135 -49 230 4 62 35 89 59 168 152 51 61 106 128 122 150 20 28 38 40 61 44
18 3 80 13 138 22 58 8 139 24 182 35 42 10 89 19 105 19 16 0 63 9 104 20 41
11 88 20 104 20 17 0 73 11 126 25 52 13 131 28 175 34 43 5 145 23 225 40 80
16 165 32 189 35 24 3 66 10 94 15 165 33 233 42 364 51 81 6 160 8 177 5 16
-3 127 -7 245 -9 231 -4 312 -16 435 -61 39 -15 80 -29 92 -32 12 -3 28 -11
34 -19 6 -8 17 -14 23 -14 6 0 67 -23 135 -52 85 -36 137 -65 168 -93 52 -47
55 -68 24 -163 -16 -49 -18 -68 -10 -84 10 -19 18 -20 102 -15 87 5 167 17
352 51 44 9 137 15 208 16 137 0 265 26 374 75 83 37 129 93 101 121 -15 15
-203 58 -303 69 -33 3 -89 13 -125 20 -36 8 -119 24 -185 34 -66 11 -140 27
-164 36 -24 8 -51 15 -59 15 -26 0 -251 94 -380 158 -99 50 -103 56 -63 93 28
25 32 34 26 62 -4 17 -18 43 -33 56 -25 23 -27 23 -218 18 -189 -5 -193 -5
-246 20 -89 42 -328 120 -423 138 -150 28 -190 37 -201 46 -7 5 -10 35 -8 73
6 118 -39 135 -204 75 -48 -17 -110 -45 -139 -61 l-52 -29 -108 11 c-59 6
-151 15 -203 20 -52 5 -144 15 -205 22 -72 8 -245 12 -505 10 -217 -1 -403 1
-412 4 -11 3 -18 18 -20 41 -3 33 -13 45 -88 106 -134 109 -249 182 -308 197
-78 18 -171 6 -265 -37 -43 -19 -81 -32 -84 -29 -4 3 2 31 12 61 19 53 19 56
0 107 -17 49 -101 178 -115 178 -3 0 -35 28 -71 63 -36 34 -85 78 -109 98 -25
20 -79 71 -120 114 -94 97 -75 81 -210 175 -63 43 -137 97 -165 119 -99 80
-205 133 -260 130 -11 -1 -58 -10 -104 -20z"/>
</g>
</svg>
