<?xml version="1.0" encoding="UTF-8" standalone="no"?>
<!-- Created with Inkscape (http://www.inkscape.org/) -->

<svg
   xmlns:svg="http://www.w3.org/2000/svg"
   xmlns="http://www.w3.org/2000/svg"
   version="1.2"
   width="634.27899"
   height="405.15799"
   viewBox="0 0 634.279 405.158"
   id="Layer_1"
   xml:space="preserve"
   style="overflow:inherit"><defs
   id="defs7" />
<path
   d="m 634.279,404.158 c -0.027,0.973 -1.225,0.776 -2,1 -24.651,-21.615 -37.854,-50.778 -50,-84 -5.757,-15.747 -8.526,-33.071 -15,-48 -2.782,-6.416 -8.299,-13.492 -12,-21 -10.317,-20.928 -30.424,-43.712 -50,-52 -21.965,-9.3 -63.062,-14.088 -90,-14 -19.006,0.062 -38.298,7.359 -58,1 -0.478,6.144 1.004,10.33 2,15 15.123,7.641 32.559,13.327 56,10 7.537,4.167 8.215,16.64 18,19 9.506,2.293 19.438,-1.634 27,1 -2.718,13.083 -23.38,8.446 -31,14 -0.165,9.506 17.904,9.423 18,22 2.49,1.844 6.255,2.411 9,4 -24.361,5.328 -26.948,-16.341 -42,-17 -0.028,10.681 9.317,20.39 10,29 -16.604,-1.396 -22.079,-13.921 -25,-29 -16.119,4.319 -1.293,28.505 -5,39 -7.04,-8.498 -21.256,-18.674 -21,-31 0.229,-11.054 12.123,-16.768 16,-27 -19.758,-8.923 -47.454,-0.218 -64,-13 -8.521,-6.583 -8.961,-16.652 -15,-27 -5.667,0 -11.333,0 -17,0 -17.87,9.293 -52.079,9.016 -75,3 -28.651,-7.52 -58.539,-18.716 -82,-26 -2.312,4.688 -2.461,11.539 -6,15 -10.472,5.368 -22.121,4.367 -28,14 -5.681,9.309 -3.696,23.549 -13,31 -3.968,-4.673 0.127,-13.025 -2,-18 -7.23,-1.717 -8.414,7.336 -12,11 -5.388,5.505 -12.787,7.98 -15,16 -3.724,-11.077 2.439,-19.97 6,-27 -10.313,3.358 -21.695,10.965 -32,11 1.309,-16.024 17.954,-16.713 27,-25 -12.231,-6.438 -23.425,7.167 -34,1 2.763,-7.15 9.095,-11.585 19,-13 7.047,-1.007 17.753,3.339 21,-4 -1.873,-7.461 -12.863,-5.803 -15,-13 8.614,-2.599 13.259,-3.298 19,1 4.3,3.22 4.22,11.536 9,13 7.969,2.44 28.079,-13.749 29,-18 0.979,-4.519 -2.623,-13.431 -4,-18 -1.99,-6.602 -4.205,-11.512 -8,-15 -5.04,-1.444 -6.872,3.628 -10,1 -0.012,-4.318 1.837,-5.605 -1,-8 -7.48,-2.873 -13.421,1.02 -21,1 -0.903,-5.237 4.903,-3.763 4,-9 -2.364,-2.636 -7.501,-2.499 -9,-6 4.459,-5.453 13.793,-3.903 21,-2 -9.526,-13.141 -31.012,-14.321 -43,-25 -7.789,-20.677 -35.542,-34.496 -38,-60 -0.572,-5.936 -0.567,-15.561 3,-21 9.895,-15.088 36.715,2.052 51,4 5.704,0.778 10.681,-1.399 15,0 4.449,1.442 7.412,7.192 12,10 8.109,4.963 16.297,5.766 21,11 4.054,4.512 3.367,9.57 6,15 4.647,9.586 16,16.195 16,26 6.031,1.055 8.03,5.434 14,6 9.896,0.938 21.833,-6.284 31,-5 10.143,1.42 11.392,9.331 18,16 30.562,9.216 65.624,14.976 103,18 13.75,1.113 27.075,7.855 40,8 3.612,0.041 7.221,-1.807 11,-2 8.119,-0.416 18.365,2.332 28,3 5.422,0.376 11.838,-1.699 16,-1 6.981,1.172 14.301,9.516 22,10 4.89,-2.945 9.702,-8.442 18,-5 2.084,-1.916 0.007,-7.994 4,-8 2.061,12.207 29.258,12.257 29,24 -0.162,7.395 -5.557,5.354 -9,11 63.055,9.839 113.329,40.516 130,94 5.236,16.8 7.338,34.414 10,54 5.625,41.388 20.039,88.16 45,109 z"
   id="path3"
   style="fill-rule:evenodd" />
</svg>