<?xml version="1.0" standalone="no"?>
<!DOCTYPE svg PUBLIC "-//W3C//DTD SVG 20010904//EN"
 "http://www.w3.org/TR/2001/REC-SVG-20010904/DTD/svg10.dtd">
<svg version="1.0" xmlns="http://www.w3.org/2000/svg"
 width="1536.000000pt" height="1189.000000pt" viewBox="0 0 1536.000000 1189.000000"
 preserveAspectRatio="xMidYMid meet">
<metadata>
Created by potrace 1.16, written by Peter Selinger 2001-2019
</metadata>
<g transform="translate(0.000000,1189.000000) scale(0.100000,-0.100000)"
fill="#000000" stroke="none">
<path d="M12103 11879 c-403 -36 -805 -156 -1172 -350 -63 -34 -967 -599
-2010 -1257 -1043 -657 -3169 -1998 -4726 -2980 -1557 -982 -2859 -1806 -2895
-1831 -607 -431 -1031 -1047 -1208 -1756 -69 -276 -87 -428 -86 -735 0 -294
16 -434 76 -685 327 -1373 1583 -2329 2998 -2282 380 13 716 84 1060 223 213
87 366 172 800 446 223 140 700 441 1060 668 360 228 738 466 840 530 305 192
2021 1274 2220 1400 102 64 435 274 740 467 745 469 1813 1143 2090 1318 124
78 623 393 1110 700 1031 649 1042 657 1191 772 141 109 389 354 498 492 231
291 403 606 515 942 200 602 206 1258 16 1854 -399 1246 -1560 2085 -2870
2074 -85 -1 -196 -5 -247 -10z m647 -144 c671 -93 1294 -416 1727 -895 402
-446 643 -959 729 -1555 22 -150 25 -540 6 -695 -81 -653 -369 -1251 -825
-1712 -121 -123 -242 -227 -377 -324 -47 -34 -1842 -1170 -3990 -2524 -2148
-1355 -4258 -2686 -4690 -2958 -432 -273 -828 -520 -880 -551 -334 -193 -724
-322 -1130 -373 -135 -17 -524 -17 -660 0 -970 120 -1784 686 -2220 1542 -109
215 -169 376 -226 605 -61 249 -78 387 -78 670 -1 261 6 337 50 567 115 595
437 1169 889 1580 156 142 295 243 575 420 135 85 540 341 900 568 360 227
801 505 980 618 179 113 487 307 685 432 1075 678 4512 2846 4825 3043 201
127 536 338 745 470 424 268 871 550 1015 640 415 260 835 399 1365 451 87 9
476 -4 585 -19z"/>
<path d="M12185 11234 c-16 -2 -70 -9 -120 -15 -306 -36 -652 -156 -920 -317
-66 -39 -1330 -834 -1625 -1022 -157 -100 -1911 -1206 -6770 -4270 -1039 -656
-1072 -677 -1189 -768 -473 -369 -800 -934 -886 -1533 -149 -1039 422 -2055
1386 -2468 274 -117 538 -176 849 -187 470 -18 925 103 1345 358 79 48 577
362 1720 1083 539 340 2536 1600 2780 1753 127 80 295 186 375 237 80 50 327
207 550 347 1269 799 3865 2438 3934 2483 366 237 661 570 851 960 115 236
181 449 222 715 24 160 24 491 -1 650 -161 1035 -941 1817 -1971 1975 -103 16
-460 29 -530 19z m-1659 -1229 c251 -44 456 -153 639 -340 152 -154 245 -318
302 -532 24 -89 27 -114 27 -283 0 -169 -3 -194 -27 -283 -86 -321 -281 -577
-562 -740 -313 -181 -741 -197 -1073 -40 -336 159 -577 467 -652 833 -19 90
-21 128 -17 265 5 192 31 303 106 461 62 130 115 208 210 307 175 184 401 306
647 351 107 19 292 19 400 1z"/>
</g>
</svg>
