<?xml version="1.0" standalone="no"?>
<!DOCTYPE svg PUBLIC "-//W3C//DTD SVG 20010904//EN"
 "http://www.w3.org/TR/2001/REC-SVG-20010904/DTD/svg10.dtd">
<svg version="1.0" xmlns="http://www.w3.org/2000/svg"
 width="1536.000000pt" height="613.000000pt" viewBox="0 0 1536.000000 613.000000"
 preserveAspectRatio="xMidYMid meet">
<metadata>
Created by potrace 1.16, written by Peter Selinger 2001-2019
</metadata>
<g transform="translate(0.000000,613.000000) scale(0.100000,-0.100000)"
fill="#000000" stroke="none">
<path d="M870 6121 c0 -6 10 -11 23 -11 48 0 454 -91 604 -136 87 -25 178 -50
203 -55 79 -16 494 -145 540 -169 19 -10 62 -23 95 -30 33 -7 125 -36 205 -65
80 -30 172 -61 205 -69 141 -36 421 -144 695 -268 208 -94 542 -265 581 -298
41 -33 43 -75 7 -118 -24 -29 -109 -219 -122 -273 -5 -25 -3 -28 39 -38 84
-21 135 -15 190 24 27 20 81 45 120 57 38 12 90 35 115 51 l45 29 218 -6 c281
-8 559 -49 624 -91 49 -33 48 -50 -9 -112 -56 -61 -142 -176 -173 -230 -10
-17 -29 -36 -41 -42 -14 -6 -21 -16 -18 -24 3 -8 -5 -31 -18 -51 -69 -111 -85
-132 -106 -141 -16 -7 -21 -16 -18 -29 6 -23 -39 -93 -66 -102 -12 -4 -17 -11
-13 -21 6 -18 -21 -53 -42 -53 -7 0 -13 -11 -13 -26 0 -38 -36 -84 -66 -84
-21 0 -23 -2 -13 -18 15 -24 -14 -72 -42 -72 -15 0 -18 -5 -13 -24 6 -27 -27
-66 -58 -66 -14 0 -17 -5 -13 -23 4 -16 0 -29 -14 -41 -12 -11 -21 -24 -21
-31 0 -7 -19 -30 -42 -52 -24 -23 -58 -61 -76 -87 -21 -29 -51 -55 -83 -72
-28 -14 -71 -46 -95 -70 l-44 -45 -78 6 c-62 6 -85 4 -117 -10 -22 -9 -132
-48 -245 -87 -113 -38 -250 -85 -305 -104 -339 -117 -698 -199 -1179 -269
-229 -33 -482 -86 -611 -126 -33 -10 -80 -19 -105 -19 -98 0 -248 -97 -433
-279 -77 -75 -165 -172 -197 -216 -57 -79 -115 -129 -255 -222 -139 -92 -179
-112 -412 -204 -112 -44 -153 -71 -153 -100 0 -26 11 -24 55 11 21 17 50 33
64 36 49 11 86 23 152 47 36 14 81 28 100 32 43 9 180 92 249 151 47 40 82 51
63 20 -39 -62 -124 -151 -181 -189 -185 -124 -309 -198 -346 -208 -23 -6 -83
-31 -133 -56 -85 -41 -93 -48 -93 -74 0 -15 4 -30 10 -34 13 -8 64 17 130 63
30 21 87 52 125 68 39 15 122 56 187 90 132 70 148 77 166 66 7 -5 19 -42 26
-83 21 -105 58 -229 80 -262 25 -38 29 -29 11 24 -25 68 -31 182 -13 227 9 20
21 54 28 75 7 23 36 63 71 99 32 33 59 64 59 69 0 5 7 9 15 9 8 0 15 -6 15
-13 0 -17 48 -63 57 -54 3 4 -6 30 -22 59 l-28 51 31 28 c21 19 37 26 52 22
18 -5 20 -2 15 20 -6 22 -1 29 34 51 23 15 41 32 41 38 0 9 3 9 12 0 17 -17
28 -15 28 7 0 10 7 24 15 31 12 10 15 10 15 -4 0 -9 7 -16 15 -16 11 0 13 7 9
29 -7 31 11 50 29 32 17 -17 27 -13 27 13 0 13 7 30 16 37 13 11 17 10 26 -4
12 -23 28 -12 28 18 0 30 14 39 30 20 21 -25 32 -17 25 18 l-7 32 21 -19 c25
-22 40 -13 24 13 -10 15 -8 22 8 37 16 15 24 16 39 6 16 -10 19 -8 22 15 2 20
12 29 41 39 47 17 72 8 170 -60 80 -54 113 -58 210 -25 85 30 137 39 163 29
13 -5 47 -3 85 5 35 7 69 9 74 5 16 -13 94 -23 205 -26 58 -2 125 -7 150 -13
62 -14 184 -13 215 1 19 9 28 9 37 0 16 -16 71 -15 86 0 10 10 15 10 21 -1 7
-11 25 -9 105 14 96 27 143 27 151 2 2 -7 6 -38 10 -70 4 -31 10 -57 15 -57 5
0 16 20 26 45 20 53 28 51 26 -5 -1 -30 2 -40 13 -40 9 0 15 9 15 22 0 12 3
18 7 15 3 -4 13 4 22 17 69 103 71 104 155 136 44 17 131 45 191 62 61 17 148
48 194 69 116 54 245 93 386 119 66 12 170 37 230 55 61 18 126 36 145 40 19
4 43 14 52 22 10 9 30 15 45 15 61 0 115 48 204 181 33 49 63 105 68 125 9 38
67 179 81 197 4 6 15 53 24 105 24 147 107 380 165 464 15 23 40 59 54 80 15
21 36 66 46 100 11 34 29 86 41 116 18 47 41 124 110 370 6 22 37 63 81 108
78 81 145 119 219 124 l44 3 8 -40 c5 -22 35 -204 68 -405 33 -201 87 -516
120 -700 161 -889 162 -918 60 -1147 -39 -86 -66 -99 -174 -84 -153 21 -316 7
-395 -33 -33 -17 -51 -60 -33 -78 8 -8 27 -1 66 21 54 30 59 31 183 31 71 0
155 -5 188 -10 43 -7 68 -7 88 1 20 9 34 9 51 1 23 -10 25 -8 60 95 20 58 54
140 75 182 l39 76 -6 118 c-4 96 -2 117 9 117 8 0 3 6 -11 13 -23 11 -27 24
-48 152 -12 77 -40 239 -62 360 -61 347 -100 614 -160 1115 -11 96 -23 183
-26 193 -4 13 0 17 17 17 32 0 239 -50 269 -65 14 -7 45 -16 70 -19 25 -4 81
-16 125 -26 44 -10 123 -28 175 -40 99 -23 183 -56 410 -160 74 -34 180 -82
235 -105 55 -24 189 -84 298 -134 109 -50 200 -91 203 -91 2 0 43 -17 91 -39
49 -21 162 -71 253 -111 91 -41 215 -95 275 -122 127 -56 235 -88 300 -88 66
0 89 27 105 121 7 41 16 90 19 109 l7 34 32 -49 c17 -28 49 -71 69 -97 21 -26
54 -73 73 -105 19 -31 102 -129 183 -217 213 -231 285 -345 301 -479 5 -37 15
-67 30 -85 83 -98 371 -659 574 -1117 348 -787 486 -1164 516 -1411 l6 -51
-47 23 c-55 27 -161 56 -174 48 -12 -7 -11 -44 0 -44 5 0 11 6 14 13 3 9 9 9
23 1 15 -9 18 -21 16 -58 -4 -51 13 -63 23 -17 6 30 30 43 65 34 15 -4 20 -14
20 -40 0 -32 3 -36 61 -62 36 -16 57 -31 51 -35 -19 -12 17 -58 42 -54 34 5
31 40 -12 146 -42 103 -79 251 -112 445 -27 158 -72 267 -667 1622 -141 319
-266 609 -280 644 -13 35 -37 82 -52 105 -16 22 -51 88 -79 146 -35 73 -69
126 -113 174 -96 108 -138 164 -175 236 -19 36 -59 101 -89 144 -30 44 -55 83
-55 88 0 16 39 8 157 -32 184 -63 323 -121 383 -161 30 -20 98 -53 150 -73 52
-21 121 -48 153 -61 38 -16 101 -30 185 -39 82 -10 148 -24 187 -40 66 -26
241 -51 435 -61 63 -3 147 -12 185 -21 39 -9 97 -18 130 -20 62 -5 121 -18
142 -32 14 -9 141 -280 197 -419 20 -50 36 -104 36 -120 0 -16 34 -114 75
-218 97 -243 155 -415 155 -460 0 -29 5 -37 26 -45 15 -6 38 -19 52 -30 30
-24 68 -26 80 -3 9 16 11 16 36 0 33 -22 36 -21 36 4 0 12 -8 23 -20 26 -15 4
-20 14 -20 38 0 46 -38 75 -97 75 -44 0 -44 1 -68 53 -33 76 -112 313 -145
440 -16 60 -44 139 -64 176 -43 83 -97 213 -147 353 l-38 107 42 6 c23 3 206
10 407 16 201 5 406 13 455 18 137 12 452 67 531 92 18 5 72 11 120 13 107 4
158 17 204 51 19 14 40 25 46 25 7 0 48 15 91 34 90 40 237 80 333 90 34 4
213 64 350 118 36 14 87 28 114 32 l48 6 -7 -103 c-3 -56 -15 -165 -26 -242
-20 -141 -133 -831 -169 -1025 -10 -58 -22 -130 -25 -160 -4 -30 -15 -95 -26
-145 -11 -49 -24 -139 -29 -200 -11 -125 -16 -152 -71 -433 -33 -164 -38 -209
-30 -235 25 -79 74 -523 69 -622 l-3 -60 31 -3 c24 -2 41 -17 84 -72 52 -67
74 -83 82 -59 2 7 23 -1 53 -20 27 -17 59 -31 72 -31 25 0 42 -16 76 -70 15
-23 32 -36 49 -38 32 -4 43 -17 53 -59 5 -26 3 -33 -9 -33 -9 0 -16 -4 -16
-10 0 -5 14 -10 31 -10 27 0 30 -2 19 -15 -7 -8 -19 -15 -26 -15 -8 0 -14 -7
-14 -16 0 -13 6 -15 27 -9 66 16 69 50 13 145 -47 81 -124 153 -200 187 -30
13 -75 33 -100 44 -44 20 -141 103 -160 138 -10 21 -35 241 -50 456 -9 124 -8
172 5 270 20 156 78 496 165 980 39 215 99 566 135 780 36 215 74 431 84 480
11 50 25 128 32 175 6 47 16 93 20 102 13 25 95 58 169 68 36 5 137 25 225 44
88 19 210 42 270 51 202 30 385 75 472 116 45 21 84 43 88 49 8 12 17 13 -101
-5 -260 -38 -603 -65 -854 -67 l-255 -3 -5 90 c-8 143 -65 219 -147 196 -21
-6 -58 -11 -83 -11 -161 0 -567 -75 -1837 -340 -477 -100 -638 -130 -695 -130
-98 1 -359 27 -368 37 -4 4 -19 44 -35 88 -50 146 -225 549 -672 1550 -53 118
-93 220 -97 250 -7 58 -42 100 -95 115 -49 14 -51 13 -51 -13 0 -13 -11 -60
-24 -105 -42 -138 -150 -628 -290 -1311 -36 -172 -69 -318 -73 -322 -10 -10
-475 94 -743 166 -91 24 -232 58 -315 75 -82 17 -166 38 -185 47 -19 9 -52 15
-73 15 -34 -2 -580 72 -617 83 -8 3 -51 9 -95 14 -187 22 -375 51 -440 66 -39
9 -142 27 -230 41 -88 13 -194 31 -235 39 -41 8 -112 21 -157 29 -45 8 -107
27 -136 41 -30 14 -65 25 -78 25 -13 0 -109 20 -213 45 -105 25 -198 45 -208
45 -10 0 -44 9 -76 21 -43 15 -89 21 -185 25 -70 2 -155 11 -188 19 -32 9
-112 22 -176 31 -65 8 -184 26 -265 40 -249 41 -421 57 -484 44 -53 -11 -56
-11 -91 16 -32 24 -51 29 -140 38 -99 9 -146 6 -245 -19 -24 -6 -50 8 -185 98
-306 204 -654 371 -1048 501 -138 45 -195 58 -301 71 -76 8 -171 27 -226 44
-52 16 -175 50 -274 76 -218 57 -402 109 -469 134 -27 10 -77 24 -110 31 -33
6 -125 27 -205 45 -249 59 -410 84 -410 66z m9515 -991 c287 -647 521 -1196
531 -1248 l6 -31 -38 5 c-22 3 -133 21 -249 39 -115 19 -286 41 -380 51 -144
14 -182 21 -250 49 -44 17 -104 40 -133 49 -29 10 -56 24 -58 30 -3 7 14 93
36 192 69 304 98 442 155 761 58 319 109 567 127 612 10 25 13 21 55 -69 25
-52 114 -250 198 -440z m-7360 434 c68 -22 284 -114 430 -183 109 -52 405
-217 405 -226 0 -2 -62 25 -137 62 -395 189 -610 282 -868 374 -66 23 -124 45
-128 49 -9 8 214 -50 298 -76z m4536 -1374 c106 -22 213 -40 238 -40 63 0 133
-19 282 -73 69 -25 199 -69 289 -96 90 -28 173 -57 186 -66 23 -15 35 -58 49
-173 l7 -52 -109 54 c-59 30 -216 94 -348 141 -209 76 -435 166 -666 266 -87
37 -158 79 -137 79 10 0 104 -18 209 -40z m6348 -100 c81 -11 141 -31 141 -49
0 -26 -39 -34 -201 -42 -141 -7 -194 -15 -307 -43 -75 -18 -157 -37 -182 -41
-25 -4 -82 -18 -127 -31 -121 -37 -274 -64 -356 -64 -40 0 -130 -7 -202 -16
-91 -11 -197 -15 -350 -14 -121 2 -261 3 -312 4 -51 0 -91 1 -90 3 1 1 137 27
302 57 312 58 437 84 567 117 42 11 114 24 160 30 45 6 90 16 98 23 8 8 49 16
90 19 82 6 333 34 420 46 81 12 254 12 349 1z m-8831 -281 c-2 -6 -8 -10 -13
-10 -5 0 -11 4 -13 10 -2 6 4 11 13 11 9 0 15 -5 13 -11z m-28 -68 c0 -33 -12
-52 -37 -62 -20 -7 -22 -12 -14 -28 14 -26 -5 -81 -28 -81 -29 0 -41 -20 -26
-44 16 -26 5 -60 -24 -76 -21 -11 -29 -40 -11 -40 16 0 12 -53 -6 -78 -8 -12
-24 -22 -35 -22 -23 0 -24 -6 -5 -26 18 -18 11 -46 -20 -75 -13 -12 -24 -31
-24 -41 0 -29 -19 -58 -37 -58 -11 0 -14 -6 -10 -21 7 -28 -63 -124 -149 -202
-36 -33 -71 -72 -80 -88 -13 -26 -20 -29 -61 -29 -68 0 -260 -35 -408 -75
-518 -139 -726 -185 -892 -200 l-83 -7 0 25 c0 40 50 70 200 120 160 53 298
108 435 172 104 48 412 155 449 155 32 0 207 63 257 92 74 43 183 152 248 247
33 49 77 104 97 123 20 18 51 66 71 108 19 41 45 86 58 100 13 14 33 46 44 71
20 48 30 57 69 58 15 1 22 -5 22 -18z m-2151 -1247 c18 -17 -86 -38 -110 -23
-17 10 -13 13 31 26 31 10 67 8 79 -3z m111 2 c0 -3 -4 -8 -10 -11 -5 -3 -10
-1 -10 4 0 6 5 11 10 11 6 0 10 -2 10 -4z m-1510 -126 c13 -8 13 -11 0 -24 -8
-8 -33 -17 -55 -21 l-40 -6 33 30 c35 34 40 35 62 21z"/>
</g>
</svg>
