<?xml version="1.0" encoding="UTF-8" standalone="no"?>
<!-- Created with Inkscape (http://www.inkscape.org/) -->

<svg
   xmlns:svg="http://www.w3.org/2000/svg"
   xmlns="http://www.w3.org/2000/svg"
   version="1.2"
   width="100%"
   height="100%"
   viewBox="0 0 1049.8 1087.8"
   id="Layer_1"
   xml:space="preserve"><defs
   id="defs7" />
<path
   d="m 0,793.2 c 5,-6.9 10.3,-13.6 14.8,-20.8 1.2,-1.9 0.3,-5.3 -0.1,-7.9 -1.4,-9.3 -4.3,-18.5 -4.3,-27.8 0,-14.9 6.8,-27.6 16.8,-38.5 4,-4.3 8,-8.6 12.1,-13 -1.6,-9.1 -5.8,-18.6 -3,-28.2 2.2,-7.7 6,-15.3 10.6,-21.9 7.4,-10.7 14.5,-21.3 20.2,-33.1 4.6,-9.5 10.7,-18.1 16.1,-27.2 9.5,-15.9 23.5,-28 34.9,-42.2 8.6,-10.7 17.8,-21 26.8,-31.4 8.9,-10.4 17.7,-20.9 26.8,-31.1 9.2,-10.3 20.1,-18.8 32,-25.9 7.3,-4.4 14.5,-9.3 22.3,-12.4 9.8,-3.9 20.2,-6.4 30.4,-9.2 1.6,-0.4 3.5,0.5 5.3,0.6 5.4,0.3 10.9,0.7 16.3,0.7 4,0 8.1,-0.6 12.1,-0.9 7.5,-0.5 15.1,-0.5 21.6,-5.2 5.2,-3.8 10.5,-7.5 15.7,-11.3 4.8,-3.5 9.3,-7.4 14.2,-10.8 11.2,-7.8 22.3,-15.9 34,-23 9.4,-5.7 19.2,-11.4 29.5,-14.8 14.9,-4.9 27.7,-13.5 40.9,-21.3 5.5,-3.2 10.8,-6.6 16.3,-9.9 10.6,-6.2 21.2,-12.2 31.7,-18.5 18.6,-11.1 37.2,-22.3 55.7,-33.5 6.4,-3.8 12.5,-10.4 19.2,-11 10.4,-0.9 16.3,-7.8 23.9,-12.4 10.3,-6.2 20.2,-13.1 30.5,-19.3 3.8,-2.3 8.6,-1.6 12.7,-4.5 9.3,-6.7 19.6,-12.1 29.1,-18.6 6.3,-4.3 11.2,-11.5 18,-14.2 12.4,-4.9 14.6,-16.1 19.6,-25.7 0.1,-0.3 0.2,-0.6 0.3,-0.9 0.7,-5.5 8.9,-5.7 8.6,-12.3 -0.3,-5.4 1,-10.4 4.2,-15.1 4.4,-6.6 7.9,-13.9 12.6,-20.4 7.1,-9.8 14.7,-19.4 22.6,-28.6 7.4,-8.6 15.2,-17 23.3,-24.9 6.8,-6.6 14.1,-12.8 21.7,-18.5 15.5,-11.4 32.7,-19.8 50.7,-26.2 12.2,-4.3 24.4,-8.6 36.9,-12 11.5,-3.1 23.3,-4.8 34.9,-7.1 5.4,-1.1 10.9,-2.8 16.4,-3 8.2,-0.4 16.4,0 24.6,0.5 4.1,0.3 8.2,1.6 12.3,2.5 0.8,0.2 1.8,0.3 2.3,0.8 2.9,3.2 5.6,4.3 10.2,2.5 3.7,-1.4 8.1,-0.7 12.2,-0.7 8.5,0.1 17.3,-1.1 25,3.6 5.7,3.5 10.3,8.1 11.2,15.2 0.3,2.8 0.4,5.7 0.6,9 1.3,0.3 3.2,0.7 5,1.1 0.2,0.5 0.3,0.9 0.5,1.4 -2.5,1.3 -5.1,2.7 -7.8,4.2 4.4,1 8.4,1.9 12.5,2.8 0,0.3 -0.1,0.6 -0.1,0.9 -1.7,0 -3.3,0 -5,0 -0.1,0.4 -0.1,0.8 -0.2,1.1 3,0.8 5.9,1.6 8.8,2.6 0.5,0.2 1.1,1.5 0.9,2.1 -0.2,0.8 -1,1.7 -1.8,2.1 -0.8,0.4 -1.9,0.1 -3.3,0.1 0.3,1.2 0.6,2.2 0.8,3.3 -2.2,-0.3 -4.2,-0.6 -6.3,-0.9 -0.1,0.3 -0.1,0.5 -0.2,0.8 4.1,1.5 8.3,2.9 12.4,4.4 -0.2,0.5 -0.3,1 -0.5,1.5 -2.6,-0.6 -5.2,-1.2 -7.7,-1.8 -0.2,0.3 -0.4,0.6 -0.5,0.8 2,1.3 4,2.6 6,4 -2.4,-0.2 -4.9,-0.5 -8.2,-0.8 2.3,1.8 4.1,3.2 5.9,4.6 -2.5,1.7 -5.3,-3.8 -8.2,1.3 -3,-1.2 -6.6,-2.7 -10.3,-4 -2.3,-0.8 -4.4,-0.8 -5.2,2.4 -2.7,11 -8.2,20.7 -15.4,29.2 -5.3,6.3 -13.3,6.8 -21.1,6.5 -2.2,-0.1 -4.5,-1.2 -6.6,-0.9 -1.7,0.3 -4.2,1.6 -4.7,3 -3,8.7 -10.1,13.4 -17.1,18.2 -7,4.9 -14.2,9.6 -21.5,14 -12.7,7.6 -25.7,14.6 -38.3,22.3 -13.8,8.4 -27.1,17.4 -40.8,25.9 -7.1,4.4 -14.5,8.3 -21.7,12.4 -6.5,3.6 -13.1,7.2 -19.6,10.9 -10.8,6 -21.3,12.7 -32.6,17.8 -9.4,4.2 -19.6,7 -28.6,-2 -0.6,-0.6 -2.3,-0.2 -3.5,-0.1 -7.3,0.4 -14.5,0.9 -21.8,1.2 -2.3,0.1 -4.6,-0.6 -6.8,-0.3 -1.9,0.3 -3.9,1.1 -5.4,2.2 -4.8,3.6 -10.4,4.1 -16,4.9 -7.5,1.1 -14.7,2.3 -21.5,6.5 -5.5,3.4 -12.5,4.3 -18.8,6.6 -4.1,1.5 -8.1,3.1 -12,5.1 -1.8,0.9 -2.8,3.1 -4.5,4.4 -3.4,2.8 -6.8,5.7 -10.6,7.9 -14,8.1 -28.2,16 -42.3,23.8 -2.7,1.5 -4.7,2.9 -3.2,6.5 0.3,0.8 -0.5,2.6 -1.3,3.2 -7.4,5.1 -14.9,10.1 -22.4,15 -8.5,5.6 -16.9,11.3 -25.6,16.7 -7.8,4.9 -15.9,9.3 -23.7,14.2 -12.1,7.6 -24.1,15.5 -36.1,23.4 -7.8,5.2 -15.5,10.6 -23.1,16 -2.5,1.8 -5.3,3.6 -6.8,6.1 -5.6,9.9 -15.5,14.8 -24.2,20.7 -12.1,8 -22.9,17.5 -32.9,27.8 -8.6,8.9 -16.8,18.3 -25.1,27.4 -5.6,6.1 -6.7,13.9 -8.9,21.4 -2.7,9.3 -5.9,18.5 -8.6,27.8 -3.5,12.5 -10,23.6 -16.9,34.4 -6.1,9.5 -12.2,18.9 -18.6,28.2 -10.1,14.8 -20.4,29.4 -30.7,44.1 -6.8,9.7 -13.9,19.2 -20.8,28.8 -5.1,7.1 -9.7,14.5 -15.2,21.4 -8.3,10.4 -17.3,20.3 -25.7,30.7 -7.9,9.7 -16,19.2 -26.2,26.5 -3.8,2.7 -8.6,3.8 -12.8,5.9 -1.2,0.6 -2.6,2 -3,3.2 -3.1,11 -10,19.1 -19.8,24.7 -2.4,1.4 -2.9,3 -2.1,5.2 4.3,12.5 -0.4,23.3 -6.3,33.9 -0.8,1.5 -2.7,2.3 -3.6,3.8 -0.7,1.2 -1.5,3.4 -1,4.2 5.3,7.2 4.7,15.5 2.1,22.7 -2.9,8.1 -2.4,15.1 0,23.1 2.2,7.2 1.7,15.3 3.6,22.7 2.5,9.9 6.2,19.5 9.1,29.3 4,13.4 8.5,26.8 7.9,41 5.5,2.5 11,5.3 16.7,7.5 6.3,2.4 9.6,7.4 12.7,12.8 0.7,1.3 2.3,2.8 3.6,2.9 8.3,0.7 15.1,4.9 20.2,10.7 3.7,4.2 8.3,4.6 12.5,5.2 6.9,1 11.5,5 14.3,10.2 3,5.4 7.9,5.6 12.4,7 4.7,1.4 9.7,1.9 14.6,2.4 4.5,0.5 9.1,0.7 13.6,0.7 8.8,0.1 17.6,0.2 26.3,0.1 7.8,-0.1 15.5,-0.4 23.3,-0.5 9.6,-0.1 19.2,0 28.7,-0.1 3.1,0 6.1,-0.4 9.2,-0.5 0.7,0 1.7,0.2 2,0.7 3.7,4.8 8.7,2 13,2 6.5,0 13,-1.3 19.5,-1.3 6.9,0 13.9,0.6 20.7,1.5 4.9,0.7 9.6,2.7 14.5,3.6 3.2,0.6 6.7,-0.3 9.7,0.6 4.4,1.3 8.8,3.3 12.8,5.5 3.1,1.7 5.7,4.3 8.9,6.6 4.2,-2.1 11.1,-1 15.6,2.6 2.8,2.2 6.2,3.5 8.8,5.8 5.4,4.6 10.5,9.5 15.7,14.3 -2.3,1.9 -3.5,3.1 -0.7,6 3.3,3.3 5.6,7.6 7.8,11.8 1.2,2.3 1.3,5.1 2,8 -13.4,-2.4 -21.8,6.3 -30.2,14.5 -2.2,-4.2 -3.9,-7.7 -5.7,-11.1 -1.1,-2.2 -1.9,-4.4 -5.4,-4.3 -1.8,0.1 -3.8,-2.4 -5.4,-4 -8.3,-9.1 -18.1,-13.8 -30.9,-13.4 -8.9,0.3 -17.9,-1.5 -26.9,-2 -6.5,-0.4 -13,-0.1 -19.6,-0.1 -6.5,0 -13,0 -19.5,-0.1 -0.4,0 -1.1,-0.6 -1.2,-0.5 -6.9,7 -16.1,3.8 -24.1,4.7 -17,1.8 -34.2,2.3 -51.4,2.6 -9.8,0.2 -19.7,-0.9 -29.6,-1.4 -4.5,-0.2 -9.1,0.2 -13.6,-0.3 -13.8,-1.3 -27.5,-3 -41.4,-4.5 -3.6,4.1 -8.9,4.2 -14,3.8 -5.9,-0.4 -11.3,-2.1 -15.6,-6.7 -0.9,-1 -3.3,-0.9 -4.9,-0.8 -2.2,0.2 -4.3,1.2 -6.5,1.6 -11.3,1.9 -19.4,-2.7 -25.7,-12 -2.4,-3.6 -6.7,-1.8 -10.4,-1.3 -9.4,1.3 -19.2,2.3 -27.8,-2 -4.2,-2.1 -6.9,-7.4 -9.8,-11.6 -1.5,-2.2 -1.4,-5.3 -2.7,-7.7 -0.8,-1.4 -3,-2.9 -4.6,-2.9 -5.9,-0.1 -8.2,-2.2 -8.3,-8 0,-1.1 -0.9,-2.7 -1.9,-3.3 -8.4,-5.4 -13.7,-13.5 -18.9,-21.6 -4.7,-7.4 -9,-15 -13.3,-22.7 -4.6,-8 -8.8,-16.3 -13.5,-24.2 -3.8,-6.3 -8.5,-12.1 -12.1,-18.6 -1.8,-3.2 -3.5,-7.5 -3,-11 1.5,-9.7 -2.9,-17.2 -7.5,-24.7 -4.3,-7.1 -9.5,-13.6 -14.4,-20.4 -2.5,-3.5 -3.8,-7.1 -2.1,-11.3 3.3,-8.1 6.7,-16.1 9.9,-24.2 0.5,-1.2 0.5,-3.1 -0.1,-4.1 -4,-7.5 -9,-15.3 -14,-23.2 0,-1 0,-2 0,-3 z"
   id="path3" />
</svg>