<?xml version="1.0" standalone="no"?>
<!DOCTYPE svg PUBLIC "-//W3C//DTD SVG 20010904//EN"
 "http://www.w3.org/TR/2001/REC-SVG-20010904/DTD/svg10.dtd">
<svg version="1.0" xmlns="http://www.w3.org/2000/svg"
 width="966.000000pt" height="1109.000000pt" viewBox="0 0 966.000000 1109.000000"
 preserveAspectRatio="xMidYMid meet">
<metadata>
Created by potrace 1.16, written by Peter Selinger 2001-2019
</metadata>
<g transform="translate(0.000000,1109.000000) scale(0.100000,-0.100000)"
fill="#000000" stroke="none">
<path d="M4794 11079 c-28 -10 -106 -136 -155 -249 -76 -175 -107 -357 -89
-508 18 -142 88 -413 166 -639 l73 -211 -84 -329 c-180 -704 -186 -743 -192
-1198 -4 -330 -3 -362 21 -561 26 -209 31 -328 18 -413 -7 -43 -8 -44 -101
-92 -52 -27 -96 -49 -97 -49 -5 0 -324 480 -410 615 -48 77 -104 181 -124 230
-50 124 -77 174 -153 288 -104 154 -183 374 -223 612 -21 130 -21 401 0 548
33 227 107 504 176 657 45 101 90 240 90 279 0 53 -69 82 -102 44 -8 -10 -43
-94 -77 -188 -41 -112 -92 -227 -151 -336 -186 -347 -282 -660 -282 -914 0
-220 63 -374 303 -737 79 -120 173 -270 208 -333 35 -63 103 -174 150 -247 48
-73 114 -189 148 -258 65 -133 143 -243 214 -302 24 -20 51 -49 61 -64 16 -28
15 -30 -8 -57 -14 -16 -29 -25 -36 -21 -6 4 -62 45 -125 90 -699 510 -1428
714 -2076 579 -178 -37 -326 -90 -507 -184 -471 -243 -507 -256 -684 -249 -86
3 -110 8 -158 31 -135 66 -218 233 -157 318 11 16 22 41 23 56 2 16 17 39 39
58 34 30 41 42 38 77 -2 25 -29 48 -57 48 -30 0 -107 -68 -139 -124 -12 -23
-36 -84 -51 -136 -51 -173 -31 -306 63 -410 150 -167 366 -203 653 -109 36 12
142 54 235 94 375 160 586 202 979 192 343 -8 614 -61 1031 -202 200 -67 402
-143 382 -145 -4 0 -51 7 -105 16 -137 24 -431 24 -582 0 -280 -43 -536 -128
-780 -257 -285 -153 -688 -462 -1031 -795 -241 -233 -374 -345 -473 -394 -72
-37 -85 -40 -160 -40 -91 0 -143 19 -188 66 -49 53 -61 97 -66 244 -4 147 -9
160 -63 160 -31 0 -96 -65 -128 -129 -59 -115 -66 -306 -16 -476 45 -155 106
-230 212 -261 50 -15 68 -15 128 -5 141 23 249 92 475 302 74 69 252 231 395
360 695 625 658 595 890 709 296 146 578 230 910 271 151 19 523 16 680 -5 72
-10 133 -21 137 -25 4 -3 -39 -26 -95 -50 -222 -95 -485 -254 -702 -427 -148
-118 -487 -459 -615 -619 -151 -189 -206 -279 -361 -585 -76 -151 -168 -322
-204 -380 -292 -463 -590 -686 -908 -679 -67 1 -82 -1 -94 -17 -18 -25 -16
-61 6 -83 41 -41 266 -60 381 -32 139 34 260 111 390 248 115 121 190 228 390
563 298 496 356 565 634 753 225 151 314 237 495 481 145 194 213 268 312 338
67 48 203 120 304 160 l60 25 30 -33 c17 -18 29 -38 26 -46 -2 -7 7 -4 20 8
46 41 53 38 25 -12 -88 -153 -209 -284 -506 -549 -343 -306 -456 -434 -546
-620 -70 -142 -85 -208 -91 -375 -4 -132 -2 -154 21 -245 29 -110 79 -223 130
-295 l33 -46 -39 -54 c-85 -117 -144 -262 -184 -453 -20 -97 -27 -162 -31
-317 -17 -589 131 -946 576 -1391 157 -156 247 -235 467 -406 314 -245 482
-330 675 -340 135 -8 224 22 338 114 29 24 33 25 26 8 -17 -41 -18 -181 0
-242 43 -149 158 -296 312 -397 197 -129 585 -290 823 -342 128 -28 405 -26
515 4 161 44 317 138 407 243 141 166 189 354 192 748 l1 233 33 -103 c18 -57
44 -147 58 -198 29 -110 66 -168 137 -217 185 -128 414 -104 637 65 127 96
375 369 487 536 151 225 213 471 169 669 -50 222 -220 423 -449 532 -122 57
-183 69 -352 68 -132 0 -161 -4 -240 -27 -111 -34 -270 -111 -350 -172 -138
-103 -261 -244 -316 -360 -34 -71 -35 -84 -9 -160 11 -32 20 -60 20 -63 0 -2
-27 21 -61 52 -193 179 -504 305 -836 338 -208 20 -393 -10 -558 -91 -91 -45
-186 -125 -205 -172 l-14 -32 -13 69 c-28 137 -93 245 -293 489 -59 72 -129
162 -155 200 -60 90 -146 267 -230 475 -156 385 -264 564 -409 680 l-54 44 44
28 c131 83 249 269 297 468 27 109 36 185 52 435 24 363 47 479 127 639 42 84
143 252 157 260 4 3 2 -29 -6 -72 -7 -42 -25 -180 -40 -307 -23 -192 -27 -274
-27 -495 -1 -284 4 -330 55 -530 43 -167 123 -359 281 -672 156 -311 219 -412
316 -510 148 -151 375 -218 686 -204 269 13 351 48 529 230 184 188 245 277
253 370 6 58 -1 72 -37 81 -34 8 -79 -27 -79 -63 0 -100 -273 -366 -418 -409
-115 -33 -330 -15 -509 43 -146 47 -253 105 -307 165 -169 186 -294 480 -420
984 -86 345 -124 607 -133 920 -6 209 8 479 26 497 3 4 31 -29 60 -73 93 -141
239 -272 441 -394 52 -32 210 -117 350 -190 356 -184 501 -273 629 -386 46
-41 180 -211 290 -369 80 -114 151 -177 262 -235 113 -59 218 -92 469 -150
296 -68 511 -156 698 -289 104 -74 117 -79 145 -64 57 29 51 68 -19 121 -31
23 -75 57 -98 76 -51 42 -296 161 -481 234 -77 30 -220 78 -319 107 -316 91
-392 127 -512 246 -45 44 -104 114 -130 154 -26 41 -75 106 -109 145 -33 38
-95 113 -138 167 -84 104 -179 198 -252 248 -63 43 -152 83 -334 147 -281 100
-382 157 -514 290 -129 131 -223 283 -271 441 l-7 22 159 0 c238 0 337 -13
489 -64 143 -48 192 -75 271 -150 74 -70 126 -139 223 -297 192 -315 267 -399
424 -474 99 -48 219 -85 276 -85 21 0 91 12 156 26 202 44 247 38 362 -50 104
-78 193 -198 482 -648 175 -272 329 -428 500 -507 87 -41 157 -58 298 -72 199
-20 319 17 422 130 127 140 156 191 166 284 6 65 -26 202 -63 265 -58 99 -173
176 -282 189 -62 7 -82 -6 -82 -53 0 -30 8 -39 75 -89 41 -30 88 -73 104 -96
36 -48 55 -134 46 -198 -8 -61 -59 -165 -93 -190 -15 -11 -36 -29 -47 -40 -44
-44 -115 -66 -210 -66 -85 0 -96 3 -165 37 -148 73 -238 165 -413 422 -159
233 -213 302 -337 430 -292 301 -587 496 -751 496 -22 0 -65 -9 -97 -21 -109
-40 -136 -44 -186 -25 -68 26 -124 97 -266 332 -150 250 -213 336 -311 429
-117 111 -454 322 -518 326 -9 0 46 13 122 29 488 101 966 299 1404 582 l92
60 103 -7 c57 -3 218 -15 358 -27 505 -40 748 -14 1016 111 79 37 81 40 128
117 43 72 47 84 43 130 -4 65 -29 99 -121 169 -119 89 -190 108 -222 60 -14
-21 -14 -30 -4 -54 6 -17 24 -35 38 -41 65 -26 112 -62 112 -84 0 -32 -53
-108 -112 -161 -60 -54 -104 -68 -278 -91 -136 -18 -227 -16 -510 10 -91 9
-209 19 -263 23 l-99 8 259 255 c162 160 299 287 368 339 139 104 315 193 440
221 50 12 113 28 140 37 73 24 261 29 355 9 233 -49 418 -224 452 -427 8 -53
7 -80 -5 -140 -13 -65 -13 -77 0 -97 11 -19 22 -23 51 -20 31 3 40 9 55 40 26
54 33 187 13 270 -27 115 -78 202 -175 299 -129 129 -259 187 -468 209 -223
23 -532 -44 -787 -172 -215 -108 -339 -204 -625 -482 -119 -116 -262 -246
-317 -287 l-101 -76 -79 -7 c-272 -23 -518 -55 -829 -107 -282 -46 -348 -64
-780 -201 -104 -33 -197 -62 -206 -65 -12 -3 -18 3 -21 22 -5 22 2 34 34 63
50 45 149 168 205 254 57 88 145 265 228 458 272 631 556 1048 988 1449 335
311 529 442 727 492 70 18 99 20 170 14 47 -4 100 -8 119 -9 40 -4 60 -32 61
-88 0 -44 28 -78 63 -78 30 0 41 9 66 50 56 93 2 209 -128 275 -107 53 -185
75 -272 75 -100 0 -180 -25 -342 -106 -70 -35 -138 -64 -152 -64 -13 0 -51
-16 -85 -36 -171 -100 -366 -280 -651 -599 -507 -569 -666 -818 -879 -1375
-132 -345 -210 -494 -341 -648 l-62 -74 -30 30 -30 30 42 112 c86 230 146 483
170 720 29 286 35 402 35 600 -2 373 -52 688 -166 1039 l-40 123 26 167 c30
191 51 373 65 551 9 113 8 127 -8 150 -9 14 -20 33 -24 43 -8 21 -44 36 -70
29 -31 -8 -44 -43 -56 -152 -13 -109 -44 -308 -63 -395 l-11 -50 -63 195 c-58
178 -64 205 -70 310 -7 129 6 281 38 435 11 55 21 114 22 130 2 32 32 95 77
162 33 48 36 74 12 95 -26 22 -45 26 -69 17z m160 -2244 c73 -359 101 -636 93
-921 -5 -208 -27 -352 -93 -604 -37 -144 -120 -399 -134 -414 -10 -10 -15 23
-35 229 -34 355 -40 465 -40 820 l1 370 46 190 c45 180 117 494 119 512 1 17
9 -16 43 -182z m-277 -1897 c-3 -8 -6 -5 -6 6 -1 11 2 17 5 13 3 -3 4 -12 1
-19z m1980 -174 c-62 -33 -265 -116 -402 -163 -181 -63 -395 -116 -567 -141
-159 -24 -411 -37 -388 -21 8 6 26 11 39 11 44 0 317 60 458 100 76 21 253 75
393 118 268 84 367 108 460 110 l35 1 -28 -15z m-2637 -637 c0 -2 -9 -12 -20
-22 -17 -16 -20 -16 -20 -2 0 8 8 18 18 20 9 3 18 5 20 6 1 0 2 -1 2 -2z"/>
<path d="M8342 2891 c-98 -34 -169 -131 -159 -216 5 -52 40 -95 229 -283 l123
-122 75 -16 c163 -34 290 11 341 121 34 74 17 173 -46 257 -75 102 -276 235
-396 263 -85 19 -102 19 -167 -4z"/>
</g>
</svg>
