<?xml version="1.0" standalone="no"?>
<!DOCTYPE svg PUBLIC "-//W3C//DTD SVG 20010904//EN"
 "http://www.w3.org/TR/2001/REC-SVG-20010904/DTD/svg10.dtd">
<svg version="1.0" xmlns="http://www.w3.org/2000/svg"
 width="1536.000000pt" height="1404.000000pt" viewBox="0 0 1536.000000 1404.000000"
 preserveAspectRatio="xMidYMid meet">
<metadata>
Created by potrace 1.16, written by Peter Selinger 2001-2019
</metadata>
<g transform="translate(0.000000,1404.000000) scale(0.100000,-0.100000)"
fill="#000000" stroke="none">
<path d="M15266 13999 c-20 -24 -73 -96 -117 -161 -44 -64 -87 -122 -95 -129
-27 -22 -153 40 -213 105 -32 35 -39 33 -46 -11 -18 -109 -48 -233 -76 -303
-34 -89 -103 -200 -124 -200 -8 0 -35 18 -60 40 -25 22 -50 40 -54 40 -21 0
-42 -36 -76 -135 -20 -60 -61 -161 -91 -222 -51 -107 -56 -113 -84 -113 -43 0
-90 22 -155 71 -43 32 -59 39 -65 29 -4 -7 -20 -58 -35 -114 -52 -194 -99
-286 -176 -347 l-40 -32 -22 20 c-12 11 -50 39 -85 62 -42 28 -62 48 -58 57 9
23 -20 16 -54 -12 -39 -34 -69 -92 -126 -251 -55 -152 -93 -228 -146 -288
l-40 -45 -31 24 c-18 13 -60 40 -94 60 -35 20 -68 46 -74 57 -11 21 -12 20
-46 -12 -46 -45 -68 -90 -115 -234 -21 -65 -52 -140 -69 -166 -34 -54 -112
-129 -132 -129 -8 0 -37 27 -66 60 -55 63 -132 116 -155 107 -7 -3 -17 -18
-20 -34 -26 -103 -137 -313 -211 -398 l-43 -49 -37 17 c-21 10 -59 36 -86 59
-36 30 -59 42 -92 45 l-44 5 -6 -57 c-14 -138 -132 -297 -272 -366 -84 -41
-195 -51 -276 -25 -43 14 -54 15 -64 4 -6 -7 -36 -42 -66 -77 -30 -35 -82 -86
-117 -113 -59 -48 -65 -50 -88 -37 -14 7 -33 27 -41 43 l-16 31 -55 -65 c-225
-262 -378 -344 -557 -299 l-44 11 -83 -77 c-102 -94 -184 -150 -251 -170 -65
-19 -97 -19 -148 2 -40 15 -42 15 -52 -3 -5 -10 -42 -51 -81 -90 -53 -53 -93
-81 -156 -112 -151 -74 -260 -89 -373 -51 -44 15 -63 17 -65 9 -11 -31 -73
-85 -156 -136 -50 -31 -105 -69 -122 -85 -26 -26 -50 -34 -176 -59 -350 -71
-655 -180 -1223 -437 -427 -194 -690 -299 -884 -354 -76 -21 -90 -29 -165 -97
-180 -162 -335 -258 -456 -282 -30 -6 -64 -13 -76 -15 -11 -3 -74 -55 -140
-116 -65 -61 -139 -124 -163 -141 -50 -35 -130 -68 -164 -68 -16 0 -100 -68
-273 -222 -710 -632 -948 -881 -1215 -1272 -49 -72 -58 -81 -102 -93 -27 -8
-51 -21 -54 -31 -3 -9 -34 -78 -68 -152 -34 -74 -71 -162 -81 -195 -40 -132
-194 -358 -589 -865 -380 -488 -448 -592 -462 -709 -5 -43 -10 -48 -60 -81
-105 -67 -263 -257 -384 -462 -43 -75 -71 -106 -184 -208 -358 -324 -629 -651
-751 -905 -53 -109 -69 -171 -89 -340 -19 -164 -24 -183 -85 -291 -55 -97 -60
-123 -30 -131 11 -3 20 -9 20 -13 0 -12 -240 -598 -320 -780 -156 -357 -346
-717 -537 -1022 -73 -114 -89 -134 -91 -113 -2 14 -8 25 -14 25 -20 0 -4 -179
21 -237 28 -63 66 -102 83 -85 18 18 36 15 84 -19 43 -29 77 -32 54 -4 -11 13
0 27 32 38 14 5 20 -3 29 -33 7 -22 16 -40 21 -40 11 0 98 93 204 220 88 105
284 366 489 650 231 320 446 565 650 739 102 88 132 106 530 336 341 197 454
267 630 386 325 220 563 452 699 682 25 43 46 81 46 86 0 4 37 46 83 92 46 46
130 143 187 214 301 375 458 496 696 535 32 6 163 14 291 19 133 6 271 17 325
27 87 16 95 19 143 65 99 93 312 142 825 189 355 32 513 60 667 117 64 24 69
28 50 38 -13 6 -22 20 -22 34 0 21 12 29 81 58 87 36 155 87 179 134 20 37 19
39 -10 39 -43 0 -41 27 2 68 39 35 79 99 70 108 -2 3 -31 -11 -63 -30 -69 -40
-133 -59 -163 -48 -18 6 -15 12 39 55 73 60 154 166 171 224 6 24 10 46 7 48
-2 3 -31 -22 -64 -54 -68 -65 -155 -117 -262 -155 -121 -43 -126 -36 -54 76
60 91 68 118 44 148 l-18 22 -37 -60 c-79 -128 -185 -202 -317 -221 -36 -5
-171 -7 -300 -4 -191 4 -249 2 -310 -11 -80 -17 -204 -71 -258 -113 -31 -23
-40 -25 -105 -21 -40 3 -87 12 -105 22 -40 20 -61 -12 183 273 99 115 277 324
395 463 414 489 650 739 960 1019 107 96 261 237 342 313 356 332 562 471 844
568 133 46 312 84 455 98 l97 9 43 46 c53 55 83 64 249 77 235 20 381 76 770
297 303 173 309 175 550 199 190 18 252 32 370 83 119 51 210 105 442 257 103
68 230 147 282 176 115 64 119 75 47 151 -85 92 -89 117 -31 203 52 77 52 83
-9 70 -73 -14 -127 16 -204 117 l-58 76 -52 -28 c-29 -16 -99 -53 -157 -84
-58 -31 -113 -62 -124 -70 -16 -12 -21 -11 -42 10 -14 14 -35 23 -54 23 -23 0
-33 6 -42 25 l-11 24 -52 -42 c-29 -23 -104 -85 -166 -138 -265 -225 -455
-326 -653 -348 -75 -9 -200 0 -243 16 -21 8 -16 14 60 80 271 236 572 412
1152 673 472 212 536 242 720 336 1017 515 2114 1399 2774 2233 221 280 640
887 826 1198 115 193 267 494 309 612 45 126 44 234 -2 291 l-18 23 -38 -44z"/>
</g>
</svg>
