<?xml version="1.0" standalone="no"?>
<!DOCTYPE svg PUBLIC "-//W3C//DTD SVG 20010904//EN"
 "http://www.w3.org/TR/2001/REC-SVG-20010904/DTD/svg10.dtd">
<svg version="1.0" xmlns="http://www.w3.org/2000/svg"
 width="1291.000000pt" height="1536.000000pt" viewBox="0 0 1291.000000 1536.000000"
 preserveAspectRatio="xMidYMid meet">
<metadata>
Created by potrace 1.16, written by Peter Selinger 2001-2019
</metadata>
<g transform="translate(0.000000,1536.000000) scale(0.100000,-0.100000)"
fill="#000000" stroke="none">
<path d="M1085 15350 c-180 -28 -309 -90 -528 -253 -257 -192 -428 -409 -506
-642 -67 -203 -67 -377 0 -418 41 -25 124 35 184 134 86 140 358 324 596 402
339 112 799 116 1264 12 384 -86 948 -305 1172 -455 181 -122 267 -208 799
-800 794 -883 1256 -1320 1736 -1641 377 -252 844 -677 1268 -1154 182 -205
532 -552 659 -654 222 -177 396 -281 814 -486 382 -187 499 -263 688 -443 208
-198 363 -415 649 -913 269 -467 387 -643 562 -839 151 -170 307 -295 683
-550 392 -266 575 -410 740 -581 196 -203 275 -361 275 -551 0 -146 -64 -478
-170 -883 -232 -883 -272 -1091 -272 -1420 -1 -252 19 -393 112 -790 137 -588
167 -879 180 -1770 5 -335 9 -617 10 -625 1 -15 224 421 363 710 233 483 255
727 162 1840 -59 698 -52 984 31 1450 35 195 126 556 224 888 110 376 125 456
124 662 0 311 -86 704 -211 970 -29 63 -53 92 -142 180 -155 152 -435 384
-786 650 -507 384 -891 753 -1096 1052 -78 113 -118 201 -129 280 -12 82 -31
134 -86 237 -141 260 -388 575 -538 685 -161 119 -439 284 -896 533 -383 209
-584 338 -820 526 -176 141 -306 261 -775 715 -653 633 -670 650 -1010 973
-661 627 -1365 1287 -1693 1586 -676 615 -868 745 -1452 976 -537 213 -1022
337 -1530 392 -174 19 -571 28 -655 15z"/>
</g>
</svg>
