<?xml version="1.0" encoding="UTF-8" standalone="no"?>
<!-- Created with Inkscape (http://www.inkscape.org/) -->

<svg
   xmlns:svg="http://www.w3.org/2000/svg"
   xmlns="http://www.w3.org/2000/svg"
   version="1.1"
   width="267.20544mm"
   height="146.83238mm"
   viewBox="0 0 946.79094 520.27222"
   id="svg2">
  <defs
     id="defs4" />
  <g
     transform="translate(158.88933,-366.87386)"
     id="layer1">
    <path
       d="m 224.06986,886.80934 c -1.83748,-0.53072 -6.73385,-1.35874 -10.88084,-1.84005 -4.147,-0.4813 -8.19686,-1.66659 -8.9997,-2.63395 -1.13885,-1.37223 -5.68412,-1.75884 -20.67805,-1.75884 l -19.21835,0 -4.93387,-4.45746 c -2.71363,-2.4516 -5.59542,-6.46195 -6.40397,-8.91189 -0.80856,-2.44994 -5.1705,-9.30346 -9.69322,-15.23004 -4.52271,-5.92658 -10.34779,-14.90519 -12.94461,-19.95245 -3.44229,-6.6905 -6.33832,-10.39221 -10.68902,-13.6627 -14.3865,-10.81452 -20.254293,-16.7494 -24.029463,-24.30417 -2.09717,-4.19683 -3.81305,-9.00718 -3.81305,-10.68968 0,-2.09944 -0.54558,-2.84972 -1.73916,-2.3917 -3.91412,1.50199 -3.92427,-28.57275 -0.01,-30.78502 2.36577,-1.33723 10.698473,-18.28173 9.74721,-19.82092 -0.40842,-0.66082 0.13479,-2.17098 1.207133,-3.35591 2.53767,-2.8041 7.34681,-13.68981 7.8143,-17.68806 2.26655,-19.385 2.07433,-22.90749 -1.87578,-34.375 -2.13135,-6.1875 -3.89083,-12.9375 -3.90996,-15 l -0.0348,-3.75 -5.286803,5.80319 c -5.22128,5.73082 -17.5159,13.57181 -21.28094,13.57181 -1.06669,0 -3.52947,1.32937 -5.47284,2.95417 -4.28282,3.58075 -12.18779,7.62089 -17.28341,8.83338 -2.0625,0.49076 -7.125,2.50231 -11.25,4.4701 -9.95055,4.74682 -21.67898,9.47184 -33.0149699,13.30069 -5.09572,1.72112 -11.84572,4.43757 -15,6.03654 -3.15427,1.59897 -9.3912801,4.45097 -13.8600301,6.3378 -17.92114,7.56677 -22.1447,9.65497 -29.97055,14.81796 -4.48495,2.95889 -10.59923,6.913 -13.58728,8.78693 -3.97219,2.49113 -5.27061,4.02749 -4.82945,5.71449 0.33186,1.26903 -0.16771,5.58459 -1.11015,9.59013 -1.04881,4.45769 -1.7211,14.6218 -1.73305,26.20177 -0.0237,23.04915 1.6561,29.73565 9.06368,36.07625 8.43625,7.22112 21.73821,13.4075 32.55175,15.13893 7.82861,1.2535 11.20971,2.5347 16.73911,6.34295 7.8985701,5.43995 12.87594014,10.84945 12.87594014,13.99382 0,4.20241 -2.70042004,5.15409 -14.62500014,5.15409 -11.91673,0 -12.81877,0.4338 -10.37949,4.99162 2.84179,5.30992 -2.43873,8.89474 -8.49151,5.76473 -1.99153,-1.02986 -4.84785,-1.55163 -6.3474,-1.15949 -1.49954,0.39214 -5.9451,-0.17801 -9.87903,-1.26699 -6.31044,-1.74685 -12.76429,-3.07685 -41.52757,-8.55792 -5.47248,-1.04283 -7.82909,-2.30916 -11.551807,-6.20741 -9.58468,-10.0366 -9.04297,-5.59815 -9.33484,-76.48385 l -0.26165,-63.54432 3.38665,-3.16253 c 1.86265,-1.73939 6.45798,-4.57438 10.211837,-6.29998 8.46733,-3.89232 13.79981,-7.75946 13.79981,-10.00771 0,-0.94253 0.5625,-1.36605 1.25,-0.94115 0.6875,0.4249 1.25,0.17685 1.25,-0.55123 0,-0.72807 -0.5625,-1.32377 -1.25,-1.32377 -3.45985,0 -0.50578,-2.65739 5.15367,-4.6361 4.52709,-1.58279 7.70171,-3.81629 10.83308,-7.62156 2.43616,-2.96047 6.16388,-6.12645 8.28382,-7.03551 3.29893,-1.41464 9.38115,-6.6379 27.02319,-23.20683 2.00086,-1.87916 4.38216,-6.5172 5.97312,-11.63385 2.22189,-7.14568 3.71793,-9.49986 9.33829,-14.69475 5.37384,-4.96705 8.1210601,-9.1282 13.9424901,-21.11836 l 7.24996,-14.93244 -3.47606,-9.7478 c -1.91182996,-5.36129 -3.92105,-10.25568 -4.46493,-10.87643 -0.57267,-0.6536 -3.64423,-0.0251 -7.2977601,1.49323 -6.68775,2.7793 -7.4557,2.45399 -4.42415,-1.87415 1.7298,-2.46964 1.67934,-2.756 -0.61382,-3.48381 -1.37419,-0.43615 -3.0907,-0.42703 -3.81448,0.0203 -0.72376,0.44731 -2.04365,0.20935 -2.93307,-0.52882 -1.16344,-0.96556 -3.6201,-0.8204 -8.75624,0.51739 -8.46429,2.20468 -8.63648,2.2184 -7.64211,0.6095 1.38922,-2.24781 -1.82053,-1.31586 -7.21234,2.0941 -3.77071,2.38471 -7.1733,3.41119 -11.86046,3.57799 -5.23649,0.18634 -6.30118,-0.0934 -5.23677,-1.37594 1.08208,-1.30382 0.15474,-1.2982 -4.87856,0.0295 -3.41802,0.90166 -6.93299,2.08338 -7.81102,2.62603 -0.87804,0.54266 -3.59993,1.12043 -6.04864,1.28396 -2.44871,0.16351 -6.13971,0.70921 -8.20221,1.21265 l -3.75,0.91535 2.38123,-2.68185 c 2.37969,-2.68001 2.37863,-2.68175 -1.63627,-2.68175 -2.48719,0 -3.70856,-0.49988 -3.20646,-1.3123 0.55642,-0.90031 -2.1674,-1.0424 -8.676227,-0.45259 -8.05723,0.73013 -9.48727,0.57143 -9.48727,-1.05286 0,-1.52953 -2.50167,-2.09163 -12.49085,-2.8066 -6.86996,-0.4917 -12.18051,-1.39612 -11.80122,-2.00984 0.37929,-0.6137 -0.74983,-1.11581 -2.50916,-1.11581 -1.75932,0 -3.19877,-0.5625 -3.19877,-1.25 0,-0.6875 -0.98437,-1.26994 -2.1875,-1.2943 -1.73561,-0.0351 -1.58903,-0.37635 0.70958,-1.65174 3.05477,-1.69495 2.25814,-3.21932 -2.58458,-4.94569 -2.36307,-0.8424 -3.02169,-3.35827 -0.87914,-3.35827 1.99459,0 -2.91413,-6.14791 -5.05836,-6.33533 -1.03125,-0.0901 -0.46875,-0.58453 1.25,-1.0987 l 3.125,-0.93481 -3.33156,-1.59295 c -3.10362,-1.48397 -5.81084,-6.28821 -3.54344,-6.28821 0.55877,0 0.72176,-1.125 0.36219,-2.5 -0.35957,-1.375 -1.23784,-2.5 -1.95171,-2.5 -0.71387,0 -0.25051,-1.15741 1.0297,-2.57203 1.28021,-1.41461 2.52905,-4.07594 2.77521,-5.91408 0.24616,-1.83813 1.04546,-3.71158 1.77623,-4.16321 0.73077,-0.45166 0.94216,-1.44656 0.46975,-2.21093 -0.4899,-0.79268 -0.0217,-1.38975 1.08986,-1.38975 1.12197,0 1.94877,-1.07145 1.94877,-2.5254 0,-2.5038 0.0401,-2.50525 4.6875,-0.16916 2.57813,1.29593 6.93471,3.08397 9.68129,3.97342 2.74658,0.88945 7.47099,2.93433 10.49867,4.54417 7.21762,3.83765 16.47932,3.82786 45.132537,-0.0476 17.8639,-2.41621 23.97541,-3.79509 33.3298,-7.51985 18.386,-7.32099 24.45612,-11.35794 30.49905,-20.28345 0.98788,-1.45913 4.16141,-5.76015 7.0522801,-9.55784 2.89089,-3.79769 5.62447,-8.51011 6.07463,-10.47205 2.71497004,-11.83256 10.47515,-30.21895 16.3614399,-38.76557 7.35447,-10.67838 19.55115,-20.68685 34.86506,-28.60995 7.46526,-3.86238 17.30785,-9.43843 21.8724,-12.39123 6.2874,-4.0673 10.76301,-5.86795 18.46311,-7.42819 5.59015,-1.13271 14.819923,-3.4758 20.510583,-5.20686 18.94814,-5.7639 31.15666,-6.73559 84.72165,-6.74306 41.73395,-0.006 52.66355,0.38406 70.625,2.5194 11.6875,1.38946 26.875,3.01257 33.75,3.60691 11.44703,0.98958 20.73736,3.05335 46.875,10.4129 13.96775,3.93289 50.67672,22.72545 64.44381,32.99096 2.10035,1.56614 6.50124,4.03408 9.77975,5.48432 3.27851,1.45025 11.12254,5.88391 17.43118,9.85261 29.78166,18.73529 51.34631,26.97411 70.22025,26.8278 11.48315,-0.089 14.9369,-1.4987 28.75,-11.73466 4.8125,-3.56623 11.84375,-8.02339 15.625,-9.9048 8.7587,-4.35803 15.51636,-8.64569 22.05295,-13.99238 7.34845,-6.01074 39.53471,-24.74279 42.64834,-24.82085 2.23911,-0.0561 23.877,-16.23965 31.73886,-23.73829 11.50602,-10.97442 14.01095,-8.67962 13.18562,12.07955 -0.32241,8.10933 -0.98665,16.2308 -1.47608,18.04773 -0.88822,3.29726 -0.85243,3.31559 18.9177,9.69134 10.89418,3.5133 21.88777,7.65172 24.43017,9.1965 5.57515,3.38746 16.23471,13.45505 20.74721,19.59502 3.31891,4.5159 19.3027,23.99258 22.75524,27.72788 1.03125,1.11571 5.25,6.09358 9.375,11.06193 4.125,4.96837 10.03125,11.98743 13.125,15.59793 9.59401,11.1965 15.594,19.36962 16.3574,22.28189 1.50615,5.74568 -2.60489,12.08882 -10.4199,16.07742 -2.57813,1.31583 -4.6875,3.07086 -4.6875,3.9001 0,0.82924 4.0477,5.5826 8.9949,10.56303 4.94719,4.98043 8.70364,9.3466 8.34765,9.70257 -0.35599,0.35599 -2.29431,-0.92685 -4.3074,-2.85075 -2.01309,-1.92389 -6.31163,-5.90779 -9.55231,-8.85309 l -5.89215,-5.35508 -3.72767,2.65433 -3.72766,2.65433 5.69991,8.15381 c 3.13497,4.4846 5.41665,8.43708 5.07044,8.7833 -0.34622,0.34622 -3.30587,-2.77711 -6.577,-6.94074 -6.24687,-7.95127 -6.85092,-8.31527 -10.53086,-6.34583 -2.21281,1.18426 -2.20846,1.58037 0.13284,12.0879 3.39926,15.25551 2.25545,17.43048 -1.3495,2.56609 -2.45537,-10.12422 -3.31549,-12.10019 -4.96314,-11.40176 -1.09618,0.46468 -3.27479,1.12244 -4.84136,1.46169 -1.90644,0.41285 -2.65284,1.28973 -2.25719,2.65175 1.07875,3.71358 3.2311,16.82803 3.19249,19.45201 -0.0614,4.17435 -2.0356,-0.22646 -3.04688,-6.79207 -1.56631,-10.16913 -3.20504,-15 -5.08829,-15 -1.03767,0 -1.86105,1.21495 -1.90606,2.8125 l -0.0793,2.8125 -1.13049,-2.8125 c -1.26791,-3.15438 -1.60008,-3.27479 -4.66551,-1.69121 -1.1938,0.6167 -6.21707,2.66217 -11.16284,4.54547 -11.16183,4.25034 -17.50063,3.82103 -26.64323,-1.80446 -4.10331,-2.5248 -7.31586,-3.68914 -8.84218,-3.2047 -1.82723,0.57994 -2.3973,0.15569 -2.3973,-1.78414 0,-1.86017 -0.55971,-2.33021 -2.08005,-1.74681 -1.39861,0.5367 -1.78396,0.31909 -1.17623,-0.66423 0.49711,-0.80433 0.39408,-1.46242 -0.22893,-1.46242 -0.62301,0 -1.75232,1.26562 -2.50959,2.8125 -1.25361,2.56079 -1.36485,2.58875 -1.24296,0.3125 0.3784,-7.0665 -1.70126,-9.42858 -3.57677,-4.0625 -0.85287,2.44012 -1.07089,2.16344 -1.64674,-2.08979 -0.36505,-2.69626 -1.45649,-5.16364 -2.42541,-5.48306 -1.10704,-0.36496 -1.5197,0.0632 -1.11049,1.15229 0.35817,0.95318 0.22562,2.85806 -0.29455,4.23306 -0.89644,2.36966 -1.01364,2.33707 -2.24778,-0.625 -0.71612,-1.71875 -1.33768,-2.42738 -1.38126,-1.57474 -0.1065,2.0829 -5.07924,-2.15445 -5.07924,-4.32806 0,-3.22601 -2.50482,-1.48515 -2.64788,1.8403 l -0.1479,3.4375 -0.7896,-3.62578 c -1.14742,-5.26876 -5.11242,-6.27978 -8.48662,-2.16398 l -2.697,3.28976 0.65659,-3.44469 c 0.36114,-1.89457 -0.041,-4.2852 -0.89355,-5.3125 -1.99609,-2.40514 -6.74522,-2.40124 -8.74404,0.007 -0.85586,1.03125 -2.31687,1.875 -3.2467,1.875 -1.0283,0 -2.75712,3.67055 -4.41301,9.36949 -2.19582,7.55712 -3.04815,9.09915 -4.40635,7.97194 -0.92613,-0.76902 -1.68391,-2.27083 -1.68391,-3.33774 0,-3.19369 -5.99216,3.22641 -6.90947,7.40293 -0.76863,3.49953 -3.09053,5.08034 -3.09053,2.10411 0,-0.8189 -0.82586,-0.39703 -1.83525,0.9375 -1.00938,1.33452 -1.86081,4.11391 -1.89206,6.17641 -0.0312,2.0625 -0.43925,5.15625 -0.90666,6.875 l -0.84986,3.125 -0.73006,-3.03232 c -0.40154,-1.66778 -1.27705,-3.19537 -1.94559,-3.39464 -1.86826,-0.55688 -8.1766,10.64928 -9.76932,17.35426 -0.93049,3.91718 -1.96568,5.77599 -2.99641,5.38046 -0.94723,-0.36349 -1.65262,0.50087 -1.77007,2.16897 -0.10737,1.52529 -0.28192,4.17952 -0.3878,5.89827 -0.30951,5.02412 -4.52901,16.74039 -6.62876,18.40609 -1.06154,0.8421 -2.82627,3.49205 -3.92162,5.88876 -1.73182,3.78937 -5.02343,7.79945 -19.95184,24.30676 -1.62816,1.80036 -4.92603,5.6588 -7.32857,8.5743 -3.53709,4.29225 -4.93082,5.15971 -7.32467,4.5589 -2.23169,-0.56012 -5.29505,0.85174 -12.49697,5.75966 -5.24734,3.57592 -12.15035,8.27442 -15.34005,10.44111 -3.18969,2.16668 -6.23373,4.61478 -6.76451,5.44022 -0.5308,0.82544 -1.93705,2.47262 -3.125,3.66042 -1.92779,1.92754 -2.22093,6.33382 -2.72757,40.9992 -1.14805,78.55474 -1.10669,79.69159 3.40155,93.50033 4.10645,12.57805 8.96413,21.4066 12.58262,22.86816 1.14591,0.46285 5.73972,1.30909 10.20847,1.88055 6.77595,0.86649 8.64386,1.6499 11.25,4.71829 1.71875,2.02361 5.375,4.82109 8.125,6.21662 6.70651,3.40333 10.93156,8.1061 10.41548,11.59314 -0.58483,3.95138 -4.16549,5.99656 -6.97798,3.98564 -4.29699,-3.07234 -5.419,-3.04829 -8.41117,0.18031 -3.75159,4.04804 -4.66838,4.06314 -8.89445,0.14654 -2.22665,-2.06359 -4.82019,-3.125 -7.63588,-3.125 -2.34517,0 -6.62241,-0.53649 -9.50497,-1.1922 -2.88257,-0.6557 -9.16742,-1.5581 -13.96633,-2.00531 -7.84684,-0.73125 -9.13665,-1.24928 -12.81109,-5.14532 -8.2101,-8.70525 -10.52399,-14.332 -11.61787,-28.25153 -0.55242,-7.02935 -1.55817,-15.03064 -2.235,-17.78064 -3.5499,-14.42341 -5.20277,-22.44825 -7.0358,-34.15959 -1.11132,-7.10027 -3.10275,-16.10027 -4.42542,-20 -2.59335,-7.64625 -6.74045,-24.00891 -8.13326,-32.09041 -0.47395,-2.75 -2.41806,-10.0625 -4.32024,-16.25 -1.90218,-6.1875 -4.13491,-14.34375 -4.96162,-18.125 -0.8267,-3.78125 -2.6562,-10.64045 -4.06555,-15.24268 -2.18884,-7.14767 -3.0501,-8.47478 -5.90718,-9.10231 -3.63145,-0.7976 -17.47996,1.78961 -26.23132,4.9006 -3.00831,1.06941 -6.54159,1.94439 -7.85173,1.94439 -3.09041,0 -3.22177,0.44579 -5.34092,18.125 -0.9889,8.25 -2.99893,18.09375 -4.46674,21.875 -1.46781,3.78125 -3.42638,8.9212 -4.35238,11.42211 -0.92598,2.50091 -2.87701,15.15716 -4.33561,28.125 -1.4586,12.96784 -3.16622,26.67164 -3.79472,30.45289 -0.6285,3.78125 -1.8345,13.417 -2.67999,21.41276 -1.40607,13.29711 -1.3425,15.05725 0.74488,20.625 2.89877,7.732 9.9607,17.5271 14.243,19.75546 1.81712,0.94559 4.64946,3.15969 6.29408,4.92023 1.64462,1.76055 6.50113,4.36936 10.79225,5.79735 8.8079,2.93109 12.23428,5.93563 11.63049,10.19861 -0.33544,2.3683 -1.35151,3.03292 -5.41295,3.54059 -4.00265,0.50034 -5.07975,1.18655 -5.3998,3.44024 -0.67291,4.73847 -4.54082,5.82932 -11.90356,3.35714 -3.54565,-1.19054 -8.2738,-2.06443 -10.50699,-1.94198 -2.44612,0.13411 -5.46157,-0.81335 -7.58494,-2.38321 -2.19253,-1.62102 -6.32697,-2.88368 -10.93965,-3.34096 -15.11361,-1.49835 -21.79006,-7.32331 -21.79006,-19.01104 0,-3.50299 -0.8212,-11.2912 -1.8249,-17.30714 -3.00724,-18.02471 -4.27338,-75.04643 -2.98324,-134.35273 0.74635,-34.30893 0.64989,-37.07978 -1.25546,-36.06008 -2.09703,1.1223 -7.82537,1.70561 -14.4989,1.47641 -2.86805,-0.0985 -3.35416,-0.45999 -2.1875,-1.62665 4.0499,-4.0499 -0.39299,-4.61408 -7.875,-1 -5.25413,2.53792 -10.00516,3.28089 -8.83095,1.38097 0.38037,-0.61545 -0.27379,-1.48946 -1.4537,-1.94223 -1.742,-0.66848 -1.82205,-1.023 -0.4258,-1.88593 1.09875,-0.67906 -1.3958,-1.3395 -6.91004,-1.82945 -4.74622,-0.42171 -10.31701,-1.43797 -12.37951,-2.25835 -2.0625,-0.82039 -7.62585,-1.36096 -12.36299,-1.20128 -7.93625,0.26752 -8.47642,0.12547 -6.875,-1.80777 1.59211,-1.922 1.33421,-2.0225 -3.07255,-1.19731 -3.2832,0.6148 -4.54962,0.47861 -3.98874,-0.42893 0.452,-0.73135 0.19293,-1.32972 -0.57572,-1.32972 -0.76865,0 -1.0499,-0.5625 -0.625,-1.25 0.4249,-0.6875 -0.018,-1.25 -0.98417,-1.25 -0.9662,0 -3.49394,-0.86664 -5.6172,-1.92586 -3.41228,-1.70227 -4.36695,-1.71424 -8.22289,-0.10313 -3.51638,1.46924 -4.48294,1.50864 -4.9839,0.20318 -0.34182,-0.89075 0.0376,-2.28393 0.84334,-3.09593 1.12382,-1.13269 0.90786,-1.2642 -0.92773,-0.5649 -1.76587,0.67274 -2.13327,0.49195 -1.40265,-0.69022 0.7763,-1.25609 -0.32576,-1.43174 -5.10745,-0.81399 -3.4306,0.44319 -6.9174,0.23913 -7.97235,-0.46658 -1.66666,-1.11492 -1.66666,-1.26063 0,-1.31144 1.53216,-0.0468 1.49312,-0.27999 -0.21349,-1.27584 -1.36366,-0.79574 -3.23566,-0.78254 -5.39387,0.038 -1.81796,0.69119 -4.53439,1.24418 -6.03651,1.2289 -2.68372,-0.0272 -2.67688,-0.0725 0.39387,-2.60641 3.12341,-2.57733 3.12354,-2.57832 0.24106,-1.94556 -2.21956,0.48724 -2.58201,0.26928 -1.57335,-0.94608 1.54609,-1.86291 0.51073,-3.22415 -2.45229,-3.22415 -2.1208,0 -4.30056,5.07092 -16.92551,39.375 -2.53021,6.875 -6.16999,15.62316 -8.08839,19.44035 -1.91838,3.81719 -4.45146,10.28594 -5.62902,14.375 -1.17758,4.08906 -4.63655,12.7784 -7.68661,19.30965 -3.05007,6.53125 -7.77943,18.53391 -10.50969,26.67257 -2.73026,8.13866 -6.07866,16.30508 -7.44089,18.14758 l -2.47677,3.35002 3.01388,7.69051 c 3.8431,9.8064 14.4533,23.57167 31.70465,41.13237 15.4046,15.68083 21.31084,19.15193 38.25733,22.48388 6.93547,1.36363 12.187,3.29614 16.4406,6.05001 3.4375,2.22551 9.0625,4.74153 12.5,5.59118 8.36745,2.06817 11.13756,4.05335 15.10671,10.8262 2.8143,4.80225 3.12671,6.19845 1.95993,8.75927 -1.65588,3.63423 -5.05943,3.89105 -16.67658,1.25833 -4.33953,-0.98343 -9.85242,-1.96781 -12.25087,-2.1875 -3.94674,-0.3615 -4.4215,-0.0575 -5,3.2014 -0.81975,4.61797 -4.5792,7.02812 -8.98005,5.75701 z"
       id="path3347"
       style="fill:#000000" />
  </g>
</svg>
