<?xml version="1.0" standalone="no"?>
<!DOCTYPE svg PUBLIC "-//W3C//DTD SVG 20010904//EN"
 "http://www.w3.org/TR/2001/REC-SVG-20010904/DTD/svg10.dtd">
<svg version="1.0" xmlns="http://www.w3.org/2000/svg"
 width="1536.000000pt" height="427.000000pt" viewBox="0 0 1536.000000 427.000000"
 preserveAspectRatio="xMidYMid meet">
<metadata>
Created by potrace 1.16, written by Peter Selinger 2001-2019
</metadata>
<g transform="translate(0.000000,427.000000) scale(0.100000,-0.100000)"
fill="#000000" stroke="none">
<path d="M9330 4255 c-198 -32 -358 -82 -715 -225 -252 -100 -326 -125 -410
-134 -885 -101 -2003 -296 -3198 -560 -292 -65 -404 -75 -1107 -101 -228 -9
-469 -22 -535 -30 -115 -14 -345 -59 -730 -143 -166 -37 -263 -53 -405 -67
-30 -3 -221 -12 -425 -20 -526 -21 -708 -33 -780 -50 -74 -17 -155 -51 -237
-101 -51 -31 -90 -43 -281 -84 -360 -77 -467 -131 -467 -235 0 -17 -9 -48 -20
-70 -27 -52 -25 -89 5 -141 64 -109 236 -190 595 -283 283 -72 604 -133 895
-170 434 -54 681 -63 1280 -44 618 20 1425 22 1570 5 61 -7 193 -31 295 -53
150 -33 209 -51 310 -96 69 -31 195 -81 280 -113 139 -52 158 -62 183 -97 72
-97 122 -225 207 -534 81 -293 127 -408 226 -561 158 -246 451 -410 573 -321
49 36 73 102 82 231 5 64 13 135 18 157 24 95 12 145 -88 361 -85 184 -102
250 -108 414 -5 130 12 270 34 291 5 4 69 12 143 18 326 28 947 132 1445 242
320 71 564 138 865 239 465 156 787 240 1143 300 293 49 428 61 717 67 l275 5
605 -61 c805 -82 1192 -125 1440 -162 352 -52 550 -78 685 -89 l130 -12 70
-67 c240 -233 631 -522 916 -678 279 -153 549 -250 549 -198 0 21 -66 85 -141
135 -112 77 -271 250 -487 532 -173 225 -325 364 -597 543 -116 77 -148 103
-184 154 -94 130 -294 301 -516 440 -145 90 -490 258 -712 346 -497 196 -1009
343 -1898 545 -220 50 -444 104 -498 121 -202 62 -350 139 -509 266 -46 36
-99 73 -118 81 -50 21 -262 25 -370 7z"/>
</g>
</svg>
