<?xml version="1.0" standalone="no"?>
<!DOCTYPE svg PUBLIC "-//W3C//DTD SVG 20010904//EN"
 "http://www.w3.org/TR/2001/REC-SVG-20010904/DTD/svg10.dtd">
<svg version="1.0" xmlns="http://www.w3.org/2000/svg"
 width="1536.000000pt" height="1069.000000pt" viewBox="0 0 1536.000000 1069.000000"
 preserveAspectRatio="xMidYMid meet">
<metadata>
Created by potrace 1.16, written by Peter Selinger 2001-2019
</metadata>
<g transform="translate(0.000000,1069.000000) scale(0.100000,-0.100000)"
fill="#000000" stroke="none">
<path d="M468 10653 c-20 -59 -17 -320 5 -412 15 -62 16 -77 5 -88 -11 -10
-26 -3 -87 43 -122 91 -246 144 -338 144 -52 0 -61 -15 -37 -62 21 -41 169
-189 289 -288 120 -99 184 -159 201 -192 24 -46 17 -97 -26 -182 -79 -157 -56
-213 233 -558 389 -465 457 -596 637 -1225 176 -613 204 -812 134 -943 -37
-71 -123 -157 -199 -201 -33 -20 -116 -61 -185 -93 -209 -95 -277 -164 -287
-288 -11 -130 44 -269 164 -418 199 -246 499 -386 745 -350 143 21 284 82 351
154 61 65 71 129 36 242 -25 82 -18 106 44 134 79 36 235 21 347 -33 63 -30
129 -94 153 -147 16 -35 22 -75 27 -187 7 -160 15 -183 81 -215 50 -25 256
-45 583 -57 272 -10 280 -11 333 -37 32 -15 83 -55 125 -98 116 -117 138 -126
195 -76 41 37 62 38 102 4 96 -81 123 -225 85 -448 -21 -126 -16 -189 20 -224
l26 -27 398 -1 c516 -1 632 -17 819 -109 184 -91 276 -214 314 -418 6 -34 12
-165 13 -292 2 -209 4 -234 23 -276 24 -54 68 -79 137 -79 63 0 89 19 153 116
101 154 281 301 395 322 76 14 99 1 156 -86 48 -74 95 -117 152 -141 14 -6 74
-22 133 -36 141 -34 296 -87 352 -120 68 -39 80 -64 77 -155 -5 -148 34 -298
94 -358 26 -26 40 -32 74 -32 62 0 189 69 250 135 14 15 37 33 52 41 65 34
237 3 432 -78 l101 -42 160 -1 c158 0 161 0 209 -29 70 -41 131 -108 150 -163
21 -63 20 -168 -4 -282 -24 -115 -25 -169 -3 -200 16 -23 18 -24 137 -18 67 3
162 14 211 23 50 9 140 17 200 18 l110 1 150 -68 c83 -38 203 -91 267 -118
153 -63 184 -79 246 -128 89 -70 121 -143 172 -390 41 -194 65 -217 193 -186
120 29 144 52 176 172 16 57 36 76 75 68 17 -4 132 -56 255 -116 229 -112 304
-139 385 -139 99 0 132 -43 161 -208 28 -166 91 -296 174 -362 52 -41 82 -50
158 -50 115 0 178 46 217 158 51 144 172 180 398 119 111 -30 144 -45 280
-128 53 -33 124 -71 158 -85 34 -14 236 -70 449 -125 212 -55 404 -109 426
-119 57 -27 120 -82 203 -177 126 -143 177 -163 327 -128 52 12 74 13 101 5
40 -14 78 -56 94 -107 20 -62 46 -97 92 -123 36 -21 56 -25 123 -25 103 0 164
22 268 93 45 30 118 72 162 93 97 46 116 64 122 122 8 66 -24 132 -207 433
-222 365 -292 472 -390 589 -102 122 -221 283 -320 430 -52 77 -114 151 -210
246 -148 150 -161 159 -605 435 -132 82 -523 338 -870 569 -1037 693 -1199
794 -1366 859 -206 80 -244 99 -422 209 -32 19 -93 48 -135 62 -138 49 -179
73 -229 133 -127 153 -282 276 -435 345 -98 45 -113 66 -114 168 -1 42 -4 82
-9 89 -9 14 -47 10 -135 -15 -64 -18 -202 -20 -233 -4 -12 7 -45 33 -73 59
-69 65 -101 79 -200 91 -47 5 -102 18 -123 28 -20 11 -84 63 -141 116 -202
189 -238 214 -368 256 -87 28 -115 55 -182 180 -57 106 -148 202 -209 220 -47
14 -48 14 -190 -46 -59 -25 -73 -27 -160 -23 -177 8 -278 70 -517 316 l-171
176 -50 0 c-38 0 -64 -8 -115 -37 -82 -46 -127 -49 -157 -11 -12 15 -21 32
-21 38 0 31 -66 143 -112 192 -132 140 -298 181 -463 115 -141 -57 -196 -38
-261 90 -24 49 -46 76 -74 95 -35 24 -46 26 -107 21 -37 -3 -96 -10 -131 -16
-132 -24 -288 34 -403 148 -79 79 -100 117 -135 247 -47 170 -102 200 -343
192 -97 -4 -150 -12 -231 -34 -88 -23 -124 -28 -220 -28 -137 0 -186 12 -397
95 -250 99 -327 163 -415 349 -59 122 -79 147 -125 156 -28 5 -46 -1 -112 -39
-123 -72 -164 -82 -321 -81 -116 1 -147 5 -225 28 -49 15 -114 38 -144 52
-142 64 -425 345 -757 749 -81 99 -249 299 -374 445 -293 344 -304 358 -357
465 -25 49 -72 137 -104 195 -52 95 -83 165 -133 303 -17 46 -60 107 -75 107
-5 0 -28 -13 -52 -30 -53 -36 -86 -38 -125 -8 -42 32 -50 44 -94 137 -22 46
-58 112 -80 146 -38 62 -95 210 -120 313 -6 28 -16 54 -20 57 -5 3 -14 -12
-22 -32z"/>
</g>
</svg>
