<?xml version="1.0" standalone="no"?>
<!DOCTYPE svg PUBLIC "-//W3C//DTD SVG 20010904//EN"
 "http://www.w3.org/TR/2001/REC-SVG-20010904/DTD/svg10.dtd">
<svg version="1.0" xmlns="http://www.w3.org/2000/svg"
 width="786.000000pt" height="1536.000000pt" viewBox="0 0 786.000000 1536.000000"
 preserveAspectRatio="xMidYMid meet">
<metadata>
Created by potrace 1.16, written by Peter Selinger 2001-2019
</metadata>
<g transform="translate(0.000000,1536.000000) scale(0.100000,-0.100000)"
fill="#000000" stroke="none">
<path d="M2400 15341 c-154 -33 -294 -106 -429 -223 -73 -62 -88 -64 -129 -12
-15 19 -34 34 -43 34 -29 0 -152 -68 -231 -127 -42 -32 -135 -112 -208 -178
-73 -66 -164 -144 -204 -173 -101 -76 -123 -100 -142 -148 -31 -82 -9 -144
130 -372 97 -161 143 -248 187 -359 17 -43 53 -113 81 -157 70 -110 76 -171
22 -236 -15 -17 -25 -32 -23 -34 2 -1 25 -10 51 -20 89 -33 108 -92 68 -218
-11 -34 -20 -66 -20 -71 0 -4 26 -36 58 -70 82 -89 179 -215 257 -337 93 -145
124 -180 229 -264 127 -103 262 -189 391 -251 61 -29 117 -61 125 -70 13 -15
9 -27 -29 -101 -85 -167 -135 -231 -312 -403 -229 -222 -285 -300 -342 -476
-162 -498 -121 -900 126 -1240 94 -129 108 -213 61 -371 -85 -287 -107 -420
-107 -639 0 -297 49 -469 234 -815 25 -47 39 -126 39 -224 0 -44 7 -171 16
-281 9 -110 17 -294 18 -410 2 -186 5 -218 25 -283 19 -61 20 -76 9 -89 -18
-22 -65 -41 -148 -58 -115 -24 -312 -84 -370 -113 -51 -25 -56 -31 -73 -82
-30 -93 -77 -208 -159 -390 l-80 -175 13 -52 c12 -52 11 -56 -35 -185 -61
-169 -142 -338 -194 -404 -22 -27 -84 -83 -136 -123 -161 -122 -219 -194 -479
-590 l-120 -184 11 -44 c29 -105 11 -145 -121 -282 -130 -134 -143 -153 -157
-231 -14 -79 -52 -182 -118 -322 -95 -199 -117 -331 -79 -460 l17 -56 -29 -62
c-44 -93 -55 -179 -45 -345 9 -146 10 -235 3 -495 -4 -173 6 -221 70 -313 43
-63 47 -78 61 -207 8 -75 20 -137 37 -177 l24 -63 -37 -82 c-34 -73 -38 -92
-38 -158 1 -55 7 -89 24 -130 38 -88 107 -191 162 -242 50 -45 52 -48 59 -117
16 -148 69 -210 272 -321 163 -87 199 -116 238 -185 16 -29 38 -56 47 -60 9
-4 49 -9 87 -12 224 -17 413 137 447 364 15 104 50 234 106 389 62 174 82 266
82 385 0 143 -33 243 -122 371 -36 51 -42 67 -53 155 -16 118 -16 119 -73 211
-38 62 -46 85 -59 170 -21 136 -13 275 21 372 40 114 49 185 31 254 -8 32 -22
67 -29 78 -13 18 -12 26 14 72 33 58 186 454 220 566 30 103 51 140 121 217
102 112 158 221 253 493 92 260 141 341 199 326 49 -12 108 -66 134 -123 23
-51 25 -64 21 -157 -5 -84 -13 -126 -53 -251 -224 -708 -268 -876 -390 -1493
l-66 -333 16 -50 c9 -27 19 -49 21 -49 17 0 86 44 99 63 29 44 53 136 124 466
86 398 176 723 432 1566 66 218 72 232 110 268 22 21 44 37 50 35 6 -2 23 -25
37 -50 l27 -47 -28 -143 c-61 -312 -149 -693 -169 -732 -20 -38 -22 -57 -23
-261 -1 -204 -3 -227 -27 -315 -61 -220 -68 -255 -68 -335 0 -95 14 -177 42
-253 l20 -54 34 33 c38 37 50 68 59 159 27 273 219 1245 304 1536 57 200 62
208 57 93 -7 -138 9 -311 45 -468 24 -106 30 -152 26 -209 -4 -67 -8 -78 -50
-140 -78 -112 -74 -154 24 -273 66 -82 69 -96 39 -184 -15 -42 -20 -83 -19
-149 0 -94 6 -121 73 -346 30 -102 38 -149 46 -265 5 -77 21 -201 35 -275 33
-170 42 -320 25 -453 -14 -116 -6 -167 35 -216 14 -16 35 -51 48 -78 20 -45
22 -60 19 -224 -2 -167 -1 -178 23 -243 41 -110 83 -185 130 -231 81 -82 241
-143 338 -131 61 9 152 54 191 95 17 17 35 31 41 31 7 0 77 18 156 39 79 22
176 45 214 51 39 6 90 20 113 32 48 23 147 132 234 257 l51 74 -6 147 c-4 88
-3 170 3 203 15 78 -5 164 -79 341 -93 225 -96 238 -94 411 3 181 -9 232 -78
342 -62 98 -68 128 -39 201 65 170 70 186 70 267 0 127 -48 204 -175 284 -93
59 -94 72 -14 203 61 100 67 131 44 222 -12 49 -20 138 -25 286 -10 263 -24
320 -107 429 -60 79 -43 110 55 104 78 -5 107 7 136 56 26 44 25 152 -3 241
-11 36 -42 139 -70 230 -27 91 -74 242 -104 335 -30 94 -60 196 -67 228 -23
110 18 194 129 269 145 97 146 131 12 282 -61 69 -74 92 -151 268 -24 56 -59
117 -82 143 l-40 45 50 78 c69 108 82 136 82 177 0 44 14 71 100 200 118 175
147 248 195 485 l27 134 183 186 c322 326 464 509 575 742 102 215 135 362
130 588 -6 291 -5 303 23 364 18 40 54 84 116 147 215 215 316 447 367 845 33
255 20 463 -46 709 -66 249 -108 361 -160 430 -61 80 -70 97 -70 127 0 28 42
72 85 88 36 14 174 35 360 55 223 24 207 17 420 185 378 298 532 417 649 500
141 101 271 221 330 304 24 34 67 107 96 163 34 66 76 129 117 174 79 88 107
131 127 199 31 103 15 202 -55 350 -57 121 -244 442 -272 469 -24 22 -162 77
-522 208 -257 93 -420 142 -496 149 -224 21 -529 -108 -676 -286 -92 -111
-103 -170 -39 -210 58 -35 80 -28 160 53 222 225 530 284 841 160 170 -67 417
-218 465 -285 47 -64 73 -164 68 -253 -7 -108 -40 -169 -157 -286 -100 -101
-133 -122 -254 -166 -193 -69 -416 -204 -649 -393 -34 -28 -90 -66 -123 -83
-52 -27 -70 -31 -140 -32 -51 0 -104 7 -147 20 -61 18 -73 18 -140 6 -133 -25
-226 -26 -291 -1 -80 30 -150 102 -205 210 -66 128 -85 144 -188 153 -33 2
-78 14 -100 25 -21 11 -172 60 -334 110 -434 133 -499 152 -537 152 -18 0 -68
-13 -111 -30 -106 -41 -211 -66 -323 -79 -507 -56 -782 12 -1071 262 -88 76
-144 114 -350 237 -248 146 -374 259 -442 395 -40 78 -56 147 -63 270 -10 192
27 373 104 504 48 81 162 196 202 204 16 4 45 20 64 37 32 27 41 30 105 30 83
0 228 29 332 66 107 38 250 38 365 1 198 -65 379 -225 465 -412 52 -112 63
-163 64 -302 l1 -122 44 -45 44 -45 29 38 c39 54 52 124 45 261 -7 133 -23
202 -77 316 -128 276 -383 488 -679 565 -112 30 -292 34 -401 10z"/>
</g>
</svg>
