<?xml version="1.0" standalone="no"?>
<!DOCTYPE svg PUBLIC "-//W3C//DTD SVG 20010904//EN"
 "http://www.w3.org/TR/2001/REC-SVG-20010904/DTD/svg10.dtd">
<svg version="1.0" xmlns="http://www.w3.org/2000/svg"
 width="1536.000000pt" height="375.000000pt" viewBox="0 0 1536.000000 375.000000"
 preserveAspectRatio="xMidYMid meet">
<metadata>
Created by potrace 1.16, written by Peter Selinger 2001-2019
</metadata>
<g transform="translate(0.000000,375.000000) scale(0.100000,-0.100000)"
fill="#000000" stroke="none">
<path d="M14096 3738 c-38 -5 -75 -13 -83 -19 -7 -6 -24 -8 -38 -5 -14 4 -25
2 -25 -4 0 -5 -13 -16 -29 -25 -34 -17 -48 -6 -31 25 13 24 3 26 -28 5 -15
-11 -27 -13 -39 -7 -10 5 -24 7 -32 4 -11 -3 -9 -9 8 -21 l21 -16 -35 -19
c-33 -18 -36 -18 -54 -2 -16 14 -31 16 -87 11 -87 -7 -111 -14 -118 -30 -3 -8
-25 -17 -50 -20 -25 -4 -46 -11 -46 -16 0 -5 -7 -9 -16 -9 -9 0 -27 -9 -41
-20 -14 -11 -31 -20 -38 -20 -7 0 -18 -6 -24 -14 -17 -20 -384 -143 -646 -216
-55 -16 -143 -42 -195 -58 -52 -16 -157 -48 -232 -70 -75 -23 -185 -57 -245
-75 -186 -59 -215 -67 -235 -67 -11 0 -28 -5 -39 -10 -10 -6 -65 -23 -122 -37
-56 -14 -127 -37 -157 -51 -77 -34 -190 -72 -214 -72 -12 0 -86 -15 -166 -34
-80 -19 -167 -39 -195 -45 -27 -6 -117 -26 -200 -46 -261 -62 -359 -83 -446
-94 -46 -6 -113 -18 -149 -26 -36 -8 -132 -24 -215 -36 -192 -26 -352 -54
-390 -68 -16 -5 -77 -15 -135 -21 -157 -17 -180 -20 -240 -30 -105 -18 -266
-39 -390 -50 -69 -7 -161 -18 -206 -26 -44 -8 -107 -14 -140 -13 l-59 1 50 23
c28 13 91 38 140 54 50 16 124 42 165 56 41 14 127 40 190 57 63 16 122 34
131 39 22 11 290 89 309 89 31 0 200 72 210 89 6 12 5 24 -4 37 -8 11 -16 31
-18 44 -3 23 -6 25 -57 23 -37 -2 -58 2 -65 11 -9 12 -79 24 -151 26 -15 0
-16 3 -7 12 19 19 14 49 -8 55 -19 5 -22 10 -24 43 -1 10 -14 16 -39 18 -30 3
-37 7 -33 18 4 10 -7 27 -28 46 -24 21 -32 35 -28 50 5 22 -12 38 -43 38 -11
0 -26 9 -33 20 -7 11 -18 20 -25 20 -8 0 -24 12 -38 26 -22 24 -29 26 -92 21
-59 -4 -69 -2 -78 14 -5 11 -16 19 -24 19 -8 0 -26 11 -41 25 -25 23 -32 24
-103 19 -42 -2 -95 -7 -119 -9 -32 -4 -44 -1 -49 11 -4 12 -19 14 -72 12 -36
-2 -68 -6 -71 -10 -3 -4 -65 -26 -138 -48 -99 -31 -141 -39 -167 -34 -26 5
-51 0 -98 -19 -90 -38 -374 -144 -502 -188 -286 -98 -554 -212 -820 -347 -71
-36 -146 -74 -165 -83 -19 -10 -62 -22 -95 -28 -74 -12 -415 -14 -950 -5 -276
4 -516 2 -735 -6 -179 -7 -359 -14 -400 -16 -41 -1 -138 -5 -215 -8 -77 -4
-265 -11 -418 -16 -153 -6 -329 -14 -390 -20 -62 -5 -150 -12 -197 -14 -47 -2
-92 -6 -100 -9 -20 -8 -179 -27 -210 -26 -14 1 -65 -4 -115 -10 -49 -6 -180
-18 -290 -26 -110 -8 -274 -22 -365 -30 -91 -8 -223 -17 -295 -21 -71 -3 -188
-14 -260 -24 -71 -11 -170 -22 -220 -25 -49 -3 -109 -13 -133 -21 -23 -7 -52
-14 -62 -14 -11 0 -108 -22 -216 -50 -225 -57 -357 -117 -401 -180 -35 -52
-56 -131 -43 -164 5 -15 10 -42 10 -60 0 -18 6 -41 14 -52 14 -18 16 -18 48
12 18 18 42 36 54 42 18 10 23 8 33 -14 6 -14 11 -38 11 -55 0 -21 6 -32 22
-38 16 -6 25 -21 33 -56 5 -27 16 -50 23 -53 7 -2 26 12 44 32 25 28 39 36 66
36 29 0 44 -9 91 -57 l56 -58 -130 -6 c-71 -4 -156 -10 -187 -14 -50 -7 -58
-5 -64 10 -5 12 0 24 15 37 l23 18 -25 0 c-24 0 -25 2 -14 29 12 33 4 61 -18
61 -9 0 -33 -14 -53 -31 -22 -18 -70 -41 -115 -56 -133 -42 -185 -108 -174
-221 7 -65 55 -167 98 -208 39 -37 159 -111 282 -175 54 -27 160 -87 235 -133
341 -206 441 -262 522 -293 90 -33 320 -83 475 -103 50 -6 185 -32 300 -57
233 -51 422 -84 474 -83 18 0 39 -4 47 -10 7 -7 18 -9 24 -5 6 3 36 1 68 -6
31 -7 60 -12 64 -11 4 1 56 -5 116 -13 60 -8 145 -17 188 -19 44 -3 140 -15
214 -26 360 -55 832 -120 915 -125 355 -24 431 -35 478 -74 9 -8 20 -12 23 -8
3 3 25 -2 47 -12 23 -10 63 -21 89 -25 26 -4 50 -11 53 -17 4 -5 21 -9 39 -9
18 0 41 -7 52 -14 15 -12 43 -14 140 -9 90 4 148 2 225 -11 89 -14 139 -15
344 -8 255 9 311 20 322 61 5 19 13 20 247 14 329 -7 958 12 1056 33 46 9 170
18 325 24 138 4 284 13 325 19 41 5 194 12 340 15 146 2 274 7 285 11 11 4 34
13 50 20 17 7 61 16 99 20 54 5 73 12 91 31 26 28 84 54 120 54 40 0 155 51
171 76 10 15 30 25 57 29 23 4 61 16 85 27 24 10 79 25 121 33 118 21 247 52
341 84 105 35 145 45 285 72 117 22 152 22 320 -5 173 -27 294 -35 503 -35
112 0 206 -2 210 -5 4 -2 99 -9 212 -16 149 -8 221 -9 265 -1 33 6 116 16 184
22 68 5 132 14 142 19 10 6 25 10 34 10 9 0 31 6 48 14 18 8 54 17 81 21 35 5
50 12 53 25 3 9 16 23 29 29 13 6 29 22 34 35 5 15 20 27 39 31 34 7 40 19 15
29 -13 5 -10 11 15 32 17 14 31 34 31 44 0 10 7 21 16 24 10 4 13 13 9 24 -3
11 1 32 10 48 9 17 11 30 5 32 -18 6 -11 26 17 47 l26 22 -21 21 c-12 12 -22
28 -22 36 0 8 -6 16 -12 19 -10 3 -10 9 0 26 18 30 15 51 -8 51 -10 0 -24 9
-29 19 -8 13 -27 21 -63 26 -44 6 -49 9 -30 16 25 9 31 49 7 49 -8 0 -24 5
-34 12 -15 9 -28 9 -59 0 -53 -16 -82 -15 -82 2 0 19 33 29 215 66 243 50 321
60 490 60 151 0 304 7 665 30 85 6 252 15 370 20 217 10 291 17 500 46 82 11
119 21 130 33 12 14 44 20 145 29 72 6 144 16 160 21 17 5 56 17 88 26 34 9
57 21 57 29 0 9 20 19 51 26 29 7 60 21 69 30 10 10 42 25 72 34 59 17 92 44
83 69 -5 11 4 18 32 27 21 7 45 18 53 25 8 7 26 15 40 18 17 4 30 19 41 45 15
36 19 38 92 56 69 16 77 20 77 41 0 13 6 26 13 29 9 3 7 8 -5 19 -16 13 -16
15 4 34 28 28 18 68 -18 77 -14 4 -69 2 -123 -4 -53 -6 -116 -10 -141 -8 l-45
3 30 16 c17 9 62 20 100 24 121 12 315 67 315 89 0 31 -28 50 -73 51 -25 0
-49 3 -53 7 -12 13 17 38 77 69 69 34 82 69 39 107 l-25 22 23 16 c29 21 28
32 -4 44 -14 6 -23 14 -20 19 3 5 -7 14 -23 19 -42 15 -148 -1 -256 -38 -76
-26 -99 -29 -148 -24 -57 7 -110 35 -94 50 4 4 45 11 90 15 259 23 417 85 417
164 0 26 -6 35 -30 47 l-30 15 24 22 c22 20 23 25 11 48 -8 14 -17 29 -22 32
-4 3 -13 15 -19 26 -7 14 -24 21 -50 23 -53 4 -63 18 -20 26 48 9 53 23 20 57
-23 24 -36 29 -74 29 -34 0 -52 5 -65 20 -9 10 -41 24 -71 30 -59 12 -69 26
-26 36 43 9 72 23 72 34 0 5 -7 10 -15 10 -8 0 -12 6 -9 14 4 10 -8 16 -45 21
-38 5 -51 11 -51 24 0 29 -55 79 -95 87 -20 3 -51 19 -68 35 -17 16 -35 29
-39 29 -5 0 -8 7 -8 15 0 15 -8 18 -104 35 -61 10 -84 20 -50 20 19 1 19 1 0
15 -11 8 -27 15 -37 15 -9 0 -19 9 -22 20 -5 18 -14 20 -96 20 -71 0 -91 3
-91 14 0 37 -61 48 -184 34z"/>
</g>
</svg>
