<?xml version="1.0" encoding="UTF-8" standalone="no"?>
<!-- Created with Inkscape (http://www.inkscape.org/) -->

<svg
   xmlns:svg="http://www.w3.org/2000/svg"
   xmlns="http://www.w3.org/2000/svg"
   version="1.2"
   width="612"
   height="792"
   viewBox="0 0 612 792"
   id="Layer_1"
   xml:space="preserve"><defs
   id="defs7" />
    
    <path
   d="m 443.2,334.25 26.149,3 21,4.3 c 0.768,0.2 1.518,0.417 2.25,0.65 0.7,0.2 1.351,0.417 1.95,0.649 0.601,0.233 1.167,0.45 1.7,0.65 0.533,0.233 1.017,0.45 1.45,0.65 0.399,0.232 0.767,0.449 1.1,0.649 0.634,0.434 1.05,0.851 1.25,1.25 0.067,0.167 0.167,0.333 0.3,0.5 0.134,0.167 0.283,0.317 0.45,0.45 0.167,0.1 0.351,0.2 0.55,0.3 0.2,0.101 0.384,0.167 0.551,0.2 0.166,0 0.333,0.033 0.5,0.1 0.199,0.067 0.399,0.167 0.6,0.301 0.166,0.1 0.35,0.217 0.55,0.35 0.2,0.1 0.4,0.233 0.601,0.4 0.166,0.166 0.333,0.333 0.5,0.5 0.3,0.333 0.533,0.616 0.699,0.85 0.167,0.2 0.268,0.417 0.301,0.65 0,0.199 -0.033,0.416 -0.101,0.649 -0.134,0.233 -0.3,0.533 -0.5,0.9 -0.533,0.866 -1.649,1.833 -3.35,2.899 -0.833,0.533 -1.833,1.101 -3,1.7 -1.2,0.601 -2.534,1.233 -4,1.9 -1.5,0.633 -3.167,1.316 -5,2.05 -1.866,0.733 -3.9,1.5 -6.101,2.3 L 434.4,379.1 371.15,395.75 c -0.566,0.167 -1.051,0.35 -1.45,0.55 -0.4,0.2 -0.767,0.417 -1.101,0.65 -0.366,0.2 -0.717,0.45 -1.05,0.75 l -1.1,0.95 c -0.601,0.467 -1.2,0.933 -1.8,1.399 -0.601,0.467 -1.184,0.917 -1.75,1.351 -0.601,0.433 -1.184,0.85 -1.75,1.25 -0.601,0.366 -1.184,0.732 -1.75,1.1 -0.601,0.367 -1.167,0.717 -1.7,1.05 -0.567,0.3 -1.116,0.601 -1.65,0.9 -0.566,0.267 -1.1,0.517 -1.6,0.75 -0.534,0.233 -1.05,0.45 -1.55,0.649 -0.5,0.167 -0.984,0.334 -1.45,0.5 -0.467,0.101 -0.917,0.2 -1.351,0.301 -0.366,0.066 -0.717,0.133 -1.05,0.199 -0.333,0.033 -0.649,0.051 -0.95,0.051 h -0.35 c -0.334,-0.033 -0.617,-0.067 -0.85,-0.101 -0.234,-0.033 -0.434,-0.083 -0.601,-0.149 -0.366,-0.134 -0.583,-0.351 -0.649,-0.65 -0.101,-0.3 -0.051,-0.717 0.149,-1.25 0.101,-0.3 0.217,-0.617 0.351,-0.95 l 1.399,-3 c 0.101,-0.267 0.167,-0.467 0.2,-0.6 v -0.15 l 0.05,-0.05 -0.25,-0.05 -79.7,4 -22.75,2.35 -31.7,4.9 -9.55,3.8 c -1.833,0.7 -3.65,1.4 -5.45,2.1 -1.8,0.667 -3.583,1.334 -5.35,2 -1.8,0.601 -3.566,1.2 -5.3,1.801 -1.733,0.6 -3.434,1.166 -5.1,1.699 -1.666,0.533 -3.3,1.033 -4.9,1.5 -1.6,0.467 -3.15,0.9 -4.65,1.301 -1.534,0.399 -3,0.783 -4.4,1.149 -1.4,0.333 -2.733,0.634 -4,0.9 -1.3,0.267 -2.517,0.5 -3.65,0.7 -1.133,0.166 -2.2,0.316 -3.2,0.449 -0.633,0.067 -1.233,0.117 -1.8,0.15 -0.6,0.033 -1.133,0.05 -1.6,0.05 -0.567,0 -1.067,-0.017 -1.5,-0.05 l -3.65,-0.35 -9.1,8.899 c -0.767,0.733 -1.534,1.467 -2.3,2.2 l -12.45,10.75 -5,3.85 c -0.833,0.601 -1.634,1.2 -2.4,1.801 -0.8,0.533 -1.583,1.066 -2.35,1.6 -0.767,0.5 -1.5,0.983 -2.2,1.45 -0.733,0.467 -1.434,0.899 -2.1,1.3 -0.933,0.566 -1.767,1.05 -2.5,1.45 -0.733,0.366 -1.333,0.667 -1.8,0.899 -0.534,0.2 -0.934,0.301 -1.2,0.301 -0.266,0 -0.417,-0.101 -0.45,-0.301 -0.067,-0.232 0,-0.55 0.2,-0.949 0.167,-0.4 0.45,-0.917 0.85,-1.551 0.4,-0.633 0.917,-1.383 1.55,-2.25 0.6,-0.899 1.317,-1.899 2.15,-3 l 9.95,-14.8 5.5,-9.6 c 0.267,-0.567 0.483,-1.033 0.65,-1.4 0.134,-0.366 0.2,-0.667 0.2,-0.899 -0.033,-0.301 -0.117,-0.584 -0.25,-0.851 -0.167,-0.267 -0.383,-0.6 -0.65,-1 -0.967,-1.267 -2.133,-2.3 -3.5,-3.1 -1.367,-0.833 -2.817,-1.384 -4.35,-1.65 -0.533,-0.1 -0.983,-0.2 -1.35,-0.3 -0.367,-0.1 -0.667,-0.217 -0.9,-0.35 -0.467,-0.268 -0.617,-0.584 -0.45,-0.95 0.134,-0.333 0.567,-0.733 1.3,-1.2 0.367,-0.233 0.816,-0.467 1.35,-0.7 0.5,-0.267 1.083,-0.55 1.75,-0.85 3.433,-1.5 6.683,-2.617 9.75,-3.351 3.033,-0.732 5.883,-1.1 8.55,-1.1 0.967,0 1.917,0.05 2.85,0.15 0.933,0.1 1.85,0.25 2.75,0.449 l 0.05,0.051 c 0.233,0 0.534,-0.15 0.9,-0.45 0.233,-0.167 0.483,-0.384 0.75,-0.65 0.267,-0.266 0.567,-0.566 0.9,-0.899 0.333,-0.367 0.683,-0.768 1.05,-1.2 0.367,-0.434 0.75,-0.917 1.15,-1.45 0.333,-0.434 0.717,-0.883 1.15,-1.35 0.434,-0.5 0.9,-1.018 1.4,-1.551 0.466,-0.533 0.983,-1.083 1.55,-1.649 l 13.4,-12.2 23.9,-18.85 12.5,-8.851 14.15,-9.25 c 0.733,-0.5 1.433,-0.983 2.1,-1.45 0.633,-0.467 1.217,-0.916 1.75,-1.35 0.534,-0.434 1.034,-0.85 1.5,-1.25 0.434,-0.4 0.85,-0.783 1.25,-1.15 0.4,-0.399 0.784,-0.8 1.15,-1.199 0.333,-0.434 0.667,-0.851 1,-1.25 0.433,-0.601 0.833,-1.184 1.2,-1.75 0.333,-0.601 0.617,-1.167 0.85,-1.7 0.4,-1.067 0.55,-2.101 0.45,-3.101 -0.1,-1 -0.467,-2.033 -1.1,-3.1 -0.3,-0.533 -0.684,-1.083 -1.15,-1.65 -0.467,-0.6 -0.983,-1.199 -1.55,-1.8 -0.3,-0.333 -0.583,-0.683 -0.85,-1.05 -0.3,-0.367 -0.55,-0.75 -0.75,-1.15 -0.233,-0.433 -0.417,-0.833 -0.55,-1.199 -0.167,-0.367 -0.283,-0.717 -0.35,-1.051 -0.1,-0.5 -0.15,-0.899 -0.15,-1.199 0,-0.334 0.05,-0.584 0.15,-0.75 0.1,-0.167 0.283,-0.301 0.55,-0.4 0.267,-0.1 0.616,-0.184 1.05,-0.25 h 0.45 c 0.333,-0.033 0.8,0 1.4,0.1 l 9.5,2.65 1.45,0.55 c 0.434,0.167 0.833,0.333 1.2,0.5 0.7,0.333 1.15,0.617 1.35,0.851 0.066,0.1 0.2,0.217 0.4,0.35 0.167,0.1 0.367,0.233 0.6,0.4 0.233,0.1 0.517,0.232 0.85,0.399 l 1.9,0.75 c 0.3,0.101 0.617,0.2 0.95,0.3 0.333,0.067 0.667,0.117 1,0.15 l 0.7,0.1 h 1.65 c 0.467,-0.033 1,-0.083 1.6,-0.149 l 7.7,-1.101 c 1.533,-0.232 3.133,-0.467 4.8,-0.699 1.667,-0.233 3.367,-0.45 5.1,-0.65 l 29.4,-2.65 32.6,-1.35 22.25,0.55 93.603,4.701 z"
   id="path3"
   style="fill:#010101;fill-rule:evenodd" />
    
</svg>