<?xml version="1.0" standalone="no"?>
<!DOCTYPE svg PUBLIC "-//W3C//DTD SVG 20010904//EN"
 "http://www.w3.org/TR/2001/REC-SVG-20010904/DTD/svg10.dtd">
<svg version="1.0" xmlns="http://www.w3.org/2000/svg"
 width="350.000000pt" height="1536.000000pt" viewBox="0 0 350.000000 1536.000000"
 preserveAspectRatio="xMidYMid meet">
<metadata>
Created by potrace 1.16, written by Peter Selinger 2001-2019
</metadata>
<g transform="translate(0.000000,1536.000000) scale(0.100000,-0.100000)"
fill="#000000" stroke="none">
<path d="M1905 15350 c-88 -17 -217 -29 -456 -45 -129 -9 -263 -20 -299 -26
-204 -31 -317 -97 -539 -313 -334 -326 -428 -502 -547 -1024 -67 -297 -77
-414 -45 -569 24 -113 61 -184 147 -283 65 -75 104 -136 104 -164 0 -9 12 -24
27 -33 51 -34 481 -16 650 27 114 29 197 73 389 202 148 100 257 158 296 158
19 0 87 -43 93 -58 8 -22 -50 -79 -180 -176 -140 -106 -165 -131 -288 -301
-64 -89 -145 -184 -221 -261 -110 -110 -143 -136 -371 -286 -313 -207 -445
-305 -486 -360 -93 -126 -177 -433 -166 -606 6 -105 32 -158 159 -336 140
-195 179 -216 410 -216 l138 0 100 94 c116 109 207 172 324 226 105 49 313
120 350 120 35 0 86 -29 86 -50 0 -22 -123 -140 -200 -190 -97 -64 -182 -157
-309 -335 -136 -191 -239 -316 -395 -485 -176 -188 -268 -338 -316 -511 -69
-253 -66 -619 7 -782 33 -73 124 -160 225 -212 89 -47 136 -49 205 -9 27 15
102 57 168 93 66 37 145 84 175 104 30 20 63 37 72 37 42 0 14 -46 -121 -205
-185 -216 -281 -368 -412 -655 -109 -239 -128 -297 -135 -407 -10 -154 7 -259
60 -368 56 -114 112 -186 173 -222 42 -25 58 -28 133 -28 106 0 152 21 290
130 134 107 349 249 455 300 98 48 207 75 305 75 72 0 76 -10 23 -62 -47 -46
-81 -60 -206 -87 -200 -43 -346 -120 -486 -255 -152 -147 -215 -267 -293 -556
-21 -79 -23 -103 -22 -355 1 -380 15 -447 107 -532 53 -49 92 -58 226 -51 111
5 169 32 272 126 95 86 120 101 255 150 146 54 230 69 284 53 76 -23 149 -111
120 -145 -6 -8 -35 -22 -63 -32 -29 -9 -99 -41 -157 -70 -356 -184 -649 -532
-715 -851 -27 -132 -6 -191 114 -318 42 -44 84 -90 92 -102 31 -45 257 -110
344 -98 27 3 128 33 225 66 208 70 232 72 260 27 37 -62 102 -260 104 -318 l1
-55 -45 2 c-25 0 -88 4 -141 8 -121 9 -175 -5 -322 -86 -59 -32 -114 -59 -121
-59 -23 0 -195 -120 -261 -181 -103 -97 -114 -156 -50 -271 35 -64 57 -80 121
-90 31 -5 108 -29 170 -54 153 -60 240 -73 358 -51 48 9 98 23 111 31 12 8 36
39 53 70 39 68 64 78 103 40 97 -93 116 -275 125 -1219 11 -1002 -14 -1241
-158 -1547 l-63 -133 0 -140 c0 -77 4 -153 8 -168 11 -40 48 -52 217 -72 135
-16 150 -16 210 -1 90 22 197 78 262 136 30 27 82 65 116 84 146 86 146 158
-4 406 l-81 136 -12 1295 c-7 713 -9 1359 -6 1435 3 76 15 524 26 994 30 1213
22 2601 -21 3960 -13 382 -22 527 -55 867 -14 138 -25 276 -25 307 0 61 -15
43 150 179 132 109 220 250 241 387 36 235 -35 524 -182 736 -74 106 -145 166
-265 224 -55 27 -106 55 -112 63 -21 25 -51 125 -76 255 -43 220 -43 206 9
242 65 45 297 161 395 199 47 18 106 46 133 63 72 46 153 142 200 237 42 84
42 86 41 190 0 92 -4 118 -33 201 -84 248 -252 519 -395 638 -72 60 -113 77
-261 111 -193 43 -299 59 -514 76 -236 19 -251 25 -251 98 0 83 47 146 159
211 179 103 611 401 659 455 38 41 95 168 100 221 5 57 -17 163 -65 315 -57
177 -125 295 -245 421 -64 68 -129 96 -347 151 -187 47 -304 60 -396 43z m783
-5887 c51 -238 84 -639 63 -762 -16 -100 -24 -98 -52 16 -28 109 -94 238 -194
377 -47 66 -88 130 -91 142 -12 48 91 185 185 246 64 40 77 37 89 -19z m-5
-1583 c54 -244 67 -405 74 -910 6 -388 0 -580 -17 -580 -4 0 -13 35 -19 78
-52 327 -237 818 -385 1017 -29 39 -55 75 -59 82 -11 17 17 79 60 132 53 67
307 311 315 303 3 -4 18 -59 31 -122z m-159 -1400 c29 -88 50 -230 41 -277 -4
-25 1 -48 19 -88 27 -56 89 -342 84 -385 -5 -40 -34 -36 -63 9 -28 41 -88 84
-235 166 -101 57 -150 92 -150 107 0 15 106 158 134 180 11 10 30 18 42 18 44
0 57 32 65 158 10 150 18 207 29 196 5 -5 20 -43 34 -84z"/>
</g>
</svg>
