<?xml version="1.0" standalone="no"?>
<!DOCTYPE svg PUBLIC "-//W3C//DTD SVG 20010904//EN"
 "http://www.w3.org/TR/2001/REC-SVG-20010904/DTD/svg10.dtd">
<svg version="1.0" xmlns="http://www.w3.org/2000/svg"
 width="453.000000pt" height="1536.000000pt" viewBox="0 0 453.000000 1536.000000"
 preserveAspectRatio="xMidYMid meet">
<metadata>
Created by potrace 1.16, written by Peter Selinger 2001-2019
</metadata>
<g transform="translate(0.000000,1536.000000) scale(0.100000,-0.100000)"
fill="#000000" stroke="none">
<path d="M2389 15351 c-9 -6 -99 -17 -200 -25 -260 -21 -358 -45 -549 -133
-178 -83 -237 -104 -322 -118 -59 -9 -108 -24 -148 -46 -71 -38 -181 -128
-234 -193 -21 -27 -67 -70 -101 -97 -70 -55 -91 -92 -149 -258 -48 -137 -65
-168 -151 -268 -49 -57 -77 -98 -81 -121 -18 -96 25 -238 87 -284 19 -14 76
-47 127 -72 50 -25 92 -51 92 -56 0 -6 -11 -37 -25 -70 -37 -87 -33 -124 17
-201 l42 -64 8 -150 c5 -82 11 -244 14 -358 l6 -208 -61 -64 -61 -63 0 -64 c0
-35 9 -94 19 -131 26 -91 41 -224 44 -388 2 -109 -1 -140 -14 -159 -52 -80
-46 -133 27 -226 24 -32 44 -66 44 -77 0 -56 -42 -539 -51 -585 -9 -44 -17
-58 -59 -93 -26 -22 -54 -54 -61 -70 -17 -43 -5 -168 26 -262 39 -121 35 -157
-28 -258 -62 -98 -82 -145 -92 -216 -10 -77 1 -108 65 -178 31 -35 65 -80 74
-99 40 -85 42 -201 5 -301 -20 -54 -69 -115 -92 -115 -23 0 -95 -58 -112 -89
-34 -67 -13 -143 66 -233 l49 -57 -16 -138 c-27 -236 -54 -333 -107 -381 -13
-13 -53 -42 -88 -65 -59 -39 -64 -45 -67 -82 -5 -58 16 -185 46 -284 37 -124
35 -192 -18 -455 l-44 -219 -62 -28 c-87 -40 -104 -64 -104 -153 0 -90 24
-302 52 -471 29 -173 32 -441 5 -560 -10 -44 -22 -137 -27 -207 -12 -171 -30
-203 -102 -192 -45 8 -68 -18 -75 -88 -10 -98 34 -411 88 -618 19 -74 29 -140
29 -186 0 -39 11 -127 26 -194 14 -68 34 -207 44 -309 45 -431 103 -698 255
-1177 42 -131 85 -275 96 -319 12 -47 59 -160 114 -275 51 -107 110 -235 130
-285 21 -49 57 -134 82 -188 41 -90 45 -103 39 -150 -7 -50 -14 -71 -86 -235
-48 -112 -54 -168 -31 -319 24 -158 29 -204 41 -418 19 -314 49 -453 144 -655
30 -63 57 -127 60 -141 12 -56 86 -117 127 -104 25 8 49 55 49 95 0 17 -28
102 -61 188 -97 248 -176 474 -189 538 -7 37 -10 130 -8 246 3 177 4 189 25
209 l22 22 6 -25 c4 -14 2 -60 -4 -102 -26 -186 -9 -347 53 -494 14 -34 26
-72 26 -85 0 -13 17 -48 39 -78 21 -30 41 -70 45 -89 13 -75 198 -351 267
-401 26 -18 30 -19 35 -4 4 10 -11 34 -48 73 -64 67 -71 79 -88 151 -7 30 -25
67 -41 85 -64 73 -193 373 -224 524 -20 95 -17 242 5 242 4 0 15 -30 25 -67
46 -182 105 -394 124 -444 28 -74 58 -117 196 -284 64 -77 125 -157 136 -177
18 -35 109 -118 130 -118 31 0 -4 62 -131 230 -122 162 -251 372 -237 387 3 2
28 -28 56 -69 28 -40 79 -113 114 -163 34 -49 92 -120 128 -156 63 -63 154
-127 165 -116 14 14 -14 52 -106 141 -61 59 -100 104 -100 116 0 33 13 24 73
-49 86 -105 267 -291 283 -291 8 0 14 6 14 13 0 34 -134 201 -171 212 -10 4
-28 23 -38 43 -11 20 -51 73 -90 117 -39 44 -71 85 -71 91 0 6 -18 34 -39 63
-21 28 -45 66 -52 84 -18 45 -56 99 -138 196 -39 47 -80 104 -91 127 -26 53
-39 177 -20 189 18 11 50 -30 50 -64 0 -39 44 -108 174 -276 74 -96 132 -181
158 -235 23 -48 76 -130 122 -188 44 -57 124 -163 176 -235 67 -93 102 -133
118 -135 32 -5 28 16 -18 87 -22 33 -49 79 -60 101 -11 22 -27 40 -35 40 -8 0
-21 15 -29 32 -18 44 -90 140 -163 219 -33 35 -74 91 -92 124 -34 64 -63 103
-183 245 -43 50 -88 110 -99 133 -25 48 -50 137 -43 149 18 28 59 -17 79 -87
13 -45 31 -71 94 -139 91 -98 197 -251 272 -391 43 -80 73 -121 155 -205 55
-58 126 -144 156 -191 58 -89 105 -136 120 -121 23 23 -102 215 -251 387 -110
126 -169 203 -259 335 -39 58 -101 141 -138 185 -84 101 -111 144 -123 195
-10 44 0 60 25 39 9 -7 55 -69 103 -138 49 -70 134 -189 190 -266 56 -77 114
-165 128 -195 20 -40 60 -88 147 -173 67 -65 162 -159 211 -208 80 -79 125
-108 125 -80 0 24 -102 141 -242 276 -85 83 -191 196 -236 253 -146 183 -373
541 -372 587 1 15 15 5 63 -46 60 -64 144 -177 329 -440 48 -68 119 -162 157
-209 39 -47 86 -108 106 -136 60 -88 269 -264 288 -245 17 17 0 37 -56 69 -62
35 -136 114 -144 154 -3 17 -32 51 -79 93 -40 36 -103 103 -139 148 -74 92
-423 594 -450 646 -21 43 -6 64 26 35 27 -25 167 -210 309 -409 276 -388 531
-675 598 -675 20 0 11 19 -54 105 -31 42 -54 78 -51 82 4 3 35 1 69 -4 35 -6
64 -10 65 -9 1 1 -38 23 -88 50 -193 103 -358 251 -427 384 -76 145 -182 422
-182 471 1 26 1 26 31 -9 42 -49 110 -178 153 -290 81 -210 120 -271 229 -353
90 -68 136 -92 220 -111 36 -9 90 -31 119 -49 68 -44 122 -71 114 -59 -8 13
-244 160 -352 220 -102 55 -134 83 -134 114 0 13 -9 43 -20 67 -11 24 -18 46
-16 49 3 2 42 -20 88 -50 214 -139 371 -200 627 -244 67 -11 97 -12 104 -5 20
20 -15 40 -93 55 -41 8 -124 31 -184 50 -60 20 -118 36 -130 36 -35 1 -103 36
-235 124 -148 99 -209 150 -222 184 -19 50 7 44 127 -28 65 -39 137 -76 159
-82 22 -7 69 -34 105 -60 68 -49 232 -144 287 -167 34 -14 63 -10 63 9 0 15
-53 44 -210 118 -74 34 -160 82 -190 106 -30 23 -97 71 -148 106 -90 61 -247
198 -238 207 7 8 148 -61 232 -114 45 -28 164 -110 265 -182 203 -144 245
-169 262 -152 16 16 0 30 -202 179 -168 123 -235 168 -403 269 -29 17 -88 53
-131 79 -86 51 -197 148 -197 171 0 20 28 10 133 -50 96 -55 264 -117 312
-116 29 0 28 1 -15 20 -25 11 -116 68 -203 127 l-159 107 47 3 c54 4 81 -10
250 -128 88 -61 156 -122 335 -305 369 -374 415 -409 660 -498 153 -56 176
-62 185 -47 12 20 -25 48 -94 71 -155 51 -290 127 -422 239 -40 35 -177 168
-304 295 -251 253 -315 306 -479 398 -109 61 -131 81 -105 98 37 24 151 -33
319 -159 117 -88 309 -273 480 -462 189 -209 247 -244 527 -315 168 -42 274
-51 388 -32 101 17 140 36 117 59 -9 9 -23 9 -63 0 -67 -16 -110 -15 -238 3
-154 23 -304 61 -378 96 -95 45 -199 128 -393 314 -294 281 -513 468 -618 528
-56 31 -66 59 -25 65 36 5 105 -36 243 -144 80 -64 -8 21 -109 104 -57 47 -99
88 -93 90 15 5 97 -39 177 -96 79 -56 576 -479 765 -652 69 -63 136 -124 149
-135 l24 -20 -13 25 c-19 36 -170 183 -365 355 -94 82 -213 188 -265 235 -199
180 -281 245 -385 302 l-50 28 40 0 c104 0 243 -109 760 -591 204 -190 288
-275 316 -319 l16 -25 219 -2 219 -3 -46 24 c-72 39 -142 48 -222 29 -120 -29
-134 -20 -452 294 -343 341 -601 559 -712 604 -29 12 -53 25 -53 30 0 18 95 9
130 -12 90 -55 381 -314 691 -615 113 -110 223 -210 245 -223 l39 -23 -33 35
c-19 19 -49 43 -68 53 -35 19 -44 34 -21 34 7 0 41 -14 75 -31 35 -17 66 -28
69 -26 2 3 -40 36 -94 75 -54 38 -109 81 -123 94 -14 14 -37 28 -52 32 -47 11
-243 251 -402 491 -121 181 -128 196 -124 252 l3 46 144 -219 c161 -244 304
-451 349 -504 41 -48 52 -30 19 33 -44 85 -202 322 -246 369 -22 24 -49 65
-60 91 -11 25 -52 94 -92 152 -52 77 -69 109 -61 117 27 27 124 -72 188 -190
188 -345 365 -546 576 -653 46 -23 61 -37 76 -71 11 -24 29 -52 41 -62 20 -18
23 -18 38 -3 14 14 15 21 4 43 -6 15 -9 29 -7 32 11 10 67 -22 126 -73 103
-89 245 -152 245 -108 0 6 -27 29 -60 51 -74 50 -214 185 -284 275 -29 37 -67
75 -85 84 -64 33 -282 228 -554 495 -177 175 -228 238 -120 147 127 -105 327
-279 498 -434 157 -142 198 -173 269 -207 46 -22 105 -53 130 -68 97 -60 325
-120 466 -123 90 -2 135 7 135 27 0 9 -24 15 -87 20 -174 14 -283 43 -448 119
-60 27 -150 64 -199 81 -49 17 -91 37 -94 45 -3 8 0 11 5 8 5 -3 68 -13 139
-22 71 -9 154 -25 185 -35 82 -28 165 -39 324 -46 97 -4 149 -3 170 6 56 22
40 25 -325 74 -63 9 -182 20 -265 26 -186 13 -263 26 -306 52 -47 29 -25 33
84 14 210 -36 683 -59 750 -37 38 13 46 24 25 38 -7 4 -148 8 -313 9 -251 0
-309 3 -355 17 -30 9 -92 21 -137 27 -90 11 -204 48 -210 67 -3 9 8 9 44 -3
151 -47 163 -48 523 -48 367 1 420 6 428 48 4 18 0 18 -84 10 -207 -21 -662
-7 -864 27 -71 12 -185 66 -233 111 -36 35 -50 65 -24 55 7 -3 87 -34 178 -70
230 -92 284 -102 507 -88 97 6 241 13 319 17 148 6 212 16 222 33 4 5 19 14
34 20 15 6 27 16 27 22 0 13 -36 11 -285 -17 -97 -11 -233 -18 -385 -18 -232
-1 -236 -1 -355 30 -135 36 -233 75 -200 81 12 2 90 -13 175 -33 199 -48 310
-50 506 -11 194 40 233 53 245 84 9 24 12 25 64 18 30 -3 116 -19 192 -34 87
-18 142 -25 148 -19 27 26 -114 84 -232 95 -51 5 -63 9 -63 23 0 25 22 40 71
48 56 10 53 24 -8 38 -148 34 -196 46 -273 70 -78 24 -95 25 -215 21 -136 -6
-359 -40 -381 -58 -23 -19 -116 -38 -239 -49 -66 -7 -121 -13 -123 -15 -9 -9
99 -35 145 -35 81 0 329 27 501 55 84 14 173 25 198 25 49 0 167 -36 241 -74
l46 -23 -134 -8 c-74 -4 -287 -13 -473 -19 l-339 -11 89 -29 c78 -26 103 -30
209 -30 66 -1 170 2 230 6 l110 6 -95 -25 c-78 -21 -119 -26 -230 -27 -125 -1
-146 2 -281 36 -171 43 -275 81 -306 110 -31 29 -29 36 10 46 35 9 36 18 15
70 -11 30 -11 35 4 46 10 7 55 16 100 20 93 7 386 64 493 96 127 38 139 40
275 39 227 -2 256 -23 44 -33 -197 -8 -446 -57 -589 -115 -86 -34 -95 -36
-198 -35 -81 1 -106 -1 -97 -10 7 -7 54 -11 133 -10 97 1 161 9 312 38 330 64
407 76 523 83 91 5 115 9 120 22 8 22 23 31 55 31 33 0 36 24 5 42 -13 6 -72
17 -133 23 l-110 10 0 30 0 30 -125 8 c-80 6 -155 5 -209 -2 -127 -16 -125 5
4 34 39 9 149 43 245 75 96 32 225 68 285 80 134 27 184 45 167 62 -24 24
-233 -20 -612 -127 -127 -36 -267 -82 -605 -199 -104 -36 -201 -66 -215 -66
-15 0 -69 21 -121 46 -94 46 -112 51 -302 74 -43 5 -91 15 -105 22 -38 18 -85
120 -121 261 -85 329 -117 697 -108 1237 10 576 64 1053 166 1460 43 170 56
244 71 395 22 235 71 379 188 558 54 82 75 148 93 282 15 116 38 178 163 443
133 280 201 441 221 520 15 58 15 74 1 195 -18 149 -36 397 -36 502 l0 70 129
125 c124 119 130 127 137 174 12 88 -35 222 -126 355 l-40 60 0 138 c0 76 5
192 10 258 9 109 12 121 38 148 34 37 117 77 160 77 52 0 119 20 138 41 15 17
16 31 5 161 -23 268 -31 319 -60 387 -54 123 -53 140 13 220 95 115 138 250
138 425 -1 151 -39 335 -82 388 -11 14 -42 40 -70 58 -92 59 -118 136 -126
370 l-5 155 47 37 c47 37 72 50 197 108 68 32 97 64 97 110 0 41 -43 104 -141
207 -126 132 -131 148 -94 277 38 129 45 143 113 217 88 95 106 134 100 219
-6 86 -46 173 -118 255 -63 73 -94 130 -86 159 3 11 28 36 56 54 27 19 68 54
90 78 l40 44 -24 47 c-13 27 -45 102 -71 167 -39 99 -46 126 -42 161 7 49 50
150 75 178 14 16 18 47 22 181 6 186 11 200 104 304 94 105 94 110 -5 119 -51
5 -65 3 -89 -16 -35 -25 -76 -27 -110 -3 -14 9 -72 65 -130 123 -85 85 -121
113 -185 146 -104 53 -298 129 -377 148 -79 19 -297 30 -319 16z m1191 -12895
c-80 -19 -203 -50 -275 -70 -137 -39 -346 -63 -331 -38 10 16 145 57 256 76
52 10 154 28 225 41 72 12 162 23 200 23 l70 1 -145 -33z m-1003 -428 c21 -24
53 -68 70 -98 18 -30 66 -98 108 -150 111 -138 121 -161 36 -92 -136 111 -321
308 -321 342 0 19 27 38 56 39 6 1 29 -18 51 -41z m1441 15 c-10 -2 -28 -2
-40 0 -13 2 -5 4 17 4 22 1 32 -1 23 -4z m-637 -486 c211 -218 244 -256 199
-226 -64 42 -128 79 -136 79 -24 0 -93 64 -171 158 -118 142 -303 378 -303
387 0 13 210 -190 411 -398z m-2049 -744 c69 -71 130 -193 97 -193 -26 0 -159
179 -159 214 0 26 24 18 62 -21z"/>
<path d="M3085 2105 c33 -16 91 -21 65 -6 -8 5 -33 12 -55 15 l-40 6 30 -15z"/>
<path d="M2599 1476 c25 -25 47 -43 50 -41 6 7 -49 64 -74 77 -11 6 0 -10 24
-36z"/>
<path d="M2808 1293 c67 -96 452 -415 452 -375 0 5 -39 38 -87 73 -91 67 -139
107 -294 249 -54 49 -84 71 -71 53z"/>
<path d="M3334 875 c21 -16 32 -13 21 4 -3 6 -14 11 -23 11 -15 -1 -15 -2 2
-15z"/>
</g>
</svg>
