<?xml version="1.0" encoding="UTF-8" standalone="no"?>
<!-- Created with Inkscape (http://www.inkscape.org/) -->

<svg
   version="1.2"
   width="419.36237"
   height="547.16553"
   viewBox="0 0 419.36237 547.16555"
   id="Layer_1"
   xml:space="preserve"
   style="overflow:inherit"
   xmlns="http://www.w3.org/2000/svg"
   xmlns:svg="http://www.w3.org/2000/svg"><defs
   id="defs7" />
<path
   d="m 170.36248,0.12515267 c 10.118,-1.047 12.537,4.63700003 24,11.00000033 13.691,7.6 26.568,13.477 35,22 5.414,5.473 9.344,13.617 15,21 5.26,6.865 11.323,13.016 16,20 16.533,24.689 31.083,39.524997 45,66.999997 4.731,9.341 11.286,17.592 15,25 5.298,10.569 7.3,23.313 12,34 4.71,10.708 11.532,19.714 16,30 6.23,14.346 10.484,29.079 18,43 8.481,15.709 19.295,25.764 25,43 2.18,6.585 3.828,21.935 7,29 4.732,10.541 16.406,20.487 19,30 5.479,20.094 -1.449,47.668 -7,64 -6.131,18.036 -16.108,35.22 -25,47 -4.477,5.93 -12.221,13.351 -19,19 -6.612,5.51 -14.985,13.021 -21,16 -4.215,2.088 -11.064,2.598 -17,5 -6.056,2.45 -9.657,5.416 -16,7 -7.011,1.751 -14.377,1.287 -22,3 -10.768,2.42 -19.685,11.727 -32,11 -7.906,-0.467 -12.432,-7.154 -22,-15 -7.025,-5.761 -15.161,-10.436 -21,-16 -7.979,-7.604 -13.599,-17.306 -21,-24 -5.167,-4.674 -12.011,-8.604 -18,-14 -11.272,-10.155 -21.182,-17.656 -35,-27 -6.996,-4.73 -14.469,-8.435 -18,-13 -5.047,-6.524 -9.399,-19.306 -16,-29 -4.157,-6.105 -10.763998,-10.078 -13.999998,-15 -10.851,-16.5 -16.35,-43.574 -26,-64 -6.221,-13.168 -17.713,-23.42 -24,-36 -5.389,-10.783 -7.793,-23.819 -14,-35 -5.828,-10.498 -12.914,-20.746 -17,-32 -2.9270005,-8.062 -4.2290005,-17.521 -7.0000005,-26 C -13.882518,142.24015 22.862482,88.993153 49.362482,54.125153 c 17.447,-22.957 29.997,-45.9170003 67.999998,-48.0000003 8.713,-0.478 16.704,1.604 25,1 9.648,-0.702 17.139,-5.876 28,-7.00000003 z"
   id="path3"
   style="fill-rule:evenodd" />
</svg>
