<?xml version="1.0" encoding="UTF-8" standalone="no"?>
<!-- Created with Inkscape (http://www.inkscape.org/) -->

<svg
   xmlns:svg="http://www.w3.org/2000/svg"
   xmlns="http://www.w3.org/2000/svg"
   version="1.2"
   width="42.902"
   height="38.77"
   viewBox="0 0 42.902 38.77"
   id="Layer_1"
   xml:space="preserve"
   style="overflow:inherit"><defs
   id="defs20" />
<g
   id="ehstx0_1_">
	<g
   id="g4">
		<path
   d="m 7.38,0 c 1.639,0.146 2.561,0.682 3.444,1.476 1.071,0.964 1.785,2.062 2.361,3.444 1.376,0.46 2.278,1.396 3.148,2.362 0.982,0.065 1.434,0.682 2.066,0.984 1.504,0.718 3.118,0.967 4.527,1.575 1.461,0.63 2.464,1.997 3.838,2.558 0.418,0.894 1.759,0.865 1.869,2.067 0.135,0.158 0.743,-0.166 0.984,0.098 0.541,0.377 0.84,0.997 1.18,1.574 2.881,0.793 3.344,4.004 5.807,5.215 -0.083,0.508 -0.629,0.553 -0.984,0.787 2.351,3.344 4.578,5.757 7.281,8.562 0,-10.234 0,-20.468 0,-30.702 C 31.062,0 19.221,0 7.38,0 z"
   id="path6"
   style="fill:#ffffff;fill-rule:evenodd" />
		<path
   d="M 6.199,0 C 4.133,0 2.066,0 0,0 0,1.902 0,3.805 0,5.708 0.594,4.958 1.759,4.36 2.46,4.035 3.121,2.105 3.849,0.241 6.199,0 z"
   id="path8"
   style="fill:#ffffff;fill-rule:evenodd" />
		<path
   d="m 0,6.199 c 0,10.857 0,21.715 0,32.571 4.362,0 8.725,0 13.087,0 -0.073,-0.222 -0.552,-0.038 -0.787,-0.098 -0.113,-0.289 0.472,-0.366 0.197,-0.492 -0.389,-0.335 -1.078,-0.52 -2.066,-0.492 -0.367,-0.027 -0.136,-0.652 -0.689,-0.492 1.05,0.27 1.849,-0.353 2.952,-0.394 0.294,-0.011 0.562,0.154 0.787,0.099 0.307,-0.076 0.595,-0.538 1.083,-0.787 2.737,-1.4 5.472,-4.693 7.872,-6.495 -0.032,-0.361 -0.243,-0.544 -0.295,-0.886 -0.212,-0.162 -0.51,0.219 -0.886,0.197 -0.307,-0.086 -0.52,-0.268 -0.787,-0.394 C 16.66,28.453 13.384,27.965 11.12,26.47 10.02,25.743 8.909,25.409 8.759,24.206 8.571,24.248 8.58,24.487 8.267,24.403 7.344,23.948 6.917,22.997 6.102,22.435 6.067,22.108 5.815,22 5.903,21.55 5.034,21.206 4.919,20.108 4.329,19.483 4.291,18.941 4.435,18.8 4.329,18.4 4.209,17.963 3.471,18.144 3.443,17.613 3.616,17.195 4.589,17.579 4.526,16.925 4.113,16.918 3.809,17.392 3.443,17.122 3.111,16.265 4.146,16.775 4.132,16.236 c -0.229,0 -0.459,0 -0.689,0 C 2.662,15.016 2.715,12.152 3.542,10.922 3.306,9.486 3.181,7.939 2.755,6.691 1.492,6.866 0.887,6.102 0,6.199 z"
   id="path10"
   style="fill:#ffffff;fill-rule:evenodd" />
		<path
   d="m 13.579,38.77 c 9.774,0 19.55,0 29.323,0 0,-2.624 0,-5.248 0,-7.872 -0.441,0.112 -0.439,-0.516 -0.787,-0.196 -0.252,0.323 0.142,0.66 0.197,0.983 -0.902,-0.573 -1.646,-1.306 -2.165,-2.263 -0.231,-0.002 -0.29,0.169 -0.591,0.098 -1.162,-1.133 -1.984,-2.607 -3.641,-3.247 -0.221,-0.238 -0.413,-0.505 -0.59,-0.787 -1.176,-0.432 -2.327,-0.888 -3.937,-0.886 -0.967,0.969 -1.849,2.021 -3.641,2.165 -0.413,0.729 0.146,0.835 0.196,1.574 -0.027,0.455 -0.439,-0.086 -0.492,0.296 -0.106,0.352 -0.119,0.799 -0.295,1.082 -2.648,1.878 -5.289,4.289 -7.281,6.494 0.55,0.291 1.129,-0.493 1.673,-0.196 0.104,0.63 -0.708,0.342 -0.787,0.787 0.454,0.104 0.836,0.278 1.476,0.197 -0.871,0.88 -2.293,0.459 -3.346,1.377 -0.583,-0.073 -0.912,-0.399 -1.574,-0.394 -0.542,0.578 -2.879,0.112 -3.739,0.689 0.001,0.034 0.001,0.067 0.001,0.099 z"
   id="path12"
   style="fill:#ffffff;fill-rule:evenodd" />
		<path
   d="m 24.994,28.242 c -0.178,0.216 -0.086,0.701 -0.197,0.983 -0.125,0.235 -0.32,0.4 -0.689,0.394 -0.189,1.271 -1.401,1.801 -2.459,2.559 -1.347,0.966 -2.675,1.869 -3.936,2.952 -0.6,0.516 -1.403,0.996 -1.673,1.771 0.403,-0.281 1.051,-0.156 1.477,-0.394 0.357,-0.2 0.582,-0.769 0.983,-1.083 0.58,-0.453 1.4,-0.688 1.87,-1.082 0.511,-0.43 0.839,-1.119 1.377,-1.574 1.317,-1.114 2.842,-2.173 3.74,-3.739 -0.13,-0.299 -0.415,-0.44 -0.493,-0.787 z"
   id="path14"
   style="fill:#ffffff;fill-rule:evenodd" />
		<path
   d="m 10.824,1.476 c 1.071,0.964 1.785,2.062 2.361,3.444 1.376,0.46 2.278,1.396 3.148,2.362 0.982,0.065 1.434,0.682 2.066,0.984 1.504,0.718 3.118,0.967 4.527,1.575 1.461,0.63 2.464,1.997 3.838,2.558 0.418,0.894 1.759,0.865 1.869,2.067 0.135,0.158 0.743,-0.166 0.984,0.098 0.541,0.377 0.84,0.997 1.18,1.574 2.881,0.793 3.344,4.004 5.807,5.215 -0.083,0.508 -0.629,0.553 -0.984,0.787 2.351,3.344 4.578,5.757 7.281,8.562 0,0.065 0,0.131 0,0.196 -0.441,0.112 -0.439,-0.516 -0.787,-0.196 -0.252,0.323 0.142,0.66 0.197,0.983 -0.902,-0.573 -1.646,-1.306 -2.165,-2.263 -0.231,-0.002 -0.29,0.169 -0.591,0.098 -1.162,-1.133 -1.984,-2.607 -3.641,-3.247 -0.221,-0.238 -0.413,-0.505 -0.59,-0.787 -1.176,-0.432 -2.327,-0.888 -3.937,-0.886 -0.967,0.969 -1.849,2.021 -3.641,2.165 -0.413,0.729 0.146,0.835 0.196,1.574 -0.027,0.455 -0.439,-0.086 -0.492,0.296 -0.106,0.352 -0.119,0.799 -0.295,1.082 -2.648,1.878 -5.289,4.289 -7.281,6.494 0.55,0.291 1.129,-0.493 1.673,-0.196 0.104,0.63 -0.708,0.342 -0.787,0.787 0.454,0.104 0.836,0.278 1.476,0.197 -0.871,0.88 -2.293,0.459 -3.346,1.377 -0.583,-0.073 -0.912,-0.399 -1.574,-0.394 -0.542,0.578 -2.879,0.112 -3.739,0.689 0,0.032 0,0.065 0,0.098 -0.164,0 -0.328,0 -0.492,0 -0.073,-0.222 -0.552,-0.038 -0.787,-0.098 -0.113,-0.289 0.472,-0.366 0.197,-0.492 -0.389,-0.335 -1.078,-0.52 -2.066,-0.492 -0.367,-0.027 -0.136,-0.652 -0.689,-0.492 1.05,0.27 1.849,-0.353 2.952,-0.394 0.294,-0.011 0.562,0.154 0.787,0.099 0.307,-0.076 0.595,-0.538 1.083,-0.787 2.737,-1.4 5.472,-4.693 7.872,-6.495 -0.032,-0.361 -0.243,-0.544 -0.295,-0.886 -0.212,-0.162 -0.51,0.219 -0.886,0.197 -0.307,-0.086 -0.52,-0.268 -0.787,-0.394 C 16.658,28.452 13.382,27.964 11.118,26.469 10.018,25.742 8.907,25.408 8.757,24.205 8.569,24.247 8.578,24.486 8.265,24.402 7.342,23.947 6.915,22.996 6.1,22.434 6.067,22.108 5.815,22 5.903,21.55 5.034,21.206 4.919,20.108 4.329,19.483 4.291,18.941 4.435,18.8 4.329,18.4 4.209,17.963 3.471,18.144 3.443,17.613 3.616,17.195 4.589,17.579 4.526,16.925 4.113,16.918 3.809,17.392 3.443,17.122 3.111,16.265 4.146,16.775 4.132,16.236 c -0.229,0 -0.459,0 -0.689,0 C 2.662,15.016 2.715,12.152 3.542,10.922 3.306,9.486 3.181,7.939 2.755,6.691 1.492,6.866 0.887,6.102 0,6.199 0,6.035 0,5.871 0,5.707 0.594,4.958 1.759,4.36 2.46,4.035 3.121,2.105 3.849,0.241 6.199,0 6.593,0 6.986,0 7.38,0 9.019,0.146 9.94,0.682 10.824,1.476 z m 14.17,26.766 c -0.178,0.216 -0.086,0.701 -0.197,0.983 -0.125,0.235 -0.32,0.4 -0.689,0.394 -0.189,1.271 -1.401,1.801 -2.459,2.559 -1.347,0.966 -2.675,1.869 -3.936,2.952 -0.6,0.516 -1.403,0.996 -1.673,1.771 0.403,-0.281 1.051,-0.156 1.477,-0.394 0.357,-0.2 0.582,-0.769 0.983,-1.083 0.58,-0.453 1.4,-0.688 1.87,-1.082 0.511,-0.43 0.839,-1.119 1.377,-1.574 1.317,-1.114 2.842,-2.173 3.74,-3.739 -0.13,-0.299 -0.415,-0.44 -0.493,-0.787 z"
   id="path16"
   style="fill-rule:evenodd" />
	</g>
</g>
</svg>