<?xml version="1.0" standalone="no"?>
<!DOCTYPE svg PUBLIC "-//W3C//DTD SVG 20010904//EN"
 "http://www.w3.org/TR/2001/REC-SVG-20010904/DTD/svg10.dtd">
<svg version="1.0" xmlns="http://www.w3.org/2000/svg"
 width="1536.000000pt" height="1383.000000pt" viewBox="0 0 1536.000000 1383.000000"
 preserveAspectRatio="xMidYMid meet">
<metadata>
Created by potrace 1.16, written by Peter Selinger 2001-2019
</metadata>
<g transform="translate(0.000000,1383.000000) scale(0.100000,-0.100000)"
fill="#000000" stroke="none">
<path d="M6060 13789 c-315 -70 -704 -129 -1077 -164 -269 -25 -422 -63 -586
-146 -162 -81 -247 -169 -247 -256 0 -136 101 -213 475 -363 205 -83 508 -231
670 -328 317 -191 501 -385 616 -651 69 -161 84 -228 84 -381 0 -123 -2 -139
-24 -179 -38 -72 -112 -135 -330 -278 -113 -75 -233 -158 -266 -185 -107 -88
-178 -186 -204 -284 -13 -49 -27 -54 -160 -54 -232 0 -352 88 -577 425 -74
110 -144 212 -155 226 -21 26 -21 27 -4 100 26 108 32 358 11 476 -49 284
-187 549 -400 771 -464 481 -1115 607 -1567 301 -132 -88 -283 -257 -365 -407
l-37 -68 -61 0 c-79 -1 -112 -19 -178 -98 l-53 -64 -125 -31 c-69 -16 -227
-53 -353 -81 -599 -134 -875 -250 -1076 -451 -56 -56 -71 -77 -71 -101 0 -27
2 -29 27 -24 151 31 714 125 963 160 480 69 761 90 1155 90 348 0 480 -10 698
-55 294 -60 544 -188 673 -346 92 -113 133 -221 189 -497 20 -94 42 -194 50
-223 8 -28 35 -151 60 -272 55 -271 86 -369 169 -536 176 -355 510 -749 857
-1007 50 -37 161 -103 247 -147 101 -52 177 -98 210 -128 l53 -48 -15 -43
c-23 -64 -46 -93 -197 -247 -152 -156 -178 -198 -203 -320 -28 -134 -80 -224
-301 -512 -172 -225 -227 -353 -228 -533 -1 -69 5 -132 17 -183 10 -43 16 -80
14 -81 -259 -188 -403 -361 -473 -568 -27 -82 -55 -242 -55 -318 0 -41 -6 -52
-68 -125 -436 -517 -548 -719 -672 -1215 -88 -351 -148 -519 -229 -638 -33
-49 -45 -80 -61 -154 -10 -51 -44 -205 -74 -343 -69 -317 -94 -466 -105 -635
-11 -174 5 -406 35 -502 3 -9 28 -28 57 -41 68 -31 113 -70 152 -132 63 -100
86 -179 140 -474 36 -198 79 -347 118 -411 36 -58 108 -130 131 -130 30 0 106
38 210 104 103 65 153 84 183 68 17 -10 21 -25 27 -120 18 -301 110 -577 239
-718 47 -51 51 -54 86 -48 139 25 212 82 325 253 78 117 163 211 191 211 6 0
19 -33 29 -72 68 -267 166 -450 284 -532 l40 -27 119 67 c198 112 324 217 343
285 6 18 10 55 10 80 0 68 18 150 37 172 41 45 46 42 119 -66 114 -170 209
-252 347 -302 l60 -22 126 96 c215 163 310 277 347 415 8 28 19 116 24 196 13
167 29 245 69 314 39 71 50 75 112 46 73 -35 141 -116 224 -266 114 -207 178
-263 310 -272 90 -6 192 22 247 68 21 17 51 58 67 93 54 111 58 250 16 622
-24 212 -21 442 5 485 6 11 19 8 62 -13 109 -54 145 -97 327 -388 106 -168
199 -243 334 -270 53 -11 61 -10 84 8 48 35 63 67 87 183 26 134 41 166 107
232 72 72 82 130 54 303 -26 159 -16 285 24 310 58 36 92 25 183 -60 57 -54
74 -65 103 -65 31 0 38 6 69 55 20 30 92 113 161 185 158 165 200 218 241 305
66 138 68 236 7 419 -59 176 -51 326 18 361 63 33 102 11 177 -98 32 -48 79
-77 122 -77 14 0 25 12 37 43 28 70 125 263 210 417 193 351 241 453 309 655
64 192 87 332 87 545 1 96 -2 187 -6 201 -6 24 1 30 91 89 311 203 617 653
746 1095 32 112 43 188 55 385 10 175 17 198 109 396 81 173 95 227 90 328 -3
61 -11 94 -30 133 l-26 51 33 6 c41 8 81 52 94 104 5 20 12 100 16 177 9 200
5 190 73 204 31 6 194 31 362 55 343 51 432 67 573 102 195 49 349 118 469
210 59 46 63 47 183 65 580 84 1186 399 1496 775 18 22 43 37 85 49 143 41
297 131 398 231 231 230 278 546 127 861 -56 116 -288 458 -353 519 -69 65
-145 101 -375 176 -104 33 -249 83 -323 111 -654 242 -1238 396 -1775 468
-233 32 -717 34 -893 5 -101 -17 -113 -21 -118 -41 -10 -39 0 -59 39 -80 42
-23 46 -37 15 -59 -34 -24 -50 -20 -124 31 -63 44 -74 48 -129 48 l-60 0 -12
-72 c-13 -81 -36 -133 -58 -133 -10 0 -15 11 -15 35 0 106 -65 260 -157 375
-73 90 -176 180 -351 304 -171 121 -417 313 -680 530 -228 188 -319 249 -537
362 -502 259 -1113 440 -2116 624 l-272 50 -371 -1 -371 -1 -175 -39z"/>
</g>
</svg>
