<?xml version="1.0" standalone="no"?>
<!DOCTYPE svg PUBLIC "-//W3C//DTD SVG 20010904//EN"
 "http://www.w3.org/TR/2001/REC-SVG-20010904/DTD/svg10.dtd">
<svg version="1.0" xmlns="http://www.w3.org/2000/svg"
 width="1536.000000pt" height="671.000000pt" viewBox="0 0 1536.000000 671.000000"
 preserveAspectRatio="xMidYMid meet">
<metadata>
Created by potrace 1.16, written by Peter Selinger 2001-2019
</metadata>
<g transform="translate(0.000000,671.000000) scale(0.100000,-0.100000)"
fill="#000000" stroke="none">
<path d="M9342 6680 c-13 -23 -24 -30 -47 -30 -108 0 -776 -54 -809 -65 -39
-14 -39 -13 -87 27 -61 52 -83 47 -77 -17 3 -41 1 -45 -22 -50 -14 -2 -186
-39 -382 -80 l-357 -76 -92 70 c-130 99 -148 94 -105 -29 14 -40 25 -74 23
-76 -1 -1 -60 -19 -132 -38 -71 -20 -218 -67 -327 -103 l-196 -66 -109 71
c-124 81 -163 96 -163 64 0 -24 47 -108 91 -163 l29 -37 -202 -100 c-112 -55
-228 -116 -258 -136 -30 -20 -61 -36 -70 -36 -8 0 -69 30 -134 66 -133 72
-176 87 -176 59 0 -21 75 -128 119 -169 17 -17 31 -35 31 -42 0 -6 -37 -36
-82 -65 -45 -30 -138 -93 -207 -141 -68 -49 -132 -88 -141 -88 -9 0 -72 22
-139 50 -147 59 -191 70 -191 46 0 -23 61 -87 141 -148 l70 -53 -23 -18 c-58
-46 -79 -68 -76 -77 2 -6 41 -12 93 -13 76 -2 99 -6 150 -31 68 -33 196 -155
233 -223 l23 -42 -33 -5 c-18 -2 -141 -12 -273 -21 -440 -29 -528 -36 -574
-45 -25 -6 -183 -17 -350 -25 -167 -8 -306 -17 -310 -20 -4 -2 -111 -14 -237
-25 -449 -41 -788 -104 -1202 -222 -365 -104 -421 -126 -852 -328 -179 -84
-388 -179 -465 -212 -196 -84 -983 -397 -1140 -452 -194 -69 -250 -94 -280
-126 -23 -24 -26 -34 -21 -63 7 -38 39 -71 77 -80 14 -4 176 -16 360 -27 516
-31 701 -48 1004 -90 304 -42 422 -54 675 -70 547 -34 845 -38 1040 -16 69 8
179 18 245 21 66 3 201 15 300 25 99 10 239 21 310 25 72 3 189 12 260 20 95
11 269 15 640 16 281 0 614 4 740 8 203 7 232 6 243 -8 33 -40 -22 -231 -143
-498 -42 -92 -74 -173 -73 -181 2 -8 65 -54 141 -101 131 -81 138 -87 133
-114 -11 -57 -105 -228 -224 -407 -129 -193 -233 -389 -236 -443 -2 -59 30
-47 155 60 244 210 454 438 554 603 20 33 42 60 49 60 7 0 55 -20 107 -44 52
-23 127 -56 167 -71 49 -19 77 -36 82 -50 10 -25 -14 -215 -41 -318 -27 -107
-49 -165 -137 -357 -156 -344 -205 -520 -144 -520 24 0 46 22 139 137 122 151
196 251 266 360 97 148 144 247 212 440 3 8 45 -8 127 -46 68 -32 178 -81 245
-107 l123 -49 0 -85 c0 -186 -35 -354 -124 -598 -124 -340 -165 -529 -120
-546 23 -9 45 14 118 119 267 388 391 644 441 914 8 47 17 86 19 88 2 2 47 -4
101 -13 54 -9 170 -24 258 -33 l161 -16 14 -50 c20 -70 28 -424 12 -524 -7
-42 -28 -143 -47 -225 -76 -327 -84 -561 -17 -521 43 27 246 455 314 665 60
182 71 251 79 475 l6 180 120 6 c66 4 162 10 213 14 l92 7 0 -23 c-1 -13 -5
-43 -9 -66 -10 -53 -5 -58 88 -79 87 -20 87 -20 122 -189 25 -119 28 -225 19
-710 -5 -292 13 -381 70 -330 20 18 86 213 145 430 69 251 96 485 77 665 -7
62 -7 97 0 101 5 4 49 9 96 13 48 4 147 17 220 29 152 26 135 32 196 -70 113
-190 170 -360 217 -646 55 -337 150 -575 189 -473 12 33 28 224 35 436 10 271
-18 506 -81 681 -13 37 -24 71 -24 76 0 5 53 18 118 28 64 10 157 26 205 35
l88 17 83 -81 c158 -155 254 -307 378 -596 83 -194 208 -402 249 -415 50 -16
50 22 5 272 -74 398 -158 643 -288 834 -24 35 -47 69 -51 75 -4 7 16 20 56 34
34 12 98 41 142 62 64 33 83 38 97 29 10 -6 38 -11 62 -11 36 0 54 -8 107 -47
156 -113 288 -273 467 -564 119 -193 255 -353 296 -347 34 5 23 69 -48 282
-108 321 -198 513 -318 680 -27 37 -46 71 -41 75 4 4 49 22 98 40 50 19 123
49 164 67 41 19 79 34 86 34 20 0 172 -164 296 -320 125 -157 294 -326 335
-336 41 -10 49 8 30 68 -22 69 -218 466 -291 587 -30 52 -54 94 -53 95 2 1 65
32 142 69 l138 68 27 -23 c14 -13 64 -59 111 -102 103 -97 228 -190 315 -237
59 -31 65 -33 81 -18 15 15 14 19 -2 50 -21 41 -192 298 -263 394 -28 38 -51
72 -51 75 0 4 68 66 151 138 l151 132 59 -52 c93 -83 212 -170 288 -211 63
-34 71 -36 85 -22 14 15 14 19 0 48 -21 40 -207 319 -245 368 -16 20 -29 39
-29 42 0 3 30 43 66 89 81 102 253 361 321 483 71 127 147 279 214 429 l58
130 68 33 c37 19 122 70 189 114 90 60 127 91 143 119 81 144 82 442 1 692
l-28 87 46 7 c61 9 247 -2 357 -21 61 -11 119 -30 187 -62 97 -46 127 -50 94
-15 -27 31 -106 69 -201 98 -82 24 -109 27 -296 32 l-206 4 -42 85 c-23 47
-41 87 -39 88 2 2 28 13 58 25 70 27 154 74 202 113 61 48 96 144 69 186 -15
23 -31 2 -31 -40 0 -55 -22 -92 -74 -129 -56 -38 -204 -110 -228 -110 -19 0
-22 4 -105 130 -54 83 -189 250 -202 250 -3 0 -39 29 -78 65 -82 72 -115 85
-217 85 l-69 0 -76 73 c-79 74 -224 187 -327 253 -106 68 -549 274 -835 389
-332 134 -1061 336 -1421 395 -321 52 -1182 59 -1732 13 -64 -5 -70 -4 -92 21
-32 33 -41 33 -62 -4z"/>
</g>
</svg>
