<?xml version="1.0" standalone="no"?>
<!DOCTYPE svg PUBLIC "-//W3C//DTD SVG 20010904//EN"
 "http://www.w3.org/TR/2001/REC-SVG-20010904/DTD/svg10.dtd">
<svg version="1.0" xmlns="http://www.w3.org/2000/svg"
 width="1536.000000pt" height="670.000000pt" viewBox="0 0 1536.000000 670.000000"
 preserveAspectRatio="xMidYMid meet">
<metadata>
Created by potrace 1.16, written by Peter Selinger 2001-2019
</metadata>
<g transform="translate(0.000000,670.000000) scale(0.100000,-0.100000)"
fill="#000000" stroke="none">
<path d="M9928 6693 c-10 -2 -18 -9 -18 -15 0 -5 -7 -7 -16 -4 -23 9 -194 -31
-342 -80 -73 -24 -139 -44 -148 -44 -22 0 -74 29 -74 41 0 5 19 19 43 29 l42
20 -35 0 c-45 0 -145 -29 -275 -79 -57 -23 -112 -41 -122 -41 -11 0 -57 -18
-104 -41 -46 -22 -151 -69 -234 -104 -82 -35 -195 -84 -250 -109 -55 -25 -109
-46 -121 -46 -11 0 -29 -7 -40 -15 -10 -8 -37 -15 -59 -15 -30 0 -53 -9 -90
-36 -147 -106 -359 -198 -379 -165 -8 12 135 109 209 142 26 11 49 28 52 37 8
22 23 32 48 32 11 0 34 7 50 16 17 9 53 25 82 35 55 21 89 49 59 49 -33 0
-262 -73 -345 -110 -208 -92 -669 -324 -716 -360 -29 -22 -61 -40 -72 -40 -11
0 -31 -9 -44 -19 -14 -10 -42 -26 -64 -35 -22 -10 -51 -28 -65 -41 -14 -13
-38 -27 -55 -31 -43 -10 -91 -36 -224 -118 -64 -40 -127 -77 -141 -81 -31 -10
-588 -322 -876 -491 -116 -68 -216 -124 -223 -124 -9 0 -11 9 -6 30 5 23 3 30
-9 30 -21 0 -20 9 1 33 17 18 17 19 0 28 -23 13 -21 24 7 37 19 9 24 20 30 73
5 42 4 65 -3 67 -8 3 -8 10 0 24 9 17 6 25 -16 48 l-26 27 21 36 c35 60 67
213 48 232 -3 4 -22 -8 -42 -26 -20 -17 -40 -29 -43 -25 -4 3 3 25 15 49 30
59 47 146 33 160 -6 6 -11 29 -11 52 0 22 -7 51 -16 63 -8 12 -16 44 -17 70
-2 43 -4 47 -26 44 l-24 -4 22 30 c26 37 26 55 1 161 -25 103 -35 118 -61 95
-29 -26 -34 -9 -10 29 25 41 28 87 6 87 -10 0 -15 10 -15 30 0 19 -7 33 -20
40 -14 7 -20 21 -20 44 0 21 -6 36 -15 40 -8 3 -15 12 -15 20 0 9 -20 39 -43
68 -24 30 -52 66 -61 81 -10 15 -24 27 -32 27 -25 0 -139 -118 -178 -184 -54
-92 -71 -104 -66 -48 1 12 -1 22 -5 22 -3 0 -36 -15 -73 -34 -48 -24 -77 -47
-102 -81 -74 -99 -203 -303 -236 -372 -44 -92 -101 -138 -87 -72 10 50 -15 33
-77 -54 -96 -134 -282 -476 -464 -856 -163 -340 -366 -855 -433 -1101 -8 -30
-19 -59 -23 -64 -10 -11 -91 -27 -135 -28 -179 -3 -449 -23 -580 -43 -600 -93
-598 -93 -1043 -219 -538 -154 -746 -230 -1036 -379 -206 -106 -352 -197 -429
-268 l-62 -56 -3 -81 c-10 -205 87 -322 493 -595 254 -170 507 -287 622 -287
35 0 69 -10 120 -34 242 -116 615 -195 1218 -256 110 -12 277 -32 370 -46 325
-48 811 -112 925 -123 63 -6 288 -22 500 -36 212 -14 435 -30 495 -35 323 -28
2076 16 2619 66 l69 6 76 -79 c42 -43 160 -182 262 -308 215 -265 239 -289
296 -304 23 -7 45 -16 48 -21 4 -6 13 -5 25 2 15 10 26 9 53 -4 22 -10 38 -13
44 -7 6 6 20 6 39 0 47 -15 142 -22 149 -11 4 6 19 4 42 -5 27 -11 39 -12 50
-4 10 9 27 6 72 -15 94 -42 127 -28 35 15 -50 24 -59 49 -16 49 26 0 59 -8
292 -68 183 -48 345 -64 325 -32 -11 18 15 20 52 5 29 -13 55 -15 112 -10 109
10 495 27 575 25 59 -1 68 1 58 13 -10 12 5 15 101 20 110 5 187 24 187 46 0
5 18 11 40 13 60 5 53 23 -10 26 -153 7 -120 32 43 32 110 0 120 2 160 27 48
31 69 52 61 64 -3 5 -47 9 -97 9 -92 0 -132 10 -107 25 27 17 -19 25 -139 25
-68 0 -122 2 -119 5 2 3 57 9 121 14 64 6 125 15 134 20 15 9 12 10 -15 11
-18 0 -43 6 -55 14 -16 10 -69 15 -197 18 -96 2 -181 7 -189 12 -27 17 14 26
134 27 101 0 245 14 194 18 -9 0 -24 10 -34 21 -10 11 -26 20 -36 20 -10 0
-26 11 -35 24 l-15 25 -314 3 c-288 3 -340 7 -322 24 3 4 117 10 252 14 236 7
311 18 235 35 -17 4 -34 13 -37 21 -4 12 -7 12 -18 -2 -10 -14 -31 -17 -124
-16 -62 0 -117 4 -123 10 -13 13 4 18 108 32 83 12 114 23 101 36 -4 5 -99 2
-210 -4 -305 -19 -490 -14 -449 12 7 4 56 11 110 16 53 5 151 14 217 20 134
12 165 25 85 36 -50 7 -51 8 -29 20 30 17 51 17 -271 -7 -403 -29 -1024 -24
-1324 11 -97 12 -124 30 -45 30 60 0 319 22 539 45 212 23 393 47 991 131
l536 75 99 -69 c105 -74 214 -139 214 -127 0 4 -21 27 -47 51 -64 60 -47 55
203 -62 184 -87 442 -184 486 -184 16 0 17 3 8 20 -6 11 -9 20 -8 20 2 0 24
-7 51 -15 44 -13 51 -12 48 7 0 4 14 15 32 24 67 35 225 165 235 194 7 18 19
30 34 32 18 2 22 8 20 27 -3 19 0 22 14 17 24 -9 96 28 157 83 29 26 63 52 77
59 14 7 40 24 59 37 19 14 43 25 55 25 12 0 28 4 36 10 23 14 -22 26 -130 33
-156 11 -550 80 -550 98 0 10 67 30 330 96 205 52 222 55 378 60 246 8 398
-18 542 -93 71 -37 101 -61 332 -263 279 -245 958 -801 1243 -1016 142 -108
563 -390 745 -499 170 -102 328 -182 406 -204 59 -17 96 -25 209 -44 33 -5 25
64 -14 118 -17 25 -31 53 -31 63 0 29 -144 309 -199 386 -27 39 -65 97 -83
130 -18 33 -61 88 -95 123 -33 34 -63 69 -67 77 -3 8 -23 26 -46 40 -22 14
-40 32 -40 40 0 8 -24 32 -52 53 -29 22 -100 83 -158 137 -127 118 -197 175
-216 175 -8 0 -14 9 -14 20 0 12 -16 30 -40 46 -21 14 -46 37 -54 50 -9 13
-33 28 -55 35 -30 9 -40 18 -44 38 -4 19 -22 36 -71 64 -36 21 -67 42 -67 47
-1 6 -2 16 -3 22 0 7 -21 23 -46 37 -84 44 -92 51 -81 65 14 17 -12 52 -68 90
-23 16 -41 35 -41 43 0 7 -11 19 -25 25 -14 6 -25 19 -25 29 0 12 -17 27 -47
41 -37 18 -49 30 -55 55 -5 18 -25 46 -48 66 -22 19 -40 39 -40 45 0 6 -13 18
-30 27 -31 16 -34 22 -30 63 1 13 -4 30 -10 38 -10 11 -10 17 0 29 16 19 13
23 -39 38 -44 12 -54 34 -13 29 32 -4 28 21 -9 52 -21 18 -42 26 -67 26 -28 0
-33 3 -22 10 8 5 29 10 46 10 37 0 66 26 40 36 -19 7 -21 30 -3 38 10 5 10 7
0 12 -20 9 -15 24 8 24 37 0 14 24 -32 34 l-44 9 45 10 c48 10 73 24 65 37 -3
5 4 32 15 60 11 28 20 60 20 72 0 11 8 27 18 34 15 12 14 13 -13 14 l-30 1 28
24 c15 14 35 25 44 25 12 0 13 3 4 14 -10 12 -7 17 15 28 35 17 43 38 14 38
-30 0 -18 14 45 49 37 21 55 37 55 51 0 10 9 24 20 30 11 6 20 19 20 28 0 10
13 28 29 40 16 12 31 31 33 44 2 16 23 32 78 59 88 45 152 95 148 116 -2 10
22 31 65 57 37 23 87 62 111 86 23 25 80 72 126 105 45 33 93 77 106 97 13 20
49 56 79 78 31 23 60 52 65 64 4 13 25 33 44 44 20 12 36 27 36 35 0 7 16 28
35 47 19 19 35 40 35 47 0 7 9 17 20 23 11 6 20 19 20 30 0 10 11 35 24 55 32
47 44 133 23 172 -8 15 -27 51 -41 78 -16 30 -37 55 -54 62 -45 20 -181 16
-258 -8 -96 -29 -294 -132 -455 -236 -75 -48 -182 -117 -238 -153 -56 -36
-173 -110 -259 -165 -86 -56 -263 -167 -392 -248 -129 -82 -307 -195 -395
-254 -294 -194 -389 -228 -620 -226 -228 2 -402 37 -800 160 -99 30 -184 59
-188 63 -12 11 152 61 378 116 105 25 217 55 250 65 l60 19 -77 -6 c-48 -3
-79 -1 -83 6 -3 5 1 13 9 16 32 12 17 34 -23 34 -34 0 -42 4 -53 28 -12 24
-18 27 -60 24 -50 -4 -74 14 -33 24 46 11 15 26 -42 19 l-54 -7 7 26 c6 25 4
26 -35 26 -45 0 -48 5 -25 38 18 26 15 27 -33 7 -19 -8 -39 -15 -44 -15 -14 0
-11 28 4 33 24 10 -50 7 -107 -4 -31 -7 -59 -9 -63 -5 -8 8 27 46 42 46 17 0
62 37 54 44 -3 4 -29 -4 -58 -15 -65 -27 -89 -15 -47 24 33 31 21 41 -40 32
-27 -4 -49 -14 -58 -27 -11 -15 -21 -19 -40 -14 -33 8 -33 26 -1 56 30 29 31
36 4 43 -16 4 -19 11 -14 27 7 21 5 22 -59 15 -56 -6 -66 -5 -66 8 0 9 10 23
22 31 22 16 21 16 -20 16 -44 0 -57 14 -21 23 12 3 18 10 14 17 -4 7 -35 8
-96 4 -49 -4 -89 -5 -89 -2 0 3 25 22 55 43 30 20 55 40 55 42 0 3 -13 3 -29
0 -23 -5 -30 -2 -34 13 -7 27 -33 26 -168 -10 -63 -16 -117 -26 -122 -21 -4 4
25 29 65 57 75 51 104 92 80 116 -9 9 -16 7 -31 -6 -13 -11 -27 -15 -40 -11
-12 4 -45 -2 -76 -14 -97 -36 -138 -24 -67 20 l37 23 -27 4 c-16 2 -28 7 -28
11 0 4 32 22 71 39 95 42 79 72 -20 37 -41 -14 -41 -14 -41 10 0 31 -4 31 -96
0 -97 -33 -264 -117 -307 -155 -21 -18 -53 -34 -80 -39 -24 -4 -60 -20 -79
-34 -19 -15 -40 -27 -45 -27 -29 0 -486 -328 -514 -369 -20 -30 -94 -41 -273
-41 -228 0 -583 12 -597 20 -8 5 -4 19 15 46 14 21 26 44 26 50 0 6 19 15 42
20 23 5 43 15 46 22 3 10 -13 11 -76 6 -53 -4 -81 -3 -86 4 -15 25 89 61 124
42 15 -8 29 -1 73 40 30 28 72 72 93 100 20 27 49 54 63 60 15 6 47 28 71 50
l45 39 -32 1 c-18 0 -33 5 -33 10 0 13 33 26 94 37 53 9 76 33 32 33 -79 0 1
44 119 65 67 12 69 13 41 24 -16 6 -37 9 -47 6 -14 -5 -19 -1 -19 12 0 11 5
24 12 31 9 9 2 12 -35 12 -26 0 -47 4 -47 9 0 15 105 52 172 61 65 8 234 79
210 87 -7 3 -27 0 -44 -6 -38 -13 -75 -14 -82 -2 -12 19 7 40 62 68 31 15 58
36 60 45 3 15 -1 15 -44 2 -26 -8 -50 -12 -52 -9 -8 7 192 99 283 131 44 15
82 29 84 31 2 1 -4 12 -14 23 -18 20 -18 21 23 63 23 24 42 48 42 55 0 16 41
34 181 79 59 19 115 41 125 49 20 16 10 16 -133 -3 -34 -4 -43 -2 -43 9 0 32
63 68 160 93 84 21 98 35 36 35 -40 0 -47 3 -42 16 3 9 6 22 6 30 0 7 17 22
38 33 20 11 73 47 117 80 44 34 127 84 184 113 57 28 114 61 125 72 11 12 30
26 41 31 25 13 33 45 10 45 -9 0 -33 -9 -54 -19 -39 -21 -353 -131 -371 -131
-5 0 -10 9 -10 21 0 11 -4 18 -9 14 -5 -3 -12 -1 -15 4 -7 10 80 50 222 101
154 55 294 111 317 126 26 18 8 18 -45 -1 -57 -20 -60 -19 -60 14 0 16 -6 32
-12 34 -20 8 9 25 72 43 90 25 140 45 140 56 0 16 -52 3 -290 -68 -118 -35
-220 -64 -227 -64 -6 0 -9 9 -5 22 4 18 2 20 -16 16 -12 -4 -22 -2 -22 2 0 16
55 47 150 86 88 36 102 38 183 36 71 -1 87 1 87 13 0 8 -9 15 -20 15 -29 0
-25 19 7 31 36 13 129 37 176 44 65 10 40 25 -42 25 -87 0 -111 5 -111 25 0 8
26 18 68 25 76 14 105 27 97 41 -4 5 -25 9 -49 9 -46 0 -63 10 -90 53 -13 22
-23 27 -39 23 -49 -13 -97 -18 -97 -9 0 5 54 36 121 68 113 56 148 79 137 90
-2 2 -38 -9 -79 -25 -75 -30 -159 -39 -189 -20 -23 14 6 38 71 60 55 19 83 48
38 38 -13 -3 -71 -16 -129 -28 -106 -23 -281 -33 -297 -17 -14 15 28 36 106
53 42 9 80 20 86 25 9 9 -104 11 -137 2z"/>
</g>
</svg>
